<?xml version="1.0" encoding="utf-8" standalone="no"?>
<!DOCTYPE svg PUBLIC "-//W3C//DTD SVG 1.1//EN"
  "http://www.w3.org/Graphics/SVG/1.1/DTD/svg11.dtd">
<svg xmlns:xlink="http://www.w3.org/1999/xlink" width="460.8pt" height="345.6pt" viewBox="0 0 460.8 345.6" xmlns="http://www.w3.org/2000/svg" version="1.1">
 <metadata>
  <rdf:RDF xmlns:dc="http://purl.org/dc/elements/1.1/" xmlns:cc="http://creativecommons.org/ns#" xmlns:rdf="http://www.w3.org/1999/02/22-rdf-syntax-ns#">
   <cc:Work>
    <dc:type rdf:resource="http://purl.org/dc/dcmitype/StillImage"/>
    <dc:date>2025-07-28T21:14:15.302340</dc:date>
    <dc:format>image/svg+xml</dc:format>
    <dc:creator>
     <cc:Agent>
      <dc:title>Matplotlib v3.10.3, https://matplotlib.org/</dc:title>
     </cc:Agent>
    </dc:creator>
   </cc:Work>
  </rdf:RDF>
 </metadata>
 <defs>
  <style type="text/css">*{stroke-linejoin: round; stroke-linecap: butt}</style>
 </defs>
 <g id="figure_1">
  <g id="patch_1">
   <path d="M 0 345.6 
L 460.8 345.6 
L 460.8 0 
L 0 0 
z
" style="fill: #ffffff"/>
  </g>
  <g id="axes_1">
   <g id="patch_2">
    <path d="M 50.87 303.64 
L 439.246192 303.64 
L 439.246192 26.88 
L 50.87 26.88 
z
" style="fill: #ffffff"/>
   </g>
   <g id="matplotlib.axis_1">
    <g id="xtick_1">
     <g id="line2d_1">
      <path d="M 68.678199 303.64 
L 68.678199 26.88 
" clip-path="url(#p55d7928493)" style="fill: none; stroke: #b0b0b0; stroke-opacity: 0.3; stroke-width: 0.8; stroke-linecap: square"/>
     </g>
     <g id="line2d_2">
      <defs>
       <path id="m153f189fe5" d="M 0 0 
L 0 3.5 
" style="stroke: #000000; stroke-width: 0.8"/>
      </defs>
      <g>
       <use xlink:href="#m153f189fe5" x="68.678199" y="303.64" style="stroke: #000000; stroke-width: 0.8"/>
      </g>
     </g>
     <g id="text_1">
      <!-- 0.000 -->
      <g transform="translate(54.364137 318.238437) scale(0.1 -0.1)">
       <defs>
        <path id="DejaVuSans-30" d="M 2034 4250 
Q 1547 4250 1301 3770 
Q 1056 3291 1056 2328 
Q 1056 1369 1301 889 
Q 1547 409 2034 409 
Q 2525 409 2770 889 
Q 3016 1369 3016 2328 
Q 3016 3291 2770 3770 
Q 2525 4250 2034 4250 
z
M 2034 4750 
Q 2819 4750 3233 4129 
Q 3647 3509 3647 2328 
Q 3647 1150 3233 529 
Q 2819 -91 2034 -91 
Q 1250 -91 836 529 
Q 422 1150 422 2328 
Q 422 3509 836 4129 
Q 1250 4750 2034 4750 
z
" transform="scale(0.015625)"/>
        <path id="DejaVuSans-2e" d="M 684 794 
L 1344 794 
L 1344 0 
L 684 0 
L 684 794 
z
" transform="scale(0.015625)"/>
       </defs>
       <use xlink:href="#DejaVuSans-30"/>
       <use xlink:href="#DejaVuSans-2e" transform="translate(63.623047 0)"/>
       <use xlink:href="#DejaVuSans-30" transform="translate(95.410156 0)"/>
       <use xlink:href="#DejaVuSans-30" transform="translate(159.033203 0)"/>
       <use xlink:href="#DejaVuSans-30" transform="translate(222.65625 0)"/>
      </g>
     </g>
    </g>
    <g id="xtick_2">
     <g id="line2d_3">
      <path d="M 114.53412 303.64 
L 114.53412 26.88 
" clip-path="url(#p55d7928493)" style="fill: none; stroke: #b0b0b0; stroke-opacity: 0.3; stroke-width: 0.8; stroke-linecap: square"/>
     </g>
     <g id="line2d_4">
      <g>
       <use xlink:href="#m153f189fe5" x="114.53412" y="303.64" style="stroke: #000000; stroke-width: 0.8"/>
      </g>
     </g>
     <g id="text_2">
      <!-- 0.025 -->
      <g transform="translate(100.220058 318.238437) scale(0.1 -0.1)">
       <defs>
        <path id="DejaVuSans-32" d="M 1228 531 
L 3431 531 
L 3431 0 
L 469 0 
L 469 531 
Q 828 903 1448 1529 
Q 2069 2156 2228 2338 
Q 2531 2678 2651 2914 
Q 2772 3150 2772 3378 
Q 2772 3750 2511 3984 
Q 2250 4219 1831 4219 
Q 1534 4219 1204 4116 
Q 875 4013 500 3803 
L 500 4441 
Q 881 4594 1212 4672 
Q 1544 4750 1819 4750 
Q 2544 4750 2975 4387 
Q 3406 4025 3406 3419 
Q 3406 3131 3298 2873 
Q 3191 2616 2906 2266 
Q 2828 2175 2409 1742 
Q 1991 1309 1228 531 
z
" transform="scale(0.015625)"/>
        <path id="DejaVuSans-35" d="M 691 4666 
L 3169 4666 
L 3169 4134 
L 1269 4134 
L 1269 2991 
Q 1406 3038 1543 3061 
Q 1681 3084 1819 3084 
Q 2600 3084 3056 2656 
Q 3513 2228 3513 1497 
Q 3513 744 3044 326 
Q 2575 -91 1722 -91 
Q 1428 -91 1123 -41 
Q 819 9 494 109 
L 494 744 
Q 775 591 1075 516 
Q 1375 441 1709 441 
Q 2250 441 2565 725 
Q 2881 1009 2881 1497 
Q 2881 1984 2565 2268 
Q 2250 2553 1709 2553 
Q 1456 2553 1204 2497 
Q 953 2441 691 2322 
L 691 4666 
z
" transform="scale(0.015625)"/>
       </defs>
       <use xlink:href="#DejaVuSans-30"/>
       <use xlink:href="#DejaVuSans-2e" transform="translate(63.623047 0)"/>
       <use xlink:href="#DejaVuSans-30" transform="translate(95.410156 0)"/>
       <use xlink:href="#DejaVuSans-32" transform="translate(159.033203 0)"/>
       <use xlink:href="#DejaVuSans-35" transform="translate(222.65625 0)"/>
      </g>
     </g>
    </g>
    <g id="xtick_3">
     <g id="line2d_5">
      <path d="M 160.390041 303.64 
L 160.390041 26.88 
" clip-path="url(#p55d7928493)" style="fill: none; stroke: #b0b0b0; stroke-opacity: 0.3; stroke-width: 0.8; stroke-linecap: square"/>
     </g>
     <g id="line2d_6">
      <g>
       <use xlink:href="#m153f189fe5" x="160.390041" y="303.64" style="stroke: #000000; stroke-width: 0.8"/>
      </g>
     </g>
     <g id="text_3">
      <!-- 0.050 -->
      <g transform="translate(146.075979 318.238437) scale(0.1 -0.1)">
       <use xlink:href="#DejaVuSans-30"/>
       <use xlink:href="#DejaVuSans-2e" transform="translate(63.623047 0)"/>
       <use xlink:href="#DejaVuSans-30" transform="translate(95.410156 0)"/>
       <use xlink:href="#DejaVuSans-35" transform="translate(159.033203 0)"/>
       <use xlink:href="#DejaVuSans-30" transform="translate(222.65625 0)"/>
      </g>
     </g>
    </g>
    <g id="xtick_4">
     <g id="line2d_7">
      <path d="M 206.245962 303.64 
L 206.245962 26.88 
" clip-path="url(#p55d7928493)" style="fill: none; stroke: #b0b0b0; stroke-opacity: 0.3; stroke-width: 0.8; stroke-linecap: square"/>
     </g>
     <g id="line2d_8">
      <g>
       <use xlink:href="#m153f189fe5" x="206.245962" y="303.64" style="stroke: #000000; stroke-width: 0.8"/>
      </g>
     </g>
     <g id="text_4">
      <!-- 0.075 -->
      <g transform="translate(191.9319 318.238437) scale(0.1 -0.1)">
       <defs>
        <path id="DejaVuSans-37" d="M 525 4666 
L 3525 4666 
L 3525 4397 
L 1831 0 
L 1172 0 
L 2766 4134 
L 525 4134 
L 525 4666 
z
" transform="scale(0.015625)"/>
       </defs>
       <use xlink:href="#DejaVuSans-30"/>
       <use xlink:href="#DejaVuSans-2e" transform="translate(63.623047 0)"/>
       <use xlink:href="#DejaVuSans-30" transform="translate(95.410156 0)"/>
       <use xlink:href="#DejaVuSans-37" transform="translate(159.033203 0)"/>
       <use xlink:href="#DejaVuSans-35" transform="translate(222.65625 0)"/>
      </g>
     </g>
    </g>
    <g id="xtick_5">
     <g id="line2d_9">
      <path d="M 252.101883 303.64 
L 252.101883 26.88 
" clip-path="url(#p55d7928493)" style="fill: none; stroke: #b0b0b0; stroke-opacity: 0.3; stroke-width: 0.8; stroke-linecap: square"/>
     </g>
     <g id="line2d_10">
      <g>
       <use xlink:href="#m153f189fe5" x="252.101883" y="303.64" style="stroke: #000000; stroke-width: 0.8"/>
      </g>
     </g>
     <g id="text_5">
      <!-- 0.100 -->
      <g transform="translate(237.787821 318.238437) scale(0.1 -0.1)">
       <defs>
        <path id="DejaVuSans-31" d="M 794 531 
L 1825 531 
L 1825 4091 
L 703 3866 
L 703 4441 
L 1819 4666 
L 2450 4666 
L 2450 531 
L 3481 531 
L 3481 0 
L 794 0 
L 794 531 
z
" transform="scale(0.015625)"/>
       </defs>
       <use xlink:href="#DejaVuSans-30"/>
       <use xlink:href="#DejaVuSans-2e" transform="translate(63.623047 0)"/>
       <use xlink:href="#DejaVuSans-31" transform="translate(95.410156 0)"/>
       <use xlink:href="#DejaVuSans-30" transform="translate(159.033203 0)"/>
       <use xlink:href="#DejaVuSans-30" transform="translate(222.65625 0)"/>
      </g>
     </g>
    </g>
    <g id="xtick_6">
     <g id="line2d_11">
      <path d="M 297.957804 303.64 
L 297.957804 26.88 
" clip-path="url(#p55d7928493)" style="fill: none; stroke: #b0b0b0; stroke-opacity: 0.3; stroke-width: 0.8; stroke-linecap: square"/>
     </g>
     <g id="line2d_12">
      <g>
       <use xlink:href="#m153f189fe5" x="297.957804" y="303.64" style="stroke: #000000; stroke-width: 0.8"/>
      </g>
     </g>
     <g id="text_6">
      <!-- 0.125 -->
      <g transform="translate(283.643742 318.238437) scale(0.1 -0.1)">
       <use xlink:href="#DejaVuSans-30"/>
       <use xlink:href="#DejaVuSans-2e" transform="translate(63.623047 0)"/>
       <use xlink:href="#DejaVuSans-31" transform="translate(95.410156 0)"/>
       <use xlink:href="#DejaVuSans-32" transform="translate(159.033203 0)"/>
       <use xlink:href="#DejaVuSans-35" transform="translate(222.65625 0)"/>
      </g>
     </g>
    </g>
    <g id="xtick_7">
     <g id="line2d_13">
      <path d="M 343.813725 303.64 
L 343.813725 26.88 
" clip-path="url(#p55d7928493)" style="fill: none; stroke: #b0b0b0; stroke-opacity: 0.3; stroke-width: 0.8; stroke-linecap: square"/>
     </g>
     <g id="line2d_14">
      <g>
       <use xlink:href="#m153f189fe5" x="343.813725" y="303.64" style="stroke: #000000; stroke-width: 0.8"/>
      </g>
     </g>
     <g id="text_7">
      <!-- 0.150 -->
      <g transform="translate(329.499663 318.238437) scale(0.1 -0.1)">
       <use xlink:href="#DejaVuSans-30"/>
       <use xlink:href="#DejaVuSans-2e" transform="translate(63.623047 0)"/>
       <use xlink:href="#DejaVuSans-31" transform="translate(95.410156 0)"/>
       <use xlink:href="#DejaVuSans-35" transform="translate(159.033203 0)"/>
       <use xlink:href="#DejaVuSans-30" transform="translate(222.65625 0)"/>
      </g>
     </g>
    </g>
    <g id="xtick_8">
     <g id="line2d_15">
      <path d="M 389.669646 303.64 
L 389.669646 26.88 
" clip-path="url(#p55d7928493)" style="fill: none; stroke: #b0b0b0; stroke-opacity: 0.3; stroke-width: 0.8; stroke-linecap: square"/>
     </g>
     <g id="line2d_16">
      <g>
       <use xlink:href="#m153f189fe5" x="389.669646" y="303.64" style="stroke: #000000; stroke-width: 0.8"/>
      </g>
     </g>
     <g id="text_8">
      <!-- 0.175 -->
      <g transform="translate(375.355584 318.238437) scale(0.1 -0.1)">
       <use xlink:href="#DejaVuSans-30"/>
       <use xlink:href="#DejaVuSans-2e" transform="translate(63.623047 0)"/>
       <use xlink:href="#DejaVuSans-31" transform="translate(95.410156 0)"/>
       <use xlink:href="#DejaVuSans-37" transform="translate(159.033203 0)"/>
       <use xlink:href="#DejaVuSans-35" transform="translate(222.65625 0)"/>
      </g>
     </g>
    </g>
    <g id="xtick_9">
     <g id="line2d_17">
      <path d="M 435.525567 303.64 
L 435.525567 26.88 
" clip-path="url(#p55d7928493)" style="fill: none; stroke: #b0b0b0; stroke-opacity: 0.3; stroke-width: 0.8; stroke-linecap: square"/>
     </g>
     <g id="line2d_18">
      <g>
       <use xlink:href="#m153f189fe5" x="435.525567" y="303.64" style="stroke: #000000; stroke-width: 0.8"/>
      </g>
     </g>
     <g id="text_9">
      <!-- 0.200 -->
      <g transform="translate(421.211505 318.238437) scale(0.1 -0.1)">
       <use xlink:href="#DejaVuSans-30"/>
       <use xlink:href="#DejaVuSans-2e" transform="translate(63.623047 0)"/>
       <use xlink:href="#DejaVuSans-32" transform="translate(95.410156 0)"/>
       <use xlink:href="#DejaVuSans-30" transform="translate(159.033203 0)"/>
       <use xlink:href="#DejaVuSans-30" transform="translate(222.65625 0)"/>
      </g>
     </g>
    </g>
    <g id="text_10">
     <!-- Strain [-] -->
     <g transform="translate(222.951846 331.916562) scale(0.1 -0.1)">
      <defs>
       <path id="DejaVuSans-53" d="M 3425 4513 
L 3425 3897 
Q 3066 4069 2747 4153 
Q 2428 4238 2131 4238 
Q 1616 4238 1336 4038 
Q 1056 3838 1056 3469 
Q 1056 3159 1242 3001 
Q 1428 2844 1947 2747 
L 2328 2669 
Q 3034 2534 3370 2195 
Q 3706 1856 3706 1288 
Q 3706 609 3251 259 
Q 2797 -91 1919 -91 
Q 1588 -91 1214 -16 
Q 841 59 441 206 
L 441 856 
Q 825 641 1194 531 
Q 1563 422 1919 422 
Q 2459 422 2753 634 
Q 3047 847 3047 1241 
Q 3047 1584 2836 1778 
Q 2625 1972 2144 2069 
L 1759 2144 
Q 1053 2284 737 2584 
Q 422 2884 422 3419 
Q 422 4038 858 4394 
Q 1294 4750 2059 4750 
Q 2388 4750 2728 4690 
Q 3069 4631 3425 4513 
z
" transform="scale(0.015625)"/>
       <path id="DejaVuSans-74" d="M 1172 4494 
L 1172 3500 
L 2356 3500 
L 2356 3053 
L 1172 3053 
L 1172 1153 
Q 1172 725 1289 603 
Q 1406 481 1766 481 
L 2356 481 
L 2356 0 
L 1766 0 
Q 1100 0 847 248 
Q 594 497 594 1153 
L 594 3053 
L 172 3053 
L 172 3500 
L 594 3500 
L 594 4494 
L 1172 4494 
z
" transform="scale(0.015625)"/>
       <path id="DejaVuSans-72" d="M 2631 2963 
Q 2534 3019 2420 3045 
Q 2306 3072 2169 3072 
Q 1681 3072 1420 2755 
Q 1159 2438 1159 1844 
L 1159 0 
L 581 0 
L 581 3500 
L 1159 3500 
L 1159 2956 
Q 1341 3275 1631 3429 
Q 1922 3584 2338 3584 
Q 2397 3584 2469 3576 
Q 2541 3569 2628 3553 
L 2631 2963 
z
" transform="scale(0.015625)"/>
       <path id="DejaVuSans-61" d="M 2194 1759 
Q 1497 1759 1228 1600 
Q 959 1441 959 1056 
Q 959 750 1161 570 
Q 1363 391 1709 391 
Q 2188 391 2477 730 
Q 2766 1069 2766 1631 
L 2766 1759 
L 2194 1759 
z
M 3341 1997 
L 3341 0 
L 2766 0 
L 2766 531 
Q 2569 213 2275 61 
Q 1981 -91 1556 -91 
Q 1019 -91 701 211 
Q 384 513 384 1019 
Q 384 1609 779 1909 
Q 1175 2209 1959 2209 
L 2766 2209 
L 2766 2266 
Q 2766 2663 2505 2880 
Q 2244 3097 1772 3097 
Q 1472 3097 1187 3025 
Q 903 2953 641 2809 
L 641 3341 
Q 956 3463 1253 3523 
Q 1550 3584 1831 3584 
Q 2591 3584 2966 3190 
Q 3341 2797 3341 1997 
z
" transform="scale(0.015625)"/>
       <path id="DejaVuSans-69" d="M 603 3500 
L 1178 3500 
L 1178 0 
L 603 0 
L 603 3500 
z
M 603 4863 
L 1178 4863 
L 1178 4134 
L 603 4134 
L 603 4863 
z
" transform="scale(0.015625)"/>
       <path id="DejaVuSans-6e" d="M 3513 2113 
L 3513 0 
L 2938 0 
L 2938 2094 
Q 2938 2591 2744 2837 
Q 2550 3084 2163 3084 
Q 1697 3084 1428 2787 
Q 1159 2491 1159 1978 
L 1159 0 
L 581 0 
L 581 3500 
L 1159 3500 
L 1159 2956 
Q 1366 3272 1645 3428 
Q 1925 3584 2291 3584 
Q 2894 3584 3203 3211 
Q 3513 2838 3513 2113 
z
" transform="scale(0.015625)"/>
       <path id="DejaVuSans-20" transform="scale(0.015625)"/>
       <path id="DejaVuSans-5b" d="M 550 4863 
L 1875 4863 
L 1875 4416 
L 1125 4416 
L 1125 -397 
L 1875 -397 
L 1875 -844 
L 550 -844 
L 550 4863 
z
" transform="scale(0.015625)"/>
       <path id="DejaVuSans-2d" d="M 313 2009 
L 1997 2009 
L 1997 1497 
L 313 1497 
L 313 2009 
z
" transform="scale(0.015625)"/>
       <path id="DejaVuSans-5d" d="M 1947 4863 
L 1947 -844 
L 622 -844 
L 622 -397 
L 1369 -397 
L 1369 4416 
L 622 4416 
L 622 4863 
L 1947 4863 
z
" transform="scale(0.015625)"/>
      </defs>
      <use xlink:href="#DejaVuSans-53"/>
      <use xlink:href="#DejaVuSans-74" transform="translate(63.476562 0)"/>
      <use xlink:href="#DejaVuSans-72" transform="translate(102.685547 0)"/>
      <use xlink:href="#DejaVuSans-61" transform="translate(143.798828 0)"/>
      <use xlink:href="#DejaVuSans-69" transform="translate(205.078125 0)"/>
      <use xlink:href="#DejaVuSans-6e" transform="translate(232.861328 0)"/>
      <use xlink:href="#DejaVuSans-20" transform="translate(296.240234 0)"/>
      <use xlink:href="#DejaVuSans-5b" transform="translate(328.027344 0)"/>
      <use xlink:href="#DejaVuSans-2d" transform="translate(367.041016 0)"/>
      <use xlink:href="#DejaVuSans-5d" transform="translate(403.125 0)"/>
     </g>
    </g>
   </g>
   <g id="matplotlib.axis_2">
    <g id="ytick_1">
     <g id="line2d_19">
      <path d="M 50.87 268.4962 
L 439.246192 268.4962 
" clip-path="url(#p55d7928493)" style="fill: none; stroke: #b0b0b0; stroke-opacity: 0.3; stroke-width: 0.8; stroke-linecap: square"/>
     </g>
     <g id="line2d_20">
      <defs>
       <path id="m2c77a11f28" d="M 0 0 
L -3.5 0 
" style="stroke: #000000; stroke-width: 0.8"/>
      </defs>
      <g>
       <use xlink:href="#m2c77a11f28" x="50.87" y="268.4962" style="stroke: #000000; stroke-width: 0.8"/>
      </g>
     </g>
     <g id="text_11">
      <!-- 0 -->
      <g transform="translate(37.5075 272.295418) scale(0.1 -0.1)">
       <use xlink:href="#DejaVuSans-30"/>
      </g>
     </g>
    </g>
    <g id="ytick_2">
     <g id="line2d_21">
      <path d="M 50.87 227.138813 
L 439.246192 227.138813 
" clip-path="url(#p55d7928493)" style="fill: none; stroke: #b0b0b0; stroke-opacity: 0.3; stroke-width: 0.8; stroke-linecap: square"/>
     </g>
     <g id="line2d_22">
      <g>
       <use xlink:href="#m2c77a11f28" x="50.87" y="227.138813" style="stroke: #000000; stroke-width: 0.8"/>
      </g>
     </g>
     <g id="text_12">
      <!-- 100 -->
      <g transform="translate(24.7825 230.938031) scale(0.1 -0.1)">
       <use xlink:href="#DejaVuSans-31"/>
       <use xlink:href="#DejaVuSans-30" transform="translate(63.623047 0)"/>
       <use xlink:href="#DejaVuSans-30" transform="translate(127.246094 0)"/>
      </g>
     </g>
    </g>
    <g id="ytick_3">
     <g id="line2d_23">
      <path d="M 50.87 185.781426 
L 439.246192 185.781426 
" clip-path="url(#p55d7928493)" style="fill: none; stroke: #b0b0b0; stroke-opacity: 0.3; stroke-width: 0.8; stroke-linecap: square"/>
     </g>
     <g id="line2d_24">
      <g>
       <use xlink:href="#m2c77a11f28" x="50.87" y="185.781426" style="stroke: #000000; stroke-width: 0.8"/>
      </g>
     </g>
     <g id="text_13">
      <!-- 200 -->
      <g transform="translate(24.7825 189.580644) scale(0.1 -0.1)">
       <use xlink:href="#DejaVuSans-32"/>
       <use xlink:href="#DejaVuSans-30" transform="translate(63.623047 0)"/>
       <use xlink:href="#DejaVuSans-30" transform="translate(127.246094 0)"/>
      </g>
     </g>
    </g>
    <g id="ytick_4">
     <g id="line2d_25">
      <path d="M 50.87 144.424039 
L 439.246192 144.424039 
" clip-path="url(#p55d7928493)" style="fill: none; stroke: #b0b0b0; stroke-opacity: 0.3; stroke-width: 0.8; stroke-linecap: square"/>
     </g>
     <g id="line2d_26">
      <g>
       <use xlink:href="#m2c77a11f28" x="50.87" y="144.424039" style="stroke: #000000; stroke-width: 0.8"/>
      </g>
     </g>
     <g id="text_14">
      <!-- 300 -->
      <g transform="translate(24.7825 148.223257) scale(0.1 -0.1)">
       <defs>
        <path id="DejaVuSans-33" d="M 2597 2516 
Q 3050 2419 3304 2112 
Q 3559 1806 3559 1356 
Q 3559 666 3084 287 
Q 2609 -91 1734 -91 
Q 1441 -91 1130 -33 
Q 819 25 488 141 
L 488 750 
Q 750 597 1062 519 
Q 1375 441 1716 441 
Q 2309 441 2620 675 
Q 2931 909 2931 1356 
Q 2931 1769 2642 2001 
Q 2353 2234 1838 2234 
L 1294 2234 
L 1294 2753 
L 1863 2753 
Q 2328 2753 2575 2939 
Q 2822 3125 2822 3475 
Q 2822 3834 2567 4026 
Q 2313 4219 1838 4219 
Q 1578 4219 1281 4162 
Q 984 4106 628 3988 
L 628 4550 
Q 988 4650 1302 4700 
Q 1616 4750 1894 4750 
Q 2613 4750 3031 4423 
Q 3450 4097 3450 3541 
Q 3450 3153 3228 2886 
Q 3006 2619 2597 2516 
z
" transform="scale(0.015625)"/>
       </defs>
       <use xlink:href="#DejaVuSans-33"/>
       <use xlink:href="#DejaVuSans-30" transform="translate(63.623047 0)"/>
       <use xlink:href="#DejaVuSans-30" transform="translate(127.246094 0)"/>
      </g>
     </g>
    </g>
    <g id="ytick_5">
     <g id="line2d_27">
      <path d="M 50.87 103.066652 
L 439.246192 103.066652 
" clip-path="url(#p55d7928493)" style="fill: none; stroke: #b0b0b0; stroke-opacity: 0.3; stroke-width: 0.8; stroke-linecap: square"/>
     </g>
     <g id="line2d_28">
      <g>
       <use xlink:href="#m2c77a11f28" x="50.87" y="103.066652" style="stroke: #000000; stroke-width: 0.8"/>
      </g>
     </g>
     <g id="text_15">
      <!-- 400 -->
      <g transform="translate(24.7825 106.86587) scale(0.1 -0.1)">
       <defs>
        <path id="DejaVuSans-34" d="M 2419 4116 
L 825 1625 
L 2419 1625 
L 2419 4116 
z
M 2253 4666 
L 3047 4666 
L 3047 1625 
L 3713 1625 
L 3713 1100 
L 3047 1100 
L 3047 0 
L 2419 0 
L 2419 1100 
L 313 1100 
L 313 1709 
L 2253 4666 
z
" transform="scale(0.015625)"/>
       </defs>
       <use xlink:href="#DejaVuSans-34"/>
       <use xlink:href="#DejaVuSans-30" transform="translate(63.623047 0)"/>
       <use xlink:href="#DejaVuSans-30" transform="translate(127.246094 0)"/>
      </g>
     </g>
    </g>
    <g id="ytick_6">
     <g id="line2d_29">
      <path d="M 50.87 61.709265 
L 439.246192 61.709265 
" clip-path="url(#p55d7928493)" style="fill: none; stroke: #b0b0b0; stroke-opacity: 0.3; stroke-width: 0.8; stroke-linecap: square"/>
     </g>
     <g id="line2d_30">
      <g>
       <use xlink:href="#m2c77a11f28" x="50.87" y="61.709265" style="stroke: #000000; stroke-width: 0.8"/>
      </g>
     </g>
     <g id="text_16">
      <!-- 500 -->
      <g transform="translate(24.7825 65.508483) scale(0.1 -0.1)">
       <use xlink:href="#DejaVuSans-35"/>
       <use xlink:href="#DejaVuSans-30" transform="translate(63.623047 0)"/>
       <use xlink:href="#DejaVuSans-30" transform="translate(127.246094 0)"/>
      </g>
     </g>
    </g>
    <g id="text_17">
     <!-- Stress [Pa] -->
     <g transform="translate(18.702813 191.967812) rotate(-90) scale(0.1 -0.1)">
      <defs>
       <path id="DejaVuSans-65" d="M 3597 1894 
L 3597 1613 
L 953 1613 
Q 991 1019 1311 708 
Q 1631 397 2203 397 
Q 2534 397 2845 478 
Q 3156 559 3463 722 
L 3463 178 
Q 3153 47 2828 -22 
Q 2503 -91 2169 -91 
Q 1331 -91 842 396 
Q 353 884 353 1716 
Q 353 2575 817 3079 
Q 1281 3584 2069 3584 
Q 2775 3584 3186 3129 
Q 3597 2675 3597 1894 
z
M 3022 2063 
Q 3016 2534 2758 2815 
Q 2500 3097 2075 3097 
Q 1594 3097 1305 2825 
Q 1016 2553 972 2059 
L 3022 2063 
z
" transform="scale(0.015625)"/>
       <path id="DejaVuSans-73" d="M 2834 3397 
L 2834 2853 
Q 2591 2978 2328 3040 
Q 2066 3103 1784 3103 
Q 1356 3103 1142 2972 
Q 928 2841 928 2578 
Q 928 2378 1081 2264 
Q 1234 2150 1697 2047 
L 1894 2003 
Q 2506 1872 2764 1633 
Q 3022 1394 3022 966 
Q 3022 478 2636 193 
Q 2250 -91 1575 -91 
Q 1294 -91 989 -36 
Q 684 19 347 128 
L 347 722 
Q 666 556 975 473 
Q 1284 391 1588 391 
Q 1994 391 2212 530 
Q 2431 669 2431 922 
Q 2431 1156 2273 1281 
Q 2116 1406 1581 1522 
L 1381 1569 
Q 847 1681 609 1914 
Q 372 2147 372 2553 
Q 372 3047 722 3315 
Q 1072 3584 1716 3584 
Q 2034 3584 2315 3537 
Q 2597 3491 2834 3397 
z
" transform="scale(0.015625)"/>
       <path id="DejaVuSans-50" d="M 1259 4147 
L 1259 2394 
L 2053 2394 
Q 2494 2394 2734 2622 
Q 2975 2850 2975 3272 
Q 2975 3691 2734 3919 
Q 2494 4147 2053 4147 
L 1259 4147 
z
M 628 4666 
L 2053 4666 
Q 2838 4666 3239 4311 
Q 3641 3956 3641 3272 
Q 3641 2581 3239 2228 
Q 2838 1875 2053 1875 
L 1259 1875 
L 1259 0 
L 628 0 
L 628 4666 
z
" transform="scale(0.015625)"/>
      </defs>
      <use xlink:href="#DejaVuSans-53"/>
      <use xlink:href="#DejaVuSans-74" transform="translate(63.476562 0)"/>
      <use xlink:href="#DejaVuSans-72" transform="translate(102.685547 0)"/>
      <use xlink:href="#DejaVuSans-65" transform="translate(141.548828 0)"/>
      <use xlink:href="#DejaVuSans-73" transform="translate(203.072266 0)"/>
      <use xlink:href="#DejaVuSans-73" transform="translate(255.171875 0)"/>
      <use xlink:href="#DejaVuSans-20" transform="translate(307.271484 0)"/>
      <use xlink:href="#DejaVuSans-5b" transform="translate(339.058594 0)"/>
      <use xlink:href="#DejaVuSans-50" transform="translate(378.072266 0)"/>
      <use xlink:href="#DejaVuSans-61" transform="translate(433.875 0)"/>
      <use xlink:href="#DejaVuSans-5d" transform="translate(495.154297 0)"/>
     </g>
    </g>
   </g>
   <g id="line2d_31">
    <path d="M 68.678199 281.04119 
L 68.679207 281.364508 
L 68.678777 280.792345 
L 68.678677 281.250203 
L 70.154688 256.555274 
L 70.923826 254.494309 
L 71.659594 253.640796 
L 72.375447 250.608405 
L 73.193564 245.266769 
L 73.936329 241.487129 
L 74.760905 238.99308 
L 75.669446 238.301874 
L 76.405752 238.981631 
L 78.863334 243.609761 
L 79.758957 244.56592 
L 80.684722 245.12676 
L 81.647087 245.254114 
L 82.639593 245.061074 
L 84.723639 244.151518 
L 86.181181 243.572198 
L 86.930404 243.488132 
L 87.692545 243.689408 
L 88.465451 244.259889 
L 89.251274 245.169446 
L 90.855215 247.676351 
L 92.497909 251.051031 
L 96.706909 260.628693 
L 97.557321 261.978565 
L 98.407732 262.87848 
L 99.260297 263.392717 
L 100.110709 263.588368 
L 100.96112 263.505809 
L 102.661944 262.967467 
L 103.510203 262.86703 
L 104.360614 263.055851 
L 105.208873 263.623119 
L 106.057132 264.661235 
L 106.905391 266.184662 
L 109.423171 271.420729 
L 110.2499 272.693465 
L 111.070171 273.588559 
L 111.883983 274.019232 
L 112.689183 273.920402 
L 113.487924 273.292069 
L 114.278053 272.183246 
L 115.061724 270.656605 
L 118.149041 263.582633 
L 119.67117 261.104654 
L 120.429005 260.15653 
L 121.938217 258.766483 
L 123.436664 257.838446 
L 127.882487 255.829708 
L 130.076334 254.478229 
L 131.527416 253.443328 
L 135.114216 250.473609 
L 137.243475 249.34952 
L 139.006733 248.346758 
L 141.108004 246.797619 
L 143.196357 244.739064 
L 145.280403 242.604981 
L 147.357991 240.898356 
L 148.397862 240.267612 
L 153.58645 237.846681 
L 158.770732 234.951688 
L 166.015378 231.227488 
L 170.149025 228.071359 
L 173.251413 225.64641 
L 177.40013 223.205392 
L 180.517589 221.664288 
L 188.845165 217.044191 
L 191.975541 215.001706 
L 198.266434 210.1727 
L 199.319223 209.455982 
L 201.080328 208.645255 
L 204.258069 207.536432 
L 208.505822 205.819363 
L 211.339084 204.103097 
L 217.022848 200.620749 
L 220.585965 198.460954 
L 222.728142 197.252497 
L 225.587247 195.692913 
L 231.309765 192.37046 
L 236.323964 189.391904 
L 239.193835 187.270676 
L 243.506175 184.515491 
L 248.552669 181.847887 
L 249.99514 181.209109 
L 252.88008 180.07377 
L 257.913657 177.349118 
L 260.062292 176.040224 
L 262.92355 174.052377 
L 266.486668 171.56797 
L 270.749491 169.179982 
L 273.576302 167.577813 
L 276.743279 165.485511 
L 278.844549 164.044041 
L 281.983537 162.099589 
L 284.067584 160.555271 
L 286.145172 158.560996 
L 288.219934 156.601548 
L 290.293216 155.10544 
L 292.366499 153.630222 
L 294.439781 152.085905 
L 296.513063 150.931282 
L 299.626216 149.294562 
L 301.699498 148.018612 
L 308.957062 142.733221 
L 311.03465 140.989636 
L 317.301861 136.388019 
L 323.599214 132.986021 
L 325.700484 131.486699 
L 329.905178 128.198796 
L 334.116331 124.520395 
L 336.228366 122.664321 
L 337.991624 121.404441 
L 344.360024 117.619979 
L 347.195447 116.045128 
L 349.318247 114.433317 
L 354.267875 110.235858 
L 357.811616 107.172934 
L 359.943028 105.545053 
L 372.072697 97.209594 
L 374.217027 95.461188 
L 379.222614 90.923048 
L 382.090332 88.355077 
L 383.528496 87.42945 
L 384.968814 86.851737 
L 386.406978 86.478916 
L 388.557767 86.196487 
L 389.987319 86.181836 
L 394.209237 86.41716 
L 395.244801 86.341531 
L 397.285789 86.034294 
L 399.281566 86.186155 
L 402.166507 86.80123 
L 404.007271 87.306227 
L 406.616636 87.84035 
L 410.497312 88.792291 
L 412.292865 89.053879 
L 413.113135 88.948785 
L 413.881735 88.491596 
L 414.596512 87.746756 
L 415.418935 86.544727 
L 416.959364 83.324318 
L 417.760258 81.140418 
L 418.522399 78.717077 
L 419.269739 75.384179 
L 419.997702 70.577671 
L 420.717794 63.287559 
L 421.24772 60.451735 
L 421.592729 61.643909 
L 421.414304 78.110865 
L 421.413295 77.472262 
L 420.70057 78.6562 
L 419.992589 82.189871 
L 419.250497 84.188264 
L 418.537335 82.637518 
L 417.059611 82.104575 
L 416.299892 82.139138 
L 415.586999 81.66829 
L 414.82405 81.306503 
L 414.102815 80.190398 
L 413.388577 83.338492 
L 412.673532 85.365912 
L 411.928614 85.379144 
L 411.222449 84.655898 
L 410.480223 84.079993 
L 409.732076 83.960184 
L 409.004113 84.3776 
L 408.281801 83.996291 
L 407.556125 86.299912 
L 406.823453 89.641648 
L 406.092933 90.821481 
L 405.381924 90.843891 
L 404.664456 90.561701 
L 403.941337 90.625541 
L 403.201802 91.008193 
L 402.494023 91.740077 
L 401.069112 94.030101 
L 400.338054 94.375315 
L 399.629737 94.549912 
L 398.922495 95.043509 
L 398.186997 95.742901 
L 397.465358 96.248651 
L 396.753677 97.219173 
L 396.027328 98.851072 
L 395.291291 99.313609 
L 394.560906 98.715708 
L 393.832405 98.910794 
L 393.124087 99.342522 
L 392.410387 99.627022 
L 391.672467 100.630073 
L 390.953519 102.423072 
L 390.236993 103.07079 
L 389.522217 103.008494 
L 388.794523 103.42247 
L 388.071135 103.560621 
L 387.334291 104.158974 
L 385.888187 106.420511 
L 385.169239 106.578938 
L 382.991909 107.589157 
L 380.857807 110.095861 
L 380.141416 110.65198 
L 377.987129 111.745575 
L 377.255129 112.590049 
L 375.069087 114.321832 
L 374.359693 114.819045 
L 373.619888 115.48007 
L 372.141356 116.352603 
L 371.405319 116.961452 
L 370.698616 117.771475 
L 369.984378 118.093024 
L 368.559131 119.163079 
L 367.852428 119.723215 
L 366.393945 121.241018 
L 365.660163 121.670423 
L 364.920358 121.796346 
L 364.181899 122.226417 
L 363.449899 122.471194 
L 362.72705 123.124938 
L 362.007698 124.265097 
L 361.280139 125.095208 
L 360.539527 125.504112 
L 359.825827 125.61104 
L 359.112396 126.020571 
L 358.405693 126.277338 
L 357.669657 126.860876 
L 356.223149 128.309578 
L 353.366466 130.408057 
L 352.626123 131.17198 
L 351.888203 131.721972 
L 351.182576 132.485292 
L 349.762157 133.003534 
L 349.048726 133.526409 
L 348.330451 133.874272 
L 347.612512 134.077719 
L 346.150934 135.69385 
L 345.431448 136.216322 
L 343.97781 137.653173 
L 342.548795 138.513716 
L 341.837517 138.929324 
L 340.378227 140.261921 
L 338.93764 141.032033 
L 338.226362 141.279309 
L 336.786045 142.309138 
L 336.055929 142.921402 
L 335.320161 143.357599 
L 334.60996 143.939531 
L 333.895183 144.297387 
L 331.764041 146.202274 
L 331.027735 146.733986 
L 328.10648 147.840261 
L 327.369367 148.26998 
L 326.663202 148.817261 
L 325.955961 149.182362 
L 325.250065 149.694038 
L 323.832085 151.405081 
L 323.117577 151.766679 
L 322.40603 152.262284 
L 321.667033 152.919945 
L 320.931266 153.350769 
L 320.194153 153.637843 
L 317.264269 155.912237 
L 315.825028 156.987112 
L 315.112674 157.282347 
L 314.400857 157.698557 
L 312.953274 158.278455 
L 312.222552 158.925093 
L 311.494723 159.410906 
L 310.760032 160.067361 
L 310.051177 160.375703 
L 307.904963 161.674176 
L 307.196377 162.075873 
L 305.727533 163.511016 
L 304.251692 164.958663 
L 302.818371 165.492975 
L 302.106017 165.596613 
L 301.399852 165.815114 
L 300.660855 166.205512 
L 299.925357 166.79347 
L 299.190666 167.573864 
L 298.452207 167.989774 
L 297.715094 168.709153 
L 295.518556 169.997488 
L 294.782199 170.663812 
L 294.042664 171.15525 
L 291.180329 172.306865 
L 289.737589 173.48961 
L 289.009492 174.343927 
L 288.269418 175.010225 
L 286.82641 175.42894 
L 285.394166 176.116129 
L 282.535598 178.158878 
L 278.242903 180.7185 
L 277.532163 181.305152 
L 276.08246 182.130862 
L 275.34454 182.675833 
L 273.927097 183.322835 
L 273.217703 183.760639 
L 272.510731 184.03222 
L 271.777386 184.478989 
L 271.051844 185.1941 
L 270.322805 185.530733 
L 268.851001 186.544392 
L 267.43598 187.015692 
L 263.086232 189.849576 
L 261.654526 190.609726 
L 260.917413 191.060249 
L 259.447223 191.61999 
L 258.711725 192.228336 
L 257.265218 192.885658 
L 252.908472 195.970401 
L 252.170552 196.309809 
L 251.438552 196.468964 
L 250.715029 196.899788 
L 249.255201 198.186899 
L 248.537464 198.542986 
L 246.381294 199.256238 
L 244.919985 200.552929 
L 243.478322 201.546714 
L 242.771888 201.932618 
L 242.037466 202.036369 
L 240.568218 203.165142 
L 239.85398 203.481719 
L 239.136512 203.669335 
L 238.421198 204.039495 
L 237.686776 204.623636 
L 236.962849 205.640861 
L 236.232195 206.312282 
L 235.51688 206.804774 
L 234.064991 206.672355 
L 233.326801 206.710747 
L 231.188796 208.621232 
L 229.736637 209.271749 
L 229.014326 209.343392 
L 227.558399 210.304071 
L 226.829091 210.928287 
L 225.365898 211.80254 
L 224.660003 212.364785 
L 223.945966 212.469296 
L 223.232535 212.68865 
L 221.035459 213.79775 
L 220.307496 214.603053 
L 219.572267 215.186591 
L 218.145136 216.00239 
L 215.95694 217.687922 
L 215.250776 218.12201 
L 213.819877 218.178977 
L 213.109676 218.145616 
L 212.374985 218.516153 
L 211.647829 219.039203 
L 210.919866 219.813773 
L 209.47282 220.755067 
L 208.755891 221.003297 
L 206.580151 222.405462 
L 205.855417 222.963489 
L 205.129068 223.780443 
L 204.39061 224.204252 
L 202.962402 224.671353 
L 202.243858 224.619757 
L 201.530158 224.741062 
L 200.791431 225.147349 
L 199.327969 226.532173 
L 198.61992 227.060433 
L 195.758393 227.787467 
L 195.032986 228.432674 
L 193.568717 229.484751 
L 192.861207 229.728106 
L 192.149929 230.10944 
L 191.443495 230.162778 
L 190.708266 230.528268 
L 189.97815 231.038688 
L 189.249194 231.762474 
L 187.776314 232.760064 
L 187.066919 233.050414 
L 186.357795 233.207416 
L 183.476352 234.684312 
L 182.757808 234.936283 
L 181.333907 235.873008 
L 180.619938 236.341195 
L 175.561603 238.477616 
L 174.118594 238.758733 
L 172.675854 240.225614 
L 171.227531 241.343881 
L 167.639654 242.893844 
L 166.929722 243.112997 
L 166.22275 243.502491 
L 164.797503 244.684031 
L 164.067925 245.054342 
L 161.886054 245.647554 
L 161.174642 246.110919 
L 160.468073 246.986327 
L 159.74159 247.566539 
L 159.026814 247.798852 
L 157.590802 248.089751 
L 156.856919 248.375343 
L 156.136625 249.255773 
L 155.410411 249.867245 
L 154.703978 250.218153 
L 152.560002 250.514392 
L 151.105286 251.338162 
L 149.635366 252.504586 
L 148.926241 252.636259 
L 147.504762 253.252439 
L 146.796175 253.593573 
L 145.348322 254.707218 
L 143.912041 255.203313 
L 142.48195 255.413035 
L 141.775516 255.77639 
L 141.068006 256.430034 
L 138.931755 257.923782 
L 137.511621 258.383324 
L 136.03673 259.34597 
L 135.325183 259.572744 
L 134.609599 260.045049 
L 133.893747 259.907064 
L 132.455986 260.165878 
L 130.278824 262.183705 
L 129.562702 262.555397 
L 127.408146 262.957251 
L 126.687853 263.560575 
L 125.972 264.30642 
L 125.239866 264.828842 
L 123.787438 264.495197 
L 122.357616 265.331385 
L 120.908014 267.347756 
L 120.190546 267.659697 
L 119.456124 267.298827 
L 118.725201 267.129319 
L 118.00997 267.09156 
L 117.28268 267.542773 
L 116.569922 268.589326 
L 115.859989 269.169116 
L 115.126644 268.978701 
L 113.693862 268.982618 
L 112.985544 269.296031 
L 112.272652 271.057895 
L 111.550071 271.34936 
L 110.828566 270.970914 
L 109.394439 271.036816 
L 108.674145 270.557054 
L 107.958158 272.570613 
L 107.233559 273.012711 
L 105.767675 272.751001 
L 105.046709 272.825853 
L 104.323051 272.740613 
L 103.610966 274.704155 
L 102.896728 276.183126 
L 102.156116 275.617917 
L 101.4443 275.533312 
L 100.707216 275.588059 
L 99.993247 275.480284 
L 99.287217 275.902759 
L 98.558178 278.015449 
L 97.127548 277.255726 
L 94.987525 277.47588 
L 94.269519 279.914488 
L 93.563085 280.034409 
L 92.850731 279.335519 
L 92.133802 279.049676 
L 91.401533 279.146732 
L 90.676126 278.891698 
L 89.955833 280.508911 
L 89.221814 282.640383 
L 88.50475 282.246016 
L 87.789167 281.627325 
L 87.076543 281.439179 
L 86.351002 281.44329 
L 85.642012 281.225471 
L 84.925217 283.75648 
L 84.216361 284.548764 
L 83.478171 283.788456 
L 81.311053 283.069909 
L 80.601256 285.455307 
L 79.872082 286.110482 
L 79.159189 285.31963 
L 77.709721 285.095043 
L 76.9827 284.641166 
L 76.275863 287.833352 
L 75.533905 289.168321 
L 74.803251 288.023341 
L 74.059141 287.323597 
L 73.334138 286.866559 
L 72.619496 286.06678 
L 71.890188 287.572103 
L 71.159264 291.06 
L 70.420805 288.83472 
L 69.68894 287.927373 
L 68.964879 286.790227 
L 68.596928 285.465564 
L 68.523709 288.980223 
L 68.523709 288.980223 
" clip-path="url(#p55d7928493)" style="fill: none; stroke: #ff0000; stroke-width: 2; stroke-linecap: square"/>
   </g>
   <g id="line2d_32">
    <path d="M 68.678199 281.04119 
L 68.679207 281.364508 
L 68.678777 280.792345 
L 68.678677 281.250203 
L 70.154688 256.555274 
L 70.923826 254.494309 
L 71.659594 253.640796 
L 72.375447 250.608405 
L 73.193564 245.266769 
L 73.936329 241.487129 
L 74.760905 275.996071 
L 75.669446 274.840444 
L 76.405752 274.779378 
L 78.006464 276.383153 
L 78.863334 276.744726 
L 79.758957 276.620987 
L 80.684722 276.150139 
L 82.639593 274.44693 
L 85.447028 271.918331 
L 86.930404 271.03077 
L 89.251274 270.120008 
L 92.497909 267.977835 
L 95.010392 266.627963 
L 96.706909 265.496642 
L 98.407732 264.153198 
L 99.260297 263.597179 
L 100.96112 263.505809 
L 102.661944 262.967467 
L 103.510203 262.86703 
L 104.360614 263.055851 
L 105.208873 263.623119 
L 106.057132 264.661235 
L 106.905391 266.184662 
L 109.423171 271.420729 
L 110.2499 272.693465 
L 111.070171 273.588559 
L 111.883983 274.019232 
L 112.689183 273.920402 
L 113.487924 273.292069 
L 114.278053 272.183246 
L 115.061724 270.656605 
L 118.149041 263.582633 
L 119.67117 261.104654 
L 120.429005 260.15653 
L 121.938217 258.766483 
L 123.436664 257.838446 
L 127.882487 255.829708 
L 130.076334 254.478229 
L 131.527416 253.443328 
L 135.114216 250.473609 
L 137.243475 249.34952 
L 139.006733 248.346758 
L 141.108004 246.797619 
L 143.196357 244.739064 
L 145.280403 242.604981 
L 147.357991 240.898356 
L 148.397862 240.267612 
L 153.58645 237.846681 
L 158.770732 234.951688 
L 166.015378 231.227488 
L 170.149025 228.071359 
L 173.251413 225.64641 
L 177.40013 223.205392 
L 180.517589 221.664288 
L 188.845165 217.044191 
L 191.975541 215.001706 
L 198.266434 210.1727 
L 199.319223 209.455982 
L 201.080328 208.645255 
L 204.258069 207.536432 
L 208.505822 205.819363 
L 211.339084 204.103097 
L 217.022848 200.620749 
L 220.585965 198.460954 
L 222.728142 197.252497 
L 225.587247 195.692913 
L 231.309765 192.37046 
L 236.323964 189.391904 
L 239.193835 187.270676 
L 243.506175 184.515491 
L 248.552669 181.847887 
L 249.99514 181.209109 
L 252.88008 180.07377 
L 257.913657 177.349118 
L 260.062292 176.040224 
L 262.92355 174.052377 
L 266.486668 171.56797 
L 270.749491 169.179982 
L 273.576302 167.577813 
L 276.743279 165.485511 
L 278.844549 164.044041 
L 281.983537 162.099589 
L 284.067584 160.555271 
L 286.145172 158.560996 
L 288.219934 156.601548 
L 290.293216 155.10544 
L 292.366499 153.630222 
L 294.439781 152.085905 
L 296.513063 150.931282 
L 299.626216 149.294562 
L 301.699498 148.018612 
L 308.957062 142.733221 
L 311.03465 140.989636 
L 317.301861 136.388019 
L 323.599214 132.986021 
L 325.700484 131.486699 
L 329.905178 128.198796 
L 334.116331 124.520395 
L 336.228366 122.664321 
L 337.991624 121.404441 
L 344.360024 117.619979 
L 347.195447 116.045128 
L 349.318247 114.433317 
L 354.267875 110.235858 
L 357.811616 107.172934 
L 359.943028 105.545053 
L 372.072697 97.209594 
L 374.217027 95.461188 
L 379.222614 90.923048 
L 382.090332 88.355077 
L 383.528496 87.42945 
L 384.968814 86.851737 
L 386.406978 86.478916 
L 387.84299 86.149662 
L 389.274696 85.789797 
L 390.69779 85.645682 
L 394.209237 85.457765 
L 395.244801 85.264826 
L 397.285789 84.710514 
L 399.281566 84.635388 
L 401.219213 84.673554 
L 403.096577 84.613292 
L 404.007271 84.316802 
L 405.768377 83.333525 
L 408.244259 81.699617 
L 409.772847 80.282051 
L 410.497312 79.477752 
L 412.292865 77.873624 
L 413.113135 76.944144 
L 413.881735 75.696315 
L 415.418935 72.074962 
L 416.959364 67.122218 
L 418.522399 60.737645 
L 419.269739 56.536972 
L 419.997702 50.917327 
L 420.717794 42.900855 
L 421.24772 39.46 
L 421.592729 39.965989 
L 421.486898 42.070832 
L 421.464528 42.03755 
L 421.414304 78.110865 
L 421.413295 77.472262 
L 420.70057 78.6562 
L 419.992589 82.189871 
L 419.250497 84.188264 
L 418.537335 82.637518 
L 417.059611 82.104575 
L 416.299892 82.139138 
L 415.586999 81.66829 
L 414.82405 81.306503 
L 414.102815 80.190398 
L 413.388577 83.338492 
L 412.673532 85.365912 
L 411.928614 85.379144 
L 411.222449 84.655898 
L 410.480223 84.079993 
L 409.732076 83.960184 
L 409.004113 84.3776 
L 408.281801 83.996291 
L 407.556125 86.299912 
L 406.823453 89.641648 
L 406.092933 90.821481 
L 405.381924 90.843891 
L 404.664456 90.561701 
L 403.941337 90.625541 
L 403.201802 91.008193 
L 402.494023 91.740077 
L 401.069112 94.030101 
L 400.338054 94.375315 
L 399.629737 94.549912 
L 398.922495 95.043509 
L 398.186997 95.742901 
L 397.465358 96.248651 
L 396.753677 97.219173 
L 396.027328 98.851072 
L 395.291291 99.313609 
L 394.560906 98.715708 
L 393.832405 98.910794 
L 393.124087 99.342522 
L 392.410387 99.627022 
L 391.672467 100.630073 
L 390.953519 102.423072 
L 390.236993 103.07079 
L 389.522217 103.008494 
L 388.794523 103.42247 
L 388.071135 103.560621 
L 387.334291 104.158974 
L 385.888187 106.420511 
L 385.169239 106.578938 
L 382.991909 107.589157 
L 380.857807 110.095861 
L 380.141416 110.65198 
L 377.987129 111.745575 
L 377.255129 112.590049 
L 375.069087 114.321832 
L 374.359693 114.819045 
L 373.619888 115.48007 
L 372.141356 116.352603 
L 371.405319 116.961452 
L 370.698616 117.771475 
L 369.984378 118.093024 
L 368.559131 119.163079 
L 367.852428 119.723215 
L 366.393945 121.241018 
L 365.660163 121.670423 
L 364.920358 121.796346 
L 364.181899 122.226417 
L 363.449899 122.471194 
L 362.72705 123.124938 
L 362.007698 124.265097 
L 361.280139 125.095208 
L 360.539527 125.504112 
L 359.825827 125.61104 
L 359.112396 126.020571 
L 358.405693 126.277338 
L 357.669657 126.860876 
L 356.223149 128.309578 
L 353.366466 130.408057 
L 352.626123 131.17198 
L 351.888203 131.721972 
L 351.182576 132.485292 
L 349.762157 133.003534 
L 349.048726 133.526409 
L 348.330451 133.874272 
L 347.612512 134.077719 
L 346.150934 135.69385 
L 345.431448 136.216322 
L 343.97781 137.653173 
L 342.548795 138.513716 
L 341.837517 138.929324 
L 340.378227 140.261921 
L 338.93764 141.032033 
L 338.226362 141.279309 
L 336.786045 142.309138 
L 336.055929 142.921402 
L 335.320161 143.357599 
L 334.60996 143.939531 
L 333.895183 144.297387 
L 331.764041 146.202274 
L 331.027735 146.733986 
L 328.10648 147.840261 
L 327.369367 148.26998 
L 326.663202 148.817261 
L 325.955961 149.182362 
L 325.250065 149.694038 
L 323.832085 151.405081 
L 323.117577 151.766679 
L 322.40603 152.262284 
L 321.667033 152.919945 
L 320.931266 153.350769 
L 320.194153 153.637843 
L 317.264269 155.912237 
L 315.825028 156.987112 
L 315.112674 157.282347 
L 314.400857 157.698557 
L 312.953274 158.278455 
L 312.222552 158.925093 
L 311.494723 159.410906 
L 310.760032 160.067361 
L 310.051177 160.375703 
L 307.904963 161.674176 
L 307.196377 162.075873 
L 305.727533 163.511016 
L 304.251692 164.958663 
L 302.818371 165.492975 
L 302.106017 165.596613 
L 301.399852 165.815114 
L 300.660855 166.205512 
L 299.925357 166.79347 
L 299.190666 167.573864 
L 298.452207 167.989774 
L 297.715094 168.709153 
L 295.518556 169.997488 
L 294.782199 170.663812 
L 294.042664 171.15525 
L 291.180329 172.306865 
L 289.737589 173.48961 
L 289.009492 174.343927 
L 288.269418 175.010225 
L 286.82641 175.42894 
L 285.394166 176.116129 
L 282.535598 178.158878 
L 278.242903 180.7185 
L 277.532163 181.305152 
L 276.08246 182.130862 
L 275.34454 182.675833 
L 273.927097 183.322835 
L 273.217703 183.760639 
L 272.510731 184.03222 
L 271.777386 184.478989 
L 271.051844 185.1941 
L 270.322805 185.530733 
L 268.851001 186.544392 
L 267.43598 187.015692 
L 263.086232 189.849576 
L 261.654526 190.609726 
L 260.917413 191.060249 
L 259.447223 191.61999 
L 258.711725 192.228336 
L 257.265218 192.885658 
L 252.908472 195.970401 
L 252.170552 196.309809 
L 251.438552 196.468964 
L 250.715029 196.899788 
L 249.255201 198.186899 
L 248.537464 198.542986 
L 246.381294 199.256238 
L 244.919985 200.552929 
L 243.478322 201.546714 
L 242.771888 201.932618 
L 242.037466 202.036369 
L 240.568218 203.165142 
L 239.85398 203.481719 
L 239.136512 203.669335 
L 238.421198 204.039495 
L 237.686776 204.623636 
L 236.962849 206.544898 
L 236.232195 207.21559 
L 235.51688 207.679307 
L 234.064991 207.505357 
L 233.326801 207.534207 
L 232.61041 208.169722 
L 231.904111 208.632234 
L 231.188796 209.242112 
L 228.297666 210.061445 
L 224.660003 212.364785 
L 223.945966 212.469296 
L 223.232535 212.68865 
L 221.035459 213.79775 
L 220.307496 214.603053 
L 219.572267 215.186591 
L 218.145136 216.00239 
L 215.95694 217.687922 
L 215.250776 218.12201 
L 213.819877 218.178977 
L 213.109676 218.145616 
L 212.374985 218.516153 
L 211.647829 219.039203 
L 210.919866 219.813773 
L 209.47282 220.755067 
L 208.755891 221.003297 
L 206.580151 222.405462 
L 205.855417 222.963489 
L 205.129068 223.780443 
L 204.39061 224.204252 
L 202.962402 224.671353 
L 202.243858 224.619757 
L 201.530158 224.741062 
L 200.791431 225.147349 
L 199.327969 226.532173 
L 198.61992 227.060433 
L 195.758393 227.787467 
L 195.032986 228.432674 
L 193.568717 229.484751 
L 192.861207 229.728106 
L 192.149929 230.10944 
L 191.443495 230.162778 
L 190.708266 230.528268 
L 189.97815 231.038688 
L 189.249194 231.762474 
L 187.776314 232.760064 
L 187.066919 233.050414 
L 186.357795 233.207416 
L 183.476352 234.684312 
L 182.757808 234.936283 
L 181.333907 235.873008 
L 180.619938 236.341195 
L 175.561603 238.477616 
L 174.118594 238.758733 
L 172.675854 240.225614 
L 171.227531 241.343881 
L 167.639654 242.893844 
L 166.929722 243.112997 
L 166.22275 243.502491 
L 164.797503 244.684031 
L 164.067925 245.054342 
L 161.886054 245.647554 
L 161.174642 246.110919 
L 160.468073 246.986327 
L 159.74159 247.566539 
L 159.026814 247.798852 
L 157.590802 248.089751 
L 156.856919 248.375343 
L 156.136625 249.255773 
L 155.410411 249.867245 
L 154.703978 250.218153 
L 152.560002 250.514392 
L 151.105286 251.338162 
L 149.635366 252.504586 
L 148.926241 252.636259 
L 147.504762 253.252439 
L 146.796175 253.593573 
L 145.348322 254.707218 
L 143.912041 255.203313 
L 142.48195 255.413035 
L 141.775516 255.77639 
L 141.068006 256.430034 
L 138.931755 257.923782 
L 137.511621 258.383324 
L 136.03673 259.34597 
L 135.325183 259.572744 
L 134.609599 260.045049 
L 133.893747 259.907064 
L 132.455986 260.165878 
L 130.278824 262.183705 
L 129.562702 262.555397 
L 127.408146 262.957251 
L 126.687853 263.560575 
L 125.972 264.30642 
L 125.239866 264.828842 
L 123.787438 264.495197 
L 122.357616 265.331385 
L 120.908014 267.347756 
L 120.190546 267.659697 
L 119.456124 267.298827 
L 118.725201 267.129319 
L 118.00997 267.09156 
L 117.28268 267.542773 
L 116.569922 268.589326 
L 115.859989 269.169116 
L 115.126644 268.978701 
L 113.693862 268.982618 
L 112.985544 269.296031 
L 112.272652 271.057895 
L 111.550071 271.34936 
L 110.828566 270.970914 
L 109.394439 271.036816 
L 108.674145 270.557054 
L 107.958158 272.570613 
L 107.233559 273.012711 
L 105.767675 272.751001 
L 105.046709 272.825853 
L 104.323051 272.740613 
L 103.610966 274.704155 
L 102.896728 276.183126 
L 102.156116 275.617917 
L 101.4443 275.533312 
L 100.707216 275.588059 
L 99.993247 275.480284 
L 99.287217 275.902759 
L 98.558178 278.015449 
L 97.127548 277.255726 
L 94.987525 277.47588 
L 94.269519 279.914488 
L 93.563085 280.034409 
L 92.850731 279.335519 
L 92.133802 279.049676 
L 91.401533 279.146732 
L 90.676126 278.891698 
L 89.955833 280.508911 
L 89.221814 282.640383 
L 88.50475 282.246016 
L 87.789167 281.627325 
L 87.076543 281.439179 
L 86.351002 281.44329 
L 85.642012 281.225471 
L 84.925217 283.75648 
L 84.216361 284.548764 
L 83.478171 283.788456 
L 81.311053 283.069909 
L 80.601256 285.455307 
L 79.872082 286.110482 
L 79.159189 285.31963 
L 77.709721 285.095043 
L 76.9827 284.641166 
L 76.275863 287.833352 
L 75.533905 289.168321 
L 74.803251 288.023341 
L 74.059141 287.323597 
L 73.334138 286.866559 
L 72.619496 286.06678 
L 71.890188 287.572103 
L 71.159264 291.06 
L 70.420805 288.83472 
L 69.68894 287.927373 
L 68.964879 286.790227 
L 68.596928 285.465564 
L 68.523709 288.980223 
L 68.523709 288.980223 
" clip-path="url(#p55d7928493)" style="fill: none; stroke: #000000; stroke-width: 2; stroke-linecap: square"/>
   </g>
   <g id="patch_3">
    <path d="M 50.87 303.64 
L 50.87 26.88 
" style="fill: none; stroke: #000000; stroke-width: 0.8; stroke-linejoin: miter; stroke-linecap: square"/>
   </g>
   <g id="patch_4">
    <path d="M 439.246192 303.64 
L 439.246192 26.88 
" style="fill: none; stroke: #000000; stroke-width: 0.8; stroke-linejoin: miter; stroke-linecap: square"/>
   </g>
   <g id="patch_5">
    <path d="M 50.87 303.64 
L 439.246192 303.64 
" style="fill: none; stroke: #000000; stroke-width: 0.8; stroke-linejoin: miter; stroke-linecap: square"/>
   </g>
   <g id="patch_6">
    <path d="M 50.87 26.88 
L 439.246192 26.88 
" style="fill: none; stroke: #000000; stroke-width: 0.8; stroke-linejoin: miter; stroke-linecap: square"/>
   </g>
   <g id="text_18">
    <!-- 2025-06-18 Trial 5 - Stress vs Strain -->
    <g transform="translate(137.621534 20.88) scale(0.12 -0.12)">
     <defs>
      <path id="DejaVuSans-36" d="M 2113 2584 
Q 1688 2584 1439 2293 
Q 1191 2003 1191 1497 
Q 1191 994 1439 701 
Q 1688 409 2113 409 
Q 2538 409 2786 701 
Q 3034 994 3034 1497 
Q 3034 2003 2786 2293 
Q 2538 2584 2113 2584 
z
M 3366 4563 
L 3366 3988 
Q 3128 4100 2886 4159 
Q 2644 4219 2406 4219 
Q 1781 4219 1451 3797 
Q 1122 3375 1075 2522 
Q 1259 2794 1537 2939 
Q 1816 3084 2150 3084 
Q 2853 3084 3261 2657 
Q 3669 2231 3669 1497 
Q 3669 778 3244 343 
Q 2819 -91 2113 -91 
Q 1303 -91 875 529 
Q 447 1150 447 2328 
Q 447 3434 972 4092 
Q 1497 4750 2381 4750 
Q 2619 4750 2861 4703 
Q 3103 4656 3366 4563 
z
" transform="scale(0.015625)"/>
      <path id="DejaVuSans-38" d="M 2034 2216 
Q 1584 2216 1326 1975 
Q 1069 1734 1069 1313 
Q 1069 891 1326 650 
Q 1584 409 2034 409 
Q 2484 409 2743 651 
Q 3003 894 3003 1313 
Q 3003 1734 2745 1975 
Q 2488 2216 2034 2216 
z
M 1403 2484 
Q 997 2584 770 2862 
Q 544 3141 544 3541 
Q 544 4100 942 4425 
Q 1341 4750 2034 4750 
Q 2731 4750 3128 4425 
Q 3525 4100 3525 3541 
Q 3525 3141 3298 2862 
Q 3072 2584 2669 2484 
Q 3125 2378 3379 2068 
Q 3634 1759 3634 1313 
Q 3634 634 3220 271 
Q 2806 -91 2034 -91 
Q 1263 -91 848 271 
Q 434 634 434 1313 
Q 434 1759 690 2068 
Q 947 2378 1403 2484 
z
M 1172 3481 
Q 1172 3119 1398 2916 
Q 1625 2713 2034 2713 
Q 2441 2713 2670 2916 
Q 2900 3119 2900 3481 
Q 2900 3844 2670 4047 
Q 2441 4250 2034 4250 
Q 1625 4250 1398 4047 
Q 1172 3844 1172 3481 
z
" transform="scale(0.015625)"/>
      <path id="DejaVuSans-54" d="M -19 4666 
L 3928 4666 
L 3928 4134 
L 2272 4134 
L 2272 0 
L 1638 0 
L 1638 4134 
L -19 4134 
L -19 4666 
z
" transform="scale(0.015625)"/>
      <path id="DejaVuSans-6c" d="M 603 4863 
L 1178 4863 
L 1178 0 
L 603 0 
L 603 4863 
z
" transform="scale(0.015625)"/>
      <path id="DejaVuSans-76" d="M 191 3500 
L 800 3500 
L 1894 563 
L 2988 3500 
L 3597 3500 
L 2284 0 
L 1503 0 
L 191 3500 
z
" transform="scale(0.015625)"/>
     </defs>
     <use xlink:href="#DejaVuSans-32"/>
     <use xlink:href="#DejaVuSans-30" transform="translate(63.623047 0)"/>
     <use xlink:href="#DejaVuSans-32" transform="translate(127.246094 0)"/>
     <use xlink:href="#DejaVuSans-35" transform="translate(190.869141 0)"/>
     <use xlink:href="#DejaVuSans-2d" transform="translate(254.492188 0)"/>
     <use xlink:href="#DejaVuSans-30" transform="translate(290.576172 0)"/>
     <use xlink:href="#DejaVuSans-36" transform="translate(354.199219 0)"/>
     <use xlink:href="#DejaVuSans-2d" transform="translate(417.822266 0)"/>
     <use xlink:href="#DejaVuSans-31" transform="translate(453.90625 0)"/>
     <use xlink:href="#DejaVuSans-38" transform="translate(517.529297 0)"/>
     <use xlink:href="#DejaVuSans-20" transform="translate(581.152344 0)"/>
     <use xlink:href="#DejaVuSans-54" transform="translate(612.939453 0)"/>
     <use xlink:href="#DejaVuSans-72" transform="translate(659.273438 0)"/>
     <use xlink:href="#DejaVuSans-69" transform="translate(700.386719 0)"/>
     <use xlink:href="#DejaVuSans-61" transform="translate(728.169922 0)"/>
     <use xlink:href="#DejaVuSans-6c" transform="translate(789.449219 0)"/>
     <use xlink:href="#DejaVuSans-20" transform="translate(817.232422 0)"/>
     <use xlink:href="#DejaVuSans-35" transform="translate(849.019531 0)"/>
     <use xlink:href="#DejaVuSans-20" transform="translate(912.642578 0)"/>
     <use xlink:href="#DejaVuSans-2d" transform="translate(944.429688 0)"/>
     <use xlink:href="#DejaVuSans-20" transform="translate(980.513672 0)"/>
     <use xlink:href="#DejaVuSans-53" transform="translate(1012.300781 0)"/>
     <use xlink:href="#DejaVuSans-74" transform="translate(1075.777344 0)"/>
     <use xlink:href="#DejaVuSans-72" transform="translate(1114.986328 0)"/>
     <use xlink:href="#DejaVuSans-65" transform="translate(1153.849609 0)"/>
     <use xlink:href="#DejaVuSans-73" transform="translate(1215.373047 0)"/>
     <use xlink:href="#DejaVuSans-73" transform="translate(1267.472656 0)"/>
     <use xlink:href="#DejaVuSans-20" transform="translate(1319.572266 0)"/>
     <use xlink:href="#DejaVuSans-76" transform="translate(1351.359375 0)"/>
     <use xlink:href="#DejaVuSans-73" transform="translate(1410.539062 0)"/>
     <use xlink:href="#DejaVuSans-20" transform="translate(1462.638672 0)"/>
     <use xlink:href="#DejaVuSans-53" transform="translate(1494.425781 0)"/>
     <use xlink:href="#DejaVuSans-74" transform="translate(1557.902344 0)"/>
     <use xlink:href="#DejaVuSans-72" transform="translate(1597.111328 0)"/>
     <use xlink:href="#DejaVuSans-61" transform="translate(1638.224609 0)"/>
     <use xlink:href="#DejaVuSans-69" transform="translate(1699.503906 0)"/>
     <use xlink:href="#DejaVuSans-6e" transform="translate(1727.287109 0)"/>
    </g>
   </g>
   <g id="legend_1">
    <g id="patch_7">
     <path d="M 57.87 64.23625 
L 163.854375 64.23625 
Q 165.854375 64.23625 165.854375 62.23625 
L 165.854375 33.88 
Q 165.854375 31.88 163.854375 31.88 
L 57.87 31.88 
Q 55.87 31.88 55.87 33.88 
L 55.87 62.23625 
Q 55.87 64.23625 57.87 64.23625 
z
" style="fill: #ffffff; opacity: 0.8; stroke: #cccccc; stroke-linejoin: miter"/>
    </g>
    <g id="line2d_33">
     <path d="M 59.87 39.978437 
L 69.87 39.978437 
L 79.87 39.978437 
" style="fill: none; stroke: #ff0000; stroke-width: 2; stroke-linecap: square"/>
    </g>
    <g id="text_19">
     <!-- Raw Force -->
     <g transform="translate(87.87 43.478437) scale(0.1 -0.1)">
      <defs>
       <path id="DejaVuSans-52" d="M 2841 2188 
Q 3044 2119 3236 1894 
Q 3428 1669 3622 1275 
L 4263 0 
L 3584 0 
L 2988 1197 
Q 2756 1666 2539 1819 
Q 2322 1972 1947 1972 
L 1259 1972 
L 1259 0 
L 628 0 
L 628 4666 
L 2053 4666 
Q 2853 4666 3247 4331 
Q 3641 3997 3641 3322 
Q 3641 2881 3436 2590 
Q 3231 2300 2841 2188 
z
M 1259 4147 
L 1259 2491 
L 2053 2491 
Q 2509 2491 2742 2702 
Q 2975 2913 2975 3322 
Q 2975 3731 2742 3939 
Q 2509 4147 2053 4147 
L 1259 4147 
z
" transform="scale(0.015625)"/>
       <path id="DejaVuSans-77" d="M 269 3500 
L 844 3500 
L 1563 769 
L 2278 3500 
L 2956 3500 
L 3675 769 
L 4391 3500 
L 4966 3500 
L 4050 0 
L 3372 0 
L 2619 2869 
L 1863 0 
L 1184 0 
L 269 3500 
z
" transform="scale(0.015625)"/>
       <path id="DejaVuSans-46" d="M 628 4666 
L 3309 4666 
L 3309 4134 
L 1259 4134 
L 1259 2759 
L 3109 2759 
L 3109 2228 
L 1259 2228 
L 1259 0 
L 628 0 
L 628 4666 
z
" transform="scale(0.015625)"/>
       <path id="DejaVuSans-6f" d="M 1959 3097 
Q 1497 3097 1228 2736 
Q 959 2375 959 1747 
Q 959 1119 1226 758 
Q 1494 397 1959 397 
Q 2419 397 2687 759 
Q 2956 1122 2956 1747 
Q 2956 2369 2687 2733 
Q 2419 3097 1959 3097 
z
M 1959 3584 
Q 2709 3584 3137 3096 
Q 3566 2609 3566 1747 
Q 3566 888 3137 398 
Q 2709 -91 1959 -91 
Q 1206 -91 779 398 
Q 353 888 353 1747 
Q 353 2609 779 3096 
Q 1206 3584 1959 3584 
z
" transform="scale(0.015625)"/>
       <path id="DejaVuSans-63" d="M 3122 3366 
L 3122 2828 
Q 2878 2963 2633 3030 
Q 2388 3097 2138 3097 
Q 1578 3097 1268 2742 
Q 959 2388 959 1747 
Q 959 1106 1268 751 
Q 1578 397 2138 397 
Q 2388 397 2633 464 
Q 2878 531 3122 666 
L 3122 134 
Q 2881 22 2623 -34 
Q 2366 -91 2075 -91 
Q 1284 -91 818 406 
Q 353 903 353 1747 
Q 353 2603 823 3093 
Q 1294 3584 2113 3584 
Q 2378 3584 2631 3529 
Q 2884 3475 3122 3366 
z
" transform="scale(0.015625)"/>
      </defs>
      <use xlink:href="#DejaVuSans-52"/>
      <use xlink:href="#DejaVuSans-61" transform="translate(67.232422 0)"/>
      <use xlink:href="#DejaVuSans-77" transform="translate(128.511719 0)"/>
      <use xlink:href="#DejaVuSans-20" transform="translate(210.298828 0)"/>
      <use xlink:href="#DejaVuSans-46" transform="translate(242.085938 0)"/>
      <use xlink:href="#DejaVuSans-6f" transform="translate(295.980469 0)"/>
      <use xlink:href="#DejaVuSans-72" transform="translate(357.162109 0)"/>
      <use xlink:href="#DejaVuSans-63" transform="translate(396.025391 0)"/>
      <use xlink:href="#DejaVuSans-65" transform="translate(451.005859 0)"/>
     </g>
    </g>
    <g id="line2d_34">
     <path d="M 59.87 54.656563 
L 69.87 54.656563 
L 79.87 54.656563 
" style="fill: none; stroke: #000000; stroke-width: 2; stroke-linecap: square"/>
    </g>
    <g id="text_20">
     <!-- Adjusted Force -->
     <g transform="translate(87.87 58.156563) scale(0.1 -0.1)">
      <defs>
       <path id="DejaVuSans-41" d="M 2188 4044 
L 1331 1722 
L 3047 1722 
L 2188 4044 
z
M 1831 4666 
L 2547 4666 
L 4325 0 
L 3669 0 
L 3244 1197 
L 1141 1197 
L 716 0 
L 50 0 
L 1831 4666 
z
" transform="scale(0.015625)"/>
       <path id="DejaVuSans-64" d="M 2906 2969 
L 2906 4863 
L 3481 4863 
L 3481 0 
L 2906 0 
L 2906 525 
Q 2725 213 2448 61 
Q 2172 -91 1784 -91 
Q 1150 -91 751 415 
Q 353 922 353 1747 
Q 353 2572 751 3078 
Q 1150 3584 1784 3584 
Q 2172 3584 2448 3432 
Q 2725 3281 2906 2969 
z
M 947 1747 
Q 947 1113 1208 752 
Q 1469 391 1925 391 
Q 2381 391 2643 752 
Q 2906 1113 2906 1747 
Q 2906 2381 2643 2742 
Q 2381 3103 1925 3103 
Q 1469 3103 1208 2742 
Q 947 2381 947 1747 
z
" transform="scale(0.015625)"/>
       <path id="DejaVuSans-6a" d="M 603 3500 
L 1178 3500 
L 1178 -63 
Q 1178 -731 923 -1031 
Q 669 -1331 103 -1331 
L -116 -1331 
L -116 -844 
L 38 -844 
Q 366 -844 484 -692 
Q 603 -541 603 -63 
L 603 3500 
z
M 603 4863 
L 1178 4863 
L 1178 4134 
L 603 4134 
L 603 4863 
z
" transform="scale(0.015625)"/>
       <path id="DejaVuSans-75" d="M 544 1381 
L 544 3500 
L 1119 3500 
L 1119 1403 
Q 1119 906 1312 657 
Q 1506 409 1894 409 
Q 2359 409 2629 706 
Q 2900 1003 2900 1516 
L 2900 3500 
L 3475 3500 
L 3475 0 
L 2900 0 
L 2900 538 
Q 2691 219 2414 64 
Q 2138 -91 1772 -91 
Q 1169 -91 856 284 
Q 544 659 544 1381 
z
M 1991 3584 
L 1991 3584 
z
" transform="scale(0.015625)"/>
      </defs>
      <use xlink:href="#DejaVuSans-41"/>
      <use xlink:href="#DejaVuSans-64" transform="translate(66.658203 0)"/>
      <use xlink:href="#DejaVuSans-6a" transform="translate(130.134766 0)"/>
      <use xlink:href="#DejaVuSans-75" transform="translate(157.917969 0)"/>
      <use xlink:href="#DejaVuSans-73" transform="translate(221.296875 0)"/>
      <use xlink:href="#DejaVuSans-74" transform="translate(273.396484 0)"/>
      <use xlink:href="#DejaVuSans-65" transform="translate(312.605469 0)"/>
      <use xlink:href="#DejaVuSans-64" transform="translate(374.128906 0)"/>
      <use xlink:href="#DejaVuSans-20" transform="translate(437.605469 0)"/>
      <use xlink:href="#DejaVuSans-46" transform="translate(469.392578 0)"/>
      <use xlink:href="#DejaVuSans-6f" transform="translate(523.287109 0)"/>
      <use xlink:href="#DejaVuSans-72" transform="translate(584.46875 0)"/>
      <use xlink:href="#DejaVuSans-63" transform="translate(623.332031 0)"/>
      <use xlink:href="#DejaVuSans-65" transform="translate(678.3125 0)"/>
     </g>
    </g>
   </g>
  </g>
 </g>
 <defs>
  <clipPath id="p55d7928493">
   <rect x="50.87" y="26.88" width="388.376192" height="276.76"/>
  </clipPath>
 </defs>
</svg>
