<?xml version="1.0" encoding="utf-8" standalone="no"?>
<!DOCTYPE svg PUBLIC "-//W3C//DTD SVG 1.1//EN"
  "http://www.w3.org/Graphics/SVG/1.1/DTD/svg11.dtd">
<svg xmlns:xlink="http://www.w3.org/1999/xlink" width="460.8pt" height="345.6pt" viewBox="0 0 460.8 345.6" xmlns="http://www.w3.org/2000/svg" version="1.1">
 <metadata>
  <rdf:RDF xmlns:dc="http://purl.org/dc/elements/1.1/" xmlns:cc="http://creativecommons.org/ns#" xmlns:rdf="http://www.w3.org/1999/02/22-rdf-syntax-ns#">
   <cc:Work>
    <dc:type rdf:resource="http://purl.org/dc/dcmitype/StillImage"/>
    <dc:date>2025-07-28T21:14:13.860212</dc:date>
    <dc:format>image/svg+xml</dc:format>
    <dc:creator>
     <cc:Agent>
      <dc:title>Matplotlib v3.10.3, https://matplotlib.org/</dc:title>
     </cc:Agent>
    </dc:creator>
   </cc:Work>
  </rdf:RDF>
 </metadata>
 <defs>
  <style type="text/css">*{stroke-linejoin: round; stroke-linecap: butt}</style>
 </defs>
 <g id="figure_1">
  <g id="patch_1">
   <path d="M 0 345.6 
L 460.8 345.6 
L 460.8 0 
L 0 0 
z
" style="fill: #ffffff"/>
  </g>
  <g id="axes_1">
   <g id="patch_2">
    <path d="M 50.87 303.64 
L 439.297995 303.64 
L 439.297995 26.88 
L 50.87 26.88 
z
" style="fill: #ffffff"/>
   </g>
   <g id="matplotlib.axis_1">
    <g id="xtick_1">
     <g id="line2d_1">
      <path d="M 68.695995 303.64 
L 68.695995 26.88 
" clip-path="url(#p583b952ff7)" style="fill: none; stroke: #b0b0b0; stroke-opacity: 0.3; stroke-width: 0.8; stroke-linecap: square"/>
     </g>
     <g id="line2d_2">
      <defs>
       <path id="mcde3233595" d="M 0 0 
L 0 3.5 
" style="stroke: #000000; stroke-width: 0.8"/>
      </defs>
      <g>
       <use xlink:href="#mcde3233595" x="68.695995" y="303.64" style="stroke: #000000; stroke-width: 0.8"/>
      </g>
     </g>
     <g id="text_1">
      <!-- 0.000 -->
      <g transform="translate(54.381932 318.238437) scale(0.1 -0.1)">
       <defs>
        <path id="DejaVuSans-30" d="M 2034 4250 
Q 1547 4250 1301 3770 
Q 1056 3291 1056 2328 
Q 1056 1369 1301 889 
Q 1547 409 2034 409 
Q 2525 409 2770 889 
Q 3016 1369 3016 2328 
Q 3016 3291 2770 3770 
Q 2525 4250 2034 4250 
z
M 2034 4750 
Q 2819 4750 3233 4129 
Q 3647 3509 3647 2328 
Q 3647 1150 3233 529 
Q 2819 -91 2034 -91 
Q 1250 -91 836 529 
Q 422 1150 422 2328 
Q 422 3509 836 4129 
Q 1250 4750 2034 4750 
z
" transform="scale(0.015625)"/>
        <path id="DejaVuSans-2e" d="M 684 794 
L 1344 794 
L 1344 0 
L 684 0 
L 684 794 
z
" transform="scale(0.015625)"/>
       </defs>
       <use xlink:href="#DejaVuSans-30"/>
       <use xlink:href="#DejaVuSans-2e" transform="translate(63.623047 0)"/>
       <use xlink:href="#DejaVuSans-30" transform="translate(95.410156 0)"/>
       <use xlink:href="#DejaVuSans-30" transform="translate(159.033203 0)"/>
       <use xlink:href="#DejaVuSans-30" transform="translate(222.65625 0)"/>
      </g>
     </g>
    </g>
    <g id="xtick_2">
     <g id="line2d_3">
      <path d="M 114.549061 303.64 
L 114.549061 26.88 
" clip-path="url(#p583b952ff7)" style="fill: none; stroke: #b0b0b0; stroke-opacity: 0.3; stroke-width: 0.8; stroke-linecap: square"/>
     </g>
     <g id="line2d_4">
      <g>
       <use xlink:href="#mcde3233595" x="114.549061" y="303.64" style="stroke: #000000; stroke-width: 0.8"/>
      </g>
     </g>
     <g id="text_2">
      <!-- 0.025 -->
      <g transform="translate(100.234999 318.238437) scale(0.1 -0.1)">
       <defs>
        <path id="DejaVuSans-32" d="M 1228 531 
L 3431 531 
L 3431 0 
L 469 0 
L 469 531 
Q 828 903 1448 1529 
Q 2069 2156 2228 2338 
Q 2531 2678 2651 2914 
Q 2772 3150 2772 3378 
Q 2772 3750 2511 3984 
Q 2250 4219 1831 4219 
Q 1534 4219 1204 4116 
Q 875 4013 500 3803 
L 500 4441 
Q 881 4594 1212 4672 
Q 1544 4750 1819 4750 
Q 2544 4750 2975 4387 
Q 3406 4025 3406 3419 
Q 3406 3131 3298 2873 
Q 3191 2616 2906 2266 
Q 2828 2175 2409 1742 
Q 1991 1309 1228 531 
z
" transform="scale(0.015625)"/>
        <path id="DejaVuSans-35" d="M 691 4666 
L 3169 4666 
L 3169 4134 
L 1269 4134 
L 1269 2991 
Q 1406 3038 1543 3061 
Q 1681 3084 1819 3084 
Q 2600 3084 3056 2656 
Q 3513 2228 3513 1497 
Q 3513 744 3044 326 
Q 2575 -91 1722 -91 
Q 1428 -91 1123 -41 
Q 819 9 494 109 
L 494 744 
Q 775 591 1075 516 
Q 1375 441 1709 441 
Q 2250 441 2565 725 
Q 2881 1009 2881 1497 
Q 2881 1984 2565 2268 
Q 2250 2553 1709 2553 
Q 1456 2553 1204 2497 
Q 953 2441 691 2322 
L 691 4666 
z
" transform="scale(0.015625)"/>
       </defs>
       <use xlink:href="#DejaVuSans-30"/>
       <use xlink:href="#DejaVuSans-2e" transform="translate(63.623047 0)"/>
       <use xlink:href="#DejaVuSans-30" transform="translate(95.410156 0)"/>
       <use xlink:href="#DejaVuSans-32" transform="translate(159.033203 0)"/>
       <use xlink:href="#DejaVuSans-35" transform="translate(222.65625 0)"/>
      </g>
     </g>
    </g>
    <g id="xtick_3">
     <g id="line2d_5">
      <path d="M 160.402128 303.64 
L 160.402128 26.88 
" clip-path="url(#p583b952ff7)" style="fill: none; stroke: #b0b0b0; stroke-opacity: 0.3; stroke-width: 0.8; stroke-linecap: square"/>
     </g>
     <g id="line2d_6">
      <g>
       <use xlink:href="#mcde3233595" x="160.402128" y="303.64" style="stroke: #000000; stroke-width: 0.8"/>
      </g>
     </g>
     <g id="text_3">
      <!-- 0.050 -->
      <g transform="translate(146.088066 318.238437) scale(0.1 -0.1)">
       <use xlink:href="#DejaVuSans-30"/>
       <use xlink:href="#DejaVuSans-2e" transform="translate(63.623047 0)"/>
       <use xlink:href="#DejaVuSans-30" transform="translate(95.410156 0)"/>
       <use xlink:href="#DejaVuSans-35" transform="translate(159.033203 0)"/>
       <use xlink:href="#DejaVuSans-30" transform="translate(222.65625 0)"/>
      </g>
     </g>
    </g>
    <g id="xtick_4">
     <g id="line2d_7">
      <path d="M 206.255195 303.64 
L 206.255195 26.88 
" clip-path="url(#p583b952ff7)" style="fill: none; stroke: #b0b0b0; stroke-opacity: 0.3; stroke-width: 0.8; stroke-linecap: square"/>
     </g>
     <g id="line2d_8">
      <g>
       <use xlink:href="#mcde3233595" x="206.255195" y="303.64" style="stroke: #000000; stroke-width: 0.8"/>
      </g>
     </g>
     <g id="text_4">
      <!-- 0.075 -->
      <g transform="translate(191.941133 318.238437) scale(0.1 -0.1)">
       <defs>
        <path id="DejaVuSans-37" d="M 525 4666 
L 3525 4666 
L 3525 4397 
L 1831 0 
L 1172 0 
L 2766 4134 
L 525 4134 
L 525 4666 
z
" transform="scale(0.015625)"/>
       </defs>
       <use xlink:href="#DejaVuSans-30"/>
       <use xlink:href="#DejaVuSans-2e" transform="translate(63.623047 0)"/>
       <use xlink:href="#DejaVuSans-30" transform="translate(95.410156 0)"/>
       <use xlink:href="#DejaVuSans-37" transform="translate(159.033203 0)"/>
       <use xlink:href="#DejaVuSans-35" transform="translate(222.65625 0)"/>
      </g>
     </g>
    </g>
    <g id="xtick_5">
     <g id="line2d_9">
      <path d="M 252.108262 303.64 
L 252.108262 26.88 
" clip-path="url(#p583b952ff7)" style="fill: none; stroke: #b0b0b0; stroke-opacity: 0.3; stroke-width: 0.8; stroke-linecap: square"/>
     </g>
     <g id="line2d_10">
      <g>
       <use xlink:href="#mcde3233595" x="252.108262" y="303.64" style="stroke: #000000; stroke-width: 0.8"/>
      </g>
     </g>
     <g id="text_5">
      <!-- 0.100 -->
      <g transform="translate(237.7942 318.238437) scale(0.1 -0.1)">
       <defs>
        <path id="DejaVuSans-31" d="M 794 531 
L 1825 531 
L 1825 4091 
L 703 3866 
L 703 4441 
L 1819 4666 
L 2450 4666 
L 2450 531 
L 3481 531 
L 3481 0 
L 794 0 
L 794 531 
z
" transform="scale(0.015625)"/>
       </defs>
       <use xlink:href="#DejaVuSans-30"/>
       <use xlink:href="#DejaVuSans-2e" transform="translate(63.623047 0)"/>
       <use xlink:href="#DejaVuSans-31" transform="translate(95.410156 0)"/>
       <use xlink:href="#DejaVuSans-30" transform="translate(159.033203 0)"/>
       <use xlink:href="#DejaVuSans-30" transform="translate(222.65625 0)"/>
      </g>
     </g>
    </g>
    <g id="xtick_6">
     <g id="line2d_11">
      <path d="M 297.961329 303.64 
L 297.961329 26.88 
" clip-path="url(#p583b952ff7)" style="fill: none; stroke: #b0b0b0; stroke-opacity: 0.3; stroke-width: 0.8; stroke-linecap: square"/>
     </g>
     <g id="line2d_12">
      <g>
       <use xlink:href="#mcde3233595" x="297.961329" y="303.64" style="stroke: #000000; stroke-width: 0.8"/>
      </g>
     </g>
     <g id="text_6">
      <!-- 0.125 -->
      <g transform="translate(283.647266 318.238437) scale(0.1 -0.1)">
       <use xlink:href="#DejaVuSans-30"/>
       <use xlink:href="#DejaVuSans-2e" transform="translate(63.623047 0)"/>
       <use xlink:href="#DejaVuSans-31" transform="translate(95.410156 0)"/>
       <use xlink:href="#DejaVuSans-32" transform="translate(159.033203 0)"/>
       <use xlink:href="#DejaVuSans-35" transform="translate(222.65625 0)"/>
      </g>
     </g>
    </g>
    <g id="xtick_7">
     <g id="line2d_13">
      <path d="M 343.814396 303.64 
L 343.814396 26.88 
" clip-path="url(#p583b952ff7)" style="fill: none; stroke: #b0b0b0; stroke-opacity: 0.3; stroke-width: 0.8; stroke-linecap: square"/>
     </g>
     <g id="line2d_14">
      <g>
       <use xlink:href="#mcde3233595" x="343.814396" y="303.64" style="stroke: #000000; stroke-width: 0.8"/>
      </g>
     </g>
     <g id="text_7">
      <!-- 0.150 -->
      <g transform="translate(329.500333 318.238437) scale(0.1 -0.1)">
       <use xlink:href="#DejaVuSans-30"/>
       <use xlink:href="#DejaVuSans-2e" transform="translate(63.623047 0)"/>
       <use xlink:href="#DejaVuSans-31" transform="translate(95.410156 0)"/>
       <use xlink:href="#DejaVuSans-35" transform="translate(159.033203 0)"/>
       <use xlink:href="#DejaVuSans-30" transform="translate(222.65625 0)"/>
      </g>
     </g>
    </g>
    <g id="xtick_8">
     <g id="line2d_15">
      <path d="M 389.667463 303.64 
L 389.667463 26.88 
" clip-path="url(#p583b952ff7)" style="fill: none; stroke: #b0b0b0; stroke-opacity: 0.3; stroke-width: 0.8; stroke-linecap: square"/>
     </g>
     <g id="line2d_16">
      <g>
       <use xlink:href="#mcde3233595" x="389.667463" y="303.64" style="stroke: #000000; stroke-width: 0.8"/>
      </g>
     </g>
     <g id="text_8">
      <!-- 0.175 -->
      <g transform="translate(375.3534 318.238437) scale(0.1 -0.1)">
       <use xlink:href="#DejaVuSans-30"/>
       <use xlink:href="#DejaVuSans-2e" transform="translate(63.623047 0)"/>
       <use xlink:href="#DejaVuSans-31" transform="translate(95.410156 0)"/>
       <use xlink:href="#DejaVuSans-37" transform="translate(159.033203 0)"/>
       <use xlink:href="#DejaVuSans-35" transform="translate(222.65625 0)"/>
      </g>
     </g>
    </g>
    <g id="xtick_9">
     <g id="line2d_17">
      <path d="M 435.52053 303.64 
L 435.52053 26.88 
" clip-path="url(#p583b952ff7)" style="fill: none; stroke: #b0b0b0; stroke-opacity: 0.3; stroke-width: 0.8; stroke-linecap: square"/>
     </g>
     <g id="line2d_18">
      <g>
       <use xlink:href="#mcde3233595" x="435.52053" y="303.64" style="stroke: #000000; stroke-width: 0.8"/>
      </g>
     </g>
     <g id="text_9">
      <!-- 0.200 -->
      <g transform="translate(421.206467 318.238437) scale(0.1 -0.1)">
       <use xlink:href="#DejaVuSans-30"/>
       <use xlink:href="#DejaVuSans-2e" transform="translate(63.623047 0)"/>
       <use xlink:href="#DejaVuSans-32" transform="translate(95.410156 0)"/>
       <use xlink:href="#DejaVuSans-30" transform="translate(159.033203 0)"/>
       <use xlink:href="#DejaVuSans-30" transform="translate(222.65625 0)"/>
      </g>
     </g>
    </g>
    <g id="text_10">
     <!-- Strain [-] -->
     <g transform="translate(222.977747 331.916562) scale(0.1 -0.1)">
      <defs>
       <path id="DejaVuSans-53" d="M 3425 4513 
L 3425 3897 
Q 3066 4069 2747 4153 
Q 2428 4238 2131 4238 
Q 1616 4238 1336 4038 
Q 1056 3838 1056 3469 
Q 1056 3159 1242 3001 
Q 1428 2844 1947 2747 
L 2328 2669 
Q 3034 2534 3370 2195 
Q 3706 1856 3706 1288 
Q 3706 609 3251 259 
Q 2797 -91 1919 -91 
Q 1588 -91 1214 -16 
Q 841 59 441 206 
L 441 856 
Q 825 641 1194 531 
Q 1563 422 1919 422 
Q 2459 422 2753 634 
Q 3047 847 3047 1241 
Q 3047 1584 2836 1778 
Q 2625 1972 2144 2069 
L 1759 2144 
Q 1053 2284 737 2584 
Q 422 2884 422 3419 
Q 422 4038 858 4394 
Q 1294 4750 2059 4750 
Q 2388 4750 2728 4690 
Q 3069 4631 3425 4513 
z
" transform="scale(0.015625)"/>
       <path id="DejaVuSans-74" d="M 1172 4494 
L 1172 3500 
L 2356 3500 
L 2356 3053 
L 1172 3053 
L 1172 1153 
Q 1172 725 1289 603 
Q 1406 481 1766 481 
L 2356 481 
L 2356 0 
L 1766 0 
Q 1100 0 847 248 
Q 594 497 594 1153 
L 594 3053 
L 172 3053 
L 172 3500 
L 594 3500 
L 594 4494 
L 1172 4494 
z
" transform="scale(0.015625)"/>
       <path id="DejaVuSans-72" d="M 2631 2963 
Q 2534 3019 2420 3045 
Q 2306 3072 2169 3072 
Q 1681 3072 1420 2755 
Q 1159 2438 1159 1844 
L 1159 0 
L 581 0 
L 581 3500 
L 1159 3500 
L 1159 2956 
Q 1341 3275 1631 3429 
Q 1922 3584 2338 3584 
Q 2397 3584 2469 3576 
Q 2541 3569 2628 3553 
L 2631 2963 
z
" transform="scale(0.015625)"/>
       <path id="DejaVuSans-61" d="M 2194 1759 
Q 1497 1759 1228 1600 
Q 959 1441 959 1056 
Q 959 750 1161 570 
Q 1363 391 1709 391 
Q 2188 391 2477 730 
Q 2766 1069 2766 1631 
L 2766 1759 
L 2194 1759 
z
M 3341 1997 
L 3341 0 
L 2766 0 
L 2766 531 
Q 2569 213 2275 61 
Q 1981 -91 1556 -91 
Q 1019 -91 701 211 
Q 384 513 384 1019 
Q 384 1609 779 1909 
Q 1175 2209 1959 2209 
L 2766 2209 
L 2766 2266 
Q 2766 2663 2505 2880 
Q 2244 3097 1772 3097 
Q 1472 3097 1187 3025 
Q 903 2953 641 2809 
L 641 3341 
Q 956 3463 1253 3523 
Q 1550 3584 1831 3584 
Q 2591 3584 2966 3190 
Q 3341 2797 3341 1997 
z
" transform="scale(0.015625)"/>
       <path id="DejaVuSans-69" d="M 603 3500 
L 1178 3500 
L 1178 0 
L 603 0 
L 603 3500 
z
M 603 4863 
L 1178 4863 
L 1178 4134 
L 603 4134 
L 603 4863 
z
" transform="scale(0.015625)"/>
       <path id="DejaVuSans-6e" d="M 3513 2113 
L 3513 0 
L 2938 0 
L 2938 2094 
Q 2938 2591 2744 2837 
Q 2550 3084 2163 3084 
Q 1697 3084 1428 2787 
Q 1159 2491 1159 1978 
L 1159 0 
L 581 0 
L 581 3500 
L 1159 3500 
L 1159 2956 
Q 1366 3272 1645 3428 
Q 1925 3584 2291 3584 
Q 2894 3584 3203 3211 
Q 3513 2838 3513 2113 
z
" transform="scale(0.015625)"/>
       <path id="DejaVuSans-20" transform="scale(0.015625)"/>
       <path id="DejaVuSans-5b" d="M 550 4863 
L 1875 4863 
L 1875 4416 
L 1125 4416 
L 1125 -397 
L 1875 -397 
L 1875 -844 
L 550 -844 
L 550 4863 
z
" transform="scale(0.015625)"/>
       <path id="DejaVuSans-2d" d="M 313 2009 
L 1997 2009 
L 1997 1497 
L 313 1497 
L 313 2009 
z
" transform="scale(0.015625)"/>
       <path id="DejaVuSans-5d" d="M 1947 4863 
L 1947 -844 
L 622 -844 
L 622 -397 
L 1369 -397 
L 1369 4416 
L 622 4416 
L 622 4863 
L 1947 4863 
z
" transform="scale(0.015625)"/>
      </defs>
      <use xlink:href="#DejaVuSans-53"/>
      <use xlink:href="#DejaVuSans-74" transform="translate(63.476562 0)"/>
      <use xlink:href="#DejaVuSans-72" transform="translate(102.685547 0)"/>
      <use xlink:href="#DejaVuSans-61" transform="translate(143.798828 0)"/>
      <use xlink:href="#DejaVuSans-69" transform="translate(205.078125 0)"/>
      <use xlink:href="#DejaVuSans-6e" transform="translate(232.861328 0)"/>
      <use xlink:href="#DejaVuSans-20" transform="translate(296.240234 0)"/>
      <use xlink:href="#DejaVuSans-5b" transform="translate(328.027344 0)"/>
      <use xlink:href="#DejaVuSans-2d" transform="translate(367.041016 0)"/>
      <use xlink:href="#DejaVuSans-5d" transform="translate(403.125 0)"/>
     </g>
    </g>
   </g>
   <g id="matplotlib.axis_2">
    <g id="ytick_1">
     <g id="line2d_19">
      <path d="M 50.87 267.371335 
L 439.297995 267.371335 
" clip-path="url(#p583b952ff7)" style="fill: none; stroke: #b0b0b0; stroke-opacity: 0.3; stroke-width: 0.8; stroke-linecap: square"/>
     </g>
     <g id="line2d_20">
      <defs>
       <path id="m21b5b4c7e4" d="M 0 0 
L -3.5 0 
" style="stroke: #000000; stroke-width: 0.8"/>
      </defs>
      <g>
       <use xlink:href="#m21b5b4c7e4" x="50.87" y="267.371335" style="stroke: #000000; stroke-width: 0.8"/>
      </g>
     </g>
     <g id="text_11">
      <!-- 0 -->
      <g transform="translate(37.5075 271.170553) scale(0.1 -0.1)">
       <use xlink:href="#DejaVuSans-30"/>
      </g>
     </g>
    </g>
    <g id="ytick_2">
     <g id="line2d_21">
      <path d="M 50.87 221.354103 
L 439.297995 221.354103 
" clip-path="url(#p583b952ff7)" style="fill: none; stroke: #b0b0b0; stroke-opacity: 0.3; stroke-width: 0.8; stroke-linecap: square"/>
     </g>
     <g id="line2d_22">
      <g>
       <use xlink:href="#m21b5b4c7e4" x="50.87" y="221.354103" style="stroke: #000000; stroke-width: 0.8"/>
      </g>
     </g>
     <g id="text_12">
      <!-- 100 -->
      <g transform="translate(24.7825 225.153322) scale(0.1 -0.1)">
       <use xlink:href="#DejaVuSans-31"/>
       <use xlink:href="#DejaVuSans-30" transform="translate(63.623047 0)"/>
       <use xlink:href="#DejaVuSans-30" transform="translate(127.246094 0)"/>
      </g>
     </g>
    </g>
    <g id="ytick_3">
     <g id="line2d_23">
      <path d="M 50.87 175.336872 
L 439.297995 175.336872 
" clip-path="url(#p583b952ff7)" style="fill: none; stroke: #b0b0b0; stroke-opacity: 0.3; stroke-width: 0.8; stroke-linecap: square"/>
     </g>
     <g id="line2d_24">
      <g>
       <use xlink:href="#m21b5b4c7e4" x="50.87" y="175.336872" style="stroke: #000000; stroke-width: 0.8"/>
      </g>
     </g>
     <g id="text_13">
      <!-- 200 -->
      <g transform="translate(24.7825 179.136091) scale(0.1 -0.1)">
       <use xlink:href="#DejaVuSans-32"/>
       <use xlink:href="#DejaVuSans-30" transform="translate(63.623047 0)"/>
       <use xlink:href="#DejaVuSans-30" transform="translate(127.246094 0)"/>
      </g>
     </g>
    </g>
    <g id="ytick_4">
     <g id="line2d_25">
      <path d="M 50.87 129.319641 
L 439.297995 129.319641 
" clip-path="url(#p583b952ff7)" style="fill: none; stroke: #b0b0b0; stroke-opacity: 0.3; stroke-width: 0.8; stroke-linecap: square"/>
     </g>
     <g id="line2d_26">
      <g>
       <use xlink:href="#m21b5b4c7e4" x="50.87" y="129.319641" style="stroke: #000000; stroke-width: 0.8"/>
      </g>
     </g>
     <g id="text_14">
      <!-- 300 -->
      <g transform="translate(24.7825 133.11886) scale(0.1 -0.1)">
       <defs>
        <path id="DejaVuSans-33" d="M 2597 2516 
Q 3050 2419 3304 2112 
Q 3559 1806 3559 1356 
Q 3559 666 3084 287 
Q 2609 -91 1734 -91 
Q 1441 -91 1130 -33 
Q 819 25 488 141 
L 488 750 
Q 750 597 1062 519 
Q 1375 441 1716 441 
Q 2309 441 2620 675 
Q 2931 909 2931 1356 
Q 2931 1769 2642 2001 
Q 2353 2234 1838 2234 
L 1294 2234 
L 1294 2753 
L 1863 2753 
Q 2328 2753 2575 2939 
Q 2822 3125 2822 3475 
Q 2822 3834 2567 4026 
Q 2313 4219 1838 4219 
Q 1578 4219 1281 4162 
Q 984 4106 628 3988 
L 628 4550 
Q 988 4650 1302 4700 
Q 1616 4750 1894 4750 
Q 2613 4750 3031 4423 
Q 3450 4097 3450 3541 
Q 3450 3153 3228 2886 
Q 3006 2619 2597 2516 
z
" transform="scale(0.015625)"/>
       </defs>
       <use xlink:href="#DejaVuSans-33"/>
       <use xlink:href="#DejaVuSans-30" transform="translate(63.623047 0)"/>
       <use xlink:href="#DejaVuSans-30" transform="translate(127.246094 0)"/>
      </g>
     </g>
    </g>
    <g id="ytick_5">
     <g id="line2d_27">
      <path d="M 50.87 83.302409 
L 439.297995 83.302409 
" clip-path="url(#p583b952ff7)" style="fill: none; stroke: #b0b0b0; stroke-opacity: 0.3; stroke-width: 0.8; stroke-linecap: square"/>
     </g>
     <g id="line2d_28">
      <g>
       <use xlink:href="#m21b5b4c7e4" x="50.87" y="83.302409" style="stroke: #000000; stroke-width: 0.8"/>
      </g>
     </g>
     <g id="text_15">
      <!-- 400 -->
      <g transform="translate(24.7825 87.101628) scale(0.1 -0.1)">
       <defs>
        <path id="DejaVuSans-34" d="M 2419 4116 
L 825 1625 
L 2419 1625 
L 2419 4116 
z
M 2253 4666 
L 3047 4666 
L 3047 1625 
L 3713 1625 
L 3713 1100 
L 3047 1100 
L 3047 0 
L 2419 0 
L 2419 1100 
L 313 1100 
L 313 1709 
L 2253 4666 
z
" transform="scale(0.015625)"/>
       </defs>
       <use xlink:href="#DejaVuSans-34"/>
       <use xlink:href="#DejaVuSans-30" transform="translate(63.623047 0)"/>
       <use xlink:href="#DejaVuSans-30" transform="translate(127.246094 0)"/>
      </g>
     </g>
    </g>
    <g id="ytick_6">
     <g id="line2d_29">
      <path d="M 50.87 37.285178 
L 439.297995 37.285178 
" clip-path="url(#p583b952ff7)" style="fill: none; stroke: #b0b0b0; stroke-opacity: 0.3; stroke-width: 0.8; stroke-linecap: square"/>
     </g>
     <g id="line2d_30">
      <g>
       <use xlink:href="#m21b5b4c7e4" x="50.87" y="37.285178" style="stroke: #000000; stroke-width: 0.8"/>
      </g>
     </g>
     <g id="text_16">
      <!-- 500 -->
      <g transform="translate(24.7825 41.084397) scale(0.1 -0.1)">
       <use xlink:href="#DejaVuSans-35"/>
       <use xlink:href="#DejaVuSans-30" transform="translate(63.623047 0)"/>
       <use xlink:href="#DejaVuSans-30" transform="translate(127.246094 0)"/>
      </g>
     </g>
    </g>
    <g id="text_17">
     <!-- Stress [Pa] -->
     <g transform="translate(18.702813 191.967812) rotate(-90) scale(0.1 -0.1)">
      <defs>
       <path id="DejaVuSans-65" d="M 3597 1894 
L 3597 1613 
L 953 1613 
Q 991 1019 1311 708 
Q 1631 397 2203 397 
Q 2534 397 2845 478 
Q 3156 559 3463 722 
L 3463 178 
Q 3153 47 2828 -22 
Q 2503 -91 2169 -91 
Q 1331 -91 842 396 
Q 353 884 353 1716 
Q 353 2575 817 3079 
Q 1281 3584 2069 3584 
Q 2775 3584 3186 3129 
Q 3597 2675 3597 1894 
z
M 3022 2063 
Q 3016 2534 2758 2815 
Q 2500 3097 2075 3097 
Q 1594 3097 1305 2825 
Q 1016 2553 972 2059 
L 3022 2063 
z
" transform="scale(0.015625)"/>
       <path id="DejaVuSans-73" d="M 2834 3397 
L 2834 2853 
Q 2591 2978 2328 3040 
Q 2066 3103 1784 3103 
Q 1356 3103 1142 2972 
Q 928 2841 928 2578 
Q 928 2378 1081 2264 
Q 1234 2150 1697 2047 
L 1894 2003 
Q 2506 1872 2764 1633 
Q 3022 1394 3022 966 
Q 3022 478 2636 193 
Q 2250 -91 1575 -91 
Q 1294 -91 989 -36 
Q 684 19 347 128 
L 347 722 
Q 666 556 975 473 
Q 1284 391 1588 391 
Q 1994 391 2212 530 
Q 2431 669 2431 922 
Q 2431 1156 2273 1281 
Q 2116 1406 1581 1522 
L 1381 1569 
Q 847 1681 609 1914 
Q 372 2147 372 2553 
Q 372 3047 722 3315 
Q 1072 3584 1716 3584 
Q 2034 3584 2315 3537 
Q 2597 3491 2834 3397 
z
" transform="scale(0.015625)"/>
       <path id="DejaVuSans-50" d="M 1259 4147 
L 1259 2394 
L 2053 2394 
Q 2494 2394 2734 2622 
Q 2975 2850 2975 3272 
Q 2975 3691 2734 3919 
Q 2494 4147 2053 4147 
L 1259 4147 
z
M 628 4666 
L 2053 4666 
Q 2838 4666 3239 4311 
Q 3641 3956 3641 3272 
Q 3641 2581 3239 2228 
Q 2838 1875 2053 1875 
L 1259 1875 
L 1259 0 
L 628 0 
L 628 4666 
z
" transform="scale(0.015625)"/>
      </defs>
      <use xlink:href="#DejaVuSans-53"/>
      <use xlink:href="#DejaVuSans-74" transform="translate(63.476562 0)"/>
      <use xlink:href="#DejaVuSans-72" transform="translate(102.685547 0)"/>
      <use xlink:href="#DejaVuSans-65" transform="translate(141.548828 0)"/>
      <use xlink:href="#DejaVuSans-73" transform="translate(203.072266 0)"/>
      <use xlink:href="#DejaVuSans-73" transform="translate(255.171875 0)"/>
      <use xlink:href="#DejaVuSans-20" transform="translate(307.271484 0)"/>
      <use xlink:href="#DejaVuSans-5b" transform="translate(339.058594 0)"/>
      <use xlink:href="#DejaVuSans-50" transform="translate(378.072266 0)"/>
      <use xlink:href="#DejaVuSans-61" transform="translate(433.875 0)"/>
      <use xlink:href="#DejaVuSans-5d" transform="translate(495.154297 0)"/>
     </g>
    </g>
   </g>
   <g id="line2d_31">
    <path d="M 68.695995 281.696808 
L 68.696702 281.337526 
L 68.695995 281.784996 
L 68.697809 281.464472 
L 68.941878 281.531362 
L 69.648032 280.291699 
L 70.379919 276.874727 
L 71.121696 274.153756 
L 71.836159 276.239521 
L 73.340433 278.135082 
L 74.776355 279.622743 
L 75.482207 280.685518 
L 76.206088 282.125125 
L 76.95069 281.723155 
L 77.661655 279.083093 
L 78.387151 277.659355 
L 79.104843 276.714592 
L 79.828724 275.573366 
L 80.53619 273.804534 
L 81.257111 272.357356 
L 82.729901 275.821263 
L 83.443018 276.32898 
L 84.155866 276.515538 
L 84.886475 277.035973 
L 85.616411 278.176976 
L 86.32307 274.046683 
L 87.048079 270.675767 
L 87.762408 269.94124 
L 88.47687 270.692739 
L 89.20425 270.90602 
L 89.945354 271.264889 
L 91.384236 271.515712 
L 92.843301 270.030677 
L 93.578888 268.939182 
L 95.737885 267.330939 
L 96.478989 266.059185 
L 97.934286 266.078435 
L 98.644174 265.881708 
L 99.362135 266.503336 
L 100.104316 266.682784 
L 100.842459 267.006841 
L 101.548311 266.061631 
L 102.274614 264.791218 
L 102.990692 263.301099 
L 104.444242 262.645508 
L 105.156333 262.611792 
L 105.894208 262.082542 
L 106.624413 262.081159 
L 107.345334 261.306261 
L 108.080249 261.133958 
L 108.792021 260.660794 
L 109.511327 260.458669 
L 110.226598 259.559502 
L 112.384517 257.962657 
L 113.121585 257.642809 
L 113.859459 257.467868 
L 114.596258 257.092691 
L 117.513849 255.094875 
L 118.230196 254.988737 
L 118.946542 255.000597 
L 119.652125 254.734582 
L 120.378428 254.319977 
L 121.096389 253.652363 
L 123.28481 252.262106 
L 123.994698 252.170671 
L 124.734456 251.878257 
L 126.189754 250.514699 
L 127.640746 249.620197 
L 128.356016 249.454891 
L 130.520125 248.423494 
L 131.995336 247.329009 
L 132.701995 247.259666 
L 134.178283 246.37261 
L 134.909699 245.92487 
L 135.639366 245.632129 
L 137.107849 244.746092 
L 139.293222 243.522015 
L 140.000839 242.790912 
L 143.596565 241.059961 
L 145.767267 238.970508 
L 149.336621 237.319173 
L 150.069383 236.624458 
L 150.809679 236.296469 
L 151.549976 236.286418 
L 153.011194 235.022711 
L 153.746108 234.710947 
L 155.169383 233.577488 
L 155.890842 233.313583 
L 156.610956 233.244086 
L 158.792506 231.944607 
L 159.517868 231.429201 
L 160.249553 230.75164 
L 160.955405 230.533843 
L 163.094757 229.494809 
L 164.565393 227.733575 
L 165.306228 227.276839 
L 166.020152 227.117912 
L 166.740535 227.205188 
L 167.455536 227.468996 
L 168.190182 227.031146 
L 170.369361 225.155645 
L 171.074943 225.052605 
L 171.814971 224.791612 
L 174.002222 222.792064 
L 174.734446 222.005209 
L 175.472733 221.805464 
L 179.137079 220.06905 
L 179.871186 219.468431 
L 180.605025 218.640339 
L 181.313029 218.129654 
L 182.762675 217.545652 
L 183.490324 217.349056 
L 184.205594 216.979041 
L 186.385446 214.732993 
L 187.123051 214.350517 
L 189.267516 213.665001 
L 189.973099 213.381965 
L 191.42732 212.143849 
L 192.864596 210.942832 
L 193.574484 210.481989 
L 194.285449 210.192855 
L 194.992646 210.051236 
L 196.452249 208.846869 
L 197.193084 208.726036 
L 197.908085 208.442085 
L 199.342392 207.235791 
L 200.051742 206.926352 
L 200.789079 206.127986 
L 201.525608 205.576232 
L 202.957763 205.119007 
L 204.386957 204.244844 
L 205.803773 203.044836 
L 207.220051 202.420344 
L 207.959271 201.759044 
L 208.697415 201.298843 
L 209.433675 201.119772 
L 210.169119 200.451934 
L 211.584355 199.573273 
L 212.291821 198.944102 
L 213.031579 197.978441 
L 213.738238 197.434872 
L 215.16528 196.635898 
L 215.879205 196.432193 
L 216.588285 196.365085 
L 217.322123 195.928464 
L 218.772039 194.461925 
L 220.240253 193.508151 
L 220.978935 193.204846 
L 221.684787 192.569626 
L 223.811222 191.09381 
L 227.36147 189.800195 
L 228.07378 189.020604 
L 229.494111 188.219171 
L 230.969591 186.657865 
L 231.675174 186.506928 
L 232.382102 185.776396 
L 233.806991 184.864041 
L 235.229996 184.022028 
L 235.93827 183.972913 
L 237.383072 183.388401 
L 239.573957 181.228543 
L 240.300126 180.477448 
L 241.006516 179.99971 
L 243.162821 179.424794 
L 243.869749 179.061009 
L 245.326661 177.625313 
L 246.767965 176.791347 
L 248.229452 176.311275 
L 248.941762 175.863116 
L 250.4015 174.194973 
L 252.569646 172.465366 
L 254.000455 171.880568 
L 256.923832 169.293253 
L 257.640448 169.021343 
L 258.361638 168.922693 
L 259.070719 168.43908 
L 259.802135 167.713019 
L 260.523191 167.361945 
L 261.971357 165.863416 
L 262.678555 165.526564 
L 263.391134 165.608584 
L 264.099273 165.196668 
L 264.834994 164.412271 
L 265.569102 164.054548 
L 266.304823 163.444039 
L 267.04512 162.524085 
L 268.466242 162.147288 
L 269.199272 161.561086 
L 270.654974 159.910712 
L 271.394463 158.780885 
L 272.11673 158.179819 
L 273.579831 158.225003 
L 274.291603 158.000588 
L 275.736002 156.672511 
L 276.457865 155.826677 
L 277.194394 155.161521 
L 277.912355 154.843331 
L 278.637044 154.827225 
L 279.352314 154.582562 
L 280.087767 154.150907 
L 282.26824 152.000213 
L 283.003693 151.589478 
L 283.741299 151.33035 
L 285.946042 149.836961 
L 288.897271 147.294683 
L 289.633262 146.442229 
L 291.814056 144.903552 
L 293.281194 144.419897 
L 294.010726 143.693277 
L 294.741604 143.257048 
L 295.478941 142.636481 
L 296.187483 141.847614 
L 296.903022 141.403953 
L 297.619907 141.320264 
L 299.784336 139.903007 
L 301.2286 138.364051 
L 303.396208 137.713242 
L 304.123588 137.234099 
L 304.84868 136.258492 
L 307.763446 133.787275 
L 308.504281 133.604531 
L 309.241079 132.678989 
L 312.822004 130.58758 
L 314.289411 128.931507 
L 316.430647 127.363439 
L 317.170254 127.186869 
L 320.801501 123.906558 
L 322.255991 123.160562 
L 324.466924 121.469482 
L 325.941328 119.893368 
L 326.647179 119.314583 
L 327.357606 119.075124 
L 329.492383 117.914523 
L 330.229989 117.165887 
L 330.963019 116.075398 
L 332.435539 115.237778 
L 333.170185 114.740587 
L 335.3644 112.901029 
L 336.071058 112.5442 
L 336.782292 112.318486 
L 337.495409 111.661767 
L 338.9168 110.812805 
L 341.833585 107.79978 
L 343.966478 106.405894 
L 344.674483 106.066764 
L 346.864695 104.124714 
L 348.289853 103.604097 
L 348.998126 103.171388 
L 349.705862 102.392243 
L 352.551502 100.304508 
L 353.257623 100.063456 
L 355.461559 97.980709 
L 356.202394 97.473334 
L 357.619479 96.687456 
L 359.033335 95.811869 
L 360.507201 94.452836 
L 362.692165 91.720019 
L 363.399093 91.25328 
L 364.825597 90.595444 
L 367.014194 88.265218 
L 367.725159 87.404717 
L 368.446618 87.021515 
L 369.177765 86.882131 
L 370.626638 86.286471 
L 372.069423 84.458325 
L 372.787384 83.585196 
L 374.243489 82.427599 
L 374.971675 82.331016 
L 375.69448 82.095985 
L 376.433162 81.389983 
L 377.15516 80.244957 
L 378.583547 78.840888 
L 380.032656 78.149889 
L 380.755461 77.864373 
L 381.464811 77.332539 
L 382.918897 75.665849 
L 383.651121 75.337908 
L 389.37974 70.13245 
L 390.094741 69.625983 
L 390.807589 68.688596 
L 391.51963 68.35409 
L 392.260196 67.78046 
L 394.453637 65.448725 
L 395.18909 64.446298 
L 396.61963 63.343068 
L 398.784546 62.25452 
L 400.225851 60.617669 
L 400.959016 59.868139 
L 401.697967 59.458437 
L 403.174255 58.096722 
L 404.6348 56.417292 
L 405.35895 55.334304 
L 406.094403 54.594999 
L 406.805636 54.218656 
L 407.520637 54.147595 
L 408.232409 53.753259 
L 408.93853 53.156216 
L 411.121611 50.248226 
L 413.978386 48.923976 
L 416.17694 46.470235 
L 416.887904 46.054233 
L 417.605058 45.371531 
L 418.317906 45.337544 
L 419.041922 45.121078 
L 419.770244 45.221558 
L 420.478383 45.123034 
L 421.252855 44.029946 
L 421.642177 42.593356 
L 421.456766 43.493306 
L 421.41112 47.286035 
L 421.412196 53.1689 
L 421.41112 53.134131 
L 420.84806 53.609907 
L 419.413349 61.061176 
L 417.93733 58.702006 
L 417.205645 58.153073 
L 415.775105 57.425782 
L 415.055529 56.639709 
L 414.309043 55.610349 
L 413.586776 55.238601 
L 412.856168 58.311372 
L 412.12206 60.196875 
L 411.394412 62.410486 
L 410.682102 63.64402 
L 409.931848 64.026091 
L 409.195858 64.880334 
L 407.773928 63.213169 
L 407.053276 62.795658 
L 406.310558 62.010772 
L 405.601343 62.922177 
L 404.889033 64.485579 
L 404.159231 68.944092 
L 403.433197 70.572786 
L 402.698551 70.934657 
L 401.242447 69.968773 
L 400.527984 69.949411 
L 399.815136 70.381073 
L 399.079817 71.316113 
L 397.627749 73.720264 
L 396.895257 74.403859 
L 396.176084 75.397124 
L 395.455701 77.002349 
L 394.746351 77.956472 
L 393.308007 77.966418 
L 392.590853 77.533485 
L 391.85863 77.221777 
L 391.142822 77.415725 
L 388.971581 82.736793 
L 388.231823 83.079778 
L 387.515746 83.189436 
L 386.808548 83.127804 
L 386.099737 83.735183 
L 385.379623 85.433835 
L 384.664756 86.482193 
L 383.225336 86.377969 
L 382.508451 86.756534 
L 380.322141 89.651952 
L 378.893484 90.715314 
L 378.17364 90.822737 
L 376.025945 93.176361 
L 375.314712 93.608679 
L 374.607784 94.250814 
L 373.873138 94.643166 
L 372.417034 96.003484 
L 370.995912 96.930143 
L 370.275562 97.70071 
L 368.840178 98.740254 
L 368.106879 99.374343 
L 365.934024 101.786763 
L 364.463656 102.787683 
L 363.005533 103.544826 
L 362.280845 104.721589 
L 361.543777 105.483412 
L 359.417073 107.11631 
L 358.684042 107.2996 
L 356.500289 109.211253 
L 355.781251 109.336864 
L 353.601534 111.132098 
L 352.864803 111.935787 
L 349.243378 114.573991 
L 348.520304 115.550045 
L 347.790502 116.105543 
L 347.081691 116.383669 
L 345.658147 117.279261 
L 344.92552 118.043654 
L 344.204195 119.088101 
L 343.479237 119.807472 
L 342.748359 120.357326 
L 342.01506 120.698509 
L 341.287814 121.349361 
L 339.845165 122.840459 
L 339.120476 122.894505 
L 336.962556 124.237585 
L 336.244595 125.340703 
L 335.513044 125.981106 
L 334.796412 126.383795 
L 334.065534 126.560366 
L 333.338423 126.591391 
L 332.629073 127.461168 
L 331.893621 128.54322 
L 329.737315 130.45817 
L 329.001055 130.565383 
L 328.274348 131.533726 
L 327.54347 132.2038 
L 326.116159 132.992667 
L 324.687503 134.319962 
L 323.950974 134.80391 
L 321.761031 136.839023 
L 318.869004 138.646662 
L 317.39465 140.041847 
L 316.655161 140.47091 
L 315.195289 141.723554 
L 314.46468 142.043196 
L 313.759098 142.837651 
L 312.323444 143.434051 
L 310.881064 144.472491 
L 310.154895 145.198162 
L 309.417559 146.130073 
L 307.237842 147.023598 
L 306.530106 147.593093 
L 305.805148 148.546014 
L 305.080998 149.232068 
L 301.482581 151.428301 
L 300.035895 152.400919 
L 299.300694 153.360217 
L 297.85643 154.655104 
L 296.435847 155.856508 
L 295.721384 155.896684 
L 295.013379 156.395551 
L 294.307528 156.754503 
L 293.601138 156.904462 
L 292.8673 157.293461 
L 292.145437 157.939172 
L 291.423708 158.74402 
L 289.97164 159.843087 
L 289.246413 159.925896 
L 287.806723 161.070055 
L 286.386409 162.644828 
L 285.66791 163.189011 
L 284.230642 163.599237 
L 282.074202 165.706815 
L 280.648236 166.302719 
L 279.911169 166.773787 
L 278.438649 168.324254 
L 276.287995 169.461289 
L 275.553753 169.699687 
L 273.392335 171.62123 
L 271.945918 172.036429 
L 271.238182 172.451649 
L 268.359879 175.019266 
L 267.636805 175.629328 
L 266.190926 175.725841 
L 264.736033 177.271055 
L 264.010722 177.777005 
L 262.558384 179.260754 
L 261.836656 179.782978 
L 260.392929 180.247243 
L 259.652364 180.910304 
L 257.443046 182.538774 
L 256.019233 182.60253 
L 254.570663 183.441854 
L 253.841803 184.070858 
L 253.118864 185.267513 
L 251.681865 186.550218 
L 250.969824 186.980769 
L 249.519101 187.517856 
L 248.074837 188.902815 
L 246.636005 189.984986 
L 245.909433 190.332176 
L 245.179093 190.33622 
L 243.729985 190.970658 
L 241.581752 193.331525 
L 240.86702 193.241424 
L 239.423832 193.818435 
L 238.712868 194.302383 
L 237.247614 196.061158 
L 236.51539 196.625065 
L 235.040986 197.162257 
L 233.586765 198.086262 
L 232.14869 198.623467 
L 231.442839 198.97102 
L 229.999112 200.274623 
L 229.271329 201.053328 
L 228.561088 201.04642 
L 227.844472 201.301777 
L 227.131893 201.413712 
L 226.400342 201.749936 
L 224.958365 203.317053 
L 224.221298 203.951924 
L 222.798293 204.703368 
L 222.087597 204.813927 
L 220.619652 205.358445 
L 219.89281 205.564358 
L 219.172024 206.188312 
L 218.451641 207.252651 
L 217.711882 207.972008 
L 216.255778 208.734767 
L 215.528129 208.692608 
L 214.818779 209.093355 
L 213.370209 211.002438 
L 212.659783 211.648652 
L 211.931057 212.032536 
L 211.202534 212.078404 
L 210.489417 212.360549 
L 209.756386 213.180819 
L 207.565098 214.570927 
L 206.8579 214.535347 
L 206.124062 214.798722 
L 205.395875 215.743932 
L 204.65827 216.423274 
L 203.946229 216.551155 
L 203.236072 216.93743 
L 201.084341 218.400953 
L 200.370955 218.897916 
L 199.652994 219.258042 
L 198.945527 219.200279 
L 197.519562 220.798967 
L 196.809943 221.816146 
L 196.074625 222.068032 
L 195.355587 221.922599 
L 194.63332 222.050745 
L 193.179293 223.118597 
L 192.440342 223.777942 
L 190.316059 224.315679 
L 189.581145 224.762245 
L 188.124771 226.47129 
L 186.677816 227.229428 
L 185.262614 227.767989 
L 184.555417 228.462145 
L 183.83934 228.896153 
L 182.407723 229.432346 
L 181.670925 230.297652 
L 180.939374 230.950962 
L 179.492688 231.497202 
L 178.782261 231.892586 
L 178.076141 232.077922 
L 177.340957 232.535273 
L 176.608734 233.455674 
L 175.868723 233.931516 
L 173.707843 234.724721 
L 172.983962 235.458493 
L 172.260618 236.831942 
L 170.819852 237.401361 
L 170.08117 237.277936 
L 169.354329 237.338583 
L 168.620222 237.513086 
L 167.199773 239.735079 
L 166.459476 240.315861 
L 165.020056 240.015859 
L 164.282181 240.284378 
L 163.566104 240.733571 
L 162.104886 242.382548 
L 161.376699 242.822353 
L 160.642323 243.130737 
L 159.904179 243.135905 
L 159.17357 243.837717 
L 158.445644 244.767194 
L 156.99815 245.509303 
L 156.2888 245.768696 
L 155.580258 245.697571 
L 154.871715 245.815261 
L 154.133033 246.167574 
L 152.666164 247.286561 
L 151.225129 248.504002 
L 150.511743 248.567085 
L 149.799164 248.852308 
L 149.088737 249.313793 
L 148.382078 249.538669 
L 147.650393 250.195891 
L 146.920322 251.203459 
L 146.212587 251.575535 
L 144.045249 252.122152 
L 142.606905 253.149557 
L 141.166408 254.36806 
L 139.720074 254.759064 
L 139.00427 255.632305 
L 138.291422 256.033388 
L 135.39482 256.872746 
L 134.662059 257.420784 
L 133.927951 258.39505 
L 132.502524 259.514058 
L 131.786716 259.758407 
L 130.344335 260.502405 
L 129.623414 261.11128 
L 128.156679 261.907977 
L 125.978577 261.933844 
L 125.272456 262.398598 
L 123.090174 264.861874 
L 121.650754 264.98819 
L 120.931985 264.931819 
L 120.194111 265.433703 
L 119.469557 266.368297 
L 118.73841 266.975928 
L 118.026638 267.225285 
L 116.585872 267.036897 
L 115.872216 267.206021 
L 115.137571 267.595119 
L 112.954894 270.098953 
L 112.238816 270.184043 
L 110.070401 270.766744 
L 109.353113 271.152447 
L 108.646454 272.013507 
L 107.929031 272.661062 
L 105.767344 272.856759 
L 105.028161 273.128102 
L 103.563448 274.967451 
L 100.695639 276.062194 
L 99.248415 277.092895 
L 97.083229 277.672557 
L 96.357061 278.137277 
L 94.900014 279.302397 
L 94.183667 279.586921 
L 93.464899 279.640164 
L 90.587 281.397696 
L 89.864195 282.113923 
L 88.402708 282.95484 
L 87.694994 282.986513 
L 86.255035 282.851305 
L 85.548645 283.00377 
L 84.823149 283.603662 
L 84.109359 284.625088 
L 83.389649 285.25046 
L 81.937042 285.603835 
L 81.219888 285.635014 
L 80.514037 285.831662 
L 79.788137 286.497823 
L 79.065063 287.480806 
L 78.326112 288.199939 
L 77.596041 287.757934 
L 76.867047 287.654518 
L 75.435564 288.269057 
L 74.724062 289.122294 
L 73.998297 290.359181 
L 73.272532 290.393105 
L 71.805125 289.620218 
L 71.093891 289.000211 
L 70.374383 289.113516 
L 68.951983 289.728469 
L 68.820628 289.954686 
L 68.525818 291.06 
L 68.526397 291.059312 
" clip-path="url(#p583b952ff7)" style="fill: none; stroke: #ff0000; stroke-width: 2; stroke-linecap: square"/>
   </g>
   <g id="line2d_32">
    <path d="M 68.695995 281.696808 
L 68.696702 281.337526 
L 68.695995 281.784996 
L 68.697809 281.464472 
L 68.941878 281.531362 
L 69.648032 280.291699 
L 70.379919 276.874727 
L 71.121696 274.153756 
L 71.836159 276.239521 
L 72.590718 285.615909 
L 74.055972 282.945506 
L 74.776355 282.461837 
L 75.482207 281.711972 
L 76.206088 282.132612 
L 76.95069 281.723155 
L 77.661655 279.083093 
L 78.387151 277.659355 
L 79.104843 276.714592 
L 79.828724 275.573366 
L 80.53619 273.804534 
L 81.257111 272.357356 
L 82.729901 275.821263 
L 83.443018 276.32898 
L 84.155866 276.515538 
L 84.886475 277.035973 
L 85.616411 278.176976 
L 86.32307 274.046683 
L 87.048079 270.675767 
L 87.762408 269.94124 
L 88.47687 270.692739 
L 89.20425 270.90602 
L 89.945354 271.264889 
L 91.384236 271.515712 
L 92.843301 270.030677 
L 93.578888 268.939182 
L 95.737885 267.330939 
L 96.478989 266.059185 
L 97.934286 266.078435 
L 98.644174 265.881708 
L 99.362135 266.503336 
L 100.104316 266.682784 
L 100.842459 267.006841 
L 101.548311 266.061631 
L 102.274614 264.791218 
L 102.990692 263.301099 
L 104.444242 262.645508 
L 105.156333 262.611792 
L 105.894208 262.082542 
L 106.624413 262.081159 
L 107.345334 261.306261 
L 108.080249 261.133958 
L 108.792021 260.660794 
L 109.511327 260.458669 
L 110.226598 259.559502 
L 112.384517 257.962657 
L 113.121585 257.642809 
L 113.859459 257.467868 
L 114.596258 257.092691 
L 117.513849 255.094875 
L 118.230196 254.988737 
L 118.946542 255.000597 
L 119.652125 254.734582 
L 120.378428 254.319977 
L 121.096389 253.652363 
L 123.28481 252.262106 
L 123.994698 252.170671 
L 124.734456 251.878257 
L 126.189754 250.514699 
L 127.640746 249.620197 
L 128.356016 249.454891 
L 130.520125 248.423494 
L 131.995336 247.329009 
L 132.701995 247.259666 
L 134.178283 246.37261 
L 134.909699 245.92487 
L 135.639366 245.632129 
L 137.107849 244.746092 
L 139.293222 243.522015 
L 140.000839 242.790912 
L 143.596565 241.059961 
L 145.767267 238.970508 
L 149.336621 237.319173 
L 150.069383 236.624458 
L 150.809679 236.296469 
L 151.549976 236.286418 
L 153.011194 235.022711 
L 153.746108 234.710947 
L 155.169383 233.577488 
L 155.890842 233.313583 
L 156.610956 233.244086 
L 158.792506 231.944607 
L 159.517868 231.429201 
L 160.249553 230.75164 
L 160.955405 230.533843 
L 163.094757 229.494809 
L 164.565393 227.733575 
L 165.306228 227.276839 
L 166.020152 227.117912 
L 166.740535 227.205188 
L 167.455536 227.468996 
L 168.190182 227.031146 
L 170.369361 225.155645 
L 171.074943 225.052605 
L 171.814971 224.791612 
L 174.002222 222.792064 
L 174.734446 222.005209 
L 175.472733 221.805464 
L 179.137079 220.06905 
L 179.871186 219.468431 
L 180.605025 218.640339 
L 181.313029 218.129654 
L 182.762675 217.545652 
L 183.490324 217.349056 
L 184.205594 216.979041 
L 186.385446 214.732993 
L 187.123051 214.350517 
L 189.267516 213.665001 
L 189.973099 213.381965 
L 191.42732 212.143849 
L 192.864596 210.942832 
L 193.574484 210.481989 
L 194.285449 210.192855 
L 194.992646 210.051236 
L 196.452249 208.846869 
L 197.193084 208.726036 
L 197.908085 208.442085 
L 199.342392 207.235791 
L 200.051742 206.926352 
L 200.789079 206.127986 
L 201.525608 205.576232 
L 202.957763 205.119007 
L 204.386957 204.244844 
L 205.803773 203.044836 
L 207.220051 202.420344 
L 207.959271 201.759044 
L 208.697415 201.298843 
L 209.433675 201.119772 
L 210.169119 200.451934 
L 211.584355 199.573273 
L 212.291821 198.944102 
L 213.031579 197.978441 
L 213.738238 197.434872 
L 215.16528 196.635898 
L 215.879205 196.432193 
L 216.588285 196.365085 
L 217.322123 195.928464 
L 218.772039 194.461925 
L 220.240253 193.508151 
L 220.978935 193.204846 
L 221.684787 192.569626 
L 223.811222 191.09381 
L 227.36147 189.800195 
L 228.07378 189.020604 
L 229.494111 188.219171 
L 230.969591 186.657865 
L 231.675174 186.506928 
L 232.382102 185.776396 
L 233.806991 184.864041 
L 235.229996 184.022028 
L 235.93827 183.972913 
L 237.383072 183.388401 
L 239.573957 181.228543 
L 240.300126 180.477448 
L 241.006516 179.99971 
L 243.162821 179.424794 
L 243.869749 179.061009 
L 245.326661 177.625313 
L 246.767965 176.791347 
L 248.229452 176.311275 
L 248.941762 175.863116 
L 250.4015 174.194973 
L 252.569646 172.465366 
L 254.000455 171.880568 
L 256.923832 169.293253 
L 257.640448 169.021343 
L 258.361638 168.922693 
L 259.070719 168.43908 
L 259.802135 167.713019 
L 260.523191 167.361945 
L 261.971357 165.863416 
L 262.678555 165.526564 
L 263.391134 165.608584 
L 264.099273 165.196668 
L 264.834994 164.412271 
L 265.569102 164.054548 
L 266.304823 163.444039 
L 267.04512 162.524085 
L 268.466242 162.147288 
L 269.199272 161.561086 
L 270.654974 159.910712 
L 271.394463 158.780885 
L 272.11673 158.179819 
L 273.579831 158.225003 
L 274.291603 158.000588 
L 275.736002 156.672511 
L 276.457865 155.826677 
L 277.194394 155.161521 
L 277.912355 154.843331 
L 278.637044 154.827225 
L 279.352314 154.582562 
L 280.087767 154.150907 
L 282.26824 152.000213 
L 283.003693 151.589478 
L 283.741299 151.33035 
L 285.946042 149.836961 
L 288.897271 147.294683 
L 289.633262 146.442229 
L 291.814056 144.903552 
L 293.281194 144.419897 
L 294.010726 143.693277 
L 294.741604 143.257048 
L 295.478941 142.636481 
L 296.187483 141.847614 
L 296.903022 141.403953 
L 297.619907 141.320264 
L 299.784336 139.903007 
L 301.2286 138.364051 
L 303.396208 137.713242 
L 304.123588 137.234099 
L 304.84868 136.258492 
L 307.763446 133.787275 
L 308.504281 133.604531 
L 309.241079 132.678989 
L 312.822004 130.58758 
L 314.289411 128.931507 
L 316.430647 127.363439 
L 317.170254 127.186869 
L 320.801501 123.906558 
L 322.255991 123.160562 
L 324.466924 121.469482 
L 325.941328 119.893368 
L 326.647179 119.314583 
L 327.357606 119.075124 
L 329.492383 117.914523 
L 330.229989 117.165887 
L 330.963019 116.075398 
L 332.435539 115.237778 
L 333.170185 114.740587 
L 335.3644 112.901029 
L 336.071058 112.5442 
L 336.782292 112.318486 
L 337.495409 111.661767 
L 338.9168 110.812805 
L 341.833585 107.79978 
L 343.966478 106.405894 
L 344.674483 106.066764 
L 346.864695 104.124714 
L 348.289853 103.604097 
L 348.998126 103.171388 
L 349.705862 102.392243 
L 352.551502 100.304508 
L 353.257623 100.063456 
L 355.461559 97.980709 
L 356.202394 97.473334 
L 357.619479 96.687456 
L 359.033335 95.811869 
L 360.507201 94.452836 
L 362.692165 91.720019 
L 363.399093 91.25328 
L 364.825597 90.595444 
L 367.014194 88.265218 
L 367.725159 87.404717 
L 368.446618 87.021515 
L 369.177765 86.882131 
L 370.626638 86.286471 
L 372.069423 84.458325 
L 372.787384 83.585196 
L 374.243489 82.427599 
L 374.971675 82.331016 
L 375.69448 82.095985 
L 376.433162 81.389983 
L 377.15516 80.244957 
L 378.583547 78.840888 
L 380.032656 78.149889 
L 380.755461 77.864373 
L 381.464811 77.332539 
L 382.918897 75.665849 
L 383.651121 75.337908 
L 389.37974 70.13245 
L 390.094741 69.625983 
L 390.807589 68.688596 
L 391.51963 68.35409 
L 392.260196 67.78046 
L 394.453637 65.448725 
L 395.18909 64.446298 
L 396.61963 63.343068 
L 398.784546 62.25452 
L 400.225851 60.617669 
L 400.959016 59.868139 
L 401.697967 59.458437 
L 403.174255 58.096722 
L 404.6348 56.417292 
L 405.35895 55.334304 
L 406.094403 54.594999 
L 406.805636 54.218656 
L 407.520637 54.147595 
L 408.232409 53.753259 
L 408.93853 53.156216 
L 411.121611 50.248226 
L 413.978386 48.923976 
L 416.17694 46.470235 
L 416.887904 46.054233 
L 417.605058 45.371531 
L 418.317906 45.337544 
L 419.041922 45.121078 
L 419.770244 45.221558 
L 420.478383 45.123034 
L 421.252855 44.029946 
L 421.642177 42.593356 
L 421.593839 43.057286 
L 421.456766 39.46 
L 421.412196 53.1689 
L 421.41112 53.134131 
L 420.84806 53.609907 
L 419.413349 61.061176 
L 417.93733 58.702006 
L 417.205645 58.153073 
L 415.775105 57.425782 
L 415.055529 56.639709 
L 414.309043 55.610349 
L 413.586776 55.238601 
L 412.856168 58.311372 
L 412.12206 60.196875 
L 411.394412 62.410486 
L 410.682102 63.64402 
L 409.931848 64.026091 
L 409.195858 64.880334 
L 407.773928 63.213169 
L 407.053276 62.795658 
L 406.310558 62.010772 
L 405.601343 62.922177 
L 404.889033 64.485579 
L 404.159231 68.944092 
L 403.433197 70.572786 
L 402.698551 70.934657 
L 401.242447 69.968773 
L 400.527984 69.949411 
L 399.815136 70.381073 
L 399.079817 71.316113 
L 397.627749 73.720264 
L 396.895257 74.403859 
L 396.176084 75.397124 
L 395.455701 77.002349 
L 394.746351 77.956472 
L 393.308007 77.966418 
L 392.590853 77.533485 
L 391.85863 77.221777 
L 391.142822 77.415725 
L 388.971581 82.736793 
L 388.231823 83.079778 
L 387.515746 83.189436 
L 386.808548 83.127804 
L 386.099737 83.735183 
L 385.379623 85.433835 
L 384.664756 86.482193 
L 383.225336 86.377969 
L 382.508451 86.756534 
L 380.322141 89.651952 
L 378.893484 90.715314 
L 378.17364 90.822737 
L 376.025945 93.176361 
L 375.314712 93.608679 
L 374.607784 94.250814 
L 373.873138 94.643166 
L 372.417034 96.003484 
L 370.995912 96.930143 
L 370.275562 97.70071 
L 368.840178 98.740254 
L 368.106879 99.374343 
L 365.934024 101.786763 
L 364.463656 102.787683 
L 363.005533 103.544826 
L 362.280845 104.721589 
L 361.543777 105.483412 
L 359.417073 107.11631 
L 358.684042 107.2996 
L 356.500289 109.211253 
L 355.781251 109.336864 
L 353.601534 111.132098 
L 352.864803 111.935787 
L 349.243378 114.573991 
L 348.520304 115.550045 
L 347.790502 116.105543 
L 347.081691 116.383669 
L 345.658147 117.279261 
L 344.92552 118.043654 
L 344.204195 119.088101 
L 343.479237 119.807472 
L 342.748359 120.357326 
L 342.01506 120.698509 
L 341.287814 121.349361 
L 339.845165 122.840459 
L 339.120476 122.894505 
L 336.962556 124.237585 
L 336.244595 125.340703 
L 335.513044 125.981106 
L 334.796412 126.383795 
L 334.065534 126.560366 
L 333.338423 126.591391 
L 332.629073 127.461168 
L 331.893621 128.54322 
L 329.737315 130.45817 
L 329.001055 130.565383 
L 328.274348 131.533726 
L 327.54347 132.2038 
L 326.116159 132.992667 
L 324.687503 134.319962 
L 323.950974 134.80391 
L 321.761031 136.839023 
L 318.869004 138.646662 
L 317.39465 140.041847 
L 316.655161 140.47091 
L 315.195289 141.723554 
L 314.46468 142.043196 
L 313.759098 142.837651 
L 312.323444 143.434051 
L 310.881064 144.472491 
L 310.154895 145.198162 
L 309.417559 146.130073 
L 307.237842 147.023598 
L 306.530106 147.593093 
L 305.805148 148.546014 
L 305.080998 149.232068 
L 301.482581 151.428301 
L 300.035895 152.400919 
L 299.300694 153.360217 
L 297.85643 154.655104 
L 296.435847 155.856508 
L 295.721384 155.896684 
L 295.013379 156.395551 
L 294.307528 156.754503 
L 293.601138 156.904462 
L 292.8673 157.293461 
L 292.145437 157.939172 
L 291.423708 158.74402 
L 289.97164 159.843087 
L 289.246413 159.925896 
L 287.806723 161.070055 
L 286.386409 162.644828 
L 285.66791 163.189011 
L 284.230642 163.599237 
L 282.074202 165.706815 
L 280.648236 166.302719 
L 279.911169 166.773787 
L 278.438649 168.324254 
L 276.287995 169.461289 
L 275.553753 169.699687 
L 273.392335 171.62123 
L 271.945918 172.036429 
L 271.238182 172.451649 
L 268.359879 175.019266 
L 267.636805 175.629328 
L 266.190926 175.725841 
L 264.736033 177.271055 
L 264.010722 177.777005 
L 262.558384 179.260754 
L 261.836656 179.782978 
L 260.392929 180.247243 
L 259.652364 180.910304 
L 257.443046 182.538774 
L 256.019233 182.60253 
L 254.570663 183.441854 
L 253.841803 184.070858 
L 253.118864 185.267513 
L 251.681865 186.550218 
L 250.969824 186.980769 
L 249.519101 187.517856 
L 248.074837 188.902815 
L 246.636005 189.984986 
L 245.909433 190.332176 
L 245.179093 190.33622 
L 243.729985 190.970658 
L 241.581752 193.331525 
L 240.86702 193.241424 
L 239.423832 193.818435 
L 238.712868 194.302383 
L 237.247614 196.061158 
L 236.51539 196.625065 
L 235.040986 197.162257 
L 233.586765 198.086262 
L 232.14869 198.623467 
L 231.442839 198.97102 
L 229.999112 200.274623 
L 229.271329 201.053328 
L 228.561088 201.04642 
L 227.844472 201.301777 
L 227.131893 201.413712 
L 226.400342 201.749936 
L 224.958365 203.317053 
L 224.221298 203.951924 
L 222.798293 204.703368 
L 222.087597 204.813927 
L 220.619652 205.358445 
L 219.89281 205.564358 
L 219.172024 206.188312 
L 218.451641 207.252651 
L 217.711882 207.972008 
L 216.255778 208.734767 
L 215.528129 208.692608 
L 214.818779 209.093355 
L 213.370209 211.002438 
L 212.659783 211.648652 
L 211.931057 212.032536 
L 211.202534 212.078404 
L 210.489417 212.360549 
L 209.756386 213.180819 
L 207.565098 214.570927 
L 206.8579 214.535347 
L 206.124062 214.798722 
L 205.395875 215.743932 
L 204.65827 216.423274 
L 203.946229 216.551155 
L 203.236072 216.93743 
L 201.084341 218.400953 
L 200.370955 218.897916 
L 199.652994 219.258042 
L 198.945527 219.200279 
L 197.519562 220.798967 
L 196.809943 221.816146 
L 196.074625 222.068032 
L 195.355587 221.922599 
L 194.63332 222.050745 
L 193.179293 223.118597 
L 192.440342 223.777942 
L 190.316059 224.315679 
L 189.581145 224.762245 
L 188.124771 226.47129 
L 186.677816 227.229428 
L 185.262614 227.767989 
L 184.555417 228.462145 
L 183.83934 228.896153 
L 182.407723 229.432346 
L 181.670925 230.297652 
L 180.939374 230.950962 
L 179.492688 231.497202 
L 178.782261 231.892586 
L 178.076141 232.077922 
L 177.340957 232.535273 
L 176.608734 233.455674 
L 175.868723 233.931516 
L 173.707843 234.724721 
L 172.983962 235.458493 
L 172.260618 236.831942 
L 170.819852 237.401361 
L 170.08117 237.277936 
L 169.354329 237.338583 
L 168.620222 237.513086 
L 167.199773 239.735079 
L 166.459476 240.315861 
L 165.020056 240.015859 
L 164.282181 240.284378 
L 163.566104 240.733571 
L 162.104886 242.382548 
L 161.376699 242.822353 
L 160.642323 243.130737 
L 159.904179 243.135905 
L 159.17357 243.837717 
L 158.445644 244.767194 
L 156.99815 245.509303 
L 156.2888 245.768696 
L 155.580258 245.697571 
L 154.871715 245.815261 
L 154.133033 246.167574 
L 152.666164 247.286561 
L 151.225129 248.504002 
L 150.511743 248.567085 
L 149.799164 248.852308 
L 149.088737 249.313793 
L 148.382078 249.538669 
L 147.650393 250.195891 
L 146.920322 251.203459 
L 146.212587 251.575535 
L 144.045249 252.122152 
L 142.606905 253.149557 
L 141.166408 254.36806 
L 139.720074 254.759064 
L 139.00427 255.632305 
L 138.291422 256.033388 
L 135.39482 256.872746 
L 134.662059 257.420784 
L 133.927951 258.39505 
L 132.502524 259.514058 
L 131.786716 259.758407 
L 130.344335 260.502405 
L 129.623414 261.11128 
L 128.156679 261.907977 
L 125.978577 261.933844 
L 125.272456 262.398598 
L 123.090174 264.861874 
L 121.650754 264.98819 
L 120.931985 264.931819 
L 120.194111 265.433703 
L 119.469557 266.368297 
L 118.73841 266.975928 
L 118.026638 267.225285 
L 116.585872 267.036897 
L 115.872216 267.206021 
L 115.137571 267.595119 
L 112.954894 270.098953 
L 112.238816 270.184043 
L 110.070401 270.766744 
L 109.353113 271.152447 
L 108.646454 272.013507 
L 107.929031 272.661062 
L 105.767344 272.856759 
L 105.028161 273.128102 
L 103.563448 274.967451 
L 100.695639 276.062194 
L 99.248415 277.092895 
L 97.083229 277.672557 
L 96.357061 278.137277 
L 94.900014 279.302397 
L 94.183667 279.586921 
L 93.464899 279.640164 
L 90.587 281.397696 
L 89.864195 282.113923 
L 88.402708 282.95484 
L 87.694994 282.986513 
L 86.255035 282.851305 
L 85.548645 283.00377 
L 84.823149 283.603662 
L 84.109359 284.625088 
L 83.389649 285.25046 
L 81.937042 285.603835 
L 81.219888 285.635014 
L 80.514037 285.831662 
L 79.788137 286.497823 
L 79.065063 287.480806 
L 78.326112 288.199939 
L 77.596041 287.757934 
L 76.867047 287.654518 
L 75.435564 288.269057 
L 74.724062 289.122294 
L 73.998297 290.359181 
L 73.272532 290.393105 
L 71.805125 289.620218 
L 71.093891 289.000211 
L 70.374383 289.113516 
L 68.951983 289.728469 
L 68.724693 290.532898 
L 68.6959 290.727572 
L 68.525818 291.06 
L 68.526397 291.059312 
" clip-path="url(#p583b952ff7)" style="fill: none; stroke: #000000; stroke-width: 2; stroke-linecap: square"/>
   </g>
   <g id="patch_3">
    <path d="M 50.87 303.64 
L 50.87 26.88 
" style="fill: none; stroke: #000000; stroke-width: 0.8; stroke-linejoin: miter; stroke-linecap: square"/>
   </g>
   <g id="patch_4">
    <path d="M 439.297995 303.64 
L 439.297995 26.88 
" style="fill: none; stroke: #000000; stroke-width: 0.8; stroke-linejoin: miter; stroke-linecap: square"/>
   </g>
   <g id="patch_5">
    <path d="M 50.87 303.64 
L 439.297995 303.64 
" style="fill: none; stroke: #000000; stroke-width: 0.8; stroke-linejoin: miter; stroke-linecap: square"/>
   </g>
   <g id="patch_6">
    <path d="M 50.87 26.88 
L 439.297995 26.88 
" style="fill: none; stroke: #000000; stroke-width: 0.8; stroke-linejoin: miter; stroke-linecap: square"/>
   </g>
   <g id="text_18">
    <!-- 2025-06-18 Trial 3 - Stress vs Strain -->
    <g transform="translate(137.647435 20.88) scale(0.12 -0.12)">
     <defs>
      <path id="DejaVuSans-36" d="M 2113 2584 
Q 1688 2584 1439 2293 
Q 1191 2003 1191 1497 
Q 1191 994 1439 701 
Q 1688 409 2113 409 
Q 2538 409 2786 701 
Q 3034 994 3034 1497 
Q 3034 2003 2786 2293 
Q 2538 2584 2113 2584 
z
M 3366 4563 
L 3366 3988 
Q 3128 4100 2886 4159 
Q 2644 4219 2406 4219 
Q 1781 4219 1451 3797 
Q 1122 3375 1075 2522 
Q 1259 2794 1537 2939 
Q 1816 3084 2150 3084 
Q 2853 3084 3261 2657 
Q 3669 2231 3669 1497 
Q 3669 778 3244 343 
Q 2819 -91 2113 -91 
Q 1303 -91 875 529 
Q 447 1150 447 2328 
Q 447 3434 972 4092 
Q 1497 4750 2381 4750 
Q 2619 4750 2861 4703 
Q 3103 4656 3366 4563 
z
" transform="scale(0.015625)"/>
      <path id="DejaVuSans-38" d="M 2034 2216 
Q 1584 2216 1326 1975 
Q 1069 1734 1069 1313 
Q 1069 891 1326 650 
Q 1584 409 2034 409 
Q 2484 409 2743 651 
Q 3003 894 3003 1313 
Q 3003 1734 2745 1975 
Q 2488 2216 2034 2216 
z
M 1403 2484 
Q 997 2584 770 2862 
Q 544 3141 544 3541 
Q 544 4100 942 4425 
Q 1341 4750 2034 4750 
Q 2731 4750 3128 4425 
Q 3525 4100 3525 3541 
Q 3525 3141 3298 2862 
Q 3072 2584 2669 2484 
Q 3125 2378 3379 2068 
Q 3634 1759 3634 1313 
Q 3634 634 3220 271 
Q 2806 -91 2034 -91 
Q 1263 -91 848 271 
Q 434 634 434 1313 
Q 434 1759 690 2068 
Q 947 2378 1403 2484 
z
M 1172 3481 
Q 1172 3119 1398 2916 
Q 1625 2713 2034 2713 
Q 2441 2713 2670 2916 
Q 2900 3119 2900 3481 
Q 2900 3844 2670 4047 
Q 2441 4250 2034 4250 
Q 1625 4250 1398 4047 
Q 1172 3844 1172 3481 
z
" transform="scale(0.015625)"/>
      <path id="DejaVuSans-54" d="M -19 4666 
L 3928 4666 
L 3928 4134 
L 2272 4134 
L 2272 0 
L 1638 0 
L 1638 4134 
L -19 4134 
L -19 4666 
z
" transform="scale(0.015625)"/>
      <path id="DejaVuSans-6c" d="M 603 4863 
L 1178 4863 
L 1178 0 
L 603 0 
L 603 4863 
z
" transform="scale(0.015625)"/>
      <path id="DejaVuSans-76" d="M 191 3500 
L 800 3500 
L 1894 563 
L 2988 3500 
L 3597 3500 
L 2284 0 
L 1503 0 
L 191 3500 
z
" transform="scale(0.015625)"/>
     </defs>
     <use xlink:href="#DejaVuSans-32"/>
     <use xlink:href="#DejaVuSans-30" transform="translate(63.623047 0)"/>
     <use xlink:href="#DejaVuSans-32" transform="translate(127.246094 0)"/>
     <use xlink:href="#DejaVuSans-35" transform="translate(190.869141 0)"/>
     <use xlink:href="#DejaVuSans-2d" transform="translate(254.492188 0)"/>
     <use xlink:href="#DejaVuSans-30" transform="translate(290.576172 0)"/>
     <use xlink:href="#DejaVuSans-36" transform="translate(354.199219 0)"/>
     <use xlink:href="#DejaVuSans-2d" transform="translate(417.822266 0)"/>
     <use xlink:href="#DejaVuSans-31" transform="translate(453.90625 0)"/>
     <use xlink:href="#DejaVuSans-38" transform="translate(517.529297 0)"/>
     <use xlink:href="#DejaVuSans-20" transform="translate(581.152344 0)"/>
     <use xlink:href="#DejaVuSans-54" transform="translate(612.939453 0)"/>
     <use xlink:href="#DejaVuSans-72" transform="translate(659.273438 0)"/>
     <use xlink:href="#DejaVuSans-69" transform="translate(700.386719 0)"/>
     <use xlink:href="#DejaVuSans-61" transform="translate(728.169922 0)"/>
     <use xlink:href="#DejaVuSans-6c" transform="translate(789.449219 0)"/>
     <use xlink:href="#DejaVuSans-20" transform="translate(817.232422 0)"/>
     <use xlink:href="#DejaVuSans-33" transform="translate(849.019531 0)"/>
     <use xlink:href="#DejaVuSans-20" transform="translate(912.642578 0)"/>
     <use xlink:href="#DejaVuSans-2d" transform="translate(944.429688 0)"/>
     <use xlink:href="#DejaVuSans-20" transform="translate(980.513672 0)"/>
     <use xlink:href="#DejaVuSans-53" transform="translate(1012.300781 0)"/>
     <use xlink:href="#DejaVuSans-74" transform="translate(1075.777344 0)"/>
     <use xlink:href="#DejaVuSans-72" transform="translate(1114.986328 0)"/>
     <use xlink:href="#DejaVuSans-65" transform="translate(1153.849609 0)"/>
     <use xlink:href="#DejaVuSans-73" transform="translate(1215.373047 0)"/>
     <use xlink:href="#DejaVuSans-73" transform="translate(1267.472656 0)"/>
     <use xlink:href="#DejaVuSans-20" transform="translate(1319.572266 0)"/>
     <use xlink:href="#DejaVuSans-76" transform="translate(1351.359375 0)"/>
     <use xlink:href="#DejaVuSans-73" transform="translate(1410.539062 0)"/>
     <use xlink:href="#DejaVuSans-20" transform="translate(1462.638672 0)"/>
     <use xlink:href="#DejaVuSans-53" transform="translate(1494.425781 0)"/>
     <use xlink:href="#DejaVuSans-74" transform="translate(1557.902344 0)"/>
     <use xlink:href="#DejaVuSans-72" transform="translate(1597.111328 0)"/>
     <use xlink:href="#DejaVuSans-61" transform="translate(1638.224609 0)"/>
     <use xlink:href="#DejaVuSans-69" transform="translate(1699.503906 0)"/>
     <use xlink:href="#DejaVuSans-6e" transform="translate(1727.287109 0)"/>
    </g>
   </g>
   <g id="legend_1">
    <g id="patch_7">
     <path d="M 57.87 64.23625 
L 163.854375 64.23625 
Q 165.854375 64.23625 165.854375 62.23625 
L 165.854375 33.88 
Q 165.854375 31.88 163.854375 31.88 
L 57.87 31.88 
Q 55.87 31.88 55.87 33.88 
L 55.87 62.23625 
Q 55.87 64.23625 57.87 64.23625 
z
" style="fill: #ffffff; opacity: 0.8; stroke: #cccccc; stroke-linejoin: miter"/>
    </g>
    <g id="line2d_33">
     <path d="M 59.87 39.978437 
L 69.87 39.978437 
L 79.87 39.978437 
" style="fill: none; stroke: #ff0000; stroke-width: 2; stroke-linecap: square"/>
    </g>
    <g id="text_19">
     <!-- Raw Force -->
     <g transform="translate(87.87 43.478437) scale(0.1 -0.1)">
      <defs>
       <path id="DejaVuSans-52" d="M 2841 2188 
Q 3044 2119 3236 1894 
Q 3428 1669 3622 1275 
L 4263 0 
L 3584 0 
L 2988 1197 
Q 2756 1666 2539 1819 
Q 2322 1972 1947 1972 
L 1259 1972 
L 1259 0 
L 628 0 
L 628 4666 
L 2053 4666 
Q 2853 4666 3247 4331 
Q 3641 3997 3641 3322 
Q 3641 2881 3436 2590 
Q 3231 2300 2841 2188 
z
M 1259 4147 
L 1259 2491 
L 2053 2491 
Q 2509 2491 2742 2702 
Q 2975 2913 2975 3322 
Q 2975 3731 2742 3939 
Q 2509 4147 2053 4147 
L 1259 4147 
z
" transform="scale(0.015625)"/>
       <path id="DejaVuSans-77" d="M 269 3500 
L 844 3500 
L 1563 769 
L 2278 3500 
L 2956 3500 
L 3675 769 
L 4391 3500 
L 4966 3500 
L 4050 0 
L 3372 0 
L 2619 2869 
L 1863 0 
L 1184 0 
L 269 3500 
z
" transform="scale(0.015625)"/>
       <path id="DejaVuSans-46" d="M 628 4666 
L 3309 4666 
L 3309 4134 
L 1259 4134 
L 1259 2759 
L 3109 2759 
L 3109 2228 
L 1259 2228 
L 1259 0 
L 628 0 
L 628 4666 
z
" transform="scale(0.015625)"/>
       <path id="DejaVuSans-6f" d="M 1959 3097 
Q 1497 3097 1228 2736 
Q 959 2375 959 1747 
Q 959 1119 1226 758 
Q 1494 397 1959 397 
Q 2419 397 2687 759 
Q 2956 1122 2956 1747 
Q 2956 2369 2687 2733 
Q 2419 3097 1959 3097 
z
M 1959 3584 
Q 2709 3584 3137 3096 
Q 3566 2609 3566 1747 
Q 3566 888 3137 398 
Q 2709 -91 1959 -91 
Q 1206 -91 779 398 
Q 353 888 353 1747 
Q 353 2609 779 3096 
Q 1206 3584 1959 3584 
z
" transform="scale(0.015625)"/>
       <path id="DejaVuSans-63" d="M 3122 3366 
L 3122 2828 
Q 2878 2963 2633 3030 
Q 2388 3097 2138 3097 
Q 1578 3097 1268 2742 
Q 959 2388 959 1747 
Q 959 1106 1268 751 
Q 1578 397 2138 397 
Q 2388 397 2633 464 
Q 2878 531 3122 666 
L 3122 134 
Q 2881 22 2623 -34 
Q 2366 -91 2075 -91 
Q 1284 -91 818 406 
Q 353 903 353 1747 
Q 353 2603 823 3093 
Q 1294 3584 2113 3584 
Q 2378 3584 2631 3529 
Q 2884 3475 3122 3366 
z
" transform="scale(0.015625)"/>
      </defs>
      <use xlink:href="#DejaVuSans-52"/>
      <use xlink:href="#DejaVuSans-61" transform="translate(67.232422 0)"/>
      <use xlink:href="#DejaVuSans-77" transform="translate(128.511719 0)"/>
      <use xlink:href="#DejaVuSans-20" transform="translate(210.298828 0)"/>
      <use xlink:href="#DejaVuSans-46" transform="translate(242.085938 0)"/>
      <use xlink:href="#DejaVuSans-6f" transform="translate(295.980469 0)"/>
      <use xlink:href="#DejaVuSans-72" transform="translate(357.162109 0)"/>
      <use xlink:href="#DejaVuSans-63" transform="translate(396.025391 0)"/>
      <use xlink:href="#DejaVuSans-65" transform="translate(451.005859 0)"/>
     </g>
    </g>
    <g id="line2d_34">
     <path d="M 59.87 54.656563 
L 69.87 54.656563 
L 79.87 54.656563 
" style="fill: none; stroke: #000000; stroke-width: 2; stroke-linecap: square"/>
    </g>
    <g id="text_20">
     <!-- Adjusted Force -->
     <g transform="translate(87.87 58.156563) scale(0.1 -0.1)">
      <defs>
       <path id="DejaVuSans-41" d="M 2188 4044 
L 1331 1722 
L 3047 1722 
L 2188 4044 
z
M 1831 4666 
L 2547 4666 
L 4325 0 
L 3669 0 
L 3244 1197 
L 1141 1197 
L 716 0 
L 50 0 
L 1831 4666 
z
" transform="scale(0.015625)"/>
       <path id="DejaVuSans-64" d="M 2906 2969 
L 2906 4863 
L 3481 4863 
L 3481 0 
L 2906 0 
L 2906 525 
Q 2725 213 2448 61 
Q 2172 -91 1784 -91 
Q 1150 -91 751 415 
Q 353 922 353 1747 
Q 353 2572 751 3078 
Q 1150 3584 1784 3584 
Q 2172 3584 2448 3432 
Q 2725 3281 2906 2969 
z
M 947 1747 
Q 947 1113 1208 752 
Q 1469 391 1925 391 
Q 2381 391 2643 752 
Q 2906 1113 2906 1747 
Q 2906 2381 2643 2742 
Q 2381 3103 1925 3103 
Q 1469 3103 1208 2742 
Q 947 2381 947 1747 
z
" transform="scale(0.015625)"/>
       <path id="DejaVuSans-6a" d="M 603 3500 
L 1178 3500 
L 1178 -63 
Q 1178 -731 923 -1031 
Q 669 -1331 103 -1331 
L -116 -1331 
L -116 -844 
L 38 -844 
Q 366 -844 484 -692 
Q 603 -541 603 -63 
L 603 3500 
z
M 603 4863 
L 1178 4863 
L 1178 4134 
L 603 4134 
L 603 4863 
z
" transform="scale(0.015625)"/>
       <path id="DejaVuSans-75" d="M 544 1381 
L 544 3500 
L 1119 3500 
L 1119 1403 
Q 1119 906 1312 657 
Q 1506 409 1894 409 
Q 2359 409 2629 706 
Q 2900 1003 2900 1516 
L 2900 3500 
L 3475 3500 
L 3475 0 
L 2900 0 
L 2900 538 
Q 2691 219 2414 64 
Q 2138 -91 1772 -91 
Q 1169 -91 856 284 
Q 544 659 544 1381 
z
M 1991 3584 
L 1991 3584 
z
" transform="scale(0.015625)"/>
      </defs>
      <use xlink:href="#DejaVuSans-41"/>
      <use xlink:href="#DejaVuSans-64" transform="translate(66.658203 0)"/>
      <use xlink:href="#DejaVuSans-6a" transform="translate(130.134766 0)"/>
      <use xlink:href="#DejaVuSans-75" transform="translate(157.917969 0)"/>
      <use xlink:href="#DejaVuSans-73" transform="translate(221.296875 0)"/>
      <use xlink:href="#DejaVuSans-74" transform="translate(273.396484 0)"/>
      <use xlink:href="#DejaVuSans-65" transform="translate(312.605469 0)"/>
      <use xlink:href="#DejaVuSans-64" transform="translate(374.128906 0)"/>
      <use xlink:href="#DejaVuSans-20" transform="translate(437.605469 0)"/>
      <use xlink:href="#DejaVuSans-46" transform="translate(469.392578 0)"/>
      <use xlink:href="#DejaVuSans-6f" transform="translate(523.287109 0)"/>
      <use xlink:href="#DejaVuSans-72" transform="translate(584.46875 0)"/>
      <use xlink:href="#DejaVuSans-63" transform="translate(623.332031 0)"/>
      <use xlink:href="#DejaVuSans-65" transform="translate(678.3125 0)"/>
     </g>
    </g>
   </g>
  </g>
 </g>
 <defs>
  <clipPath id="p583b952ff7">
   <rect x="50.87" y="26.88" width="388.427995" height="276.76"/>
  </clipPath>
 </defs>
</svg>
