<?xml version="1.0" encoding="utf-8" standalone="no"?>
<!DOCTYPE svg PUBLIC "-//W3C//DTD SVG 1.1//EN"
  "http://www.w3.org/Graphics/SVG/1.1/DTD/svg11.dtd">
<svg xmlns:xlink="http://www.w3.org/1999/xlink" width="460.8pt" height="345.6pt" viewBox="0 0 460.8 345.6" xmlns="http://www.w3.org/2000/svg" version="1.1">
 <metadata>
  <rdf:RDF xmlns:dc="http://purl.org/dc/elements/1.1/" xmlns:cc="http://creativecommons.org/ns#" xmlns:rdf="http://www.w3.org/1999/02/22-rdf-syntax-ns#">
   <cc:Work>
    <dc:type rdf:resource="http://purl.org/dc/dcmitype/StillImage"/>
    <dc:date>2025-07-28T21:14:17.805570</dc:date>
    <dc:format>image/svg+xml</dc:format>
    <dc:creator>
     <cc:Agent>
      <dc:title>Matplotlib v3.10.3, https://matplotlib.org/</dc:title>
     </cc:Agent>
    </dc:creator>
   </cc:Work>
  </rdf:RDF>
 </metadata>
 <defs>
  <style type="text/css">*{stroke-linejoin: round; stroke-linecap: butt}</style>
 </defs>
 <g id="figure_1">
  <g id="patch_1">
   <path d="M 0 345.6 
L 460.8 345.6 
L 460.8 0 
L 0 0 
z
" style="fill: #ffffff"/>
  </g>
  <g id="axes_1">
   <g id="patch_2">
    <path d="M 57.17 303.64 
L 442.309433 303.64 
L 442.309433 26.88 
L 57.17 26.88 
z
" style="fill: #ffffff"/>
   </g>
   <g id="matplotlib.axis_1">
    <g id="xtick_1">
     <g id="line2d_1">
      <path d="M 74.752446 303.64 
L 74.752446 26.88 
" clip-path="url(#p376fd2a2ac)" style="fill: none; stroke: #b0b0b0; stroke-opacity: 0.3; stroke-width: 0.8; stroke-linecap: square"/>
     </g>
     <g id="line2d_2">
      <defs>
       <path id="mc3354ec867" d="M 0 0 
L 0 3.5 
" style="stroke: #000000; stroke-width: 0.8"/>
      </defs>
      <g>
       <use xlink:href="#mc3354ec867" x="74.752446" y="303.64" style="stroke: #000000; stroke-width: 0.8"/>
      </g>
     </g>
     <g id="text_1">
      <!-- 0.00 -->
      <g transform="translate(63.619634 318.238437) scale(0.1 -0.1)">
       <defs>
        <path id="DejaVuSans-30" d="M 2034 4250 
Q 1547 4250 1301 3770 
Q 1056 3291 1056 2328 
Q 1056 1369 1301 889 
Q 1547 409 2034 409 
Q 2525 409 2770 889 
Q 3016 1369 3016 2328 
Q 3016 3291 2770 3770 
Q 2525 4250 2034 4250 
z
M 2034 4750 
Q 2819 4750 3233 4129 
Q 3647 3509 3647 2328 
Q 3647 1150 3233 529 
Q 2819 -91 2034 -91 
Q 1250 -91 836 529 
Q 422 1150 422 2328 
Q 422 3509 836 4129 
Q 1250 4750 2034 4750 
z
" transform="scale(0.015625)"/>
        <path id="DejaVuSans-2e" d="M 684 794 
L 1344 794 
L 1344 0 
L 684 0 
L 684 794 
z
" transform="scale(0.015625)"/>
       </defs>
       <use xlink:href="#DejaVuSans-30"/>
       <use xlink:href="#DejaVuSans-2e" transform="translate(63.623047 0)"/>
       <use xlink:href="#DejaVuSans-30" transform="translate(95.410156 0)"/>
       <use xlink:href="#DejaVuSans-30" transform="translate(159.033203 0)"/>
      </g>
     </g>
    </g>
    <g id="xtick_2">
     <g id="line2d_3">
      <path d="M 120.247563 303.64 
L 120.247563 26.88 
" clip-path="url(#p376fd2a2ac)" style="fill: none; stroke: #b0b0b0; stroke-opacity: 0.3; stroke-width: 0.8; stroke-linecap: square"/>
     </g>
     <g id="line2d_4">
      <g>
       <use xlink:href="#mc3354ec867" x="120.247563" y="303.64" style="stroke: #000000; stroke-width: 0.8"/>
      </g>
     </g>
     <g id="text_2">
      <!-- 0.05 -->
      <g transform="translate(109.114751 318.238437) scale(0.1 -0.1)">
       <defs>
        <path id="DejaVuSans-35" d="M 691 4666 
L 3169 4666 
L 3169 4134 
L 1269 4134 
L 1269 2991 
Q 1406 3038 1543 3061 
Q 1681 3084 1819 3084 
Q 2600 3084 3056 2656 
Q 3513 2228 3513 1497 
Q 3513 744 3044 326 
Q 2575 -91 1722 -91 
Q 1428 -91 1123 -41 
Q 819 9 494 109 
L 494 744 
Q 775 591 1075 516 
Q 1375 441 1709 441 
Q 2250 441 2565 725 
Q 2881 1009 2881 1497 
Q 2881 1984 2565 2268 
Q 2250 2553 1709 2553 
Q 1456 2553 1204 2497 
Q 953 2441 691 2322 
L 691 4666 
z
" transform="scale(0.015625)"/>
       </defs>
       <use xlink:href="#DejaVuSans-30"/>
       <use xlink:href="#DejaVuSans-2e" transform="translate(63.623047 0)"/>
       <use xlink:href="#DejaVuSans-30" transform="translate(95.410156 0)"/>
       <use xlink:href="#DejaVuSans-35" transform="translate(159.033203 0)"/>
      </g>
     </g>
    </g>
    <g id="xtick_3">
     <g id="line2d_5">
      <path d="M 165.74268 303.64 
L 165.74268 26.88 
" clip-path="url(#p376fd2a2ac)" style="fill: none; stroke: #b0b0b0; stroke-opacity: 0.3; stroke-width: 0.8; stroke-linecap: square"/>
     </g>
     <g id="line2d_6">
      <g>
       <use xlink:href="#mc3354ec867" x="165.74268" y="303.64" style="stroke: #000000; stroke-width: 0.8"/>
      </g>
     </g>
     <g id="text_3">
      <!-- 0.10 -->
      <g transform="translate(154.609868 318.238437) scale(0.1 -0.1)">
       <defs>
        <path id="DejaVuSans-31" d="M 794 531 
L 1825 531 
L 1825 4091 
L 703 3866 
L 703 4441 
L 1819 4666 
L 2450 4666 
L 2450 531 
L 3481 531 
L 3481 0 
L 794 0 
L 794 531 
z
" transform="scale(0.015625)"/>
       </defs>
       <use xlink:href="#DejaVuSans-30"/>
       <use xlink:href="#DejaVuSans-2e" transform="translate(63.623047 0)"/>
       <use xlink:href="#DejaVuSans-31" transform="translate(95.410156 0)"/>
       <use xlink:href="#DejaVuSans-30" transform="translate(159.033203 0)"/>
      </g>
     </g>
    </g>
    <g id="xtick_4">
     <g id="line2d_7">
      <path d="M 211.237797 303.64 
L 211.237797 26.88 
" clip-path="url(#p376fd2a2ac)" style="fill: none; stroke: #b0b0b0; stroke-opacity: 0.3; stroke-width: 0.8; stroke-linecap: square"/>
     </g>
     <g id="line2d_8">
      <g>
       <use xlink:href="#mc3354ec867" x="211.237797" y="303.64" style="stroke: #000000; stroke-width: 0.8"/>
      </g>
     </g>
     <g id="text_4">
      <!-- 0.15 -->
      <g transform="translate(200.104985 318.238437) scale(0.1 -0.1)">
       <use xlink:href="#DejaVuSans-30"/>
       <use xlink:href="#DejaVuSans-2e" transform="translate(63.623047 0)"/>
       <use xlink:href="#DejaVuSans-31" transform="translate(95.410156 0)"/>
       <use xlink:href="#DejaVuSans-35" transform="translate(159.033203 0)"/>
      </g>
     </g>
    </g>
    <g id="xtick_5">
     <g id="line2d_9">
      <path d="M 256.732914 303.64 
L 256.732914 26.88 
" clip-path="url(#p376fd2a2ac)" style="fill: none; stroke: #b0b0b0; stroke-opacity: 0.3; stroke-width: 0.8; stroke-linecap: square"/>
     </g>
     <g id="line2d_10">
      <g>
       <use xlink:href="#mc3354ec867" x="256.732914" y="303.64" style="stroke: #000000; stroke-width: 0.8"/>
      </g>
     </g>
     <g id="text_5">
      <!-- 0.20 -->
      <g transform="translate(245.600102 318.238437) scale(0.1 -0.1)">
       <defs>
        <path id="DejaVuSans-32" d="M 1228 531 
L 3431 531 
L 3431 0 
L 469 0 
L 469 531 
Q 828 903 1448 1529 
Q 2069 2156 2228 2338 
Q 2531 2678 2651 2914 
Q 2772 3150 2772 3378 
Q 2772 3750 2511 3984 
Q 2250 4219 1831 4219 
Q 1534 4219 1204 4116 
Q 875 4013 500 3803 
L 500 4441 
Q 881 4594 1212 4672 
Q 1544 4750 1819 4750 
Q 2544 4750 2975 4387 
Q 3406 4025 3406 3419 
Q 3406 3131 3298 2873 
Q 3191 2616 2906 2266 
Q 2828 2175 2409 1742 
Q 1991 1309 1228 531 
z
" transform="scale(0.015625)"/>
       </defs>
       <use xlink:href="#DejaVuSans-30"/>
       <use xlink:href="#DejaVuSans-2e" transform="translate(63.623047 0)"/>
       <use xlink:href="#DejaVuSans-32" transform="translate(95.410156 0)"/>
       <use xlink:href="#DejaVuSans-30" transform="translate(159.033203 0)"/>
      </g>
     </g>
    </g>
    <g id="xtick_6">
     <g id="line2d_11">
      <path d="M 302.228031 303.64 
L 302.228031 26.88 
" clip-path="url(#p376fd2a2ac)" style="fill: none; stroke: #b0b0b0; stroke-opacity: 0.3; stroke-width: 0.8; stroke-linecap: square"/>
     </g>
     <g id="line2d_12">
      <g>
       <use xlink:href="#mc3354ec867" x="302.228031" y="303.64" style="stroke: #000000; stroke-width: 0.8"/>
      </g>
     </g>
     <g id="text_6">
      <!-- 0.25 -->
      <g transform="translate(291.095219 318.238437) scale(0.1 -0.1)">
       <use xlink:href="#DejaVuSans-30"/>
       <use xlink:href="#DejaVuSans-2e" transform="translate(63.623047 0)"/>
       <use xlink:href="#DejaVuSans-32" transform="translate(95.410156 0)"/>
       <use xlink:href="#DejaVuSans-35" transform="translate(159.033203 0)"/>
      </g>
     </g>
    </g>
    <g id="xtick_7">
     <g id="line2d_13">
      <path d="M 347.723148 303.64 
L 347.723148 26.88 
" clip-path="url(#p376fd2a2ac)" style="fill: none; stroke: #b0b0b0; stroke-opacity: 0.3; stroke-width: 0.8; stroke-linecap: square"/>
     </g>
     <g id="line2d_14">
      <g>
       <use xlink:href="#mc3354ec867" x="347.723148" y="303.64" style="stroke: #000000; stroke-width: 0.8"/>
      </g>
     </g>
     <g id="text_7">
      <!-- 0.30 -->
      <g transform="translate(336.590336 318.238437) scale(0.1 -0.1)">
       <defs>
        <path id="DejaVuSans-33" d="M 2597 2516 
Q 3050 2419 3304 2112 
Q 3559 1806 3559 1356 
Q 3559 666 3084 287 
Q 2609 -91 1734 -91 
Q 1441 -91 1130 -33 
Q 819 25 488 141 
L 488 750 
Q 750 597 1062 519 
Q 1375 441 1716 441 
Q 2309 441 2620 675 
Q 2931 909 2931 1356 
Q 2931 1769 2642 2001 
Q 2353 2234 1838 2234 
L 1294 2234 
L 1294 2753 
L 1863 2753 
Q 2328 2753 2575 2939 
Q 2822 3125 2822 3475 
Q 2822 3834 2567 4026 
Q 2313 4219 1838 4219 
Q 1578 4219 1281 4162 
Q 984 4106 628 3988 
L 628 4550 
Q 988 4650 1302 4700 
Q 1616 4750 1894 4750 
Q 2613 4750 3031 4423 
Q 3450 4097 3450 3541 
Q 3450 3153 3228 2886 
Q 3006 2619 2597 2516 
z
" transform="scale(0.015625)"/>
       </defs>
       <use xlink:href="#DejaVuSans-30"/>
       <use xlink:href="#DejaVuSans-2e" transform="translate(63.623047 0)"/>
       <use xlink:href="#DejaVuSans-33" transform="translate(95.410156 0)"/>
       <use xlink:href="#DejaVuSans-30" transform="translate(159.033203 0)"/>
      </g>
     </g>
    </g>
    <g id="xtick_8">
     <g id="line2d_15">
      <path d="M 393.218265 303.64 
L 393.218265 26.88 
" clip-path="url(#p376fd2a2ac)" style="fill: none; stroke: #b0b0b0; stroke-opacity: 0.3; stroke-width: 0.8; stroke-linecap: square"/>
     </g>
     <g id="line2d_16">
      <g>
       <use xlink:href="#mc3354ec867" x="393.218265" y="303.64" style="stroke: #000000; stroke-width: 0.8"/>
      </g>
     </g>
     <g id="text_8">
      <!-- 0.35 -->
      <g transform="translate(382.085453 318.238437) scale(0.1 -0.1)">
       <use xlink:href="#DejaVuSans-30"/>
       <use xlink:href="#DejaVuSans-2e" transform="translate(63.623047 0)"/>
       <use xlink:href="#DejaVuSans-33" transform="translate(95.410156 0)"/>
       <use xlink:href="#DejaVuSans-35" transform="translate(159.033203 0)"/>
      </g>
     </g>
    </g>
    <g id="xtick_9">
     <g id="line2d_17">
      <path d="M 438.713382 303.64 
L 438.713382 26.88 
" clip-path="url(#p376fd2a2ac)" style="fill: none; stroke: #b0b0b0; stroke-opacity: 0.3; stroke-width: 0.8; stroke-linecap: square"/>
     </g>
     <g id="line2d_18">
      <g>
       <use xlink:href="#mc3354ec867" x="438.713382" y="303.64" style="stroke: #000000; stroke-width: 0.8"/>
      </g>
     </g>
     <g id="text_9">
      <!-- 0.40 -->
      <g transform="translate(427.58057 318.238437) scale(0.1 -0.1)">
       <defs>
        <path id="DejaVuSans-34" d="M 2419 4116 
L 825 1625 
L 2419 1625 
L 2419 4116 
z
M 2253 4666 
L 3047 4666 
L 3047 1625 
L 3713 1625 
L 3713 1100 
L 3047 1100 
L 3047 0 
L 2419 0 
L 2419 1100 
L 313 1100 
L 313 1709 
L 2253 4666 
z
" transform="scale(0.015625)"/>
       </defs>
       <use xlink:href="#DejaVuSans-30"/>
       <use xlink:href="#DejaVuSans-2e" transform="translate(63.623047 0)"/>
       <use xlink:href="#DejaVuSans-34" transform="translate(95.410156 0)"/>
       <use xlink:href="#DejaVuSans-30" transform="translate(159.033203 0)"/>
      </g>
     </g>
    </g>
    <g id="text_10">
     <!-- Strain [-] -->
     <g transform="translate(227.633466 331.916562) scale(0.1 -0.1)">
      <defs>
       <path id="DejaVuSans-53" d="M 3425 4513 
L 3425 3897 
Q 3066 4069 2747 4153 
Q 2428 4238 2131 4238 
Q 1616 4238 1336 4038 
Q 1056 3838 1056 3469 
Q 1056 3159 1242 3001 
Q 1428 2844 1947 2747 
L 2328 2669 
Q 3034 2534 3370 2195 
Q 3706 1856 3706 1288 
Q 3706 609 3251 259 
Q 2797 -91 1919 -91 
Q 1588 -91 1214 -16 
Q 841 59 441 206 
L 441 856 
Q 825 641 1194 531 
Q 1563 422 1919 422 
Q 2459 422 2753 634 
Q 3047 847 3047 1241 
Q 3047 1584 2836 1778 
Q 2625 1972 2144 2069 
L 1759 2144 
Q 1053 2284 737 2584 
Q 422 2884 422 3419 
Q 422 4038 858 4394 
Q 1294 4750 2059 4750 
Q 2388 4750 2728 4690 
Q 3069 4631 3425 4513 
z
" transform="scale(0.015625)"/>
       <path id="DejaVuSans-74" d="M 1172 4494 
L 1172 3500 
L 2356 3500 
L 2356 3053 
L 1172 3053 
L 1172 1153 
Q 1172 725 1289 603 
Q 1406 481 1766 481 
L 2356 481 
L 2356 0 
L 1766 0 
Q 1100 0 847 248 
Q 594 497 594 1153 
L 594 3053 
L 172 3053 
L 172 3500 
L 594 3500 
L 594 4494 
L 1172 4494 
z
" transform="scale(0.015625)"/>
       <path id="DejaVuSans-72" d="M 2631 2963 
Q 2534 3019 2420 3045 
Q 2306 3072 2169 3072 
Q 1681 3072 1420 2755 
Q 1159 2438 1159 1844 
L 1159 0 
L 581 0 
L 581 3500 
L 1159 3500 
L 1159 2956 
Q 1341 3275 1631 3429 
Q 1922 3584 2338 3584 
Q 2397 3584 2469 3576 
Q 2541 3569 2628 3553 
L 2631 2963 
z
" transform="scale(0.015625)"/>
       <path id="DejaVuSans-61" d="M 2194 1759 
Q 1497 1759 1228 1600 
Q 959 1441 959 1056 
Q 959 750 1161 570 
Q 1363 391 1709 391 
Q 2188 391 2477 730 
Q 2766 1069 2766 1631 
L 2766 1759 
L 2194 1759 
z
M 3341 1997 
L 3341 0 
L 2766 0 
L 2766 531 
Q 2569 213 2275 61 
Q 1981 -91 1556 -91 
Q 1019 -91 701 211 
Q 384 513 384 1019 
Q 384 1609 779 1909 
Q 1175 2209 1959 2209 
L 2766 2209 
L 2766 2266 
Q 2766 2663 2505 2880 
Q 2244 3097 1772 3097 
Q 1472 3097 1187 3025 
Q 903 2953 641 2809 
L 641 3341 
Q 956 3463 1253 3523 
Q 1550 3584 1831 3584 
Q 2591 3584 2966 3190 
Q 3341 2797 3341 1997 
z
" transform="scale(0.015625)"/>
       <path id="DejaVuSans-69" d="M 603 3500 
L 1178 3500 
L 1178 0 
L 603 0 
L 603 3500 
z
M 603 4863 
L 1178 4863 
L 1178 4134 
L 603 4134 
L 603 4863 
z
" transform="scale(0.015625)"/>
       <path id="DejaVuSans-6e" d="M 3513 2113 
L 3513 0 
L 2938 0 
L 2938 2094 
Q 2938 2591 2744 2837 
Q 2550 3084 2163 3084 
Q 1697 3084 1428 2787 
Q 1159 2491 1159 1978 
L 1159 0 
L 581 0 
L 581 3500 
L 1159 3500 
L 1159 2956 
Q 1366 3272 1645 3428 
Q 1925 3584 2291 3584 
Q 2894 3584 3203 3211 
Q 3513 2838 3513 2113 
z
" transform="scale(0.015625)"/>
       <path id="DejaVuSans-20" transform="scale(0.015625)"/>
       <path id="DejaVuSans-5b" d="M 550 4863 
L 1875 4863 
L 1875 4416 
L 1125 4416 
L 1125 -397 
L 1875 -397 
L 1875 -844 
L 550 -844 
L 550 4863 
z
" transform="scale(0.015625)"/>
       <path id="DejaVuSans-2d" d="M 313 2009 
L 1997 2009 
L 1997 1497 
L 313 1497 
L 313 2009 
z
" transform="scale(0.015625)"/>
       <path id="DejaVuSans-5d" d="M 1947 4863 
L 1947 -844 
L 622 -844 
L 622 -397 
L 1369 -397 
L 1369 4416 
L 622 4416 
L 622 4863 
L 1947 4863 
z
" transform="scale(0.015625)"/>
      </defs>
      <use xlink:href="#DejaVuSans-53"/>
      <use xlink:href="#DejaVuSans-74" transform="translate(63.476562 0)"/>
      <use xlink:href="#DejaVuSans-72" transform="translate(102.685547 0)"/>
      <use xlink:href="#DejaVuSans-61" transform="translate(143.798828 0)"/>
      <use xlink:href="#DejaVuSans-69" transform="translate(205.078125 0)"/>
      <use xlink:href="#DejaVuSans-6e" transform="translate(232.861328 0)"/>
      <use xlink:href="#DejaVuSans-20" transform="translate(296.240234 0)"/>
      <use xlink:href="#DejaVuSans-5b" transform="translate(328.027344 0)"/>
      <use xlink:href="#DejaVuSans-2d" transform="translate(367.041016 0)"/>
      <use xlink:href="#DejaVuSans-5d" transform="translate(403.125 0)"/>
     </g>
    </g>
   </g>
   <g id="matplotlib.axis_2">
    <g id="ytick_1">
     <g id="line2d_19">
      <path d="M 57.17 279.74661 
L 442.309433 279.74661 
" clip-path="url(#p376fd2a2ac)" style="fill: none; stroke: #b0b0b0; stroke-opacity: 0.3; stroke-width: 0.8; stroke-linecap: square"/>
     </g>
     <g id="line2d_20">
      <defs>
       <path id="m7bf837a989" d="M 0 0 
L -3.5 0 
" style="stroke: #000000; stroke-width: 0.8"/>
      </defs>
      <g>
       <use xlink:href="#m7bf837a989" x="57.17" y="279.74661" style="stroke: #000000; stroke-width: 0.8"/>
      </g>
     </g>
     <g id="text_11">
      <!-- 0 -->
      <g transform="translate(43.8075 283.545829) scale(0.1 -0.1)">
       <use xlink:href="#DejaVuSans-30"/>
      </g>
     </g>
    </g>
    <g id="ytick_2">
     <g id="line2d_21">
      <path d="M 57.17 245.225614 
L 442.309433 245.225614 
" clip-path="url(#p376fd2a2ac)" style="fill: none; stroke: #b0b0b0; stroke-opacity: 0.3; stroke-width: 0.8; stroke-linecap: square"/>
     </g>
     <g id="line2d_22">
      <g>
       <use xlink:href="#m7bf837a989" x="57.17" y="245.225614" style="stroke: #000000; stroke-width: 0.8"/>
      </g>
     </g>
     <g id="text_12">
      <!-- 250 -->
      <g transform="translate(31.0825 249.024833) scale(0.1 -0.1)">
       <use xlink:href="#DejaVuSans-32"/>
       <use xlink:href="#DejaVuSans-35" transform="translate(63.623047 0)"/>
       <use xlink:href="#DejaVuSans-30" transform="translate(127.246094 0)"/>
      </g>
     </g>
    </g>
    <g id="ytick_3">
     <g id="line2d_23">
      <path d="M 57.17 210.704618 
L 442.309433 210.704618 
" clip-path="url(#p376fd2a2ac)" style="fill: none; stroke: #b0b0b0; stroke-opacity: 0.3; stroke-width: 0.8; stroke-linecap: square"/>
     </g>
     <g id="line2d_24">
      <g>
       <use xlink:href="#m7bf837a989" x="57.17" y="210.704618" style="stroke: #000000; stroke-width: 0.8"/>
      </g>
     </g>
     <g id="text_13">
      <!-- 500 -->
      <g transform="translate(31.0825 214.503837) scale(0.1 -0.1)">
       <use xlink:href="#DejaVuSans-35"/>
       <use xlink:href="#DejaVuSans-30" transform="translate(63.623047 0)"/>
       <use xlink:href="#DejaVuSans-30" transform="translate(127.246094 0)"/>
      </g>
     </g>
    </g>
    <g id="ytick_4">
     <g id="line2d_25">
      <path d="M 57.17 176.183622 
L 442.309433 176.183622 
" clip-path="url(#p376fd2a2ac)" style="fill: none; stroke: #b0b0b0; stroke-opacity: 0.3; stroke-width: 0.8; stroke-linecap: square"/>
     </g>
     <g id="line2d_26">
      <g>
       <use xlink:href="#m7bf837a989" x="57.17" y="176.183622" style="stroke: #000000; stroke-width: 0.8"/>
      </g>
     </g>
     <g id="text_14">
      <!-- 750 -->
      <g transform="translate(31.0825 179.982841) scale(0.1 -0.1)">
       <defs>
        <path id="DejaVuSans-37" d="M 525 4666 
L 3525 4666 
L 3525 4397 
L 1831 0 
L 1172 0 
L 2766 4134 
L 525 4134 
L 525 4666 
z
" transform="scale(0.015625)"/>
       </defs>
       <use xlink:href="#DejaVuSans-37"/>
       <use xlink:href="#DejaVuSans-35" transform="translate(63.623047 0)"/>
       <use xlink:href="#DejaVuSans-30" transform="translate(127.246094 0)"/>
      </g>
     </g>
    </g>
    <g id="ytick_5">
     <g id="line2d_27">
      <path d="M 57.17 141.662626 
L 442.309433 141.662626 
" clip-path="url(#p376fd2a2ac)" style="fill: none; stroke: #b0b0b0; stroke-opacity: 0.3; stroke-width: 0.8; stroke-linecap: square"/>
     </g>
     <g id="line2d_28">
      <g>
       <use xlink:href="#m7bf837a989" x="57.17" y="141.662626" style="stroke: #000000; stroke-width: 0.8"/>
      </g>
     </g>
     <g id="text_15">
      <!-- 1000 -->
      <g transform="translate(24.72 145.461844) scale(0.1 -0.1)">
       <use xlink:href="#DejaVuSans-31"/>
       <use xlink:href="#DejaVuSans-30" transform="translate(63.623047 0)"/>
       <use xlink:href="#DejaVuSans-30" transform="translate(127.246094 0)"/>
       <use xlink:href="#DejaVuSans-30" transform="translate(190.869141 0)"/>
      </g>
     </g>
    </g>
    <g id="ytick_6">
     <g id="line2d_29">
      <path d="M 57.17 107.141629 
L 442.309433 107.141629 
" clip-path="url(#p376fd2a2ac)" style="fill: none; stroke: #b0b0b0; stroke-opacity: 0.3; stroke-width: 0.8; stroke-linecap: square"/>
     </g>
     <g id="line2d_30">
      <g>
       <use xlink:href="#m7bf837a989" x="57.17" y="107.141629" style="stroke: #000000; stroke-width: 0.8"/>
      </g>
     </g>
     <g id="text_16">
      <!-- 1250 -->
      <g transform="translate(24.72 110.940848) scale(0.1 -0.1)">
       <use xlink:href="#DejaVuSans-31"/>
       <use xlink:href="#DejaVuSans-32" transform="translate(63.623047 0)"/>
       <use xlink:href="#DejaVuSans-35" transform="translate(127.246094 0)"/>
       <use xlink:href="#DejaVuSans-30" transform="translate(190.869141 0)"/>
      </g>
     </g>
    </g>
    <g id="ytick_7">
     <g id="line2d_31">
      <path d="M 57.17 72.620633 
L 442.309433 72.620633 
" clip-path="url(#p376fd2a2ac)" style="fill: none; stroke: #b0b0b0; stroke-opacity: 0.3; stroke-width: 0.8; stroke-linecap: square"/>
     </g>
     <g id="line2d_32">
      <g>
       <use xlink:href="#m7bf837a989" x="57.17" y="72.620633" style="stroke: #000000; stroke-width: 0.8"/>
      </g>
     </g>
     <g id="text_17">
      <!-- 1500 -->
      <g transform="translate(24.72 76.419852) scale(0.1 -0.1)">
       <use xlink:href="#DejaVuSans-31"/>
       <use xlink:href="#DejaVuSans-35" transform="translate(63.623047 0)"/>
       <use xlink:href="#DejaVuSans-30" transform="translate(127.246094 0)"/>
       <use xlink:href="#DejaVuSans-30" transform="translate(190.869141 0)"/>
      </g>
     </g>
    </g>
    <g id="ytick_8">
     <g id="line2d_33">
      <path d="M 57.17 38.099637 
L 442.309433 38.099637 
" clip-path="url(#p376fd2a2ac)" style="fill: none; stroke: #b0b0b0; stroke-opacity: 0.3; stroke-width: 0.8; stroke-linecap: square"/>
     </g>
     <g id="line2d_34">
      <g>
       <use xlink:href="#m7bf837a989" x="57.17" y="38.099637" style="stroke: #000000; stroke-width: 0.8"/>
      </g>
     </g>
     <g id="text_18">
      <!-- 1750 -->
      <g transform="translate(24.72 41.898856) scale(0.1 -0.1)">
       <use xlink:href="#DejaVuSans-31"/>
       <use xlink:href="#DejaVuSans-37" transform="translate(63.623047 0)"/>
       <use xlink:href="#DejaVuSans-35" transform="translate(127.246094 0)"/>
       <use xlink:href="#DejaVuSans-30" transform="translate(190.869141 0)"/>
      </g>
     </g>
    </g>
    <g id="text_19">
     <!-- Stress [Pa] -->
     <g transform="translate(18.640312 191.967812) rotate(-90) scale(0.1 -0.1)">
      <defs>
       <path id="DejaVuSans-65" d="M 3597 1894 
L 3597 1613 
L 953 1613 
Q 991 1019 1311 708 
Q 1631 397 2203 397 
Q 2534 397 2845 478 
Q 3156 559 3463 722 
L 3463 178 
Q 3153 47 2828 -22 
Q 2503 -91 2169 -91 
Q 1331 -91 842 396 
Q 353 884 353 1716 
Q 353 2575 817 3079 
Q 1281 3584 2069 3584 
Q 2775 3584 3186 3129 
Q 3597 2675 3597 1894 
z
M 3022 2063 
Q 3016 2534 2758 2815 
Q 2500 3097 2075 3097 
Q 1594 3097 1305 2825 
Q 1016 2553 972 2059 
L 3022 2063 
z
" transform="scale(0.015625)"/>
       <path id="DejaVuSans-73" d="M 2834 3397 
L 2834 2853 
Q 2591 2978 2328 3040 
Q 2066 3103 1784 3103 
Q 1356 3103 1142 2972 
Q 928 2841 928 2578 
Q 928 2378 1081 2264 
Q 1234 2150 1697 2047 
L 1894 2003 
Q 2506 1872 2764 1633 
Q 3022 1394 3022 966 
Q 3022 478 2636 193 
Q 2250 -91 1575 -91 
Q 1294 -91 989 -36 
Q 684 19 347 128 
L 347 722 
Q 666 556 975 473 
Q 1284 391 1588 391 
Q 1994 391 2212 530 
Q 2431 669 2431 922 
Q 2431 1156 2273 1281 
Q 2116 1406 1581 1522 
L 1381 1569 
Q 847 1681 609 1914 
Q 372 2147 372 2553 
Q 372 3047 722 3315 
Q 1072 3584 1716 3584 
Q 2034 3584 2315 3537 
Q 2597 3491 2834 3397 
z
" transform="scale(0.015625)"/>
       <path id="DejaVuSans-50" d="M 1259 4147 
L 1259 2394 
L 2053 2394 
Q 2494 2394 2734 2622 
Q 2975 2850 2975 3272 
Q 2975 3691 2734 3919 
Q 2494 4147 2053 4147 
L 1259 4147 
z
M 628 4666 
L 2053 4666 
Q 2838 4666 3239 4311 
Q 3641 3956 3641 3272 
Q 3641 2581 3239 2228 
Q 2838 1875 2053 1875 
L 1259 1875 
L 1259 0 
L 628 0 
L 628 4666 
z
" transform="scale(0.015625)"/>
      </defs>
      <use xlink:href="#DejaVuSans-53"/>
      <use xlink:href="#DejaVuSans-74" transform="translate(63.476562 0)"/>
      <use xlink:href="#DejaVuSans-72" transform="translate(102.685547 0)"/>
      <use xlink:href="#DejaVuSans-65" transform="translate(141.548828 0)"/>
      <use xlink:href="#DejaVuSans-73" transform="translate(203.072266 0)"/>
      <use xlink:href="#DejaVuSans-73" transform="translate(255.171875 0)"/>
      <use xlink:href="#DejaVuSans-20" transform="translate(307.271484 0)"/>
      <use xlink:href="#DejaVuSans-5b" transform="translate(339.058594 0)"/>
      <use xlink:href="#DejaVuSans-50" transform="translate(378.072266 0)"/>
      <use xlink:href="#DejaVuSans-61" transform="translate(433.875 0)"/>
      <use xlink:href="#DejaVuSans-5d" transform="translate(495.154297 0)"/>
     </g>
    </g>
   </g>
   <g id="line2d_35">
    <path d="M 74.752446 284.69251 
L 74.752997 284.495737 
L 74.753791 284.555912 
L 75.488892 276.394307 
L 75.871503 275.823627 
L 76.236226 275.51867 
L 76.591069 274.39086 
L 77.365369 271.218825 
L 77.774948 270.385039 
L 78.227246 270.186921 
L 78.59357 270.466191 
L 79.815363 272.193856 
L 80.259651 272.552802 
L 80.718891 272.742738 
L 81.194151 272.755346 
L 82.193117 272.458748 
L 83.434134 271.953326 
L 84.179598 271.913148 
L 84.950694 272.360624 
L 85.744219 273.185825 
L 86.968148 274.946755 
L 88.638501 277.614441 
L 89.059293 278.065136 
L 89.480085 278.344674 
L 89.900877 278.481761 
L 90.74353 278.415934 
L 92.006974 278.109233 
L 92.428835 278.183544 
L 92.849627 278.407282 
L 93.270419 278.809688 
L 95.758861 282.031085 
L 96.162565 282.194998 
L 96.563065 282.174006 
L 96.958225 281.965291 
L 97.740002 281.046732 
L 99.272583 278.615125 
L 100.028727 277.757731 
L 100.781667 277.201337 
L 101.530336 276.904093 
L 104.848614 276.190895 
L 106.651399 275.271799 
L 108.425348 274.412259 
L 110.522903 273.601276 
L 112.080048 272.601163 
L 113.628649 271.692261 
L 115.172978 271.094285 
L 116.200394 270.721925 
L 118.255227 269.796122 
L 121.336409 268.808617 
L 122.873262 268.31017 
L 125.432192 266.997789 
L 127.483821 266.084595 
L 130.572478 265.039144 
L 134.185524 263.747419 
L 135.736261 263.023893 
L 138.333639 261.545185 
L 139.902532 261.014813 
L 142.003289 260.469687 
L 145.166703 259.419407 
L 151.160322 256.975727 
L 157.192389 254.733251 
L 161.106612 252.838722 
L 170.040437 249.584329 
L 171.817081 248.866346 
L 176.753379 246.9077 
L 180.582162 245.509473 
L 182.132899 244.73256 
L 187.265709 241.995661 
L 188.80363 241.388027 
L 191.879472 239.950632 
L 194.445877 238.512164 
L 197.027235 237.076378 
L 198.0664 236.681483 
L 200.673389 235.856551 
L 202.240146 235.248649 
L 204.328087 234.1981 
L 208.519989 231.838926 
L 214.493317 229.392832 
L 219.414664 226.415026 
L 221.184341 225.734959 
L 222.601577 225.200295 
L 225.790627 223.715148 
L 227.561372 222.608799 
L 229.335321 221.482061 
L 231.831239 220.261966 
L 233.621208 219.641723 
L 236.122465 218.816522 
L 237.189398 218.298759 
L 242.135309 215.401434 
L 243.890034 214.591256 
L 248.23466 212.368364 
L 252.865511 209.008003 
L 254.925684 207.797565 
L 256.990129 206.633269 
L 260.093522 204.665788 
L 263.204608 202.884469 
L 265.282937 201.653642 
L 266.843286 200.83488 
L 272.566701 197.349505 
L 277.254155 194.261707 
L 279.870757 192.534043 
L 282.498038 190.788673 
L 285.304744 188.934385 
L 286.709165 187.960025 
L 290.231431 185.220443 
L 293.069108 183.381178 
L 295.202974 182.239954 
L 297.336839 180.678081 
L 299.827416 178.771211 
L 309.433014 172.126679 
L 310.842775 171.032134 
L 312.60284 169.621029 
L 317.503894 166.028882 
L 320.110884 163.907396 
L 325.310979 159.639207 
L 328.426336 157.137313 
L 329.980277 155.652165 
L 331.534218 154.204576 
L 336.715089 149.531297 
L 340.350563 146.157523 
L 342.953281 143.799959 
L 352.048307 135.238052 
L 355.57059 132.248442 
L 357.679891 130.066863 
L 363.297574 124.248605 
L 365.404739 122.096 
L 369.27731 117.721038 
L 373.537564 112.795585 
L 380.320436 105.741135 
L 386.324735 98.624446 
L 389.116489 95.249598 
L 391.192682 92.325446 
L 395.332252 86.521138 
L 400.515259 80.044006 
L 403.096617 76.313968 
L 405.164266 73.235292 
L 406.719275 71.386369 
L 409.299564 68.80453 
L 413.281071 64.921041 
L 416.461576 62.065566 
L 418.085471 60.892686 
L 420.060204 59.397881 
L 420.839311 58.351088 
L 421.968721 56.315449 
L 422.764916 54.331317 
L 423.524798 51.672217 
L 423.878173 50.072786 
L 424.22831 47.816309 
L 424.578581 46.624181 
L 424.638456 46.697821 
L 424.803095 48.002104 
L 424.716387 61.800833 
L 424.708911 69.403931 
L 424.358473 69.731071 
L 424.001227 70.742686 
L 423.646584 72.091284 
L 422.536397 72.336467 
L 422.173944 72.720765 
L 421.803348 72.947655 
L 421.434488 73.337721 
L 421.073503 73.414547 
L 420.342056 75.446028 
L 419.970526 75.933208 
L 419.232537 76.464384 
L 418.510302 77.129696 
L 418.146247 77.702052 
L 417.434625 79.981817 
L 417.076778 80.593341 
L 416.366858 81.367252 
L 415.652766 82.369646 
L 414.568011 84.209649 
L 413.125476 86.314502 
L 412.045928 88.040355 
L 411.340513 88.800635 
L 410.258429 90.543323 
L 409.527849 91.859325 
L 407.750129 94.073884 
L 405.942004 96.614275 
L 404.514354 98.498006 
L 403.436475 100.172016 
L 402.722249 101.105331 
L 402.012563 101.867488 
L 400.551004 104.011643 
L 395.184034 110.85027 
L 393.743168 112.574916 
L 392.690119 113.93572 
L 389.483047 117.844711 
L 388.772025 118.650127 
L 388.053394 119.709663 
L 387.689473 120.050703 
L 386.610125 121.336659 
L 386.255682 121.613917 
L 385.536384 122.591295 
L 383.35566 125.089433 
L 381.940426 126.650702 
L 380.884407 127.999903 
L 380.165376 128.650393 
L 379.437667 129.40343 
L 378.718635 130.243922 
L 377.290585 131.683531 
L 375.833031 133.432992 
L 369.719695 139.841731 
L 368.986513 140.571931 
L 367.552055 142.138297 
L 366.481651 143.026542 
L 363.606026 146.003653 
L 362.522873 146.849377 
L 361.094155 148.439955 
L 360.013739 149.397413 
L 358.922643 150.607717 
L 357.867192 151.340835 
L 356.091641 153.123813 
L 351.456151 157.321439 
L 351.105046 157.467244 
L 350.012748 158.42933 
L 349.294584 159.382094 
L 348.202621 160.137847 
L 347.48399 160.756412 
L 346.754812 161.68302 
L 341.753999 165.926092 
L 341.400491 166.063959 
L 340.328352 167.013436 
L 339.603313 167.842796 
L 338.887219 168.091742 
L 338.154971 168.731703 
L 337.067796 169.78449 
L 336.70214 169.966662 
L 334.931128 171.444064 
L 334.228784 171.792765 
L 332.469253 173.230697 
L 331.384832 173.94252 
L 330.317232 174.900247 
L 328.894371 176.020085 
L 328.179678 176.876574 
L 327.117685 177.332533 
L 326.76351 177.617404 
L 326.038337 178.526238 
L 325.316769 179.126092 
L 324.606949 179.453164 
L 323.536145 180.398685 
L 322.087402 181.355305 
L 321.035822 182.21238 
L 319.980588 182.831197 
L 318.5759 184.137006 
L 317.873423 184.438685 
L 316.434559 185.676403 
L 315.716195 186.033588 
L 314.984347 186.620196 
L 314.619892 187.099328 
L 312.116632 188.549013 
L 309.604895 190.348826 
L 308.896277 190.680778 
L 308.169636 191.314433 
L 307.44473 192.117301 
L 306.711948 192.450275 
L 305.982905 192.830532 
L 305.264941 193.528573 
L 304.549915 193.827871 
L 303.828881 194.019626 
L 302.406104 195.523972 
L 301.332496 195.729744 
L 300.60452 196.487039 
L 300.248075 196.767986 
L 299.533716 196.947786 
L 299.169661 197.172345 
L 298.086842 198.280975 
L 297.729062 198.459341 
L 297.375954 198.505459 
L 297.016038 198.69936 
L 296.658792 199.175407 
L 296.305951 199.299029 
L 295.237417 200.042986 
L 294.881706 200.124381 
L 294.518252 200.650729 
L 293.804393 200.823252 
L 293.08376 201.221584 
L 292.724378 201.29265 
L 292.366865 202.013628 
L 292.004345 202.178095 
L 291.639223 202.111916 
L 291.272364 202.239848 
L 290.916453 202.516569 
L 290.561209 202.553792 
L 290.195553 203.442104 
L 289.835369 203.548431 
L 289.467844 203.465385 
L 289.116338 203.508551 
L 288.756021 203.720619 
L 288.396506 203.712328 
L 288.03739 204.974928 
L 287.676673 205.062803 
L 287.321563 204.847558 
L 286.961914 204.805221 
L 286.594255 204.883062 
L 286.230133 204.767001 
L 285.876625 206.143231 
L 285.509033 206.659007 
L 285.152053 206.442177 
L 284.062426 206.250556 
L 283.703778 206.967359 
L 283.349669 208.197314 
L 282.273057 207.747331 
L 281.554293 207.775575 
L 281.198048 209.297207 
L 280.847477 209.317076 
L 280.14273 209.110918 
L 279.782947 209.095702 
L 279.431175 208.782655 
L 279.071258 210.453853 
L 277.630926 210.383499 
L 277.272478 209.953008 
L 276.909492 211.538221 
L 276.549575 211.667079 
L 275.474216 211.70724 
L 275.121308 211.397454 
L 274.766465 212.623586 
L 274.402611 213.122695 
L 273.671965 213.013258 
L 273.315252 213.038152 
L 272.959408 212.693575 
L 272.602162 213.359792 
L 272.242179 214.339014 
L 271.528287 214.210701 
L 271.170907 214.322206 
L 270.460554 214.276889 
L 270.101839 215.116577 
L 268.657568 215.523095 
L 267.941674 216.534149 
L 267.228066 216.513102 
L 266.864278 216.70277 
L 266.498221 216.607685 
L 265.779991 217.807522 
L 265.052282 217.738392 
L 264.686892 217.92873 
L 264.333518 217.91055 
L 263.615821 219.083213 
L 263.265383 218.919676 
L 262.558501 218.955289 
L 262.204458 218.990471 
L 261.842072 219.417654 
L 261.482824 220.291211 
L 260.056242 220.211946 
L 259.704803 220.459648 
L 259.351695 221.414155 
L 258.626039 221.544074 
L 257.561109 221.645702 
L 257.202327 222.390556 
L 255.762195 222.637537 
L 255.407486 222.854078 
L 255.0457 223.617845 
L 253.250058 224.091205 
L 252.890208 224.60092 
L 252.532628 224.854704 
L 252.174981 224.812229 
L 251.101507 225.278115 
L 250.374466 225.816501 
L 249.30181 226.002513 
L 248.587584 226.486809 
L 247.869087 226.994914 
L 247.147519 227.242989 
L 246.426418 227.835935 
L 245.341463 228.180558 
L 244.633379 228.414004 
L 243.553096 229.10668 
L 242.847815 229.408648 
L 241.764729 230.082527 
L 240.69803 230.373413 
L 239.995152 230.679778 
L 239.641911 230.974423 
L 238.934227 231.206658 
L 237.841996 231.966971 
L 237.124433 232.301857 
L 236.404601 232.549689 
L 235.691577 233.158094 
L 230.706617 235.214553 
L 230.343898 235.537384 
L 228.192277 236.427347 
L 227.84224 236.540993 
L 226.764293 237.29574 
L 225.691353 237.558385 
L 224.972055 238.074773 
L 224.61581 238.473927 
L 223.902786 238.525883 
L 223.544655 238.459377 
L 223.180734 238.596141 
L 222.467376 239.245767 
L 221.396706 239.548385 
L 221.032317 239.504267 
L 220.315689 240.297041 
L 218.512036 240.862032 
L 217.797811 241.373021 
L 217.093998 241.641371 
L 215.293883 242.3012 
L 213.843497 243.06952 
L 213.125667 243.259799 
L 212.416448 243.684137 
L 212.06601 244.051735 
L 211.706094 244.243213 
L 210.634622 244.355153 
L 210.282182 244.485868 
L 209.195024 245.12639 
L 208.133298 245.347718 
L 206.3468 246.317427 
L 203.819427 247.213672 
L 203.092919 247.797094 
L 202.017843 248.174635 
L 200.958787 248.411543 
L 199.545956 249.049489 
L 198.468477 249.36678 
L 197.035178 250.129468 
L 195.963306 250.504129 
L 195.602055 250.773741 
L 193.821164 251.315403 
L 193.459379 251.666771 
L 192.746355 251.811109 
L 192.386839 251.849681 
L 191.665004 252.186906 
L 191.302284 252.516611 
L 189.517722 253.017733 
L 188.806167 253.596393 
L 188.439359 253.717366 
L 187.730874 253.784983 
L 186.656599 254.209608 
L 185.584727 254.756092 
L 183.464345 255.507709 
L 182.405155 256.052199 
L 181.684255 256.284178 
L 180.600368 256.572277 
L 179.886676 256.996799 
L 178.107204 257.493857 
L 177.746887 257.761256 
L 175.959855 258.242888 
L 174.52039 258.970791 
L 173.809302 259.29793 
L 171.692792 259.965355 
L 170.975204 260.170917 
L 170.254704 260.433135 
L 169.536941 260.878465 
L 168.820046 261.228055 
L 167.022334 261.748117 
L 165.928034 262.122975 
L 165.211005 262.308157 
L 163.751448 263.095112 
L 163.021069 263.227437 
L 160.842916 263.997928 
L 160.47846 264.064524 
L 159.041866 264.763101 
L 156.915343 265.514406 
L 154.759451 266.301354 
L 154.033811 266.662262 
L 152.617567 266.943686 
L 151.535816 267.395689 
L 150.814782 267.588356 
L 150.108834 267.777158 
L 148.673708 268.559788 
L 147.948535 268.767561 
L 146.866517 269.04096 
L 146.140344 269.341348 
L 145.77956 269.633562 
L 144.699473 269.952519 
L 143.976036 269.981954 
L 142.528295 270.785019 
L 141.820611 270.771148 
L 141.096373 271.042308 
L 140.015756 271.50548 
L 139.307405 271.62296 
L 138.578762 271.878155 
L 137.853656 272.31319 
L 137.148375 272.25149 
L 136.422669 272.675404 
L 135.335407 273.220112 
L 134.982032 273.149324 
L 134.276617 273.368321 
L 133.575342 273.736204 
L 132.858713 273.904959 
L 132.125664 274.065787 
L 130.698014 274.608415 
L 129.625809 274.944851 
L 129.273101 275.104556 
L 128.916122 275.394188 
L 127.131572 275.832068 
L 125.671883 276.443768 
L 125.318908 276.447958 
L 124.961262 276.610041 
L 124.23916 276.714768 
L 122.797092 277.403769 
L 122.43277 277.612249 
L 120.655617 277.71203 
L 118.131978 278.784112 
L 117.774197 278.786179 
L 115.968542 279.379923 
L 115.236161 279.48659 
L 113.818523 279.983121 
L 113.117915 280.098591 
L 112.751324 280.342617 
L 112.045242 280.614241 
L 111.328747 280.845608 
L 110.9707 280.712277 
L 108.114069 281.814325 
L 107.383156 282.177304 
L 105.951635 282.208773 
L 104.872087 282.815132 
L 104.155592 282.961105 
L 97.401408 284.951743 
L 96.68251 285.14316 
L 95.96962 285.072337 
L 95.244848 285.435546 
L 94.878657 285.807554 
L 93.813727 285.789352 
L 93.447937 285.834699 
L 92.723499 286.29056 
L 91.297026 286.229833 
L 90.940448 286.907653 
L 90.579864 287.093205 
L 89.862701 286.929756 
L 89.149744 286.845031 
L 88.439991 287.800638 
L 87.711081 287.578193 
L 86.999792 287.560445 
L 86.636539 287.974035 
L 86.280694 288.54847 
L 85.55699 288.074603 
L 84.828614 287.868663 
L 84.466762 288.048757 
L 84.114522 289.129889 
L 83.763817 289.181682 
L 83.404382 288.873738 
L 82.681345 288.751354 
L 82.321763 288.415034 
L 81.96672 288.931926 
L 81.615214 289.680443 
L 80.166471 289.201323 
L 79.809625 289.032002 
L 79.082717 290.461718 
L 78.013048 289.933078 
L 77.300024 289.802522 
L 76.940375 290.841804 
L 76.577455 291.06 
L 75.869371 290.379799 
L 75.517465 290.052039 
L 75.159351 289.404266 
L 74.772665 290.827951 
L 74.676578 290.068896 
L 74.676578 290.068896 
" clip-path="url(#p376fd2a2ac)" style="fill: none; stroke: #ff0000; stroke-width: 2; stroke-linecap: square"/>
   </g>
   <g id="line2d_36">
    <path d="M 74.752446 284.69251 
L 74.752997 284.495737 
L 74.753791 284.555912 
L 75.488892 276.394307 
L 75.871503 275.823627 
L 76.236226 275.51867 
L 76.591069 274.39086 
L 77.365369 271.218825 
L 77.774948 282.739592 
L 78.227246 282.386413 
L 78.59357 282.418338 
L 79.38923 283.089015 
L 79.815363 283.256953 
L 80.259651 283.255343 
L 80.718891 283.100819 
L 82.193117 282.087401 
L 83.803662 281.079239 
L 85.744219 280.294592 
L 87.382532 279.675423 
L 88.638501 279.239751 
L 89.059293 279.010111 
L 90.322738 277.922843 
L 91.164322 277.12192 
L 92.006974 276.215366 
L 92.428835 275.913024 
L 92.849627 275.799814 
L 93.270419 275.929657 
L 93.691211 276.304163 
L 94.527456 277.459136 
L 94.940772 281.255245 
L 95.758861 282.031085 
L 96.162565 282.194998 
L 96.563065 282.174006 
L 96.958225 281.965291 
L 97.740002 281.046732 
L 99.272583 278.615125 
L 100.028727 277.757731 
L 100.781667 277.201337 
L 101.530336 276.904093 
L 104.848614 276.190895 
L 106.651399 275.271799 
L 108.425348 274.412259 
L 110.522903 273.601276 
L 112.080048 272.601163 
L 113.628649 271.692261 
L 115.172978 271.094285 
L 116.200394 270.721925 
L 118.255227 269.796122 
L 121.336409 268.808617 
L 122.873262 268.31017 
L 125.432192 266.997789 
L 127.483821 266.084595 
L 130.572478 265.039144 
L 134.185524 263.747419 
L 135.736261 263.023893 
L 138.333639 261.545185 
L 139.902532 261.014813 
L 142.003289 260.469687 
L 145.166703 259.419407 
L 151.160322 256.975727 
L 157.192389 254.733251 
L 161.106612 252.838722 
L 170.040437 249.584329 
L 171.817081 248.866346 
L 176.753379 246.9077 
L 180.582162 245.509473 
L 182.132899 244.73256 
L 187.265709 241.995661 
L 188.80363 241.388027 
L 191.879472 239.950632 
L 194.445877 238.512164 
L 197.027235 237.076378 
L 198.0664 236.681483 
L 200.673389 235.856551 
L 202.240146 235.248649 
L 204.328087 234.1981 
L 208.519989 231.838926 
L 214.493317 229.392832 
L 219.414664 226.415026 
L 221.184341 225.734959 
L 222.601577 225.200295 
L 225.790627 223.715148 
L 227.561372 222.608799 
L 229.335321 221.482061 
L 231.831239 220.261966 
L 233.621208 219.641723 
L 236.122465 218.816522 
L 237.189398 218.298759 
L 242.135309 215.401434 
L 243.890034 214.591256 
L 248.23466 212.368364 
L 252.865511 209.008003 
L 254.925684 207.797565 
L 256.990129 206.633269 
L 260.093522 204.665788 
L 263.204608 202.884469 
L 265.282937 201.653642 
L 266.843286 200.83488 
L 272.566701 197.349505 
L 277.254155 194.261707 
L 279.870757 192.534043 
L 282.498038 190.788673 
L 285.304744 188.934385 
L 286.709165 187.960025 
L 290.231431 185.220443 
L 293.069108 183.381178 
L 295.202974 182.239954 
L 297.336839 180.678081 
L 299.827416 178.771211 
L 309.433014 172.126679 
L 310.842775 171.032134 
L 312.60284 169.621029 
L 317.503894 166.028882 
L 320.110884 163.907396 
L 325.310979 159.639207 
L 328.426336 157.137313 
L 329.980277 155.652165 
L 331.534218 154.204576 
L 336.715089 149.531297 
L 340.350563 146.157523 
L 342.953281 143.799959 
L 352.048307 135.238052 
L 355.57059 132.248442 
L 357.679891 130.066863 
L 363.297574 124.248605 
L 365.404739 122.096 
L 369.27731 117.721038 
L 373.537564 112.795585 
L 380.320436 105.741135 
L 386.324735 98.624446 
L 389.116489 95.249598 
L 391.192682 92.325446 
L 395.332252 86.521138 
L 398.963454 82.089303 
L 399.481435 81.722612 
L 401.548016 78.862735 
L 404.129373 74.894339 
L 405.164266 73.353994 
L 407.237255 70.82815 
L 408.786924 69.150592 
L 416.031172 61.436062 
L 418.829868 57.569742 
L 420.462307 54.883278 
L 421.598659 52.204324 
L 422.364683 50.009869 
L 423.146993 47.107178 
L 423.878173 43.508593 
L 424.22831 41.0096 
L 424.638456 39.46 
L 424.803095 40.567104 
L 424.719991 52.917798 
L 424.708911 69.403931 
L 424.358473 69.731071 
L 424.001227 70.742686 
L 423.646584 72.091284 
L 422.536397 72.336467 
L 422.173944 72.720765 
L 421.803348 72.947655 
L 421.434488 73.337721 
L 421.073503 73.414547 
L 420.342056 75.446028 
L 419.970526 75.933208 
L 419.232537 76.464384 
L 418.510302 77.129696 
L 418.146247 77.702052 
L 417.434625 79.981817 
L 417.076778 80.593341 
L 416.366858 81.367252 
L 415.652766 82.369646 
L 414.568011 84.209649 
L 413.125476 86.314502 
L 412.045928 88.040355 
L 411.340513 88.800635 
L 410.258429 90.543323 
L 409.527849 91.859325 
L 407.750129 94.073884 
L 405.942004 96.614275 
L 404.514354 98.498006 
L 403.436475 100.172016 
L 402.722249 101.105331 
L 402.012563 101.867488 
L 400.551004 104.011643 
L 395.184034 110.85027 
L 393.743168 112.574916 
L 392.690119 113.93572 
L 389.483047 117.844711 
L 388.772025 118.650127 
L 388.053394 119.709663 
L 387.689473 120.050703 
L 386.610125 121.336659 
L 386.255682 121.613917 
L 385.536384 122.591295 
L 383.35566 125.089433 
L 381.940426 126.650702 
L 380.884407 127.999903 
L 380.165376 128.650393 
L 379.437667 129.40343 
L 378.718635 130.243922 
L 377.290585 131.683531 
L 375.833031 133.432992 
L 369.719695 139.841731 
L 368.986513 140.571931 
L 367.552055 142.138297 
L 366.481651 143.026542 
L 363.606026 146.003653 
L 362.522873 146.849377 
L 361.094155 148.439955 
L 360.013739 149.397413 
L 358.922643 150.607717 
L 357.867192 151.340835 
L 356.091641 153.123813 
L 351.456151 157.321439 
L 351.105046 157.467244 
L 350.012748 158.42933 
L 349.294584 159.382094 
L 348.202621 160.137847 
L 347.48399 160.756412 
L 346.754812 161.68302 
L 341.753999 165.926092 
L 341.400491 166.063959 
L 340.328352 167.013436 
L 339.603313 167.842796 
L 338.887219 168.091742 
L 338.154971 168.731703 
L 337.067796 169.78449 
L 336.70214 169.966662 
L 334.931128 171.444064 
L 334.228784 171.792765 
L 332.469253 173.230697 
L 331.384832 173.94252 
L 330.317232 174.900247 
L 328.894371 176.020085 
L 328.179678 176.876574 
L 327.117685 177.332533 
L 326.76351 177.617404 
L 326.038337 178.526238 
L 325.316769 179.126092 
L 324.606949 179.453164 
L 323.536145 180.398685 
L 322.087402 181.355305 
L 321.035822 182.21238 
L 319.980588 182.831197 
L 318.5759 184.137006 
L 317.873423 184.438685 
L 316.434559 185.676403 
L 315.716195 186.033588 
L 314.984347 186.620196 
L 314.619892 187.099328 
L 312.116632 188.549013 
L 309.604895 190.348826 
L 308.896277 190.680778 
L 308.169636 191.314433 
L 307.44473 192.117301 
L 306.711948 192.450275 
L 305.982905 192.830532 
L 305.264941 193.528573 
L 304.549915 193.827871 
L 303.828881 194.019626 
L 302.406104 195.523972 
L 301.332496 195.729744 
L 300.60452 196.487039 
L 300.248075 196.767986 
L 299.533716 196.947786 
L 299.169661 197.172345 
L 298.086842 198.280975 
L 297.729062 198.459341 
L 297.375954 198.505459 
L 297.016038 198.69936 
L 296.658792 199.175407 
L 296.305951 199.299029 
L 295.237417 200.042986 
L 294.881706 200.124381 
L 294.518252 200.650729 
L 293.804393 200.823252 
L 293.08376 201.221584 
L 292.724378 201.29265 
L 292.366865 202.013628 
L 292.004345 202.178095 
L 291.639223 202.111916 
L 291.272364 202.239848 
L 290.916453 202.516569 
L 290.561209 202.553792 
L 290.195553 203.442104 
L 289.835369 203.548431 
L 289.467844 203.465385 
L 289.116338 203.508551 
L 288.756021 203.720619 
L 288.396506 203.712328 
L 288.03739 204.974928 
L 287.676673 205.062803 
L 287.321563 204.847558 
L 286.961914 204.805221 
L 286.594255 204.883062 
L 286.230133 204.767001 
L 285.876625 206.143231 
L 285.509033 206.659007 
L 285.152053 206.442177 
L 284.062426 206.250556 
L 283.703778 206.967359 
L 283.349669 208.197314 
L 282.273057 207.747331 
L 281.554293 207.775575 
L 281.198048 209.297207 
L 280.847477 209.317076 
L 280.14273 209.110918 
L 279.782947 209.095702 
L 279.431175 208.782655 
L 279.071258 210.453853 
L 277.630926 210.383499 
L 277.272478 209.953008 
L 276.909492 211.538221 
L 276.549575 211.667079 
L 275.474216 211.70724 
L 275.121308 211.397454 
L 274.766465 212.623586 
L 274.402611 213.122695 
L 273.671965 213.013258 
L 273.315252 213.038152 
L 272.959408 212.693575 
L 272.602162 213.359792 
L 272.242179 214.339014 
L 271.528287 214.210701 
L 271.170907 214.322206 
L 270.460554 214.276889 
L 270.101839 215.116577 
L 268.657568 215.523095 
L 267.941674 216.534149 
L 267.228066 216.513102 
L 266.864278 216.70277 
L 266.498221 216.607685 
L 265.779991 217.807522 
L 265.052282 217.738392 
L 264.686892 217.92873 
L 264.333518 217.91055 
L 263.615821 219.083213 
L 263.265383 218.919676 
L 262.558501 218.955289 
L 262.204458 218.990471 
L 261.842072 219.417654 
L 261.482824 220.291211 
L 260.056242 220.211946 
L 259.704803 220.459648 
L 259.351695 221.414155 
L 258.626039 221.544074 
L 257.561109 221.645702 
L 257.202327 222.390556 
L 255.762195 222.637537 
L 255.407486 222.854078 
L 255.0457 223.617845 
L 253.250058 224.091205 
L 252.890208 224.60092 
L 252.532628 224.854704 
L 252.174981 224.812229 
L 251.101507 225.278115 
L 250.374466 225.816501 
L 249.30181 226.002513 
L 248.587584 226.486809 
L 247.869087 226.994914 
L 247.147519 227.242989 
L 246.426418 227.835935 
L 245.341463 228.180558 
L 244.633379 228.414004 
L 243.553096 229.10668 
L 242.847815 229.408648 
L 241.764729 230.082527 
L 240.69803 230.373413 
L 239.995152 230.679778 
L 239.641911 230.974423 
L 238.934227 231.206658 
L 237.841996 231.966971 
L 237.124433 232.301857 
L 236.404601 232.549689 
L 235.691577 233.158094 
L 230.706617 235.214553 
L 230.343898 235.537384 
L 228.192277 236.427347 
L 227.84224 236.540993 
L 226.764293 237.29574 
L 225.691353 237.558385 
L 224.972055 238.074773 
L 224.61581 238.473927 
L 223.902786 238.525883 
L 223.544655 238.459377 
L 223.180734 238.596141 
L 222.467376 239.245767 
L 221.396706 239.548385 
L 221.032317 239.504267 
L 220.315689 240.297041 
L 218.512036 240.862032 
L 217.797811 241.373021 
L 217.093998 241.641371 
L 215.293883 242.3012 
L 213.843497 243.06952 
L 213.125667 243.259799 
L 212.416448 243.684137 
L 212.06601 244.051735 
L 211.706094 244.243213 
L 210.634622 244.355153 
L 210.282182 244.485868 
L 209.195024 245.12639 
L 208.133298 245.347718 
L 206.3468 246.317427 
L 203.819427 247.213672 
L 203.092919 247.797094 
L 202.017843 248.174635 
L 200.958787 248.411543 
L 199.545956 249.049489 
L 198.468477 249.36678 
L 197.035178 250.129468 
L 195.963306 250.504129 
L 195.602055 250.773741 
L 193.821164 251.315403 
L 193.459379 251.666771 
L 192.746355 251.811109 
L 192.386839 251.849681 
L 191.665004 252.186906 
L 191.302284 252.516611 
L 189.517722 253.017733 
L 188.806167 253.596393 
L 188.439359 253.717366 
L 187.730874 253.784983 
L 186.656599 254.209608 
L 185.584727 254.756092 
L 183.464345 255.507709 
L 182.405155 256.052199 
L 181.684255 256.284178 
L 180.600368 256.572277 
L 179.886676 256.996799 
L 178.107204 257.493857 
L 177.746887 257.761256 
L 175.959855 258.242888 
L 174.52039 258.970791 
L 173.809302 259.29793 
L 171.692792 259.965355 
L 170.975204 260.170917 
L 170.254704 260.433135 
L 169.536941 260.878465 
L 168.820046 261.228055 
L 167.022334 261.748117 
L 165.928034 262.122975 
L 165.211005 262.308157 
L 163.751448 263.095112 
L 163.021069 263.227437 
L 160.842916 263.997928 
L 160.47846 264.064524 
L 159.041866 264.763101 
L 156.915343 265.514406 
L 154.759451 266.301354 
L 154.033811 266.662262 
L 152.617567 266.943686 
L 151.535816 267.395689 
L 150.814782 267.588356 
L 150.108834 267.777158 
L 148.673708 268.559788 
L 147.948535 268.767561 
L 146.866517 269.04096 
L 146.140344 269.341348 
L 145.77956 269.633562 
L 144.699473 269.952519 
L 143.976036 269.981954 
L 142.528295 270.785019 
L 141.820611 270.771148 
L 141.096373 271.042308 
L 140.015756 271.50548 
L 139.307405 271.62296 
L 138.578762 271.878155 
L 137.853656 272.31319 
L 137.148375 272.25149 
L 136.422669 272.675404 
L 135.335407 273.220112 
L 134.982032 273.149324 
L 134.276617 273.368321 
L 133.575342 273.736204 
L 132.858713 273.904959 
L 132.125664 274.065787 
L 130.698014 274.608415 
L 129.625809 274.944851 
L 129.273101 275.104556 
L 128.916122 275.394188 
L 127.131572 275.832068 
L 125.671883 276.443768 
L 125.318908 276.447958 
L 124.961262 276.610041 
L 124.23916 276.714768 
L 122.797092 277.403769 
L 122.43277 277.612249 
L 120.655617 277.71203 
L 118.131978 278.784112 
L 117.774197 278.786179 
L 115.968542 279.379923 
L 115.236161 279.48659 
L 113.818523 279.983121 
L 113.117915 280.098591 
L 112.751324 280.342617 
L 112.045242 280.614241 
L 111.328747 280.845608 
L 110.9707 280.712277 
L 108.114069 281.814325 
L 107.383156 282.177304 
L 105.951635 282.208773 
L 104.872087 282.815132 
L 104.155592 282.961105 
L 97.401408 284.951743 
L 96.68251 285.14316 
L 95.96962 285.072337 
L 95.244848 285.435546 
L 94.878657 285.807554 
L 93.813727 285.789352 
L 93.447937 285.834699 
L 92.723499 286.29056 
L 91.297026 286.229833 
L 90.940448 286.907653 
L 90.579864 287.093205 
L 89.862701 286.929756 
L 89.149744 286.845031 
L 88.439991 287.800638 
L 87.711081 287.578193 
L 86.999792 287.560445 
L 86.636539 287.974035 
L 86.280694 288.54847 
L 85.55699 288.074603 
L 84.828614 287.868663 
L 84.466762 288.048757 
L 84.114522 289.129889 
L 83.763817 289.181682 
L 83.404382 288.873738 
L 82.681345 288.751354 
L 82.321763 288.415034 
L 81.96672 288.931926 
L 81.615214 289.680443 
L 80.166471 289.201323 
L 79.809625 289.032002 
L 79.082717 290.461718 
L 78.013048 289.933078 
L 77.300024 289.802522 
L 76.940375 290.841804 
L 76.577455 291.06 
L 75.869371 290.379799 
L 75.517465 290.052039 
L 75.159351 289.404266 
L 74.772665 290.827951 
L 74.676578 290.068896 
L 74.676578 290.068896 
" clip-path="url(#p376fd2a2ac)" style="fill: none; stroke: #000000; stroke-width: 2; stroke-linecap: square"/>
   </g>
   <g id="patch_3">
    <path d="M 57.17 303.64 
L 57.17 26.88 
" style="fill: none; stroke: #000000; stroke-width: 0.8; stroke-linejoin: miter; stroke-linecap: square"/>
   </g>
   <g id="patch_4">
    <path d="M 442.309433 303.64 
L 442.309433 26.88 
" style="fill: none; stroke: #000000; stroke-width: 0.8; stroke-linejoin: miter; stroke-linecap: square"/>
   </g>
   <g id="patch_5">
    <path d="M 57.17 303.64 
L 442.309433 303.64 
" style="fill: none; stroke: #000000; stroke-width: 0.8; stroke-linejoin: miter; stroke-linecap: square"/>
   </g>
   <g id="patch_6">
    <path d="M 57.17 26.88 
L 442.309433 26.88 
" style="fill: none; stroke: #000000; stroke-width: 0.8; stroke-linejoin: miter; stroke-linecap: square"/>
   </g>
   <g id="text_20">
    <!-- 2025-06-18 Trial 8 - Stress vs Strain -->
    <g transform="translate(142.303154 20.88) scale(0.12 -0.12)">
     <defs>
      <path id="DejaVuSans-36" d="M 2113 2584 
Q 1688 2584 1439 2293 
Q 1191 2003 1191 1497 
Q 1191 994 1439 701 
Q 1688 409 2113 409 
Q 2538 409 2786 701 
Q 3034 994 3034 1497 
Q 3034 2003 2786 2293 
Q 2538 2584 2113 2584 
z
M 3366 4563 
L 3366 3988 
Q 3128 4100 2886 4159 
Q 2644 4219 2406 4219 
Q 1781 4219 1451 3797 
Q 1122 3375 1075 2522 
Q 1259 2794 1537 2939 
Q 1816 3084 2150 3084 
Q 2853 3084 3261 2657 
Q 3669 2231 3669 1497 
Q 3669 778 3244 343 
Q 2819 -91 2113 -91 
Q 1303 -91 875 529 
Q 447 1150 447 2328 
Q 447 3434 972 4092 
Q 1497 4750 2381 4750 
Q 2619 4750 2861 4703 
Q 3103 4656 3366 4563 
z
" transform="scale(0.015625)"/>
      <path id="DejaVuSans-38" d="M 2034 2216 
Q 1584 2216 1326 1975 
Q 1069 1734 1069 1313 
Q 1069 891 1326 650 
Q 1584 409 2034 409 
Q 2484 409 2743 651 
Q 3003 894 3003 1313 
Q 3003 1734 2745 1975 
Q 2488 2216 2034 2216 
z
M 1403 2484 
Q 997 2584 770 2862 
Q 544 3141 544 3541 
Q 544 4100 942 4425 
Q 1341 4750 2034 4750 
Q 2731 4750 3128 4425 
Q 3525 4100 3525 3541 
Q 3525 3141 3298 2862 
Q 3072 2584 2669 2484 
Q 3125 2378 3379 2068 
Q 3634 1759 3634 1313 
Q 3634 634 3220 271 
Q 2806 -91 2034 -91 
Q 1263 -91 848 271 
Q 434 634 434 1313 
Q 434 1759 690 2068 
Q 947 2378 1403 2484 
z
M 1172 3481 
Q 1172 3119 1398 2916 
Q 1625 2713 2034 2713 
Q 2441 2713 2670 2916 
Q 2900 3119 2900 3481 
Q 2900 3844 2670 4047 
Q 2441 4250 2034 4250 
Q 1625 4250 1398 4047 
Q 1172 3844 1172 3481 
z
" transform="scale(0.015625)"/>
      <path id="DejaVuSans-54" d="M -19 4666 
L 3928 4666 
L 3928 4134 
L 2272 4134 
L 2272 0 
L 1638 0 
L 1638 4134 
L -19 4134 
L -19 4666 
z
" transform="scale(0.015625)"/>
      <path id="DejaVuSans-6c" d="M 603 4863 
L 1178 4863 
L 1178 0 
L 603 0 
L 603 4863 
z
" transform="scale(0.015625)"/>
      <path id="DejaVuSans-76" d="M 191 3500 
L 800 3500 
L 1894 563 
L 2988 3500 
L 3597 3500 
L 2284 0 
L 1503 0 
L 191 3500 
z
" transform="scale(0.015625)"/>
     </defs>
     <use xlink:href="#DejaVuSans-32"/>
     <use xlink:href="#DejaVuSans-30" transform="translate(63.623047 0)"/>
     <use xlink:href="#DejaVuSans-32" transform="translate(127.246094 0)"/>
     <use xlink:href="#DejaVuSans-35" transform="translate(190.869141 0)"/>
     <use xlink:href="#DejaVuSans-2d" transform="translate(254.492188 0)"/>
     <use xlink:href="#DejaVuSans-30" transform="translate(290.576172 0)"/>
     <use xlink:href="#DejaVuSans-36" transform="translate(354.199219 0)"/>
     <use xlink:href="#DejaVuSans-2d" transform="translate(417.822266 0)"/>
     <use xlink:href="#DejaVuSans-31" transform="translate(453.90625 0)"/>
     <use xlink:href="#DejaVuSans-38" transform="translate(517.529297 0)"/>
     <use xlink:href="#DejaVuSans-20" transform="translate(581.152344 0)"/>
     <use xlink:href="#DejaVuSans-54" transform="translate(612.939453 0)"/>
     <use xlink:href="#DejaVuSans-72" transform="translate(659.273438 0)"/>
     <use xlink:href="#DejaVuSans-69" transform="translate(700.386719 0)"/>
     <use xlink:href="#DejaVuSans-61" transform="translate(728.169922 0)"/>
     <use xlink:href="#DejaVuSans-6c" transform="translate(789.449219 0)"/>
     <use xlink:href="#DejaVuSans-20" transform="translate(817.232422 0)"/>
     <use xlink:href="#DejaVuSans-38" transform="translate(849.019531 0)"/>
     <use xlink:href="#DejaVuSans-20" transform="translate(912.642578 0)"/>
     <use xlink:href="#DejaVuSans-2d" transform="translate(944.429688 0)"/>
     <use xlink:href="#DejaVuSans-20" transform="translate(980.513672 0)"/>
     <use xlink:href="#DejaVuSans-53" transform="translate(1012.300781 0)"/>
     <use xlink:href="#DejaVuSans-74" transform="translate(1075.777344 0)"/>
     <use xlink:href="#DejaVuSans-72" transform="translate(1114.986328 0)"/>
     <use xlink:href="#DejaVuSans-65" transform="translate(1153.849609 0)"/>
     <use xlink:href="#DejaVuSans-73" transform="translate(1215.373047 0)"/>
     <use xlink:href="#DejaVuSans-73" transform="translate(1267.472656 0)"/>
     <use xlink:href="#DejaVuSans-20" transform="translate(1319.572266 0)"/>
     <use xlink:href="#DejaVuSans-76" transform="translate(1351.359375 0)"/>
     <use xlink:href="#DejaVuSans-73" transform="translate(1410.539062 0)"/>
     <use xlink:href="#DejaVuSans-20" transform="translate(1462.638672 0)"/>
     <use xlink:href="#DejaVuSans-53" transform="translate(1494.425781 0)"/>
     <use xlink:href="#DejaVuSans-74" transform="translate(1557.902344 0)"/>
     <use xlink:href="#DejaVuSans-72" transform="translate(1597.111328 0)"/>
     <use xlink:href="#DejaVuSans-61" transform="translate(1638.224609 0)"/>
     <use xlink:href="#DejaVuSans-69" transform="translate(1699.503906 0)"/>
     <use xlink:href="#DejaVuSans-6e" transform="translate(1727.287109 0)"/>
    </g>
   </g>
   <g id="legend_1">
    <g id="patch_7">
     <path d="M 64.17 64.23625 
L 170.154375 64.23625 
Q 172.154375 64.23625 172.154375 62.23625 
L 172.154375 33.88 
Q 172.154375 31.88 170.154375 31.88 
L 64.17 31.88 
Q 62.17 31.88 62.17 33.88 
L 62.17 62.23625 
Q 62.17 64.23625 64.17 64.23625 
z
" style="fill: #ffffff; opacity: 0.8; stroke: #cccccc; stroke-linejoin: miter"/>
    </g>
    <g id="line2d_37">
     <path d="M 66.17 39.978437 
L 76.17 39.978437 
L 86.17 39.978437 
" style="fill: none; stroke: #ff0000; stroke-width: 2; stroke-linecap: square"/>
    </g>
    <g id="text_21">
     <!-- Raw Force -->
     <g transform="translate(94.17 43.478437) scale(0.1 -0.1)">
      <defs>
       <path id="DejaVuSans-52" d="M 2841 2188 
Q 3044 2119 3236 1894 
Q 3428 1669 3622 1275 
L 4263 0 
L 3584 0 
L 2988 1197 
Q 2756 1666 2539 1819 
Q 2322 1972 1947 1972 
L 1259 1972 
L 1259 0 
L 628 0 
L 628 4666 
L 2053 4666 
Q 2853 4666 3247 4331 
Q 3641 3997 3641 3322 
Q 3641 2881 3436 2590 
Q 3231 2300 2841 2188 
z
M 1259 4147 
L 1259 2491 
L 2053 2491 
Q 2509 2491 2742 2702 
Q 2975 2913 2975 3322 
Q 2975 3731 2742 3939 
Q 2509 4147 2053 4147 
L 1259 4147 
z
" transform="scale(0.015625)"/>
       <path id="DejaVuSans-77" d="M 269 3500 
L 844 3500 
L 1563 769 
L 2278 3500 
L 2956 3500 
L 3675 769 
L 4391 3500 
L 4966 3500 
L 4050 0 
L 3372 0 
L 2619 2869 
L 1863 0 
L 1184 0 
L 269 3500 
z
" transform="scale(0.015625)"/>
       <path id="DejaVuSans-46" d="M 628 4666 
L 3309 4666 
L 3309 4134 
L 1259 4134 
L 1259 2759 
L 3109 2759 
L 3109 2228 
L 1259 2228 
L 1259 0 
L 628 0 
L 628 4666 
z
" transform="scale(0.015625)"/>
       <path id="DejaVuSans-6f" d="M 1959 3097 
Q 1497 3097 1228 2736 
Q 959 2375 959 1747 
Q 959 1119 1226 758 
Q 1494 397 1959 397 
Q 2419 397 2687 759 
Q 2956 1122 2956 1747 
Q 2956 2369 2687 2733 
Q 2419 3097 1959 3097 
z
M 1959 3584 
Q 2709 3584 3137 3096 
Q 3566 2609 3566 1747 
Q 3566 888 3137 398 
Q 2709 -91 1959 -91 
Q 1206 -91 779 398 
Q 353 888 353 1747 
Q 353 2609 779 3096 
Q 1206 3584 1959 3584 
z
" transform="scale(0.015625)"/>
       <path id="DejaVuSans-63" d="M 3122 3366 
L 3122 2828 
Q 2878 2963 2633 3030 
Q 2388 3097 2138 3097 
Q 1578 3097 1268 2742 
Q 959 2388 959 1747 
Q 959 1106 1268 751 
Q 1578 397 2138 397 
Q 2388 397 2633 464 
Q 2878 531 3122 666 
L 3122 134 
Q 2881 22 2623 -34 
Q 2366 -91 2075 -91 
Q 1284 -91 818 406 
Q 353 903 353 1747 
Q 353 2603 823 3093 
Q 1294 3584 2113 3584 
Q 2378 3584 2631 3529 
Q 2884 3475 3122 3366 
z
" transform="scale(0.015625)"/>
      </defs>
      <use xlink:href="#DejaVuSans-52"/>
      <use xlink:href="#DejaVuSans-61" transform="translate(67.232422 0)"/>
      <use xlink:href="#DejaVuSans-77" transform="translate(128.511719 0)"/>
      <use xlink:href="#DejaVuSans-20" transform="translate(210.298828 0)"/>
      <use xlink:href="#DejaVuSans-46" transform="translate(242.085938 0)"/>
      <use xlink:href="#DejaVuSans-6f" transform="translate(295.980469 0)"/>
      <use xlink:href="#DejaVuSans-72" transform="translate(357.162109 0)"/>
      <use xlink:href="#DejaVuSans-63" transform="translate(396.025391 0)"/>
      <use xlink:href="#DejaVuSans-65" transform="translate(451.005859 0)"/>
     </g>
    </g>
    <g id="line2d_38">
     <path d="M 66.17 54.656563 
L 76.17 54.656563 
L 86.17 54.656563 
" style="fill: none; stroke: #000000; stroke-width: 2; stroke-linecap: square"/>
    </g>
    <g id="text_22">
     <!-- Adjusted Force -->
     <g transform="translate(94.17 58.156563) scale(0.1 -0.1)">
      <defs>
       <path id="DejaVuSans-41" d="M 2188 4044 
L 1331 1722 
L 3047 1722 
L 2188 4044 
z
M 1831 4666 
L 2547 4666 
L 4325 0 
L 3669 0 
L 3244 1197 
L 1141 1197 
L 716 0 
L 50 0 
L 1831 4666 
z
" transform="scale(0.015625)"/>
       <path id="DejaVuSans-64" d="M 2906 2969 
L 2906 4863 
L 3481 4863 
L 3481 0 
L 2906 0 
L 2906 525 
Q 2725 213 2448 61 
Q 2172 -91 1784 -91 
Q 1150 -91 751 415 
Q 353 922 353 1747 
Q 353 2572 751 3078 
Q 1150 3584 1784 3584 
Q 2172 3584 2448 3432 
Q 2725 3281 2906 2969 
z
M 947 1747 
Q 947 1113 1208 752 
Q 1469 391 1925 391 
Q 2381 391 2643 752 
Q 2906 1113 2906 1747 
Q 2906 2381 2643 2742 
Q 2381 3103 1925 3103 
Q 1469 3103 1208 2742 
Q 947 2381 947 1747 
z
" transform="scale(0.015625)"/>
       <path id="DejaVuSans-6a" d="M 603 3500 
L 1178 3500 
L 1178 -63 
Q 1178 -731 923 -1031 
Q 669 -1331 103 -1331 
L -116 -1331 
L -116 -844 
L 38 -844 
Q 366 -844 484 -692 
Q 603 -541 603 -63 
L 603 3500 
z
M 603 4863 
L 1178 4863 
L 1178 4134 
L 603 4134 
L 603 4863 
z
" transform="scale(0.015625)"/>
       <path id="DejaVuSans-75" d="M 544 1381 
L 544 3500 
L 1119 3500 
L 1119 1403 
Q 1119 906 1312 657 
Q 1506 409 1894 409 
Q 2359 409 2629 706 
Q 2900 1003 2900 1516 
L 2900 3500 
L 3475 3500 
L 3475 0 
L 2900 0 
L 2900 538 
Q 2691 219 2414 64 
Q 2138 -91 1772 -91 
Q 1169 -91 856 284 
Q 544 659 544 1381 
z
M 1991 3584 
L 1991 3584 
z
" transform="scale(0.015625)"/>
      </defs>
      <use xlink:href="#DejaVuSans-41"/>
      <use xlink:href="#DejaVuSans-64" transform="translate(66.658203 0)"/>
      <use xlink:href="#DejaVuSans-6a" transform="translate(130.134766 0)"/>
      <use xlink:href="#DejaVuSans-75" transform="translate(157.917969 0)"/>
      <use xlink:href="#DejaVuSans-73" transform="translate(221.296875 0)"/>
      <use xlink:href="#DejaVuSans-74" transform="translate(273.396484 0)"/>
      <use xlink:href="#DejaVuSans-65" transform="translate(312.605469 0)"/>
      <use xlink:href="#DejaVuSans-64" transform="translate(374.128906 0)"/>
      <use xlink:href="#DejaVuSans-20" transform="translate(437.605469 0)"/>
      <use xlink:href="#DejaVuSans-46" transform="translate(469.392578 0)"/>
      <use xlink:href="#DejaVuSans-6f" transform="translate(523.287109 0)"/>
      <use xlink:href="#DejaVuSans-72" transform="translate(584.46875 0)"/>
      <use xlink:href="#DejaVuSans-63" transform="translate(623.332031 0)"/>
      <use xlink:href="#DejaVuSans-65" transform="translate(678.3125 0)"/>
     </g>
    </g>
   </g>
  </g>
 </g>
 <defs>
  <clipPath id="p376fd2a2ac">
   <rect x="57.17" y="26.88" width="385.139433" height="276.76"/>
  </clipPath>
 </defs>
</svg>
