<?xml version="1.0" encoding="utf-8" standalone="no"?>
<!DOCTYPE svg PUBLIC "-//W3C//DTD SVG 1.1//EN"
  "http://www.w3.org/Graphics/SVG/1.1/DTD/svg11.dtd">
<svg xmlns:xlink="http://www.w3.org/1999/xlink" width="460.8pt" height="345.6pt" viewBox="0 0 460.8 345.6" xmlns="http://www.w3.org/2000/svg" version="1.1">
 <metadata>
  <rdf:RDF xmlns:dc="http://purl.org/dc/elements/1.1/" xmlns:cc="http://creativecommons.org/ns#" xmlns:rdf="http://www.w3.org/1999/02/22-rdf-syntax-ns#">
   <cc:Work>
    <dc:type rdf:resource="http://purl.org/dc/dcmitype/StillImage"/>
    <dc:date>2025-07-28T21:14:21.588931</dc:date>
    <dc:format>image/svg+xml</dc:format>
    <dc:creator>
     <cc:Agent>
      <dc:title>Matplotlib v3.10.3, https://matplotlib.org/</dc:title>
     </cc:Agent>
    </dc:creator>
   </cc:Work>
  </rdf:RDF>
 </metadata>
 <defs>
  <style type="text/css">*{stroke-linejoin: round; stroke-linecap: butt}</style>
 </defs>
 <g id="figure_1">
  <g id="patch_1">
   <path d="M 0 345.6 
L 460.8 345.6 
L 460.8 0 
L 0 0 
z
" style="fill: #ffffff"/>
  </g>
  <g id="axes_1">
   <g id="patch_2">
    <path d="M 57.17 303.64 
L 442.306195 303.64 
L 442.306195 26.88 
L 57.17 26.88 
z
" style="fill: #ffffff"/>
   </g>
   <g id="matplotlib.axis_1">
    <g id="xtick_1">
     <g id="line2d_1">
      <path d="M 74.756985 303.64 
L 74.756985 26.88 
" clip-path="url(#p6b2021294b)" style="fill: none; stroke: #b0b0b0; stroke-opacity: 0.3; stroke-width: 0.8; stroke-linecap: square"/>
     </g>
     <g id="line2d_2">
      <defs>
       <path id="mbcb5428266" d="M 0 0 
L 0 3.5 
" style="stroke: #000000; stroke-width: 0.8"/>
      </defs>
      <g>
       <use xlink:href="#mbcb5428266" x="74.756985" y="303.64" style="stroke: #000000; stroke-width: 0.8"/>
      </g>
     </g>
     <g id="text_1">
      <!-- 0.00 -->
      <g transform="translate(63.624172 318.238437) scale(0.1 -0.1)">
       <defs>
        <path id="DejaVuSans-30" d="M 2034 4250 
Q 1547 4250 1301 3770 
Q 1056 3291 1056 2328 
Q 1056 1369 1301 889 
Q 1547 409 2034 409 
Q 2525 409 2770 889 
Q 3016 1369 3016 2328 
Q 3016 3291 2770 3770 
Q 2525 4250 2034 4250 
z
M 2034 4750 
Q 2819 4750 3233 4129 
Q 3647 3509 3647 2328 
Q 3647 1150 3233 529 
Q 2819 -91 2034 -91 
Q 1250 -91 836 529 
Q 422 1150 422 2328 
Q 422 3509 836 4129 
Q 1250 4750 2034 4750 
z
" transform="scale(0.015625)"/>
        <path id="DejaVuSans-2e" d="M 684 794 
L 1344 794 
L 1344 0 
L 684 0 
L 684 794 
z
" transform="scale(0.015625)"/>
       </defs>
       <use xlink:href="#DejaVuSans-30"/>
       <use xlink:href="#DejaVuSans-2e" transform="translate(63.623047 0)"/>
       <use xlink:href="#DejaVuSans-30" transform="translate(95.410156 0)"/>
       <use xlink:href="#DejaVuSans-30" transform="translate(159.033203 0)"/>
      </g>
     </g>
    </g>
    <g id="xtick_2">
     <g id="line2d_3">
      <path d="M 120.25157 303.64 
L 120.25157 26.88 
" clip-path="url(#p6b2021294b)" style="fill: none; stroke: #b0b0b0; stroke-opacity: 0.3; stroke-width: 0.8; stroke-linecap: square"/>
     </g>
     <g id="line2d_4">
      <g>
       <use xlink:href="#mbcb5428266" x="120.25157" y="303.64" style="stroke: #000000; stroke-width: 0.8"/>
      </g>
     </g>
     <g id="text_2">
      <!-- 0.05 -->
      <g transform="translate(109.118757 318.238437) scale(0.1 -0.1)">
       <defs>
        <path id="DejaVuSans-35" d="M 691 4666 
L 3169 4666 
L 3169 4134 
L 1269 4134 
L 1269 2991 
Q 1406 3038 1543 3061 
Q 1681 3084 1819 3084 
Q 2600 3084 3056 2656 
Q 3513 2228 3513 1497 
Q 3513 744 3044 326 
Q 2575 -91 1722 -91 
Q 1428 -91 1123 -41 
Q 819 9 494 109 
L 494 744 
Q 775 591 1075 516 
Q 1375 441 1709 441 
Q 2250 441 2565 725 
Q 2881 1009 2881 1497 
Q 2881 1984 2565 2268 
Q 2250 2553 1709 2553 
Q 1456 2553 1204 2497 
Q 953 2441 691 2322 
L 691 4666 
z
" transform="scale(0.015625)"/>
       </defs>
       <use xlink:href="#DejaVuSans-30"/>
       <use xlink:href="#DejaVuSans-2e" transform="translate(63.623047 0)"/>
       <use xlink:href="#DejaVuSans-30" transform="translate(95.410156 0)"/>
       <use xlink:href="#DejaVuSans-35" transform="translate(159.033203 0)"/>
      </g>
     </g>
    </g>
    <g id="xtick_3">
     <g id="line2d_5">
      <path d="M 165.746155 303.64 
L 165.746155 26.88 
" clip-path="url(#p6b2021294b)" style="fill: none; stroke: #b0b0b0; stroke-opacity: 0.3; stroke-width: 0.8; stroke-linecap: square"/>
     </g>
     <g id="line2d_6">
      <g>
       <use xlink:href="#mbcb5428266" x="165.746155" y="303.64" style="stroke: #000000; stroke-width: 0.8"/>
      </g>
     </g>
     <g id="text_3">
      <!-- 0.10 -->
      <g transform="translate(154.613343 318.238437) scale(0.1 -0.1)">
       <defs>
        <path id="DejaVuSans-31" d="M 794 531 
L 1825 531 
L 1825 4091 
L 703 3866 
L 703 4441 
L 1819 4666 
L 2450 4666 
L 2450 531 
L 3481 531 
L 3481 0 
L 794 0 
L 794 531 
z
" transform="scale(0.015625)"/>
       </defs>
       <use xlink:href="#DejaVuSans-30"/>
       <use xlink:href="#DejaVuSans-2e" transform="translate(63.623047 0)"/>
       <use xlink:href="#DejaVuSans-31" transform="translate(95.410156 0)"/>
       <use xlink:href="#DejaVuSans-30" transform="translate(159.033203 0)"/>
      </g>
     </g>
    </g>
    <g id="xtick_4">
     <g id="line2d_7">
      <path d="M 211.24074 303.64 
L 211.24074 26.88 
" clip-path="url(#p6b2021294b)" style="fill: none; stroke: #b0b0b0; stroke-opacity: 0.3; stroke-width: 0.8; stroke-linecap: square"/>
     </g>
     <g id="line2d_8">
      <g>
       <use xlink:href="#mbcb5428266" x="211.24074" y="303.64" style="stroke: #000000; stroke-width: 0.8"/>
      </g>
     </g>
     <g id="text_4">
      <!-- 0.15 -->
      <g transform="translate(200.107928 318.238437) scale(0.1 -0.1)">
       <use xlink:href="#DejaVuSans-30"/>
       <use xlink:href="#DejaVuSans-2e" transform="translate(63.623047 0)"/>
       <use xlink:href="#DejaVuSans-31" transform="translate(95.410156 0)"/>
       <use xlink:href="#DejaVuSans-35" transform="translate(159.033203 0)"/>
      </g>
     </g>
    </g>
    <g id="xtick_5">
     <g id="line2d_9">
      <path d="M 256.735326 303.64 
L 256.735326 26.88 
" clip-path="url(#p6b2021294b)" style="fill: none; stroke: #b0b0b0; stroke-opacity: 0.3; stroke-width: 0.8; stroke-linecap: square"/>
     </g>
     <g id="line2d_10">
      <g>
       <use xlink:href="#mbcb5428266" x="256.735326" y="303.64" style="stroke: #000000; stroke-width: 0.8"/>
      </g>
     </g>
     <g id="text_5">
      <!-- 0.20 -->
      <g transform="translate(245.602513 318.238437) scale(0.1 -0.1)">
       <defs>
        <path id="DejaVuSans-32" d="M 1228 531 
L 3431 531 
L 3431 0 
L 469 0 
L 469 531 
Q 828 903 1448 1529 
Q 2069 2156 2228 2338 
Q 2531 2678 2651 2914 
Q 2772 3150 2772 3378 
Q 2772 3750 2511 3984 
Q 2250 4219 1831 4219 
Q 1534 4219 1204 4116 
Q 875 4013 500 3803 
L 500 4441 
Q 881 4594 1212 4672 
Q 1544 4750 1819 4750 
Q 2544 4750 2975 4387 
Q 3406 4025 3406 3419 
Q 3406 3131 3298 2873 
Q 3191 2616 2906 2266 
Q 2828 2175 2409 1742 
Q 1991 1309 1228 531 
z
" transform="scale(0.015625)"/>
       </defs>
       <use xlink:href="#DejaVuSans-30"/>
       <use xlink:href="#DejaVuSans-2e" transform="translate(63.623047 0)"/>
       <use xlink:href="#DejaVuSans-32" transform="translate(95.410156 0)"/>
       <use xlink:href="#DejaVuSans-30" transform="translate(159.033203 0)"/>
      </g>
     </g>
    </g>
    <g id="xtick_6">
     <g id="line2d_11">
      <path d="M 302.229911 303.64 
L 302.229911 26.88 
" clip-path="url(#p6b2021294b)" style="fill: none; stroke: #b0b0b0; stroke-opacity: 0.3; stroke-width: 0.8; stroke-linecap: square"/>
     </g>
     <g id="line2d_12">
      <g>
       <use xlink:href="#mbcb5428266" x="302.229911" y="303.64" style="stroke: #000000; stroke-width: 0.8"/>
      </g>
     </g>
     <g id="text_6">
      <!-- 0.25 -->
      <g transform="translate(291.097098 318.238437) scale(0.1 -0.1)">
       <use xlink:href="#DejaVuSans-30"/>
       <use xlink:href="#DejaVuSans-2e" transform="translate(63.623047 0)"/>
       <use xlink:href="#DejaVuSans-32" transform="translate(95.410156 0)"/>
       <use xlink:href="#DejaVuSans-35" transform="translate(159.033203 0)"/>
      </g>
     </g>
    </g>
    <g id="xtick_7">
     <g id="line2d_13">
      <path d="M 347.724496 303.64 
L 347.724496 26.88 
" clip-path="url(#p6b2021294b)" style="fill: none; stroke: #b0b0b0; stroke-opacity: 0.3; stroke-width: 0.8; stroke-linecap: square"/>
     </g>
     <g id="line2d_14">
      <g>
       <use xlink:href="#mbcb5428266" x="347.724496" y="303.64" style="stroke: #000000; stroke-width: 0.8"/>
      </g>
     </g>
     <g id="text_7">
      <!-- 0.30 -->
      <g transform="translate(336.591684 318.238437) scale(0.1 -0.1)">
       <defs>
        <path id="DejaVuSans-33" d="M 2597 2516 
Q 3050 2419 3304 2112 
Q 3559 1806 3559 1356 
Q 3559 666 3084 287 
Q 2609 -91 1734 -91 
Q 1441 -91 1130 -33 
Q 819 25 488 141 
L 488 750 
Q 750 597 1062 519 
Q 1375 441 1716 441 
Q 2309 441 2620 675 
Q 2931 909 2931 1356 
Q 2931 1769 2642 2001 
Q 2353 2234 1838 2234 
L 1294 2234 
L 1294 2753 
L 1863 2753 
Q 2328 2753 2575 2939 
Q 2822 3125 2822 3475 
Q 2822 3834 2567 4026 
Q 2313 4219 1838 4219 
Q 1578 4219 1281 4162 
Q 984 4106 628 3988 
L 628 4550 
Q 988 4650 1302 4700 
Q 1616 4750 1894 4750 
Q 2613 4750 3031 4423 
Q 3450 4097 3450 3541 
Q 3450 3153 3228 2886 
Q 3006 2619 2597 2516 
z
" transform="scale(0.015625)"/>
       </defs>
       <use xlink:href="#DejaVuSans-30"/>
       <use xlink:href="#DejaVuSans-2e" transform="translate(63.623047 0)"/>
       <use xlink:href="#DejaVuSans-33" transform="translate(95.410156 0)"/>
       <use xlink:href="#DejaVuSans-30" transform="translate(159.033203 0)"/>
      </g>
     </g>
    </g>
    <g id="xtick_8">
     <g id="line2d_15">
      <path d="M 393.219081 303.64 
L 393.219081 26.88 
" clip-path="url(#p6b2021294b)" style="fill: none; stroke: #b0b0b0; stroke-opacity: 0.3; stroke-width: 0.8; stroke-linecap: square"/>
     </g>
     <g id="line2d_16">
      <g>
       <use xlink:href="#mbcb5428266" x="393.219081" y="303.64" style="stroke: #000000; stroke-width: 0.8"/>
      </g>
     </g>
     <g id="text_8">
      <!-- 0.35 -->
      <g transform="translate(382.086269 318.238437) scale(0.1 -0.1)">
       <use xlink:href="#DejaVuSans-30"/>
       <use xlink:href="#DejaVuSans-2e" transform="translate(63.623047 0)"/>
       <use xlink:href="#DejaVuSans-33" transform="translate(95.410156 0)"/>
       <use xlink:href="#DejaVuSans-35" transform="translate(159.033203 0)"/>
      </g>
     </g>
    </g>
    <g id="xtick_9">
     <g id="line2d_17">
      <path d="M 438.713667 303.64 
L 438.713667 26.88 
" clip-path="url(#p6b2021294b)" style="fill: none; stroke: #b0b0b0; stroke-opacity: 0.3; stroke-width: 0.8; stroke-linecap: square"/>
     </g>
     <g id="line2d_18">
      <g>
       <use xlink:href="#mbcb5428266" x="438.713667" y="303.64" style="stroke: #000000; stroke-width: 0.8"/>
      </g>
     </g>
     <g id="text_9">
      <!-- 0.40 -->
      <g transform="translate(427.580854 318.238437) scale(0.1 -0.1)">
       <defs>
        <path id="DejaVuSans-34" d="M 2419 4116 
L 825 1625 
L 2419 1625 
L 2419 4116 
z
M 2253 4666 
L 3047 4666 
L 3047 1625 
L 3713 1625 
L 3713 1100 
L 3047 1100 
L 3047 0 
L 2419 0 
L 2419 1100 
L 313 1100 
L 313 1709 
L 2253 4666 
z
" transform="scale(0.015625)"/>
       </defs>
       <use xlink:href="#DejaVuSans-30"/>
       <use xlink:href="#DejaVuSans-2e" transform="translate(63.623047 0)"/>
       <use xlink:href="#DejaVuSans-34" transform="translate(95.410156 0)"/>
       <use xlink:href="#DejaVuSans-30" transform="translate(159.033203 0)"/>
      </g>
     </g>
    </g>
    <g id="text_10">
     <!-- Strain [-] -->
     <g transform="translate(227.631847 331.916562) scale(0.1 -0.1)">
      <defs>
       <path id="DejaVuSans-53" d="M 3425 4513 
L 3425 3897 
Q 3066 4069 2747 4153 
Q 2428 4238 2131 4238 
Q 1616 4238 1336 4038 
Q 1056 3838 1056 3469 
Q 1056 3159 1242 3001 
Q 1428 2844 1947 2747 
L 2328 2669 
Q 3034 2534 3370 2195 
Q 3706 1856 3706 1288 
Q 3706 609 3251 259 
Q 2797 -91 1919 -91 
Q 1588 -91 1214 -16 
Q 841 59 441 206 
L 441 856 
Q 825 641 1194 531 
Q 1563 422 1919 422 
Q 2459 422 2753 634 
Q 3047 847 3047 1241 
Q 3047 1584 2836 1778 
Q 2625 1972 2144 2069 
L 1759 2144 
Q 1053 2284 737 2584 
Q 422 2884 422 3419 
Q 422 4038 858 4394 
Q 1294 4750 2059 4750 
Q 2388 4750 2728 4690 
Q 3069 4631 3425 4513 
z
" transform="scale(0.015625)"/>
       <path id="DejaVuSans-74" d="M 1172 4494 
L 1172 3500 
L 2356 3500 
L 2356 3053 
L 1172 3053 
L 1172 1153 
Q 1172 725 1289 603 
Q 1406 481 1766 481 
L 2356 481 
L 2356 0 
L 1766 0 
Q 1100 0 847 248 
Q 594 497 594 1153 
L 594 3053 
L 172 3053 
L 172 3500 
L 594 3500 
L 594 4494 
L 1172 4494 
z
" transform="scale(0.015625)"/>
       <path id="DejaVuSans-72" d="M 2631 2963 
Q 2534 3019 2420 3045 
Q 2306 3072 2169 3072 
Q 1681 3072 1420 2755 
Q 1159 2438 1159 1844 
L 1159 0 
L 581 0 
L 581 3500 
L 1159 3500 
L 1159 2956 
Q 1341 3275 1631 3429 
Q 1922 3584 2338 3584 
Q 2397 3584 2469 3576 
Q 2541 3569 2628 3553 
L 2631 2963 
z
" transform="scale(0.015625)"/>
       <path id="DejaVuSans-61" d="M 2194 1759 
Q 1497 1759 1228 1600 
Q 959 1441 959 1056 
Q 959 750 1161 570 
Q 1363 391 1709 391 
Q 2188 391 2477 730 
Q 2766 1069 2766 1631 
L 2766 1759 
L 2194 1759 
z
M 3341 1997 
L 3341 0 
L 2766 0 
L 2766 531 
Q 2569 213 2275 61 
Q 1981 -91 1556 -91 
Q 1019 -91 701 211 
Q 384 513 384 1019 
Q 384 1609 779 1909 
Q 1175 2209 1959 2209 
L 2766 2209 
L 2766 2266 
Q 2766 2663 2505 2880 
Q 2244 3097 1772 3097 
Q 1472 3097 1187 3025 
Q 903 2953 641 2809 
L 641 3341 
Q 956 3463 1253 3523 
Q 1550 3584 1831 3584 
Q 2591 3584 2966 3190 
Q 3341 2797 3341 1997 
z
" transform="scale(0.015625)"/>
       <path id="DejaVuSans-69" d="M 603 3500 
L 1178 3500 
L 1178 0 
L 603 0 
L 603 3500 
z
M 603 4863 
L 1178 4863 
L 1178 4134 
L 603 4134 
L 603 4863 
z
" transform="scale(0.015625)"/>
       <path id="DejaVuSans-6e" d="M 3513 2113 
L 3513 0 
L 2938 0 
L 2938 2094 
Q 2938 2591 2744 2837 
Q 2550 3084 2163 3084 
Q 1697 3084 1428 2787 
Q 1159 2491 1159 1978 
L 1159 0 
L 581 0 
L 581 3500 
L 1159 3500 
L 1159 2956 
Q 1366 3272 1645 3428 
Q 1925 3584 2291 3584 
Q 2894 3584 3203 3211 
Q 3513 2838 3513 2113 
z
" transform="scale(0.015625)"/>
       <path id="DejaVuSans-20" transform="scale(0.015625)"/>
       <path id="DejaVuSans-5b" d="M 550 4863 
L 1875 4863 
L 1875 4416 
L 1125 4416 
L 1125 -397 
L 1875 -397 
L 1875 -844 
L 550 -844 
L 550 4863 
z
" transform="scale(0.015625)"/>
       <path id="DejaVuSans-2d" d="M 313 2009 
L 1997 2009 
L 1997 1497 
L 313 1497 
L 313 2009 
z
" transform="scale(0.015625)"/>
       <path id="DejaVuSans-5d" d="M 1947 4863 
L 1947 -844 
L 622 -844 
L 622 -397 
L 1369 -397 
L 1369 4416 
L 622 4416 
L 622 4863 
L 1947 4863 
z
" transform="scale(0.015625)"/>
      </defs>
      <use xlink:href="#DejaVuSans-53"/>
      <use xlink:href="#DejaVuSans-74" transform="translate(63.476562 0)"/>
      <use xlink:href="#DejaVuSans-72" transform="translate(102.685547 0)"/>
      <use xlink:href="#DejaVuSans-61" transform="translate(143.798828 0)"/>
      <use xlink:href="#DejaVuSans-69" transform="translate(205.078125 0)"/>
      <use xlink:href="#DejaVuSans-6e" transform="translate(232.861328 0)"/>
      <use xlink:href="#DejaVuSans-20" transform="translate(296.240234 0)"/>
      <use xlink:href="#DejaVuSans-5b" transform="translate(328.027344 0)"/>
      <use xlink:href="#DejaVuSans-2d" transform="translate(367.041016 0)"/>
      <use xlink:href="#DejaVuSans-5d" transform="translate(403.125 0)"/>
     </g>
    </g>
   </g>
   <g id="matplotlib.axis_2">
    <g id="ytick_1">
     <g id="line2d_19">
      <path d="M 57.17 281.500229 
L 442.306195 281.500229 
" clip-path="url(#p6b2021294b)" style="fill: none; stroke: #b0b0b0; stroke-opacity: 0.3; stroke-width: 0.8; stroke-linecap: square"/>
     </g>
     <g id="line2d_20">
      <defs>
       <path id="mc6a4e6e141" d="M 0 0 
L -3.5 0 
" style="stroke: #000000; stroke-width: 0.8"/>
      </defs>
      <g>
       <use xlink:href="#mc6a4e6e141" x="57.17" y="281.500229" style="stroke: #000000; stroke-width: 0.8"/>
      </g>
     </g>
     <g id="text_11">
      <!-- 0 -->
      <g transform="translate(43.8075 285.299448) scale(0.1 -0.1)">
       <use xlink:href="#DejaVuSans-30"/>
      </g>
     </g>
    </g>
    <g id="ytick_2">
     <g id="line2d_21">
      <path d="M 57.17 248.489414 
L 442.306195 248.489414 
" clip-path="url(#p6b2021294b)" style="fill: none; stroke: #b0b0b0; stroke-opacity: 0.3; stroke-width: 0.8; stroke-linecap: square"/>
     </g>
     <g id="line2d_22">
      <g>
       <use xlink:href="#mc6a4e6e141" x="57.17" y="248.489414" style="stroke: #000000; stroke-width: 0.8"/>
      </g>
     </g>
     <g id="text_12">
      <!-- 250 -->
      <g transform="translate(31.0825 252.288633) scale(0.1 -0.1)">
       <use xlink:href="#DejaVuSans-32"/>
       <use xlink:href="#DejaVuSans-35" transform="translate(63.623047 0)"/>
       <use xlink:href="#DejaVuSans-30" transform="translate(127.246094 0)"/>
      </g>
     </g>
    </g>
    <g id="ytick_3">
     <g id="line2d_23">
      <path d="M 57.17 215.4786 
L 442.306195 215.4786 
" clip-path="url(#p6b2021294b)" style="fill: none; stroke: #b0b0b0; stroke-opacity: 0.3; stroke-width: 0.8; stroke-linecap: square"/>
     </g>
     <g id="line2d_24">
      <g>
       <use xlink:href="#mc6a4e6e141" x="57.17" y="215.4786" style="stroke: #000000; stroke-width: 0.8"/>
      </g>
     </g>
     <g id="text_13">
      <!-- 500 -->
      <g transform="translate(31.0825 219.277818) scale(0.1 -0.1)">
       <use xlink:href="#DejaVuSans-35"/>
       <use xlink:href="#DejaVuSans-30" transform="translate(63.623047 0)"/>
       <use xlink:href="#DejaVuSans-30" transform="translate(127.246094 0)"/>
      </g>
     </g>
    </g>
    <g id="ytick_4">
     <g id="line2d_25">
      <path d="M 57.17 182.467785 
L 442.306195 182.467785 
" clip-path="url(#p6b2021294b)" style="fill: none; stroke: #b0b0b0; stroke-opacity: 0.3; stroke-width: 0.8; stroke-linecap: square"/>
     </g>
     <g id="line2d_26">
      <g>
       <use xlink:href="#mc6a4e6e141" x="57.17" y="182.467785" style="stroke: #000000; stroke-width: 0.8"/>
      </g>
     </g>
     <g id="text_14">
      <!-- 750 -->
      <g transform="translate(31.0825 186.267004) scale(0.1 -0.1)">
       <defs>
        <path id="DejaVuSans-37" d="M 525 4666 
L 3525 4666 
L 3525 4397 
L 1831 0 
L 1172 0 
L 2766 4134 
L 525 4134 
L 525 4666 
z
" transform="scale(0.015625)"/>
       </defs>
       <use xlink:href="#DejaVuSans-37"/>
       <use xlink:href="#DejaVuSans-35" transform="translate(63.623047 0)"/>
       <use xlink:href="#DejaVuSans-30" transform="translate(127.246094 0)"/>
      </g>
     </g>
    </g>
    <g id="ytick_5">
     <g id="line2d_27">
      <path d="M 57.17 149.456971 
L 442.306195 149.456971 
" clip-path="url(#p6b2021294b)" style="fill: none; stroke: #b0b0b0; stroke-opacity: 0.3; stroke-width: 0.8; stroke-linecap: square"/>
     </g>
     <g id="line2d_28">
      <g>
       <use xlink:href="#mc6a4e6e141" x="57.17" y="149.456971" style="stroke: #000000; stroke-width: 0.8"/>
      </g>
     </g>
     <g id="text_15">
      <!-- 1000 -->
      <g transform="translate(24.72 153.256189) scale(0.1 -0.1)">
       <use xlink:href="#DejaVuSans-31"/>
       <use xlink:href="#DejaVuSans-30" transform="translate(63.623047 0)"/>
       <use xlink:href="#DejaVuSans-30" transform="translate(127.246094 0)"/>
       <use xlink:href="#DejaVuSans-30" transform="translate(190.869141 0)"/>
      </g>
     </g>
    </g>
    <g id="ytick_6">
     <g id="line2d_29">
      <path d="M 57.17 116.446156 
L 442.306195 116.446156 
" clip-path="url(#p6b2021294b)" style="fill: none; stroke: #b0b0b0; stroke-opacity: 0.3; stroke-width: 0.8; stroke-linecap: square"/>
     </g>
     <g id="line2d_30">
      <g>
       <use xlink:href="#mc6a4e6e141" x="57.17" y="116.446156" style="stroke: #000000; stroke-width: 0.8"/>
      </g>
     </g>
     <g id="text_16">
      <!-- 1250 -->
      <g transform="translate(24.72 120.245375) scale(0.1 -0.1)">
       <use xlink:href="#DejaVuSans-31"/>
       <use xlink:href="#DejaVuSans-32" transform="translate(63.623047 0)"/>
       <use xlink:href="#DejaVuSans-35" transform="translate(127.246094 0)"/>
       <use xlink:href="#DejaVuSans-30" transform="translate(190.869141 0)"/>
      </g>
     </g>
    </g>
    <g id="ytick_7">
     <g id="line2d_31">
      <path d="M 57.17 83.435342 
L 442.306195 83.435342 
" clip-path="url(#p6b2021294b)" style="fill: none; stroke: #b0b0b0; stroke-opacity: 0.3; stroke-width: 0.8; stroke-linecap: square"/>
     </g>
     <g id="line2d_32">
      <g>
       <use xlink:href="#mc6a4e6e141" x="57.17" y="83.435342" style="stroke: #000000; stroke-width: 0.8"/>
      </g>
     </g>
     <g id="text_17">
      <!-- 1500 -->
      <g transform="translate(24.72 87.23456) scale(0.1 -0.1)">
       <use xlink:href="#DejaVuSans-31"/>
       <use xlink:href="#DejaVuSans-35" transform="translate(63.623047 0)"/>
       <use xlink:href="#DejaVuSans-30" transform="translate(127.246094 0)"/>
       <use xlink:href="#DejaVuSans-30" transform="translate(190.869141 0)"/>
      </g>
     </g>
    </g>
    <g id="ytick_8">
     <g id="line2d_33">
      <path d="M 57.17 50.424527 
L 442.306195 50.424527 
" clip-path="url(#p6b2021294b)" style="fill: none; stroke: #b0b0b0; stroke-opacity: 0.3; stroke-width: 0.8; stroke-linecap: square"/>
     </g>
     <g id="line2d_34">
      <g>
       <use xlink:href="#mc6a4e6e141" x="57.17" y="50.424527" style="stroke: #000000; stroke-width: 0.8"/>
      </g>
     </g>
     <g id="text_18">
      <!-- 1750 -->
      <g transform="translate(24.72 54.223746) scale(0.1 -0.1)">
       <use xlink:href="#DejaVuSans-31"/>
       <use xlink:href="#DejaVuSans-37" transform="translate(63.623047 0)"/>
       <use xlink:href="#DejaVuSans-35" transform="translate(127.246094 0)"/>
       <use xlink:href="#DejaVuSans-30" transform="translate(190.869141 0)"/>
      </g>
     </g>
    </g>
    <g id="text_19">
     <!-- Stress [Pa] -->
     <g transform="translate(18.640312 191.967812) rotate(-90) scale(0.1 -0.1)">
      <defs>
       <path id="DejaVuSans-65" d="M 3597 1894 
L 3597 1613 
L 953 1613 
Q 991 1019 1311 708 
Q 1631 397 2203 397 
Q 2534 397 2845 478 
Q 3156 559 3463 722 
L 3463 178 
Q 3153 47 2828 -22 
Q 2503 -91 2169 -91 
Q 1331 -91 842 396 
Q 353 884 353 1716 
Q 353 2575 817 3079 
Q 1281 3584 2069 3584 
Q 2775 3584 3186 3129 
Q 3597 2675 3597 1894 
z
M 3022 2063 
Q 3016 2534 2758 2815 
Q 2500 3097 2075 3097 
Q 1594 3097 1305 2825 
Q 1016 2553 972 2059 
L 3022 2063 
z
" transform="scale(0.015625)"/>
       <path id="DejaVuSans-73" d="M 2834 3397 
L 2834 2853 
Q 2591 2978 2328 3040 
Q 2066 3103 1784 3103 
Q 1356 3103 1142 2972 
Q 928 2841 928 2578 
Q 928 2378 1081 2264 
Q 1234 2150 1697 2047 
L 1894 2003 
Q 2506 1872 2764 1633 
Q 3022 1394 3022 966 
Q 3022 478 2636 193 
Q 2250 -91 1575 -91 
Q 1294 -91 989 -36 
Q 684 19 347 128 
L 347 722 
Q 666 556 975 473 
Q 1284 391 1588 391 
Q 1994 391 2212 530 
Q 2431 669 2431 922 
Q 2431 1156 2273 1281 
Q 2116 1406 1581 1522 
L 1381 1569 
Q 847 1681 609 1914 
Q 372 2147 372 2553 
Q 372 3047 722 3315 
Q 1072 3584 1716 3584 
Q 2034 3584 2315 3537 
Q 2597 3491 2834 3397 
z
" transform="scale(0.015625)"/>
       <path id="DejaVuSans-50" d="M 1259 4147 
L 1259 2394 
L 2053 2394 
Q 2494 2394 2734 2622 
Q 2975 2850 2975 3272 
Q 2975 3691 2734 3919 
Q 2494 4147 2053 4147 
L 1259 4147 
z
M 628 4666 
L 2053 4666 
Q 2838 4666 3239 4311 
Q 3641 3956 3641 3272 
Q 3641 2581 3239 2228 
Q 2838 1875 2053 1875 
L 1259 1875 
L 1259 0 
L 628 0 
L 628 4666 
z
" transform="scale(0.015625)"/>
      </defs>
      <use xlink:href="#DejaVuSans-53"/>
      <use xlink:href="#DejaVuSans-74" transform="translate(63.476562 0)"/>
      <use xlink:href="#DejaVuSans-72" transform="translate(102.685547 0)"/>
      <use xlink:href="#DejaVuSans-65" transform="translate(141.548828 0)"/>
      <use xlink:href="#DejaVuSans-73" transform="translate(203.072266 0)"/>
      <use xlink:href="#DejaVuSans-73" transform="translate(255.171875 0)"/>
      <use xlink:href="#DejaVuSans-20" transform="translate(307.271484 0)"/>
      <use xlink:href="#DejaVuSans-5b" transform="translate(339.058594 0)"/>
      <use xlink:href="#DejaVuSans-50" transform="translate(378.072266 0)"/>
      <use xlink:href="#DejaVuSans-61" transform="translate(433.875 0)"/>
      <use xlink:href="#DejaVuSans-5d" transform="translate(495.154297 0)"/>
     </g>
    </g>
   </g>
   <g id="line2d_35">
    <path d="M 74.756985 281.225376 
L 74.756985 281.113296 
L 74.756218 281.367509 
L 75.494719 264.927182 
L 76.251388 256.069545 
L 77.021408 250.631006 
L 77.858711 247.142132 
L 78.665042 244.896938 
L 79.599531 243.074515 
L 80.667519 241.654338 
L 81.87221 240.649747 
L 83.213603 239.932476 
L 84.693834 239.431719 
L 85.894253 239.263433 
L 87.171566 239.321089 
L 94.136985 240.236918 
L 97.610082 240.39892 
L 101.360857 240.567592 
L 102.672346 240.789238 
L 104.013739 241.216112 
L 105.385036 241.874893 
L 106.781964 242.751217 
L 108.930756 244.384831 
L 111.882676 247.015852 
L 115.701801 250.488309 
L 120.435125 254.629808 
L 126.139841 259.863073 
L 128.626118 261.808634 
L 130.292179 262.904551 
L 131.971057 263.811658 
L 133.654206 264.546374 
L 136.187474 265.397042 
L 139.579404 266.223085 
L 142.988422 266.816706 
L 146.401716 267.160463 
L 148.96916 267.213951 
L 151.536603 267.086838 
L 154.962709 266.657911 
L 157.530153 266.115084 
L 160.097596 265.32393 
L 163.51943 263.948904 
L 169.504435 261.215268 
L 173.784932 258.990598 
L 178.924091 256.043525 
L 187.523531 251.044174 
L 191.838203 248.835921 
L 200.514539 244.710838 
L 205.74768 242.529266 
L 210.12216 240.967482 
L 213.620889 239.983414 
L 225.00137 237.254909 
L 227.624349 236.273919 
L 231.110262 234.646462 
L 236.330588 231.912826 
L 241.54237 229.021165 
L 246.745608 225.794983 
L 252.820325 221.760202 
L 261.505204 216.079494 
L 277.213174 206.58155 
L 280.716175 204.761179 
L 285.099198 202.772521 
L 290.353699 200.416504 
L 292.98095 199.037373 
L 296.475407 196.92763 
L 300.837071 194.009289 
L 306.065941 190.196155 
L 310.414788 186.842731 
L 316.506593 181.785915 
L 327.827267 172.070426 
L 333.060408 168.015123 
L 338.302094 164.177361 
L 341.792279 161.887018 
L 344.406714 160.397063 
L 347.021149 159.19648 
L 350.489975 157.915858 
L 353.93744 156.871248 
L 358.205104 155.829716 
L 362.412977 154.816917 
L 365.728012 153.735365 
L 370.598038 151.83906 
L 374.545322 150.061786 
L 387.754199 143.570419 
L 396.110139 139.492541 
L 399.57042 137.721424 
L 401.206578 136.611141 
L 403.276339 134.913907 
L 405.687856 132.658452 
L 408.323651 129.857091 
L 409.923497 127.870485 
L 411.399456 125.701226 
L 412.426861 123.825443 
L 413.691359 121.013821 
L 415.377712 116.498807 
L 416.825904 111.87297 
L 418.426818 105.958302 
L 419.834427 99.542878 
L 421.00334 93.320368 
L 421.775495 88.238925 
L 422.925985 79.764038 
L 423.646076 76.727692 
L 424.359292 75.328278 
L 424.643077 75.361002 
L 424.78285 78.715372 
L 424.715066 89.956987 
L 424.714699 96.35261 
L 424.36293 96.591893 
L 423.64918 98.806494 
L 423.276052 98.643418 
L 422.922948 98.731313 
L 421.468081 100.219921 
L 420.732905 100.387246 
L 420.010278 101.698396 
L 418.572031 103.509612 
L 418.206913 104.79947 
L 417.848202 105.497373 
L 417.125241 106.402428 
L 416.058455 107.872373 
L 405.658319 121.556809 
L 404.951311 122.310957 
L 401.725186 126.278077 
L 398.869386 129.687297 
L 398.16665 130.62878 
L 397.46378 131.32346 
L 396.739284 132.210045 
L 396.011049 133.010626 
L 392.41767 137.215361 
L 391.702518 137.882224 
L 390.984029 138.62393 
L 389.912704 139.905322 
L 386.378998 143.815458 
L 385.302599 144.79664 
L 383.509848 146.806142 
L 381.007285 149.453398 
L 379.93953 150.422025 
L 379.587361 150.748851 
L 379.234925 150.912648 
L 378.176682 152.039798 
L 376.736767 153.619604 
L 376.034165 154.261134 
L 374.574625 155.545027 
L 373.489683 156.545897 
L 373.126567 157.111942 
L 371.338221 158.722155 
L 370.256282 159.966349 
L 369.547939 160.502315 
L 368.838795 161.020836 
L 367.740903 162.200896 
L 367.020545 162.966653 
L 362.349933 166.939681 
L 361.271265 167.989582 
L 360.569997 168.51535 
L 359.854044 168.934311 
L 355.236331 172.909384 
L 354.870411 173.126701 
L 352.682054 175.237229 
L 351.953752 175.664199 
L 350.510099 176.958995 
L 349.443046 177.462653 
L 347.653231 179.179353 
L 346.946624 179.512816 
L 344.803722 181.412513 
L 344.098049 181.891078 
L 343.369147 182.57763 
L 341.210743 184.161508 
L 340.125801 184.97357 
L 338.337722 186.392624 
L 337.626441 186.938049 
L 336.552212 187.560724 
L 335.108559 188.665876 
L 332.291741 190.575297 
L 331.239906 191.600154 
L 330.145352 192.284717 
L 327.256944 194.423745 
L 326.906244 194.713694 
L 326.196966 195.112958 
L 324.732888 196.271293 
L 324.025479 196.74553 
L 323.305655 197.059593 
L 322.577688 197.635578 
L 321.504493 198.300933 
L 321.150455 198.44347 
L 319.706669 199.502318 
L 319.002965 199.98365 
L 318.652932 200.361141 
L 316.516555 201.601768 
L 315.428208 202.30877 
L 315.074838 202.444284 
L 314.367295 202.971143 
L 312.559192 204.124876 
L 309.69982 205.826785 
L 309.3331 206.211715 
L 308.274857 206.861678 
L 307.920152 207.134183 
L 307.201396 207.44443 
L 302.880916 210.057446 
L 302.152014 210.530336 
L 301.083225 211.245948 
L 300.380489 211.660861 
L 299.677486 212.135963 
L 298.610566 212.65632 
L 298.245314 212.793855 
L 297.169583 213.627946 
L 296.81728 213.730111 
L 294.65634 215.029364 
L 293.932644 215.342898 
L 292.145033 216.329094 
L 291.079848 216.96094 
L 290.358689 217.552894 
L 290.007988 217.705083 
L 289.290968 217.811922 
L 288.578286 218.296388 
L 287.129694 219.269361 
L 286.767245 219.373622 
L 285.353095 220.286109 
L 284.619387 220.655807 
L 283.559326 221.174886 
L 282.477187 221.871442 
L 282.117008 222.135609 
L 281.392912 222.405776 
L 280.665612 222.718372 
L 280.298892 222.833692 
L 279.582672 223.262266 
L 276.361486 224.845872 
L 275.641395 225.168825 
L 274.55979 226.035993 
L 272.037603 227.235214 
L 271.307366 227.58851 
L 270.576996 228.138136 
L 269.154836 228.696536 
L 267.705977 229.612847 
L 266.275774 230.372711 
L 265.918665 230.396729 
L 265.198174 230.757963 
L 264.471408 231.199908 
L 264.119105 231.479788 
L 263.053119 231.781637 
L 260.538942 233.211113 
L 259.109039 233.798859 
L 258.399228 234.026265 
L 257.318173 234.666135 
L 256.226957 235.248084 
L 255.168714 235.620309 
L 254.802527 235.887297 
L 253.341787 236.406885 
L 252.613018 236.803215 
L 252.248167 237.096819 
L 250.104314 237.92012 
L 249.373276 238.471734 
L 248.305488 239.063035 
L 247.60075 239.203435 
L 245.441411 240.127654 
L 244.718116 240.538627 
L 243.99896 240.711291 
L 242.205274 241.749672 
L 241.476639 241.838602 
L 239.331368 242.997009 
L 238.256171 243.238946 
L 237.538016 243.703787 
L 236.451872 244.244025 
L 236.093028 244.191059 
L 234.649241 244.86908 
L 233.929617 245.381669 
L 232.15916 245.789632 
L 231.432394 246.312514 
L 229.626209 247.077782 
L 228.553415 247.51517 
L 227.832657 247.735637 
L 226.751319 248.353123 
L 225.672784 248.635423 
L 224.944016 249.068101 
L 223.149596 249.67476 
L 222.796959 249.949317 
L 221.717974 250.312865 
L 219.927893 251.066169 
L 219.213008 251.308028 
L 218.134741 251.740918 
L 217.06208 252.092345 
L 214.930109 252.967079 
L 214.214832 253.25047 
L 211.352557 254.538559 
L 210.262408 254.923175 
L 208.120291 255.663926 
L 207.76919 255.770781 
L 207.041757 256.249763 
L 203.473116 257.410888 
L 201.320586 258.395876 
L 200.601963 258.514281 
L 199.166721 259.237276 
L 198.454773 259.415436 
L 197.742625 259.760531 
L 197.013857 260.003358 
L 195.952394 260.117107 
L 194.864781 260.752928 
L 193.792388 261.245908 
L 191.986286 261.861556 
L 191.255515 262.072025 
L 190.192734 262.438387 
L 189.092973 263.007317 
L 188.005227 263.234545 
L 186.922587 263.606931 
L 186.216647 263.745614 
L 185.492284 264.249112 
L 184.775264 264.715299 
L 183.707943 265.065991 
L 181.580644 265.705854 
L 178.748206 266.736541 
L 178.028883 266.911901 
L 176.953419 267.435704 
L 175.897846 267.678983 
L 175.534063 267.803252 
L 174.809299 268.281209 
L 174.45406 268.34265 
L 174.093213 268.268115 
L 173.38487 268.356168 
L 171.950162 269.11 
L 170.88244 269.449559 
L 170.174498 269.729302 
L 169.093051 270.068119 
L 168.366152 270.409262 
L 167.651534 270.51537 
L 166.930576 270.687882 
L 166.220163 271.078899 
L 165.498137 271.390493 
L 163.727946 271.597519 
L 163.368769 271.727269 
L 162.653817 272.272726 
L 161.578086 272.523739 
L 160.875141 272.647856 
L 159.789398 273.088615 
L 158.726349 273.448023 
L 157.99985 273.759232 
L 155.827696 274.416903 
L 154.740484 274.903823 
L 152.597165 275.518478 
L 150.465995 276.202197 
L 149.387861 276.653254 
L 147.942072 276.99124 
L 147.587367 276.96697 
L 145.798353 277.652623 
L 144.741579 277.966686 
L 143.653587 278.156014 
L 142.571114 278.439128 
L 142.214807 278.424363 
L 141.494849 278.696719 
L 140.410841 279.379386 
L 139.70103 279.351199 
L 138.629237 279.753833 
L 138.267322 280.002864 
L 137.91502 280.084208 
L 137.206143 280.022689 
L 136.117996 280.513761 
L 135.750608 280.736289 
L 135.033454 280.77992 
L 133.946125 281.143184 
L 133.231641 281.333243 
L 132.515155 281.409595 
L 130.735486 282.090679 
L 129.645805 282.425511 
L 128.920374 282.64271 
L 127.505556 282.922798 
L 126.80015 283.213033 
L 126.065942 283.4906 
L 124.635505 283.736002 
L 123.918351 284.018964 
L 123.554434 284.254816 
L 121.41512 284.830668 
L 120.698901 285.149384 
L 119.97614 284.983514 
L 118.899274 285.309049 
L 118.543367 285.59066 
L 117.825679 285.722732 
L 117.469505 285.787543 
L 116.753553 286.133326 
L 116.028589 286.365676 
L 115.673349 286.250781 
L 114.96287 286.29397 
L 114.242045 286.711673 
L 113.885938 287.106929 
L 112.795255 286.994242 
L 112.083708 286.844892 
L 111.006909 287.554757 
L 109.204946 287.757792 
L 108.85004 288.160552 
L 108.497164 288.190913 
L 107.767728 288.061968 
L 107.053044 288.150554 
L 106.689727 288.576851 
L 106.326878 288.699242 
L 105.964029 288.488659 
L 105.249545 288.460613 
L 104.892704 288.481088 
L 104.534394 288.930281 
L 104.177486 289.187592 
L 103.462601 288.893958 
L 103.100419 288.81319 
L 102.735702 288.84683 
L 102.018614 289.677414 
L 101.303329 289.394203 
L 100.574361 289.281097 
L 100.21565 289.496735 
L 99.848944 290.060485 
L 98.77308 289.351936 
L 98.417573 289.35913 
L 98.052121 289.479705 
L 97.692676 290.149005 
L 96.980862 289.873366 
L 96.274655 289.595474 
L 95.910271 289.538159 
L 95.555165 290.307507 
L 95.200392 290.500233 
L 94.493518 290.055401 
L 93.762547 289.685568 
L 93.410044 289.9569 
L 93.04359 290.575341 
L 91.972465 290.106265 
L 91.257447 290.014264 
L 90.89311 290.857624 
L 90.540273 290.778459 
L 89.823386 290.295853 
L 89.459069 290.136048 
L 89.098623 289.825624 
L 88.374727 290.963196 
L 88.020155 290.631497 
L 86.93815 290.215096 
L 86.579039 290.114799 
L 86.227804 290.973037 
L 85.864221 291.06 
L 85.500571 290.614848 
L 84.420835 289.940161 
L 84.059922 290.054738 
L 83.702079 290.860514 
L 83.340565 290.844799 
L 82.613666 289.865028 
L 81.885892 289.059866 
L 81.535725 289.204628 
L 81.184691 289.930236 
L 79.736833 287.959087 
L 79.373984 287.249768 
L 78.655228 287.392418 
L 77.932066 284.580154 
L 76.861542 280.983278 
L 76.501763 280.9804 
L 76.143386 281.657604 
L 74.76121 280.034669 
L 74.733676 280.165053 
L 74.676191 281.341375 
L 74.676586 281.338721 
" clip-path="url(#p6b2021294b)" style="fill: none; stroke: #ff0000; stroke-width: 2; stroke-linecap: square"/>
   </g>
   <g id="line2d_36">
    <path d="M 74.756985 281.225376 
L 74.756985 281.113296 
L 74.756218 281.663415 
L 75.120389 272.328501 
L 75.494719 277.693672 
L 75.862641 279.536619 
L 76.607562 280.702313 
L 77.502003 279.848565 
L 77.858711 280.018904 
L 79.115733 278.939405 
L 80.117505 278.496113 
L 81.252777 278.393499 
L 83.213603 278.716733 
L 83.570311 279.002 
L 88.066541 280.016531 
L 93.585903 281.6091 
L 95.837222 282.091385 
L 98.2167 282.394161 
L 100.083543 282.436617 
L 102.014465 282.226515 
L 104.013739 281.78938 
L 106.081364 281.11418 
L 108.208797 280.153713 
L 118.841686 274.743906 
L 121.242524 273.713662 
L 123.674925 272.962481 
L 126.139841 272.42068 
L 128.626118 272.075897 
L 133.654206 271.630552 
L 137.879167 271.485865 
L 142.134032 271.283716 
L 145.547326 270.918923 
L 148.96916 270.334152 
L 156.67149 268.653464 
L 160.097596 267.742757 
L 162.665039 266.773024 
L 165.228211 265.481884 
L 167.795654 263.959606 
L 171.217488 261.613851 
L 178.924091 256.043525 
L 187.523531 251.044174 
L 191.838203 248.835921 
L 200.514539 244.710838 
L 205.74768 242.529266 
L 210.12216 240.967482 
L 213.620889 239.983414 
L 225.00137 237.254909 
L 227.624349 236.273919 
L 231.110262 234.646462 
L 236.330588 231.912826 
L 241.54237 229.021165 
L 246.745608 225.794983 
L 252.820325 221.760202 
L 261.505204 216.079494 
L 277.213174 206.58155 
L 280.716175 204.761179 
L 285.099198 202.772521 
L 290.353699 200.416504 
L 292.98095 199.037373 
L 296.475407 196.92763 
L 300.837071 194.009289 
L 301.712821 195.165778 
L 304.322984 193.145309 
L 307.804625 190.147443 
L 311.286267 186.789914 
L 314.763636 183.255347 
L 319.116755 179.499676 
L 324.341353 174.947722 
L 329.570223 170.68719 
L 335.679115 166.04904 
L 340.045051 162.999353 
L 343.535236 160.862931 
L 346.149671 159.56589 
L 349.622768 158.213438 
L 353.074506 157.110338 
L 357.354986 155.815893 
L 361.579947 154.142773 
L 365.728012 152.461443 
L 370.598038 150.22292 
L 372.981788 148.92434 
L 376.091769 146.961335 
L 383.542054 141.831656 
L 386.374359 139.615194 
L 389.108408 137.213002 
L 392.389268 134.025812 
L 394.896904 131.320909 
L 398.446897 127.101423 
L 400.668312 124.271331 
L 402.255342 121.948151 
L 404.26316 118.531106 
L 406.147091 114.756965 
L 407.904999 110.711923 
L 409.536885 106.371353 
L 411.399456 100.571612 
L 411.749757 99.381291 
L 413.074062 95.600993 
L 414.84265 89.622704 
L 416.367737 83.570533 
L 418.05943 75.847807 
L 419.834427 66.499676 
L 421.00334 59.310541 
L 422.179195 50.368761 
L 422.925985 44.536184 
L 423.646076 41.163263 
L 424.359292 39.517063 
L 424.643077 39.46 
L 424.78285 42.69739 
L 424.744969 45.034792 
L 424.714699 96.35261 
L 424.36293 96.591893 
L 423.64918 98.806494 
L 423.276052 98.643418 
L 422.922948 98.731313 
L 421.468081 100.219921 
L 420.732905 100.387246 
L 420.010278 101.698396 
L 418.572031 103.509612 
L 418.206913 104.79947 
L 417.848202 105.497373 
L 417.125241 106.402428 
L 416.058455 107.872373 
L 405.658319 121.556809 
L 404.951311 122.310957 
L 401.725186 126.278077 
L 398.869386 129.687297 
L 398.16665 130.62878 
L 397.46378 131.32346 
L 396.739284 132.210045 
L 396.011049 133.010626 
L 392.41767 137.215361 
L 391.702518 137.882224 
L 390.984029 138.62393 
L 389.912704 139.905322 
L 386.378998 143.815458 
L 385.302599 144.79664 
L 383.509848 146.806142 
L 381.007285 149.453398 
L 379.93953 150.422025 
L 379.587361 150.748851 
L 379.234925 150.912648 
L 378.176682 152.039798 
L 376.736767 153.619604 
L 376.034165 154.261134 
L 374.574625 155.545027 
L 373.489683 156.545897 
L 373.126567 157.111942 
L 371.338221 158.722155 
L 370.256282 159.966349 
L 369.547939 160.502315 
L 368.838795 161.020836 
L 367.740903 162.200896 
L 367.020545 162.966653 
L 362.349933 166.939681 
L 361.271265 167.989582 
L 360.569997 168.51535 
L 359.854044 168.934311 
L 355.236331 172.909384 
L 354.870411 173.126701 
L 352.682054 175.237229 
L 351.953752 175.664199 
L 350.510099 176.958995 
L 349.443046 177.462653 
L 347.653231 179.179353 
L 346.946624 179.512816 
L 344.803722 181.412513 
L 344.098049 181.891078 
L 343.369147 182.57763 
L 341.210743 184.161508 
L 340.125801 184.97357 
L 338.337722 186.392624 
L 337.626441 186.938049 
L 336.552212 187.560724 
L 335.108559 188.665876 
L 332.291741 190.575297 
L 331.239906 191.600154 
L 330.145352 192.284717 
L 327.256944 194.423745 
L 326.906244 194.713694 
L 326.196966 195.112958 
L 324.732888 196.271293 
L 324.025479 196.74553 
L 323.305655 197.059593 
L 322.577688 197.635578 
L 321.504493 198.300933 
L 321.150455 198.44347 
L 319.706669 199.502318 
L 319.002965 199.98365 
L 318.652932 200.361141 
L 316.516555 201.601768 
L 315.428208 202.30877 
L 315.074838 202.444284 
L 314.367295 202.971143 
L 312.559192 204.124876 
L 309.69982 205.826785 
L 309.3331 206.211715 
L 308.274857 206.861678 
L 307.920152 207.134183 
L 307.201396 207.44443 
L 302.880916 210.057446 
L 302.152014 210.530336 
L 301.083225 211.245948 
L 300.380489 211.660861 
L 299.677486 212.135963 
L 298.610566 212.65632 
L 298.245314 212.793855 
L 297.169583 213.627946 
L 296.81728 213.730111 
L 294.65634 215.029364 
L 293.932644 215.342898 
L 292.145033 216.329094 
L 291.079848 216.96094 
L 290.358689 217.552894 
L 290.007988 217.705083 
L 289.290968 217.811922 
L 288.578286 218.296388 
L 287.129694 219.269361 
L 286.767245 219.373622 
L 285.353095 220.286109 
L 284.619387 220.655807 
L 283.559326 221.174886 
L 282.477187 221.871442 
L 282.117008 222.135609 
L 281.392912 222.405776 
L 280.665612 222.718372 
L 280.298892 222.833692 
L 279.582672 223.262266 
L 276.361486 224.845872 
L 275.641395 225.168825 
L 274.55979 226.035993 
L 272.037603 227.235214 
L 271.307366 227.58851 
L 270.576996 228.138136 
L 269.154836 228.696536 
L 267.705977 229.612847 
L 266.275774 230.372711 
L 265.918665 230.396729 
L 265.198174 230.757963 
L 264.471408 231.199908 
L 264.119105 231.479788 
L 263.053119 231.781637 
L 260.538942 233.211113 
L 259.109039 233.798859 
L 258.399228 234.026265 
L 257.318173 234.666135 
L 256.226957 235.248084 
L 255.168714 235.620309 
L 254.802527 235.887297 
L 253.341787 236.406885 
L 252.613018 236.803215 
L 252.248167 237.096819 
L 250.104314 237.92012 
L 249.373276 238.471734 
L 248.305488 239.063035 
L 247.60075 239.203435 
L 245.441411 240.127654 
L 244.718116 240.538627 
L 243.99896 240.711291 
L 242.205274 241.749672 
L 241.476639 241.838602 
L 239.331368 242.997009 
L 238.256171 243.238946 
L 237.538016 243.703787 
L 236.451872 244.244025 
L 236.093028 244.191059 
L 234.649241 244.86908 
L 233.929617 245.381669 
L 232.15916 245.789632 
L 231.432394 246.312514 
L 229.626209 247.077782 
L 228.553415 247.51517 
L 227.832657 247.735637 
L 226.751319 248.353123 
L 225.672784 248.635423 
L 224.944016 249.068101 
L 223.149596 249.67476 
L 222.796959 249.949317 
L 221.717974 250.312865 
L 219.927893 251.066169 
L 219.213008 251.308028 
L 218.134741 251.740918 
L 217.06208 252.092345 
L 214.930109 252.967079 
L 214.214832 253.25047 
L 211.352557 254.538559 
L 210.262408 254.923175 
L 208.120291 255.663926 
L 207.76919 255.770781 
L 207.041757 256.249763 
L 203.473116 257.410888 
L 201.320586 258.395876 
L 200.601963 258.514281 
L 199.166721 259.237276 
L 198.454773 259.415436 
L 197.742625 259.760531 
L 197.013857 260.003358 
L 195.952394 260.117107 
L 194.864781 260.752928 
L 193.792388 261.245908 
L 191.986286 261.861556 
L 191.255515 262.072025 
L 190.192734 262.438387 
L 189.092973 263.007317 
L 188.005227 263.234545 
L 186.922587 263.606931 
L 186.216647 263.745614 
L 185.492284 264.249112 
L 184.775264 264.715299 
L 183.707943 265.065991 
L 181.580644 265.705854 
L 178.748206 266.736541 
L 178.028883 266.911901 
L 176.953419 267.435704 
L 175.897846 267.678983 
L 175.534063 267.803252 
L 174.809299 268.281209 
L 174.45406 268.34265 
L 174.093213 268.268115 
L 173.38487 268.356168 
L 171.950162 269.11 
L 170.88244 269.449559 
L 170.174498 269.729302 
L 169.093051 270.068119 
L 168.366152 270.409262 
L 167.651534 270.51537 
L 166.930576 270.687882 
L 166.220163 271.078899 
L 165.498137 271.390493 
L 163.727946 271.597519 
L 163.368769 271.727269 
L 162.653817 272.272726 
L 161.578086 272.523739 
L 160.875141 272.647856 
L 159.789398 273.088615 
L 158.726349 273.448023 
L 157.99985 273.759232 
L 155.827696 274.416903 
L 154.740484 274.903823 
L 152.597165 275.518478 
L 150.465995 276.202197 
L 149.387861 276.653254 
L 147.942072 276.99124 
L 147.587367 276.96697 
L 145.798353 277.652623 
L 144.741579 277.966686 
L 143.653587 278.156014 
L 142.571114 278.439128 
L 142.214807 278.424363 
L 141.494849 278.696719 
L 140.410841 279.379386 
L 139.70103 279.351199 
L 138.629237 279.753833 
L 138.267322 280.002864 
L 137.91502 280.084208 
L 137.206143 280.022689 
L 136.117996 280.513761 
L 135.750608 280.736289 
L 135.033454 280.77992 
L 133.946125 281.143184 
L 133.231641 281.333243 
L 132.515155 281.409595 
L 130.735486 282.090679 
L 129.645805 282.425511 
L 128.920374 282.64271 
L 127.505556 282.922798 
L 126.80015 283.213033 
L 126.065942 283.4906 
L 124.635505 283.736002 
L 123.918351 284.018964 
L 123.554434 284.254816 
L 121.41512 284.830668 
L 120.698901 285.149384 
L 119.97614 284.983514 
L 118.899274 285.309049 
L 118.543367 285.59066 
L 117.825679 285.722732 
L 117.469505 285.787543 
L 116.753553 286.133326 
L 116.028589 286.365676 
L 115.673349 286.250781 
L 114.96287 286.29397 
L 114.242045 286.711673 
L 113.885938 287.106929 
L 112.795255 286.994242 
L 112.083708 286.844892 
L 111.006909 287.554757 
L 109.204946 287.757792 
L 108.85004 288.160552 
L 108.497164 288.190913 
L 107.767728 288.061968 
L 107.053044 288.150554 
L 106.689727 288.576851 
L 106.326878 288.699242 
L 105.964029 288.488659 
L 105.249545 288.460613 
L 104.892704 288.481088 
L 104.534394 288.930281 
L 104.177486 289.187592 
L 103.462601 288.893958 
L 103.100419 288.81319 
L 102.735702 288.84683 
L 102.018614 289.677414 
L 101.303329 289.394203 
L 100.574361 289.281097 
L 100.21565 289.496735 
L 99.848944 290.060485 
L 98.77308 289.351936 
L 98.417573 289.35913 
L 98.052121 289.479705 
L 97.692676 290.149005 
L 96.980862 289.873366 
L 96.274655 289.595474 
L 95.910271 289.538159 
L 95.555165 290.307507 
L 95.200392 290.500233 
L 94.493518 290.055401 
L 93.762547 289.685568 
L 93.410044 289.9569 
L 93.04359 290.575341 
L 91.972465 290.106265 
L 91.257447 290.014264 
L 90.89311 290.857624 
L 90.540273 290.778459 
L 89.823386 290.295853 
L 89.459069 290.136048 
L 89.098623 289.825624 
L 88.374727 290.963196 
L 88.020155 290.631497 
L 86.93815 290.215096 
L 86.579039 290.114799 
L 86.227804 290.973037 
L 85.864221 291.06 
L 85.500571 290.614848 
L 84.420835 289.940161 
L 84.059922 290.054738 
L 83.702079 290.860514 
L 83.340565 290.844799 
L 82.613666 289.865028 
L 81.885892 289.059866 
L 81.535725 289.204628 
L 81.184691 289.930236 
L 79.736833 287.959087 
L 79.373984 287.249768 
L 78.655228 287.392418 
L 77.932066 284.580154 
L 76.861542 280.983278 
L 76.501763 280.9804 
L 76.143386 281.657604 
L 74.76121 280.034669 
L 74.733676 280.165053 
L 74.676191 281.341375 
L 74.676586 281.338721 
" clip-path="url(#p6b2021294b)" style="fill: none; stroke: #000000; stroke-width: 2; stroke-linecap: square"/>
   </g>
   <g id="patch_3">
    <path d="M 57.17 303.64 
L 57.17 26.88 
" style="fill: none; stroke: #000000; stroke-width: 0.8; stroke-linejoin: miter; stroke-linecap: square"/>
   </g>
   <g id="patch_4">
    <path d="M 442.306195 303.64 
L 442.306195 26.88 
" style="fill: none; stroke: #000000; stroke-width: 0.8; stroke-linejoin: miter; stroke-linecap: square"/>
   </g>
   <g id="patch_5">
    <path d="M 57.17 303.64 
L 442.306195 303.64 
" style="fill: none; stroke: #000000; stroke-width: 0.8; stroke-linejoin: miter; stroke-linecap: square"/>
   </g>
   <g id="patch_6">
    <path d="M 57.17 26.88 
L 442.306195 26.88 
" style="fill: none; stroke: #000000; stroke-width: 0.8; stroke-linejoin: miter; stroke-linecap: square"/>
   </g>
   <g id="text_20">
    <!-- 2025-06-18 Trial 14 - Stress vs Strain -->
    <g transform="translate(138.484035 20.88) scale(0.12 -0.12)">
     <defs>
      <path id="DejaVuSans-36" d="M 2113 2584 
Q 1688 2584 1439 2293 
Q 1191 2003 1191 1497 
Q 1191 994 1439 701 
Q 1688 409 2113 409 
Q 2538 409 2786 701 
Q 3034 994 3034 1497 
Q 3034 2003 2786 2293 
Q 2538 2584 2113 2584 
z
M 3366 4563 
L 3366 3988 
Q 3128 4100 2886 4159 
Q 2644 4219 2406 4219 
Q 1781 4219 1451 3797 
Q 1122 3375 1075 2522 
Q 1259 2794 1537 2939 
Q 1816 3084 2150 3084 
Q 2853 3084 3261 2657 
Q 3669 2231 3669 1497 
Q 3669 778 3244 343 
Q 2819 -91 2113 -91 
Q 1303 -91 875 529 
Q 447 1150 447 2328 
Q 447 3434 972 4092 
Q 1497 4750 2381 4750 
Q 2619 4750 2861 4703 
Q 3103 4656 3366 4563 
z
" transform="scale(0.015625)"/>
      <path id="DejaVuSans-38" d="M 2034 2216 
Q 1584 2216 1326 1975 
Q 1069 1734 1069 1313 
Q 1069 891 1326 650 
Q 1584 409 2034 409 
Q 2484 409 2743 651 
Q 3003 894 3003 1313 
Q 3003 1734 2745 1975 
Q 2488 2216 2034 2216 
z
M 1403 2484 
Q 997 2584 770 2862 
Q 544 3141 544 3541 
Q 544 4100 942 4425 
Q 1341 4750 2034 4750 
Q 2731 4750 3128 4425 
Q 3525 4100 3525 3541 
Q 3525 3141 3298 2862 
Q 3072 2584 2669 2484 
Q 3125 2378 3379 2068 
Q 3634 1759 3634 1313 
Q 3634 634 3220 271 
Q 2806 -91 2034 -91 
Q 1263 -91 848 271 
Q 434 634 434 1313 
Q 434 1759 690 2068 
Q 947 2378 1403 2484 
z
M 1172 3481 
Q 1172 3119 1398 2916 
Q 1625 2713 2034 2713 
Q 2441 2713 2670 2916 
Q 2900 3119 2900 3481 
Q 2900 3844 2670 4047 
Q 2441 4250 2034 4250 
Q 1625 4250 1398 4047 
Q 1172 3844 1172 3481 
z
" transform="scale(0.015625)"/>
      <path id="DejaVuSans-54" d="M -19 4666 
L 3928 4666 
L 3928 4134 
L 2272 4134 
L 2272 0 
L 1638 0 
L 1638 4134 
L -19 4134 
L -19 4666 
z
" transform="scale(0.015625)"/>
      <path id="DejaVuSans-6c" d="M 603 4863 
L 1178 4863 
L 1178 0 
L 603 0 
L 603 4863 
z
" transform="scale(0.015625)"/>
      <path id="DejaVuSans-76" d="M 191 3500 
L 800 3500 
L 1894 563 
L 2988 3500 
L 3597 3500 
L 2284 0 
L 1503 0 
L 191 3500 
z
" transform="scale(0.015625)"/>
     </defs>
     <use xlink:href="#DejaVuSans-32"/>
     <use xlink:href="#DejaVuSans-30" transform="translate(63.623047 0)"/>
     <use xlink:href="#DejaVuSans-32" transform="translate(127.246094 0)"/>
     <use xlink:href="#DejaVuSans-35" transform="translate(190.869141 0)"/>
     <use xlink:href="#DejaVuSans-2d" transform="translate(254.492188 0)"/>
     <use xlink:href="#DejaVuSans-30" transform="translate(290.576172 0)"/>
     <use xlink:href="#DejaVuSans-36" transform="translate(354.199219 0)"/>
     <use xlink:href="#DejaVuSans-2d" transform="translate(417.822266 0)"/>
     <use xlink:href="#DejaVuSans-31" transform="translate(453.90625 0)"/>
     <use xlink:href="#DejaVuSans-38" transform="translate(517.529297 0)"/>
     <use xlink:href="#DejaVuSans-20" transform="translate(581.152344 0)"/>
     <use xlink:href="#DejaVuSans-54" transform="translate(612.939453 0)"/>
     <use xlink:href="#DejaVuSans-72" transform="translate(659.273438 0)"/>
     <use xlink:href="#DejaVuSans-69" transform="translate(700.386719 0)"/>
     <use xlink:href="#DejaVuSans-61" transform="translate(728.169922 0)"/>
     <use xlink:href="#DejaVuSans-6c" transform="translate(789.449219 0)"/>
     <use xlink:href="#DejaVuSans-20" transform="translate(817.232422 0)"/>
     <use xlink:href="#DejaVuSans-31" transform="translate(849.019531 0)"/>
     <use xlink:href="#DejaVuSans-34" transform="translate(912.642578 0)"/>
     <use xlink:href="#DejaVuSans-20" transform="translate(976.265625 0)"/>
     <use xlink:href="#DejaVuSans-2d" transform="translate(1008.052734 0)"/>
     <use xlink:href="#DejaVuSans-20" transform="translate(1044.136719 0)"/>
     <use xlink:href="#DejaVuSans-53" transform="translate(1075.923828 0)"/>
     <use xlink:href="#DejaVuSans-74" transform="translate(1139.400391 0)"/>
     <use xlink:href="#DejaVuSans-72" transform="translate(1178.609375 0)"/>
     <use xlink:href="#DejaVuSans-65" transform="translate(1217.472656 0)"/>
     <use xlink:href="#DejaVuSans-73" transform="translate(1278.996094 0)"/>
     <use xlink:href="#DejaVuSans-73" transform="translate(1331.095703 0)"/>
     <use xlink:href="#DejaVuSans-20" transform="translate(1383.195312 0)"/>
     <use xlink:href="#DejaVuSans-76" transform="translate(1414.982422 0)"/>
     <use xlink:href="#DejaVuSans-73" transform="translate(1474.162109 0)"/>
     <use xlink:href="#DejaVuSans-20" transform="translate(1526.261719 0)"/>
     <use xlink:href="#DejaVuSans-53" transform="translate(1558.048828 0)"/>
     <use xlink:href="#DejaVuSans-74" transform="translate(1621.525391 0)"/>
     <use xlink:href="#DejaVuSans-72" transform="translate(1660.734375 0)"/>
     <use xlink:href="#DejaVuSans-61" transform="translate(1701.847656 0)"/>
     <use xlink:href="#DejaVuSans-69" transform="translate(1763.126953 0)"/>
     <use xlink:href="#DejaVuSans-6e" transform="translate(1790.910156 0)"/>
    </g>
   </g>
   <g id="legend_1">
    <g id="patch_7">
     <path d="M 64.17 64.23625 
L 170.154375 64.23625 
Q 172.154375 64.23625 172.154375 62.23625 
L 172.154375 33.88 
Q 172.154375 31.88 170.154375 31.88 
L 64.17 31.88 
Q 62.17 31.88 62.17 33.88 
L 62.17 62.23625 
Q 62.17 64.23625 64.17 64.23625 
z
" style="fill: #ffffff; opacity: 0.8; stroke: #cccccc; stroke-linejoin: miter"/>
    </g>
    <g id="line2d_37">
     <path d="M 66.17 39.978437 
L 76.17 39.978437 
L 86.17 39.978437 
" style="fill: none; stroke: #ff0000; stroke-width: 2; stroke-linecap: square"/>
    </g>
    <g id="text_21">
     <!-- Raw Force -->
     <g transform="translate(94.17 43.478437) scale(0.1 -0.1)">
      <defs>
       <path id="DejaVuSans-52" d="M 2841 2188 
Q 3044 2119 3236 1894 
Q 3428 1669 3622 1275 
L 4263 0 
L 3584 0 
L 2988 1197 
Q 2756 1666 2539 1819 
Q 2322 1972 1947 1972 
L 1259 1972 
L 1259 0 
L 628 0 
L 628 4666 
L 2053 4666 
Q 2853 4666 3247 4331 
Q 3641 3997 3641 3322 
Q 3641 2881 3436 2590 
Q 3231 2300 2841 2188 
z
M 1259 4147 
L 1259 2491 
L 2053 2491 
Q 2509 2491 2742 2702 
Q 2975 2913 2975 3322 
Q 2975 3731 2742 3939 
Q 2509 4147 2053 4147 
L 1259 4147 
z
" transform="scale(0.015625)"/>
       <path id="DejaVuSans-77" d="M 269 3500 
L 844 3500 
L 1563 769 
L 2278 3500 
L 2956 3500 
L 3675 769 
L 4391 3500 
L 4966 3500 
L 4050 0 
L 3372 0 
L 2619 2869 
L 1863 0 
L 1184 0 
L 269 3500 
z
" transform="scale(0.015625)"/>
       <path id="DejaVuSans-46" d="M 628 4666 
L 3309 4666 
L 3309 4134 
L 1259 4134 
L 1259 2759 
L 3109 2759 
L 3109 2228 
L 1259 2228 
L 1259 0 
L 628 0 
L 628 4666 
z
" transform="scale(0.015625)"/>
       <path id="DejaVuSans-6f" d="M 1959 3097 
Q 1497 3097 1228 2736 
Q 959 2375 959 1747 
Q 959 1119 1226 758 
Q 1494 397 1959 397 
Q 2419 397 2687 759 
Q 2956 1122 2956 1747 
Q 2956 2369 2687 2733 
Q 2419 3097 1959 3097 
z
M 1959 3584 
Q 2709 3584 3137 3096 
Q 3566 2609 3566 1747 
Q 3566 888 3137 398 
Q 2709 -91 1959 -91 
Q 1206 -91 779 398 
Q 353 888 353 1747 
Q 353 2609 779 3096 
Q 1206 3584 1959 3584 
z
" transform="scale(0.015625)"/>
       <path id="DejaVuSans-63" d="M 3122 3366 
L 3122 2828 
Q 2878 2963 2633 3030 
Q 2388 3097 2138 3097 
Q 1578 3097 1268 2742 
Q 959 2388 959 1747 
Q 959 1106 1268 751 
Q 1578 397 2138 397 
Q 2388 397 2633 464 
Q 2878 531 3122 666 
L 3122 134 
Q 2881 22 2623 -34 
Q 2366 -91 2075 -91 
Q 1284 -91 818 406 
Q 353 903 353 1747 
Q 353 2603 823 3093 
Q 1294 3584 2113 3584 
Q 2378 3584 2631 3529 
Q 2884 3475 3122 3366 
z
" transform="scale(0.015625)"/>
      </defs>
      <use xlink:href="#DejaVuSans-52"/>
      <use xlink:href="#DejaVuSans-61" transform="translate(67.232422 0)"/>
      <use xlink:href="#DejaVuSans-77" transform="translate(128.511719 0)"/>
      <use xlink:href="#DejaVuSans-20" transform="translate(210.298828 0)"/>
      <use xlink:href="#DejaVuSans-46" transform="translate(242.085938 0)"/>
      <use xlink:href="#DejaVuSans-6f" transform="translate(295.980469 0)"/>
      <use xlink:href="#DejaVuSans-72" transform="translate(357.162109 0)"/>
      <use xlink:href="#DejaVuSans-63" transform="translate(396.025391 0)"/>
      <use xlink:href="#DejaVuSans-65" transform="translate(451.005859 0)"/>
     </g>
    </g>
    <g id="line2d_38">
     <path d="M 66.17 54.656563 
L 76.17 54.656563 
L 86.17 54.656563 
" style="fill: none; stroke: #000000; stroke-width: 2; stroke-linecap: square"/>
    </g>
    <g id="text_22">
     <!-- Adjusted Force -->
     <g transform="translate(94.17 58.156563) scale(0.1 -0.1)">
      <defs>
       <path id="DejaVuSans-41" d="M 2188 4044 
L 1331 1722 
L 3047 1722 
L 2188 4044 
z
M 1831 4666 
L 2547 4666 
L 4325 0 
L 3669 0 
L 3244 1197 
L 1141 1197 
L 716 0 
L 50 0 
L 1831 4666 
z
" transform="scale(0.015625)"/>
       <path id="DejaVuSans-64" d="M 2906 2969 
L 2906 4863 
L 3481 4863 
L 3481 0 
L 2906 0 
L 2906 525 
Q 2725 213 2448 61 
Q 2172 -91 1784 -91 
Q 1150 -91 751 415 
Q 353 922 353 1747 
Q 353 2572 751 3078 
Q 1150 3584 1784 3584 
Q 2172 3584 2448 3432 
Q 2725 3281 2906 2969 
z
M 947 1747 
Q 947 1113 1208 752 
Q 1469 391 1925 391 
Q 2381 391 2643 752 
Q 2906 1113 2906 1747 
Q 2906 2381 2643 2742 
Q 2381 3103 1925 3103 
Q 1469 3103 1208 2742 
Q 947 2381 947 1747 
z
" transform="scale(0.015625)"/>
       <path id="DejaVuSans-6a" d="M 603 3500 
L 1178 3500 
L 1178 -63 
Q 1178 -731 923 -1031 
Q 669 -1331 103 -1331 
L -116 -1331 
L -116 -844 
L 38 -844 
Q 366 -844 484 -692 
Q 603 -541 603 -63 
L 603 3500 
z
M 603 4863 
L 1178 4863 
L 1178 4134 
L 603 4134 
L 603 4863 
z
" transform="scale(0.015625)"/>
       <path id="DejaVuSans-75" d="M 544 1381 
L 544 3500 
L 1119 3500 
L 1119 1403 
Q 1119 906 1312 657 
Q 1506 409 1894 409 
Q 2359 409 2629 706 
Q 2900 1003 2900 1516 
L 2900 3500 
L 3475 3500 
L 3475 0 
L 2900 0 
L 2900 538 
Q 2691 219 2414 64 
Q 2138 -91 1772 -91 
Q 1169 -91 856 284 
Q 544 659 544 1381 
z
M 1991 3584 
L 1991 3584 
z
" transform="scale(0.015625)"/>
      </defs>
      <use xlink:href="#DejaVuSans-41"/>
      <use xlink:href="#DejaVuSans-64" transform="translate(66.658203 0)"/>
      <use xlink:href="#DejaVuSans-6a" transform="translate(130.134766 0)"/>
      <use xlink:href="#DejaVuSans-75" transform="translate(157.917969 0)"/>
      <use xlink:href="#DejaVuSans-73" transform="translate(221.296875 0)"/>
      <use xlink:href="#DejaVuSans-74" transform="translate(273.396484 0)"/>
      <use xlink:href="#DejaVuSans-65" transform="translate(312.605469 0)"/>
      <use xlink:href="#DejaVuSans-64" transform="translate(374.128906 0)"/>
      <use xlink:href="#DejaVuSans-20" transform="translate(437.605469 0)"/>
      <use xlink:href="#DejaVuSans-46" transform="translate(469.392578 0)"/>
      <use xlink:href="#DejaVuSans-6f" transform="translate(523.287109 0)"/>
      <use xlink:href="#DejaVuSans-72" transform="translate(584.46875 0)"/>
      <use xlink:href="#DejaVuSans-63" transform="translate(623.332031 0)"/>
      <use xlink:href="#DejaVuSans-65" transform="translate(678.3125 0)"/>
     </g>
    </g>
   </g>
  </g>
 </g>
 <defs>
  <clipPath id="p6b2021294b">
   <rect x="57.17" y="26.88" width="385.136195" height="276.76"/>
  </clipPath>
 </defs>
</svg>
