<?xml version="1.0" encoding="utf-8" standalone="no"?>
<!DOCTYPE svg PUBLIC "-//W3C//DTD SVG 1.1//EN"
  "http://www.w3.org/Graphics/SVG/1.1/DTD/svg11.dtd">
<svg xmlns:xlink="http://www.w3.org/1999/xlink" width="460.8pt" height="345.6pt" viewBox="0 0 460.8 345.6" xmlns="http://www.w3.org/2000/svg" version="1.1">
 <metadata>
  <rdf:RDF xmlns:dc="http://purl.org/dc/elements/1.1/" xmlns:cc="http://creativecommons.org/ns#" xmlns:rdf="http://www.w3.org/1999/02/22-rdf-syntax-ns#">
   <cc:Work>
    <dc:type rdf:resource="http://purl.org/dc/dcmitype/StillImage"/>
    <dc:date>2025-07-28T21:14:20.944496</dc:date>
    <dc:format>image/svg+xml</dc:format>
    <dc:creator>
     <cc:Agent>
      <dc:title>Matplotlib v3.10.3, https://matplotlib.org/</dc:title>
     </cc:Agent>
    </dc:creator>
   </cc:Work>
  </rdf:RDF>
 </metadata>
 <defs>
  <style type="text/css">*{stroke-linejoin: round; stroke-linecap: butt}</style>
 </defs>
 <g id="figure_1">
  <g id="patch_1">
   <path d="M 0 345.6 
L 460.8 345.6 
L 460.8 0 
L 0 0 
z
" style="fill: #ffffff"/>
  </g>
  <g id="axes_1">
   <g id="patch_2">
    <path d="M 57.17 303.64 
L 442.307016 303.64 
L 442.307016 26.88 
L 57.17 26.88 
z
" style="fill: #ffffff"/>
   </g>
   <g id="matplotlib.axis_1">
    <g id="xtick_1">
     <g id="line2d_1">
      <path d="M 74.753108 303.64 
L 74.753108 26.88 
" clip-path="url(#p1bbc89e15a)" style="fill: none; stroke: #b0b0b0; stroke-opacity: 0.3; stroke-width: 0.8; stroke-linecap: square"/>
     </g>
     <g id="line2d_2">
      <defs>
       <path id="mb2920fe2a6" d="M 0 0 
L 0 3.5 
" style="stroke: #000000; stroke-width: 0.8"/>
      </defs>
      <g>
       <use xlink:href="#mb2920fe2a6" x="74.753108" y="303.64" style="stroke: #000000; stroke-width: 0.8"/>
      </g>
     </g>
     <g id="text_1">
      <!-- 0.00 -->
      <g transform="translate(63.620296 318.238437) scale(0.1 -0.1)">
       <defs>
        <path id="DejaVuSans-30" d="M 2034 4250 
Q 1547 4250 1301 3770 
Q 1056 3291 1056 2328 
Q 1056 1369 1301 889 
Q 1547 409 2034 409 
Q 2525 409 2770 889 
Q 3016 1369 3016 2328 
Q 3016 3291 2770 3770 
Q 2525 4250 2034 4250 
z
M 2034 4750 
Q 2819 4750 3233 4129 
Q 3647 3509 3647 2328 
Q 3647 1150 3233 529 
Q 2819 -91 2034 -91 
Q 1250 -91 836 529 
Q 422 1150 422 2328 
Q 422 3509 836 4129 
Q 1250 4750 2034 4750 
z
" transform="scale(0.015625)"/>
        <path id="DejaVuSans-2e" d="M 684 794 
L 1344 794 
L 1344 0 
L 684 0 
L 684 794 
z
" transform="scale(0.015625)"/>
       </defs>
       <use xlink:href="#DejaVuSans-30"/>
       <use xlink:href="#DejaVuSans-2e" transform="translate(63.623047 0)"/>
       <use xlink:href="#DejaVuSans-30" transform="translate(95.410156 0)"/>
       <use xlink:href="#DejaVuSans-30" transform="translate(159.033203 0)"/>
      </g>
     </g>
    </g>
    <g id="xtick_2">
     <g id="line2d_3">
      <path d="M 120.248169 303.64 
L 120.248169 26.88 
" clip-path="url(#p1bbc89e15a)" style="fill: none; stroke: #b0b0b0; stroke-opacity: 0.3; stroke-width: 0.8; stroke-linecap: square"/>
     </g>
     <g id="line2d_4">
      <g>
       <use xlink:href="#mb2920fe2a6" x="120.248169" y="303.64" style="stroke: #000000; stroke-width: 0.8"/>
      </g>
     </g>
     <g id="text_2">
      <!-- 0.05 -->
      <g transform="translate(109.115356 318.238437) scale(0.1 -0.1)">
       <defs>
        <path id="DejaVuSans-35" d="M 691 4666 
L 3169 4666 
L 3169 4134 
L 1269 4134 
L 1269 2991 
Q 1406 3038 1543 3061 
Q 1681 3084 1819 3084 
Q 2600 3084 3056 2656 
Q 3513 2228 3513 1497 
Q 3513 744 3044 326 
Q 2575 -91 1722 -91 
Q 1428 -91 1123 -41 
Q 819 9 494 109 
L 494 744 
Q 775 591 1075 516 
Q 1375 441 1709 441 
Q 2250 441 2565 725 
Q 2881 1009 2881 1497 
Q 2881 1984 2565 2268 
Q 2250 2553 1709 2553 
Q 1456 2553 1204 2497 
Q 953 2441 691 2322 
L 691 4666 
z
" transform="scale(0.015625)"/>
       </defs>
       <use xlink:href="#DejaVuSans-30"/>
       <use xlink:href="#DejaVuSans-2e" transform="translate(63.623047 0)"/>
       <use xlink:href="#DejaVuSans-30" transform="translate(95.410156 0)"/>
       <use xlink:href="#DejaVuSans-35" transform="translate(159.033203 0)"/>
      </g>
     </g>
    </g>
    <g id="xtick_3">
     <g id="line2d_5">
      <path d="M 165.74323 303.64 
L 165.74323 26.88 
" clip-path="url(#p1bbc89e15a)" style="fill: none; stroke: #b0b0b0; stroke-opacity: 0.3; stroke-width: 0.8; stroke-linecap: square"/>
     </g>
     <g id="line2d_6">
      <g>
       <use xlink:href="#mb2920fe2a6" x="165.74323" y="303.64" style="stroke: #000000; stroke-width: 0.8"/>
      </g>
     </g>
     <g id="text_3">
      <!-- 0.10 -->
      <g transform="translate(154.610417 318.238437) scale(0.1 -0.1)">
       <defs>
        <path id="DejaVuSans-31" d="M 794 531 
L 1825 531 
L 1825 4091 
L 703 3866 
L 703 4441 
L 1819 4666 
L 2450 4666 
L 2450 531 
L 3481 531 
L 3481 0 
L 794 0 
L 794 531 
z
" transform="scale(0.015625)"/>
       </defs>
       <use xlink:href="#DejaVuSans-30"/>
       <use xlink:href="#DejaVuSans-2e" transform="translate(63.623047 0)"/>
       <use xlink:href="#DejaVuSans-31" transform="translate(95.410156 0)"/>
       <use xlink:href="#DejaVuSans-30" transform="translate(159.033203 0)"/>
      </g>
     </g>
    </g>
    <g id="xtick_4">
     <g id="line2d_7">
      <path d="M 211.23829 303.64 
L 211.23829 26.88 
" clip-path="url(#p1bbc89e15a)" style="fill: none; stroke: #b0b0b0; stroke-opacity: 0.3; stroke-width: 0.8; stroke-linecap: square"/>
     </g>
     <g id="line2d_8">
      <g>
       <use xlink:href="#mb2920fe2a6" x="211.23829" y="303.64" style="stroke: #000000; stroke-width: 0.8"/>
      </g>
     </g>
     <g id="text_4">
      <!-- 0.15 -->
      <g transform="translate(200.105478 318.238437) scale(0.1 -0.1)">
       <use xlink:href="#DejaVuSans-30"/>
       <use xlink:href="#DejaVuSans-2e" transform="translate(63.623047 0)"/>
       <use xlink:href="#DejaVuSans-31" transform="translate(95.410156 0)"/>
       <use xlink:href="#DejaVuSans-35" transform="translate(159.033203 0)"/>
      </g>
     </g>
    </g>
    <g id="xtick_5">
     <g id="line2d_9">
      <path d="M 256.733351 303.64 
L 256.733351 26.88 
" clip-path="url(#p1bbc89e15a)" style="fill: none; stroke: #b0b0b0; stroke-opacity: 0.3; stroke-width: 0.8; stroke-linecap: square"/>
     </g>
     <g id="line2d_10">
      <g>
       <use xlink:href="#mb2920fe2a6" x="256.733351" y="303.64" style="stroke: #000000; stroke-width: 0.8"/>
      </g>
     </g>
     <g id="text_5">
      <!-- 0.20 -->
      <g transform="translate(245.600539 318.238437) scale(0.1 -0.1)">
       <defs>
        <path id="DejaVuSans-32" d="M 1228 531 
L 3431 531 
L 3431 0 
L 469 0 
L 469 531 
Q 828 903 1448 1529 
Q 2069 2156 2228 2338 
Q 2531 2678 2651 2914 
Q 2772 3150 2772 3378 
Q 2772 3750 2511 3984 
Q 2250 4219 1831 4219 
Q 1534 4219 1204 4116 
Q 875 4013 500 3803 
L 500 4441 
Q 881 4594 1212 4672 
Q 1544 4750 1819 4750 
Q 2544 4750 2975 4387 
Q 3406 4025 3406 3419 
Q 3406 3131 3298 2873 
Q 3191 2616 2906 2266 
Q 2828 2175 2409 1742 
Q 1991 1309 1228 531 
z
" transform="scale(0.015625)"/>
       </defs>
       <use xlink:href="#DejaVuSans-30"/>
       <use xlink:href="#DejaVuSans-2e" transform="translate(63.623047 0)"/>
       <use xlink:href="#DejaVuSans-32" transform="translate(95.410156 0)"/>
       <use xlink:href="#DejaVuSans-30" transform="translate(159.033203 0)"/>
      </g>
     </g>
    </g>
    <g id="xtick_6">
     <g id="line2d_11">
      <path d="M 302.228412 303.64 
L 302.228412 26.88 
" clip-path="url(#p1bbc89e15a)" style="fill: none; stroke: #b0b0b0; stroke-opacity: 0.3; stroke-width: 0.8; stroke-linecap: square"/>
     </g>
     <g id="line2d_12">
      <g>
       <use xlink:href="#mb2920fe2a6" x="302.228412" y="303.64" style="stroke: #000000; stroke-width: 0.8"/>
      </g>
     </g>
     <g id="text_6">
      <!-- 0.25 -->
      <g transform="translate(291.0956 318.238437) scale(0.1 -0.1)">
       <use xlink:href="#DejaVuSans-30"/>
       <use xlink:href="#DejaVuSans-2e" transform="translate(63.623047 0)"/>
       <use xlink:href="#DejaVuSans-32" transform="translate(95.410156 0)"/>
       <use xlink:href="#DejaVuSans-35" transform="translate(159.033203 0)"/>
      </g>
     </g>
    </g>
    <g id="xtick_7">
     <g id="line2d_13">
      <path d="M 347.723473 303.64 
L 347.723473 26.88 
" clip-path="url(#p1bbc89e15a)" style="fill: none; stroke: #b0b0b0; stroke-opacity: 0.3; stroke-width: 0.8; stroke-linecap: square"/>
     </g>
     <g id="line2d_14">
      <g>
       <use xlink:href="#mb2920fe2a6" x="347.723473" y="303.64" style="stroke: #000000; stroke-width: 0.8"/>
      </g>
     </g>
     <g id="text_7">
      <!-- 0.30 -->
      <g transform="translate(336.59066 318.238437) scale(0.1 -0.1)">
       <defs>
        <path id="DejaVuSans-33" d="M 2597 2516 
Q 3050 2419 3304 2112 
Q 3559 1806 3559 1356 
Q 3559 666 3084 287 
Q 2609 -91 1734 -91 
Q 1441 -91 1130 -33 
Q 819 25 488 141 
L 488 750 
Q 750 597 1062 519 
Q 1375 441 1716 441 
Q 2309 441 2620 675 
Q 2931 909 2931 1356 
Q 2931 1769 2642 2001 
Q 2353 2234 1838 2234 
L 1294 2234 
L 1294 2753 
L 1863 2753 
Q 2328 2753 2575 2939 
Q 2822 3125 2822 3475 
Q 2822 3834 2567 4026 
Q 2313 4219 1838 4219 
Q 1578 4219 1281 4162 
Q 984 4106 628 3988 
L 628 4550 
Q 988 4650 1302 4700 
Q 1616 4750 1894 4750 
Q 2613 4750 3031 4423 
Q 3450 4097 3450 3541 
Q 3450 3153 3228 2886 
Q 3006 2619 2597 2516 
z
" transform="scale(0.015625)"/>
       </defs>
       <use xlink:href="#DejaVuSans-30"/>
       <use xlink:href="#DejaVuSans-2e" transform="translate(63.623047 0)"/>
       <use xlink:href="#DejaVuSans-33" transform="translate(95.410156 0)"/>
       <use xlink:href="#DejaVuSans-30" transform="translate(159.033203 0)"/>
      </g>
     </g>
    </g>
    <g id="xtick_8">
     <g id="line2d_15">
      <path d="M 393.218534 303.64 
L 393.218534 26.88 
" clip-path="url(#p1bbc89e15a)" style="fill: none; stroke: #b0b0b0; stroke-opacity: 0.3; stroke-width: 0.8; stroke-linecap: square"/>
     </g>
     <g id="line2d_16">
      <g>
       <use xlink:href="#mb2920fe2a6" x="393.218534" y="303.64" style="stroke: #000000; stroke-width: 0.8"/>
      </g>
     </g>
     <g id="text_8">
      <!-- 0.35 -->
      <g transform="translate(382.085721 318.238437) scale(0.1 -0.1)">
       <use xlink:href="#DejaVuSans-30"/>
       <use xlink:href="#DejaVuSans-2e" transform="translate(63.623047 0)"/>
       <use xlink:href="#DejaVuSans-33" transform="translate(95.410156 0)"/>
       <use xlink:href="#DejaVuSans-35" transform="translate(159.033203 0)"/>
      </g>
     </g>
    </g>
    <g id="xtick_9">
     <g id="line2d_17">
      <path d="M 438.713594 303.64 
L 438.713594 26.88 
" clip-path="url(#p1bbc89e15a)" style="fill: none; stroke: #b0b0b0; stroke-opacity: 0.3; stroke-width: 0.8; stroke-linecap: square"/>
     </g>
     <g id="line2d_18">
      <g>
       <use xlink:href="#mb2920fe2a6" x="438.713594" y="303.64" style="stroke: #000000; stroke-width: 0.8"/>
      </g>
     </g>
     <g id="text_9">
      <!-- 0.40 -->
      <g transform="translate(427.580782 318.238437) scale(0.1 -0.1)">
       <defs>
        <path id="DejaVuSans-34" d="M 2419 4116 
L 825 1625 
L 2419 1625 
L 2419 4116 
z
M 2253 4666 
L 3047 4666 
L 3047 1625 
L 3713 1625 
L 3713 1100 
L 3047 1100 
L 3047 0 
L 2419 0 
L 2419 1100 
L 313 1100 
L 313 1709 
L 2253 4666 
z
" transform="scale(0.015625)"/>
       </defs>
       <use xlink:href="#DejaVuSans-30"/>
       <use xlink:href="#DejaVuSans-2e" transform="translate(63.623047 0)"/>
       <use xlink:href="#DejaVuSans-34" transform="translate(95.410156 0)"/>
       <use xlink:href="#DejaVuSans-30" transform="translate(159.033203 0)"/>
      </g>
     </g>
    </g>
    <g id="text_10">
     <!-- Strain [-] -->
     <g transform="translate(227.632258 331.916562) scale(0.1 -0.1)">
      <defs>
       <path id="DejaVuSans-53" d="M 3425 4513 
L 3425 3897 
Q 3066 4069 2747 4153 
Q 2428 4238 2131 4238 
Q 1616 4238 1336 4038 
Q 1056 3838 1056 3469 
Q 1056 3159 1242 3001 
Q 1428 2844 1947 2747 
L 2328 2669 
Q 3034 2534 3370 2195 
Q 3706 1856 3706 1288 
Q 3706 609 3251 259 
Q 2797 -91 1919 -91 
Q 1588 -91 1214 -16 
Q 841 59 441 206 
L 441 856 
Q 825 641 1194 531 
Q 1563 422 1919 422 
Q 2459 422 2753 634 
Q 3047 847 3047 1241 
Q 3047 1584 2836 1778 
Q 2625 1972 2144 2069 
L 1759 2144 
Q 1053 2284 737 2584 
Q 422 2884 422 3419 
Q 422 4038 858 4394 
Q 1294 4750 2059 4750 
Q 2388 4750 2728 4690 
Q 3069 4631 3425 4513 
z
" transform="scale(0.015625)"/>
       <path id="DejaVuSans-74" d="M 1172 4494 
L 1172 3500 
L 2356 3500 
L 2356 3053 
L 1172 3053 
L 1172 1153 
Q 1172 725 1289 603 
Q 1406 481 1766 481 
L 2356 481 
L 2356 0 
L 1766 0 
Q 1100 0 847 248 
Q 594 497 594 1153 
L 594 3053 
L 172 3053 
L 172 3500 
L 594 3500 
L 594 4494 
L 1172 4494 
z
" transform="scale(0.015625)"/>
       <path id="DejaVuSans-72" d="M 2631 2963 
Q 2534 3019 2420 3045 
Q 2306 3072 2169 3072 
Q 1681 3072 1420 2755 
Q 1159 2438 1159 1844 
L 1159 0 
L 581 0 
L 581 3500 
L 1159 3500 
L 1159 2956 
Q 1341 3275 1631 3429 
Q 1922 3584 2338 3584 
Q 2397 3584 2469 3576 
Q 2541 3569 2628 3553 
L 2631 2963 
z
" transform="scale(0.015625)"/>
       <path id="DejaVuSans-61" d="M 2194 1759 
Q 1497 1759 1228 1600 
Q 959 1441 959 1056 
Q 959 750 1161 570 
Q 1363 391 1709 391 
Q 2188 391 2477 730 
Q 2766 1069 2766 1631 
L 2766 1759 
L 2194 1759 
z
M 3341 1997 
L 3341 0 
L 2766 0 
L 2766 531 
Q 2569 213 2275 61 
Q 1981 -91 1556 -91 
Q 1019 -91 701 211 
Q 384 513 384 1019 
Q 384 1609 779 1909 
Q 1175 2209 1959 2209 
L 2766 2209 
L 2766 2266 
Q 2766 2663 2505 2880 
Q 2244 3097 1772 3097 
Q 1472 3097 1187 3025 
Q 903 2953 641 2809 
L 641 3341 
Q 956 3463 1253 3523 
Q 1550 3584 1831 3584 
Q 2591 3584 2966 3190 
Q 3341 2797 3341 1997 
z
" transform="scale(0.015625)"/>
       <path id="DejaVuSans-69" d="M 603 3500 
L 1178 3500 
L 1178 0 
L 603 0 
L 603 3500 
z
M 603 4863 
L 1178 4863 
L 1178 4134 
L 603 4134 
L 603 4863 
z
" transform="scale(0.015625)"/>
       <path id="DejaVuSans-6e" d="M 3513 2113 
L 3513 0 
L 2938 0 
L 2938 2094 
Q 2938 2591 2744 2837 
Q 2550 3084 2163 3084 
Q 1697 3084 1428 2787 
Q 1159 2491 1159 1978 
L 1159 0 
L 581 0 
L 581 3500 
L 1159 3500 
L 1159 2956 
Q 1366 3272 1645 3428 
Q 1925 3584 2291 3584 
Q 2894 3584 3203 3211 
Q 3513 2838 3513 2113 
z
" transform="scale(0.015625)"/>
       <path id="DejaVuSans-20" transform="scale(0.015625)"/>
       <path id="DejaVuSans-5b" d="M 550 4863 
L 1875 4863 
L 1875 4416 
L 1125 4416 
L 1125 -397 
L 1875 -397 
L 1875 -844 
L 550 -844 
L 550 4863 
z
" transform="scale(0.015625)"/>
       <path id="DejaVuSans-2d" d="M 313 2009 
L 1997 2009 
L 1997 1497 
L 313 1497 
L 313 2009 
z
" transform="scale(0.015625)"/>
       <path id="DejaVuSans-5d" d="M 1947 4863 
L 1947 -844 
L 622 -844 
L 622 -397 
L 1369 -397 
L 1369 4416 
L 622 4416 
L 622 4863 
L 1947 4863 
z
" transform="scale(0.015625)"/>
      </defs>
      <use xlink:href="#DejaVuSans-53"/>
      <use xlink:href="#DejaVuSans-74" transform="translate(63.476562 0)"/>
      <use xlink:href="#DejaVuSans-72" transform="translate(102.685547 0)"/>
      <use xlink:href="#DejaVuSans-61" transform="translate(143.798828 0)"/>
      <use xlink:href="#DejaVuSans-69" transform="translate(205.078125 0)"/>
      <use xlink:href="#DejaVuSans-6e" transform="translate(232.861328 0)"/>
      <use xlink:href="#DejaVuSans-20" transform="translate(296.240234 0)"/>
      <use xlink:href="#DejaVuSans-5b" transform="translate(328.027344 0)"/>
      <use xlink:href="#DejaVuSans-2d" transform="translate(367.041016 0)"/>
      <use xlink:href="#DejaVuSans-5d" transform="translate(403.125 0)"/>
     </g>
    </g>
   </g>
   <g id="matplotlib.axis_2">
    <g id="ytick_1">
     <g id="line2d_19">
      <path d="M 57.17 279.625746 
L 442.307016 279.625746 
" clip-path="url(#p1bbc89e15a)" style="fill: none; stroke: #b0b0b0; stroke-opacity: 0.3; stroke-width: 0.8; stroke-linecap: square"/>
     </g>
     <g id="line2d_20">
      <defs>
       <path id="m6a6629a971" d="M 0 0 
L -3.5 0 
" style="stroke: #000000; stroke-width: 0.8"/>
      </defs>
      <g>
       <use xlink:href="#m6a6629a971" x="57.17" y="279.625746" style="stroke: #000000; stroke-width: 0.8"/>
      </g>
     </g>
     <g id="text_11">
      <!-- 0 -->
      <g transform="translate(43.8075 283.424964) scale(0.1 -0.1)">
       <use xlink:href="#DejaVuSans-30"/>
      </g>
     </g>
    </g>
    <g id="ytick_2">
     <g id="line2d_21">
      <path d="M 57.17 243.492382 
L 442.307016 243.492382 
" clip-path="url(#p1bbc89e15a)" style="fill: none; stroke: #b0b0b0; stroke-opacity: 0.3; stroke-width: 0.8; stroke-linecap: square"/>
     </g>
     <g id="line2d_22">
      <g>
       <use xlink:href="#m6a6629a971" x="57.17" y="243.492382" style="stroke: #000000; stroke-width: 0.8"/>
      </g>
     </g>
     <g id="text_12">
      <!-- 250 -->
      <g transform="translate(31.0825 247.2916) scale(0.1 -0.1)">
       <use xlink:href="#DejaVuSans-32"/>
       <use xlink:href="#DejaVuSans-35" transform="translate(63.623047 0)"/>
       <use xlink:href="#DejaVuSans-30" transform="translate(127.246094 0)"/>
      </g>
     </g>
    </g>
    <g id="ytick_3">
     <g id="line2d_23">
      <path d="M 57.17 207.359017 
L 442.307016 207.359017 
" clip-path="url(#p1bbc89e15a)" style="fill: none; stroke: #b0b0b0; stroke-opacity: 0.3; stroke-width: 0.8; stroke-linecap: square"/>
     </g>
     <g id="line2d_24">
      <g>
       <use xlink:href="#m6a6629a971" x="57.17" y="207.359017" style="stroke: #000000; stroke-width: 0.8"/>
      </g>
     </g>
     <g id="text_13">
      <!-- 500 -->
      <g transform="translate(31.0825 211.158236) scale(0.1 -0.1)">
       <use xlink:href="#DejaVuSans-35"/>
       <use xlink:href="#DejaVuSans-30" transform="translate(63.623047 0)"/>
       <use xlink:href="#DejaVuSans-30" transform="translate(127.246094 0)"/>
      </g>
     </g>
    </g>
    <g id="ytick_4">
     <g id="line2d_25">
      <path d="M 57.17 171.225653 
L 442.307016 171.225653 
" clip-path="url(#p1bbc89e15a)" style="fill: none; stroke: #b0b0b0; stroke-opacity: 0.3; stroke-width: 0.8; stroke-linecap: square"/>
     </g>
     <g id="line2d_26">
      <g>
       <use xlink:href="#m6a6629a971" x="57.17" y="171.225653" style="stroke: #000000; stroke-width: 0.8"/>
      </g>
     </g>
     <g id="text_14">
      <!-- 750 -->
      <g transform="translate(31.0825 175.024872) scale(0.1 -0.1)">
       <defs>
        <path id="DejaVuSans-37" d="M 525 4666 
L 3525 4666 
L 3525 4397 
L 1831 0 
L 1172 0 
L 2766 4134 
L 525 4134 
L 525 4666 
z
" transform="scale(0.015625)"/>
       </defs>
       <use xlink:href="#DejaVuSans-37"/>
       <use xlink:href="#DejaVuSans-35" transform="translate(63.623047 0)"/>
       <use xlink:href="#DejaVuSans-30" transform="translate(127.246094 0)"/>
      </g>
     </g>
    </g>
    <g id="ytick_5">
     <g id="line2d_27">
      <path d="M 57.17 135.092289 
L 442.307016 135.092289 
" clip-path="url(#p1bbc89e15a)" style="fill: none; stroke: #b0b0b0; stroke-opacity: 0.3; stroke-width: 0.8; stroke-linecap: square"/>
     </g>
     <g id="line2d_28">
      <g>
       <use xlink:href="#m6a6629a971" x="57.17" y="135.092289" style="stroke: #000000; stroke-width: 0.8"/>
      </g>
     </g>
     <g id="text_15">
      <!-- 1000 -->
      <g transform="translate(24.72 138.891508) scale(0.1 -0.1)">
       <use xlink:href="#DejaVuSans-31"/>
       <use xlink:href="#DejaVuSans-30" transform="translate(63.623047 0)"/>
       <use xlink:href="#DejaVuSans-30" transform="translate(127.246094 0)"/>
       <use xlink:href="#DejaVuSans-30" transform="translate(190.869141 0)"/>
      </g>
     </g>
    </g>
    <g id="ytick_6">
     <g id="line2d_29">
      <path d="M 57.17 98.958925 
L 442.307016 98.958925 
" clip-path="url(#p1bbc89e15a)" style="fill: none; stroke: #b0b0b0; stroke-opacity: 0.3; stroke-width: 0.8; stroke-linecap: square"/>
     </g>
     <g id="line2d_30">
      <g>
       <use xlink:href="#m6a6629a971" x="57.17" y="98.958925" style="stroke: #000000; stroke-width: 0.8"/>
      </g>
     </g>
     <g id="text_16">
      <!-- 1250 -->
      <g transform="translate(24.72 102.758144) scale(0.1 -0.1)">
       <use xlink:href="#DejaVuSans-31"/>
       <use xlink:href="#DejaVuSans-32" transform="translate(63.623047 0)"/>
       <use xlink:href="#DejaVuSans-35" transform="translate(127.246094 0)"/>
       <use xlink:href="#DejaVuSans-30" transform="translate(190.869141 0)"/>
      </g>
     </g>
    </g>
    <g id="ytick_7">
     <g id="line2d_31">
      <path d="M 57.17 62.825561 
L 442.307016 62.825561 
" clip-path="url(#p1bbc89e15a)" style="fill: none; stroke: #b0b0b0; stroke-opacity: 0.3; stroke-width: 0.8; stroke-linecap: square"/>
     </g>
     <g id="line2d_32">
      <g>
       <use xlink:href="#m6a6629a971" x="57.17" y="62.825561" style="stroke: #000000; stroke-width: 0.8"/>
      </g>
     </g>
     <g id="text_17">
      <!-- 1500 -->
      <g transform="translate(24.72 66.62478) scale(0.1 -0.1)">
       <use xlink:href="#DejaVuSans-31"/>
       <use xlink:href="#DejaVuSans-35" transform="translate(63.623047 0)"/>
       <use xlink:href="#DejaVuSans-30" transform="translate(127.246094 0)"/>
       <use xlink:href="#DejaVuSans-30" transform="translate(190.869141 0)"/>
      </g>
     </g>
    </g>
    <g id="text_18">
     <!-- Stress [Pa] -->
     <g transform="translate(18.640312 191.967812) rotate(-90) scale(0.1 -0.1)">
      <defs>
       <path id="DejaVuSans-65" d="M 3597 1894 
L 3597 1613 
L 953 1613 
Q 991 1019 1311 708 
Q 1631 397 2203 397 
Q 2534 397 2845 478 
Q 3156 559 3463 722 
L 3463 178 
Q 3153 47 2828 -22 
Q 2503 -91 2169 -91 
Q 1331 -91 842 396 
Q 353 884 353 1716 
Q 353 2575 817 3079 
Q 1281 3584 2069 3584 
Q 2775 3584 3186 3129 
Q 3597 2675 3597 1894 
z
M 3022 2063 
Q 3016 2534 2758 2815 
Q 2500 3097 2075 3097 
Q 1594 3097 1305 2825 
Q 1016 2553 972 2059 
L 3022 2063 
z
" transform="scale(0.015625)"/>
       <path id="DejaVuSans-73" d="M 2834 3397 
L 2834 2853 
Q 2591 2978 2328 3040 
Q 2066 3103 1784 3103 
Q 1356 3103 1142 2972 
Q 928 2841 928 2578 
Q 928 2378 1081 2264 
Q 1234 2150 1697 2047 
L 1894 2003 
Q 2506 1872 2764 1633 
Q 3022 1394 3022 966 
Q 3022 478 2636 193 
Q 2250 -91 1575 -91 
Q 1294 -91 989 -36 
Q 684 19 347 128 
L 347 722 
Q 666 556 975 473 
Q 1284 391 1588 391 
Q 1994 391 2212 530 
Q 2431 669 2431 922 
Q 2431 1156 2273 1281 
Q 2116 1406 1581 1522 
L 1381 1569 
Q 847 1681 609 1914 
Q 372 2147 372 2553 
Q 372 3047 722 3315 
Q 1072 3584 1716 3584 
Q 2034 3584 2315 3537 
Q 2597 3491 2834 3397 
z
" transform="scale(0.015625)"/>
       <path id="DejaVuSans-50" d="M 1259 4147 
L 1259 2394 
L 2053 2394 
Q 2494 2394 2734 2622 
Q 2975 2850 2975 3272 
Q 2975 3691 2734 3919 
Q 2494 4147 2053 4147 
L 1259 4147 
z
M 628 4666 
L 2053 4666 
Q 2838 4666 3239 4311 
Q 3641 3956 3641 3272 
Q 3641 2581 3239 2228 
Q 2838 1875 2053 1875 
L 1259 1875 
L 1259 0 
L 628 0 
L 628 4666 
z
" transform="scale(0.015625)"/>
      </defs>
      <use xlink:href="#DejaVuSans-53"/>
      <use xlink:href="#DejaVuSans-74" transform="translate(63.476562 0)"/>
      <use xlink:href="#DejaVuSans-72" transform="translate(102.685547 0)"/>
      <use xlink:href="#DejaVuSans-65" transform="translate(141.548828 0)"/>
      <use xlink:href="#DejaVuSans-73" transform="translate(203.072266 0)"/>
      <use xlink:href="#DejaVuSans-73" transform="translate(255.171875 0)"/>
      <use xlink:href="#DejaVuSans-20" transform="translate(307.271484 0)"/>
      <use xlink:href="#DejaVuSans-5b" transform="translate(339.058594 0)"/>
      <use xlink:href="#DejaVuSans-50" transform="translate(378.072266 0)"/>
      <use xlink:href="#DejaVuSans-61" transform="translate(433.875 0)"/>
      <use xlink:href="#DejaVuSans-5d" transform="translate(495.154297 0)"/>
     </g>
    </g>
   </g>
   <g id="line2d_33">
    <path d="M 74.753108 279.172515 
L 74.753454 279.472314 
L 74.754178 279.138037 
L 74.753255 279.227723 
L 75.481423 267.361148 
L 76.280554 261.967523 
L 76.655422 260.033366 
L 77.093301 258.595665 
L 77.464965 257.954316 
L 77.874543 257.645996 
L 78.320966 257.562879 
L 81.318841 257.965688 
L 82.700832 258.244243 
L 85.868517 259.121746 
L 88.260836 259.675766 
L 89.536027 260.269941 
L 90.193914 260.782122 
L 91.541729 262.264751 
L 93.28684 264.771742 
L 95.089623 267.858306 
L 97.29885 271.633842 
L 98.791913 273.61742 
L 101.427736 276.847754 
L 104.443766 280.792446 
L 105.569437 281.821301 
L 106.3149 282.281815 
L 107.427756 282.650225 
L 108.534203 282.723769 
L 109.999496 282.550655 
L 113.250486 281.80232 
L 116.804787 280.79256 
L 118.910882 279.974306 
L 124.445254 277.522352 
L 127.187876 276.021752 
L 130.601202 274.07861 
L 140.1897 269.437531 
L 146.420408 267.092282 
L 151.31398 264.920006 
L 155.549665 263.246994 
L 159.103967 261.991813 
L 163.032068 260.773136 
L 171.964814 258.177412 
L 175.519116 256.829568 
L 178.349314 255.523281 
L 181.166696 254.286634 
L 186.760877 251.989121 
L 192.991584 248.864368 
L 196.432678 247.126771 
L 202.612122 243.4348 
L 208.114454 240.058452 
L 210.880572 238.551112 
L 213.659507 237.307726 
L 216.799433 235.785785 
L 222.780229 232.768859 
L 229.886696 229.558743 
L 241.280112 224.677861 
L 250.447818 219.705437 
L 253.592008 217.931899 
L 258.107509 215.332805 
L 262.242802 212.730342 
L 265.673216 210.249184 
L 275.282039 203.250072 
L 302.612141 185.08225 
L 307.950001 181.677819 
L 313.984197 177.53769 
L 317.519275 174.925118 
L 321.740008 171.517317 
L 335.290783 159.719185 
L 338.740421 156.183339 
L 343.569914 151.155879 
L 348.416494 146.530525 
L 356.424336 138.838826 
L 361.685301 133.323895 
L 370.897863 123.63513 
L 376.237859 118.508828 
L 380.146736 114.238407 
L 383.335782 110.432993 
L 387.2233 105.758218 
L 389.686106 103.233256 
L 392.484264 100.777933 
L 396.608877 97.499301 
L 402.523457 92.84699 
L 407.933942 88.299138 
L 413.584726 83.754656 
L 415.721793 81.741874 
L 416.862416 80.346855 
L 417.731767 78.999011 
L 419.111622 76.37296 
L 420.267198 73.657053 
L 421.487387 70.154904 
L 422.257681 67.462584 
L 422.982052 63.97616 
L 424.061465 57.079021 
L 424.416074 56.173368 
L 424.639119 56.23618 
L 424.800788 57.877532 
L 424.715248 72.219142 
L 424.715214 75.991352 
L 424.710141 75.954093 
L 424.354831 76.358481 
L 423.641608 78.863226 
L 422.897213 78.655503 
L 422.523146 78.996817 
L 422.16016 79.544379 
L 421.430716 80.188677 
L 421.053045 80.254454 
L 420.330677 82.113637 
L 418.876195 83.277873 
L 418.510406 83.717748 
L 418.154294 84.593215 
L 417.791976 86.19378 
L 417.436065 86.88413 
L 416.719805 87.669126 
L 416.369501 87.879516 
L 416.008918 88.337432 
L 414.222155 91.615924 
L 413.505394 92.49083 
L 412.787965 93.663454 
L 409.910508 97.917097 
L 408.492606 99.959012 
L 407.789195 101.082602 
L 406.035139 103.272919 
L 404.575852 105.433402 
L 401.001258 109.93615 
L 399.565867 111.908847 
L 398.479111 113.379788 
L 397.752872 114.549464 
L 396.328694 116.105312 
L 395.236865 117.683519 
L 394.16366 118.69707 
L 392.022855 121.627579 
L 391.311434 122.387707 
L 390.600547 123.376828 
L 389.536386 124.563353 
L 388.108871 126.255249 
L 387.393846 127.192913 
L 387.034598 127.395055 
L 385.598005 129.08309 
L 384.882712 130.128722 
L 384.170757 130.774951 
L 383.455999 131.407139 
L 382.003787 133.24843 
L 380.942229 134.292641 
L 375.66431 140.23109 
L 374.583094 141.210242 
L 373.858724 141.962824 
L 372.408514 143.755817 
L 370.583036 145.515246 
L 369.504491 146.750489 
L 366.987884 149.329927 
L 365.912676 150.201147 
L 364.093973 152.167684 
L 363.376678 152.867159 
L 361.202699 155.054177 
L 360.848657 155.303247 
L 360.141508 155.995983 
L 359.424747 156.65232 
L 358.329246 157.731825 
L 356.53167 159.269596 
L 355.80196 160.220809 
L 354.008405 161.565916 
L 353.295249 162.437171 
L 352.212097 163.410392 
L 351.857788 163.61843 
L 350.05347 165.434089 
L 348.268443 166.752976 
L 347.199242 167.775934 
L 346.496365 168.50599 
L 345.778937 169.016592 
L 345.4289 169.156685 
L 345.062309 169.428571 
L 344.345548 170.157495 
L 343.64227 170.767746 
L 342.910824 171.224749 
L 341.814924 172.349497 
L 341.108442 172.880527 
L 340.405031 173.290865 
L 336.827667 176.570997 
L 335.403223 177.684654 
L 333.954349 178.857244 
L 333.596703 178.97518 
L 332.887017 179.50628 
L 331.437074 180.977256 
L 330.353589 181.752547 
L 329.636962 182.538299 
L 328.215204 183.364898 
L 327.852485 183.573778 
L 326.763793 184.508459 
L 326.047566 185.02587 
L 324.230499 186.567783 
L 323.161432 187.103429 
L 322.104913 187.934354 
L 321.395495 188.45008 
L 320.68394 188.836602 
L 316.73271 191.863058 
L 316.010943 192.290454 
L 314.57969 193.519713 
L 312.80788 194.616337 
L 312.103934 195.204264 
L 311.75323 195.391558 
L 311.028226 196.01054 
L 308.510551 197.464589 
L 307.417053 198.26352 
L 306.332633 198.990637 
L 305.60873 199.742569 
L 304.193898 200.266096 
L 303.832914 200.552513 
L 303.477137 201.022293 
L 302.765382 201.464757 
L 301.331042 202.417663 
L 300.60547 203.071579 
L 300.252897 203.3561 
L 299.547617 203.637112 
L 297.75725 204.898505 
L 296.318655 205.596111 
L 294.877256 206.71605 
L 294.169306 207.040656 
L 292.010396 208.521596 
L 291.281486 209.034268 
L 290.564458 209.456733 
L 289.49499 210.051312 
L 288.043446 211.067408 
L 286.981187 211.560915 
L 286.627679 211.758073 
L 285.9228 212.36376 
L 284.13864 213.150534 
L 283.047545 214.131617 
L 282.693637 214.325335 
L 281.983952 214.46173 
L 280.895927 215.131984 
L 279.821654 215.874738 
L 279.471483 215.913396 
L 279.108631 216.099962 
L 278.385528 216.67069 
L 277.678513 216.982129 
L 276.610513 217.55935 
L 275.887011 218.219434 
L 274.101182 219.170463 
L 273.388894 219.750317 
L 271.949231 220.252635 
L 270.518245 221.292643 
L 269.443571 221.798611 
L 267.267939 222.815387 
L 266.551979 223.251773 
L 266.196736 223.337418 
L 264.078894 224.72833 
L 262.286924 225.584624 
L 261.571632 226.103614 
L 250.801076 231.658809 
L 250.078007 231.879124 
L 248.991384 232.698431 
L 247.913106 232.906539 
L 247.201017 233.318878 
L 246.475178 233.904668 
L 245.416123 234.199426 
L 243.620416 235.315566 
L 242.902854 235.47324 
L 241.827646 236.1451 
L 240.047508 236.784493 
L 239.319533 237.400359 
L 235.738798 239.047876 
L 235.034853 239.525097 
L 233.243685 240.207592 
L 232.172098 240.728838 
L 231.821126 240.7708 
L 229.677919 241.855069 
L 228.600441 242.303372 
L 226.814012 243.254904 
L 226.459169 243.305742 
L 225.751219 243.614621 
L 225.022577 243.95082 
L 224.299742 244.472233 
L 223.240854 244.893083 
L 222.515749 245.126782 
L 221.802392 245.643807 
L 220.737196 245.919428 
L 220.385024 246.061636 
L 219.654779 246.582031 
L 218.222191 247.123384 
L 217.520249 247.558029 
L 217.154726 247.674033 
L 216.425416 248.062288 
L 213.194718 249.442686 
L 212.47195 249.693294 
L 204.217292 253.235767 
L 203.86058 253.477326 
L 203.501065 253.499084 
L 201.70202 254.311362 
L 200.2705 254.688484 
L 199.552337 255.284783 
L 198.476462 255.649238 
L 198.122019 255.649023 
L 196.670508 256.407489 
L 195.574474 256.840843 
L 194.851906 257.140419 
L 193.776564 257.468578 
L 193.420119 257.467034 
L 192.7103 257.891096 
L 192.001416 258.083366 
L 191.651245 258.373644 
L 190.924472 258.76078 
L 190.201169 259.217731 
L 189.483474 259.248437 
L 188.413405 259.786426 
L 187.694375 260.324195 
L 186.622504 260.624002 
L 185.564918 260.893317 
L 184.4825 261.480945 
L 183.418907 261.704117 
L 181.972302 262.487219 
L 181.253939 262.638139 
L 180.536243 262.961938 
L 179.825431 263.282794 
L 179.118015 263.424529 
L 178.389973 263.801766 
L 177.665669 264.211841 
L 175.877171 264.486248 
L 175.16822 265.014084 
L 174.444116 265.305179 
L 173.735632 265.466297 
L 171.60177 266.389273 
L 170.872577 266.670259 
L 170.520003 266.833233 
L 169.802041 266.900461 
L 169.082476 267.19467 
L 167.98978 267.723436 
L 166.210359 268.333114 
L 165.849909 268.573269 
L 164.784714 268.80499 
L 164.084373 269.057872 
L 162.625353 269.664744 
L 161.907165 269.672184 
L 161.181726 270.052705 
L 158.311011 271.094373 
L 157.955234 271.37405 
L 156.882161 271.575069 
L 155.088123 272.112626 
L 151.084919 273.682612 
L 149.653266 273.964538 
L 148.580061 274.68216 
L 148.218543 274.701065 
L 147.851685 274.591673 
L 147.135592 274.709343 
L 146.424371 275.334757 
L 145.711615 275.524723 
L 145.002196 275.582664 
L 143.909833 276.137047 
L 142.482319 276.401045 
L 141.764957 277.001081 
L 141.41492 277.185278 
L 140.33811 277.297627 
L 138.891104 278.081321 
L 137.826643 278.07607 
L 137.475004 278.329773 
L 137.108347 278.733003 
L 136.745561 278.909381 
L 135.316377 278.857614 
L 134.228553 279.414881 
L 133.16309 279.710565 
L 132.437385 280.194122 
L 131.362978 280.362439 
L 131.009737 280.325785 
L 130.284832 280.72196 
L 127.407792 281.464337 
L 124.179231 282.564509 
L 123.461402 282.66125 
L 121.664493 283.417668 
L 121.313121 283.562281 
L 120.592622 283.609883 
L 119.8804 283.817021 
L 119.159233 284.2411 
L 116.285744 284.97992 
L 115.921156 284.94391 
L 115.564511 285.108634 
L 115.206664 285.427835 
L 114.840073 285.558976 
L 114.48443 285.490282 
L 113.414561 285.870259 
L 113.064257 286.093057 
L 112.707679 286.168844 
L 112.349766 286.124862 
L 111.635007 286.3332 
L 110.914308 286.747302 
L 109.471589 286.782611 
L 108.750756 287.271022 
L 107.679019 287.20752 
L 107.316967 287.279517 
L 106.96366 287.703877 
L 106.600407 287.927264 
L 105.527334 287.798104 
L 105.166484 287.882634 
L 104.815179 288.275369 
L 104.449056 288.440095 
L 103.019605 288.45492 
L 102.661025 288.94196 
L 102.299307 289.052337 
L 101.931514 288.799195 
L 100.854775 288.557472 
L 100.144155 289.55464 
L 99.072017 289.016731 
L 98.350984 288.911201 
L 97.999078 289.804008 
L 97.642767 290.067555 
L 96.923336 289.515009 
L 96.564889 289.357936 
L 96.206041 289.024134 
L 95.853134 289.216684 
L 95.502229 290.178708 
L 95.142314 290.206385 
L 94.436233 289.665281 
L 94.072712 289.507261 
L 93.710327 289.143308 
L 93.353014 289.679102 
L 92.989094 290.45485 
L 91.917478 289.841469 
L 91.209128 289.638022 
L 90.851815 290.473124 
L 90.492434 290.842829 
L 90.130782 290.378805 
L 89.061315 289.780662 
L 88.699396 289.987481 
L 88.348625 291.06 
L 87.993582 290.947855 
L 87.642878 290.428233 
L 86.581821 289.604433 
L 86.222506 289.832044 
L 85.872402 290.827484 
L 85.519295 290.69721 
L 84.785846 289.908299 
L 84.068151 289.368459 
L 83.716712 289.790319 
L 83.354409 290.699886 
L 82.98695 290.557698 
L 81.904399 289.386617 
L 81.554363 288.994408 
L 81.194647 289.069338 
L 80.832729 289.803212 
L 80.481023 289.611442 
L 79.744905 288.177392 
L 79.393133 287.826883 
L 79.042295 287.144957 
L 78.68872 286.927793 
L 78.33568 287.305856 
L 77.979769 285.841058 
L 77.264209 282.087311 
L 76.540506 279.195903 
L 76.183394 278.848307 
L 75.825948 279.777197 
L 75.4667 279.399173 
L 74.853695 278.531946 
L 74.702707 278.392534 
L 74.676228 279.37528 
L 74.676645 279.373995 
" clip-path="url(#p1bbc89e15a)" style="fill: none; stroke: #ff0000; stroke-width: 2; stroke-linecap: square"/>
   </g>
   <g id="line2d_34">
    <path d="M 74.753108 279.172515 
L 74.753454 279.472314 
L 74.754178 279.138037 
L 74.753255 279.227723 
L 75.481423 267.361148 
L 76.280554 261.967523 
L 76.655422 260.033366 
L 77.093301 279.862215 
L 77.464965 279.078219 
L 77.874543 278.570812 
L 78.320966 278.254068 
L 81.764196 277.49408 
L 82.700832 277.50447 
L 87.039044 278.333781 
L 88.260836 278.28801 
L 89.536027 277.842097 
L 92.231657 276.685197 
L 93.643552 276.197727 
L 94.724367 276.0899 
L 95.820135 276.319033 
L 97.670514 276.844018 
L 98.791913 276.808075 
L 100.671592 276.617131 
L 101.049664 276.666552 
L 101.427736 276.847754 
L 104.443766 280.792446 
L 105.569437 281.821301 
L 106.3149 282.281815 
L 107.427756 282.650225 
L 108.534203 282.723769 
L 109.999496 282.550655 
L 111.449839 282.238124 
L 111.812959 282.064222 
L 112.891638 280.771976 
L 113.966045 279.801528 
L 115.036181 279.159617 
L 115.745332 278.893487 
L 116.097772 281.02394 
L 118.210274 280.264093 
L 123.069671 278.181673 
L 125.818701 276.800132 
L 135.385839 271.58959 
L 139.501908 269.709347 
L 142.259482 268.733283 
L 145.029872 267.714537 
L 155.904241 263.110524 
L 159.460679 261.870507 
L 163.032068 260.773136 
L 171.964814 258.177412 
L 175.519116 256.829568 
L 178.349314 255.523281 
L 181.166696 254.286634 
L 186.760877 251.989121 
L 192.991584 248.864368 
L 196.432678 247.126771 
L 202.612122 243.4348 
L 208.114454 240.058452 
L 210.880572 238.551112 
L 213.659507 237.307726 
L 216.799433 235.785785 
L 222.780229 232.768859 
L 229.886696 229.558743 
L 241.280112 224.677861 
L 250.447818 219.705437 
L 253.592008 217.931899 
L 258.107509 215.332805 
L 262.242802 212.730342 
L 265.673216 210.249184 
L 275.282039 203.250072 
L 302.612141 185.08225 
L 307.950001 181.677819 
L 313.984197 177.53769 
L 317.519275 174.925118 
L 321.740008 171.517317 
L 335.290783 159.719185 
L 338.740421 156.183339 
L 343.569914 151.155879 
L 348.416494 146.530525 
L 356.424336 138.838826 
L 361.685301 133.323895 
L 370.897863 123.63513 
L 376.237859 118.508828 
L 380.146736 114.238407 
L 382.274191 111.735909 
L 382.628767 112.761702 
L 385.104389 109.515608 
L 389.686106 103.233256 
L 392.484264 100.777933 
L 396.608877 97.499301 
L 402.523457 92.84699 
L 406.197375 89.648098 
L 407.933942 87.755499 
L 410.653068 83.864721 
L 412.650227 80.327753 
L 415.317021 74.992534 
L 416.493956 72.257533 
L 418.676947 66.160783 
L 419.90568 61.992574 
L 421.898032 54.065002 
L 422.626942 50.481981 
L 423.340633 45.919528 
L 424.061465 40.673499 
L 424.416074 39.566792 
L 424.639119 39.46 
L 424.800788 40.962917 
L 424.744251 44.298582 
L 424.715214 75.991352 
L 424.710141 75.954093 
L 424.354831 76.358481 
L 423.641608 78.863226 
L 422.897213 78.655503 
L 422.523146 78.996817 
L 422.16016 79.544379 
L 421.430716 80.188677 
L 421.053045 80.254454 
L 420.330677 82.113637 
L 418.876195 83.277873 
L 418.510406 83.717748 
L 418.154294 84.593215 
L 417.791976 86.19378 
L 417.436065 86.88413 
L 416.719805 87.669126 
L 416.369501 87.879516 
L 416.008918 88.337432 
L 414.222155 91.615924 
L 413.505394 92.49083 
L 412.787965 93.663454 
L 409.910508 97.917097 
L 408.492606 99.959012 
L 407.789195 101.082602 
L 406.035139 103.272919 
L 404.575852 105.433402 
L 401.001258 109.93615 
L 399.565867 111.908847 
L 398.479111 113.379788 
L 397.752872 114.549464 
L 396.328694 116.105312 
L 395.236865 117.683519 
L 394.16366 118.69707 
L 392.022855 121.627579 
L 391.311434 122.387707 
L 390.600547 123.376828 
L 389.536386 124.563353 
L 388.108871 126.255249 
L 387.393846 127.192913 
L 387.034598 127.395055 
L 385.598005 129.08309 
L 384.882712 130.128722 
L 384.170757 130.774951 
L 383.455999 131.407139 
L 382.003787 133.24843 
L 380.942229 134.292641 
L 375.66431 140.23109 
L 374.583094 141.210242 
L 373.858724 141.962824 
L 372.408514 143.755817 
L 370.583036 145.515246 
L 369.504491 146.750489 
L 366.987884 149.329927 
L 365.912676 150.201147 
L 364.093973 152.167684 
L 363.376678 152.867159 
L 361.202699 155.054177 
L 360.848657 155.303247 
L 360.141508 155.995983 
L 359.424747 156.65232 
L 358.329246 157.731825 
L 356.53167 159.269596 
L 355.80196 160.220809 
L 354.008405 161.565916 
L 353.295249 162.437171 
L 352.212097 163.410392 
L 351.857788 163.61843 
L 350.05347 165.434089 
L 348.268443 166.752976 
L 347.199242 167.775934 
L 346.496365 168.50599 
L 345.778937 169.016592 
L 345.4289 169.156685 
L 345.062309 169.428571 
L 344.345548 170.157495 
L 343.64227 170.767746 
L 342.910824 171.224749 
L 341.814924 172.349497 
L 341.108442 172.880527 
L 340.405031 173.290865 
L 336.827667 176.570997 
L 335.403223 177.684654 
L 333.954349 178.857244 
L 333.596703 178.97518 
L 332.887017 179.50628 
L 331.437074 180.977256 
L 330.353589 181.752547 
L 329.636962 182.538299 
L 328.215204 183.364898 
L 327.852485 183.573778 
L 326.763793 184.508459 
L 326.047566 185.02587 
L 324.230499 186.567783 
L 323.161432 187.103429 
L 322.104913 187.934354 
L 321.395495 188.45008 
L 320.68394 188.836602 
L 316.73271 191.863058 
L 316.010943 192.290454 
L 314.57969 193.519713 
L 312.80788 194.616337 
L 312.103934 195.204264 
L 311.75323 195.391558 
L 311.028226 196.01054 
L 308.510551 197.464589 
L 307.417053 198.26352 
L 306.332633 198.990637 
L 305.60873 199.742569 
L 304.193898 200.266096 
L 303.832914 200.552513 
L 303.477137 201.022293 
L 302.765382 201.464757 
L 301.331042 202.417663 
L 300.60547 203.071579 
L 300.252897 203.3561 
L 299.547617 203.637112 
L 297.75725 204.898505 
L 296.318655 205.596111 
L 294.877256 206.71605 
L 294.169306 207.040656 
L 292.010396 208.521596 
L 291.281486 209.034268 
L 290.564458 209.456733 
L 289.49499 210.051312 
L 288.043446 211.067408 
L 286.981187 211.560915 
L 286.627679 211.758073 
L 285.9228 212.36376 
L 284.13864 213.150534 
L 283.047545 214.131617 
L 282.693637 214.325335 
L 281.983952 214.46173 
L 280.895927 215.131984 
L 279.821654 215.874738 
L 279.471483 215.913396 
L 279.108631 216.099962 
L 278.385528 216.67069 
L 277.678513 216.982129 
L 276.610513 217.55935 
L 275.887011 218.219434 
L 274.101182 219.170463 
L 273.388894 219.750317 
L 271.949231 220.252635 
L 270.518245 221.292643 
L 269.443571 221.798611 
L 267.267939 222.815387 
L 266.551979 223.251773 
L 266.196736 223.337418 
L 264.078894 224.72833 
L 262.286924 225.584624 
L 261.571632 226.103614 
L 250.801076 231.658809 
L 250.078007 231.879124 
L 248.991384 232.698431 
L 247.913106 232.906539 
L 247.201017 233.318878 
L 246.475178 233.904668 
L 245.416123 234.199426 
L 243.620416 235.315566 
L 242.902854 235.47324 
L 241.827646 236.1451 
L 240.047508 236.784493 
L 239.319533 237.400359 
L 235.738798 239.047876 
L 235.034853 239.525097 
L 233.243685 240.207592 
L 232.172098 240.728838 
L 231.821126 240.7708 
L 229.677919 241.855069 
L 228.600441 242.303372 
L 226.814012 243.254904 
L 226.459169 243.305742 
L 225.751219 243.614621 
L 225.022577 243.95082 
L 224.299742 244.472233 
L 223.240854 244.893083 
L 222.515749 245.126782 
L 221.802392 245.643807 
L 220.737196 245.919428 
L 220.385024 246.061636 
L 219.654779 246.582031 
L 218.222191 247.123384 
L 217.520249 247.558029 
L 217.154726 247.674033 
L 216.425416 248.062288 
L 213.194718 249.442686 
L 212.47195 249.693294 
L 204.217292 253.235767 
L 203.86058 253.477326 
L 203.501065 253.499084 
L 201.70202 254.311362 
L 200.2705 254.688484 
L 199.552337 255.284783 
L 198.476462 255.649238 
L 198.122019 255.649023 
L 196.670508 256.407489 
L 195.574474 256.840843 
L 194.851906 257.140419 
L 193.776564 257.468578 
L 193.420119 257.467034 
L 192.7103 257.891096 
L 192.001416 258.083366 
L 191.651245 258.373644 
L 190.924472 258.76078 
L 190.201169 259.217731 
L 189.483474 259.248437 
L 188.413405 259.786426 
L 187.694375 260.324195 
L 186.622504 260.624002 
L 185.564918 260.893317 
L 184.4825 261.480945 
L 183.418907 261.704117 
L 181.972302 262.487219 
L 181.253939 262.638139 
L 180.536243 262.961938 
L 179.825431 263.282794 
L 179.118015 263.424529 
L 178.389973 263.801766 
L 177.665669 264.211841 
L 175.877171 264.486248 
L 175.16822 265.014084 
L 174.444116 265.305179 
L 173.735632 265.466297 
L 171.60177 266.389273 
L 170.872577 266.670259 
L 170.520003 266.833233 
L 169.802041 266.900461 
L 169.082476 267.19467 
L 167.98978 267.723436 
L 166.210359 268.333114 
L 165.849909 268.573269 
L 164.784714 268.80499 
L 164.084373 269.057872 
L 162.625353 269.664744 
L 161.907165 269.672184 
L 161.181726 270.052705 
L 158.311011 271.094373 
L 157.955234 271.37405 
L 156.882161 271.575069 
L 155.088123 272.112626 
L 151.084919 273.682612 
L 149.653266 273.964538 
L 148.580061 274.68216 
L 148.218543 274.701065 
L 147.851685 274.591673 
L 147.135592 274.709343 
L 146.424371 275.334757 
L 145.711615 275.524723 
L 145.002196 275.582664 
L 143.909833 276.137047 
L 142.482319 276.401045 
L 141.764957 277.001081 
L 141.41492 277.185278 
L 140.33811 277.297627 
L 138.891104 278.081321 
L 137.826643 278.07607 
L 137.475004 278.329773 
L 137.108347 278.733003 
L 136.745561 278.909381 
L 135.316377 278.857614 
L 134.228553 279.414881 
L 133.16309 279.710565 
L 132.437385 280.194122 
L 131.362978 280.362439 
L 131.009737 280.325785 
L 130.284832 280.72196 
L 127.407792 281.464337 
L 124.179231 282.564509 
L 123.461402 282.66125 
L 121.664493 283.417668 
L 121.313121 283.562281 
L 120.592622 283.609883 
L 119.8804 283.817021 
L 119.159233 284.2411 
L 116.285744 284.97992 
L 115.921156 284.94391 
L 115.564511 285.108634 
L 115.206664 285.427835 
L 114.840073 285.558976 
L 114.48443 285.490282 
L 113.414561 285.870259 
L 113.064257 286.093057 
L 112.707679 286.168844 
L 112.349766 286.124862 
L 111.635007 286.3332 
L 110.914308 286.747302 
L 109.471589 286.782611 
L 108.750756 287.271022 
L 107.679019 287.20752 
L 107.316967 287.279517 
L 106.96366 287.703877 
L 106.600407 287.927264 
L 105.527334 287.798104 
L 105.166484 287.882634 
L 104.815179 288.275369 
L 104.449056 288.440095 
L 103.019605 288.45492 
L 102.661025 288.94196 
L 102.299307 289.052337 
L 101.931514 288.799195 
L 100.854775 288.557472 
L 100.144155 289.55464 
L 99.072017 289.016731 
L 98.350984 288.911201 
L 97.999078 289.804008 
L 97.642767 290.067555 
L 96.923336 289.515009 
L 96.564889 289.357936 
L 96.206041 289.024134 
L 95.853134 289.216684 
L 95.502229 290.178708 
L 95.142314 290.206385 
L 94.436233 289.665281 
L 94.072712 289.507261 
L 93.710327 289.143308 
L 93.353014 289.679102 
L 92.989094 290.45485 
L 91.917478 289.841469 
L 91.209128 289.638022 
L 90.851815 290.473124 
L 90.492434 290.842829 
L 90.130782 290.378805 
L 89.061315 289.780662 
L 88.699396 289.987481 
L 88.348625 291.06 
L 87.993582 290.947855 
L 87.642878 290.428233 
L 86.581821 289.604433 
L 86.222506 289.832044 
L 85.872402 290.827484 
L 85.519295 290.69721 
L 84.785846 289.908299 
L 84.068151 289.368459 
L 83.716712 289.790319 
L 83.354409 290.699886 
L 82.98695 290.557698 
L 81.904399 289.386617 
L 81.554363 288.994408 
L 81.194647 289.069338 
L 80.832729 289.803212 
L 80.481023 289.611442 
L 79.744905 288.177392 
L 79.393133 287.826883 
L 79.042295 287.144957 
L 78.68872 286.927793 
L 78.33568 287.305856 
L 77.979769 285.841058 
L 77.264209 282.087311 
L 76.540506 279.195903 
L 76.183394 278.848307 
L 75.825948 279.777197 
L 75.4667 279.399173 
L 74.853695 278.531946 
L 74.702707 278.392534 
L 74.676228 279.37528 
L 74.676645 279.373995 
" clip-path="url(#p1bbc89e15a)" style="fill: none; stroke: #000000; stroke-width: 2; stroke-linecap: square"/>
   </g>
   <g id="patch_3">
    <path d="M 57.17 303.64 
L 57.17 26.88 
" style="fill: none; stroke: #000000; stroke-width: 0.8; stroke-linejoin: miter; stroke-linecap: square"/>
   </g>
   <g id="patch_4">
    <path d="M 442.307016 303.64 
L 442.307016 26.88 
" style="fill: none; stroke: #000000; stroke-width: 0.8; stroke-linejoin: miter; stroke-linecap: square"/>
   </g>
   <g id="patch_5">
    <path d="M 57.17 303.64 
L 442.307016 303.64 
" style="fill: none; stroke: #000000; stroke-width: 0.8; stroke-linejoin: miter; stroke-linecap: square"/>
   </g>
   <g id="patch_6">
    <path d="M 57.17 26.88 
L 442.307016 26.88 
" style="fill: none; stroke: #000000; stroke-width: 0.8; stroke-linejoin: miter; stroke-linecap: square"/>
   </g>
   <g id="text_19">
    <!-- 2025-06-18 Trial 13 - Stress vs Strain -->
    <g transform="translate(138.484445 20.88) scale(0.12 -0.12)">
     <defs>
      <path id="DejaVuSans-36" d="M 2113 2584 
Q 1688 2584 1439 2293 
Q 1191 2003 1191 1497 
Q 1191 994 1439 701 
Q 1688 409 2113 409 
Q 2538 409 2786 701 
Q 3034 994 3034 1497 
Q 3034 2003 2786 2293 
Q 2538 2584 2113 2584 
z
M 3366 4563 
L 3366 3988 
Q 3128 4100 2886 4159 
Q 2644 4219 2406 4219 
Q 1781 4219 1451 3797 
Q 1122 3375 1075 2522 
Q 1259 2794 1537 2939 
Q 1816 3084 2150 3084 
Q 2853 3084 3261 2657 
Q 3669 2231 3669 1497 
Q 3669 778 3244 343 
Q 2819 -91 2113 -91 
Q 1303 -91 875 529 
Q 447 1150 447 2328 
Q 447 3434 972 4092 
Q 1497 4750 2381 4750 
Q 2619 4750 2861 4703 
Q 3103 4656 3366 4563 
z
" transform="scale(0.015625)"/>
      <path id="DejaVuSans-38" d="M 2034 2216 
Q 1584 2216 1326 1975 
Q 1069 1734 1069 1313 
Q 1069 891 1326 650 
Q 1584 409 2034 409 
Q 2484 409 2743 651 
Q 3003 894 3003 1313 
Q 3003 1734 2745 1975 
Q 2488 2216 2034 2216 
z
M 1403 2484 
Q 997 2584 770 2862 
Q 544 3141 544 3541 
Q 544 4100 942 4425 
Q 1341 4750 2034 4750 
Q 2731 4750 3128 4425 
Q 3525 4100 3525 3541 
Q 3525 3141 3298 2862 
Q 3072 2584 2669 2484 
Q 3125 2378 3379 2068 
Q 3634 1759 3634 1313 
Q 3634 634 3220 271 
Q 2806 -91 2034 -91 
Q 1263 -91 848 271 
Q 434 634 434 1313 
Q 434 1759 690 2068 
Q 947 2378 1403 2484 
z
M 1172 3481 
Q 1172 3119 1398 2916 
Q 1625 2713 2034 2713 
Q 2441 2713 2670 2916 
Q 2900 3119 2900 3481 
Q 2900 3844 2670 4047 
Q 2441 4250 2034 4250 
Q 1625 4250 1398 4047 
Q 1172 3844 1172 3481 
z
" transform="scale(0.015625)"/>
      <path id="DejaVuSans-54" d="M -19 4666 
L 3928 4666 
L 3928 4134 
L 2272 4134 
L 2272 0 
L 1638 0 
L 1638 4134 
L -19 4134 
L -19 4666 
z
" transform="scale(0.015625)"/>
      <path id="DejaVuSans-6c" d="M 603 4863 
L 1178 4863 
L 1178 0 
L 603 0 
L 603 4863 
z
" transform="scale(0.015625)"/>
      <path id="DejaVuSans-76" d="M 191 3500 
L 800 3500 
L 1894 563 
L 2988 3500 
L 3597 3500 
L 2284 0 
L 1503 0 
L 191 3500 
z
" transform="scale(0.015625)"/>
     </defs>
     <use xlink:href="#DejaVuSans-32"/>
     <use xlink:href="#DejaVuSans-30" transform="translate(63.623047 0)"/>
     <use xlink:href="#DejaVuSans-32" transform="translate(127.246094 0)"/>
     <use xlink:href="#DejaVuSans-35" transform="translate(190.869141 0)"/>
     <use xlink:href="#DejaVuSans-2d" transform="translate(254.492188 0)"/>
     <use xlink:href="#DejaVuSans-30" transform="translate(290.576172 0)"/>
     <use xlink:href="#DejaVuSans-36" transform="translate(354.199219 0)"/>
     <use xlink:href="#DejaVuSans-2d" transform="translate(417.822266 0)"/>
     <use xlink:href="#DejaVuSans-31" transform="translate(453.90625 0)"/>
     <use xlink:href="#DejaVuSans-38" transform="translate(517.529297 0)"/>
     <use xlink:href="#DejaVuSans-20" transform="translate(581.152344 0)"/>
     <use xlink:href="#DejaVuSans-54" transform="translate(612.939453 0)"/>
     <use xlink:href="#DejaVuSans-72" transform="translate(659.273438 0)"/>
     <use xlink:href="#DejaVuSans-69" transform="translate(700.386719 0)"/>
     <use xlink:href="#DejaVuSans-61" transform="translate(728.169922 0)"/>
     <use xlink:href="#DejaVuSans-6c" transform="translate(789.449219 0)"/>
     <use xlink:href="#DejaVuSans-20" transform="translate(817.232422 0)"/>
     <use xlink:href="#DejaVuSans-31" transform="translate(849.019531 0)"/>
     <use xlink:href="#DejaVuSans-33" transform="translate(912.642578 0)"/>
     <use xlink:href="#DejaVuSans-20" transform="translate(976.265625 0)"/>
     <use xlink:href="#DejaVuSans-2d" transform="translate(1008.052734 0)"/>
     <use xlink:href="#DejaVuSans-20" transform="translate(1044.136719 0)"/>
     <use xlink:href="#DejaVuSans-53" transform="translate(1075.923828 0)"/>
     <use xlink:href="#DejaVuSans-74" transform="translate(1139.400391 0)"/>
     <use xlink:href="#DejaVuSans-72" transform="translate(1178.609375 0)"/>
     <use xlink:href="#DejaVuSans-65" transform="translate(1217.472656 0)"/>
     <use xlink:href="#DejaVuSans-73" transform="translate(1278.996094 0)"/>
     <use xlink:href="#DejaVuSans-73" transform="translate(1331.095703 0)"/>
     <use xlink:href="#DejaVuSans-20" transform="translate(1383.195312 0)"/>
     <use xlink:href="#DejaVuSans-76" transform="translate(1414.982422 0)"/>
     <use xlink:href="#DejaVuSans-73" transform="translate(1474.162109 0)"/>
     <use xlink:href="#DejaVuSans-20" transform="translate(1526.261719 0)"/>
     <use xlink:href="#DejaVuSans-53" transform="translate(1558.048828 0)"/>
     <use xlink:href="#DejaVuSans-74" transform="translate(1621.525391 0)"/>
     <use xlink:href="#DejaVuSans-72" transform="translate(1660.734375 0)"/>
     <use xlink:href="#DejaVuSans-61" transform="translate(1701.847656 0)"/>
     <use xlink:href="#DejaVuSans-69" transform="translate(1763.126953 0)"/>
     <use xlink:href="#DejaVuSans-6e" transform="translate(1790.910156 0)"/>
    </g>
   </g>
   <g id="legend_1">
    <g id="patch_7">
     <path d="M 64.17 64.23625 
L 170.154375 64.23625 
Q 172.154375 64.23625 172.154375 62.23625 
L 172.154375 33.88 
Q 172.154375 31.88 170.154375 31.88 
L 64.17 31.88 
Q 62.17 31.88 62.17 33.88 
L 62.17 62.23625 
Q 62.17 64.23625 64.17 64.23625 
z
" style="fill: #ffffff; opacity: 0.8; stroke: #cccccc; stroke-linejoin: miter"/>
    </g>
    <g id="line2d_35">
     <path d="M 66.17 39.978437 
L 76.17 39.978437 
L 86.17 39.978437 
" style="fill: none; stroke: #ff0000; stroke-width: 2; stroke-linecap: square"/>
    </g>
    <g id="text_20">
     <!-- Raw Force -->
     <g transform="translate(94.17 43.478437) scale(0.1 -0.1)">
      <defs>
       <path id="DejaVuSans-52" d="M 2841 2188 
Q 3044 2119 3236 1894 
Q 3428 1669 3622 1275 
L 4263 0 
L 3584 0 
L 2988 1197 
Q 2756 1666 2539 1819 
Q 2322 1972 1947 1972 
L 1259 1972 
L 1259 0 
L 628 0 
L 628 4666 
L 2053 4666 
Q 2853 4666 3247 4331 
Q 3641 3997 3641 3322 
Q 3641 2881 3436 2590 
Q 3231 2300 2841 2188 
z
M 1259 4147 
L 1259 2491 
L 2053 2491 
Q 2509 2491 2742 2702 
Q 2975 2913 2975 3322 
Q 2975 3731 2742 3939 
Q 2509 4147 2053 4147 
L 1259 4147 
z
" transform="scale(0.015625)"/>
       <path id="DejaVuSans-77" d="M 269 3500 
L 844 3500 
L 1563 769 
L 2278 3500 
L 2956 3500 
L 3675 769 
L 4391 3500 
L 4966 3500 
L 4050 0 
L 3372 0 
L 2619 2869 
L 1863 0 
L 1184 0 
L 269 3500 
z
" transform="scale(0.015625)"/>
       <path id="DejaVuSans-46" d="M 628 4666 
L 3309 4666 
L 3309 4134 
L 1259 4134 
L 1259 2759 
L 3109 2759 
L 3109 2228 
L 1259 2228 
L 1259 0 
L 628 0 
L 628 4666 
z
" transform="scale(0.015625)"/>
       <path id="DejaVuSans-6f" d="M 1959 3097 
Q 1497 3097 1228 2736 
Q 959 2375 959 1747 
Q 959 1119 1226 758 
Q 1494 397 1959 397 
Q 2419 397 2687 759 
Q 2956 1122 2956 1747 
Q 2956 2369 2687 2733 
Q 2419 3097 1959 3097 
z
M 1959 3584 
Q 2709 3584 3137 3096 
Q 3566 2609 3566 1747 
Q 3566 888 3137 398 
Q 2709 -91 1959 -91 
Q 1206 -91 779 398 
Q 353 888 353 1747 
Q 353 2609 779 3096 
Q 1206 3584 1959 3584 
z
" transform="scale(0.015625)"/>
       <path id="DejaVuSans-63" d="M 3122 3366 
L 3122 2828 
Q 2878 2963 2633 3030 
Q 2388 3097 2138 3097 
Q 1578 3097 1268 2742 
Q 959 2388 959 1747 
Q 959 1106 1268 751 
Q 1578 397 2138 397 
Q 2388 397 2633 464 
Q 2878 531 3122 666 
L 3122 134 
Q 2881 22 2623 -34 
Q 2366 -91 2075 -91 
Q 1284 -91 818 406 
Q 353 903 353 1747 
Q 353 2603 823 3093 
Q 1294 3584 2113 3584 
Q 2378 3584 2631 3529 
Q 2884 3475 3122 3366 
z
" transform="scale(0.015625)"/>
      </defs>
      <use xlink:href="#DejaVuSans-52"/>
      <use xlink:href="#DejaVuSans-61" transform="translate(67.232422 0)"/>
      <use xlink:href="#DejaVuSans-77" transform="translate(128.511719 0)"/>
      <use xlink:href="#DejaVuSans-20" transform="translate(210.298828 0)"/>
      <use xlink:href="#DejaVuSans-46" transform="translate(242.085938 0)"/>
      <use xlink:href="#DejaVuSans-6f" transform="translate(295.980469 0)"/>
      <use xlink:href="#DejaVuSans-72" transform="translate(357.162109 0)"/>
      <use xlink:href="#DejaVuSans-63" transform="translate(396.025391 0)"/>
      <use xlink:href="#DejaVuSans-65" transform="translate(451.005859 0)"/>
     </g>
    </g>
    <g id="line2d_36">
     <path d="M 66.17 54.656563 
L 76.17 54.656563 
L 86.17 54.656563 
" style="fill: none; stroke: #000000; stroke-width: 2; stroke-linecap: square"/>
    </g>
    <g id="text_21">
     <!-- Adjusted Force -->
     <g transform="translate(94.17 58.156563) scale(0.1 -0.1)">
      <defs>
       <path id="DejaVuSans-41" d="M 2188 4044 
L 1331 1722 
L 3047 1722 
L 2188 4044 
z
M 1831 4666 
L 2547 4666 
L 4325 0 
L 3669 0 
L 3244 1197 
L 1141 1197 
L 716 0 
L 50 0 
L 1831 4666 
z
" transform="scale(0.015625)"/>
       <path id="DejaVuSans-64" d="M 2906 2969 
L 2906 4863 
L 3481 4863 
L 3481 0 
L 2906 0 
L 2906 525 
Q 2725 213 2448 61 
Q 2172 -91 1784 -91 
Q 1150 -91 751 415 
Q 353 922 353 1747 
Q 353 2572 751 3078 
Q 1150 3584 1784 3584 
Q 2172 3584 2448 3432 
Q 2725 3281 2906 2969 
z
M 947 1747 
Q 947 1113 1208 752 
Q 1469 391 1925 391 
Q 2381 391 2643 752 
Q 2906 1113 2906 1747 
Q 2906 2381 2643 2742 
Q 2381 3103 1925 3103 
Q 1469 3103 1208 2742 
Q 947 2381 947 1747 
z
" transform="scale(0.015625)"/>
       <path id="DejaVuSans-6a" d="M 603 3500 
L 1178 3500 
L 1178 -63 
Q 1178 -731 923 -1031 
Q 669 -1331 103 -1331 
L -116 -1331 
L -116 -844 
L 38 -844 
Q 366 -844 484 -692 
Q 603 -541 603 -63 
L 603 3500 
z
M 603 4863 
L 1178 4863 
L 1178 4134 
L 603 4134 
L 603 4863 
z
" transform="scale(0.015625)"/>
       <path id="DejaVuSans-75" d="M 544 1381 
L 544 3500 
L 1119 3500 
L 1119 1403 
Q 1119 906 1312 657 
Q 1506 409 1894 409 
Q 2359 409 2629 706 
Q 2900 1003 2900 1516 
L 2900 3500 
L 3475 3500 
L 3475 0 
L 2900 0 
L 2900 538 
Q 2691 219 2414 64 
Q 2138 -91 1772 -91 
Q 1169 -91 856 284 
Q 544 659 544 1381 
z
M 1991 3584 
L 1991 3584 
z
" transform="scale(0.015625)"/>
      </defs>
      <use xlink:href="#DejaVuSans-41"/>
      <use xlink:href="#DejaVuSans-64" transform="translate(66.658203 0)"/>
      <use xlink:href="#DejaVuSans-6a" transform="translate(130.134766 0)"/>
      <use xlink:href="#DejaVuSans-75" transform="translate(157.917969 0)"/>
      <use xlink:href="#DejaVuSans-73" transform="translate(221.296875 0)"/>
      <use xlink:href="#DejaVuSans-74" transform="translate(273.396484 0)"/>
      <use xlink:href="#DejaVuSans-65" transform="translate(312.605469 0)"/>
      <use xlink:href="#DejaVuSans-64" transform="translate(374.128906 0)"/>
      <use xlink:href="#DejaVuSans-20" transform="translate(437.605469 0)"/>
      <use xlink:href="#DejaVuSans-46" transform="translate(469.392578 0)"/>
      <use xlink:href="#DejaVuSans-6f" transform="translate(523.287109 0)"/>
      <use xlink:href="#DejaVuSans-72" transform="translate(584.46875 0)"/>
      <use xlink:href="#DejaVuSans-63" transform="translate(623.332031 0)"/>
      <use xlink:href="#DejaVuSans-65" transform="translate(678.3125 0)"/>
     </g>
    </g>
   </g>
  </g>
 </g>
 <defs>
  <clipPath id="p1bbc89e15a">
   <rect x="57.17" y="26.88" width="385.137016" height="276.76"/>
  </clipPath>
 </defs>
</svg>
