<?xml version="1.0" encoding="utf-8" standalone="no"?>
<!DOCTYPE svg PUBLIC "-//W3C//DTD SVG 1.1//EN"
  "http://www.w3.org/Graphics/SVG/1.1/DTD/svg11.dtd">
<svg xmlns:xlink="http://www.w3.org/1999/xlink" width="460.8pt" height="345.6pt" viewBox="0 0 460.8 345.6" xmlns="http://www.w3.org/2000/svg" version="1.1">
 <metadata>
  <rdf:RDF xmlns:dc="http://purl.org/dc/elements/1.1/" xmlns:cc="http://creativecommons.org/ns#" xmlns:rdf="http://www.w3.org/1999/02/22-rdf-syntax-ns#">
   <cc:Work>
    <dc:type rdf:resource="http://purl.org/dc/dcmitype/StillImage"/>
    <dc:date>2025-07-28T21:14:11.388747</dc:date>
    <dc:format>image/svg+xml</dc:format>
    <dc:creator>
     <cc:Agent>
      <dc:title>Matplotlib v3.10.3, https://matplotlib.org/</dc:title>
     </cc:Agent>
    </dc:creator>
   </cc:Work>
  </rdf:RDF>
 </metadata>
 <defs>
  <style type="text/css">*{stroke-linejoin: round; stroke-linecap: butt}</style>
 </defs>
 <g id="figure_1">
  <g id="patch_1">
   <path d="M 0 345.6 
L 460.8 345.6 
L 460.8 0 
L 0 0 
z
" style="fill: #ffffff"/>
  </g>
  <g id="axes_1">
   <g id="patch_2">
    <path d="M 57.17 303.64 
L 450 303.64 
L 450 26.88 
L 57.17 26.88 
z
" style="fill: #ffffff"/>
   </g>
   <g id="matplotlib.axis_1">
    <g id="xtick_1">
     <g id="line2d_1">
      <path d="M 75.104574 303.64 
L 75.104574 26.88 
" clip-path="url(#pc70f5290c1)" style="fill: none; stroke: #b0b0b0; stroke-opacity: 0.3; stroke-width: 0.8; stroke-linecap: square"/>
     </g>
     <g id="line2d_2">
      <defs>
       <path id="mecf9f41242" d="M 0 0 
L 0 3.5 
" style="stroke: #000000; stroke-width: 0.8"/>
      </defs>
      <g>
       <use xlink:href="#mecf9f41242" x="75.104574" y="303.64" style="stroke: #000000; stroke-width: 0.8"/>
      </g>
     </g>
     <g id="text_1">
      <!-- 0.00 -->
      <g transform="translate(63.971761 318.238437) scale(0.1 -0.1)">
       <defs>
        <path id="DejaVuSans-30" d="M 2034 4250 
Q 1547 4250 1301 3770 
Q 1056 3291 1056 2328 
Q 1056 1369 1301 889 
Q 1547 409 2034 409 
Q 2525 409 2770 889 
Q 3016 1369 3016 2328 
Q 3016 3291 2770 3770 
Q 2525 4250 2034 4250 
z
M 2034 4750 
Q 2819 4750 3233 4129 
Q 3647 3509 3647 2328 
Q 3647 1150 3233 529 
Q 2819 -91 2034 -91 
Q 1250 -91 836 529 
Q 422 1150 422 2328 
Q 422 3509 836 4129 
Q 1250 4750 2034 4750 
z
" transform="scale(0.015625)"/>
        <path id="DejaVuSans-2e" d="M 684 794 
L 1344 794 
L 1344 0 
L 684 0 
L 684 794 
z
" transform="scale(0.015625)"/>
       </defs>
       <use xlink:href="#DejaVuSans-30"/>
       <use xlink:href="#DejaVuSans-2e" transform="translate(63.623047 0)"/>
       <use xlink:href="#DejaVuSans-30" transform="translate(95.410156 0)"/>
       <use xlink:href="#DejaVuSans-30" transform="translate(159.033203 0)"/>
      </g>
     </g>
    </g>
    <g id="xtick_2">
     <g id="line2d_3">
      <path d="M 123.291972 303.64 
L 123.291972 26.88 
" clip-path="url(#pc70f5290c1)" style="fill: none; stroke: #b0b0b0; stroke-opacity: 0.3; stroke-width: 0.8; stroke-linecap: square"/>
     </g>
     <g id="line2d_4">
      <g>
       <use xlink:href="#mecf9f41242" x="123.291972" y="303.64" style="stroke: #000000; stroke-width: 0.8"/>
      </g>
     </g>
     <g id="text_2">
      <!-- 0.05 -->
      <g transform="translate(112.15916 318.238437) scale(0.1 -0.1)">
       <defs>
        <path id="DejaVuSans-35" d="M 691 4666 
L 3169 4666 
L 3169 4134 
L 1269 4134 
L 1269 2991 
Q 1406 3038 1543 3061 
Q 1681 3084 1819 3084 
Q 2600 3084 3056 2656 
Q 3513 2228 3513 1497 
Q 3513 744 3044 326 
Q 2575 -91 1722 -91 
Q 1428 -91 1123 -41 
Q 819 9 494 109 
L 494 744 
Q 775 591 1075 516 
Q 1375 441 1709 441 
Q 2250 441 2565 725 
Q 2881 1009 2881 1497 
Q 2881 1984 2565 2268 
Q 2250 2553 1709 2553 
Q 1456 2553 1204 2497 
Q 953 2441 691 2322 
L 691 4666 
z
" transform="scale(0.015625)"/>
       </defs>
       <use xlink:href="#DejaVuSans-30"/>
       <use xlink:href="#DejaVuSans-2e" transform="translate(63.623047 0)"/>
       <use xlink:href="#DejaVuSans-30" transform="translate(95.410156 0)"/>
       <use xlink:href="#DejaVuSans-35" transform="translate(159.033203 0)"/>
      </g>
     </g>
    </g>
    <g id="xtick_3">
     <g id="line2d_5">
      <path d="M 171.479371 303.64 
L 171.479371 26.88 
" clip-path="url(#pc70f5290c1)" style="fill: none; stroke: #b0b0b0; stroke-opacity: 0.3; stroke-width: 0.8; stroke-linecap: square"/>
     </g>
     <g id="line2d_6">
      <g>
       <use xlink:href="#mecf9f41242" x="171.479371" y="303.64" style="stroke: #000000; stroke-width: 0.8"/>
      </g>
     </g>
     <g id="text_3">
      <!-- 0.10 -->
      <g transform="translate(160.346558 318.238437) scale(0.1 -0.1)">
       <defs>
        <path id="DejaVuSans-31" d="M 794 531 
L 1825 531 
L 1825 4091 
L 703 3866 
L 703 4441 
L 1819 4666 
L 2450 4666 
L 2450 531 
L 3481 531 
L 3481 0 
L 794 0 
L 794 531 
z
" transform="scale(0.015625)"/>
       </defs>
       <use xlink:href="#DejaVuSans-30"/>
       <use xlink:href="#DejaVuSans-2e" transform="translate(63.623047 0)"/>
       <use xlink:href="#DejaVuSans-31" transform="translate(95.410156 0)"/>
       <use xlink:href="#DejaVuSans-30" transform="translate(159.033203 0)"/>
      </g>
     </g>
    </g>
    <g id="xtick_4">
     <g id="line2d_7">
      <path d="M 219.666769 303.64 
L 219.666769 26.88 
" clip-path="url(#pc70f5290c1)" style="fill: none; stroke: #b0b0b0; stroke-opacity: 0.3; stroke-width: 0.8; stroke-linecap: square"/>
     </g>
     <g id="line2d_8">
      <g>
       <use xlink:href="#mecf9f41242" x="219.666769" y="303.64" style="stroke: #000000; stroke-width: 0.8"/>
      </g>
     </g>
     <g id="text_4">
      <!-- 0.15 -->
      <g transform="translate(208.533957 318.238437) scale(0.1 -0.1)">
       <use xlink:href="#DejaVuSans-30"/>
       <use xlink:href="#DejaVuSans-2e" transform="translate(63.623047 0)"/>
       <use xlink:href="#DejaVuSans-31" transform="translate(95.410156 0)"/>
       <use xlink:href="#DejaVuSans-35" transform="translate(159.033203 0)"/>
      </g>
     </g>
    </g>
    <g id="xtick_5">
     <g id="line2d_9">
      <path d="M 267.854168 303.64 
L 267.854168 26.88 
" clip-path="url(#pc70f5290c1)" style="fill: none; stroke: #b0b0b0; stroke-opacity: 0.3; stroke-width: 0.8; stroke-linecap: square"/>
     </g>
     <g id="line2d_10">
      <g>
       <use xlink:href="#mecf9f41242" x="267.854168" y="303.64" style="stroke: #000000; stroke-width: 0.8"/>
      </g>
     </g>
     <g id="text_5">
      <!-- 0.20 -->
      <g transform="translate(256.721355 318.238437) scale(0.1 -0.1)">
       <defs>
        <path id="DejaVuSans-32" d="M 1228 531 
L 3431 531 
L 3431 0 
L 469 0 
L 469 531 
Q 828 903 1448 1529 
Q 2069 2156 2228 2338 
Q 2531 2678 2651 2914 
Q 2772 3150 2772 3378 
Q 2772 3750 2511 3984 
Q 2250 4219 1831 4219 
Q 1534 4219 1204 4116 
Q 875 4013 500 3803 
L 500 4441 
Q 881 4594 1212 4672 
Q 1544 4750 1819 4750 
Q 2544 4750 2975 4387 
Q 3406 4025 3406 3419 
Q 3406 3131 3298 2873 
Q 3191 2616 2906 2266 
Q 2828 2175 2409 1742 
Q 1991 1309 1228 531 
z
" transform="scale(0.015625)"/>
       </defs>
       <use xlink:href="#DejaVuSans-30"/>
       <use xlink:href="#DejaVuSans-2e" transform="translate(63.623047 0)"/>
       <use xlink:href="#DejaVuSans-32" transform="translate(95.410156 0)"/>
       <use xlink:href="#DejaVuSans-30" transform="translate(159.033203 0)"/>
      </g>
     </g>
    </g>
    <g id="xtick_6">
     <g id="line2d_11">
      <path d="M 316.041566 303.64 
L 316.041566 26.88 
" clip-path="url(#pc70f5290c1)" style="fill: none; stroke: #b0b0b0; stroke-opacity: 0.3; stroke-width: 0.8; stroke-linecap: square"/>
     </g>
     <g id="line2d_12">
      <g>
       <use xlink:href="#mecf9f41242" x="316.041566" y="303.64" style="stroke: #000000; stroke-width: 0.8"/>
      </g>
     </g>
     <g id="text_6">
      <!-- 0.25 -->
      <g transform="translate(304.908754 318.238437) scale(0.1 -0.1)">
       <use xlink:href="#DejaVuSans-30"/>
       <use xlink:href="#DejaVuSans-2e" transform="translate(63.623047 0)"/>
       <use xlink:href="#DejaVuSans-32" transform="translate(95.410156 0)"/>
       <use xlink:href="#DejaVuSans-35" transform="translate(159.033203 0)"/>
      </g>
     </g>
    </g>
    <g id="xtick_7">
     <g id="line2d_13">
      <path d="M 364.228965 303.64 
L 364.228965 26.88 
" clip-path="url(#pc70f5290c1)" style="fill: none; stroke: #b0b0b0; stroke-opacity: 0.3; stroke-width: 0.8; stroke-linecap: square"/>
     </g>
     <g id="line2d_14">
      <g>
       <use xlink:href="#mecf9f41242" x="364.228965" y="303.64" style="stroke: #000000; stroke-width: 0.8"/>
      </g>
     </g>
     <g id="text_7">
      <!-- 0.30 -->
      <g transform="translate(353.096152 318.238437) scale(0.1 -0.1)">
       <defs>
        <path id="DejaVuSans-33" d="M 2597 2516 
Q 3050 2419 3304 2112 
Q 3559 1806 3559 1356 
Q 3559 666 3084 287 
Q 2609 -91 1734 -91 
Q 1441 -91 1130 -33 
Q 819 25 488 141 
L 488 750 
Q 750 597 1062 519 
Q 1375 441 1716 441 
Q 2309 441 2620 675 
Q 2931 909 2931 1356 
Q 2931 1769 2642 2001 
Q 2353 2234 1838 2234 
L 1294 2234 
L 1294 2753 
L 1863 2753 
Q 2328 2753 2575 2939 
Q 2822 3125 2822 3475 
Q 2822 3834 2567 4026 
Q 2313 4219 1838 4219 
Q 1578 4219 1281 4162 
Q 984 4106 628 3988 
L 628 4550 
Q 988 4650 1302 4700 
Q 1616 4750 1894 4750 
Q 2613 4750 3031 4423 
Q 3450 4097 3450 3541 
Q 3450 3153 3228 2886 
Q 3006 2619 2597 2516 
z
" transform="scale(0.015625)"/>
       </defs>
       <use xlink:href="#DejaVuSans-30"/>
       <use xlink:href="#DejaVuSans-2e" transform="translate(63.623047 0)"/>
       <use xlink:href="#DejaVuSans-33" transform="translate(95.410156 0)"/>
       <use xlink:href="#DejaVuSans-30" transform="translate(159.033203 0)"/>
      </g>
     </g>
    </g>
    <g id="xtick_8">
     <g id="line2d_15">
      <path d="M 412.416363 303.64 
L 412.416363 26.88 
" clip-path="url(#pc70f5290c1)" style="fill: none; stroke: #b0b0b0; stroke-opacity: 0.3; stroke-width: 0.8; stroke-linecap: square"/>
     </g>
     <g id="line2d_16">
      <g>
       <use xlink:href="#mecf9f41242" x="412.416363" y="303.64" style="stroke: #000000; stroke-width: 0.8"/>
      </g>
     </g>
     <g id="text_8">
      <!-- 0.35 -->
      <g transform="translate(401.28355 318.238437) scale(0.1 -0.1)">
       <use xlink:href="#DejaVuSans-30"/>
       <use xlink:href="#DejaVuSans-2e" transform="translate(63.623047 0)"/>
       <use xlink:href="#DejaVuSans-33" transform="translate(95.410156 0)"/>
       <use xlink:href="#DejaVuSans-35" transform="translate(159.033203 0)"/>
      </g>
     </g>
    </g>
    <g id="text_9">
     <!-- Strain [-] -->
     <g transform="translate(231.47875 331.916562) scale(0.1 -0.1)">
      <defs>
       <path id="DejaVuSans-53" d="M 3425 4513 
L 3425 3897 
Q 3066 4069 2747 4153 
Q 2428 4238 2131 4238 
Q 1616 4238 1336 4038 
Q 1056 3838 1056 3469 
Q 1056 3159 1242 3001 
Q 1428 2844 1947 2747 
L 2328 2669 
Q 3034 2534 3370 2195 
Q 3706 1856 3706 1288 
Q 3706 609 3251 259 
Q 2797 -91 1919 -91 
Q 1588 -91 1214 -16 
Q 841 59 441 206 
L 441 856 
Q 825 641 1194 531 
Q 1563 422 1919 422 
Q 2459 422 2753 634 
Q 3047 847 3047 1241 
Q 3047 1584 2836 1778 
Q 2625 1972 2144 2069 
L 1759 2144 
Q 1053 2284 737 2584 
Q 422 2884 422 3419 
Q 422 4038 858 4394 
Q 1294 4750 2059 4750 
Q 2388 4750 2728 4690 
Q 3069 4631 3425 4513 
z
" transform="scale(0.015625)"/>
       <path id="DejaVuSans-74" d="M 1172 4494 
L 1172 3500 
L 2356 3500 
L 2356 3053 
L 1172 3053 
L 1172 1153 
Q 1172 725 1289 603 
Q 1406 481 1766 481 
L 2356 481 
L 2356 0 
L 1766 0 
Q 1100 0 847 248 
Q 594 497 594 1153 
L 594 3053 
L 172 3053 
L 172 3500 
L 594 3500 
L 594 4494 
L 1172 4494 
z
" transform="scale(0.015625)"/>
       <path id="DejaVuSans-72" d="M 2631 2963 
Q 2534 3019 2420 3045 
Q 2306 3072 2169 3072 
Q 1681 3072 1420 2755 
Q 1159 2438 1159 1844 
L 1159 0 
L 581 0 
L 581 3500 
L 1159 3500 
L 1159 2956 
Q 1341 3275 1631 3429 
Q 1922 3584 2338 3584 
Q 2397 3584 2469 3576 
Q 2541 3569 2628 3553 
L 2631 2963 
z
" transform="scale(0.015625)"/>
       <path id="DejaVuSans-61" d="M 2194 1759 
Q 1497 1759 1228 1600 
Q 959 1441 959 1056 
Q 959 750 1161 570 
Q 1363 391 1709 391 
Q 2188 391 2477 730 
Q 2766 1069 2766 1631 
L 2766 1759 
L 2194 1759 
z
M 3341 1997 
L 3341 0 
L 2766 0 
L 2766 531 
Q 2569 213 2275 61 
Q 1981 -91 1556 -91 
Q 1019 -91 701 211 
Q 384 513 384 1019 
Q 384 1609 779 1909 
Q 1175 2209 1959 2209 
L 2766 2209 
L 2766 2266 
Q 2766 2663 2505 2880 
Q 2244 3097 1772 3097 
Q 1472 3097 1187 3025 
Q 903 2953 641 2809 
L 641 3341 
Q 956 3463 1253 3523 
Q 1550 3584 1831 3584 
Q 2591 3584 2966 3190 
Q 3341 2797 3341 1997 
z
" transform="scale(0.015625)"/>
       <path id="DejaVuSans-69" d="M 603 3500 
L 1178 3500 
L 1178 0 
L 603 0 
L 603 3500 
z
M 603 4863 
L 1178 4863 
L 1178 4134 
L 603 4134 
L 603 4863 
z
" transform="scale(0.015625)"/>
       <path id="DejaVuSans-6e" d="M 3513 2113 
L 3513 0 
L 2938 0 
L 2938 2094 
Q 2938 2591 2744 2837 
Q 2550 3084 2163 3084 
Q 1697 3084 1428 2787 
Q 1159 2491 1159 1978 
L 1159 0 
L 581 0 
L 581 3500 
L 1159 3500 
L 1159 2956 
Q 1366 3272 1645 3428 
Q 1925 3584 2291 3584 
Q 2894 3584 3203 3211 
Q 3513 2838 3513 2113 
z
" transform="scale(0.015625)"/>
       <path id="DejaVuSans-20" transform="scale(0.015625)"/>
       <path id="DejaVuSans-5b" d="M 550 4863 
L 1875 4863 
L 1875 4416 
L 1125 4416 
L 1125 -397 
L 1875 -397 
L 1875 -844 
L 550 -844 
L 550 4863 
z
" transform="scale(0.015625)"/>
       <path id="DejaVuSans-2d" d="M 313 2009 
L 1997 2009 
L 1997 1497 
L 313 1497 
L 313 2009 
z
" transform="scale(0.015625)"/>
       <path id="DejaVuSans-5d" d="M 1947 4863 
L 1947 -844 
L 622 -844 
L 622 -397 
L 1369 -397 
L 1369 4416 
L 622 4416 
L 622 4863 
L 1947 4863 
z
" transform="scale(0.015625)"/>
      </defs>
      <use xlink:href="#DejaVuSans-53"/>
      <use xlink:href="#DejaVuSans-74" transform="translate(63.476562 0)"/>
      <use xlink:href="#DejaVuSans-72" transform="translate(102.685547 0)"/>
      <use xlink:href="#DejaVuSans-61" transform="translate(143.798828 0)"/>
      <use xlink:href="#DejaVuSans-69" transform="translate(205.078125 0)"/>
      <use xlink:href="#DejaVuSans-6e" transform="translate(232.861328 0)"/>
      <use xlink:href="#DejaVuSans-20" transform="translate(296.240234 0)"/>
      <use xlink:href="#DejaVuSans-5b" transform="translate(328.027344 0)"/>
      <use xlink:href="#DejaVuSans-2d" transform="translate(367.041016 0)"/>
      <use xlink:href="#DejaVuSans-5d" transform="translate(403.125 0)"/>
     </g>
    </g>
   </g>
   <g id="matplotlib.axis_2">
    <g id="ytick_1">
     <g id="line2d_17">
      <path d="M 57.17 280.248579 
L 450 280.248579 
" clip-path="url(#pc70f5290c1)" style="fill: none; stroke: #b0b0b0; stroke-opacity: 0.3; stroke-width: 0.8; stroke-linecap: square"/>
     </g>
     <g id="line2d_18">
      <defs>
       <path id="medd8f62426" d="M 0 0 
L -3.5 0 
" style="stroke: #000000; stroke-width: 0.8"/>
      </defs>
      <g>
       <use xlink:href="#medd8f62426" x="57.17" y="280.248579" style="stroke: #000000; stroke-width: 0.8"/>
      </g>
     </g>
     <g id="text_10">
      <!-- 0 -->
      <g transform="translate(43.8075 284.047798) scale(0.1 -0.1)">
       <use xlink:href="#DejaVuSans-30"/>
      </g>
     </g>
    </g>
    <g id="ytick_2">
     <g id="line2d_19">
      <path d="M 57.17 245.497336 
L 450 245.497336 
" clip-path="url(#pc70f5290c1)" style="fill: none; stroke: #b0b0b0; stroke-opacity: 0.3; stroke-width: 0.8; stroke-linecap: square"/>
     </g>
     <g id="line2d_20">
      <g>
       <use xlink:href="#medd8f62426" x="57.17" y="245.497336" style="stroke: #000000; stroke-width: 0.8"/>
      </g>
     </g>
     <g id="text_11">
      <!-- 500 -->
      <g transform="translate(31.0825 249.296555) scale(0.1 -0.1)">
       <use xlink:href="#DejaVuSans-35"/>
       <use xlink:href="#DejaVuSans-30" transform="translate(63.623047 0)"/>
       <use xlink:href="#DejaVuSans-30" transform="translate(127.246094 0)"/>
      </g>
     </g>
    </g>
    <g id="ytick_3">
     <g id="line2d_21">
      <path d="M 57.17 210.746094 
L 450 210.746094 
" clip-path="url(#pc70f5290c1)" style="fill: none; stroke: #b0b0b0; stroke-opacity: 0.3; stroke-width: 0.8; stroke-linecap: square"/>
     </g>
     <g id="line2d_22">
      <g>
       <use xlink:href="#medd8f62426" x="57.17" y="210.746094" style="stroke: #000000; stroke-width: 0.8"/>
      </g>
     </g>
     <g id="text_12">
      <!-- 1000 -->
      <g transform="translate(24.72 214.545312) scale(0.1 -0.1)">
       <use xlink:href="#DejaVuSans-31"/>
       <use xlink:href="#DejaVuSans-30" transform="translate(63.623047 0)"/>
       <use xlink:href="#DejaVuSans-30" transform="translate(127.246094 0)"/>
       <use xlink:href="#DejaVuSans-30" transform="translate(190.869141 0)"/>
      </g>
     </g>
    </g>
    <g id="ytick_4">
     <g id="line2d_23">
      <path d="M 57.17 175.994851 
L 450 175.994851 
" clip-path="url(#pc70f5290c1)" style="fill: none; stroke: #b0b0b0; stroke-opacity: 0.3; stroke-width: 0.8; stroke-linecap: square"/>
     </g>
     <g id="line2d_24">
      <g>
       <use xlink:href="#medd8f62426" x="57.17" y="175.994851" style="stroke: #000000; stroke-width: 0.8"/>
      </g>
     </g>
     <g id="text_13">
      <!-- 1500 -->
      <g transform="translate(24.72 179.794069) scale(0.1 -0.1)">
       <use xlink:href="#DejaVuSans-31"/>
       <use xlink:href="#DejaVuSans-35" transform="translate(63.623047 0)"/>
       <use xlink:href="#DejaVuSans-30" transform="translate(127.246094 0)"/>
       <use xlink:href="#DejaVuSans-30" transform="translate(190.869141 0)"/>
      </g>
     </g>
    </g>
    <g id="ytick_5">
     <g id="line2d_25">
      <path d="M 57.17 141.243608 
L 450 141.243608 
" clip-path="url(#pc70f5290c1)" style="fill: none; stroke: #b0b0b0; stroke-opacity: 0.3; stroke-width: 0.8; stroke-linecap: square"/>
     </g>
     <g id="line2d_26">
      <g>
       <use xlink:href="#medd8f62426" x="57.17" y="141.243608" style="stroke: #000000; stroke-width: 0.8"/>
      </g>
     </g>
     <g id="text_14">
      <!-- 2000 -->
      <g transform="translate(24.72 145.042827) scale(0.1 -0.1)">
       <use xlink:href="#DejaVuSans-32"/>
       <use xlink:href="#DejaVuSans-30" transform="translate(63.623047 0)"/>
       <use xlink:href="#DejaVuSans-30" transform="translate(127.246094 0)"/>
       <use xlink:href="#DejaVuSans-30" transform="translate(190.869141 0)"/>
      </g>
     </g>
    </g>
    <g id="ytick_6">
     <g id="line2d_27">
      <path d="M 57.17 106.492365 
L 450 106.492365 
" clip-path="url(#pc70f5290c1)" style="fill: none; stroke: #b0b0b0; stroke-opacity: 0.3; stroke-width: 0.8; stroke-linecap: square"/>
     </g>
     <g id="line2d_28">
      <g>
       <use xlink:href="#medd8f62426" x="57.17" y="106.492365" style="stroke: #000000; stroke-width: 0.8"/>
      </g>
     </g>
     <g id="text_15">
      <!-- 2500 -->
      <g transform="translate(24.72 110.291584) scale(0.1 -0.1)">
       <use xlink:href="#DejaVuSans-32"/>
       <use xlink:href="#DejaVuSans-35" transform="translate(63.623047 0)"/>
       <use xlink:href="#DejaVuSans-30" transform="translate(127.246094 0)"/>
       <use xlink:href="#DejaVuSans-30" transform="translate(190.869141 0)"/>
      </g>
     </g>
    </g>
    <g id="ytick_7">
     <g id="line2d_29">
      <path d="M 57.17 71.741122 
L 450 71.741122 
" clip-path="url(#pc70f5290c1)" style="fill: none; stroke: #b0b0b0; stroke-opacity: 0.3; stroke-width: 0.8; stroke-linecap: square"/>
     </g>
     <g id="line2d_30">
      <g>
       <use xlink:href="#medd8f62426" x="57.17" y="71.741122" style="stroke: #000000; stroke-width: 0.8"/>
      </g>
     </g>
     <g id="text_16">
      <!-- 3000 -->
      <g transform="translate(24.72 75.540341) scale(0.1 -0.1)">
       <use xlink:href="#DejaVuSans-33"/>
       <use xlink:href="#DejaVuSans-30" transform="translate(63.623047 0)"/>
       <use xlink:href="#DejaVuSans-30" transform="translate(127.246094 0)"/>
       <use xlink:href="#DejaVuSans-30" transform="translate(190.869141 0)"/>
      </g>
     </g>
    </g>
    <g id="ytick_8">
     <g id="line2d_31">
      <path d="M 57.17 36.989879 
L 450 36.989879 
" clip-path="url(#pc70f5290c1)" style="fill: none; stroke: #b0b0b0; stroke-opacity: 0.3; stroke-width: 0.8; stroke-linecap: square"/>
     </g>
     <g id="line2d_32">
      <g>
       <use xlink:href="#medd8f62426" x="57.17" y="36.989879" style="stroke: #000000; stroke-width: 0.8"/>
      </g>
     </g>
     <g id="text_17">
      <!-- 3500 -->
      <g transform="translate(24.72 40.789098) scale(0.1 -0.1)">
       <use xlink:href="#DejaVuSans-33"/>
       <use xlink:href="#DejaVuSans-35" transform="translate(63.623047 0)"/>
       <use xlink:href="#DejaVuSans-30" transform="translate(127.246094 0)"/>
       <use xlink:href="#DejaVuSans-30" transform="translate(190.869141 0)"/>
      </g>
     </g>
    </g>
    <g id="text_18">
     <!-- Stress [Pa] -->
     <g transform="translate(18.640312 191.967812) rotate(-90) scale(0.1 -0.1)">
      <defs>
       <path id="DejaVuSans-65" d="M 3597 1894 
L 3597 1613 
L 953 1613 
Q 991 1019 1311 708 
Q 1631 397 2203 397 
Q 2534 397 2845 478 
Q 3156 559 3463 722 
L 3463 178 
Q 3153 47 2828 -22 
Q 2503 -91 2169 -91 
Q 1331 -91 842 396 
Q 353 884 353 1716 
Q 353 2575 817 3079 
Q 1281 3584 2069 3584 
Q 2775 3584 3186 3129 
Q 3597 2675 3597 1894 
z
M 3022 2063 
Q 3016 2534 2758 2815 
Q 2500 3097 2075 3097 
Q 1594 3097 1305 2825 
Q 1016 2553 972 2059 
L 3022 2063 
z
" transform="scale(0.015625)"/>
       <path id="DejaVuSans-73" d="M 2834 3397 
L 2834 2853 
Q 2591 2978 2328 3040 
Q 2066 3103 1784 3103 
Q 1356 3103 1142 2972 
Q 928 2841 928 2578 
Q 928 2378 1081 2264 
Q 1234 2150 1697 2047 
L 1894 2003 
Q 2506 1872 2764 1633 
Q 3022 1394 3022 966 
Q 3022 478 2636 193 
Q 2250 -91 1575 -91 
Q 1294 -91 989 -36 
Q 684 19 347 128 
L 347 722 
Q 666 556 975 473 
Q 1284 391 1588 391 
Q 1994 391 2212 530 
Q 2431 669 2431 922 
Q 2431 1156 2273 1281 
Q 2116 1406 1581 1522 
L 1381 1569 
Q 847 1681 609 1914 
Q 372 2147 372 2553 
Q 372 3047 722 3315 
Q 1072 3584 1716 3584 
Q 2034 3584 2315 3537 
Q 2597 3491 2834 3397 
z
" transform="scale(0.015625)"/>
       <path id="DejaVuSans-50" d="M 1259 4147 
L 1259 2394 
L 2053 2394 
Q 2494 2394 2734 2622 
Q 2975 2850 2975 3272 
Q 2975 3691 2734 3919 
Q 2494 4147 2053 4147 
L 1259 4147 
z
M 628 4666 
L 2053 4666 
Q 2838 4666 3239 4311 
Q 3641 3956 3641 3272 
Q 3641 2581 3239 2228 
Q 2838 1875 2053 1875 
L 1259 1875 
L 1259 0 
L 628 0 
L 628 4666 
z
" transform="scale(0.015625)"/>
      </defs>
      <use xlink:href="#DejaVuSans-53"/>
      <use xlink:href="#DejaVuSans-74" transform="translate(63.476562 0)"/>
      <use xlink:href="#DejaVuSans-72" transform="translate(102.685547 0)"/>
      <use xlink:href="#DejaVuSans-65" transform="translate(141.548828 0)"/>
      <use xlink:href="#DejaVuSans-73" transform="translate(203.072266 0)"/>
      <use xlink:href="#DejaVuSans-73" transform="translate(255.171875 0)"/>
      <use xlink:href="#DejaVuSans-20" transform="translate(307.271484 0)"/>
      <use xlink:href="#DejaVuSans-5b" transform="translate(339.058594 0)"/>
      <use xlink:href="#DejaVuSans-50" transform="translate(378.072266 0)"/>
      <use xlink:href="#DejaVuSans-61" transform="translate(433.875 0)"/>
      <use xlink:href="#DejaVuSans-5d" transform="translate(495.154297 0)"/>
     </g>
    </g>
   </g>
   <g id="line2d_33">
    <path d="M 75.104574 280.893994 
L 75.10575 280.83401 
L 75.104093 280.929991 
L 75.303914 279.930202 
L 75.670057 275.814485 
L 76.444008 272.860027 
L 76.894436 271.630713 
L 77.327435 270.919915 
L 77.697255 270.630951 
L 78.548547 270.502892 
L 86.631195 270.860414 
L 90.339192 270.801034 
L 91.67468 271.14374 
L 93.053742 271.730311 
L 95.195317 272.948822 
L 98.513343 274.967792 
L 100.389127 275.642942 
L 102.654883 276.466086 
L 104.54156 277.168242 
L 105.670081 277.392932 
L 106.789887 277.390114 
L 107.907515 277.175416 
L 109.755041 276.557916 
L 113.417289 275.043419 
L 117.410684 273.245898 
L 124.65021 269.793449 
L 130.105453 267.440685 
L 137.769807 264.659606 
L 143.597593 262.663321 
L 146.497321 261.569037 
L 156.889297 257.236192 
L 165.355381 253.448868 
L 170.257256 251.047493 
L 182.89756 244.675154 
L 193.263393 239.982588 
L 201.241468 236.517176 
L 214.674786 230.934493 
L 220.426328 228.22741 
L 229.317242 223.751973 
L 234.238725 221.161556 
L 238.43473 218.748298 
L 246.82892 213.7295 
L 269.959237 200.505198 
L 273.933024 198.123268 
L 280.815258 194.011872 
L 295.259571 184.965439 
L 303.093857 179.576118 
L 310.867143 173.774146 
L 317.217795 168.772632 
L 324.293925 163.19859 
L 332.110782 156.639369 
L 344.703156 145.517211 
L 351.953575 139.27126 
L 355.93172 135.533636 
L 364.569897 126.919797 
L 371.354093 120.008417 
L 374.188466 116.886522 
L 381.926894 107.806019 
L 390.329798 97.267191 
L 394.536697 91.904877 
L 402.244624 82.638572 
L 407.054998 77.280579 
L 412.93507 71.008702 
L 417.680086 66.095767 
L 420.819465 62.83236 
L 425.087364 58.044734 
L 426.587338 56.089498 
L 428.19352 53.652475 
L 429.783906 50.899482 
L 430.555951 49.343935 
L 431.286603 47.558568 
L 431.645461 47.445683 
L 431.960645 49.6687 
L 432.144091 56.276262 
L 432.047824 97.108463 
L 432.046258 97.9457 
L 431.685766 98.069017 
L 430.573414 99.917646 
L 429.854064 100.783864 
L 428.742155 102.60515 
L 428.370293 103.047103 
L 427.624936 104.452496 
L 425.768078 107.392776 
L 424.66645 109.837091 
L 423.558762 111.40344 
L 420.984869 115.693109 
L 414.759351 125.120234 
L 411.794703 129.289355 
L 407.388734 135.144124 
L 406.671154 135.966188 
L 404.810585 138.468143 
L 403.702489 139.846944 
L 402.97919 140.819835 
L 401.132136 142.949462 
L 397.775168 146.99179 
L 395.968487 149.015461 
L 395.222176 149.831177 
L 393.733368 151.499474 
L 392.274787 153.081757 
L 391.552305 153.871277 
L 390.074118 155.605266 
L 389.344691 156.347999 
L 387.5167 158.349618 
L 386.780874 159.013873 
L 384.600493 161.260233 
L 371.035777 174.222901 
L 370.304172 174.72015 
L 368.436626 176.53703 
L 367.688817 177.110705 
L 366.245487 178.521365 
L 365.156726 179.302851 
L 362.602577 181.635361 
L 360.793376 183.085044 
L 358.232554 185.09814 
L 357.516472 185.668034 
L 356.439693 186.564904 
L 351.025487 190.770078 
L 349.199674 192.140026 
L 348.096752 192.983289 
L 337.431054 200.529335 
L 334.489656 202.502361 
L 333.409626 203.075935 
L 332.663043 203.607413 
L 328.658211 206.037921 
L 327.205826 206.971418 
L 314.386179 214.588372 
L 313.287206 215.183517 
L 311.48032 216.249444 
L 309.281011 217.489898 
L 308.182038 218.049935 
L 306.344822 218.972469 
L 302.69061 220.965986 
L 300.856764 221.929695 
L 296.440378 224.180541 
L 295.709999 224.574829 
L 290.953954 226.915896 
L 289.461605 227.570252 
L 288.347943 228.181259 
L 286.506812 229.056119 
L 271.91946 235.740441 
L 271.197114 236.015194 
L 268.999967 237.113296 
L 263.510071 239.232019 
L 262.414502 239.737133 
L 260.223176 240.500796 
L 258.418197 241.309778 
L 256.954238 241.868819 
L 256.227671 242.305338 
L 255.489802 242.521179 
L 254.39505 242.873076 
L 252.590462 243.706807 
L 249.668059 244.796685 
L 248.590055 245.280928 
L 247.499115 245.642648 
L 246.379718 246.182397 
L 245.635449 246.446883 
L 244.526264 246.843365 
L 243.430933 247.236335 
L 241.979705 247.783173 
L 241.238978 248.154674 
L 240.155391 248.422065 
L 238.325698 249.150612 
L 237.600492 249.373192 
L 233.987129 250.739534 
L 233.257294 250.993964 
L 231.030073 251.813428 
L 226.643711 253.377659 
L 225.180961 253.87616 
L 223.719385 254.327819 
L 222.267885 254.765842 
L 221.545267 254.950894 
L 219.706519 255.700311 
L 218.60278 256.001428 
L 217.860826 256.302832 
L 206.906768 259.907154 
L 203.607602 260.976643 
L 202.49685 261.289179 
L 201.755441 261.534469 
L 199.934531 262.044858 
L 199.211334 262.328664 
L 198.477278 262.476792 
L 195.184375 263.551458 
L 194.082338 263.918529 
L 192.993509 264.162653 
L 191.542758 264.682299 
L 190.446491 265.001117 
L 187.526198 265.940491 
L 186.799495 266.071007 
L 184.954075 266.563563 
L 183.857349 266.895763 
L 183.120229 267.164591 
L 178.375648 268.429107 
L 177.281576 268.769041 
L 176.542006 269.106203 
L 175.086829 269.396491 
L 173.983635 269.721635 
L 172.886364 270.026982 
L 172.155899 270.314556 
L 168.153041 271.23978 
L 166.684113 271.814687 
L 165.598619 272.056366 
L 165.236153 272.291318 
L 163.765233 272.566695 
L 163.408077 272.571007 
L 162.666464 272.906 
L 161.211015 273.169834 
L 160.849298 273.382506 
L 159.016813 273.785061 
L 158.653734 274.032132 
L 156.08304 274.536105 
L 154.987335 274.74282 
L 154.248777 275.171609 
L 152.770862 275.275024 
L 152.046337 275.77585 
L 150.941918 275.884266 
L 150.222703 276.110694 
L 149.860986 276.374307 
L 148.032654 276.714337 
L 147.667328 277.005327 
L 145.841788 277.204516 
L 145.469769 277.457053 
L 144.727816 277.587861 
L 143.991173 277.695453 
L 143.254734 278.027475 
L 142.897101 278.250579 
L 141.806843 278.326733 
L 141.064685 278.591172 
L 140.70644 278.755183 
L 139.601067 278.812215 
L 139.231179 278.81763 
L 138.494877 279.290176 
L 137.029488 279.452457 
L 136.301598 279.966616 
L 135.565363 279.887662 
L 134.82341 279.921967 
L 134.451616 280.163949 
L 134.093711 280.556076 
L 132.635267 280.415808 
L 132.276341 280.508617 
L 131.916598 280.917961 
L 131.174917 281.014099 
L 130.065187 281.131152 
L 129.696184 281.551433 
L 129.331948 281.713228 
L 128.6111 281.625396 
L 127.866666 281.687279 
L 127.142958 282.20974 
L 126.049976 282.115482 
L 125.321162 282.286461 
L 124.962236 282.640746 
L 123.128118 282.790803 
L 122.768579 283.195894 
L 122.402232 283.276935 
L 120.920435 283.209373 
L 120.559603 283.433776 
L 120.199179 283.794374 
L 118.390136 283.796823 
L 118.028963 284.137791 
L 117.662071 284.318178 
L 116.936321 284.221705 
L 116.196546 284.271426 
L 115.825025 284.523622 
L 115.464056 284.921843 
L 113.634227 284.909772 
L 113.263659 285.310136 
L 112.900035 285.445477 
L 111.794934 285.355276 
L 111.424979 285.34457 
L 110.695282 285.920271 
L 109.231498 285.902452 
L 108.870121 286.045769 
L 108.50425 286.375622 
L 107.417804 286.319085 
L 106.684293 286.446529 
L 106.314337 286.866607 
L 105.941795 286.97515 
L 104.840371 286.911561 
L 104.471504 286.94317 
L 103.739423 287.499021 
L 102.275124 287.36084 
L 101.912725 287.370077 
L 101.541613 287.790695 
L 101.174736 288.007351 
L 100.441769 287.901103 
L 99.356821 287.923432 
L 98.995307 288.366803 
L 97.158057 288.349313 
L 96.43006 289.036583 
L 94.950375 288.764683 
L 94.590972 288.758664 
L 93.856303 289.523542 
L 93.116801 289.244747 
L 92.017335 289.153041 
L 91.646631 289.689583 
L 91.280011 289.975701 
L 90.546772 289.674719 
L 89.437042 289.529138 
L 89.066883 290.070068 
L 88.692434 290.285369 
L 87.949663 289.96923 
L 86.833397 289.842606 
L 86.461876 290.394609 
L 86.102405 290.715575 
L 84.252968 290.075988 
L 83.893089 290.373104 
L 83.524904 290.839836 
L 83.157243 290.936607 
L 82.062627 290.54053 
L 81.327958 290.352958 
L 80.604046 291.00885 
L 80.236882 291.012472 
L 79.871148 290.764556 
L 78.394118 290.394099 
L 77.657951 291.06 
L 75.812463 289.84864 
L 75.455069 289.942891 
L 75.107322 289.502001 
L 75.026198 284.004436 
L 75.026198 284.004436 
" clip-path="url(#pc70f5290c1)" style="fill: none; stroke: #ff0000; stroke-width: 2; stroke-linecap: square"/>
   </g>
   <g id="line2d_34">
    <path d="M 75.104574 280.893994 
L 75.10575 280.83401 
L 75.104093 280.929991 
L 75.303914 279.930202 
L 75.670057 275.814485 
L 76.444008 272.860027 
L 76.894436 271.630713 
L 77.327435 270.919915 
L 77.697255 270.630951 
L 78.10411 270.517121 
L 78.548547 280.729438 
L 80.297972 280.489726 
L 82.439547 280.237287 
L 85.499406 280.111368 
L 87.81636 279.986043 
L 92.358764 279.467357 
L 100.012227 277.767059 
L 103.031783 276.982805 
L 103.787761 276.916546 
L 105.293181 277.341621 
L 106.417345 277.416849 
L 107.534972 277.266696 
L 109.018671 276.826356 
L 111.95762 275.658076 
L 113.053461 275.153967 
L 114.508774 273.906289 
L 115.961907 272.920569 
L 117.049034 272.344295 
L 117.410684 273.245898 
L 124.65021 269.793449 
L 130.105453 267.440685 
L 137.769807 264.659606 
L 143.597593 262.663321 
L 146.497321 261.569037 
L 156.889297 257.236192 
L 165.355381 253.448868 
L 170.257256 251.047493 
L 182.89756 244.675154 
L 193.263393 239.982588 
L 201.241468 236.517176 
L 214.674786 230.934493 
L 220.426328 228.22741 
L 229.317242 223.751973 
L 234.238725 221.161556 
L 238.43473 218.748298 
L 246.82892 213.7295 
L 269.959237 200.505198 
L 273.933024 198.123268 
L 280.815258 194.011872 
L 295.259571 184.965439 
L 303.093857 179.576118 
L 310.867143 173.774146 
L 317.217795 168.772632 
L 324.293925 163.19859 
L 332.110782 156.639369 
L 344.703156 145.517211 
L 351.953575 139.27126 
L 355.93172 135.533636 
L 364.569897 126.919797 
L 371.354093 120.008417 
L 374.188466 116.886522 
L 381.225381 108.66589 
L 381.926894 108.507783 
L 387.528104 101.415716 
L 391.730645 95.761062 
L 395.240388 91.045005 
L 401.549647 83.450913 
L 405.01146 79.533961 
L 411.026606 73.046035 
L 412.93507 70.908235 
L 415.967697 67.121452 
L 419.299883 62.421865 
L 422.67782 57.128686 
L 424.71809 53.637888 
L 427.83187 47.739774 
L 430.555951 41.691507 
L 431.286603 39.669567 
L 431.645461 39.46 
L 431.960645 41.601459 
L 432.144091 48.142451 
L 432.049219 88.371815 
L 432.046258 97.9457 
L 431.685766 98.069017 
L 430.573414 99.917646 
L 429.854064 100.783864 
L 428.742155 102.60515 
L 428.370293 103.047103 
L 427.624936 104.452496 
L 425.768078 107.392776 
L 424.66645 109.837091 
L 423.558762 111.40344 
L 420.984869 115.693109 
L 414.759351 125.120234 
L 411.794703 129.289355 
L 407.388734 135.144124 
L 406.671154 135.966188 
L 404.810585 138.468143 
L 403.702489 139.846944 
L 402.97919 140.819835 
L 401.132136 142.949462 
L 397.775168 146.99179 
L 395.968487 149.015461 
L 395.222176 149.831177 
L 393.733368 151.499474 
L 392.274787 153.081757 
L 391.552305 153.871277 
L 390.074118 155.605266 
L 389.344691 156.347999 
L 387.5167 158.349618 
L 386.780874 159.013873 
L 384.600493 161.260233 
L 371.035777 174.222901 
L 370.304172 174.72015 
L 368.436626 176.53703 
L 367.688817 177.110705 
L 366.245487 178.521365 
L 365.156726 179.302851 
L 362.602577 181.635361 
L 360.793376 183.085044 
L 358.232554 185.09814 
L 357.516472 185.668034 
L 356.439693 186.564904 
L 351.025487 190.770078 
L 349.199674 192.140026 
L 348.096752 192.983289 
L 337.431054 200.529335 
L 334.489656 202.502361 
L 333.409626 203.075935 
L 332.663043 203.607413 
L 328.658211 206.037921 
L 327.205826 206.971418 
L 314.386179 214.588372 
L 313.287206 215.183517 
L 311.48032 216.249444 
L 309.281011 217.489898 
L 308.182038 218.049935 
L 306.344822 218.972469 
L 302.69061 220.965986 
L 300.856764 221.929695 
L 296.440378 224.180541 
L 295.709999 224.574829 
L 290.953954 226.915896 
L 289.461605 227.570252 
L 288.347943 228.181259 
L 286.506812 229.056119 
L 271.91946 235.740441 
L 271.197114 236.015194 
L 268.999967 237.113296 
L 263.510071 239.232019 
L 262.414502 239.737133 
L 260.223176 240.500796 
L 258.418197 241.309778 
L 256.954238 241.868819 
L 256.227671 242.305338 
L 255.489802 242.521179 
L 254.39505 242.873076 
L 252.590462 243.706807 
L 249.668059 244.796685 
L 248.590055 245.280928 
L 247.499115 245.642648 
L 246.379718 246.182397 
L 245.635449 246.446883 
L 244.526264 246.843365 
L 243.430933 247.236335 
L 241.979705 247.783173 
L 241.238978 248.154674 
L 240.155391 248.422065 
L 238.325698 249.150612 
L 237.600492 249.373192 
L 233.987129 250.739534 
L 233.257294 250.993964 
L 231.030073 251.813428 
L 226.643711 253.377659 
L 225.180961 253.87616 
L 223.719385 254.327819 
L 222.267885 254.765842 
L 221.545267 254.950894 
L 219.706519 255.700311 
L 218.60278 256.001428 
L 217.860826 256.302832 
L 206.906768 259.907154 
L 203.607602 260.976643 
L 202.49685 261.289179 
L 201.755441 261.534469 
L 199.934531 262.044858 
L 199.211334 262.328664 
L 198.477278 262.476792 
L 195.184375 263.551458 
L 194.082338 263.918529 
L 192.993509 264.162653 
L 191.542758 264.682299 
L 190.446491 265.001117 
L 187.526198 265.940491 
L 186.799495 266.071007 
L 184.954075 266.563563 
L 183.857349 266.895763 
L 183.120229 267.164591 
L 178.375648 268.429107 
L 177.281576 268.769041 
L 176.542006 269.106203 
L 175.086829 269.396491 
L 173.983635 269.721635 
L 172.886364 270.026982 
L 172.155899 270.314556 
L 168.153041 271.23978 
L 166.684113 271.814687 
L 165.598619 272.056366 
L 165.236153 272.291318 
L 163.765233 272.566695 
L 163.408077 272.571007 
L 162.666464 272.906 
L 161.211015 273.169834 
L 160.849298 273.382506 
L 159.016813 273.785061 
L 158.653734 274.032132 
L 156.08304 274.536105 
L 154.987335 274.74282 
L 154.248777 275.171609 
L 152.770862 275.275024 
L 152.046337 275.77585 
L 150.941918 275.884266 
L 150.222703 276.110694 
L 149.860986 276.374307 
L 148.032654 276.714337 
L 147.667328 277.005327 
L 145.841788 277.204516 
L 145.469769 277.457053 
L 144.727816 277.587861 
L 143.991173 277.695453 
L 143.254734 278.027475 
L 142.897101 278.250579 
L 141.806843 278.326733 
L 141.064685 278.591172 
L 140.70644 278.755183 
L 139.601067 278.812215 
L 139.231179 278.81763 
L 138.494877 279.290176 
L 137.029488 279.452457 
L 136.301598 279.966616 
L 135.565363 279.887662 
L 134.82341 279.921967 
L 134.451616 280.163949 
L 134.093711 280.556076 
L 132.635267 280.415808 
L 132.276341 280.508617 
L 131.916598 280.917961 
L 131.174917 281.014099 
L 130.065187 281.131152 
L 129.696184 281.551433 
L 129.331948 281.713228 
L 128.6111 281.625396 
L 127.866666 281.687279 
L 127.142958 282.20974 
L 126.049976 282.115482 
L 125.321162 282.286461 
L 124.962236 282.640746 
L 123.128118 282.790803 
L 122.768579 283.195894 
L 122.402232 283.276935 
L 120.920435 283.209373 
L 120.559603 283.433776 
L 120.199179 283.794374 
L 118.390136 283.796823 
L 118.028963 284.137791 
L 117.662071 284.318178 
L 116.936321 284.221705 
L 116.196546 284.271426 
L 115.825025 284.523622 
L 115.464056 284.921843 
L 113.634227 284.909772 
L 113.263659 285.310136 
L 112.900035 285.445477 
L 111.794934 285.355276 
L 111.424979 285.34457 
L 110.695282 285.920271 
L 109.231498 285.902452 
L 108.870121 286.045769 
L 108.50425 286.375622 
L 107.417804 286.319085 
L 106.684293 286.446529 
L 106.314337 286.866607 
L 105.941795 286.97515 
L 104.840371 286.911561 
L 104.471504 286.94317 
L 103.739423 287.499021 
L 102.275124 287.36084 
L 101.912725 287.370077 
L 101.541613 287.790695 
L 101.174736 288.007351 
L 100.441769 287.901103 
L 99.356821 287.923432 
L 98.995307 288.366803 
L 97.158057 288.349313 
L 96.43006 289.036583 
L 94.950375 288.764683 
L 94.590972 288.758664 
L 93.856303 289.523542 
L 93.116801 289.244747 
L 92.017335 289.153041 
L 91.646631 289.689583 
L 91.280011 289.975701 
L 90.546772 289.674719 
L 89.437042 289.529138 
L 89.066883 290.070068 
L 88.692434 290.285369 
L 87.949663 289.96923 
L 86.833397 289.842606 
L 86.461876 290.394609 
L 86.102405 290.715575 
L 84.252968 290.075988 
L 83.893089 290.373104 
L 83.524904 290.839836 
L 83.157243 290.936607 
L 82.062627 290.54053 
L 81.327958 290.352958 
L 80.604046 291.00885 
L 80.236882 291.012472 
L 79.871148 290.764556 
L 78.394118 290.394099 
L 77.657951 291.06 
L 75.812463 289.84864 
L 75.455069 289.942891 
L 75.107322 289.502001 
L 75.026198 284.004436 
L 75.026198 284.004436 
" clip-path="url(#pc70f5290c1)" style="fill: none; stroke: #000000; stroke-width: 2; stroke-linecap: square"/>
   </g>
   <g id="patch_3">
    <path d="M 57.17 303.64 
L 57.17 26.88 
" style="fill: none; stroke: #000000; stroke-width: 0.8; stroke-linejoin: miter; stroke-linecap: square"/>
   </g>
   <g id="patch_4">
    <path d="M 450 303.64 
L 450 26.88 
" style="fill: none; stroke: #000000; stroke-width: 0.8; stroke-linejoin: miter; stroke-linecap: square"/>
   </g>
   <g id="patch_5">
    <path d="M 57.17 303.64 
L 450 303.64 
" style="fill: none; stroke: #000000; stroke-width: 0.8; stroke-linejoin: miter; stroke-linecap: square"/>
   </g>
   <g id="patch_6">
    <path d="M 57.17 26.88 
L 450 26.88 
" style="fill: none; stroke: #000000; stroke-width: 0.8; stroke-linejoin: miter; stroke-linecap: square"/>
   </g>
   <g id="text_19">
    <!-- 2025-06-16 Trial 30 - Stress vs Strain -->
    <g transform="translate(142.330938 20.88) scale(0.12 -0.12)">
     <defs>
      <path id="DejaVuSans-36" d="M 2113 2584 
Q 1688 2584 1439 2293 
Q 1191 2003 1191 1497 
Q 1191 994 1439 701 
Q 1688 409 2113 409 
Q 2538 409 2786 701 
Q 3034 994 3034 1497 
Q 3034 2003 2786 2293 
Q 2538 2584 2113 2584 
z
M 3366 4563 
L 3366 3988 
Q 3128 4100 2886 4159 
Q 2644 4219 2406 4219 
Q 1781 4219 1451 3797 
Q 1122 3375 1075 2522 
Q 1259 2794 1537 2939 
Q 1816 3084 2150 3084 
Q 2853 3084 3261 2657 
Q 3669 2231 3669 1497 
Q 3669 778 3244 343 
Q 2819 -91 2113 -91 
Q 1303 -91 875 529 
Q 447 1150 447 2328 
Q 447 3434 972 4092 
Q 1497 4750 2381 4750 
Q 2619 4750 2861 4703 
Q 3103 4656 3366 4563 
z
" transform="scale(0.015625)"/>
      <path id="DejaVuSans-54" d="M -19 4666 
L 3928 4666 
L 3928 4134 
L 2272 4134 
L 2272 0 
L 1638 0 
L 1638 4134 
L -19 4134 
L -19 4666 
z
" transform="scale(0.015625)"/>
      <path id="DejaVuSans-6c" d="M 603 4863 
L 1178 4863 
L 1178 0 
L 603 0 
L 603 4863 
z
" transform="scale(0.015625)"/>
      <path id="DejaVuSans-76" d="M 191 3500 
L 800 3500 
L 1894 563 
L 2988 3500 
L 3597 3500 
L 2284 0 
L 1503 0 
L 191 3500 
z
" transform="scale(0.015625)"/>
     </defs>
     <use xlink:href="#DejaVuSans-32"/>
     <use xlink:href="#DejaVuSans-30" transform="translate(63.623047 0)"/>
     <use xlink:href="#DejaVuSans-32" transform="translate(127.246094 0)"/>
     <use xlink:href="#DejaVuSans-35" transform="translate(190.869141 0)"/>
     <use xlink:href="#DejaVuSans-2d" transform="translate(254.492188 0)"/>
     <use xlink:href="#DejaVuSans-30" transform="translate(290.576172 0)"/>
     <use xlink:href="#DejaVuSans-36" transform="translate(354.199219 0)"/>
     <use xlink:href="#DejaVuSans-2d" transform="translate(417.822266 0)"/>
     <use xlink:href="#DejaVuSans-31" transform="translate(453.90625 0)"/>
     <use xlink:href="#DejaVuSans-36" transform="translate(517.529297 0)"/>
     <use xlink:href="#DejaVuSans-20" transform="translate(581.152344 0)"/>
     <use xlink:href="#DejaVuSans-54" transform="translate(612.939453 0)"/>
     <use xlink:href="#DejaVuSans-72" transform="translate(659.273438 0)"/>
     <use xlink:href="#DejaVuSans-69" transform="translate(700.386719 0)"/>
     <use xlink:href="#DejaVuSans-61" transform="translate(728.169922 0)"/>
     <use xlink:href="#DejaVuSans-6c" transform="translate(789.449219 0)"/>
     <use xlink:href="#DejaVuSans-20" transform="translate(817.232422 0)"/>
     <use xlink:href="#DejaVuSans-33" transform="translate(849.019531 0)"/>
     <use xlink:href="#DejaVuSans-30" transform="translate(912.642578 0)"/>
     <use xlink:href="#DejaVuSans-20" transform="translate(976.265625 0)"/>
     <use xlink:href="#DejaVuSans-2d" transform="translate(1008.052734 0)"/>
     <use xlink:href="#DejaVuSans-20" transform="translate(1044.136719 0)"/>
     <use xlink:href="#DejaVuSans-53" transform="translate(1075.923828 0)"/>
     <use xlink:href="#DejaVuSans-74" transform="translate(1139.400391 0)"/>
     <use xlink:href="#DejaVuSans-72" transform="translate(1178.609375 0)"/>
     <use xlink:href="#DejaVuSans-65" transform="translate(1217.472656 0)"/>
     <use xlink:href="#DejaVuSans-73" transform="translate(1278.996094 0)"/>
     <use xlink:href="#DejaVuSans-73" transform="translate(1331.095703 0)"/>
     <use xlink:href="#DejaVuSans-20" transform="translate(1383.195312 0)"/>
     <use xlink:href="#DejaVuSans-76" transform="translate(1414.982422 0)"/>
     <use xlink:href="#DejaVuSans-73" transform="translate(1474.162109 0)"/>
     <use xlink:href="#DejaVuSans-20" transform="translate(1526.261719 0)"/>
     <use xlink:href="#DejaVuSans-53" transform="translate(1558.048828 0)"/>
     <use xlink:href="#DejaVuSans-74" transform="translate(1621.525391 0)"/>
     <use xlink:href="#DejaVuSans-72" transform="translate(1660.734375 0)"/>
     <use xlink:href="#DejaVuSans-61" transform="translate(1701.847656 0)"/>
     <use xlink:href="#DejaVuSans-69" transform="translate(1763.126953 0)"/>
     <use xlink:href="#DejaVuSans-6e" transform="translate(1790.910156 0)"/>
    </g>
   </g>
   <g id="legend_1">
    <g id="patch_7">
     <path d="M 64.17 64.23625 
L 170.154375 64.23625 
Q 172.154375 64.23625 172.154375 62.23625 
L 172.154375 33.88 
Q 172.154375 31.88 170.154375 31.88 
L 64.17 31.88 
Q 62.17 31.88 62.17 33.88 
L 62.17 62.23625 
Q 62.17 64.23625 64.17 64.23625 
z
" style="fill: #ffffff; opacity: 0.8; stroke: #cccccc; stroke-linejoin: miter"/>
    </g>
    <g id="line2d_35">
     <path d="M 66.17 39.978437 
L 76.17 39.978437 
L 86.17 39.978437 
" style="fill: none; stroke: #ff0000; stroke-width: 2; stroke-linecap: square"/>
    </g>
    <g id="text_20">
     <!-- Raw Force -->
     <g transform="translate(94.17 43.478437) scale(0.1 -0.1)">
      <defs>
       <path id="DejaVuSans-52" d="M 2841 2188 
Q 3044 2119 3236 1894 
Q 3428 1669 3622 1275 
L 4263 0 
L 3584 0 
L 2988 1197 
Q 2756 1666 2539 1819 
Q 2322 1972 1947 1972 
L 1259 1972 
L 1259 0 
L 628 0 
L 628 4666 
L 2053 4666 
Q 2853 4666 3247 4331 
Q 3641 3997 3641 3322 
Q 3641 2881 3436 2590 
Q 3231 2300 2841 2188 
z
M 1259 4147 
L 1259 2491 
L 2053 2491 
Q 2509 2491 2742 2702 
Q 2975 2913 2975 3322 
Q 2975 3731 2742 3939 
Q 2509 4147 2053 4147 
L 1259 4147 
z
" transform="scale(0.015625)"/>
       <path id="DejaVuSans-77" d="M 269 3500 
L 844 3500 
L 1563 769 
L 2278 3500 
L 2956 3500 
L 3675 769 
L 4391 3500 
L 4966 3500 
L 4050 0 
L 3372 0 
L 2619 2869 
L 1863 0 
L 1184 0 
L 269 3500 
z
" transform="scale(0.015625)"/>
       <path id="DejaVuSans-46" d="M 628 4666 
L 3309 4666 
L 3309 4134 
L 1259 4134 
L 1259 2759 
L 3109 2759 
L 3109 2228 
L 1259 2228 
L 1259 0 
L 628 0 
L 628 4666 
z
" transform="scale(0.015625)"/>
       <path id="DejaVuSans-6f" d="M 1959 3097 
Q 1497 3097 1228 2736 
Q 959 2375 959 1747 
Q 959 1119 1226 758 
Q 1494 397 1959 397 
Q 2419 397 2687 759 
Q 2956 1122 2956 1747 
Q 2956 2369 2687 2733 
Q 2419 3097 1959 3097 
z
M 1959 3584 
Q 2709 3584 3137 3096 
Q 3566 2609 3566 1747 
Q 3566 888 3137 398 
Q 2709 -91 1959 -91 
Q 1206 -91 779 398 
Q 353 888 353 1747 
Q 353 2609 779 3096 
Q 1206 3584 1959 3584 
z
" transform="scale(0.015625)"/>
       <path id="DejaVuSans-63" d="M 3122 3366 
L 3122 2828 
Q 2878 2963 2633 3030 
Q 2388 3097 2138 3097 
Q 1578 3097 1268 2742 
Q 959 2388 959 1747 
Q 959 1106 1268 751 
Q 1578 397 2138 397 
Q 2388 397 2633 464 
Q 2878 531 3122 666 
L 3122 134 
Q 2881 22 2623 -34 
Q 2366 -91 2075 -91 
Q 1284 -91 818 406 
Q 353 903 353 1747 
Q 353 2603 823 3093 
Q 1294 3584 2113 3584 
Q 2378 3584 2631 3529 
Q 2884 3475 3122 3366 
z
" transform="scale(0.015625)"/>
      </defs>
      <use xlink:href="#DejaVuSans-52"/>
      <use xlink:href="#DejaVuSans-61" transform="translate(67.232422 0)"/>
      <use xlink:href="#DejaVuSans-77" transform="translate(128.511719 0)"/>
      <use xlink:href="#DejaVuSans-20" transform="translate(210.298828 0)"/>
      <use xlink:href="#DejaVuSans-46" transform="translate(242.085938 0)"/>
      <use xlink:href="#DejaVuSans-6f" transform="translate(295.980469 0)"/>
      <use xlink:href="#DejaVuSans-72" transform="translate(357.162109 0)"/>
      <use xlink:href="#DejaVuSans-63" transform="translate(396.025391 0)"/>
      <use xlink:href="#DejaVuSans-65" transform="translate(451.005859 0)"/>
     </g>
    </g>
    <g id="line2d_36">
     <path d="M 66.17 54.656563 
L 76.17 54.656563 
L 86.17 54.656563 
" style="fill: none; stroke: #000000; stroke-width: 2; stroke-linecap: square"/>
    </g>
    <g id="text_21">
     <!-- Adjusted Force -->
     <g transform="translate(94.17 58.156563) scale(0.1 -0.1)">
      <defs>
       <path id="DejaVuSans-41" d="M 2188 4044 
L 1331 1722 
L 3047 1722 
L 2188 4044 
z
M 1831 4666 
L 2547 4666 
L 4325 0 
L 3669 0 
L 3244 1197 
L 1141 1197 
L 716 0 
L 50 0 
L 1831 4666 
z
" transform="scale(0.015625)"/>
       <path id="DejaVuSans-64" d="M 2906 2969 
L 2906 4863 
L 3481 4863 
L 3481 0 
L 2906 0 
L 2906 525 
Q 2725 213 2448 61 
Q 2172 -91 1784 -91 
Q 1150 -91 751 415 
Q 353 922 353 1747 
Q 353 2572 751 3078 
Q 1150 3584 1784 3584 
Q 2172 3584 2448 3432 
Q 2725 3281 2906 2969 
z
M 947 1747 
Q 947 1113 1208 752 
Q 1469 391 1925 391 
Q 2381 391 2643 752 
Q 2906 1113 2906 1747 
Q 2906 2381 2643 2742 
Q 2381 3103 1925 3103 
Q 1469 3103 1208 2742 
Q 947 2381 947 1747 
z
" transform="scale(0.015625)"/>
       <path id="DejaVuSans-6a" d="M 603 3500 
L 1178 3500 
L 1178 -63 
Q 1178 -731 923 -1031 
Q 669 -1331 103 -1331 
L -116 -1331 
L -116 -844 
L 38 -844 
Q 366 -844 484 -692 
Q 603 -541 603 -63 
L 603 3500 
z
M 603 4863 
L 1178 4863 
L 1178 4134 
L 603 4134 
L 603 4863 
z
" transform="scale(0.015625)"/>
       <path id="DejaVuSans-75" d="M 544 1381 
L 544 3500 
L 1119 3500 
L 1119 1403 
Q 1119 906 1312 657 
Q 1506 409 1894 409 
Q 2359 409 2629 706 
Q 2900 1003 2900 1516 
L 2900 3500 
L 3475 3500 
L 3475 0 
L 2900 0 
L 2900 538 
Q 2691 219 2414 64 
Q 2138 -91 1772 -91 
Q 1169 -91 856 284 
Q 544 659 544 1381 
z
M 1991 3584 
L 1991 3584 
z
" transform="scale(0.015625)"/>
      </defs>
      <use xlink:href="#DejaVuSans-41"/>
      <use xlink:href="#DejaVuSans-64" transform="translate(66.658203 0)"/>
      <use xlink:href="#DejaVuSans-6a" transform="translate(130.134766 0)"/>
      <use xlink:href="#DejaVuSans-75" transform="translate(157.917969 0)"/>
      <use xlink:href="#DejaVuSans-73" transform="translate(221.296875 0)"/>
      <use xlink:href="#DejaVuSans-74" transform="translate(273.396484 0)"/>
      <use xlink:href="#DejaVuSans-65" transform="translate(312.605469 0)"/>
      <use xlink:href="#DejaVuSans-64" transform="translate(374.128906 0)"/>
      <use xlink:href="#DejaVuSans-20" transform="translate(437.605469 0)"/>
      <use xlink:href="#DejaVuSans-46" transform="translate(469.392578 0)"/>
      <use xlink:href="#DejaVuSans-6f" transform="translate(523.287109 0)"/>
      <use xlink:href="#DejaVuSans-72" transform="translate(584.46875 0)"/>
      <use xlink:href="#DejaVuSans-63" transform="translate(623.332031 0)"/>
      <use xlink:href="#DejaVuSans-65" transform="translate(678.3125 0)"/>
     </g>
    </g>
   </g>
  </g>
 </g>
 <defs>
  <clipPath id="pc70f5290c1">
   <rect x="57.17" y="26.88" width="392.83" height="276.76"/>
  </clipPath>
 </defs>
</svg>
