<?xml version="1.0" encoding="utf-8" standalone="no"?>
<!DOCTYPE svg PUBLIC "-//W3C//DTD SVG 1.1//EN"
  "http://www.w3.org/Graphics/SVG/1.1/DTD/svg11.dtd">
<svg xmlns:xlink="http://www.w3.org/1999/xlink" width="460.8pt" height="345.6pt" viewBox="0 0 460.8 345.6" xmlns="http://www.w3.org/2000/svg" version="1.1">
 <metadata>
  <rdf:RDF xmlns:dc="http://purl.org/dc/elements/1.1/" xmlns:cc="http://creativecommons.org/ns#" xmlns:rdf="http://www.w3.org/1999/02/22-rdf-syntax-ns#">
   <cc:Work>
    <dc:type rdf:resource="http://purl.org/dc/dcmitype/StillImage"/>
    <dc:date>2025-07-28T21:14:08.752404</dc:date>
    <dc:format>image/svg+xml</dc:format>
    <dc:creator>
     <cc:Agent>
      <dc:title>Matplotlib v3.10.3, https://matplotlib.org/</dc:title>
     </cc:Agent>
    </dc:creator>
   </cc:Work>
  </rdf:RDF>
 </metadata>
 <defs>
  <style type="text/css">*{stroke-linejoin: round; stroke-linecap: butt}</style>
 </defs>
 <g id="figure_1">
  <g id="patch_1">
   <path d="M 0 345.6 
L 460.8 345.6 
L 460.8 0 
L 0 0 
z
" style="fill: #ffffff"/>
  </g>
  <g id="axes_1">
   <g id="patch_2">
    <path d="M 57.17 303.64 
L 450 303.64 
L 450 26.88 
L 57.17 26.88 
z
" style="fill: #ffffff"/>
   </g>
   <g id="matplotlib.axis_1">
    <g id="xtick_1">
     <g id="line2d_1">
      <path d="M 75.105491 303.64 
L 75.105491 26.88 
" clip-path="url(#p3b4a5193b2)" style="fill: none; stroke: #b0b0b0; stroke-opacity: 0.3; stroke-width: 0.8; stroke-linecap: square"/>
     </g>
     <g id="line2d_2">
      <defs>
       <path id="m34e92e87fd" d="M 0 0 
L 0 3.5 
" style="stroke: #000000; stroke-width: 0.8"/>
      </defs>
      <g>
       <use xlink:href="#m34e92e87fd" x="75.105491" y="303.64" style="stroke: #000000; stroke-width: 0.8"/>
      </g>
     </g>
     <g id="text_1">
      <!-- 0.00 -->
      <g transform="translate(63.972678 318.238437) scale(0.1 -0.1)">
       <defs>
        <path id="DejaVuSans-30" d="M 2034 4250 
Q 1547 4250 1301 3770 
Q 1056 3291 1056 2328 
Q 1056 1369 1301 889 
Q 1547 409 2034 409 
Q 2525 409 2770 889 
Q 3016 1369 3016 2328 
Q 3016 3291 2770 3770 
Q 2525 4250 2034 4250 
z
M 2034 4750 
Q 2819 4750 3233 4129 
Q 3647 3509 3647 2328 
Q 3647 1150 3233 529 
Q 2819 -91 2034 -91 
Q 1250 -91 836 529 
Q 422 1150 422 2328 
Q 422 3509 836 4129 
Q 1250 4750 2034 4750 
z
" transform="scale(0.015625)"/>
        <path id="DejaVuSans-2e" d="M 684 794 
L 1344 794 
L 1344 0 
L 684 0 
L 684 794 
z
" transform="scale(0.015625)"/>
       </defs>
       <use xlink:href="#DejaVuSans-30"/>
       <use xlink:href="#DejaVuSans-2e" transform="translate(63.623047 0)"/>
       <use xlink:href="#DejaVuSans-30" transform="translate(95.410156 0)"/>
       <use xlink:href="#DejaVuSans-30" transform="translate(159.033203 0)"/>
      </g>
     </g>
    </g>
    <g id="xtick_2">
     <g id="line2d_3">
      <path d="M 123.293271 303.64 
L 123.293271 26.88 
" clip-path="url(#p3b4a5193b2)" style="fill: none; stroke: #b0b0b0; stroke-opacity: 0.3; stroke-width: 0.8; stroke-linecap: square"/>
     </g>
     <g id="line2d_4">
      <g>
       <use xlink:href="#m34e92e87fd" x="123.293271" y="303.64" style="stroke: #000000; stroke-width: 0.8"/>
      </g>
     </g>
     <g id="text_2">
      <!-- 0.05 -->
      <g transform="translate(112.160458 318.238437) scale(0.1 -0.1)">
       <defs>
        <path id="DejaVuSans-35" d="M 691 4666 
L 3169 4666 
L 3169 4134 
L 1269 4134 
L 1269 2991 
Q 1406 3038 1543 3061 
Q 1681 3084 1819 3084 
Q 2600 3084 3056 2656 
Q 3513 2228 3513 1497 
Q 3513 744 3044 326 
Q 2575 -91 1722 -91 
Q 1428 -91 1123 -41 
Q 819 9 494 109 
L 494 744 
Q 775 591 1075 516 
Q 1375 441 1709 441 
Q 2250 441 2565 725 
Q 2881 1009 2881 1497 
Q 2881 1984 2565 2268 
Q 2250 2553 1709 2553 
Q 1456 2553 1204 2497 
Q 953 2441 691 2322 
L 691 4666 
z
" transform="scale(0.015625)"/>
       </defs>
       <use xlink:href="#DejaVuSans-30"/>
       <use xlink:href="#DejaVuSans-2e" transform="translate(63.623047 0)"/>
       <use xlink:href="#DejaVuSans-30" transform="translate(95.410156 0)"/>
       <use xlink:href="#DejaVuSans-35" transform="translate(159.033203 0)"/>
      </g>
     </g>
    </g>
    <g id="xtick_3">
     <g id="line2d_5">
      <path d="M 171.481051 303.64 
L 171.481051 26.88 
" clip-path="url(#p3b4a5193b2)" style="fill: none; stroke: #b0b0b0; stroke-opacity: 0.3; stroke-width: 0.8; stroke-linecap: square"/>
     </g>
     <g id="line2d_6">
      <g>
       <use xlink:href="#m34e92e87fd" x="171.481051" y="303.64" style="stroke: #000000; stroke-width: 0.8"/>
      </g>
     </g>
     <g id="text_3">
      <!-- 0.10 -->
      <g transform="translate(160.348238 318.238437) scale(0.1 -0.1)">
       <defs>
        <path id="DejaVuSans-31" d="M 794 531 
L 1825 531 
L 1825 4091 
L 703 3866 
L 703 4441 
L 1819 4666 
L 2450 4666 
L 2450 531 
L 3481 531 
L 3481 0 
L 794 0 
L 794 531 
z
" transform="scale(0.015625)"/>
       </defs>
       <use xlink:href="#DejaVuSans-30"/>
       <use xlink:href="#DejaVuSans-2e" transform="translate(63.623047 0)"/>
       <use xlink:href="#DejaVuSans-31" transform="translate(95.410156 0)"/>
       <use xlink:href="#DejaVuSans-30" transform="translate(159.033203 0)"/>
      </g>
     </g>
    </g>
    <g id="xtick_4">
     <g id="line2d_7">
      <path d="M 219.668831 303.64 
L 219.668831 26.88 
" clip-path="url(#p3b4a5193b2)" style="fill: none; stroke: #b0b0b0; stroke-opacity: 0.3; stroke-width: 0.8; stroke-linecap: square"/>
     </g>
     <g id="line2d_8">
      <g>
       <use xlink:href="#m34e92e87fd" x="219.668831" y="303.64" style="stroke: #000000; stroke-width: 0.8"/>
      </g>
     </g>
     <g id="text_4">
      <!-- 0.15 -->
      <g transform="translate(208.536018 318.238437) scale(0.1 -0.1)">
       <use xlink:href="#DejaVuSans-30"/>
       <use xlink:href="#DejaVuSans-2e" transform="translate(63.623047 0)"/>
       <use xlink:href="#DejaVuSans-31" transform="translate(95.410156 0)"/>
       <use xlink:href="#DejaVuSans-35" transform="translate(159.033203 0)"/>
      </g>
     </g>
    </g>
    <g id="xtick_5">
     <g id="line2d_9">
      <path d="M 267.856611 303.64 
L 267.856611 26.88 
" clip-path="url(#p3b4a5193b2)" style="fill: none; stroke: #b0b0b0; stroke-opacity: 0.3; stroke-width: 0.8; stroke-linecap: square"/>
     </g>
     <g id="line2d_10">
      <g>
       <use xlink:href="#m34e92e87fd" x="267.856611" y="303.64" style="stroke: #000000; stroke-width: 0.8"/>
      </g>
     </g>
     <g id="text_5">
      <!-- 0.20 -->
      <g transform="translate(256.723799 318.238437) scale(0.1 -0.1)">
       <defs>
        <path id="DejaVuSans-32" d="M 1228 531 
L 3431 531 
L 3431 0 
L 469 0 
L 469 531 
Q 828 903 1448 1529 
Q 2069 2156 2228 2338 
Q 2531 2678 2651 2914 
Q 2772 3150 2772 3378 
Q 2772 3750 2511 3984 
Q 2250 4219 1831 4219 
Q 1534 4219 1204 4116 
Q 875 4013 500 3803 
L 500 4441 
Q 881 4594 1212 4672 
Q 1544 4750 1819 4750 
Q 2544 4750 2975 4387 
Q 3406 4025 3406 3419 
Q 3406 3131 3298 2873 
Q 3191 2616 2906 2266 
Q 2828 2175 2409 1742 
Q 1991 1309 1228 531 
z
" transform="scale(0.015625)"/>
       </defs>
       <use xlink:href="#DejaVuSans-30"/>
       <use xlink:href="#DejaVuSans-2e" transform="translate(63.623047 0)"/>
       <use xlink:href="#DejaVuSans-32" transform="translate(95.410156 0)"/>
       <use xlink:href="#DejaVuSans-30" transform="translate(159.033203 0)"/>
      </g>
     </g>
    </g>
    <g id="xtick_6">
     <g id="line2d_11">
      <path d="M 316.044391 303.64 
L 316.044391 26.88 
" clip-path="url(#p3b4a5193b2)" style="fill: none; stroke: #b0b0b0; stroke-opacity: 0.3; stroke-width: 0.8; stroke-linecap: square"/>
     </g>
     <g id="line2d_12">
      <g>
       <use xlink:href="#m34e92e87fd" x="316.044391" y="303.64" style="stroke: #000000; stroke-width: 0.8"/>
      </g>
     </g>
     <g id="text_6">
      <!-- 0.25 -->
      <g transform="translate(304.911579 318.238437) scale(0.1 -0.1)">
       <use xlink:href="#DejaVuSans-30"/>
       <use xlink:href="#DejaVuSans-2e" transform="translate(63.623047 0)"/>
       <use xlink:href="#DejaVuSans-32" transform="translate(95.410156 0)"/>
       <use xlink:href="#DejaVuSans-35" transform="translate(159.033203 0)"/>
      </g>
     </g>
    </g>
    <g id="xtick_7">
     <g id="line2d_13">
      <path d="M 364.232171 303.64 
L 364.232171 26.88 
" clip-path="url(#p3b4a5193b2)" style="fill: none; stroke: #b0b0b0; stroke-opacity: 0.3; stroke-width: 0.8; stroke-linecap: square"/>
     </g>
     <g id="line2d_14">
      <g>
       <use xlink:href="#m34e92e87fd" x="364.232171" y="303.64" style="stroke: #000000; stroke-width: 0.8"/>
      </g>
     </g>
     <g id="text_7">
      <!-- 0.30 -->
      <g transform="translate(353.099359 318.238437) scale(0.1 -0.1)">
       <defs>
        <path id="DejaVuSans-33" d="M 2597 2516 
Q 3050 2419 3304 2112 
Q 3559 1806 3559 1356 
Q 3559 666 3084 287 
Q 2609 -91 1734 -91 
Q 1441 -91 1130 -33 
Q 819 25 488 141 
L 488 750 
Q 750 597 1062 519 
Q 1375 441 1716 441 
Q 2309 441 2620 675 
Q 2931 909 2931 1356 
Q 2931 1769 2642 2001 
Q 2353 2234 1838 2234 
L 1294 2234 
L 1294 2753 
L 1863 2753 
Q 2328 2753 2575 2939 
Q 2822 3125 2822 3475 
Q 2822 3834 2567 4026 
Q 2313 4219 1838 4219 
Q 1578 4219 1281 4162 
Q 984 4106 628 3988 
L 628 4550 
Q 988 4650 1302 4700 
Q 1616 4750 1894 4750 
Q 2613 4750 3031 4423 
Q 3450 4097 3450 3541 
Q 3450 3153 3228 2886 
Q 3006 2619 2597 2516 
z
" transform="scale(0.015625)"/>
       </defs>
       <use xlink:href="#DejaVuSans-30"/>
       <use xlink:href="#DejaVuSans-2e" transform="translate(63.623047 0)"/>
       <use xlink:href="#DejaVuSans-33" transform="translate(95.410156 0)"/>
       <use xlink:href="#DejaVuSans-30" transform="translate(159.033203 0)"/>
      </g>
     </g>
    </g>
    <g id="xtick_8">
     <g id="line2d_15">
      <path d="M 412.419951 303.64 
L 412.419951 26.88 
" clip-path="url(#p3b4a5193b2)" style="fill: none; stroke: #b0b0b0; stroke-opacity: 0.3; stroke-width: 0.8; stroke-linecap: square"/>
     </g>
     <g id="line2d_16">
      <g>
       <use xlink:href="#m34e92e87fd" x="412.419951" y="303.64" style="stroke: #000000; stroke-width: 0.8"/>
      </g>
     </g>
     <g id="text_8">
      <!-- 0.35 -->
      <g transform="translate(401.287139 318.238437) scale(0.1 -0.1)">
       <use xlink:href="#DejaVuSans-30"/>
       <use xlink:href="#DejaVuSans-2e" transform="translate(63.623047 0)"/>
       <use xlink:href="#DejaVuSans-33" transform="translate(95.410156 0)"/>
       <use xlink:href="#DejaVuSans-35" transform="translate(159.033203 0)"/>
      </g>
     </g>
    </g>
    <g id="text_9">
     <!-- Strain [-] -->
     <g transform="translate(231.47875 331.916562) scale(0.1 -0.1)">
      <defs>
       <path id="DejaVuSans-53" d="M 3425 4513 
L 3425 3897 
Q 3066 4069 2747 4153 
Q 2428 4238 2131 4238 
Q 1616 4238 1336 4038 
Q 1056 3838 1056 3469 
Q 1056 3159 1242 3001 
Q 1428 2844 1947 2747 
L 2328 2669 
Q 3034 2534 3370 2195 
Q 3706 1856 3706 1288 
Q 3706 609 3251 259 
Q 2797 -91 1919 -91 
Q 1588 -91 1214 -16 
Q 841 59 441 206 
L 441 856 
Q 825 641 1194 531 
Q 1563 422 1919 422 
Q 2459 422 2753 634 
Q 3047 847 3047 1241 
Q 3047 1584 2836 1778 
Q 2625 1972 2144 2069 
L 1759 2144 
Q 1053 2284 737 2584 
Q 422 2884 422 3419 
Q 422 4038 858 4394 
Q 1294 4750 2059 4750 
Q 2388 4750 2728 4690 
Q 3069 4631 3425 4513 
z
" transform="scale(0.015625)"/>
       <path id="DejaVuSans-74" d="M 1172 4494 
L 1172 3500 
L 2356 3500 
L 2356 3053 
L 1172 3053 
L 1172 1153 
Q 1172 725 1289 603 
Q 1406 481 1766 481 
L 2356 481 
L 2356 0 
L 1766 0 
Q 1100 0 847 248 
Q 594 497 594 1153 
L 594 3053 
L 172 3053 
L 172 3500 
L 594 3500 
L 594 4494 
L 1172 4494 
z
" transform="scale(0.015625)"/>
       <path id="DejaVuSans-72" d="M 2631 2963 
Q 2534 3019 2420 3045 
Q 2306 3072 2169 3072 
Q 1681 3072 1420 2755 
Q 1159 2438 1159 1844 
L 1159 0 
L 581 0 
L 581 3500 
L 1159 3500 
L 1159 2956 
Q 1341 3275 1631 3429 
Q 1922 3584 2338 3584 
Q 2397 3584 2469 3576 
Q 2541 3569 2628 3553 
L 2631 2963 
z
" transform="scale(0.015625)"/>
       <path id="DejaVuSans-61" d="M 2194 1759 
Q 1497 1759 1228 1600 
Q 959 1441 959 1056 
Q 959 750 1161 570 
Q 1363 391 1709 391 
Q 2188 391 2477 730 
Q 2766 1069 2766 1631 
L 2766 1759 
L 2194 1759 
z
M 3341 1997 
L 3341 0 
L 2766 0 
L 2766 531 
Q 2569 213 2275 61 
Q 1981 -91 1556 -91 
Q 1019 -91 701 211 
Q 384 513 384 1019 
Q 384 1609 779 1909 
Q 1175 2209 1959 2209 
L 2766 2209 
L 2766 2266 
Q 2766 2663 2505 2880 
Q 2244 3097 1772 3097 
Q 1472 3097 1187 3025 
Q 903 2953 641 2809 
L 641 3341 
Q 956 3463 1253 3523 
Q 1550 3584 1831 3584 
Q 2591 3584 2966 3190 
Q 3341 2797 3341 1997 
z
" transform="scale(0.015625)"/>
       <path id="DejaVuSans-69" d="M 603 3500 
L 1178 3500 
L 1178 0 
L 603 0 
L 603 3500 
z
M 603 4863 
L 1178 4863 
L 1178 4134 
L 603 4134 
L 603 4863 
z
" transform="scale(0.015625)"/>
       <path id="DejaVuSans-6e" d="M 3513 2113 
L 3513 0 
L 2938 0 
L 2938 2094 
Q 2938 2591 2744 2837 
Q 2550 3084 2163 3084 
Q 1697 3084 1428 2787 
Q 1159 2491 1159 1978 
L 1159 0 
L 581 0 
L 581 3500 
L 1159 3500 
L 1159 2956 
Q 1366 3272 1645 3428 
Q 1925 3584 2291 3584 
Q 2894 3584 3203 3211 
Q 3513 2838 3513 2113 
z
" transform="scale(0.015625)"/>
       <path id="DejaVuSans-20" transform="scale(0.015625)"/>
       <path id="DejaVuSans-5b" d="M 550 4863 
L 1875 4863 
L 1875 4416 
L 1125 4416 
L 1125 -397 
L 1875 -397 
L 1875 -844 
L 550 -844 
L 550 4863 
z
" transform="scale(0.015625)"/>
       <path id="DejaVuSans-2d" d="M 313 2009 
L 1997 2009 
L 1997 1497 
L 313 1497 
L 313 2009 
z
" transform="scale(0.015625)"/>
       <path id="DejaVuSans-5d" d="M 1947 4863 
L 1947 -844 
L 622 -844 
L 622 -397 
L 1369 -397 
L 1369 4416 
L 622 4416 
L 622 4863 
L 1947 4863 
z
" transform="scale(0.015625)"/>
      </defs>
      <use xlink:href="#DejaVuSans-53"/>
      <use xlink:href="#DejaVuSans-74" transform="translate(63.476562 0)"/>
      <use xlink:href="#DejaVuSans-72" transform="translate(102.685547 0)"/>
      <use xlink:href="#DejaVuSans-61" transform="translate(143.798828 0)"/>
      <use xlink:href="#DejaVuSans-69" transform="translate(205.078125 0)"/>
      <use xlink:href="#DejaVuSans-6e" transform="translate(232.861328 0)"/>
      <use xlink:href="#DejaVuSans-20" transform="translate(296.240234 0)"/>
      <use xlink:href="#DejaVuSans-5b" transform="translate(328.027344 0)"/>
      <use xlink:href="#DejaVuSans-2d" transform="translate(367.041016 0)"/>
      <use xlink:href="#DejaVuSans-5d" transform="translate(403.125 0)"/>
     </g>
    </g>
   </g>
   <g id="matplotlib.axis_2">
    <g id="ytick_1">
     <g id="line2d_17">
      <path d="M 57.17 277.149957 
L 450 277.149957 
" clip-path="url(#p3b4a5193b2)" style="fill: none; stroke: #b0b0b0; stroke-opacity: 0.3; stroke-width: 0.8; stroke-linecap: square"/>
     </g>
     <g id="line2d_18">
      <defs>
       <path id="m71ced81434" d="M 0 0 
L -3.5 0 
" style="stroke: #000000; stroke-width: 0.8"/>
      </defs>
      <g>
       <use xlink:href="#m71ced81434" x="57.17" y="277.149957" style="stroke: #000000; stroke-width: 0.8"/>
      </g>
     </g>
     <g id="text_10">
      <!-- 0 -->
      <g transform="translate(43.8075 280.949176) scale(0.1 -0.1)">
       <use xlink:href="#DejaVuSans-30"/>
      </g>
     </g>
    </g>
    <g id="ytick_2">
     <g id="line2d_19">
      <path d="M 57.17 237.799563 
L 450 237.799563 
" clip-path="url(#p3b4a5193b2)" style="fill: none; stroke: #b0b0b0; stroke-opacity: 0.3; stroke-width: 0.8; stroke-linecap: square"/>
     </g>
     <g id="line2d_20">
      <g>
       <use xlink:href="#m71ced81434" x="57.17" y="237.799563" style="stroke: #000000; stroke-width: 0.8"/>
      </g>
     </g>
     <g id="text_11">
      <!-- 500 -->
      <g transform="translate(31.0825 241.598782) scale(0.1 -0.1)">
       <use xlink:href="#DejaVuSans-35"/>
       <use xlink:href="#DejaVuSans-30" transform="translate(63.623047 0)"/>
       <use xlink:href="#DejaVuSans-30" transform="translate(127.246094 0)"/>
      </g>
     </g>
    </g>
    <g id="ytick_3">
     <g id="line2d_21">
      <path d="M 57.17 198.449169 
L 450 198.449169 
" clip-path="url(#p3b4a5193b2)" style="fill: none; stroke: #b0b0b0; stroke-opacity: 0.3; stroke-width: 0.8; stroke-linecap: square"/>
     </g>
     <g id="line2d_22">
      <g>
       <use xlink:href="#m71ced81434" x="57.17" y="198.449169" style="stroke: #000000; stroke-width: 0.8"/>
      </g>
     </g>
     <g id="text_12">
      <!-- 1000 -->
      <g transform="translate(24.72 202.248388) scale(0.1 -0.1)">
       <use xlink:href="#DejaVuSans-31"/>
       <use xlink:href="#DejaVuSans-30" transform="translate(63.623047 0)"/>
       <use xlink:href="#DejaVuSans-30" transform="translate(127.246094 0)"/>
       <use xlink:href="#DejaVuSans-30" transform="translate(190.869141 0)"/>
      </g>
     </g>
    </g>
    <g id="ytick_4">
     <g id="line2d_23">
      <path d="M 57.17 159.098775 
L 450 159.098775 
" clip-path="url(#p3b4a5193b2)" style="fill: none; stroke: #b0b0b0; stroke-opacity: 0.3; stroke-width: 0.8; stroke-linecap: square"/>
     </g>
     <g id="line2d_24">
      <g>
       <use xlink:href="#m71ced81434" x="57.17" y="159.098775" style="stroke: #000000; stroke-width: 0.8"/>
      </g>
     </g>
     <g id="text_13">
      <!-- 1500 -->
      <g transform="translate(24.72 162.897993) scale(0.1 -0.1)">
       <use xlink:href="#DejaVuSans-31"/>
       <use xlink:href="#DejaVuSans-35" transform="translate(63.623047 0)"/>
       <use xlink:href="#DejaVuSans-30" transform="translate(127.246094 0)"/>
       <use xlink:href="#DejaVuSans-30" transform="translate(190.869141 0)"/>
      </g>
     </g>
    </g>
    <g id="ytick_5">
     <g id="line2d_25">
      <path d="M 57.17 119.74838 
L 450 119.74838 
" clip-path="url(#p3b4a5193b2)" style="fill: none; stroke: #b0b0b0; stroke-opacity: 0.3; stroke-width: 0.8; stroke-linecap: square"/>
     </g>
     <g id="line2d_26">
      <g>
       <use xlink:href="#m71ced81434" x="57.17" y="119.74838" style="stroke: #000000; stroke-width: 0.8"/>
      </g>
     </g>
     <g id="text_14">
      <!-- 2000 -->
      <g transform="translate(24.72 123.547599) scale(0.1 -0.1)">
       <use xlink:href="#DejaVuSans-32"/>
       <use xlink:href="#DejaVuSans-30" transform="translate(63.623047 0)"/>
       <use xlink:href="#DejaVuSans-30" transform="translate(127.246094 0)"/>
       <use xlink:href="#DejaVuSans-30" transform="translate(190.869141 0)"/>
      </g>
     </g>
    </g>
    <g id="ytick_6">
     <g id="line2d_27">
      <path d="M 57.17 80.397986 
L 450 80.397986 
" clip-path="url(#p3b4a5193b2)" style="fill: none; stroke: #b0b0b0; stroke-opacity: 0.3; stroke-width: 0.8; stroke-linecap: square"/>
     </g>
     <g id="line2d_28">
      <g>
       <use xlink:href="#m71ced81434" x="57.17" y="80.397986" style="stroke: #000000; stroke-width: 0.8"/>
      </g>
     </g>
     <g id="text_15">
      <!-- 2500 -->
      <g transform="translate(24.72 84.197205) scale(0.1 -0.1)">
       <use xlink:href="#DejaVuSans-32"/>
       <use xlink:href="#DejaVuSans-35" transform="translate(63.623047 0)"/>
       <use xlink:href="#DejaVuSans-30" transform="translate(127.246094 0)"/>
       <use xlink:href="#DejaVuSans-30" transform="translate(190.869141 0)"/>
      </g>
     </g>
    </g>
    <g id="ytick_7">
     <g id="line2d_29">
      <path d="M 57.17 41.047592 
L 450 41.047592 
" clip-path="url(#p3b4a5193b2)" style="fill: none; stroke: #b0b0b0; stroke-opacity: 0.3; stroke-width: 0.8; stroke-linecap: square"/>
     </g>
     <g id="line2d_30">
      <g>
       <use xlink:href="#m71ced81434" x="57.17" y="41.047592" style="stroke: #000000; stroke-width: 0.8"/>
      </g>
     </g>
     <g id="text_16">
      <!-- 3000 -->
      <g transform="translate(24.72 44.846811) scale(0.1 -0.1)">
       <use xlink:href="#DejaVuSans-33"/>
       <use xlink:href="#DejaVuSans-30" transform="translate(63.623047 0)"/>
       <use xlink:href="#DejaVuSans-30" transform="translate(127.246094 0)"/>
       <use xlink:href="#DejaVuSans-30" transform="translate(190.869141 0)"/>
      </g>
     </g>
    </g>
    <g id="text_17">
     <!-- Stress [Pa] -->
     <g transform="translate(18.640312 191.967812) rotate(-90) scale(0.1 -0.1)">
      <defs>
       <path id="DejaVuSans-65" d="M 3597 1894 
L 3597 1613 
L 953 1613 
Q 991 1019 1311 708 
Q 1631 397 2203 397 
Q 2534 397 2845 478 
Q 3156 559 3463 722 
L 3463 178 
Q 3153 47 2828 -22 
Q 2503 -91 2169 -91 
Q 1331 -91 842 396 
Q 353 884 353 1716 
Q 353 2575 817 3079 
Q 1281 3584 2069 3584 
Q 2775 3584 3186 3129 
Q 3597 2675 3597 1894 
z
M 3022 2063 
Q 3016 2534 2758 2815 
Q 2500 3097 2075 3097 
Q 1594 3097 1305 2825 
Q 1016 2553 972 2059 
L 3022 2063 
z
" transform="scale(0.015625)"/>
       <path id="DejaVuSans-73" d="M 2834 3397 
L 2834 2853 
Q 2591 2978 2328 3040 
Q 2066 3103 1784 3103 
Q 1356 3103 1142 2972 
Q 928 2841 928 2578 
Q 928 2378 1081 2264 
Q 1234 2150 1697 2047 
L 1894 2003 
Q 2506 1872 2764 1633 
Q 3022 1394 3022 966 
Q 3022 478 2636 193 
Q 2250 -91 1575 -91 
Q 1294 -91 989 -36 
Q 684 19 347 128 
L 347 722 
Q 666 556 975 473 
Q 1284 391 1588 391 
Q 1994 391 2212 530 
Q 2431 669 2431 922 
Q 2431 1156 2273 1281 
Q 2116 1406 1581 1522 
L 1381 1569 
Q 847 1681 609 1914 
Q 372 2147 372 2553 
Q 372 3047 722 3315 
Q 1072 3584 1716 3584 
Q 2034 3584 2315 3537 
Q 2597 3491 2834 3397 
z
" transform="scale(0.015625)"/>
       <path id="DejaVuSans-50" d="M 1259 4147 
L 1259 2394 
L 2053 2394 
Q 2494 2394 2734 2622 
Q 2975 2850 2975 3272 
Q 2975 3691 2734 3919 
Q 2494 4147 2053 4147 
L 1259 4147 
z
M 628 4666 
L 2053 4666 
Q 2838 4666 3239 4311 
Q 3641 3956 3641 3272 
Q 3641 2581 3239 2228 
Q 2838 1875 2053 1875 
L 1259 1875 
L 1259 0 
L 628 0 
L 628 4666 
z
" transform="scale(0.015625)"/>
      </defs>
      <use xlink:href="#DejaVuSans-53"/>
      <use xlink:href="#DejaVuSans-74" transform="translate(63.476562 0)"/>
      <use xlink:href="#DejaVuSans-72" transform="translate(102.685547 0)"/>
      <use xlink:href="#DejaVuSans-65" transform="translate(141.548828 0)"/>
      <use xlink:href="#DejaVuSans-73" transform="translate(203.072266 0)"/>
      <use xlink:href="#DejaVuSans-73" transform="translate(255.171875 0)"/>
      <use xlink:href="#DejaVuSans-20" transform="translate(307.271484 0)"/>
      <use xlink:href="#DejaVuSans-5b" transform="translate(339.058594 0)"/>
      <use xlink:href="#DejaVuSans-50" transform="translate(378.072266 0)"/>
      <use xlink:href="#DejaVuSans-61" transform="translate(433.875 0)"/>
      <use xlink:href="#DejaVuSans-5d" transform="translate(495.154297 0)"/>
     </g>
    </g>
   </g>
   <g id="line2d_31">
    <path d="M 75.105491 283.57698 
L 75.105491 283.577312 
L 75.10603 283.444896 
L 75.137069 283.52718 
L 75.866484 280.243115 
L 76.253599 280.041611 
L 76.647931 280.197111 
L 77.047982 280.141207 
L 77.430331 279.823327 
L 78.656626 277.888828 
L 79.020457 277.747318 
L 79.407709 277.810571 
L 80.24049 278.26805 
L 81.136995 278.945706 
L 83.733921 281.375602 
L 84.196879 281.638897 
L 84.650034 281.669487 
L 85.09393 281.356652 
L 86.828663 279.082714 
L 87.26221 278.809328 
L 87.697391 278.751914 
L 88.133661 278.902521 
L 89.419052 280.001876 
L 89.829179 280.068216 
L 90.229045 279.90194 
L 90.998645 279.095236 
L 93.200693 276.396846 
L 93.943061 275.821939 
L 94.319964 275.671485 
L 94.700679 275.640733 
L 95.468101 275.938813 
L 96.232255 276.293083 
L 96.982248 276.277867 
L 97.715356 275.91641 
L 99.764357 274.604216 
L 101.531769 273.653175 
L 106.39229 271.863932 
L 108.152622 271.023131 
L 112.166747 269.476083 
L 113.965205 268.829619 
L 119.610032 266.623874 
L 122.212948 265.476814 
L 124.748872 264.538004 
L 127.642091 263.276574 
L 130.166577 262.27431 
L 131.963401 261.433662 
L 148.984661 254.266393 
L 150.310356 253.68216 
L 152.52003 252.8435 
L 156.470973 251.01649 
L 157.790133 250.488677 
L 159.546108 249.732736 
L 162.174623 248.571303 
L 164.820568 247.440603 
L 166.584712 246.693072 
L 171.836297 244.253542 
L 175.069926 242.821016 
L 179.812537 240.580774 
L 189.530855 236.207355 
L 196.700722 232.69431 
L 200.66746 230.845129 
L 204.265465 229.012463 
L 205.708262 228.282515 
L 214.259379 224.24181 
L 216.900967 222.851638 
L 218.654771 221.898455 
L 220.411291 220.98151 
L 221.730995 220.383516 
L 225.688661 218.243719 
L 234.272458 213.729481 
L 235.520812 213.093261 
L 239.518051 210.878037 
L 241.288732 209.952224 
L 243.053965 208.870299 
L 244.384018 208.098457 
L 250.458035 204.723328 
L 254.04787 202.693725 
L 263.034169 197.463606 
L 265.258004 195.941939 
L 268.864179 193.793379 
L 271.043318 192.591609 
L 277.167444 188.78102 
L 288.756114 181.299592 
L 291.522972 179.488025 
L 295.894391 176.608601 
L 301.18628 172.911158 
L 317.151356 161.180507 
L 319.0277 159.749357 
L 322.614812 157.054942 
L 336.569473 145.688003 
L 338.343421 144.075513 
L 340.220855 142.470363 
L 345.626577 137.825853 
L 360.479344 124.15238 
L 365.777241 119.032655 
L 379.024393 105.272812 
L 383.448643 100.309046 
L 386.562992 96.775207 
L 395.405501 86.507624 
L 398.519306 82.695505 
L 402.804669 77.318296 
L 405.667149 73.630562 
L 410.70904 66.913944 
L 415.782522 59.986322 
L 418.305918 56.437804 
L 424.438758 47.660696 
L 427.408229 44.254682 
L 430.902068 40.638582 
L 431.628301 39.760244 
L 431.979094 40.011231 
L 432.144091 44.832876 
L 432.051942 81.94398 
L 432.052554 82.334928 
L 431.865124 82.442761 
L 431.502893 82.857542 
L 430.756168 84.543424 
L 430.393018 84.761843 
L 429.648472 85.632612 
L 428.507824 87.171633 
L 428.132691 87.613822 
L 427.402033 89.86299 
L 427.038066 90.623059 
L 426.316395 91.291999 
L 424.836562 93.397594 
L 424.099777 95.603338 
L 423.358907 96.67068 
L 422.622803 97.658265 
L 418.96012 103.797226 
L 418.21748 104.9582 
L 417.483009 105.89938 
L 415.268706 109.439871 
L 414.539716 110.469178 
L 412.343454 113.871523 
L 407.917298 119.987243 
L 404.988097 123.812453 
L 403.889456 125.246202 
L 403.154169 126.090673 
L 399.125067 131.261695 
L 396.951204 133.844646 
L 396.220921 134.699484 
L 395.126841 135.940579 
L 393.659126 137.719807 
L 386.735921 145.395772 
L 383.786807 148.419994 
L 383.047911 149.186255 
L 381.934904 150.442257 
L 380.128413 152.25046 
L 379.393806 153.040345 
L 377.579145 154.715725 
L 376.478256 155.799943 
L 375.748416 156.4961 
L 374.649366 157.701339 
L 373.561822 158.606128 
L 364.421317 167.168545 
L 363.700327 167.658629 
L 359.673081 171.214534 
L 358.223476 172.354599 
L 356.769241 173.581856 
L 356.043758 174.16846 
L 348.01723 180.552701 
L 346.55857 181.630115 
L 337.060515 188.64037 
L 336.319714 189.154346 
L 335.578844 189.683229 
L 334.486942 190.313562 
L 333.388284 191.176743 
L 331.927173 192.097778 
L 331.191205 192.778798 
L 329.373207 193.854091 
L 328.27511 194.645734 
L 327.556844 195.103174 
L 326.123034 196.06209 
L 325.379849 196.433754 
L 322.091515 198.549081 
L 320.997027 199.164086 
L 319.523457 200.159278 
L 314.774217 203.035544 
L 313.679796 203.699744 
L 312.594567 204.44567 
L 311.125899 205.221717 
L 309.286728 206.391713 
L 307.81983 207.191612 
L 306.356149 208.071106 
L 305.63761 208.457123 
L 302.729277 210.193233 
L 302.008423 210.710764 
L 300.900045 211.105204 
L 300.177762 211.592193 
L 299.43839 212.125013 
L 298.715085 212.390678 
L 297.973296 212.913875 
L 296.88616 213.523433 
L 296.154958 213.863178 
L 295.050802 214.438429 
L 293.959173 214.872394 
L 293.21946 215.548673 
L 291.755558 215.985329 
L 291.387574 216.274091 
L 291.025173 216.911763 
L 290.29683 217.059217 
L 289.570121 217.299003 
L 289.208724 217.282734 
L 288.844961 218.116348 
L 288.110355 218.204261 
L 287.377383 218.446513 
L 287.00933 218.36075 
L 286.645159 219.195817 
L 285.905515 219.210777 
L 284.809392 219.506998 
L 284.445357 220.33442 
L 283.708708 220.381031 
L 282.608569 220.511422 
L 282.247937 221.429361 
L 281.528037 221.432118 
L 280.792477 221.679301 
L 280.426893 221.586256 
L 280.059522 222.515356 
L 279.698482 222.63223 
L 278.232742 222.630753 
L 277.511139 223.708779 
L 276.780209 223.780905 
L 275.690827 224.104916 
L 275.332306 224.914296 
L 274.236456 224.951379 
L 273.87317 225.040859 
L 273.513083 224.943614 
L 273.149457 225.673027 
L 272.780928 226.015252 
L 272.409472 226.022854 
L 271.687665 226.23066 
L 271.320923 226.155299 
L 270.954778 226.488584 
L 270.589245 227.071121 
L 270.219014 227.031845 
L 269.13215 227.444295 
L 268.76723 227.552362 
L 268.408369 228.351879 
L 267.682954 228.286748 
L 266.95502 228.411209 
L 266.584857 228.285415 
L 266.219324 228.948584 
L 265.845349 229.317886 
L 265.476616 229.230274 
L 264.393837 229.355658 
L 264.029257 229.632408 
L 263.670805 230.263964 
L 262.942735 230.345316 
L 261.850254 230.523431 
L 261.478866 231.202769 
L 259.658077 231.405286 
L 259.289617 232.04743 
L 258.922109 232.233697 
L 258.561274 232.205912 
L 257.839739 232.47559 
L 257.478087 232.398017 
L 256.756893 233.226562 
L 256.032363 233.194343 
L 254.918811 233.658477 
L 254.56138 234.243723 
L 253.817923 234.259319 
L 252.73094 234.403356 
L 252.362139 235.174587 
L 252.001032 235.323336 
L 250.534678 235.264679 
L 250.168124 235.666865 
L 249.806336 236.271702 
L 249.084597 236.297141 
L 247.989836 236.496924 
L 247.623622 237.207298 
L 246.893713 237.321814 
L 245.798067 237.386259 
L 245.432058 237.996868 
L 245.060125 238.269322 
L 244.333859 238.245613 
L 243.961177 238.332532 
L 243.604222 238.298349 
L 242.870637 239.084715 
L 241.391008 239.220063 
L 240.645508 240.062302 
L 239.179019 240.149376 
L 238.817843 240.470396 
L 238.446251 241.052183 
L 238.08739 241.123451 
L 237.36994 241.11341 
L 236.638193 241.308387 
L 236.265307 241.751034 
L 234.425626 242.178948 
L 234.056348 242.670218 
L 232.214862 242.980344 
L 231.850827 243.575586 
L 231.484886 243.735783 
L 230.012201 243.881339 
L 229.643059 244.358618 
L 229.28379 244.63684 
L 227.836976 244.678601 
L 227.478387 244.932951 
L 227.112378 245.523224 
L 226.393805 245.55433 
L 225.660969 245.641457 
L 225.29598 245.649499 
L 224.92255 246.213779 
L 223.828402 246.407248 
L 223.085353 246.536471 
L 222.726015 247.064972 
L 222.358168 247.262629 
L 221.629008 247.216487 
L 220.905499 247.288775 
L 220.54691 247.619079 
L 220.189343 248.139247 
L 219.450992 248.127841 
L 218.70522 248.11844 
L 218.334581 248.221065 
L 217.968129 248.807064 
L 217.597626 249.09602 
L 216.864653 249.039277 
L 216.12746 249.0628 
L 215.76751 249.311173 
L 215.40504 249.914442 
L 213.564984 249.955869 
L 213.206259 250.454057 
L 212.842837 250.728915 
L 212.113405 250.692095 
L 211.388738 250.726748 
L 211.028652 251.00713 
L 210.658081 251.601913 
L 208.826075 251.61921 
L 208.454143 252.212847 
L 208.091197 252.520765 
L 207.354684 252.519883 
L 206.62389 252.513234 
L 206.260876 252.741558 
L 205.899088 253.250717 
L 205.53335 253.369839 
L 204.813994 253.297118 
L 204.073465 253.321985 
L 203.327693 254.049427 
L 201.876454 254.168613 
L 201.515142 254.449587 
L 201.14355 254.903931 
L 200.411939 255.072693 
L 199.325127 255.174381 
L 198.594265 255.728799 
L 197.128048 255.985866 
L 196.403586 256.501618 
L 195.312365 256.698442 
L 194.94479 256.77431 
L 194.2142 257.287608 
L 192.730622 257.494003 
L 191.64192 258.122788 
L 190.892728 258.217807 
L 190.158734 258.383475 
L 189.422834 258.825549 
L 188.320856 258.949346 
L 187.593262 259.330183 
L 186.860971 259.670024 
L 173.715483 263.949224 
L 172.62576 264.181833 
L 167.143377 266.051148 
L 166.409724 266.239218 
L 165.310878 266.62384 
L 164.204067 266.809125 
L 163.476337 267.21007 
L 162.384912 267.462113 
L 162.026528 267.521129 
L 160.559902 268.133056 
L 159.829244 268.221392 
L 158.723522 268.694581 
L 157.984695 268.946079 
L 157.25431 268.983568 
L 155.787888 269.624731 
L 154.697825 269.932429 
L 153.964853 270.322536 
L 153.227523 270.455078 
L 152.489376 270.568889 
L 152.1314 270.727122 
L 151.413542 270.850465 
L 148.852701 271.554217 
L 148.124153 271.756744 
L 147.393292 272.027569 
L 145.938925 272.27367 
L 144.851585 272.644636 
L 143.763224 272.88782 
L 142.661178 273.297632 
L 141.56206 273.455131 
L 139.723638 274.159881 
L 138.997474 274.316676 
L 137.899036 274.793401 
L 136.434394 275.067074 
L 135.345148 275.433022 
L 134.252838 275.704599 
L 133.154604 276.193823 
L 132.065018 276.405727 
L 131.334564 276.939006 
L 129.87393 276.910713 
L 129.511188 277.022461 
L 129.143341 277.363276 
L 128.049797 277.60229 
L 127.323837 277.727614 
L 126.592907 278.059428 
L 124.405904 278.589556 
L 123.316862 279.015117 
L 121.852347 279.310767 
L 121.114541 279.634649 
L 120.027541 279.838092 
L 119.313104 280.003751 
L 117.130118 280.621654 
L 114.563149 281.371225 
L 113.843521 281.468443 
L 113.115042 281.77906 
L 112.392554 282.06875 
L 111.649778 282.087007 
L 110.914899 282.281267 
L 110.19342 282.625789 
L 108.719578 282.890005 
L 107.617873 283.313149 
L 106.896474 283.319868 
L 105.436521 283.815897 
L 104.334134 284.02306 
L 103.593809 284.400472 
L 101.776288 284.645598 
L 100.699007 284.997188 
L 99.595532 285.308818 
L 98.489946 285.700666 
L 96.665957 286.040783 
L 95.577937 286.455602 
L 94.49366 286.526986 
L 93.391819 286.999736 
L 91.556649 287.356627 
L 90.823812 287.69385 
L 89.724967 287.631791 
L 89.352081 287.657201 
L 88.980216 287.806112 
L 88.617951 288.199373 
L 88.246903 288.43777 
L 87.155819 288.242649 
L 86.789128 288.240866 
L 86.419374 288.4632 
L 86.049212 289.062953 
L 85.679866 289.090922 
L 84.204185 288.679048 
L 83.835779 289.156398 
L 83.474399 289.839558 
L 83.117035 289.79407 
L 82.388693 289.440698 
L 81.65075 289.131934 
L 81.286102 289.576316 
L 80.928399 290.376903 
L 80.566746 290.531187 
L 79.834999 290.012051 
L 79.111014 289.799172 
L 78.745821 289.813688 
L 78.384577 290.609689 
L 78.026737 291.06 
L 76.907603 290.393798 
L 76.173065 290.261092 
L 75.815565 290.711537 
L 75.45153 290.708615 
L 75.102871 290.532985 
L 75.086651 290.574306 
L 75.026209 289.400151 
L 75.026209 289.400151 
" clip-path="url(#p3b4a5193b2)" style="fill: none; stroke: #ff0000; stroke-width: 2; stroke-linecap: square"/>
   </g>
   <g id="line2d_32">
    <path d="M 75.105491 283.57698 
L 75.105491 283.577312 
L 75.10603 283.444896 
L 75.137069 283.52718 
L 75.866484 280.243115 
L 76.253599 280.041611 
L 76.647931 280.197111 
L 77.047982 280.141207 
L 77.430331 279.823327 
L 77.850534 283.527798 
L 78.656626 281.940995 
L 79.020457 281.503164 
L 79.407709 281.229424 
L 80.24049 281.039522 
L 83.733921 281.375602 
L 84.196879 281.638897 
L 84.650034 281.669487 
L 85.09393 281.238608 
L 86.396205 278.51713 
L 86.828663 279.082714 
L 87.26221 278.809328 
L 87.697391 278.751914 
L 88.133661 278.902521 
L 89.419052 280.001876 
L 89.829179 280.068216 
L 90.229045 279.90194 
L 90.998645 279.095236 
L 93.200693 276.396846 
L 93.943061 275.821939 
L 94.319964 275.671485 
L 94.700679 275.640733 
L 95.468101 275.938813 
L 96.232255 276.293083 
L 96.982248 276.277867 
L 97.715356 275.91641 
L 99.764357 274.604216 
L 101.531769 273.653175 
L 106.39229 271.863932 
L 108.152622 271.023131 
L 112.166747 269.476083 
L 113.965205 268.829619 
L 119.610032 266.623874 
L 122.212948 265.476814 
L 124.748872 264.538004 
L 127.642091 263.276574 
L 130.166577 262.27431 
L 131.963401 261.433662 
L 148.984661 254.266393 
L 150.310356 253.68216 
L 152.52003 252.8435 
L 156.470973 251.01649 
L 157.790133 250.488677 
L 159.546108 249.732736 
L 162.174623 248.571303 
L 164.820568 247.440603 
L 166.584712 246.693072 
L 171.836297 244.253542 
L 175.069926 242.821016 
L 179.812537 240.580774 
L 189.530855 236.207355 
L 196.700722 232.69431 
L 200.66746 230.845129 
L 204.265465 229.012463 
L 205.708262 228.282515 
L 214.259379 224.24181 
L 216.900967 222.851638 
L 218.654771 221.898455 
L 220.411291 220.98151 
L 221.730995 220.383516 
L 225.688661 218.243719 
L 234.272458 213.729481 
L 235.520812 213.093261 
L 239.518051 210.878037 
L 241.288732 209.952224 
L 243.053965 208.870299 
L 244.384018 208.098457 
L 250.458035 204.723328 
L 254.04787 202.693725 
L 263.034169 197.463606 
L 265.258004 195.941939 
L 268.864179 193.793379 
L 271.043318 192.591609 
L 277.167444 188.78102 
L 288.756114 181.299592 
L 291.522972 179.488025 
L 295.894391 176.608601 
L 301.18628 172.911158 
L 317.151356 161.180507 
L 319.0277 159.749357 
L 322.614812 157.054942 
L 336.569473 145.688003 
L 338.343421 144.075513 
L 340.220855 142.470363 
L 345.626577 137.825853 
L 360.479344 124.15238 
L 365.777241 119.032655 
L 379.024393 105.272812 
L 383.448643 100.309046 
L 386.562992 96.775207 
L 395.405501 86.507624 
L 398.519306 82.695505 
L 402.804669 77.318296 
L 405.667149 73.630562 
L 410.70904 66.913944 
L 415.782522 59.986322 
L 418.305918 56.437804 
L 422.272656 50.490208 
L 423.720355 48.211874 
L 428.58251 41.073096 
L 429.743174 39.876043 
L 430.147037 39.574599 
L 430.539735 39.46 
L 430.902068 39.696079 
L 431.265899 40.10245 
L 431.628301 39.670071 
L 431.979094 39.967879 
L 432.144091 44.785977 
L 432.052214 81.279321 
L 432.052554 82.334928 
L 431.865124 82.442761 
L 431.502893 82.857542 
L 430.756168 84.543424 
L 430.393018 84.761843 
L 429.648472 85.632612 
L 428.507824 87.171633 
L 428.132691 87.613822 
L 427.402033 89.86299 
L 427.038066 90.623059 
L 426.316395 91.291999 
L 424.836562 93.397594 
L 424.099777 95.603338 
L 423.358907 96.67068 
L 422.622803 97.658265 
L 418.96012 103.797226 
L 418.21748 104.9582 
L 417.483009 105.89938 
L 415.268706 109.439871 
L 414.539716 110.469178 
L 412.343454 113.871523 
L 407.917298 119.987243 
L 404.988097 123.812453 
L 403.889456 125.246202 
L 403.154169 126.090673 
L 399.125067 131.261695 
L 396.951204 133.844646 
L 396.220921 134.699484 
L 395.126841 135.940579 
L 393.659126 137.719807 
L 386.735921 145.395772 
L 383.786807 148.419994 
L 383.047911 149.186255 
L 381.934904 150.442257 
L 380.128413 152.25046 
L 379.393806 153.040345 
L 377.579145 154.715725 
L 376.478256 155.799943 
L 375.748416 156.4961 
L 374.649366 157.701339 
L 373.561822 158.606128 
L 364.421317 167.168545 
L 363.700327 167.658629 
L 359.673081 171.214534 
L 358.223476 172.354599 
L 356.769241 173.581856 
L 356.043758 174.16846 
L 348.01723 180.552701 
L 346.55857 181.630115 
L 337.060515 188.64037 
L 336.319714 189.154346 
L 335.578844 189.683229 
L 334.486942 190.313562 
L 333.388284 191.176743 
L 331.927173 192.097778 
L 331.191205 192.778798 
L 329.373207 193.854091 
L 328.27511 194.645734 
L 327.556844 195.103174 
L 326.123034 196.06209 
L 325.379849 196.433754 
L 322.091515 198.549081 
L 320.997027 199.164086 
L 319.523457 200.159278 
L 314.774217 203.035544 
L 313.679796 203.699744 
L 312.594567 204.44567 
L 311.125899 205.221717 
L 309.286728 206.391713 
L 307.81983 207.191612 
L 306.356149 208.071106 
L 305.63761 208.457123 
L 302.729277 210.193233 
L 302.008423 210.710764 
L 300.900045 211.105204 
L 300.177762 211.592193 
L 299.43839 212.125013 
L 298.715085 212.390678 
L 297.973296 212.913875 
L 296.88616 213.523433 
L 296.154958 213.863178 
L 295.050802 214.438429 
L 293.959173 214.872394 
L 293.21946 215.548673 
L 291.755558 215.985329 
L 291.387574 216.274091 
L 291.025173 216.911763 
L 290.29683 217.059217 
L 289.570121 217.299003 
L 289.208724 217.282734 
L 288.844961 218.116348 
L 288.110355 218.204261 
L 287.377383 218.446513 
L 287.00933 218.36075 
L 286.645159 219.195817 
L 285.905515 219.210777 
L 284.809392 219.506998 
L 284.445357 220.33442 
L 283.708708 220.381031 
L 282.608569 220.511422 
L 282.247937 221.429361 
L 281.528037 221.432118 
L 280.792477 221.679301 
L 280.426893 221.586256 
L 280.059522 222.515356 
L 279.698482 222.63223 
L 278.232742 222.630753 
L 277.511139 223.708779 
L 276.780209 223.780905 
L 275.690827 224.104916 
L 275.332306 224.914296 
L 274.236456 224.951379 
L 273.87317 225.040859 
L 273.513083 224.943614 
L 273.149457 225.673027 
L 272.780928 226.015252 
L 272.409472 226.022854 
L 271.687665 226.23066 
L 271.320923 226.155299 
L 270.954778 226.488584 
L 270.589245 227.071121 
L 270.219014 227.031845 
L 269.13215 227.444295 
L 268.76723 227.552362 
L 268.408369 228.351879 
L 267.682954 228.286748 
L 266.95502 228.411209 
L 266.584857 228.285415 
L 266.219324 228.948584 
L 265.845349 229.317886 
L 265.476616 229.230274 
L 264.393837 229.355658 
L 264.029257 229.632408 
L 263.670805 230.263964 
L 262.942735 230.345316 
L 261.850254 230.523431 
L 261.478866 231.202769 
L 259.658077 231.405286 
L 259.289617 232.04743 
L 258.922109 232.233697 
L 258.561274 232.205912 
L 257.839739 232.47559 
L 257.478087 232.398017 
L 256.756893 233.226562 
L 256.032363 233.194343 
L 254.918811 233.658477 
L 254.56138 234.243723 
L 253.817923 234.259319 
L 252.73094 234.403356 
L 252.362139 235.174587 
L 252.001032 235.323336 
L 250.534678 235.264679 
L 250.168124 235.666865 
L 249.806336 236.271702 
L 249.084597 236.297141 
L 247.989836 236.496924 
L 247.623622 237.207298 
L 246.893713 237.321814 
L 245.798067 237.386259 
L 245.432058 237.996868 
L 245.060125 238.269322 
L 244.333859 238.245613 
L 243.961177 238.332532 
L 243.604222 238.298349 
L 242.870637 239.084715 
L 241.391008 239.220063 
L 240.645508 240.062302 
L 239.179019 240.149376 
L 238.817843 240.470396 
L 238.446251 241.052183 
L 238.08739 241.123451 
L 237.36994 241.11341 
L 236.638193 241.308387 
L 236.265307 241.751034 
L 234.425626 242.178948 
L 234.056348 242.670218 
L 232.214862 242.980344 
L 231.850827 243.575586 
L 231.484886 243.735783 
L 230.012201 243.881339 
L 229.643059 244.358618 
L 229.28379 244.63684 
L 227.836976 244.678601 
L 227.478387 244.932951 
L 227.112378 245.523224 
L 226.393805 245.55433 
L 225.660969 245.641457 
L 225.29598 245.649499 
L 224.92255 246.213779 
L 223.828402 246.407248 
L 223.085353 246.536471 
L 222.726015 247.064972 
L 222.358168 247.262629 
L 221.629008 247.216487 
L 220.905499 247.288775 
L 220.54691 247.619079 
L 220.189343 248.139247 
L 219.450992 248.127841 
L 218.70522 248.11844 
L 218.334581 248.221065 
L 217.968129 248.807064 
L 217.597626 249.09602 
L 216.864653 249.039277 
L 216.12746 249.0628 
L 215.76751 249.311173 
L 215.40504 249.914442 
L 213.564984 249.955869 
L 213.206259 250.454057 
L 212.842837 250.728915 
L 212.113405 250.692095 
L 211.388738 250.726748 
L 211.028652 251.00713 
L 210.658081 251.601913 
L 208.826075 251.61921 
L 208.454143 252.212847 
L 208.091197 252.520765 
L 207.354684 252.519883 
L 206.62389 252.513234 
L 206.260876 252.741558 
L 205.899088 253.250717 
L 205.53335 253.369839 
L 204.813994 253.297118 
L 204.073465 253.321985 
L 203.327693 254.049427 
L 201.876454 254.168613 
L 201.515142 254.449587 
L 201.14355 254.903931 
L 200.411939 255.072693 
L 199.325127 255.174381 
L 198.594265 255.728799 
L 197.128048 255.985866 
L 196.403586 256.501618 
L 195.312365 256.698442 
L 194.94479 256.77431 
L 194.2142 257.287608 
L 192.730622 257.494003 
L 191.64192 258.122788 
L 190.892728 258.217807 
L 190.158734 258.383475 
L 189.422834 258.825549 
L 188.320856 258.949346 
L 187.593262 259.330183 
L 186.860971 259.670024 
L 173.715483 263.949224 
L 172.62576 264.181833 
L 167.143377 266.051148 
L 166.409724 266.239218 
L 165.310878 266.62384 
L 164.204067 266.809125 
L 163.476337 267.21007 
L 162.384912 267.462113 
L 162.026528 267.521129 
L 160.559902 268.133056 
L 159.829244 268.221392 
L 158.723522 268.694581 
L 157.984695 268.946079 
L 157.25431 268.983568 
L 155.787888 269.624731 
L 154.697825 269.932429 
L 153.964853 270.322536 
L 153.227523 270.455078 
L 152.489376 270.568889 
L 152.1314 270.727122 
L 151.413542 270.850465 
L 148.852701 271.554217 
L 148.124153 271.756744 
L 147.393292 272.027569 
L 145.938925 272.27367 
L 144.851585 272.644636 
L 143.763224 272.88782 
L 142.661178 273.297632 
L 141.56206 273.455131 
L 139.723638 274.159881 
L 138.997474 274.316676 
L 137.899036 274.793401 
L 136.434394 275.067074 
L 135.345148 275.433022 
L 134.252838 275.704599 
L 133.154604 276.193823 
L 132.065018 276.405727 
L 131.334564 276.939006 
L 129.87393 276.910713 
L 129.511188 277.022461 
L 129.143341 277.363276 
L 128.049797 277.60229 
L 127.323837 277.727614 
L 126.592907 278.059428 
L 124.405904 278.589556 
L 123.316862 279.015117 
L 121.852347 279.310767 
L 121.114541 279.634649 
L 120.027541 279.838092 
L 119.313104 280.003751 
L 117.130118 280.621654 
L 114.563149 281.371225 
L 113.843521 281.468443 
L 113.115042 281.77906 
L 112.392554 282.06875 
L 111.649778 282.087007 
L 110.914899 282.281267 
L 110.19342 282.625789 
L 108.719578 282.890005 
L 107.617873 283.313149 
L 106.896474 283.319868 
L 105.436521 283.815897 
L 104.334134 284.02306 
L 103.593809 284.400472 
L 101.776288 284.645598 
L 100.699007 284.997188 
L 99.595532 285.308818 
L 98.489946 285.700666 
L 96.665957 286.040783 
L 95.577937 286.455602 
L 94.49366 286.526986 
L 93.391819 286.999736 
L 91.556649 287.356627 
L 90.823812 287.69385 
L 89.724967 287.631791 
L 89.352081 287.657201 
L 88.980216 287.806112 
L 88.617951 288.199373 
L 88.246903 288.43777 
L 87.155819 288.242649 
L 86.789128 288.240866 
L 86.419374 288.4632 
L 86.049212 289.062953 
L 85.679866 289.090922 
L 84.204185 288.679048 
L 83.835779 289.156398 
L 83.474399 289.839558 
L 83.117035 289.79407 
L 82.388693 289.440698 
L 81.65075 289.131934 
L 81.286102 289.576316 
L 80.928399 290.376903 
L 80.566746 290.531187 
L 79.834999 290.012051 
L 79.111014 289.799172 
L 78.745821 289.813688 
L 78.384577 290.609689 
L 78.026737 291.06 
L 76.907603 290.393798 
L 76.173065 290.261092 
L 75.815565 290.711537 
L 75.45153 290.708615 
L 75.102871 290.532985 
L 75.086651 290.574306 
L 75.026209 289.400151 
L 75.026209 289.400151 
" clip-path="url(#p3b4a5193b2)" style="fill: none; stroke: #000000; stroke-width: 2; stroke-linecap: square"/>
   </g>
   <g id="patch_3">
    <path d="M 57.17 303.64 
L 57.17 26.88 
" style="fill: none; stroke: #000000; stroke-width: 0.8; stroke-linejoin: miter; stroke-linecap: square"/>
   </g>
   <g id="patch_4">
    <path d="M 450 303.64 
L 450 26.88 
" style="fill: none; stroke: #000000; stroke-width: 0.8; stroke-linejoin: miter; stroke-linecap: square"/>
   </g>
   <g id="patch_5">
    <path d="M 57.17 303.64 
L 450 303.64 
" style="fill: none; stroke: #000000; stroke-width: 0.8; stroke-linejoin: miter; stroke-linecap: square"/>
   </g>
   <g id="patch_6">
    <path d="M 57.17 26.88 
L 450 26.88 
" style="fill: none; stroke: #000000; stroke-width: 0.8; stroke-linejoin: miter; stroke-linecap: square"/>
   </g>
   <g id="text_18">
    <!-- 2025-06-16 Trial 25 - Stress vs Strain -->
    <g transform="translate(142.330938 20.88) scale(0.12 -0.12)">
     <defs>
      <path id="DejaVuSans-36" d="M 2113 2584 
Q 1688 2584 1439 2293 
Q 1191 2003 1191 1497 
Q 1191 994 1439 701 
Q 1688 409 2113 409 
Q 2538 409 2786 701 
Q 3034 994 3034 1497 
Q 3034 2003 2786 2293 
Q 2538 2584 2113 2584 
z
M 3366 4563 
L 3366 3988 
Q 3128 4100 2886 4159 
Q 2644 4219 2406 4219 
Q 1781 4219 1451 3797 
Q 1122 3375 1075 2522 
Q 1259 2794 1537 2939 
Q 1816 3084 2150 3084 
Q 2853 3084 3261 2657 
Q 3669 2231 3669 1497 
Q 3669 778 3244 343 
Q 2819 -91 2113 -91 
Q 1303 -91 875 529 
Q 447 1150 447 2328 
Q 447 3434 972 4092 
Q 1497 4750 2381 4750 
Q 2619 4750 2861 4703 
Q 3103 4656 3366 4563 
z
" transform="scale(0.015625)"/>
      <path id="DejaVuSans-54" d="M -19 4666 
L 3928 4666 
L 3928 4134 
L 2272 4134 
L 2272 0 
L 1638 0 
L 1638 4134 
L -19 4134 
L -19 4666 
z
" transform="scale(0.015625)"/>
      <path id="DejaVuSans-6c" d="M 603 4863 
L 1178 4863 
L 1178 0 
L 603 0 
L 603 4863 
z
" transform="scale(0.015625)"/>
      <path id="DejaVuSans-76" d="M 191 3500 
L 800 3500 
L 1894 563 
L 2988 3500 
L 3597 3500 
L 2284 0 
L 1503 0 
L 191 3500 
z
" transform="scale(0.015625)"/>
     </defs>
     <use xlink:href="#DejaVuSans-32"/>
     <use xlink:href="#DejaVuSans-30" transform="translate(63.623047 0)"/>
     <use xlink:href="#DejaVuSans-32" transform="translate(127.246094 0)"/>
     <use xlink:href="#DejaVuSans-35" transform="translate(190.869141 0)"/>
     <use xlink:href="#DejaVuSans-2d" transform="translate(254.492188 0)"/>
     <use xlink:href="#DejaVuSans-30" transform="translate(290.576172 0)"/>
     <use xlink:href="#DejaVuSans-36" transform="translate(354.199219 0)"/>
     <use xlink:href="#DejaVuSans-2d" transform="translate(417.822266 0)"/>
     <use xlink:href="#DejaVuSans-31" transform="translate(453.90625 0)"/>
     <use xlink:href="#DejaVuSans-36" transform="translate(517.529297 0)"/>
     <use xlink:href="#DejaVuSans-20" transform="translate(581.152344 0)"/>
     <use xlink:href="#DejaVuSans-54" transform="translate(612.939453 0)"/>
     <use xlink:href="#DejaVuSans-72" transform="translate(659.273438 0)"/>
     <use xlink:href="#DejaVuSans-69" transform="translate(700.386719 0)"/>
     <use xlink:href="#DejaVuSans-61" transform="translate(728.169922 0)"/>
     <use xlink:href="#DejaVuSans-6c" transform="translate(789.449219 0)"/>
     <use xlink:href="#DejaVuSans-20" transform="translate(817.232422 0)"/>
     <use xlink:href="#DejaVuSans-32" transform="translate(849.019531 0)"/>
     <use xlink:href="#DejaVuSans-35" transform="translate(912.642578 0)"/>
     <use xlink:href="#DejaVuSans-20" transform="translate(976.265625 0)"/>
     <use xlink:href="#DejaVuSans-2d" transform="translate(1008.052734 0)"/>
     <use xlink:href="#DejaVuSans-20" transform="translate(1044.136719 0)"/>
     <use xlink:href="#DejaVuSans-53" transform="translate(1075.923828 0)"/>
     <use xlink:href="#DejaVuSans-74" transform="translate(1139.400391 0)"/>
     <use xlink:href="#DejaVuSans-72" transform="translate(1178.609375 0)"/>
     <use xlink:href="#DejaVuSans-65" transform="translate(1217.472656 0)"/>
     <use xlink:href="#DejaVuSans-73" transform="translate(1278.996094 0)"/>
     <use xlink:href="#DejaVuSans-73" transform="translate(1331.095703 0)"/>
     <use xlink:href="#DejaVuSans-20" transform="translate(1383.195312 0)"/>
     <use xlink:href="#DejaVuSans-76" transform="translate(1414.982422 0)"/>
     <use xlink:href="#DejaVuSans-73" transform="translate(1474.162109 0)"/>
     <use xlink:href="#DejaVuSans-20" transform="translate(1526.261719 0)"/>
     <use xlink:href="#DejaVuSans-53" transform="translate(1558.048828 0)"/>
     <use xlink:href="#DejaVuSans-74" transform="translate(1621.525391 0)"/>
     <use xlink:href="#DejaVuSans-72" transform="translate(1660.734375 0)"/>
     <use xlink:href="#DejaVuSans-61" transform="translate(1701.847656 0)"/>
     <use xlink:href="#DejaVuSans-69" transform="translate(1763.126953 0)"/>
     <use xlink:href="#DejaVuSans-6e" transform="translate(1790.910156 0)"/>
    </g>
   </g>
   <g id="legend_1">
    <g id="patch_7">
     <path d="M 64.17 64.23625 
L 170.154375 64.23625 
Q 172.154375 64.23625 172.154375 62.23625 
L 172.154375 33.88 
Q 172.154375 31.88 170.154375 31.88 
L 64.17 31.88 
Q 62.17 31.88 62.17 33.88 
L 62.17 62.23625 
Q 62.17 64.23625 64.17 64.23625 
z
" style="fill: #ffffff; opacity: 0.8; stroke: #cccccc; stroke-linejoin: miter"/>
    </g>
    <g id="line2d_33">
     <path d="M 66.17 39.978437 
L 76.17 39.978437 
L 86.17 39.978437 
" style="fill: none; stroke: #ff0000; stroke-width: 2; stroke-linecap: square"/>
    </g>
    <g id="text_19">
     <!-- Raw Force -->
     <g transform="translate(94.17 43.478437) scale(0.1 -0.1)">
      <defs>
       <path id="DejaVuSans-52" d="M 2841 2188 
Q 3044 2119 3236 1894 
Q 3428 1669 3622 1275 
L 4263 0 
L 3584 0 
L 2988 1197 
Q 2756 1666 2539 1819 
Q 2322 1972 1947 1972 
L 1259 1972 
L 1259 0 
L 628 0 
L 628 4666 
L 2053 4666 
Q 2853 4666 3247 4331 
Q 3641 3997 3641 3322 
Q 3641 2881 3436 2590 
Q 3231 2300 2841 2188 
z
M 1259 4147 
L 1259 2491 
L 2053 2491 
Q 2509 2491 2742 2702 
Q 2975 2913 2975 3322 
Q 2975 3731 2742 3939 
Q 2509 4147 2053 4147 
L 1259 4147 
z
" transform="scale(0.015625)"/>
       <path id="DejaVuSans-77" d="M 269 3500 
L 844 3500 
L 1563 769 
L 2278 3500 
L 2956 3500 
L 3675 769 
L 4391 3500 
L 4966 3500 
L 4050 0 
L 3372 0 
L 2619 2869 
L 1863 0 
L 1184 0 
L 269 3500 
z
" transform="scale(0.015625)"/>
       <path id="DejaVuSans-46" d="M 628 4666 
L 3309 4666 
L 3309 4134 
L 1259 4134 
L 1259 2759 
L 3109 2759 
L 3109 2228 
L 1259 2228 
L 1259 0 
L 628 0 
L 628 4666 
z
" transform="scale(0.015625)"/>
       <path id="DejaVuSans-6f" d="M 1959 3097 
Q 1497 3097 1228 2736 
Q 959 2375 959 1747 
Q 959 1119 1226 758 
Q 1494 397 1959 397 
Q 2419 397 2687 759 
Q 2956 1122 2956 1747 
Q 2956 2369 2687 2733 
Q 2419 3097 1959 3097 
z
M 1959 3584 
Q 2709 3584 3137 3096 
Q 3566 2609 3566 1747 
Q 3566 888 3137 398 
Q 2709 -91 1959 -91 
Q 1206 -91 779 398 
Q 353 888 353 1747 
Q 353 2609 779 3096 
Q 1206 3584 1959 3584 
z
" transform="scale(0.015625)"/>
       <path id="DejaVuSans-63" d="M 3122 3366 
L 3122 2828 
Q 2878 2963 2633 3030 
Q 2388 3097 2138 3097 
Q 1578 3097 1268 2742 
Q 959 2388 959 1747 
Q 959 1106 1268 751 
Q 1578 397 2138 397 
Q 2388 397 2633 464 
Q 2878 531 3122 666 
L 3122 134 
Q 2881 22 2623 -34 
Q 2366 -91 2075 -91 
Q 1284 -91 818 406 
Q 353 903 353 1747 
Q 353 2603 823 3093 
Q 1294 3584 2113 3584 
Q 2378 3584 2631 3529 
Q 2884 3475 3122 3366 
z
" transform="scale(0.015625)"/>
      </defs>
      <use xlink:href="#DejaVuSans-52"/>
      <use xlink:href="#DejaVuSans-61" transform="translate(67.232422 0)"/>
      <use xlink:href="#DejaVuSans-77" transform="translate(128.511719 0)"/>
      <use xlink:href="#DejaVuSans-20" transform="translate(210.298828 0)"/>
      <use xlink:href="#DejaVuSans-46" transform="translate(242.085938 0)"/>
      <use xlink:href="#DejaVuSans-6f" transform="translate(295.980469 0)"/>
      <use xlink:href="#DejaVuSans-72" transform="translate(357.162109 0)"/>
      <use xlink:href="#DejaVuSans-63" transform="translate(396.025391 0)"/>
      <use xlink:href="#DejaVuSans-65" transform="translate(451.005859 0)"/>
     </g>
    </g>
    <g id="line2d_34">
     <path d="M 66.17 54.656563 
L 76.17 54.656563 
L 86.17 54.656563 
" style="fill: none; stroke: #000000; stroke-width: 2; stroke-linecap: square"/>
    </g>
    <g id="text_20">
     <!-- Adjusted Force -->
     <g transform="translate(94.17 58.156563) scale(0.1 -0.1)">
      <defs>
       <path id="DejaVuSans-41" d="M 2188 4044 
L 1331 1722 
L 3047 1722 
L 2188 4044 
z
M 1831 4666 
L 2547 4666 
L 4325 0 
L 3669 0 
L 3244 1197 
L 1141 1197 
L 716 0 
L 50 0 
L 1831 4666 
z
" transform="scale(0.015625)"/>
       <path id="DejaVuSans-64" d="M 2906 2969 
L 2906 4863 
L 3481 4863 
L 3481 0 
L 2906 0 
L 2906 525 
Q 2725 213 2448 61 
Q 2172 -91 1784 -91 
Q 1150 -91 751 415 
Q 353 922 353 1747 
Q 353 2572 751 3078 
Q 1150 3584 1784 3584 
Q 2172 3584 2448 3432 
Q 2725 3281 2906 2969 
z
M 947 1747 
Q 947 1113 1208 752 
Q 1469 391 1925 391 
Q 2381 391 2643 752 
Q 2906 1113 2906 1747 
Q 2906 2381 2643 2742 
Q 2381 3103 1925 3103 
Q 1469 3103 1208 2742 
Q 947 2381 947 1747 
z
" transform="scale(0.015625)"/>
       <path id="DejaVuSans-6a" d="M 603 3500 
L 1178 3500 
L 1178 -63 
Q 1178 -731 923 -1031 
Q 669 -1331 103 -1331 
L -116 -1331 
L -116 -844 
L 38 -844 
Q 366 -844 484 -692 
Q 603 -541 603 -63 
L 603 3500 
z
M 603 4863 
L 1178 4863 
L 1178 4134 
L 603 4134 
L 603 4863 
z
" transform="scale(0.015625)"/>
       <path id="DejaVuSans-75" d="M 544 1381 
L 544 3500 
L 1119 3500 
L 1119 1403 
Q 1119 906 1312 657 
Q 1506 409 1894 409 
Q 2359 409 2629 706 
Q 2900 1003 2900 1516 
L 2900 3500 
L 3475 3500 
L 3475 0 
L 2900 0 
L 2900 538 
Q 2691 219 2414 64 
Q 2138 -91 1772 -91 
Q 1169 -91 856 284 
Q 544 659 544 1381 
z
M 1991 3584 
L 1991 3584 
z
" transform="scale(0.015625)"/>
      </defs>
      <use xlink:href="#DejaVuSans-41"/>
      <use xlink:href="#DejaVuSans-64" transform="translate(66.658203 0)"/>
      <use xlink:href="#DejaVuSans-6a" transform="translate(130.134766 0)"/>
      <use xlink:href="#DejaVuSans-75" transform="translate(157.917969 0)"/>
      <use xlink:href="#DejaVuSans-73" transform="translate(221.296875 0)"/>
      <use xlink:href="#DejaVuSans-74" transform="translate(273.396484 0)"/>
      <use xlink:href="#DejaVuSans-65" transform="translate(312.605469 0)"/>
      <use xlink:href="#DejaVuSans-64" transform="translate(374.128906 0)"/>
      <use xlink:href="#DejaVuSans-20" transform="translate(437.605469 0)"/>
      <use xlink:href="#DejaVuSans-46" transform="translate(469.392578 0)"/>
      <use xlink:href="#DejaVuSans-6f" transform="translate(523.287109 0)"/>
      <use xlink:href="#DejaVuSans-72" transform="translate(584.46875 0)"/>
      <use xlink:href="#DejaVuSans-63" transform="translate(623.332031 0)"/>
      <use xlink:href="#DejaVuSans-65" transform="translate(678.3125 0)"/>
     </g>
    </g>
   </g>
  </g>
 </g>
 <defs>
  <clipPath id="p3b4a5193b2">
   <rect x="57.17" y="26.88" width="392.83" height="276.76"/>
  </clipPath>
 </defs>
</svg>
