<?xml version="1.0" encoding="utf-8" standalone="no"?>
<!DOCTYPE svg PUBLIC "-//W3C//DTD SVG 1.1//EN"
  "http://www.w3.org/Graphics/SVG/1.1/DTD/svg11.dtd">
<svg xmlns:xlink="http://www.w3.org/1999/xlink" width="460.8pt" height="345.6pt" viewBox="0 0 460.8 345.6" xmlns="http://www.w3.org/2000/svg" version="1.1">
 <metadata>
  <rdf:RDF xmlns:dc="http://purl.org/dc/elements/1.1/" xmlns:cc="http://creativecommons.org/ns#" xmlns:rdf="http://www.w3.org/1999/02/22-rdf-syntax-ns#">
   <cc:Work>
    <dc:type rdf:resource="http://purl.org/dc/dcmitype/StillImage"/>
    <dc:date>2025-07-28T21:14:10.188342</dc:date>
    <dc:format>image/svg+xml</dc:format>
    <dc:creator>
     <cc:Agent>
      <dc:title>Matplotlib v3.10.3, https://matplotlib.org/</dc:title>
     </cc:Agent>
    </dc:creator>
   </cc:Work>
  </rdf:RDF>
 </metadata>
 <defs>
  <style type="text/css">*{stroke-linejoin: round; stroke-linecap: butt}</style>
 </defs>
 <g id="figure_1">
  <g id="patch_1">
   <path d="M 0 345.6 
L 460.8 345.6 
L 460.8 0 
L 0 0 
z
" style="fill: #ffffff"/>
  </g>
  <g id="axes_1">
   <g id="patch_2">
    <path d="M 57.17 303.64 
L 450 303.64 
L 450 26.88 
L 57.17 26.88 
z
" style="fill: #ffffff"/>
   </g>
   <g id="matplotlib.axis_1">
    <g id="xtick_1">
     <g id="line2d_1">
      <path d="M 75.108437 303.64 
L 75.108437 26.88 
" clip-path="url(#p113aba0e05)" style="fill: none; stroke: #b0b0b0; stroke-opacity: 0.3; stroke-width: 0.8; stroke-linecap: square"/>
     </g>
     <g id="line2d_2">
      <defs>
       <path id="m451678d03f" d="M 0 0 
L 0 3.5 
" style="stroke: #000000; stroke-width: 0.8"/>
      </defs>
      <g>
       <use xlink:href="#m451678d03f" x="75.108437" y="303.64" style="stroke: #000000; stroke-width: 0.8"/>
      </g>
     </g>
     <g id="text_1">
      <!-- 0.00 -->
      <g transform="translate(63.975624 318.238437) scale(0.1 -0.1)">
       <defs>
        <path id="DejaVuSans-30" d="M 2034 4250 
Q 1547 4250 1301 3770 
Q 1056 3291 1056 2328 
Q 1056 1369 1301 889 
Q 1547 409 2034 409 
Q 2525 409 2770 889 
Q 3016 1369 3016 2328 
Q 3016 3291 2770 3770 
Q 2525 4250 2034 4250 
z
M 2034 4750 
Q 2819 4750 3233 4129 
Q 3647 3509 3647 2328 
Q 3647 1150 3233 529 
Q 2819 -91 2034 -91 
Q 1250 -91 836 529 
Q 422 1150 422 2328 
Q 422 3509 836 4129 
Q 1250 4750 2034 4750 
z
" transform="scale(0.015625)"/>
        <path id="DejaVuSans-2e" d="M 684 794 
L 1344 794 
L 1344 0 
L 684 0 
L 684 794 
z
" transform="scale(0.015625)"/>
       </defs>
       <use xlink:href="#DejaVuSans-30"/>
       <use xlink:href="#DejaVuSans-2e" transform="translate(63.623047 0)"/>
       <use xlink:href="#DejaVuSans-30" transform="translate(95.410156 0)"/>
       <use xlink:href="#DejaVuSans-30" transform="translate(159.033203 0)"/>
      </g>
     </g>
    </g>
    <g id="xtick_2">
     <g id="line2d_3">
      <path d="M 123.297974 303.64 
L 123.297974 26.88 
" clip-path="url(#p113aba0e05)" style="fill: none; stroke: #b0b0b0; stroke-opacity: 0.3; stroke-width: 0.8; stroke-linecap: square"/>
     </g>
     <g id="line2d_4">
      <g>
       <use xlink:href="#m451678d03f" x="123.297974" y="303.64" style="stroke: #000000; stroke-width: 0.8"/>
      </g>
     </g>
     <g id="text_2">
      <!-- 0.05 -->
      <g transform="translate(112.165161 318.238437) scale(0.1 -0.1)">
       <defs>
        <path id="DejaVuSans-35" d="M 691 4666 
L 3169 4666 
L 3169 4134 
L 1269 4134 
L 1269 2991 
Q 1406 3038 1543 3061 
Q 1681 3084 1819 3084 
Q 2600 3084 3056 2656 
Q 3513 2228 3513 1497 
Q 3513 744 3044 326 
Q 2575 -91 1722 -91 
Q 1428 -91 1123 -41 
Q 819 9 494 109 
L 494 744 
Q 775 591 1075 516 
Q 1375 441 1709 441 
Q 2250 441 2565 725 
Q 2881 1009 2881 1497 
Q 2881 1984 2565 2268 
Q 2250 2553 1709 2553 
Q 1456 2553 1204 2497 
Q 953 2441 691 2322 
L 691 4666 
z
" transform="scale(0.015625)"/>
       </defs>
       <use xlink:href="#DejaVuSans-30"/>
       <use xlink:href="#DejaVuSans-2e" transform="translate(63.623047 0)"/>
       <use xlink:href="#DejaVuSans-30" transform="translate(95.410156 0)"/>
       <use xlink:href="#DejaVuSans-35" transform="translate(159.033203 0)"/>
      </g>
     </g>
    </g>
    <g id="xtick_3">
     <g id="line2d_5">
      <path d="M 171.487511 303.64 
L 171.487511 26.88 
" clip-path="url(#p113aba0e05)" style="fill: none; stroke: #b0b0b0; stroke-opacity: 0.3; stroke-width: 0.8; stroke-linecap: square"/>
     </g>
     <g id="line2d_6">
      <g>
       <use xlink:href="#m451678d03f" x="171.487511" y="303.64" style="stroke: #000000; stroke-width: 0.8"/>
      </g>
     </g>
     <g id="text_3">
      <!-- 0.10 -->
      <g transform="translate(160.354699 318.238437) scale(0.1 -0.1)">
       <defs>
        <path id="DejaVuSans-31" d="M 794 531 
L 1825 531 
L 1825 4091 
L 703 3866 
L 703 4441 
L 1819 4666 
L 2450 4666 
L 2450 531 
L 3481 531 
L 3481 0 
L 794 0 
L 794 531 
z
" transform="scale(0.015625)"/>
       </defs>
       <use xlink:href="#DejaVuSans-30"/>
       <use xlink:href="#DejaVuSans-2e" transform="translate(63.623047 0)"/>
       <use xlink:href="#DejaVuSans-31" transform="translate(95.410156 0)"/>
       <use xlink:href="#DejaVuSans-30" transform="translate(159.033203 0)"/>
      </g>
     </g>
    </g>
    <g id="xtick_4">
     <g id="line2d_7">
      <path d="M 219.677049 303.64 
L 219.677049 26.88 
" clip-path="url(#p113aba0e05)" style="fill: none; stroke: #b0b0b0; stroke-opacity: 0.3; stroke-width: 0.8; stroke-linecap: square"/>
     </g>
     <g id="line2d_8">
      <g>
       <use xlink:href="#m451678d03f" x="219.677049" y="303.64" style="stroke: #000000; stroke-width: 0.8"/>
      </g>
     </g>
     <g id="text_4">
      <!-- 0.15 -->
      <g transform="translate(208.544236 318.238437) scale(0.1 -0.1)">
       <use xlink:href="#DejaVuSans-30"/>
       <use xlink:href="#DejaVuSans-2e" transform="translate(63.623047 0)"/>
       <use xlink:href="#DejaVuSans-31" transform="translate(95.410156 0)"/>
       <use xlink:href="#DejaVuSans-35" transform="translate(159.033203 0)"/>
      </g>
     </g>
    </g>
    <g id="xtick_5">
     <g id="line2d_9">
      <path d="M 267.866586 303.64 
L 267.866586 26.88 
" clip-path="url(#p113aba0e05)" style="fill: none; stroke: #b0b0b0; stroke-opacity: 0.3; stroke-width: 0.8; stroke-linecap: square"/>
     </g>
     <g id="line2d_10">
      <g>
       <use xlink:href="#m451678d03f" x="267.866586" y="303.64" style="stroke: #000000; stroke-width: 0.8"/>
      </g>
     </g>
     <g id="text_5">
      <!-- 0.20 -->
      <g transform="translate(256.733773 318.238437) scale(0.1 -0.1)">
       <defs>
        <path id="DejaVuSans-32" d="M 1228 531 
L 3431 531 
L 3431 0 
L 469 0 
L 469 531 
Q 828 903 1448 1529 
Q 2069 2156 2228 2338 
Q 2531 2678 2651 2914 
Q 2772 3150 2772 3378 
Q 2772 3750 2511 3984 
Q 2250 4219 1831 4219 
Q 1534 4219 1204 4116 
Q 875 4013 500 3803 
L 500 4441 
Q 881 4594 1212 4672 
Q 1544 4750 1819 4750 
Q 2544 4750 2975 4387 
Q 3406 4025 3406 3419 
Q 3406 3131 3298 2873 
Q 3191 2616 2906 2266 
Q 2828 2175 2409 1742 
Q 1991 1309 1228 531 
z
" transform="scale(0.015625)"/>
       </defs>
       <use xlink:href="#DejaVuSans-30"/>
       <use xlink:href="#DejaVuSans-2e" transform="translate(63.623047 0)"/>
       <use xlink:href="#DejaVuSans-32" transform="translate(95.410156 0)"/>
       <use xlink:href="#DejaVuSans-30" transform="translate(159.033203 0)"/>
      </g>
     </g>
    </g>
    <g id="xtick_6">
     <g id="line2d_11">
      <path d="M 316.056123 303.64 
L 316.056123 26.88 
" clip-path="url(#p113aba0e05)" style="fill: none; stroke: #b0b0b0; stroke-opacity: 0.3; stroke-width: 0.8; stroke-linecap: square"/>
     </g>
     <g id="line2d_12">
      <g>
       <use xlink:href="#m451678d03f" x="316.056123" y="303.64" style="stroke: #000000; stroke-width: 0.8"/>
      </g>
     </g>
     <g id="text_6">
      <!-- 0.25 -->
      <g transform="translate(304.923311 318.238437) scale(0.1 -0.1)">
       <use xlink:href="#DejaVuSans-30"/>
       <use xlink:href="#DejaVuSans-2e" transform="translate(63.623047 0)"/>
       <use xlink:href="#DejaVuSans-32" transform="translate(95.410156 0)"/>
       <use xlink:href="#DejaVuSans-35" transform="translate(159.033203 0)"/>
      </g>
     </g>
    </g>
    <g id="xtick_7">
     <g id="line2d_13">
      <path d="M 364.245661 303.64 
L 364.245661 26.88 
" clip-path="url(#p113aba0e05)" style="fill: none; stroke: #b0b0b0; stroke-opacity: 0.3; stroke-width: 0.8; stroke-linecap: square"/>
     </g>
     <g id="line2d_14">
      <g>
       <use xlink:href="#m451678d03f" x="364.245661" y="303.64" style="stroke: #000000; stroke-width: 0.8"/>
      </g>
     </g>
     <g id="text_7">
      <!-- 0.30 -->
      <g transform="translate(353.112848 318.238437) scale(0.1 -0.1)">
       <defs>
        <path id="DejaVuSans-33" d="M 2597 2516 
Q 3050 2419 3304 2112 
Q 3559 1806 3559 1356 
Q 3559 666 3084 287 
Q 2609 -91 1734 -91 
Q 1441 -91 1130 -33 
Q 819 25 488 141 
L 488 750 
Q 750 597 1062 519 
Q 1375 441 1716 441 
Q 2309 441 2620 675 
Q 2931 909 2931 1356 
Q 2931 1769 2642 2001 
Q 2353 2234 1838 2234 
L 1294 2234 
L 1294 2753 
L 1863 2753 
Q 2328 2753 2575 2939 
Q 2822 3125 2822 3475 
Q 2822 3834 2567 4026 
Q 2313 4219 1838 4219 
Q 1578 4219 1281 4162 
Q 984 4106 628 3988 
L 628 4550 
Q 988 4650 1302 4700 
Q 1616 4750 1894 4750 
Q 2613 4750 3031 4423 
Q 3450 4097 3450 3541 
Q 3450 3153 3228 2886 
Q 3006 2619 2597 2516 
z
" transform="scale(0.015625)"/>
       </defs>
       <use xlink:href="#DejaVuSans-30"/>
       <use xlink:href="#DejaVuSans-2e" transform="translate(63.623047 0)"/>
       <use xlink:href="#DejaVuSans-33" transform="translate(95.410156 0)"/>
       <use xlink:href="#DejaVuSans-30" transform="translate(159.033203 0)"/>
      </g>
     </g>
    </g>
    <g id="xtick_8">
     <g id="line2d_15">
      <path d="M 412.435198 303.64 
L 412.435198 26.88 
" clip-path="url(#p113aba0e05)" style="fill: none; stroke: #b0b0b0; stroke-opacity: 0.3; stroke-width: 0.8; stroke-linecap: square"/>
     </g>
     <g id="line2d_16">
      <g>
       <use xlink:href="#m451678d03f" x="412.435198" y="303.64" style="stroke: #000000; stroke-width: 0.8"/>
      </g>
     </g>
     <g id="text_8">
      <!-- 0.35 -->
      <g transform="translate(401.302385 318.238437) scale(0.1 -0.1)">
       <use xlink:href="#DejaVuSans-30"/>
       <use xlink:href="#DejaVuSans-2e" transform="translate(63.623047 0)"/>
       <use xlink:href="#DejaVuSans-33" transform="translate(95.410156 0)"/>
       <use xlink:href="#DejaVuSans-35" transform="translate(159.033203 0)"/>
      </g>
     </g>
    </g>
    <g id="text_9">
     <!-- Strain [-] -->
     <g transform="translate(231.47875 331.916562) scale(0.1 -0.1)">
      <defs>
       <path id="DejaVuSans-53" d="M 3425 4513 
L 3425 3897 
Q 3066 4069 2747 4153 
Q 2428 4238 2131 4238 
Q 1616 4238 1336 4038 
Q 1056 3838 1056 3469 
Q 1056 3159 1242 3001 
Q 1428 2844 1947 2747 
L 2328 2669 
Q 3034 2534 3370 2195 
Q 3706 1856 3706 1288 
Q 3706 609 3251 259 
Q 2797 -91 1919 -91 
Q 1588 -91 1214 -16 
Q 841 59 441 206 
L 441 856 
Q 825 641 1194 531 
Q 1563 422 1919 422 
Q 2459 422 2753 634 
Q 3047 847 3047 1241 
Q 3047 1584 2836 1778 
Q 2625 1972 2144 2069 
L 1759 2144 
Q 1053 2284 737 2584 
Q 422 2884 422 3419 
Q 422 4038 858 4394 
Q 1294 4750 2059 4750 
Q 2388 4750 2728 4690 
Q 3069 4631 3425 4513 
z
" transform="scale(0.015625)"/>
       <path id="DejaVuSans-74" d="M 1172 4494 
L 1172 3500 
L 2356 3500 
L 2356 3053 
L 1172 3053 
L 1172 1153 
Q 1172 725 1289 603 
Q 1406 481 1766 481 
L 2356 481 
L 2356 0 
L 1766 0 
Q 1100 0 847 248 
Q 594 497 594 1153 
L 594 3053 
L 172 3053 
L 172 3500 
L 594 3500 
L 594 4494 
L 1172 4494 
z
" transform="scale(0.015625)"/>
       <path id="DejaVuSans-72" d="M 2631 2963 
Q 2534 3019 2420 3045 
Q 2306 3072 2169 3072 
Q 1681 3072 1420 2755 
Q 1159 2438 1159 1844 
L 1159 0 
L 581 0 
L 581 3500 
L 1159 3500 
L 1159 2956 
Q 1341 3275 1631 3429 
Q 1922 3584 2338 3584 
Q 2397 3584 2469 3576 
Q 2541 3569 2628 3553 
L 2631 2963 
z
" transform="scale(0.015625)"/>
       <path id="DejaVuSans-61" d="M 2194 1759 
Q 1497 1759 1228 1600 
Q 959 1441 959 1056 
Q 959 750 1161 570 
Q 1363 391 1709 391 
Q 2188 391 2477 730 
Q 2766 1069 2766 1631 
L 2766 1759 
L 2194 1759 
z
M 3341 1997 
L 3341 0 
L 2766 0 
L 2766 531 
Q 2569 213 2275 61 
Q 1981 -91 1556 -91 
Q 1019 -91 701 211 
Q 384 513 384 1019 
Q 384 1609 779 1909 
Q 1175 2209 1959 2209 
L 2766 2209 
L 2766 2266 
Q 2766 2663 2505 2880 
Q 2244 3097 1772 3097 
Q 1472 3097 1187 3025 
Q 903 2953 641 2809 
L 641 3341 
Q 956 3463 1253 3523 
Q 1550 3584 1831 3584 
Q 2591 3584 2966 3190 
Q 3341 2797 3341 1997 
z
" transform="scale(0.015625)"/>
       <path id="DejaVuSans-69" d="M 603 3500 
L 1178 3500 
L 1178 0 
L 603 0 
L 603 3500 
z
M 603 4863 
L 1178 4863 
L 1178 4134 
L 603 4134 
L 603 4863 
z
" transform="scale(0.015625)"/>
       <path id="DejaVuSans-6e" d="M 3513 2113 
L 3513 0 
L 2938 0 
L 2938 2094 
Q 2938 2591 2744 2837 
Q 2550 3084 2163 3084 
Q 1697 3084 1428 2787 
Q 1159 2491 1159 1978 
L 1159 0 
L 581 0 
L 581 3500 
L 1159 3500 
L 1159 2956 
Q 1366 3272 1645 3428 
Q 1925 3584 2291 3584 
Q 2894 3584 3203 3211 
Q 3513 2838 3513 2113 
z
" transform="scale(0.015625)"/>
       <path id="DejaVuSans-20" transform="scale(0.015625)"/>
       <path id="DejaVuSans-5b" d="M 550 4863 
L 1875 4863 
L 1875 4416 
L 1125 4416 
L 1125 -397 
L 1875 -397 
L 1875 -844 
L 550 -844 
L 550 4863 
z
" transform="scale(0.015625)"/>
       <path id="DejaVuSans-2d" d="M 313 2009 
L 1997 2009 
L 1997 1497 
L 313 1497 
L 313 2009 
z
" transform="scale(0.015625)"/>
       <path id="DejaVuSans-5d" d="M 1947 4863 
L 1947 -844 
L 622 -844 
L 622 -397 
L 1369 -397 
L 1369 4416 
L 622 4416 
L 622 4863 
L 1947 4863 
z
" transform="scale(0.015625)"/>
      </defs>
      <use xlink:href="#DejaVuSans-53"/>
      <use xlink:href="#DejaVuSans-74" transform="translate(63.476562 0)"/>
      <use xlink:href="#DejaVuSans-72" transform="translate(102.685547 0)"/>
      <use xlink:href="#DejaVuSans-61" transform="translate(143.798828 0)"/>
      <use xlink:href="#DejaVuSans-69" transform="translate(205.078125 0)"/>
      <use xlink:href="#DejaVuSans-6e" transform="translate(232.861328 0)"/>
      <use xlink:href="#DejaVuSans-20" transform="translate(296.240234 0)"/>
      <use xlink:href="#DejaVuSans-5b" transform="translate(328.027344 0)"/>
      <use xlink:href="#DejaVuSans-2d" transform="translate(367.041016 0)"/>
      <use xlink:href="#DejaVuSans-5d" transform="translate(403.125 0)"/>
     </g>
    </g>
   </g>
   <g id="matplotlib.axis_2">
    <g id="ytick_1">
     <g id="line2d_17">
      <path d="M 57.17 279.326659 
L 450 279.326659 
" clip-path="url(#p113aba0e05)" style="fill: none; stroke: #b0b0b0; stroke-opacity: 0.3; stroke-width: 0.8; stroke-linecap: square"/>
     </g>
     <g id="line2d_18">
      <defs>
       <path id="mcc89d698c7" d="M 0 0 
L -3.5 0 
" style="stroke: #000000; stroke-width: 0.8"/>
      </defs>
      <g>
       <use xlink:href="#mcc89d698c7" x="57.17" y="279.326659" style="stroke: #000000; stroke-width: 0.8"/>
      </g>
     </g>
     <g id="text_10">
      <!-- 0 -->
      <g transform="translate(43.8075 283.125877) scale(0.1 -0.1)">
       <use xlink:href="#DejaVuSans-30"/>
      </g>
     </g>
    </g>
    <g id="ytick_2">
     <g id="line2d_19">
      <path d="M 57.17 244.018891 
L 450 244.018891 
" clip-path="url(#p113aba0e05)" style="fill: none; stroke: #b0b0b0; stroke-opacity: 0.3; stroke-width: 0.8; stroke-linecap: square"/>
     </g>
     <g id="line2d_20">
      <g>
       <use xlink:href="#mcc89d698c7" x="57.17" y="244.018891" style="stroke: #000000; stroke-width: 0.8"/>
      </g>
     </g>
     <g id="text_11">
      <!-- 500 -->
      <g transform="translate(31.0825 247.818109) scale(0.1 -0.1)">
       <use xlink:href="#DejaVuSans-35"/>
       <use xlink:href="#DejaVuSans-30" transform="translate(63.623047 0)"/>
       <use xlink:href="#DejaVuSans-30" transform="translate(127.246094 0)"/>
      </g>
     </g>
    </g>
    <g id="ytick_3">
     <g id="line2d_21">
      <path d="M 57.17 208.711123 
L 450 208.711123 
" clip-path="url(#p113aba0e05)" style="fill: none; stroke: #b0b0b0; stroke-opacity: 0.3; stroke-width: 0.8; stroke-linecap: square"/>
     </g>
     <g id="line2d_22">
      <g>
       <use xlink:href="#mcc89d698c7" x="57.17" y="208.711123" style="stroke: #000000; stroke-width: 0.8"/>
      </g>
     </g>
     <g id="text_12">
      <!-- 1000 -->
      <g transform="translate(24.72 212.510342) scale(0.1 -0.1)">
       <use xlink:href="#DejaVuSans-31"/>
       <use xlink:href="#DejaVuSans-30" transform="translate(63.623047 0)"/>
       <use xlink:href="#DejaVuSans-30" transform="translate(127.246094 0)"/>
       <use xlink:href="#DejaVuSans-30" transform="translate(190.869141 0)"/>
      </g>
     </g>
    </g>
    <g id="ytick_4">
     <g id="line2d_23">
      <path d="M 57.17 173.403355 
L 450 173.403355 
" clip-path="url(#p113aba0e05)" style="fill: none; stroke: #b0b0b0; stroke-opacity: 0.3; stroke-width: 0.8; stroke-linecap: square"/>
     </g>
     <g id="line2d_24">
      <g>
       <use xlink:href="#mcc89d698c7" x="57.17" y="173.403355" style="stroke: #000000; stroke-width: 0.8"/>
      </g>
     </g>
     <g id="text_13">
      <!-- 1500 -->
      <g transform="translate(24.72 177.202574) scale(0.1 -0.1)">
       <use xlink:href="#DejaVuSans-31"/>
       <use xlink:href="#DejaVuSans-35" transform="translate(63.623047 0)"/>
       <use xlink:href="#DejaVuSans-30" transform="translate(127.246094 0)"/>
       <use xlink:href="#DejaVuSans-30" transform="translate(190.869141 0)"/>
      </g>
     </g>
    </g>
    <g id="ytick_5">
     <g id="line2d_25">
      <path d="M 57.17 138.095587 
L 450 138.095587 
" clip-path="url(#p113aba0e05)" style="fill: none; stroke: #b0b0b0; stroke-opacity: 0.3; stroke-width: 0.8; stroke-linecap: square"/>
     </g>
     <g id="line2d_26">
      <g>
       <use xlink:href="#mcc89d698c7" x="57.17" y="138.095587" style="stroke: #000000; stroke-width: 0.8"/>
      </g>
     </g>
     <g id="text_14">
      <!-- 2000 -->
      <g transform="translate(24.72 141.894806) scale(0.1 -0.1)">
       <use xlink:href="#DejaVuSans-32"/>
       <use xlink:href="#DejaVuSans-30" transform="translate(63.623047 0)"/>
       <use xlink:href="#DejaVuSans-30" transform="translate(127.246094 0)"/>
       <use xlink:href="#DejaVuSans-30" transform="translate(190.869141 0)"/>
      </g>
     </g>
    </g>
    <g id="ytick_6">
     <g id="line2d_27">
      <path d="M 57.17 102.787819 
L 450 102.787819 
" clip-path="url(#p113aba0e05)" style="fill: none; stroke: #b0b0b0; stroke-opacity: 0.3; stroke-width: 0.8; stroke-linecap: square"/>
     </g>
     <g id="line2d_28">
      <g>
       <use xlink:href="#mcc89d698c7" x="57.17" y="102.787819" style="stroke: #000000; stroke-width: 0.8"/>
      </g>
     </g>
     <g id="text_15">
      <!-- 2500 -->
      <g transform="translate(24.72 106.587038) scale(0.1 -0.1)">
       <use xlink:href="#DejaVuSans-32"/>
       <use xlink:href="#DejaVuSans-35" transform="translate(63.623047 0)"/>
       <use xlink:href="#DejaVuSans-30" transform="translate(127.246094 0)"/>
       <use xlink:href="#DejaVuSans-30" transform="translate(190.869141 0)"/>
      </g>
     </g>
    </g>
    <g id="ytick_7">
     <g id="line2d_29">
      <path d="M 57.17 67.480051 
L 450 67.480051 
" clip-path="url(#p113aba0e05)" style="fill: none; stroke: #b0b0b0; stroke-opacity: 0.3; stroke-width: 0.8; stroke-linecap: square"/>
     </g>
     <g id="line2d_30">
      <g>
       <use xlink:href="#mcc89d698c7" x="57.17" y="67.480051" style="stroke: #000000; stroke-width: 0.8"/>
      </g>
     </g>
     <g id="text_16">
      <!-- 3000 -->
      <g transform="translate(24.72 71.27927) scale(0.1 -0.1)">
       <use xlink:href="#DejaVuSans-33"/>
       <use xlink:href="#DejaVuSans-30" transform="translate(63.623047 0)"/>
       <use xlink:href="#DejaVuSans-30" transform="translate(127.246094 0)"/>
       <use xlink:href="#DejaVuSans-30" transform="translate(190.869141 0)"/>
      </g>
     </g>
    </g>
    <g id="ytick_8">
     <g id="line2d_31">
      <path d="M 57.17 32.172283 
L 450 32.172283 
" clip-path="url(#p113aba0e05)" style="fill: none; stroke: #b0b0b0; stroke-opacity: 0.3; stroke-width: 0.8; stroke-linecap: square"/>
     </g>
     <g id="line2d_32">
      <g>
       <use xlink:href="#mcc89d698c7" x="57.17" y="32.172283" style="stroke: #000000; stroke-width: 0.8"/>
      </g>
     </g>
     <g id="text_17">
      <!-- 3500 -->
      <g transform="translate(24.72 35.971502) scale(0.1 -0.1)">
       <use xlink:href="#DejaVuSans-33"/>
       <use xlink:href="#DejaVuSans-35" transform="translate(63.623047 0)"/>
       <use xlink:href="#DejaVuSans-30" transform="translate(127.246094 0)"/>
       <use xlink:href="#DejaVuSans-30" transform="translate(190.869141 0)"/>
      </g>
     </g>
    </g>
    <g id="text_18">
     <!-- Stress [Pa] -->
     <g transform="translate(18.640312 191.967812) rotate(-90) scale(0.1 -0.1)">
      <defs>
       <path id="DejaVuSans-65" d="M 3597 1894 
L 3597 1613 
L 953 1613 
Q 991 1019 1311 708 
Q 1631 397 2203 397 
Q 2534 397 2845 478 
Q 3156 559 3463 722 
L 3463 178 
Q 3153 47 2828 -22 
Q 2503 -91 2169 -91 
Q 1331 -91 842 396 
Q 353 884 353 1716 
Q 353 2575 817 3079 
Q 1281 3584 2069 3584 
Q 2775 3584 3186 3129 
Q 3597 2675 3597 1894 
z
M 3022 2063 
Q 3016 2534 2758 2815 
Q 2500 3097 2075 3097 
Q 1594 3097 1305 2825 
Q 1016 2553 972 2059 
L 3022 2063 
z
" transform="scale(0.015625)"/>
       <path id="DejaVuSans-73" d="M 2834 3397 
L 2834 2853 
Q 2591 2978 2328 3040 
Q 2066 3103 1784 3103 
Q 1356 3103 1142 2972 
Q 928 2841 928 2578 
Q 928 2378 1081 2264 
Q 1234 2150 1697 2047 
L 1894 2003 
Q 2506 1872 2764 1633 
Q 3022 1394 3022 966 
Q 3022 478 2636 193 
Q 2250 -91 1575 -91 
Q 1294 -91 989 -36 
Q 684 19 347 128 
L 347 722 
Q 666 556 975 473 
Q 1284 391 1588 391 
Q 1994 391 2212 530 
Q 2431 669 2431 922 
Q 2431 1156 2273 1281 
Q 2116 1406 1581 1522 
L 1381 1569 
Q 847 1681 609 1914 
Q 372 2147 372 2553 
Q 372 3047 722 3315 
Q 1072 3584 1716 3584 
Q 2034 3584 2315 3537 
Q 2597 3491 2834 3397 
z
" transform="scale(0.015625)"/>
       <path id="DejaVuSans-50" d="M 1259 4147 
L 1259 2394 
L 2053 2394 
Q 2494 2394 2734 2622 
Q 2975 2850 2975 3272 
Q 2975 3691 2734 3919 
Q 2494 4147 2053 4147 
L 1259 4147 
z
M 628 4666 
L 2053 4666 
Q 2838 4666 3239 4311 
Q 3641 3956 3641 3272 
Q 3641 2581 3239 2228 
Q 2838 1875 2053 1875 
L 1259 1875 
L 1259 0 
L 628 0 
L 628 4666 
z
" transform="scale(0.015625)"/>
      </defs>
      <use xlink:href="#DejaVuSans-53"/>
      <use xlink:href="#DejaVuSans-74" transform="translate(63.476562 0)"/>
      <use xlink:href="#DejaVuSans-72" transform="translate(102.685547 0)"/>
      <use xlink:href="#DejaVuSans-65" transform="translate(141.548828 0)"/>
      <use xlink:href="#DejaVuSans-73" transform="translate(203.072266 0)"/>
      <use xlink:href="#DejaVuSans-73" transform="translate(255.171875 0)"/>
      <use xlink:href="#DejaVuSans-20" transform="translate(307.271484 0)"/>
      <use xlink:href="#DejaVuSans-5b" transform="translate(339.058594 0)"/>
      <use xlink:href="#DejaVuSans-50" transform="translate(378.072266 0)"/>
      <use xlink:href="#DejaVuSans-61" transform="translate(433.875 0)"/>
      <use xlink:href="#DejaVuSans-5d" transform="translate(495.154297 0)"/>
     </g>
    </g>
   </g>
   <g id="line2d_33">
    <path d="M 75.108437 279.947988 
L 75.108331 280.041868 
L 75.108751 279.949057 
L 75.481036 275.694261 
L 75.876743 274.357183 
L 76.287158 274.311738 
L 78.228659 275.376489 
L 79.518999 275.533763 
L 83.002208 275.570025 
L 84.01095 275.965414 
L 85.064355 276.634364 
L 86.149352 277.686905 
L 88.345489 280.069665 
L 89.067731 280.454353 
L 89.957733 280.54099 
L 91.00896 280.248221 
L 95.622375 278.211187 
L 98.189983 277.623317 
L 102.320814 276.79975 
L 113.903913 273.412741 
L 127.239785 268.415641 
L 131.972097 266.463384 
L 137.813213 264.428544 
L 142.525759 262.514434 
L 148.450756 260.233472 
L 150.577175 259.36669 
L 156.884535 256.452995 
L 161.069833 254.728211 
L 173.174735 249.525596 
L 189.628339 242.288964 
L 191.434488 241.437822 
L 196.50652 239.298716 
L 203.406489 236.029144 
L 208.152804 234.110644 
L 210.331512 233.146455 
L 218.928312 229.097149 
L 224.190981 226.300616 
L 228.379547 223.949136 
L 234.704337 220.891389 
L 237.873268 219.259896 
L 241.58034 217.295848 
L 245.823374 215.062353 
L 254.898782 209.999949 
L 258.489293 208.059498 
L 261.722496 206.105877 
L 265.333705 203.994209 
L 271.486377 200.427752 
L 274.748992 198.349011 
L 282.717617 193.621906 
L 289.884477 188.914007 
L 292.552305 187.211173 
L 307.378993 176.747165 
L 312.127487 173.112661 
L 316.897768 169.553887 
L 323.306438 164.339473 
L 325.46227 162.705785 
L 327.979767 160.808686 
L 331.570278 157.815694 
L 335.1597 154.741484 
L 339.821046 150.770584 
L 343.765597 147.018094 
L 347.017319 143.950469 
L 357.547015 134.120908 
L 362.927351 128.881251 
L 367.691097 123.709641 
L 371.375292 119.638865 
L 376.109625 114.433232 
L 379.261126 110.744399 
L 384.543404 104.643173 
L 387.729765 100.883 
L 391.980424 95.422738 
L 400.889944 83.818668 
L 403.923795 79.596431 
L 415.831525 62.789798 
L 419.210701 58.433661 
L 425.370453 51.192091 
L 429.40651 46.478156 
L 430.909274 44.26332 
L 431.652486 43.044227 
L 431.994271 44.161866 
L 432.132006 53.555747 
L 432.067564 80.631909 
L 432.068755 90.215236 
L 432.066338 90.203574 
L 431.704843 90.38237 
L 430.590842 92.401913 
L 429.873775 93.289823 
L 428.733902 94.945891 
L 428.361343 95.374755 
L 426.523739 98.950952 
L 425.767319 99.980582 
L 424.662101 102.147675 
L 423.920319 103.64719 
L 422.099668 106.563766 
L 420.286506 109.599425 
L 414.093392 119.287892 
L 409.292439 126.084204 
L 407.840738 128.002567 
L 401.987911 135.703861 
L 396.513635 142.438607 
L 394.686516 144.461443 
L 393.221062 146.143149 
L 389.197873 150.727025 
L 386.275749 153.955097 
L 384.804849 155.491927 
L 373.43172 166.885981 
L 371.962454 168.251046 
L 370.149701 169.951342 
L 366.888447 172.995438 
L 364.695782 174.902003 
L 363.598666 175.913935 
L 362.133485 177.209375 
L 360.671572 178.427165 
L 354.823783 183.176221 
L 352.98223 184.759354 
L 351.520589 185.89229 
L 348.955977 187.888922 
L 347.127479 189.32212 
L 345.645413 190.450598 
L 340.892425 193.88974 
L 328.106592 202.657234 
L 327.013221 203.344706 
L 326.27886 203.883529 
L 321.904967 206.556966 
L 321.174555 206.971287 
L 319.710685 208.013376 
L 317.130209 209.501572 
L 313.103548 211.902887 
L 311.252412 212.924701 
L 301.694913 218.384282 
L 300.244438 219.133764 
L 299.156446 219.795307 
L 297.694397 220.562522 
L 296.96807 220.977135 
L 295.520591 221.669202 
L 294.801753 222.130066 
L 290.06674 224.4433 
L 289.338438 224.859679 
L 288.246497 225.25848 
L 284.568242 227.22685 
L 283.852128 227.487945 
L 282.409415 228.217037 
L 280.588151 229.080132 
L 278.380984 230.072103 
L 277.291357 230.603724 
L 275.441804 231.405327 
L 269.210359 234.322658 
L 268.11869 234.716229 
L 267.023838 235.373677 
L 265.178472 236.058645 
L 262.241301 237.371303 
L 260.804852 237.892651 
L 258.983315 238.717796 
L 258.260801 238.995611 
L 257.537402 239.387951 
L 253.88616 240.872516 
L 252.423089 241.51552 
L 251.687503 241.742497 
L 250.232194 242.431735 
L 249.508863 242.687702 
L 247.680654 243.4581 
L 246.959638 243.697792 
L 245.486491 244.421243 
L 244.02594 244.874733 
L 242.930526 245.374937 
L 241.453362 245.85427 
L 240.347259 246.325327 
L 238.519459 246.978741 
L 235.94586 248.035741 
L 234.863315 248.404223 
L 233.761161 248.85147 
L 231.925054 249.593682 
L 231.193196 249.853818 
L 230.10105 250.178759 
L 229.729649 250.32624 
L 229.356885 250.623742 
L 225.323007 251.839258 
L 224.592119 252.356199 
L 223.480841 252.570993 
L 223.120129 252.680721 
L 222.392645 253.169952 
L 220.927736 253.499559 
L 220.187247 253.917208 
L 218.71056 254.180437 
L 217.982599 254.670592 
L 216.522456 255.043668 
L 215.412609 255.545586 
L 213.601626 256.058832 
L 212.130827 256.652867 
L 211.030444 256.866967 
L 209.935779 257.496083 
L 208.841251 257.571183 
L 207.756458 258.159614 
L 206.28229 258.455819 
L 205.922667 258.899706 
L 205.185719 259.005966 
L 204.094356 259.138118 
L 203.729218 259.495025 
L 203.360404 259.646601 
L 202.264105 259.7798 
L 201.899444 259.852827 
L 201.525727 260.22798 
L 199.707255 260.716647 
L 199.347224 261.046269 
L 197.879455 261.220637 
L 196.765046 261.886602 
L 195.676917 261.95212 
L 195.311839 262.118046 
L 194.950242 262.60309 
L 194.581427 262.689973 
L 193.491801 262.654542 
L 193.129659 262.691341 
L 192.769083 263.159784 
L 192.395843 263.360724 
L 190.930457 263.278614 
L 190.208556 264.050997 
L 189.126146 264.036894 
L 188.379462 264.135175 
L 188.005201 264.562667 
L 186.907541 264.759989 
L 186.185852 264.927666 
L 185.452036 265.420838 
L 184.345252 265.45503 
L 183.971604 265.495088 
L 182.882454 266.138376 
L 182.144008 266.256074 
L 181.7707 266.242571 
L 181.028918 266.757371 
L 179.932756 266.798143 
L 179.558495 266.915275 
L 178.822908 267.503831 
L 177.727018 267.583278 
L 177.366952 267.556141 
L 176.274535 268.078662 
L 175.55665 268.118929 
L 174.827872 268.420169 
L 174.461101 268.855207 
L 172.617369 269.066643 
L 172.251074 269.542495 
L 171.530806 269.499642 
L 170.446695 269.489813 
L 170.075157 269.955239 
L 169.710768 270.113752 
L 168.96388 270.072447 
L 168.234506 270.144768 
L 167.871751 270.49797 
L 167.503481 270.637809 
L 166.769801 270.630538 
L 166.031287 270.774174 
L 165.667511 271.213533 
L 164.933899 271.348187 
L 163.81738 271.440733 
L 163.447408 271.798737 
L 162.712706 272.031561 
L 161.596391 272.157946 
L 160.87517 272.620285 
L 160.149388 272.692929 
L 159.418015 272.757114 
L 158.686922 273.169566 
L 157.943029 273.21557 
L 157.202881 273.319895 
L 156.475942 273.891199 
L 154.991152 273.929936 
L 154.62295 274.06667 
L 154.251277 274.376862 
L 152.408498 274.530636 
L 152.040773 274.894265 
L 151.301442 275.03438 
L 150.185722 275.191053 
L 149.453608 275.598082 
L 148.722243 275.674545 
L 147.995508 275.832412 
L 147.261896 276.240938 
L 145.430692 276.584606 
L 144.698646 276.749481 
L 143.247218 277.153041 
L 142.887731 277.371966 
L 140.692078 277.91881 
L 140.324081 278.095548 
L 138.854678 278.232535 
L 137.401412 278.78919 
L 136.662694 278.755829 
L 135.928197 278.977206 
L 135.195198 279.323377 
L 133.730289 279.543282 
L 132.992524 279.808758 
L 131.148481 280.279269 
L 125.285033 281.626654 
L 124.913563 281.66069 
L 124.187577 281.958587 
L 122.745885 282.23834 
L 119.82914 282.959244 
L 118.72862 283.259909 
L 117.635453 283.45227 
L 116.903543 283.751363 
L 115.801389 283.790505 
L 115.436796 283.924473 
L 114.707218 284.451486 
L 113.249798 284.302263 
L 112.884524 284.444906 
L 112.526263 284.840364 
L 112.151049 284.88282 
L 111.43439 284.795642 
L 110.708404 284.842948 
L 109.977651 285.416481 
L 109.247103 285.392918 
L 108.5043 285.485281 
L 107.765241 286.024962 
L 106.300264 285.874067 
L 105.938943 285.995414 
L 105.565091 286.419339 
L 103.73838 286.34972 
L 103.378212 286.721512 
L 103.014164 286.914015 
L 101.933933 286.851201 
L 101.57431 286.861322 
L 101.206245 287.055604 
L 100.841243 287.431512 
L 100.116482 287.374349 
L 99.020252 287.342781 
L 98.290997 287.879221 
L 96.830503 287.835897 
L 96.469178 288.053742 
L 96.111529 288.436372 
L 95.752043 288.482805 
L 94.658467 288.260279 
L 94.287747 288.230518 
L 93.560875 288.859324 
L 91.717959 288.819208 
L 91.346421 289.204239 
L 90.978901 289.356822 
L 89.523456 289.12717 
L 89.165739 289.215129 
L 88.806184 289.654214 
L 88.437778 289.775228 
L 87.69689 289.630033 
L 86.609919 289.747887 
L 86.236747 290.269082 
L 85.878894 290.242565 
L 85.131052 290.020486 
L 84.394785 289.881065 
L 84.034549 290.152891 
L 83.677377 290.601647 
L 83.317414 290.639795 
L 82.222341 290.228526 
L 81.863671 290.140132 
L 81.49581 290.340197 
L 81.131285 290.883685 
L 80.763764 290.881383 
L 79.324455 290.374156 
L 78.963775 290.59941 
L 78.590535 291.06 
L 77.498662 290.733628 
L 76.76362 290.394213 
L 76.029396 290.629382 
L 75.175614 290.196856 
L 75.07953 290.125084 
L 75.026265 285.215552 
L 75.026265 285.215552 
" clip-path="url(#p113aba0e05)" style="fill: none; stroke: #ff0000; stroke-width: 2; stroke-linecap: square"/>
   </g>
   <g id="line2d_34">
    <path d="M 75.108437 279.947988 
L 75.108331 280.041868 
L 75.108751 279.949057 
L 75.481036 275.694261 
L 75.876743 274.357183 
L 76.287158 274.311738 
L 77.809257 275.223519 
L 78.228659 281.694553 
L 79.147529 281.636932 
L 80.304423 281.169217 
L 81.589316 280.597947 
L 82.517446 280.392004 
L 83.500043 280.540858 
L 84.53275 280.949692 
L 85.785507 281.565137 
L 87.249599 281.877652 
L 87.981645 281.841433 
L 88.708244 281.536317 
L 91.00896 279.819147 
L 92.556932 278.518562 
L 94.089654 277.284378 
L 95.111468 276.742056 
L 95.622375 276.557978 
L 96.134372 278.072622 
L 98.705247 277.532221 
L 101.285927 277.043678 
L 103.357879 276.490518 
L 108.590046 274.95698 
L 112.837435 273.785905 
L 115.687186 272.720468 
L 118.556544 271.625946 
L 125.789855 268.995965 
L 128.692052 267.79223 
L 132.33703 266.341831 
L 137.813213 264.428544 
L 142.525759 262.514434 
L 148.450756 260.233472 
L 150.577175 259.36669 
L 156.884535 256.452995 
L 161.069833 254.728211 
L 173.174735 249.525596 
L 189.628339 242.288964 
L 191.434488 241.437822 
L 196.50652 239.298716 
L 203.406489 236.029144 
L 208.152804 234.110644 
L 210.331512 233.146455 
L 218.928312 229.097149 
L 224.190981 226.300616 
L 228.379547 223.949136 
L 234.704337 220.891389 
L 237.873268 219.259896 
L 241.58034 217.295848 
L 245.823374 215.062353 
L 254.898782 209.999949 
L 258.489293 208.059498 
L 261.722496 206.105877 
L 265.333705 203.994209 
L 271.486377 200.427752 
L 274.748992 198.349011 
L 282.717617 193.621906 
L 289.884477 188.914007 
L 292.552305 187.211173 
L 307.378993 176.747165 
L 312.127487 173.112661 
L 316.897768 169.553887 
L 323.306438 164.339473 
L 325.46227 162.705785 
L 327.979767 160.808686 
L 331.570278 157.815694 
L 335.1597 154.741484 
L 339.821046 150.770584 
L 343.765597 147.018094 
L 347.017319 143.950469 
L 357.547015 134.120908 
L 362.927351 128.881251 
L 367.691097 123.709641 
L 371.375292 119.638865 
L 376.109625 114.433232 
L 379.261126 110.744399 
L 384.543404 104.643173 
L 387.729765 100.883 
L 391.980424 95.422738 
L 400.889944 83.818668 
L 403.923795 79.596431 
L 409.318277 72.092549 
L 409.679942 71.734357 
L 415.109283 63.753328 
L 417.267293 60.75156 
L 420.755405 56.286457 
L 423.186843 53.100092 
L 427.785007 46.278331 
L 429.40651 43.711734 
L 431.652486 39.46 
L 431.994271 40.460476 
L 432.132006 49.693225 
L 432.068551 76.320085 
L 432.068755 90.215236 
L 432.066338 90.203574 
L 431.704843 90.38237 
L 430.590842 92.401913 
L 429.873775 93.289823 
L 428.733902 94.945891 
L 428.361343 95.374755 
L 426.523739 98.950952 
L 425.767319 99.980582 
L 424.662101 102.147675 
L 423.920319 103.64719 
L 422.099668 106.563766 
L 420.286506 109.599425 
L 414.093392 119.287892 
L 409.292439 126.084204 
L 407.840738 128.002567 
L 401.987911 135.703861 
L 396.513635 142.438607 
L 394.686516 144.461443 
L 393.221062 146.143149 
L 389.197873 150.727025 
L 386.275749 153.955097 
L 384.804849 155.491927 
L 373.43172 166.885981 
L 371.962454 168.251046 
L 370.149701 169.951342 
L 366.888447 172.995438 
L 364.695782 174.902003 
L 363.598666 175.913935 
L 362.133485 177.209375 
L 360.671572 178.427165 
L 354.823783 183.176221 
L 352.98223 184.759354 
L 351.520589 185.89229 
L 348.955977 187.888922 
L 347.127479 189.32212 
L 345.645413 190.450598 
L 340.892425 193.88974 
L 328.106592 202.657234 
L 327.013221 203.344706 
L 326.27886 203.883529 
L 321.904967 206.556966 
L 321.174555 206.971287 
L 319.710685 208.013376 
L 317.130209 209.501572 
L 313.103548 211.902887 
L 311.252412 212.924701 
L 301.694913 218.384282 
L 300.244438 219.133764 
L 299.156446 219.795307 
L 297.694397 220.562522 
L 296.96807 220.977135 
L 295.520591 221.669202 
L 294.801753 222.130066 
L 290.06674 224.4433 
L 289.338438 224.859679 
L 288.246497 225.25848 
L 284.568242 227.22685 
L 283.852128 227.487945 
L 282.409415 228.217037 
L 280.588151 229.080132 
L 278.380984 230.072103 
L 277.291357 230.603724 
L 275.441804 231.405327 
L 269.210359 234.322658 
L 268.11869 234.716229 
L 267.023838 235.373677 
L 265.178472 236.058645 
L 262.241301 237.371303 
L 260.804852 237.892651 
L 258.983315 238.717796 
L 258.260801 238.995611 
L 257.537402 239.387951 
L 253.88616 240.872516 
L 252.423089 241.51552 
L 251.687503 241.742497 
L 250.232194 242.431735 
L 249.508863 242.687702 
L 247.680654 243.4581 
L 246.959638 243.697792 
L 245.486491 244.421243 
L 244.02594 244.874733 
L 242.930526 245.374937 
L 241.453362 245.85427 
L 240.347259 246.325327 
L 238.519459 246.978741 
L 235.94586 248.035741 
L 234.863315 248.404223 
L 233.761161 248.85147 
L 231.925054 249.593682 
L 231.193196 249.853818 
L 230.10105 250.178759 
L 229.729649 250.32624 
L 229.356885 250.623742 
L 225.323007 251.839258 
L 224.592119 252.356199 
L 223.480841 252.570993 
L 223.120129 252.680721 
L 222.392645 253.169952 
L 220.927736 253.499559 
L 220.187247 253.917208 
L 218.71056 254.180437 
L 217.982599 254.670592 
L 216.522456 255.043668 
L 215.412609 255.545586 
L 213.601626 256.058832 
L 212.130827 256.652867 
L 211.030444 256.866967 
L 209.935779 257.496083 
L 208.841251 257.571183 
L 207.756458 258.159614 
L 206.28229 258.455819 
L 205.922667 258.899706 
L 205.185719 259.005966 
L 204.094356 259.138118 
L 203.729218 259.495025 
L 203.360404 259.646601 
L 202.264105 259.7798 
L 201.899444 259.852827 
L 201.525727 260.22798 
L 199.707255 260.716647 
L 199.347224 261.046269 
L 197.879455 261.220637 
L 196.765046 261.886602 
L 195.676917 261.95212 
L 195.311839 262.118046 
L 194.950242 262.60309 
L 194.581427 262.689973 
L 193.491801 262.654542 
L 193.129659 262.691341 
L 192.769083 263.159784 
L 192.395843 263.360724 
L 190.930457 263.278614 
L 190.208556 264.050997 
L 189.126146 264.036894 
L 188.379462 264.135175 
L 188.005201 264.562667 
L 186.907541 264.759989 
L 186.185852 264.927666 
L 185.452036 265.420838 
L 184.345252 265.45503 
L 183.971604 265.495088 
L 182.882454 266.138376 
L 182.144008 266.256074 
L 181.7707 266.242571 
L 181.028918 266.757371 
L 179.932756 266.798143 
L 179.558495 266.915275 
L 178.822908 267.503831 
L 177.727018 267.583278 
L 177.366952 267.556141 
L 176.274535 268.078662 
L 175.55665 268.118929 
L 174.827872 268.420169 
L 174.461101 268.855207 
L 172.617369 269.066643 
L 172.251074 269.542495 
L 171.530806 269.499642 
L 170.446695 269.489813 
L 170.075157 269.955239 
L 169.710768 270.113752 
L 168.96388 270.072447 
L 168.234506 270.144768 
L 167.871751 270.49797 
L 167.503481 270.637809 
L 166.769801 270.630538 
L 166.031287 270.774174 
L 165.667511 271.213533 
L 164.933899 271.348187 
L 163.81738 271.440733 
L 163.447408 271.798737 
L 162.712706 272.031561 
L 161.596391 272.157946 
L 160.87517 272.620285 
L 160.149388 272.692929 
L 159.418015 272.757114 
L 158.686922 273.169566 
L 157.943029 273.21557 
L 157.202881 273.319895 
L 156.475942 273.891199 
L 154.991152 273.929936 
L 154.62295 274.06667 
L 154.251277 274.376862 
L 152.408498 274.530636 
L 152.040773 274.894265 
L 151.301442 275.03438 
L 150.185722 275.191053 
L 149.453608 275.598082 
L 148.722243 275.674545 
L 147.995508 275.832412 
L 147.261896 276.240938 
L 145.430692 276.584606 
L 144.698646 276.749481 
L 143.247218 277.153041 
L 142.887731 277.371966 
L 140.692078 277.91881 
L 140.324081 278.095548 
L 138.854678 278.232535 
L 137.401412 278.78919 
L 136.662694 278.755829 
L 135.928197 278.977206 
L 135.195198 279.323377 
L 133.730289 279.543282 
L 132.992524 279.808758 
L 131.148481 280.279269 
L 125.285033 281.626654 
L 124.913563 281.66069 
L 124.187577 281.958587 
L 122.745885 282.23834 
L 119.82914 282.959244 
L 118.72862 283.259909 
L 117.635453 283.45227 
L 116.903543 283.751363 
L 115.801389 283.790505 
L 115.436796 283.924473 
L 114.707218 284.451486 
L 113.249798 284.302263 
L 112.884524 284.444906 
L 112.526263 284.840364 
L 112.151049 284.88282 
L 111.43439 284.795642 
L 110.708404 284.842948 
L 109.977651 285.416481 
L 109.247103 285.392918 
L 108.5043 285.485281 
L 107.765241 286.024962 
L 106.300264 285.874067 
L 105.938943 285.995414 
L 105.565091 286.419339 
L 103.73838 286.34972 
L 103.378212 286.721512 
L 103.014164 286.914015 
L 101.933933 286.851201 
L 101.57431 286.861322 
L 101.206245 287.055604 
L 100.841243 287.431512 
L 100.116482 287.374349 
L 99.020252 287.342781 
L 98.290997 287.879221 
L 96.830503 287.835897 
L 96.469178 288.053742 
L 96.111529 288.436372 
L 95.752043 288.482805 
L 94.658467 288.260279 
L 94.287747 288.230518 
L 93.560875 288.859324 
L 91.717959 288.819208 
L 91.346421 289.204239 
L 90.978901 289.356822 
L 89.523456 289.12717 
L 89.165739 289.215129 
L 88.806184 289.654214 
L 88.437778 289.775228 
L 87.69689 289.630033 
L 86.609919 289.747887 
L 86.236747 290.269082 
L 85.878894 290.242565 
L 85.131052 290.020486 
L 84.394785 289.881065 
L 84.034549 290.152891 
L 83.677377 290.601647 
L 83.317414 290.639795 
L 82.222341 290.228526 
L 81.863671 290.140132 
L 81.49581 290.340197 
L 81.131285 290.883685 
L 80.763764 290.881383 
L 79.324455 290.374156 
L 78.963775 290.59941 
L 78.590535 291.06 
L 77.498662 290.733628 
L 76.76362 290.394213 
L 76.029396 290.629382 
L 75.175614 290.196856 
L 75.07953 290.125084 
L 75.026265 285.215552 
L 75.026265 285.215552 
" clip-path="url(#p113aba0e05)" style="fill: none; stroke: #000000; stroke-width: 2; stroke-linecap: square"/>
   </g>
   <g id="patch_3">
    <path d="M 57.17 303.64 
L 57.17 26.88 
" style="fill: none; stroke: #000000; stroke-width: 0.8; stroke-linejoin: miter; stroke-linecap: square"/>
   </g>
   <g id="patch_4">
    <path d="M 450 303.64 
L 450 26.88 
" style="fill: none; stroke: #000000; stroke-width: 0.8; stroke-linejoin: miter; stroke-linecap: square"/>
   </g>
   <g id="patch_5">
    <path d="M 57.17 303.64 
L 450 303.64 
" style="fill: none; stroke: #000000; stroke-width: 0.8; stroke-linejoin: miter; stroke-linecap: square"/>
   </g>
   <g id="patch_6">
    <path d="M 57.17 26.88 
L 450 26.88 
" style="fill: none; stroke: #000000; stroke-width: 0.8; stroke-linejoin: miter; stroke-linecap: square"/>
   </g>
   <g id="text_19">
    <!-- 2025-06-16 Trial 28 - Stress vs Strain -->
    <g transform="translate(142.330938 20.88) scale(0.12 -0.12)">
     <defs>
      <path id="DejaVuSans-36" d="M 2113 2584 
Q 1688 2584 1439 2293 
Q 1191 2003 1191 1497 
Q 1191 994 1439 701 
Q 1688 409 2113 409 
Q 2538 409 2786 701 
Q 3034 994 3034 1497 
Q 3034 2003 2786 2293 
Q 2538 2584 2113 2584 
z
M 3366 4563 
L 3366 3988 
Q 3128 4100 2886 4159 
Q 2644 4219 2406 4219 
Q 1781 4219 1451 3797 
Q 1122 3375 1075 2522 
Q 1259 2794 1537 2939 
Q 1816 3084 2150 3084 
Q 2853 3084 3261 2657 
Q 3669 2231 3669 1497 
Q 3669 778 3244 343 
Q 2819 -91 2113 -91 
Q 1303 -91 875 529 
Q 447 1150 447 2328 
Q 447 3434 972 4092 
Q 1497 4750 2381 4750 
Q 2619 4750 2861 4703 
Q 3103 4656 3366 4563 
z
" transform="scale(0.015625)"/>
      <path id="DejaVuSans-54" d="M -19 4666 
L 3928 4666 
L 3928 4134 
L 2272 4134 
L 2272 0 
L 1638 0 
L 1638 4134 
L -19 4134 
L -19 4666 
z
" transform="scale(0.015625)"/>
      <path id="DejaVuSans-6c" d="M 603 4863 
L 1178 4863 
L 1178 0 
L 603 0 
L 603 4863 
z
" transform="scale(0.015625)"/>
      <path id="DejaVuSans-38" d="M 2034 2216 
Q 1584 2216 1326 1975 
Q 1069 1734 1069 1313 
Q 1069 891 1326 650 
Q 1584 409 2034 409 
Q 2484 409 2743 651 
Q 3003 894 3003 1313 
Q 3003 1734 2745 1975 
Q 2488 2216 2034 2216 
z
M 1403 2484 
Q 997 2584 770 2862 
Q 544 3141 544 3541 
Q 544 4100 942 4425 
Q 1341 4750 2034 4750 
Q 2731 4750 3128 4425 
Q 3525 4100 3525 3541 
Q 3525 3141 3298 2862 
Q 3072 2584 2669 2484 
Q 3125 2378 3379 2068 
Q 3634 1759 3634 1313 
Q 3634 634 3220 271 
Q 2806 -91 2034 -91 
Q 1263 -91 848 271 
Q 434 634 434 1313 
Q 434 1759 690 2068 
Q 947 2378 1403 2484 
z
M 1172 3481 
Q 1172 3119 1398 2916 
Q 1625 2713 2034 2713 
Q 2441 2713 2670 2916 
Q 2900 3119 2900 3481 
Q 2900 3844 2670 4047 
Q 2441 4250 2034 4250 
Q 1625 4250 1398 4047 
Q 1172 3844 1172 3481 
z
" transform="scale(0.015625)"/>
      <path id="DejaVuSans-76" d="M 191 3500 
L 800 3500 
L 1894 563 
L 2988 3500 
L 3597 3500 
L 2284 0 
L 1503 0 
L 191 3500 
z
" transform="scale(0.015625)"/>
     </defs>
     <use xlink:href="#DejaVuSans-32"/>
     <use xlink:href="#DejaVuSans-30" transform="translate(63.623047 0)"/>
     <use xlink:href="#DejaVuSans-32" transform="translate(127.246094 0)"/>
     <use xlink:href="#DejaVuSans-35" transform="translate(190.869141 0)"/>
     <use xlink:href="#DejaVuSans-2d" transform="translate(254.492188 0)"/>
     <use xlink:href="#DejaVuSans-30" transform="translate(290.576172 0)"/>
     <use xlink:href="#DejaVuSans-36" transform="translate(354.199219 0)"/>
     <use xlink:href="#DejaVuSans-2d" transform="translate(417.822266 0)"/>
     <use xlink:href="#DejaVuSans-31" transform="translate(453.90625 0)"/>
     <use xlink:href="#DejaVuSans-36" transform="translate(517.529297 0)"/>
     <use xlink:href="#DejaVuSans-20" transform="translate(581.152344 0)"/>
     <use xlink:href="#DejaVuSans-54" transform="translate(612.939453 0)"/>
     <use xlink:href="#DejaVuSans-72" transform="translate(659.273438 0)"/>
     <use xlink:href="#DejaVuSans-69" transform="translate(700.386719 0)"/>
     <use xlink:href="#DejaVuSans-61" transform="translate(728.169922 0)"/>
     <use xlink:href="#DejaVuSans-6c" transform="translate(789.449219 0)"/>
     <use xlink:href="#DejaVuSans-20" transform="translate(817.232422 0)"/>
     <use xlink:href="#DejaVuSans-32" transform="translate(849.019531 0)"/>
     <use xlink:href="#DejaVuSans-38" transform="translate(912.642578 0)"/>
     <use xlink:href="#DejaVuSans-20" transform="translate(976.265625 0)"/>
     <use xlink:href="#DejaVuSans-2d" transform="translate(1008.052734 0)"/>
     <use xlink:href="#DejaVuSans-20" transform="translate(1044.136719 0)"/>
     <use xlink:href="#DejaVuSans-53" transform="translate(1075.923828 0)"/>
     <use xlink:href="#DejaVuSans-74" transform="translate(1139.400391 0)"/>
     <use xlink:href="#DejaVuSans-72" transform="translate(1178.609375 0)"/>
     <use xlink:href="#DejaVuSans-65" transform="translate(1217.472656 0)"/>
     <use xlink:href="#DejaVuSans-73" transform="translate(1278.996094 0)"/>
     <use xlink:href="#DejaVuSans-73" transform="translate(1331.095703 0)"/>
     <use xlink:href="#DejaVuSans-20" transform="translate(1383.195312 0)"/>
     <use xlink:href="#DejaVuSans-76" transform="translate(1414.982422 0)"/>
     <use xlink:href="#DejaVuSans-73" transform="translate(1474.162109 0)"/>
     <use xlink:href="#DejaVuSans-20" transform="translate(1526.261719 0)"/>
     <use xlink:href="#DejaVuSans-53" transform="translate(1558.048828 0)"/>
     <use xlink:href="#DejaVuSans-74" transform="translate(1621.525391 0)"/>
     <use xlink:href="#DejaVuSans-72" transform="translate(1660.734375 0)"/>
     <use xlink:href="#DejaVuSans-61" transform="translate(1701.847656 0)"/>
     <use xlink:href="#DejaVuSans-69" transform="translate(1763.126953 0)"/>
     <use xlink:href="#DejaVuSans-6e" transform="translate(1790.910156 0)"/>
    </g>
   </g>
   <g id="legend_1">
    <g id="patch_7">
     <path d="M 64.17 64.23625 
L 170.154375 64.23625 
Q 172.154375 64.23625 172.154375 62.23625 
L 172.154375 33.88 
Q 172.154375 31.88 170.154375 31.88 
L 64.17 31.88 
Q 62.17 31.88 62.17 33.88 
L 62.17 62.23625 
Q 62.17 64.23625 64.17 64.23625 
z
" style="fill: #ffffff; opacity: 0.8; stroke: #cccccc; stroke-linejoin: miter"/>
    </g>
    <g id="line2d_35">
     <path d="M 66.17 39.978437 
L 76.17 39.978437 
L 86.17 39.978437 
" style="fill: none; stroke: #ff0000; stroke-width: 2; stroke-linecap: square"/>
    </g>
    <g id="text_20">
     <!-- Raw Force -->
     <g transform="translate(94.17 43.478437) scale(0.1 -0.1)">
      <defs>
       <path id="DejaVuSans-52" d="M 2841 2188 
Q 3044 2119 3236 1894 
Q 3428 1669 3622 1275 
L 4263 0 
L 3584 0 
L 2988 1197 
Q 2756 1666 2539 1819 
Q 2322 1972 1947 1972 
L 1259 1972 
L 1259 0 
L 628 0 
L 628 4666 
L 2053 4666 
Q 2853 4666 3247 4331 
Q 3641 3997 3641 3322 
Q 3641 2881 3436 2590 
Q 3231 2300 2841 2188 
z
M 1259 4147 
L 1259 2491 
L 2053 2491 
Q 2509 2491 2742 2702 
Q 2975 2913 2975 3322 
Q 2975 3731 2742 3939 
Q 2509 4147 2053 4147 
L 1259 4147 
z
" transform="scale(0.015625)"/>
       <path id="DejaVuSans-77" d="M 269 3500 
L 844 3500 
L 1563 769 
L 2278 3500 
L 2956 3500 
L 3675 769 
L 4391 3500 
L 4966 3500 
L 4050 0 
L 3372 0 
L 2619 2869 
L 1863 0 
L 1184 0 
L 269 3500 
z
" transform="scale(0.015625)"/>
       <path id="DejaVuSans-46" d="M 628 4666 
L 3309 4666 
L 3309 4134 
L 1259 4134 
L 1259 2759 
L 3109 2759 
L 3109 2228 
L 1259 2228 
L 1259 0 
L 628 0 
L 628 4666 
z
" transform="scale(0.015625)"/>
       <path id="DejaVuSans-6f" d="M 1959 3097 
Q 1497 3097 1228 2736 
Q 959 2375 959 1747 
Q 959 1119 1226 758 
Q 1494 397 1959 397 
Q 2419 397 2687 759 
Q 2956 1122 2956 1747 
Q 2956 2369 2687 2733 
Q 2419 3097 1959 3097 
z
M 1959 3584 
Q 2709 3584 3137 3096 
Q 3566 2609 3566 1747 
Q 3566 888 3137 398 
Q 2709 -91 1959 -91 
Q 1206 -91 779 398 
Q 353 888 353 1747 
Q 353 2609 779 3096 
Q 1206 3584 1959 3584 
z
" transform="scale(0.015625)"/>
       <path id="DejaVuSans-63" d="M 3122 3366 
L 3122 2828 
Q 2878 2963 2633 3030 
Q 2388 3097 2138 3097 
Q 1578 3097 1268 2742 
Q 959 2388 959 1747 
Q 959 1106 1268 751 
Q 1578 397 2138 397 
Q 2388 397 2633 464 
Q 2878 531 3122 666 
L 3122 134 
Q 2881 22 2623 -34 
Q 2366 -91 2075 -91 
Q 1284 -91 818 406 
Q 353 903 353 1747 
Q 353 2603 823 3093 
Q 1294 3584 2113 3584 
Q 2378 3584 2631 3529 
Q 2884 3475 3122 3366 
z
" transform="scale(0.015625)"/>
      </defs>
      <use xlink:href="#DejaVuSans-52"/>
      <use xlink:href="#DejaVuSans-61" transform="translate(67.232422 0)"/>
      <use xlink:href="#DejaVuSans-77" transform="translate(128.511719 0)"/>
      <use xlink:href="#DejaVuSans-20" transform="translate(210.298828 0)"/>
      <use xlink:href="#DejaVuSans-46" transform="translate(242.085938 0)"/>
      <use xlink:href="#DejaVuSans-6f" transform="translate(295.980469 0)"/>
      <use xlink:href="#DejaVuSans-72" transform="translate(357.162109 0)"/>
      <use xlink:href="#DejaVuSans-63" transform="translate(396.025391 0)"/>
      <use xlink:href="#DejaVuSans-65" transform="translate(451.005859 0)"/>
     </g>
    </g>
    <g id="line2d_36">
     <path d="M 66.17 54.656563 
L 76.17 54.656563 
L 86.17 54.656563 
" style="fill: none; stroke: #000000; stroke-width: 2; stroke-linecap: square"/>
    </g>
    <g id="text_21">
     <!-- Adjusted Force -->
     <g transform="translate(94.17 58.156563) scale(0.1 -0.1)">
      <defs>
       <path id="DejaVuSans-41" d="M 2188 4044 
L 1331 1722 
L 3047 1722 
L 2188 4044 
z
M 1831 4666 
L 2547 4666 
L 4325 0 
L 3669 0 
L 3244 1197 
L 1141 1197 
L 716 0 
L 50 0 
L 1831 4666 
z
" transform="scale(0.015625)"/>
       <path id="DejaVuSans-64" d="M 2906 2969 
L 2906 4863 
L 3481 4863 
L 3481 0 
L 2906 0 
L 2906 525 
Q 2725 213 2448 61 
Q 2172 -91 1784 -91 
Q 1150 -91 751 415 
Q 353 922 353 1747 
Q 353 2572 751 3078 
Q 1150 3584 1784 3584 
Q 2172 3584 2448 3432 
Q 2725 3281 2906 2969 
z
M 947 1747 
Q 947 1113 1208 752 
Q 1469 391 1925 391 
Q 2381 391 2643 752 
Q 2906 1113 2906 1747 
Q 2906 2381 2643 2742 
Q 2381 3103 1925 3103 
Q 1469 3103 1208 2742 
Q 947 2381 947 1747 
z
" transform="scale(0.015625)"/>
       <path id="DejaVuSans-6a" d="M 603 3500 
L 1178 3500 
L 1178 -63 
Q 1178 -731 923 -1031 
Q 669 -1331 103 -1331 
L -116 -1331 
L -116 -844 
L 38 -844 
Q 366 -844 484 -692 
Q 603 -541 603 -63 
L 603 3500 
z
M 603 4863 
L 1178 4863 
L 1178 4134 
L 603 4134 
L 603 4863 
z
" transform="scale(0.015625)"/>
       <path id="DejaVuSans-75" d="M 544 1381 
L 544 3500 
L 1119 3500 
L 1119 1403 
Q 1119 906 1312 657 
Q 1506 409 1894 409 
Q 2359 409 2629 706 
Q 2900 1003 2900 1516 
L 2900 3500 
L 3475 3500 
L 3475 0 
L 2900 0 
L 2900 538 
Q 2691 219 2414 64 
Q 2138 -91 1772 -91 
Q 1169 -91 856 284 
Q 544 659 544 1381 
z
M 1991 3584 
L 1991 3584 
z
" transform="scale(0.015625)"/>
      </defs>
      <use xlink:href="#DejaVuSans-41"/>
      <use xlink:href="#DejaVuSans-64" transform="translate(66.658203 0)"/>
      <use xlink:href="#DejaVuSans-6a" transform="translate(130.134766 0)"/>
      <use xlink:href="#DejaVuSans-75" transform="translate(157.917969 0)"/>
      <use xlink:href="#DejaVuSans-73" transform="translate(221.296875 0)"/>
      <use xlink:href="#DejaVuSans-74" transform="translate(273.396484 0)"/>
      <use xlink:href="#DejaVuSans-65" transform="translate(312.605469 0)"/>
      <use xlink:href="#DejaVuSans-64" transform="translate(374.128906 0)"/>
      <use xlink:href="#DejaVuSans-20" transform="translate(437.605469 0)"/>
      <use xlink:href="#DejaVuSans-46" transform="translate(469.392578 0)"/>
      <use xlink:href="#DejaVuSans-6f" transform="translate(523.287109 0)"/>
      <use xlink:href="#DejaVuSans-72" transform="translate(584.46875 0)"/>
      <use xlink:href="#DejaVuSans-63" transform="translate(623.332031 0)"/>
      <use xlink:href="#DejaVuSans-65" transform="translate(678.3125 0)"/>
     </g>
    </g>
   </g>
  </g>
 </g>
 <defs>
  <clipPath id="p113aba0e05">
   <rect x="57.17" y="26.88" width="392.83" height="276.76"/>
  </clipPath>
 </defs>
</svg>
