<?xml version="1.0" encoding="utf-8" standalone="no"?>
<!DOCTYPE svg PUBLIC "-//W3C//DTD SVG 1.1//EN"
  "http://www.w3.org/Graphics/SVG/1.1/DTD/svg11.dtd">
<svg xmlns:xlink="http://www.w3.org/1999/xlink" width="460.8pt" height="345.6pt" viewBox="0 0 460.8 345.6" xmlns="http://www.w3.org/2000/svg" version="1.1">
 <metadata>
  <rdf:RDF xmlns:dc="http://purl.org/dc/elements/1.1/" xmlns:cc="http://creativecommons.org/ns#" xmlns:rdf="http://www.w3.org/1999/02/22-rdf-syntax-ns#">
   <cc:Work>
    <dc:type rdf:resource="http://purl.org/dc/dcmitype/StillImage"/>
    <dc:date>2025-07-28T21:14:03.488933</dc:date>
    <dc:format>image/svg+xml</dc:format>
    <dc:creator>
     <cc:Agent>
      <dc:title>Matplotlib v3.10.3, https://matplotlib.org/</dc:title>
     </cc:Agent>
    </dc:creator>
   </cc:Work>
  </rdf:RDF>
 </metadata>
 <defs>
  <style type="text/css">*{stroke-linejoin: round; stroke-linecap: butt}</style>
 </defs>
 <g id="figure_1">
  <g id="patch_1">
   <path d="M 0 345.6 
L 460.8 345.6 
L 460.8 0 
L 0 0 
z
" style="fill: #ffffff"/>
  </g>
  <g id="axes_1">
   <g id="patch_2">
    <path d="M 59.15 303.64 
L 450 303.64 
L 450 26.88 
L 59.15 26.88 
z
" style="fill: #ffffff"/>
   </g>
   <g id="matplotlib.axis_1">
    <g id="xtick_1">
     <g id="line2d_1">
      <path d="M 77.032957 303.64 
L 77.032957 26.88 
" clip-path="url(#p0e692e4476)" style="fill: none; stroke: #b0b0b0; stroke-opacity: 0.3; stroke-width: 0.8; stroke-linecap: square"/>
     </g>
     <g id="line2d_2">
      <defs>
       <path id="m8c0d43eef6" d="M 0 0 
L 0 3.5 
" style="stroke: #000000; stroke-width: 0.8"/>
      </defs>
      <g>
       <use xlink:href="#m8c0d43eef6" x="77.032957" y="303.64" style="stroke: #000000; stroke-width: 0.8"/>
      </g>
     </g>
     <g id="text_1">
      <!-- 0.00 -->
      <g transform="translate(65.900145 318.238437) scale(0.1 -0.1)">
       <defs>
        <path id="DejaVuSans-30" d="M 2034 4250 
Q 1547 4250 1301 3770 
Q 1056 3291 1056 2328 
Q 1056 1369 1301 889 
Q 1547 409 2034 409 
Q 2525 409 2770 889 
Q 3016 1369 3016 2328 
Q 3016 3291 2770 3770 
Q 2525 4250 2034 4250 
z
M 2034 4750 
Q 2819 4750 3233 4129 
Q 3647 3509 3647 2328 
Q 3647 1150 3233 529 
Q 2819 -91 2034 -91 
Q 1250 -91 836 529 
Q 422 1150 422 2328 
Q 422 3509 836 4129 
Q 1250 4750 2034 4750 
z
" transform="scale(0.015625)"/>
        <path id="DejaVuSans-2e" d="M 684 794 
L 1344 794 
L 1344 0 
L 684 0 
L 684 794 
z
" transform="scale(0.015625)"/>
       </defs>
       <use xlink:href="#DejaVuSans-30"/>
       <use xlink:href="#DejaVuSans-2e" transform="translate(63.623047 0)"/>
       <use xlink:href="#DejaVuSans-30" transform="translate(95.410156 0)"/>
       <use xlink:href="#DejaVuSans-30" transform="translate(159.033203 0)"/>
      </g>
     </g>
    </g>
    <g id="xtick_2">
     <g id="line2d_3">
      <path d="M 145.501426 303.64 
L 145.501426 26.88 
" clip-path="url(#p0e692e4476)" style="fill: none; stroke: #b0b0b0; stroke-opacity: 0.3; stroke-width: 0.8; stroke-linecap: square"/>
     </g>
     <g id="line2d_4">
      <g>
       <use xlink:href="#m8c0d43eef6" x="145.501426" y="303.64" style="stroke: #000000; stroke-width: 0.8"/>
      </g>
     </g>
     <g id="text_2">
      <!-- 0.05 -->
      <g transform="translate(134.368613 318.238437) scale(0.1 -0.1)">
       <defs>
        <path id="DejaVuSans-35" d="M 691 4666 
L 3169 4666 
L 3169 4134 
L 1269 4134 
L 1269 2991 
Q 1406 3038 1543 3061 
Q 1681 3084 1819 3084 
Q 2600 3084 3056 2656 
Q 3513 2228 3513 1497 
Q 3513 744 3044 326 
Q 2575 -91 1722 -91 
Q 1428 -91 1123 -41 
Q 819 9 494 109 
L 494 744 
Q 775 591 1075 516 
Q 1375 441 1709 441 
Q 2250 441 2565 725 
Q 2881 1009 2881 1497 
Q 2881 1984 2565 2268 
Q 2250 2553 1709 2553 
Q 1456 2553 1204 2497 
Q 953 2441 691 2322 
L 691 4666 
z
" transform="scale(0.015625)"/>
       </defs>
       <use xlink:href="#DejaVuSans-30"/>
       <use xlink:href="#DejaVuSans-2e" transform="translate(63.623047 0)"/>
       <use xlink:href="#DejaVuSans-30" transform="translate(95.410156 0)"/>
       <use xlink:href="#DejaVuSans-35" transform="translate(159.033203 0)"/>
      </g>
     </g>
    </g>
    <g id="xtick_3">
     <g id="line2d_5">
      <path d="M 213.969895 303.64 
L 213.969895 26.88 
" clip-path="url(#p0e692e4476)" style="fill: none; stroke: #b0b0b0; stroke-opacity: 0.3; stroke-width: 0.8; stroke-linecap: square"/>
     </g>
     <g id="line2d_6">
      <g>
       <use xlink:href="#m8c0d43eef6" x="213.969895" y="303.64" style="stroke: #000000; stroke-width: 0.8"/>
      </g>
     </g>
     <g id="text_3">
      <!-- 0.10 -->
      <g transform="translate(202.837082 318.238437) scale(0.1 -0.1)">
       <defs>
        <path id="DejaVuSans-31" d="M 794 531 
L 1825 531 
L 1825 4091 
L 703 3866 
L 703 4441 
L 1819 4666 
L 2450 4666 
L 2450 531 
L 3481 531 
L 3481 0 
L 794 0 
L 794 531 
z
" transform="scale(0.015625)"/>
       </defs>
       <use xlink:href="#DejaVuSans-30"/>
       <use xlink:href="#DejaVuSans-2e" transform="translate(63.623047 0)"/>
       <use xlink:href="#DejaVuSans-31" transform="translate(95.410156 0)"/>
       <use xlink:href="#DejaVuSans-30" transform="translate(159.033203 0)"/>
      </g>
     </g>
    </g>
    <g id="xtick_4">
     <g id="line2d_7">
      <path d="M 282.438363 303.64 
L 282.438363 26.88 
" clip-path="url(#p0e692e4476)" style="fill: none; stroke: #b0b0b0; stroke-opacity: 0.3; stroke-width: 0.8; stroke-linecap: square"/>
     </g>
     <g id="line2d_8">
      <g>
       <use xlink:href="#m8c0d43eef6" x="282.438363" y="303.64" style="stroke: #000000; stroke-width: 0.8"/>
      </g>
     </g>
     <g id="text_4">
      <!-- 0.15 -->
      <g transform="translate(271.305551 318.238437) scale(0.1 -0.1)">
       <use xlink:href="#DejaVuSans-30"/>
       <use xlink:href="#DejaVuSans-2e" transform="translate(63.623047 0)"/>
       <use xlink:href="#DejaVuSans-31" transform="translate(95.410156 0)"/>
       <use xlink:href="#DejaVuSans-35" transform="translate(159.033203 0)"/>
      </g>
     </g>
    </g>
    <g id="xtick_5">
     <g id="line2d_9">
      <path d="M 350.906832 303.64 
L 350.906832 26.88 
" clip-path="url(#p0e692e4476)" style="fill: none; stroke: #b0b0b0; stroke-opacity: 0.3; stroke-width: 0.8; stroke-linecap: square"/>
     </g>
     <g id="line2d_10">
      <g>
       <use xlink:href="#m8c0d43eef6" x="350.906832" y="303.64" style="stroke: #000000; stroke-width: 0.8"/>
      </g>
     </g>
     <g id="text_5">
      <!-- 0.20 -->
      <g transform="translate(339.774019 318.238437) scale(0.1 -0.1)">
       <defs>
        <path id="DejaVuSans-32" d="M 1228 531 
L 3431 531 
L 3431 0 
L 469 0 
L 469 531 
Q 828 903 1448 1529 
Q 2069 2156 2228 2338 
Q 2531 2678 2651 2914 
Q 2772 3150 2772 3378 
Q 2772 3750 2511 3984 
Q 2250 4219 1831 4219 
Q 1534 4219 1204 4116 
Q 875 4013 500 3803 
L 500 4441 
Q 881 4594 1212 4672 
Q 1544 4750 1819 4750 
Q 2544 4750 2975 4387 
Q 3406 4025 3406 3419 
Q 3406 3131 3298 2873 
Q 3191 2616 2906 2266 
Q 2828 2175 2409 1742 
Q 1991 1309 1228 531 
z
" transform="scale(0.015625)"/>
       </defs>
       <use xlink:href="#DejaVuSans-30"/>
       <use xlink:href="#DejaVuSans-2e" transform="translate(63.623047 0)"/>
       <use xlink:href="#DejaVuSans-32" transform="translate(95.410156 0)"/>
       <use xlink:href="#DejaVuSans-30" transform="translate(159.033203 0)"/>
      </g>
     </g>
    </g>
    <g id="xtick_6">
     <g id="line2d_11">
      <path d="M 419.3753 303.64 
L 419.3753 26.88 
" clip-path="url(#p0e692e4476)" style="fill: none; stroke: #b0b0b0; stroke-opacity: 0.3; stroke-width: 0.8; stroke-linecap: square"/>
     </g>
     <g id="line2d_12">
      <g>
       <use xlink:href="#m8c0d43eef6" x="419.3753" y="303.64" style="stroke: #000000; stroke-width: 0.8"/>
      </g>
     </g>
     <g id="text_6">
      <!-- 0.25 -->
      <g transform="translate(408.242488 318.238437) scale(0.1 -0.1)">
       <use xlink:href="#DejaVuSans-30"/>
       <use xlink:href="#DejaVuSans-2e" transform="translate(63.623047 0)"/>
       <use xlink:href="#DejaVuSans-32" transform="translate(95.410156 0)"/>
       <use xlink:href="#DejaVuSans-35" transform="translate(159.033203 0)"/>
      </g>
     </g>
    </g>
    <g id="text_7">
     <!-- Strain [-] -->
     <g transform="translate(232.46875 331.916562) scale(0.1 -0.1)">
      <defs>
       <path id="DejaVuSans-53" d="M 3425 4513 
L 3425 3897 
Q 3066 4069 2747 4153 
Q 2428 4238 2131 4238 
Q 1616 4238 1336 4038 
Q 1056 3838 1056 3469 
Q 1056 3159 1242 3001 
Q 1428 2844 1947 2747 
L 2328 2669 
Q 3034 2534 3370 2195 
Q 3706 1856 3706 1288 
Q 3706 609 3251 259 
Q 2797 -91 1919 -91 
Q 1588 -91 1214 -16 
Q 841 59 441 206 
L 441 856 
Q 825 641 1194 531 
Q 1563 422 1919 422 
Q 2459 422 2753 634 
Q 3047 847 3047 1241 
Q 3047 1584 2836 1778 
Q 2625 1972 2144 2069 
L 1759 2144 
Q 1053 2284 737 2584 
Q 422 2884 422 3419 
Q 422 4038 858 4394 
Q 1294 4750 2059 4750 
Q 2388 4750 2728 4690 
Q 3069 4631 3425 4513 
z
" transform="scale(0.015625)"/>
       <path id="DejaVuSans-74" d="M 1172 4494 
L 1172 3500 
L 2356 3500 
L 2356 3053 
L 1172 3053 
L 1172 1153 
Q 1172 725 1289 603 
Q 1406 481 1766 481 
L 2356 481 
L 2356 0 
L 1766 0 
Q 1100 0 847 248 
Q 594 497 594 1153 
L 594 3053 
L 172 3053 
L 172 3500 
L 594 3500 
L 594 4494 
L 1172 4494 
z
" transform="scale(0.015625)"/>
       <path id="DejaVuSans-72" d="M 2631 2963 
Q 2534 3019 2420 3045 
Q 2306 3072 2169 3072 
Q 1681 3072 1420 2755 
Q 1159 2438 1159 1844 
L 1159 0 
L 581 0 
L 581 3500 
L 1159 3500 
L 1159 2956 
Q 1341 3275 1631 3429 
Q 1922 3584 2338 3584 
Q 2397 3584 2469 3576 
Q 2541 3569 2628 3553 
L 2631 2963 
z
" transform="scale(0.015625)"/>
       <path id="DejaVuSans-61" d="M 2194 1759 
Q 1497 1759 1228 1600 
Q 959 1441 959 1056 
Q 959 750 1161 570 
Q 1363 391 1709 391 
Q 2188 391 2477 730 
Q 2766 1069 2766 1631 
L 2766 1759 
L 2194 1759 
z
M 3341 1997 
L 3341 0 
L 2766 0 
L 2766 531 
Q 2569 213 2275 61 
Q 1981 -91 1556 -91 
Q 1019 -91 701 211 
Q 384 513 384 1019 
Q 384 1609 779 1909 
Q 1175 2209 1959 2209 
L 2766 2209 
L 2766 2266 
Q 2766 2663 2505 2880 
Q 2244 3097 1772 3097 
Q 1472 3097 1187 3025 
Q 903 2953 641 2809 
L 641 3341 
Q 956 3463 1253 3523 
Q 1550 3584 1831 3584 
Q 2591 3584 2966 3190 
Q 3341 2797 3341 1997 
z
" transform="scale(0.015625)"/>
       <path id="DejaVuSans-69" d="M 603 3500 
L 1178 3500 
L 1178 0 
L 603 0 
L 603 3500 
z
M 603 4863 
L 1178 4863 
L 1178 4134 
L 603 4134 
L 603 4863 
z
" transform="scale(0.015625)"/>
       <path id="DejaVuSans-6e" d="M 3513 2113 
L 3513 0 
L 2938 0 
L 2938 2094 
Q 2938 2591 2744 2837 
Q 2550 3084 2163 3084 
Q 1697 3084 1428 2787 
Q 1159 2491 1159 1978 
L 1159 0 
L 581 0 
L 581 3500 
L 1159 3500 
L 1159 2956 
Q 1366 3272 1645 3428 
Q 1925 3584 2291 3584 
Q 2894 3584 3203 3211 
Q 3513 2838 3513 2113 
z
" transform="scale(0.015625)"/>
       <path id="DejaVuSans-20" transform="scale(0.015625)"/>
       <path id="DejaVuSans-5b" d="M 550 4863 
L 1875 4863 
L 1875 4416 
L 1125 4416 
L 1125 -397 
L 1875 -397 
L 1875 -844 
L 550 -844 
L 550 4863 
z
" transform="scale(0.015625)"/>
       <path id="DejaVuSans-2d" d="M 313 2009 
L 1997 2009 
L 1997 1497 
L 313 1497 
L 313 2009 
z
" transform="scale(0.015625)"/>
       <path id="DejaVuSans-5d" d="M 1947 4863 
L 1947 -844 
L 622 -844 
L 622 -397 
L 1369 -397 
L 1369 4416 
L 622 4416 
L 622 4863 
L 1947 4863 
z
" transform="scale(0.015625)"/>
      </defs>
      <use xlink:href="#DejaVuSans-53"/>
      <use xlink:href="#DejaVuSans-74" transform="translate(63.476562 0)"/>
      <use xlink:href="#DejaVuSans-72" transform="translate(102.685547 0)"/>
      <use xlink:href="#DejaVuSans-61" transform="translate(143.798828 0)"/>
      <use xlink:href="#DejaVuSans-69" transform="translate(205.078125 0)"/>
      <use xlink:href="#DejaVuSans-6e" transform="translate(232.861328 0)"/>
      <use xlink:href="#DejaVuSans-20" transform="translate(296.240234 0)"/>
      <use xlink:href="#DejaVuSans-5b" transform="translate(328.027344 0)"/>
      <use xlink:href="#DejaVuSans-2d" transform="translate(367.041016 0)"/>
      <use xlink:href="#DejaVuSans-5d" transform="translate(403.125 0)"/>
     </g>
    </g>
   </g>
   <g id="matplotlib.axis_2">
    <g id="ytick_1">
     <g id="line2d_13">
      <path d="M 59.15 302.65083 
L 450 302.65083 
" clip-path="url(#p0e692e4476)" style="fill: none; stroke: #b0b0b0; stroke-opacity: 0.3; stroke-width: 0.8; stroke-linecap: square"/>
     </g>
     <g id="line2d_14">
      <defs>
       <path id="mb93dfdfdfd" d="M 0 0 
L -3.5 0 
" style="stroke: #000000; stroke-width: 0.8"/>
      </defs>
      <g>
       <use xlink:href="#mb93dfdfdfd" x="59.15" y="302.65083" style="stroke: #000000; stroke-width: 0.8"/>
      </g>
     </g>
     <g id="text_8">
      <!-- −250 -->
      <g transform="translate(24.682813 306.450049) scale(0.1 -0.1)">
       <defs>
        <path id="DejaVuSans-2212" d="M 678 2272 
L 4684 2272 
L 4684 1741 
L 678 1741 
L 678 2272 
z
" transform="scale(0.015625)"/>
       </defs>
       <use xlink:href="#DejaVuSans-2212"/>
       <use xlink:href="#DejaVuSans-32" transform="translate(83.789062 0)"/>
       <use xlink:href="#DejaVuSans-35" transform="translate(147.412109 0)"/>
       <use xlink:href="#DejaVuSans-30" transform="translate(211.035156 0)"/>
      </g>
     </g>
    </g>
    <g id="ytick_2">
     <g id="line2d_15">
      <path d="M 59.15 266.567791 
L 450 266.567791 
" clip-path="url(#p0e692e4476)" style="fill: none; stroke: #b0b0b0; stroke-opacity: 0.3; stroke-width: 0.8; stroke-linecap: square"/>
     </g>
     <g id="line2d_16">
      <g>
       <use xlink:href="#mb93dfdfdfd" x="59.15" y="266.567791" style="stroke: #000000; stroke-width: 0.8"/>
      </g>
     </g>
     <g id="text_9">
      <!-- 0 -->
      <g transform="translate(45.7875 270.367009) scale(0.1 -0.1)">
       <use xlink:href="#DejaVuSans-30"/>
      </g>
     </g>
    </g>
    <g id="ytick_3">
     <g id="line2d_17">
      <path d="M 59.15 230.484751 
L 450 230.484751 
" clip-path="url(#p0e692e4476)" style="fill: none; stroke: #b0b0b0; stroke-opacity: 0.3; stroke-width: 0.8; stroke-linecap: square"/>
     </g>
     <g id="line2d_18">
      <g>
       <use xlink:href="#mb93dfdfdfd" x="59.15" y="230.484751" style="stroke: #000000; stroke-width: 0.8"/>
      </g>
     </g>
     <g id="text_10">
      <!-- 250 -->
      <g transform="translate(33.0625 234.28397) scale(0.1 -0.1)">
       <use xlink:href="#DejaVuSans-32"/>
       <use xlink:href="#DejaVuSans-35" transform="translate(63.623047 0)"/>
       <use xlink:href="#DejaVuSans-30" transform="translate(127.246094 0)"/>
      </g>
     </g>
    </g>
    <g id="ytick_4">
     <g id="line2d_19">
      <path d="M 59.15 194.401712 
L 450 194.401712 
" clip-path="url(#p0e692e4476)" style="fill: none; stroke: #b0b0b0; stroke-opacity: 0.3; stroke-width: 0.8; stroke-linecap: square"/>
     </g>
     <g id="line2d_20">
      <g>
       <use xlink:href="#mb93dfdfdfd" x="59.15" y="194.401712" style="stroke: #000000; stroke-width: 0.8"/>
      </g>
     </g>
     <g id="text_11">
      <!-- 500 -->
      <g transform="translate(33.0625 198.20093) scale(0.1 -0.1)">
       <use xlink:href="#DejaVuSans-35"/>
       <use xlink:href="#DejaVuSans-30" transform="translate(63.623047 0)"/>
       <use xlink:href="#DejaVuSans-30" transform="translate(127.246094 0)"/>
      </g>
     </g>
    </g>
    <g id="ytick_5">
     <g id="line2d_21">
      <path d="M 59.15 158.318672 
L 450 158.318672 
" clip-path="url(#p0e692e4476)" style="fill: none; stroke: #b0b0b0; stroke-opacity: 0.3; stroke-width: 0.8; stroke-linecap: square"/>
     </g>
     <g id="line2d_22">
      <g>
       <use xlink:href="#mb93dfdfdfd" x="59.15" y="158.318672" style="stroke: #000000; stroke-width: 0.8"/>
      </g>
     </g>
     <g id="text_12">
      <!-- 750 -->
      <g transform="translate(33.0625 162.117891) scale(0.1 -0.1)">
       <defs>
        <path id="DejaVuSans-37" d="M 525 4666 
L 3525 4666 
L 3525 4397 
L 1831 0 
L 1172 0 
L 2766 4134 
L 525 4134 
L 525 4666 
z
" transform="scale(0.015625)"/>
       </defs>
       <use xlink:href="#DejaVuSans-37"/>
       <use xlink:href="#DejaVuSans-35" transform="translate(63.623047 0)"/>
       <use xlink:href="#DejaVuSans-30" transform="translate(127.246094 0)"/>
      </g>
     </g>
    </g>
    <g id="ytick_6">
     <g id="line2d_23">
      <path d="M 59.15 122.235632 
L 450 122.235632 
" clip-path="url(#p0e692e4476)" style="fill: none; stroke: #b0b0b0; stroke-opacity: 0.3; stroke-width: 0.8; stroke-linecap: square"/>
     </g>
     <g id="line2d_24">
      <g>
       <use xlink:href="#mb93dfdfdfd" x="59.15" y="122.235632" style="stroke: #000000; stroke-width: 0.8"/>
      </g>
     </g>
     <g id="text_13">
      <!-- 1000 -->
      <g transform="translate(26.7 126.034851) scale(0.1 -0.1)">
       <use xlink:href="#DejaVuSans-31"/>
       <use xlink:href="#DejaVuSans-30" transform="translate(63.623047 0)"/>
       <use xlink:href="#DejaVuSans-30" transform="translate(127.246094 0)"/>
       <use xlink:href="#DejaVuSans-30" transform="translate(190.869141 0)"/>
      </g>
     </g>
    </g>
    <g id="ytick_7">
     <g id="line2d_25">
      <path d="M 59.15 86.152593 
L 450 86.152593 
" clip-path="url(#p0e692e4476)" style="fill: none; stroke: #b0b0b0; stroke-opacity: 0.3; stroke-width: 0.8; stroke-linecap: square"/>
     </g>
     <g id="line2d_26">
      <g>
       <use xlink:href="#mb93dfdfdfd" x="59.15" y="86.152593" style="stroke: #000000; stroke-width: 0.8"/>
      </g>
     </g>
     <g id="text_14">
      <!-- 1250 -->
      <g transform="translate(26.7 89.951812) scale(0.1 -0.1)">
       <use xlink:href="#DejaVuSans-31"/>
       <use xlink:href="#DejaVuSans-32" transform="translate(63.623047 0)"/>
       <use xlink:href="#DejaVuSans-35" transform="translate(127.246094 0)"/>
       <use xlink:href="#DejaVuSans-30" transform="translate(190.869141 0)"/>
      </g>
     </g>
    </g>
    <g id="ytick_8">
     <g id="line2d_27">
      <path d="M 59.15 50.069553 
L 450 50.069553 
" clip-path="url(#p0e692e4476)" style="fill: none; stroke: #b0b0b0; stroke-opacity: 0.3; stroke-width: 0.8; stroke-linecap: square"/>
     </g>
     <g id="line2d_28">
      <g>
       <use xlink:href="#mb93dfdfdfd" x="59.15" y="50.069553" style="stroke: #000000; stroke-width: 0.8"/>
      </g>
     </g>
     <g id="text_15">
      <!-- 1500 -->
      <g transform="translate(26.7 53.868772) scale(0.1 -0.1)">
       <use xlink:href="#DejaVuSans-31"/>
       <use xlink:href="#DejaVuSans-35" transform="translate(63.623047 0)"/>
       <use xlink:href="#DejaVuSans-30" transform="translate(127.246094 0)"/>
       <use xlink:href="#DejaVuSans-30" transform="translate(190.869141 0)"/>
      </g>
     </g>
    </g>
    <g id="text_16">
     <!-- Stress [Pa] -->
     <g transform="translate(18.603125 191.967812) rotate(-90) scale(0.1 -0.1)">
      <defs>
       <path id="DejaVuSans-65" d="M 3597 1894 
L 3597 1613 
L 953 1613 
Q 991 1019 1311 708 
Q 1631 397 2203 397 
Q 2534 397 2845 478 
Q 3156 559 3463 722 
L 3463 178 
Q 3153 47 2828 -22 
Q 2503 -91 2169 -91 
Q 1331 -91 842 396 
Q 353 884 353 1716 
Q 353 2575 817 3079 
Q 1281 3584 2069 3584 
Q 2775 3584 3186 3129 
Q 3597 2675 3597 1894 
z
M 3022 2063 
Q 3016 2534 2758 2815 
Q 2500 3097 2075 3097 
Q 1594 3097 1305 2825 
Q 1016 2553 972 2059 
L 3022 2063 
z
" transform="scale(0.015625)"/>
       <path id="DejaVuSans-73" d="M 2834 3397 
L 2834 2853 
Q 2591 2978 2328 3040 
Q 2066 3103 1784 3103 
Q 1356 3103 1142 2972 
Q 928 2841 928 2578 
Q 928 2378 1081 2264 
Q 1234 2150 1697 2047 
L 1894 2003 
Q 2506 1872 2764 1633 
Q 3022 1394 3022 966 
Q 3022 478 2636 193 
Q 2250 -91 1575 -91 
Q 1294 -91 989 -36 
Q 684 19 347 128 
L 347 722 
Q 666 556 975 473 
Q 1284 391 1588 391 
Q 1994 391 2212 530 
Q 2431 669 2431 922 
Q 2431 1156 2273 1281 
Q 2116 1406 1581 1522 
L 1381 1569 
Q 847 1681 609 1914 
Q 372 2147 372 2553 
Q 372 3047 722 3315 
Q 1072 3584 1716 3584 
Q 2034 3584 2315 3537 
Q 2597 3491 2834 3397 
z
" transform="scale(0.015625)"/>
       <path id="DejaVuSans-50" d="M 1259 4147 
L 1259 2394 
L 2053 2394 
Q 2494 2394 2734 2622 
Q 2975 2850 2975 3272 
Q 2975 3691 2734 3919 
Q 2494 4147 2053 4147 
L 1259 4147 
z
M 628 4666 
L 2053 4666 
Q 2838 4666 3239 4311 
Q 3641 3956 3641 3272 
Q 3641 2581 3239 2228 
Q 2838 1875 2053 1875 
L 1259 1875 
L 1259 0 
L 628 0 
L 628 4666 
z
" transform="scale(0.015625)"/>
      </defs>
      <use xlink:href="#DejaVuSans-53"/>
      <use xlink:href="#DejaVuSans-74" transform="translate(63.476562 0)"/>
      <use xlink:href="#DejaVuSans-72" transform="translate(102.685547 0)"/>
      <use xlink:href="#DejaVuSans-65" transform="translate(141.548828 0)"/>
      <use xlink:href="#DejaVuSans-73" transform="translate(203.072266 0)"/>
      <use xlink:href="#DejaVuSans-73" transform="translate(255.171875 0)"/>
      <use xlink:href="#DejaVuSans-20" transform="translate(307.271484 0)"/>
      <use xlink:href="#DejaVuSans-5b" transform="translate(339.058594 0)"/>
      <use xlink:href="#DejaVuSans-50" transform="translate(378.072266 0)"/>
      <use xlink:href="#DejaVuSans-61" transform="translate(433.875 0)"/>
      <use xlink:href="#DejaVuSans-5d" transform="translate(495.154297 0)"/>
     </g>
    </g>
   </g>
   <g id="line2d_29">
    <path d="M 77.032957 267.920874 
L 77.032957 267.870875 
L 77.032957 268.122453 
L 77.032578 267.958676 
L 77.936818 265.159788 
L 78.459385 265.089966 
L 78.999363 266.264323 
L 80.060554 267.731427 
L 80.57248 268.23308 
L 82.150433 270.388238 
L 82.674935 269.107396 
L 83.199532 267.260897 
L 83.710684 267.193557 
L 85.284768 268.151017 
L 85.800563 268.311166 
L 86.844358 267.686737 
L 87.884751 267.600046 
L 88.941105 267.889304 
L 89.462317 268.010432 
L 95.682618 267.608032 
L 96.20354 267.592234 
L 97.768144 267.054583 
L 99.808125 266.632073 
L 101.845186 265.77975 
L 102.864974 265.654433 
L 104.414487 265.179368 
L 104.925639 264.87996 
L 106.475539 264.492048 
L 109.100173 263.102618 
L 112.214985 261.974922 
L 113.255861 261.514349 
L 114.297318 260.971616 
L 116.371526 259.888673 
L 117.413563 259.522475 
L 120.003179 258.18385 
L 121.037671 257.6554 
L 123.090596 256.509961 
L 124.667126 255.798634 
L 125.697458 255.242406 
L 127.237298 254.596482 
L 128.80906 253.597662 
L 129.338785 253.174594 
L 130.360701 252.768455 
L 134.548584 250.393717 
L 137.141803 248.890686 
L 137.658952 248.776909 
L 139.720391 247.582152 
L 140.779647 246.793149 
L 141.803111 246.458926 
L 143.368682 245.521166 
L 144.412171 244.771981 
L 145.960136 243.881609 
L 147.525707 243.120051 
L 150.124301 241.737061 
L 150.651801 241.503444 
L 151.680198 240.613213 
L 152.714497 240.145805 
L 153.232227 239.812152 
L 154.270201 239.381828 
L 155.306047 238.620866 
L 156.342861 237.990522 
L 159.956327 235.972097 
L 162.023667 234.753436 
L 163.053273 234.306221 
L 165.650821 232.522446 
L 167.206719 231.769301 
L 168.78119 230.832241 
L 169.310915 230.527295 
L 170.344246 230.105278 
L 171.377577 229.514102 
L 173.472679 227.953831 
L 175.026836 227.376279 
L 177.1051 225.993464 
L 180.208473 224.25105 
L 181.253993 223.577926 
L 182.84162 222.658742 
L 183.898361 222.05176 
L 189.573568 218.802581 
L 191.637909 217.467339 
L 192.682848 216.912723 
L 195.303226 215.443376 
L 195.813603 215.242041 
L 198.424307 213.594213 
L 198.956354 213.346997 
L 200.014062 212.565845 
L 201.057261 212.035165 
L 202.084207 211.605226 
L 204.12804 210.155227 
L 205.68297 209.526723 
L 207.756984 208.193795 
L 208.804825 207.735149 
L 210.377265 206.664965 
L 211.913235 205.744239 
L 213.470994 204.717427 
L 215.042563 203.622496 
L 215.555843 203.474234 
L 220.797759 200.268834 
L 223.388729 198.769202 
L 224.409484 198.000668 
L 225.428498 197.381734 
L 229.594773 194.878226 
L 231.660662 193.848114 
L 233.748993 192.259587 
L 234.765879 191.722865 
L 236.851405 190.407831 
L 238.961259 189.093147 
L 241.57177 187.40238 
L 242.634122 186.624383 
L 244.184989 185.852134 
L 245.209033 185.31061 
L 246.25968 184.415472 
L 249.377666 182.531012 
L 252.474721 180.546052 
L 255.091326 178.704741 
L 257.683263 177.311735 
L 258.726171 176.324341 
L 261.832162 174.338339 
L 263.389027 173.344566 
L 270.698996 168.477702 
L 272.265051 167.237449 
L 273.299736 166.679118 
L 274.359186 166.186508 
L 279.022537 162.706902 
L 283.734341 159.653729 
L 287.91971 156.80119 
L 288.957684 155.880815 
L 291.035906 154.763644 
L 293.592245 152.812622 
L 295.707468 151.362833 
L 296.744088 150.481996 
L 299.339895 148.798134 
L 301.939571 146.984829 
L 302.966179 146.290666 
L 306.118797 144.027758 
L 307.16451 143.298692 
L 308.210997 142.482209 
L 309.76496 141.470245 
L 312.312205 139.566823 
L 313.844499 138.321452 
L 316.987782 136.04101 
L 318.553546 134.875136 
L 319.599646 134.107584 
L 320.639943 133.316268 
L 322.726145 131.979413 
L 324.803739 130.087839 
L 325.831846 129.47332 
L 328.446565 127.277764 
L 329.488989 126.680105 
L 331.614466 125.031575 
L 332.667145 124.25498 
L 333.71576 123.464575 
L 334.769986 122.551771 
L 336.813045 121.076955 
L 337.321681 120.679404 
L 338.360429 119.619735 
L 340.396088 118.191573 
L 340.905111 117.926165 
L 342.433923 116.693273 
L 342.947009 116.425726 
L 344.004911 115.488877 
L 346.595494 113.447073 
L 348.143653 112.147513 
L 350.195321 110.839261 
L 352.789386 108.365976 
L 356.942517 105.143821 
L 358.988285 103.513448 
L 359.500791 102.987539 
L 360.525996 102.259385 
L 368.812862 95.436417 
L 370.851858 93.816139 
L 373.457145 91.547412 
L 375.01401 90.325386 
L 381.745874 84.651012 
L 383.321505 83.273288 
L 384.368573 82.328167 
L 385.407902 81.534397 
L 387.467696 79.828173 
L 388.503155 78.844074 
L 389.531262 78.076592 
L 394.724399 73.312271 
L 396.256113 72.015796 
L 398.850372 69.508231 
L 400.952439 67.500005 
L 403.017747 65.896762 
L 407.19511 61.962576 
L 410.259698 59.16689 
L 412.324426 57.395751 
L 414.907657 54.920924 
L 415.962463 53.907102 
L 417.519498 52.437158 
L 419.081876 50.975452 
L 421.162469 48.970381 
L 421.675942 48.615242 
L 424.78735 45.321478 
L 426.326802 43.892018 
L 427.380448 42.854502 
L 428.412812 41.771489 
L 429.960245 40.620354 
L 430.996768 40.121014 
L 431.927511 39.46 
L 432.234091 40.389454 
L 432.053703 50.726518 
L 432.055493 62.475236 
L 432.055638 62.860519 
L 432.049471 62.710763 
L 431.537956 63.106859 
L 430.505448 65.957786 
L 429.455865 66.056508 
L 428.928268 66.411507 
L 427.86224 67.261569 
L 427.351863 67.46739 
L 426.823879 67.549761 
L 426.315436 68.074267 
L 425.801963 69.45781 
L 424.776177 71.069325 
L 424.268121 71.874101 
L 423.738009 73.467951 
L 423.210606 74.227687 
L 422.674496 74.070517 
L 422.139161 74.242671 
L 420.59654 75.528315 
L 420.077166 75.665821 
L 419.555761 78.013132 
L 419.035903 79.155943 
L 418.512176 79.848415 
L 416.944089 81.139422 
L 415.382678 83.00611 
L 414.354861 84.463821 
L 413.323174 85.550409 
L 412.290423 87.093365 
L 409.665209 88.953831 
L 408.113665 91.995858 
L 407.064082 92.969441 
L 406.546739 93.402534 
L 406.02427 94.038504 
L 405.508668 94.872863 
L 404.481915 95.880796 
L 402.926501 97.615202 
L 401.902747 98.851388 
L 400.852197 99.679509 
L 400.320731 100.164268 
L 399.791199 101.172762 
L 398.757191 102.337865 
L 397.209516 103.196287 
L 396.694011 104.230298 
L 396.171542 104.986143 
L 395.661357 105.528298 
L 394.64331 106.11474 
L 394.128289 106.379377 
L 392.563105 108.736082 
L 391.020364 109.60707 
L 390.492961 110.236905 
L 389.984711 111.431732 
L 389.456921 111.98456 
L 388.942674 112.115669 
L 387.898121 112.762031 
L 387.389485 113.222885 
L 386.870788 114.445752 
L 386.340579 115.150422 
L 385.816852 115.476364 
L 384.249636 116.134906 
L 383.740613 117.326088 
L 383.227115 117.989134 
L 382.700873 118.421176 
L 381.125532 119.335943 
L 380.608963 120.423924 
L 380.088815 121.010121 
L 378.525372 122.012376 
L 378.012866 122.192715 
L 376.988241 124.024492 
L 374.899426 125.029341 
L 374.371636 125.720832 
L 373.845781 126.643941 
L 372.800745 127.223425 
L 371.74439 127.961044 
L 370.695775 129.621911 
L 370.181576 129.994471 
L 368.607106 130.711935 
L 368.085313 131.718886 
L 367.570389 132.361446 
L 367.04434 132.74098 
L 366.528351 132.834874 
L 365.465903 133.342538 
L 364.43054 135.217359 
L 363.901009 135.52836 
L 362.344241 135.892691 
L 361.819062 136.658946 
L 361.309168 137.99594 
L 360.274773 138.556024 
L 358.730581 139.237683 
L 358.21614 140.526166 
L 357.197247 141.097203 
L 355.640769 141.550389 
L 355.130778 142.929445 
L 354.621755 143.38618 
L 353.584361 143.842232 
L 353.05541 144.133087 
L 352.528393 144.139493 
L 352.006407 145.573509 
L 351.486646 146.018107 
L 350.450993 146.429433 
L 349.934231 146.666415 
L 349.417662 146.535437 
L 348.894709 147.739429 
L 348.368854 148.501128 
L 346.258273 149.063104 
L 345.750411 149.729341 
L 345.228231 151.005241 
L 344.711662 151.201405 
L 344.189676 151.260519 
L 343.134096 151.619478 
L 342.611626 151.797872 
L 342.090317 153.417239 
L 341.056599 153.640971 
L 340.536161 153.848579 
L 340.027912 154.186753 
L 339.505732 154.082073 
L 338.997289 155.762289 
L 338.484106 156.099701 
L 336.920083 156.774963 
L 336.406996 156.58821 
L 335.88859 158.073576 
L 335.381114 158.526368 
L 334.337916 158.908374 
L 333.825023 159.278725 
L 333.304778 159.158359 
L 332.252729 161.112991 
L 331.719134 161.111414 
L 330.145438 161.46742 
L 329.634286 161.931849 
L 329.118298 163.309503 
L 328.081097 163.451382 
L 326.523361 163.838023 
L 325.994701 165.595071 
L 324.96698 165.978724 
L 323.932295 166.278167 
L 323.423368 166.039477 
L 322.894901 167.389072 
L 322.376494 168.11649 
L 320.272298 168.356355 
L 319.754859 168.872914 
L 319.244288 170.455082 
L 317.16002 170.977766 
L 316.635712 170.741907 
L 316.120884 172.39268 
L 315.595222 172.892966 
L 314.057898 173.267217 
L 313.54636 173.126574 
L 313.037433 173.637936 
L 312.52483 175.131679 
L 312.003908 175.445914 
L 310.964386 175.447228 
L 310.437757 175.61302 
L 309.92467 175.449086 
L 308.898111 177.770599 
L 308.381252 177.935515 
L 307.85056 177.860865 
L 307.319287 178.013197 
L 306.806588 178.01084 
L 306.298241 178.149258 
L 305.789605 179.554391 
L 305.273229 179.948613 
L 304.243381 180.075595 
L 303.711334 180.190834 
L 303.198441 180.126156 
L 302.678777 181.505772 
L 302.152825 181.98303 
L 300.564811 182.346108 
L 300.048436 182.134521 
L 299.009107 184.042711 
L 298.49486 184.253737 
L 297.970552 184.338333 
L 297.442569 184.539667 
L 296.932771 184.553644 
L 296.423264 184.775168 
L 295.90805 185.962142 
L 295.396705 186.364531 
L 293.319305 186.657945 
L 292.281137 188.149024 
L 291.773274 188.451446 
L 290.731043 188.723216 
L 290.21312 188.843328 
L 289.193332 189.952699 
L 288.683148 190.266338 
L 287.119705 190.821356 
L 286.062383 192.180643 
L 285.034083 192.476476 
L 284.011006 192.762056 
L 283.485053 193.202356 
L 282.975643 194.069804 
L 282.452303 194.347795 
L 281.427388 194.466566 
L 280.370646 195.021813 
L 279.852433 195.92992 
L 279.33925 196.336094 
L 278.819586 196.541779 
L 278.309595 196.521476 
L 277.268428 196.862445 
L 276.221554 198.201893 
L 275.692797 198.524049 
L 274.645729 198.709198 
L 274.13361 198.955608 
L 273.6064 199.538861 
L 273.098151 199.917975 
L 271.033327 200.842495 
L 269.987226 201.887793 
L 269.476268 202.169395 
L 268.439358 202.453411 
L 266.367665 203.800675 
L 264.819507 204.687366 
L 261.14471 206.932818 
L 259.070889 207.875766 
L 256.496848 209.48209 
L 254.951869 210.337217 
L 254.428916 210.613842 
L 253.379817 211.32398 
L 248.174177 214.2285 
L 246.595837 214.768456 
L 245.556315 215.673408 
L 241.902013 217.738285 
L 240.845466 218.373729 
L 239.273317 219.073019 
L 237.682401 219.974747 
L 236.129986 220.809912 
L 234.589759 221.689523 
L 233.563006 222.346558 
L 232.528708 222.710062 
L 231.489186 223.173579 
L 229.930277 224.219591 
L 227.856843 225.216694 
L 226.27386 226.227747 
L 223.730871 227.395128 
L 222.17923 228.123037 
L 221.141062 228.629843 
L 220.096993 229.251231 
L 218.535678 229.70872 
L 218.02466 229.85039 
L 215.408635 231.578556 
L 214.369887 232.067346 
L 213.858542 232.39178 
L 212.817472 232.726817 
L 211.770985 233.466258 
L 210.219537 234.147514 
L 209.689812 234.304648 
L 208.132367 235.303819 
L 206.571536 235.867039 
L 206.060578 236.192911 
L 205.530369 236.711809 
L 205.005348 237.00429 
L 203.445968 237.329329 
L 202.938106 237.558879 
L 201.370793 238.675752 
L 199.823795 239.261072 
L 197.760132 240.533502 
L 196.219132 240.971783 
L 193.057131 242.503206 
L 192.013788 243.192798 
L 186.790638 245.508234 
L 185.226809 246.215686 
L 184.714883 246.409528 
L 183.180654 247.230358 
L 182.139584 247.627839 
L 181.087003 248.224797 
L 180.046513 248.846991 
L 175.924561 250.458165 
L 174.364504 251.647663 
L 172.829502 252.037489 
L 171.813583 252.439895 
L 170.779381 252.858967 
L 170.262425 253.128021 
L 169.231029 254.03732 
L 167.155757 254.583192 
L 166.640833 254.868089 
L 166.131132 255.365396 
L 165.602181 255.549748 
L 164.033031 255.802138 
L 163.521493 256.121551 
L 162.99051 256.609465 
L 162.464558 256.90067 
L 160.913497 257.312241 
L 155.214602 259.929595 
L 154.17994 260.325549 
L 152.611177 261.137405 
L 151.052764 261.645578 
L 150.000086 262.094155 
L 148.446317 262.976184 
L 145.347291 264.335896 
L 144.311445 264.96815 
L 143.257219 265.173729 
L 142.224468 265.599461 
L 140.651303 266.421162 
L 139.095792 266.892978 
L 138.050176 267.390688 
L 137.524417 267.671238 
L 136.496116 267.969581 
L 134.930352 268.854064 
L 132.841344 269.634047 
L 132.325936 269.752888 
L 131.302859 270.332495 
L 129.752185 270.954497 
L 128.726732 271.302107 
L 127.702884 271.877122 
L 123.049798 273.732017 
L 122.021497 274.316847 
L 120.984684 274.730031 
L 118.373593 275.838176 
L 116.815954 276.498401 
L 115.782248 276.998853 
L 114.224416 277.316912 
L 113.185667 277.855579 
L 112.657877 278.222916 
L 110.063038 279.130112 
L 109.541439 279.485251 
L 109.012875 279.704812 
L 107.47439 280.06493 
L 105.898565 280.868164 
L 104.327189 281.224198 
L 102.765866 282.211441 
L 101.217512 282.671064 
L 100.690786 282.795807 
L 100.16938 283.174781 
L 99.128504 283.431853 
L 98.10117 283.694123 
L 97.571252 283.910092 
L 96.537534 284.589875 
L 95.506331 285.099941 
L 93.960881 285.583177 
L 92.934708 285.965963 
L 92.426265 286.238836 
L 91.375812 286.582041 
L 90.855726 286.806338 
L 89.809045 286.967799 
L 88.771845 287.372084 
L 87.738223 287.776015 
L 85.658695 288.381989 
L 84.625268 288.949276 
L 83.604706 289.292901 
L 78.940979 291.06 
L 78.41967 290.961313 
L 77.394463 290.625923 
L 77.136952 290.772455 
L 77.025876 291.01876 
L 76.916511 290.12131 
L 76.916511 290.12131 
" clip-path="url(#p0e692e4476)" style="fill: none; stroke: #ff0000; stroke-width: 2; stroke-linecap: square"/>
   </g>
   <g id="line2d_30">
    <path d="M 77.032957 267.920874 
L 77.032957 267.870875 
L 77.032957 268.122453 
L 77.032578 267.958676 
L 77.936818 265.159788 
L 78.459385 265.089966 
L 78.999363 266.264323 
L 79.545146 267.103309 
L 80.060554 270.347528 
L 80.57248 270.139341 
L 81.1142 270.278144 
L 81.641023 270.6102 
L 82.150433 270.710184 
L 83.199532 267.260897 
L 83.710684 267.193557 
L 85.284768 268.151017 
L 85.800563 268.311166 
L 86.844358 267.686737 
L 87.884751 267.600046 
L 88.941105 267.889304 
L 89.462317 268.010432 
L 95.682618 267.608032 
L 96.20354 267.592234 
L 97.768144 267.054583 
L 99.808125 266.632073 
L 101.845186 265.77975 
L 102.864974 265.654433 
L 104.414487 265.179368 
L 104.925639 264.87996 
L 106.475539 264.492048 
L 109.100173 263.102618 
L 112.214985 261.974922 
L 113.255861 261.514349 
L 114.297318 260.971616 
L 116.371526 259.888673 
L 117.413563 259.522475 
L 120.003179 258.18385 
L 121.037671 257.6554 
L 123.090596 256.509961 
L 124.667126 255.798634 
L 125.697458 255.242406 
L 127.237298 254.596482 
L 128.80906 253.597662 
L 129.338785 253.174594 
L 130.360701 252.768455 
L 134.548584 250.393717 
L 137.141803 248.890686 
L 137.658952 248.776909 
L 139.720391 247.582152 
L 140.779647 246.793149 
L 141.803111 246.458926 
L 143.368682 245.521166 
L 144.412171 244.771981 
L 145.960136 243.881609 
L 147.525707 243.120051 
L 150.124301 241.737061 
L 150.651801 241.503444 
L 151.680198 240.613213 
L 152.714497 240.145805 
L 153.232227 239.812152 
L 154.270201 239.381828 
L 155.306047 238.620866 
L 156.342861 237.990522 
L 159.956327 235.972097 
L 162.023667 234.753436 
L 163.053273 234.306221 
L 165.650821 232.522446 
L 167.206719 231.769301 
L 168.78119 230.832241 
L 169.310915 230.527295 
L 170.344246 230.105278 
L 171.377577 229.514102 
L 173.472679 227.953831 
L 175.026836 227.376279 
L 177.1051 225.993464 
L 180.208473 224.25105 
L 181.253993 223.577926 
L 182.84162 222.658742 
L 183.898361 222.05176 
L 189.573568 218.802581 
L 191.637909 217.467339 
L 192.682848 216.912723 
L 195.303226 215.443376 
L 195.813603 215.242041 
L 198.424307 213.594213 
L 198.956354 213.346997 
L 200.014062 212.565845 
L 201.057261 212.035165 
L 202.084207 211.605226 
L 204.12804 210.155227 
L 205.68297 209.526723 
L 207.756984 208.193795 
L 208.804825 207.735149 
L 210.377265 206.664965 
L 211.913235 205.744239 
L 213.470994 204.717427 
L 215.042563 203.622496 
L 215.555843 203.474234 
L 220.797759 200.268834 
L 223.388729 198.769202 
L 224.409484 198.000668 
L 225.428498 197.381734 
L 229.594773 194.878226 
L 231.660662 193.848114 
L 233.748993 192.259587 
L 234.765879 191.722865 
L 236.851405 190.407831 
L 238.961259 189.093147 
L 241.57177 187.40238 
L 242.634122 186.624383 
L 244.184989 185.852134 
L 245.209033 185.31061 
L 246.25968 184.415472 
L 249.377666 182.531012 
L 252.474721 180.546052 
L 255.091326 178.704741 
L 257.683263 177.311735 
L 258.726171 176.324341 
L 261.832162 174.338339 
L 263.389027 173.344566 
L 270.698996 168.477702 
L 272.265051 167.237449 
L 273.299736 166.679118 
L 274.359186 166.186508 
L 279.022537 162.706902 
L 283.734341 159.653729 
L 287.91971 156.80119 
L 288.957684 155.880815 
L 291.035906 154.763644 
L 293.592245 152.812622 
L 295.707468 151.362833 
L 296.744088 150.481996 
L 299.339895 148.798134 
L 301.939571 146.984829 
L 302.966179 146.290666 
L 306.118797 144.027758 
L 307.16451 143.298692 
L 308.210997 142.482209 
L 309.76496 141.470245 
L 312.312205 139.566823 
L 313.844499 138.321452 
L 316.987782 136.04101 
L 318.553546 134.875136 
L 319.599646 134.107584 
L 320.639943 133.316268 
L 322.726145 131.979413 
L 324.803739 130.087839 
L 325.831846 129.47332 
L 328.446565 127.277764 
L 329.488989 126.680105 
L 331.614466 125.031575 
L 332.667145 124.25498 
L 333.71576 123.464575 
L 334.769986 122.551771 
L 336.813045 121.076955 
L 337.321681 120.679404 
L 338.360429 119.619735 
L 340.396088 118.191573 
L 340.905111 117.926165 
L 342.433923 116.693273 
L 342.947009 116.425726 
L 344.004911 115.488877 
L 346.595494 113.447073 
L 348.143653 112.147513 
L 350.195321 110.839261 
L 352.789386 108.365976 
L 356.942517 105.143821 
L 358.988285 103.513448 
L 359.500791 102.987539 
L 360.525996 102.259385 
L 368.812862 95.436417 
L 370.851858 93.816139 
L 373.457145 91.547412 
L 375.01401 90.325386 
L 381.745874 84.651012 
L 383.321505 83.273288 
L 384.368573 82.328167 
L 385.407902 81.534397 
L 387.467696 79.828173 
L 388.503155 78.844074 
L 389.531262 78.076592 
L 394.724399 73.312271 
L 396.256113 72.015796 
L 398.850372 69.508231 
L 400.952439 67.500005 
L 403.017747 65.896762 
L 407.19511 61.962576 
L 410.259698 59.16689 
L 412.324426 57.395751 
L 414.907657 54.920924 
L 415.962463 53.907102 
L 417.519498 52.437158 
L 419.081876 50.975452 
L 421.162469 48.970381 
L 421.675942 48.615242 
L 424.78735 45.321478 
L 426.326802 43.892018 
L 427.380448 42.854502 
L 428.412812 41.771489 
L 429.960245 40.620354 
L 430.996768 40.121014 
L 431.927511 39.46 
L 432.234091 40.389454 
L 432.053703 50.726518 
L 432.055493 62.475236 
L 432.055638 62.860519 
L 432.049471 62.710763 
L 431.537956 63.106859 
L 430.505448 65.957786 
L 429.455865 66.056508 
L 428.928268 66.411507 
L 427.86224 67.261569 
L 427.351863 67.46739 
L 426.823879 67.549761 
L 426.315436 68.074267 
L 425.801963 69.45781 
L 424.776177 71.069325 
L 424.268121 71.874101 
L 423.738009 73.467951 
L 423.210606 74.227687 
L 422.674496 74.070517 
L 422.139161 74.242671 
L 420.59654 75.528315 
L 420.077166 75.665821 
L 419.555761 78.013132 
L 419.035903 79.155943 
L 418.512176 79.848415 
L 416.944089 81.139422 
L 415.382678 83.00611 
L 414.354861 84.463821 
L 413.323174 85.550409 
L 412.290423 87.093365 
L 409.665209 88.953831 
L 408.113665 91.995858 
L 407.064082 92.969441 
L 406.546739 93.402534 
L 406.02427 94.038504 
L 405.508668 94.872863 
L 404.481915 95.880796 
L 402.926501 97.615202 
L 401.902747 98.851388 
L 400.852197 99.679509 
L 400.320731 100.164268 
L 399.791199 101.172762 
L 398.757191 102.337865 
L 397.209516 103.196287 
L 396.694011 104.230298 
L 396.171542 104.986143 
L 395.661357 105.528298 
L 394.64331 106.11474 
L 394.128289 106.379377 
L 392.563105 108.736082 
L 391.020364 109.60707 
L 390.492961 110.236905 
L 389.984711 111.431732 
L 389.456921 111.98456 
L 388.942674 112.115669 
L 387.898121 112.762031 
L 387.389485 113.222885 
L 386.870788 114.445752 
L 386.340579 115.150422 
L 385.816852 115.476364 
L 384.249636 116.134906 
L 383.740613 117.326088 
L 383.227115 117.989134 
L 382.700873 118.421176 
L 381.125532 119.335943 
L 380.608963 120.423924 
L 380.088815 121.010121 
L 378.525372 122.012376 
L 378.012866 122.192715 
L 376.988241 124.024492 
L 374.899426 125.029341 
L 374.371636 125.720832 
L 373.845781 126.643941 
L 372.800745 127.223425 
L 371.74439 127.961044 
L 370.695775 129.621911 
L 370.181576 129.994471 
L 368.607106 130.711935 
L 368.085313 131.718886 
L 367.570389 132.361446 
L 367.04434 132.74098 
L 366.528351 132.834874 
L 365.465903 133.342538 
L 364.43054 135.217359 
L 363.901009 135.52836 
L 362.344241 135.892691 
L 361.819062 136.658946 
L 361.309168 137.99594 
L 360.274773 138.556024 
L 358.730581 139.237683 
L 358.21614 140.526166 
L 357.197247 141.097203 
L 355.640769 141.550389 
L 355.130778 142.929445 
L 354.621755 143.38618 
L 353.584361 143.842232 
L 353.05541 144.133087 
L 352.528393 144.139493 
L 352.006407 145.573509 
L 351.486646 146.018107 
L 350.450993 146.429433 
L 349.934231 146.666415 
L 349.417662 146.535437 
L 348.894709 147.739429 
L 348.368854 148.501128 
L 346.258273 149.063104 
L 345.750411 149.729341 
L 345.228231 151.005241 
L 344.711662 151.201405 
L 344.189676 151.260519 
L 343.134096 151.619478 
L 342.611626 151.797872 
L 342.090317 153.417239 
L 341.056599 153.640971 
L 340.536161 153.848579 
L 340.027912 154.186753 
L 339.505732 154.082073 
L 338.997289 155.762289 
L 338.484106 156.099701 
L 336.920083 156.774963 
L 336.406996 156.58821 
L 335.88859 158.073576 
L 335.381114 158.526368 
L 334.337916 158.908374 
L 333.825023 159.278725 
L 333.304778 159.158359 
L 332.252729 161.112991 
L 331.719134 161.111414 
L 330.145438 161.46742 
L 329.634286 161.931849 
L 329.118298 163.309503 
L 328.081097 163.451382 
L 326.523361 163.838023 
L 325.994701 165.595071 
L 324.96698 165.978724 
L 323.932295 166.278167 
L 323.423368 166.039477 
L 322.894901 167.389072 
L 322.376494 168.11649 
L 320.272298 168.356355 
L 319.754859 168.872914 
L 319.244288 170.455082 
L 317.16002 170.977766 
L 316.635712 170.741907 
L 316.120884 172.39268 
L 315.595222 172.892966 
L 314.057898 173.267217 
L 313.54636 173.126574 
L 313.037433 173.637936 
L 312.52483 175.131679 
L 312.003908 175.445914 
L 310.964386 175.447228 
L 310.437757 175.61302 
L 309.92467 175.449086 
L 308.898111 177.770599 
L 308.381252 177.935515 
L 307.85056 177.860865 
L 307.319287 178.013197 
L 306.806588 178.01084 
L 306.298241 178.149258 
L 305.789605 179.554391 
L 305.273229 179.948613 
L 304.243381 180.075595 
L 303.711334 180.190834 
L 303.198441 180.126156 
L 302.678777 181.505772 
L 302.152825 181.98303 
L 300.564811 182.346108 
L 300.048436 182.134521 
L 299.009107 184.042711 
L 298.49486 184.253737 
L 297.970552 184.338333 
L 297.442569 184.539667 
L 296.932771 184.553644 
L 296.423264 184.775168 
L 295.90805 185.962142 
L 295.396705 186.364531 
L 293.319305 186.657945 
L 292.281137 188.149024 
L 291.773274 188.451446 
L 290.731043 188.723216 
L 290.21312 188.843328 
L 289.193332 189.952699 
L 288.683148 190.266338 
L 287.119705 190.821356 
L 286.062383 192.180643 
L 285.034083 192.476476 
L 284.011006 192.762056 
L 283.485053 193.202356 
L 282.975643 194.069804 
L 282.452303 194.347795 
L 281.427388 194.466566 
L 280.370646 195.021813 
L 279.852433 195.92992 
L 279.33925 196.382802 
L 278.819586 196.541779 
L 278.309595 196.521476 
L 277.268428 196.862445 
L 276.221554 198.201893 
L 275.692797 198.524049 
L 274.645729 198.709198 
L 274.13361 198.955608 
L 273.6064 199.538861 
L 273.098151 199.917975 
L 271.033327 200.842495 
L 269.987226 201.887793 
L 269.476268 202.169395 
L 268.439358 202.453411 
L 266.367665 203.800675 
L 264.819507 204.687366 
L 261.14471 206.932818 
L 259.070889 207.875766 
L 256.496848 209.48209 
L 254.951869 210.337217 
L 254.428916 210.613842 
L 253.379817 211.32398 
L 248.174177 214.2285 
L 246.595837 214.768456 
L 245.556315 215.673408 
L 241.902013 217.738285 
L 240.845466 218.373729 
L 239.273317 219.073019 
L 237.682401 219.974747 
L 236.129986 220.809912 
L 234.589759 221.689523 
L 233.563006 222.346558 
L 232.528708 222.710062 
L 231.489186 223.173579 
L 229.930277 224.219591 
L 227.856843 225.216694 
L 226.27386 226.227747 
L 223.730871 227.395128 
L 222.17923 228.123037 
L 221.141062 228.629843 
L 220.096993 229.251231 
L 218.535678 229.70872 
L 218.02466 229.85039 
L 215.408635 231.578556 
L 214.369887 232.067346 
L 213.858542 232.39178 
L 212.817472 232.726817 
L 211.770985 233.466258 
L 210.219537 234.147514 
L 209.689812 234.304648 
L 208.132367 235.303819 
L 206.571536 235.867039 
L 206.060578 236.192911 
L 205.530369 236.711809 
L 205.005348 237.00429 
L 203.445968 237.329329 
L 202.938106 237.558879 
L 201.370793 238.675752 
L 199.823795 239.261072 
L 197.760132 240.533502 
L 196.219132 240.971783 
L 193.057131 242.503206 
L 192.013788 243.192798 
L 186.790638 245.508234 
L 185.226809 246.215686 
L 184.714883 246.409528 
L 183.180654 247.230358 
L 182.139584 247.627839 
L 181.087003 248.224797 
L 180.046513 248.846991 
L 175.924561 250.458165 
L 174.364504 251.647663 
L 172.829502 252.037489 
L 171.813583 252.439895 
L 170.779381 252.858967 
L 170.262425 253.128021 
L 169.231029 254.03732 
L 167.155757 254.583192 
L 166.640833 254.868089 
L 166.131132 255.365396 
L 165.602181 255.549748 
L 164.033031 255.802138 
L 163.521493 256.121551 
L 162.99051 256.609465 
L 162.464558 256.90067 
L 160.913497 257.312241 
L 155.214602 259.929595 
L 154.17994 260.325549 
L 152.611177 261.137405 
L 151.052764 261.645578 
L 150.000086 262.094155 
L 148.446317 262.976184 
L 145.347291 264.335896 
L 144.311445 264.96815 
L 143.257219 265.173729 
L 142.224468 265.599461 
L 140.651303 266.421162 
L 139.095792 266.892978 
L 138.050176 267.390688 
L 137.524417 267.671238 
L 136.496116 267.969581 
L 134.930352 268.854064 
L 132.841344 269.634047 
L 132.325936 269.752888 
L 131.302859 270.332495 
L 129.752185 270.954497 
L 128.726732 271.302107 
L 127.702884 271.877122 
L 123.049798 273.732017 
L 122.021497 274.316847 
L 120.984684 274.730031 
L 118.373593 275.838176 
L 116.815954 276.498401 
L 115.782248 276.998853 
L 114.224416 277.316912 
L 113.185667 277.855579 
L 112.657877 278.222916 
L 110.063038 279.130112 
L 109.541439 279.485251 
L 109.012875 279.704812 
L 107.47439 280.06493 
L 105.898565 280.868164 
L 104.327189 281.224198 
L 102.765866 282.211441 
L 101.217512 282.671064 
L 100.690786 282.795807 
L 100.16938 283.174781 
L 99.128504 283.431853 
L 98.10117 283.694123 
L 97.571252 283.910092 
L 96.537534 284.589875 
L 95.506331 285.099941 
L 93.960881 285.583177 
L 92.934708 285.965963 
L 92.426265 286.238836 
L 91.375812 286.582041 
L 90.855726 286.806338 
L 89.809045 286.967799 
L 88.771845 287.372084 
L 87.738223 287.776015 
L 85.658695 288.381989 
L 84.625268 288.949276 
L 83.604706 289.292901 
L 78.940979 291.06 
L 78.41967 290.961313 
L 77.394463 290.625923 
L 77.136952 290.772455 
L 77.025876 291.01876 
L 76.916511 290.12131 
L 76.916511 290.12131 
" clip-path="url(#p0e692e4476)" style="fill: none; stroke: #000000; stroke-width: 2; stroke-linecap: square"/>
   </g>
   <g id="patch_3">
    <path d="M 59.15 303.64 
L 59.15 26.88 
" style="fill: none; stroke: #000000; stroke-width: 0.8; stroke-linejoin: miter; stroke-linecap: square"/>
   </g>
   <g id="patch_4">
    <path d="M 450 303.64 
L 450 26.88 
" style="fill: none; stroke: #000000; stroke-width: 0.8; stroke-linejoin: miter; stroke-linecap: square"/>
   </g>
   <g id="patch_5">
    <path d="M 59.15 303.64 
L 450 303.64 
" style="fill: none; stroke: #000000; stroke-width: 0.8; stroke-linejoin: miter; stroke-linecap: square"/>
   </g>
   <g id="patch_6">
    <path d="M 59.15 26.88 
L 450 26.88 
" style="fill: none; stroke: #000000; stroke-width: 0.8; stroke-linejoin: miter; stroke-linecap: square"/>
   </g>
   <g id="text_17">
    <!-- 2025-06-16 Trial 13 - Stress vs Strain -->
    <g transform="translate(143.320938 20.88) scale(0.12 -0.12)">
     <defs>
      <path id="DejaVuSans-36" d="M 2113 2584 
Q 1688 2584 1439 2293 
Q 1191 2003 1191 1497 
Q 1191 994 1439 701 
Q 1688 409 2113 409 
Q 2538 409 2786 701 
Q 3034 994 3034 1497 
Q 3034 2003 2786 2293 
Q 2538 2584 2113 2584 
z
M 3366 4563 
L 3366 3988 
Q 3128 4100 2886 4159 
Q 2644 4219 2406 4219 
Q 1781 4219 1451 3797 
Q 1122 3375 1075 2522 
Q 1259 2794 1537 2939 
Q 1816 3084 2150 3084 
Q 2853 3084 3261 2657 
Q 3669 2231 3669 1497 
Q 3669 778 3244 343 
Q 2819 -91 2113 -91 
Q 1303 -91 875 529 
Q 447 1150 447 2328 
Q 447 3434 972 4092 
Q 1497 4750 2381 4750 
Q 2619 4750 2861 4703 
Q 3103 4656 3366 4563 
z
" transform="scale(0.015625)"/>
      <path id="DejaVuSans-54" d="M -19 4666 
L 3928 4666 
L 3928 4134 
L 2272 4134 
L 2272 0 
L 1638 0 
L 1638 4134 
L -19 4134 
L -19 4666 
z
" transform="scale(0.015625)"/>
      <path id="DejaVuSans-6c" d="M 603 4863 
L 1178 4863 
L 1178 0 
L 603 0 
L 603 4863 
z
" transform="scale(0.015625)"/>
      <path id="DejaVuSans-33" d="M 2597 2516 
Q 3050 2419 3304 2112 
Q 3559 1806 3559 1356 
Q 3559 666 3084 287 
Q 2609 -91 1734 -91 
Q 1441 -91 1130 -33 
Q 819 25 488 141 
L 488 750 
Q 750 597 1062 519 
Q 1375 441 1716 441 
Q 2309 441 2620 675 
Q 2931 909 2931 1356 
Q 2931 1769 2642 2001 
Q 2353 2234 1838 2234 
L 1294 2234 
L 1294 2753 
L 1863 2753 
Q 2328 2753 2575 2939 
Q 2822 3125 2822 3475 
Q 2822 3834 2567 4026 
Q 2313 4219 1838 4219 
Q 1578 4219 1281 4162 
Q 984 4106 628 3988 
L 628 4550 
Q 988 4650 1302 4700 
Q 1616 4750 1894 4750 
Q 2613 4750 3031 4423 
Q 3450 4097 3450 3541 
Q 3450 3153 3228 2886 
Q 3006 2619 2597 2516 
z
" transform="scale(0.015625)"/>
      <path id="DejaVuSans-76" d="M 191 3500 
L 800 3500 
L 1894 563 
L 2988 3500 
L 3597 3500 
L 2284 0 
L 1503 0 
L 191 3500 
z
" transform="scale(0.015625)"/>
     </defs>
     <use xlink:href="#DejaVuSans-32"/>
     <use xlink:href="#DejaVuSans-30" transform="translate(63.623047 0)"/>
     <use xlink:href="#DejaVuSans-32" transform="translate(127.246094 0)"/>
     <use xlink:href="#DejaVuSans-35" transform="translate(190.869141 0)"/>
     <use xlink:href="#DejaVuSans-2d" transform="translate(254.492188 0)"/>
     <use xlink:href="#DejaVuSans-30" transform="translate(290.576172 0)"/>
     <use xlink:href="#DejaVuSans-36" transform="translate(354.199219 0)"/>
     <use xlink:href="#DejaVuSans-2d" transform="translate(417.822266 0)"/>
     <use xlink:href="#DejaVuSans-31" transform="translate(453.90625 0)"/>
     <use xlink:href="#DejaVuSans-36" transform="translate(517.529297 0)"/>
     <use xlink:href="#DejaVuSans-20" transform="translate(581.152344 0)"/>
     <use xlink:href="#DejaVuSans-54" transform="translate(612.939453 0)"/>
     <use xlink:href="#DejaVuSans-72" transform="translate(659.273438 0)"/>
     <use xlink:href="#DejaVuSans-69" transform="translate(700.386719 0)"/>
     <use xlink:href="#DejaVuSans-61" transform="translate(728.169922 0)"/>
     <use xlink:href="#DejaVuSans-6c" transform="translate(789.449219 0)"/>
     <use xlink:href="#DejaVuSans-20" transform="translate(817.232422 0)"/>
     <use xlink:href="#DejaVuSans-31" transform="translate(849.019531 0)"/>
     <use xlink:href="#DejaVuSans-33" transform="translate(912.642578 0)"/>
     <use xlink:href="#DejaVuSans-20" transform="translate(976.265625 0)"/>
     <use xlink:href="#DejaVuSans-2d" transform="translate(1008.052734 0)"/>
     <use xlink:href="#DejaVuSans-20" transform="translate(1044.136719 0)"/>
     <use xlink:href="#DejaVuSans-53" transform="translate(1075.923828 0)"/>
     <use xlink:href="#DejaVuSans-74" transform="translate(1139.400391 0)"/>
     <use xlink:href="#DejaVuSans-72" transform="translate(1178.609375 0)"/>
     <use xlink:href="#DejaVuSans-65" transform="translate(1217.472656 0)"/>
     <use xlink:href="#DejaVuSans-73" transform="translate(1278.996094 0)"/>
     <use xlink:href="#DejaVuSans-73" transform="translate(1331.095703 0)"/>
     <use xlink:href="#DejaVuSans-20" transform="translate(1383.195312 0)"/>
     <use xlink:href="#DejaVuSans-76" transform="translate(1414.982422 0)"/>
     <use xlink:href="#DejaVuSans-73" transform="translate(1474.162109 0)"/>
     <use xlink:href="#DejaVuSans-20" transform="translate(1526.261719 0)"/>
     <use xlink:href="#DejaVuSans-53" transform="translate(1558.048828 0)"/>
     <use xlink:href="#DejaVuSans-74" transform="translate(1621.525391 0)"/>
     <use xlink:href="#DejaVuSans-72" transform="translate(1660.734375 0)"/>
     <use xlink:href="#DejaVuSans-61" transform="translate(1701.847656 0)"/>
     <use xlink:href="#DejaVuSans-69" transform="translate(1763.126953 0)"/>
     <use xlink:href="#DejaVuSans-6e" transform="translate(1790.910156 0)"/>
    </g>
   </g>
   <g id="legend_1">
    <g id="patch_7">
     <path d="M 66.15 64.23625 
L 172.134375 64.23625 
Q 174.134375 64.23625 174.134375 62.23625 
L 174.134375 33.88 
Q 174.134375 31.88 172.134375 31.88 
L 66.15 31.88 
Q 64.15 31.88 64.15 33.88 
L 64.15 62.23625 
Q 64.15 64.23625 66.15 64.23625 
z
" style="fill: #ffffff; opacity: 0.8; stroke: #cccccc; stroke-linejoin: miter"/>
    </g>
    <g id="line2d_31">
     <path d="M 68.15 39.978437 
L 78.15 39.978437 
L 88.15 39.978437 
" style="fill: none; stroke: #ff0000; stroke-width: 2; stroke-linecap: square"/>
    </g>
    <g id="text_18">
     <!-- Raw Force -->
     <g transform="translate(96.15 43.478437) scale(0.1 -0.1)">
      <defs>
       <path id="DejaVuSans-52" d="M 2841 2188 
Q 3044 2119 3236 1894 
Q 3428 1669 3622 1275 
L 4263 0 
L 3584 0 
L 2988 1197 
Q 2756 1666 2539 1819 
Q 2322 1972 1947 1972 
L 1259 1972 
L 1259 0 
L 628 0 
L 628 4666 
L 2053 4666 
Q 2853 4666 3247 4331 
Q 3641 3997 3641 3322 
Q 3641 2881 3436 2590 
Q 3231 2300 2841 2188 
z
M 1259 4147 
L 1259 2491 
L 2053 2491 
Q 2509 2491 2742 2702 
Q 2975 2913 2975 3322 
Q 2975 3731 2742 3939 
Q 2509 4147 2053 4147 
L 1259 4147 
z
" transform="scale(0.015625)"/>
       <path id="DejaVuSans-77" d="M 269 3500 
L 844 3500 
L 1563 769 
L 2278 3500 
L 2956 3500 
L 3675 769 
L 4391 3500 
L 4966 3500 
L 4050 0 
L 3372 0 
L 2619 2869 
L 1863 0 
L 1184 0 
L 269 3500 
z
" transform="scale(0.015625)"/>
       <path id="DejaVuSans-46" d="M 628 4666 
L 3309 4666 
L 3309 4134 
L 1259 4134 
L 1259 2759 
L 3109 2759 
L 3109 2228 
L 1259 2228 
L 1259 0 
L 628 0 
L 628 4666 
z
" transform="scale(0.015625)"/>
       <path id="DejaVuSans-6f" d="M 1959 3097 
Q 1497 3097 1228 2736 
Q 959 2375 959 1747 
Q 959 1119 1226 758 
Q 1494 397 1959 397 
Q 2419 397 2687 759 
Q 2956 1122 2956 1747 
Q 2956 2369 2687 2733 
Q 2419 3097 1959 3097 
z
M 1959 3584 
Q 2709 3584 3137 3096 
Q 3566 2609 3566 1747 
Q 3566 888 3137 398 
Q 2709 -91 1959 -91 
Q 1206 -91 779 398 
Q 353 888 353 1747 
Q 353 2609 779 3096 
Q 1206 3584 1959 3584 
z
" transform="scale(0.015625)"/>
       <path id="DejaVuSans-63" d="M 3122 3366 
L 3122 2828 
Q 2878 2963 2633 3030 
Q 2388 3097 2138 3097 
Q 1578 3097 1268 2742 
Q 959 2388 959 1747 
Q 959 1106 1268 751 
Q 1578 397 2138 397 
Q 2388 397 2633 464 
Q 2878 531 3122 666 
L 3122 134 
Q 2881 22 2623 -34 
Q 2366 -91 2075 -91 
Q 1284 -91 818 406 
Q 353 903 353 1747 
Q 353 2603 823 3093 
Q 1294 3584 2113 3584 
Q 2378 3584 2631 3529 
Q 2884 3475 3122 3366 
z
" transform="scale(0.015625)"/>
      </defs>
      <use xlink:href="#DejaVuSans-52"/>
      <use xlink:href="#DejaVuSans-61" transform="translate(67.232422 0)"/>
      <use xlink:href="#DejaVuSans-77" transform="translate(128.511719 0)"/>
      <use xlink:href="#DejaVuSans-20" transform="translate(210.298828 0)"/>
      <use xlink:href="#DejaVuSans-46" transform="translate(242.085938 0)"/>
      <use xlink:href="#DejaVuSans-6f" transform="translate(295.980469 0)"/>
      <use xlink:href="#DejaVuSans-72" transform="translate(357.162109 0)"/>
      <use xlink:href="#DejaVuSans-63" transform="translate(396.025391 0)"/>
      <use xlink:href="#DejaVuSans-65" transform="translate(451.005859 0)"/>
     </g>
    </g>
    <g id="line2d_32">
     <path d="M 68.15 54.656563 
L 78.15 54.656563 
L 88.15 54.656563 
" style="fill: none; stroke: #000000; stroke-width: 2; stroke-linecap: square"/>
    </g>
    <g id="text_19">
     <!-- Adjusted Force -->
     <g transform="translate(96.15 58.156563) scale(0.1 -0.1)">
      <defs>
       <path id="DejaVuSans-41" d="M 2188 4044 
L 1331 1722 
L 3047 1722 
L 2188 4044 
z
M 1831 4666 
L 2547 4666 
L 4325 0 
L 3669 0 
L 3244 1197 
L 1141 1197 
L 716 0 
L 50 0 
L 1831 4666 
z
" transform="scale(0.015625)"/>
       <path id="DejaVuSans-64" d="M 2906 2969 
L 2906 4863 
L 3481 4863 
L 3481 0 
L 2906 0 
L 2906 525 
Q 2725 213 2448 61 
Q 2172 -91 1784 -91 
Q 1150 -91 751 415 
Q 353 922 353 1747 
Q 353 2572 751 3078 
Q 1150 3584 1784 3584 
Q 2172 3584 2448 3432 
Q 2725 3281 2906 2969 
z
M 947 1747 
Q 947 1113 1208 752 
Q 1469 391 1925 391 
Q 2381 391 2643 752 
Q 2906 1113 2906 1747 
Q 2906 2381 2643 2742 
Q 2381 3103 1925 3103 
Q 1469 3103 1208 2742 
Q 947 2381 947 1747 
z
" transform="scale(0.015625)"/>
       <path id="DejaVuSans-6a" d="M 603 3500 
L 1178 3500 
L 1178 -63 
Q 1178 -731 923 -1031 
Q 669 -1331 103 -1331 
L -116 -1331 
L -116 -844 
L 38 -844 
Q 366 -844 484 -692 
Q 603 -541 603 -63 
L 603 3500 
z
M 603 4863 
L 1178 4863 
L 1178 4134 
L 603 4134 
L 603 4863 
z
" transform="scale(0.015625)"/>
       <path id="DejaVuSans-75" d="M 544 1381 
L 544 3500 
L 1119 3500 
L 1119 1403 
Q 1119 906 1312 657 
Q 1506 409 1894 409 
Q 2359 409 2629 706 
Q 2900 1003 2900 1516 
L 2900 3500 
L 3475 3500 
L 3475 0 
L 2900 0 
L 2900 538 
Q 2691 219 2414 64 
Q 2138 -91 1772 -91 
Q 1169 -91 856 284 
Q 544 659 544 1381 
z
M 1991 3584 
L 1991 3584 
z
" transform="scale(0.015625)"/>
      </defs>
      <use xlink:href="#DejaVuSans-41"/>
      <use xlink:href="#DejaVuSans-64" transform="translate(66.658203 0)"/>
      <use xlink:href="#DejaVuSans-6a" transform="translate(130.134766 0)"/>
      <use xlink:href="#DejaVuSans-75" transform="translate(157.917969 0)"/>
      <use xlink:href="#DejaVuSans-73" transform="translate(221.296875 0)"/>
      <use xlink:href="#DejaVuSans-74" transform="translate(273.396484 0)"/>
      <use xlink:href="#DejaVuSans-65" transform="translate(312.605469 0)"/>
      <use xlink:href="#DejaVuSans-64" transform="translate(374.128906 0)"/>
      <use xlink:href="#DejaVuSans-20" transform="translate(437.605469 0)"/>
      <use xlink:href="#DejaVuSans-46" transform="translate(469.392578 0)"/>
      <use xlink:href="#DejaVuSans-6f" transform="translate(523.287109 0)"/>
      <use xlink:href="#DejaVuSans-72" transform="translate(584.46875 0)"/>
      <use xlink:href="#DejaVuSans-63" transform="translate(623.332031 0)"/>
      <use xlink:href="#DejaVuSans-65" transform="translate(678.3125 0)"/>
     </g>
    </g>
   </g>
  </g>
 </g>
 <defs>
  <clipPath id="p0e692e4476">
   <rect x="59.15" y="26.88" width="390.85" height="276.76"/>
  </clipPath>
 </defs>
</svg>
