<?xml version="1.0" encoding="utf-8" standalone="no"?>
<!DOCTYPE svg PUBLIC "-//W3C//DTD SVG 1.1//EN"
  "http://www.w3.org/Graphics/SVG/1.1/DTD/svg11.dtd">
<svg xmlns:xlink="http://www.w3.org/1999/xlink" width="460.8pt" height="345.6pt" viewBox="0 0 460.8 345.6" xmlns="http://www.w3.org/2000/svg" version="1.1">
 <metadata>
  <rdf:RDF xmlns:dc="http://purl.org/dc/elements/1.1/" xmlns:cc="http://creativecommons.org/ns#" xmlns:rdf="http://www.w3.org/1999/02/22-rdf-syntax-ns#">
   <cc:Work>
    <dc:type rdf:resource="http://purl.org/dc/dcmitype/StillImage"/>
    <dc:date>2025-07-28T21:14:10.648275</dc:date>
    <dc:format>image/svg+xml</dc:format>
    <dc:creator>
     <cc:Agent>
      <dc:title>Matplotlib v3.10.3, https://matplotlib.org/</dc:title>
     </cc:Agent>
    </dc:creator>
   </cc:Work>
  </rdf:RDF>
 </metadata>
 <defs>
  <style type="text/css">*{stroke-linejoin: round; stroke-linecap: butt}</style>
 </defs>
 <g id="figure_1">
  <g id="patch_1">
   <path d="M 0 345.6 
L 460.8 345.6 
L 460.8 0 
L 0 0 
z
" style="fill: #ffffff"/>
  </g>
  <g id="axes_1">
   <g id="patch_2">
    <path d="M 57.17 303.64 
L 450 303.64 
L 450 26.88 
L 57.17 26.88 
z
" style="fill: #ffffff"/>
   </g>
   <g id="matplotlib.axis_1">
    <g id="xtick_1">
     <g id="line2d_1">
      <path d="M 75.111403 303.64 
L 75.111403 26.88 
" clip-path="url(#p183bfee8de)" style="fill: none; stroke: #b0b0b0; stroke-opacity: 0.3; stroke-width: 0.8; stroke-linecap: square"/>
     </g>
     <g id="line2d_2">
      <defs>
       <path id="m631c141cd6" d="M 0 0 
L 0 3.5 
" style="stroke: #000000; stroke-width: 0.8"/>
      </defs>
      <g>
       <use xlink:href="#m631c141cd6" x="75.111403" y="303.64" style="stroke: #000000; stroke-width: 0.8"/>
      </g>
     </g>
     <g id="text_1">
      <!-- 0.00 -->
      <g transform="translate(63.978591 318.238437) scale(0.1 -0.1)">
       <defs>
        <path id="DejaVuSans-30" d="M 2034 4250 
Q 1547 4250 1301 3770 
Q 1056 3291 1056 2328 
Q 1056 1369 1301 889 
Q 1547 409 2034 409 
Q 2525 409 2770 889 
Q 3016 1369 3016 2328 
Q 3016 3291 2770 3770 
Q 2525 4250 2034 4250 
z
M 2034 4750 
Q 2819 4750 3233 4129 
Q 3647 3509 3647 2328 
Q 3647 1150 3233 529 
Q 2819 -91 2034 -91 
Q 1250 -91 836 529 
Q 422 1150 422 2328 
Q 422 3509 836 4129 
Q 1250 4750 2034 4750 
z
" transform="scale(0.015625)"/>
        <path id="DejaVuSans-2e" d="M 684 794 
L 1344 794 
L 1344 0 
L 684 0 
L 684 794 
z
" transform="scale(0.015625)"/>
       </defs>
       <use xlink:href="#DejaVuSans-30"/>
       <use xlink:href="#DejaVuSans-2e" transform="translate(63.623047 0)"/>
       <use xlink:href="#DejaVuSans-30" transform="translate(95.410156 0)"/>
       <use xlink:href="#DejaVuSans-30" transform="translate(159.033203 0)"/>
      </g>
     </g>
    </g>
    <g id="xtick_2">
     <g id="line2d_3">
      <path d="M 123.298087 303.64 
L 123.298087 26.88 
" clip-path="url(#p183bfee8de)" style="fill: none; stroke: #b0b0b0; stroke-opacity: 0.3; stroke-width: 0.8; stroke-linecap: square"/>
     </g>
     <g id="line2d_4">
      <g>
       <use xlink:href="#m631c141cd6" x="123.298087" y="303.64" style="stroke: #000000; stroke-width: 0.8"/>
      </g>
     </g>
     <g id="text_2">
      <!-- 0.05 -->
      <g transform="translate(112.165274 318.238437) scale(0.1 -0.1)">
       <defs>
        <path id="DejaVuSans-35" d="M 691 4666 
L 3169 4666 
L 3169 4134 
L 1269 4134 
L 1269 2991 
Q 1406 3038 1543 3061 
Q 1681 3084 1819 3084 
Q 2600 3084 3056 2656 
Q 3513 2228 3513 1497 
Q 3513 744 3044 326 
Q 2575 -91 1722 -91 
Q 1428 -91 1123 -41 
Q 819 9 494 109 
L 494 744 
Q 775 591 1075 516 
Q 1375 441 1709 441 
Q 2250 441 2565 725 
Q 2881 1009 2881 1497 
Q 2881 1984 2565 2268 
Q 2250 2553 1709 2553 
Q 1456 2553 1204 2497 
Q 953 2441 691 2322 
L 691 4666 
z
" transform="scale(0.015625)"/>
       </defs>
       <use xlink:href="#DejaVuSans-30"/>
       <use xlink:href="#DejaVuSans-2e" transform="translate(63.623047 0)"/>
       <use xlink:href="#DejaVuSans-30" transform="translate(95.410156 0)"/>
       <use xlink:href="#DejaVuSans-35" transform="translate(159.033203 0)"/>
      </g>
     </g>
    </g>
    <g id="xtick_3">
     <g id="line2d_5">
      <path d="M 171.48477 303.64 
L 171.48477 26.88 
" clip-path="url(#p183bfee8de)" style="fill: none; stroke: #b0b0b0; stroke-opacity: 0.3; stroke-width: 0.8; stroke-linecap: square"/>
     </g>
     <g id="line2d_6">
      <g>
       <use xlink:href="#m631c141cd6" x="171.48477" y="303.64" style="stroke: #000000; stroke-width: 0.8"/>
      </g>
     </g>
     <g id="text_3">
      <!-- 0.10 -->
      <g transform="translate(160.351958 318.238437) scale(0.1 -0.1)">
       <defs>
        <path id="DejaVuSans-31" d="M 794 531 
L 1825 531 
L 1825 4091 
L 703 3866 
L 703 4441 
L 1819 4666 
L 2450 4666 
L 2450 531 
L 3481 531 
L 3481 0 
L 794 0 
L 794 531 
z
" transform="scale(0.015625)"/>
       </defs>
       <use xlink:href="#DejaVuSans-30"/>
       <use xlink:href="#DejaVuSans-2e" transform="translate(63.623047 0)"/>
       <use xlink:href="#DejaVuSans-31" transform="translate(95.410156 0)"/>
       <use xlink:href="#DejaVuSans-30" transform="translate(159.033203 0)"/>
      </g>
     </g>
    </g>
    <g id="xtick_4">
     <g id="line2d_7">
      <path d="M 219.671454 303.64 
L 219.671454 26.88 
" clip-path="url(#p183bfee8de)" style="fill: none; stroke: #b0b0b0; stroke-opacity: 0.3; stroke-width: 0.8; stroke-linecap: square"/>
     </g>
     <g id="line2d_8">
      <g>
       <use xlink:href="#m631c141cd6" x="219.671454" y="303.64" style="stroke: #000000; stroke-width: 0.8"/>
      </g>
     </g>
     <g id="text_4">
      <!-- 0.15 -->
      <g transform="translate(208.538641 318.238437) scale(0.1 -0.1)">
       <use xlink:href="#DejaVuSans-30"/>
       <use xlink:href="#DejaVuSans-2e" transform="translate(63.623047 0)"/>
       <use xlink:href="#DejaVuSans-31" transform="translate(95.410156 0)"/>
       <use xlink:href="#DejaVuSans-35" transform="translate(159.033203 0)"/>
      </g>
     </g>
    </g>
    <g id="xtick_5">
     <g id="line2d_9">
      <path d="M 267.858137 303.64 
L 267.858137 26.88 
" clip-path="url(#p183bfee8de)" style="fill: none; stroke: #b0b0b0; stroke-opacity: 0.3; stroke-width: 0.8; stroke-linecap: square"/>
     </g>
     <g id="line2d_10">
      <g>
       <use xlink:href="#m631c141cd6" x="267.858137" y="303.64" style="stroke: #000000; stroke-width: 0.8"/>
      </g>
     </g>
     <g id="text_5">
      <!-- 0.20 -->
      <g transform="translate(256.725324 318.238437) scale(0.1 -0.1)">
       <defs>
        <path id="DejaVuSans-32" d="M 1228 531 
L 3431 531 
L 3431 0 
L 469 0 
L 469 531 
Q 828 903 1448 1529 
Q 2069 2156 2228 2338 
Q 2531 2678 2651 2914 
Q 2772 3150 2772 3378 
Q 2772 3750 2511 3984 
Q 2250 4219 1831 4219 
Q 1534 4219 1204 4116 
Q 875 4013 500 3803 
L 500 4441 
Q 881 4594 1212 4672 
Q 1544 4750 1819 4750 
Q 2544 4750 2975 4387 
Q 3406 4025 3406 3419 
Q 3406 3131 3298 2873 
Q 3191 2616 2906 2266 
Q 2828 2175 2409 1742 
Q 1991 1309 1228 531 
z
" transform="scale(0.015625)"/>
       </defs>
       <use xlink:href="#DejaVuSans-30"/>
       <use xlink:href="#DejaVuSans-2e" transform="translate(63.623047 0)"/>
       <use xlink:href="#DejaVuSans-32" transform="translate(95.410156 0)"/>
       <use xlink:href="#DejaVuSans-30" transform="translate(159.033203 0)"/>
      </g>
     </g>
    </g>
    <g id="xtick_6">
     <g id="line2d_11">
      <path d="M 316.04482 303.64 
L 316.04482 26.88 
" clip-path="url(#p183bfee8de)" style="fill: none; stroke: #b0b0b0; stroke-opacity: 0.3; stroke-width: 0.8; stroke-linecap: square"/>
     </g>
     <g id="line2d_12">
      <g>
       <use xlink:href="#m631c141cd6" x="316.04482" y="303.64" style="stroke: #000000; stroke-width: 0.8"/>
      </g>
     </g>
     <g id="text_6">
      <!-- 0.25 -->
      <g transform="translate(304.912008 318.238437) scale(0.1 -0.1)">
       <use xlink:href="#DejaVuSans-30"/>
       <use xlink:href="#DejaVuSans-2e" transform="translate(63.623047 0)"/>
       <use xlink:href="#DejaVuSans-32" transform="translate(95.410156 0)"/>
       <use xlink:href="#DejaVuSans-35" transform="translate(159.033203 0)"/>
      </g>
     </g>
    </g>
    <g id="xtick_7">
     <g id="line2d_13">
      <path d="M 364.231504 303.64 
L 364.231504 26.88 
" clip-path="url(#p183bfee8de)" style="fill: none; stroke: #b0b0b0; stroke-opacity: 0.3; stroke-width: 0.8; stroke-linecap: square"/>
     </g>
     <g id="line2d_14">
      <g>
       <use xlink:href="#m631c141cd6" x="364.231504" y="303.64" style="stroke: #000000; stroke-width: 0.8"/>
      </g>
     </g>
     <g id="text_7">
      <!-- 0.30 -->
      <g transform="translate(353.098691 318.238437) scale(0.1 -0.1)">
       <defs>
        <path id="DejaVuSans-33" d="M 2597 2516 
Q 3050 2419 3304 2112 
Q 3559 1806 3559 1356 
Q 3559 666 3084 287 
Q 2609 -91 1734 -91 
Q 1441 -91 1130 -33 
Q 819 25 488 141 
L 488 750 
Q 750 597 1062 519 
Q 1375 441 1716 441 
Q 2309 441 2620 675 
Q 2931 909 2931 1356 
Q 2931 1769 2642 2001 
Q 2353 2234 1838 2234 
L 1294 2234 
L 1294 2753 
L 1863 2753 
Q 2328 2753 2575 2939 
Q 2822 3125 2822 3475 
Q 2822 3834 2567 4026 
Q 2313 4219 1838 4219 
Q 1578 4219 1281 4162 
Q 984 4106 628 3988 
L 628 4550 
Q 988 4650 1302 4700 
Q 1616 4750 1894 4750 
Q 2613 4750 3031 4423 
Q 3450 4097 3450 3541 
Q 3450 3153 3228 2886 
Q 3006 2619 2597 2516 
z
" transform="scale(0.015625)"/>
       </defs>
       <use xlink:href="#DejaVuSans-30"/>
       <use xlink:href="#DejaVuSans-2e" transform="translate(63.623047 0)"/>
       <use xlink:href="#DejaVuSans-33" transform="translate(95.410156 0)"/>
       <use xlink:href="#DejaVuSans-30" transform="translate(159.033203 0)"/>
      </g>
     </g>
    </g>
    <g id="xtick_8">
     <g id="line2d_15">
      <path d="M 412.418187 303.64 
L 412.418187 26.88 
" clip-path="url(#p183bfee8de)" style="fill: none; stroke: #b0b0b0; stroke-opacity: 0.3; stroke-width: 0.8; stroke-linecap: square"/>
     </g>
     <g id="line2d_16">
      <g>
       <use xlink:href="#m631c141cd6" x="412.418187" y="303.64" style="stroke: #000000; stroke-width: 0.8"/>
      </g>
     </g>
     <g id="text_8">
      <!-- 0.35 -->
      <g transform="translate(401.285375 318.238437) scale(0.1 -0.1)">
       <use xlink:href="#DejaVuSans-30"/>
       <use xlink:href="#DejaVuSans-2e" transform="translate(63.623047 0)"/>
       <use xlink:href="#DejaVuSans-33" transform="translate(95.410156 0)"/>
       <use xlink:href="#DejaVuSans-35" transform="translate(159.033203 0)"/>
      </g>
     </g>
    </g>
    <g id="text_9">
     <!-- Strain [-] -->
     <g transform="translate(231.47875 331.916562) scale(0.1 -0.1)">
      <defs>
       <path id="DejaVuSans-53" d="M 3425 4513 
L 3425 3897 
Q 3066 4069 2747 4153 
Q 2428 4238 2131 4238 
Q 1616 4238 1336 4038 
Q 1056 3838 1056 3469 
Q 1056 3159 1242 3001 
Q 1428 2844 1947 2747 
L 2328 2669 
Q 3034 2534 3370 2195 
Q 3706 1856 3706 1288 
Q 3706 609 3251 259 
Q 2797 -91 1919 -91 
Q 1588 -91 1214 -16 
Q 841 59 441 206 
L 441 856 
Q 825 641 1194 531 
Q 1563 422 1919 422 
Q 2459 422 2753 634 
Q 3047 847 3047 1241 
Q 3047 1584 2836 1778 
Q 2625 1972 2144 2069 
L 1759 2144 
Q 1053 2284 737 2584 
Q 422 2884 422 3419 
Q 422 4038 858 4394 
Q 1294 4750 2059 4750 
Q 2388 4750 2728 4690 
Q 3069 4631 3425 4513 
z
" transform="scale(0.015625)"/>
       <path id="DejaVuSans-74" d="M 1172 4494 
L 1172 3500 
L 2356 3500 
L 2356 3053 
L 1172 3053 
L 1172 1153 
Q 1172 725 1289 603 
Q 1406 481 1766 481 
L 2356 481 
L 2356 0 
L 1766 0 
Q 1100 0 847 248 
Q 594 497 594 1153 
L 594 3053 
L 172 3053 
L 172 3500 
L 594 3500 
L 594 4494 
L 1172 4494 
z
" transform="scale(0.015625)"/>
       <path id="DejaVuSans-72" d="M 2631 2963 
Q 2534 3019 2420 3045 
Q 2306 3072 2169 3072 
Q 1681 3072 1420 2755 
Q 1159 2438 1159 1844 
L 1159 0 
L 581 0 
L 581 3500 
L 1159 3500 
L 1159 2956 
Q 1341 3275 1631 3429 
Q 1922 3584 2338 3584 
Q 2397 3584 2469 3576 
Q 2541 3569 2628 3553 
L 2631 2963 
z
" transform="scale(0.015625)"/>
       <path id="DejaVuSans-61" d="M 2194 1759 
Q 1497 1759 1228 1600 
Q 959 1441 959 1056 
Q 959 750 1161 570 
Q 1363 391 1709 391 
Q 2188 391 2477 730 
Q 2766 1069 2766 1631 
L 2766 1759 
L 2194 1759 
z
M 3341 1997 
L 3341 0 
L 2766 0 
L 2766 531 
Q 2569 213 2275 61 
Q 1981 -91 1556 -91 
Q 1019 -91 701 211 
Q 384 513 384 1019 
Q 384 1609 779 1909 
Q 1175 2209 1959 2209 
L 2766 2209 
L 2766 2266 
Q 2766 2663 2505 2880 
Q 2244 3097 1772 3097 
Q 1472 3097 1187 3025 
Q 903 2953 641 2809 
L 641 3341 
Q 956 3463 1253 3523 
Q 1550 3584 1831 3584 
Q 2591 3584 2966 3190 
Q 3341 2797 3341 1997 
z
" transform="scale(0.015625)"/>
       <path id="DejaVuSans-69" d="M 603 3500 
L 1178 3500 
L 1178 0 
L 603 0 
L 603 3500 
z
M 603 4863 
L 1178 4863 
L 1178 4134 
L 603 4134 
L 603 4863 
z
" transform="scale(0.015625)"/>
       <path id="DejaVuSans-6e" d="M 3513 2113 
L 3513 0 
L 2938 0 
L 2938 2094 
Q 2938 2591 2744 2837 
Q 2550 3084 2163 3084 
Q 1697 3084 1428 2787 
Q 1159 2491 1159 1978 
L 1159 0 
L 581 0 
L 581 3500 
L 1159 3500 
L 1159 2956 
Q 1366 3272 1645 3428 
Q 1925 3584 2291 3584 
Q 2894 3584 3203 3211 
Q 3513 2838 3513 2113 
z
" transform="scale(0.015625)"/>
       <path id="DejaVuSans-20" transform="scale(0.015625)"/>
       <path id="DejaVuSans-5b" d="M 550 4863 
L 1875 4863 
L 1875 4416 
L 1125 4416 
L 1125 -397 
L 1875 -397 
L 1875 -844 
L 550 -844 
L 550 4863 
z
" transform="scale(0.015625)"/>
       <path id="DejaVuSans-2d" d="M 313 2009 
L 1997 2009 
L 1997 1497 
L 313 1497 
L 313 2009 
z
" transform="scale(0.015625)"/>
       <path id="DejaVuSans-5d" d="M 1947 4863 
L 1947 -844 
L 622 -844 
L 622 -397 
L 1369 -397 
L 1369 4416 
L 622 4416 
L 622 4863 
L 1947 4863 
z
" transform="scale(0.015625)"/>
      </defs>
      <use xlink:href="#DejaVuSans-53"/>
      <use xlink:href="#DejaVuSans-74" transform="translate(63.476562 0)"/>
      <use xlink:href="#DejaVuSans-72" transform="translate(102.685547 0)"/>
      <use xlink:href="#DejaVuSans-61" transform="translate(143.798828 0)"/>
      <use xlink:href="#DejaVuSans-69" transform="translate(205.078125 0)"/>
      <use xlink:href="#DejaVuSans-6e" transform="translate(232.861328 0)"/>
      <use xlink:href="#DejaVuSans-20" transform="translate(296.240234 0)"/>
      <use xlink:href="#DejaVuSans-5b" transform="translate(328.027344 0)"/>
      <use xlink:href="#DejaVuSans-2d" transform="translate(367.041016 0)"/>
      <use xlink:href="#DejaVuSans-5d" transform="translate(403.125 0)"/>
     </g>
    </g>
   </g>
   <g id="matplotlib.axis_2">
    <g id="ytick_1">
     <g id="line2d_17">
      <path d="M 57.17 279.525145 
L 450 279.525145 
" clip-path="url(#p183bfee8de)" style="fill: none; stroke: #b0b0b0; stroke-opacity: 0.3; stroke-width: 0.8; stroke-linecap: square"/>
     </g>
     <g id="line2d_18">
      <defs>
       <path id="m2362566877" d="M 0 0 
L -3.5 0 
" style="stroke: #000000; stroke-width: 0.8"/>
      </defs>
      <g>
       <use xlink:href="#m2362566877" x="57.17" y="279.525145" style="stroke: #000000; stroke-width: 0.8"/>
      </g>
     </g>
     <g id="text_10">
      <!-- 0 -->
      <g transform="translate(43.8075 283.324363) scale(0.1 -0.1)">
       <use xlink:href="#DejaVuSans-30"/>
      </g>
     </g>
    </g>
    <g id="ytick_2">
     <g id="line2d_19">
      <path d="M 57.17 244.272567 
L 450 244.272567 
" clip-path="url(#p183bfee8de)" style="fill: none; stroke: #b0b0b0; stroke-opacity: 0.3; stroke-width: 0.8; stroke-linecap: square"/>
     </g>
     <g id="line2d_20">
      <g>
       <use xlink:href="#m2362566877" x="57.17" y="244.272567" style="stroke: #000000; stroke-width: 0.8"/>
      </g>
     </g>
     <g id="text_11">
      <!-- 500 -->
      <g transform="translate(31.0825 248.071785) scale(0.1 -0.1)">
       <use xlink:href="#DejaVuSans-35"/>
       <use xlink:href="#DejaVuSans-30" transform="translate(63.623047 0)"/>
       <use xlink:href="#DejaVuSans-30" transform="translate(127.246094 0)"/>
      </g>
     </g>
    </g>
    <g id="ytick_3">
     <g id="line2d_21">
      <path d="M 57.17 209.019989 
L 450 209.019989 
" clip-path="url(#p183bfee8de)" style="fill: none; stroke: #b0b0b0; stroke-opacity: 0.3; stroke-width: 0.8; stroke-linecap: square"/>
     </g>
     <g id="line2d_22">
      <g>
       <use xlink:href="#m2362566877" x="57.17" y="209.019989" style="stroke: #000000; stroke-width: 0.8"/>
      </g>
     </g>
     <g id="text_12">
      <!-- 1000 -->
      <g transform="translate(24.72 212.819208) scale(0.1 -0.1)">
       <use xlink:href="#DejaVuSans-31"/>
       <use xlink:href="#DejaVuSans-30" transform="translate(63.623047 0)"/>
       <use xlink:href="#DejaVuSans-30" transform="translate(127.246094 0)"/>
       <use xlink:href="#DejaVuSans-30" transform="translate(190.869141 0)"/>
      </g>
     </g>
    </g>
    <g id="ytick_4">
     <g id="line2d_23">
      <path d="M 57.17 173.767411 
L 450 173.767411 
" clip-path="url(#p183bfee8de)" style="fill: none; stroke: #b0b0b0; stroke-opacity: 0.3; stroke-width: 0.8; stroke-linecap: square"/>
     </g>
     <g id="line2d_24">
      <g>
       <use xlink:href="#m2362566877" x="57.17" y="173.767411" style="stroke: #000000; stroke-width: 0.8"/>
      </g>
     </g>
     <g id="text_13">
      <!-- 1500 -->
      <g transform="translate(24.72 177.56663) scale(0.1 -0.1)">
       <use xlink:href="#DejaVuSans-31"/>
       <use xlink:href="#DejaVuSans-35" transform="translate(63.623047 0)"/>
       <use xlink:href="#DejaVuSans-30" transform="translate(127.246094 0)"/>
       <use xlink:href="#DejaVuSans-30" transform="translate(190.869141 0)"/>
      </g>
     </g>
    </g>
    <g id="ytick_5">
     <g id="line2d_25">
      <path d="M 57.17 138.514833 
L 450 138.514833 
" clip-path="url(#p183bfee8de)" style="fill: none; stroke: #b0b0b0; stroke-opacity: 0.3; stroke-width: 0.8; stroke-linecap: square"/>
     </g>
     <g id="line2d_26">
      <g>
       <use xlink:href="#m2362566877" x="57.17" y="138.514833" style="stroke: #000000; stroke-width: 0.8"/>
      </g>
     </g>
     <g id="text_14">
      <!-- 2000 -->
      <g transform="translate(24.72 142.314052) scale(0.1 -0.1)">
       <use xlink:href="#DejaVuSans-32"/>
       <use xlink:href="#DejaVuSans-30" transform="translate(63.623047 0)"/>
       <use xlink:href="#DejaVuSans-30" transform="translate(127.246094 0)"/>
       <use xlink:href="#DejaVuSans-30" transform="translate(190.869141 0)"/>
      </g>
     </g>
    </g>
    <g id="ytick_6">
     <g id="line2d_27">
      <path d="M 57.17 103.262255 
L 450 103.262255 
" clip-path="url(#p183bfee8de)" style="fill: none; stroke: #b0b0b0; stroke-opacity: 0.3; stroke-width: 0.8; stroke-linecap: square"/>
     </g>
     <g id="line2d_28">
      <g>
       <use xlink:href="#m2362566877" x="57.17" y="103.262255" style="stroke: #000000; stroke-width: 0.8"/>
      </g>
     </g>
     <g id="text_15">
      <!-- 2500 -->
      <g transform="translate(24.72 107.061474) scale(0.1 -0.1)">
       <use xlink:href="#DejaVuSans-32"/>
       <use xlink:href="#DejaVuSans-35" transform="translate(63.623047 0)"/>
       <use xlink:href="#DejaVuSans-30" transform="translate(127.246094 0)"/>
       <use xlink:href="#DejaVuSans-30" transform="translate(190.869141 0)"/>
      </g>
     </g>
    </g>
    <g id="ytick_7">
     <g id="line2d_29">
      <path d="M 57.17 68.009677 
L 450 68.009677 
" clip-path="url(#p183bfee8de)" style="fill: none; stroke: #b0b0b0; stroke-opacity: 0.3; stroke-width: 0.8; stroke-linecap: square"/>
     </g>
     <g id="line2d_30">
      <g>
       <use xlink:href="#m2362566877" x="57.17" y="68.009677" style="stroke: #000000; stroke-width: 0.8"/>
      </g>
     </g>
     <g id="text_16">
      <!-- 3000 -->
      <g transform="translate(24.72 71.808896) scale(0.1 -0.1)">
       <use xlink:href="#DejaVuSans-33"/>
       <use xlink:href="#DejaVuSans-30" transform="translate(63.623047 0)"/>
       <use xlink:href="#DejaVuSans-30" transform="translate(127.246094 0)"/>
       <use xlink:href="#DejaVuSans-30" transform="translate(190.869141 0)"/>
      </g>
     </g>
    </g>
    <g id="ytick_8">
     <g id="line2d_31">
      <path d="M 57.17 32.757099 
L 450 32.757099 
" clip-path="url(#p183bfee8de)" style="fill: none; stroke: #b0b0b0; stroke-opacity: 0.3; stroke-width: 0.8; stroke-linecap: square"/>
     </g>
     <g id="line2d_32">
      <g>
       <use xlink:href="#m2362566877" x="57.17" y="32.757099" style="stroke: #000000; stroke-width: 0.8"/>
      </g>
     </g>
     <g id="text_17">
      <!-- 3500 -->
      <g transform="translate(24.72 36.556318) scale(0.1 -0.1)">
       <use xlink:href="#DejaVuSans-33"/>
       <use xlink:href="#DejaVuSans-35" transform="translate(63.623047 0)"/>
       <use xlink:href="#DejaVuSans-30" transform="translate(127.246094 0)"/>
       <use xlink:href="#DejaVuSans-30" transform="translate(190.869141 0)"/>
      </g>
     </g>
    </g>
    <g id="text_18">
     <!-- Stress [Pa] -->
     <g transform="translate(18.640312 191.967812) rotate(-90) scale(0.1 -0.1)">
      <defs>
       <path id="DejaVuSans-65" d="M 3597 1894 
L 3597 1613 
L 953 1613 
Q 991 1019 1311 708 
Q 1631 397 2203 397 
Q 2534 397 2845 478 
Q 3156 559 3463 722 
L 3463 178 
Q 3153 47 2828 -22 
Q 2503 -91 2169 -91 
Q 1331 -91 842 396 
Q 353 884 353 1716 
Q 353 2575 817 3079 
Q 1281 3584 2069 3584 
Q 2775 3584 3186 3129 
Q 3597 2675 3597 1894 
z
M 3022 2063 
Q 3016 2534 2758 2815 
Q 2500 3097 2075 3097 
Q 1594 3097 1305 2825 
Q 1016 2553 972 2059 
L 3022 2063 
z
" transform="scale(0.015625)"/>
       <path id="DejaVuSans-73" d="M 2834 3397 
L 2834 2853 
Q 2591 2978 2328 3040 
Q 2066 3103 1784 3103 
Q 1356 3103 1142 2972 
Q 928 2841 928 2578 
Q 928 2378 1081 2264 
Q 1234 2150 1697 2047 
L 1894 2003 
Q 2506 1872 2764 1633 
Q 3022 1394 3022 966 
Q 3022 478 2636 193 
Q 2250 -91 1575 -91 
Q 1294 -91 989 -36 
Q 684 19 347 128 
L 347 722 
Q 666 556 975 473 
Q 1284 391 1588 391 
Q 1994 391 2212 530 
Q 2431 669 2431 922 
Q 2431 1156 2273 1281 
Q 2116 1406 1581 1522 
L 1381 1569 
Q 847 1681 609 1914 
Q 372 2147 372 2553 
Q 372 3047 722 3315 
Q 1072 3584 1716 3584 
Q 2034 3584 2315 3537 
Q 2597 3491 2834 3397 
z
" transform="scale(0.015625)"/>
       <path id="DejaVuSans-50" d="M 1259 4147 
L 1259 2394 
L 2053 2394 
Q 2494 2394 2734 2622 
Q 2975 2850 2975 3272 
Q 2975 3691 2734 3919 
Q 2494 4147 2053 4147 
L 1259 4147 
z
M 628 4666 
L 2053 4666 
Q 2838 4666 3239 4311 
Q 3641 3956 3641 3272 
Q 3641 2581 3239 2228 
Q 2838 1875 2053 1875 
L 1259 1875 
L 1259 0 
L 628 0 
L 628 4666 
z
" transform="scale(0.015625)"/>
      </defs>
      <use xlink:href="#DejaVuSans-53"/>
      <use xlink:href="#DejaVuSans-74" transform="translate(63.476562 0)"/>
      <use xlink:href="#DejaVuSans-72" transform="translate(102.685547 0)"/>
      <use xlink:href="#DejaVuSans-65" transform="translate(141.548828 0)"/>
      <use xlink:href="#DejaVuSans-73" transform="translate(203.072266 0)"/>
      <use xlink:href="#DejaVuSans-73" transform="translate(255.171875 0)"/>
      <use xlink:href="#DejaVuSans-20" transform="translate(307.271484 0)"/>
      <use xlink:href="#DejaVuSans-5b" transform="translate(339.058594 0)"/>
      <use xlink:href="#DejaVuSans-50" transform="translate(378.072266 0)"/>
      <use xlink:href="#DejaVuSans-61" transform="translate(433.875 0)"/>
      <use xlink:href="#DejaVuSans-5d" transform="translate(495.154297 0)"/>
     </g>
    </g>
   </g>
   <g id="line2d_33">
    <path d="M 75.111403 280.128074 
L 75.111313 280.050776 
L 75.111667 280.159502 
L 75.111453 280.157594 
L 75.864959 275.760691 
L 77.490683 273.603907 
L 77.895899 273.480763 
L 78.701428 273.649829 
L 80.341353 274.293078 
L 81.761787 274.557582 
L 85.22246 275.025636 
L 86.421768 275.799288 
L 90.173281 278.507619 
L 91.008766 278.727469 
L 92.669932 279.010739 
L 95.503176 279.843874 
L 96.285285 279.73662 
L 97.434486 279.245965 
L 101.849376 276.813234 
L 107.22611 274.467074 
L 111.530982 273.107704 
L 120.910854 269.583258 
L 124.545813 268.267172 
L 134.383187 264.370968 
L 136.933214 263.371576 
L 144.883938 260.042733 
L 152.166928 257.14236 
L 158.4652 254.238698 
L 160.555547 253.388338 
L 165.249653 250.969449 
L 167.348714 250.034163 
L 174.230845 247.200634 
L 178.141395 245.226506 
L 187.489677 241.182639 
L 191.100672 239.493974 
L 195.091829 237.897631 
L 198.355341 236.389229 
L 203.443412 233.897323 
L 206.724352 232.493572 
L 210.351686 230.799975 
L 215.380936 228.368888 
L 223.673697 224.337349 
L 226.809762 222.603755 
L 231.002437 220.336494 
L 238.912858 216.250164 
L 243.686125 213.819625 
L 249.542145 210.634063 
L 258.851452 205.444918 
L 263.528861 202.657688 
L 281.62305 192.164071 
L 286.995426 188.47443 
L 289.496435 186.882745 
L 291.632531 185.535428 
L 297.466766 181.525806 
L 300.643134 179.283749 
L 304.348897 176.87677 
L 306.456673 175.367272 
L 311.201618 171.682014 
L 318.117517 166.645604 
L 321.503029 163.833718 
L 323.655465 162.107246 
L 329.774005 157.401775 
L 341.258384 147.576612 
L 347.389655 141.887758 
L 353.925392 135.931951 
L 358.622408 131.409483 
L 362.915281 127.211379 
L 367.151528 122.675761 
L 378.200192 110.727985 
L 390.901308 95.723954 
L 401.594864 82.033817 
L 405.885575 76.03089 
L 417.075847 60.476756 
L 419.710838 57.353655 
L 426.1017 50.071353 
L 428.499771 47.395897 
L 430.120055 45.255889 
L 431.595702 42.93548 
L 431.985906 44.348974 
L 432.144091 49.954528 
L 432.049833 88.028235 
L 432.049663 91.241021 
L 431.690266 91.433887 
L 431.333149 92.125968 
L 430.967692 93.089335 
L 430.234737 93.760596 
L 427.995838 97.149708 
L 427.252126 98.930149 
L 426.113001 100.493343 
L 425.014589 102.418159 
L 424.656485 103.459192 
L 423.929554 104.67667 
L 422.821066 106.27493 
L 420.26852 110.583028 
L 413.356331 121.14801 
L 407.5319 129.182733 
L 405.339228 132.129337 
L 401.355288 137.197671 
L 399.859013 138.985304 
L 396.95398 142.529731 
L 396.227151 143.277563 
L 394.022293 145.985003 
L 385.985549 154.729384 
L 384.138182 156.702827 
L 382.682891 158.237119 
L 375.052554 165.774209 
L 373.57786 167.139196 
L 372.491294 168.167421 
L 371.026063 169.667468 
L 369.937591 170.659669 
L 364.113023 175.840865 
L 363.380408 176.466718 
L 362.267903 177.476657 
L 361.173371 178.335552 
L 360.43114 179.016813 
L 359.710575 179.563116 
L 358.610324 180.405599 
L 357.508576 181.363213 
L 356.773033 181.891195 
L 352.754933 185.225575 
L 347.982756 188.942544 
L 346.535362 190.086379 
L 345.448115 190.960026 
L 336.221475 197.477357 
L 333.321072 199.383201 
L 332.234233 200.051106 
L 331.158696 200.780138 
L 328.222856 202.841795 
L 326.35949 203.800333 
L 325.250032 204.597143 
L 323.409133 205.749763 
L 321.604452 206.758949 
L 315.742202 210.373089 
L 313.587996 211.627946 
L 311.725992 212.749967 
L 309.531482 213.831169 
L 308.424491 214.62393 
L 306.598757 215.584604 
L 305.495034 216.218881 
L 304.03702 216.946714 
L 303.309239 217.521474 
L 301.483181 218.337932 
L 300.742464 218.869955 
L 299.996028 219.18384 
L 294.86653 221.921433 
L 293.384688 222.62098 
L 290.06181 224.435661 
L 288.97184 224.90416 
L 287.146871 225.720755 
L 286.40275 226.144634 
L 283.852043 227.407161 
L 282.764795 227.891567 
L 281.299633 228.62758 
L 278.742866 229.820505 
L 277.292205 230.417267 
L 274.730196 231.687653 
L 273.286887 232.322375 
L 270.377803 233.629595 
L 267.843367 234.716773 
L 266.388961 235.410927 
L 253.645533 240.804203 
L 252.91959 241.089118 
L 252.193987 241.34102 
L 250.717318 242.078305 
L 249.988311 242.242036 
L 247.419222 243.287487 
L 244.852294 244.294878 
L 243.750206 244.821319 
L 242.294234 245.319893 
L 241.554334 245.69172 
L 239.381201 246.398762 
L 238.261956 246.932806 
L 237.543842 247.172346 
L 234.626708 248.237608 
L 233.173732 248.757816 
L 232.450716 249.145498 
L 230.62813 249.681943 
L 228.775385 250.461331 
L 225.509065 251.671368 
L 224.404934 252.007957 
L 223.330078 252.31025 
L 218.95835 254.02424 
L 218.59994 254.182522 
L 217.503017 254.293815 
L 216.408349 254.753804 
L 215.663139 255.041424 
L 214.931681 255.293513 
L 211.311155 256.483159 
L 210.562949 256.830604 
L 209.109471 257.248892 
L 208.383391 257.63589 
L 206.905361 257.919259 
L 206.176559 258.364592 
L 205.444692 258.502747 
L 204.354381 258.840167 
L 203.993146 259.092617 
L 202.53731 259.344798 
L 201.442779 259.813777 
L 199.980314 260.193204 
L 199.610432 260.396274 
L 198.144929 260.76995 
L 196.678677 261.288404 
L 195.950623 261.461555 
L 193.767142 262.188489 
L 193.396648 262.282113 
L 192.672951 262.62699 
L 191.939663 262.723662 
L 191.217464 262.924232 
L 190.859497 263.180758 
L 190.132872 263.294092 
L 189.76442 263.299229 
L 188.309742 263.947478 
L 186.846554 264.317541 
L 186.489267 264.630639 
L 185.387315 264.729888 
L 185.012939 264.743928 
L 183.897779 265.340365 
L 182.447782 265.648731 
L 182.073883 265.974602 
L 180.626898 266.16318 
L 180.266752 266.251296 
L 179.894283 266.660175 
L 179.532639 266.835801 
L 178.792194 266.845815 
L 177.687246 267.175013 
L 177.328733 267.411934 
L 176.600407 267.443737 
L 173.690719 268.264219 
L 173.328667 268.555742 
L 172.224672 268.621058 
L 171.507715 268.846593 
L 171.144164 269.193901 
L 170.402631 269.267991 
L 169.289853 269.399548 
L 168.551247 269.991087 
L 167.450247 270.104814 
L 166.719198 270.18327 
L 165.983928 270.51947 
L 165.252878 270.598699 
L 163.424004 271.181143 
L 162.693226 271.274387 
L 162.323617 271.408103 
L 161.956731 271.663704 
L 161.232489 271.812233 
L 160.136187 272.037763 
L 159.401734 272.242495 
L 157.936163 272.588173 
L 157.574315 272.790053 
L 156.488021 273.006507 
L 152.815166 273.953247 
L 152.073087 274.12317 
L 151.339315 274.675397 
L 150.61875 274.740081 
L 149.876807 274.805584 
L 149.511351 274.906245 
L 149.139563 275.252595 
L 148.395306 275.307303 
L 147.658537 275.381522 
L 147.291855 275.4659 
L 146.923939 275.804837 
L 146.556849 275.980198 
L 145.445497 275.949841 
L 145.072551 275.98912 
L 144.343 276.513571 
L 142.883488 276.664088 
L 142.150532 277.013669 
L 140.675634 277.24115 
L 140.315283 277.517503 
L 139.942883 277.661149 
L 138.460836 277.729842 
L 137.735931 278.258824 
L 136.262258 278.328366 
L 135.902793 278.438907 
L 135.530051 278.735225 
L 133.688608 279.087061 
L 133.326759 279.386255 
L 132.224398 279.364353 
L 131.494506 279.557292 
L 131.134904 279.942543 
L 129.310123 279.999265 
L 128.93888 280.418418 
L 128.577031 280.565025 
L 127.840944 280.474227 
L 127.096483 280.53711 
L 126.359987 281.090952 
L 124.899862 281.11279 
L 123.803152 281.648863 
L 122.724755 281.649829 
L 122.367196 281.742858 
L 121.994795 282.203721 
L 121.62539 282.318429 
L 120.537734 282.161942 
L 120.172146 282.147328 
L 119.426595 282.735807 
L 117.969738 282.649508 
L 117.608503 282.867922 
L 117.234808 283.324607 
L 116.137213 283.291308 
L 115.401057 283.312617 
L 115.032741 283.730297 
L 114.672186 283.931884 
L 113.938278 283.850092 
L 113.195586 283.897922 
L 112.463312 284.491744 
L 111.360248 284.330736 
L 110.636756 284.46985 
L 110.277018 284.93852 
L 109.916055 285.052436 
L 108.44919 284.860474 
L 107.718277 285.485616 
L 107.36099 285.373547 
L 105.896576 285.487828 
L 105.522746 285.983552 
L 103.70976 285.986008 
L 103.340695 286.383107 
L 102.973808 286.503447 
L 102.238191 286.339679 
L 101.519737 286.36744 
L 101.158433 286.594571 
L 100.800465 286.983691 
L 100.43848 287.045595 
L 99.335711 286.944577 
L 98.97536 286.966028 
L 98.247034 287.524367 
L 96.402254 287.583247 
L 96.037615 287.988291 
L 95.676855 288.169671 
L 94.943083 288.042129 
L 93.847053 288.07029 
L 93.477476 288.473062 
L 93.11978 288.612928 
L 92.022456 288.494503 
L 91.300529 288.510182 
L 90.931124 288.946594 
L 90.56628 289.132242 
L 90.19633 288.931586 
L 89.102207 288.859042 
L 88.736138 288.993493 
L 88.375174 289.589348 
L 88.006586 289.717527 
L 86.895647 289.305189 
L 86.531484 289.183878 
L 86.164802 289.284993 
L 85.80663 289.818797 
L 85.44519 290.009421 
L 84.701889 289.713304 
L 83.598642 289.513573 
L 83.2355 290.112852 
L 82.87229 290.435162 
L 81.022949 289.842756 
L 80.291764 290.747188 
L 79.922154 290.803704 
L 79.184977 290.35505 
L 78.44426 290.134168 
L 78.077238 290.181594 
L 77.711441 290.757313 
L 77.337474 291.06 
L 75.865912 290.099249 
L 75.502812 289.76147 
L 75.180961 290.095521 
L 75.124327 290.035045 
L 75.026037 287.431325 
L 75.026037 287.431325 
" clip-path="url(#p183bfee8de)" style="fill: none; stroke: #ff0000; stroke-width: 2; stroke-linecap: square"/>
   </g>
   <g id="line2d_34">
    <path d="M 75.111403 280.128074 
L 75.111313 280.050776 
L 75.111667 280.159502 
L 75.111453 280.157594 
L 75.864959 275.760691 
L 77.490683 273.603907 
L 77.895899 273.480763 
L 78.341418 279.833777 
L 79.903459 279.984864 
L 81.761787 279.692142 
L 84.068902 279.488798 
L 87.243092 279.315032 
L 91.008766 278.727469 
L 92.669932 279.010739 
L 95.503176 279.843874 
L 96.285285 279.73662 
L 97.434486 279.245965 
L 98.559722 278.557239 
L 101.126088 276.183199 
L 102.208842 275.181068 
L 103.287239 274.513882 
L 103.645615 276.002324 
L 107.22611 274.467074 
L 111.530982 273.107704 
L 120.910854 269.583258 
L 124.545813 268.267172 
L 134.383187 264.370968 
L 136.933214 263.371576 
L 144.883938 260.042733 
L 152.166928 257.14236 
L 158.4652 254.238698 
L 160.555547 253.388338 
L 165.249653 250.969449 
L 167.348714 250.034163 
L 174.230845 247.200634 
L 178.141395 245.226506 
L 187.489677 241.182639 
L 191.100672 239.493974 
L 195.091829 237.897631 
L 198.355341 236.389229 
L 203.443412 233.897323 
L 206.724352 232.493572 
L 210.351686 230.799975 
L 215.380936 228.368888 
L 223.673697 224.337349 
L 226.809762 222.603755 
L 231.002437 220.336494 
L 238.912858 216.250164 
L 243.686125 213.819625 
L 249.542145 210.634063 
L 258.851452 205.444918 
L 263.528861 202.657688 
L 281.62305 192.164071 
L 286.995426 188.47443 
L 289.496435 186.882745 
L 291.632531 185.535428 
L 297.466766 181.525806 
L 300.643134 179.283749 
L 304.348897 176.87677 
L 306.456673 175.367272 
L 311.201618 171.682014 
L 318.117517 166.645604 
L 321.503029 163.833718 
L 323.655465 162.107246 
L 329.774005 157.401775 
L 341.258384 147.576612 
L 347.389655 141.887758 
L 353.925392 135.931951 
L 358.622408 131.409483 
L 362.915281 127.211379 
L 367.151528 122.675761 
L 378.200192 110.727985 
L 390.901308 95.723954 
L 402.486992 80.963801 
L 405.527199 76.601058 
L 409.852768 70.50903 
L 417.610688 59.665739 
L 424.048389 51.582423 
L 428.499771 45.075142 
L 430.120055 42.343389 
L 431.595702 39.46 
L 431.985906 40.65337 
L 432.144091 46.158245 
L 432.049323 83.801554 
L 432.049663 91.241021 
L 431.690266 91.433887 
L 431.333149 92.125968 
L 430.967692 93.089335 
L 430.234737 93.760596 
L 427.995838 97.149708 
L 427.252126 98.930149 
L 426.113001 100.493343 
L 425.014589 102.418159 
L 424.656485 103.459192 
L 423.929554 104.67667 
L 422.821066 106.27493 
L 420.26852 110.583028 
L 413.356331 121.14801 
L 407.5319 129.182733 
L 405.339228 132.129337 
L 401.355288 137.197671 
L 399.859013 138.985304 
L 396.95398 142.529731 
L 396.227151 143.277563 
L 394.022293 145.985003 
L 385.985549 154.729384 
L 384.138182 156.702827 
L 382.682891 158.237119 
L 375.052554 165.774209 
L 373.57786 167.139196 
L 372.491294 168.167421 
L 371.026063 169.667468 
L 369.937591 170.659669 
L 364.113023 175.840865 
L 363.380408 176.466718 
L 362.267903 177.476657 
L 361.173371 178.335552 
L 360.43114 179.016813 
L 359.710575 179.563116 
L 358.610324 180.405599 
L 357.508576 181.363213 
L 356.773033 181.891195 
L 352.754933 185.225575 
L 347.982756 188.942544 
L 346.535362 190.086379 
L 345.448115 190.960026 
L 336.221475 197.477357 
L 333.321072 199.383201 
L 332.234233 200.051106 
L 331.158696 200.780138 
L 328.222856 202.841795 
L 326.35949 203.800333 
L 325.250032 204.597143 
L 323.409133 205.749763 
L 321.604452 206.758949 
L 315.742202 210.373089 
L 313.587996 211.627946 
L 311.725992 212.749967 
L 309.531482 213.831169 
L 308.424491 214.62393 
L 306.598757 215.584604 
L 305.495034 216.218881 
L 304.03702 216.946714 
L 303.309239 217.521474 
L 301.483181 218.337932 
L 300.742464 218.869955 
L 299.996028 219.18384 
L 294.86653 221.921433 
L 293.384688 222.62098 
L 290.06181 224.435661 
L 288.97184 224.90416 
L 287.146871 225.720755 
L 286.40275 226.144634 
L 283.852043 227.407161 
L 282.764795 227.891567 
L 281.299633 228.62758 
L 278.742866 229.820505 
L 277.292205 230.417267 
L 274.730196 231.687653 
L 273.286887 232.322375 
L 270.377803 233.629595 
L 267.843367 234.716773 
L 266.388961 235.410927 
L 253.645533 240.804203 
L 252.91959 241.089118 
L 252.193987 241.34102 
L 250.717318 242.078305 
L 249.988311 242.242036 
L 247.419222 243.287487 
L 244.852294 244.294878 
L 243.750206 244.821319 
L 242.294234 245.319893 
L 241.554334 245.69172 
L 239.381201 246.398762 
L 238.261956 246.932806 
L 237.543842 247.172346 
L 234.626708 248.237608 
L 233.173732 248.757816 
L 232.450716 249.145498 
L 230.62813 249.681943 
L 228.775385 250.461331 
L 225.509065 251.671368 
L 224.404934 252.007957 
L 223.330078 252.31025 
L 218.95835 254.02424 
L 218.59994 254.182522 
L 217.503017 254.293815 
L 216.408349 254.753804 
L 215.663139 255.041424 
L 214.931681 255.293513 
L 211.311155 256.483159 
L 210.562949 256.830604 
L 209.109471 257.248892 
L 208.383391 257.63589 
L 206.905361 257.919259 
L 206.176559 258.364592 
L 205.444692 258.502747 
L 204.354381 258.840167 
L 203.993146 259.092617 
L 202.53731 259.344798 
L 201.442779 259.813777 
L 199.980314 260.193204 
L 199.610432 260.396274 
L 198.144929 260.76995 
L 196.678677 261.288404 
L 195.950623 261.461555 
L 193.767142 262.188489 
L 193.396648 262.282113 
L 192.672951 262.62699 
L 191.939663 262.723662 
L 191.217464 262.924232 
L 190.859497 263.180758 
L 190.132872 263.294092 
L 189.76442 263.299229 
L 188.309742 263.947478 
L 186.846554 264.317541 
L 186.489267 264.630639 
L 185.387315 264.729888 
L 185.012939 264.743928 
L 183.897779 265.340365 
L 182.447782 265.648731 
L 182.073883 265.974602 
L 180.626898 266.16318 
L 180.266752 266.251296 
L 179.894283 266.660175 
L 179.532639 266.835801 
L 178.792194 266.845815 
L 177.687246 267.175013 
L 177.328733 267.411934 
L 176.600407 267.443737 
L 173.690719 268.264219 
L 173.328667 268.555742 
L 172.224672 268.621058 
L 171.507715 268.846593 
L 171.144164 269.193901 
L 170.402631 269.267991 
L 169.289853 269.399548 
L 168.551247 269.991087 
L 167.450247 270.104814 
L 166.719198 270.18327 
L 165.983928 270.51947 
L 165.252878 270.598699 
L 163.424004 271.181143 
L 162.693226 271.274387 
L 162.323617 271.408103 
L 161.956731 271.663704 
L 161.232489 271.812233 
L 160.136187 272.037763 
L 159.401734 272.242495 
L 157.936163 272.588173 
L 157.574315 272.790053 
L 156.488021 273.006507 
L 152.815166 273.953247 
L 152.073087 274.12317 
L 151.339315 274.675397 
L 150.61875 274.740081 
L 149.876807 274.805584 
L 149.511351 274.906245 
L 149.139563 275.252595 
L 148.395306 275.307303 
L 147.658537 275.381522 
L 147.291855 275.4659 
L 146.923939 275.804837 
L 146.556849 275.980198 
L 145.445497 275.949841 
L 145.072551 275.98912 
L 144.343 276.513571 
L 142.883488 276.664088 
L 142.150532 277.013669 
L 140.675634 277.24115 
L 140.315283 277.517503 
L 139.942883 277.661149 
L 138.460836 277.729842 
L 137.735931 278.258824 
L 136.262258 278.328366 
L 135.902793 278.438907 
L 135.530051 278.735225 
L 133.688608 279.087061 
L 133.326759 279.386255 
L 132.224398 279.364353 
L 131.494506 279.557292 
L 131.134904 279.942543 
L 129.310123 279.999265 
L 128.93888 280.418418 
L 128.577031 280.565025 
L 127.840944 280.474227 
L 127.096483 280.53711 
L 126.359987 281.090952 
L 124.899862 281.11279 
L 123.803152 281.648863 
L 122.724755 281.649829 
L 122.367196 281.742858 
L 121.994795 282.203721 
L 121.62539 282.318429 
L 120.537734 282.161942 
L 120.172146 282.147328 
L 119.426595 282.735807 
L 117.969738 282.649508 
L 117.608503 282.867922 
L 117.234808 283.324607 
L 116.137213 283.291308 
L 115.401057 283.312617 
L 115.032741 283.730297 
L 114.672186 283.931884 
L 113.938278 283.850092 
L 113.195586 283.897922 
L 112.463312 284.491744 
L 111.360248 284.330736 
L 110.636756 284.46985 
L 110.277018 284.93852 
L 109.916055 285.052436 
L 108.44919 284.860474 
L 107.718277 285.485616 
L 107.36099 285.373547 
L 105.896576 285.487828 
L 105.522746 285.983552 
L 103.70976 285.986008 
L 103.340695 286.383107 
L 102.973808 286.503447 
L 102.238191 286.339679 
L 101.519737 286.36744 
L 101.158433 286.594571 
L 100.800465 286.983691 
L 100.43848 287.045595 
L 99.335711 286.944577 
L 98.97536 286.966028 
L 98.247034 287.524367 
L 96.402254 287.583247 
L 96.037615 287.988291 
L 95.676855 288.169671 
L 94.943083 288.042129 
L 93.847053 288.07029 
L 93.477476 288.473062 
L 93.11978 288.612928 
L 92.022456 288.494503 
L 91.300529 288.510182 
L 90.931124 288.946594 
L 90.56628 289.132242 
L 90.19633 288.931586 
L 89.102207 288.859042 
L 88.736138 288.993493 
L 88.375174 289.589348 
L 88.006586 289.717527 
L 86.895647 289.305189 
L 86.531484 289.183878 
L 86.164802 289.284993 
L 85.80663 289.818797 
L 85.44519 290.009421 
L 84.701889 289.713304 
L 83.598642 289.513573 
L 83.2355 290.112852 
L 82.87229 290.435162 
L 81.022949 289.842756 
L 80.291764 290.747188 
L 79.922154 290.803704 
L 79.184977 290.35505 
L 78.44426 290.134168 
L 78.077238 290.181594 
L 77.711441 290.757313 
L 77.337474 291.06 
L 75.865912 290.099249 
L 75.502812 289.76147 
L 75.180961 290.095521 
L 75.124327 290.035045 
L 75.026037 287.431325 
L 75.026037 287.431325 
" clip-path="url(#p183bfee8de)" style="fill: none; stroke: #000000; stroke-width: 2; stroke-linecap: square"/>
   </g>
   <g id="patch_3">
    <path d="M 57.17 303.64 
L 57.17 26.88 
" style="fill: none; stroke: #000000; stroke-width: 0.8; stroke-linejoin: miter; stroke-linecap: square"/>
   </g>
   <g id="patch_4">
    <path d="M 450 303.64 
L 450 26.88 
" style="fill: none; stroke: #000000; stroke-width: 0.8; stroke-linejoin: miter; stroke-linecap: square"/>
   </g>
   <g id="patch_5">
    <path d="M 57.17 303.64 
L 450 303.64 
" style="fill: none; stroke: #000000; stroke-width: 0.8; stroke-linejoin: miter; stroke-linecap: square"/>
   </g>
   <g id="patch_6">
    <path d="M 57.17 26.88 
L 450 26.88 
" style="fill: none; stroke: #000000; stroke-width: 0.8; stroke-linejoin: miter; stroke-linecap: square"/>
   </g>
   <g id="text_19">
    <!-- 2025-06-16 Trial 29 - Stress vs Strain -->
    <g transform="translate(142.330938 20.88) scale(0.12 -0.12)">
     <defs>
      <path id="DejaVuSans-36" d="M 2113 2584 
Q 1688 2584 1439 2293 
Q 1191 2003 1191 1497 
Q 1191 994 1439 701 
Q 1688 409 2113 409 
Q 2538 409 2786 701 
Q 3034 994 3034 1497 
Q 3034 2003 2786 2293 
Q 2538 2584 2113 2584 
z
M 3366 4563 
L 3366 3988 
Q 3128 4100 2886 4159 
Q 2644 4219 2406 4219 
Q 1781 4219 1451 3797 
Q 1122 3375 1075 2522 
Q 1259 2794 1537 2939 
Q 1816 3084 2150 3084 
Q 2853 3084 3261 2657 
Q 3669 2231 3669 1497 
Q 3669 778 3244 343 
Q 2819 -91 2113 -91 
Q 1303 -91 875 529 
Q 447 1150 447 2328 
Q 447 3434 972 4092 
Q 1497 4750 2381 4750 
Q 2619 4750 2861 4703 
Q 3103 4656 3366 4563 
z
" transform="scale(0.015625)"/>
      <path id="DejaVuSans-54" d="M -19 4666 
L 3928 4666 
L 3928 4134 
L 2272 4134 
L 2272 0 
L 1638 0 
L 1638 4134 
L -19 4134 
L -19 4666 
z
" transform="scale(0.015625)"/>
      <path id="DejaVuSans-6c" d="M 603 4863 
L 1178 4863 
L 1178 0 
L 603 0 
L 603 4863 
z
" transform="scale(0.015625)"/>
      <path id="DejaVuSans-39" d="M 703 97 
L 703 672 
Q 941 559 1184 500 
Q 1428 441 1663 441 
Q 2288 441 2617 861 
Q 2947 1281 2994 2138 
Q 2813 1869 2534 1725 
Q 2256 1581 1919 1581 
Q 1219 1581 811 2004 
Q 403 2428 403 3163 
Q 403 3881 828 4315 
Q 1253 4750 1959 4750 
Q 2769 4750 3195 4129 
Q 3622 3509 3622 2328 
Q 3622 1225 3098 567 
Q 2575 -91 1691 -91 
Q 1453 -91 1209 -44 
Q 966 3 703 97 
z
M 1959 2075 
Q 2384 2075 2632 2365 
Q 2881 2656 2881 3163 
Q 2881 3666 2632 3958 
Q 2384 4250 1959 4250 
Q 1534 4250 1286 3958 
Q 1038 3666 1038 3163 
Q 1038 2656 1286 2365 
Q 1534 2075 1959 2075 
z
" transform="scale(0.015625)"/>
      <path id="DejaVuSans-76" d="M 191 3500 
L 800 3500 
L 1894 563 
L 2988 3500 
L 3597 3500 
L 2284 0 
L 1503 0 
L 191 3500 
z
" transform="scale(0.015625)"/>
     </defs>
     <use xlink:href="#DejaVuSans-32"/>
     <use xlink:href="#DejaVuSans-30" transform="translate(63.623047 0)"/>
     <use xlink:href="#DejaVuSans-32" transform="translate(127.246094 0)"/>
     <use xlink:href="#DejaVuSans-35" transform="translate(190.869141 0)"/>
     <use xlink:href="#DejaVuSans-2d" transform="translate(254.492188 0)"/>
     <use xlink:href="#DejaVuSans-30" transform="translate(290.576172 0)"/>
     <use xlink:href="#DejaVuSans-36" transform="translate(354.199219 0)"/>
     <use xlink:href="#DejaVuSans-2d" transform="translate(417.822266 0)"/>
     <use xlink:href="#DejaVuSans-31" transform="translate(453.90625 0)"/>
     <use xlink:href="#DejaVuSans-36" transform="translate(517.529297 0)"/>
     <use xlink:href="#DejaVuSans-20" transform="translate(581.152344 0)"/>
     <use xlink:href="#DejaVuSans-54" transform="translate(612.939453 0)"/>
     <use xlink:href="#DejaVuSans-72" transform="translate(659.273438 0)"/>
     <use xlink:href="#DejaVuSans-69" transform="translate(700.386719 0)"/>
     <use xlink:href="#DejaVuSans-61" transform="translate(728.169922 0)"/>
     <use xlink:href="#DejaVuSans-6c" transform="translate(789.449219 0)"/>
     <use xlink:href="#DejaVuSans-20" transform="translate(817.232422 0)"/>
     <use xlink:href="#DejaVuSans-32" transform="translate(849.019531 0)"/>
     <use xlink:href="#DejaVuSans-39" transform="translate(912.642578 0)"/>
     <use xlink:href="#DejaVuSans-20" transform="translate(976.265625 0)"/>
     <use xlink:href="#DejaVuSans-2d" transform="translate(1008.052734 0)"/>
     <use xlink:href="#DejaVuSans-20" transform="translate(1044.136719 0)"/>
     <use xlink:href="#DejaVuSans-53" transform="translate(1075.923828 0)"/>
     <use xlink:href="#DejaVuSans-74" transform="translate(1139.400391 0)"/>
     <use xlink:href="#DejaVuSans-72" transform="translate(1178.609375 0)"/>
     <use xlink:href="#DejaVuSans-65" transform="translate(1217.472656 0)"/>
     <use xlink:href="#DejaVuSans-73" transform="translate(1278.996094 0)"/>
     <use xlink:href="#DejaVuSans-73" transform="translate(1331.095703 0)"/>
     <use xlink:href="#DejaVuSans-20" transform="translate(1383.195312 0)"/>
     <use xlink:href="#DejaVuSans-76" transform="translate(1414.982422 0)"/>
     <use xlink:href="#DejaVuSans-73" transform="translate(1474.162109 0)"/>
     <use xlink:href="#DejaVuSans-20" transform="translate(1526.261719 0)"/>
     <use xlink:href="#DejaVuSans-53" transform="translate(1558.048828 0)"/>
     <use xlink:href="#DejaVuSans-74" transform="translate(1621.525391 0)"/>
     <use xlink:href="#DejaVuSans-72" transform="translate(1660.734375 0)"/>
     <use xlink:href="#DejaVuSans-61" transform="translate(1701.847656 0)"/>
     <use xlink:href="#DejaVuSans-69" transform="translate(1763.126953 0)"/>
     <use xlink:href="#DejaVuSans-6e" transform="translate(1790.910156 0)"/>
    </g>
   </g>
   <g id="legend_1">
    <g id="patch_7">
     <path d="M 64.17 64.23625 
L 170.154375 64.23625 
Q 172.154375 64.23625 172.154375 62.23625 
L 172.154375 33.88 
Q 172.154375 31.88 170.154375 31.88 
L 64.17 31.88 
Q 62.17 31.88 62.17 33.88 
L 62.17 62.23625 
Q 62.17 64.23625 64.17 64.23625 
z
" style="fill: #ffffff; opacity: 0.8; stroke: #cccccc; stroke-linejoin: miter"/>
    </g>
    <g id="line2d_35">
     <path d="M 66.17 39.978437 
L 76.17 39.978437 
L 86.17 39.978437 
" style="fill: none; stroke: #ff0000; stroke-width: 2; stroke-linecap: square"/>
    </g>
    <g id="text_20">
     <!-- Raw Force -->
     <g transform="translate(94.17 43.478437) scale(0.1 -0.1)">
      <defs>
       <path id="DejaVuSans-52" d="M 2841 2188 
Q 3044 2119 3236 1894 
Q 3428 1669 3622 1275 
L 4263 0 
L 3584 0 
L 2988 1197 
Q 2756 1666 2539 1819 
Q 2322 1972 1947 1972 
L 1259 1972 
L 1259 0 
L 628 0 
L 628 4666 
L 2053 4666 
Q 2853 4666 3247 4331 
Q 3641 3997 3641 3322 
Q 3641 2881 3436 2590 
Q 3231 2300 2841 2188 
z
M 1259 4147 
L 1259 2491 
L 2053 2491 
Q 2509 2491 2742 2702 
Q 2975 2913 2975 3322 
Q 2975 3731 2742 3939 
Q 2509 4147 2053 4147 
L 1259 4147 
z
" transform="scale(0.015625)"/>
       <path id="DejaVuSans-77" d="M 269 3500 
L 844 3500 
L 1563 769 
L 2278 3500 
L 2956 3500 
L 3675 769 
L 4391 3500 
L 4966 3500 
L 4050 0 
L 3372 0 
L 2619 2869 
L 1863 0 
L 1184 0 
L 269 3500 
z
" transform="scale(0.015625)"/>
       <path id="DejaVuSans-46" d="M 628 4666 
L 3309 4666 
L 3309 4134 
L 1259 4134 
L 1259 2759 
L 3109 2759 
L 3109 2228 
L 1259 2228 
L 1259 0 
L 628 0 
L 628 4666 
z
" transform="scale(0.015625)"/>
       <path id="DejaVuSans-6f" d="M 1959 3097 
Q 1497 3097 1228 2736 
Q 959 2375 959 1747 
Q 959 1119 1226 758 
Q 1494 397 1959 397 
Q 2419 397 2687 759 
Q 2956 1122 2956 1747 
Q 2956 2369 2687 2733 
Q 2419 3097 1959 3097 
z
M 1959 3584 
Q 2709 3584 3137 3096 
Q 3566 2609 3566 1747 
Q 3566 888 3137 398 
Q 2709 -91 1959 -91 
Q 1206 -91 779 398 
Q 353 888 353 1747 
Q 353 2609 779 3096 
Q 1206 3584 1959 3584 
z
" transform="scale(0.015625)"/>
       <path id="DejaVuSans-63" d="M 3122 3366 
L 3122 2828 
Q 2878 2963 2633 3030 
Q 2388 3097 2138 3097 
Q 1578 3097 1268 2742 
Q 959 2388 959 1747 
Q 959 1106 1268 751 
Q 1578 397 2138 397 
Q 2388 397 2633 464 
Q 2878 531 3122 666 
L 3122 134 
Q 2881 22 2623 -34 
Q 2366 -91 2075 -91 
Q 1284 -91 818 406 
Q 353 903 353 1747 
Q 353 2603 823 3093 
Q 1294 3584 2113 3584 
Q 2378 3584 2631 3529 
Q 2884 3475 3122 3366 
z
" transform="scale(0.015625)"/>
      </defs>
      <use xlink:href="#DejaVuSans-52"/>
      <use xlink:href="#DejaVuSans-61" transform="translate(67.232422 0)"/>
      <use xlink:href="#DejaVuSans-77" transform="translate(128.511719 0)"/>
      <use xlink:href="#DejaVuSans-20" transform="translate(210.298828 0)"/>
      <use xlink:href="#DejaVuSans-46" transform="translate(242.085938 0)"/>
      <use xlink:href="#DejaVuSans-6f" transform="translate(295.980469 0)"/>
      <use xlink:href="#DejaVuSans-72" transform="translate(357.162109 0)"/>
      <use xlink:href="#DejaVuSans-63" transform="translate(396.025391 0)"/>
      <use xlink:href="#DejaVuSans-65" transform="translate(451.005859 0)"/>
     </g>
    </g>
    <g id="line2d_36">
     <path d="M 66.17 54.656563 
L 76.17 54.656563 
L 86.17 54.656563 
" style="fill: none; stroke: #000000; stroke-width: 2; stroke-linecap: square"/>
    </g>
    <g id="text_21">
     <!-- Adjusted Force -->
     <g transform="translate(94.17 58.156563) scale(0.1 -0.1)">
      <defs>
       <path id="DejaVuSans-41" d="M 2188 4044 
L 1331 1722 
L 3047 1722 
L 2188 4044 
z
M 1831 4666 
L 2547 4666 
L 4325 0 
L 3669 0 
L 3244 1197 
L 1141 1197 
L 716 0 
L 50 0 
L 1831 4666 
z
" transform="scale(0.015625)"/>
       <path id="DejaVuSans-64" d="M 2906 2969 
L 2906 4863 
L 3481 4863 
L 3481 0 
L 2906 0 
L 2906 525 
Q 2725 213 2448 61 
Q 2172 -91 1784 -91 
Q 1150 -91 751 415 
Q 353 922 353 1747 
Q 353 2572 751 3078 
Q 1150 3584 1784 3584 
Q 2172 3584 2448 3432 
Q 2725 3281 2906 2969 
z
M 947 1747 
Q 947 1113 1208 752 
Q 1469 391 1925 391 
Q 2381 391 2643 752 
Q 2906 1113 2906 1747 
Q 2906 2381 2643 2742 
Q 2381 3103 1925 3103 
Q 1469 3103 1208 2742 
Q 947 2381 947 1747 
z
" transform="scale(0.015625)"/>
       <path id="DejaVuSans-6a" d="M 603 3500 
L 1178 3500 
L 1178 -63 
Q 1178 -731 923 -1031 
Q 669 -1331 103 -1331 
L -116 -1331 
L -116 -844 
L 38 -844 
Q 366 -844 484 -692 
Q 603 -541 603 -63 
L 603 3500 
z
M 603 4863 
L 1178 4863 
L 1178 4134 
L 603 4134 
L 603 4863 
z
" transform="scale(0.015625)"/>
       <path id="DejaVuSans-75" d="M 544 1381 
L 544 3500 
L 1119 3500 
L 1119 1403 
Q 1119 906 1312 657 
Q 1506 409 1894 409 
Q 2359 409 2629 706 
Q 2900 1003 2900 1516 
L 2900 3500 
L 3475 3500 
L 3475 0 
L 2900 0 
L 2900 538 
Q 2691 219 2414 64 
Q 2138 -91 1772 -91 
Q 1169 -91 856 284 
Q 544 659 544 1381 
z
M 1991 3584 
L 1991 3584 
z
" transform="scale(0.015625)"/>
      </defs>
      <use xlink:href="#DejaVuSans-41"/>
      <use xlink:href="#DejaVuSans-64" transform="translate(66.658203 0)"/>
      <use xlink:href="#DejaVuSans-6a" transform="translate(130.134766 0)"/>
      <use xlink:href="#DejaVuSans-75" transform="translate(157.917969 0)"/>
      <use xlink:href="#DejaVuSans-73" transform="translate(221.296875 0)"/>
      <use xlink:href="#DejaVuSans-74" transform="translate(273.396484 0)"/>
      <use xlink:href="#DejaVuSans-65" transform="translate(312.605469 0)"/>
      <use xlink:href="#DejaVuSans-64" transform="translate(374.128906 0)"/>
      <use xlink:href="#DejaVuSans-20" transform="translate(437.605469 0)"/>
      <use xlink:href="#DejaVuSans-46" transform="translate(469.392578 0)"/>
      <use xlink:href="#DejaVuSans-6f" transform="translate(523.287109 0)"/>
      <use xlink:href="#DejaVuSans-72" transform="translate(584.46875 0)"/>
      <use xlink:href="#DejaVuSans-63" transform="translate(623.332031 0)"/>
      <use xlink:href="#DejaVuSans-65" transform="translate(678.3125 0)"/>
     </g>
    </g>
   </g>
  </g>
 </g>
 <defs>
  <clipPath id="p183bfee8de">
   <rect x="57.17" y="26.88" width="392.83" height="276.76"/>
  </clipPath>
 </defs>
</svg>
