<?xml version="1.0" encoding="utf-8" standalone="no"?>
<!DOCTYPE svg PUBLIC "-//W3C//DTD SVG 1.1//EN"
  "http://www.w3.org/Graphics/SVG/1.1/DTD/svg11.dtd">
<svg xmlns:xlink="http://www.w3.org/1999/xlink" width="460.8pt" height="345.6pt" viewBox="0 0 460.8 345.6" xmlns="http://www.w3.org/2000/svg" version="1.1">
 <metadata>
  <rdf:RDF xmlns:dc="http://purl.org/dc/elements/1.1/" xmlns:cc="http://creativecommons.org/ns#" xmlns:rdf="http://www.w3.org/1999/02/22-rdf-syntax-ns#">
   <cc:Work>
    <dc:type rdf:resource="http://purl.org/dc/dcmitype/StillImage"/>
    <dc:date>2025-07-28T21:14:04.292776</dc:date>
    <dc:format>image/svg+xml</dc:format>
    <dc:creator>
     <cc:Agent>
      <dc:title>Matplotlib v3.10.3, https://matplotlib.org/</dc:title>
     </cc:Agent>
    </dc:creator>
   </cc:Work>
  </rdf:RDF>
 </metadata>
 <defs>
  <style type="text/css">*{stroke-linejoin: round; stroke-linecap: butt}</style>
 </defs>
 <g id="figure_1">
  <g id="patch_1">
   <path d="M 0 345.6 
L 460.8 345.6 
L 460.8 0 
L 0 0 
z
" style="fill: #ffffff"/>
  </g>
  <g id="axes_1">
   <g id="patch_2">
    <path d="M 59.24 303.64 
L 450 303.64 
L 450 26.88 
L 59.24 26.88 
z
" style="fill: #ffffff"/>
   </g>
   <g id="matplotlib.axis_1">
    <g id="xtick_1">
     <g id="line2d_1">
      <path d="M 77.268386 303.64 
L 77.268386 26.88 
" clip-path="url(#pef69685f92)" style="fill: none; stroke: #b0b0b0; stroke-opacity: 0.3; stroke-width: 0.8; stroke-linecap: square"/>
     </g>
     <g id="line2d_2">
      <defs>
       <path id="m196dba51cf" d="M 0 0 
L 0 3.5 
" style="stroke: #000000; stroke-width: 0.8"/>
      </defs>
      <g>
       <use xlink:href="#m196dba51cf" x="77.268386" y="303.64" style="stroke: #000000; stroke-width: 0.8"/>
      </g>
     </g>
     <g id="text_1">
      <!-- 0.00 -->
      <g transform="translate(66.135574 318.238437) scale(0.1 -0.1)">
       <defs>
        <path id="DejaVuSans-30" d="M 2034 4250 
Q 1547 4250 1301 3770 
Q 1056 3291 1056 2328 
Q 1056 1369 1301 889 
Q 1547 409 2034 409 
Q 2525 409 2770 889 
Q 3016 1369 3016 2328 
Q 3016 3291 2770 3770 
Q 2525 4250 2034 4250 
z
M 2034 4750 
Q 2819 4750 3233 4129 
Q 3647 3509 3647 2328 
Q 3647 1150 3233 529 
Q 2819 -91 2034 -91 
Q 1250 -91 836 529 
Q 422 1150 422 2328 
Q 422 3509 836 4129 
Q 1250 4750 2034 4750 
z
" transform="scale(0.015625)"/>
        <path id="DejaVuSans-2e" d="M 684 794 
L 1344 794 
L 1344 0 
L 684 0 
L 684 794 
z
" transform="scale(0.015625)"/>
       </defs>
       <use xlink:href="#DejaVuSans-30"/>
       <use xlink:href="#DejaVuSans-2e" transform="translate(63.623047 0)"/>
       <use xlink:href="#DejaVuSans-30" transform="translate(95.410156 0)"/>
       <use xlink:href="#DejaVuSans-30" transform="translate(159.033203 0)"/>
      </g>
     </g>
    </g>
    <g id="xtick_2">
     <g id="line2d_3">
      <path d="M 141.11034 303.64 
L 141.11034 26.88 
" clip-path="url(#pef69685f92)" style="fill: none; stroke: #b0b0b0; stroke-opacity: 0.3; stroke-width: 0.8; stroke-linecap: square"/>
     </g>
     <g id="line2d_4">
      <g>
       <use xlink:href="#m196dba51cf" x="141.11034" y="303.64" style="stroke: #000000; stroke-width: 0.8"/>
      </g>
     </g>
     <g id="text_2">
      <!-- 0.02 -->
      <g transform="translate(129.977528 318.238437) scale(0.1 -0.1)">
       <defs>
        <path id="DejaVuSans-32" d="M 1228 531 
L 3431 531 
L 3431 0 
L 469 0 
L 469 531 
Q 828 903 1448 1529 
Q 2069 2156 2228 2338 
Q 2531 2678 2651 2914 
Q 2772 3150 2772 3378 
Q 2772 3750 2511 3984 
Q 2250 4219 1831 4219 
Q 1534 4219 1204 4116 
Q 875 4013 500 3803 
L 500 4441 
Q 881 4594 1212 4672 
Q 1544 4750 1819 4750 
Q 2544 4750 2975 4387 
Q 3406 4025 3406 3419 
Q 3406 3131 3298 2873 
Q 3191 2616 2906 2266 
Q 2828 2175 2409 1742 
Q 1991 1309 1228 531 
z
" transform="scale(0.015625)"/>
       </defs>
       <use xlink:href="#DejaVuSans-30"/>
       <use xlink:href="#DejaVuSans-2e" transform="translate(63.623047 0)"/>
       <use xlink:href="#DejaVuSans-30" transform="translate(95.410156 0)"/>
       <use xlink:href="#DejaVuSans-32" transform="translate(159.033203 0)"/>
      </g>
     </g>
    </g>
    <g id="xtick_3">
     <g id="line2d_5">
      <path d="M 204.952294 303.64 
L 204.952294 26.88 
" clip-path="url(#pef69685f92)" style="fill: none; stroke: #b0b0b0; stroke-opacity: 0.3; stroke-width: 0.8; stroke-linecap: square"/>
     </g>
     <g id="line2d_6">
      <g>
       <use xlink:href="#m196dba51cf" x="204.952294" y="303.64" style="stroke: #000000; stroke-width: 0.8"/>
      </g>
     </g>
     <g id="text_3">
      <!-- 0.04 -->
      <g transform="translate(193.819482 318.238437) scale(0.1 -0.1)">
       <defs>
        <path id="DejaVuSans-34" d="M 2419 4116 
L 825 1625 
L 2419 1625 
L 2419 4116 
z
M 2253 4666 
L 3047 4666 
L 3047 1625 
L 3713 1625 
L 3713 1100 
L 3047 1100 
L 3047 0 
L 2419 0 
L 2419 1100 
L 313 1100 
L 313 1709 
L 2253 4666 
z
" transform="scale(0.015625)"/>
       </defs>
       <use xlink:href="#DejaVuSans-30"/>
       <use xlink:href="#DejaVuSans-2e" transform="translate(63.623047 0)"/>
       <use xlink:href="#DejaVuSans-30" transform="translate(95.410156 0)"/>
       <use xlink:href="#DejaVuSans-34" transform="translate(159.033203 0)"/>
      </g>
     </g>
    </g>
    <g id="xtick_4">
     <g id="line2d_7">
      <path d="M 268.794248 303.64 
L 268.794248 26.88 
" clip-path="url(#pef69685f92)" style="fill: none; stroke: #b0b0b0; stroke-opacity: 0.3; stroke-width: 0.8; stroke-linecap: square"/>
     </g>
     <g id="line2d_8">
      <g>
       <use xlink:href="#m196dba51cf" x="268.794248" y="303.64" style="stroke: #000000; stroke-width: 0.8"/>
      </g>
     </g>
     <g id="text_4">
      <!-- 0.06 -->
      <g transform="translate(257.661436 318.238437) scale(0.1 -0.1)">
       <defs>
        <path id="DejaVuSans-36" d="M 2113 2584 
Q 1688 2584 1439 2293 
Q 1191 2003 1191 1497 
Q 1191 994 1439 701 
Q 1688 409 2113 409 
Q 2538 409 2786 701 
Q 3034 994 3034 1497 
Q 3034 2003 2786 2293 
Q 2538 2584 2113 2584 
z
M 3366 4563 
L 3366 3988 
Q 3128 4100 2886 4159 
Q 2644 4219 2406 4219 
Q 1781 4219 1451 3797 
Q 1122 3375 1075 2522 
Q 1259 2794 1537 2939 
Q 1816 3084 2150 3084 
Q 2853 3084 3261 2657 
Q 3669 2231 3669 1497 
Q 3669 778 3244 343 
Q 2819 -91 2113 -91 
Q 1303 -91 875 529 
Q 447 1150 447 2328 
Q 447 3434 972 4092 
Q 1497 4750 2381 4750 
Q 2619 4750 2861 4703 
Q 3103 4656 3366 4563 
z
" transform="scale(0.015625)"/>
       </defs>
       <use xlink:href="#DejaVuSans-30"/>
       <use xlink:href="#DejaVuSans-2e" transform="translate(63.623047 0)"/>
       <use xlink:href="#DejaVuSans-30" transform="translate(95.410156 0)"/>
       <use xlink:href="#DejaVuSans-36" transform="translate(159.033203 0)"/>
      </g>
     </g>
    </g>
    <g id="xtick_5">
     <g id="line2d_9">
      <path d="M 332.636202 303.64 
L 332.636202 26.88 
" clip-path="url(#pef69685f92)" style="fill: none; stroke: #b0b0b0; stroke-opacity: 0.3; stroke-width: 0.8; stroke-linecap: square"/>
     </g>
     <g id="line2d_10">
      <g>
       <use xlink:href="#m196dba51cf" x="332.636202" y="303.64" style="stroke: #000000; stroke-width: 0.8"/>
      </g>
     </g>
     <g id="text_5">
      <!-- 0.08 -->
      <g transform="translate(321.50339 318.238437) scale(0.1 -0.1)">
       <defs>
        <path id="DejaVuSans-38" d="M 2034 2216 
Q 1584 2216 1326 1975 
Q 1069 1734 1069 1313 
Q 1069 891 1326 650 
Q 1584 409 2034 409 
Q 2484 409 2743 651 
Q 3003 894 3003 1313 
Q 3003 1734 2745 1975 
Q 2488 2216 2034 2216 
z
M 1403 2484 
Q 997 2584 770 2862 
Q 544 3141 544 3541 
Q 544 4100 942 4425 
Q 1341 4750 2034 4750 
Q 2731 4750 3128 4425 
Q 3525 4100 3525 3541 
Q 3525 3141 3298 2862 
Q 3072 2584 2669 2484 
Q 3125 2378 3379 2068 
Q 3634 1759 3634 1313 
Q 3634 634 3220 271 
Q 2806 -91 2034 -91 
Q 1263 -91 848 271 
Q 434 634 434 1313 
Q 434 1759 690 2068 
Q 947 2378 1403 2484 
z
M 1172 3481 
Q 1172 3119 1398 2916 
Q 1625 2713 2034 2713 
Q 2441 2713 2670 2916 
Q 2900 3119 2900 3481 
Q 2900 3844 2670 4047 
Q 2441 4250 2034 4250 
Q 1625 4250 1398 4047 
Q 1172 3844 1172 3481 
z
" transform="scale(0.015625)"/>
       </defs>
       <use xlink:href="#DejaVuSans-30"/>
       <use xlink:href="#DejaVuSans-2e" transform="translate(63.623047 0)"/>
       <use xlink:href="#DejaVuSans-30" transform="translate(95.410156 0)"/>
       <use xlink:href="#DejaVuSans-38" transform="translate(159.033203 0)"/>
      </g>
     </g>
    </g>
    <g id="xtick_6">
     <g id="line2d_11">
      <path d="M 396.478156 303.64 
L 396.478156 26.88 
" clip-path="url(#pef69685f92)" style="fill: none; stroke: #b0b0b0; stroke-opacity: 0.3; stroke-width: 0.8; stroke-linecap: square"/>
     </g>
     <g id="line2d_12">
      <g>
       <use xlink:href="#m196dba51cf" x="396.478156" y="303.64" style="stroke: #000000; stroke-width: 0.8"/>
      </g>
     </g>
     <g id="text_6">
      <!-- 0.10 -->
      <g transform="translate(385.345344 318.238437) scale(0.1 -0.1)">
       <defs>
        <path id="DejaVuSans-31" d="M 794 531 
L 1825 531 
L 1825 4091 
L 703 3866 
L 703 4441 
L 1819 4666 
L 2450 4666 
L 2450 531 
L 3481 531 
L 3481 0 
L 794 0 
L 794 531 
z
" transform="scale(0.015625)"/>
       </defs>
       <use xlink:href="#DejaVuSans-30"/>
       <use xlink:href="#DejaVuSans-2e" transform="translate(63.623047 0)"/>
       <use xlink:href="#DejaVuSans-31" transform="translate(95.410156 0)"/>
       <use xlink:href="#DejaVuSans-30" transform="translate(159.033203 0)"/>
      </g>
     </g>
    </g>
    <g id="text_7">
     <!-- Strain [-] -->
     <g transform="translate(232.51375 331.916562) scale(0.1 -0.1)">
      <defs>
       <path id="DejaVuSans-53" d="M 3425 4513 
L 3425 3897 
Q 3066 4069 2747 4153 
Q 2428 4238 2131 4238 
Q 1616 4238 1336 4038 
Q 1056 3838 1056 3469 
Q 1056 3159 1242 3001 
Q 1428 2844 1947 2747 
L 2328 2669 
Q 3034 2534 3370 2195 
Q 3706 1856 3706 1288 
Q 3706 609 3251 259 
Q 2797 -91 1919 -91 
Q 1588 -91 1214 -16 
Q 841 59 441 206 
L 441 856 
Q 825 641 1194 531 
Q 1563 422 1919 422 
Q 2459 422 2753 634 
Q 3047 847 3047 1241 
Q 3047 1584 2836 1778 
Q 2625 1972 2144 2069 
L 1759 2144 
Q 1053 2284 737 2584 
Q 422 2884 422 3419 
Q 422 4038 858 4394 
Q 1294 4750 2059 4750 
Q 2388 4750 2728 4690 
Q 3069 4631 3425 4513 
z
" transform="scale(0.015625)"/>
       <path id="DejaVuSans-74" d="M 1172 4494 
L 1172 3500 
L 2356 3500 
L 2356 3053 
L 1172 3053 
L 1172 1153 
Q 1172 725 1289 603 
Q 1406 481 1766 481 
L 2356 481 
L 2356 0 
L 1766 0 
Q 1100 0 847 248 
Q 594 497 594 1153 
L 594 3053 
L 172 3053 
L 172 3500 
L 594 3500 
L 594 4494 
L 1172 4494 
z
" transform="scale(0.015625)"/>
       <path id="DejaVuSans-72" d="M 2631 2963 
Q 2534 3019 2420 3045 
Q 2306 3072 2169 3072 
Q 1681 3072 1420 2755 
Q 1159 2438 1159 1844 
L 1159 0 
L 581 0 
L 581 3500 
L 1159 3500 
L 1159 2956 
Q 1341 3275 1631 3429 
Q 1922 3584 2338 3584 
Q 2397 3584 2469 3576 
Q 2541 3569 2628 3553 
L 2631 2963 
z
" transform="scale(0.015625)"/>
       <path id="DejaVuSans-61" d="M 2194 1759 
Q 1497 1759 1228 1600 
Q 959 1441 959 1056 
Q 959 750 1161 570 
Q 1363 391 1709 391 
Q 2188 391 2477 730 
Q 2766 1069 2766 1631 
L 2766 1759 
L 2194 1759 
z
M 3341 1997 
L 3341 0 
L 2766 0 
L 2766 531 
Q 2569 213 2275 61 
Q 1981 -91 1556 -91 
Q 1019 -91 701 211 
Q 384 513 384 1019 
Q 384 1609 779 1909 
Q 1175 2209 1959 2209 
L 2766 2209 
L 2766 2266 
Q 2766 2663 2505 2880 
Q 2244 3097 1772 3097 
Q 1472 3097 1187 3025 
Q 903 2953 641 2809 
L 641 3341 
Q 956 3463 1253 3523 
Q 1550 3584 1831 3584 
Q 2591 3584 2966 3190 
Q 3341 2797 3341 1997 
z
" transform="scale(0.015625)"/>
       <path id="DejaVuSans-69" d="M 603 3500 
L 1178 3500 
L 1178 0 
L 603 0 
L 603 3500 
z
M 603 4863 
L 1178 4863 
L 1178 4134 
L 603 4134 
L 603 4863 
z
" transform="scale(0.015625)"/>
       <path id="DejaVuSans-6e" d="M 3513 2113 
L 3513 0 
L 2938 0 
L 2938 2094 
Q 2938 2591 2744 2837 
Q 2550 3084 2163 3084 
Q 1697 3084 1428 2787 
Q 1159 2491 1159 1978 
L 1159 0 
L 581 0 
L 581 3500 
L 1159 3500 
L 1159 2956 
Q 1366 3272 1645 3428 
Q 1925 3584 2291 3584 
Q 2894 3584 3203 3211 
Q 3513 2838 3513 2113 
z
" transform="scale(0.015625)"/>
       <path id="DejaVuSans-20" transform="scale(0.015625)"/>
       <path id="DejaVuSans-5b" d="M 550 4863 
L 1875 4863 
L 1875 4416 
L 1125 4416 
L 1125 -397 
L 1875 -397 
L 1875 -844 
L 550 -844 
L 550 4863 
z
" transform="scale(0.015625)"/>
       <path id="DejaVuSans-2d" d="M 313 2009 
L 1997 2009 
L 1997 1497 
L 313 1497 
L 313 2009 
z
" transform="scale(0.015625)"/>
       <path id="DejaVuSans-5d" d="M 1947 4863 
L 1947 -844 
L 622 -844 
L 622 -397 
L 1369 -397 
L 1369 4416 
L 622 4416 
L 622 4863 
L 1947 4863 
z
" transform="scale(0.015625)"/>
      </defs>
      <use xlink:href="#DejaVuSans-53"/>
      <use xlink:href="#DejaVuSans-74" transform="translate(63.476562 0)"/>
      <use xlink:href="#DejaVuSans-72" transform="translate(102.685547 0)"/>
      <use xlink:href="#DejaVuSans-61" transform="translate(143.798828 0)"/>
      <use xlink:href="#DejaVuSans-69" transform="translate(205.078125 0)"/>
      <use xlink:href="#DejaVuSans-6e" transform="translate(232.861328 0)"/>
      <use xlink:href="#DejaVuSans-20" transform="translate(296.240234 0)"/>
      <use xlink:href="#DejaVuSans-5b" transform="translate(328.027344 0)"/>
      <use xlink:href="#DejaVuSans-2d" transform="translate(367.041016 0)"/>
      <use xlink:href="#DejaVuSans-5d" transform="translate(403.125 0)"/>
     </g>
    </g>
   </g>
   <g id="matplotlib.axis_2">
    <g id="ytick_1">
     <g id="line2d_13">
      <path d="M 59.24 279.181551 
L 450 279.181551 
" clip-path="url(#pef69685f92)" style="fill: none; stroke: #b0b0b0; stroke-opacity: 0.3; stroke-width: 0.8; stroke-linecap: square"/>
     </g>
     <g id="line2d_14">
      <defs>
       <path id="m52167960f3" d="M 0 0 
L -3.5 0 
" style="stroke: #000000; stroke-width: 0.8"/>
      </defs>
      <g>
       <use xlink:href="#m52167960f3" x="59.24" y="279.181551" style="stroke: #000000; stroke-width: 0.8"/>
      </g>
     </g>
     <g id="text_8">
      <!-- −100 -->
      <g transform="translate(24.772813 282.980769) scale(0.1 -0.1)">
       <defs>
        <path id="DejaVuSans-2212" d="M 678 2272 
L 4684 2272 
L 4684 1741 
L 678 1741 
L 678 2272 
z
" transform="scale(0.015625)"/>
       </defs>
       <use xlink:href="#DejaVuSans-2212"/>
       <use xlink:href="#DejaVuSans-31" transform="translate(83.789062 0)"/>
       <use xlink:href="#DejaVuSans-30" transform="translate(147.412109 0)"/>
       <use xlink:href="#DejaVuSans-30" transform="translate(211.035156 0)"/>
      </g>
     </g>
    </g>
    <g id="ytick_2">
     <g id="line2d_15">
      <path d="M 59.24 240.039086 
L 450 240.039086 
" clip-path="url(#pef69685f92)" style="fill: none; stroke: #b0b0b0; stroke-opacity: 0.3; stroke-width: 0.8; stroke-linecap: square"/>
     </g>
     <g id="line2d_16">
      <g>
       <use xlink:href="#m52167960f3" x="59.24" y="240.039086" style="stroke: #000000; stroke-width: 0.8"/>
      </g>
     </g>
     <g id="text_9">
      <!-- 0 -->
      <g transform="translate(45.8775 243.838304) scale(0.1 -0.1)">
       <use xlink:href="#DejaVuSans-30"/>
      </g>
     </g>
    </g>
    <g id="ytick_3">
     <g id="line2d_17">
      <path d="M 59.24 200.896621 
L 450 200.896621 
" clip-path="url(#pef69685f92)" style="fill: none; stroke: #b0b0b0; stroke-opacity: 0.3; stroke-width: 0.8; stroke-linecap: square"/>
     </g>
     <g id="line2d_18">
      <g>
       <use xlink:href="#m52167960f3" x="59.24" y="200.896621" style="stroke: #000000; stroke-width: 0.8"/>
      </g>
     </g>
     <g id="text_10">
      <!-- 100 -->
      <g transform="translate(33.1525 204.69584) scale(0.1 -0.1)">
       <use xlink:href="#DejaVuSans-31"/>
       <use xlink:href="#DejaVuSans-30" transform="translate(63.623047 0)"/>
       <use xlink:href="#DejaVuSans-30" transform="translate(127.246094 0)"/>
      </g>
     </g>
    </g>
    <g id="ytick_4">
     <g id="line2d_19">
      <path d="M 59.24 161.754156 
L 450 161.754156 
" clip-path="url(#pef69685f92)" style="fill: none; stroke: #b0b0b0; stroke-opacity: 0.3; stroke-width: 0.8; stroke-linecap: square"/>
     </g>
     <g id="line2d_20">
      <g>
       <use xlink:href="#m52167960f3" x="59.24" y="161.754156" style="stroke: #000000; stroke-width: 0.8"/>
      </g>
     </g>
     <g id="text_11">
      <!-- 200 -->
      <g transform="translate(33.1525 165.553375) scale(0.1 -0.1)">
       <use xlink:href="#DejaVuSans-32"/>
       <use xlink:href="#DejaVuSans-30" transform="translate(63.623047 0)"/>
       <use xlink:href="#DejaVuSans-30" transform="translate(127.246094 0)"/>
      </g>
     </g>
    </g>
    <g id="ytick_5">
     <g id="line2d_21">
      <path d="M 59.24 122.611691 
L 450 122.611691 
" clip-path="url(#pef69685f92)" style="fill: none; stroke: #b0b0b0; stroke-opacity: 0.3; stroke-width: 0.8; stroke-linecap: square"/>
     </g>
     <g id="line2d_22">
      <g>
       <use xlink:href="#m52167960f3" x="59.24" y="122.611691" style="stroke: #000000; stroke-width: 0.8"/>
      </g>
     </g>
     <g id="text_12">
      <!-- 300 -->
      <g transform="translate(33.1525 126.41091) scale(0.1 -0.1)">
       <defs>
        <path id="DejaVuSans-33" d="M 2597 2516 
Q 3050 2419 3304 2112 
Q 3559 1806 3559 1356 
Q 3559 666 3084 287 
Q 2609 -91 1734 -91 
Q 1441 -91 1130 -33 
Q 819 25 488 141 
L 488 750 
Q 750 597 1062 519 
Q 1375 441 1716 441 
Q 2309 441 2620 675 
Q 2931 909 2931 1356 
Q 2931 1769 2642 2001 
Q 2353 2234 1838 2234 
L 1294 2234 
L 1294 2753 
L 1863 2753 
Q 2328 2753 2575 2939 
Q 2822 3125 2822 3475 
Q 2822 3834 2567 4026 
Q 2313 4219 1838 4219 
Q 1578 4219 1281 4162 
Q 984 4106 628 3988 
L 628 4550 
Q 988 4650 1302 4700 
Q 1616 4750 1894 4750 
Q 2613 4750 3031 4423 
Q 3450 4097 3450 3541 
Q 3450 3153 3228 2886 
Q 3006 2619 2597 2516 
z
" transform="scale(0.015625)"/>
       </defs>
       <use xlink:href="#DejaVuSans-33"/>
       <use xlink:href="#DejaVuSans-30" transform="translate(63.623047 0)"/>
       <use xlink:href="#DejaVuSans-30" transform="translate(127.246094 0)"/>
      </g>
     </g>
    </g>
    <g id="ytick_6">
     <g id="line2d_23">
      <path d="M 59.24 83.469226 
L 450 83.469226 
" clip-path="url(#pef69685f92)" style="fill: none; stroke: #b0b0b0; stroke-opacity: 0.3; stroke-width: 0.8; stroke-linecap: square"/>
     </g>
     <g id="line2d_24">
      <g>
       <use xlink:href="#m52167960f3" x="59.24" y="83.469226" style="stroke: #000000; stroke-width: 0.8"/>
      </g>
     </g>
     <g id="text_13">
      <!-- 400 -->
      <g transform="translate(33.1525 87.268445) scale(0.1 -0.1)">
       <use xlink:href="#DejaVuSans-34"/>
       <use xlink:href="#DejaVuSans-30" transform="translate(63.623047 0)"/>
       <use xlink:href="#DejaVuSans-30" transform="translate(127.246094 0)"/>
      </g>
     </g>
    </g>
    <g id="ytick_7">
     <g id="line2d_25">
      <path d="M 59.24 44.326761 
L 450 44.326761 
" clip-path="url(#pef69685f92)" style="fill: none; stroke: #b0b0b0; stroke-opacity: 0.3; stroke-width: 0.8; stroke-linecap: square"/>
     </g>
     <g id="line2d_26">
      <g>
       <use xlink:href="#m52167960f3" x="59.24" y="44.326761" style="stroke: #000000; stroke-width: 0.8"/>
      </g>
     </g>
     <g id="text_14">
      <!-- 500 -->
      <g transform="translate(33.1525 48.12598) scale(0.1 -0.1)">
       <defs>
        <path id="DejaVuSans-35" d="M 691 4666 
L 3169 4666 
L 3169 4134 
L 1269 4134 
L 1269 2991 
Q 1406 3038 1543 3061 
Q 1681 3084 1819 3084 
Q 2600 3084 3056 2656 
Q 3513 2228 3513 1497 
Q 3513 744 3044 326 
Q 2575 -91 1722 -91 
Q 1428 -91 1123 -41 
Q 819 9 494 109 
L 494 744 
Q 775 591 1075 516 
Q 1375 441 1709 441 
Q 2250 441 2565 725 
Q 2881 1009 2881 1497 
Q 2881 1984 2565 2268 
Q 2250 2553 1709 2553 
Q 1456 2553 1204 2497 
Q 953 2441 691 2322 
L 691 4666 
z
" transform="scale(0.015625)"/>
       </defs>
       <use xlink:href="#DejaVuSans-35"/>
       <use xlink:href="#DejaVuSans-30" transform="translate(63.623047 0)"/>
       <use xlink:href="#DejaVuSans-30" transform="translate(127.246094 0)"/>
      </g>
     </g>
    </g>
    <g id="text_15">
     <!-- Stress [Pa] -->
     <g transform="translate(18.693125 191.967812) rotate(-90) scale(0.1 -0.1)">
      <defs>
       <path id="DejaVuSans-65" d="M 3597 1894 
L 3597 1613 
L 953 1613 
Q 991 1019 1311 708 
Q 1631 397 2203 397 
Q 2534 397 2845 478 
Q 3156 559 3463 722 
L 3463 178 
Q 3153 47 2828 -22 
Q 2503 -91 2169 -91 
Q 1331 -91 842 396 
Q 353 884 353 1716 
Q 353 2575 817 3079 
Q 1281 3584 2069 3584 
Q 2775 3584 3186 3129 
Q 3597 2675 3597 1894 
z
M 3022 2063 
Q 3016 2534 2758 2815 
Q 2500 3097 2075 3097 
Q 1594 3097 1305 2825 
Q 1016 2553 972 2059 
L 3022 2063 
z
" transform="scale(0.015625)"/>
       <path id="DejaVuSans-73" d="M 2834 3397 
L 2834 2853 
Q 2591 2978 2328 3040 
Q 2066 3103 1784 3103 
Q 1356 3103 1142 2972 
Q 928 2841 928 2578 
Q 928 2378 1081 2264 
Q 1234 2150 1697 2047 
L 1894 2003 
Q 2506 1872 2764 1633 
Q 3022 1394 3022 966 
Q 3022 478 2636 193 
Q 2250 -91 1575 -91 
Q 1294 -91 989 -36 
Q 684 19 347 128 
L 347 722 
Q 666 556 975 473 
Q 1284 391 1588 391 
Q 1994 391 2212 530 
Q 2431 669 2431 922 
Q 2431 1156 2273 1281 
Q 2116 1406 1581 1522 
L 1381 1569 
Q 847 1681 609 1914 
Q 372 2147 372 2553 
Q 372 3047 722 3315 
Q 1072 3584 1716 3584 
Q 2034 3584 2315 3537 
Q 2597 3491 2834 3397 
z
" transform="scale(0.015625)"/>
       <path id="DejaVuSans-50" d="M 1259 4147 
L 1259 2394 
L 2053 2394 
Q 2494 2394 2734 2622 
Q 2975 2850 2975 3272 
Q 2975 3691 2734 3919 
Q 2494 4147 2053 4147 
L 1259 4147 
z
M 628 4666 
L 2053 4666 
Q 2838 4666 3239 4311 
Q 3641 3956 3641 3272 
Q 3641 2581 3239 2228 
Q 2838 1875 2053 1875 
L 1259 1875 
L 1259 0 
L 628 0 
L 628 4666 
z
" transform="scale(0.015625)"/>
      </defs>
      <use xlink:href="#DejaVuSans-53"/>
      <use xlink:href="#DejaVuSans-74" transform="translate(63.476562 0)"/>
      <use xlink:href="#DejaVuSans-72" transform="translate(102.685547 0)"/>
      <use xlink:href="#DejaVuSans-65" transform="translate(141.548828 0)"/>
      <use xlink:href="#DejaVuSans-73" transform="translate(203.072266 0)"/>
      <use xlink:href="#DejaVuSans-73" transform="translate(255.171875 0)"/>
      <use xlink:href="#DejaVuSans-20" transform="translate(307.271484 0)"/>
      <use xlink:href="#DejaVuSans-5b" transform="translate(339.058594 0)"/>
      <use xlink:href="#DejaVuSans-50" transform="translate(378.072266 0)"/>
      <use xlink:href="#DejaVuSans-61" transform="translate(433.875 0)"/>
      <use xlink:href="#DejaVuSans-5d" transform="translate(495.154297 0)"/>
     </g>
    </g>
   </g>
   <g id="line2d_27">
    <path d="M 77.268386 272.934089 
L 77.268386 272.978766 
L 77.270401 272.527178 
L 77.270389 272.648793 
L 78.491926 266.670935 
L 79.712772 257.183393 
L 80.935421 255.595545 
L 82.194601 256.105151 
L 83.479037 255.465506 
L 84.713864 253.719482 
L 86.076773 250.397778 
L 87.326934 246.750595 
L 88.697961 244.031177 
L 89.883178 242.895805 
L 91.145966 242.670993 
L 92.482717 243.080503 
L 93.88802 243.932982 
L 95.352854 245.096492 
L 96.871808 246.965711 
L 99.621078 251.184762 
L 102.025788 254.080607 
L 103.234456 255.373395 
L 104.437713 256.317891 
L 106.833405 257.717143 
L 108.016818 258.184828 
L 109.575459 257.881974 
L 111.112453 256.338233 
L 114.146752 251.586857 
L 115.653078 249.624861 
L 117.159404 248.34272 
L 118.662122 247.769331 
L 120.161232 247.763912 
L 121.65493 248.529699 
L 124.590011 251.559385 
L 126.01155 252.273841 
L 127.395205 251.961861 
L 128.74278 250.558045 
L 130.057884 248.428747 
L 132.61052 243.376228 
L 135.100017 237.888724 
L 136.339353 235.458282 
L 137.584098 233.459784 
L 138.836062 231.941899 
L 140.095243 230.971548 
L 141.365247 230.397398 
L 142.638859 230.151198 
L 143.917883 230.247937 
L 146.468715 230.645279 
L 147.735111 230.702077 
L 148.990684 230.473177 
L 150.23904 229.867088 
L 152.706889 228.003952 
L 157.54878 223.63585 
L 158.746625 222.578806 
L 162.318511 219.915663 
L 164.685337 218.454812 
L 167.629438 216.679891 
L 169.096076 215.748323 
L 173.483363 212.415972 
L 177.863519 209.221612 
L 182.239982 206.740981 
L 186.603817 203.981259 
L 190.965849 201.588841 
L 192.416251 200.585789 
L 198.210645 196.098294 
L 201.097018 194.635163 
L 206.86796 190.534744 
L 209.759745 188.282251 
L 212.66055 186.464743 
L 215.570375 184.143808 
L 217.027993 183.207678 
L 222.892743 179.87989 
L 228.782748 175.786315 
L 231.73226 174.1536 
L 239.074472 170.33151 
L 243.441915 167.27901 
L 244.895925 166.381663 
L 246.346328 165.350475 
L 249.241721 162.907866 
L 250.690319 161.821924 
L 256.484713 158.085007 
L 257.93692 157.069788 
L 260.846744 154.850756 
L 266.695258 150.424858 
L 268.165504 149.540439 
L 272.576243 147.370837 
L 278.4446 143.217185 
L 281.383289 141.013362 
L 288.74354 135.865024 
L 291.698465 133.660441 
L 294.070702 132.000349 
L 296.45196 130.169153 
L 298.844042 128.229971 
L 302.453812 125.829188 
L 304.87115 124.597237 
L 307.288487 123.254259 
L 310.907277 121.372112 
L 325.225759 111.068592 
L 328.779606 108.373509 
L 339.482638 100.847202 
L 341.872916 99.157453 
L 344.266802 97.79166 
L 346.660687 96.391647 
L 362.187571 85.739835 
L 365.759457 82.868325 
L 368.142519 81.155761 
L 370.529189 79.347379 
L 372.92127 77.590709 
L 375.318764 75.630234 
L 378.921318 73.181541 
L 388.523921 66.696309 
L 390.912395 64.833173 
L 399.52461 59.067339 
L 401.000268 58.11752 
L 405.387555 55.680995 
L 406.83435 55.049811 
L 412.457365 53.247512 
L 413.804941 52.911768 
L 416.408089 52.687003 
L 418.850682 52.586218 
L 422.734658 52.147621 
L 424.038937 51.864253 
L 425.376591 51.331168 
L 426.684479 50.569564 
L 427.899461 49.471455 
L 429.129327 47.620487 
L 430.326495 45.074455 
L 431.518815 39.981821 
L 431.703273 39.908484 
L 432.238182 43.576782 
L 432.088423 48.601675 
L 431.945316 57.150805 
L 431.948755 62.109514 
L 431.948727 67.895892 
L 431.930941 67.147977 
L 430.748261 69.06678 
L 429.525329 73.482899 
L 428.320945 74.401301 
L 427.090178 73.556521 
L 425.899098 73.432471 
L 424.640819 73.475484 
L 423.444328 73.907618 
L 422.243777 73.888059 
L 420.97693 74.06375 
L 419.712788 73.503669 
L 418.501865 76.485446 
L 417.252606 80.701456 
L 415.989818 82.400521 
L 414.728383 81.56211 
L 413.472811 81.123762 
L 412.282182 81.373563 
L 411.03157 82.587263 
L 409.826059 83.315905 
L 408.616713 83.029876 
L 407.390456 87.636764 
L 406.173218 89.985075 
L 404.93546 90.770444 
L 402.524888 91.522494 
L 401.311258 92.017271 
L 400.089962 92.690376 
L 397.667438 95.139449 
L 396.472073 96.383757 
L 391.619218 99.961678 
L 390.404686 101.148952 
L 387.989604 103.745935 
L 384.327518 105.206547 
L 381.940622 107.256377 
L 379.522383 110.503176 
L 378.299282 111.67505 
L 377.079339 111.865665 
L 375.863905 112.278026 
L 369.801394 117.647468 
L 368.610314 118.397856 
L 366.18531 120.350916 
L 364.96655 121.531916 
L 360.109326 125.280811 
L 358.882166 125.983954 
L 357.655006 126.433792 
L 355.255709 128.272498 
L 354.030804 129.214712 
L 352.824391 130.601797 
L 351.604447 131.696865 
L 350.370522 132.545352 
L 349.137049 133.251062 
L 347.91034 134.202782 
L 346.689044 134.806685 
L 345.465943 135.884262 
L 344.228411 136.761647 
L 341.842192 137.899181 
L 338.213029 140.562514 
L 334.588348 143.719246 
L 333.405386 144.365277 
L 332.175069 145.235438 
L 329.708573 146.674044 
L 328.469688 147.826907 
L 326.067684 149.26827 
L 324.866682 150.264668 
L 322.477758 151.32751 
L 320.01983 153.368975 
L 318.786357 154.251778 
L 317.54657 155.360914 
L 316.353235 156.19229 
L 313.950329 157.379932 
L 310.36807 160.126299 
L 304.286349 164.186758 
L 303.05964 165.302548 
L 300.671618 166.833361 
L 299.478734 167.126543 
L 297.036141 168.433792 
L 295.823413 169.447109 
L 294.593998 170.275824 
L 293.411488 171.454543 
L 292.211839 172.199607 
L 289.80307 173.335644 
L 287.430832 174.744403 
L 286.208634 175.769698 
L 285.001994 177.008302 
L 283.794453 177.947095 
L 282.579471 178.711741 
L 281.348703 179.724678 
L 280.16078 180.130148 
L 278.973759 180.882056 
L 277.736678 182.002219 
L 276.498892 182.882574 
L 271.700296 185.304412 
L 268.028289 188.333148 
L 266.823679 188.924123 
L 265.625383 189.717762 
L 263.206693 191.059977 
L 260.767031 193.123685 
L 257.191987 194.743757 
L 256.002711 195.442338 
L 253.577256 197.137601 
L 252.392039 198.003769 
L 251.209077 198.529487 
L 249.972898 198.957165 
L 248.746189 199.740347 
L 247.518128 200.859749 
L 245.124721 202.371363 
L 243.917405 203.380308 
L 242.715502 203.810398 
L 240.299066 205.334563 
L 239.066946 206.075064 
L 237.879925 206.566989 
L 234.287292 209.122621 
L 228.223203 212.125359 
L 225.845102 213.697047 
L 224.658532 214.133981 
L 223.473315 214.713644 
L 222.233077 215.603195 
L 219.755757 216.970603 
L 218.515969 217.559962 
L 217.296533 218.277586 
L 216.086511 219.230256 
L 212.44224 221.344535 
L 211.249356 221.744919 
L 210.009569 222.429906 
L 208.787821 223.509574 
L 206.354699 224.946755 
L 202.75936 226.828332 
L 200.284746 228.659528 
L 197.880939 229.740432 
L 196.669113 230.223231 
L 194.273874 231.511932 
L 191.899833 233.091889 
L 188.313063 234.786321 
L 184.612995 237.499114 
L 183.375012 238.133055 
L 182.188893 238.595892 
L 181.004127 238.928547 
L 179.773359 239.456493 
L 176.117587 241.941593 
L 174.894938 242.655383 
L 168.859261 245.381026 
L 166.409677 247.355 
L 165.201911 247.9051 
L 163.972947 248.616609 
L 160.270723 250.118881 
L 159.059122 251.229347 
L 157.82889 252.015029 
L 156.62383 252.580339 
L 154.167256 253.223834 
L 149.312737 256.163025 
L 146.87285 256.839341 
L 145.664406 257.516819 
L 143.242559 259.147823 
L 142.007733 259.902203 
L 139.543943 260.874123 
L 138.327832 261.712724 
L 137.114879 262.711022 
L 135.876896 263.425098 
L 133.482108 264.069911 
L 131.05079 265.106662 
L 126.1609 268.699071 
L 124.968467 269.206395 
L 123.759347 269.51405 
L 122.548423 270.165529 
L 121.341108 270.372518 
L 120.151381 270.735521 
L 118.92377 271.552068 
L 117.692101 272.78516 
L 116.485687 272.894961 
L 115.275665 273.153637 
L 114.084134 273.553546 
L 112.864642 274.098893 
L 111.62756 275.148903 
L 110.430392 276.794546 
L 107.977426 276.778413 
L 105.546331 277.231108 
L 104.33879 278.595665 
L 103.148838 280.288786 
L 101.923031 279.94326 
L 100.738265 279.830509 
L 99.516518 280.012771 
L 98.295344 279.926022 
L 95.889282 284.401581 
L 93.44714 284.122425 
L 92.239373 284.216423 
L 91.018075 283.70131 
L 89.827897 284.862241 
L 88.605248 288.26983 
L 87.377637 288.088079 
L 86.138752 287.718399 
L 83.703375 287.829527 
L 82.504853 287.186888 
L 81.308361 290.133684 
L 80.097438 291.06 
L 78.888318 290.013032 
L 77.701072 289.303567 
L 77.2326 288.837498 
L 77.093242 288.49586 
L 77.003037 287.712612 
L 77.003037 287.712612 
" clip-path="url(#pef69685f92)" style="fill: none; stroke: #ff0000; stroke-width: 2; stroke-linecap: square"/>
   </g>
   <g id="line2d_28">
    <path d="M 77.268386 272.934089 
L 77.268386 272.978766 
L 77.270401 272.527178 
L 77.270389 272.648793 
L 78.491926 266.670935 
L 79.712772 257.183393 
L 80.935421 255.595545 
L 82.194601 256.105151 
L 83.479037 255.465506 
L 84.713864 253.719482 
L 86.076773 250.397778 
L 87.326934 268.609331 
L 88.697961 265.278501 
L 89.883178 263.049583 
L 91.145966 261.350993 
L 92.482717 260.084441 
L 93.88802 259.254775 
L 95.352854 258.880627 
L 96.871808 259.458579 
L 98.432253 260.377219 
L 99.621078 259.969611 
L 100.818923 259.266943 
L 102.025788 258.871501 
L 103.234456 258.323968 
L 104.437713 257.531565 
L 105.639166 257.012954 
L 106.833405 257.717143 
L 108.016818 258.184828 
L 109.575459 257.881974 
L 111.112453 256.338233 
L 114.146752 251.586857 
L 115.653078 249.624861 
L 117.159404 248.34272 
L 118.662122 247.769331 
L 120.161232 247.763912 
L 121.65493 248.529699 
L 124.590011 251.559385 
L 126.01155 252.273841 
L 127.395205 251.961861 
L 128.74278 250.558045 
L 130.057884 248.428747 
L 132.61052 243.376228 
L 135.100017 237.888724 
L 136.339353 235.458282 
L 137.584098 233.459784 
L 138.836062 231.941899 
L 140.095243 230.971548 
L 141.365247 230.397398 
L 142.638859 230.151198 
L 143.917883 230.247937 
L 146.468715 230.645279 
L 147.735111 230.702077 
L 148.990684 230.473177 
L 150.23904 229.867088 
L 152.706889 228.003952 
L 157.54878 223.63585 
L 158.746625 222.578806 
L 162.318511 219.915663 
L 164.685337 218.454812 
L 167.629438 216.679891 
L 169.096076 215.748323 
L 173.483363 212.415972 
L 177.863519 209.221612 
L 182.239982 206.740981 
L 186.603817 203.981259 
L 190.965849 201.588841 
L 192.416251 200.585789 
L 198.210645 196.098294 
L 201.097018 194.635163 
L 206.86796 190.534744 
L 209.759745 188.282251 
L 212.66055 186.464743 
L 215.570375 184.143808 
L 217.027993 183.207678 
L 222.892743 179.87989 
L 228.782748 175.786315 
L 231.73226 174.1536 
L 239.074472 170.33151 
L 243.441915 167.27901 
L 244.895925 166.381663 
L 246.346328 165.350475 
L 249.241721 162.907866 
L 250.690319 161.821924 
L 256.484713 158.085007 
L 257.93692 157.069788 
L 260.846744 154.850756 
L 266.695258 150.424858 
L 268.165504 149.540439 
L 272.576243 147.370837 
L 278.4446 143.217185 
L 281.383289 141.013362 
L 288.74354 135.865024 
L 291.698465 133.660441 
L 294.070702 132.000349 
L 296.45196 130.169153 
L 298.844042 128.229971 
L 302.453812 125.829188 
L 304.87115 124.597237 
L 307.288487 123.254259 
L 310.907277 121.372112 
L 325.225759 111.068592 
L 328.779606 108.373509 
L 339.482638 100.847202 
L 341.872916 99.157453 
L 344.266802 97.79166 
L 346.660687 96.391647 
L 362.187571 85.739835 
L 365.759457 82.868325 
L 368.142519 81.155761 
L 370.529189 79.347379 
L 372.92127 77.590709 
L 375.318764 75.630234 
L 378.921318 73.181541 
L 388.523921 66.696309 
L 393.29726 63.055277 
L 399.52461 58.666049 
L 405.387555 54.096614 
L 408.270321 52.344316 
L 411.08273 50.289543 
L 413.804941 47.95378 
L 416.408089 46.052193 
L 418.850682 44.638848 
L 422.734658 42.028747 
L 425.376591 40.77439 
L 429.129327 39.51991 
L 430.326495 40.386839 
L 431.703273 39.46 
L 432.238182 43.361166 
L 432.088423 48.113294 
L 431.947318 58.02308 
L 431.948755 62.109514 
L 431.948727 67.895892 
L 431.930941 67.147977 
L 430.748261 69.06678 
L 429.525329 73.482899 
L 428.320945 74.401301 
L 427.090178 73.556521 
L 425.899098 73.432471 
L 424.640819 73.475484 
L 423.444328 73.907618 
L 422.243777 73.888059 
L 420.97693 74.06375 
L 419.712788 73.503669 
L 418.501865 76.485446 
L 417.252606 80.701456 
L 415.989818 82.400521 
L 414.728383 81.56211 
L 413.472811 81.123762 
L 412.282182 81.373563 
L 411.03157 82.587263 
L 409.826059 83.315905 
L 408.616713 83.029876 
L 407.390456 87.636764 
L 406.173218 89.985075 
L 404.93546 90.770444 
L 402.524888 91.522494 
L 401.311258 92.017271 
L 400.089962 92.690376 
L 397.667438 95.139449 
L 396.472073 96.383757 
L 391.619218 99.961678 
L 390.404686 101.148952 
L 387.989604 103.745935 
L 384.327518 105.206547 
L 381.940622 107.256377 
L 379.522383 110.503176 
L 378.299282 111.67505 
L 377.079339 111.865665 
L 375.863905 112.278026 
L 369.801394 117.647468 
L 368.610314 118.397856 
L 366.18531 120.350916 
L 364.96655 121.531916 
L 360.109326 125.280811 
L 358.882166 125.983954 
L 357.655006 126.433792 
L 355.255709 128.272498 
L 354.030804 129.214712 
L 352.824391 130.601797 
L 351.604447 131.696865 
L 350.370522 132.545352 
L 349.137049 133.251062 
L 347.91034 134.202782 
L 346.689044 134.806685 
L 345.465943 135.884262 
L 344.228411 136.761647 
L 341.842192 137.899181 
L 338.213029 140.562514 
L 334.588348 143.719246 
L 333.405386 144.365277 
L 332.175069 145.235438 
L 329.708573 146.674044 
L 328.469688 147.826907 
L 326.067684 149.26827 
L 324.866682 150.264668 
L 322.477758 151.32751 
L 320.01983 153.368975 
L 318.786357 154.251778 
L 317.54657 155.360914 
L 316.353235 156.19229 
L 313.950329 157.379932 
L 310.36807 160.126299 
L 304.286349 164.186758 
L 303.05964 165.302548 
L 300.671618 166.833361 
L 299.478734 167.126543 
L 297.036141 168.433792 
L 295.823413 169.447109 
L 294.593998 170.275824 
L 293.411488 171.454543 
L 292.211839 172.199607 
L 289.80307 173.335644 
L 287.430832 174.744403 
L 286.208634 175.769698 
L 285.001994 177.008302 
L 283.794453 177.947095 
L 282.579471 178.711741 
L 281.348703 179.724678 
L 280.16078 180.130148 
L 278.973759 180.882056 
L 277.736678 182.002219 
L 276.498892 182.882574 
L 271.700296 185.304412 
L 268.028289 188.333148 
L 266.823679 188.924123 
L 265.625383 189.717762 
L 263.206693 191.059977 
L 260.767031 193.123685 
L 257.191987 194.743757 
L 256.002711 195.442338 
L 253.577256 197.137601 
L 252.392039 198.003769 
L 251.209077 198.529487 
L 249.972898 198.957165 
L 248.746189 199.740347 
L 247.518128 200.859749 
L 245.124721 202.371363 
L 243.917405 203.380308 
L 242.715502 203.810398 
L 240.299066 205.334563 
L 239.066946 206.075064 
L 237.879925 206.566989 
L 234.287292 209.122621 
L 228.223203 212.125359 
L 225.845102 213.697047 
L 224.658532 214.133981 
L 223.473315 214.713644 
L 222.233077 215.603195 
L 219.755757 216.970603 
L 218.515969 217.559962 
L 217.296533 218.277586 
L 216.086511 219.230256 
L 212.44224 221.344535 
L 211.249356 221.744919 
L 210.009569 222.429906 
L 208.787821 223.509574 
L 206.354699 224.946755 
L 202.75936 226.828332 
L 200.284746 228.659528 
L 197.880939 229.740432 
L 196.669113 230.223231 
L 194.273874 231.511932 
L 191.899833 233.091889 
L 188.313063 234.786321 
L 184.612995 237.499114 
L 183.375012 238.133055 
L 182.188893 238.595892 
L 181.004127 238.928547 
L 179.773359 239.456493 
L 176.117587 241.941593 
L 174.894938 242.655383 
L 168.859261 245.381026 
L 166.409677 247.355 
L 165.201911 247.9051 
L 163.972947 248.616609 
L 160.270723 250.118881 
L 159.059122 251.229347 
L 157.82889 252.015029 
L 156.62383 252.580339 
L 154.167256 253.223834 
L 149.312737 256.163025 
L 146.87285 256.839341 
L 145.664406 257.516819 
L 143.242559 259.147823 
L 142.007733 259.902203 
L 139.543943 260.874123 
L 138.327832 261.712724 
L 137.114879 262.711022 
L 135.876896 263.425098 
L 133.482108 264.069911 
L 131.05079 265.106662 
L 126.1609 268.699071 
L 124.968467 269.206395 
L 123.759347 269.51405 
L 122.548423 270.165529 
L 121.341108 270.372518 
L 120.151381 270.735521 
L 118.92377 271.552068 
L 117.692101 272.78516 
L 116.485687 272.894961 
L 115.275665 273.153637 
L 114.084134 273.553546 
L 112.864642 274.098893 
L 111.62756 275.148903 
L 110.430392 276.794546 
L 107.977426 276.778413 
L 105.546331 277.231108 
L 104.33879 278.595665 
L 103.148838 280.288786 
L 101.923031 279.94326 
L 100.738265 279.830509 
L 99.516518 280.012771 
L 98.295344 279.926022 
L 95.889282 284.401581 
L 93.44714 284.122425 
L 92.239373 284.216423 
L 91.018075 283.70131 
L 89.827897 284.862241 
L 88.605248 288.26983 
L 87.377637 288.088079 
L 86.138752 287.718399 
L 83.703375 287.829527 
L 82.504853 287.186888 
L 81.308361 290.133684 
L 80.097438 291.06 
L 78.888318 290.013032 
L 77.701072 289.303567 
L 77.2326 288.837498 
L 77.093242 288.49586 
L 77.003037 287.712612 
L 77.003037 287.712612 
" clip-path="url(#pef69685f92)" style="fill: none; stroke: #000000; stroke-width: 2; stroke-linecap: square"/>
   </g>
   <g id="patch_3">
    <path d="M 59.24 303.64 
L 59.24 26.88 
" style="fill: none; stroke: #000000; stroke-width: 0.8; stroke-linejoin: miter; stroke-linecap: square"/>
   </g>
   <g id="patch_4">
    <path d="M 450 303.64 
L 450 26.88 
" style="fill: none; stroke: #000000; stroke-width: 0.8; stroke-linejoin: miter; stroke-linecap: square"/>
   </g>
   <g id="patch_5">
    <path d="M 59.24 303.64 
L 450 303.64 
" style="fill: none; stroke: #000000; stroke-width: 0.8; stroke-linejoin: miter; stroke-linecap: square"/>
   </g>
   <g id="patch_6">
    <path d="M 59.24 26.88 
L 450 26.88 
" style="fill: none; stroke: #000000; stroke-width: 0.8; stroke-linejoin: miter; stroke-linecap: square"/>
   </g>
   <g id="text_16">
    <!-- 2025-06-16 Trial 15 - Stress vs Strain -->
    <g transform="translate(143.365938 20.88) scale(0.12 -0.12)">
     <defs>
      <path id="DejaVuSans-54" d="M -19 4666 
L 3928 4666 
L 3928 4134 
L 2272 4134 
L 2272 0 
L 1638 0 
L 1638 4134 
L -19 4134 
L -19 4666 
z
" transform="scale(0.015625)"/>
      <path id="DejaVuSans-6c" d="M 603 4863 
L 1178 4863 
L 1178 0 
L 603 0 
L 603 4863 
z
" transform="scale(0.015625)"/>
      <path id="DejaVuSans-76" d="M 191 3500 
L 800 3500 
L 1894 563 
L 2988 3500 
L 3597 3500 
L 2284 0 
L 1503 0 
L 191 3500 
z
" transform="scale(0.015625)"/>
     </defs>
     <use xlink:href="#DejaVuSans-32"/>
     <use xlink:href="#DejaVuSans-30" transform="translate(63.623047 0)"/>
     <use xlink:href="#DejaVuSans-32" transform="translate(127.246094 0)"/>
     <use xlink:href="#DejaVuSans-35" transform="translate(190.869141 0)"/>
     <use xlink:href="#DejaVuSans-2d" transform="translate(254.492188 0)"/>
     <use xlink:href="#DejaVuSans-30" transform="translate(290.576172 0)"/>
     <use xlink:href="#DejaVuSans-36" transform="translate(354.199219 0)"/>
     <use xlink:href="#DejaVuSans-2d" transform="translate(417.822266 0)"/>
     <use xlink:href="#DejaVuSans-31" transform="translate(453.90625 0)"/>
     <use xlink:href="#DejaVuSans-36" transform="translate(517.529297 0)"/>
     <use xlink:href="#DejaVuSans-20" transform="translate(581.152344 0)"/>
     <use xlink:href="#DejaVuSans-54" transform="translate(612.939453 0)"/>
     <use xlink:href="#DejaVuSans-72" transform="translate(659.273438 0)"/>
     <use xlink:href="#DejaVuSans-69" transform="translate(700.386719 0)"/>
     <use xlink:href="#DejaVuSans-61" transform="translate(728.169922 0)"/>
     <use xlink:href="#DejaVuSans-6c" transform="translate(789.449219 0)"/>
     <use xlink:href="#DejaVuSans-20" transform="translate(817.232422 0)"/>
     <use xlink:href="#DejaVuSans-31" transform="translate(849.019531 0)"/>
     <use xlink:href="#DejaVuSans-35" transform="translate(912.642578 0)"/>
     <use xlink:href="#DejaVuSans-20" transform="translate(976.265625 0)"/>
     <use xlink:href="#DejaVuSans-2d" transform="translate(1008.052734 0)"/>
     <use xlink:href="#DejaVuSans-20" transform="translate(1044.136719 0)"/>
     <use xlink:href="#DejaVuSans-53" transform="translate(1075.923828 0)"/>
     <use xlink:href="#DejaVuSans-74" transform="translate(1139.400391 0)"/>
     <use xlink:href="#DejaVuSans-72" transform="translate(1178.609375 0)"/>
     <use xlink:href="#DejaVuSans-65" transform="translate(1217.472656 0)"/>
     <use xlink:href="#DejaVuSans-73" transform="translate(1278.996094 0)"/>
     <use xlink:href="#DejaVuSans-73" transform="translate(1331.095703 0)"/>
     <use xlink:href="#DejaVuSans-20" transform="translate(1383.195312 0)"/>
     <use xlink:href="#DejaVuSans-76" transform="translate(1414.982422 0)"/>
     <use xlink:href="#DejaVuSans-73" transform="translate(1474.162109 0)"/>
     <use xlink:href="#DejaVuSans-20" transform="translate(1526.261719 0)"/>
     <use xlink:href="#DejaVuSans-53" transform="translate(1558.048828 0)"/>
     <use xlink:href="#DejaVuSans-74" transform="translate(1621.525391 0)"/>
     <use xlink:href="#DejaVuSans-72" transform="translate(1660.734375 0)"/>
     <use xlink:href="#DejaVuSans-61" transform="translate(1701.847656 0)"/>
     <use xlink:href="#DejaVuSans-69" transform="translate(1763.126953 0)"/>
     <use xlink:href="#DejaVuSans-6e" transform="translate(1790.910156 0)"/>
    </g>
   </g>
   <g id="legend_1">
    <g id="patch_7">
     <path d="M 66.24 64.23625 
L 172.224375 64.23625 
Q 174.224375 64.23625 174.224375 62.23625 
L 174.224375 33.88 
Q 174.224375 31.88 172.224375 31.88 
L 66.24 31.88 
Q 64.24 31.88 64.24 33.88 
L 64.24 62.23625 
Q 64.24 64.23625 66.24 64.23625 
z
" style="fill: #ffffff; opacity: 0.8; stroke: #cccccc; stroke-linejoin: miter"/>
    </g>
    <g id="line2d_29">
     <path d="M 68.24 39.978437 
L 78.24 39.978437 
L 88.24 39.978437 
" style="fill: none; stroke: #ff0000; stroke-width: 2; stroke-linecap: square"/>
    </g>
    <g id="text_17">
     <!-- Raw Force -->
     <g transform="translate(96.24 43.478437) scale(0.1 -0.1)">
      <defs>
       <path id="DejaVuSans-52" d="M 2841 2188 
Q 3044 2119 3236 1894 
Q 3428 1669 3622 1275 
L 4263 0 
L 3584 0 
L 2988 1197 
Q 2756 1666 2539 1819 
Q 2322 1972 1947 1972 
L 1259 1972 
L 1259 0 
L 628 0 
L 628 4666 
L 2053 4666 
Q 2853 4666 3247 4331 
Q 3641 3997 3641 3322 
Q 3641 2881 3436 2590 
Q 3231 2300 2841 2188 
z
M 1259 4147 
L 1259 2491 
L 2053 2491 
Q 2509 2491 2742 2702 
Q 2975 2913 2975 3322 
Q 2975 3731 2742 3939 
Q 2509 4147 2053 4147 
L 1259 4147 
z
" transform="scale(0.015625)"/>
       <path id="DejaVuSans-77" d="M 269 3500 
L 844 3500 
L 1563 769 
L 2278 3500 
L 2956 3500 
L 3675 769 
L 4391 3500 
L 4966 3500 
L 4050 0 
L 3372 0 
L 2619 2869 
L 1863 0 
L 1184 0 
L 269 3500 
z
" transform="scale(0.015625)"/>
       <path id="DejaVuSans-46" d="M 628 4666 
L 3309 4666 
L 3309 4134 
L 1259 4134 
L 1259 2759 
L 3109 2759 
L 3109 2228 
L 1259 2228 
L 1259 0 
L 628 0 
L 628 4666 
z
" transform="scale(0.015625)"/>
       <path id="DejaVuSans-6f" d="M 1959 3097 
Q 1497 3097 1228 2736 
Q 959 2375 959 1747 
Q 959 1119 1226 758 
Q 1494 397 1959 397 
Q 2419 397 2687 759 
Q 2956 1122 2956 1747 
Q 2956 2369 2687 2733 
Q 2419 3097 1959 3097 
z
M 1959 3584 
Q 2709 3584 3137 3096 
Q 3566 2609 3566 1747 
Q 3566 888 3137 398 
Q 2709 -91 1959 -91 
Q 1206 -91 779 398 
Q 353 888 353 1747 
Q 353 2609 779 3096 
Q 1206 3584 1959 3584 
z
" transform="scale(0.015625)"/>
       <path id="DejaVuSans-63" d="M 3122 3366 
L 3122 2828 
Q 2878 2963 2633 3030 
Q 2388 3097 2138 3097 
Q 1578 3097 1268 2742 
Q 959 2388 959 1747 
Q 959 1106 1268 751 
Q 1578 397 2138 397 
Q 2388 397 2633 464 
Q 2878 531 3122 666 
L 3122 134 
Q 2881 22 2623 -34 
Q 2366 -91 2075 -91 
Q 1284 -91 818 406 
Q 353 903 353 1747 
Q 353 2603 823 3093 
Q 1294 3584 2113 3584 
Q 2378 3584 2631 3529 
Q 2884 3475 3122 3366 
z
" transform="scale(0.015625)"/>
      </defs>
      <use xlink:href="#DejaVuSans-52"/>
      <use xlink:href="#DejaVuSans-61" transform="translate(67.232422 0)"/>
      <use xlink:href="#DejaVuSans-77" transform="translate(128.511719 0)"/>
      <use xlink:href="#DejaVuSans-20" transform="translate(210.298828 0)"/>
      <use xlink:href="#DejaVuSans-46" transform="translate(242.085938 0)"/>
      <use xlink:href="#DejaVuSans-6f" transform="translate(295.980469 0)"/>
      <use xlink:href="#DejaVuSans-72" transform="translate(357.162109 0)"/>
      <use xlink:href="#DejaVuSans-63" transform="translate(396.025391 0)"/>
      <use xlink:href="#DejaVuSans-65" transform="translate(451.005859 0)"/>
     </g>
    </g>
    <g id="line2d_30">
     <path d="M 68.24 54.656563 
L 78.24 54.656563 
L 88.24 54.656563 
" style="fill: none; stroke: #000000; stroke-width: 2; stroke-linecap: square"/>
    </g>
    <g id="text_18">
     <!-- Adjusted Force -->
     <g transform="translate(96.24 58.156563) scale(0.1 -0.1)">
      <defs>
       <path id="DejaVuSans-41" d="M 2188 4044 
L 1331 1722 
L 3047 1722 
L 2188 4044 
z
M 1831 4666 
L 2547 4666 
L 4325 0 
L 3669 0 
L 3244 1197 
L 1141 1197 
L 716 0 
L 50 0 
L 1831 4666 
z
" transform="scale(0.015625)"/>
       <path id="DejaVuSans-64" d="M 2906 2969 
L 2906 4863 
L 3481 4863 
L 3481 0 
L 2906 0 
L 2906 525 
Q 2725 213 2448 61 
Q 2172 -91 1784 -91 
Q 1150 -91 751 415 
Q 353 922 353 1747 
Q 353 2572 751 3078 
Q 1150 3584 1784 3584 
Q 2172 3584 2448 3432 
Q 2725 3281 2906 2969 
z
M 947 1747 
Q 947 1113 1208 752 
Q 1469 391 1925 391 
Q 2381 391 2643 752 
Q 2906 1113 2906 1747 
Q 2906 2381 2643 2742 
Q 2381 3103 1925 3103 
Q 1469 3103 1208 2742 
Q 947 2381 947 1747 
z
" transform="scale(0.015625)"/>
       <path id="DejaVuSans-6a" d="M 603 3500 
L 1178 3500 
L 1178 -63 
Q 1178 -731 923 -1031 
Q 669 -1331 103 -1331 
L -116 -1331 
L -116 -844 
L 38 -844 
Q 366 -844 484 -692 
Q 603 -541 603 -63 
L 603 3500 
z
M 603 4863 
L 1178 4863 
L 1178 4134 
L 603 4134 
L 603 4863 
z
" transform="scale(0.015625)"/>
       <path id="DejaVuSans-75" d="M 544 1381 
L 544 3500 
L 1119 3500 
L 1119 1403 
Q 1119 906 1312 657 
Q 1506 409 1894 409 
Q 2359 409 2629 706 
Q 2900 1003 2900 1516 
L 2900 3500 
L 3475 3500 
L 3475 0 
L 2900 0 
L 2900 538 
Q 2691 219 2414 64 
Q 2138 -91 1772 -91 
Q 1169 -91 856 284 
Q 544 659 544 1381 
z
M 1991 3584 
L 1991 3584 
z
" transform="scale(0.015625)"/>
      </defs>
      <use xlink:href="#DejaVuSans-41"/>
      <use xlink:href="#DejaVuSans-64" transform="translate(66.658203 0)"/>
      <use xlink:href="#DejaVuSans-6a" transform="translate(130.134766 0)"/>
      <use xlink:href="#DejaVuSans-75" transform="translate(157.917969 0)"/>
      <use xlink:href="#DejaVuSans-73" transform="translate(221.296875 0)"/>
      <use xlink:href="#DejaVuSans-74" transform="translate(273.396484 0)"/>
      <use xlink:href="#DejaVuSans-65" transform="translate(312.605469 0)"/>
      <use xlink:href="#DejaVuSans-64" transform="translate(374.128906 0)"/>
      <use xlink:href="#DejaVuSans-20" transform="translate(437.605469 0)"/>
      <use xlink:href="#DejaVuSans-46" transform="translate(469.392578 0)"/>
      <use xlink:href="#DejaVuSans-6f" transform="translate(523.287109 0)"/>
      <use xlink:href="#DejaVuSans-72" transform="translate(584.46875 0)"/>
      <use xlink:href="#DejaVuSans-63" transform="translate(623.332031 0)"/>
      <use xlink:href="#DejaVuSans-65" transform="translate(678.3125 0)"/>
     </g>
    </g>
   </g>
  </g>
 </g>
 <defs>
  <clipPath id="pef69685f92">
   <rect x="59.24" y="26.88" width="390.76" height="276.76"/>
  </clipPath>
 </defs>
</svg>
