<?xml version="1.0" encoding="utf-8" standalone="no"?>
<!DOCTYPE svg PUBLIC "-//W3C//DTD SVG 1.1//EN"
  "http://www.w3.org/Graphics/SVG/1.1/DTD/svg11.dtd">
<svg xmlns:xlink="http://www.w3.org/1999/xlink" width="460.8pt" height="345.6pt" viewBox="0 0 460.8 345.6" xmlns="http://www.w3.org/2000/svg" version="1.1">
 <metadata>
  <rdf:RDF xmlns:dc="http://purl.org/dc/elements/1.1/" xmlns:cc="http://creativecommons.org/ns#" xmlns:rdf="http://www.w3.org/1999/02/22-rdf-syntax-ns#">
   <cc:Work>
    <dc:type rdf:resource="http://purl.org/dc/dcmitype/StillImage"/>
    <dc:date>2025-07-28T21:14:01.851068</dc:date>
    <dc:format>image/svg+xml</dc:format>
    <dc:creator>
     <cc:Agent>
      <dc:title>Matplotlib v3.10.3, https://matplotlib.org/</dc:title>
     </cc:Agent>
    </dc:creator>
   </cc:Work>
  </rdf:RDF>
 </metadata>
 <defs>
  <style type="text/css">*{stroke-linejoin: round; stroke-linecap: butt}</style>
 </defs>
 <g id="figure_1">
  <g id="patch_1">
   <path d="M 0 345.6 
L 460.8 345.6 
L 460.8 0 
L 0 0 
z
" style="fill: #ffffff"/>
  </g>
  <g id="axes_1">
   <g id="patch_2">
    <path d="M 59.15 303.64 
L 450 303.64 
L 450 26.88 
L 59.15 26.88 
z
" style="fill: #ffffff"/>
   </g>
   <g id="matplotlib.axis_1">
    <g id="xtick_1">
     <g id="line2d_1">
      <path d="M 136.207516 303.64 
L 136.207516 26.88 
" clip-path="url(#p54a692bef4)" style="fill: none; stroke: #b0b0b0; stroke-opacity: 0.3; stroke-width: 0.8; stroke-linecap: square"/>
     </g>
     <g id="line2d_2">
      <defs>
       <path id="m08956ccf0a" d="M 0 0 
L 0 3.5 
" style="stroke: #000000; stroke-width: 0.8"/>
      </defs>
      <g>
       <use xlink:href="#m08956ccf0a" x="136.207516" y="303.64" style="stroke: #000000; stroke-width: 0.8"/>
      </g>
     </g>
     <g id="text_1">
      <!-- 0.00 -->
      <g transform="translate(125.074704 318.238437) scale(0.1 -0.1)">
       <defs>
        <path id="DejaVuSans-30" d="M 2034 4250 
Q 1547 4250 1301 3770 
Q 1056 3291 1056 2328 
Q 1056 1369 1301 889 
Q 1547 409 2034 409 
Q 2525 409 2770 889 
Q 3016 1369 3016 2328 
Q 3016 3291 2770 3770 
Q 2525 4250 2034 4250 
z
M 2034 4750 
Q 2819 4750 3233 4129 
Q 3647 3509 3647 2328 
Q 3647 1150 3233 529 
Q 2819 -91 2034 -91 
Q 1250 -91 836 529 
Q 422 1150 422 2328 
Q 422 3509 836 4129 
Q 1250 4750 2034 4750 
z
" transform="scale(0.015625)"/>
        <path id="DejaVuSans-2e" d="M 684 794 
L 1344 794 
L 1344 0 
L 684 0 
L 684 794 
z
" transform="scale(0.015625)"/>
       </defs>
       <use xlink:href="#DejaVuSans-30"/>
       <use xlink:href="#DejaVuSans-2e" transform="translate(63.623047 0)"/>
       <use xlink:href="#DejaVuSans-30" transform="translate(95.410156 0)"/>
       <use xlink:href="#DejaVuSans-30" transform="translate(159.033203 0)"/>
      </g>
     </g>
    </g>
    <g id="xtick_2">
     <g id="line2d_3">
      <path d="M 216.076102 303.64 
L 216.076102 26.88 
" clip-path="url(#p54a692bef4)" style="fill: none; stroke: #b0b0b0; stroke-opacity: 0.3; stroke-width: 0.8; stroke-linecap: square"/>
     </g>
     <g id="line2d_4">
      <g>
       <use xlink:href="#m08956ccf0a" x="216.076102" y="303.64" style="stroke: #000000; stroke-width: 0.8"/>
      </g>
     </g>
     <g id="text_2">
      <!-- 0.05 -->
      <g transform="translate(204.94329 318.238437) scale(0.1 -0.1)">
       <defs>
        <path id="DejaVuSans-35" d="M 691 4666 
L 3169 4666 
L 3169 4134 
L 1269 4134 
L 1269 2991 
Q 1406 3038 1543 3061 
Q 1681 3084 1819 3084 
Q 2600 3084 3056 2656 
Q 3513 2228 3513 1497 
Q 3513 744 3044 326 
Q 2575 -91 1722 -91 
Q 1428 -91 1123 -41 
Q 819 9 494 109 
L 494 744 
Q 775 591 1075 516 
Q 1375 441 1709 441 
Q 2250 441 2565 725 
Q 2881 1009 2881 1497 
Q 2881 1984 2565 2268 
Q 2250 2553 1709 2553 
Q 1456 2553 1204 2497 
Q 953 2441 691 2322 
L 691 4666 
z
" transform="scale(0.015625)"/>
       </defs>
       <use xlink:href="#DejaVuSans-30"/>
       <use xlink:href="#DejaVuSans-2e" transform="translate(63.623047 0)"/>
       <use xlink:href="#DejaVuSans-30" transform="translate(95.410156 0)"/>
       <use xlink:href="#DejaVuSans-35" transform="translate(159.033203 0)"/>
      </g>
     </g>
    </g>
    <g id="xtick_3">
     <g id="line2d_5">
      <path d="M 295.944689 303.64 
L 295.944689 26.88 
" clip-path="url(#p54a692bef4)" style="fill: none; stroke: #b0b0b0; stroke-opacity: 0.3; stroke-width: 0.8; stroke-linecap: square"/>
     </g>
     <g id="line2d_6">
      <g>
       <use xlink:href="#m08956ccf0a" x="295.944689" y="303.64" style="stroke: #000000; stroke-width: 0.8"/>
      </g>
     </g>
     <g id="text_3">
      <!-- 0.10 -->
      <g transform="translate(284.811876 318.238437) scale(0.1 -0.1)">
       <defs>
        <path id="DejaVuSans-31" d="M 794 531 
L 1825 531 
L 1825 4091 
L 703 3866 
L 703 4441 
L 1819 4666 
L 2450 4666 
L 2450 531 
L 3481 531 
L 3481 0 
L 794 0 
L 794 531 
z
" transform="scale(0.015625)"/>
       </defs>
       <use xlink:href="#DejaVuSans-30"/>
       <use xlink:href="#DejaVuSans-2e" transform="translate(63.623047 0)"/>
       <use xlink:href="#DejaVuSans-31" transform="translate(95.410156 0)"/>
       <use xlink:href="#DejaVuSans-30" transform="translate(159.033203 0)"/>
      </g>
     </g>
    </g>
    <g id="xtick_4">
     <g id="line2d_7">
      <path d="M 375.813275 303.64 
L 375.813275 26.88 
" clip-path="url(#p54a692bef4)" style="fill: none; stroke: #b0b0b0; stroke-opacity: 0.3; stroke-width: 0.8; stroke-linecap: square"/>
     </g>
     <g id="line2d_8">
      <g>
       <use xlink:href="#m08956ccf0a" x="375.813275" y="303.64" style="stroke: #000000; stroke-width: 0.8"/>
      </g>
     </g>
     <g id="text_4">
      <!-- 0.15 -->
      <g transform="translate(364.680462 318.238437) scale(0.1 -0.1)">
       <use xlink:href="#DejaVuSans-30"/>
       <use xlink:href="#DejaVuSans-2e" transform="translate(63.623047 0)"/>
       <use xlink:href="#DejaVuSans-31" transform="translate(95.410156 0)"/>
       <use xlink:href="#DejaVuSans-35" transform="translate(159.033203 0)"/>
      </g>
     </g>
    </g>
    <g id="text_5">
     <!-- Strain [-] -->
     <g transform="translate(232.46875 331.916562) scale(0.1 -0.1)">
      <defs>
       <path id="DejaVuSans-53" d="M 3425 4513 
L 3425 3897 
Q 3066 4069 2747 4153 
Q 2428 4238 2131 4238 
Q 1616 4238 1336 4038 
Q 1056 3838 1056 3469 
Q 1056 3159 1242 3001 
Q 1428 2844 1947 2747 
L 2328 2669 
Q 3034 2534 3370 2195 
Q 3706 1856 3706 1288 
Q 3706 609 3251 259 
Q 2797 -91 1919 -91 
Q 1588 -91 1214 -16 
Q 841 59 441 206 
L 441 856 
Q 825 641 1194 531 
Q 1563 422 1919 422 
Q 2459 422 2753 634 
Q 3047 847 3047 1241 
Q 3047 1584 2836 1778 
Q 2625 1972 2144 2069 
L 1759 2144 
Q 1053 2284 737 2584 
Q 422 2884 422 3419 
Q 422 4038 858 4394 
Q 1294 4750 2059 4750 
Q 2388 4750 2728 4690 
Q 3069 4631 3425 4513 
z
" transform="scale(0.015625)"/>
       <path id="DejaVuSans-74" d="M 1172 4494 
L 1172 3500 
L 2356 3500 
L 2356 3053 
L 1172 3053 
L 1172 1153 
Q 1172 725 1289 603 
Q 1406 481 1766 481 
L 2356 481 
L 2356 0 
L 1766 0 
Q 1100 0 847 248 
Q 594 497 594 1153 
L 594 3053 
L 172 3053 
L 172 3500 
L 594 3500 
L 594 4494 
L 1172 4494 
z
" transform="scale(0.015625)"/>
       <path id="DejaVuSans-72" d="M 2631 2963 
Q 2534 3019 2420 3045 
Q 2306 3072 2169 3072 
Q 1681 3072 1420 2755 
Q 1159 2438 1159 1844 
L 1159 0 
L 581 0 
L 581 3500 
L 1159 3500 
L 1159 2956 
Q 1341 3275 1631 3429 
Q 1922 3584 2338 3584 
Q 2397 3584 2469 3576 
Q 2541 3569 2628 3553 
L 2631 2963 
z
" transform="scale(0.015625)"/>
       <path id="DejaVuSans-61" d="M 2194 1759 
Q 1497 1759 1228 1600 
Q 959 1441 959 1056 
Q 959 750 1161 570 
Q 1363 391 1709 391 
Q 2188 391 2477 730 
Q 2766 1069 2766 1631 
L 2766 1759 
L 2194 1759 
z
M 3341 1997 
L 3341 0 
L 2766 0 
L 2766 531 
Q 2569 213 2275 61 
Q 1981 -91 1556 -91 
Q 1019 -91 701 211 
Q 384 513 384 1019 
Q 384 1609 779 1909 
Q 1175 2209 1959 2209 
L 2766 2209 
L 2766 2266 
Q 2766 2663 2505 2880 
Q 2244 3097 1772 3097 
Q 1472 3097 1187 3025 
Q 903 2953 641 2809 
L 641 3341 
Q 956 3463 1253 3523 
Q 1550 3584 1831 3584 
Q 2591 3584 2966 3190 
Q 3341 2797 3341 1997 
z
" transform="scale(0.015625)"/>
       <path id="DejaVuSans-69" d="M 603 3500 
L 1178 3500 
L 1178 0 
L 603 0 
L 603 3500 
z
M 603 4863 
L 1178 4863 
L 1178 4134 
L 603 4134 
L 603 4863 
z
" transform="scale(0.015625)"/>
       <path id="DejaVuSans-6e" d="M 3513 2113 
L 3513 0 
L 2938 0 
L 2938 2094 
Q 2938 2591 2744 2837 
Q 2550 3084 2163 3084 
Q 1697 3084 1428 2787 
Q 1159 2491 1159 1978 
L 1159 0 
L 581 0 
L 581 3500 
L 1159 3500 
L 1159 2956 
Q 1366 3272 1645 3428 
Q 1925 3584 2291 3584 
Q 2894 3584 3203 3211 
Q 3513 2838 3513 2113 
z
" transform="scale(0.015625)"/>
       <path id="DejaVuSans-20" transform="scale(0.015625)"/>
       <path id="DejaVuSans-5b" d="M 550 4863 
L 1875 4863 
L 1875 4416 
L 1125 4416 
L 1125 -397 
L 1875 -397 
L 1875 -844 
L 550 -844 
L 550 4863 
z
" transform="scale(0.015625)"/>
       <path id="DejaVuSans-2d" d="M 313 2009 
L 1997 2009 
L 1997 1497 
L 313 1497 
L 313 2009 
z
" transform="scale(0.015625)"/>
       <path id="DejaVuSans-5d" d="M 1947 4863 
L 1947 -844 
L 622 -844 
L 622 -397 
L 1369 -397 
L 1369 4416 
L 622 4416 
L 622 4863 
L 1947 4863 
z
" transform="scale(0.015625)"/>
      </defs>
      <use xlink:href="#DejaVuSans-53"/>
      <use xlink:href="#DejaVuSans-74" transform="translate(63.476562 0)"/>
      <use xlink:href="#DejaVuSans-72" transform="translate(102.685547 0)"/>
      <use xlink:href="#DejaVuSans-61" transform="translate(143.798828 0)"/>
      <use xlink:href="#DejaVuSans-69" transform="translate(205.078125 0)"/>
      <use xlink:href="#DejaVuSans-6e" transform="translate(232.861328 0)"/>
      <use xlink:href="#DejaVuSans-20" transform="translate(296.240234 0)"/>
      <use xlink:href="#DejaVuSans-5b" transform="translate(328.027344 0)"/>
      <use xlink:href="#DejaVuSans-2d" transform="translate(367.041016 0)"/>
      <use xlink:href="#DejaVuSans-5d" transform="translate(403.125 0)"/>
     </g>
    </g>
   </g>
   <g id="matplotlib.axis_2">
    <g id="ytick_1">
     <g id="line2d_9">
      <path d="M 59.15 277.267152 
L 450 277.267152 
" clip-path="url(#p54a692bef4)" style="fill: none; stroke: #b0b0b0; stroke-opacity: 0.3; stroke-width: 0.8; stroke-linecap: square"/>
     </g>
     <g id="line2d_10">
      <defs>
       <path id="m9c93357ff1" d="M 0 0 
L -3.5 0 
" style="stroke: #000000; stroke-width: 0.8"/>
      </defs>
      <g>
       <use xlink:href="#m9c93357ff1" x="59.15" y="277.267152" style="stroke: #000000; stroke-width: 0.8"/>
      </g>
     </g>
     <g id="text_6">
      <!-- −200 -->
      <g transform="translate(24.682813 281.066371) scale(0.1 -0.1)">
       <defs>
        <path id="DejaVuSans-2212" d="M 678 2272 
L 4684 2272 
L 4684 1741 
L 678 1741 
L 678 2272 
z
" transform="scale(0.015625)"/>
        <path id="DejaVuSans-32" d="M 1228 531 
L 3431 531 
L 3431 0 
L 469 0 
L 469 531 
Q 828 903 1448 1529 
Q 2069 2156 2228 2338 
Q 2531 2678 2651 2914 
Q 2772 3150 2772 3378 
Q 2772 3750 2511 3984 
Q 2250 4219 1831 4219 
Q 1534 4219 1204 4116 
Q 875 4013 500 3803 
L 500 4441 
Q 881 4594 1212 4672 
Q 1544 4750 1819 4750 
Q 2544 4750 2975 4387 
Q 3406 4025 3406 3419 
Q 3406 3131 3298 2873 
Q 3191 2616 2906 2266 
Q 2828 2175 2409 1742 
Q 1991 1309 1228 531 
z
" transform="scale(0.015625)"/>
       </defs>
       <use xlink:href="#DejaVuSans-2212"/>
       <use xlink:href="#DejaVuSans-32" transform="translate(83.789062 0)"/>
       <use xlink:href="#DejaVuSans-30" transform="translate(147.412109 0)"/>
       <use xlink:href="#DejaVuSans-30" transform="translate(211.035156 0)"/>
      </g>
     </g>
    </g>
    <g id="ytick_2">
     <g id="line2d_11">
      <path d="M 59.15 238.096199 
L 450 238.096199 
" clip-path="url(#p54a692bef4)" style="fill: none; stroke: #b0b0b0; stroke-opacity: 0.3; stroke-width: 0.8; stroke-linecap: square"/>
     </g>
     <g id="line2d_12">
      <g>
       <use xlink:href="#m9c93357ff1" x="59.15" y="238.096199" style="stroke: #000000; stroke-width: 0.8"/>
      </g>
     </g>
     <g id="text_7">
      <!-- 0 -->
      <g transform="translate(45.7875 241.895417) scale(0.1 -0.1)">
       <use xlink:href="#DejaVuSans-30"/>
      </g>
     </g>
    </g>
    <g id="ytick_3">
     <g id="line2d_13">
      <path d="M 59.15 198.925245 
L 450 198.925245 
" clip-path="url(#p54a692bef4)" style="fill: none; stroke: #b0b0b0; stroke-opacity: 0.3; stroke-width: 0.8; stroke-linecap: square"/>
     </g>
     <g id="line2d_14">
      <g>
       <use xlink:href="#m9c93357ff1" x="59.15" y="198.925245" style="stroke: #000000; stroke-width: 0.8"/>
      </g>
     </g>
     <g id="text_8">
      <!-- 200 -->
      <g transform="translate(33.0625 202.724464) scale(0.1 -0.1)">
       <use xlink:href="#DejaVuSans-32"/>
       <use xlink:href="#DejaVuSans-30" transform="translate(63.623047 0)"/>
       <use xlink:href="#DejaVuSans-30" transform="translate(127.246094 0)"/>
      </g>
     </g>
    </g>
    <g id="ytick_4">
     <g id="line2d_15">
      <path d="M 59.15 159.754291 
L 450 159.754291 
" clip-path="url(#p54a692bef4)" style="fill: none; stroke: #b0b0b0; stroke-opacity: 0.3; stroke-width: 0.8; stroke-linecap: square"/>
     </g>
     <g id="line2d_16">
      <g>
       <use xlink:href="#m9c93357ff1" x="59.15" y="159.754291" style="stroke: #000000; stroke-width: 0.8"/>
      </g>
     </g>
     <g id="text_9">
      <!-- 400 -->
      <g transform="translate(33.0625 163.55351) scale(0.1 -0.1)">
       <defs>
        <path id="DejaVuSans-34" d="M 2419 4116 
L 825 1625 
L 2419 1625 
L 2419 4116 
z
M 2253 4666 
L 3047 4666 
L 3047 1625 
L 3713 1625 
L 3713 1100 
L 3047 1100 
L 3047 0 
L 2419 0 
L 2419 1100 
L 313 1100 
L 313 1709 
L 2253 4666 
z
" transform="scale(0.015625)"/>
       </defs>
       <use xlink:href="#DejaVuSans-34"/>
       <use xlink:href="#DejaVuSans-30" transform="translate(63.623047 0)"/>
       <use xlink:href="#DejaVuSans-30" transform="translate(127.246094 0)"/>
      </g>
     </g>
    </g>
    <g id="ytick_5">
     <g id="line2d_17">
      <path d="M 59.15 120.583338 
L 450 120.583338 
" clip-path="url(#p54a692bef4)" style="fill: none; stroke: #b0b0b0; stroke-opacity: 0.3; stroke-width: 0.8; stroke-linecap: square"/>
     </g>
     <g id="line2d_18">
      <g>
       <use xlink:href="#m9c93357ff1" x="59.15" y="120.583338" style="stroke: #000000; stroke-width: 0.8"/>
      </g>
     </g>
     <g id="text_10">
      <!-- 600 -->
      <g transform="translate(33.0625 124.382556) scale(0.1 -0.1)">
       <defs>
        <path id="DejaVuSans-36" d="M 2113 2584 
Q 1688 2584 1439 2293 
Q 1191 2003 1191 1497 
Q 1191 994 1439 701 
Q 1688 409 2113 409 
Q 2538 409 2786 701 
Q 3034 994 3034 1497 
Q 3034 2003 2786 2293 
Q 2538 2584 2113 2584 
z
M 3366 4563 
L 3366 3988 
Q 3128 4100 2886 4159 
Q 2644 4219 2406 4219 
Q 1781 4219 1451 3797 
Q 1122 3375 1075 2522 
Q 1259 2794 1537 2939 
Q 1816 3084 2150 3084 
Q 2853 3084 3261 2657 
Q 3669 2231 3669 1497 
Q 3669 778 3244 343 
Q 2819 -91 2113 -91 
Q 1303 -91 875 529 
Q 447 1150 447 2328 
Q 447 3434 972 4092 
Q 1497 4750 2381 4750 
Q 2619 4750 2861 4703 
Q 3103 4656 3366 4563 
z
" transform="scale(0.015625)"/>
       </defs>
       <use xlink:href="#DejaVuSans-36"/>
       <use xlink:href="#DejaVuSans-30" transform="translate(63.623047 0)"/>
       <use xlink:href="#DejaVuSans-30" transform="translate(127.246094 0)"/>
      </g>
     </g>
    </g>
    <g id="ytick_6">
     <g id="line2d_19">
      <path d="M 59.15 81.412384 
L 450 81.412384 
" clip-path="url(#p54a692bef4)" style="fill: none; stroke: #b0b0b0; stroke-opacity: 0.3; stroke-width: 0.8; stroke-linecap: square"/>
     </g>
     <g id="line2d_20">
      <g>
       <use xlink:href="#m9c93357ff1" x="59.15" y="81.412384" style="stroke: #000000; stroke-width: 0.8"/>
      </g>
     </g>
     <g id="text_11">
      <!-- 800 -->
      <g transform="translate(33.0625 85.211603) scale(0.1 -0.1)">
       <defs>
        <path id="DejaVuSans-38" d="M 2034 2216 
Q 1584 2216 1326 1975 
Q 1069 1734 1069 1313 
Q 1069 891 1326 650 
Q 1584 409 2034 409 
Q 2484 409 2743 651 
Q 3003 894 3003 1313 
Q 3003 1734 2745 1975 
Q 2488 2216 2034 2216 
z
M 1403 2484 
Q 997 2584 770 2862 
Q 544 3141 544 3541 
Q 544 4100 942 4425 
Q 1341 4750 2034 4750 
Q 2731 4750 3128 4425 
Q 3525 4100 3525 3541 
Q 3525 3141 3298 2862 
Q 3072 2584 2669 2484 
Q 3125 2378 3379 2068 
Q 3634 1759 3634 1313 
Q 3634 634 3220 271 
Q 2806 -91 2034 -91 
Q 1263 -91 848 271 
Q 434 634 434 1313 
Q 434 1759 690 2068 
Q 947 2378 1403 2484 
z
M 1172 3481 
Q 1172 3119 1398 2916 
Q 1625 2713 2034 2713 
Q 2441 2713 2670 2916 
Q 2900 3119 2900 3481 
Q 2900 3844 2670 4047 
Q 2441 4250 2034 4250 
Q 1625 4250 1398 4047 
Q 1172 3844 1172 3481 
z
" transform="scale(0.015625)"/>
       </defs>
       <use xlink:href="#DejaVuSans-38"/>
       <use xlink:href="#DejaVuSans-30" transform="translate(63.623047 0)"/>
       <use xlink:href="#DejaVuSans-30" transform="translate(127.246094 0)"/>
      </g>
     </g>
    </g>
    <g id="ytick_7">
     <g id="line2d_21">
      <path d="M 59.15 42.24143 
L 450 42.24143 
" clip-path="url(#p54a692bef4)" style="fill: none; stroke: #b0b0b0; stroke-opacity: 0.3; stroke-width: 0.8; stroke-linecap: square"/>
     </g>
     <g id="line2d_22">
      <g>
       <use xlink:href="#m9c93357ff1" x="59.15" y="42.24143" style="stroke: #000000; stroke-width: 0.8"/>
      </g>
     </g>
     <g id="text_12">
      <!-- 1000 -->
      <g transform="translate(26.7 46.040649) scale(0.1 -0.1)">
       <use xlink:href="#DejaVuSans-31"/>
       <use xlink:href="#DejaVuSans-30" transform="translate(63.623047 0)"/>
       <use xlink:href="#DejaVuSans-30" transform="translate(127.246094 0)"/>
       <use xlink:href="#DejaVuSans-30" transform="translate(190.869141 0)"/>
      </g>
     </g>
    </g>
    <g id="text_13">
     <!-- Stress [Pa] -->
     <g transform="translate(18.603125 191.967812) rotate(-90) scale(0.1 -0.1)">
      <defs>
       <path id="DejaVuSans-65" d="M 3597 1894 
L 3597 1613 
L 953 1613 
Q 991 1019 1311 708 
Q 1631 397 2203 397 
Q 2534 397 2845 478 
Q 3156 559 3463 722 
L 3463 178 
Q 3153 47 2828 -22 
Q 2503 -91 2169 -91 
Q 1331 -91 842 396 
Q 353 884 353 1716 
Q 353 2575 817 3079 
Q 1281 3584 2069 3584 
Q 2775 3584 3186 3129 
Q 3597 2675 3597 1894 
z
M 3022 2063 
Q 3016 2534 2758 2815 
Q 2500 3097 2075 3097 
Q 1594 3097 1305 2825 
Q 1016 2553 972 2059 
L 3022 2063 
z
" transform="scale(0.015625)"/>
       <path id="DejaVuSans-73" d="M 2834 3397 
L 2834 2853 
Q 2591 2978 2328 3040 
Q 2066 3103 1784 3103 
Q 1356 3103 1142 2972 
Q 928 2841 928 2578 
Q 928 2378 1081 2264 
Q 1234 2150 1697 2047 
L 1894 2003 
Q 2506 1872 2764 1633 
Q 3022 1394 3022 966 
Q 3022 478 2636 193 
Q 2250 -91 1575 -91 
Q 1294 -91 989 -36 
Q 684 19 347 128 
L 347 722 
Q 666 556 975 473 
Q 1284 391 1588 391 
Q 1994 391 2212 530 
Q 2431 669 2431 922 
Q 2431 1156 2273 1281 
Q 2116 1406 1581 1522 
L 1381 1569 
Q 847 1681 609 1914 
Q 372 2147 372 2553 
Q 372 3047 722 3315 
Q 1072 3584 1716 3584 
Q 2034 3584 2315 3537 
Q 2597 3491 2834 3397 
z
" transform="scale(0.015625)"/>
       <path id="DejaVuSans-50" d="M 1259 4147 
L 1259 2394 
L 2053 2394 
Q 2494 2394 2734 2622 
Q 2975 2850 2975 3272 
Q 2975 3691 2734 3919 
Q 2494 4147 2053 4147 
L 1259 4147 
z
M 628 4666 
L 2053 4666 
Q 2838 4666 3239 4311 
Q 3641 3956 3641 3272 
Q 3641 2581 3239 2228 
Q 2838 1875 2053 1875 
L 1259 1875 
L 1259 0 
L 628 0 
L 628 4666 
z
" transform="scale(0.015625)"/>
      </defs>
      <use xlink:href="#DejaVuSans-53"/>
      <use xlink:href="#DejaVuSans-74" transform="translate(63.476562 0)"/>
      <use xlink:href="#DejaVuSans-72" transform="translate(102.685547 0)"/>
      <use xlink:href="#DejaVuSans-65" transform="translate(141.548828 0)"/>
      <use xlink:href="#DejaVuSans-73" transform="translate(203.072266 0)"/>
      <use xlink:href="#DejaVuSans-73" transform="translate(255.171875 0)"/>
      <use xlink:href="#DejaVuSans-20" transform="translate(307.271484 0)"/>
      <use xlink:href="#DejaVuSans-5b" transform="translate(339.058594 0)"/>
      <use xlink:href="#DejaVuSans-50" transform="translate(378.072266 0)"/>
      <use xlink:href="#DejaVuSans-61" transform="translate(433.875 0)"/>
      <use xlink:href="#DejaVuSans-5d" transform="translate(495.154297 0)"/>
     </g>
    </g>
   </g>
   <g id="line2d_23">
    <path d="M 136.207516 239.859664 
L 136.208121 239.306097 
L 136.210178 239.51256 
L 136.80463 239.30284 
L 137.412594 237.354092 
L 138.026457 236.520588 
L 138.657471 235.017056 
L 139.251474 236.008091 
L 140.498608 239.074228 
L 142.366827 240.95394 
L 142.977981 241.8742 
L 143.608771 241.848135 
L 144.207287 243.098153 
L 144.806818 239.752151 
L 145.418763 238.304911 
L 146.017279 238.584335 
L 146.637686 239.155858 
L 147.238233 239.485188 
L 147.858641 240.091719 
L 148.463025 239.825006 
L 149.647644 239.07022 
L 150.85077 239.33811 
L 151.461021 239.589198 
L 152.055475 239.521289 
L 152.663469 239.249796 
L 153.271464 239.116404 
L 153.890969 239.380421 
L 155.08639 239.528563 
L 156.319757 239.357321 
L 157.532813 238.72928 
L 158.740001 238.693799 
L 160.590842 237.974786 
L 162.408056 237.692077 
L 163.009957 237.603854 
L 163.629462 237.356606 
L 164.861701 236.58836 
L 166.643033 235.79513 
L 168.449865 235.289386 
L 169.652459 234.751738 
L 170.882102 233.9965 
L 173.901313 232.635112 
L 174.497347 232.513617 
L 176.332052 231.5442 
L 178.152764 230.448811 
L 179.955083 229.565033 
L 181.163173 228.803826 
L 182.399475 228.150492 
L 184.80251 226.754629 
L 186.010826 225.853775 
L 186.603249 225.446536 
L 187.800281 224.96612 
L 188.397217 224.618383 
L 190.22549 223.021342 
L 193.239285 221.476525 
L 193.849311 220.897105 
L 196.887254 218.994611 
L 197.495587 218.496525 
L 200.565077 216.771778 
L 202.400797 215.290268 
L 203.605728 214.770446 
L 204.836726 213.930474 
L 205.443479 213.469583 
L 206.050684 212.734821 
L 207.251779 211.929475 
L 207.866996 211.79185 
L 209.086258 211.107172 
L 210.908888 209.201966 
L 211.511692 208.895324 
L 212.127586 208.759031 
L 213.938622 207.821609 
L 215.132494 206.763035 
L 215.747711 206.45059 
L 219.394665 203.786079 
L 221.20556 202.895166 
L 231.522395 195.7978 
L 232.132308 195.130674 
L 233.965545 193.804126 
L 234.567898 193.565595 
L 236.989045 192.050648 
L 238.21677 191.185847 
L 238.816189 190.827408 
L 240.598873 189.235836 
L 241.78778 188.504 
L 243.625772 187.188308 
L 244.232525 186.659687 
L 244.849096 186.343009 
L 245.445581 185.863378 
L 246.049288 185.638545 
L 247.246771 184.863068 
L 249.696128 183.059553 
L 251.527109 181.564821 
L 252.146388 181.305938 
L 258.168554 177.299107 
L 261.832434 174.439966 
L 263.052035 173.762518 
L 264.259674 172.876695 
L 266.057931 171.829321 
L 266.659606 171.450811 
L 267.261959 170.920382 
L 268.457863 170.176821 
L 269.077593 169.621849 
L 269.694841 169.246192 
L 270.305996 169.032013 
L 274.618959 165.940406 
L 275.849844 164.9781 
L 277.087048 164.189591 
L 278.299652 163.286549 
L 279.490817 162.538755 
L 286.033645 157.742826 
L 287.246926 157.010538 
L 289.69421 155.07385 
L 291.508941 153.834629 
L 292.109714 153.538166 
L 293.297719 152.610962 
L 294.510549 151.822025 
L 297.541045 149.531174 
L 298.743042 148.892918 
L 303.027372 145.61966 
L 304.86264 144.581466 
L 307.275549 142.260079 
L 309.688797 140.653049 
L 310.296566 140.179982 
L 310.899145 139.539776 
L 311.510186 139.114463 
L 312.131045 138.821376 
L 314.552192 137.07788 
L 315.778111 135.979162 
L 318.189229 134.270132 
L 319.405219 133.651806 
L 320.621547 132.471849 
L 321.841599 131.147489 
L 322.43831 130.641365 
L 323.045402 130.472562 
L 324.257555 129.785174 
L 325.468805 128.680748 
L 326.086053 127.968817 
L 327.277217 127.241665 
L 332.12346 123.381073 
L 333.320633 122.65347 
L 333.938332 122.301928 
L 335.148567 121.224708 
L 335.75092 120.828456 
L 336.951563 119.791 
L 338.152657 119.091625 
L 338.748465 118.525524 
L 339.369098 118.142637 
L 341.814506 116.127702 
L 342.433785 115.659296 
L 343.053516 115.333914 
L 344.882917 113.671662 
L 345.482561 113.073123 
L 348.523636 110.960813 
L 349.753618 109.913178 
L 352.758837 107.729487 
L 355.188108 105.444819 
L 356.994037 103.886447 
L 357.609931 103.250237 
L 361.238717 100.673291 
L 363.061686 99.033715 
L 368.483538 94.827432 
L 369.714423 93.90213 
L 371.527349 92.280784 
L 374.578508 89.734231 
L 375.770801 88.789428 
L 376.979654 87.825065 
L 378.209861 86.556926 
L 379.425625 85.393426 
L 380.02527 84.92854 
L 380.625591 84.639068 
L 381.814048 83.562038 
L 383.028457 82.270212 
L 384.22391 81.184621 
L 384.825586 80.738666 
L 385.423876 80.439491 
L 387.201595 78.601064 
L 388.396822 77.66625 
L 389.601753 76.821426 
L 392.008879 74.68606 
L 394.424835 72.576093 
L 395.036553 71.813934 
L 395.639357 71.326788 
L 396.249383 70.983998 
L 396.852639 70.440917 
L 398.054636 69.65198 
L 400.454455 67.085926 
L 401.073734 66.77624 
L 402.89817 65.363888 
L 404.72396 63.546294 
L 407.178988 61.526317 
L 408.418449 60.29014 
L 412.052425 56.790128 
L 412.666965 56.106354 
L 413.884986 55.146521 
L 415.704682 53.728652 
L 416.92259 52.292803 
L 421.802798 47.866574 
L 426.649831 43.103369 
L 427.856342 42.195095 
L 429.669155 40.444566 
L 431.472264 39.873137 
L 431.858072 39.46 
L 432.234091 39.607709 
L 432.012017 45.822197 
L 432.016841 57.229591 
L 432.010212 57.20575 
L 431.412203 57.542346 
L 430.196439 61.299011 
L 429.576624 61.085165 
L 428.951026 61.086271 
L 428.326556 61.238094 
L 427.119368 61.803529 
L 426.519047 61.815313 
L 425.902024 61.619494 
L 425.273041 62.325432 
L 424.646314 64.051419 
L 422.813979 67.363174 
L 422.210272 68.919834 
L 421.613562 69.186357 
L 420.982096 68.776644 
L 420.363268 68.979158 
L 419.12471 70.040349 
L 418.517618 69.99313 
L 417.920794 71.024902 
L 417.319908 73.786633 
L 416.706497 74.75712 
L 416.102452 75.241602 
L 414.282981 76.032489 
L 413.672955 76.51193 
L 413.057174 77.294636 
L 412.457981 78.310023 
L 409.445935 82.155429 
L 408.847193 83.120399 
L 407.621274 83.721507 
L 407.021855 84.193908 
L 406.429883 84.427362 
L 405.818391 85.047211 
L 405.216941 86.715931 
L 404.613685 87.454688 
L 403.406271 88.07758 
L 402.188025 88.75768 
L 401.582851 90.267537 
L 400.976323 90.960063 
L 399.769587 91.778631 
L 398.551001 92.713398 
L 397.948987 93.889169 
L 396.735706 95.169652 
L 394.915784 96.684408 
L 393.72067 98.44426 
L 392.503213 99.344591 
L 391.291737 100.560696 
L 389.454663 102.493774 
L 387.651667 104.118831 
L 387.043334 105.015499 
L 386.428568 105.658368 
L 384.011258 107.373034 
L 383.413984 108.352653 
L 382.185638 109.621138 
L 380.383996 110.956009 
L 379.148823 112.293877 
L 376.70759 114.30924 
L 375.475351 115.635217 
L 374.287121 116.513716 
L 373.669196 117.247146 
L 372.438537 118.250452 
L 371.822192 118.886376 
L 370.633058 119.91061 
L 368.183024 122.473906 
L 367.5762 122.755173 
L 366.974525 123.265149 
L 366.380296 124.001433 
L 365.172431 124.966403 
L 364.561841 125.656264 
L 359.681633 129.405486 
L 358.450297 130.484227 
L 357.834629 130.881478 
L 356.607355 132.038129 
L 354.196703 133.736814 
L 352.985452 135.287005 
L 352.381957 135.753485 
L 350.574673 136.696004 
L 349.961262 137.217349 
L 349.368614 138.201344 
L 348.165826 139.123886 
L 346.955479 139.745019 
L 346.341165 140.330812 
L 345.731816 141.125028 
L 344.511764 142.048617 
L 343.313152 142.737575 
L 342.70527 143.566228 
L 341.483751 144.590557 
L 340.279948 145.072328 
L 339.677031 145.524943 
L 339.064974 146.35369 
L 337.876814 147.504389 
L 337.262726 147.935125 
L 336.645704 148.232017 
L 336.044479 148.751601 
L 335.452282 149.573119 
L 334.234939 150.35963 
L 332.408246 151.595617 
L 331.798671 152.314778 
L 331.201961 152.810961 
L 329.381587 153.631717 
L 328.778444 154.190018 
L 328.164582 155.173443 
L 327.546657 155.802923 
L 326.928506 156.032411 
L 326.335858 156.058803 
L 325.726283 156.276834 
L 325.122351 156.699198 
L 324.522255 157.88296 
L 323.310553 158.77316 
L 321.492479 159.339458 
L 320.892608 160.608453 
L 320.299847 161.22697 
L 319.702685 161.570902 
L 318.471349 161.798398 
L 317.856697 162.180441 
L 317.23911 163.313785 
L 316.630551 163.929353 
L 315.410273 164.469057 
L 314.80273 164.596123 
L 314.193268 164.889447 
L 313.599943 165.761573 
L 312.368945 166.648157 
L 310.511785 167.674674 
L 309.912366 168.510461 
L 309.298616 169.036419 
L 308.091527 169.429769 
L 307.473602 169.85651 
L 305.66045 171.487179 
L 304.445138 171.943646 
L 303.846396 172.188979 
L 300.838582 174.705091 
L 299.639744 175.401565 
L 296.600447 177.828162 
L 294.809638 179.091593 
L 294.208188 179.211977 
L 293.610123 179.456025 
L 292.379027 180.426809 
L 290.56328 182.206257 
L 289.360154 182.583508 
L 288.746066 182.908462 
L 287.53459 183.920329 
L 286.939233 184.292989 
L 286.33846 184.498535 
L 285.742201 184.931506 
L 285.126533 185.231537 
L 283.910656 186.405787 
L 281.502035 187.564482 
L 280.292477 188.742632 
L 278.497832 189.598279 
L 276.075331 191.5852 
L 274.87198 192.030525 
L 272.465503 193.912568 
L 271.239132 194.347572 
L 270.025173 195.319391 
L 269.411988 195.539658 
L 268.187422 196.392853 
L 266.388714 197.66299 
L 265.188071 198.313493 
L 263.960797 199.203312 
L 263.347075 199.827203 
L 262.749462 200.233301 
L 260.92875 200.892083 
L 259.116614 202.601232 
L 258.521257 202.994202 
L 257.322194 203.302402 
L 255.501256 204.862344 
L 248.839591 208.594095 
L 247.041109 209.558351 
L 245.83031 210.582918 
L 243.990979 211.256156 
L 243.370346 211.620683 
L 242.163722 212.812816 
L 240.945363 213.3662 
L 239.736595 213.616508 
L 237.321993 215.496934 
L 236.720092 215.818701 
L 236.113225 215.98002 
L 234.28424 217.150484 
L 233.688658 217.548591 
L 232.476505 217.997757 
L 231.87325 218.334127 
L 230.077927 219.627903 
L 229.472189 219.951811 
L 228.867128 220.076427 
L 228.248075 220.351143 
L 227.649446 220.803472 
L 227.053638 221.478304 
L 225.843065 222.248738 
L 224.028785 222.906114 
L 222.209427 224.225504 
L 220.968837 224.830554 
L 220.352944 225.146471 
L 219.131079 225.995816 
L 217.306643 226.960916 
L 216.701131 227.070306 
L 214.920026 227.936225 
L 213.110937 229.150369 
L 212.50723 229.40594 
L 210.077282 230.938818 
L 209.465225 231.25231 
L 208.257811 231.713415 
L 207.645867 232.054874 
L 205.820641 233.5019 
L 204.62564 234.110809 
L 203.400764 234.578175 
L 201.595398 235.615774 
L 199.182602 236.832831 
L 197.34124 238.026795 
L 194.908361 239.299405 
L 193.6935 240.20416 
L 193.084602 240.537342 
L 191.27777 241.23705 
L 190.664359 241.561433 
L 189.450404 242.44597 
L 188.225838 242.952237 
L 185.773998 244.237547 
L 184.540631 245.061871 
L 181.48531 246.631896 
L 180.297531 247.527328 
L 179.70082 247.6821 
L 177.251012 248.877419 
L 176.048338 249.375957 
L 174.849944 250.115275 
L 174.255265 250.365983 
L 173.044466 251.304507 
L 172.443016 251.571148 
L 171.845177 251.553853 
L 169.4018 253.113771 
L 168.187842 253.802587 
L 165.148093 255.265499 
L 163.933006 255.728269 
L 163.324447 256.207234 
L 162.717807 256.429724 
L 161.51265 257.093712 
L 160.318777 257.627898 
L 158.489812 258.834304 
L 156.069117 259.541505 
L 154.247163 260.775874 
L 153.051936 261.214226 
L 150.609576 262.747842 
L 149.395617 263.12195 
L 148.789428 263.552685 
L 146.334316 264.652093 
L 143.904128 265.973231 
L 142.687236 266.416642 
L 141.451612 267.283345 
L 139.601673 268.050843 
L 137.767533 268.908818 
L 137.174885 269.166398 
L 136.559668 269.218576 
L 135.953591 269.605267 
L 134.74787 270.538274 
L 133.545422 270.994703 
L 131.12563 272.171054 
L 130.52288 272.541925 
L 128.696412 273.093139 
L 127.470605 273.755414 
L 125.679796 274.553935 
L 123.212046 275.807187 
L 121.998764 276.190763 
L 121.404085 276.332396 
L 120.808051 276.640845 
L 119.608085 277.01248 
L 119.013406 277.278979 
L 118.399995 277.735399 
L 117.178363 278.340074 
L 116.585714 278.46967 
L 114.773836 279.15317 
L 114.162456 279.649544 
L 113.541822 279.945389 
L 112.939695 279.890453 
L 111.738827 280.119088 
L 111.121353 280.36932 
L 110.515615 281.016184 
L 109.89611 281.42711 
L 108.675833 281.618348 
L 107.474287 281.716974 
L 106.268904 282.861781 
L 104.485317 283.124668 
L 103.872357 283.344816 
L 102.652982 284.231686 
L 102.050855 284.437981 
L 100.229219 284.568056 
L 99.006459 285.728214 
L 97.78731 285.619731 
L 96.56297 285.734938 
L 95.944932 286.159865 
L 95.351494 286.840214 
L 94.146337 287.19613 
L 93.533377 287.365551 
L 92.927865 287.374903 
L 92.309263 287.574854 
L 91.694497 287.93824 
L 89.276285 288.632469 
L 88.041789 289.179682 
L 86.841823 289.051034 
L 85.623086 289.562396 
L 85.010239 290.146857 
L 83.789736 289.927321 
L 83.189188 289.848657 
L 81.970039 290.012294 
L 81.361029 291.06 
L 78.978474 290.001307 
L 78.365401 289.537716 
L 77.764967 289.723737 
L 77.029323 288.891649 
L 76.916107 239.436219 
L 76.916107 239.436219 
" clip-path="url(#p54a692bef4)" style="fill: none; stroke: #ff0000; stroke-width: 2; stroke-linecap: square"/>
   </g>
   <g id="line2d_24">
    <path d="M 136.207516 239.859664 
L 136.208121 239.306097 
L 136.210178 239.51256 
L 136.80463 239.30284 
L 137.412594 237.354092 
L 138.026457 236.520588 
L 138.657471 235.017056 
L 139.251474 239.558068 
L 140.498608 240.783519 
L 141.139101 240.893486 
L 141.765602 240.656049 
L 142.366827 240.957126 
L 142.977981 241.8742 
L 143.608771 241.848135 
L 144.207287 243.098153 
L 144.806818 239.752151 
L 145.418763 238.304911 
L 146.017279 238.584335 
L 146.637686 239.155858 
L 147.238233 239.485188 
L 147.858641 240.091719 
L 148.463025 239.825006 
L 149.647644 239.07022 
L 150.85077 239.33811 
L 151.461021 239.589198 
L 152.055475 239.521289 
L 152.663469 239.249796 
L 153.271464 239.116404 
L 153.890969 239.380421 
L 155.08639 239.528563 
L 156.319757 239.357321 
L 157.532813 238.72928 
L 158.740001 238.693799 
L 160.590842 237.974786 
L 162.408056 237.692077 
L 163.009957 237.603854 
L 163.629462 237.356606 
L 164.861701 236.58836 
L 166.643033 235.79513 
L 168.449865 235.289386 
L 169.652459 234.751738 
L 170.882102 233.9965 
L 173.901313 232.635112 
L 174.497347 232.513617 
L 176.332052 231.5442 
L 178.152764 230.448811 
L 179.955083 229.565033 
L 181.163173 228.803826 
L 182.399475 228.150492 
L 184.80251 226.754629 
L 186.010826 225.853775 
L 186.603249 225.446536 
L 187.800281 224.96612 
L 188.397217 224.618383 
L 190.22549 223.021342 
L 193.239285 221.476525 
L 193.849311 220.897105 
L 196.887254 218.994611 
L 197.495587 218.496525 
L 200.565077 216.771778 
L 202.400797 215.290268 
L 203.605728 214.770446 
L 204.836726 213.930474 
L 205.443479 213.469583 
L 206.050684 212.734821 
L 207.251779 211.929475 
L 207.866996 211.79185 
L 209.086258 211.107172 
L 210.908888 209.201966 
L 211.511692 208.895324 
L 212.127586 208.759031 
L 213.938622 207.821609 
L 215.132494 206.763035 
L 215.747711 206.45059 
L 219.394665 203.786079 
L 221.20556 202.895166 
L 231.522395 195.7978 
L 232.132308 195.130674 
L 233.965545 193.804126 
L 234.567898 193.565595 
L 236.989045 192.050648 
L 238.21677 191.185847 
L 238.816189 190.827408 
L 240.598873 189.235836 
L 241.78778 188.504 
L 243.625772 187.188308 
L 244.232525 186.659687 
L 244.849096 186.343009 
L 245.445581 185.863378 
L 246.049288 185.638545 
L 247.246771 184.863068 
L 249.696128 183.059553 
L 251.527109 181.564821 
L 252.146388 181.305938 
L 258.168554 177.299107 
L 261.832434 174.439966 
L 263.052035 173.762518 
L 264.259674 172.876695 
L 266.057931 171.829321 
L 266.659606 171.450811 
L 267.261959 170.920382 
L 268.457863 170.176821 
L 269.077593 169.621849 
L 269.694841 169.246192 
L 270.305996 169.032013 
L 274.618959 165.940406 
L 275.849844 164.9781 
L 277.087048 164.189591 
L 278.299652 163.286549 
L 279.490817 162.538755 
L 286.033645 157.742826 
L 287.246926 157.010538 
L 289.69421 155.07385 
L 291.508941 153.834629 
L 292.109714 153.538166 
L 293.297719 152.610962 
L 294.510549 151.822025 
L 297.541045 149.531174 
L 298.743042 148.892918 
L 303.027372 145.61966 
L 304.86264 144.581466 
L 307.275549 142.260079 
L 309.688797 140.653049 
L 310.296566 140.179982 
L 310.899145 139.539776 
L 311.510186 139.114463 
L 312.131045 138.821376 
L 314.552192 137.07788 
L 315.778111 135.979162 
L 318.189229 134.270132 
L 319.405219 133.651806 
L 320.621547 132.471849 
L 321.841599 131.147489 
L 322.43831 130.641365 
L 323.045402 130.472562 
L 324.257555 129.785174 
L 325.468805 128.680748 
L 326.086053 127.968817 
L 327.277217 127.241665 
L 332.12346 123.381073 
L 333.320633 122.65347 
L 333.938332 122.301928 
L 335.148567 121.224708 
L 335.75092 120.828456 
L 336.951563 119.791 
L 338.152657 119.091625 
L 338.748465 118.525524 
L 339.369098 118.142637 
L 341.814506 116.127702 
L 342.433785 115.659296 
L 343.053516 115.333914 
L 344.882917 113.671662 
L 345.482561 113.073123 
L 348.523636 110.960813 
L 349.753618 109.913178 
L 352.758837 107.729487 
L 355.188108 105.444819 
L 356.994037 103.886447 
L 357.609931 103.250237 
L 361.238717 100.673291 
L 363.061686 99.033715 
L 368.483538 94.827432 
L 369.714423 93.90213 
L 371.527349 92.280784 
L 374.578508 89.734231 
L 375.770801 88.789428 
L 376.979654 87.825065 
L 378.209861 86.556926 
L 379.425625 85.393426 
L 380.02527 84.92854 
L 380.625591 84.639068 
L 381.814048 83.562038 
L 383.028457 82.270212 
L 384.22391 81.184621 
L 384.825586 80.738666 
L 385.423876 80.439491 
L 387.201595 78.601064 
L 388.396822 77.66625 
L 389.601753 76.821426 
L 392.008879 74.68606 
L 394.424835 72.576093 
L 395.036553 71.813934 
L 395.639357 71.326788 
L 396.249383 70.983998 
L 396.852639 70.440917 
L 398.054636 69.65198 
L 400.454455 67.085926 
L 401.073734 66.77624 
L 402.89817 65.363888 
L 404.72396 63.546294 
L 407.178988 61.526317 
L 408.418449 60.29014 
L 412.052425 56.790128 
L 412.666965 56.106354 
L 413.884986 55.146521 
L 415.704682 53.728652 
L 416.92259 52.292803 
L 421.802798 47.866574 
L 426.649831 43.103369 
L 427.856342 42.195095 
L 429.669155 40.444566 
L 431.472264 39.873137 
L 431.858072 39.46 
L 432.234091 39.607709 
L 432.012017 45.822197 
L 432.016841 57.229591 
L 432.010212 57.20575 
L 431.412203 57.542346 
L 430.196439 61.299011 
L 429.576624 61.085165 
L 428.951026 61.086271 
L 428.326556 61.238094 
L 427.119368 61.803529 
L 426.519047 61.815313 
L 425.902024 61.619494 
L 425.273041 62.325432 
L 424.646314 64.051419 
L 422.813979 67.363174 
L 422.210272 68.919834 
L 421.613562 69.186357 
L 420.982096 68.776644 
L 420.363268 68.979158 
L 419.12471 70.040349 
L 418.517618 69.99313 
L 417.920794 71.024902 
L 417.319908 73.786633 
L 416.706497 74.75712 
L 416.102452 75.241602 
L 414.282981 76.032489 
L 413.672955 76.51193 
L 413.057174 77.294636 
L 412.457981 78.310023 
L 409.445935 82.155429 
L 408.847193 83.120399 
L 407.621274 83.721507 
L 407.021855 84.193908 
L 406.429883 84.427362 
L 405.818391 85.047211 
L 405.216941 86.715931 
L 404.613685 87.454688 
L 403.406271 88.07758 
L 402.188025 88.75768 
L 401.582851 90.267537 
L 400.976323 90.960063 
L 399.769587 91.778631 
L 398.551001 92.713398 
L 397.948987 93.889169 
L 396.735706 95.169652 
L 394.915784 96.684408 
L 393.72067 98.44426 
L 392.503213 99.344591 
L 391.291737 100.560696 
L 389.454663 102.493774 
L 387.651667 104.118831 
L 387.043334 105.015499 
L 386.428568 105.658368 
L 384.011258 107.373034 
L 383.413984 108.352653 
L 382.185638 109.621138 
L 380.383996 110.956009 
L 379.148823 112.293877 
L 376.70759 114.30924 
L 375.475351 115.635217 
L 374.287121 116.513716 
L 373.669196 117.247146 
L 372.438537 118.250452 
L 371.822192 118.886376 
L 370.633058 119.91061 
L 368.183024 122.473906 
L 367.5762 122.755173 
L 366.974525 123.265149 
L 366.380296 124.001433 
L 365.172431 124.966403 
L 364.561841 125.656264 
L 359.681633 129.405486 
L 358.450297 130.484227 
L 357.834629 130.881478 
L 356.607355 132.038129 
L 354.196703 133.736814 
L 352.985452 135.287005 
L 352.381957 135.753485 
L 350.574673 136.696004 
L 349.961262 137.217349 
L 349.368614 138.201344 
L 348.165826 139.123886 
L 346.955479 139.745019 
L 346.341165 140.330812 
L 345.731816 141.125028 
L 344.511764 142.048617 
L 343.313152 142.737575 
L 342.70527 143.566228 
L 341.483751 144.590557 
L 340.279948 145.072328 
L 339.677031 145.524943 
L 339.064974 146.35369 
L 337.876814 147.504389 
L 337.262726 147.935125 
L 336.645704 148.232017 
L 336.044479 148.751601 
L 335.452282 149.573119 
L 334.234939 150.35963 
L 332.408246 151.595617 
L 331.798671 152.314778 
L 331.201961 152.810961 
L 329.381587 153.631717 
L 328.778444 154.190018 
L 328.164582 155.173443 
L 327.546657 155.802923 
L 326.928506 156.032411 
L 326.335858 156.058803 
L 325.726283 156.276834 
L 325.122351 156.699198 
L 324.522255 157.88296 
L 323.310553 158.77316 
L 321.492479 159.339458 
L 320.892608 160.608453 
L 320.299847 161.22697 
L 319.702685 161.570902 
L 318.471349 161.798398 
L 317.856697 162.180441 
L 317.23911 163.313785 
L 316.630551 163.929353 
L 315.410273 164.469057 
L 314.80273 164.596123 
L 314.193268 164.889447 
L 313.599943 165.761573 
L 312.368945 166.648157 
L 310.511785 167.674674 
L 309.912366 168.510461 
L 309.298616 169.036419 
L 308.091527 169.429769 
L 307.473602 169.85651 
L 305.66045 171.487179 
L 304.445138 171.943646 
L 303.846396 172.188979 
L 300.838582 174.705091 
L 299.639744 175.401565 
L 296.600447 177.828162 
L 294.809638 179.091593 
L 294.208188 179.211977 
L 293.610123 179.456025 
L 292.379027 180.426809 
L 290.56328 182.206257 
L 289.360154 182.583508 
L 288.746066 182.908462 
L 287.53459 183.920329 
L 286.939233 184.292989 
L 286.33846 184.498535 
L 285.742201 184.931506 
L 285.126533 185.231537 
L 283.910656 186.405787 
L 281.502035 187.564482 
L 280.292477 188.742632 
L 278.497832 189.598279 
L 276.075331 191.5852 
L 274.87198 192.030525 
L 272.465503 193.912568 
L 271.239132 194.347572 
L 270.025173 195.319391 
L 269.411988 195.539658 
L 268.187422 196.392853 
L 266.388714 197.66299 
L 265.188071 198.313493 
L 263.960797 199.203312 
L 263.347075 199.827203 
L 262.749462 200.233301 
L 260.92875 200.892083 
L 259.116614 202.601232 
L 258.521257 202.994202 
L 257.322194 203.302402 
L 255.501256 204.862344 
L 248.839591 208.594095 
L 247.041109 209.558351 
L 245.83031 210.582918 
L 243.990979 211.256156 
L 243.370346 211.620683 
L 242.163722 212.812816 
L 240.945363 213.3662 
L 239.736595 213.616508 
L 237.321993 215.496934 
L 236.720092 215.818701 
L 236.113225 215.98002 
L 234.28424 217.150484 
L 233.688658 217.548591 
L 232.476505 217.997757 
L 231.87325 218.334127 
L 230.077927 219.627903 
L 229.472189 219.951811 
L 228.867128 220.076427 
L 228.248075 220.351143 
L 227.649446 220.803472 
L 227.053638 221.478304 
L 225.843065 222.248738 
L 224.028785 222.906114 
L 222.209427 224.225504 
L 220.968837 224.830554 
L 220.352944 225.146471 
L 219.131079 225.995816 
L 217.306643 226.960916 
L 216.701131 227.070306 
L 214.920026 227.936225 
L 213.110937 229.150369 
L 212.50723 229.40594 
L 210.077282 230.938818 
L 209.465225 231.25231 
L 208.257811 231.713415 
L 207.645867 232.054874 
L 205.820641 233.5019 
L 204.62564 234.110809 
L 203.400764 234.578175 
L 201.595398 235.615774 
L 199.182602 236.832831 
L 197.34124 238.026795 
L 194.908361 239.299405 
L 193.6935 240.20416 
L 193.084602 240.537342 
L 191.27777 241.23705 
L 190.664359 241.561433 
L 189.450404 242.44597 
L 188.225838 242.952237 
L 185.773998 244.237547 
L 184.540631 245.061871 
L 181.48531 246.631896 
L 180.297531 247.527328 
L 179.70082 247.6821 
L 177.251012 248.877419 
L 176.048338 249.375957 
L 174.849944 250.115275 
L 174.255265 250.365983 
L 173.044466 251.304507 
L 172.443016 251.571148 
L 171.845177 251.553853 
L 169.4018 253.113771 
L 168.187842 253.802587 
L 165.148093 255.265499 
L 163.933006 255.728269 
L 163.324447 256.207234 
L 162.717807 256.429724 
L 161.51265 257.093712 
L 160.318777 257.627898 
L 158.489812 258.834304 
L 156.069117 259.541505 
L 154.247163 260.775874 
L 153.051936 261.214226 
L 150.609576 262.747842 
L 149.395617 263.12195 
L 148.789428 263.552685 
L 146.334316 264.652093 
L 143.904128 265.973231 
L 142.687236 266.416642 
L 141.451612 267.283345 
L 139.601673 268.050843 
L 137.767533 268.908818 
L 137.174885 269.166398 
L 136.559668 269.218576 
L 135.953591 269.605267 
L 135.342776 270.20488 
L 134.74787 270.538274 
L 133.545422 270.994703 
L 131.12563 272.171054 
L 130.52288 272.541925 
L 128.696412 273.093139 
L 127.470605 273.755414 
L 125.679796 274.553935 
L 123.212046 275.807187 
L 121.998764 276.190763 
L 121.404085 276.332396 
L 120.808051 276.640845 
L 119.608085 277.01248 
L 119.013406 277.278979 
L 118.399995 277.735399 
L 117.178363 278.340074 
L 116.585714 278.46967 
L 114.773836 279.15317 
L 114.162456 279.649544 
L 113.541822 279.945389 
L 112.939695 279.890453 
L 111.738827 280.119088 
L 111.121353 280.36932 
L 110.515615 281.016184 
L 109.89611 281.42711 
L 108.675833 281.618348 
L 107.474287 281.716974 
L 106.268904 282.861781 
L 104.485317 283.124668 
L 103.872357 283.344816 
L 102.652982 284.231686 
L 102.050855 284.437981 
L 100.229219 284.568056 
L 99.006459 285.728214 
L 97.78731 285.619731 
L 96.56297 285.734938 
L 95.944932 286.159865 
L 95.351494 286.840214 
L 94.146337 287.19613 
L 93.533377 287.365551 
L 92.927865 287.374903 
L 92.309263 287.574854 
L 91.694497 287.93824 
L 89.276285 288.632469 
L 88.041789 289.179682 
L 86.841823 289.051034 
L 85.623086 289.562396 
L 85.010239 290.146857 
L 83.789736 289.927321 
L 83.189188 289.848657 
L 81.970039 290.012294 
L 81.361029 291.06 
L 78.978474 290.001307 
L 78.365401 289.537716 
L 77.764967 289.723737 
L 77.029323 288.891649 
L 76.916107 239.436219 
L 76.916107 239.436219 
" clip-path="url(#p54a692bef4)" style="fill: none; stroke: #000000; stroke-width: 2; stroke-linecap: square"/>
   </g>
   <g id="patch_3">
    <path d="M 59.15 303.64 
L 59.15 26.88 
" style="fill: none; stroke: #000000; stroke-width: 0.8; stroke-linejoin: miter; stroke-linecap: square"/>
   </g>
   <g id="patch_4">
    <path d="M 450 303.64 
L 450 26.88 
" style="fill: none; stroke: #000000; stroke-width: 0.8; stroke-linejoin: miter; stroke-linecap: square"/>
   </g>
   <g id="patch_5">
    <path d="M 59.15 303.64 
L 450 303.64 
" style="fill: none; stroke: #000000; stroke-width: 0.8; stroke-linejoin: miter; stroke-linecap: square"/>
   </g>
   <g id="patch_6">
    <path d="M 59.15 26.88 
L 450 26.88 
" style="fill: none; stroke: #000000; stroke-width: 0.8; stroke-linejoin: miter; stroke-linecap: square"/>
   </g>
   <g id="text_14">
    <!-- 2025-06-16 Trial 9 - Stress vs Strain -->
    <g transform="translate(147.138438 20.88) scale(0.12 -0.12)">
     <defs>
      <path id="DejaVuSans-54" d="M -19 4666 
L 3928 4666 
L 3928 4134 
L 2272 4134 
L 2272 0 
L 1638 0 
L 1638 4134 
L -19 4134 
L -19 4666 
z
" transform="scale(0.015625)"/>
      <path id="DejaVuSans-6c" d="M 603 4863 
L 1178 4863 
L 1178 0 
L 603 0 
L 603 4863 
z
" transform="scale(0.015625)"/>
      <path id="DejaVuSans-39" d="M 703 97 
L 703 672 
Q 941 559 1184 500 
Q 1428 441 1663 441 
Q 2288 441 2617 861 
Q 2947 1281 2994 2138 
Q 2813 1869 2534 1725 
Q 2256 1581 1919 1581 
Q 1219 1581 811 2004 
Q 403 2428 403 3163 
Q 403 3881 828 4315 
Q 1253 4750 1959 4750 
Q 2769 4750 3195 4129 
Q 3622 3509 3622 2328 
Q 3622 1225 3098 567 
Q 2575 -91 1691 -91 
Q 1453 -91 1209 -44 
Q 966 3 703 97 
z
M 1959 2075 
Q 2384 2075 2632 2365 
Q 2881 2656 2881 3163 
Q 2881 3666 2632 3958 
Q 2384 4250 1959 4250 
Q 1534 4250 1286 3958 
Q 1038 3666 1038 3163 
Q 1038 2656 1286 2365 
Q 1534 2075 1959 2075 
z
" transform="scale(0.015625)"/>
      <path id="DejaVuSans-76" d="M 191 3500 
L 800 3500 
L 1894 563 
L 2988 3500 
L 3597 3500 
L 2284 0 
L 1503 0 
L 191 3500 
z
" transform="scale(0.015625)"/>
     </defs>
     <use xlink:href="#DejaVuSans-32"/>
     <use xlink:href="#DejaVuSans-30" transform="translate(63.623047 0)"/>
     <use xlink:href="#DejaVuSans-32" transform="translate(127.246094 0)"/>
     <use xlink:href="#DejaVuSans-35" transform="translate(190.869141 0)"/>
     <use xlink:href="#DejaVuSans-2d" transform="translate(254.492188 0)"/>
     <use xlink:href="#DejaVuSans-30" transform="translate(290.576172 0)"/>
     <use xlink:href="#DejaVuSans-36" transform="translate(354.199219 0)"/>
     <use xlink:href="#DejaVuSans-2d" transform="translate(417.822266 0)"/>
     <use xlink:href="#DejaVuSans-31" transform="translate(453.90625 0)"/>
     <use xlink:href="#DejaVuSans-36" transform="translate(517.529297 0)"/>
     <use xlink:href="#DejaVuSans-20" transform="translate(581.152344 0)"/>
     <use xlink:href="#DejaVuSans-54" transform="translate(612.939453 0)"/>
     <use xlink:href="#DejaVuSans-72" transform="translate(659.273438 0)"/>
     <use xlink:href="#DejaVuSans-69" transform="translate(700.386719 0)"/>
     <use xlink:href="#DejaVuSans-61" transform="translate(728.169922 0)"/>
     <use xlink:href="#DejaVuSans-6c" transform="translate(789.449219 0)"/>
     <use xlink:href="#DejaVuSans-20" transform="translate(817.232422 0)"/>
     <use xlink:href="#DejaVuSans-39" transform="translate(849.019531 0)"/>
     <use xlink:href="#DejaVuSans-20" transform="translate(912.642578 0)"/>
     <use xlink:href="#DejaVuSans-2d" transform="translate(944.429688 0)"/>
     <use xlink:href="#DejaVuSans-20" transform="translate(980.513672 0)"/>
     <use xlink:href="#DejaVuSans-53" transform="translate(1012.300781 0)"/>
     <use xlink:href="#DejaVuSans-74" transform="translate(1075.777344 0)"/>
     <use xlink:href="#DejaVuSans-72" transform="translate(1114.986328 0)"/>
     <use xlink:href="#DejaVuSans-65" transform="translate(1153.849609 0)"/>
     <use xlink:href="#DejaVuSans-73" transform="translate(1215.373047 0)"/>
     <use xlink:href="#DejaVuSans-73" transform="translate(1267.472656 0)"/>
     <use xlink:href="#DejaVuSans-20" transform="translate(1319.572266 0)"/>
     <use xlink:href="#DejaVuSans-76" transform="translate(1351.359375 0)"/>
     <use xlink:href="#DejaVuSans-73" transform="translate(1410.539062 0)"/>
     <use xlink:href="#DejaVuSans-20" transform="translate(1462.638672 0)"/>
     <use xlink:href="#DejaVuSans-53" transform="translate(1494.425781 0)"/>
     <use xlink:href="#DejaVuSans-74" transform="translate(1557.902344 0)"/>
     <use xlink:href="#DejaVuSans-72" transform="translate(1597.111328 0)"/>
     <use xlink:href="#DejaVuSans-61" transform="translate(1638.224609 0)"/>
     <use xlink:href="#DejaVuSans-69" transform="translate(1699.503906 0)"/>
     <use xlink:href="#DejaVuSans-6e" transform="translate(1727.287109 0)"/>
    </g>
   </g>
   <g id="legend_1">
    <g id="patch_7">
     <path d="M 66.15 64.23625 
L 172.134375 64.23625 
Q 174.134375 64.23625 174.134375 62.23625 
L 174.134375 33.88 
Q 174.134375 31.88 172.134375 31.88 
L 66.15 31.88 
Q 64.15 31.88 64.15 33.88 
L 64.15 62.23625 
Q 64.15 64.23625 66.15 64.23625 
z
" style="fill: #ffffff; opacity: 0.8; stroke: #cccccc; stroke-linejoin: miter"/>
    </g>
    <g id="line2d_25">
     <path d="M 68.15 39.978437 
L 78.15 39.978437 
L 88.15 39.978437 
" style="fill: none; stroke: #ff0000; stroke-width: 2; stroke-linecap: square"/>
    </g>
    <g id="text_15">
     <!-- Raw Force -->
     <g transform="translate(96.15 43.478437) scale(0.1 -0.1)">
      <defs>
       <path id="DejaVuSans-52" d="M 2841 2188 
Q 3044 2119 3236 1894 
Q 3428 1669 3622 1275 
L 4263 0 
L 3584 0 
L 2988 1197 
Q 2756 1666 2539 1819 
Q 2322 1972 1947 1972 
L 1259 1972 
L 1259 0 
L 628 0 
L 628 4666 
L 2053 4666 
Q 2853 4666 3247 4331 
Q 3641 3997 3641 3322 
Q 3641 2881 3436 2590 
Q 3231 2300 2841 2188 
z
M 1259 4147 
L 1259 2491 
L 2053 2491 
Q 2509 2491 2742 2702 
Q 2975 2913 2975 3322 
Q 2975 3731 2742 3939 
Q 2509 4147 2053 4147 
L 1259 4147 
z
" transform="scale(0.015625)"/>
       <path id="DejaVuSans-77" d="M 269 3500 
L 844 3500 
L 1563 769 
L 2278 3500 
L 2956 3500 
L 3675 769 
L 4391 3500 
L 4966 3500 
L 4050 0 
L 3372 0 
L 2619 2869 
L 1863 0 
L 1184 0 
L 269 3500 
z
" transform="scale(0.015625)"/>
       <path id="DejaVuSans-46" d="M 628 4666 
L 3309 4666 
L 3309 4134 
L 1259 4134 
L 1259 2759 
L 3109 2759 
L 3109 2228 
L 1259 2228 
L 1259 0 
L 628 0 
L 628 4666 
z
" transform="scale(0.015625)"/>
       <path id="DejaVuSans-6f" d="M 1959 3097 
Q 1497 3097 1228 2736 
Q 959 2375 959 1747 
Q 959 1119 1226 758 
Q 1494 397 1959 397 
Q 2419 397 2687 759 
Q 2956 1122 2956 1747 
Q 2956 2369 2687 2733 
Q 2419 3097 1959 3097 
z
M 1959 3584 
Q 2709 3584 3137 3096 
Q 3566 2609 3566 1747 
Q 3566 888 3137 398 
Q 2709 -91 1959 -91 
Q 1206 -91 779 398 
Q 353 888 353 1747 
Q 353 2609 779 3096 
Q 1206 3584 1959 3584 
z
" transform="scale(0.015625)"/>
       <path id="DejaVuSans-63" d="M 3122 3366 
L 3122 2828 
Q 2878 2963 2633 3030 
Q 2388 3097 2138 3097 
Q 1578 3097 1268 2742 
Q 959 2388 959 1747 
Q 959 1106 1268 751 
Q 1578 397 2138 397 
Q 2388 397 2633 464 
Q 2878 531 3122 666 
L 3122 134 
Q 2881 22 2623 -34 
Q 2366 -91 2075 -91 
Q 1284 -91 818 406 
Q 353 903 353 1747 
Q 353 2603 823 3093 
Q 1294 3584 2113 3584 
Q 2378 3584 2631 3529 
Q 2884 3475 3122 3366 
z
" transform="scale(0.015625)"/>
      </defs>
      <use xlink:href="#DejaVuSans-52"/>
      <use xlink:href="#DejaVuSans-61" transform="translate(67.232422 0)"/>
      <use xlink:href="#DejaVuSans-77" transform="translate(128.511719 0)"/>
      <use xlink:href="#DejaVuSans-20" transform="translate(210.298828 0)"/>
      <use xlink:href="#DejaVuSans-46" transform="translate(242.085938 0)"/>
      <use xlink:href="#DejaVuSans-6f" transform="translate(295.980469 0)"/>
      <use xlink:href="#DejaVuSans-72" transform="translate(357.162109 0)"/>
      <use xlink:href="#DejaVuSans-63" transform="translate(396.025391 0)"/>
      <use xlink:href="#DejaVuSans-65" transform="translate(451.005859 0)"/>
     </g>
    </g>
    <g id="line2d_26">
     <path d="M 68.15 54.656563 
L 78.15 54.656563 
L 88.15 54.656563 
" style="fill: none; stroke: #000000; stroke-width: 2; stroke-linecap: square"/>
    </g>
    <g id="text_16">
     <!-- Adjusted Force -->
     <g transform="translate(96.15 58.156563) scale(0.1 -0.1)">
      <defs>
       <path id="DejaVuSans-41" d="M 2188 4044 
L 1331 1722 
L 3047 1722 
L 2188 4044 
z
M 1831 4666 
L 2547 4666 
L 4325 0 
L 3669 0 
L 3244 1197 
L 1141 1197 
L 716 0 
L 50 0 
L 1831 4666 
z
" transform="scale(0.015625)"/>
       <path id="DejaVuSans-64" d="M 2906 2969 
L 2906 4863 
L 3481 4863 
L 3481 0 
L 2906 0 
L 2906 525 
Q 2725 213 2448 61 
Q 2172 -91 1784 -91 
Q 1150 -91 751 415 
Q 353 922 353 1747 
Q 353 2572 751 3078 
Q 1150 3584 1784 3584 
Q 2172 3584 2448 3432 
Q 2725 3281 2906 2969 
z
M 947 1747 
Q 947 1113 1208 752 
Q 1469 391 1925 391 
Q 2381 391 2643 752 
Q 2906 1113 2906 1747 
Q 2906 2381 2643 2742 
Q 2381 3103 1925 3103 
Q 1469 3103 1208 2742 
Q 947 2381 947 1747 
z
" transform="scale(0.015625)"/>
       <path id="DejaVuSans-6a" d="M 603 3500 
L 1178 3500 
L 1178 -63 
Q 1178 -731 923 -1031 
Q 669 -1331 103 -1331 
L -116 -1331 
L -116 -844 
L 38 -844 
Q 366 -844 484 -692 
Q 603 -541 603 -63 
L 603 3500 
z
M 603 4863 
L 1178 4863 
L 1178 4134 
L 603 4134 
L 603 4863 
z
" transform="scale(0.015625)"/>
       <path id="DejaVuSans-75" d="M 544 1381 
L 544 3500 
L 1119 3500 
L 1119 1403 
Q 1119 906 1312 657 
Q 1506 409 1894 409 
Q 2359 409 2629 706 
Q 2900 1003 2900 1516 
L 2900 3500 
L 3475 3500 
L 3475 0 
L 2900 0 
L 2900 538 
Q 2691 219 2414 64 
Q 2138 -91 1772 -91 
Q 1169 -91 856 284 
Q 544 659 544 1381 
z
M 1991 3584 
L 1991 3584 
z
" transform="scale(0.015625)"/>
      </defs>
      <use xlink:href="#DejaVuSans-41"/>
      <use xlink:href="#DejaVuSans-64" transform="translate(66.658203 0)"/>
      <use xlink:href="#DejaVuSans-6a" transform="translate(130.134766 0)"/>
      <use xlink:href="#DejaVuSans-75" transform="translate(157.917969 0)"/>
      <use xlink:href="#DejaVuSans-73" transform="translate(221.296875 0)"/>
      <use xlink:href="#DejaVuSans-74" transform="translate(273.396484 0)"/>
      <use xlink:href="#DejaVuSans-65" transform="translate(312.605469 0)"/>
      <use xlink:href="#DejaVuSans-64" transform="translate(374.128906 0)"/>
      <use xlink:href="#DejaVuSans-20" transform="translate(437.605469 0)"/>
      <use xlink:href="#DejaVuSans-46" transform="translate(469.392578 0)"/>
      <use xlink:href="#DejaVuSans-6f" transform="translate(523.287109 0)"/>
      <use xlink:href="#DejaVuSans-72" transform="translate(584.46875 0)"/>
      <use xlink:href="#DejaVuSans-63" transform="translate(623.332031 0)"/>
      <use xlink:href="#DejaVuSans-65" transform="translate(678.3125 0)"/>
     </g>
    </g>
   </g>
  </g>
 </g>
 <defs>
  <clipPath id="p54a692bef4">
   <rect x="59.15" y="26.88" width="390.85" height="276.76"/>
  </clipPath>
 </defs>
</svg>
