<?xml version="1.0" encoding="utf-8" standalone="no"?>
<!DOCTYPE svg PUBLIC "-//W3C//DTD SVG 1.1//EN"
  "http://www.w3.org/Graphics/SVG/1.1/DTD/svg11.dtd">
<svg xmlns:xlink="http://www.w3.org/1999/xlink" width="460.8pt" height="345.6pt" viewBox="0 0 460.8 345.6" xmlns="http://www.w3.org/2000/svg" version="1.1">
 <metadata>
  <rdf:RDF xmlns:dc="http://purl.org/dc/elements/1.1/" xmlns:cc="http://creativecommons.org/ns#" xmlns:rdf="http://www.w3.org/1999/02/22-rdf-syntax-ns#">
   <cc:Work>
    <dc:type rdf:resource="http://purl.org/dc/dcmitype/StillImage"/>
    <dc:date>2025-07-28T21:14:06.441058</dc:date>
    <dc:format>image/svg+xml</dc:format>
    <dc:creator>
     <cc:Agent>
      <dc:title>Matplotlib v3.10.3, https://matplotlib.org/</dc:title>
     </cc:Agent>
    </dc:creator>
   </cc:Work>
  </rdf:RDF>
 </metadata>
 <defs>
  <style type="text/css">*{stroke-linejoin: round; stroke-linecap: butt}</style>
 </defs>
 <g id="figure_1">
  <g id="patch_1">
   <path d="M 0 345.6 
L 460.8 345.6 
L 460.8 0 
L 0 0 
z
" style="fill: #ffffff"/>
  </g>
  <g id="axes_1">
   <g id="patch_2">
    <path d="M 59.15 303.64 
L 450 303.64 
L 450 26.88 
L 59.15 26.88 
z
" style="fill: #ffffff"/>
   </g>
   <g id="matplotlib.axis_1">
    <g id="xtick_1">
     <g id="line2d_1">
      <path d="M 77.026848 303.64 
L 77.026848 26.88 
" clip-path="url(#pc27c5640d3)" style="fill: none; stroke: #b0b0b0; stroke-opacity: 0.3; stroke-width: 0.8; stroke-linecap: square"/>
     </g>
     <g id="line2d_2">
      <defs>
       <path id="m091a1baa0b" d="M 0 0 
L 0 3.5 
" style="stroke: #000000; stroke-width: 0.8"/>
      </defs>
      <g>
       <use xlink:href="#m091a1baa0b" x="77.026848" y="303.64" style="stroke: #000000; stroke-width: 0.8"/>
      </g>
     </g>
     <g id="text_1">
      <!-- 0.00 -->
      <g transform="translate(65.894036 318.238437) scale(0.1 -0.1)">
       <defs>
        <path id="DejaVuSans-30" d="M 2034 4250 
Q 1547 4250 1301 3770 
Q 1056 3291 1056 2328 
Q 1056 1369 1301 889 
Q 1547 409 2034 409 
Q 2525 409 2770 889 
Q 3016 1369 3016 2328 
Q 3016 3291 2770 3770 
Q 2525 4250 2034 4250 
z
M 2034 4750 
Q 2819 4750 3233 4129 
Q 3647 3509 3647 2328 
Q 3647 1150 3233 529 
Q 2819 -91 2034 -91 
Q 1250 -91 836 529 
Q 422 1150 422 2328 
Q 422 3509 836 4129 
Q 1250 4750 2034 4750 
z
" transform="scale(0.015625)"/>
        <path id="DejaVuSans-2e" d="M 684 794 
L 1344 794 
L 1344 0 
L 684 0 
L 684 794 
z
" transform="scale(0.015625)"/>
       </defs>
       <use xlink:href="#DejaVuSans-30"/>
       <use xlink:href="#DejaVuSans-2e" transform="translate(63.623047 0)"/>
       <use xlink:href="#DejaVuSans-30" transform="translate(95.410156 0)"/>
       <use xlink:href="#DejaVuSans-30" transform="translate(159.033203 0)"/>
      </g>
     </g>
    </g>
    <g id="xtick_2">
     <g id="line2d_3">
      <path d="M 145.505013 303.64 
L 145.505013 26.88 
" clip-path="url(#pc27c5640d3)" style="fill: none; stroke: #b0b0b0; stroke-opacity: 0.3; stroke-width: 0.8; stroke-linecap: square"/>
     </g>
     <g id="line2d_4">
      <g>
       <use xlink:href="#m091a1baa0b" x="145.505013" y="303.64" style="stroke: #000000; stroke-width: 0.8"/>
      </g>
     </g>
     <g id="text_2">
      <!-- 0.05 -->
      <g transform="translate(134.3722 318.238437) scale(0.1 -0.1)">
       <defs>
        <path id="DejaVuSans-35" d="M 691 4666 
L 3169 4666 
L 3169 4134 
L 1269 4134 
L 1269 2991 
Q 1406 3038 1543 3061 
Q 1681 3084 1819 3084 
Q 2600 3084 3056 2656 
Q 3513 2228 3513 1497 
Q 3513 744 3044 326 
Q 2575 -91 1722 -91 
Q 1428 -91 1123 -41 
Q 819 9 494 109 
L 494 744 
Q 775 591 1075 516 
Q 1375 441 1709 441 
Q 2250 441 2565 725 
Q 2881 1009 2881 1497 
Q 2881 1984 2565 2268 
Q 2250 2553 1709 2553 
Q 1456 2553 1204 2497 
Q 953 2441 691 2322 
L 691 4666 
z
" transform="scale(0.015625)"/>
       </defs>
       <use xlink:href="#DejaVuSans-30"/>
       <use xlink:href="#DejaVuSans-2e" transform="translate(63.623047 0)"/>
       <use xlink:href="#DejaVuSans-30" transform="translate(95.410156 0)"/>
       <use xlink:href="#DejaVuSans-35" transform="translate(159.033203 0)"/>
      </g>
     </g>
    </g>
    <g id="xtick_3">
     <g id="line2d_5">
      <path d="M 213.983177 303.64 
L 213.983177 26.88 
" clip-path="url(#pc27c5640d3)" style="fill: none; stroke: #b0b0b0; stroke-opacity: 0.3; stroke-width: 0.8; stroke-linecap: square"/>
     </g>
     <g id="line2d_6">
      <g>
       <use xlink:href="#m091a1baa0b" x="213.983177" y="303.64" style="stroke: #000000; stroke-width: 0.8"/>
      </g>
     </g>
     <g id="text_3">
      <!-- 0.10 -->
      <g transform="translate(202.850364 318.238437) scale(0.1 -0.1)">
       <defs>
        <path id="DejaVuSans-31" d="M 794 531 
L 1825 531 
L 1825 4091 
L 703 3866 
L 703 4441 
L 1819 4666 
L 2450 4666 
L 2450 531 
L 3481 531 
L 3481 0 
L 794 0 
L 794 531 
z
" transform="scale(0.015625)"/>
       </defs>
       <use xlink:href="#DejaVuSans-30"/>
       <use xlink:href="#DejaVuSans-2e" transform="translate(63.623047 0)"/>
       <use xlink:href="#DejaVuSans-31" transform="translate(95.410156 0)"/>
       <use xlink:href="#DejaVuSans-30" transform="translate(159.033203 0)"/>
      </g>
     </g>
    </g>
    <g id="xtick_4">
     <g id="line2d_7">
      <path d="M 282.461341 303.64 
L 282.461341 26.88 
" clip-path="url(#pc27c5640d3)" style="fill: none; stroke: #b0b0b0; stroke-opacity: 0.3; stroke-width: 0.8; stroke-linecap: square"/>
     </g>
     <g id="line2d_8">
      <g>
       <use xlink:href="#m091a1baa0b" x="282.461341" y="303.64" style="stroke: #000000; stroke-width: 0.8"/>
      </g>
     </g>
     <g id="text_4">
      <!-- 0.15 -->
      <g transform="translate(271.328529 318.238437) scale(0.1 -0.1)">
       <use xlink:href="#DejaVuSans-30"/>
       <use xlink:href="#DejaVuSans-2e" transform="translate(63.623047 0)"/>
       <use xlink:href="#DejaVuSans-31" transform="translate(95.410156 0)"/>
       <use xlink:href="#DejaVuSans-35" transform="translate(159.033203 0)"/>
      </g>
     </g>
    </g>
    <g id="xtick_5">
     <g id="line2d_9">
      <path d="M 350.939505 303.64 
L 350.939505 26.88 
" clip-path="url(#pc27c5640d3)" style="fill: none; stroke: #b0b0b0; stroke-opacity: 0.3; stroke-width: 0.8; stroke-linecap: square"/>
     </g>
     <g id="line2d_10">
      <g>
       <use xlink:href="#m091a1baa0b" x="350.939505" y="303.64" style="stroke: #000000; stroke-width: 0.8"/>
      </g>
     </g>
     <g id="text_5">
      <!-- 0.20 -->
      <g transform="translate(339.806693 318.238437) scale(0.1 -0.1)">
       <defs>
        <path id="DejaVuSans-32" d="M 1228 531 
L 3431 531 
L 3431 0 
L 469 0 
L 469 531 
Q 828 903 1448 1529 
Q 2069 2156 2228 2338 
Q 2531 2678 2651 2914 
Q 2772 3150 2772 3378 
Q 2772 3750 2511 3984 
Q 2250 4219 1831 4219 
Q 1534 4219 1204 4116 
Q 875 4013 500 3803 
L 500 4441 
Q 881 4594 1212 4672 
Q 1544 4750 1819 4750 
Q 2544 4750 2975 4387 
Q 3406 4025 3406 3419 
Q 3406 3131 3298 2873 
Q 3191 2616 2906 2266 
Q 2828 2175 2409 1742 
Q 1991 1309 1228 531 
z
" transform="scale(0.015625)"/>
       </defs>
       <use xlink:href="#DejaVuSans-30"/>
       <use xlink:href="#DejaVuSans-2e" transform="translate(63.623047 0)"/>
       <use xlink:href="#DejaVuSans-32" transform="translate(95.410156 0)"/>
       <use xlink:href="#DejaVuSans-30" transform="translate(159.033203 0)"/>
      </g>
     </g>
    </g>
    <g id="xtick_6">
     <g id="line2d_11">
      <path d="M 419.417669 303.64 
L 419.417669 26.88 
" clip-path="url(#pc27c5640d3)" style="fill: none; stroke: #b0b0b0; stroke-opacity: 0.3; stroke-width: 0.8; stroke-linecap: square"/>
     </g>
     <g id="line2d_12">
      <g>
       <use xlink:href="#m091a1baa0b" x="419.417669" y="303.64" style="stroke: #000000; stroke-width: 0.8"/>
      </g>
     </g>
     <g id="text_6">
      <!-- 0.25 -->
      <g transform="translate(408.284857 318.238437) scale(0.1 -0.1)">
       <use xlink:href="#DejaVuSans-30"/>
       <use xlink:href="#DejaVuSans-2e" transform="translate(63.623047 0)"/>
       <use xlink:href="#DejaVuSans-32" transform="translate(95.410156 0)"/>
       <use xlink:href="#DejaVuSans-35" transform="translate(159.033203 0)"/>
      </g>
     </g>
    </g>
    <g id="text_7">
     <!-- Strain [-] -->
     <g transform="translate(232.46875 331.916562) scale(0.1 -0.1)">
      <defs>
       <path id="DejaVuSans-53" d="M 3425 4513 
L 3425 3897 
Q 3066 4069 2747 4153 
Q 2428 4238 2131 4238 
Q 1616 4238 1336 4038 
Q 1056 3838 1056 3469 
Q 1056 3159 1242 3001 
Q 1428 2844 1947 2747 
L 2328 2669 
Q 3034 2534 3370 2195 
Q 3706 1856 3706 1288 
Q 3706 609 3251 259 
Q 2797 -91 1919 -91 
Q 1588 -91 1214 -16 
Q 841 59 441 206 
L 441 856 
Q 825 641 1194 531 
Q 1563 422 1919 422 
Q 2459 422 2753 634 
Q 3047 847 3047 1241 
Q 3047 1584 2836 1778 
Q 2625 1972 2144 2069 
L 1759 2144 
Q 1053 2284 737 2584 
Q 422 2884 422 3419 
Q 422 4038 858 4394 
Q 1294 4750 2059 4750 
Q 2388 4750 2728 4690 
Q 3069 4631 3425 4513 
z
" transform="scale(0.015625)"/>
       <path id="DejaVuSans-74" d="M 1172 4494 
L 1172 3500 
L 2356 3500 
L 2356 3053 
L 1172 3053 
L 1172 1153 
Q 1172 725 1289 603 
Q 1406 481 1766 481 
L 2356 481 
L 2356 0 
L 1766 0 
Q 1100 0 847 248 
Q 594 497 594 1153 
L 594 3053 
L 172 3053 
L 172 3500 
L 594 3500 
L 594 4494 
L 1172 4494 
z
" transform="scale(0.015625)"/>
       <path id="DejaVuSans-72" d="M 2631 2963 
Q 2534 3019 2420 3045 
Q 2306 3072 2169 3072 
Q 1681 3072 1420 2755 
Q 1159 2438 1159 1844 
L 1159 0 
L 581 0 
L 581 3500 
L 1159 3500 
L 1159 2956 
Q 1341 3275 1631 3429 
Q 1922 3584 2338 3584 
Q 2397 3584 2469 3576 
Q 2541 3569 2628 3553 
L 2631 2963 
z
" transform="scale(0.015625)"/>
       <path id="DejaVuSans-61" d="M 2194 1759 
Q 1497 1759 1228 1600 
Q 959 1441 959 1056 
Q 959 750 1161 570 
Q 1363 391 1709 391 
Q 2188 391 2477 730 
Q 2766 1069 2766 1631 
L 2766 1759 
L 2194 1759 
z
M 3341 1997 
L 3341 0 
L 2766 0 
L 2766 531 
Q 2569 213 2275 61 
Q 1981 -91 1556 -91 
Q 1019 -91 701 211 
Q 384 513 384 1019 
Q 384 1609 779 1909 
Q 1175 2209 1959 2209 
L 2766 2209 
L 2766 2266 
Q 2766 2663 2505 2880 
Q 2244 3097 1772 3097 
Q 1472 3097 1187 3025 
Q 903 2953 641 2809 
L 641 3341 
Q 956 3463 1253 3523 
Q 1550 3584 1831 3584 
Q 2591 3584 2966 3190 
Q 3341 2797 3341 1997 
z
" transform="scale(0.015625)"/>
       <path id="DejaVuSans-69" d="M 603 3500 
L 1178 3500 
L 1178 0 
L 603 0 
L 603 3500 
z
M 603 4863 
L 1178 4863 
L 1178 4134 
L 603 4134 
L 603 4863 
z
" transform="scale(0.015625)"/>
       <path id="DejaVuSans-6e" d="M 3513 2113 
L 3513 0 
L 2938 0 
L 2938 2094 
Q 2938 2591 2744 2837 
Q 2550 3084 2163 3084 
Q 1697 3084 1428 2787 
Q 1159 2491 1159 1978 
L 1159 0 
L 581 0 
L 581 3500 
L 1159 3500 
L 1159 2956 
Q 1366 3272 1645 3428 
Q 1925 3584 2291 3584 
Q 2894 3584 3203 3211 
Q 3513 2838 3513 2113 
z
" transform="scale(0.015625)"/>
       <path id="DejaVuSans-20" transform="scale(0.015625)"/>
       <path id="DejaVuSans-5b" d="M 550 4863 
L 1875 4863 
L 1875 4416 
L 1125 4416 
L 1125 -397 
L 1875 -397 
L 1875 -844 
L 550 -844 
L 550 4863 
z
" transform="scale(0.015625)"/>
       <path id="DejaVuSans-2d" d="M 313 2009 
L 1997 2009 
L 1997 1497 
L 313 1497 
L 313 2009 
z
" transform="scale(0.015625)"/>
       <path id="DejaVuSans-5d" d="M 1947 4863 
L 1947 -844 
L 622 -844 
L 622 -397 
L 1369 -397 
L 1369 4416 
L 622 4416 
L 622 4863 
L 1947 4863 
z
" transform="scale(0.015625)"/>
      </defs>
      <use xlink:href="#DejaVuSans-53"/>
      <use xlink:href="#DejaVuSans-74" transform="translate(63.476562 0)"/>
      <use xlink:href="#DejaVuSans-72" transform="translate(102.685547 0)"/>
      <use xlink:href="#DejaVuSans-61" transform="translate(143.798828 0)"/>
      <use xlink:href="#DejaVuSans-69" transform="translate(205.078125 0)"/>
      <use xlink:href="#DejaVuSans-6e" transform="translate(232.861328 0)"/>
      <use xlink:href="#DejaVuSans-20" transform="translate(296.240234 0)"/>
      <use xlink:href="#DejaVuSans-5b" transform="translate(328.027344 0)"/>
      <use xlink:href="#DejaVuSans-2d" transform="translate(367.041016 0)"/>
      <use xlink:href="#DejaVuSans-5d" transform="translate(403.125 0)"/>
     </g>
    </g>
   </g>
   <g id="matplotlib.axis_2">
    <g id="ytick_1">
     <g id="line2d_13">
      <path d="M 59.15 300.501801 
L 450 300.501801 
" clip-path="url(#pc27c5640d3)" style="fill: none; stroke: #b0b0b0; stroke-opacity: 0.3; stroke-width: 0.8; stroke-linecap: square"/>
     </g>
     <g id="line2d_14">
      <defs>
       <path id="mcf5434c0f7" d="M 0 0 
L -3.5 0 
" style="stroke: #000000; stroke-width: 0.8"/>
      </defs>
      <g>
       <use xlink:href="#mcf5434c0f7" x="59.15" y="300.501801" style="stroke: #000000; stroke-width: 0.8"/>
      </g>
     </g>
     <g id="text_8">
      <!-- −250 -->
      <g transform="translate(24.682813 304.30102) scale(0.1 -0.1)">
       <defs>
        <path id="DejaVuSans-2212" d="M 678 2272 
L 4684 2272 
L 4684 1741 
L 678 1741 
L 678 2272 
z
" transform="scale(0.015625)"/>
       </defs>
       <use xlink:href="#DejaVuSans-2212"/>
       <use xlink:href="#DejaVuSans-32" transform="translate(83.789062 0)"/>
       <use xlink:href="#DejaVuSans-35" transform="translate(147.412109 0)"/>
       <use xlink:href="#DejaVuSans-30" transform="translate(211.035156 0)"/>
      </g>
     </g>
    </g>
    <g id="ytick_2">
     <g id="line2d_15">
      <path d="M 59.15 263.82295 
L 450 263.82295 
" clip-path="url(#pc27c5640d3)" style="fill: none; stroke: #b0b0b0; stroke-opacity: 0.3; stroke-width: 0.8; stroke-linecap: square"/>
     </g>
     <g id="line2d_16">
      <g>
       <use xlink:href="#mcf5434c0f7" x="59.15" y="263.82295" style="stroke: #000000; stroke-width: 0.8"/>
      </g>
     </g>
     <g id="text_9">
      <!-- 0 -->
      <g transform="translate(45.7875 267.622169) scale(0.1 -0.1)">
       <use xlink:href="#DejaVuSans-30"/>
      </g>
     </g>
    </g>
    <g id="ytick_3">
     <g id="line2d_17">
      <path d="M 59.15 227.144099 
L 450 227.144099 
" clip-path="url(#pc27c5640d3)" style="fill: none; stroke: #b0b0b0; stroke-opacity: 0.3; stroke-width: 0.8; stroke-linecap: square"/>
     </g>
     <g id="line2d_18">
      <g>
       <use xlink:href="#mcf5434c0f7" x="59.15" y="227.144099" style="stroke: #000000; stroke-width: 0.8"/>
      </g>
     </g>
     <g id="text_10">
      <!-- 250 -->
      <g transform="translate(33.0625 230.943318) scale(0.1 -0.1)">
       <use xlink:href="#DejaVuSans-32"/>
       <use xlink:href="#DejaVuSans-35" transform="translate(63.623047 0)"/>
       <use xlink:href="#DejaVuSans-30" transform="translate(127.246094 0)"/>
      </g>
     </g>
    </g>
    <g id="ytick_4">
     <g id="line2d_19">
      <path d="M 59.15 190.465248 
L 450 190.465248 
" clip-path="url(#pc27c5640d3)" style="fill: none; stroke: #b0b0b0; stroke-opacity: 0.3; stroke-width: 0.8; stroke-linecap: square"/>
     </g>
     <g id="line2d_20">
      <g>
       <use xlink:href="#mcf5434c0f7" x="59.15" y="190.465248" style="stroke: #000000; stroke-width: 0.8"/>
      </g>
     </g>
     <g id="text_11">
      <!-- 500 -->
      <g transform="translate(33.0625 194.264467) scale(0.1 -0.1)">
       <use xlink:href="#DejaVuSans-35"/>
       <use xlink:href="#DejaVuSans-30" transform="translate(63.623047 0)"/>
       <use xlink:href="#DejaVuSans-30" transform="translate(127.246094 0)"/>
      </g>
     </g>
    </g>
    <g id="ytick_5">
     <g id="line2d_21">
      <path d="M 59.15 153.786398 
L 450 153.786398 
" clip-path="url(#pc27c5640d3)" style="fill: none; stroke: #b0b0b0; stroke-opacity: 0.3; stroke-width: 0.8; stroke-linecap: square"/>
     </g>
     <g id="line2d_22">
      <g>
       <use xlink:href="#mcf5434c0f7" x="59.15" y="153.786398" style="stroke: #000000; stroke-width: 0.8"/>
      </g>
     </g>
     <g id="text_12">
      <!-- 750 -->
      <g transform="translate(33.0625 157.585616) scale(0.1 -0.1)">
       <defs>
        <path id="DejaVuSans-37" d="M 525 4666 
L 3525 4666 
L 3525 4397 
L 1831 0 
L 1172 0 
L 2766 4134 
L 525 4134 
L 525 4666 
z
" transform="scale(0.015625)"/>
       </defs>
       <use xlink:href="#DejaVuSans-37"/>
       <use xlink:href="#DejaVuSans-35" transform="translate(63.623047 0)"/>
       <use xlink:href="#DejaVuSans-30" transform="translate(127.246094 0)"/>
      </g>
     </g>
    </g>
    <g id="ytick_6">
     <g id="line2d_23">
      <path d="M 59.15 117.107547 
L 450 117.107547 
" clip-path="url(#pc27c5640d3)" style="fill: none; stroke: #b0b0b0; stroke-opacity: 0.3; stroke-width: 0.8; stroke-linecap: square"/>
     </g>
     <g id="line2d_24">
      <g>
       <use xlink:href="#mcf5434c0f7" x="59.15" y="117.107547" style="stroke: #000000; stroke-width: 0.8"/>
      </g>
     </g>
     <g id="text_13">
      <!-- 1000 -->
      <g transform="translate(26.7 120.906765) scale(0.1 -0.1)">
       <use xlink:href="#DejaVuSans-31"/>
       <use xlink:href="#DejaVuSans-30" transform="translate(63.623047 0)"/>
       <use xlink:href="#DejaVuSans-30" transform="translate(127.246094 0)"/>
       <use xlink:href="#DejaVuSans-30" transform="translate(190.869141 0)"/>
      </g>
     </g>
    </g>
    <g id="ytick_7">
     <g id="line2d_25">
      <path d="M 59.15 80.428696 
L 450 80.428696 
" clip-path="url(#pc27c5640d3)" style="fill: none; stroke: #b0b0b0; stroke-opacity: 0.3; stroke-width: 0.8; stroke-linecap: square"/>
     </g>
     <g id="line2d_26">
      <g>
       <use xlink:href="#mcf5434c0f7" x="59.15" y="80.428696" style="stroke: #000000; stroke-width: 0.8"/>
      </g>
     </g>
     <g id="text_14">
      <!-- 1250 -->
      <g transform="translate(26.7 84.227914) scale(0.1 -0.1)">
       <use xlink:href="#DejaVuSans-31"/>
       <use xlink:href="#DejaVuSans-32" transform="translate(63.623047 0)"/>
       <use xlink:href="#DejaVuSans-35" transform="translate(127.246094 0)"/>
       <use xlink:href="#DejaVuSans-30" transform="translate(190.869141 0)"/>
      </g>
     </g>
    </g>
    <g id="ytick_8">
     <g id="line2d_27">
      <path d="M 59.15 43.749845 
L 450 43.749845 
" clip-path="url(#pc27c5640d3)" style="fill: none; stroke: #b0b0b0; stroke-opacity: 0.3; stroke-width: 0.8; stroke-linecap: square"/>
     </g>
     <g id="line2d_28">
      <g>
       <use xlink:href="#mcf5434c0f7" x="59.15" y="43.749845" style="stroke: #000000; stroke-width: 0.8"/>
      </g>
     </g>
     <g id="text_15">
      <!-- 1500 -->
      <g transform="translate(26.7 47.549064) scale(0.1 -0.1)">
       <use xlink:href="#DejaVuSans-31"/>
       <use xlink:href="#DejaVuSans-35" transform="translate(63.623047 0)"/>
       <use xlink:href="#DejaVuSans-30" transform="translate(127.246094 0)"/>
       <use xlink:href="#DejaVuSans-30" transform="translate(190.869141 0)"/>
      </g>
     </g>
    </g>
    <g id="text_16">
     <!-- Stress [Pa] -->
     <g transform="translate(18.603125 191.967812) rotate(-90) scale(0.1 -0.1)">
      <defs>
       <path id="DejaVuSans-65" d="M 3597 1894 
L 3597 1613 
L 953 1613 
Q 991 1019 1311 708 
Q 1631 397 2203 397 
Q 2534 397 2845 478 
Q 3156 559 3463 722 
L 3463 178 
Q 3153 47 2828 -22 
Q 2503 -91 2169 -91 
Q 1331 -91 842 396 
Q 353 884 353 1716 
Q 353 2575 817 3079 
Q 1281 3584 2069 3584 
Q 2775 3584 3186 3129 
Q 3597 2675 3597 1894 
z
M 3022 2063 
Q 3016 2534 2758 2815 
Q 2500 3097 2075 3097 
Q 1594 3097 1305 2825 
Q 1016 2553 972 2059 
L 3022 2063 
z
" transform="scale(0.015625)"/>
       <path id="DejaVuSans-73" d="M 2834 3397 
L 2834 2853 
Q 2591 2978 2328 3040 
Q 2066 3103 1784 3103 
Q 1356 3103 1142 2972 
Q 928 2841 928 2578 
Q 928 2378 1081 2264 
Q 1234 2150 1697 2047 
L 1894 2003 
Q 2506 1872 2764 1633 
Q 3022 1394 3022 966 
Q 3022 478 2636 193 
Q 2250 -91 1575 -91 
Q 1294 -91 989 -36 
Q 684 19 347 128 
L 347 722 
Q 666 556 975 473 
Q 1284 391 1588 391 
Q 1994 391 2212 530 
Q 2431 669 2431 922 
Q 2431 1156 2273 1281 
Q 2116 1406 1581 1522 
L 1381 1569 
Q 847 1681 609 1914 
Q 372 2147 372 2553 
Q 372 3047 722 3315 
Q 1072 3584 1716 3584 
Q 2034 3584 2315 3537 
Q 2597 3491 2834 3397 
z
" transform="scale(0.015625)"/>
       <path id="DejaVuSans-50" d="M 1259 4147 
L 1259 2394 
L 2053 2394 
Q 2494 2394 2734 2622 
Q 2975 2850 2975 3272 
Q 2975 3691 2734 3919 
Q 2494 4147 2053 4147 
L 1259 4147 
z
M 628 4666 
L 2053 4666 
Q 2838 4666 3239 4311 
Q 3641 3956 3641 3272 
Q 3641 2581 3239 2228 
Q 2838 1875 2053 1875 
L 1259 1875 
L 1259 0 
L 628 0 
L 628 4666 
z
" transform="scale(0.015625)"/>
      </defs>
      <use xlink:href="#DejaVuSans-53"/>
      <use xlink:href="#DejaVuSans-74" transform="translate(63.476562 0)"/>
      <use xlink:href="#DejaVuSans-72" transform="translate(102.685547 0)"/>
      <use xlink:href="#DejaVuSans-65" transform="translate(141.548828 0)"/>
      <use xlink:href="#DejaVuSans-73" transform="translate(203.072266 0)"/>
      <use xlink:href="#DejaVuSans-73" transform="translate(255.171875 0)"/>
      <use xlink:href="#DejaVuSans-20" transform="translate(307.271484 0)"/>
      <use xlink:href="#DejaVuSans-5b" transform="translate(339.058594 0)"/>
      <use xlink:href="#DejaVuSans-50" transform="translate(378.072266 0)"/>
      <use xlink:href="#DejaVuSans-61" transform="translate(433.875 0)"/>
      <use xlink:href="#DejaVuSans-5d" transform="translate(495.154297 0)"/>
     </g>
    </g>
   </g>
   <g id="line2d_29">
    <path d="M 77.026848 279.924075 
L 77.026065 279.407435 
L 77.026062 279.416072 
L 77.535925 277.72867 
L 78.060307 273.990084 
L 78.567854 272.978763 
L 79.097654 273.349599 
L 79.640999 273.546883 
L 80.16035 273.232341 
L 80.730398 272.103583 
L 81.819409 269.081018 
L 82.44712 268.353026 
L 82.988142 268.268654 
L 83.561673 268.449797 
L 84.16539 268.862535 
L 84.796196 269.449147 
L 85.449448 270.281464 
L 87.15069 272.935757 
L 88.190166 274.145467 
L 89.223196 274.930699 
L 89.734808 275.212888 
L 90.408184 275.401015 
L 91.071498 275.179396 
L 91.726298 274.535776 
L 93.666705 272.000059 
L 94.311443 271.43682 
L 94.957729 271.125841 
L 95.604015 271.188808 
L 96.249527 271.693899 
L 97.519654 273.397299 
L 98.133432 273.808327 
L 98.729409 273.751363 
L 99.309131 273.282757 
L 99.873374 272.587259 
L 100.964708 270.662669 
L 102.555268 267.347083 
L 103.087777 266.550111 
L 103.62493 266.016516 
L 104.167501 265.706107 
L 104.714716 265.592519 
L 105.265026 265.633582 
L 106.919055 266.036059 
L 108.009614 265.996527 
L 109.083146 265.60816 
L 110.13965 264.950573 
L 111.699251 264.04215 
L 113.744147 262.725835 
L 115.011177 261.927153 
L 118.165209 260.341475 
L 120.049888 259.511438 
L 122.545249 258.10049 
L 131.248828 253.534719 
L 132.490316 252.805016 
L 133.736449 252.269996 
L 137.488779 250.049534 
L 146.328581 245.697542 
L 147.580906 245.025418 
L 160.064642 237.746544 
L 161.951643 236.972945 
L 164.463258 235.526082 
L 167.61342 233.547333 
L 175.43387 229.261186 
L 180.58172 226.744852 
L 188.761304 221.648334 
L 193.397537 219.228344 
L 195.448625 218.044858 
L 207.738898 210.749542 
L 209.281471 209.924636 
L 215.914612 206.124482 
L 217.813997 205.07696 
L 232.894597 195.549932 
L 234.767666 194.3254 
L 239.756841 191.363834 
L 245.996792 187.215931 
L 247.877601 185.974297 
L 250.389216 184.302252 
L 254.170958 182.056421 
L 261.803327 177.130929 
L 267.41015 173.43852 
L 276.194999 167.022838 
L 283.383083 162.425445 
L 287.957396 159.112709 
L 289.990682 157.652734 
L 292.030934 156.099836 
L 294.084344 154.686607 
L 296.660201 153.090953 
L 299.226769 151.345938 
L 301.270117 149.824964 
L 303.824302 147.87529 
L 315.118444 139.888467 
L 316.260861 139.110878 
L 318.780217 137.220493 
L 320.656382 135.661893 
L 322.527903 134.246385 
L 325.644782 131.93642 
L 328.137822 129.845936 
L 336.879326 123.017516 
L 341.891721 118.98933 
L 345.821465 115.985952 
L 348.366362 113.909159 
L 354.936036 108.562378 
L 360.578462 103.449899 
L 365.267327 99.422853 
L 366.792872 98.133332 
L 373.409759 92.618377 
L 376.469363 89.816433 
L 383.139656 84.232498 
L 386.563812 81.002425 
L 391.371098 76.425821 
L 392.901287 74.964136 
L 394.953149 73.057788 
L 397.019716 71.131487 
L 400.126534 68.541043 
L 403.724065 65.02935 
L 416.960016 52.035157 
L 418.851661 50.159023 
L 420.7286 48.680806 
L 423.165912 46.964294 
L 425.982481 45.454152 
L 429.249903 44.129001 
L 429.763836 43.76814 
L 430.818405 42.496292 
L 431.834032 40.391306 
L 431.993161 40.548916 
L 432.234091 43.816472 
L 432.091095 71.78993 
L 431.575687 72.096116 
L 430.531325 74.914379 
L 429.994753 74.811533 
L 428.932637 75.317799 
L 428.386197 75.730252 
L 426.823887 76.434355 
L 426.286928 77.760361 
L 425.767359 79.349459 
L 425.254587 80.331137 
L 424.164801 80.657793 
L 422.075884 82.087697 
L 421.555953 83.939032 
L 421.046761 85.284991 
L 420.528377 85.993316 
L 419.482903 86.54893 
L 418.965874 86.943782 
L 417.913337 88.199953 
L 416.851705 89.796605 
L 416.335547 90.455903 
L 415.29433 91.457177 
L 414.775075 92.249446 
L 414.244889 92.783754 
L 413.203671 94.211519 
L 411.639765 95.414299 
L 410.611802 96.652228 
L 409.58084 98.265128 
L 407.503533 100.18416 
L 405.419744 102.728855 
L 403.371946 104.903425 
L 402.356851 105.987932 
L 399.782663 108.678247 
L 398.189006 110.307678 
L 394.545422 113.907805 
L 392.960667 115.808025 
L 392.448475 116.282189 
L 391.402614 116.959801 
L 388.808375 119.675805 
L 386.737695 121.609436 
L 386.20983 122.216999 
L 385.147134 123.05573 
L 382.577856 125.510281 
L 380.516706 127.359193 
L 377.903311 129.590202 
L 376.363447 130.850364 
L 374.794655 132.577564 
L 373.768675 133.349007 
L 373.256484 133.676946 
L 372.73036 134.191871 
L 372.205301 134.962476 
L 371.160794 135.453734 
L 370.11948 136.007389 
L 369.596453 136.685998 
L 369.067524 137.675372 
L 368.030563 138.383126 
L 367.505214 138.661611 
L 366.989539 138.764261 
L 366.481605 139.310406 
L 365.951128 140.111868 
L 363.888236 141.478243 
L 362.851276 142.969715 
L 360.766979 143.989989 
L 359.715699 145.307613 
L 357.638102 146.384094 
L 356.601142 147.853369 
L 356.089531 147.981779 
L 354.529156 149.137545 
L 354.012127 149.902165 
L 352.455816 150.899663 
L 351.944785 151.194038 
L 351.42408 151.643903 
L 350.90589 152.514272 
L 349.333324 153.158231 
L 348.817868 153.394057 
L 348.302193 154.004791 
L 347.787389 154.79364 
L 346.741722 155.36967 
L 345.702826 155.754563 
L 345.188313 156.320368 
L 344.674476 157.100237 
L 342.072304 158.644656 
L 341.54918 159.615217 
L 338.947297 160.802578 
L 338.429784 161.758318 
L 335.826475 163.186431 
L 335.297933 164.093998 
L 334.787483 164.427299 
L 334.257102 164.561286 
L 332.692277 165.441498 
L 332.161123 166.30631 
L 331.645061 166.649534 
L 330.624161 167.078911 
L 329.575881 167.632316 
L 329.064077 168.637367 
L 328.540565 169.018101 
L 328.009411 169.082564 
L 326.45397 169.634936 
L 325.94352 170.673622 
L 325.423492 171.090262 
L 324.37705 171.321625 
L 323.845509 171.593197 
L 323.316411 171.655746 
L 322.26813 173.505041 
L 321.735041 173.395737 
L 320.186663 173.939504 
L 319.668473 174.457458 
L 319.160055 175.757312 
L 318.639543 175.689419 
L 318.121353 175.768972 
L 317.092713 176.100242 
L 316.567073 176.184204 
L 316.051012 177.422703 
L 313.444389 178.338314 
L 312.918556 179.666886 
L 310.804895 180.501679 
L 310.27703 180.54032 
L 309.757486 181.44746 
L 307.667021 182.335146 
L 307.150959 182.582721 
L 306.639251 183.624542 
L 306.117869 183.99179 
L 305.080908 184.231188 
L 304.555752 184.462391 
L 304.02721 184.558627 
L 303.511149 185.467406 
L 302.994217 186.020099 
L 301.955515 186.315187 
L 301.426682 186.558433 
L 300.896399 186.574065 
L 299.848699 188.249228 
L 299.322576 188.18423 
L 297.764765 188.652934 
L 297.249864 189.205725 
L 296.730803 190.197276 
L 296.207389 190.133102 
L 295.183974 190.411627 
L 294.664623 190.469913 
L 294.147207 190.865513 
L 293.628533 192.244109 
L 292.606956 192.308274 
L 291.555676 192.615423 
L 291.03023 192.613147 
L 290.507203 193.746609 
L 289.997817 194.170971 
L 289.477305 194.180921 
L 287.905417 194.758247 
L 287.378133 195.707145 
L 284.794899 196.603311 
L 284.26326 197.542661 
L 283.745071 197.52029 
L 282.165056 197.990869 
L 281.65209 198.6708 
L 281.119484 199.586024 
L 280.607873 199.485699 
L 280.082524 199.535844 
L 279.565894 199.720371 
L 279.043447 199.739073 
L 278.52429 200.096896 
L 277.997779 201.339528 
L 276.968849 201.42875 
L 275.92202 201.755263 
L 275.404701 201.747875 
L 274.883125 202.884187 
L 274.363097 203.086935 
L 273.835232 203.086962 
L 272.279017 203.653581 
L 271.770405 204.60305 
L 271.252119 205.030485 
L 270.726576 205.040292 
L 269.681101 205.474693 
L 269.161557 205.530285 
L 268.638433 206.643402 
L 268.121791 207.025258 
L 266.06693 207.071443 
L 265.025035 208.744397 
L 263.985366 208.937894 
L 262.419379 209.359148 
L 261.890934 210.464676 
L 261.362682 210.43814 
L 259.810954 210.865865 
L 259.282702 211.207869 
L 258.765383 212.241068 
L 257.213329 212.295141 
L 256.690688 212.364379 
L 256.16234 212.615374 
L 255.642989 213.941238 
L 253.579807 214.307982 
L 253.056102 214.236526 
L 252.543524 215.291317 
L 252.028236 216.050094 
L 250.981021 216.1416 
L 249.942125 216.296546 
L 249.416776 216.623198 
L 248.907971 217.722954 
L 247.878557 217.90639 
L 247.358311 217.809022 
L 246.303065 217.979837 
L 245.78739 219.316675 
L 244.743464 219.722336 
L 243.696248 219.759467 
L 243.185895 219.518314 
L 242.160738 221.221001 
L 241.635969 221.189117 
L 239.550535 221.734429 
L 239.03486 222.958249 
L 238.506125 223.087305 
L 237.463359 223.142937 
L 236.430559 223.170528 
L 235.916723 224.180781 
L 235.393405 224.812243 
L 234.339187 224.868418 
L 233.819256 224.985356 
L 233.292165 224.964869 
L 232.765558 225.452545 
L 232.250754 226.335671 
L 231.741271 226.512848 
L 230.718049 226.703544 
L 230.192313 226.804408 
L 229.67393 227.095884 
L 229.146839 227.940457 
L 228.631454 228.148252 
L 227.085592 228.290104 
L 226.555599 228.422113 
L 225.522798 229.675291 
L 225.014961 229.852515 
L 223.956522 230.05421 
L 223.447426 230.198645 
L 222.939202 230.550046 
L 222.413949 231.146136 
L 221.885092 231.318541 
L 221.358969 231.298648 
L 220.319106 231.636866 
L 219.798304 231.878081 
L 219.289402 232.379253 
L 218.763762 232.690757 
L 217.192745 233.01595 
L 216.669621 233.317112 
L 216.157719 233.864104 
L 215.625791 234.132559 
L 214.571803 234.300329 
L 214.052645 234.507197 
L 213.527393 234.839162 
L 213.016652 235.424777 
L 212.489658 235.807799 
L 210.387196 236.29638 
L 209.859428 236.923896 
L 209.342496 237.337382 
L 208.822843 237.517581 
L 208.292849 237.5099 
L 207.772144 237.717409 
L 207.248633 237.801966 
L 206.207125 238.974763 
L 205.697546 239.220477 
L 205.186902 239.12909 
L 204.159423 239.216106 
L 203.649747 239.452903 
L 202.594501 240.800429 
L 200.525224 240.953734 
L 200.016322 241.29052 
L 199.501519 242.082076 
L 198.976169 242.442046 
L 196.880673 242.664518 
L 195.833276 243.864541 
L 194.795735 244.094257 
L 193.76903 244.021796 
L 193.242036 244.312595 
L 192.7133 244.993841 
L 192.198884 245.339881 
L 190.103194 245.635048 
L 189.072619 246.893215 
L 186.450226 247.670014 
L 185.923909 248.272019 
L 185.409783 248.458203 
L 183.870318 248.633909 
L 183.359384 248.991777 
L 182.83626 249.662191 
L 181.77337 250.06848 
L 180.217446 250.370171 
L 179.704868 250.985002 
L 179.196062 251.387657 
L 178.154651 251.502987 
L 177.641299 251.475062 
L 177.123303 251.602659 
L 176.613336 251.924719 
L 176.097178 252.603114 
L 175.580343 252.949652 
L 174.528676 253.171524 
L 173.489684 253.423731 
L 172.961626 253.975996 
L 172.444887 254.348544 
L 171.925923 254.480379 
L 171.394188 254.492644 
L 170.339547 254.752017 
L 168.800941 255.598823 
L 167.769205 255.882482 
L 167.24608 256.095194 
L 166.207475 256.957155 
L 165.699154 257.111223 
L 165.174772 257.120369 
L 164.122719 257.501646 
L 162.571535 258.683257 
L 161.514451 258.717286 
L 160.471298 259.040272 
L 159.421083 259.858212 
L 157.849618 260.011733 
L 157.340136 260.13038 
L 156.301144 260.931628 
L 155.770763 261.267975 
L 154.211356 261.751247 
L 152.640436 262.434631 
L 150.558194 263.29639 
L 148.488917 264.008385 
L 145.897194 265.212269 
L 144.346711 265.776711 
L 143.312363 266.458919 
L 141.220641 267.150533 
L 140.706611 267.379251 
L 140.192388 267.77396 
L 139.680583 267.942101 
L 139.154073 267.957798 
L 137.602696 268.537534 
L 137.095438 269.028658 
L 136.57541 269.278603 
L 134.500522 269.688174 
L 133.459014 270.425145 
L 132.94369 270.650957 
L 131.902473 270.877595 
L 131.370738 271.073524 
L 130.33252 271.781564 
L 129.30388 272.159789 
L 127.75318 272.59272 
L 126.185065 273.376261 
L 125.140171 273.731928 
L 122.54748 274.816167 
L 121.506843 275.172494 
L 119.944984 276.079338 
L 118.897768 276.176963 
L 118.380739 276.202331 
L 117.859356 276.410936 
L 116.816301 277.279168 
L 115.25225 277.433703 
L 114.724094 277.551705 
L 114.194778 278.016998 
L 113.686844 278.78347 
L 111.063193 278.719147 
L 110.038229 279.955473 
L 109.519459 280.032284 
L 108.467986 280.033624 
L 107.943507 280.178543 
L 107.424964 280.619135 
L 106.905129 281.282566 
L 106.389648 281.3328 
L 105.367393 281.247366 
L 104.322693 281.333722 
L 103.811953 282.174447 
L 103.287184 282.778377 
L 102.234164 282.583661 
L 100.698364 282.727889 
L 100.188301 283.775127 
L 99.664596 284.049188 
L 99.14331 283.824541 
L 97.590579 283.676661 
L 97.078774 284.159047 
L 96.567067 285.261154 
L 94.99334 285.004139 
L 94.475171 284.961978 
L 93.946242 284.778009 
L 92.919828 286.462346 
L 92.4087 286.540171 
L 91.891671 286.351588 
L 90.841166 286.357182 
L 90.31988 286.34807 
L 89.273342 287.700015 
L 88.213645 287.770419 
L 87.680749 287.706141 
L 87.161011 287.757962 
L 86.642144 287.963432 
L 86.1226 288.674179 
L 85.601701 289.132595 
L 83.499432 288.673809 
L 82.990143 288.977965 
L 82.478145 290.002541 
L 81.969854 290.357211 
L 81.4625 290.046518 
L 80.429797 289.884208 
L 79.391966 289.93637 
L 78.865552 291.047171 
L 78.35278 291.06 
L 77.829172 290.451368 
L 77.001674 289.989572 
L 76.94198 289.865295 
L 76.916239 289.098552 
L 76.916239 289.098552 
" clip-path="url(#pc27c5640d3)" style="fill: none; stroke: #ff0000; stroke-width: 2; stroke-linecap: square"/>
   </g>
   <g id="line2d_30">
    <path d="M 77.026848 279.924075 
L 77.026065 279.407435 
L 77.026062 279.416072 
L 77.535925 277.72867 
L 78.060307 273.990084 
L 78.567854 272.978763 
L 79.097654 273.349599 
L 79.640999 273.546883 
L 80.16035 273.232341 
L 80.730398 280.296765 
L 81.819409 276.63514 
L 82.44712 275.35474 
L 82.988142 274.64214 
L 83.561673 274.192774 
L 84.16539 274.029161 
L 84.796196 274.131776 
L 86.12205 274.687034 
L 88.707969 274.599821 
L 89.734808 275.212888 
L 90.408184 275.401015 
L 91.071498 275.179396 
L 91.726298 274.535776 
L 93.666705 272.000059 
L 94.311443 271.43682 
L 94.957729 271.125841 
L 95.604015 271.188808 
L 96.249527 271.693899 
L 97.519654 273.397299 
L 98.133432 273.808327 
L 98.729409 273.751363 
L 99.309131 273.282757 
L 99.873374 272.587259 
L 100.964708 270.662669 
L 102.555268 267.347083 
L 103.087777 266.550111 
L 103.62493 266.016516 
L 104.167501 265.706107 
L 104.714716 265.592519 
L 105.265026 265.633582 
L 106.919055 266.036059 
L 108.009614 265.996527 
L 109.083146 265.60816 
L 110.13965 264.950573 
L 111.699251 264.04215 
L 113.744147 262.725835 
L 115.011177 261.927153 
L 118.165209 260.341475 
L 120.049888 259.511438 
L 122.545249 258.10049 
L 131.248828 253.534719 
L 132.490316 252.805016 
L 133.736449 252.269996 
L 137.488779 250.049534 
L 146.328581 245.697542 
L 147.580906 245.025418 
L 160.064642 237.746544 
L 161.951643 236.972945 
L 164.463258 235.526082 
L 167.61342 233.547333 
L 175.43387 229.261186 
L 180.58172 226.744852 
L 188.761304 221.648334 
L 193.397537 219.228344 
L 195.448625 218.044858 
L 207.738898 210.749542 
L 209.281471 209.924636 
L 215.914612 206.124482 
L 217.813997 205.07696 
L 232.894597 195.549932 
L 234.767666 194.3254 
L 239.756841 191.363834 
L 245.996792 187.215931 
L 247.877601 185.974297 
L 250.389216 184.302252 
L 254.170958 182.056421 
L 261.803327 177.130929 
L 267.41015 173.43852 
L 276.194999 167.022838 
L 283.383083 162.425445 
L 287.957396 159.112709 
L 289.990682 157.652734 
L 292.030934 156.099836 
L 294.084344 154.686607 
L 296.660201 153.090953 
L 299.226769 151.345938 
L 301.270117 149.824964 
L 303.824302 147.87529 
L 315.118444 139.888467 
L 316.260861 139.110878 
L 318.780217 137.220493 
L 320.656382 135.661893 
L 322.527903 134.246385 
L 325.644782 131.93642 
L 328.137822 129.845936 
L 336.879326 123.017516 
L 341.891721 118.98933 
L 345.821465 115.985952 
L 348.366362 113.909159 
L 354.936036 108.562378 
L 360.578462 103.449899 
L 365.267327 99.422853 
L 366.792872 98.133332 
L 373.409759 92.618377 
L 376.469363 89.816433 
L 383.139656 84.232498 
L 386.563812 81.002425 
L 391.371098 76.425821 
L 392.901287 74.964136 
L 394.953149 73.057788 
L 397.019716 71.131487 
L 400.126534 68.541043 
L 403.724065 65.02935 
L 416.328436 52.619172 
L 421.347796 47.533465 
L 427.092391 41.759693 
L 428.741001 40.441668 
L 430.818405 39.46 
L 431.834032 40.21418 
L 431.993161 40.380813 
L 432.234091 43.735655 
L 432.091095 71.78993 
L 431.575687 72.096116 
L 430.531325 74.914379 
L 429.994753 74.811533 
L 428.932637 75.317799 
L 428.386197 75.730252 
L 426.823887 76.434355 
L 426.286928 77.760361 
L 425.767359 79.349459 
L 425.254587 80.331137 
L 424.164801 80.657793 
L 422.075884 82.087697 
L 421.555953 83.939032 
L 421.046761 85.284991 
L 420.528377 85.993316 
L 419.482903 86.54893 
L 418.965874 86.943782 
L 417.913337 88.199953 
L 416.851705 89.796605 
L 416.335547 90.455903 
L 415.29433 91.457177 
L 414.775075 92.249446 
L 414.244889 92.783754 
L 413.203671 94.211519 
L 411.639765 95.414299 
L 410.611802 96.652228 
L 409.58084 98.265128 
L 407.503533 100.18416 
L 405.419744 102.728855 
L 403.371946 104.903425 
L 402.356851 105.987932 
L 399.782663 108.678247 
L 398.189006 110.307678 
L 394.545422 113.907805 
L 392.960667 115.808025 
L 392.448475 116.282189 
L 391.402614 116.959801 
L 388.808375 119.675805 
L 386.737695 121.609436 
L 386.20983 122.216999 
L 385.147134 123.05573 
L 382.577856 125.510281 
L 380.516706 127.359193 
L 377.903311 129.590202 
L 376.363447 130.850364 
L 374.794655 132.577564 
L 373.768675 133.349007 
L 373.256484 133.676946 
L 372.73036 134.191871 
L 372.205301 134.962476 
L 371.160794 135.453734 
L 370.11948 136.007389 
L 369.596453 136.685998 
L 369.067524 137.675372 
L 368.030563 138.383126 
L 367.505214 138.661611 
L 366.989539 138.764261 
L 366.481605 139.310406 
L 365.951128 140.111868 
L 363.888236 141.478243 
L 362.851276 142.969715 
L 360.766979 143.989989 
L 359.715699 145.307613 
L 357.638102 146.384094 
L 356.601142 147.853369 
L 356.089531 147.981779 
L 354.529156 149.137545 
L 354.012127 149.902165 
L 352.455816 150.899663 
L 351.944785 151.194038 
L 351.42408 151.643903 
L 350.90589 152.514272 
L 349.333324 153.158231 
L 348.817868 153.394057 
L 348.302193 154.004791 
L 347.787389 154.79364 
L 346.741722 155.36967 
L 345.702826 155.754563 
L 345.188313 156.320368 
L 344.674476 157.100237 
L 342.072304 158.644656 
L 341.54918 159.615217 
L 338.947297 160.802578 
L 338.429784 161.758318 
L 335.826475 163.186431 
L 335.297933 164.093998 
L 334.787483 164.427299 
L 334.257102 164.561286 
L 332.692277 165.441498 
L 332.161123 166.30631 
L 331.645061 166.649534 
L 330.624161 167.078911 
L 329.575881 167.632316 
L 329.064077 168.637367 
L 328.540565 169.018101 
L 328.009411 169.082564 
L 326.45397 169.634936 
L 325.94352 170.673622 
L 325.423492 171.090262 
L 324.37705 171.321625 
L 323.845509 171.593197 
L 323.316411 171.655746 
L 322.26813 173.505041 
L 321.735041 173.395737 
L 320.186663 173.939504 
L 319.668473 174.457458 
L 319.160055 175.757312 
L 318.639543 175.689419 
L 318.121353 175.768972 
L 317.092713 176.100242 
L 316.567073 176.184204 
L 316.051012 177.422703 
L 313.444389 178.338314 
L 312.918556 179.666886 
L 310.804895 180.501679 
L 310.27703 180.54032 
L 309.757486 181.44746 
L 307.667021 182.335146 
L 307.150959 182.582721 
L 306.639251 183.624542 
L 306.117869 183.99179 
L 305.080908 184.231188 
L 304.555752 184.462391 
L 304.02721 184.558627 
L 303.511149 185.467406 
L 302.994217 186.020099 
L 301.955515 186.315187 
L 301.426682 186.558433 
L 300.896399 186.574065 
L 299.848699 188.249228 
L 299.322576 188.18423 
L 297.764765 188.652934 
L 297.249864 189.205725 
L 296.730803 190.197276 
L 296.207389 190.133102 
L 295.183974 190.411627 
L 294.664623 190.469913 
L 294.147207 190.865513 
L 293.628533 192.244109 
L 292.606956 192.308274 
L 291.555676 192.615423 
L 291.03023 192.613147 
L 290.507203 193.746609 
L 289.997817 194.170971 
L 289.477305 194.180921 
L 287.905417 194.758247 
L 287.378133 195.707145 
L 284.794899 196.603311 
L 284.26326 197.542661 
L 283.745071 197.52029 
L 282.165056 197.990869 
L 281.65209 198.6708 
L 281.119484 199.586024 
L 280.607873 199.485699 
L 280.082524 199.535844 
L 279.565894 199.720371 
L 279.043447 199.739073 
L 278.52429 200.096896 
L 277.997779 201.339528 
L 276.968849 201.42875 
L 275.92202 201.755263 
L 275.404701 201.747875 
L 274.883125 202.884187 
L 274.363097 203.086935 
L 273.835232 203.086962 
L 272.279017 203.653581 
L 271.770405 204.60305 
L 271.252119 205.030485 
L 270.726576 205.040292 
L 269.681101 205.474693 
L 269.161557 205.530285 
L 268.638433 206.643402 
L 268.121791 207.025258 
L 266.06693 207.071443 
L 265.025035 208.744397 
L 263.985366 208.937894 
L 262.419379 209.359148 
L 261.890934 210.464676 
L 261.362682 210.43814 
L 259.810954 210.865865 
L 259.282702 211.207869 
L 258.765383 212.241068 
L 257.213329 212.295141 
L 256.690688 212.364379 
L 256.16234 212.615374 
L 255.642989 213.941238 
L 253.579807 214.307982 
L 253.056102 214.236526 
L 252.543524 215.291317 
L 252.028236 216.050094 
L 250.981021 216.1416 
L 249.942125 216.296546 
L 249.416776 216.623198 
L 248.907971 217.722954 
L 247.878557 217.90639 
L 247.358311 217.809022 
L 246.303065 217.979837 
L 245.78739 219.316675 
L 244.743464 219.722336 
L 243.696248 219.759467 
L 243.185895 219.518314 
L 242.160738 221.221001 
L 241.635969 221.189117 
L 239.550535 221.734429 
L 239.03486 222.958249 
L 238.506125 223.087305 
L 237.463359 223.142937 
L 236.430559 223.170528 
L 235.916723 224.180781 
L 235.393405 224.812243 
L 234.339187 224.868418 
L 233.819256 224.985356 
L 233.292165 224.964869 
L 232.765558 225.452545 
L 232.250754 226.335671 
L 231.741271 226.512848 
L 230.718049 226.703544 
L 230.192313 226.804408 
L 229.67393 227.095884 
L 229.146839 227.940457 
L 228.631454 228.148252 
L 227.085592 228.290104 
L 226.555599 228.422113 
L 225.522798 229.675291 
L 225.014961 229.852515 
L 223.956522 230.05421 
L 223.447426 230.198645 
L 222.939202 230.550046 
L 222.413949 231.146136 
L 221.885092 231.318541 
L 221.358969 231.298648 
L 220.319106 231.636866 
L 219.798304 231.878081 
L 219.289402 232.379253 
L 218.763762 232.690757 
L 217.192745 233.01595 
L 216.669621 233.317112 
L 216.157719 233.864104 
L 215.625791 234.132559 
L 214.571803 234.300329 
L 214.052645 234.507197 
L 213.527393 234.839162 
L 213.016652 235.424777 
L 212.489658 235.807799 
L 210.387196 236.29638 
L 209.859428 236.923896 
L 209.342496 237.337382 
L 208.822843 237.517581 
L 208.292849 237.5099 
L 207.772144 237.717409 
L 207.248633 237.801966 
L 206.207125 238.974763 
L 205.697546 239.220477 
L 205.186902 239.12909 
L 204.159423 239.216106 
L 203.649747 239.452903 
L 202.594501 240.800429 
L 200.525224 240.953734 
L 200.016322 241.29052 
L 199.501519 242.082076 
L 198.976169 242.442046 
L 196.880673 242.664518 
L 195.833276 243.864541 
L 194.795735 244.094257 
L 193.76903 244.021796 
L 193.242036 244.312595 
L 192.7133 244.993841 
L 192.198884 245.339881 
L 190.103194 245.635048 
L 189.072619 246.893215 
L 186.450226 247.670014 
L 185.923909 248.272019 
L 185.409783 248.458203 
L 183.870318 248.633909 
L 183.359384 248.991777 
L 182.83626 249.662191 
L 181.77337 250.06848 
L 180.217446 250.370171 
L 179.704868 250.985002 
L 179.196062 251.387657 
L 178.154651 251.502987 
L 177.641299 251.475062 
L 177.123303 251.602659 
L 176.613336 251.924719 
L 176.097178 252.603114 
L 175.580343 252.949652 
L 174.528676 253.171524 
L 173.489684 253.423731 
L 172.961626 253.975996 
L 172.444887 254.348544 
L 171.925923 254.480379 
L 171.394188 254.492644 
L 170.339547 254.752017 
L 168.800941 255.598823 
L 167.769205 255.882482 
L 167.24608 256.095194 
L 166.207475 256.957155 
L 165.699154 257.111223 
L 165.174772 257.120369 
L 164.122719 257.501646 
L 162.571535 258.683257 
L 161.514451 258.717286 
L 160.471298 259.040272 
L 159.421083 259.858212 
L 157.849618 260.011733 
L 157.340136 260.13038 
L 156.301144 260.931628 
L 155.770763 261.267975 
L 154.211356 261.751247 
L 152.640436 262.434631 
L 150.558194 263.29639 
L 148.488917 264.008385 
L 145.897194 265.212269 
L 144.346711 265.776711 
L 143.312363 266.458919 
L 141.220641 267.150533 
L 140.706611 267.379251 
L 140.192388 267.77396 
L 139.680583 267.942101 
L 139.154073 267.957798 
L 137.602696 268.537534 
L 137.095438 269.028658 
L 136.57541 269.278603 
L 134.500522 269.688174 
L 133.459014 270.425145 
L 132.94369 270.650957 
L 131.902473 270.877595 
L 131.370738 271.073524 
L 130.33252 271.781564 
L 129.30388 272.159789 
L 127.75318 272.59272 
L 126.185065 273.376261 
L 125.140171 273.731928 
L 122.54748 274.816167 
L 121.506843 275.172494 
L 119.944984 276.079338 
L 118.897768 276.176963 
L 118.380739 276.202331 
L 117.859356 276.410936 
L 116.816301 277.279168 
L 115.25225 277.433703 
L 114.724094 277.551705 
L 114.194778 278.016998 
L 113.686844 278.78347 
L 111.063193 278.719147 
L 110.038229 279.955473 
L 109.519459 280.032284 
L 108.467986 280.033624 
L 107.943507 280.178543 
L 107.424964 280.619135 
L 106.905129 281.282566 
L 106.389648 281.3328 
L 105.367393 281.247366 
L 104.322693 281.333722 
L 103.811953 282.174447 
L 103.287184 282.778377 
L 102.234164 282.583661 
L 100.698364 282.727889 
L 100.188301 283.775127 
L 99.664596 284.049188 
L 99.14331 283.824541 
L 97.590579 283.676661 
L 97.078774 284.159047 
L 96.567067 285.261154 
L 94.99334 285.004139 
L 94.475171 284.961978 
L 93.946242 284.778009 
L 92.919828 286.462346 
L 92.4087 286.540171 
L 91.891671 286.351588 
L 90.841166 286.357182 
L 90.31988 286.34807 
L 89.273342 287.700015 
L 88.213645 287.770419 
L 87.680749 287.706141 
L 87.161011 287.757962 
L 86.642144 287.963432 
L 86.1226 288.674179 
L 85.601701 289.132595 
L 83.499432 288.673809 
L 82.990143 288.977965 
L 82.478145 290.002541 
L 81.969854 290.357211 
L 81.4625 290.046518 
L 80.429797 289.884208 
L 79.391966 289.93637 
L 78.865552 291.047171 
L 78.35278 291.06 
L 77.829172 290.451368 
L 77.001674 289.989572 
L 76.94198 289.865295 
L 76.916239 289.098552 
L 76.916239 289.098552 
" clip-path="url(#pc27c5640d3)" style="fill: none; stroke: #000000; stroke-width: 2; stroke-linecap: square"/>
   </g>
   <g id="patch_3">
    <path d="M 59.15 303.64 
L 59.15 26.88 
" style="fill: none; stroke: #000000; stroke-width: 0.8; stroke-linejoin: miter; stroke-linecap: square"/>
   </g>
   <g id="patch_4">
    <path d="M 450 303.64 
L 450 26.88 
" style="fill: none; stroke: #000000; stroke-width: 0.8; stroke-linejoin: miter; stroke-linecap: square"/>
   </g>
   <g id="patch_5">
    <path d="M 59.15 303.64 
L 450 303.64 
" style="fill: none; stroke: #000000; stroke-width: 0.8; stroke-linejoin: miter; stroke-linecap: square"/>
   </g>
   <g id="patch_6">
    <path d="M 59.15 26.88 
L 450 26.88 
" style="fill: none; stroke: #000000; stroke-width: 0.8; stroke-linejoin: miter; stroke-linecap: square"/>
   </g>
   <g id="text_17">
    <!-- 2025-06-16 Trial 20 - Stress vs Strain -->
    <g transform="translate(143.320938 20.88) scale(0.12 -0.12)">
     <defs>
      <path id="DejaVuSans-36" d="M 2113 2584 
Q 1688 2584 1439 2293 
Q 1191 2003 1191 1497 
Q 1191 994 1439 701 
Q 1688 409 2113 409 
Q 2538 409 2786 701 
Q 3034 994 3034 1497 
Q 3034 2003 2786 2293 
Q 2538 2584 2113 2584 
z
M 3366 4563 
L 3366 3988 
Q 3128 4100 2886 4159 
Q 2644 4219 2406 4219 
Q 1781 4219 1451 3797 
Q 1122 3375 1075 2522 
Q 1259 2794 1537 2939 
Q 1816 3084 2150 3084 
Q 2853 3084 3261 2657 
Q 3669 2231 3669 1497 
Q 3669 778 3244 343 
Q 2819 -91 2113 -91 
Q 1303 -91 875 529 
Q 447 1150 447 2328 
Q 447 3434 972 4092 
Q 1497 4750 2381 4750 
Q 2619 4750 2861 4703 
Q 3103 4656 3366 4563 
z
" transform="scale(0.015625)"/>
      <path id="DejaVuSans-54" d="M -19 4666 
L 3928 4666 
L 3928 4134 
L 2272 4134 
L 2272 0 
L 1638 0 
L 1638 4134 
L -19 4134 
L -19 4666 
z
" transform="scale(0.015625)"/>
      <path id="DejaVuSans-6c" d="M 603 4863 
L 1178 4863 
L 1178 0 
L 603 0 
L 603 4863 
z
" transform="scale(0.015625)"/>
      <path id="DejaVuSans-76" d="M 191 3500 
L 800 3500 
L 1894 563 
L 2988 3500 
L 3597 3500 
L 2284 0 
L 1503 0 
L 191 3500 
z
" transform="scale(0.015625)"/>
     </defs>
     <use xlink:href="#DejaVuSans-32"/>
     <use xlink:href="#DejaVuSans-30" transform="translate(63.623047 0)"/>
     <use xlink:href="#DejaVuSans-32" transform="translate(127.246094 0)"/>
     <use xlink:href="#DejaVuSans-35" transform="translate(190.869141 0)"/>
     <use xlink:href="#DejaVuSans-2d" transform="translate(254.492188 0)"/>
     <use xlink:href="#DejaVuSans-30" transform="translate(290.576172 0)"/>
     <use xlink:href="#DejaVuSans-36" transform="translate(354.199219 0)"/>
     <use xlink:href="#DejaVuSans-2d" transform="translate(417.822266 0)"/>
     <use xlink:href="#DejaVuSans-31" transform="translate(453.90625 0)"/>
     <use xlink:href="#DejaVuSans-36" transform="translate(517.529297 0)"/>
     <use xlink:href="#DejaVuSans-20" transform="translate(581.152344 0)"/>
     <use xlink:href="#DejaVuSans-54" transform="translate(612.939453 0)"/>
     <use xlink:href="#DejaVuSans-72" transform="translate(659.273438 0)"/>
     <use xlink:href="#DejaVuSans-69" transform="translate(700.386719 0)"/>
     <use xlink:href="#DejaVuSans-61" transform="translate(728.169922 0)"/>
     <use xlink:href="#DejaVuSans-6c" transform="translate(789.449219 0)"/>
     <use xlink:href="#DejaVuSans-20" transform="translate(817.232422 0)"/>
     <use xlink:href="#DejaVuSans-32" transform="translate(849.019531 0)"/>
     <use xlink:href="#DejaVuSans-30" transform="translate(912.642578 0)"/>
     <use xlink:href="#DejaVuSans-20" transform="translate(976.265625 0)"/>
     <use xlink:href="#DejaVuSans-2d" transform="translate(1008.052734 0)"/>
     <use xlink:href="#DejaVuSans-20" transform="translate(1044.136719 0)"/>
     <use xlink:href="#DejaVuSans-53" transform="translate(1075.923828 0)"/>
     <use xlink:href="#DejaVuSans-74" transform="translate(1139.400391 0)"/>
     <use xlink:href="#DejaVuSans-72" transform="translate(1178.609375 0)"/>
     <use xlink:href="#DejaVuSans-65" transform="translate(1217.472656 0)"/>
     <use xlink:href="#DejaVuSans-73" transform="translate(1278.996094 0)"/>
     <use xlink:href="#DejaVuSans-73" transform="translate(1331.095703 0)"/>
     <use xlink:href="#DejaVuSans-20" transform="translate(1383.195312 0)"/>
     <use xlink:href="#DejaVuSans-76" transform="translate(1414.982422 0)"/>
     <use xlink:href="#DejaVuSans-73" transform="translate(1474.162109 0)"/>
     <use xlink:href="#DejaVuSans-20" transform="translate(1526.261719 0)"/>
     <use xlink:href="#DejaVuSans-53" transform="translate(1558.048828 0)"/>
     <use xlink:href="#DejaVuSans-74" transform="translate(1621.525391 0)"/>
     <use xlink:href="#DejaVuSans-72" transform="translate(1660.734375 0)"/>
     <use xlink:href="#DejaVuSans-61" transform="translate(1701.847656 0)"/>
     <use xlink:href="#DejaVuSans-69" transform="translate(1763.126953 0)"/>
     <use xlink:href="#DejaVuSans-6e" transform="translate(1790.910156 0)"/>
    </g>
   </g>
   <g id="legend_1">
    <g id="patch_7">
     <path d="M 66.15 64.23625 
L 172.134375 64.23625 
Q 174.134375 64.23625 174.134375 62.23625 
L 174.134375 33.88 
Q 174.134375 31.88 172.134375 31.88 
L 66.15 31.88 
Q 64.15 31.88 64.15 33.88 
L 64.15 62.23625 
Q 64.15 64.23625 66.15 64.23625 
z
" style="fill: #ffffff; opacity: 0.8; stroke: #cccccc; stroke-linejoin: miter"/>
    </g>
    <g id="line2d_31">
     <path d="M 68.15 39.978437 
L 78.15 39.978437 
L 88.15 39.978437 
" style="fill: none; stroke: #ff0000; stroke-width: 2; stroke-linecap: square"/>
    </g>
    <g id="text_18">
     <!-- Raw Force -->
     <g transform="translate(96.15 43.478437) scale(0.1 -0.1)">
      <defs>
       <path id="DejaVuSans-52" d="M 2841 2188 
Q 3044 2119 3236 1894 
Q 3428 1669 3622 1275 
L 4263 0 
L 3584 0 
L 2988 1197 
Q 2756 1666 2539 1819 
Q 2322 1972 1947 1972 
L 1259 1972 
L 1259 0 
L 628 0 
L 628 4666 
L 2053 4666 
Q 2853 4666 3247 4331 
Q 3641 3997 3641 3322 
Q 3641 2881 3436 2590 
Q 3231 2300 2841 2188 
z
M 1259 4147 
L 1259 2491 
L 2053 2491 
Q 2509 2491 2742 2702 
Q 2975 2913 2975 3322 
Q 2975 3731 2742 3939 
Q 2509 4147 2053 4147 
L 1259 4147 
z
" transform="scale(0.015625)"/>
       <path id="DejaVuSans-77" d="M 269 3500 
L 844 3500 
L 1563 769 
L 2278 3500 
L 2956 3500 
L 3675 769 
L 4391 3500 
L 4966 3500 
L 4050 0 
L 3372 0 
L 2619 2869 
L 1863 0 
L 1184 0 
L 269 3500 
z
" transform="scale(0.015625)"/>
       <path id="DejaVuSans-46" d="M 628 4666 
L 3309 4666 
L 3309 4134 
L 1259 4134 
L 1259 2759 
L 3109 2759 
L 3109 2228 
L 1259 2228 
L 1259 0 
L 628 0 
L 628 4666 
z
" transform="scale(0.015625)"/>
       <path id="DejaVuSans-6f" d="M 1959 3097 
Q 1497 3097 1228 2736 
Q 959 2375 959 1747 
Q 959 1119 1226 758 
Q 1494 397 1959 397 
Q 2419 397 2687 759 
Q 2956 1122 2956 1747 
Q 2956 2369 2687 2733 
Q 2419 3097 1959 3097 
z
M 1959 3584 
Q 2709 3584 3137 3096 
Q 3566 2609 3566 1747 
Q 3566 888 3137 398 
Q 2709 -91 1959 -91 
Q 1206 -91 779 398 
Q 353 888 353 1747 
Q 353 2609 779 3096 
Q 1206 3584 1959 3584 
z
" transform="scale(0.015625)"/>
       <path id="DejaVuSans-63" d="M 3122 3366 
L 3122 2828 
Q 2878 2963 2633 3030 
Q 2388 3097 2138 3097 
Q 1578 3097 1268 2742 
Q 959 2388 959 1747 
Q 959 1106 1268 751 
Q 1578 397 2138 397 
Q 2388 397 2633 464 
Q 2878 531 3122 666 
L 3122 134 
Q 2881 22 2623 -34 
Q 2366 -91 2075 -91 
Q 1284 -91 818 406 
Q 353 903 353 1747 
Q 353 2603 823 3093 
Q 1294 3584 2113 3584 
Q 2378 3584 2631 3529 
Q 2884 3475 3122 3366 
z
" transform="scale(0.015625)"/>
      </defs>
      <use xlink:href="#DejaVuSans-52"/>
      <use xlink:href="#DejaVuSans-61" transform="translate(67.232422 0)"/>
      <use xlink:href="#DejaVuSans-77" transform="translate(128.511719 0)"/>
      <use xlink:href="#DejaVuSans-20" transform="translate(210.298828 0)"/>
      <use xlink:href="#DejaVuSans-46" transform="translate(242.085938 0)"/>
      <use xlink:href="#DejaVuSans-6f" transform="translate(295.980469 0)"/>
      <use xlink:href="#DejaVuSans-72" transform="translate(357.162109 0)"/>
      <use xlink:href="#DejaVuSans-63" transform="translate(396.025391 0)"/>
      <use xlink:href="#DejaVuSans-65" transform="translate(451.005859 0)"/>
     </g>
    </g>
    <g id="line2d_32">
     <path d="M 68.15 54.656563 
L 78.15 54.656563 
L 88.15 54.656563 
" style="fill: none; stroke: #000000; stroke-width: 2; stroke-linecap: square"/>
    </g>
    <g id="text_19">
     <!-- Adjusted Force -->
     <g transform="translate(96.15 58.156563) scale(0.1 -0.1)">
      <defs>
       <path id="DejaVuSans-41" d="M 2188 4044 
L 1331 1722 
L 3047 1722 
L 2188 4044 
z
M 1831 4666 
L 2547 4666 
L 4325 0 
L 3669 0 
L 3244 1197 
L 1141 1197 
L 716 0 
L 50 0 
L 1831 4666 
z
" transform="scale(0.015625)"/>
       <path id="DejaVuSans-64" d="M 2906 2969 
L 2906 4863 
L 3481 4863 
L 3481 0 
L 2906 0 
L 2906 525 
Q 2725 213 2448 61 
Q 2172 -91 1784 -91 
Q 1150 -91 751 415 
Q 353 922 353 1747 
Q 353 2572 751 3078 
Q 1150 3584 1784 3584 
Q 2172 3584 2448 3432 
Q 2725 3281 2906 2969 
z
M 947 1747 
Q 947 1113 1208 752 
Q 1469 391 1925 391 
Q 2381 391 2643 752 
Q 2906 1113 2906 1747 
Q 2906 2381 2643 2742 
Q 2381 3103 1925 3103 
Q 1469 3103 1208 2742 
Q 947 2381 947 1747 
z
" transform="scale(0.015625)"/>
       <path id="DejaVuSans-6a" d="M 603 3500 
L 1178 3500 
L 1178 -63 
Q 1178 -731 923 -1031 
Q 669 -1331 103 -1331 
L -116 -1331 
L -116 -844 
L 38 -844 
Q 366 -844 484 -692 
Q 603 -541 603 -63 
L 603 3500 
z
M 603 4863 
L 1178 4863 
L 1178 4134 
L 603 4134 
L 603 4863 
z
" transform="scale(0.015625)"/>
       <path id="DejaVuSans-75" d="M 544 1381 
L 544 3500 
L 1119 3500 
L 1119 1403 
Q 1119 906 1312 657 
Q 1506 409 1894 409 
Q 2359 409 2629 706 
Q 2900 1003 2900 1516 
L 2900 3500 
L 3475 3500 
L 3475 0 
L 2900 0 
L 2900 538 
Q 2691 219 2414 64 
Q 2138 -91 1772 -91 
Q 1169 -91 856 284 
Q 544 659 544 1381 
z
M 1991 3584 
L 1991 3584 
z
" transform="scale(0.015625)"/>
      </defs>
      <use xlink:href="#DejaVuSans-41"/>
      <use xlink:href="#DejaVuSans-64" transform="translate(66.658203 0)"/>
      <use xlink:href="#DejaVuSans-6a" transform="translate(130.134766 0)"/>
      <use xlink:href="#DejaVuSans-75" transform="translate(157.917969 0)"/>
      <use xlink:href="#DejaVuSans-73" transform="translate(221.296875 0)"/>
      <use xlink:href="#DejaVuSans-74" transform="translate(273.396484 0)"/>
      <use xlink:href="#DejaVuSans-65" transform="translate(312.605469 0)"/>
      <use xlink:href="#DejaVuSans-64" transform="translate(374.128906 0)"/>
      <use xlink:href="#DejaVuSans-20" transform="translate(437.605469 0)"/>
      <use xlink:href="#DejaVuSans-46" transform="translate(469.392578 0)"/>
      <use xlink:href="#DejaVuSans-6f" transform="translate(523.287109 0)"/>
      <use xlink:href="#DejaVuSans-72" transform="translate(584.46875 0)"/>
      <use xlink:href="#DejaVuSans-63" transform="translate(623.332031 0)"/>
      <use xlink:href="#DejaVuSans-65" transform="translate(678.3125 0)"/>
     </g>
    </g>
   </g>
  </g>
 </g>
 <defs>
  <clipPath id="pc27c5640d3">
   <rect x="59.15" y="26.88" width="390.85" height="276.76"/>
  </clipPath>
 </defs>
</svg>
