<?xml version="1.0" encoding="utf-8" standalone="no"?>
<!DOCTYPE svg PUBLIC "-//W3C//DTD SVG 1.1//EN"
  "http://www.w3.org/Graphics/SVG/1.1/DTD/svg11.dtd">
<svg xmlns:xlink="http://www.w3.org/1999/xlink" width="460.8pt" height="345.6pt" viewBox="0 0 460.8 345.6" xmlns="http://www.w3.org/2000/svg" version="1.1">
 <metadata>
  <rdf:RDF xmlns:dc="http://purl.org/dc/elements/1.1/" xmlns:cc="http://creativecommons.org/ns#" xmlns:rdf="http://www.w3.org/1999/02/22-rdf-syntax-ns#">
   <cc:Work>
    <dc:type rdf:resource="http://purl.org/dc/dcmitype/StillImage"/>
    <dc:date>2025-07-28T21:14:02.221440</dc:date>
    <dc:format>image/svg+xml</dc:format>
    <dc:creator>
     <cc:Agent>
      <dc:title>Matplotlib v3.10.3, https://matplotlib.org/</dc:title>
     </cc:Agent>
    </dc:creator>
   </cc:Work>
  </rdf:RDF>
 </metadata>
 <defs>
  <style type="text/css">*{stroke-linejoin: round; stroke-linecap: butt}</style>
 </defs>
 <g id="figure_1">
  <g id="patch_1">
   <path d="M 0 345.6 
L 460.8 345.6 
L 460.8 0 
L 0 0 
z
" style="fill: #ffffff"/>
  </g>
  <g id="axes_1">
   <g id="patch_2">
    <path d="M 59.15 303.64 
L 450 303.64 
L 450 26.88 
L 59.15 26.88 
z
" style="fill: #ffffff"/>
   </g>
   <g id="matplotlib.axis_1">
    <g id="xtick_1">
     <g id="line2d_1">
      <path d="M 136.208204 303.64 
L 136.208204 26.88 
" clip-path="url(#pef779676cf)" style="fill: none; stroke: #b0b0b0; stroke-opacity: 0.3; stroke-width: 0.8; stroke-linecap: square"/>
     </g>
     <g id="line2d_2">
      <defs>
       <path id="m881af7f07f" d="M 0 0 
L 0 3.5 
" style="stroke: #000000; stroke-width: 0.8"/>
      </defs>
      <g>
       <use xlink:href="#m881af7f07f" x="136.208204" y="303.64" style="stroke: #000000; stroke-width: 0.8"/>
      </g>
     </g>
     <g id="text_1">
      <!-- 0.00 -->
      <g transform="translate(125.075392 318.238437) scale(0.1 -0.1)">
       <defs>
        <path id="DejaVuSans-30" d="M 2034 4250 
Q 1547 4250 1301 3770 
Q 1056 3291 1056 2328 
Q 1056 1369 1301 889 
Q 1547 409 2034 409 
Q 2525 409 2770 889 
Q 3016 1369 3016 2328 
Q 3016 3291 2770 3770 
Q 2525 4250 2034 4250 
z
M 2034 4750 
Q 2819 4750 3233 4129 
Q 3647 3509 3647 2328 
Q 3647 1150 3233 529 
Q 2819 -91 2034 -91 
Q 1250 -91 836 529 
Q 422 1150 422 2328 
Q 422 3509 836 4129 
Q 1250 4750 2034 4750 
z
" transform="scale(0.015625)"/>
        <path id="DejaVuSans-2e" d="M 684 794 
L 1344 794 
L 1344 0 
L 684 0 
L 684 794 
z
" transform="scale(0.015625)"/>
       </defs>
       <use xlink:href="#DejaVuSans-30"/>
       <use xlink:href="#DejaVuSans-2e" transform="translate(63.623047 0)"/>
       <use xlink:href="#DejaVuSans-30" transform="translate(95.410156 0)"/>
       <use xlink:href="#DejaVuSans-30" transform="translate(159.033203 0)"/>
      </g>
     </g>
    </g>
    <g id="xtick_2">
     <g id="line2d_3">
      <path d="M 216.078629 303.64 
L 216.078629 26.88 
" clip-path="url(#pef779676cf)" style="fill: none; stroke: #b0b0b0; stroke-opacity: 0.3; stroke-width: 0.8; stroke-linecap: square"/>
     </g>
     <g id="line2d_4">
      <g>
       <use xlink:href="#m881af7f07f" x="216.078629" y="303.64" style="stroke: #000000; stroke-width: 0.8"/>
      </g>
     </g>
     <g id="text_2">
      <!-- 0.05 -->
      <g transform="translate(204.945817 318.238437) scale(0.1 -0.1)">
       <defs>
        <path id="DejaVuSans-35" d="M 691 4666 
L 3169 4666 
L 3169 4134 
L 1269 4134 
L 1269 2991 
Q 1406 3038 1543 3061 
Q 1681 3084 1819 3084 
Q 2600 3084 3056 2656 
Q 3513 2228 3513 1497 
Q 3513 744 3044 326 
Q 2575 -91 1722 -91 
Q 1428 -91 1123 -41 
Q 819 9 494 109 
L 494 744 
Q 775 591 1075 516 
Q 1375 441 1709 441 
Q 2250 441 2565 725 
Q 2881 1009 2881 1497 
Q 2881 1984 2565 2268 
Q 2250 2553 1709 2553 
Q 1456 2553 1204 2497 
Q 953 2441 691 2322 
L 691 4666 
z
" transform="scale(0.015625)"/>
       </defs>
       <use xlink:href="#DejaVuSans-30"/>
       <use xlink:href="#DejaVuSans-2e" transform="translate(63.623047 0)"/>
       <use xlink:href="#DejaVuSans-30" transform="translate(95.410156 0)"/>
       <use xlink:href="#DejaVuSans-35" transform="translate(159.033203 0)"/>
      </g>
     </g>
    </g>
    <g id="xtick_3">
     <g id="line2d_5">
      <path d="M 295.949055 303.64 
L 295.949055 26.88 
" clip-path="url(#pef779676cf)" style="fill: none; stroke: #b0b0b0; stroke-opacity: 0.3; stroke-width: 0.8; stroke-linecap: square"/>
     </g>
     <g id="line2d_6">
      <g>
       <use xlink:href="#m881af7f07f" x="295.949055" y="303.64" style="stroke: #000000; stroke-width: 0.8"/>
      </g>
     </g>
     <g id="text_3">
      <!-- 0.10 -->
      <g transform="translate(284.816242 318.238437) scale(0.1 -0.1)">
       <defs>
        <path id="DejaVuSans-31" d="M 794 531 
L 1825 531 
L 1825 4091 
L 703 3866 
L 703 4441 
L 1819 4666 
L 2450 4666 
L 2450 531 
L 3481 531 
L 3481 0 
L 794 0 
L 794 531 
z
" transform="scale(0.015625)"/>
       </defs>
       <use xlink:href="#DejaVuSans-30"/>
       <use xlink:href="#DejaVuSans-2e" transform="translate(63.623047 0)"/>
       <use xlink:href="#DejaVuSans-31" transform="translate(95.410156 0)"/>
       <use xlink:href="#DejaVuSans-30" transform="translate(159.033203 0)"/>
      </g>
     </g>
    </g>
    <g id="xtick_4">
     <g id="line2d_7">
      <path d="M 375.81948 303.64 
L 375.81948 26.88 
" clip-path="url(#pef779676cf)" style="fill: none; stroke: #b0b0b0; stroke-opacity: 0.3; stroke-width: 0.8; stroke-linecap: square"/>
     </g>
     <g id="line2d_8">
      <g>
       <use xlink:href="#m881af7f07f" x="375.81948" y="303.64" style="stroke: #000000; stroke-width: 0.8"/>
      </g>
     </g>
     <g id="text_4">
      <!-- 0.15 -->
      <g transform="translate(364.686668 318.238437) scale(0.1 -0.1)">
       <use xlink:href="#DejaVuSans-30"/>
       <use xlink:href="#DejaVuSans-2e" transform="translate(63.623047 0)"/>
       <use xlink:href="#DejaVuSans-31" transform="translate(95.410156 0)"/>
       <use xlink:href="#DejaVuSans-35" transform="translate(159.033203 0)"/>
      </g>
     </g>
    </g>
    <g id="text_5">
     <!-- Strain [-] -->
     <g transform="translate(232.46875 331.916562) scale(0.1 -0.1)">
      <defs>
       <path id="DejaVuSans-53" d="M 3425 4513 
L 3425 3897 
Q 3066 4069 2747 4153 
Q 2428 4238 2131 4238 
Q 1616 4238 1336 4038 
Q 1056 3838 1056 3469 
Q 1056 3159 1242 3001 
Q 1428 2844 1947 2747 
L 2328 2669 
Q 3034 2534 3370 2195 
Q 3706 1856 3706 1288 
Q 3706 609 3251 259 
Q 2797 -91 1919 -91 
Q 1588 -91 1214 -16 
Q 841 59 441 206 
L 441 856 
Q 825 641 1194 531 
Q 1563 422 1919 422 
Q 2459 422 2753 634 
Q 3047 847 3047 1241 
Q 3047 1584 2836 1778 
Q 2625 1972 2144 2069 
L 1759 2144 
Q 1053 2284 737 2584 
Q 422 2884 422 3419 
Q 422 4038 858 4394 
Q 1294 4750 2059 4750 
Q 2388 4750 2728 4690 
Q 3069 4631 3425 4513 
z
" transform="scale(0.015625)"/>
       <path id="DejaVuSans-74" d="M 1172 4494 
L 1172 3500 
L 2356 3500 
L 2356 3053 
L 1172 3053 
L 1172 1153 
Q 1172 725 1289 603 
Q 1406 481 1766 481 
L 2356 481 
L 2356 0 
L 1766 0 
Q 1100 0 847 248 
Q 594 497 594 1153 
L 594 3053 
L 172 3053 
L 172 3500 
L 594 3500 
L 594 4494 
L 1172 4494 
z
" transform="scale(0.015625)"/>
       <path id="DejaVuSans-72" d="M 2631 2963 
Q 2534 3019 2420 3045 
Q 2306 3072 2169 3072 
Q 1681 3072 1420 2755 
Q 1159 2438 1159 1844 
L 1159 0 
L 581 0 
L 581 3500 
L 1159 3500 
L 1159 2956 
Q 1341 3275 1631 3429 
Q 1922 3584 2338 3584 
Q 2397 3584 2469 3576 
Q 2541 3569 2628 3553 
L 2631 2963 
z
" transform="scale(0.015625)"/>
       <path id="DejaVuSans-61" d="M 2194 1759 
Q 1497 1759 1228 1600 
Q 959 1441 959 1056 
Q 959 750 1161 570 
Q 1363 391 1709 391 
Q 2188 391 2477 730 
Q 2766 1069 2766 1631 
L 2766 1759 
L 2194 1759 
z
M 3341 1997 
L 3341 0 
L 2766 0 
L 2766 531 
Q 2569 213 2275 61 
Q 1981 -91 1556 -91 
Q 1019 -91 701 211 
Q 384 513 384 1019 
Q 384 1609 779 1909 
Q 1175 2209 1959 2209 
L 2766 2209 
L 2766 2266 
Q 2766 2663 2505 2880 
Q 2244 3097 1772 3097 
Q 1472 3097 1187 3025 
Q 903 2953 641 2809 
L 641 3341 
Q 956 3463 1253 3523 
Q 1550 3584 1831 3584 
Q 2591 3584 2966 3190 
Q 3341 2797 3341 1997 
z
" transform="scale(0.015625)"/>
       <path id="DejaVuSans-69" d="M 603 3500 
L 1178 3500 
L 1178 0 
L 603 0 
L 603 3500 
z
M 603 4863 
L 1178 4863 
L 1178 4134 
L 603 4134 
L 603 4863 
z
" transform="scale(0.015625)"/>
       <path id="DejaVuSans-6e" d="M 3513 2113 
L 3513 0 
L 2938 0 
L 2938 2094 
Q 2938 2591 2744 2837 
Q 2550 3084 2163 3084 
Q 1697 3084 1428 2787 
Q 1159 2491 1159 1978 
L 1159 0 
L 581 0 
L 581 3500 
L 1159 3500 
L 1159 2956 
Q 1366 3272 1645 3428 
Q 1925 3584 2291 3584 
Q 2894 3584 3203 3211 
Q 3513 2838 3513 2113 
z
" transform="scale(0.015625)"/>
       <path id="DejaVuSans-20" transform="scale(0.015625)"/>
       <path id="DejaVuSans-5b" d="M 550 4863 
L 1875 4863 
L 1875 4416 
L 1125 4416 
L 1125 -397 
L 1875 -397 
L 1875 -844 
L 550 -844 
L 550 4863 
z
" transform="scale(0.015625)"/>
       <path id="DejaVuSans-2d" d="M 313 2009 
L 1997 2009 
L 1997 1497 
L 313 1497 
L 313 2009 
z
" transform="scale(0.015625)"/>
       <path id="DejaVuSans-5d" d="M 1947 4863 
L 1947 -844 
L 622 -844 
L 622 -397 
L 1369 -397 
L 1369 4416 
L 622 4416 
L 622 4863 
L 1947 4863 
z
" transform="scale(0.015625)"/>
      </defs>
      <use xlink:href="#DejaVuSans-53"/>
      <use xlink:href="#DejaVuSans-74" transform="translate(63.476562 0)"/>
      <use xlink:href="#DejaVuSans-72" transform="translate(102.685547 0)"/>
      <use xlink:href="#DejaVuSans-61" transform="translate(143.798828 0)"/>
      <use xlink:href="#DejaVuSans-69" transform="translate(205.078125 0)"/>
      <use xlink:href="#DejaVuSans-6e" transform="translate(232.861328 0)"/>
      <use xlink:href="#DejaVuSans-20" transform="translate(296.240234 0)"/>
      <use xlink:href="#DejaVuSans-5b" transform="translate(328.027344 0)"/>
      <use xlink:href="#DejaVuSans-2d" transform="translate(367.041016 0)"/>
      <use xlink:href="#DejaVuSans-5d" transform="translate(403.125 0)"/>
     </g>
    </g>
   </g>
   <g id="matplotlib.axis_2">
    <g id="ytick_1">
     <g id="line2d_9">
      <path d="M 59.15 278.067267 
L 450 278.067267 
" clip-path="url(#pef779676cf)" style="fill: none; stroke: #b0b0b0; stroke-opacity: 0.3; stroke-width: 0.8; stroke-linecap: square"/>
     </g>
     <g id="line2d_10">
      <defs>
       <path id="m7217c09dd7" d="M 0 0 
L -3.5 0 
" style="stroke: #000000; stroke-width: 0.8"/>
      </defs>
      <g>
       <use xlink:href="#m7217c09dd7" x="59.15" y="278.067267" style="stroke: #000000; stroke-width: 0.8"/>
      </g>
     </g>
     <g id="text_6">
      <!-- −200 -->
      <g transform="translate(24.682813 281.866486) scale(0.1 -0.1)">
       <defs>
        <path id="DejaVuSans-2212" d="M 678 2272 
L 4684 2272 
L 4684 1741 
L 678 1741 
L 678 2272 
z
" transform="scale(0.015625)"/>
        <path id="DejaVuSans-32" d="M 1228 531 
L 3431 531 
L 3431 0 
L 469 0 
L 469 531 
Q 828 903 1448 1529 
Q 2069 2156 2228 2338 
Q 2531 2678 2651 2914 
Q 2772 3150 2772 3378 
Q 2772 3750 2511 3984 
Q 2250 4219 1831 4219 
Q 1534 4219 1204 4116 
Q 875 4013 500 3803 
L 500 4441 
Q 881 4594 1212 4672 
Q 1544 4750 1819 4750 
Q 2544 4750 2975 4387 
Q 3406 4025 3406 3419 
Q 3406 3131 3298 2873 
Q 3191 2616 2906 2266 
Q 2828 2175 2409 1742 
Q 1991 1309 1228 531 
z
" transform="scale(0.015625)"/>
       </defs>
       <use xlink:href="#DejaVuSans-2212"/>
       <use xlink:href="#DejaVuSans-32" transform="translate(83.789062 0)"/>
       <use xlink:href="#DejaVuSans-30" transform="translate(147.412109 0)"/>
       <use xlink:href="#DejaVuSans-30" transform="translate(211.035156 0)"/>
      </g>
     </g>
    </g>
    <g id="ytick_2">
     <g id="line2d_11">
      <path d="M 59.15 238.94662 
L 450 238.94662 
" clip-path="url(#pef779676cf)" style="fill: none; stroke: #b0b0b0; stroke-opacity: 0.3; stroke-width: 0.8; stroke-linecap: square"/>
     </g>
     <g id="line2d_12">
      <g>
       <use xlink:href="#m7217c09dd7" x="59.15" y="238.94662" style="stroke: #000000; stroke-width: 0.8"/>
      </g>
     </g>
     <g id="text_7">
      <!-- 0 -->
      <g transform="translate(45.7875 242.745839) scale(0.1 -0.1)">
       <use xlink:href="#DejaVuSans-30"/>
      </g>
     </g>
    </g>
    <g id="ytick_3">
     <g id="line2d_13">
      <path d="M 59.15 199.825973 
L 450 199.825973 
" clip-path="url(#pef779676cf)" style="fill: none; stroke: #b0b0b0; stroke-opacity: 0.3; stroke-width: 0.8; stroke-linecap: square"/>
     </g>
     <g id="line2d_14">
      <g>
       <use xlink:href="#m7217c09dd7" x="59.15" y="199.825973" style="stroke: #000000; stroke-width: 0.8"/>
      </g>
     </g>
     <g id="text_8">
      <!-- 200 -->
      <g transform="translate(33.0625 203.625191) scale(0.1 -0.1)">
       <use xlink:href="#DejaVuSans-32"/>
       <use xlink:href="#DejaVuSans-30" transform="translate(63.623047 0)"/>
       <use xlink:href="#DejaVuSans-30" transform="translate(127.246094 0)"/>
      </g>
     </g>
    </g>
    <g id="ytick_4">
     <g id="line2d_15">
      <path d="M 59.15 160.705325 
L 450 160.705325 
" clip-path="url(#pef779676cf)" style="fill: none; stroke: #b0b0b0; stroke-opacity: 0.3; stroke-width: 0.8; stroke-linecap: square"/>
     </g>
     <g id="line2d_16">
      <g>
       <use xlink:href="#m7217c09dd7" x="59.15" y="160.705325" style="stroke: #000000; stroke-width: 0.8"/>
      </g>
     </g>
     <g id="text_9">
      <!-- 400 -->
      <g transform="translate(33.0625 164.504544) scale(0.1 -0.1)">
       <defs>
        <path id="DejaVuSans-34" d="M 2419 4116 
L 825 1625 
L 2419 1625 
L 2419 4116 
z
M 2253 4666 
L 3047 4666 
L 3047 1625 
L 3713 1625 
L 3713 1100 
L 3047 1100 
L 3047 0 
L 2419 0 
L 2419 1100 
L 313 1100 
L 313 1709 
L 2253 4666 
z
" transform="scale(0.015625)"/>
       </defs>
       <use xlink:href="#DejaVuSans-34"/>
       <use xlink:href="#DejaVuSans-30" transform="translate(63.623047 0)"/>
       <use xlink:href="#DejaVuSans-30" transform="translate(127.246094 0)"/>
      </g>
     </g>
    </g>
    <g id="ytick_5">
     <g id="line2d_17">
      <path d="M 59.15 121.584678 
L 450 121.584678 
" clip-path="url(#pef779676cf)" style="fill: none; stroke: #b0b0b0; stroke-opacity: 0.3; stroke-width: 0.8; stroke-linecap: square"/>
     </g>
     <g id="line2d_18">
      <g>
       <use xlink:href="#m7217c09dd7" x="59.15" y="121.584678" style="stroke: #000000; stroke-width: 0.8"/>
      </g>
     </g>
     <g id="text_10">
      <!-- 600 -->
      <g transform="translate(33.0625 125.383897) scale(0.1 -0.1)">
       <defs>
        <path id="DejaVuSans-36" d="M 2113 2584 
Q 1688 2584 1439 2293 
Q 1191 2003 1191 1497 
Q 1191 994 1439 701 
Q 1688 409 2113 409 
Q 2538 409 2786 701 
Q 3034 994 3034 1497 
Q 3034 2003 2786 2293 
Q 2538 2584 2113 2584 
z
M 3366 4563 
L 3366 3988 
Q 3128 4100 2886 4159 
Q 2644 4219 2406 4219 
Q 1781 4219 1451 3797 
Q 1122 3375 1075 2522 
Q 1259 2794 1537 2939 
Q 1816 3084 2150 3084 
Q 2853 3084 3261 2657 
Q 3669 2231 3669 1497 
Q 3669 778 3244 343 
Q 2819 -91 2113 -91 
Q 1303 -91 875 529 
Q 447 1150 447 2328 
Q 447 3434 972 4092 
Q 1497 4750 2381 4750 
Q 2619 4750 2861 4703 
Q 3103 4656 3366 4563 
z
" transform="scale(0.015625)"/>
       </defs>
       <use xlink:href="#DejaVuSans-36"/>
       <use xlink:href="#DejaVuSans-30" transform="translate(63.623047 0)"/>
       <use xlink:href="#DejaVuSans-30" transform="translate(127.246094 0)"/>
      </g>
     </g>
    </g>
    <g id="ytick_6">
     <g id="line2d_19">
      <path d="M 59.15 82.464031 
L 450 82.464031 
" clip-path="url(#pef779676cf)" style="fill: none; stroke: #b0b0b0; stroke-opacity: 0.3; stroke-width: 0.8; stroke-linecap: square"/>
     </g>
     <g id="line2d_20">
      <g>
       <use xlink:href="#m7217c09dd7" x="59.15" y="82.464031" style="stroke: #000000; stroke-width: 0.8"/>
      </g>
     </g>
     <g id="text_11">
      <!-- 800 -->
      <g transform="translate(33.0625 86.263249) scale(0.1 -0.1)">
       <defs>
        <path id="DejaVuSans-38" d="M 2034 2216 
Q 1584 2216 1326 1975 
Q 1069 1734 1069 1313 
Q 1069 891 1326 650 
Q 1584 409 2034 409 
Q 2484 409 2743 651 
Q 3003 894 3003 1313 
Q 3003 1734 2745 1975 
Q 2488 2216 2034 2216 
z
M 1403 2484 
Q 997 2584 770 2862 
Q 544 3141 544 3541 
Q 544 4100 942 4425 
Q 1341 4750 2034 4750 
Q 2731 4750 3128 4425 
Q 3525 4100 3525 3541 
Q 3525 3141 3298 2862 
Q 3072 2584 2669 2484 
Q 3125 2378 3379 2068 
Q 3634 1759 3634 1313 
Q 3634 634 3220 271 
Q 2806 -91 2034 -91 
Q 1263 -91 848 271 
Q 434 634 434 1313 
Q 434 1759 690 2068 
Q 947 2378 1403 2484 
z
M 1172 3481 
Q 1172 3119 1398 2916 
Q 1625 2713 2034 2713 
Q 2441 2713 2670 2916 
Q 2900 3119 2900 3481 
Q 2900 3844 2670 4047 
Q 2441 4250 2034 4250 
Q 1625 4250 1398 4047 
Q 1172 3844 1172 3481 
z
" transform="scale(0.015625)"/>
       </defs>
       <use xlink:href="#DejaVuSans-38"/>
       <use xlink:href="#DejaVuSans-30" transform="translate(63.623047 0)"/>
       <use xlink:href="#DejaVuSans-30" transform="translate(127.246094 0)"/>
      </g>
     </g>
    </g>
    <g id="ytick_7">
     <g id="line2d_21">
      <path d="M 59.15 43.343383 
L 450 43.343383 
" clip-path="url(#pef779676cf)" style="fill: none; stroke: #b0b0b0; stroke-opacity: 0.3; stroke-width: 0.8; stroke-linecap: square"/>
     </g>
     <g id="line2d_22">
      <g>
       <use xlink:href="#m7217c09dd7" x="59.15" y="43.343383" style="stroke: #000000; stroke-width: 0.8"/>
      </g>
     </g>
     <g id="text_12">
      <!-- 1000 -->
      <g transform="translate(26.7 47.142602) scale(0.1 -0.1)">
       <use xlink:href="#DejaVuSans-31"/>
       <use xlink:href="#DejaVuSans-30" transform="translate(63.623047 0)"/>
       <use xlink:href="#DejaVuSans-30" transform="translate(127.246094 0)"/>
       <use xlink:href="#DejaVuSans-30" transform="translate(190.869141 0)"/>
      </g>
     </g>
    </g>
    <g id="text_13">
     <!-- Stress [Pa] -->
     <g transform="translate(18.603125 191.967812) rotate(-90) scale(0.1 -0.1)">
      <defs>
       <path id="DejaVuSans-65" d="M 3597 1894 
L 3597 1613 
L 953 1613 
Q 991 1019 1311 708 
Q 1631 397 2203 397 
Q 2534 397 2845 478 
Q 3156 559 3463 722 
L 3463 178 
Q 3153 47 2828 -22 
Q 2503 -91 2169 -91 
Q 1331 -91 842 396 
Q 353 884 353 1716 
Q 353 2575 817 3079 
Q 1281 3584 2069 3584 
Q 2775 3584 3186 3129 
Q 3597 2675 3597 1894 
z
M 3022 2063 
Q 3016 2534 2758 2815 
Q 2500 3097 2075 3097 
Q 1594 3097 1305 2825 
Q 1016 2553 972 2059 
L 3022 2063 
z
" transform="scale(0.015625)"/>
       <path id="DejaVuSans-73" d="M 2834 3397 
L 2834 2853 
Q 2591 2978 2328 3040 
Q 2066 3103 1784 3103 
Q 1356 3103 1142 2972 
Q 928 2841 928 2578 
Q 928 2378 1081 2264 
Q 1234 2150 1697 2047 
L 1894 2003 
Q 2506 1872 2764 1633 
Q 3022 1394 3022 966 
Q 3022 478 2636 193 
Q 2250 -91 1575 -91 
Q 1294 -91 989 -36 
Q 684 19 347 128 
L 347 722 
Q 666 556 975 473 
Q 1284 391 1588 391 
Q 1994 391 2212 530 
Q 2431 669 2431 922 
Q 2431 1156 2273 1281 
Q 2116 1406 1581 1522 
L 1381 1569 
Q 847 1681 609 1914 
Q 372 2147 372 2553 
Q 372 3047 722 3315 
Q 1072 3584 1716 3584 
Q 2034 3584 2315 3537 
Q 2597 3491 2834 3397 
z
" transform="scale(0.015625)"/>
       <path id="DejaVuSans-50" d="M 1259 4147 
L 1259 2394 
L 2053 2394 
Q 2494 2394 2734 2622 
Q 2975 2850 2975 3272 
Q 2975 3691 2734 3919 
Q 2494 4147 2053 4147 
L 1259 4147 
z
M 628 4666 
L 2053 4666 
Q 2838 4666 3239 4311 
Q 3641 3956 3641 3272 
Q 3641 2581 3239 2228 
Q 2838 1875 2053 1875 
L 1259 1875 
L 1259 0 
L 628 0 
L 628 4666 
z
" transform="scale(0.015625)"/>
      </defs>
      <use xlink:href="#DejaVuSans-53"/>
      <use xlink:href="#DejaVuSans-74" transform="translate(63.476562 0)"/>
      <use xlink:href="#DejaVuSans-72" transform="translate(102.685547 0)"/>
      <use xlink:href="#DejaVuSans-65" transform="translate(141.548828 0)"/>
      <use xlink:href="#DejaVuSans-73" transform="translate(203.072266 0)"/>
      <use xlink:href="#DejaVuSans-73" transform="translate(255.171875 0)"/>
      <use xlink:href="#DejaVuSans-20" transform="translate(307.271484 0)"/>
      <use xlink:href="#DejaVuSans-5b" transform="translate(339.058594 0)"/>
      <use xlink:href="#DejaVuSans-50" transform="translate(378.072266 0)"/>
      <use xlink:href="#DejaVuSans-61" transform="translate(433.875 0)"/>
      <use xlink:href="#DejaVuSans-5d" transform="translate(495.154297 0)"/>
     </g>
    </g>
   </g>
   <g id="line2d_23">
    <path d="M 136.208204 240.69661 
L 136.208204 240.574653 
L 136.208211 240.958769 
L 136.208274 240.892058 
L 136.80216 237.948547 
L 137.395499 237.07136 
L 138.00915 237.821151 
L 138.64537 239.252306 
L 139.270757 240.332322 
L 139.903366 240.925343 
L 140.52108 241.714264 
L 141.138793 243.023052 
L 142.34646 243.037861 
L 142.952889 239.818714 
L 143.555594 239.491285 
L 144.758479 240.489791 
L 145.373033 240.794377 
L 145.965695 241.239951 
L 146.56682 240.941219 
L 147.171331 240.437123 
L 147.766476 240.179113 
L 148.987458 240.452563 
L 149.580346 240.674874 
L 150.187904 240.692251 
L 151.409224 240.362655 
L 152.021634 240.083341 
L 152.621744 239.995179 
L 153.854688 240.14743 
L 155.076574 240.002797 
L 156.280968 239.421509 
L 158.125984 238.947341 
L 158.742795 238.934248 
L 162.990496 237.34013 
L 165.396351 236.298868 
L 167.833011 234.784632 
L 169.045982 234.359277 
L 169.649477 234.311703 
L 170.246427 234.129793 
L 173.291437 232.089039 
L 173.899445 232.023137 
L 174.499269 231.844436 
L 175.113033 231.488832 
L 176.338869 230.533273 
L 176.939655 230.103185 
L 178.753074 229.303054 
L 179.986019 228.469338 
L 182.390972 226.846463 
L 186.108086 224.781336 
L 187.953778 223.378873 
L 189.78472 222.539863 
L 192.849816 220.340926 
L 193.442478 220.046839 
L 195.228589 218.818662 
L 196.447544 218.195572 
L 198.88319 216.224124 
L 201.298299 214.666471 
L 206.143024 211.59308 
L 209.801233 209.112417 
L 211.016574 208.348103 
L 212.244101 207.33307 
L 213.444321 206.625354 
L 214.645443 206.00958 
L 215.874776 205.143372 
L 217.083008 204.375732 
L 218.287515 203.56458 
L 218.884381 203.037085 
L 219.478397 202.675687 
L 220.707053 201.697516 
L 221.32409 201.213085 
L 221.943834 200.883086 
L 223.17881 199.886199 
L 227.455184 197.348569 
L 228.649084 196.509438 
L 229.264992 196.146424 
L 231.688677 194.307508 
L 233.506807 193.258746 
L 235.928235 191.552457 
L 237.121233 190.919391 
L 238.347858 189.851013 
L 240.755744 188.648844 
L 241.983385 187.522465 
L 243.79861 185.941298 
L 245.609546 185.031008 
L 247.440343 183.592016 
L 248.641458 182.819982 
L 249.870679 182.098229 
L 251.694705 180.691111 
L 254.104849 179.143955 
L 255.918494 177.859963 
L 258.940483 175.928608 
L 260.134834 175.135316 
L 263.183807 172.807113 
L 265.596659 171.40636 
L 267.401276 169.707577 
L 269.204314 168.655207 
L 270.415366 168.085177 
L 272.252257 166.605 
L 273.46173 165.579707 
L 275.279437 164.410481 
L 280.126722 160.99013 
L 283.120725 158.853611 
L 283.740244 158.437395 
L 284.359312 158.159553 
L 286.821364 156.389088 
L 288.031514 155.338713 
L 300.705502 146.425598 
L 302.512828 145.02304 
L 303.717561 144.390497 
L 305.518003 143.060903 
L 306.719689 142.022451 
L 307.933112 141.376115 
L 309.753753 139.680039 
L 310.368758 139.027064 
L 310.964128 138.574745 
L 312.156223 138.080411 
L 312.767956 137.794589 
L 313.987584 136.683981 
L 315.814545 135.292253 
L 316.422554 135.048957 
L 317.630898 134.189448 
L 318.848608 132.861943 
L 320.069591 131.858216 
L 320.678728 131.503325 
L 321.284029 131.296238 
L 321.901404 130.901968 
L 322.499581 130.187649 
L 323.706233 129.114948 
L 324.908032 128.50124 
L 325.513107 128.176228 
L 326.723257 127.157965 
L 327.931714 125.895919 
L 331.001775 123.84234 
L 332.829864 122.304685 
L 334.062582 121.522651 
L 338.878073 118.084482 
L 340.697135 116.462367 
L 341.298711 115.84322 
L 347.385119 111.200375 
L 348.592335 110.023929 
L 349.78443 109.238618 
L 350.976298 108.59591 
L 352.192034 107.355323 
L 353.425317 106.23987 
L 354.020462 105.746319 
L 355.21391 104.967421 
L 355.831398 104.350364 
L 359.470198 101.513754 
L 360.674931 100.526747 
L 361.864543 99.503354 
L 363.051672 98.529838 
L 365.490478 96.30297 
L 366.706045 95.555043 
L 367.912005 94.664621 
L 370.966832 92.188222 
L 372.745721 90.816541 
L 374.58034 89.000711 
L 375.798615 88.056742 
L 376.40685 87.67905 
L 377.599621 86.603309 
L 378.839336 85.56139 
L 380.05558 84.498949 
L 381.266858 83.350149 
L 382.494555 82.228842 
L 383.108883 81.623375 
L 384.966312 80.375105 
L 385.585605 79.782654 
L 386.205124 79.472558 
L 388.058942 77.874005 
L 391.723809 74.693524 
L 392.932604 73.538739 
L 395.342522 71.55722 
L 395.938344 70.97332 
L 396.537776 70.544468 
L 397.736839 69.476268 
L 400.814799 66.772854 
L 402.004863 65.783948 
L 403.205082 64.784401 
L 403.797744 64.304531 
L 406.860696 61.156637 
L 408.664636 59.88585 
L 414.636703 54.211169 
L 415.856107 53.278886 
L 417.670316 51.467046 
L 420.688694 48.866096 
L 421.926603 47.480924 
L 423.112604 46.395682 
L 423.730995 45.96797 
L 426.142267 43.47656 
L 426.754479 42.728586 
L 430.38978 40.115 
L 431.863367 39.46 
L 432.234091 39.592508 
L 432.017936 45.990462 
L 432.024199 56.840502 
L 431.426967 57.056556 
L 430.214899 60.550553 
L 429.600345 60.282081 
L 428.979246 60.183026 
L 428.360404 60.328954 
L 427.165827 60.917889 
L 425.947327 60.933648 
L 425.347217 61.314927 
L 424.741917 63.049717 
L 424.135939 64.239179 
L 422.943844 66.218892 
L 422.320263 67.851837 
L 421.703791 68.635878 
L 421.078404 68.348108 
L 420.45076 68.397807 
L 419.247832 69.328761 
L 418.018612 69.533413 
L 417.415906 72.607393 
L 416.818392 73.951333 
L 416.207562 74.65019 
L 415.5903 74.859676 
L 414.970104 74.92384 
L 414.354647 75.260751 
L 413.131746 76.428077 
L 411.316522 79.243738 
L 409.487643 81.621997 
L 408.289229 82.421892 
L 407.695664 82.651139 
L 406.477051 83.579289 
L 405.86182 84.891118 
L 404.658892 86.629138 
L 404.065553 86.996997 
L 403.464767 87.503754 
L 402.871428 87.769364 
L 402.275042 88.785679 
L 401.054736 90.220919 
L 399.229242 91.532225 
L 398.626425 92.496715 
L 397.40973 93.853196 
L 395.596198 95.216422 
L 394.997668 96.168752 
L 392.570711 98.24081 
L 390.163614 101.194905 
L 388.366219 102.543596 
L 384.123585 106.757825 
L 382.915241 107.857222 
L 381.696177 109.34139 
L 378.675768 111.883247 
L 377.48277 112.89391 
L 376.276852 113.903183 
L 375.681708 114.51055 
L 375.085886 115.386305 
L 374.46569 116.075471 
L 372.042005 118.037798 
L 370.821474 119.398079 
L 370.226103 119.660341 
L 369.011891 120.71271 
L 367.794971 121.983497 
L 367.179288 122.479042 
L 365.985614 123.180084 
L 365.367675 123.683515 
L 363.529881 125.679284 
L 359.338197 128.920176 
L 356.253241 131.811082 
L 353.835424 133.665151 
L 353.218613 134.229005 
L 351.986346 135.066426 
L 351.37845 135.694694 
L 350.160288 136.635766 
L 347.14191 139.150131 
L 346.527808 139.821246 
L 344.123306 141.425215 
L 341.109216 143.982558 
L 339.886654 145.252964 
L 337.497951 146.866148 
L 336.900098 147.416607 
L 334.478106 148.988036 
L 333.882849 149.872342 
L 332.062052 151.243103 
L 330.863638 151.927685 
L 330.247617 152.823772 
L 329.025055 153.592077 
L 327.791433 154.194361 
L 326.596856 155.422395 
L 324.782986 156.519844 
L 324.175428 156.87293 
L 322.980851 157.876563 
L 321.787628 158.659878 
L 320.569692 159.83148 
L 319.964391 160.495754 
L 318.743183 161.28401 
L 317.544374 161.874614 
L 315.713577 163.462527 
L 314.503878 164.025859 
L 313.282557 164.95857 
L 312.680755 165.566602 
L 312.068345 166.013695 
L 310.882118 166.687518 
L 309.694537 167.582987 
L 309.096685 167.955929 
L 307.301095 169.373403 
L 306.706853 169.857548 
L 306.114643 170.493321 
L 300.701482 173.71517 
L 299.475421 174.868435 
L 296.466071 176.730723 
L 293.452658 179.275905 
L 289.834171 181.495933 
L 288.638465 182.067768 
L 286.801842 183.659719 
L 284.380753 184.762293 
L 283.778725 185.477205 
L 283.164622 185.972086 
L 280.764522 187.14377 
L 279.56182 188.337697 
L 277.74321 189.501175 
L 277.140843 189.661986 
L 276.51997 189.944649 
L 275.305758 190.881493 
L 273.480039 192.321673 
L 272.279467 192.874816 
L 270.436482 194.240482 
L 269.225881 194.984086 
L 268.027919 195.463196 
L 264.970722 197.6542 
L 263.157303 198.614127 
L 262.564867 199.063976 
L 261.344899 200.244317 
L 260.75314 200.498883 
L 260.15461 200.605104 
L 257.741716 202.124403 
L 257.126711 202.665646 
L 255.283952 203.825419 
L 254.669398 204.278687 
L 253.428329 204.874938 
L 249.796977 207.082663 
L 248.610525 207.840803 
L 246.776004 208.953311 
L 245.553441 209.790637 
L 244.933245 209.981193 
L 244.341486 210.387339 
L 243.74431 210.583572 
L 240.704823 212.574719 
L 238.899754 213.794915 
L 237.087238 214.667154 
L 236.476521 215.17429 
L 233.451259 216.866779 
L 232.229599 217.801628 
L 230.431301 218.600335 
L 229.832772 218.993465 
L 229.239433 219.216947 
L 228.025933 220.184817 
L 226.817589 220.854934 
L 226.205066 221.207593 
L 225.58645 221.349269 
L 223.750236 222.253763 
L 223.142001 222.802227 
L 221.926886 223.496808 
L 220.107374 224.344788 
L 219.500155 224.896102 
L 218.886729 225.277927 
L 217.685607 225.767297 
L 217.086852 226.053737 
L 215.858082 226.971961 
L 215.249622 227.467032 
L 213.423776 228.151789 
L 210.970526 229.676571 
L 209.182158 230.479601 
L 207.384989 231.700248 
L 206.783525 231.871305 
L 205.585788 232.650725 
L 204.979133 232.895838 
L 201.330403 235.049066 
L 198.290895 236.625778 
L 197.67747 237.023707 
L 196.443397 237.564142 
L 194.613499 238.660262 
L 194.003459 239.120371 
L 190.973796 240.498038 
L 189.762744 241.408565 
L 186.764904 243.109154 
L 184.973151 244.071506 
L 184.374169 244.18059 
L 183.754552 244.440134 
L 181.941133 245.714815 
L 178.932685 246.557726 
L 177.732917 247.59632 
L 176.529876 248.276508 
L 175.31273 248.851478 
L 171.659938 250.820874 
L 171.0587 251.01694 
L 170.464909 251.489401 
L 168.012544 252.802599 
L 166.824963 253.523639 
L 166.232076 254.02365 
L 165.631739 254.349185 
L 165.025535 254.537485 
L 164.42046 254.598298 
L 163.20354 255.129886 
L 161.990118 255.82252 
L 161.38177 256.30752 
L 158.317351 257.496743 
L 155.846723 258.918825 
L 154.018803 259.910332 
L 152.178527 260.820242 
L 151.586542 261.133331 
L 150.988464 261.294032 
L 150.388128 261.593772 
L 149.786439 262.057682 
L 147.353049 263.174869 
L 146.124619 263.874342 
L 143.051624 265.178603 
L 142.436844 265.660373 
L 140.604467 266.36851 
L 139.36535 266.689556 
L 138.747637 267.090809 
L 138.126312 267.320864 
L 137.509727 267.729955 
L 136.896076 268.30426 
L 134.462799 269.391663 
L 132.043628 270.506902 
L 131.430654 270.888585 
L 130.812489 271.013724 
L 121.170103 275.527757 
L 119.960178 276.004527 
L 118.745741 276.44912 
L 117.535591 277.062698 
L 116.297907 277.657809 
L 113.824119 278.372181 
L 113.214869 278.870102 
L 112.617467 279.174332 
L 112.007653 279.220222 
L 110.783962 279.546597 
L 108.968487 280.700797 
L 108.374245 280.814954 
L 107.77391 281.135572 
L 106.571885 281.450974 
L 104.125631 282.634047 
L 103.530261 282.924204 
L 102.931279 282.980868 
L 102.334104 283.164228 
L 101.742345 283.186515 
L 101.130048 283.682204 
L 99.926781 284.258361 
L 99.325543 284.240459 
L 98.727916 284.47505 
L 98.10772 284.572765 
L 97.491812 285.103653 
L 96.875227 285.447203 
L 95.687646 285.7672 
L 94.464368 285.891469 
L 93.862227 286.483018 
L 93.244288 286.767249 
L 92.643049 286.858388 
L 89.619706 288.005582 
L 89.016437 287.971264 
L 87.814638 288.249213 
L 87.21182 288.762905 
L 86.010923 289.001551 
L 84.784749 289.202309 
L 84.188702 289.451186 
L 83.574148 289.986824 
L 81.161974 290.022255 
L 79.955872 291.06 
L 78.752945 290.353852 
L 78.149337 289.954546 
L 77.547534 289.422115 
L 77.074798 290.288316 
L 77.049126 290.267688 
L 76.916128 269.780275 
L 76.916128 269.780275 
" clip-path="url(#pef779676cf)" style="fill: none; stroke: #ff0000; stroke-width: 2; stroke-linecap: square"/>
   </g>
   <g id="line2d_24">
    <path d="M 136.208204 240.69661 
L 136.208204 240.574653 
L 136.208211 240.958769 
L 136.208274 240.892058 
L 136.80216 237.948547 
L 137.395499 237.07136 
L 138.00915 237.821151 
L 138.64537 239.252306 
L 139.270757 243.87774 
L 139.903366 243.508765 
L 140.52108 243.42136 
L 141.138793 244.229852 
L 141.742514 243.52184 
L 142.34646 243.041044 
L 142.952889 239.818714 
L 143.555594 239.491285 
L 144.758479 240.489791 
L 145.373033 240.794377 
L 145.965695 241.239951 
L 146.56682 240.941219 
L 147.171331 240.437123 
L 147.766476 240.179113 
L 148.987458 240.452563 
L 149.580346 240.674874 
L 150.187904 240.692251 
L 151.409224 240.362655 
L 152.021634 240.083341 
L 152.621744 239.995179 
L 153.854688 240.14743 
L 155.076574 240.002797 
L 156.280968 239.421509 
L 158.125984 238.947341 
L 158.742795 238.934248 
L 162.990496 237.34013 
L 165.396351 236.298868 
L 167.833011 234.784632 
L 169.045982 234.359277 
L 169.649477 234.311703 
L 170.246427 234.129793 
L 173.291437 232.089039 
L 173.899445 232.023137 
L 174.499269 231.844436 
L 175.113033 231.488832 
L 176.338869 230.533273 
L 176.939655 230.103185 
L 178.753074 229.303054 
L 179.986019 228.469338 
L 182.390972 226.846463 
L 186.108086 224.781336 
L 187.953778 223.378873 
L 189.78472 222.539863 
L 192.849816 220.340926 
L 193.442478 220.046839 
L 195.228589 218.818662 
L 196.447544 218.195572 
L 198.88319 216.224124 
L 201.298299 214.666471 
L 206.143024 211.59308 
L 209.801233 209.112417 
L 211.016574 208.348103 
L 212.244101 207.33307 
L 213.444321 206.625354 
L 214.645443 206.00958 
L 215.874776 205.143372 
L 217.083008 204.375732 
L 218.287515 203.56458 
L 218.884381 203.037085 
L 219.478397 202.675687 
L 220.707053 201.697516 
L 221.32409 201.213085 
L 221.943834 200.883086 
L 223.17881 199.886199 
L 227.455184 197.348569 
L 228.649084 196.509438 
L 229.264992 196.146424 
L 231.688677 194.307508 
L 233.506807 193.258746 
L 235.928235 191.552457 
L 237.121233 190.919391 
L 238.347858 189.851013 
L 240.755744 188.648844 
L 241.983385 187.522465 
L 243.79861 185.941298 
L 245.609546 185.031008 
L 247.440343 183.592016 
L 248.641458 182.819982 
L 249.870679 182.098229 
L 251.694705 180.691111 
L 254.104849 179.143955 
L 255.918494 177.859963 
L 258.940483 175.928608 
L 260.134834 175.135316 
L 263.183807 172.807113 
L 265.596659 171.40636 
L 267.401276 169.707577 
L 269.204314 168.655207 
L 270.415366 168.085177 
L 272.252257 166.605 
L 273.46173 165.579707 
L 275.279437 164.410481 
L 280.126722 160.99013 
L 283.120725 158.853611 
L 283.740244 158.437395 
L 284.359312 158.159553 
L 286.821364 156.389088 
L 288.031514 155.338713 
L 300.705502 146.425598 
L 302.512828 145.02304 
L 303.717561 144.390497 
L 305.518003 143.060903 
L 306.719689 142.022451 
L 307.933112 141.376115 
L 309.753753 139.680039 
L 310.368758 139.027064 
L 310.964128 138.574745 
L 312.156223 138.080411 
L 312.767956 137.794589 
L 313.987584 136.683981 
L 315.814545 135.292253 
L 316.422554 135.048957 
L 317.630898 134.189448 
L 318.848608 132.861943 
L 320.069591 131.858216 
L 320.678728 131.503325 
L 321.284029 131.296238 
L 321.901404 130.901968 
L 322.499581 130.187649 
L 323.706233 129.114948 
L 324.908032 128.50124 
L 325.513107 128.176228 
L 326.723257 127.157965 
L 327.931714 125.895919 
L 331.001775 123.84234 
L 332.829864 122.304685 
L 334.062582 121.522651 
L 338.878073 118.084482 
L 340.697135 116.462367 
L 341.298711 115.84322 
L 347.385119 111.200375 
L 348.592335 110.023929 
L 349.78443 109.238618 
L 350.976298 108.59591 
L 352.192034 107.355323 
L 353.425317 106.23987 
L 354.020462 105.746319 
L 355.21391 104.967421 
L 355.831398 104.350364 
L 359.470198 101.513754 
L 360.674931 100.526747 
L 361.864543 99.503354 
L 363.051672 98.529838 
L 365.490478 96.30297 
L 366.706045 95.555043 
L 367.912005 94.664621 
L 370.966832 92.188222 
L 372.745721 90.816541 
L 374.58034 89.000711 
L 375.798615 88.056742 
L 376.40685 87.67905 
L 377.599621 86.603309 
L 378.839336 85.56139 
L 380.05558 84.498949 
L 381.266858 83.350149 
L 382.494555 82.228842 
L 383.108883 81.623375 
L 384.966312 80.375105 
L 385.585605 79.782654 
L 386.205124 79.472558 
L 388.058942 77.874005 
L 391.723809 74.693524 
L 392.932604 73.538739 
L 395.342522 71.55722 
L 395.938344 70.97332 
L 396.537776 70.544468 
L 397.736839 69.476268 
L 400.814799 66.772854 
L 402.004863 65.783948 
L 403.205082 64.784401 
L 403.797744 64.304531 
L 406.860696 61.156637 
L 408.664636 59.88585 
L 414.636703 54.211169 
L 415.856107 53.278886 
L 417.670316 51.467046 
L 420.688694 48.866096 
L 421.926603 47.480924 
L 423.112604 46.395682 
L 423.730995 45.96797 
L 426.142267 43.47656 
L 426.754479 42.728586 
L 430.38978 40.115 
L 431.863367 39.46 
L 432.234091 39.592508 
L 432.017936 45.990462 
L 432.024199 56.840502 
L 431.426967 57.056556 
L 430.214899 60.550553 
L 429.600345 60.282081 
L 428.979246 60.183026 
L 428.360404 60.328954 
L 427.165827 60.917889 
L 425.947327 60.933648 
L 425.347217 61.314927 
L 424.741917 63.049717 
L 424.135939 64.239179 
L 422.943844 66.218892 
L 422.320263 67.851837 
L 421.703791 68.635878 
L 421.078404 68.348108 
L 420.45076 68.397807 
L 419.247832 69.328761 
L 418.018612 69.533413 
L 417.415906 72.607393 
L 416.818392 73.951333 
L 416.207562 74.65019 
L 415.5903 74.859676 
L 414.970104 74.92384 
L 414.354647 75.260751 
L 413.131746 76.428077 
L 411.316522 79.243738 
L 409.487643 81.621997 
L 408.289229 82.421892 
L 407.695664 82.651139 
L 406.477051 83.579289 
L 405.86182 84.891118 
L 404.658892 86.629138 
L 404.065553 86.996997 
L 403.464767 87.503754 
L 402.871428 87.769364 
L 402.275042 88.785679 
L 401.054736 90.220919 
L 399.229242 91.532225 
L 398.626425 92.496715 
L 397.40973 93.853196 
L 395.596198 95.216422 
L 394.997668 96.168752 
L 392.570711 98.24081 
L 390.163614 101.194905 
L 388.366219 102.543596 
L 384.123585 106.757825 
L 382.915241 107.857222 
L 381.696177 109.34139 
L 378.675768 111.883247 
L 377.48277 112.89391 
L 376.276852 113.903183 
L 375.681708 114.51055 
L 375.085886 115.386305 
L 374.46569 116.075471 
L 372.042005 118.037798 
L 370.821474 119.398079 
L 370.226103 119.660341 
L 369.011891 120.71271 
L 367.794971 121.983497 
L 367.179288 122.479042 
L 365.985614 123.180084 
L 365.367675 123.683515 
L 363.529881 125.679284 
L 359.338197 128.920176 
L 356.253241 131.811082 
L 353.835424 133.665151 
L 353.218613 134.229005 
L 351.986346 135.066426 
L 351.37845 135.694694 
L 350.160288 136.635766 
L 347.14191 139.150131 
L 346.527808 139.821246 
L 344.123306 141.425215 
L 341.109216 143.982558 
L 339.886654 145.252964 
L 337.497951 146.866148 
L 336.900098 147.416607 
L 334.478106 148.988036 
L 333.882849 149.872342 
L 332.062052 151.243103 
L 330.863638 151.927685 
L 330.247617 152.823772 
L 329.025055 153.592077 
L 327.791433 154.194361 
L 326.596856 155.422395 
L 324.782986 156.519844 
L 324.175428 156.87293 
L 322.980851 157.876563 
L 321.787628 158.659878 
L 320.569692 159.83148 
L 319.964391 160.495754 
L 318.743183 161.28401 
L 317.544374 161.874614 
L 315.713577 163.462527 
L 314.503878 164.025859 
L 313.282557 164.95857 
L 312.680755 165.566602 
L 312.068345 166.013695 
L 310.882118 166.687518 
L 309.694537 167.582987 
L 309.096685 167.955929 
L 307.301095 169.373403 
L 306.706853 169.857548 
L 306.114643 170.493321 
L 300.701482 173.71517 
L 299.475421 174.868435 
L 296.466071 176.730723 
L 293.452658 179.275905 
L 289.834171 181.495933 
L 288.638465 182.067768 
L 286.801842 183.659719 
L 284.380753 184.762293 
L 283.778725 185.477205 
L 283.164622 185.972086 
L 280.764522 187.14377 
L 279.56182 188.337697 
L 277.74321 189.501175 
L 277.140843 189.661986 
L 276.51997 189.944649 
L 275.305758 190.881493 
L 273.480039 192.321673 
L 272.279467 192.874816 
L 270.436482 194.240482 
L 269.225881 194.984086 
L 268.027919 195.463196 
L 264.970722 197.6542 
L 263.157303 198.614127 
L 262.564867 199.063976 
L 261.344899 200.244317 
L 260.75314 200.498883 
L 260.15461 200.605104 
L 257.741716 202.124403 
L 257.126711 202.665646 
L 255.283952 203.825419 
L 254.669398 204.278687 
L 253.428329 204.874938 
L 249.796977 207.082663 
L 248.610525 207.840803 
L 246.776004 208.953311 
L 245.553441 209.790637 
L 244.933245 209.981193 
L 244.341486 210.387339 
L 243.74431 210.583572 
L 240.704823 212.574719 
L 238.899754 213.794915 
L 237.087238 214.667154 
L 236.476521 215.17429 
L 233.451259 216.866779 
L 232.229599 217.801628 
L 230.431301 218.600335 
L 229.832772 218.993465 
L 229.239433 219.216947 
L 228.025933 220.184817 
L 226.817589 220.854934 
L 226.205066 221.207593 
L 225.58645 221.349269 
L 223.750236 222.253763 
L 223.142001 222.802227 
L 221.926886 223.496808 
L 220.107374 224.344788 
L 219.500155 224.896102 
L 218.886729 225.277927 
L 217.685607 225.767297 
L 217.086852 226.053737 
L 215.858082 226.971961 
L 215.249622 227.467032 
L 213.423776 228.151789 
L 210.970526 229.676571 
L 209.182158 230.479601 
L 207.384989 231.700248 
L 206.783525 231.871305 
L 205.585788 232.650725 
L 204.979133 232.895838 
L 201.330403 235.049066 
L 198.290895 236.625778 
L 197.67747 237.023707 
L 196.443397 237.564142 
L 194.613499 238.660262 
L 194.003459 239.120371 
L 190.973796 240.498038 
L 189.762744 241.408565 
L 186.764904 243.109154 
L 184.973151 244.071506 
L 184.374169 244.18059 
L 183.754552 244.440134 
L 181.941133 245.714815 
L 178.932685 246.557726 
L 177.732917 247.59632 
L 176.529876 248.276508 
L 175.31273 248.851478 
L 171.659938 250.820874 
L 171.0587 251.01694 
L 170.464909 251.489401 
L 168.012544 252.802599 
L 166.824963 253.523639 
L 166.232076 254.02365 
L 165.631739 254.349185 
L 165.025535 254.537485 
L 164.42046 254.598298 
L 163.20354 255.129886 
L 161.990118 255.82252 
L 161.38177 256.30752 
L 158.317351 257.496743 
L 155.846723 258.918825 
L 154.018803 259.910332 
L 152.178527 260.820242 
L 151.586542 261.133331 
L 150.988464 261.294032 
L 150.388128 261.593772 
L 149.786439 262.057682 
L 147.353049 263.174869 
L 146.124619 263.874342 
L 143.051624 265.178603 
L 142.436844 265.660373 
L 140.604467 266.36851 
L 139.36535 266.689556 
L 138.747637 267.090809 
L 138.126312 267.320864 
L 137.509727 267.729955 
L 136.896076 268.30426 
L 134.462799 269.391663 
L 132.043628 270.506902 
L 131.430654 270.888585 
L 130.812489 271.013724 
L 121.170103 275.527757 
L 119.960178 276.004527 
L 118.745741 276.44912 
L 117.535591 277.062698 
L 116.297907 277.657809 
L 113.824119 278.372181 
L 113.214869 278.870102 
L 112.617467 279.174332 
L 112.007653 279.220222 
L 110.783962 279.546597 
L 108.968487 280.700797 
L 108.374245 280.814954 
L 107.77391 281.135572 
L 106.571885 281.450974 
L 104.125631 282.634047 
L 103.530261 282.924204 
L 102.931279 282.980868 
L 102.334104 283.164228 
L 101.742345 283.186515 
L 101.130048 283.682204 
L 99.926781 284.258361 
L 99.325543 284.240459 
L 98.727916 284.47505 
L 98.10772 284.572765 
L 97.491812 285.103653 
L 96.875227 285.447203 
L 95.687646 285.7672 
L 94.464368 285.891469 
L 93.862227 286.483018 
L 93.244288 286.767249 
L 92.643049 286.858388 
L 89.619706 288.005582 
L 89.016437 287.971264 
L 87.814638 288.249213 
L 87.21182 288.762905 
L 86.010923 289.001551 
L 84.784749 289.202309 
L 84.188702 289.451186 
L 83.574148 289.986824 
L 81.161974 290.022255 
L 79.955872 291.06 
L 78.752945 290.353852 
L 78.149337 289.954546 
L 77.547534 289.422115 
L 77.074798 290.288316 
L 77.049126 290.267688 
L 76.916128 269.780275 
L 76.916128 269.780275 
" clip-path="url(#pef779676cf)" style="fill: none; stroke: #000000; stroke-width: 2; stroke-linecap: square"/>
   </g>
   <g id="patch_3">
    <path d="M 59.15 303.64 
L 59.15 26.88 
" style="fill: none; stroke: #000000; stroke-width: 0.8; stroke-linejoin: miter; stroke-linecap: square"/>
   </g>
   <g id="patch_4">
    <path d="M 450 303.64 
L 450 26.88 
" style="fill: none; stroke: #000000; stroke-width: 0.8; stroke-linejoin: miter; stroke-linecap: square"/>
   </g>
   <g id="patch_5">
    <path d="M 59.15 303.64 
L 450 303.64 
" style="fill: none; stroke: #000000; stroke-width: 0.8; stroke-linejoin: miter; stroke-linecap: square"/>
   </g>
   <g id="patch_6">
    <path d="M 59.15 26.88 
L 450 26.88 
" style="fill: none; stroke: #000000; stroke-width: 0.8; stroke-linejoin: miter; stroke-linecap: square"/>
   </g>
   <g id="text_14">
    <!-- 2025-06-16 Trial 10 - Stress vs Strain -->
    <g transform="translate(143.320938 20.88) scale(0.12 -0.12)">
     <defs>
      <path id="DejaVuSans-54" d="M -19 4666 
L 3928 4666 
L 3928 4134 
L 2272 4134 
L 2272 0 
L 1638 0 
L 1638 4134 
L -19 4134 
L -19 4666 
z
" transform="scale(0.015625)"/>
      <path id="DejaVuSans-6c" d="M 603 4863 
L 1178 4863 
L 1178 0 
L 603 0 
L 603 4863 
z
" transform="scale(0.015625)"/>
      <path id="DejaVuSans-76" d="M 191 3500 
L 800 3500 
L 1894 563 
L 2988 3500 
L 3597 3500 
L 2284 0 
L 1503 0 
L 191 3500 
z
" transform="scale(0.015625)"/>
     </defs>
     <use xlink:href="#DejaVuSans-32"/>
     <use xlink:href="#DejaVuSans-30" transform="translate(63.623047 0)"/>
     <use xlink:href="#DejaVuSans-32" transform="translate(127.246094 0)"/>
     <use xlink:href="#DejaVuSans-35" transform="translate(190.869141 0)"/>
     <use xlink:href="#DejaVuSans-2d" transform="translate(254.492188 0)"/>
     <use xlink:href="#DejaVuSans-30" transform="translate(290.576172 0)"/>
     <use xlink:href="#DejaVuSans-36" transform="translate(354.199219 0)"/>
     <use xlink:href="#DejaVuSans-2d" transform="translate(417.822266 0)"/>
     <use xlink:href="#DejaVuSans-31" transform="translate(453.90625 0)"/>
     <use xlink:href="#DejaVuSans-36" transform="translate(517.529297 0)"/>
     <use xlink:href="#DejaVuSans-20" transform="translate(581.152344 0)"/>
     <use xlink:href="#DejaVuSans-54" transform="translate(612.939453 0)"/>
     <use xlink:href="#DejaVuSans-72" transform="translate(659.273438 0)"/>
     <use xlink:href="#DejaVuSans-69" transform="translate(700.386719 0)"/>
     <use xlink:href="#DejaVuSans-61" transform="translate(728.169922 0)"/>
     <use xlink:href="#DejaVuSans-6c" transform="translate(789.449219 0)"/>
     <use xlink:href="#DejaVuSans-20" transform="translate(817.232422 0)"/>
     <use xlink:href="#DejaVuSans-31" transform="translate(849.019531 0)"/>
     <use xlink:href="#DejaVuSans-30" transform="translate(912.642578 0)"/>
     <use xlink:href="#DejaVuSans-20" transform="translate(976.265625 0)"/>
     <use xlink:href="#DejaVuSans-2d" transform="translate(1008.052734 0)"/>
     <use xlink:href="#DejaVuSans-20" transform="translate(1044.136719 0)"/>
     <use xlink:href="#DejaVuSans-53" transform="translate(1075.923828 0)"/>
     <use xlink:href="#DejaVuSans-74" transform="translate(1139.400391 0)"/>
     <use xlink:href="#DejaVuSans-72" transform="translate(1178.609375 0)"/>
     <use xlink:href="#DejaVuSans-65" transform="translate(1217.472656 0)"/>
     <use xlink:href="#DejaVuSans-73" transform="translate(1278.996094 0)"/>
     <use xlink:href="#DejaVuSans-73" transform="translate(1331.095703 0)"/>
     <use xlink:href="#DejaVuSans-20" transform="translate(1383.195312 0)"/>
     <use xlink:href="#DejaVuSans-76" transform="translate(1414.982422 0)"/>
     <use xlink:href="#DejaVuSans-73" transform="translate(1474.162109 0)"/>
     <use xlink:href="#DejaVuSans-20" transform="translate(1526.261719 0)"/>
     <use xlink:href="#DejaVuSans-53" transform="translate(1558.048828 0)"/>
     <use xlink:href="#DejaVuSans-74" transform="translate(1621.525391 0)"/>
     <use xlink:href="#DejaVuSans-72" transform="translate(1660.734375 0)"/>
     <use xlink:href="#DejaVuSans-61" transform="translate(1701.847656 0)"/>
     <use xlink:href="#DejaVuSans-69" transform="translate(1763.126953 0)"/>
     <use xlink:href="#DejaVuSans-6e" transform="translate(1790.910156 0)"/>
    </g>
   </g>
   <g id="legend_1">
    <g id="patch_7">
     <path d="M 66.15 64.23625 
L 172.134375 64.23625 
Q 174.134375 64.23625 174.134375 62.23625 
L 174.134375 33.88 
Q 174.134375 31.88 172.134375 31.88 
L 66.15 31.88 
Q 64.15 31.88 64.15 33.88 
L 64.15 62.23625 
Q 64.15 64.23625 66.15 64.23625 
z
" style="fill: #ffffff; opacity: 0.8; stroke: #cccccc; stroke-linejoin: miter"/>
    </g>
    <g id="line2d_25">
     <path d="M 68.15 39.978437 
L 78.15 39.978437 
L 88.15 39.978437 
" style="fill: none; stroke: #ff0000; stroke-width: 2; stroke-linecap: square"/>
    </g>
    <g id="text_15">
     <!-- Raw Force -->
     <g transform="translate(96.15 43.478437) scale(0.1 -0.1)">
      <defs>
       <path id="DejaVuSans-52" d="M 2841 2188 
Q 3044 2119 3236 1894 
Q 3428 1669 3622 1275 
L 4263 0 
L 3584 0 
L 2988 1197 
Q 2756 1666 2539 1819 
Q 2322 1972 1947 1972 
L 1259 1972 
L 1259 0 
L 628 0 
L 628 4666 
L 2053 4666 
Q 2853 4666 3247 4331 
Q 3641 3997 3641 3322 
Q 3641 2881 3436 2590 
Q 3231 2300 2841 2188 
z
M 1259 4147 
L 1259 2491 
L 2053 2491 
Q 2509 2491 2742 2702 
Q 2975 2913 2975 3322 
Q 2975 3731 2742 3939 
Q 2509 4147 2053 4147 
L 1259 4147 
z
" transform="scale(0.015625)"/>
       <path id="DejaVuSans-77" d="M 269 3500 
L 844 3500 
L 1563 769 
L 2278 3500 
L 2956 3500 
L 3675 769 
L 4391 3500 
L 4966 3500 
L 4050 0 
L 3372 0 
L 2619 2869 
L 1863 0 
L 1184 0 
L 269 3500 
z
" transform="scale(0.015625)"/>
       <path id="DejaVuSans-46" d="M 628 4666 
L 3309 4666 
L 3309 4134 
L 1259 4134 
L 1259 2759 
L 3109 2759 
L 3109 2228 
L 1259 2228 
L 1259 0 
L 628 0 
L 628 4666 
z
" transform="scale(0.015625)"/>
       <path id="DejaVuSans-6f" d="M 1959 3097 
Q 1497 3097 1228 2736 
Q 959 2375 959 1747 
Q 959 1119 1226 758 
Q 1494 397 1959 397 
Q 2419 397 2687 759 
Q 2956 1122 2956 1747 
Q 2956 2369 2687 2733 
Q 2419 3097 1959 3097 
z
M 1959 3584 
Q 2709 3584 3137 3096 
Q 3566 2609 3566 1747 
Q 3566 888 3137 398 
Q 2709 -91 1959 -91 
Q 1206 -91 779 398 
Q 353 888 353 1747 
Q 353 2609 779 3096 
Q 1206 3584 1959 3584 
z
" transform="scale(0.015625)"/>
       <path id="DejaVuSans-63" d="M 3122 3366 
L 3122 2828 
Q 2878 2963 2633 3030 
Q 2388 3097 2138 3097 
Q 1578 3097 1268 2742 
Q 959 2388 959 1747 
Q 959 1106 1268 751 
Q 1578 397 2138 397 
Q 2388 397 2633 464 
Q 2878 531 3122 666 
L 3122 134 
Q 2881 22 2623 -34 
Q 2366 -91 2075 -91 
Q 1284 -91 818 406 
Q 353 903 353 1747 
Q 353 2603 823 3093 
Q 1294 3584 2113 3584 
Q 2378 3584 2631 3529 
Q 2884 3475 3122 3366 
z
" transform="scale(0.015625)"/>
      </defs>
      <use xlink:href="#DejaVuSans-52"/>
      <use xlink:href="#DejaVuSans-61" transform="translate(67.232422 0)"/>
      <use xlink:href="#DejaVuSans-77" transform="translate(128.511719 0)"/>
      <use xlink:href="#DejaVuSans-20" transform="translate(210.298828 0)"/>
      <use xlink:href="#DejaVuSans-46" transform="translate(242.085938 0)"/>
      <use xlink:href="#DejaVuSans-6f" transform="translate(295.980469 0)"/>
      <use xlink:href="#DejaVuSans-72" transform="translate(357.162109 0)"/>
      <use xlink:href="#DejaVuSans-63" transform="translate(396.025391 0)"/>
      <use xlink:href="#DejaVuSans-65" transform="translate(451.005859 0)"/>
     </g>
    </g>
    <g id="line2d_26">
     <path d="M 68.15 54.656563 
L 78.15 54.656563 
L 88.15 54.656563 
" style="fill: none; stroke: #000000; stroke-width: 2; stroke-linecap: square"/>
    </g>
    <g id="text_16">
     <!-- Adjusted Force -->
     <g transform="translate(96.15 58.156563) scale(0.1 -0.1)">
      <defs>
       <path id="DejaVuSans-41" d="M 2188 4044 
L 1331 1722 
L 3047 1722 
L 2188 4044 
z
M 1831 4666 
L 2547 4666 
L 4325 0 
L 3669 0 
L 3244 1197 
L 1141 1197 
L 716 0 
L 50 0 
L 1831 4666 
z
" transform="scale(0.015625)"/>
       <path id="DejaVuSans-64" d="M 2906 2969 
L 2906 4863 
L 3481 4863 
L 3481 0 
L 2906 0 
L 2906 525 
Q 2725 213 2448 61 
Q 2172 -91 1784 -91 
Q 1150 -91 751 415 
Q 353 922 353 1747 
Q 353 2572 751 3078 
Q 1150 3584 1784 3584 
Q 2172 3584 2448 3432 
Q 2725 3281 2906 2969 
z
M 947 1747 
Q 947 1113 1208 752 
Q 1469 391 1925 391 
Q 2381 391 2643 752 
Q 2906 1113 2906 1747 
Q 2906 2381 2643 2742 
Q 2381 3103 1925 3103 
Q 1469 3103 1208 2742 
Q 947 2381 947 1747 
z
" transform="scale(0.015625)"/>
       <path id="DejaVuSans-6a" d="M 603 3500 
L 1178 3500 
L 1178 -63 
Q 1178 -731 923 -1031 
Q 669 -1331 103 -1331 
L -116 -1331 
L -116 -844 
L 38 -844 
Q 366 -844 484 -692 
Q 603 -541 603 -63 
L 603 3500 
z
M 603 4863 
L 1178 4863 
L 1178 4134 
L 603 4134 
L 603 4863 
z
" transform="scale(0.015625)"/>
       <path id="DejaVuSans-75" d="M 544 1381 
L 544 3500 
L 1119 3500 
L 1119 1403 
Q 1119 906 1312 657 
Q 1506 409 1894 409 
Q 2359 409 2629 706 
Q 2900 1003 2900 1516 
L 2900 3500 
L 3475 3500 
L 3475 0 
L 2900 0 
L 2900 538 
Q 2691 219 2414 64 
Q 2138 -91 1772 -91 
Q 1169 -91 856 284 
Q 544 659 544 1381 
z
M 1991 3584 
L 1991 3584 
z
" transform="scale(0.015625)"/>
      </defs>
      <use xlink:href="#DejaVuSans-41"/>
      <use xlink:href="#DejaVuSans-64" transform="translate(66.658203 0)"/>
      <use xlink:href="#DejaVuSans-6a" transform="translate(130.134766 0)"/>
      <use xlink:href="#DejaVuSans-75" transform="translate(157.917969 0)"/>
      <use xlink:href="#DejaVuSans-73" transform="translate(221.296875 0)"/>
      <use xlink:href="#DejaVuSans-74" transform="translate(273.396484 0)"/>
      <use xlink:href="#DejaVuSans-65" transform="translate(312.605469 0)"/>
      <use xlink:href="#DejaVuSans-64" transform="translate(374.128906 0)"/>
      <use xlink:href="#DejaVuSans-20" transform="translate(437.605469 0)"/>
      <use xlink:href="#DejaVuSans-46" transform="translate(469.392578 0)"/>
      <use xlink:href="#DejaVuSans-6f" transform="translate(523.287109 0)"/>
      <use xlink:href="#DejaVuSans-72" transform="translate(584.46875 0)"/>
      <use xlink:href="#DejaVuSans-63" transform="translate(623.332031 0)"/>
      <use xlink:href="#DejaVuSans-65" transform="translate(678.3125 0)"/>
     </g>
    </g>
   </g>
  </g>
 </g>
 <defs>
  <clipPath id="pef779676cf">
   <rect x="59.15" y="26.88" width="390.85" height="276.76"/>
  </clipPath>
 </defs>
</svg>
