<?xml version="1.0" encoding="utf-8" standalone="no"?>
<!DOCTYPE svg PUBLIC "-//W3C//DTD SVG 1.1//EN"
  "http://www.w3.org/Graphics/SVG/1.1/DTD/svg11.dtd">
<svg xmlns:xlink="http://www.w3.org/1999/xlink" width="460.8pt" height="345.6pt" viewBox="0 0 460.8 345.6" xmlns="http://www.w3.org/2000/svg" version="1.1">
 <metadata>
  <rdf:RDF xmlns:dc="http://purl.org/dc/elements/1.1/" xmlns:cc="http://creativecommons.org/ns#" xmlns:rdf="http://www.w3.org/1999/02/22-rdf-syntax-ns#">
   <cc:Work>
    <dc:type rdf:resource="http://purl.org/dc/dcmitype/StillImage"/>
    <dc:date>2025-07-28T21:14:07.282241</dc:date>
    <dc:format>image/svg+xml</dc:format>
    <dc:creator>
     <cc:Agent>
      <dc:title>Matplotlib v3.10.3, https://matplotlib.org/</dc:title>
     </cc:Agent>
    </dc:creator>
   </cc:Work>
  </rdf:RDF>
 </metadata>
 <defs>
  <style type="text/css">*{stroke-linejoin: round; stroke-linecap: butt}</style>
 </defs>
 <g id="figure_1">
  <g id="patch_1">
   <path d="M 0 345.6 
L 460.8 345.6 
L 460.8 0 
L 0 0 
z
" style="fill: #ffffff"/>
  </g>
  <g id="axes_1">
   <g id="patch_2">
    <path d="M 57.17 303.64 
L 450 303.64 
L 450 26.88 
L 57.17 26.88 
z
" style="fill: #ffffff"/>
   </g>
   <g id="matplotlib.axis_1">
    <g id="xtick_1">
     <g id="line2d_1">
      <path d="M 75.104416 303.64 
L 75.104416 26.88 
" clip-path="url(#pc1859dab79)" style="fill: none; stroke: #b0b0b0; stroke-opacity: 0.3; stroke-width: 0.8; stroke-linecap: square"/>
     </g>
     <g id="line2d_2">
      <defs>
       <path id="m5f333ef8a0" d="M 0 0 
L 0 3.5 
" style="stroke: #000000; stroke-width: 0.8"/>
      </defs>
      <g>
       <use xlink:href="#m5f333ef8a0" x="75.104416" y="303.64" style="stroke: #000000; stroke-width: 0.8"/>
      </g>
     </g>
     <g id="text_1">
      <!-- 0.00 -->
      <g transform="translate(63.971603 318.238437) scale(0.1 -0.1)">
       <defs>
        <path id="DejaVuSans-30" d="M 2034 4250 
Q 1547 4250 1301 3770 
Q 1056 3291 1056 2328 
Q 1056 1369 1301 889 
Q 1547 409 2034 409 
Q 2525 409 2770 889 
Q 3016 1369 3016 2328 
Q 3016 3291 2770 3770 
Q 2525 4250 2034 4250 
z
M 2034 4750 
Q 2819 4750 3233 4129 
Q 3647 3509 3647 2328 
Q 3647 1150 3233 529 
Q 2819 -91 2034 -91 
Q 1250 -91 836 529 
Q 422 1150 422 2328 
Q 422 3509 836 4129 
Q 1250 4750 2034 4750 
z
" transform="scale(0.015625)"/>
        <path id="DejaVuSans-2e" d="M 684 794 
L 1344 794 
L 1344 0 
L 684 0 
L 684 794 
z
" transform="scale(0.015625)"/>
       </defs>
       <use xlink:href="#DejaVuSans-30"/>
       <use xlink:href="#DejaVuSans-2e" transform="translate(63.623047 0)"/>
       <use xlink:href="#DejaVuSans-30" transform="translate(95.410156 0)"/>
       <use xlink:href="#DejaVuSans-30" transform="translate(159.033203 0)"/>
      </g>
     </g>
    </g>
    <g id="xtick_2">
     <g id="line2d_3">
      <path d="M 123.287118 303.64 
L 123.287118 26.88 
" clip-path="url(#pc1859dab79)" style="fill: none; stroke: #b0b0b0; stroke-opacity: 0.3; stroke-width: 0.8; stroke-linecap: square"/>
     </g>
     <g id="line2d_4">
      <g>
       <use xlink:href="#m5f333ef8a0" x="123.287118" y="303.64" style="stroke: #000000; stroke-width: 0.8"/>
      </g>
     </g>
     <g id="text_2">
      <!-- 0.05 -->
      <g transform="translate(112.154305 318.238437) scale(0.1 -0.1)">
       <defs>
        <path id="DejaVuSans-35" d="M 691 4666 
L 3169 4666 
L 3169 4134 
L 1269 4134 
L 1269 2991 
Q 1406 3038 1543 3061 
Q 1681 3084 1819 3084 
Q 2600 3084 3056 2656 
Q 3513 2228 3513 1497 
Q 3513 744 3044 326 
Q 2575 -91 1722 -91 
Q 1428 -91 1123 -41 
Q 819 9 494 109 
L 494 744 
Q 775 591 1075 516 
Q 1375 441 1709 441 
Q 2250 441 2565 725 
Q 2881 1009 2881 1497 
Q 2881 1984 2565 2268 
Q 2250 2553 1709 2553 
Q 1456 2553 1204 2497 
Q 953 2441 691 2322 
L 691 4666 
z
" transform="scale(0.015625)"/>
       </defs>
       <use xlink:href="#DejaVuSans-30"/>
       <use xlink:href="#DejaVuSans-2e" transform="translate(63.623047 0)"/>
       <use xlink:href="#DejaVuSans-30" transform="translate(95.410156 0)"/>
       <use xlink:href="#DejaVuSans-35" transform="translate(159.033203 0)"/>
      </g>
     </g>
    </g>
    <g id="xtick_3">
     <g id="line2d_5">
      <path d="M 171.46982 303.64 
L 171.46982 26.88 
" clip-path="url(#pc1859dab79)" style="fill: none; stroke: #b0b0b0; stroke-opacity: 0.3; stroke-width: 0.8; stroke-linecap: square"/>
     </g>
     <g id="line2d_6">
      <g>
       <use xlink:href="#m5f333ef8a0" x="171.46982" y="303.64" style="stroke: #000000; stroke-width: 0.8"/>
      </g>
     </g>
     <g id="text_3">
      <!-- 0.10 -->
      <g transform="translate(160.337007 318.238437) scale(0.1 -0.1)">
       <defs>
        <path id="DejaVuSans-31" d="M 794 531 
L 1825 531 
L 1825 4091 
L 703 3866 
L 703 4441 
L 1819 4666 
L 2450 4666 
L 2450 531 
L 3481 531 
L 3481 0 
L 794 0 
L 794 531 
z
" transform="scale(0.015625)"/>
       </defs>
       <use xlink:href="#DejaVuSans-30"/>
       <use xlink:href="#DejaVuSans-2e" transform="translate(63.623047 0)"/>
       <use xlink:href="#DejaVuSans-31" transform="translate(95.410156 0)"/>
       <use xlink:href="#DejaVuSans-30" transform="translate(159.033203 0)"/>
      </g>
     </g>
    </g>
    <g id="xtick_4">
     <g id="line2d_7">
      <path d="M 219.652522 303.64 
L 219.652522 26.88 
" clip-path="url(#pc1859dab79)" style="fill: none; stroke: #b0b0b0; stroke-opacity: 0.3; stroke-width: 0.8; stroke-linecap: square"/>
     </g>
     <g id="line2d_8">
      <g>
       <use xlink:href="#m5f333ef8a0" x="219.652522" y="303.64" style="stroke: #000000; stroke-width: 0.8"/>
      </g>
     </g>
     <g id="text_4">
      <!-- 0.15 -->
      <g transform="translate(208.519709 318.238437) scale(0.1 -0.1)">
       <use xlink:href="#DejaVuSans-30"/>
       <use xlink:href="#DejaVuSans-2e" transform="translate(63.623047 0)"/>
       <use xlink:href="#DejaVuSans-31" transform="translate(95.410156 0)"/>
       <use xlink:href="#DejaVuSans-35" transform="translate(159.033203 0)"/>
      </g>
     </g>
    </g>
    <g id="xtick_5">
     <g id="line2d_9">
      <path d="M 267.835223 303.64 
L 267.835223 26.88 
" clip-path="url(#pc1859dab79)" style="fill: none; stroke: #b0b0b0; stroke-opacity: 0.3; stroke-width: 0.8; stroke-linecap: square"/>
     </g>
     <g id="line2d_10">
      <g>
       <use xlink:href="#m5f333ef8a0" x="267.835223" y="303.64" style="stroke: #000000; stroke-width: 0.8"/>
      </g>
     </g>
     <g id="text_5">
      <!-- 0.20 -->
      <g transform="translate(256.702411 318.238437) scale(0.1 -0.1)">
       <defs>
        <path id="DejaVuSans-32" d="M 1228 531 
L 3431 531 
L 3431 0 
L 469 0 
L 469 531 
Q 828 903 1448 1529 
Q 2069 2156 2228 2338 
Q 2531 2678 2651 2914 
Q 2772 3150 2772 3378 
Q 2772 3750 2511 3984 
Q 2250 4219 1831 4219 
Q 1534 4219 1204 4116 
Q 875 4013 500 3803 
L 500 4441 
Q 881 4594 1212 4672 
Q 1544 4750 1819 4750 
Q 2544 4750 2975 4387 
Q 3406 4025 3406 3419 
Q 3406 3131 3298 2873 
Q 3191 2616 2906 2266 
Q 2828 2175 2409 1742 
Q 1991 1309 1228 531 
z
" transform="scale(0.015625)"/>
       </defs>
       <use xlink:href="#DejaVuSans-30"/>
       <use xlink:href="#DejaVuSans-2e" transform="translate(63.623047 0)"/>
       <use xlink:href="#DejaVuSans-32" transform="translate(95.410156 0)"/>
       <use xlink:href="#DejaVuSans-30" transform="translate(159.033203 0)"/>
      </g>
     </g>
    </g>
    <g id="xtick_6">
     <g id="line2d_11">
      <path d="M 316.017925 303.64 
L 316.017925 26.88 
" clip-path="url(#pc1859dab79)" style="fill: none; stroke: #b0b0b0; stroke-opacity: 0.3; stroke-width: 0.8; stroke-linecap: square"/>
     </g>
     <g id="line2d_12">
      <g>
       <use xlink:href="#m5f333ef8a0" x="316.017925" y="303.64" style="stroke: #000000; stroke-width: 0.8"/>
      </g>
     </g>
     <g id="text_6">
      <!-- 0.25 -->
      <g transform="translate(304.885113 318.238437) scale(0.1 -0.1)">
       <use xlink:href="#DejaVuSans-30"/>
       <use xlink:href="#DejaVuSans-2e" transform="translate(63.623047 0)"/>
       <use xlink:href="#DejaVuSans-32" transform="translate(95.410156 0)"/>
       <use xlink:href="#DejaVuSans-35" transform="translate(159.033203 0)"/>
      </g>
     </g>
    </g>
    <g id="xtick_7">
     <g id="line2d_13">
      <path d="M 364.200627 303.64 
L 364.200627 26.88 
" clip-path="url(#pc1859dab79)" style="fill: none; stroke: #b0b0b0; stroke-opacity: 0.3; stroke-width: 0.8; stroke-linecap: square"/>
     </g>
     <g id="line2d_14">
      <g>
       <use xlink:href="#m5f333ef8a0" x="364.200627" y="303.64" style="stroke: #000000; stroke-width: 0.8"/>
      </g>
     </g>
     <g id="text_7">
      <!-- 0.30 -->
      <g transform="translate(353.067815 318.238437) scale(0.1 -0.1)">
       <defs>
        <path id="DejaVuSans-33" d="M 2597 2516 
Q 3050 2419 3304 2112 
Q 3559 1806 3559 1356 
Q 3559 666 3084 287 
Q 2609 -91 1734 -91 
Q 1441 -91 1130 -33 
Q 819 25 488 141 
L 488 750 
Q 750 597 1062 519 
Q 1375 441 1716 441 
Q 2309 441 2620 675 
Q 2931 909 2931 1356 
Q 2931 1769 2642 2001 
Q 2353 2234 1838 2234 
L 1294 2234 
L 1294 2753 
L 1863 2753 
Q 2328 2753 2575 2939 
Q 2822 3125 2822 3475 
Q 2822 3834 2567 4026 
Q 2313 4219 1838 4219 
Q 1578 4219 1281 4162 
Q 984 4106 628 3988 
L 628 4550 
Q 988 4650 1302 4700 
Q 1616 4750 1894 4750 
Q 2613 4750 3031 4423 
Q 3450 4097 3450 3541 
Q 3450 3153 3228 2886 
Q 3006 2619 2597 2516 
z
" transform="scale(0.015625)"/>
       </defs>
       <use xlink:href="#DejaVuSans-30"/>
       <use xlink:href="#DejaVuSans-2e" transform="translate(63.623047 0)"/>
       <use xlink:href="#DejaVuSans-33" transform="translate(95.410156 0)"/>
       <use xlink:href="#DejaVuSans-30" transform="translate(159.033203 0)"/>
      </g>
     </g>
    </g>
    <g id="xtick_8">
     <g id="line2d_15">
      <path d="M 412.383329 303.64 
L 412.383329 26.88 
" clip-path="url(#pc1859dab79)" style="fill: none; stroke: #b0b0b0; stroke-opacity: 0.3; stroke-width: 0.8; stroke-linecap: square"/>
     </g>
     <g id="line2d_16">
      <g>
       <use xlink:href="#m5f333ef8a0" x="412.383329" y="303.64" style="stroke: #000000; stroke-width: 0.8"/>
      </g>
     </g>
     <g id="text_8">
      <!-- 0.35 -->
      <g transform="translate(401.250517 318.238437) scale(0.1 -0.1)">
       <use xlink:href="#DejaVuSans-30"/>
       <use xlink:href="#DejaVuSans-2e" transform="translate(63.623047 0)"/>
       <use xlink:href="#DejaVuSans-33" transform="translate(95.410156 0)"/>
       <use xlink:href="#DejaVuSans-35" transform="translate(159.033203 0)"/>
      </g>
     </g>
    </g>
    <g id="text_9">
     <!-- Strain [-] -->
     <g transform="translate(231.47875 331.916562) scale(0.1 -0.1)">
      <defs>
       <path id="DejaVuSans-53" d="M 3425 4513 
L 3425 3897 
Q 3066 4069 2747 4153 
Q 2428 4238 2131 4238 
Q 1616 4238 1336 4038 
Q 1056 3838 1056 3469 
Q 1056 3159 1242 3001 
Q 1428 2844 1947 2747 
L 2328 2669 
Q 3034 2534 3370 2195 
Q 3706 1856 3706 1288 
Q 3706 609 3251 259 
Q 2797 -91 1919 -91 
Q 1588 -91 1214 -16 
Q 841 59 441 206 
L 441 856 
Q 825 641 1194 531 
Q 1563 422 1919 422 
Q 2459 422 2753 634 
Q 3047 847 3047 1241 
Q 3047 1584 2836 1778 
Q 2625 1972 2144 2069 
L 1759 2144 
Q 1053 2284 737 2584 
Q 422 2884 422 3419 
Q 422 4038 858 4394 
Q 1294 4750 2059 4750 
Q 2388 4750 2728 4690 
Q 3069 4631 3425 4513 
z
" transform="scale(0.015625)"/>
       <path id="DejaVuSans-74" d="M 1172 4494 
L 1172 3500 
L 2356 3500 
L 2356 3053 
L 1172 3053 
L 1172 1153 
Q 1172 725 1289 603 
Q 1406 481 1766 481 
L 2356 481 
L 2356 0 
L 1766 0 
Q 1100 0 847 248 
Q 594 497 594 1153 
L 594 3053 
L 172 3053 
L 172 3500 
L 594 3500 
L 594 4494 
L 1172 4494 
z
" transform="scale(0.015625)"/>
       <path id="DejaVuSans-72" d="M 2631 2963 
Q 2534 3019 2420 3045 
Q 2306 3072 2169 3072 
Q 1681 3072 1420 2755 
Q 1159 2438 1159 1844 
L 1159 0 
L 581 0 
L 581 3500 
L 1159 3500 
L 1159 2956 
Q 1341 3275 1631 3429 
Q 1922 3584 2338 3584 
Q 2397 3584 2469 3576 
Q 2541 3569 2628 3553 
L 2631 2963 
z
" transform="scale(0.015625)"/>
       <path id="DejaVuSans-61" d="M 2194 1759 
Q 1497 1759 1228 1600 
Q 959 1441 959 1056 
Q 959 750 1161 570 
Q 1363 391 1709 391 
Q 2188 391 2477 730 
Q 2766 1069 2766 1631 
L 2766 1759 
L 2194 1759 
z
M 3341 1997 
L 3341 0 
L 2766 0 
L 2766 531 
Q 2569 213 2275 61 
Q 1981 -91 1556 -91 
Q 1019 -91 701 211 
Q 384 513 384 1019 
Q 384 1609 779 1909 
Q 1175 2209 1959 2209 
L 2766 2209 
L 2766 2266 
Q 2766 2663 2505 2880 
Q 2244 3097 1772 3097 
Q 1472 3097 1187 3025 
Q 903 2953 641 2809 
L 641 3341 
Q 956 3463 1253 3523 
Q 1550 3584 1831 3584 
Q 2591 3584 2966 3190 
Q 3341 2797 3341 1997 
z
" transform="scale(0.015625)"/>
       <path id="DejaVuSans-69" d="M 603 3500 
L 1178 3500 
L 1178 0 
L 603 0 
L 603 3500 
z
M 603 4863 
L 1178 4863 
L 1178 4134 
L 603 4134 
L 603 4863 
z
" transform="scale(0.015625)"/>
       <path id="DejaVuSans-6e" d="M 3513 2113 
L 3513 0 
L 2938 0 
L 2938 2094 
Q 2938 2591 2744 2837 
Q 2550 3084 2163 3084 
Q 1697 3084 1428 2787 
Q 1159 2491 1159 1978 
L 1159 0 
L 581 0 
L 581 3500 
L 1159 3500 
L 1159 2956 
Q 1366 3272 1645 3428 
Q 1925 3584 2291 3584 
Q 2894 3584 3203 3211 
Q 3513 2838 3513 2113 
z
" transform="scale(0.015625)"/>
       <path id="DejaVuSans-20" transform="scale(0.015625)"/>
       <path id="DejaVuSans-5b" d="M 550 4863 
L 1875 4863 
L 1875 4416 
L 1125 4416 
L 1125 -397 
L 1875 -397 
L 1875 -844 
L 550 -844 
L 550 4863 
z
" transform="scale(0.015625)"/>
       <path id="DejaVuSans-2d" d="M 313 2009 
L 1997 2009 
L 1997 1497 
L 313 1497 
L 313 2009 
z
" transform="scale(0.015625)"/>
       <path id="DejaVuSans-5d" d="M 1947 4863 
L 1947 -844 
L 622 -844 
L 622 -397 
L 1369 -397 
L 1369 4416 
L 622 4416 
L 622 4863 
L 1947 4863 
z
" transform="scale(0.015625)"/>
      </defs>
      <use xlink:href="#DejaVuSans-53"/>
      <use xlink:href="#DejaVuSans-74" transform="translate(63.476562 0)"/>
      <use xlink:href="#DejaVuSans-72" transform="translate(102.685547 0)"/>
      <use xlink:href="#DejaVuSans-61" transform="translate(143.798828 0)"/>
      <use xlink:href="#DejaVuSans-69" transform="translate(205.078125 0)"/>
      <use xlink:href="#DejaVuSans-6e" transform="translate(232.861328 0)"/>
      <use xlink:href="#DejaVuSans-20" transform="translate(296.240234 0)"/>
      <use xlink:href="#DejaVuSans-5b" transform="translate(328.027344 0)"/>
      <use xlink:href="#DejaVuSans-2d" transform="translate(367.041016 0)"/>
      <use xlink:href="#DejaVuSans-5d" transform="translate(403.125 0)"/>
     </g>
    </g>
   </g>
   <g id="matplotlib.axis_2">
    <g id="ytick_1">
     <g id="line2d_17">
      <path d="M 57.17 274.946145 
L 450 274.946145 
" clip-path="url(#pc1859dab79)" style="fill: none; stroke: #b0b0b0; stroke-opacity: 0.3; stroke-width: 0.8; stroke-linecap: square"/>
     </g>
     <g id="line2d_18">
      <defs>
       <path id="mc3c360d45c" d="M 0 0 
L -3.5 0 
" style="stroke: #000000; stroke-width: 0.8"/>
      </defs>
      <g>
       <use xlink:href="#mc3c360d45c" x="57.17" y="274.946145" style="stroke: #000000; stroke-width: 0.8"/>
      </g>
     </g>
     <g id="text_10">
      <!-- 0 -->
      <g transform="translate(43.8075 278.745364) scale(0.1 -0.1)">
       <use xlink:href="#DejaVuSans-30"/>
      </g>
     </g>
    </g>
    <g id="ytick_2">
     <g id="line2d_19">
      <path d="M 57.17 233.286792 
L 450 233.286792 
" clip-path="url(#pc1859dab79)" style="fill: none; stroke: #b0b0b0; stroke-opacity: 0.3; stroke-width: 0.8; stroke-linecap: square"/>
     </g>
     <g id="line2d_20">
      <g>
       <use xlink:href="#mc3c360d45c" x="57.17" y="233.286792" style="stroke: #000000; stroke-width: 0.8"/>
      </g>
     </g>
     <g id="text_11">
      <!-- 500 -->
      <g transform="translate(31.0825 237.086011) scale(0.1 -0.1)">
       <use xlink:href="#DejaVuSans-35"/>
       <use xlink:href="#DejaVuSans-30" transform="translate(63.623047 0)"/>
       <use xlink:href="#DejaVuSans-30" transform="translate(127.246094 0)"/>
      </g>
     </g>
    </g>
    <g id="ytick_3">
     <g id="line2d_21">
      <path d="M 57.17 191.627439 
L 450 191.627439 
" clip-path="url(#pc1859dab79)" style="fill: none; stroke: #b0b0b0; stroke-opacity: 0.3; stroke-width: 0.8; stroke-linecap: square"/>
     </g>
     <g id="line2d_22">
      <g>
       <use xlink:href="#mc3c360d45c" x="57.17" y="191.627439" style="stroke: #000000; stroke-width: 0.8"/>
      </g>
     </g>
     <g id="text_12">
      <!-- 1000 -->
      <g transform="translate(24.72 195.426658) scale(0.1 -0.1)">
       <use xlink:href="#DejaVuSans-31"/>
       <use xlink:href="#DejaVuSans-30" transform="translate(63.623047 0)"/>
       <use xlink:href="#DejaVuSans-30" transform="translate(127.246094 0)"/>
       <use xlink:href="#DejaVuSans-30" transform="translate(190.869141 0)"/>
      </g>
     </g>
    </g>
    <g id="ytick_4">
     <g id="line2d_23">
      <path d="M 57.17 149.968087 
L 450 149.968087 
" clip-path="url(#pc1859dab79)" style="fill: none; stroke: #b0b0b0; stroke-opacity: 0.3; stroke-width: 0.8; stroke-linecap: square"/>
     </g>
     <g id="line2d_24">
      <g>
       <use xlink:href="#mc3c360d45c" x="57.17" y="149.968087" style="stroke: #000000; stroke-width: 0.8"/>
      </g>
     </g>
     <g id="text_13">
      <!-- 1500 -->
      <g transform="translate(24.72 153.767305) scale(0.1 -0.1)">
       <use xlink:href="#DejaVuSans-31"/>
       <use xlink:href="#DejaVuSans-35" transform="translate(63.623047 0)"/>
       <use xlink:href="#DejaVuSans-30" transform="translate(127.246094 0)"/>
       <use xlink:href="#DejaVuSans-30" transform="translate(190.869141 0)"/>
      </g>
     </g>
    </g>
    <g id="ytick_5">
     <g id="line2d_25">
      <path d="M 57.17 108.308734 
L 450 108.308734 
" clip-path="url(#pc1859dab79)" style="fill: none; stroke: #b0b0b0; stroke-opacity: 0.3; stroke-width: 0.8; stroke-linecap: square"/>
     </g>
     <g id="line2d_26">
      <g>
       <use xlink:href="#mc3c360d45c" x="57.17" y="108.308734" style="stroke: #000000; stroke-width: 0.8"/>
      </g>
     </g>
     <g id="text_14">
      <!-- 2000 -->
      <g transform="translate(24.72 112.107952) scale(0.1 -0.1)">
       <use xlink:href="#DejaVuSans-32"/>
       <use xlink:href="#DejaVuSans-30" transform="translate(63.623047 0)"/>
       <use xlink:href="#DejaVuSans-30" transform="translate(127.246094 0)"/>
       <use xlink:href="#DejaVuSans-30" transform="translate(190.869141 0)"/>
      </g>
     </g>
    </g>
    <g id="ytick_6">
     <g id="line2d_27">
      <path d="M 57.17 66.649381 
L 450 66.649381 
" clip-path="url(#pc1859dab79)" style="fill: none; stroke: #b0b0b0; stroke-opacity: 0.3; stroke-width: 0.8; stroke-linecap: square"/>
     </g>
     <g id="line2d_28">
      <g>
       <use xlink:href="#mc3c360d45c" x="57.17" y="66.649381" style="stroke: #000000; stroke-width: 0.8"/>
      </g>
     </g>
     <g id="text_15">
      <!-- 2500 -->
      <g transform="translate(24.72 70.4486) scale(0.1 -0.1)">
       <use xlink:href="#DejaVuSans-32"/>
       <use xlink:href="#DejaVuSans-35" transform="translate(63.623047 0)"/>
       <use xlink:href="#DejaVuSans-30" transform="translate(127.246094 0)"/>
       <use xlink:href="#DejaVuSans-30" transform="translate(190.869141 0)"/>
      </g>
     </g>
    </g>
    <g id="text_16">
     <!-- Stress [Pa] -->
     <g transform="translate(18.640312 191.967812) rotate(-90) scale(0.1 -0.1)">
      <defs>
       <path id="DejaVuSans-65" d="M 3597 1894 
L 3597 1613 
L 953 1613 
Q 991 1019 1311 708 
Q 1631 397 2203 397 
Q 2534 397 2845 478 
Q 3156 559 3463 722 
L 3463 178 
Q 3153 47 2828 -22 
Q 2503 -91 2169 -91 
Q 1331 -91 842 396 
Q 353 884 353 1716 
Q 353 2575 817 3079 
Q 1281 3584 2069 3584 
Q 2775 3584 3186 3129 
Q 3597 2675 3597 1894 
z
M 3022 2063 
Q 3016 2534 2758 2815 
Q 2500 3097 2075 3097 
Q 1594 3097 1305 2825 
Q 1016 2553 972 2059 
L 3022 2063 
z
" transform="scale(0.015625)"/>
       <path id="DejaVuSans-73" d="M 2834 3397 
L 2834 2853 
Q 2591 2978 2328 3040 
Q 2066 3103 1784 3103 
Q 1356 3103 1142 2972 
Q 928 2841 928 2578 
Q 928 2378 1081 2264 
Q 1234 2150 1697 2047 
L 1894 2003 
Q 2506 1872 2764 1633 
Q 3022 1394 3022 966 
Q 3022 478 2636 193 
Q 2250 -91 1575 -91 
Q 1294 -91 989 -36 
Q 684 19 347 128 
L 347 722 
Q 666 556 975 473 
Q 1284 391 1588 391 
Q 1994 391 2212 530 
Q 2431 669 2431 922 
Q 2431 1156 2273 1281 
Q 2116 1406 1581 1522 
L 1381 1569 
Q 847 1681 609 1914 
Q 372 2147 372 2553 
Q 372 3047 722 3315 
Q 1072 3584 1716 3584 
Q 2034 3584 2315 3537 
Q 2597 3491 2834 3397 
z
" transform="scale(0.015625)"/>
       <path id="DejaVuSans-50" d="M 1259 4147 
L 1259 2394 
L 2053 2394 
Q 2494 2394 2734 2622 
Q 2975 2850 2975 3272 
Q 2975 3691 2734 3919 
Q 2494 4147 2053 4147 
L 1259 4147 
z
M 628 4666 
L 2053 4666 
Q 2838 4666 3239 4311 
Q 3641 3956 3641 3272 
Q 3641 2581 3239 2228 
Q 2838 1875 2053 1875 
L 1259 1875 
L 1259 0 
L 628 0 
L 628 4666 
z
" transform="scale(0.015625)"/>
      </defs>
      <use xlink:href="#DejaVuSans-53"/>
      <use xlink:href="#DejaVuSans-74" transform="translate(63.476562 0)"/>
      <use xlink:href="#DejaVuSans-72" transform="translate(102.685547 0)"/>
      <use xlink:href="#DejaVuSans-65" transform="translate(141.548828 0)"/>
      <use xlink:href="#DejaVuSans-73" transform="translate(203.072266 0)"/>
      <use xlink:href="#DejaVuSans-73" transform="translate(255.171875 0)"/>
      <use xlink:href="#DejaVuSans-20" transform="translate(307.271484 0)"/>
      <use xlink:href="#DejaVuSans-5b" transform="translate(339.058594 0)"/>
      <use xlink:href="#DejaVuSans-50" transform="translate(378.072266 0)"/>
      <use xlink:href="#DejaVuSans-61" transform="translate(433.875 0)"/>
      <use xlink:href="#DejaVuSans-5d" transform="translate(495.154297 0)"/>
     </g>
    </g>
   </g>
   <g id="line2d_29">
    <path d="M 75.104416 275.784204 
L 75.104436 275.875973 
L 75.105765 275.7588 
L 75.113098 275.79453 
L 75.480039 274.54475 
L 75.844308 274.823288 
L 76.203744 274.603789 
L 76.562907 274.76711 
L 78.033327 276.86109 
L 78.776025 276.57921 
L 79.137435 276.666601 
L 79.500274 275.820818 
L 79.858757 275.478822 
L 81.326998 276.020244 
L 81.688612 276.006338 
L 82.419125 275.756893 
L 83.860953 275.80445 
L 84.970643 275.744859 
L 86.067521 275.846609 
L 89.759635 275.605694 
L 91.224608 275.491325 
L 91.95621 275.251377 
L 95.256284 274.733535 
L 98.905374 273.725216 
L 99.647936 273.48003 
L 100.376134 273.37557 
L 106.172322 271.411563 
L 107.286165 270.94705 
L 108.748143 270.437303 
L 110.213389 269.846592 
L 110.574186 269.772485 
L 112.410223 268.886236 
L 113.496427 268.649948 
L 114.599038 267.997966 
L 114.973178 267.965684 
L 117.885561 266.727563 
L 119.33515 266.083574 
L 120.06219 265.783159 
L 120.796787 265.362675 
L 128.893688 261.818251 
L 129.621818 261.443405 
L 130.34734 261.264687 
L 131.077784 260.943411 
L 131.813879 260.434686 
L 133.263195 259.822546 
L 136.604178 258.315554 
L 138.443292 257.63306 
L 139.907359 256.867897 
L 143.522821 255.25576 
L 144.247955 254.785804 
L 144.975541 254.685482 
L 145.700743 254.39681 
L 146.792262 253.707315 
L 148.260264 253.10299 
L 149.004868 252.706119 
L 152.309227 251.298315 
L 153.055737 251.002028 
L 154.150111 250.487153 
L 155.984731 249.634247 
L 156.705645 249.255102 
L 157.440668 248.983718 
L 162.19196 246.770599 
L 162.91301 246.457457 
L 164.750218 245.494139 
L 165.486244 245.216644 
L 166.945891 244.483815 
L 168.404669 243.950992 
L 169.145597 243.49692 
L 172.048246 242.056519 
L 172.406933 241.803958 
L 173.145546 241.548736 
L 183.387085 236.54824 
L 183.760604 236.344392 
L 184.488462 236.152986 
L 185.955341 235.409638 
L 186.683743 235.108312 
L 187.782542 234.473004 
L 188.889441 234.075658 
L 194.369833 231.19367 
L 194.743156 231.105753 
L 196.203773 230.376194 
L 198.018447 229.363763 
L 198.761145 228.912099 
L 200.936004 227.871907 
L 201.65754 227.581832 
L 202.386486 227.230194 
L 203.480043 226.591122 
L 204.939978 225.994582 
L 206.037075 225.278985 
L 207.129678 224.902976 
L 208.614802 224.009501 
L 211.140247 222.584028 
L 211.874231 222.309391 
L 213.72696 221.395885 
L 214.822967 220.811161 
L 215.918157 220.019808 
L 217.767141 219.080543 
L 218.507388 218.552232 
L 220.335967 217.830529 
L 221.078937 217.339834 
L 223.618134 216.009283 
L 224.718225 215.371385 
L 225.806472 214.669547 
L 230.212726 212.391476 
L 231.326977 211.692107 
L 232.072671 211.331577 
L 234.269858 210.143717 
L 238.988577 207.457116 
L 240.081997 206.929736 
L 243.401061 204.931988 
L 244.51572 204.326383 
L 245.968712 203.384873 
L 247.045182 202.941075 
L 249.616646 201.284392 
L 250.350766 200.933129 
L 251.453989 200.202963 
L 252.182664 199.730053 
L 253.269549 199.213802 
L 254.014697 198.752101 
L 256.578282 197.209817 
L 257.685453 196.564877 
L 265.675565 191.622519 
L 266.775453 190.937617 
L 267.523052 190.487409 
L 269.704583 188.963907 
L 270.815566 188.22411 
L 271.911437 187.727243 
L 272.281833 187.498881 
L 273.016362 186.843055 
L 274.84666 185.742768 
L 275.589766 185.19135 
L 276.680055 184.653934 
L 277.789541 183.890949 
L 278.535642 183.41294 
L 282.936519 180.573769 
L 285.823034 178.601152 
L 286.929116 177.856863 
L 288.76115 176.554721 
L 290.250221 175.592066 
L 295.382938 172.007909 
L 296.817822 171.023846 
L 297.536558 170.526655 
L 298.282523 169.881432 
L 299.397591 169.276474 
L 301.585249 167.693525 
L 302.312289 167.172377 
L 303.788836 165.997042 
L 304.87749 165.364404 
L 306.340898 164.095567 
L 307.805055 163.029112 
L 308.544213 162.398376 
L 309.263272 161.972783 
L 311.46645 160.227516 
L 312.198937 159.708675 
L 312.944766 159.068065 
L 316.961053 156.158247 
L 320.632251 153.270505 
L 322.097088 152.188064 
L 323.195478 151.198701 
L 323.926876 150.723767 
L 325.751489 149.142072 
L 326.479755 148.748155 
L 331.220853 144.781595 
L 332.674799 143.570061 
L 333.407694 143.034951 
L 334.86586 141.783921 
L 338.183085 139.180487 
L 343.658219 134.452964 
L 344.378996 133.939222 
L 345.811141 132.52385 
L 356.738654 122.871341 
L 358.200904 121.484337 
L 362.57593 117.482691 
L 365.51442 114.619098 
L 367.33951 112.832432 
L 368.770854 111.547165 
L 369.514641 110.870053 
L 373.525993 106.878979 
L 375.700035 104.718074 
L 377.154933 103.197607 
L 380.465011 99.716542 
L 383.787035 96.403055 
L 384.876643 95.283545 
L 388.152275 91.840278 
L 392.164035 87.418147 
L 393.266305 86.1795 
L 394.724743 84.652072 
L 397.661089 81.276305 
L 400.213934 78.501287 
L 414.824185 61.290936 
L 416.287558 59.323884 
L 419.561079 55.152028 
L 431.200334 39.983111 
L 431.91815 39.46 
L 432.144091 40.933868 
L 432.010017 51.738646 
L 432.012502 71.507308 
L 431.651909 71.730611 
L 431.287674 72.398577 
L 430.916937 73.397654 
L 430.557229 73.923981 
L 430.198815 74.156916 
L 429.455027 75.051099 
L 428.359837 76.421672 
L 427.987603 76.761118 
L 427.251441 78.692256 
L 426.126978 80.98971 
L 425.752157 81.970333 
L 425.383327 82.613937 
L 425.015042 82.818463 
L 424.65193 83.224277 
L 423.198461 85.368438 
L 422.834396 86.858473 
L 422.092992 88.145844 
L 420.630061 90.050111 
L 417.325123 95.753157 
L 416.5925 96.624759 
L 415.85729 97.487053 
L 415.124667 99.376104 
L 413.659149 101.040071 
L 412.551502 103.059671 
L 411.44787 104.384354 
L 410.700781 105.950388 
L 409.243705 107.534552 
L 408.505976 109.068292 
L 407.420044 110.330573 
L 407.057477 110.656017 
L 406.320225 112.159326 
L 405.59618 112.96974 
L 404.867369 113.622571 
L 403.394703 115.9057 
L 402.295769 117.167252 
L 401.936435 117.964393 
L 401.216542 118.83219 
L 400.122442 119.974928 
L 399.398805 121.299368 
L 397.921033 122.7321 
L 396.817197 124.401409 
L 396.095875 125.047765 
L 395.734533 125.43634 
L 394.641589 127.081611 
L 393.896032 127.780575 
L 393.525092 128.168826 
L 392.800706 129.499761 
L 391.7096 130.315922 
L 391.349552 130.614171 
L 390.988278 131.144951 
L 390.61795 132.09417 
L 389.895743 132.749915 
L 388.799804 133.665121 
L 388.074057 135.036504 
L 387.346608 135.496586 
L 386.627532 136.063382 
L 385.537583 137.813323 
L 384.798561 138.256934 
L 384.430548 138.561052 
L 384.059437 139.072458 
L 383.69687 139.850578 
L 383.339204 140.255825 
L 382.236934 140.943935 
L 381.865109 141.331751 
L 381.499478 142.221239 
L 381.132554 142.740769 
L 379.670848 143.609659 
L 378.950275 144.919692 
L 377.12076 146.339434 
L 376.747028 147.10768 
L 376.383508 147.458134 
L 375.636862 147.880621 
L 374.911999 148.311727 
L 374.181691 149.663038 
L 372.720666 150.546699 
L 372.350474 151.134457 
L 371.982461 151.977165 
L 371.612542 152.25079 
L 371.25365 152.348885 
L 370.532736 152.78251 
L 370.169148 152.904026 
L 369.447077 154.319357 
L 368.713092 154.610343 
L 367.62151 155.49452 
L 367.254995 156.409099 
L 365.425922 157.419961 
L 365.057433 158.340206 
L 364.683633 158.750066 
L 363.951146 159.061772 
L 363.22254 159.470257 
L 362.497882 160.74225 
L 361.029709 161.444199 
L 360.664146 161.965792 
L 360.301868 162.690738 
L 359.208993 163.305812 
L 358.4891 163.757153 
L 358.124558 164.512935 
L 357.766348 164.894873 
L 356.300949 165.662755 
L 355.56962 166.884325 
L 353.725537 167.88936 
L 353.365012 168.725431 
L 352.996113 169.051927 
L 352.256411 169.256847 
L 351.521269 169.512039 
L 350.791982 170.840849 
L 349.680726 171.309723 
L 349.307403 171.485415 
L 348.938573 171.856285 
L 348.569811 172.631168 
L 348.196249 172.922751 
L 346.728349 173.481736 
L 345.999742 174.808604 
L 345.264124 175.001202 
L 344.155251 175.497057 
L 343.788395 176.427985 
L 343.41725 176.760431 
L 342.68735 176.923082 
L 341.950711 177.200288 
L 341.211825 178.528411 
L 339.728336 178.979579 
L 339.359063 179.457103 
L 339.000784 180.296816 
L 338.640872 180.496779 
L 337.898446 180.697237 
L 337.176511 180.921056 
L 336.804482 181.729932 
L 336.431158 182.114501 
L 334.976532 182.527376 
L 334.246565 183.726122 
L 333.144567 184.137015 
L 332.42059 184.492183 
L 332.058499 185.27176 
L 330.24025 185.959991 
L 329.870399 186.804803 
L 329.511508 187.113928 
L 328.780247 187.305454 
L 328.418088 187.486387 
L 328.05906 187.518721 
L 327.336513 188.680074 
L 325.867455 189.158488 
L 325.501688 189.493442 
L 325.131973 190.152101 
L 323.299054 190.86228 
L 322.927297 191.62308 
L 322.204749 191.943041 
L 321.472126 192.196655 
L 321.103704 192.314604 
L 320.742907 193.101951 
L 320.37183 193.460215 
L 319.270241 193.787177 
L 318.909172 193.756877 
L 318.186692 194.868206 
L 317.094769 195.227432 
L 316.723761 195.278088 
L 316.354318 195.597097 
L 315.983037 196.325442 
L 314.149642 196.982184 
L 313.780607 197.758523 
L 313.051048 198.075449 
L 311.959211 198.32798 
L 311.602021 198.971383 
L 311.230332 199.397188 
L 309.766856 199.778979 
L 309.404425 200.194283 
L 309.046555 200.831493 
L 308.68283 201.028249 
L 307.218129 201.196192 
L 306.496535 202.43063 
L 305.01427 202.6485 
L 304.654358 202.942198 
L 304.289544 203.614373 
L 303.182713 203.996685 
L 302.462888 204.223346 
L 302.094467 204.982366 
L 301.36552 205.285887 
L 300.634667 205.543952 
L 300.276865 205.472541 
L 299.543697 206.505286 
L 298.085668 206.862903 
L 297.721126 207.182307 
L 297.347667 207.749346 
L 296.615725 207.995483 
L 295.521828 208.344015 
L 295.164571 208.883131 
L 294.803161 209.146416 
L 293.6949 209.557724 
L 293.331039 209.747286 
L 292.964047 210.308417 
L 291.123436 210.966013 
L 290.757942 211.645958 
L 289.657442 211.853246 
L 288.93646 212.024259 
L 288.57505 212.7471 
L 288.217588 213.032906 
L 286.765004 213.248955 
L 286.025302 214.299274 
L 284.565417 214.493824 
L 284.203394 214.937971 
L 283.840078 215.611765 
L 283.477443 215.729993 
L 282.738148 215.68781 
L 281.998378 215.828017 
L 281.632747 216.562917 
L 280.90169 216.859396 
L 279.816847 217.032261 
L 279.455437 217.71949 
L 278.714782 218.080673 
L 277.621634 218.158715 
L 277.256071 218.770148 
L 276.886849 219.14594 
L 276.51516 219.312344 
L 275.408397 219.385541 
L 275.047668 219.756102 
L 274.677 220.343092 
L 274.316066 220.460834 
L 273.587664 220.498611 
L 273.218289 220.497139 
L 272.850208 220.61009 
L 272.491929 221.3683 
L 271.764344 221.582184 
L 270.679569 221.7046 
L 270.307335 222.356137 
L 269.932991 222.655439 
L 268.459372 222.882596 
L 268.100753 223.383672 
L 267.728281 223.661946 
L 266.252348 224.095784 
L 265.881611 224.602768 
L 265.14327 224.906036 
L 264.410375 225.059036 
L 264.050599 225.266425 
L 263.693614 225.767662 
L 262.969296 225.852681 
L 261.872949 226.209493 
L 261.502757 226.902792 
L 261.128685 227.062748 
L 260.402461 227.018541 
L 259.673991 227.202808 
L 259.306795 227.801412 
L 258.576742 228.056189 
L 257.480939 228.265682 
L 257.114015 228.790715 
L 256.379826 229.120095 
L 255.644889 229.280854 
L 255.282117 229.493671 
L 254.567398 230.077868 
L 253.453419 230.368328 
L 253.089763 230.630784 
L 252.73162 231.039754 
L 250.900267 231.552409 
L 250.540832 232.024995 
L 249.801469 232.142661 
L 249.070616 232.390099 
L 247.965215 233.139853 
L 247.228235 233.294894 
L 246.857363 233.388292 
L 246.133658 234.134402 
L 245.4058 234.262711 
L 244.679168 234.386923 
L 243.955531 235.04546 
L 243.222228 235.188601 
L 242.488039 235.499113 
L 242.12765 235.896428 
L 241.385429 236.245673 
L 240.278921 236.515074 
L 239.904917 236.973901 
L 236.954957 238.050117 
L 236.218385 238.306564 
L 235.489507 238.878418 
L 234.403983 239.070371 
L 234.037944 239.19134 
L 233.295791 239.740219 
L 232.553229 239.833157 
L 231.824078 240.031465 
L 231.460966 240.432949 
L 230.724531 240.759365 
L 229.627367 241.056558 
L 229.262621 241.428702 
L 227.788798 241.758406 
L 227.427047 241.953745 
L 227.056107 242.376394 
L 225.234693 242.876881 
L 224.865931 243.349143 
L 224.137529 243.486912 
L 223.407493 243.573567 
L 223.038101 243.796348 
L 222.67601 244.225391 
L 221.56278 244.443992 
L 221.196673 244.473397 
L 220.835603 244.682633 
L 220.469224 245.131343 
L 218.267203 245.845974 
L 216.4411 246.580389 
L 215.712153 246.879954 
L 214.988244 247.009973 
L 210.576765 249.042907 
L 209.473678 249.349671 
L 208.383866 250.118038 
L 207.640079 250.189143 
L 206.900716 250.347457 
L 206.169455 250.902983 
L 205.070614 251.026997 
L 204.712268 251.135098 
L 203.983185 251.729169 
L 202.514944 251.991309 
L 202.152717 252.334681 
L 200.323474 252.92144 
L 199.957776 253.315741 
L 199.227195 253.383578 
L 198.486471 253.475835 
L 198.127852 253.760608 
L 197.7644 254.24107 
L 197.399246 254.186092 
L 196.295606 254.339156 
L 195.564208 255.120092 
L 194.832266 255.137198 
L 194.108902 255.115175 
L 193.385741 255.918057 
L 192.652438 255.931253 
L 191.923627 256.036875 
L 191.552482 256.466148 
L 191.185082 256.621555 
L 189.718951 256.71602 
L 189.358903 257.341536 
L 187.522648 257.520632 
L 187.164063 258.172219 
L 186.052876 258.198483 
L 185.330804 258.351116 
L 184.960545 259.03276 
L 184.213626 259.031293 
L 183.488355 259.125296 
L 183.128239 259.243972 
L 182.768599 259.882073 
L 182.03795 259.941064 
L 181.301379 259.877028 
L 180.936293 259.930795 
L 180.579035 260.501557 
L 180.214834 260.65685 
L 178.734067 260.708411 
L 178.370275 261.207652 
L 178.007503 261.38428 
L 176.562612 261.489197 
L 175.840541 262.183407 
L 174.743853 262.248237 
L 174.370462 262.284956 
L 173.637294 262.949315 
L 172.903991 262.897005 
L 172.183758 262.937751 
L 171.459576 263.777645 
L 170.729404 263.746943 
L 169.993241 263.803237 
L 168.902731 264.604537 
L 168.166977 264.599953 
L 167.793926 264.6093 
L 167.433401 264.778012 
L 167.075735 265.179374 
L 166.342295 265.283071 
L 165.609536 265.299458 
L 165.243225 265.391018 
L 164.885423 265.849683 
L 164.511351 266.052386 
L 163.056249 266.07193 
L 162.329208 266.83186 
L 160.863145 266.800237 
L 160.49743 267.014778 
L 160.134181 267.546083 
L 159.396521 267.456672 
L 158.668391 267.483668 
L 158.305824 267.575257 
L 157.940738 268.174509 
L 157.582527 268.439778 
L 156.840238 268.233831 
L 156.119732 268.346604 
L 155.391875 269.092795 
L 154.657346 269.07832 
L 153.916962 269.088179 
L 153.176103 269.750258 
L 152.449879 269.826266 
L 151.717937 269.901748 
L 150.989628 270.421396 
L 150.251423 270.561193 
L 149.527718 270.593455 
L 148.800677 271.20076 
L 147.699905 271.452143 
L 147.340605 271.353739 
L 146.981714 271.403884 
L 146.263655 271.85565 
L 142.567912 272.962286 
L 141.833179 273.434083 
L 141.460264 273.364587 
L 140.358471 273.50949 
L 139.623737 274.11647 
L 138.151956 274.161931 
L 137.782241 274.311583 
L 137.414568 274.663413 
L 137.054179 274.767949 
L 136.339528 274.811253 
L 135.602549 275.059413 
L 135.240798 275.330995 
L 134.866522 275.426688 
L 134.128862 275.423676 
L 133.412905 275.758715 
L 133.041351 276.191642 
L 132.683549 276.345618 
L 131.224158 276.376744 
L 130.47969 277.010332 
L 129.37565 276.904146 
L 129.017031 276.967802 
L 127.917961 277.671929 
L 127.170089 277.604018 
L 126.808747 277.659559 
L 126.446725 277.842475 
L 126.07592 278.230807 
L 125.705933 278.366569 
L 124.611479 278.395321 
L 124.25252 278.52668 
L 123.525751 279.029456 
L 122.423617 279.081579 
L 121.692765 279.412972 
L 121.332171 279.668933 
L 120.599549 279.772932 
L 119.856306 279.826414 
L 118.409917 280.396788 
L 116.957538 280.660119 
L 116.229884 281.135072 
L 115.502159 281.257308 
L 114.771986 281.288816 
L 112.928448 281.92921 
L 112.192013 282.055716 
L 111.468648 282.595884 
L 110.005034 282.738534 
L 109.637974 282.889419 
L 109.272548 283.225385 
L 108.909436 283.311228 
L 108.172456 283.22414 
L 107.801856 283.274786 
L 107.429418 283.471722 
L 107.069778 283.819261 
L 105.967333 283.842367 
L 105.237093 283.96695 
L 104.873096 284.444474 
L 104.515975 284.521945 
L 103.800779 284.410569 
L 103.074692 284.530026 
L 102.354118 285.239067 
L 100.871922 285.000211 
L 100.507925 285.241002 
L 100.138754 285.71027 
L 98.679636 285.674802 
L 98.322242 285.724553 
L 97.951767 286.237325 
L 96.121708 286.28762 
L 95.761047 286.698411 
L 95.391195 286.875965 
L 94.666742 286.762991 
L 93.922886 286.872053 
L 93.194212 287.475342 
L 92.467443 287.368868 
L 91.737612 287.391532 
L 91.373615 287.592224 
L 91.013294 288.079702 
L 89.183235 287.942838 
L 88.824069 288.483746 
L 88.460412 288.673984 
L 87.71894 288.468534 
L 86.990538 288.385563 
L 86.62198 288.685923 
L 86.255532 289.224634 
L 84.424247 289.014666 
L 83.691556 289.788943 
L 83.320547 289.612461 
L 82.592281 289.578888 
L 81.86313 289.63894 
L 81.50526 290.227265 
L 81.139698 290.292644 
L 80.419601 290.070172 
L 79.6844 290.029051 
L 78.956952 290.775116 
L 78.216977 290.415678 
L 77.137716 290.39689 
L 76.766912 291.06 
L 76.401962 290.95644 
L 75.202787 290.037546 
L 75.09642 290.3621 
L 75.026277 288.749782 
L 75.026277 288.749782 
" clip-path="url(#pc1859dab79)" style="fill: none; stroke: #ff0000; stroke-width: 2; stroke-linecap: square"/>
   </g>
   <g id="line2d_30">
    <path d="M 75.104416 275.784204 
L 75.104436 275.875973 
L 75.105765 275.7588 
L 75.113098 275.79453 
L 75.480039 274.54475 
L 75.844308 274.823288 
L 76.203744 274.603789 
L 76.562907 274.76711 
L 76.938409 276.795461 
L 77.660956 276.841686 
L 78.033327 277.375136 
L 78.776025 276.580565 
L 79.137435 276.666601 
L 79.500274 275.820818 
L 79.858757 275.478822 
L 81.326998 276.020244 
L 81.688612 276.006338 
L 82.419125 275.756893 
L 83.860953 275.80445 
L 84.970643 275.744859 
L 86.067521 275.846609 
L 89.759635 275.605694 
L 91.224608 275.491325 
L 91.95621 275.251377 
L 95.256284 274.733535 
L 98.905374 273.725216 
L 99.647936 273.48003 
L 100.376134 273.37557 
L 106.172322 271.411563 
L 107.286165 270.94705 
L 108.748143 270.437303 
L 110.213389 269.846592 
L 110.574186 269.772485 
L 112.410223 268.886236 
L 113.496427 268.649948 
L 114.599038 267.997966 
L 114.973178 267.965684 
L 117.885561 266.727563 
L 119.33515 266.083574 
L 120.06219 265.783159 
L 120.796787 265.362675 
L 128.893688 261.818251 
L 129.621818 261.443405 
L 130.34734 261.264687 
L 131.077784 260.943411 
L 131.813879 260.434686 
L 133.263195 259.822546 
L 136.604178 258.315554 
L 138.443292 257.63306 
L 139.907359 256.867897 
L 143.522821 255.25576 
L 144.247955 254.785804 
L 144.975541 254.685482 
L 145.700743 254.39681 
L 146.792262 253.707315 
L 148.260264 253.10299 
L 149.004868 252.706119 
L 152.309227 251.298315 
L 153.055737 251.002028 
L 154.150111 250.487153 
L 155.984731 249.634247 
L 156.705645 249.255102 
L 157.440668 248.983718 
L 162.19196 246.770599 
L 162.91301 246.457457 
L 164.750218 245.494139 
L 165.486244 245.216644 
L 166.945891 244.483815 
L 168.404669 243.950992 
L 169.145597 243.49692 
L 172.048246 242.056519 
L 172.406933 241.803958 
L 173.145546 241.548736 
L 183.387085 236.54824 
L 183.760604 236.344392 
L 184.488462 236.152986 
L 185.955341 235.409638 
L 186.683743 235.108312 
L 187.782542 234.473004 
L 188.889441 234.075658 
L 194.369833 231.19367 
L 194.743156 231.105753 
L 196.203773 230.376194 
L 198.018447 229.363763 
L 198.761145 228.912099 
L 200.936004 227.871907 
L 201.65754 227.581832 
L 202.386486 227.230194 
L 203.480043 226.591122 
L 204.939978 225.994582 
L 206.037075 225.278985 
L 207.129678 224.902976 
L 208.614802 224.009501 
L 211.140247 222.584028 
L 211.874231 222.309391 
L 213.72696 221.395885 
L 214.822967 220.811161 
L 215.918157 220.019808 
L 217.767141 219.080543 
L 218.507388 218.552232 
L 220.335967 217.830529 
L 221.078937 217.339834 
L 223.618134 216.009283 
L 224.718225 215.371385 
L 225.806472 214.669547 
L 230.212726 212.391476 
L 231.326977 211.692107 
L 232.072671 211.331577 
L 234.269858 210.143717 
L 238.988577 207.457116 
L 240.081997 206.929736 
L 243.401061 204.931988 
L 244.51572 204.326383 
L 245.968712 203.384873 
L 247.045182 202.941075 
L 249.616646 201.284392 
L 250.350766 200.933129 
L 251.453989 200.202963 
L 252.182664 199.730053 
L 253.269549 199.213802 
L 254.014697 198.752101 
L 256.578282 197.209817 
L 257.685453 196.564877 
L 265.675565 191.622519 
L 266.775453 190.937617 
L 267.523052 190.487409 
L 269.704583 188.963907 
L 270.815566 188.22411 
L 271.911437 187.727243 
L 272.281833 187.498881 
L 273.016362 186.843055 
L 274.84666 185.742768 
L 275.589766 185.19135 
L 276.680055 184.653934 
L 277.789541 183.890949 
L 278.535642 183.41294 
L 282.936519 180.573769 
L 285.823034 178.601152 
L 286.929116 177.856863 
L 288.76115 176.554721 
L 290.250221 175.592066 
L 295.382938 172.007909 
L 296.817822 171.023846 
L 297.536558 170.526655 
L 298.282523 169.881432 
L 299.397591 169.276474 
L 301.585249 167.693525 
L 302.312289 167.172377 
L 303.788836 165.997042 
L 304.87749 165.364404 
L 306.340898 164.095567 
L 307.805055 163.029112 
L 308.544213 162.398376 
L 309.263272 161.972783 
L 311.46645 160.227516 
L 312.198937 159.708675 
L 312.944766 159.068065 
L 316.961053 156.158247 
L 320.632251 153.270505 
L 322.097088 152.188064 
L 323.195478 151.198701 
L 323.926876 150.723767 
L 325.751489 149.142072 
L 326.479755 148.748155 
L 331.220853 144.781595 
L 332.674799 143.570061 
L 333.407694 143.034951 
L 334.86586 141.783921 
L 338.183085 139.180487 
L 343.658219 134.452964 
L 344.378996 133.939222 
L 345.811141 132.52385 
L 356.738654 122.871341 
L 358.200904 121.484337 
L 362.57593 117.482691 
L 365.51442 114.619098 
L 367.33951 112.832432 
L 368.770854 111.547165 
L 369.514641 110.870053 
L 373.525993 106.878979 
L 375.700035 104.718074 
L 377.154933 103.197607 
L 380.465011 99.716542 
L 383.787035 96.403055 
L 384.876643 95.283545 
L 388.152275 91.840278 
L 392.164035 87.418147 
L 393.266305 86.1795 
L 394.724743 84.652072 
L 397.661089 81.276305 
L 400.213934 78.501287 
L 414.824185 61.290936 
L 416.287558 59.323884 
L 419.561079 55.152028 
L 431.200334 39.983111 
L 431.91815 39.46 
L 432.144091 40.933868 
L 432.012434 49.06935 
L 432.012502 71.507308 
L 431.651909 71.730611 
L 431.287674 72.42554 
L 430.916937 73.397654 
L 430.557229 73.923981 
L 430.198815 74.156916 
L 429.455027 75.051099 
L 428.359837 76.421672 
L 427.987603 76.761118 
L 427.251441 78.692256 
L 426.126978 80.98971 
L 425.752157 81.970333 
L 425.383327 82.613937 
L 425.015042 82.818463 
L 424.65193 83.224277 
L 423.198461 85.368438 
L 422.834396 86.858473 
L 422.092992 88.145844 
L 420.630061 90.050111 
L 417.325123 95.753157 
L 416.5925 96.624759 
L 415.85729 97.487053 
L 415.124667 99.376104 
L 413.659149 101.040071 
L 412.551502 103.059671 
L 411.44787 104.384354 
L 410.700781 105.950388 
L 409.243705 107.534552 
L 408.505976 109.068292 
L 407.420044 110.330573 
L 407.057477 110.656017 
L 406.320225 112.159326 
L 405.59618 112.96974 
L 404.867369 113.622571 
L 403.394703 115.9057 
L 402.295769 117.167252 
L 401.936435 117.964393 
L 401.216542 118.83219 
L 400.122442 119.974928 
L 399.398805 121.299368 
L 397.921033 122.7321 
L 396.817197 124.401409 
L 396.095875 125.047765 
L 395.734533 125.43634 
L 394.641589 127.081611 
L 393.896032 127.780575 
L 393.525092 128.168826 
L 392.800706 129.499761 
L 391.7096 130.315922 
L 391.349552 130.614171 
L 390.988278 131.144951 
L 390.61795 132.09417 
L 389.895743 132.749915 
L 388.799804 133.665121 
L 388.074057 135.036504 
L 387.346608 135.496586 
L 386.627532 136.063382 
L 385.537583 137.813323 
L 384.798561 138.256934 
L 384.430548 138.561052 
L 384.059437 139.072458 
L 383.69687 139.850578 
L 383.339204 140.255825 
L 382.236934 140.943935 
L 381.865109 141.331751 
L 381.499478 142.221239 
L 381.132554 142.740769 
L 379.670848 143.609659 
L 378.950275 144.919692 
L 377.12076 146.339434 
L 376.747028 147.10768 
L 376.383508 147.458134 
L 375.636862 147.880621 
L 374.911999 148.311727 
L 374.181691 149.663038 
L 372.720666 150.546699 
L 372.350474 151.134457 
L 371.982461 151.977165 
L 371.612542 152.25079 
L 371.25365 152.348885 
L 370.532736 152.78251 
L 370.169148 152.904026 
L 369.447077 154.319357 
L 368.713092 154.610343 
L 367.62151 155.49452 
L 367.254995 156.409099 
L 365.425922 157.419961 
L 365.057433 158.340206 
L 364.683633 158.750066 
L 363.951146 159.061772 
L 363.22254 159.470257 
L 362.497882 160.74225 
L 361.029709 161.444199 
L 360.664146 161.965792 
L 360.301868 162.690738 
L 359.208993 163.305812 
L 358.4891 163.757153 
L 358.124558 164.512935 
L 357.766348 164.894873 
L 356.300949 165.662755 
L 355.56962 166.884325 
L 353.725537 167.88936 
L 353.365012 168.725431 
L 352.996113 169.051927 
L 352.256411 169.256847 
L 351.521269 169.512039 
L 350.791982 170.840849 
L 349.680726 171.309723 
L 349.307403 171.485415 
L 348.938573 171.856285 
L 348.569811 172.631168 
L 348.196249 172.922751 
L 346.728349 173.481736 
L 345.999742 174.808604 
L 345.264124 175.001202 
L 344.155251 175.497057 
L 343.788395 176.427985 
L 343.41725 176.760431 
L 342.68735 176.923082 
L 341.950711 177.200288 
L 341.211825 178.528411 
L 339.728336 178.979579 
L 339.359063 179.457103 
L 339.000784 180.296816 
L 338.640872 180.496779 
L 337.898446 180.697237 
L 337.176511 180.921056 
L 336.804482 181.729932 
L 336.431158 182.114501 
L 334.976532 182.527376 
L 334.246565 183.726122 
L 333.144567 184.137015 
L 332.42059 184.492183 
L 332.058499 185.27176 
L 330.24025 185.959991 
L 329.870399 186.804803 
L 329.511508 187.113928 
L 328.780247 187.305454 
L 328.418088 187.486387 
L 328.05906 187.518721 
L 327.336513 188.680074 
L 325.867455 189.158488 
L 325.501688 189.493442 
L 325.131973 190.152101 
L 323.299054 190.86228 
L 322.927297 191.62308 
L 322.204749 191.943041 
L 321.472126 192.196655 
L 321.103704 192.314604 
L 320.742907 193.101951 
L 320.37183 193.460215 
L 319.270241 193.787177 
L 318.909172 193.756877 
L 318.186692 194.868206 
L 317.094769 195.227432 
L 316.723761 195.278088 
L 316.354318 195.597097 
L 315.983037 196.325442 
L 314.149642 196.982184 
L 313.780607 197.758523 
L 313.051048 198.075449 
L 311.959211 198.32798 
L 311.602021 198.971383 
L 311.230332 199.397188 
L 309.766856 199.778979 
L 309.404425 200.194283 
L 309.046555 200.831493 
L 308.68283 201.028249 
L 307.218129 201.196192 
L 306.496535 202.43063 
L 305.01427 202.6485 
L 304.654358 202.942198 
L 304.289544 203.614373 
L 303.182713 203.996685 
L 302.462888 204.223346 
L 302.094467 204.982366 
L 301.36552 205.285887 
L 300.634667 205.543952 
L 300.276865 205.472541 
L 299.543697 206.505286 
L 298.085668 206.862903 
L 297.721126 207.182307 
L 297.347667 207.749346 
L 296.615725 207.995483 
L 295.521828 208.344015 
L 295.164571 208.883131 
L 294.803161 209.146416 
L 293.6949 209.557724 
L 293.331039 209.747286 
L 292.964047 210.308417 
L 291.123436 210.966013 
L 290.757942 211.645958 
L 289.657442 211.853246 
L 288.93646 212.024259 
L 288.57505 212.7471 
L 288.217588 213.032906 
L 286.765004 213.248955 
L 286.025302 214.299274 
L 284.565417 214.493824 
L 284.203394 214.937971 
L 283.840078 215.611765 
L 283.477443 215.729993 
L 282.738148 215.68781 
L 281.998378 215.828017 
L 281.632747 216.562917 
L 280.90169 216.859396 
L 279.816847 217.032261 
L 279.455437 217.71949 
L 278.714782 218.080673 
L 277.621634 218.158715 
L 277.256071 218.770148 
L 276.886849 219.14594 
L 276.51516 219.312344 
L 275.408397 219.385541 
L 275.047668 219.756102 
L 274.677 220.343092 
L 274.316066 220.460834 
L 273.587664 220.498611 
L 273.218289 220.497139 
L 272.850208 220.61009 
L 272.491929 221.3683 
L 271.764344 221.582184 
L 270.679569 221.7046 
L 270.307335 222.356137 
L 269.932991 222.655439 
L 268.459372 222.882596 
L 268.100753 223.383672 
L 267.728281 223.661946 
L 266.252348 224.095784 
L 265.881611 224.602768 
L 265.14327 224.906036 
L 264.410375 225.059036 
L 264.050599 225.266425 
L 263.693614 225.767662 
L 262.969296 225.852681 
L 261.872949 226.209493 
L 261.502757 226.902792 
L 261.128685 227.062748 
L 260.402461 227.018541 
L 259.673991 227.202808 
L 259.306795 227.801412 
L 258.576742 228.056189 
L 257.480939 228.265682 
L 257.114015 228.790715 
L 256.379826 229.120095 
L 255.644889 229.280854 
L 255.282117 229.493671 
L 254.567398 230.077868 
L 253.453419 230.368328 
L 253.089763 230.630784 
L 252.73162 231.039754 
L 250.900267 231.552409 
L 250.540832 232.024995 
L 249.801469 232.142661 
L 249.070616 232.390099 
L 247.965215 233.139853 
L 247.228235 233.294894 
L 246.857363 233.388292 
L 246.133658 234.134402 
L 245.4058 234.262711 
L 244.679168 234.386923 
L 243.955531 235.04546 
L 243.222228 235.188601 
L 242.488039 235.499113 
L 242.12765 235.896428 
L 241.385429 236.245673 
L 240.278921 236.515074 
L 239.904917 236.973901 
L 236.954957 238.050117 
L 236.218385 238.306564 
L 235.489507 238.878418 
L 234.403983 239.070371 
L 234.037944 239.19134 
L 233.295791 239.740219 
L 232.553229 239.833157 
L 231.824078 240.031465 
L 231.460966 240.432949 
L 230.724531 240.759365 
L 229.627367 241.056558 
L 229.262621 241.428702 
L 227.788798 241.758406 
L 227.427047 241.953745 
L 227.056107 242.376394 
L 225.234693 242.876881 
L 224.865931 243.349143 
L 224.137529 243.486912 
L 223.407493 243.573567 
L 223.038101 243.796348 
L 222.67601 244.225391 
L 221.56278 244.443992 
L 221.196673 244.473397 
L 220.835603 244.682633 
L 220.469224 245.131343 
L 218.267203 245.845974 
L 216.4411 246.580389 
L 215.712153 246.879954 
L 214.988244 247.009973 
L 210.576765 249.042907 
L 209.473678 249.349671 
L 208.383866 250.118038 
L 207.640079 250.189143 
L 206.900716 250.347457 
L 206.169455 250.902983 
L 205.070614 251.026997 
L 204.712268 251.135098 
L 203.983185 251.729169 
L 202.514944 251.991309 
L 202.152717 252.334681 
L 200.323474 252.92144 
L 199.957776 253.315741 
L 199.227195 253.383578 
L 198.486471 253.475835 
L 198.127852 253.760608 
L 197.7644 254.24107 
L 197.399246 254.186092 
L 196.295606 254.339156 
L 195.564208 255.120092 
L 194.832266 255.137198 
L 194.108902 255.115175 
L 193.385741 255.918057 
L 192.652438 255.931253 
L 191.923627 256.036875 
L 191.552482 256.466148 
L 191.185082 256.621555 
L 189.718951 256.71602 
L 189.358903 257.341536 
L 187.522648 257.520632 
L 187.164063 258.172219 
L 186.052876 258.198483 
L 185.330804 258.351116 
L 184.960545 259.03276 
L 184.213626 259.031293 
L 183.488355 259.125296 
L 183.128239 259.243972 
L 182.768599 259.882073 
L 182.03795 259.941064 
L 181.301379 259.877028 
L 180.936293 259.930795 
L 180.579035 260.501557 
L 180.214834 260.65685 
L 178.734067 260.708411 
L 178.370275 261.207652 
L 178.007503 261.38428 
L 176.562612 261.489197 
L 175.840541 262.183407 
L 174.743853 262.248237 
L 174.370462 262.284956 
L 173.637294 262.949315 
L 172.903991 262.897005 
L 172.183758 262.937751 
L 171.459576 263.777645 
L 170.729404 263.746943 
L 169.993241 263.803237 
L 168.902731 264.604537 
L 168.166977 264.599953 
L 167.793926 264.6093 
L 167.433401 264.778012 
L 167.075735 265.179374 
L 166.342295 265.283071 
L 165.609536 265.299458 
L 165.243225 265.391018 
L 164.885423 265.849683 
L 164.511351 266.052386 
L 163.056249 266.07193 
L 162.329208 266.83186 
L 160.863145 266.800237 
L 160.49743 267.014778 
L 160.134181 267.546083 
L 159.396521 267.456672 
L 158.668391 267.483668 
L 158.305824 267.575257 
L 157.940738 268.174509 
L 157.582527 268.439778 
L 156.840238 268.233831 
L 156.119732 268.346604 
L 155.391875 269.092795 
L 154.657346 269.07832 
L 153.916962 269.088179 
L 153.176103 269.750258 
L 152.449879 269.826266 
L 151.717937 269.901748 
L 150.989628 270.421396 
L 150.251423 270.561193 
L 149.527718 270.593455 
L 148.800677 271.20076 
L 147.699905 271.452143 
L 147.340605 271.353739 
L 146.981714 271.403884 
L 146.263655 271.85565 
L 142.567912 272.962286 
L 141.833179 273.434083 
L 141.460264 273.364587 
L 140.358471 273.50949 
L 139.623737 274.11647 
L 138.151956 274.161931 
L 137.782241 274.311583 
L 137.414568 274.663413 
L 137.054179 274.767949 
L 136.339528 274.811253 
L 135.602549 275.059413 
L 135.240798 275.330995 
L 134.866522 275.426688 
L 134.128862 275.423676 
L 133.412905 275.758715 
L 133.041351 276.191642 
L 132.683549 276.345618 
L 131.224158 276.376744 
L 130.47969 277.010332 
L 129.37565 276.904146 
L 129.017031 276.967802 
L 127.917961 277.671929 
L 127.170089 277.604018 
L 126.808747 277.659559 
L 126.446725 277.842475 
L 126.07592 278.230807 
L 125.705933 278.366569 
L 124.611479 278.395321 
L 124.25252 278.52668 
L 123.525751 279.029456 
L 122.423617 279.081579 
L 121.692765 279.412972 
L 121.332171 279.668933 
L 120.599549 279.772932 
L 119.856306 279.826414 
L 118.409917 280.396788 
L 116.957538 280.660119 
L 116.229884 281.135072 
L 115.502159 281.257308 
L 114.771986 281.288816 
L 112.928448 281.92921 
L 112.192013 282.055716 
L 111.468648 282.595884 
L 110.005034 282.738534 
L 109.637974 282.889419 
L 109.272548 283.225385 
L 108.909436 283.311228 
L 108.172456 283.22414 
L 107.801856 283.274786 
L 107.429418 283.471722 
L 107.069778 283.819261 
L 105.967333 283.842367 
L 105.237093 283.96695 
L 104.873096 284.444474 
L 104.515975 284.521945 
L 103.800779 284.410569 
L 103.074692 284.530026 
L 102.354118 285.239067 
L 100.871922 285.000211 
L 100.507925 285.241002 
L 100.138754 285.71027 
L 98.679636 285.674802 
L 98.322242 285.724553 
L 97.951767 286.237325 
L 96.121708 286.28762 
L 95.761047 286.698411 
L 95.391195 286.875965 
L 94.666742 286.762991 
L 93.922886 286.872053 
L 93.194212 287.475342 
L 92.467443 287.368868 
L 91.737612 287.391532 
L 91.373615 287.592224 
L 91.013294 288.079702 
L 89.183235 287.942838 
L 88.824069 288.483746 
L 88.460412 288.673984 
L 87.71894 288.468534 
L 86.990538 288.385563 
L 86.62198 288.685923 
L 86.255532 289.224634 
L 84.424247 289.014666 
L 83.691556 289.788943 
L 83.320547 289.612461 
L 82.592281 289.578888 
L 81.86313 289.63894 
L 81.50526 290.227265 
L 81.139698 290.292644 
L 80.419601 290.070172 
L 79.6844 290.029051 
L 78.956952 290.775116 
L 78.216977 290.415678 
L 77.137716 290.39689 
L 76.766912 291.06 
L 76.401962 290.95644 
L 75.202787 290.037546 
L 75.09642 290.3621 
L 75.026277 288.749782 
L 75.026277 288.749782 
" clip-path="url(#pc1859dab79)" style="fill: none; stroke: #000000; stroke-width: 2; stroke-linecap: square"/>
   </g>
   <g id="patch_3">
    <path d="M 57.17 303.64 
L 57.17 26.88 
" style="fill: none; stroke: #000000; stroke-width: 0.8; stroke-linejoin: miter; stroke-linecap: square"/>
   </g>
   <g id="patch_4">
    <path d="M 450 303.64 
L 450 26.88 
" style="fill: none; stroke: #000000; stroke-width: 0.8; stroke-linejoin: miter; stroke-linecap: square"/>
   </g>
   <g id="patch_5">
    <path d="M 57.17 303.64 
L 450 303.64 
" style="fill: none; stroke: #000000; stroke-width: 0.8; stroke-linejoin: miter; stroke-linecap: square"/>
   </g>
   <g id="patch_6">
    <path d="M 57.17 26.88 
L 450 26.88 
" style="fill: none; stroke: #000000; stroke-width: 0.8; stroke-linejoin: miter; stroke-linecap: square"/>
   </g>
   <g id="text_17">
    <!-- 2025-06-16 Trial 22 - Stress vs Strain -->
    <g transform="translate(142.330938 20.88) scale(0.12 -0.12)">
     <defs>
      <path id="DejaVuSans-36" d="M 2113 2584 
Q 1688 2584 1439 2293 
Q 1191 2003 1191 1497 
Q 1191 994 1439 701 
Q 1688 409 2113 409 
Q 2538 409 2786 701 
Q 3034 994 3034 1497 
Q 3034 2003 2786 2293 
Q 2538 2584 2113 2584 
z
M 3366 4563 
L 3366 3988 
Q 3128 4100 2886 4159 
Q 2644 4219 2406 4219 
Q 1781 4219 1451 3797 
Q 1122 3375 1075 2522 
Q 1259 2794 1537 2939 
Q 1816 3084 2150 3084 
Q 2853 3084 3261 2657 
Q 3669 2231 3669 1497 
Q 3669 778 3244 343 
Q 2819 -91 2113 -91 
Q 1303 -91 875 529 
Q 447 1150 447 2328 
Q 447 3434 972 4092 
Q 1497 4750 2381 4750 
Q 2619 4750 2861 4703 
Q 3103 4656 3366 4563 
z
" transform="scale(0.015625)"/>
      <path id="DejaVuSans-54" d="M -19 4666 
L 3928 4666 
L 3928 4134 
L 2272 4134 
L 2272 0 
L 1638 0 
L 1638 4134 
L -19 4134 
L -19 4666 
z
" transform="scale(0.015625)"/>
      <path id="DejaVuSans-6c" d="M 603 4863 
L 1178 4863 
L 1178 0 
L 603 0 
L 603 4863 
z
" transform="scale(0.015625)"/>
      <path id="DejaVuSans-76" d="M 191 3500 
L 800 3500 
L 1894 563 
L 2988 3500 
L 3597 3500 
L 2284 0 
L 1503 0 
L 191 3500 
z
" transform="scale(0.015625)"/>
     </defs>
     <use xlink:href="#DejaVuSans-32"/>
     <use xlink:href="#DejaVuSans-30" transform="translate(63.623047 0)"/>
     <use xlink:href="#DejaVuSans-32" transform="translate(127.246094 0)"/>
     <use xlink:href="#DejaVuSans-35" transform="translate(190.869141 0)"/>
     <use xlink:href="#DejaVuSans-2d" transform="translate(254.492188 0)"/>
     <use xlink:href="#DejaVuSans-30" transform="translate(290.576172 0)"/>
     <use xlink:href="#DejaVuSans-36" transform="translate(354.199219 0)"/>
     <use xlink:href="#DejaVuSans-2d" transform="translate(417.822266 0)"/>
     <use xlink:href="#DejaVuSans-31" transform="translate(453.90625 0)"/>
     <use xlink:href="#DejaVuSans-36" transform="translate(517.529297 0)"/>
     <use xlink:href="#DejaVuSans-20" transform="translate(581.152344 0)"/>
     <use xlink:href="#DejaVuSans-54" transform="translate(612.939453 0)"/>
     <use xlink:href="#DejaVuSans-72" transform="translate(659.273438 0)"/>
     <use xlink:href="#DejaVuSans-69" transform="translate(700.386719 0)"/>
     <use xlink:href="#DejaVuSans-61" transform="translate(728.169922 0)"/>
     <use xlink:href="#DejaVuSans-6c" transform="translate(789.449219 0)"/>
     <use xlink:href="#DejaVuSans-20" transform="translate(817.232422 0)"/>
     <use xlink:href="#DejaVuSans-32" transform="translate(849.019531 0)"/>
     <use xlink:href="#DejaVuSans-32" transform="translate(912.642578 0)"/>
     <use xlink:href="#DejaVuSans-20" transform="translate(976.265625 0)"/>
     <use xlink:href="#DejaVuSans-2d" transform="translate(1008.052734 0)"/>
     <use xlink:href="#DejaVuSans-20" transform="translate(1044.136719 0)"/>
     <use xlink:href="#DejaVuSans-53" transform="translate(1075.923828 0)"/>
     <use xlink:href="#DejaVuSans-74" transform="translate(1139.400391 0)"/>
     <use xlink:href="#DejaVuSans-72" transform="translate(1178.609375 0)"/>
     <use xlink:href="#DejaVuSans-65" transform="translate(1217.472656 0)"/>
     <use xlink:href="#DejaVuSans-73" transform="translate(1278.996094 0)"/>
     <use xlink:href="#DejaVuSans-73" transform="translate(1331.095703 0)"/>
     <use xlink:href="#DejaVuSans-20" transform="translate(1383.195312 0)"/>
     <use xlink:href="#DejaVuSans-76" transform="translate(1414.982422 0)"/>
     <use xlink:href="#DejaVuSans-73" transform="translate(1474.162109 0)"/>
     <use xlink:href="#DejaVuSans-20" transform="translate(1526.261719 0)"/>
     <use xlink:href="#DejaVuSans-53" transform="translate(1558.048828 0)"/>
     <use xlink:href="#DejaVuSans-74" transform="translate(1621.525391 0)"/>
     <use xlink:href="#DejaVuSans-72" transform="translate(1660.734375 0)"/>
     <use xlink:href="#DejaVuSans-61" transform="translate(1701.847656 0)"/>
     <use xlink:href="#DejaVuSans-69" transform="translate(1763.126953 0)"/>
     <use xlink:href="#DejaVuSans-6e" transform="translate(1790.910156 0)"/>
    </g>
   </g>
   <g id="legend_1">
    <g id="patch_7">
     <path d="M 64.17 64.23625 
L 170.154375 64.23625 
Q 172.154375 64.23625 172.154375 62.23625 
L 172.154375 33.88 
Q 172.154375 31.88 170.154375 31.88 
L 64.17 31.88 
Q 62.17 31.88 62.17 33.88 
L 62.17 62.23625 
Q 62.17 64.23625 64.17 64.23625 
z
" style="fill: #ffffff; opacity: 0.8; stroke: #cccccc; stroke-linejoin: miter"/>
    </g>
    <g id="line2d_31">
     <path d="M 66.17 39.978437 
L 76.17 39.978437 
L 86.17 39.978437 
" style="fill: none; stroke: #ff0000; stroke-width: 2; stroke-linecap: square"/>
    </g>
    <g id="text_18">
     <!-- Raw Force -->
     <g transform="translate(94.17 43.478437) scale(0.1 -0.1)">
      <defs>
       <path id="DejaVuSans-52" d="M 2841 2188 
Q 3044 2119 3236 1894 
Q 3428 1669 3622 1275 
L 4263 0 
L 3584 0 
L 2988 1197 
Q 2756 1666 2539 1819 
Q 2322 1972 1947 1972 
L 1259 1972 
L 1259 0 
L 628 0 
L 628 4666 
L 2053 4666 
Q 2853 4666 3247 4331 
Q 3641 3997 3641 3322 
Q 3641 2881 3436 2590 
Q 3231 2300 2841 2188 
z
M 1259 4147 
L 1259 2491 
L 2053 2491 
Q 2509 2491 2742 2702 
Q 2975 2913 2975 3322 
Q 2975 3731 2742 3939 
Q 2509 4147 2053 4147 
L 1259 4147 
z
" transform="scale(0.015625)"/>
       <path id="DejaVuSans-77" d="M 269 3500 
L 844 3500 
L 1563 769 
L 2278 3500 
L 2956 3500 
L 3675 769 
L 4391 3500 
L 4966 3500 
L 4050 0 
L 3372 0 
L 2619 2869 
L 1863 0 
L 1184 0 
L 269 3500 
z
" transform="scale(0.015625)"/>
       <path id="DejaVuSans-46" d="M 628 4666 
L 3309 4666 
L 3309 4134 
L 1259 4134 
L 1259 2759 
L 3109 2759 
L 3109 2228 
L 1259 2228 
L 1259 0 
L 628 0 
L 628 4666 
z
" transform="scale(0.015625)"/>
       <path id="DejaVuSans-6f" d="M 1959 3097 
Q 1497 3097 1228 2736 
Q 959 2375 959 1747 
Q 959 1119 1226 758 
Q 1494 397 1959 397 
Q 2419 397 2687 759 
Q 2956 1122 2956 1747 
Q 2956 2369 2687 2733 
Q 2419 3097 1959 3097 
z
M 1959 3584 
Q 2709 3584 3137 3096 
Q 3566 2609 3566 1747 
Q 3566 888 3137 398 
Q 2709 -91 1959 -91 
Q 1206 -91 779 398 
Q 353 888 353 1747 
Q 353 2609 779 3096 
Q 1206 3584 1959 3584 
z
" transform="scale(0.015625)"/>
       <path id="DejaVuSans-63" d="M 3122 3366 
L 3122 2828 
Q 2878 2963 2633 3030 
Q 2388 3097 2138 3097 
Q 1578 3097 1268 2742 
Q 959 2388 959 1747 
Q 959 1106 1268 751 
Q 1578 397 2138 397 
Q 2388 397 2633 464 
Q 2878 531 3122 666 
L 3122 134 
Q 2881 22 2623 -34 
Q 2366 -91 2075 -91 
Q 1284 -91 818 406 
Q 353 903 353 1747 
Q 353 2603 823 3093 
Q 1294 3584 2113 3584 
Q 2378 3584 2631 3529 
Q 2884 3475 3122 3366 
z
" transform="scale(0.015625)"/>
      </defs>
      <use xlink:href="#DejaVuSans-52"/>
      <use xlink:href="#DejaVuSans-61" transform="translate(67.232422 0)"/>
      <use xlink:href="#DejaVuSans-77" transform="translate(128.511719 0)"/>
      <use xlink:href="#DejaVuSans-20" transform="translate(210.298828 0)"/>
      <use xlink:href="#DejaVuSans-46" transform="translate(242.085938 0)"/>
      <use xlink:href="#DejaVuSans-6f" transform="translate(295.980469 0)"/>
      <use xlink:href="#DejaVuSans-72" transform="translate(357.162109 0)"/>
      <use xlink:href="#DejaVuSans-63" transform="translate(396.025391 0)"/>
      <use xlink:href="#DejaVuSans-65" transform="translate(451.005859 0)"/>
     </g>
    </g>
    <g id="line2d_32">
     <path d="M 66.17 54.656563 
L 76.17 54.656563 
L 86.17 54.656563 
" style="fill: none; stroke: #000000; stroke-width: 2; stroke-linecap: square"/>
    </g>
    <g id="text_19">
     <!-- Adjusted Force -->
     <g transform="translate(94.17 58.156563) scale(0.1 -0.1)">
      <defs>
       <path id="DejaVuSans-41" d="M 2188 4044 
L 1331 1722 
L 3047 1722 
L 2188 4044 
z
M 1831 4666 
L 2547 4666 
L 4325 0 
L 3669 0 
L 3244 1197 
L 1141 1197 
L 716 0 
L 50 0 
L 1831 4666 
z
" transform="scale(0.015625)"/>
       <path id="DejaVuSans-64" d="M 2906 2969 
L 2906 4863 
L 3481 4863 
L 3481 0 
L 2906 0 
L 2906 525 
Q 2725 213 2448 61 
Q 2172 -91 1784 -91 
Q 1150 -91 751 415 
Q 353 922 353 1747 
Q 353 2572 751 3078 
Q 1150 3584 1784 3584 
Q 2172 3584 2448 3432 
Q 2725 3281 2906 2969 
z
M 947 1747 
Q 947 1113 1208 752 
Q 1469 391 1925 391 
Q 2381 391 2643 752 
Q 2906 1113 2906 1747 
Q 2906 2381 2643 2742 
Q 2381 3103 1925 3103 
Q 1469 3103 1208 2742 
Q 947 2381 947 1747 
z
" transform="scale(0.015625)"/>
       <path id="DejaVuSans-6a" d="M 603 3500 
L 1178 3500 
L 1178 -63 
Q 1178 -731 923 -1031 
Q 669 -1331 103 -1331 
L -116 -1331 
L -116 -844 
L 38 -844 
Q 366 -844 484 -692 
Q 603 -541 603 -63 
L 603 3500 
z
M 603 4863 
L 1178 4863 
L 1178 4134 
L 603 4134 
L 603 4863 
z
" transform="scale(0.015625)"/>
       <path id="DejaVuSans-75" d="M 544 1381 
L 544 3500 
L 1119 3500 
L 1119 1403 
Q 1119 906 1312 657 
Q 1506 409 1894 409 
Q 2359 409 2629 706 
Q 2900 1003 2900 1516 
L 2900 3500 
L 3475 3500 
L 3475 0 
L 2900 0 
L 2900 538 
Q 2691 219 2414 64 
Q 2138 -91 1772 -91 
Q 1169 -91 856 284 
Q 544 659 544 1381 
z
M 1991 3584 
L 1991 3584 
z
" transform="scale(0.015625)"/>
      </defs>
      <use xlink:href="#DejaVuSans-41"/>
      <use xlink:href="#DejaVuSans-64" transform="translate(66.658203 0)"/>
      <use xlink:href="#DejaVuSans-6a" transform="translate(130.134766 0)"/>
      <use xlink:href="#DejaVuSans-75" transform="translate(157.917969 0)"/>
      <use xlink:href="#DejaVuSans-73" transform="translate(221.296875 0)"/>
      <use xlink:href="#DejaVuSans-74" transform="translate(273.396484 0)"/>
      <use xlink:href="#DejaVuSans-65" transform="translate(312.605469 0)"/>
      <use xlink:href="#DejaVuSans-64" transform="translate(374.128906 0)"/>
      <use xlink:href="#DejaVuSans-20" transform="translate(437.605469 0)"/>
      <use xlink:href="#DejaVuSans-46" transform="translate(469.392578 0)"/>
      <use xlink:href="#DejaVuSans-6f" transform="translate(523.287109 0)"/>
      <use xlink:href="#DejaVuSans-72" transform="translate(584.46875 0)"/>
      <use xlink:href="#DejaVuSans-63" transform="translate(623.332031 0)"/>
      <use xlink:href="#DejaVuSans-65" transform="translate(678.3125 0)"/>
     </g>
    </g>
   </g>
  </g>
 </g>
 <defs>
  <clipPath id="pc1859dab79">
   <rect x="57.17" y="26.88" width="392.83" height="276.76"/>
  </clipPath>
 </defs>
</svg>
