<?xml version="1.0" encoding="utf-8" standalone="no"?>
<!DOCTYPE svg PUBLIC "-//W3C//DTD SVG 1.1//EN"
  "http://www.w3.org/Graphics/SVG/1.1/DTD/svg11.dtd">
<svg xmlns:xlink="http://www.w3.org/1999/xlink" width="460.8pt" height="345.6pt" viewBox="0 0 460.8 345.6" xmlns="http://www.w3.org/2000/svg" version="1.1">
 <metadata>
  <rdf:RDF xmlns:dc="http://purl.org/dc/elements/1.1/" xmlns:cc="http://creativecommons.org/ns#" xmlns:rdf="http://www.w3.org/1999/02/22-rdf-syntax-ns#">
   <cc:Work>
    <dc:type rdf:resource="http://purl.org/dc/dcmitype/StillImage"/>
    <dc:date>2025-07-28T21:13:58.829465</dc:date>
    <dc:format>image/svg+xml</dc:format>
    <dc:creator>
     <cc:Agent>
      <dc:title>Matplotlib v3.10.3, https://matplotlib.org/</dc:title>
     </cc:Agent>
    </dc:creator>
   </cc:Work>
  </rdf:RDF>
 </metadata>
 <defs>
  <style type="text/css">*{stroke-linejoin: round; stroke-linecap: butt}</style>
 </defs>
 <g id="figure_1">
  <g id="patch_1">
   <path d="M 0 345.6 
L 460.8 345.6 
L 460.8 0 
L 0 0 
z
" style="fill: #ffffff"/>
  </g>
  <g id="axes_1">
   <g id="patch_2">
    <path d="M 59.24 303.64 
L 442.841866 303.64 
L 442.841866 26.88 
L 59.24 26.88 
z
" style="fill: #ffffff"/>
   </g>
   <g id="matplotlib.axis_1">
    <g id="xtick_1">
     <g id="line2d_1">
      <path d="M 63.154251 303.64 
L 63.154251 26.88 
" clip-path="url(#paddf3e61f3)" style="fill: none; stroke: #b0b0b0; stroke-opacity: 0.3; stroke-width: 0.8; stroke-linecap: square"/>
     </g>
     <g id="line2d_2">
      <defs>
       <path id="m2b5ac47368" d="M 0 0 
L 0 3.5 
" style="stroke: #000000; stroke-width: 0.8"/>
      </defs>
      <g>
       <use xlink:href="#m2b5ac47368" x="63.154251" y="303.64" style="stroke: #000000; stroke-width: 0.8"/>
      </g>
     </g>
     <g id="text_1">
      <!-- −0.04 -->
      <g transform="translate(47.831594 318.238437) scale(0.1 -0.1)">
       <defs>
        <path id="DejaVuSans-2212" d="M 678 2272 
L 4684 2272 
L 4684 1741 
L 678 1741 
L 678 2272 
z
" transform="scale(0.015625)"/>
        <path id="DejaVuSans-30" d="M 2034 4250 
Q 1547 4250 1301 3770 
Q 1056 3291 1056 2328 
Q 1056 1369 1301 889 
Q 1547 409 2034 409 
Q 2525 409 2770 889 
Q 3016 1369 3016 2328 
Q 3016 3291 2770 3770 
Q 2525 4250 2034 4250 
z
M 2034 4750 
Q 2819 4750 3233 4129 
Q 3647 3509 3647 2328 
Q 3647 1150 3233 529 
Q 2819 -91 2034 -91 
Q 1250 -91 836 529 
Q 422 1150 422 2328 
Q 422 3509 836 4129 
Q 1250 4750 2034 4750 
z
" transform="scale(0.015625)"/>
        <path id="DejaVuSans-2e" d="M 684 794 
L 1344 794 
L 1344 0 
L 684 0 
L 684 794 
z
" transform="scale(0.015625)"/>
        <path id="DejaVuSans-34" d="M 2419 4116 
L 825 1625 
L 2419 1625 
L 2419 4116 
z
M 2253 4666 
L 3047 4666 
L 3047 1625 
L 3713 1625 
L 3713 1100 
L 3047 1100 
L 3047 0 
L 2419 0 
L 2419 1100 
L 313 1100 
L 313 1709 
L 2253 4666 
z
" transform="scale(0.015625)"/>
       </defs>
       <use xlink:href="#DejaVuSans-2212"/>
       <use xlink:href="#DejaVuSans-30" transform="translate(83.789062 0)"/>
       <use xlink:href="#DejaVuSans-2e" transform="translate(147.412109 0)"/>
       <use xlink:href="#DejaVuSans-30" transform="translate(179.199219 0)"/>
       <use xlink:href="#DejaVuSans-34" transform="translate(242.822266 0)"/>
      </g>
     </g>
    </g>
    <g id="xtick_2">
     <g id="line2d_3">
      <path d="M 110.096001 303.64 
L 110.096001 26.88 
" clip-path="url(#paddf3e61f3)" style="fill: none; stroke: #b0b0b0; stroke-opacity: 0.3; stroke-width: 0.8; stroke-linecap: square"/>
     </g>
     <g id="line2d_4">
      <g>
       <use xlink:href="#m2b5ac47368" x="110.096001" y="303.64" style="stroke: #000000; stroke-width: 0.8"/>
      </g>
     </g>
     <g id="text_2">
      <!-- −0.03 -->
      <g transform="translate(94.773345 318.238437) scale(0.1 -0.1)">
       <defs>
        <path id="DejaVuSans-33" d="M 2597 2516 
Q 3050 2419 3304 2112 
Q 3559 1806 3559 1356 
Q 3559 666 3084 287 
Q 2609 -91 1734 -91 
Q 1441 -91 1130 -33 
Q 819 25 488 141 
L 488 750 
Q 750 597 1062 519 
Q 1375 441 1716 441 
Q 2309 441 2620 675 
Q 2931 909 2931 1356 
Q 2931 1769 2642 2001 
Q 2353 2234 1838 2234 
L 1294 2234 
L 1294 2753 
L 1863 2753 
Q 2328 2753 2575 2939 
Q 2822 3125 2822 3475 
Q 2822 3834 2567 4026 
Q 2313 4219 1838 4219 
Q 1578 4219 1281 4162 
Q 984 4106 628 3988 
L 628 4550 
Q 988 4650 1302 4700 
Q 1616 4750 1894 4750 
Q 2613 4750 3031 4423 
Q 3450 4097 3450 3541 
Q 3450 3153 3228 2886 
Q 3006 2619 2597 2516 
z
" transform="scale(0.015625)"/>
       </defs>
       <use xlink:href="#DejaVuSans-2212"/>
       <use xlink:href="#DejaVuSans-30" transform="translate(83.789062 0)"/>
       <use xlink:href="#DejaVuSans-2e" transform="translate(147.412109 0)"/>
       <use xlink:href="#DejaVuSans-30" transform="translate(179.199219 0)"/>
       <use xlink:href="#DejaVuSans-33" transform="translate(242.822266 0)"/>
      </g>
     </g>
    </g>
    <g id="xtick_3">
     <g id="line2d_5">
      <path d="M 157.037752 303.64 
L 157.037752 26.88 
" clip-path="url(#paddf3e61f3)" style="fill: none; stroke: #b0b0b0; stroke-opacity: 0.3; stroke-width: 0.8; stroke-linecap: square"/>
     </g>
     <g id="line2d_6">
      <g>
       <use xlink:href="#m2b5ac47368" x="157.037752" y="303.64" style="stroke: #000000; stroke-width: 0.8"/>
      </g>
     </g>
     <g id="text_3">
      <!-- −0.02 -->
      <g transform="translate(141.715096 318.238437) scale(0.1 -0.1)">
       <defs>
        <path id="DejaVuSans-32" d="M 1228 531 
L 3431 531 
L 3431 0 
L 469 0 
L 469 531 
Q 828 903 1448 1529 
Q 2069 2156 2228 2338 
Q 2531 2678 2651 2914 
Q 2772 3150 2772 3378 
Q 2772 3750 2511 3984 
Q 2250 4219 1831 4219 
Q 1534 4219 1204 4116 
Q 875 4013 500 3803 
L 500 4441 
Q 881 4594 1212 4672 
Q 1544 4750 1819 4750 
Q 2544 4750 2975 4387 
Q 3406 4025 3406 3419 
Q 3406 3131 3298 2873 
Q 3191 2616 2906 2266 
Q 2828 2175 2409 1742 
Q 1991 1309 1228 531 
z
" transform="scale(0.015625)"/>
       </defs>
       <use xlink:href="#DejaVuSans-2212"/>
       <use xlink:href="#DejaVuSans-30" transform="translate(83.789062 0)"/>
       <use xlink:href="#DejaVuSans-2e" transform="translate(147.412109 0)"/>
       <use xlink:href="#DejaVuSans-30" transform="translate(179.199219 0)"/>
       <use xlink:href="#DejaVuSans-32" transform="translate(242.822266 0)"/>
      </g>
     </g>
    </g>
    <g id="xtick_4">
     <g id="line2d_7">
      <path d="M 203.979503 303.64 
L 203.979503 26.88 
" clip-path="url(#paddf3e61f3)" style="fill: none; stroke: #b0b0b0; stroke-opacity: 0.3; stroke-width: 0.8; stroke-linecap: square"/>
     </g>
     <g id="line2d_8">
      <g>
       <use xlink:href="#m2b5ac47368" x="203.979503" y="303.64" style="stroke: #000000; stroke-width: 0.8"/>
      </g>
     </g>
     <g id="text_4">
      <!-- −0.01 -->
      <g transform="translate(188.656847 318.238437) scale(0.1 -0.1)">
       <defs>
        <path id="DejaVuSans-31" d="M 794 531 
L 1825 531 
L 1825 4091 
L 703 3866 
L 703 4441 
L 1819 4666 
L 2450 4666 
L 2450 531 
L 3481 531 
L 3481 0 
L 794 0 
L 794 531 
z
" transform="scale(0.015625)"/>
       </defs>
       <use xlink:href="#DejaVuSans-2212"/>
       <use xlink:href="#DejaVuSans-30" transform="translate(83.789062 0)"/>
       <use xlink:href="#DejaVuSans-2e" transform="translate(147.412109 0)"/>
       <use xlink:href="#DejaVuSans-30" transform="translate(179.199219 0)"/>
       <use xlink:href="#DejaVuSans-31" transform="translate(242.822266 0)"/>
      </g>
     </g>
    </g>
    <g id="xtick_5">
     <g id="line2d_9">
      <path d="M 250.921254 303.64 
L 250.921254 26.88 
" clip-path="url(#paddf3e61f3)" style="fill: none; stroke: #b0b0b0; stroke-opacity: 0.3; stroke-width: 0.8; stroke-linecap: square"/>
     </g>
     <g id="line2d_10">
      <g>
       <use xlink:href="#m2b5ac47368" x="250.921254" y="303.64" style="stroke: #000000; stroke-width: 0.8"/>
      </g>
     </g>
     <g id="text_5">
      <!-- 0.00 -->
      <g transform="translate(239.788441 318.238437) scale(0.1 -0.1)">
       <use xlink:href="#DejaVuSans-30"/>
       <use xlink:href="#DejaVuSans-2e" transform="translate(63.623047 0)"/>
       <use xlink:href="#DejaVuSans-30" transform="translate(95.410156 0)"/>
       <use xlink:href="#DejaVuSans-30" transform="translate(159.033203 0)"/>
      </g>
     </g>
    </g>
    <g id="xtick_6">
     <g id="line2d_11">
      <path d="M 297.863004 303.64 
L 297.863004 26.88 
" clip-path="url(#paddf3e61f3)" style="fill: none; stroke: #b0b0b0; stroke-opacity: 0.3; stroke-width: 0.8; stroke-linecap: square"/>
     </g>
     <g id="line2d_12">
      <g>
       <use xlink:href="#m2b5ac47368" x="297.863004" y="303.64" style="stroke: #000000; stroke-width: 0.8"/>
      </g>
     </g>
     <g id="text_6">
      <!-- 0.01 -->
      <g transform="translate(286.730192 318.238437) scale(0.1 -0.1)">
       <use xlink:href="#DejaVuSans-30"/>
       <use xlink:href="#DejaVuSans-2e" transform="translate(63.623047 0)"/>
       <use xlink:href="#DejaVuSans-30" transform="translate(95.410156 0)"/>
       <use xlink:href="#DejaVuSans-31" transform="translate(159.033203 0)"/>
      </g>
     </g>
    </g>
    <g id="xtick_7">
     <g id="line2d_13">
      <path d="M 344.804755 303.64 
L 344.804755 26.88 
" clip-path="url(#paddf3e61f3)" style="fill: none; stroke: #b0b0b0; stroke-opacity: 0.3; stroke-width: 0.8; stroke-linecap: square"/>
     </g>
     <g id="line2d_14">
      <g>
       <use xlink:href="#m2b5ac47368" x="344.804755" y="303.64" style="stroke: #000000; stroke-width: 0.8"/>
      </g>
     </g>
     <g id="text_7">
      <!-- 0.02 -->
      <g transform="translate(333.671943 318.238437) scale(0.1 -0.1)">
       <use xlink:href="#DejaVuSans-30"/>
       <use xlink:href="#DejaVuSans-2e" transform="translate(63.623047 0)"/>
       <use xlink:href="#DejaVuSans-30" transform="translate(95.410156 0)"/>
       <use xlink:href="#DejaVuSans-32" transform="translate(159.033203 0)"/>
      </g>
     </g>
    </g>
    <g id="xtick_8">
     <g id="line2d_15">
      <path d="M 391.746506 303.64 
L 391.746506 26.88 
" clip-path="url(#paddf3e61f3)" style="fill: none; stroke: #b0b0b0; stroke-opacity: 0.3; stroke-width: 0.8; stroke-linecap: square"/>
     </g>
     <g id="line2d_16">
      <g>
       <use xlink:href="#m2b5ac47368" x="391.746506" y="303.64" style="stroke: #000000; stroke-width: 0.8"/>
      </g>
     </g>
     <g id="text_8">
      <!-- 0.03 -->
      <g transform="translate(380.613693 318.238437) scale(0.1 -0.1)">
       <use xlink:href="#DejaVuSans-30"/>
       <use xlink:href="#DejaVuSans-2e" transform="translate(63.623047 0)"/>
       <use xlink:href="#DejaVuSans-30" transform="translate(95.410156 0)"/>
       <use xlink:href="#DejaVuSans-33" transform="translate(159.033203 0)"/>
      </g>
     </g>
    </g>
    <g id="xtick_9">
     <g id="line2d_17">
      <path d="M 438.688257 303.64 
L 438.688257 26.88 
" clip-path="url(#paddf3e61f3)" style="fill: none; stroke: #b0b0b0; stroke-opacity: 0.3; stroke-width: 0.8; stroke-linecap: square"/>
     </g>
     <g id="line2d_18">
      <g>
       <use xlink:href="#m2b5ac47368" x="438.688257" y="303.64" style="stroke: #000000; stroke-width: 0.8"/>
      </g>
     </g>
     <g id="text_9">
      <!-- 0.04 -->
      <g transform="translate(427.555444 318.238437) scale(0.1 -0.1)">
       <use xlink:href="#DejaVuSans-30"/>
       <use xlink:href="#DejaVuSans-2e" transform="translate(63.623047 0)"/>
       <use xlink:href="#DejaVuSans-30" transform="translate(95.410156 0)"/>
       <use xlink:href="#DejaVuSans-34" transform="translate(159.033203 0)"/>
      </g>
     </g>
    </g>
    <g id="text_10">
     <!-- Strain [-] -->
     <g transform="translate(228.934683 331.916562) scale(0.1 -0.1)">
      <defs>
       <path id="DejaVuSans-53" d="M 3425 4513 
L 3425 3897 
Q 3066 4069 2747 4153 
Q 2428 4238 2131 4238 
Q 1616 4238 1336 4038 
Q 1056 3838 1056 3469 
Q 1056 3159 1242 3001 
Q 1428 2844 1947 2747 
L 2328 2669 
Q 3034 2534 3370 2195 
Q 3706 1856 3706 1288 
Q 3706 609 3251 259 
Q 2797 -91 1919 -91 
Q 1588 -91 1214 -16 
Q 841 59 441 206 
L 441 856 
Q 825 641 1194 531 
Q 1563 422 1919 422 
Q 2459 422 2753 634 
Q 3047 847 3047 1241 
Q 3047 1584 2836 1778 
Q 2625 1972 2144 2069 
L 1759 2144 
Q 1053 2284 737 2584 
Q 422 2884 422 3419 
Q 422 4038 858 4394 
Q 1294 4750 2059 4750 
Q 2388 4750 2728 4690 
Q 3069 4631 3425 4513 
z
" transform="scale(0.015625)"/>
       <path id="DejaVuSans-74" d="M 1172 4494 
L 1172 3500 
L 2356 3500 
L 2356 3053 
L 1172 3053 
L 1172 1153 
Q 1172 725 1289 603 
Q 1406 481 1766 481 
L 2356 481 
L 2356 0 
L 1766 0 
Q 1100 0 847 248 
Q 594 497 594 1153 
L 594 3053 
L 172 3053 
L 172 3500 
L 594 3500 
L 594 4494 
L 1172 4494 
z
" transform="scale(0.015625)"/>
       <path id="DejaVuSans-72" d="M 2631 2963 
Q 2534 3019 2420 3045 
Q 2306 3072 2169 3072 
Q 1681 3072 1420 2755 
Q 1159 2438 1159 1844 
L 1159 0 
L 581 0 
L 581 3500 
L 1159 3500 
L 1159 2956 
Q 1341 3275 1631 3429 
Q 1922 3584 2338 3584 
Q 2397 3584 2469 3576 
Q 2541 3569 2628 3553 
L 2631 2963 
z
" transform="scale(0.015625)"/>
       <path id="DejaVuSans-61" d="M 2194 1759 
Q 1497 1759 1228 1600 
Q 959 1441 959 1056 
Q 959 750 1161 570 
Q 1363 391 1709 391 
Q 2188 391 2477 730 
Q 2766 1069 2766 1631 
L 2766 1759 
L 2194 1759 
z
M 3341 1997 
L 3341 0 
L 2766 0 
L 2766 531 
Q 2569 213 2275 61 
Q 1981 -91 1556 -91 
Q 1019 -91 701 211 
Q 384 513 384 1019 
Q 384 1609 779 1909 
Q 1175 2209 1959 2209 
L 2766 2209 
L 2766 2266 
Q 2766 2663 2505 2880 
Q 2244 3097 1772 3097 
Q 1472 3097 1187 3025 
Q 903 2953 641 2809 
L 641 3341 
Q 956 3463 1253 3523 
Q 1550 3584 1831 3584 
Q 2591 3584 2966 3190 
Q 3341 2797 3341 1997 
z
" transform="scale(0.015625)"/>
       <path id="DejaVuSans-69" d="M 603 3500 
L 1178 3500 
L 1178 0 
L 603 0 
L 603 3500 
z
M 603 4863 
L 1178 4863 
L 1178 4134 
L 603 4134 
L 603 4863 
z
" transform="scale(0.015625)"/>
       <path id="DejaVuSans-6e" d="M 3513 2113 
L 3513 0 
L 2938 0 
L 2938 2094 
Q 2938 2591 2744 2837 
Q 2550 3084 2163 3084 
Q 1697 3084 1428 2787 
Q 1159 2491 1159 1978 
L 1159 0 
L 581 0 
L 581 3500 
L 1159 3500 
L 1159 2956 
Q 1366 3272 1645 3428 
Q 1925 3584 2291 3584 
Q 2894 3584 3203 3211 
Q 3513 2838 3513 2113 
z
" transform="scale(0.015625)"/>
       <path id="DejaVuSans-20" transform="scale(0.015625)"/>
       <path id="DejaVuSans-5b" d="M 550 4863 
L 1875 4863 
L 1875 4416 
L 1125 4416 
L 1125 -397 
L 1875 -397 
L 1875 -844 
L 550 -844 
L 550 4863 
z
" transform="scale(0.015625)"/>
       <path id="DejaVuSans-2d" d="M 313 2009 
L 1997 2009 
L 1997 1497 
L 313 1497 
L 313 2009 
z
" transform="scale(0.015625)"/>
       <path id="DejaVuSans-5d" d="M 1947 4863 
L 1947 -844 
L 622 -844 
L 622 -397 
L 1369 -397 
L 1369 4416 
L 622 4416 
L 622 4863 
L 1947 4863 
z
" transform="scale(0.015625)"/>
      </defs>
      <use xlink:href="#DejaVuSans-53"/>
      <use xlink:href="#DejaVuSans-74" transform="translate(63.476562 0)"/>
      <use xlink:href="#DejaVuSans-72" transform="translate(102.685547 0)"/>
      <use xlink:href="#DejaVuSans-61" transform="translate(143.798828 0)"/>
      <use xlink:href="#DejaVuSans-69" transform="translate(205.078125 0)"/>
      <use xlink:href="#DejaVuSans-6e" transform="translate(232.861328 0)"/>
      <use xlink:href="#DejaVuSans-20" transform="translate(296.240234 0)"/>
      <use xlink:href="#DejaVuSans-5b" transform="translate(328.027344 0)"/>
      <use xlink:href="#DejaVuSans-2d" transform="translate(367.041016 0)"/>
      <use xlink:href="#DejaVuSans-5d" transform="translate(403.125 0)"/>
     </g>
    </g>
   </g>
   <g id="matplotlib.axis_2">
    <g id="ytick_1">
     <g id="line2d_19">
      <path d="M 59.24 283.964638 
L 442.841866 283.964638 
" clip-path="url(#paddf3e61f3)" style="fill: none; stroke: #b0b0b0; stroke-opacity: 0.3; stroke-width: 0.8; stroke-linecap: square"/>
     </g>
     <g id="line2d_20">
      <defs>
       <path id="ma5f398f81f" d="M 0 0 
L -3.5 0 
" style="stroke: #000000; stroke-width: 0.8"/>
      </defs>
      <g>
       <use xlink:href="#ma5f398f81f" x="59.24" y="283.964638" style="stroke: #000000; stroke-width: 0.8"/>
      </g>
     </g>
     <g id="text_11">
      <!-- −150 -->
      <g transform="translate(24.772813 287.763856) scale(0.1 -0.1)">
       <defs>
        <path id="DejaVuSans-35" d="M 691 4666 
L 3169 4666 
L 3169 4134 
L 1269 4134 
L 1269 2991 
Q 1406 3038 1543 3061 
Q 1681 3084 1819 3084 
Q 2600 3084 3056 2656 
Q 3513 2228 3513 1497 
Q 3513 744 3044 326 
Q 2575 -91 1722 -91 
Q 1428 -91 1123 -41 
Q 819 9 494 109 
L 494 744 
Q 775 591 1075 516 
Q 1375 441 1709 441 
Q 2250 441 2565 725 
Q 2881 1009 2881 1497 
Q 2881 1984 2565 2268 
Q 2250 2553 1709 2553 
Q 1456 2553 1204 2497 
Q 953 2441 691 2322 
L 691 4666 
z
" transform="scale(0.015625)"/>
       </defs>
       <use xlink:href="#DejaVuSans-2212"/>
       <use xlink:href="#DejaVuSans-31" transform="translate(83.789062 0)"/>
       <use xlink:href="#DejaVuSans-35" transform="translate(147.412109 0)"/>
       <use xlink:href="#DejaVuSans-30" transform="translate(211.035156 0)"/>
      </g>
     </g>
    </g>
    <g id="ytick_2">
     <g id="line2d_21">
      <path d="M 59.24 228.371348 
L 442.841866 228.371348 
" clip-path="url(#paddf3e61f3)" style="fill: none; stroke: #b0b0b0; stroke-opacity: 0.3; stroke-width: 0.8; stroke-linecap: square"/>
     </g>
     <g id="line2d_22">
      <g>
       <use xlink:href="#ma5f398f81f" x="59.24" y="228.371348" style="stroke: #000000; stroke-width: 0.8"/>
      </g>
     </g>
     <g id="text_12">
      <!-- −100 -->
      <g transform="translate(24.772813 232.170566) scale(0.1 -0.1)">
       <use xlink:href="#DejaVuSans-2212"/>
       <use xlink:href="#DejaVuSans-31" transform="translate(83.789062 0)"/>
       <use xlink:href="#DejaVuSans-30" transform="translate(147.412109 0)"/>
       <use xlink:href="#DejaVuSans-30" transform="translate(211.035156 0)"/>
      </g>
     </g>
    </g>
    <g id="ytick_3">
     <g id="line2d_23">
      <path d="M 59.24 172.778058 
L 442.841866 172.778058 
" clip-path="url(#paddf3e61f3)" style="fill: none; stroke: #b0b0b0; stroke-opacity: 0.3; stroke-width: 0.8; stroke-linecap: square"/>
     </g>
     <g id="line2d_24">
      <g>
       <use xlink:href="#ma5f398f81f" x="59.24" y="172.778058" style="stroke: #000000; stroke-width: 0.8"/>
      </g>
     </g>
     <g id="text_13">
      <!-- −50 -->
      <g transform="translate(31.135313 176.577276) scale(0.1 -0.1)">
       <use xlink:href="#DejaVuSans-2212"/>
       <use xlink:href="#DejaVuSans-35" transform="translate(83.789062 0)"/>
       <use xlink:href="#DejaVuSans-30" transform="translate(147.412109 0)"/>
      </g>
     </g>
    </g>
    <g id="ytick_4">
     <g id="line2d_25">
      <path d="M 59.24 117.184768 
L 442.841866 117.184768 
" clip-path="url(#paddf3e61f3)" style="fill: none; stroke: #b0b0b0; stroke-opacity: 0.3; stroke-width: 0.8; stroke-linecap: square"/>
     </g>
     <g id="line2d_26">
      <g>
       <use xlink:href="#ma5f398f81f" x="59.24" y="117.184768" style="stroke: #000000; stroke-width: 0.8"/>
      </g>
     </g>
     <g id="text_14">
      <!-- 0 -->
      <g transform="translate(45.8775 120.983986) scale(0.1 -0.1)">
       <use xlink:href="#DejaVuSans-30"/>
      </g>
     </g>
    </g>
    <g id="ytick_5">
     <g id="line2d_27">
      <path d="M 59.24 61.591477 
L 442.841866 61.591477 
" clip-path="url(#paddf3e61f3)" style="fill: none; stroke: #b0b0b0; stroke-opacity: 0.3; stroke-width: 0.8; stroke-linecap: square"/>
     </g>
     <g id="line2d_28">
      <g>
       <use xlink:href="#ma5f398f81f" x="59.24" y="61.591477" style="stroke: #000000; stroke-width: 0.8"/>
      </g>
     </g>
     <g id="text_15">
      <!-- 50 -->
      <g transform="translate(39.515 65.390696) scale(0.1 -0.1)">
       <use xlink:href="#DejaVuSans-35"/>
       <use xlink:href="#DejaVuSans-30" transform="translate(63.623047 0)"/>
      </g>
     </g>
    </g>
    <g id="text_16">
     <!-- Stress [Pa] -->
     <g transform="translate(18.693125 191.967812) rotate(-90) scale(0.1 -0.1)">
      <defs>
       <path id="DejaVuSans-65" d="M 3597 1894 
L 3597 1613 
L 953 1613 
Q 991 1019 1311 708 
Q 1631 397 2203 397 
Q 2534 397 2845 478 
Q 3156 559 3463 722 
L 3463 178 
Q 3153 47 2828 -22 
Q 2503 -91 2169 -91 
Q 1331 -91 842 396 
Q 353 884 353 1716 
Q 353 2575 817 3079 
Q 1281 3584 2069 3584 
Q 2775 3584 3186 3129 
Q 3597 2675 3597 1894 
z
M 3022 2063 
Q 3016 2534 2758 2815 
Q 2500 3097 2075 3097 
Q 1594 3097 1305 2825 
Q 1016 2553 972 2059 
L 3022 2063 
z
" transform="scale(0.015625)"/>
       <path id="DejaVuSans-73" d="M 2834 3397 
L 2834 2853 
Q 2591 2978 2328 3040 
Q 2066 3103 1784 3103 
Q 1356 3103 1142 2972 
Q 928 2841 928 2578 
Q 928 2378 1081 2264 
Q 1234 2150 1697 2047 
L 1894 2003 
Q 2506 1872 2764 1633 
Q 3022 1394 3022 966 
Q 3022 478 2636 193 
Q 2250 -91 1575 -91 
Q 1294 -91 989 -36 
Q 684 19 347 128 
L 347 722 
Q 666 556 975 473 
Q 1284 391 1588 391 
Q 1994 391 2212 530 
Q 2431 669 2431 922 
Q 2431 1156 2273 1281 
Q 2116 1406 1581 1522 
L 1381 1569 
Q 847 1681 609 1914 
Q 372 2147 372 2553 
Q 372 3047 722 3315 
Q 1072 3584 1716 3584 
Q 2034 3584 2315 3537 
Q 2597 3491 2834 3397 
z
" transform="scale(0.015625)"/>
       <path id="DejaVuSans-50" d="M 1259 4147 
L 1259 2394 
L 2053 2394 
Q 2494 2394 2734 2622 
Q 2975 2850 2975 3272 
Q 2975 3691 2734 3919 
Q 2494 4147 2053 4147 
L 1259 4147 
z
M 628 4666 
L 2053 4666 
Q 2838 4666 3239 4311 
Q 3641 3956 3641 3272 
Q 3641 2581 3239 2228 
Q 2838 1875 2053 1875 
L 1259 1875 
L 1259 0 
L 628 0 
L 628 4666 
z
" transform="scale(0.015625)"/>
      </defs>
      <use xlink:href="#DejaVuSans-53"/>
      <use xlink:href="#DejaVuSans-74" transform="translate(63.476562 0)"/>
      <use xlink:href="#DejaVuSans-72" transform="translate(102.685547 0)"/>
      <use xlink:href="#DejaVuSans-65" transform="translate(141.548828 0)"/>
      <use xlink:href="#DejaVuSans-73" transform="translate(203.072266 0)"/>
      <use xlink:href="#DejaVuSans-73" transform="translate(255.171875 0)"/>
      <use xlink:href="#DejaVuSans-20" transform="translate(307.271484 0)"/>
      <use xlink:href="#DejaVuSans-5b" transform="translate(339.058594 0)"/>
      <use xlink:href="#DejaVuSans-50" transform="translate(378.072266 0)"/>
      <use xlink:href="#DejaVuSans-61" transform="translate(433.875 0)"/>
      <use xlink:href="#DejaVuSans-5d" transform="translate(495.154297 0)"/>
     </g>
    </g>
   </g>
   <g id="line2d_29">
    <path d="M 250.921254 122.669525 
L 250.921254 124.015767 
L 250.921254 122.328569 
L 250.922586 123.929314 
L 251.152798 124.749106 
L 252.92968 105.198044 
L 254.744905 99.036235 
L 256.511715 103.24946 
L 258.326276 112.071485 
L 260.097066 118.357501 
L 261.904995 123.053653 
L 263.691701 126.898708 
L 265.557994 134.521854 
L 267.334752 138.102798 
L 269.134723 143.224768 
L 270.92375 128.957021 
L 272.695201 117.326067 
L 274.490198 118.192019 
L 276.24308 121.116312 
L 278.068916 123.18681 
L 279.891436 125.660714 
L 281.707988 126.991582 
L 285.222719 121.998161 
L 287.023021 121.629355 
L 290.559957 121.840981 
L 292.328093 122.369406 
L 294.078986 123.190666 
L 295.890231 122.779361 
L 297.698824 122.88108 
L 299.509406 122.694364 
L 301.311366 121.956507 
L 303.117969 120.928683 
L 304.85825 121.215307 
L 306.617102 121.942508 
L 308.403808 123.087654 
L 313.731429 123.984622 
L 315.540685 122.707167 
L 317.361216 121.697638 
L 319.121393 122.372885 
L 322.69348 123.159126 
L 324.463606 123.726084 
L 326.256877 123.735459 
L 328.006775 122.209588 
L 329.775906 121.783601 
L 331.566923 121.763006 
L 333.378169 121.233804 
L 336.942959 121.463158 
L 340.544233 119.061922 
L 342.370069 118.741826 
L 344.122951 117.650697 
L 347.617441 116.071227 
L 349.365681 114.856686 
L 351.110604 113.791466 
L 352.852212 113.309205 
L 354.598462 112.671592 
L 356.423635 111.554595 
L 358.240186 110.735 
L 360.057401 109.285274 
L 361.801661 107.703779 
L 363.55587 105.878188 
L 365.325333 104.863596 
L 368.870227 102.183938 
L 370.636819 101.225826 
L 372.385059 99.987254 
L 374.198294 98.027735 
L 376.008213 96.426529 
L 379.570351 93.629683 
L 381.32456 91.76683 
L 383.084075 90.331685 
L 384.840273 89.401743 
L 386.66014 87.904494 
L 388.450494 85.798354 
L 390.23289 83.944411 
L 393.775795 80.509783 
L 395.530003 79.225578 
L 397.278243 77.806904 
L 399.10209 75.959441 
L 402.739834 71.659676 
L 404.496696 69.746869 
L 406.272128 68.068168 
L 408.034958 66.58712 
L 409.851509 64.356772 
L 411.631252 60.478234 
L 413.431772 57.358831 
L 415.195929 55.811764 
L 416.99192 54.487866 
L 418.768015 54.219713 
L 420.581914 55.312053 
L 422.345739 54.472028 
L 424.097958 52.509672 
L 424.318809 51.818967 
L 425.405418 46.28489 
L 425.277811 46.30153 
L 425.01041 50.245433 
L 424.922927 49.205252 
L 424.805517 51.189863 
L 424.790201 49.418368 
L 424.777227 59.89284 
L 424.770823 58.713743 
L 423.027806 59.455428 
L 421.242592 70.597447 
L 419.416092 78.584711 
L 417.557758 74.539843 
L 415.721311 73.899563 
L 413.906086 73.69737 
L 412.027193 74.161295 
L 410.27431 73.188083 
L 408.429241 71.611988 
L 406.61269 68.453184 
L 404.812056 77.003031 
L 403.025349 83.580669 
L 401.247928 87.282075 
L 399.431377 91.796774 
L 397.640691 95.175238 
L 395.862607 97.274763 
L 394.02019 96.696249 
L 392.193691 96.949054 
L 390.443523 97.608828 
L 388.605086 98.460397 
L 386.789861 100.224828 
L 385.011113 103.991307 
L 383.271827 111.941715 
L 381.510986 116.199357 
L 379.728922 118.890356 
L 377.909718 119.121795 
L 376.156836 119.779464 
L 374.358192 121.750324 
L 372.608625 124.196146 
L 370.822914 126.217771 
L 369.073348 129.761486 
L 367.322787 132.155464 
L 365.570568 133.596955 
L 363.769934 136.136205 
L 361.984222 140.805354 
L 360.21277 144.454376 
L 358.408156 146.160079 
L 356.625429 147.316296 
L 354.813521 148.655315 
L 353.014876 148.856225 
L 351.206947 149.752837 
L 349.433505 153.182062 
L 347.619938 157.176167 
L 345.8349 159.352558 
L 342.317198 161.555119 
L 336.931208 169.41318 
L 335.112667 172.598852 
L 333.35249 174.52759 
L 331.586343 175.101373 
L 329.844072 176.773189 
L 326.233519 182.251313 
L 322.666739 186.43767 
L 320.911867 188.09423 
L 319.164953 190.04727 
L 315.681738 194.383757 
L 313.930845 197.116879 
L 312.160056 198.784307 
L 310.391257 200.128186 
L 308.568737 202.742499 
L 306.775066 206.176047 
L 304.96979 206.911846 
L 301.362724 209.869664 
L 299.54551 211.037762 
L 297.73758 212.928292 
L 295.944242 216.51197 
L 294.127693 219.387661 
L 292.36221 220.499054 
L 290.594737 221.467617 
L 287.033262 224.482975 
L 285.252524 226.755985 
L 283.47245 230.235976 
L 281.663195 232.385319 
L 278.13886 234.888925 
L 276.379345 237.107932 
L 274.6258 238.87763 
L 272.87756 240.979989 
L 271.124014 242.688122 
L 269.363174 244.182941 
L 267.603659 244.865057 
L 265.860725 245.919882 
L 262.236908 250.06621 
L 260.415051 251.623133 
L 258.669729 253.887309 
L 256.923479 255.969147 
L 255.180545 257.596545 
L 253.364657 258.715424 
L 251.563028 260.480269 
L 249.757089 261.932881 
L 248.004206 262.721823 
L 246.242039 263.956075 
L 244.489819 265.503007 
L 242.667963 266.423633 
L 240.865339 268.795741 
L 239.064706 270.969385 
L 237.239533 272.010203 
L 233.737747 275.217627 
L 231.99614 276.284198 
L 230.174283 276.825921 
L 228.358394 278.174391 
L 226.541843 278.45337 
L 224.802888 279.269364 
L 223.061943 279.581454 
L 221.320336 280.490385 
L 219.576075 280.436922 
L 217.817887 281.002542 
L 216.045805 280.677035 
L 214.266394 280.224181 
L 212.500911 280.137759 
L 210.748692 280.74005 
L 209.009074 280.97154 
L 207.261497 281.021662 
L 205.503972 280.620821 
L 203.75308 280.586191 
L 200.266548 281.994874 
L 198.522288 282.041689 
L 196.707063 282.696988 
L 194.889849 283.129304 
L 189.572839 281.983297 
L 186.019322 280.491448 
L 184.214046 280.058542 
L 182.416065 279.942586 
L 180.616094 280.533706 
L 178.874487 280.486757 
L 175.359437 281.694176 
L 171.791589 282.942367 
L 168.307047 283.620061 
L 166.548196 283.21409 
L 164.797967 283.509995 
L 162.986721 284.005428 
L 161.193383 285.029673 
L 159.38678 285.207514 
L 155.871067 285.941372 
L 154.08834 285.977183 
L 152.311582 286.740962 
L 150.55273 286.848109 
L 148.742811 287.711592 
L 146.949473 288.030669 
L 145.133585 288.70249 
L 143.387998 288.662983 
L 141.643737 289.147953 
L 139.822544 289.240636 
L 138.023236 289.626644 
L 136.245483 290.435685 
L 134.459109 290.999854 
L 132.718827 291.06 
L 130.954007 290.48736 
L 129.183767 290.20892 
L 127.424253 290.122768 
L 125.599743 289.861104 
L 123.806736 289.373991 
L 122.020693 289.492124 
L 120.21608 289.230359 
L 118.39157 288.762603 
L 116.566397 288.993536 
L 114.818157 288.884348 
L 113.056653 289.002312 
L 109.477934 286.764943 
L 107.695207 286.766681 
L 105.916128 287.051955 
L 104.110852 285.31952 
L 102.287005 283.979287 
L 100.538765 281.819143 
L 98.78323 278.91213 
L 97.038306 275.631413 
L 95.242647 273.262276 
L 93.457598 269.932415 
L 91.654311 265.537603 
L 89.84174 260.531471 
L 88.023199 253.670848 
L 86.275622 246.058503 
L 84.533165 233.148879 
L 82.773982 205.948355 
L 81.016125 176.233423 
L 79.235056 143.032021 
L 77.479521 121.28869 
L 77.421158 121.479863 
L 77.092534 122.262375 
L 76.677733 125.379227 
L 76.677733 125.379227 
" clip-path="url(#paddf3e61f3)" style="fill: none; stroke: #ff0000; stroke-width: 2; stroke-linecap: square"/>
   </g>
   <g id="line2d_30">
    <path d="M 250.921254 122.669525 
L 250.921254 124.015767 
L 250.921254 122.328569 
L 250.922586 123.929314 
L 251.152798 124.749106 
L 252.92968 105.198044 
L 254.744905 99.036235 
L 256.511715 103.24946 
L 258.326276 112.071485 
L 260.097066 138.510691 
L 261.904995 137.738575 
L 263.691701 136.60234 
L 265.557994 141.381657 
L 267.334752 140.582911 
L 269.134723 143.242857 
L 270.92375 128.957021 
L 272.695201 117.326067 
L 274.490198 118.192019 
L 276.24308 121.116312 
L 278.068916 123.18681 
L 279.891436 125.660714 
L 281.707988 126.991582 
L 285.222719 121.998161 
L 287.023021 121.629355 
L 290.559957 121.840981 
L 292.328093 122.369406 
L 294.078986 123.190666 
L 295.890231 122.779361 
L 297.698824 122.88108 
L 299.509406 122.694364 
L 301.311366 121.956507 
L 303.117969 120.928683 
L 304.85825 121.215307 
L 306.617102 121.942508 
L 308.403808 123.087654 
L 313.731429 123.984622 
L 315.540685 122.707167 
L 317.361216 121.697638 
L 319.121393 122.372885 
L 322.69348 123.159126 
L 324.463606 123.726084 
L 326.256877 123.735459 
L 328.006775 122.209588 
L 329.775906 121.783601 
L 331.566923 121.763006 
L 333.378169 121.233804 
L 336.942959 121.463158 
L 340.544233 119.061922 
L 342.370069 118.741826 
L 344.122951 117.650697 
L 347.617441 116.071227 
L 349.365681 114.856686 
L 351.110604 113.791466 
L 352.852212 113.309205 
L 354.598462 112.671592 
L 356.423635 111.554595 
L 358.240186 110.735 
L 360.057401 109.285274 
L 361.801661 107.703779 
L 363.55587 105.878188 
L 365.325333 104.863596 
L 368.870227 102.183938 
L 370.636819 101.225826 
L 372.385059 99.987254 
L 374.198294 98.027735 
L 376.008213 96.426529 
L 379.570351 93.629683 
L 381.32456 91.76683 
L 383.084075 90.331685 
L 384.840273 89.401743 
L 386.66014 87.904494 
L 388.450494 85.798354 
L 390.23289 83.944411 
L 393.775795 80.509783 
L 395.530003 79.225578 
L 397.278243 77.806904 
L 399.10209 75.959441 
L 402.739834 71.659676 
L 404.496696 69.746869 
L 406.272128 68.068168 
L 408.034958 66.58712 
L 409.851509 64.356772 
L 411.631252 60.478234 
L 413.431772 57.358831 
L 415.195929 55.811764 
L 416.99192 54.487866 
L 418.768015 54.219713 
L 420.581914 55.312053 
L 422.345739 54.472028 
L 424.097958 52.509672 
L 424.318809 51.818967 
L 425.405418 46.28489 
L 425.277811 46.30153 
L 425.128732 44.486186 
L 425.01041 45.087313 
L 424.922927 39.46 
L 424.777227 59.89284 
L 424.770823 58.713743 
L 423.027806 59.455428 
L 421.242592 70.597447 
L 419.416092 78.584711 
L 417.557758 74.539843 
L 415.721311 73.899563 
L 413.906086 73.69737 
L 412.027193 74.161295 
L 410.27431 73.188083 
L 408.429241 71.611988 
L 406.61269 68.453184 
L 404.812056 77.003031 
L 403.025349 83.580669 
L 401.247928 87.282075 
L 399.431377 91.796774 
L 397.640691 95.175238 
L 395.862607 97.274763 
L 394.02019 96.696249 
L 392.193691 96.949054 
L 390.443523 97.608828 
L 388.605086 98.460397 
L 386.789861 100.224828 
L 385.011113 103.991307 
L 383.271827 111.941715 
L 381.510986 116.199357 
L 379.728922 118.890356 
L 377.909718 119.121795 
L 376.156836 119.779464 
L 374.358192 121.750324 
L 372.608625 124.196146 
L 370.822914 126.217771 
L 369.073348 129.761486 
L 367.322787 132.155464 
L 365.570568 133.596955 
L 363.769934 136.136205 
L 361.984222 140.805354 
L 360.21277 144.454376 
L 358.408156 146.160079 
L 356.625429 147.316296 
L 354.813521 148.655315 
L 353.014876 148.856225 
L 351.206947 149.752837 
L 349.433505 153.182062 
L 347.619938 157.176167 
L 345.8349 159.352558 
L 342.317198 161.555119 
L 336.931208 169.41318 
L 335.112667 172.598852 
L 333.35249 174.52759 
L 331.586343 175.101373 
L 329.844072 176.773189 
L 326.233519 182.251313 
L 322.666739 186.43767 
L 320.911867 188.09423 
L 319.164953 190.04727 
L 315.681738 194.383757 
L 313.930845 197.116879 
L 312.160056 198.784307 
L 310.391257 200.128186 
L 308.568737 202.742499 
L 306.775066 206.176047 
L 304.96979 206.911846 
L 301.362724 209.869664 
L 299.54551 211.037762 
L 297.73758 212.928292 
L 295.944242 216.51197 
L 294.127693 219.387661 
L 292.36221 220.499054 
L 290.594737 221.467617 
L 287.033262 224.482975 
L 285.252524 226.755985 
L 283.47245 230.235976 
L 281.663195 232.385319 
L 278.13886 234.888925 
L 276.379345 237.107932 
L 274.6258 238.87763 
L 272.87756 240.979989 
L 271.124014 242.688122 
L 269.363174 244.182941 
L 267.603659 244.865057 
L 265.860725 245.919882 
L 262.236908 250.06621 
L 260.415051 251.623133 
L 258.669729 253.887309 
L 256.923479 255.969147 
L 255.180545 257.596545 
L 253.364657 258.715424 
L 251.563028 260.480269 
L 249.757089 261.932881 
L 248.004206 262.721823 
L 246.242039 263.956075 
L 244.489819 265.503007 
L 242.667963 266.423633 
L 240.865339 268.795741 
L 239.064706 270.969385 
L 237.239533 272.010203 
L 233.737747 275.217627 
L 231.99614 276.284198 
L 230.174283 276.825921 
L 228.358394 278.174391 
L 226.541843 278.45337 
L 224.802888 279.269364 
L 223.061943 279.581454 
L 221.320336 280.490385 
L 219.576075 280.436922 
L 217.817887 281.002542 
L 216.045805 280.677035 
L 214.266394 280.224181 
L 212.500911 280.137759 
L 210.748692 280.74005 
L 209.009074 280.97154 
L 207.261497 281.021662 
L 205.503972 280.620821 
L 203.75308 280.586191 
L 200.266548 281.994874 
L 198.522288 282.041689 
L 196.707063 282.696988 
L 194.889849 283.129304 
L 189.572839 281.983297 
L 186.019322 280.491448 
L 184.214046 280.058542 
L 182.416065 279.942586 
L 180.616094 280.533706 
L 178.874487 280.486757 
L 175.359437 281.694176 
L 171.791589 282.942367 
L 168.307047 283.620061 
L 166.548196 283.21409 
L 164.797967 283.509995 
L 162.986721 284.005428 
L 161.193383 285.029673 
L 159.38678 285.207514 
L 155.871067 285.941372 
L 154.08834 285.977183 
L 152.311582 286.740962 
L 150.55273 286.848109 
L 148.742811 287.711592 
L 146.949473 288.030669 
L 145.133585 288.70249 
L 143.387998 288.662983 
L 141.643737 289.147953 
L 139.822544 289.240636 
L 138.023236 289.626644 
L 136.245483 290.435685 
L 134.459109 290.999854 
L 132.718827 291.06 
L 130.954007 290.48736 
L 129.183767 290.20892 
L 127.424253 290.122768 
L 125.599743 289.861104 
L 123.806736 289.373991 
L 122.020693 289.492124 
L 120.21608 289.230359 
L 118.39157 288.762603 
L 116.566397 288.993536 
L 114.818157 288.884348 
L 113.056653 289.002312 
L 109.477934 286.764943 
L 107.695207 286.766681 
L 105.916128 287.051955 
L 104.110852 285.31952 
L 102.287005 283.979287 
L 100.538765 281.819143 
L 98.78323 278.91213 
L 97.038306 275.631413 
L 95.242647 273.262276 
L 93.457598 269.932415 
L 91.654311 265.537603 
L 89.84174 260.531471 
L 88.023199 253.670848 
L 86.275622 246.058503 
L 84.533165 233.148879 
L 82.773982 205.948355 
L 81.016125 176.233423 
L 79.235056 143.032021 
L 77.479521 121.28869 
L 77.421158 121.479863 
L 77.092534 122.262375 
L 76.677733 125.379227 
L 76.677733 125.379227 
" clip-path="url(#paddf3e61f3)" style="fill: none; stroke: #000000; stroke-width: 2; stroke-linecap: square"/>
   </g>
   <g id="patch_3">
    <path d="M 59.24 303.64 
L 59.24 26.88 
" style="fill: none; stroke: #000000; stroke-width: 0.8; stroke-linejoin: miter; stroke-linecap: square"/>
   </g>
   <g id="patch_4">
    <path d="M 442.841866 303.64 
L 442.841866 26.88 
" style="fill: none; stroke: #000000; stroke-width: 0.8; stroke-linejoin: miter; stroke-linecap: square"/>
   </g>
   <g id="patch_5">
    <path d="M 59.24 303.64 
L 442.841866 303.64 
" style="fill: none; stroke: #000000; stroke-width: 0.8; stroke-linejoin: miter; stroke-linecap: square"/>
   </g>
   <g id="patch_6">
    <path d="M 59.24 26.88 
L 442.841866 26.88 
" style="fill: none; stroke: #000000; stroke-width: 0.8; stroke-linejoin: miter; stroke-linecap: square"/>
   </g>
   <g id="text_17">
    <!-- 2025-06-16 Trial 1 - Stress vs Strain -->
    <g transform="translate(143.604371 20.88) scale(0.12 -0.12)">
     <defs>
      <path id="DejaVuSans-36" d="M 2113 2584 
Q 1688 2584 1439 2293 
Q 1191 2003 1191 1497 
Q 1191 994 1439 701 
Q 1688 409 2113 409 
Q 2538 409 2786 701 
Q 3034 994 3034 1497 
Q 3034 2003 2786 2293 
Q 2538 2584 2113 2584 
z
M 3366 4563 
L 3366 3988 
Q 3128 4100 2886 4159 
Q 2644 4219 2406 4219 
Q 1781 4219 1451 3797 
Q 1122 3375 1075 2522 
Q 1259 2794 1537 2939 
Q 1816 3084 2150 3084 
Q 2853 3084 3261 2657 
Q 3669 2231 3669 1497 
Q 3669 778 3244 343 
Q 2819 -91 2113 -91 
Q 1303 -91 875 529 
Q 447 1150 447 2328 
Q 447 3434 972 4092 
Q 1497 4750 2381 4750 
Q 2619 4750 2861 4703 
Q 3103 4656 3366 4563 
z
" transform="scale(0.015625)"/>
      <path id="DejaVuSans-54" d="M -19 4666 
L 3928 4666 
L 3928 4134 
L 2272 4134 
L 2272 0 
L 1638 0 
L 1638 4134 
L -19 4134 
L -19 4666 
z
" transform="scale(0.015625)"/>
      <path id="DejaVuSans-6c" d="M 603 4863 
L 1178 4863 
L 1178 0 
L 603 0 
L 603 4863 
z
" transform="scale(0.015625)"/>
      <path id="DejaVuSans-76" d="M 191 3500 
L 800 3500 
L 1894 563 
L 2988 3500 
L 3597 3500 
L 2284 0 
L 1503 0 
L 191 3500 
z
" transform="scale(0.015625)"/>
     </defs>
     <use xlink:href="#DejaVuSans-32"/>
     <use xlink:href="#DejaVuSans-30" transform="translate(63.623047 0)"/>
     <use xlink:href="#DejaVuSans-32" transform="translate(127.246094 0)"/>
     <use xlink:href="#DejaVuSans-35" transform="translate(190.869141 0)"/>
     <use xlink:href="#DejaVuSans-2d" transform="translate(254.492188 0)"/>
     <use xlink:href="#DejaVuSans-30" transform="translate(290.576172 0)"/>
     <use xlink:href="#DejaVuSans-36" transform="translate(354.199219 0)"/>
     <use xlink:href="#DejaVuSans-2d" transform="translate(417.822266 0)"/>
     <use xlink:href="#DejaVuSans-31" transform="translate(453.90625 0)"/>
     <use xlink:href="#DejaVuSans-36" transform="translate(517.529297 0)"/>
     <use xlink:href="#DejaVuSans-20" transform="translate(581.152344 0)"/>
     <use xlink:href="#DejaVuSans-54" transform="translate(612.939453 0)"/>
     <use xlink:href="#DejaVuSans-72" transform="translate(659.273438 0)"/>
     <use xlink:href="#DejaVuSans-69" transform="translate(700.386719 0)"/>
     <use xlink:href="#DejaVuSans-61" transform="translate(728.169922 0)"/>
     <use xlink:href="#DejaVuSans-6c" transform="translate(789.449219 0)"/>
     <use xlink:href="#DejaVuSans-20" transform="translate(817.232422 0)"/>
     <use xlink:href="#DejaVuSans-31" transform="translate(849.019531 0)"/>
     <use xlink:href="#DejaVuSans-20" transform="translate(912.642578 0)"/>
     <use xlink:href="#DejaVuSans-2d" transform="translate(944.429688 0)"/>
     <use xlink:href="#DejaVuSans-20" transform="translate(980.513672 0)"/>
     <use xlink:href="#DejaVuSans-53" transform="translate(1012.300781 0)"/>
     <use xlink:href="#DejaVuSans-74" transform="translate(1075.777344 0)"/>
     <use xlink:href="#DejaVuSans-72" transform="translate(1114.986328 0)"/>
     <use xlink:href="#DejaVuSans-65" transform="translate(1153.849609 0)"/>
     <use xlink:href="#DejaVuSans-73" transform="translate(1215.373047 0)"/>
     <use xlink:href="#DejaVuSans-73" transform="translate(1267.472656 0)"/>
     <use xlink:href="#DejaVuSans-20" transform="translate(1319.572266 0)"/>
     <use xlink:href="#DejaVuSans-76" transform="translate(1351.359375 0)"/>
     <use xlink:href="#DejaVuSans-73" transform="translate(1410.539062 0)"/>
     <use xlink:href="#DejaVuSans-20" transform="translate(1462.638672 0)"/>
     <use xlink:href="#DejaVuSans-53" transform="translate(1494.425781 0)"/>
     <use xlink:href="#DejaVuSans-74" transform="translate(1557.902344 0)"/>
     <use xlink:href="#DejaVuSans-72" transform="translate(1597.111328 0)"/>
     <use xlink:href="#DejaVuSans-61" transform="translate(1638.224609 0)"/>
     <use xlink:href="#DejaVuSans-69" transform="translate(1699.503906 0)"/>
     <use xlink:href="#DejaVuSans-6e" transform="translate(1727.287109 0)"/>
    </g>
   </g>
   <g id="legend_1">
    <g id="patch_7">
     <path d="M 66.24 64.23625 
L 172.224375 64.23625 
Q 174.224375 64.23625 174.224375 62.23625 
L 174.224375 33.88 
Q 174.224375 31.88 172.224375 31.88 
L 66.24 31.88 
Q 64.24 31.88 64.24 33.88 
L 64.24 62.23625 
Q 64.24 64.23625 66.24 64.23625 
z
" style="fill: #ffffff; opacity: 0.8; stroke: #cccccc; stroke-linejoin: miter"/>
    </g>
    <g id="line2d_31">
     <path d="M 68.24 39.978437 
L 78.24 39.978437 
L 88.24 39.978437 
" style="fill: none; stroke: #ff0000; stroke-width: 2; stroke-linecap: square"/>
    </g>
    <g id="text_18">
     <!-- Raw Force -->
     <g transform="translate(96.24 43.478437) scale(0.1 -0.1)">
      <defs>
       <path id="DejaVuSans-52" d="M 2841 2188 
Q 3044 2119 3236 1894 
Q 3428 1669 3622 1275 
L 4263 0 
L 3584 0 
L 2988 1197 
Q 2756 1666 2539 1819 
Q 2322 1972 1947 1972 
L 1259 1972 
L 1259 0 
L 628 0 
L 628 4666 
L 2053 4666 
Q 2853 4666 3247 4331 
Q 3641 3997 3641 3322 
Q 3641 2881 3436 2590 
Q 3231 2300 2841 2188 
z
M 1259 4147 
L 1259 2491 
L 2053 2491 
Q 2509 2491 2742 2702 
Q 2975 2913 2975 3322 
Q 2975 3731 2742 3939 
Q 2509 4147 2053 4147 
L 1259 4147 
z
" transform="scale(0.015625)"/>
       <path id="DejaVuSans-77" d="M 269 3500 
L 844 3500 
L 1563 769 
L 2278 3500 
L 2956 3500 
L 3675 769 
L 4391 3500 
L 4966 3500 
L 4050 0 
L 3372 0 
L 2619 2869 
L 1863 0 
L 1184 0 
L 269 3500 
z
" transform="scale(0.015625)"/>
       <path id="DejaVuSans-46" d="M 628 4666 
L 3309 4666 
L 3309 4134 
L 1259 4134 
L 1259 2759 
L 3109 2759 
L 3109 2228 
L 1259 2228 
L 1259 0 
L 628 0 
L 628 4666 
z
" transform="scale(0.015625)"/>
       <path id="DejaVuSans-6f" d="M 1959 3097 
Q 1497 3097 1228 2736 
Q 959 2375 959 1747 
Q 959 1119 1226 758 
Q 1494 397 1959 397 
Q 2419 397 2687 759 
Q 2956 1122 2956 1747 
Q 2956 2369 2687 2733 
Q 2419 3097 1959 3097 
z
M 1959 3584 
Q 2709 3584 3137 3096 
Q 3566 2609 3566 1747 
Q 3566 888 3137 398 
Q 2709 -91 1959 -91 
Q 1206 -91 779 398 
Q 353 888 353 1747 
Q 353 2609 779 3096 
Q 1206 3584 1959 3584 
z
" transform="scale(0.015625)"/>
       <path id="DejaVuSans-63" d="M 3122 3366 
L 3122 2828 
Q 2878 2963 2633 3030 
Q 2388 3097 2138 3097 
Q 1578 3097 1268 2742 
Q 959 2388 959 1747 
Q 959 1106 1268 751 
Q 1578 397 2138 397 
Q 2388 397 2633 464 
Q 2878 531 3122 666 
L 3122 134 
Q 2881 22 2623 -34 
Q 2366 -91 2075 -91 
Q 1284 -91 818 406 
Q 353 903 353 1747 
Q 353 2603 823 3093 
Q 1294 3584 2113 3584 
Q 2378 3584 2631 3529 
Q 2884 3475 3122 3366 
z
" transform="scale(0.015625)"/>
      </defs>
      <use xlink:href="#DejaVuSans-52"/>
      <use xlink:href="#DejaVuSans-61" transform="translate(67.232422 0)"/>
      <use xlink:href="#DejaVuSans-77" transform="translate(128.511719 0)"/>
      <use xlink:href="#DejaVuSans-20" transform="translate(210.298828 0)"/>
      <use xlink:href="#DejaVuSans-46" transform="translate(242.085938 0)"/>
      <use xlink:href="#DejaVuSans-6f" transform="translate(295.980469 0)"/>
      <use xlink:href="#DejaVuSans-72" transform="translate(357.162109 0)"/>
      <use xlink:href="#DejaVuSans-63" transform="translate(396.025391 0)"/>
      <use xlink:href="#DejaVuSans-65" transform="translate(451.005859 0)"/>
     </g>
    </g>
    <g id="line2d_32">
     <path d="M 68.24 54.656563 
L 78.24 54.656563 
L 88.24 54.656563 
" style="fill: none; stroke: #000000; stroke-width: 2; stroke-linecap: square"/>
    </g>
    <g id="text_19">
     <!-- Adjusted Force -->
     <g transform="translate(96.24 58.156563) scale(0.1 -0.1)">
      <defs>
       <path id="DejaVuSans-41" d="M 2188 4044 
L 1331 1722 
L 3047 1722 
L 2188 4044 
z
M 1831 4666 
L 2547 4666 
L 4325 0 
L 3669 0 
L 3244 1197 
L 1141 1197 
L 716 0 
L 50 0 
L 1831 4666 
z
" transform="scale(0.015625)"/>
       <path id="DejaVuSans-64" d="M 2906 2969 
L 2906 4863 
L 3481 4863 
L 3481 0 
L 2906 0 
L 2906 525 
Q 2725 213 2448 61 
Q 2172 -91 1784 -91 
Q 1150 -91 751 415 
Q 353 922 353 1747 
Q 353 2572 751 3078 
Q 1150 3584 1784 3584 
Q 2172 3584 2448 3432 
Q 2725 3281 2906 2969 
z
M 947 1747 
Q 947 1113 1208 752 
Q 1469 391 1925 391 
Q 2381 391 2643 752 
Q 2906 1113 2906 1747 
Q 2906 2381 2643 2742 
Q 2381 3103 1925 3103 
Q 1469 3103 1208 2742 
Q 947 2381 947 1747 
z
" transform="scale(0.015625)"/>
       <path id="DejaVuSans-6a" d="M 603 3500 
L 1178 3500 
L 1178 -63 
Q 1178 -731 923 -1031 
Q 669 -1331 103 -1331 
L -116 -1331 
L -116 -844 
L 38 -844 
Q 366 -844 484 -692 
Q 603 -541 603 -63 
L 603 3500 
z
M 603 4863 
L 1178 4863 
L 1178 4134 
L 603 4134 
L 603 4863 
z
" transform="scale(0.015625)"/>
       <path id="DejaVuSans-75" d="M 544 1381 
L 544 3500 
L 1119 3500 
L 1119 1403 
Q 1119 906 1312 657 
Q 1506 409 1894 409 
Q 2359 409 2629 706 
Q 2900 1003 2900 1516 
L 2900 3500 
L 3475 3500 
L 3475 0 
L 2900 0 
L 2900 538 
Q 2691 219 2414 64 
Q 2138 -91 1772 -91 
Q 1169 -91 856 284 
Q 544 659 544 1381 
z
M 1991 3584 
L 1991 3584 
z
" transform="scale(0.015625)"/>
      </defs>
      <use xlink:href="#DejaVuSans-41"/>
      <use xlink:href="#DejaVuSans-64" transform="translate(66.658203 0)"/>
      <use xlink:href="#DejaVuSans-6a" transform="translate(130.134766 0)"/>
      <use xlink:href="#DejaVuSans-75" transform="translate(157.917969 0)"/>
      <use xlink:href="#DejaVuSans-73" transform="translate(221.296875 0)"/>
      <use xlink:href="#DejaVuSans-74" transform="translate(273.396484 0)"/>
      <use xlink:href="#DejaVuSans-65" transform="translate(312.605469 0)"/>
      <use xlink:href="#DejaVuSans-64" transform="translate(374.128906 0)"/>
      <use xlink:href="#DejaVuSans-20" transform="translate(437.605469 0)"/>
      <use xlink:href="#DejaVuSans-46" transform="translate(469.392578 0)"/>
      <use xlink:href="#DejaVuSans-6f" transform="translate(523.287109 0)"/>
      <use xlink:href="#DejaVuSans-72" transform="translate(584.46875 0)"/>
      <use xlink:href="#DejaVuSans-63" transform="translate(623.332031 0)"/>
      <use xlink:href="#DejaVuSans-65" transform="translate(678.3125 0)"/>
     </g>
    </g>
   </g>
  </g>
 </g>
 <defs>
  <clipPath id="paddf3e61f3">
   <rect x="59.24" y="26.88" width="383.601866" height="276.76"/>
  </clipPath>
 </defs>
</svg>
