<?xml version="1.0" encoding="utf-8" standalone="no"?>
<!DOCTYPE svg PUBLIC "-//W3C//DTD SVG 1.1//EN"
  "http://www.w3.org/Graphics/SVG/1.1/DTD/svg11.dtd">
<svg xmlns:xlink="http://www.w3.org/1999/xlink" width="460.8pt" height="345.6pt" viewBox="0 0 460.8 345.6" xmlns="http://www.w3.org/2000/svg" version="1.1">
 <metadata>
  <rdf:RDF xmlns:dc="http://purl.org/dc/elements/1.1/" xmlns:cc="http://creativecommons.org/ns#" xmlns:rdf="http://www.w3.org/1999/02/22-rdf-syntax-ns#">
   <cc:Work>
    <dc:type rdf:resource="http://purl.org/dc/dcmitype/StillImage"/>
    <dc:date>2025-07-28T21:14:03.048580</dc:date>
    <dc:format>image/svg+xml</dc:format>
    <dc:creator>
     <cc:Agent>
      <dc:title>Matplotlib v3.10.3, https://matplotlib.org/</dc:title>
     </cc:Agent>
    </dc:creator>
   </cc:Work>
  </rdf:RDF>
 </metadata>
 <defs>
  <style type="text/css">*{stroke-linejoin: round; stroke-linecap: butt}</style>
 </defs>
 <g id="figure_1">
  <g id="patch_1">
   <path d="M 0 345.6 
L 460.8 345.6 
L 460.8 0 
L 0 0 
z
" style="fill: #ffffff"/>
  </g>
  <g id="axes_1">
   <g id="patch_2">
    <path d="M 59.15 303.64 
L 450 303.64 
L 450 26.88 
L 59.15 26.88 
z
" style="fill: #ffffff"/>
   </g>
   <g id="matplotlib.axis_1">
    <g id="xtick_1">
     <g id="line2d_1">
      <path d="M 61.475399 303.64 
L 61.475399 26.88 
" clip-path="url(#pfc6032dcae)" style="fill: none; stroke: #b0b0b0; stroke-opacity: 0.3; stroke-width: 0.8; stroke-linecap: square"/>
     </g>
     <g id="line2d_2">
      <defs>
       <path id="m460e76edca" d="M 0 0 
L 0 3.5 
" style="stroke: #000000; stroke-width: 0.8"/>
      </defs>
      <g>
       <use xlink:href="#m460e76edca" x="61.475399" y="303.64" style="stroke: #000000; stroke-width: 0.8"/>
      </g>
     </g>
     <g id="text_1">
      <!-- −0.05 -->
      <g transform="translate(46.152742 318.238437) scale(0.1 -0.1)">
       <defs>
        <path id="DejaVuSans-2212" d="M 678 2272 
L 4684 2272 
L 4684 1741 
L 678 1741 
L 678 2272 
z
" transform="scale(0.015625)"/>
        <path id="DejaVuSans-30" d="M 2034 4250 
Q 1547 4250 1301 3770 
Q 1056 3291 1056 2328 
Q 1056 1369 1301 889 
Q 1547 409 2034 409 
Q 2525 409 2770 889 
Q 3016 1369 3016 2328 
Q 3016 3291 2770 3770 
Q 2525 4250 2034 4250 
z
M 2034 4750 
Q 2819 4750 3233 4129 
Q 3647 3509 3647 2328 
Q 3647 1150 3233 529 
Q 2819 -91 2034 -91 
Q 1250 -91 836 529 
Q 422 1150 422 2328 
Q 422 3509 836 4129 
Q 1250 4750 2034 4750 
z
" transform="scale(0.015625)"/>
        <path id="DejaVuSans-2e" d="M 684 794 
L 1344 794 
L 1344 0 
L 684 0 
L 684 794 
z
" transform="scale(0.015625)"/>
        <path id="DejaVuSans-35" d="M 691 4666 
L 3169 4666 
L 3169 4134 
L 1269 4134 
L 1269 2991 
Q 1406 3038 1543 3061 
Q 1681 3084 1819 3084 
Q 2600 3084 3056 2656 
Q 3513 2228 3513 1497 
Q 3513 744 3044 326 
Q 2575 -91 1722 -91 
Q 1428 -91 1123 -41 
Q 819 9 494 109 
L 494 744 
Q 775 591 1075 516 
Q 1375 441 1709 441 
Q 2250 441 2565 725 
Q 2881 1009 2881 1497 
Q 2881 1984 2565 2268 
Q 2250 2553 1709 2553 
Q 1456 2553 1204 2497 
Q 953 2441 691 2322 
L 691 4666 
z
" transform="scale(0.015625)"/>
       </defs>
       <use xlink:href="#DejaVuSans-2212"/>
       <use xlink:href="#DejaVuSans-30" transform="translate(83.789062 0)"/>
       <use xlink:href="#DejaVuSans-2e" transform="translate(147.412109 0)"/>
       <use xlink:href="#DejaVuSans-30" transform="translate(179.199219 0)"/>
       <use xlink:href="#DejaVuSans-35" transform="translate(242.822266 0)"/>
      </g>
     </g>
    </g>
    <g id="xtick_2">
     <g id="line2d_3">
      <path d="M 121.393425 303.64 
L 121.393425 26.88 
" clip-path="url(#pfc6032dcae)" style="fill: none; stroke: #b0b0b0; stroke-opacity: 0.3; stroke-width: 0.8; stroke-linecap: square"/>
     </g>
     <g id="line2d_4">
      <g>
       <use xlink:href="#m460e76edca" x="121.393425" y="303.64" style="stroke: #000000; stroke-width: 0.8"/>
      </g>
     </g>
     <g id="text_2">
      <!-- 0.00 -->
      <g transform="translate(110.260613 318.238437) scale(0.1 -0.1)">
       <use xlink:href="#DejaVuSans-30"/>
       <use xlink:href="#DejaVuSans-2e" transform="translate(63.623047 0)"/>
       <use xlink:href="#DejaVuSans-30" transform="translate(95.410156 0)"/>
       <use xlink:href="#DejaVuSans-30" transform="translate(159.033203 0)"/>
      </g>
     </g>
    </g>
    <g id="xtick_3">
     <g id="line2d_5">
      <path d="M 181.311452 303.64 
L 181.311452 26.88 
" clip-path="url(#pfc6032dcae)" style="fill: none; stroke: #b0b0b0; stroke-opacity: 0.3; stroke-width: 0.8; stroke-linecap: square"/>
     </g>
     <g id="line2d_6">
      <g>
       <use xlink:href="#m460e76edca" x="181.311452" y="303.64" style="stroke: #000000; stroke-width: 0.8"/>
      </g>
     </g>
     <g id="text_3">
      <!-- 0.05 -->
      <g transform="translate(170.178639 318.238437) scale(0.1 -0.1)">
       <use xlink:href="#DejaVuSans-30"/>
       <use xlink:href="#DejaVuSans-2e" transform="translate(63.623047 0)"/>
       <use xlink:href="#DejaVuSans-30" transform="translate(95.410156 0)"/>
       <use xlink:href="#DejaVuSans-35" transform="translate(159.033203 0)"/>
      </g>
     </g>
    </g>
    <g id="xtick_4">
     <g id="line2d_7">
      <path d="M 241.229479 303.64 
L 241.229479 26.88 
" clip-path="url(#pfc6032dcae)" style="fill: none; stroke: #b0b0b0; stroke-opacity: 0.3; stroke-width: 0.8; stroke-linecap: square"/>
     </g>
     <g id="line2d_8">
      <g>
       <use xlink:href="#m460e76edca" x="241.229479" y="303.64" style="stroke: #000000; stroke-width: 0.8"/>
      </g>
     </g>
     <g id="text_4">
      <!-- 0.10 -->
      <g transform="translate(230.096666 318.238437) scale(0.1 -0.1)">
       <defs>
        <path id="DejaVuSans-31" d="M 794 531 
L 1825 531 
L 1825 4091 
L 703 3866 
L 703 4441 
L 1819 4666 
L 2450 4666 
L 2450 531 
L 3481 531 
L 3481 0 
L 794 0 
L 794 531 
z
" transform="scale(0.015625)"/>
       </defs>
       <use xlink:href="#DejaVuSans-30"/>
       <use xlink:href="#DejaVuSans-2e" transform="translate(63.623047 0)"/>
       <use xlink:href="#DejaVuSans-31" transform="translate(95.410156 0)"/>
       <use xlink:href="#DejaVuSans-30" transform="translate(159.033203 0)"/>
      </g>
     </g>
    </g>
    <g id="xtick_5">
     <g id="line2d_9">
      <path d="M 301.147505 303.64 
L 301.147505 26.88 
" clip-path="url(#pfc6032dcae)" style="fill: none; stroke: #b0b0b0; stroke-opacity: 0.3; stroke-width: 0.8; stroke-linecap: square"/>
     </g>
     <g id="line2d_10">
      <g>
       <use xlink:href="#m460e76edca" x="301.147505" y="303.64" style="stroke: #000000; stroke-width: 0.8"/>
      </g>
     </g>
     <g id="text_5">
      <!-- 0.15 -->
      <g transform="translate(290.014693 318.238437) scale(0.1 -0.1)">
       <use xlink:href="#DejaVuSans-30"/>
       <use xlink:href="#DejaVuSans-2e" transform="translate(63.623047 0)"/>
       <use xlink:href="#DejaVuSans-31" transform="translate(95.410156 0)"/>
       <use xlink:href="#DejaVuSans-35" transform="translate(159.033203 0)"/>
      </g>
     </g>
    </g>
    <g id="xtick_6">
     <g id="line2d_11">
      <path d="M 361.065532 303.64 
L 361.065532 26.88 
" clip-path="url(#pfc6032dcae)" style="fill: none; stroke: #b0b0b0; stroke-opacity: 0.3; stroke-width: 0.8; stroke-linecap: square"/>
     </g>
     <g id="line2d_12">
      <g>
       <use xlink:href="#m460e76edca" x="361.065532" y="303.64" style="stroke: #000000; stroke-width: 0.8"/>
      </g>
     </g>
     <g id="text_6">
      <!-- 0.20 -->
      <g transform="translate(349.932719 318.238437) scale(0.1 -0.1)">
       <defs>
        <path id="DejaVuSans-32" d="M 1228 531 
L 3431 531 
L 3431 0 
L 469 0 
L 469 531 
Q 828 903 1448 1529 
Q 2069 2156 2228 2338 
Q 2531 2678 2651 2914 
Q 2772 3150 2772 3378 
Q 2772 3750 2511 3984 
Q 2250 4219 1831 4219 
Q 1534 4219 1204 4116 
Q 875 4013 500 3803 
L 500 4441 
Q 881 4594 1212 4672 
Q 1544 4750 1819 4750 
Q 2544 4750 2975 4387 
Q 3406 4025 3406 3419 
Q 3406 3131 3298 2873 
Q 3191 2616 2906 2266 
Q 2828 2175 2409 1742 
Q 1991 1309 1228 531 
z
" transform="scale(0.015625)"/>
       </defs>
       <use xlink:href="#DejaVuSans-30"/>
       <use xlink:href="#DejaVuSans-2e" transform="translate(63.623047 0)"/>
       <use xlink:href="#DejaVuSans-32" transform="translate(95.410156 0)"/>
       <use xlink:href="#DejaVuSans-30" transform="translate(159.033203 0)"/>
      </g>
     </g>
    </g>
    <g id="xtick_7">
     <g id="line2d_13">
      <path d="M 420.983558 303.64 
L 420.983558 26.88 
" clip-path="url(#pfc6032dcae)" style="fill: none; stroke: #b0b0b0; stroke-opacity: 0.3; stroke-width: 0.8; stroke-linecap: square"/>
     </g>
     <g id="line2d_14">
      <g>
       <use xlink:href="#m460e76edca" x="420.983558" y="303.64" style="stroke: #000000; stroke-width: 0.8"/>
      </g>
     </g>
     <g id="text_7">
      <!-- 0.25 -->
      <g transform="translate(409.850746 318.238437) scale(0.1 -0.1)">
       <use xlink:href="#DejaVuSans-30"/>
       <use xlink:href="#DejaVuSans-2e" transform="translate(63.623047 0)"/>
       <use xlink:href="#DejaVuSans-32" transform="translate(95.410156 0)"/>
       <use xlink:href="#DejaVuSans-35" transform="translate(159.033203 0)"/>
      </g>
     </g>
    </g>
    <g id="text_8">
     <!-- Strain [-] -->
     <g transform="translate(232.46875 331.916562) scale(0.1 -0.1)">
      <defs>
       <path id="DejaVuSans-53" d="M 3425 4513 
L 3425 3897 
Q 3066 4069 2747 4153 
Q 2428 4238 2131 4238 
Q 1616 4238 1336 4038 
Q 1056 3838 1056 3469 
Q 1056 3159 1242 3001 
Q 1428 2844 1947 2747 
L 2328 2669 
Q 3034 2534 3370 2195 
Q 3706 1856 3706 1288 
Q 3706 609 3251 259 
Q 2797 -91 1919 -91 
Q 1588 -91 1214 -16 
Q 841 59 441 206 
L 441 856 
Q 825 641 1194 531 
Q 1563 422 1919 422 
Q 2459 422 2753 634 
Q 3047 847 3047 1241 
Q 3047 1584 2836 1778 
Q 2625 1972 2144 2069 
L 1759 2144 
Q 1053 2284 737 2584 
Q 422 2884 422 3419 
Q 422 4038 858 4394 
Q 1294 4750 2059 4750 
Q 2388 4750 2728 4690 
Q 3069 4631 3425 4513 
z
" transform="scale(0.015625)"/>
       <path id="DejaVuSans-74" d="M 1172 4494 
L 1172 3500 
L 2356 3500 
L 2356 3053 
L 1172 3053 
L 1172 1153 
Q 1172 725 1289 603 
Q 1406 481 1766 481 
L 2356 481 
L 2356 0 
L 1766 0 
Q 1100 0 847 248 
Q 594 497 594 1153 
L 594 3053 
L 172 3053 
L 172 3500 
L 594 3500 
L 594 4494 
L 1172 4494 
z
" transform="scale(0.015625)"/>
       <path id="DejaVuSans-72" d="M 2631 2963 
Q 2534 3019 2420 3045 
Q 2306 3072 2169 3072 
Q 1681 3072 1420 2755 
Q 1159 2438 1159 1844 
L 1159 0 
L 581 0 
L 581 3500 
L 1159 3500 
L 1159 2956 
Q 1341 3275 1631 3429 
Q 1922 3584 2338 3584 
Q 2397 3584 2469 3576 
Q 2541 3569 2628 3553 
L 2631 2963 
z
" transform="scale(0.015625)"/>
       <path id="DejaVuSans-61" d="M 2194 1759 
Q 1497 1759 1228 1600 
Q 959 1441 959 1056 
Q 959 750 1161 570 
Q 1363 391 1709 391 
Q 2188 391 2477 730 
Q 2766 1069 2766 1631 
L 2766 1759 
L 2194 1759 
z
M 3341 1997 
L 3341 0 
L 2766 0 
L 2766 531 
Q 2569 213 2275 61 
Q 1981 -91 1556 -91 
Q 1019 -91 701 211 
Q 384 513 384 1019 
Q 384 1609 779 1909 
Q 1175 2209 1959 2209 
L 2766 2209 
L 2766 2266 
Q 2766 2663 2505 2880 
Q 2244 3097 1772 3097 
Q 1472 3097 1187 3025 
Q 903 2953 641 2809 
L 641 3341 
Q 956 3463 1253 3523 
Q 1550 3584 1831 3584 
Q 2591 3584 2966 3190 
Q 3341 2797 3341 1997 
z
" transform="scale(0.015625)"/>
       <path id="DejaVuSans-69" d="M 603 3500 
L 1178 3500 
L 1178 0 
L 603 0 
L 603 3500 
z
M 603 4863 
L 1178 4863 
L 1178 4134 
L 603 4134 
L 603 4863 
z
" transform="scale(0.015625)"/>
       <path id="DejaVuSans-6e" d="M 3513 2113 
L 3513 0 
L 2938 0 
L 2938 2094 
Q 2938 2591 2744 2837 
Q 2550 3084 2163 3084 
Q 1697 3084 1428 2787 
Q 1159 2491 1159 1978 
L 1159 0 
L 581 0 
L 581 3500 
L 1159 3500 
L 1159 2956 
Q 1366 3272 1645 3428 
Q 1925 3584 2291 3584 
Q 2894 3584 3203 3211 
Q 3513 2838 3513 2113 
z
" transform="scale(0.015625)"/>
       <path id="DejaVuSans-20" transform="scale(0.015625)"/>
       <path id="DejaVuSans-5b" d="M 550 4863 
L 1875 4863 
L 1875 4416 
L 1125 4416 
L 1125 -397 
L 1875 -397 
L 1875 -844 
L 550 -844 
L 550 4863 
z
" transform="scale(0.015625)"/>
       <path id="DejaVuSans-2d" d="M 313 2009 
L 1997 2009 
L 1997 1497 
L 313 1497 
L 313 2009 
z
" transform="scale(0.015625)"/>
       <path id="DejaVuSans-5d" d="M 1947 4863 
L 1947 -844 
L 622 -844 
L 622 -397 
L 1369 -397 
L 1369 4416 
L 622 4416 
L 622 4863 
L 1947 4863 
z
" transform="scale(0.015625)"/>
      </defs>
      <use xlink:href="#DejaVuSans-53"/>
      <use xlink:href="#DejaVuSans-74" transform="translate(63.476562 0)"/>
      <use xlink:href="#DejaVuSans-72" transform="translate(102.685547 0)"/>
      <use xlink:href="#DejaVuSans-61" transform="translate(143.798828 0)"/>
      <use xlink:href="#DejaVuSans-69" transform="translate(205.078125 0)"/>
      <use xlink:href="#DejaVuSans-6e" transform="translate(232.861328 0)"/>
      <use xlink:href="#DejaVuSans-20" transform="translate(296.240234 0)"/>
      <use xlink:href="#DejaVuSans-5b" transform="translate(328.027344 0)"/>
      <use xlink:href="#DejaVuSans-2d" transform="translate(367.041016 0)"/>
      <use xlink:href="#DejaVuSans-5d" transform="translate(403.125 0)"/>
     </g>
    </g>
   </g>
   <g id="matplotlib.axis_2">
    <g id="ytick_1">
     <g id="line2d_15">
      <path d="M 59.15 291.275252 
L 450 291.275252 
" clip-path="url(#pfc6032dcae)" style="fill: none; stroke: #b0b0b0; stroke-opacity: 0.3; stroke-width: 0.8; stroke-linecap: square"/>
     </g>
     <g id="line2d_16">
      <defs>
       <path id="m530f651bdd" d="M 0 0 
L -3.5 0 
" style="stroke: #000000; stroke-width: 0.8"/>
      </defs>
      <g>
       <use xlink:href="#m530f651bdd" x="59.15" y="291.275252" style="stroke: #000000; stroke-width: 0.8"/>
      </g>
     </g>
     <g id="text_9">
      <!-- −250 -->
      <g transform="translate(24.682813 295.07447) scale(0.1 -0.1)">
       <use xlink:href="#DejaVuSans-2212"/>
       <use xlink:href="#DejaVuSans-32" transform="translate(83.789062 0)"/>
       <use xlink:href="#DejaVuSans-35" transform="translate(147.412109 0)"/>
       <use xlink:href="#DejaVuSans-30" transform="translate(211.035156 0)"/>
      </g>
     </g>
    </g>
    <g id="ytick_2">
     <g id="line2d_17">
      <path d="M 59.15 258.394806 
L 450 258.394806 
" clip-path="url(#pfc6032dcae)" style="fill: none; stroke: #b0b0b0; stroke-opacity: 0.3; stroke-width: 0.8; stroke-linecap: square"/>
     </g>
     <g id="line2d_18">
      <g>
       <use xlink:href="#m530f651bdd" x="59.15" y="258.394806" style="stroke: #000000; stroke-width: 0.8"/>
      </g>
     </g>
     <g id="text_10">
      <!-- 0 -->
      <g transform="translate(45.7875 262.194025) scale(0.1 -0.1)">
       <use xlink:href="#DejaVuSans-30"/>
      </g>
     </g>
    </g>
    <g id="ytick_3">
     <g id="line2d_19">
      <path d="M 59.15 225.51436 
L 450 225.51436 
" clip-path="url(#pfc6032dcae)" style="fill: none; stroke: #b0b0b0; stroke-opacity: 0.3; stroke-width: 0.8; stroke-linecap: square"/>
     </g>
     <g id="line2d_20">
      <g>
       <use xlink:href="#m530f651bdd" x="59.15" y="225.51436" style="stroke: #000000; stroke-width: 0.8"/>
      </g>
     </g>
     <g id="text_11">
      <!-- 250 -->
      <g transform="translate(33.0625 229.313579) scale(0.1 -0.1)">
       <use xlink:href="#DejaVuSans-32"/>
       <use xlink:href="#DejaVuSans-35" transform="translate(63.623047 0)"/>
       <use xlink:href="#DejaVuSans-30" transform="translate(127.246094 0)"/>
      </g>
     </g>
    </g>
    <g id="ytick_4">
     <g id="line2d_21">
      <path d="M 59.15 192.633914 
L 450 192.633914 
" clip-path="url(#pfc6032dcae)" style="fill: none; stroke: #b0b0b0; stroke-opacity: 0.3; stroke-width: 0.8; stroke-linecap: square"/>
     </g>
     <g id="line2d_22">
      <g>
       <use xlink:href="#m530f651bdd" x="59.15" y="192.633914" style="stroke: #000000; stroke-width: 0.8"/>
      </g>
     </g>
     <g id="text_12">
      <!-- 500 -->
      <g transform="translate(33.0625 196.433133) scale(0.1 -0.1)">
       <use xlink:href="#DejaVuSans-35"/>
       <use xlink:href="#DejaVuSans-30" transform="translate(63.623047 0)"/>
       <use xlink:href="#DejaVuSans-30" transform="translate(127.246094 0)"/>
      </g>
     </g>
    </g>
    <g id="ytick_5">
     <g id="line2d_23">
      <path d="M 59.15 159.753469 
L 450 159.753469 
" clip-path="url(#pfc6032dcae)" style="fill: none; stroke: #b0b0b0; stroke-opacity: 0.3; stroke-width: 0.8; stroke-linecap: square"/>
     </g>
     <g id="line2d_24">
      <g>
       <use xlink:href="#m530f651bdd" x="59.15" y="159.753469" style="stroke: #000000; stroke-width: 0.8"/>
      </g>
     </g>
     <g id="text_13">
      <!-- 750 -->
      <g transform="translate(33.0625 163.552687) scale(0.1 -0.1)">
       <defs>
        <path id="DejaVuSans-37" d="M 525 4666 
L 3525 4666 
L 3525 4397 
L 1831 0 
L 1172 0 
L 2766 4134 
L 525 4134 
L 525 4666 
z
" transform="scale(0.015625)"/>
       </defs>
       <use xlink:href="#DejaVuSans-37"/>
       <use xlink:href="#DejaVuSans-35" transform="translate(63.623047 0)"/>
       <use xlink:href="#DejaVuSans-30" transform="translate(127.246094 0)"/>
      </g>
     </g>
    </g>
    <g id="ytick_6">
     <g id="line2d_25">
      <path d="M 59.15 126.873023 
L 450 126.873023 
" clip-path="url(#pfc6032dcae)" style="fill: none; stroke: #b0b0b0; stroke-opacity: 0.3; stroke-width: 0.8; stroke-linecap: square"/>
     </g>
     <g id="line2d_26">
      <g>
       <use xlink:href="#m530f651bdd" x="59.15" y="126.873023" style="stroke: #000000; stroke-width: 0.8"/>
      </g>
     </g>
     <g id="text_14">
      <!-- 1000 -->
      <g transform="translate(26.7 130.672242) scale(0.1 -0.1)">
       <use xlink:href="#DejaVuSans-31"/>
       <use xlink:href="#DejaVuSans-30" transform="translate(63.623047 0)"/>
       <use xlink:href="#DejaVuSans-30" transform="translate(127.246094 0)"/>
       <use xlink:href="#DejaVuSans-30" transform="translate(190.869141 0)"/>
      </g>
     </g>
    </g>
    <g id="ytick_7">
     <g id="line2d_27">
      <path d="M 59.15 93.992577 
L 450 93.992577 
" clip-path="url(#pfc6032dcae)" style="fill: none; stroke: #b0b0b0; stroke-opacity: 0.3; stroke-width: 0.8; stroke-linecap: square"/>
     </g>
     <g id="line2d_28">
      <g>
       <use xlink:href="#m530f651bdd" x="59.15" y="93.992577" style="stroke: #000000; stroke-width: 0.8"/>
      </g>
     </g>
     <g id="text_15">
      <!-- 1250 -->
      <g transform="translate(26.7 97.791796) scale(0.1 -0.1)">
       <use xlink:href="#DejaVuSans-31"/>
       <use xlink:href="#DejaVuSans-32" transform="translate(63.623047 0)"/>
       <use xlink:href="#DejaVuSans-35" transform="translate(127.246094 0)"/>
       <use xlink:href="#DejaVuSans-30" transform="translate(190.869141 0)"/>
      </g>
     </g>
    </g>
    <g id="ytick_8">
     <g id="line2d_29">
      <path d="M 59.15 61.112131 
L 450 61.112131 
" clip-path="url(#pfc6032dcae)" style="fill: none; stroke: #b0b0b0; stroke-opacity: 0.3; stroke-width: 0.8; stroke-linecap: square"/>
     </g>
     <g id="line2d_30">
      <g>
       <use xlink:href="#m530f651bdd" x="59.15" y="61.112131" style="stroke: #000000; stroke-width: 0.8"/>
      </g>
     </g>
     <g id="text_16">
      <!-- 1500 -->
      <g transform="translate(26.7 64.91135) scale(0.1 -0.1)">
       <use xlink:href="#DejaVuSans-31"/>
       <use xlink:href="#DejaVuSans-35" transform="translate(63.623047 0)"/>
       <use xlink:href="#DejaVuSans-30" transform="translate(127.246094 0)"/>
       <use xlink:href="#DejaVuSans-30" transform="translate(190.869141 0)"/>
      </g>
     </g>
    </g>
    <g id="ytick_9">
     <g id="line2d_31">
      <path d="M 59.15 28.231685 
L 450 28.231685 
" clip-path="url(#pfc6032dcae)" style="fill: none; stroke: #b0b0b0; stroke-opacity: 0.3; stroke-width: 0.8; stroke-linecap: square"/>
     </g>
     <g id="line2d_32">
      <g>
       <use xlink:href="#m530f651bdd" x="59.15" y="28.231685" style="stroke: #000000; stroke-width: 0.8"/>
      </g>
     </g>
     <g id="text_17">
      <!-- 1750 -->
      <g transform="translate(26.7 32.030904) scale(0.1 -0.1)">
       <use xlink:href="#DejaVuSans-31"/>
       <use xlink:href="#DejaVuSans-37" transform="translate(63.623047 0)"/>
       <use xlink:href="#DejaVuSans-35" transform="translate(127.246094 0)"/>
       <use xlink:href="#DejaVuSans-30" transform="translate(190.869141 0)"/>
      </g>
     </g>
    </g>
    <g id="text_18">
     <!-- Stress [Pa] -->
     <g transform="translate(18.603125 191.967812) rotate(-90) scale(0.1 -0.1)">
      <defs>
       <path id="DejaVuSans-65" d="M 3597 1894 
L 3597 1613 
L 953 1613 
Q 991 1019 1311 708 
Q 1631 397 2203 397 
Q 2534 397 2845 478 
Q 3156 559 3463 722 
L 3463 178 
Q 3153 47 2828 -22 
Q 2503 -91 2169 -91 
Q 1331 -91 842 396 
Q 353 884 353 1716 
Q 353 2575 817 3079 
Q 1281 3584 2069 3584 
Q 2775 3584 3186 3129 
Q 3597 2675 3597 1894 
z
M 3022 2063 
Q 3016 2534 2758 2815 
Q 2500 3097 2075 3097 
Q 1594 3097 1305 2825 
Q 1016 2553 972 2059 
L 3022 2063 
z
" transform="scale(0.015625)"/>
       <path id="DejaVuSans-73" d="M 2834 3397 
L 2834 2853 
Q 2591 2978 2328 3040 
Q 2066 3103 1784 3103 
Q 1356 3103 1142 2972 
Q 928 2841 928 2578 
Q 928 2378 1081 2264 
Q 1234 2150 1697 2047 
L 1894 2003 
Q 2506 1872 2764 1633 
Q 3022 1394 3022 966 
Q 3022 478 2636 193 
Q 2250 -91 1575 -91 
Q 1294 -91 989 -36 
Q 684 19 347 128 
L 347 722 
Q 666 556 975 473 
Q 1284 391 1588 391 
Q 1994 391 2212 530 
Q 2431 669 2431 922 
Q 2431 1156 2273 1281 
Q 2116 1406 1581 1522 
L 1381 1569 
Q 847 1681 609 1914 
Q 372 2147 372 2553 
Q 372 3047 722 3315 
Q 1072 3584 1716 3584 
Q 2034 3584 2315 3537 
Q 2597 3491 2834 3397 
z
" transform="scale(0.015625)"/>
       <path id="DejaVuSans-50" d="M 1259 4147 
L 1259 2394 
L 2053 2394 
Q 2494 2394 2734 2622 
Q 2975 2850 2975 3272 
Q 2975 3691 2734 3919 
Q 2494 4147 2053 4147 
L 1259 4147 
z
M 628 4666 
L 2053 4666 
Q 2838 4666 3239 4311 
Q 3641 3956 3641 3272 
Q 3641 2581 3239 2228 
Q 2838 1875 2053 1875 
L 1259 1875 
L 1259 0 
L 628 0 
L 628 4666 
z
" transform="scale(0.015625)"/>
      </defs>
      <use xlink:href="#DejaVuSans-53"/>
      <use xlink:href="#DejaVuSans-74" transform="translate(63.476562 0)"/>
      <use xlink:href="#DejaVuSans-72" transform="translate(102.685547 0)"/>
      <use xlink:href="#DejaVuSans-65" transform="translate(141.548828 0)"/>
      <use xlink:href="#DejaVuSans-73" transform="translate(203.072266 0)"/>
      <use xlink:href="#DejaVuSans-73" transform="translate(255.171875 0)"/>
      <use xlink:href="#DejaVuSans-20" transform="translate(307.271484 0)"/>
      <use xlink:href="#DejaVuSans-5b" transform="translate(339.058594 0)"/>
      <use xlink:href="#DejaVuSans-50" transform="translate(378.072266 0)"/>
      <use xlink:href="#DejaVuSans-61" transform="translate(433.875 0)"/>
      <use xlink:href="#DejaVuSans-5d" transform="translate(495.154297 0)"/>
     </g>
    </g>
   </g>
   <g id="line2d_33">
    <path d="M 121.393425 259.440236 
L 121.392712 259.331995 
L 121.394928 259.578225 
L 121.393709 259.50372 
L 121.50566 259.422864 
L 121.949995 257.706508 
L 122.395027 256.838229 
L 123.320986 258.63838 
L 123.800304 259.264408 
L 124.281146 259.655996 
L 125.6551 261.658096 
L 126.108852 260.831452 
L 126.556678 258.864701 
L 127.012631 258.673664 
L 128.823695 259.350706 
L 129.271013 259.153076 
L 130.180633 258.485398 
L 131.537149 258.184475 
L 132.889262 257.991911 
L 134.268635 257.229498 
L 135.181895 257.018892 
L 136.079579 256.796112 
L 138.35071 256.031848 
L 139.250042 255.714318 
L 141.057093 254.786407 
L 141.957994 254.508106 
L 142.88209 253.893576 
L 143.808219 253.411694 
L 145.200628 252.821778 
L 146.107285 252.318815 
L 146.998705 251.915698 
L 147.924833 251.471058 
L 148.831999 250.890321 
L 149.725619 250.534379 
L 152.913791 248.977133 
L 153.378633 248.821137 
L 155.20634 247.467191 
L 156.56294 246.776819 
L 157.939603 245.890254 
L 158.837626 245.451635 
L 159.28596 245.27887 
L 159.746908 244.799639 
L 161.114259 244.000367 
L 161.561969 243.788791 
L 162.010134 243.70217 
L 162.933722 243.215657 
L 164.299634 242.110909 
L 166.565178 241.071695 
L 167.483856 240.291651 
L 168.384419 239.78428 
L 169.733146 239.228153 
L 171.998689 237.796273 
L 172.919098 237.396044 
L 175.646859 235.509304 
L 176.561136 235.097147 
L 177.943725 234.268841 
L 179.319542 233.624879 
L 180.23204 232.779166 
L 181.153682 232.184598 
L 181.603371 231.958877 
L 182.057123 231.88985 
L 182.971061 231.28091 
L 183.896718 230.685209 
L 185.716636 229.65421 
L 186.626172 228.897866 
L 187.520639 228.460501 
L 188.430175 227.962169 
L 189.35715 227.395997 
L 191.203311 226.229189 
L 192.543065 225.412573 
L 194.351301 224.478194 
L 194.799598 224.330894 
L 200.262061 220.702181 
L 201.160254 220.212378 
L 202.082657 219.526494 
L 203.003621 218.924756 
L 205.254265 217.722303 
L 206.160388 217.092322 
L 207.064083 216.520145 
L 208.434482 215.856603 
L 209.342917 215.162989 
L 210.247295 214.519713 
L 212.538573 213.246799 
L 213.907956 212.314912 
L 216.641474 210.822233 
L 218.462514 209.702365 
L 219.357319 209.210198 
L 221.645381 207.644425 
L 222.998172 206.956608 
L 224.824354 205.500198 
L 225.283186 205.292068 
L 225.747096 205.256818 
L 226.203558 205.079582 
L 228.467746 203.493247 
L 229.385578 203.11517 
L 230.297146 202.426092 
L 231.210153 201.647262 
L 233.459612 200.284628 
L 235.305858 199.138198 
L 238.497191 197.143212 
L 238.948911 197.006803 
L 240.317574 196.098643 
L 242.131397 194.850499 
L 244.398465 193.499491 
L 245.763107 192.468844 
L 248.032375 190.894575 
L 249.859658 189.737389 
L 250.311453 189.559761 
L 253.057415 187.603583 
L 253.948665 187.119465 
L 255.7878 185.715245 
L 256.694627 185.30772 
L 260.335479 182.843532 
L 261.703307 182.014659 
L 265.357365 179.527155 
L 266.2818 179.024863 
L 267.189982 178.352394 
L 268.542942 177.552227 
L 270.359728 175.868019 
L 270.804676 175.630193 
L 271.254364 175.528096 
L 272.149847 174.981854 
L 273.53595 173.761514 
L 274.449888 173.069881 
L 275.368058 172.682813 
L 276.278441 172.166436 
L 277.66848 171.028533 
L 280.389299 169.100941 
L 284.99103 165.908628 
L 285.912249 165.127498 
L 287.282309 164.20861 
L 288.205559 163.60577 
L 289.103412 162.951634 
L 290.030387 162.22755 
L 291.831173 161.073262 
L 292.759672 160.279037 
L 293.668531 159.777415 
L 296.402239 157.575688 
L 298.655507 156.046806 
L 299.573413 155.215849 
L 302.332158 153.288512 
L 303.243895 152.479722 
L 304.616156 151.513722 
L 305.97392 150.57119 
L 307.772421 149.02522 
L 309.159581 148.081035 
L 310.086556 147.36583 
L 311.464743 146.364887 
L 312.810931 145.541532 
L 314.632881 144.078383 
L 316.468206 142.773241 
L 317.375456 141.92423 
L 326.451175 134.752661 
L 328.275283 133.550511 
L 329.63637 132.265556 
L 334.612405 128.474348 
L 335.529644 127.652079 
L 337.31096 126.305863 
L 339.140952 124.639957 
L 343.702007 121.071731 
L 345.054459 119.770614 
L 345.960439 119.155446 
L 346.407249 118.902032 
L 346.863456 118.50757 
L 347.774685 117.484845 
L 349.138651 116.524051 
L 350.054451 115.747648 
L 350.974018 114.787365 
L 352.315127 113.946028 
L 353.227117 113.025383 
L 354.139193 112.093431 
L 356.397287 110.476554 
L 358.222877 108.70138 
L 360.477076 106.997242 
L 361.843052 105.657701 
L 364.114521 103.709092 
L 365.037433 102.814574 
L 370.011605 98.588308 
L 370.90404 97.862371 
L 372.689271 96.098552 
L 373.598976 95.343038 
L 377.260823 92.019659 
L 379.546345 90.014004 
L 380.459606 89.360252 
L 382.255313 87.566809 
L 383.150711 86.717518 
L 385.875975 84.313634 
L 386.778907 83.392861 
L 388.136777 82.140549 
L 389.520552 80.755749 
L 390.414511 80.015438 
L 391.766794 78.851856 
L 392.662277 77.891541 
L 393.569104 77.118173 
L 400.414686 70.589592 
L 401.781783 69.196168 
L 402.676589 68.434138 
L 404.503618 66.506163 
L 406.314965 65.13679 
L 409.058472 62.248883 
L 410.436151 60.948469 
L 415.031068 56.24853 
L 416.385213 54.805471 
L 418.21874 52.907918 
L 419.121672 51.977563 
L 420.022065 51.252904 
L 422.76862 48.435649 
L 423.677817 47.549372 
L 424.585744 46.387642 
L 426.413451 44.517798 
L 427.763956 43.177267 
L 428.664899 42.064629 
L 430.034282 40.716241 
L 430.940347 40.058272 
L 431.956295 39.46 
L 432.234091 40.201285 
L 432.078029 48.945926 
L 432.078135 62.832718 
L 431.633356 63.040074 
L 430.708413 65.750074 
L 429.801756 65.945852 
L 428.871056 66.658757 
L 427.943912 67.237067 
L 427.486096 67.26206 
L 427.01372 67.979102 
L 426.559968 69.244957 
L 425.19122 71.855974 
L 424.738653 72.869373 
L 423.807276 73.039822 
L 423.353863 73.413267 
L 422.448052 74.407119 
L 421.988035 74.576977 
L 421.08815 77.347488 
L 420.188434 78.451853 
L 418.8094 79.662387 
L 417.43934 81.573818 
L 416.524894 82.982764 
L 415.148061 84.910037 
L 414.694225 85.954866 
L 414.228113 86.593287 
L 413.332313 87.025709 
L 411.969194 88.238863 
L 411.50977 89.605393 
L 411.044674 90.459602 
L 409.222216 92.026015 
L 408.773459 93.019994 
L 407.879584 94.064024 
L 406.964292 94.804622 
L 406.509439 95.392322 
L 406.065084 96.277449 
L 405.142511 97.215789 
L 404.239071 98.009823 
L 402.898216 99.895829 
L 401.527161 101.023239 
L 400.60425 102.767175 
L 399.690989 103.565233 
L 398.782808 104.206337 
L 397.880891 106.004316 
L 396.535211 106.957412 
L 396.088147 107.181313 
L 395.637951 107.898754 
L 395.185045 108.925313 
L 394.731632 109.307126 
L 393.824466 109.713981 
L 393.364958 109.959489 
L 392.907142 110.49979 
L 392.450596 111.70713 
L 391.526838 112.401814 
L 391.079859 112.758762 
L 390.62052 112.976706 
L 390.172016 113.348778 
L 389.727576 114.365499 
L 389.274163 114.830485 
L 388.814823 115.062882 
L 388.350574 115.479127 
L 387.897499 115.706317 
L 387.453229 116.227741 
L 387.005402 117.244462 
L 386.543439 117.779206 
L 385.646601 118.227519 
L 384.73351 118.879067 
L 384.286276 119.835485 
L 383.834895 120.397824 
L 383.372677 120.609652 
L 382.016331 121.689519 
L 381.559616 122.681327 
L 381.097568 123.186429 
L 380.630609 123.316474 
L 379.271723 124.392715 
L 378.822543 125.487115 
L 378.362442 126.039553 
L 377.917832 126.134312 
L 376.558015 126.958625 
L 376.110189 128.078577 
L 375.653051 128.508269 
L 373.839397 129.528263 
L 373.376418 130.71414 
L 372.923597 131.126169 
L 371.547272 131.853144 
L 371.093859 132.373099 
L 370.646879 133.107341 
L 370.19973 133.518539 
L 368.824612 134.130713 
L 367.907626 135.711946 
L 367.455059 136.116117 
L 366.093464 136.658526 
L 365.172585 138.065557 
L 364.247557 138.660283 
L 363.341153 139.058267 
L 362.426369 140.61976 
L 361.97177 140.84957 
L 361.522082 140.943825 
L 360.626768 141.444472 
L 360.16709 141.980046 
L 359.711645 142.85968 
L 357.878245 143.864072 
L 356.955673 145.275063 
L 355.586628 146.021761 
L 355.142357 146.225891 
L 354.681156 147.041517 
L 354.225626 147.569936 
L 352.856581 148.456596 
L 352.411041 148.624075 
L 351.952718 149.424624 
L 351.501251 149.976807 
L 351.041573 150.17704 
L 350.590361 150.218978 
L 350.144905 150.491555 
L 349.695216 150.618007 
L 348.330743 152.304131 
L 347.409017 152.891639 
L 346.960683 152.986374 
L 346.043676 154.381036 
L 344.232224 155.043635 
L 343.780842 155.564261 
L 343.3331 156.563351 
L 342.884597 156.66532 
L 341.067303 157.656689 
L 340.613636 158.75358 
L 340.162762 158.815464 
L 338.36206 159.79868 
L 337.911441 161.037832 
L 337.006645 161.267858 
L 335.641135 161.63228 
L 335.179764 163.036116 
L 334.279456 163.333552 
L 333.366534 163.676741 
L 332.909734 163.562531 
L 332.450734 164.623761 
L 331.993257 165.217625 
L 331.090663 165.478481 
L 330.644868 165.757 
L 330.187222 165.741102 
L 329.733724 166.401553 
L 329.283781 167.399238 
L 328.384235 167.672024 
L 327.02865 168.213682 
L 326.583787 169.464716 
L 326.130712 169.432752 
L 325.678315 169.664957 
L 325.22033 169.74706 
L 324.772165 169.972398 
L 324.310286 169.852295 
L 323.860513 171.355274 
L 322.954279 171.673638 
L 322.496294 171.694096 
L 322.047282 171.92809 
L 321.598102 171.718642 
L 321.153746 172.864585 
L 320.708629 173.67708 
L 320.248105 173.926805 
L 319.783517 173.939094 
L 319.322654 174.092551 
L 318.859082 174.016764 
L 318.400166 174.536751 
L 317.944213 175.863931 
L 317.479963 176.148934 
L 316.572459 176.165247 
L 316.116167 176.248619 
L 315.660045 176.018266 
L 315.19842 177.292553 
L 314.751694 177.991341 
L 313.838264 178.004165 
L 313.372322 178.167603 
L 312.906549 178.066648 
L 312.449326 178.68985 
L 311.988378 179.933219 
L 311.522013 180.125579 
L 310.164481 180.351133 
L 309.718687 180.413137 
L 309.272215 181.553147 
L 308.822357 181.829909 
L 307.899107 182.041058 
L 306.991518 182.362664 
L 306.5282 183.456297 
L 305.620696 183.882188 
L 304.250043 184.237642 
L 303.801455 185.211691 
L 302.439099 185.648769 
L 301.522938 186.025832 
L 301.064192 187.068233 
L 300.598334 187.460906 
L 299.226581 187.704817 
L 298.76504 187.935298 
L 297.851272 189.010278 
L 297.406154 189.234402 
L 296.944106 189.269329 
L 296.485275 189.429222 
L 296.039988 189.729843 
L 295.130283 190.642056 
L 293.283021 191.447113 
L 292.372385 192.626218 
L 290.563419 193.186996 
L 289.670899 194.251819 
L 287.851996 195.018213 
L 286.941614 195.936622 
L 285.574771 196.637997 
L 285.130331 196.813189 
L 284.210636 197.552989 
L 282.860724 198.280363 
L 281.495912 199.381758 
L 280.58553 199.854761 
L 280.12709 199.964415 
L 279.225935 200.635863 
L 278.773368 201.072549 
L 276.950741 202.108059 
L 276.501899 202.220549 
L 263.772587 209.74138 
L 263.311216 209.867193 
L 261.939294 210.897265 
L 261.484187 211.357076 
L 259.206115 212.377486 
L 258.292854 213.172415 
L 257.397107 213.592896 
L 256.505856 214.016016 
L 255.581929 214.576694 
L 254.665621 215.026061 
L 251.936759 216.561044 
L 251.491134 216.712425 
L 250.575842 217.349121 
L 249.651237 217.728244 
L 248.281008 218.455778 
L 247.360382 219.136296 
L 245.092786 220.296712 
L 244.179356 220.924146 
L 242.33785 221.714842 
L 240.971769 222.679309 
L 239.157607 223.37093 
L 237.342345 224.45677 
L 236.882159 224.535738 
L 235.509221 225.18142 
L 234.150335 226.081751 
L 232.807364 226.778812 
L 231.417495 227.429386 
L 229.12283 228.688448 
L 227.749214 229.545085 
L 220.927611 233.080512 
L 219.573804 233.619758 
L 217.75524 234.6444 
L 216.849429 235.093799 
L 215.933883 235.753876 
L 214.138176 236.451498 
L 210.954018 238.233655 
L 210.046688 238.584582 
L 207.30098 239.906518 
L 205.036114 240.968833 
L 204.573727 241.255816 
L 203.672318 241.508549 
L 201.835771 242.750647 
L 200.932838 242.989644 
L 200.48552 243.091837 
L 200.028212 243.324106 
L 199.574375 243.733196 
L 198.653326 244.05879 
L 197.749378 244.280521 
L 197.297996 244.534286 
L 196.390153 245.437428 
L 195.945883 245.626737 
L 195.037024 245.650173 
L 194.113435 246.225034 
L 192.738465 247.10224 
L 191.372553 247.640848 
L 190.00526 248.498902 
L 189.089967 248.945905 
L 187.730066 249.26078 
L 185.901597 250.331017 
L 184.995448 250.465738 
L 183.184757 251.555123 
L 182.726772 251.678205 
L 182.264216 251.677869 
L 181.809109 251.840583 
L 179.969731 253.018106 
L 177.302245 254.034785 
L 176.404391 254.419776 
L 172.785211 256.26916 
L 171.876691 256.678282 
L 170.064561 257.425747 
L 169.152485 257.747545 
L 167.311678 258.795432 
L 165.47449 259.605165 
L 164.105107 260.114483 
L 163.18355 260.614955 
L 162.28976 260.982363 
L 161.399018 261.37173 
L 160.500149 261.799825 
L 159.579438 262.225276 
L 158.665839 262.619705 
L 158.204637 262.908956 
L 157.291459 263.226546 
L 156.381923 263.774608 
L 155.922414 263.863923 
L 152.274959 265.401193 
L 150.911163 265.919871 
L 149.991045 266.585377 
L 145.900168 268.03996 
L 144.974379 268.599872 
L 143.610752 269.100367 
L 142.705111 269.565193 
L 141.340807 270.167809 
L 140.890949 270.237458 
L 139.990387 270.722888 
L 139.087031 271.155726 
L 138.16141 271.450181 
L 137.24434 271.841975 
L 136.325069 272.380999 
L 134.961134 272.742299 
L 132.675274 273.843566 
L 131.761674 274.141081 
L 129.93583 274.970361 
L 129.045596 275.326456 
L 128.147234 275.662052 
L 126.32393 276.151915 
L 124.955309 276.829542 
L 123.586424 277.349192 
L 123.138598 277.389722 
L 122.216194 277.79137 
L 120.854176 278.454369 
L 119.507988 278.803652 
L 118.613352 279.16547 
L 115.871623 280.313418 
L 114.529499 280.638683 
L 113.616577 281.143019 
L 112.70293 281.753656 
L 111.347769 281.838969 
L 110.891139 281.96546 
L 109.514391 282.710881 
L 107.694134 283.25489 
L 99.983919 285.887825 
L 97.304413 286.535566 
L 95.961951 286.951468 
L 95.035653 287.246436 
L 94.114943 287.620999 
L 92.755549 287.906239 
L 92.305691 287.918128 
L 91.41224 288.286655 
L 90.054116 288.792773 
L 89.596216 288.992312 
L 87.784424 289.215105 
L 87.336683 289.308638 
L 86.872603 289.814443 
L 84.590213 289.732425 
L 84.131212 290.379534 
L 83.666878 290.417219 
L 82.741089 290.2231 
L 81.832484 290.286096 
L 81.371113 290.913786 
L 80.462424 290.811717 
L 79.096369 290.604021 
L 78.637961 291.06 
L 78.184293 290.861563 
L 76.982125 289.863535 
L 76.915988 271.226224 
L 76.915988 271.226224 
" clip-path="url(#pfc6032dcae)" style="fill: none; stroke: #ff0000; stroke-width: 2; stroke-linecap: square"/>
   </g>
   <g id="line2d_34">
    <path d="M 121.393425 259.440236 
L 121.392712 259.331995 
L 121.394928 259.578225 
L 121.393709 259.50372 
L 121.50566 259.422864 
L 121.949995 257.706508 
L 122.395027 256.838229 
L 123.320986 258.63838 
L 123.800304 261.648314 
L 124.281146 261.393064 
L 124.747935 261.423471 
L 125.207782 261.861292 
L 125.6551 261.951467 
L 126.108852 260.833591 
L 126.556678 258.864701 
L 127.012631 258.673664 
L 128.823695 259.350706 
L 129.271013 259.153076 
L 130.180633 258.485398 
L 131.537149 258.184475 
L 132.889262 257.991911 
L 134.268635 257.229498 
L 135.181895 257.018892 
L 136.079579 256.796112 
L 138.35071 256.031848 
L 139.250042 255.714318 
L 141.057093 254.786407 
L 141.957994 254.508106 
L 142.88209 253.893576 
L 143.808219 253.411694 
L 145.200628 252.821778 
L 146.107285 252.318815 
L 146.998705 251.915698 
L 147.924833 251.471058 
L 148.831999 250.890321 
L 149.725619 250.534379 
L 152.913791 248.977133 
L 153.378633 248.821137 
L 155.20634 247.467191 
L 156.56294 246.776819 
L 157.939603 245.890254 
L 158.837626 245.451635 
L 159.28596 245.27887 
L 159.746908 244.799639 
L 161.114259 244.000367 
L 161.561969 243.788791 
L 162.010134 243.70217 
L 162.933722 243.215657 
L 164.299634 242.110909 
L 166.565178 241.071695 
L 167.483856 240.291651 
L 168.384419 239.78428 
L 169.733146 239.228153 
L 171.998689 237.796273 
L 172.919098 237.396044 
L 175.646859 235.509304 
L 176.561136 235.097147 
L 177.943725 234.268841 
L 179.319542 233.624879 
L 180.23204 232.779166 
L 181.153682 232.184598 
L 181.603371 231.958877 
L 182.057123 231.88985 
L 182.971061 231.28091 
L 183.896718 230.685209 
L 185.716636 229.65421 
L 186.626172 228.897866 
L 187.520639 228.460501 
L 188.430175 227.962169 
L 189.35715 227.395997 
L 191.203311 226.229189 
L 192.543065 225.412573 
L 194.351301 224.478194 
L 194.799598 224.330894 
L 200.262061 220.702181 
L 201.160254 220.212378 
L 202.082657 219.526494 
L 203.003621 218.924756 
L 205.254265 217.722303 
L 206.160388 217.092322 
L 207.064083 216.520145 
L 208.434482 215.856603 
L 209.342917 215.162989 
L 210.247295 214.519713 
L 212.538573 213.246799 
L 213.907956 212.314912 
L 216.641474 210.822233 
L 218.462514 209.702365 
L 219.357319 209.210198 
L 221.645381 207.644425 
L 222.998172 206.956608 
L 224.824354 205.500198 
L 225.283186 205.292068 
L 225.747096 205.256818 
L 226.203558 205.079582 
L 228.467746 203.493247 
L 229.385578 203.11517 
L 230.297146 202.426092 
L 231.210153 201.647262 
L 233.459612 200.284628 
L 235.305858 199.138198 
L 238.497191 197.143212 
L 238.948911 197.006803 
L 240.317574 196.098643 
L 242.131397 194.850499 
L 244.398465 193.499491 
L 245.763107 192.468844 
L 248.032375 190.894575 
L 249.859658 189.737389 
L 250.311453 189.559761 
L 253.057415 187.603583 
L 253.948665 187.119465 
L 255.7878 185.715245 
L 256.694627 185.30772 
L 260.335479 182.843532 
L 261.703307 182.014659 
L 265.357365 179.527155 
L 266.2818 179.024863 
L 267.189982 178.352394 
L 268.542942 177.552227 
L 270.359728 175.868019 
L 270.804676 175.630193 
L 271.254364 175.528096 
L 272.149847 174.981854 
L 273.53595 173.761514 
L 274.449888 173.069881 
L 275.368058 172.682813 
L 276.278441 172.166436 
L 277.66848 171.028533 
L 280.389299 169.100941 
L 284.99103 165.908628 
L 285.912249 165.127498 
L 287.282309 164.20861 
L 288.205559 163.60577 
L 289.103412 162.951634 
L 290.030387 162.22755 
L 291.831173 161.073262 
L 292.759672 160.279037 
L 293.668531 159.777415 
L 296.402239 157.575688 
L 298.655507 156.046806 
L 299.573413 155.215849 
L 302.332158 153.288512 
L 303.243895 152.479722 
L 304.616156 151.513722 
L 305.97392 150.57119 
L 307.772421 149.02522 
L 309.159581 148.081035 
L 310.086556 147.36583 
L 311.464743 146.364887 
L 312.810931 145.541532 
L 314.632881 144.078383 
L 316.468206 142.773241 
L 317.375456 141.92423 
L 326.451175 134.752661 
L 328.275283 133.550511 
L 329.63637 132.265556 
L 334.612405 128.474348 
L 335.529644 127.652079 
L 337.31096 126.305863 
L 339.140952 124.639957 
L 343.702007 121.071731 
L 345.054459 119.770614 
L 345.960439 119.155446 
L 346.407249 118.902032 
L 346.863456 118.50757 
L 347.774685 117.484845 
L 349.138651 116.524051 
L 350.054451 115.747648 
L 350.974018 114.787365 
L 352.315127 113.946028 
L 353.227117 113.025383 
L 354.139193 112.093431 
L 356.397287 110.476554 
L 358.222877 108.70138 
L 360.477076 106.997242 
L 361.843052 105.657701 
L 364.114521 103.709092 
L 365.037433 102.814574 
L 370.011605 98.588308 
L 370.90404 97.862371 
L 372.689271 96.098552 
L 373.598976 95.343038 
L 377.260823 92.019659 
L 379.546345 90.014004 
L 380.459606 89.360252 
L 382.255313 87.566809 
L 383.150711 86.717518 
L 385.875975 84.313634 
L 386.778907 83.392861 
L 388.136777 82.140549 
L 389.520552 80.755749 
L 390.414511 80.015438 
L 391.766794 78.851856 
L 392.662277 77.891541 
L 393.569104 77.118173 
L 400.414686 70.589592 
L 401.781783 69.196168 
L 402.676589 68.434138 
L 404.503618 66.506163 
L 406.314965 65.13679 
L 409.058472 62.248883 
L 410.436151 60.948469 
L 415.031068 56.24853 
L 416.385213 54.805471 
L 418.21874 52.907918 
L 419.121672 51.977563 
L 420.022065 51.252904 
L 422.76862 48.435649 
L 423.677817 47.549372 
L 424.585744 46.387642 
L 426.413451 44.517798 
L 427.763956 43.177267 
L 428.664899 42.064629 
L 430.034282 40.716241 
L 430.940347 40.058272 
L 431.956295 39.46 
L 432.234091 40.201285 
L 432.078029 48.945926 
L 432.078135 62.832718 
L 431.633356 63.040074 
L 430.708413 65.750074 
L 429.801756 65.945852 
L 428.871056 66.658757 
L 427.943912 67.237067 
L 427.486096 67.26206 
L 427.01372 67.979102 
L 426.559968 69.244957 
L 425.19122 71.855974 
L 424.738653 72.869373 
L 423.807276 73.039822 
L 423.353863 73.413267 
L 422.448052 74.407119 
L 421.988035 74.576977 
L 421.08815 77.347488 
L 420.188434 78.451853 
L 418.8094 79.662387 
L 417.43934 81.573818 
L 416.524894 82.982764 
L 415.148061 84.910037 
L 414.694225 85.954866 
L 414.228113 86.593287 
L 413.332313 87.025709 
L 411.969194 88.238863 
L 411.50977 89.605393 
L 411.044674 90.459602 
L 409.222216 92.026015 
L 408.773459 93.019994 
L 407.879584 94.064024 
L 406.964292 94.804622 
L 406.509439 95.392322 
L 406.065084 96.277449 
L 405.142511 97.215789 
L 404.239071 98.009823 
L 402.898216 99.895829 
L 401.527161 101.023239 
L 400.60425 102.767175 
L 399.690989 103.565233 
L 398.782808 104.206337 
L 397.880891 106.004316 
L 396.535211 106.957412 
L 396.088147 107.181313 
L 395.637951 107.898754 
L 395.185045 108.925313 
L 394.731632 109.307126 
L 393.824466 109.713981 
L 393.364958 109.959489 
L 392.907142 110.49979 
L 392.450596 111.70713 
L 391.526838 112.401814 
L 391.079859 112.758762 
L 390.62052 112.976706 
L 390.172016 113.348778 
L 389.727576 114.365499 
L 389.274163 114.830485 
L 388.814823 115.062882 
L 388.350574 115.479127 
L 387.897499 115.706317 
L 387.453229 116.227741 
L 387.005402 117.244462 
L 386.543439 117.779206 
L 385.646601 118.227519 
L 384.73351 118.879067 
L 384.286276 119.835485 
L 383.834895 120.397824 
L 383.372677 120.609652 
L 382.016331 121.689519 
L 381.559616 122.681327 
L 381.097568 123.186429 
L 380.630609 123.316474 
L 379.271723 124.392715 
L 378.822543 125.487115 
L 378.362442 126.039553 
L 377.917832 126.134312 
L 376.558015 126.958625 
L 376.110189 128.078577 
L 375.653051 128.508269 
L 373.839397 129.528263 
L 373.376418 130.71414 
L 372.923597 131.126169 
L 371.547272 131.853144 
L 371.093859 132.373099 
L 370.646879 133.107341 
L 370.19973 133.518539 
L 368.824612 134.130713 
L 367.907626 135.711946 
L 367.455059 136.116117 
L 366.093464 136.658526 
L 365.172585 138.065557 
L 364.247557 138.660283 
L 363.341153 139.058267 
L 362.426369 140.61976 
L 361.97177 140.84957 
L 361.522082 140.943825 
L 360.626768 141.444472 
L 360.16709 141.980046 
L 359.711645 142.85968 
L 357.878245 143.864072 
L 356.955673 145.275063 
L 355.586628 146.021761 
L 355.142357 146.225891 
L 354.681156 147.041517 
L 354.225626 147.569936 
L 352.856581 148.456596 
L 352.411041 148.624075 
L 351.952718 149.424624 
L 351.501251 149.976807 
L 351.041573 150.17704 
L 350.590361 150.218978 
L 350.144905 150.491555 
L 349.695216 150.618007 
L 348.330743 152.304131 
L 347.409017 152.891639 
L 346.960683 152.986374 
L 346.043676 154.381036 
L 344.232224 155.043635 
L 343.780842 155.564261 
L 343.3331 156.563351 
L 342.884597 156.66532 
L 341.067303 157.656689 
L 340.613636 158.75358 
L 340.162762 158.815464 
L 338.36206 159.79868 
L 337.911441 161.037832 
L 337.006645 161.267858 
L 335.641135 161.63228 
L 335.179764 163.036116 
L 334.279456 163.333552 
L 333.366534 163.676741 
L 332.909734 163.562531 
L 332.450734 164.623761 
L 331.993257 165.217625 
L 331.090663 165.478481 
L 330.644868 165.757 
L 330.187222 165.741102 
L 329.733724 166.401553 
L 329.283781 167.399238 
L 328.384235 167.672024 
L 327.02865 168.213682 
L 326.583787 169.464716 
L 326.130712 169.432752 
L 325.678315 169.664957 
L 325.22033 169.74706 
L 324.772165 169.972398 
L 324.310286 169.852295 
L 323.860513 171.355274 
L 322.954279 171.673638 
L 322.496294 171.694096 
L 322.047282 171.92809 
L 321.598102 171.718642 
L 321.153746 172.864585 
L 320.708629 173.67708 
L 320.248105 173.926805 
L 319.783517 173.939094 
L 319.322654 174.092551 
L 318.859082 174.016764 
L 318.400166 174.536751 
L 317.944213 175.863931 
L 317.479963 176.148934 
L 316.572459 176.165247 
L 316.116167 176.248619 
L 315.660045 176.018266 
L 315.19842 177.292553 
L 314.751694 177.991341 
L 313.838264 178.004165 
L 313.372322 178.167603 
L 312.906549 178.066648 
L 312.449326 178.68985 
L 311.988378 179.933219 
L 311.522013 180.125579 
L 310.164481 180.351133 
L 309.718687 180.413137 
L 309.272215 181.553147 
L 308.822357 181.829909 
L 307.899107 182.041058 
L 306.991518 182.362664 
L 306.5282 183.456297 
L 305.620696 183.882188 
L 304.250043 184.237642 
L 303.801455 185.211691 
L 302.439099 185.648769 
L 301.522938 186.025832 
L 301.064192 187.068233 
L 300.598334 187.460906 
L 299.226581 187.704817 
L 298.76504 187.935298 
L 297.851272 189.010278 
L 297.406154 189.234402 
L 296.944106 189.269329 
L 296.485275 189.429222 
L 296.039988 189.729843 
L 295.130283 190.642056 
L 293.283021 191.447113 
L 292.372385 192.626218 
L 290.563419 193.186996 
L 289.670899 194.251819 
L 287.851996 195.018213 
L 286.941614 195.936622 
L 285.574771 196.637997 
L 285.130331 196.813189 
L 284.210636 197.552989 
L 282.860724 198.280363 
L 281.495912 199.381758 
L 280.58553 199.854761 
L 280.12709 199.964415 
L 279.225935 200.635863 
L 278.773368 201.072549 
L 276.950741 202.108059 
L 276.501899 202.220549 
L 263.772587 209.74138 
L 263.311216 209.867193 
L 261.939294 210.897265 
L 261.484187 211.357076 
L 259.206115 212.377486 
L 258.292854 213.172415 
L 257.397107 213.592896 
L 256.505856 214.016016 
L 255.581929 214.576694 
L 254.665621 215.026061 
L 251.936759 216.561044 
L 251.491134 216.712425 
L 250.575842 217.349121 
L 249.651237 217.728244 
L 248.281008 218.455778 
L 247.360382 219.136296 
L 245.092786 220.296712 
L 244.179356 220.924146 
L 242.33785 221.714842 
L 240.971769 222.679309 
L 239.157607 223.37093 
L 237.342345 224.45677 
L 236.882159 224.535738 
L 235.509221 225.18142 
L 234.150335 226.081751 
L 232.807364 226.778812 
L 231.417495 227.429386 
L 229.12283 228.688448 
L 227.749214 229.545085 
L 220.927611 233.080512 
L 219.573804 233.619758 
L 217.75524 234.6444 
L 216.849429 235.093799 
L 215.933883 235.753876 
L 214.138176 236.451498 
L 210.954018 238.233655 
L 210.046688 238.584582 
L 207.30098 239.906518 
L 205.036114 240.968833 
L 204.573727 241.255816 
L 203.672318 241.508549 
L 201.835771 242.750647 
L 200.932838 242.989644 
L 200.48552 243.091837 
L 200.028212 243.324106 
L 199.574375 243.733196 
L 198.653326 244.05879 
L 197.749378 244.280521 
L 197.297996 244.534286 
L 196.390153 245.437428 
L 195.945883 245.626737 
L 195.037024 245.650173 
L 194.113435 246.225034 
L 192.738465 247.10224 
L 191.372553 247.640848 
L 190.00526 248.498902 
L 189.089967 248.945905 
L 187.730066 249.26078 
L 185.901597 250.331017 
L 184.995448 250.465738 
L 183.184757 251.555123 
L 182.726772 251.678205 
L 182.264216 251.677869 
L 181.809109 251.840583 
L 179.969731 253.018106 
L 177.302245 254.034785 
L 176.404391 254.419776 
L 172.785211 256.26916 
L 171.876691 256.678282 
L 170.064561 257.425747 
L 169.152485 257.747545 
L 167.311678 258.795432 
L 165.47449 259.605165 
L 164.105107 260.114483 
L 163.18355 260.614955 
L 162.28976 260.982363 
L 161.399018 261.37173 
L 160.500149 261.799825 
L 159.579438 262.225276 
L 158.665839 262.619705 
L 158.204637 262.908956 
L 157.291459 263.226546 
L 156.381923 263.774608 
L 155.922414 263.863923 
L 152.274959 265.401193 
L 150.911163 265.919871 
L 149.991045 266.585377 
L 145.900168 268.03996 
L 144.974379 268.599872 
L 143.610752 269.100367 
L 142.705111 269.565193 
L 141.340807 270.167809 
L 140.890949 270.237458 
L 139.990387 270.722888 
L 139.087031 271.155726 
L 138.16141 271.450181 
L 137.24434 271.841975 
L 136.325069 272.380999 
L 134.961134 272.742299 
L 132.675274 273.843566 
L 131.761674 274.141081 
L 129.93583 274.970361 
L 129.045596 275.326456 
L 128.147234 275.662052 
L 126.32393 276.151915 
L 124.955309 276.829542 
L 123.586424 277.349192 
L 123.138598 277.389722 
L 122.216194 277.79137 
L 120.854176 278.454369 
L 119.507988 278.803652 
L 118.613352 279.16547 
L 115.871623 280.313418 
L 114.529499 280.638683 
L 113.616577 281.143019 
L 112.70293 281.753656 
L 111.347769 281.838969 
L 110.891139 281.96546 
L 109.514391 282.710881 
L 107.694134 283.25489 
L 99.983919 285.887825 
L 97.304413 286.535566 
L 95.961951 286.951468 
L 95.035653 287.246436 
L 94.114943 287.620999 
L 92.755549 287.906239 
L 92.305691 287.918128 
L 91.41224 288.286655 
L 90.054116 288.792773 
L 89.596216 288.992312 
L 87.784424 289.215105 
L 87.336683 289.308638 
L 86.872603 289.814443 
L 84.590213 289.732425 
L 84.131212 290.379534 
L 83.666878 290.417219 
L 82.741089 290.2231 
L 81.832484 290.286096 
L 81.371113 290.913786 
L 80.462424 290.811717 
L 79.096369 290.604021 
L 78.637961 291.06 
L 78.184293 290.861563 
L 76.982125 289.863535 
L 76.915988 271.226224 
L 76.915988 271.226224 
" clip-path="url(#pfc6032dcae)" style="fill: none; stroke: #000000; stroke-width: 2; stroke-linecap: square"/>
   </g>
   <g id="patch_3">
    <path d="M 59.15 303.64 
L 59.15 26.88 
" style="fill: none; stroke: #000000; stroke-width: 0.8; stroke-linejoin: miter; stroke-linecap: square"/>
   </g>
   <g id="patch_4">
    <path d="M 450 303.64 
L 450 26.88 
" style="fill: none; stroke: #000000; stroke-width: 0.8; stroke-linejoin: miter; stroke-linecap: square"/>
   </g>
   <g id="patch_5">
    <path d="M 59.15 303.64 
L 450 303.64 
" style="fill: none; stroke: #000000; stroke-width: 0.8; stroke-linejoin: miter; stroke-linecap: square"/>
   </g>
   <g id="patch_6">
    <path d="M 59.15 26.88 
L 450 26.88 
" style="fill: none; stroke: #000000; stroke-width: 0.8; stroke-linejoin: miter; stroke-linecap: square"/>
   </g>
   <g id="text_19">
    <!-- 2025-06-16 Trial 12 - Stress vs Strain -->
    <g transform="translate(143.320938 20.88) scale(0.12 -0.12)">
     <defs>
      <path id="DejaVuSans-36" d="M 2113 2584 
Q 1688 2584 1439 2293 
Q 1191 2003 1191 1497 
Q 1191 994 1439 701 
Q 1688 409 2113 409 
Q 2538 409 2786 701 
Q 3034 994 3034 1497 
Q 3034 2003 2786 2293 
Q 2538 2584 2113 2584 
z
M 3366 4563 
L 3366 3988 
Q 3128 4100 2886 4159 
Q 2644 4219 2406 4219 
Q 1781 4219 1451 3797 
Q 1122 3375 1075 2522 
Q 1259 2794 1537 2939 
Q 1816 3084 2150 3084 
Q 2853 3084 3261 2657 
Q 3669 2231 3669 1497 
Q 3669 778 3244 343 
Q 2819 -91 2113 -91 
Q 1303 -91 875 529 
Q 447 1150 447 2328 
Q 447 3434 972 4092 
Q 1497 4750 2381 4750 
Q 2619 4750 2861 4703 
Q 3103 4656 3366 4563 
z
" transform="scale(0.015625)"/>
      <path id="DejaVuSans-54" d="M -19 4666 
L 3928 4666 
L 3928 4134 
L 2272 4134 
L 2272 0 
L 1638 0 
L 1638 4134 
L -19 4134 
L -19 4666 
z
" transform="scale(0.015625)"/>
      <path id="DejaVuSans-6c" d="M 603 4863 
L 1178 4863 
L 1178 0 
L 603 0 
L 603 4863 
z
" transform="scale(0.015625)"/>
      <path id="DejaVuSans-76" d="M 191 3500 
L 800 3500 
L 1894 563 
L 2988 3500 
L 3597 3500 
L 2284 0 
L 1503 0 
L 191 3500 
z
" transform="scale(0.015625)"/>
     </defs>
     <use xlink:href="#DejaVuSans-32"/>
     <use xlink:href="#DejaVuSans-30" transform="translate(63.623047 0)"/>
     <use xlink:href="#DejaVuSans-32" transform="translate(127.246094 0)"/>
     <use xlink:href="#DejaVuSans-35" transform="translate(190.869141 0)"/>
     <use xlink:href="#DejaVuSans-2d" transform="translate(254.492188 0)"/>
     <use xlink:href="#DejaVuSans-30" transform="translate(290.576172 0)"/>
     <use xlink:href="#DejaVuSans-36" transform="translate(354.199219 0)"/>
     <use xlink:href="#DejaVuSans-2d" transform="translate(417.822266 0)"/>
     <use xlink:href="#DejaVuSans-31" transform="translate(453.90625 0)"/>
     <use xlink:href="#DejaVuSans-36" transform="translate(517.529297 0)"/>
     <use xlink:href="#DejaVuSans-20" transform="translate(581.152344 0)"/>
     <use xlink:href="#DejaVuSans-54" transform="translate(612.939453 0)"/>
     <use xlink:href="#DejaVuSans-72" transform="translate(659.273438 0)"/>
     <use xlink:href="#DejaVuSans-69" transform="translate(700.386719 0)"/>
     <use xlink:href="#DejaVuSans-61" transform="translate(728.169922 0)"/>
     <use xlink:href="#DejaVuSans-6c" transform="translate(789.449219 0)"/>
     <use xlink:href="#DejaVuSans-20" transform="translate(817.232422 0)"/>
     <use xlink:href="#DejaVuSans-31" transform="translate(849.019531 0)"/>
     <use xlink:href="#DejaVuSans-32" transform="translate(912.642578 0)"/>
     <use xlink:href="#DejaVuSans-20" transform="translate(976.265625 0)"/>
     <use xlink:href="#DejaVuSans-2d" transform="translate(1008.052734 0)"/>
     <use xlink:href="#DejaVuSans-20" transform="translate(1044.136719 0)"/>
     <use xlink:href="#DejaVuSans-53" transform="translate(1075.923828 0)"/>
     <use xlink:href="#DejaVuSans-74" transform="translate(1139.400391 0)"/>
     <use xlink:href="#DejaVuSans-72" transform="translate(1178.609375 0)"/>
     <use xlink:href="#DejaVuSans-65" transform="translate(1217.472656 0)"/>
     <use xlink:href="#DejaVuSans-73" transform="translate(1278.996094 0)"/>
     <use xlink:href="#DejaVuSans-73" transform="translate(1331.095703 0)"/>
     <use xlink:href="#DejaVuSans-20" transform="translate(1383.195312 0)"/>
     <use xlink:href="#DejaVuSans-76" transform="translate(1414.982422 0)"/>
     <use xlink:href="#DejaVuSans-73" transform="translate(1474.162109 0)"/>
     <use xlink:href="#DejaVuSans-20" transform="translate(1526.261719 0)"/>
     <use xlink:href="#DejaVuSans-53" transform="translate(1558.048828 0)"/>
     <use xlink:href="#DejaVuSans-74" transform="translate(1621.525391 0)"/>
     <use xlink:href="#DejaVuSans-72" transform="translate(1660.734375 0)"/>
     <use xlink:href="#DejaVuSans-61" transform="translate(1701.847656 0)"/>
     <use xlink:href="#DejaVuSans-69" transform="translate(1763.126953 0)"/>
     <use xlink:href="#DejaVuSans-6e" transform="translate(1790.910156 0)"/>
    </g>
   </g>
   <g id="legend_1">
    <g id="patch_7">
     <path d="M 66.15 64.23625 
L 172.134375 64.23625 
Q 174.134375 64.23625 174.134375 62.23625 
L 174.134375 33.88 
Q 174.134375 31.88 172.134375 31.88 
L 66.15 31.88 
Q 64.15 31.88 64.15 33.88 
L 64.15 62.23625 
Q 64.15 64.23625 66.15 64.23625 
z
" style="fill: #ffffff; opacity: 0.8; stroke: #cccccc; stroke-linejoin: miter"/>
    </g>
    <g id="line2d_35">
     <path d="M 68.15 39.978437 
L 78.15 39.978437 
L 88.15 39.978437 
" style="fill: none; stroke: #ff0000; stroke-width: 2; stroke-linecap: square"/>
    </g>
    <g id="text_20">
     <!-- Raw Force -->
     <g transform="translate(96.15 43.478437) scale(0.1 -0.1)">
      <defs>
       <path id="DejaVuSans-52" d="M 2841 2188 
Q 3044 2119 3236 1894 
Q 3428 1669 3622 1275 
L 4263 0 
L 3584 0 
L 2988 1197 
Q 2756 1666 2539 1819 
Q 2322 1972 1947 1972 
L 1259 1972 
L 1259 0 
L 628 0 
L 628 4666 
L 2053 4666 
Q 2853 4666 3247 4331 
Q 3641 3997 3641 3322 
Q 3641 2881 3436 2590 
Q 3231 2300 2841 2188 
z
M 1259 4147 
L 1259 2491 
L 2053 2491 
Q 2509 2491 2742 2702 
Q 2975 2913 2975 3322 
Q 2975 3731 2742 3939 
Q 2509 4147 2053 4147 
L 1259 4147 
z
" transform="scale(0.015625)"/>
       <path id="DejaVuSans-77" d="M 269 3500 
L 844 3500 
L 1563 769 
L 2278 3500 
L 2956 3500 
L 3675 769 
L 4391 3500 
L 4966 3500 
L 4050 0 
L 3372 0 
L 2619 2869 
L 1863 0 
L 1184 0 
L 269 3500 
z
" transform="scale(0.015625)"/>
       <path id="DejaVuSans-46" d="M 628 4666 
L 3309 4666 
L 3309 4134 
L 1259 4134 
L 1259 2759 
L 3109 2759 
L 3109 2228 
L 1259 2228 
L 1259 0 
L 628 0 
L 628 4666 
z
" transform="scale(0.015625)"/>
       <path id="DejaVuSans-6f" d="M 1959 3097 
Q 1497 3097 1228 2736 
Q 959 2375 959 1747 
Q 959 1119 1226 758 
Q 1494 397 1959 397 
Q 2419 397 2687 759 
Q 2956 1122 2956 1747 
Q 2956 2369 2687 2733 
Q 2419 3097 1959 3097 
z
M 1959 3584 
Q 2709 3584 3137 3096 
Q 3566 2609 3566 1747 
Q 3566 888 3137 398 
Q 2709 -91 1959 -91 
Q 1206 -91 779 398 
Q 353 888 353 1747 
Q 353 2609 779 3096 
Q 1206 3584 1959 3584 
z
" transform="scale(0.015625)"/>
       <path id="DejaVuSans-63" d="M 3122 3366 
L 3122 2828 
Q 2878 2963 2633 3030 
Q 2388 3097 2138 3097 
Q 1578 3097 1268 2742 
Q 959 2388 959 1747 
Q 959 1106 1268 751 
Q 1578 397 2138 397 
Q 2388 397 2633 464 
Q 2878 531 3122 666 
L 3122 134 
Q 2881 22 2623 -34 
Q 2366 -91 2075 -91 
Q 1284 -91 818 406 
Q 353 903 353 1747 
Q 353 2603 823 3093 
Q 1294 3584 2113 3584 
Q 2378 3584 2631 3529 
Q 2884 3475 3122 3366 
z
" transform="scale(0.015625)"/>
      </defs>
      <use xlink:href="#DejaVuSans-52"/>
      <use xlink:href="#DejaVuSans-61" transform="translate(67.232422 0)"/>
      <use xlink:href="#DejaVuSans-77" transform="translate(128.511719 0)"/>
      <use xlink:href="#DejaVuSans-20" transform="translate(210.298828 0)"/>
      <use xlink:href="#DejaVuSans-46" transform="translate(242.085938 0)"/>
      <use xlink:href="#DejaVuSans-6f" transform="translate(295.980469 0)"/>
      <use xlink:href="#DejaVuSans-72" transform="translate(357.162109 0)"/>
      <use xlink:href="#DejaVuSans-63" transform="translate(396.025391 0)"/>
      <use xlink:href="#DejaVuSans-65" transform="translate(451.005859 0)"/>
     </g>
    </g>
    <g id="line2d_36">
     <path d="M 68.15 54.656563 
L 78.15 54.656563 
L 88.15 54.656563 
" style="fill: none; stroke: #000000; stroke-width: 2; stroke-linecap: square"/>
    </g>
    <g id="text_21">
     <!-- Adjusted Force -->
     <g transform="translate(96.15 58.156563) scale(0.1 -0.1)">
      <defs>
       <path id="DejaVuSans-41" d="M 2188 4044 
L 1331 1722 
L 3047 1722 
L 2188 4044 
z
M 1831 4666 
L 2547 4666 
L 4325 0 
L 3669 0 
L 3244 1197 
L 1141 1197 
L 716 0 
L 50 0 
L 1831 4666 
z
" transform="scale(0.015625)"/>
       <path id="DejaVuSans-64" d="M 2906 2969 
L 2906 4863 
L 3481 4863 
L 3481 0 
L 2906 0 
L 2906 525 
Q 2725 213 2448 61 
Q 2172 -91 1784 -91 
Q 1150 -91 751 415 
Q 353 922 353 1747 
Q 353 2572 751 3078 
Q 1150 3584 1784 3584 
Q 2172 3584 2448 3432 
Q 2725 3281 2906 2969 
z
M 947 1747 
Q 947 1113 1208 752 
Q 1469 391 1925 391 
Q 2381 391 2643 752 
Q 2906 1113 2906 1747 
Q 2906 2381 2643 2742 
Q 2381 3103 1925 3103 
Q 1469 3103 1208 2742 
Q 947 2381 947 1747 
z
" transform="scale(0.015625)"/>
       <path id="DejaVuSans-6a" d="M 603 3500 
L 1178 3500 
L 1178 -63 
Q 1178 -731 923 -1031 
Q 669 -1331 103 -1331 
L -116 -1331 
L -116 -844 
L 38 -844 
Q 366 -844 484 -692 
Q 603 -541 603 -63 
L 603 3500 
z
M 603 4863 
L 1178 4863 
L 1178 4134 
L 603 4134 
L 603 4863 
z
" transform="scale(0.015625)"/>
       <path id="DejaVuSans-75" d="M 544 1381 
L 544 3500 
L 1119 3500 
L 1119 1403 
Q 1119 906 1312 657 
Q 1506 409 1894 409 
Q 2359 409 2629 706 
Q 2900 1003 2900 1516 
L 2900 3500 
L 3475 3500 
L 3475 0 
L 2900 0 
L 2900 538 
Q 2691 219 2414 64 
Q 2138 -91 1772 -91 
Q 1169 -91 856 284 
Q 544 659 544 1381 
z
M 1991 3584 
L 1991 3584 
z
" transform="scale(0.015625)"/>
      </defs>
      <use xlink:href="#DejaVuSans-41"/>
      <use xlink:href="#DejaVuSans-64" transform="translate(66.658203 0)"/>
      <use xlink:href="#DejaVuSans-6a" transform="translate(130.134766 0)"/>
      <use xlink:href="#DejaVuSans-75" transform="translate(157.917969 0)"/>
      <use xlink:href="#DejaVuSans-73" transform="translate(221.296875 0)"/>
      <use xlink:href="#DejaVuSans-74" transform="translate(273.396484 0)"/>
      <use xlink:href="#DejaVuSans-65" transform="translate(312.605469 0)"/>
      <use xlink:href="#DejaVuSans-64" transform="translate(374.128906 0)"/>
      <use xlink:href="#DejaVuSans-20" transform="translate(437.605469 0)"/>
      <use xlink:href="#DejaVuSans-46" transform="translate(469.392578 0)"/>
      <use xlink:href="#DejaVuSans-6f" transform="translate(523.287109 0)"/>
      <use xlink:href="#DejaVuSans-72" transform="translate(584.46875 0)"/>
      <use xlink:href="#DejaVuSans-63" transform="translate(623.332031 0)"/>
      <use xlink:href="#DejaVuSans-65" transform="translate(678.3125 0)"/>
     </g>
    </g>
   </g>
  </g>
 </g>
 <defs>
  <clipPath id="pfc6032dcae">
   <rect x="59.15" y="26.88" width="390.85" height="276.76"/>
  </clipPath>
 </defs>
</svg>
