<?xml version="1.0" encoding="utf-8" standalone="no"?>
<!DOCTYPE svg PUBLIC "-//W3C//DTD SVG 1.1//EN"
  "http://www.w3.org/Graphics/SVG/1.1/DTD/svg11.dtd">
<svg xmlns:xlink="http://www.w3.org/1999/xlink" width="460.8pt" height="345.6pt" viewBox="0 0 460.8 345.6" xmlns="http://www.w3.org/2000/svg" version="1.1">
 <metadata>
  <rdf:RDF xmlns:dc="http://purl.org/dc/elements/1.1/" xmlns:cc="http://creativecommons.org/ns#" xmlns:rdf="http://www.w3.org/1999/02/22-rdf-syntax-ns#">
   <cc:Work>
    <dc:type rdf:resource="http://purl.org/dc/dcmitype/StillImage"/>
    <dc:date>2025-07-28T21:14:00.686899</dc:date>
    <dc:format>image/svg+xml</dc:format>
    <dc:creator>
     <cc:Agent>
      <dc:title>Matplotlib v3.10.3, https://matplotlib.org/</dc:title>
     </cc:Agent>
    </dc:creator>
   </cc:Work>
  </rdf:RDF>
 </metadata>
 <defs>
  <style type="text/css">*{stroke-linejoin: round; stroke-linecap: butt}</style>
 </defs>
 <g id="figure_1">
  <g id="patch_1">
   <path d="M 0 345.6 
L 460.8 345.6 
L 460.8 0 
L 0 0 
z
" style="fill: #ffffff"/>
  </g>
  <g id="axes_1">
   <g id="patch_2">
    <path d="M 59.24 303.64 
L 450 303.64 
L 450 26.88 
L 59.24 26.88 
z
" style="fill: #ffffff"/>
   </g>
   <g id="matplotlib.axis_1">
    <g id="xtick_1">
     <g id="line2d_1">
      <path d="M 70.101531 303.64 
L 70.101531 26.88 
" clip-path="url(#pd59abace03)" style="fill: none; stroke: #b0b0b0; stroke-opacity: 0.3; stroke-width: 0.8; stroke-linecap: square"/>
     </g>
     <g id="line2d_2">
      <defs>
       <path id="m7e6809f6b4" d="M 0 0 
L 0 3.5 
" style="stroke: #000000; stroke-width: 0.8"/>
      </defs>
      <g>
       <use xlink:href="#m7e6809f6b4" x="70.101531" y="303.64" style="stroke: #000000; stroke-width: 0.8"/>
      </g>
     </g>
     <g id="text_1">
      <!-- −0.04 -->
      <g transform="translate(54.778875 318.238437) scale(0.1 -0.1)">
       <defs>
        <path id="DejaVuSans-2212" d="M 678 2272 
L 4684 2272 
L 4684 1741 
L 678 1741 
L 678 2272 
z
" transform="scale(0.015625)"/>
        <path id="DejaVuSans-30" d="M 2034 4250 
Q 1547 4250 1301 3770 
Q 1056 3291 1056 2328 
Q 1056 1369 1301 889 
Q 1547 409 2034 409 
Q 2525 409 2770 889 
Q 3016 1369 3016 2328 
Q 3016 3291 2770 3770 
Q 2525 4250 2034 4250 
z
M 2034 4750 
Q 2819 4750 3233 4129 
Q 3647 3509 3647 2328 
Q 3647 1150 3233 529 
Q 2819 -91 2034 -91 
Q 1250 -91 836 529 
Q 422 1150 422 2328 
Q 422 3509 836 4129 
Q 1250 4750 2034 4750 
z
" transform="scale(0.015625)"/>
        <path id="DejaVuSans-2e" d="M 684 794 
L 1344 794 
L 1344 0 
L 684 0 
L 684 794 
z
" transform="scale(0.015625)"/>
        <path id="DejaVuSans-34" d="M 2419 4116 
L 825 1625 
L 2419 1625 
L 2419 4116 
z
M 2253 4666 
L 3047 4666 
L 3047 1625 
L 3713 1625 
L 3713 1100 
L 3047 1100 
L 3047 0 
L 2419 0 
L 2419 1100 
L 313 1100 
L 313 1709 
L 2253 4666 
z
" transform="scale(0.015625)"/>
       </defs>
       <use xlink:href="#DejaVuSans-2212"/>
       <use xlink:href="#DejaVuSans-30" transform="translate(83.789062 0)"/>
       <use xlink:href="#DejaVuSans-2e" transform="translate(147.412109 0)"/>
       <use xlink:href="#DejaVuSans-30" transform="translate(179.199219 0)"/>
       <use xlink:href="#DejaVuSans-34" transform="translate(242.822266 0)"/>
      </g>
     </g>
    </g>
    <g id="xtick_2">
     <g id="line2d_3">
      <path d="M 117.988223 303.64 
L 117.988223 26.88 
" clip-path="url(#pd59abace03)" style="fill: none; stroke: #b0b0b0; stroke-opacity: 0.3; stroke-width: 0.8; stroke-linecap: square"/>
     </g>
     <g id="line2d_4">
      <g>
       <use xlink:href="#m7e6809f6b4" x="117.988223" y="303.64" style="stroke: #000000; stroke-width: 0.8"/>
      </g>
     </g>
     <g id="text_2">
      <!-- −0.02 -->
      <g transform="translate(102.665567 318.238437) scale(0.1 -0.1)">
       <defs>
        <path id="DejaVuSans-32" d="M 1228 531 
L 3431 531 
L 3431 0 
L 469 0 
L 469 531 
Q 828 903 1448 1529 
Q 2069 2156 2228 2338 
Q 2531 2678 2651 2914 
Q 2772 3150 2772 3378 
Q 2772 3750 2511 3984 
Q 2250 4219 1831 4219 
Q 1534 4219 1204 4116 
Q 875 4013 500 3803 
L 500 4441 
Q 881 4594 1212 4672 
Q 1544 4750 1819 4750 
Q 2544 4750 2975 4387 
Q 3406 4025 3406 3419 
Q 3406 3131 3298 2873 
Q 3191 2616 2906 2266 
Q 2828 2175 2409 1742 
Q 1991 1309 1228 531 
z
" transform="scale(0.015625)"/>
       </defs>
       <use xlink:href="#DejaVuSans-2212"/>
       <use xlink:href="#DejaVuSans-30" transform="translate(83.789062 0)"/>
       <use xlink:href="#DejaVuSans-2e" transform="translate(147.412109 0)"/>
       <use xlink:href="#DejaVuSans-30" transform="translate(179.199219 0)"/>
       <use xlink:href="#DejaVuSans-32" transform="translate(242.822266 0)"/>
      </g>
     </g>
    </g>
    <g id="xtick_3">
     <g id="line2d_5">
      <path d="M 165.874916 303.64 
L 165.874916 26.88 
" clip-path="url(#pd59abace03)" style="fill: none; stroke: #b0b0b0; stroke-opacity: 0.3; stroke-width: 0.8; stroke-linecap: square"/>
     </g>
     <g id="line2d_6">
      <g>
       <use xlink:href="#m7e6809f6b4" x="165.874916" y="303.64" style="stroke: #000000; stroke-width: 0.8"/>
      </g>
     </g>
     <g id="text_3">
      <!-- 0.00 -->
      <g transform="translate(154.742104 318.238437) scale(0.1 -0.1)">
       <use xlink:href="#DejaVuSans-30"/>
       <use xlink:href="#DejaVuSans-2e" transform="translate(63.623047 0)"/>
       <use xlink:href="#DejaVuSans-30" transform="translate(95.410156 0)"/>
       <use xlink:href="#DejaVuSans-30" transform="translate(159.033203 0)"/>
      </g>
     </g>
    </g>
    <g id="xtick_4">
     <g id="line2d_7">
      <path d="M 213.761609 303.64 
L 213.761609 26.88 
" clip-path="url(#pd59abace03)" style="fill: none; stroke: #b0b0b0; stroke-opacity: 0.3; stroke-width: 0.8; stroke-linecap: square"/>
     </g>
     <g id="line2d_8">
      <g>
       <use xlink:href="#m7e6809f6b4" x="213.761609" y="303.64" style="stroke: #000000; stroke-width: 0.8"/>
      </g>
     </g>
     <g id="text_4">
      <!-- 0.02 -->
      <g transform="translate(202.628796 318.238437) scale(0.1 -0.1)">
       <use xlink:href="#DejaVuSans-30"/>
       <use xlink:href="#DejaVuSans-2e" transform="translate(63.623047 0)"/>
       <use xlink:href="#DejaVuSans-30" transform="translate(95.410156 0)"/>
       <use xlink:href="#DejaVuSans-32" transform="translate(159.033203 0)"/>
      </g>
     </g>
    </g>
    <g id="xtick_5">
     <g id="line2d_9">
      <path d="M 261.648301 303.64 
L 261.648301 26.88 
" clip-path="url(#pd59abace03)" style="fill: none; stroke: #b0b0b0; stroke-opacity: 0.3; stroke-width: 0.8; stroke-linecap: square"/>
     </g>
     <g id="line2d_10">
      <g>
       <use xlink:href="#m7e6809f6b4" x="261.648301" y="303.64" style="stroke: #000000; stroke-width: 0.8"/>
      </g>
     </g>
     <g id="text_5">
      <!-- 0.04 -->
      <g transform="translate(250.515489 318.238437) scale(0.1 -0.1)">
       <use xlink:href="#DejaVuSans-30"/>
       <use xlink:href="#DejaVuSans-2e" transform="translate(63.623047 0)"/>
       <use xlink:href="#DejaVuSans-30" transform="translate(95.410156 0)"/>
       <use xlink:href="#DejaVuSans-34" transform="translate(159.033203 0)"/>
      </g>
     </g>
    </g>
    <g id="xtick_6">
     <g id="line2d_11">
      <path d="M 309.534994 303.64 
L 309.534994 26.88 
" clip-path="url(#pd59abace03)" style="fill: none; stroke: #b0b0b0; stroke-opacity: 0.3; stroke-width: 0.8; stroke-linecap: square"/>
     </g>
     <g id="line2d_12">
      <g>
       <use xlink:href="#m7e6809f6b4" x="309.534994" y="303.64" style="stroke: #000000; stroke-width: 0.8"/>
      </g>
     </g>
     <g id="text_6">
      <!-- 0.06 -->
      <g transform="translate(298.402181 318.238437) scale(0.1 -0.1)">
       <defs>
        <path id="DejaVuSans-36" d="M 2113 2584 
Q 1688 2584 1439 2293 
Q 1191 2003 1191 1497 
Q 1191 994 1439 701 
Q 1688 409 2113 409 
Q 2538 409 2786 701 
Q 3034 994 3034 1497 
Q 3034 2003 2786 2293 
Q 2538 2584 2113 2584 
z
M 3366 4563 
L 3366 3988 
Q 3128 4100 2886 4159 
Q 2644 4219 2406 4219 
Q 1781 4219 1451 3797 
Q 1122 3375 1075 2522 
Q 1259 2794 1537 2939 
Q 1816 3084 2150 3084 
Q 2853 3084 3261 2657 
Q 3669 2231 3669 1497 
Q 3669 778 3244 343 
Q 2819 -91 2113 -91 
Q 1303 -91 875 529 
Q 447 1150 447 2328 
Q 447 3434 972 4092 
Q 1497 4750 2381 4750 
Q 2619 4750 2861 4703 
Q 3103 4656 3366 4563 
z
" transform="scale(0.015625)"/>
       </defs>
       <use xlink:href="#DejaVuSans-30"/>
       <use xlink:href="#DejaVuSans-2e" transform="translate(63.623047 0)"/>
       <use xlink:href="#DejaVuSans-30" transform="translate(95.410156 0)"/>
       <use xlink:href="#DejaVuSans-36" transform="translate(159.033203 0)"/>
      </g>
     </g>
    </g>
    <g id="xtick_7">
     <g id="line2d_13">
      <path d="M 357.421687 303.64 
L 357.421687 26.88 
" clip-path="url(#pd59abace03)" style="fill: none; stroke: #b0b0b0; stroke-opacity: 0.3; stroke-width: 0.8; stroke-linecap: square"/>
     </g>
     <g id="line2d_14">
      <g>
       <use xlink:href="#m7e6809f6b4" x="357.421687" y="303.64" style="stroke: #000000; stroke-width: 0.8"/>
      </g>
     </g>
     <g id="text_7">
      <!-- 0.08 -->
      <g transform="translate(346.288874 318.238437) scale(0.1 -0.1)">
       <defs>
        <path id="DejaVuSans-38" d="M 2034 2216 
Q 1584 2216 1326 1975 
Q 1069 1734 1069 1313 
Q 1069 891 1326 650 
Q 1584 409 2034 409 
Q 2484 409 2743 651 
Q 3003 894 3003 1313 
Q 3003 1734 2745 1975 
Q 2488 2216 2034 2216 
z
M 1403 2484 
Q 997 2584 770 2862 
Q 544 3141 544 3541 
Q 544 4100 942 4425 
Q 1341 4750 2034 4750 
Q 2731 4750 3128 4425 
Q 3525 4100 3525 3541 
Q 3525 3141 3298 2862 
Q 3072 2584 2669 2484 
Q 3125 2378 3379 2068 
Q 3634 1759 3634 1313 
Q 3634 634 3220 271 
Q 2806 -91 2034 -91 
Q 1263 -91 848 271 
Q 434 634 434 1313 
Q 434 1759 690 2068 
Q 947 2378 1403 2484 
z
M 1172 3481 
Q 1172 3119 1398 2916 
Q 1625 2713 2034 2713 
Q 2441 2713 2670 2916 
Q 2900 3119 2900 3481 
Q 2900 3844 2670 4047 
Q 2441 4250 2034 4250 
Q 1625 4250 1398 4047 
Q 1172 3844 1172 3481 
z
" transform="scale(0.015625)"/>
       </defs>
       <use xlink:href="#DejaVuSans-30"/>
       <use xlink:href="#DejaVuSans-2e" transform="translate(63.623047 0)"/>
       <use xlink:href="#DejaVuSans-30" transform="translate(95.410156 0)"/>
       <use xlink:href="#DejaVuSans-38" transform="translate(159.033203 0)"/>
      </g>
     </g>
    </g>
    <g id="xtick_8">
     <g id="line2d_15">
      <path d="M 405.308379 303.64 
L 405.308379 26.88 
" clip-path="url(#pd59abace03)" style="fill: none; stroke: #b0b0b0; stroke-opacity: 0.3; stroke-width: 0.8; stroke-linecap: square"/>
     </g>
     <g id="line2d_16">
      <g>
       <use xlink:href="#m7e6809f6b4" x="405.308379" y="303.64" style="stroke: #000000; stroke-width: 0.8"/>
      </g>
     </g>
     <g id="text_8">
      <!-- 0.10 -->
      <g transform="translate(394.175567 318.238437) scale(0.1 -0.1)">
       <defs>
        <path id="DejaVuSans-31" d="M 794 531 
L 1825 531 
L 1825 4091 
L 703 3866 
L 703 4441 
L 1819 4666 
L 2450 4666 
L 2450 531 
L 3481 531 
L 3481 0 
L 794 0 
L 794 531 
z
" transform="scale(0.015625)"/>
       </defs>
       <use xlink:href="#DejaVuSans-30"/>
       <use xlink:href="#DejaVuSans-2e" transform="translate(63.623047 0)"/>
       <use xlink:href="#DejaVuSans-31" transform="translate(95.410156 0)"/>
       <use xlink:href="#DejaVuSans-30" transform="translate(159.033203 0)"/>
      </g>
     </g>
    </g>
    <g id="text_9">
     <!-- Strain [-] -->
     <g transform="translate(232.51375 331.916562) scale(0.1 -0.1)">
      <defs>
       <path id="DejaVuSans-53" d="M 3425 4513 
L 3425 3897 
Q 3066 4069 2747 4153 
Q 2428 4238 2131 4238 
Q 1616 4238 1336 4038 
Q 1056 3838 1056 3469 
Q 1056 3159 1242 3001 
Q 1428 2844 1947 2747 
L 2328 2669 
Q 3034 2534 3370 2195 
Q 3706 1856 3706 1288 
Q 3706 609 3251 259 
Q 2797 -91 1919 -91 
Q 1588 -91 1214 -16 
Q 841 59 441 206 
L 441 856 
Q 825 641 1194 531 
Q 1563 422 1919 422 
Q 2459 422 2753 634 
Q 3047 847 3047 1241 
Q 3047 1584 2836 1778 
Q 2625 1972 2144 2069 
L 1759 2144 
Q 1053 2284 737 2584 
Q 422 2884 422 3419 
Q 422 4038 858 4394 
Q 1294 4750 2059 4750 
Q 2388 4750 2728 4690 
Q 3069 4631 3425 4513 
z
" transform="scale(0.015625)"/>
       <path id="DejaVuSans-74" d="M 1172 4494 
L 1172 3500 
L 2356 3500 
L 2356 3053 
L 1172 3053 
L 1172 1153 
Q 1172 725 1289 603 
Q 1406 481 1766 481 
L 2356 481 
L 2356 0 
L 1766 0 
Q 1100 0 847 248 
Q 594 497 594 1153 
L 594 3053 
L 172 3053 
L 172 3500 
L 594 3500 
L 594 4494 
L 1172 4494 
z
" transform="scale(0.015625)"/>
       <path id="DejaVuSans-72" d="M 2631 2963 
Q 2534 3019 2420 3045 
Q 2306 3072 2169 3072 
Q 1681 3072 1420 2755 
Q 1159 2438 1159 1844 
L 1159 0 
L 581 0 
L 581 3500 
L 1159 3500 
L 1159 2956 
Q 1341 3275 1631 3429 
Q 1922 3584 2338 3584 
Q 2397 3584 2469 3576 
Q 2541 3569 2628 3553 
L 2631 2963 
z
" transform="scale(0.015625)"/>
       <path id="DejaVuSans-61" d="M 2194 1759 
Q 1497 1759 1228 1600 
Q 959 1441 959 1056 
Q 959 750 1161 570 
Q 1363 391 1709 391 
Q 2188 391 2477 730 
Q 2766 1069 2766 1631 
L 2766 1759 
L 2194 1759 
z
M 3341 1997 
L 3341 0 
L 2766 0 
L 2766 531 
Q 2569 213 2275 61 
Q 1981 -91 1556 -91 
Q 1019 -91 701 211 
Q 384 513 384 1019 
Q 384 1609 779 1909 
Q 1175 2209 1959 2209 
L 2766 2209 
L 2766 2266 
Q 2766 2663 2505 2880 
Q 2244 3097 1772 3097 
Q 1472 3097 1187 3025 
Q 903 2953 641 2809 
L 641 3341 
Q 956 3463 1253 3523 
Q 1550 3584 1831 3584 
Q 2591 3584 2966 3190 
Q 3341 2797 3341 1997 
z
" transform="scale(0.015625)"/>
       <path id="DejaVuSans-69" d="M 603 3500 
L 1178 3500 
L 1178 0 
L 603 0 
L 603 3500 
z
M 603 4863 
L 1178 4863 
L 1178 4134 
L 603 4134 
L 603 4863 
z
" transform="scale(0.015625)"/>
       <path id="DejaVuSans-6e" d="M 3513 2113 
L 3513 0 
L 2938 0 
L 2938 2094 
Q 2938 2591 2744 2837 
Q 2550 3084 2163 3084 
Q 1697 3084 1428 2787 
Q 1159 2491 1159 1978 
L 1159 0 
L 581 0 
L 581 3500 
L 1159 3500 
L 1159 2956 
Q 1366 3272 1645 3428 
Q 1925 3584 2291 3584 
Q 2894 3584 3203 3211 
Q 3513 2838 3513 2113 
z
" transform="scale(0.015625)"/>
       <path id="DejaVuSans-20" transform="scale(0.015625)"/>
       <path id="DejaVuSans-5b" d="M 550 4863 
L 1875 4863 
L 1875 4416 
L 1125 4416 
L 1125 -397 
L 1875 -397 
L 1875 -844 
L 550 -844 
L 550 4863 
z
" transform="scale(0.015625)"/>
       <path id="DejaVuSans-2d" d="M 313 2009 
L 1997 2009 
L 1997 1497 
L 313 1497 
L 313 2009 
z
" transform="scale(0.015625)"/>
       <path id="DejaVuSans-5d" d="M 1947 4863 
L 1947 -844 
L 622 -844 
L 622 -397 
L 1369 -397 
L 1369 4416 
L 622 4416 
L 622 4863 
L 1947 4863 
z
" transform="scale(0.015625)"/>
      </defs>
      <use xlink:href="#DejaVuSans-53"/>
      <use xlink:href="#DejaVuSans-74" transform="translate(63.476562 0)"/>
      <use xlink:href="#DejaVuSans-72" transform="translate(102.685547 0)"/>
      <use xlink:href="#DejaVuSans-61" transform="translate(143.798828 0)"/>
      <use xlink:href="#DejaVuSans-69" transform="translate(205.078125 0)"/>
      <use xlink:href="#DejaVuSans-6e" transform="translate(232.861328 0)"/>
      <use xlink:href="#DejaVuSans-20" transform="translate(296.240234 0)"/>
      <use xlink:href="#DejaVuSans-5b" transform="translate(328.027344 0)"/>
      <use xlink:href="#DejaVuSans-2d" transform="translate(367.041016 0)"/>
      <use xlink:href="#DejaVuSans-5d" transform="translate(403.125 0)"/>
     </g>
    </g>
   </g>
   <g id="matplotlib.axis_2">
    <g id="ytick_1">
     <g id="line2d_17">
      <path d="M 59.24 300.852121 
L 450 300.852121 
" clip-path="url(#pd59abace03)" style="fill: none; stroke: #b0b0b0; stroke-opacity: 0.3; stroke-width: 0.8; stroke-linecap: square"/>
     </g>
     <g id="line2d_18">
      <defs>
       <path id="m8570221f70" d="M 0 0 
L -3.5 0 
" style="stroke: #000000; stroke-width: 0.8"/>
      </defs>
      <g>
       <use xlink:href="#m8570221f70" x="59.24" y="300.852121" style="stroke: #000000; stroke-width: 0.8"/>
      </g>
     </g>
     <g id="text_10">
      <!-- −300 -->
      <g transform="translate(24.772813 304.65134) scale(0.1 -0.1)">
       <defs>
        <path id="DejaVuSans-33" d="M 2597 2516 
Q 3050 2419 3304 2112 
Q 3559 1806 3559 1356 
Q 3559 666 3084 287 
Q 2609 -91 1734 -91 
Q 1441 -91 1130 -33 
Q 819 25 488 141 
L 488 750 
Q 750 597 1062 519 
Q 1375 441 1716 441 
Q 2309 441 2620 675 
Q 2931 909 2931 1356 
Q 2931 1769 2642 2001 
Q 2353 2234 1838 2234 
L 1294 2234 
L 1294 2753 
L 1863 2753 
Q 2328 2753 2575 2939 
Q 2822 3125 2822 3475 
Q 2822 3834 2567 4026 
Q 2313 4219 1838 4219 
Q 1578 4219 1281 4162 
Q 984 4106 628 3988 
L 628 4550 
Q 988 4650 1302 4700 
Q 1616 4750 1894 4750 
Q 2613 4750 3031 4423 
Q 3450 4097 3450 3541 
Q 3450 3153 3228 2886 
Q 3006 2619 2597 2516 
z
" transform="scale(0.015625)"/>
       </defs>
       <use xlink:href="#DejaVuSans-2212"/>
       <use xlink:href="#DejaVuSans-33" transform="translate(83.789062 0)"/>
       <use xlink:href="#DejaVuSans-30" transform="translate(147.412109 0)"/>
       <use xlink:href="#DejaVuSans-30" transform="translate(211.035156 0)"/>
      </g>
     </g>
    </g>
    <g id="ytick_2">
     <g id="line2d_19">
      <path d="M 59.24 268.915287 
L 450 268.915287 
" clip-path="url(#pd59abace03)" style="fill: none; stroke: #b0b0b0; stroke-opacity: 0.3; stroke-width: 0.8; stroke-linecap: square"/>
     </g>
     <g id="line2d_20">
      <g>
       <use xlink:href="#m8570221f70" x="59.24" y="268.915287" style="stroke: #000000; stroke-width: 0.8"/>
      </g>
     </g>
     <g id="text_11">
      <!-- −200 -->
      <g transform="translate(24.772813 272.714505) scale(0.1 -0.1)">
       <use xlink:href="#DejaVuSans-2212"/>
       <use xlink:href="#DejaVuSans-32" transform="translate(83.789062 0)"/>
       <use xlink:href="#DejaVuSans-30" transform="translate(147.412109 0)"/>
       <use xlink:href="#DejaVuSans-30" transform="translate(211.035156 0)"/>
      </g>
     </g>
    </g>
    <g id="ytick_3">
     <g id="line2d_21">
      <path d="M 59.24 236.978452 
L 450 236.978452 
" clip-path="url(#pd59abace03)" style="fill: none; stroke: #b0b0b0; stroke-opacity: 0.3; stroke-width: 0.8; stroke-linecap: square"/>
     </g>
     <g id="line2d_22">
      <g>
       <use xlink:href="#m8570221f70" x="59.24" y="236.978452" style="stroke: #000000; stroke-width: 0.8"/>
      </g>
     </g>
     <g id="text_12">
      <!-- −100 -->
      <g transform="translate(24.772813 240.777671) scale(0.1 -0.1)">
       <use xlink:href="#DejaVuSans-2212"/>
       <use xlink:href="#DejaVuSans-31" transform="translate(83.789062 0)"/>
       <use xlink:href="#DejaVuSans-30" transform="translate(147.412109 0)"/>
       <use xlink:href="#DejaVuSans-30" transform="translate(211.035156 0)"/>
      </g>
     </g>
    </g>
    <g id="ytick_4">
     <g id="line2d_23">
      <path d="M 59.24 205.041618 
L 450 205.041618 
" clip-path="url(#pd59abace03)" style="fill: none; stroke: #b0b0b0; stroke-opacity: 0.3; stroke-width: 0.8; stroke-linecap: square"/>
     </g>
     <g id="line2d_24">
      <g>
       <use xlink:href="#m8570221f70" x="59.24" y="205.041618" style="stroke: #000000; stroke-width: 0.8"/>
      </g>
     </g>
     <g id="text_13">
      <!-- 0 -->
      <g transform="translate(45.8775 208.840837) scale(0.1 -0.1)">
       <use xlink:href="#DejaVuSans-30"/>
      </g>
     </g>
    </g>
    <g id="ytick_5">
     <g id="line2d_25">
      <path d="M 59.24 173.104784 
L 450 173.104784 
" clip-path="url(#pd59abace03)" style="fill: none; stroke: #b0b0b0; stroke-opacity: 0.3; stroke-width: 0.8; stroke-linecap: square"/>
     </g>
     <g id="line2d_26">
      <g>
       <use xlink:href="#m8570221f70" x="59.24" y="173.104784" style="stroke: #000000; stroke-width: 0.8"/>
      </g>
     </g>
     <g id="text_14">
      <!-- 100 -->
      <g transform="translate(33.1525 176.904003) scale(0.1 -0.1)">
       <use xlink:href="#DejaVuSans-31"/>
       <use xlink:href="#DejaVuSans-30" transform="translate(63.623047 0)"/>
       <use xlink:href="#DejaVuSans-30" transform="translate(127.246094 0)"/>
      </g>
     </g>
    </g>
    <g id="ytick_6">
     <g id="line2d_27">
      <path d="M 59.24 141.167949 
L 450 141.167949 
" clip-path="url(#pd59abace03)" style="fill: none; stroke: #b0b0b0; stroke-opacity: 0.3; stroke-width: 0.8; stroke-linecap: square"/>
     </g>
     <g id="line2d_28">
      <g>
       <use xlink:href="#m8570221f70" x="59.24" y="141.167949" style="stroke: #000000; stroke-width: 0.8"/>
      </g>
     </g>
     <g id="text_15">
      <!-- 200 -->
      <g transform="translate(33.1525 144.967168) scale(0.1 -0.1)">
       <use xlink:href="#DejaVuSans-32"/>
       <use xlink:href="#DejaVuSans-30" transform="translate(63.623047 0)"/>
       <use xlink:href="#DejaVuSans-30" transform="translate(127.246094 0)"/>
      </g>
     </g>
    </g>
    <g id="ytick_7">
     <g id="line2d_29">
      <path d="M 59.24 109.231115 
L 450 109.231115 
" clip-path="url(#pd59abace03)" style="fill: none; stroke: #b0b0b0; stroke-opacity: 0.3; stroke-width: 0.8; stroke-linecap: square"/>
     </g>
     <g id="line2d_30">
      <g>
       <use xlink:href="#m8570221f70" x="59.24" y="109.231115" style="stroke: #000000; stroke-width: 0.8"/>
      </g>
     </g>
     <g id="text_16">
      <!-- 300 -->
      <g transform="translate(33.1525 113.030334) scale(0.1 -0.1)">
       <use xlink:href="#DejaVuSans-33"/>
       <use xlink:href="#DejaVuSans-30" transform="translate(63.623047 0)"/>
       <use xlink:href="#DejaVuSans-30" transform="translate(127.246094 0)"/>
      </g>
     </g>
    </g>
    <g id="ytick_8">
     <g id="line2d_31">
      <path d="M 59.24 77.294281 
L 450 77.294281 
" clip-path="url(#pd59abace03)" style="fill: none; stroke: #b0b0b0; stroke-opacity: 0.3; stroke-width: 0.8; stroke-linecap: square"/>
     </g>
     <g id="line2d_32">
      <g>
       <use xlink:href="#m8570221f70" x="59.24" y="77.294281" style="stroke: #000000; stroke-width: 0.8"/>
      </g>
     </g>
     <g id="text_17">
      <!-- 400 -->
      <g transform="translate(33.1525 81.0935) scale(0.1 -0.1)">
       <use xlink:href="#DejaVuSans-34"/>
       <use xlink:href="#DejaVuSans-30" transform="translate(63.623047 0)"/>
       <use xlink:href="#DejaVuSans-30" transform="translate(127.246094 0)"/>
      </g>
     </g>
    </g>
    <g id="ytick_9">
     <g id="line2d_33">
      <path d="M 59.24 45.357447 
L 450 45.357447 
" clip-path="url(#pd59abace03)" style="fill: none; stroke: #b0b0b0; stroke-opacity: 0.3; stroke-width: 0.8; stroke-linecap: square"/>
     </g>
     <g id="line2d_34">
      <g>
       <use xlink:href="#m8570221f70" x="59.24" y="45.357447" style="stroke: #000000; stroke-width: 0.8"/>
      </g>
     </g>
     <g id="text_18">
      <!-- 500 -->
      <g transform="translate(33.1525 49.156665) scale(0.1 -0.1)">
       <defs>
        <path id="DejaVuSans-35" d="M 691 4666 
L 3169 4666 
L 3169 4134 
L 1269 4134 
L 1269 2991 
Q 1406 3038 1543 3061 
Q 1681 3084 1819 3084 
Q 2600 3084 3056 2656 
Q 3513 2228 3513 1497 
Q 3513 744 3044 326 
Q 2575 -91 1722 -91 
Q 1428 -91 1123 -41 
Q 819 9 494 109 
L 494 744 
Q 775 591 1075 516 
Q 1375 441 1709 441 
Q 2250 441 2565 725 
Q 2881 1009 2881 1497 
Q 2881 1984 2565 2268 
Q 2250 2553 1709 2553 
Q 1456 2553 1204 2497 
Q 953 2441 691 2322 
L 691 4666 
z
" transform="scale(0.015625)"/>
       </defs>
       <use xlink:href="#DejaVuSans-35"/>
       <use xlink:href="#DejaVuSans-30" transform="translate(63.623047 0)"/>
       <use xlink:href="#DejaVuSans-30" transform="translate(127.246094 0)"/>
      </g>
     </g>
    </g>
    <g id="text_19">
     <!-- Stress [Pa] -->
     <g transform="translate(18.693125 191.967812) rotate(-90) scale(0.1 -0.1)">
      <defs>
       <path id="DejaVuSans-65" d="M 3597 1894 
L 3597 1613 
L 953 1613 
Q 991 1019 1311 708 
Q 1631 397 2203 397 
Q 2534 397 2845 478 
Q 3156 559 3463 722 
L 3463 178 
Q 3153 47 2828 -22 
Q 2503 -91 2169 -91 
Q 1331 -91 842 396 
Q 353 884 353 1716 
Q 353 2575 817 3079 
Q 1281 3584 2069 3584 
Q 2775 3584 3186 3129 
Q 3597 2675 3597 1894 
z
M 3022 2063 
Q 3016 2534 2758 2815 
Q 2500 3097 2075 3097 
Q 1594 3097 1305 2825 
Q 1016 2553 972 2059 
L 3022 2063 
z
" transform="scale(0.015625)"/>
       <path id="DejaVuSans-73" d="M 2834 3397 
L 2834 2853 
Q 2591 2978 2328 3040 
Q 2066 3103 1784 3103 
Q 1356 3103 1142 2972 
Q 928 2841 928 2578 
Q 928 2378 1081 2264 
Q 1234 2150 1697 2047 
L 1894 2003 
Q 2506 1872 2764 1633 
Q 3022 1394 3022 966 
Q 3022 478 2636 193 
Q 2250 -91 1575 -91 
Q 1294 -91 989 -36 
Q 684 19 347 128 
L 347 722 
Q 666 556 975 473 
Q 1284 391 1588 391 
Q 1994 391 2212 530 
Q 2431 669 2431 922 
Q 2431 1156 2273 1281 
Q 2116 1406 1581 1522 
L 1381 1569 
Q 847 1681 609 1914 
Q 372 2147 372 2553 
Q 372 3047 722 3315 
Q 1072 3584 1716 3584 
Q 2034 3584 2315 3537 
Q 2597 3491 2834 3397 
z
" transform="scale(0.015625)"/>
       <path id="DejaVuSans-50" d="M 1259 4147 
L 1259 2394 
L 2053 2394 
Q 2494 2394 2734 2622 
Q 2975 2850 2975 3272 
Q 2975 3691 2734 3919 
Q 2494 4147 2053 4147 
L 1259 4147 
z
M 628 4666 
L 2053 4666 
Q 2838 4666 3239 4311 
Q 3641 3956 3641 3272 
Q 3641 2581 3239 2228 
Q 2838 1875 2053 1875 
L 1259 1875 
L 1259 0 
L 628 0 
L 628 4666 
z
" transform="scale(0.015625)"/>
      </defs>
      <use xlink:href="#DejaVuSans-53"/>
      <use xlink:href="#DejaVuSans-74" transform="translate(63.476562 0)"/>
      <use xlink:href="#DejaVuSans-72" transform="translate(102.685547 0)"/>
      <use xlink:href="#DejaVuSans-65" transform="translate(141.548828 0)"/>
      <use xlink:href="#DejaVuSans-73" transform="translate(203.072266 0)"/>
      <use xlink:href="#DejaVuSans-73" transform="translate(255.171875 0)"/>
      <use xlink:href="#DejaVuSans-20" transform="translate(307.271484 0)"/>
      <use xlink:href="#DejaVuSans-5b" transform="translate(339.058594 0)"/>
      <use xlink:href="#DejaVuSans-50" transform="translate(378.072266 0)"/>
      <use xlink:href="#DejaVuSans-61" transform="translate(433.875 0)"/>
      <use xlink:href="#DejaVuSans-5d" transform="translate(495.154297 0)"/>
     </g>
    </g>
   </g>
   <g id="line2d_35">
    <path d="M 165.874916 207.118247 
L 165.87457 207.218311 
L 165.874995 206.569628 
L 166.657911 203.233677 
L 167.544721 201.1226 
L 168.494961 200.434729 
L 169.406974 202.929026 
L 170.319325 205.003884 
L 171.258739 206.651857 
L 172.189696 207.544406 
L 173.089192 209.072627 
L 173.980908 210.99198 
L 174.923028 211.419562 
L 175.830475 211.253896 
L 176.743841 204.817122 
L 177.630652 204.497385 
L 178.55349 205.742982 
L 181.34467 208.647798 
L 182.248226 207.682092 
L 183.170049 206.190788 
L 184.076142 205.873708 
L 185.924863 206.829622 
L 186.834508 207.453196 
L 187.741954 207.392089 
L 188.66716 206.683898 
L 189.572239 206.417519 
L 190.468405 206.518132 
L 191.38989 206.910592 
L 193.220005 207.335897 
L 195.009865 206.802989 
L 195.939807 206.323674 
L 196.868396 206.130373 
L 201.428123 206.124155 
L 205.977363 204.950084 
L 206.903584 204.554727 
L 207.792255 203.922156 
L 210.504276 202.573096 
L 212.344878 202.074643 
L 214.198763 200.788395 
L 215.981857 200.218647 
L 218.667492 199.677736 
L 221.358201 197.838037 
L 223.143324 197.119976 
L 225.918266 195.931201 
L 227.70914 194.462777 
L 230.436384 193.384785 
L 231.326747 192.915864 
L 233.171747 191.21515 
L 235.840605 189.586927 
L 236.770208 189.195826 
L 237.699812 188.592921 
L 238.588484 187.837652 
L 242.194927 185.859898 
L 244.016247 184.301117 
L 245.826403 182.921187 
L 246.725223 182.47786 
L 247.619307 182.254044 
L 249.467351 180.952295 
L 251.286303 179.324177 
L 252.190874 178.577051 
L 254.887672 177.051621 
L 255.818291 176.370963 
L 257.641101 174.521361 
L 258.537892 173.919348 
L 259.434344 173.472492 
L 260.325721 172.742197 
L 263.035374 170.993863 
L 263.959227 170.24697 
L 264.878006 169.696301 
L 266.71421 168.277049 
L 267.607618 167.628385 
L 268.506099 167.146744 
L 270.285134 165.78698 
L 273.980546 163.023825 
L 275.836032 161.602014 
L 276.759885 160.856594 
L 279.505407 159.318348 
L 282.186644 156.89525 
L 283.114218 155.825712 
L 284.950422 154.708475 
L 285.85956 153.743486 
L 287.682233 152.589409 
L 289.482917 151.473529 
L 290.373619 151.103185 
L 291.29375 150.493571 
L 293.137397 148.927035 
L 296.740119 146.18579 
L 304.96014 140.209033 
L 306.794991 138.223523 
L 308.610222 137.154295 
L 309.518175 136.404377 
L 310.41598 136.187668 
L 311.340172 135.541601 
L 312.251001 134.443832 
L 313.168765 133.661727 
L 314.056421 133.070262 
L 314.953888 132.331668 
L 315.854738 131.802638 
L 318.565067 129.644637 
L 320.387233 127.924845 
L 322.234262 126.902307 
L 324.026067 125.744487 
L 324.917783 125.105867 
L 327.680208 122.345233 
L 328.572262 121.810386 
L 331.284283 119.728858 
L 333.133004 118.035746 
L 334.923202 117.152969 
L 335.81458 116.725232 
L 336.736741 116.097392 
L 337.648247 115.078887 
L 340.384286 112.598396 
L 342.173807 111.60378 
L 344.00443 110.009322 
L 344.910015 108.912328 
L 345.830211 108.176507 
L 346.729031 107.692927 
L 348.535466 106.518063 
L 349.428535 105.996634 
L 351.262033 104.154143 
L 352.181827 103.702963 
L 353.994013 102.326757 
L 359.412981 97.571306 
L 360.329899 97.03452 
L 362.138702 95.373362 
L 363.931606 94.205246 
L 364.858165 93.316575 
L 367.584394 91.159815 
L 369.384339 90.25255 
L 371.207012 88.986167 
L 373.05235 87.351379 
L 374.853034 86.240191 
L 376.663867 84.688702 
L 377.562687 83.985087 
L 378.460154 82.922839 
L 379.367431 82.208055 
L 380.278767 81.876626 
L 382.984868 79.852803 
L 384.796209 77.833477 
L 387.53191 76.071958 
L 392.086753 71.932286 
L 392.985234 71.344234 
L 393.912132 70.593153 
L 396.639037 67.915352 
L 397.536166 67.318923 
L 399.36053 66.554773 
L 400.259689 65.879235 
L 404.844448 61.467215 
L 405.749019 60.936944 
L 407.572707 59.063739 
L 408.497913 58.495387 
L 411.245116 56.193825 
L 412.134464 55.56901 
L 413.063031 54.610381 
L 415.844062 52.313782 
L 416.775358 51.394398 
L 417.668427 50.85862 
L 418.561834 50.181375 
L 419.490085 49.223677 
L 421.31039 47.650781 
L 423.992304 45.152917 
L 425.81024 44.061429 
L 427.647798 42.005651 
L 428.560149 41.51098 
L 429.478251 41.297402 
L 430.397876 41.298585 
L 431.290776 41.057376 
L 431.632189 40.606177 
L 432.238182 40.08182 
L 431.979796 42.259191 
L 431.908736 45.318253 
L 431.909645 54.672418 
L 431.015117 54.974035 
L 429.192021 60.289288 
L 428.241782 59.382933 
L 427.295602 59.110643 
L 426.367352 59.219129 
L 425.4117 59.537121 
L 423.517987 59.672093 
L 422.588045 58.80444 
L 420.778227 63.55105 
L 419.842873 64.917949 
L 418.951495 66.454858 
L 417.113261 70.059179 
L 415.258789 68.978695 
L 413.456752 69.638644 
L 412.526471 69.66896 
L 411.613274 69.855906 
L 410.700923 73.766973 
L 409.798043 76.375436 
L 408.910218 77.193683 
L 407.992116 77.308606 
L 407.074013 77.175079 
L 406.167709 77.49405 
L 405.2628 78.120416 
L 404.335226 79.196314 
L 403.411542 80.706543 
L 402.52304 81.806794 
L 401.603415 82.490477 
L 397.048255 87.031244 
L 394.277711 88.544556 
L 393.352336 89.579813 
L 391.567212 92.009425 
L 390.653508 92.916245 
L 387.982757 94.786037 
L 387.060596 95.548752 
L 386.136066 96.67708 
L 383.436456 98.597818 
L 382.541357 99.554586 
L 381.616828 100.263475 
L 380.697711 101.530788 
L 379.808363 102.516253 
L 377.992794 103.590677 
L 376.16234 104.837205 
L 373.423764 107.737911 
L 372.49416 108.531029 
L 371.563542 109.550774 
L 370.675885 110.147203 
L 367.907709 112.683536 
L 366.060003 113.717669 
L 365.143761 114.501713 
L 363.319735 116.895028 
L 362.400259 117.87705 
L 360.612091 119.125827 
L 358.82257 120.090739 
L 357.933898 120.637529 
L 357.005309 121.746002 
L 355.151176 123.305713 
L 354.224617 124.327941 
L 350.652002 126.978208 
L 349.756226 127.55866 
L 342.514596 133.61811 
L 341.595141 134.10518 
L 340.680591 134.99261 
L 339.752182 135.518237 
L 337.048618 137.705865 
L 336.131869 138.324165 
L 335.230342 139.417282 
L 333.421032 140.720505 
L 332.508004 141.181361 
L 331.586857 141.946247 
L 329.773994 143.099549 
L 327.949461 145.029527 
L 326.110889 146.693167 
L 325.186697 147.019225 
L 323.364701 148.371853 
L 320.610225 151.009634 
L 319.722569 151.470645 
L 318.82544 152.087083 
L 317.037251 153.012759 
L 316.117457 153.979765 
L 314.278547 155.4364 
L 311.565173 157.630155 
L 309.770916 158.534246 
L 308.850445 159.138973 
L 307.942323 159.869269 
L 306.116098 161.676548 
L 302.508978 163.720304 
L 301.611849 164.387004 
L 300.682584 165.416056 
L 299.794589 166.191956 
L 298.907609 166.63286 
L 297.095423 168.490707 
L 294.366382 170.090458 
L 292.568742 171.17163 
L 291.640491 171.995307 
L 289.866193 173.096722 
L 288.021532 174.52086 
L 287.102753 175.484762 
L 286.175855 176.249029 
L 284.394791 177.051997 
L 283.471277 177.465655 
L 282.560448 178.237987 
L 281.646066 179.212438 
L 280.751644 179.939476 
L 278.047742 181.261314 
L 277.12964 181.884966 
L 275.317115 183.673631 
L 274.425061 184.265406 
L 271.687648 185.601055 
L 270.796608 186.241847 
L 268.946196 188.002746 
L 267.144497 189.048939 
L 264.413532 190.718008 
L 262.572592 192.466498 
L 261.646371 193.150568 
L 259.829448 194.069797 
L 254.338939 198.405731 
L 252.494616 199.247906 
L 250.669586 200.629907 
L 249.769074 200.976169 
L 248.868224 201.754706 
L 247.975832 202.324842 
L 246.139628 203.141848 
L 245.228629 203.900065 
L 243.424562 205.816547 
L 242.522359 206.381099 
L 241.602904 206.720235 
L 240.690214 206.810354 
L 239.80019 207.204548 
L 237.048928 210.059648 
L 236.151799 210.84408 
L 234.340628 211.070572 
L 233.41373 211.649938 
L 230.661961 213.982757 
L 229.769907 214.456768 
L 228.876711 214.668149 
L 227.025622 215.734817 
L 225.191109 217.01485 
L 224.275375 217.966964 
L 223.354567 218.528569 
L 222.43139 218.74963 
L 221.508214 219.125675 
L 220.582331 219.98658 
L 218.80465 221.16377 
L 217.875046 222.032585 
L 216.943751 222.688657 
L 216.049329 223.03457 
L 211.567745 226.05177 
L 209.720039 226.914653 
L 208.799231 227.694275 
L 207.01236 228.808107 
L 206.117262 229.353192 
L 205.224531 230.116062 
L 204.335183 230.350586 
L 202.503038 231.607196 
L 201.580538 232.249695 
L 200.652287 232.502072 
L 197.877346 233.885181 
L 196.966855 234.579411 
L 196.048245 235.448692 
L 193.35483 237.2379 
L 192.45195 237.879623 
L 191.554484 238.045459 
L 189.717434 239.302845 
L 188.798655 240.121557 
L 187.868714 240.445754 
L 186.94114 241.2367 
L 185.148236 242.014714 
L 184.250373 242.186274 
L 183.319416 243.066258 
L 182.394548 243.648804 
L 181.478814 244.376928 
L 180.561727 244.945512 
L 179.633814 245.274898 
L 178.743451 245.45246 
L 176.961372 246.504588 
L 176.074055 247.104352 
L 175.146142 248.013498 
L 173.360004 248.856526 
L 172.460846 249.138162 
L 171.567777 249.74095 
L 170.676737 250.196842 
L 169.786712 250.935358 
L 167.967084 252.093934 
L 167.040525 252.334803 
L 166.130203 252.938678 
L 165.219881 253.708683 
L 163.379279 254.795672 
L 162.465754 255.228509 
L 161.55983 255.411752 
L 160.634286 255.915149 
L 158.841213 257.681942 
L 157.916345 258.352207 
L 157.016172 258.747525 
L 156.110925 258.889734 
L 155.214473 259.144714 
L 152.476742 260.984762 
L 146.154895 264.12942 
L 143.478731 265.866508 
L 142.579911 265.963248 
L 141.680753 266.243663 
L 140.78633 266.674425 
L 139.855849 267.438818 
L 138.933349 267.945394 
L 138.017108 268.800404 
L 137.089872 269.233571 
L 136.194435 269.481934 
L 135.294262 269.50193 
L 134.40559 270.050737 
L 131.642827 272.225646 
L 130.746713 272.542271 
L 128.949411 272.842642 
L 128.031647 273.17507 
L 127.127922 273.866896 
L 126.22166 274.879971 
L 125.295101 275.47671 
L 124.389853 275.768021 
L 122.551281 275.822284 
L 121.66261 276.169016 
L 120.753808 276.705646 
L 119.848899 277.641628 
L 118.921663 278.217271 
L 118.016104 278.410926 
L 115.295964 279.347489 
L 114.368051 279.955474 
L 112.519331 280.727293 
L 109.832004 281.608174 
L 108.906122 282.380041 
L 107.984637 282.945794 
L 106.159257 283.67068 
L 104.343012 283.836671 
L 103.455694 284.254946 
L 102.564654 284.54777 
L 101.636403 284.984738 
L 100.717963 285.690369 
L 99.79208 286.0084 
L 98.901041 286.166988 
L 98.004927 286.507705 
L 97.103063 286.662513 
L 95.312949 287.331236 
L 94.383684 287.765256 
L 93.459831 288.010265 
L 92.533948 288.458013 
L 91.641894 288.478692 
L 90.745442 288.794396 
L 89.84696 288.813611 
L 88.946787 289.084437 
L 88.045938 289.147405 
L 86.222926 289.639653 
L 85.303133 290.13572 
L 84.386384 290.356181 
L 83.474202 290.766468 
L 80.7111 290.993319 
L 78.911599 289.880774 
L 78.00466 289.311743 
L 77.194048 289.059405 
L 77.002357 216.034419 
L 77.002357 216.034419 
" clip-path="url(#pd59abace03)" style="fill: none; stroke: #ff0000; stroke-width: 2; stroke-linecap: square"/>
   </g>
   <g id="line2d_36">
    <path d="M 165.874916 207.118247 
L 165.87457 207.218311 
L 165.874995 206.569628 
L 166.657911 203.233677 
L 167.544721 201.1226 
L 168.494961 200.434729 
L 169.406974 202.929026 
L 170.319325 210.792614 
L 171.258739 210.869901 
L 172.189696 210.331642 
L 173.980908 211.704358 
L 175.830475 211.253896 
L 176.743841 204.817122 
L 177.630652 204.497385 
L 178.55349 205.742982 
L 181.34467 208.647798 
L 182.248226 207.682092 
L 183.170049 206.190788 
L 184.076142 205.873708 
L 185.924863 206.829622 
L 186.834508 207.453196 
L 187.741954 207.392089 
L 188.66716 206.683898 
L 189.572239 206.417519 
L 190.468405 206.518132 
L 191.38989 206.910592 
L 193.220005 207.335897 
L 195.009865 206.802989 
L 195.939807 206.323674 
L 196.868396 206.130373 
L 201.428123 206.124155 
L 205.977363 204.950084 
L 206.903584 204.554727 
L 207.792255 203.922156 
L 210.504276 202.573096 
L 212.344878 202.074643 
L 214.198763 200.788395 
L 215.981857 200.218647 
L 218.667492 199.677736 
L 221.358201 197.838037 
L 223.143324 197.119976 
L 225.918266 195.931201 
L 227.70914 194.462777 
L 230.436384 193.384785 
L 231.326747 192.915864 
L 233.171747 191.21515 
L 235.840605 189.586927 
L 236.770208 189.195826 
L 237.699812 188.592921 
L 238.588484 187.837652 
L 242.194927 185.859898 
L 244.016247 184.301117 
L 245.826403 182.921187 
L 246.725223 182.47786 
L 247.619307 182.254044 
L 249.467351 180.952295 
L 251.286303 179.324177 
L 252.190874 178.577051 
L 254.887672 177.051621 
L 255.818291 176.370963 
L 257.641101 174.521361 
L 258.537892 173.919348 
L 259.434344 173.472492 
L 260.325721 172.742197 
L 263.035374 170.993863 
L 263.959227 170.24697 
L 264.878006 169.696301 
L 266.71421 168.277049 
L 267.607618 167.628385 
L 268.506099 167.146744 
L 270.285134 165.78698 
L 273.980546 163.023825 
L 275.836032 161.602014 
L 276.759885 160.856594 
L 279.505407 159.318348 
L 282.186644 156.89525 
L 283.114218 155.825712 
L 284.950422 154.708475 
L 285.85956 153.743486 
L 287.682233 152.589409 
L 289.482917 151.473529 
L 290.373619 151.103185 
L 291.29375 150.493571 
L 293.137397 148.927035 
L 296.740119 146.18579 
L 304.96014 140.209033 
L 306.794991 138.223523 
L 308.610222 137.154295 
L 309.518175 136.404377 
L 310.41598 136.187668 
L 311.340172 135.541601 
L 312.251001 134.443832 
L 313.168765 133.661727 
L 314.056421 133.070262 
L 314.953888 132.331668 
L 315.854738 131.802638 
L 318.565067 129.644637 
L 320.387233 127.924845 
L 322.234262 126.902307 
L 324.026067 125.744487 
L 324.917783 125.105867 
L 327.680208 122.345233 
L 328.572262 121.810386 
L 331.284283 119.728858 
L 333.133004 118.035746 
L 334.923202 117.152969 
L 335.81458 116.725232 
L 336.736741 116.097392 
L 337.648247 115.078887 
L 340.384286 112.598396 
L 342.173807 111.60378 
L 344.00443 110.009322 
L 344.910015 108.912328 
L 345.830211 108.176507 
L 346.729031 107.692927 
L 348.535466 106.518063 
L 349.428535 105.996634 
L 351.262033 104.154143 
L 352.181827 103.702963 
L 353.994013 102.326757 
L 359.412981 97.571306 
L 360.329899 97.03452 
L 362.138702 95.373362 
L 363.931606 94.205246 
L 364.858165 93.316575 
L 367.584394 91.159815 
L 369.384339 90.25255 
L 371.207012 88.986167 
L 373.05235 87.351379 
L 374.853034 86.240191 
L 376.663867 84.688702 
L 377.562687 83.985087 
L 378.460154 82.922839 
L 379.367431 82.208055 
L 380.278767 81.876626 
L 382.984868 79.852803 
L 384.796209 77.833477 
L 387.53191 76.071958 
L 392.086753 71.932286 
L 392.985234 71.344234 
L 393.912132 70.593153 
L 396.639037 67.915352 
L 397.536166 67.318923 
L 399.36053 66.554773 
L 400.259689 65.879235 
L 404.844448 61.467215 
L 405.749019 60.936944 
L 407.572707 59.063739 
L 408.497913 58.495387 
L 411.245116 56.193825 
L 412.134464 55.56901 
L 413.063031 54.610381 
L 415.844062 52.313782 
L 416.775358 51.394398 
L 417.668427 50.85862 
L 418.561834 50.181375 
L 419.490085 49.223677 
L 421.31039 47.650781 
L 423.992304 45.152917 
L 425.81024 44.061429 
L 427.647798 42.005651 
L 428.560149 41.51098 
L 429.478251 41.297402 
L 430.397876 41.298585 
L 431.290776 41.057376 
L 431.632189 40.606177 
L 432.238182 40.08182 
L 432.163844 40.52761 
L 432.08477 40.211207 
L 432.0239 40.435246 
L 431.979796 39.46 
L 431.909645 54.672418 
L 431.015117 54.974035 
L 429.192021 60.289288 
L 428.241782 59.382933 
L 427.295602 59.110643 
L 426.367352 59.219129 
L 425.4117 59.537121 
L 423.517987 59.672093 
L 422.588045 58.80444 
L 420.778227 63.55105 
L 419.842873 64.917949 
L 418.951495 66.454858 
L 417.113261 70.059179 
L 415.258789 68.978695 
L 413.456752 69.638644 
L 412.526471 69.66896 
L 411.613274 69.855906 
L 410.700923 73.766973 
L 409.798043 76.375436 
L 408.910218 77.193683 
L 407.992116 77.308606 
L 407.074013 77.175079 
L 406.167709 77.49405 
L 405.2628 78.120416 
L 404.335226 79.196314 
L 403.411542 80.706543 
L 402.52304 81.806794 
L 401.603415 82.490477 
L 397.048255 87.031244 
L 394.277711 88.544556 
L 393.352336 89.579813 
L 391.567212 92.009425 
L 390.653508 92.916245 
L 387.982757 94.786037 
L 387.060596 95.548752 
L 386.136066 96.67708 
L 383.436456 98.597818 
L 382.541357 99.554586 
L 381.616828 100.263475 
L 380.697711 101.530788 
L 379.808363 102.516253 
L 377.992794 103.590677 
L 376.16234 104.837205 
L 373.423764 107.737911 
L 372.49416 108.531029 
L 371.563542 109.550774 
L 370.675885 110.147203 
L 367.907709 112.683536 
L 366.060003 113.717669 
L 365.143761 114.501713 
L 363.319735 116.895028 
L 362.400259 117.87705 
L 360.612091 119.125827 
L 358.82257 120.090739 
L 357.933898 120.637529 
L 357.005309 121.746002 
L 355.151176 123.305713 
L 354.224617 124.327941 
L 350.652002 126.978208 
L 349.756226 127.55866 
L 342.514596 133.61811 
L 341.595141 134.10518 
L 340.680591 134.99261 
L 339.752182 135.518237 
L 337.048618 137.705865 
L 336.131869 138.324165 
L 335.230342 139.417282 
L 333.421032 140.720505 
L 332.508004 141.181361 
L 331.586857 141.946247 
L 329.773994 143.099549 
L 327.949461 145.029527 
L 326.110889 146.693167 
L 325.186697 147.019225 
L 323.364701 148.371853 
L 320.610225 151.009634 
L 319.722569 151.470645 
L 318.82544 152.087083 
L 317.037251 153.012759 
L 316.117457 153.979765 
L 314.278547 155.4364 
L 311.565173 157.630155 
L 309.770916 158.534246 
L 308.850445 159.138973 
L 307.942323 159.869269 
L 306.116098 161.676548 
L 302.508978 163.720304 
L 301.611849 164.387004 
L 300.682584 165.416056 
L 299.794589 166.191956 
L 298.907609 166.63286 
L 297.095423 168.490707 
L 294.366382 170.090458 
L 292.568742 171.17163 
L 291.640491 171.995307 
L 289.866193 173.096722 
L 288.021532 174.52086 
L 287.102753 175.484762 
L 286.175855 176.249029 
L 284.394791 177.051997 
L 283.471277 177.465655 
L 282.560448 178.237987 
L 281.646066 179.212438 
L 280.751644 179.939476 
L 278.047742 181.261314 
L 277.12964 181.884966 
L 275.317115 183.673631 
L 274.425061 184.265406 
L 271.687648 185.601055 
L 270.796608 186.241847 
L 268.946196 188.002746 
L 267.144497 189.048939 
L 264.413532 190.718008 
L 262.572592 192.466498 
L 261.646371 193.150568 
L 259.829448 194.069797 
L 254.338939 198.405731 
L 252.494616 199.247906 
L 250.669586 200.629907 
L 249.769074 200.976169 
L 248.868224 201.754706 
L 247.975832 202.324842 
L 246.139628 203.141848 
L 245.228629 203.900065 
L 243.424562 205.816547 
L 242.522359 206.381099 
L 241.602904 206.720235 
L 240.690214 206.810354 
L 239.80019 207.204548 
L 237.048928 210.059648 
L 236.151799 210.84408 
L 234.340628 211.070572 
L 233.41373 211.649938 
L 230.661961 213.982757 
L 229.769907 214.456768 
L 228.876711 214.668149 
L 227.025622 215.734817 
L 225.191109 217.01485 
L 224.275375 217.966964 
L 223.354567 218.528569 
L 222.43139 218.74963 
L 221.508214 219.125675 
L 220.582331 219.98658 
L 218.80465 221.16377 
L 217.875046 222.032585 
L 216.943751 222.688657 
L 216.049329 223.03457 
L 211.567745 226.05177 
L 209.720039 226.914653 
L 208.799231 227.694275 
L 207.01236 228.808107 
L 206.117262 229.353192 
L 205.224531 230.116062 
L 204.335183 230.350586 
L 202.503038 231.607196 
L 201.580538 232.249695 
L 200.652287 232.502072 
L 197.877346 233.885181 
L 196.966855 234.579411 
L 196.048245 235.448692 
L 193.35483 237.2379 
L 192.45195 237.879623 
L 191.554484 238.045459 
L 189.717434 239.302845 
L 188.798655 240.121557 
L 187.868714 240.445754 
L 186.94114 241.2367 
L 185.148236 242.014714 
L 184.250373 242.186274 
L 183.319416 243.066258 
L 182.394548 243.648804 
L 181.478814 244.376928 
L 180.561727 244.945512 
L 179.633814 245.274898 
L 178.743451 245.45246 
L 176.961372 246.504588 
L 176.074055 247.104352 
L 175.146142 248.013498 
L 173.360004 248.856526 
L 172.460846 249.138162 
L 171.567777 249.74095 
L 170.676737 250.196842 
L 169.786712 250.935358 
L 167.967084 252.093934 
L 167.040525 252.334803 
L 166.130203 252.938678 
L 165.219881 253.708683 
L 163.379279 254.795672 
L 162.465754 255.228509 
L 161.55983 255.411752 
L 160.634286 255.915149 
L 158.841213 257.681942 
L 157.916345 258.352207 
L 157.016172 258.747525 
L 156.110925 258.889734 
L 155.214473 259.144714 
L 152.476742 260.984762 
L 146.154895 264.12942 
L 143.478731 265.866508 
L 142.579911 265.963248 
L 141.680753 266.243663 
L 140.78633 266.674425 
L 139.855849 267.438818 
L 138.933349 267.945394 
L 138.017108 268.800404 
L 137.089872 269.233571 
L 136.194435 269.481934 
L 135.294262 269.50193 
L 134.40559 270.050737 
L 131.642827 272.225646 
L 130.746713 272.542271 
L 128.949411 272.842642 
L 128.031647 273.17507 
L 127.127922 273.866896 
L 126.22166 274.879971 
L 125.295101 275.47671 
L 124.389853 275.768021 
L 122.551281 275.822284 
L 121.66261 276.169016 
L 120.753808 276.705646 
L 119.848899 277.641628 
L 118.921663 278.217271 
L 118.016104 278.410926 
L 115.295964 279.347489 
L 114.368051 279.955474 
L 112.519331 280.727293 
L 109.832004 281.608174 
L 108.906122 282.380041 
L 107.984637 282.945794 
L 106.159257 283.67068 
L 104.343012 283.836671 
L 103.455694 284.254946 
L 102.564654 284.54777 
L 101.636403 284.984738 
L 100.717963 285.690369 
L 99.79208 286.0084 
L 98.901041 286.166988 
L 98.004927 286.507705 
L 97.103063 286.662513 
L 95.312949 287.331236 
L 94.383684 287.765256 
L 93.459831 288.010265 
L 92.533948 288.458013 
L 91.641894 288.478692 
L 90.745442 288.794396 
L 89.84696 288.813611 
L 88.946787 289.084437 
L 88.045938 289.147405 
L 86.222926 289.639653 
L 85.303133 290.13572 
L 84.386384 290.356181 
L 83.474202 290.766468 
L 80.7111 290.993319 
L 78.911599 289.880774 
L 78.00466 289.311743 
L 77.194048 289.059405 
L 77.002357 216.034419 
L 77.002357 216.034419 
" clip-path="url(#pd59abace03)" style="fill: none; stroke: #000000; stroke-width: 2; stroke-linecap: square"/>
   </g>
   <g id="patch_3">
    <path d="M 59.24 303.64 
L 59.24 26.88 
" style="fill: none; stroke: #000000; stroke-width: 0.8; stroke-linejoin: miter; stroke-linecap: square"/>
   </g>
   <g id="patch_4">
    <path d="M 450 303.64 
L 450 26.88 
" style="fill: none; stroke: #000000; stroke-width: 0.8; stroke-linejoin: miter; stroke-linecap: square"/>
   </g>
   <g id="patch_5">
    <path d="M 59.24 303.64 
L 450 303.64 
" style="fill: none; stroke: #000000; stroke-width: 0.8; stroke-linejoin: miter; stroke-linecap: square"/>
   </g>
   <g id="patch_6">
    <path d="M 59.24 26.88 
L 450 26.88 
" style="fill: none; stroke: #000000; stroke-width: 0.8; stroke-linejoin: miter; stroke-linecap: square"/>
   </g>
   <g id="text_20">
    <!-- 2025-06-16 Trial 6 - Stress vs Strain -->
    <g transform="translate(147.183438 20.88) scale(0.12 -0.12)">
     <defs>
      <path id="DejaVuSans-54" d="M -19 4666 
L 3928 4666 
L 3928 4134 
L 2272 4134 
L 2272 0 
L 1638 0 
L 1638 4134 
L -19 4134 
L -19 4666 
z
" transform="scale(0.015625)"/>
      <path id="DejaVuSans-6c" d="M 603 4863 
L 1178 4863 
L 1178 0 
L 603 0 
L 603 4863 
z
" transform="scale(0.015625)"/>
      <path id="DejaVuSans-76" d="M 191 3500 
L 800 3500 
L 1894 563 
L 2988 3500 
L 3597 3500 
L 2284 0 
L 1503 0 
L 191 3500 
z
" transform="scale(0.015625)"/>
     </defs>
     <use xlink:href="#DejaVuSans-32"/>
     <use xlink:href="#DejaVuSans-30" transform="translate(63.623047 0)"/>
     <use xlink:href="#DejaVuSans-32" transform="translate(127.246094 0)"/>
     <use xlink:href="#DejaVuSans-35" transform="translate(190.869141 0)"/>
     <use xlink:href="#DejaVuSans-2d" transform="translate(254.492188 0)"/>
     <use xlink:href="#DejaVuSans-30" transform="translate(290.576172 0)"/>
     <use xlink:href="#DejaVuSans-36" transform="translate(354.199219 0)"/>
     <use xlink:href="#DejaVuSans-2d" transform="translate(417.822266 0)"/>
     <use xlink:href="#DejaVuSans-31" transform="translate(453.90625 0)"/>
     <use xlink:href="#DejaVuSans-36" transform="translate(517.529297 0)"/>
     <use xlink:href="#DejaVuSans-20" transform="translate(581.152344 0)"/>
     <use xlink:href="#DejaVuSans-54" transform="translate(612.939453 0)"/>
     <use xlink:href="#DejaVuSans-72" transform="translate(659.273438 0)"/>
     <use xlink:href="#DejaVuSans-69" transform="translate(700.386719 0)"/>
     <use xlink:href="#DejaVuSans-61" transform="translate(728.169922 0)"/>
     <use xlink:href="#DejaVuSans-6c" transform="translate(789.449219 0)"/>
     <use xlink:href="#DejaVuSans-20" transform="translate(817.232422 0)"/>
     <use xlink:href="#DejaVuSans-36" transform="translate(849.019531 0)"/>
     <use xlink:href="#DejaVuSans-20" transform="translate(912.642578 0)"/>
     <use xlink:href="#DejaVuSans-2d" transform="translate(944.429688 0)"/>
     <use xlink:href="#DejaVuSans-20" transform="translate(980.513672 0)"/>
     <use xlink:href="#DejaVuSans-53" transform="translate(1012.300781 0)"/>
     <use xlink:href="#DejaVuSans-74" transform="translate(1075.777344 0)"/>
     <use xlink:href="#DejaVuSans-72" transform="translate(1114.986328 0)"/>
     <use xlink:href="#DejaVuSans-65" transform="translate(1153.849609 0)"/>
     <use xlink:href="#DejaVuSans-73" transform="translate(1215.373047 0)"/>
     <use xlink:href="#DejaVuSans-73" transform="translate(1267.472656 0)"/>
     <use xlink:href="#DejaVuSans-20" transform="translate(1319.572266 0)"/>
     <use xlink:href="#DejaVuSans-76" transform="translate(1351.359375 0)"/>
     <use xlink:href="#DejaVuSans-73" transform="translate(1410.539062 0)"/>
     <use xlink:href="#DejaVuSans-20" transform="translate(1462.638672 0)"/>
     <use xlink:href="#DejaVuSans-53" transform="translate(1494.425781 0)"/>
     <use xlink:href="#DejaVuSans-74" transform="translate(1557.902344 0)"/>
     <use xlink:href="#DejaVuSans-72" transform="translate(1597.111328 0)"/>
     <use xlink:href="#DejaVuSans-61" transform="translate(1638.224609 0)"/>
     <use xlink:href="#DejaVuSans-69" transform="translate(1699.503906 0)"/>
     <use xlink:href="#DejaVuSans-6e" transform="translate(1727.287109 0)"/>
    </g>
   </g>
   <g id="legend_1">
    <g id="patch_7">
     <path d="M 66.24 64.23625 
L 172.224375 64.23625 
Q 174.224375 64.23625 174.224375 62.23625 
L 174.224375 33.88 
Q 174.224375 31.88 172.224375 31.88 
L 66.24 31.88 
Q 64.24 31.88 64.24 33.88 
L 64.24 62.23625 
Q 64.24 64.23625 66.24 64.23625 
z
" style="fill: #ffffff; opacity: 0.8; stroke: #cccccc; stroke-linejoin: miter"/>
    </g>
    <g id="line2d_37">
     <path d="M 68.24 39.978437 
L 78.24 39.978437 
L 88.24 39.978437 
" style="fill: none; stroke: #ff0000; stroke-width: 2; stroke-linecap: square"/>
    </g>
    <g id="text_21">
     <!-- Raw Force -->
     <g transform="translate(96.24 43.478437) scale(0.1 -0.1)">
      <defs>
       <path id="DejaVuSans-52" d="M 2841 2188 
Q 3044 2119 3236 1894 
Q 3428 1669 3622 1275 
L 4263 0 
L 3584 0 
L 2988 1197 
Q 2756 1666 2539 1819 
Q 2322 1972 1947 1972 
L 1259 1972 
L 1259 0 
L 628 0 
L 628 4666 
L 2053 4666 
Q 2853 4666 3247 4331 
Q 3641 3997 3641 3322 
Q 3641 2881 3436 2590 
Q 3231 2300 2841 2188 
z
M 1259 4147 
L 1259 2491 
L 2053 2491 
Q 2509 2491 2742 2702 
Q 2975 2913 2975 3322 
Q 2975 3731 2742 3939 
Q 2509 4147 2053 4147 
L 1259 4147 
z
" transform="scale(0.015625)"/>
       <path id="DejaVuSans-77" d="M 269 3500 
L 844 3500 
L 1563 769 
L 2278 3500 
L 2956 3500 
L 3675 769 
L 4391 3500 
L 4966 3500 
L 4050 0 
L 3372 0 
L 2619 2869 
L 1863 0 
L 1184 0 
L 269 3500 
z
" transform="scale(0.015625)"/>
       <path id="DejaVuSans-46" d="M 628 4666 
L 3309 4666 
L 3309 4134 
L 1259 4134 
L 1259 2759 
L 3109 2759 
L 3109 2228 
L 1259 2228 
L 1259 0 
L 628 0 
L 628 4666 
z
" transform="scale(0.015625)"/>
       <path id="DejaVuSans-6f" d="M 1959 3097 
Q 1497 3097 1228 2736 
Q 959 2375 959 1747 
Q 959 1119 1226 758 
Q 1494 397 1959 397 
Q 2419 397 2687 759 
Q 2956 1122 2956 1747 
Q 2956 2369 2687 2733 
Q 2419 3097 1959 3097 
z
M 1959 3584 
Q 2709 3584 3137 3096 
Q 3566 2609 3566 1747 
Q 3566 888 3137 398 
Q 2709 -91 1959 -91 
Q 1206 -91 779 398 
Q 353 888 353 1747 
Q 353 2609 779 3096 
Q 1206 3584 1959 3584 
z
" transform="scale(0.015625)"/>
       <path id="DejaVuSans-63" d="M 3122 3366 
L 3122 2828 
Q 2878 2963 2633 3030 
Q 2388 3097 2138 3097 
Q 1578 3097 1268 2742 
Q 959 2388 959 1747 
Q 959 1106 1268 751 
Q 1578 397 2138 397 
Q 2388 397 2633 464 
Q 2878 531 3122 666 
L 3122 134 
Q 2881 22 2623 -34 
Q 2366 -91 2075 -91 
Q 1284 -91 818 406 
Q 353 903 353 1747 
Q 353 2603 823 3093 
Q 1294 3584 2113 3584 
Q 2378 3584 2631 3529 
Q 2884 3475 3122 3366 
z
" transform="scale(0.015625)"/>
      </defs>
      <use xlink:href="#DejaVuSans-52"/>
      <use xlink:href="#DejaVuSans-61" transform="translate(67.232422 0)"/>
      <use xlink:href="#DejaVuSans-77" transform="translate(128.511719 0)"/>
      <use xlink:href="#DejaVuSans-20" transform="translate(210.298828 0)"/>
      <use xlink:href="#DejaVuSans-46" transform="translate(242.085938 0)"/>
      <use xlink:href="#DejaVuSans-6f" transform="translate(295.980469 0)"/>
      <use xlink:href="#DejaVuSans-72" transform="translate(357.162109 0)"/>
      <use xlink:href="#DejaVuSans-63" transform="translate(396.025391 0)"/>
      <use xlink:href="#DejaVuSans-65" transform="translate(451.005859 0)"/>
     </g>
    </g>
    <g id="line2d_38">
     <path d="M 68.24 54.656563 
L 78.24 54.656563 
L 88.24 54.656563 
" style="fill: none; stroke: #000000; stroke-width: 2; stroke-linecap: square"/>
    </g>
    <g id="text_22">
     <!-- Adjusted Force -->
     <g transform="translate(96.24 58.156563) scale(0.1 -0.1)">
      <defs>
       <path id="DejaVuSans-41" d="M 2188 4044 
L 1331 1722 
L 3047 1722 
L 2188 4044 
z
M 1831 4666 
L 2547 4666 
L 4325 0 
L 3669 0 
L 3244 1197 
L 1141 1197 
L 716 0 
L 50 0 
L 1831 4666 
z
" transform="scale(0.015625)"/>
       <path id="DejaVuSans-64" d="M 2906 2969 
L 2906 4863 
L 3481 4863 
L 3481 0 
L 2906 0 
L 2906 525 
Q 2725 213 2448 61 
Q 2172 -91 1784 -91 
Q 1150 -91 751 415 
Q 353 922 353 1747 
Q 353 2572 751 3078 
Q 1150 3584 1784 3584 
Q 2172 3584 2448 3432 
Q 2725 3281 2906 2969 
z
M 947 1747 
Q 947 1113 1208 752 
Q 1469 391 1925 391 
Q 2381 391 2643 752 
Q 2906 1113 2906 1747 
Q 2906 2381 2643 2742 
Q 2381 3103 1925 3103 
Q 1469 3103 1208 2742 
Q 947 2381 947 1747 
z
" transform="scale(0.015625)"/>
       <path id="DejaVuSans-6a" d="M 603 3500 
L 1178 3500 
L 1178 -63 
Q 1178 -731 923 -1031 
Q 669 -1331 103 -1331 
L -116 -1331 
L -116 -844 
L 38 -844 
Q 366 -844 484 -692 
Q 603 -541 603 -63 
L 603 3500 
z
M 603 4863 
L 1178 4863 
L 1178 4134 
L 603 4134 
L 603 4863 
z
" transform="scale(0.015625)"/>
       <path id="DejaVuSans-75" d="M 544 1381 
L 544 3500 
L 1119 3500 
L 1119 1403 
Q 1119 906 1312 657 
Q 1506 409 1894 409 
Q 2359 409 2629 706 
Q 2900 1003 2900 1516 
L 2900 3500 
L 3475 3500 
L 3475 0 
L 2900 0 
L 2900 538 
Q 2691 219 2414 64 
Q 2138 -91 1772 -91 
Q 1169 -91 856 284 
Q 544 659 544 1381 
z
M 1991 3584 
L 1991 3584 
z
" transform="scale(0.015625)"/>
      </defs>
      <use xlink:href="#DejaVuSans-41"/>
      <use xlink:href="#DejaVuSans-64" transform="translate(66.658203 0)"/>
      <use xlink:href="#DejaVuSans-6a" transform="translate(130.134766 0)"/>
      <use xlink:href="#DejaVuSans-75" transform="translate(157.917969 0)"/>
      <use xlink:href="#DejaVuSans-73" transform="translate(221.296875 0)"/>
      <use xlink:href="#DejaVuSans-74" transform="translate(273.396484 0)"/>
      <use xlink:href="#DejaVuSans-65" transform="translate(312.605469 0)"/>
      <use xlink:href="#DejaVuSans-64" transform="translate(374.128906 0)"/>
      <use xlink:href="#DejaVuSans-20" transform="translate(437.605469 0)"/>
      <use xlink:href="#DejaVuSans-46" transform="translate(469.392578 0)"/>
      <use xlink:href="#DejaVuSans-6f" transform="translate(523.287109 0)"/>
      <use xlink:href="#DejaVuSans-72" transform="translate(584.46875 0)"/>
      <use xlink:href="#DejaVuSans-63" transform="translate(623.332031 0)"/>
      <use xlink:href="#DejaVuSans-65" transform="translate(678.3125 0)"/>
     </g>
    </g>
   </g>
  </g>
 </g>
 <defs>
  <clipPath id="pd59abace03">
   <rect x="59.24" y="26.88" width="390.76" height="276.76"/>
  </clipPath>
 </defs>
</svg>
