<?xml version="1.0" encoding="utf-8" standalone="no"?>
<!DOCTYPE svg PUBLIC "-//W3C//DTD SVG 1.1//EN"
  "http://www.w3.org/Graphics/SVG/1.1/DTD/svg11.dtd">
<svg xmlns:xlink="http://www.w3.org/1999/xlink" width="460.8pt" height="345.6pt" viewBox="0 0 460.8 345.6" xmlns="http://www.w3.org/2000/svg" version="1.1">
 <metadata>
  <rdf:RDF xmlns:dc="http://purl.org/dc/elements/1.1/" xmlns:cc="http://creativecommons.org/ns#" xmlns:rdf="http://www.w3.org/1999/02/22-rdf-syntax-ns#">
   <cc:Work>
    <dc:type rdf:resource="http://purl.org/dc/dcmitype/StillImage"/>
    <dc:date>2025-07-28T21:16:39.849345</dc:date>
    <dc:format>image/svg+xml</dc:format>
    <dc:creator>
     <cc:Agent>
      <dc:title>Matplotlib v3.10.3, https://matplotlib.org/</dc:title>
     </cc:Agent>
    </dc:creator>
   </cc:Work>
  </rdf:RDF>
 </metadata>
 <defs>
  <style type="text/css">*{stroke-linejoin: round; stroke-linecap: butt}</style>
 </defs>
 <g id="figure_1">
  <g id="patch_1">
   <path d="M 0 345.6 
L 460.8 345.6 
L 460.8 0 
L 0 0 
z
" style="fill: #ffffff"/>
  </g>
  <g id="axes_1">
   <g id="patch_2">
    <path d="M 59.33 303.64 
L 450 303.64 
L 450 26.88 
L 59.33 26.88 
z
" style="fill: #ffffff"/>
   </g>
   <g id="FillBetweenPolyCollection_1">
    <defs>
     <path id="m3f9908768b" d="M 77.087727 -306.14 
L 77.087727 -54.54 
L 80.675147 -79.971832 
L 84.262567 -79.971832 
L 87.849986 -79.971832 
L 91.437406 -79.971832 
L 95.024826 -79.971832 
L 98.612245 -79.971832 
L 102.199665 -79.971832 
L 105.787084 -79.971832 
L 109.374504 -79.971832 
L 112.961924 -79.971832 
L 116.549343 -79.971832 
L 120.136763 -79.971832 
L 123.724183 -79.971832 
L 127.311602 -79.971832 
L 130.899022 -79.971832 
L 134.486442 -79.971832 
L 138.073861 -79.971832 
L 141.661281 -79.971832 
L 145.248701 -79.971832 
L 148.83612 -79.971832 
L 152.42354 -79.971832 
L 156.01096 -79.971832 
L 159.598379 -79.971832 
L 163.185799 -79.971832 
L 166.773219 -79.971832 
L 170.360638 -79.971832 
L 173.948058 -79.971832 
L 177.535478 -79.971832 
L 181.122897 -79.971832 
L 184.710317 -79.971832 
L 188.297736 -79.971832 
L 191.885156 -79.971832 
L 195.472576 -79.971832 
L 199.059995 -79.971832 
L 202.647415 -79.971832 
L 206.234835 -79.971832 
L 209.822254 -79.971832 
L 213.409674 -79.971832 
L 216.997094 -79.971832 
L 220.584513 -79.971832 
L 224.171933 -79.971832 
L 227.759353 -79.971832 
L 231.346772 -79.971832 
L 234.934192 -79.971832 
L 238.521612 -79.971832 
L 242.109031 -79.971832 
L 245.696451 -79.971832 
L 249.283871 -79.971832 
L 252.87129 -79.971832 
L 256.45871 -79.971832 
L 260.046129 -79.971832 
L 263.633549 -79.971832 
L 267.220969 -79.971832 
L 270.808388 -79.971832 
L 274.395808 -79.971832 
L 277.983228 -79.971832 
L 281.570647 -79.971832 
L 285.158067 -79.971832 
L 288.745487 -79.971832 
L 292.332906 -79.971832 
L 295.920326 -79.971832 
L 299.507746 -79.971832 
L 303.095165 -79.971832 
L 306.682585 -79.971832 
L 310.270005 -79.971832 
L 313.857424 -79.971832 
L 317.444844 -79.971832 
L 321.032264 -79.971832 
L 324.619683 -79.971832 
L 328.207103 -79.971832 
L 331.794522 -79.971832 
L 335.381942 -79.971832 
L 338.969362 -79.971832 
L 342.556781 -79.971832 
L 346.144201 -79.971832 
L 349.731621 -79.971832 
L 353.31904 -79.971832 
L 356.90646 -79.971832 
L 360.49388 -79.971832 
L 364.081299 -79.971832 
L 367.668719 -79.971832 
L 371.256139 -79.971832 
L 374.843558 -79.971832 
L 378.430978 -79.971832 
L 382.018398 -79.971832 
L 385.605817 -79.971832 
L 389.193237 -79.971832 
L 392.780657 -79.971832 
L 396.368076 -79.971832 
L 399.955496 -79.971832 
L 403.542916 -79.971832 
L 407.130335 -79.971832 
L 410.717755 -79.971832 
L 414.305174 -79.971832 
L 417.892594 -79.971832 
L 421.480014 -79.971832 
L 425.067433 -79.971832 
L 428.654853 -79.971832 
L 432.242273 -79.971832 
L 432.242273 -148.0651 
L 432.242273 -148.0651 
L 428.654853 -148.0651 
L 425.067433 -148.0651 
L 421.480014 -148.0651 
L 417.892594 -148.0651 
L 414.305174 -148.0651 
L 410.717755 -148.0651 
L 407.130335 -148.0651 
L 403.542916 -148.0651 
L 399.955496 -148.0651 
L 396.368076 -148.0651 
L 392.780657 -148.0651 
L 389.193237 -148.0651 
L 385.605817 -148.0651 
L 382.018398 -148.0651 
L 378.430978 -148.0651 
L 374.843558 -148.0651 
L 371.256139 -148.0651 
L 367.668719 -148.0651 
L 364.081299 -148.0651 
L 360.49388 -148.0651 
L 356.90646 -148.0651 
L 353.31904 -148.0651 
L 349.731621 -148.0651 
L 346.144201 -148.0651 
L 342.556781 -148.0651 
L 338.969362 -148.0651 
L 335.381942 -148.0651 
L 331.794522 -148.0651 
L 328.207103 -148.0651 
L 324.619683 -148.0651 
L 321.032264 -148.0651 
L 317.444844 -148.0651 
L 313.857424 -148.0651 
L 310.270005 -148.0651 
L 306.682585 -148.0651 
L 303.095165 -148.0651 
L 299.507746 -148.0651 
L 295.920326 -148.0651 
L 292.332906 -148.0651 
L 288.745487 -148.0651 
L 285.158067 -148.0651 
L 281.570647 -148.0651 
L 277.983228 -148.0651 
L 274.395808 -148.0651 
L 270.808388 -148.0651 
L 267.220969 -148.0651 
L 263.633549 -148.0651 
L 260.046129 -148.0651 
L 256.45871 -148.0651 
L 252.87129 -148.0651 
L 249.283871 -148.0651 
L 245.696451 -148.0651 
L 242.109031 -148.0651 
L 238.521612 -148.0651 
L 234.934192 -148.0651 
L 231.346772 -148.0651 
L 227.759353 -148.0651 
L 224.171933 -148.0651 
L 220.584513 -148.0651 
L 216.997094 -148.0651 
L 213.409674 -148.0651 
L 209.822254 -148.0651 
L 206.234835 -148.0651 
L 202.647415 -148.0651 
L 199.059995 -148.0651 
L 195.472576 -148.0651 
L 191.885156 -148.0651 
L 188.297736 -148.0651 
L 184.710317 -148.0651 
L 181.122897 -148.0651 
L 177.535478 -148.0651 
L 173.948058 -148.0651 
L 170.360638 -148.0651 
L 166.773219 -148.0651 
L 163.185799 -148.0651 
L 159.598379 -148.0651 
L 156.01096 -148.0651 
L 152.42354 -148.0651 
L 148.83612 -148.0651 
L 145.248701 -148.0651 
L 141.661281 -148.0651 
L 138.073861 -148.0651 
L 134.486442 -148.0651 
L 130.899022 -148.0651 
L 127.311602 -148.0651 
L 123.724183 -148.0651 
L 120.136763 -148.0651 
L 116.549343 -148.0651 
L 112.961924 -148.0651 
L 109.374504 -148.0651 
L 105.787084 -148.0651 
L 102.199665 -148.0651 
L 98.612245 -148.0651 
L 95.024826 -148.0651 
L 91.437406 -148.0651 
L 87.849986 -148.0651 
L 84.262567 -148.0651 
L 80.675147 -148.0651 
L 77.087727 -306.14 
z
" style="stroke: #ff0000; stroke-opacity: 0.3"/>
    </defs>
    <g clip-path="url(#padaaa11719)">
     <use xlink:href="#m3f9908768b" x="0" y="345.6" style="fill: #ff0000; fill-opacity: 0.3; stroke: #ff0000; stroke-opacity: 0.3"/>
    </g>
   </g>
   <g id="FillBetweenPolyCollection_2">
    <defs>
     <path id="ma998fb1911" d="M 77.087727 -306.14 
L 77.087727 -54.54 
L 80.675147 -79.971832 
L 84.262567 -79.971832 
L 87.849986 -79.971832 
L 91.437406 -79.971832 
L 95.024826 -79.971832 
L 98.612245 -79.971832 
L 102.199665 -79.971832 
L 105.787084 -79.971832 
L 109.374504 -79.971832 
L 112.961924 -79.971832 
L 116.549343 -79.971832 
L 120.136763 -79.971832 
L 123.724183 -79.971832 
L 127.311602 -79.971832 
L 130.899022 -79.971832 
L 134.486442 -79.971832 
L 138.073861 -79.971832 
L 141.661281 -79.971832 
L 145.248701 -79.971832 
L 148.83612 -79.971832 
L 152.42354 -79.971832 
L 156.01096 -79.971832 
L 159.598379 -79.971832 
L 163.185799 -79.971832 
L 166.773219 -79.971832 
L 170.360638 -79.971832 
L 173.948058 -79.971832 
L 177.535478 -79.971832 
L 181.122897 -79.971832 
L 184.710317 -79.971832 
L 188.297736 -79.971832 
L 191.885156 -79.971832 
L 195.472576 -79.971832 
L 199.059995 -79.971832 
L 202.647415 -79.971832 
L 206.234835 -79.971832 
L 209.822254 -79.971832 
L 213.409674 -79.971832 
L 216.997094 -79.971832 
L 220.584513 -79.971832 
L 224.171933 -79.971832 
L 227.759353 -79.971832 
L 231.346772 -79.971832 
L 234.934192 -79.971832 
L 238.521612 -79.971832 
L 242.109031 -79.971832 
L 245.696451 -79.971832 
L 249.283871 -79.971832 
L 252.87129 -79.971832 
L 256.45871 -79.971832 
L 260.046129 -79.971832 
L 263.633549 -79.971832 
L 267.220969 -79.971832 
L 270.808388 -79.971832 
L 274.395808 -79.971832 
L 277.983228 -79.971832 
L 281.570647 -79.971832 
L 285.158067 -79.971832 
L 288.745487 -79.971832 
L 292.332906 -79.971832 
L 295.920326 -79.971832 
L 299.507746 -79.971832 
L 303.095165 -79.971832 
L 306.682585 -79.971832 
L 310.270005 -79.971832 
L 313.857424 -79.971832 
L 317.444844 -79.971832 
L 321.032264 -79.971832 
L 324.619683 -79.971832 
L 328.207103 -79.971832 
L 331.794522 -79.971832 
L 335.381942 -79.971832 
L 338.969362 -79.971832 
L 342.556781 -79.971832 
L 346.144201 -79.971832 
L 349.731621 -79.971832 
L 353.31904 -79.971832 
L 356.90646 -79.971832 
L 360.49388 -79.971832 
L 364.081299 -79.971832 
L 367.668719 -79.971832 
L 371.256139 -79.971832 
L 374.843558 -79.971832 
L 378.430978 -79.971832 
L 382.018398 -79.971832 
L 385.605817 -79.971832 
L 389.193237 -79.971832 
L 392.780657 -79.971832 
L 396.368076 -79.971832 
L 399.955496 -79.971832 
L 403.542916 -79.971832 
L 407.130335 -79.971832 
L 410.717755 -79.971832 
L 414.305174 -79.971832 
L 417.892594 -79.971832 
L 421.480014 -79.971832 
L 425.067433 -79.971832 
L 428.654853 -79.971832 
L 432.242273 -79.971832 
L 432.242273 -148.0651 
L 432.242273 -148.0651 
L 428.654853 -148.0651 
L 425.067433 -148.0651 
L 421.480014 -148.0651 
L 417.892594 -148.0651 
L 414.305174 -148.0651 
L 410.717755 -148.0651 
L 407.130335 -148.0651 
L 403.542916 -148.0651 
L 399.955496 -148.0651 
L 396.368076 -148.0651 
L 392.780657 -148.0651 
L 389.193237 -148.0651 
L 385.605817 -148.0651 
L 382.018398 -148.0651 
L 378.430978 -148.0651 
L 374.843558 -148.0651 
L 371.256139 -148.0651 
L 367.668719 -148.0651 
L 364.081299 -148.0651 
L 360.49388 -148.0651 
L 356.90646 -148.0651 
L 353.31904 -148.0651 
L 349.731621 -148.0651 
L 346.144201 -148.0651 
L 342.556781 -148.0651 
L 338.969362 -148.0651 
L 335.381942 -148.0651 
L 331.794522 -148.0651 
L 328.207103 -148.0651 
L 324.619683 -148.0651 
L 321.032264 -148.0651 
L 317.444844 -148.0651 
L 313.857424 -148.0651 
L 310.270005 -148.0651 
L 306.682585 -148.0651 
L 303.095165 -148.0651 
L 299.507746 -148.0651 
L 295.920326 -148.0651 
L 292.332906 -148.0651 
L 288.745487 -148.0651 
L 285.158067 -148.0651 
L 281.570647 -148.0651 
L 277.983228 -148.0651 
L 274.395808 -148.0651 
L 270.808388 -148.0651 
L 267.220969 -148.0651 
L 263.633549 -148.0651 
L 260.046129 -148.0651 
L 256.45871 -148.0651 
L 252.87129 -148.0651 
L 249.283871 -148.0651 
L 245.696451 -148.0651 
L 242.109031 -148.0651 
L 238.521612 -148.0651 
L 234.934192 -148.0651 
L 231.346772 -148.0651 
L 227.759353 -148.0651 
L 224.171933 -148.0651 
L 220.584513 -148.0651 
L 216.997094 -148.0651 
L 213.409674 -148.0651 
L 209.822254 -148.0651 
L 206.234835 -148.0651 
L 202.647415 -148.0651 
L 199.059995 -148.0651 
L 195.472576 -148.0651 
L 191.885156 -148.0651 
L 188.297736 -148.0651 
L 184.710317 -148.0651 
L 181.122897 -148.0651 
L 177.535478 -148.0651 
L 173.948058 -148.0651 
L 170.360638 -148.0651 
L 166.773219 -148.0651 
L 163.185799 -148.0651 
L 159.598379 -148.0651 
L 156.01096 -148.0651 
L 152.42354 -148.0651 
L 148.83612 -148.0651 
L 145.248701 -148.0651 
L 141.661281 -148.0651 
L 138.073861 -148.0651 
L 134.486442 -148.0651 
L 130.899022 -148.0651 
L 127.311602 -148.0651 
L 123.724183 -148.0651 
L 120.136763 -148.0651 
L 116.549343 -148.0651 
L 112.961924 -148.0651 
L 109.374504 -148.0651 
L 105.787084 -148.0651 
L 102.199665 -148.0651 
L 98.612245 -148.0651 
L 95.024826 -148.0651 
L 91.437406 -148.0651 
L 87.849986 -148.0651 
L 84.262567 -148.0651 
L 80.675147 -148.0651 
L 77.087727 -306.14 
z
" style="stroke: #000000; stroke-opacity: 0.3"/>
    </defs>
    <g clip-path="url(#padaaa11719)">
     <use xlink:href="#ma998fb1911" x="0" y="345.6" style="fill-opacity: 0.3; stroke: #000000; stroke-opacity: 0.3"/>
    </g>
   </g>
   <g id="matplotlib.axis_1">
    <g id="xtick_1">
     <g id="line2d_1">
      <path d="M 77.190731 303.64 
L 77.190731 26.88 
" clip-path="url(#padaaa11719)" style="fill: none; stroke: #b0b0b0; stroke-opacity: 0.3; stroke-width: 0.8; stroke-linecap: square"/>
     </g>
     <g id="line2d_2">
      <defs>
       <path id="mbefefb557e" d="M 0 0 
L 0 3.5 
" style="stroke: #000000; stroke-width: 0.8"/>
      </defs>
      <g>
       <use xlink:href="#mbefefb557e" x="77.190731" y="303.64" style="stroke: #000000; stroke-width: 0.8"/>
      </g>
     </g>
     <g id="text_1">
      <!-- 0.00 -->
      <g transform="translate(66.057919 318.238437) scale(0.1 -0.1)">
       <defs>
        <path id="DejaVuSans-30" d="M 2034 4250 
Q 1547 4250 1301 3770 
Q 1056 3291 1056 2328 
Q 1056 1369 1301 889 
Q 1547 409 2034 409 
Q 2525 409 2770 889 
Q 3016 1369 3016 2328 
Q 3016 3291 2770 3770 
Q 2525 4250 2034 4250 
z
M 2034 4750 
Q 2819 4750 3233 4129 
Q 3647 3509 3647 2328 
Q 3647 1150 3233 529 
Q 2819 -91 2034 -91 
Q 1250 -91 836 529 
Q 422 1150 422 2328 
Q 422 3509 836 4129 
Q 1250 4750 2034 4750 
z
" transform="scale(0.015625)"/>
        <path id="DejaVuSans-2e" d="M 684 794 
L 1344 794 
L 1344 0 
L 684 0 
L 684 794 
z
" transform="scale(0.015625)"/>
       </defs>
       <use xlink:href="#DejaVuSans-30"/>
       <use xlink:href="#DejaVuSans-2e" transform="translate(63.623047 0)"/>
       <use xlink:href="#DejaVuSans-30" transform="translate(95.410156 0)"/>
       <use xlink:href="#DejaVuSans-30" transform="translate(159.033203 0)"/>
      </g>
     </g>
    </g>
    <g id="xtick_2">
     <g id="line2d_3">
      <path d="M 125.359511 303.64 
L 125.359511 26.88 
" clip-path="url(#padaaa11719)" style="fill: none; stroke: #b0b0b0; stroke-opacity: 0.3; stroke-width: 0.8; stroke-linecap: square"/>
     </g>
     <g id="line2d_4">
      <g>
       <use xlink:href="#mbefefb557e" x="125.359511" y="303.64" style="stroke: #000000; stroke-width: 0.8"/>
      </g>
     </g>
     <g id="text_2">
      <!-- 0.05 -->
      <g transform="translate(114.226698 318.238437) scale(0.1 -0.1)">
       <defs>
        <path id="DejaVuSans-35" d="M 691 4666 
L 3169 4666 
L 3169 4134 
L 1269 4134 
L 1269 2991 
Q 1406 3038 1543 3061 
Q 1681 3084 1819 3084 
Q 2600 3084 3056 2656 
Q 3513 2228 3513 1497 
Q 3513 744 3044 326 
Q 2575 -91 1722 -91 
Q 1428 -91 1123 -41 
Q 819 9 494 109 
L 494 744 
Q 775 591 1075 516 
Q 1375 441 1709 441 
Q 2250 441 2565 725 
Q 2881 1009 2881 1497 
Q 2881 1984 2565 2268 
Q 2250 2553 1709 2553 
Q 1456 2553 1204 2497 
Q 953 2441 691 2322 
L 691 4666 
z
" transform="scale(0.015625)"/>
       </defs>
       <use xlink:href="#DejaVuSans-30"/>
       <use xlink:href="#DejaVuSans-2e" transform="translate(63.623047 0)"/>
       <use xlink:href="#DejaVuSans-30" transform="translate(95.410156 0)"/>
       <use xlink:href="#DejaVuSans-35" transform="translate(159.033203 0)"/>
      </g>
     </g>
    </g>
    <g id="xtick_3">
     <g id="line2d_5">
      <path d="M 173.52829 303.64 
L 173.52829 26.88 
" clip-path="url(#padaaa11719)" style="fill: none; stroke: #b0b0b0; stroke-opacity: 0.3; stroke-width: 0.8; stroke-linecap: square"/>
     </g>
     <g id="line2d_6">
      <g>
       <use xlink:href="#mbefefb557e" x="173.52829" y="303.64" style="stroke: #000000; stroke-width: 0.8"/>
      </g>
     </g>
     <g id="text_3">
      <!-- 0.10 -->
      <g transform="translate(162.395478 318.238437) scale(0.1 -0.1)">
       <defs>
        <path id="DejaVuSans-31" d="M 794 531 
L 1825 531 
L 1825 4091 
L 703 3866 
L 703 4441 
L 1819 4666 
L 2450 4666 
L 2450 531 
L 3481 531 
L 3481 0 
L 794 0 
L 794 531 
z
" transform="scale(0.015625)"/>
       </defs>
       <use xlink:href="#DejaVuSans-30"/>
       <use xlink:href="#DejaVuSans-2e" transform="translate(63.623047 0)"/>
       <use xlink:href="#DejaVuSans-31" transform="translate(95.410156 0)"/>
       <use xlink:href="#DejaVuSans-30" transform="translate(159.033203 0)"/>
      </g>
     </g>
    </g>
    <g id="xtick_4">
     <g id="line2d_7">
      <path d="M 221.69707 303.64 
L 221.69707 26.88 
" clip-path="url(#padaaa11719)" style="fill: none; stroke: #b0b0b0; stroke-opacity: 0.3; stroke-width: 0.8; stroke-linecap: square"/>
     </g>
     <g id="line2d_8">
      <g>
       <use xlink:href="#mbefefb557e" x="221.69707" y="303.64" style="stroke: #000000; stroke-width: 0.8"/>
      </g>
     </g>
     <g id="text_4">
      <!-- 0.15 -->
      <g transform="translate(210.564257 318.238437) scale(0.1 -0.1)">
       <use xlink:href="#DejaVuSans-30"/>
       <use xlink:href="#DejaVuSans-2e" transform="translate(63.623047 0)"/>
       <use xlink:href="#DejaVuSans-31" transform="translate(95.410156 0)"/>
       <use xlink:href="#DejaVuSans-35" transform="translate(159.033203 0)"/>
      </g>
     </g>
    </g>
    <g id="xtick_5">
     <g id="line2d_9">
      <path d="M 269.865849 303.64 
L 269.865849 26.88 
" clip-path="url(#padaaa11719)" style="fill: none; stroke: #b0b0b0; stroke-opacity: 0.3; stroke-width: 0.8; stroke-linecap: square"/>
     </g>
     <g id="line2d_10">
      <g>
       <use xlink:href="#mbefefb557e" x="269.865849" y="303.64" style="stroke: #000000; stroke-width: 0.8"/>
      </g>
     </g>
     <g id="text_5">
      <!-- 0.20 -->
      <g transform="translate(258.733037 318.238437) scale(0.1 -0.1)">
       <defs>
        <path id="DejaVuSans-32" d="M 1228 531 
L 3431 531 
L 3431 0 
L 469 0 
L 469 531 
Q 828 903 1448 1529 
Q 2069 2156 2228 2338 
Q 2531 2678 2651 2914 
Q 2772 3150 2772 3378 
Q 2772 3750 2511 3984 
Q 2250 4219 1831 4219 
Q 1534 4219 1204 4116 
Q 875 4013 500 3803 
L 500 4441 
Q 881 4594 1212 4672 
Q 1544 4750 1819 4750 
Q 2544 4750 2975 4387 
Q 3406 4025 3406 3419 
Q 3406 3131 3298 2873 
Q 3191 2616 2906 2266 
Q 2828 2175 2409 1742 
Q 1991 1309 1228 531 
z
" transform="scale(0.015625)"/>
       </defs>
       <use xlink:href="#DejaVuSans-30"/>
       <use xlink:href="#DejaVuSans-2e" transform="translate(63.623047 0)"/>
       <use xlink:href="#DejaVuSans-32" transform="translate(95.410156 0)"/>
       <use xlink:href="#DejaVuSans-30" transform="translate(159.033203 0)"/>
      </g>
     </g>
    </g>
    <g id="xtick_6">
     <g id="line2d_11">
      <path d="M 318.034629 303.64 
L 318.034629 26.88 
" clip-path="url(#padaaa11719)" style="fill: none; stroke: #b0b0b0; stroke-opacity: 0.3; stroke-width: 0.8; stroke-linecap: square"/>
     </g>
     <g id="line2d_12">
      <g>
       <use xlink:href="#mbefefb557e" x="318.034629" y="303.64" style="stroke: #000000; stroke-width: 0.8"/>
      </g>
     </g>
     <g id="text_6">
      <!-- 0.25 -->
      <g transform="translate(306.901816 318.238437) scale(0.1 -0.1)">
       <use xlink:href="#DejaVuSans-30"/>
       <use xlink:href="#DejaVuSans-2e" transform="translate(63.623047 0)"/>
       <use xlink:href="#DejaVuSans-32" transform="translate(95.410156 0)"/>
       <use xlink:href="#DejaVuSans-35" transform="translate(159.033203 0)"/>
      </g>
     </g>
    </g>
    <g id="xtick_7">
     <g id="line2d_13">
      <path d="M 366.203408 303.64 
L 366.203408 26.88 
" clip-path="url(#padaaa11719)" style="fill: none; stroke: #b0b0b0; stroke-opacity: 0.3; stroke-width: 0.8; stroke-linecap: square"/>
     </g>
     <g id="line2d_14">
      <g>
       <use xlink:href="#mbefefb557e" x="366.203408" y="303.64" style="stroke: #000000; stroke-width: 0.8"/>
      </g>
     </g>
     <g id="text_7">
      <!-- 0.30 -->
      <g transform="translate(355.070596 318.238437) scale(0.1 -0.1)">
       <defs>
        <path id="DejaVuSans-33" d="M 2597 2516 
Q 3050 2419 3304 2112 
Q 3559 1806 3559 1356 
Q 3559 666 3084 287 
Q 2609 -91 1734 -91 
Q 1441 -91 1130 -33 
Q 819 25 488 141 
L 488 750 
Q 750 597 1062 519 
Q 1375 441 1716 441 
Q 2309 441 2620 675 
Q 2931 909 2931 1356 
Q 2931 1769 2642 2001 
Q 2353 2234 1838 2234 
L 1294 2234 
L 1294 2753 
L 1863 2753 
Q 2328 2753 2575 2939 
Q 2822 3125 2822 3475 
Q 2822 3834 2567 4026 
Q 2313 4219 1838 4219 
Q 1578 4219 1281 4162 
Q 984 4106 628 3988 
L 628 4550 
Q 988 4650 1302 4700 
Q 1616 4750 1894 4750 
Q 2613 4750 3031 4423 
Q 3450 4097 3450 3541 
Q 3450 3153 3228 2886 
Q 3006 2619 2597 2516 
z
" transform="scale(0.015625)"/>
       </defs>
       <use xlink:href="#DejaVuSans-30"/>
       <use xlink:href="#DejaVuSans-2e" transform="translate(63.623047 0)"/>
       <use xlink:href="#DejaVuSans-33" transform="translate(95.410156 0)"/>
       <use xlink:href="#DejaVuSans-30" transform="translate(159.033203 0)"/>
      </g>
     </g>
    </g>
    <g id="xtick_8">
     <g id="line2d_15">
      <path d="M 414.372188 303.64 
L 414.372188 26.88 
" clip-path="url(#padaaa11719)" style="fill: none; stroke: #b0b0b0; stroke-opacity: 0.3; stroke-width: 0.8; stroke-linecap: square"/>
     </g>
     <g id="line2d_16">
      <g>
       <use xlink:href="#mbefefb557e" x="414.372188" y="303.64" style="stroke: #000000; stroke-width: 0.8"/>
      </g>
     </g>
     <g id="text_8">
      <!-- 0.35 -->
      <g transform="translate(403.239375 318.238437) scale(0.1 -0.1)">
       <use xlink:href="#DejaVuSans-30"/>
       <use xlink:href="#DejaVuSans-2e" transform="translate(63.623047 0)"/>
       <use xlink:href="#DejaVuSans-33" transform="translate(95.410156 0)"/>
       <use xlink:href="#DejaVuSans-35" transform="translate(159.033203 0)"/>
      </g>
     </g>
    </g>
    <g id="text_9">
     <!-- Strain [-] -->
     <g transform="translate(232.55875 331.916562) scale(0.1 -0.1)">
      <defs>
       <path id="DejaVuSans-53" d="M 3425 4513 
L 3425 3897 
Q 3066 4069 2747 4153 
Q 2428 4238 2131 4238 
Q 1616 4238 1336 4038 
Q 1056 3838 1056 3469 
Q 1056 3159 1242 3001 
Q 1428 2844 1947 2747 
L 2328 2669 
Q 3034 2534 3370 2195 
Q 3706 1856 3706 1288 
Q 3706 609 3251 259 
Q 2797 -91 1919 -91 
Q 1588 -91 1214 -16 
Q 841 59 441 206 
L 441 856 
Q 825 641 1194 531 
Q 1563 422 1919 422 
Q 2459 422 2753 634 
Q 3047 847 3047 1241 
Q 3047 1584 2836 1778 
Q 2625 1972 2144 2069 
L 1759 2144 
Q 1053 2284 737 2584 
Q 422 2884 422 3419 
Q 422 4038 858 4394 
Q 1294 4750 2059 4750 
Q 2388 4750 2728 4690 
Q 3069 4631 3425 4513 
z
" transform="scale(0.015625)"/>
       <path id="DejaVuSans-74" d="M 1172 4494 
L 1172 3500 
L 2356 3500 
L 2356 3053 
L 1172 3053 
L 1172 1153 
Q 1172 725 1289 603 
Q 1406 481 1766 481 
L 2356 481 
L 2356 0 
L 1766 0 
Q 1100 0 847 248 
Q 594 497 594 1153 
L 594 3053 
L 172 3053 
L 172 3500 
L 594 3500 
L 594 4494 
L 1172 4494 
z
" transform="scale(0.015625)"/>
       <path id="DejaVuSans-72" d="M 2631 2963 
Q 2534 3019 2420 3045 
Q 2306 3072 2169 3072 
Q 1681 3072 1420 2755 
Q 1159 2438 1159 1844 
L 1159 0 
L 581 0 
L 581 3500 
L 1159 3500 
L 1159 2956 
Q 1341 3275 1631 3429 
Q 1922 3584 2338 3584 
Q 2397 3584 2469 3576 
Q 2541 3569 2628 3553 
L 2631 2963 
z
" transform="scale(0.015625)"/>
       <path id="DejaVuSans-61" d="M 2194 1759 
Q 1497 1759 1228 1600 
Q 959 1441 959 1056 
Q 959 750 1161 570 
Q 1363 391 1709 391 
Q 2188 391 2477 730 
Q 2766 1069 2766 1631 
L 2766 1759 
L 2194 1759 
z
M 3341 1997 
L 3341 0 
L 2766 0 
L 2766 531 
Q 2569 213 2275 61 
Q 1981 -91 1556 -91 
Q 1019 -91 701 211 
Q 384 513 384 1019 
Q 384 1609 779 1909 
Q 1175 2209 1959 2209 
L 2766 2209 
L 2766 2266 
Q 2766 2663 2505 2880 
Q 2244 3097 1772 3097 
Q 1472 3097 1187 3025 
Q 903 2953 641 2809 
L 641 3341 
Q 956 3463 1253 3523 
Q 1550 3584 1831 3584 
Q 2591 3584 2966 3190 
Q 3341 2797 3341 1997 
z
" transform="scale(0.015625)"/>
       <path id="DejaVuSans-69" d="M 603 3500 
L 1178 3500 
L 1178 0 
L 603 0 
L 603 3500 
z
M 603 4863 
L 1178 4863 
L 1178 4134 
L 603 4134 
L 603 4863 
z
" transform="scale(0.015625)"/>
       <path id="DejaVuSans-6e" d="M 3513 2113 
L 3513 0 
L 2938 0 
L 2938 2094 
Q 2938 2591 2744 2837 
Q 2550 3084 2163 3084 
Q 1697 3084 1428 2787 
Q 1159 2491 1159 1978 
L 1159 0 
L 581 0 
L 581 3500 
L 1159 3500 
L 1159 2956 
Q 1366 3272 1645 3428 
Q 1925 3584 2291 3584 
Q 2894 3584 3203 3211 
Q 3513 2838 3513 2113 
z
" transform="scale(0.015625)"/>
       <path id="DejaVuSans-20" transform="scale(0.015625)"/>
       <path id="DejaVuSans-5b" d="M 550 4863 
L 1875 4863 
L 1875 4416 
L 1125 4416 
L 1125 -397 
L 1875 -397 
L 1875 -844 
L 550 -844 
L 550 4863 
z
" transform="scale(0.015625)"/>
       <path id="DejaVuSans-2d" d="M 313 2009 
L 1997 2009 
L 1997 1497 
L 313 1497 
L 313 2009 
z
" transform="scale(0.015625)"/>
       <path id="DejaVuSans-5d" d="M 1947 4863 
L 1947 -844 
L 622 -844 
L 622 -397 
L 1369 -397 
L 1369 4416 
L 622 4416 
L 622 4863 
L 1947 4863 
z
" transform="scale(0.015625)"/>
      </defs>
      <use xlink:href="#DejaVuSans-53"/>
      <use xlink:href="#DejaVuSans-74" transform="translate(63.476562 0)"/>
      <use xlink:href="#DejaVuSans-72" transform="translate(102.685547 0)"/>
      <use xlink:href="#DejaVuSans-61" transform="translate(143.798828 0)"/>
      <use xlink:href="#DejaVuSans-69" transform="translate(205.078125 0)"/>
      <use xlink:href="#DejaVuSans-6e" transform="translate(232.861328 0)"/>
      <use xlink:href="#DejaVuSans-20" transform="translate(296.240234 0)"/>
      <use xlink:href="#DejaVuSans-5b" transform="translate(328.027344 0)"/>
      <use xlink:href="#DejaVuSans-2d" transform="translate(367.041016 0)"/>
      <use xlink:href="#DejaVuSans-5d" transform="translate(403.125 0)"/>
     </g>
    </g>
   </g>
   <g id="matplotlib.axis_2">
    <g id="ytick_1">
     <g id="line2d_17">
      <path d="M 59.33 291.03114 
L 450 291.03114 
" clip-path="url(#padaaa11719)" style="fill: none; stroke: #b0b0b0; stroke-opacity: 0.3; stroke-width: 0.8; stroke-linecap: square"/>
     </g>
     <g id="line2d_18">
      <defs>
       <path id="m7be4944eed" d="M 0 0 
L -3.5 0 
" style="stroke: #000000; stroke-width: 0.8"/>
      </defs>
      <g>
       <use xlink:href="#m7be4944eed" x="59.33" y="291.03114" style="stroke: #000000; stroke-width: 0.8"/>
      </g>
     </g>
     <g id="text_10">
      <!-- −180 -->
      <g transform="translate(24.862813 294.830358) scale(0.1 -0.1)">
       <defs>
        <path id="DejaVuSans-2212" d="M 678 2272 
L 4684 2272 
L 4684 1741 
L 678 1741 
L 678 2272 
z
" transform="scale(0.015625)"/>
        <path id="DejaVuSans-38" d="M 2034 2216 
Q 1584 2216 1326 1975 
Q 1069 1734 1069 1313 
Q 1069 891 1326 650 
Q 1584 409 2034 409 
Q 2484 409 2743 651 
Q 3003 894 3003 1313 
Q 3003 1734 2745 1975 
Q 2488 2216 2034 2216 
z
M 1403 2484 
Q 997 2584 770 2862 
Q 544 3141 544 3541 
Q 544 4100 942 4425 
Q 1341 4750 2034 4750 
Q 2731 4750 3128 4425 
Q 3525 4100 3525 3541 
Q 3525 3141 3298 2862 
Q 3072 2584 2669 2484 
Q 3125 2378 3379 2068 
Q 3634 1759 3634 1313 
Q 3634 634 3220 271 
Q 2806 -91 2034 -91 
Q 1263 -91 848 271 
Q 434 634 434 1313 
Q 434 1759 690 2068 
Q 947 2378 1403 2484 
z
M 1172 3481 
Q 1172 3119 1398 2916 
Q 1625 2713 2034 2713 
Q 2441 2713 2670 2916 
Q 2900 3119 2900 3481 
Q 2900 3844 2670 4047 
Q 2441 4250 2034 4250 
Q 1625 4250 1398 4047 
Q 1172 3844 1172 3481 
z
" transform="scale(0.015625)"/>
       </defs>
       <use xlink:href="#DejaVuSans-2212"/>
       <use xlink:href="#DejaVuSans-31" transform="translate(83.789062 0)"/>
       <use xlink:href="#DejaVuSans-38" transform="translate(147.412109 0)"/>
       <use xlink:href="#DejaVuSans-30" transform="translate(211.035156 0)"/>
      </g>
     </g>
    </g>
    <g id="ytick_2">
     <g id="line2d_19">
      <path d="M 59.33 255.750828 
L 450 255.750828 
" clip-path="url(#padaaa11719)" style="fill: none; stroke: #b0b0b0; stroke-opacity: 0.3; stroke-width: 0.8; stroke-linecap: square"/>
     </g>
     <g id="line2d_20">
      <g>
       <use xlink:href="#m7be4944eed" x="59.33" y="255.750828" style="stroke: #000000; stroke-width: 0.8"/>
      </g>
     </g>
     <g id="text_11">
      <!-- −160 -->
      <g transform="translate(24.862813 259.550047) scale(0.1 -0.1)">
       <defs>
        <path id="DejaVuSans-36" d="M 2113 2584 
Q 1688 2584 1439 2293 
Q 1191 2003 1191 1497 
Q 1191 994 1439 701 
Q 1688 409 2113 409 
Q 2538 409 2786 701 
Q 3034 994 3034 1497 
Q 3034 2003 2786 2293 
Q 2538 2584 2113 2584 
z
M 3366 4563 
L 3366 3988 
Q 3128 4100 2886 4159 
Q 2644 4219 2406 4219 
Q 1781 4219 1451 3797 
Q 1122 3375 1075 2522 
Q 1259 2794 1537 2939 
Q 1816 3084 2150 3084 
Q 2853 3084 3261 2657 
Q 3669 2231 3669 1497 
Q 3669 778 3244 343 
Q 2819 -91 2113 -91 
Q 1303 -91 875 529 
Q 447 1150 447 2328 
Q 447 3434 972 4092 
Q 1497 4750 2381 4750 
Q 2619 4750 2861 4703 
Q 3103 4656 3366 4563 
z
" transform="scale(0.015625)"/>
       </defs>
       <use xlink:href="#DejaVuSans-2212"/>
       <use xlink:href="#DejaVuSans-31" transform="translate(83.789062 0)"/>
       <use xlink:href="#DejaVuSans-36" transform="translate(147.412109 0)"/>
       <use xlink:href="#DejaVuSans-30" transform="translate(211.035156 0)"/>
      </g>
     </g>
    </g>
    <g id="ytick_3">
     <g id="line2d_21">
      <path d="M 59.33 220.470517 
L 450 220.470517 
" clip-path="url(#padaaa11719)" style="fill: none; stroke: #b0b0b0; stroke-opacity: 0.3; stroke-width: 0.8; stroke-linecap: square"/>
     </g>
     <g id="line2d_22">
      <g>
       <use xlink:href="#m7be4944eed" x="59.33" y="220.470517" style="stroke: #000000; stroke-width: 0.8"/>
      </g>
     </g>
     <g id="text_12">
      <!-- −140 -->
      <g transform="translate(24.862813 224.269735) scale(0.1 -0.1)">
       <defs>
        <path id="DejaVuSans-34" d="M 2419 4116 
L 825 1625 
L 2419 1625 
L 2419 4116 
z
M 2253 4666 
L 3047 4666 
L 3047 1625 
L 3713 1625 
L 3713 1100 
L 3047 1100 
L 3047 0 
L 2419 0 
L 2419 1100 
L 313 1100 
L 313 1709 
L 2253 4666 
z
" transform="scale(0.015625)"/>
       </defs>
       <use xlink:href="#DejaVuSans-2212"/>
       <use xlink:href="#DejaVuSans-31" transform="translate(83.789062 0)"/>
       <use xlink:href="#DejaVuSans-34" transform="translate(147.412109 0)"/>
       <use xlink:href="#DejaVuSans-30" transform="translate(211.035156 0)"/>
      </g>
     </g>
    </g>
    <g id="ytick_4">
     <g id="line2d_23">
      <path d="M 59.33 185.190205 
L 450 185.190205 
" clip-path="url(#padaaa11719)" style="fill: none; stroke: #b0b0b0; stroke-opacity: 0.3; stroke-width: 0.8; stroke-linecap: square"/>
     </g>
     <g id="line2d_24">
      <g>
       <use xlink:href="#m7be4944eed" x="59.33" y="185.190205" style="stroke: #000000; stroke-width: 0.8"/>
      </g>
     </g>
     <g id="text_13">
      <!-- −120 -->
      <g transform="translate(24.862813 188.989424) scale(0.1 -0.1)">
       <use xlink:href="#DejaVuSans-2212"/>
       <use xlink:href="#DejaVuSans-31" transform="translate(83.789062 0)"/>
       <use xlink:href="#DejaVuSans-32" transform="translate(147.412109 0)"/>
       <use xlink:href="#DejaVuSans-30" transform="translate(211.035156 0)"/>
      </g>
     </g>
    </g>
    <g id="ytick_5">
     <g id="line2d_25">
      <path d="M 59.33 149.909893 
L 450 149.909893 
" clip-path="url(#padaaa11719)" style="fill: none; stroke: #b0b0b0; stroke-opacity: 0.3; stroke-width: 0.8; stroke-linecap: square"/>
     </g>
     <g id="line2d_26">
      <g>
       <use xlink:href="#m7be4944eed" x="59.33" y="149.909893" style="stroke: #000000; stroke-width: 0.8"/>
      </g>
     </g>
     <g id="text_14">
      <!-- −100 -->
      <g transform="translate(24.862813 153.709112) scale(0.1 -0.1)">
       <use xlink:href="#DejaVuSans-2212"/>
       <use xlink:href="#DejaVuSans-31" transform="translate(83.789062 0)"/>
       <use xlink:href="#DejaVuSans-30" transform="translate(147.412109 0)"/>
       <use xlink:href="#DejaVuSans-30" transform="translate(211.035156 0)"/>
      </g>
     </g>
    </g>
    <g id="ytick_6">
     <g id="line2d_27">
      <path d="M 59.33 114.629582 
L 450 114.629582 
" clip-path="url(#padaaa11719)" style="fill: none; stroke: #b0b0b0; stroke-opacity: 0.3; stroke-width: 0.8; stroke-linecap: square"/>
     </g>
     <g id="line2d_28">
      <g>
       <use xlink:href="#m7be4944eed" x="59.33" y="114.629582" style="stroke: #000000; stroke-width: 0.8"/>
      </g>
     </g>
     <g id="text_15">
      <!-- −80 -->
      <g transform="translate(31.225313 118.428801) scale(0.1 -0.1)">
       <use xlink:href="#DejaVuSans-2212"/>
       <use xlink:href="#DejaVuSans-38" transform="translate(83.789062 0)"/>
       <use xlink:href="#DejaVuSans-30" transform="translate(147.412109 0)"/>
      </g>
     </g>
    </g>
    <g id="ytick_7">
     <g id="line2d_29">
      <path d="M 59.33 79.34927 
L 450 79.34927 
" clip-path="url(#padaaa11719)" style="fill: none; stroke: #b0b0b0; stroke-opacity: 0.3; stroke-width: 0.8; stroke-linecap: square"/>
     </g>
     <g id="line2d_30">
      <g>
       <use xlink:href="#m7be4944eed" x="59.33" y="79.34927" style="stroke: #000000; stroke-width: 0.8"/>
      </g>
     </g>
     <g id="text_16">
      <!-- −60 -->
      <g transform="translate(31.225313 83.148489) scale(0.1 -0.1)">
       <use xlink:href="#DejaVuSans-2212"/>
       <use xlink:href="#DejaVuSans-36" transform="translate(83.789062 0)"/>
       <use xlink:href="#DejaVuSans-30" transform="translate(147.412109 0)"/>
      </g>
     </g>
    </g>
    <g id="ytick_8">
     <g id="line2d_31">
      <path d="M 59.33 44.068959 
L 450 44.068959 
" clip-path="url(#padaaa11719)" style="fill: none; stroke: #b0b0b0; stroke-opacity: 0.3; stroke-width: 0.8; stroke-linecap: square"/>
     </g>
     <g id="line2d_32">
      <g>
       <use xlink:href="#m7be4944eed" x="59.33" y="44.068959" style="stroke: #000000; stroke-width: 0.8"/>
      </g>
     </g>
     <g id="text_17">
      <!-- −40 -->
      <g transform="translate(31.225313 47.868177) scale(0.1 -0.1)">
       <use xlink:href="#DejaVuSans-2212"/>
       <use xlink:href="#DejaVuSans-34" transform="translate(83.789062 0)"/>
       <use xlink:href="#DejaVuSans-30" transform="translate(147.412109 0)"/>
      </g>
     </g>
    </g>
    <g id="text_18">
     <!-- Stress [Pa] -->
     <g transform="translate(18.783125 191.967812) rotate(-90) scale(0.1 -0.1)">
      <defs>
       <path id="DejaVuSans-65" d="M 3597 1894 
L 3597 1613 
L 953 1613 
Q 991 1019 1311 708 
Q 1631 397 2203 397 
Q 2534 397 2845 478 
Q 3156 559 3463 722 
L 3463 178 
Q 3153 47 2828 -22 
Q 2503 -91 2169 -91 
Q 1331 -91 842 396 
Q 353 884 353 1716 
Q 353 2575 817 3079 
Q 1281 3584 2069 3584 
Q 2775 3584 3186 3129 
Q 3597 2675 3597 1894 
z
M 3022 2063 
Q 3016 2534 2758 2815 
Q 2500 3097 2075 3097 
Q 1594 3097 1305 2825 
Q 1016 2553 972 2059 
L 3022 2063 
z
" transform="scale(0.015625)"/>
       <path id="DejaVuSans-73" d="M 2834 3397 
L 2834 2853 
Q 2591 2978 2328 3040 
Q 2066 3103 1784 3103 
Q 1356 3103 1142 2972 
Q 928 2841 928 2578 
Q 928 2378 1081 2264 
Q 1234 2150 1697 2047 
L 1894 2003 
Q 2506 1872 2764 1633 
Q 3022 1394 3022 966 
Q 3022 478 2636 193 
Q 2250 -91 1575 -91 
Q 1294 -91 989 -36 
Q 684 19 347 128 
L 347 722 
Q 666 556 975 473 
Q 1284 391 1588 391 
Q 1994 391 2212 530 
Q 2431 669 2431 922 
Q 2431 1156 2273 1281 
Q 2116 1406 1581 1522 
L 1381 1569 
Q 847 1681 609 1914 
Q 372 2147 372 2553 
Q 372 3047 722 3315 
Q 1072 3584 1716 3584 
Q 2034 3584 2315 3537 
Q 2597 3491 2834 3397 
z
" transform="scale(0.015625)"/>
       <path id="DejaVuSans-50" d="M 1259 4147 
L 1259 2394 
L 2053 2394 
Q 2494 2394 2734 2622 
Q 2975 2850 2975 3272 
Q 2975 3691 2734 3919 
Q 2494 4147 2053 4147 
L 1259 4147 
z
M 628 4666 
L 2053 4666 
Q 2838 4666 3239 4311 
Q 3641 3956 3641 3272 
Q 3641 2581 3239 2228 
Q 2838 1875 2053 1875 
L 1259 1875 
L 1259 0 
L 628 0 
L 628 4666 
z
" transform="scale(0.015625)"/>
      </defs>
      <use xlink:href="#DejaVuSans-53"/>
      <use xlink:href="#DejaVuSans-74" transform="translate(63.476562 0)"/>
      <use xlink:href="#DejaVuSans-72" transform="translate(102.685547 0)"/>
      <use xlink:href="#DejaVuSans-65" transform="translate(141.548828 0)"/>
      <use xlink:href="#DejaVuSans-73" transform="translate(203.072266 0)"/>
      <use xlink:href="#DejaVuSans-73" transform="translate(255.171875 0)"/>
      <use xlink:href="#DejaVuSans-20" transform="translate(307.271484 0)"/>
      <use xlink:href="#DejaVuSans-5b" transform="translate(339.058594 0)"/>
      <use xlink:href="#DejaVuSans-50" transform="translate(378.072266 0)"/>
      <use xlink:href="#DejaVuSans-61" transform="translate(433.875 0)"/>
      <use xlink:href="#DejaVuSans-5d" transform="translate(495.154297 0)"/>
     </g>
    </g>
   </g>
   <g id="line2d_33">
    <path d="M 77.087727 165.26 
L 80.675147 231.581534 
L 84.262567 231.581534 
L 87.849986 231.581534 
L 91.437406 231.581534 
L 95.024826 231.581534 
L 98.612245 231.581534 
L 102.199665 231.581534 
L 105.787084 231.581534 
L 109.374504 231.581534 
L 112.961924 231.581534 
L 116.549343 231.581534 
L 120.136763 231.581534 
L 123.724183 231.581534 
L 127.311602 231.581534 
L 130.899022 231.581534 
L 134.486442 231.581534 
L 138.073861 231.581534 
L 141.661281 231.581534 
L 145.248701 231.581534 
L 148.83612 231.581534 
L 152.42354 231.581534 
L 156.01096 231.581534 
L 159.598379 231.581534 
L 163.185799 231.581534 
L 166.773219 231.581534 
L 170.360638 231.581534 
L 173.948058 231.581534 
L 177.535478 231.581534 
L 181.122897 231.581534 
L 184.710317 231.581534 
L 188.297736 231.581534 
L 191.885156 231.581534 
L 195.472576 231.581534 
L 199.059995 231.581534 
L 202.647415 231.581534 
L 206.234835 231.581534 
L 209.822254 231.581534 
L 213.409674 231.581534 
L 216.997094 231.581534 
L 220.584513 231.581534 
L 224.171933 231.581534 
L 227.759353 231.581534 
L 231.346772 231.581534 
L 234.934192 231.581534 
L 238.521612 231.581534 
L 242.109031 231.581534 
L 245.696451 231.581534 
L 249.283871 231.581534 
L 252.87129 231.581534 
L 256.45871 231.581534 
L 260.046129 231.581534 
L 263.633549 231.581534 
L 267.220969 231.581534 
L 270.808388 231.581534 
L 274.395808 231.581534 
L 277.983228 231.581534 
L 281.570647 231.581534 
L 285.158067 231.581534 
L 288.745487 231.581534 
L 292.332906 231.581534 
L 295.920326 231.581534 
L 299.507746 231.581534 
L 303.095165 231.581534 
L 306.682585 231.581534 
L 310.270005 231.581534 
L 313.857424 231.581534 
L 317.444844 231.581534 
L 321.032264 231.581534 
L 324.619683 231.581534 
L 328.207103 231.581534 
L 331.794522 231.581534 
L 335.381942 231.581534 
L 338.969362 231.581534 
L 342.556781 231.581534 
L 346.144201 231.581534 
L 349.731621 231.581534 
L 353.31904 231.581534 
L 356.90646 231.581534 
L 360.49388 231.581534 
L 364.081299 231.581534 
L 367.668719 231.581534 
L 371.256139 231.581534 
L 374.843558 231.581534 
L 378.430978 231.581534 
L 382.018398 231.581534 
L 385.605817 231.581534 
L 389.193237 231.581534 
L 392.780657 231.581534 
L 396.368076 231.581534 
L 399.955496 231.581534 
L 403.542916 231.581534 
L 407.130335 231.581534 
L 410.717755 231.581534 
L 414.305174 231.581534 
L 417.892594 231.581534 
L 421.480014 231.581534 
L 425.067433 231.581534 
L 428.654853 231.581534 
L 432.242273 231.581534 
" clip-path="url(#padaaa11719)" style="fill: none; stroke: #ff0000; stroke-width: 2; stroke-linecap: square"/>
   </g>
   <g id="line2d_34">
    <path d="M 77.087727 165.26 
L 80.675147 231.581534 
L 84.262567 231.581534 
L 87.849986 231.581534 
L 91.437406 231.581534 
L 95.024826 231.581534 
L 98.612245 231.581534 
L 102.199665 231.581534 
L 105.787084 231.581534 
L 109.374504 231.581534 
L 112.961924 231.581534 
L 116.549343 231.581534 
L 120.136763 231.581534 
L 123.724183 231.581534 
L 127.311602 231.581534 
L 130.899022 231.581534 
L 134.486442 231.581534 
L 138.073861 231.581534 
L 141.661281 231.581534 
L 145.248701 231.581534 
L 148.83612 231.581534 
L 152.42354 231.581534 
L 156.01096 231.581534 
L 159.598379 231.581534 
L 163.185799 231.581534 
L 166.773219 231.581534 
L 170.360638 231.581534 
L 173.948058 231.581534 
L 177.535478 231.581534 
L 181.122897 231.581534 
L 184.710317 231.581534 
L 188.297736 231.581534 
L 191.885156 231.581534 
L 195.472576 231.581534 
L 199.059995 231.581534 
L 202.647415 231.581534 
L 206.234835 231.581534 
L 209.822254 231.581534 
L 213.409674 231.581534 
L 216.997094 231.581534 
L 220.584513 231.581534 
L 224.171933 231.581534 
L 227.759353 231.581534 
L 231.346772 231.581534 
L 234.934192 231.581534 
L 238.521612 231.581534 
L 242.109031 231.581534 
L 245.696451 231.581534 
L 249.283871 231.581534 
L 252.87129 231.581534 
L 256.45871 231.581534 
L 260.046129 231.581534 
L 263.633549 231.581534 
L 267.220969 231.581534 
L 270.808388 231.581534 
L 274.395808 231.581534 
L 277.983228 231.581534 
L 281.570647 231.581534 
L 285.158067 231.581534 
L 288.745487 231.581534 
L 292.332906 231.581534 
L 295.920326 231.581534 
L 299.507746 231.581534 
L 303.095165 231.581534 
L 306.682585 231.581534 
L 310.270005 231.581534 
L 313.857424 231.581534 
L 317.444844 231.581534 
L 321.032264 231.581534 
L 324.619683 231.581534 
L 328.207103 231.581534 
L 331.794522 231.581534 
L 335.381942 231.581534 
L 338.969362 231.581534 
L 342.556781 231.581534 
L 346.144201 231.581534 
L 349.731621 231.581534 
L 353.31904 231.581534 
L 356.90646 231.581534 
L 360.49388 231.581534 
L 364.081299 231.581534 
L 367.668719 231.581534 
L 371.256139 231.581534 
L 374.843558 231.581534 
L 378.430978 231.581534 
L 382.018398 231.581534 
L 385.605817 231.581534 
L 389.193237 231.581534 
L 392.780657 231.581534 
L 396.368076 231.581534 
L 399.955496 231.581534 
L 403.542916 231.581534 
L 407.130335 231.581534 
L 410.717755 231.581534 
L 414.305174 231.581534 
L 417.892594 231.581534 
L 421.480014 231.581534 
L 425.067433 231.581534 
L 428.654853 231.581534 
L 432.242273 231.581534 
" clip-path="url(#padaaa11719)" style="fill: none; stroke: #000000; stroke-width: 2; stroke-linecap: square"/>
   </g>
   <g id="patch_3">
    <path d="M 59.33 303.64 
L 59.33 26.88 
" style="fill: none; stroke: #000000; stroke-width: 0.8; stroke-linejoin: miter; stroke-linecap: square"/>
   </g>
   <g id="patch_4">
    <path d="M 450 303.64 
L 450 26.88 
" style="fill: none; stroke: #000000; stroke-width: 0.8; stroke-linejoin: miter; stroke-linecap: square"/>
   </g>
   <g id="patch_5">
    <path d="M 59.33 303.64 
L 450 303.64 
" style="fill: none; stroke: #000000; stroke-width: 0.8; stroke-linejoin: miter; stroke-linecap: square"/>
   </g>
   <g id="patch_6">
    <path d="M 59.33 26.88 
L 450 26.88 
" style="fill: none; stroke: #000000; stroke-width: 0.8; stroke-linejoin: miter; stroke-linecap: square"/>
   </g>
   <g id="text_19">
    <!-- 2025-07-22 Velocity 7 mm/s - Combined Trials (n=3) -->
    <g transform="translate(96.894062 20.88) scale(0.12 -0.12)">
     <defs>
      <path id="DejaVuSans-37" d="M 525 4666 
L 3525 4666 
L 3525 4397 
L 1831 0 
L 1172 0 
L 2766 4134 
L 525 4134 
L 525 4666 
z
" transform="scale(0.015625)"/>
      <path id="DejaVuSans-56" d="M 1831 0 
L 50 4666 
L 709 4666 
L 2188 738 
L 3669 4666 
L 4325 4666 
L 2547 0 
L 1831 0 
z
" transform="scale(0.015625)"/>
      <path id="DejaVuSans-6c" d="M 603 4863 
L 1178 4863 
L 1178 0 
L 603 0 
L 603 4863 
z
" transform="scale(0.015625)"/>
      <path id="DejaVuSans-6f" d="M 1959 3097 
Q 1497 3097 1228 2736 
Q 959 2375 959 1747 
Q 959 1119 1226 758 
Q 1494 397 1959 397 
Q 2419 397 2687 759 
Q 2956 1122 2956 1747 
Q 2956 2369 2687 2733 
Q 2419 3097 1959 3097 
z
M 1959 3584 
Q 2709 3584 3137 3096 
Q 3566 2609 3566 1747 
Q 3566 888 3137 398 
Q 2709 -91 1959 -91 
Q 1206 -91 779 398 
Q 353 888 353 1747 
Q 353 2609 779 3096 
Q 1206 3584 1959 3584 
z
" transform="scale(0.015625)"/>
      <path id="DejaVuSans-63" d="M 3122 3366 
L 3122 2828 
Q 2878 2963 2633 3030 
Q 2388 3097 2138 3097 
Q 1578 3097 1268 2742 
Q 959 2388 959 1747 
Q 959 1106 1268 751 
Q 1578 397 2138 397 
Q 2388 397 2633 464 
Q 2878 531 3122 666 
L 3122 134 
Q 2881 22 2623 -34 
Q 2366 -91 2075 -91 
Q 1284 -91 818 406 
Q 353 903 353 1747 
Q 353 2603 823 3093 
Q 1294 3584 2113 3584 
Q 2378 3584 2631 3529 
Q 2884 3475 3122 3366 
z
" transform="scale(0.015625)"/>
      <path id="DejaVuSans-79" d="M 2059 -325 
Q 1816 -950 1584 -1140 
Q 1353 -1331 966 -1331 
L 506 -1331 
L 506 -850 
L 844 -850 
Q 1081 -850 1212 -737 
Q 1344 -625 1503 -206 
L 1606 56 
L 191 3500 
L 800 3500 
L 1894 763 
L 2988 3500 
L 3597 3500 
L 2059 -325 
z
" transform="scale(0.015625)"/>
      <path id="DejaVuSans-6d" d="M 3328 2828 
Q 3544 3216 3844 3400 
Q 4144 3584 4550 3584 
Q 5097 3584 5394 3201 
Q 5691 2819 5691 2113 
L 5691 0 
L 5113 0 
L 5113 2094 
Q 5113 2597 4934 2840 
Q 4756 3084 4391 3084 
Q 3944 3084 3684 2787 
Q 3425 2491 3425 1978 
L 3425 0 
L 2847 0 
L 2847 2094 
Q 2847 2600 2669 2842 
Q 2491 3084 2119 3084 
Q 1678 3084 1418 2786 
Q 1159 2488 1159 1978 
L 1159 0 
L 581 0 
L 581 3500 
L 1159 3500 
L 1159 2956 
Q 1356 3278 1631 3431 
Q 1906 3584 2284 3584 
Q 2666 3584 2933 3390 
Q 3200 3197 3328 2828 
z
" transform="scale(0.015625)"/>
      <path id="DejaVuSans-2f" d="M 1625 4666 
L 2156 4666 
L 531 -594 
L 0 -594 
L 1625 4666 
z
" transform="scale(0.015625)"/>
      <path id="DejaVuSans-43" d="M 4122 4306 
L 4122 3641 
Q 3803 3938 3442 4084 
Q 3081 4231 2675 4231 
Q 1875 4231 1450 3742 
Q 1025 3253 1025 2328 
Q 1025 1406 1450 917 
Q 1875 428 2675 428 
Q 3081 428 3442 575 
Q 3803 722 4122 1019 
L 4122 359 
Q 3791 134 3420 21 
Q 3050 -91 2638 -91 
Q 1578 -91 968 557 
Q 359 1206 359 2328 
Q 359 3453 968 4101 
Q 1578 4750 2638 4750 
Q 3056 4750 3426 4639 
Q 3797 4528 4122 4306 
z
" transform="scale(0.015625)"/>
      <path id="DejaVuSans-62" d="M 3116 1747 
Q 3116 2381 2855 2742 
Q 2594 3103 2138 3103 
Q 1681 3103 1420 2742 
Q 1159 2381 1159 1747 
Q 1159 1113 1420 752 
Q 1681 391 2138 391 
Q 2594 391 2855 752 
Q 3116 1113 3116 1747 
z
M 1159 2969 
Q 1341 3281 1617 3432 
Q 1894 3584 2278 3584 
Q 2916 3584 3314 3078 
Q 3713 2572 3713 1747 
Q 3713 922 3314 415 
Q 2916 -91 2278 -91 
Q 1894 -91 1617 61 
Q 1341 213 1159 525 
L 1159 0 
L 581 0 
L 581 4863 
L 1159 4863 
L 1159 2969 
z
" transform="scale(0.015625)"/>
      <path id="DejaVuSans-64" d="M 2906 2969 
L 2906 4863 
L 3481 4863 
L 3481 0 
L 2906 0 
L 2906 525 
Q 2725 213 2448 61 
Q 2172 -91 1784 -91 
Q 1150 -91 751 415 
Q 353 922 353 1747 
Q 353 2572 751 3078 
Q 1150 3584 1784 3584 
Q 2172 3584 2448 3432 
Q 2725 3281 2906 2969 
z
M 947 1747 
Q 947 1113 1208 752 
Q 1469 391 1925 391 
Q 2381 391 2643 752 
Q 2906 1113 2906 1747 
Q 2906 2381 2643 2742 
Q 2381 3103 1925 3103 
Q 1469 3103 1208 2742 
Q 947 2381 947 1747 
z
" transform="scale(0.015625)"/>
      <path id="DejaVuSans-54" d="M -19 4666 
L 3928 4666 
L 3928 4134 
L 2272 4134 
L 2272 0 
L 1638 0 
L 1638 4134 
L -19 4134 
L -19 4666 
z
" transform="scale(0.015625)"/>
      <path id="DejaVuSans-28" d="M 1984 4856 
Q 1566 4138 1362 3434 
Q 1159 2731 1159 2009 
Q 1159 1288 1364 580 
Q 1569 -128 1984 -844 
L 1484 -844 
Q 1016 -109 783 600 
Q 550 1309 550 2009 
Q 550 2706 781 3412 
Q 1013 4119 1484 4856 
L 1984 4856 
z
" transform="scale(0.015625)"/>
      <path id="DejaVuSans-3d" d="M 678 2906 
L 4684 2906 
L 4684 2381 
L 678 2381 
L 678 2906 
z
M 678 1631 
L 4684 1631 
L 4684 1100 
L 678 1100 
L 678 1631 
z
" transform="scale(0.015625)"/>
      <path id="DejaVuSans-29" d="M 513 4856 
L 1013 4856 
Q 1481 4119 1714 3412 
Q 1947 2706 1947 2009 
Q 1947 1309 1714 600 
Q 1481 -109 1013 -844 
L 513 -844 
Q 928 -128 1133 580 
Q 1338 1288 1338 2009 
Q 1338 2731 1133 3434 
Q 928 4138 513 4856 
z
" transform="scale(0.015625)"/>
     </defs>
     <use xlink:href="#DejaVuSans-32"/>
     <use xlink:href="#DejaVuSans-30" transform="translate(63.623047 0)"/>
     <use xlink:href="#DejaVuSans-32" transform="translate(127.246094 0)"/>
     <use xlink:href="#DejaVuSans-35" transform="translate(190.869141 0)"/>
     <use xlink:href="#DejaVuSans-2d" transform="translate(254.492188 0)"/>
     <use xlink:href="#DejaVuSans-30" transform="translate(290.576172 0)"/>
     <use xlink:href="#DejaVuSans-37" transform="translate(354.199219 0)"/>
     <use xlink:href="#DejaVuSans-2d" transform="translate(417.822266 0)"/>
     <use xlink:href="#DejaVuSans-32" transform="translate(453.90625 0)"/>
     <use xlink:href="#DejaVuSans-32" transform="translate(517.529297 0)"/>
     <use xlink:href="#DejaVuSans-20" transform="translate(581.152344 0)"/>
     <use xlink:href="#DejaVuSans-56" transform="translate(612.939453 0)"/>
     <use xlink:href="#DejaVuSans-65" transform="translate(673.597656 0)"/>
     <use xlink:href="#DejaVuSans-6c" transform="translate(735.121094 0)"/>
     <use xlink:href="#DejaVuSans-6f" transform="translate(762.904297 0)"/>
     <use xlink:href="#DejaVuSans-63" transform="translate(824.085938 0)"/>
     <use xlink:href="#DejaVuSans-69" transform="translate(879.066406 0)"/>
     <use xlink:href="#DejaVuSans-74" transform="translate(906.849609 0)"/>
     <use xlink:href="#DejaVuSans-79" transform="translate(946.058594 0)"/>
     <use xlink:href="#DejaVuSans-20" transform="translate(1005.238281 0)"/>
     <use xlink:href="#DejaVuSans-37" transform="translate(1037.025391 0)"/>
     <use xlink:href="#DejaVuSans-20" transform="translate(1100.648438 0)"/>
     <use xlink:href="#DejaVuSans-6d" transform="translate(1132.435547 0)"/>
     <use xlink:href="#DejaVuSans-6d" transform="translate(1229.847656 0)"/>
     <use xlink:href="#DejaVuSans-2f" transform="translate(1327.259766 0)"/>
     <use xlink:href="#DejaVuSans-73" transform="translate(1360.951172 0)"/>
     <use xlink:href="#DejaVuSans-20" transform="translate(1413.050781 0)"/>
     <use xlink:href="#DejaVuSans-2d" transform="translate(1444.837891 0)"/>
     <use xlink:href="#DejaVuSans-20" transform="translate(1480.921875 0)"/>
     <use xlink:href="#DejaVuSans-43" transform="translate(1512.708984 0)"/>
     <use xlink:href="#DejaVuSans-6f" transform="translate(1582.533203 0)"/>
     <use xlink:href="#DejaVuSans-6d" transform="translate(1643.714844 0)"/>
     <use xlink:href="#DejaVuSans-62" transform="translate(1741.126953 0)"/>
     <use xlink:href="#DejaVuSans-69" transform="translate(1804.603516 0)"/>
     <use xlink:href="#DejaVuSans-6e" transform="translate(1832.386719 0)"/>
     <use xlink:href="#DejaVuSans-65" transform="translate(1895.765625 0)"/>
     <use xlink:href="#DejaVuSans-64" transform="translate(1957.289062 0)"/>
     <use xlink:href="#DejaVuSans-20" transform="translate(2020.765625 0)"/>
     <use xlink:href="#DejaVuSans-54" transform="translate(2052.552734 0)"/>
     <use xlink:href="#DejaVuSans-72" transform="translate(2098.886719 0)"/>
     <use xlink:href="#DejaVuSans-69" transform="translate(2140 0)"/>
     <use xlink:href="#DejaVuSans-61" transform="translate(2167.783203 0)"/>
     <use xlink:href="#DejaVuSans-6c" transform="translate(2229.0625 0)"/>
     <use xlink:href="#DejaVuSans-73" transform="translate(2256.845703 0)"/>
     <use xlink:href="#DejaVuSans-20" transform="translate(2308.945312 0)"/>
     <use xlink:href="#DejaVuSans-28" transform="translate(2340.732422 0)"/>
     <use xlink:href="#DejaVuSans-6e" transform="translate(2379.746094 0)"/>
     <use xlink:href="#DejaVuSans-3d" transform="translate(2443.125 0)"/>
     <use xlink:href="#DejaVuSans-33" transform="translate(2526.914062 0)"/>
     <use xlink:href="#DejaVuSans-29" transform="translate(2590.537109 0)"/>
    </g>
   </g>
   <g id="legend_1">
    <g id="patch_7">
     <path d="M 337.015625 64.23625 
L 443 64.23625 
Q 445 64.23625 445 62.23625 
L 445 33.88 
Q 445 31.88 443 31.88 
L 337.015625 31.88 
Q 335.015625 31.88 335.015625 33.88 
L 335.015625 62.23625 
Q 335.015625 64.23625 337.015625 64.23625 
z
" style="fill: #ffffff; opacity: 0.8; stroke: #cccccc; stroke-linejoin: miter"/>
    </g>
    <g id="line2d_35">
     <path d="M 339.015625 39.978437 
L 349.015625 39.978437 
L 359.015625 39.978437 
" style="fill: none; stroke: #ff0000; stroke-width: 2; stroke-linecap: square"/>
    </g>
    <g id="text_20">
     <!-- Raw Force -->
     <g transform="translate(367.015625 43.478437) scale(0.1 -0.1)">
      <defs>
       <path id="DejaVuSans-52" d="M 2841 2188 
Q 3044 2119 3236 1894 
Q 3428 1669 3622 1275 
L 4263 0 
L 3584 0 
L 2988 1197 
Q 2756 1666 2539 1819 
Q 2322 1972 1947 1972 
L 1259 1972 
L 1259 0 
L 628 0 
L 628 4666 
L 2053 4666 
Q 2853 4666 3247 4331 
Q 3641 3997 3641 3322 
Q 3641 2881 3436 2590 
Q 3231 2300 2841 2188 
z
M 1259 4147 
L 1259 2491 
L 2053 2491 
Q 2509 2491 2742 2702 
Q 2975 2913 2975 3322 
Q 2975 3731 2742 3939 
Q 2509 4147 2053 4147 
L 1259 4147 
z
" transform="scale(0.015625)"/>
       <path id="DejaVuSans-77" d="M 269 3500 
L 844 3500 
L 1563 769 
L 2278 3500 
L 2956 3500 
L 3675 769 
L 4391 3500 
L 4966 3500 
L 4050 0 
L 3372 0 
L 2619 2869 
L 1863 0 
L 1184 0 
L 269 3500 
z
" transform="scale(0.015625)"/>
       <path id="DejaVuSans-46" d="M 628 4666 
L 3309 4666 
L 3309 4134 
L 1259 4134 
L 1259 2759 
L 3109 2759 
L 3109 2228 
L 1259 2228 
L 1259 0 
L 628 0 
L 628 4666 
z
" transform="scale(0.015625)"/>
      </defs>
      <use xlink:href="#DejaVuSans-52"/>
      <use xlink:href="#DejaVuSans-61" transform="translate(67.232422 0)"/>
      <use xlink:href="#DejaVuSans-77" transform="translate(128.511719 0)"/>
      <use xlink:href="#DejaVuSans-20" transform="translate(210.298828 0)"/>
      <use xlink:href="#DejaVuSans-46" transform="translate(242.085938 0)"/>
      <use xlink:href="#DejaVuSans-6f" transform="translate(295.980469 0)"/>
      <use xlink:href="#DejaVuSans-72" transform="translate(357.162109 0)"/>
      <use xlink:href="#DejaVuSans-63" transform="translate(396.025391 0)"/>
      <use xlink:href="#DejaVuSans-65" transform="translate(451.005859 0)"/>
     </g>
    </g>
    <g id="line2d_36">
     <path d="M 339.015625 54.656563 
L 349.015625 54.656563 
L 359.015625 54.656563 
" style="fill: none; stroke: #000000; stroke-width: 2; stroke-linecap: square"/>
    </g>
    <g id="text_21">
     <!-- Adjusted Force -->
     <g transform="translate(367.015625 58.156563) scale(0.1 -0.1)">
      <defs>
       <path id="DejaVuSans-41" d="M 2188 4044 
L 1331 1722 
L 3047 1722 
L 2188 4044 
z
M 1831 4666 
L 2547 4666 
L 4325 0 
L 3669 0 
L 3244 1197 
L 1141 1197 
L 716 0 
L 50 0 
L 1831 4666 
z
" transform="scale(0.015625)"/>
       <path id="DejaVuSans-6a" d="M 603 3500 
L 1178 3500 
L 1178 -63 
Q 1178 -731 923 -1031 
Q 669 -1331 103 -1331 
L -116 -1331 
L -116 -844 
L 38 -844 
Q 366 -844 484 -692 
Q 603 -541 603 -63 
L 603 3500 
z
M 603 4863 
L 1178 4863 
L 1178 4134 
L 603 4134 
L 603 4863 
z
" transform="scale(0.015625)"/>
       <path id="DejaVuSans-75" d="M 544 1381 
L 544 3500 
L 1119 3500 
L 1119 1403 
Q 1119 906 1312 657 
Q 1506 409 1894 409 
Q 2359 409 2629 706 
Q 2900 1003 2900 1516 
L 2900 3500 
L 3475 3500 
L 3475 0 
L 2900 0 
L 2900 538 
Q 2691 219 2414 64 
Q 2138 -91 1772 -91 
Q 1169 -91 856 284 
Q 544 659 544 1381 
z
M 1991 3584 
L 1991 3584 
z
" transform="scale(0.015625)"/>
      </defs>
      <use xlink:href="#DejaVuSans-41"/>
      <use xlink:href="#DejaVuSans-64" transform="translate(66.658203 0)"/>
      <use xlink:href="#DejaVuSans-6a" transform="translate(130.134766 0)"/>
      <use xlink:href="#DejaVuSans-75" transform="translate(157.917969 0)"/>
      <use xlink:href="#DejaVuSans-73" transform="translate(221.296875 0)"/>
      <use xlink:href="#DejaVuSans-74" transform="translate(273.396484 0)"/>
      <use xlink:href="#DejaVuSans-65" transform="translate(312.605469 0)"/>
      <use xlink:href="#DejaVuSans-64" transform="translate(374.128906 0)"/>
      <use xlink:href="#DejaVuSans-20" transform="translate(437.605469 0)"/>
      <use xlink:href="#DejaVuSans-46" transform="translate(469.392578 0)"/>
      <use xlink:href="#DejaVuSans-6f" transform="translate(523.287109 0)"/>
      <use xlink:href="#DejaVuSans-72" transform="translate(584.46875 0)"/>
      <use xlink:href="#DejaVuSans-63" transform="translate(623.332031 0)"/>
      <use xlink:href="#DejaVuSans-65" transform="translate(678.3125 0)"/>
     </g>
    </g>
   </g>
  </g>
 </g>
 <defs>
  <clipPath id="padaaa11719">
   <rect x="59.33" y="26.88" width="390.67" height="276.76"/>
  </clipPath>
 </defs>
</svg>
