<?xml version="1.0" encoding="utf-8" standalone="no"?>
<!DOCTYPE svg PUBLIC "-//W3C//DTD SVG 1.1//EN"
  "http://www.w3.org/Graphics/SVG/1.1/DTD/svg11.dtd">
<svg xmlns:xlink="http://www.w3.org/1999/xlink" width="460.8pt" height="345.6pt" viewBox="0 0 460.8 345.6" xmlns="http://www.w3.org/2000/svg" version="1.1">
 <metadata>
  <rdf:RDF xmlns:dc="http://purl.org/dc/elements/1.1/" xmlns:cc="http://creativecommons.org/ns#" xmlns:rdf="http://www.w3.org/1999/02/22-rdf-syntax-ns#">
   <cc:Work>
    <dc:type rdf:resource="http://purl.org/dc/dcmitype/StillImage"/>
    <dc:date>2025-07-28T21:16:17.582374</dc:date>
    <dc:format>image/svg+xml</dc:format>
    <dc:creator>
     <cc:Agent>
      <dc:title>Matplotlib v3.10.3, https://matplotlib.org/</dc:title>
     </cc:Agent>
    </dc:creator>
   </cc:Work>
  </rdf:RDF>
 </metadata>
 <defs>
  <style type="text/css">*{stroke-linejoin: round; stroke-linecap: butt}</style>
 </defs>
 <g id="figure_1">
  <g id="patch_1">
   <path d="M 0 345.6 
L 460.8 345.6 
L 460.8 0 
L 0 0 
z
" style="fill: #ffffff"/>
  </g>
  <g id="axes_1">
   <g id="patch_2">
    <path d="M 57.17 303.64 
L 450 303.64 
L 450 26.88 
L 57.17 26.88 
z
" style="fill: #ffffff"/>
   </g>
   <g id="matplotlib.axis_1">
    <g id="xtick_1">
     <g id="line2d_1">
      <path d="M 75.184201 303.64 
L 75.184201 26.88 
" clip-path="url(#p4b70f2a575)" style="fill: none; stroke: #b0b0b0; stroke-opacity: 0.3; stroke-width: 0.8; stroke-linecap: square"/>
     </g>
     <g id="line2d_2">
      <defs>
       <path id="md93228796e" d="M 0 0 
L 0 3.5 
" style="stroke: #000000; stroke-width: 0.8"/>
      </defs>
      <g>
       <use xlink:href="#md93228796e" x="75.184201" y="303.64" style="stroke: #000000; stroke-width: 0.8"/>
      </g>
     </g>
     <g id="text_1">
      <!-- 0.00 -->
      <g transform="translate(64.051389 318.238437) scale(0.1 -0.1)">
       <defs>
        <path id="DejaVuSans-30" d="M 2034 4250 
Q 1547 4250 1301 3770 
Q 1056 3291 1056 2328 
Q 1056 1369 1301 889 
Q 1547 409 2034 409 
Q 2525 409 2770 889 
Q 3016 1369 3016 2328 
Q 3016 3291 2770 3770 
Q 2525 4250 2034 4250 
z
M 2034 4750 
Q 2819 4750 3233 4129 
Q 3647 3509 3647 2328 
Q 3647 1150 3233 529 
Q 2819 -91 2034 -91 
Q 1250 -91 836 529 
Q 422 1150 422 2328 
Q 422 3509 836 4129 
Q 1250 4750 2034 4750 
z
" transform="scale(0.015625)"/>
        <path id="DejaVuSans-2e" d="M 684 794 
L 1344 794 
L 1344 0 
L 684 0 
L 684 794 
z
" transform="scale(0.015625)"/>
       </defs>
       <use xlink:href="#DejaVuSans-30"/>
       <use xlink:href="#DejaVuSans-2e" transform="translate(63.623047 0)"/>
       <use xlink:href="#DejaVuSans-30" transform="translate(95.410156 0)"/>
       <use xlink:href="#DejaVuSans-30" transform="translate(159.033203 0)"/>
      </g>
     </g>
    </g>
    <g id="xtick_2">
     <g id="line2d_3">
      <path d="M 142.975393 303.64 
L 142.975393 26.88 
" clip-path="url(#p4b70f2a575)" style="fill: none; stroke: #b0b0b0; stroke-opacity: 0.3; stroke-width: 0.8; stroke-linecap: square"/>
     </g>
     <g id="line2d_4">
      <g>
       <use xlink:href="#md93228796e" x="142.975393" y="303.64" style="stroke: #000000; stroke-width: 0.8"/>
      </g>
     </g>
     <g id="text_2">
      <!-- 0.05 -->
      <g transform="translate(131.84258 318.238437) scale(0.1 -0.1)">
       <defs>
        <path id="DejaVuSans-35" d="M 691 4666 
L 3169 4666 
L 3169 4134 
L 1269 4134 
L 1269 2991 
Q 1406 3038 1543 3061 
Q 1681 3084 1819 3084 
Q 2600 3084 3056 2656 
Q 3513 2228 3513 1497 
Q 3513 744 3044 326 
Q 2575 -91 1722 -91 
Q 1428 -91 1123 -41 
Q 819 9 494 109 
L 494 744 
Q 775 591 1075 516 
Q 1375 441 1709 441 
Q 2250 441 2565 725 
Q 2881 1009 2881 1497 
Q 2881 1984 2565 2268 
Q 2250 2553 1709 2553 
Q 1456 2553 1204 2497 
Q 953 2441 691 2322 
L 691 4666 
z
" transform="scale(0.015625)"/>
       </defs>
       <use xlink:href="#DejaVuSans-30"/>
       <use xlink:href="#DejaVuSans-2e" transform="translate(63.623047 0)"/>
       <use xlink:href="#DejaVuSans-30" transform="translate(95.410156 0)"/>
       <use xlink:href="#DejaVuSans-35" transform="translate(159.033203 0)"/>
      </g>
     </g>
    </g>
    <g id="xtick_3">
     <g id="line2d_5">
      <path d="M 210.766584 303.64 
L 210.766584 26.88 
" clip-path="url(#p4b70f2a575)" style="fill: none; stroke: #b0b0b0; stroke-opacity: 0.3; stroke-width: 0.8; stroke-linecap: square"/>
     </g>
     <g id="line2d_6">
      <g>
       <use xlink:href="#md93228796e" x="210.766584" y="303.64" style="stroke: #000000; stroke-width: 0.8"/>
      </g>
     </g>
     <g id="text_3">
      <!-- 0.10 -->
      <g transform="translate(199.633772 318.238437) scale(0.1 -0.1)">
       <defs>
        <path id="DejaVuSans-31" d="M 794 531 
L 1825 531 
L 1825 4091 
L 703 3866 
L 703 4441 
L 1819 4666 
L 2450 4666 
L 2450 531 
L 3481 531 
L 3481 0 
L 794 0 
L 794 531 
z
" transform="scale(0.015625)"/>
       </defs>
       <use xlink:href="#DejaVuSans-30"/>
       <use xlink:href="#DejaVuSans-2e" transform="translate(63.623047 0)"/>
       <use xlink:href="#DejaVuSans-31" transform="translate(95.410156 0)"/>
       <use xlink:href="#DejaVuSans-30" transform="translate(159.033203 0)"/>
      </g>
     </g>
    </g>
    <g id="xtick_4">
     <g id="line2d_7">
      <path d="M 278.557776 303.64 
L 278.557776 26.88 
" clip-path="url(#p4b70f2a575)" style="fill: none; stroke: #b0b0b0; stroke-opacity: 0.3; stroke-width: 0.8; stroke-linecap: square"/>
     </g>
     <g id="line2d_8">
      <g>
       <use xlink:href="#md93228796e" x="278.557776" y="303.64" style="stroke: #000000; stroke-width: 0.8"/>
      </g>
     </g>
     <g id="text_4">
      <!-- 0.15 -->
      <g transform="translate(267.424963 318.238437) scale(0.1 -0.1)">
       <use xlink:href="#DejaVuSans-30"/>
       <use xlink:href="#DejaVuSans-2e" transform="translate(63.623047 0)"/>
       <use xlink:href="#DejaVuSans-31" transform="translate(95.410156 0)"/>
       <use xlink:href="#DejaVuSans-35" transform="translate(159.033203 0)"/>
      </g>
     </g>
    </g>
    <g id="xtick_5">
     <g id="line2d_9">
      <path d="M 346.348967 303.64 
L 346.348967 26.88 
" clip-path="url(#p4b70f2a575)" style="fill: none; stroke: #b0b0b0; stroke-opacity: 0.3; stroke-width: 0.8; stroke-linecap: square"/>
     </g>
     <g id="line2d_10">
      <g>
       <use xlink:href="#md93228796e" x="346.348967" y="303.64" style="stroke: #000000; stroke-width: 0.8"/>
      </g>
     </g>
     <g id="text_5">
      <!-- 0.20 -->
      <g transform="translate(335.216155 318.238437) scale(0.1 -0.1)">
       <defs>
        <path id="DejaVuSans-32" d="M 1228 531 
L 3431 531 
L 3431 0 
L 469 0 
L 469 531 
Q 828 903 1448 1529 
Q 2069 2156 2228 2338 
Q 2531 2678 2651 2914 
Q 2772 3150 2772 3378 
Q 2772 3750 2511 3984 
Q 2250 4219 1831 4219 
Q 1534 4219 1204 4116 
Q 875 4013 500 3803 
L 500 4441 
Q 881 4594 1212 4672 
Q 1544 4750 1819 4750 
Q 2544 4750 2975 4387 
Q 3406 4025 3406 3419 
Q 3406 3131 3298 2873 
Q 3191 2616 2906 2266 
Q 2828 2175 2409 1742 
Q 1991 1309 1228 531 
z
" transform="scale(0.015625)"/>
       </defs>
       <use xlink:href="#DejaVuSans-30"/>
       <use xlink:href="#DejaVuSans-2e" transform="translate(63.623047 0)"/>
       <use xlink:href="#DejaVuSans-32" transform="translate(95.410156 0)"/>
       <use xlink:href="#DejaVuSans-30" transform="translate(159.033203 0)"/>
      </g>
     </g>
    </g>
    <g id="xtick_6">
     <g id="line2d_11">
      <path d="M 414.140159 303.64 
L 414.140159 26.88 
" clip-path="url(#p4b70f2a575)" style="fill: none; stroke: #b0b0b0; stroke-opacity: 0.3; stroke-width: 0.8; stroke-linecap: square"/>
     </g>
     <g id="line2d_12">
      <g>
       <use xlink:href="#md93228796e" x="414.140159" y="303.64" style="stroke: #000000; stroke-width: 0.8"/>
      </g>
     </g>
     <g id="text_6">
      <!-- 0.25 -->
      <g transform="translate(403.007346 318.238437) scale(0.1 -0.1)">
       <use xlink:href="#DejaVuSans-30"/>
       <use xlink:href="#DejaVuSans-2e" transform="translate(63.623047 0)"/>
       <use xlink:href="#DejaVuSans-32" transform="translate(95.410156 0)"/>
       <use xlink:href="#DejaVuSans-35" transform="translate(159.033203 0)"/>
      </g>
     </g>
    </g>
    <g id="text_7">
     <!-- Strain [-] -->
     <g transform="translate(231.47875 331.916562) scale(0.1 -0.1)">
      <defs>
       <path id="DejaVuSans-53" d="M 3425 4513 
L 3425 3897 
Q 3066 4069 2747 4153 
Q 2428 4238 2131 4238 
Q 1616 4238 1336 4038 
Q 1056 3838 1056 3469 
Q 1056 3159 1242 3001 
Q 1428 2844 1947 2747 
L 2328 2669 
Q 3034 2534 3370 2195 
Q 3706 1856 3706 1288 
Q 3706 609 3251 259 
Q 2797 -91 1919 -91 
Q 1588 -91 1214 -16 
Q 841 59 441 206 
L 441 856 
Q 825 641 1194 531 
Q 1563 422 1919 422 
Q 2459 422 2753 634 
Q 3047 847 3047 1241 
Q 3047 1584 2836 1778 
Q 2625 1972 2144 2069 
L 1759 2144 
Q 1053 2284 737 2584 
Q 422 2884 422 3419 
Q 422 4038 858 4394 
Q 1294 4750 2059 4750 
Q 2388 4750 2728 4690 
Q 3069 4631 3425 4513 
z
" transform="scale(0.015625)"/>
       <path id="DejaVuSans-74" d="M 1172 4494 
L 1172 3500 
L 2356 3500 
L 2356 3053 
L 1172 3053 
L 1172 1153 
Q 1172 725 1289 603 
Q 1406 481 1766 481 
L 2356 481 
L 2356 0 
L 1766 0 
Q 1100 0 847 248 
Q 594 497 594 1153 
L 594 3053 
L 172 3053 
L 172 3500 
L 594 3500 
L 594 4494 
L 1172 4494 
z
" transform="scale(0.015625)"/>
       <path id="DejaVuSans-72" d="M 2631 2963 
Q 2534 3019 2420 3045 
Q 2306 3072 2169 3072 
Q 1681 3072 1420 2755 
Q 1159 2438 1159 1844 
L 1159 0 
L 581 0 
L 581 3500 
L 1159 3500 
L 1159 2956 
Q 1341 3275 1631 3429 
Q 1922 3584 2338 3584 
Q 2397 3584 2469 3576 
Q 2541 3569 2628 3553 
L 2631 2963 
z
" transform="scale(0.015625)"/>
       <path id="DejaVuSans-61" d="M 2194 1759 
Q 1497 1759 1228 1600 
Q 959 1441 959 1056 
Q 959 750 1161 570 
Q 1363 391 1709 391 
Q 2188 391 2477 730 
Q 2766 1069 2766 1631 
L 2766 1759 
L 2194 1759 
z
M 3341 1997 
L 3341 0 
L 2766 0 
L 2766 531 
Q 2569 213 2275 61 
Q 1981 -91 1556 -91 
Q 1019 -91 701 211 
Q 384 513 384 1019 
Q 384 1609 779 1909 
Q 1175 2209 1959 2209 
L 2766 2209 
L 2766 2266 
Q 2766 2663 2505 2880 
Q 2244 3097 1772 3097 
Q 1472 3097 1187 3025 
Q 903 2953 641 2809 
L 641 3341 
Q 956 3463 1253 3523 
Q 1550 3584 1831 3584 
Q 2591 3584 2966 3190 
Q 3341 2797 3341 1997 
z
" transform="scale(0.015625)"/>
       <path id="DejaVuSans-69" d="M 603 3500 
L 1178 3500 
L 1178 0 
L 603 0 
L 603 3500 
z
M 603 4863 
L 1178 4863 
L 1178 4134 
L 603 4134 
L 603 4863 
z
" transform="scale(0.015625)"/>
       <path id="DejaVuSans-6e" d="M 3513 2113 
L 3513 0 
L 2938 0 
L 2938 2094 
Q 2938 2591 2744 2837 
Q 2550 3084 2163 3084 
Q 1697 3084 1428 2787 
Q 1159 2491 1159 1978 
L 1159 0 
L 581 0 
L 581 3500 
L 1159 3500 
L 1159 2956 
Q 1366 3272 1645 3428 
Q 1925 3584 2291 3584 
Q 2894 3584 3203 3211 
Q 3513 2838 3513 2113 
z
" transform="scale(0.015625)"/>
       <path id="DejaVuSans-20" transform="scale(0.015625)"/>
       <path id="DejaVuSans-5b" d="M 550 4863 
L 1875 4863 
L 1875 4416 
L 1125 4416 
L 1125 -397 
L 1875 -397 
L 1875 -844 
L 550 -844 
L 550 4863 
z
" transform="scale(0.015625)"/>
       <path id="DejaVuSans-2d" d="M 313 2009 
L 1997 2009 
L 1997 1497 
L 313 1497 
L 313 2009 
z
" transform="scale(0.015625)"/>
       <path id="DejaVuSans-5d" d="M 1947 4863 
L 1947 -844 
L 622 -844 
L 622 -397 
L 1369 -397 
L 1369 4416 
L 622 4416 
L 622 4863 
L 1947 4863 
z
" transform="scale(0.015625)"/>
      </defs>
      <use xlink:href="#DejaVuSans-53"/>
      <use xlink:href="#DejaVuSans-74" transform="translate(63.476562 0)"/>
      <use xlink:href="#DejaVuSans-72" transform="translate(102.685547 0)"/>
      <use xlink:href="#DejaVuSans-61" transform="translate(143.798828 0)"/>
      <use xlink:href="#DejaVuSans-69" transform="translate(205.078125 0)"/>
      <use xlink:href="#DejaVuSans-6e" transform="translate(232.861328 0)"/>
      <use xlink:href="#DejaVuSans-20" transform="translate(296.240234 0)"/>
      <use xlink:href="#DejaVuSans-5b" transform="translate(328.027344 0)"/>
      <use xlink:href="#DejaVuSans-2d" transform="translate(367.041016 0)"/>
      <use xlink:href="#DejaVuSans-5d" transform="translate(403.125 0)"/>
     </g>
    </g>
   </g>
   <g id="matplotlib.axis_2">
    <g id="ytick_1">
     <g id="line2d_13">
      <path d="M 57.17 284.181688 
L 450 284.181688 
" clip-path="url(#p4b70f2a575)" style="fill: none; stroke: #b0b0b0; stroke-opacity: 0.3; stroke-width: 0.8; stroke-linecap: square"/>
     </g>
     <g id="line2d_14">
      <defs>
       <path id="m157d1b31d1" d="M 0 0 
L -3.5 0 
" style="stroke: #000000; stroke-width: 0.8"/>
      </defs>
      <g>
       <use xlink:href="#m157d1b31d1" x="57.17" y="284.181688" style="stroke: #000000; stroke-width: 0.8"/>
      </g>
     </g>
     <g id="text_8">
      <!-- 0 -->
      <g transform="translate(43.8075 287.980907) scale(0.1 -0.1)">
       <use xlink:href="#DejaVuSans-30"/>
      </g>
     </g>
    </g>
    <g id="ytick_2">
     <g id="line2d_15">
      <path d="M 57.17 244.3329 
L 450 244.3329 
" clip-path="url(#p4b70f2a575)" style="fill: none; stroke: #b0b0b0; stroke-opacity: 0.3; stroke-width: 0.8; stroke-linecap: square"/>
     </g>
     <g id="line2d_16">
      <g>
       <use xlink:href="#m157d1b31d1" x="57.17" y="244.3329" style="stroke: #000000; stroke-width: 0.8"/>
      </g>
     </g>
     <g id="text_9">
      <!-- 1000 -->
      <g transform="translate(24.72 248.132119) scale(0.1 -0.1)">
       <use xlink:href="#DejaVuSans-31"/>
       <use xlink:href="#DejaVuSans-30" transform="translate(63.623047 0)"/>
       <use xlink:href="#DejaVuSans-30" transform="translate(127.246094 0)"/>
       <use xlink:href="#DejaVuSans-30" transform="translate(190.869141 0)"/>
      </g>
     </g>
    </g>
    <g id="ytick_3">
     <g id="line2d_17">
      <path d="M 57.17 204.484112 
L 450 204.484112 
" clip-path="url(#p4b70f2a575)" style="fill: none; stroke: #b0b0b0; stroke-opacity: 0.3; stroke-width: 0.8; stroke-linecap: square"/>
     </g>
     <g id="line2d_18">
      <g>
       <use xlink:href="#m157d1b31d1" x="57.17" y="204.484112" style="stroke: #000000; stroke-width: 0.8"/>
      </g>
     </g>
     <g id="text_10">
      <!-- 2000 -->
      <g transform="translate(24.72 208.283331) scale(0.1 -0.1)">
       <use xlink:href="#DejaVuSans-32"/>
       <use xlink:href="#DejaVuSans-30" transform="translate(63.623047 0)"/>
       <use xlink:href="#DejaVuSans-30" transform="translate(127.246094 0)"/>
       <use xlink:href="#DejaVuSans-30" transform="translate(190.869141 0)"/>
      </g>
     </g>
    </g>
    <g id="ytick_4">
     <g id="line2d_19">
      <path d="M 57.17 164.635324 
L 450 164.635324 
" clip-path="url(#p4b70f2a575)" style="fill: none; stroke: #b0b0b0; stroke-opacity: 0.3; stroke-width: 0.8; stroke-linecap: square"/>
     </g>
     <g id="line2d_20">
      <g>
       <use xlink:href="#m157d1b31d1" x="57.17" y="164.635324" style="stroke: #000000; stroke-width: 0.8"/>
      </g>
     </g>
     <g id="text_11">
      <!-- 3000 -->
      <g transform="translate(24.72 168.434543) scale(0.1 -0.1)">
       <defs>
        <path id="DejaVuSans-33" d="M 2597 2516 
Q 3050 2419 3304 2112 
Q 3559 1806 3559 1356 
Q 3559 666 3084 287 
Q 2609 -91 1734 -91 
Q 1441 -91 1130 -33 
Q 819 25 488 141 
L 488 750 
Q 750 597 1062 519 
Q 1375 441 1716 441 
Q 2309 441 2620 675 
Q 2931 909 2931 1356 
Q 2931 1769 2642 2001 
Q 2353 2234 1838 2234 
L 1294 2234 
L 1294 2753 
L 1863 2753 
Q 2328 2753 2575 2939 
Q 2822 3125 2822 3475 
Q 2822 3834 2567 4026 
Q 2313 4219 1838 4219 
Q 1578 4219 1281 4162 
Q 984 4106 628 3988 
L 628 4550 
Q 988 4650 1302 4700 
Q 1616 4750 1894 4750 
Q 2613 4750 3031 4423 
Q 3450 4097 3450 3541 
Q 3450 3153 3228 2886 
Q 3006 2619 2597 2516 
z
" transform="scale(0.015625)"/>
       </defs>
       <use xlink:href="#DejaVuSans-33"/>
       <use xlink:href="#DejaVuSans-30" transform="translate(63.623047 0)"/>
       <use xlink:href="#DejaVuSans-30" transform="translate(127.246094 0)"/>
       <use xlink:href="#DejaVuSans-30" transform="translate(190.869141 0)"/>
      </g>
     </g>
    </g>
    <g id="ytick_5">
     <g id="line2d_21">
      <path d="M 57.17 124.786536 
L 450 124.786536 
" clip-path="url(#p4b70f2a575)" style="fill: none; stroke: #b0b0b0; stroke-opacity: 0.3; stroke-width: 0.8; stroke-linecap: square"/>
     </g>
     <g id="line2d_22">
      <g>
       <use xlink:href="#m157d1b31d1" x="57.17" y="124.786536" style="stroke: #000000; stroke-width: 0.8"/>
      </g>
     </g>
     <g id="text_12">
      <!-- 4000 -->
      <g transform="translate(24.72 128.585754) scale(0.1 -0.1)">
       <defs>
        <path id="DejaVuSans-34" d="M 2419 4116 
L 825 1625 
L 2419 1625 
L 2419 4116 
z
M 2253 4666 
L 3047 4666 
L 3047 1625 
L 3713 1625 
L 3713 1100 
L 3047 1100 
L 3047 0 
L 2419 0 
L 2419 1100 
L 313 1100 
L 313 1709 
L 2253 4666 
z
" transform="scale(0.015625)"/>
       </defs>
       <use xlink:href="#DejaVuSans-34"/>
       <use xlink:href="#DejaVuSans-30" transform="translate(63.623047 0)"/>
       <use xlink:href="#DejaVuSans-30" transform="translate(127.246094 0)"/>
       <use xlink:href="#DejaVuSans-30" transform="translate(190.869141 0)"/>
      </g>
     </g>
    </g>
    <g id="ytick_6">
     <g id="line2d_23">
      <path d="M 57.17 84.937748 
L 450 84.937748 
" clip-path="url(#p4b70f2a575)" style="fill: none; stroke: #b0b0b0; stroke-opacity: 0.3; stroke-width: 0.8; stroke-linecap: square"/>
     </g>
     <g id="line2d_24">
      <g>
       <use xlink:href="#m157d1b31d1" x="57.17" y="84.937748" style="stroke: #000000; stroke-width: 0.8"/>
      </g>
     </g>
     <g id="text_13">
      <!-- 5000 -->
      <g transform="translate(24.72 88.736966) scale(0.1 -0.1)">
       <use xlink:href="#DejaVuSans-35"/>
       <use xlink:href="#DejaVuSans-30" transform="translate(63.623047 0)"/>
       <use xlink:href="#DejaVuSans-30" transform="translate(127.246094 0)"/>
       <use xlink:href="#DejaVuSans-30" transform="translate(190.869141 0)"/>
      </g>
     </g>
    </g>
    <g id="ytick_7">
     <g id="line2d_25">
      <path d="M 57.17 45.08896 
L 450 45.08896 
" clip-path="url(#p4b70f2a575)" style="fill: none; stroke: #b0b0b0; stroke-opacity: 0.3; stroke-width: 0.8; stroke-linecap: square"/>
     </g>
     <g id="line2d_26">
      <g>
       <use xlink:href="#m157d1b31d1" x="57.17" y="45.08896" style="stroke: #000000; stroke-width: 0.8"/>
      </g>
     </g>
     <g id="text_14">
      <!-- 6000 -->
      <g transform="translate(24.72 48.888178) scale(0.1 -0.1)">
       <defs>
        <path id="DejaVuSans-36" d="M 2113 2584 
Q 1688 2584 1439 2293 
Q 1191 2003 1191 1497 
Q 1191 994 1439 701 
Q 1688 409 2113 409 
Q 2538 409 2786 701 
Q 3034 994 3034 1497 
Q 3034 2003 2786 2293 
Q 2538 2584 2113 2584 
z
M 3366 4563 
L 3366 3988 
Q 3128 4100 2886 4159 
Q 2644 4219 2406 4219 
Q 1781 4219 1451 3797 
Q 1122 3375 1075 2522 
Q 1259 2794 1537 2939 
Q 1816 3084 2150 3084 
Q 2853 3084 3261 2657 
Q 3669 2231 3669 1497 
Q 3669 778 3244 343 
Q 2819 -91 2113 -91 
Q 1303 -91 875 529 
Q 447 1150 447 2328 
Q 447 3434 972 4092 
Q 1497 4750 2381 4750 
Q 2619 4750 2861 4703 
Q 3103 4656 3366 4563 
z
" transform="scale(0.015625)"/>
       </defs>
       <use xlink:href="#DejaVuSans-36"/>
       <use xlink:href="#DejaVuSans-30" transform="translate(63.623047 0)"/>
       <use xlink:href="#DejaVuSans-30" transform="translate(127.246094 0)"/>
       <use xlink:href="#DejaVuSans-30" transform="translate(190.869141 0)"/>
      </g>
     </g>
    </g>
    <g id="text_15">
     <!-- Stress [Pa] -->
     <g transform="translate(18.640312 191.967812) rotate(-90) scale(0.1 -0.1)">
      <defs>
       <path id="DejaVuSans-65" d="M 3597 1894 
L 3597 1613 
L 953 1613 
Q 991 1019 1311 708 
Q 1631 397 2203 397 
Q 2534 397 2845 478 
Q 3156 559 3463 722 
L 3463 178 
Q 3153 47 2828 -22 
Q 2503 -91 2169 -91 
Q 1331 -91 842 396 
Q 353 884 353 1716 
Q 353 2575 817 3079 
Q 1281 3584 2069 3584 
Q 2775 3584 3186 3129 
Q 3597 2675 3597 1894 
z
M 3022 2063 
Q 3016 2534 2758 2815 
Q 2500 3097 2075 3097 
Q 1594 3097 1305 2825 
Q 1016 2553 972 2059 
L 3022 2063 
z
" transform="scale(0.015625)"/>
       <path id="DejaVuSans-73" d="M 2834 3397 
L 2834 2853 
Q 2591 2978 2328 3040 
Q 2066 3103 1784 3103 
Q 1356 3103 1142 2972 
Q 928 2841 928 2578 
Q 928 2378 1081 2264 
Q 1234 2150 1697 2047 
L 1894 2003 
Q 2506 1872 2764 1633 
Q 3022 1394 3022 966 
Q 3022 478 2636 193 
Q 2250 -91 1575 -91 
Q 1294 -91 989 -36 
Q 684 19 347 128 
L 347 722 
Q 666 556 975 473 
Q 1284 391 1588 391 
Q 1994 391 2212 530 
Q 2431 669 2431 922 
Q 2431 1156 2273 1281 
Q 2116 1406 1581 1522 
L 1381 1569 
Q 847 1681 609 1914 
Q 372 2147 372 2553 
Q 372 3047 722 3315 
Q 1072 3584 1716 3584 
Q 2034 3584 2315 3537 
Q 2597 3491 2834 3397 
z
" transform="scale(0.015625)"/>
       <path id="DejaVuSans-50" d="M 1259 4147 
L 1259 2394 
L 2053 2394 
Q 2494 2394 2734 2622 
Q 2975 2850 2975 3272 
Q 2975 3691 2734 3919 
Q 2494 4147 2053 4147 
L 1259 4147 
z
M 628 4666 
L 2053 4666 
Q 2838 4666 3239 4311 
Q 3641 3956 3641 3272 
Q 3641 2581 3239 2228 
Q 2838 1875 2053 1875 
L 1259 1875 
L 1259 0 
L 628 0 
L 628 4666 
z
" transform="scale(0.015625)"/>
      </defs>
      <use xlink:href="#DejaVuSans-53"/>
      <use xlink:href="#DejaVuSans-74" transform="translate(63.476562 0)"/>
      <use xlink:href="#DejaVuSans-72" transform="translate(102.685547 0)"/>
      <use xlink:href="#DejaVuSans-65" transform="translate(141.548828 0)"/>
      <use xlink:href="#DejaVuSans-73" transform="translate(203.072266 0)"/>
      <use xlink:href="#DejaVuSans-73" transform="translate(255.171875 0)"/>
      <use xlink:href="#DejaVuSans-20" transform="translate(307.271484 0)"/>
      <use xlink:href="#DejaVuSans-5b" transform="translate(339.058594 0)"/>
      <use xlink:href="#DejaVuSans-50" transform="translate(378.072266 0)"/>
      <use xlink:href="#DejaVuSans-61" transform="translate(433.875 0)"/>
      <use xlink:href="#DejaVuSans-5d" transform="translate(495.154297 0)"/>
     </g>
    </g>
   </g>
   <g id="line2d_27">
    <path d="M 75.184201 284.385988 
L 75.184942 284.411496 
L 75.183938 284.366137 
L 75.184082 284.388004 
L 75.395807 284.331472 
L 76.142415 282.628021 
L 76.877936 281.740494 
L 78.350067 281.555993 
L 79.180862 281.185578 
L 79.989337 280.618105 
L 80.742824 280.268536 
L 81.571442 280.122718 
L 94.434076 280.101209 
L 95.384646 279.90086 
L 99.099816 278.675504 
L 100.905136 278.453719 
L 101.787108 278.436296 
L 102.647303 278.306058 
L 103.48681 278.018591 
L 105.107025 277.072802 
L 107.442617 275.536719 
L 108.971368 274.75595 
L 117.13233 271.31249 
L 119.999284 269.848383 
L 122.672421 268.565095 
L 125.34338 267.305946 
L 131.564004 264.145125 
L 135.125646 262.326842 
L 143.087348 258.214527 
L 148.321475 255.29509 
L 170.28887 243.092389 
L 188.03066 232.78527 
L 205.951023 221.829927 
L 211.709973 218.36584 
L 216.687125 215.221258 
L 225.92715 209.177428 
L 232.402566 205.014204 
L 260.055652 186.701169 
L 288.323396 166.55039 
L 305.17777 153.849175 
L 312.252056 148.357019 
L 320.194159 142.012556 
L 323.744912 139.155441 
L 329.093364 134.895663 
L 352.087736 115.503502 
L 365.512202 103.476409 
L 372.780304 96.835263 
L 380.78556 89.364631 
L 403.635166 66.723641 
L 417.735828 52.208093 
L 423.398958 46.866912 
L 431.000522 39.802958 
L 431.719234 39.524708 
L 431.838701 39.755943 
L 432.144091 42.601153 
L 431.978653 63.288054 
L 431.979674 65.0959 
L 431.980457 79.575858 
L 431.978381 79.563844 
L 431.978313 80.013642 
L 431.979436 79.977064 
L 431.257321 80.115133 
L 430.535853 80.847186 
L 429.788627 81.876143 
L 428.30343 82.921996 
L 424.567571 86.61869 
L 423.820889 87.535074 
L 422.36863 89.85807 
L 421.629843 90.873202 
L 418.610178 93.939005 
L 417.138591 95.6197 
L 415.689598 97.956741 
L 414.234889 99.62361 
L 412.031048 102.012439 
L 405.484551 109.4525 
L 397.463778 118.168456 
L 390.885296 124.857358 
L 386.46482 129.256043 
L 379.151803 136.285379 
L 371.099215 143.374376 
L 368.166387 145.911437 
L 362.311209 150.7185 
L 359.332921 153.067062 
L 357.114516 154.928356 
L 352.031405 158.88853 
L 349.08306 161.218549 
L 346.912429 162.914165 
L 342.526524 166.193813 
L 322.738079 180.52547 
L 319.839107 182.455435 
L 312.512615 187.462299 
L 309.603605 189.398203 
L 303.77388 193.117938 
L 282.597503 206.900281 
L 279.705234 208.662168 
L 275.303133 211.419987 
L 273.846518 212.281071 
L 271.634511 213.677151 
L 262.133935 219.339058 
L 258.460957 221.477177 
L 231.306362 237.04523 
L 228.395583 238.623556 
L 220.394138 242.875434 
L 216.744843 244.759221 
L 215.301294 245.484033 
L 207.273436 249.832788 
L 205.828799 250.463295 
L 202.18767 252.480172 
L 200.692946 253.192476 
L 199.207204 253.982133 
L 197.74569 254.698715 
L 186.789596 260.168439 
L 184.578133 261.310627 
L 181.646393 262.798982 
L 175.041497 265.923675 
L 172.165833 267.252332 
L 169.231099 268.682974 
L 158.272887 273.715304 
L 155.360202 274.998208 
L 151.693486 276.587506 
L 149.507067 277.543224 
L 145.143075 279.621051 
L 143.677477 280.232577 
L 140.807989 281.44196 
L 129.818456 285.913114 
L 126.916251 287.052285 
L 125.441126 287.576638 
L 122.534693 288.511885 
L 120.349907 289.225341 
L 114.497588 290.879757 
L 113.023552 291.06 
L 109.360646 290.956636 
L 106.438978 290.764791 
L 102.759653 290.890894 
L 92.491484 290.229246 
L 91.020715 290.175716 
L 81.503652 289.364796 
L 79.306345 289.043676 
L 77.862524 288.697865 
L 76.413123 288.146686 
L 75.686517 287.3979 
L 75.198166 285.453218 
L 75.026383 284.668442 
L 75.026383 284.668442 
" clip-path="url(#p4b70f2a575)" style="fill: none; stroke: #ff0000; stroke-width: 2; stroke-linecap: square"/>
   </g>
   <g id="line2d_28">
    <path d="M 75.184201 284.385988 
L 75.184942 284.411496 
L 75.183938 284.366137 
L 75.184082 284.388004 
L 75.395807 284.331472 
L 76.142415 282.628021 
L 76.877936 281.740494 
L 78.350067 281.555993 
L 79.180862 281.185578 
L 79.989337 280.618105 
L 80.742824 280.268536 
L 81.571442 283.276513 
L 83.227589 283.082239 
L 84.851071 282.655116 
L 87.498076 281.921334 
L 89.370905 281.281007 
L 90.81037 280.715749 
L 92.262902 280.237231 
L 92.990256 280.10963 
L 94.434076 280.101209 
L 95.384646 279.90086 
L 99.099816 278.675504 
L 100.905136 278.453719 
L 101.787108 278.436296 
L 102.647303 278.306058 
L 103.48681 278.018591 
L 105.107025 277.072802 
L 107.442617 275.536719 
L 108.971368 274.75595 
L 117.13233 271.31249 
L 119.999284 269.848383 
L 122.672421 268.565095 
L 125.34338 267.305946 
L 131.564004 264.145125 
L 135.125646 262.326842 
L 143.087348 258.214527 
L 148.321475 255.29509 
L 170.28887 243.092389 
L 188.03066 232.78527 
L 205.951023 221.829927 
L 211.709973 218.36584 
L 216.687125 215.221258 
L 225.92715 209.177428 
L 232.402566 205.014204 
L 260.055652 186.701169 
L 288.323396 166.55039 
L 305.17777 153.849175 
L 312.252056 148.357019 
L 320.194159 142.012556 
L 323.744912 139.155441 
L 329.093364 134.895663 
L 352.087736 115.503502 
L 365.512202 103.476409 
L 372.780304 96.835263 
L 380.78556 89.364631 
L 403.635166 66.723641 
L 412.476662 57.405053 
L 416.870189 52.73237 
L 426.451017 42.586046 
L 428.811653 40.59962 
L 429.532746 40.106098 
L 431.719234 39.46 
L 431.838701 39.724834 
L 432.144091 42.5675 
L 431.980184 62.995526 
L 431.981307 72.749655 
L 431.978381 75.425114 
L 431.981069 75.405049 
L 431.978313 80.013642 
L 431.979436 79.977064 
L 431.257321 80.115133 
L 430.535853 80.847186 
L 429.788627 81.876143 
L 428.30343 82.921996 
L 424.567571 86.61869 
L 423.820889 87.535074 
L 422.36863 89.85807 
L 421.629843 90.873202 
L 418.610178 93.939005 
L 417.138591 95.6197 
L 415.689598 97.956741 
L 414.234889 99.62361 
L 412.031048 102.012439 
L 405.484551 109.4525 
L 397.463778 118.168456 
L 390.885296 124.857358 
L 386.46482 129.256043 
L 379.151803 136.285379 
L 371.099215 143.374376 
L 368.166387 145.911437 
L 362.311209 150.7185 
L 359.332921 153.067062 
L 357.114516 154.928356 
L 352.031405 158.88853 
L 349.08306 161.218549 
L 346.912429 162.914165 
L 342.526524 166.193813 
L 322.738079 180.52547 
L 319.839107 182.455435 
L 312.512615 187.462299 
L 309.603605 189.398203 
L 303.77388 193.117938 
L 282.597503 206.900281 
L 279.705234 208.662168 
L 275.303133 211.419987 
L 273.846518 212.281071 
L 271.634511 213.677151 
L 262.133935 219.339058 
L 258.460957 221.477177 
L 231.306362 237.04523 
L 228.395583 238.623556 
L 220.394138 242.875434 
L 216.744843 244.759221 
L 215.301294 245.484033 
L 207.273436 249.832788 
L 205.828799 250.463295 
L 202.18767 252.480172 
L 200.692946 253.192476 
L 199.207204 253.982133 
L 197.74569 254.698715 
L 186.789596 260.168439 
L 184.578133 261.310627 
L 181.646393 262.798982 
L 175.041497 265.923675 
L 172.165833 267.252332 
L 169.231099 268.682974 
L 158.272887 273.715304 
L 155.360202 274.998208 
L 151.693486 276.587506 
L 149.507067 277.543224 
L 145.143075 279.621051 
L 143.677477 280.232577 
L 140.807989 281.44196 
L 129.818456 285.913114 
L 126.916251 287.052285 
L 125.441126 287.576638 
L 122.534693 288.511885 
L 120.349907 289.225341 
L 114.497588 290.879757 
L 113.023552 291.06 
L 109.360646 290.956636 
L 106.438978 290.764791 
L 102.759653 290.890894 
L 92.491484 290.229246 
L 91.020715 290.175716 
L 81.503652 289.364796 
L 79.306345 289.043676 
L 77.862524 288.697865 
L 76.413123 288.146686 
L 75.686517 287.3979 
L 75.198166 285.453218 
L 75.026383 284.668442 
L 75.026383 284.668442 
" clip-path="url(#p4b70f2a575)" style="fill: none; stroke: #000000; stroke-width: 2; stroke-linecap: square"/>
   </g>
   <g id="patch_3">
    <path d="M 57.17 303.64 
L 57.17 26.88 
" style="fill: none; stroke: #000000; stroke-width: 0.8; stroke-linejoin: miter; stroke-linecap: square"/>
   </g>
   <g id="patch_4">
    <path d="M 450 303.64 
L 450 26.88 
" style="fill: none; stroke: #000000; stroke-width: 0.8; stroke-linejoin: miter; stroke-linecap: square"/>
   </g>
   <g id="patch_5">
    <path d="M 57.17 303.64 
L 450 303.64 
" style="fill: none; stroke: #000000; stroke-width: 0.8; stroke-linejoin: miter; stroke-linecap: square"/>
   </g>
   <g id="patch_6">
    <path d="M 57.17 26.88 
L 450 26.88 
" style="fill: none; stroke: #000000; stroke-width: 0.8; stroke-linejoin: miter; stroke-linecap: square"/>
   </g>
   <g id="text_16">
    <!-- 2025-07-22 Trial 17 - Stress vs Strain -->
    <g transform="translate(142.330937 20.88) scale(0.12 -0.12)">
     <defs>
      <path id="DejaVuSans-37" d="M 525 4666 
L 3525 4666 
L 3525 4397 
L 1831 0 
L 1172 0 
L 2766 4134 
L 525 4134 
L 525 4666 
z
" transform="scale(0.015625)"/>
      <path id="DejaVuSans-54" d="M -19 4666 
L 3928 4666 
L 3928 4134 
L 2272 4134 
L 2272 0 
L 1638 0 
L 1638 4134 
L -19 4134 
L -19 4666 
z
" transform="scale(0.015625)"/>
      <path id="DejaVuSans-6c" d="M 603 4863 
L 1178 4863 
L 1178 0 
L 603 0 
L 603 4863 
z
" transform="scale(0.015625)"/>
      <path id="DejaVuSans-76" d="M 191 3500 
L 800 3500 
L 1894 563 
L 2988 3500 
L 3597 3500 
L 2284 0 
L 1503 0 
L 191 3500 
z
" transform="scale(0.015625)"/>
     </defs>
     <use xlink:href="#DejaVuSans-32"/>
     <use xlink:href="#DejaVuSans-30" transform="translate(63.623047 0)"/>
     <use xlink:href="#DejaVuSans-32" transform="translate(127.246094 0)"/>
     <use xlink:href="#DejaVuSans-35" transform="translate(190.869141 0)"/>
     <use xlink:href="#DejaVuSans-2d" transform="translate(254.492188 0)"/>
     <use xlink:href="#DejaVuSans-30" transform="translate(290.576172 0)"/>
     <use xlink:href="#DejaVuSans-37" transform="translate(354.199219 0)"/>
     <use xlink:href="#DejaVuSans-2d" transform="translate(417.822266 0)"/>
     <use xlink:href="#DejaVuSans-32" transform="translate(453.90625 0)"/>
     <use xlink:href="#DejaVuSans-32" transform="translate(517.529297 0)"/>
     <use xlink:href="#DejaVuSans-20" transform="translate(581.152344 0)"/>
     <use xlink:href="#DejaVuSans-54" transform="translate(612.939453 0)"/>
     <use xlink:href="#DejaVuSans-72" transform="translate(659.273438 0)"/>
     <use xlink:href="#DejaVuSans-69" transform="translate(700.386719 0)"/>
     <use xlink:href="#DejaVuSans-61" transform="translate(728.169922 0)"/>
     <use xlink:href="#DejaVuSans-6c" transform="translate(789.449219 0)"/>
     <use xlink:href="#DejaVuSans-20" transform="translate(817.232422 0)"/>
     <use xlink:href="#DejaVuSans-31" transform="translate(849.019531 0)"/>
     <use xlink:href="#DejaVuSans-37" transform="translate(912.642578 0)"/>
     <use xlink:href="#DejaVuSans-20" transform="translate(976.265625 0)"/>
     <use xlink:href="#DejaVuSans-2d" transform="translate(1008.052734 0)"/>
     <use xlink:href="#DejaVuSans-20" transform="translate(1044.136719 0)"/>
     <use xlink:href="#DejaVuSans-53" transform="translate(1075.923828 0)"/>
     <use xlink:href="#DejaVuSans-74" transform="translate(1139.400391 0)"/>
     <use xlink:href="#DejaVuSans-72" transform="translate(1178.609375 0)"/>
     <use xlink:href="#DejaVuSans-65" transform="translate(1217.472656 0)"/>
     <use xlink:href="#DejaVuSans-73" transform="translate(1278.996094 0)"/>
     <use xlink:href="#DejaVuSans-73" transform="translate(1331.095703 0)"/>
     <use xlink:href="#DejaVuSans-20" transform="translate(1383.195312 0)"/>
     <use xlink:href="#DejaVuSans-76" transform="translate(1414.982422 0)"/>
     <use xlink:href="#DejaVuSans-73" transform="translate(1474.162109 0)"/>
     <use xlink:href="#DejaVuSans-20" transform="translate(1526.261719 0)"/>
     <use xlink:href="#DejaVuSans-53" transform="translate(1558.048828 0)"/>
     <use xlink:href="#DejaVuSans-74" transform="translate(1621.525391 0)"/>
     <use xlink:href="#DejaVuSans-72" transform="translate(1660.734375 0)"/>
     <use xlink:href="#DejaVuSans-61" transform="translate(1701.847656 0)"/>
     <use xlink:href="#DejaVuSans-69" transform="translate(1763.126953 0)"/>
     <use xlink:href="#DejaVuSans-6e" transform="translate(1790.910156 0)"/>
    </g>
   </g>
   <g id="legend_1">
    <g id="patch_7">
     <path d="M 64.17 64.23625 
L 170.154375 64.23625 
Q 172.154375 64.23625 172.154375 62.23625 
L 172.154375 33.88 
Q 172.154375 31.88 170.154375 31.88 
L 64.17 31.88 
Q 62.17 31.88 62.17 33.88 
L 62.17 62.23625 
Q 62.17 64.23625 64.17 64.23625 
z
" style="fill: #ffffff; opacity: 0.8; stroke: #cccccc; stroke-linejoin: miter"/>
    </g>
    <g id="line2d_29">
     <path d="M 66.17 39.978437 
L 76.17 39.978437 
L 86.17 39.978437 
" style="fill: none; stroke: #ff0000; stroke-width: 2; stroke-linecap: square"/>
    </g>
    <g id="text_17">
     <!-- Raw Force -->
     <g transform="translate(94.17 43.478437) scale(0.1 -0.1)">
      <defs>
       <path id="DejaVuSans-52" d="M 2841 2188 
Q 3044 2119 3236 1894 
Q 3428 1669 3622 1275 
L 4263 0 
L 3584 0 
L 2988 1197 
Q 2756 1666 2539 1819 
Q 2322 1972 1947 1972 
L 1259 1972 
L 1259 0 
L 628 0 
L 628 4666 
L 2053 4666 
Q 2853 4666 3247 4331 
Q 3641 3997 3641 3322 
Q 3641 2881 3436 2590 
Q 3231 2300 2841 2188 
z
M 1259 4147 
L 1259 2491 
L 2053 2491 
Q 2509 2491 2742 2702 
Q 2975 2913 2975 3322 
Q 2975 3731 2742 3939 
Q 2509 4147 2053 4147 
L 1259 4147 
z
" transform="scale(0.015625)"/>
       <path id="DejaVuSans-77" d="M 269 3500 
L 844 3500 
L 1563 769 
L 2278 3500 
L 2956 3500 
L 3675 769 
L 4391 3500 
L 4966 3500 
L 4050 0 
L 3372 0 
L 2619 2869 
L 1863 0 
L 1184 0 
L 269 3500 
z
" transform="scale(0.015625)"/>
       <path id="DejaVuSans-46" d="M 628 4666 
L 3309 4666 
L 3309 4134 
L 1259 4134 
L 1259 2759 
L 3109 2759 
L 3109 2228 
L 1259 2228 
L 1259 0 
L 628 0 
L 628 4666 
z
" transform="scale(0.015625)"/>
       <path id="DejaVuSans-6f" d="M 1959 3097 
Q 1497 3097 1228 2736 
Q 959 2375 959 1747 
Q 959 1119 1226 758 
Q 1494 397 1959 397 
Q 2419 397 2687 759 
Q 2956 1122 2956 1747 
Q 2956 2369 2687 2733 
Q 2419 3097 1959 3097 
z
M 1959 3584 
Q 2709 3584 3137 3096 
Q 3566 2609 3566 1747 
Q 3566 888 3137 398 
Q 2709 -91 1959 -91 
Q 1206 -91 779 398 
Q 353 888 353 1747 
Q 353 2609 779 3096 
Q 1206 3584 1959 3584 
z
" transform="scale(0.015625)"/>
       <path id="DejaVuSans-63" d="M 3122 3366 
L 3122 2828 
Q 2878 2963 2633 3030 
Q 2388 3097 2138 3097 
Q 1578 3097 1268 2742 
Q 959 2388 959 1747 
Q 959 1106 1268 751 
Q 1578 397 2138 397 
Q 2388 397 2633 464 
Q 2878 531 3122 666 
L 3122 134 
Q 2881 22 2623 -34 
Q 2366 -91 2075 -91 
Q 1284 -91 818 406 
Q 353 903 353 1747 
Q 353 2603 823 3093 
Q 1294 3584 2113 3584 
Q 2378 3584 2631 3529 
Q 2884 3475 3122 3366 
z
" transform="scale(0.015625)"/>
      </defs>
      <use xlink:href="#DejaVuSans-52"/>
      <use xlink:href="#DejaVuSans-61" transform="translate(67.232422 0)"/>
      <use xlink:href="#DejaVuSans-77" transform="translate(128.511719 0)"/>
      <use xlink:href="#DejaVuSans-20" transform="translate(210.298828 0)"/>
      <use xlink:href="#DejaVuSans-46" transform="translate(242.085938 0)"/>
      <use xlink:href="#DejaVuSans-6f" transform="translate(295.980469 0)"/>
      <use xlink:href="#DejaVuSans-72" transform="translate(357.162109 0)"/>
      <use xlink:href="#DejaVuSans-63" transform="translate(396.025391 0)"/>
      <use xlink:href="#DejaVuSans-65" transform="translate(451.005859 0)"/>
     </g>
    </g>
    <g id="line2d_30">
     <path d="M 66.17 54.656563 
L 76.17 54.656563 
L 86.17 54.656563 
" style="fill: none; stroke: #000000; stroke-width: 2; stroke-linecap: square"/>
    </g>
    <g id="text_18">
     <!-- Adjusted Force -->
     <g transform="translate(94.17 58.156563) scale(0.1 -0.1)">
      <defs>
       <path id="DejaVuSans-41" d="M 2188 4044 
L 1331 1722 
L 3047 1722 
L 2188 4044 
z
M 1831 4666 
L 2547 4666 
L 4325 0 
L 3669 0 
L 3244 1197 
L 1141 1197 
L 716 0 
L 50 0 
L 1831 4666 
z
" transform="scale(0.015625)"/>
       <path id="DejaVuSans-64" d="M 2906 2969 
L 2906 4863 
L 3481 4863 
L 3481 0 
L 2906 0 
L 2906 525 
Q 2725 213 2448 61 
Q 2172 -91 1784 -91 
Q 1150 -91 751 415 
Q 353 922 353 1747 
Q 353 2572 751 3078 
Q 1150 3584 1784 3584 
Q 2172 3584 2448 3432 
Q 2725 3281 2906 2969 
z
M 947 1747 
Q 947 1113 1208 752 
Q 1469 391 1925 391 
Q 2381 391 2643 752 
Q 2906 1113 2906 1747 
Q 2906 2381 2643 2742 
Q 2381 3103 1925 3103 
Q 1469 3103 1208 2742 
Q 947 2381 947 1747 
z
" transform="scale(0.015625)"/>
       <path id="DejaVuSans-6a" d="M 603 3500 
L 1178 3500 
L 1178 -63 
Q 1178 -731 923 -1031 
Q 669 -1331 103 -1331 
L -116 -1331 
L -116 -844 
L 38 -844 
Q 366 -844 484 -692 
Q 603 -541 603 -63 
L 603 3500 
z
M 603 4863 
L 1178 4863 
L 1178 4134 
L 603 4134 
L 603 4863 
z
" transform="scale(0.015625)"/>
       <path id="DejaVuSans-75" d="M 544 1381 
L 544 3500 
L 1119 3500 
L 1119 1403 
Q 1119 906 1312 657 
Q 1506 409 1894 409 
Q 2359 409 2629 706 
Q 2900 1003 2900 1516 
L 2900 3500 
L 3475 3500 
L 3475 0 
L 2900 0 
L 2900 538 
Q 2691 219 2414 64 
Q 2138 -91 1772 -91 
Q 1169 -91 856 284 
Q 544 659 544 1381 
z
M 1991 3584 
L 1991 3584 
z
" transform="scale(0.015625)"/>
      </defs>
      <use xlink:href="#DejaVuSans-41"/>
      <use xlink:href="#DejaVuSans-64" transform="translate(66.658203 0)"/>
      <use xlink:href="#DejaVuSans-6a" transform="translate(130.134766 0)"/>
      <use xlink:href="#DejaVuSans-75" transform="translate(157.917969 0)"/>
      <use xlink:href="#DejaVuSans-73" transform="translate(221.296875 0)"/>
      <use xlink:href="#DejaVuSans-74" transform="translate(273.396484 0)"/>
      <use xlink:href="#DejaVuSans-65" transform="translate(312.605469 0)"/>
      <use xlink:href="#DejaVuSans-64" transform="translate(374.128906 0)"/>
      <use xlink:href="#DejaVuSans-20" transform="translate(437.605469 0)"/>
      <use xlink:href="#DejaVuSans-46" transform="translate(469.392578 0)"/>
      <use xlink:href="#DejaVuSans-6f" transform="translate(523.287109 0)"/>
      <use xlink:href="#DejaVuSans-72" transform="translate(584.46875 0)"/>
      <use xlink:href="#DejaVuSans-63" transform="translate(623.332031 0)"/>
      <use xlink:href="#DejaVuSans-65" transform="translate(678.3125 0)"/>
     </g>
    </g>
   </g>
  </g>
 </g>
 <defs>
  <clipPath id="p4b70f2a575">
   <rect x="57.17" y="26.88" width="392.83" height="276.76"/>
  </clipPath>
 </defs>
</svg>
