<?xml version="1.0" encoding="utf-8" standalone="no"?>
<!DOCTYPE svg PUBLIC "-//W3C//DTD SVG 1.1//EN"
  "http://www.w3.org/Graphics/SVG/1.1/DTD/svg11.dtd">
<svg xmlns:xlink="http://www.w3.org/1999/xlink" width="460.8pt" height="345.6pt" viewBox="0 0 460.8 345.6" xmlns="http://www.w3.org/2000/svg" version="1.1">
 <metadata>
  <rdf:RDF xmlns:dc="http://purl.org/dc/elements/1.1/" xmlns:cc="http://creativecommons.org/ns#" xmlns:rdf="http://www.w3.org/1999/02/22-rdf-syntax-ns#">
   <cc:Work>
    <dc:type rdf:resource="http://purl.org/dc/dcmitype/StillImage"/>
    <dc:date>2025-07-28T16:35:34.775777</dc:date>
    <dc:format>image/svg+xml</dc:format>
    <dc:creator>
     <cc:Agent>
      <dc:title>Matplotlib v3.10.3, https://matplotlib.org/</dc:title>
     </cc:Agent>
    </dc:creator>
   </cc:Work>
  </rdf:RDF>
 </metadata>
 <defs>
  <style type="text/css">*{stroke-linejoin: round; stroke-linecap: butt}</style>
 </defs>
 <g id="figure_1">
  <g id="patch_1">
   <path d="M 0 345.6 
L 460.8 345.6 
L 460.8 0 
L 0 0 
z
" style="fill: #ffffff"/>
  </g>
  <g id="axes_1">
   <g id="patch_2">
    <path d="M 63.47 303.64 
L 450 303.64 
L 450 26.88 
L 63.47 26.88 
z
" style="fill: #ffffff"/>
   </g>
   <g id="FillBetweenPolyCollection_1">
    <defs>
     <path id="mfa2e8afdac" d="M 81.25531 -54.945503 
L 81.25531 -54.824894 
L 81.761737 -55.008264 
L 82.268164 -55.214281 
L 82.774592 -55.185604 
L 83.281019 -54.834747 
L 83.787446 -54.657821 
L 84.293873 -54.644256 
L 84.800301 -54.732701 
L 85.306728 -54.790877 
L 85.813155 -54.890561 
L 86.319582 -54.96029 
L 86.82601 -55.187603 
L 87.332437 -55.420572 
L 87.838864 -55.52024 
L 88.345291 -55.58387 
L 88.851719 -55.638415 
L 89.358146 -55.675094 
L 89.864573 -55.656435 
L 90.371 -55.660639 
L 90.877428 -55.781225 
L 91.383855 -55.899074 
L 91.890282 -56.007194 
L 92.396709 -56.159958 
L 92.903137 -56.339082 
L 93.409564 -56.472132 
L 93.915991 -56.577392 
L 94.422418 -56.660883 
L 94.928846 -56.759313 
L 95.435273 -56.882237 
L 95.9417 -56.994663 
L 96.448127 -57.111084 
L 96.954555 -57.237245 
L 97.460982 -57.368889 
L 97.967409 -57.506152 
L 98.473836 -57.663329 
L 98.980264 -57.814721 
L 99.486691 -57.954188 
L 99.993118 -58.070688 
L 100.499545 -58.18499 
L 101.005973 -58.297664 
L 101.5124 -58.443982 
L 102.018827 -58.619138 
L 102.525254 -58.79268 
L 103.031682 -58.951413 
L 103.538109 -59.107621 
L 104.044536 -59.244407 
L 104.550963 -59.378595 
L 105.057391 -59.53445 
L 105.563818 -59.709351 
L 106.070245 -59.882283 
L 106.576672 -60.050621 
L 107.0831 -60.215514 
L 107.589527 -60.371553 
L 108.095954 -60.535814 
L 108.602381 -60.705774 
L 109.108809 -60.88325 
L 109.615236 -61.062171 
L 110.121663 -61.240966 
L 110.62809 -61.413536 
L 111.134518 -61.58688 
L 111.640945 -61.758113 
L 112.147372 -61.936524 
L 112.653799 -62.126093 
L 113.160227 -62.310653 
L 113.666654 -62.490195 
L 114.173081 -62.673587 
L 114.679508 -62.852763 
L 115.185936 -63.027076 
L 115.692363 -63.216506 
L 116.19879 -63.41774 
L 116.705217 -63.616611 
L 117.211645 -63.819144 
L 117.718072 -64.017838 
L 118.224499 -64.204258 
L 118.730926 -64.390096 
L 119.237354 -64.587897 
L 119.743781 -64.793287 
L 120.250208 -65.001735 
L 120.756635 -65.209621 
L 121.263063 -65.42019 
L 121.76949 -65.621965 
L 122.275917 -65.821943 
L 122.782344 -66.025029 
L 123.288772 -66.229893 
L 123.795199 -66.433437 
L 124.301626 -66.645591 
L 124.808053 -66.855173 
L 125.314481 -67.0701 
L 125.820908 -67.283681 
L 126.327335 -67.484588 
L 126.833762 -67.686796 
L 127.34019 -67.887555 
L 127.846617 -68.09332 
L 128.353044 -68.305269 
L 128.859471 -68.530648 
L 129.365899 -68.747483 
L 129.872326 -68.963127 
L 130.378753 -69.183839 
L 130.88518 -69.403756 
L 131.391608 -69.236338 
L 131.391608 -72.348281 
L 131.391608 -72.348281 
L 130.88518 -73.856524 
L 130.378753 -73.59573 
L 129.872326 -73.351828 
L 129.365899 -73.10028 
L 128.859471 -72.84227 
L 128.353044 -72.575953 
L 127.846617 -72.299289 
L 127.34019 -72.024878 
L 126.833762 -71.750227 
L 126.327335 -71.476249 
L 125.820908 -71.201387 
L 125.314481 -70.921183 
L 124.808053 -70.642182 
L 124.301626 -70.372409 
L 123.795199 -70.101794 
L 123.288772 -69.830644 
L 122.782344 -69.565865 
L 122.275917 -69.291233 
L 121.76949 -69.022589 
L 121.263063 -68.759549 
L 120.756635 -68.494771 
L 120.250208 -68.234408 
L 119.743781 -67.978791 
L 119.237354 -67.708207 
L 118.730926 -67.450959 
L 118.224499 -67.192791 
L 117.718072 -66.930772 
L 117.211645 -66.672394 
L 116.705217 -66.418781 
L 116.19879 -66.16842 
L 115.692363 -65.928366 
L 115.185936 -65.681938 
L 114.679508 -65.435223 
L 114.173081 -65.187195 
L 113.666654 -64.930691 
L 113.160227 -64.68334 
L 112.653799 -64.456175 
L 112.147372 -64.236811 
L 111.640945 -64.012849 
L 111.134518 -63.788694 
L 110.62809 -63.562932 
L 110.121663 -63.332074 
L 109.615236 -63.108565 
L 109.108809 -62.894993 
L 108.602381 -62.68995 
L 108.095954 -62.483037 
L 107.589527 -62.270652 
L 107.0831 -62.051561 
L 106.576672 -61.838388 
L 106.070245 -61.624935 
L 105.563818 -61.414445 
L 105.057391 -61.219128 
L 104.550963 -61.03062 
L 104.044536 -60.833446 
L 103.538109 -60.634194 
L 103.031682 -60.439647 
L 102.525254 -60.246341 
L 102.018827 -60.05508 
L 101.5124 -59.877899 
L 101.005973 -59.696473 
L 100.499545 -59.508868 
L 99.993118 -59.320828 
L 99.486691 -59.136092 
L 98.980264 -58.971343 
L 98.473836 -58.804134 
L 97.967409 -58.637719 
L 97.460982 -58.453658 
L 96.954555 -58.272723 
L 96.448127 -58.083898 
L 95.9417 -57.937056 
L 95.435273 -57.792958 
L 94.928846 -57.691028 
L 94.422418 -57.578931 
L 93.915991 -57.433628 
L 93.409564 -57.243883 
L 92.903137 -57.094425 
L 92.396709 -56.891714 
L 91.890282 -56.774211 
L 91.383855 -56.710499 
L 90.877428 -56.652341 
L 90.371 -56.478334 
L 89.864573 -56.321346 
L 89.358146 -56.246596 
L 88.851719 -56.16638 
L 88.345291 -56.043106 
L 87.838864 -55.892298 
L 87.332437 -55.743897 
L 86.82601 -55.640014 
L 86.319582 -55.542075 
L 85.813155 -55.446598 
L 85.306728 -55.315444 
L 84.800301 -55.200325 
L 84.293873 -55.049729 
L 83.787446 -54.979639 
L 83.281019 -55.268716 
L 82.774592 -55.491131 
L 82.268164 -55.378015 
L 81.761737 -55.130424 
L 81.25531 -54.945503 
z
" style="stroke: #000000; stroke-opacity: 0.3"/>
    </defs>
    <g clip-path="url(#p0c615cd10f)">
     <use xlink:href="#mfa2e8afdac" x="0" y="345.6" style="fill-opacity: 0.3; stroke: #000000; stroke-opacity: 0.3"/>
    </g>
   </g>
   <g id="FillBetweenPolyCollection_2">
    <defs>
     <path id="m4976b7fb2a" d="M 81.040052 -54.906977 
L 81.040052 -54.836629 
L 82.562019 -55.708929 
L 84.083987 -55.072319 
L 85.605954 -54.54 
L 87.127921 -54.748998 
L 88.649888 -54.849184 
L 90.171856 -55.102654 
L 91.693823 -55.68487 
L 93.21579 -56.34113 
L 94.737757 -56.547057 
L 96.259724 -56.876537 
L 97.781692 -57.420074 
L 99.303659 -58.011628 
L 100.825626 -58.498638 
L 102.347593 -58.867579 
L 103.869561 -59.278185 
L 105.391528 -59.742236 
L 106.913495 -60.21122 
L 108.435462 -60.68564 
L 109.957429 -61.218355 
L 111.479397 -61.7231 
L 113.001364 -62.236409 
L 114.523331 -62.7794 
L 116.045298 -63.331601 
L 117.567266 -63.859176 
L 119.089233 -64.419854 
L 120.6112 -64.987286 
L 122.133167 -65.549053 
L 123.655134 -66.119588 
L 125.177102 -66.726887 
L 126.699069 -67.332749 
L 128.221036 -67.93231 
L 129.743003 -68.535263 
L 131.264971 -69.158523 
L 132.786938 -69.774345 
L 134.308905 -70.39925 
L 135.830872 -71.046947 
L 137.352839 -71.68463 
L 138.874807 -72.326065 
L 140.396774 -72.97328 
L 141.918741 -73.619979 
L 143.440708 -74.275562 
L 144.962676 -74.946371 
L 146.484643 -75.60469 
L 148.00661 -76.264136 
L 149.528577 -76.945929 
L 151.050544 -77.614892 
L 152.572512 -78.276756 
L 154.094479 -78.957949 
L 155.616446 -79.652699 
L 157.138413 -80.347831 
L 158.660381 -81.050595 
L 160.182348 -81.753453 
L 161.704315 -82.447344 
L 163.226282 -83.146701 
L 164.748249 -83.850515 
L 166.270217 -84.548753 
L 167.792184 -85.266226 
L 169.314151 -85.983058 
L 170.836118 -86.708874 
L 172.358085 -87.425171 
L 173.880053 -88.170182 
L 175.40202 -88.907106 
L 176.923987 -89.630636 
L 178.445954 -90.349797 
L 179.967922 -91.081835 
L 181.489889 -91.810468 
L 183.011856 -92.537995 
L 184.533823 -93.293275 
L 186.05579 -94.039351 
L 187.577758 -94.781794 
L 189.099725 -95.531624 
L 190.621692 -96.294583 
L 192.143659 -97.067084 
L 193.665627 -97.833798 
L 195.187594 -98.605069 
L 196.709561 -99.367313 
L 198.231528 -100.132217 
L 199.753495 -100.901794 
L 201.275463 -101.684157 
L 202.79743 -102.464227 
L 204.319397 -103.240649 
L 205.841364 -104.011987 
L 207.363332 -104.790477 
L 208.885299 -105.570035 
L 210.407266 -106.358621 
L 211.929233 -107.144143 
L 213.4512 -107.9444 
L 214.973168 -108.716705 
L 216.495135 -109.508048 
L 218.017102 -110.310404 
L 219.539069 -111.125632 
L 221.061037 -111.938781 
L 222.583004 -112.758932 
L 224.104971 -113.565969 
L 225.626938 -114.373507 
L 227.148905 -115.21911 
L 228.670873 -116.072458 
L 230.19284 -116.954809 
L 231.714807 -116.041808 
L 231.714807 -121.052387 
L 231.714807 -121.052387 
L 230.19284 -126.811447 
L 228.670873 -126.160632 
L 227.148905 -125.311537 
L 225.626938 -124.371241 
L 224.104971 -123.374906 
L 222.583004 -122.298395 
L 221.061037 -121.256471 
L 219.539069 -120.265089 
L 218.017102 -119.28346 
L 216.495135 -118.365554 
L 214.973168 -117.446458 
L 213.4512 -116.535206 
L 211.929233 -115.639587 
L 210.407266 -114.729485 
L 208.885299 -113.82848 
L 207.363332 -112.938194 
L 205.841364 -112.053785 
L 204.319397 -111.156729 
L 202.79743 -110.297802 
L 201.275463 -109.424304 
L 199.753495 -108.553842 
L 198.231528 -107.688183 
L 196.709561 -106.836308 
L 195.187594 -105.972593 
L 193.665627 -105.113099 
L 192.143659 -104.239757 
L 190.621692 -103.370271 
L 189.099725 -102.510678 
L 187.577758 -101.657249 
L 186.05579 -100.79782 
L 184.533823 -99.962347 
L 183.011856 -99.120358 
L 181.489889 -98.270497 
L 179.967922 -97.436902 
L 178.445954 -96.606664 
L 176.923987 -95.774645 
L 175.40202 -94.958918 
L 173.880053 -94.139024 
L 172.358085 -93.307848 
L 170.836118 -92.490152 
L 169.314151 -91.673369 
L 167.792184 -90.855298 
L 166.270217 -90.057664 
L 164.748249 -89.2667 
L 163.226282 -88.47041 
L 161.704315 -87.67175 
L 160.182348 -86.87757 
L 158.660381 -86.086038 
L 157.138413 -85.288782 
L 155.616446 -84.496522 
L 154.094479 -83.707908 
L 152.572512 -82.933649 
L 151.050544 -82.150201 
L 149.528577 -81.377617 
L 148.00661 -80.602854 
L 146.484643 -79.833436 
L 144.962676 -79.0729 
L 143.440708 -78.313188 
L 141.918741 -77.541637 
L 140.396774 -76.761915 
L 138.874807 -76.014646 
L 137.352839 -75.238552 
L 135.830872 -74.480222 
L 134.308905 -73.738144 
L 132.786938 -73.013048 
L 131.264971 -72.274919 
L 129.743003 -71.53243 
L 128.221036 -70.799261 
L 126.699069 -70.074176 
L 125.177102 -69.342853 
L 123.655134 -68.625143 
L 122.133167 -67.929742 
L 120.6112 -67.213054 
L 119.089233 -66.514106 
L 117.567266 -65.830677 
L 116.045298 -65.135458 
L 114.523331 -64.489037 
L 113.001364 -63.850901 
L 111.479397 -63.228902 
L 109.957429 -62.640697 
L 108.435462 -62.049743 
L 106.913495 -61.451799 
L 105.391528 -60.837978 
L 103.869561 -60.294678 
L 102.347593 -59.853636 
L 100.825626 -59.446503 
L 99.303659 -58.912343 
L 97.781692 -58.229707 
L 96.259724 -57.526725 
L 94.737757 -57.222771 
L 93.21579 -56.899656 
L 91.693823 -56.180783 
L 90.171856 -55.481426 
L 88.649888 -55.348863 
L 87.127921 -55.252451 
L 85.605954 -54.929944 
L 84.083987 -56.338668 
L 82.562019 -55.93824 
L 81.040052 -54.906977 
z
" style="stroke: #ff0000; stroke-opacity: 0.3"/>
    </defs>
    <g clip-path="url(#p0c615cd10f)">
     <use xlink:href="#m4976b7fb2a" x="0" y="345.6" style="fill: #ff0000; fill-opacity: 0.3; stroke: #ff0000; stroke-opacity: 0.3"/>
    </g>
   </g>
   <g id="FillBetweenPolyCollection_3">
    <defs>
     <path id="mcf6c21bce8" d="M 81.040307 -54.875826 
L 81.040307 -54.781716 
L 83.57587 -56.176735 
L 86.111432 -55.280818 
L 88.646994 -55.807614 
L 91.182557 -56.235164 
L 93.718119 -56.427213 
L 96.253681 -56.943235 
L 98.789244 -57.378698 
L 101.324806 -57.779204 
L 103.860369 -58.715769 
L 106.395931 -59.710194 
L 108.931493 -60.559991 
L 111.467056 -61.367032 
L 114.002618 -62.188426 
L 116.538181 -63.049443 
L 119.073743 -63.935186 
L 121.609305 -64.859055 
L 124.144868 -65.782313 
L 126.68043 -66.687781 
L 129.215993 -67.636469 
L 131.751555 -68.610626 
L 134.287117 -69.633736 
L 136.82268 -70.675702 
L 139.358242 -71.719941 
L 141.893804 -72.751093 
L 144.429367 -73.788839 
L 146.964929 -74.843267 
L 149.500492 -75.945091 
L 152.036054 -77.063554 
L 154.571616 -78.190829 
L 157.107179 -79.344481 
L 159.642741 -80.484493 
L 162.178304 -81.621688 
L 164.713866 -82.758269 
L 167.249428 -83.916241 
L 169.784991 -85.086791 
L 172.320553 -86.253725 
L 174.856116 -87.415192 
L 177.391678 -88.610732 
L 179.92724 -89.788797 
L 182.462803 -90.974817 
L 184.998365 -92.17833 
L 187.533928 -93.415973 
L 190.06949 -94.644518 
L 192.605052 -95.897118 
L 195.140615 -97.121028 
L 197.676177 -98.393381 
L 200.211739 -99.656272 
L 202.747302 -100.929507 
L 205.282864 -102.221848 
L 207.818427 -103.530584 
L 210.353989 -104.827025 
L 212.889551 -106.123105 
L 215.425114 -107.429304 
L 217.960676 -108.748492 
L 220.496239 -110.098001 
L 223.031801 -111.458411 
L 225.567363 -112.812748 
L 228.102926 -114.199831 
L 230.638488 -115.598068 
L 233.174051 -117.003731 
L 235.709613 -118.429696 
L 238.245175 -119.885842 
L 240.780738 -121.330956 
L 243.3163 -122.794367 
L 245.851862 -124.281205 
L 248.387425 -125.77164 
L 250.922987 -127.302335 
L 253.45855 -128.842418 
L 255.994112 -130.401862 
L 258.529674 -131.958311 
L 261.065237 -133.537869 
L 263.600799 -135.123136 
L 266.136362 -136.754988 
L 268.671924 -138.376393 
L 271.207486 -140.026216 
L 273.743049 -141.68351 
L 276.278611 -143.369808 
L 278.814174 -145.068068 
L 281.349736 -146.817913 
L 283.885298 -148.577899 
L 286.420861 -150.368386 
L 288.956423 -152.164228 
L 291.491985 -154.000168 
L 294.027548 -155.829724 
L 296.56311 -157.683707 
L 299.098673 -159.572373 
L 301.634235 -161.476795 
L 304.169797 -163.391746 
L 306.70536 -165.347543 
L 309.240922 -167.344623 
L 311.776485 -169.341246 
L 314.312047 -171.377259 
L 316.847609 -173.45519 
L 319.383172 -175.57365 
L 321.918734 -177.707161 
L 324.454297 -179.890513 
L 326.989859 -182.089584 
L 329.525421 -184.297888 
L 332.060984 -168.781097 
L 332.060984 -186.601733 
L 332.060984 -186.601733 
L 329.525421 -190.672356 
L 326.989859 -188.864903 
L 324.454297 -186.752843 
L 321.918734 -184.573262 
L 319.383172 -182.439078 
L 316.847609 -180.252296 
L 314.312047 -178.144633 
L 311.776485 -176.061959 
L 309.240922 -173.994794 
L 306.70536 -171.987765 
L 304.169797 -169.995695 
L 301.634235 -168.009946 
L 299.098673 -166.053364 
L 296.56311 -164.122558 
L 294.027548 -162.195745 
L 291.491985 -160.314387 
L 288.956423 -158.457995 
L 286.420861 -156.6242 
L 283.885298 -154.783447 
L 281.349736 -152.969196 
L 278.814174 -151.178026 
L 276.278611 -149.412813 
L 273.743049 -147.652953 
L 271.207486 -145.943953 
L 268.671924 -144.236708 
L 266.136362 -142.525872 
L 263.600799 -140.861951 
L 261.065237 -139.208724 
L 258.529674 -137.558752 
L 255.994112 -135.938164 
L 253.45855 -134.325669 
L 250.922987 -132.710392 
L 248.387425 -131.110158 
L 245.851862 -129.547099 
L 243.3163 -127.996613 
L 240.780738 -126.464612 
L 238.245175 -124.946441 
L 235.709613 -123.443817 
L 233.174051 -121.943477 
L 230.638488 -120.442479 
L 228.102926 -118.970624 
L 225.567363 -117.508618 
L 223.031801 -116.070784 
L 220.496239 -114.641744 
L 217.960676 -113.220712 
L 215.425114 -111.803235 
L 212.889551 -110.40243 
L 210.353989 -108.998788 
L 207.818427 -107.636943 
L 205.282864 -106.271928 
L 202.747302 -104.924977 
L 200.211739 -103.591284 
L 197.676177 -102.278919 
L 195.140615 -100.945635 
L 192.605052 -99.635833 
L 190.06949 -98.327988 
L 187.533928 -97.0199 
L 184.998365 -95.700573 
L 182.462803 -94.385274 
L 179.92724 -93.113073 
L 177.391678 -91.853612 
L 174.856116 -90.606027 
L 172.320553 -89.376629 
L 169.784991 -88.153152 
L 167.249428 -86.919747 
L 164.713866 -85.689318 
L 162.178304 -84.471644 
L 159.642741 -83.265068 
L 157.107179 -82.100797 
L 154.571616 -80.902598 
L 152.036054 -79.733619 
L 149.500492 -78.564336 
L 146.964929 -77.399998 
L 144.429367 -76.255901 
L 141.893804 -75.153516 
L 139.358242 -74.031078 
L 136.82268 -72.916346 
L 134.287117 -71.802201 
L 131.751555 -70.691112 
L 129.215993 -69.589045 
L 126.68043 -68.52468 
L 124.144868 -67.496269 
L 121.609305 -66.473696 
L 119.073743 -65.449657 
L 116.538181 -64.444923 
L 114.002618 -63.471488 
L 111.467056 -62.515036 
L 108.931493 -61.627882 
L 106.395931 -60.795789 
L 103.860369 -59.839772 
L 101.324806 -58.639561 
L 98.789244 -58.146097 
L 96.253681 -57.651941 
L 93.718119 -57.133965 
L 91.182557 -56.608927 
L 88.646994 -56.093916 
L 86.111432 -55.594264 
L 83.57587 -56.502214 
L 81.040307 -54.875826 
z
" style="stroke: #0000ff; stroke-opacity: 0.3"/>
    </defs>
    <g clip-path="url(#p0c615cd10f)">
     <use xlink:href="#mcf6c21bce8" x="0" y="345.6" style="fill: #0000ff; fill-opacity: 0.3; stroke: #0000ff; stroke-opacity: 0.3"/>
    </g>
   </g>
   <g id="FillBetweenPolyCollection_4">
    <defs>
     <path id="mf4c436d74a" d="M 81.039545 -54.89865 
L 81.039545 -54.792181 
L 84.588949 -55.926411 
L 88.138352 -56.295481 
L 91.687755 -57.368282 
L 95.237158 -57.480266 
L 98.786561 -57.90481 
L 102.335964 -58.363054 
L 105.885367 -59.328623 
L 109.43477 -60.593168 
L 112.984174 -61.836697 
L 116.533577 -63.07071 
L 120.08298 -64.271033 
L 123.632383 -65.487922 
L 127.181786 -66.806888 
L 130.731189 -68.149365 
L 134.280592 -69.464331 
L 137.829995 -70.883353 
L 141.379399 -72.37275 
L 144.928802 -73.882455 
L 148.478205 -75.383363 
L 152.027608 -76.939418 
L 155.577011 -78.477712 
L 159.126414 -80.010412 
L 162.675817 -81.590496 
L 166.22522 -83.211786 
L 169.774624 -84.913386 
L 173.324027 -86.543626 
L 176.87343 -88.245766 
L 180.422833 -89.995016 
L 183.972236 -91.753944 
L 187.521639 -93.439602 
L 191.071042 -95.213721 
L 194.620445 -96.986883 
L 198.169848 -98.766411 
L 201.719252 -100.565072 
L 205.268655 -102.385802 
L 208.818058 -104.2266 
L 212.367461 -106.070822 
L 215.916864 -107.927361 
L 219.466267 -109.804454 
L 223.01567 -111.711312 
L 226.565073 -113.639673 
L 230.114477 -115.637513 
L 233.66388 -117.628189 
L 237.213283 -119.660482 
L 240.762686 -121.71962 
L 244.312089 -123.821206 
L 247.861492 -125.9207 
L 251.410895 -128.044894 
L 254.960298 -130.209855 
L 258.509702 -132.389906 
L 262.059105 -134.612733 
L 265.608508 -136.885981 
L 269.157911 -139.207724 
L 272.707314 -141.537708 
L 276.256717 -143.914901 
L 279.80612 -146.382794 
L 283.355523 -148.840284 
L 286.904927 -151.35438 
L 290.45433 -153.900382 
L 294.003733 -156.503633 
L 297.553136 -159.067006 
L 301.102539 -161.725962 
L 304.651942 -164.473744 
L 308.201345 -167.291031 
L 311.750748 -170.160593 
L 315.300152 -173.109748 
L 318.849555 -176.088502 
L 322.398958 -179.048954 
L 325.948361 -182.082885 
L 329.497764 -185.228905 
L 333.047167 -188.395344 
L 336.59657 -191.623434 
L 340.145973 -194.962563 
L 343.695376 -198.355901 
L 347.24478 -201.733449 
L 350.794183 -205.205911 
L 354.343586 -208.737218 
L 357.892989 -212.33746 
L 361.442392 -215.990419 
L 364.991795 -219.752141 
L 368.541198 -223.586931 
L 372.090601 -227.467067 
L 375.640005 -231.420102 
L 379.189408 -235.50078 
L 382.738811 -239.652276 
L 386.288214 -243.869353 
L 389.837617 -248.188687 
L 393.38702 -252.64489 
L 396.936423 -257.169224 
L 400.485826 -261.748874 
L 404.03523 -266.447173 
L 407.584633 -271.326708 
L 411.134036 -276.245691 
L 414.683439 -281.273067 
L 418.232842 -286.288122 
L 421.782245 -291.38856 
L 425.331648 -296.545208 
L 428.881051 -301.487291 
L 432.430455 -256.726598 
L 432.430455 -261.729925 
L 432.430455 -261.729925 
L 428.881051 -306.14 
L 425.331648 -300.940018 
L 421.782245 -295.538793 
L 418.232842 -290.23407 
L 414.683439 -285.039791 
L 411.134036 -279.851774 
L 407.584633 -274.668269 
L 404.03523 -269.654979 
L 400.485826 -264.765119 
L 396.936423 -259.948025 
L 393.38702 -255.232032 
L 389.837617 -250.677487 
L 386.288214 -246.183378 
L 382.738811 -241.791966 
L 379.189408 -237.525627 
L 375.640005 -233.361944 
L 372.090601 -229.276543 
L 368.541198 -225.279026 
L 364.991795 -221.373888 
L 361.442392 -217.572712 
L 357.892989 -213.868781 
L 354.343586 -210.214621 
L 350.794183 -206.65258 
L 347.24478 -203.1612 
L 343.695376 -199.743949 
L 340.145973 -196.371314 
L 336.59657 -193.086898 
L 333.047167 -189.881641 
L 329.497764 -186.66604 
L 325.948361 -183.529538 
L 322.398958 -180.398139 
L 318.849555 -177.348458 
L 315.300152 -174.327463 
L 311.750748 -171.427172 
L 308.201345 -168.550052 
L 304.651942 -165.78001 
L 301.102539 -163.017686 
L 297.553136 -160.338423 
L 294.003733 -157.666611 
L 290.45433 -155.06903 
L 286.904927 -152.49068 
L 283.355523 -149.952942 
L 279.80612 -147.427145 
L 276.256717 -144.970447 
L 272.707314 -142.548248 
L 269.157911 -140.221046 
L 265.608508 -137.913651 
L 262.059105 -135.636692 
L 258.509702 -133.415691 
L 254.960298 -131.224891 
L 251.410895 -128.979215 
L 247.861492 -126.838101 
L 244.312089 -124.758859 
L 240.762686 -122.661947 
L 237.213283 -120.527929 
L 233.66388 -118.540682 
L 230.114477 -116.487706 
L 226.565073 -114.481778 
L 223.01567 -112.550243 
L 219.466267 -110.656942 
L 215.916864 -108.72265 
L 212.367461 -106.867071 
L 208.818058 -105.020503 
L 205.268655 -103.11345 
L 201.719252 -101.275003 
L 198.169848 -99.517053 
L 194.620445 -97.756707 
L 191.071042 -95.956711 
L 187.521639 -94.186291 
L 183.972236 -92.463113 
L 180.422833 -90.748798 
L 176.87343 -89.025329 
L 173.324027 -87.372398 
L 169.774624 -85.749662 
L 166.22522 -84.148981 
L 162.675817 -82.490955 
L 159.126414 -80.930906 
L 155.577011 -79.311933 
L 152.027608 -77.718803 
L 148.478205 -76.129122 
L 144.928802 -74.666367 
L 141.379399 -73.153034 
L 137.829995 -71.712258 
L 134.280592 -70.261519 
L 130.731189 -68.839744 
L 127.181786 -67.477251 
L 123.632383 -66.154065 
L 120.08298 -64.871262 
L 116.533577 -63.675051 
L 112.984174 -62.5094 
L 109.43477 -61.204574 
L 105.885367 -59.652786 
L 102.335964 -58.637738 
L 98.786561 -58.178701 
L 95.237158 -57.80635 
L 91.687755 -57.541839 
L 88.138352 -56.441532 
L 84.588949 -57.523146 
L 81.039545 -54.89865 
z
" style="stroke: #008000; stroke-opacity: 0.3"/>
    </defs>
    <g clip-path="url(#p0c615cd10f)">
     <use xlink:href="#mf4c436d74a" x="0" y="345.6" style="fill: #008000; fill-opacity: 0.3; stroke: #008000; stroke-opacity: 0.3"/>
    </g>
   </g>
   <g id="matplotlib.axis_1">
    <g id="xtick_1">
     <g id="line2d_1">
      <path d="M 81.039344 303.64 
L 81.039344 26.88 
" clip-path="url(#p0c615cd10f)" style="fill: none; stroke: #b0b0b0; stroke-opacity: 0.3; stroke-width: 0.8; stroke-linecap: square"/>
     </g>
     <g id="line2d_2">
      <defs>
       <path id="mc35208bf93" d="M 0 0 
L 0 3.5 
" style="stroke: #000000; stroke-width: 0.8"/>
      </defs>
      <g>
       <use xlink:href="#mc35208bf93" x="81.039344" y="303.64" style="stroke: #000000; stroke-width: 0.8"/>
      </g>
     </g>
     <g id="text_1">
      <!-- 0.00 -->
      <g transform="translate(69.906532 318.238437) scale(0.1 -0.1)">
       <defs>
        <path id="DejaVuSans-30" d="M 2034 4250 
Q 1547 4250 1301 3770 
Q 1056 3291 1056 2328 
Q 1056 1369 1301 889 
Q 1547 409 2034 409 
Q 2525 409 2770 889 
Q 3016 1369 3016 2328 
Q 3016 3291 2770 3770 
Q 2525 4250 2034 4250 
z
M 2034 4750 
Q 2819 4750 3233 4129 
Q 3647 3509 3647 2328 
Q 3647 1150 3233 529 
Q 2819 -91 2034 -91 
Q 1250 -91 836 529 
Q 422 1150 422 2328 
Q 422 3509 836 4129 
Q 1250 4750 2034 4750 
z
" transform="scale(0.015625)"/>
        <path id="DejaVuSans-2e" d="M 684 794 
L 1344 794 
L 1344 0 
L 684 0 
L 684 794 
z
" transform="scale(0.015625)"/>
       </defs>
       <use xlink:href="#DejaVuSans-30"/>
       <use xlink:href="#DejaVuSans-2e" transform="translate(63.623047 0)"/>
       <use xlink:href="#DejaVuSans-30" transform="translate(95.410156 0)"/>
       <use xlink:href="#DejaVuSans-30" transform="translate(159.033203 0)"/>
      </g>
     </g>
    </g>
    <g id="xtick_2">
     <g id="line2d_3">
      <path d="M 128.711524 303.64 
L 128.711524 26.88 
" clip-path="url(#p0c615cd10f)" style="fill: none; stroke: #b0b0b0; stroke-opacity: 0.3; stroke-width: 0.8; stroke-linecap: square"/>
     </g>
     <g id="line2d_4">
      <g>
       <use xlink:href="#mc35208bf93" x="128.711524" y="303.64" style="stroke: #000000; stroke-width: 0.8"/>
      </g>
     </g>
     <g id="text_2">
      <!-- 0.05 -->
      <g transform="translate(117.578712 318.238437) scale(0.1 -0.1)">
       <defs>
        <path id="DejaVuSans-35" d="M 691 4666 
L 3169 4666 
L 3169 4134 
L 1269 4134 
L 1269 2991 
Q 1406 3038 1543 3061 
Q 1681 3084 1819 3084 
Q 2600 3084 3056 2656 
Q 3513 2228 3513 1497 
Q 3513 744 3044 326 
Q 2575 -91 1722 -91 
Q 1428 -91 1123 -41 
Q 819 9 494 109 
L 494 744 
Q 775 591 1075 516 
Q 1375 441 1709 441 
Q 2250 441 2565 725 
Q 2881 1009 2881 1497 
Q 2881 1984 2565 2268 
Q 2250 2553 1709 2553 
Q 1456 2553 1204 2497 
Q 953 2441 691 2322 
L 691 4666 
z
" transform="scale(0.015625)"/>
       </defs>
       <use xlink:href="#DejaVuSans-30"/>
       <use xlink:href="#DejaVuSans-2e" transform="translate(63.623047 0)"/>
       <use xlink:href="#DejaVuSans-30" transform="translate(95.410156 0)"/>
       <use xlink:href="#DejaVuSans-35" transform="translate(159.033203 0)"/>
      </g>
     </g>
    </g>
    <g id="xtick_3">
     <g id="line2d_5">
      <path d="M 176.383704 303.64 
L 176.383704 26.88 
" clip-path="url(#p0c615cd10f)" style="fill: none; stroke: #b0b0b0; stroke-opacity: 0.3; stroke-width: 0.8; stroke-linecap: square"/>
     </g>
     <g id="line2d_6">
      <g>
       <use xlink:href="#mc35208bf93" x="176.383704" y="303.64" style="stroke: #000000; stroke-width: 0.8"/>
      </g>
     </g>
     <g id="text_3">
      <!-- 0.10 -->
      <g transform="translate(165.250891 318.238437) scale(0.1 -0.1)">
       <defs>
        <path id="DejaVuSans-31" d="M 794 531 
L 1825 531 
L 1825 4091 
L 703 3866 
L 703 4441 
L 1819 4666 
L 2450 4666 
L 2450 531 
L 3481 531 
L 3481 0 
L 794 0 
L 794 531 
z
" transform="scale(0.015625)"/>
       </defs>
       <use xlink:href="#DejaVuSans-30"/>
       <use xlink:href="#DejaVuSans-2e" transform="translate(63.623047 0)"/>
       <use xlink:href="#DejaVuSans-31" transform="translate(95.410156 0)"/>
       <use xlink:href="#DejaVuSans-30" transform="translate(159.033203 0)"/>
      </g>
     </g>
    </g>
    <g id="xtick_4">
     <g id="line2d_7">
      <path d="M 224.055884 303.64 
L 224.055884 26.88 
" clip-path="url(#p0c615cd10f)" style="fill: none; stroke: #b0b0b0; stroke-opacity: 0.3; stroke-width: 0.8; stroke-linecap: square"/>
     </g>
     <g id="line2d_8">
      <g>
       <use xlink:href="#mc35208bf93" x="224.055884" y="303.64" style="stroke: #000000; stroke-width: 0.8"/>
      </g>
     </g>
     <g id="text_4">
      <!-- 0.15 -->
      <g transform="translate(212.923071 318.238437) scale(0.1 -0.1)">
       <use xlink:href="#DejaVuSans-30"/>
       <use xlink:href="#DejaVuSans-2e" transform="translate(63.623047 0)"/>
       <use xlink:href="#DejaVuSans-31" transform="translate(95.410156 0)"/>
       <use xlink:href="#DejaVuSans-35" transform="translate(159.033203 0)"/>
      </g>
     </g>
    </g>
    <g id="xtick_5">
     <g id="line2d_9">
      <path d="M 271.728063 303.64 
L 271.728063 26.88 
" clip-path="url(#p0c615cd10f)" style="fill: none; stroke: #b0b0b0; stroke-opacity: 0.3; stroke-width: 0.8; stroke-linecap: square"/>
     </g>
     <g id="line2d_10">
      <g>
       <use xlink:href="#mc35208bf93" x="271.728063" y="303.64" style="stroke: #000000; stroke-width: 0.8"/>
      </g>
     </g>
     <g id="text_5">
      <!-- 0.20 -->
      <g transform="translate(260.595251 318.238437) scale(0.1 -0.1)">
       <defs>
        <path id="DejaVuSans-32" d="M 1228 531 
L 3431 531 
L 3431 0 
L 469 0 
L 469 531 
Q 828 903 1448 1529 
Q 2069 2156 2228 2338 
Q 2531 2678 2651 2914 
Q 2772 3150 2772 3378 
Q 2772 3750 2511 3984 
Q 2250 4219 1831 4219 
Q 1534 4219 1204 4116 
Q 875 4013 500 3803 
L 500 4441 
Q 881 4594 1212 4672 
Q 1544 4750 1819 4750 
Q 2544 4750 2975 4387 
Q 3406 4025 3406 3419 
Q 3406 3131 3298 2873 
Q 3191 2616 2906 2266 
Q 2828 2175 2409 1742 
Q 1991 1309 1228 531 
z
" transform="scale(0.015625)"/>
       </defs>
       <use xlink:href="#DejaVuSans-30"/>
       <use xlink:href="#DejaVuSans-2e" transform="translate(63.623047 0)"/>
       <use xlink:href="#DejaVuSans-32" transform="translate(95.410156 0)"/>
       <use xlink:href="#DejaVuSans-30" transform="translate(159.033203 0)"/>
      </g>
     </g>
    </g>
    <g id="xtick_6">
     <g id="line2d_11">
      <path d="M 319.400243 303.64 
L 319.400243 26.88 
" clip-path="url(#p0c615cd10f)" style="fill: none; stroke: #b0b0b0; stroke-opacity: 0.3; stroke-width: 0.8; stroke-linecap: square"/>
     </g>
     <g id="line2d_12">
      <g>
       <use xlink:href="#mc35208bf93" x="319.400243" y="303.64" style="stroke: #000000; stroke-width: 0.8"/>
      </g>
     </g>
     <g id="text_6">
      <!-- 0.25 -->
      <g transform="translate(308.267431 318.238437) scale(0.1 -0.1)">
       <use xlink:href="#DejaVuSans-30"/>
       <use xlink:href="#DejaVuSans-2e" transform="translate(63.623047 0)"/>
       <use xlink:href="#DejaVuSans-32" transform="translate(95.410156 0)"/>
       <use xlink:href="#DejaVuSans-35" transform="translate(159.033203 0)"/>
      </g>
     </g>
    </g>
    <g id="xtick_7">
     <g id="line2d_13">
      <path d="M 367.072423 303.64 
L 367.072423 26.88 
" clip-path="url(#p0c615cd10f)" style="fill: none; stroke: #b0b0b0; stroke-opacity: 0.3; stroke-width: 0.8; stroke-linecap: square"/>
     </g>
     <g id="line2d_14">
      <g>
       <use xlink:href="#mc35208bf93" x="367.072423" y="303.64" style="stroke: #000000; stroke-width: 0.8"/>
      </g>
     </g>
     <g id="text_7">
      <!-- 0.30 -->
      <g transform="translate(355.939611 318.238437) scale(0.1 -0.1)">
       <defs>
        <path id="DejaVuSans-33" d="M 2597 2516 
Q 3050 2419 3304 2112 
Q 3559 1806 3559 1356 
Q 3559 666 3084 287 
Q 2609 -91 1734 -91 
Q 1441 -91 1130 -33 
Q 819 25 488 141 
L 488 750 
Q 750 597 1062 519 
Q 1375 441 1716 441 
Q 2309 441 2620 675 
Q 2931 909 2931 1356 
Q 2931 1769 2642 2001 
Q 2353 2234 1838 2234 
L 1294 2234 
L 1294 2753 
L 1863 2753 
Q 2328 2753 2575 2939 
Q 2822 3125 2822 3475 
Q 2822 3834 2567 4026 
Q 2313 4219 1838 4219 
Q 1578 4219 1281 4162 
Q 984 4106 628 3988 
L 628 4550 
Q 988 4650 1302 4700 
Q 1616 4750 1894 4750 
Q 2613 4750 3031 4423 
Q 3450 4097 3450 3541 
Q 3450 3153 3228 2886 
Q 3006 2619 2597 2516 
z
" transform="scale(0.015625)"/>
       </defs>
       <use xlink:href="#DejaVuSans-30"/>
       <use xlink:href="#DejaVuSans-2e" transform="translate(63.623047 0)"/>
       <use xlink:href="#DejaVuSans-33" transform="translate(95.410156 0)"/>
       <use xlink:href="#DejaVuSans-30" transform="translate(159.033203 0)"/>
      </g>
     </g>
    </g>
    <g id="xtick_8">
     <g id="line2d_15">
      <path d="M 414.744603 303.64 
L 414.744603 26.88 
" clip-path="url(#p0c615cd10f)" style="fill: none; stroke: #b0b0b0; stroke-opacity: 0.3; stroke-width: 0.8; stroke-linecap: square"/>
     </g>
     <g id="line2d_16">
      <g>
       <use xlink:href="#mc35208bf93" x="414.744603" y="303.64" style="stroke: #000000; stroke-width: 0.8"/>
      </g>
     </g>
     <g id="text_8">
      <!-- 0.35 -->
      <g transform="translate(403.61179 318.238437) scale(0.1 -0.1)">
       <use xlink:href="#DejaVuSans-30"/>
       <use xlink:href="#DejaVuSans-2e" transform="translate(63.623047 0)"/>
       <use xlink:href="#DejaVuSans-33" transform="translate(95.410156 0)"/>
       <use xlink:href="#DejaVuSans-35" transform="translate(159.033203 0)"/>
      </g>
     </g>
    </g>
    <g id="text_9">
     <!-- Strain [-] -->
     <g transform="translate(234.62875 331.916562) scale(0.1 -0.1)">
      <defs>
       <path id="DejaVuSans-53" d="M 3425 4513 
L 3425 3897 
Q 3066 4069 2747 4153 
Q 2428 4238 2131 4238 
Q 1616 4238 1336 4038 
Q 1056 3838 1056 3469 
Q 1056 3159 1242 3001 
Q 1428 2844 1947 2747 
L 2328 2669 
Q 3034 2534 3370 2195 
Q 3706 1856 3706 1288 
Q 3706 609 3251 259 
Q 2797 -91 1919 -91 
Q 1588 -91 1214 -16 
Q 841 59 441 206 
L 441 856 
Q 825 641 1194 531 
Q 1563 422 1919 422 
Q 2459 422 2753 634 
Q 3047 847 3047 1241 
Q 3047 1584 2836 1778 
Q 2625 1972 2144 2069 
L 1759 2144 
Q 1053 2284 737 2584 
Q 422 2884 422 3419 
Q 422 4038 858 4394 
Q 1294 4750 2059 4750 
Q 2388 4750 2728 4690 
Q 3069 4631 3425 4513 
z
" transform="scale(0.015625)"/>
       <path id="DejaVuSans-74" d="M 1172 4494 
L 1172 3500 
L 2356 3500 
L 2356 3053 
L 1172 3053 
L 1172 1153 
Q 1172 725 1289 603 
Q 1406 481 1766 481 
L 2356 481 
L 2356 0 
L 1766 0 
Q 1100 0 847 248 
Q 594 497 594 1153 
L 594 3053 
L 172 3053 
L 172 3500 
L 594 3500 
L 594 4494 
L 1172 4494 
z
" transform="scale(0.015625)"/>
       <path id="DejaVuSans-72" d="M 2631 2963 
Q 2534 3019 2420 3045 
Q 2306 3072 2169 3072 
Q 1681 3072 1420 2755 
Q 1159 2438 1159 1844 
L 1159 0 
L 581 0 
L 581 3500 
L 1159 3500 
L 1159 2956 
Q 1341 3275 1631 3429 
Q 1922 3584 2338 3584 
Q 2397 3584 2469 3576 
Q 2541 3569 2628 3553 
L 2631 2963 
z
" transform="scale(0.015625)"/>
       <path id="DejaVuSans-61" d="M 2194 1759 
Q 1497 1759 1228 1600 
Q 959 1441 959 1056 
Q 959 750 1161 570 
Q 1363 391 1709 391 
Q 2188 391 2477 730 
Q 2766 1069 2766 1631 
L 2766 1759 
L 2194 1759 
z
M 3341 1997 
L 3341 0 
L 2766 0 
L 2766 531 
Q 2569 213 2275 61 
Q 1981 -91 1556 -91 
Q 1019 -91 701 211 
Q 384 513 384 1019 
Q 384 1609 779 1909 
Q 1175 2209 1959 2209 
L 2766 2209 
L 2766 2266 
Q 2766 2663 2505 2880 
Q 2244 3097 1772 3097 
Q 1472 3097 1187 3025 
Q 903 2953 641 2809 
L 641 3341 
Q 956 3463 1253 3523 
Q 1550 3584 1831 3584 
Q 2591 3584 2966 3190 
Q 3341 2797 3341 1997 
z
" transform="scale(0.015625)"/>
       <path id="DejaVuSans-69" d="M 603 3500 
L 1178 3500 
L 1178 0 
L 603 0 
L 603 3500 
z
M 603 4863 
L 1178 4863 
L 1178 4134 
L 603 4134 
L 603 4863 
z
" transform="scale(0.015625)"/>
       <path id="DejaVuSans-6e" d="M 3513 2113 
L 3513 0 
L 2938 0 
L 2938 2094 
Q 2938 2591 2744 2837 
Q 2550 3084 2163 3084 
Q 1697 3084 1428 2787 
Q 1159 2491 1159 1978 
L 1159 0 
L 581 0 
L 581 3500 
L 1159 3500 
L 1159 2956 
Q 1366 3272 1645 3428 
Q 1925 3584 2291 3584 
Q 2894 3584 3203 3211 
Q 3513 2838 3513 2113 
z
" transform="scale(0.015625)"/>
       <path id="DejaVuSans-20" transform="scale(0.015625)"/>
       <path id="DejaVuSans-5b" d="M 550 4863 
L 1875 4863 
L 1875 4416 
L 1125 4416 
L 1125 -397 
L 1875 -397 
L 1875 -844 
L 550 -844 
L 550 4863 
z
" transform="scale(0.015625)"/>
       <path id="DejaVuSans-2d" d="M 313 2009 
L 1997 2009 
L 1997 1497 
L 313 1497 
L 313 2009 
z
" transform="scale(0.015625)"/>
       <path id="DejaVuSans-5d" d="M 1947 4863 
L 1947 -844 
L 622 -844 
L 622 -397 
L 1369 -397 
L 1369 4416 
L 622 4416 
L 622 4863 
L 1947 4863 
z
" transform="scale(0.015625)"/>
      </defs>
      <use xlink:href="#DejaVuSans-53"/>
      <use xlink:href="#DejaVuSans-74" transform="translate(63.476562 0)"/>
      <use xlink:href="#DejaVuSans-72" transform="translate(102.685547 0)"/>
      <use xlink:href="#DejaVuSans-61" transform="translate(143.798828 0)"/>
      <use xlink:href="#DejaVuSans-69" transform="translate(205.078125 0)"/>
      <use xlink:href="#DejaVuSans-6e" transform="translate(232.861328 0)"/>
      <use xlink:href="#DejaVuSans-20" transform="translate(296.240234 0)"/>
      <use xlink:href="#DejaVuSans-5b" transform="translate(328.027344 0)"/>
      <use xlink:href="#DejaVuSans-2d" transform="translate(367.041016 0)"/>
      <use xlink:href="#DejaVuSans-5d" transform="translate(403.125 0)"/>
     </g>
    </g>
   </g>
   <g id="matplotlib.axis_2">
    <g id="ytick_1">
     <g id="line2d_17">
      <path d="M 63.47 290.602829 
L 450 290.602829 
" clip-path="url(#p0c615cd10f)" style="fill: none; stroke: #b0b0b0; stroke-opacity: 0.3; stroke-width: 0.8; stroke-linecap: square"/>
     </g>
     <g id="line2d_18">
      <defs>
       <path id="m6a02c4f9e1" d="M 0 0 
L -3.5 0 
" style="stroke: #000000; stroke-width: 0.8"/>
      </defs>
      <g>
       <use xlink:href="#m6a02c4f9e1" x="63.47" y="290.602829" style="stroke: #000000; stroke-width: 0.8"/>
      </g>
     </g>
     <g id="text_10">
      <!-- 0 -->
      <g transform="translate(50.1075 294.402048) scale(0.1 -0.1)">
       <use xlink:href="#DejaVuSans-30"/>
      </g>
     </g>
    </g>
    <g id="ytick_2">
     <g id="line2d_19">
      <path d="M 63.47 246.031728 
L 450 246.031728 
" clip-path="url(#p0c615cd10f)" style="fill: none; stroke: #b0b0b0; stroke-opacity: 0.3; stroke-width: 0.8; stroke-linecap: square"/>
     </g>
     <g id="line2d_20">
      <g>
       <use xlink:href="#m6a02c4f9e1" x="63.47" y="246.031728" style="stroke: #000000; stroke-width: 0.8"/>
      </g>
     </g>
     <g id="text_11">
      <!-- 2000 -->
      <g transform="translate(31.02 249.830946) scale(0.1 -0.1)">
       <use xlink:href="#DejaVuSans-32"/>
       <use xlink:href="#DejaVuSans-30" transform="translate(63.623047 0)"/>
       <use xlink:href="#DejaVuSans-30" transform="translate(127.246094 0)"/>
       <use xlink:href="#DejaVuSans-30" transform="translate(190.869141 0)"/>
      </g>
     </g>
    </g>
    <g id="ytick_3">
     <g id="line2d_21">
      <path d="M 63.47 201.460626 
L 450 201.460626 
" clip-path="url(#p0c615cd10f)" style="fill: none; stroke: #b0b0b0; stroke-opacity: 0.3; stroke-width: 0.8; stroke-linecap: square"/>
     </g>
     <g id="line2d_22">
      <g>
       <use xlink:href="#m6a02c4f9e1" x="63.47" y="201.460626" style="stroke: #000000; stroke-width: 0.8"/>
      </g>
     </g>
     <g id="text_12">
      <!-- 4000 -->
      <g transform="translate(31.02 205.259845) scale(0.1 -0.1)">
       <defs>
        <path id="DejaVuSans-34" d="M 2419 4116 
L 825 1625 
L 2419 1625 
L 2419 4116 
z
M 2253 4666 
L 3047 4666 
L 3047 1625 
L 3713 1625 
L 3713 1100 
L 3047 1100 
L 3047 0 
L 2419 0 
L 2419 1100 
L 313 1100 
L 313 1709 
L 2253 4666 
z
" transform="scale(0.015625)"/>
       </defs>
       <use xlink:href="#DejaVuSans-34"/>
       <use xlink:href="#DejaVuSans-30" transform="translate(63.623047 0)"/>
       <use xlink:href="#DejaVuSans-30" transform="translate(127.246094 0)"/>
       <use xlink:href="#DejaVuSans-30" transform="translate(190.869141 0)"/>
      </g>
     </g>
    </g>
    <g id="ytick_4">
     <g id="line2d_23">
      <path d="M 63.47 156.889524 
L 450 156.889524 
" clip-path="url(#p0c615cd10f)" style="fill: none; stroke: #b0b0b0; stroke-opacity: 0.3; stroke-width: 0.8; stroke-linecap: square"/>
     </g>
     <g id="line2d_24">
      <g>
       <use xlink:href="#m6a02c4f9e1" x="63.47" y="156.889524" style="stroke: #000000; stroke-width: 0.8"/>
      </g>
     </g>
     <g id="text_13">
      <!-- 6000 -->
      <g transform="translate(31.02 160.688743) scale(0.1 -0.1)">
       <defs>
        <path id="DejaVuSans-36" d="M 2113 2584 
Q 1688 2584 1439 2293 
Q 1191 2003 1191 1497 
Q 1191 994 1439 701 
Q 1688 409 2113 409 
Q 2538 409 2786 701 
Q 3034 994 3034 1497 
Q 3034 2003 2786 2293 
Q 2538 2584 2113 2584 
z
M 3366 4563 
L 3366 3988 
Q 3128 4100 2886 4159 
Q 2644 4219 2406 4219 
Q 1781 4219 1451 3797 
Q 1122 3375 1075 2522 
Q 1259 2794 1537 2939 
Q 1816 3084 2150 3084 
Q 2853 3084 3261 2657 
Q 3669 2231 3669 1497 
Q 3669 778 3244 343 
Q 2819 -91 2113 -91 
Q 1303 -91 875 529 
Q 447 1150 447 2328 
Q 447 3434 972 4092 
Q 1497 4750 2381 4750 
Q 2619 4750 2861 4703 
Q 3103 4656 3366 4563 
z
" transform="scale(0.015625)"/>
       </defs>
       <use xlink:href="#DejaVuSans-36"/>
       <use xlink:href="#DejaVuSans-30" transform="translate(63.623047 0)"/>
       <use xlink:href="#DejaVuSans-30" transform="translate(127.246094 0)"/>
       <use xlink:href="#DejaVuSans-30" transform="translate(190.869141 0)"/>
      </g>
     </g>
    </g>
    <g id="ytick_5">
     <g id="line2d_25">
      <path d="M 63.47 112.318423 
L 450 112.318423 
" clip-path="url(#p0c615cd10f)" style="fill: none; stroke: #b0b0b0; stroke-opacity: 0.3; stroke-width: 0.8; stroke-linecap: square"/>
     </g>
     <g id="line2d_26">
      <g>
       <use xlink:href="#m6a02c4f9e1" x="63.47" y="112.318423" style="stroke: #000000; stroke-width: 0.8"/>
      </g>
     </g>
     <g id="text_14">
      <!-- 8000 -->
      <g transform="translate(31.02 116.117642) scale(0.1 -0.1)">
       <defs>
        <path id="DejaVuSans-38" d="M 2034 2216 
Q 1584 2216 1326 1975 
Q 1069 1734 1069 1313 
Q 1069 891 1326 650 
Q 1584 409 2034 409 
Q 2484 409 2743 651 
Q 3003 894 3003 1313 
Q 3003 1734 2745 1975 
Q 2488 2216 2034 2216 
z
M 1403 2484 
Q 997 2584 770 2862 
Q 544 3141 544 3541 
Q 544 4100 942 4425 
Q 1341 4750 2034 4750 
Q 2731 4750 3128 4425 
Q 3525 4100 3525 3541 
Q 3525 3141 3298 2862 
Q 3072 2584 2669 2484 
Q 3125 2378 3379 2068 
Q 3634 1759 3634 1313 
Q 3634 634 3220 271 
Q 2806 -91 2034 -91 
Q 1263 -91 848 271 
Q 434 634 434 1313 
Q 434 1759 690 2068 
Q 947 2378 1403 2484 
z
M 1172 3481 
Q 1172 3119 1398 2916 
Q 1625 2713 2034 2713 
Q 2441 2713 2670 2916 
Q 2900 3119 2900 3481 
Q 2900 3844 2670 4047 
Q 2441 4250 2034 4250 
Q 1625 4250 1398 4047 
Q 1172 3844 1172 3481 
z
" transform="scale(0.015625)"/>
       </defs>
       <use xlink:href="#DejaVuSans-38"/>
       <use xlink:href="#DejaVuSans-30" transform="translate(63.623047 0)"/>
       <use xlink:href="#DejaVuSans-30" transform="translate(127.246094 0)"/>
       <use xlink:href="#DejaVuSans-30" transform="translate(190.869141 0)"/>
      </g>
     </g>
    </g>
    <g id="ytick_6">
     <g id="line2d_27">
      <path d="M 63.47 67.747321 
L 450 67.747321 
" clip-path="url(#p0c615cd10f)" style="fill: none; stroke: #b0b0b0; stroke-opacity: 0.3; stroke-width: 0.8; stroke-linecap: square"/>
     </g>
     <g id="line2d_28">
      <g>
       <use xlink:href="#m6a02c4f9e1" x="63.47" y="67.747321" style="stroke: #000000; stroke-width: 0.8"/>
      </g>
     </g>
     <g id="text_15">
      <!-- 10000 -->
      <g transform="translate(24.6575 71.54654) scale(0.1 -0.1)">
       <use xlink:href="#DejaVuSans-31"/>
       <use xlink:href="#DejaVuSans-30" transform="translate(63.623047 0)"/>
       <use xlink:href="#DejaVuSans-30" transform="translate(127.246094 0)"/>
       <use xlink:href="#DejaVuSans-30" transform="translate(190.869141 0)"/>
       <use xlink:href="#DejaVuSans-30" transform="translate(254.492188 0)"/>
      </g>
     </g>
    </g>
    <g id="text_16">
     <!-- Stress [Pa] -->
     <g transform="translate(18.577813 191.967812) rotate(-90) scale(0.1 -0.1)">
      <defs>
       <path id="DejaVuSans-65" d="M 3597 1894 
L 3597 1613 
L 953 1613 
Q 991 1019 1311 708 
Q 1631 397 2203 397 
Q 2534 397 2845 478 
Q 3156 559 3463 722 
L 3463 178 
Q 3153 47 2828 -22 
Q 2503 -91 2169 -91 
Q 1331 -91 842 396 
Q 353 884 353 1716 
Q 353 2575 817 3079 
Q 1281 3584 2069 3584 
Q 2775 3584 3186 3129 
Q 3597 2675 3597 1894 
z
M 3022 2063 
Q 3016 2534 2758 2815 
Q 2500 3097 2075 3097 
Q 1594 3097 1305 2825 
Q 1016 2553 972 2059 
L 3022 2063 
z
" transform="scale(0.015625)"/>
       <path id="DejaVuSans-73" d="M 2834 3397 
L 2834 2853 
Q 2591 2978 2328 3040 
Q 2066 3103 1784 3103 
Q 1356 3103 1142 2972 
Q 928 2841 928 2578 
Q 928 2378 1081 2264 
Q 1234 2150 1697 2047 
L 1894 2003 
Q 2506 1872 2764 1633 
Q 3022 1394 3022 966 
Q 3022 478 2636 193 
Q 2250 -91 1575 -91 
Q 1294 -91 989 -36 
Q 684 19 347 128 
L 347 722 
Q 666 556 975 473 
Q 1284 391 1588 391 
Q 1994 391 2212 530 
Q 2431 669 2431 922 
Q 2431 1156 2273 1281 
Q 2116 1406 1581 1522 
L 1381 1569 
Q 847 1681 609 1914 
Q 372 2147 372 2553 
Q 372 3047 722 3315 
Q 1072 3584 1716 3584 
Q 2034 3584 2315 3537 
Q 2597 3491 2834 3397 
z
" transform="scale(0.015625)"/>
       <path id="DejaVuSans-50" d="M 1259 4147 
L 1259 2394 
L 2053 2394 
Q 2494 2394 2734 2622 
Q 2975 2850 2975 3272 
Q 2975 3691 2734 3919 
Q 2494 4147 2053 4147 
L 1259 4147 
z
M 628 4666 
L 2053 4666 
Q 2838 4666 3239 4311 
Q 3641 3956 3641 3272 
Q 3641 2581 3239 2228 
Q 2838 1875 2053 1875 
L 1259 1875 
L 1259 0 
L 628 0 
L 628 4666 
z
" transform="scale(0.015625)"/>
      </defs>
      <use xlink:href="#DejaVuSans-53"/>
      <use xlink:href="#DejaVuSans-74" transform="translate(63.476562 0)"/>
      <use xlink:href="#DejaVuSans-72" transform="translate(102.685547 0)"/>
      <use xlink:href="#DejaVuSans-65" transform="translate(141.548828 0)"/>
      <use xlink:href="#DejaVuSans-73" transform="translate(203.072266 0)"/>
      <use xlink:href="#DejaVuSans-73" transform="translate(255.171875 0)"/>
      <use xlink:href="#DejaVuSans-20" transform="translate(307.271484 0)"/>
      <use xlink:href="#DejaVuSans-5b" transform="translate(339.058594 0)"/>
      <use xlink:href="#DejaVuSans-50" transform="translate(378.072266 0)"/>
      <use xlink:href="#DejaVuSans-61" transform="translate(433.875 0)"/>
      <use xlink:href="#DejaVuSans-5d" transform="translate(495.154297 0)"/>
     </g>
    </g>
   </g>
   <g id="line2d_29">
    <path d="M 81.25531 290.714802 
L 81.761737 290.530656 
L 82.268164 290.303852 
L 82.774592 290.261632 
L 83.281019 290.548269 
L 83.787446 290.78127 
L 84.293873 290.753007 
L 84.800301 290.633487 
L 85.306728 290.54684 
L 85.813155 290.431421 
L 86.319582 290.348817 
L 86.82601 290.186192 
L 87.332437 290.017766 
L 87.838864 289.893731 
L 88.345291 289.786512 
L 88.851719 289.697602 
L 89.358146 289.639155 
L 89.864573 289.61111 
L 90.371 289.530513 
L 90.877428 289.383217 
L 91.383855 289.295213 
L 91.890282 289.209297 
L 92.396709 289.074164 
L 92.903137 288.883247 
L 93.409564 288.741993 
L 93.915991 288.59449 
L 94.422418 288.480093 
L 94.928846 288.374829 
L 95.435273 288.262402 
L 95.9417 288.13414 
L 96.448127 288.002509 
L 96.954555 287.845016 
L 97.460982 287.688727 
L 97.967409 287.528064 
L 98.473836 287.366269 
L 98.980264 287.206968 
L 99.486691 287.05486 
L 99.993118 286.904242 
L 100.499545 286.753071 
L 101.005973 286.602931 
L 101.5124 286.43906 
L 102.018827 286.262891 
L 102.525254 286.080489 
L 103.031682 285.90447 
L 103.538109 285.729093 
L 104.044536 285.561074 
L 104.550963 285.395392 
L 105.057391 285.223211 
L 105.563818 285.038102 
L 106.070245 284.846391 
L 106.576672 284.655495 
L 107.0831 284.466463 
L 107.589527 284.278897 
L 108.095954 284.090575 
L 108.602381 283.902138 
L 109.108809 283.710879 
L 109.615236 283.514632 
L 110.121663 283.31348 
L 110.62809 283.111766 
L 111.134518 282.912213 
L 111.640945 282.714519 
L 112.147372 282.513333 
L 112.653799 282.308866 
L 113.160227 282.103003 
L 113.666654 281.889557 
L 114.173081 281.669609 
L 114.679508 281.456007 
L 115.185936 281.245493 
L 115.692363 281.027564 
L 116.19879 280.80692 
L 116.705217 280.582304 
L 117.211645 280.354231 
L 117.718072 280.125695 
L 118.224499 279.901475 
L 118.730926 279.679473 
L 119.237354 279.451948 
L 119.743781 279.213961 
L 120.250208 278.981929 
L 120.756635 278.747804 
L 121.263063 278.51013 
L 121.76949 278.277723 
L 122.275917 278.043412 
L 122.782344 277.804553 
L 123.288772 277.569731 
L 123.795199 277.332385 
L 124.301626 277.091 
L 124.808053 276.851322 
L 125.314481 276.604358 
L 125.820908 276.357466 
L 126.327335 276.119582 
L 126.833762 275.881489 
L 127.34019 275.643784 
L 127.846617 275.403695 
L 128.353044 275.159389 
L 128.859471 274.913541 
L 129.365899 274.676119 
L 129.872326 274.442523 
L 130.378753 274.210216 
L 130.88518 273.96986 
L 131.391608 274.80769 
" clip-path="url(#p0c615cd10f)" style="fill: none; stroke: #000000; stroke-width: 2; stroke-linecap: square"/>
   </g>
   <g id="line2d_30">
    <path d="M 81.040052 290.728197 
L 82.562019 289.776415 
L 84.083987 289.894506 
L 85.605954 290.865028 
L 87.127921 290.599276 
L 88.649888 290.500977 
L 90.171856 290.30796 
L 91.693823 289.667174 
L 93.21579 288.979607 
L 94.737757 288.715086 
L 96.259724 288.398369 
L 97.781692 287.775109 
L 99.303659 287.138015 
L 100.825626 286.627429 
L 102.347593 286.239393 
L 103.869561 285.813569 
L 105.391528 285.309893 
L 106.913495 284.768491 
L 108.435462 284.232309 
L 109.957429 283.670474 
L 111.479397 283.123999 
L 113.001364 282.556345 
L 114.523331 281.965782 
L 116.045298 281.366471 
L 117.567266 280.755073 
L 119.089233 280.13302 
L 120.6112 279.49983 
L 122.133167 278.860603 
L 123.655134 278.227634 
L 125.177102 277.56513 
L 126.699069 276.896537 
L 128.221036 276.234214 
L 129.743003 275.566153 
L 131.264971 274.883279 
L 132.786938 274.206303 
L 134.308905 273.531303 
L 135.830872 272.836416 
L 137.352839 272.138409 
L 138.874807 271.429645 
L 140.396774 270.732403 
L 141.918741 270.019192 
L 143.440708 269.305625 
L 144.962676 268.590364 
L 146.484643 267.880937 
L 148.00661 267.166505 
L 149.528577 266.438227 
L 151.050544 265.717453 
L 152.572512 264.994798 
L 154.094479 264.267071 
L 155.616446 263.52539 
L 157.138413 262.781694 
L 158.660381 262.031684 
L 160.182348 261.284488 
L 161.704315 260.540453 
L 163.226282 259.791444 
L 164.748249 259.041392 
L 166.270217 258.296792 
L 167.792184 257.539238 
L 169.314151 256.771787 
L 170.836118 256.000487 
L 172.358085 255.23349 
L 173.880053 254.445397 
L 175.40202 253.666988 
L 176.923987 252.897359 
L 178.445954 252.121769 
L 179.967922 251.340631 
L 181.489889 250.559517 
L 183.011856 249.770824 
L 184.533823 248.972189 
L 186.05579 248.181414 
L 187.577758 247.380478 
L 189.099725 246.578849 
L 190.621692 245.767573 
L 192.143659 244.94658 
L 193.665627 244.126551 
L 195.187594 243.311169 
L 196.709561 242.49819 
L 198.231528 241.6898 
L 199.753495 240.872182 
L 201.275463 240.045769 
L 202.79743 239.218986 
L 204.319397 238.401311 
L 205.841364 237.567114 
L 207.363332 236.735665 
L 208.885299 235.900743 
L 210.407266 235.055947 
L 211.929233 234.208135 
L 213.4512 233.360197 
L 214.973168 232.518419 
L 216.495135 231.663199 
L 218.017102 230.803068 
L 219.539069 229.904639 
L 221.061037 229.002374 
L 222.583004 228.071337 
L 224.104971 227.129562 
L 225.626938 226.227626 
L 227.148905 225.334677 
L 228.670873 224.483455 
L 230.19284 223.716872 
L 231.714807 227.052902 
" clip-path="url(#p0c615cd10f)" style="fill: none; stroke: #ff0000; stroke-width: 2; stroke-linecap: square"/>
   </g>
   <g id="line2d_31">
    <path d="M 81.040307 290.771229 
L 83.57587 289.260526 
L 86.111432 290.162459 
L 88.646994 289.649235 
L 91.182557 289.177954 
L 93.718119 288.819411 
L 96.253681 288.302412 
L 98.789244 287.837602 
L 101.324806 287.390617 
L 103.860369 286.322229 
L 106.395931 285.347008 
L 108.931493 284.506064 
L 111.467056 283.658966 
L 114.002618 282.770043 
L 116.538181 281.852817 
L 119.073743 280.907579 
L 121.609305 279.933624 
L 124.144868 278.960709 
L 126.68043 277.993769 
L 129.215993 276.987243 
L 131.751555 275.949131 
L 134.287117 274.882031 
L 136.82268 273.803976 
L 139.358242 272.72449 
L 141.893804 271.647695 
L 144.429367 270.57763 
L 146.964929 269.478368 
L 149.500492 268.345287 
L 152.036054 267.201413 
L 154.571616 266.053287 
L 157.107179 264.877361 
L 159.642741 263.725219 
L 162.178304 262.553334 
L 164.713866 261.376207 
L 167.249428 260.182006 
L 169.784991 258.980028 
L 172.320553 257.784823 
L 174.856116 256.589391 
L 177.391678 255.367828 
L 179.92724 254.149065 
L 182.462803 252.919954 
L 184.998365 251.660549 
L 187.533928 250.382063 
L 190.06949 249.113747 
L 192.605052 247.833524 
L 195.140615 246.566668 
L 197.676177 245.26385 
L 200.211739 243.976222 
L 202.747302 242.672758 
L 205.282864 241.353112 
L 207.818427 240.016237 
L 210.353989 238.687093 
L 212.889551 237.337233 
L 215.425114 235.98373 
L 217.960676 234.615398 
L 220.496239 233.230128 
L 223.031801 231.835403 
L 225.567363 230.439317 
L 228.102926 229.014772 
L 230.638488 227.579726 
L 233.174051 226.126396 
L 235.709613 224.663244 
L 238.245175 223.183859 
L 240.780738 221.702216 
L 243.3163 220.20451 
L 245.851862 218.685848 
L 248.387425 217.159101 
L 250.922987 215.593637 
L 253.45855 214.015956 
L 255.994112 212.429987 
L 258.529674 210.841469 
L 261.065237 209.226704 
L 263.600799 207.607456 
L 266.136362 205.95957 
L 268.671924 204.293449 
L 271.207486 202.614916 
L 273.743049 200.931768 
L 276.278611 199.208689 
L 278.814174 197.476953 
L 281.349736 195.706446 
L 283.885298 193.919327 
L 286.420861 192.103707 
L 288.956423 190.288888 
L 291.491985 188.442722 
L 294.027548 186.587266 
L 296.56311 184.696867 
L 299.098673 182.787132 
L 301.634235 180.85663 
L 304.169797 178.90628 
L 306.70536 176.932346 
L 309.240922 174.930291 
L 311.776485 172.898398 
L 314.312047 170.839054 
L 316.847609 168.746257 
L 319.383172 166.593636 
L 321.918734 164.459788 
L 324.454297 162.278322 
L 326.989859 160.122757 
L 329.525421 158.114878 
L 332.060984 167.908585 
" clip-path="url(#p0c615cd10f)" style="fill: none; stroke: #0000ff; stroke-width: 2; stroke-linecap: square"/>
   </g>
   <g id="line2d_32">
    <path d="M 81.039545 290.754584 
L 84.588949 288.875222 
L 88.138352 289.231494 
L 91.687755 288.144939 
L 95.237158 287.956692 
L 98.786561 287.558244 
L 102.335964 287.099604 
L 105.885367 286.109296 
L 109.43477 284.701129 
L 112.984174 283.426952 
L 116.533577 282.22712 
L 120.08298 281.028852 
L 123.632383 279.779007 
L 127.181786 278.45793 
L 130.731189 277.105446 
L 134.280592 275.737075 
L 137.829995 274.302194 
L 141.379399 272.837108 
L 144.928802 271.325589 
L 148.478205 269.843757 
L 152.027608 268.270889 
L 155.577011 266.705178 
L 159.126414 265.129341 
L 162.675817 263.559275 
L 166.22522 261.919616 
L 169.774624 260.268476 
L 173.324027 258.641988 
L 176.87343 256.964452 
L 180.422833 255.228093 
L 183.972236 253.491472 
L 187.521639 251.787054 
L 191.071042 250.014784 
L 194.620445 248.228205 
L 198.169848 246.458268 
L 201.719252 244.679963 
L 205.268655 242.850374 
L 208.818058 240.976448 
L 212.367461 239.131053 
L 215.916864 237.274995 
L 219.466267 235.369302 
L 223.01567 233.469223 
L 226.565073 231.539275 
L 230.114477 229.537391 
L 233.66388 227.515565 
L 237.213283 225.505795 
L 240.762686 223.409217 
L 244.312089 221.309968 
L 247.861492 219.2206 
L 251.410895 217.087946 
L 254.960298 214.882627 
L 258.509702 212.697202 
L 262.059105 210.475287 
L 265.608508 208.200184 
L 269.157911 205.885615 
L 272.707314 203.557022 
L 276.256717 201.157326 
L 279.80612 198.69503 
L 283.355523 196.203387 
L 286.904927 193.67747 
L 290.45433 191.115294 
L 294.003733 188.514878 
L 297.553136 185.897285 
L 301.102539 183.228176 
L 304.651942 180.473123 
L 308.201345 177.679459 
L 311.750748 174.806118 
L 315.300152 171.881394 
L 318.849555 168.88152 
L 322.398958 165.876453 
L 325.948361 162.793788 
L 329.497764 159.652528 
L 333.047167 156.461508 
L 336.59657 153.244834 
L 340.145973 149.933061 
L 343.695376 146.550075 
L 347.24478 143.152676 
L 350.794183 139.670755 
L 354.343586 136.124081 
L 357.892989 132.49688 
L 361.442392 128.818434 
L 364.991795 125.036986 
L 368.541198 121.167022 
L 372.090601 117.228195 
L 375.640005 113.208977 
L 379.189408 109.086796 
L 382.738811 104.877879 
L 386.288214 100.573634 
L 389.837617 96.166913 
L 393.38702 91.661539 
L 396.936423 87.041376 
L 400.485826 82.343004 
L 404.03523 77.548924 
L 407.584633 72.602512 
L 411.134036 67.551268 
L 414.683439 62.443571 
L 418.232842 57.338904 
L 421.782245 52.136324 
L 425.331648 46.857387 
L 428.881051 41.786355 
L 432.430455 86.371738 
" clip-path="url(#p0c615cd10f)" style="fill: none; stroke: #008000; stroke-width: 2; stroke-linecap: square"/>
   </g>
   <g id="patch_3">
    <path d="M 63.47 303.64 
L 63.47 26.88 
" style="fill: none; stroke: #000000; stroke-width: 0.8; stroke-linejoin: miter; stroke-linecap: square"/>
   </g>
   <g id="patch_4">
    <path d="M 450 303.64 
L 450 26.88 
" style="fill: none; stroke: #000000; stroke-width: 0.8; stroke-linejoin: miter; stroke-linecap: square"/>
   </g>
   <g id="patch_5">
    <path d="M 63.47 303.64 
L 450 303.64 
" style="fill: none; stroke: #000000; stroke-width: 0.8; stroke-linejoin: miter; stroke-linecap: square"/>
   </g>
   <g id="patch_6">
    <path d="M 63.47 26.88 
L 450 26.88 
" style="fill: none; stroke: #000000; stroke-width: 0.8; stroke-linejoin: miter; stroke-linecap: square"/>
   </g>
   <g id="text_17">
    <!-- 2025-07-22 - Stress vs Strain by Impact Velocity (with Error Bands) -->
    <g transform="translate(55.531563 20.88) scale(0.12 -0.12)">
     <defs>
      <path id="DejaVuSans-37" d="M 525 4666 
L 3525 4666 
L 3525 4397 
L 1831 0 
L 1172 0 
L 2766 4134 
L 525 4134 
L 525 4666 
z
" transform="scale(0.015625)"/>
      <path id="DejaVuSans-76" d="M 191 3500 
L 800 3500 
L 1894 563 
L 2988 3500 
L 3597 3500 
L 2284 0 
L 1503 0 
L 191 3500 
z
" transform="scale(0.015625)"/>
      <path id="DejaVuSans-62" d="M 3116 1747 
Q 3116 2381 2855 2742 
Q 2594 3103 2138 3103 
Q 1681 3103 1420 2742 
Q 1159 2381 1159 1747 
Q 1159 1113 1420 752 
Q 1681 391 2138 391 
Q 2594 391 2855 752 
Q 3116 1113 3116 1747 
z
M 1159 2969 
Q 1341 3281 1617 3432 
Q 1894 3584 2278 3584 
Q 2916 3584 3314 3078 
Q 3713 2572 3713 1747 
Q 3713 922 3314 415 
Q 2916 -91 2278 -91 
Q 1894 -91 1617 61 
Q 1341 213 1159 525 
L 1159 0 
L 581 0 
L 581 4863 
L 1159 4863 
L 1159 2969 
z
" transform="scale(0.015625)"/>
      <path id="DejaVuSans-79" d="M 2059 -325 
Q 1816 -950 1584 -1140 
Q 1353 -1331 966 -1331 
L 506 -1331 
L 506 -850 
L 844 -850 
Q 1081 -850 1212 -737 
Q 1344 -625 1503 -206 
L 1606 56 
L 191 3500 
L 800 3500 
L 1894 763 
L 2988 3500 
L 3597 3500 
L 2059 -325 
z
" transform="scale(0.015625)"/>
      <path id="DejaVuSans-49" d="M 628 4666 
L 1259 4666 
L 1259 0 
L 628 0 
L 628 4666 
z
" transform="scale(0.015625)"/>
      <path id="DejaVuSans-6d" d="M 3328 2828 
Q 3544 3216 3844 3400 
Q 4144 3584 4550 3584 
Q 5097 3584 5394 3201 
Q 5691 2819 5691 2113 
L 5691 0 
L 5113 0 
L 5113 2094 
Q 5113 2597 4934 2840 
Q 4756 3084 4391 3084 
Q 3944 3084 3684 2787 
Q 3425 2491 3425 1978 
L 3425 0 
L 2847 0 
L 2847 2094 
Q 2847 2600 2669 2842 
Q 2491 3084 2119 3084 
Q 1678 3084 1418 2786 
Q 1159 2488 1159 1978 
L 1159 0 
L 581 0 
L 581 3500 
L 1159 3500 
L 1159 2956 
Q 1356 3278 1631 3431 
Q 1906 3584 2284 3584 
Q 2666 3584 2933 3390 
Q 3200 3197 3328 2828 
z
" transform="scale(0.015625)"/>
      <path id="DejaVuSans-70" d="M 1159 525 
L 1159 -1331 
L 581 -1331 
L 581 3500 
L 1159 3500 
L 1159 2969 
Q 1341 3281 1617 3432 
Q 1894 3584 2278 3584 
Q 2916 3584 3314 3078 
Q 3713 2572 3713 1747 
Q 3713 922 3314 415 
Q 2916 -91 2278 -91 
Q 1894 -91 1617 61 
Q 1341 213 1159 525 
z
M 3116 1747 
Q 3116 2381 2855 2742 
Q 2594 3103 2138 3103 
Q 1681 3103 1420 2742 
Q 1159 2381 1159 1747 
Q 1159 1113 1420 752 
Q 1681 391 2138 391 
Q 2594 391 2855 752 
Q 3116 1113 3116 1747 
z
" transform="scale(0.015625)"/>
      <path id="DejaVuSans-63" d="M 3122 3366 
L 3122 2828 
Q 2878 2963 2633 3030 
Q 2388 3097 2138 3097 
Q 1578 3097 1268 2742 
Q 959 2388 959 1747 
Q 959 1106 1268 751 
Q 1578 397 2138 397 
Q 2388 397 2633 464 
Q 2878 531 3122 666 
L 3122 134 
Q 2881 22 2623 -34 
Q 2366 -91 2075 -91 
Q 1284 -91 818 406 
Q 353 903 353 1747 
Q 353 2603 823 3093 
Q 1294 3584 2113 3584 
Q 2378 3584 2631 3529 
Q 2884 3475 3122 3366 
z
" transform="scale(0.015625)"/>
      <path id="DejaVuSans-56" d="M 1831 0 
L 50 4666 
L 709 4666 
L 2188 738 
L 3669 4666 
L 4325 4666 
L 2547 0 
L 1831 0 
z
" transform="scale(0.015625)"/>
      <path id="DejaVuSans-6c" d="M 603 4863 
L 1178 4863 
L 1178 0 
L 603 0 
L 603 4863 
z
" transform="scale(0.015625)"/>
      <path id="DejaVuSans-6f" d="M 1959 3097 
Q 1497 3097 1228 2736 
Q 959 2375 959 1747 
Q 959 1119 1226 758 
Q 1494 397 1959 397 
Q 2419 397 2687 759 
Q 2956 1122 2956 1747 
Q 2956 2369 2687 2733 
Q 2419 3097 1959 3097 
z
M 1959 3584 
Q 2709 3584 3137 3096 
Q 3566 2609 3566 1747 
Q 3566 888 3137 398 
Q 2709 -91 1959 -91 
Q 1206 -91 779 398 
Q 353 888 353 1747 
Q 353 2609 779 3096 
Q 1206 3584 1959 3584 
z
" transform="scale(0.015625)"/>
      <path id="DejaVuSans-28" d="M 1984 4856 
Q 1566 4138 1362 3434 
Q 1159 2731 1159 2009 
Q 1159 1288 1364 580 
Q 1569 -128 1984 -844 
L 1484 -844 
Q 1016 -109 783 600 
Q 550 1309 550 2009 
Q 550 2706 781 3412 
Q 1013 4119 1484 4856 
L 1984 4856 
z
" transform="scale(0.015625)"/>
      <path id="DejaVuSans-77" d="M 269 3500 
L 844 3500 
L 1563 769 
L 2278 3500 
L 2956 3500 
L 3675 769 
L 4391 3500 
L 4966 3500 
L 4050 0 
L 3372 0 
L 2619 2869 
L 1863 0 
L 1184 0 
L 269 3500 
z
" transform="scale(0.015625)"/>
      <path id="DejaVuSans-68" d="M 3513 2113 
L 3513 0 
L 2938 0 
L 2938 2094 
Q 2938 2591 2744 2837 
Q 2550 3084 2163 3084 
Q 1697 3084 1428 2787 
Q 1159 2491 1159 1978 
L 1159 0 
L 581 0 
L 581 4863 
L 1159 4863 
L 1159 2956 
Q 1366 3272 1645 3428 
Q 1925 3584 2291 3584 
Q 2894 3584 3203 3211 
Q 3513 2838 3513 2113 
z
" transform="scale(0.015625)"/>
      <path id="DejaVuSans-45" d="M 628 4666 
L 3578 4666 
L 3578 4134 
L 1259 4134 
L 1259 2753 
L 3481 2753 
L 3481 2222 
L 1259 2222 
L 1259 531 
L 3634 531 
L 3634 0 
L 628 0 
L 628 4666 
z
" transform="scale(0.015625)"/>
      <path id="DejaVuSans-42" d="M 1259 2228 
L 1259 519 
L 2272 519 
Q 2781 519 3026 730 
Q 3272 941 3272 1375 
Q 3272 1813 3026 2020 
Q 2781 2228 2272 2228 
L 1259 2228 
z
M 1259 4147 
L 1259 2741 
L 2194 2741 
Q 2656 2741 2882 2914 
Q 3109 3088 3109 3444 
Q 3109 3797 2882 3972 
Q 2656 4147 2194 4147 
L 1259 4147 
z
M 628 4666 
L 2241 4666 
Q 2963 4666 3353 4366 
Q 3744 4066 3744 3513 
Q 3744 3084 3544 2831 
Q 3344 2578 2956 2516 
Q 3422 2416 3680 2098 
Q 3938 1781 3938 1306 
Q 3938 681 3513 340 
Q 3088 0 2303 0 
L 628 0 
L 628 4666 
z
" transform="scale(0.015625)"/>
      <path id="DejaVuSans-64" d="M 2906 2969 
L 2906 4863 
L 3481 4863 
L 3481 0 
L 2906 0 
L 2906 525 
Q 2725 213 2448 61 
Q 2172 -91 1784 -91 
Q 1150 -91 751 415 
Q 353 922 353 1747 
Q 353 2572 751 3078 
Q 1150 3584 1784 3584 
Q 2172 3584 2448 3432 
Q 2725 3281 2906 2969 
z
M 947 1747 
Q 947 1113 1208 752 
Q 1469 391 1925 391 
Q 2381 391 2643 752 
Q 2906 1113 2906 1747 
Q 2906 2381 2643 2742 
Q 2381 3103 1925 3103 
Q 1469 3103 1208 2742 
Q 947 2381 947 1747 
z
" transform="scale(0.015625)"/>
      <path id="DejaVuSans-29" d="M 513 4856 
L 1013 4856 
Q 1481 4119 1714 3412 
Q 1947 2706 1947 2009 
Q 1947 1309 1714 600 
Q 1481 -109 1013 -844 
L 513 -844 
Q 928 -128 1133 580 
Q 1338 1288 1338 2009 
Q 1338 2731 1133 3434 
Q 928 4138 513 4856 
z
" transform="scale(0.015625)"/>
     </defs>
     <use xlink:href="#DejaVuSans-32"/>
     <use xlink:href="#DejaVuSans-30" transform="translate(63.623047 0)"/>
     <use xlink:href="#DejaVuSans-32" transform="translate(127.246094 0)"/>
     <use xlink:href="#DejaVuSans-35" transform="translate(190.869141 0)"/>
     <use xlink:href="#DejaVuSans-2d" transform="translate(254.492188 0)"/>
     <use xlink:href="#DejaVuSans-30" transform="translate(290.576172 0)"/>
     <use xlink:href="#DejaVuSans-37" transform="translate(354.199219 0)"/>
     <use xlink:href="#DejaVuSans-2d" transform="translate(417.822266 0)"/>
     <use xlink:href="#DejaVuSans-32" transform="translate(453.90625 0)"/>
     <use xlink:href="#DejaVuSans-32" transform="translate(517.529297 0)"/>
     <use xlink:href="#DejaVuSans-20" transform="translate(581.152344 0)"/>
     <use xlink:href="#DejaVuSans-2d" transform="translate(612.939453 0)"/>
     <use xlink:href="#DejaVuSans-20" transform="translate(649.023438 0)"/>
     <use xlink:href="#DejaVuSans-53" transform="translate(680.810547 0)"/>
     <use xlink:href="#DejaVuSans-74" transform="translate(744.287109 0)"/>
     <use xlink:href="#DejaVuSans-72" transform="translate(783.496094 0)"/>
     <use xlink:href="#DejaVuSans-65" transform="translate(822.359375 0)"/>
     <use xlink:href="#DejaVuSans-73" transform="translate(883.882812 0)"/>
     <use xlink:href="#DejaVuSans-73" transform="translate(935.982422 0)"/>
     <use xlink:href="#DejaVuSans-20" transform="translate(988.082031 0)"/>
     <use xlink:href="#DejaVuSans-76" transform="translate(1019.869141 0)"/>
     <use xlink:href="#DejaVuSans-73" transform="translate(1079.048828 0)"/>
     <use xlink:href="#DejaVuSans-20" transform="translate(1131.148438 0)"/>
     <use xlink:href="#DejaVuSans-53" transform="translate(1162.935547 0)"/>
     <use xlink:href="#DejaVuSans-74" transform="translate(1226.412109 0)"/>
     <use xlink:href="#DejaVuSans-72" transform="translate(1265.621094 0)"/>
     <use xlink:href="#DejaVuSans-61" transform="translate(1306.734375 0)"/>
     <use xlink:href="#DejaVuSans-69" transform="translate(1368.013672 0)"/>
     <use xlink:href="#DejaVuSans-6e" transform="translate(1395.796875 0)"/>
     <use xlink:href="#DejaVuSans-20" transform="translate(1459.175781 0)"/>
     <use xlink:href="#DejaVuSans-62" transform="translate(1490.962891 0)"/>
     <use xlink:href="#DejaVuSans-79" transform="translate(1554.439453 0)"/>
     <use xlink:href="#DejaVuSans-20" transform="translate(1613.619141 0)"/>
     <use xlink:href="#DejaVuSans-49" transform="translate(1645.40625 0)"/>
     <use xlink:href="#DejaVuSans-6d" transform="translate(1674.898438 0)"/>
     <use xlink:href="#DejaVuSans-70" transform="translate(1772.310547 0)"/>
     <use xlink:href="#DejaVuSans-61" transform="translate(1835.787109 0)"/>
     <use xlink:href="#DejaVuSans-63" transform="translate(1897.066406 0)"/>
     <use xlink:href="#DejaVuSans-74" transform="translate(1952.046875 0)"/>
     <use xlink:href="#DejaVuSans-20" transform="translate(1991.255859 0)"/>
     <use xlink:href="#DejaVuSans-56" transform="translate(2023.042969 0)"/>
     <use xlink:href="#DejaVuSans-65" transform="translate(2083.701172 0)"/>
     <use xlink:href="#DejaVuSans-6c" transform="translate(2145.224609 0)"/>
     <use xlink:href="#DejaVuSans-6f" transform="translate(2173.007812 0)"/>
     <use xlink:href="#DejaVuSans-63" transform="translate(2234.189453 0)"/>
     <use xlink:href="#DejaVuSans-69" transform="translate(2289.169922 0)"/>
     <use xlink:href="#DejaVuSans-74" transform="translate(2316.953125 0)"/>
     <use xlink:href="#DejaVuSans-79" transform="translate(2356.162109 0)"/>
     <use xlink:href="#DejaVuSans-20" transform="translate(2415.341797 0)"/>
     <use xlink:href="#DejaVuSans-28" transform="translate(2447.128906 0)"/>
     <use xlink:href="#DejaVuSans-77" transform="translate(2486.142578 0)"/>
     <use xlink:href="#DejaVuSans-69" transform="translate(2567.929688 0)"/>
     <use xlink:href="#DejaVuSans-74" transform="translate(2595.712891 0)"/>
     <use xlink:href="#DejaVuSans-68" transform="translate(2634.921875 0)"/>
     <use xlink:href="#DejaVuSans-20" transform="translate(2698.300781 0)"/>
     <use xlink:href="#DejaVuSans-45" transform="translate(2730.087891 0)"/>
     <use xlink:href="#DejaVuSans-72" transform="translate(2793.271484 0)"/>
     <use xlink:href="#DejaVuSans-72" transform="translate(2832.634766 0)"/>
     <use xlink:href="#DejaVuSans-6f" transform="translate(2871.498047 0)"/>
     <use xlink:href="#DejaVuSans-72" transform="translate(2932.679688 0)"/>
     <use xlink:href="#DejaVuSans-20" transform="translate(2973.792969 0)"/>
     <use xlink:href="#DejaVuSans-42" transform="translate(3005.580078 0)"/>
     <use xlink:href="#DejaVuSans-61" transform="translate(3074.183594 0)"/>
     <use xlink:href="#DejaVuSans-6e" transform="translate(3135.462891 0)"/>
     <use xlink:href="#DejaVuSans-64" transform="translate(3198.841797 0)"/>
     <use xlink:href="#DejaVuSans-73" transform="translate(3262.318359 0)"/>
     <use xlink:href="#DejaVuSans-29" transform="translate(3314.417969 0)"/>
    </g>
   </g>
   <g id="legend_1">
    <g id="patch_7">
     <path d="M 70.47 108.270625 
L 178.493437 108.270625 
Q 180.493437 108.270625 180.493437 106.270625 
L 180.493437 33.88 
Q 180.493437 31.88 178.493437 31.88 
L 70.47 31.88 
Q 68.47 31.88 68.47 33.88 
L 68.47 106.270625 
Q 68.47 108.270625 70.47 108.270625 
z
" style="fill: #ffffff; opacity: 0.8; stroke: #cccccc; stroke-linejoin: miter"/>
    </g>
    <g id="text_18">
     <!-- Impact Velocity -->
     <g transform="translate(85.984062 43.478437) scale(0.1 -0.1)">
      <use xlink:href="#DejaVuSans-49"/>
      <use xlink:href="#DejaVuSans-6d" transform="translate(29.492188 0)"/>
      <use xlink:href="#DejaVuSans-70" transform="translate(126.904297 0)"/>
      <use xlink:href="#DejaVuSans-61" transform="translate(190.380859 0)"/>
      <use xlink:href="#DejaVuSans-63" transform="translate(251.660156 0)"/>
      <use xlink:href="#DejaVuSans-74" transform="translate(306.640625 0)"/>
      <use xlink:href="#DejaVuSans-20" transform="translate(345.849609 0)"/>
      <use xlink:href="#DejaVuSans-56" transform="translate(377.636719 0)"/>
      <use xlink:href="#DejaVuSans-65" transform="translate(438.294922 0)"/>
      <use xlink:href="#DejaVuSans-6c" transform="translate(499.818359 0)"/>
      <use xlink:href="#DejaVuSans-6f" transform="translate(527.601562 0)"/>
      <use xlink:href="#DejaVuSans-63" transform="translate(588.783203 0)"/>
      <use xlink:href="#DejaVuSans-69" transform="translate(643.763672 0)"/>
      <use xlink:href="#DejaVuSans-74" transform="translate(671.546875 0)"/>
      <use xlink:href="#DejaVuSans-79" transform="translate(710.755859 0)"/>
     </g>
    </g>
    <g id="line2d_33">
     <path d="M 72.47 54.656563 
L 82.47 54.656563 
L 92.47 54.656563 
" style="fill: none; stroke: #000000; stroke-width: 2; stroke-linecap: square"/>
    </g>
    <g id="text_19">
     <!-- 1 mm/s (n=11) -->
     <g transform="translate(100.47 58.156563) scale(0.1 -0.1)">
      <defs>
       <path id="DejaVuSans-2f" d="M 1625 4666 
L 2156 4666 
L 531 -594 
L 0 -594 
L 1625 4666 
z
" transform="scale(0.015625)"/>
       <path id="DejaVuSans-3d" d="M 678 2906 
L 4684 2906 
L 4684 2381 
L 678 2381 
L 678 2906 
z
M 678 1631 
L 4684 1631 
L 4684 1100 
L 678 1100 
L 678 1631 
z
" transform="scale(0.015625)"/>
      </defs>
      <use xlink:href="#DejaVuSans-31"/>
      <use xlink:href="#DejaVuSans-20" transform="translate(63.623047 0)"/>
      <use xlink:href="#DejaVuSans-6d" transform="translate(95.410156 0)"/>
      <use xlink:href="#DejaVuSans-6d" transform="translate(192.822266 0)"/>
      <use xlink:href="#DejaVuSans-2f" transform="translate(290.234375 0)"/>
      <use xlink:href="#DejaVuSans-73" transform="translate(323.925781 0)"/>
      <use xlink:href="#DejaVuSans-20" transform="translate(376.025391 0)"/>
      <use xlink:href="#DejaVuSans-28" transform="translate(407.8125 0)"/>
      <use xlink:href="#DejaVuSans-6e" transform="translate(446.826172 0)"/>
      <use xlink:href="#DejaVuSans-3d" transform="translate(510.205078 0)"/>
      <use xlink:href="#DejaVuSans-31" transform="translate(593.994141 0)"/>
      <use xlink:href="#DejaVuSans-31" transform="translate(657.617188 0)"/>
      <use xlink:href="#DejaVuSans-29" transform="translate(721.240234 0)"/>
     </g>
    </g>
    <g id="line2d_34">
     <path d="M 72.47 69.334688 
L 82.47 69.334688 
L 92.47 69.334688 
" style="fill: none; stroke: #ff0000; stroke-width: 2; stroke-linecap: square"/>
    </g>
    <g id="text_20">
     <!-- 3 mm/s (n=9) -->
     <g transform="translate(100.47 72.834688) scale(0.1 -0.1)">
      <defs>
       <path id="DejaVuSans-39" d="M 703 97 
L 703 672 
Q 941 559 1184 500 
Q 1428 441 1663 441 
Q 2288 441 2617 861 
Q 2947 1281 2994 2138 
Q 2813 1869 2534 1725 
Q 2256 1581 1919 1581 
Q 1219 1581 811 2004 
Q 403 2428 403 3163 
Q 403 3881 828 4315 
Q 1253 4750 1959 4750 
Q 2769 4750 3195 4129 
Q 3622 3509 3622 2328 
Q 3622 1225 3098 567 
Q 2575 -91 1691 -91 
Q 1453 -91 1209 -44 
Q 966 3 703 97 
z
M 1959 2075 
Q 2384 2075 2632 2365 
Q 2881 2656 2881 3163 
Q 2881 3666 2632 3958 
Q 2384 4250 1959 4250 
Q 1534 4250 1286 3958 
Q 1038 3666 1038 3163 
Q 1038 2656 1286 2365 
Q 1534 2075 1959 2075 
z
" transform="scale(0.015625)"/>
      </defs>
      <use xlink:href="#DejaVuSans-33"/>
      <use xlink:href="#DejaVuSans-20" transform="translate(63.623047 0)"/>
      <use xlink:href="#DejaVuSans-6d" transform="translate(95.410156 0)"/>
      <use xlink:href="#DejaVuSans-6d" transform="translate(192.822266 0)"/>
      <use xlink:href="#DejaVuSans-2f" transform="translate(290.234375 0)"/>
      <use xlink:href="#DejaVuSans-73" transform="translate(323.925781 0)"/>
      <use xlink:href="#DejaVuSans-20" transform="translate(376.025391 0)"/>
      <use xlink:href="#DejaVuSans-28" transform="translate(407.8125 0)"/>
      <use xlink:href="#DejaVuSans-6e" transform="translate(446.826172 0)"/>
      <use xlink:href="#DejaVuSans-3d" transform="translate(510.205078 0)"/>
      <use xlink:href="#DejaVuSans-39" transform="translate(593.994141 0)"/>
      <use xlink:href="#DejaVuSans-29" transform="translate(657.617188 0)"/>
     </g>
    </g>
    <g id="line2d_35">
     <path d="M 72.47 84.012812 
L 82.47 84.012812 
L 92.47 84.012812 
" style="fill: none; stroke: #0000ff; stroke-width: 2; stroke-linecap: square"/>
    </g>
    <g id="text_21">
     <!-- 5 mm/s (n=6) -->
     <g transform="translate(100.47 87.512812) scale(0.1 -0.1)">
      <use xlink:href="#DejaVuSans-35"/>
      <use xlink:href="#DejaVuSans-20" transform="translate(63.623047 0)"/>
      <use xlink:href="#DejaVuSans-6d" transform="translate(95.410156 0)"/>
      <use xlink:href="#DejaVuSans-6d" transform="translate(192.822266 0)"/>
      <use xlink:href="#DejaVuSans-2f" transform="translate(290.234375 0)"/>
      <use xlink:href="#DejaVuSans-73" transform="translate(323.925781 0)"/>
      <use xlink:href="#DejaVuSans-20" transform="translate(376.025391 0)"/>
      <use xlink:href="#DejaVuSans-28" transform="translate(407.8125 0)"/>
      <use xlink:href="#DejaVuSans-6e" transform="translate(446.826172 0)"/>
      <use xlink:href="#DejaVuSans-3d" transform="translate(510.205078 0)"/>
      <use xlink:href="#DejaVuSans-36" transform="translate(593.994141 0)"/>
      <use xlink:href="#DejaVuSans-29" transform="translate(657.617188 0)"/>
     </g>
    </g>
    <g id="line2d_36">
     <path d="M 72.47 98.690938 
L 82.47 98.690938 
L 92.47 98.690938 
" style="fill: none; stroke: #008000; stroke-width: 2; stroke-linecap: square"/>
    </g>
    <g id="text_22">
     <!-- 7 mm/s (n=3) -->
     <g transform="translate(100.47 102.190938) scale(0.1 -0.1)">
      <use xlink:href="#DejaVuSans-37"/>
      <use xlink:href="#DejaVuSans-20" transform="translate(63.623047 0)"/>
      <use xlink:href="#DejaVuSans-6d" transform="translate(95.410156 0)"/>
      <use xlink:href="#DejaVuSans-6d" transform="translate(192.822266 0)"/>
      <use xlink:href="#DejaVuSans-2f" transform="translate(290.234375 0)"/>
      <use xlink:href="#DejaVuSans-73" transform="translate(323.925781 0)"/>
      <use xlink:href="#DejaVuSans-20" transform="translate(376.025391 0)"/>
      <use xlink:href="#DejaVuSans-28" transform="translate(407.8125 0)"/>
      <use xlink:href="#DejaVuSans-6e" transform="translate(446.826172 0)"/>
      <use xlink:href="#DejaVuSans-3d" transform="translate(510.205078 0)"/>
      <use xlink:href="#DejaVuSans-33" transform="translate(593.994141 0)"/>
      <use xlink:href="#DejaVuSans-29" transform="translate(657.617188 0)"/>
     </g>
    </g>
   </g>
  </g>
 </g>
 <defs>
  <clipPath id="p0c615cd10f">
   <rect x="63.47" y="26.88" width="386.53" height="276.76"/>
  </clipPath>
 </defs>
</svg>
