<?xml version="1.0" encoding="utf-8" standalone="no"?>
<!DOCTYPE svg PUBLIC "-//W3C//DTD SVG 1.1//EN"
  "http://www.w3.org/Graphics/SVG/1.1/DTD/svg11.dtd">
<svg xmlns:xlink="http://www.w3.org/1999/xlink" width="432pt" height="288pt" viewBox="0 0 432 288" xmlns="http://www.w3.org/2000/svg" version="1.1">
 <metadata>
  <rdf:RDF xmlns:dc="http://purl.org/dc/elements/1.1/" xmlns:cc="http://creativecommons.org/ns#" xmlns:rdf="http://www.w3.org/1999/02/22-rdf-syntax-ns#">
   <cc:Work>
    <dc:type rdf:resource="http://purl.org/dc/dcmitype/StillImage"/>
    <dc:date>2025-07-03T20:55:25.728779</dc:date>
    <dc:format>image/svg+xml</dc:format>
    <dc:creator>
     <cc:Agent>
      <dc:title>Matplotlib v3.9.2, https://matplotlib.org/</dc:title>
     </cc:Agent>
    </dc:creator>
   </cc:Work>
  </rdf:RDF>
 </metadata>
 <defs>
  <style type="text/css">*{stroke-linejoin: round; stroke-linecap: butt}</style>
 </defs>
 <g id="figure_1">
  <g id="patch_1">
   <path d="M 0 288 
L 432 288 
L 432 0 
L 0 0 
z
" style="fill: #ffffff"/>
  </g>
  <g id="axes_1">
   <g id="patch_2">
    <path d="M 54 256.32 
L 388.8 256.32 
L 388.8 34.56 
L 54 34.56 
z
" style="fill: #ffffff"/>
   </g>
   <g id="matplotlib.axis_1">
    <g id="xtick_1">
     <g id="line2d_1">
      <defs>
       <path id="m58e918a89d" d="M 0 0 
L 0 3.5 
" style="stroke: #000000; stroke-width: 0.8"/>
      </defs>
      <g>
       <use xlink:href="#m58e918a89d" x="81.054545" y="256.32" style="stroke: #000000; stroke-width: 0.8"/>
      </g>
     </g>
     <g id="text_1">
      <!-- 0.05 -->
      <g transform="translate(69.921733 270.918437) scale(0.1 -0.1)">
       <defs>
        <path id="DejaVuSans-30" d="M 2034 4250 
Q 1547 4250 1301 3770 
Q 1056 3291 1056 2328 
Q 1056 1369 1301 889 
Q 1547 409 2034 409 
Q 2525 409 2770 889 
Q 3016 1369 3016 2328 
Q 3016 3291 2770 3770 
Q 2525 4250 2034 4250 
z
M 2034 4750 
Q 2819 4750 3233 4129 
Q 3647 3509 3647 2328 
Q 3647 1150 3233 529 
Q 2819 -91 2034 -91 
Q 1250 -91 836 529 
Q 422 1150 422 2328 
Q 422 3509 836 4129 
Q 1250 4750 2034 4750 
z
" transform="scale(0.015625)"/>
        <path id="DejaVuSans-2e" d="M 684 794 
L 1344 794 
L 1344 0 
L 684 0 
L 684 794 
z
" transform="scale(0.015625)"/>
        <path id="DejaVuSans-35" d="M 691 4666 
L 3169 4666 
L 3169 4134 
L 1269 4134 
L 1269 2991 
Q 1406 3038 1543 3061 
Q 1681 3084 1819 3084 
Q 2600 3084 3056 2656 
Q 3513 2228 3513 1497 
Q 3513 744 3044 326 
Q 2575 -91 1722 -91 
Q 1428 -91 1123 -41 
Q 819 9 494 109 
L 494 744 
Q 775 591 1075 516 
Q 1375 441 1709 441 
Q 2250 441 2565 725 
Q 2881 1009 2881 1497 
Q 2881 1984 2565 2268 
Q 2250 2553 1709 2553 
Q 1456 2553 1204 2497 
Q 953 2441 691 2322 
L 691 4666 
z
" transform="scale(0.015625)"/>
       </defs>
       <use xlink:href="#DejaVuSans-30"/>
       <use xlink:href="#DejaVuSans-2e" x="63.623047"/>
       <use xlink:href="#DejaVuSans-30" x="95.410156"/>
       <use xlink:href="#DejaVuSans-35" x="159.033203"/>
      </g>
     </g>
    </g>
    <g id="xtick_2">
     <g id="line2d_2">
      <g>
       <use xlink:href="#m58e918a89d" x="126.709091" y="256.32" style="stroke: #000000; stroke-width: 0.8"/>
      </g>
     </g>
     <g id="text_2">
      <!-- 0.10 -->
      <g transform="translate(115.576278 270.918437) scale(0.1 -0.1)">
       <defs>
        <path id="DejaVuSans-31" d="M 794 531 
L 1825 531 
L 1825 4091 
L 703 3866 
L 703 4441 
L 1819 4666 
L 2450 4666 
L 2450 531 
L 3481 531 
L 3481 0 
L 794 0 
L 794 531 
z
" transform="scale(0.015625)"/>
       </defs>
       <use xlink:href="#DejaVuSans-30"/>
       <use xlink:href="#DejaVuSans-2e" x="63.623047"/>
       <use xlink:href="#DejaVuSans-31" x="95.410156"/>
       <use xlink:href="#DejaVuSans-30" x="159.033203"/>
      </g>
     </g>
    </g>
    <g id="xtick_3">
     <g id="line2d_3">
      <g>
       <use xlink:href="#m58e918a89d" x="172.363636" y="256.32" style="stroke: #000000; stroke-width: 0.8"/>
      </g>
     </g>
     <g id="text_3">
      <!-- 0.15 -->
      <g transform="translate(161.230824 270.918437) scale(0.1 -0.1)">
       <use xlink:href="#DejaVuSans-30"/>
       <use xlink:href="#DejaVuSans-2e" x="63.623047"/>
       <use xlink:href="#DejaVuSans-31" x="95.410156"/>
       <use xlink:href="#DejaVuSans-35" x="159.033203"/>
      </g>
     </g>
    </g>
    <g id="xtick_4">
     <g id="line2d_4">
      <g>
       <use xlink:href="#m58e918a89d" x="218.018182" y="256.32" style="stroke: #000000; stroke-width: 0.8"/>
      </g>
     </g>
     <g id="text_4">
      <!-- 0.20 -->
      <g transform="translate(206.885369 270.918437) scale(0.1 -0.1)">
       <defs>
        <path id="DejaVuSans-32" d="M 1228 531 
L 3431 531 
L 3431 0 
L 469 0 
L 469 531 
Q 828 903 1448 1529 
Q 2069 2156 2228 2338 
Q 2531 2678 2651 2914 
Q 2772 3150 2772 3378 
Q 2772 3750 2511 3984 
Q 2250 4219 1831 4219 
Q 1534 4219 1204 4116 
Q 875 4013 500 3803 
L 500 4441 
Q 881 4594 1212 4672 
Q 1544 4750 1819 4750 
Q 2544 4750 2975 4387 
Q 3406 4025 3406 3419 
Q 3406 3131 3298 2873 
Q 3191 2616 2906 2266 
Q 2828 2175 2409 1742 
Q 1991 1309 1228 531 
z
" transform="scale(0.015625)"/>
       </defs>
       <use xlink:href="#DejaVuSans-30"/>
       <use xlink:href="#DejaVuSans-2e" x="63.623047"/>
       <use xlink:href="#DejaVuSans-32" x="95.410156"/>
       <use xlink:href="#DejaVuSans-30" x="159.033203"/>
      </g>
     </g>
    </g>
    <g id="xtick_5">
     <g id="line2d_5">
      <g>
       <use xlink:href="#m58e918a89d" x="263.672727" y="256.32" style="stroke: #000000; stroke-width: 0.8"/>
      </g>
     </g>
     <g id="text_5">
      <!-- 0.25 -->
      <g transform="translate(252.539915 270.918437) scale(0.1 -0.1)">
       <use xlink:href="#DejaVuSans-30"/>
       <use xlink:href="#DejaVuSans-2e" x="63.623047"/>
       <use xlink:href="#DejaVuSans-32" x="95.410156"/>
       <use xlink:href="#DejaVuSans-35" x="159.033203"/>
      </g>
     </g>
    </g>
    <g id="xtick_6">
     <g id="line2d_6">
      <g>
       <use xlink:href="#m58e918a89d" x="309.327273" y="256.32" style="stroke: #000000; stroke-width: 0.8"/>
      </g>
     </g>
     <g id="text_6">
      <!-- 0.30 -->
      <g transform="translate(298.19446 270.918437) scale(0.1 -0.1)">
       <defs>
        <path id="DejaVuSans-33" d="M 2597 2516 
Q 3050 2419 3304 2112 
Q 3559 1806 3559 1356 
Q 3559 666 3084 287 
Q 2609 -91 1734 -91 
Q 1441 -91 1130 -33 
Q 819 25 488 141 
L 488 750 
Q 750 597 1062 519 
Q 1375 441 1716 441 
Q 2309 441 2620 675 
Q 2931 909 2931 1356 
Q 2931 1769 2642 2001 
Q 2353 2234 1838 2234 
L 1294 2234 
L 1294 2753 
L 1863 2753 
Q 2328 2753 2575 2939 
Q 2822 3125 2822 3475 
Q 2822 3834 2567 4026 
Q 2313 4219 1838 4219 
Q 1578 4219 1281 4162 
Q 984 4106 628 3988 
L 628 4550 
Q 988 4650 1302 4700 
Q 1616 4750 1894 4750 
Q 2613 4750 3031 4423 
Q 3450 4097 3450 3541 
Q 3450 3153 3228 2886 
Q 3006 2619 2597 2516 
z
" transform="scale(0.015625)"/>
       </defs>
       <use xlink:href="#DejaVuSans-30"/>
       <use xlink:href="#DejaVuSans-2e" x="63.623047"/>
       <use xlink:href="#DejaVuSans-33" x="95.410156"/>
       <use xlink:href="#DejaVuSans-30" x="159.033203"/>
      </g>
     </g>
    </g>
    <g id="xtick_7">
     <g id="line2d_7">
      <g>
       <use xlink:href="#m58e918a89d" x="354.981818" y="256.32" style="stroke: #000000; stroke-width: 0.8"/>
      </g>
     </g>
     <g id="text_7">
      <!-- 0.35 -->
      <g transform="translate(343.849006 270.918437) scale(0.1 -0.1)">
       <use xlink:href="#DejaVuSans-30"/>
       <use xlink:href="#DejaVuSans-2e" x="63.623047"/>
       <use xlink:href="#DejaVuSans-33" x="95.410156"/>
       <use xlink:href="#DejaVuSans-35" x="159.033203"/>
      </g>
     </g>
    </g>
    <g id="text_8">
     <!-- Strain [mm] -->
     <g transform="translate(191.357031 284.596563) scale(0.1 -0.1)">
      <defs>
       <path id="DejaVuSans-53" d="M 3425 4513 
L 3425 3897 
Q 3066 4069 2747 4153 
Q 2428 4238 2131 4238 
Q 1616 4238 1336 4038 
Q 1056 3838 1056 3469 
Q 1056 3159 1242 3001 
Q 1428 2844 1947 2747 
L 2328 2669 
Q 3034 2534 3370 2195 
Q 3706 1856 3706 1288 
Q 3706 609 3251 259 
Q 2797 -91 1919 -91 
Q 1588 -91 1214 -16 
Q 841 59 441 206 
L 441 856 
Q 825 641 1194 531 
Q 1563 422 1919 422 
Q 2459 422 2753 634 
Q 3047 847 3047 1241 
Q 3047 1584 2836 1778 
Q 2625 1972 2144 2069 
L 1759 2144 
Q 1053 2284 737 2584 
Q 422 2884 422 3419 
Q 422 4038 858 4394 
Q 1294 4750 2059 4750 
Q 2388 4750 2728 4690 
Q 3069 4631 3425 4513 
z
" transform="scale(0.015625)"/>
       <path id="DejaVuSans-74" d="M 1172 4494 
L 1172 3500 
L 2356 3500 
L 2356 3053 
L 1172 3053 
L 1172 1153 
Q 1172 725 1289 603 
Q 1406 481 1766 481 
L 2356 481 
L 2356 0 
L 1766 0 
Q 1100 0 847 248 
Q 594 497 594 1153 
L 594 3053 
L 172 3053 
L 172 3500 
L 594 3500 
L 594 4494 
L 1172 4494 
z
" transform="scale(0.015625)"/>
       <path id="DejaVuSans-72" d="M 2631 2963 
Q 2534 3019 2420 3045 
Q 2306 3072 2169 3072 
Q 1681 3072 1420 2755 
Q 1159 2438 1159 1844 
L 1159 0 
L 581 0 
L 581 3500 
L 1159 3500 
L 1159 2956 
Q 1341 3275 1631 3429 
Q 1922 3584 2338 3584 
Q 2397 3584 2469 3576 
Q 2541 3569 2628 3553 
L 2631 2963 
z
" transform="scale(0.015625)"/>
       <path id="DejaVuSans-61" d="M 2194 1759 
Q 1497 1759 1228 1600 
Q 959 1441 959 1056 
Q 959 750 1161 570 
Q 1363 391 1709 391 
Q 2188 391 2477 730 
Q 2766 1069 2766 1631 
L 2766 1759 
L 2194 1759 
z
M 3341 1997 
L 3341 0 
L 2766 0 
L 2766 531 
Q 2569 213 2275 61 
Q 1981 -91 1556 -91 
Q 1019 -91 701 211 
Q 384 513 384 1019 
Q 384 1609 779 1909 
Q 1175 2209 1959 2209 
L 2766 2209 
L 2766 2266 
Q 2766 2663 2505 2880 
Q 2244 3097 1772 3097 
Q 1472 3097 1187 3025 
Q 903 2953 641 2809 
L 641 3341 
Q 956 3463 1253 3523 
Q 1550 3584 1831 3584 
Q 2591 3584 2966 3190 
Q 3341 2797 3341 1997 
z
" transform="scale(0.015625)"/>
       <path id="DejaVuSans-69" d="M 603 3500 
L 1178 3500 
L 1178 0 
L 603 0 
L 603 3500 
z
M 603 4863 
L 1178 4863 
L 1178 4134 
L 603 4134 
L 603 4863 
z
" transform="scale(0.015625)"/>
       <path id="DejaVuSans-6e" d="M 3513 2113 
L 3513 0 
L 2938 0 
L 2938 2094 
Q 2938 2591 2744 2837 
Q 2550 3084 2163 3084 
Q 1697 3084 1428 2787 
Q 1159 2491 1159 1978 
L 1159 0 
L 581 0 
L 581 3500 
L 1159 3500 
L 1159 2956 
Q 1366 3272 1645 3428 
Q 1925 3584 2291 3584 
Q 2894 3584 3203 3211 
Q 3513 2838 3513 2113 
z
" transform="scale(0.015625)"/>
       <path id="DejaVuSans-20" transform="scale(0.015625)"/>
       <path id="DejaVuSans-5b" d="M 550 4863 
L 1875 4863 
L 1875 4416 
L 1125 4416 
L 1125 -397 
L 1875 -397 
L 1875 -844 
L 550 -844 
L 550 4863 
z
" transform="scale(0.015625)"/>
       <path id="DejaVuSans-6d" d="M 3328 2828 
Q 3544 3216 3844 3400 
Q 4144 3584 4550 3584 
Q 5097 3584 5394 3201 
Q 5691 2819 5691 2113 
L 5691 0 
L 5113 0 
L 5113 2094 
Q 5113 2597 4934 2840 
Q 4756 3084 4391 3084 
Q 3944 3084 3684 2787 
Q 3425 2491 3425 1978 
L 3425 0 
L 2847 0 
L 2847 2094 
Q 2847 2600 2669 2842 
Q 2491 3084 2119 3084 
Q 1678 3084 1418 2786 
Q 1159 2488 1159 1978 
L 1159 0 
L 581 0 
L 581 3500 
L 1159 3500 
L 1159 2956 
Q 1356 3278 1631 3431 
Q 1906 3584 2284 3584 
Q 2666 3584 2933 3390 
Q 3200 3197 3328 2828 
z
" transform="scale(0.015625)"/>
       <path id="DejaVuSans-5d" d="M 1947 4863 
L 1947 -844 
L 622 -844 
L 622 -397 
L 1369 -397 
L 1369 4416 
L 622 4416 
L 622 4863 
L 1947 4863 
z
" transform="scale(0.015625)"/>
      </defs>
      <use xlink:href="#DejaVuSans-53"/>
      <use xlink:href="#DejaVuSans-74" x="63.476562"/>
      <use xlink:href="#DejaVuSans-72" x="102.685547"/>
      <use xlink:href="#DejaVuSans-61" x="143.798828"/>
      <use xlink:href="#DejaVuSans-69" x="205.078125"/>
      <use xlink:href="#DejaVuSans-6e" x="232.861328"/>
      <use xlink:href="#DejaVuSans-20" x="296.240234"/>
      <use xlink:href="#DejaVuSans-5b" x="328.027344"/>
      <use xlink:href="#DejaVuSans-6d" x="367.041016"/>
      <use xlink:href="#DejaVuSans-6d" x="464.453125"/>
      <use xlink:href="#DejaVuSans-5d" x="561.865234"/>
     </g>
    </g>
   </g>
   <g id="matplotlib.axis_2">
    <g id="ytick_1">
     <g id="line2d_8">
      <defs>
       <path id="mb7e3c839a1" d="M 0 0 
L -3.5 0 
" style="stroke: #000000; stroke-width: 0.8"/>
      </defs>
      <g>
       <use xlink:href="#mb7e3c839a1" x="54" y="230.478833" style="stroke: #000000; stroke-width: 0.8"/>
      </g>
     </g>
     <g id="text_9">
      <!-- 0.750 -->
      <g transform="translate(18.371875 234.278052) scale(0.1 -0.1)">
       <defs>
        <path id="DejaVuSans-37" d="M 525 4666 
L 3525 4666 
L 3525 4397 
L 1831 0 
L 1172 0 
L 2766 4134 
L 525 4134 
L 525 4666 
z
" transform="scale(0.015625)"/>
       </defs>
       <use xlink:href="#DejaVuSans-30"/>
       <use xlink:href="#DejaVuSans-2e" x="63.623047"/>
       <use xlink:href="#DejaVuSans-37" x="95.410156"/>
       <use xlink:href="#DejaVuSans-35" x="159.033203"/>
       <use xlink:href="#DejaVuSans-30" x="222.65625"/>
      </g>
     </g>
    </g>
    <g id="ytick_2">
     <g id="line2d_9">
      <g>
       <use xlink:href="#mb7e3c839a1" x="54" y="202.623816" style="stroke: #000000; stroke-width: 0.8"/>
      </g>
     </g>
     <g id="text_10">
      <!-- 0.775 -->
      <g transform="translate(18.371875 206.423035) scale(0.1 -0.1)">
       <use xlink:href="#DejaVuSans-30"/>
       <use xlink:href="#DejaVuSans-2e" x="63.623047"/>
       <use xlink:href="#DejaVuSans-37" x="95.410156"/>
       <use xlink:href="#DejaVuSans-37" x="159.033203"/>
       <use xlink:href="#DejaVuSans-35" x="222.65625"/>
      </g>
     </g>
    </g>
    <g id="ytick_3">
     <g id="line2d_10">
      <g>
       <use xlink:href="#mb7e3c839a1" x="54" y="174.768799" style="stroke: #000000; stroke-width: 0.8"/>
      </g>
     </g>
     <g id="text_11">
      <!-- 0.800 -->
      <g transform="translate(18.371875 178.568018) scale(0.1 -0.1)">
       <defs>
        <path id="DejaVuSans-38" d="M 2034 2216 
Q 1584 2216 1326 1975 
Q 1069 1734 1069 1313 
Q 1069 891 1326 650 
Q 1584 409 2034 409 
Q 2484 409 2743 651 
Q 3003 894 3003 1313 
Q 3003 1734 2745 1975 
Q 2488 2216 2034 2216 
z
M 1403 2484 
Q 997 2584 770 2862 
Q 544 3141 544 3541 
Q 544 4100 942 4425 
Q 1341 4750 2034 4750 
Q 2731 4750 3128 4425 
Q 3525 4100 3525 3541 
Q 3525 3141 3298 2862 
Q 3072 2584 2669 2484 
Q 3125 2378 3379 2068 
Q 3634 1759 3634 1313 
Q 3634 634 3220 271 
Q 2806 -91 2034 -91 
Q 1263 -91 848 271 
Q 434 634 434 1313 
Q 434 1759 690 2068 
Q 947 2378 1403 2484 
z
M 1172 3481 
Q 1172 3119 1398 2916 
Q 1625 2713 2034 2713 
Q 2441 2713 2670 2916 
Q 2900 3119 2900 3481 
Q 2900 3844 2670 4047 
Q 2441 4250 2034 4250 
Q 1625 4250 1398 4047 
Q 1172 3844 1172 3481 
z
" transform="scale(0.015625)"/>
       </defs>
       <use xlink:href="#DejaVuSans-30"/>
       <use xlink:href="#DejaVuSans-2e" x="63.623047"/>
       <use xlink:href="#DejaVuSans-38" x="95.410156"/>
       <use xlink:href="#DejaVuSans-30" x="159.033203"/>
       <use xlink:href="#DejaVuSans-30" x="222.65625"/>
      </g>
     </g>
    </g>
    <g id="ytick_4">
     <g id="line2d_11">
      <g>
       <use xlink:href="#mb7e3c839a1" x="54" y="146.913782" style="stroke: #000000; stroke-width: 0.8"/>
      </g>
     </g>
     <g id="text_12">
      <!-- 0.825 -->
      <g transform="translate(18.371875 150.713001) scale(0.1 -0.1)">
       <use xlink:href="#DejaVuSans-30"/>
       <use xlink:href="#DejaVuSans-2e" x="63.623047"/>
       <use xlink:href="#DejaVuSans-38" x="95.410156"/>
       <use xlink:href="#DejaVuSans-32" x="159.033203"/>
       <use xlink:href="#DejaVuSans-35" x="222.65625"/>
      </g>
     </g>
    </g>
    <g id="ytick_5">
     <g id="line2d_12">
      <g>
       <use xlink:href="#mb7e3c839a1" x="54" y="119.058765" style="stroke: #000000; stroke-width: 0.8"/>
      </g>
     </g>
     <g id="text_13">
      <!-- 0.850 -->
      <g transform="translate(18.371875 122.857984) scale(0.1 -0.1)">
       <use xlink:href="#DejaVuSans-30"/>
       <use xlink:href="#DejaVuSans-2e" x="63.623047"/>
       <use xlink:href="#DejaVuSans-38" x="95.410156"/>
       <use xlink:href="#DejaVuSans-35" x="159.033203"/>
       <use xlink:href="#DejaVuSans-30" x="222.65625"/>
      </g>
     </g>
    </g>
    <g id="ytick_6">
     <g id="line2d_13">
      <g>
       <use xlink:href="#mb7e3c839a1" x="54" y="91.203748" style="stroke: #000000; stroke-width: 0.8"/>
      </g>
     </g>
     <g id="text_14">
      <!-- 0.875 -->
      <g transform="translate(18.371875 95.002967) scale(0.1 -0.1)">
       <use xlink:href="#DejaVuSans-30"/>
       <use xlink:href="#DejaVuSans-2e" x="63.623047"/>
       <use xlink:href="#DejaVuSans-38" x="95.410156"/>
       <use xlink:href="#DejaVuSans-37" x="159.033203"/>
       <use xlink:href="#DejaVuSans-35" x="222.65625"/>
      </g>
     </g>
    </g>
    <g id="ytick_7">
     <g id="line2d_14">
      <g>
       <use xlink:href="#mb7e3c839a1" x="54" y="63.348732" style="stroke: #000000; stroke-width: 0.8"/>
      </g>
     </g>
     <g id="text_15">
      <!-- 0.900 -->
      <g transform="translate(18.371875 67.14795) scale(0.1 -0.1)">
       <defs>
        <path id="DejaVuSans-39" d="M 703 97 
L 703 672 
Q 941 559 1184 500 
Q 1428 441 1663 441 
Q 2288 441 2617 861 
Q 2947 1281 2994 2138 
Q 2813 1869 2534 1725 
Q 2256 1581 1919 1581 
Q 1219 1581 811 2004 
Q 403 2428 403 3163 
Q 403 3881 828 4315 
Q 1253 4750 1959 4750 
Q 2769 4750 3195 4129 
Q 3622 3509 3622 2328 
Q 3622 1225 3098 567 
Q 2575 -91 1691 -91 
Q 1453 -91 1209 -44 
Q 966 3 703 97 
z
M 1959 2075 
Q 2384 2075 2632 2365 
Q 2881 2656 2881 3163 
Q 2881 3666 2632 3958 
Q 2384 4250 1959 4250 
Q 1534 4250 1286 3958 
Q 1038 3666 1038 3163 
Q 1038 2656 1286 2365 
Q 1534 2075 1959 2075 
z
" transform="scale(0.015625)"/>
       </defs>
       <use xlink:href="#DejaVuSans-30"/>
       <use xlink:href="#DejaVuSans-2e" x="63.623047"/>
       <use xlink:href="#DejaVuSans-39" x="95.410156"/>
       <use xlink:href="#DejaVuSans-30" x="159.033203"/>
       <use xlink:href="#DejaVuSans-30" x="222.65625"/>
      </g>
     </g>
    </g>
    <g id="ytick_8">
     <g id="line2d_15">
      <g>
       <use xlink:href="#mb7e3c839a1" x="54" y="35.493715" style="stroke: #000000; stroke-width: 0.8"/>
      </g>
     </g>
     <g id="text_16">
      <!-- 0.925 -->
      <g transform="translate(18.371875 39.292933) scale(0.1 -0.1)">
       <use xlink:href="#DejaVuSans-30"/>
       <use xlink:href="#DejaVuSans-2e" x="63.623047"/>
       <use xlink:href="#DejaVuSans-39" x="95.410156"/>
       <use xlink:href="#DejaVuSans-32" x="159.033203"/>
       <use xlink:href="#DejaVuSans-35" x="222.65625"/>
      </g>
     </g>
    </g>
    <g id="text_17">
     <!-- % stress after relaxation -->
     <g transform="translate(12.292187 206.654063) rotate(-90) scale(0.1 -0.1)">
      <defs>
       <path id="DejaVuSans-25" d="M 4653 2053 
Q 4381 2053 4226 1822 
Q 4072 1591 4072 1178 
Q 4072 772 4226 539 
Q 4381 306 4653 306 
Q 4919 306 5073 539 
Q 5228 772 5228 1178 
Q 5228 1588 5073 1820 
Q 4919 2053 4653 2053 
z
M 4653 2450 
Q 5147 2450 5437 2106 
Q 5728 1763 5728 1178 
Q 5728 594 5436 251 
Q 5144 -91 4653 -91 
Q 4153 -91 3862 251 
Q 3572 594 3572 1178 
Q 3572 1766 3864 2108 
Q 4156 2450 4653 2450 
z
M 1428 4353 
Q 1159 4353 1004 4120 
Q 850 3888 850 3481 
Q 850 3069 1003 2837 
Q 1156 2606 1428 2606 
Q 1700 2606 1854 2837 
Q 2009 3069 2009 3481 
Q 2009 3884 1853 4118 
Q 1697 4353 1428 4353 
z
M 4250 4750 
L 4750 4750 
L 1831 -91 
L 1331 -91 
L 4250 4750 
z
M 1428 4750 
Q 1922 4750 2215 4408 
Q 2509 4066 2509 3481 
Q 2509 2891 2217 2550 
Q 1925 2209 1428 2209 
Q 931 2209 642 2551 
Q 353 2894 353 3481 
Q 353 4063 643 4406 
Q 934 4750 1428 4750 
z
" transform="scale(0.015625)"/>
       <path id="DejaVuSans-73" d="M 2834 3397 
L 2834 2853 
Q 2591 2978 2328 3040 
Q 2066 3103 1784 3103 
Q 1356 3103 1142 2972 
Q 928 2841 928 2578 
Q 928 2378 1081 2264 
Q 1234 2150 1697 2047 
L 1894 2003 
Q 2506 1872 2764 1633 
Q 3022 1394 3022 966 
Q 3022 478 2636 193 
Q 2250 -91 1575 -91 
Q 1294 -91 989 -36 
Q 684 19 347 128 
L 347 722 
Q 666 556 975 473 
Q 1284 391 1588 391 
Q 1994 391 2212 530 
Q 2431 669 2431 922 
Q 2431 1156 2273 1281 
Q 2116 1406 1581 1522 
L 1381 1569 
Q 847 1681 609 1914 
Q 372 2147 372 2553 
Q 372 3047 722 3315 
Q 1072 3584 1716 3584 
Q 2034 3584 2315 3537 
Q 2597 3491 2834 3397 
z
" transform="scale(0.015625)"/>
       <path id="DejaVuSans-65" d="M 3597 1894 
L 3597 1613 
L 953 1613 
Q 991 1019 1311 708 
Q 1631 397 2203 397 
Q 2534 397 2845 478 
Q 3156 559 3463 722 
L 3463 178 
Q 3153 47 2828 -22 
Q 2503 -91 2169 -91 
Q 1331 -91 842 396 
Q 353 884 353 1716 
Q 353 2575 817 3079 
Q 1281 3584 2069 3584 
Q 2775 3584 3186 3129 
Q 3597 2675 3597 1894 
z
M 3022 2063 
Q 3016 2534 2758 2815 
Q 2500 3097 2075 3097 
Q 1594 3097 1305 2825 
Q 1016 2553 972 2059 
L 3022 2063 
z
" transform="scale(0.015625)"/>
       <path id="DejaVuSans-66" d="M 2375 4863 
L 2375 4384 
L 1825 4384 
Q 1516 4384 1395 4259 
Q 1275 4134 1275 3809 
L 1275 3500 
L 2222 3500 
L 2222 3053 
L 1275 3053 
L 1275 0 
L 697 0 
L 697 3053 
L 147 3053 
L 147 3500 
L 697 3500 
L 697 3744 
Q 697 4328 969 4595 
Q 1241 4863 1831 4863 
L 2375 4863 
z
" transform="scale(0.015625)"/>
       <path id="DejaVuSans-6c" d="M 603 4863 
L 1178 4863 
L 1178 0 
L 603 0 
L 603 4863 
z
" transform="scale(0.015625)"/>
       <path id="DejaVuSans-78" d="M 3513 3500 
L 2247 1797 
L 3578 0 
L 2900 0 
L 1881 1375 
L 863 0 
L 184 0 
L 1544 1831 
L 300 3500 
L 978 3500 
L 1906 2253 
L 2834 3500 
L 3513 3500 
z
" transform="scale(0.015625)"/>
       <path id="DejaVuSans-6f" d="M 1959 3097 
Q 1497 3097 1228 2736 
Q 959 2375 959 1747 
Q 959 1119 1226 758 
Q 1494 397 1959 397 
Q 2419 397 2687 759 
Q 2956 1122 2956 1747 
Q 2956 2369 2687 2733 
Q 2419 3097 1959 3097 
z
M 1959 3584 
Q 2709 3584 3137 3096 
Q 3566 2609 3566 1747 
Q 3566 888 3137 398 
Q 2709 -91 1959 -91 
Q 1206 -91 779 398 
Q 353 888 353 1747 
Q 353 2609 779 3096 
Q 1206 3584 1959 3584 
z
" transform="scale(0.015625)"/>
      </defs>
      <use xlink:href="#DejaVuSans-25"/>
      <use xlink:href="#DejaVuSans-20" x="95.019531"/>
      <use xlink:href="#DejaVuSans-73" x="126.806641"/>
      <use xlink:href="#DejaVuSans-74" x="178.90625"/>
      <use xlink:href="#DejaVuSans-72" x="218.115234"/>
      <use xlink:href="#DejaVuSans-65" x="256.978516"/>
      <use xlink:href="#DejaVuSans-73" x="318.501953"/>
      <use xlink:href="#DejaVuSans-73" x="370.601562"/>
      <use xlink:href="#DejaVuSans-20" x="422.701172"/>
      <use xlink:href="#DejaVuSans-61" x="454.488281"/>
      <use xlink:href="#DejaVuSans-66" x="515.767578"/>
      <use xlink:href="#DejaVuSans-74" x="549.222656"/>
      <use xlink:href="#DejaVuSans-65" x="588.431641"/>
      <use xlink:href="#DejaVuSans-72" x="649.955078"/>
      <use xlink:href="#DejaVuSans-20" x="691.068359"/>
      <use xlink:href="#DejaVuSans-72" x="722.855469"/>
      <use xlink:href="#DejaVuSans-65" x="761.71875"/>
      <use xlink:href="#DejaVuSans-6c" x="823.242188"/>
      <use xlink:href="#DejaVuSans-61" x="851.025391"/>
      <use xlink:href="#DejaVuSans-78" x="912.304688"/>
      <use xlink:href="#DejaVuSans-61" x="971.484375"/>
      <use xlink:href="#DejaVuSans-74" x="1032.763672"/>
      <use xlink:href="#DejaVuSans-69" x="1071.972656"/>
      <use xlink:href="#DejaVuSans-6f" x="1099.755859"/>
      <use xlink:href="#DejaVuSans-6e" x="1160.9375"/>
     </g>
    </g>
   </g>
   <g id="LineCollection_1">
    <path d="M 69.218182 246.24 
L 69.218182 148.668504 
" clip-path="url(#pe25de7a40b)" style="fill: none; stroke: #000000"/>
   </g>
   <g id="line2d_16">
    <defs>
     <path id="m439e73f8cb" d="M 5 0 
L -5 -0 
" style="stroke: #000000"/>
    </defs>
    <g clip-path="url(#pe25de7a40b)">
     <use xlink:href="#m439e73f8cb" x="69.218182" y="246.24" style="stroke: #000000"/>
    </g>
   </g>
   <g id="line2d_17">
    <g clip-path="url(#pe25de7a40b)">
     <use xlink:href="#m439e73f8cb" x="69.218182" y="148.668504" style="stroke: #000000"/>
    </g>
   </g>
   <g id="LineCollection_2">
    <path d="M 136.854545 65.064445 
L 136.854545 44.64 
" clip-path="url(#pe25de7a40b)" style="fill: none; stroke: #000000"/>
   </g>
   <g id="line2d_18">
    <g clip-path="url(#pe25de7a40b)">
     <use xlink:href="#m439e73f8cb" x="136.854545" y="65.064445" style="stroke: #000000"/>
    </g>
   </g>
   <g id="line2d_19">
    <g clip-path="url(#pe25de7a40b)">
     <use xlink:href="#m439e73f8cb" x="136.854545" y="44.64" style="stroke: #000000"/>
    </g>
   </g>
   <g id="LineCollection_3">
    <path d="M 204.490909 63.823961 
L 204.490909 44.69506 
" clip-path="url(#pe25de7a40b)" style="fill: none; stroke: #000000"/>
   </g>
   <g id="line2d_20">
    <g clip-path="url(#pe25de7a40b)">
     <use xlink:href="#m439e73f8cb" x="204.490909" y="63.823961" style="stroke: #000000"/>
    </g>
   </g>
   <g id="line2d_21">
    <g clip-path="url(#pe25de7a40b)">
     <use xlink:href="#m439e73f8cb" x="204.490909" y="44.69506" style="stroke: #000000"/>
    </g>
   </g>
   <g id="LineCollection_4">
    <path d="M 272.127273 77.82506 
L 272.127273 65.595932 
" clip-path="url(#pe25de7a40b)" style="fill: none; stroke: #000000"/>
   </g>
   <g id="line2d_22">
    <g clip-path="url(#pe25de7a40b)">
     <use xlink:href="#m439e73f8cb" x="272.127273" y="77.82506" style="stroke: #000000"/>
    </g>
   </g>
   <g id="line2d_23">
    <g clip-path="url(#pe25de7a40b)">
     <use xlink:href="#m439e73f8cb" x="272.127273" y="65.595932" style="stroke: #000000"/>
    </g>
   </g>
   <g id="LineCollection_5">
    <path d="M 373.581818 110.912848 
L 373.581818 101.129443 
" clip-path="url(#pe25de7a40b)" style="fill: none; stroke: #000000"/>
   </g>
   <g id="line2d_24">
    <g clip-path="url(#pe25de7a40b)">
     <use xlink:href="#m439e73f8cb" x="373.581818" y="110.912848" style="stroke: #000000"/>
    </g>
   </g>
   <g id="line2d_25">
    <g clip-path="url(#pe25de7a40b)">
     <use xlink:href="#m439e73f8cb" x="373.581818" y="101.129443" style="stroke: #000000"/>
    </g>
   </g>
   <g id="LineCollection_6">
    <path clip-path="url(#pe25de7a40b)" style="fill: none; stroke: #ff0000"/>
   </g>
   <g id="line2d_26">
    <defs>
     <path id="mb0607f27bf" d="M 5 0 
L -5 -0 
" style="stroke: #ff0000"/>
    </defs>
    <g clip-path="url(#pe25de7a40b)"/>
   </g>
   <g id="line2d_27">
    <g clip-path="url(#pe25de7a40b)"/>
   </g>
   <g id="LineCollection_7">
    <path d="M 136.854545 115.841872 
L 136.854545 98.34718 
" clip-path="url(#pe25de7a40b)" style="fill: none; stroke: #ff0000"/>
   </g>
   <g id="line2d_28">
    <g clip-path="url(#pe25de7a40b)">
     <use xlink:href="#mb0607f27bf" x="136.854545" y="115.841872" style="fill: #ff0000; stroke: #ff0000"/>
    </g>
   </g>
   <g id="line2d_29">
    <g clip-path="url(#pe25de7a40b)">
     <use xlink:href="#mb0607f27bf" x="136.854545" y="98.34718" style="fill: #ff0000; stroke: #ff0000"/>
    </g>
   </g>
   <g id="LineCollection_8">
    <path d="M 272.127273 121.553515 
L 272.127273 104.386829 
" clip-path="url(#pe25de7a40b)" style="fill: none; stroke: #ff0000"/>
   </g>
   <g id="line2d_30">
    <g clip-path="url(#pe25de7a40b)">
     <use xlink:href="#mb0607f27bf" x="272.127273" y="121.553515" style="fill: #ff0000; stroke: #ff0000"/>
    </g>
   </g>
   <g id="line2d_31">
    <g clip-path="url(#pe25de7a40b)">
     <use xlink:href="#mb0607f27bf" x="272.127273" y="104.386829" style="fill: #ff0000; stroke: #ff0000"/>
    </g>
   </g>
   <g id="LineCollection_9">
    <path d="M 373.581818 176.50686 
L 373.581818 147.072387 
" clip-path="url(#pe25de7a40b)" style="fill: none; stroke: #ff0000"/>
   </g>
   <g id="line2d_32">
    <g clip-path="url(#pe25de7a40b)">
     <use xlink:href="#mb0607f27bf" x="373.581818" y="176.50686" style="fill: #ff0000; stroke: #ff0000"/>
    </g>
   </g>
   <g id="line2d_33">
    <g clip-path="url(#pe25de7a40b)">
     <use xlink:href="#mb0607f27bf" x="373.581818" y="147.072387" style="fill: #ff0000; stroke: #ff0000"/>
    </g>
   </g>
   <g id="LineCollection_10">
    <path d="M 373.581818 201.889244 
L 373.581818 186.288501 
" clip-path="url(#pe25de7a40b)" style="fill: none; stroke: #0000ff"/>
   </g>
   <g id="line2d_34">
    <defs>
     <path id="md2f1675a2a" d="M 5 0 
L -5 -0 
" style="stroke: #0000ff"/>
    </defs>
    <g clip-path="url(#pe25de7a40b)">
     <use xlink:href="#md2f1675a2a" x="373.581818" y="201.889244" style="fill: #0000ff; stroke: #0000ff"/>
    </g>
   </g>
   <g id="line2d_35">
    <g clip-path="url(#pe25de7a40b)">
     <use xlink:href="#md2f1675a2a" x="373.581818" y="186.288501" style="fill: #0000ff; stroke: #0000ff"/>
    </g>
   </g>
   <g id="LineCollection_11">
    <path d="M 373.581818 220.244562 
L 373.581818 211.152904 
" clip-path="url(#pe25de7a40b)" style="fill: none; stroke: #008000"/>
   </g>
   <g id="line2d_36">
    <defs>
     <path id="m9e4836e20d" d="M 5 0 
L -5 -0 
" style="stroke: #008000"/>
    </defs>
    <g clip-path="url(#pe25de7a40b)">
     <use xlink:href="#m9e4836e20d" x="373.581818" y="220.244562" style="fill: #008000; stroke: #008000"/>
    </g>
   </g>
   <g id="line2d_37">
    <g clip-path="url(#pe25de7a40b)">
     <use xlink:href="#m9e4836e20d" x="373.581818" y="211.152904" style="fill: #008000; stroke: #008000"/>
    </g>
   </g>
   <g id="line2d_38">
    <path d="M 69.218182 197.454252 
" clip-path="url(#pe25de7a40b)" style="fill: none"/>
    <defs>
     <path id="me6314d9edc" d="M 0 3 
C 0.795609 3 1.55874 2.683901 2.12132 2.12132 
C 2.683901 1.55874 3 0.795609 3 0 
C 3 -0.795609 2.683901 -1.55874 2.12132 -2.12132 
C 1.55874 -2.683901 0.795609 -3 0 -3 
C -0.795609 -3 -1.55874 -2.683901 -2.12132 -2.12132 
C -2.683901 -1.55874 -3 -0.795609 -3 0 
C -3 0.795609 -2.683901 1.55874 -2.12132 2.12132 
C -1.55874 2.683901 -0.795609 3 0 3 
z
" style="stroke: #000000"/>
    </defs>
    <g clip-path="url(#pe25de7a40b)">
     <use xlink:href="#me6314d9edc" x="69.218182" y="197.454252" style="stroke: #000000"/>
    </g>
   </g>
   <g id="line2d_39">
    <path d="M 136.854545 54.852223 
" clip-path="url(#pe25de7a40b)" style="fill: none"/>
    <g clip-path="url(#pe25de7a40b)">
     <use xlink:href="#me6314d9edc" x="136.854545" y="54.852223" style="stroke: #000000"/>
    </g>
   </g>
   <g id="line2d_40">
    <path d="M 204.490909 54.25951 
" clip-path="url(#pe25de7a40b)" style="fill: none"/>
    <g clip-path="url(#pe25de7a40b)">
     <use xlink:href="#me6314d9edc" x="204.490909" y="54.25951" style="stroke: #000000"/>
    </g>
   </g>
   <g id="line2d_41">
    <path d="M 272.127273 71.710496 
" clip-path="url(#pe25de7a40b)" style="fill: none"/>
    <g clip-path="url(#pe25de7a40b)">
     <use xlink:href="#me6314d9edc" x="272.127273" y="71.710496" style="stroke: #000000"/>
    </g>
   </g>
   <g id="line2d_42">
    <path d="M 373.581818 106.021146 
" clip-path="url(#pe25de7a40b)" style="fill: none"/>
    <g clip-path="url(#pe25de7a40b)">
     <use xlink:href="#me6314d9edc" x="373.581818" y="106.021146" style="stroke: #000000"/>
    </g>
   </g>
   <g id="line2d_43">
    <path d="M 69.218182 150.90139 
" clip-path="url(#pe25de7a40b)" style="fill: none"/>
    <defs>
     <path id="m3a1bcf1733" d="M 0 3 
C 0.795609 3 1.55874 2.683901 2.12132 2.12132 
C 2.683901 1.55874 3 0.795609 3 0 
C 3 -0.795609 2.683901 -1.55874 2.12132 -2.12132 
C 1.55874 -2.683901 0.795609 -3 0 -3 
C -0.795609 -3 -1.55874 -2.683901 -2.12132 -2.12132 
C -2.683901 -1.55874 -3 -0.795609 -3 0 
C -3 0.795609 -2.683901 1.55874 -2.12132 2.12132 
C -1.55874 2.683901 -0.795609 3 0 3 
z
" style="stroke: #ff0000"/>
    </defs>
    <g clip-path="url(#pe25de7a40b)">
     <use xlink:href="#m3a1bcf1733" x="69.218182" y="150.90139" style="fill: #ff0000; stroke: #ff0000"/>
    </g>
   </g>
   <g id="line2d_44">
    <path d="M 136.854545 107.094526 
" clip-path="url(#pe25de7a40b)" style="fill: none"/>
    <g clip-path="url(#pe25de7a40b)">
     <use xlink:href="#m3a1bcf1733" x="136.854545" y="107.094526" style="fill: #ff0000; stroke: #ff0000"/>
    </g>
   </g>
   <g id="line2d_45">
    <path d="M 272.127273 112.970172 
" clip-path="url(#pe25de7a40b)" style="fill: none"/>
    <g clip-path="url(#pe25de7a40b)">
     <use xlink:href="#m3a1bcf1733" x="272.127273" y="112.970172" style="fill: #ff0000; stroke: #ff0000"/>
    </g>
   </g>
   <g id="line2d_46">
    <path d="M 373.581818 161.789623 
" clip-path="url(#pe25de7a40b)" style="fill: none"/>
    <g clip-path="url(#pe25de7a40b)">
     <use xlink:href="#m3a1bcf1733" x="373.581818" y="161.789623" style="fill: #ff0000; stroke: #ff0000"/>
    </g>
   </g>
   <g id="line2d_47">
    <path d="M 373.581818 194.088873 
" clip-path="url(#pe25de7a40b)" style="fill: none"/>
    <defs>
     <path id="m1ac81c625a" d="M 0 3 
C 0.795609 3 1.55874 2.683901 2.12132 2.12132 
C 2.683901 1.55874 3 0.795609 3 0 
C 3 -0.795609 2.683901 -1.55874 2.12132 -2.12132 
C 1.55874 -2.683901 0.795609 -3 0 -3 
C -0.795609 -3 -1.55874 -2.683901 -2.12132 -2.12132 
C -2.683901 -1.55874 -3 -0.795609 -3 0 
C -3 0.795609 -2.683901 1.55874 -2.12132 2.12132 
C -1.55874 2.683901 -0.795609 3 0 3 
z
" style="stroke: #0000ff"/>
    </defs>
    <g clip-path="url(#pe25de7a40b)">
     <use xlink:href="#m1ac81c625a" x="373.581818" y="194.088873" style="fill: #0000ff; stroke: #0000ff"/>
    </g>
   </g>
   <g id="line2d_48">
    <path d="M 373.581818 215.698733 
" clip-path="url(#pe25de7a40b)" style="fill: none"/>
    <defs>
     <path id="m7f98fd828d" d="M 0 3 
C 0.795609 3 1.55874 2.683901 2.12132 2.12132 
C 2.683901 1.55874 3 0.795609 3 0 
C 3 -0.795609 2.683901 -1.55874 2.12132 -2.12132 
C 1.55874 -2.683901 0.795609 -3 0 -3 
C -0.795609 -3 -1.55874 -2.683901 -2.12132 -2.12132 
C -2.683901 -1.55874 -3 -0.795609 -3 0 
C -3 0.795609 -2.683901 1.55874 -2.12132 2.12132 
C -1.55874 2.683901 -0.795609 3 0 3 
z
" style="stroke: #008000"/>
    </defs>
    <g clip-path="url(#pe25de7a40b)">
     <use xlink:href="#m7f98fd828d" x="373.581818" y="215.698733" style="fill: #008000; stroke: #008000"/>
    </g>
   </g>
   <g id="patch_3">
    <path d="M 54 256.32 
L 54 34.56 
" style="fill: none; stroke: #000000; stroke-width: 0.8; stroke-linejoin: miter; stroke-linecap: square"/>
   </g>
   <g id="patch_4">
    <path d="M 388.8 256.32 
L 388.8 34.56 
" style="fill: none; stroke: #000000; stroke-width: 0.8; stroke-linejoin: miter; stroke-linecap: square"/>
   </g>
   <g id="patch_5">
    <path d="M 54 256.32 
L 388.8 256.32 
" style="fill: none; stroke: #000000; stroke-width: 0.8; stroke-linejoin: miter; stroke-linecap: square"/>
   </g>
   <g id="patch_6">
    <path d="M 54 34.56 
L 388.8 34.56 
" style="fill: none; stroke: #000000; stroke-width: 0.8; stroke-linejoin: miter; stroke-linecap: square"/>
   </g>
   <g id="text_18">
    <!-- 2025-06-16 all trials -->
    <g transform="translate(160.75125 28.56) scale(0.12 -0.12)">
     <defs>
      <path id="DejaVuSans-2d" d="M 313 2009 
L 1997 2009 
L 1997 1497 
L 313 1497 
L 313 2009 
z
" transform="scale(0.015625)"/>
      <path id="DejaVuSans-36" d="M 2113 2584 
Q 1688 2584 1439 2293 
Q 1191 2003 1191 1497 
Q 1191 994 1439 701 
Q 1688 409 2113 409 
Q 2538 409 2786 701 
Q 3034 994 3034 1497 
Q 3034 2003 2786 2293 
Q 2538 2584 2113 2584 
z
M 3366 4563 
L 3366 3988 
Q 3128 4100 2886 4159 
Q 2644 4219 2406 4219 
Q 1781 4219 1451 3797 
Q 1122 3375 1075 2522 
Q 1259 2794 1537 2939 
Q 1816 3084 2150 3084 
Q 2853 3084 3261 2657 
Q 3669 2231 3669 1497 
Q 3669 778 3244 343 
Q 2819 -91 2113 -91 
Q 1303 -91 875 529 
Q 447 1150 447 2328 
Q 447 3434 972 4092 
Q 1497 4750 2381 4750 
Q 2619 4750 2861 4703 
Q 3103 4656 3366 4563 
z
" transform="scale(0.015625)"/>
     </defs>
     <use xlink:href="#DejaVuSans-32"/>
     <use xlink:href="#DejaVuSans-30" x="63.623047"/>
     <use xlink:href="#DejaVuSans-32" x="127.246094"/>
     <use xlink:href="#DejaVuSans-35" x="190.869141"/>
     <use xlink:href="#DejaVuSans-2d" x="254.492188"/>
     <use xlink:href="#DejaVuSans-30" x="290.576172"/>
     <use xlink:href="#DejaVuSans-36" x="354.199219"/>
     <use xlink:href="#DejaVuSans-2d" x="417.822266"/>
     <use xlink:href="#DejaVuSans-31" x="453.90625"/>
     <use xlink:href="#DejaVuSans-36" x="517.529297"/>
     <use xlink:href="#DejaVuSans-20" x="581.152344"/>
     <use xlink:href="#DejaVuSans-61" x="612.939453"/>
     <use xlink:href="#DejaVuSans-6c" x="674.21875"/>
     <use xlink:href="#DejaVuSans-6c" x="702.001953"/>
     <use xlink:href="#DejaVuSans-20" x="729.785156"/>
     <use xlink:href="#DejaVuSans-74" x="761.572266"/>
     <use xlink:href="#DejaVuSans-72" x="800.78125"/>
     <use xlink:href="#DejaVuSans-69" x="841.894531"/>
     <use xlink:href="#DejaVuSans-61" x="869.677734"/>
     <use xlink:href="#DejaVuSans-6c" x="930.957031"/>
     <use xlink:href="#DejaVuSans-73" x="958.740234"/>
    </g>
   </g>
   <g id="legend_1">
    <g id="patch_7">
     <path d="M 183.41875 251.32 
L 259.38125 251.32 
Q 261.38125 251.32 261.38125 249.32 
L 261.38125 191.6075 
Q 261.38125 189.6075 259.38125 189.6075 
L 183.41875 189.6075 
Q 181.41875 189.6075 181.41875 191.6075 
L 181.41875 249.32 
Q 181.41875 251.32 183.41875 251.32 
z
" style="fill: #ffffff; opacity: 0.8; stroke: #cccccc; stroke-linejoin: miter"/>
    </g>
    <g id="LineCollection_12">
     <path d="M 195.41875 202.705938 
L 195.41875 192.705938 
" style="fill: none; stroke: #000000"/>
    </g>
    <g id="line2d_49">
     <g>
      <use xlink:href="#m439e73f8cb" x="195.41875" y="202.705938" style="stroke: #000000"/>
     </g>
    </g>
    <g id="line2d_50">
     <g>
      <use xlink:href="#m439e73f8cb" x="195.41875" y="192.705938" style="stroke: #000000"/>
     </g>
    </g>
    <g id="line2d_51">
     <path d="M 185.41875 197.705938 
L 205.41875 197.705938 
" style="fill: none"/>
    </g>
    <g id="line2d_52">
     <g>
      <use xlink:href="#me6314d9edc" x="195.41875" y="197.705938" style="stroke: #000000"/>
     </g>
    </g>
    <g id="text_19">
     <!-- 1 mm/s -->
     <g transform="translate(213.41875 201.205938) scale(0.1 -0.1)">
      <defs>
       <path id="DejaVuSans-2f" d="M 1625 4666 
L 2156 4666 
L 531 -594 
L 0 -594 
L 1625 4666 
z
" transform="scale(0.015625)"/>
      </defs>
      <use xlink:href="#DejaVuSans-31"/>
      <use xlink:href="#DejaVuSans-20" x="63.623047"/>
      <use xlink:href="#DejaVuSans-6d" x="95.410156"/>
      <use xlink:href="#DejaVuSans-6d" x="192.822266"/>
      <use xlink:href="#DejaVuSans-2f" x="290.234375"/>
      <use xlink:href="#DejaVuSans-73" x="323.925781"/>
     </g>
    </g>
    <g id="LineCollection_13">
     <path d="M 195.41875 217.384062 
L 195.41875 207.384062 
" style="fill: none; stroke: #ff0000"/>
    </g>
    <g id="line2d_53">
     <g>
      <use xlink:href="#mb0607f27bf" x="195.41875" y="217.384062" style="fill: #ff0000; stroke: #ff0000"/>
     </g>
    </g>
    <g id="line2d_54">
     <g>
      <use xlink:href="#mb0607f27bf" x="195.41875" y="207.384062" style="fill: #ff0000; stroke: #ff0000"/>
     </g>
    </g>
    <g id="line2d_55">
     <path d="M 185.41875 212.384062 
L 205.41875 212.384062 
" style="fill: none"/>
    </g>
    <g id="line2d_56">
     <g>
      <use xlink:href="#m3a1bcf1733" x="195.41875" y="212.384062" style="fill: #ff0000; stroke: #ff0000"/>
     </g>
    </g>
    <g id="text_20">
     <!-- 5 mm/s -->
     <g transform="translate(213.41875 215.884062) scale(0.1 -0.1)">
      <use xlink:href="#DejaVuSans-35"/>
      <use xlink:href="#DejaVuSans-20" x="63.623047"/>
      <use xlink:href="#DejaVuSans-6d" x="95.410156"/>
      <use xlink:href="#DejaVuSans-6d" x="192.822266"/>
      <use xlink:href="#DejaVuSans-2f" x="290.234375"/>
      <use xlink:href="#DejaVuSans-73" x="323.925781"/>
     </g>
    </g>
    <g id="LineCollection_14">
     <path d="M 195.41875 232.062187 
L 195.41875 222.062187 
" style="fill: none; stroke: #0000ff"/>
    </g>
    <g id="line2d_57">
     <g>
      <use xlink:href="#md2f1675a2a" x="195.41875" y="232.062187" style="fill: #0000ff; stroke: #0000ff"/>
     </g>
    </g>
    <g id="line2d_58">
     <g>
      <use xlink:href="#md2f1675a2a" x="195.41875" y="222.062187" style="fill: #0000ff; stroke: #0000ff"/>
     </g>
    </g>
    <g id="line2d_59">
     <path d="M 185.41875 227.062187 
L 205.41875 227.062187 
" style="fill: none"/>
    </g>
    <g id="line2d_60">
     <g>
      <use xlink:href="#m1ac81c625a" x="195.41875" y="227.062187" style="fill: #0000ff; stroke: #0000ff"/>
     </g>
    </g>
    <g id="text_21">
     <!-- 10 mm/s -->
     <g transform="translate(213.41875 230.562187) scale(0.1 -0.1)">
      <use xlink:href="#DejaVuSans-31"/>
      <use xlink:href="#DejaVuSans-30" x="63.623047"/>
      <use xlink:href="#DejaVuSans-20" x="127.246094"/>
      <use xlink:href="#DejaVuSans-6d" x="159.033203"/>
      <use xlink:href="#DejaVuSans-6d" x="256.445312"/>
      <use xlink:href="#DejaVuSans-2f" x="353.857422"/>
      <use xlink:href="#DejaVuSans-73" x="387.548828"/>
     </g>
    </g>
    <g id="LineCollection_15">
     <path d="M 195.41875 246.740313 
L 195.41875 236.740313 
" style="fill: none; stroke: #008000"/>
    </g>
    <g id="line2d_61">
     <g>
      <use xlink:href="#m9e4836e20d" x="195.41875" y="246.740313" style="fill: #008000; stroke: #008000"/>
     </g>
    </g>
    <g id="line2d_62">
     <g>
      <use xlink:href="#m9e4836e20d" x="195.41875" y="236.740313" style="fill: #008000; stroke: #008000"/>
     </g>
    </g>
    <g id="line2d_63">
     <path d="M 185.41875 241.740313 
L 205.41875 241.740313 
" style="fill: none"/>
    </g>
    <g id="line2d_64">
     <g>
      <use xlink:href="#m7f98fd828d" x="195.41875" y="241.740313" style="fill: #008000; stroke: #008000"/>
     </g>
    </g>
    <g id="text_22">
     <!-- 20 mm/s -->
     <g transform="translate(213.41875 245.240313) scale(0.1 -0.1)">
      <use xlink:href="#DejaVuSans-32"/>
      <use xlink:href="#DejaVuSans-30" x="63.623047"/>
      <use xlink:href="#DejaVuSans-20" x="127.246094"/>
      <use xlink:href="#DejaVuSans-6d" x="159.033203"/>
      <use xlink:href="#DejaVuSans-6d" x="256.445312"/>
      <use xlink:href="#DejaVuSans-2f" x="353.857422"/>
      <use xlink:href="#DejaVuSans-73" x="387.548828"/>
     </g>
    </g>
   </g>
  </g>
 </g>
 <defs>
  <clipPath id="pe25de7a40b">
   <rect x="54" y="34.56" width="334.8" height="221.76"/>
  </clipPath>
 </defs>
</svg>
