<?xml version="1.0" encoding="utf-8" standalone="no"?>
<!DOCTYPE svg PUBLIC "-//W3C//DTD SVG 1.1//EN"
  "http://www.w3.org/Graphics/SVG/1.1/DTD/svg11.dtd">
<svg xmlns:xlink="http://www.w3.org/1999/xlink" width="432pt" height="288pt" viewBox="0 0 432 288" xmlns="http://www.w3.org/2000/svg" version="1.1">
 <metadata>
  <rdf:RDF xmlns:dc="http://purl.org/dc/elements/1.1/" xmlns:cc="http://creativecommons.org/ns#" xmlns:rdf="http://www.w3.org/1999/02/22-rdf-syntax-ns#">
   <cc:Work>
    <dc:type rdf:resource="http://purl.org/dc/dcmitype/StillImage"/>
    <dc:date>2025-07-03T20:54:59.916965</dc:date>
    <dc:format>image/svg+xml</dc:format>
    <dc:creator>
     <cc:Agent>
      <dc:title>Matplotlib v3.9.2, https://matplotlib.org/</dc:title>
     </cc:Agent>
    </dc:creator>
   </cc:Work>
  </rdf:RDF>
 </metadata>
 <defs>
  <style type="text/css">*{stroke-linejoin: round; stroke-linecap: butt}</style>
 </defs>
 <g id="figure_1">
  <g id="patch_1">
   <path d="M 0 288 
L 432 288 
L 432 0 
L 0 0 
z
" style="fill: #ffffff"/>
  </g>
  <g id="axes_1">
   <g id="patch_2">
    <path d="M 54 256.32 
L 388.8 256.32 
L 388.8 34.56 
L 54 34.56 
z
" style="fill: #ffffff"/>
   </g>
   <g id="matplotlib.axis_1">
    <g id="xtick_1">
     <g id="line2d_1">
      <defs>
       <path id="md3dcad7d58" d="M 0 0 
L 0 3.5 
" style="stroke: #000000; stroke-width: 0.8"/>
      </defs>
      <g>
       <use xlink:href="#md3dcad7d58" x="69.219384" y="256.32" style="stroke: #000000; stroke-width: 0.8"/>
      </g>
     </g>
     <g id="text_1">
      <!-- 0.00 -->
      <g transform="translate(58.086571 270.918437) scale(0.1 -0.1)">
       <defs>
        <path id="DejaVuSans-30" d="M 2034 4250 
Q 1547 4250 1301 3770 
Q 1056 3291 1056 2328 
Q 1056 1369 1301 889 
Q 1547 409 2034 409 
Q 2525 409 2770 889 
Q 3016 1369 3016 2328 
Q 3016 3291 2770 3770 
Q 2525 4250 2034 4250 
z
M 2034 4750 
Q 2819 4750 3233 4129 
Q 3647 3509 3647 2328 
Q 3647 1150 3233 529 
Q 2819 -91 2034 -91 
Q 1250 -91 836 529 
Q 422 1150 422 2328 
Q 422 3509 836 4129 
Q 1250 4750 2034 4750 
z
" transform="scale(0.015625)"/>
        <path id="DejaVuSans-2e" d="M 684 794 
L 1344 794 
L 1344 0 
L 684 0 
L 684 794 
z
" transform="scale(0.015625)"/>
       </defs>
       <use xlink:href="#DejaVuSans-30"/>
       <use xlink:href="#DejaVuSans-2e" x="63.623047"/>
       <use xlink:href="#DejaVuSans-30" x="95.410156"/>
       <use xlink:href="#DejaVuSans-30" x="159.033203"/>
      </g>
     </g>
    </g>
    <g id="xtick_2">
     <g id="line2d_2">
      <g>
       <use xlink:href="#md3dcad7d58" x="123.545631" y="256.32" style="stroke: #000000; stroke-width: 0.8"/>
      </g>
     </g>
     <g id="text_2">
      <!-- 0.05 -->
      <g transform="translate(112.412818 270.918437) scale(0.1 -0.1)">
       <defs>
        <path id="DejaVuSans-35" d="M 691 4666 
L 3169 4666 
L 3169 4134 
L 1269 4134 
L 1269 2991 
Q 1406 3038 1543 3061 
Q 1681 3084 1819 3084 
Q 2600 3084 3056 2656 
Q 3513 2228 3513 1497 
Q 3513 744 3044 326 
Q 2575 -91 1722 -91 
Q 1428 -91 1123 -41 
Q 819 9 494 109 
L 494 744 
Q 775 591 1075 516 
Q 1375 441 1709 441 
Q 2250 441 2565 725 
Q 2881 1009 2881 1497 
Q 2881 1984 2565 2268 
Q 2250 2553 1709 2553 
Q 1456 2553 1204 2497 
Q 953 2441 691 2322 
L 691 4666 
z
" transform="scale(0.015625)"/>
       </defs>
       <use xlink:href="#DejaVuSans-30"/>
       <use xlink:href="#DejaVuSans-2e" x="63.623047"/>
       <use xlink:href="#DejaVuSans-30" x="95.410156"/>
       <use xlink:href="#DejaVuSans-35" x="159.033203"/>
      </g>
     </g>
    </g>
    <g id="xtick_3">
     <g id="line2d_3">
      <g>
       <use xlink:href="#md3dcad7d58" x="177.871878" y="256.32" style="stroke: #000000; stroke-width: 0.8"/>
      </g>
     </g>
     <g id="text_3">
      <!-- 0.10 -->
      <g transform="translate(166.739065 270.918437) scale(0.1 -0.1)">
       <defs>
        <path id="DejaVuSans-31" d="M 794 531 
L 1825 531 
L 1825 4091 
L 703 3866 
L 703 4441 
L 1819 4666 
L 2450 4666 
L 2450 531 
L 3481 531 
L 3481 0 
L 794 0 
L 794 531 
z
" transform="scale(0.015625)"/>
       </defs>
       <use xlink:href="#DejaVuSans-30"/>
       <use xlink:href="#DejaVuSans-2e" x="63.623047"/>
       <use xlink:href="#DejaVuSans-31" x="95.410156"/>
       <use xlink:href="#DejaVuSans-30" x="159.033203"/>
      </g>
     </g>
    </g>
    <g id="xtick_4">
     <g id="line2d_4">
      <g>
       <use xlink:href="#md3dcad7d58" x="232.198125" y="256.32" style="stroke: #000000; stroke-width: 0.8"/>
      </g>
     </g>
     <g id="text_4">
      <!-- 0.15 -->
      <g transform="translate(221.065313 270.918437) scale(0.1 -0.1)">
       <use xlink:href="#DejaVuSans-30"/>
       <use xlink:href="#DejaVuSans-2e" x="63.623047"/>
       <use xlink:href="#DejaVuSans-31" x="95.410156"/>
       <use xlink:href="#DejaVuSans-35" x="159.033203"/>
      </g>
     </g>
    </g>
    <g id="xtick_5">
     <g id="line2d_5">
      <g>
       <use xlink:href="#md3dcad7d58" x="286.524372" y="256.32" style="stroke: #000000; stroke-width: 0.8"/>
      </g>
     </g>
     <g id="text_5">
      <!-- 0.20 -->
      <g transform="translate(275.39156 270.918437) scale(0.1 -0.1)">
       <defs>
        <path id="DejaVuSans-32" d="M 1228 531 
L 3431 531 
L 3431 0 
L 469 0 
L 469 531 
Q 828 903 1448 1529 
Q 2069 2156 2228 2338 
Q 2531 2678 2651 2914 
Q 2772 3150 2772 3378 
Q 2772 3750 2511 3984 
Q 2250 4219 1831 4219 
Q 1534 4219 1204 4116 
Q 875 4013 500 3803 
L 500 4441 
Q 881 4594 1212 4672 
Q 1544 4750 1819 4750 
Q 2544 4750 2975 4387 
Q 3406 4025 3406 3419 
Q 3406 3131 3298 2873 
Q 3191 2616 2906 2266 
Q 2828 2175 2409 1742 
Q 1991 1309 1228 531 
z
" transform="scale(0.015625)"/>
       </defs>
       <use xlink:href="#DejaVuSans-30"/>
       <use xlink:href="#DejaVuSans-2e" x="63.623047"/>
       <use xlink:href="#DejaVuSans-32" x="95.410156"/>
       <use xlink:href="#DejaVuSans-30" x="159.033203"/>
      </g>
     </g>
    </g>
    <g id="xtick_6">
     <g id="line2d_6">
      <g>
       <use xlink:href="#md3dcad7d58" x="340.850619" y="256.32" style="stroke: #000000; stroke-width: 0.8"/>
      </g>
     </g>
     <g id="text_6">
      <!-- 0.25 -->
      <g transform="translate(329.717807 270.918437) scale(0.1 -0.1)">
       <use xlink:href="#DejaVuSans-30"/>
       <use xlink:href="#DejaVuSans-2e" x="63.623047"/>
       <use xlink:href="#DejaVuSans-32" x="95.410156"/>
       <use xlink:href="#DejaVuSans-35" x="159.033203"/>
      </g>
     </g>
    </g>
    <g id="text_7">
     <!-- Strain [mm] -->
     <g transform="translate(191.357031 284.596563) scale(0.1 -0.1)">
      <defs>
       <path id="DejaVuSans-53" d="M 3425 4513 
L 3425 3897 
Q 3066 4069 2747 4153 
Q 2428 4238 2131 4238 
Q 1616 4238 1336 4038 
Q 1056 3838 1056 3469 
Q 1056 3159 1242 3001 
Q 1428 2844 1947 2747 
L 2328 2669 
Q 3034 2534 3370 2195 
Q 3706 1856 3706 1288 
Q 3706 609 3251 259 
Q 2797 -91 1919 -91 
Q 1588 -91 1214 -16 
Q 841 59 441 206 
L 441 856 
Q 825 641 1194 531 
Q 1563 422 1919 422 
Q 2459 422 2753 634 
Q 3047 847 3047 1241 
Q 3047 1584 2836 1778 
Q 2625 1972 2144 2069 
L 1759 2144 
Q 1053 2284 737 2584 
Q 422 2884 422 3419 
Q 422 4038 858 4394 
Q 1294 4750 2059 4750 
Q 2388 4750 2728 4690 
Q 3069 4631 3425 4513 
z
" transform="scale(0.015625)"/>
       <path id="DejaVuSans-74" d="M 1172 4494 
L 1172 3500 
L 2356 3500 
L 2356 3053 
L 1172 3053 
L 1172 1153 
Q 1172 725 1289 603 
Q 1406 481 1766 481 
L 2356 481 
L 2356 0 
L 1766 0 
Q 1100 0 847 248 
Q 594 497 594 1153 
L 594 3053 
L 172 3053 
L 172 3500 
L 594 3500 
L 594 4494 
L 1172 4494 
z
" transform="scale(0.015625)"/>
       <path id="DejaVuSans-72" d="M 2631 2963 
Q 2534 3019 2420 3045 
Q 2306 3072 2169 3072 
Q 1681 3072 1420 2755 
Q 1159 2438 1159 1844 
L 1159 0 
L 581 0 
L 581 3500 
L 1159 3500 
L 1159 2956 
Q 1341 3275 1631 3429 
Q 1922 3584 2338 3584 
Q 2397 3584 2469 3576 
Q 2541 3569 2628 3553 
L 2631 2963 
z
" transform="scale(0.015625)"/>
       <path id="DejaVuSans-61" d="M 2194 1759 
Q 1497 1759 1228 1600 
Q 959 1441 959 1056 
Q 959 750 1161 570 
Q 1363 391 1709 391 
Q 2188 391 2477 730 
Q 2766 1069 2766 1631 
L 2766 1759 
L 2194 1759 
z
M 3341 1997 
L 3341 0 
L 2766 0 
L 2766 531 
Q 2569 213 2275 61 
Q 1981 -91 1556 -91 
Q 1019 -91 701 211 
Q 384 513 384 1019 
Q 384 1609 779 1909 
Q 1175 2209 1959 2209 
L 2766 2209 
L 2766 2266 
Q 2766 2663 2505 2880 
Q 2244 3097 1772 3097 
Q 1472 3097 1187 3025 
Q 903 2953 641 2809 
L 641 3341 
Q 956 3463 1253 3523 
Q 1550 3584 1831 3584 
Q 2591 3584 2966 3190 
Q 3341 2797 3341 1997 
z
" transform="scale(0.015625)"/>
       <path id="DejaVuSans-69" d="M 603 3500 
L 1178 3500 
L 1178 0 
L 603 0 
L 603 3500 
z
M 603 4863 
L 1178 4863 
L 1178 4134 
L 603 4134 
L 603 4863 
z
" transform="scale(0.015625)"/>
       <path id="DejaVuSans-6e" d="M 3513 2113 
L 3513 0 
L 2938 0 
L 2938 2094 
Q 2938 2591 2744 2837 
Q 2550 3084 2163 3084 
Q 1697 3084 1428 2787 
Q 1159 2491 1159 1978 
L 1159 0 
L 581 0 
L 581 3500 
L 1159 3500 
L 1159 2956 
Q 1366 3272 1645 3428 
Q 1925 3584 2291 3584 
Q 2894 3584 3203 3211 
Q 3513 2838 3513 2113 
z
" transform="scale(0.015625)"/>
       <path id="DejaVuSans-20" transform="scale(0.015625)"/>
       <path id="DejaVuSans-5b" d="M 550 4863 
L 1875 4863 
L 1875 4416 
L 1125 4416 
L 1125 -397 
L 1875 -397 
L 1875 -844 
L 550 -844 
L 550 4863 
z
" transform="scale(0.015625)"/>
       <path id="DejaVuSans-6d" d="M 3328 2828 
Q 3544 3216 3844 3400 
Q 4144 3584 4550 3584 
Q 5097 3584 5394 3201 
Q 5691 2819 5691 2113 
L 5691 0 
L 5113 0 
L 5113 2094 
Q 5113 2597 4934 2840 
Q 4756 3084 4391 3084 
Q 3944 3084 3684 2787 
Q 3425 2491 3425 1978 
L 3425 0 
L 2847 0 
L 2847 2094 
Q 2847 2600 2669 2842 
Q 2491 3084 2119 3084 
Q 1678 3084 1418 2786 
Q 1159 2488 1159 1978 
L 1159 0 
L 581 0 
L 581 3500 
L 1159 3500 
L 1159 2956 
Q 1356 3278 1631 3431 
Q 1906 3584 2284 3584 
Q 2666 3584 2933 3390 
Q 3200 3197 3328 2828 
z
" transform="scale(0.015625)"/>
       <path id="DejaVuSans-5d" d="M 1947 4863 
L 1947 -844 
L 622 -844 
L 622 -397 
L 1369 -397 
L 1369 4416 
L 622 4416 
L 622 4863 
L 1947 4863 
z
" transform="scale(0.015625)"/>
      </defs>
      <use xlink:href="#DejaVuSans-53"/>
      <use xlink:href="#DejaVuSans-74" x="63.476562"/>
      <use xlink:href="#DejaVuSans-72" x="102.685547"/>
      <use xlink:href="#DejaVuSans-61" x="143.798828"/>
      <use xlink:href="#DejaVuSans-69" x="205.078125"/>
      <use xlink:href="#DejaVuSans-6e" x="232.861328"/>
      <use xlink:href="#DejaVuSans-20" x="296.240234"/>
      <use xlink:href="#DejaVuSans-5b" x="328.027344"/>
      <use xlink:href="#DejaVuSans-6d" x="367.041016"/>
      <use xlink:href="#DejaVuSans-6d" x="464.453125"/>
      <use xlink:href="#DejaVuSans-5d" x="561.865234"/>
     </g>
    </g>
   </g>
   <g id="matplotlib.axis_2">
    <g id="ytick_1">
     <g id="line2d_7">
      <defs>
       <path id="m9acfd50be9" d="M 0 0 
L -3.5 0 
" style="stroke: #000000; stroke-width: 0.8"/>
      </defs>
      <g>
       <use xlink:href="#m9acfd50be9" x="54" y="245.656947" style="stroke: #000000; stroke-width: 0.8"/>
      </g>
     </g>
     <g id="text_8">
      <!-- 0 -->
      <g transform="translate(40.6375 249.456166) scale(0.1 -0.1)">
       <use xlink:href="#DejaVuSans-30"/>
      </g>
     </g>
    </g>
    <g id="ytick_2">
     <g id="line2d_8">
      <g>
       <use xlink:href="#m9acfd50be9" x="54" y="217.089665" style="stroke: #000000; stroke-width: 0.8"/>
      </g>
     </g>
     <g id="text_9">
      <!-- 1000 -->
      <g transform="translate(21.55 220.888884) scale(0.1 -0.1)">
       <use xlink:href="#DejaVuSans-31"/>
       <use xlink:href="#DejaVuSans-30" x="63.623047"/>
       <use xlink:href="#DejaVuSans-30" x="127.246094"/>
       <use xlink:href="#DejaVuSans-30" x="190.869141"/>
      </g>
     </g>
    </g>
    <g id="ytick_3">
     <g id="line2d_9">
      <g>
       <use xlink:href="#m9acfd50be9" x="54" y="188.522383" style="stroke: #000000; stroke-width: 0.8"/>
      </g>
     </g>
     <g id="text_10">
      <!-- 2000 -->
      <g transform="translate(21.55 192.321601) scale(0.1 -0.1)">
       <use xlink:href="#DejaVuSans-32"/>
       <use xlink:href="#DejaVuSans-30" x="63.623047"/>
       <use xlink:href="#DejaVuSans-30" x="127.246094"/>
       <use xlink:href="#DejaVuSans-30" x="190.869141"/>
      </g>
     </g>
    </g>
    <g id="ytick_4">
     <g id="line2d_10">
      <g>
       <use xlink:href="#m9acfd50be9" x="54" y="159.9551" style="stroke: #000000; stroke-width: 0.8"/>
      </g>
     </g>
     <g id="text_11">
      <!-- 3000 -->
      <g transform="translate(21.55 163.754319) scale(0.1 -0.1)">
       <defs>
        <path id="DejaVuSans-33" d="M 2597 2516 
Q 3050 2419 3304 2112 
Q 3559 1806 3559 1356 
Q 3559 666 3084 287 
Q 2609 -91 1734 -91 
Q 1441 -91 1130 -33 
Q 819 25 488 141 
L 488 750 
Q 750 597 1062 519 
Q 1375 441 1716 441 
Q 2309 441 2620 675 
Q 2931 909 2931 1356 
Q 2931 1769 2642 2001 
Q 2353 2234 1838 2234 
L 1294 2234 
L 1294 2753 
L 1863 2753 
Q 2328 2753 2575 2939 
Q 2822 3125 2822 3475 
Q 2822 3834 2567 4026 
Q 2313 4219 1838 4219 
Q 1578 4219 1281 4162 
Q 984 4106 628 3988 
L 628 4550 
Q 988 4650 1302 4700 
Q 1616 4750 1894 4750 
Q 2613 4750 3031 4423 
Q 3450 4097 3450 3541 
Q 3450 3153 3228 2886 
Q 3006 2619 2597 2516 
z
" transform="scale(0.015625)"/>
       </defs>
       <use xlink:href="#DejaVuSans-33"/>
       <use xlink:href="#DejaVuSans-30" x="63.623047"/>
       <use xlink:href="#DejaVuSans-30" x="127.246094"/>
       <use xlink:href="#DejaVuSans-30" x="190.869141"/>
      </g>
     </g>
    </g>
    <g id="ytick_5">
     <g id="line2d_11">
      <g>
       <use xlink:href="#m9acfd50be9" x="54" y="131.387818" style="stroke: #000000; stroke-width: 0.8"/>
      </g>
     </g>
     <g id="text_12">
      <!-- 4000 -->
      <g transform="translate(21.55 135.187037) scale(0.1 -0.1)">
       <defs>
        <path id="DejaVuSans-34" d="M 2419 4116 
L 825 1625 
L 2419 1625 
L 2419 4116 
z
M 2253 4666 
L 3047 4666 
L 3047 1625 
L 3713 1625 
L 3713 1100 
L 3047 1100 
L 3047 0 
L 2419 0 
L 2419 1100 
L 313 1100 
L 313 1709 
L 2253 4666 
z
" transform="scale(0.015625)"/>
       </defs>
       <use xlink:href="#DejaVuSans-34"/>
       <use xlink:href="#DejaVuSans-30" x="63.623047"/>
       <use xlink:href="#DejaVuSans-30" x="127.246094"/>
       <use xlink:href="#DejaVuSans-30" x="190.869141"/>
      </g>
     </g>
    </g>
    <g id="ytick_6">
     <g id="line2d_12">
      <g>
       <use xlink:href="#m9acfd50be9" x="54" y="102.820536" style="stroke: #000000; stroke-width: 0.8"/>
      </g>
     </g>
     <g id="text_13">
      <!-- 5000 -->
      <g transform="translate(21.55 106.619755) scale(0.1 -0.1)">
       <use xlink:href="#DejaVuSans-35"/>
       <use xlink:href="#DejaVuSans-30" x="63.623047"/>
       <use xlink:href="#DejaVuSans-30" x="127.246094"/>
       <use xlink:href="#DejaVuSans-30" x="190.869141"/>
      </g>
     </g>
    </g>
    <g id="ytick_7">
     <g id="line2d_13">
      <g>
       <use xlink:href="#m9acfd50be9" x="54" y="74.253253" style="stroke: #000000; stroke-width: 0.8"/>
      </g>
     </g>
     <g id="text_14">
      <!-- 6000 -->
      <g transform="translate(21.55 78.052472) scale(0.1 -0.1)">
       <defs>
        <path id="DejaVuSans-36" d="M 2113 2584 
Q 1688 2584 1439 2293 
Q 1191 2003 1191 1497 
Q 1191 994 1439 701 
Q 1688 409 2113 409 
Q 2538 409 2786 701 
Q 3034 994 3034 1497 
Q 3034 2003 2786 2293 
Q 2538 2584 2113 2584 
z
M 3366 4563 
L 3366 3988 
Q 3128 4100 2886 4159 
Q 2644 4219 2406 4219 
Q 1781 4219 1451 3797 
Q 1122 3375 1075 2522 
Q 1259 2794 1537 2939 
Q 1816 3084 2150 3084 
Q 2853 3084 3261 2657 
Q 3669 2231 3669 1497 
Q 3669 778 3244 343 
Q 2819 -91 2113 -91 
Q 1303 -91 875 529 
Q 447 1150 447 2328 
Q 447 3434 972 4092 
Q 1497 4750 2381 4750 
Q 2619 4750 2861 4703 
Q 3103 4656 3366 4563 
z
" transform="scale(0.015625)"/>
       </defs>
       <use xlink:href="#DejaVuSans-36"/>
       <use xlink:href="#DejaVuSans-30" x="63.623047"/>
       <use xlink:href="#DejaVuSans-30" x="127.246094"/>
       <use xlink:href="#DejaVuSans-30" x="190.869141"/>
      </g>
     </g>
    </g>
    <g id="ytick_8">
     <g id="line2d_14">
      <g>
       <use xlink:href="#m9acfd50be9" x="54" y="45.685971" style="stroke: #000000; stroke-width: 0.8"/>
      </g>
     </g>
     <g id="text_15">
      <!-- 7000 -->
      <g transform="translate(21.55 49.48519) scale(0.1 -0.1)">
       <defs>
        <path id="DejaVuSans-37" d="M 525 4666 
L 3525 4666 
L 3525 4397 
L 1831 0 
L 1172 0 
L 2766 4134 
L 525 4134 
L 525 4666 
z
" transform="scale(0.015625)"/>
       </defs>
       <use xlink:href="#DejaVuSans-37"/>
       <use xlink:href="#DejaVuSans-30" x="63.623047"/>
       <use xlink:href="#DejaVuSans-30" x="127.246094"/>
       <use xlink:href="#DejaVuSans-30" x="190.869141"/>
      </g>
     </g>
    </g>
    <g id="text_16">
     <!-- Stress [Pa] -->
     <g transform="translate(15.470312 172.147812) rotate(-90) scale(0.1 -0.1)">
      <defs>
       <path id="DejaVuSans-65" d="M 3597 1894 
L 3597 1613 
L 953 1613 
Q 991 1019 1311 708 
Q 1631 397 2203 397 
Q 2534 397 2845 478 
Q 3156 559 3463 722 
L 3463 178 
Q 3153 47 2828 -22 
Q 2503 -91 2169 -91 
Q 1331 -91 842 396 
Q 353 884 353 1716 
Q 353 2575 817 3079 
Q 1281 3584 2069 3584 
Q 2775 3584 3186 3129 
Q 3597 2675 3597 1894 
z
M 3022 2063 
Q 3016 2534 2758 2815 
Q 2500 3097 2075 3097 
Q 1594 3097 1305 2825 
Q 1016 2553 972 2059 
L 3022 2063 
z
" transform="scale(0.015625)"/>
       <path id="DejaVuSans-73" d="M 2834 3397 
L 2834 2853 
Q 2591 2978 2328 3040 
Q 2066 3103 1784 3103 
Q 1356 3103 1142 2972 
Q 928 2841 928 2578 
Q 928 2378 1081 2264 
Q 1234 2150 1697 2047 
L 1894 2003 
Q 2506 1872 2764 1633 
Q 3022 1394 3022 966 
Q 3022 478 2636 193 
Q 2250 -91 1575 -91 
Q 1294 -91 989 -36 
Q 684 19 347 128 
L 347 722 
Q 666 556 975 473 
Q 1284 391 1588 391 
Q 1994 391 2212 530 
Q 2431 669 2431 922 
Q 2431 1156 2273 1281 
Q 2116 1406 1581 1522 
L 1381 1569 
Q 847 1681 609 1914 
Q 372 2147 372 2553 
Q 372 3047 722 3315 
Q 1072 3584 1716 3584 
Q 2034 3584 2315 3537 
Q 2597 3491 2834 3397 
z
" transform="scale(0.015625)"/>
       <path id="DejaVuSans-50" d="M 1259 4147 
L 1259 2394 
L 2053 2394 
Q 2494 2394 2734 2622 
Q 2975 2850 2975 3272 
Q 2975 3691 2734 3919 
Q 2494 4147 2053 4147 
L 1259 4147 
z
M 628 4666 
L 2053 4666 
Q 2838 4666 3239 4311 
Q 3641 3956 3641 3272 
Q 3641 2581 3239 2228 
Q 2838 1875 2053 1875 
L 1259 1875 
L 1259 0 
L 628 0 
L 628 4666 
z
" transform="scale(0.015625)"/>
      </defs>
      <use xlink:href="#DejaVuSans-53"/>
      <use xlink:href="#DejaVuSans-74" x="63.476562"/>
      <use xlink:href="#DejaVuSans-72" x="102.685547"/>
      <use xlink:href="#DejaVuSans-65" x="141.548828"/>
      <use xlink:href="#DejaVuSans-73" x="203.072266"/>
      <use xlink:href="#DejaVuSans-73" x="255.171875"/>
      <use xlink:href="#DejaVuSans-20" x="307.271484"/>
      <use xlink:href="#DejaVuSans-5b" x="339.058594"/>
      <use xlink:href="#DejaVuSans-50" x="378.072266"/>
      <use xlink:href="#DejaVuSans-61" x="433.875"/>
      <use xlink:href="#DejaVuSans-5d" x="495.154297"/>
     </g>
    </g>
   </g>
   <g id="line2d_15">
    <path d="M 69.219468 245.812066 
L 69.220141 245.804136 
L 69.224664 245.86097 
L 69.659888 245.31058 
L 70.559716 245.529649 
L 71.008014 246.106909 
L 71.894496 245.921537 
L 72.355725 246.066372 
L 72.791091 245.91422 
L 73.239637 245.54134 
L 74.581878 245.088077 
L 75.468359 245.159559 
L 76.822537 245.013235 
L 77.717308 244.385803 
L 78.592351 244.250023 
L 79.476155 244.145021 
L 80.801899 243.47246 
L 82.593763 243.046177 
L 83.922492 242.446334 
L 85.24434 242.119959 
L 87.474388 241.2175 
L 88.809831 240.711874 
L 90.604443 240.061852 
L 108.90022 232.529616 
L 111.562616 231.399828 
L 120.01238 227.700589 
L 148.67896 214.987821 
L 152.256306 213.354416 
L 154.027363 212.641174 
L 156.254718 211.62154 
L 160.253752 209.79199 
L 175.357602 202.77736 
L 178.915333 201.116206 
L 185.590475 197.906423 
L 188.72489 196.368208 
L 201.16401 190.170945 
L 202.931005 189.280559 
L 226.526389 176.84787 
L 245.218672 166.264194 
L 261.259343 156.599546 
L 263.918789 154.957768 
L 269.272726 151.571489 
L 273.71641 148.621384 
L 279.519949 144.734974 
L 285.336462 140.901048 
L 286.402039 140.392953 
L 286.655388 140.977372 
L 286.590253 142.033535 
L 286.525678 151.640917 
L 286.524724 161.123438 
L 286.524724 161.120645 
" clip-path="url(#p71e816e72f)" style="fill: none; stroke: #000000; stroke-width: 1.5; stroke-linecap: square"/>
   </g>
   <g id="line2d_16">
    <path d="M 69.220289 245.690241 
L 69.218759 245.688178 
L 70.092034 245.295599 
L 70.54533 245.027584 
L 70.986831 245.035668 
L 71.424186 245.577807 
L 73.661861 244.616241 
L 74.102201 244.690191 
L 76.33341 244.006849 
L 77.22611 243.436696 
L 78.571417 243.019627 
L 79.023196 242.936701 
L 80.798481 242.221321 
L 82.588853 241.58956 
L 90.620488 238.579703 
L 94.644427 236.941231 
L 99.515353 235.011381 
L 102.648297 233.690738 
L 121.857769 225.584591 
L 125.41464 224.018603 
L 129.861075 222.129193 
L 134.321504 220.172725 
L 136.969676 219.032869 
L 144.532772 215.747362 
L 146.321983 215.016324 
L 148.571595 214.003596 
L 152.134683 212.399705 
L 153.931852 211.605917 
L 155.751901 210.76928 
L 177.578408 200.746818 
L 178.480723 200.254441 
L 181.592062 198.816918 
L 185.148187 197.090348 
L 187.363812 196.076206 
L 190.030718 194.740718 
L 192.701625 193.441838 
L 196.692867 191.455168 
L 199.383647 190.112634 
L 204.296601 187.589241 
L 212.354851 183.402353 
L 215.487101 181.68646 
L 230.125785 173.730445 
L 238.562669 168.955546 
L 243.442869 166.055125 
L 246.518781 164.226357 
L 249.148074 162.663997 
L 250.934467 161.556812 
L 253.16062 160.229816 
L 258.985339 156.58915 
L 262.565752 154.283844 
L 271.000698 148.749002 
L 273.684516 146.961185 
L 282.595737 140.8015 
L 285.719148 138.735216 
L 286.420566 138.462206 
L 286.645731 139.04393 
L 286.524289 143.684646 
L 286.523999 159.041541 
L 286.523999 159.041541 
" clip-path="url(#p71e816e72f)" style="fill: none; stroke: #000000; stroke-width: 1.5; stroke-linecap: square"/>
   </g>
   <g id="line2d_17">
    <path d="M 69.219961 245.761856 
L 69.219964 245.765795 
L 69.285565 245.751636 
L 70.180067 245.422 
L 70.624137 245.205195 
L 71.069119 245.824803 
L 73.736523 244.924231 
L 75.117808 244.671764 
L 76.016226 244.615426 
L 76.468669 244.409225 
L 76.915557 244.332945 
L 78.244783 243.611747 
L 79.578817 243.335402 
L 80.46563 242.945493 
L 82.667826 242.340862 
L 83.555469 241.870407 
L 85.784725 241.242764 
L 87.115608 240.695405 
L 92.021517 238.940469 
L 93.359198 238.399975 
L 95.137633 237.784233 
L 97.391237 236.937613 
L 103.597109 234.546039 
L 104.929567 233.948575 
L 107.164574 233.115646 
L 120.952532 227.582975 
L 124.047013 226.304548 
L 134.708863 221.93018 
L 136.025406 221.375895 
L 137.359854 220.845488 
L 142.276808 218.783777 
L 144.501302 217.836361 
L 152.92611 214.29101 
L 163.206429 209.836581 
L 181.042456 201.804971 
L 190.366859 197.490762 
L 201.474805 192.171425 
L 203.23749 191.303081 
L 205.023966 190.416248 
L 210.374804 187.741607 
L 213.933498 185.957103 
L 217.918088 183.855619 
L 219.721143 182.906577 
L 224.60699 180.329187 
L 226.382441 179.380808 
L 241.041984 171.291265 
L 244.580026 169.262077 
L 252.597305 164.481323 
L 259.704394 160.140318 
L 264.152554 157.39268 
L 269.06385 154.139356 
L 270.847674 153.006125 
L 274.010626 150.895878 
L 278.473376 147.889526 
L 281.587606 145.741234 
L 293.568377 137.208327 
L 295.785494 135.586664 
L 298.017367 133.90532 
L 306.446324 127.339444 
L 310.010489 124.543206 
L 317.120023 118.93737 
L 329.551807 108.525463 
L 337.597187 101.497832 
L 346.519288 93.544888 
L 357.630405 83.104526 
L 364.371366 76.459006 
L 367.935365 72.969851 
L 372.867074 68.242544 
L 373.331454 68.030381 
L 373.576762 69.379976 
L 373.447694 81.692827 
L 373.446367 108.065786 
L 373.446367 108.065786 
" clip-path="url(#p71e816e72f)" style="fill: none; stroke: #000000; stroke-width: 1.5; stroke-linecap: square"/>
   </g>
   <g id="line2d_18">
    <path d="M 69.219584 245.752913 
L 69.219899 245.746823 
L 69.241606 245.760165 
L 70.127319 245.391535 
L 70.575534 245.297427 
L 71.037095 245.966529 
L 71.484563 245.814594 
L 71.934851 245.42604 
L 72.40752 245.249085 
L 74.272663 245.418199 
L 75.183682 245.096282 
L 75.628664 245.224656 
L 76.080775 245.127544 
L 76.519042 244.506352 
L 77.402208 244.379638 
L 78.758955 244.264719 
L 80.11363 243.645695 
L 82.334306 243.016924 
L 89.070708 240.747752 
L 90.855775 240.116412 
L 94.417058 238.910456 
L 98.424547 237.360397 
L 116.650371 230.370974 
L 122.828556 227.884731 
L 128.149298 225.78562 
L 160.323052 212.357403 
L 165.672035 210.019457 
L 168.7838 208.670543 
L 177.719247 204.695637 
L 186.652177 200.577104 
L 192.003336 198.092283 
L 197.820263 195.270512 
L 204.041149 192.244418 
L 214.811587 186.839177 
L 217.028621 185.690499 
L 228.554847 179.546735 
L 231.215122 178.090683 
L 245.937955 169.711305 
L 255.33144 164.10872 
L 260.73787 160.730375 
L 268.292903 155.879454 
L 276.243887 150.643194 
L 279.380146 148.52429 
L 295.446038 137.149174 
L 298.577573 134.829595 
L 300.75861 133.216386 
L 319.481875 118.347177 
L 322.64377 115.715918 
L 327.54056 111.550108 
L 337.797192 102.408452 
L 349.806086 91.09526 
L 361.830501 78.886548 
L 364.064819 76.483365 
L 372.978299 66.982409 
L 373.33106 66.807479 
L 373.576161 68.10337 
L 373.444378 77.654657 
L 373.447569 103.348958 
L 373.446927 103.347407 
" clip-path="url(#p71e816e72f)" style="fill: none; stroke: #000000; stroke-width: 1.5; stroke-linecap: square"/>
   </g>
   <g id="line2d_19">
    <path d="M 69.219221 245.806704 
L 69.220727 245.812436 
L 69.221189 245.781437 
L 69.221299 245.789609 
L 70.096735 245.41321 
L 70.544286 245.147179 
L 70.980316 245.172186 
L 71.445192 245.740264 
L 73.294752 245.008089 
L 73.754323 244.976322 
L 76.005427 243.891411 
L 77.808731 243.684892 
L 78.701927 243.500521 
L 79.146577 243.096129 
L 80.049804 242.747563 
L 82.268476 242.164927 
L 84.029917 241.394414 
L 84.911591 241.117798 
L 86.695829 240.762216 
L 87.14164 240.575136 
L 88.045779 240.006999 
L 90.288096 239.315844 
L 91.614089 238.780258 
L 92.949441 238.331428 
L 95.159015 237.520175 
L 96.492054 237.026985 
L 97.845402 236.511844 
L 100.941209 235.358198 
L 102.700961 234.721167 
L 110.29649 231.779523 
L 116.544462 229.319395 
L 124.052287 226.269863 
L 139.631366 219.887678 
L 153.393644 214.031317 
L 154.737211 213.489949 
L 158.749202 211.807465 
L 161.410804 210.612988 
L 163.213776 209.800831 
L 168.100525 207.713067 
L 171.246898 206.353671 
L 177.932899 203.388962 
L 179.710713 202.573079 
L 183.256144 200.947381 
L 187.715992 198.895128 
L 191.75808 197.028944 
L 197.121487 194.524242 
L 204.269992 191.067104 
L 205.621682 190.395084 
L 211.422362 187.549224 
L 213.20174 186.68493 
L 216.77635 184.846767 
L 218.974733 183.796552 
L 222.0591 182.155674 
L 224.313779 181.041902 
L 249.398791 167.138816 
L 257.892945 162.120514 
L 261.41815 159.926198 
L 266.335352 156.901771 
L 285.023905 144.758874 
L 305.019033 130.537597 
L 324.547854 115.192271 
L 341.067121 101.019412 
L 345.069926 97.317463 
L 353.984546 88.844139 
L 355.331595 87.53009 
L 357.560317 85.381241 
L 359.770637 83.08268 
L 365.593242 77.063215 
L 367.406327 75.242336 
L 369.190068 73.394478 
L 371.883833 70.448528 
L 372.764264 69.665339 
L 373.31017 69.39059 
L 373.581818 70.662393 
L 373.516745 72.831363 
L 373.44674 90.358697 
L 373.446865 93.530104 
L 373.44703 101.173235 
L 373.44759 106.333675 
L 373.44759 106.333675 
" clip-path="url(#p71e816e72f)" style="fill: none; stroke: #000000; stroke-width: 1.5; stroke-linecap: square"/>
   </g>
   <g id="line2d_20">
    <path d="M 69.219807 245.897961 
L 69.220883 245.869731 
L 69.251708 245.887983 
L 70.568666 245.420794 
L 71.009668 245.565086 
L 71.477032 246.24 
L 75.949232 245.690544 
L 76.401509 245.511955 
L 76.862572 245.52064 
L 77.748225 245.70913 
L 79.524632 245.602964 
L 79.975583 245.274602 
L 80.87309 245.138496 
L 82.227599 244.971626 
L 83.117231 244.774978 
L 89.779359 242.332456 
L 94.226197 240.130978 
L 102.314734 235.799024 
L 106.7556 233.240845 
L 111.249021 230.672308 
L 112.834872 229.939155 
L 112.680962 231.48833 
L 112.681252 231.463966 
L 112.681765 233.025918 
L 112.682112 233.02019 
" clip-path="url(#p71e816e72f)" style="fill: none; stroke: #000000; stroke-width: 1.5; stroke-linecap: square"/>
   </g>
   <g id="line2d_21">
    <path d="M 69.219492 245.784277 
L 69.219419 245.806181 
L 69.50953 245.783043 
L 70.405794 245.296394 
L 70.868184 245.995055 
L 72.646061 245.883563 
L 74.003222 246.037162 
L 74.902304 245.81492 
L 75.784973 245.744911 
L 76.236587 245.606536 
L 77.134177 245.713934 
L 78.033259 245.803023 
L 79.371354 245.818299 
L 79.806057 245.503488 
L 80.700912 245.397617 
L 82.041163 245.405491 
L 82.939333 245.229876 
L 84.69915 244.84731 
L 88.238115 243.871123 
L 94.485019 241.072748 
L 97.167109 239.714523 
L 100.767914 237.868532 
L 105.238704 235.476988 
L 112.577151 231.466305 
L 112.833727 231.410471 
L 112.680723 232.574602 
L 112.682019 233.921964 
L 112.680047 233.903614 
" clip-path="url(#p71e816e72f)" style="fill: none; stroke: #000000; stroke-width: 1.5; stroke-linecap: square"/>
   </g>
   <g id="line2d_22">
    <path d="M 69.219506 245.768399 
L 69.219636 245.822627 
L 69.219829 245.805527 
L 69.408369 245.78599 
L 70.289235 245.394069 
L 70.740019 245.397336 
L 71.176546 246.098928 
L 72.532856 245.9793 
L 73.889188 246.044577 
L 74.772023 245.779648 
L 76.091716 245.654295 
L 76.526916 245.552034 
L 77.85954 245.828671 
L 79.204516 246.000293 
L 79.650161 245.678195 
L 80.087931 245.499591 
L 81.419146 245.515367 
L 82.301649 245.504466 
L 85.420562 244.865013 
L 88.978676 243.833467 
L 92.0715 242.576148 
L 93.382903 242.007048 
L 103.253593 237.133636 
L 108.130281 234.505661 
L 112.833862 232.197949 
L 112.681454 233.479018 
L 112.68076 234.602303 
L 112.680703 234.555573 
" clip-path="url(#p71e816e72f)" style="fill: none; stroke: #000000; stroke-width: 1.5; stroke-linecap: square"/>
   </g>
   <g id="line2d_23">
    <path d="M 69.220355 245.80327 
L 69.219161 245.768309 
L 69.225829 245.815566 
L 70.564187 245.316944 
L 71.025085 245.447295 
L 71.473217 246.087731 
L 72.821757 245.79103 
L 73.282987 245.460199 
L 73.730124 245.400782 
L 75.084301 245.464502 
L 76.444944 245.465661 
L 76.879564 245.582135 
L 77.324925 244.983601 
L 77.760291 244.66763 
L 79.113308 244.614074 
L 80.013053 244.493498 
L 80.466159 244.026354 
L 81.817518 243.729436 
L 82.704165 243.582891 
L 83.152297 243.176572 
L 84.046489 242.843046 
L 85.831638 242.124866 
L 86.733705 241.74369 
L 88.508683 240.96793 
L 89.387373 240.555468 
L 91.201371 239.75653 
L 92.534576 239.146359 
L 94.76363 238.10608 
L 104.525108 233.21884 
L 106.332557 232.304305 
L 109.902527 230.516958 
L 112.588003 229.113599 
L 117.037487 226.749095 
L 133.047849 218.243152 
L 134.387105 217.457855 
L 141.504659 213.622664 
L 160.207113 203.341134 
L 164.206727 201.221512 
L 166.915413 199.736372 
L 171.8379 197.0878 
L 174.050541 195.891486 
L 183.827914 190.57656 
L 185.162942 189.880331 
L 187.833424 188.388439 
L 190.065711 187.127928 
L 194.070879 184.941139 
L 198.077332 182.729769 
L 199.48738 182.191085 
L 199.751733 182.505467 
L 199.603112 186.503318 
L 199.603734 195.250616 
L 199.603693 195.247722 
" clip-path="url(#p71e816e72f)" style="fill: none; stroke: #000000; stroke-width: 1.5; stroke-linecap: square"/>
   </g>
   <g id="line2d_24">
    <path d="M 69.218837 245.796873 
L 69.219689 245.828815 
L 69.297729 245.785628 
L 70.630954 245.38787 
L 71.084391 245.463208 
L 71.52556 246.021389 
L 72.405576 245.758813 
L 72.853543 245.76625 
L 73.300348 245.658455 
L 74.18683 245.676162 
L 75.097352 245.533605 
L 75.551784 245.589427 
L 77.321183 245.034525 
L 78.662969 244.652467 
L 80.011924 244.343272 
L 81.774112 243.721869 
L 83.561831 243.233512 
L 84.464312 242.795034 
L 86.243825 242.105941 
L 89.81043 240.609653 
L 91.153085 239.987015 
L 92.959207 239.222946 
L 94.28893 238.591697 
L 98.315485 236.713969 
L 100.553427 235.62395 
L 101.873286 235.040547 
L 105.40363 233.30669 
L 116.111329 228.160144 
L 117.900706 227.298184 
L 120.131418 226.185338 
L 125.913348 223.302529 
L 128.597663 221.987156 
L 148.235175 212.243474 
L 151.833327 210.451442 
L 158.532473 207.053856 
L 160.294826 206.140646 
L 173.682102 199.269921 
L 175.46003 198.325208 
L 199.427343 185.43236 
L 199.480313 185.420083 
L 199.747557 185.672056 
L 199.674972 186.223228 
L 199.602812 191.924788 
L 199.602511 196.625613 
L 199.602511 196.625613 
" clip-path="url(#p71e816e72f)" style="fill: none; stroke: #000000; stroke-width: 1.5; stroke-linecap: square"/>
   </g>
   <g id="line2d_25">
    <path d="M 69.219542 245.749821 
L 69.219769 245.752029 
L 69.220094 245.732719 
L 69.220885 245.732734 
L 69.422778 245.710787 
L 70.303478 245.294288 
L 70.757081 245.412437 
L 71.217813 246.087049 
L 72.136789 245.84491 
L 72.59719 245.820055 
L 73.037861 245.651008 
L 73.47903 245.658026 
L 74.368496 245.254726 
L 75.75119 244.889154 
L 76.665027 244.978068 
L 78.011827 244.772116 
L 78.450757 244.63677 
L 78.898889 244.185043 
L 79.791077 243.911353 
L 81.123369 243.616069 
L 82.90197 242.897226 
L 84.688944 242.262996 
L 85.56954 241.825392 
L 87.770576 240.956145 
L 88.658964 240.535733 
L 90.444293 239.889897 
L 93.102497 238.691626 
L 98.856589 236.072864 
L 101.533047 234.879152 
L 106.87026 232.39065 
L 109.978335 230.903643 
L 118.041525 227.121951 
L 123.839692 224.299613 
L 145.692715 213.922266 
L 149.227867 212.17811 
L 151.920056 210.885862 
L 159.921165 206.918619 
L 163.482181 205.223214 
L 174.1307 199.781403 
L 179.924966 196.785541 
L 182.146559 195.64704 
L 196.332386 188.061692 
L 197.661861 187.249596 
L 199.49825 186.497917 
L 199.741589 186.756526 
L 199.603662 190.379799 
L 199.602004 195.316781 
L 199.603599 197.178299 
L 199.603599 197.178299 
" clip-path="url(#p71e816e72f)" style="fill: none; stroke: #000000; stroke-width: 1.5; stroke-linecap: square"/>
   </g>
   <g id="line2d_26">
    <path d="M 69.21959 245.754077 
L 69.21944 245.748618 
L 69.220934 245.785911 
L 69.219518 245.783284 
L 69.555581 245.785544 
L 69.99476 245.493052 
L 70.449656 245.335029 
L 71.349235 245.492793 
L 71.811957 246.141058 
L 72.7059 245.949201 
L 73.148229 245.911888 
L 73.609292 245.750798 
L 74.072843 245.780337 
L 74.976733 245.457493 
L 75.861059 245.314187 
L 76.298415 245.236214 
L 76.748371 244.99942 
L 77.211424 244.929126 
L 78.127582 245.003453 
L 79.941331 244.732742 
L 80.376116 244.189598 
L 81.254309 243.921639 
L 83.041863 243.592246 
L 83.930763 243.265643 
L 84.818986 242.83942 
L 86.165454 242.312627 
L 87.046465 241.965024 
L 88.854079 241.465812 
L 91.104604 240.38925 
L 92.010152 240.092324 
L 96.033347 238.329001 
L 102.244524 235.630173 
L 145.400405 215.81661 
L 147.165246 215.002195 
L 151.655548 212.910081 
L 177.12495 200.618089 
L 180.666734 198.870923 
L 200.757636 188.374456 
L 223.499737 175.546852 
L 257.294089 155.08437 
L 259.071944 154.008079 
L 262.199914 152.009846 
L 272.431139 145.49019 
L 274.210403 144.36536 
L 277.335638 142.320455 
L 280.440895 140.264973 
L 285.78963 136.884339 
L 286.413292 136.655028 
L 286.664797 137.390861 
L 286.524476 143.76234 
L 286.524807 159.628512 
L 286.524807 159.628512 
" clip-path="url(#p71e816e72f)" style="fill: none; stroke: #000000; stroke-width: 1.5; stroke-linecap: square"/>
   </g>
   <g id="line2d_27">
    <path d="M 69.219445 245.852514 
L 69.221 245.794907 
L 69.220448 245.839154 
L 69.334271 245.841995 
L 69.770735 244.944586 
L 70.226162 244.569462 
L 71.184431 244.309423 
L 71.624439 244.075279 
L 72.124132 245.529041 
L 73.105612 245.129045 
L 74.510189 244.73827 
L 77.798811 244.122663 
L 79.521706 243.64426 
L 80.656376 243.51972 
L 82.312292 242.978202 
L 83.389268 242.651798 
L 86.411961 241.988089 
L 87.763485 241.168585 
L 89.379612 240.036408 
L 90.461892 239.504526 
L 93.098627 238.591798 
L 96.371332 237.3187 
L 100.648728 235.430132 
L 134.881808 220.267413 
L 147.554838 214.487286 
L 178.488173 199.752982 
L 200.255809 188.739786 
L 215.925005 180.164148 
L 227.655495 173.50687 
L 231.22795 171.377172 
L 249.72687 159.885811 
L 259.921662 153.102382 
L 266.933939 148.306286 
L 273.357991 143.723621 
L 282.036028 137.411332 
L 283.89454 136.316404 
L 284.809704 135.948868 
L 286.149043 135.932527 
L 286.440855 136.469256 
L 286.625318 138.193617 
L 286.524683 156.220507 
L 286.524206 156.219664 
L 286.524807 156.651653 
L 286.524724 161.905792 
L 286.524559 161.889607 
" clip-path="url(#p71e816e72f)" style="fill: none; stroke: #ff0000; stroke-width: 1.5; stroke-linecap: square"/>
   </g>
   <g id="line2d_28">
    <path d="M 69.219767 245.808262 
L 69.220924 245.853077 
L 69.309833 245.783263 
L 69.764286 244.951117 
L 70.240768 244.510501 
L 70.699013 244.428689 
L 71.580024 243.939203 
L 72.088669 245.581088 
L 73.072139 245.503747 
L 74.562264 245.013117 
L 77.232155 244.232182 
L 79.260768 243.805673 
L 80.713093 243.801857 
L 85.052827 242.897259 
L 89.645225 240.523782 
L 92.3496 239.294767 
L 103.177677 234.935319 
L 122.045967 226.774247 
L 155.416719 211.747555 
L 163.271875 208.10363 
L 168.04399 205.805792 
L 191.893956 194.116662 
L 209.171859 184.868225 
L 229.144978 173.460935 
L 237.039924 168.649422 
L 249.399951 160.851369 
L 259.102677 154.302084 
L 265.54192 149.81422 
L 275.204857 142.801799 
L 281.250906 138.2747 
L 284.137983 136.34239 
L 285.494315 135.705111 
L 285.940955 135.786532 
L 286.436648 136.531558 
L 286.627452 138.284451 
L 286.523854 155.943131 
L 286.524476 160.941665 
L 286.524538 160.940664 
" clip-path="url(#p71e816e72f)" style="fill: none; stroke: #ff0000; stroke-width: 1.5; stroke-linecap: square"/>
   </g>
   <g id="line2d_29">
    <path d="M 69.219392 245.833573 
L 69.219754 245.837092 
L 69.219808 245.787985 
L 69.415212 245.67252 
L 69.865126 244.754854 
L 70.328842 244.488673 
L 71.260916 244.488909 
L 71.695951 244.355577 
L 72.180059 245.894252 
L 74.085987 244.881857 
L 75.061499 244.6249 
L 77.804338 244.258869 
L 81.169885 243.686527 
L 83.294657 242.742243 
L 84.85773 242.360675 
L 86.848543 242.005846 
L 87.782276 241.566223 
L 91.327541 239.536012 
L 93.12471 238.905847 
L 95.376146 238.195707 
L 99.875701 236.301839 
L 118.154107 228.492959 
L 123.572805 226.096597 
L 152.0218 213.308052 
L 183.081349 198.581167 
L 189.527948 195.3812 
L 195.467229 192.429349 
L 220.790927 178.902049 
L 227.738214 174.897272 
L 243.640844 165.423597 
L 254.905317 158.304851 
L 268.887698 148.916917 
L 279.524156 141.37832 
L 282.836651 139.017218 
L 284.226308 138.267032 
L 285.107816 137.947071 
L 285.557274 137.958694 
L 285.996453 138.146437 
L 286.433747 138.539968 
L 286.627535 140.338322 
L 286.525056 158.615642 
L 286.52317 163.819744 
L 286.52317 163.819744 
" clip-path="url(#p71e816e72f)" style="fill: none; stroke: #ff0000; stroke-width: 1.5; stroke-linecap: square"/>
   </g>
   <g id="line2d_30">
    <path d="M 69.219687 245.795763 
L 69.220573 245.808667 
L 69.219848 245.759673 
L 69.224672 245.804025 
L 69.662322 245.061371 
L 70.127282 244.537197 
L 70.587019 244.383299 
L 71.052891 243.871169 
L 71.554241 243.507909 
L 72.059239 245.092112 
L 73.489017 244.705245 
L 79.005863 242.834578 
L 80.893885 242.571347 
L 82.596886 242.087462 
L 84.237549 242.058988 
L 85.260809 241.72608 
L 86.696555 240.928978 
L 88.93738 239.645523 
L 91.564828 238.479862 
L 99.402742 235.494286 
L 129.969046 222.733715 
L 153.709589 212.169536 
L 187.582697 196.222474 
L 190.952887 194.541311 
L 202.230623 189.014599 
L 213.768982 182.961304 
L 226.575971 176.073329 
L 231.124393 173.526683 
L 242.431308 166.986551 
L 258.552792 157.035434 
L 271.514297 148.538322 
L 284.661777 139.395086 
L 292.530197 133.586775 
L 298.723469 128.847046 
L 302.25746 126.048882 
L 307.544189 121.79334 
L 313.292479 117.125871 
L 318.079847 113.011008 
L 325.645201 106.366331 
L 330.998246 101.52832 
L 346.054619 87.089896 
L 352.99859 79.943688 
L 359.924656 72.456797 
L 369.789194 61.557356 
L 371.158624 60.479591 
L 371.613884 60.249091 
L 372.067819 60.191518 
L 372.961098 60.278639 
L 373.359493 61.679933 
L 373.539044 65.432743 
L 373.446761 111.378128 
L 373.445849 111.351826 
L 373.447258 111.615057 
L 373.447258 111.615057 
" clip-path="url(#p71e816e72f)" style="fill: none; stroke: #ff0000; stroke-width: 1.5; stroke-linecap: square"/>
   </g>
   <g id="line2d_31">
    <path d="M 69.219498 245.729443 
L 69.218948 245.697442 
L 69.425179 245.563706 
L 69.877414 244.661577 
L 71.269226 243.577337 
L 71.740071 243.500553 
L 72.180079 245.212202 
L 73.176498 245.031744 
L 79.389001 242.967272 
L 80.509745 242.871127 
L 82.152398 242.625817 
L 83.205499 242.565748 
L 84.207537 242.214532 
L 90.066575 239.342414 
L 93.597252 238.079434 
L 97.983407 236.424047 
L 103.534074 234.138494 
L 110.583489 231.321058 
L 121.534286 226.726585 
L 125.342826 225.155267 
L 131.83892 222.321554 
L 138.703975 219.362958 
L 148.110267 215.291696 
L 154.527688 212.32515 
L 163.711158 208.233413 
L 188.114781 196.820567 
L 195.02891 193.364536 
L 206.006234 187.778565 
L 212.650456 184.355776 
L 217.979627 181.524846 
L 236.254388 171.136998 
L 249.724839 162.995581 
L 260.535709 156.096525 
L 270.320004 149.530378 
L 278.640037 143.654136 
L 295.842588 130.637438 
L 301.57231 125.977684 
L 307.829245 120.736907 
L 319.133508 110.954902 
L 328.302388 102.485732 
L 336.304767 94.675153 
L 344.364177 86.356299 
L 356.20958 73.247265 
L 360.141469 68.607268 
L 368.877304 58.142109 
L 370.284203 56.704344 
L 371.230535 55.932619 
L 371.692759 55.665744 
L 372.15432 55.589503 
L 373.030938 55.65383 
L 373.356861 56.630617 
L 373.542505 60.68234 
L 373.446989 97.655686 
L 373.445683 106.383329 
L 373.44672 106.377848 
" clip-path="url(#p71e816e72f)" style="fill: none; stroke: #ff0000; stroke-width: 1.5; stroke-linecap: square"/>
   </g>
   <g id="line2d_32">
    <path d="M 69.21954 245.721153 
L 69.220228 245.737873 
L 70.598749 243.635561 
L 71.065947 243.472238 
L 72.001337 243.591493 
L 72.495393 245.400385 
L 73.473557 245.324942 
L 74.919251 244.813829 
L 77.615668 243.801674 
L 79.643618 243.193838 
L 81.096606 243.214227 
L 82.771754 243.366175 
L 83.808276 243.073616 
L 85.248001 242.226892 
L 87.48551 240.918625 
L 89.677261 239.949288 
L 106.327928 233.547355 
L 120.451295 227.730613 
L 143.189138 217.944746 
L 148.011653 215.733627 
L 152.887885 213.673066 
L 159.345199 210.749929 
L 179.523898 201.517143 
L 183.538019 199.622552 
L 208.537244 187.215092 
L 232.552906 173.992012 
L 241.15611 168.906608 
L 251.976937 162.262895 
L 261.073533 156.405442 
L 272.017057 148.977402 
L 286.125832 138.703494 
L 298.615829 129.002901 
L 307.791341 121.37877 
L 313.665632 116.259409 
L 326.058061 104.996607 
L 337.301976 93.842491 
L 342.29824 88.557872 
L 348.917925 81.350961 
L 353.745083 75.9141 
L 360.368083 68.027833 
L 369.82345 56.729944 
L 371.196196 55.497047 
L 371.654317 55.21191 
L 372.113888 55.100499 
L 372.556217 55.154744 
L 372.991417 55.092077 
L 373.35568 55.908493 
L 373.553136 60.041952 
L 373.447942 91.133606 
L 373.446284 105.626275 
L 373.446284 105.626275 
" clip-path="url(#p71e816e72f)" style="fill: none; stroke: #ff0000; stroke-width: 1.5; stroke-linecap: square"/>
   </g>
   <g id="line2d_33">
    <path d="M 69.219079 245.830587 
L 69.219239 245.834207 
L 69.293149 245.793589 
L 69.74756 244.447246 
L 70.2257 243.880676 
L 71.136885 243.214377 
L 71.600435 242.863161 
L 72.13627 245.371328 
L 73.14295 245.070337 
L 74.64435 244.743512 
L 84.308613 241.567419 
L 87.261011 240.38276 
L 89.730627 239.761266 
L 93.144584 239.058594 
L 95.042555 238.290158 
L 102.382416 234.917563 
L 125.618293 224.825285 
L 133.198236 221.480303 
L 139.650805 218.503881 
L 160.89189 208.615877 
L 164.774041 206.752842 
L 174.551705 202.034312 
L 178.478951 200.122619 
L 187.224734 195.767831 
L 191.614868 193.566107 
L 199.551593 189.391022 
L 207.078484 185.515603 
L 223.161452 176.70168 
L 239.83335 166.863781 
L 248.845734 161.343573 
L 259.185759 154.534128 
L 266.565428 149.46679 
L 282.025065 138.291476 
L 294.022996 129.005694 
L 306.227833 118.916307 
L 317.164704 109.157419 
L 323.565462 103.111245 
L 332.51152 94.290861 
L 339.563587 86.892683 
L 346.065229 79.740212 
L 356.953026 67.485956 
L 371.760112 50.97637 
L 372.199788 50.629851 
L 372.643112 50.424117 
L 373.081711 50.857672 
L 373.351141 52.446333 
L 373.550152 57.639505 
L 373.446968 96.134518 
L 373.447341 108.438637 
L 373.447341 108.438637 
" clip-path="url(#p71e816e72f)" style="fill: none; stroke: #0000ff; stroke-width: 1.5; stroke-linecap: square"/>
   </g>
   <g id="line2d_34">
    <path d="M 69.221312 245.603567 
L 69.221338 245.629468 
L 69.220287 245.624531 
L 69.661127 244.36025 
L 70.133133 243.718041 
L 71.082781 242.985137 
L 71.544342 242.664514 
L 72.55898 242.323054 
L 73.084868 245.021763 
L 75.092923 244.598281 
L 80.509632 243.094653 
L 82.382402 242.658403 
L 84.826818 241.767652 
L 88.812423 240.144154 
L 92.756912 239.44124 
L 94.665492 238.735918 
L 115.161183 229.64381 
L 140.821581 218.275785 
L 150.466612 213.809225 
L 155.637951 211.378175 
L 161.5003 208.609881 
L 168.0603 205.591062 
L 176.784105 201.311507 
L 182.028392 198.759049 
L 193.043516 193.195962 
L 205.847852 186.693891 
L 210.403776 184.212255 
L 225.17903 175.825951 
L 234.158246 170.511462 
L 241.87878 165.794859 
L 254.826359 157.393621 
L 263.574795 151.397416 
L 270.210396 146.728028 
L 282.657763 137.443247 
L 298.414497 124.683848 
L 311.896585 112.760815 
L 320.836011 104.295018 
L 326.582975 98.479962 
L 336.722725 87.739212 
L 342.400719 81.385528 
L 349.879863 72.632592 
L 365.970167 53.522369 
L 370.390143 48.188849 
L 371.844789 46.639934 
L 372.295905 46.270531 
L 372.742213 46.06025 
L 373.181165 46.611404 
L 373.352571 47.848007 
L 373.546194 53.420307 
L 373.446865 104.288815 
L 373.447279 104.282311 
" clip-path="url(#p71e816e72f)" style="fill: none; stroke: #0000ff; stroke-width: 1.5; stroke-linecap: square"/>
   </g>
   <g id="line2d_35">
    <path d="M 69.219352 245.736268 
L 69.219679 245.705135 
L 69.226335 245.73046 
L 69.680197 244.542125 
L 70.161321 243.827408 
L 70.657035 243.534607 
L 71.598394 242.828562 
L 72.140197 245.484032 
L 73.715871 245.09578 
L 77.948835 243.665502 
L 82.922552 242.311568 
L 87.8949 240.531971 
L 89.898977 240.128482 
L 91.885809 239.830503 
L 93.346092 239.309219 
L 126.655406 224.774471 
L 166.536654 206.287697 
L 193.37748 193.052784 
L 210.354381 184.108872 
L 222.540649 177.275334 
L 231.525171 172.063464 
L 235.380796 169.721061 
L 251.788765 159.29732 
L 266.773578 148.991133 
L 280.092528 139.241881 
L 290.825145 130.804991 
L 305.628997 118.102028 
L 315.20108 109.252736 
L 320.945391 103.610156 
L 327.375412 97.005948 
L 335.857256 87.95431 
L 342.438478 80.479048 
L 349.945474 71.602777 
L 357.384828 62.566946 
L 363.40634 55.379606 
L 371.366939 45.69708 
L 372.258395 44.821931 
L 372.695419 44.64 
L 373.133272 45.166568 
L 373.368135 46.771008 
L 373.544888 52.326792 
L 373.446657 88.97461 
L 373.446222 103.571208 
L 373.446119 103.569055 
" clip-path="url(#p71e816e72f)" style="fill: none; stroke: #0000ff; stroke-width: 1.5; stroke-linecap: square"/>
   </g>
   <g id="patch_3">
    <path d="M 54 256.32 
L 54 34.56 
" style="fill: none; stroke: #000000; stroke-width: 0.8; stroke-linejoin: miter; stroke-linecap: square"/>
   </g>
   <g id="patch_4">
    <path d="M 388.8 256.32 
L 388.8 34.56 
" style="fill: none; stroke: #000000; stroke-width: 0.8; stroke-linejoin: miter; stroke-linecap: square"/>
   </g>
   <g id="patch_5">
    <path d="M 54 256.32 
L 388.8 256.32 
" style="fill: none; stroke: #000000; stroke-width: 0.8; stroke-linejoin: miter; stroke-linecap: square"/>
   </g>
   <g id="patch_6">
    <path d="M 54 34.56 
L 388.8 34.56 
" style="fill: none; stroke: #000000; stroke-width: 0.8; stroke-linejoin: miter; stroke-linecap: square"/>
   </g>
   <g id="text_17">
    <!-- 2025-06-25 all trials -->
    <g transform="translate(160.75125 28.56) scale(0.12 -0.12)">
     <defs>
      <path id="DejaVuSans-2d" d="M 313 2009 
L 1997 2009 
L 1997 1497 
L 313 1497 
L 313 2009 
z
" transform="scale(0.015625)"/>
      <path id="DejaVuSans-6c" d="M 603 4863 
L 1178 4863 
L 1178 0 
L 603 0 
L 603 4863 
z
" transform="scale(0.015625)"/>
     </defs>
     <use xlink:href="#DejaVuSans-32"/>
     <use xlink:href="#DejaVuSans-30" x="63.623047"/>
     <use xlink:href="#DejaVuSans-32" x="127.246094"/>
     <use xlink:href="#DejaVuSans-35" x="190.869141"/>
     <use xlink:href="#DejaVuSans-2d" x="254.492188"/>
     <use xlink:href="#DejaVuSans-30" x="290.576172"/>
     <use xlink:href="#DejaVuSans-36" x="354.199219"/>
     <use xlink:href="#DejaVuSans-2d" x="417.822266"/>
     <use xlink:href="#DejaVuSans-32" x="453.90625"/>
     <use xlink:href="#DejaVuSans-35" x="517.529297"/>
     <use xlink:href="#DejaVuSans-20" x="581.152344"/>
     <use xlink:href="#DejaVuSans-61" x="612.939453"/>
     <use xlink:href="#DejaVuSans-6c" x="674.21875"/>
     <use xlink:href="#DejaVuSans-6c" x="702.001953"/>
     <use xlink:href="#DejaVuSans-20" x="729.785156"/>
     <use xlink:href="#DejaVuSans-74" x="761.572266"/>
     <use xlink:href="#DejaVuSans-72" x="800.78125"/>
     <use xlink:href="#DejaVuSans-69" x="841.894531"/>
     <use xlink:href="#DejaVuSans-61" x="869.677734"/>
     <use xlink:href="#DejaVuSans-6c" x="930.957031"/>
     <use xlink:href="#DejaVuSans-73" x="958.740234"/>
    </g>
   </g>
   <g id="legend_1">
    <g id="patch_7">
     <path d="M 61 86.594375 
L 136.9625 86.594375 
Q 138.9625 86.594375 138.9625 84.594375 
L 138.9625 41.56 
Q 138.9625 39.56 136.9625 39.56 
L 61 39.56 
Q 59 39.56 59 41.56 
L 59 84.594375 
Q 59 86.594375 61 86.594375 
z
" style="fill: #ffffff; opacity: 0.8; stroke: #cccccc; stroke-linejoin: miter"/>
    </g>
    <g id="line2d_36">
     <path d="M 63 47.658438 
L 73 47.658438 
L 83 47.658438 
" style="fill: none; stroke: #000000; stroke-width: 1.5; stroke-linecap: square"/>
    </g>
    <g id="text_18">
     <!-- 1 mm/s -->
     <g transform="translate(91 51.158438) scale(0.1 -0.1)">
      <defs>
       <path id="DejaVuSans-2f" d="M 1625 4666 
L 2156 4666 
L 531 -594 
L 0 -594 
L 1625 4666 
z
" transform="scale(0.015625)"/>
      </defs>
      <use xlink:href="#DejaVuSans-31"/>
      <use xlink:href="#DejaVuSans-20" x="63.623047"/>
      <use xlink:href="#DejaVuSans-6d" x="95.410156"/>
      <use xlink:href="#DejaVuSans-6d" x="192.822266"/>
      <use xlink:href="#DejaVuSans-2f" x="290.234375"/>
      <use xlink:href="#DejaVuSans-73" x="323.925781"/>
     </g>
    </g>
    <g id="line2d_37">
     <path d="M 63 62.336563 
L 73 62.336563 
L 83 62.336563 
" style="fill: none; stroke: #ff0000; stroke-width: 1.5; stroke-linecap: square"/>
    </g>
    <g id="text_19">
     <!-- 5 mm/s -->
     <g transform="translate(91 65.836563) scale(0.1 -0.1)">
      <use xlink:href="#DejaVuSans-35"/>
      <use xlink:href="#DejaVuSans-20" x="63.623047"/>
      <use xlink:href="#DejaVuSans-6d" x="95.410156"/>
      <use xlink:href="#DejaVuSans-6d" x="192.822266"/>
      <use xlink:href="#DejaVuSans-2f" x="290.234375"/>
      <use xlink:href="#DejaVuSans-73" x="323.925781"/>
     </g>
    </g>
    <g id="line2d_38">
     <path d="M 63 77.014688 
L 73 77.014688 
L 83 77.014688 
" style="fill: none; stroke: #0000ff; stroke-width: 1.5; stroke-linecap: square"/>
    </g>
    <g id="text_20">
     <!-- 10 mm/s -->
     <g transform="translate(91 80.514688) scale(0.1 -0.1)">
      <use xlink:href="#DejaVuSans-31"/>
      <use xlink:href="#DejaVuSans-30" x="63.623047"/>
      <use xlink:href="#DejaVuSans-20" x="127.246094"/>
      <use xlink:href="#DejaVuSans-6d" x="159.033203"/>
      <use xlink:href="#DejaVuSans-6d" x="256.445312"/>
      <use xlink:href="#DejaVuSans-2f" x="353.857422"/>
      <use xlink:href="#DejaVuSans-73" x="387.548828"/>
     </g>
    </g>
   </g>
  </g>
 </g>
 <defs>
  <clipPath id="p71e816e72f">
   <rect x="54" y="34.56" width="334.8" height="221.76"/>
  </clipPath>
 </defs>
</svg>
