<?xml version="1.0" encoding="utf-8" standalone="no"?>
<!DOCTYPE svg PUBLIC "-//W3C//DTD SVG 1.1//EN"
  "http://www.w3.org/Graphics/SVG/1.1/DTD/svg11.dtd">
<svg xmlns:xlink="http://www.w3.org/1999/xlink" width="432pt" height="288pt" viewBox="0 0 432 288" xmlns="http://www.w3.org/2000/svg" version="1.1">
 <metadata>
  <rdf:RDF xmlns:dc="http://purl.org/dc/elements/1.1/" xmlns:cc="http://creativecommons.org/ns#" xmlns:rdf="http://www.w3.org/1999/02/22-rdf-syntax-ns#">
   <cc:Work>
    <dc:type rdf:resource="http://purl.org/dc/dcmitype/StillImage"/>
    <dc:date>2025-07-03T20:54:59.704974</dc:date>
    <dc:format>image/svg+xml</dc:format>
    <dc:creator>
     <cc:Agent>
      <dc:title>Matplotlib v3.9.2, https://matplotlib.org/</dc:title>
     </cc:Agent>
    </dc:creator>
   </cc:Work>
  </rdf:RDF>
 </metadata>
 <defs>
  <style type="text/css">*{stroke-linejoin: round; stroke-linecap: butt}</style>
 </defs>
 <g id="figure_1">
  <g id="patch_1">
   <path d="M 0 288 
L 432 288 
L 432 0 
L 0 0 
z
" style="fill: #ffffff"/>
  </g>
  <g id="axes_1">
   <g id="patch_2">
    <path d="M 54 256.32 
L 388.8 256.32 
L 388.8 34.56 
L 54 34.56 
z
" style="fill: #ffffff"/>
   </g>
   <g id="matplotlib.axis_1">
    <g id="xtick_1">
     <g id="line2d_1">
      <defs>
       <path id="me6fce0bd6f" d="M 0 0 
L 0 3.5 
" style="stroke: #000000; stroke-width: 0.8"/>
      </defs>
      <g>
       <use xlink:href="#me6fce0bd6f" x="69.219352" y="256.32" style="stroke: #000000; stroke-width: 0.8"/>
      </g>
     </g>
     <g id="text_1">
      <!-- 0.00 -->
      <g transform="translate(58.086539 270.918437) scale(0.1 -0.1)">
       <defs>
        <path id="DejaVuSans-30" d="M 2034 4250 
Q 1547 4250 1301 3770 
Q 1056 3291 1056 2328 
Q 1056 1369 1301 889 
Q 1547 409 2034 409 
Q 2525 409 2770 889 
Q 3016 1369 3016 2328 
Q 3016 3291 2770 3770 
Q 2525 4250 2034 4250 
z
M 2034 4750 
Q 2819 4750 3233 4129 
Q 3647 3509 3647 2328 
Q 3647 1150 3233 529 
Q 2819 -91 2034 -91 
Q 1250 -91 836 529 
Q 422 1150 422 2328 
Q 422 3509 836 4129 
Q 1250 4750 2034 4750 
z
" transform="scale(0.015625)"/>
        <path id="DejaVuSans-2e" d="M 684 794 
L 1344 794 
L 1344 0 
L 684 0 
L 684 794 
z
" transform="scale(0.015625)"/>
       </defs>
       <use xlink:href="#DejaVuSans-30"/>
       <use xlink:href="#DejaVuSans-2e" x="63.623047"/>
       <use xlink:href="#DejaVuSans-30" x="95.410156"/>
       <use xlink:href="#DejaVuSans-30" x="159.033203"/>
      </g>
     </g>
    </g>
    <g id="xtick_2">
     <g id="line2d_2">
      <g>
       <use xlink:href="#me6fce0bd6f" x="123.541821" y="256.32" style="stroke: #000000; stroke-width: 0.8"/>
      </g>
     </g>
     <g id="text_2">
      <!-- 0.05 -->
      <g transform="translate(112.409008 270.918437) scale(0.1 -0.1)">
       <defs>
        <path id="DejaVuSans-35" d="M 691 4666 
L 3169 4666 
L 3169 4134 
L 1269 4134 
L 1269 2991 
Q 1406 3038 1543 3061 
Q 1681 3084 1819 3084 
Q 2600 3084 3056 2656 
Q 3513 2228 3513 1497 
Q 3513 744 3044 326 
Q 2575 -91 1722 -91 
Q 1428 -91 1123 -41 
Q 819 9 494 109 
L 494 744 
Q 775 591 1075 516 
Q 1375 441 1709 441 
Q 2250 441 2565 725 
Q 2881 1009 2881 1497 
Q 2881 1984 2565 2268 
Q 2250 2553 1709 2553 
Q 1456 2553 1204 2497 
Q 953 2441 691 2322 
L 691 4666 
z
" transform="scale(0.015625)"/>
       </defs>
       <use xlink:href="#DejaVuSans-30"/>
       <use xlink:href="#DejaVuSans-2e" x="63.623047"/>
       <use xlink:href="#DejaVuSans-30" x="95.410156"/>
       <use xlink:href="#DejaVuSans-35" x="159.033203"/>
      </g>
     </g>
    </g>
    <g id="xtick_3">
     <g id="line2d_3">
      <g>
       <use xlink:href="#me6fce0bd6f" x="177.86429" y="256.32" style="stroke: #000000; stroke-width: 0.8"/>
      </g>
     </g>
     <g id="text_3">
      <!-- 0.10 -->
      <g transform="translate(166.731477 270.918437) scale(0.1 -0.1)">
       <defs>
        <path id="DejaVuSans-31" d="M 794 531 
L 1825 531 
L 1825 4091 
L 703 3866 
L 703 4441 
L 1819 4666 
L 2450 4666 
L 2450 531 
L 3481 531 
L 3481 0 
L 794 0 
L 794 531 
z
" transform="scale(0.015625)"/>
       </defs>
       <use xlink:href="#DejaVuSans-30"/>
       <use xlink:href="#DejaVuSans-2e" x="63.623047"/>
       <use xlink:href="#DejaVuSans-31" x="95.410156"/>
       <use xlink:href="#DejaVuSans-30" x="159.033203"/>
      </g>
     </g>
    </g>
    <g id="xtick_4">
     <g id="line2d_4">
      <g>
       <use xlink:href="#me6fce0bd6f" x="232.186759" y="256.32" style="stroke: #000000; stroke-width: 0.8"/>
      </g>
     </g>
     <g id="text_4">
      <!-- 0.15 -->
      <g transform="translate(221.053946 270.918437) scale(0.1 -0.1)">
       <use xlink:href="#DejaVuSans-30"/>
       <use xlink:href="#DejaVuSans-2e" x="63.623047"/>
       <use xlink:href="#DejaVuSans-31" x="95.410156"/>
       <use xlink:href="#DejaVuSans-35" x="159.033203"/>
      </g>
     </g>
    </g>
    <g id="xtick_5">
     <g id="line2d_5">
      <g>
       <use xlink:href="#me6fce0bd6f" x="286.509227" y="256.32" style="stroke: #000000; stroke-width: 0.8"/>
      </g>
     </g>
     <g id="text_5">
      <!-- 0.20 -->
      <g transform="translate(275.376415 270.918437) scale(0.1 -0.1)">
       <defs>
        <path id="DejaVuSans-32" d="M 1228 531 
L 3431 531 
L 3431 0 
L 469 0 
L 469 531 
Q 828 903 1448 1529 
Q 2069 2156 2228 2338 
Q 2531 2678 2651 2914 
Q 2772 3150 2772 3378 
Q 2772 3750 2511 3984 
Q 2250 4219 1831 4219 
Q 1534 4219 1204 4116 
Q 875 4013 500 3803 
L 500 4441 
Q 881 4594 1212 4672 
Q 1544 4750 1819 4750 
Q 2544 4750 2975 4387 
Q 3406 4025 3406 3419 
Q 3406 3131 3298 2873 
Q 3191 2616 2906 2266 
Q 2828 2175 2409 1742 
Q 1991 1309 1228 531 
z
" transform="scale(0.015625)"/>
       </defs>
       <use xlink:href="#DejaVuSans-30"/>
       <use xlink:href="#DejaVuSans-2e" x="63.623047"/>
       <use xlink:href="#DejaVuSans-32" x="95.410156"/>
       <use xlink:href="#DejaVuSans-30" x="159.033203"/>
      </g>
     </g>
    </g>
    <g id="xtick_6">
     <g id="line2d_6">
      <g>
       <use xlink:href="#me6fce0bd6f" x="340.831696" y="256.32" style="stroke: #000000; stroke-width: 0.8"/>
      </g>
     </g>
     <g id="text_6">
      <!-- 0.25 -->
      <g transform="translate(329.698884 270.918437) scale(0.1 -0.1)">
       <use xlink:href="#DejaVuSans-30"/>
       <use xlink:href="#DejaVuSans-2e" x="63.623047"/>
       <use xlink:href="#DejaVuSans-32" x="95.410156"/>
       <use xlink:href="#DejaVuSans-35" x="159.033203"/>
      </g>
     </g>
    </g>
    <g id="text_7">
     <!-- Strain [mm] -->
     <g transform="translate(191.357031 284.596563) scale(0.1 -0.1)">
      <defs>
       <path id="DejaVuSans-53" d="M 3425 4513 
L 3425 3897 
Q 3066 4069 2747 4153 
Q 2428 4238 2131 4238 
Q 1616 4238 1336 4038 
Q 1056 3838 1056 3469 
Q 1056 3159 1242 3001 
Q 1428 2844 1947 2747 
L 2328 2669 
Q 3034 2534 3370 2195 
Q 3706 1856 3706 1288 
Q 3706 609 3251 259 
Q 2797 -91 1919 -91 
Q 1588 -91 1214 -16 
Q 841 59 441 206 
L 441 856 
Q 825 641 1194 531 
Q 1563 422 1919 422 
Q 2459 422 2753 634 
Q 3047 847 3047 1241 
Q 3047 1584 2836 1778 
Q 2625 1972 2144 2069 
L 1759 2144 
Q 1053 2284 737 2584 
Q 422 2884 422 3419 
Q 422 4038 858 4394 
Q 1294 4750 2059 4750 
Q 2388 4750 2728 4690 
Q 3069 4631 3425 4513 
z
" transform="scale(0.015625)"/>
       <path id="DejaVuSans-74" d="M 1172 4494 
L 1172 3500 
L 2356 3500 
L 2356 3053 
L 1172 3053 
L 1172 1153 
Q 1172 725 1289 603 
Q 1406 481 1766 481 
L 2356 481 
L 2356 0 
L 1766 0 
Q 1100 0 847 248 
Q 594 497 594 1153 
L 594 3053 
L 172 3053 
L 172 3500 
L 594 3500 
L 594 4494 
L 1172 4494 
z
" transform="scale(0.015625)"/>
       <path id="DejaVuSans-72" d="M 2631 2963 
Q 2534 3019 2420 3045 
Q 2306 3072 2169 3072 
Q 1681 3072 1420 2755 
Q 1159 2438 1159 1844 
L 1159 0 
L 581 0 
L 581 3500 
L 1159 3500 
L 1159 2956 
Q 1341 3275 1631 3429 
Q 1922 3584 2338 3584 
Q 2397 3584 2469 3576 
Q 2541 3569 2628 3553 
L 2631 2963 
z
" transform="scale(0.015625)"/>
       <path id="DejaVuSans-61" d="M 2194 1759 
Q 1497 1759 1228 1600 
Q 959 1441 959 1056 
Q 959 750 1161 570 
Q 1363 391 1709 391 
Q 2188 391 2477 730 
Q 2766 1069 2766 1631 
L 2766 1759 
L 2194 1759 
z
M 3341 1997 
L 3341 0 
L 2766 0 
L 2766 531 
Q 2569 213 2275 61 
Q 1981 -91 1556 -91 
Q 1019 -91 701 211 
Q 384 513 384 1019 
Q 384 1609 779 1909 
Q 1175 2209 1959 2209 
L 2766 2209 
L 2766 2266 
Q 2766 2663 2505 2880 
Q 2244 3097 1772 3097 
Q 1472 3097 1187 3025 
Q 903 2953 641 2809 
L 641 3341 
Q 956 3463 1253 3523 
Q 1550 3584 1831 3584 
Q 2591 3584 2966 3190 
Q 3341 2797 3341 1997 
z
" transform="scale(0.015625)"/>
       <path id="DejaVuSans-69" d="M 603 3500 
L 1178 3500 
L 1178 0 
L 603 0 
L 603 3500 
z
M 603 4863 
L 1178 4863 
L 1178 4134 
L 603 4134 
L 603 4863 
z
" transform="scale(0.015625)"/>
       <path id="DejaVuSans-6e" d="M 3513 2113 
L 3513 0 
L 2938 0 
L 2938 2094 
Q 2938 2591 2744 2837 
Q 2550 3084 2163 3084 
Q 1697 3084 1428 2787 
Q 1159 2491 1159 1978 
L 1159 0 
L 581 0 
L 581 3500 
L 1159 3500 
L 1159 2956 
Q 1366 3272 1645 3428 
Q 1925 3584 2291 3584 
Q 2894 3584 3203 3211 
Q 3513 2838 3513 2113 
z
" transform="scale(0.015625)"/>
       <path id="DejaVuSans-20" transform="scale(0.015625)"/>
       <path id="DejaVuSans-5b" d="M 550 4863 
L 1875 4863 
L 1875 4416 
L 1125 4416 
L 1125 -397 
L 1875 -397 
L 1875 -844 
L 550 -844 
L 550 4863 
z
" transform="scale(0.015625)"/>
       <path id="DejaVuSans-6d" d="M 3328 2828 
Q 3544 3216 3844 3400 
Q 4144 3584 4550 3584 
Q 5097 3584 5394 3201 
Q 5691 2819 5691 2113 
L 5691 0 
L 5113 0 
L 5113 2094 
Q 5113 2597 4934 2840 
Q 4756 3084 4391 3084 
Q 3944 3084 3684 2787 
Q 3425 2491 3425 1978 
L 3425 0 
L 2847 0 
L 2847 2094 
Q 2847 2600 2669 2842 
Q 2491 3084 2119 3084 
Q 1678 3084 1418 2786 
Q 1159 2488 1159 1978 
L 1159 0 
L 581 0 
L 581 3500 
L 1159 3500 
L 1159 2956 
Q 1356 3278 1631 3431 
Q 1906 3584 2284 3584 
Q 2666 3584 2933 3390 
Q 3200 3197 3328 2828 
z
" transform="scale(0.015625)"/>
       <path id="DejaVuSans-5d" d="M 1947 4863 
L 1947 -844 
L 622 -844 
L 622 -397 
L 1369 -397 
L 1369 4416 
L 622 4416 
L 622 4863 
L 1947 4863 
z
" transform="scale(0.015625)"/>
      </defs>
      <use xlink:href="#DejaVuSans-53"/>
      <use xlink:href="#DejaVuSans-74" x="63.476562"/>
      <use xlink:href="#DejaVuSans-72" x="102.685547"/>
      <use xlink:href="#DejaVuSans-61" x="143.798828"/>
      <use xlink:href="#DejaVuSans-69" x="205.078125"/>
      <use xlink:href="#DejaVuSans-6e" x="232.861328"/>
      <use xlink:href="#DejaVuSans-20" x="296.240234"/>
      <use xlink:href="#DejaVuSans-5b" x="328.027344"/>
      <use xlink:href="#DejaVuSans-6d" x="367.041016"/>
      <use xlink:href="#DejaVuSans-6d" x="464.453125"/>
      <use xlink:href="#DejaVuSans-5d" x="561.865234"/>
     </g>
    </g>
   </g>
   <g id="matplotlib.axis_2">
    <g id="ytick_1">
     <g id="line2d_7">
      <defs>
       <path id="m87f3090c80" d="M 0 0 
L -3.5 0 
" style="stroke: #000000; stroke-width: 0.8"/>
      </defs>
      <g>
       <use xlink:href="#m87f3090c80" x="54" y="242.728522" style="stroke: #000000; stroke-width: 0.8"/>
      </g>
     </g>
     <g id="text_8">
      <!-- 0 -->
      <g transform="translate(40.6375 246.52774) scale(0.1 -0.1)">
       <use xlink:href="#DejaVuSans-30"/>
      </g>
     </g>
    </g>
    <g id="ytick_2">
     <g id="line2d_8">
      <g>
       <use xlink:href="#m87f3090c80" x="54" y="215.957194" style="stroke: #000000; stroke-width: 0.8"/>
      </g>
     </g>
     <g id="text_9">
      <!-- 200 -->
      <g transform="translate(27.9125 219.756413) scale(0.1 -0.1)">
       <use xlink:href="#DejaVuSans-32"/>
       <use xlink:href="#DejaVuSans-30" x="63.623047"/>
       <use xlink:href="#DejaVuSans-30" x="127.246094"/>
      </g>
     </g>
    </g>
    <g id="ytick_3">
     <g id="line2d_9">
      <g>
       <use xlink:href="#m87f3090c80" x="54" y="189.185867" style="stroke: #000000; stroke-width: 0.8"/>
      </g>
     </g>
     <g id="text_10">
      <!-- 400 -->
      <g transform="translate(27.9125 192.985086) scale(0.1 -0.1)">
       <defs>
        <path id="DejaVuSans-34" d="M 2419 4116 
L 825 1625 
L 2419 1625 
L 2419 4116 
z
M 2253 4666 
L 3047 4666 
L 3047 1625 
L 3713 1625 
L 3713 1100 
L 3047 1100 
L 3047 0 
L 2419 0 
L 2419 1100 
L 313 1100 
L 313 1709 
L 2253 4666 
z
" transform="scale(0.015625)"/>
       </defs>
       <use xlink:href="#DejaVuSans-34"/>
       <use xlink:href="#DejaVuSans-30" x="63.623047"/>
       <use xlink:href="#DejaVuSans-30" x="127.246094"/>
      </g>
     </g>
    </g>
    <g id="ytick_4">
     <g id="line2d_10">
      <g>
       <use xlink:href="#m87f3090c80" x="54" y="162.41454" style="stroke: #000000; stroke-width: 0.8"/>
      </g>
     </g>
     <g id="text_11">
      <!-- 600 -->
      <g transform="translate(27.9125 166.213758) scale(0.1 -0.1)">
       <defs>
        <path id="DejaVuSans-36" d="M 2113 2584 
Q 1688 2584 1439 2293 
Q 1191 2003 1191 1497 
Q 1191 994 1439 701 
Q 1688 409 2113 409 
Q 2538 409 2786 701 
Q 3034 994 3034 1497 
Q 3034 2003 2786 2293 
Q 2538 2584 2113 2584 
z
M 3366 4563 
L 3366 3988 
Q 3128 4100 2886 4159 
Q 2644 4219 2406 4219 
Q 1781 4219 1451 3797 
Q 1122 3375 1075 2522 
Q 1259 2794 1537 2939 
Q 1816 3084 2150 3084 
Q 2853 3084 3261 2657 
Q 3669 2231 3669 1497 
Q 3669 778 3244 343 
Q 2819 -91 2113 -91 
Q 1303 -91 875 529 
Q 447 1150 447 2328 
Q 447 3434 972 4092 
Q 1497 4750 2381 4750 
Q 2619 4750 2861 4703 
Q 3103 4656 3366 4563 
z
" transform="scale(0.015625)"/>
       </defs>
       <use xlink:href="#DejaVuSans-36"/>
       <use xlink:href="#DejaVuSans-30" x="63.623047"/>
       <use xlink:href="#DejaVuSans-30" x="127.246094"/>
      </g>
     </g>
    </g>
    <g id="ytick_5">
     <g id="line2d_11">
      <g>
       <use xlink:href="#m87f3090c80" x="54" y="135.643212" style="stroke: #000000; stroke-width: 0.8"/>
      </g>
     </g>
     <g id="text_12">
      <!-- 800 -->
      <g transform="translate(27.9125 139.442431) scale(0.1 -0.1)">
       <defs>
        <path id="DejaVuSans-38" d="M 2034 2216 
Q 1584 2216 1326 1975 
Q 1069 1734 1069 1313 
Q 1069 891 1326 650 
Q 1584 409 2034 409 
Q 2484 409 2743 651 
Q 3003 894 3003 1313 
Q 3003 1734 2745 1975 
Q 2488 2216 2034 2216 
z
M 1403 2484 
Q 997 2584 770 2862 
Q 544 3141 544 3541 
Q 544 4100 942 4425 
Q 1341 4750 2034 4750 
Q 2731 4750 3128 4425 
Q 3525 4100 3525 3541 
Q 3525 3141 3298 2862 
Q 3072 2584 2669 2484 
Q 3125 2378 3379 2068 
Q 3634 1759 3634 1313 
Q 3634 634 3220 271 
Q 2806 -91 2034 -91 
Q 1263 -91 848 271 
Q 434 634 434 1313 
Q 434 1759 690 2068 
Q 947 2378 1403 2484 
z
M 1172 3481 
Q 1172 3119 1398 2916 
Q 1625 2713 2034 2713 
Q 2441 2713 2670 2916 
Q 2900 3119 2900 3481 
Q 2900 3844 2670 4047 
Q 2441 4250 2034 4250 
Q 1625 4250 1398 4047 
Q 1172 3844 1172 3481 
z
" transform="scale(0.015625)"/>
       </defs>
       <use xlink:href="#DejaVuSans-38"/>
       <use xlink:href="#DejaVuSans-30" x="63.623047"/>
       <use xlink:href="#DejaVuSans-30" x="127.246094"/>
      </g>
     </g>
    </g>
    <g id="ytick_6">
     <g id="line2d_12">
      <g>
       <use xlink:href="#m87f3090c80" x="54" y="108.871885" style="stroke: #000000; stroke-width: 0.8"/>
      </g>
     </g>
     <g id="text_13">
      <!-- 1000 -->
      <g transform="translate(21.55 112.671104) scale(0.1 -0.1)">
       <use xlink:href="#DejaVuSans-31"/>
       <use xlink:href="#DejaVuSans-30" x="63.623047"/>
       <use xlink:href="#DejaVuSans-30" x="127.246094"/>
       <use xlink:href="#DejaVuSans-30" x="190.869141"/>
      </g>
     </g>
    </g>
    <g id="ytick_7">
     <g id="line2d_13">
      <g>
       <use xlink:href="#m87f3090c80" x="54" y="82.100557" style="stroke: #000000; stroke-width: 0.8"/>
      </g>
     </g>
     <g id="text_14">
      <!-- 1200 -->
      <g transform="translate(21.55 85.899776) scale(0.1 -0.1)">
       <use xlink:href="#DejaVuSans-31"/>
       <use xlink:href="#DejaVuSans-32" x="63.623047"/>
       <use xlink:href="#DejaVuSans-30" x="127.246094"/>
       <use xlink:href="#DejaVuSans-30" x="190.869141"/>
      </g>
     </g>
    </g>
    <g id="ytick_8">
     <g id="line2d_14">
      <g>
       <use xlink:href="#m87f3090c80" x="54" y="55.32923" style="stroke: #000000; stroke-width: 0.8"/>
      </g>
     </g>
     <g id="text_15">
      <!-- 1400 -->
      <g transform="translate(21.55 59.128449) scale(0.1 -0.1)">
       <use xlink:href="#DejaVuSans-31"/>
       <use xlink:href="#DejaVuSans-34" x="63.623047"/>
       <use xlink:href="#DejaVuSans-30" x="127.246094"/>
       <use xlink:href="#DejaVuSans-30" x="190.869141"/>
      </g>
     </g>
    </g>
    <g id="text_16">
     <!-- Stress [Pa] -->
     <g transform="translate(15.470312 172.147812) rotate(-90) scale(0.1 -0.1)">
      <defs>
       <path id="DejaVuSans-65" d="M 3597 1894 
L 3597 1613 
L 953 1613 
Q 991 1019 1311 708 
Q 1631 397 2203 397 
Q 2534 397 2845 478 
Q 3156 559 3463 722 
L 3463 178 
Q 3153 47 2828 -22 
Q 2503 -91 2169 -91 
Q 1331 -91 842 396 
Q 353 884 353 1716 
Q 353 2575 817 3079 
Q 1281 3584 2069 3584 
Q 2775 3584 3186 3129 
Q 3597 2675 3597 1894 
z
M 3022 2063 
Q 3016 2534 2758 2815 
Q 2500 3097 2075 3097 
Q 1594 3097 1305 2825 
Q 1016 2553 972 2059 
L 3022 2063 
z
" transform="scale(0.015625)"/>
       <path id="DejaVuSans-73" d="M 2834 3397 
L 2834 2853 
Q 2591 2978 2328 3040 
Q 2066 3103 1784 3103 
Q 1356 3103 1142 2972 
Q 928 2841 928 2578 
Q 928 2378 1081 2264 
Q 1234 2150 1697 2047 
L 1894 2003 
Q 2506 1872 2764 1633 
Q 3022 1394 3022 966 
Q 3022 478 2636 193 
Q 2250 -91 1575 -91 
Q 1294 -91 989 -36 
Q 684 19 347 128 
L 347 722 
Q 666 556 975 473 
Q 1284 391 1588 391 
Q 1994 391 2212 530 
Q 2431 669 2431 922 
Q 2431 1156 2273 1281 
Q 2116 1406 1581 1522 
L 1381 1569 
Q 847 1681 609 1914 
Q 372 2147 372 2553 
Q 372 3047 722 3315 
Q 1072 3584 1716 3584 
Q 2034 3584 2315 3537 
Q 2597 3491 2834 3397 
z
" transform="scale(0.015625)"/>
       <path id="DejaVuSans-50" d="M 1259 4147 
L 1259 2394 
L 2053 2394 
Q 2494 2394 2734 2622 
Q 2975 2850 2975 3272 
Q 2975 3691 2734 3919 
Q 2494 4147 2053 4147 
L 1259 4147 
z
M 628 4666 
L 2053 4666 
Q 2838 4666 3239 4311 
Q 3641 3956 3641 3272 
Q 3641 2581 3239 2228 
Q 2838 1875 2053 1875 
L 1259 1875 
L 1259 0 
L 628 0 
L 628 4666 
z
" transform="scale(0.015625)"/>
      </defs>
      <use xlink:href="#DejaVuSans-53"/>
      <use xlink:href="#DejaVuSans-74" x="63.476562"/>
      <use xlink:href="#DejaVuSans-72" x="102.685547"/>
      <use xlink:href="#DejaVuSans-65" x="141.548828"/>
      <use xlink:href="#DejaVuSans-73" x="203.072266"/>
      <use xlink:href="#DejaVuSans-73" x="255.171875"/>
      <use xlink:href="#DejaVuSans-20" x="307.271484"/>
      <use xlink:href="#DejaVuSans-5b" x="339.058594"/>
      <use xlink:href="#DejaVuSans-50" x="378.072266"/>
      <use xlink:href="#DejaVuSans-61" x="433.875"/>
      <use xlink:href="#DejaVuSans-5d" x="495.154297"/>
     </g>
    </g>
   </g>
   <g id="line2d_15">
    <path d="M 69.218182 243.506579 
L 69.218342 243.624758 
L 69.772802 243.223679 
L 70.665524 241.462213 
L 71.111303 242.086538 
L 71.547468 245.154003 
L 72.457926 244.367653 
L 72.904203 244.490543 
L 73.372695 244.130074 
L 73.820298 244.387318 
L 74.257789 244.367248 
L 74.713516 243.79823 
L 75.612867 243.195597 
L 76.056326 242.982921 
L 76.518684 242.963341 
L 78.769631 244.255712 
L 79.207868 244.024914 
L 79.658953 243.058727 
L 80.101997 242.543923 
L 80.539239 242.561236 
L 80.989164 242.715534 
L 81.883376 243.15023 
L 82.336118 243.082467 
L 82.790684 242.808998 
L 83.691918 242.668122 
L 84.591518 242.691845 
L 85.040531 242.501267 
L 85.484901 242.048649 
L 85.920237 241.873661 
L 86.821246 242.218777 
L 87.709159 242.643565 
L 88.152617 242.406104 
L 88.605028 241.792784 
L 89.045089 241.494783 
L 89.492692 241.400536 
L 90.386738 241.756825 
L 90.824561 241.790336 
L 91.708659 241.350804 
L 92.152698 241.083508 
L 92.609253 240.944022 
L 93.501145 241.183143 
L 93.94278 241.227872 
L 94.844724 241.006274 
L 95.73015 240.433835 
L 96.165817 240.287842 
L 96.609939 240.346443 
L 100.65246 239.71376 
L 101.105037 239.523817 
L 102.460446 239.257488 
L 103.816519 238.918974 
L 104.720677 238.745741 
L 107.376338 238.076293 
L 108.253807 238.043138 
L 109.15896 237.740732 
L 110.495968 237.435871 
L 111.369623 237.618166 
L 111.805871 237.808744 
L 112.241289 237.818372 
L 112.583022 237.518255 
L 112.816239 236.82062 
L 112.793911 236.9022 
L 112.758838 236.509756 
L 112.676609 237.605252 
L 112.676172 237.485492 
L 112.676731 237.639441 
L 112.677389 237.064538 
L 112.677436 237.327054 
" clip-path="url(#p86dcaa45dc)" style="fill: none; stroke: #000000; stroke-width: 1.5; stroke-linecap: square"/>
   </g>
   <g id="line2d_16">
    <path d="M 69.219305 243.695826 
L 69.371214 243.679409 
L 70.685147 241.352545 
L 71.135734 242.13588 
L 71.573888 245.162146 
L 72.040887 244.926825 
L 72.484181 244.543482 
L 72.930126 244.605562 
L 73.397457 244.252624 
L 73.841248 244.51112 
L 74.303771 244.233066 
L 74.756845 243.682107 
L 75.633982 243.101238 
L 76.081088 242.949636 
L 76.54444 242.991747 
L 78.786104 243.995359 
L 79.228154 243.761881 
L 80.104959 242.538186 
L 81.003316 242.675464 
L 81.893383 243.013541 
L 82.334521 242.933806 
L 82.779472 242.679632 
L 84.114656 242.532482 
L 84.555794 242.525128 
L 84.996435 242.340631 
L 85.431853 241.901487 
L 85.883767 241.78066 
L 87.223925 242.175913 
L 87.674678 242.375062 
L 88.109682 242.333781 
L 88.989388 241.530694 
L 89.873322 241.45751 
L 90.75825 241.547195 
L 91.643262 241.158345 
L 92.089373 240.90798 
L 92.970263 240.790524 
L 94.746171 240.636846 
L 95.62853 240.30501 
L 96.953601 240.118126 
L 97.39275 240.178667 
L 98.747662 239.79082 
L 100.089477 239.544332 
L 100.99347 239.363745 
L 102.328157 238.921815 
L 102.783884 238.807778 
L 103.223993 238.830023 
L 105.014241 238.378171 
L 105.457783 238.114331 
L 105.909033 238.103529 
L 106.789983 237.959154 
L 107.676901 237.879742 
L 108.577744 237.714921 
L 109.473199 237.292938 
L 110.370064 237.178575 
L 111.265602 237.369797 
L 111.701601 237.431427 
L 112.143899 237.290067 
L 112.811623 236.777969 
L 112.793036 236.857355 
L 112.756953 236.265837 
L 112.677907 237.598979 
L 112.677301 237.360628 
" clip-path="url(#p86dcaa45dc)" style="fill: none; stroke: #000000; stroke-width: 1.5; stroke-linecap: square"/>
   </g>
   <g id="line2d_17">
    <path d="M 69.219405 242.742774 
L 69.220906 242.827216 
L 69.657992 240.509694 
L 70.098384 240.512172 
L 70.559084 240.673752 
L 71.443017 241.70611 
L 71.899075 244.810541 
L 72.35331 244.278507 
L 72.794116 244.441607 
L 73.255811 244.233517 
L 73.714687 243.687534 
L 74.609728 242.047133 
L 75.048877 241.892186 
L 75.494988 241.251847 
L 75.94052 240.84525 
L 77.69844 241.969865 
L 78.142562 241.720167 
L 78.592818 241.069599 
L 79.037769 240.635111 
L 80.819546 240.960099 
L 81.700164 240.568291 
L 83.041482 240.445937 
L 83.929394 240.262748 
L 85.729257 239.79772 
L 89.762661 238.969507 
L 91.114447 238.523289 
L 92.025569 238.420075 
L 92.916134 238.234576 
L 93.822448 238.003906 
L 94.271046 237.961546 
L 96.052175 237.412513 
L 96.936938 237.264598 
L 97.825679 237.068292 
L 98.714421 236.604069 
L 102.294828 235.785873 
L 102.749228 235.599095 
L 103.639959 235.457595 
L 104.531187 235.172724 
L 105.417939 234.953594 
L 106.313726 234.691394 
L 107.647252 234.55187 
L 108.971329 234.089569 
L 110.292754 233.820847 
L 111.170719 233.437327 
L 112.04653 233.020484 
L 112.481203 233.042563 
L 112.93387 232.922375 
L 113.827087 232.529754 
L 114.271209 232.529857 
L 120.071071 230.638082 
L 120.979209 230.21705 
L 123.202968 229.607358 
L 124.09675 229.084704 
L 125.438732 228.715876 
L 125.879704 228.676883 
L 127.240584 228.172379 
L 128.119544 227.997678 
L 130.749462 227.016539 
L 131.20121 226.881409 
L 132.093516 226.263927 
L 132.548911 225.987707 
L 133.441797 225.766291 
L 133.885587 225.80451 
L 134.337418 225.669627 
L 135.219481 225.054437 
L 136.562457 224.711314 
L 137.450204 224.63271 
L 138.350384 223.961613 
L 139.696841 223.549168 
L 140.143616 223.560744 
L 140.581272 223.352318 
L 141.476147 222.700057 
L 142.37583 222.282182 
L 142.813984 222.176206 
L 143.255619 222.201512 
L 144.143697 221.762967 
L 145.044375 221.289979 
L 145.939701 221.039786 
L 146.820153 220.807472 
L 147.711215 220.321362 
L 148.600122 219.840985 
L 149.920718 219.369727 
L 151.713452 218.407261 
L 153.076156 217.912523 
L 153.975093 217.332359 
L 154.850074 217.014894 
L 158.870034 215.101692 
L 161.098933 213.976954 
L 161.553168 213.925011 
L 162.458321 213.452975 
L 162.911727 213.275836 
L 163.821522 212.747475 
L 164.72452 212.32579 
L 168.326878 210.450989 
L 169.214127 210.164931 
L 170.544338 209.398562 
L 171.428106 208.898855 
L 173.185695 208.181869 
L 174.968482 207.198645 
L 176.293886 206.695587 
L 178.076145 205.479433 
L 179.406853 204.770613 
L 180.75215 203.852819 
L 185.235643 201.795288 
L 187.471173 200.230913 
L 189.248449 199.482688 
L 191.47569 198.165467 
L 193.690829 197.089582 
L 194.588854 196.422894 
L 197.257896 194.830618 
L 198.146555 194.623308 
L 199.033804 194.627673 
L 199.480941 194.340809 
L 199.731641 193.870546 
L 199.705862 194.072076 
L 199.672478 193.636446 
L 199.594272 197.272471 
L 199.593422 200.446186 
L 199.594272 197.24923 
L 199.594624 200.359177 
" clip-path="url(#p86dcaa45dc)" style="fill: none; stroke: #000000; stroke-width: 1.5; stroke-linecap: square"/>
   </g>
   <g id="line2d_18">
    <path d="M 69.219465 243.210171 
L 69.219519 243.20667 
L 69.219317 243.262182 
L 69.659948 243.204092 
L 70.095657 241.556367 
L 70.982906 240.764347 
L 71.425702 244.137978 
L 71.870155 243.899411 
L 72.80316 243.708093 
L 73.261705 243.739274 
L 73.731688 243.029589 
L 74.178297 243.683032 
L 74.635018 243.43249 
L 75.07483 242.551804 
L 76.432063 241.847635 
L 76.880329 241.234244 
L 77.336553 241.512351 
L 77.778188 242.187751 
L 78.238723 242.267121 
L 78.700417 242.491049 
L 79.14371 242.493645 
L 79.590982 243.121815 
L 80.481561 240.812484 
L 80.918886 240.663479 
L 81.371048 240.805786 
L 81.816994 241.194208 
L 82.268245 241.432162 
L 83.158312 241.394132 
L 83.607242 241.230573 
L 84.505184 240.569 
L 84.950466 240.453045 
L 85.83498 240.040099 
L 88.065868 240.416137 
L 89.410585 239.539154 
L 90.767348 239.366589 
L 91.66645 239.319847 
L 92.555854 239.126692 
L 96.122341 238.178938 
L 97.020118 237.940867 
L 97.912838 237.75677 
L 101.926379 236.803802 
L 102.379287 236.536656 
L 103.696733 236.461099 
L 104.600063 236.098937 
L 105.047335 235.811466 
L 107.271592 235.590011 
L 111.72624 234.256951 
L 112.162526 234.022983 
L 113.03701 233.82779 
L 115.684004 233.088797 
L 117.450048 232.45218 
L 118.343597 232.311305 
L 119.233996 232.024146 
L 120.133679 231.438233 
L 121.012639 231.271945 
L 124.108246 230.403868 
L 125.468463 230.025315 
L 126.356873 229.555166 
L 127.241967 229.214045 
L 128.128387 229.037676 
L 138.777234 225.14741 
L 139.655034 224.733803 
L 140.546925 224.520178 
L 141.449592 224.050118 
L 142.35574 223.728503 
L 142.808151 223.415211 
L 143.717117 223.024444 
L 144.607682 222.549789 
L 145.48859 222.528458 
L 146.360588 222.236727 
L 147.67505 221.574642 
L 148.581861 221.05748 
L 149.036593 220.966335 
L 149.931965 220.594222 
L 150.828498 220.27654 
L 151.728512 219.77685 
L 152.184405 219.54488 
L 153.064526 219.370684 
L 153.963048 218.909953 
L 154.852038 218.22965 
L 157.086211 217.396052 
L 157.986556 216.78118 
L 159.768515 216.413604 
L 161.103948 215.541196 
L 162.460186 215.04148 
L 163.819408 214.291372 
L 169.214572 211.815616 
L 170.104143 211.409073 
L 170.983269 211.059323 
L 172.295244 210.183416 
L 173.187301 209.896429 
L 175.409569 208.804195 
L 176.290021 208.530931 
L 177.169396 207.646964 
L 178.067566 207.183416 
L 178.943045 207.058097 
L 180.734784 205.835142 
L 182.950089 204.989073 
L 183.84455 204.092937 
L 184.73412 203.687937 
L 185.174429 203.353341 
L 186.058861 203.080155 
L 186.937324 202.439886 
L 187.81015 202.137538 
L 188.72266 201.606218 
L 189.599631 200.980976 
L 191.37844 200.186725 
L 192.717769 199.246851 
L 193.609825 198.859064 
L 198.127304 196.579412 
L 199.012419 196.595078 
L 199.486961 196.23087 
L 199.727838 195.837246 
L 199.707022 195.906265 
L 199.675441 195.392061 
L 199.59307 199.211618 
L 199.594313 199.149106 
L 199.593422 202.04217 
L 199.592759 201.949297 
" clip-path="url(#p86dcaa45dc)" style="fill: none; stroke: #000000; stroke-width: 1.5; stroke-linecap: square"/>
   </g>
   <g id="line2d_19">
    <path d="M 69.219456 243.235085 
L 69.219378 243.228458 
L 69.219478 243.3997 
L 69.223634 243.251237 
L 69.661612 243.169882 
L 70.096409 241.650937 
L 70.542769 241.390286 
L 70.995346 240.974111 
L 71.44328 244.341252 
L 72.797032 243.644495 
L 73.265026 243.749607 
L 73.705667 243.288933 
L 74.158409 243.660248 
L 74.621264 243.80543 
L 75.057263 242.76136 
L 75.506157 242.475251 
L 75.949284 242.412981 
L 76.384122 242.194856 
L 76.819458 241.808162 
L 77.280821 240.918939 
L 78.175365 242.130906 
L 78.629599 242.467548 
L 79.520661 242.64493 
L 79.963125 243.483536 
L 80.41131 241.627862 
L 80.849464 240.953943 
L 81.290353 240.795923 
L 82.625123 241.503897 
L 83.067255 241.303187 
L 83.511046 241.34974 
L 84.828575 240.65805 
L 85.281814 240.305183 
L 86.621972 240.075788 
L 87.979421 240.360036 
L 88.882585 240.203618 
L 89.329194 239.812339 
L 89.767016 239.591162 
L 92.005033 239.400837 
L 92.452305 239.191812 
L 94.689493 238.885905 
L 97.379506 238.094632 
L 98.719552 237.721358 
L 99.168482 237.450464 
L 99.603817 237.35651 
L 100.935189 237.30983 
L 101.372348 237.278181 
L 103.158617 236.637695 
L 104.476892 236.44225 
L 104.933116 236.279502 
L 105.381465 236.32069 
L 106.27004 235.798443 
L 108.037576 235.604427 
L 109.382111 235.075003 
L 110.703204 234.889151 
L 112.047175 234.460657 
L 114.685217 233.587742 
L 115.577771 233.575846 
L 117.371997 232.843287 
L 119.149811 232.392587 
L 120.484203 231.773691 
L 122.24776 231.462827 
L 125.820464 230.073774 
L 127.154819 229.699054 
L 128.044389 229.359057 
L 128.484201 229.331091 
L 142.777963 223.917418 
L 143.225069 223.586068 
L 146.776387 222.325812 
L 147.212055 222.080879 
L 148.101293 221.819675 
L 150.323395 220.739416 
L 151.225648 220.363215 
L 152.99294 219.823264 
L 155.223911 218.556303 
L 158.325802 217.469219 
L 159.691987 216.658584 
L 160.571279 216.33531 
L 161.915913 215.723559 
L 162.802914 215.221348 
L 165.473997 214.106087 
L 166.379482 213.720611 
L 166.816641 213.6278 
L 168.175863 212.83294 
L 169.077618 212.152531 
L 169.966691 211.899486 
L 170.862893 211.408597 
L 171.767051 210.881218 
L 172.646675 210.554021 
L 173.084166 210.459552 
L 173.532432 210.213031 
L 173.9753 209.732931 
L 174.429535 209.507293 
L 175.767372 209.229739 
L 176.222767 209.062794 
L 177.542285 208.010329 
L 178.434839 207.73409 
L 179.328222 207.248739 
L 180.658267 206.577783 
L 182.424311 205.701294 
L 183.763059 204.846815 
L 184.204529 204.802063 
L 185.530813 204.170921 
L 186.876441 203.167203 
L 187.776953 202.893188 
L 188.654421 202.413604 
L 189.555927 201.745964 
L 190.462739 201.214582 
L 191.789137 200.499536 
L 192.695119 199.911188 
L 193.596377 199.469699 
L 194.045472 199.087555 
L 194.936866 198.585061 
L 195.371538 198.257379 
L 195.810314 198.108361 
L 196.247307 198.112651 
L 197.595754 197.328505 
L 198.038384 197.185986 
L 199.461307 197.056607 
L 199.738717 196.505225 
L 199.710732 196.55141 
L 199.677721 196.160087 
L 199.59394 200.021018 
L 199.594448 199.885752 
L 199.593029 203.071059 
L 199.593339 202.853718 
" clip-path="url(#p86dcaa45dc)" style="fill: none; stroke: #000000; stroke-width: 1.5; stroke-linecap: square"/>
   </g>
   <g id="line2d_20">
    <path d="M 69.220288 243.715095 
L 69.221175 243.561535 
L 69.226973 243.616022 
L 69.668079 243.406425 
L 70.115599 241.916439 
L 70.564032 241.349485 
L 71.026555 241.385088 
L 71.473661 244.70059 
L 72.381467 244.137233 
L 72.849295 244.097658 
L 73.307508 244.216738 
L 73.776663 243.577431 
L 74.216641 244.490762 
L 75.117318 243.136541 
L 75.56459 243.016949 
L 76.44786 242.586733 
L 76.9011 241.899764 
L 77.364618 241.818535 
L 78.709418 242.830542 
L 79.148732 242.83895 
L 79.591196 243.251816 
L 80.03575 243.175273 
L 80.472578 241.723452 
L 80.911229 241.261099 
L 81.354605 241.335601 
L 82.265727 241.838165 
L 83.615251 241.767276 
L 84.939991 241.305448 
L 86.710096 240.416892 
L 87.617405 240.782332 
L 88.072137 241.185639 
L 88.508301 241.186521 
L 88.944963 241.301891 
L 89.386433 241.116653 
L 89.833539 240.779199 
L 90.27222 240.27851 
L 92.485619 239.930186 
L 93.834065 239.77703 
L 94.739882 239.451499 
L 96.090152 239.106725 
L 96.540739 238.915548 
L 98.755381 238.571577 
L 100.544966 237.865022 
L 101.878 237.732491 
L 103.219152 237.41814 
L 104.56246 237.234309 
L 110.370196 235.660949 
L 112.148904 235.195738 
L 113.932191 234.764534 
L 114.377474 234.738242 
L 115.712326 234.209524 
L 116.162251 233.989475 
L 117.98151 233.640302 
L 119.344047 233.043219 
L 120.251853 232.82476 
L 127.342434 230.580995 
L 127.782909 230.312094 
L 128.674469 230.150109 
L 129.117099 230.154977 
L 129.571996 230.000659 
L 131.341687 229.043184 
L 133.123149 228.768744 
L 133.572907 228.450162 
L 134.475253 228.219564 
L 135.379743 228.026445 
L 136.289538 227.653839 
L 136.7262 227.314446 
L 137.169825 227.115984 
L 138.065363 226.881159 
L 139.386788 226.38012 
L 140.729266 225.753833 
L 142.086831 225.408209 
L 144.318879 224.452496 
L 145.203549 224.283232 
L 146.546856 223.447446 
L 147.427308 223.30045 
L 148.739781 222.743689 
L 149.175448 222.426729 
L 150.049767 222.293348 
L 150.502675 222.222036 
L 151.846397 221.463287 
L 154.046782 220.709493 
L 155.387437 219.921291 
L 158.94049 218.509119 
L 160.253129 217.931671 
L 160.701395 217.523779 
L 161.598425 217.105393 
L 163.829314 216.207546 
L 164.275674 215.855737 
L 165.62727 215.318464 
L 166.532278 214.971329 
L 167.896308 214.208647 
L 168.331975 214.112935 
L 168.766814 213.865109 
L 170.074313 213.426953 
L 172.292602 212.219536 
L 173.624636 211.619322 
L 174.964462 210.807805 
L 176.733656 210.170409 
L 177.624729 209.559271 
L 178.522588 209.113461 
L 178.973507 208.806871 
L 179.426249 208.651883 
L 180.318803 208.201752 
L 181.19909 207.824987 
L 182.968532 206.584273 
L 185.172564 205.794378 
L 186.519022 204.909476 
L 186.955518 204.638371 
L 187.839617 204.379572 
L 189.635377 203.214702 
L 190.528926 202.691856 
L 191.416838 202.357556 
L 194.078006 200.933918 
L 195.428525 200.122758 
L 196.309309 199.711312 
L 197.199211 199.081413 
L 198.088781 198.447952 
L 200.297652 197.398381 
L 202.110611 196.335017 
L 202.9904 195.79069 
L 204.763324 194.813321 
L 205.20297 194.404935 
L 206.538154 193.816482 
L 207.869525 193.126554 
L 208.757935 192.577977 
L 210.086126 191.910209 
L 211.429599 191.109838 
L 212.318672 190.471721 
L 214.091678 189.530612 
L 214.983072 189.09519 
L 216.793876 187.712856 
L 218.153098 186.906295 
L 219.057423 186.044796 
L 220.816152 185.341879 
L 222.163604 184.395092 
L 222.615849 184.070936 
L 223.070415 183.890711 
L 223.963301 183.289348 
L 224.854529 182.757596 
L 226.199825 181.822872 
L 227.101829 181.122075 
L 229.315808 179.875471 
L 230.653645 178.945808 
L 231.091799 178.658901 
L 231.973235 178.344838 
L 232.865458 177.761605 
L 234.646256 176.455001 
L 235.085073 176.306804 
L 236.861561 175.031064 
L 237.31248 174.640243 
L 238.223436 174.153477 
L 239.575695 173.075263 
L 240.028603 172.586526 
L 243.609223 170.439006 
L 244.513216 169.76022 
L 246.725869 168.327477 
L 247.627209 167.572361 
L 250.295671 165.65085 
L 251.192701 164.958942 
L 251.627871 164.744273 
L 254.320744 162.74779 
L 256.109666 161.545911 
L 257.002551 160.677641 
L 257.886568 159.838435 
L 260.083803 158.560861 
L 263.196967 156.180806 
L 263.633795 155.995871 
L 266.768573 153.527044 
L 267.66436 152.647521 
L 269.87983 150.92583 
L 270.331413 150.38503 
L 271.64488 149.525825 
L 272.53014 148.939382 
L 273.412084 147.969809 
L 274.311269 147.63322 
L 275.210621 146.919593 
L 276.98056 144.95907 
L 277.877756 144.688671 
L 278.755225 144.01186 
L 280.557243 142.371472 
L 282.789208 140.66985 
L 284.123398 139.495413 
L 286.77178 137.279455 
L 287.652398 136.535556 
L 288.997363 135.462916 
L 289.901854 134.684731 
L 294.782056 130.395722 
L 295.675108 129.75302 
L 296.557384 128.766022 
L 298.765436 126.875533 
L 300.556678 125.193947 
L 301.441275 124.493997 
L 302.330348 123.736412 
L 302.771818 123.413738 
L 304.561071 121.592189 
L 306.338222 119.913213 
L 316.590452 110.486739 
L 317.476624 109.566688 
L 318.365199 108.775594 
L 323.690249 103.728154 
L 324.581975 102.71322 
L 325.47428 101.779483 
L 326.366503 100.938654 
L 327.257731 100.15144 
L 328.586201 98.614612 
L 329.481905 97.958118 
L 332.141871 95.272171 
L 332.579362 94.972495 
L 334.36016 92.985588 
L 335.236965 92.005644 
L 336.580439 90.622323 
L 341.087638 86.036425 
L 341.541541 85.70846 
L 342.879378 84.125919 
L 345.095678 81.815492 
L 346.882941 79.729893 
L 349.098329 77.529305 
L 349.991878 76.377443 
L 350.868683 75.572451 
L 352.211742 74.114863 
L 353.111425 72.907411 
L 354.424726 71.695515 
L 357.545516 68.169805 
L 358.442381 66.984786 
L 361.998672 62.770344 
L 362.884927 61.834985 
L 363.772011 61.016942 
L 365.103713 59.362375 
L 365.55629 58.76655 
L 366.436577 57.843606 
L 367.316366 56.896043 
L 368.223509 55.723087 
L 368.678406 55.383906 
L 369.570629 54.363681 
L 370.007125 53.956988 
L 371.360877 52.203657 
L 372.246137 51.502737 
L 373.126423 50.926065 
L 373.308987 50.572774 
L 373.580181 50.316625 
L 373.50299 50.849929 
L 373.426981 59.875856 
L 373.424287 78.37583 
L 373.424287 78.37583 
" clip-path="url(#p86dcaa45dc)" style="fill: none; stroke: #000000; stroke-width: 1.5; stroke-linecap: square"/>
   </g>
   <g id="line2d_21">
    <path d="M 69.219772 244.011522 
L 69.225946 243.770837 
L 69.664416 243.801226 
L 70.114174 242.326196 
L 70.549758 241.828808 
L 70.992886 241.701721 
L 71.459388 244.958529 
L 72.834525 244.524129 
L 73.282625 244.606103 
L 73.744651 244.231225 
L 74.209827 245.121189 
L 75.10089 243.851375 
L 75.997091 243.638151 
L 76.891966 243.007935 
L 77.335259 243.164268 
L 78.704594 244.196227 
L 79.148053 244.301291 
L 79.600961 244.636663 
L 80.043757 244.153058 
L 80.481662 243.124368 
L 80.930194 242.881537 
L 81.370669 242.973307 
L 82.258084 243.471603 
L 83.153291 243.664684 
L 83.603381 243.573012 
L 84.050487 243.343176 
L 84.486486 243.399549 
L 85.822747 243.203843 
L 86.260736 242.926759 
L 86.699304 242.496716 
L 87.14525 242.437147 
L 87.603131 242.754671 
L 88.046093 243.213779 
L 88.502317 243.321417 
L 88.956551 243.589348 
L 89.407719 243.581253 
L 90.285519 242.349181 
L 90.736355 242.260633 
L 91.192827 242.296753 
L 91.638275 242.522427 
L 92.524994 242.515312 
L 92.963894 242.303641 
L 93.853464 242.233785 
L 95.16345 242.224027 
L 95.619176 242.112424 
L 96.524495 241.617444 
L 97.874931 241.396677 
L 98.781743 241.447407 
L 99.220891 241.341469 
L 99.663521 241.433404 
L 101.429897 241.20558 
L 101.88065 240.921388 
L 105.046006 240.204339 
L 105.483828 240.141611 
L 106.377377 240.240847 
L 108.17293 239.624308 
L 109.491039 239.202492 
L 110.818431 238.793147 
L 112.15892 238.779674 
L 114.821616 238.16848 
L 116.157547 237.854031 
L 116.605647 237.596858 
L 117.93304 237.276257 
L 118.812829 237.458294 
L 119.708533 237.165457 
L 120.609211 236.688113 
L 121.932956 236.702678 
L 124.169481 236.150276 
L 124.613017 236.143711 
L 125.501759 235.756858 
L 126.85866 235.030692 
L 127.742096 234.889871 
L 129.076949 234.759635 
L 131.733226 233.921935 
L 133.068908 233.729373 
L 134.425312 233.121472 
L 134.878717 233.011226 
L 135.314214 232.727631 
L 136.193174 232.662525 
L 137.070642 232.274755 
L 140.611351 231.174532 
L 141.485006 230.837449 
L 142.834116 230.40656 
L 143.287356 230.377846 
L 149.02778 228.151243 
L 149.480357 227.928109 
L 151.687705 227.381512 
L 153.033333 226.838014 
L 153.923401 226.483983 
L 154.817281 226.06731 
L 155.701878 225.728452 
L 156.142679 225.650641 
L 156.583817 225.427083 
L 157.461327 225.206315 
L 158.353384 224.800587 
L 158.789217 224.694 
L 159.661215 224.317606 
L 161.450965 223.697972 
L 162.810187 222.913615 
L 163.716998 222.628718 
L 164.169243 222.540594 
L 166.846906 221.339147 
L 167.725867 221.06406 
L 169.956092 220.089458 
L 170.840854 219.915185 
L 171.715504 219.462761 
L 174.37949 218.142837 
L 175.714343 217.685599 
L 176.610627 217.233192 
L 177.937357 216.503419 
L 178.838967 216.230259 
L 181.058416 215.175388 
L 181.509667 215.155856 
L 182.390451 214.842079 
L 183.74014 213.781185 
L 184.630705 213.525829 
L 185.073501 213.525454 
L 185.52873 213.370078 
L 187.29751 212.198586 
L 188.188903 211.929699 
L 188.625897 211.775593 
L 189.526408 211.077671 
L 194.919863 208.401454 
L 196.700495 207.500237 
L 197.607473 207.194099 
L 198.044963 206.879115 
L 198.9284 206.441805 
L 204.253522 203.544585 
L 205.144419 203.034966 
L 206.032165 202.761313 
L 210.925796 200.038205 
L 211.380197 199.63966 
L 212.255126 199.114548 
L 212.701404 198.825065 
L 213.60291 198.54836 
L 214.500769 198.0295 
L 215.835787 197.118373 
L 217.173127 196.485962 
L 218.958898 195.277945 
L 219.841837 194.972828 
L 220.721129 194.43806 
L 221.609871 193.9865 
L 222.057806 193.522877 
L 223.849794 192.36739 
L 224.737375 192.19563 
L 225.640207 191.4645 
L 226.530441 190.676157 
L 229.216061 189.226241 
L 232.309995 187.428149 
L 233.639138 186.855246 
L 234.528211 186.144785 
L 235.867871 185.075567 
L 236.778495 184.775851 
L 238.574462 183.414187 
L 239.009964 183.157314 
L 240.345811 182.661857 
L 241.240935 181.949209 
L 242.585071 181.026054 
L 243.936181 180.154257 
L 244.836651 179.482763 
L 246.601369 178.440069 
L 248.412836 176.875094 
L 249.287652 176.614606 
L 252.42817 174.602832 
L 253.328184 173.805318 
L 254.661213 172.97486 
L 255.557083 172.581094 
L 257.366892 170.998906 
L 258.259944 170.438865 
L 260.939596 168.66829 
L 261.818805 168.088549 
L 262.255384 167.539707 
L 263.144706 166.954958 
L 264.035602 166.488495 
L 264.930974 165.854285 
L 266.28514 164.707625 
L 267.641213 163.873551 
L 268.547692 163.078789 
L 269.896305 162.075389 
L 270.776923 161.521538 
L 272.556229 160.080087 
L 274.358413 158.726183 
L 275.235218 157.993571 
L 276.565429 157.1647 
L 277.898769 156.041082 
L 278.791323 155.247307 
L 279.667963 154.754196 
L 280.112748 154.509034 
L 285.030997 150.38376 
L 286.351427 149.567517 
L 286.786596 149.130066 
L 287.223424 148.879701 
L 291.665349 145.084676 
L 292.573818 144.384374 
L 295.288946 142.191017 
L 296.179346 141.348142 
L 296.615842 141.095026 
L 299.24346 138.832129 
L 301.922283 136.554788 
L 303.239729 135.377565 
L 305.023843 133.942357 
L 305.911258 133.006081 
L 313.490011 126.410217 
L 314.378587 125.347665 
L 316.166845 123.916619 
L 316.617598 123.316138 
L 318.386958 121.833913 
L 318.824615 121.582207 
L 320.174387 120.217298 
L 321.068931 119.341056 
L 322.853045 117.897242 
L 323.73789 116.849363 
L 330.448791 110.504878 
L 334.888415 106.234873 
L 335.780969 105.208581 
L 336.670871 104.25368 
L 337.572543 103.392535 
L 338.463771 102.406454 
L 341.130492 99.761078 
L 342.019731 98.737044 
L 342.929733 97.880501 
L 345.160788 95.503409 
L 345.609883 95.241439 
L 346.499785 94.314907 
L 348.283235 92.304721 
L 350.093874 90.585957 
L 350.989909 89.500266 
L 353.21197 87.2831 
L 354.998736 85.159618 
L 355.876205 84.308208 
L 357.655179 82.200175 
L 371.888531 66.333107 
L 372.77893 65.808992 
L 373.581818 65.041759 
L 373.543461 65.579102 
L 373.503591 65.279761 
L 373.425862 74.722734 
L 373.425944 90.741192 
L 373.424846 90.65167 
" clip-path="url(#p86dcaa45dc)" style="fill: none; stroke: #000000; stroke-width: 1.5; stroke-linecap: square"/>
   </g>
   <g id="line2d_22">
    <path d="M 69.219512 243.889475 
L 69.220107 243.847002 
L 69.22125 244.007804 
L 69.23073 243.996082 
L 69.67142 243.864124 
L 70.112641 242.614309 
L 71.011246 241.658775 
L 71.451058 244.914737 
L 71.892859 244.676171 
L 72.823387 244.560823 
L 73.287071 244.681738 
L 73.728209 244.513946 
L 74.180951 245.041624 
L 74.615624 245.208234 
L 75.054938 244.359717 
L 75.49906 243.907098 
L 76.827282 243.133205 
L 77.273393 242.797193 
L 78.188991 243.659327 
L 79.096797 244.314163 
L 79.53263 244.462907 
L 79.985704 244.89904 
L 80.431982 243.84199 
L 80.877264 243.091036 
L 81.32553 242.957918 
L 81.762607 243.021703 
L 82.653172 243.722499 
L 83.990843 243.792783 
L 84.879331 243.342757 
L 86.213935 243.149977 
L 86.655985 242.473943 
L 87.097455 242.422841 
L 87.532127 242.989461 
L 87.97426 243.311923 
L 89.339284 243.786265 
L 90.220566 242.614367 
L 90.657642 242.524694 
L 91.990338 243.076947 
L 92.434958 242.754096 
L 95.528726 242.170172 
L 96.431708 242.096869 
L 97.787698 241.791377 
L 100.912798 241.314711 
L 102.694094 241.113312 
L 108.028243 239.854502 
L 108.469713 239.983132 
L 109.374535 239.735658 
L 110.715356 239.176688 
L 111.617193 239.120719 
L 112.057005 239.059161 
L 112.954447 238.654994 
L 113.849986 238.557898 
L 115.174228 238.386697 
L 116.076066 238.089614 
L 117.435952 237.821122 
L 118.342965 237.551624 
L 119.706 237.286333 
L 121.475359 236.63211 
L 123.711055 236.404794 
L 124.584048 236.237674 
L 126.331358 235.677506 
L 127.205511 235.562283 
L 128.560423 235.090801 
L 129.457785 234.852016 
L 133.8937 233.908147 
L 134.799351 233.539072 
L 135.67284 233.416783 
L 137.860129 232.542128 
L 138.739089 232.376967 
L 139.629851 231.953777 
L 140.068171 232.049643 
L 141.394403 231.860004 
L 141.842586 231.68828 
L 142.291682 231.296824 
L 143.188049 230.940498 
L 143.627197 230.960312 
L 144.531025 230.665045 
L 145.860324 230.211462 
L 146.749397 230.126708 
L 148.997857 229.334949 
L 149.87516 229.153915 
L 151.676194 228.177648 
L 153.445885 227.870303 
L 154.793254 227.135645 
L 156.125288 226.593188 
L 157.007061 226.49491 
L 158.78786 225.780163 
L 159.681574 225.516871 
L 160.558545 225.230528 
L 161.905386 224.664304 
L 163.258226 224.14503 
L 163.712129 224.07135 
L 168.173159 222.120453 
L 168.628222 222.056874 
L 170.409518 221.215869 
L 170.848335 220.959702 
L 172.180307 220.625033 
L 172.634376 220.371493 
L 173.527842 219.73253 
L 175.295875 219.391662 
L 176.660734 218.599192 
L 177.550967 218.376285 
L 178.452308 218.054502 
L 180.244462 216.976994 
L 180.684605 216.809996 
L 181.579812 216.646752 
L 182.021779 216.493951 
L 183.814109 215.331994 
L 184.706166 215.090663 
L 185.598886 214.728356 
L 186.493678 214.172034 
L 187.367831 213.848577 
L 188.24646 213.421532 
L 189.589104 212.855442 
L 190.480829 212.650446 
L 190.929842 212.458175 
L 191.822728 211.77632 
L 192.702185 211.469735 
L 193.59275 211.283416 
L 195.369083 210.115225 
L 196.259316 209.847993 
L 197.149881 209.34975 
L 198.037047 208.769676 
L 198.482827 208.731732 
L 198.930099 208.572088 
L 201.121366 207.220247 
L 202.006626 207.128082 
L 202.894538 206.644636 
L 204.257076 205.786453 
L 206.931693 204.438345 
L 213.660497 200.854241 
L 214.108764 200.71398 
L 215.004634 200.153004 
L 215.904358 199.394365 
L 216.797409 199.044373 
L 217.686648 198.695209 
L 218.579534 197.975648 
L 219.029126 197.640382 
L 219.904108 197.314599 
L 221.21973 196.698012 
L 222.124055 196.11425 
L 224.344499 194.973005 
L 226.13284 193.76908 
L 227.911825 192.981248 
L 229.693121 191.608262 
L 231.484363 191.013186 
L 232.381642 190.33761 
L 233.278341 189.728699 
L 234.162938 189.323981 
L 235.505333 188.460948 
L 236.84632 187.657332 
L 237.73475 186.947824 
L 238.637749 186.446494 
L 239.078058 186.315818 
L 243.555759 183.623618 
L 244.464228 182.970581 
L 245.355788 182.451968 
L 252.480266 177.80313 
L 252.924553 177.398976 
L 254.696565 176.543046 
L 255.596828 175.831245 
L 256.492615 175.139055 
L 258.258659 174.234101 
L 262.705578 171.268613 
L 263.583875 170.651343 
L 264.920634 169.782225 
L 266.25789 168.705564 
L 266.698365 168.50735 
L 269.385643 166.471203 
L 269.824958 166.289055 
L 274.272436 162.998173 
L 275.170212 162.352014 
L 276.059948 161.631818 
L 280.955029 158.119618 
L 281.841284 157.237097 
L 282.737154 156.521909 
L 284.063552 155.743425 
L 289.365248 151.592474 
L 292.49041 149.256915 
L 293.835044 148.196444 
L 296.924833 146.063703 
L 297.822692 145.395569 
L 298.268638 145.068733 
L 299.607303 143.767667 
L 300.500852 142.973469 
L 300.949616 142.773015 
L 302.714769 141.369579 
L 303.59489 140.446707 
L 304.491423 139.71346 
L 305.399892 139.011605 
L 306.272718 138.538705 
L 308.528308 136.462206 
L 309.407102 135.904264 
L 311.199671 134.281301 
L 312.523085 133.191024 
L 313.862911 132.025943 
L 314.754802 131.357386 
L 315.641554 130.484036 
L 317.428983 128.987137 
L 318.313912 128.076187 
L 323.184416 123.943083 
L 324.534686 122.42748 
L 327.227601 120.135395 
L 328.130599 119.112489 
L 330.359829 117.374925 
L 332.154553 115.610377 
L 333.914961 114.010412 
L 334.794252 113.216425 
L 337.911126 110.116447 
L 338.818435 109.537095 
L 339.722096 108.670799 
L 341.076179 107.125294 
L 342.823656 105.505505 
L 347.693539 100.714647 
L 348.565536 99.946621 
L 352.638561 95.726676 
L 353.947552 94.602185 
L 354.851545 93.477271 
L 355.306111 92.928147 
L 356.194853 92.110669 
L 357.964751 90.411869 
L 359.277389 89.016273 
L 360.170109 88.022643 
L 361.51209 86.604331 
L 363.301094 84.61545 
L 364.182707 83.720584 
L 370.898312 76.615956 
L 372.249577 75.611604 
L 372.693699 75.440249 
L 373.138359 75.065319 
L 373.571685 74.48639 
L 373.541513 74.961688 
L 373.498038 74.881566 
L 373.425053 84.018443 
L 373.425862 98.47555 
L 373.426069 98.459924 
" clip-path="url(#p86dcaa45dc)" style="fill: none; stroke: #000000; stroke-width: 1.5; stroke-linecap: square"/>
   </g>
   <g id="line2d_23">
    <path d="M 69.21938 244.043229 
L 69.219324 244.065733 
L 69.220647 244.007542 
L 69.219955 244.014926 
L 69.660598 243.95422 
L 70.10874 242.757456 
L 70.557752 242.166101 
L 70.998559 241.924237 
L 71.466055 242.55604 
L 71.900894 245.644245 
L 72.816087 244.935438 
L 73.272642 245.120972 
L 73.708807 244.626098 
L 74.155913 245.094042 
L 74.610811 245.025119 
L 75.070018 244.305276 
L 75.949145 243.779573 
L 76.394924 243.557038 
L 76.832747 242.982659 
L 77.275211 243.002771 
L 78.604427 244.344894 
L 79.491511 244.996308 
L 79.92809 244.967221 
L 80.373704 243.678078 
L 80.814427 243.103769 
L 81.268828 242.964129 
L 83.078803 243.77328 
L 83.515299 243.768207 
L 84.865659 243.342242 
L 85.762357 243.175753 
L 86.212033 242.983834 
L 86.665687 242.308152 
L 87.120585 242.096869 
L 88.005679 243.054803 
L 88.891768 243.462484 
L 89.343847 243.823464 
L 89.78283 243.435791 
L 90.233998 242.399905 
L 90.686574 242.270014 
L 92.484862 242.649892 
L 93.822119 242.218429 
L 94.693287 242.132932 
L 95.149014 241.985827 
L 96.048632 241.888096 
L 96.493003 241.674309 
L 97.380252 241.568457 
L 98.712121 241.439326 
L 100.519775 241.046582 
L 101.393596 241.043595 
L 108.103113 239.686432 
L 109.453384 239.398332 
L 109.88988 239.284968 
L 111.67963 239.269073 
L 112.119607 239.157361 
L 113.02609 238.68954 
L 115.233437 238.48937 
L 116.136436 238.081424 
L 117.045236 237.844886 
L 118.374121 237.80678 
L 119.723231 237.458471 
L 120.629876 237.190937 
L 121.950637 237.017062 
L 124.61968 236.45595 
L 125.058497 236.454465 
L 128.185006 235.643102 
L 128.623176 235.635238 
L 133.086113 234.397082 
L 133.997731 234.165492 
L 135.812846 233.670756 
L 138.453706 233.327368 
L 140.672233 232.717499 
L 142.886046 232.045031 
L 143.794515 231.737754 
L 144.671652 231.706125 
L 146.927573 230.784117 
L 147.808522 230.742761 
L 148.709863 230.439213 
L 149.607391 230.067424 
L 150.490392 229.993774 
L 151.815049 229.625514 
L 152.714152 229.141468 
L 153.598583 229.025138 
L 154.039223 229.057436 
L 154.490308 228.977376 
L 156.713073 228.032957 
L 157.608446 227.984184 
L 159.409469 227.041541 
L 159.849115 226.932959 
L 160.736861 226.872511 
L 162.061384 226.386855 
L 162.950705 225.97048 
L 163.851714 225.672477 
L 166.089897 224.757347 
L 170.120648 223.291927 
L 170.995796 222.874681 
L 172.329146 222.532375 
L 172.765974 222.467377 
L 173.216064 222.279874 
L 173.66317 221.942315 
L 178.106047 220.196887 
L 178.55995 220.093869 
L 179.45151 219.54143 
L 180.776084 219.102034 
L 181.656371 218.910993 
L 182.963963 218.186223 
L 183.400957 218.085193 
L 183.840105 217.843404 
L 184.721386 217.61788 
L 189.623804 215.251158 
L 190.059471 215.223138 
L 191.393495 214.56354 
L 191.832975 214.52314 
L 192.287209 214.191154 
L 198.069934 211.75778 
L 199.418712 211.141243 
L 200.319224 210.890912 
L 202.111461 209.984549 
L 203.012304 209.445901 
L 203.88828 209.033722 
L 205.211756 208.631482 
L 207.454332 207.296379 
L 208.779735 206.899394 
L 211.427889 205.551301 
L 212.775673 204.700949 
L 213.675189 204.381683 
L 215.015347 203.759532 
L 215.465437 203.504828 
L 216.367824 202.842797 
L 218.114803 202.102804 
L 219.875542 201.115276 
L 220.779867 200.902627 
L 221.226558 200.655048 
L 222.123672 199.956121 
L 223.459851 199.392183 
L 224.340137 199.054236 
L 225.238991 198.304834 
L 229.699224 196.082364 
L 230.591281 195.499307 
L 232.815206 194.313455 
L 233.702953 193.775231 
L 235.493449 192.846538 
L 236.828219 192.047578 
L 238.161787 191.482206 
L 239.961815 190.400554 
L 243.941424 188.035702 
L 244.388364 187.690453 
L 245.715093 187.135571 
L 248.40778 185.721351 
L 249.316249 185.153638 
L 250.209632 184.571111 
L 251.536693 183.939273 
L 251.98927 183.684816 
L 253.761696 182.235217 
L 255.999713 181.181448 
L 256.446736 180.809886 
L 257.345673 180.30092 
L 259.115633 179.199096 
L 260.012663 178.762845 
L 260.908202 177.915244 
L 262.238247 177.139669 
L 262.677064 177.039971 
L 263.130303 176.787666 
L 264.026919 176.016254 
L 265.369398 175.239939 
L 265.82413 175.026787 
L 267.151191 174.043351 
L 268.47676 173.414176 
L 271.580599 171.174025 
L 273.364713 170.047453 
L 274.273513 169.597569 
L 276.490973 167.876905 
L 277.851024 167.134875 
L 280.995873 165.084213 
L 281.903513 164.350613 
L 282.80303 163.563822 
L 284.999768 162.41293 
L 286.33031 162.091102 
L 286.650906 161.638802 
L 286.510015 165.150578 
L 286.510844 165.002125 
L 286.509103 170.73959 
L 286.510326 170.603341 
" clip-path="url(#p86dcaa45dc)" style="fill: none; stroke: #000000; stroke-width: 1.5; stroke-linecap: square"/>
   </g>
   <g id="line2d_24">
    <path d="M 69.219527 244.053549 
L 69.220463 244.179668 
L 69.223872 243.947414 
L 69.659454 244.082942 
L 70.107803 242.662267 
L 70.563487 241.902131 
L 71.016229 241.984916 
L 71.453388 245.206311 
L 71.888558 244.924712 
L 72.804156 244.726056 
L 73.261209 244.817624 
L 73.69671 244.598652 
L 74.139672 245.322776 
L 74.589265 245.046257 
L 75.047809 244.312163 
L 75.491765 244.025979 
L 76.368902 243.781681 
L 77.271569 243.191076 
L 77.727461 243.510505 
L 78.162963 244.075996 
L 79.064303 244.64713 
L 79.957521 245.072768 
L 80.403715 243.988629 
L 80.850489 243.308926 
L 81.295689 243.17518 
L 82.195703 243.692559 
L 83.079969 244.084014 
L 83.522446 244.169695 
L 83.976017 244.107737 
L 84.42876 243.84485 
L 85.324712 243.687863 
L 86.212044 243.760587 
L 86.664953 243.517488 
L 87.116783 242.861664 
L 87.571018 242.896099 
L 88.019616 243.474006 
L 88.917641 244.048667 
L 89.359774 244.225524 
L 89.805056 244.562695 
L 90.70076 243.023015 
L 91.146044 242.824461 
L 91.584695 242.987702 
L 92.036774 243.341628 
L 92.479736 243.527197 
L 92.926262 243.544163 
L 93.820059 243.093802 
L 94.276117 242.979219 
L 96.048461 243.133257 
L 96.938777 242.830371 
L 98.29601 242.474386 
L 100.074985 242.323036 
L 100.987432 241.951368 
L 101.878495 241.988088 
L 103.192459 241.703256 
L 104.08808 241.301704 
L 105.446738 241.506692 
L 106.353052 241.23534 
L 107.25721 240.892181 
L 108.136834 241.026206 
L 109.030217 240.813248 
L 109.918958 240.455399 
L 110.803887 240.540616 
L 111.688649 240.366863 
L 113.451375 239.746613 
L 114.33017 239.733681 
L 116.1139 239.252472 
L 117.022701 239.279384 
L 121.00894 238.410918 
L 122.341306 238.377796 
L 123.228638 238.113278 
L 124.115722 237.746073 
L 127.234543 237.066592 
L 128.118477 236.883907 
L 129.008213 236.930478 
L 130.782712 236.553409 
L 131.659517 236.302537 
L 132.094521 236.336449 
L 132.998348 236.047705 
L 134.362709 235.717319 
L 134.817441 235.76301 
L 136.145663 235.220104 
L 137.469077 234.868787 
L 138.361424 234.78411 
L 139.236903 234.543057 
L 140.117355 234.47717 
L 141.020934 234.488178 
L 142.360677 233.798563 
L 142.805296 233.514037 
L 144.15109 233.43514 
L 145.491414 232.774471 
L 145.942001 232.526716 
L 147.262099 232.5315 
L 148.173884 232.287021 
L 149.080768 231.772375 
L 149.517098 231.720747 
L 149.955418 231.803095 
L 150.406502 231.721915 
L 152.213162 230.931826 
L 154.8643 230.352928 
L 155.309168 230.087537 
L 155.753788 230.024988 
L 156.658034 229.583763 
L 157.55092 229.461387 
L 162.890331 227.541993 
L 163.342742 227.261152 
L 164.249056 226.986445 
L 165.144926 226.692866 
L 165.595679 226.628646 
L 167.812641 225.815372 
L 168.70188 225.610464 
L 170.495112 224.777011 
L 170.940591 224.70027 
L 171.384547 224.758725 
L 172.275775 224.419752 
L 173.181095 223.906817 
L 174.497048 223.457823 
L 175.860083 222.767529 
L 176.749819 222.531533 
L 177.202396 222.483463 
L 180.365377 221.244945 
L 181.270365 220.602207 
L 182.5984 220.169459 
L 184.382679 219.324199 
L 185.280207 219.099393 
L 185.725655 219.079389 
L 187.054705 218.495592 
L 188.842384 217.593987 
L 189.285677 217.516713 
L 191.515239 216.45182 
L 192.842186 216.105072 
L 195.099764 214.796333 
L 195.976901 214.521325 
L 197.316727 213.826323 
L 199.070835 213.352514 
L 200.407014 212.549481 
L 201.733743 212.21969 
L 202.171566 211.88587 
L 203.053179 211.475332 
L 203.932367 211.049515 
L 204.382291 210.962674 
L 205.712005 210.103909 
L 211.051332 207.969541 
L 212.39265 206.997075 
L 212.834617 206.740714 
L 213.716562 206.521071 
L 215.49651 205.486501 
L 217.272501 204.748695 
L 217.71596 204.332337 
L 219.061008 203.697227 
L 219.947926 203.478608 
L 221.284353 202.5551 
L 221.731376 202.181775 
L 223.964917 201.409997 
L 224.851835 200.618197 
L 227.086495 199.740006 
L 228.431211 198.727788 
L 228.887269 198.649377 
L 230.671051 197.677682 
L 232.003749 196.962874 
L 233.328489 196.261831 
L 242.274847 191.280033 
L 243.163423 190.647242 
L 243.600085 190.523911 
L 245.839427 189.254644 
L 247.619791 188.433096 
L 249.423632 187.222822 
L 253.872146 184.66106 
L 254.748454 184.060985 
L 255.627912 183.554488 
L 258.330276 181.870309 
L 258.786499 181.554231 
L 260.131299 180.968529 
L 261.01946 180.336797 
L 265.473859 177.465006 
L 267.237417 176.573032 
L 268.13942 175.87213 
L 269.00889 175.481098 
L 269.443728 175.149324 
L 270.316057 174.860124 
L 272.994383 172.844823 
L 274.332883 172.134221 
L 275.226763 171.263058 
L 276.561284 170.319692 
L 277.448865 169.878714 
L 279.264477 168.478497 
L 280.171475 167.981673 
L 282.387194 166.355182 
L 283.272123 165.736748 
L 284.166583 164.821988 
L 284.603245 164.675183 
L 285.94017 164.639126 
L 286.653455 163.773068 
L 286.510056 168.199914 
L 286.509891 172.790851 
L 286.508751 172.563863 
" clip-path="url(#p86dcaa45dc)" style="fill: none; stroke: #000000; stroke-width: 1.5; stroke-linecap: square"/>
   </g>
   <g id="line2d_25">
    <path d="M 69.219404 244.326385 
L 69.219728 244.401145 
L 69.221051 244.177589 
L 69.661929 244.146909 
L 70.103605 242.894096 
L 70.540682 242.152586 
L 70.991103 242.409918 
L 71.460424 245.659671 
L 72.383813 245.16813 
L 73.286645 245.096738 
L 73.74834 244.864517 
L 74.206719 245.588593 
L 75.115022 244.427348 
L 75.553176 244.184461 
L 76.428158 244.081615 
L 77.312921 243.466337 
L 77.757374 243.658537 
L 78.673469 244.784721 
L 80.036815 245.473423 
L 80.915775 243.923121 
L 81.362052 243.788972 
L 81.811065 243.836325 
L 84.054387 244.652287 
L 85.831538 244.257432 
L 86.267868 244.243841 
L 86.711741 244.105779 
L 87.164484 243.736616 
L 87.60728 243.15647 
L 88.06599 243.507714 
L 88.52669 244.122728 
L 89.417918 244.714179 
L 90.30406 245.048576 
L 90.74412 243.968952 
L 91.197029 243.505329 
L 91.638664 243.469576 
L 92.547796 244.010481 
L 92.987276 244.156436 
L 94.315083 243.464105 
L 96.539589 243.689575 
L 97.875768 243.439933 
L 98.784569 243.466425 
L 100.591063 243.105215 
L 101.479154 242.93289 
L 101.915816 243.026689 
L 102.371045 242.940042 
L 103.261775 242.626217 
L 103.701256 242.607247 
L 104.139244 242.476248 
L 105.451882 242.512986 
L 106.34626 242.194833 
L 107.241052 241.958392 
L 109.039423 241.833864 
L 110.812595 241.411478 
L 112.58763 241.226434 
L 113.494773 240.971796 
L 114.813379 240.68955 
L 117.042858 240.385185 
L 117.921985 240.310548 
L 118.810892 240.030272 
L 119.256506 239.830947 
L 120.602797 239.705008 
L 121.491538 239.63775 
L 124.608458 238.921476 
L 125.502339 238.945209 
L 127.728503 238.159706 
L 128.613762 238.272437 
L 130.846309 237.680452 
L 132.194589 237.32876 
L 133.516677 237.075756 
L 134.402885 236.956566 
L 135.279276 236.592402 
L 136.176306 236.452908 
L 137.081294 236.489511 
L 140.645708 235.543208 
L 141.518038 235.346411 
L 142.424186 235.072431 
L 143.303809 234.827538 
L 143.748926 234.792499 
L 145.981244 234.000016 
L 147.7637 233.901732 
L 148.655011 233.42176 
L 149.535132 232.910721 
L 150.431665 232.766917 
L 150.872305 232.812636 
L 151.762373 232.533087 
L 152.656419 232.15808 
L 153.541679 232.115971 
L 154.439207 231.817485 
L 155.330932 231.274393 
L 156.65962 231.057217 
L 157.537751 230.835453 
L 158.901781 230.304957 
L 162.46976 229.035998 
L 163.807928 228.648481 
L 164.708523 228.571874 
L 165.16342 228.195726 
L 166.492181 227.901748 
L 167.819159 227.530927 
L 168.721825 227.04868 
L 170.938291 226.411513 
L 174.958598 224.991985 
L 175.411838 224.88085 
L 176.306216 224.465762 
L 178.07628 223.813135 
L 178.978698 223.438884 
L 181.202457 222.560847 
L 184.304017 221.388701 
L 185.61881 220.991388 
L 188.782112 219.474555 
L 189.690581 219.16814 
L 191.916828 218.212232 
L 192.352329 218.075753 
L 193.702185 217.276882 
L 195.023112 216.846573 
L 196.356473 216.34833 
L 196.806397 216.139834 
L 197.704091 215.538577 
L 199.474828 215.009249 
L 200.361083 214.511376 
L 201.709529 213.908184 
L 203.022996 213.36012 
L 205.263831 212.336174 
L 206.135995 212.069742 
L 207.935526 211.105905 
L 208.808021 210.859757 
L 210.171398 209.997518 
L 214.643619 208.111103 
L 215.541478 207.303078 
L 217.74866 206.434755 
L 218.650995 205.856848 
L 219.958328 205.449302 
L 220.861109 204.924485 
L 222.64456 203.837736 
L 223.087355 203.729788 
L 223.528162 203.421823 
L 223.967145 203.303911 
L 226.190904 202.088752 
L 227.077159 201.721943 
L 227.514153 201.548508 
L 228.412178 200.9348 
L 230.616541 199.886198 
L 231.520866 199.21623 
L 232.428558 198.70692 
L 233.749982 198.095769 
L 236.862981 196.501032 
L 237.750064 195.979844 
L 238.638474 195.685362 
L 240.866958 194.324117 
L 241.761585 194.075299 
L 243.538933 192.630625 
L 243.984713 192.523388 
L 244.431819 192.553806 
L 246.227868 191.514498 
L 246.681606 191.121491 
L 247.588251 190.641153 
L 248.929072 189.745652 
L 250.263924 189.270309 
L 258.714386 184.038838 
L 260.056035 183.46751 
L 261.839486 182.181471 
L 264.065235 181.064722 
L 264.959095 180.366452 
L 265.855462 179.627279 
L 266.744535 179.269915 
L 267.632116 178.6767 
L 269.413991 177.73799 
L 271.601777 176.040143 
L 272.933977 175.415535 
L 273.84427 174.7498 
L 276.074412 173.372298 
L 276.952046 172.660638 
L 277.393019 172.484945 
L 278.267337 171.918185 
L 279.16072 171.335234 
L 280.058082 170.468093 
L 281.402053 169.615871 
L 282.298088 169.119621 
L 283.193958 168.29925 
L 284.092646 167.605579 
L 284.980558 167.294175 
L 285.872242 167.119425 
L 286.384251 166.868222 
L 286.660957 166.403435 
L 286.508668 168.716322 
L 286.587973 166.270563 
L 286.507321 168.587022 
L 286.510367 174.469537 
L 286.509227 174.356903 
" clip-path="url(#p86dcaa45dc)" style="fill: none; stroke: #000000; stroke-width: 1.5; stroke-linecap: square"/>
   </g>
   <g id="line2d_26">
    <path d="M 69.219937 243.739239 
L 69.220006 243.799714 
L 69.221802 243.551449 
L 69.656568 243.584095 
L 70.101785 242.29251 
L 70.546985 241.722346 
L 70.985636 241.579598 
L 71.450812 242.22029 
L 71.885816 245.248108 
L 72.341045 245.089117 
L 72.800916 244.796495 
L 73.254653 245.035926 
L 73.721487 244.437791 
L 74.162625 244.769371 
L 74.615699 244.383912 
L 75.058826 243.775812 
L 76.411749 242.685359 
L 76.873444 242.960556 
L 77.319058 243.691969 
L 77.780918 244.107198 
L 79.129613 244.710917 
L 80.02225 242.551157 
L 80.46571 242.355707 
L 80.913893 242.637253 
L 81.82601 243.420129 
L 82.279912 243.482561 
L 82.721133 243.344539 
L 83.157776 243.01535 
L 83.611016 242.865893 
L 84.9462 242.734794 
L 85.83834 242.159957 
L 86.291745 242.235023 
L 86.737359 242.562635 
L 87.630742 242.878361 
L 88.07387 242.809678 
L 88.525866 242.475505 
L 88.967253 241.949732 
L 89.406816 241.844536 
L 90.735037 242.108014 
L 91.179741 242.036116 
L 92.071881 241.654523 
L 92.962777 241.742402 
L 93.406899 241.804989 
L 93.861771 241.735116 
L 94.761288 241.454625 
L 95.667602 241.182549 
L 96.543247 241.203471 
L 99.239642 240.407324 
L 101.016545 240.136181 
L 101.904457 239.809507 
L 104.114872 239.618477 
L 105.008685 239.352652 
L 105.918149 239.402087 
L 107.273226 238.943594 
L 110.82786 238.32058 
L 111.715026 238.699114 
L 112.150362 238.802795 
L 112.813634 237.856594 
L 112.793341 237.977405 
L 112.756139 237.398308 
L 112.677586 237.864333 
L 112.677928 238.319663 
L 112.678171 237.374303 
L 112.678068 237.439156 
" clip-path="url(#p86dcaa45dc)" style="fill: none; stroke: #000000; stroke-width: 1.5; stroke-linecap: square"/>
   </g>
   <g id="line2d_27">
    <path d="M 69.219601 242.573488 
L 69.221247 242.429141 
L 69.662313 236.63532 
L 70.113066 234.323977 
L 70.561333 234.736666 
L 71.504284 236.408306 
L 72.012894 236.940499 
L 72.466465 237.218729 
L 72.944572 245.53699 
L 73.445224 245.374604 
L 74.514168 244.347307 
L 74.965749 243.815008 
L 75.431257 243.484291 
L 76.890775 242.948712 
L 77.392091 242.788998 
L 77.896059 242.754007 
L 78.398701 242.90187 
L 79.874134 243.787363 
L 80.342958 243.947942 
L 80.799182 243.702868 
L 81.24347 243.201714 
L 83.263321 240.197616 
L 84.309719 239.394812 
L 85.36341 239.015843 
L 86.95953 238.66749 
L 88.567587 238.489857 
L 90.719606 237.988886 
L 92.883354 237.596513 
L 94.297117 237.398528 
L 101.294981 235.831296 
L 102.175599 235.694896 
L 104.374492 235.136108 
L 106.571396 234.491889 
L 113.138897 232.722614 
L 114.117657 232.450168 
L 116.181274 231.765738 
L 118.888777 230.968577 
L 121.591638 230.009444 
L 128.054367 228.122218 
L 129.652477 227.425514 
L 133.369906 226.043392 
L 136.023696 224.710087 
L 139.78489 223.570499 
L 141.408199 223.095306 
L 147.897701 220.444131 
L 151.152275 218.977919 
L 152.45994 218.454473 
L 154.207914 217.81364 
L 156.392881 216.841809 
L 162.930543 213.877076 
L 164.677853 212.946302 
L 167.751396 211.847489 
L 172.994655 209.301089 
L 179.197443 205.813051 
L 181.830677 204.636215 
L 183.589261 203.822123 
L 189.292722 200.909452 
L 191.489626 199.793991 
L 194.575768 198.034593 
L 196.344299 197.192847 
L 197.667878 196.601678 
L 198.546507 196.240204 
L 199.421012 195.717526 
L 201.483966 194.304364 
L 203.105285 193.3568 
L 205.255107 192.253755 
L 206.85587 191.301677 
L 208.45199 190.335772 
L 210.576614 189.075834 
L 212.169419 188.201073 
L 214.294043 186.809074 
L 215.360996 186.11632 
L 217.504187 184.901814 
L 221.821736 182.191184 
L 226.391269 179.561822 
L 228.555017 177.98697 
L 232.338094 175.623705 
L 233.414995 174.764747 
L 235.569459 173.338604 
L 236.648349 172.551602 
L 237.731217 171.843892 
L 240.557418 170.037088 
L 244.476434 167.4794 
L 248.708441 164.159824 
L 250.229629 163.06609 
L 251.535968 162.040081 
L 255.471582 159.227919 
L 258.104816 157.456105 
L 262.245313 154.278748 
L 264.530411 152.248738 
L 272.01235 146.368652 
L 275.096502 144.046303 
L 277.715148 141.834569 
L 279.455164 140.118909 
L 280.764819 139.037028 
L 282.949123 137.240664 
L 288.623407 132.490995 
L 290.250031 131.214973 
L 291.330247 130.20928 
L 292.94825 128.623988 
L 294.568906 127.21139 
L 296.733317 125.225965 
L 298.358614 123.799259 
L 301.067444 121.316067 
L 303.223897 119.44295 
L 309.663583 113.076622 
L 311.284239 111.623955 
L 313.993068 109.002494 
L 316.701234 106.533976 
L 328.321017 94.744457 
L 332.121998 90.929371 
L 338.963367 83.273239 
L 340.278326 81.857255 
L 341.595938 80.508994 
L 345.972504 75.766098 
L 346.951263 74.765484 
L 351.270801 69.507889 
L 355.061173 64.921321 
L 356.801852 62.865915 
L 358.547837 60.749583 
L 361.180408 57.42894 
L 369.318935 47.066358 
L 370.260228 46.428392 
L 371.182954 46.047271 
L 371.619616 46.169879 
L 372.530406 47.441033 
L 372.976269 46.118354 
L 373.32942 44.64 
L 373.524065 46.345271 
L 373.426069 64.511083 
L 373.42439 91.868134 
L 373.425758 91.783215 
" clip-path="url(#p86dcaa45dc)" style="fill: none; stroke: #ff0000; stroke-width: 1.5; stroke-linecap: square"/>
   </g>
   <g id="line2d_28">
    <path d="M 69.219083 243.54738 
L 70.124335 237.489816 
L 71.076569 237.323497 
L 72.499616 235.396201 
L 72.988333 243.061354 
L 74.461114 242.28968 
L 75.491596 241.978716 
L 76.036677 241.935825 
L 77.170606 242.435285 
L 78.491533 242.009756 
L 79.827049 241.736615 
L 80.711646 242.629435 
L 81.149302 242.930804 
L 81.726213 242.976606 
L 82.862131 242.334644 
L 83.424453 242.341099 
L 85.074949 243.093675 
L 86.648524 243.915598 
L 87.14984 243.833497 
L 87.638556 243.553009 
L 88.587475 242.581742 
L 90.410381 240.301156 
L 91.313545 239.639442 
L 92.219362 239.510029 
L 94.026353 239.522639 
L 94.922886 239.44787 
L 98.912856 238.568665 
L 103.745646 237.452145 
L 105.061931 237.086298 
L 107.697817 236.513188 
L 109.893395 236.083074 
L 111.207691 235.808794 
L 112.955665 235.322032 
L 115.347524 234.849379 
L 118.055027 234.187524 
L 119.13657 234.010244 
L 121.836778 233.259925 
L 123.453642 232.874786 
L 125.070319 232.474936 
L 128.829524 231.717174 
L 130.424318 231.249389 
L 132.542974 230.637621 
L 134.129148 229.95305 
L 139.455959 228.074572 
L 145.400131 226.481519 
L 148.097025 225.298899 
L 149.720333 224.596974 
L 151.784613 223.760025 
L 153.092941 223.161802 
L 155.72087 222.436315 
L 159.224107 221.240714 
L 160.096105 220.975464 
L 162.275104 219.905999 
L 164.022415 219.293666 
L 166.650344 218.136724 
L 172.785494 215.936842 
L 176.262875 214.045948 
L 180.637845 212.170232 
L 181.516474 211.913165 
L 189.852506 208.044747 
L 193.813298 205.939959 
L 196.020812 205.027666 
L 202.567094 201.874859 
L 209.511245 198.097867 
L 212.167025 196.760894 
L 216.434177 194.412867 
L 218.046875 193.685969 
L 221.829953 191.487497 
L 224.221149 190.298951 
L 225.199909 189.892893 
L 227.365646 188.577083 
L 228.445199 187.869374 
L 235.454522 183.778972 
L 236.534075 183.063925 
L 242.841635 179.333494 
L 244.58562 178.318207 
L 248.505299 175.504581 
L 255.054234 171.227 
L 256.36654 170.432661 
L 257.67951 169.746115 
L 262.903539 166.095541 
L 265.191289 164.397376 
L 267.384214 162.920723 
L 268.706467 162.035522 
L 270.917296 160.74144 
L 275.767327 157.342853 
L 277.517954 156.060623 
L 279.697616 154.355122 
L 282.314935 152.318622 
L 283.625253 151.448658 
L 285.811546 149.751058 
L 287.996949 148.267104 
L 294.809804 142.92683 
L 298.590892 139.877583 
L 309.899673 130.732382 
L 323.396738 118.877397 
L 325.021372 117.318066 
L 328.069054 114.78521 
L 330.240759 112.723032 
L 331.866719 111.195869 
L 333.493343 109.553011 
L 336.207477 106.990244 
L 338.822807 104.323635 
L 342.778439 100.612585 
L 343.657731 99.872707 
L 350.39698 92.866719 
L 359.308597 83.177499 
L 360.624882 81.689303 
L 362.384792 79.80952 
L 365.742812 76.099899 
L 369.129346 72.687485 
L 370.091196 72.056599 
L 371.492029 71.38911 
L 371.968146 71.313344 
L 372.416412 71.888711 
L 372.869404 72.206941 
L 373.329896 70.47502 
L 373.533639 71.918039 
L 373.425261 89.514763 
L 373.425882 101.898466 
L 373.425882 101.898466 
" clip-path="url(#p86dcaa45dc)" style="fill: none; stroke: #ff0000; stroke-width: 1.5; stroke-linecap: square"/>
   </g>
   <g id="line2d_29">
    <path d="M 69.658969 241.547288 
L 70.094305 238.331555 
L 70.551855 238.117133 
L 71.02101 238.481287 
L 71.500442 238.012161 
L 72.488486 236.402601 
L 72.970571 243.916505 
L 73.949993 243.320962 
L 74.931405 242.952434 
L 75.45593 242.85875 
L 75.999022 242.916879 
L 77.131436 243.664579 
L 78.449711 243.556221 
L 79.77528 243.434328 
L 80.649929 244.187187 
L 81.225514 244.348171 
L 81.795131 244.184012 
L 82.920439 243.457961 
L 83.479445 243.358139 
L 84.035137 243.607446 
L 85.132594 244.437058 
L 86.199548 245.482821 
L 86.715452 245.772621 
L 87.21942 245.786236 
L 87.710126 245.549768 
L 88.661034 244.630987 
L 90.936849 241.617859 
L 91.389757 241.273316 
L 91.845318 241.103867 
L 92.761081 241.192577 
L 94.134395 241.648582 
L 95.041537 241.654014 
L 98.156194 240.923447 
L 101.232389 240.079515 
L 104.746904 239.591589 
L 109.129438 238.554997 
L 111.323026 238.35796 
L 113.612103 237.849823 
L 116.320932 237.18832 
L 119.565559 236.548193 
L 121.724665 236.119242 
L 122.802892 235.830995 
L 124.420232 235.413649 
L 126.038235 235.163178 
L 129.78683 234.48284 
L 132.436642 233.685256 
L 134.022002 233.138282 
L 138.27125 231.757853 
L 142.581505 230.638088 
L 144.20415 230.242188 
L 145.284366 229.924029 
L 146.904358 229.386898 
L 148.525014 228.796152 
L 152.330637 227.63653 
L 154.08259 227.222712 
L 156.71184 226.463786 
L 159.33778 225.728423 
L 165.878757 223.037686 
L 167.196368 222.68369 
L 169.391283 221.890339 
L 174.846739 219.613562 
L 179.317467 217.702915 
L 181.072735 217.184549 
L 184.587914 215.705639 
L 191.612675 212.410043 
L 192.493293 212.005114 
L 196.464696 210.563169 
L 198.219964 209.77137 
L 200.507714 208.688359 
L 204.286813 206.760217 
L 205.359735 206.301109 
L 207.496295 205.127236 
L 213.872156 202.125114 
L 217.068375 200.312101 
L 220.850789 198.567941 
L 221.721461 198.119273 
L 223.027136 197.568456 
L 224.767816 196.582798 
L 226.180916 195.955228 
L 228.884441 194.459669 
L 233.731156 191.515111 
L 235.349159 190.670544 
L 237.507602 189.298862 
L 240.876232 187.462993 
L 243.49181 186.121717 
L 251.355041 181.300656 
L 252.665358 180.537357 
L 255.722986 178.512144 
L 260.090269 175.920877 
L 266.521168 171.461854 
L 270.486602 168.937746 
L 272.253144 167.822849 
L 274.015706 166.692997 
L 276.211947 165.152007 
L 277.08726 164.515125 
L 278.832581 163.0111 
L 280.142899 162.022903 
L 284.95248 158.679906 
L 290.167224 155.055292 
L 292.327657 153.432752 
L 295.566979 150.789845 
L 297.190908 149.452325 
L 298.817532 148.347023 
L 299.901727 147.511767 
L 302.058844 145.920549 
L 303.665574 144.583576 
L 306.339921 142.296217 
L 307.948641 141.054057 
L 310.63625 138.770649 
L 314.962419 135.109634 
L 317.124841 133.400182 
L 318.736876 131.843108 
L 321.972882 128.696791 
L 327.519185 123.86924 
L 328.825524 122.623129 
L 331.323482 120.499435 
L 336.528943 115.267237 
L 340.030196 111.789639 
L 342.235057 109.716174 
L 343.994967 108.170951 
L 345.744931 106.417479 
L 347.486273 104.796632 
L 350.194439 101.99006 
L 353.979858 98.0804 
L 355.06339 96.932488 
L 356.69134 95.236016 
L 358.434672 93.274302 
L 361.938577 89.526807 
L 363.691193 87.523675 
L 365.203761 85.960252 
L 367.758747 83.348386 
L 369.121451 82.03314 
L 370.081643 81.260952 
L 371.030894 80.798609 
L 371.48546 80.638753 
L 371.962903 80.68884 
L 372.847003 81.695027 
L 373.33145 79.801223 
L 373.537161 81.129518 
L 373.425406 101.088783 
L 373.425551 100.953486 
L 373.425882 106.467363 
L 373.425095 106.262958 
" clip-path="url(#p86dcaa45dc)" style="fill: none; stroke: #ff0000; stroke-width: 1.5; stroke-linecap: square"/>
   </g>
   <g id="line2d_30">
    <path d="M 69.235144 242.909629 
L 69.672847 240.794519 
L 70.140841 237.76446 
L 70.601873 236.553393 
L 71.082301 236.758538 
L 71.57798 236.781686 
L 72.057413 236.450405 
L 72.495732 235.950381 
L 72.971626 243.443301 
L 73.933807 241.985837 
L 74.406609 241.456942 
L 74.905272 241.105062 
L 75.428471 240.935189 
L 75.974879 241.037339 
L 77.12008 242.098903 
L 77.562378 242.107933 
L 78.009319 241.998447 
L 79.362739 242.123735 
L 79.813658 242.105121 
L 80.71019 242.729305 
L 81.59545 243.598986 
L 82.03178 243.838558 
L 82.606702 243.812897 
L 83.737978 243.415304 
L 84.295658 243.305959 
L 84.848697 243.362431 
L 85.396431 243.58366 
L 86.473332 244.394648 
L 87.509782 245.258404 
L 88.009108 245.369936 
L 88.495836 245.223061 
L 88.969964 244.81277 
L 89.888379 243.482569 
L 91.226548 241.288895 
L 91.671499 240.85095 
L 92.117776 240.646369 
L 93.014972 240.659458 
L 94.363087 240.799376 
L 97.03014 240.361854 
L 98.348414 239.997982 
L 101.617577 239.466882 
L 102.699119 239.322458 
L 106.465618 238.216168 
L 110.746696 237.20321 
L 112.871983 236.473631 
L 113.932968 236.124996 
L 116.586759 235.497708 
L 118.18089 234.896945 
L 119.783641 234.312266 
L 122.479871 233.536974 
L 124.105832 233.332181 
L 128.411445 231.82209 
L 130.017512 231.250532 
L 133.229682 229.88028 
L 134.84437 229.094124 
L 140.699685 227.065244 
L 142.324319 226.438238 
L 147.113344 224.467345 
L 147.991972 224.150174 
L 150.19617 223.043742 
L 152.847308 222.100835 
L 159.60314 218.587682 
L 163.955834 216.354503 
L 165.711765 215.579916 
L 169.6646 213.401197 
L 170.543892 212.916128 
L 171.42451 212.522204 
L 174.945657 210.483447 
L 176.708219 209.578492 
L 178.91308 208.330689 
L 181.995907 206.808322 
L 184.185516 205.488847 
L 185.058187 205.054478 
L 188.313424 203.021082 
L 189.394303 202.486349 
L 194.229746 199.2376 
L 202.838982 194.030516 
L 204.438418 192.878936 
L 206.033212 191.760653 
L 208.696286 189.782 
L 213.006541 186.846472 
L 214.633164 185.986103 
L 217.334699 183.982054 
L 220.371108 181.720092 
L 221.678773 180.843356 
L 223.864403 179.276687 
L 226.933967 177.34008 
L 229.115619 175.882051 
L 230.739591 174.621266 
L 232.359583 173.254947 
L 236.913201 169.568535 
L 238.227497 168.560021 
L 241.30563 166.443478 
L 243.054941 165.059663 
L 247.730572 161.035764 
L 252.552752 157.322263 
L 257.382227 153.599168 
L 260.004851 151.143629 
L 262.640737 148.797013 
L 272.015209 141.089267 
L 275.220712 137.744426 
L 276.278383 136.478845 
L 277.847315 135.197109 
L 278.867851 134.29808 
L 280.796855 132.205427 
L 285.503653 128.598671 
L 286.425716 128.523417 
L 286.623387 129.385039 
L 286.510471 138.992822 
L 286.510015 138.887119 
L 286.508585 148.392471 
L 286.508585 148.392471 
" clip-path="url(#p86dcaa45dc)" style="fill: none; stroke: #ff0000; stroke-width: 1.5; stroke-linecap: square"/>
   </g>
   <g id="line2d_31">
    <path d="M 69.219635 242.529982 
L 69.220761 242.740513 
L 69.220739 242.560812 
L 69.672255 240.437086 
L 70.135028 237.25465 
L 70.596556 236.152663 
L 71.07831 236.406625 
L 71.574984 236.479053 
L 72.054749 236.28971 
L 72.492074 235.846686 
L 72.967528 243.360026 
L 74.392564 241.094607 
L 74.888575 240.613418 
L 75.409785 240.367356 
L 75.954203 240.365098 
L 76.954182 240.887133 
L 78.75189 241.220107 
L 79.661022 241.520357 
L 81.89108 243.332523 
L 82.466002 243.278503 
L 84.152969 242.488678 
L 84.704682 242.357041 
L 85.251753 242.375069 
L 85.793519 242.550022 
L 86.856494 243.348029 
L 87.374387 243.784281 
L 87.879682 244.054328 
L 88.37304 244.129353 
L 88.853799 243.919834 
L 89.322622 243.464394 
L 90.233081 242.05744 
L 91.122982 240.581069 
L 92.008905 239.651001 
L 92.454519 239.446137 
L 93.797993 239.321217 
L 95.144781 239.424451 
L 96.483613 239.404232 
L 97.809845 239.129953 
L 99.125467 238.732219 
L 102.494097 238.028177 
L 105.724798 237.218318 
L 107.336834 236.761537 
L 110.544326 236.278891 
L 112.135805 235.737809 
L 114.253797 235.081315 
L 115.313457 234.915746 
L 119.03072 233.717015 
L 120.640766 233.135581 
L 122.263411 232.778411 
L 124.97224 232.414362 
L 126.050467 231.995464 
L 130.342154 230.762052 
L 133.016501 229.836357 
L 134.627873 229.141346 
L 136.249192 228.641603 
L 138.416918 228.145176 
L 145.911456 225.844979 
L 148.107697 225.046971 
L 153.839672 222.870227 
L 156.463627 221.917585 
L 157.984816 221.324582 
L 162.106745 219.429737 
L 166.048307 217.931356 
L 167.80026 217.051234 
L 174.401145 214.165277 
L 175.285079 213.881262 
L 181.023685 211.133243 
L 184.092587 209.654897 
L 186.154215 208.312281 
L 188.863707 206.953862 
L 189.943923 206.492214 
L 192.630206 204.936266 
L 193.705117 204.276245 
L 199.618786 201.223894 
L 200.689719 200.546378 
L 203.895885 198.894208 
L 209.235959 195.416893 
L 216.259021 191.538316 
L 217.876361 190.53347 
L 222.758222 187.402391 
L 227.14805 185.030942 
L 230.956212 182.610685 
L 233.657084 180.734465 
L 235.718712 179.221411 
L 237.468012 178.143479 
L 241.422836 175.785576 
L 244.040829 173.869003 
L 246.104446 172.346919 
L 247.625634 171.220453 
L 249.370956 169.921856 
L 252.445825 167.896648 
L 255.526662 165.927026 
L 256.839632 164.841194 
L 258.588269 163.391348 
L 259.899913 162.367596 
L 261.655181 160.954998 
L 262.977435 159.985424 
L 266.966078 157.298216 
L 269.614563 155.598358 
L 272.010402 153.740786 
L 276.280869 149.942481 
L 277.846486 148.805786 
L 279.847771 147.285536 
L 281.23302 146.056497 
L 282.702278 145.003707 
L 283.663796 144.214164 
L 285.512398 143.115503 
L 285.96083 143.11127 
L 286.417344 142.923558 
L 286.621626 143.717007 
L 286.509725 155.544355 
L 286.509476 155.328778 
L 286.509435 160.098976 
L 286.509663 159.881264 
" clip-path="url(#p86dcaa45dc)" style="fill: none; stroke: #ff0000; stroke-width: 1.5; stroke-linecap: square"/>
   </g>
   <g id="line2d_32">
    <path d="M 69.220048 243.054496 
L 69.219527 243.033535 
L 69.220242 243.255424 
L 69.527237 238.629836 
L 70.001727 234.945577 
L 70.487128 235.090759 
L 71.431737 236.648962 
L 72.407181 237.786716 
L 72.893245 246.24 
L 73.403844 246.209948 
L 73.935 245.921418 
L 75.292399 244.436159 
L 75.769179 244.170908 
L 76.751254 243.81141 
L 77.253233 243.524714 
L 77.759191 243.525843 
L 78.767127 244.020224 
L 80.222004 245.267191 
L 80.680217 245.258514 
L 81.125831 244.896476 
L 82.711342 242.781247 
L 83.730551 241.597781 
L 84.744456 240.892893 
L 85.764328 240.399076 
L 87.314031 240.036191 
L 88.883626 239.809671 
L 92.051332 239.408127 
L 93.642147 238.941118 
L 95.242247 238.474109 
L 97.935161 237.911722 
L 99.558469 237.841997 
L 102.785855 237.221199 
L 103.854135 236.907978 
L 105.45556 236.231167 
L 107.59411 235.638587 
L 109.741943 234.877122 
L 111.360609 234.471769 
L 112.985904 234.091918 
L 114.070762 233.889453 
L 116.782243 233.154302 
L 122.011577 231.351307 
L 130.38306 229.015901 
L 132.233154 228.30283 
L 133.856462 227.463623 
L 135.477781 226.696938 
L 137.43331 225.81992 
L 140.937878 224.625589 
L 143.571775 223.58547 
L 144.892703 223.031831 
L 146.216945 222.489762 
L 148.865431 221.338746 
L 153.275153 219.361222 
L 154.156434 218.993258 
L 155.478025 218.344524 
L 157.233961 217.68803 
L 167.214521 212.748453 
L 168.825893 211.795246 
L 175.262761 208.701979 
L 176.864849 207.729301 
L 180.063006 205.886744 
L 181.665095 204.833927 
L 185.966729 202.325621 
L 189.749806 200.346122 
L 191.908912 198.946787 
L 193.529568 197.985678 
L 196.131635 196.215558 
L 197.442616 195.511234 
L 200.078502 194.069572 
L 202.273416 193.040458 
L 207.370126 189.781833 
L 211.381316 186.756853 
L 212.698927 185.957999 
L 214.460827 185.107224 
L 216.657067 183.657096 
L 222.316763 179.649845 
L 223.40361 178.84309 
L 224.710612 177.797892 
L 226.023582 176.978438 
L 228.66212 175.463127 
L 230.855708 174.116277 
L 232.603693 172.725192 
L 234.789323 171.030977 
L 236.984901 169.290485 
L 240.075022 166.936528 
L 243.621366 164.560565 
L 245.817607 162.997847 
L 250.017121 159.753895 
L 259.576602 151.686907 
L 262.269517 149.636863 
L 263.890172 148.464965 
L 265.508176 147.104289 
L 266.587065 146.251538 
L 269.830366 143.345639 
L 271.786559 141.611363 
L 273.528565 139.885223 
L 275.273886 138.409606 
L 276.251982 137.506063 
L 277.327557 136.798988 
L 278.382574 136.0268 
L 280.37789 134.235374 
L 281.294317 133.33169 
L 283.259793 131.739661 
L 284.622787 130.560666 
L 285.533245 129.754475 
L 285.97546 129.604355 
L 286.423105 129.804703 
L 286.610373 130.723916 
L 286.509373 145.944675 
L 286.511134 146.913411 
L 286.509145 145.856 
L 286.509497 146.796289 
" clip-path="url(#p86dcaa45dc)" style="fill: none; stroke: #ff0000; stroke-width: 1.5; stroke-linecap: square"/>
   </g>
   <g id="line2d_33">
    <path d="M 69.219491 243.386158 
L 69.219524 243.464643 
L 70.131585 238.019602 
L 70.593943 237.422877 
L 71.071055 237.364828 
L 71.564745 236.725406 
L 72.497749 235.282897 
L 72.993097 243.211078 
L 73.991087 243.090939 
L 75.505644 242.787312 
L 76.048073 242.781104 
L 77.176696 243.185752 
L 77.75626 243.131573 
L 78.195242 242.803114 
L 79.525896 242.380513 
L 79.970184 242.418899 
L 81.291112 243.936468 
L 81.86736 244.207221 
L 83.553664 243.942164 
L 84.10405 244.194999 
L 85.178961 245.128453 
L 85.701497 245.609854 
L 86.21077 245.821489 
L 86.705455 245.759515 
L 87.18754 245.453067 
L 88.117892 244.473335 
L 89.895043 241.979984 
L 90.771019 241.302468 
L 91.649647 241.141783 
L 92.526286 241.021557 
L 94.274923 240.639625 
L 96.019582 240.371624 
L 99.495636 239.602187 
L 101.122923 239.43309 
L 103.809206 238.759101 
L 109.120103 237.10933 
L 111.261968 236.592515 
L 112.338205 236.352238 
L 114.497311 235.973269 
L 117.747906 235.154522 
L 120.468008 234.415772 
L 124.415538 233.180807 
L 126.62703 232.799122 
L 131.904771 231.209033 
L 132.776769 230.93433 
L 136.360714 229.248082 
L 142.485255 227.152747 
L 144.240523 226.419359 
L 145.56145 225.927377 
L 149.5302 224.178277 
L 151.737713 223.249338 
L 156.579787 221.251779 
L 157.892093 220.757116 
L 160.177855 219.795443 
L 162.346244 218.562595 
L 169.382569 215.499803 
L 170.99792 214.590898 
L 174.75182 212.992767 
L 177.410252 211.549976 
L 178.999741 210.494337 
L 180.592546 209.508397 
L 182.195298 208.605982 
L 184.343794 207.469922 
L 185.96246 206.613785 
L 187.043339 206.03475 
L 188.665321 205.117664 
L 192.988848 202.706988 
L 195.15127 201.184904 
L 196.895928 200.224925 
L 198.21354 199.644197 
L 200.412433 198.655153 
L 202.600716 197.452498 
L 205.528373 195.667421 
L 211.696679 191.215453 
L 214.776853 189.519828 
L 218.28739 187.424917 
L 220.571161 185.741425 
L 224.498798 182.830729 
L 227.582288 181.076128 
L 231.094814 178.888944 
L 232.405131 177.84431 
L 233.714122 176.899569 
L 235.021787 175.949748 
L 237.647064 173.683271 
L 241.192745 171.332422 
L 247.021681 167.343486 
L 249.712606 165.317991 
L 257.134201 159.01802 
L 265.171168 152.853778 
L 266.789834 151.480404 
L 267.869387 150.669416 
L 269.492695 149.133787 
L 271.556975 147.380322 
L 273.299644 145.725292 
L 278.666243 141.38575 
L 280.152286 140.039606 
L 281.076007 139.134652 
L 283.903865 136.841131 
L 285.302543 135.941785 
L 285.745256 136.188693 
L 286.183534 136.094657 
L 286.426897 135.670556 
L 286.625853 136.540318 
L 286.50987 142.296226 
L 286.5096 151.136549 
L 286.508937 150.898009 
" clip-path="url(#p86dcaa45dc)" style="fill: none; stroke: #ff0000; stroke-width: 1.5; stroke-linecap: square"/>
   </g>
   <g id="patch_3">
    <path d="M 54 256.32 
L 54 34.56 
" style="fill: none; stroke: #000000; stroke-width: 0.8; stroke-linejoin: miter; stroke-linecap: square"/>
   </g>
   <g id="patch_4">
    <path d="M 388.8 256.32 
L 388.8 34.56 
" style="fill: none; stroke: #000000; stroke-width: 0.8; stroke-linejoin: miter; stroke-linecap: square"/>
   </g>
   <g id="patch_5">
    <path d="M 54 256.32 
L 388.8 256.32 
" style="fill: none; stroke: #000000; stroke-width: 0.8; stroke-linejoin: miter; stroke-linecap: square"/>
   </g>
   <g id="patch_6">
    <path d="M 54 34.56 
L 388.8 34.56 
" style="fill: none; stroke: #000000; stroke-width: 0.8; stroke-linejoin: miter; stroke-linecap: square"/>
   </g>
   <g id="text_17">
    <!-- 2025-06-20 all trials -->
    <g transform="translate(160.75125 28.56) scale(0.12 -0.12)">
     <defs>
      <path id="DejaVuSans-2d" d="M 313 2009 
L 1997 2009 
L 1997 1497 
L 313 1497 
L 313 2009 
z
" transform="scale(0.015625)"/>
      <path id="DejaVuSans-6c" d="M 603 4863 
L 1178 4863 
L 1178 0 
L 603 0 
L 603 4863 
z
" transform="scale(0.015625)"/>
     </defs>
     <use xlink:href="#DejaVuSans-32"/>
     <use xlink:href="#DejaVuSans-30" x="63.623047"/>
     <use xlink:href="#DejaVuSans-32" x="127.246094"/>
     <use xlink:href="#DejaVuSans-35" x="190.869141"/>
     <use xlink:href="#DejaVuSans-2d" x="254.492188"/>
     <use xlink:href="#DejaVuSans-30" x="290.576172"/>
     <use xlink:href="#DejaVuSans-36" x="354.199219"/>
     <use xlink:href="#DejaVuSans-2d" x="417.822266"/>
     <use xlink:href="#DejaVuSans-32" x="453.90625"/>
     <use xlink:href="#DejaVuSans-30" x="517.529297"/>
     <use xlink:href="#DejaVuSans-20" x="581.152344"/>
     <use xlink:href="#DejaVuSans-61" x="612.939453"/>
     <use xlink:href="#DejaVuSans-6c" x="674.21875"/>
     <use xlink:href="#DejaVuSans-6c" x="702.001953"/>
     <use xlink:href="#DejaVuSans-20" x="729.785156"/>
     <use xlink:href="#DejaVuSans-74" x="761.572266"/>
     <use xlink:href="#DejaVuSans-72" x="800.78125"/>
     <use xlink:href="#DejaVuSans-69" x="841.894531"/>
     <use xlink:href="#DejaVuSans-61" x="869.677734"/>
     <use xlink:href="#DejaVuSans-6c" x="930.957031"/>
     <use xlink:href="#DejaVuSans-73" x="958.740234"/>
    </g>
   </g>
   <g id="legend_1">
    <g id="patch_7">
     <path d="M 61 71.91625 
L 130.6 71.91625 
Q 132.6 71.91625 132.6 69.91625 
L 132.6 41.56 
Q 132.6 39.56 130.6 39.56 
L 61 39.56 
Q 59 39.56 59 41.56 
L 59 69.91625 
Q 59 71.91625 61 71.91625 
z
" style="fill: #ffffff; opacity: 0.8; stroke: #cccccc; stroke-linejoin: miter"/>
    </g>
    <g id="line2d_34">
     <path d="M 63 47.658437 
L 73 47.658437 
L 83 47.658437 
" style="fill: none; stroke: #000000; stroke-width: 1.5; stroke-linecap: square"/>
    </g>
    <g id="text_18">
     <!-- 1 mm/s -->
     <g transform="translate(91 51.158437) scale(0.1 -0.1)">
      <defs>
       <path id="DejaVuSans-2f" d="M 1625 4666 
L 2156 4666 
L 531 -594 
L 0 -594 
L 1625 4666 
z
" transform="scale(0.015625)"/>
      </defs>
      <use xlink:href="#DejaVuSans-31"/>
      <use xlink:href="#DejaVuSans-20" x="63.623047"/>
      <use xlink:href="#DejaVuSans-6d" x="95.410156"/>
      <use xlink:href="#DejaVuSans-6d" x="192.822266"/>
      <use xlink:href="#DejaVuSans-2f" x="290.234375"/>
      <use xlink:href="#DejaVuSans-73" x="323.925781"/>
     </g>
    </g>
    <g id="line2d_35">
     <path d="M 63 62.336562 
L 73 62.336562 
L 83 62.336562 
" style="fill: none; stroke: #ff0000; stroke-width: 1.5; stroke-linecap: square"/>
    </g>
    <g id="text_19">
     <!-- 5 mm/s -->
     <g transform="translate(91 65.836562) scale(0.1 -0.1)">
      <use xlink:href="#DejaVuSans-35"/>
      <use xlink:href="#DejaVuSans-20" x="63.623047"/>
      <use xlink:href="#DejaVuSans-6d" x="95.410156"/>
      <use xlink:href="#DejaVuSans-6d" x="192.822266"/>
      <use xlink:href="#DejaVuSans-2f" x="290.234375"/>
      <use xlink:href="#DejaVuSans-73" x="323.925781"/>
     </g>
    </g>
   </g>
  </g>
 </g>
 <defs>
  <clipPath id="p86dcaa45dc">
   <rect x="54" y="34.56" width="334.8" height="221.76"/>
  </clipPath>
 </defs>
</svg>
