<?xml version="1.0" encoding="utf-8" standalone="no"?>
<!DOCTYPE svg PUBLIC "-//W3C//DTD SVG 1.1//EN"
  "http://www.w3.org/Graphics/SVG/1.1/DTD/svg11.dtd">
<svg xmlns:xlink="http://www.w3.org/1999/xlink" width="460.8pt" height="345.6pt" viewBox="0 0 460.8 345.6" xmlns="http://www.w3.org/2000/svg" version="1.1">
 <metadata>
  <rdf:RDF xmlns:dc="http://purl.org/dc/elements/1.1/" xmlns:cc="http://creativecommons.org/ns#" xmlns:rdf="http://www.w3.org/1999/02/22-rdf-syntax-ns#">
   <cc:Work>
    <dc:type rdf:resource="http://purl.org/dc/dcmitype/StillImage"/>
    <dc:date>2025-07-28T16:35:33.773175</dc:date>
    <dc:format>image/svg+xml</dc:format>
    <dc:creator>
     <cc:Agent>
      <dc:title>Matplotlib v3.10.3, https://matplotlib.org/</dc:title>
     </cc:Agent>
    </dc:creator>
   </cc:Work>
  </rdf:RDF>
 </metadata>
 <defs>
  <style type="text/css">*{stroke-linejoin: round; stroke-linecap: butt}</style>
 </defs>
 <g id="figure_1">
  <g id="patch_1">
   <path d="M 0 345.6 
L 460.8 345.6 
L 460.8 0 
L 0 0 
z
" style="fill: #ffffff"/>
  </g>
  <g id="axes_1">
   <g id="patch_2">
    <path d="M 57.17 303.64 
L 450 303.64 
L 450 26.88 
L 57.17 26.88 
z
" style="fill: #ffffff"/>
   </g>
   <g id="FillBetweenPolyCollection_1">
    <defs>
     <path id="md0910764a8" d="M 75.026615 -54.975826 
L 75.026615 -54.707922 
L 75.750212 -54.838711 
L 76.473808 -55.150398 
L 77.197405 -55.341103 
L 77.921002 -54.989697 
L 78.644599 -54.582573 
L 79.368195 -54.63012 
L 80.091792 -54.795693 
L 80.815389 -54.907533 
L 81.538986 -55.076598 
L 82.262582 -55.161818 
L 82.986179 -55.357832 
L 83.709776 -55.59581 
L 84.433373 -55.764628 
L 85.156969 -55.900054 
L 85.880566 -56.038073 
L 86.604163 -56.144461 
L 87.32776 -56.185678 
L 88.051357 -56.394677 
L 88.774953 -56.587647 
L 89.49855 -56.755202 
L 90.222147 -56.909182 
L 90.945744 -57.126537 
L 91.66934 -57.365512 
L 92.392937 -57.620511 
L 93.116534 -57.851548 
L 93.840131 -58.046391 
L 94.563727 -58.23489 
L 95.287324 -58.424392 
L 96.010921 -58.635898 
L 96.734518 -58.861247 
L 97.458115 -59.097383 
L 98.181711 -59.325028 
L 98.905308 -59.552123 
L 99.628905 -59.781993 
L 100.352502 -60.013607 
L 101.076098 -60.261728 
L 101.799695 -60.516495 
L 102.523292 -60.759608 
L 103.246889 -60.992757 
L 103.970485 -61.227595 
L 104.694082 -61.46404 
L 105.417679 -61.707535 
L 106.141276 -61.968387 
L 106.864872 -62.221788 
L 107.588469 -62.466187 
L 108.312066 -62.714171 
L 109.035663 -62.968899 
L 109.75926 -63.22345 
L 110.482856 -63.486147 
L 111.206453 -63.75078 
L 111.93005 -64.013186 
L 112.653647 -64.276344 
L 113.377243 -64.544494 
L 114.10084 -64.807264 
L 114.824437 -65.063712 
L 115.548034 -65.330086 
L 116.27163 -65.601382 
L 116.995227 -65.876775 
L 117.718824 -66.157781 
L 118.442421 -66.440828 
L 119.166018 -66.708898 
L 119.889614 -66.972616 
L 120.613211 -67.24016 
L 121.336808 -67.52025 
L 122.060405 -67.812047 
L 122.784001 -68.10201 
L 123.507598 -68.376769 
L 124.231195 -68.649577 
L 124.954792 -68.916042 
L 125.678388 -69.189118 
L 126.401985 -69.470854 
L 127.125582 -69.762034 
L 127.849179 -70.05056 
L 128.572775 -70.33582 
L 129.296372 -70.619115 
L 130.019969 -70.906156 
L 130.743566 -71.20419 
L 131.467163 -71.504027 
L 132.190759 -71.800409 
L 132.914356 -72.085153 
L 133.637953 -72.369761 
L 134.36155 -72.657271 
L 135.085146 -72.952203 
L 135.808743 -73.253048 
L 136.53234 -73.559892 
L 137.255937 -73.87038 
L 137.979533 -74.17428 
L 138.70313 -74.470806 
L 139.426727 -74.767057 
L 140.150324 -75.076513 
L 140.87392 -75.378221 
L 141.597517 -75.678817 
L 142.321114 -75.986885 
L 143.044711 -76.286852 
L 143.768308 -76.569264 
L 144.491904 -76.852531 
L 145.215501 -77.152895 
L 145.939098 -77.460018 
L 146.662695 -76.037014 
L 146.662695 -81.747785 
L 146.662695 -81.747785 
L 145.939098 -81.824432 
L 145.215501 -81.51216 
L 144.491904 -81.210308 
L 143.768308 -80.901977 
L 143.044711 -80.584627 
L 142.321114 -80.251686 
L 141.597517 -79.913169 
L 140.87392 -79.5718 
L 140.150324 -79.238335 
L 139.426727 -78.920115 
L 138.70313 -78.598344 
L 137.979533 -78.273216 
L 137.255937 -77.943815 
L 136.53234 -77.607435 
L 135.808743 -77.277085 
L 135.085146 -76.952567 
L 134.36155 -76.634552 
L 133.637953 -76.324935 
L 132.914356 -76.013228 
L 132.190759 -75.696785 
L 131.467163 -75.377041 
L 130.743566 -75.045979 
L 130.019969 -74.715237 
L 129.296372 -74.392438 
L 128.572775 -74.073885 
L 127.849179 -73.75331 
L 127.125582 -73.440724 
L 126.401985 -73.120292 
L 125.678388 -72.790625 
L 124.954792 -72.463609 
L 124.231195 -72.154563 
L 123.507598 -71.846025 
L 122.784001 -71.531114 
L 122.060405 -71.212407 
L 121.336808 -70.89197 
L 120.613211 -70.56985 
L 119.889614 -70.250709 
L 119.166018 -69.945324 
L 118.442421 -69.642798 
L 117.718824 -69.335246 
L 116.995227 -69.02429 
L 116.27163 -68.717836 
L 115.548034 -68.41255 
L 114.824437 -68.109651 
L 114.10084 -67.808479 
L 113.377243 -67.505127 
L 112.653647 -67.205361 
L 111.93005 -66.897808 
L 111.206453 -66.588582 
L 110.482856 -66.284019 
L 109.75926 -65.983114 
L 109.035663 -65.679911 
L 108.312066 -65.386594 
L 107.588469 -65.094428 
L 106.864872 -64.800146 
L 106.141276 -64.498308 
L 105.417679 -64.200475 
L 104.694082 -63.897252 
L 103.970485 -63.603871 
L 103.246889 -63.322851 
L 102.523292 -63.041397 
L 101.799695 -62.756226 
L 101.076098 -62.478909 
L 100.352502 -62.194604 
L 99.628905 -61.909938 
L 98.905308 -61.64198 
L 98.181711 -61.376123 
L 97.458115 -61.09855 
L 96.734518 -60.820484 
L 96.010921 -60.54771 
L 95.287324 -60.276374 
L 94.563727 -60.022472 
L 93.840131 -59.792178 
L 93.116534 -59.577695 
L 92.392937 -59.345248 
L 91.66934 -59.047045 
L 90.945744 -58.703948 
L 90.222147 -58.38276 
L 89.49855 -58.10397 
L 88.774953 -57.853693 
L 88.051357 -57.684454 
L 87.32776 -57.580214 
L 86.604163 -57.4134 
L 85.880566 -57.228291 
L 85.156969 -57.01674 
L 84.433373 -56.804091 
L 83.709776 -56.542611 
L 82.986179 -56.193207 
L 82.262582 -55.904 
L 81.538986 -55.79315 
L 80.815389 -55.606087 
L 80.091792 -55.442198 
L 79.368195 -55.242915 
L 78.644599 -55.120462 
L 77.921002 -55.496355 
L 77.197405 -55.674231 
L 76.473808 -55.471323 
L 75.750212 -55.154106 
L 75.026615 -54.975826 
z
" style="stroke: #000000; stroke-opacity: 0.3"/>
    </defs>
    <g clip-path="url(#p32ebb587ab)">
     <use xlink:href="#md0910764a8" x="0" y="345.6" style="fill-opacity: 0.3; stroke: #000000; stroke-opacity: 0.3"/>
    </g>
   </g>
   <g id="FillBetweenPolyCollection_2">
    <defs>
     <path id="ma60b968e70" d="M 75.025909 -54.906317 
L 75.025909 -54.704486 
L 77.19096 -55.877494 
L 79.35601 -54.756784 
L 81.521061 -54.54 
L 83.686112 -55.022042 
L 85.851163 -55.252275 
L 88.016213 -55.542093 
L 90.181264 -56.188399 
L 92.346315 -56.938985 
L 94.511365 -57.506445 
L 96.676416 -58.160042 
L 98.841467 -59.016063 
L 101.006517 -60.140202 
L 103.171568 -60.920397 
L 105.336619 -61.622093 
L 107.501669 -62.330135 
L 109.66672 -63.084948 
L 111.831771 -63.863935 
L 113.996821 -64.75691 
L 116.161872 -65.638551 
L 118.326923 -66.489037 
L 120.491973 -67.346339 
L 122.657024 -68.21937 
L 124.822075 -69.080186 
L 126.987125 -69.954097 
L 129.152176 -70.863834 
L 131.317227 -71.741177 
L 133.482278 -72.635202 
L 135.647328 -73.539671 
L 137.812379 -74.460235 
L 139.97743 -75.394839 
L 142.14248 -76.358564 
L 144.307531 -77.325621 
L 146.472582 -78.291053 
L 148.637632 -79.251769 
L 150.802683 -80.213587 
L 152.967734 -81.170381 
L 155.132784 -82.163171 
L 157.297835 -83.160302 
L 159.462886 -84.171493 
L 161.627936 -85.179397 
L 163.792987 -86.192956 
L 165.958038 -87.192307 
L 168.123088 -88.235167 
L 170.288139 -89.273226 
L 172.45319 -90.311849 
L 174.618241 -91.37142 
L 176.783291 -92.416977 
L 178.948342 -93.469912 
L 181.113393 -94.527253 
L 183.278443 -95.597337 
L 185.443494 -96.694408 
L 187.608545 -97.800834 
L 189.773595 -98.89541 
L 191.938646 -100.008917 
L 194.103697 -101.15001 
L 196.268747 -102.278735 
L 198.433798 -103.415932 
L 200.598849 -104.5562 
L 202.763899 -105.722773 
L 204.92895 -106.846721 
L 207.094001 -107.998243 
L 209.259051 -109.145692 
L 211.424102 -110.3179 
L 213.589153 -111.470978 
L 215.754204 -112.660529 
L 217.919254 -113.827652 
L 220.084305 -115.009215 
L 222.249356 -116.167721 
L 224.414406 -117.355396 
L 226.579457 -118.539314 
L 228.744508 -119.745037 
L 230.909558 -120.983362 
L 233.074609 -122.224814 
L 235.23966 -123.470152 
L 237.40471 -124.727099 
L 239.569761 -125.962777 
L 241.734812 -127.201608 
L 243.899862 -128.469604 
L 246.064913 -129.744872 
L 248.229964 -131.024763 
L 250.395014 -132.318654 
L 252.560065 -133.607477 
L 254.725116 -134.939279 
L 256.890167 -136.257118 
L 259.055217 -137.573773 
L 261.220268 -138.921659 
L 263.385319 -140.253585 
L 265.550369 -141.558306 
L 267.71542 -142.899273 
L 269.880471 -144.237083 
L 272.045521 -145.57917 
L 274.210572 -146.964735 
L 276.375623 -148.359238 
L 278.540673 -149.767392 
L 280.705724 -151.203112 
L 282.870775 -152.607257 
L 285.035825 -154.00968 
L 287.200876 -155.406545 
L 289.365927 -142.609297 
L 289.365927 -160.013693 
L 289.365927 -160.013693 
L 287.200876 -159.202068 
L 285.035825 -158.092821 
L 282.870775 -156.787678 
L 280.705724 -155.377811 
L 278.540673 -153.955462 
L 276.375623 -152.470057 
L 274.210572 -151.007134 
L 272.045521 -149.607354 
L 269.880471 -148.242585 
L 267.71542 -146.894641 
L 265.550369 -145.549494 
L 263.385319 -144.24972 
L 261.220268 -142.951781 
L 259.055217 -141.646673 
L 256.890167 -140.348365 
L 254.725116 -139.079636 
L 252.560065 -137.788606 
L 250.395014 -136.51585 
L 248.229964 -135.264072 
L 246.064913 -133.985106 
L 243.899862 -132.704421 
L 241.734812 -131.460977 
L 239.569761 -130.208381 
L 237.40471 -128.95666 
L 235.23966 -127.739917 
L 233.074609 -126.511969 
L 230.909558 -125.285563 
L 228.744508 -124.072711 
L 226.579457 -122.859335 
L 224.414406 -121.652697 
L 222.249356 -120.446707 
L 220.084305 -119.263021 
L 217.919254 -118.079882 
L 215.754204 -116.923751 
L 213.589153 -115.772777 
L 211.424102 -114.632015 
L 209.259051 -113.479838 
L 207.094001 -112.343554 
L 204.92895 -111.207045 
L 202.763899 -110.094249 
L 200.598849 -108.951141 
L 198.433798 -107.832273 
L 196.268747 -106.707367 
L 194.103697 -105.577163 
L 191.938646 -104.438407 
L 189.773595 -103.333114 
L 187.608545 -102.216497 
L 185.443494 -101.120902 
L 183.278443 -100.026364 
L 181.113393 -98.952729 
L 178.948342 -97.855691 
L 176.783291 -96.752884 
L 174.618241 -95.653488 
L 172.45319 -94.573869 
L 170.288139 -93.489486 
L 168.123088 -92.427203 
L 165.958038 -91.384231 
L 163.792987 -90.340211 
L 161.627936 -89.297171 
L 159.462886 -88.245505 
L 157.297835 -87.217762 
L 155.132784 -86.182011 
L 152.967734 -85.117421 
L 150.802683 -84.070708 
L 148.637632 -83.049164 
L 146.472582 -82.008924 
L 144.307531 -80.996271 
L 142.14248 -80.000286 
L 139.97743 -78.995909 
L 137.812379 -77.997078 
L 135.647328 -76.998446 
L 133.482278 -75.99354 
L 131.317227 -75.018938 
L 129.152176 -74.035053 
L 126.987125 -73.052839 
L 124.822075 -72.083145 
L 122.657024 -71.120515 
L 120.491973 -70.163264 
L 118.326923 -69.230581 
L 116.161872 -68.306064 
L 113.996821 -67.390774 
L 111.831771 -66.486027 
L 109.66672 -65.508842 
L 107.501669 -64.53404 
L 105.336619 -63.766189 
L 103.171568 -63.097539 
L 101.006517 -62.254051 
L 98.841467 -61.170693 
L 96.676416 -60.134684 
L 94.511365 -59.530638 
L 92.346315 -58.768324 
L 90.181264 -57.582079 
L 88.016213 -56.469497 
L 85.851163 -56.071876 
L 83.686112 -55.77115 
L 81.521061 -55.120293 
L 79.35601 -56.869313 
L 77.19096 -56.228621 
L 75.025909 -54.906317 
z
" style="stroke: #ff0000; stroke-opacity: 0.3"/>
    </defs>
    <g clip-path="url(#p32ebb587ab)">
     <use xlink:href="#ma60b968e70" x="0" y="345.6" style="fill: #ff0000; fill-opacity: 0.3; stroke: #ff0000; stroke-opacity: 0.3"/>
    </g>
   </g>
   <g id="FillBetweenPolyCollection_3">
    <defs>
     <path id="m2b5c5f5589" d="M 75.026922 -54.912645 
L 75.026922 -54.7568 
L 78.634107 -55.930471 
L 82.241292 -55.636335 
L 85.848477 -56.459764 
L 89.455662 -57.571475 
L 93.062847 -58.790556 
L 96.670032 -59.969105 
L 100.277217 -60.859827 
L 103.884402 -61.812503 
L 107.491587 -63.702201 
L 111.098772 -65.300943 
L 114.705957 -66.618109 
L 118.313142 -68.026987 
L 121.920327 -69.514419 
L 125.527512 -70.99458 
L 129.134697 -72.511136 
L 132.741882 -74.083513 
L 136.349067 -75.66787 
L 139.956252 -77.265853 
L 143.563437 -78.904791 
L 147.170622 -80.540457 
L 150.777807 -82.189009 
L 154.384992 -83.853755 
L 157.992176 -85.564548 
L 161.599361 -87.291463 
L 165.206546 -89.023471 
L 168.813731 -90.778659 
L 172.420916 -92.557592 
L 176.028101 -94.373825 
L 179.635286 -96.225216 
L 183.242471 -98.110984 
L 186.849656 -99.990945 
L 190.456841 -101.90395 
L 194.064026 -103.79163 
L 197.671211 -105.725832 
L 201.278396 -107.673897 
L 204.885581 -109.667997 
L 208.492766 -111.647842 
L 212.099951 -113.661911 
L 215.707136 -115.663761 
L 219.314321 -117.718635 
L 222.921506 -119.817101 
L 226.528691 -121.943542 
L 230.135876 -124.08054 
L 233.743061 -126.204339 
L 237.350246 -128.352316 
L 240.957431 -130.525076 
L 244.564616 -132.727485 
L 248.171801 -134.944291 
L 251.778986 -137.172794 
L 255.386171 -139.393299 
L 258.993356 -141.623977 
L 262.600541 -143.896212 
L 266.207726 -146.190177 
L 269.814911 -148.5007 
L 273.422096 -150.803176 
L 277.029281 -153.108923 
L 280.636466 -155.44727 
L 284.243651 -157.814691 
L 287.850836 -160.206114 
L 291.458021 -162.60185 
L 295.065206 -165.006664 
L 298.672391 -167.432237 
L 302.279576 -169.858879 
L 305.886761 -172.314781 
L 309.493946 -174.811648 
L 313.101131 -177.300078 
L 316.708316 -179.8363 
L 320.315501 -182.398696 
L 323.922686 -184.974134 
L 327.529871 -187.598197 
L 331.137056 -190.250301 
L 334.744241 -192.942371 
L 338.351426 -195.652405 
L 341.958611 -198.390758 
L 345.565796 -201.157187 
L 349.172981 -203.940073 
L 352.780166 -206.742732 
L 356.387351 -209.581454 
L 359.994536 -212.466341 
L 363.601721 -215.361444 
L 367.208906 -218.277021 
L 370.816091 -221.265937 
L 374.423276 -224.274162 
L 378.030461 -227.285216 
L 381.637646 -230.331729 
L 385.244831 -233.417251 
L 388.852016 -236.528843 
L 392.459201 -239.669166 
L 396.066386 -242.848669 
L 399.673571 -246.053119 
L 403.280756 -249.304698 
L 406.887941 -252.613743 
L 410.495126 -255.954333 
L 414.102311 -259.348328 
L 417.709496 -262.780052 
L 421.316681 -266.328744 
L 424.923866 -269.812974 
L 428.531051 -272.961769 
L 432.138236 -226.097453 
L 432.138236 -289.369165 
L 432.138236 -289.369165 
L 428.531051 -289.047776 
L 424.923866 -285.020325 
L 421.316681 -280.989204 
L 417.709496 -277.011983 
L 414.102311 -273.102527 
L 410.495126 -269.211244 
L 406.887941 -265.373823 
L 403.280756 -261.587621 
L 399.673571 -257.864903 
L 396.066386 -254.158308 
L 392.459201 -250.519291 
L 388.852016 -246.929276 
L 385.244831 -243.389245 
L 381.637646 -239.870897 
L 378.030461 -236.403759 
L 374.423276 -232.977039 
L 370.816091 -229.57801 
L 367.208906 -226.212391 
L 363.601721 -222.916251 
L 359.994536 -219.662937 
L 356.387351 -216.434243 
L 352.780166 -213.246647 
L 349.172981 -210.109576 
L 345.565796 -206.998309 
L 341.958611 -203.925415 
L 338.351426 -200.919791 
L 334.744241 -197.920279 
L 331.137056 -194.925222 
L 327.529871 -191.975207 
L 323.922686 -189.084332 
L 320.315501 -186.203904 
L 316.708316 -183.403984 
L 313.101131 -180.643316 
L 309.493946 -177.890736 
L 305.886761 -175.167067 
L 302.279576 -172.477205 
L 298.672391 -169.82008 
L 295.065206 -167.240036 
L 291.458021 -164.656718 
L 287.850836 -162.084651 
L 284.243651 -159.55426 
L 280.636466 -157.039717 
L 277.029281 -154.558025 
L 273.422096 -152.122844 
L 269.814911 -149.745612 
L 266.207726 -147.3743 
L 262.600541 -145.056496 
L 258.993356 -142.745054 
L 255.386171 -140.458546 
L 251.778986 -138.204377 
L 248.171801 -136.012698 
L 244.564616 -133.867113 
L 240.957431 -131.746109 
L 237.350246 -129.645273 
L 233.743061 -127.547776 
L 230.135876 -125.459373 
L 226.528691 -123.408707 
L 222.921506 -121.400989 
L 219.314321 -119.410366 
L 215.707136 -117.456738 
L 212.099951 -115.497118 
L 208.492766 -113.553969 
L 204.885581 -111.650487 
L 201.278396 -109.749365 
L 197.671211 -107.886513 
L 194.064026 -106.040932 
L 190.456841 -104.157684 
L 186.849656 -102.253038 
L 183.242471 -100.3913 
L 179.635286 -98.543183 
L 176.028101 -96.725959 
L 172.420916 -94.931102 
L 168.813731 -93.152879 
L 165.206546 -91.361709 
L 161.599361 -89.607536 
L 157.992176 -87.849766 
L 154.384992 -86.122132 
L 150.777807 -84.425524 
L 147.170622 -82.737995 
L 143.563437 -81.031162 
L 139.956252 -79.345324 
L 136.349067 -77.684221 
L 132.741882 -76.062992 
L 129.134697 -74.468035 
L 125.527512 -72.883447 
L 121.920327 -71.260735 
L 118.313142 -69.651214 
L 114.705957 -68.087633 
L 111.098772 -66.674883 
L 107.491587 -65.251137 
L 103.884402 -63.394027 
L 100.277217 -61.946656 
L 96.670032 -60.67977 
L 93.062847 -59.350586 
L 89.455662 -58.361482 
L 85.848477 -57.525812 
L 82.241292 -56.622843 
L 78.634107 -57.177956 
L 75.026922 -54.912645 
z
" style="stroke: #0000ff; stroke-opacity: 0.3"/>
    </defs>
    <g clip-path="url(#p32ebb587ab)">
     <use xlink:href="#m2b5c5f5589" x="0" y="345.6" style="fill: #0000ff; fill-opacity: 0.3; stroke: #0000ff; stroke-opacity: 0.3"/>
    </g>
   </g>
   <g id="FillBetweenPolyCollection_4">
    <defs>
     <path id="mb978b5d466" d="M 75.025994 -55.054497 
L 75.025994 -54.638114 
L 78.633239 -57.089531 
L 82.240483 -56.036326 
L 85.847728 -57.171097 
L 89.454972 -58.532847 
L 93.062217 -59.425486 
L 96.669461 -59.674718 
L 100.276706 -60.740446 
L 103.88395 -61.719019 
L 107.491195 -62.604882 
L 111.09844 -64.034868 
L 114.705684 -65.718544 
L 118.312929 -67.401111 
L 121.920173 -69.004728 
L 125.527418 -70.493727 
L 129.134662 -71.997017 
L 132.741907 -73.543412 
L 136.349152 -75.098229 
L 139.956396 -76.712065 
L 143.563641 -78.281525 
L 147.170885 -79.891077 
L 150.77813 -81.556709 
L 154.385374 -83.234285 
L 157.992619 -84.946969 
L 161.599864 -86.633219 
L 165.207108 -88.31237 
L 168.814353 -90.084357 
L 172.421597 -91.861934 
L 176.028842 -93.643581 
L 179.636086 -95.429792 
L 183.243331 -97.269744 
L 186.850575 -99.166142 
L 190.45782 -101.082076 
L 194.065065 -102.95921 
L 197.672309 -104.829131 
L 201.279554 -106.764075 
L 204.886798 -108.734648 
L 208.494043 -110.684917 
L 212.101287 -112.666043 
L 215.708532 -114.650631 
L 219.315777 -116.67446 
L 222.923021 -118.7474 
L 226.530266 -120.813433 
L 230.13751 -122.907625 
L 233.744755 -124.980039 
L 237.351999 -127.059062 
L 240.959244 -129.177906 
L 244.566488 -131.318752 
L 248.173733 -133.513387 
L 251.780978 -135.724806 
L 255.388222 -137.943167 
L 258.995467 -140.193253 
L 262.602711 -142.470518 
L 266.209956 -144.759525 
L 269.8172 -147.066801 
L 273.424445 -149.367918 
L 277.03169 -151.689962 
L 280.638934 -154.041759 
L 284.246179 -156.427898 
L 287.853423 -158.829163 
L 291.460668 -161.271679 
L 295.067912 -163.7429 
L 298.675157 -166.21668 
L 302.282402 -168.693957 
L 305.889646 -171.208436 
L 309.496891 -173.765512 
L 313.104135 -176.354134 
L 316.71138 -178.94293 
L 320.318624 -181.546335 
L 323.925869 -184.222998 
L 327.533113 -186.932667 
L 331.140358 -189.676374 
L 334.747603 -192.44622 
L 338.354847 -195.227001 
L 341.962092 -198.055038 
L 345.569336 -200.91329 
L 349.176581 -203.765405 
L 352.783825 -206.700989 
L 356.39107 -209.627151 
L 359.998315 -212.587052 
L 363.605559 -215.598651 
L 367.212804 -218.632753 
L 370.820048 -221.710797 
L 374.427293 -224.827972 
L 378.034537 -227.930494 
L 381.641782 -231.07686 
L 385.249027 -234.256614 
L 388.856271 -237.482845 
L 392.463516 -240.75993 
L 396.07076 -244.046197 
L 399.678005 -247.381099 
L 403.285249 -250.773426 
L 406.892494 -254.165079 
L 410.499738 -257.508014 
L 414.106983 -260.837923 
L 417.714228 -264.193364 
L 421.321472 -267.685036 
L 424.928717 -271.170148 
L 428.535961 -274.549292 
L 432.143206 -228.699848 
L 432.143206 -300.806272 
L 432.143206 -300.806272 
L 428.535961 -296.996881 
L 424.928717 -292.68951 
L 421.321472 -288.454036 
L 417.714228 -284.278401 
L 414.106983 -280.155761 
L 410.499738 -276.104531 
L 406.892494 -272.094988 
L 403.285249 -268.153961 
L 399.678005 -264.239304 
L 396.07076 -260.373029 
L 392.463516 -256.554971 
L 388.856271 -252.7684 
L 385.249027 -249.054501 
L 381.641782 -245.388116 
L 378.034537 -241.79181 
L 374.427293 -238.209911 
L 370.820048 -234.6704 
L 367.212804 -231.191953 
L 363.605559 -227.750478 
L 359.998315 -224.335987 
L 356.39107 -220.983522 
L 352.783825 -217.675334 
L 349.176581 -214.410918 
L 345.569336 -211.183018 
L 341.962092 -207.961616 
L 338.354847 -204.804597 
L 334.747603 -201.702086 
L 331.140358 -198.623332 
L 327.533113 -195.582959 
L 323.925869 -192.537359 
L 320.318624 -189.540035 
L 316.71138 -186.616714 
L 313.104135 -183.735257 
L 309.496891 -180.893917 
L 305.889646 -178.079266 
L 302.282402 -175.255138 
L 298.675157 -172.491929 
L 295.067912 -169.767351 
L 291.460668 -167.071232 
L 287.853423 -164.398127 
L 284.246179 -161.735091 
L 280.638934 -159.107968 
L 277.03169 -156.552636 
L 273.424445 -154.018235 
L 269.8172 -151.51674 
L 266.209956 -149.022586 
L 262.602711 -146.576288 
L 258.995467 -144.146564 
L 255.388222 -141.742774 
L 251.780978 -139.354991 
L 248.173733 -137.009161 
L 244.566488 -134.689338 
L 240.959244 -132.409511 
L 237.351999 -130.13704 
L 233.744755 -127.923722 
L 230.13751 -125.736469 
L 226.530266 -123.576099 
L 222.923021 -121.439328 
L 219.315777 -119.297205 
L 215.708532 -117.205314 
L 212.101287 -115.146609 
L 208.494043 -113.114322 
L 204.886798 -111.120449 
L 201.279554 -109.16376 
L 197.672309 -107.213856 
L 194.065065 -105.266128 
L 190.45782 -103.337536 
L 186.850575 -101.433397 
L 183.243331 -99.562358 
L 179.636086 -97.669448 
L 176.028842 -95.790581 
L 172.421597 -93.943629 
L 168.814353 -92.176033 
L 165.207108 -90.417992 
L 161.599864 -88.671187 
L 157.992619 -86.885196 
L 154.385374 -85.145605 
L 150.77813 -83.446516 
L 147.170885 -81.758121 
L 143.563641 -80.054525 
L 139.956396 -78.37946 
L 136.349152 -76.711789 
L 132.741907 -75.138621 
L 129.134662 -73.584977 
L 125.527418 -71.998323 
L 121.920173 -70.447636 
L 118.312929 -68.926515 
L 114.705684 -67.439195 
L 111.09844 -65.858738 
L 107.491195 -64.056223 
L 103.88395 -62.81246 
L 100.276706 -61.899404 
L 96.669461 -60.784822 
L 93.062217 -60.142394 
L 89.454972 -59.334718 
L 85.847728 -57.952281 
L 82.240483 -56.791141 
L 78.633239 -57.735296 
L 75.025994 -55.054497 
z
" style="stroke: #008000; stroke-opacity: 0.3"/>
    </defs>
    <g clip-path="url(#p32ebb587ab)">
     <use xlink:href="#mb978b5d466" x="0" y="345.6" style="fill: #008000; fill-opacity: 0.3; stroke: #008000; stroke-opacity: 0.3"/>
    </g>
   </g>
   <g id="FillBetweenPolyCollection_5">
    <defs>
     <path id="meaaa26e082" d="M 75.026679 -55.002152 
L 75.026679 -54.806863 
L 78.633926 -58.063004 
L 82.241173 -55.888136 
L 85.848419 -56.568702 
L 89.455666 -57.516158 
L 93.062912 -58.313994 
L 96.670159 -59.198113 
L 100.277406 -60.343141 
L 103.884652 -61.714831 
L 107.491899 -62.937487 
L 111.099145 -63.769319 
L 114.706392 -64.495565 
L 118.313638 -65.765583 
L 121.920885 -67.527745 
L 125.528132 -69.19716 
L 129.135378 -70.779804 
L 132.742625 -72.342481 
L 136.349871 -73.933855 
L 139.957118 -75.480468 
L 143.564364 -77.015603 
L 147.171611 -78.640594 
L 150.778858 -80.293442 
L 154.386104 -81.914621 
L 157.993351 -83.571594 
L 161.600597 -85.290874 
L 165.207844 -87.033144 
L 168.815091 -88.786314 
L 172.422337 -90.612238 
L 176.029584 -92.458699 
L 179.63683 -94.30402 
L 183.244077 -96.17485 
L 186.851323 -98.096064 
L 190.45857 -100.041525 
L 194.065817 -101.996992 
L 197.673063 -103.985885 
L 201.28031 -105.994507 
L 204.887556 -108.020125 
L 208.494803 -110.045253 
L 212.10205 -112.104437 
L 215.709296 -114.229965 
L 219.316543 -116.347769 
L 222.923789 -118.481187 
L 226.531036 -120.664941 
L 230.138282 -122.88505 
L 233.745529 -125.140277 
L 237.352776 -127.425146 
L 240.960022 -129.720337 
L 244.567269 -132.052362 
L 248.174515 -134.405762 
L 251.781762 -136.761448 
L 255.389008 -139.174537 
L 258.996255 -141.60315 
L 262.603502 -144.057387 
L 266.210748 -146.547575 
L 269.817995 -149.066041 
L 273.425241 -151.58901 
L 277.032488 -154.157537 
L 280.639735 -156.738567 
L 284.246981 -159.341577 
L 287.854228 -161.955365 
L 291.461474 -164.572113 
L 295.068721 -167.230491 
L 298.675967 -169.881025 
L 302.283214 -172.524315 
L 305.890461 -175.206877 
L 309.497707 -177.905498 
L 313.104954 -180.643244 
L 316.7122 -183.413386 
L 320.319447 -186.201133 
L 323.926694 -189.008703 
L 327.53394 -191.838402 
L 331.141187 -194.707169 
L 334.748433 -197.597317 
L 338.35568 -200.523113 
L 341.962926 -203.469447 
L 345.570173 -206.439276 
L 349.17742 -209.421585 
L 352.784666 -212.443688 
L 356.391913 -215.532364 
L 359.999159 -218.652576 
L 363.606406 -221.802281 
L 367.213652 -224.985981 
L 370.820899 -228.196831 
L 374.428146 -231.444482 
L 378.035392 -234.735815 
L 381.642639 -238.093187 
L 385.249885 -241.474437 
L 388.857132 -244.868911 
L 392.464379 -248.305793 
L 396.071625 -251.727797 
L 399.678872 -255.156554 
L 403.286118 -258.532623 
L 406.893365 -261.924143 
L 410.500611 -265.30371 
L 414.107858 -268.710713 
L 417.715105 -272.237871 
L 421.322351 -275.909734 
L 424.929598 -279.640333 
L 428.536844 -283.600139 
L 432.144091 -233.574964 
L 432.144091 -306.14 
L 432.144091 -306.14 
L 428.536844 -301.95408 
L 424.929598 -297.448866 
L 421.322351 -292.994001 
L 417.715105 -288.574809 
L 414.107858 -284.20025 
L 410.500611 -279.920155 
L 406.893365 -275.712243 
L 403.286118 -271.561267 
L 399.678872 -267.463315 
L 396.071625 -263.402891 
L 392.464379 -259.391544 
L 388.857132 -255.42084 
L 385.249885 -251.498693 
L 381.642639 -247.653664 
L 378.035392 -243.873175 
L 374.428146 -240.163755 
L 370.820899 -236.478451 
L 367.213652 -232.858447 
L 363.606406 -229.262945 
L 359.999159 -225.73562 
L 356.391913 -222.251862 
L 352.784666 -218.831033 
L 349.17742 -215.446465 
L 345.570173 -212.099016 
L 341.962926 -208.759291 
L 338.35568 -205.453548 
L 334.748433 -202.220528 
L 331.141187 -199.037471 
L 327.53394 -195.908505 
L 323.926694 -192.788999 
L 320.319447 -189.698744 
L 316.7122 -186.649744 
L 313.104954 -183.666489 
L 309.497707 -180.752193 
L 305.890461 -177.895105 
L 302.283214 -175.060881 
L 298.675967 -172.269063 
L 295.068721 -169.508281 
L 291.461474 -166.801056 
L 287.854228 -164.169794 
L 284.246981 -161.60389 
L 280.639735 -159.063185 
L 277.032488 -156.535423 
L 273.425241 -154.003297 
L 269.817995 -151.5293 
L 266.210748 -149.104842 
L 262.603502 -146.734837 
L 258.996255 -144.403261 
L 255.389008 -142.092235 
L 251.781762 -139.779045 
L 248.174515 -137.474761 
L 244.567269 -135.21313 
L 240.960022 -133.006032 
L 237.352776 -130.830859 
L 233.745529 -128.681542 
L 230.138282 -126.540494 
L 226.531036 -124.394335 
L 222.923789 -122.271857 
L 219.316543 -120.184509 
L 215.709296 -118.127497 
L 212.10205 -116.094884 
L 208.494803 -114.072636 
L 204.887556 -112.050671 
L 201.28031 -110.060384 
L 197.673063 -108.069978 
L 194.065817 -106.105933 
L 190.45857 -104.192982 
L 186.851323 -102.293091 
L 183.244077 -100.423733 
L 179.63683 -98.551194 
L 176.029584 -96.706576 
L 172.422337 -94.865401 
L 168.815091 -93.036618 
L 165.207844 -91.276666 
L 161.600597 -89.530785 
L 157.993351 -87.78942 
L 154.386104 -86.042682 
L 150.778858 -84.299318 
L 147.171611 -82.556808 
L 143.564364 -80.84202 
L 139.957118 -79.164766 
L 136.349871 -77.486302 
L 132.742625 -75.775833 
L 129.135378 -74.120061 
L 125.528132 -72.49345 
L 121.920885 -70.813926 
L 118.313638 -68.93272 
L 114.706392 -67.244013 
L 111.099145 -66.106613 
L 107.491899 -65.231889 
L 103.884652 -63.928454 
L 100.277406 -62.27372 
L 96.670159 -60.898164 
L 93.062912 -59.759077 
L 89.455666 -58.696778 
L 85.848419 -57.421173 
L 82.241173 -56.330207 
L 78.633926 -58.574704 
L 75.026679 -55.002152 
z
" style="stroke: #bf00bf; stroke-opacity: 0.3"/>
    </defs>
    <g clip-path="url(#p32ebb587ab)">
     <use xlink:href="#meaaa26e082" x="0" y="345.6" style="fill: #bf00bf; fill-opacity: 0.3; stroke: #bf00bf; stroke-opacity: 0.3"/>
    </g>
   </g>
   <g id="matplotlib.axis_1">
    <g id="xtick_1">
     <g id="line2d_1">
      <path d="M 75.025558 303.64 
L 75.025558 26.88 
" clip-path="url(#p32ebb587ab)" style="fill: none; stroke: #b0b0b0; stroke-opacity: 0.3; stroke-width: 0.8; stroke-linecap: square"/>
     </g>
     <g id="line2d_2">
      <defs>
       <path id="m88a253b6d3" d="M 0 0 
L 0 3.5 
" style="stroke: #000000; stroke-width: 0.8"/>
      </defs>
      <g>
       <use xlink:href="#m88a253b6d3" x="75.025558" y="303.64" style="stroke: #000000; stroke-width: 0.8"/>
      </g>
     </g>
     <g id="text_1">
      <!-- 0.00 -->
      <g transform="translate(63.892746 318.238437) scale(0.1 -0.1)">
       <defs>
        <path id="DejaVuSans-30" d="M 2034 4250 
Q 1547 4250 1301 3770 
Q 1056 3291 1056 2328 
Q 1056 1369 1301 889 
Q 1547 409 2034 409 
Q 2525 409 2770 889 
Q 3016 1369 3016 2328 
Q 3016 3291 2770 3770 
Q 2525 4250 2034 4250 
z
M 2034 4750 
Q 2819 4750 3233 4129 
Q 3647 3509 3647 2328 
Q 3647 1150 3233 529 
Q 2819 -91 2034 -91 
Q 1250 -91 836 529 
Q 422 1150 422 2328 
Q 422 3509 836 4129 
Q 1250 4750 2034 4750 
z
" transform="scale(0.015625)"/>
        <path id="DejaVuSans-2e" d="M 684 794 
L 1344 794 
L 1344 0 
L 684 0 
L 684 794 
z
" transform="scale(0.015625)"/>
       </defs>
       <use xlink:href="#DejaVuSans-30"/>
       <use xlink:href="#DejaVuSans-2e" transform="translate(63.623047 0)"/>
       <use xlink:href="#DejaVuSans-30" transform="translate(95.410156 0)"/>
       <use xlink:href="#DejaVuSans-30" transform="translate(159.033203 0)"/>
      </g>
     </g>
    </g>
    <g id="xtick_2">
     <g id="line2d_3">
      <path d="M 160.691711 303.64 
L 160.691711 26.88 
" clip-path="url(#p32ebb587ab)" style="fill: none; stroke: #b0b0b0; stroke-opacity: 0.3; stroke-width: 0.8; stroke-linecap: square"/>
     </g>
     <g id="line2d_4">
      <g>
       <use xlink:href="#m88a253b6d3" x="160.691711" y="303.64" style="stroke: #000000; stroke-width: 0.8"/>
      </g>
     </g>
     <g id="text_2">
      <!-- 0.05 -->
      <g transform="translate(149.558899 318.238437) scale(0.1 -0.1)">
       <defs>
        <path id="DejaVuSans-35" d="M 691 4666 
L 3169 4666 
L 3169 4134 
L 1269 4134 
L 1269 2991 
Q 1406 3038 1543 3061 
Q 1681 3084 1819 3084 
Q 2600 3084 3056 2656 
Q 3513 2228 3513 1497 
Q 3513 744 3044 326 
Q 2575 -91 1722 -91 
Q 1428 -91 1123 -41 
Q 819 9 494 109 
L 494 744 
Q 775 591 1075 516 
Q 1375 441 1709 441 
Q 2250 441 2565 725 
Q 2881 1009 2881 1497 
Q 2881 1984 2565 2268 
Q 2250 2553 1709 2553 
Q 1456 2553 1204 2497 
Q 953 2441 691 2322 
L 691 4666 
z
" transform="scale(0.015625)"/>
       </defs>
       <use xlink:href="#DejaVuSans-30"/>
       <use xlink:href="#DejaVuSans-2e" transform="translate(63.623047 0)"/>
       <use xlink:href="#DejaVuSans-30" transform="translate(95.410156 0)"/>
       <use xlink:href="#DejaVuSans-35" transform="translate(159.033203 0)"/>
      </g>
     </g>
    </g>
    <g id="xtick_3">
     <g id="line2d_5">
      <path d="M 246.357864 303.64 
L 246.357864 26.88 
" clip-path="url(#p32ebb587ab)" style="fill: none; stroke: #b0b0b0; stroke-opacity: 0.3; stroke-width: 0.8; stroke-linecap: square"/>
     </g>
     <g id="line2d_6">
      <g>
       <use xlink:href="#m88a253b6d3" x="246.357864" y="303.64" style="stroke: #000000; stroke-width: 0.8"/>
      </g>
     </g>
     <g id="text_3">
      <!-- 0.10 -->
      <g transform="translate(235.225052 318.238437) scale(0.1 -0.1)">
       <defs>
        <path id="DejaVuSans-31" d="M 794 531 
L 1825 531 
L 1825 4091 
L 703 3866 
L 703 4441 
L 1819 4666 
L 2450 4666 
L 2450 531 
L 3481 531 
L 3481 0 
L 794 0 
L 794 531 
z
" transform="scale(0.015625)"/>
       </defs>
       <use xlink:href="#DejaVuSans-30"/>
       <use xlink:href="#DejaVuSans-2e" transform="translate(63.623047 0)"/>
       <use xlink:href="#DejaVuSans-31" transform="translate(95.410156 0)"/>
       <use xlink:href="#DejaVuSans-30" transform="translate(159.033203 0)"/>
      </g>
     </g>
    </g>
    <g id="xtick_4">
     <g id="line2d_7">
      <path d="M 332.024017 303.64 
L 332.024017 26.88 
" clip-path="url(#p32ebb587ab)" style="fill: none; stroke: #b0b0b0; stroke-opacity: 0.3; stroke-width: 0.8; stroke-linecap: square"/>
     </g>
     <g id="line2d_8">
      <g>
       <use xlink:href="#m88a253b6d3" x="332.024017" y="303.64" style="stroke: #000000; stroke-width: 0.8"/>
      </g>
     </g>
     <g id="text_4">
      <!-- 0.15 -->
      <g transform="translate(320.891205 318.238437) scale(0.1 -0.1)">
       <use xlink:href="#DejaVuSans-30"/>
       <use xlink:href="#DejaVuSans-2e" transform="translate(63.623047 0)"/>
       <use xlink:href="#DejaVuSans-31" transform="translate(95.410156 0)"/>
       <use xlink:href="#DejaVuSans-35" transform="translate(159.033203 0)"/>
      </g>
     </g>
    </g>
    <g id="xtick_5">
     <g id="line2d_9">
      <path d="M 417.69017 303.64 
L 417.69017 26.88 
" clip-path="url(#p32ebb587ab)" style="fill: none; stroke: #b0b0b0; stroke-opacity: 0.3; stroke-width: 0.8; stroke-linecap: square"/>
     </g>
     <g id="line2d_10">
      <g>
       <use xlink:href="#m88a253b6d3" x="417.69017" y="303.64" style="stroke: #000000; stroke-width: 0.8"/>
      </g>
     </g>
     <g id="text_5">
      <!-- 0.20 -->
      <g transform="translate(406.557358 318.238437) scale(0.1 -0.1)">
       <defs>
        <path id="DejaVuSans-32" d="M 1228 531 
L 3431 531 
L 3431 0 
L 469 0 
L 469 531 
Q 828 903 1448 1529 
Q 2069 2156 2228 2338 
Q 2531 2678 2651 2914 
Q 2772 3150 2772 3378 
Q 2772 3750 2511 3984 
Q 2250 4219 1831 4219 
Q 1534 4219 1204 4116 
Q 875 4013 500 3803 
L 500 4441 
Q 881 4594 1212 4672 
Q 1544 4750 1819 4750 
Q 2544 4750 2975 4387 
Q 3406 4025 3406 3419 
Q 3406 3131 3298 2873 
Q 3191 2616 2906 2266 
Q 2828 2175 2409 1742 
Q 1991 1309 1228 531 
z
" transform="scale(0.015625)"/>
       </defs>
       <use xlink:href="#DejaVuSans-30"/>
       <use xlink:href="#DejaVuSans-2e" transform="translate(63.623047 0)"/>
       <use xlink:href="#DejaVuSans-32" transform="translate(95.410156 0)"/>
       <use xlink:href="#DejaVuSans-30" transform="translate(159.033203 0)"/>
      </g>
     </g>
    </g>
    <g id="text_6">
     <!-- Strain [-] -->
     <g transform="translate(231.47875 331.916562) scale(0.1 -0.1)">
      <defs>
       <path id="DejaVuSans-53" d="M 3425 4513 
L 3425 3897 
Q 3066 4069 2747 4153 
Q 2428 4238 2131 4238 
Q 1616 4238 1336 4038 
Q 1056 3838 1056 3469 
Q 1056 3159 1242 3001 
Q 1428 2844 1947 2747 
L 2328 2669 
Q 3034 2534 3370 2195 
Q 3706 1856 3706 1288 
Q 3706 609 3251 259 
Q 2797 -91 1919 -91 
Q 1588 -91 1214 -16 
Q 841 59 441 206 
L 441 856 
Q 825 641 1194 531 
Q 1563 422 1919 422 
Q 2459 422 2753 634 
Q 3047 847 3047 1241 
Q 3047 1584 2836 1778 
Q 2625 1972 2144 2069 
L 1759 2144 
Q 1053 2284 737 2584 
Q 422 2884 422 3419 
Q 422 4038 858 4394 
Q 1294 4750 2059 4750 
Q 2388 4750 2728 4690 
Q 3069 4631 3425 4513 
z
" transform="scale(0.015625)"/>
       <path id="DejaVuSans-74" d="M 1172 4494 
L 1172 3500 
L 2356 3500 
L 2356 3053 
L 1172 3053 
L 1172 1153 
Q 1172 725 1289 603 
Q 1406 481 1766 481 
L 2356 481 
L 2356 0 
L 1766 0 
Q 1100 0 847 248 
Q 594 497 594 1153 
L 594 3053 
L 172 3053 
L 172 3500 
L 594 3500 
L 594 4494 
L 1172 4494 
z
" transform="scale(0.015625)"/>
       <path id="DejaVuSans-72" d="M 2631 2963 
Q 2534 3019 2420 3045 
Q 2306 3072 2169 3072 
Q 1681 3072 1420 2755 
Q 1159 2438 1159 1844 
L 1159 0 
L 581 0 
L 581 3500 
L 1159 3500 
L 1159 2956 
Q 1341 3275 1631 3429 
Q 1922 3584 2338 3584 
Q 2397 3584 2469 3576 
Q 2541 3569 2628 3553 
L 2631 2963 
z
" transform="scale(0.015625)"/>
       <path id="DejaVuSans-61" d="M 2194 1759 
Q 1497 1759 1228 1600 
Q 959 1441 959 1056 
Q 959 750 1161 570 
Q 1363 391 1709 391 
Q 2188 391 2477 730 
Q 2766 1069 2766 1631 
L 2766 1759 
L 2194 1759 
z
M 3341 1997 
L 3341 0 
L 2766 0 
L 2766 531 
Q 2569 213 2275 61 
Q 1981 -91 1556 -91 
Q 1019 -91 701 211 
Q 384 513 384 1019 
Q 384 1609 779 1909 
Q 1175 2209 1959 2209 
L 2766 2209 
L 2766 2266 
Q 2766 2663 2505 2880 
Q 2244 3097 1772 3097 
Q 1472 3097 1187 3025 
Q 903 2953 641 2809 
L 641 3341 
Q 956 3463 1253 3523 
Q 1550 3584 1831 3584 
Q 2591 3584 2966 3190 
Q 3341 2797 3341 1997 
z
" transform="scale(0.015625)"/>
       <path id="DejaVuSans-69" d="M 603 3500 
L 1178 3500 
L 1178 0 
L 603 0 
L 603 3500 
z
M 603 4863 
L 1178 4863 
L 1178 4134 
L 603 4134 
L 603 4863 
z
" transform="scale(0.015625)"/>
       <path id="DejaVuSans-6e" d="M 3513 2113 
L 3513 0 
L 2938 0 
L 2938 2094 
Q 2938 2591 2744 2837 
Q 2550 3084 2163 3084 
Q 1697 3084 1428 2787 
Q 1159 2491 1159 1978 
L 1159 0 
L 581 0 
L 581 3500 
L 1159 3500 
L 1159 2956 
Q 1366 3272 1645 3428 
Q 1925 3584 2291 3584 
Q 2894 3584 3203 3211 
Q 3513 2838 3513 2113 
z
" transform="scale(0.015625)"/>
       <path id="DejaVuSans-20" transform="scale(0.015625)"/>
       <path id="DejaVuSans-5b" d="M 550 4863 
L 1875 4863 
L 1875 4416 
L 1125 4416 
L 1125 -397 
L 1875 -397 
L 1875 -844 
L 550 -844 
L 550 4863 
z
" transform="scale(0.015625)"/>
       <path id="DejaVuSans-2d" d="M 313 2009 
L 1997 2009 
L 1997 1497 
L 313 1497 
L 313 2009 
z
" transform="scale(0.015625)"/>
       <path id="DejaVuSans-5d" d="M 1947 4863 
L 1947 -844 
L 622 -844 
L 622 -397 
L 1369 -397 
L 1369 4416 
L 622 4416 
L 622 4863 
L 1947 4863 
z
" transform="scale(0.015625)"/>
      </defs>
      <use xlink:href="#DejaVuSans-53"/>
      <use xlink:href="#DejaVuSans-74" transform="translate(63.476562 0)"/>
      <use xlink:href="#DejaVuSans-72" transform="translate(102.685547 0)"/>
      <use xlink:href="#DejaVuSans-61" transform="translate(143.798828 0)"/>
      <use xlink:href="#DejaVuSans-69" transform="translate(205.078125 0)"/>
      <use xlink:href="#DejaVuSans-6e" transform="translate(232.861328 0)"/>
      <use xlink:href="#DejaVuSans-20" transform="translate(296.240234 0)"/>
      <use xlink:href="#DejaVuSans-5b" transform="translate(328.027344 0)"/>
      <use xlink:href="#DejaVuSans-2d" transform="translate(367.041016 0)"/>
      <use xlink:href="#DejaVuSans-5d" transform="translate(403.125 0)"/>
     </g>
    </g>
   </g>
   <g id="matplotlib.axis_2">
    <g id="ytick_1">
     <g id="line2d_11">
      <path d="M 57.17 290.642927 
L 450 290.642927 
" clip-path="url(#p32ebb587ab)" style="fill: none; stroke: #b0b0b0; stroke-opacity: 0.3; stroke-width: 0.8; stroke-linecap: square"/>
     </g>
     <g id="line2d_12">
      <defs>
       <path id="m83384fa70f" d="M 0 0 
L -3.5 0 
" style="stroke: #000000; stroke-width: 0.8"/>
      </defs>
      <g>
       <use xlink:href="#m83384fa70f" x="57.17" y="290.642927" style="stroke: #000000; stroke-width: 0.8"/>
      </g>
     </g>
     <g id="text_7">
      <!-- 0 -->
      <g transform="translate(43.8075 294.442146) scale(0.1 -0.1)">
       <use xlink:href="#DejaVuSans-30"/>
      </g>
     </g>
    </g>
    <g id="ytick_2">
     <g id="line2d_13">
      <path d="M 57.17 232.100011 
L 450 232.100011 
" clip-path="url(#p32ebb587ab)" style="fill: none; stroke: #b0b0b0; stroke-opacity: 0.3; stroke-width: 0.8; stroke-linecap: square"/>
     </g>
     <g id="line2d_14">
      <g>
       <use xlink:href="#m83384fa70f" x="57.17" y="232.100011" style="stroke: #000000; stroke-width: 0.8"/>
      </g>
     </g>
     <g id="text_8">
      <!-- 2000 -->
      <g transform="translate(24.72 235.89923) scale(0.1 -0.1)">
       <use xlink:href="#DejaVuSans-32"/>
       <use xlink:href="#DejaVuSans-30" transform="translate(63.623047 0)"/>
       <use xlink:href="#DejaVuSans-30" transform="translate(127.246094 0)"/>
       <use xlink:href="#DejaVuSans-30" transform="translate(190.869141 0)"/>
      </g>
     </g>
    </g>
    <g id="ytick_3">
     <g id="line2d_15">
      <path d="M 57.17 173.557095 
L 450 173.557095 
" clip-path="url(#p32ebb587ab)" style="fill: none; stroke: #b0b0b0; stroke-opacity: 0.3; stroke-width: 0.8; stroke-linecap: square"/>
     </g>
     <g id="line2d_16">
      <g>
       <use xlink:href="#m83384fa70f" x="57.17" y="173.557095" style="stroke: #000000; stroke-width: 0.8"/>
      </g>
     </g>
     <g id="text_9">
      <!-- 4000 -->
      <g transform="translate(24.72 177.356314) scale(0.1 -0.1)">
       <defs>
        <path id="DejaVuSans-34" d="M 2419 4116 
L 825 1625 
L 2419 1625 
L 2419 4116 
z
M 2253 4666 
L 3047 4666 
L 3047 1625 
L 3713 1625 
L 3713 1100 
L 3047 1100 
L 3047 0 
L 2419 0 
L 2419 1100 
L 313 1100 
L 313 1709 
L 2253 4666 
z
" transform="scale(0.015625)"/>
       </defs>
       <use xlink:href="#DejaVuSans-34"/>
       <use xlink:href="#DejaVuSans-30" transform="translate(63.623047 0)"/>
       <use xlink:href="#DejaVuSans-30" transform="translate(127.246094 0)"/>
       <use xlink:href="#DejaVuSans-30" transform="translate(190.869141 0)"/>
      </g>
     </g>
    </g>
    <g id="ytick_4">
     <g id="line2d_17">
      <path d="M 57.17 115.014179 
L 450 115.014179 
" clip-path="url(#p32ebb587ab)" style="fill: none; stroke: #b0b0b0; stroke-opacity: 0.3; stroke-width: 0.8; stroke-linecap: square"/>
     </g>
     <g id="line2d_18">
      <g>
       <use xlink:href="#m83384fa70f" x="57.17" y="115.014179" style="stroke: #000000; stroke-width: 0.8"/>
      </g>
     </g>
     <g id="text_10">
      <!-- 6000 -->
      <g transform="translate(24.72 118.813398) scale(0.1 -0.1)">
       <defs>
        <path id="DejaVuSans-36" d="M 2113 2584 
Q 1688 2584 1439 2293 
Q 1191 2003 1191 1497 
Q 1191 994 1439 701 
Q 1688 409 2113 409 
Q 2538 409 2786 701 
Q 3034 994 3034 1497 
Q 3034 2003 2786 2293 
Q 2538 2584 2113 2584 
z
M 3366 4563 
L 3366 3988 
Q 3128 4100 2886 4159 
Q 2644 4219 2406 4219 
Q 1781 4219 1451 3797 
Q 1122 3375 1075 2522 
Q 1259 2794 1537 2939 
Q 1816 3084 2150 3084 
Q 2853 3084 3261 2657 
Q 3669 2231 3669 1497 
Q 3669 778 3244 343 
Q 2819 -91 2113 -91 
Q 1303 -91 875 529 
Q 447 1150 447 2328 
Q 447 3434 972 4092 
Q 1497 4750 2381 4750 
Q 2619 4750 2861 4703 
Q 3103 4656 3366 4563 
z
" transform="scale(0.015625)"/>
       </defs>
       <use xlink:href="#DejaVuSans-36"/>
       <use xlink:href="#DejaVuSans-30" transform="translate(63.623047 0)"/>
       <use xlink:href="#DejaVuSans-30" transform="translate(127.246094 0)"/>
       <use xlink:href="#DejaVuSans-30" transform="translate(190.869141 0)"/>
      </g>
     </g>
    </g>
    <g id="ytick_5">
     <g id="line2d_19">
      <path d="M 57.17 56.471263 
L 450 56.471263 
" clip-path="url(#p32ebb587ab)" style="fill: none; stroke: #b0b0b0; stroke-opacity: 0.3; stroke-width: 0.8; stroke-linecap: square"/>
     </g>
     <g id="line2d_20">
      <g>
       <use xlink:href="#m83384fa70f" x="57.17" y="56.471263" style="stroke: #000000; stroke-width: 0.8"/>
      </g>
     </g>
     <g id="text_11">
      <!-- 8000 -->
      <g transform="translate(24.72 60.270482) scale(0.1 -0.1)">
       <defs>
        <path id="DejaVuSans-38" d="M 2034 2216 
Q 1584 2216 1326 1975 
Q 1069 1734 1069 1313 
Q 1069 891 1326 650 
Q 1584 409 2034 409 
Q 2484 409 2743 651 
Q 3003 894 3003 1313 
Q 3003 1734 2745 1975 
Q 2488 2216 2034 2216 
z
M 1403 2484 
Q 997 2584 770 2862 
Q 544 3141 544 3541 
Q 544 4100 942 4425 
Q 1341 4750 2034 4750 
Q 2731 4750 3128 4425 
Q 3525 4100 3525 3541 
Q 3525 3141 3298 2862 
Q 3072 2584 2669 2484 
Q 3125 2378 3379 2068 
Q 3634 1759 3634 1313 
Q 3634 634 3220 271 
Q 2806 -91 2034 -91 
Q 1263 -91 848 271 
Q 434 634 434 1313 
Q 434 1759 690 2068 
Q 947 2378 1403 2484 
z
M 1172 3481 
Q 1172 3119 1398 2916 
Q 1625 2713 2034 2713 
Q 2441 2713 2670 2916 
Q 2900 3119 2900 3481 
Q 2900 3844 2670 4047 
Q 2441 4250 2034 4250 
Q 1625 4250 1398 4047 
Q 1172 3844 1172 3481 
z
" transform="scale(0.015625)"/>
       </defs>
       <use xlink:href="#DejaVuSans-38"/>
       <use xlink:href="#DejaVuSans-30" transform="translate(63.623047 0)"/>
       <use xlink:href="#DejaVuSans-30" transform="translate(127.246094 0)"/>
       <use xlink:href="#DejaVuSans-30" transform="translate(190.869141 0)"/>
      </g>
     </g>
    </g>
    <g id="text_12">
     <!-- Stress [Pa] -->
     <g transform="translate(18.640312 191.967812) rotate(-90) scale(0.1 -0.1)">
      <defs>
       <path id="DejaVuSans-65" d="M 3597 1894 
L 3597 1613 
L 953 1613 
Q 991 1019 1311 708 
Q 1631 397 2203 397 
Q 2534 397 2845 478 
Q 3156 559 3463 722 
L 3463 178 
Q 3153 47 2828 -22 
Q 2503 -91 2169 -91 
Q 1331 -91 842 396 
Q 353 884 353 1716 
Q 353 2575 817 3079 
Q 1281 3584 2069 3584 
Q 2775 3584 3186 3129 
Q 3597 2675 3597 1894 
z
M 3022 2063 
Q 3016 2534 2758 2815 
Q 2500 3097 2075 3097 
Q 1594 3097 1305 2825 
Q 1016 2553 972 2059 
L 3022 2063 
z
" transform="scale(0.015625)"/>
       <path id="DejaVuSans-73" d="M 2834 3397 
L 2834 2853 
Q 2591 2978 2328 3040 
Q 2066 3103 1784 3103 
Q 1356 3103 1142 2972 
Q 928 2841 928 2578 
Q 928 2378 1081 2264 
Q 1234 2150 1697 2047 
L 1894 2003 
Q 2506 1872 2764 1633 
Q 3022 1394 3022 966 
Q 3022 478 2636 193 
Q 2250 -91 1575 -91 
Q 1294 -91 989 -36 
Q 684 19 347 128 
L 347 722 
Q 666 556 975 473 
Q 1284 391 1588 391 
Q 1994 391 2212 530 
Q 2431 669 2431 922 
Q 2431 1156 2273 1281 
Q 2116 1406 1581 1522 
L 1381 1569 
Q 847 1681 609 1914 
Q 372 2147 372 2553 
Q 372 3047 722 3315 
Q 1072 3584 1716 3584 
Q 2034 3584 2315 3537 
Q 2597 3491 2834 3397 
z
" transform="scale(0.015625)"/>
       <path id="DejaVuSans-50" d="M 1259 4147 
L 1259 2394 
L 2053 2394 
Q 2494 2394 2734 2622 
Q 2975 2850 2975 3272 
Q 2975 3691 2734 3919 
Q 2494 4147 2053 4147 
L 1259 4147 
z
M 628 4666 
L 2053 4666 
Q 2838 4666 3239 4311 
Q 3641 3956 3641 3272 
Q 3641 2581 3239 2228 
Q 2838 1875 2053 1875 
L 1259 1875 
L 1259 0 
L 628 0 
L 628 4666 
z
" transform="scale(0.015625)"/>
      </defs>
      <use xlink:href="#DejaVuSans-53"/>
      <use xlink:href="#DejaVuSans-74" transform="translate(63.476562 0)"/>
      <use xlink:href="#DejaVuSans-72" transform="translate(102.685547 0)"/>
      <use xlink:href="#DejaVuSans-65" transform="translate(141.548828 0)"/>
      <use xlink:href="#DejaVuSans-73" transform="translate(203.072266 0)"/>
      <use xlink:href="#DejaVuSans-73" transform="translate(255.171875 0)"/>
      <use xlink:href="#DejaVuSans-20" transform="translate(307.271484 0)"/>
      <use xlink:href="#DejaVuSans-5b" transform="translate(339.058594 0)"/>
      <use xlink:href="#DejaVuSans-50" transform="translate(378.072266 0)"/>
      <use xlink:href="#DejaVuSans-61" transform="translate(433.875 0)"/>
      <use xlink:href="#DejaVuSans-5d" transform="translate(495.154297 0)"/>
     </g>
    </g>
   </g>
   <g id="line2d_21">
    <path d="M 75.026615 290.758126 
L 75.750212 290.603592 
L 76.473808 290.28914 
L 77.197405 290.092333 
L 77.921002 290.356974 
L 78.644599 290.748482 
L 79.368195 290.663482 
L 80.091792 290.481054 
L 80.815389 290.34319 
L 81.538986 290.165126 
L 82.262582 290.067091 
L 82.986179 289.824481 
L 83.709776 289.53079 
L 84.433373 289.315641 
L 85.156969 289.141603 
L 85.880566 288.966818 
L 86.604163 288.821069 
L 87.32776 288.717054 
L 88.051357 288.560434 
L 88.774953 288.37933 
L 89.49855 288.170414 
L 90.222147 287.954029 
L 90.945744 287.684757 
L 91.66934 287.393721 
L 92.392937 287.11712 
L 93.116534 286.885379 
L 93.840131 286.680716 
L 94.563727 286.471319 
L 95.287324 286.249617 
L 96.010921 286.008196 
L 96.734518 285.759134 
L 97.458115 285.502033 
L 98.181711 285.249425 
L 98.905308 285.002949 
L 99.628905 284.754035 
L 100.352502 284.495894 
L 101.076098 284.229681 
L 101.799695 283.96364 
L 102.523292 283.699498 
L 103.246889 283.442196 
L 103.970485 283.184267 
L 104.694082 282.919354 
L 105.417679 282.645995 
L 106.141276 282.366653 
L 106.864872 282.089033 
L 107.588469 281.819693 
L 108.312066 281.549618 
L 109.035663 281.275595 
L 109.75926 280.996718 
L 110.482856 280.714917 
L 111.206453 280.430319 
L 111.93005 280.144503 
L 112.653647 279.859148 
L 113.377243 279.575189 
L 114.10084 279.292129 
L 114.824437 279.013318 
L 115.548034 278.728682 
L 116.27163 278.440391 
L 116.995227 278.149468 
L 117.718824 277.853486 
L 118.442421 277.558187 
L 119.166018 277.272889 
L 119.889614 276.988337 
L 120.613211 276.694995 
L 121.336808 276.39389 
L 122.060405 276.087773 
L 122.784001 275.783438 
L 123.507598 275.488603 
L 124.231195 275.19793 
L 124.954792 274.910175 
L 125.678388 274.610128 
L 126.401985 274.304427 
L 127.125582 273.998621 
L 127.849179 273.698065 
L 128.572775 273.395147 
L 129.296372 273.094224 
L 130.019969 272.789303 
L 130.743566 272.474916 
L 131.467163 272.159466 
L 132.190759 271.851403 
L 132.914356 271.55081 
L 133.637953 271.252652 
L 134.36155 270.954089 
L 135.085146 270.647615 
L 135.808743 270.334934 
L 136.53234 270.016337 
L 137.255937 269.692902 
L 137.979533 269.376252 
L 138.70313 269.065425 
L 139.426727 268.756414 
L 140.150324 268.442576 
L 140.87392 268.12499 
L 141.597517 267.804007 
L 142.321114 267.480715 
L 143.044711 267.16426 
L 143.768308 266.86438 
L 144.491904 266.56858 
L 145.215501 266.267473 
L 145.939098 265.957775 
L 146.662695 266.7076 
" clip-path="url(#p32ebb587ab)" style="fill: none; stroke: #000000; stroke-width: 2; stroke-linecap: square"/>
   </g>
   <g id="line2d_22">
    <path d="M 75.025909 290.794598 
L 77.19096 289.546942 
L 79.35601 289.786952 
L 81.521061 290.769853 
L 83.686112 290.203404 
L 85.851163 289.937924 
L 88.016213 289.594205 
L 90.181264 288.714761 
L 92.346315 287.746345 
L 94.511365 287.081458 
L 96.676416 286.452637 
L 98.841467 285.506622 
L 101.006517 284.402874 
L 103.171568 283.591032 
L 105.336619 282.905859 
L 107.501669 282.167912 
L 109.66672 281.303105 
L 111.831771 280.425019 
L 113.996821 279.526158 
L 116.161872 278.627693 
L 118.326923 277.740191 
L 120.491973 276.845199 
L 122.657024 275.930057 
L 124.822075 275.018334 
L 126.987125 274.096532 
L 129.152176 273.150556 
L 131.317227 272.219942 
L 133.482278 271.285629 
L 135.647328 270.330941 
L 137.812379 269.371344 
L 139.97743 268.404626 
L 142.14248 267.420575 
L 144.307531 266.439054 
L 146.472582 265.450012 
L 148.637632 264.449534 
L 150.802683 263.457852 
L 152.967734 262.456099 
L 155.132784 261.427409 
L 157.297835 260.410968 
L 159.462886 259.391501 
L 161.627936 258.361716 
L 163.792987 257.333417 
L 165.958038 256.311731 
L 168.123088 255.268815 
L 170.288139 254.218644 
L 172.45319 253.157141 
L 174.618241 252.087546 
L 176.783291 251.01507 
L 178.948342 249.937198 
L 181.113393 248.860009 
L 183.278443 247.78815 
L 185.443494 246.692345 
L 187.608545 245.591334 
L 189.773595 244.485738 
L 191.938646 243.376338 
L 194.103697 242.236413 
L 196.268747 241.106949 
L 198.433798 239.975898 
L 200.598849 238.846329 
L 202.763899 237.691489 
L 204.92895 236.573117 
L 207.094001 235.429101 
L 209.259051 234.287235 
L 211.424102 233.125043 
L 213.589153 231.978123 
L 215.754204 230.80786 
L 217.919254 229.646233 
L 220.084305 228.463882 
L 222.249356 227.292786 
L 224.414406 226.095953 
L 226.579457 224.900676 
L 228.744508 223.691126 
L 230.909558 222.465538 
L 233.074609 221.231608 
L 235.23966 219.994966 
L 237.40471 218.758121 
L 239.569761 217.514421 
L 241.734812 216.268708 
L 243.899862 215.012987 
L 246.064913 213.735011 
L 248.229964 212.455582 
L 250.395014 211.182748 
L 252.560065 209.901958 
L 254.725116 208.590543 
L 256.890167 207.297258 
L 259.055217 205.989777 
L 261.220268 204.66328 
L 263.385319 203.348347 
L 265.550369 202.0461 
L 267.71542 200.703043 
L 269.880471 199.360166 
L 272.045521 198.006738 
L 274.210572 196.614065 
L 276.375623 195.185352 
L 278.540673 193.738573 
L 280.705724 192.309538 
L 282.870775 190.902532 
L 285.035825 189.54875 
L 287.200876 188.295693 
L 289.365927 194.288505 
" clip-path="url(#p32ebb587ab)" style="fill: none; stroke: #ff0000; stroke-width: 2; stroke-linecap: square"/>
   </g>
   <g id="line2d_23">
    <path d="M 75.026922 290.765278 
L 78.634107 289.045786 
L 82.241292 289.470411 
L 85.848477 288.607212 
L 89.455662 287.633521 
L 93.062847 286.529429 
L 96.670032 285.275562 
L 100.277217 284.196758 
L 103.884402 282.996735 
L 107.491587 281.123331 
L 111.098772 279.612087 
L 114.705957 278.247129 
L 118.313142 276.7609 
L 121.920327 275.212423 
L 125.527512 273.660987 
L 129.134697 272.110414 
L 132.741882 270.526748 
L 136.349067 268.923954 
L 139.956252 267.294412 
L 143.563437 265.632023 
L 147.170622 263.960774 
L 150.777807 262.292733 
L 154.384992 260.612057 
L 157.992176 258.892843 
L 161.599361 257.1505 
L 165.206546 255.40741 
L 168.813731 253.634231 
L 172.420916 251.855653 
L 176.028101 250.050108 
L 179.635286 248.2158 
L 183.242471 246.348858 
L 186.849656 244.478009 
L 190.456841 242.569183 
L 194.064026 240.683719 
L 197.671211 238.793827 
L 201.278396 236.888369 
L 204.885581 234.940758 
L 208.492766 232.999094 
L 212.099951 231.020485 
L 215.707136 229.039751 
L 219.314321 227.0355 
L 222.921506 224.990955 
L 226.528691 222.923875 
L 230.135876 220.830044 
L 233.743061 218.723942 
L 237.350246 216.601206 
L 240.957431 214.464408 
L 244.564616 212.302701 
L 248.171801 210.121506 
L 251.778986 207.911415 
L 255.386171 205.674078 
L 258.993356 203.415485 
L 262.600541 201.123646 
L 266.207726 198.817761 
L 269.814911 196.476844 
L 273.422096 194.13699 
L 277.029281 191.766526 
L 280.636466 189.356507 
L 284.243651 186.915524 
L 287.850836 184.454618 
L 291.458021 181.970716 
L 295.065206 179.47665 
L 298.672391 176.973842 
L 302.279576 174.431958 
L 305.886761 171.859076 
L 309.493946 169.248808 
L 313.101131 166.628303 
L 316.708316 163.979858 
L 320.315501 161.2987 
L 323.922686 158.570767 
L 327.529871 155.813298 
L 331.137056 153.012239 
L 334.744241 150.168675 
L 338.351426 147.313902 
L 341.958611 144.441913 
L 345.565796 141.522252 
L 349.172981 138.575175 
L 352.780166 135.60531 
L 356.387351 132.592152 
L 359.994536 129.535361 
L 363.601721 126.461152 
L 367.208906 123.355294 
L 370.816091 120.178026 
L 374.423276 116.9744 
L 378.030461 113.755512 
L 381.637646 110.498687 
L 385.244831 107.196752 
L 388.852016 103.87094 
L 392.459201 100.505771 
L 396.066386 97.096512 
L 399.673571 93.640989 
L 403.280756 90.15384 
L 406.887941 86.606217 
L 410.495126 83.017212 
L 414.102311 79.374573 
L 417.709496 75.703983 
L 421.316681 71.941026 
L 424.923866 68.18335 
L 428.531051 64.595228 
L 432.138236 87.866691 
" clip-path="url(#p32ebb587ab)" style="fill: none; stroke: #0000ff; stroke-width: 2; stroke-linecap: square"/>
   </g>
   <g id="line2d_24">
    <path d="M 75.025994 290.753694 
L 78.633239 288.187587 
L 82.240483 289.186266 
L 85.847728 288.038311 
L 89.454972 286.666218 
L 93.062217 285.81606 
L 96.669461 285.37023 
L 100.276706 284.280075 
L 103.88395 283.334261 
L 107.491195 282.269447 
L 111.09844 280.653197 
L 114.705684 279.02113 
L 118.312929 277.436187 
L 121.920173 275.873818 
L 125.527418 274.353975 
L 129.134662 272.809003 
L 132.741907 271.258983 
L 136.349152 269.694991 
L 139.956396 268.054237 
L 143.563641 266.431975 
L 147.170885 264.775401 
L 150.77813 263.098387 
L 154.385374 261.410055 
L 157.992619 259.683917 
L 161.599864 257.947797 
L 165.207108 256.234819 
L 168.814353 254.469805 
L 172.421597 252.697219 
L 176.028842 250.882919 
L 179.636086 249.05038 
L 183.243331 247.183949 
L 186.850575 245.30023 
L 190.45782 243.390194 
L 194.065065 241.487331 
L 197.672309 239.578507 
L 201.279554 237.636082 
L 204.886798 235.672451 
L 208.494043 233.70038 
L 212.101287 231.693674 
L 215.708532 229.672027 
L 219.315777 227.614168 
L 222.923021 225.506636 
L 226.530266 223.405234 
L 230.13751 221.277953 
L 233.744755 219.14812 
L 237.351999 217.001949 
L 240.959244 214.806292 
L 244.566488 212.595955 
L 248.173733 210.338726 
L 251.780978 208.060101 
L 255.388222 205.75703 
L 258.995467 203.430091 
L 262.602711 201.076597 
L 266.209956 198.708945 
L 269.8172 196.30823 
L 273.424445 193.906923 
L 277.03169 191.478701 
L 280.638934 189.025136 
L 284.246179 186.518506 
L 287.853423 183.986355 
L 291.460668 181.428544 
L 295.067912 178.844875 
L 298.675157 176.245695 
L 302.282402 173.625452 
L 305.889646 170.956149 
L 309.496891 168.270285 
L 313.104135 165.555304 
L 316.71138 162.820178 
L 320.318624 160.056815 
L 323.925869 157.219821 
L 327.533113 154.342187 
L 331.140358 151.450147 
L 334.747603 148.525847 
L 338.354847 145.584201 
L 341.962092 142.591673 
L 345.569336 139.551846 
L 349.176581 136.511838 
L 352.783825 133.411839 
L 356.39107 130.294663 
L 359.998315 127.13848 
L 363.605559 123.925436 
L 367.212804 120.687647 
L 370.820048 117.409401 
L 374.427293 114.081059 
L 378.034537 110.738848 
L 381.641782 107.367512 
L 385.249027 103.944443 
L 388.856271 100.474377 
L 392.463516 96.942549 
L 396.07076 93.390387 
L 399.678005 89.789798 
L 403.285249 86.136307 
L 406.892494 82.469967 
L 410.499738 78.793728 
L 414.106983 75.103158 
L 417.714228 71.364117 
L 421.321472 67.530464 
L 424.928717 63.670171 
L 428.535961 59.826913 
L 432.143206 80.84694 
" clip-path="url(#p32ebb587ab)" style="fill: none; stroke: #008000; stroke-width: 2; stroke-linecap: square"/>
   </g>
   <g id="line2d_25">
    <path d="M 75.026679 290.695493 
L 78.633926 287.281146 
L 82.241173 289.490829 
L 85.848419 288.605063 
L 89.455666 287.493532 
L 93.062912 286.563464 
L 96.670159 285.551862 
L 100.277406 284.291569 
L 103.884652 282.778357 
L 107.491899 281.515312 
L 111.099145 280.662034 
L 114.706392 279.730211 
L 118.313638 278.250849 
L 121.920885 276.429165 
L 125.528132 274.754695 
L 129.135378 273.150068 
L 132.742625 271.540843 
L 136.349871 269.889922 
L 139.957118 268.277383 
L 143.564364 266.671189 
L 147.171611 265.001299 
L 150.778858 263.30362 
L 154.386104 261.621348 
L 157.993351 259.919493 
L 161.600597 258.18917 
L 165.207844 256.445095 
L 168.815091 254.688534 
L 172.422337 252.86118 
L 176.029584 251.017363 
L 179.63683 249.172393 
L 183.244077 247.300708 
L 186.851323 245.405423 
L 190.45857 243.482747 
L 194.065817 241.548538 
L 197.673063 239.572068 
L 201.28031 237.572554 
L 204.887556 235.564602 
L 208.494803 233.541056 
L 212.10205 231.500339 
L 215.709296 229.421269 
L 219.316543 227.333861 
L 222.923789 225.223478 
L 226.531036 223.070362 
L 230.138282 220.887228 
L 233.745529 218.689091 
L 237.352776 216.471998 
L 240.960022 214.236816 
L 244.567269 211.967254 
L 248.174515 209.659738 
L 251.781762 207.329754 
L 255.389008 204.966614 
L 258.996255 202.596794 
L 262.603502 200.203888 
L 266.210748 197.773791 
L 269.817995 195.302329 
L 273.425241 192.803847 
L 277.032488 190.25352 
L 280.639735 187.699124 
L 284.246981 185.127267 
L 287.854228 182.537421 
L 291.461474 179.913415 
L 295.068721 177.230614 
L 298.675967 174.524956 
L 302.283214 171.807402 
L 305.890461 169.049009 
L 309.497707 166.271154 
L 313.104954 163.445133 
L 316.7122 160.568435 
L 320.319447 157.650062 
L 323.926694 154.701149 
L 327.53394 151.726546 
L 331.141187 148.72768 
L 334.748433 145.691078 
L 338.35568 142.61167 
L 341.962926 139.485631 
L 345.570173 136.330854 
L 349.17742 133.165975 
L 352.784666 129.962639 
L 356.391913 126.707887 
L 359.999159 123.405902 
L 363.606406 120.067387 
L 367.213652 116.677786 
L 370.820899 113.262359 
L 374.428146 109.795881 
L 378.035392 106.295505 
L 381.642639 102.726575 
L 385.249885 99.113435 
L 388.857132 95.455125 
L 392.464379 91.751332 
L 396.071625 88.034656 
L 399.678872 84.290066 
L 403.286118 80.553055 
L 406.893365 76.781807 
L 410.500611 72.988067 
L 414.107858 69.144519 
L 417.715105 65.19366 
L 421.322351 61.148133 
L 424.929598 57.0554 
L 428.536844 52.822891 
L 432.144091 75.742518 
" clip-path="url(#p32ebb587ab)" style="fill: none; stroke: #bf00bf; stroke-width: 2; stroke-linecap: square"/>
   </g>
   <g id="patch_3">
    <path d="M 57.17 303.64 
L 57.17 26.88 
" style="fill: none; stroke: #000000; stroke-width: 0.8; stroke-linejoin: miter; stroke-linecap: square"/>
   </g>
   <g id="patch_4">
    <path d="M 450 303.64 
L 450 26.88 
" style="fill: none; stroke: #000000; stroke-width: 0.8; stroke-linejoin: miter; stroke-linecap: square"/>
   </g>
   <g id="patch_5">
    <path d="M 57.17 303.64 
L 450 303.64 
" style="fill: none; stroke: #000000; stroke-width: 0.8; stroke-linejoin: miter; stroke-linecap: square"/>
   </g>
   <g id="patch_6">
    <path d="M 57.17 26.88 
L 450 26.88 
" style="fill: none; stroke: #000000; stroke-width: 0.8; stroke-linejoin: miter; stroke-linecap: square"/>
   </g>
   <g id="text_13">
    <!-- 2025-07-14 - Stress vs Strain by Impact Velocity (with Error Bands) -->
    <g transform="translate(52.381563 20.88) scale(0.12 -0.12)">
     <defs>
      <path id="DejaVuSans-37" d="M 525 4666 
L 3525 4666 
L 3525 4397 
L 1831 0 
L 1172 0 
L 2766 4134 
L 525 4134 
L 525 4666 
z
" transform="scale(0.015625)"/>
      <path id="DejaVuSans-76" d="M 191 3500 
L 800 3500 
L 1894 563 
L 2988 3500 
L 3597 3500 
L 2284 0 
L 1503 0 
L 191 3500 
z
" transform="scale(0.015625)"/>
      <path id="DejaVuSans-62" d="M 3116 1747 
Q 3116 2381 2855 2742 
Q 2594 3103 2138 3103 
Q 1681 3103 1420 2742 
Q 1159 2381 1159 1747 
Q 1159 1113 1420 752 
Q 1681 391 2138 391 
Q 2594 391 2855 752 
Q 3116 1113 3116 1747 
z
M 1159 2969 
Q 1341 3281 1617 3432 
Q 1894 3584 2278 3584 
Q 2916 3584 3314 3078 
Q 3713 2572 3713 1747 
Q 3713 922 3314 415 
Q 2916 -91 2278 -91 
Q 1894 -91 1617 61 
Q 1341 213 1159 525 
L 1159 0 
L 581 0 
L 581 4863 
L 1159 4863 
L 1159 2969 
z
" transform="scale(0.015625)"/>
      <path id="DejaVuSans-79" d="M 2059 -325 
Q 1816 -950 1584 -1140 
Q 1353 -1331 966 -1331 
L 506 -1331 
L 506 -850 
L 844 -850 
Q 1081 -850 1212 -737 
Q 1344 -625 1503 -206 
L 1606 56 
L 191 3500 
L 800 3500 
L 1894 763 
L 2988 3500 
L 3597 3500 
L 2059 -325 
z
" transform="scale(0.015625)"/>
      <path id="DejaVuSans-49" d="M 628 4666 
L 1259 4666 
L 1259 0 
L 628 0 
L 628 4666 
z
" transform="scale(0.015625)"/>
      <path id="DejaVuSans-6d" d="M 3328 2828 
Q 3544 3216 3844 3400 
Q 4144 3584 4550 3584 
Q 5097 3584 5394 3201 
Q 5691 2819 5691 2113 
L 5691 0 
L 5113 0 
L 5113 2094 
Q 5113 2597 4934 2840 
Q 4756 3084 4391 3084 
Q 3944 3084 3684 2787 
Q 3425 2491 3425 1978 
L 3425 0 
L 2847 0 
L 2847 2094 
Q 2847 2600 2669 2842 
Q 2491 3084 2119 3084 
Q 1678 3084 1418 2786 
Q 1159 2488 1159 1978 
L 1159 0 
L 581 0 
L 581 3500 
L 1159 3500 
L 1159 2956 
Q 1356 3278 1631 3431 
Q 1906 3584 2284 3584 
Q 2666 3584 2933 3390 
Q 3200 3197 3328 2828 
z
" transform="scale(0.015625)"/>
      <path id="DejaVuSans-70" d="M 1159 525 
L 1159 -1331 
L 581 -1331 
L 581 3500 
L 1159 3500 
L 1159 2969 
Q 1341 3281 1617 3432 
Q 1894 3584 2278 3584 
Q 2916 3584 3314 3078 
Q 3713 2572 3713 1747 
Q 3713 922 3314 415 
Q 2916 -91 2278 -91 
Q 1894 -91 1617 61 
Q 1341 213 1159 525 
z
M 3116 1747 
Q 3116 2381 2855 2742 
Q 2594 3103 2138 3103 
Q 1681 3103 1420 2742 
Q 1159 2381 1159 1747 
Q 1159 1113 1420 752 
Q 1681 391 2138 391 
Q 2594 391 2855 752 
Q 3116 1113 3116 1747 
z
" transform="scale(0.015625)"/>
      <path id="DejaVuSans-63" d="M 3122 3366 
L 3122 2828 
Q 2878 2963 2633 3030 
Q 2388 3097 2138 3097 
Q 1578 3097 1268 2742 
Q 959 2388 959 1747 
Q 959 1106 1268 751 
Q 1578 397 2138 397 
Q 2388 397 2633 464 
Q 2878 531 3122 666 
L 3122 134 
Q 2881 22 2623 -34 
Q 2366 -91 2075 -91 
Q 1284 -91 818 406 
Q 353 903 353 1747 
Q 353 2603 823 3093 
Q 1294 3584 2113 3584 
Q 2378 3584 2631 3529 
Q 2884 3475 3122 3366 
z
" transform="scale(0.015625)"/>
      <path id="DejaVuSans-56" d="M 1831 0 
L 50 4666 
L 709 4666 
L 2188 738 
L 3669 4666 
L 4325 4666 
L 2547 0 
L 1831 0 
z
" transform="scale(0.015625)"/>
      <path id="DejaVuSans-6c" d="M 603 4863 
L 1178 4863 
L 1178 0 
L 603 0 
L 603 4863 
z
" transform="scale(0.015625)"/>
      <path id="DejaVuSans-6f" d="M 1959 3097 
Q 1497 3097 1228 2736 
Q 959 2375 959 1747 
Q 959 1119 1226 758 
Q 1494 397 1959 397 
Q 2419 397 2687 759 
Q 2956 1122 2956 1747 
Q 2956 2369 2687 2733 
Q 2419 3097 1959 3097 
z
M 1959 3584 
Q 2709 3584 3137 3096 
Q 3566 2609 3566 1747 
Q 3566 888 3137 398 
Q 2709 -91 1959 -91 
Q 1206 -91 779 398 
Q 353 888 353 1747 
Q 353 2609 779 3096 
Q 1206 3584 1959 3584 
z
" transform="scale(0.015625)"/>
      <path id="DejaVuSans-28" d="M 1984 4856 
Q 1566 4138 1362 3434 
Q 1159 2731 1159 2009 
Q 1159 1288 1364 580 
Q 1569 -128 1984 -844 
L 1484 -844 
Q 1016 -109 783 600 
Q 550 1309 550 2009 
Q 550 2706 781 3412 
Q 1013 4119 1484 4856 
L 1984 4856 
z
" transform="scale(0.015625)"/>
      <path id="DejaVuSans-77" d="M 269 3500 
L 844 3500 
L 1563 769 
L 2278 3500 
L 2956 3500 
L 3675 769 
L 4391 3500 
L 4966 3500 
L 4050 0 
L 3372 0 
L 2619 2869 
L 1863 0 
L 1184 0 
L 269 3500 
z
" transform="scale(0.015625)"/>
      <path id="DejaVuSans-68" d="M 3513 2113 
L 3513 0 
L 2938 0 
L 2938 2094 
Q 2938 2591 2744 2837 
Q 2550 3084 2163 3084 
Q 1697 3084 1428 2787 
Q 1159 2491 1159 1978 
L 1159 0 
L 581 0 
L 581 4863 
L 1159 4863 
L 1159 2956 
Q 1366 3272 1645 3428 
Q 1925 3584 2291 3584 
Q 2894 3584 3203 3211 
Q 3513 2838 3513 2113 
z
" transform="scale(0.015625)"/>
      <path id="DejaVuSans-45" d="M 628 4666 
L 3578 4666 
L 3578 4134 
L 1259 4134 
L 1259 2753 
L 3481 2753 
L 3481 2222 
L 1259 2222 
L 1259 531 
L 3634 531 
L 3634 0 
L 628 0 
L 628 4666 
z
" transform="scale(0.015625)"/>
      <path id="DejaVuSans-42" d="M 1259 2228 
L 1259 519 
L 2272 519 
Q 2781 519 3026 730 
Q 3272 941 3272 1375 
Q 3272 1813 3026 2020 
Q 2781 2228 2272 2228 
L 1259 2228 
z
M 1259 4147 
L 1259 2741 
L 2194 2741 
Q 2656 2741 2882 2914 
Q 3109 3088 3109 3444 
Q 3109 3797 2882 3972 
Q 2656 4147 2194 4147 
L 1259 4147 
z
M 628 4666 
L 2241 4666 
Q 2963 4666 3353 4366 
Q 3744 4066 3744 3513 
Q 3744 3084 3544 2831 
Q 3344 2578 2956 2516 
Q 3422 2416 3680 2098 
Q 3938 1781 3938 1306 
Q 3938 681 3513 340 
Q 3088 0 2303 0 
L 628 0 
L 628 4666 
z
" transform="scale(0.015625)"/>
      <path id="DejaVuSans-64" d="M 2906 2969 
L 2906 4863 
L 3481 4863 
L 3481 0 
L 2906 0 
L 2906 525 
Q 2725 213 2448 61 
Q 2172 -91 1784 -91 
Q 1150 -91 751 415 
Q 353 922 353 1747 
Q 353 2572 751 3078 
Q 1150 3584 1784 3584 
Q 2172 3584 2448 3432 
Q 2725 3281 2906 2969 
z
M 947 1747 
Q 947 1113 1208 752 
Q 1469 391 1925 391 
Q 2381 391 2643 752 
Q 2906 1113 2906 1747 
Q 2906 2381 2643 2742 
Q 2381 3103 1925 3103 
Q 1469 3103 1208 2742 
Q 947 2381 947 1747 
z
" transform="scale(0.015625)"/>
      <path id="DejaVuSans-29" d="M 513 4856 
L 1013 4856 
Q 1481 4119 1714 3412 
Q 1947 2706 1947 2009 
Q 1947 1309 1714 600 
Q 1481 -109 1013 -844 
L 513 -844 
Q 928 -128 1133 580 
Q 1338 1288 1338 2009 
Q 1338 2731 1133 3434 
Q 928 4138 513 4856 
z
" transform="scale(0.015625)"/>
     </defs>
     <use xlink:href="#DejaVuSans-32"/>
     <use xlink:href="#DejaVuSans-30" transform="translate(63.623047 0)"/>
     <use xlink:href="#DejaVuSans-32" transform="translate(127.246094 0)"/>
     <use xlink:href="#DejaVuSans-35" transform="translate(190.869141 0)"/>
     <use xlink:href="#DejaVuSans-2d" transform="translate(254.492188 0)"/>
     <use xlink:href="#DejaVuSans-30" transform="translate(290.576172 0)"/>
     <use xlink:href="#DejaVuSans-37" transform="translate(354.199219 0)"/>
     <use xlink:href="#DejaVuSans-2d" transform="translate(417.822266 0)"/>
     <use xlink:href="#DejaVuSans-31" transform="translate(453.90625 0)"/>
     <use xlink:href="#DejaVuSans-34" transform="translate(517.529297 0)"/>
     <use xlink:href="#DejaVuSans-20" transform="translate(581.152344 0)"/>
     <use xlink:href="#DejaVuSans-2d" transform="translate(612.939453 0)"/>
     <use xlink:href="#DejaVuSans-20" transform="translate(649.023438 0)"/>
     <use xlink:href="#DejaVuSans-53" transform="translate(680.810547 0)"/>
     <use xlink:href="#DejaVuSans-74" transform="translate(744.287109 0)"/>
     <use xlink:href="#DejaVuSans-72" transform="translate(783.496094 0)"/>
     <use xlink:href="#DejaVuSans-65" transform="translate(822.359375 0)"/>
     <use xlink:href="#DejaVuSans-73" transform="translate(883.882812 0)"/>
     <use xlink:href="#DejaVuSans-73" transform="translate(935.982422 0)"/>
     <use xlink:href="#DejaVuSans-20" transform="translate(988.082031 0)"/>
     <use xlink:href="#DejaVuSans-76" transform="translate(1019.869141 0)"/>
     <use xlink:href="#DejaVuSans-73" transform="translate(1079.048828 0)"/>
     <use xlink:href="#DejaVuSans-20" transform="translate(1131.148438 0)"/>
     <use xlink:href="#DejaVuSans-53" transform="translate(1162.935547 0)"/>
     <use xlink:href="#DejaVuSans-74" transform="translate(1226.412109 0)"/>
     <use xlink:href="#DejaVuSans-72" transform="translate(1265.621094 0)"/>
     <use xlink:href="#DejaVuSans-61" transform="translate(1306.734375 0)"/>
     <use xlink:href="#DejaVuSans-69" transform="translate(1368.013672 0)"/>
     <use xlink:href="#DejaVuSans-6e" transform="translate(1395.796875 0)"/>
     <use xlink:href="#DejaVuSans-20" transform="translate(1459.175781 0)"/>
     <use xlink:href="#DejaVuSans-62" transform="translate(1490.962891 0)"/>
     <use xlink:href="#DejaVuSans-79" transform="translate(1554.439453 0)"/>
     <use xlink:href="#DejaVuSans-20" transform="translate(1613.619141 0)"/>
     <use xlink:href="#DejaVuSans-49" transform="translate(1645.40625 0)"/>
     <use xlink:href="#DejaVuSans-6d" transform="translate(1674.898438 0)"/>
     <use xlink:href="#DejaVuSans-70" transform="translate(1772.310547 0)"/>
     <use xlink:href="#DejaVuSans-61" transform="translate(1835.787109 0)"/>
     <use xlink:href="#DejaVuSans-63" transform="translate(1897.066406 0)"/>
     <use xlink:href="#DejaVuSans-74" transform="translate(1952.046875 0)"/>
     <use xlink:href="#DejaVuSans-20" transform="translate(1991.255859 0)"/>
     <use xlink:href="#DejaVuSans-56" transform="translate(2023.042969 0)"/>
     <use xlink:href="#DejaVuSans-65" transform="translate(2083.701172 0)"/>
     <use xlink:href="#DejaVuSans-6c" transform="translate(2145.224609 0)"/>
     <use xlink:href="#DejaVuSans-6f" transform="translate(2173.007812 0)"/>
     <use xlink:href="#DejaVuSans-63" transform="translate(2234.189453 0)"/>
     <use xlink:href="#DejaVuSans-69" transform="translate(2289.169922 0)"/>
     <use xlink:href="#DejaVuSans-74" transform="translate(2316.953125 0)"/>
     <use xlink:href="#DejaVuSans-79" transform="translate(2356.162109 0)"/>
     <use xlink:href="#DejaVuSans-20" transform="translate(2415.341797 0)"/>
     <use xlink:href="#DejaVuSans-28" transform="translate(2447.128906 0)"/>
     <use xlink:href="#DejaVuSans-77" transform="translate(2486.142578 0)"/>
     <use xlink:href="#DejaVuSans-69" transform="translate(2567.929688 0)"/>
     <use xlink:href="#DejaVuSans-74" transform="translate(2595.712891 0)"/>
     <use xlink:href="#DejaVuSans-68" transform="translate(2634.921875 0)"/>
     <use xlink:href="#DejaVuSans-20" transform="translate(2698.300781 0)"/>
     <use xlink:href="#DejaVuSans-45" transform="translate(2730.087891 0)"/>
     <use xlink:href="#DejaVuSans-72" transform="translate(2793.271484 0)"/>
     <use xlink:href="#DejaVuSans-72" transform="translate(2832.634766 0)"/>
     <use xlink:href="#DejaVuSans-6f" transform="translate(2871.498047 0)"/>
     <use xlink:href="#DejaVuSans-72" transform="translate(2932.679688 0)"/>
     <use xlink:href="#DejaVuSans-20" transform="translate(2973.792969 0)"/>
     <use xlink:href="#DejaVuSans-42" transform="translate(3005.580078 0)"/>
     <use xlink:href="#DejaVuSans-61" transform="translate(3074.183594 0)"/>
     <use xlink:href="#DejaVuSans-6e" transform="translate(3135.462891 0)"/>
     <use xlink:href="#DejaVuSans-64" transform="translate(3198.841797 0)"/>
     <use xlink:href="#DejaVuSans-73" transform="translate(3262.318359 0)"/>
     <use xlink:href="#DejaVuSans-29" transform="translate(3314.417969 0)"/>
    </g>
   </g>
   <g id="legend_1">
    <g id="patch_7">
     <path d="M 64.17 122.94875 
L 172.193438 122.94875 
Q 174.193438 122.94875 174.193438 120.94875 
L 174.193438 33.88 
Q 174.193438 31.88 172.193438 31.88 
L 64.17 31.88 
Q 62.17 31.88 62.17 33.88 
L 62.17 120.94875 
Q 62.17 122.94875 64.17 122.94875 
z
" style="fill: #ffffff; opacity: 0.8; stroke: #cccccc; stroke-linejoin: miter"/>
    </g>
    <g id="text_14">
     <!-- Impact Velocity -->
     <g transform="translate(79.684062 43.478437) scale(0.1 -0.1)">
      <use xlink:href="#DejaVuSans-49"/>
      <use xlink:href="#DejaVuSans-6d" transform="translate(29.492188 0)"/>
      <use xlink:href="#DejaVuSans-70" transform="translate(126.904297 0)"/>
      <use xlink:href="#DejaVuSans-61" transform="translate(190.380859 0)"/>
      <use xlink:href="#DejaVuSans-63" transform="translate(251.660156 0)"/>
      <use xlink:href="#DejaVuSans-74" transform="translate(306.640625 0)"/>
      <use xlink:href="#DejaVuSans-20" transform="translate(345.849609 0)"/>
      <use xlink:href="#DejaVuSans-56" transform="translate(377.636719 0)"/>
      <use xlink:href="#DejaVuSans-65" transform="translate(438.294922 0)"/>
      <use xlink:href="#DejaVuSans-6c" transform="translate(499.818359 0)"/>
      <use xlink:href="#DejaVuSans-6f" transform="translate(527.601562 0)"/>
      <use xlink:href="#DejaVuSans-63" transform="translate(588.783203 0)"/>
      <use xlink:href="#DejaVuSans-69" transform="translate(643.763672 0)"/>
      <use xlink:href="#DejaVuSans-74" transform="translate(671.546875 0)"/>
      <use xlink:href="#DejaVuSans-79" transform="translate(710.755859 0)"/>
     </g>
    </g>
    <g id="line2d_26">
     <path d="M 66.17 54.656563 
L 76.17 54.656563 
L 86.17 54.656563 
" style="fill: none; stroke: #000000; stroke-width: 2; stroke-linecap: square"/>
    </g>
    <g id="text_15">
     <!-- 1 mm/s (n=13) -->
     <g transform="translate(94.17 58.156563) scale(0.1 -0.1)">
      <defs>
       <path id="DejaVuSans-2f" d="M 1625 4666 
L 2156 4666 
L 531 -594 
L 0 -594 
L 1625 4666 
z
" transform="scale(0.015625)"/>
       <path id="DejaVuSans-3d" d="M 678 2906 
L 4684 2906 
L 4684 2381 
L 678 2381 
L 678 2906 
z
M 678 1631 
L 4684 1631 
L 4684 1100 
L 678 1100 
L 678 1631 
z
" transform="scale(0.015625)"/>
       <path id="DejaVuSans-33" d="M 2597 2516 
Q 3050 2419 3304 2112 
Q 3559 1806 3559 1356 
Q 3559 666 3084 287 
Q 2609 -91 1734 -91 
Q 1441 -91 1130 -33 
Q 819 25 488 141 
L 488 750 
Q 750 597 1062 519 
Q 1375 441 1716 441 
Q 2309 441 2620 675 
Q 2931 909 2931 1356 
Q 2931 1769 2642 2001 
Q 2353 2234 1838 2234 
L 1294 2234 
L 1294 2753 
L 1863 2753 
Q 2328 2753 2575 2939 
Q 2822 3125 2822 3475 
Q 2822 3834 2567 4026 
Q 2313 4219 1838 4219 
Q 1578 4219 1281 4162 
Q 984 4106 628 3988 
L 628 4550 
Q 988 4650 1302 4700 
Q 1616 4750 1894 4750 
Q 2613 4750 3031 4423 
Q 3450 4097 3450 3541 
Q 3450 3153 3228 2886 
Q 3006 2619 2597 2516 
z
" transform="scale(0.015625)"/>
      </defs>
      <use xlink:href="#DejaVuSans-31"/>
      <use xlink:href="#DejaVuSans-20" transform="translate(63.623047 0)"/>
      <use xlink:href="#DejaVuSans-6d" transform="translate(95.410156 0)"/>
      <use xlink:href="#DejaVuSans-6d" transform="translate(192.822266 0)"/>
      <use xlink:href="#DejaVuSans-2f" transform="translate(290.234375 0)"/>
      <use xlink:href="#DejaVuSans-73" transform="translate(323.925781 0)"/>
      <use xlink:href="#DejaVuSans-20" transform="translate(376.025391 0)"/>
      <use xlink:href="#DejaVuSans-28" transform="translate(407.8125 0)"/>
      <use xlink:href="#DejaVuSans-6e" transform="translate(446.826172 0)"/>
      <use xlink:href="#DejaVuSans-3d" transform="translate(510.205078 0)"/>
      <use xlink:href="#DejaVuSans-31" transform="translate(593.994141 0)"/>
      <use xlink:href="#DejaVuSans-33" transform="translate(657.617188 0)"/>
      <use xlink:href="#DejaVuSans-29" transform="translate(721.240234 0)"/>
     </g>
    </g>
    <g id="line2d_27">
     <path d="M 66.17 69.334688 
L 76.17 69.334688 
L 86.17 69.334688 
" style="fill: none; stroke: #ff0000; stroke-width: 2; stroke-linecap: square"/>
    </g>
    <g id="text_16">
     <!-- 3 mm/s (n=8) -->
     <g transform="translate(94.17 72.834688) scale(0.1 -0.1)">
      <use xlink:href="#DejaVuSans-33"/>
      <use xlink:href="#DejaVuSans-20" transform="translate(63.623047 0)"/>
      <use xlink:href="#DejaVuSans-6d" transform="translate(95.410156 0)"/>
      <use xlink:href="#DejaVuSans-6d" transform="translate(192.822266 0)"/>
      <use xlink:href="#DejaVuSans-2f" transform="translate(290.234375 0)"/>
      <use xlink:href="#DejaVuSans-73" transform="translate(323.925781 0)"/>
      <use xlink:href="#DejaVuSans-20" transform="translate(376.025391 0)"/>
      <use xlink:href="#DejaVuSans-28" transform="translate(407.8125 0)"/>
      <use xlink:href="#DejaVuSans-6e" transform="translate(446.826172 0)"/>
      <use xlink:href="#DejaVuSans-3d" transform="translate(510.205078 0)"/>
      <use xlink:href="#DejaVuSans-38" transform="translate(593.994141 0)"/>
      <use xlink:href="#DejaVuSans-29" transform="translate(657.617188 0)"/>
     </g>
    </g>
    <g id="line2d_28">
     <path d="M 66.17 84.012812 
L 76.17 84.012812 
L 86.17 84.012812 
" style="fill: none; stroke: #0000ff; stroke-width: 2; stroke-linecap: square"/>
    </g>
    <g id="text_17">
     <!-- 5 mm/s (n=7) -->
     <g transform="translate(94.17 87.512812) scale(0.1 -0.1)">
      <use xlink:href="#DejaVuSans-35"/>
      <use xlink:href="#DejaVuSans-20" transform="translate(63.623047 0)"/>
      <use xlink:href="#DejaVuSans-6d" transform="translate(95.410156 0)"/>
      <use xlink:href="#DejaVuSans-6d" transform="translate(192.822266 0)"/>
      <use xlink:href="#DejaVuSans-2f" transform="translate(290.234375 0)"/>
      <use xlink:href="#DejaVuSans-73" transform="translate(323.925781 0)"/>
      <use xlink:href="#DejaVuSans-20" transform="translate(376.025391 0)"/>
      <use xlink:href="#DejaVuSans-28" transform="translate(407.8125 0)"/>
      <use xlink:href="#DejaVuSans-6e" transform="translate(446.826172 0)"/>
      <use xlink:href="#DejaVuSans-3d" transform="translate(510.205078 0)"/>
      <use xlink:href="#DejaVuSans-37" transform="translate(593.994141 0)"/>
      <use xlink:href="#DejaVuSans-29" transform="translate(657.617188 0)"/>
     </g>
    </g>
    <g id="line2d_29">
     <path d="M 66.17 98.690938 
L 76.17 98.690938 
L 86.17 98.690938 
" style="fill: none; stroke: #008000; stroke-width: 2; stroke-linecap: square"/>
    </g>
    <g id="text_18">
     <!-- 7 mm/s (n=6) -->
     <g transform="translate(94.17 102.190938) scale(0.1 -0.1)">
      <use xlink:href="#DejaVuSans-37"/>
      <use xlink:href="#DejaVuSans-20" transform="translate(63.623047 0)"/>
      <use xlink:href="#DejaVuSans-6d" transform="translate(95.410156 0)"/>
      <use xlink:href="#DejaVuSans-6d" transform="translate(192.822266 0)"/>
      <use xlink:href="#DejaVuSans-2f" transform="translate(290.234375 0)"/>
      <use xlink:href="#DejaVuSans-73" transform="translate(323.925781 0)"/>
      <use xlink:href="#DejaVuSans-20" transform="translate(376.025391 0)"/>
      <use xlink:href="#DejaVuSans-28" transform="translate(407.8125 0)"/>
      <use xlink:href="#DejaVuSans-6e" transform="translate(446.826172 0)"/>
      <use xlink:href="#DejaVuSans-3d" transform="translate(510.205078 0)"/>
      <use xlink:href="#DejaVuSans-36" transform="translate(593.994141 0)"/>
      <use xlink:href="#DejaVuSans-29" transform="translate(657.617188 0)"/>
     </g>
    </g>
    <g id="line2d_30">
     <path d="M 66.17 113.369063 
L 76.17 113.369063 
L 86.17 113.369063 
" style="fill: none; stroke: #bf00bf; stroke-width: 2; stroke-linecap: square"/>
    </g>
    <g id="text_19">
     <!-- 10 mm/s (n=6) -->
     <g transform="translate(94.17 116.869063) scale(0.1 -0.1)">
      <use xlink:href="#DejaVuSans-31"/>
      <use xlink:href="#DejaVuSans-30" transform="translate(63.623047 0)"/>
      <use xlink:href="#DejaVuSans-20" transform="translate(127.246094 0)"/>
      <use xlink:href="#DejaVuSans-6d" transform="translate(159.033203 0)"/>
      <use xlink:href="#DejaVuSans-6d" transform="translate(256.445312 0)"/>
      <use xlink:href="#DejaVuSans-2f" transform="translate(353.857422 0)"/>
      <use xlink:href="#DejaVuSans-73" transform="translate(387.548828 0)"/>
      <use xlink:href="#DejaVuSans-20" transform="translate(439.648438 0)"/>
      <use xlink:href="#DejaVuSans-28" transform="translate(471.435547 0)"/>
      <use xlink:href="#DejaVuSans-6e" transform="translate(510.449219 0)"/>
      <use xlink:href="#DejaVuSans-3d" transform="translate(573.828125 0)"/>
      <use xlink:href="#DejaVuSans-36" transform="translate(657.617188 0)"/>
      <use xlink:href="#DejaVuSans-29" transform="translate(721.240234 0)"/>
     </g>
    </g>
   </g>
  </g>
 </g>
 <defs>
  <clipPath id="p32ebb587ab">
   <rect x="57.17" y="26.88" width="392.83" height="276.76"/>
  </clipPath>
 </defs>
</svg>
