<?xml version="1.0" encoding="utf-8" standalone="no"?>
<!DOCTYPE svg PUBLIC "-//W3C//DTD SVG 1.1//EN"
  "http://www.w3.org/Graphics/SVG/1.1/DTD/svg11.dtd">
<svg xmlns:xlink="http://www.w3.org/1999/xlink" width="460.8pt" height="345.6pt" viewBox="0 0 460.8 345.6" xmlns="http://www.w3.org/2000/svg" version="1.1">
 <metadata>
  <rdf:RDF xmlns:dc="http://purl.org/dc/elements/1.1/" xmlns:cc="http://creativecommons.org/ns#" xmlns:rdf="http://www.w3.org/1999/02/22-rdf-syntax-ns#">
   <cc:Work>
    <dc:type rdf:resource="http://purl.org/dc/dcmitype/StillImage"/>
    <dc:date>2025-07-16T22:12:17.203319</dc:date>
    <dc:format>image/svg+xml</dc:format>
    <dc:creator>
     <cc:Agent>
      <dc:title>Matplotlib v3.10.3, https://matplotlib.org/</dc:title>
     </cc:Agent>
    </dc:creator>
   </cc:Work>
  </rdf:RDF>
 </metadata>
 <defs>
  <style type="text/css">*{stroke-linejoin: round; stroke-linecap: butt}</style>
 </defs>
 <g id="figure_1">
  <g id="patch_1">
   <path d="M 0 345.6 
L 460.8 345.6 
L 460.8 0 
L 0 0 
z
" style="fill: #ffffff"/>
  </g>
  <g id="axes_1">
   <g id="patch_2">
    <path d="M 57.6 307.584 
L 414.72 307.584 
L 414.72 41.472 
L 57.6 41.472 
z
" style="fill: #ffffff"/>
   </g>
   <g id="matplotlib.axis_1">
    <g id="xtick_1">
     <g id="line2d_1">
      <defs>
       <path id="m386c72a4f6" d="M 0 0 
L 0 3.5 
" style="stroke: #000000; stroke-width: 0.8"/>
      </defs>
      <g>
       <use xlink:href="#m386c72a4f6" x="74.06783" y="307.584" style="stroke: #000000; stroke-width: 0.8"/>
      </g>
     </g>
     <g id="text_1">
      <!-- 0.00 -->
      <g transform="translate(62.935018 322.182437) scale(0.1 -0.1)">
       <defs>
        <path id="DejaVuSans-30" d="M 2034 4250 
Q 1547 4250 1301 3770 
Q 1056 3291 1056 2328 
Q 1056 1369 1301 889 
Q 1547 409 2034 409 
Q 2525 409 2770 889 
Q 3016 1369 3016 2328 
Q 3016 3291 2770 3770 
Q 2525 4250 2034 4250 
z
M 2034 4750 
Q 2819 4750 3233 4129 
Q 3647 3509 3647 2328 
Q 3647 1150 3233 529 
Q 2819 -91 2034 -91 
Q 1250 -91 836 529 
Q 422 1150 422 2328 
Q 422 3509 836 4129 
Q 1250 4750 2034 4750 
z
" transform="scale(0.015625)"/>
        <path id="DejaVuSans-2e" d="M 684 794 
L 1344 794 
L 1344 0 
L 684 0 
L 684 794 
z
" transform="scale(0.015625)"/>
       </defs>
       <use xlink:href="#DejaVuSans-30"/>
       <use xlink:href="#DejaVuSans-2e" transform="translate(63.623047 0)"/>
       <use xlink:href="#DejaVuSans-30" transform="translate(95.410156 0)"/>
       <use xlink:href="#DejaVuSans-30" transform="translate(159.033203 0)"/>
      </g>
     </g>
    </g>
    <g id="xtick_2">
     <g id="line2d_2">
      <g>
       <use xlink:href="#m386c72a4f6" x="134.567501" y="307.584" style="stroke: #000000; stroke-width: 0.8"/>
      </g>
     </g>
     <g id="text_2">
      <!-- 0.02 -->
      <g transform="translate(123.434689 322.182437) scale(0.1 -0.1)">
       <defs>
        <path id="DejaVuSans-32" d="M 1228 531 
L 3431 531 
L 3431 0 
L 469 0 
L 469 531 
Q 828 903 1448 1529 
Q 2069 2156 2228 2338 
Q 2531 2678 2651 2914 
Q 2772 3150 2772 3378 
Q 2772 3750 2511 3984 
Q 2250 4219 1831 4219 
Q 1534 4219 1204 4116 
Q 875 4013 500 3803 
L 500 4441 
Q 881 4594 1212 4672 
Q 1544 4750 1819 4750 
Q 2544 4750 2975 4387 
Q 3406 4025 3406 3419 
Q 3406 3131 3298 2873 
Q 3191 2616 2906 2266 
Q 2828 2175 2409 1742 
Q 1991 1309 1228 531 
z
" transform="scale(0.015625)"/>
       </defs>
       <use xlink:href="#DejaVuSans-30"/>
       <use xlink:href="#DejaVuSans-2e" transform="translate(63.623047 0)"/>
       <use xlink:href="#DejaVuSans-30" transform="translate(95.410156 0)"/>
       <use xlink:href="#DejaVuSans-32" transform="translate(159.033203 0)"/>
      </g>
     </g>
    </g>
    <g id="xtick_3">
     <g id="line2d_3">
      <g>
       <use xlink:href="#m386c72a4f6" x="195.067172" y="307.584" style="stroke: #000000; stroke-width: 0.8"/>
      </g>
     </g>
     <g id="text_3">
      <!-- 0.04 -->
      <g transform="translate(183.93436 322.182437) scale(0.1 -0.1)">
       <defs>
        <path id="DejaVuSans-34" d="M 2419 4116 
L 825 1625 
L 2419 1625 
L 2419 4116 
z
M 2253 4666 
L 3047 4666 
L 3047 1625 
L 3713 1625 
L 3713 1100 
L 3047 1100 
L 3047 0 
L 2419 0 
L 2419 1100 
L 313 1100 
L 313 1709 
L 2253 4666 
z
" transform="scale(0.015625)"/>
       </defs>
       <use xlink:href="#DejaVuSans-30"/>
       <use xlink:href="#DejaVuSans-2e" transform="translate(63.623047 0)"/>
       <use xlink:href="#DejaVuSans-30" transform="translate(95.410156 0)"/>
       <use xlink:href="#DejaVuSans-34" transform="translate(159.033203 0)"/>
      </g>
     </g>
    </g>
    <g id="xtick_4">
     <g id="line2d_4">
      <g>
       <use xlink:href="#m386c72a4f6" x="255.566843" y="307.584" style="stroke: #000000; stroke-width: 0.8"/>
      </g>
     </g>
     <g id="text_4">
      <!-- 0.06 -->
      <g transform="translate(244.434031 322.182437) scale(0.1 -0.1)">
       <defs>
        <path id="DejaVuSans-36" d="M 2113 2584 
Q 1688 2584 1439 2293 
Q 1191 2003 1191 1497 
Q 1191 994 1439 701 
Q 1688 409 2113 409 
Q 2538 409 2786 701 
Q 3034 994 3034 1497 
Q 3034 2003 2786 2293 
Q 2538 2584 2113 2584 
z
M 3366 4563 
L 3366 3988 
Q 3128 4100 2886 4159 
Q 2644 4219 2406 4219 
Q 1781 4219 1451 3797 
Q 1122 3375 1075 2522 
Q 1259 2794 1537 2939 
Q 1816 3084 2150 3084 
Q 2853 3084 3261 2657 
Q 3669 2231 3669 1497 
Q 3669 778 3244 343 
Q 2819 -91 2113 -91 
Q 1303 -91 875 529 
Q 447 1150 447 2328 
Q 447 3434 972 4092 
Q 1497 4750 2381 4750 
Q 2619 4750 2861 4703 
Q 3103 4656 3366 4563 
z
" transform="scale(0.015625)"/>
       </defs>
       <use xlink:href="#DejaVuSans-30"/>
       <use xlink:href="#DejaVuSans-2e" transform="translate(63.623047 0)"/>
       <use xlink:href="#DejaVuSans-30" transform="translate(95.410156 0)"/>
       <use xlink:href="#DejaVuSans-36" transform="translate(159.033203 0)"/>
      </g>
     </g>
    </g>
    <g id="xtick_5">
     <g id="line2d_5">
      <g>
       <use xlink:href="#m386c72a4f6" x="316.066514" y="307.584" style="stroke: #000000; stroke-width: 0.8"/>
      </g>
     </g>
     <g id="text_5">
      <!-- 0.08 -->
      <g transform="translate(304.933702 322.182437) scale(0.1 -0.1)">
       <defs>
        <path id="DejaVuSans-38" d="M 2034 2216 
Q 1584 2216 1326 1975 
Q 1069 1734 1069 1313 
Q 1069 891 1326 650 
Q 1584 409 2034 409 
Q 2484 409 2743 651 
Q 3003 894 3003 1313 
Q 3003 1734 2745 1975 
Q 2488 2216 2034 2216 
z
M 1403 2484 
Q 997 2584 770 2862 
Q 544 3141 544 3541 
Q 544 4100 942 4425 
Q 1341 4750 2034 4750 
Q 2731 4750 3128 4425 
Q 3525 4100 3525 3541 
Q 3525 3141 3298 2862 
Q 3072 2584 2669 2484 
Q 3125 2378 3379 2068 
Q 3634 1759 3634 1313 
Q 3634 634 3220 271 
Q 2806 -91 2034 -91 
Q 1263 -91 848 271 
Q 434 634 434 1313 
Q 434 1759 690 2068 
Q 947 2378 1403 2484 
z
M 1172 3481 
Q 1172 3119 1398 2916 
Q 1625 2713 2034 2713 
Q 2441 2713 2670 2916 
Q 2900 3119 2900 3481 
Q 2900 3844 2670 4047 
Q 2441 4250 2034 4250 
Q 1625 4250 1398 4047 
Q 1172 3844 1172 3481 
z
" transform="scale(0.015625)"/>
       </defs>
       <use xlink:href="#DejaVuSans-30"/>
       <use xlink:href="#DejaVuSans-2e" transform="translate(63.623047 0)"/>
       <use xlink:href="#DejaVuSans-30" transform="translate(95.410156 0)"/>
       <use xlink:href="#DejaVuSans-38" transform="translate(159.033203 0)"/>
      </g>
     </g>
    </g>
    <g id="xtick_6">
     <g id="line2d_6">
      <g>
       <use xlink:href="#m386c72a4f6" x="376.566185" y="307.584" style="stroke: #000000; stroke-width: 0.8"/>
      </g>
     </g>
     <g id="text_6">
      <!-- 0.10 -->
      <g transform="translate(365.433373 322.182437) scale(0.1 -0.1)">
       <defs>
        <path id="DejaVuSans-31" d="M 794 531 
L 1825 531 
L 1825 4091 
L 703 3866 
L 703 4441 
L 1819 4666 
L 2450 4666 
L 2450 531 
L 3481 531 
L 3481 0 
L 794 0 
L 794 531 
z
" transform="scale(0.015625)"/>
       </defs>
       <use xlink:href="#DejaVuSans-30"/>
       <use xlink:href="#DejaVuSans-2e" transform="translate(63.623047 0)"/>
       <use xlink:href="#DejaVuSans-31" transform="translate(95.410156 0)"/>
       <use xlink:href="#DejaVuSans-30" transform="translate(159.033203 0)"/>
      </g>
     </g>
    </g>
    <g id="text_7">
     <!-- Strain -->
     <g transform="translate(221.348281 335.860562) scale(0.1 -0.1)">
      <defs>
       <path id="DejaVuSans-53" d="M 3425 4513 
L 3425 3897 
Q 3066 4069 2747 4153 
Q 2428 4238 2131 4238 
Q 1616 4238 1336 4038 
Q 1056 3838 1056 3469 
Q 1056 3159 1242 3001 
Q 1428 2844 1947 2747 
L 2328 2669 
Q 3034 2534 3370 2195 
Q 3706 1856 3706 1288 
Q 3706 609 3251 259 
Q 2797 -91 1919 -91 
Q 1588 -91 1214 -16 
Q 841 59 441 206 
L 441 856 
Q 825 641 1194 531 
Q 1563 422 1919 422 
Q 2459 422 2753 634 
Q 3047 847 3047 1241 
Q 3047 1584 2836 1778 
Q 2625 1972 2144 2069 
L 1759 2144 
Q 1053 2284 737 2584 
Q 422 2884 422 3419 
Q 422 4038 858 4394 
Q 1294 4750 2059 4750 
Q 2388 4750 2728 4690 
Q 3069 4631 3425 4513 
z
" transform="scale(0.015625)"/>
       <path id="DejaVuSans-74" d="M 1172 4494 
L 1172 3500 
L 2356 3500 
L 2356 3053 
L 1172 3053 
L 1172 1153 
Q 1172 725 1289 603 
Q 1406 481 1766 481 
L 2356 481 
L 2356 0 
L 1766 0 
Q 1100 0 847 248 
Q 594 497 594 1153 
L 594 3053 
L 172 3053 
L 172 3500 
L 594 3500 
L 594 4494 
L 1172 4494 
z
" transform="scale(0.015625)"/>
       <path id="DejaVuSans-72" d="M 2631 2963 
Q 2534 3019 2420 3045 
Q 2306 3072 2169 3072 
Q 1681 3072 1420 2755 
Q 1159 2438 1159 1844 
L 1159 0 
L 581 0 
L 581 3500 
L 1159 3500 
L 1159 2956 
Q 1341 3275 1631 3429 
Q 1922 3584 2338 3584 
Q 2397 3584 2469 3576 
Q 2541 3569 2628 3553 
L 2631 2963 
z
" transform="scale(0.015625)"/>
       <path id="DejaVuSans-61" d="M 2194 1759 
Q 1497 1759 1228 1600 
Q 959 1441 959 1056 
Q 959 750 1161 570 
Q 1363 391 1709 391 
Q 2188 391 2477 730 
Q 2766 1069 2766 1631 
L 2766 1759 
L 2194 1759 
z
M 3341 1997 
L 3341 0 
L 2766 0 
L 2766 531 
Q 2569 213 2275 61 
Q 1981 -91 1556 -91 
Q 1019 -91 701 211 
Q 384 513 384 1019 
Q 384 1609 779 1909 
Q 1175 2209 1959 2209 
L 2766 2209 
L 2766 2266 
Q 2766 2663 2505 2880 
Q 2244 3097 1772 3097 
Q 1472 3097 1187 3025 
Q 903 2953 641 2809 
L 641 3341 
Q 956 3463 1253 3523 
Q 1550 3584 1831 3584 
Q 2591 3584 2966 3190 
Q 3341 2797 3341 1997 
z
" transform="scale(0.015625)"/>
       <path id="DejaVuSans-69" d="M 603 3500 
L 1178 3500 
L 1178 0 
L 603 0 
L 603 3500 
z
M 603 4863 
L 1178 4863 
L 1178 4134 
L 603 4134 
L 603 4863 
z
" transform="scale(0.015625)"/>
       <path id="DejaVuSans-6e" d="M 3513 2113 
L 3513 0 
L 2938 0 
L 2938 2094 
Q 2938 2591 2744 2837 
Q 2550 3084 2163 3084 
Q 1697 3084 1428 2787 
Q 1159 2491 1159 1978 
L 1159 0 
L 581 0 
L 581 3500 
L 1159 3500 
L 1159 2956 
Q 1366 3272 1645 3428 
Q 1925 3584 2291 3584 
Q 2894 3584 3203 3211 
Q 3513 2838 3513 2113 
z
" transform="scale(0.015625)"/>
      </defs>
      <use xlink:href="#DejaVuSans-53"/>
      <use xlink:href="#DejaVuSans-74" transform="translate(63.476562 0)"/>
      <use xlink:href="#DejaVuSans-72" transform="translate(102.685547 0)"/>
      <use xlink:href="#DejaVuSans-61" transform="translate(143.798828 0)"/>
      <use xlink:href="#DejaVuSans-69" transform="translate(205.078125 0)"/>
      <use xlink:href="#DejaVuSans-6e" transform="translate(232.861328 0)"/>
     </g>
    </g>
   </g>
   <g id="matplotlib.axis_2">
    <g id="ytick_1">
     <g id="line2d_7">
      <defs>
       <path id="m01b7f16fc7" d="M 0 0 
L -3.5 0 
" style="stroke: #000000; stroke-width: 0.8"/>
      </defs>
      <g>
       <use xlink:href="#m01b7f16fc7" x="57.6" y="262.053778" style="stroke: #000000; stroke-width: 0.8"/>
      </g>
     </g>
     <g id="text_8">
      <!-- 0 -->
      <g transform="translate(44.2375 265.852997) scale(0.1 -0.1)">
       <use xlink:href="#DejaVuSans-30"/>
      </g>
     </g>
    </g>
    <g id="ytick_2">
     <g id="line2d_8">
      <g>
       <use xlink:href="#m01b7f16fc7" x="57.6" y="212.865776" style="stroke: #000000; stroke-width: 0.8"/>
      </g>
     </g>
     <g id="text_9">
      <!-- 200 -->
      <g transform="translate(31.5125 216.664994) scale(0.1 -0.1)">
       <use xlink:href="#DejaVuSans-32"/>
       <use xlink:href="#DejaVuSans-30" transform="translate(63.623047 0)"/>
       <use xlink:href="#DejaVuSans-30" transform="translate(127.246094 0)"/>
      </g>
     </g>
    </g>
    <g id="ytick_3">
     <g id="line2d_9">
      <g>
       <use xlink:href="#m01b7f16fc7" x="57.6" y="163.677773" style="stroke: #000000; stroke-width: 0.8"/>
      </g>
     </g>
     <g id="text_10">
      <!-- 400 -->
      <g transform="translate(31.5125 167.476992) scale(0.1 -0.1)">
       <use xlink:href="#DejaVuSans-34"/>
       <use xlink:href="#DejaVuSans-30" transform="translate(63.623047 0)"/>
       <use xlink:href="#DejaVuSans-30" transform="translate(127.246094 0)"/>
      </g>
     </g>
    </g>
    <g id="ytick_4">
     <g id="line2d_10">
      <g>
       <use xlink:href="#m01b7f16fc7" x="57.6" y="114.48977" style="stroke: #000000; stroke-width: 0.8"/>
      </g>
     </g>
     <g id="text_11">
      <!-- 600 -->
      <g transform="translate(31.5125 118.288989) scale(0.1 -0.1)">
       <use xlink:href="#DejaVuSans-36"/>
       <use xlink:href="#DejaVuSans-30" transform="translate(63.623047 0)"/>
       <use xlink:href="#DejaVuSans-30" transform="translate(127.246094 0)"/>
      </g>
     </g>
    </g>
    <g id="ytick_5">
     <g id="line2d_11">
      <g>
       <use xlink:href="#m01b7f16fc7" x="57.6" y="65.301768" style="stroke: #000000; stroke-width: 0.8"/>
      </g>
     </g>
     <g id="text_12">
      <!-- 800 -->
      <g transform="translate(31.5125 69.100987) scale(0.1 -0.1)">
       <use xlink:href="#DejaVuSans-38"/>
       <use xlink:href="#DejaVuSans-30" transform="translate(63.623047 0)"/>
       <use xlink:href="#DejaVuSans-30" transform="translate(127.246094 0)"/>
      </g>
     </g>
    </g>
    <g id="text_13">
     <!-- Stress [Pa] -->
     <g transform="translate(25.432812 201.235813) rotate(-90) scale(0.1 -0.1)">
      <defs>
       <path id="DejaVuSans-65" d="M 3597 1894 
L 3597 1613 
L 953 1613 
Q 991 1019 1311 708 
Q 1631 397 2203 397 
Q 2534 397 2845 478 
Q 3156 559 3463 722 
L 3463 178 
Q 3153 47 2828 -22 
Q 2503 -91 2169 -91 
Q 1331 -91 842 396 
Q 353 884 353 1716 
Q 353 2575 817 3079 
Q 1281 3584 2069 3584 
Q 2775 3584 3186 3129 
Q 3597 2675 3597 1894 
z
M 3022 2063 
Q 3016 2534 2758 2815 
Q 2500 3097 2075 3097 
Q 1594 3097 1305 2825 
Q 1016 2553 972 2059 
L 3022 2063 
z
" transform="scale(0.015625)"/>
       <path id="DejaVuSans-73" d="M 2834 3397 
L 2834 2853 
Q 2591 2978 2328 3040 
Q 2066 3103 1784 3103 
Q 1356 3103 1142 2972 
Q 928 2841 928 2578 
Q 928 2378 1081 2264 
Q 1234 2150 1697 2047 
L 1894 2003 
Q 2506 1872 2764 1633 
Q 3022 1394 3022 966 
Q 3022 478 2636 193 
Q 2250 -91 1575 -91 
Q 1294 -91 989 -36 
Q 684 19 347 128 
L 347 722 
Q 666 556 975 473 
Q 1284 391 1588 391 
Q 1994 391 2212 530 
Q 2431 669 2431 922 
Q 2431 1156 2273 1281 
Q 2116 1406 1581 1522 
L 1381 1569 
Q 847 1681 609 1914 
Q 372 2147 372 2553 
Q 372 3047 722 3315 
Q 1072 3584 1716 3584 
Q 2034 3584 2315 3537 
Q 2597 3491 2834 3397 
z
" transform="scale(0.015625)"/>
       <path id="DejaVuSans-20" transform="scale(0.015625)"/>
       <path id="DejaVuSans-5b" d="M 550 4863 
L 1875 4863 
L 1875 4416 
L 1125 4416 
L 1125 -397 
L 1875 -397 
L 1875 -844 
L 550 -844 
L 550 4863 
z
" transform="scale(0.015625)"/>
       <path id="DejaVuSans-50" d="M 1259 4147 
L 1259 2394 
L 2053 2394 
Q 2494 2394 2734 2622 
Q 2975 2850 2975 3272 
Q 2975 3691 2734 3919 
Q 2494 4147 2053 4147 
L 1259 4147 
z
M 628 4666 
L 2053 4666 
Q 2838 4666 3239 4311 
Q 3641 3956 3641 3272 
Q 3641 2581 3239 2228 
Q 2838 1875 2053 1875 
L 1259 1875 
L 1259 0 
L 628 0 
L 628 4666 
z
" transform="scale(0.015625)"/>
       <path id="DejaVuSans-5d" d="M 1947 4863 
L 1947 -844 
L 622 -844 
L 622 -397 
L 1369 -397 
L 1369 4416 
L 622 4416 
L 622 4863 
L 1947 4863 
z
" transform="scale(0.015625)"/>
      </defs>
      <use xlink:href="#DejaVuSans-53"/>
      <use xlink:href="#DejaVuSans-74" transform="translate(63.476562 0)"/>
      <use xlink:href="#DejaVuSans-72" transform="translate(102.685547 0)"/>
      <use xlink:href="#DejaVuSans-65" transform="translate(141.548828 0)"/>
      <use xlink:href="#DejaVuSans-73" transform="translate(203.072266 0)"/>
      <use xlink:href="#DejaVuSans-73" transform="translate(255.171875 0)"/>
      <use xlink:href="#DejaVuSans-20" transform="translate(307.271484 0)"/>
      <use xlink:href="#DejaVuSans-5b" transform="translate(339.058594 0)"/>
      <use xlink:href="#DejaVuSans-50" transform="translate(378.072266 0)"/>
      <use xlink:href="#DejaVuSans-61" transform="translate(433.875 0)"/>
      <use xlink:href="#DejaVuSans-5d" transform="translate(495.154297 0)"/>
     </g>
    </g>
   </g>
   <g id="line2d_12">
    <path d="M 74.06783 264.241952 
L 74.06783 264.160004 
L 74.07008 264.524511 
L 74.310979 264.289147 
L 75.404637 263.55301 
L 76.510667 261.358749 
L 77.621128 259.868171 
L 78.747868 260.785849 
L 80.933347 261.379877 
L 82.046899 261.238863 
L 83.183941 260.142316 
L 84.281833 258.239042 
L 85.366948 259.61692 
L 86.458245 260.441533 
L 87.612186 260.434251 
L 89.839701 259.492724 
L 90.980041 259.120792 
L 92.101011 260.216302 
L 93.212914 260.908902 
L 94.318429 255.063762 
L 95.403545 254.011074 
L 96.499788 254.511892 
L 98.693509 254.851792 
L 99.7914 255.338304 
L 100.900625 254.300132 
L 101.99563 252.082671 
L 103.110035 251.459982 
L 106.394641 251.239438 
L 107.521793 250.921507 
L 108.639466 249.471888 
L 109.727466 248.761206 
L 111.922012 248.413462 
L 113.047516 248.08722 
L 114.175079 247.38438 
L 116.381989 245.449479 
L 119.748196 244.317937 
L 120.877614 243.624365 
L 121.963554 242.482711 
L 123.074839 241.882527 
L 124.169433 241.544166 
L 126.398597 240.47918 
L 127.50267 239.868561 
L 128.629001 238.792753 
L 129.745025 237.9427 
L 131.91608 237.466462 
L 133.044881 236.949556 
L 136.406348 234.361523 
L 138.586882 233.534997 
L 139.714858 232.753027 
L 143.01121 229.844715 
L 145.204932 229.510031 
L 146.290871 229.126191 
L 147.41349 228.45919 
L 149.62246 226.023457 
L 150.741369 225.55736 
L 152.968885 224.862491 
L 154.050291 224.399116 
L 155.170849 223.624534 
L 156.29755 222.394973 
L 157.393793 221.527845 
L 160.700242 220.278935 
L 161.830279 219.669483 
L 162.912097 218.874681 
L 164.005455 217.85694 
L 165.109116 217.084626 
L 169.530353 214.888421 
L 170.661626 213.894789 
L 174.030512 211.530861 
L 175.140973 210.869045 
L 176.268536 210.522518 
L 178.473798 209.041013 
L 179.567155 208.375955 
L 181.783544 206.634312 
L 182.89195 205.941517 
L 183.987201 205.418239 
L 187.322499 203.218923 
L 189.545481 201.641114 
L 191.758985 200.453577 
L 196.203301 197.277738 
L 197.329216 196.628235 
L 198.410211 196.151379 
L 199.496562 195.434087 
L 200.583738 194.568774 
L 203.946236 192.370625 
L 205.071327 192.005952 
L 206.204249 191.354634 
L 209.46248 188.903475 
L 210.546603 188.132498 
L 211.62801 187.547932 
L 212.760931 187.089223 
L 213.892616 186.301874 
L 216.14692 184.345198 
L 220.673248 181.794884 
L 221.755066 180.984139 
L 222.843891 179.902109 
L 223.938485 179.045739 
L 225.031843 178.440823 
L 226.16394 177.951914 
L 228.387335 176.50372 
L 231.704705 173.639477 
L 233.931809 172.708254 
L 236.154379 171.47237 
L 238.34291 169.206473 
L 239.46182 168.371619 
L 241.659663 167.537868 
L 242.749311 166.969504 
L 243.880996 166.132706 
L 246.103979 164.20999 
L 247.220415 163.413503 
L 248.349216 162.882922 
L 250.593216 161.324295 
L 252.80301 159.328217 
L 253.89678 158.533933 
L 257.20323 157.008942 
L 260.556248 154.222598 
L 261.645485 153.324103 
L 262.746261 152.732019 
L 263.844976 152.327619 
L 264.928752 151.750692 
L 267.186353 149.920781 
L 269.36359 148.270127 
L 271.533821 146.925367 
L 272.667154 146.076256 
L 273.74856 145.412495 
L 275.943519 143.676814 
L 278.128998 142.432472 
L 284.724793 137.271961 
L 285.809496 136.718762 
L 286.927169 135.952994 
L 290.235473 133.394514 
L 291.365098 132.694979 
L 296.976516 128.584766 
L 299.159522 127.296777 
L 300.249583 126.599316 
L 302.516662 124.742704 
L 306.920178 122.04709 
L 310.230131 118.764448 
L 311.313598 118.046638 
L 313.519683 117.170631 
L 314.645598 116.359109 
L 315.739986 115.098209 
L 316.844471 114.043009 
L 319.033557 112.526362 
L 321.244175 111.422751 
L 322.354224 110.420694 
L 323.445934 109.183643 
L 324.5566 108.370047 
L 325.643364 107.729358 
L 326.749498 107.357928 
L 327.849038 106.807192 
L 328.982371 106.027944 
L 330.092626 104.985576 
L 331.209681 103.668164 
L 332.30716 102.642128 
L 333.438021 102.072467 
L 337.89944 98.990729 
L 340.092955 96.79945 
L 341.186725 96.072437 
L 342.30481 95.678924 
L 345.61126 93.120833 
L 347.828627 90.821373 
L 348.913742 90.131559 
L 351.142906 89.056139 
L 352.242858 88.411302 
L 355.551368 85.265793 
L 358.84195 83.111973 
L 359.946435 82.472579 
L 361.031139 81.62632 
L 362.157054 80.506442 
L 367.677213 76.487065 
L 368.76645 75.531022 
L 375.339681 70.698065 
L 377.525985 68.784551 
L 378.624288 68.113791 
L 380.809355 66.269881 
L 383.029453 64.496741 
L 384.16361 63.432598 
L 393.006497 56.569328 
L 394.117782 55.984697 
L 397.430516 54.692868 
L 397.870662 54.13267 
L 398.487273 53.568 
L 398.282964 55.084906 
L 398.172953 60.034841 
L 398.173108 79.548162 
L 398.173185 79.449379 
L 398.173442 81.74832 
L 398.172361 79.146759 
L 398.168214 81.364594 
L 397.077586 81.582688 
L 395.99721 84.638244 
L 394.88778 87.10029 
L 392.707246 86.243596 
L 389.328675 87.103709 
L 388.227487 86.948672 
L 387.100026 87.325578 
L 386.014911 86.988189 
L 384.887347 89.982825 
L 383.759371 91.875471 
L 381.486522 94.760452 
L 380.342473 96.748236 
L 379.220267 97.416987 
L 378.114133 96.548044 
L 377.026545 96.54657 
L 374.781308 97.646746 
L 373.668169 97.980928 
L 372.576047 98.877267 
L 371.471768 103.286786 
L 370.356156 104.807176 
L 369.254144 105.412238 
L 368.129877 105.463225 
L 367.040228 105.830944 
L 364.825076 107.156522 
L 363.720591 108.110492 
L 362.638154 109.5303 
L 359.300178 113.228619 
L 358.189923 113.811111 
L 357.086391 114.620787 
L 355.951821 115.189669 
L 353.726366 115.814561 
L 352.604984 116.878705 
L 349.30348 120.831977 
L 348.170559 121.655295 
L 345.944279 122.928767 
L 344.834849 123.712163 
L 342.626703 125.716796 
L 335.960229 130.958447 
L 333.750434 132.328483 
L 332.641622 133.386145 
L 331.531779 134.168893 
L 328.189939 137.296839 
L 324.898326 139.250922 
L 323.787247 140.136455 
L 321.558083 142.1407 
L 319.381671 143.775151 
L 317.199488 145.050308 
L 316.117258 146.156706 
L 313.939609 147.952659 
L 311.765669 149.586332 
L 309.503535 151.120202 
L 305.130516 154.223067 
L 304.04334 154.868164 
L 302.916446 155.80722 
L 300.664615 157.25334 
L 298.426384 159.36348 
L 297.306238 160.339485 
L 293.921898 162.650918 
L 292.835546 163.469051 
L 290.640588 164.795666 
L 288.430807 166.537698 
L 287.303655 167.178711 
L 286.181037 168.296256 
L 285.0918 169.0466 
L 283.981957 169.603558 
L 282.873351 170.310092 
L 279.599872 172.96708 
L 278.516405 173.665708 
L 276.347668 175.47672 
L 275.263789 175.980535 
L 274.134576 176.997239 
L 273.048637 177.696644 
L 271.955279 178.258268 
L 270.866867 178.948859 
L 269.733533 179.802248 
L 268.611327 180.499579 
L 265.280768 182.98042 
L 264.196065 183.749947 
L 263.092816 184.381174 
L 257.56627 188.199453 
L 256.481154 188.755762 
L 248.791705 193.863528 
L 247.703293 194.473888 
L 244.355219 196.971189 
L 242.139243 198.225219 
L 241.047946 198.98347 
L 239.915024 199.979435 
L 237.743145 201.412594 
L 236.641957 202.026712 
L 235.537472 202.432603 
L 234.449472 202.983858 
L 233.329738 203.779956 
L 229.998561 206.573429 
L 226.662027 208.52829 
L 225.548682 209.343053 
L 223.338475 210.65204 
L 222.244177 211.456118 
L 217.799037 213.894056 
L 213.334939 216.929262 
L 212.242817 217.611817 
L 211.145751 218.117447 
L 208.96192 219.528571 
L 207.866913 220.283192 
L 206.773556 220.895885 
L 204.609095 222.390611 
L 202.353967 223.845156 
L 201.233821 224.689212 
L 197.877917 226.596115 
L 192.35177 230.050467 
L 191.218024 230.603018 
L 187.865829 232.937134 
L 183.392665 235.451934 
L 181.22367 236.726961 
L 177.923403 238.656806 
L 175.737512 240.188602 
L 174.645802 240.725016 
L 173.564808 241.114511 
L 171.339971 242.511377 
L 169.113898 244.292942 
L 168.029388 244.992284 
L 165.825775 245.949041 
L 164.743133 246.356487 
L 162.509229 247.89956 
L 157.011943 250.747795 
L 155.879434 251.478049 
L 153.614827 252.528907 
L 152.501069 253.255013 
L 151.38793 254.185782 
L 149.163711 255.823603 
L 145.833359 257.459869 
L 143.59554 258.771902 
L 140.282948 260.479644 
L 138.070269 261.917209 
L 136.943941 262.762561 
L 134.69211 263.867404 
L 133.57114 264.702516 
L 132.447285 265.286694 
L 131.320546 266.152525 
L 130.237903 266.815638 
L 126.969369 268.317817 
L 122.515162 270.842662 
L 121.422629 271.407008 
L 120.331743 271.809334 
L 118.079913 273.247677 
L 116.953997 273.907939 
L 115.820252 274.379156 
L 112.559213 276.171032 
L 111.42794 277.074971 
L 110.346122 277.707235 
L 108.166412 278.617784 
L 107.033078 279.159058 
L 103.67635 281.245738 
L 101.468204 282.069282 
L 100.342291 282.460527 
L 97.014823 284.745518 
L 95.914459 285.326325 
L 94.802556 285.769675 
L 93.70178 286.03997 
L 90.369367 288.089256 
L 88.158749 289.415838 
L 87.068502 289.678301 
L 85.985035 290.124892 
L 84.857471 290.826889 
L 81.535773 292.46659 
L 80.439943 293.043768 
L 79.353591 293.322117 
L 78.251785 293.733178 
L 76.0253 293.940326 
L 74.937402 294.386528 
L 74.13356 295.404722 
L 74.089566 295.488 
L 73.83369 294.119931 
L 73.83369 294.119931 
" clip-path="url(#pd33b2092c7)" style="fill: none; stroke: #ff0000; stroke-width: 1.5; stroke-linecap: square"/>
   </g>
   <g id="line2d_13">
    <path d="M 74.06783 264.241952 
L 74.06783 264.160004 
L 74.07008 264.524511 
L 74.310979 264.289147 
L 75.404637 263.55301 
L 76.510667 261.358749 
L 77.621128 259.868171 
L 78.747868 260.785849 
L 79.848644 265.87465 
L 80.933347 264.904445 
L 82.046899 263.567859 
L 83.183941 261.788756 
L 84.281833 258.834301 
L 86.458245 260.441533 
L 87.612186 260.434251 
L 89.839701 259.492724 
L 90.980041 259.120792 
L 92.101011 260.216302 
L 93.212914 260.908902 
L 94.318429 255.063762 
L 95.403545 254.011074 
L 96.499788 254.511892 
L 98.693509 254.851792 
L 99.7914 255.338304 
L 100.900625 254.300132 
L 101.99563 252.082671 
L 103.110035 251.459982 
L 106.394641 251.239438 
L 107.521793 250.921507 
L 108.639466 249.471888 
L 109.727466 248.761206 
L 111.922012 248.413462 
L 113.047516 248.08722 
L 114.175079 247.38438 
L 116.381989 245.449479 
L 119.748196 244.317937 
L 120.877614 243.624365 
L 121.963554 242.482711 
L 123.074839 241.882527 
L 124.169433 241.544166 
L 126.398597 240.47918 
L 127.50267 239.868561 
L 128.629001 238.792753 
L 129.745025 237.9427 
L 131.91608 237.466462 
L 133.044881 236.949556 
L 136.406348 234.361523 
L 138.586882 233.534997 
L 139.714858 232.753027 
L 143.01121 229.844715 
L 145.204932 229.510031 
L 146.290871 229.126191 
L 147.41349 228.45919 
L 149.62246 226.023457 
L 150.741369 225.55736 
L 152.968885 224.862491 
L 154.050291 224.399116 
L 155.170849 223.624534 
L 156.29755 222.394973 
L 157.393793 221.527845 
L 160.700242 220.278935 
L 161.830279 219.669483 
L 162.912097 218.874681 
L 164.005455 217.85694 
L 165.109116 217.084626 
L 169.530353 214.888421 
L 170.661626 213.894789 
L 174.030512 211.530861 
L 175.140973 210.869045 
L 176.268536 210.522518 
L 178.473798 209.041013 
L 179.567155 208.375955 
L 181.783544 206.634312 
L 182.89195 205.941517 
L 183.987201 205.418239 
L 187.322499 203.218923 
L 189.545481 201.641114 
L 191.758985 200.453577 
L 196.203301 197.277738 
L 197.329216 196.628235 
L 198.410211 196.151379 
L 199.496562 195.434087 
L 200.583738 194.568774 
L 203.946236 192.370625 
L 205.071327 192.005952 
L 206.204249 191.354634 
L 209.46248 188.903475 
L 210.546603 188.132498 
L 211.62801 187.547932 
L 212.760931 187.089223 
L 213.892616 186.301874 
L 216.14692 184.345198 
L 220.673248 181.794884 
L 221.755066 180.984139 
L 222.843891 179.902109 
L 223.938485 179.045739 
L 225.031843 178.440823 
L 226.16394 177.951914 
L 228.387335 176.50372 
L 231.704705 173.639477 
L 233.931809 172.708254 
L 236.154379 171.47237 
L 238.34291 169.206473 
L 239.46182 168.371619 
L 241.659663 167.537868 
L 242.749311 166.969504 
L 243.880996 166.132706 
L 246.103979 164.20999 
L 247.220415 163.413503 
L 248.349216 162.882922 
L 250.593216 161.324295 
L 252.80301 159.328217 
L 253.89678 158.533933 
L 257.20323 157.008942 
L 260.556248 154.222598 
L 261.645485 153.324103 
L 262.746261 152.732019 
L 263.844976 152.327619 
L 264.928752 151.750692 
L 267.186353 149.920781 
L 269.36359 148.270127 
L 271.533821 146.925367 
L 272.667154 146.076256 
L 273.74856 145.412495 
L 275.943519 143.676814 
L 278.128998 142.432472 
L 284.724793 137.271961 
L 285.809496 136.718762 
L 286.927169 135.952994 
L 290.235473 133.394514 
L 291.365098 132.694979 
L 296.976516 128.584766 
L 299.159522 127.296777 
L 300.249583 126.599316 
L 302.516662 124.742704 
L 306.920178 122.04709 
L 310.230131 118.764448 
L 311.313598 118.046638 
L 313.519683 117.170631 
L 314.645598 116.359109 
L 315.739986 115.098209 
L 316.844471 114.043009 
L 319.033557 112.526362 
L 321.244175 111.422751 
L 322.354224 110.420694 
L 323.445934 109.183643 
L 324.5566 108.370047 
L 325.643364 107.729358 
L 326.749498 107.357928 
L 327.849038 106.807192 
L 328.982371 106.027944 
L 330.092626 104.985576 
L 331.209681 103.668164 
L 332.30716 102.642128 
L 333.438021 102.072467 
L 337.89944 98.990729 
L 340.092955 96.79945 
L 341.186725 96.072437 
L 342.30481 95.678924 
L 345.61126 93.120833 
L 347.828627 90.821373 
L 348.913742 90.131559 
L 351.142906 89.056139 
L 352.242858 88.411302 
L 355.551368 85.265793 
L 358.84195 83.111973 
L 359.946435 82.472579 
L 361.031139 81.62632 
L 362.157054 80.506442 
L 367.677213 76.487065 
L 368.76645 75.531022 
L 375.339681 70.698065 
L 377.525985 68.784551 
L 378.624288 68.113791 
L 380.809355 66.269881 
L 383.029453 64.496741 
L 384.16361 63.432598 
L 393.006497 56.569328 
L 394.117782 55.984697 
L 397.430516 54.692868 
L 397.870662 54.13267 
L 398.487273 53.568 
L 398.42633 53.958369 
L 398.347641 53.67921 
L 398.282964 53.846892 
L 398.237064 53.785567 
L 398.172129 69.029152 
L 398.174756 68.919108 
L 398.175065 74.633434 
L 398.174576 68.75508 
L 398.171073 74.369845 
L 398.173442 81.74832 
L 398.170429 74.155558 
L 398.168214 81.364594 
L 397.077586 81.582688 
L 395.99721 84.638244 
L 394.88778 87.10029 
L 392.707246 86.243596 
L 389.328675 87.103709 
L 388.227487 86.948672 
L 387.100026 87.325578 
L 386.014911 86.988189 
L 384.887347 89.982825 
L 383.759371 91.875471 
L 381.486522 94.760452 
L 380.342473 96.748236 
L 379.220267 97.416987 
L 378.114133 96.548044 
L 377.026545 96.54657 
L 374.781308 97.646746 
L 373.668169 97.980928 
L 372.576047 98.877267 
L 371.471768 103.286786 
L 370.356156 104.807176 
L 369.254144 105.412238 
L 368.129877 105.463225 
L 367.040228 105.830944 
L 364.825076 107.156522 
L 363.720591 108.110492 
L 362.638154 109.5303 
L 359.300178 113.228619 
L 358.189923 113.811111 
L 357.086391 114.620787 
L 355.951821 115.189669 
L 353.726366 115.814561 
L 352.604984 116.878705 
L 349.30348 120.831977 
L 348.170559 121.655295 
L 345.944279 122.928767 
L 344.834849 123.712163 
L 342.626703 125.716796 
L 335.960229 130.958447 
L 333.750434 132.328483 
L 332.641622 133.386145 
L 331.531779 134.168893 
L 328.189939 137.296839 
L 324.898326 139.250922 
L 323.787247 140.136455 
L 321.558083 142.1407 
L 319.381671 143.775151 
L 317.199488 145.050308 
L 316.117258 146.156706 
L 313.939609 147.952659 
L 311.765669 149.586332 
L 309.503535 151.120202 
L 305.130516 154.223067 
L 304.04334 154.868164 
L 302.916446 155.80722 
L 300.664615 157.25334 
L 298.426384 159.36348 
L 297.306238 160.339485 
L 293.921898 162.650918 
L 292.835546 163.469051 
L 290.640588 164.795666 
L 288.430807 166.537698 
L 287.303655 167.178711 
L 286.181037 168.296256 
L 285.0918 169.0466 
L 283.981957 169.603558 
L 282.873351 170.310092 
L 279.599872 172.96708 
L 278.516405 173.665708 
L 276.347668 175.47672 
L 275.263789 175.980535 
L 274.134576 176.997239 
L 273.048637 177.696644 
L 271.955279 178.258268 
L 270.866867 178.948859 
L 269.733533 179.802248 
L 268.611327 180.499579 
L 265.280768 182.98042 
L 264.196065 183.749947 
L 263.092816 184.381174 
L 257.56627 188.199453 
L 256.481154 188.755762 
L 248.791705 193.863528 
L 247.703293 194.473888 
L 244.355219 196.971189 
L 242.139243 198.225219 
L 241.047946 198.98347 
L 239.915024 199.979435 
L 237.743145 201.412594 
L 236.641957 202.026712 
L 235.537472 202.432603 
L 234.449472 202.983858 
L 233.329738 203.779956 
L 229.998561 206.573429 
L 226.662027 208.52829 
L 225.548682 209.343053 
L 223.338475 210.65204 
L 222.244177 211.456118 
L 217.799037 213.894056 
L 213.334939 216.929262 
L 212.242817 217.611817 
L 211.145751 218.117447 
L 208.96192 219.528571 
L 207.866913 220.283192 
L 206.773556 220.895885 
L 204.609095 222.390611 
L 202.353967 223.845156 
L 201.233821 224.689212 
L 197.877917 226.596115 
L 192.35177 230.050467 
L 191.218024 230.603018 
L 187.865829 232.937134 
L 183.392665 235.451934 
L 181.22367 236.726961 
L 177.923403 238.656806 
L 175.737512 240.188602 
L 174.645802 240.725016 
L 173.564808 241.114511 
L 171.339971 242.511377 
L 169.113898 244.292942 
L 168.029388 244.992284 
L 165.825775 245.949041 
L 164.743133 246.356487 
L 162.509229 247.89956 
L 157.011943 250.747795 
L 155.879434 251.478049 
L 153.614827 252.528907 
L 152.501069 253.255013 
L 151.38793 254.185782 
L 149.163711 255.823603 
L 145.833359 257.459869 
L 143.59554 258.771902 
L 140.282948 260.479644 
L 138.070269 261.917209 
L 136.943941 262.762561 
L 134.69211 263.867404 
L 133.57114 264.702516 
L 132.447285 265.286694 
L 131.320546 266.152525 
L 130.237903 266.815638 
L 126.969369 268.317817 
L 122.515162 270.842662 
L 121.422629 271.407008 
L 120.331743 271.809334 
L 118.079913 273.247677 
L 116.953997 273.907939 
L 115.820252 274.379156 
L 112.559213 276.171032 
L 111.42794 277.074971 
L 110.346122 277.707235 
L 108.166412 278.617784 
L 107.033078 279.159058 
L 103.67635 281.245738 
L 101.468204 282.069282 
L 100.342291 282.460527 
L 97.014823 284.745518 
L 95.914459 285.326325 
L 94.802556 285.769675 
L 93.70178 286.03997 
L 90.369367 288.089256 
L 88.158749 289.415838 
L 87.068502 289.678301 
L 85.985035 290.124892 
L 84.857471 290.826889 
L 81.535773 292.46659 
L 80.439943 293.043768 
L 79.353591 293.322117 
L 78.251785 293.733178 
L 76.0253 293.940326 
L 74.937402 294.386528 
L 74.13356 295.404722 
L 74.089566 295.488 
L 73.83369 294.119931 
L 73.83369 294.119931 
" clip-path="url(#pd33b2092c7)" style="fill: none; stroke: #000000; stroke-width: 1.5; stroke-linecap: square"/>
   </g>
   <g id="patch_3">
    <path d="M 57.6 307.584 
L 57.6 41.472 
" style="fill: none; stroke: #000000; stroke-width: 0.8; stroke-linejoin: miter; stroke-linecap: square"/>
   </g>
   <g id="patch_4">
    <path d="M 414.72 307.584 
L 414.72 41.472 
" style="fill: none; stroke: #000000; stroke-width: 0.8; stroke-linejoin: miter; stroke-linecap: square"/>
   </g>
   <g id="patch_5">
    <path d="M 57.6 307.584 
L 414.72 307.584 
" style="fill: none; stroke: #000000; stroke-width: 0.8; stroke-linejoin: miter; stroke-linecap: square"/>
   </g>
   <g id="patch_6">
    <path d="M 57.6 41.472 
L 414.72 41.472 
" style="fill: none; stroke: #000000; stroke-width: 0.8; stroke-linejoin: miter; stroke-linecap: square"/>
   </g>
   <g id="text_14">
    <!-- 2025-07-02 trial 6 -->
    <g transform="translate(181.83 35.472) scale(0.12 -0.12)">
     <defs>
      <path id="DejaVuSans-35" d="M 691 4666 
L 3169 4666 
L 3169 4134 
L 1269 4134 
L 1269 2991 
Q 1406 3038 1543 3061 
Q 1681 3084 1819 3084 
Q 2600 3084 3056 2656 
Q 3513 2228 3513 1497 
Q 3513 744 3044 326 
Q 2575 -91 1722 -91 
Q 1428 -91 1123 -41 
Q 819 9 494 109 
L 494 744 
Q 775 591 1075 516 
Q 1375 441 1709 441 
Q 2250 441 2565 725 
Q 2881 1009 2881 1497 
Q 2881 1984 2565 2268 
Q 2250 2553 1709 2553 
Q 1456 2553 1204 2497 
Q 953 2441 691 2322 
L 691 4666 
z
" transform="scale(0.015625)"/>
      <path id="DejaVuSans-2d" d="M 313 2009 
L 1997 2009 
L 1997 1497 
L 313 1497 
L 313 2009 
z
" transform="scale(0.015625)"/>
      <path id="DejaVuSans-37" d="M 525 4666 
L 3525 4666 
L 3525 4397 
L 1831 0 
L 1172 0 
L 2766 4134 
L 525 4134 
L 525 4666 
z
" transform="scale(0.015625)"/>
      <path id="DejaVuSans-6c" d="M 603 4863 
L 1178 4863 
L 1178 0 
L 603 0 
L 603 4863 
z
" transform="scale(0.015625)"/>
     </defs>
     <use xlink:href="#DejaVuSans-32"/>
     <use xlink:href="#DejaVuSans-30" transform="translate(63.623047 0)"/>
     <use xlink:href="#DejaVuSans-32" transform="translate(127.246094 0)"/>
     <use xlink:href="#DejaVuSans-35" transform="translate(190.869141 0)"/>
     <use xlink:href="#DejaVuSans-2d" transform="translate(254.492188 0)"/>
     <use xlink:href="#DejaVuSans-30" transform="translate(290.576172 0)"/>
     <use xlink:href="#DejaVuSans-37" transform="translate(354.199219 0)"/>
     <use xlink:href="#DejaVuSans-2d" transform="translate(417.822266 0)"/>
     <use xlink:href="#DejaVuSans-30" transform="translate(453.90625 0)"/>
     <use xlink:href="#DejaVuSans-32" transform="translate(517.529297 0)"/>
     <use xlink:href="#DejaVuSans-20" transform="translate(581.152344 0)"/>
     <use xlink:href="#DejaVuSans-74" transform="translate(612.939453 0)"/>
     <use xlink:href="#DejaVuSans-72" transform="translate(652.148438 0)"/>
     <use xlink:href="#DejaVuSans-69" transform="translate(693.261719 0)"/>
     <use xlink:href="#DejaVuSans-61" transform="translate(721.044922 0)"/>
     <use xlink:href="#DejaVuSans-6c" transform="translate(782.324219 0)"/>
     <use xlink:href="#DejaVuSans-20" transform="translate(810.107422 0)"/>
     <use xlink:href="#DejaVuSans-36" transform="translate(841.894531 0)"/>
    </g>
   </g>
  </g>
 </g>
 <defs>
  <clipPath id="pd33b2092c7">
   <rect x="57.6" y="41.472" width="357.12" height="266.112"/>
  </clipPath>
 </defs>
</svg>
