<?xml version="1.0" encoding="utf-8" standalone="no"?>
<!DOCTYPE svg PUBLIC "-//W3C//DTD SVG 1.1//EN"
  "http://www.w3.org/Graphics/SVG/1.1/DTD/svg11.dtd">
<svg xmlns:xlink="http://www.w3.org/1999/xlink" width="460.8pt" height="345.6pt" viewBox="0 0 460.8 345.6" xmlns="http://www.w3.org/2000/svg" version="1.1">
 <metadata>
  <rdf:RDF xmlns:dc="http://purl.org/dc/elements/1.1/" xmlns:cc="http://creativecommons.org/ns#" xmlns:rdf="http://www.w3.org/1999/02/22-rdf-syntax-ns#">
   <cc:Work>
    <dc:type rdf:resource="http://purl.org/dc/dcmitype/StillImage"/>
    <dc:date>2025-07-16T22:12:29.261628</dc:date>
    <dc:format>image/svg+xml</dc:format>
    <dc:creator>
     <cc:Agent>
      <dc:title>Matplotlib v3.10.3, https://matplotlib.org/</dc:title>
     </cc:Agent>
    </dc:creator>
   </cc:Work>
  </rdf:RDF>
 </metadata>
 <defs>
  <style type="text/css">*{stroke-linejoin: round; stroke-linecap: butt}</style>
 </defs>
 <g id="figure_1">
  <g id="patch_1">
   <path d="M 0 345.6 
L 460.8 345.6 
L 460.8 0 
L 0 0 
z
" style="fill: #ffffff"/>
  </g>
  <g id="axes_1">
   <g id="patch_2">
    <path d="M 57.6 307.584 
L 414.72 307.584 
L 414.72 41.472 
L 57.6 41.472 
z
" style="fill: #ffffff"/>
   </g>
   <g id="matplotlib.axis_1">
    <g id="xtick_1">
     <g id="line2d_1">
      <defs>
       <path id="m7489900dd1" d="M 0 0 
L 0 3.5 
" style="stroke: #000000; stroke-width: 0.8"/>
      </defs>
      <g>
       <use xlink:href="#m7489900dd1" x="73.968304" y="307.584" style="stroke: #000000; stroke-width: 0.8"/>
      </g>
     </g>
     <g id="text_1">
      <!-- 0.000 -->
      <g transform="translate(59.654242 322.182437) scale(0.1 -0.1)">
       <defs>
        <path id="DejaVuSans-30" d="M 2034 4250 
Q 1547 4250 1301 3770 
Q 1056 3291 1056 2328 
Q 1056 1369 1301 889 
Q 1547 409 2034 409 
Q 2525 409 2770 889 
Q 3016 1369 3016 2328 
Q 3016 3291 2770 3770 
Q 2525 4250 2034 4250 
z
M 2034 4750 
Q 2819 4750 3233 4129 
Q 3647 3509 3647 2328 
Q 3647 1150 3233 529 
Q 2819 -91 2034 -91 
Q 1250 -91 836 529 
Q 422 1150 422 2328 
Q 422 3509 836 4129 
Q 1250 4750 2034 4750 
z
" transform="scale(0.015625)"/>
        <path id="DejaVuSans-2e" d="M 684 794 
L 1344 794 
L 1344 0 
L 684 0 
L 684 794 
z
" transform="scale(0.015625)"/>
       </defs>
       <use xlink:href="#DejaVuSans-30"/>
       <use xlink:href="#DejaVuSans-2e" transform="translate(63.623047 0)"/>
       <use xlink:href="#DejaVuSans-30" transform="translate(95.410156 0)"/>
       <use xlink:href="#DejaVuSans-30" transform="translate(159.033203 0)"/>
       <use xlink:href="#DejaVuSans-30" transform="translate(222.65625 0)"/>
      </g>
     </g>
    </g>
    <g id="xtick_2">
     <g id="line2d_2">
      <g>
       <use xlink:href="#m7489900dd1" x="119.378865" y="307.584" style="stroke: #000000; stroke-width: 0.8"/>
      </g>
     </g>
     <g id="text_2">
      <!-- 0.025 -->
      <g transform="translate(105.064802 322.182437) scale(0.1 -0.1)">
       <defs>
        <path id="DejaVuSans-32" d="M 1228 531 
L 3431 531 
L 3431 0 
L 469 0 
L 469 531 
Q 828 903 1448 1529 
Q 2069 2156 2228 2338 
Q 2531 2678 2651 2914 
Q 2772 3150 2772 3378 
Q 2772 3750 2511 3984 
Q 2250 4219 1831 4219 
Q 1534 4219 1204 4116 
Q 875 4013 500 3803 
L 500 4441 
Q 881 4594 1212 4672 
Q 1544 4750 1819 4750 
Q 2544 4750 2975 4387 
Q 3406 4025 3406 3419 
Q 3406 3131 3298 2873 
Q 3191 2616 2906 2266 
Q 2828 2175 2409 1742 
Q 1991 1309 1228 531 
z
" transform="scale(0.015625)"/>
        <path id="DejaVuSans-35" d="M 691 4666 
L 3169 4666 
L 3169 4134 
L 1269 4134 
L 1269 2991 
Q 1406 3038 1543 3061 
Q 1681 3084 1819 3084 
Q 2600 3084 3056 2656 
Q 3513 2228 3513 1497 
Q 3513 744 3044 326 
Q 2575 -91 1722 -91 
Q 1428 -91 1123 -41 
Q 819 9 494 109 
L 494 744 
Q 775 591 1075 516 
Q 1375 441 1709 441 
Q 2250 441 2565 725 
Q 2881 1009 2881 1497 
Q 2881 1984 2565 2268 
Q 2250 2553 1709 2553 
Q 1456 2553 1204 2497 
Q 953 2441 691 2322 
L 691 4666 
z
" transform="scale(0.015625)"/>
       </defs>
       <use xlink:href="#DejaVuSans-30"/>
       <use xlink:href="#DejaVuSans-2e" transform="translate(63.623047 0)"/>
       <use xlink:href="#DejaVuSans-30" transform="translate(95.410156 0)"/>
       <use xlink:href="#DejaVuSans-32" transform="translate(159.033203 0)"/>
       <use xlink:href="#DejaVuSans-35" transform="translate(222.65625 0)"/>
      </g>
     </g>
    </g>
    <g id="xtick_3">
     <g id="line2d_3">
      <g>
       <use xlink:href="#m7489900dd1" x="164.789425" y="307.584" style="stroke: #000000; stroke-width: 0.8"/>
      </g>
     </g>
     <g id="text_3">
      <!-- 0.050 -->
      <g transform="translate(150.475363 322.182437) scale(0.1 -0.1)">
       <use xlink:href="#DejaVuSans-30"/>
       <use xlink:href="#DejaVuSans-2e" transform="translate(63.623047 0)"/>
       <use xlink:href="#DejaVuSans-30" transform="translate(95.410156 0)"/>
       <use xlink:href="#DejaVuSans-35" transform="translate(159.033203 0)"/>
       <use xlink:href="#DejaVuSans-30" transform="translate(222.65625 0)"/>
      </g>
     </g>
    </g>
    <g id="xtick_4">
     <g id="line2d_4">
      <g>
       <use xlink:href="#m7489900dd1" x="210.199986" y="307.584" style="stroke: #000000; stroke-width: 0.8"/>
      </g>
     </g>
     <g id="text_4">
      <!-- 0.075 -->
      <g transform="translate(195.885923 322.182437) scale(0.1 -0.1)">
       <defs>
        <path id="DejaVuSans-37" d="M 525 4666 
L 3525 4666 
L 3525 4397 
L 1831 0 
L 1172 0 
L 2766 4134 
L 525 4134 
L 525 4666 
z
" transform="scale(0.015625)"/>
       </defs>
       <use xlink:href="#DejaVuSans-30"/>
       <use xlink:href="#DejaVuSans-2e" transform="translate(63.623047 0)"/>
       <use xlink:href="#DejaVuSans-30" transform="translate(95.410156 0)"/>
       <use xlink:href="#DejaVuSans-37" transform="translate(159.033203 0)"/>
       <use xlink:href="#DejaVuSans-35" transform="translate(222.65625 0)"/>
      </g>
     </g>
    </g>
    <g id="xtick_5">
     <g id="line2d_5">
      <g>
       <use xlink:href="#m7489900dd1" x="255.610546" y="307.584" style="stroke: #000000; stroke-width: 0.8"/>
      </g>
     </g>
     <g id="text_5">
      <!-- 0.100 -->
      <g transform="translate(241.296483 322.182437) scale(0.1 -0.1)">
       <defs>
        <path id="DejaVuSans-31" d="M 794 531 
L 1825 531 
L 1825 4091 
L 703 3866 
L 703 4441 
L 1819 4666 
L 2450 4666 
L 2450 531 
L 3481 531 
L 3481 0 
L 794 0 
L 794 531 
z
" transform="scale(0.015625)"/>
       </defs>
       <use xlink:href="#DejaVuSans-30"/>
       <use xlink:href="#DejaVuSans-2e" transform="translate(63.623047 0)"/>
       <use xlink:href="#DejaVuSans-31" transform="translate(95.410156 0)"/>
       <use xlink:href="#DejaVuSans-30" transform="translate(159.033203 0)"/>
       <use xlink:href="#DejaVuSans-30" transform="translate(222.65625 0)"/>
      </g>
     </g>
    </g>
    <g id="xtick_6">
     <g id="line2d_6">
      <g>
       <use xlink:href="#m7489900dd1" x="301.021106" y="307.584" style="stroke: #000000; stroke-width: 0.8"/>
      </g>
     </g>
     <g id="text_6">
      <!-- 0.125 -->
      <g transform="translate(286.707044 322.182437) scale(0.1 -0.1)">
       <use xlink:href="#DejaVuSans-30"/>
       <use xlink:href="#DejaVuSans-2e" transform="translate(63.623047 0)"/>
       <use xlink:href="#DejaVuSans-31" transform="translate(95.410156 0)"/>
       <use xlink:href="#DejaVuSans-32" transform="translate(159.033203 0)"/>
       <use xlink:href="#DejaVuSans-35" transform="translate(222.65625 0)"/>
      </g>
     </g>
    </g>
    <g id="xtick_7">
     <g id="line2d_7">
      <g>
       <use xlink:href="#m7489900dd1" x="346.431667" y="307.584" style="stroke: #000000; stroke-width: 0.8"/>
      </g>
     </g>
     <g id="text_7">
      <!-- 0.150 -->
      <g transform="translate(332.117604 322.182437) scale(0.1 -0.1)">
       <use xlink:href="#DejaVuSans-30"/>
       <use xlink:href="#DejaVuSans-2e" transform="translate(63.623047 0)"/>
       <use xlink:href="#DejaVuSans-31" transform="translate(95.410156 0)"/>
       <use xlink:href="#DejaVuSans-35" transform="translate(159.033203 0)"/>
       <use xlink:href="#DejaVuSans-30" transform="translate(222.65625 0)"/>
      </g>
     </g>
    </g>
    <g id="xtick_8">
     <g id="line2d_8">
      <g>
       <use xlink:href="#m7489900dd1" x="391.842227" y="307.584" style="stroke: #000000; stroke-width: 0.8"/>
      </g>
     </g>
     <g id="text_8">
      <!-- 0.175 -->
      <g transform="translate(377.528165 322.182437) scale(0.1 -0.1)">
       <use xlink:href="#DejaVuSans-30"/>
       <use xlink:href="#DejaVuSans-2e" transform="translate(63.623047 0)"/>
       <use xlink:href="#DejaVuSans-31" transform="translate(95.410156 0)"/>
       <use xlink:href="#DejaVuSans-37" transform="translate(159.033203 0)"/>
       <use xlink:href="#DejaVuSans-35" transform="translate(222.65625 0)"/>
      </g>
     </g>
    </g>
    <g id="text_9">
     <!-- Strain -->
     <g transform="translate(221.348281 335.860562) scale(0.1 -0.1)">
      <defs>
       <path id="DejaVuSans-53" d="M 3425 4513 
L 3425 3897 
Q 3066 4069 2747 4153 
Q 2428 4238 2131 4238 
Q 1616 4238 1336 4038 
Q 1056 3838 1056 3469 
Q 1056 3159 1242 3001 
Q 1428 2844 1947 2747 
L 2328 2669 
Q 3034 2534 3370 2195 
Q 3706 1856 3706 1288 
Q 3706 609 3251 259 
Q 2797 -91 1919 -91 
Q 1588 -91 1214 -16 
Q 841 59 441 206 
L 441 856 
Q 825 641 1194 531 
Q 1563 422 1919 422 
Q 2459 422 2753 634 
Q 3047 847 3047 1241 
Q 3047 1584 2836 1778 
Q 2625 1972 2144 2069 
L 1759 2144 
Q 1053 2284 737 2584 
Q 422 2884 422 3419 
Q 422 4038 858 4394 
Q 1294 4750 2059 4750 
Q 2388 4750 2728 4690 
Q 3069 4631 3425 4513 
z
" transform="scale(0.015625)"/>
       <path id="DejaVuSans-74" d="M 1172 4494 
L 1172 3500 
L 2356 3500 
L 2356 3053 
L 1172 3053 
L 1172 1153 
Q 1172 725 1289 603 
Q 1406 481 1766 481 
L 2356 481 
L 2356 0 
L 1766 0 
Q 1100 0 847 248 
Q 594 497 594 1153 
L 594 3053 
L 172 3053 
L 172 3500 
L 594 3500 
L 594 4494 
L 1172 4494 
z
" transform="scale(0.015625)"/>
       <path id="DejaVuSans-72" d="M 2631 2963 
Q 2534 3019 2420 3045 
Q 2306 3072 2169 3072 
Q 1681 3072 1420 2755 
Q 1159 2438 1159 1844 
L 1159 0 
L 581 0 
L 581 3500 
L 1159 3500 
L 1159 2956 
Q 1341 3275 1631 3429 
Q 1922 3584 2338 3584 
Q 2397 3584 2469 3576 
Q 2541 3569 2628 3553 
L 2631 2963 
z
" transform="scale(0.015625)"/>
       <path id="DejaVuSans-61" d="M 2194 1759 
Q 1497 1759 1228 1600 
Q 959 1441 959 1056 
Q 959 750 1161 570 
Q 1363 391 1709 391 
Q 2188 391 2477 730 
Q 2766 1069 2766 1631 
L 2766 1759 
L 2194 1759 
z
M 3341 1997 
L 3341 0 
L 2766 0 
L 2766 531 
Q 2569 213 2275 61 
Q 1981 -91 1556 -91 
Q 1019 -91 701 211 
Q 384 513 384 1019 
Q 384 1609 779 1909 
Q 1175 2209 1959 2209 
L 2766 2209 
L 2766 2266 
Q 2766 2663 2505 2880 
Q 2244 3097 1772 3097 
Q 1472 3097 1187 3025 
Q 903 2953 641 2809 
L 641 3341 
Q 956 3463 1253 3523 
Q 1550 3584 1831 3584 
Q 2591 3584 2966 3190 
Q 3341 2797 3341 1997 
z
" transform="scale(0.015625)"/>
       <path id="DejaVuSans-69" d="M 603 3500 
L 1178 3500 
L 1178 0 
L 603 0 
L 603 3500 
z
M 603 4863 
L 1178 4863 
L 1178 4134 
L 603 4134 
L 603 4863 
z
" transform="scale(0.015625)"/>
       <path id="DejaVuSans-6e" d="M 3513 2113 
L 3513 0 
L 2938 0 
L 2938 2094 
Q 2938 2591 2744 2837 
Q 2550 3084 2163 3084 
Q 1697 3084 1428 2787 
Q 1159 2491 1159 1978 
L 1159 0 
L 581 0 
L 581 3500 
L 1159 3500 
L 1159 2956 
Q 1366 3272 1645 3428 
Q 1925 3584 2291 3584 
Q 2894 3584 3203 3211 
Q 3513 2838 3513 2113 
z
" transform="scale(0.015625)"/>
      </defs>
      <use xlink:href="#DejaVuSans-53"/>
      <use xlink:href="#DejaVuSans-74" transform="translate(63.476562 0)"/>
      <use xlink:href="#DejaVuSans-72" transform="translate(102.685547 0)"/>
      <use xlink:href="#DejaVuSans-61" transform="translate(143.798828 0)"/>
      <use xlink:href="#DejaVuSans-69" transform="translate(205.078125 0)"/>
      <use xlink:href="#DejaVuSans-6e" transform="translate(232.861328 0)"/>
     </g>
    </g>
   </g>
   <g id="matplotlib.axis_2">
    <g id="ytick_1">
     <g id="line2d_9">
      <defs>
       <path id="mcdb0eabd83" d="M 0 0 
L -3.5 0 
" style="stroke: #000000; stroke-width: 0.8"/>
      </defs>
      <g>
       <use xlink:href="#mcdb0eabd83" x="57.6" y="278.841199" style="stroke: #000000; stroke-width: 0.8"/>
      </g>
     </g>
     <g id="text_10">
      <!-- 0 -->
      <g transform="translate(44.2375 282.640417) scale(0.1 -0.1)">
       <use xlink:href="#DejaVuSans-30"/>
      </g>
     </g>
    </g>
    <g id="ytick_2">
     <g id="line2d_10">
      <g>
       <use xlink:href="#mcdb0eabd83" x="57.6" y="242.705547" style="stroke: #000000; stroke-width: 0.8"/>
      </g>
     </g>
     <g id="text_11">
      <!-- 250 -->
      <g transform="translate(31.5125 246.504766) scale(0.1 -0.1)">
       <use xlink:href="#DejaVuSans-32"/>
       <use xlink:href="#DejaVuSans-35" transform="translate(63.623047 0)"/>
       <use xlink:href="#DejaVuSans-30" transform="translate(127.246094 0)"/>
      </g>
     </g>
    </g>
    <g id="ytick_3">
     <g id="line2d_11">
      <g>
       <use xlink:href="#mcdb0eabd83" x="57.6" y="206.569895" style="stroke: #000000; stroke-width: 0.8"/>
      </g>
     </g>
     <g id="text_12">
      <!-- 500 -->
      <g transform="translate(31.5125 210.369114) scale(0.1 -0.1)">
       <use xlink:href="#DejaVuSans-35"/>
       <use xlink:href="#DejaVuSans-30" transform="translate(63.623047 0)"/>
       <use xlink:href="#DejaVuSans-30" transform="translate(127.246094 0)"/>
      </g>
     </g>
    </g>
    <g id="ytick_4">
     <g id="line2d_12">
      <g>
       <use xlink:href="#mcdb0eabd83" x="57.6" y="170.434243" style="stroke: #000000; stroke-width: 0.8"/>
      </g>
     </g>
     <g id="text_13">
      <!-- 750 -->
      <g transform="translate(31.5125 174.233462) scale(0.1 -0.1)">
       <use xlink:href="#DejaVuSans-37"/>
       <use xlink:href="#DejaVuSans-35" transform="translate(63.623047 0)"/>
       <use xlink:href="#DejaVuSans-30" transform="translate(127.246094 0)"/>
      </g>
     </g>
    </g>
    <g id="ytick_5">
     <g id="line2d_13">
      <g>
       <use xlink:href="#mcdb0eabd83" x="57.6" y="134.298592" style="stroke: #000000; stroke-width: 0.8"/>
      </g>
     </g>
     <g id="text_14">
      <!-- 1000 -->
      <g transform="translate(25.15 138.09781) scale(0.1 -0.1)">
       <use xlink:href="#DejaVuSans-31"/>
       <use xlink:href="#DejaVuSans-30" transform="translate(63.623047 0)"/>
       <use xlink:href="#DejaVuSans-30" transform="translate(127.246094 0)"/>
       <use xlink:href="#DejaVuSans-30" transform="translate(190.869141 0)"/>
      </g>
     </g>
    </g>
    <g id="ytick_6">
     <g id="line2d_14">
      <g>
       <use xlink:href="#mcdb0eabd83" x="57.6" y="98.16294" style="stroke: #000000; stroke-width: 0.8"/>
      </g>
     </g>
     <g id="text_15">
      <!-- 1250 -->
      <g transform="translate(25.15 101.962159) scale(0.1 -0.1)">
       <use xlink:href="#DejaVuSans-31"/>
       <use xlink:href="#DejaVuSans-32" transform="translate(63.623047 0)"/>
       <use xlink:href="#DejaVuSans-35" transform="translate(127.246094 0)"/>
       <use xlink:href="#DejaVuSans-30" transform="translate(190.869141 0)"/>
      </g>
     </g>
    </g>
    <g id="ytick_7">
     <g id="line2d_15">
      <g>
       <use xlink:href="#mcdb0eabd83" x="57.6" y="62.027288" style="stroke: #000000; stroke-width: 0.8"/>
      </g>
     </g>
     <g id="text_16">
      <!-- 1500 -->
      <g transform="translate(25.15 65.826507) scale(0.1 -0.1)">
       <use xlink:href="#DejaVuSans-31"/>
       <use xlink:href="#DejaVuSans-35" transform="translate(63.623047 0)"/>
       <use xlink:href="#DejaVuSans-30" transform="translate(127.246094 0)"/>
       <use xlink:href="#DejaVuSans-30" transform="translate(190.869141 0)"/>
      </g>
     </g>
    </g>
    <g id="text_17">
     <!-- Stress [Pa] -->
     <g transform="translate(19.070312 201.235813) rotate(-90) scale(0.1 -0.1)">
      <defs>
       <path id="DejaVuSans-65" d="M 3597 1894 
L 3597 1613 
L 953 1613 
Q 991 1019 1311 708 
Q 1631 397 2203 397 
Q 2534 397 2845 478 
Q 3156 559 3463 722 
L 3463 178 
Q 3153 47 2828 -22 
Q 2503 -91 2169 -91 
Q 1331 -91 842 396 
Q 353 884 353 1716 
Q 353 2575 817 3079 
Q 1281 3584 2069 3584 
Q 2775 3584 3186 3129 
Q 3597 2675 3597 1894 
z
M 3022 2063 
Q 3016 2534 2758 2815 
Q 2500 3097 2075 3097 
Q 1594 3097 1305 2825 
Q 1016 2553 972 2059 
L 3022 2063 
z
" transform="scale(0.015625)"/>
       <path id="DejaVuSans-73" d="M 2834 3397 
L 2834 2853 
Q 2591 2978 2328 3040 
Q 2066 3103 1784 3103 
Q 1356 3103 1142 2972 
Q 928 2841 928 2578 
Q 928 2378 1081 2264 
Q 1234 2150 1697 2047 
L 1894 2003 
Q 2506 1872 2764 1633 
Q 3022 1394 3022 966 
Q 3022 478 2636 193 
Q 2250 -91 1575 -91 
Q 1294 -91 989 -36 
Q 684 19 347 128 
L 347 722 
Q 666 556 975 473 
Q 1284 391 1588 391 
Q 1994 391 2212 530 
Q 2431 669 2431 922 
Q 2431 1156 2273 1281 
Q 2116 1406 1581 1522 
L 1381 1569 
Q 847 1681 609 1914 
Q 372 2147 372 2553 
Q 372 3047 722 3315 
Q 1072 3584 1716 3584 
Q 2034 3584 2315 3537 
Q 2597 3491 2834 3397 
z
" transform="scale(0.015625)"/>
       <path id="DejaVuSans-20" transform="scale(0.015625)"/>
       <path id="DejaVuSans-5b" d="M 550 4863 
L 1875 4863 
L 1875 4416 
L 1125 4416 
L 1125 -397 
L 1875 -397 
L 1875 -844 
L 550 -844 
L 550 4863 
z
" transform="scale(0.015625)"/>
       <path id="DejaVuSans-50" d="M 1259 4147 
L 1259 2394 
L 2053 2394 
Q 2494 2394 2734 2622 
Q 2975 2850 2975 3272 
Q 2975 3691 2734 3919 
Q 2494 4147 2053 4147 
L 1259 4147 
z
M 628 4666 
L 2053 4666 
Q 2838 4666 3239 4311 
Q 3641 3956 3641 3272 
Q 3641 2581 3239 2228 
Q 2838 1875 2053 1875 
L 1259 1875 
L 1259 0 
L 628 0 
L 628 4666 
z
" transform="scale(0.015625)"/>
       <path id="DejaVuSans-5d" d="M 1947 4863 
L 1947 -844 
L 622 -844 
L 622 -397 
L 1369 -397 
L 1369 4416 
L 622 4416 
L 622 4863 
L 1947 4863 
z
" transform="scale(0.015625)"/>
      </defs>
      <use xlink:href="#DejaVuSans-53"/>
      <use xlink:href="#DejaVuSans-74" transform="translate(63.476562 0)"/>
      <use xlink:href="#DejaVuSans-72" transform="translate(102.685547 0)"/>
      <use xlink:href="#DejaVuSans-65" transform="translate(141.548828 0)"/>
      <use xlink:href="#DejaVuSans-73" transform="translate(203.072266 0)"/>
      <use xlink:href="#DejaVuSans-73" transform="translate(255.171875 0)"/>
      <use xlink:href="#DejaVuSans-20" transform="translate(307.271484 0)"/>
      <use xlink:href="#DejaVuSans-5b" transform="translate(339.058594 0)"/>
      <use xlink:href="#DejaVuSans-50" transform="translate(378.072266 0)"/>
      <use xlink:href="#DejaVuSans-61" transform="translate(433.875 0)"/>
      <use xlink:href="#DejaVuSans-5d" transform="translate(495.154297 0)"/>
     </g>
    </g>
   </g>
   <g id="line2d_16">
    <path d="M 73.968304 278.713512 
L 73.968304 278.699762 
L 73.967701 278.982303 
L 73.966949 278.818166 
L 74.233219 278.508926 
L 74.906332 274.504456 
L 75.565092 272.9689 
L 76.279284 273.312153 
L 76.964275 273.231777 
L 77.641348 272.318872 
L 78.402064 271.08054 
L 79.129125 270.536027 
L 82.817387 271.139967 
L 84.170541 271.660713 
L 86.279958 272.949018 
L 88.390364 274.36987 
L 89.079315 274.292322 
L 90.430489 273.322742 
L 91.096672 272.787675 
L 91.757907 272.424463 
L 92.413202 272.343449 
L 93.065527 272.506315 
L 94.653281 273.142088 
L 95.416472 272.910015 
L 97.597171 270.669494 
L 101.674453 267.869229 
L 102.985043 266.972779 
L 110.461543 263.200191 
L 111.996834 262.417397 
L 118.939794 258.723119 
L 120.892811 257.753539 
L 122.850777 256.906756 
L 124.810723 255.877148 
L 127.424974 254.664716 
L 128.727645 254.030923 
L 131.331007 252.58478 
L 133.291943 251.528968 
L 135.920053 250.168142 
L 137.237572 249.515154 
L 138.556081 248.849367 
L 140.527901 247.913609 
L 143.919202 245.886997 
L 152.611265 240.474472 
L 154.588038 239.332123 
L 159.89573 236.781716 
L 161.216219 236.086068 
L 162.530003 235.544226 
L 176.229827 226.856397 
L 178.20561 225.824656 
L 182.774858 223.131648 
L 187.417356 220.244846 
L 188.956607 219.277399 
L 190.495857 218.232556 
L 208.246731 207.14759 
L 212.042888 204.348544 
L 215.878641 202.041906 
L 219.74409 199.468343 
L 222.072268 198.015801 
L 226.713776 194.827948 
L 229.027462 193.223956 
L 232.879053 190.69153 
L 242.204634 184.121419 
L 244.177448 182.84835 
L 246.152242 181.40952 
L 255.681736 174.754092 
L 259.534317 171.582083 
L 262.267352 169.628297 
L 270.841621 163.947324 
L 272.150231 162.922896 
L 273.578616 161.602292 
L 275.904814 159.688727 
L 278.228043 157.67278 
L 282.269689 154.545869 
L 284.910667 152.67801 
L 288.227727 150.576745 
L 290.862765 148.640631 
L 292.169396 147.561965 
L 293.596667 146.37689 
L 295.922865 144.393242 
L 297.473004 143.182333 
L 299.676459 141.3291 
L 306.244257 136.082031 
L 308.22796 134.625528 
L 310.857059 132.474291 
L 312.16072 131.543104 
L 323.628383 121.526139 
L 325.166644 120.098278 
L 332.876754 113.902968 
L 342.061773 105.68317 
L 346.753765 101.508672 
L 352.762286 96.610799 
L 365.862557 83.97826 
L 368.195684 81.850181 
L 369.750773 80.242542 
L 372.860949 77.299065 
L 379.067445 70.99405 
L 380.495829 69.380927 
L 383.108101 67.043209 
L 384.416711 65.724433 
L 387.907988 62.956467 
L 390.122331 61.48808 
L 394.259005 59.021166 
L 394.974682 58.531196 
L 396.338973 57.015579 
L 397.012333 56.058492 
L 398.199591 53.747702 
L 398.487273 55.002812 
L 398.326357 78.458459 
L 398.329172 78.40782 
L 398.329667 78.961836 
L 398.327625 78.940811 
L 398.330254 78.787943 
L 398.327872 84.469449 
L 397.671495 84.641914 
L 396.348964 87.641 
L 395.016845 87.707941 
L 393.66171 88.401304 
L 392.990577 88.798947 
L 392.329343 88.813954 
L 391.651528 89.260104 
L 390.993511 89.31956 
L 390.335494 91.30077 
L 388.997775 93.950662 
L 388.335799 94.718221 
L 387.68471 94.708375 
L 386.322895 95.369667 
L 384.994487 96.406511 
L 384.334861 97.081515 
L 383.670781 99.492973 
L 383.004597 100.676001 
L 382.344724 101.222799 
L 381.690914 101.590201 
L 381.02473 101.80262 
L 379.67999 102.997075 
L 378.342054 104.819685 
L 375.022891 108.209712 
L 374.348541 109.232921 
L 373.672211 109.845383 
L 372.338111 110.695899 
L 370.982359 111.913054 
L 369.640711 113.938143 
L 368.311808 115.250062 
L 366.990082 116.311817 
L 365.662664 117.742115 
L 364.331658 119.127926 
L 361.664697 121.679245 
L 353.055906 129.882979 
L 351.750513 131.118112 
L 349.088006 133.76709 
L 348.408706 134.270239 
L 343.720674 138.70389 
L 342.401423 139.813788 
L 340.390746 141.784334 
L 339.741205 142.461423 
L 337.105671 144.543872 
L 335.10811 146.475568 
L 333.768072 147.460003 
L 333.100666 147.879357 
L 329.79004 150.847211 
L 327.821433 152.376996 
L 327.170592 152.956094 
L 326.520742 153.686783 
L 321.948076 157.457838 
L 321.290059 158.033126 
L 320.635011 158.41005 
L 314.658166 163.421351 
L 313.355495 164.260135 
L 310.102529 166.753407 
L 295.48992 178.063219 
L 294.816065 178.50893 
L 292.150464 180.742819 
L 290.155641 181.96644 
L 288.824016 183.09005 
L 288.148429 183.668233 
L 286.169428 184.712277 
L 284.853888 185.626857 
L 284.198098 186.278475 
L 282.877362 187.234496 
L 281.544129 188.350336 
L 280.229084 189.106849 
L 278.246124 190.380756 
L 276.915984 191.429941 
L 274.934508 192.684728 
L 272.908627 194.175835 
L 270.945464 195.32805 
L 268.923899 196.924642 
L 267.62197 197.734594 
L 265.002523 199.756863 
L 263.658029 200.31863 
L 263.003972 200.624252 
L 262.337664 201.10432 
L 261.023362 202.367943 
L 259.67194 203.221887 
L 258.330308 203.951595 
L 256.349699 205.394006 
L 255.691434 205.685764 
L 243.141841 213.838983 
L 239.825029 215.727848 
L 239.158103 216.31761 
L 236.531231 217.948559 
L 235.853911 218.257151 
L 233.833335 219.673052 
L 232.483893 220.436841 
L 231.164889 221.411906 
L 227.848571 223.296295 
L 226.523009 224.381893 
L 225.175779 224.854695 
L 223.849351 225.530384 
L 221.872701 227.025129 
L 219.205491 228.063382 
L 217.864834 229.24184 
L 216.554739 230.012751 
L 214.56188 230.989492 
L 212.556647 232.20619 
L 211.895166 232.433826 
L 209.926806 233.558731 
L 207.266696 235.199763 
L 205.947073 236.163859 
L 203.295215 237.284612 
L 201.955795 238.410508 
L 200.620829 239.023735 
L 198.608544 239.939201 
L 197.949784 240.521345 
L 195.958781 241.720523 
L 191.98457 243.770602 
L 189.371061 245.18117 
L 188.720963 245.654153 
L 187.414085 246.260712 
L 186.108692 246.974414 
L 185.457356 247.200545 
L 183.476623 248.310177 
L 182.825535 248.51456 
L 180.12368 250.15145 
L 178.772505 250.918895 
L 177.417866 251.444516 
L 174.756519 252.932076 
L 169.426926 255.725904 
L 168.762103 256.202924 
L 165.468429 257.604908 
L 164.135814 258.628803 
L 163.45701 258.903916 
L 162.123653 259.25964 
L 161.473802 259.491332 
L 159.473465 260.69161 
L 158.146047 261.103368 
L 156.806998 261.943743 
L 155.458793 262.763331 
L 154.80424 263.119306 
L 152.814351 263.723113 
L 150.803798 264.770889 
L 150.153947 265.044935 
L 149.498652 265.18472 
L 148.181256 265.762446 
L 147.524477 266.282278 
L 145.534587 267.279282 
L 144.210866 267.845301 
L 143.544558 268.38433 
L 142.868847 268.75813 
L 140.20634 269.658636 
L 138.20371 270.711859 
L 135.524375 271.675783 
L 133.517533 273.025181 
L 132.177742 273.495317 
L 130.84785 273.802304 
L 129.512884 274.642307 
L 126.827331 275.823127 
L 124.85229 276.614682 
L 121.536715 278.339023 
L 120.2187 278.738762 
L 118.205549 279.733176 
L 117.54283 279.930931 
L 116.219619 280.514142 
L 115.567788 280.715002 
L 114.238886 281.442873 
L 113.576167 281.495578 
L 112.918397 281.672385 
L 109.592799 283.324093 
L 107.607117 284.121513 
L 104.232273 285.458209 
L 98.299477 287.668388 
L 96.320724 288.613896 
L 93.678457 289.339485 
L 90.348034 290.833258 
L 89.690759 291.002295 
L 88.346389 291.467717 
L 86.370111 292.075743 
L 85.693533 292.141311 
L 82.986234 293.299391 
L 82.312627 293.700539 
L 81.003026 293.930167 
L 77.076104 295.420322 
L 76.398042 295.488 
L 74.425846 295.17061 
L 73.95077 295.35478 
L 73.833212 293.92802 
L 73.833212 293.92802 
" clip-path="url(#p2a7862e05f)" style="fill: none; stroke: #ff0000; stroke-width: 1.5; stroke-linecap: square"/>
   </g>
   <g id="line2d_17">
    <path d="M 73.968304 278.713512 
L 73.968304 278.699762 
L 73.967701 278.982303 
L 73.966949 278.818166 
L 74.233219 278.508926 
L 74.906332 274.504456 
L 75.565092 272.9689 
L 76.279284 273.312153 
L 76.964275 273.231777 
L 77.641348 272.318872 
L 78.402064 279.839051 
L 79.129125 279.049553 
L 80.490198 278.314179 
L 82.006682 277.036968 
L 84.170541 276.050933 
L 85.5722 275.17825 
L 86.988706 274.610274 
L 89.079315 274.292322 
L 90.430489 273.322742 
L 91.096672 272.787675 
L 91.757907 272.424463 
L 92.413202 272.343449 
L 93.065527 272.506315 
L 94.653281 273.142088 
L 95.416472 272.910015 
L 97.597171 270.669494 
L 101.674453 267.869229 
L 102.985043 266.972779 
L 110.461543 263.200191 
L 111.996834 262.417397 
L 118.939794 258.723119 
L 120.892811 257.753539 
L 122.850777 256.906756 
L 124.810723 255.877148 
L 127.424974 254.664716 
L 128.727645 254.030923 
L 131.331007 252.58478 
L 133.291943 251.528968 
L 135.920053 250.168142 
L 137.237572 249.515154 
L 138.556081 248.849367 
L 140.527901 247.913609 
L 143.919202 245.886997 
L 152.611265 240.474472 
L 154.588038 239.332123 
L 159.89573 236.781716 
L 161.216219 236.086068 
L 162.530003 235.544226 
L 176.229827 226.856397 
L 178.20561 225.824656 
L 182.774858 223.131648 
L 187.417356 220.244846 
L 188.956607 219.277399 
L 190.495857 218.232556 
L 208.246731 207.14759 
L 212.042888 204.348544 
L 215.878641 202.041906 
L 219.74409 199.468343 
L 222.072268 198.015801 
L 226.713776 194.827948 
L 229.027462 193.223956 
L 232.879053 190.69153 
L 242.204634 184.121419 
L 244.177448 182.84835 
L 246.152242 181.40952 
L 255.681736 174.754092 
L 259.534317 171.582083 
L 262.267352 169.628297 
L 270.841621 163.947324 
L 272.150231 162.922896 
L 273.578616 161.602292 
L 275.904814 159.688727 
L 278.228043 157.67278 
L 282.269689 154.545869 
L 284.910667 152.67801 
L 288.227727 150.576745 
L 290.862765 148.640631 
L 292.169396 147.561965 
L 293.596667 146.37689 
L 295.922865 144.393242 
L 297.473004 143.182333 
L 299.676459 141.3291 
L 306.244257 136.082031 
L 308.22796 134.625528 
L 310.857059 132.474291 
L 312.16072 131.543104 
L 323.628383 121.526139 
L 325.166644 120.098278 
L 332.876754 113.902968 
L 342.061773 105.68317 
L 346.753765 101.508672 
L 352.762286 96.610799 
L 365.862557 83.97826 
L 368.195684 81.850181 
L 369.750773 80.242542 
L 372.860949 77.299065 
L 377.515326 72.536204 
L 381.148155 68.649722 
L 382.454785 67.305732 
L 385.070026 64.297275 
L 391.501717 57.193622 
L 392.874669 55.865858 
L 394.259005 54.791202 
L 396.338973 53.769783 
L 397.676413 54.479067 
L 398.199591 53.568 
L 398.487273 54.916418 
L 398.329543 78.188602 
L 398.329543 77.951558 
L 398.327872 84.469449 
L 397.671495 84.641914 
L 396.348964 87.641 
L 395.016845 87.707941 
L 393.66171 88.401304 
L 392.990577 88.798947 
L 392.329343 88.813954 
L 391.651528 89.260104 
L 390.993511 89.31956 
L 390.335494 91.30077 
L 388.997775 93.950662 
L 388.335799 94.718221 
L 387.68471 94.708375 
L 386.322895 95.369667 
L 384.994487 96.406511 
L 384.334861 97.081515 
L 383.670781 99.492973 
L 383.004597 100.676001 
L 382.344724 101.222799 
L 381.690914 101.590201 
L 381.02473 101.80262 
L 379.67999 102.997075 
L 378.342054 104.819685 
L 375.022891 108.209712 
L 374.348541 109.232921 
L 373.672211 109.845383 
L 372.338111 110.695899 
L 370.982359 111.913054 
L 369.640711 113.938143 
L 368.311808 115.250062 
L 366.990082 116.311817 
L 365.662664 117.742115 
L 364.331658 119.127926 
L 361.664697 121.679245 
L 353.055906 129.882979 
L 351.750513 131.118112 
L 349.088006 133.76709 
L 348.408706 134.270239 
L 343.720674 138.70389 
L 342.401423 139.813788 
L 340.390746 141.784334 
L 339.741205 142.461423 
L 337.105671 144.543872 
L 335.10811 146.475568 
L 333.768072 147.460003 
L 333.100666 147.879357 
L 329.79004 150.847211 
L 327.821433 152.376996 
L 327.170592 152.956094 
L 326.520742 153.686783 
L 321.948076 157.457838 
L 321.290059 158.033126 
L 320.635011 158.41005 
L 314.658166 163.421351 
L 313.355495 164.260135 
L 310.102529 166.753407 
L 295.48992 178.063219 
L 294.816065 178.50893 
L 292.150464 180.742819 
L 290.155641 181.96644 
L 288.824016 183.09005 
L 288.148429 183.668233 
L 286.169428 184.712277 
L 284.853888 185.626857 
L 284.198098 186.278475 
L 282.877362 187.234496 
L 281.544129 188.350336 
L 280.229084 189.106849 
L 278.246124 190.380756 
L 276.915984 191.429941 
L 274.934508 192.684728 
L 272.908627 194.175835 
L 270.945464 195.32805 
L 268.923899 196.924642 
L 267.62197 197.734594 
L 265.002523 199.756863 
L 263.658029 200.31863 
L 263.003972 200.624252 
L 262.337664 201.10432 
L 261.023362 202.367943 
L 259.67194 203.221887 
L 258.330308 203.951595 
L 256.349699 205.394006 
L 255.691434 205.685764 
L 243.141841 213.838983 
L 239.825029 215.727848 
L 239.158103 216.31761 
L 236.531231 217.948559 
L 235.853911 218.257151 
L 233.833335 219.673052 
L 232.483893 220.436841 
L 231.164889 221.411906 
L 227.848571 223.296295 
L 226.523009 224.381893 
L 225.175779 224.854695 
L 223.849351 225.530384 
L 221.872701 227.025129 
L 219.205491 228.063382 
L 217.864834 229.24184 
L 216.554739 230.012751 
L 214.56188 230.989492 
L 212.556647 232.20619 
L 211.895166 232.433826 
L 209.926806 233.558731 
L 207.266696 235.199763 
L 205.947073 236.163859 
L 203.295215 237.284612 
L 201.955795 238.410508 
L 200.620829 239.023735 
L 198.608544 239.939201 
L 197.949784 240.521345 
L 195.958781 241.720523 
L 191.98457 243.770602 
L 189.371061 245.18117 
L 188.720963 245.654153 
L 187.414085 246.260712 
L 186.108692 246.974414 
L 185.457356 247.200545 
L 183.476623 248.310177 
L 182.825535 248.51456 
L 180.12368 250.15145 
L 178.772505 250.918895 
L 177.417866 251.444516 
L 174.756519 252.932076 
L 169.426926 255.725904 
L 168.762103 256.202924 
L 165.468429 257.604908 
L 164.135814 258.628803 
L 163.45701 258.903916 
L 162.123653 259.25964 
L 161.473802 259.491332 
L 159.473465 260.69161 
L 158.146047 261.103368 
L 156.806998 261.943743 
L 155.458793 262.763331 
L 154.80424 263.119306 
L 152.814351 263.723113 
L 150.803798 264.770889 
L 150.153947 265.044935 
L 149.498652 265.18472 
L 148.181256 265.762446 
L 147.524477 266.282278 
L 145.534587 267.279282 
L 144.210866 267.845301 
L 143.544558 268.38433 
L 142.868847 268.75813 
L 140.20634 269.658636 
L 138.20371 270.711859 
L 135.524375 271.675783 
L 133.517533 273.025181 
L 132.177742 273.495317 
L 130.84785 273.802304 
L 129.512884 274.642307 
L 126.827331 275.823127 
L 124.85229 276.614682 
L 121.536715 278.339023 
L 120.2187 278.738762 
L 118.205549 279.733176 
L 117.54283 279.930931 
L 116.219619 280.514142 
L 115.567788 280.715002 
L 114.238886 281.442873 
L 113.576167 281.495578 
L 112.918397 281.672385 
L 109.592799 283.324093 
L 107.607117 284.121513 
L 104.232273 285.458209 
L 98.299477 287.668388 
L 96.320724 288.613896 
L 93.678457 289.339485 
L 90.348034 290.833258 
L 89.690759 291.002295 
L 88.346389 291.467717 
L 86.370111 292.075743 
L 85.693533 292.141311 
L 82.986234 293.299391 
L 82.312627 293.700539 
L 81.003026 293.930167 
L 77.076104 295.420322 
L 76.398042 295.488 
L 74.425846 295.17061 
L 73.95077 295.35478 
L 73.833212 293.92802 
L 73.833212 293.92802 
" clip-path="url(#p2a7862e05f)" style="fill: none; stroke: #000000; stroke-width: 1.5; stroke-linecap: square"/>
   </g>
   <g id="patch_3">
    <path d="M 57.6 307.584 
L 57.6 41.472 
" style="fill: none; stroke: #000000; stroke-width: 0.8; stroke-linejoin: miter; stroke-linecap: square"/>
   </g>
   <g id="patch_4">
    <path d="M 414.72 307.584 
L 414.72 41.472 
" style="fill: none; stroke: #000000; stroke-width: 0.8; stroke-linejoin: miter; stroke-linecap: square"/>
   </g>
   <g id="patch_5">
    <path d="M 57.6 307.584 
L 414.72 307.584 
" style="fill: none; stroke: #000000; stroke-width: 0.8; stroke-linejoin: miter; stroke-linecap: square"/>
   </g>
   <g id="patch_6">
    <path d="M 57.6 41.472 
L 414.72 41.472 
" style="fill: none; stroke: #000000; stroke-width: 0.8; stroke-linejoin: miter; stroke-linecap: square"/>
   </g>
   <g id="text_18">
    <!-- 2025-07-02 trial 24 -->
    <g transform="translate(178.0125 35.472) scale(0.12 -0.12)">
     <defs>
      <path id="DejaVuSans-2d" d="M 313 2009 
L 1997 2009 
L 1997 1497 
L 313 1497 
L 313 2009 
z
" transform="scale(0.015625)"/>
      <path id="DejaVuSans-6c" d="M 603 4863 
L 1178 4863 
L 1178 0 
L 603 0 
L 603 4863 
z
" transform="scale(0.015625)"/>
      <path id="DejaVuSans-34" d="M 2419 4116 
L 825 1625 
L 2419 1625 
L 2419 4116 
z
M 2253 4666 
L 3047 4666 
L 3047 1625 
L 3713 1625 
L 3713 1100 
L 3047 1100 
L 3047 0 
L 2419 0 
L 2419 1100 
L 313 1100 
L 313 1709 
L 2253 4666 
z
" transform="scale(0.015625)"/>
     </defs>
     <use xlink:href="#DejaVuSans-32"/>
     <use xlink:href="#DejaVuSans-30" transform="translate(63.623047 0)"/>
     <use xlink:href="#DejaVuSans-32" transform="translate(127.246094 0)"/>
     <use xlink:href="#DejaVuSans-35" transform="translate(190.869141 0)"/>
     <use xlink:href="#DejaVuSans-2d" transform="translate(254.492188 0)"/>
     <use xlink:href="#DejaVuSans-30" transform="translate(290.576172 0)"/>
     <use xlink:href="#DejaVuSans-37" transform="translate(354.199219 0)"/>
     <use xlink:href="#DejaVuSans-2d" transform="translate(417.822266 0)"/>
     <use xlink:href="#DejaVuSans-30" transform="translate(453.90625 0)"/>
     <use xlink:href="#DejaVuSans-32" transform="translate(517.529297 0)"/>
     <use xlink:href="#DejaVuSans-20" transform="translate(581.152344 0)"/>
     <use xlink:href="#DejaVuSans-74" transform="translate(612.939453 0)"/>
     <use xlink:href="#DejaVuSans-72" transform="translate(652.148438 0)"/>
     <use xlink:href="#DejaVuSans-69" transform="translate(693.261719 0)"/>
     <use xlink:href="#DejaVuSans-61" transform="translate(721.044922 0)"/>
     <use xlink:href="#DejaVuSans-6c" transform="translate(782.324219 0)"/>
     <use xlink:href="#DejaVuSans-20" transform="translate(810.107422 0)"/>
     <use xlink:href="#DejaVuSans-32" transform="translate(841.894531 0)"/>
     <use xlink:href="#DejaVuSans-34" transform="translate(905.517578 0)"/>
    </g>
   </g>
  </g>
 </g>
 <defs>
  <clipPath id="p2a7862e05f">
   <rect x="57.6" y="41.472" width="357.12" height="266.112"/>
  </clipPath>
 </defs>
</svg>
