<?xml version="1.0" encoding="utf-8" standalone="no"?>
<!DOCTYPE svg PUBLIC "-//W3C//DTD SVG 1.1//EN"
  "http://www.w3.org/Graphics/SVG/1.1/DTD/svg11.dtd">
<svg xmlns:xlink="http://www.w3.org/1999/xlink" width="432pt" height="288pt" viewBox="0 0 432 288" xmlns="http://www.w3.org/2000/svg" version="1.1">
 <metadata>
  <rdf:RDF xmlns:dc="http://purl.org/dc/elements/1.1/" xmlns:cc="http://creativecommons.org/ns#" xmlns:rdf="http://www.w3.org/1999/02/22-rdf-syntax-ns#">
   <cc:Work>
    <dc:type rdf:resource="http://purl.org/dc/dcmitype/StillImage"/>
    <dc:date>2025-07-03T20:54:21.248369</dc:date>
    <dc:format>image/svg+xml</dc:format>
    <dc:creator>
     <cc:Agent>
      <dc:title>Matplotlib v3.9.2, https://matplotlib.org/</dc:title>
     </cc:Agent>
    </dc:creator>
   </cc:Work>
  </rdf:RDF>
 </metadata>
 <defs>
  <style type="text/css">*{stroke-linejoin: round; stroke-linecap: butt}</style>
 </defs>
 <g id="figure_1">
  <g id="patch_1">
   <path d="M 0 288 
L 432 288 
L 432 0 
L 0 0 
z
" style="fill: #ffffff"/>
  </g>
  <g id="axes_1">
   <g id="patch_2">
    <path d="M 54 256.32 
L 388.8 256.32 
L 388.8 34.56 
L 54 34.56 
z
" style="fill: #ffffff"/>
   </g>
   <g id="matplotlib.axis_1">
    <g id="xtick_1">
     <g id="line2d_1">
      <defs>
       <path id="mcf508b96a0" d="M 0 0 
L 0 3.5 
" style="stroke: #000000; stroke-width: 0.8"/>
      </defs>
      <g>
       <use xlink:href="#mcf508b96a0" x="69.885032" y="256.32" style="stroke: #000000; stroke-width: 0.8"/>
      </g>
     </g>
     <g id="text_1">
      <!-- 0.000 -->
      <g transform="translate(55.57097 270.918437) scale(0.1 -0.1)">
       <defs>
        <path id="DejaVuSans-30" d="M 2034 4250 
Q 1547 4250 1301 3770 
Q 1056 3291 1056 2328 
Q 1056 1369 1301 889 
Q 1547 409 2034 409 
Q 2525 409 2770 889 
Q 3016 1369 3016 2328 
Q 3016 3291 2770 3770 
Q 2525 4250 2034 4250 
z
M 2034 4750 
Q 2819 4750 3233 4129 
Q 3647 3509 3647 2328 
Q 3647 1150 3233 529 
Q 2819 -91 2034 -91 
Q 1250 -91 836 529 
Q 422 1150 422 2328 
Q 422 3509 836 4129 
Q 1250 4750 2034 4750 
z
" transform="scale(0.015625)"/>
        <path id="DejaVuSans-2e" d="M 684 794 
L 1344 794 
L 1344 0 
L 684 0 
L 684 794 
z
" transform="scale(0.015625)"/>
       </defs>
       <use xlink:href="#DejaVuSans-30"/>
       <use xlink:href="#DejaVuSans-2e" x="63.623047"/>
       <use xlink:href="#DejaVuSans-30" x="95.410156"/>
       <use xlink:href="#DejaVuSans-30" x="159.033203"/>
       <use xlink:href="#DejaVuSans-30" x="222.65625"/>
      </g>
     </g>
    </g>
    <g id="xtick_2">
     <g id="line2d_2">
      <g>
       <use xlink:href="#mcf508b96a0" x="107.726172" y="256.32" style="stroke: #000000; stroke-width: 0.8"/>
      </g>
     </g>
     <g id="text_2">
      <!-- 0.005 -->
      <g transform="translate(93.41211 270.918437) scale(0.1 -0.1)">
       <defs>
        <path id="DejaVuSans-35" d="M 691 4666 
L 3169 4666 
L 3169 4134 
L 1269 4134 
L 1269 2991 
Q 1406 3038 1543 3061 
Q 1681 3084 1819 3084 
Q 2600 3084 3056 2656 
Q 3513 2228 3513 1497 
Q 3513 744 3044 326 
Q 2575 -91 1722 -91 
Q 1428 -91 1123 -41 
Q 819 9 494 109 
L 494 744 
Q 775 591 1075 516 
Q 1375 441 1709 441 
Q 2250 441 2565 725 
Q 2881 1009 2881 1497 
Q 2881 1984 2565 2268 
Q 2250 2553 1709 2553 
Q 1456 2553 1204 2497 
Q 953 2441 691 2322 
L 691 4666 
z
" transform="scale(0.015625)"/>
       </defs>
       <use xlink:href="#DejaVuSans-30"/>
       <use xlink:href="#DejaVuSans-2e" x="63.623047"/>
       <use xlink:href="#DejaVuSans-30" x="95.410156"/>
       <use xlink:href="#DejaVuSans-30" x="159.033203"/>
       <use xlink:href="#DejaVuSans-35" x="222.65625"/>
      </g>
     </g>
    </g>
    <g id="xtick_3">
     <g id="line2d_3">
      <g>
       <use xlink:href="#mcf508b96a0" x="145.567312" y="256.32" style="stroke: #000000; stroke-width: 0.8"/>
      </g>
     </g>
     <g id="text_3">
      <!-- 0.010 -->
      <g transform="translate(131.25325 270.918437) scale(0.1 -0.1)">
       <defs>
        <path id="DejaVuSans-31" d="M 794 531 
L 1825 531 
L 1825 4091 
L 703 3866 
L 703 4441 
L 1819 4666 
L 2450 4666 
L 2450 531 
L 3481 531 
L 3481 0 
L 794 0 
L 794 531 
z
" transform="scale(0.015625)"/>
       </defs>
       <use xlink:href="#DejaVuSans-30"/>
       <use xlink:href="#DejaVuSans-2e" x="63.623047"/>
       <use xlink:href="#DejaVuSans-30" x="95.410156"/>
       <use xlink:href="#DejaVuSans-31" x="159.033203"/>
       <use xlink:href="#DejaVuSans-30" x="222.65625"/>
      </g>
     </g>
    </g>
    <g id="xtick_4">
     <g id="line2d_4">
      <g>
       <use xlink:href="#mcf508b96a0" x="183.408452" y="256.32" style="stroke: #000000; stroke-width: 0.8"/>
      </g>
     </g>
     <g id="text_4">
      <!-- 0.015 -->
      <g transform="translate(169.094389 270.918437) scale(0.1 -0.1)">
       <use xlink:href="#DejaVuSans-30"/>
       <use xlink:href="#DejaVuSans-2e" x="63.623047"/>
       <use xlink:href="#DejaVuSans-30" x="95.410156"/>
       <use xlink:href="#DejaVuSans-31" x="159.033203"/>
       <use xlink:href="#DejaVuSans-35" x="222.65625"/>
      </g>
     </g>
    </g>
    <g id="xtick_5">
     <g id="line2d_5">
      <g>
       <use xlink:href="#mcf508b96a0" x="221.249592" y="256.32" style="stroke: #000000; stroke-width: 0.8"/>
      </g>
     </g>
     <g id="text_5">
      <!-- 0.020 -->
      <g transform="translate(206.935529 270.918437) scale(0.1 -0.1)">
       <defs>
        <path id="DejaVuSans-32" d="M 1228 531 
L 3431 531 
L 3431 0 
L 469 0 
L 469 531 
Q 828 903 1448 1529 
Q 2069 2156 2228 2338 
Q 2531 2678 2651 2914 
Q 2772 3150 2772 3378 
Q 2772 3750 2511 3984 
Q 2250 4219 1831 4219 
Q 1534 4219 1204 4116 
Q 875 4013 500 3803 
L 500 4441 
Q 881 4594 1212 4672 
Q 1544 4750 1819 4750 
Q 2544 4750 2975 4387 
Q 3406 4025 3406 3419 
Q 3406 3131 3298 2873 
Q 3191 2616 2906 2266 
Q 2828 2175 2409 1742 
Q 1991 1309 1228 531 
z
" transform="scale(0.015625)"/>
       </defs>
       <use xlink:href="#DejaVuSans-30"/>
       <use xlink:href="#DejaVuSans-2e" x="63.623047"/>
       <use xlink:href="#DejaVuSans-30" x="95.410156"/>
       <use xlink:href="#DejaVuSans-32" x="159.033203"/>
       <use xlink:href="#DejaVuSans-30" x="222.65625"/>
      </g>
     </g>
    </g>
    <g id="xtick_6">
     <g id="line2d_6">
      <g>
       <use xlink:href="#mcf508b96a0" x="259.090732" y="256.32" style="stroke: #000000; stroke-width: 0.8"/>
      </g>
     </g>
     <g id="text_6">
      <!-- 0.025 -->
      <g transform="translate(244.776669 270.918437) scale(0.1 -0.1)">
       <use xlink:href="#DejaVuSans-30"/>
       <use xlink:href="#DejaVuSans-2e" x="63.623047"/>
       <use xlink:href="#DejaVuSans-30" x="95.410156"/>
       <use xlink:href="#DejaVuSans-32" x="159.033203"/>
       <use xlink:href="#DejaVuSans-35" x="222.65625"/>
      </g>
     </g>
    </g>
    <g id="xtick_7">
     <g id="line2d_7">
      <g>
       <use xlink:href="#mcf508b96a0" x="296.931872" y="256.32" style="stroke: #000000; stroke-width: 0.8"/>
      </g>
     </g>
     <g id="text_7">
      <!-- 0.030 -->
      <g transform="translate(282.617809 270.918437) scale(0.1 -0.1)">
       <defs>
        <path id="DejaVuSans-33" d="M 2597 2516 
Q 3050 2419 3304 2112 
Q 3559 1806 3559 1356 
Q 3559 666 3084 287 
Q 2609 -91 1734 -91 
Q 1441 -91 1130 -33 
Q 819 25 488 141 
L 488 750 
Q 750 597 1062 519 
Q 1375 441 1716 441 
Q 2309 441 2620 675 
Q 2931 909 2931 1356 
Q 2931 1769 2642 2001 
Q 2353 2234 1838 2234 
L 1294 2234 
L 1294 2753 
L 1863 2753 
Q 2328 2753 2575 2939 
Q 2822 3125 2822 3475 
Q 2822 3834 2567 4026 
Q 2313 4219 1838 4219 
Q 1578 4219 1281 4162 
Q 984 4106 628 3988 
L 628 4550 
Q 988 4650 1302 4700 
Q 1616 4750 1894 4750 
Q 2613 4750 3031 4423 
Q 3450 4097 3450 3541 
Q 3450 3153 3228 2886 
Q 3006 2619 2597 2516 
z
" transform="scale(0.015625)"/>
       </defs>
       <use xlink:href="#DejaVuSans-30"/>
       <use xlink:href="#DejaVuSans-2e" x="63.623047"/>
       <use xlink:href="#DejaVuSans-30" x="95.410156"/>
       <use xlink:href="#DejaVuSans-33" x="159.033203"/>
       <use xlink:href="#DejaVuSans-30" x="222.65625"/>
      </g>
     </g>
    </g>
    <g id="xtick_8">
     <g id="line2d_8">
      <g>
       <use xlink:href="#mcf508b96a0" x="334.773011" y="256.32" style="stroke: #000000; stroke-width: 0.8"/>
      </g>
     </g>
     <g id="text_8">
      <!-- 0.035 -->
      <g transform="translate(320.458949 270.918437) scale(0.1 -0.1)">
       <use xlink:href="#DejaVuSans-30"/>
       <use xlink:href="#DejaVuSans-2e" x="63.623047"/>
       <use xlink:href="#DejaVuSans-30" x="95.410156"/>
       <use xlink:href="#DejaVuSans-33" x="159.033203"/>
       <use xlink:href="#DejaVuSans-35" x="222.65625"/>
      </g>
     </g>
    </g>
    <g id="xtick_9">
     <g id="line2d_9">
      <g>
       <use xlink:href="#mcf508b96a0" x="372.614151" y="256.32" style="stroke: #000000; stroke-width: 0.8"/>
      </g>
     </g>
     <g id="text_9">
      <!-- 0.040 -->
      <g transform="translate(358.300089 270.918437) scale(0.1 -0.1)">
       <defs>
        <path id="DejaVuSans-34" d="M 2419 4116 
L 825 1625 
L 2419 1625 
L 2419 4116 
z
M 2253 4666 
L 3047 4666 
L 3047 1625 
L 3713 1625 
L 3713 1100 
L 3047 1100 
L 3047 0 
L 2419 0 
L 2419 1100 
L 313 1100 
L 313 1709 
L 2253 4666 
z
" transform="scale(0.015625)"/>
       </defs>
       <use xlink:href="#DejaVuSans-30"/>
       <use xlink:href="#DejaVuSans-2e" x="63.623047"/>
       <use xlink:href="#DejaVuSans-30" x="95.410156"/>
       <use xlink:href="#DejaVuSans-34" x="159.033203"/>
       <use xlink:href="#DejaVuSans-30" x="222.65625"/>
      </g>
     </g>
    </g>
    <g id="text_10">
     <!-- Strain -->
     <g transform="translate(206.588281 284.596563) scale(0.1 -0.1)">
      <defs>
       <path id="DejaVuSans-53" d="M 3425 4513 
L 3425 3897 
Q 3066 4069 2747 4153 
Q 2428 4238 2131 4238 
Q 1616 4238 1336 4038 
Q 1056 3838 1056 3469 
Q 1056 3159 1242 3001 
Q 1428 2844 1947 2747 
L 2328 2669 
Q 3034 2534 3370 2195 
Q 3706 1856 3706 1288 
Q 3706 609 3251 259 
Q 2797 -91 1919 -91 
Q 1588 -91 1214 -16 
Q 841 59 441 206 
L 441 856 
Q 825 641 1194 531 
Q 1563 422 1919 422 
Q 2459 422 2753 634 
Q 3047 847 3047 1241 
Q 3047 1584 2836 1778 
Q 2625 1972 2144 2069 
L 1759 2144 
Q 1053 2284 737 2584 
Q 422 2884 422 3419 
Q 422 4038 858 4394 
Q 1294 4750 2059 4750 
Q 2388 4750 2728 4690 
Q 3069 4631 3425 4513 
z
" transform="scale(0.015625)"/>
       <path id="DejaVuSans-74" d="M 1172 4494 
L 1172 3500 
L 2356 3500 
L 2356 3053 
L 1172 3053 
L 1172 1153 
Q 1172 725 1289 603 
Q 1406 481 1766 481 
L 2356 481 
L 2356 0 
L 1766 0 
Q 1100 0 847 248 
Q 594 497 594 1153 
L 594 3053 
L 172 3053 
L 172 3500 
L 594 3500 
L 594 4494 
L 1172 4494 
z
" transform="scale(0.015625)"/>
       <path id="DejaVuSans-72" d="M 2631 2963 
Q 2534 3019 2420 3045 
Q 2306 3072 2169 3072 
Q 1681 3072 1420 2755 
Q 1159 2438 1159 1844 
L 1159 0 
L 581 0 
L 581 3500 
L 1159 3500 
L 1159 2956 
Q 1341 3275 1631 3429 
Q 1922 3584 2338 3584 
Q 2397 3584 2469 3576 
Q 2541 3569 2628 3553 
L 2631 2963 
z
" transform="scale(0.015625)"/>
       <path id="DejaVuSans-61" d="M 2194 1759 
Q 1497 1759 1228 1600 
Q 959 1441 959 1056 
Q 959 750 1161 570 
Q 1363 391 1709 391 
Q 2188 391 2477 730 
Q 2766 1069 2766 1631 
L 2766 1759 
L 2194 1759 
z
M 3341 1997 
L 3341 0 
L 2766 0 
L 2766 531 
Q 2569 213 2275 61 
Q 1981 -91 1556 -91 
Q 1019 -91 701 211 
Q 384 513 384 1019 
Q 384 1609 779 1909 
Q 1175 2209 1959 2209 
L 2766 2209 
L 2766 2266 
Q 2766 2663 2505 2880 
Q 2244 3097 1772 3097 
Q 1472 3097 1187 3025 
Q 903 2953 641 2809 
L 641 3341 
Q 956 3463 1253 3523 
Q 1550 3584 1831 3584 
Q 2591 3584 2966 3190 
Q 3341 2797 3341 1997 
z
" transform="scale(0.015625)"/>
       <path id="DejaVuSans-69" d="M 603 3500 
L 1178 3500 
L 1178 0 
L 603 0 
L 603 3500 
z
M 603 4863 
L 1178 4863 
L 1178 4134 
L 603 4134 
L 603 4863 
z
" transform="scale(0.015625)"/>
       <path id="DejaVuSans-6e" d="M 3513 2113 
L 3513 0 
L 2938 0 
L 2938 2094 
Q 2938 2591 2744 2837 
Q 2550 3084 2163 3084 
Q 1697 3084 1428 2787 
Q 1159 2491 1159 1978 
L 1159 0 
L 581 0 
L 581 3500 
L 1159 3500 
L 1159 2956 
Q 1366 3272 1645 3428 
Q 1925 3584 2291 3584 
Q 2894 3584 3203 3211 
Q 3513 2838 3513 2113 
z
" transform="scale(0.015625)"/>
      </defs>
      <use xlink:href="#DejaVuSans-53"/>
      <use xlink:href="#DejaVuSans-74" x="63.476562"/>
      <use xlink:href="#DejaVuSans-72" x="102.685547"/>
      <use xlink:href="#DejaVuSans-61" x="143.798828"/>
      <use xlink:href="#DejaVuSans-69" x="205.078125"/>
      <use xlink:href="#DejaVuSans-6e" x="232.861328"/>
     </g>
    </g>
   </g>
   <g id="matplotlib.axis_2">
    <g id="ytick_1">
     <g id="line2d_10">
      <defs>
       <path id="m85cd075431" d="M 0 0 
L -3.5 0 
" style="stroke: #000000; stroke-width: 0.8"/>
      </defs>
      <g>
       <use xlink:href="#m85cd075431" x="54" y="249.800607" style="stroke: #000000; stroke-width: 0.8"/>
      </g>
     </g>
     <g id="text_11">
      <!-- −30 -->
      <g transform="translate(25.895312 253.599826) scale(0.1 -0.1)">
       <defs>
        <path id="DejaVuSans-2212" d="M 678 2272 
L 4684 2272 
L 4684 1741 
L 678 1741 
L 678 2272 
z
" transform="scale(0.015625)"/>
       </defs>
       <use xlink:href="#DejaVuSans-2212"/>
       <use xlink:href="#DejaVuSans-33" x="83.789062"/>
       <use xlink:href="#DejaVuSans-30" x="147.412109"/>
      </g>
     </g>
    </g>
    <g id="ytick_2">
     <g id="line2d_11">
      <g>
       <use xlink:href="#m85cd075431" x="54" y="224.728223" style="stroke: #000000; stroke-width: 0.8"/>
      </g>
     </g>
     <g id="text_12">
      <!-- −20 -->
      <g transform="translate(25.895312 228.527442) scale(0.1 -0.1)">
       <use xlink:href="#DejaVuSans-2212"/>
       <use xlink:href="#DejaVuSans-32" x="83.789062"/>
       <use xlink:href="#DejaVuSans-30" x="147.412109"/>
      </g>
     </g>
    </g>
    <g id="ytick_3">
     <g id="line2d_12">
      <g>
       <use xlink:href="#m85cd075431" x="54" y="199.655839" style="stroke: #000000; stroke-width: 0.8"/>
      </g>
     </g>
     <g id="text_13">
      <!-- −10 -->
      <g transform="translate(25.895312 203.455058) scale(0.1 -0.1)">
       <use xlink:href="#DejaVuSans-2212"/>
       <use xlink:href="#DejaVuSans-31" x="83.789062"/>
       <use xlink:href="#DejaVuSans-30" x="147.412109"/>
      </g>
     </g>
    </g>
    <g id="ytick_4">
     <g id="line2d_13">
      <g>
       <use xlink:href="#m85cd075431" x="54" y="174.583455" style="stroke: #000000; stroke-width: 0.8"/>
      </g>
     </g>
     <g id="text_14">
      <!-- 0 -->
      <g transform="translate(40.6375 178.382674) scale(0.1 -0.1)">
       <use xlink:href="#DejaVuSans-30"/>
      </g>
     </g>
    </g>
    <g id="ytick_5">
     <g id="line2d_14">
      <g>
       <use xlink:href="#m85cd075431" x="54" y="149.511071" style="stroke: #000000; stroke-width: 0.8"/>
      </g>
     </g>
     <g id="text_15">
      <!-- 10 -->
      <g transform="translate(34.275 153.31029) scale(0.1 -0.1)">
       <use xlink:href="#DejaVuSans-31"/>
       <use xlink:href="#DejaVuSans-30" x="63.623047"/>
      </g>
     </g>
    </g>
    <g id="ytick_6">
     <g id="line2d_15">
      <g>
       <use xlink:href="#m85cd075431" x="54" y="124.438687" style="stroke: #000000; stroke-width: 0.8"/>
      </g>
     </g>
     <g id="text_16">
      <!-- 20 -->
      <g transform="translate(34.275 128.237906) scale(0.1 -0.1)">
       <use xlink:href="#DejaVuSans-32"/>
       <use xlink:href="#DejaVuSans-30" x="63.623047"/>
      </g>
     </g>
    </g>
    <g id="ytick_7">
     <g id="line2d_16">
      <g>
       <use xlink:href="#m85cd075431" x="54" y="99.366303" style="stroke: #000000; stroke-width: 0.8"/>
      </g>
     </g>
     <g id="text_17">
      <!-- 30 -->
      <g transform="translate(34.275 103.165522) scale(0.1 -0.1)">
       <use xlink:href="#DejaVuSans-33"/>
       <use xlink:href="#DejaVuSans-30" x="63.623047"/>
      </g>
     </g>
    </g>
    <g id="ytick_8">
     <g id="line2d_17">
      <g>
       <use xlink:href="#m85cd075431" x="54" y="74.293919" style="stroke: #000000; stroke-width: 0.8"/>
      </g>
     </g>
     <g id="text_18">
      <!-- 40 -->
      <g transform="translate(34.275 78.093138) scale(0.1 -0.1)">
       <use xlink:href="#DejaVuSans-34"/>
       <use xlink:href="#DejaVuSans-30" x="63.623047"/>
      </g>
     </g>
    </g>
    <g id="ytick_9">
     <g id="line2d_18">
      <g>
       <use xlink:href="#m85cd075431" x="54" y="49.221535" style="stroke: #000000; stroke-width: 0.8"/>
      </g>
     </g>
     <g id="text_19">
      <!-- 50 -->
      <g transform="translate(34.275 53.020754) scale(0.1 -0.1)">
       <use xlink:href="#DejaVuSans-35"/>
       <use xlink:href="#DejaVuSans-30" x="63.623047"/>
      </g>
     </g>
    </g>
    <g id="text_20">
     <!-- Stress [Pa] -->
     <g transform="translate(19.815625 172.147812) rotate(-90) scale(0.1 -0.1)">
      <defs>
       <path id="DejaVuSans-65" d="M 3597 1894 
L 3597 1613 
L 953 1613 
Q 991 1019 1311 708 
Q 1631 397 2203 397 
Q 2534 397 2845 478 
Q 3156 559 3463 722 
L 3463 178 
Q 3153 47 2828 -22 
Q 2503 -91 2169 -91 
Q 1331 -91 842 396 
Q 353 884 353 1716 
Q 353 2575 817 3079 
Q 1281 3584 2069 3584 
Q 2775 3584 3186 3129 
Q 3597 2675 3597 1894 
z
M 3022 2063 
Q 3016 2534 2758 2815 
Q 2500 3097 2075 3097 
Q 1594 3097 1305 2825 
Q 1016 2553 972 2059 
L 3022 2063 
z
" transform="scale(0.015625)"/>
       <path id="DejaVuSans-73" d="M 2834 3397 
L 2834 2853 
Q 2591 2978 2328 3040 
Q 2066 3103 1784 3103 
Q 1356 3103 1142 2972 
Q 928 2841 928 2578 
Q 928 2378 1081 2264 
Q 1234 2150 1697 2047 
L 1894 2003 
Q 2506 1872 2764 1633 
Q 3022 1394 3022 966 
Q 3022 478 2636 193 
Q 2250 -91 1575 -91 
Q 1294 -91 989 -36 
Q 684 19 347 128 
L 347 722 
Q 666 556 975 473 
Q 1284 391 1588 391 
Q 1994 391 2212 530 
Q 2431 669 2431 922 
Q 2431 1156 2273 1281 
Q 2116 1406 1581 1522 
L 1381 1569 
Q 847 1681 609 1914 
Q 372 2147 372 2553 
Q 372 3047 722 3315 
Q 1072 3584 1716 3584 
Q 2034 3584 2315 3537 
Q 2597 3491 2834 3397 
z
" transform="scale(0.015625)"/>
       <path id="DejaVuSans-20" transform="scale(0.015625)"/>
       <path id="DejaVuSans-5b" d="M 550 4863 
L 1875 4863 
L 1875 4416 
L 1125 4416 
L 1125 -397 
L 1875 -397 
L 1875 -844 
L 550 -844 
L 550 4863 
z
" transform="scale(0.015625)"/>
       <path id="DejaVuSans-50" d="M 1259 4147 
L 1259 2394 
L 2053 2394 
Q 2494 2394 2734 2622 
Q 2975 2850 2975 3272 
Q 2975 3691 2734 3919 
Q 2494 4147 2053 4147 
L 1259 4147 
z
M 628 4666 
L 2053 4666 
Q 2838 4666 3239 4311 
Q 3641 3956 3641 3272 
Q 3641 2581 3239 2228 
Q 2838 1875 2053 1875 
L 1259 1875 
L 1259 0 
L 628 0 
L 628 4666 
z
" transform="scale(0.015625)"/>
       <path id="DejaVuSans-5d" d="M 1947 4863 
L 1947 -844 
L 622 -844 
L 622 -397 
L 1369 -397 
L 1369 4416 
L 622 4416 
L 622 4863 
L 1947 4863 
z
" transform="scale(0.015625)"/>
      </defs>
      <use xlink:href="#DejaVuSans-53"/>
      <use xlink:href="#DejaVuSans-74" x="63.476562"/>
      <use xlink:href="#DejaVuSans-72" x="102.685547"/>
      <use xlink:href="#DejaVuSans-65" x="141.548828"/>
      <use xlink:href="#DejaVuSans-73" x="203.072266"/>
      <use xlink:href="#DejaVuSans-73" x="255.171875"/>
      <use xlink:href="#DejaVuSans-20" x="307.271484"/>
      <use xlink:href="#DejaVuSans-5b" x="339.058594"/>
      <use xlink:href="#DejaVuSans-50" x="378.072266"/>
      <use xlink:href="#DejaVuSans-61" x="433.875"/>
      <use xlink:href="#DejaVuSans-5d" x="495.154297"/>
     </g>
    </g>
   </g>
   <g id="line2d_19">
    <path d="M 69.885032 192.411428 
L 69.885032 192.55909 
L 69.868797 186.851421 
L 69.875 188.381124 
L 70.692808 190.085457 
L 73.740378 183.858134 
L 76.844823 165.115125 
L 79.959094 150.86451 
L 83.064405 162.558605 
L 86.102736 170.703509 
L 89.351243 177.836247 
L 92.445006 181.542681 
L 95.553781 190.802818 
L 98.817303 194.767249 
L 101.935316 205.609723 
L 104.982886 205.27806 
L 108.157488 194.619917 
L 111.207368 187.952961 
L 114.422387 183.332141 
L 117.51153 179.348551 
L 120.732323 178.9818 
L 123.844563 183.65151 
L 130.126783 194.235657 
L 133.279441 199.131321 
L 136.412468 203.188907 
L 139.465235 198.865891 
L 142.6075 180.768453 
L 145.693756 171.125779 
L 148.739593 171.450071 
L 151.873775 174.340189 
L 154.940977 179.486913 
L 158.102874 182.482368 
L 161.256687 181.213118 
L 164.423203 176.09084 
L 167.556067 173.733787 
L 170.701219 173.452129 
L 173.846371 174.54395 
L 176.96785 173.89647 
L 180.09568 170.326798 
L 183.191174 161.84891 
L 186.223732 158.57126 
L 189.318649 161.154687 
L 192.500178 165.03554 
L 195.605489 169.721106 
L 198.685394 172.99215 
L 201.774537 168.544326 
L 204.926041 157.056364 
L 207.99151 151.474581 
L 211.109524 149.709256 
L 217.337468 156.382818 
L 220.387347 157.010509 
L 223.483411 153.349662 
L 226.545993 148.777734 
L 229.639178 143.771075 
L 232.819552 141.158403 
L 235.923708 144.313909 
L 239.032484 145.637309 
L 242.108924 146.475118 
L 245.284264 144.464733 
L 248.391884 142.324429 
L 251.453312 136.445008 
L 254.559778 131.602199 
L 257.594644 128.86763 
L 260.688407 129.965268 
L 263.784479 128.719137 
L 266.874777 126.799263 
L 269.931586 127.208969 
L 273.094638 125.423266 
L 276.234593 122.773926 
L 279.380323 122.391757 
L 282.521433 121.274789 
L 285.685639 118.875868 
L 288.848691 118.114637 
L 292.00135 114.556857 
L 295.165556 113.363601 
L 298.31937 112.044547 
L 304.590042 107.042348 
L 307.7427 105.954409 
L 310.889585 103.227686 
L 314.046862 102.5797 
L 317.187973 99.982884 
L 320.291876 97.630728 
L 323.401229 95.575507 
L 326.551578 92.275146 
L 332.614382 90.142171 
L 335.687358 87.443605 
L 338.762644 86.94516 
L 341.79982 86.822583 
L 344.946704 82.877312 
L 348.105137 81.158297 
L 351.277427 78.900412 
L 357.41876 75.448011 
L 360.474413 77.018579 
L 363.504661 78.862546 
L 366.54357 82.432218 
L 369.576704 82.612544 
L 371.957221 76.991119 
L 373.581818 63.923886 
L 373.426278 65.451944 
L 373.181962 68.567055 
L 372.995567 66.786958 
L 372.884018 68.484811 
L 372.794772 64.651856 
L 372.740424 66.758621 
L 372.651791 70.32404 
L 372.64129 69.251358 
L 372.608125 80.153903 
L 372.620828 66.577614 
L 372.59138 75.367108 
L 369.524846 79.039083 
L 366.446384 105.581376 
L 363.265433 122.032887 
L 360.17167 110.024306 
L 357.101004 101.459207 
L 353.817851 97.3339 
L 350.682515 93.844171 
L 347.514844 88.57456 
L 344.431474 81.672732 
L 341.262648 77.620596 
L 338.204685 74.056539 
L 335.108613 94.490154 
L 332.064508 107.965452 
L 328.90723 110.45564 
L 325.867744 114.011107 
L 322.712776 118.332802 
L 319.67329 113.157669 
L 316.464478 106.87439 
L 313.249459 104.540526 
L 310.181103 102.918837 
L 307.014586 110.22071 
L 303.864238 116.0327 
L 300.72024 133.321462 
L 297.548527 139.456568 
L 294.479593 136.396303 
L 291.415856 131.815125 
L 288.362512 128.615296 
L 285.280298 131.672773 
L 282.187112 136.176156 
L 279.056973 143.316822 
L 275.926834 146.424016 
L 272.895431 146.581754 
L 269.834004 146.590508 
L 266.74486 151.029639 
L 263.714613 154.66951 
L 260.58967 156.853399 
L 257.560577 161.222168 
L 254.452957 163.73838 
L 251.284131 160.733262 
L 248.184594 156.544199 
L 245.091986 160.997205 
L 241.972818 164.385189 
L 238.929326 168.05404 
L 235.897923 173.573388 
L 232.770094 175.089089 
L 229.702892 174.086976 
L 226.60451 174.59836 
L 223.529224 174.899476 
L 220.377712 177.333021 
L 217.312242 184.077277 
L 214.239266 190.313466 
L 211.073328 192.412251 
L 207.985339 191.088902 
L 204.878873 189.377567 
L 201.819755 190.23724 
L 198.660168 193.47624 
L 195.53638 197.047894 
L 192.402199 200.945265 
L 189.366177 203.350814 
L 186.267795 202.389266 
L 183.149781 201.01104 
L 180.060638 202.83147 
L 177.013068 204.201294 
L 173.854636 208.341136 
L 170.693893 212.679843 
L 167.623227 215.238505 
L 164.49307 213.231932 
L 161.358888 214.029707 
L 158.273209 214.535625 
L 155.102074 217.763724 
L 151.995608 219.263803 
L 148.926674 221.74343 
L 145.831757 223.675186 
L 142.660621 222.923906 
L 139.602658 221.29495 
L 136.434987 221.647838 
L 133.323902 227.021836 
L 130.186256 230.151824 
L 124.085343 228.1917 
L 121.05625 230.661912 
L 117.898972 231.835038 
L 114.762481 234.552099 
L 111.623681 238.206999 
L 108.581885 240.397164 
L 105.48581 241.38439 
L 102.34239 238.044058 
L 99.270569 236.174654 
L 96.154288 239.43682 
L 93.084776 244.707091 
L 89.937315 246.24 
L 86.842791 245.503606 
L 83.712074 243.371912 
L 80.651801 238.663882 
L 77.532632 232.796353 
L 74.505272 230.248263 
L 71.477622 234.213003 
L 70.438862 236.581222 
L 69.978377 237.368654 
L 69.843408 238.097387 
L 69.218182 221.721168 
L 69.219357 221.748587 
" clip-path="url(#p04432adcda)" style="fill: none; stroke: #ff0000; stroke-width: 1.5; stroke-linecap: square"/>
   </g>
   <g id="line2d_20">
    <path d="M 69.885032 192.411428 
L 69.885032 192.55909 
L 69.868797 186.851421 
L 69.875 188.381124 
L 70.692808 190.085457 
L 73.740378 183.858134 
L 76.844823 165.115125 
L 79.959094 150.86451 
L 83.064405 162.558605 
L 86.102736 220.014597 
L 89.351243 213.767506 
L 92.445006 205.285653 
L 95.553781 207.587475 
L 98.817303 200.835622 
L 101.935316 205.653985 
L 104.982886 205.27806 
L 108.157488 194.619917 
L 111.207368 187.952961 
L 114.422387 183.332141 
L 117.51153 179.348551 
L 120.732323 178.9818 
L 123.844563 183.65151 
L 130.126783 194.235657 
L 133.279441 199.131321 
L 136.412468 203.188907 
L 139.465235 198.865891 
L 142.6075 180.768453 
L 145.693756 171.125779 
L 148.739593 171.450071 
L 151.873775 174.340189 
L 154.940977 179.486913 
L 158.102874 182.482368 
L 161.256687 181.213118 
L 164.423203 176.09084 
L 167.556067 173.733787 
L 170.701219 173.452129 
L 173.846371 174.54395 
L 176.96785 173.89647 
L 180.09568 170.326798 
L 183.191174 161.84891 
L 186.223732 158.57126 
L 189.318649 161.154687 
L 192.500178 165.03554 
L 195.605489 169.721106 
L 198.685394 172.99215 
L 201.774537 168.544326 
L 204.926041 157.056364 
L 207.99151 151.474581 
L 211.109524 149.709256 
L 217.337468 156.382818 
L 220.387347 157.010509 
L 223.483411 153.349662 
L 226.545993 148.777734 
L 229.639178 143.771075 
L 232.819552 141.158403 
L 235.923708 144.313909 
L 239.032484 145.637309 
L 242.108924 146.475118 
L 245.284264 144.464733 
L 248.391884 142.324429 
L 251.453312 136.445008 
L 254.559778 131.602199 
L 257.594644 128.86763 
L 260.688407 129.965268 
L 263.784479 128.719137 
L 266.874777 126.799263 
L 269.931586 127.208969 
L 273.094638 125.423266 
L 276.234593 122.773926 
L 279.380323 122.391757 
L 282.521433 121.274789 
L 285.685639 118.875868 
L 288.848691 118.114637 
L 292.00135 114.556857 
L 295.165556 113.363601 
L 298.31937 112.044547 
L 304.590042 107.042348 
L 307.7427 105.954409 
L 310.889585 103.227686 
L 314.046862 102.5797 
L 317.187973 99.982884 
L 320.291876 97.630728 
L 323.401229 95.575507 
L 326.551578 92.275146 
L 332.614382 90.142171 
L 335.687358 87.443605 
L 338.762644 86.94516 
L 341.79982 86.822583 
L 344.946704 82.877312 
L 348.105137 81.158297 
L 351.277427 78.900412 
L 357.41876 75.448011 
L 360.474413 77.018579 
L 363.504661 78.862546 
L 366.54357 82.432218 
L 369.576704 82.612544 
L 371.957221 76.991119 
L 373.581818 63.923886 
L 373.426278 65.451944 
L 372.995567 54.166002 
L 372.884018 44.64 
L 372.665469 69.194529 
L 372.608125 80.153903 
L 372.620828 66.577614 
L 372.59138 75.367108 
L 369.524846 79.039083 
L 366.446384 105.581376 
L 363.265433 122.032887 
L 360.17167 110.024306 
L 357.101004 101.459207 
L 353.817851 97.3339 
L 350.682515 93.844171 
L 347.514844 88.57456 
L 344.431474 81.672732 
L 341.262648 77.620596 
L 338.204685 74.056539 
L 335.108613 94.490154 
L 332.064508 107.965452 
L 328.90723 110.45564 
L 325.867744 114.011107 
L 322.712776 118.332802 
L 319.67329 113.157669 
L 316.464478 106.87439 
L 313.249459 104.540526 
L 310.181103 102.918837 
L 307.014586 110.22071 
L 303.864238 116.0327 
L 300.72024 133.321462 
L 297.548527 139.456568 
L 294.479593 136.396303 
L 291.415856 131.815125 
L 288.362512 128.615296 
L 285.280298 131.672773 
L 282.187112 136.176156 
L 279.056973 143.316822 
L 275.926834 146.424016 
L 272.895431 146.581754 
L 269.834004 146.590508 
L 266.74486 151.029639 
L 263.714613 154.66951 
L 260.58967 156.853399 
L 257.560577 161.222168 
L 254.452957 163.73838 
L 251.284131 160.733262 
L 248.184594 156.544199 
L 245.091986 160.997205 
L 241.972818 164.385189 
L 238.929326 168.05404 
L 235.897923 173.573388 
L 232.770094 175.089089 
L 229.702892 174.086976 
L 226.60451 174.59836 
L 223.529224 174.899476 
L 220.377712 177.333021 
L 217.312242 184.077277 
L 214.239266 190.313466 
L 211.073328 192.412251 
L 207.985339 191.088902 
L 204.878873 189.377567 
L 201.819755 190.23724 
L 198.660168 193.47624 
L 195.53638 197.047894 
L 192.402199 200.945265 
L 189.366177 203.350814 
L 186.267795 202.389266 
L 183.149781 201.01104 
L 180.060638 202.83147 
L 177.013068 204.201294 
L 173.854636 208.341136 
L 170.693893 212.679843 
L 167.623227 215.238505 
L 164.49307 213.231932 
L 161.358888 214.029707 
L 158.273209 214.535625 
L 155.102074 217.763724 
L 151.995608 219.263803 
L 148.926674 221.74343 
L 145.831757 223.675186 
L 142.660621 222.923906 
L 139.602658 221.29495 
L 136.434987 221.647838 
L 133.323902 227.021836 
L 130.186256 230.151824 
L 124.085343 228.1917 
L 121.05625 230.661912 
L 117.898972 231.835038 
L 114.762481 234.552099 
L 111.623681 238.206999 
L 108.581885 240.397164 
L 105.48581 241.38439 
L 102.34239 238.044058 
L 99.270569 236.174654 
L 96.154288 239.43682 
L 93.084776 244.707091 
L 89.937315 246.24 
L 86.842791 245.503606 
L 83.712074 243.371912 
L 80.651801 238.663882 
L 77.532632 232.796353 
L 74.505272 230.248263 
L 71.477622 234.213003 
L 70.438862 236.581222 
L 69.978377 237.368654 
L 69.843408 238.097387 
L 69.218182 221.721168 
L 69.219357 221.748587 
" clip-path="url(#p04432adcda)" style="fill: none; stroke: #000000; stroke-width: 1.5; stroke-linecap: square"/>
   </g>
   <g id="patch_3">
    <path d="M 54 256.32 
L 54 34.56 
" style="fill: none; stroke: #000000; stroke-width: 0.8; stroke-linejoin: miter; stroke-linecap: square"/>
   </g>
   <g id="patch_4">
    <path d="M 388.8 256.32 
L 388.8 34.56 
" style="fill: none; stroke: #000000; stroke-width: 0.8; stroke-linejoin: miter; stroke-linecap: square"/>
   </g>
   <g id="patch_5">
    <path d="M 54 256.32 
L 388.8 256.32 
" style="fill: none; stroke: #000000; stroke-width: 0.8; stroke-linejoin: miter; stroke-linecap: square"/>
   </g>
   <g id="patch_6">
    <path d="M 54 34.56 
L 388.8 34.56 
" style="fill: none; stroke: #000000; stroke-width: 0.8; stroke-linejoin: miter; stroke-linecap: square"/>
   </g>
   <g id="text_21">
    <!-- 2025-06-20 trial 10 -->
    <g transform="translate(163.2525 28.56) scale(0.12 -0.12)">
     <defs>
      <path id="DejaVuSans-2d" d="M 313 2009 
L 1997 2009 
L 1997 1497 
L 313 1497 
L 313 2009 
z
" transform="scale(0.015625)"/>
      <path id="DejaVuSans-36" d="M 2113 2584 
Q 1688 2584 1439 2293 
Q 1191 2003 1191 1497 
Q 1191 994 1439 701 
Q 1688 409 2113 409 
Q 2538 409 2786 701 
Q 3034 994 3034 1497 
Q 3034 2003 2786 2293 
Q 2538 2584 2113 2584 
z
M 3366 4563 
L 3366 3988 
Q 3128 4100 2886 4159 
Q 2644 4219 2406 4219 
Q 1781 4219 1451 3797 
Q 1122 3375 1075 2522 
Q 1259 2794 1537 2939 
Q 1816 3084 2150 3084 
Q 2853 3084 3261 2657 
Q 3669 2231 3669 1497 
Q 3669 778 3244 343 
Q 2819 -91 2113 -91 
Q 1303 -91 875 529 
Q 447 1150 447 2328 
Q 447 3434 972 4092 
Q 1497 4750 2381 4750 
Q 2619 4750 2861 4703 
Q 3103 4656 3366 4563 
z
" transform="scale(0.015625)"/>
      <path id="DejaVuSans-6c" d="M 603 4863 
L 1178 4863 
L 1178 0 
L 603 0 
L 603 4863 
z
" transform="scale(0.015625)"/>
     </defs>
     <use xlink:href="#DejaVuSans-32"/>
     <use xlink:href="#DejaVuSans-30" x="63.623047"/>
     <use xlink:href="#DejaVuSans-32" x="127.246094"/>
     <use xlink:href="#DejaVuSans-35" x="190.869141"/>
     <use xlink:href="#DejaVuSans-2d" x="254.492188"/>
     <use xlink:href="#DejaVuSans-30" x="290.576172"/>
     <use xlink:href="#DejaVuSans-36" x="354.199219"/>
     <use xlink:href="#DejaVuSans-2d" x="417.822266"/>
     <use xlink:href="#DejaVuSans-32" x="453.90625"/>
     <use xlink:href="#DejaVuSans-30" x="517.529297"/>
     <use xlink:href="#DejaVuSans-20" x="581.152344"/>
     <use xlink:href="#DejaVuSans-74" x="612.939453"/>
     <use xlink:href="#DejaVuSans-72" x="652.148438"/>
     <use xlink:href="#DejaVuSans-69" x="693.261719"/>
     <use xlink:href="#DejaVuSans-61" x="721.044922"/>
     <use xlink:href="#DejaVuSans-6c" x="782.324219"/>
     <use xlink:href="#DejaVuSans-20" x="810.107422"/>
     <use xlink:href="#DejaVuSans-31" x="841.894531"/>
     <use xlink:href="#DejaVuSans-30" x="905.517578"/>
    </g>
   </g>
  </g>
 </g>
 <defs>
  <clipPath id="p04432adcda">
   <rect x="54" y="34.56" width="334.8" height="221.76"/>
  </clipPath>
 </defs>
</svg>
