<?xml version="1.0" encoding="utf-8" standalone="no"?>
<!DOCTYPE svg PUBLIC "-//W3C//DTD SVG 1.1//EN"
  "http://www.w3.org/Graphics/SVG/1.1/DTD/svg11.dtd">
<svg xmlns:xlink="http://www.w3.org/1999/xlink" width="460.8pt" height="345.6pt" viewBox="0 0 460.8 345.6" xmlns="http://www.w3.org/2000/svg" version="1.1">
 <metadata>
  <rdf:RDF xmlns:dc="http://purl.org/dc/elements/1.1/" xmlns:cc="http://creativecommons.org/ns#" xmlns:rdf="http://www.w3.org/1999/02/22-rdf-syntax-ns#">
   <cc:Work>
    <dc:type rdf:resource="http://purl.org/dc/dcmitype/StillImage"/>
    <dc:date>2025-07-14T21:40:52.987426</dc:date>
    <dc:format>image/svg+xml</dc:format>
    <dc:creator>
     <cc:Agent>
      <dc:title>Matplotlib v3.10.3, https://matplotlib.org/</dc:title>
     </cc:Agent>
    </dc:creator>
   </cc:Work>
  </rdf:RDF>
 </metadata>
 <defs>
  <style type="text/css">*{stroke-linejoin: round; stroke-linecap: butt}</style>
 </defs>
 <g id="figure_1">
  <g id="patch_1">
   <path d="M 0 345.6 
L 460.8 345.6 
L 460.8 0 
L 0 0 
z
" style="fill: #ffffff"/>
  </g>
  <g id="axes_1">
   <g id="patch_2">
    <path d="M 57.6 307.584 
L 414.72 307.584 
L 414.72 41.472 
L 57.6 41.472 
z
" style="fill: #ffffff"/>
   </g>
   <g id="matplotlib.axis_1">
    <g id="xtick_1">
     <g id="line2d_1">
      <defs>
       <path id="mf1ff031009" d="M 0 0 
L 0 3.5 
" style="stroke: #000000; stroke-width: 0.8"/>
      </defs>
      <g>
       <use xlink:href="#mf1ff031009" x="61.244031" y="307.584" style="stroke: #000000; stroke-width: 0.8"/>
      </g>
     </g>
     <g id="text_1">
      <!-- −0.04 -->
      <g transform="translate(45.921375 322.182437) scale(0.1 -0.1)">
       <defs>
        <path id="DejaVuSans-2212" d="M 678 2272 
L 4684 2272 
L 4684 1741 
L 678 1741 
L 678 2272 
z
" transform="scale(0.015625)"/>
        <path id="DejaVuSans-30" d="M 2034 4250 
Q 1547 4250 1301 3770 
Q 1056 3291 1056 2328 
Q 1056 1369 1301 889 
Q 1547 409 2034 409 
Q 2525 409 2770 889 
Q 3016 1369 3016 2328 
Q 3016 3291 2770 3770 
Q 2525 4250 2034 4250 
z
M 2034 4750 
Q 2819 4750 3233 4129 
Q 3647 3509 3647 2328 
Q 3647 1150 3233 529 
Q 2819 -91 2034 -91 
Q 1250 -91 836 529 
Q 422 1150 422 2328 
Q 422 3509 836 4129 
Q 1250 4750 2034 4750 
z
" transform="scale(0.015625)"/>
        <path id="DejaVuSans-2e" d="M 684 794 
L 1344 794 
L 1344 0 
L 684 0 
L 684 794 
z
" transform="scale(0.015625)"/>
        <path id="DejaVuSans-34" d="M 2419 4116 
L 825 1625 
L 2419 1625 
L 2419 4116 
z
M 2253 4666 
L 3047 4666 
L 3047 1625 
L 3713 1625 
L 3713 1100 
L 3047 1100 
L 3047 0 
L 2419 0 
L 2419 1100 
L 313 1100 
L 313 1709 
L 2253 4666 
z
" transform="scale(0.015625)"/>
       </defs>
       <use xlink:href="#DejaVuSans-2212"/>
       <use xlink:href="#DejaVuSans-30" transform="translate(83.789062 0)"/>
       <use xlink:href="#DejaVuSans-2e" transform="translate(147.412109 0)"/>
       <use xlink:href="#DejaVuSans-30" transform="translate(179.199219 0)"/>
       <use xlink:href="#DejaVuSans-34" transform="translate(242.822266 0)"/>
      </g>
     </g>
    </g>
    <g id="xtick_2">
     <g id="line2d_2">
      <g>
       <use xlink:href="#mf1ff031009" x="104.945169" y="307.584" style="stroke: #000000; stroke-width: 0.8"/>
      </g>
     </g>
     <g id="text_2">
      <!-- −0.03 -->
      <g transform="translate(89.622513 322.182437) scale(0.1 -0.1)">
       <defs>
        <path id="DejaVuSans-33" d="M 2597 2516 
Q 3050 2419 3304 2112 
Q 3559 1806 3559 1356 
Q 3559 666 3084 287 
Q 2609 -91 1734 -91 
Q 1441 -91 1130 -33 
Q 819 25 488 141 
L 488 750 
Q 750 597 1062 519 
Q 1375 441 1716 441 
Q 2309 441 2620 675 
Q 2931 909 2931 1356 
Q 2931 1769 2642 2001 
Q 2353 2234 1838 2234 
L 1294 2234 
L 1294 2753 
L 1863 2753 
Q 2328 2753 2575 2939 
Q 2822 3125 2822 3475 
Q 2822 3834 2567 4026 
Q 2313 4219 1838 4219 
Q 1578 4219 1281 4162 
Q 984 4106 628 3988 
L 628 4550 
Q 988 4650 1302 4700 
Q 1616 4750 1894 4750 
Q 2613 4750 3031 4423 
Q 3450 4097 3450 3541 
Q 3450 3153 3228 2886 
Q 3006 2619 2597 2516 
z
" transform="scale(0.015625)"/>
       </defs>
       <use xlink:href="#DejaVuSans-2212"/>
       <use xlink:href="#DejaVuSans-30" transform="translate(83.789062 0)"/>
       <use xlink:href="#DejaVuSans-2e" transform="translate(147.412109 0)"/>
       <use xlink:href="#DejaVuSans-30" transform="translate(179.199219 0)"/>
       <use xlink:href="#DejaVuSans-33" transform="translate(242.822266 0)"/>
      </g>
     </g>
    </g>
    <g id="xtick_3">
     <g id="line2d_3">
      <g>
       <use xlink:href="#mf1ff031009" x="148.646307" y="307.584" style="stroke: #000000; stroke-width: 0.8"/>
      </g>
     </g>
     <g id="text_3">
      <!-- −0.02 -->
      <g transform="translate(133.323651 322.182437) scale(0.1 -0.1)">
       <defs>
        <path id="DejaVuSans-32" d="M 1228 531 
L 3431 531 
L 3431 0 
L 469 0 
L 469 531 
Q 828 903 1448 1529 
Q 2069 2156 2228 2338 
Q 2531 2678 2651 2914 
Q 2772 3150 2772 3378 
Q 2772 3750 2511 3984 
Q 2250 4219 1831 4219 
Q 1534 4219 1204 4116 
Q 875 4013 500 3803 
L 500 4441 
Q 881 4594 1212 4672 
Q 1544 4750 1819 4750 
Q 2544 4750 2975 4387 
Q 3406 4025 3406 3419 
Q 3406 3131 3298 2873 
Q 3191 2616 2906 2266 
Q 2828 2175 2409 1742 
Q 1991 1309 1228 531 
z
" transform="scale(0.015625)"/>
       </defs>
       <use xlink:href="#DejaVuSans-2212"/>
       <use xlink:href="#DejaVuSans-30" transform="translate(83.789062 0)"/>
       <use xlink:href="#DejaVuSans-2e" transform="translate(147.412109 0)"/>
       <use xlink:href="#DejaVuSans-30" transform="translate(179.199219 0)"/>
       <use xlink:href="#DejaVuSans-32" transform="translate(242.822266 0)"/>
      </g>
     </g>
    </g>
    <g id="xtick_4">
     <g id="line2d_4">
      <g>
       <use xlink:href="#mf1ff031009" x="192.347445" y="307.584" style="stroke: #000000; stroke-width: 0.8"/>
      </g>
     </g>
     <g id="text_4">
      <!-- −0.01 -->
      <g transform="translate(177.024788 322.182437) scale(0.1 -0.1)">
       <defs>
        <path id="DejaVuSans-31" d="M 794 531 
L 1825 531 
L 1825 4091 
L 703 3866 
L 703 4441 
L 1819 4666 
L 2450 4666 
L 2450 531 
L 3481 531 
L 3481 0 
L 794 0 
L 794 531 
z
" transform="scale(0.015625)"/>
       </defs>
       <use xlink:href="#DejaVuSans-2212"/>
       <use xlink:href="#DejaVuSans-30" transform="translate(83.789062 0)"/>
       <use xlink:href="#DejaVuSans-2e" transform="translate(147.412109 0)"/>
       <use xlink:href="#DejaVuSans-30" transform="translate(179.199219 0)"/>
       <use xlink:href="#DejaVuSans-31" transform="translate(242.822266 0)"/>
      </g>
     </g>
    </g>
    <g id="xtick_5">
     <g id="line2d_5">
      <g>
       <use xlink:href="#mf1ff031009" x="236.048582" y="307.584" style="stroke: #000000; stroke-width: 0.8"/>
      </g>
     </g>
     <g id="text_5">
      <!-- 0.00 -->
      <g transform="translate(224.91577 322.182437) scale(0.1 -0.1)">
       <use xlink:href="#DejaVuSans-30"/>
       <use xlink:href="#DejaVuSans-2e" transform="translate(63.623047 0)"/>
       <use xlink:href="#DejaVuSans-30" transform="translate(95.410156 0)"/>
       <use xlink:href="#DejaVuSans-30" transform="translate(159.033203 0)"/>
      </g>
     </g>
    </g>
    <g id="xtick_6">
     <g id="line2d_6">
      <g>
       <use xlink:href="#mf1ff031009" x="279.74972" y="307.584" style="stroke: #000000; stroke-width: 0.8"/>
      </g>
     </g>
     <g id="text_6">
      <!-- 0.01 -->
      <g transform="translate(268.616908 322.182437) scale(0.1 -0.1)">
       <use xlink:href="#DejaVuSans-30"/>
       <use xlink:href="#DejaVuSans-2e" transform="translate(63.623047 0)"/>
       <use xlink:href="#DejaVuSans-30" transform="translate(95.410156 0)"/>
       <use xlink:href="#DejaVuSans-31" transform="translate(159.033203 0)"/>
      </g>
     </g>
    </g>
    <g id="xtick_7">
     <g id="line2d_7">
      <g>
       <use xlink:href="#mf1ff031009" x="323.450858" y="307.584" style="stroke: #000000; stroke-width: 0.8"/>
      </g>
     </g>
     <g id="text_7">
      <!-- 0.02 -->
      <g transform="translate(312.318046 322.182437) scale(0.1 -0.1)">
       <use xlink:href="#DejaVuSans-30"/>
       <use xlink:href="#DejaVuSans-2e" transform="translate(63.623047 0)"/>
       <use xlink:href="#DejaVuSans-30" transform="translate(95.410156 0)"/>
       <use xlink:href="#DejaVuSans-32" transform="translate(159.033203 0)"/>
      </g>
     </g>
    </g>
    <g id="xtick_8">
     <g id="line2d_8">
      <g>
       <use xlink:href="#mf1ff031009" x="367.151996" y="307.584" style="stroke: #000000; stroke-width: 0.8"/>
      </g>
     </g>
     <g id="text_8">
      <!-- 0.03 -->
      <g transform="translate(356.019184 322.182437) scale(0.1 -0.1)">
       <use xlink:href="#DejaVuSans-30"/>
       <use xlink:href="#DejaVuSans-2e" transform="translate(63.623047 0)"/>
       <use xlink:href="#DejaVuSans-30" transform="translate(95.410156 0)"/>
       <use xlink:href="#DejaVuSans-33" transform="translate(159.033203 0)"/>
      </g>
     </g>
    </g>
    <g id="xtick_9">
     <g id="line2d_9">
      <g>
       <use xlink:href="#mf1ff031009" x="410.853134" y="307.584" style="stroke: #000000; stroke-width: 0.8"/>
      </g>
     </g>
     <g id="text_9">
      <!-- 0.04 -->
      <g transform="translate(399.720321 322.182437) scale(0.1 -0.1)">
       <use xlink:href="#DejaVuSans-30"/>
       <use xlink:href="#DejaVuSans-2e" transform="translate(63.623047 0)"/>
       <use xlink:href="#DejaVuSans-30" transform="translate(95.410156 0)"/>
       <use xlink:href="#DejaVuSans-34" transform="translate(159.033203 0)"/>
      </g>
     </g>
    </g>
    <g id="text_10">
     <!-- Strain -->
     <g transform="translate(221.348281 335.860562) scale(0.1 -0.1)">
      <defs>
       <path id="DejaVuSans-53" d="M 3425 4513 
L 3425 3897 
Q 3066 4069 2747 4153 
Q 2428 4238 2131 4238 
Q 1616 4238 1336 4038 
Q 1056 3838 1056 3469 
Q 1056 3159 1242 3001 
Q 1428 2844 1947 2747 
L 2328 2669 
Q 3034 2534 3370 2195 
Q 3706 1856 3706 1288 
Q 3706 609 3251 259 
Q 2797 -91 1919 -91 
Q 1588 -91 1214 -16 
Q 841 59 441 206 
L 441 856 
Q 825 641 1194 531 
Q 1563 422 1919 422 
Q 2459 422 2753 634 
Q 3047 847 3047 1241 
Q 3047 1584 2836 1778 
Q 2625 1972 2144 2069 
L 1759 2144 
Q 1053 2284 737 2584 
Q 422 2884 422 3419 
Q 422 4038 858 4394 
Q 1294 4750 2059 4750 
Q 2388 4750 2728 4690 
Q 3069 4631 3425 4513 
z
" transform="scale(0.015625)"/>
       <path id="DejaVuSans-74" d="M 1172 4494 
L 1172 3500 
L 2356 3500 
L 2356 3053 
L 1172 3053 
L 1172 1153 
Q 1172 725 1289 603 
Q 1406 481 1766 481 
L 2356 481 
L 2356 0 
L 1766 0 
Q 1100 0 847 248 
Q 594 497 594 1153 
L 594 3053 
L 172 3053 
L 172 3500 
L 594 3500 
L 594 4494 
L 1172 4494 
z
" transform="scale(0.015625)"/>
       <path id="DejaVuSans-72" d="M 2631 2963 
Q 2534 3019 2420 3045 
Q 2306 3072 2169 3072 
Q 1681 3072 1420 2755 
Q 1159 2438 1159 1844 
L 1159 0 
L 581 0 
L 581 3500 
L 1159 3500 
L 1159 2956 
Q 1341 3275 1631 3429 
Q 1922 3584 2338 3584 
Q 2397 3584 2469 3576 
Q 2541 3569 2628 3553 
L 2631 2963 
z
" transform="scale(0.015625)"/>
       <path id="DejaVuSans-61" d="M 2194 1759 
Q 1497 1759 1228 1600 
Q 959 1441 959 1056 
Q 959 750 1161 570 
Q 1363 391 1709 391 
Q 2188 391 2477 730 
Q 2766 1069 2766 1631 
L 2766 1759 
L 2194 1759 
z
M 3341 1997 
L 3341 0 
L 2766 0 
L 2766 531 
Q 2569 213 2275 61 
Q 1981 -91 1556 -91 
Q 1019 -91 701 211 
Q 384 513 384 1019 
Q 384 1609 779 1909 
Q 1175 2209 1959 2209 
L 2766 2209 
L 2766 2266 
Q 2766 2663 2505 2880 
Q 2244 3097 1772 3097 
Q 1472 3097 1187 3025 
Q 903 2953 641 2809 
L 641 3341 
Q 956 3463 1253 3523 
Q 1550 3584 1831 3584 
Q 2591 3584 2966 3190 
Q 3341 2797 3341 1997 
z
" transform="scale(0.015625)"/>
       <path id="DejaVuSans-69" d="M 603 3500 
L 1178 3500 
L 1178 0 
L 603 0 
L 603 3500 
z
M 603 4863 
L 1178 4863 
L 1178 4134 
L 603 4134 
L 603 4863 
z
" transform="scale(0.015625)"/>
       <path id="DejaVuSans-6e" d="M 3513 2113 
L 3513 0 
L 2938 0 
L 2938 2094 
Q 2938 2591 2744 2837 
Q 2550 3084 2163 3084 
Q 1697 3084 1428 2787 
Q 1159 2491 1159 1978 
L 1159 0 
L 581 0 
L 581 3500 
L 1159 3500 
L 1159 2956 
Q 1366 3272 1645 3428 
Q 1925 3584 2291 3584 
Q 2894 3584 3203 3211 
Q 3513 2838 3513 2113 
z
" transform="scale(0.015625)"/>
      </defs>
      <use xlink:href="#DejaVuSans-53"/>
      <use xlink:href="#DejaVuSans-74" transform="translate(63.476562 0)"/>
      <use xlink:href="#DejaVuSans-72" transform="translate(102.685547 0)"/>
      <use xlink:href="#DejaVuSans-61" transform="translate(143.798828 0)"/>
      <use xlink:href="#DejaVuSans-69" transform="translate(205.078125 0)"/>
      <use xlink:href="#DejaVuSans-6e" transform="translate(232.861328 0)"/>
     </g>
    </g>
   </g>
   <g id="matplotlib.axis_2">
    <g id="ytick_1">
     <g id="line2d_10">
      <defs>
       <path id="m0ae2330edf" d="M 0 0 
L -3.5 0 
" style="stroke: #000000; stroke-width: 0.8"/>
      </defs>
      <g>
       <use xlink:href="#m0ae2330edf" x="57.6" y="288.665623" style="stroke: #000000; stroke-width: 0.8"/>
      </g>
     </g>
     <g id="text_11">
      <!-- −150 -->
      <g transform="translate(23.132812 292.464842) scale(0.1 -0.1)">
       <defs>
        <path id="DejaVuSans-35" d="M 691 4666 
L 3169 4666 
L 3169 4134 
L 1269 4134 
L 1269 2991 
Q 1406 3038 1543 3061 
Q 1681 3084 1819 3084 
Q 2600 3084 3056 2656 
Q 3513 2228 3513 1497 
Q 3513 744 3044 326 
Q 2575 -91 1722 -91 
Q 1428 -91 1123 -41 
Q 819 9 494 109 
L 494 744 
Q 775 591 1075 516 
Q 1375 441 1709 441 
Q 2250 441 2565 725 
Q 2881 1009 2881 1497 
Q 2881 1984 2565 2268 
Q 2250 2553 1709 2553 
Q 1456 2553 1204 2497 
Q 953 2441 691 2322 
L 691 4666 
z
" transform="scale(0.015625)"/>
       </defs>
       <use xlink:href="#DejaVuSans-2212"/>
       <use xlink:href="#DejaVuSans-31" transform="translate(83.789062 0)"/>
       <use xlink:href="#DejaVuSans-35" transform="translate(147.412109 0)"/>
       <use xlink:href="#DejaVuSans-30" transform="translate(211.035156 0)"/>
      </g>
     </g>
    </g>
    <g id="ytick_2">
     <g id="line2d_11">
      <g>
       <use xlink:href="#m0ae2330edf" x="57.6" y="235.211216" style="stroke: #000000; stroke-width: 0.8"/>
      </g>
     </g>
     <g id="text_12">
      <!-- −100 -->
      <g transform="translate(23.132812 239.010435) scale(0.1 -0.1)">
       <use xlink:href="#DejaVuSans-2212"/>
       <use xlink:href="#DejaVuSans-31" transform="translate(83.789062 0)"/>
       <use xlink:href="#DejaVuSans-30" transform="translate(147.412109 0)"/>
       <use xlink:href="#DejaVuSans-30" transform="translate(211.035156 0)"/>
      </g>
     </g>
    </g>
    <g id="ytick_3">
     <g id="line2d_12">
      <g>
       <use xlink:href="#m0ae2330edf" x="57.6" y="181.75681" style="stroke: #000000; stroke-width: 0.8"/>
      </g>
     </g>
     <g id="text_13">
      <!-- −50 -->
      <g transform="translate(29.495313 185.556028) scale(0.1 -0.1)">
       <use xlink:href="#DejaVuSans-2212"/>
       <use xlink:href="#DejaVuSans-35" transform="translate(83.789062 0)"/>
       <use xlink:href="#DejaVuSans-30" transform="translate(147.412109 0)"/>
      </g>
     </g>
    </g>
    <g id="ytick_4">
     <g id="line2d_13">
      <g>
       <use xlink:href="#m0ae2330edf" x="57.6" y="128.302403" style="stroke: #000000; stroke-width: 0.8"/>
      </g>
     </g>
     <g id="text_14">
      <!-- 0 -->
      <g transform="translate(44.2375 132.101622) scale(0.1 -0.1)">
       <use xlink:href="#DejaVuSans-30"/>
      </g>
     </g>
    </g>
    <g id="ytick_5">
     <g id="line2d_14">
      <g>
       <use xlink:href="#m0ae2330edf" x="57.6" y="74.847996" style="stroke: #000000; stroke-width: 0.8"/>
      </g>
     </g>
     <g id="text_15">
      <!-- 50 -->
      <g transform="translate(37.875 78.647215) scale(0.1 -0.1)">
       <use xlink:href="#DejaVuSans-35"/>
       <use xlink:href="#DejaVuSans-30" transform="translate(63.623047 0)"/>
      </g>
     </g>
    </g>
    <g id="text_16">
     <!-- Stress [Pa] -->
     <g transform="translate(17.053125 201.235813) rotate(-90) scale(0.1 -0.1)">
      <defs>
       <path id="DejaVuSans-65" d="M 3597 1894 
L 3597 1613 
L 953 1613 
Q 991 1019 1311 708 
Q 1631 397 2203 397 
Q 2534 397 2845 478 
Q 3156 559 3463 722 
L 3463 178 
Q 3153 47 2828 -22 
Q 2503 -91 2169 -91 
Q 1331 -91 842 396 
Q 353 884 353 1716 
Q 353 2575 817 3079 
Q 1281 3584 2069 3584 
Q 2775 3584 3186 3129 
Q 3597 2675 3597 1894 
z
M 3022 2063 
Q 3016 2534 2758 2815 
Q 2500 3097 2075 3097 
Q 1594 3097 1305 2825 
Q 1016 2553 972 2059 
L 3022 2063 
z
" transform="scale(0.015625)"/>
       <path id="DejaVuSans-73" d="M 2834 3397 
L 2834 2853 
Q 2591 2978 2328 3040 
Q 2066 3103 1784 3103 
Q 1356 3103 1142 2972 
Q 928 2841 928 2578 
Q 928 2378 1081 2264 
Q 1234 2150 1697 2047 
L 1894 2003 
Q 2506 1872 2764 1633 
Q 3022 1394 3022 966 
Q 3022 478 2636 193 
Q 2250 -91 1575 -91 
Q 1294 -91 989 -36 
Q 684 19 347 128 
L 347 722 
Q 666 556 975 473 
Q 1284 391 1588 391 
Q 1994 391 2212 530 
Q 2431 669 2431 922 
Q 2431 1156 2273 1281 
Q 2116 1406 1581 1522 
L 1381 1569 
Q 847 1681 609 1914 
Q 372 2147 372 2553 
Q 372 3047 722 3315 
Q 1072 3584 1716 3584 
Q 2034 3584 2315 3537 
Q 2597 3491 2834 3397 
z
" transform="scale(0.015625)"/>
       <path id="DejaVuSans-20" transform="scale(0.015625)"/>
       <path id="DejaVuSans-5b" d="M 550 4863 
L 1875 4863 
L 1875 4416 
L 1125 4416 
L 1125 -397 
L 1875 -397 
L 1875 -844 
L 550 -844 
L 550 4863 
z
" transform="scale(0.015625)"/>
       <path id="DejaVuSans-50" d="M 1259 4147 
L 1259 2394 
L 2053 2394 
Q 2494 2394 2734 2622 
Q 2975 2850 2975 3272 
Q 2975 3691 2734 3919 
Q 2494 4147 2053 4147 
L 1259 4147 
z
M 628 4666 
L 2053 4666 
Q 2838 4666 3239 4311 
Q 3641 3956 3641 3272 
Q 3641 2581 3239 2228 
Q 2838 1875 2053 1875 
L 1259 1875 
L 1259 0 
L 628 0 
L 628 4666 
z
" transform="scale(0.015625)"/>
       <path id="DejaVuSans-5d" d="M 1947 4863 
L 1947 -844 
L 622 -844 
L 622 -397 
L 1369 -397 
L 1369 4416 
L 622 4416 
L 622 4863 
L 1947 4863 
z
" transform="scale(0.015625)"/>
      </defs>
      <use xlink:href="#DejaVuSans-53"/>
      <use xlink:href="#DejaVuSans-74" transform="translate(63.476562 0)"/>
      <use xlink:href="#DejaVuSans-72" transform="translate(102.685547 0)"/>
      <use xlink:href="#DejaVuSans-65" transform="translate(141.548828 0)"/>
      <use xlink:href="#DejaVuSans-73" transform="translate(203.072266 0)"/>
      <use xlink:href="#DejaVuSans-73" transform="translate(255.171875 0)"/>
      <use xlink:href="#DejaVuSans-20" transform="translate(307.271484 0)"/>
      <use xlink:href="#DejaVuSans-5b" transform="translate(339.058594 0)"/>
      <use xlink:href="#DejaVuSans-50" transform="translate(378.072266 0)"/>
      <use xlink:href="#DejaVuSans-61" transform="translate(433.875 0)"/>
      <use xlink:href="#DejaVuSans-5d" transform="translate(495.154297 0)"/>
     </g>
    </g>
   </g>
   <g id="line2d_15">
    <path d="M 236.048582 133.576141 
L 236.048582 134.870588 
L 236.048582 133.248303 
L 236.049823 134.787462 
L 236.264142 135.575713 
L 237.918358 116.776854 
L 239.608269 110.852113 
L 241.253108 114.903239 
L 242.942401 123.385847 
L 244.590944 129.430017 
L 246.274064 133.94549 
L 247.937425 137.642612 
L 249.674879 144.972466 
L 251.328979 148.415638 
L 253.004689 153.340546 
L 254.670211 139.621733 
L 256.319371 128.438266 
L 257.99045 129.270901 
L 259.622323 132.082686 
L 261.322113 134.073524 
L 263.018816 136.452248 
L 264.709961 137.731912 
L 267.982054 132.930607 
L 269.658073 132.57599 
L 272.950837 132.779474 
L 274.59691 133.287569 
L 276.226931 134.077232 
L 277.913137 133.681751 
L 279.596874 133.779556 
L 281.282463 133.600025 
L 282.960025 132.890555 
L 284.64191 131.902276 
L 286.262051 132.177873 
L 287.899481 132.877095 
L 289.562842 133.978183 
L 294.522672 134.840641 
L 296.207027 133.612335 
L 297.901877 132.641646 
L 299.540541 133.290914 
L 302.86603 134.046906 
L 304.513955 134.592051 
L 306.183428 134.601065 
L 307.812523 133.133899 
L 309.459522 132.724302 
L 311.126897 132.704499 
L 312.813103 132.195658 
L 316.1318 132.416187 
L 319.48446 130.107336 
L 321.18425 129.799556 
L 322.816122 128.750406 
L 326.069371 127.231704 
L 327.696921 126.063892 
L 329.321385 125.039654 
L 330.942761 124.575948 
L 332.568459 123.962866 
L 334.267632 122.888844 
L 335.958778 122.100782 
L 337.650541 120.706832 
L 339.274387 119.186184 
L 340.907494 117.43083 
L 342.554803 116.455273 
L 345.854976 113.878712 
L 347.499612 112.957462 
L 349.127162 111.766542 
L 350.815221 109.882414 
L 352.500193 108.342812 
L 355.81642 105.653572 
L 357.449527 103.862389 
L 359.087574 102.482459 
L 360.722533 101.588296 
L 362.416766 100.148651 
L 364.083524 98.123543 
L 367.420435 94.701109 
L 369.041193 93.038443 
L 372.301851 90.439554 
L 373.999789 88.66317 
L 377.386403 84.528833 
L 379.02198 82.689619 
L 380.674845 81.075504 
L 382.315979 79.651437 
L 384.007125 77.506899 
L 385.664003 73.777584 
L 387.340225 70.778196 
L 388.982594 69.29065 
L 390.654599 68.017687 
L 392.308082 67.759851 
L 393.996758 68.810165 
L 395.638818 68.002458 
L 397.270073 66.115602 
L 397.475678 65.451471 
L 398.487273 60.130311 
L 398.368475 60.146311 
L 398.119534 63.938477 
L 398.038091 62.938316 
L 397.928786 64.846571 
L 397.914527 63.143232 
L 397.902449 73.214711 
L 397.896487 72.080979 
L 396.273799 72.794128 
L 394.611826 83.507472 
L 392.911419 91.187436 
L 391.181375 87.298189 
L 389.471706 86.682543 
L 387.781795 86.48813 
L 386.03261 86.934205 
L 384.400738 85.998436 
L 382.683042 84.48298 
L 380.991896 81.445707 
L 379.315569 89.666609 
L 377.652207 95.991181 
L 375.99749 99.550179 
L 374.306344 103.891181 
L 372.639278 107.139663 
L 370.983943 109.158411 
L 369.268717 108.602155 
L 367.568309 108.845233 
L 365.938965 109.479623 
L 364.227443 110.298429 
L 362.537532 111.994976 
L 360.88158 115.616545 
L 359.262365 123.26107 
L 357.623083 127.354905 
L 355.964044 129.942371 
L 354.270428 130.164905 
L 352.638555 130.797271 
L 350.96408 132.692305 
L 349.335295 135.044028 
L 347.672859 136.987872 
L 346.044074 140.395247 
L 344.414363 142.697121 
L 342.783108 144.083152 
L 341.10678 146.524707 
L 339.444345 151.014217 
L 337.795184 154.522847 
L 336.115152 156.162925 
L 334.455495 157.274658 
L 332.768671 158.56216 
L 331.094196 158.75534 
L 329.411076 159.617456 
L 327.760064 162.914746 
L 326.071696 166.755182 
L 324.409888 168.847839 
L 321.135029 170.96566 
L 316.12086 178.521392 
L 314.427861 181.584498 
L 312.789197 183.43903 
L 311.144976 183.990739 
L 309.522983 185.598234 
L 306.161683 190.865593 
L 302.841135 194.890886 
L 301.20741 196.483711 
L 299.581094 198.36161 
L 296.338342 202.531257 
L 294.708322 205.159225 
L 293.059779 206.7625 
L 291.413088 208.054676 
L 289.716385 210.568406 
L 288.04654 213.869853 
L 286.365891 214.577343 
L 283.007838 217.421363 
L 281.316074 218.544519 
L 279.632955 220.362313 
L 277.963419 223.808114 
L 276.272276 226.573166 
L 274.628672 227.6418 
L 272.983216 228.573098 
L 269.667607 231.472444 
L 268.009802 233.658003 
L 266.352615 237.004106 
L 264.668261 239.070755 
L 261.387228 241.478038 
L 259.749181 243.611671 
L 258.116691 245.313282 
L 256.48914 247.334756 
L 254.856651 248.977171 
L 253.217369 250.414478 
L 251.579322 251.070351 
L 249.956711 252.084593 
L 246.583063 256.071395 
L 244.886978 257.568418 
L 241.636445 261.747225 
L 240.013835 263.31201 
L 238.323306 264.387841 
L 236.646052 266.084787 
L 234.964785 267.481511 
L 233.332913 268.240099 
L 231.692396 269.426865 
L 230.061141 270.914281 
L 228.365056 271.799487 
L 226.686876 274.080331 
L 225.010549 276.170346 
L 223.311376 277.17112 
L 220.051336 280.255143 
L 218.42996 281.280679 
L 216.733874 281.80156 
L 215.043344 283.098149 
L 213.352199 283.366395 
L 211.733292 284.150994 
L 210.112533 284.451077 
L 208.491157 285.325038 
L 206.867311 285.273631 
L 205.230499 285.81749 
L 203.580753 285.504507 
L 201.924183 285.069076 
L 200.280579 284.985978 
L 198.649324 285.565098 
L 197.0298 285.787681 
L 195.402867 285.835875 
L 193.766673 285.450455 
L 192.136653 285.417158 
L 188.890813 286.771644 
L 187.266967 286.816657 
L 185.577056 287.446745 
L 183.885293 287.862428 
L 178.935341 286.760512 
L 175.627141 285.32606 
L 173.946492 284.90981 
L 172.272634 284.798315 
L 170.596924 285.366692 
L 168.975547 285.321549 
L 165.703158 286.482514 
L 162.381616 287.682683 
L 159.137629 288.334304 
L 157.500199 287.943951 
L 155.870797 288.228473 
L 154.18459 288.704844 
L 152.515054 289.689683 
L 150.83317 289.860681 
L 147.560163 290.566305 
L 145.900507 290.600738 
L 144.246406 291.335132 
L 142.608977 291.438156 
L 140.924005 292.268418 
L 139.25447 292.575219 
L 137.563941 293.221193 
L 135.93886 293.183206 
L 134.315014 293.649516 
L 132.619547 293.738634 
L 130.944454 294.10979 
L 129.289428 294.887705 
L 127.626375 295.430168 
L 126.006234 295.488 
L 124.363247 294.937391 
L 122.715215 294.669665 
L 121.077169 294.586827 
L 119.378613 294.33523 
L 117.709386 293.866858 
L 116.046642 293.980446 
L 114.36661 293.728752 
L 112.668055 293.278993 
L 110.968882 293.501041 
L 109.341332 293.396053 
L 107.701433 293.509479 
L 104.36977 291.35819 
L 102.710113 291.359862 
L 101.053852 291.63416 
L 99.373203 289.968378 
L 97.675265 288.679708 
L 96.047715 286.602674 
L 94.413372 283.807505 
L 92.788909 280.653009 
L 91.117212 278.375021 
L 89.455394 275.173273 
L 87.776597 270.947546 
L 86.089156 266.134019 
L 84.396157 259.537349 
L 82.769224 252.21788 
L 81.147057 239.804938 
L 79.509319 213.65092 
L 77.872816 185.079235 
L 76.214702 153.155215 
L 74.58036 132.248432 
L 74.526026 132.43225 
L 74.220089 133.184655 
L 73.833924 136.181591 
L 73.833924 136.181591 
" clip-path="url(#p252b98e051)" style="fill: none; stroke: #ff0000; stroke-width: 1.5; stroke-linecap: square"/>
   </g>
   <g id="line2d_16">
    <path d="M 236.048582 133.576141 
L 236.048582 134.870588 
L 236.048582 133.248303 
L 236.049823 134.787462 
L 236.264142 135.575713 
L 237.918358 116.776854 
L 239.608269 110.852113 
L 241.253108 114.903239 
L 242.942401 123.385847 
L 244.590944 148.807838 
L 246.274064 148.065428 
L 247.937425 146.972908 
L 249.674879 151.568347 
L 251.328979 150.800331 
L 253.004689 153.35794 
L 254.670211 139.621733 
L 256.319371 128.438266 
L 257.99045 129.270901 
L 259.622323 132.082686 
L 261.322113 134.073524 
L 263.018816 136.452248 
L 264.709961 137.731912 
L 267.982054 132.930607 
L 269.658073 132.57599 
L 272.950837 132.779474 
L 274.59691 133.287569 
L 276.226931 134.077232 
L 277.913137 133.681751 
L 279.596874 133.779556 
L 281.282463 133.600025 
L 282.960025 132.890555 
L 284.64191 131.902276 
L 286.262051 132.177873 
L 287.899481 132.877095 
L 289.562842 133.978183 
L 294.522672 134.840641 
L 296.207027 133.612335 
L 297.901877 132.641646 
L 299.540541 133.290914 
L 302.86603 134.046906 
L 304.513955 134.592051 
L 306.183428 134.601065 
L 307.812523 133.133899 
L 309.459522 132.724302 
L 311.126897 132.704499 
L 312.813103 132.195658 
L 316.1318 132.416187 
L 319.48446 130.107336 
L 321.18425 129.799556 
L 322.816122 128.750406 
L 326.069371 127.231704 
L 327.696921 126.063892 
L 329.321385 125.039654 
L 330.942761 124.575948 
L 332.568459 123.962866 
L 334.267632 122.888844 
L 335.958778 122.100782 
L 337.650541 120.706832 
L 339.274387 119.186184 
L 340.907494 117.43083 
L 342.554803 116.455273 
L 345.854976 113.878712 
L 347.499612 112.957462 
L 349.127162 111.766542 
L 350.815221 109.882414 
L 352.500193 108.342812 
L 355.81642 105.653572 
L 357.449527 103.862389 
L 359.087574 102.482459 
L 360.722533 101.588296 
L 362.416766 100.148651 
L 364.083524 98.123543 
L 367.420435 94.701109 
L 369.041193 93.038443 
L 372.301851 90.439554 
L 373.999789 88.66317 
L 377.386403 84.528833 
L 379.02198 82.689619 
L 380.674845 81.075504 
L 382.315979 79.651437 
L 384.007125 77.506899 
L 385.664003 73.777584 
L 387.340225 70.778196 
L 388.982594 69.29065 
L 390.654599 68.017687 
L 392.308082 67.759851 
L 393.996758 68.810165 
L 395.638818 68.002458 
L 397.270073 66.115602 
L 397.475678 65.451471 
L 398.487273 60.130311 
L 398.368475 60.146311 
L 398.229688 58.400809 
L 398.119534 58.978809 
L 398.038091 53.568 
L 397.902449 73.214711 
L 397.896487 72.080979 
L 396.273799 72.794128 
L 394.611826 83.507472 
L 392.911419 91.187436 
L 391.181375 87.298189 
L 389.471706 86.682543 
L 387.781795 86.48813 
L 386.03261 86.934205 
L 384.400738 85.998436 
L 382.683042 84.48298 
L 380.991896 81.445707 
L 379.315569 89.666609 
L 377.652207 95.991181 
L 375.99749 99.550179 
L 374.306344 103.891181 
L 372.639278 107.139663 
L 370.983943 109.158411 
L 369.268717 108.602155 
L 367.568309 108.845233 
L 365.938965 109.479623 
L 364.227443 110.298429 
L 362.537532 111.994976 
L 360.88158 115.616545 
L 359.262365 123.26107 
L 357.623083 127.354905 
L 355.964044 129.942371 
L 354.270428 130.164905 
L 352.638555 130.797271 
L 350.96408 132.692305 
L 349.335295 135.044028 
L 347.672859 136.987872 
L 346.044074 140.395247 
L 344.414363 142.697121 
L 342.783108 144.083152 
L 341.10678 146.524707 
L 339.444345 151.014217 
L 337.795184 154.522847 
L 336.115152 156.162925 
L 334.455495 157.274658 
L 332.768671 158.56216 
L 331.094196 158.75534 
L 329.411076 159.617456 
L 327.760064 162.914746 
L 326.071696 166.755182 
L 324.409888 168.847839 
L 321.135029 170.96566 
L 316.12086 178.521392 
L 314.427861 181.584498 
L 312.789197 183.43903 
L 311.144976 183.990739 
L 309.522983 185.598234 
L 306.161683 190.865593 
L 302.841135 194.890886 
L 301.20741 196.483711 
L 299.581094 198.36161 
L 296.338342 202.531257 
L 294.708322 205.159225 
L 293.059779 206.7625 
L 291.413088 208.054676 
L 289.716385 210.568406 
L 288.04654 213.869853 
L 286.365891 214.577343 
L 283.007838 217.421363 
L 281.316074 218.544519 
L 279.632955 220.362313 
L 277.963419 223.808114 
L 276.272276 226.573166 
L 274.628672 227.6418 
L 272.983216 228.573098 
L 269.667607 231.472444 
L 268.009802 233.658003 
L 266.352615 237.004106 
L 264.668261 239.070755 
L 261.387228 241.478038 
L 259.749181 243.611671 
L 258.116691 245.313282 
L 256.48914 247.334756 
L 254.856651 248.977171 
L 253.217369 250.414478 
L 251.579322 251.070351 
L 249.956711 252.084593 
L 246.583063 256.071395 
L 244.886978 257.568418 
L 241.636445 261.747225 
L 240.013835 263.31201 
L 238.323306 264.387841 
L 236.646052 266.084787 
L 234.964785 267.481511 
L 233.332913 268.240099 
L 231.692396 269.426865 
L 230.061141 270.914281 
L 228.365056 271.799487 
L 226.686876 274.080331 
L 225.010549 276.170346 
L 223.311376 277.17112 
L 220.051336 280.255143 
L 218.42996 281.280679 
L 216.733874 281.80156 
L 215.043344 283.098149 
L 213.352199 283.366395 
L 211.733292 284.150994 
L 210.112533 284.451077 
L 208.491157 285.325038 
L 206.867311 285.273631 
L 205.230499 285.81749 
L 203.580753 285.504507 
L 201.924183 285.069076 
L 200.280579 284.985978 
L 198.649324 285.565098 
L 197.0298 285.787681 
L 195.402867 285.835875 
L 193.766673 285.450455 
L 192.136653 285.417158 
L 188.890813 286.771644 
L 187.266967 286.816657 
L 185.577056 287.446745 
L 183.885293 287.862428 
L 178.935341 286.760512 
L 175.627141 285.32606 
L 173.946492 284.90981 
L 172.272634 284.798315 
L 170.596924 285.366692 
L 168.975547 285.321549 
L 165.703158 286.482514 
L 162.381616 287.682683 
L 159.137629 288.334304 
L 157.500199 287.943951 
L 155.870797 288.228473 
L 154.18459 288.704844 
L 152.515054 289.689683 
L 150.83317 289.860681 
L 147.560163 290.566305 
L 145.900507 290.600738 
L 144.246406 291.335132 
L 142.608977 291.438156 
L 140.924005 292.268418 
L 139.25447 292.575219 
L 137.563941 293.221193 
L 135.93886 293.183206 
L 134.315014 293.649516 
L 132.619547 293.738634 
L 130.944454 294.10979 
L 129.289428 294.887705 
L 127.626375 295.430168 
L 126.006234 295.488 
L 124.363247 294.937391 
L 122.715215 294.669665 
L 121.077169 294.586827 
L 119.378613 294.33523 
L 117.709386 293.866858 
L 116.046642 293.980446 
L 114.36661 293.728752 
L 112.668055 293.278993 
L 110.968882 293.501041 
L 109.341332 293.396053 
L 107.701433 293.509479 
L 104.36977 291.35819 
L 102.710113 291.359862 
L 101.053852 291.63416 
L 99.373203 289.968378 
L 97.675265 288.679708 
L 96.047715 286.602674 
L 94.413372 283.807505 
L 92.788909 280.653009 
L 91.117212 278.375021 
L 89.455394 275.173273 
L 87.776597 270.947546 
L 86.089156 266.134019 
L 84.396157 259.537349 
L 82.769224 252.21788 
L 81.147057 239.804938 
L 79.509319 213.65092 
L 77.872816 185.079235 
L 76.214702 153.155215 
L 74.58036 132.248432 
L 74.526026 132.43225 
L 74.220089 133.184655 
L 73.833924 136.181591 
L 73.833924 136.181591 
" clip-path="url(#p252b98e051)" style="fill: none; stroke: #000000; stroke-width: 1.5; stroke-linecap: square"/>
   </g>
   <g id="patch_3">
    <path d="M 57.6 307.584 
L 57.6 41.472 
" style="fill: none; stroke: #000000; stroke-width: 0.8; stroke-linejoin: miter; stroke-linecap: square"/>
   </g>
   <g id="patch_4">
    <path d="M 414.72 307.584 
L 414.72 41.472 
" style="fill: none; stroke: #000000; stroke-width: 0.8; stroke-linejoin: miter; stroke-linecap: square"/>
   </g>
   <g id="patch_5">
    <path d="M 57.6 307.584 
L 414.72 307.584 
" style="fill: none; stroke: #000000; stroke-width: 0.8; stroke-linejoin: miter; stroke-linecap: square"/>
   </g>
   <g id="patch_6">
    <path d="M 57.6 41.472 
L 414.72 41.472 
" style="fill: none; stroke: #000000; stroke-width: 0.8; stroke-linejoin: miter; stroke-linecap: square"/>
   </g>
   <g id="text_17">
    <!-- 2025-06-16 trial 1 -->
    <g transform="translate(181.83 35.472) scale(0.12 -0.12)">
     <defs>
      <path id="DejaVuSans-2d" d="M 313 2009 
L 1997 2009 
L 1997 1497 
L 313 1497 
L 313 2009 
z
" transform="scale(0.015625)"/>
      <path id="DejaVuSans-36" d="M 2113 2584 
Q 1688 2584 1439 2293 
Q 1191 2003 1191 1497 
Q 1191 994 1439 701 
Q 1688 409 2113 409 
Q 2538 409 2786 701 
Q 3034 994 3034 1497 
Q 3034 2003 2786 2293 
Q 2538 2584 2113 2584 
z
M 3366 4563 
L 3366 3988 
Q 3128 4100 2886 4159 
Q 2644 4219 2406 4219 
Q 1781 4219 1451 3797 
Q 1122 3375 1075 2522 
Q 1259 2794 1537 2939 
Q 1816 3084 2150 3084 
Q 2853 3084 3261 2657 
Q 3669 2231 3669 1497 
Q 3669 778 3244 343 
Q 2819 -91 2113 -91 
Q 1303 -91 875 529 
Q 447 1150 447 2328 
Q 447 3434 972 4092 
Q 1497 4750 2381 4750 
Q 2619 4750 2861 4703 
Q 3103 4656 3366 4563 
z
" transform="scale(0.015625)"/>
      <path id="DejaVuSans-6c" d="M 603 4863 
L 1178 4863 
L 1178 0 
L 603 0 
L 603 4863 
z
" transform="scale(0.015625)"/>
     </defs>
     <use xlink:href="#DejaVuSans-32"/>
     <use xlink:href="#DejaVuSans-30" transform="translate(63.623047 0)"/>
     <use xlink:href="#DejaVuSans-32" transform="translate(127.246094 0)"/>
     <use xlink:href="#DejaVuSans-35" transform="translate(190.869141 0)"/>
     <use xlink:href="#DejaVuSans-2d" transform="translate(254.492188 0)"/>
     <use xlink:href="#DejaVuSans-30" transform="translate(290.576172 0)"/>
     <use xlink:href="#DejaVuSans-36" transform="translate(354.199219 0)"/>
     <use xlink:href="#DejaVuSans-2d" transform="translate(417.822266 0)"/>
     <use xlink:href="#DejaVuSans-31" transform="translate(453.90625 0)"/>
     <use xlink:href="#DejaVuSans-36" transform="translate(517.529297 0)"/>
     <use xlink:href="#DejaVuSans-20" transform="translate(581.152344 0)"/>
     <use xlink:href="#DejaVuSans-74" transform="translate(612.939453 0)"/>
     <use xlink:href="#DejaVuSans-72" transform="translate(652.148438 0)"/>
     <use xlink:href="#DejaVuSans-69" transform="translate(693.261719 0)"/>
     <use xlink:href="#DejaVuSans-61" transform="translate(721.044922 0)"/>
     <use xlink:href="#DejaVuSans-6c" transform="translate(782.324219 0)"/>
     <use xlink:href="#DejaVuSans-20" transform="translate(810.107422 0)"/>
     <use xlink:href="#DejaVuSans-31" transform="translate(841.894531 0)"/>
    </g>
   </g>
  </g>
 </g>
 <defs>
  <clipPath id="p252b98e051">
   <rect x="57.6" y="41.472" width="357.12" height="266.112"/>
  </clipPath>
 </defs>
</svg>
