<?xml version="1.0" encoding="utf-8" standalone="no"?>
<!DOCTYPE svg PUBLIC "-//W3C//DTD SVG 1.1//EN"
  "http://www.w3.org/Graphics/SVG/1.1/DTD/svg11.dtd">
<svg xmlns:xlink="http://www.w3.org/1999/xlink" width="460.8pt" height="345.6pt" viewBox="0 0 460.8 345.6" xmlns="http://www.w3.org/2000/svg" version="1.1">
 <metadata>
  <rdf:RDF xmlns:dc="http://purl.org/dc/elements/1.1/" xmlns:cc="http://creativecommons.org/ns#" xmlns:rdf="http://www.w3.org/1999/02/22-rdf-syntax-ns#">
   <cc:Work>
    <dc:type rdf:resource="http://purl.org/dc/dcmitype/StillImage"/>
    <dc:date>2025-07-14T21:35:08.740831</dc:date>
    <dc:format>image/svg+xml</dc:format>
    <dc:creator>
     <cc:Agent>
      <dc:title>Matplotlib v3.10.3, https://matplotlib.org/</dc:title>
     </cc:Agent>
    </dc:creator>
   </cc:Work>
  </rdf:RDF>
 </metadata>
 <defs>
  <style type="text/css">*{stroke-linejoin: round; stroke-linecap: butt}</style>
 </defs>
 <g id="figure_1">
  <g id="patch_1">
   <path d="M 0 345.6 
L 460.8 345.6 
L 460.8 0 
L 0 0 
z
" style="fill: #ffffff"/>
  </g>
  <g id="axes_1">
   <g id="patch_2">
    <path d="M 57.6 307.584 
L 414.72 307.584 
L 414.72 41.472 
L 57.6 41.472 
z
" style="fill: #ffffff"/>
   </g>
   <g id="matplotlib.axis_1">
    <g id="xtick_1">
     <g id="line2d_1">
      <defs>
       <path id="m6460544cdf" d="M 0 0 
L 0 3.5 
" style="stroke: #000000; stroke-width: 0.8"/>
      </defs>
      <g>
       <use xlink:href="#m6460544cdf" x="73.974012" y="307.584" style="stroke: #000000; stroke-width: 0.8"/>
      </g>
     </g>
     <g id="text_1">
      <!-- 0.000 -->
      <g transform="translate(59.659949 322.182437) scale(0.1 -0.1)">
       <defs>
        <path id="DejaVuSans-30" d="M 2034 4250 
Q 1547 4250 1301 3770 
Q 1056 3291 1056 2328 
Q 1056 1369 1301 889 
Q 1547 409 2034 409 
Q 2525 409 2770 889 
Q 3016 1369 3016 2328 
Q 3016 3291 2770 3770 
Q 2525 4250 2034 4250 
z
M 2034 4750 
Q 2819 4750 3233 4129 
Q 3647 3509 3647 2328 
Q 3647 1150 3233 529 
Q 2819 -91 2034 -91 
Q 1250 -91 836 529 
Q 422 1150 422 2328 
Q 422 3509 836 4129 
Q 1250 4750 2034 4750 
z
" transform="scale(0.015625)"/>
        <path id="DejaVuSans-2e" d="M 684 794 
L 1344 794 
L 1344 0 
L 684 0 
L 684 794 
z
" transform="scale(0.015625)"/>
       </defs>
       <use xlink:href="#DejaVuSans-30"/>
       <use xlink:href="#DejaVuSans-2e" transform="translate(63.623047 0)"/>
       <use xlink:href="#DejaVuSans-30" transform="translate(95.410156 0)"/>
       <use xlink:href="#DejaVuSans-30" transform="translate(159.033203 0)"/>
       <use xlink:href="#DejaVuSans-30" transform="translate(222.65625 0)"/>
      </g>
     </g>
    </g>
    <g id="xtick_2">
     <g id="line2d_2">
      <g>
       <use xlink:href="#m6460544cdf" x="119.376325" y="307.584" style="stroke: #000000; stroke-width: 0.8"/>
      </g>
     </g>
     <g id="text_2">
      <!-- 0.025 -->
      <g transform="translate(105.062263 322.182437) scale(0.1 -0.1)">
       <defs>
        <path id="DejaVuSans-32" d="M 1228 531 
L 3431 531 
L 3431 0 
L 469 0 
L 469 531 
Q 828 903 1448 1529 
Q 2069 2156 2228 2338 
Q 2531 2678 2651 2914 
Q 2772 3150 2772 3378 
Q 2772 3750 2511 3984 
Q 2250 4219 1831 4219 
Q 1534 4219 1204 4116 
Q 875 4013 500 3803 
L 500 4441 
Q 881 4594 1212 4672 
Q 1544 4750 1819 4750 
Q 2544 4750 2975 4387 
Q 3406 4025 3406 3419 
Q 3406 3131 3298 2873 
Q 3191 2616 2906 2266 
Q 2828 2175 2409 1742 
Q 1991 1309 1228 531 
z
" transform="scale(0.015625)"/>
        <path id="DejaVuSans-35" d="M 691 4666 
L 3169 4666 
L 3169 4134 
L 1269 4134 
L 1269 2991 
Q 1406 3038 1543 3061 
Q 1681 3084 1819 3084 
Q 2600 3084 3056 2656 
Q 3513 2228 3513 1497 
Q 3513 744 3044 326 
Q 2575 -91 1722 -91 
Q 1428 -91 1123 -41 
Q 819 9 494 109 
L 494 744 
Q 775 591 1075 516 
Q 1375 441 1709 441 
Q 2250 441 2565 725 
Q 2881 1009 2881 1497 
Q 2881 1984 2565 2268 
Q 2250 2553 1709 2553 
Q 1456 2553 1204 2497 
Q 953 2441 691 2322 
L 691 4666 
z
" transform="scale(0.015625)"/>
       </defs>
       <use xlink:href="#DejaVuSans-30"/>
       <use xlink:href="#DejaVuSans-2e" transform="translate(63.623047 0)"/>
       <use xlink:href="#DejaVuSans-30" transform="translate(95.410156 0)"/>
       <use xlink:href="#DejaVuSans-32" transform="translate(159.033203 0)"/>
       <use xlink:href="#DejaVuSans-35" transform="translate(222.65625 0)"/>
      </g>
     </g>
    </g>
    <g id="xtick_3">
     <g id="line2d_3">
      <g>
       <use xlink:href="#m6460544cdf" x="164.778639" y="307.584" style="stroke: #000000; stroke-width: 0.8"/>
      </g>
     </g>
     <g id="text_3">
      <!-- 0.050 -->
      <g transform="translate(150.464576 322.182437) scale(0.1 -0.1)">
       <use xlink:href="#DejaVuSans-30"/>
       <use xlink:href="#DejaVuSans-2e" transform="translate(63.623047 0)"/>
       <use xlink:href="#DejaVuSans-30" transform="translate(95.410156 0)"/>
       <use xlink:href="#DejaVuSans-35" transform="translate(159.033203 0)"/>
       <use xlink:href="#DejaVuSans-30" transform="translate(222.65625 0)"/>
      </g>
     </g>
    </g>
    <g id="xtick_4">
     <g id="line2d_4">
      <g>
       <use xlink:href="#m6460544cdf" x="210.180953" y="307.584" style="stroke: #000000; stroke-width: 0.8"/>
      </g>
     </g>
     <g id="text_4">
      <!-- 0.075 -->
      <g transform="translate(195.86689 322.182437) scale(0.1 -0.1)">
       <defs>
        <path id="DejaVuSans-37" d="M 525 4666 
L 3525 4666 
L 3525 4397 
L 1831 0 
L 1172 0 
L 2766 4134 
L 525 4134 
L 525 4666 
z
" transform="scale(0.015625)"/>
       </defs>
       <use xlink:href="#DejaVuSans-30"/>
       <use xlink:href="#DejaVuSans-2e" transform="translate(63.623047 0)"/>
       <use xlink:href="#DejaVuSans-30" transform="translate(95.410156 0)"/>
       <use xlink:href="#DejaVuSans-37" transform="translate(159.033203 0)"/>
       <use xlink:href="#DejaVuSans-35" transform="translate(222.65625 0)"/>
      </g>
     </g>
    </g>
    <g id="xtick_5">
     <g id="line2d_5">
      <g>
       <use xlink:href="#m6460544cdf" x="255.583266" y="307.584" style="stroke: #000000; stroke-width: 0.8"/>
      </g>
     </g>
     <g id="text_5">
      <!-- 0.100 -->
      <g transform="translate(241.269204 322.182437) scale(0.1 -0.1)">
       <defs>
        <path id="DejaVuSans-31" d="M 794 531 
L 1825 531 
L 1825 4091 
L 703 3866 
L 703 4441 
L 1819 4666 
L 2450 4666 
L 2450 531 
L 3481 531 
L 3481 0 
L 794 0 
L 794 531 
z
" transform="scale(0.015625)"/>
       </defs>
       <use xlink:href="#DejaVuSans-30"/>
       <use xlink:href="#DejaVuSans-2e" transform="translate(63.623047 0)"/>
       <use xlink:href="#DejaVuSans-31" transform="translate(95.410156 0)"/>
       <use xlink:href="#DejaVuSans-30" transform="translate(159.033203 0)"/>
       <use xlink:href="#DejaVuSans-30" transform="translate(222.65625 0)"/>
      </g>
     </g>
    </g>
    <g id="xtick_6">
     <g id="line2d_6">
      <g>
       <use xlink:href="#m6460544cdf" x="300.98558" y="307.584" style="stroke: #000000; stroke-width: 0.8"/>
      </g>
     </g>
     <g id="text_6">
      <!-- 0.125 -->
      <g transform="translate(286.671517 322.182437) scale(0.1 -0.1)">
       <use xlink:href="#DejaVuSans-30"/>
       <use xlink:href="#DejaVuSans-2e" transform="translate(63.623047 0)"/>
       <use xlink:href="#DejaVuSans-31" transform="translate(95.410156 0)"/>
       <use xlink:href="#DejaVuSans-32" transform="translate(159.033203 0)"/>
       <use xlink:href="#DejaVuSans-35" transform="translate(222.65625 0)"/>
      </g>
     </g>
    </g>
    <g id="xtick_7">
     <g id="line2d_7">
      <g>
       <use xlink:href="#m6460544cdf" x="346.387893" y="307.584" style="stroke: #000000; stroke-width: 0.8"/>
      </g>
     </g>
     <g id="text_7">
      <!-- 0.150 -->
      <g transform="translate(332.073831 322.182437) scale(0.1 -0.1)">
       <use xlink:href="#DejaVuSans-30"/>
       <use xlink:href="#DejaVuSans-2e" transform="translate(63.623047 0)"/>
       <use xlink:href="#DejaVuSans-31" transform="translate(95.410156 0)"/>
       <use xlink:href="#DejaVuSans-35" transform="translate(159.033203 0)"/>
       <use xlink:href="#DejaVuSans-30" transform="translate(222.65625 0)"/>
      </g>
     </g>
    </g>
    <g id="xtick_8">
     <g id="line2d_8">
      <g>
       <use xlink:href="#m6460544cdf" x="391.790207" y="307.584" style="stroke: #000000; stroke-width: 0.8"/>
      </g>
     </g>
     <g id="text_8">
      <!-- 0.175 -->
      <g transform="translate(377.476145 322.182437) scale(0.1 -0.1)">
       <use xlink:href="#DejaVuSans-30"/>
       <use xlink:href="#DejaVuSans-2e" transform="translate(63.623047 0)"/>
       <use xlink:href="#DejaVuSans-31" transform="translate(95.410156 0)"/>
       <use xlink:href="#DejaVuSans-37" transform="translate(159.033203 0)"/>
       <use xlink:href="#DejaVuSans-35" transform="translate(222.65625 0)"/>
      </g>
     </g>
    </g>
    <g id="text_9">
     <!-- Strain -->
     <g transform="translate(221.348281 335.860562) scale(0.1 -0.1)">
      <defs>
       <path id="DejaVuSans-53" d="M 3425 4513 
L 3425 3897 
Q 3066 4069 2747 4153 
Q 2428 4238 2131 4238 
Q 1616 4238 1336 4038 
Q 1056 3838 1056 3469 
Q 1056 3159 1242 3001 
Q 1428 2844 1947 2747 
L 2328 2669 
Q 3034 2534 3370 2195 
Q 3706 1856 3706 1288 
Q 3706 609 3251 259 
Q 2797 -91 1919 -91 
Q 1588 -91 1214 -16 
Q 841 59 441 206 
L 441 856 
Q 825 641 1194 531 
Q 1563 422 1919 422 
Q 2459 422 2753 634 
Q 3047 847 3047 1241 
Q 3047 1584 2836 1778 
Q 2625 1972 2144 2069 
L 1759 2144 
Q 1053 2284 737 2584 
Q 422 2884 422 3419 
Q 422 4038 858 4394 
Q 1294 4750 2059 4750 
Q 2388 4750 2728 4690 
Q 3069 4631 3425 4513 
z
" transform="scale(0.015625)"/>
       <path id="DejaVuSans-74" d="M 1172 4494 
L 1172 3500 
L 2356 3500 
L 2356 3053 
L 1172 3053 
L 1172 1153 
Q 1172 725 1289 603 
Q 1406 481 1766 481 
L 2356 481 
L 2356 0 
L 1766 0 
Q 1100 0 847 248 
Q 594 497 594 1153 
L 594 3053 
L 172 3053 
L 172 3500 
L 594 3500 
L 594 4494 
L 1172 4494 
z
" transform="scale(0.015625)"/>
       <path id="DejaVuSans-72" d="M 2631 2963 
Q 2534 3019 2420 3045 
Q 2306 3072 2169 3072 
Q 1681 3072 1420 2755 
Q 1159 2438 1159 1844 
L 1159 0 
L 581 0 
L 581 3500 
L 1159 3500 
L 1159 2956 
Q 1341 3275 1631 3429 
Q 1922 3584 2338 3584 
Q 2397 3584 2469 3576 
Q 2541 3569 2628 3553 
L 2631 2963 
z
" transform="scale(0.015625)"/>
       <path id="DejaVuSans-61" d="M 2194 1759 
Q 1497 1759 1228 1600 
Q 959 1441 959 1056 
Q 959 750 1161 570 
Q 1363 391 1709 391 
Q 2188 391 2477 730 
Q 2766 1069 2766 1631 
L 2766 1759 
L 2194 1759 
z
M 3341 1997 
L 3341 0 
L 2766 0 
L 2766 531 
Q 2569 213 2275 61 
Q 1981 -91 1556 -91 
Q 1019 -91 701 211 
Q 384 513 384 1019 
Q 384 1609 779 1909 
Q 1175 2209 1959 2209 
L 2766 2209 
L 2766 2266 
Q 2766 2663 2505 2880 
Q 2244 3097 1772 3097 
Q 1472 3097 1187 3025 
Q 903 2953 641 2809 
L 641 3341 
Q 956 3463 1253 3523 
Q 1550 3584 1831 3584 
Q 2591 3584 2966 3190 
Q 3341 2797 3341 1997 
z
" transform="scale(0.015625)"/>
       <path id="DejaVuSans-69" d="M 603 3500 
L 1178 3500 
L 1178 0 
L 603 0 
L 603 3500 
z
M 603 4863 
L 1178 4863 
L 1178 4134 
L 603 4134 
L 603 4863 
z
" transform="scale(0.015625)"/>
       <path id="DejaVuSans-6e" d="M 3513 2113 
L 3513 0 
L 2938 0 
L 2938 2094 
Q 2938 2591 2744 2837 
Q 2550 3084 2163 3084 
Q 1697 3084 1428 2787 
Q 1159 2491 1159 1978 
L 1159 0 
L 581 0 
L 581 3500 
L 1159 3500 
L 1159 2956 
Q 1366 3272 1645 3428 
Q 1925 3584 2291 3584 
Q 2894 3584 3203 3211 
Q 3513 2838 3513 2113 
z
" transform="scale(0.015625)"/>
      </defs>
      <use xlink:href="#DejaVuSans-53"/>
      <use xlink:href="#DejaVuSans-74" transform="translate(63.476562 0)"/>
      <use xlink:href="#DejaVuSans-72" transform="translate(102.685547 0)"/>
      <use xlink:href="#DejaVuSans-61" transform="translate(143.798828 0)"/>
      <use xlink:href="#DejaVuSans-69" transform="translate(205.078125 0)"/>
      <use xlink:href="#DejaVuSans-6e" transform="translate(232.861328 0)"/>
     </g>
    </g>
   </g>
   <g id="matplotlib.axis_2">
    <g id="ytick_1">
     <g id="line2d_9">
      <defs>
       <path id="m3ed424ba4d" d="M 0 0 
L -3.5 0 
" style="stroke: #000000; stroke-width: 0.8"/>
      </defs>
      <g>
       <use xlink:href="#m3ed424ba4d" x="57.6" y="307.018643" style="stroke: #000000; stroke-width: 0.8"/>
      </g>
     </g>
     <g id="text_10">
      <!-- −250 -->
      <g transform="translate(23.132812 310.817861) scale(0.1 -0.1)">
       <defs>
        <path id="DejaVuSans-2212" d="M 678 2272 
L 4684 2272 
L 4684 1741 
L 678 1741 
L 678 2272 
z
" transform="scale(0.015625)"/>
       </defs>
       <use xlink:href="#DejaVuSans-2212"/>
       <use xlink:href="#DejaVuSans-32" transform="translate(83.789062 0)"/>
       <use xlink:href="#DejaVuSans-35" transform="translate(147.412109 0)"/>
       <use xlink:href="#DejaVuSans-30" transform="translate(211.035156 0)"/>
      </g>
     </g>
    </g>
    <g id="ytick_2">
     <g id="line2d_10">
      <g>
       <use xlink:href="#m3ed424ba4d" x="57.6" y="271.940858" style="stroke: #000000; stroke-width: 0.8"/>
      </g>
     </g>
     <g id="text_11">
      <!-- 0 -->
      <g transform="translate(44.2375 275.740077) scale(0.1 -0.1)">
       <use xlink:href="#DejaVuSans-30"/>
      </g>
     </g>
    </g>
    <g id="ytick_3">
     <g id="line2d_11">
      <g>
       <use xlink:href="#m3ed424ba4d" x="57.6" y="236.863073" style="stroke: #000000; stroke-width: 0.8"/>
      </g>
     </g>
     <g id="text_12">
      <!-- 250 -->
      <g transform="translate(31.5125 240.662292) scale(0.1 -0.1)">
       <use xlink:href="#DejaVuSans-32"/>
       <use xlink:href="#DejaVuSans-35" transform="translate(63.623047 0)"/>
       <use xlink:href="#DejaVuSans-30" transform="translate(127.246094 0)"/>
      </g>
     </g>
    </g>
    <g id="ytick_4">
     <g id="line2d_12">
      <g>
       <use xlink:href="#m3ed424ba4d" x="57.6" y="201.785289" style="stroke: #000000; stroke-width: 0.8"/>
      </g>
     </g>
     <g id="text_13">
      <!-- 500 -->
      <g transform="translate(31.5125 205.584507) scale(0.1 -0.1)">
       <use xlink:href="#DejaVuSans-35"/>
       <use xlink:href="#DejaVuSans-30" transform="translate(63.623047 0)"/>
       <use xlink:href="#DejaVuSans-30" transform="translate(127.246094 0)"/>
      </g>
     </g>
    </g>
    <g id="ytick_5">
     <g id="line2d_13">
      <g>
       <use xlink:href="#m3ed424ba4d" x="57.6" y="166.707504" style="stroke: #000000; stroke-width: 0.8"/>
      </g>
     </g>
     <g id="text_14">
      <!-- 750 -->
      <g transform="translate(31.5125 170.506723) scale(0.1 -0.1)">
       <use xlink:href="#DejaVuSans-37"/>
       <use xlink:href="#DejaVuSans-35" transform="translate(63.623047 0)"/>
       <use xlink:href="#DejaVuSans-30" transform="translate(127.246094 0)"/>
      </g>
     </g>
    </g>
    <g id="ytick_6">
     <g id="line2d_14">
      <g>
       <use xlink:href="#m3ed424ba4d" x="57.6" y="131.629719" style="stroke: #000000; stroke-width: 0.8"/>
      </g>
     </g>
     <g id="text_15">
      <!-- 1000 -->
      <g transform="translate(25.15 135.428938) scale(0.1 -0.1)">
       <use xlink:href="#DejaVuSans-31"/>
       <use xlink:href="#DejaVuSans-30" transform="translate(63.623047 0)"/>
       <use xlink:href="#DejaVuSans-30" transform="translate(127.246094 0)"/>
       <use xlink:href="#DejaVuSans-30" transform="translate(190.869141 0)"/>
      </g>
     </g>
    </g>
    <g id="ytick_7">
     <g id="line2d_15">
      <g>
       <use xlink:href="#m3ed424ba4d" x="57.6" y="96.551935" style="stroke: #000000; stroke-width: 0.8"/>
      </g>
     </g>
     <g id="text_16">
      <!-- 1250 -->
      <g transform="translate(25.15 100.351154) scale(0.1 -0.1)">
       <use xlink:href="#DejaVuSans-31"/>
       <use xlink:href="#DejaVuSans-32" transform="translate(63.623047 0)"/>
       <use xlink:href="#DejaVuSans-35" transform="translate(127.246094 0)"/>
       <use xlink:href="#DejaVuSans-30" transform="translate(190.869141 0)"/>
      </g>
     </g>
    </g>
    <g id="ytick_8">
     <g id="line2d_16">
      <g>
       <use xlink:href="#m3ed424ba4d" x="57.6" y="61.47415" style="stroke: #000000; stroke-width: 0.8"/>
      </g>
     </g>
     <g id="text_17">
      <!-- 1500 -->
      <g transform="translate(25.15 65.273369) scale(0.1 -0.1)">
       <use xlink:href="#DejaVuSans-31"/>
       <use xlink:href="#DejaVuSans-35" transform="translate(63.623047 0)"/>
       <use xlink:href="#DejaVuSans-30" transform="translate(127.246094 0)"/>
       <use xlink:href="#DejaVuSans-30" transform="translate(190.869141 0)"/>
      </g>
     </g>
    </g>
    <g id="text_18">
     <!-- Stress [Pa] -->
     <g transform="translate(17.053125 201.235813) rotate(-90) scale(0.1 -0.1)">
      <defs>
       <path id="DejaVuSans-65" d="M 3597 1894 
L 3597 1613 
L 953 1613 
Q 991 1019 1311 708 
Q 1631 397 2203 397 
Q 2534 397 2845 478 
Q 3156 559 3463 722 
L 3463 178 
Q 3153 47 2828 -22 
Q 2503 -91 2169 -91 
Q 1331 -91 842 396 
Q 353 884 353 1716 
Q 353 2575 817 3079 
Q 1281 3584 2069 3584 
Q 2775 3584 3186 3129 
Q 3597 2675 3597 1894 
z
M 3022 2063 
Q 3016 2534 2758 2815 
Q 2500 3097 2075 3097 
Q 1594 3097 1305 2825 
Q 1016 2553 972 2059 
L 3022 2063 
z
" transform="scale(0.015625)"/>
       <path id="DejaVuSans-73" d="M 2834 3397 
L 2834 2853 
Q 2591 2978 2328 3040 
Q 2066 3103 1784 3103 
Q 1356 3103 1142 2972 
Q 928 2841 928 2578 
Q 928 2378 1081 2264 
Q 1234 2150 1697 2047 
L 1894 2003 
Q 2506 1872 2764 1633 
Q 3022 1394 3022 966 
Q 3022 478 2636 193 
Q 2250 -91 1575 -91 
Q 1294 -91 989 -36 
Q 684 19 347 128 
L 347 722 
Q 666 556 975 473 
Q 1284 391 1588 391 
Q 1994 391 2212 530 
Q 2431 669 2431 922 
Q 2431 1156 2273 1281 
Q 2116 1406 1581 1522 
L 1381 1569 
Q 847 1681 609 1914 
Q 372 2147 372 2553 
Q 372 3047 722 3315 
Q 1072 3584 1716 3584 
Q 2034 3584 2315 3537 
Q 2597 3491 2834 3397 
z
" transform="scale(0.015625)"/>
       <path id="DejaVuSans-20" transform="scale(0.015625)"/>
       <path id="DejaVuSans-5b" d="M 550 4863 
L 1875 4863 
L 1875 4416 
L 1125 4416 
L 1125 -397 
L 1875 -397 
L 1875 -844 
L 550 -844 
L 550 4863 
z
" transform="scale(0.015625)"/>
       <path id="DejaVuSans-50" d="M 1259 4147 
L 1259 2394 
L 2053 2394 
Q 2494 2394 2734 2622 
Q 2975 2850 2975 3272 
Q 2975 3691 2734 3919 
Q 2494 4147 2053 4147 
L 1259 4147 
z
M 628 4666 
L 2053 4666 
Q 2838 4666 3239 4311 
Q 3641 3956 3641 3272 
Q 3641 2581 3239 2228 
Q 2838 1875 2053 1875 
L 1259 1875 
L 1259 0 
L 628 0 
L 628 4666 
z
" transform="scale(0.015625)"/>
       <path id="DejaVuSans-5d" d="M 1947 4863 
L 1947 -844 
L 622 -844 
L 622 -397 
L 1369 -397 
L 1369 4416 
L 622 4416 
L 622 4863 
L 1947 4863 
z
" transform="scale(0.015625)"/>
      </defs>
      <use xlink:href="#DejaVuSans-53"/>
      <use xlink:href="#DejaVuSans-74" transform="translate(63.476562 0)"/>
      <use xlink:href="#DejaVuSans-72" transform="translate(102.685547 0)"/>
      <use xlink:href="#DejaVuSans-65" transform="translate(141.548828 0)"/>
      <use xlink:href="#DejaVuSans-73" transform="translate(203.072266 0)"/>
      <use xlink:href="#DejaVuSans-73" transform="translate(255.171875 0)"/>
      <use xlink:href="#DejaVuSans-20" transform="translate(307.271484 0)"/>
      <use xlink:href="#DejaVuSans-5b" transform="translate(339.058594 0)"/>
      <use xlink:href="#DejaVuSans-50" transform="translate(378.072266 0)"/>
      <use xlink:href="#DejaVuSans-61" transform="translate(433.875 0)"/>
      <use xlink:href="#DejaVuSans-5d" transform="translate(495.154297 0)"/>
     </g>
    </g>
   </g>
   <g id="line2d_17">
    <path d="M 73.974012 272.243253 
L 73.972394 272.37299 
L 73.971855 272.110966 
L 74.340096 272.062635 
L 76.327676 269.813046 
L 77.016501 270.421185 
L 78.353575 271.005143 
L 79.041906 271.114307 
L 79.716381 271.45487 
L 80.405454 271.216863 
L 81.093537 271.309204 
L 81.780383 269.301989 
L 82.433804 268.597112 
L 83.779785 269.578535 
L 85.102508 269.699323 
L 85.75719 269.69362 
L 86.40618 270.223043 
L 87.077315 268.988961 
L 87.753893 266.606615 
L 88.409935 266.742085 
L 89.070059 267.149089 
L 89.737607 267.320294 
L 90.418514 267.356729 
L 91.067752 267.682862 
L 91.731093 266.027635 
L 92.393073 265.194772 
L 93.727672 265.316767 
L 94.398189 265.307653 
L 95.062272 265.5667 
L 96.403675 263.476259 
L 98.41943 263.388301 
L 99.09638 263.559607 
L 99.760761 262.807926 
L 100.433256 261.650805 
L 101.083484 261.136726 
L 103.08761 261.045799 
L 103.753673 260.786514 
L 104.427282 260.002381 
L 105.101757 259.444747 
L 107.089307 258.959878 
L 107.748442 258.846743 
L 108.421309 258.237643 
L 109.081557 257.469039 
L 110.414672 256.740514 
L 112.440695 256.101648 
L 113.744985 255.213842 
L 115.713111 254.060566 
L 117.728468 253.04749 
L 119.716388 251.620314 
L 121.716308 250.818656 
L 123.055856 249.956879 
L 123.717465 249.363381 
L 124.395404 249.014315 
L 126.390623 248.391701 
L 127.040355 248.003554 
L 128.374336 246.740837 
L 129.709678 246.082118 
L 131.04403 245.596934 
L 131.711949 245.255817 
L 132.37188 244.635199 
L 133.705242 243.787768 
L 135.690317 243.001417 
L 137.041246 242.189258 
L 137.703226 241.542814 
L 138.366567 241.084713 
L 141.026488 239.819186 
L 141.697994 239.497702 
L 143.030367 238.584163 
L 147.028846 236.280939 
L 147.707774 236.035768 
L 149.696491 234.591999 
L 150.351914 234.333555 
L 152.352947 233.091619 
L 153.695093 232.149758 
L 155.686601 231.324769 
L 158.334769 229.590937 
L 159.661698 228.8738 
L 162.333743 227.049678 
L 164.30892 225.986026 
L 166.322178 224.796225 
L 170.980658 222.042665 
L 171.651916 221.725063 
L 172.972907 220.630723 
L 174.283754 219.902421 
L 178.298687 217.33247 
L 180.976391 215.772496 
L 186.313305 212.456644 
L 189.65537 210.32446 
L 194.292077 207.409326 
L 196.280615 206.388341 
L 198.279144 204.843142 
L 201.57655 202.901482 
L 202.231478 202.416908 
L 202.883438 202.077788 
L 203.533665 201.503368 
L 205.518492 200.336708 
L 206.871896 199.490978 
L 208.844105 198.447069 
L 210.178951 197.545435 
L 212.175531 195.943376 
L 214.842302 194.260183 
L 216.168984 193.306564 
L 216.849892 192.860073 
L 218.178059 192.292345 
L 219.49138 191.389972 
L 221.512331 189.911034 
L 222.192744 189.568882 
L 224.14219 188.277547 
L 225.452294 187.413774 
L 226.10747 187.117912 
L 228.146731 185.652211 
L 229.447928 184.793688 
L 231.433173 183.593419 
L 234.694455 181.218763 
L 236.020889 180.436442 
L 237.376767 179.535842 
L 242.039948 176.24003 
L 244.018837 175.042238 
L 255.397417 167.11101 
L 256.70579 166.151105 
L 258.676267 164.857404 
L 265.996801 159.667655 
L 272.646912 154.956129 
L 274.626543 153.467135 
L 275.292853 153.125796 
L 282.599625 147.781738 
L 283.933235 146.812664 
L 285.254721 145.7516 
L 287.243136 144.183039 
L 288.580704 143.260551 
L 291.261656 141.1436 
L 294.600474 138.738293 
L 296.559817 137.274884 
L 297.86621 136.290947 
L 299.873058 134.793005 
L 300.526007 134.452109 
L 302.560071 132.898264 
L 305.918591 130.081035 
L 308.581852 128.245082 
L 309.931791 127.034128 
L 311.257391 125.959809 
L 313.910013 124.136944 
L 315.262674 122.87822 
L 316.592573 121.914397 
L 317.919502 121.050032 
L 318.59373 120.555771 
L 319.925731 119.254601 
L 323.221405 116.901242 
L 324.552293 115.576714 
L 327.209492 113.769434 
L 328.543473 112.541916 
L 329.210649 111.834244 
L 331.875642 109.914657 
L 335.190476 107.261147 
L 337.149571 105.689997 
L 339.767306 103.491557 
L 340.42842 103.122044 
L 348.371657 96.433937 
L 349.701803 95.408663 
L 351.703454 93.673647 
L 354.316241 91.69017 
L 356.961687 89.348716 
L 361.601363 85.493643 
L 362.95155 84.369502 
L 364.25349 83.446202 
L 365.560131 82.197091 
L 366.862318 81.053428 
L 368.164505 80.02039 
L 370.823065 77.517584 
L 372.156427 76.581786 
L 373.501913 75.439603 
L 374.849131 74.046739 
L 377.526928 71.837687 
L 378.882311 70.406667 
L 381.544335 68.184415 
L 382.872996 66.988398 
L 385.578814 64.269667 
L 388.20991 62.03026 
L 389.530406 60.970083 
L 390.18484 60.538455 
L 391.525873 59.321142 
L 393.520349 57.214524 
L 398.487273 53.568 
L 398.272881 57.399928 
L 398.278757 80.450798 
L 398.274984 80.271976 
L 397.62587 80.541235 
L 396.289971 83.692186 
L 394.31034 83.54065 
L 392.948524 84.137845 
L 392.271575 84.130247 
L 391.576069 84.671908 
L 390.896398 84.356543 
L 390.236026 85.934274 
L 389.549427 87.18723 
L 388.183405 88.63156 
L 387.509672 90.174684 
L 386.822084 91.359202 
L 386.149835 91.021265 
L 385.462742 90.859913 
L 384.80336 91.244289 
L 383.486822 92.285683 
L 382.808636 91.889327 
L 382.144367 93.46508 
L 381.474716 95.618265 
L 380.821767 96.415117 
L 378.199084 97.598156 
L 377.550093 98.00272 
L 376.895783 98.754464 
L 376.243824 99.678652 
L 373.564851 102.23714 
L 372.886665 103.24755 
L 372.226541 103.782334 
L 371.53821 103.849164 
L 369.529383 105.237886 
L 368.208391 107.292426 
L 366.205008 108.700079 
L 365.554904 108.877367 
L 364.222778 110.967106 
L 362.913911 111.699402 
L 361.605043 112.409144 
L 360.955682 113.14462 
L 360.282073 114.082562 
L 359.61267 114.794818 
L 357.623389 116.171562 
L 356.296089 117.675059 
L 355.634232 118.380956 
L 353.646683 119.692552 
L 352.305032 120.964512 
L 350.982309 122.097526 
L 348.996925 123.677013 
L 347.666532 124.918433 
L 346.341335 125.721423 
L 345.008467 126.952934 
L 343.682651 128.441337 
L 337.675469 133.233021 
L 336.358684 134.411143 
L 335.696827 134.794853 
L 333.702753 136.415695 
L 332.365818 137.685511 
L 327.719709 141.134541 
L 325.111376 143.402492 
L 323.103786 144.824861 
L 321.086547 146.628869 
L 319.769762 147.356174 
L 318.441843 148.384035 
L 317.095738 149.665766 
L 315.788602 150.618793 
L 314.442745 151.729032 
L 312.438001 153.255443 
L 311.103401 154.229841 
L 308.430738 156.518497 
L 307.112963 157.338716 
L 305.116755 158.936856 
L 304.451063 159.539819 
L 301.832107 161.29188 
L 301.157632 161.828586 
L 299.83664 163.074887 
L 297.826823 164.190154 
L 297.157049 164.671696 
L 295.84212 165.992831 
L 295.19313 166.493156 
L 293.199148 167.365526 
L 290.530444 169.722065 
L 286.556583 172.419204 
L 285.244669 173.490278 
L 280.606478 177.055775 
L 279.26124 177.709835 
L 278.598888 178.008359 
L 275.928205 180.133074 
L 274.603997 180.851542 
L 273.267789 182.04889 
L 271.940241 183.223315 
L 269.957393 184.18015 
L 266.635214 186.603871 
L 265.333275 187.469049 
L 264.006593 188.516876 
L 261.371538 190.221204 
L 260.048815 191.188134 
L 258.054586 192.426152 
L 255.37017 194.419021 
L 253.35491 195.646539 
L 252.042393 196.878074 
L 249.369482 198.186675 
L 246.041149 200.528129 
L 244.032693 201.941919 
L 243.382465 202.394474 
L 242.039206 203.021803 
L 241.375865 203.436053 
L 239.387945 205.202127 
L 238.038747 205.64773 
L 237.37887 205.985668 
L 236.715359 206.48602 
L 235.387935 207.799686 
L 234.739192 208.213641 
L 233.400139 208.721287 
L 232.7462 209.02617 
L 230.741579 210.800451 
L 228.744628 211.599503 
L 226.068378 213.617365 
L 224.072416 214.617903 
L 222.095383 216.281634 
L 220.102066 217.131871 
L 219.447633 217.548784 
L 218.091507 218.741695 
L 216.093072 219.779946 
L 214.771586 220.315839 
L 212.806676 221.992363 
L 212.136284 222.467915 
L 209.500363 223.653912 
L 208.841847 224.277728 
L 207.514794 224.973421 
L 206.860607 225.156587 
L 205.517472 225.949224 
L 204.859698 226.652754 
L 204.186336 227.162156 
L 201.525549 228.505706 
L 200.19763 229.424607 
L 198.85833 229.919127 
L 197.541668 230.851486 
L 196.223399 231.789059 
L 194.239809 232.642554 
L 192.231105 234.050209 
L 190.875228 234.83057 
L 188.859473 236.109112 
L 186.85131 237.135166 
L 186.17931 237.779392 
L 185.498154 238.247771 
L 183.524709 239.23474 
L 182.853697 239.59183 
L 181.509325 240.770321 
L 179.512621 241.626404 
L 178.833445 241.97536 
L 177.486969 242.912119 
L 174.822966 244.140007 
L 173.503583 245.313618 
L 172.185066 245.940687 
L 170.866186 246.442168 
L 169.532329 247.345503 
L 168.863049 247.907055 
L 166.891336 248.654769 
L 165.548571 249.414943 
L 164.21991 250.347192 
L 162.224444 251.192478 
L 158.914172 253.084816 
L 157.5625 254.077479 
L 154.254107 255.693778 
L 153.587054 256.245126 
L 151.604454 257.082704 
L 148.927338 258.709091 
L 147.619955 259.244393 
L 146.948943 259.543027 
L 145.61855 260.415748 
L 142.994877 261.723832 
L 141.038751 262.969615 
L 139.049493 263.99514 
L 133.136208 267.095511 
L 131.166474 268.247086 
L 129.851668 268.966405 
L 128.516574 269.631483 
L 125.831911 270.945796 
L 125.165601 271.138983 
L 119.155066 274.331996 
L 118.499148 274.506123 
L 117.845457 274.854856 
L 117.196466 274.999041 
L 114.536422 276.473764 
L 112.54912 277.696106 
L 111.221201 278.288864 
L 109.903674 278.734653 
L 109.22524 279.108306 
L 108.544827 279.611811 
L 105.248384 280.954727 
L 103.911434 281.871372 
L 101.918936 282.730487 
L 100.591017 283.666433 
L 99.24949 284.067596 
L 97.918973 284.452896 
L 95.951342 285.725596 
L 93.949442 286.279347 
L 93.297854 286.754604 
L 92.635255 287.711329 
L 91.962636 287.989739 
L 91.292367 288.062419 
L 89.958003 288.52913 
L 89.288724 288.685316 
L 88.612765 289.479506 
L 87.936434 289.695861 
L 86.586989 289.966504 
L 85.920927 290.155919 
L 85.246575 290.514266 
L 84.583976 291.271038 
L 82.583067 291.798739 
L 81.926159 292.17365 
L 81.270488 292.748069 
L 79.953208 293.225248 
L 78.63766 293.534896 
L 77.96034 293.912026 
L 77.287349 294.801237 
L 75.957822 294.708281 
L 74.61766 294.301259 
L 74.009309 295.488 
L 73.833072 294.38639 
L 73.833072 294.38639 
" clip-path="url(#p9b8ec73d66)" style="fill: none; stroke: #ff0000; stroke-width: 1.5; stroke-linecap: square"/>
   </g>
   <g id="line2d_18">
    <path d="M 73.974012 272.243253 
L 73.972394 272.37299 
L 73.971855 272.110966 
L 74.340096 272.062635 
L 76.327676 269.813046 
L 77.016501 273.180753 
L 78.353575 272.333858 
L 79.716381 271.794471 
L 80.405454 271.21934 
L 81.093537 271.309204 
L 81.780383 269.301989 
L 82.433804 268.597112 
L 83.779785 269.578535 
L 85.102508 269.699323 
L 85.75719 269.69362 
L 86.40618 270.223043 
L 87.077315 268.988961 
L 87.753893 266.606615 
L 88.409935 266.742085 
L 89.070059 267.149089 
L 89.737607 267.320294 
L 90.418514 267.356729 
L 91.067752 267.682862 
L 91.731093 266.027635 
L 92.393073 265.194772 
L 93.727672 265.316767 
L 94.398189 265.307653 
L 95.062272 265.5667 
L 96.403675 263.476259 
L 98.41943 263.388301 
L 99.09638 263.559607 
L 99.760761 262.807926 
L 100.433256 261.650805 
L 101.083484 261.136726 
L 103.08761 261.045799 
L 103.753673 260.786514 
L 104.427282 260.002381 
L 105.101757 259.444747 
L 107.089307 258.959878 
L 107.748442 258.846743 
L 108.421309 258.237643 
L 109.081557 257.469039 
L 110.414672 256.740514 
L 112.440695 256.101648 
L 113.744985 255.213842 
L 115.713111 254.060566 
L 117.728468 253.04749 
L 119.716388 251.620314 
L 121.716308 250.818656 
L 123.055856 249.956879 
L 123.717465 249.363381 
L 124.395404 249.014315 
L 126.390623 248.391701 
L 127.040355 248.003554 
L 128.374336 246.740837 
L 129.709678 246.082118 
L 131.04403 245.596934 
L 131.711949 245.255817 
L 132.37188 244.635199 
L 133.705242 243.787768 
L 135.690317 243.001417 
L 137.041246 242.189258 
L 137.703226 241.542814 
L 138.366567 241.084713 
L 141.026488 239.819186 
L 141.697994 239.497702 
L 143.030367 238.584163 
L 147.028846 236.280939 
L 147.707774 236.035768 
L 149.696491 234.591999 
L 150.351914 234.333555 
L 152.352947 233.091619 
L 153.695093 232.149758 
L 155.686601 231.324769 
L 158.334769 229.590937 
L 159.661698 228.8738 
L 162.333743 227.049678 
L 164.30892 225.986026 
L 166.322178 224.796225 
L 170.980658 222.042665 
L 171.651916 221.725063 
L 172.972907 220.630723 
L 174.283754 219.902421 
L 178.298687 217.33247 
L 180.976391 215.772496 
L 186.313305 212.456644 
L 189.65537 210.32446 
L 194.292077 207.409326 
L 196.280615 206.388341 
L 198.279144 204.843142 
L 201.57655 202.901482 
L 202.231478 202.416908 
L 202.883438 202.077788 
L 203.533665 201.503368 
L 205.518492 200.336708 
L 206.871896 199.490978 
L 208.844105 198.447069 
L 210.178951 197.545435 
L 212.175531 195.943376 
L 214.842302 194.260183 
L 216.168984 193.306564 
L 216.849892 192.860073 
L 218.178059 192.292345 
L 219.49138 191.389972 
L 221.512331 189.911034 
L 222.192744 189.568882 
L 224.14219 188.277547 
L 225.452294 187.413774 
L 226.10747 187.117912 
L 228.146731 185.652211 
L 229.447928 184.793688 
L 231.433173 183.593419 
L 234.694455 181.218763 
L 236.020889 180.436442 
L 237.376767 179.535842 
L 242.039948 176.24003 
L 244.018837 175.042238 
L 255.397417 167.11101 
L 256.70579 166.151105 
L 258.676267 164.857404 
L 265.996801 159.667655 
L 272.646912 154.956129 
L 274.626543 153.467135 
L 275.292853 153.125796 
L 282.599625 147.781738 
L 283.933235 146.812664 
L 285.254721 145.7516 
L 287.243136 144.183039 
L 288.580704 143.260551 
L 291.261656 141.1436 
L 294.600474 138.738293 
L 296.559817 137.274884 
L 297.86621 136.290947 
L 299.873058 134.793005 
L 300.526007 134.452109 
L 302.560071 132.898264 
L 305.918591 130.081035 
L 308.581852 128.245082 
L 309.931791 127.034128 
L 311.257391 125.959809 
L 313.910013 124.136944 
L 315.262674 122.87822 
L 316.592573 121.914397 
L 317.919502 121.050032 
L 318.59373 120.555771 
L 319.925731 119.254601 
L 323.221405 116.901242 
L 324.552293 115.576714 
L 327.209492 113.769434 
L 328.543473 112.541916 
L 329.210649 111.834244 
L 331.875642 109.914657 
L 335.190476 107.261147 
L 337.149571 105.689997 
L 339.767306 103.491557 
L 340.42842 103.122044 
L 348.371657 96.433937 
L 349.701803 95.408663 
L 351.703454 93.673647 
L 354.316241 91.69017 
L 356.961687 89.348716 
L 361.601363 85.493643 
L 362.95155 84.369502 
L 364.25349 83.446202 
L 365.560131 82.197091 
L 366.862318 81.053428 
L 368.164505 80.02039 
L 370.823065 77.517584 
L 372.156427 76.581786 
L 373.501913 75.439603 
L 374.849131 74.046739 
L 377.526928 71.837687 
L 378.882311 70.406667 
L 381.544335 68.184415 
L 382.872996 66.988398 
L 385.578814 64.269667 
L 388.20991 62.03026 
L 389.530406 60.970083 
L 390.18484 60.538455 
L 391.525873 59.321142 
L 393.520349 57.214524 
L 398.487273 53.568 
L 398.354901 54.18058 
L 398.327128 53.751014 
L 398.275726 69.371891 
L 398.273561 69.249065 
L 398.277613 71.856248 
L 398.278757 80.450798 
L 398.274984 80.271976 
L 397.62587 80.541235 
L 396.289971 83.692186 
L 394.31034 83.54065 
L 392.948524 84.137845 
L 392.271575 84.130247 
L 391.576069 84.671908 
L 390.896398 84.356543 
L 390.236026 85.934274 
L 389.549427 87.18723 
L 388.183405 88.63156 
L 387.509672 90.174684 
L 386.822084 91.359202 
L 386.149835 91.021265 
L 385.462742 90.859913 
L 384.80336 91.244289 
L 383.486822 92.285683 
L 382.808636 91.889327 
L 382.144367 93.46508 
L 381.474716 95.618265 
L 380.821767 96.415117 
L 378.199084 97.598156 
L 377.550093 98.00272 
L 376.895783 98.754464 
L 376.243824 99.678652 
L 373.564851 102.23714 
L 372.886665 103.24755 
L 372.226541 103.782334 
L 371.53821 103.849164 
L 369.529383 105.237886 
L 368.208391 107.292426 
L 366.205008 108.700079 
L 365.554904 108.877367 
L 364.222778 110.967106 
L 362.913911 111.699402 
L 361.605043 112.409144 
L 360.955682 113.14462 
L 360.282073 114.082562 
L 359.61267 114.794818 
L 357.623389 116.171562 
L 356.296089 117.675059 
L 355.634232 118.380956 
L 353.646683 119.692552 
L 352.305032 120.964512 
L 350.982309 122.097526 
L 348.996925 123.677013 
L 347.666532 124.918433 
L 346.341335 125.721423 
L 345.008467 126.952934 
L 343.682651 128.441337 
L 337.675469 133.233021 
L 336.358684 134.411143 
L 335.696827 134.794853 
L 333.702753 136.415695 
L 332.365818 137.685511 
L 327.719709 141.134541 
L 325.111376 143.402492 
L 323.103786 144.824861 
L 321.086547 146.628869 
L 319.769762 147.356174 
L 318.441843 148.384035 
L 317.095738 149.665766 
L 315.788602 150.618793 
L 314.442745 151.729032 
L 312.438001 153.255443 
L 311.103401 154.229841 
L 308.430738 156.518497 
L 307.112963 157.338716 
L 305.116755 158.936856 
L 304.451063 159.539819 
L 301.832107 161.29188 
L 301.157632 161.828586 
L 299.83664 163.074887 
L 297.826823 164.190154 
L 297.157049 164.671696 
L 295.84212 165.992831 
L 295.19313 166.493156 
L 293.199148 167.365526 
L 290.530444 169.722065 
L 286.556583 172.419204 
L 285.244669 173.490278 
L 280.606478 177.055775 
L 279.26124 177.709835 
L 278.598888 178.008359 
L 275.928205 180.133074 
L 274.603997 180.851542 
L 273.267789 182.04889 
L 271.940241 183.223315 
L 269.957393 184.18015 
L 266.635214 186.603871 
L 265.333275 187.469049 
L 264.006593 188.516876 
L 261.371538 190.221204 
L 260.048815 191.188134 
L 258.054586 192.426152 
L 255.37017 194.419021 
L 253.35491 195.646539 
L 252.042393 196.878074 
L 249.369482 198.186675 
L 246.041149 200.528129 
L 244.032693 201.941919 
L 243.382465 202.394474 
L 242.039206 203.021803 
L 241.375865 203.436053 
L 239.387945 205.202127 
L 238.038747 205.64773 
L 237.37887 205.985668 
L 236.715359 206.48602 
L 235.387935 207.799686 
L 234.739192 208.213641 
L 233.400139 208.721287 
L 232.7462 209.02617 
L 230.741579 210.800451 
L 228.744628 211.599503 
L 226.068378 213.617365 
L 224.072416 214.617903 
L 222.095383 216.281634 
L 220.102066 217.131871 
L 219.447633 217.548784 
L 218.091507 218.741695 
L 216.093072 219.779946 
L 214.771586 220.315839 
L 212.806676 221.992363 
L 212.136284 222.467915 
L 209.500363 223.653912 
L 208.841847 224.277728 
L 207.514794 224.973421 
L 206.860607 225.156587 
L 205.517472 225.949224 
L 204.859698 226.652754 
L 204.186336 227.162156 
L 201.525549 228.505706 
L 200.19763 229.424607 
L 198.85833 229.919127 
L 197.541668 230.851486 
L 196.223399 231.789059 
L 194.239809 232.642554 
L 192.231105 234.050209 
L 190.875228 234.83057 
L 188.859473 236.109112 
L 186.85131 237.135166 
L 186.17931 237.779392 
L 185.498154 238.247771 
L 183.524709 239.23474 
L 182.853697 239.59183 
L 181.509325 240.770321 
L 179.512621 241.626404 
L 178.833445 241.97536 
L 177.486969 242.912119 
L 174.822966 244.140007 
L 173.503583 245.313618 
L 172.185066 245.940687 
L 170.866186 246.442168 
L 169.532329 247.345503 
L 168.863049 247.907055 
L 166.891336 248.654769 
L 165.548571 249.414943 
L 164.21991 250.347192 
L 162.224444 251.192478 
L 158.914172 253.084816 
L 157.5625 254.077479 
L 154.254107 255.693778 
L 153.587054 256.245126 
L 151.604454 257.082704 
L 148.927338 258.709091 
L 147.619955 259.244393 
L 146.948943 259.543027 
L 145.61855 260.415748 
L 142.994877 261.723832 
L 141.038751 262.969615 
L 139.049493 263.99514 
L 133.136208 267.095511 
L 131.166474 268.247086 
L 129.851668 268.966405 
L 128.516574 269.631483 
L 125.831911 270.945796 
L 125.165601 271.138983 
L 119.155066 274.331996 
L 118.499148 274.506123 
L 117.845457 274.854856 
L 117.196466 274.999041 
L 114.536422 276.473764 
L 112.54912 277.696106 
L 111.221201 278.288864 
L 109.903674 278.734653 
L 109.22524 279.108306 
L 108.544827 279.611811 
L 105.248384 280.954727 
L 103.911434 281.871372 
L 101.918936 282.730487 
L 100.591017 283.666433 
L 99.24949 284.067596 
L 97.918973 284.452896 
L 95.951342 285.725596 
L 93.949442 286.279347 
L 93.297854 286.754604 
L 92.635255 287.711329 
L 91.962636 287.989739 
L 91.292367 288.062419 
L 89.958003 288.52913 
L 89.288724 288.685316 
L 88.612765 289.479506 
L 87.936434 289.695861 
L 86.586989 289.966504 
L 85.920927 290.155919 
L 85.246575 290.514266 
L 84.583976 291.271038 
L 82.583067 291.798739 
L 81.926159 292.17365 
L 81.270488 292.748069 
L 79.953208 293.225248 
L 78.63766 293.534896 
L 77.96034 293.912026 
L 77.287349 294.801237 
L 75.957822 294.708281 
L 74.61766 294.301259 
L 74.009309 295.488 
L 73.833072 294.38639 
L 73.833072 294.38639 
" clip-path="url(#p9b8ec73d66)" style="fill: none; stroke: #000000; stroke-width: 1.5; stroke-linecap: square"/>
   </g>
   <g id="patch_3">
    <path d="M 57.6 307.584 
L 57.6 41.472 
" style="fill: none; stroke: #000000; stroke-width: 0.8; stroke-linejoin: miter; stroke-linecap: square"/>
   </g>
   <g id="patch_4">
    <path d="M 414.72 307.584 
L 414.72 41.472 
" style="fill: none; stroke: #000000; stroke-width: 0.8; stroke-linejoin: miter; stroke-linecap: square"/>
   </g>
   <g id="patch_5">
    <path d="M 57.6 307.584 
L 414.72 307.584 
" style="fill: none; stroke: #000000; stroke-width: 0.8; stroke-linejoin: miter; stroke-linecap: square"/>
   </g>
   <g id="patch_6">
    <path d="M 57.6 41.472 
L 414.72 41.472 
" style="fill: none; stroke: #000000; stroke-width: 0.8; stroke-linejoin: miter; stroke-linecap: square"/>
   </g>
   <g id="text_19">
    <!-- 2025-06-19 trial 18 -->
    <g transform="translate(178.0125 35.472) scale(0.12 -0.12)">
     <defs>
      <path id="DejaVuSans-2d" d="M 313 2009 
L 1997 2009 
L 1997 1497 
L 313 1497 
L 313 2009 
z
" transform="scale(0.015625)"/>
      <path id="DejaVuSans-36" d="M 2113 2584 
Q 1688 2584 1439 2293 
Q 1191 2003 1191 1497 
Q 1191 994 1439 701 
Q 1688 409 2113 409 
Q 2538 409 2786 701 
Q 3034 994 3034 1497 
Q 3034 2003 2786 2293 
Q 2538 2584 2113 2584 
z
M 3366 4563 
L 3366 3988 
Q 3128 4100 2886 4159 
Q 2644 4219 2406 4219 
Q 1781 4219 1451 3797 
Q 1122 3375 1075 2522 
Q 1259 2794 1537 2939 
Q 1816 3084 2150 3084 
Q 2853 3084 3261 2657 
Q 3669 2231 3669 1497 
Q 3669 778 3244 343 
Q 2819 -91 2113 -91 
Q 1303 -91 875 529 
Q 447 1150 447 2328 
Q 447 3434 972 4092 
Q 1497 4750 2381 4750 
Q 2619 4750 2861 4703 
Q 3103 4656 3366 4563 
z
" transform="scale(0.015625)"/>
      <path id="DejaVuSans-39" d="M 703 97 
L 703 672 
Q 941 559 1184 500 
Q 1428 441 1663 441 
Q 2288 441 2617 861 
Q 2947 1281 2994 2138 
Q 2813 1869 2534 1725 
Q 2256 1581 1919 1581 
Q 1219 1581 811 2004 
Q 403 2428 403 3163 
Q 403 3881 828 4315 
Q 1253 4750 1959 4750 
Q 2769 4750 3195 4129 
Q 3622 3509 3622 2328 
Q 3622 1225 3098 567 
Q 2575 -91 1691 -91 
Q 1453 -91 1209 -44 
Q 966 3 703 97 
z
M 1959 2075 
Q 2384 2075 2632 2365 
Q 2881 2656 2881 3163 
Q 2881 3666 2632 3958 
Q 2384 4250 1959 4250 
Q 1534 4250 1286 3958 
Q 1038 3666 1038 3163 
Q 1038 2656 1286 2365 
Q 1534 2075 1959 2075 
z
" transform="scale(0.015625)"/>
      <path id="DejaVuSans-6c" d="M 603 4863 
L 1178 4863 
L 1178 0 
L 603 0 
L 603 4863 
z
" transform="scale(0.015625)"/>
      <path id="DejaVuSans-38" d="M 2034 2216 
Q 1584 2216 1326 1975 
Q 1069 1734 1069 1313 
Q 1069 891 1326 650 
Q 1584 409 2034 409 
Q 2484 409 2743 651 
Q 3003 894 3003 1313 
Q 3003 1734 2745 1975 
Q 2488 2216 2034 2216 
z
M 1403 2484 
Q 997 2584 770 2862 
Q 544 3141 544 3541 
Q 544 4100 942 4425 
Q 1341 4750 2034 4750 
Q 2731 4750 3128 4425 
Q 3525 4100 3525 3541 
Q 3525 3141 3298 2862 
Q 3072 2584 2669 2484 
Q 3125 2378 3379 2068 
Q 3634 1759 3634 1313 
Q 3634 634 3220 271 
Q 2806 -91 2034 -91 
Q 1263 -91 848 271 
Q 434 634 434 1313 
Q 434 1759 690 2068 
Q 947 2378 1403 2484 
z
M 1172 3481 
Q 1172 3119 1398 2916 
Q 1625 2713 2034 2713 
Q 2441 2713 2670 2916 
Q 2900 3119 2900 3481 
Q 2900 3844 2670 4047 
Q 2441 4250 2034 4250 
Q 1625 4250 1398 4047 
Q 1172 3844 1172 3481 
z
" transform="scale(0.015625)"/>
     </defs>
     <use xlink:href="#DejaVuSans-32"/>
     <use xlink:href="#DejaVuSans-30" transform="translate(63.623047 0)"/>
     <use xlink:href="#DejaVuSans-32" transform="translate(127.246094 0)"/>
     <use xlink:href="#DejaVuSans-35" transform="translate(190.869141 0)"/>
     <use xlink:href="#DejaVuSans-2d" transform="translate(254.492188 0)"/>
     <use xlink:href="#DejaVuSans-30" transform="translate(290.576172 0)"/>
     <use xlink:href="#DejaVuSans-36" transform="translate(354.199219 0)"/>
     <use xlink:href="#DejaVuSans-2d" transform="translate(417.822266 0)"/>
     <use xlink:href="#DejaVuSans-31" transform="translate(453.90625 0)"/>
     <use xlink:href="#DejaVuSans-39" transform="translate(517.529297 0)"/>
     <use xlink:href="#DejaVuSans-20" transform="translate(581.152344 0)"/>
     <use xlink:href="#DejaVuSans-74" transform="translate(612.939453 0)"/>
     <use xlink:href="#DejaVuSans-72" transform="translate(652.148438 0)"/>
     <use xlink:href="#DejaVuSans-69" transform="translate(693.261719 0)"/>
     <use xlink:href="#DejaVuSans-61" transform="translate(721.044922 0)"/>
     <use xlink:href="#DejaVuSans-6c" transform="translate(782.324219 0)"/>
     <use xlink:href="#DejaVuSans-20" transform="translate(810.107422 0)"/>
     <use xlink:href="#DejaVuSans-31" transform="translate(841.894531 0)"/>
     <use xlink:href="#DejaVuSans-38" transform="translate(905.517578 0)"/>
    </g>
   </g>
  </g>
 </g>
 <defs>
  <clipPath id="p9b8ec73d66">
   <rect x="57.6" y="41.472" width="357.12" height="266.112"/>
  </clipPath>
 </defs>
</svg>
