<?xml version="1.0" encoding="utf-8" standalone="no"?>
<!DOCTYPE svg PUBLIC "-//W3C//DTD SVG 1.1//EN"
  "http://www.w3.org/Graphics/SVG/1.1/DTD/svg11.dtd">
<svg xmlns:xlink="http://www.w3.org/1999/xlink" width="460.8pt" height="345.6pt" viewBox="0 0 460.8 345.6" xmlns="http://www.w3.org/2000/svg" version="1.1">
 <metadata>
  <rdf:RDF xmlns:dc="http://purl.org/dc/elements/1.1/" xmlns:cc="http://creativecommons.org/ns#" xmlns:rdf="http://www.w3.org/1999/02/22-rdf-syntax-ns#">
   <cc:Work>
    <dc:type rdf:resource="http://purl.org/dc/dcmitype/StillImage"/>
    <dc:date>2025-07-14T21:34:48.744864</dc:date>
    <dc:format>image/svg+xml</dc:format>
    <dc:creator>
     <cc:Agent>
      <dc:title>Matplotlib v3.10.3, https://matplotlib.org/</dc:title>
     </cc:Agent>
    </dc:creator>
   </cc:Work>
  </rdf:RDF>
 </metadata>
 <defs>
  <style type="text/css">*{stroke-linejoin: round; stroke-linecap: butt}</style>
 </defs>
 <g id="figure_1">
  <g id="patch_1">
   <path d="M 0 345.6 
L 460.8 345.6 
L 460.8 0 
L 0 0 
z
" style="fill: #ffffff"/>
  </g>
  <g id="axes_1">
   <g id="patch_2">
    <path d="M 57.6 307.584 
L 414.72 307.584 
L 414.72 41.472 
L 57.6 41.472 
z
" style="fill: #ffffff"/>
   </g>
   <g id="matplotlib.axis_1">
    <g id="xtick_1">
     <g id="line2d_1">
      <defs>
       <path id="m51593f0fbe" d="M 0 0 
L 0 3.5 
" style="stroke: #000000; stroke-width: 0.8"/>
      </defs>
      <g>
       <use xlink:href="#m51593f0fbe" x="73.982622" y="307.584" style="stroke: #000000; stroke-width: 0.8"/>
      </g>
     </g>
     <g id="text_1">
      <!-- 0.000 -->
      <g transform="translate(59.66856 322.182437) scale(0.1 -0.1)">
       <defs>
        <path id="DejaVuSans-30" d="M 2034 4250 
Q 1547 4250 1301 3770 
Q 1056 3291 1056 2328 
Q 1056 1369 1301 889 
Q 1547 409 2034 409 
Q 2525 409 2770 889 
Q 3016 1369 3016 2328 
Q 3016 3291 2770 3770 
Q 2525 4250 2034 4250 
z
M 2034 4750 
Q 2819 4750 3233 4129 
Q 3647 3509 3647 2328 
Q 3647 1150 3233 529 
Q 2819 -91 2034 -91 
Q 1250 -91 836 529 
Q 422 1150 422 2328 
Q 422 3509 836 4129 
Q 1250 4750 2034 4750 
z
" transform="scale(0.015625)"/>
        <path id="DejaVuSans-2e" d="M 684 794 
L 1344 794 
L 1344 0 
L 684 0 
L 684 794 
z
" transform="scale(0.015625)"/>
       </defs>
       <use xlink:href="#DejaVuSans-30"/>
       <use xlink:href="#DejaVuSans-2e" transform="translate(63.623047 0)"/>
       <use xlink:href="#DejaVuSans-30" transform="translate(95.410156 0)"/>
       <use xlink:href="#DejaVuSans-30" transform="translate(159.033203 0)"/>
       <use xlink:href="#DejaVuSans-30" transform="translate(222.65625 0)"/>
      </g>
     </g>
    </g>
    <g id="xtick_2">
     <g id="line2d_2">
      <g>
       <use xlink:href="#m51593f0fbe" x="116.147257" y="307.584" style="stroke: #000000; stroke-width: 0.8"/>
      </g>
     </g>
     <g id="text_2">
      <!-- 0.025 -->
      <g transform="translate(101.833194 322.182437) scale(0.1 -0.1)">
       <defs>
        <path id="DejaVuSans-32" d="M 1228 531 
L 3431 531 
L 3431 0 
L 469 0 
L 469 531 
Q 828 903 1448 1529 
Q 2069 2156 2228 2338 
Q 2531 2678 2651 2914 
Q 2772 3150 2772 3378 
Q 2772 3750 2511 3984 
Q 2250 4219 1831 4219 
Q 1534 4219 1204 4116 
Q 875 4013 500 3803 
L 500 4441 
Q 881 4594 1212 4672 
Q 1544 4750 1819 4750 
Q 2544 4750 2975 4387 
Q 3406 4025 3406 3419 
Q 3406 3131 3298 2873 
Q 3191 2616 2906 2266 
Q 2828 2175 2409 1742 
Q 1991 1309 1228 531 
z
" transform="scale(0.015625)"/>
        <path id="DejaVuSans-35" d="M 691 4666 
L 3169 4666 
L 3169 4134 
L 1269 4134 
L 1269 2991 
Q 1406 3038 1543 3061 
Q 1681 3084 1819 3084 
Q 2600 3084 3056 2656 
Q 3513 2228 3513 1497 
Q 3513 744 3044 326 
Q 2575 -91 1722 -91 
Q 1428 -91 1123 -41 
Q 819 9 494 109 
L 494 744 
Q 775 591 1075 516 
Q 1375 441 1709 441 
Q 2250 441 2565 725 
Q 2881 1009 2881 1497 
Q 2881 1984 2565 2268 
Q 2250 2553 1709 2553 
Q 1456 2553 1204 2497 
Q 953 2441 691 2322 
L 691 4666 
z
" transform="scale(0.015625)"/>
       </defs>
       <use xlink:href="#DejaVuSans-30"/>
       <use xlink:href="#DejaVuSans-2e" transform="translate(63.623047 0)"/>
       <use xlink:href="#DejaVuSans-30" transform="translate(95.410156 0)"/>
       <use xlink:href="#DejaVuSans-32" transform="translate(159.033203 0)"/>
       <use xlink:href="#DejaVuSans-35" transform="translate(222.65625 0)"/>
      </g>
     </g>
    </g>
    <g id="xtick_3">
     <g id="line2d_3">
      <g>
       <use xlink:href="#m51593f0fbe" x="158.311891" y="307.584" style="stroke: #000000; stroke-width: 0.8"/>
      </g>
     </g>
     <g id="text_3">
      <!-- 0.050 -->
      <g transform="translate(143.997828 322.182437) scale(0.1 -0.1)">
       <use xlink:href="#DejaVuSans-30"/>
       <use xlink:href="#DejaVuSans-2e" transform="translate(63.623047 0)"/>
       <use xlink:href="#DejaVuSans-30" transform="translate(95.410156 0)"/>
       <use xlink:href="#DejaVuSans-35" transform="translate(159.033203 0)"/>
       <use xlink:href="#DejaVuSans-30" transform="translate(222.65625 0)"/>
      </g>
     </g>
    </g>
    <g id="xtick_4">
     <g id="line2d_4">
      <g>
       <use xlink:href="#m51593f0fbe" x="200.476525" y="307.584" style="stroke: #000000; stroke-width: 0.8"/>
      </g>
     </g>
     <g id="text_4">
      <!-- 0.075 -->
      <g transform="translate(186.162463 322.182437) scale(0.1 -0.1)">
       <defs>
        <path id="DejaVuSans-37" d="M 525 4666 
L 3525 4666 
L 3525 4397 
L 1831 0 
L 1172 0 
L 2766 4134 
L 525 4134 
L 525 4666 
z
" transform="scale(0.015625)"/>
       </defs>
       <use xlink:href="#DejaVuSans-30"/>
       <use xlink:href="#DejaVuSans-2e" transform="translate(63.623047 0)"/>
       <use xlink:href="#DejaVuSans-30" transform="translate(95.410156 0)"/>
       <use xlink:href="#DejaVuSans-37" transform="translate(159.033203 0)"/>
       <use xlink:href="#DejaVuSans-35" transform="translate(222.65625 0)"/>
      </g>
     </g>
    </g>
    <g id="xtick_5">
     <g id="line2d_5">
      <g>
       <use xlink:href="#m51593f0fbe" x="242.64116" y="307.584" style="stroke: #000000; stroke-width: 0.8"/>
      </g>
     </g>
     <g id="text_5">
      <!-- 0.100 -->
      <g transform="translate(228.327097 322.182437) scale(0.1 -0.1)">
       <defs>
        <path id="DejaVuSans-31" d="M 794 531 
L 1825 531 
L 1825 4091 
L 703 3866 
L 703 4441 
L 1819 4666 
L 2450 4666 
L 2450 531 
L 3481 531 
L 3481 0 
L 794 0 
L 794 531 
z
" transform="scale(0.015625)"/>
       </defs>
       <use xlink:href="#DejaVuSans-30"/>
       <use xlink:href="#DejaVuSans-2e" transform="translate(63.623047 0)"/>
       <use xlink:href="#DejaVuSans-31" transform="translate(95.410156 0)"/>
       <use xlink:href="#DejaVuSans-30" transform="translate(159.033203 0)"/>
       <use xlink:href="#DejaVuSans-30" transform="translate(222.65625 0)"/>
      </g>
     </g>
    </g>
    <g id="xtick_6">
     <g id="line2d_6">
      <g>
       <use xlink:href="#m51593f0fbe" x="284.805794" y="307.584" style="stroke: #000000; stroke-width: 0.8"/>
      </g>
     </g>
     <g id="text_6">
      <!-- 0.125 -->
      <g transform="translate(270.491732 322.182437) scale(0.1 -0.1)">
       <use xlink:href="#DejaVuSans-30"/>
       <use xlink:href="#DejaVuSans-2e" transform="translate(63.623047 0)"/>
       <use xlink:href="#DejaVuSans-31" transform="translate(95.410156 0)"/>
       <use xlink:href="#DejaVuSans-32" transform="translate(159.033203 0)"/>
       <use xlink:href="#DejaVuSans-35" transform="translate(222.65625 0)"/>
      </g>
     </g>
    </g>
    <g id="xtick_7">
     <g id="line2d_7">
      <g>
       <use xlink:href="#m51593f0fbe" x="326.970428" y="307.584" style="stroke: #000000; stroke-width: 0.8"/>
      </g>
     </g>
     <g id="text_7">
      <!-- 0.150 -->
      <g transform="translate(312.656366 322.182437) scale(0.1 -0.1)">
       <use xlink:href="#DejaVuSans-30"/>
       <use xlink:href="#DejaVuSans-2e" transform="translate(63.623047 0)"/>
       <use xlink:href="#DejaVuSans-31" transform="translate(95.410156 0)"/>
       <use xlink:href="#DejaVuSans-35" transform="translate(159.033203 0)"/>
       <use xlink:href="#DejaVuSans-30" transform="translate(222.65625 0)"/>
      </g>
     </g>
    </g>
    <g id="xtick_8">
     <g id="line2d_8">
      <g>
       <use xlink:href="#m51593f0fbe" x="369.135063" y="307.584" style="stroke: #000000; stroke-width: 0.8"/>
      </g>
     </g>
     <g id="text_8">
      <!-- 0.175 -->
      <g transform="translate(354.821 322.182437) scale(0.1 -0.1)">
       <use xlink:href="#DejaVuSans-30"/>
       <use xlink:href="#DejaVuSans-2e" transform="translate(63.623047 0)"/>
       <use xlink:href="#DejaVuSans-31" transform="translate(95.410156 0)"/>
       <use xlink:href="#DejaVuSans-37" transform="translate(159.033203 0)"/>
       <use xlink:href="#DejaVuSans-35" transform="translate(222.65625 0)"/>
      </g>
     </g>
    </g>
    <g id="xtick_9">
     <g id="line2d_9">
      <g>
       <use xlink:href="#m51593f0fbe" x="411.299697" y="307.584" style="stroke: #000000; stroke-width: 0.8"/>
      </g>
     </g>
     <g id="text_9">
      <!-- 0.200 -->
      <g transform="translate(396.985635 322.182437) scale(0.1 -0.1)">
       <use xlink:href="#DejaVuSans-30"/>
       <use xlink:href="#DejaVuSans-2e" transform="translate(63.623047 0)"/>
       <use xlink:href="#DejaVuSans-32" transform="translate(95.410156 0)"/>
       <use xlink:href="#DejaVuSans-30" transform="translate(159.033203 0)"/>
       <use xlink:href="#DejaVuSans-30" transform="translate(222.65625 0)"/>
      </g>
     </g>
    </g>
    <g id="text_10">
     <!-- Strain -->
     <g transform="translate(221.348281 335.860562) scale(0.1 -0.1)">
      <defs>
       <path id="DejaVuSans-53" d="M 3425 4513 
L 3425 3897 
Q 3066 4069 2747 4153 
Q 2428 4238 2131 4238 
Q 1616 4238 1336 4038 
Q 1056 3838 1056 3469 
Q 1056 3159 1242 3001 
Q 1428 2844 1947 2747 
L 2328 2669 
Q 3034 2534 3370 2195 
Q 3706 1856 3706 1288 
Q 3706 609 3251 259 
Q 2797 -91 1919 -91 
Q 1588 -91 1214 -16 
Q 841 59 441 206 
L 441 856 
Q 825 641 1194 531 
Q 1563 422 1919 422 
Q 2459 422 2753 634 
Q 3047 847 3047 1241 
Q 3047 1584 2836 1778 
Q 2625 1972 2144 2069 
L 1759 2144 
Q 1053 2284 737 2584 
Q 422 2884 422 3419 
Q 422 4038 858 4394 
Q 1294 4750 2059 4750 
Q 2388 4750 2728 4690 
Q 3069 4631 3425 4513 
z
" transform="scale(0.015625)"/>
       <path id="DejaVuSans-74" d="M 1172 4494 
L 1172 3500 
L 2356 3500 
L 2356 3053 
L 1172 3053 
L 1172 1153 
Q 1172 725 1289 603 
Q 1406 481 1766 481 
L 2356 481 
L 2356 0 
L 1766 0 
Q 1100 0 847 248 
Q 594 497 594 1153 
L 594 3053 
L 172 3053 
L 172 3500 
L 594 3500 
L 594 4494 
L 1172 4494 
z
" transform="scale(0.015625)"/>
       <path id="DejaVuSans-72" d="M 2631 2963 
Q 2534 3019 2420 3045 
Q 2306 3072 2169 3072 
Q 1681 3072 1420 2755 
Q 1159 2438 1159 1844 
L 1159 0 
L 581 0 
L 581 3500 
L 1159 3500 
L 1159 2956 
Q 1341 3275 1631 3429 
Q 1922 3584 2338 3584 
Q 2397 3584 2469 3576 
Q 2541 3569 2628 3553 
L 2631 2963 
z
" transform="scale(0.015625)"/>
       <path id="DejaVuSans-61" d="M 2194 1759 
Q 1497 1759 1228 1600 
Q 959 1441 959 1056 
Q 959 750 1161 570 
Q 1363 391 1709 391 
Q 2188 391 2477 730 
Q 2766 1069 2766 1631 
L 2766 1759 
L 2194 1759 
z
M 3341 1997 
L 3341 0 
L 2766 0 
L 2766 531 
Q 2569 213 2275 61 
Q 1981 -91 1556 -91 
Q 1019 -91 701 211 
Q 384 513 384 1019 
Q 384 1609 779 1909 
Q 1175 2209 1959 2209 
L 2766 2209 
L 2766 2266 
Q 2766 2663 2505 2880 
Q 2244 3097 1772 3097 
Q 1472 3097 1187 3025 
Q 903 2953 641 2809 
L 641 3341 
Q 956 3463 1253 3523 
Q 1550 3584 1831 3584 
Q 2591 3584 2966 3190 
Q 3341 2797 3341 1997 
z
" transform="scale(0.015625)"/>
       <path id="DejaVuSans-69" d="M 603 3500 
L 1178 3500 
L 1178 0 
L 603 0 
L 603 3500 
z
M 603 4863 
L 1178 4863 
L 1178 4134 
L 603 4134 
L 603 4863 
z
" transform="scale(0.015625)"/>
       <path id="DejaVuSans-6e" d="M 3513 2113 
L 3513 0 
L 2938 0 
L 2938 2094 
Q 2938 2591 2744 2837 
Q 2550 3084 2163 3084 
Q 1697 3084 1428 2787 
Q 1159 2491 1159 1978 
L 1159 0 
L 581 0 
L 581 3500 
L 1159 3500 
L 1159 2956 
Q 1366 3272 1645 3428 
Q 1925 3584 2291 3584 
Q 2894 3584 3203 3211 
Q 3513 2838 3513 2113 
z
" transform="scale(0.015625)"/>
      </defs>
      <use xlink:href="#DejaVuSans-53"/>
      <use xlink:href="#DejaVuSans-74" transform="translate(63.476562 0)"/>
      <use xlink:href="#DejaVuSans-72" transform="translate(102.685547 0)"/>
      <use xlink:href="#DejaVuSans-61" transform="translate(143.798828 0)"/>
      <use xlink:href="#DejaVuSans-69" transform="translate(205.078125 0)"/>
      <use xlink:href="#DejaVuSans-6e" transform="translate(232.861328 0)"/>
     </g>
    </g>
   </g>
   <g id="matplotlib.axis_2">
    <g id="ytick_1">
     <g id="line2d_10">
      <defs>
       <path id="meb71c279cf" d="M 0 0 
L -3.5 0 
" style="stroke: #000000; stroke-width: 0.8"/>
      </defs>
      <g>
       <use xlink:href="#meb71c279cf" x="57.6" y="273.061371" style="stroke: #000000; stroke-width: 0.8"/>
      </g>
     </g>
     <g id="text_11">
      <!-- 0 -->
      <g transform="translate(44.2375 276.86059) scale(0.1 -0.1)">
       <use xlink:href="#DejaVuSans-30"/>
      </g>
     </g>
    </g>
    <g id="ytick_2">
     <g id="line2d_11">
      <g>
       <use xlink:href="#meb71c279cf" x="57.6" y="232.979741" style="stroke: #000000; stroke-width: 0.8"/>
      </g>
     </g>
     <g id="text_12">
      <!-- 100 -->
      <g transform="translate(31.5125 236.778959) scale(0.1 -0.1)">
       <use xlink:href="#DejaVuSans-31"/>
       <use xlink:href="#DejaVuSans-30" transform="translate(63.623047 0)"/>
       <use xlink:href="#DejaVuSans-30" transform="translate(127.246094 0)"/>
      </g>
     </g>
    </g>
    <g id="ytick_3">
     <g id="line2d_12">
      <g>
       <use xlink:href="#meb71c279cf" x="57.6" y="192.89811" style="stroke: #000000; stroke-width: 0.8"/>
      </g>
     </g>
     <g id="text_13">
      <!-- 200 -->
      <g transform="translate(31.5125 196.697329) scale(0.1 -0.1)">
       <use xlink:href="#DejaVuSans-32"/>
       <use xlink:href="#DejaVuSans-30" transform="translate(63.623047 0)"/>
       <use xlink:href="#DejaVuSans-30" transform="translate(127.246094 0)"/>
      </g>
     </g>
    </g>
    <g id="ytick_4">
     <g id="line2d_13">
      <g>
       <use xlink:href="#meb71c279cf" x="57.6" y="152.81648" style="stroke: #000000; stroke-width: 0.8"/>
      </g>
     </g>
     <g id="text_14">
      <!-- 300 -->
      <g transform="translate(31.5125 156.615698) scale(0.1 -0.1)">
       <defs>
        <path id="DejaVuSans-33" d="M 2597 2516 
Q 3050 2419 3304 2112 
Q 3559 1806 3559 1356 
Q 3559 666 3084 287 
Q 2609 -91 1734 -91 
Q 1441 -91 1130 -33 
Q 819 25 488 141 
L 488 750 
Q 750 597 1062 519 
Q 1375 441 1716 441 
Q 2309 441 2620 675 
Q 2931 909 2931 1356 
Q 2931 1769 2642 2001 
Q 2353 2234 1838 2234 
L 1294 2234 
L 1294 2753 
L 1863 2753 
Q 2328 2753 2575 2939 
Q 2822 3125 2822 3475 
Q 2822 3834 2567 4026 
Q 2313 4219 1838 4219 
Q 1578 4219 1281 4162 
Q 984 4106 628 3988 
L 628 4550 
Q 988 4650 1302 4700 
Q 1616 4750 1894 4750 
Q 2613 4750 3031 4423 
Q 3450 4097 3450 3541 
Q 3450 3153 3228 2886 
Q 3006 2619 2597 2516 
z
" transform="scale(0.015625)"/>
       </defs>
       <use xlink:href="#DejaVuSans-33"/>
       <use xlink:href="#DejaVuSans-30" transform="translate(63.623047 0)"/>
       <use xlink:href="#DejaVuSans-30" transform="translate(127.246094 0)"/>
      </g>
     </g>
    </g>
    <g id="ytick_5">
     <g id="line2d_14">
      <g>
       <use xlink:href="#meb71c279cf" x="57.6" y="112.734849" style="stroke: #000000; stroke-width: 0.8"/>
      </g>
     </g>
     <g id="text_15">
      <!-- 400 -->
      <g transform="translate(31.5125 116.534068) scale(0.1 -0.1)">
       <defs>
        <path id="DejaVuSans-34" d="M 2419 4116 
L 825 1625 
L 2419 1625 
L 2419 4116 
z
M 2253 4666 
L 3047 4666 
L 3047 1625 
L 3713 1625 
L 3713 1100 
L 3047 1100 
L 3047 0 
L 2419 0 
L 2419 1100 
L 313 1100 
L 313 1709 
L 2253 4666 
z
" transform="scale(0.015625)"/>
       </defs>
       <use xlink:href="#DejaVuSans-34"/>
       <use xlink:href="#DejaVuSans-30" transform="translate(63.623047 0)"/>
       <use xlink:href="#DejaVuSans-30" transform="translate(127.246094 0)"/>
      </g>
     </g>
    </g>
    <g id="ytick_6">
     <g id="line2d_15">
      <g>
       <use xlink:href="#meb71c279cf" x="57.6" y="72.653218" style="stroke: #000000; stroke-width: 0.8"/>
      </g>
     </g>
     <g id="text_16">
      <!-- 500 -->
      <g transform="translate(31.5125 76.452437) scale(0.1 -0.1)">
       <use xlink:href="#DejaVuSans-35"/>
       <use xlink:href="#DejaVuSans-30" transform="translate(63.623047 0)"/>
       <use xlink:href="#DejaVuSans-30" transform="translate(127.246094 0)"/>
      </g>
     </g>
    </g>
    <g id="text_17">
     <!-- Stress [Pa] -->
     <g transform="translate(25.432812 201.235813) rotate(-90) scale(0.1 -0.1)">
      <defs>
       <path id="DejaVuSans-65" d="M 3597 1894 
L 3597 1613 
L 953 1613 
Q 991 1019 1311 708 
Q 1631 397 2203 397 
Q 2534 397 2845 478 
Q 3156 559 3463 722 
L 3463 178 
Q 3153 47 2828 -22 
Q 2503 -91 2169 -91 
Q 1331 -91 842 396 
Q 353 884 353 1716 
Q 353 2575 817 3079 
Q 1281 3584 2069 3584 
Q 2775 3584 3186 3129 
Q 3597 2675 3597 1894 
z
M 3022 2063 
Q 3016 2534 2758 2815 
Q 2500 3097 2075 3097 
Q 1594 3097 1305 2825 
Q 1016 2553 972 2059 
L 3022 2063 
z
" transform="scale(0.015625)"/>
       <path id="DejaVuSans-73" d="M 2834 3397 
L 2834 2853 
Q 2591 2978 2328 3040 
Q 2066 3103 1784 3103 
Q 1356 3103 1142 2972 
Q 928 2841 928 2578 
Q 928 2378 1081 2264 
Q 1234 2150 1697 2047 
L 1894 2003 
Q 2506 1872 2764 1633 
Q 3022 1394 3022 966 
Q 3022 478 2636 193 
Q 2250 -91 1575 -91 
Q 1294 -91 989 -36 
Q 684 19 347 128 
L 347 722 
Q 666 556 975 473 
Q 1284 391 1588 391 
Q 1994 391 2212 530 
Q 2431 669 2431 922 
Q 2431 1156 2273 1281 
Q 2116 1406 1581 1522 
L 1381 1569 
Q 847 1681 609 1914 
Q 372 2147 372 2553 
Q 372 3047 722 3315 
Q 1072 3584 1716 3584 
Q 2034 3584 2315 3537 
Q 2597 3491 2834 3397 
z
" transform="scale(0.015625)"/>
       <path id="DejaVuSans-20" transform="scale(0.015625)"/>
       <path id="DejaVuSans-5b" d="M 550 4863 
L 1875 4863 
L 1875 4416 
L 1125 4416 
L 1125 -397 
L 1875 -397 
L 1875 -844 
L 550 -844 
L 550 4863 
z
" transform="scale(0.015625)"/>
       <path id="DejaVuSans-50" d="M 1259 4147 
L 1259 2394 
L 2053 2394 
Q 2494 2394 2734 2622 
Q 2975 2850 2975 3272 
Q 2975 3691 2734 3919 
Q 2494 4147 2053 4147 
L 1259 4147 
z
M 628 4666 
L 2053 4666 
Q 2838 4666 3239 4311 
Q 3641 3956 3641 3272 
Q 3641 2581 3239 2228 
Q 2838 1875 2053 1875 
L 1259 1875 
L 1259 0 
L 628 0 
L 628 4666 
z
" transform="scale(0.015625)"/>
       <path id="DejaVuSans-5d" d="M 1947 4863 
L 1947 -844 
L 622 -844 
L 622 -397 
L 1369 -397 
L 1369 4416 
L 622 4416 
L 622 4863 
L 1947 4863 
z
" transform="scale(0.015625)"/>
      </defs>
      <use xlink:href="#DejaVuSans-53"/>
      <use xlink:href="#DejaVuSans-74" transform="translate(63.476562 0)"/>
      <use xlink:href="#DejaVuSans-72" transform="translate(102.685547 0)"/>
      <use xlink:href="#DejaVuSans-65" transform="translate(141.548828 0)"/>
      <use xlink:href="#DejaVuSans-73" transform="translate(203.072266 0)"/>
      <use xlink:href="#DejaVuSans-73" transform="translate(255.171875 0)"/>
      <use xlink:href="#DejaVuSans-20" transform="translate(307.271484 0)"/>
      <use xlink:href="#DejaVuSans-5b" transform="translate(339.058594 0)"/>
      <use xlink:href="#DejaVuSans-50" transform="translate(378.072266 0)"/>
      <use xlink:href="#DejaVuSans-61" transform="translate(433.875 0)"/>
      <use xlink:href="#DejaVuSans-5d" transform="translate(495.154297 0)"/>
     </g>
    </g>
   </g>
   <g id="line2d_16">
    <path d="M 73.982622 287.117895 
L 73.983825 286.522127 
L 73.982622 287.434283 
L 73.981662 286.834002 
L 75.36407 263.23027 
L 76.076243 261.788879 
L 76.752289 260.905627 
L 77.407548 257.628816 
L 78.157829 252.265064 
L 78.837834 248.614473 
L 79.592075 246.315724 
L 80.424511 245.73685 
L 81.097587 246.435353 
L 83.345462 251.503194 
L 84.159092 252.601175 
L 85.004396 253.104221 
L 85.877415 253.094414 
L 86.780128 252.74088 
L 87.710556 252.075083 
L 89.323959 250.774638 
L 89.991095 250.457703 
L 90.672089 250.395212 
L 91.362981 250.670096 
L 92.065752 251.28372 
L 93.502966 253.199345 
L 94.977794 255.90614 
L 96.482316 259.344922 
L 98.776713 265.051307 
L 99.548771 266.599382 
L 100.320828 267.692691 
L 101.092886 268.340577 
L 101.866923 268.607674 
L 102.64096 268.55224 
L 104.963071 267.596763 
L 105.739088 267.517968 
L 106.515107 267.736006 
L 107.291124 268.37922 
L 108.065161 269.562859 
L 109.613235 273.132464 
L 111.143493 276.533868 
L 111.899713 277.764229 
L 112.651974 278.57253 
L 113.396317 278.897252 
L 114.132741 278.74005 
L 114.863226 278.137329 
L 115.587772 277.093858 
L 116.30638 275.604965 
L 119.836068 266.765053 
L 120.534879 265.668629 
L 121.231711 264.891477 
L 121.928542 264.35261 
L 123.314286 263.688371 
L 124.694092 263.479677 
L 126.065979 263.304759 
L 127.429947 262.901777 
L 128.784017 262.247661 
L 130.130169 261.266486 
L 132.796736 258.942816 
L 134.117153 257.815244 
L 135.429651 256.953213 
L 139.004867 255.219026 
L 139.970929 254.473022 
L 141.895133 252.468624 
L 143.81142 250.291351 
L 145.721767 248.525238 
L 146.673971 247.88436 
L 151.438952 245.323185 
L 153.343361 243.965894 
L 155.248759 242.43955 
L 157.155147 241.243452 
L 159.059556 240.378306 
L 162.864413 238.722769 
L 163.812658 238.099801 
L 166.659373 235.649981 
L 169.510047 233.271801 
L 171.412476 232.033653 
L 174.273048 230.550211 
L 180.000131 227.473529 
L 185.739092 223.929621 
L 187.655378 222.443843 
L 190.541686 220.099927 
L 193.439871 218.067495 
L 195.379913 216.980416 
L 197.327873 216.267118 
L 199.279793 215.531238 
L 201.883012 214.312557 
L 205.143471 212.442096 
L 212.992722 207.287038 
L 216.934175 205.068494 
L 221.538805 202.644371 
L 224.169739 200.699155 
L 232.07838 194.888423 
L 237.371923 191.511938 
L 244.662917 187.661218 
L 247.309689 186.267328 
L 249.291303 185.032295 
L 251.266978 183.493564 
L 253.240674 181.967293 
L 255.21239 180.754064 
L 258.490665 179.141356 
L 260.448524 178.268422 
L 262.398464 177.043512 
L 268.852073 172.684295 
L 270.772319 171.418113 
L 272.686625 169.852907 
L 276.501381 166.460848 
L 280.306239 163.193382 
L 283.162852 161.190541 
L 287.921894 158.262592 
L 291.726751 155.25833 
L 301.282448 147.189341 
L 303.210612 145.888896 
L 308.0429 143.282554 
L 311.911106 140.731501 
L 313.845209 139.133589 
L 316.748715 136.316145 
L 319.656798 133.478526 
L 322.901419 131.000672 
L 324.853339 129.895683 
L 328.765097 127.807184 
L 330.718996 126.474033 
L 332.672896 124.848087 
L 334.622836 123.008775 
L 339.177975 118.437749 
L 341.135834 116.772868 
L 344.41015 114.432067 
L 350.978578 110.36253 
L 352.950294 108.752158 
L 356.236487 105.660681 
L 358.867422 103.075365 
L 362.165493 100.111596 
L 363.485909 99.10706 
L 364.810285 98.456838 
L 366.793879 97.989612 
L 368.114295 97.870469 
L 370.084032 98.001901 
L 372.356652 98.279219 
L 375.221183 98.243581 
L 378.897365 97.976605 
L 380.65924 98.300646 
L 383.179315 99.228867 
L 384.766982 100.050406 
L 386.270514 100.8626 
L 387.679024 101.27629 
L 389.196414 101.384604 
L 390.755377 101.212703 
L 391.462106 100.966436 
L 392.121324 100.36683 
L 392.877545 99.293768 
L 393.563488 98.124146 
L 394.293479 96.390738 
L 395.025943 94.197892 
L 396.399067 88.697087 
L 397.053584 84.365904 
L 397.71039 76.367777 
L 398.208021 73.912201 
L 398.487273 74.839352 
L 398.325902 90.308894 
L 398.326304 89.935345 
L 397.741414 91.181803 
L 397.083805 94.197357 
L 396.40479 96.697258 
L 395.720331 95.068197 
L 394.370839 94.137445 
L 393.674997 94.335529 
L 392.369181 93.713316 
L 391.695858 92.2033 
L 391.026246 95.088809 
L 390.362079 97.354854 
L 389.674156 97.665961 
L 388.338645 96.714475 
L 387.649732 96.580707 
L 386.979626 97.054844 
L 386.314221 96.613243 
L 385.643248 98.369038 
L 384.967079 101.520866 
L 384.294251 102.897235 
L 383.642085 103.226434 
L 382.313008 102.869518 
L 381.661461 103.09162 
L 381.004964 103.636522 
L 379.011349 106.099484 
L 376.994348 107.447576 
L 375.66057 109.593992 
L 374.982297 110.679124 
L 374.307242 111.307518 
L 372.975195 110.847715 
L 372.325875 111.039727 
L 371.664677 111.529049 
L 371.002613 112.273204 
L 370.3283 113.930298 
L 369.666607 114.629616 
L 369.016297 114.859262 
L 368.359058 114.911168 
L 367.708996 115.169067 
L 367.039632 115.830483 
L 365.720577 117.532158 
L 365.053316 117.951567 
L 363.699493 119.094591 
L 362.386006 119.949906 
L 361.730499 120.859634 
L 360.401917 121.534775 
L 359.734935 122.233983 
L 359.067303 123.172718 
L 357.754063 124.145083 
L 355.765025 125.748835 
L 355.091207 126.471186 
L 351.771359 128.764145 
L 350.428672 130.26102 
L 349.122856 131.054428 
L 348.472298 131.606046 
L 347.796748 132.396436 
L 347.125404 132.764839 
L 345.106177 134.504379 
L 344.426667 134.757788 
L 343.075814 135.88334 
L 342.426741 136.021147 
L 341.068465 136.919255 
L 339.708703 138.236929 
L 339.058641 138.739976 
L 337.752577 139.346822 
L 333.167232 143.145075 
L 331.816627 144.574008 
L 331.155924 144.888838 
L 330.488787 144.870173 
L 329.830806 145.091801 
L 328.485891 146.767779 
L 325.83083 148.516724 
L 325.152558 148.804409 
L 323.819769 150.533339 
L 323.142239 151.039646 
L 322.490444 151.164909 
L 321.838897 151.804035 
L 321.18537 152.24936 
L 319.853571 152.718204 
L 319.176041 153.284812 
L 318.497026 153.483018 
L 316.483614 156.180469 
L 315.82786 156.929271 
L 313.832141 157.110966 
L 312.491681 158.090802 
L 311.826523 158.843424 
L 311.150246 159.123261 
L 310.493007 159.548242 
L 309.171354 160.14825 
L 308.519312 160.714469 
L 307.869497 161.5107 
L 307.189987 161.762028 
L 304.478877 163.396613 
L 303.128767 164.517565 
L 302.449752 164.830315 
L 301.092465 165.96324 
L 299.745323 167.340583 
L 298.418226 168.290365 
L 297.767174 168.669889 
L 297.115379 168.746032 
L 295.816244 169.52782 
L 293.830577 171.085264 
L 293.168389 171.39631 
L 291.185538 172.841205 
L 289.837407 173.937629 
L 288.534312 174.710614 
L 285.903378 175.879822 
L 285.230054 176.49364 
L 283.882913 177.947491 
L 282.55928 179.08976 
L 281.899567 179.249962 
L 281.240596 179.199303 
L 280.561334 179.569141 
L 279.890732 180.29704 
L 277.23015 182.405895 
L 275.902062 183.12299 
L 271.310052 186.41445 
L 270.009432 187.418693 
L 268.701884 188.167666 
L 266.721754 189.339532 
L 266.072929 189.830655 
L 264.050485 191.789596 
L 263.398937 192.033187 
L 262.090816 192.763671 
L 260.76706 193.204196 
L 260.097448 194.029044 
L 259.422888 194.378301 
L 258.064363 195.429511 
L 256.733554 195.933159 
L 256.066912 196.457134 
L 254.733009 197.280595 
L 254.079977 197.808268 
L 251.387427 198.8328 
L 250.710392 199.638181 
L 249.364735 200.764633 
L 247.324227 201.431677 
L 245.995567 202.208038 
L 245.34501 202.931849 
L 243.346197 203.966097 
L 242.019471 205.0148 
L 240.02004 206.175004 
L 239.364781 206.548931 
L 238.016155 207.618781 
L 237.345801 207.971293 
L 236.665549 208.02357 
L 235.364434 208.68405 
L 234.036347 209.865352 
L 232.732015 210.65034 
L 232.078488 210.9156 
L 230.75139 212.033438 
L 230.07782 212.631 
L 229.400568 212.950655 
L 228.751495 213.387511 
L 228.100196 213.425436 
L 226.797349 214.171288 
L 224.789999 215.870919 
L 224.116676 216.14348 
L 222.782773 217.112049 
L 222.107965 217.25409 
L 220.777651 217.976879 
L 220.127588 218.059386 
L 218.175669 219.215696 
L 217.525606 219.702974 
L 216.168566 221.124314 
L 214.809795 221.604005 
L 213.466767 222.408287 
L 211.471172 223.998023 
L 210.800076 223.828666 
L 209.4611 224.175685 
L 208.783818 224.806342 
L 207.45771 226.626187 
L 206.788346 227.009479 
L 206.110321 227.17093 
L 204.802525 227.124104 
L 202.820671 228.364711 
L 202.167639 228.572626 
L 201.51436 229.14196 
L 200.862565 229.379874 
L 198.837894 230.97657 
L 198.160858 231.143217 
L 197.481194 231.6832 
L 196.177357 232.139016 
L 195.528037 232.577916 
L 194.876985 233.245563 
L 194.224448 233.313113 
L 193.57488 233.783502 
L 192.229718 234.344468 
L 191.567036 234.690118 
L 190.905838 235.374701 
L 189.5681 236.117544 
L 188.246694 236.626489 
L 187.593414 236.733132 
L 186.924545 237.050286 
L 186.270152 237.771371 
L 185.606851 238.310385 
L 182.962801 239.547304 
L 181.001818 240.583715 
L 180.322804 241.277886 
L 179.643294 241.704023 
L 178.991499 241.947801 
L 177.685683 242.794453 
L 177.033641 242.997405 
L 175.702831 244.287775 
L 175.053511 244.647539 
L 174.397015 244.83915 
L 173.741756 244.873021 
L 173.063978 245.096678 
L 172.387191 245.737361 
L 171.731684 245.949432 
L 171.072218 246.038713 
L 169.744378 246.524677 
L 169.085779 246.939209 
L 168.436706 247.77389 
L 167.774642 248.809963 
L 167.117403 249.218323 
L 166.438884 249.38128 
L 165.110796 249.198718 
L 164.456163 249.327532 
L 163.78383 249.952739 
L 163.115456 250.398696 
L 162.444855 251.295186 
L 161.131367 252.202769 
L 160.465467 252.209692 
L 159.805259 252.465924 
L 159.154702 252.591327 
L 157.145125 254.428303 
L 155.809367 254.568913 
L 155.154108 254.477579 
L 154.499838 254.626884 
L 153.141809 255.655876 
L 150.47685 257.473166 
L 149.806001 258.068976 
L 148.500045 258.87199 
L 147.175917 258.945269 
L 145.207418 260.06116 
L 144.558345 260.750708 
L 143.200316 261.576967 
L 142.523033 261.790921 
L 141.874208 262.361618 
L 141.208803 262.536674 
L 140.533995 262.919361 
L 139.862899 263.026742 
L 139.204671 263.519373 
L 138.526151 263.620469 
L 137.197445 264.862706 
L 135.856985 265.700537 
L 135.188611 265.796811 
L 134.524443 265.778639 
L 133.874628 265.912315 
L 133.202295 266.455173 
L 132.533673 266.605496 
L 131.865156 267.020893 
L 131.19505 267.654471 
L 130.520489 268.021438 
L 128.487157 268.57308 
L 127.809379 268.847868 
L 127.15709 269.418467 
L 125.158896 270.462048 
L 123.823385 270.719215 
L 123.154392 271.568885 
L 122.479337 271.946364 
L 121.826057 272.127994 
L 121.168819 272.629385 
L 120.51059 272.819803 
L 119.858053 272.814583 
L 118.499776 274.002748 
L 117.818782 274.243904 
L 117.168225 274.904931 
L 116.509006 275.197775 
L 115.849857 275.140188 
L 115.175544 275.332414 
L 113.858964 276.302394 
L 113.187125 277.116048 
L 111.867451 276.937099 
L 111.193138 277.080375 
L 110.539488 277.471379 
L 109.881878 278.734105 
L 109.223402 279.524666 
L 108.551811 278.960491 
L 107.874033 278.754911 
L 107.210113 278.804776 
L 106.539759 278.605741 
L 105.878314 280.649854 
L 105.207465 281.790348 
L 104.524491 281.238437 
L 103.871954 280.964916 
L 103.201353 281.050586 
L 102.52803 280.650025 
L 101.209841 284.019064 
L 99.863527 283.322023 
L 98.525541 282.861639 
L 97.859518 282.774301 
L 97.203021 284.623542 
L 96.539225 285.073071 
L 95.191589 284.784084 
L 94.530638 285.198844 
L 93.866223 285.243675 
L 92.55719 287.773331 
L 91.878175 287.074682 
L 91.224401 286.694331 
L 90.55479 286.650018 
L 89.884436 286.741714 
L 89.20938 287.492427 
L 88.537913 290.031781 
L 87.874983 288.930588 
L 87.220714 288.940227 
L 86.542441 288.793909 
L 85.88743 288.840297 
L 85.213735 289.102576 
L 84.545609 292.219313 
L 83.894556 290.752419 
L 83.227196 290.232453 
L 81.9194 289.882106 
L 81.265626 289.802093 
L 80.588591 294.398816 
L 79.912422 293.156799 
L 79.227963 292.477764 
L 78.551423 292.264495 
L 77.870676 292.180431 
L 77.195002 291.254545 
L 76.534052 295.488 
L 75.882752 295.035424 
L 75.208315 293.507985 
L 74.213672 292.4449 
L 73.884929 291.031323 
L 73.832727 294.023506 
L 73.833315 293.997614 
" clip-path="url(#pd9929d99cc)" style="fill: none; stroke: #ff0000; stroke-width: 1.5; stroke-linecap: square"/>
   </g>
   <g id="line2d_17">
    <path d="M 73.982622 287.117895 
L 73.983825 286.522127 
L 73.982622 287.434283 
L 73.981662 286.834002 
L 75.36407 263.23027 
L 76.076243 261.788879 
L 76.752289 260.905627 
L 77.407548 257.628816 
L 78.157829 252.265064 
L 78.837834 248.614473 
L 79.592075 282.177278 
L 80.424511 281.148311 
L 81.097587 281.128843 
L 82.561527 283.016434 
L 83.345462 283.61604 
L 84.159092 283.667435 
L 85.004396 283.170618 
L 86.780128 281.220267 
L 89.323959 278.004975 
L 89.991095 277.450533 
L 90.672089 277.088239 
L 92.065752 276.70745 
L 92.77842 276.330554 
L 95.726096 273.961666 
L 98.776713 272.055385 
L 100.320828 270.435669 
L 101.866923 268.80583 
L 103.414997 268.259445 
L 104.963071 267.596763 
L 105.739088 267.517968 
L 106.515107 267.736006 
L 107.291124 268.37922 
L 108.065161 269.562859 
L 109.613235 273.132464 
L 111.143493 276.533868 
L 111.899713 277.764229 
L 112.651974 278.57253 
L 113.396317 278.897252 
L 114.132741 278.74005 
L 114.863226 278.137329 
L 115.587772 277.093858 
L 116.30638 275.604965 
L 119.836068 266.765053 
L 120.534879 265.668629 
L 121.231711 264.891477 
L 121.928542 264.35261 
L 123.314286 263.688371 
L 124.694092 263.479677 
L 126.065979 263.304759 
L 127.429947 262.901777 
L 128.784017 262.247661 
L 130.130169 261.266486 
L 132.796736 258.942816 
L 134.117153 257.815244 
L 135.429651 256.953213 
L 139.004867 255.219026 
L 139.970929 254.473022 
L 141.895133 252.468624 
L 143.81142 250.291351 
L 145.721767 248.525238 
L 146.673971 247.88436 
L 151.438952 245.323185 
L 153.343361 243.965894 
L 155.248759 242.43955 
L 157.155147 241.243452 
L 159.059556 240.378306 
L 162.864413 238.722769 
L 163.812658 238.099801 
L 166.659373 235.649981 
L 169.510047 233.271801 
L 171.412476 232.033653 
L 174.273048 230.550211 
L 180.000131 227.473529 
L 185.739092 223.929621 
L 187.655378 222.443843 
L 190.541686 220.099927 
L 193.439871 218.067495 
L 195.379913 216.980416 
L 197.327873 216.267118 
L 199.279793 215.531238 
L 201.883012 214.312557 
L 205.143471 212.442096 
L 212.992722 207.287038 
L 216.934175 205.068494 
L 221.538805 202.644371 
L 224.169739 200.699155 
L 232.07838 194.888423 
L 237.371923 191.511938 
L 244.662917 187.661218 
L 247.309689 186.267328 
L 249.291303 185.032295 
L 251.266978 183.493564 
L 253.240674 181.967293 
L 255.21239 180.754064 
L 258.490665 179.141356 
L 260.448524 178.268422 
L 262.398464 177.043512 
L 268.852073 172.684295 
L 270.772319 171.418113 
L 272.686625 169.852907 
L 276.501381 166.460848 
L 280.306239 163.193382 
L 283.162852 161.190541 
L 287.921894 158.262592 
L 291.726751 155.25833 
L 301.282448 147.189341 
L 303.210612 145.888896 
L 308.0429 143.282554 
L 311.911106 140.731501 
L 313.845209 139.133589 
L 316.748715 136.316145 
L 319.656798 133.478526 
L 322.901419 131.000672 
L 324.853339 129.895683 
L 328.765097 127.807184 
L 330.718996 126.474033 
L 332.672896 124.848087 
L 334.622836 123.008775 
L 339.177975 118.437749 
L 341.135834 116.772868 
L 344.41015 114.432067 
L 350.978578 110.36253 
L 352.950294 108.752158 
L 356.236487 105.660681 
L 358.867422 103.075365 
L 362.165493 100.111596 
L 363.485909 99.10706 
L 364.810285 98.456838 
L 367.455077 97.792383 
L 368.771534 97.524823 
L 370.735331 97.438484 
L 373.320734 97.372549 
L 375.221183 97.077442 
L 378.897365 96.323384 
L 380.65924 96.203949 
L 381.516422 96.194605 
L 383.179315 95.736723 
L 385.531121 94.880921 
L 386.270514 94.481443 
L 386.987142 93.919994 
L 389.196414 91.429169 
L 390.755377 89.578371 
L 391.462106 88.565854 
L 392.121324 87.17352 
L 393.563488 83.258168 
L 394.293479 80.688426 
L 395.025943 77.640556 
L 396.399067 70.431262 
L 397.053584 65.312025 
L 397.71039 56.609944 
L 398.208021 53.568 
L 398.487273 53.830133 
L 398.368402 56.735572 
L 398.325902 90.308894 
L 398.326304 89.935345 
L 397.741414 91.181803 
L 397.083805 94.197357 
L 396.40479 96.697258 
L 395.720331 95.068197 
L 394.370839 94.137445 
L 393.674997 94.335529 
L 392.369181 93.713316 
L 391.695858 92.2033 
L 391.026246 95.088809 
L 390.362079 97.354854 
L 389.674156 97.665961 
L 388.338645 96.714475 
L 387.649732 96.580707 
L 386.979626 97.054844 
L 386.314221 96.613243 
L 385.643248 98.369038 
L 384.967079 101.520866 
L 384.294251 102.897235 
L 383.642085 103.226434 
L 382.313008 102.869518 
L 381.661461 103.09162 
L 381.004964 103.636522 
L 379.011349 106.099484 
L 376.994348 107.447576 
L 375.66057 109.593992 
L 374.982297 110.679124 
L 374.307242 111.307518 
L 372.975195 110.847715 
L 372.325875 111.039727 
L 371.664677 111.529049 
L 371.002613 112.273204 
L 370.3283 113.930298 
L 369.666607 114.629616 
L 369.016297 114.859262 
L 368.359058 114.911168 
L 367.708996 115.169067 
L 367.039632 115.830483 
L 365.720577 117.532158 
L 365.053316 117.951567 
L 363.699493 119.094591 
L 362.386006 119.949906 
L 361.730499 120.859634 
L 360.401917 121.534775 
L 359.734935 122.233983 
L 359.067303 123.172718 
L 357.754063 124.145083 
L 355.765025 125.748835 
L 355.091207 126.471186 
L 351.771359 128.764145 
L 350.428672 130.26102 
L 349.122856 131.054428 
L 348.472298 131.606046 
L 347.796748 132.396436 
L 347.125404 132.764839 
L 345.106177 134.504379 
L 344.426667 134.757788 
L 343.075814 135.88334 
L 342.426741 136.021147 
L 341.068465 136.919255 
L 339.708703 138.236929 
L 339.058641 138.739976 
L 337.752577 139.346822 
L 333.167232 143.145075 
L 331.816627 144.574008 
L 331.155924 144.888838 
L 330.488787 144.870173 
L 329.830806 145.091801 
L 328.485891 146.767779 
L 325.83083 148.516724 
L 325.152558 148.804409 
L 323.819769 150.533339 
L 323.142239 151.039646 
L 322.490444 151.164909 
L 321.838897 151.804035 
L 321.18537 152.24936 
L 319.853571 152.718204 
L 319.176041 153.284812 
L 318.497026 153.483018 
L 316.483614 156.180469 
L 315.82786 156.929271 
L 313.832141 157.110966 
L 312.491681 158.090802 
L 311.826523 158.843424 
L 311.150246 159.123261 
L 310.493007 159.548242 
L 309.171354 160.14825 
L 308.519312 160.714469 
L 307.869497 161.5107 
L 307.189987 161.762028 
L 304.478877 163.396613 
L 303.128767 164.517565 
L 302.449752 164.830315 
L 301.092465 165.96324 
L 299.745323 167.340583 
L 298.418226 168.290365 
L 297.767174 168.669889 
L 297.115379 168.746032 
L 295.816244 169.52782 
L 293.830577 171.085264 
L 293.168389 171.39631 
L 291.185538 172.841205 
L 289.837407 173.937629 
L 288.534312 174.710614 
L 285.903378 175.879822 
L 285.230054 176.49364 
L 283.882913 177.947491 
L 282.55928 179.08976 
L 281.899567 179.249962 
L 281.240596 179.199303 
L 280.561334 179.569141 
L 279.890732 180.29704 
L 277.23015 182.405895 
L 275.902062 183.12299 
L 271.310052 186.41445 
L 270.009432 187.418693 
L 268.701884 188.167666 
L 266.721754 189.339532 
L 266.072929 189.830655 
L 264.050485 191.789596 
L 263.398937 192.033187 
L 262.090816 192.763671 
L 260.76706 193.204196 
L 260.097448 194.029044 
L 259.422888 194.378301 
L 258.064363 195.429511 
L 256.733554 195.933159 
L 256.066912 196.457134 
L 254.733009 197.280595 
L 254.079977 197.808268 
L 251.387427 198.8328 
L 250.710392 199.638181 
L 249.364735 200.764633 
L 247.324227 201.431677 
L 245.995567 202.208038 
L 245.34501 202.931849 
L 243.346197 203.966097 
L 242.019471 205.0148 
L 240.02004 206.175004 
L 239.364781 206.548931 
L 238.016155 207.618781 
L 237.345801 207.971293 
L 236.665549 208.02357 
L 235.364434 208.68405 
L 234.036347 209.865352 
L 232.732015 210.65034 
L 232.078488 210.9156 
L 230.75139 212.033438 
L 230.07782 212.631 
L 229.400568 213.826804 
L 228.751495 214.262954 
L 228.100196 214.272993 
L 226.797349 214.978595 
L 224.789999 216.569791 
L 224.116676 216.745207 
L 222.782773 217.523966 
L 222.107965 217.598649 
L 220.777651 218.194118 
L 220.127588 218.208098 
L 218.175669 219.215696 
L 217.525606 219.702974 
L 216.168566 221.124314 
L 214.809795 221.604005 
L 213.466767 222.408287 
L 211.471172 223.998023 
L 210.800076 223.828666 
L 209.4611 224.175685 
L 208.783818 224.806342 
L 207.45771 226.626187 
L 206.788346 227.009479 
L 206.110321 227.17093 
L 204.802525 227.124104 
L 202.820671 228.364711 
L 202.167639 228.572626 
L 201.51436 229.14196 
L 200.862565 229.379874 
L 198.837894 230.97657 
L 198.160858 231.143217 
L 197.481194 231.6832 
L 196.177357 232.139016 
L 195.528037 232.577916 
L 194.876985 233.245563 
L 194.224448 233.313113 
L 193.57488 233.783502 
L 192.229718 234.344468 
L 191.567036 234.690118 
L 190.905838 235.374701 
L 189.5681 236.117544 
L 188.246694 236.626489 
L 187.593414 236.733132 
L 186.924545 237.050286 
L 186.270152 237.771371 
L 185.606851 238.310385 
L 182.962801 239.547304 
L 181.001818 240.583715 
L 180.322804 241.277886 
L 179.643294 241.704023 
L 178.991499 241.947801 
L 177.685683 242.794453 
L 177.033641 242.997405 
L 175.702831 244.287775 
L 175.053511 244.647539 
L 174.397015 244.83915 
L 173.741756 244.873021 
L 173.063978 245.096678 
L 172.387191 245.737361 
L 171.731684 245.949432 
L 171.072218 246.038713 
L 169.744378 246.524677 
L 169.085779 246.939209 
L 168.436706 247.77389 
L 167.774642 248.809963 
L 167.117403 249.218323 
L 166.438884 249.38128 
L 165.110796 249.198718 
L 164.456163 249.327532 
L 163.78383 249.952739 
L 163.115456 250.398696 
L 162.444855 251.295186 
L 161.131367 252.202769 
L 160.465467 252.209692 
L 159.805259 252.465924 
L 159.154702 252.591327 
L 157.145125 254.428303 
L 155.809367 254.568913 
L 155.154108 254.477579 
L 154.499838 254.626884 
L 153.141809 255.655876 
L 150.47685 257.473166 
L 149.806001 258.068976 
L 148.500045 258.87199 
L 147.175917 258.945269 
L 145.207418 260.06116 
L 144.558345 260.750708 
L 143.200316 261.576967 
L 142.523033 261.790921 
L 141.874208 262.361618 
L 141.208803 262.536674 
L 140.533995 262.919361 
L 139.862899 263.026742 
L 139.204671 263.519373 
L 138.526151 263.620469 
L 137.197445 264.862706 
L 135.856985 265.700537 
L 135.188611 265.796811 
L 134.524443 265.778639 
L 133.874628 265.912315 
L 133.202295 266.455173 
L 132.533673 266.605496 
L 131.865156 267.020893 
L 131.19505 267.654471 
L 130.520489 268.021438 
L 128.487157 268.57308 
L 127.809379 268.847868 
L 127.15709 269.418467 
L 125.158896 270.462048 
L 123.823385 270.719215 
L 123.154392 271.568885 
L 122.479337 271.946364 
L 121.826057 272.127994 
L 121.168819 272.629385 
L 120.51059 272.819803 
L 119.858053 272.814583 
L 118.499776 274.002748 
L 117.818782 274.243904 
L 117.168225 274.904931 
L 116.509006 275.197775 
L 115.849857 275.140188 
L 115.175544 275.332414 
L 113.858964 276.302394 
L 113.187125 277.116048 
L 111.867451 276.937099 
L 111.193138 277.080375 
L 110.539488 277.471379 
L 109.881878 278.734105 
L 109.223402 279.524666 
L 108.551811 278.960491 
L 107.874033 278.754911 
L 107.210113 278.804776 
L 106.539759 278.605741 
L 105.878314 280.649854 
L 105.207465 281.790348 
L 104.524491 281.238437 
L 103.871954 280.964916 
L 103.201353 281.050586 
L 102.52803 280.650025 
L 101.209841 284.019064 
L 99.863527 283.322023 
L 98.525541 282.861639 
L 97.859518 282.774301 
L 97.203021 284.623542 
L 96.539225 285.073071 
L 95.191589 284.784084 
L 94.530638 285.198844 
L 93.866223 285.243675 
L 92.55719 287.773331 
L 91.878175 287.074682 
L 91.224401 286.694331 
L 90.55479 286.650018 
L 89.884436 286.741714 
L 89.20938 287.492427 
L 88.537913 290.031781 
L 87.874983 288.930588 
L 87.220714 288.940227 
L 86.542441 288.793909 
L 85.88743 288.840297 
L 85.213735 289.102576 
L 84.545609 292.219313 
L 83.894556 290.752419 
L 83.227196 290.232453 
L 81.9194 289.882106 
L 81.265626 289.802093 
L 80.588591 294.398816 
L 79.912422 293.156799 
L 79.227963 292.477764 
L 78.551423 292.264495 
L 77.870676 292.180431 
L 77.195002 291.254545 
L 76.534052 295.488 
L 75.882752 295.035424 
L 75.208315 293.507985 
L 74.213672 292.4449 
L 73.884929 291.031323 
L 73.832727 294.023506 
L 73.833315 293.997614 
" clip-path="url(#pd9929d99cc)" style="fill: none; stroke: #000000; stroke-width: 1.5; stroke-linecap: square"/>
   </g>
   <g id="patch_3">
    <path d="M 57.6 307.584 
L 57.6 41.472 
" style="fill: none; stroke: #000000; stroke-width: 0.8; stroke-linejoin: miter; stroke-linecap: square"/>
   </g>
   <g id="patch_4">
    <path d="M 414.72 307.584 
L 414.72 41.472 
" style="fill: none; stroke: #000000; stroke-width: 0.8; stroke-linejoin: miter; stroke-linecap: square"/>
   </g>
   <g id="patch_5">
    <path d="M 57.6 307.584 
L 414.72 307.584 
" style="fill: none; stroke: #000000; stroke-width: 0.8; stroke-linejoin: miter; stroke-linecap: square"/>
   </g>
   <g id="patch_6">
    <path d="M 57.6 41.472 
L 414.72 41.472 
" style="fill: none; stroke: #000000; stroke-width: 0.8; stroke-linejoin: miter; stroke-linecap: square"/>
   </g>
   <g id="text_18">
    <!-- 2025-06-18 trial 6 -->
    <g transform="translate(181.83 35.472) scale(0.12 -0.12)">
     <defs>
      <path id="DejaVuSans-2d" d="M 313 2009 
L 1997 2009 
L 1997 1497 
L 313 1497 
L 313 2009 
z
" transform="scale(0.015625)"/>
      <path id="DejaVuSans-36" d="M 2113 2584 
Q 1688 2584 1439 2293 
Q 1191 2003 1191 1497 
Q 1191 994 1439 701 
Q 1688 409 2113 409 
Q 2538 409 2786 701 
Q 3034 994 3034 1497 
Q 3034 2003 2786 2293 
Q 2538 2584 2113 2584 
z
M 3366 4563 
L 3366 3988 
Q 3128 4100 2886 4159 
Q 2644 4219 2406 4219 
Q 1781 4219 1451 3797 
Q 1122 3375 1075 2522 
Q 1259 2794 1537 2939 
Q 1816 3084 2150 3084 
Q 2853 3084 3261 2657 
Q 3669 2231 3669 1497 
Q 3669 778 3244 343 
Q 2819 -91 2113 -91 
Q 1303 -91 875 529 
Q 447 1150 447 2328 
Q 447 3434 972 4092 
Q 1497 4750 2381 4750 
Q 2619 4750 2861 4703 
Q 3103 4656 3366 4563 
z
" transform="scale(0.015625)"/>
      <path id="DejaVuSans-38" d="M 2034 2216 
Q 1584 2216 1326 1975 
Q 1069 1734 1069 1313 
Q 1069 891 1326 650 
Q 1584 409 2034 409 
Q 2484 409 2743 651 
Q 3003 894 3003 1313 
Q 3003 1734 2745 1975 
Q 2488 2216 2034 2216 
z
M 1403 2484 
Q 997 2584 770 2862 
Q 544 3141 544 3541 
Q 544 4100 942 4425 
Q 1341 4750 2034 4750 
Q 2731 4750 3128 4425 
Q 3525 4100 3525 3541 
Q 3525 3141 3298 2862 
Q 3072 2584 2669 2484 
Q 3125 2378 3379 2068 
Q 3634 1759 3634 1313 
Q 3634 634 3220 271 
Q 2806 -91 2034 -91 
Q 1263 -91 848 271 
Q 434 634 434 1313 
Q 434 1759 690 2068 
Q 947 2378 1403 2484 
z
M 1172 3481 
Q 1172 3119 1398 2916 
Q 1625 2713 2034 2713 
Q 2441 2713 2670 2916 
Q 2900 3119 2900 3481 
Q 2900 3844 2670 4047 
Q 2441 4250 2034 4250 
Q 1625 4250 1398 4047 
Q 1172 3844 1172 3481 
z
" transform="scale(0.015625)"/>
      <path id="DejaVuSans-6c" d="M 603 4863 
L 1178 4863 
L 1178 0 
L 603 0 
L 603 4863 
z
" transform="scale(0.015625)"/>
     </defs>
     <use xlink:href="#DejaVuSans-32"/>
     <use xlink:href="#DejaVuSans-30" transform="translate(63.623047 0)"/>
     <use xlink:href="#DejaVuSans-32" transform="translate(127.246094 0)"/>
     <use xlink:href="#DejaVuSans-35" transform="translate(190.869141 0)"/>
     <use xlink:href="#DejaVuSans-2d" transform="translate(254.492188 0)"/>
     <use xlink:href="#DejaVuSans-30" transform="translate(290.576172 0)"/>
     <use xlink:href="#DejaVuSans-36" transform="translate(354.199219 0)"/>
     <use xlink:href="#DejaVuSans-2d" transform="translate(417.822266 0)"/>
     <use xlink:href="#DejaVuSans-31" transform="translate(453.90625 0)"/>
     <use xlink:href="#DejaVuSans-38" transform="translate(517.529297 0)"/>
     <use xlink:href="#DejaVuSans-20" transform="translate(581.152344 0)"/>
     <use xlink:href="#DejaVuSans-74" transform="translate(612.939453 0)"/>
     <use xlink:href="#DejaVuSans-72" transform="translate(652.148438 0)"/>
     <use xlink:href="#DejaVuSans-69" transform="translate(693.261719 0)"/>
     <use xlink:href="#DejaVuSans-61" transform="translate(721.044922 0)"/>
     <use xlink:href="#DejaVuSans-6c" transform="translate(782.324219 0)"/>
     <use xlink:href="#DejaVuSans-20" transform="translate(810.107422 0)"/>
     <use xlink:href="#DejaVuSans-36" transform="translate(841.894531 0)"/>
    </g>
   </g>
  </g>
 </g>
 <defs>
  <clipPath id="pd9929d99cc">
   <rect x="57.6" y="41.472" width="357.12" height="266.112"/>
  </clipPath>
 </defs>
</svg>
