<?xml version="1.0" encoding="utf-8" standalone="no"?>
<!DOCTYPE svg PUBLIC "-//W3C//DTD SVG 1.1//EN"
  "http://www.w3.org/Graphics/SVG/1.1/DTD/svg11.dtd">
<svg xmlns:xlink="http://www.w3.org/1999/xlink" width="460.8pt" height="345.6pt" viewBox="0 0 460.8 345.6" xmlns="http://www.w3.org/2000/svg" version="1.1">
 <metadata>
  <rdf:RDF xmlns:dc="http://purl.org/dc/elements/1.1/" xmlns:cc="http://creativecommons.org/ns#" xmlns:rdf="http://www.w3.org/1999/02/22-rdf-syntax-ns#">
   <cc:Work>
    <dc:type rdf:resource="http://purl.org/dc/dcmitype/StillImage"/>
    <dc:date>2025-07-16T22:12:06.724021</dc:date>
    <dc:format>image/svg+xml</dc:format>
    <dc:creator>
     <cc:Agent>
      <dc:title>Matplotlib v3.10.3, https://matplotlib.org/</dc:title>
     </cc:Agent>
    </dc:creator>
   </cc:Work>
  </rdf:RDF>
 </metadata>
 <defs>
  <style type="text/css">*{stroke-linejoin: round; stroke-linecap: butt}</style>
 </defs>
 <g id="figure_1">
  <g id="patch_1">
   <path d="M 0 345.6 
L 460.8 345.6 
L 460.8 0 
L 0 0 
z
" style="fill: #ffffff"/>
  </g>
  <g id="axes_1">
   <g id="patch_2">
    <path d="M 57.6 307.584 
L 414.72 307.584 
L 414.72 41.472 
L 57.6 41.472 
z
" style="fill: #ffffff"/>
   </g>
   <g id="matplotlib.axis_1">
    <g id="xtick_1">
     <g id="line2d_1">
      <defs>
       <path id="mef34245a1b" d="M 0 0 
L 0 3.5 
" style="stroke: #000000; stroke-width: 0.8"/>
      </defs>
      <g>
       <use xlink:href="#mef34245a1b" x="73.93634" y="307.584" style="stroke: #000000; stroke-width: 0.8"/>
      </g>
     </g>
     <g id="text_1">
      <!-- 0.00 -->
      <g transform="translate(62.803528 322.182437) scale(0.1 -0.1)">
       <defs>
        <path id="DejaVuSans-30" d="M 2034 4250 
Q 1547 4250 1301 3770 
Q 1056 3291 1056 2328 
Q 1056 1369 1301 889 
Q 1547 409 2034 409 
Q 2525 409 2770 889 
Q 3016 1369 3016 2328 
Q 3016 3291 2770 3770 
Q 2525 4250 2034 4250 
z
M 2034 4750 
Q 2819 4750 3233 4129 
Q 3647 3509 3647 2328 
Q 3647 1150 3233 529 
Q 2819 -91 2034 -91 
Q 1250 -91 836 529 
Q 422 1150 422 2328 
Q 422 3509 836 4129 
Q 1250 4750 2034 4750 
z
" transform="scale(0.015625)"/>
        <path id="DejaVuSans-2e" d="M 684 794 
L 1344 794 
L 1344 0 
L 684 0 
L 684 794 
z
" transform="scale(0.015625)"/>
       </defs>
       <use xlink:href="#DejaVuSans-30"/>
       <use xlink:href="#DejaVuSans-2e" transform="translate(63.623047 0)"/>
       <use xlink:href="#DejaVuSans-30" transform="translate(95.410156 0)"/>
       <use xlink:href="#DejaVuSans-30" transform="translate(159.033203 0)"/>
      </g>
     </g>
    </g>
    <g id="xtick_2">
     <g id="line2d_2">
      <g>
       <use xlink:href="#mef34245a1b" x="138.816297" y="307.584" style="stroke: #000000; stroke-width: 0.8"/>
      </g>
     </g>
     <g id="text_2">
      <!-- 0.05 -->
      <g transform="translate(127.683484 322.182437) scale(0.1 -0.1)">
       <defs>
        <path id="DejaVuSans-35" d="M 691 4666 
L 3169 4666 
L 3169 4134 
L 1269 4134 
L 1269 2991 
Q 1406 3038 1543 3061 
Q 1681 3084 1819 3084 
Q 2600 3084 3056 2656 
Q 3513 2228 3513 1497 
Q 3513 744 3044 326 
Q 2575 -91 1722 -91 
Q 1428 -91 1123 -41 
Q 819 9 494 109 
L 494 744 
Q 775 591 1075 516 
Q 1375 441 1709 441 
Q 2250 441 2565 725 
Q 2881 1009 2881 1497 
Q 2881 1984 2565 2268 
Q 2250 2553 1709 2553 
Q 1456 2553 1204 2497 
Q 953 2441 691 2322 
L 691 4666 
z
" transform="scale(0.015625)"/>
       </defs>
       <use xlink:href="#DejaVuSans-30"/>
       <use xlink:href="#DejaVuSans-2e" transform="translate(63.623047 0)"/>
       <use xlink:href="#DejaVuSans-30" transform="translate(95.410156 0)"/>
       <use xlink:href="#DejaVuSans-35" transform="translate(159.033203 0)"/>
      </g>
     </g>
    </g>
    <g id="xtick_3">
     <g id="line2d_3">
      <g>
       <use xlink:href="#mef34245a1b" x="203.696253" y="307.584" style="stroke: #000000; stroke-width: 0.8"/>
      </g>
     </g>
     <g id="text_3">
      <!-- 0.10 -->
      <g transform="translate(192.563441 322.182437) scale(0.1 -0.1)">
       <defs>
        <path id="DejaVuSans-31" d="M 794 531 
L 1825 531 
L 1825 4091 
L 703 3866 
L 703 4441 
L 1819 4666 
L 2450 4666 
L 2450 531 
L 3481 531 
L 3481 0 
L 794 0 
L 794 531 
z
" transform="scale(0.015625)"/>
       </defs>
       <use xlink:href="#DejaVuSans-30"/>
       <use xlink:href="#DejaVuSans-2e" transform="translate(63.623047 0)"/>
       <use xlink:href="#DejaVuSans-31" transform="translate(95.410156 0)"/>
       <use xlink:href="#DejaVuSans-30" transform="translate(159.033203 0)"/>
      </g>
     </g>
    </g>
    <g id="xtick_4">
     <g id="line2d_4">
      <g>
       <use xlink:href="#mef34245a1b" x="268.57621" y="307.584" style="stroke: #000000; stroke-width: 0.8"/>
      </g>
     </g>
     <g id="text_4">
      <!-- 0.15 -->
      <g transform="translate(257.443397 322.182437) scale(0.1 -0.1)">
       <use xlink:href="#DejaVuSans-30"/>
       <use xlink:href="#DejaVuSans-2e" transform="translate(63.623047 0)"/>
       <use xlink:href="#DejaVuSans-31" transform="translate(95.410156 0)"/>
       <use xlink:href="#DejaVuSans-35" transform="translate(159.033203 0)"/>
      </g>
     </g>
    </g>
    <g id="xtick_5">
     <g id="line2d_5">
      <g>
       <use xlink:href="#mef34245a1b" x="333.456166" y="307.584" style="stroke: #000000; stroke-width: 0.8"/>
      </g>
     </g>
     <g id="text_5">
      <!-- 0.20 -->
      <g transform="translate(322.323354 322.182437) scale(0.1 -0.1)">
       <defs>
        <path id="DejaVuSans-32" d="M 1228 531 
L 3431 531 
L 3431 0 
L 469 0 
L 469 531 
Q 828 903 1448 1529 
Q 2069 2156 2228 2338 
Q 2531 2678 2651 2914 
Q 2772 3150 2772 3378 
Q 2772 3750 2511 3984 
Q 2250 4219 1831 4219 
Q 1534 4219 1204 4116 
Q 875 4013 500 3803 
L 500 4441 
Q 881 4594 1212 4672 
Q 1544 4750 1819 4750 
Q 2544 4750 2975 4387 
Q 3406 4025 3406 3419 
Q 3406 3131 3298 2873 
Q 3191 2616 2906 2266 
Q 2828 2175 2409 1742 
Q 1991 1309 1228 531 
z
" transform="scale(0.015625)"/>
       </defs>
       <use xlink:href="#DejaVuSans-30"/>
       <use xlink:href="#DejaVuSans-2e" transform="translate(63.623047 0)"/>
       <use xlink:href="#DejaVuSans-32" transform="translate(95.410156 0)"/>
       <use xlink:href="#DejaVuSans-30" transform="translate(159.033203 0)"/>
      </g>
     </g>
    </g>
    <g id="xtick_6">
     <g id="line2d_6">
      <g>
       <use xlink:href="#mef34245a1b" x="398.336123" y="307.584" style="stroke: #000000; stroke-width: 0.8"/>
      </g>
     </g>
     <g id="text_6">
      <!-- 0.25 -->
      <g transform="translate(387.20331 322.182437) scale(0.1 -0.1)">
       <use xlink:href="#DejaVuSans-30"/>
       <use xlink:href="#DejaVuSans-2e" transform="translate(63.623047 0)"/>
       <use xlink:href="#DejaVuSans-32" transform="translate(95.410156 0)"/>
       <use xlink:href="#DejaVuSans-35" transform="translate(159.033203 0)"/>
      </g>
     </g>
    </g>
    <g id="text_7">
     <!-- Strain -->
     <g transform="translate(221.348281 335.860562) scale(0.1 -0.1)">
      <defs>
       <path id="DejaVuSans-53" d="M 3425 4513 
L 3425 3897 
Q 3066 4069 2747 4153 
Q 2428 4238 2131 4238 
Q 1616 4238 1336 4038 
Q 1056 3838 1056 3469 
Q 1056 3159 1242 3001 
Q 1428 2844 1947 2747 
L 2328 2669 
Q 3034 2534 3370 2195 
Q 3706 1856 3706 1288 
Q 3706 609 3251 259 
Q 2797 -91 1919 -91 
Q 1588 -91 1214 -16 
Q 841 59 441 206 
L 441 856 
Q 825 641 1194 531 
Q 1563 422 1919 422 
Q 2459 422 2753 634 
Q 3047 847 3047 1241 
Q 3047 1584 2836 1778 
Q 2625 1972 2144 2069 
L 1759 2144 
Q 1053 2284 737 2584 
Q 422 2884 422 3419 
Q 422 4038 858 4394 
Q 1294 4750 2059 4750 
Q 2388 4750 2728 4690 
Q 3069 4631 3425 4513 
z
" transform="scale(0.015625)"/>
       <path id="DejaVuSans-74" d="M 1172 4494 
L 1172 3500 
L 2356 3500 
L 2356 3053 
L 1172 3053 
L 1172 1153 
Q 1172 725 1289 603 
Q 1406 481 1766 481 
L 2356 481 
L 2356 0 
L 1766 0 
Q 1100 0 847 248 
Q 594 497 594 1153 
L 594 3053 
L 172 3053 
L 172 3500 
L 594 3500 
L 594 4494 
L 1172 4494 
z
" transform="scale(0.015625)"/>
       <path id="DejaVuSans-72" d="M 2631 2963 
Q 2534 3019 2420 3045 
Q 2306 3072 2169 3072 
Q 1681 3072 1420 2755 
Q 1159 2438 1159 1844 
L 1159 0 
L 581 0 
L 581 3500 
L 1159 3500 
L 1159 2956 
Q 1341 3275 1631 3429 
Q 1922 3584 2338 3584 
Q 2397 3584 2469 3576 
Q 2541 3569 2628 3553 
L 2631 2963 
z
" transform="scale(0.015625)"/>
       <path id="DejaVuSans-61" d="M 2194 1759 
Q 1497 1759 1228 1600 
Q 959 1441 959 1056 
Q 959 750 1161 570 
Q 1363 391 1709 391 
Q 2188 391 2477 730 
Q 2766 1069 2766 1631 
L 2766 1759 
L 2194 1759 
z
M 3341 1997 
L 3341 0 
L 2766 0 
L 2766 531 
Q 2569 213 2275 61 
Q 1981 -91 1556 -91 
Q 1019 -91 701 211 
Q 384 513 384 1019 
Q 384 1609 779 1909 
Q 1175 2209 1959 2209 
L 2766 2209 
L 2766 2266 
Q 2766 2663 2505 2880 
Q 2244 3097 1772 3097 
Q 1472 3097 1187 3025 
Q 903 2953 641 2809 
L 641 3341 
Q 956 3463 1253 3523 
Q 1550 3584 1831 3584 
Q 2591 3584 2966 3190 
Q 3341 2797 3341 1997 
z
" transform="scale(0.015625)"/>
       <path id="DejaVuSans-69" d="M 603 3500 
L 1178 3500 
L 1178 0 
L 603 0 
L 603 3500 
z
M 603 4863 
L 1178 4863 
L 1178 4134 
L 603 4134 
L 603 4863 
z
" transform="scale(0.015625)"/>
       <path id="DejaVuSans-6e" d="M 3513 2113 
L 3513 0 
L 2938 0 
L 2938 2094 
Q 2938 2591 2744 2837 
Q 2550 3084 2163 3084 
Q 1697 3084 1428 2787 
Q 1159 2491 1159 1978 
L 1159 0 
L 581 0 
L 581 3500 
L 1159 3500 
L 1159 2956 
Q 1366 3272 1645 3428 
Q 1925 3584 2291 3584 
Q 2894 3584 3203 3211 
Q 3513 2838 3513 2113 
z
" transform="scale(0.015625)"/>
      </defs>
      <use xlink:href="#DejaVuSans-53"/>
      <use xlink:href="#DejaVuSans-74" transform="translate(63.476562 0)"/>
      <use xlink:href="#DejaVuSans-72" transform="translate(102.685547 0)"/>
      <use xlink:href="#DejaVuSans-61" transform="translate(143.798828 0)"/>
      <use xlink:href="#DejaVuSans-69" transform="translate(205.078125 0)"/>
      <use xlink:href="#DejaVuSans-6e" transform="translate(232.861328 0)"/>
     </g>
    </g>
   </g>
   <g id="matplotlib.axis_2">
    <g id="ytick_1">
     <g id="line2d_7">
      <defs>
       <path id="m544e8bbff1" d="M 0 0 
L -3.5 0 
" style="stroke: #000000; stroke-width: 0.8"/>
      </defs>
      <g>
       <use xlink:href="#m544e8bbff1" x="57.6" y="276.651451" style="stroke: #000000; stroke-width: 0.8"/>
      </g>
     </g>
     <g id="text_8">
      <!-- 0 -->
      <g transform="translate(44.2375 280.45067) scale(0.1 -0.1)">
       <use xlink:href="#DejaVuSans-30"/>
      </g>
     </g>
    </g>
    <g id="ytick_2">
     <g id="line2d_8">
      <g>
       <use xlink:href="#m544e8bbff1" x="57.6" y="233.11266" style="stroke: #000000; stroke-width: 0.8"/>
      </g>
     </g>
     <g id="text_9">
      <!-- 500 -->
      <g transform="translate(31.5125 236.911879) scale(0.1 -0.1)">
       <use xlink:href="#DejaVuSans-35"/>
       <use xlink:href="#DejaVuSans-30" transform="translate(63.623047 0)"/>
       <use xlink:href="#DejaVuSans-30" transform="translate(127.246094 0)"/>
      </g>
     </g>
    </g>
    <g id="ytick_3">
     <g id="line2d_9">
      <g>
       <use xlink:href="#m544e8bbff1" x="57.6" y="189.573869" style="stroke: #000000; stroke-width: 0.8"/>
      </g>
     </g>
     <g id="text_10">
      <!-- 1000 -->
      <g transform="translate(25.15 193.373087) scale(0.1 -0.1)">
       <use xlink:href="#DejaVuSans-31"/>
       <use xlink:href="#DejaVuSans-30" transform="translate(63.623047 0)"/>
       <use xlink:href="#DejaVuSans-30" transform="translate(127.246094 0)"/>
       <use xlink:href="#DejaVuSans-30" transform="translate(190.869141 0)"/>
      </g>
     </g>
    </g>
    <g id="ytick_4">
     <g id="line2d_10">
      <g>
       <use xlink:href="#m544e8bbff1" x="57.6" y="146.035077" style="stroke: #000000; stroke-width: 0.8"/>
      </g>
     </g>
     <g id="text_11">
      <!-- 1500 -->
      <g transform="translate(25.15 149.834296) scale(0.1 -0.1)">
       <use xlink:href="#DejaVuSans-31"/>
       <use xlink:href="#DejaVuSans-35" transform="translate(63.623047 0)"/>
       <use xlink:href="#DejaVuSans-30" transform="translate(127.246094 0)"/>
       <use xlink:href="#DejaVuSans-30" transform="translate(190.869141 0)"/>
      </g>
     </g>
    </g>
    <g id="ytick_5">
     <g id="line2d_11">
      <g>
       <use xlink:href="#m544e8bbff1" x="57.6" y="102.496286" style="stroke: #000000; stroke-width: 0.8"/>
      </g>
     </g>
     <g id="text_12">
      <!-- 2000 -->
      <g transform="translate(25.15 106.295505) scale(0.1 -0.1)">
       <use xlink:href="#DejaVuSans-32"/>
       <use xlink:href="#DejaVuSans-30" transform="translate(63.623047 0)"/>
       <use xlink:href="#DejaVuSans-30" transform="translate(127.246094 0)"/>
       <use xlink:href="#DejaVuSans-30" transform="translate(190.869141 0)"/>
      </g>
     </g>
    </g>
    <g id="ytick_6">
     <g id="line2d_12">
      <g>
       <use xlink:href="#m544e8bbff1" x="57.6" y="58.957495" style="stroke: #000000; stroke-width: 0.8"/>
      </g>
     </g>
     <g id="text_13">
      <!-- 2500 -->
      <g transform="translate(25.15 62.756713) scale(0.1 -0.1)">
       <use xlink:href="#DejaVuSans-32"/>
       <use xlink:href="#DejaVuSans-35" transform="translate(63.623047 0)"/>
       <use xlink:href="#DejaVuSans-30" transform="translate(127.246094 0)"/>
       <use xlink:href="#DejaVuSans-30" transform="translate(190.869141 0)"/>
      </g>
     </g>
    </g>
    <g id="text_14">
     <!-- Stress [Pa] -->
     <g transform="translate(19.070312 201.235813) rotate(-90) scale(0.1 -0.1)">
      <defs>
       <path id="DejaVuSans-65" d="M 3597 1894 
L 3597 1613 
L 953 1613 
Q 991 1019 1311 708 
Q 1631 397 2203 397 
Q 2534 397 2845 478 
Q 3156 559 3463 722 
L 3463 178 
Q 3153 47 2828 -22 
Q 2503 -91 2169 -91 
Q 1331 -91 842 396 
Q 353 884 353 1716 
Q 353 2575 817 3079 
Q 1281 3584 2069 3584 
Q 2775 3584 3186 3129 
Q 3597 2675 3597 1894 
z
M 3022 2063 
Q 3016 2534 2758 2815 
Q 2500 3097 2075 3097 
Q 1594 3097 1305 2825 
Q 1016 2553 972 2059 
L 3022 2063 
z
" transform="scale(0.015625)"/>
       <path id="DejaVuSans-73" d="M 2834 3397 
L 2834 2853 
Q 2591 2978 2328 3040 
Q 2066 3103 1784 3103 
Q 1356 3103 1142 2972 
Q 928 2841 928 2578 
Q 928 2378 1081 2264 
Q 1234 2150 1697 2047 
L 1894 2003 
Q 2506 1872 2764 1633 
Q 3022 1394 3022 966 
Q 3022 478 2636 193 
Q 2250 -91 1575 -91 
Q 1294 -91 989 -36 
Q 684 19 347 128 
L 347 722 
Q 666 556 975 473 
Q 1284 391 1588 391 
Q 1994 391 2212 530 
Q 2431 669 2431 922 
Q 2431 1156 2273 1281 
Q 2116 1406 1581 1522 
L 1381 1569 
Q 847 1681 609 1914 
Q 372 2147 372 2553 
Q 372 3047 722 3315 
Q 1072 3584 1716 3584 
Q 2034 3584 2315 3537 
Q 2597 3491 2834 3397 
z
" transform="scale(0.015625)"/>
       <path id="DejaVuSans-20" transform="scale(0.015625)"/>
       <path id="DejaVuSans-5b" d="M 550 4863 
L 1875 4863 
L 1875 4416 
L 1125 4416 
L 1125 -397 
L 1875 -397 
L 1875 -844 
L 550 -844 
L 550 4863 
z
" transform="scale(0.015625)"/>
       <path id="DejaVuSans-50" d="M 1259 4147 
L 1259 2394 
L 2053 2394 
Q 2494 2394 2734 2622 
Q 2975 2850 2975 3272 
Q 2975 3691 2734 3919 
Q 2494 4147 2053 4147 
L 1259 4147 
z
M 628 4666 
L 2053 4666 
Q 2838 4666 3239 4311 
Q 3641 3956 3641 3272 
Q 3641 2581 3239 2228 
Q 2838 1875 2053 1875 
L 1259 1875 
L 1259 0 
L 628 0 
L 628 4666 
z
" transform="scale(0.015625)"/>
       <path id="DejaVuSans-5d" d="M 1947 4863 
L 1947 -844 
L 622 -844 
L 622 -397 
L 1369 -397 
L 1369 4416 
L 622 4416 
L 622 4863 
L 1947 4863 
z
" transform="scale(0.015625)"/>
      </defs>
      <use xlink:href="#DejaVuSans-53"/>
      <use xlink:href="#DejaVuSans-74" transform="translate(63.476562 0)"/>
      <use xlink:href="#DejaVuSans-72" transform="translate(102.685547 0)"/>
      <use xlink:href="#DejaVuSans-65" transform="translate(141.548828 0)"/>
      <use xlink:href="#DejaVuSans-73" transform="translate(203.072266 0)"/>
      <use xlink:href="#DejaVuSans-73" transform="translate(255.171875 0)"/>
      <use xlink:href="#DejaVuSans-20" transform="translate(307.271484 0)"/>
      <use xlink:href="#DejaVuSans-5b" transform="translate(339.058594 0)"/>
      <use xlink:href="#DejaVuSans-50" transform="translate(378.072266 0)"/>
      <use xlink:href="#DejaVuSans-61" transform="translate(433.875 0)"/>
      <use xlink:href="#DejaVuSans-5d" transform="translate(495.154297 0)"/>
     </g>
    </g>
   </g>
   <g id="line2d_13">
    <path d="M 73.93634 276.942872 
L 73.93634 276.885111 
L 73.937401 277.104106 
L 73.936209 276.92486 
L 74.403726 276.776197 
L 74.868712 275.956411 
L 75.354691 275.357408 
L 76.839675 276.177045 
L 77.304794 276.261555 
L 77.768851 276.465451 
L 78.251118 276.507735 
L 78.738334 276.690499 
L 79.227032 276.445907 
L 80.157445 275.223536 
L 80.62221 274.82281 
L 81.09546 274.591074 
L 82.538724 275.250572 
L 83.959978 275.27373 
L 84.433582 274.118086 
L 84.900998 273.701389 
L 85.849267 273.705829 
L 86.326406 273.830953 
L 87.291646 273.592768 
L 88.235583 272.844183 
L 88.701321 272.462272 
L 89.175278 272.305277 
L 90.130972 272.381498 
L 91.097449 272.181901 
L 91.582062 271.896453 
L 92.047887 271.347496 
L 92.520961 271.034928 
L 92.999161 270.870108 
L 93.943187 270.768168 
L 96.31209 269.643501 
L 96.776855 269.495798 
L 98.213489 268.623305 
L 99.620158 268.184446 
L 100.56772 267.720045 
L 101.052107 267.411699 
L 102.917177 266.722405 
L 104.350601 265.942543 
L 106.270651 265.088865 
L 107.690048 264.374538 
L 109.117224 263.647751 
L 110.536799 262.814175 
L 111.952307 262.399991 
L 112.900222 261.944837 
L 113.846104 261.275965 
L 115.271595 260.739045 
L 116.221631 260.408235 
L 117.166364 259.690764 
L 119.522363 258.71591 
L 120.46922 258.165669 
L 121.91213 257.431402 
L 122.874364 256.864088 
L 123.360166 256.548812 
L 125.711745 255.632378 
L 127.147031 254.769954 
L 129.475981 253.765339 
L 133.279486 251.675522 
L 135.671725 250.636385 
L 137.572859 249.608961 
L 138.507714 249.162123 
L 139.953982 248.269116 
L 140.914096 247.77266 
L 149.450419 243.347616 
L 151.341299 242.362448 
L 152.291335 241.807112 
L 152.771657 241.411159 
L 154.182392 240.801556 
L 155.133312 240.348697 
L 156.563405 239.450689 
L 158.457291 238.570394 
L 160.369473 237.408187 
L 161.315261 236.973363 
L 162.258403 236.513391 
L 163.685049 235.582753 
L 166.033622 234.440004 
L 167.003812 233.905916 
L 167.959241 233.325845 
L 168.919265 232.674275 
L 171.760182 231.229834 
L 172.730902 230.701896 
L 173.692871 230.160603 
L 175.100513 229.325971 
L 176.996254 228.291346 
L 177.959284 227.643584 
L 179.830011 226.674673 
L 180.757419 226.065094 
L 182.665801 224.983564 
L 184.105882 224.231078 
L 185.526429 223.424468 
L 196.446986 217.115743 
L 196.911927 216.875087 
L 197.873808 216.112275 
L 199.763628 215.113993 
L 201.191953 214.089507 
L 203.072226 213.082138 
L 204.019964 212.350716 
L 206.86424 210.757357 
L 207.817082 210.108225 
L 208.772688 209.467209 
L 209.71857 208.884706 
L 213.042636 206.835045 
L 213.977293 206.242629 
L 215.403054 205.372202 
L 216.356184 204.713518 
L 217.320717 204.075256 
L 218.720845 203.353862 
L 222.052138 201.078827 
L 222.986618 200.410965 
L 223.939659 199.763204 
L 225.817104 198.683556 
L 227.253826 197.665173 
L 231.988252 194.763619 
L 233.420732 193.699207 
L 238.653269 190.332501 
L 239.618862 189.558216 
L 242.957701 187.520539 
L 246.277349 185.088463 
L 247.709651 184.293573 
L 253.393075 180.348992 
L 254.789303 179.396097 
L 257.625977 177.33198 
L 260.47539 175.359831 
L 261.909019 174.330159 
L 262.393406 174.082183 
L 264.799611 172.234813 
L 266.703596 171.019807 
L 268.587228 169.579864 
L 273.854856 165.551628 
L 274.791634 164.830303 
L 276.685961 163.600589 
L 277.630981 162.703429 
L 278.585614 162.026527 
L 279.541484 161.457194 
L 281.916664 159.657184 
L 283.344635 158.653028 
L 284.298384 157.797056 
L 295.812184 148.759249 
L 297.242896 147.531738 
L 298.186037 146.908116 
L 299.138195 146.267055 
L 301.519651 144.146342 
L 302.937634 143.096065 
L 304.83311 141.568789 
L 326.178921 123.706009 
L 327.149994 122.836637 
L 332.436362 118.250405 
L 334.360389 116.437407 
L 335.780361 115.224272 
L 337.220796 113.779418 
L 338.165706 113.064609 
L 340.081512 111.304662 
L 341.493662 110.157737 
L 342.928793 108.74877 
L 344.36525 107.416993 
L 345.307862 106.425366 
L 346.741048 105.236312 
L 347.69314 104.376049 
L 351.955752 100.344739 
L 352.895535 99.449576 
L 353.844687 98.645094 
L 354.799762 97.777466 
L 355.748561 96.692586 
L 357.147452 95.524826 
L 364.250229 88.609223 
L 365.202387 87.640082 
L 368.509748 84.387279 
L 369.464557 83.489178 
L 370.404628 82.653468 
L 372.782901 80.153747 
L 374.211137 78.834453 
L 375.653517 77.171062 
L 380.416427 72.393645 
L 381.380607 71.210924 
L 387.1307 65.390412 
L 388.562384 63.77842 
L 389.50641 62.826994 
L 392.347326 59.686625 
L 393.287573 58.83499 
L 394.722086 57.078164 
L 397.085863 54.830481 
L 398.487273 53.568 
L 398.335658 60.058738 
L 398.337183 72.917522 
L 398.336034 81.824939 
L 398.333869 81.80119 
L 398.335857 81.902358 
L 398.335194 81.780906 
L 398.330068 81.864888 
L 397.861436 82.111188 
L 396.903974 84.155113 
L 395.940856 84.254457 
L 395.446392 84.504199 
L 394.502012 85.257099 
L 394.034065 85.410469 
L 393.553567 85.888591 
L 393.087388 85.949329 
L 392.119143 87.990775 
L 391.634048 88.582778 
L 390.687724 90.488935 
L 390.201922 90.819378 
L 389.718772 90.743646 
L 389.243046 90.965394 
L 388.274978 91.851838 
L 387.334576 92.20969 
L 386.864994 94.175105 
L 386.385556 94.990509 
L 385.904969 95.446948 
L 384.95617 96.085944 
L 384.012675 96.943843 
L 382.586913 98.622561 
L 380.681714 100.771302 
L 380.199624 101.742738 
L 379.729025 102.093717 
L 379.250648 102.249175 
L 378.774569 102.558577 
L 377.81428 103.313381 
L 377.335991 103.731844 
L 376.856641 105.233237 
L 376.387987 105.85406 
L 374.96448 106.793382 
L 374.481329 107.219166 
L 374.003925 108.244019 
L 373.523603 108.805825 
L 372.097311 109.618716 
L 371.63343 110.144291 
L 371.151606 111.081216 
L 370.672875 111.606033 
L 369.739279 112.297162 
L 369.260372 112.634282 
L 368.793928 113.211279 
L 368.324301 114.07239 
L 367.844333 114.654481 
L 367.379215 114.884627 
L 365.967242 116.038574 
L 365.495848 116.834887 
L 365.014643 117.428725 
L 364.077909 118.045177 
L 363.124691 118.833688 
L 362.655771 119.712606 
L 362.170411 120.195478 
L 361.70052 120.413051 
L 360.280062 121.517389 
L 359.803629 122.501857 
L 359.334003 123.038882 
L 358.387149 123.613538 
L 357.435433 124.252029 
L 356.492644 125.975491 
L 354.549083 127.001905 
L 354.077335 127.620617 
L 353.605322 128.71339 
L 352.654777 129.370995 
L 351.223359 130.230592 
L 350.743567 131.396608 
L 350.27951 131.988978 
L 348.376697 132.733869 
L 347.911843 133.432731 
L 347.442306 134.639132 
L 346.95942 135.002227 
L 346.000368 135.509881 
L 345.052188 136.073603 
L 344.577965 137.270091 
L 344.111698 137.842636 
L 343.160247 138.222963 
L 342.212332 138.629369 
L 341.72927 139.69837 
L 341.250893 140.369949 
L 340.30658 140.866038 
L 339.83333 141.181406 
L 339.362024 141.299428 
L 338.887271 142.28229 
L 338.414286 142.976907 
L 336.980922 143.808327 
L 336.506523 143.853278 
L 335.549238 145.510358 
L 333.154701 146.952929 
L 332.68861 147.972275 
L 332.212443 148.336564 
L 331.274958 148.833892 
L 330.320679 149.318187 
L 329.845396 150.324867 
L 329.371571 150.787192 
L 327.472293 151.896715 
L 327.00143 152.899632 
L 326.536842 153.359467 
L 324.629167 154.273435 
L 324.146901 155.1831 
L 323.666579 155.743254 
L 322.705936 156.26697 
L 322.223492 156.62621 
L 321.759523 156.755739 
L 321.287687 157.691746 
L 320.343219 158.340425 
L 318.910033 159.021481 
L 318.445533 160.161798 
L 317.975001 160.572609 
L 316.07979 161.351999 
L 315.117909 163.008586 
L 314.643421 163.240557 
L 314.16469 163.348953 
L 313.689672 163.571207 
L 313.213063 163.652309 
L 312.739017 164.3204 
L 312.274959 165.205743 
L 311.796052 165.587378 
L 310.842656 165.902275 
L 310.370997 166.133661 
L 309.886963 166.510248 
L 308.943291 167.738769 
L 307.026777 168.880187 
L 306.55441 169.486417 
L 305.144846 170.441916 
L 304.660636 170.784406 
L 303.71387 171.815684 
L 302.277147 172.67854 
L 301.799035 172.872248 
L 301.330823 173.591555 
L 300.866235 174.0334 
L 298.95803 175.046322 
L 298.483277 175.707713 
L 298.00932 176.164702 
L 296.084939 177.368051 
L 295.600021 178.009066 
L 295.119523 178.430995 
L 293.683618 179.176207 
L 293.209307 179.593362 
L 292.743747 180.224832 
L 292.257856 180.573517 
L 291.288904 181.02734 
L 290.341166 181.717643 
L 289.391218 182.635293 
L 288.441004 183.11656 
L 287.973588 183.306459 
L 286.558168 184.708726 
L 285.13771 185.635234 
L 283.715484 186.918228 
L 282.773005 187.459767 
L 281.819963 188.111429 
L 280.871164 188.888788 
L 278.975157 190.123963 
L 278.027507 190.988104 
L 275.653565 192.58284 
L 274.707595 193.235833 
L 273.269635 194.016543 
L 271.852713 195.324685 
L 270.894257 195.780384 
L 269.960927 196.418049 
L 269.01142 197.291368 
L 268.544181 197.564562 
L 267.585482 197.960492 
L 266.160958 199.09544 
L 265.205618 199.79281 
L 264.260531 200.396515 
L 263.790817 200.81725 
L 262.851918 201.400442 
L 259.04385 203.874756 
L 258.103006 204.577449 
L 256.207176 205.669809 
L 254.789546 206.641566 
L 250.944851 209.185251 
L 249.997997 209.975689 
L 248.587969 210.706583 
L 246.669709 212.097429 
L 245.715607 212.577685 
L 244.77547 213.20888 
L 244.301248 213.657609 
L 240.506582 215.863232 
L 239.563264 216.312673 
L 238.138032 217.38819 
L 236.721817 218.195609 
L 235.754235 218.747629 
L 232.024095 220.943959 
L 231.072468 221.710809 
L 229.66076 222.322156 
L 227.764223 223.723872 
L 226.348803 224.339664 
L 225.864946 224.873843 
L 224.920114 225.316801 
L 223.032327 226.324743 
L 222.0807 227.06571 
L 219.693941 228.360545 
L 218.726049 228.978565 
L 217.766378 229.611136 
L 215.876028 230.528328 
L 213.996816 231.809991 
L 213.037631 232.166033 
L 212.572866 232.431333 
L 211.635028 233.328057 
L 210.213509 233.89576 
L 209.74185 234.058836 
L 208.316176 234.974261 
L 207.369499 235.285888 
L 206.41522 235.856919 
L 205.451924 236.643433 
L 204.503126 236.923935 
L 203.070292 237.866917 
L 202.121847 238.482784 
L 200.708648 239.049288 
L 198.334264 240.392355 
L 197.381399 240.796041 
L 195.962532 241.72287 
L 194.074834 242.759678 
L 193.124532 243.397205 
L 191.222603 244.165386 
L 190.273893 244.866938 
L 184.595595 247.71656 
L 177.9604 251.317879 
L 175.586016 252.346748 
L 174.140808 253.162519 
L 170.359048 255.021201 
L 169.404062 255.559327 
L 168.458975 255.887155 
L 166.539213 257.035596 
L 164.638522 257.820653 
L 163.68106 258.384249 
L 162.729079 258.777333 
L 162.263607 258.917323 
L 160.376086 260.137721 
L 158.942369 260.546616 
L 157.049368 261.705656 
L 155.616888 262.247798 
L 154.176033 263.15712 
L 152.255365 263.787879 
L 150.826863 264.563907 
L 144.689812 267.282463 
L 143.743748 267.789062 
L 142.792827 268.161542 
L 141.832537 268.606738 
L 140.879142 269.113428 
L 138.967048 269.774785 
L 138.495654 270.179458 
L 137.081825 270.809929 
L 135.66614 271.338658 
L 134.220225 271.994359 
L 132.771658 272.543958 
L 126.116784 275.643601 
L 125.646363 275.758525 
L 123.740809 276.590633 
L 113.30032 281.10431 
L 112.833964 281.364286 
L 111.864481 281.590627 
L 110.42988 282.186198 
L 109.479137 282.583827 
L 108.532923 282.85169 
L 106.63727 283.733809 
L 105.69625 284.003973 
L 105.212569 284.200803 
L 104.7387 284.531131 
L 102.37289 285.407387 
L 101.899551 285.75699 
L 100.963834 285.953734 
L 100.027057 286.205668 
L 99.545851 286.415668 
L 99.068181 286.784087 
L 98.119913 287.164483 
L 97.176304 287.344112 
L 96.708624 287.544223 
L 96.229186 287.992677 
L 95.268542 288.225038 
L 94.315147 288.444617 
L 93.835179 288.621621 
L 93.366702 289.019227 
L 92.410301 289.338817 
L 91.461325 289.551162 
L 90.979589 289.713114 
L 90.498914 290.120999 
L 88.583638 290.615627 
L 87.621315 291.232251 
L 85.71175 291.46412 
L 85.242301 292.013719 
L 84.762244 292.340117 
L 83.823699 292.389921 
L 82.86058 292.586916 
L 81.898081 293.63224 
L 81.433669 293.479054 
L 80.018515 293.47881 
L 79.536248 293.761721 
L 79.061053 294.568221 
L 77.638739 294.445901 
L 76.688526 294.473593 
L 76.219164 295.298175 
L 75.747594 295.326427 
L 75.280354 295.192446 
L 74.332831 295.059165 
L 74.04653 295.062309 
L 73.937874 295.488 
L 73.832727 294.814234 
L 73.833147 294.815444 
" clip-path="url(#p8b69bfd429)" style="fill: none; stroke: #ff0000; stroke-width: 1.5; stroke-linecap: square"/>
   </g>
   <g id="line2d_14">
    <path d="M 73.93634 276.942872 
L 73.93634 276.885111 
L 73.937401 277.104106 
L 73.936209 276.92486 
L 74.403726 276.776197 
L 74.868712 275.956411 
L 75.354691 275.357408 
L 75.847918 275.655624 
L 76.346625 277.667802 
L 78.251118 276.718492 
L 78.738334 276.692036 
L 79.227032 276.445907 
L 80.157445 275.223536 
L 80.62221 274.82281 
L 81.09546 274.591074 
L 82.538724 275.250572 
L 83.959978 275.27373 
L 84.433582 274.118086 
L 84.900998 273.701389 
L 85.849267 273.705829 
L 86.326406 273.830953 
L 87.291646 273.592768 
L 88.235583 272.844183 
L 88.701321 272.462272 
L 89.175278 272.305277 
L 90.130972 272.381498 
L 91.097449 272.181901 
L 91.582062 271.896453 
L 92.047887 271.347496 
L 92.520961 271.034928 
L 92.999161 270.870108 
L 93.943187 270.768168 
L 96.31209 269.643501 
L 96.776855 269.495798 
L 98.213489 268.623305 
L 99.620158 268.184446 
L 100.56772 267.720045 
L 101.052107 267.411699 
L 102.917177 266.722405 
L 104.350601 265.942543 
L 106.270651 265.088865 
L 107.690048 264.374538 
L 109.117224 263.647751 
L 110.536799 262.814175 
L 111.952307 262.399991 
L 112.900222 261.944837 
L 113.846104 261.275965 
L 115.271595 260.739045 
L 116.221631 260.408235 
L 117.166364 259.690764 
L 119.522363 258.71591 
L 120.46922 258.165669 
L 121.91213 257.431402 
L 122.874364 256.864088 
L 123.360166 256.548812 
L 125.711745 255.632378 
L 127.147031 254.769954 
L 129.475981 253.765339 
L 133.279486 251.675522 
L 135.671725 250.636385 
L 137.572859 249.608961 
L 138.507714 249.162123 
L 139.953982 248.269116 
L 140.914096 247.77266 
L 149.450419 243.347616 
L 151.341299 242.362448 
L 152.291335 241.807112 
L 152.771657 241.411159 
L 154.182392 240.801556 
L 155.133312 240.348697 
L 156.563405 239.450689 
L 158.457291 238.570394 
L 160.369473 237.408187 
L 161.315261 236.973363 
L 162.258403 236.513391 
L 163.685049 235.582753 
L 166.033622 234.440004 
L 167.003812 233.905916 
L 167.959241 233.325845 
L 168.919265 232.674275 
L 171.760182 231.229834 
L 172.730902 230.701896 
L 173.692871 230.160603 
L 175.100513 229.325971 
L 176.996254 228.291346 
L 177.959284 227.643584 
L 179.830011 226.674673 
L 180.757419 226.065094 
L 182.665801 224.983564 
L 184.105882 224.231078 
L 185.526429 223.424468 
L 196.446986 217.115743 
L 196.911927 216.875087 
L 197.873808 216.112275 
L 199.763628 215.113993 
L 201.191953 214.089507 
L 203.072226 213.082138 
L 204.019964 212.350716 
L 206.86424 210.757357 
L 207.817082 210.108225 
L 208.772688 209.467209 
L 209.71857 208.884706 
L 213.042636 206.835045 
L 213.977293 206.242629 
L 215.403054 205.372202 
L 216.356184 204.713518 
L 217.320717 204.075256 
L 218.720845 203.353862 
L 222.052138 201.078827 
L 222.986618 200.410965 
L 223.939659 199.763204 
L 225.817104 198.683556 
L 227.253826 197.665173 
L 231.988252 194.763619 
L 233.420732 193.699207 
L 238.653269 190.332501 
L 239.618862 189.558216 
L 242.957701 187.520539 
L 246.277349 185.088463 
L 247.709651 184.293573 
L 253.393075 180.348992 
L 254.789303 179.396097 
L 257.625977 177.33198 
L 260.47539 175.359831 
L 261.909019 174.330159 
L 262.393406 174.082183 
L 264.799611 172.234813 
L 266.703596 171.019807 
L 268.587228 169.579864 
L 273.854856 165.551628 
L 274.791634 164.830303 
L 276.685961 163.600589 
L 277.630981 162.703429 
L 278.585614 162.026527 
L 279.541484 161.457194 
L 281.916664 159.657184 
L 283.344635 158.653028 
L 284.298384 157.797056 
L 295.812184 148.759249 
L 297.242896 147.531738 
L 298.186037 146.908116 
L 299.138195 146.267055 
L 301.519651 144.146342 
L 302.937634 143.096065 
L 304.83311 141.568789 
L 326.178921 123.706009 
L 327.149994 122.836637 
L 332.436362 118.250405 
L 334.360389 116.437407 
L 335.780361 115.224272 
L 337.220796 113.779418 
L 338.165706 113.064609 
L 340.081512 111.304662 
L 341.493662 110.157737 
L 342.928793 108.74877 
L 344.36525 107.416993 
L 345.307862 106.425366 
L 346.741048 105.236312 
L 347.69314 104.376049 
L 351.955752 100.344739 
L 352.895535 99.449576 
L 353.844687 98.645094 
L 354.799762 97.777466 
L 355.748561 96.692586 
L 357.147452 95.524826 
L 364.250229 88.609223 
L 365.202387 87.640082 
L 368.509748 84.387279 
L 369.464557 83.489178 
L 370.404628 82.653468 
L 372.782901 80.153747 
L 374.211137 78.834453 
L 375.653517 77.171062 
L 380.416427 72.393645 
L 381.380607 71.210924 
L 387.1307 65.390412 
L 388.562384 63.77842 
L 389.50641 62.826994 
L 392.347326 59.686625 
L 393.287573 58.83499 
L 394.722086 57.078164 
L 397.085863 54.830481 
L 398.487273 53.568 
L 398.335658 60.058738 
L 398.337183 72.917522 
L 398.336034 81.824939 
L 398.333869 81.80119 
L 398.335857 81.902358 
L 398.335194 81.780906 
L 398.330068 81.864888 
L 397.861436 82.111188 
L 396.903974 84.155113 
L 395.940856 84.254457 
L 395.446392 84.504199 
L 394.502012 85.257099 
L 394.034065 85.410469 
L 393.553567 85.888591 
L 393.087388 85.949329 
L 392.119143 87.990775 
L 391.634048 88.582778 
L 390.687724 90.488935 
L 390.201922 90.819378 
L 389.718772 90.743646 
L 389.243046 90.965394 
L 388.274978 91.851838 
L 387.334576 92.20969 
L 386.864994 94.175105 
L 386.385556 94.990509 
L 385.904969 95.446948 
L 384.95617 96.085944 
L 384.012675 96.943843 
L 382.586913 98.622561 
L 380.681714 100.771302 
L 380.199624 101.742738 
L 379.729025 102.093717 
L 379.250648 102.249175 
L 378.774569 102.558577 
L 377.81428 103.313381 
L 377.335991 103.731844 
L 376.856641 105.233237 
L 376.387987 105.85406 
L 374.96448 106.793382 
L 374.481329 107.219166 
L 374.003925 108.244019 
L 373.523603 108.805825 
L 372.097311 109.618716 
L 371.63343 110.144291 
L 371.151606 111.081216 
L 370.672875 111.606033 
L 369.739279 112.297162 
L 369.260372 112.634282 
L 368.793928 113.211279 
L 368.324301 114.07239 
L 367.844333 114.654481 
L 367.379215 114.884627 
L 365.967242 116.038574 
L 365.495848 116.834887 
L 365.014643 117.428725 
L 364.077909 118.045177 
L 363.124691 118.833688 
L 362.655771 119.712606 
L 362.170411 120.195478 
L 361.70052 120.413051 
L 360.280062 121.517389 
L 359.803629 122.501857 
L 359.334003 123.038882 
L 358.387149 123.613538 
L 357.435433 124.252029 
L 356.492644 125.975491 
L 354.549083 127.001905 
L 354.077335 127.620617 
L 353.605322 128.71339 
L 352.654777 129.370995 
L 351.223359 130.230592 
L 350.743567 131.396608 
L 350.27951 131.988978 
L 348.376697 132.733869 
L 347.911843 133.432731 
L 347.442306 134.639132 
L 346.95942 135.002227 
L 346.000368 135.509881 
L 345.052188 136.073603 
L 344.577965 137.270091 
L 344.111698 137.842636 
L 343.160247 138.222963 
L 342.212332 138.629369 
L 341.72927 139.69837 
L 341.250893 140.369949 
L 340.30658 140.866038 
L 339.83333 141.181406 
L 339.362024 141.299428 
L 338.887271 142.28229 
L 338.414286 142.976907 
L 336.980922 143.808327 
L 336.506523 143.853278 
L 335.549238 145.510358 
L 333.154701 146.952929 
L 332.68861 147.972275 
L 332.212443 148.336564 
L 331.274958 148.833892 
L 330.320679 149.318187 
L 329.845396 150.324867 
L 329.371571 150.787192 
L 327.472293 151.896715 
L 327.00143 152.899632 
L 326.536842 153.359467 
L 324.629167 154.273435 
L 324.146901 155.1831 
L 323.666579 155.743254 
L 322.705936 156.26697 
L 322.223492 156.62621 
L 321.759523 156.755739 
L 321.287687 157.691746 
L 320.343219 158.340425 
L 318.910033 159.021481 
L 318.445533 160.161798 
L 317.975001 160.572609 
L 316.07979 161.351999 
L 315.117909 163.008586 
L 314.643421 163.240557 
L 314.16469 163.348953 
L 313.689672 163.571207 
L 313.213063 163.652309 
L 312.739017 164.3204 
L 312.274959 165.205743 
L 311.796052 165.587378 
L 310.842656 165.902275 
L 310.370997 166.133661 
L 309.886963 166.510248 
L 308.943291 167.738769 
L 307.026777 168.880187 
L 306.55441 169.486417 
L 305.144846 170.441916 
L 304.660636 170.784406 
L 303.71387 171.815684 
L 302.277147 172.67854 
L 301.799035 172.872248 
L 301.330823 173.591555 
L 300.866235 174.0334 
L 298.95803 175.046322 
L 298.483277 175.707713 
L 298.00932 176.164702 
L 296.084939 177.368051 
L 295.600021 178.009066 
L 295.119523 178.430995 
L 293.683618 179.176207 
L 293.209307 179.593362 
L 292.743747 180.224832 
L 292.257856 180.573517 
L 291.288904 181.02734 
L 290.341166 181.717643 
L 289.391218 182.635293 
L 288.441004 183.11656 
L 287.973588 183.306459 
L 286.558168 184.708726 
L 285.13771 185.635234 
L 283.715484 186.918228 
L 282.773005 187.459767 
L 281.819963 188.111429 
L 280.871164 188.888788 
L 278.975157 190.123963 
L 278.027507 190.988104 
L 275.653565 192.58284 
L 274.707595 193.235833 
L 273.269635 194.016543 
L 271.852713 195.324685 
L 270.894257 195.780384 
L 269.960927 196.418049 
L 269.01142 197.291368 
L 268.544181 197.564562 
L 267.585482 197.960492 
L 266.160958 199.09544 
L 265.205618 199.79281 
L 264.260531 200.396515 
L 263.790817 200.81725 
L 262.851918 201.400442 
L 259.04385 203.874756 
L 258.103006 204.577449 
L 256.207176 205.669809 
L 254.789546 206.641566 
L 250.944851 209.185251 
L 249.997997 209.975689 
L 248.587969 210.706583 
L 246.669709 212.097429 
L 245.715607 212.577685 
L 244.77547 213.20888 
L 244.301248 213.657609 
L 240.506582 215.863232 
L 239.563264 216.312673 
L 238.138032 217.38819 
L 236.721817 218.195609 
L 235.754235 218.747629 
L 232.024095 220.943959 
L 231.072468 221.710809 
L 229.66076 222.322156 
L 227.764223 223.723872 
L 226.348803 224.339664 
L 225.864946 224.873843 
L 224.920114 225.316801 
L 223.032327 226.324743 
L 222.0807 227.06571 
L 219.693941 228.360545 
L 218.726049 228.978565 
L 217.766378 229.611136 
L 215.876028 230.528328 
L 213.996816 231.809991 
L 213.037631 232.166033 
L 212.572866 232.431333 
L 211.635028 233.328057 
L 210.213509 233.89576 
L 209.74185 234.058836 
L 208.316176 234.974261 
L 207.369499 235.285888 
L 206.41522 235.856919 
L 205.451924 236.643433 
L 204.503126 236.923935 
L 203.070292 237.866917 
L 202.121847 238.482784 
L 200.708648 239.049288 
L 198.334264 240.392355 
L 197.381399 240.796041 
L 195.962532 241.72287 
L 194.074834 242.759678 
L 193.124532 243.397205 
L 191.222603 244.165386 
L 190.273893 244.866938 
L 184.595595 247.71656 
L 177.9604 251.317879 
L 175.586016 252.346748 
L 174.140808 253.162519 
L 170.359048 255.021201 
L 169.404062 255.559327 
L 168.458975 255.887155 
L 166.539213 257.035596 
L 164.638522 257.820653 
L 163.68106 258.384249 
L 162.729079 258.777333 
L 162.263607 258.917323 
L 160.376086 260.137721 
L 158.942369 260.546616 
L 157.049368 261.705656 
L 155.616888 262.247798 
L 154.176033 263.15712 
L 152.255365 263.787879 
L 150.826863 264.563907 
L 144.689812 267.282463 
L 143.743748 267.789062 
L 142.792827 268.161542 
L 141.832537 268.606738 
L 140.879142 269.113428 
L 138.967048 269.774785 
L 138.495654 270.179458 
L 137.081825 270.809929 
L 135.66614 271.338658 
L 134.220225 271.994359 
L 132.771658 272.543958 
L 126.116784 275.643601 
L 125.646363 275.758525 
L 123.740809 276.590633 
L 113.30032 281.10431 
L 112.833964 281.364286 
L 111.864481 281.590627 
L 110.42988 282.186198 
L 109.479137 282.583827 
L 108.532923 282.85169 
L 106.63727 283.733809 
L 105.69625 284.003973 
L 105.212569 284.200803 
L 104.7387 284.531131 
L 102.37289 285.407387 
L 101.899551 285.75699 
L 100.963834 285.953734 
L 100.027057 286.205668 
L 99.545851 286.415668 
L 99.068181 286.784087 
L 98.119913 287.164483 
L 97.176304 287.344112 
L 96.708624 287.544223 
L 96.229186 287.992677 
L 95.268542 288.225038 
L 94.315147 288.444617 
L 93.835179 288.621621 
L 93.366702 289.019227 
L 92.410301 289.338817 
L 91.461325 289.551162 
L 90.979589 289.713114 
L 90.498914 290.120999 
L 88.583638 290.615627 
L 87.621315 291.232251 
L 85.71175 291.46412 
L 85.242301 292.013719 
L 84.762244 292.340117 
L 83.823699 292.389921 
L 82.86058 292.586916 
L 81.898081 293.63224 
L 81.433669 293.479054 
L 80.018515 293.47881 
L 79.536248 293.761721 
L 79.061053 294.568221 
L 77.638739 294.445901 
L 76.688526 294.473593 
L 76.219164 295.298175 
L 75.747594 295.326427 
L 75.280354 295.192446 
L 74.332831 295.059165 
L 74.04653 295.062309 
L 73.937874 295.488 
L 73.832727 294.814234 
L 73.833147 294.815444 
" clip-path="url(#p8b69bfd429)" style="fill: none; stroke: #000000; stroke-width: 1.5; stroke-linecap: square"/>
   </g>
   <g id="patch_3">
    <path d="M 57.6 307.584 
L 57.6 41.472 
" style="fill: none; stroke: #000000; stroke-width: 0.8; stroke-linejoin: miter; stroke-linecap: square"/>
   </g>
   <g id="patch_4">
    <path d="M 414.72 307.584 
L 414.72 41.472 
" style="fill: none; stroke: #000000; stroke-width: 0.8; stroke-linejoin: miter; stroke-linecap: square"/>
   </g>
   <g id="patch_5">
    <path d="M 57.6 307.584 
L 414.72 307.584 
" style="fill: none; stroke: #000000; stroke-width: 0.8; stroke-linejoin: miter; stroke-linecap: square"/>
   </g>
   <g id="patch_6">
    <path d="M 57.6 41.472 
L 414.72 41.472 
" style="fill: none; stroke: #000000; stroke-width: 0.8; stroke-linejoin: miter; stroke-linecap: square"/>
   </g>
   <g id="text_15">
    <!-- 2025-06-19 trial 24 -->
    <g transform="translate(178.0125 35.472) scale(0.12 -0.12)">
     <defs>
      <path id="DejaVuSans-2d" d="M 313 2009 
L 1997 2009 
L 1997 1497 
L 313 1497 
L 313 2009 
z
" transform="scale(0.015625)"/>
      <path id="DejaVuSans-36" d="M 2113 2584 
Q 1688 2584 1439 2293 
Q 1191 2003 1191 1497 
Q 1191 994 1439 701 
Q 1688 409 2113 409 
Q 2538 409 2786 701 
Q 3034 994 3034 1497 
Q 3034 2003 2786 2293 
Q 2538 2584 2113 2584 
z
M 3366 4563 
L 3366 3988 
Q 3128 4100 2886 4159 
Q 2644 4219 2406 4219 
Q 1781 4219 1451 3797 
Q 1122 3375 1075 2522 
Q 1259 2794 1537 2939 
Q 1816 3084 2150 3084 
Q 2853 3084 3261 2657 
Q 3669 2231 3669 1497 
Q 3669 778 3244 343 
Q 2819 -91 2113 -91 
Q 1303 -91 875 529 
Q 447 1150 447 2328 
Q 447 3434 972 4092 
Q 1497 4750 2381 4750 
Q 2619 4750 2861 4703 
Q 3103 4656 3366 4563 
z
" transform="scale(0.015625)"/>
      <path id="DejaVuSans-39" d="M 703 97 
L 703 672 
Q 941 559 1184 500 
Q 1428 441 1663 441 
Q 2288 441 2617 861 
Q 2947 1281 2994 2138 
Q 2813 1869 2534 1725 
Q 2256 1581 1919 1581 
Q 1219 1581 811 2004 
Q 403 2428 403 3163 
Q 403 3881 828 4315 
Q 1253 4750 1959 4750 
Q 2769 4750 3195 4129 
Q 3622 3509 3622 2328 
Q 3622 1225 3098 567 
Q 2575 -91 1691 -91 
Q 1453 -91 1209 -44 
Q 966 3 703 97 
z
M 1959 2075 
Q 2384 2075 2632 2365 
Q 2881 2656 2881 3163 
Q 2881 3666 2632 3958 
Q 2384 4250 1959 4250 
Q 1534 4250 1286 3958 
Q 1038 3666 1038 3163 
Q 1038 2656 1286 2365 
Q 1534 2075 1959 2075 
z
" transform="scale(0.015625)"/>
      <path id="DejaVuSans-6c" d="M 603 4863 
L 1178 4863 
L 1178 0 
L 603 0 
L 603 4863 
z
" transform="scale(0.015625)"/>
      <path id="DejaVuSans-34" d="M 2419 4116 
L 825 1625 
L 2419 1625 
L 2419 4116 
z
M 2253 4666 
L 3047 4666 
L 3047 1625 
L 3713 1625 
L 3713 1100 
L 3047 1100 
L 3047 0 
L 2419 0 
L 2419 1100 
L 313 1100 
L 313 1709 
L 2253 4666 
z
" transform="scale(0.015625)"/>
     </defs>
     <use xlink:href="#DejaVuSans-32"/>
     <use xlink:href="#DejaVuSans-30" transform="translate(63.623047 0)"/>
     <use xlink:href="#DejaVuSans-32" transform="translate(127.246094 0)"/>
     <use xlink:href="#DejaVuSans-35" transform="translate(190.869141 0)"/>
     <use xlink:href="#DejaVuSans-2d" transform="translate(254.492188 0)"/>
     <use xlink:href="#DejaVuSans-30" transform="translate(290.576172 0)"/>
     <use xlink:href="#DejaVuSans-36" transform="translate(354.199219 0)"/>
     <use xlink:href="#DejaVuSans-2d" transform="translate(417.822266 0)"/>
     <use xlink:href="#DejaVuSans-31" transform="translate(453.90625 0)"/>
     <use xlink:href="#DejaVuSans-39" transform="translate(517.529297 0)"/>
     <use xlink:href="#DejaVuSans-20" transform="translate(581.152344 0)"/>
     <use xlink:href="#DejaVuSans-74" transform="translate(612.939453 0)"/>
     <use xlink:href="#DejaVuSans-72" transform="translate(652.148438 0)"/>
     <use xlink:href="#DejaVuSans-69" transform="translate(693.261719 0)"/>
     <use xlink:href="#DejaVuSans-61" transform="translate(721.044922 0)"/>
     <use xlink:href="#DejaVuSans-6c" transform="translate(782.324219 0)"/>
     <use xlink:href="#DejaVuSans-20" transform="translate(810.107422 0)"/>
     <use xlink:href="#DejaVuSans-32" transform="translate(841.894531 0)"/>
     <use xlink:href="#DejaVuSans-34" transform="translate(905.517578 0)"/>
    </g>
   </g>
  </g>
 </g>
 <defs>
  <clipPath id="p8b69bfd429">
   <rect x="57.6" y="41.472" width="357.12" height="266.112"/>
  </clipPath>
 </defs>
</svg>
