<?xml version="1.0" encoding="utf-8" standalone="no"?>
<!DOCTYPE svg PUBLIC "-//W3C//DTD SVG 1.1//EN"
  "http://www.w3.org/Graphics/SVG/1.1/DTD/svg11.dtd">
<svg xmlns:xlink="http://www.w3.org/1999/xlink" width="460.8pt" height="345.6pt" viewBox="0 0 460.8 345.6" xmlns="http://www.w3.org/2000/svg" version="1.1">
 <metadata>
  <rdf:RDF xmlns:dc="http://purl.org/dc/elements/1.1/" xmlns:cc="http://creativecommons.org/ns#" xmlns:rdf="http://www.w3.org/1999/02/22-rdf-syntax-ns#">
   <cc:Work>
    <dc:type rdf:resource="http://purl.org/dc/dcmitype/StillImage"/>
    <dc:date>2025-07-14T21:35:10.096786</dc:date>
    <dc:format>image/svg+xml</dc:format>
    <dc:creator>
     <cc:Agent>
      <dc:title>Matplotlib v3.10.3, https://matplotlib.org/</dc:title>
     </cc:Agent>
    </dc:creator>
   </cc:Work>
  </rdf:RDF>
 </metadata>
 <defs>
  <style type="text/css">*{stroke-linejoin: round; stroke-linecap: butt}</style>
 </defs>
 <g id="figure_1">
  <g id="patch_1">
   <path d="M 0 345.6 
L 460.8 345.6 
L 460.8 0 
L 0 0 
z
" style="fill: #ffffff"/>
  </g>
  <g id="axes_1">
   <g id="patch_2">
    <path d="M 57.6 307.584 
L 414.72 307.584 
L 414.72 41.472 
L 57.6 41.472 
z
" style="fill: #ffffff"/>
   </g>
   <g id="matplotlib.axis_1">
    <g id="xtick_1">
     <g id="line2d_1">
      <defs>
       <path id="m481a601cb6" d="M 0 0 
L 0 3.5 
" style="stroke: #000000; stroke-width: 0.8"/>
      </defs>
      <g>
       <use xlink:href="#m481a601cb6" x="73.968643" y="307.584" style="stroke: #000000; stroke-width: 0.8"/>
      </g>
     </g>
     <g id="text_1">
      <!-- 0.000 -->
      <g transform="translate(59.65458 322.182437) scale(0.1 -0.1)">
       <defs>
        <path id="DejaVuSans-30" d="M 2034 4250 
Q 1547 4250 1301 3770 
Q 1056 3291 1056 2328 
Q 1056 1369 1301 889 
Q 1547 409 2034 409 
Q 2525 409 2770 889 
Q 3016 1369 3016 2328 
Q 3016 3291 2770 3770 
Q 2525 4250 2034 4250 
z
M 2034 4750 
Q 2819 4750 3233 4129 
Q 3647 3509 3647 2328 
Q 3647 1150 3233 529 
Q 2819 -91 2034 -91 
Q 1250 -91 836 529 
Q 422 1150 422 2328 
Q 422 3509 836 4129 
Q 1250 4750 2034 4750 
z
" transform="scale(0.015625)"/>
        <path id="DejaVuSans-2e" d="M 684 794 
L 1344 794 
L 1344 0 
L 684 0 
L 684 794 
z
" transform="scale(0.015625)"/>
       </defs>
       <use xlink:href="#DejaVuSans-30"/>
       <use xlink:href="#DejaVuSans-2e" transform="translate(63.623047 0)"/>
       <use xlink:href="#DejaVuSans-30" transform="translate(95.410156 0)"/>
       <use xlink:href="#DejaVuSans-30" transform="translate(159.033203 0)"/>
       <use xlink:href="#DejaVuSans-30" transform="translate(222.65625 0)"/>
      </g>
     </g>
    </g>
    <g id="xtick_2">
     <g id="line2d_2">
      <g>
       <use xlink:href="#m481a601cb6" x="119.373161" y="307.584" style="stroke: #000000; stroke-width: 0.8"/>
      </g>
     </g>
     <g id="text_2">
      <!-- 0.025 -->
      <g transform="translate(105.059099 322.182437) scale(0.1 -0.1)">
       <defs>
        <path id="DejaVuSans-32" d="M 1228 531 
L 3431 531 
L 3431 0 
L 469 0 
L 469 531 
Q 828 903 1448 1529 
Q 2069 2156 2228 2338 
Q 2531 2678 2651 2914 
Q 2772 3150 2772 3378 
Q 2772 3750 2511 3984 
Q 2250 4219 1831 4219 
Q 1534 4219 1204 4116 
Q 875 4013 500 3803 
L 500 4441 
Q 881 4594 1212 4672 
Q 1544 4750 1819 4750 
Q 2544 4750 2975 4387 
Q 3406 4025 3406 3419 
Q 3406 3131 3298 2873 
Q 3191 2616 2906 2266 
Q 2828 2175 2409 1742 
Q 1991 1309 1228 531 
z
" transform="scale(0.015625)"/>
        <path id="DejaVuSans-35" d="M 691 4666 
L 3169 4666 
L 3169 4134 
L 1269 4134 
L 1269 2991 
Q 1406 3038 1543 3061 
Q 1681 3084 1819 3084 
Q 2600 3084 3056 2656 
Q 3513 2228 3513 1497 
Q 3513 744 3044 326 
Q 2575 -91 1722 -91 
Q 1428 -91 1123 -41 
Q 819 9 494 109 
L 494 744 
Q 775 591 1075 516 
Q 1375 441 1709 441 
Q 2250 441 2565 725 
Q 2881 1009 2881 1497 
Q 2881 1984 2565 2268 
Q 2250 2553 1709 2553 
Q 1456 2553 1204 2497 
Q 953 2441 691 2322 
L 691 4666 
z
" transform="scale(0.015625)"/>
       </defs>
       <use xlink:href="#DejaVuSans-30"/>
       <use xlink:href="#DejaVuSans-2e" transform="translate(63.623047 0)"/>
       <use xlink:href="#DejaVuSans-30" transform="translate(95.410156 0)"/>
       <use xlink:href="#DejaVuSans-32" transform="translate(159.033203 0)"/>
       <use xlink:href="#DejaVuSans-35" transform="translate(222.65625 0)"/>
      </g>
     </g>
    </g>
    <g id="xtick_3">
     <g id="line2d_3">
      <g>
       <use xlink:href="#m481a601cb6" x="164.77768" y="307.584" style="stroke: #000000; stroke-width: 0.8"/>
      </g>
     </g>
     <g id="text_3">
      <!-- 0.050 -->
      <g transform="translate(150.463618 322.182437) scale(0.1 -0.1)">
       <use xlink:href="#DejaVuSans-30"/>
       <use xlink:href="#DejaVuSans-2e" transform="translate(63.623047 0)"/>
       <use xlink:href="#DejaVuSans-30" transform="translate(95.410156 0)"/>
       <use xlink:href="#DejaVuSans-35" transform="translate(159.033203 0)"/>
       <use xlink:href="#DejaVuSans-30" transform="translate(222.65625 0)"/>
      </g>
     </g>
    </g>
    <g id="xtick_4">
     <g id="line2d_4">
      <g>
       <use xlink:href="#m481a601cb6" x="210.182199" y="307.584" style="stroke: #000000; stroke-width: 0.8"/>
      </g>
     </g>
     <g id="text_4">
      <!-- 0.075 -->
      <g transform="translate(195.868136 322.182437) scale(0.1 -0.1)">
       <defs>
        <path id="DejaVuSans-37" d="M 525 4666 
L 3525 4666 
L 3525 4397 
L 1831 0 
L 1172 0 
L 2766 4134 
L 525 4134 
L 525 4666 
z
" transform="scale(0.015625)"/>
       </defs>
       <use xlink:href="#DejaVuSans-30"/>
       <use xlink:href="#DejaVuSans-2e" transform="translate(63.623047 0)"/>
       <use xlink:href="#DejaVuSans-30" transform="translate(95.410156 0)"/>
       <use xlink:href="#DejaVuSans-37" transform="translate(159.033203 0)"/>
       <use xlink:href="#DejaVuSans-35" transform="translate(222.65625 0)"/>
      </g>
     </g>
    </g>
    <g id="xtick_5">
     <g id="line2d_5">
      <g>
       <use xlink:href="#m481a601cb6" x="255.586718" y="307.584" style="stroke: #000000; stroke-width: 0.8"/>
      </g>
     </g>
     <g id="text_5">
      <!-- 0.100 -->
      <g transform="translate(241.272655 322.182437) scale(0.1 -0.1)">
       <defs>
        <path id="DejaVuSans-31" d="M 794 531 
L 1825 531 
L 1825 4091 
L 703 3866 
L 703 4441 
L 1819 4666 
L 2450 4666 
L 2450 531 
L 3481 531 
L 3481 0 
L 794 0 
L 794 531 
z
" transform="scale(0.015625)"/>
       </defs>
       <use xlink:href="#DejaVuSans-30"/>
       <use xlink:href="#DejaVuSans-2e" transform="translate(63.623047 0)"/>
       <use xlink:href="#DejaVuSans-31" transform="translate(95.410156 0)"/>
       <use xlink:href="#DejaVuSans-30" transform="translate(159.033203 0)"/>
       <use xlink:href="#DejaVuSans-30" transform="translate(222.65625 0)"/>
      </g>
     </g>
    </g>
    <g id="xtick_6">
     <g id="line2d_6">
      <g>
       <use xlink:href="#m481a601cb6" x="300.991236" y="307.584" style="stroke: #000000; stroke-width: 0.8"/>
      </g>
     </g>
     <g id="text_6">
      <!-- 0.125 -->
      <g transform="translate(286.677174 322.182437) scale(0.1 -0.1)">
       <use xlink:href="#DejaVuSans-30"/>
       <use xlink:href="#DejaVuSans-2e" transform="translate(63.623047 0)"/>
       <use xlink:href="#DejaVuSans-31" transform="translate(95.410156 0)"/>
       <use xlink:href="#DejaVuSans-32" transform="translate(159.033203 0)"/>
       <use xlink:href="#DejaVuSans-35" transform="translate(222.65625 0)"/>
      </g>
     </g>
    </g>
    <g id="xtick_7">
     <g id="line2d_7">
      <g>
       <use xlink:href="#m481a601cb6" x="346.395755" y="307.584" style="stroke: #000000; stroke-width: 0.8"/>
      </g>
     </g>
     <g id="text_7">
      <!-- 0.150 -->
      <g transform="translate(332.081693 322.182437) scale(0.1 -0.1)">
       <use xlink:href="#DejaVuSans-30"/>
       <use xlink:href="#DejaVuSans-2e" transform="translate(63.623047 0)"/>
       <use xlink:href="#DejaVuSans-31" transform="translate(95.410156 0)"/>
       <use xlink:href="#DejaVuSans-35" transform="translate(159.033203 0)"/>
       <use xlink:href="#DejaVuSans-30" transform="translate(222.65625 0)"/>
      </g>
     </g>
    </g>
    <g id="xtick_8">
     <g id="line2d_8">
      <g>
       <use xlink:href="#m481a601cb6" x="391.800274" y="307.584" style="stroke: #000000; stroke-width: 0.8"/>
      </g>
     </g>
     <g id="text_8">
      <!-- 0.175 -->
      <g transform="translate(377.486212 322.182437) scale(0.1 -0.1)">
       <use xlink:href="#DejaVuSans-30"/>
       <use xlink:href="#DejaVuSans-2e" transform="translate(63.623047 0)"/>
       <use xlink:href="#DejaVuSans-31" transform="translate(95.410156 0)"/>
       <use xlink:href="#DejaVuSans-37" transform="translate(159.033203 0)"/>
       <use xlink:href="#DejaVuSans-35" transform="translate(222.65625 0)"/>
      </g>
     </g>
    </g>
    <g id="text_9">
     <!-- Strain -->
     <g transform="translate(221.348281 335.860562) scale(0.1 -0.1)">
      <defs>
       <path id="DejaVuSans-53" d="M 3425 4513 
L 3425 3897 
Q 3066 4069 2747 4153 
Q 2428 4238 2131 4238 
Q 1616 4238 1336 4038 
Q 1056 3838 1056 3469 
Q 1056 3159 1242 3001 
Q 1428 2844 1947 2747 
L 2328 2669 
Q 3034 2534 3370 2195 
Q 3706 1856 3706 1288 
Q 3706 609 3251 259 
Q 2797 -91 1919 -91 
Q 1588 -91 1214 -16 
Q 841 59 441 206 
L 441 856 
Q 825 641 1194 531 
Q 1563 422 1919 422 
Q 2459 422 2753 634 
Q 3047 847 3047 1241 
Q 3047 1584 2836 1778 
Q 2625 1972 2144 2069 
L 1759 2144 
Q 1053 2284 737 2584 
Q 422 2884 422 3419 
Q 422 4038 858 4394 
Q 1294 4750 2059 4750 
Q 2388 4750 2728 4690 
Q 3069 4631 3425 4513 
z
" transform="scale(0.015625)"/>
       <path id="DejaVuSans-74" d="M 1172 4494 
L 1172 3500 
L 2356 3500 
L 2356 3053 
L 1172 3053 
L 1172 1153 
Q 1172 725 1289 603 
Q 1406 481 1766 481 
L 2356 481 
L 2356 0 
L 1766 0 
Q 1100 0 847 248 
Q 594 497 594 1153 
L 594 3053 
L 172 3053 
L 172 3500 
L 594 3500 
L 594 4494 
L 1172 4494 
z
" transform="scale(0.015625)"/>
       <path id="DejaVuSans-72" d="M 2631 2963 
Q 2534 3019 2420 3045 
Q 2306 3072 2169 3072 
Q 1681 3072 1420 2755 
Q 1159 2438 1159 1844 
L 1159 0 
L 581 0 
L 581 3500 
L 1159 3500 
L 1159 2956 
Q 1341 3275 1631 3429 
Q 1922 3584 2338 3584 
Q 2397 3584 2469 3576 
Q 2541 3569 2628 3553 
L 2631 2963 
z
" transform="scale(0.015625)"/>
       <path id="DejaVuSans-61" d="M 2194 1759 
Q 1497 1759 1228 1600 
Q 959 1441 959 1056 
Q 959 750 1161 570 
Q 1363 391 1709 391 
Q 2188 391 2477 730 
Q 2766 1069 2766 1631 
L 2766 1759 
L 2194 1759 
z
M 3341 1997 
L 3341 0 
L 2766 0 
L 2766 531 
Q 2569 213 2275 61 
Q 1981 -91 1556 -91 
Q 1019 -91 701 211 
Q 384 513 384 1019 
Q 384 1609 779 1909 
Q 1175 2209 1959 2209 
L 2766 2209 
L 2766 2266 
Q 2766 2663 2505 2880 
Q 2244 3097 1772 3097 
Q 1472 3097 1187 3025 
Q 903 2953 641 2809 
L 641 3341 
Q 956 3463 1253 3523 
Q 1550 3584 1831 3584 
Q 2591 3584 2966 3190 
Q 3341 2797 3341 1997 
z
" transform="scale(0.015625)"/>
       <path id="DejaVuSans-69" d="M 603 3500 
L 1178 3500 
L 1178 0 
L 603 0 
L 603 3500 
z
M 603 4863 
L 1178 4863 
L 1178 4134 
L 603 4134 
L 603 4863 
z
" transform="scale(0.015625)"/>
       <path id="DejaVuSans-6e" d="M 3513 2113 
L 3513 0 
L 2938 0 
L 2938 2094 
Q 2938 2591 2744 2837 
Q 2550 3084 2163 3084 
Q 1697 3084 1428 2787 
Q 1159 2491 1159 1978 
L 1159 0 
L 581 0 
L 581 3500 
L 1159 3500 
L 1159 2956 
Q 1366 3272 1645 3428 
Q 1925 3584 2291 3584 
Q 2894 3584 3203 3211 
Q 3513 2838 3513 2113 
z
" transform="scale(0.015625)"/>
      </defs>
      <use xlink:href="#DejaVuSans-53"/>
      <use xlink:href="#DejaVuSans-74" transform="translate(63.476562 0)"/>
      <use xlink:href="#DejaVuSans-72" transform="translate(102.685547 0)"/>
      <use xlink:href="#DejaVuSans-61" transform="translate(143.798828 0)"/>
      <use xlink:href="#DejaVuSans-69" transform="translate(205.078125 0)"/>
      <use xlink:href="#DejaVuSans-6e" transform="translate(232.861328 0)"/>
     </g>
    </g>
   </g>
   <g id="matplotlib.axis_2">
    <g id="ytick_1">
     <g id="line2d_9">
      <defs>
       <path id="m4b6643372c" d="M 0 0 
L -3.5 0 
" style="stroke: #000000; stroke-width: 0.8"/>
      </defs>
      <g>
       <use xlink:href="#m4b6643372c" x="57.6" y="302.921241" style="stroke: #000000; stroke-width: 0.8"/>
      </g>
     </g>
     <g id="text_10">
      <!-- −250 -->
      <g transform="translate(23.132812 306.720459) scale(0.1 -0.1)">
       <defs>
        <path id="DejaVuSans-2212" d="M 678 2272 
L 4684 2272 
L 4684 1741 
L 678 1741 
L 678 2272 
z
" transform="scale(0.015625)"/>
       </defs>
       <use xlink:href="#DejaVuSans-2212"/>
       <use xlink:href="#DejaVuSans-32" transform="translate(83.789062 0)"/>
       <use xlink:href="#DejaVuSans-35" transform="translate(147.412109 0)"/>
       <use xlink:href="#DejaVuSans-30" transform="translate(211.035156 0)"/>
      </g>
     </g>
    </g>
    <g id="ytick_2">
     <g id="line2d_10">
      <g>
       <use xlink:href="#m4b6643372c" x="57.6" y="266.924127" style="stroke: #000000; stroke-width: 0.8"/>
      </g>
     </g>
     <g id="text_11">
      <!-- 0 -->
      <g transform="translate(44.2375 270.723345) scale(0.1 -0.1)">
       <use xlink:href="#DejaVuSans-30"/>
      </g>
     </g>
    </g>
    <g id="ytick_3">
     <g id="line2d_11">
      <g>
       <use xlink:href="#m4b6643372c" x="57.6" y="230.927012" style="stroke: #000000; stroke-width: 0.8"/>
      </g>
     </g>
     <g id="text_12">
      <!-- 250 -->
      <g transform="translate(31.5125 234.726231) scale(0.1 -0.1)">
       <use xlink:href="#DejaVuSans-32"/>
       <use xlink:href="#DejaVuSans-35" transform="translate(63.623047 0)"/>
       <use xlink:href="#DejaVuSans-30" transform="translate(127.246094 0)"/>
      </g>
     </g>
    </g>
    <g id="ytick_4">
     <g id="line2d_12">
      <g>
       <use xlink:href="#m4b6643372c" x="57.6" y="194.929898" style="stroke: #000000; stroke-width: 0.8"/>
      </g>
     </g>
     <g id="text_13">
      <!-- 500 -->
      <g transform="translate(31.5125 198.729117) scale(0.1 -0.1)">
       <use xlink:href="#DejaVuSans-35"/>
       <use xlink:href="#DejaVuSans-30" transform="translate(63.623047 0)"/>
       <use xlink:href="#DejaVuSans-30" transform="translate(127.246094 0)"/>
      </g>
     </g>
    </g>
    <g id="ytick_5">
     <g id="line2d_13">
      <g>
       <use xlink:href="#m4b6643372c" x="57.6" y="158.932784" style="stroke: #000000; stroke-width: 0.8"/>
      </g>
     </g>
     <g id="text_14">
      <!-- 750 -->
      <g transform="translate(31.5125 162.732003) scale(0.1 -0.1)">
       <use xlink:href="#DejaVuSans-37"/>
       <use xlink:href="#DejaVuSans-35" transform="translate(63.623047 0)"/>
       <use xlink:href="#DejaVuSans-30" transform="translate(127.246094 0)"/>
      </g>
     </g>
    </g>
    <g id="ytick_6">
     <g id="line2d_14">
      <g>
       <use xlink:href="#m4b6643372c" x="57.6" y="122.93567" style="stroke: #000000; stroke-width: 0.8"/>
      </g>
     </g>
     <g id="text_15">
      <!-- 1000 -->
      <g transform="translate(25.15 126.734889) scale(0.1 -0.1)">
       <use xlink:href="#DejaVuSans-31"/>
       <use xlink:href="#DejaVuSans-30" transform="translate(63.623047 0)"/>
       <use xlink:href="#DejaVuSans-30" transform="translate(127.246094 0)"/>
       <use xlink:href="#DejaVuSans-30" transform="translate(190.869141 0)"/>
      </g>
     </g>
    </g>
    <g id="ytick_7">
     <g id="line2d_15">
      <g>
       <use xlink:href="#m4b6643372c" x="57.6" y="86.938556" style="stroke: #000000; stroke-width: 0.8"/>
      </g>
     </g>
     <g id="text_16">
      <!-- 1250 -->
      <g transform="translate(25.15 90.737775) scale(0.1 -0.1)">
       <use xlink:href="#DejaVuSans-31"/>
       <use xlink:href="#DejaVuSans-32" transform="translate(63.623047 0)"/>
       <use xlink:href="#DejaVuSans-35" transform="translate(127.246094 0)"/>
       <use xlink:href="#DejaVuSans-30" transform="translate(190.869141 0)"/>
      </g>
     </g>
    </g>
    <g id="ytick_8">
     <g id="line2d_16">
      <g>
       <use xlink:href="#m4b6643372c" x="57.6" y="50.941442" style="stroke: #000000; stroke-width: 0.8"/>
      </g>
     </g>
     <g id="text_17">
      <!-- 1500 -->
      <g transform="translate(25.15 54.740661) scale(0.1 -0.1)">
       <use xlink:href="#DejaVuSans-31"/>
       <use xlink:href="#DejaVuSans-35" transform="translate(63.623047 0)"/>
       <use xlink:href="#DejaVuSans-30" transform="translate(127.246094 0)"/>
       <use xlink:href="#DejaVuSans-30" transform="translate(190.869141 0)"/>
      </g>
     </g>
    </g>
    <g id="text_18">
     <!-- Stress [Pa] -->
     <g transform="translate(17.053125 201.235813) rotate(-90) scale(0.1 -0.1)">
      <defs>
       <path id="DejaVuSans-65" d="M 3597 1894 
L 3597 1613 
L 953 1613 
Q 991 1019 1311 708 
Q 1631 397 2203 397 
Q 2534 397 2845 478 
Q 3156 559 3463 722 
L 3463 178 
Q 3153 47 2828 -22 
Q 2503 -91 2169 -91 
Q 1331 -91 842 396 
Q 353 884 353 1716 
Q 353 2575 817 3079 
Q 1281 3584 2069 3584 
Q 2775 3584 3186 3129 
Q 3597 2675 3597 1894 
z
M 3022 2063 
Q 3016 2534 2758 2815 
Q 2500 3097 2075 3097 
Q 1594 3097 1305 2825 
Q 1016 2553 972 2059 
L 3022 2063 
z
" transform="scale(0.015625)"/>
       <path id="DejaVuSans-73" d="M 2834 3397 
L 2834 2853 
Q 2591 2978 2328 3040 
Q 2066 3103 1784 3103 
Q 1356 3103 1142 2972 
Q 928 2841 928 2578 
Q 928 2378 1081 2264 
Q 1234 2150 1697 2047 
L 1894 2003 
Q 2506 1872 2764 1633 
Q 3022 1394 3022 966 
Q 3022 478 2636 193 
Q 2250 -91 1575 -91 
Q 1294 -91 989 -36 
Q 684 19 347 128 
L 347 722 
Q 666 556 975 473 
Q 1284 391 1588 391 
Q 1994 391 2212 530 
Q 2431 669 2431 922 
Q 2431 1156 2273 1281 
Q 2116 1406 1581 1522 
L 1381 1569 
Q 847 1681 609 1914 
Q 372 2147 372 2553 
Q 372 3047 722 3315 
Q 1072 3584 1716 3584 
Q 2034 3584 2315 3537 
Q 2597 3491 2834 3397 
z
" transform="scale(0.015625)"/>
       <path id="DejaVuSans-20" transform="scale(0.015625)"/>
       <path id="DejaVuSans-5b" d="M 550 4863 
L 1875 4863 
L 1875 4416 
L 1125 4416 
L 1125 -397 
L 1875 -397 
L 1875 -844 
L 550 -844 
L 550 4863 
z
" transform="scale(0.015625)"/>
       <path id="DejaVuSans-50" d="M 1259 4147 
L 1259 2394 
L 2053 2394 
Q 2494 2394 2734 2622 
Q 2975 2850 2975 3272 
Q 2975 3691 2734 3919 
Q 2494 4147 2053 4147 
L 1259 4147 
z
M 628 4666 
L 2053 4666 
Q 2838 4666 3239 4311 
Q 3641 3956 3641 3272 
Q 3641 2581 3239 2228 
Q 2838 1875 2053 1875 
L 1259 1875 
L 1259 0 
L 628 0 
L 628 4666 
z
" transform="scale(0.015625)"/>
       <path id="DejaVuSans-5d" d="M 1947 4863 
L 1947 -844 
L 622 -844 
L 622 -397 
L 1369 -397 
L 1369 4416 
L 622 4416 
L 622 4863 
L 1947 4863 
z
" transform="scale(0.015625)"/>
      </defs>
      <use xlink:href="#DejaVuSans-53"/>
      <use xlink:href="#DejaVuSans-74" transform="translate(63.476562 0)"/>
      <use xlink:href="#DejaVuSans-72" transform="translate(102.685547 0)"/>
      <use xlink:href="#DejaVuSans-65" transform="translate(141.548828 0)"/>
      <use xlink:href="#DejaVuSans-73" transform="translate(203.072266 0)"/>
      <use xlink:href="#DejaVuSans-73" transform="translate(255.171875 0)"/>
      <use xlink:href="#DejaVuSans-20" transform="translate(307.271484 0)"/>
      <use xlink:href="#DejaVuSans-5b" transform="translate(339.058594 0)"/>
      <use xlink:href="#DejaVuSans-50" transform="translate(378.072266 0)"/>
      <use xlink:href="#DejaVuSans-61" transform="translate(433.875 0)"/>
      <use xlink:href="#DejaVuSans-5d" transform="translate(495.154297 0)"/>
     </g>
    </g>
   </g>
   <g id="line2d_17">
    <path d="M 73.968643 268.329794 
L 73.968643 268.574788 
L 73.968643 268.282599 
L 74.003994 268.48996 
L 74.665635 265.831735 
L 75.339525 266.540917 
L 76.006115 266.661743 
L 77.32618 267.531233 
L 77.99178 267.698445 
L 78.685836 268.910934 
L 79.364055 268.6829 
L 80.708369 266.931932 
L 81.373347 266.708083 
L 82.048103 266.614366 
L 82.72558 266.695229 
L 83.386478 266.636707 
L 84.040573 266.354681 
L 84.705802 265.61708 
L 86.022775 265.044832 
L 88.025266 264.757142 
L 90.019468 263.713193 
L 95.35862 261.386903 
L 96.667552 261.014637 
L 97.322974 260.844182 
L 99.350951 259.709133 
L 100.028676 259.277158 
L 101.351958 258.83953 
L 102.678457 258.382779 
L 107.989403 255.624704 
L 108.663664 255.135777 
L 109.973337 254.646206 
L 111.286722 253.946775 
L 111.960488 253.561507 
L 112.625717 252.949875 
L 113.973858 252.334736 
L 115.286254 251.840194 
L 116.606567 251.051674 
L 119.917989 249.118468 
L 121.238673 248.42359 
L 122.569997 247.533308 
L 123.922972 246.76505 
L 125.225222 246.075673 
L 127.864117 244.725832 
L 129.180471 244.080887 
L 133.178997 241.871782 
L 135.17654 240.599799 
L 138.500705 238.667125 
L 139.809632 238.094345 
L 149.098589 232.471703 
L 149.756766 232.222611 
L 151.090441 231.404647 
L 151.764701 230.843554 
L 153.743439 229.847375 
L 155.097651 229.257863 
L 156.431573 228.440659 
L 157.770072 227.401718 
L 159.733716 226.456418 
L 161.038688 225.655528 
L 162.366486 224.881374 
L 163.038767 224.595136 
L 165.712674 222.814801 
L 167.041152 222.201954 
L 168.349588 221.412827 
L 170.357028 219.995297 
L 172.995675 218.595524 
L 173.669688 218.152356 
L 174.343701 217.569408 
L 175.019198 217.166611 
L 176.34644 216.227991 
L 177.003627 215.889392 
L 177.661804 215.690119 
L 180.979954 213.667952 
L 182.984177 212.457739 
L 185.642371 210.900277 
L 187.632243 209.511811 
L 188.958495 208.894526 
L 190.284994 207.989067 
L 190.962966 207.644246 
L 192.973375 206.332385 
L 193.625366 206.037876 
L 194.953443 205.209047 
L 196.257673 204.52115 
L 197.60941 203.419301 
L 199.639614 202.144663 
L 200.998774 201.295055 
L 203.007204 199.900442 
L 204.323056 199.262326 
L 206.936959 197.737115 
L 208.261973 196.860569 
L 209.585998 195.853576 
L 210.245412 195.381876 
L 212.226129 194.416344 
L 215.581595 191.963213 
L 217.555879 190.802098 
L 219.581629 189.110168 
L 222.237102 187.892974 
L 222.902702 187.409284 
L 224.211138 186.17919 
L 224.890842 185.749567 
L 226.224269 185.2896 
L 227.540531 184.497229 
L 228.211079 183.994719 
L 228.878412 183.342564 
L 230.204168 182.472316 
L 230.856654 182.082571 
L 231.515079 181.527929 
L 232.173998 181.199423 
L 234.152241 179.736589 
L 236.128999 178.711119 
L 237.431992 177.773485 
L 238.108974 177.392543 
L 239.455515 176.403762 
L 240.765931 175.570584 
L 241.420149 175.033167 
L 243.413733 173.837524 
L 246.083479 171.806361 
L 248.08597 170.680077 
L 251.390959 168.421059 
L 254.045318 166.600276 
L 256.051274 164.950918 
L 258.018629 163.944912 
L 259.325334 163.156619 
L 261.312175 161.637707 
L 262.637931 160.761312 
L 263.966657 159.749008 
L 264.631763 159.046617 
L 265.311961 158.545397 
L 266.636481 157.885198 
L 267.29441 157.316517 
L 268.622147 156.372888 
L 269.971905 155.302607 
L 270.644928 154.994894 
L 280.6351 148.030699 
L 281.313567 147.418156 
L 282.629426 146.565361 
L 284.642805 144.940969 
L 285.994542 144.043175 
L 289.328234 141.743634 
L 291.345076 140.138062 
L 293.956149 138.37867 
L 294.636101 138.005392 
L 295.972002 136.883358 
L 298.623268 134.577671 
L 299.285652 134.196956 
L 301.925536 132.191622 
L 305.273084 129.63043 
L 306.602304 128.437975 
L 309.949017 126.198516 
L 311.905733 124.565321 
L 312.559456 124.2205 
L 314.559226 122.669792 
L 315.892653 121.730944 
L 317.223853 120.954035 
L 320.538493 118.084295 
L 322.508075 116.784159 
L 324.472461 115.187541 
L 326.481881 113.488316 
L 327.1408 113.091818 
L 334.535287 107.154962 
L 335.879106 106.342993 
L 343.147262 100.158089 
L 343.803707 99.736776 
L 347.782461 96.452705 
L 349.104259 95.493671 
L 352.465416 92.554497 
L 354.44737 91.121942 
L 356.450728 89.268681 
L 357.127864 88.592622 
L 359.110314 87.211061 
L 363.751452 83.23196 
L 365.082899 82.126317 
L 369.043839 78.520418 
L 370.347079 77.508872 
L 370.997585 77.06487 
L 374.309255 74.093862 
L 375.643425 73.22331 
L 376.977842 72.028578 
L 378.318568 70.709547 
L 384.924216 64.945709 
L 386.2329 63.813202 
L 388.255681 61.764006 
L 391.540535 59.157113 
L 392.885592 57.757037 
L 398.487273 53.568 
L 398.283572 58.946096 
L 398.288118 69.196895 
L 398.276767 82.530101 
L 397.619116 82.768304 
L 396.300473 85.992881 
L 394.959376 85.763765 
L 394.300209 85.955299 
L 393.616051 86.300651 
L 392.921748 86.47862 
L 392.237591 86.373463 
L 391.536855 86.793581 
L 390.857646 86.612045 
L 390.19452 88.293654 
L 389.538322 89.460461 
L 388.85367 90.267573 
L 388.198957 91.624091 
L 387.514799 93.307218 
L 386.818764 93.079146 
L 386.143514 92.665422 
L 385.490781 92.859194 
L 384.17888 93.855107 
L 383.521198 93.846039 
L 382.858815 94.561198 
L 382.198411 97.222178 
L 381.528233 98.024281 
L 380.86387 98.361438 
L 380.212869 98.470427 
L 378.860142 99.204766 
L 377.523869 100.361403 
L 374.867654 103.34848 
L 373.533485 104.503904 
L 372.86838 105.284304 
L 372.202532 105.709297 
L 371.522828 105.882979 
L 370.869105 106.316661 
L 370.19336 107.007062 
L 369.54409 107.508965 
L 368.198415 109.709314 
L 366.840863 110.431103 
L 366.163139 110.899541 
L 365.50991 111.165916 
L 364.172648 113.146208 
L 361.49936 114.970329 
L 360.169521 116.885968 
L 359.511375 117.463746 
L 358.163102 118.144927 
L 357.491934 118.67946 
L 356.163456 120.214764 
L 354.816172 121.280795 
L 353.486951 122.048067 
L 351.498811 124.122457 
L 350.842366 124.685978 
L 348.855463 126.036426 
L 346.153226 128.389921 
L 344.801241 129.51666 
L 342.111313 131.961567 
L 341.45759 132.374305 
L 336.80507 136.179326 
L 334.84291 137.595187 
L 333.51369 138.867018 
L 331.478026 140.727109 
L 329.509434 142.188121 
L 328.857195 142.827375 
L 325.565304 145.018163 
L 323.551802 146.935319 
L 322.24683 147.781133 
L 320.904495 148.896489 
L 319.556222 150.014046 
L 316.899265 151.796886 
L 314.228452 154.260869 
L 312.264808 155.49582 
L 308.955442 158.203678 
L 307.62919 159.041371 
L 305.656268 160.851454 
L 304.333233 161.572626 
L 302.990279 162.721372 
L 302.31738 163.361082 
L 301.655244 163.811231 
L 300.317858 164.470216 
L 298.972801 165.692114 
L 297.6489 166.840632 
L 295.666698 167.917136 
L 290.333284 171.970651 
L 287.025201 174.145057 
L 285.032113 175.616542 
L 283.691262 176.382145 
L 280.336539 179.043884 
L 278.995441 179.865869 
L 277.670721 181.034383 
L 274.332328 183.178662 
L 272.99989 184.258201 
L 271.701351 184.9088 
L 271.029565 185.335198 
L 269.687107 186.579255 
L 269.027445 187.033502 
L 267.686595 187.798796 
L 266.354158 188.738631 
L 265.024937 189.83236 
L 262.341427 191.555896 
L 261.673105 192.240378 
L 260.338193 193.057127 
L 259.02951 193.76316 
L 257.033452 195.240032 
L 256.372553 195.655882 
L 255.043084 196.142835 
L 254.370432 196.63844 
L 253.709162 197.392736 
L 252.379694 198.386221 
L 250.385121 199.508634 
L 249.06555 200.833737 
L 248.416033 201.322132 
L 246.420222 202.089177 
L 245.7459 202.536935 
L 243.73945 204.178933 
L 241.75032 205.059198 
L 239.053031 207.169405 
L 236.371083 208.62116 
L 235.69707 209.024146 
L 235.022068 209.57454 
L 231.646807 211.647867 
L 230.302988 212.775972 
L 228.996593 213.312322 
L 227.636937 214.252612 
L 224.328855 216.156868 
L 222.307806 217.603234 
L 220.977843 218.281152 
L 219.647385 219.217875 
L 216.970386 221.053 
L 215.666404 221.688915 
L 214.993381 221.961892 
L 211.630956 224.174388 
L 210.282435 224.793533 
L 209.61535 225.271152 
L 208.947276 225.893712 
L 207.617065 226.73391 
L 206.965074 227.04538 
L 204.953922 228.389607 
L 202.982615 229.375276 
L 199.66476 231.459152 
L 199.000397 231.692574 
L 197.016393 232.845595 
L 190.333669 236.955673 
L 187.728426 238.254519 
L 186.398958 238.98567 
L 185.067758 239.795514 
L 183.750166 240.499043 
L 180.429225 242.538595 
L 177.779939 243.868781 
L 177.105926 244.437463 
L 176.426964 244.841853 
L 175.066319 245.476365 
L 171.077915 247.677216 
L 170.398211 247.96592 
L 169.056618 248.6792 
L 168.390523 249.048987 
L 167.719851 249.5946 
L 167.06786 249.960062 
L 165.734185 250.509886 
L 163.748303 251.62457 
L 163.077754 252.221329 
L 161.774019 252.919811 
L 159.79058 253.889127 
L 157.81976 254.866297 
L 156.492395 255.465826 
L 155.162927 256.479952 
L 153.173797 257.174943 
L 152.504733 257.538432 
L 151.195554 258.627532 
L 148.519537 259.749229 
L 146.504798 261.172754 
L 145.197104 261.655344 
L 143.869368 262.657784 
L 141.889393 263.584491 
L 141.209194 263.731705 
L 140.543965 264.099595 
L 139.218085 265.109395 
L 137.242815 265.919922 
L 134.579672 267.27682 
L 133.919268 267.433674 
L 131.931082 268.576913 
L 130.604335 269.434716 
L 128.639702 270.429681 
L 127.974596 270.537134 
L 127.312955 270.797344 
L 125.326918 271.991469 
L 124.664782 272.59703 
L 122.692973 273.29142 
L 120.684048 274.632154 
L 118.687742 275.229814 
L 118.024122 275.634281 
L 117.359759 276.278089 
L 116.030287 276.737873 
L 114.697478 277.132703 
L 113.356752 278.357153 
L 112.03149 278.507474 
L 110.678268 278.888473 
L 109.356718 280.410041 
L 107.356948 280.721573 
L 106.704215 280.748999 
L 106.031934 281.237475 
L 105.358787 282.052479 
L 103.347388 282.426363 
L 102.674983 282.629554 
L 102.015445 283.299959 
L 101.335246 284.259806 
L 100.686472 284.007868 
L 98.695316 284.435628 
L 98.041964 284.8185 
L 97.379581 286.170769 
L 96.074361 286.052443 
L 94.770873 286.299401 
L 94.099459 286.709901 
L 93.448705 287.883538 
L 91.485803 287.938353 
L 90.157572 288.399899 
L 89.495807 289.584311 
L 86.224221 290.192101 
L 85.547487 291.329464 
L 84.877804 291.522383 
L 84.197605 291.463105 
L 82.875443 291.742542 
L 82.215905 291.935102 
L 81.537562 293.118148 
L 80.869983 293.447905 
L 79.511317 293.504371 
L 78.190138 293.689414 
L 77.516125 294.856827 
L 76.85436 295.148496 
L 76.192224 294.963882 
L 75.52848 294.931313 
L 74.877231 294.777215 
L 74.22858 294.952613 
L 74.02672 295.488 
L 74.005255 295.478168 
L 73.832727 294.574763 
L 73.83329 294.575588 
" clip-path="url(#pfbc19a258f)" style="fill: none; stroke: #ff0000; stroke-width: 1.5; stroke-linecap: square"/>
   </g>
   <g id="line2d_18">
    <path d="M 73.968643 268.329794 
L 73.968643 268.574788 
L 73.968643 268.282599 
L 74.003994 268.48996 
L 74.665635 265.831735 
L 75.339525 266.540917 
L 76.006115 266.661743 
L 76.670725 267.137086 
L 77.32618 270.363124 
L 77.99178 269.761945 
L 78.685836 270.274472 
L 79.364055 269.646828 
L 80.046481 268.092705 
L 80.708369 266.934474 
L 81.373347 266.708083 
L 82.048103 266.614366 
L 82.72558 266.695229 
L 83.386478 266.636707 
L 84.040573 266.354681 
L 84.705802 265.61708 
L 86.022775 265.044832 
L 88.025266 264.757142 
L 90.019468 263.713193 
L 95.35862 261.386903 
L 96.667552 261.014637 
L 97.322974 260.844182 
L 99.350951 259.709133 
L 100.028676 259.277158 
L 101.351958 258.83953 
L 102.678457 258.382779 
L 107.989403 255.624704 
L 108.663664 255.135777 
L 109.973337 254.646206 
L 111.286722 253.946775 
L 111.960488 253.561507 
L 112.625717 252.949875 
L 113.973858 252.334736 
L 115.286254 251.840194 
L 116.606567 251.051674 
L 119.917989 249.118468 
L 121.238673 248.42359 
L 122.569997 247.533308 
L 123.922972 246.76505 
L 125.225222 246.075673 
L 127.864117 244.725832 
L 129.180471 244.080887 
L 133.178997 241.871782 
L 135.17654 240.599799 
L 138.500705 238.667125 
L 139.809632 238.094345 
L 149.098589 232.471703 
L 149.756766 232.222611 
L 151.090441 231.404647 
L 151.764701 230.843554 
L 153.743439 229.847375 
L 155.097651 229.257863 
L 156.431573 228.440659 
L 157.770072 227.401718 
L 159.733716 226.456418 
L 161.038688 225.655528 
L 162.366486 224.881374 
L 163.038767 224.595136 
L 165.712674 222.814801 
L 167.041152 222.201954 
L 168.349588 221.412827 
L 170.357028 219.995297 
L 172.995675 218.595524 
L 173.669688 218.152356 
L 174.343701 217.569408 
L 175.019198 217.166611 
L 176.34644 216.227991 
L 177.003627 215.889392 
L 177.661804 215.690119 
L 180.979954 213.667952 
L 182.984177 212.457739 
L 185.642371 210.900277 
L 187.632243 209.511811 
L 188.958495 208.894526 
L 190.284994 207.989067 
L 190.962966 207.644246 
L 192.973375 206.332385 
L 193.625366 206.037876 
L 194.953443 205.209047 
L 196.257673 204.52115 
L 197.60941 203.419301 
L 199.639614 202.144663 
L 200.998774 201.295055 
L 203.007204 199.900442 
L 204.323056 199.262326 
L 206.936959 197.737115 
L 208.261973 196.860569 
L 209.585998 195.853576 
L 210.245412 195.381876 
L 212.226129 194.416344 
L 215.581595 191.963213 
L 217.555879 190.802098 
L 219.581629 189.110168 
L 222.237102 187.892974 
L 222.902702 187.409284 
L 224.211138 186.17919 
L 224.890842 185.749567 
L 226.224269 185.2896 
L 227.540531 184.497229 
L 228.211079 183.994719 
L 228.878412 183.342564 
L 230.204168 182.472316 
L 230.856654 182.082571 
L 231.515079 181.527929 
L 232.173998 181.199423 
L 234.152241 179.736589 
L 236.128999 178.711119 
L 237.431992 177.773485 
L 238.108974 177.392543 
L 239.455515 176.403762 
L 240.765931 175.570584 
L 241.420149 175.033167 
L 243.413733 173.837524 
L 246.083479 171.806361 
L 248.08597 170.680077 
L 251.390959 168.421059 
L 254.045318 166.600276 
L 256.051274 164.950918 
L 258.018629 163.944912 
L 259.325334 163.156619 
L 261.312175 161.637707 
L 262.637931 160.761312 
L 263.966657 159.749008 
L 264.631763 159.046617 
L 265.311961 158.545397 
L 266.636481 157.885198 
L 267.29441 157.316517 
L 268.622147 156.372888 
L 269.971905 155.302607 
L 270.644928 154.994894 
L 280.6351 148.030699 
L 281.313567 147.418156 
L 282.629426 146.565361 
L 284.642805 144.940969 
L 285.994542 144.043175 
L 289.328234 141.743634 
L 291.345076 140.138062 
L 293.956149 138.37867 
L 294.636101 138.005392 
L 295.972002 136.883358 
L 298.623268 134.577671 
L 299.285652 134.196956 
L 301.925536 132.191622 
L 305.273084 129.63043 
L 306.602304 128.437975 
L 309.949017 126.198516 
L 311.905733 124.565321 
L 312.559456 124.2205 
L 314.559226 122.669792 
L 315.892653 121.730944 
L 317.223853 120.954035 
L 320.538493 118.084295 
L 322.508075 116.784159 
L 324.472461 115.187541 
L 326.481881 113.488316 
L 327.1408 113.091818 
L 334.535287 107.154962 
L 335.879106 106.342993 
L 343.147262 100.158089 
L 343.803707 99.736776 
L 347.782461 96.452705 
L 349.104259 95.493671 
L 352.465416 92.554497 
L 354.44737 91.121942 
L 356.450728 89.268681 
L 357.127864 88.592622 
L 359.110314 87.211061 
L 363.751452 83.23196 
L 365.082899 82.126317 
L 369.043839 78.520418 
L 370.347079 77.508872 
L 370.997585 77.06487 
L 374.309255 74.093862 
L 375.643425 73.22331 
L 376.977842 72.028578 
L 378.318568 70.709547 
L 384.924216 64.945709 
L 386.2329 63.813202 
L 388.255681 61.764006 
L 391.540535 59.157113 
L 392.885592 57.757037 
L 398.487273 53.568 
L 398.453745 54.180638 
L 398.364792 54.152603 
L 398.33541 53.93856 
L 398.284438 68.568321 
L 398.286819 69.464181 
L 398.28685 68.497824 
L 398.286417 69.344643 
L 398.276767 82.530101 
L 397.619116 82.768304 
L 396.300473 85.992881 
L 394.959376 85.763765 
L 394.300209 85.955299 
L 393.616051 86.300651 
L 392.921748 86.47862 
L 392.237591 86.373463 
L 391.536855 86.793581 
L 390.857646 86.612045 
L 390.19452 88.293654 
L 389.538322 89.460461 
L 388.85367 90.267573 
L 388.198957 91.624091 
L 387.514799 93.307218 
L 386.818764 93.079146 
L 386.143514 92.665422 
L 385.490781 92.859194 
L 384.17888 93.855107 
L 383.521198 93.846039 
L 382.858815 94.561198 
L 382.198411 97.222178 
L 381.528233 98.024281 
L 380.86387 98.361438 
L 380.212869 98.470427 
L 378.860142 99.204766 
L 377.523869 100.361403 
L 374.867654 103.34848 
L 373.533485 104.503904 
L 372.86838 105.284304 
L 372.202532 105.709297 
L 371.522828 105.882979 
L 370.869105 106.316661 
L 370.19336 107.007062 
L 369.54409 107.508965 
L 368.198415 109.709314 
L 366.840863 110.431103 
L 366.163139 110.899541 
L 365.50991 111.165916 
L 364.172648 113.146208 
L 361.49936 114.970329 
L 360.169521 116.885968 
L 359.511375 117.463746 
L 358.163102 118.144927 
L 357.491934 118.67946 
L 356.163456 120.214764 
L 354.816172 121.280795 
L 353.486951 122.048067 
L 351.498811 124.122457 
L 350.842366 124.685978 
L 348.855463 126.036426 
L 346.153226 128.389921 
L 344.801241 129.51666 
L 342.111313 131.961567 
L 341.45759 132.374305 
L 336.80507 136.179326 
L 334.84291 137.595187 
L 333.51369 138.867018 
L 331.478026 140.727109 
L 329.509434 142.188121 
L 328.857195 142.827375 
L 325.565304 145.018163 
L 323.551802 146.935319 
L 322.24683 147.781133 
L 320.904495 148.896489 
L 319.556222 150.014046 
L 316.899265 151.796886 
L 314.228452 154.260869 
L 312.264808 155.49582 
L 308.955442 158.203678 
L 307.62919 159.041371 
L 305.656268 160.851454 
L 304.333233 161.572626 
L 302.990279 162.721372 
L 302.31738 163.361082 
L 301.655244 163.811231 
L 300.317858 164.470216 
L 298.972801 165.692114 
L 297.6489 166.840632 
L 295.666698 167.917136 
L 290.333284 171.970651 
L 287.025201 174.145057 
L 285.032113 175.616542 
L 283.691262 176.382145 
L 280.336539 179.043884 
L 278.995441 179.865869 
L 277.670721 181.034383 
L 274.332328 183.178662 
L 272.99989 184.258201 
L 271.701351 184.9088 
L 271.029565 185.335198 
L 269.687107 186.579255 
L 269.027445 187.033502 
L 267.686595 187.798796 
L 266.354158 188.738631 
L 265.024937 189.83236 
L 262.341427 191.555896 
L 261.673105 192.240378 
L 260.338193 193.057127 
L 259.02951 193.76316 
L 257.033452 195.240032 
L 256.372553 195.655882 
L 255.043084 196.142835 
L 254.370432 196.63844 
L 253.709162 197.392736 
L 252.379694 198.386221 
L 250.385121 199.508634 
L 249.06555 200.833737 
L 248.416033 201.322132 
L 246.420222 202.089177 
L 245.7459 202.536935 
L 243.73945 204.178933 
L 241.75032 205.059198 
L 239.053031 207.169405 
L 236.371083 208.62116 
L 235.69707 209.024146 
L 235.022068 209.57454 
L 231.646807 211.647867 
L 230.302988 212.775972 
L 228.996593 213.312322 
L 227.636937 214.252612 
L 224.328855 216.156868 
L 222.307806 217.603234 
L 220.977843 218.281152 
L 219.647385 219.217875 
L 216.970386 221.053 
L 215.666404 221.688915 
L 214.993381 221.961892 
L 211.630956 224.174388 
L 210.282435 224.793533 
L 209.61535 225.271152 
L 208.947276 225.893712 
L 207.617065 226.73391 
L 206.965074 227.04538 
L 204.953922 228.389607 
L 202.982615 229.375276 
L 199.66476 231.459152 
L 199.000397 231.692574 
L 197.016393 232.845595 
L 190.333669 236.955673 
L 187.728426 238.254519 
L 186.398958 238.98567 
L 185.067758 239.795514 
L 183.750166 240.499043 
L 180.429225 242.538595 
L 177.779939 243.868781 
L 177.105926 244.437463 
L 176.426964 244.841853 
L 175.066319 245.476365 
L 171.077915 247.677216 
L 170.398211 247.96592 
L 169.056618 248.6792 
L 168.390523 249.048987 
L 167.719851 249.5946 
L 167.06786 249.960062 
L 165.734185 250.509886 
L 163.748303 251.62457 
L 163.077754 252.221329 
L 161.774019 252.919811 
L 159.79058 253.889127 
L 157.81976 254.866297 
L 156.492395 255.465826 
L 155.162927 256.479952 
L 153.173797 257.174943 
L 152.504733 257.538432 
L 151.195554 258.627532 
L 148.519537 259.749229 
L 146.504798 261.172754 
L 145.197104 261.655344 
L 143.869368 262.657784 
L 141.889393 263.584491 
L 141.209194 263.731705 
L 140.543965 264.099595 
L 139.218085 265.109395 
L 137.242815 265.919922 
L 134.579672 267.27682 
L 133.919268 267.433674 
L 131.931082 268.576913 
L 130.604335 269.434716 
L 128.639702 270.429681 
L 127.974596 270.537134 
L 127.312955 270.797344 
L 125.326918 271.991469 
L 124.664782 272.59703 
L 122.692973 273.29142 
L 120.684048 274.632154 
L 118.687742 275.229814 
L 118.024122 275.634281 
L 117.359759 276.278089 
L 116.030287 276.737873 
L 114.697478 277.132703 
L 113.356752 278.357153 
L 112.03149 278.507474 
L 110.678268 278.888473 
L 109.356718 280.410041 
L 107.356948 280.721573 
L 106.704215 280.748999 
L 106.031934 281.237475 
L 105.358787 282.052479 
L 103.347388 282.426363 
L 102.674983 282.629554 
L 102.015445 283.299959 
L 101.335246 284.259806 
L 100.686472 284.007868 
L 98.695316 284.435628 
L 98.041964 284.8185 
L 97.379581 286.170769 
L 96.074361 286.052443 
L 94.770873 286.299401 
L 94.099459 286.709901 
L 93.448705 287.883538 
L 91.485803 287.938353 
L 90.157572 288.399899 
L 89.495807 289.584311 
L 86.224221 290.192101 
L 85.547487 291.329464 
L 84.877804 291.522383 
L 84.197605 291.463105 
L 82.875443 291.742542 
L 82.215905 291.935102 
L 81.537562 293.118148 
L 80.869983 293.447905 
L 79.511317 293.504371 
L 78.190138 293.689414 
L 77.516125 294.856827 
L 76.85436 295.148496 
L 76.192224 294.963882 
L 75.52848 294.931313 
L 74.877231 294.777215 
L 74.22858 294.952613 
L 74.02672 295.488 
L 74.005255 295.478168 
L 73.832727 294.574763 
L 73.83329 294.575588 
" clip-path="url(#pfbc19a258f)" style="fill: none; stroke: #000000; stroke-width: 1.5; stroke-linecap: square"/>
   </g>
   <g id="patch_3">
    <path d="M 57.6 307.584 
L 57.6 41.472 
" style="fill: none; stroke: #000000; stroke-width: 0.8; stroke-linejoin: miter; stroke-linecap: square"/>
   </g>
   <g id="patch_4">
    <path d="M 414.72 307.584 
L 414.72 41.472 
" style="fill: none; stroke: #000000; stroke-width: 0.8; stroke-linejoin: miter; stroke-linecap: square"/>
   </g>
   <g id="patch_5">
    <path d="M 57.6 307.584 
L 414.72 307.584 
" style="fill: none; stroke: #000000; stroke-width: 0.8; stroke-linejoin: miter; stroke-linecap: square"/>
   </g>
   <g id="patch_6">
    <path d="M 57.6 41.472 
L 414.72 41.472 
" style="fill: none; stroke: #000000; stroke-width: 0.8; stroke-linejoin: miter; stroke-linecap: square"/>
   </g>
   <g id="text_19">
    <!-- 2025-06-19 trial 20 -->
    <g transform="translate(178.0125 35.472) scale(0.12 -0.12)">
     <defs>
      <path id="DejaVuSans-2d" d="M 313 2009 
L 1997 2009 
L 1997 1497 
L 313 1497 
L 313 2009 
z
" transform="scale(0.015625)"/>
      <path id="DejaVuSans-36" d="M 2113 2584 
Q 1688 2584 1439 2293 
Q 1191 2003 1191 1497 
Q 1191 994 1439 701 
Q 1688 409 2113 409 
Q 2538 409 2786 701 
Q 3034 994 3034 1497 
Q 3034 2003 2786 2293 
Q 2538 2584 2113 2584 
z
M 3366 4563 
L 3366 3988 
Q 3128 4100 2886 4159 
Q 2644 4219 2406 4219 
Q 1781 4219 1451 3797 
Q 1122 3375 1075 2522 
Q 1259 2794 1537 2939 
Q 1816 3084 2150 3084 
Q 2853 3084 3261 2657 
Q 3669 2231 3669 1497 
Q 3669 778 3244 343 
Q 2819 -91 2113 -91 
Q 1303 -91 875 529 
Q 447 1150 447 2328 
Q 447 3434 972 4092 
Q 1497 4750 2381 4750 
Q 2619 4750 2861 4703 
Q 3103 4656 3366 4563 
z
" transform="scale(0.015625)"/>
      <path id="DejaVuSans-39" d="M 703 97 
L 703 672 
Q 941 559 1184 500 
Q 1428 441 1663 441 
Q 2288 441 2617 861 
Q 2947 1281 2994 2138 
Q 2813 1869 2534 1725 
Q 2256 1581 1919 1581 
Q 1219 1581 811 2004 
Q 403 2428 403 3163 
Q 403 3881 828 4315 
Q 1253 4750 1959 4750 
Q 2769 4750 3195 4129 
Q 3622 3509 3622 2328 
Q 3622 1225 3098 567 
Q 2575 -91 1691 -91 
Q 1453 -91 1209 -44 
Q 966 3 703 97 
z
M 1959 2075 
Q 2384 2075 2632 2365 
Q 2881 2656 2881 3163 
Q 2881 3666 2632 3958 
Q 2384 4250 1959 4250 
Q 1534 4250 1286 3958 
Q 1038 3666 1038 3163 
Q 1038 2656 1286 2365 
Q 1534 2075 1959 2075 
z
" transform="scale(0.015625)"/>
      <path id="DejaVuSans-6c" d="M 603 4863 
L 1178 4863 
L 1178 0 
L 603 0 
L 603 4863 
z
" transform="scale(0.015625)"/>
     </defs>
     <use xlink:href="#DejaVuSans-32"/>
     <use xlink:href="#DejaVuSans-30" transform="translate(63.623047 0)"/>
     <use xlink:href="#DejaVuSans-32" transform="translate(127.246094 0)"/>
     <use xlink:href="#DejaVuSans-35" transform="translate(190.869141 0)"/>
     <use xlink:href="#DejaVuSans-2d" transform="translate(254.492188 0)"/>
     <use xlink:href="#DejaVuSans-30" transform="translate(290.576172 0)"/>
     <use xlink:href="#DejaVuSans-36" transform="translate(354.199219 0)"/>
     <use xlink:href="#DejaVuSans-2d" transform="translate(417.822266 0)"/>
     <use xlink:href="#DejaVuSans-31" transform="translate(453.90625 0)"/>
     <use xlink:href="#DejaVuSans-39" transform="translate(517.529297 0)"/>
     <use xlink:href="#DejaVuSans-20" transform="translate(581.152344 0)"/>
     <use xlink:href="#DejaVuSans-74" transform="translate(612.939453 0)"/>
     <use xlink:href="#DejaVuSans-72" transform="translate(652.148438 0)"/>
     <use xlink:href="#DejaVuSans-69" transform="translate(693.261719 0)"/>
     <use xlink:href="#DejaVuSans-61" transform="translate(721.044922 0)"/>
     <use xlink:href="#DejaVuSans-6c" transform="translate(782.324219 0)"/>
     <use xlink:href="#DejaVuSans-20" transform="translate(810.107422 0)"/>
     <use xlink:href="#DejaVuSans-32" transform="translate(841.894531 0)"/>
     <use xlink:href="#DejaVuSans-30" transform="translate(905.517578 0)"/>
    </g>
   </g>
  </g>
 </g>
 <defs>
  <clipPath id="pfbc19a258f">
   <rect x="57.6" y="41.472" width="357.12" height="266.112"/>
  </clipPath>
 </defs>
</svg>
