<?xml version="1.0" encoding="utf-8" standalone="no"?>
<!DOCTYPE svg PUBLIC "-//W3C//DTD SVG 1.1//EN"
  "http://www.w3.org/Graphics/SVG/1.1/DTD/svg11.dtd">
<svg xmlns:xlink="http://www.w3.org/1999/xlink" width="460.8pt" height="345.6pt" viewBox="0 0 460.8 345.6" xmlns="http://www.w3.org/2000/svg" version="1.1">
 <metadata>
  <rdf:RDF xmlns:dc="http://purl.org/dc/elements/1.1/" xmlns:cc="http://creativecommons.org/ns#" xmlns:rdf="http://www.w3.org/1999/02/22-rdf-syntax-ns#">
   <cc:Work>
    <dc:type rdf:resource="http://purl.org/dc/dcmitype/StillImage"/>
    <dc:date>2025-07-14T21:34:46.146369</dc:date>
    <dc:format>image/svg+xml</dc:format>
    <dc:creator>
     <cc:Agent>
      <dc:title>Matplotlib v3.10.3, https://matplotlib.org/</dc:title>
     </cc:Agent>
    </dc:creator>
   </cc:Work>
  </rdf:RDF>
 </metadata>
 <defs>
  <style type="text/css">*{stroke-linejoin: round; stroke-linecap: butt}</style>
 </defs>
 <g id="figure_1">
  <g id="patch_1">
   <path d="M 0 345.6 
L 460.8 345.6 
L 460.8 0 
L 0 0 
z
" style="fill: #ffffff"/>
  </g>
  <g id="axes_1">
   <g id="patch_2">
    <path d="M 57.6 307.584 
L 414.72 307.584 
L 414.72 41.472 
L 57.6 41.472 
z
" style="fill: #ffffff"/>
   </g>
   <g id="matplotlib.axis_1">
    <g id="xtick_1">
     <g id="line2d_1">
      <defs>
       <path id="m13d8da2dc8" d="M 0 0 
L 0 3.5 
" style="stroke: #000000; stroke-width: 0.8"/>
      </defs>
      <g>
       <use xlink:href="#m13d8da2dc8" x="73.976651" y="307.584" style="stroke: #000000; stroke-width: 0.8"/>
      </g>
     </g>
     <g id="text_1">
      <!-- 0.000 -->
      <g transform="translate(59.662588 322.182437) scale(0.1 -0.1)">
       <defs>
        <path id="DejaVuSans-30" d="M 2034 4250 
Q 1547 4250 1301 3770 
Q 1056 3291 1056 2328 
Q 1056 1369 1301 889 
Q 1547 409 2034 409 
Q 2525 409 2770 889 
Q 3016 1369 3016 2328 
Q 3016 3291 2770 3770 
Q 2525 4250 2034 4250 
z
M 2034 4750 
Q 2819 4750 3233 4129 
Q 3647 3509 3647 2328 
Q 3647 1150 3233 529 
Q 2819 -91 2034 -91 
Q 1250 -91 836 529 
Q 422 1150 422 2328 
Q 422 3509 836 4129 
Q 1250 4750 2034 4750 
z
" transform="scale(0.015625)"/>
        <path id="DejaVuSans-2e" d="M 684 794 
L 1344 794 
L 1344 0 
L 684 0 
L 684 794 
z
" transform="scale(0.015625)"/>
       </defs>
       <use xlink:href="#DejaVuSans-30"/>
       <use xlink:href="#DejaVuSans-2e" transform="translate(63.623047 0)"/>
       <use xlink:href="#DejaVuSans-30" transform="translate(95.410156 0)"/>
       <use xlink:href="#DejaVuSans-30" transform="translate(159.033203 0)"/>
       <use xlink:href="#DejaVuSans-30" transform="translate(222.65625 0)"/>
      </g>
     </g>
    </g>
    <g id="xtick_2">
     <g id="line2d_2">
      <g>
       <use xlink:href="#m13d8da2dc8" x="116.135832" y="307.584" style="stroke: #000000; stroke-width: 0.8"/>
      </g>
     </g>
     <g id="text_2">
      <!-- 0.025 -->
      <g transform="translate(101.82177 322.182437) scale(0.1 -0.1)">
       <defs>
        <path id="DejaVuSans-32" d="M 1228 531 
L 3431 531 
L 3431 0 
L 469 0 
L 469 531 
Q 828 903 1448 1529 
Q 2069 2156 2228 2338 
Q 2531 2678 2651 2914 
Q 2772 3150 2772 3378 
Q 2772 3750 2511 3984 
Q 2250 4219 1831 4219 
Q 1534 4219 1204 4116 
Q 875 4013 500 3803 
L 500 4441 
Q 881 4594 1212 4672 
Q 1544 4750 1819 4750 
Q 2544 4750 2975 4387 
Q 3406 4025 3406 3419 
Q 3406 3131 3298 2873 
Q 3191 2616 2906 2266 
Q 2828 2175 2409 1742 
Q 1991 1309 1228 531 
z
" transform="scale(0.015625)"/>
        <path id="DejaVuSans-35" d="M 691 4666 
L 3169 4666 
L 3169 4134 
L 1269 4134 
L 1269 2991 
Q 1406 3038 1543 3061 
Q 1681 3084 1819 3084 
Q 2600 3084 3056 2656 
Q 3513 2228 3513 1497 
Q 3513 744 3044 326 
Q 2575 -91 1722 -91 
Q 1428 -91 1123 -41 
Q 819 9 494 109 
L 494 744 
Q 775 591 1075 516 
Q 1375 441 1709 441 
Q 2250 441 2565 725 
Q 2881 1009 2881 1497 
Q 2881 1984 2565 2268 
Q 2250 2553 1709 2553 
Q 1456 2553 1204 2497 
Q 953 2441 691 2322 
L 691 4666 
z
" transform="scale(0.015625)"/>
       </defs>
       <use xlink:href="#DejaVuSans-30"/>
       <use xlink:href="#DejaVuSans-2e" transform="translate(63.623047 0)"/>
       <use xlink:href="#DejaVuSans-30" transform="translate(95.410156 0)"/>
       <use xlink:href="#DejaVuSans-32" transform="translate(159.033203 0)"/>
       <use xlink:href="#DejaVuSans-35" transform="translate(222.65625 0)"/>
      </g>
     </g>
    </g>
    <g id="xtick_3">
     <g id="line2d_3">
      <g>
       <use xlink:href="#m13d8da2dc8" x="158.295014" y="307.584" style="stroke: #000000; stroke-width: 0.8"/>
      </g>
     </g>
     <g id="text_3">
      <!-- 0.050 -->
      <g transform="translate(143.980951 322.182437) scale(0.1 -0.1)">
       <use xlink:href="#DejaVuSans-30"/>
       <use xlink:href="#DejaVuSans-2e" transform="translate(63.623047 0)"/>
       <use xlink:href="#DejaVuSans-30" transform="translate(95.410156 0)"/>
       <use xlink:href="#DejaVuSans-35" transform="translate(159.033203 0)"/>
       <use xlink:href="#DejaVuSans-30" transform="translate(222.65625 0)"/>
      </g>
     </g>
    </g>
    <g id="xtick_4">
     <g id="line2d_4">
      <g>
       <use xlink:href="#m13d8da2dc8" x="200.454195" y="307.584" style="stroke: #000000; stroke-width: 0.8"/>
      </g>
     </g>
     <g id="text_4">
      <!-- 0.075 -->
      <g transform="translate(186.140133 322.182437) scale(0.1 -0.1)">
       <defs>
        <path id="DejaVuSans-37" d="M 525 4666 
L 3525 4666 
L 3525 4397 
L 1831 0 
L 1172 0 
L 2766 4134 
L 525 4134 
L 525 4666 
z
" transform="scale(0.015625)"/>
       </defs>
       <use xlink:href="#DejaVuSans-30"/>
       <use xlink:href="#DejaVuSans-2e" transform="translate(63.623047 0)"/>
       <use xlink:href="#DejaVuSans-30" transform="translate(95.410156 0)"/>
       <use xlink:href="#DejaVuSans-37" transform="translate(159.033203 0)"/>
       <use xlink:href="#DejaVuSans-35" transform="translate(222.65625 0)"/>
      </g>
     </g>
    </g>
    <g id="xtick_5">
     <g id="line2d_5">
      <g>
       <use xlink:href="#m13d8da2dc8" x="242.613376" y="307.584" style="stroke: #000000; stroke-width: 0.8"/>
      </g>
     </g>
     <g id="text_5">
      <!-- 0.100 -->
      <g transform="translate(228.299314 322.182437) scale(0.1 -0.1)">
       <defs>
        <path id="DejaVuSans-31" d="M 794 531 
L 1825 531 
L 1825 4091 
L 703 3866 
L 703 4441 
L 1819 4666 
L 2450 4666 
L 2450 531 
L 3481 531 
L 3481 0 
L 794 0 
L 794 531 
z
" transform="scale(0.015625)"/>
       </defs>
       <use xlink:href="#DejaVuSans-30"/>
       <use xlink:href="#DejaVuSans-2e" transform="translate(63.623047 0)"/>
       <use xlink:href="#DejaVuSans-31" transform="translate(95.410156 0)"/>
       <use xlink:href="#DejaVuSans-30" transform="translate(159.033203 0)"/>
       <use xlink:href="#DejaVuSans-30" transform="translate(222.65625 0)"/>
      </g>
     </g>
    </g>
    <g id="xtick_6">
     <g id="line2d_6">
      <g>
       <use xlink:href="#m13d8da2dc8" x="284.772558" y="307.584" style="stroke: #000000; stroke-width: 0.8"/>
      </g>
     </g>
     <g id="text_6">
      <!-- 0.125 -->
      <g transform="translate(270.458495 322.182437) scale(0.1 -0.1)">
       <use xlink:href="#DejaVuSans-30"/>
       <use xlink:href="#DejaVuSans-2e" transform="translate(63.623047 0)"/>
       <use xlink:href="#DejaVuSans-31" transform="translate(95.410156 0)"/>
       <use xlink:href="#DejaVuSans-32" transform="translate(159.033203 0)"/>
       <use xlink:href="#DejaVuSans-35" transform="translate(222.65625 0)"/>
      </g>
     </g>
    </g>
    <g id="xtick_7">
     <g id="line2d_7">
      <g>
       <use xlink:href="#m13d8da2dc8" x="326.931739" y="307.584" style="stroke: #000000; stroke-width: 0.8"/>
      </g>
     </g>
     <g id="text_7">
      <!-- 0.150 -->
      <g transform="translate(312.617677 322.182437) scale(0.1 -0.1)">
       <use xlink:href="#DejaVuSans-30"/>
       <use xlink:href="#DejaVuSans-2e" transform="translate(63.623047 0)"/>
       <use xlink:href="#DejaVuSans-31" transform="translate(95.410156 0)"/>
       <use xlink:href="#DejaVuSans-35" transform="translate(159.033203 0)"/>
       <use xlink:href="#DejaVuSans-30" transform="translate(222.65625 0)"/>
      </g>
     </g>
    </g>
    <g id="xtick_8">
     <g id="line2d_8">
      <g>
       <use xlink:href="#m13d8da2dc8" x="369.090921" y="307.584" style="stroke: #000000; stroke-width: 0.8"/>
      </g>
     </g>
     <g id="text_8">
      <!-- 0.175 -->
      <g transform="translate(354.776858 322.182437) scale(0.1 -0.1)">
       <use xlink:href="#DejaVuSans-30"/>
       <use xlink:href="#DejaVuSans-2e" transform="translate(63.623047 0)"/>
       <use xlink:href="#DejaVuSans-31" transform="translate(95.410156 0)"/>
       <use xlink:href="#DejaVuSans-37" transform="translate(159.033203 0)"/>
       <use xlink:href="#DejaVuSans-35" transform="translate(222.65625 0)"/>
      </g>
     </g>
    </g>
    <g id="xtick_9">
     <g id="line2d_9">
      <g>
       <use xlink:href="#m13d8da2dc8" x="411.250102" y="307.584" style="stroke: #000000; stroke-width: 0.8"/>
      </g>
     </g>
     <g id="text_9">
      <!-- 0.200 -->
      <g transform="translate(396.93604 322.182437) scale(0.1 -0.1)">
       <use xlink:href="#DejaVuSans-30"/>
       <use xlink:href="#DejaVuSans-2e" transform="translate(63.623047 0)"/>
       <use xlink:href="#DejaVuSans-32" transform="translate(95.410156 0)"/>
       <use xlink:href="#DejaVuSans-30" transform="translate(159.033203 0)"/>
       <use xlink:href="#DejaVuSans-30" transform="translate(222.65625 0)"/>
      </g>
     </g>
    </g>
    <g id="text_10">
     <!-- Strain -->
     <g transform="translate(221.348281 335.860562) scale(0.1 -0.1)">
      <defs>
       <path id="DejaVuSans-53" d="M 3425 4513 
L 3425 3897 
Q 3066 4069 2747 4153 
Q 2428 4238 2131 4238 
Q 1616 4238 1336 4038 
Q 1056 3838 1056 3469 
Q 1056 3159 1242 3001 
Q 1428 2844 1947 2747 
L 2328 2669 
Q 3034 2534 3370 2195 
Q 3706 1856 3706 1288 
Q 3706 609 3251 259 
Q 2797 -91 1919 -91 
Q 1588 -91 1214 -16 
Q 841 59 441 206 
L 441 856 
Q 825 641 1194 531 
Q 1563 422 1919 422 
Q 2459 422 2753 634 
Q 3047 847 3047 1241 
Q 3047 1584 2836 1778 
Q 2625 1972 2144 2069 
L 1759 2144 
Q 1053 2284 737 2584 
Q 422 2884 422 3419 
Q 422 4038 858 4394 
Q 1294 4750 2059 4750 
Q 2388 4750 2728 4690 
Q 3069 4631 3425 4513 
z
" transform="scale(0.015625)"/>
       <path id="DejaVuSans-74" d="M 1172 4494 
L 1172 3500 
L 2356 3500 
L 2356 3053 
L 1172 3053 
L 1172 1153 
Q 1172 725 1289 603 
Q 1406 481 1766 481 
L 2356 481 
L 2356 0 
L 1766 0 
Q 1100 0 847 248 
Q 594 497 594 1153 
L 594 3053 
L 172 3053 
L 172 3500 
L 594 3500 
L 594 4494 
L 1172 4494 
z
" transform="scale(0.015625)"/>
       <path id="DejaVuSans-72" d="M 2631 2963 
Q 2534 3019 2420 3045 
Q 2306 3072 2169 3072 
Q 1681 3072 1420 2755 
Q 1159 2438 1159 1844 
L 1159 0 
L 581 0 
L 581 3500 
L 1159 3500 
L 1159 2956 
Q 1341 3275 1631 3429 
Q 1922 3584 2338 3584 
Q 2397 3584 2469 3576 
Q 2541 3569 2628 3553 
L 2631 2963 
z
" transform="scale(0.015625)"/>
       <path id="DejaVuSans-61" d="M 2194 1759 
Q 1497 1759 1228 1600 
Q 959 1441 959 1056 
Q 959 750 1161 570 
Q 1363 391 1709 391 
Q 2188 391 2477 730 
Q 2766 1069 2766 1631 
L 2766 1759 
L 2194 1759 
z
M 3341 1997 
L 3341 0 
L 2766 0 
L 2766 531 
Q 2569 213 2275 61 
Q 1981 -91 1556 -91 
Q 1019 -91 701 211 
Q 384 513 384 1019 
Q 384 1609 779 1909 
Q 1175 2209 1959 2209 
L 2766 2209 
L 2766 2266 
Q 2766 2663 2505 2880 
Q 2244 3097 1772 3097 
Q 1472 3097 1187 3025 
Q 903 2953 641 2809 
L 641 3341 
Q 956 3463 1253 3523 
Q 1550 3584 1831 3584 
Q 2591 3584 2966 3190 
Q 3341 2797 3341 1997 
z
" transform="scale(0.015625)"/>
       <path id="DejaVuSans-69" d="M 603 3500 
L 1178 3500 
L 1178 0 
L 603 0 
L 603 3500 
z
M 603 4863 
L 1178 4863 
L 1178 4134 
L 603 4134 
L 603 4863 
z
" transform="scale(0.015625)"/>
       <path id="DejaVuSans-6e" d="M 3513 2113 
L 3513 0 
L 2938 0 
L 2938 2094 
Q 2938 2591 2744 2837 
Q 2550 3084 2163 3084 
Q 1697 3084 1428 2787 
Q 1159 2491 1159 1978 
L 1159 0 
L 581 0 
L 581 3500 
L 1159 3500 
L 1159 2956 
Q 1366 3272 1645 3428 
Q 1925 3584 2291 3584 
Q 2894 3584 3203 3211 
Q 3513 2838 3513 2113 
z
" transform="scale(0.015625)"/>
      </defs>
      <use xlink:href="#DejaVuSans-53"/>
      <use xlink:href="#DejaVuSans-74" transform="translate(63.476562 0)"/>
      <use xlink:href="#DejaVuSans-72" transform="translate(102.685547 0)"/>
      <use xlink:href="#DejaVuSans-61" transform="translate(143.798828 0)"/>
      <use xlink:href="#DejaVuSans-69" transform="translate(205.078125 0)"/>
      <use xlink:href="#DejaVuSans-6e" transform="translate(232.861328 0)"/>
     </g>
    </g>
   </g>
   <g id="matplotlib.axis_2">
    <g id="ytick_1">
     <g id="line2d_10">
      <defs>
       <path id="mb47048ee0e" d="M 0 0 
L -3.5 0 
" style="stroke: #000000; stroke-width: 0.8"/>
      </defs>
      <g>
       <use xlink:href="#mb47048ee0e" x="57.6" y="279.839554" style="stroke: #000000; stroke-width: 0.8"/>
      </g>
     </g>
     <g id="text_11">
      <!-- 0 -->
      <g transform="translate(44.2375 283.638773) scale(0.1 -0.1)">
       <use xlink:href="#DejaVuSans-30"/>
      </g>
     </g>
    </g>
    <g id="ytick_2">
     <g id="line2d_11">
      <g>
       <use xlink:href="#mb47048ee0e" x="57.6" y="237.478563" style="stroke: #000000; stroke-width: 0.8"/>
      </g>
     </g>
     <g id="text_12">
      <!-- 100 -->
      <g transform="translate(31.5125 241.277782) scale(0.1 -0.1)">
       <use xlink:href="#DejaVuSans-31"/>
       <use xlink:href="#DejaVuSans-30" transform="translate(63.623047 0)"/>
       <use xlink:href="#DejaVuSans-30" transform="translate(127.246094 0)"/>
      </g>
     </g>
    </g>
    <g id="ytick_3">
     <g id="line2d_12">
      <g>
       <use xlink:href="#mb47048ee0e" x="57.6" y="195.117572" style="stroke: #000000; stroke-width: 0.8"/>
      </g>
     </g>
     <g id="text_13">
      <!-- 200 -->
      <g transform="translate(31.5125 198.916791) scale(0.1 -0.1)">
       <use xlink:href="#DejaVuSans-32"/>
       <use xlink:href="#DejaVuSans-30" transform="translate(63.623047 0)"/>
       <use xlink:href="#DejaVuSans-30" transform="translate(127.246094 0)"/>
      </g>
     </g>
    </g>
    <g id="ytick_4">
     <g id="line2d_13">
      <g>
       <use xlink:href="#mb47048ee0e" x="57.6" y="152.756581" style="stroke: #000000; stroke-width: 0.8"/>
      </g>
     </g>
     <g id="text_14">
      <!-- 300 -->
      <g transform="translate(31.5125 156.5558) scale(0.1 -0.1)">
       <defs>
        <path id="DejaVuSans-33" d="M 2597 2516 
Q 3050 2419 3304 2112 
Q 3559 1806 3559 1356 
Q 3559 666 3084 287 
Q 2609 -91 1734 -91 
Q 1441 -91 1130 -33 
Q 819 25 488 141 
L 488 750 
Q 750 597 1062 519 
Q 1375 441 1716 441 
Q 2309 441 2620 675 
Q 2931 909 2931 1356 
Q 2931 1769 2642 2001 
Q 2353 2234 1838 2234 
L 1294 2234 
L 1294 2753 
L 1863 2753 
Q 2328 2753 2575 2939 
Q 2822 3125 2822 3475 
Q 2822 3834 2567 4026 
Q 2313 4219 1838 4219 
Q 1578 4219 1281 4162 
Q 984 4106 628 3988 
L 628 4550 
Q 988 4650 1302 4700 
Q 1616 4750 1894 4750 
Q 2613 4750 3031 4423 
Q 3450 4097 3450 3541 
Q 3450 3153 3228 2886 
Q 3006 2619 2597 2516 
z
" transform="scale(0.015625)"/>
       </defs>
       <use xlink:href="#DejaVuSans-33"/>
       <use xlink:href="#DejaVuSans-30" transform="translate(63.623047 0)"/>
       <use xlink:href="#DejaVuSans-30" transform="translate(127.246094 0)"/>
      </g>
     </g>
    </g>
    <g id="ytick_5">
     <g id="line2d_14">
      <g>
       <use xlink:href="#mb47048ee0e" x="57.6" y="110.39559" style="stroke: #000000; stroke-width: 0.8"/>
      </g>
     </g>
     <g id="text_15">
      <!-- 400 -->
      <g transform="translate(31.5125 114.194809) scale(0.1 -0.1)">
       <defs>
        <path id="DejaVuSans-34" d="M 2419 4116 
L 825 1625 
L 2419 1625 
L 2419 4116 
z
M 2253 4666 
L 3047 4666 
L 3047 1625 
L 3713 1625 
L 3713 1100 
L 3047 1100 
L 3047 0 
L 2419 0 
L 2419 1100 
L 313 1100 
L 313 1709 
L 2253 4666 
z
" transform="scale(0.015625)"/>
       </defs>
       <use xlink:href="#DejaVuSans-34"/>
       <use xlink:href="#DejaVuSans-30" transform="translate(63.623047 0)"/>
       <use xlink:href="#DejaVuSans-30" transform="translate(127.246094 0)"/>
      </g>
     </g>
    </g>
    <g id="ytick_6">
     <g id="line2d_15">
      <g>
       <use xlink:href="#mb47048ee0e" x="57.6" y="68.034599" style="stroke: #000000; stroke-width: 0.8"/>
      </g>
     </g>
     <g id="text_16">
      <!-- 500 -->
      <g transform="translate(31.5125 71.833818) scale(0.1 -0.1)">
       <use xlink:href="#DejaVuSans-35"/>
       <use xlink:href="#DejaVuSans-30" transform="translate(63.623047 0)"/>
       <use xlink:href="#DejaVuSans-30" transform="translate(127.246094 0)"/>
      </g>
     </g>
    </g>
    <g id="text_17">
     <!-- Stress [Pa] -->
     <g transform="translate(25.432812 201.235813) rotate(-90) scale(0.1 -0.1)">
      <defs>
       <path id="DejaVuSans-65" d="M 3597 1894 
L 3597 1613 
L 953 1613 
Q 991 1019 1311 708 
Q 1631 397 2203 397 
Q 2534 397 2845 478 
Q 3156 559 3463 722 
L 3463 178 
Q 3153 47 2828 -22 
Q 2503 -91 2169 -91 
Q 1331 -91 842 396 
Q 353 884 353 1716 
Q 353 2575 817 3079 
Q 1281 3584 2069 3584 
Q 2775 3584 3186 3129 
Q 3597 2675 3597 1894 
z
M 3022 2063 
Q 3016 2534 2758 2815 
Q 2500 3097 2075 3097 
Q 1594 3097 1305 2825 
Q 1016 2553 972 2059 
L 3022 2063 
z
" transform="scale(0.015625)"/>
       <path id="DejaVuSans-73" d="M 2834 3397 
L 2834 2853 
Q 2591 2978 2328 3040 
Q 2066 3103 1784 3103 
Q 1356 3103 1142 2972 
Q 928 2841 928 2578 
Q 928 2378 1081 2264 
Q 1234 2150 1697 2047 
L 1894 2003 
Q 2506 1872 2764 1633 
Q 3022 1394 3022 966 
Q 3022 478 2636 193 
Q 2250 -91 1575 -91 
Q 1294 -91 989 -36 
Q 684 19 347 128 
L 347 722 
Q 666 556 975 473 
Q 1284 391 1588 391 
Q 1994 391 2212 530 
Q 2431 669 2431 922 
Q 2431 1156 2273 1281 
Q 2116 1406 1581 1522 
L 1381 1569 
Q 847 1681 609 1914 
Q 372 2147 372 2553 
Q 372 3047 722 3315 
Q 1072 3584 1716 3584 
Q 2034 3584 2315 3537 
Q 2597 3491 2834 3397 
z
" transform="scale(0.015625)"/>
       <path id="DejaVuSans-20" transform="scale(0.015625)"/>
       <path id="DejaVuSans-5b" d="M 550 4863 
L 1875 4863 
L 1875 4416 
L 1125 4416 
L 1125 -397 
L 1875 -397 
L 1875 -844 
L 550 -844 
L 550 4863 
z
" transform="scale(0.015625)"/>
       <path id="DejaVuSans-50" d="M 1259 4147 
L 1259 2394 
L 2053 2394 
Q 2494 2394 2734 2622 
Q 2975 2850 2975 3272 
Q 2975 3691 2734 3919 
Q 2494 4147 2053 4147 
L 1259 4147 
z
M 628 4666 
L 2053 4666 
Q 2838 4666 3239 4311 
Q 3641 3956 3641 3272 
Q 3641 2581 3239 2228 
Q 2838 1875 2053 1875 
L 1259 1875 
L 1259 0 
L 628 0 
L 628 4666 
z
" transform="scale(0.015625)"/>
       <path id="DejaVuSans-5d" d="M 1947 4863 
L 1947 -844 
L 622 -844 
L 622 -397 
L 1369 -397 
L 1369 4416 
L 622 4416 
L 622 4863 
L 1947 4863 
z
" transform="scale(0.015625)"/>
      </defs>
      <use xlink:href="#DejaVuSans-53"/>
      <use xlink:href="#DejaVuSans-74" transform="translate(63.476562 0)"/>
      <use xlink:href="#DejaVuSans-72" transform="translate(102.685547 0)"/>
      <use xlink:href="#DejaVuSans-65" transform="translate(141.548828 0)"/>
      <use xlink:href="#DejaVuSans-73" transform="translate(203.072266 0)"/>
      <use xlink:href="#DejaVuSans-73" transform="translate(255.171875 0)"/>
      <use xlink:href="#DejaVuSans-20" transform="translate(307.271484 0)"/>
      <use xlink:href="#DejaVuSans-5b" transform="translate(339.058594 0)"/>
      <use xlink:href="#DejaVuSans-50" transform="translate(378.072266 0)"/>
      <use xlink:href="#DejaVuSans-61" transform="translate(433.875 0)"/>
      <use xlink:href="#DejaVuSans-5d" transform="translate(495.154297 0)"/>
     </g>
    </g>
   </g>
   <g id="line2d_16">
    <path d="M 73.976651 281.554274 
L 73.97723 282.221463 
L 73.976592 281.33879 
L 74.639592 275.208381 
L 75.304292 274.287503 
L 75.96392 274.553536 
L 77.338846 280.495547 
L 78.023216 281.633747 
L 78.687297 283.285494 
L 79.341482 286.189838 
L 80.013234 285.460923 
L 80.67781 285.885947 
L 81.334345 278.396709 
L 81.985685 277.803575 
L 82.668818 279.319528 
L 84.001434 280.414675 
L 84.655371 281.219627 
L 85.324773 279.802278 
L 86.000483 277.695621 
L 86.671245 277.527306 
L 87.347203 277.978959 
L 88.004356 277.89927 
L 88.656809 278.415107 
L 89.312619 277.80596 
L 89.976825 276.563446 
L 90.652164 275.871617 
L 91.979585 275.742587 
L 92.644161 275.94741 
L 93.29983 275.687627 
L 94.63022 274.788404 
L 95.282673 274.624081 
L 95.935125 274.002464 
L 96.615289 273.778257 
L 97.288278 273.321457 
L 97.959288 272.586729 
L 98.640441 272.21219 
L 99.294626 272.106413 
L 101.287242 270.877736 
L 101.952065 270.159262 
L 102.627281 269.726317 
L 103.929959 269.483308 
L 104.609381 268.620326 
L 105.912042 267.773159 
L 107.23402 267.459245 
L 107.888699 267.482925 
L 109.884655 265.517489 
L 110.547995 265.056818 
L 111.220736 264.968928 
L 111.890261 265.02556 
L 112.544198 264.938344 
L 113.220156 263.993136 
L 113.897351 263.754995 
L 115.200029 262.965848 
L 115.849513 262.324942 
L 116.525471 261.99523 
L 117.197222 261.14693 
L 117.872438 260.705805 
L 118.553591 260.427849 
L 119.209755 260.626936 
L 119.864187 260.516962 
L 121.20633 259.487192 
L 121.876218 258.853664 
L 122.554898 258.482822 
L 123.211804 258.318416 
L 123.869947 258.024401 
L 124.52339 257.856395 
L 125.196626 257.300695 
L 126.531717 255.641231 
L 127.866808 254.831284 
L 128.525446 254.849351 
L 129.178146 254.722122 
L 129.853856 254.076072 
L 131.178803 253.060215 
L 131.831503 252.846364 
L 132.510182 252.381887 
L 133.860861 251.26803 
L 134.537808 250.956733 
L 135.215003 250.25616 
L 135.867703 250.023587 
L 136.519166 249.955565 
L 137.196856 249.57529 
L 137.871086 248.79624 
L 138.546796 248.601448 
L 139.902671 247.622395 
L 140.583577 247.397075 
L 141.232566 247.327127 
L 142.591409 246.340152 
L 143.946541 245.796398 
L 144.620767 245.191343 
L 145.955858 244.599531 
L 146.610537 244.306648 
L 147.260763 243.798655 
L 147.939938 242.977719 
L 148.619607 242.452444 
L 151.330613 240.930716 
L 152.678075 239.715515 
L 153.328548 239.021732 
L 153.989553 238.847601 
L 154.649675 238.97668 
L 155.303365 238.833331 
L 157.31194 237.074491 
L 158.667567 236.353347 
L 159.98039 235.766501 
L 161.293212 234.841688 
L 161.948387 234.262314 
L 162.601334 234.311391 
L 163.952013 233.545827 
L 165.301702 232.193855 
L 165.981618 231.575144 
L 166.632586 231.22316 
L 167.960997 231.085675 
L 168.633491 230.564894 
L 169.984417 229.036004 
L 170.661936 228.322642 
L 172.668902 227.273792 
L 173.339541 226.813935 
L 175.952321 225.869814 
L 177.967575 223.717789 
L 179.293512 223.329336 
L 179.957593 223.232776 
L 180.614499 222.828326 
L 181.263736 222.584052 
L 181.939199 221.486384 
L 182.616888 220.824595 
L 184.573257 219.66276 
L 185.228431 219.918852 
L 185.877172 219.741079 
L 187.892443 217.892694 
L 189.219864 216.952238 
L 189.869842 216.864293 
L 190.519326 216.609924 
L 191.193799 216.039049 
L 192.540271 214.140507 
L 193.197425 213.578197 
L 194.521134 213.339876 
L 195.829256 212.898726 
L 197.188594 211.29286 
L 197.841047 210.855028 
L 199.155849 210.309923 
L 201.118651 209.019855 
L 202.448051 207.878261 
L 203.799286 207.288393 
L 204.478708 206.52877 
L 205.133387 206.088623 
L 205.79351 205.863014 
L 207.774868 204.732806 
L 209.114413 203.391224 
L 212.418985 201.402609 
L 213.758282 200.294474 
L 215.747063 199.457753 
L 216.42698 198.808785 
L 217.100216 198.413356 
L 218.452626 197.147386 
L 219.113275 196.682138 
L 220.454799 196.526701 
L 221.115664 196.183822 
L 221.766137 196.003696 
L 222.439868 195.471888 
L 223.111867 194.761644 
L 224.448195 193.864787 
L 225.105101 193.557708 
L 228.379983 191.269992 
L 229.055941 190.971837 
L 230.378785 190.024694 
L 231.717958 188.621491 
L 232.371153 188.139577 
L 233.027564 187.848263 
L 234.35548 186.85563 
L 236.371431 185.703034 
L 237.052337 185.501144 
L 237.722604 185.157467 
L 238.375552 184.66974 
L 239.700993 183.10379 
L 241.027795 182.087085 
L 241.698805 181.743581 
L 243.029442 181.484287 
L 243.706389 180.772809 
L 245.043583 179.714131 
L 245.720036 179.085056 
L 246.371746 178.638479 
L 247.025189 178.597336 
L 249.024856 177.407615 
L 249.68968 176.703802 
L 250.355246 175.8322 
L 251.683177 174.977059 
L 253.665525 174.385224 
L 254.334802 173.761189 
L 255.645274 171.770169 
L 256.315542 171.086879 
L 256.96651 170.777176 
L 257.622921 170.323861 
L 258.282549 170.24097 
L 258.938713 169.926304 
L 259.588197 169.479624 
L 260.23768 168.830283 
L 262.205183 167.924051 
L 262.857883 167.578356 
L 263.538294 167.03446 
L 264.891199 165.416352 
L 266.220105 164.438803 
L 267.535649 163.943001 
L 268.865761 163.16751 
L 270.19145 161.850978 
L 271.521468 160.539024 
L 272.20188 159.75718 
L 272.855322 159.527681 
L 273.509012 158.914448 
L 274.861051 158.270867 
L 275.530329 157.612884 
L 276.205049 157.292341 
L 276.853791 156.803637 
L 278.831685 155.633444 
L 279.50789 155.020622 
L 280.186817 154.581105 
L 280.864012 153.85183 
L 281.541207 153.385348 
L 283.551513 151.542408 
L 284.2076 151.140376 
L 285.518196 150.043635 
L 287.547059 148.504251 
L 290.247426 147.249932 
L 290.921652 146.667356 
L 291.602558 145.859588 
L 294.249483 143.946772 
L 294.924698 143.098369 
L 295.603378 142.441208 
L 298.216652 140.53522 
L 299.516114 139.429117 
L 300.196386 139.143937 
L 302.904919 136.82896 
L 303.562815 136.083842 
L 304.880833 135.833189 
L 305.555059 135.217642 
L 306.218275 134.391974 
L 306.878769 133.939996 
L 308.225612 132.660447 
L 308.887219 132.535532 
L 310.212413 131.783625 
L 310.86734 131.286229 
L 312.223957 129.714517 
L 312.901647 129.330912 
L 314.91418 127.380251 
L 315.570839 127.189959 
L 316.87545 126.202097 
L 317.554872 125.863899 
L 319.570003 123.498179 
L 321.528351 122.477937 
L 322.180804 121.814296 
L 322.861215 121.518918 
L 323.536925 120.895707 
L 324.213378 120.047715 
L 325.518284 118.781077 
L 327.491229 117.644446 
L 328.842155 116.338021 
L 330.19506 115.018506 
L 330.852461 114.612989 
L 331.517285 114.48122 
L 332.17914 113.944525 
L 333.512901 112.424379 
L 335.517764 110.59646 
L 336.173186 110.207223 
L 339.47813 106.729304 
L 341.454539 105.889851 
L 344.134618 103.541028 
L 346.114986 102.310911 
L 347.443892 100.844234 
L 348.775024 99.562627 
L 349.431219 99.287915 
L 350.756907 98.284995 
L 351.423216 97.61014 
L 354.092408 95.63403 
L 355.42354 94.12394 
L 356.10123 93.193032 
L 356.759126 92.652068 
L 358.079866 92.269299 
L 360.108977 90.181262 
L 360.75945 89.415467 
L 361.415614 88.949602 
L 362.072273 88.720565 
L 362.721262 88.255882 
L 363.393756 87.49554 
L 364.063775 86.915226 
L 364.734785 85.932572 
L 365.383526 85.332224 
L 366.708967 84.420502 
L 369.34451 82.22167 
L 369.99622 81.758376 
L 370.647189 81.077966 
L 371.300878 80.694271 
L 372.609 79.447411 
L 373.968833 78.004807 
L 375.271017 76.824634 
L 376.624912 75.880249 
L 377.964456 74.218832 
L 378.636703 73.402525 
L 379.946557 72.762545 
L 380.625978 72.499779 
L 381.295256 71.929933 
L 381.958286 71.170696 
L 382.623976 70.071794 
L 383.300428 69.499968 
L 383.955355 69.152665 
L 385.259271 68.00068 
L 387.939844 65.026485 
L 390.573408 63.308859 
L 391.233283 62.789191 
L 393.230476 60.645859 
L 393.904207 59.791386 
L 395.930225 58.529377 
L 396.584038 58.502579 
L 397.248862 58.827661 
L 397.899428 58.538456 
L 398.128046 57.734392 
L 398.487273 55.8323 
L 398.44317 56.367348 
L 398.277582 60.070741 
L 398.279314 66.912567 
L 398.27749 66.488854 
L 398.275974 68.039142 
L 397.624975 68.377289 
L 396.973079 72.01492 
L 396.310729 74.888812 
L 395.633535 73.380471 
L 394.957577 72.609121 
L 394.284341 72.152977 
L 393.58562 72.104099 
L 392.930446 71.658654 
L 392.233704 70.957258 
L 391.581746 69.51167 
L 390.922613 71.332851 
L 390.24814 74.051198 
L 388.94274 76.617497 
L 387.611608 77.573699 
L 386.926495 78.677231 
L 386.246579 80.641716 
L 385.560229 79.956702 
L 384.909014 78.348162 
L 384.249386 78.267406 
L 383.569717 78.480407 
L 382.894996 79.246562 
L 382.230543 79.047758 
L 381.55706 83.291368 
L 380.902133 85.189191 
L 380.237309 85.56391 
L 379.58832 85.337947 
L 378.933888 84.808145 
L 377.620323 85.551025 
L 375.637357 88.74784 
L 374.320328 89.996218 
L 373.647091 90.928669 
L 372.979793 90.844994 
L 372.30631 91.352781 
L 370.947466 91.953308 
L 370.297241 92.156768 
L 369.627963 93.153618 
L 368.957201 94.429464 
L 368.307841 96.169683 
L 366.323267 96.9394 
L 365.650989 97.330387 
L 364.978124 98.673152 
L 364.326167 99.72252 
L 363.009632 99.81836 
L 362.350252 99.996949 
L 361.682583 99.998158 
L 361.013553 102.16798 
L 359.701348 103.604 
L 357.68931 104.644019 
L 357.029682 106.604801 
L 356.370549 107.137856 
L 355.010468 106.840023 
L 354.357274 107.224386 
L 353.701357 108.147991 
L 353.021564 109.482268 
L 352.343008 110.358731 
L 351.674226 110.382636 
L 350.332702 110.692467 
L 349.654641 112.564777 
L 348.991209 113.424458 
L 348.331581 113.904777 
L 346.314099 114.047862 
L 345.646183 115.910913 
L 344.994596 116.871167 
L 344.318391 117.098441 
L 342.990228 117.960282 
L 342.328868 118.639483 
L 341.668498 120.085483 
L 341.012829 120.490614 
L 340.338603 120.479028 
L 339.011677 120.877717 
L 338.35675 121.623953 
L 337.707637 123.154309 
L 337.026731 123.909804 
L 335.696094 123.883944 
L 335.027559 124.174101 
L 334.359766 125.136591 
L 333.710653 126.622506 
L 333.039721 127.590719 
L 332.368465 127.482264 
L 331.023972 127.785254 
L 330.349746 128.243944 
L 329.698159 129.624721 
L 329.037913 130.56139 
L 328.387439 130.80398 
L 327.07041 131.070553 
L 326.399401 131.45282 
L 325.07965 133.101276 
L 324.401466 133.543429 
L 323.750992 133.810105 
L 323.074045 134.276742 
L 322.404025 135.325441 
L 321.071161 136.439568 
L 320.410543 136.758787 
L 319.086958 137.752088 
L 318.424361 138.701205 
L 317.750506 139.400647 
L 317.08927 139.75915 
L 316.416281 139.928083 
L 315.748488 139.834583 
L 315.069809 140.264262 
L 314.40882 141.411309 
L 313.738429 142.100772 
L 313.085729 142.089289 
L 312.427586 142.850352 
L 311.763257 143.197205 
L 311.104618 143.180063 
L 310.433114 144.07368 
L 309.763095 145.327304 
L 308.444334 145.731253 
L 307.792623 146.265272 
L 305.801863 148.749478 
L 305.124668 149.189779 
L 303.811103 149.312907 
L 303.133908 149.804079 
L 301.126076 152.410293 
L 300.471133 152.555989 
L 299.815712 152.567176 
L 297.809611 154.239756 
L 297.156664 155.032196 
L 296.497036 155.530312 
L 295.836171 155.84269 
L 293.877081 157.390483 
L 293.222402 157.742878 
L 292.568464 158.281708 
L 291.918486 158.661622 
L 289.902489 160.962094 
L 289.249789 161.233746 
L 288.59313 161.668685 
L 287.938945 161.847609 
L 287.26076 162.218933 
L 286.5947 162.812054 
L 285.929752 163.673934 
L 285.279279 164.212159 
L 283.951796 164.630278 
L 283.303055 165.129732 
L 281.975263 166.744445 
L 281.300295 167.59686 
L 279.972132 168.169072 
L 279.308792 168.098706 
L 277.984835 169.214016 
L 277.304177 170.050383 
L 276.644054 170.125623 
L 273.998862 172.099405 
L 273.323399 172.96684 
L 271.36035 174.119892 
L 269.391611 175.532342 
L 268.734952 175.702663 
L 268.083025 176.207923 
L 267.402613 177.074535 
L 265.391812 178.727388 
L 264.737627 179.010986 
L 264.082453 179.162977 
L 263.403774 179.69926 
L 262.733754 180.752382 
L 262.058786 181.344269 
L 261.40757 181.751959 
L 260.754623 181.954518 
L 260.10316 182.328067 
L 259.451449 182.544894 
L 257.491865 184.422296 
L 256.834216 184.927974 
L 255.505311 185.630103 
L 254.832817 186.07632 
L 254.155869 186.850962 
L 253.505149 187.233345 
L 252.850964 187.967455 
L 250.166865 190.229716 
L 249.508474 190.456013 
L 248.843897 190.506177 
L 246.166788 192.415779 
L 245.489346 193.162131 
L 242.840195 195.068852 
L 242.166216 195.884233 
L 241.506093 195.924913 
L 240.842259 196.110492 
L 240.187085 196.509303 
L 238.8562 198.050769 
L 238.19484 199.118809 
L 237.545852 199.608644 
L 236.875337 199.633604 
L 236.198884 199.471403 
L 235.543231 199.578135 
L 234.88719 200.281589 
L 233.548883 202.258316 
L 231.551195 202.573735 
L 230.874866 203.076069 
L 229.5566 204.600934 
L 228.876684 204.616018 
L 226.88914 205.219118 
L 226.239162 205.830808 
L 225.570626 206.757498 
L 224.902091 207.151352 
L 224.230092 207.699363 
L 223.555866 208.066591 
L 222.876939 208.620466 
L 220.928736 209.522852 
L 220.250057 209.96768 
L 218.923471 211.010155 
L 218.267554 211.262911 
L 216.25898 212.620284 
L 215.583764 213.028746 
L 214.910033 213.599594 
L 214.235313 213.89492 
L 212.892799 214.880249 
L 212.21981 215.456756 
L 211.541873 215.604213 
L 210.891152 215.937956 
L 210.238452 216.129482 
L 209.588474 216.576882 
L 208.911774 217.341237 
L 208.232105 217.937084 
L 206.926704 218.832347 
L 206.268066 218.768854 
L 205.605717 218.889577 
L 204.944357 219.204037 
L 203.612977 220.219868 
L 202.944434 221.096883 
L 201.598704 221.998035 
L 199.628233 222.583698 
L 196.265392 225.501383 
L 194.962466 226.248124 
L 194.284529 226.906004 
L 192.932366 227.646801 
L 192.253934 227.616183 
L 191.582182 227.866887 
L 190.247463 229.313067 
L 189.568041 229.649163 
L 188.210187 230.730782 
L 187.554271 230.940992 
L 186.895841 230.972469 
L 186.242399 231.457057 
L 185.592668 232.10609 
L 184.244711 233.132775 
L 183.569743 233.776047 
L 182.916053 234.21766 
L 180.928757 235.016539 
L 179.599357 236.733611 
L 178.922409 237.107514 
L 178.262534 237.159723 
L 176.261135 238.078659 
L 175.592971 238.689114 
L 174.916023 239.069151 
L 173.604437 239.309503 
L 172.925263 239.853759 
L 172.256109 240.599288 
L 171.584605 241.601077 
L 168.946109 242.280371 
L 168.275965 243.155007 
L 167.623018 243.567378 
L 165.613701 243.81272 
L 164.936011 244.094081 
L 164.275023 245.37651 
L 163.597951 245.952914 
L 162.935602 246.257383 
L 161.599026 246.341119 
L 160.950038 246.577762 
L 160.285709 247.661439 
L 159.613957 248.485049 
L 158.959278 248.915089 
L 158.300392 249.019667 
L 156.982126 249.54122 
L 155.667076 250.815625 
L 154.989634 251.239463 
L 151.685618 252.624484 
L 151.01733 253.118178 
L 150.34731 253.837783 
L 148.367437 255.091022 
L 147.066738 255.655377 
L 145.095029 257.030431 
L 142.437713 258.605473 
L 141.760271 259.377338 
L 140.443737 260.050212 
L 139.786088 260.149229 
L 138.445183 261.195819 
L 137.774908 261.966215 
L 137.120476 262.061974 
L 136.45392 262.333189 
L 135.785138 262.413394 
L 135.126252 262.376089 
L 134.454129 262.815825 
L 133.789058 263.535841 
L 133.117059 263.72079 
L 131.789638 264.438376 
L 131.137928 264.58495 
L 129.781311 265.594326 
L 129.130343 265.75427 
L 128.475911 266.341887 
L 127.818263 266.626976 
L 127.161356 267.083274 
L 125.854719 268.222168 
L 125.204988 268.344229 
L 123.846144 269.071189 
L 123.195176 269.484434 
L 121.226765 270.223085 
L 119.879551 270.918369 
L 119.212005 271.612461 
L 117.884337 272.242729 
L 117.203926 272.485596 
L 116.525246 273.114363 
L 115.19164 273.928722 
L 114.533991 274.197712 
L 113.879065 274.644752 
L 113.202612 274.814224 
L 112.538778 275.711287 
L 111.876552 276.308831 
L 111.197378 276.644844 
L 110.538987 276.59823 
L 109.878864 276.676556 
L 109.228391 276.547391 
L 107.239486 279.242797 
L 105.905634 279.269043 
L 105.240095 278.914994 
L 104.560921 279.465203 
L 103.893128 280.20888 
L 103.21816 280.711781 
L 101.887275 281.011382 
L 101.216266 281.374811 
L 99.900845 283.02445 
L 98.571693 283.349885 
L 97.91058 283.022334 
L 97.238952 283.091494 
L 96.565469 284.047581 
L 95.91116 285.173127 
L 95.256728 285.500421 
L 94.579286 285.651823 
L 93.903575 285.507655 
L 93.249391 285.732268 
L 91.929516 287.240301 
L 91.256157 287.648335 
L 90.600487 287.778483 
L 89.939375 288.045185 
L 89.280479 288.124213 
L 88.63149 288.551964 
L 87.294543 289.950846 
L 85.311948 291.21362 
L 83.981063 291.350494 
L 81.320655 292.658515 
L 79.344493 293.08029 
L 78.678309 293.608909 
L 78.011381 294.343121 
L 77.334187 294.873489 
L 76.681981 295.042151 
L 76.011838 294.714336 
L 75.348994 294.007334 
L 74.689118 293.662088 
L 74.096632 294.610291 
L 73.978039 295.449795 
L 73.832727 295.488 
L 73.833121 295.485332 
" clip-path="url(#pb912ba9cf0)" style="fill: none; stroke: #ff0000; stroke-width: 1.5; stroke-linecap: square"/>
   </g>
   <g id="line2d_17">
    <path d="M 73.976651 281.554274 
L 73.97723 282.221463 
L 73.976592 281.33879 
L 74.639592 275.208381 
L 75.304292 274.287503 
L 75.96392 274.553536 
L 77.338846 280.495547 
L 78.023216 289.311913 
L 78.687297 288.880305 
L 79.341482 289.886826 
L 80.013234 288.07444 
L 80.67781 286.830846 
L 81.334345 278.403601 
L 81.985685 277.803575 
L 82.668818 279.319528 
L 84.001434 280.414675 
L 84.655371 281.219627 
L 85.324773 279.802278 
L 86.000483 277.695621 
L 86.671245 277.527306 
L 87.347203 277.978959 
L 88.004356 277.89927 
L 88.656809 278.415107 
L 89.312619 277.80596 
L 89.976825 276.563446 
L 90.652164 275.871617 
L 91.979585 275.742587 
L 92.644161 275.94741 
L 93.29983 275.687627 
L 94.63022 274.788404 
L 95.282673 274.624081 
L 95.935125 274.002464 
L 96.615289 273.778257 
L 97.288278 273.321457 
L 97.959288 272.586729 
L 98.640441 272.21219 
L 99.294626 272.106413 
L 101.287242 270.877736 
L 101.952065 270.159262 
L 102.627281 269.726317 
L 103.929959 269.483308 
L 104.609381 268.620326 
L 105.912042 267.773159 
L 107.23402 267.459245 
L 107.888699 267.482925 
L 109.884655 265.517489 
L 110.547995 265.056818 
L 111.220736 264.968928 
L 111.890261 265.02556 
L 112.544198 264.938344 
L 113.220156 263.993136 
L 113.897351 263.754995 
L 115.200029 262.965848 
L 115.849513 262.324942 
L 116.525471 261.99523 
L 117.197222 261.14693 
L 117.872438 260.705805 
L 118.553591 260.427849 
L 119.209755 260.626936 
L 119.864187 260.516962 
L 121.20633 259.487192 
L 121.876218 258.853664 
L 122.554898 258.482822 
L 123.211804 258.318416 
L 123.869947 258.024401 
L 124.52339 257.856395 
L 125.196626 257.300695 
L 126.531717 255.641231 
L 127.866808 254.831284 
L 128.525446 254.849351 
L 129.178146 254.722122 
L 129.853856 254.076072 
L 131.178803 253.060215 
L 131.831503 252.846364 
L 132.510182 252.381887 
L 133.860861 251.26803 
L 134.537808 250.956733 
L 135.215003 250.25616 
L 135.867703 250.023587 
L 136.519166 249.955565 
L 137.196856 249.57529 
L 137.871086 248.79624 
L 138.546796 248.601448 
L 139.902671 247.622395 
L 140.583577 247.397075 
L 141.232566 247.327127 
L 142.591409 246.340152 
L 143.946541 245.796398 
L 144.620767 245.191343 
L 145.955858 244.599531 
L 146.610537 244.306648 
L 147.260763 243.798655 
L 147.939938 242.977719 
L 148.619607 242.452444 
L 151.330613 240.930716 
L 152.678075 239.715515 
L 153.328548 239.021732 
L 153.989553 238.847601 
L 154.649675 238.97668 
L 155.303365 238.833331 
L 157.31194 237.074491 
L 158.667567 236.353347 
L 159.98039 235.766501 
L 161.293212 234.841688 
L 161.948387 234.262314 
L 162.601334 234.311391 
L 163.952013 233.545827 
L 165.301702 232.193855 
L 165.981618 231.575144 
L 166.632586 231.22316 
L 167.960997 231.085675 
L 168.633491 230.564894 
L 169.984417 229.036004 
L 170.661936 228.322642 
L 172.668902 227.273792 
L 173.339541 226.813935 
L 175.952321 225.869814 
L 177.967575 223.717789 
L 179.293512 223.329336 
L 179.957593 223.232776 
L 180.614499 222.828326 
L 181.263736 222.584052 
L 181.939199 221.486384 
L 182.616888 220.824595 
L 184.573257 219.66276 
L 185.228431 219.918852 
L 185.877172 219.741079 
L 187.892443 217.892694 
L 189.219864 216.952238 
L 189.869842 216.864293 
L 190.519326 216.609924 
L 191.193799 216.039049 
L 192.540271 214.140507 
L 193.197425 213.578197 
L 194.521134 213.339876 
L 195.829256 212.898726 
L 197.188594 211.29286 
L 197.841047 210.855028 
L 199.155849 210.309923 
L 201.118651 209.019855 
L 202.448051 207.878261 
L 203.799286 207.288393 
L 204.478708 206.52877 
L 205.133387 206.088623 
L 205.79351 205.863014 
L 207.774868 204.732806 
L 209.114413 203.391224 
L 212.418985 201.402609 
L 213.758282 200.294474 
L 215.747063 199.457753 
L 216.42698 198.808785 
L 217.100216 198.413356 
L 218.452626 197.147386 
L 219.113275 196.682138 
L 220.454799 196.526701 
L 221.115664 196.183822 
L 221.766137 196.003696 
L 222.439868 195.471888 
L 223.111867 194.761644 
L 224.448195 193.864787 
L 225.105101 193.557708 
L 228.379983 191.269992 
L 229.055941 190.971837 
L 230.378785 190.024694 
L 231.717958 188.621491 
L 232.371153 188.139577 
L 233.027564 187.848263 
L 234.35548 186.85563 
L 236.371431 185.703034 
L 237.052337 185.501144 
L 237.722604 185.157467 
L 238.375552 184.66974 
L 239.700993 183.10379 
L 241.027795 182.087085 
L 241.698805 181.743581 
L 243.029442 181.484287 
L 243.706389 180.772809 
L 245.043583 179.714131 
L 245.720036 179.085056 
L 246.371746 178.638479 
L 247.025189 178.597336 
L 249.024856 177.407615 
L 249.68968 176.703802 
L 250.355246 175.8322 
L 251.683177 174.977059 
L 253.665525 174.385224 
L 254.334802 173.761189 
L 255.645274 171.770169 
L 256.315542 171.086879 
L 256.96651 170.777176 
L 257.622921 170.323861 
L 258.282549 170.24097 
L 258.938713 169.926304 
L 259.588197 169.479624 
L 260.23768 168.830283 
L 262.205183 167.924051 
L 262.857883 167.578356 
L 263.538294 167.03446 
L 264.891199 165.416352 
L 266.220105 164.438803 
L 267.535649 163.943001 
L 268.865761 163.16751 
L 270.19145 161.850978 
L 271.521468 160.539024 
L 272.20188 159.75718 
L 272.855322 159.527681 
L 273.509012 158.914448 
L 274.861051 158.270867 
L 275.530329 157.612884 
L 276.205049 157.292341 
L 276.853791 156.803637 
L 278.831685 155.633444 
L 279.50789 155.020622 
L 280.186817 154.581105 
L 280.864012 153.85183 
L 281.541207 153.385348 
L 283.551513 151.542408 
L 284.2076 151.140376 
L 285.518196 150.043635 
L 287.547059 148.504251 
L 290.247426 147.249932 
L 290.921652 146.667356 
L 291.602558 145.859588 
L 294.249483 143.946772 
L 294.924698 143.098369 
L 295.603378 142.441208 
L 298.216652 140.53522 
L 299.516114 139.429117 
L 300.196386 139.143937 
L 302.904919 136.82896 
L 303.562815 136.083842 
L 304.880833 135.833189 
L 305.555059 135.217642 
L 306.218275 134.391974 
L 306.878769 133.939996 
L 308.225612 132.660447 
L 308.887219 132.535532 
L 310.212413 131.783625 
L 310.86734 131.286229 
L 312.223957 129.714517 
L 312.901647 129.330912 
L 314.91418 127.380251 
L 315.570839 127.189959 
L 316.87545 126.202097 
L 317.554872 125.863899 
L 319.570003 123.498179 
L 321.528351 122.477937 
L 322.180804 121.814296 
L 322.861215 121.518918 
L 323.536925 120.895707 
L 324.213378 120.047715 
L 325.518284 118.781077 
L 327.491229 117.644446 
L 328.842155 116.338021 
L 330.19506 115.018506 
L 330.852461 114.612989 
L 331.517285 114.48122 
L 332.17914 113.944525 
L 333.512901 112.424379 
L 335.517764 110.59646 
L 336.173186 110.207223 
L 339.47813 106.729304 
L 341.454539 105.889851 
L 344.134618 103.541028 
L 346.114986 102.310911 
L 347.443892 100.844234 
L 348.775024 99.562627 
L 349.431219 99.287915 
L 350.756907 98.284995 
L 351.423216 97.61014 
L 354.092408 95.63403 
L 355.42354 94.12394 
L 356.10123 93.193032 
L 356.759126 92.652068 
L 358.079866 92.269299 
L 360.108977 90.181262 
L 360.75945 89.415467 
L 361.415614 88.949602 
L 362.072273 88.720565 
L 362.721262 88.255882 
L 363.393756 87.49554 
L 364.063775 86.915226 
L 364.734785 85.932572 
L 365.383526 85.332224 
L 366.708967 84.420502 
L 369.34451 82.22167 
L 369.99622 81.758376 
L 370.647189 81.077966 
L 371.300878 80.694271 
L 372.609 79.447411 
L 373.968833 78.004807 
L 375.271017 76.824634 
L 376.624912 75.880249 
L 377.964456 74.218832 
L 378.636703 73.402525 
L 379.946557 72.762545 
L 380.625978 72.499779 
L 381.295256 71.929933 
L 381.958286 71.170696 
L 382.623976 70.071794 
L 383.300428 69.499968 
L 383.955355 69.152665 
L 385.259271 68.00068 
L 387.939844 65.026485 
L 390.573408 63.308859 
L 391.233283 62.789191 
L 393.230476 60.645859 
L 393.904207 59.791386 
L 395.930225 58.529377 
L 396.584038 58.502579 
L 397.248862 58.827661 
L 397.899428 58.538456 
L 398.128046 57.734392 
L 398.487273 55.8323 
L 398.44317 56.367348 
L 398.315005 53.568 
L 398.275974 68.039142 
L 397.624975 68.377289 
L 396.973079 72.01492 
L 396.310729 74.888812 
L 395.633535 73.380471 
L 394.957577 72.609121 
L 394.284341 72.152977 
L 393.58562 72.104099 
L 392.930446 71.658654 
L 392.233704 70.957258 
L 391.581746 69.51167 
L 390.922613 71.332851 
L 390.24814 74.051198 
L 388.94274 76.617497 
L 387.611608 77.573699 
L 386.926495 78.677231 
L 386.246579 80.641716 
L 385.560229 79.956702 
L 384.909014 78.348162 
L 384.249386 78.267406 
L 383.569717 78.480407 
L 382.894996 79.246562 
L 382.230543 79.047758 
L 381.55706 83.291368 
L 380.902133 85.189191 
L 380.237309 85.56391 
L 379.58832 85.337947 
L 378.933888 84.808145 
L 377.620323 85.551025 
L 375.637357 88.74784 
L 374.320328 89.996218 
L 373.647091 90.928669 
L 372.979793 90.844994 
L 372.30631 91.352781 
L 370.947466 91.953308 
L 370.297241 92.156768 
L 369.627963 93.153618 
L 368.957201 94.429464 
L 368.307841 96.169683 
L 366.323267 96.9394 
L 365.650989 97.330387 
L 364.978124 98.673152 
L 364.326167 99.72252 
L 363.009632 99.81836 
L 362.350252 99.996949 
L 361.682583 99.998158 
L 361.013553 102.16798 
L 359.701348 103.604 
L 357.68931 104.644019 
L 357.029682 106.604801 
L 356.370549 107.137856 
L 355.010468 106.840023 
L 354.357274 107.224386 
L 353.701357 108.147991 
L 353.021564 109.482268 
L 352.343008 110.358731 
L 351.674226 110.382636 
L 350.332702 110.692467 
L 349.654641 112.564777 
L 348.991209 113.424458 
L 348.331581 113.904777 
L 346.314099 114.047862 
L 345.646183 115.910913 
L 344.994596 116.871167 
L 344.318391 117.098441 
L 342.990228 117.960282 
L 342.328868 118.639483 
L 341.668498 120.085483 
L 341.012829 120.490614 
L 340.338603 120.479028 
L 339.011677 120.877717 
L 338.35675 121.623953 
L 337.707637 123.154309 
L 337.026731 123.909804 
L 335.696094 123.883944 
L 335.027559 124.174101 
L 334.359766 125.136591 
L 333.710653 126.622506 
L 333.039721 127.590719 
L 332.368465 127.482264 
L 331.023972 127.785254 
L 330.349746 128.243944 
L 329.698159 129.624721 
L 329.037913 130.56139 
L 328.387439 130.80398 
L 327.07041 131.070553 
L 326.399401 131.45282 
L 325.07965 133.101276 
L 324.401466 133.543429 
L 323.750992 133.810105 
L 323.074045 134.276742 
L 322.404025 135.325441 
L 321.071161 136.439568 
L 320.410543 136.758787 
L 319.086958 137.752088 
L 318.424361 138.701205 
L 317.750506 139.400647 
L 317.08927 139.75915 
L 316.416281 139.928083 
L 315.748488 139.834583 
L 315.069809 140.264262 
L 314.40882 141.411309 
L 313.738429 142.100772 
L 313.085729 142.089289 
L 312.427586 142.850352 
L 311.763257 143.197205 
L 311.104618 143.180063 
L 310.433114 144.07368 
L 309.763095 145.327304 
L 308.444334 145.731253 
L 307.792623 146.265272 
L 305.801863 148.749478 
L 305.124668 149.189779 
L 303.811103 149.312907 
L 303.133908 149.804079 
L 301.126076 152.410293 
L 300.471133 152.555989 
L 299.815712 152.567176 
L 297.809611 154.239756 
L 297.156664 155.032196 
L 296.497036 155.530312 
L 295.836171 155.84269 
L 293.877081 157.390483 
L 293.222402 157.742878 
L 292.568464 158.281708 
L 291.918486 158.661622 
L 289.902489 160.962094 
L 289.249789 161.233746 
L 288.59313 161.668685 
L 287.938945 161.847609 
L 287.26076 162.218933 
L 286.5947 162.812054 
L 285.929752 163.673934 
L 285.279279 164.212159 
L 283.951796 164.630278 
L 283.303055 165.129732 
L 281.975263 166.744445 
L 281.300295 167.59686 
L 279.972132 168.169072 
L 279.308792 168.098706 
L 277.984835 169.214016 
L 277.304177 170.050383 
L 276.644054 170.125623 
L 273.998862 172.099405 
L 273.323399 172.96684 
L 271.36035 174.119892 
L 269.391611 175.532342 
L 268.734952 175.702663 
L 268.083025 176.207923 
L 267.402613 177.074535 
L 265.391812 178.727388 
L 264.737627 179.010986 
L 264.082453 179.162977 
L 263.403774 179.69926 
L 262.733754 180.752382 
L 262.058786 181.344269 
L 261.40757 181.751959 
L 260.754623 181.954518 
L 260.10316 182.328067 
L 259.451449 182.544894 
L 257.491865 184.422296 
L 256.834216 184.927974 
L 255.505311 185.630103 
L 254.832817 186.07632 
L 254.155869 186.850962 
L 253.505149 187.233345 
L 252.850964 187.967455 
L 250.166865 190.229716 
L 249.508474 190.456013 
L 248.843897 190.506177 
L 246.166788 192.415779 
L 245.489346 193.162131 
L 242.840195 195.068852 
L 242.166216 195.884233 
L 241.506093 195.924913 
L 240.842259 196.110492 
L 240.187085 196.509303 
L 238.8562 198.050769 
L 238.19484 199.118809 
L 237.545852 199.608644 
L 236.875337 199.633604 
L 236.198884 199.471403 
L 235.543231 199.578135 
L 234.88719 200.281589 
L 233.548883 202.258316 
L 231.551195 202.573735 
L 230.874866 203.076069 
L 229.5566 204.600934 
L 228.876684 204.616018 
L 226.88914 205.219118 
L 226.239162 205.830808 
L 225.570626 206.757498 
L 224.902091 207.151352 
L 224.230092 207.699363 
L 223.555866 208.066591 
L 222.876939 208.620466 
L 220.928736 209.522852 
L 220.250057 209.96768 
L 218.923471 211.010155 
L 218.267554 211.262911 
L 216.25898 212.620284 
L 215.583764 213.028746 
L 214.910033 213.599594 
L 214.235313 213.89492 
L 212.892799 214.880249 
L 212.21981 215.456756 
L 211.541873 215.604213 
L 210.891152 215.937956 
L 210.238452 216.129482 
L 209.588474 216.576882 
L 208.911774 217.341237 
L 208.232105 217.937084 
L 206.926704 218.832347 
L 206.268066 218.768854 
L 205.605717 218.889577 
L 204.944357 219.204037 
L 203.612977 220.219868 
L 202.944434 221.096883 
L 201.598704 221.998035 
L 199.628233 222.583698 
L 196.265392 225.501383 
L 194.962466 226.248124 
L 194.284529 226.906004 
L 192.932366 227.646801 
L 192.253934 227.616183 
L 191.582182 227.866887 
L 190.247463 229.313067 
L 189.568041 229.649163 
L 188.210187 230.730782 
L 187.554271 230.940992 
L 186.895841 230.972469 
L 186.242399 231.457057 
L 185.592668 232.10609 
L 184.244711 233.132775 
L 183.569743 233.776047 
L 182.916053 234.21766 
L 180.928757 235.016539 
L 179.599357 236.733611 
L 178.922409 237.107514 
L 178.262534 237.159723 
L 176.261135 238.078659 
L 175.592971 238.689114 
L 174.916023 239.069151 
L 173.604437 239.309503 
L 172.925263 239.853759 
L 172.256109 240.599288 
L 171.584605 241.601077 
L 168.946109 242.280371 
L 168.275965 243.155007 
L 167.623018 243.567378 
L 165.613701 243.81272 
L 164.936011 244.094081 
L 164.275023 245.37651 
L 163.597951 245.952914 
L 162.935602 246.257383 
L 161.599026 246.341119 
L 160.950038 246.577762 
L 160.285709 247.661439 
L 159.613957 248.485049 
L 158.959278 248.915089 
L 158.300392 249.019667 
L 156.982126 249.54122 
L 155.667076 250.815625 
L 154.989634 251.239463 
L 151.685618 252.624484 
L 151.01733 253.118178 
L 150.34731 253.837783 
L 148.367437 255.091022 
L 147.066738 255.655377 
L 145.095029 257.030431 
L 142.437713 258.605473 
L 141.760271 259.377338 
L 140.443737 260.050212 
L 139.786088 260.149229 
L 138.445183 261.195819 
L 137.774908 261.966215 
L 137.120476 262.061974 
L 136.45392 262.333189 
L 135.785138 262.413394 
L 135.126252 262.376089 
L 134.454129 262.815825 
L 133.789058 263.535841 
L 133.117059 263.72079 
L 131.789638 264.438376 
L 131.137928 264.58495 
L 129.781311 265.594326 
L 129.130343 265.75427 
L 128.475911 266.341887 
L 127.818263 266.626976 
L 127.161356 267.083274 
L 125.854719 268.222168 
L 125.204988 268.344229 
L 123.846144 269.071189 
L 123.195176 269.484434 
L 121.226765 270.223085 
L 119.879551 270.918369 
L 119.212005 271.612461 
L 117.884337 272.242729 
L 117.203926 272.485596 
L 116.525246 273.114363 
L 115.19164 273.928722 
L 114.533991 274.197712 
L 113.879065 274.644752 
L 113.202612 274.814224 
L 112.538778 275.711287 
L 111.876552 276.308831 
L 111.197378 276.644844 
L 110.538987 276.59823 
L 109.878864 276.676556 
L 109.228391 276.547391 
L 107.239486 279.242797 
L 105.905634 279.269043 
L 105.240095 278.914994 
L 104.560921 279.465203 
L 103.893128 280.20888 
L 103.21816 280.711781 
L 101.887275 281.011382 
L 101.216266 281.374811 
L 99.900845 283.02445 
L 98.571693 283.349885 
L 97.91058 283.022334 
L 97.238952 283.091494 
L 96.565469 284.047581 
L 95.91116 285.173127 
L 95.256728 285.500421 
L 94.579286 285.651823 
L 93.903575 285.507655 
L 93.249391 285.732268 
L 91.929516 287.240301 
L 91.256157 287.648335 
L 90.600487 287.778483 
L 89.939375 288.045185 
L 89.280479 288.124213 
L 88.63149 288.551964 
L 87.294543 289.950846 
L 85.311948 291.21362 
L 83.981063 291.350494 
L 81.320655 292.658515 
L 79.344493 293.08029 
L 78.678309 293.608909 
L 78.011381 294.343121 
L 77.334187 294.873489 
L 76.681981 295.042151 
L 76.011838 294.714336 
L 75.348994 294.007334 
L 74.689118 293.662088 
L 74.096632 294.610291 
L 74.00422 295.487865 
L 73.978039 295.449795 
L 73.832727 295.488 
L 73.833121 295.485332 
" clip-path="url(#pb912ba9cf0)" style="fill: none; stroke: #000000; stroke-width: 1.5; stroke-linecap: square"/>
   </g>
   <g id="patch_3">
    <path d="M 57.6 307.584 
L 57.6 41.472 
" style="fill: none; stroke: #000000; stroke-width: 0.8; stroke-linejoin: miter; stroke-linecap: square"/>
   </g>
   <g id="patch_4">
    <path d="M 414.72 307.584 
L 414.72 41.472 
" style="fill: none; stroke: #000000; stroke-width: 0.8; stroke-linejoin: miter; stroke-linecap: square"/>
   </g>
   <g id="patch_5">
    <path d="M 57.6 307.584 
L 414.72 307.584 
" style="fill: none; stroke: #000000; stroke-width: 0.8; stroke-linejoin: miter; stroke-linecap: square"/>
   </g>
   <g id="patch_6">
    <path d="M 57.6 41.472 
L 414.72 41.472 
" style="fill: none; stroke: #000000; stroke-width: 0.8; stroke-linejoin: miter; stroke-linecap: square"/>
   </g>
   <g id="text_18">
    <!-- 2025-06-18 trial 1 -->
    <g transform="translate(181.83 35.472) scale(0.12 -0.12)">
     <defs>
      <path id="DejaVuSans-2d" d="M 313 2009 
L 1997 2009 
L 1997 1497 
L 313 1497 
L 313 2009 
z
" transform="scale(0.015625)"/>
      <path id="DejaVuSans-36" d="M 2113 2584 
Q 1688 2584 1439 2293 
Q 1191 2003 1191 1497 
Q 1191 994 1439 701 
Q 1688 409 2113 409 
Q 2538 409 2786 701 
Q 3034 994 3034 1497 
Q 3034 2003 2786 2293 
Q 2538 2584 2113 2584 
z
M 3366 4563 
L 3366 3988 
Q 3128 4100 2886 4159 
Q 2644 4219 2406 4219 
Q 1781 4219 1451 3797 
Q 1122 3375 1075 2522 
Q 1259 2794 1537 2939 
Q 1816 3084 2150 3084 
Q 2853 3084 3261 2657 
Q 3669 2231 3669 1497 
Q 3669 778 3244 343 
Q 2819 -91 2113 -91 
Q 1303 -91 875 529 
Q 447 1150 447 2328 
Q 447 3434 972 4092 
Q 1497 4750 2381 4750 
Q 2619 4750 2861 4703 
Q 3103 4656 3366 4563 
z
" transform="scale(0.015625)"/>
      <path id="DejaVuSans-38" d="M 2034 2216 
Q 1584 2216 1326 1975 
Q 1069 1734 1069 1313 
Q 1069 891 1326 650 
Q 1584 409 2034 409 
Q 2484 409 2743 651 
Q 3003 894 3003 1313 
Q 3003 1734 2745 1975 
Q 2488 2216 2034 2216 
z
M 1403 2484 
Q 997 2584 770 2862 
Q 544 3141 544 3541 
Q 544 4100 942 4425 
Q 1341 4750 2034 4750 
Q 2731 4750 3128 4425 
Q 3525 4100 3525 3541 
Q 3525 3141 3298 2862 
Q 3072 2584 2669 2484 
Q 3125 2378 3379 2068 
Q 3634 1759 3634 1313 
Q 3634 634 3220 271 
Q 2806 -91 2034 -91 
Q 1263 -91 848 271 
Q 434 634 434 1313 
Q 434 1759 690 2068 
Q 947 2378 1403 2484 
z
M 1172 3481 
Q 1172 3119 1398 2916 
Q 1625 2713 2034 2713 
Q 2441 2713 2670 2916 
Q 2900 3119 2900 3481 
Q 2900 3844 2670 4047 
Q 2441 4250 2034 4250 
Q 1625 4250 1398 4047 
Q 1172 3844 1172 3481 
z
" transform="scale(0.015625)"/>
      <path id="DejaVuSans-6c" d="M 603 4863 
L 1178 4863 
L 1178 0 
L 603 0 
L 603 4863 
z
" transform="scale(0.015625)"/>
     </defs>
     <use xlink:href="#DejaVuSans-32"/>
     <use xlink:href="#DejaVuSans-30" transform="translate(63.623047 0)"/>
     <use xlink:href="#DejaVuSans-32" transform="translate(127.246094 0)"/>
     <use xlink:href="#DejaVuSans-35" transform="translate(190.869141 0)"/>
     <use xlink:href="#DejaVuSans-2d" transform="translate(254.492188 0)"/>
     <use xlink:href="#DejaVuSans-30" transform="translate(290.576172 0)"/>
     <use xlink:href="#DejaVuSans-36" transform="translate(354.199219 0)"/>
     <use xlink:href="#DejaVuSans-2d" transform="translate(417.822266 0)"/>
     <use xlink:href="#DejaVuSans-31" transform="translate(453.90625 0)"/>
     <use xlink:href="#DejaVuSans-38" transform="translate(517.529297 0)"/>
     <use xlink:href="#DejaVuSans-20" transform="translate(581.152344 0)"/>
     <use xlink:href="#DejaVuSans-74" transform="translate(612.939453 0)"/>
     <use xlink:href="#DejaVuSans-72" transform="translate(652.148438 0)"/>
     <use xlink:href="#DejaVuSans-69" transform="translate(693.261719 0)"/>
     <use xlink:href="#DejaVuSans-61" transform="translate(721.044922 0)"/>
     <use xlink:href="#DejaVuSans-6c" transform="translate(782.324219 0)"/>
     <use xlink:href="#DejaVuSans-20" transform="translate(810.107422 0)"/>
     <use xlink:href="#DejaVuSans-31" transform="translate(841.894531 0)"/>
    </g>
   </g>
  </g>
 </g>
 <defs>
  <clipPath id="pb912ba9cf0">
   <rect x="57.6" y="41.472" width="357.12" height="266.112"/>
  </clipPath>
 </defs>
</svg>
