<?xml version="1.0" encoding="utf-8" standalone="no"?>
<!DOCTYPE svg PUBLIC "-//W3C//DTD SVG 1.1//EN"
  "http://www.w3.org/Graphics/SVG/1.1/DTD/svg11.dtd">
<svg xmlns:xlink="http://www.w3.org/1999/xlink" width="460.8pt" height="345.6pt" viewBox="0 0 460.8 345.6" xmlns="http://www.w3.org/2000/svg" version="1.1">
 <metadata>
  <rdf:RDF xmlns:dc="http://purl.org/dc/elements/1.1/" xmlns:cc="http://creativecommons.org/ns#" xmlns:rdf="http://www.w3.org/1999/02/22-rdf-syntax-ns#">
   <cc:Work>
    <dc:type rdf:resource="http://purl.org/dc/dcmitype/StillImage"/>
    <dc:date>2025-07-14T21:35:14.672041</dc:date>
    <dc:format>image/svg+xml</dc:format>
    <dc:creator>
     <cc:Agent>
      <dc:title>Matplotlib v3.10.3, https://matplotlib.org/</dc:title>
     </cc:Agent>
    </dc:creator>
   </cc:Work>
  </rdf:RDF>
 </metadata>
 <defs>
  <style type="text/css">*{stroke-linejoin: round; stroke-linecap: butt}</style>
 </defs>
 <g id="figure_1">
  <g id="patch_1">
   <path d="M 0 345.6 
L 460.8 345.6 
L 460.8 0 
L 0 0 
z
" style="fill: #ffffff"/>
  </g>
  <g id="axes_1">
   <g id="patch_2">
    <path d="M 57.6 307.584 
L 414.72 307.584 
L 414.72 41.472 
L 57.6 41.472 
z
" style="fill: #ffffff"/>
   </g>
   <g id="matplotlib.axis_1">
    <g id="xtick_1">
     <g id="line2d_1">
      <defs>
       <path id="m0ef2cabfac" d="M 0 0 
L 0 3.5 
" style="stroke: #000000; stroke-width: 0.8"/>
      </defs>
      <g>
       <use xlink:href="#m0ef2cabfac" x="73.934843" y="307.584" style="stroke: #000000; stroke-width: 0.8"/>
      </g>
     </g>
     <g id="text_1">
      <!-- 0.00 -->
      <g transform="translate(62.80203 322.182437) scale(0.1 -0.1)">
       <defs>
        <path id="DejaVuSans-30" d="M 2034 4250 
Q 1547 4250 1301 3770 
Q 1056 3291 1056 2328 
Q 1056 1369 1301 889 
Q 1547 409 2034 409 
Q 2525 409 2770 889 
Q 3016 1369 3016 2328 
Q 3016 3291 2770 3770 
Q 2525 4250 2034 4250 
z
M 2034 4750 
Q 2819 4750 3233 4129 
Q 3647 3509 3647 2328 
Q 3647 1150 3233 529 
Q 2819 -91 2034 -91 
Q 1250 -91 836 529 
Q 422 1150 422 2328 
Q 422 3509 836 4129 
Q 1250 4750 2034 4750 
z
" transform="scale(0.015625)"/>
        <path id="DejaVuSans-2e" d="M 684 794 
L 1344 794 
L 1344 0 
L 684 0 
L 684 794 
z
" transform="scale(0.015625)"/>
       </defs>
       <use xlink:href="#DejaVuSans-30"/>
       <use xlink:href="#DejaVuSans-2e" transform="translate(63.623047 0)"/>
       <use xlink:href="#DejaVuSans-30" transform="translate(95.410156 0)"/>
       <use xlink:href="#DejaVuSans-30" transform="translate(159.033203 0)"/>
      </g>
     </g>
    </g>
    <g id="xtick_2">
     <g id="line2d_2">
      <g>
       <use xlink:href="#m0ef2cabfac" x="138.813553" y="307.584" style="stroke: #000000; stroke-width: 0.8"/>
      </g>
     </g>
     <g id="text_2">
      <!-- 0.05 -->
      <g transform="translate(127.68074 322.182437) scale(0.1 -0.1)">
       <defs>
        <path id="DejaVuSans-35" d="M 691 4666 
L 3169 4666 
L 3169 4134 
L 1269 4134 
L 1269 2991 
Q 1406 3038 1543 3061 
Q 1681 3084 1819 3084 
Q 2600 3084 3056 2656 
Q 3513 2228 3513 1497 
Q 3513 744 3044 326 
Q 2575 -91 1722 -91 
Q 1428 -91 1123 -41 
Q 819 9 494 109 
L 494 744 
Q 775 591 1075 516 
Q 1375 441 1709 441 
Q 2250 441 2565 725 
Q 2881 1009 2881 1497 
Q 2881 1984 2565 2268 
Q 2250 2553 1709 2553 
Q 1456 2553 1204 2497 
Q 953 2441 691 2322 
L 691 4666 
z
" transform="scale(0.015625)"/>
       </defs>
       <use xlink:href="#DejaVuSans-30"/>
       <use xlink:href="#DejaVuSans-2e" transform="translate(63.623047 0)"/>
       <use xlink:href="#DejaVuSans-30" transform="translate(95.410156 0)"/>
       <use xlink:href="#DejaVuSans-35" transform="translate(159.033203 0)"/>
      </g>
     </g>
    </g>
    <g id="xtick_3">
     <g id="line2d_3">
      <g>
       <use xlink:href="#m0ef2cabfac" x="203.692262" y="307.584" style="stroke: #000000; stroke-width: 0.8"/>
      </g>
     </g>
     <g id="text_3">
      <!-- 0.10 -->
      <g transform="translate(192.55945 322.182437) scale(0.1 -0.1)">
       <defs>
        <path id="DejaVuSans-31" d="M 794 531 
L 1825 531 
L 1825 4091 
L 703 3866 
L 703 4441 
L 1819 4666 
L 2450 4666 
L 2450 531 
L 3481 531 
L 3481 0 
L 794 0 
L 794 531 
z
" transform="scale(0.015625)"/>
       </defs>
       <use xlink:href="#DejaVuSans-30"/>
       <use xlink:href="#DejaVuSans-2e" transform="translate(63.623047 0)"/>
       <use xlink:href="#DejaVuSans-31" transform="translate(95.410156 0)"/>
       <use xlink:href="#DejaVuSans-30" transform="translate(159.033203 0)"/>
      </g>
     </g>
    </g>
    <g id="xtick_4">
     <g id="line2d_4">
      <g>
       <use xlink:href="#m0ef2cabfac" x="268.570972" y="307.584" style="stroke: #000000; stroke-width: 0.8"/>
      </g>
     </g>
     <g id="text_4">
      <!-- 0.15 -->
      <g transform="translate(257.438159 322.182437) scale(0.1 -0.1)">
       <use xlink:href="#DejaVuSans-30"/>
       <use xlink:href="#DejaVuSans-2e" transform="translate(63.623047 0)"/>
       <use xlink:href="#DejaVuSans-31" transform="translate(95.410156 0)"/>
       <use xlink:href="#DejaVuSans-35" transform="translate(159.033203 0)"/>
      </g>
     </g>
    </g>
    <g id="xtick_5">
     <g id="line2d_5">
      <g>
       <use xlink:href="#m0ef2cabfac" x="333.449682" y="307.584" style="stroke: #000000; stroke-width: 0.8"/>
      </g>
     </g>
     <g id="text_5">
      <!-- 0.20 -->
      <g transform="translate(322.316869 322.182437) scale(0.1 -0.1)">
       <defs>
        <path id="DejaVuSans-32" d="M 1228 531 
L 3431 531 
L 3431 0 
L 469 0 
L 469 531 
Q 828 903 1448 1529 
Q 2069 2156 2228 2338 
Q 2531 2678 2651 2914 
Q 2772 3150 2772 3378 
Q 2772 3750 2511 3984 
Q 2250 4219 1831 4219 
Q 1534 4219 1204 4116 
Q 875 4013 500 3803 
L 500 4441 
Q 881 4594 1212 4672 
Q 1544 4750 1819 4750 
Q 2544 4750 2975 4387 
Q 3406 4025 3406 3419 
Q 3406 3131 3298 2873 
Q 3191 2616 2906 2266 
Q 2828 2175 2409 1742 
Q 1991 1309 1228 531 
z
" transform="scale(0.015625)"/>
       </defs>
       <use xlink:href="#DejaVuSans-30"/>
       <use xlink:href="#DejaVuSans-2e" transform="translate(63.623047 0)"/>
       <use xlink:href="#DejaVuSans-32" transform="translate(95.410156 0)"/>
       <use xlink:href="#DejaVuSans-30" transform="translate(159.033203 0)"/>
      </g>
     </g>
    </g>
    <g id="xtick_6">
     <g id="line2d_6">
      <g>
       <use xlink:href="#m0ef2cabfac" x="398.328391" y="307.584" style="stroke: #000000; stroke-width: 0.8"/>
      </g>
     </g>
     <g id="text_6">
      <!-- 0.25 -->
      <g transform="translate(387.195579 322.182437) scale(0.1 -0.1)">
       <use xlink:href="#DejaVuSans-30"/>
       <use xlink:href="#DejaVuSans-2e" transform="translate(63.623047 0)"/>
       <use xlink:href="#DejaVuSans-32" transform="translate(95.410156 0)"/>
       <use xlink:href="#DejaVuSans-35" transform="translate(159.033203 0)"/>
      </g>
     </g>
    </g>
    <g id="text_7">
     <!-- Strain -->
     <g transform="translate(221.348281 335.860562) scale(0.1 -0.1)">
      <defs>
       <path id="DejaVuSans-53" d="M 3425 4513 
L 3425 3897 
Q 3066 4069 2747 4153 
Q 2428 4238 2131 4238 
Q 1616 4238 1336 4038 
Q 1056 3838 1056 3469 
Q 1056 3159 1242 3001 
Q 1428 2844 1947 2747 
L 2328 2669 
Q 3034 2534 3370 2195 
Q 3706 1856 3706 1288 
Q 3706 609 3251 259 
Q 2797 -91 1919 -91 
Q 1588 -91 1214 -16 
Q 841 59 441 206 
L 441 856 
Q 825 641 1194 531 
Q 1563 422 1919 422 
Q 2459 422 2753 634 
Q 3047 847 3047 1241 
Q 3047 1584 2836 1778 
Q 2625 1972 2144 2069 
L 1759 2144 
Q 1053 2284 737 2584 
Q 422 2884 422 3419 
Q 422 4038 858 4394 
Q 1294 4750 2059 4750 
Q 2388 4750 2728 4690 
Q 3069 4631 3425 4513 
z
" transform="scale(0.015625)"/>
       <path id="DejaVuSans-74" d="M 1172 4494 
L 1172 3500 
L 2356 3500 
L 2356 3053 
L 1172 3053 
L 1172 1153 
Q 1172 725 1289 603 
Q 1406 481 1766 481 
L 2356 481 
L 2356 0 
L 1766 0 
Q 1100 0 847 248 
Q 594 497 594 1153 
L 594 3053 
L 172 3053 
L 172 3500 
L 594 3500 
L 594 4494 
L 1172 4494 
z
" transform="scale(0.015625)"/>
       <path id="DejaVuSans-72" d="M 2631 2963 
Q 2534 3019 2420 3045 
Q 2306 3072 2169 3072 
Q 1681 3072 1420 2755 
Q 1159 2438 1159 1844 
L 1159 0 
L 581 0 
L 581 3500 
L 1159 3500 
L 1159 2956 
Q 1341 3275 1631 3429 
Q 1922 3584 2338 3584 
Q 2397 3584 2469 3576 
Q 2541 3569 2628 3553 
L 2631 2963 
z
" transform="scale(0.015625)"/>
       <path id="DejaVuSans-61" d="M 2194 1759 
Q 1497 1759 1228 1600 
Q 959 1441 959 1056 
Q 959 750 1161 570 
Q 1363 391 1709 391 
Q 2188 391 2477 730 
Q 2766 1069 2766 1631 
L 2766 1759 
L 2194 1759 
z
M 3341 1997 
L 3341 0 
L 2766 0 
L 2766 531 
Q 2569 213 2275 61 
Q 1981 -91 1556 -91 
Q 1019 -91 701 211 
Q 384 513 384 1019 
Q 384 1609 779 1909 
Q 1175 2209 1959 2209 
L 2766 2209 
L 2766 2266 
Q 2766 2663 2505 2880 
Q 2244 3097 1772 3097 
Q 1472 3097 1187 3025 
Q 903 2953 641 2809 
L 641 3341 
Q 956 3463 1253 3523 
Q 1550 3584 1831 3584 
Q 2591 3584 2966 3190 
Q 3341 2797 3341 1997 
z
" transform="scale(0.015625)"/>
       <path id="DejaVuSans-69" d="M 603 3500 
L 1178 3500 
L 1178 0 
L 603 0 
L 603 3500 
z
M 603 4863 
L 1178 4863 
L 1178 4134 
L 603 4134 
L 603 4863 
z
" transform="scale(0.015625)"/>
       <path id="DejaVuSans-6e" d="M 3513 2113 
L 3513 0 
L 2938 0 
L 2938 2094 
Q 2938 2591 2744 2837 
Q 2550 3084 2163 3084 
Q 1697 3084 1428 2787 
Q 1159 2491 1159 1978 
L 1159 0 
L 581 0 
L 581 3500 
L 1159 3500 
L 1159 2956 
Q 1366 3272 1645 3428 
Q 1925 3584 2291 3584 
Q 2894 3584 3203 3211 
Q 3513 2838 3513 2113 
z
" transform="scale(0.015625)"/>
      </defs>
      <use xlink:href="#DejaVuSans-53"/>
      <use xlink:href="#DejaVuSans-74" transform="translate(63.476562 0)"/>
      <use xlink:href="#DejaVuSans-72" transform="translate(102.685547 0)"/>
      <use xlink:href="#DejaVuSans-61" transform="translate(143.798828 0)"/>
      <use xlink:href="#DejaVuSans-69" transform="translate(205.078125 0)"/>
      <use xlink:href="#DejaVuSans-6e" transform="translate(232.861328 0)"/>
     </g>
    </g>
   </g>
   <g id="matplotlib.axis_2">
    <g id="ytick_1">
     <g id="line2d_7">
      <defs>
       <path id="m5472acb1c9" d="M 0 0 
L -3.5 0 
" style="stroke: #000000; stroke-width: 0.8"/>
      </defs>
      <g>
       <use xlink:href="#m5472acb1c9" x="57.6" y="278.586497" style="stroke: #000000; stroke-width: 0.8"/>
      </g>
     </g>
     <g id="text_8">
      <!-- 0 -->
      <g transform="translate(44.2375 282.385716) scale(0.1 -0.1)">
       <use xlink:href="#DejaVuSans-30"/>
      </g>
     </g>
    </g>
    <g id="ytick_2">
     <g id="line2d_8">
      <g>
       <use xlink:href="#m5472acb1c9" x="57.6" y="235.697782" style="stroke: #000000; stroke-width: 0.8"/>
      </g>
     </g>
     <g id="text_9">
      <!-- 500 -->
      <g transform="translate(31.5125 239.497001) scale(0.1 -0.1)">
       <use xlink:href="#DejaVuSans-35"/>
       <use xlink:href="#DejaVuSans-30" transform="translate(63.623047 0)"/>
       <use xlink:href="#DejaVuSans-30" transform="translate(127.246094 0)"/>
      </g>
     </g>
    </g>
    <g id="ytick_3">
     <g id="line2d_9">
      <g>
       <use xlink:href="#m5472acb1c9" x="57.6" y="192.809068" style="stroke: #000000; stroke-width: 0.8"/>
      </g>
     </g>
     <g id="text_10">
      <!-- 1000 -->
      <g transform="translate(25.15 196.608287) scale(0.1 -0.1)">
       <use xlink:href="#DejaVuSans-31"/>
       <use xlink:href="#DejaVuSans-30" transform="translate(63.623047 0)"/>
       <use xlink:href="#DejaVuSans-30" transform="translate(127.246094 0)"/>
       <use xlink:href="#DejaVuSans-30" transform="translate(190.869141 0)"/>
      </g>
     </g>
    </g>
    <g id="ytick_4">
     <g id="line2d_10">
      <g>
       <use xlink:href="#m5472acb1c9" x="57.6" y="149.920353" style="stroke: #000000; stroke-width: 0.8"/>
      </g>
     </g>
     <g id="text_11">
      <!-- 1500 -->
      <g transform="translate(25.15 153.719572) scale(0.1 -0.1)">
       <use xlink:href="#DejaVuSans-31"/>
       <use xlink:href="#DejaVuSans-35" transform="translate(63.623047 0)"/>
       <use xlink:href="#DejaVuSans-30" transform="translate(127.246094 0)"/>
       <use xlink:href="#DejaVuSans-30" transform="translate(190.869141 0)"/>
      </g>
     </g>
    </g>
    <g id="ytick_5">
     <g id="line2d_11">
      <g>
       <use xlink:href="#m5472acb1c9" x="57.6" y="107.031639" style="stroke: #000000; stroke-width: 0.8"/>
      </g>
     </g>
     <g id="text_12">
      <!-- 2000 -->
      <g transform="translate(25.15 110.830858) scale(0.1 -0.1)">
       <use xlink:href="#DejaVuSans-32"/>
       <use xlink:href="#DejaVuSans-30" transform="translate(63.623047 0)"/>
       <use xlink:href="#DejaVuSans-30" transform="translate(127.246094 0)"/>
       <use xlink:href="#DejaVuSans-30" transform="translate(190.869141 0)"/>
      </g>
     </g>
    </g>
    <g id="ytick_6">
     <g id="line2d_12">
      <g>
       <use xlink:href="#m5472acb1c9" x="57.6" y="64.142924" style="stroke: #000000; stroke-width: 0.8"/>
      </g>
     </g>
     <g id="text_13">
      <!-- 2500 -->
      <g transform="translate(25.15 67.942143) scale(0.1 -0.1)">
       <use xlink:href="#DejaVuSans-32"/>
       <use xlink:href="#DejaVuSans-35" transform="translate(63.623047 0)"/>
       <use xlink:href="#DejaVuSans-30" transform="translate(127.246094 0)"/>
       <use xlink:href="#DejaVuSans-30" transform="translate(190.869141 0)"/>
      </g>
     </g>
    </g>
    <g id="text_14">
     <!-- Stress [Pa] -->
     <g transform="translate(19.070312 201.235813) rotate(-90) scale(0.1 -0.1)">
      <defs>
       <path id="DejaVuSans-65" d="M 3597 1894 
L 3597 1613 
L 953 1613 
Q 991 1019 1311 708 
Q 1631 397 2203 397 
Q 2534 397 2845 478 
Q 3156 559 3463 722 
L 3463 178 
Q 3153 47 2828 -22 
Q 2503 -91 2169 -91 
Q 1331 -91 842 396 
Q 353 884 353 1716 
Q 353 2575 817 3079 
Q 1281 3584 2069 3584 
Q 2775 3584 3186 3129 
Q 3597 2675 3597 1894 
z
M 3022 2063 
Q 3016 2534 2758 2815 
Q 2500 3097 2075 3097 
Q 1594 3097 1305 2825 
Q 1016 2553 972 2059 
L 3022 2063 
z
" transform="scale(0.015625)"/>
       <path id="DejaVuSans-73" d="M 2834 3397 
L 2834 2853 
Q 2591 2978 2328 3040 
Q 2066 3103 1784 3103 
Q 1356 3103 1142 2972 
Q 928 2841 928 2578 
Q 928 2378 1081 2264 
Q 1234 2150 1697 2047 
L 1894 2003 
Q 2506 1872 2764 1633 
Q 3022 1394 3022 966 
Q 3022 478 2636 193 
Q 2250 -91 1575 -91 
Q 1294 -91 989 -36 
Q 684 19 347 128 
L 347 722 
Q 666 556 975 473 
Q 1284 391 1588 391 
Q 1994 391 2212 530 
Q 2431 669 2431 922 
Q 2431 1156 2273 1281 
Q 2116 1406 1581 1522 
L 1381 1569 
Q 847 1681 609 1914 
Q 372 2147 372 2553 
Q 372 3047 722 3315 
Q 1072 3584 1716 3584 
Q 2034 3584 2315 3537 
Q 2597 3491 2834 3397 
z
" transform="scale(0.015625)"/>
       <path id="DejaVuSans-20" transform="scale(0.015625)"/>
       <path id="DejaVuSans-5b" d="M 550 4863 
L 1875 4863 
L 1875 4416 
L 1125 4416 
L 1125 -397 
L 1875 -397 
L 1875 -844 
L 550 -844 
L 550 4863 
z
" transform="scale(0.015625)"/>
       <path id="DejaVuSans-50" d="M 1259 4147 
L 1259 2394 
L 2053 2394 
Q 2494 2394 2734 2622 
Q 2975 2850 2975 3272 
Q 2975 3691 2734 3919 
Q 2494 4147 2053 4147 
L 1259 4147 
z
M 628 4666 
L 2053 4666 
Q 2838 4666 3239 4311 
Q 3641 3956 3641 3272 
Q 3641 2581 3239 2228 
Q 2838 1875 2053 1875 
L 1259 1875 
L 1259 0 
L 628 0 
L 628 4666 
z
" transform="scale(0.015625)"/>
       <path id="DejaVuSans-5d" d="M 1947 4863 
L 1947 -844 
L 622 -844 
L 622 -397 
L 1369 -397 
L 1369 4416 
L 622 4416 
L 622 4863 
L 1947 4863 
z
" transform="scale(0.015625)"/>
      </defs>
      <use xlink:href="#DejaVuSans-53"/>
      <use xlink:href="#DejaVuSans-74" transform="translate(63.476562 0)"/>
      <use xlink:href="#DejaVuSans-72" transform="translate(102.685547 0)"/>
      <use xlink:href="#DejaVuSans-65" transform="translate(141.548828 0)"/>
      <use xlink:href="#DejaVuSans-73" transform="translate(203.072266 0)"/>
      <use xlink:href="#DejaVuSans-73" transform="translate(255.171875 0)"/>
      <use xlink:href="#DejaVuSans-20" transform="translate(307.271484 0)"/>
      <use xlink:href="#DejaVuSans-5b" transform="translate(339.058594 0)"/>
      <use xlink:href="#DejaVuSans-50" transform="translate(378.072266 0)"/>
      <use xlink:href="#DejaVuSans-61" transform="translate(433.875 0)"/>
      <use xlink:href="#DejaVuSans-5d" transform="translate(495.154297 0)"/>
     </g>
    </g>
   </g>
   <g id="line2d_13">
    <path d="M 73.934843 278.952363 
L 73.93435 278.847454 
L 73.935311 279.010368 
L 73.933961 278.935544 
L 74.12478 278.906682 
L 75.539819 277.195831 
L 76.507796 277.690023 
L 77.937773 278.064567 
L 78.421444 277.930293 
L 78.913424 278.259613 
L 79.382246 277.888649 
L 79.847533 277.184513 
L 80.797551 276.384358 
L 81.26761 276.382807 
L 82.217451 276.720092 
L 83.654588 276.729895 
L 84.132602 276.203511 
L 84.598065 275.416104 
L 85.065296 275.295769 
L 86.005149 275.25856 
L 86.474412 275.172809 
L 86.958349 274.85555 
L 87.438838 274.252766 
L 87.912433 273.956117 
L 88.386205 274.121053 
L 89.347006 274.117583 
L 90.301508 273.976812 
L 91.250819 272.891766 
L 92.209411 272.675486 
L 93.171273 272.53273 
L 95.052659 271.37289 
L 96.480692 270.869934 
L 98.390364 269.886828 
L 103.625593 267.626037 
L 105.984905 266.436405 
L 107.88167 265.717441 
L 109.803097 264.572541 
L 111.690936 263.810337 
L 113.139569 263.123817 
L 118.849224 260.459415 
L 120.772769 259.39661 
L 123.117762 258.349718 
L 129.247812 255.349921 
L 130.660818 254.667349 
L 131.619322 254.124329 
L 133.031267 253.390989 
L 134.430838 252.739948 
L 134.914509 252.332095 
L 136.326239 251.706288 
L 137.758338 251.042656 
L 139.175587 250.358501 
L 142.505777 248.579694 
L 143.914717 247.861046 
L 145.346551 246.866323 
L 146.308767 246.41471 
L 147.75324 245.845843 
L 149.6412 244.787254 
L 150.602355 244.411385 
L 153.441891 242.809425 
L 154.379181 242.438641 
L 165.75697 236.151318 
L 167.178898 235.264954 
L 169.544044 234.126067 
L 170.493532 233.585578 
L 172.429985 232.337119 
L 175.284105 230.804348 
L 190.506515 222.172774 
L 191.465726 221.563888 
L 192.883505 220.840222 
L 194.782768 219.554318 
L 195.738974 219.14798 
L 196.674584 218.635383 
L 197.13881 218.201492 
L 205.203534 213.445634 
L 209.498968 210.790171 
L 210.923818 210.098805 
L 211.875604 209.44955 
L 212.811126 208.659159 
L 213.757255 208.154158 
L 215.641912 207.156857 
L 218.506827 205.255473 
L 219.457375 204.66607 
L 221.367223 203.371402 
L 222.326787 202.89253 
L 223.275745 202.205527 
L 224.70749 201.141773 
L 226.609294 200.010797 
L 229.932932 197.874061 
L 231.343286 197.047823 
L 232.296487 196.478176 
L 233.242792 195.753244 
L 234.655445 194.881437 
L 235.600513 194.281818 
L 236.555128 193.524881 
L 240.812255 190.728379 
L 243.218414 189.046337 
L 244.174796 188.465614 
L 245.132239 187.705196 
L 247.008764 186.424044 
L 253.181031 182.349029 
L 254.130873 181.713426 
L 256.033561 180.183187 
L 257.446567 179.315358 
L 263.603653 174.764195 
L 264.536325 174.136514 
L 271.660047 169.027638 
L 272.614219 168.318982 
L 276.878606 165.026028 
L 279.223952 163.366046 
L 283.520955 160.000423 
L 284.475569 159.301621 
L 286.866348 157.484863 
L 288.299308 156.388459 
L 289.731407 155.278459 
L 290.676298 154.625089 
L 293.047366 152.610055 
L 293.995793 151.944887 
L 299.688765 147.346901 
L 300.621458 146.663108 
L 302.507529 145.04779 
L 303.935915 143.929743 
L 305.824107 142.342272 
L 308.675222 139.984573 
L 309.630632 139.107025 
L 311.535243 137.519802 
L 312.950724 136.332409 
L 315.331603 134.295224 
L 319.57893 130.727256 
L 320.542384 129.810288 
L 324.348423 126.467291 
L 325.768677 125.420851 
L 326.714099 124.455241 
L 328.147788 123.166856 
L 329.097806 122.455215 
L 330.536976 120.995679 
L 334.326398 117.683185 
L 336.249592 115.95485 
L 337.698662 114.658961 
L 338.659375 113.834847 
L 344.356832 108.554277 
L 346.29565 106.799022 
L 353.88289 99.527649 
L 354.826721 98.795847 
L 357.206098 96.385279 
L 358.158237 95.527802 
L 359.58901 93.869899 
L 361.482682 92.200695 
L 362.930691 90.6342 
L 364.866437 88.830913 
L 365.818576 87.837365 
L 367.246078 86.516703 
L 373.391188 80.15233 
L 373.855944 79.724767 
L 375.307488 78.001224 
L 383.8767 68.985288 
L 384.830607 67.828002 
L 386.722688 65.983306 
L 388.627144 63.713127 
L 390.061717 62.294186 
L 394.328601 57.470857 
L 395.298949 56.320261 
L 398.487273 53.568 
L 398.324988 57.490793 
L 398.326182 80.504082 
L 397.859768 80.573474 
L 396.906391 82.373008 
L 396.434211 82.820485 
L 395.93622 82.872924 
L 395.438583 83.100222 
L 394.483085 83.957699 
L 394.005071 84.118544 
L 393.510969 84.580102 
L 393.022348 84.54692 
L 392.062607 86.602369 
L 391.581587 87.284444 
L 390.621316 89.380036 
L 390.157798 89.455215 
L 389.671651 89.420722 
L 389.197173 89.72686 
L 388.239199 90.698438 
L 387.761185 90.873274 
L 387.291192 91.355899 
L 386.82131 93.293087 
L 386.339141 94.019103 
L 383.960913 96.024056 
L 383.01116 97.22022 
L 381.582156 98.738073 
L 381.097424 99.247459 
L 380.144047 100.87634 
L 379.656133 101.144821 
L 379.178472 101.271083 
L 377.765289 102.399109 
L 377.301329 103.175214 
L 376.837633 104.441176 
L 375.891946 105.210376 
L 374.95006 105.828778 
L 374.006052 107.408654 
L 373.524149 107.880972 
L 373.041185 108.179606 
L 372.560872 108.658162 
L 372.076405 108.955982 
L 371.123028 110.610359 
L 369.247299 112.163563 
L 368.293569 113.545616 
L 366.866774 114.684186 
L 366.383191 115.085982 
L 365.427162 116.430965 
L 363.524673 117.974156 
L 363.047366 118.79818 
L 362.571384 119.36525 
L 360.678684 120.921077 
L 359.710104 122.384863 
L 358.75107 123.075527 
L 357.79292 123.84241 
L 357.314906 124.707662 
L 356.828318 125.227447 
L 355.896331 125.902741 
L 354.94481 126.712118 
L 354.461581 127.630352 
L 353.990991 128.162975 
L 353.047691 128.656765 
L 352.095485 129.365671 
L 351.13928 130.964082 
L 350.667187 131.325643 
L 349.715932 131.825944 
L 349.238448 132.174576 
L 348.757517 132.80168 
L 348.287899 133.630406 
L 347.805112 134.087082 
L 346.392636 134.83109 
L 345.926201 135.253816 
L 345.462329 136.128109 
L 344.986436 136.610282 
L 343.113977 137.803416 
L 342.640029 138.666227 
L 341.69664 139.664568 
L 340.289114 140.380842 
L 338.88698 142.259895 
L 336.995871 143.296773 
L 336.511669 144.337969 
L 335.561032 145.202588 
L 334.134061 145.953219 
L 333.656135 146.869916 
L 333.176529 147.435043 
L 331.75274 148.340619 
L 331.279675 148.420725 
L 330.341324 149.996973 
L 328.905514 150.778028 
L 328.429621 150.967444 
L 327.954523 151.439535 
L 327.481724 152.575122 
L 327.01794 152.92719 
L 326.084186 153.241748 
L 325.606348 153.59029 
L 325.13072 153.676002 
L 324.654916 154.891514 
L 324.172836 155.565271 
L 322.720761 156.233242 
L 322.246989 156.258015 
L 321.302628 157.90986 
L 320.828415 158.267715 
L 320.34439 158.453378 
L 319.860542 158.78768 
L 319.395609 158.917502 
L 318.919893 159.375206 
L 318.455225 160.314235 
L 317.97573 160.705622 
L 317.497363 160.785275 
L 316.059872 161.463169 
L 315.596 162.465487 
L 315.120815 163.020533 
L 313.689423 163.741215 
L 313.218215 163.827096 
L 312.271997 165.231706 
L 311.784702 165.623556 
L 311.317295 165.790413 
L 310.378944 166.339582 
L 308.951442 167.86087 
L 307.521288 168.666766 
L 306.079113 170.164062 
L 304.18385 171.368137 
L 303.246118 172.501011 
L 301.342546 173.560742 
L 299.935904 174.978281 
L 298.989598 175.473202 
L 298.019869 176.336013 
L 297.534076 176.957512 
L 296.583881 177.572275 
L 295.637222 178.042784 
L 294.208792 179.479367 
L 292.753181 180.089044 
L 292.284183 180.614118 
L 291.810146 181.336698 
L 290.865254 181.798573 
L 289.433421 182.70433 
L 288.951429 183.474106 
L 288.470763 183.875037 
L 287.526225 184.150457 
L 286.571522 184.723585 
L 286.100668 185.475821 
L 285.155423 186.104507 
L 283.718374 186.735036 
L 283.236603 187.546142 
L 282.770345 187.935099 
L 280.868364 188.841399 
L 280.387256 189.508918 
L 279.911186 189.95167 
L 278.975487 190.370192 
L 278.006554 190.893773 
L 277.056712 192.172845 
L 274.670618 193.243725 
L 274.203299 194.003375 
L 273.24126 194.622048 
L 272.290004 194.993431 
L 271.818707 195.321946 
L 271.348427 196.031519 
L 270.873595 196.414508 
L 269.437254 197.038086 
L 268.955969 197.303222 
L 268.009486 198.495408 
L 266.583752 199.053194 
L 266.10229 199.31304 
L 264.670104 200.693873 
L 263.244546 201.372603 
L 262.769537 201.687421 
L 261.808558 202.66813 
L 259.890999 203.677495 
L 258.959355 204.435608 
L 257.050656 205.676842 
L 255.633584 206.68133 
L 254.208733 207.456441 
L 252.7967 208.47865 
L 251.379539 209.257919 
L 249.980498 210.340976 
L 248.536909 211.079605 
L 246.64495 212.444785 
L 245.214973 213.205135 
L 243.788001 214.43448 
L 241.879125 215.353415 
L 240.938211 216.241723 
L 239.500633 216.873664 
L 239.033932 217.058785 
L 237.599801 218.168378 
L 236.189756 218.999493 
L 234.282825 220.245746 
L 233.331216 220.614134 
L 231.44541 222.031357 
L 230.0096 222.642051 
L 224.800542 225.896489 
L 223.373129 226.638915 
L 222.420812 227.329399 
L 220.535626 228.343539 
L 217.649596 229.971289 
L 215.773602 231.204338 
L 213.418334 232.513049 
L 212.473442 233.168272 
L 211.064325 233.71961 
L 210.105203 234.3874 
L 208.205167 235.376902 
L 206.760694 236.2389 
L 204.853763 237.35125 
L 204.382466 237.616884 
L 203.443762 237.988718 
L 202.487115 238.535174 
L 202.011034 238.749303 
L 201.065789 239.296121 
L 200.120897 239.811068 
L 199.642529 240.223713 
L 195.856157 242.165286 
L 194.920988 242.582113 
L 192.057499 244.313069 
L 190.65563 245.04781 
L 188.286617 246.35278 
L 187.335361 246.792413 
L 186.375355 247.322595 
L 184.958636 247.892739 
L 183.090951 248.934636 
L 182.126437 249.366222 
L 180.211374 250.470029 
L 179.262947 250.818571 
L 177.839113 251.729693 
L 175.941463 252.555435 
L 174.52333 253.45848 
L 171.223281 255.109738 
L 169.805502 255.777664 
L 168.845319 256.252016 
L 167.903698 256.721621 
L 166.489244 257.289467 
L 164.58638 258.383373 
L 163.647322 258.641474 
L 159.379488 260.814934 
L 158.443436 261.279431 
L 154.675863 263.008846 
L 153.267983 263.693679 
L 149.463668 265.355763 
L 148.522047 265.815332 
L 147.579188 266.453286 
L 146.630761 266.772332 
L 145.683395 267.05963 
L 140.972969 269.52904 
L 140.028077 269.787752 
L 139.067806 270.240789 
L 138.596598 270.618444 
L 137.653562 270.978016 
L 136.717687 271.351264 
L 134.364562 272.273657 
L 127.64654 275.303789 
L 123.773988 276.832966 
L 121.873951 277.789761 
L 120.458382 278.189752 
L 119.503416 278.794162 
L 115.255382 280.334698 
L 112.843832 281.420264 
L 111.412529 281.973636 
L 110.465516 282.496042 
L 107.65182 283.482046 
L 105.243186 284.52149 
L 104.299355 284.81522 
L 102.865224 285.562268 
L 100.976148 286.120577 
L 100.499548 286.473187 
L 98.14934 287.257124 
L 97.684584 287.619047 
L 96.734181 287.801201 
L 95.793886 288.045511 
L 94.836885 288.618898 
L 93.412565 288.885837 
L 92.933313 289.041189 
L 92.463519 289.430779 
L 91.520218 289.736069 
L 90.103234 290.176143 
L 89.622392 290.708043 
L 88.196657 290.903312 
L 87.727659 291.024035 
L 87.256185 291.277112 
L 86.78701 291.7009 
L 85.36718 291.905498 
L 84.888194 291.989502 
L 83.948871 292.828806 
L 82.987185 292.890812 
L 82.039995 293.114291 
L 81.088828 293.798287 
L 79.18667 293.9715 
L 78.719881 294.551048 
L 78.246817 294.777334 
L 77.766681 294.713987 
L 76.33529 294.864874 
L 75.869032 295.347317 
L 75.394111 295.488 
L 74.065706 295.204719 
L 73.925321 295.40191 
L 73.833037 294.881871 
L 73.833037 294.881871 
" clip-path="url(#pb2b73a08e2)" style="fill: none; stroke: #ff0000; stroke-width: 1.5; stroke-linecap: square"/>
   </g>
   <g id="line2d_14">
    <path d="M 73.934843 278.952363 
L 73.93435 278.847454 
L 73.935311 279.010368 
L 73.933961 278.935544 
L 74.12478 278.906682 
L 75.539819 277.195831 
L 76.03233 279.129686 
L 77.937773 278.272178 
L 78.421444 277.931807 
L 78.913424 278.259613 
L 79.382246 277.888649 
L 79.847533 277.184513 
L 80.797551 276.384358 
L 81.26761 276.382807 
L 82.217451 276.720092 
L 83.654588 276.729895 
L 84.132602 276.203511 
L 84.598065 275.416104 
L 85.065296 275.295769 
L 86.005149 275.25856 
L 86.474412 275.172809 
L 86.958349 274.85555 
L 87.438838 274.252766 
L 87.912433 273.956117 
L 88.386205 274.121053 
L 89.347006 274.117583 
L 90.301508 273.976812 
L 91.250819 272.891766 
L 92.209411 272.675486 
L 93.171273 272.53273 
L 95.052659 271.37289 
L 96.480692 270.869934 
L 98.390364 269.886828 
L 103.625593 267.626037 
L 105.984905 266.436405 
L 107.88167 265.717441 
L 109.803097 264.572541 
L 111.690936 263.810337 
L 113.139569 263.123817 
L 118.849224 260.459415 
L 120.772769 259.39661 
L 123.117762 258.349718 
L 129.247812 255.349921 
L 130.660818 254.667349 
L 131.619322 254.124329 
L 133.031267 253.390989 
L 134.430838 252.739948 
L 134.914509 252.332095 
L 136.326239 251.706288 
L 137.758338 251.042656 
L 139.175587 250.358501 
L 142.505777 248.579694 
L 143.914717 247.861046 
L 145.346551 246.866323 
L 146.308767 246.41471 
L 147.75324 245.845843 
L 149.6412 244.787254 
L 150.602355 244.411385 
L 153.441891 242.809425 
L 154.379181 242.438641 
L 165.75697 236.151318 
L 167.178898 235.264954 
L 169.544044 234.126067 
L 170.493532 233.585578 
L 172.429985 232.337119 
L 175.284105 230.804348 
L 190.506515 222.172774 
L 191.465726 221.563888 
L 192.883505 220.840222 
L 194.782768 219.554318 
L 195.738974 219.14798 
L 196.674584 218.635383 
L 197.13881 218.201492 
L 205.203534 213.445634 
L 209.498968 210.790171 
L 210.923818 210.098805 
L 211.875604 209.44955 
L 212.811126 208.659159 
L 213.757255 208.154158 
L 215.641912 207.156857 
L 218.506827 205.255473 
L 219.457375 204.66607 
L 221.367223 203.371402 
L 222.326787 202.89253 
L 223.275745 202.205527 
L 224.70749 201.141773 
L 226.609294 200.010797 
L 229.932932 197.874061 
L 231.343286 197.047823 
L 232.296487 196.478176 
L 233.242792 195.753244 
L 234.655445 194.881437 
L 235.600513 194.281818 
L 236.555128 193.524881 
L 240.812255 190.728379 
L 243.218414 189.046337 
L 244.174796 188.465614 
L 245.132239 187.705196 
L 247.008764 186.424044 
L 253.181031 182.349029 
L 254.130873 181.713426 
L 256.033561 180.183187 
L 257.446567 179.315358 
L 263.603653 174.764195 
L 264.536325 174.136514 
L 271.660047 169.027638 
L 272.614219 168.318982 
L 276.878606 165.026028 
L 279.223952 163.366046 
L 283.520955 160.000423 
L 284.475569 159.301621 
L 286.866348 157.484863 
L 288.299308 156.388459 
L 289.731407 155.278459 
L 290.676298 154.625089 
L 293.047366 152.610055 
L 293.995793 151.944887 
L 299.688765 147.346901 
L 300.621458 146.663108 
L 302.507529 145.04779 
L 303.935915 143.929743 
L 305.824107 142.342272 
L 308.675222 139.984573 
L 309.630632 139.107025 
L 311.535243 137.519802 
L 312.950724 136.332409 
L 315.331603 134.295224 
L 319.57893 130.727256 
L 320.542384 129.810288 
L 324.348423 126.467291 
L 325.768677 125.420851 
L 326.714099 124.455241 
L 328.147788 123.166856 
L 329.097806 122.455215 
L 330.536976 120.995679 
L 334.326398 117.683185 
L 336.249592 115.95485 
L 337.698662 114.658961 
L 338.659375 113.834847 
L 344.356832 108.554277 
L 346.29565 106.799022 
L 353.88289 99.527649 
L 354.826721 98.795847 
L 357.206098 96.385279 
L 358.158237 95.527802 
L 359.58901 93.869899 
L 361.482682 92.200695 
L 362.930691 90.6342 
L 364.866437 88.830913 
L 365.818576 87.837365 
L 367.246078 86.516703 
L 373.391188 80.15233 
L 373.855944 79.724767 
L 375.307488 78.001224 
L 383.8767 68.985288 
L 384.830607 67.828002 
L 386.722688 65.983306 
L 388.627144 63.713127 
L 390.061717 62.294186 
L 394.328601 57.470857 
L 395.298949 56.320261 
L 398.487273 53.568 
L 398.324988 57.490793 
L 398.326182 80.504082 
L 397.859768 80.573474 
L 396.906391 82.373008 
L 396.434211 82.820485 
L 395.93622 82.872924 
L 395.438583 83.100222 
L 394.483085 83.957699 
L 394.005071 84.118544 
L 393.510969 84.580102 
L 393.022348 84.54692 
L 392.062607 86.602369 
L 391.581587 87.284444 
L 390.621316 89.380036 
L 390.157798 89.455215 
L 389.671651 89.420722 
L 389.197173 89.72686 
L 388.239199 90.698438 
L 387.761185 90.873274 
L 387.291192 91.355899 
L 386.82131 93.293087 
L 386.339141 94.019103 
L 383.960913 96.024056 
L 383.01116 97.22022 
L 381.582156 98.738073 
L 381.097424 99.247459 
L 380.144047 100.87634 
L 379.656133 101.144821 
L 379.178472 101.271083 
L 377.765289 102.399109 
L 377.301329 103.175214 
L 376.837633 104.441176 
L 375.891946 105.210376 
L 374.95006 105.828778 
L 374.006052 107.408654 
L 373.524149 107.880972 
L 373.041185 108.179606 
L 372.560872 108.658162 
L 372.076405 108.955982 
L 371.123028 110.610359 
L 369.247299 112.163563 
L 368.293569 113.545616 
L 366.866774 114.684186 
L 366.383191 115.085982 
L 365.427162 116.430965 
L 363.524673 117.974156 
L 363.047366 118.79818 
L 362.571384 119.36525 
L 360.678684 120.921077 
L 359.710104 122.384863 
L 358.75107 123.075527 
L 357.79292 123.84241 
L 357.314906 124.707662 
L 356.828318 125.227447 
L 355.896331 125.902741 
L 354.94481 126.712118 
L 354.461581 127.630352 
L 353.990991 128.162975 
L 353.047691 128.656765 
L 352.095485 129.365671 
L 351.13928 130.964082 
L 350.667187 131.325643 
L 349.715932 131.825944 
L 349.238448 132.174576 
L 348.757517 132.80168 
L 348.287899 133.630406 
L 347.805112 134.087082 
L 346.392636 134.83109 
L 345.926201 135.253816 
L 345.462329 136.128109 
L 344.986436 136.610282 
L 343.113977 137.803416 
L 342.640029 138.666227 
L 341.69664 139.664568 
L 340.289114 140.380842 
L 338.88698 142.259895 
L 336.995871 143.296773 
L 336.511669 144.337969 
L 335.561032 145.202588 
L 334.134061 145.953219 
L 333.656135 146.869916 
L 333.176529 147.435043 
L 331.75274 148.340619 
L 331.279675 148.420725 
L 330.341324 149.996973 
L 328.905514 150.778028 
L 328.429621 150.967444 
L 327.954523 151.439535 
L 327.481724 152.575122 
L 327.01794 152.92719 
L 326.084186 153.241748 
L 325.606348 153.59029 
L 325.13072 153.676002 
L 324.654916 154.891514 
L 324.172836 155.565271 
L 322.720761 156.233242 
L 322.246989 156.258015 
L 321.302628 157.90986 
L 320.828415 158.267715 
L 320.34439 158.453378 
L 319.860542 158.78768 
L 319.395609 158.917502 
L 318.919893 159.375206 
L 318.455225 160.314235 
L 317.97573 160.705622 
L 317.497363 160.785275 
L 316.059872 161.463169 
L 315.596 162.465487 
L 315.120815 163.020533 
L 313.689423 163.741215 
L 313.218215 163.827096 
L 312.271997 165.231706 
L 311.784702 165.623556 
L 311.317295 165.790413 
L 310.378944 166.339582 
L 308.951442 167.86087 
L 307.521288 168.666766 
L 306.079113 170.164062 
L 304.18385 171.368137 
L 303.246118 172.501011 
L 301.342546 173.560742 
L 299.935904 174.978281 
L 298.989598 175.473202 
L 298.019869 176.336013 
L 297.534076 176.957512 
L 296.583881 177.572275 
L 295.637222 178.042784 
L 294.208792 179.479367 
L 292.753181 180.089044 
L 292.284183 180.614118 
L 291.810146 181.336698 
L 290.865254 181.798573 
L 289.433421 182.70433 
L 288.951429 183.474106 
L 288.470763 183.875037 
L 287.526225 184.150457 
L 286.571522 184.723585 
L 286.100668 185.475821 
L 285.155423 186.104507 
L 283.718374 186.735036 
L 283.236603 187.546142 
L 282.770345 187.935099 
L 280.868364 188.841399 
L 280.387256 189.508918 
L 279.911186 189.95167 
L 278.975487 190.370192 
L 278.006554 190.893773 
L 277.056712 192.172845 
L 274.670618 193.243725 
L 274.203299 194.003375 
L 273.24126 194.622048 
L 272.290004 194.993431 
L 271.818707 195.321946 
L 271.348427 196.031519 
L 270.873595 196.414508 
L 269.437254 197.038086 
L 268.955969 197.303222 
L 268.009486 198.495408 
L 266.583752 199.053194 
L 266.10229 199.31304 
L 264.670104 200.693873 
L 263.244546 201.372603 
L 262.769537 201.687421 
L 261.808558 202.66813 
L 259.890999 203.677495 
L 258.959355 204.435608 
L 257.050656 205.676842 
L 255.633584 206.68133 
L 254.208733 207.456441 
L 252.7967 208.47865 
L 251.379539 209.257919 
L 249.980498 210.340976 
L 248.536909 211.079605 
L 246.64495 212.444785 
L 245.214973 213.205135 
L 243.788001 214.43448 
L 241.879125 215.353415 
L 240.938211 216.241723 
L 239.500633 216.873664 
L 239.033932 217.058785 
L 237.599801 218.168378 
L 236.189756 218.999493 
L 234.282825 220.245746 
L 233.331216 220.614134 
L 231.44541 222.031357 
L 230.0096 222.642051 
L 224.800542 225.896489 
L 223.373129 226.638915 
L 222.420812 227.329399 
L 220.535626 228.343539 
L 217.649596 229.971289 
L 215.773602 231.204338 
L 213.418334 232.513049 
L 212.473442 233.168272 
L 211.064325 233.71961 
L 210.105203 234.3874 
L 208.205167 235.376902 
L 206.760694 236.2389 
L 204.853763 237.35125 
L 204.382466 237.616884 
L 203.443762 237.988718 
L 202.487115 238.535174 
L 202.011034 238.749303 
L 201.065789 239.296121 
L 200.120897 239.811068 
L 199.642529 240.223713 
L 195.856157 242.165286 
L 194.920988 242.582113 
L 192.057499 244.313069 
L 190.65563 245.04781 
L 188.286617 246.35278 
L 187.335361 246.792413 
L 186.375355 247.322595 
L 184.958636 247.892739 
L 183.090951 248.934636 
L 182.126437 249.366222 
L 180.211374 250.470029 
L 179.262947 250.818571 
L 177.839113 251.729693 
L 175.941463 252.555435 
L 174.52333 253.45848 
L 171.223281 255.109738 
L 169.805502 255.777664 
L 168.845319 256.252016 
L 167.903698 256.721621 
L 166.489244 257.289467 
L 164.58638 258.383373 
L 163.647322 258.641474 
L 159.379488 260.814934 
L 158.443436 261.279431 
L 154.675863 263.008846 
L 153.267983 263.693679 
L 149.463668 265.355763 
L 148.522047 265.815332 
L 147.579188 266.453286 
L 146.630761 266.772332 
L 145.683395 267.05963 
L 140.972969 269.52904 
L 140.028077 269.787752 
L 139.067806 270.240789 
L 138.596598 270.618444 
L 137.653562 270.978016 
L 136.717687 271.351264 
L 134.364562 272.273657 
L 127.64654 275.303789 
L 123.773988 276.832966 
L 121.873951 277.789761 
L 120.458382 278.189752 
L 119.503416 278.794162 
L 115.255382 280.334698 
L 112.843832 281.420264 
L 111.412529 281.973636 
L 110.465516 282.496042 
L 107.65182 283.482046 
L 105.243186 284.52149 
L 104.299355 284.81522 
L 102.865224 285.562268 
L 100.976148 286.120577 
L 100.499548 286.473187 
L 98.14934 287.257124 
L 97.684584 287.619047 
L 96.734181 287.801201 
L 95.793886 288.045511 
L 94.836885 288.618898 
L 93.412565 288.885837 
L 92.933313 289.041189 
L 92.463519 289.430779 
L 91.520218 289.736069 
L 90.103234 290.176143 
L 89.622392 290.708043 
L 88.196657 290.903312 
L 87.727659 291.024035 
L 87.256185 291.277112 
L 86.78701 291.7009 
L 85.36718 291.905498 
L 84.888194 291.989502 
L 83.948871 292.828806 
L 82.987185 292.890812 
L 82.039995 293.114291 
L 81.088828 293.798287 
L 79.18667 293.9715 
L 78.719881 294.551048 
L 78.246817 294.777334 
L 77.766681 294.713987 
L 76.33529 294.864874 
L 75.869032 295.347317 
L 75.394111 295.488 
L 74.065706 295.204719 
L 73.925321 295.40191 
L 73.833037 294.881871 
L 73.833037 294.881871 
" clip-path="url(#pb2b73a08e2)" style="fill: none; stroke: #000000; stroke-width: 1.5; stroke-linecap: square"/>
   </g>
   <g id="patch_3">
    <path d="M 57.6 307.584 
L 57.6 41.472 
" style="fill: none; stroke: #000000; stroke-width: 0.8; stroke-linejoin: miter; stroke-linecap: square"/>
   </g>
   <g id="patch_4">
    <path d="M 414.72 307.584 
L 414.72 41.472 
" style="fill: none; stroke: #000000; stroke-width: 0.8; stroke-linejoin: miter; stroke-linecap: square"/>
   </g>
   <g id="patch_5">
    <path d="M 57.6 307.584 
L 414.72 307.584 
" style="fill: none; stroke: #000000; stroke-width: 0.8; stroke-linejoin: miter; stroke-linecap: square"/>
   </g>
   <g id="patch_6">
    <path d="M 57.6 41.472 
L 414.72 41.472 
" style="fill: none; stroke: #000000; stroke-width: 0.8; stroke-linejoin: miter; stroke-linecap: square"/>
   </g>
   <g id="text_15">
    <!-- 2025-06-19 trial 26 -->
    <g transform="translate(178.0125 35.472) scale(0.12 -0.12)">
     <defs>
      <path id="DejaVuSans-2d" d="M 313 2009 
L 1997 2009 
L 1997 1497 
L 313 1497 
L 313 2009 
z
" transform="scale(0.015625)"/>
      <path id="DejaVuSans-36" d="M 2113 2584 
Q 1688 2584 1439 2293 
Q 1191 2003 1191 1497 
Q 1191 994 1439 701 
Q 1688 409 2113 409 
Q 2538 409 2786 701 
Q 3034 994 3034 1497 
Q 3034 2003 2786 2293 
Q 2538 2584 2113 2584 
z
M 3366 4563 
L 3366 3988 
Q 3128 4100 2886 4159 
Q 2644 4219 2406 4219 
Q 1781 4219 1451 3797 
Q 1122 3375 1075 2522 
Q 1259 2794 1537 2939 
Q 1816 3084 2150 3084 
Q 2853 3084 3261 2657 
Q 3669 2231 3669 1497 
Q 3669 778 3244 343 
Q 2819 -91 2113 -91 
Q 1303 -91 875 529 
Q 447 1150 447 2328 
Q 447 3434 972 4092 
Q 1497 4750 2381 4750 
Q 2619 4750 2861 4703 
Q 3103 4656 3366 4563 
z
" transform="scale(0.015625)"/>
      <path id="DejaVuSans-39" d="M 703 97 
L 703 672 
Q 941 559 1184 500 
Q 1428 441 1663 441 
Q 2288 441 2617 861 
Q 2947 1281 2994 2138 
Q 2813 1869 2534 1725 
Q 2256 1581 1919 1581 
Q 1219 1581 811 2004 
Q 403 2428 403 3163 
Q 403 3881 828 4315 
Q 1253 4750 1959 4750 
Q 2769 4750 3195 4129 
Q 3622 3509 3622 2328 
Q 3622 1225 3098 567 
Q 2575 -91 1691 -91 
Q 1453 -91 1209 -44 
Q 966 3 703 97 
z
M 1959 2075 
Q 2384 2075 2632 2365 
Q 2881 2656 2881 3163 
Q 2881 3666 2632 3958 
Q 2384 4250 1959 4250 
Q 1534 4250 1286 3958 
Q 1038 3666 1038 3163 
Q 1038 2656 1286 2365 
Q 1534 2075 1959 2075 
z
" transform="scale(0.015625)"/>
      <path id="DejaVuSans-6c" d="M 603 4863 
L 1178 4863 
L 1178 0 
L 603 0 
L 603 4863 
z
" transform="scale(0.015625)"/>
     </defs>
     <use xlink:href="#DejaVuSans-32"/>
     <use xlink:href="#DejaVuSans-30" transform="translate(63.623047 0)"/>
     <use xlink:href="#DejaVuSans-32" transform="translate(127.246094 0)"/>
     <use xlink:href="#DejaVuSans-35" transform="translate(190.869141 0)"/>
     <use xlink:href="#DejaVuSans-2d" transform="translate(254.492188 0)"/>
     <use xlink:href="#DejaVuSans-30" transform="translate(290.576172 0)"/>
     <use xlink:href="#DejaVuSans-36" transform="translate(354.199219 0)"/>
     <use xlink:href="#DejaVuSans-2d" transform="translate(417.822266 0)"/>
     <use xlink:href="#DejaVuSans-31" transform="translate(453.90625 0)"/>
     <use xlink:href="#DejaVuSans-39" transform="translate(517.529297 0)"/>
     <use xlink:href="#DejaVuSans-20" transform="translate(581.152344 0)"/>
     <use xlink:href="#DejaVuSans-74" transform="translate(612.939453 0)"/>
     <use xlink:href="#DejaVuSans-72" transform="translate(652.148438 0)"/>
     <use xlink:href="#DejaVuSans-69" transform="translate(693.261719 0)"/>
     <use xlink:href="#DejaVuSans-61" transform="translate(721.044922 0)"/>
     <use xlink:href="#DejaVuSans-6c" transform="translate(782.324219 0)"/>
     <use xlink:href="#DejaVuSans-20" transform="translate(810.107422 0)"/>
     <use xlink:href="#DejaVuSans-32" transform="translate(841.894531 0)"/>
     <use xlink:href="#DejaVuSans-36" transform="translate(905.517578 0)"/>
    </g>
   </g>
  </g>
 </g>
 <defs>
  <clipPath id="pb2b73a08e2">
   <rect x="57.6" y="41.472" width="357.12" height="266.112"/>
  </clipPath>
 </defs>
</svg>
