<?xml version="1.0" encoding="utf-8" standalone="no"?>
<!DOCTYPE svg PUBLIC "-//W3C//DTD SVG 1.1//EN"
  "http://www.w3.org/Graphics/SVG/1.1/DTD/svg11.dtd">
<svg xmlns:xlink="http://www.w3.org/1999/xlink" width="460.8pt" height="345.6pt" viewBox="0 0 460.8 345.6" xmlns="http://www.w3.org/2000/svg" version="1.1">
 <metadata>
  <rdf:RDF xmlns:dc="http://purl.org/dc/elements/1.1/" xmlns:cc="http://creativecommons.org/ns#" xmlns:rdf="http://www.w3.org/1999/02/22-rdf-syntax-ns#">
   <cc:Work>
    <dc:type rdf:resource="http://purl.org/dc/dcmitype/StillImage"/>
    <dc:date>2025-07-08T21:01:47.856010</dc:date>
    <dc:format>image/svg+xml</dc:format>
    <dc:creator>
     <cc:Agent>
      <dc:title>Matplotlib v3.10.3, https://matplotlib.org/</dc:title>
     </cc:Agent>
    </dc:creator>
   </cc:Work>
  </rdf:RDF>
 </metadata>
 <defs>
  <style type="text/css">*{stroke-linejoin: round; stroke-linecap: butt}</style>
 </defs>
 <g id="figure_1">
  <g id="patch_1">
   <path d="M 0 345.6 
L 460.8 345.6 
L 460.8 0 
L 0 0 
z
" style="fill: #ffffff"/>
  </g>
  <g id="axes_1">
   <g id="patch_2">
    <path d="M 57.6 307.584 
L 414.72 307.584 
L 414.72 41.472 
L 57.6 41.472 
z
" style="fill: #ffffff"/>
   </g>
   <g id="matplotlib.axis_1">
    <g id="xtick_1">
     <g id="line2d_1">
      <defs>
       <path id="mc012b8c377" d="M 0 0 
L 0 3.5 
" style="stroke: #000000; stroke-width: 0.8"/>
      </defs>
      <g>
       <use xlink:href="#mc012b8c377" x="73.937158" y="307.584" style="stroke: #000000; stroke-width: 0.8"/>
      </g>
     </g>
     <g id="text_1">
      <!-- 0.00 -->
      <g transform="translate(62.804345 322.182437) scale(0.1 -0.1)">
       <defs>
        <path id="DejaVuSans-30" d="M 2034 4250 
Q 1547 4250 1301 3770 
Q 1056 3291 1056 2328 
Q 1056 1369 1301 889 
Q 1547 409 2034 409 
Q 2525 409 2770 889 
Q 3016 1369 3016 2328 
Q 3016 3291 2770 3770 
Q 2525 4250 2034 4250 
z
M 2034 4750 
Q 2819 4750 3233 4129 
Q 3647 3509 3647 2328 
Q 3647 1150 3233 529 
Q 2819 -91 2034 -91 
Q 1250 -91 836 529 
Q 422 1150 422 2328 
Q 422 3509 836 4129 
Q 1250 4750 2034 4750 
z
" transform="scale(0.015625)"/>
        <path id="DejaVuSans-2e" d="M 684 794 
L 1344 794 
L 1344 0 
L 684 0 
L 684 794 
z
" transform="scale(0.015625)"/>
       </defs>
       <use xlink:href="#DejaVuSans-30"/>
       <use xlink:href="#DejaVuSans-2e" transform="translate(63.623047 0)"/>
       <use xlink:href="#DejaVuSans-30" transform="translate(95.410156 0)"/>
       <use xlink:href="#DejaVuSans-30" transform="translate(159.033203 0)"/>
      </g>
     </g>
    </g>
    <g id="xtick_2">
     <g id="line2d_2">
      <g>
       <use xlink:href="#mc012b8c377" x="138.816385" y="307.584" style="stroke: #000000; stroke-width: 0.8"/>
      </g>
     </g>
     <g id="text_2">
      <!-- 0.05 -->
      <g transform="translate(127.683573 322.182437) scale(0.1 -0.1)">
       <defs>
        <path id="DejaVuSans-35" d="M 691 4666 
L 3169 4666 
L 3169 4134 
L 1269 4134 
L 1269 2991 
Q 1406 3038 1543 3061 
Q 1681 3084 1819 3084 
Q 2600 3084 3056 2656 
Q 3513 2228 3513 1497 
Q 3513 744 3044 326 
Q 2575 -91 1722 -91 
Q 1428 -91 1123 -41 
Q 819 9 494 109 
L 494 744 
Q 775 591 1075 516 
Q 1375 441 1709 441 
Q 2250 441 2565 725 
Q 2881 1009 2881 1497 
Q 2881 1984 2565 2268 
Q 2250 2553 1709 2553 
Q 1456 2553 1204 2497 
Q 953 2441 691 2322 
L 691 4666 
z
" transform="scale(0.015625)"/>
       </defs>
       <use xlink:href="#DejaVuSans-30"/>
       <use xlink:href="#DejaVuSans-2e" transform="translate(63.623047 0)"/>
       <use xlink:href="#DejaVuSans-30" transform="translate(95.410156 0)"/>
       <use xlink:href="#DejaVuSans-35" transform="translate(159.033203 0)"/>
      </g>
     </g>
    </g>
    <g id="xtick_3">
     <g id="line2d_3">
      <g>
       <use xlink:href="#mc012b8c377" x="203.695613" y="307.584" style="stroke: #000000; stroke-width: 0.8"/>
      </g>
     </g>
     <g id="text_3">
      <!-- 0.10 -->
      <g transform="translate(192.5628 322.182437) scale(0.1 -0.1)">
       <defs>
        <path id="DejaVuSans-31" d="M 794 531 
L 1825 531 
L 1825 4091 
L 703 3866 
L 703 4441 
L 1819 4666 
L 2450 4666 
L 2450 531 
L 3481 531 
L 3481 0 
L 794 0 
L 794 531 
z
" transform="scale(0.015625)"/>
       </defs>
       <use xlink:href="#DejaVuSans-30"/>
       <use xlink:href="#DejaVuSans-2e" transform="translate(63.623047 0)"/>
       <use xlink:href="#DejaVuSans-31" transform="translate(95.410156 0)"/>
       <use xlink:href="#DejaVuSans-30" transform="translate(159.033203 0)"/>
      </g>
     </g>
    </g>
    <g id="xtick_4">
     <g id="line2d_4">
      <g>
       <use xlink:href="#mc012b8c377" x="268.574841" y="307.584" style="stroke: #000000; stroke-width: 0.8"/>
      </g>
     </g>
     <g id="text_4">
      <!-- 0.15 -->
      <g transform="translate(257.442028 322.182437) scale(0.1 -0.1)">
       <use xlink:href="#DejaVuSans-30"/>
       <use xlink:href="#DejaVuSans-2e" transform="translate(63.623047 0)"/>
       <use xlink:href="#DejaVuSans-31" transform="translate(95.410156 0)"/>
       <use xlink:href="#DejaVuSans-35" transform="translate(159.033203 0)"/>
      </g>
     </g>
    </g>
    <g id="xtick_5">
     <g id="line2d_5">
      <g>
       <use xlink:href="#mc012b8c377" x="333.454068" y="307.584" style="stroke: #000000; stroke-width: 0.8"/>
      </g>
     </g>
     <g id="text_5">
      <!-- 0.20 -->
      <g transform="translate(322.321256 322.182437) scale(0.1 -0.1)">
       <defs>
        <path id="DejaVuSans-32" d="M 1228 531 
L 3431 531 
L 3431 0 
L 469 0 
L 469 531 
Q 828 903 1448 1529 
Q 2069 2156 2228 2338 
Q 2531 2678 2651 2914 
Q 2772 3150 2772 3378 
Q 2772 3750 2511 3984 
Q 2250 4219 1831 4219 
Q 1534 4219 1204 4116 
Q 875 4013 500 3803 
L 500 4441 
Q 881 4594 1212 4672 
Q 1544 4750 1819 4750 
Q 2544 4750 2975 4387 
Q 3406 4025 3406 3419 
Q 3406 3131 3298 2873 
Q 3191 2616 2906 2266 
Q 2828 2175 2409 1742 
Q 1991 1309 1228 531 
z
" transform="scale(0.015625)"/>
       </defs>
       <use xlink:href="#DejaVuSans-30"/>
       <use xlink:href="#DejaVuSans-2e" transform="translate(63.623047 0)"/>
       <use xlink:href="#DejaVuSans-32" transform="translate(95.410156 0)"/>
       <use xlink:href="#DejaVuSans-30" transform="translate(159.033203 0)"/>
      </g>
     </g>
    </g>
    <g id="xtick_6">
     <g id="line2d_6">
      <g>
       <use xlink:href="#mc012b8c377" x="398.333296" y="307.584" style="stroke: #000000; stroke-width: 0.8"/>
      </g>
     </g>
     <g id="text_6">
      <!-- 0.25 -->
      <g transform="translate(387.200483 322.182437) scale(0.1 -0.1)">
       <use xlink:href="#DejaVuSans-30"/>
       <use xlink:href="#DejaVuSans-2e" transform="translate(63.623047 0)"/>
       <use xlink:href="#DejaVuSans-32" transform="translate(95.410156 0)"/>
       <use xlink:href="#DejaVuSans-35" transform="translate(159.033203 0)"/>
      </g>
     </g>
    </g>
    <g id="text_7">
     <!-- Strain -->
     <g transform="translate(221.348281 335.860562) scale(0.1 -0.1)">
      <defs>
       <path id="DejaVuSans-53" d="M 3425 4513 
L 3425 3897 
Q 3066 4069 2747 4153 
Q 2428 4238 2131 4238 
Q 1616 4238 1336 4038 
Q 1056 3838 1056 3469 
Q 1056 3159 1242 3001 
Q 1428 2844 1947 2747 
L 2328 2669 
Q 3034 2534 3370 2195 
Q 3706 1856 3706 1288 
Q 3706 609 3251 259 
Q 2797 -91 1919 -91 
Q 1588 -91 1214 -16 
Q 841 59 441 206 
L 441 856 
Q 825 641 1194 531 
Q 1563 422 1919 422 
Q 2459 422 2753 634 
Q 3047 847 3047 1241 
Q 3047 1584 2836 1778 
Q 2625 1972 2144 2069 
L 1759 2144 
Q 1053 2284 737 2584 
Q 422 2884 422 3419 
Q 422 4038 858 4394 
Q 1294 4750 2059 4750 
Q 2388 4750 2728 4690 
Q 3069 4631 3425 4513 
z
" transform="scale(0.015625)"/>
       <path id="DejaVuSans-74" d="M 1172 4494 
L 1172 3500 
L 2356 3500 
L 2356 3053 
L 1172 3053 
L 1172 1153 
Q 1172 725 1289 603 
Q 1406 481 1766 481 
L 2356 481 
L 2356 0 
L 1766 0 
Q 1100 0 847 248 
Q 594 497 594 1153 
L 594 3053 
L 172 3053 
L 172 3500 
L 594 3500 
L 594 4494 
L 1172 4494 
z
" transform="scale(0.015625)"/>
       <path id="DejaVuSans-72" d="M 2631 2963 
Q 2534 3019 2420 3045 
Q 2306 3072 2169 3072 
Q 1681 3072 1420 2755 
Q 1159 2438 1159 1844 
L 1159 0 
L 581 0 
L 581 3500 
L 1159 3500 
L 1159 2956 
Q 1341 3275 1631 3429 
Q 1922 3584 2338 3584 
Q 2397 3584 2469 3576 
Q 2541 3569 2628 3553 
L 2631 2963 
z
" transform="scale(0.015625)"/>
       <path id="DejaVuSans-61" d="M 2194 1759 
Q 1497 1759 1228 1600 
Q 959 1441 959 1056 
Q 959 750 1161 570 
Q 1363 391 1709 391 
Q 2188 391 2477 730 
Q 2766 1069 2766 1631 
L 2766 1759 
L 2194 1759 
z
M 3341 1997 
L 3341 0 
L 2766 0 
L 2766 531 
Q 2569 213 2275 61 
Q 1981 -91 1556 -91 
Q 1019 -91 701 211 
Q 384 513 384 1019 
Q 384 1609 779 1909 
Q 1175 2209 1959 2209 
L 2766 2209 
L 2766 2266 
Q 2766 2663 2505 2880 
Q 2244 3097 1772 3097 
Q 1472 3097 1187 3025 
Q 903 2953 641 2809 
L 641 3341 
Q 956 3463 1253 3523 
Q 1550 3584 1831 3584 
Q 2591 3584 2966 3190 
Q 3341 2797 3341 1997 
z
" transform="scale(0.015625)"/>
       <path id="DejaVuSans-69" d="M 603 3500 
L 1178 3500 
L 1178 0 
L 603 0 
L 603 3500 
z
M 603 4863 
L 1178 4863 
L 1178 4134 
L 603 4134 
L 603 4863 
z
" transform="scale(0.015625)"/>
       <path id="DejaVuSans-6e" d="M 3513 2113 
L 3513 0 
L 2938 0 
L 2938 2094 
Q 2938 2591 2744 2837 
Q 2550 3084 2163 3084 
Q 1697 3084 1428 2787 
Q 1159 2491 1159 1978 
L 1159 0 
L 581 0 
L 581 3500 
L 1159 3500 
L 1159 2956 
Q 1366 3272 1645 3428 
Q 1925 3584 2291 3584 
Q 2894 3584 3203 3211 
Q 3513 2838 3513 2113 
z
" transform="scale(0.015625)"/>
      </defs>
      <use xlink:href="#DejaVuSans-53"/>
      <use xlink:href="#DejaVuSans-74" transform="translate(63.476562 0)"/>
      <use xlink:href="#DejaVuSans-72" transform="translate(102.685547 0)"/>
      <use xlink:href="#DejaVuSans-61" transform="translate(143.798828 0)"/>
      <use xlink:href="#DejaVuSans-69" transform="translate(205.078125 0)"/>
      <use xlink:href="#DejaVuSans-6e" transform="translate(232.861328 0)"/>
     </g>
    </g>
   </g>
   <g id="matplotlib.axis_2">
    <g id="ytick_1">
     <g id="line2d_7">
      <defs>
       <path id="m2bb02f17e0" d="M 0 0 
L -3.5 0 
" style="stroke: #000000; stroke-width: 0.8"/>
      </defs>
      <g>
       <use xlink:href="#m2bb02f17e0" x="57.6" y="283.404371" style="stroke: #000000; stroke-width: 0.8"/>
      </g>
     </g>
     <g id="text_8">
      <!-- 0 -->
      <g transform="translate(44.2375 287.20359) scale(0.1 -0.1)">
       <use xlink:href="#DejaVuSans-30"/>
      </g>
     </g>
    </g>
    <g id="ytick_2">
     <g id="line2d_8">
      <g>
       <use xlink:href="#m2bb02f17e0" x="57.6" y="239.087549" style="stroke: #000000; stroke-width: 0.8"/>
      </g>
     </g>
     <g id="text_9">
      <!-- 500 -->
      <g transform="translate(31.5125 242.886768) scale(0.1 -0.1)">
       <use xlink:href="#DejaVuSans-35"/>
       <use xlink:href="#DejaVuSans-30" transform="translate(63.623047 0)"/>
       <use xlink:href="#DejaVuSans-30" transform="translate(127.246094 0)"/>
      </g>
     </g>
    </g>
    <g id="ytick_3">
     <g id="line2d_9">
      <g>
       <use xlink:href="#m2bb02f17e0" x="57.6" y="194.770728" style="stroke: #000000; stroke-width: 0.8"/>
      </g>
     </g>
     <g id="text_10">
      <!-- 1000 -->
      <g transform="translate(25.15 198.569946) scale(0.1 -0.1)">
       <use xlink:href="#DejaVuSans-31"/>
       <use xlink:href="#DejaVuSans-30" transform="translate(63.623047 0)"/>
       <use xlink:href="#DejaVuSans-30" transform="translate(127.246094 0)"/>
       <use xlink:href="#DejaVuSans-30" transform="translate(190.869141 0)"/>
      </g>
     </g>
    </g>
    <g id="ytick_4">
     <g id="line2d_10">
      <g>
       <use xlink:href="#m2bb02f17e0" x="57.6" y="150.453906" style="stroke: #000000; stroke-width: 0.8"/>
      </g>
     </g>
     <g id="text_11">
      <!-- 1500 -->
      <g transform="translate(25.15 154.253124) scale(0.1 -0.1)">
       <use xlink:href="#DejaVuSans-31"/>
       <use xlink:href="#DejaVuSans-35" transform="translate(63.623047 0)"/>
       <use xlink:href="#DejaVuSans-30" transform="translate(127.246094 0)"/>
       <use xlink:href="#DejaVuSans-30" transform="translate(190.869141 0)"/>
      </g>
     </g>
    </g>
    <g id="ytick_5">
     <g id="line2d_11">
      <g>
       <use xlink:href="#m2bb02f17e0" x="57.6" y="106.137084" style="stroke: #000000; stroke-width: 0.8"/>
      </g>
     </g>
     <g id="text_12">
      <!-- 2000 -->
      <g transform="translate(25.15 109.936302) scale(0.1 -0.1)">
       <use xlink:href="#DejaVuSans-32"/>
       <use xlink:href="#DejaVuSans-30" transform="translate(63.623047 0)"/>
       <use xlink:href="#DejaVuSans-30" transform="translate(127.246094 0)"/>
       <use xlink:href="#DejaVuSans-30" transform="translate(190.869141 0)"/>
      </g>
     </g>
    </g>
    <g id="ytick_6">
     <g id="line2d_12">
      <g>
       <use xlink:href="#m2bb02f17e0" x="57.6" y="61.820262" style="stroke: #000000; stroke-width: 0.8"/>
      </g>
     </g>
     <g id="text_13">
      <!-- 2500 -->
      <g transform="translate(25.15 65.619481) scale(0.1 -0.1)">
       <use xlink:href="#DejaVuSans-32"/>
       <use xlink:href="#DejaVuSans-35" transform="translate(63.623047 0)"/>
       <use xlink:href="#DejaVuSans-30" transform="translate(127.246094 0)"/>
       <use xlink:href="#DejaVuSans-30" transform="translate(190.869141 0)"/>
      </g>
     </g>
    </g>
    <g id="text_14">
     <!-- Stress [Pa] -->
     <g transform="translate(19.070312 201.235813) rotate(-90) scale(0.1 -0.1)">
      <defs>
       <path id="DejaVuSans-65" d="M 3597 1894 
L 3597 1613 
L 953 1613 
Q 991 1019 1311 708 
Q 1631 397 2203 397 
Q 2534 397 2845 478 
Q 3156 559 3463 722 
L 3463 178 
Q 3153 47 2828 -22 
Q 2503 -91 2169 -91 
Q 1331 -91 842 396 
Q 353 884 353 1716 
Q 353 2575 817 3079 
Q 1281 3584 2069 3584 
Q 2775 3584 3186 3129 
Q 3597 2675 3597 1894 
z
M 3022 2063 
Q 3016 2534 2758 2815 
Q 2500 3097 2075 3097 
Q 1594 3097 1305 2825 
Q 1016 2553 972 2059 
L 3022 2063 
z
" transform="scale(0.015625)"/>
       <path id="DejaVuSans-73" d="M 2834 3397 
L 2834 2853 
Q 2591 2978 2328 3040 
Q 2066 3103 1784 3103 
Q 1356 3103 1142 2972 
Q 928 2841 928 2578 
Q 928 2378 1081 2264 
Q 1234 2150 1697 2047 
L 1894 2003 
Q 2506 1872 2764 1633 
Q 3022 1394 3022 966 
Q 3022 478 2636 193 
Q 2250 -91 1575 -91 
Q 1294 -91 989 -36 
Q 684 19 347 128 
L 347 722 
Q 666 556 975 473 
Q 1284 391 1588 391 
Q 1994 391 2212 530 
Q 2431 669 2431 922 
Q 2431 1156 2273 1281 
Q 2116 1406 1581 1522 
L 1381 1569 
Q 847 1681 609 1914 
Q 372 2147 372 2553 
Q 372 3047 722 3315 
Q 1072 3584 1716 3584 
Q 2034 3584 2315 3537 
Q 2597 3491 2834 3397 
z
" transform="scale(0.015625)"/>
       <path id="DejaVuSans-20" transform="scale(0.015625)"/>
       <path id="DejaVuSans-5b" d="M 550 4863 
L 1875 4863 
L 1875 4416 
L 1125 4416 
L 1125 -397 
L 1875 -397 
L 1875 -844 
L 550 -844 
L 550 4863 
z
" transform="scale(0.015625)"/>
       <path id="DejaVuSans-50" d="M 1259 4147 
L 1259 2394 
L 2053 2394 
Q 2494 2394 2734 2622 
Q 2975 2850 2975 3272 
Q 2975 3691 2734 3919 
Q 2494 4147 2053 4147 
L 1259 4147 
z
M 628 4666 
L 2053 4666 
Q 2838 4666 3239 4311 
Q 3641 3956 3641 3272 
Q 3641 2581 3239 2228 
Q 2838 1875 2053 1875 
L 1259 1875 
L 1259 0 
L 628 0 
L 628 4666 
z
" transform="scale(0.015625)"/>
       <path id="DejaVuSans-5d" d="M 1947 4863 
L 1947 -844 
L 622 -844 
L 622 -397 
L 1369 -397 
L 1369 4416 
L 622 4416 
L 622 4863 
L 1947 4863 
z
" transform="scale(0.015625)"/>
      </defs>
      <use xlink:href="#DejaVuSans-53"/>
      <use xlink:href="#DejaVuSans-74" transform="translate(63.476562 0)"/>
      <use xlink:href="#DejaVuSans-72" transform="translate(102.685547 0)"/>
      <use xlink:href="#DejaVuSans-65" transform="translate(141.548828 0)"/>
      <use xlink:href="#DejaVuSans-73" transform="translate(203.072266 0)"/>
      <use xlink:href="#DejaVuSans-73" transform="translate(255.171875 0)"/>
      <use xlink:href="#DejaVuSans-20" transform="translate(307.271484 0)"/>
      <use xlink:href="#DejaVuSans-5b" transform="translate(339.058594 0)"/>
      <use xlink:href="#DejaVuSans-50" transform="translate(378.072266 0)"/>
      <use xlink:href="#DejaVuSans-61" transform="translate(433.875 0)"/>
      <use xlink:href="#DejaVuSans-5d" transform="translate(495.154297 0)"/>
     </g>
    </g>
   </g>
   <g id="line2d_13">
    <path d="M 73.937158 283.663281 
L 73.937259 283.743576 
L 73.938767 283.568104 
L 73.978501 283.645575 
L 74.444207 283.163847 
L 75.391846 281.842243 
L 75.887189 282.083229 
L 77.797847 282.504503 
L 78.286649 282.464752 
L 78.783053 282.778678 
L 79.255768 282.256689 
L 79.727775 281.483702 
L 80.208445 281.075722 
L 80.678861 280.855756 
L 81.169077 280.443945 
L 81.650808 280.447723 
L 82.61091 280.779236 
L 83.076377 280.872872 
L 84.032678 280.50761 
L 84.965291 278.97906 
L 85.434647 278.845374 
L 87.32442 278.780014 
L 89.224295 277.754807 
L 90.18643 277.283439 
L 90.669752 276.992471 
L 92.114413 276.679672 
L 93.056307 276.416801 
L 93.990953 275.730699 
L 94.942481 275.251389 
L 96.827329 274.812543 
L 98.268455 274.117332 
L 98.747761 273.862317 
L 99.696902 273.572447 
L 102.525059 272.339513 
L 103.945855 271.718527 
L 105.373722 271.321652 
L 107.268735 270.282128 
L 109.173913 269.49507 
L 109.655113 269.20186 
L 111.053455 268.670286 
L 115.31107 266.821265 
L 115.784491 266.56762 
L 117.212182 266.074741 
L 118.147711 265.558389 
L 122.00255 263.922608 
L 122.946035 263.355014 
L 127.233172 261.358693 
L 128.673326 260.460098 
L 130.607319 259.860284 
L 135.346322 257.516299 
L 136.287685 257.177242 
L 140.574557 254.959974 
L 141.526351 254.46198 
L 142.473902 254.002336 
L 144.841629 252.923808 
L 146.742808 251.867736 
L 148.148577 251.408116 
L 150.519045 250.015708 
L 151.470309 249.616416 
L 152.902419 248.655695 
L 154.808127 248.072014 
L 156.235641 247.05608 
L 156.707786 246.825872 
L 157.194467 246.751752 
L 158.160049 246.194037 
L 159.093634 245.580338 
L 162.392561 243.843127 
L 162.873584 243.700002 
L 170.498617 239.468754 
L 175.678856 236.598035 
L 176.619512 236.066689 
L 178.544667 235.020485 
L 179.029579 234.546734 
L 179.9667 234.077547 
L 181.402964 233.555566 
L 183.308673 232.348067 
L 183.792525 232.237512 
L 188.070823 229.688497 
L 189.020141 229.012017 
L 191.89088 227.481845 
L 194.281148 225.9163 
L 196.162018 224.965388 
L 200.928676 222.052349 
L 201.87605 221.427345 
L 206.601109 218.690835 
L 208.990846 217.255476 
L 209.946441 216.754773 
L 211.357337 215.72305 
L 213.721352 214.331366 
L 214.192829 213.915538 
L 216.562822 212.674266 
L 217.524604 211.977793 
L 218.456952 211.333264 
L 219.392305 210.8732 
L 221.76843 209.251321 
L 223.1917 208.520982 
L 225.090956 207.110193 
L 230.305049 203.776211 
L 231.266919 203.182224 
L 232.200151 202.687686 
L 233.145403 201.959029 
L 235.518346 200.524301 
L 239.365053 197.890165 
L 239.851027 197.504139 
L 240.316317 197.351006 
L 242.245449 196.090799 
L 243.214213 195.331919 
L 246.579256 192.928552 
L 247.995279 191.91855 
L 249.399988 191.046395 
L 250.328733 190.355101 
L 252.204212 189.108784 
L 253.642421 187.917728 
L 256.492675 185.995842 
L 258.883296 184.241669 
L 265.031681 179.963642 
L 266.459548 178.78515 
L 270.267253 175.941197 
L 271.711737 174.841602 
L 274.062207 173.061837 
L 275.507134 172.011943 
L 277.405329 170.436449 
L 278.828953 169.466993 
L 280.734662 167.82825 
L 281.680798 167.086281 
L 283.103716 166.089358 
L 284.070536 165.3316 
L 284.535008 164.319916 
L 285.001712 164.485311 
L 285.939186 163.905279 
L 286.403769 163.201204 
L 286.88435 163.279143 
L 287.361662 162.36873 
L 287.841094 161.888253 
L 288.326714 161.800598 
L 289.26684 161.337556 
L 291.171664 159.382015 
L 292.107547 158.72492 
L 295.43635 156.015778 
L 296.834849 154.9035 
L 308.232418 145.040859 
L 309.179969 144.223776 
L 309.650209 143.972327 
L 311.085324 142.686352 
L 312.024389 141.667288 
L 312.957444 141.011968 
L 313.917016 140.090158 
L 317.278258 137.209257 
L 318.246492 136.145723 
L 319.174221 135.426934 
L 320.593426 134.232094 
L 321.553175 133.131191 
L 322.48729 132.397629 
L 323.432543 131.768608 
L 328.674302 126.743169 
L 329.60276 126.137271 
L 330.574177 125.04571 
L 331.511629 124.023937 
L 332.923409 122.90874 
L 333.865921 121.885472 
L 334.824609 120.86211 
L 339.059596 116.972795 
L 339.52683 116.577146 
L 340.957261 114.815645 
L 343.320238 112.821613 
L 344.274064 111.625418 
L 348.548826 107.403795 
L 349.971302 105.972173 
L 351.403146 104.639579 
L 352.353702 103.771675 
L 354.265377 101.660898 
L 367.576654 87.684654 
L 369.471049 85.61447 
L 370.4087 84.76142 
L 378.48299 75.530403 
L 379.425414 74.552633 
L 380.378976 73.678749 
L 381.330593 72.503481 
L 382.292286 71.13931 
L 384.201707 69.42695 
L 386.565104 66.581643 
L 387.99191 65.020909 
L 388.964255 63.772654 
L 390.371261 62.113265 
L 396.078487 55.406856 
L 397.491947 54.16479 
L 398.184313 53.568 
L 398.487273 53.986257 
L 398.329893 60.916159 
L 398.332279 95.574821 
L 397.862901 95.641211 
L 396.444404 98.072278 
L 395.94853 98.216991 
L 395.451773 98.505483 
L 393.517249 100.254372 
L 393.023851 100.314408 
L 390.621496 105.643964 
L 390.155322 105.781717 
L 389.664046 105.764142 
L 389.185851 106.089816 
L 388.228754 107.191654 
L 387.751443 107.442683 
L 387.287125 107.929162 
L 386.809549 110.060527 
L 386.340016 110.82006 
L 385.860937 111.329592 
L 384.916922 112.053158 
L 383.468195 113.810828 
L 382.523384 115.208164 
L 381.57106 116.41557 
L 380.162551 118.520216 
L 379.219331 119.111587 
L 378.277437 119.910918 
L 377.812059 120.587538 
L 377.347476 121.802792 
L 376.861945 122.573162 
L 375.902373 123.269261 
L 375.419228 123.591245 
L 374.945895 124.198312 
L 373.997813 125.912634 
L 372.118092 127.668529 
L 370.690313 129.687599 
L 368.797598 131.60521 
L 367.843506 132.846996 
L 365.937091 134.793978 
L 364.532028 136.678798 
L 358.782375 142.667807 
L 357.815732 143.708265 
L 356.88197 144.523012 
L 355.45755 146.132116 
L 354.503989 147.108859 
L 353.076298 148.596535 
L 352.11655 149.654744 
L 350.7053 150.906152 
L 348.319717 153.330306 
L 344.508256 156.97247 
L 342.605553 158.902413 
L 340.706827 160.691568 
L 338.827017 162.477826 
L 335.013213 165.814354 
L 334.547482 166.454305 
L 333.577126 167.33202 
L 332.620714 167.953228 
L 332.15348 168.230369 
L 330.72632 169.752705 
L 329.761621 170.528027 
L 329.283426 170.815865 
L 325.95754 173.92799 
L 324.060141 175.462472 
L 323.593613 175.750123 
L 321.67774 177.520826 
L 320.238934 178.625022 
L 318.836347 180.001338 
L 317.409187 180.966777 
L 315.967531 182.265925 
L 314.557872 183.19988 
L 313.607051 184.249493 
L 311.229777 185.924536 
L 310.759183 186.491431 
L 308.852591 187.629668 
L 307.904421 188.723284 
L 306.006138 189.853102 
L 305.524849 190.538457 
L 305.047803 190.976333 
L 303.137852 191.880544 
L 302.669999 192.62541 
L 302.202764 193.122423 
L 300.315971 194.072891 
L 299.363471 195.385772 
L 298.889519 195.61452 
L 298.422638 195.716176 
L 297.451354 196.244364 
L 296.502654 197.627406 
L 294.616392 198.36363 
L 294.139699 198.891964 
L 293.66504 199.600488 
L 291.775419 200.287034 
L 290.825658 201.691283 
L 290.355772 201.966275 
L 289.878461 202.067009 
L 288.44034 202.844813 
L 287.955958 203.636297 
L 287.476349 204.037271 
L 286.055685 204.451838 
L 285.581733 204.742519 
L 284.639663 205.892376 
L 283.692466 206.404758 
L 282.728828 206.832474 
L 280.847603 208.469255 
L 277.023812 210.992204 
L 276.542523 211.462592 
L 274.611888 212.392827 
L 274.133605 212.663522 
L 273.650637 213.184078 
L 272.704412 213.646151 
L 272.23152 213.847292 
L 271.295814 214.615514 
L 270.820889 215.094963 
L 269.882355 215.519853 
L 268.924197 215.817151 
L 268.454664 216.211772 
L 267.975851 216.799032 
L 267.497125 217.202061 
L 265.577009 218.054551 
L 264.629281 218.967486 
L 262.237666 220.36721 
L 261.301959 220.97493 
L 256.547599 223.80884 
L 255.114428 224.704164 
L 254.172711 225.220096 
L 253.2241 225.809131 
L 250.868349 227.084106 
L 249.4472 227.94832 
L 247.532564 228.839884 
L 246.586073 229.641155 
L 245.64471 230.018282 
L 244.216843 230.714381 
L 243.269115 231.425241 
L 240.438661 232.980182 
L 238.524688 233.943198 
L 236.63489 234.872155 
L 235.686455 235.340767 
L 234.734219 236.056719 
L 233.792326 236.339459 
L 232.847957 236.872114 
L 231.912162 237.542614 
L 230.482527 238.151619 
L 229.05961 239.042576 
L 227.631931 239.494953 
L 226.227133 240.580021 
L 224.793786 241.118701 
L 223.365212 241.968528 
L 221.944062 242.586338 
L 220.998014 243.25086 
L 218.623127 244.271535 
L 217.672747 244.696566 
L 216.726213 245.151714 
L 215.309218 246.022001 
L 213.393345 246.690122 
L 212.924873 247.13977 
L 211.969543 247.468877 
L 211.009971 247.722849 
L 210.540792 248.029419 
L 210.063835 248.475423 
L 209.591739 248.763447 
L 207.241778 249.576466 
L 206.296702 250.190632 
L 205.353924 250.53025 
L 203.457784 251.517915 
L 202.017542 252.157189 
L 201.081128 252.463828 
L 200.139765 252.934776 
L 198.705357 253.731399 
L 195.831768 254.957688 
L 195.367539 255.240481 
L 194.416452 255.585319 
L 192.511318 256.495956 
L 191.560762 256.837046 
L 190.62152 257.168629 
L 189.198338 257.817456 
L 187.776658 258.322503 
L 185.374369 259.445431 
L 184.410908 259.831574 
L 183.924758 260.082323 
L 182.508205 260.4591 
L 181.567858 260.97537 
L 180.614385 261.499616 
L 178.739436 262.053308 
L 177.782604 262.527339 
L 177.297515 262.790887 
L 175.881846 263.176877 
L 174.929168 263.507316 
L 173.966945 264.026564 
L 171.12553 265.106166 
L 169.696635 265.633262 
L 168.273541 265.991889 
L 165.88893 267.019314 
L 164.939258 267.28633 
L 163.50432 268.076904 
L 163.01817 268.239116 
L 162.060719 268.389278 
L 160.627548 269.042823 
L 160.142989 269.248401 
L 159.194731 269.328926 
L 158.243822 269.7498 
L 157.769251 270.054173 
L 156.346334 270.421853 
L 155.881397 270.448552 
L 155.407092 270.658568 
L 154.941625 271.003301 
L 154.464756 271.209556 
L 152.560462 271.505067 
L 151.619275 272.116945 
L 150.661117 272.371174 
L 149.712329 272.629315 
L 148.286318 273.27347 
L 147.348844 273.463823 
L 146.390874 273.955725 
L 144.947627 274.253574 
L 144.47721 274.331378 
L 143.048724 275.05158 
L 140.20616 275.998929 
L 136.386081 277.399745 
L 134.970627 277.870813 
L 133.09179 278.423008 
L 131.675944 279.084867 
L 129.317143 279.800713 
L 127.866471 280.472989 
L 125.492644 281.120169 
L 123.098548 281.962233 
L 122.147992 282.346298 
L 118.827322 283.309535 
L 117.398217 283.775228 
L 109.75884 286.264497 
L 108.794849 286.640013 
L 107.825907 286.771138 
L 105.918254 287.550812 
L 104.035527 288.103511 
L 103.097346 288.40315 
L 102.144668 288.506379 
L 101.674782 288.605175 
L 100.706319 289.042731 
L 94.548211 290.710439 
L 93.116808 291.107152 
L 92.161302 291.403456 
L 90.759599 291.75627 
L 87.420521 292.777873 
L 86.939144 292.986324 
L 84.55966 293.367786 
L 83.144521 293.867209 
L 81.71524 293.971043 
L 80.755933 294.27906 
L 79.793886 294.627296 
L 77.889945 294.98773 
L 76.475477 295.488 
L 74.580552 295.196173 
L 73.938657 295.363056 
L 73.832727 294.289113 
L 73.833046 294.289961 
" clip-path="url(#pa52a6d02cc)" style="fill: none; stroke: #ff0000; stroke-width: 1.5; stroke-linecap: square"/>
   </g>
   <g id="line2d_14">
    <path d="M 73.937158 283.663281 
L 73.937259 283.743576 
L 73.938767 283.568104 
L 73.978501 283.645575 
L 74.444207 283.163847 
L 75.391846 281.842243 
L 75.887189 283.82643 
L 77.332381 282.902978 
L 78.286649 282.466316 
L 78.783053 282.778678 
L 79.255768 282.256689 
L 79.727775 281.483702 
L 80.208445 281.075722 
L 80.678861 280.855756 
L 81.169077 280.443945 
L 81.650808 280.447723 
L 82.61091 280.779236 
L 83.076377 280.872872 
L 84.032678 280.50761 
L 84.965291 278.97906 
L 85.434647 278.845374 
L 87.32442 278.780014 
L 89.224295 277.754807 
L 90.18643 277.283439 
L 90.669752 276.992471 
L 92.114413 276.679672 
L 93.056307 276.416801 
L 93.990953 275.730699 
L 94.942481 275.251389 
L 96.827329 274.812543 
L 98.268455 274.117332 
L 98.747761 273.862317 
L 99.696902 273.572447 
L 102.525059 272.339513 
L 103.945855 271.718527 
L 105.373722 271.321652 
L 107.268735 270.282128 
L 109.173913 269.49507 
L 109.655113 269.20186 
L 111.053455 268.670286 
L 115.31107 266.821265 
L 115.784491 266.56762 
L 117.212182 266.074741 
L 118.147711 265.558389 
L 122.00255 263.922608 
L 122.946035 263.355014 
L 127.233172 261.358693 
L 128.673326 260.460098 
L 130.607319 259.860284 
L 135.346322 257.516299 
L 136.287685 257.177242 
L 140.574557 254.959974 
L 141.526351 254.46198 
L 142.473902 254.002336 
L 144.841629 252.923808 
L 146.742808 251.867736 
L 148.148577 251.408116 
L 150.519045 250.015708 
L 151.470309 249.616416 
L 152.902419 248.655695 
L 154.808127 248.072014 
L 156.235641 247.05608 
L 156.707786 246.825872 
L 157.194467 246.751752 
L 158.160049 246.194037 
L 159.093634 245.580338 
L 162.392561 243.843127 
L 162.873584 243.700002 
L 170.498617 239.468754 
L 175.678856 236.598035 
L 176.619512 236.066689 
L 178.544667 235.020485 
L 179.029579 234.546734 
L 179.9667 234.077547 
L 181.402964 233.555566 
L 183.308673 232.348067 
L 183.792525 232.237512 
L 188.070823 229.688497 
L 189.020141 229.012017 
L 191.89088 227.481845 
L 194.281148 225.9163 
L 196.162018 224.965388 
L 200.928676 222.052349 
L 201.87605 221.427345 
L 206.601109 218.690835 
L 208.990846 217.255476 
L 209.946441 216.754773 
L 211.357337 215.72305 
L 213.721352 214.331366 
L 214.192829 213.915538 
L 216.562822 212.674266 
L 217.524604 211.977793 
L 218.456952 211.333264 
L 219.392305 210.8732 
L 221.76843 209.251321 
L 223.1917 208.520982 
L 225.090956 207.110193 
L 230.305049 203.776211 
L 231.266919 203.182224 
L 232.200151 202.687686 
L 233.145403 201.959029 
L 235.518346 200.524301 
L 239.365053 197.890165 
L 239.851027 197.504139 
L 240.316317 197.351006 
L 242.245449 196.090799 
L 243.214213 195.331919 
L 246.579256 192.928552 
L 247.995279 191.91855 
L 249.399988 191.046395 
L 250.328733 190.355101 
L 252.204212 189.108784 
L 253.642421 187.917728 
L 256.492675 185.995842 
L 258.883296 184.241669 
L 265.031681 179.963642 
L 266.459548 178.78515 
L 270.267253 175.941197 
L 271.711737 174.841602 
L 274.062207 173.061837 
L 275.507134 172.011943 
L 277.405329 170.436449 
L 278.828953 169.466993 
L 280.734662 167.82825 
L 281.680798 167.086281 
L 283.103716 166.089358 
L 284.070536 165.3316 
L 284.535008 164.319916 
L 285.001712 164.485311 
L 285.939186 163.905279 
L 286.403769 163.201204 
L 286.88435 163.279143 
L 287.361662 162.36873 
L 287.841094 161.888253 
L 288.326714 161.800598 
L 289.26684 161.337556 
L 291.171664 159.382015 
L 292.107547 158.72492 
L 295.43635 156.015778 
L 296.834849 154.9035 
L 308.232418 145.040859 
L 309.179969 144.223776 
L 309.650209 143.972327 
L 311.085324 142.686352 
L 312.024389 141.667288 
L 312.957444 141.011968 
L 313.917016 140.090158 
L 317.278258 137.209257 
L 318.246492 136.145723 
L 319.174221 135.426934 
L 320.593426 134.232094 
L 321.553175 133.131191 
L 322.48729 132.397629 
L 323.432543 131.768608 
L 328.674302 126.743169 
L 329.60276 126.137271 
L 330.574177 125.04571 
L 331.511629 124.023937 
L 332.923409 122.90874 
L 333.865921 121.885472 
L 334.824609 120.86211 
L 339.059596 116.972795 
L 339.52683 116.577146 
L 340.957261 114.815645 
L 343.320238 112.821613 
L 344.274064 111.625418 
L 348.548826 107.403795 
L 349.971302 105.972173 
L 351.403146 104.639579 
L 352.353702 103.771675 
L 354.265377 101.660898 
L 367.576654 87.684654 
L 369.471049 85.61447 
L 370.4087 84.76142 
L 378.48299 75.530403 
L 379.425414 74.552633 
L 380.378976 73.678749 
L 381.330593 72.503481 
L 382.292286 71.13931 
L 384.201707 69.42695 
L 386.565104 66.581643 
L 387.99191 65.020909 
L 388.964255 63.772654 
L 390.371261 62.113265 
L 396.078487 55.406856 
L 397.491947 54.16479 
L 398.184313 53.568 
L 398.487273 53.986257 
L 398.329893 60.916159 
L 398.332279 95.574821 
L 397.862901 95.641211 
L 396.444404 98.072278 
L 395.94853 98.216991 
L 395.451773 98.505483 
L 393.517249 100.254372 
L 393.023851 100.314408 
L 390.621496 105.643964 
L 390.155322 105.781717 
L 389.664046 105.764142 
L 389.185851 106.089816 
L 388.228754 107.191654 
L 387.751443 107.442683 
L 387.287125 107.929162 
L 386.809549 110.060527 
L 386.340016 110.82006 
L 385.860937 111.329592 
L 384.916922 112.053158 
L 383.468195 113.810828 
L 382.523384 115.208164 
L 381.57106 116.41557 
L 380.162551 118.520216 
L 379.219331 119.111587 
L 378.277437 119.910918 
L 377.812059 120.587538 
L 377.347476 121.802792 
L 376.861945 122.573162 
L 375.902373 123.269261 
L 375.419228 123.591245 
L 374.945895 124.198312 
L 373.997813 125.912634 
L 372.118092 127.668529 
L 370.690313 129.687599 
L 368.797598 131.60521 
L 367.843506 132.846996 
L 365.937091 134.793978 
L 364.532028 136.678798 
L 358.782375 142.667807 
L 357.815732 143.708265 
L 356.88197 144.523012 
L 355.45755 146.132116 
L 354.503989 147.108859 
L 353.076298 148.596535 
L 352.11655 149.654744 
L 350.7053 150.906152 
L 348.319717 153.330306 
L 344.508256 156.97247 
L 342.605553 158.902413 
L 340.706827 160.691568 
L 338.827017 162.477826 
L 335.013213 165.814354 
L 334.547482 166.454305 
L 333.577126 167.33202 
L 332.620714 167.953228 
L 332.15348 168.230369 
L 330.72632 169.752705 
L 329.761621 170.528027 
L 329.283426 170.815865 
L 325.95754 173.92799 
L 324.060141 175.462472 
L 323.593613 175.750123 
L 321.67774 177.520826 
L 320.238934 178.625022 
L 318.836347 180.001338 
L 317.409187 180.966777 
L 315.967531 182.265925 
L 314.557872 183.19988 
L 313.607051 184.249493 
L 311.229777 185.924536 
L 310.759183 186.491431 
L 308.852591 187.629668 
L 307.904421 188.723284 
L 306.006138 189.853102 
L 305.524849 190.538457 
L 305.047803 190.976333 
L 303.137852 191.880544 
L 302.669999 192.62541 
L 302.202764 193.122423 
L 300.315971 194.072891 
L 299.363471 195.385772 
L 298.889519 195.61452 
L 298.422638 195.716176 
L 297.451354 196.244364 
L 296.502654 197.627406 
L 294.616392 198.36363 
L 294.139699 198.891964 
L 293.66504 199.600488 
L 291.775419 200.287034 
L 290.825658 201.691283 
L 290.355772 201.966275 
L 289.878461 202.067009 
L 288.44034 202.844813 
L 287.955958 203.636297 
L 287.476349 204.037271 
L 286.055685 204.451838 
L 285.581733 204.742519 
L 284.639663 205.892376 
L 283.692466 206.404758 
L 282.728828 206.832474 
L 280.847603 208.469255 
L 277.023812 210.992204 
L 276.542523 211.462592 
L 274.611888 212.392827 
L 274.133605 212.663522 
L 273.650637 213.184078 
L 272.704412 213.646151 
L 272.23152 213.847292 
L 271.295814 214.615514 
L 270.820889 215.094963 
L 269.882355 215.519853 
L 268.924197 215.817151 
L 268.454664 216.211772 
L 267.975851 216.799032 
L 267.497125 217.202061 
L 265.577009 218.054551 
L 264.629281 218.967486 
L 262.237666 220.36721 
L 261.301959 220.97493 
L 256.547599 223.80884 
L 255.114428 224.704164 
L 254.172711 225.220096 
L 253.2241 225.809131 
L 250.868349 227.084106 
L 249.4472 227.94832 
L 247.532564 228.839884 
L 246.586073 229.641155 
L 245.64471 230.018282 
L 244.216843 230.714381 
L 243.269115 231.425241 
L 240.438661 232.980182 
L 238.524688 233.943198 
L 236.63489 234.872155 
L 235.686455 235.340767 
L 234.734219 236.056719 
L 233.792326 236.339459 
L 232.847957 236.872114 
L 231.912162 237.542614 
L 230.482527 238.151619 
L 229.05961 239.042576 
L 227.631931 239.494953 
L 226.227133 240.580021 
L 224.793786 241.118701 
L 223.365212 241.968528 
L 221.944062 242.586338 
L 220.998014 243.25086 
L 218.623127 244.271535 
L 217.672747 244.696566 
L 216.726213 245.151714 
L 215.309218 246.022001 
L 213.393345 246.690122 
L 212.924873 247.13977 
L 211.969543 247.468877 
L 211.009971 247.722849 
L 210.540792 248.029419 
L 210.063835 248.475423 
L 209.591739 248.763447 
L 207.241778 249.576466 
L 206.296702 250.190632 
L 205.353924 250.53025 
L 203.457784 251.517915 
L 202.017542 252.157189 
L 201.081128 252.463828 
L 200.139765 252.934776 
L 198.705357 253.731399 
L 195.831768 254.957688 
L 195.367539 255.240481 
L 194.416452 255.585319 
L 192.511318 256.495956 
L 191.560762 256.837046 
L 190.62152 257.168629 
L 189.198338 257.817456 
L 187.776658 258.322503 
L 185.374369 259.445431 
L 184.410908 259.831574 
L 183.924758 260.082323 
L 182.508205 260.4591 
L 181.567858 260.97537 
L 180.614385 261.499616 
L 178.739436 262.053308 
L 177.782604 262.527339 
L 177.297515 262.790887 
L 175.881846 263.176877 
L 174.929168 263.507316 
L 173.966945 264.026564 
L 171.12553 265.106166 
L 169.696635 265.633262 
L 168.273541 265.991889 
L 165.88893 267.019314 
L 164.939258 267.28633 
L 163.50432 268.076904 
L 163.01817 268.239116 
L 162.060719 268.389278 
L 160.627548 269.042823 
L 160.142989 269.248401 
L 159.194731 269.328926 
L 158.243822 269.7498 
L 157.769251 270.054173 
L 156.346334 270.421853 
L 155.881397 270.448552 
L 155.407092 270.658568 
L 154.941625 271.003301 
L 154.464756 271.209556 
L 152.560462 271.505067 
L 151.619275 272.116945 
L 150.661117 272.371174 
L 149.712329 272.629315 
L 148.286318 273.27347 
L 147.348844 273.463823 
L 146.390874 273.955725 
L 144.947627 274.253574 
L 144.47721 274.331378 
L 143.048724 275.05158 
L 140.20616 275.998929 
L 136.386081 277.399745 
L 134.970627 277.870813 
L 133.09179 278.423008 
L 131.675944 279.084867 
L 129.317143 279.800713 
L 127.866471 280.472989 
L 125.492644 281.120169 
L 123.098548 281.962233 
L 122.147992 282.346298 
L 118.827322 283.309535 
L 117.398217 283.775228 
L 109.75884 286.264497 
L 108.794849 286.640013 
L 107.825907 286.771138 
L 105.918254 287.550812 
L 104.035527 288.103511 
L 103.097346 288.40315 
L 102.144668 288.506379 
L 101.674782 288.605175 
L 100.706319 289.042731 
L 94.548211 290.710439 
L 93.116808 291.107152 
L 92.161302 291.403456 
L 90.759599 291.75627 
L 87.420521 292.777873 
L 86.939144 292.986324 
L 84.55966 293.367786 
L 83.144521 293.867209 
L 81.71524 293.971043 
L 80.755933 294.27906 
L 79.793886 294.627296 
L 77.889945 294.98773 
L 76.475477 295.488 
L 74.580552 295.196173 
L 73.938657 295.363056 
L 73.832727 294.289113 
L 73.833046 294.289961 
" clip-path="url(#pa52a6d02cc)" style="fill: none; stroke: #000000; stroke-width: 1.5; stroke-linecap: square"/>
   </g>
   <g id="patch_3">
    <path d="M 57.6 307.584 
L 57.6 41.472 
" style="fill: none; stroke: #000000; stroke-width: 0.8; stroke-linejoin: miter; stroke-linecap: square"/>
   </g>
   <g id="patch_4">
    <path d="M 414.72 307.584 
L 414.72 41.472 
" style="fill: none; stroke: #000000; stroke-width: 0.8; stroke-linejoin: miter; stroke-linecap: square"/>
   </g>
   <g id="patch_5">
    <path d="M 57.6 307.584 
L 414.72 307.584 
" style="fill: none; stroke: #000000; stroke-width: 0.8; stroke-linejoin: miter; stroke-linecap: square"/>
   </g>
   <g id="patch_6">
    <path d="M 57.6 41.472 
L 414.72 41.472 
" style="fill: none; stroke: #000000; stroke-width: 0.8; stroke-linejoin: miter; stroke-linecap: square"/>
   </g>
   <g id="text_15">
    <!-- 2025-07-02 trial 31 -->
    <g transform="translate(178.0125 35.472) scale(0.12 -0.12)">
     <defs>
      <path id="DejaVuSans-2d" d="M 313 2009 
L 1997 2009 
L 1997 1497 
L 313 1497 
L 313 2009 
z
" transform="scale(0.015625)"/>
      <path id="DejaVuSans-37" d="M 525 4666 
L 3525 4666 
L 3525 4397 
L 1831 0 
L 1172 0 
L 2766 4134 
L 525 4134 
L 525 4666 
z
" transform="scale(0.015625)"/>
      <path id="DejaVuSans-6c" d="M 603 4863 
L 1178 4863 
L 1178 0 
L 603 0 
L 603 4863 
z
" transform="scale(0.015625)"/>
      <path id="DejaVuSans-33" d="M 2597 2516 
Q 3050 2419 3304 2112 
Q 3559 1806 3559 1356 
Q 3559 666 3084 287 
Q 2609 -91 1734 -91 
Q 1441 -91 1130 -33 
Q 819 25 488 141 
L 488 750 
Q 750 597 1062 519 
Q 1375 441 1716 441 
Q 2309 441 2620 675 
Q 2931 909 2931 1356 
Q 2931 1769 2642 2001 
Q 2353 2234 1838 2234 
L 1294 2234 
L 1294 2753 
L 1863 2753 
Q 2328 2753 2575 2939 
Q 2822 3125 2822 3475 
Q 2822 3834 2567 4026 
Q 2313 4219 1838 4219 
Q 1578 4219 1281 4162 
Q 984 4106 628 3988 
L 628 4550 
Q 988 4650 1302 4700 
Q 1616 4750 1894 4750 
Q 2613 4750 3031 4423 
Q 3450 4097 3450 3541 
Q 3450 3153 3228 2886 
Q 3006 2619 2597 2516 
z
" transform="scale(0.015625)"/>
     </defs>
     <use xlink:href="#DejaVuSans-32"/>
     <use xlink:href="#DejaVuSans-30" transform="translate(63.623047 0)"/>
     <use xlink:href="#DejaVuSans-32" transform="translate(127.246094 0)"/>
     <use xlink:href="#DejaVuSans-35" transform="translate(190.869141 0)"/>
     <use xlink:href="#DejaVuSans-2d" transform="translate(254.492188 0)"/>
     <use xlink:href="#DejaVuSans-30" transform="translate(290.576172 0)"/>
     <use xlink:href="#DejaVuSans-37" transform="translate(354.199219 0)"/>
     <use xlink:href="#DejaVuSans-2d" transform="translate(417.822266 0)"/>
     <use xlink:href="#DejaVuSans-30" transform="translate(453.90625 0)"/>
     <use xlink:href="#DejaVuSans-32" transform="translate(517.529297 0)"/>
     <use xlink:href="#DejaVuSans-20" transform="translate(581.152344 0)"/>
     <use xlink:href="#DejaVuSans-74" transform="translate(612.939453 0)"/>
     <use xlink:href="#DejaVuSans-72" transform="translate(652.148438 0)"/>
     <use xlink:href="#DejaVuSans-69" transform="translate(693.261719 0)"/>
     <use xlink:href="#DejaVuSans-61" transform="translate(721.044922 0)"/>
     <use xlink:href="#DejaVuSans-6c" transform="translate(782.324219 0)"/>
     <use xlink:href="#DejaVuSans-20" transform="translate(810.107422 0)"/>
     <use xlink:href="#DejaVuSans-33" transform="translate(841.894531 0)"/>
     <use xlink:href="#DejaVuSans-31" transform="translate(905.517578 0)"/>
    </g>
   </g>
  </g>
 </g>
 <defs>
  <clipPath id="pa52a6d02cc">
   <rect x="57.6" y="41.472" width="357.12" height="266.112"/>
  </clipPath>
 </defs>
</svg>
