<?xml version="1.0" encoding="utf-8" standalone="no"?>
<!DOCTYPE svg PUBLIC "-//W3C//DTD SVG 1.1//EN"
  "http://www.w3.org/Graphics/SVG/1.1/DTD/svg11.dtd">
<svg xmlns:xlink="http://www.w3.org/1999/xlink" width="460.8pt" height="345.6pt" viewBox="0 0 460.8 345.6" xmlns="http://www.w3.org/2000/svg" version="1.1">
 <metadata>
  <rdf:RDF xmlns:dc="http://purl.org/dc/elements/1.1/" xmlns:cc="http://creativecommons.org/ns#" xmlns:rdf="http://www.w3.org/1999/02/22-rdf-syntax-ns#">
   <cc:Work>
    <dc:type rdf:resource="http://purl.org/dc/dcmitype/StillImage"/>
    <dc:date>2025-07-08T21:01:34.656276</dc:date>
    <dc:format>image/svg+xml</dc:format>
    <dc:creator>
     <cc:Agent>
      <dc:title>Matplotlib v3.10.3, https://matplotlib.org/</dc:title>
     </cc:Agent>
    </dc:creator>
   </cc:Work>
  </rdf:RDF>
 </metadata>
 <defs>
  <style type="text/css">*{stroke-linejoin: round; stroke-linecap: butt}</style>
 </defs>
 <g id="figure_1">
  <g id="patch_1">
   <path d="M 0 345.6 
L 460.8 345.6 
L 460.8 0 
L 0 0 
z
" style="fill: #ffffff"/>
  </g>
  <g id="axes_1">
   <g id="patch_2">
    <path d="M 57.6 307.584 
L 414.72 307.584 
L 414.72 41.472 
L 57.6 41.472 
z
" style="fill: #ffffff"/>
   </g>
   <g id="matplotlib.axis_1">
    <g id="xtick_1">
     <g id="line2d_1">
      <defs>
       <path id="mc2e066e841" d="M 0 0 
L 0 3.5 
" style="stroke: #000000; stroke-width: 0.8"/>
      </defs>
      <g>
       <use xlink:href="#mc2e066e841" x="74.080946" y="307.584" style="stroke: #000000; stroke-width: 0.8"/>
      </g>
     </g>
     <g id="text_1">
      <!-- 0.00 -->
      <g transform="translate(62.948134 322.182437) scale(0.1 -0.1)">
       <defs>
        <path id="DejaVuSans-30" d="M 2034 4250 
Q 1547 4250 1301 3770 
Q 1056 3291 1056 2328 
Q 1056 1369 1301 889 
Q 1547 409 2034 409 
Q 2525 409 2770 889 
Q 3016 1369 3016 2328 
Q 3016 3291 2770 3770 
Q 2525 4250 2034 4250 
z
M 2034 4750 
Q 2819 4750 3233 4129 
Q 3647 3509 3647 2328 
Q 3647 1150 3233 529 
Q 2819 -91 2034 -91 
Q 1250 -91 836 529 
Q 422 1150 422 2328 
Q 422 3509 836 4129 
Q 1250 4750 2034 4750 
z
" transform="scale(0.015625)"/>
        <path id="DejaVuSans-2e" d="M 684 794 
L 1344 794 
L 1344 0 
L 684 0 
L 684 794 
z
" transform="scale(0.015625)"/>
       </defs>
       <use xlink:href="#DejaVuSans-30"/>
       <use xlink:href="#DejaVuSans-2e" transform="translate(63.623047 0)"/>
       <use xlink:href="#DejaVuSans-30" transform="translate(95.410156 0)"/>
       <use xlink:href="#DejaVuSans-30" transform="translate(159.033203 0)"/>
      </g>
     </g>
    </g>
    <g id="xtick_2">
     <g id="line2d_2">
      <g>
       <use xlink:href="#mc2e066e841" x="134.590234" y="307.584" style="stroke: #000000; stroke-width: 0.8"/>
      </g>
     </g>
     <g id="text_2">
      <!-- 0.02 -->
      <g transform="translate(123.457422 322.182437) scale(0.1 -0.1)">
       <defs>
        <path id="DejaVuSans-32" d="M 1228 531 
L 3431 531 
L 3431 0 
L 469 0 
L 469 531 
Q 828 903 1448 1529 
Q 2069 2156 2228 2338 
Q 2531 2678 2651 2914 
Q 2772 3150 2772 3378 
Q 2772 3750 2511 3984 
Q 2250 4219 1831 4219 
Q 1534 4219 1204 4116 
Q 875 4013 500 3803 
L 500 4441 
Q 881 4594 1212 4672 
Q 1544 4750 1819 4750 
Q 2544 4750 2975 4387 
Q 3406 4025 3406 3419 
Q 3406 3131 3298 2873 
Q 3191 2616 2906 2266 
Q 2828 2175 2409 1742 
Q 1991 1309 1228 531 
z
" transform="scale(0.015625)"/>
       </defs>
       <use xlink:href="#DejaVuSans-30"/>
       <use xlink:href="#DejaVuSans-2e" transform="translate(63.623047 0)"/>
       <use xlink:href="#DejaVuSans-30" transform="translate(95.410156 0)"/>
       <use xlink:href="#DejaVuSans-32" transform="translate(159.033203 0)"/>
      </g>
     </g>
    </g>
    <g id="xtick_3">
     <g id="line2d_3">
      <g>
       <use xlink:href="#mc2e066e841" x="195.099523" y="307.584" style="stroke: #000000; stroke-width: 0.8"/>
      </g>
     </g>
     <g id="text_3">
      <!-- 0.04 -->
      <g transform="translate(183.96671 322.182437) scale(0.1 -0.1)">
       <defs>
        <path id="DejaVuSans-34" d="M 2419 4116 
L 825 1625 
L 2419 1625 
L 2419 4116 
z
M 2253 4666 
L 3047 4666 
L 3047 1625 
L 3713 1625 
L 3713 1100 
L 3047 1100 
L 3047 0 
L 2419 0 
L 2419 1100 
L 313 1100 
L 313 1709 
L 2253 4666 
z
" transform="scale(0.015625)"/>
       </defs>
       <use xlink:href="#DejaVuSans-30"/>
       <use xlink:href="#DejaVuSans-2e" transform="translate(63.623047 0)"/>
       <use xlink:href="#DejaVuSans-30" transform="translate(95.410156 0)"/>
       <use xlink:href="#DejaVuSans-34" transform="translate(159.033203 0)"/>
      </g>
     </g>
    </g>
    <g id="xtick_4">
     <g id="line2d_4">
      <g>
       <use xlink:href="#mc2e066e841" x="255.608811" y="307.584" style="stroke: #000000; stroke-width: 0.8"/>
      </g>
     </g>
     <g id="text_4">
      <!-- 0.06 -->
      <g transform="translate(244.475999 322.182437) scale(0.1 -0.1)">
       <defs>
        <path id="DejaVuSans-36" d="M 2113 2584 
Q 1688 2584 1439 2293 
Q 1191 2003 1191 1497 
Q 1191 994 1439 701 
Q 1688 409 2113 409 
Q 2538 409 2786 701 
Q 3034 994 3034 1497 
Q 3034 2003 2786 2293 
Q 2538 2584 2113 2584 
z
M 3366 4563 
L 3366 3988 
Q 3128 4100 2886 4159 
Q 2644 4219 2406 4219 
Q 1781 4219 1451 3797 
Q 1122 3375 1075 2522 
Q 1259 2794 1537 2939 
Q 1816 3084 2150 3084 
Q 2853 3084 3261 2657 
Q 3669 2231 3669 1497 
Q 3669 778 3244 343 
Q 2819 -91 2113 -91 
Q 1303 -91 875 529 
Q 447 1150 447 2328 
Q 447 3434 972 4092 
Q 1497 4750 2381 4750 
Q 2619 4750 2861 4703 
Q 3103 4656 3366 4563 
z
" transform="scale(0.015625)"/>
       </defs>
       <use xlink:href="#DejaVuSans-30"/>
       <use xlink:href="#DejaVuSans-2e" transform="translate(63.623047 0)"/>
       <use xlink:href="#DejaVuSans-30" transform="translate(95.410156 0)"/>
       <use xlink:href="#DejaVuSans-36" transform="translate(159.033203 0)"/>
      </g>
     </g>
    </g>
    <g id="xtick_5">
     <g id="line2d_5">
      <g>
       <use xlink:href="#mc2e066e841" x="316.1181" y="307.584" style="stroke: #000000; stroke-width: 0.8"/>
      </g>
     </g>
     <g id="text_5">
      <!-- 0.08 -->
      <g transform="translate(304.985287 322.182437) scale(0.1 -0.1)">
       <defs>
        <path id="DejaVuSans-38" d="M 2034 2216 
Q 1584 2216 1326 1975 
Q 1069 1734 1069 1313 
Q 1069 891 1326 650 
Q 1584 409 2034 409 
Q 2484 409 2743 651 
Q 3003 894 3003 1313 
Q 3003 1734 2745 1975 
Q 2488 2216 2034 2216 
z
M 1403 2484 
Q 997 2584 770 2862 
Q 544 3141 544 3541 
Q 544 4100 942 4425 
Q 1341 4750 2034 4750 
Q 2731 4750 3128 4425 
Q 3525 4100 3525 3541 
Q 3525 3141 3298 2862 
Q 3072 2584 2669 2484 
Q 3125 2378 3379 2068 
Q 3634 1759 3634 1313 
Q 3634 634 3220 271 
Q 2806 -91 2034 -91 
Q 1263 -91 848 271 
Q 434 634 434 1313 
Q 434 1759 690 2068 
Q 947 2378 1403 2484 
z
M 1172 3481 
Q 1172 3119 1398 2916 
Q 1625 2713 2034 2713 
Q 2441 2713 2670 2916 
Q 2900 3119 2900 3481 
Q 2900 3844 2670 4047 
Q 2441 4250 2034 4250 
Q 1625 4250 1398 4047 
Q 1172 3844 1172 3481 
z
" transform="scale(0.015625)"/>
       </defs>
       <use xlink:href="#DejaVuSans-30"/>
       <use xlink:href="#DejaVuSans-2e" transform="translate(63.623047 0)"/>
       <use xlink:href="#DejaVuSans-30" transform="translate(95.410156 0)"/>
       <use xlink:href="#DejaVuSans-38" transform="translate(159.033203 0)"/>
      </g>
     </g>
    </g>
    <g id="xtick_6">
     <g id="line2d_6">
      <g>
       <use xlink:href="#mc2e066e841" x="376.627388" y="307.584" style="stroke: #000000; stroke-width: 0.8"/>
      </g>
     </g>
     <g id="text_6">
      <!-- 0.10 -->
      <g transform="translate(365.494576 322.182437) scale(0.1 -0.1)">
       <defs>
        <path id="DejaVuSans-31" d="M 794 531 
L 1825 531 
L 1825 4091 
L 703 3866 
L 703 4441 
L 1819 4666 
L 2450 4666 
L 2450 531 
L 3481 531 
L 3481 0 
L 794 0 
L 794 531 
z
" transform="scale(0.015625)"/>
       </defs>
       <use xlink:href="#DejaVuSans-30"/>
       <use xlink:href="#DejaVuSans-2e" transform="translate(63.623047 0)"/>
       <use xlink:href="#DejaVuSans-31" transform="translate(95.410156 0)"/>
       <use xlink:href="#DejaVuSans-30" transform="translate(159.033203 0)"/>
      </g>
     </g>
    </g>
    <g id="text_7">
     <!-- Strain -->
     <g transform="translate(221.348281 335.860562) scale(0.1 -0.1)">
      <defs>
       <path id="DejaVuSans-53" d="M 3425 4513 
L 3425 3897 
Q 3066 4069 2747 4153 
Q 2428 4238 2131 4238 
Q 1616 4238 1336 4038 
Q 1056 3838 1056 3469 
Q 1056 3159 1242 3001 
Q 1428 2844 1947 2747 
L 2328 2669 
Q 3034 2534 3370 2195 
Q 3706 1856 3706 1288 
Q 3706 609 3251 259 
Q 2797 -91 1919 -91 
Q 1588 -91 1214 -16 
Q 841 59 441 206 
L 441 856 
Q 825 641 1194 531 
Q 1563 422 1919 422 
Q 2459 422 2753 634 
Q 3047 847 3047 1241 
Q 3047 1584 2836 1778 
Q 2625 1972 2144 2069 
L 1759 2144 
Q 1053 2284 737 2584 
Q 422 2884 422 3419 
Q 422 4038 858 4394 
Q 1294 4750 2059 4750 
Q 2388 4750 2728 4690 
Q 3069 4631 3425 4513 
z
" transform="scale(0.015625)"/>
       <path id="DejaVuSans-74" d="M 1172 4494 
L 1172 3500 
L 2356 3500 
L 2356 3053 
L 1172 3053 
L 1172 1153 
Q 1172 725 1289 603 
Q 1406 481 1766 481 
L 2356 481 
L 2356 0 
L 1766 0 
Q 1100 0 847 248 
Q 594 497 594 1153 
L 594 3053 
L 172 3053 
L 172 3500 
L 594 3500 
L 594 4494 
L 1172 4494 
z
" transform="scale(0.015625)"/>
       <path id="DejaVuSans-72" d="M 2631 2963 
Q 2534 3019 2420 3045 
Q 2306 3072 2169 3072 
Q 1681 3072 1420 2755 
Q 1159 2438 1159 1844 
L 1159 0 
L 581 0 
L 581 3500 
L 1159 3500 
L 1159 2956 
Q 1341 3275 1631 3429 
Q 1922 3584 2338 3584 
Q 2397 3584 2469 3576 
Q 2541 3569 2628 3553 
L 2631 2963 
z
" transform="scale(0.015625)"/>
       <path id="DejaVuSans-61" d="M 2194 1759 
Q 1497 1759 1228 1600 
Q 959 1441 959 1056 
Q 959 750 1161 570 
Q 1363 391 1709 391 
Q 2188 391 2477 730 
Q 2766 1069 2766 1631 
L 2766 1759 
L 2194 1759 
z
M 3341 1997 
L 3341 0 
L 2766 0 
L 2766 531 
Q 2569 213 2275 61 
Q 1981 -91 1556 -91 
Q 1019 -91 701 211 
Q 384 513 384 1019 
Q 384 1609 779 1909 
Q 1175 2209 1959 2209 
L 2766 2209 
L 2766 2266 
Q 2766 2663 2505 2880 
Q 2244 3097 1772 3097 
Q 1472 3097 1187 3025 
Q 903 2953 641 2809 
L 641 3341 
Q 956 3463 1253 3523 
Q 1550 3584 1831 3584 
Q 2591 3584 2966 3190 
Q 3341 2797 3341 1997 
z
" transform="scale(0.015625)"/>
       <path id="DejaVuSans-69" d="M 603 3500 
L 1178 3500 
L 1178 0 
L 603 0 
L 603 3500 
z
M 603 4863 
L 1178 4863 
L 1178 4134 
L 603 4134 
L 603 4863 
z
" transform="scale(0.015625)"/>
       <path id="DejaVuSans-6e" d="M 3513 2113 
L 3513 0 
L 2938 0 
L 2938 2094 
Q 2938 2591 2744 2837 
Q 2550 3084 2163 3084 
Q 1697 3084 1428 2787 
Q 1159 2491 1159 1978 
L 1159 0 
L 581 0 
L 581 3500 
L 1159 3500 
L 1159 2956 
Q 1366 3272 1645 3428 
Q 1925 3584 2291 3584 
Q 2894 3584 3203 3211 
Q 3513 2838 3513 2113 
z
" transform="scale(0.015625)"/>
      </defs>
      <use xlink:href="#DejaVuSans-53"/>
      <use xlink:href="#DejaVuSans-74" transform="translate(63.476562 0)"/>
      <use xlink:href="#DejaVuSans-72" transform="translate(102.685547 0)"/>
      <use xlink:href="#DejaVuSans-61" transform="translate(143.798828 0)"/>
      <use xlink:href="#DejaVuSans-69" transform="translate(205.078125 0)"/>
      <use xlink:href="#DejaVuSans-6e" transform="translate(232.861328 0)"/>
     </g>
    </g>
   </g>
   <g id="matplotlib.axis_2">
    <g id="ytick_1">
     <g id="line2d_7">
      <defs>
       <path id="m18f2980fa8" d="M 0 0 
L -3.5 0 
" style="stroke: #000000; stroke-width: 0.8"/>
      </defs>
      <g>
       <use xlink:href="#m18f2980fa8" x="57.6" y="270.054475" style="stroke: #000000; stroke-width: 0.8"/>
      </g>
     </g>
     <g id="text_8">
      <!-- 0 -->
      <g transform="translate(44.2375 273.853694) scale(0.1 -0.1)">
       <use xlink:href="#DejaVuSans-30"/>
      </g>
     </g>
    </g>
    <g id="ytick_2">
     <g id="line2d_8">
      <g>
       <use xlink:href="#m18f2980fa8" x="57.6" y="218.250549" style="stroke: #000000; stroke-width: 0.8"/>
      </g>
     </g>
     <g id="text_9">
      <!-- 200 -->
      <g transform="translate(31.5125 222.049767) scale(0.1 -0.1)">
       <use xlink:href="#DejaVuSans-32"/>
       <use xlink:href="#DejaVuSans-30" transform="translate(63.623047 0)"/>
       <use xlink:href="#DejaVuSans-30" transform="translate(127.246094 0)"/>
      </g>
     </g>
    </g>
    <g id="ytick_3">
     <g id="line2d_9">
      <g>
       <use xlink:href="#m18f2980fa8" x="57.6" y="166.446622" style="stroke: #000000; stroke-width: 0.8"/>
      </g>
     </g>
     <g id="text_10">
      <!-- 400 -->
      <g transform="translate(31.5125 170.245841) scale(0.1 -0.1)">
       <use xlink:href="#DejaVuSans-34"/>
       <use xlink:href="#DejaVuSans-30" transform="translate(63.623047 0)"/>
       <use xlink:href="#DejaVuSans-30" transform="translate(127.246094 0)"/>
      </g>
     </g>
    </g>
    <g id="ytick_4">
     <g id="line2d_10">
      <g>
       <use xlink:href="#m18f2980fa8" x="57.6" y="114.642696" style="stroke: #000000; stroke-width: 0.8"/>
      </g>
     </g>
     <g id="text_11">
      <!-- 600 -->
      <g transform="translate(31.5125 118.441915) scale(0.1 -0.1)">
       <use xlink:href="#DejaVuSans-36"/>
       <use xlink:href="#DejaVuSans-30" transform="translate(63.623047 0)"/>
       <use xlink:href="#DejaVuSans-30" transform="translate(127.246094 0)"/>
      </g>
     </g>
    </g>
    <g id="ytick_5">
     <g id="line2d_11">
      <g>
       <use xlink:href="#m18f2980fa8" x="57.6" y="62.83877" style="stroke: #000000; stroke-width: 0.8"/>
      </g>
     </g>
     <g id="text_12">
      <!-- 800 -->
      <g transform="translate(31.5125 66.637989) scale(0.1 -0.1)">
       <use xlink:href="#DejaVuSans-38"/>
       <use xlink:href="#DejaVuSans-30" transform="translate(63.623047 0)"/>
       <use xlink:href="#DejaVuSans-30" transform="translate(127.246094 0)"/>
      </g>
     </g>
    </g>
    <g id="text_13">
     <!-- Stress [Pa] -->
     <g transform="translate(25.432812 201.235813) rotate(-90) scale(0.1 -0.1)">
      <defs>
       <path id="DejaVuSans-65" d="M 3597 1894 
L 3597 1613 
L 953 1613 
Q 991 1019 1311 708 
Q 1631 397 2203 397 
Q 2534 397 2845 478 
Q 3156 559 3463 722 
L 3463 178 
Q 3153 47 2828 -22 
Q 2503 -91 2169 -91 
Q 1331 -91 842 396 
Q 353 884 353 1716 
Q 353 2575 817 3079 
Q 1281 3584 2069 3584 
Q 2775 3584 3186 3129 
Q 3597 2675 3597 1894 
z
M 3022 2063 
Q 3016 2534 2758 2815 
Q 2500 3097 2075 3097 
Q 1594 3097 1305 2825 
Q 1016 2553 972 2059 
L 3022 2063 
z
" transform="scale(0.015625)"/>
       <path id="DejaVuSans-73" d="M 2834 3397 
L 2834 2853 
Q 2591 2978 2328 3040 
Q 2066 3103 1784 3103 
Q 1356 3103 1142 2972 
Q 928 2841 928 2578 
Q 928 2378 1081 2264 
Q 1234 2150 1697 2047 
L 1894 2003 
Q 2506 1872 2764 1633 
Q 3022 1394 3022 966 
Q 3022 478 2636 193 
Q 2250 -91 1575 -91 
Q 1294 -91 989 -36 
Q 684 19 347 128 
L 347 722 
Q 666 556 975 473 
Q 1284 391 1588 391 
Q 1994 391 2212 530 
Q 2431 669 2431 922 
Q 2431 1156 2273 1281 
Q 2116 1406 1581 1522 
L 1381 1569 
Q 847 1681 609 1914 
Q 372 2147 372 2553 
Q 372 3047 722 3315 
Q 1072 3584 1716 3584 
Q 2034 3584 2315 3537 
Q 2597 3491 2834 3397 
z
" transform="scale(0.015625)"/>
       <path id="DejaVuSans-20" transform="scale(0.015625)"/>
       <path id="DejaVuSans-5b" d="M 550 4863 
L 1875 4863 
L 1875 4416 
L 1125 4416 
L 1125 -397 
L 1875 -397 
L 1875 -844 
L 550 -844 
L 550 4863 
z
" transform="scale(0.015625)"/>
       <path id="DejaVuSans-50" d="M 1259 4147 
L 1259 2394 
L 2053 2394 
Q 2494 2394 2734 2622 
Q 2975 2850 2975 3272 
Q 2975 3691 2734 3919 
Q 2494 4147 2053 4147 
L 1259 4147 
z
M 628 4666 
L 2053 4666 
Q 2838 4666 3239 4311 
Q 3641 3956 3641 3272 
Q 3641 2581 3239 2228 
Q 2838 1875 2053 1875 
L 1259 1875 
L 1259 0 
L 628 0 
L 628 4666 
z
" transform="scale(0.015625)"/>
       <path id="DejaVuSans-5d" d="M 1947 4863 
L 1947 -844 
L 622 -844 
L 622 -397 
L 1369 -397 
L 1369 4416 
L 622 4416 
L 622 4863 
L 1947 4863 
z
" transform="scale(0.015625)"/>
      </defs>
      <use xlink:href="#DejaVuSans-53"/>
      <use xlink:href="#DejaVuSans-74" transform="translate(63.476562 0)"/>
      <use xlink:href="#DejaVuSans-72" transform="translate(102.685547 0)"/>
      <use xlink:href="#DejaVuSans-65" transform="translate(141.548828 0)"/>
      <use xlink:href="#DejaVuSans-73" transform="translate(203.072266 0)"/>
      <use xlink:href="#DejaVuSans-73" transform="translate(255.171875 0)"/>
      <use xlink:href="#DejaVuSans-20" transform="translate(307.271484 0)"/>
      <use xlink:href="#DejaVuSans-5b" transform="translate(339.058594 0)"/>
      <use xlink:href="#DejaVuSans-50" transform="translate(378.072266 0)"/>
      <use xlink:href="#DejaVuSans-61" transform="translate(433.875 0)"/>
      <use xlink:href="#DejaVuSans-5d" transform="translate(495.154297 0)"/>
     </g>
    </g>
   </g>
   <g id="line2d_12">
    <path d="M 74.080946 271.582717 
L 74.080946 271.594559 
L 74.080891 271.198204 
L 75.171317 266.261789 
L 76.305243 263.037862 
L 77.452359 263.77262 
L 78.603184 263.873696 
L 79.7672 263.068158 
L 80.908133 261.905104 
L 83.166917 260.256079 
L 84.425735 259.777207 
L 85.569142 259.827638 
L 86.76201 260.640138 
L 87.985381 261.967002 
L 90.451082 263.652066 
L 91.665385 263.836489 
L 92.858253 262.602996 
L 94.04123 260.971445 
L 95.224206 259.657685 
L 96.410479 258.767102 
L 97.604172 258.237721 
L 98.801987 258.054117 
L 99.998978 258.04443 
L 102.356685 257.863726 
L 103.508335 258.037843 
L 104.63278 257.521294 
L 105.730022 256.444513 
L 108.223752 253.278603 
L 109.457015 252.187625 
L 110.687334 251.787061 
L 111.908232 251.76411 
L 113.112642 251.306943 
L 114.298915 250.484614 
L 115.471999 249.4881 
L 117.78684 247.823786 
L 120.081896 246.107598 
L 124.64398 243.774937 
L 133.679939 238.293839 
L 135.944494 237.167096 
L 138.209048 235.557385 
L 140.475251 234.329352 
L 143.876617 231.966113 
L 146.147766 230.738081 
L 148.416443 229.16277 
L 149.551605 228.267273 
L 151.826052 226.837753 
L 155.241432 225.044302 
L 167.691947 217.837733 
L 175.572134 212.77326 
L 176.69658 212.174805 
L 185.670711 206.089792 
L 190.189928 203.394564 
L 192.446457 201.739178 
L 193.575025 201.094857 
L 195.830511 199.499889 
L 201.439549 196.100822 
L 207.027978 192.080913 
L 208.153248 191.372706 
L 209.281815 190.520345 
L 214.960925 187.196085 
L 220.661469 183.564407 
L 226.354593 180.145682 
L 228.607607 178.349773 
L 234.227362 174.426512 
L 237.584211 172.062727 
L 240.933641 169.973598 
L 252.122864 162.202429 
L 253.246486 161.4904 
L 254.368458 160.600363 
L 255.493728 159.475531 
L 256.624769 158.611158 
L 261.174487 155.909377 
L 264.577501 153.672272 
L 266.84288 152.225825 
L 271.37034 148.935965 
L 273.638218 147.444531 
L 275.906894 145.761105 
L 278.178043 144.163407 
L 285.027764 139.036685 
L 288.483538 136.743885 
L 298.863239 129.145809 
L 301.150052 127.454193 
L 303.423674 125.661006 
L 306.815972 123.236065 
L 311.33189 119.749086 
L 314.737378 117.529454 
L 318.157704 114.960906 
L 320.451112 113.327715 
L 322.753587 111.703808 
L 325.055238 110.157437 
L 326.202766 109.354219 
L 328.493701 107.475859 
L 336.490949 101.678061 
L 341.029126 97.876566 
L 343.297802 96.224264 
L 345.568952 94.468762 
L 347.845047 92.589856 
L 358.136141 84.694532 
L 362.736971 81.304202 
L 366.168838 78.249136 
L 367.312244 77.413703 
L 369.591637 75.440333 
L 371.866909 73.789669 
L 377.512219 69.13363 
L 378.638314 68.123465 
L 383.137745 64.860361 
L 384.254771 64.312415 
L 385.361905 63.91299 
L 386.4542 63.373508 
L 389.989114 62.109983 
L 392.303131 61.460747 
L 394.574692 60.49645 
L 395.664102 59.869329 
L 396.752481 58.20829 
L 397.986363 54.625346 
L 398.487273 55.312207 
L 398.290402 59.654686 
L 398.239935 61.752876 
L 398.234731 84.338279 
L 398.230455 83.739244 
L 397.143982 84.440319 
L 394.902716 89.831185 
L 393.781568 89.044144 
L 392.681853 88.862519 
L 391.516189 89.081496 
L 390.406582 89.438228 
L 387.093012 89.667835 
L 385.966093 90.242059 
L 384.853189 93.294394 
L 383.766252 95.44468 
L 381.56806 98.693587 
L 379.271767 98.013177 
L 378.156802 98.4061 
L 377.03689 98.924355 
L 375.895468 99.186572 
L 374.783182 99.679266 
L 373.681406 103.527856 
L 372.599416 105.994296 
L 371.474764 106.759223 
L 370.374638 106.842356 
L 368.184277 107.356858 
L 367.100226 108.154751 
L 366.008961 109.549324 
L 364.918315 111.175962 
L 363.794693 112.167152 
L 362.673133 112.774753 
L 359.372341 115.529772 
L 357.151891 117.886049 
L 356.053001 118.133607 
L 354.969362 118.514194 
L 353.881188 119.267449 
L 351.63374 121.401626 
L 350.539384 122.84152 
L 349.44647 123.892842 
L 347.233852 125.031871 
L 345.036896 126.748332 
L 342.795012 128.991989 
L 340.569615 130.556789 
L 338.385025 131.989584 
L 336.213213 133.776483 
L 335.082584 134.596218 
L 332.851417 136.653678 
L 328.437308 140.213825 
L 326.228399 141.772073 
L 323.9894 143.69589 
L 317.237497 148.500007 
L 315.000147 150.407034 
L 313.870343 151.396177 
L 312.768568 152.120219 
L 310.539049 153.291464 
L 309.446754 154.063557 
L 305.015334 157.631076 
L 302.835277 158.916033 
L 299.444629 161.580956 
L 298.359341 162.345405 
L 297.270343 162.947818 
L 296.137654 163.718683 
L 295.009524 164.811717 
L 290.618498 168.059259 
L 289.523331 168.577515 
L 287.30288 170.160879 
L 282.823646 173.600626 
L 281.740007 174.214847 
L 280.657192 174.971378 
L 279.525327 175.598363 
L 278.411805 176.420965 
L 277.313945 177.381304 
L 272.874487 180.670754 
L 271.777246 181.229211 
L 270.684126 182.033657 
L 268.50349 183.3782 
L 265.22372 185.723283 
L 263.042427 187.189251 
L 261.918806 187.833162 
L 258.616365 190.640874 
L 254.21792 193.011007 
L 253.108725 193.818456 
L 250.901465 195.702003 
L 249.810818 196.402566 
L 248.712341 196.879869 
L 247.626228 197.538796 
L 246.498073 198.406446 
L 245.375276 198.964626 
L 244.254128 199.862443 
L 243.166367 200.295278 
L 242.064592 201.045394 
L 240.963847 201.52204 
L 238.762975 202.869517 
L 237.652956 203.921454 
L 236.520679 204.742554 
L 235.421789 205.398205 
L 234.312594 206.230089 
L 232.091732 207.229401 
L 230.959454 207.939247 
L 226.502478 211.671941 
L 224.315827 212.751452 
L 222.062814 213.904814 
L 218.727811 216.251945 
L 217.620265 217.055572 
L 216.511894 217.523456 
L 215.415065 218.153444 
L 214.281423 218.654115 
L 213.170373 219.371605 
L 212.069628 220.333445 
L 208.725969 222.540382 
L 207.632849 222.965402 
L 206.501396 223.591704 
L 205.383134 224.393966 
L 203.130533 225.747996 
L 202.038238 226.421393 
L 199.847052 227.502065 
L 196.448984 229.743743 
L 195.36617 230.729336 
L 190.98009 233.351259 
L 189.898924 233.871767 
L 188.766234 234.671298 
L 187.679414 235.277299 
L 186.582997 236.05376 
L 184.394697 236.95424 
L 181.037635 239.171142 
L 178.856754 240.408594 
L 174.4614 243.154194 
L 173.343756 243.961779 
L 172.250636 244.536481 
L 171.140617 244.938431 
L 167.843123 246.756318 
L 166.759484 247.079451 
L 164.508119 248.647799 
L 163.377491 249.471084 
L 162.295913 249.964358 
L 160.077929 251.268195 
L 158.987283 251.650761 
L 157.8954 252.220072 
L 156.801868 252.934012 
L 155.712458 253.431928 
L 154.5876 254.071062 
L 153.476345 254.995226 
L 152.35767 255.349603 
L 150.110427 256.590194 
L 147.919654 257.390647 
L 144.599283 259.519091 
L 142.379451 261.146138 
L 140.188266 262.469591 
L 135.759525 264.594554 
L 133.544845 266.035568 
L 132.458733 266.716883 
L 131.359019 267.117399 
L 129.17278 268.246463 
L 128.045858 268.864233 
L 126.92471 269.660625 
L 122.481336 271.761358 
L 121.351944 272.166908 
L 120.237803 272.994561 
L 116.895998 274.986223 
L 115.805764 275.766507 
L 113.634776 276.777217 
L 111.375992 278.026955 
L 109.183571 278.848055 
L 105.811635 280.670119 
L 103.578819 282.31382 
L 102.444068 282.873779 
L 99.184909 284.148566 
L 98.057166 284.659723 
L 94.706705 286.63398 
L 93.573191 286.877938 
L 92.447921 287.266378 
L 91.342024 287.893567 
L 89.107559 289.46724 
L 86.869384 290.431606 
L 84.63121 290.974975 
L 83.524694 291.68482 
L 82.394478 292.677784 
L 81.296825 293.366744 
L 80.168669 293.644915 
L 79.081881 294.032721 
L 77.964237 294.131888 
L 76.839997 293.997052 
L 74.667979 294.774401 
L 74.115236 295.488 
L 73.832727 294.099792 
L 73.832999 294.114876 
" clip-path="url(#pf079c1cde0)" style="fill: none; stroke: #ff0000; stroke-width: 1.5; stroke-linecap: square"/>
   </g>
   <g id="line2d_13">
    <path d="M 74.080946 271.582717 
L 74.080946 271.594559 
L 74.080891 271.198204 
L 75.171317 266.261789 
L 76.305243 263.037862 
L 77.452359 263.77262 
L 78.603184 263.873696 
L 79.7672 263.068158 
L 80.908133 277.600313 
L 81.995482 276.313855 
L 84.425735 273.18999 
L 85.569142 272.03696 
L 86.76201 271.641631 
L 87.985381 271.864413 
L 89.219468 271.804349 
L 90.451082 271.519319 
L 91.665385 270.144266 
L 95.224206 261.776282 
L 96.410479 259.638555 
L 97.604172 258.237721 
L 98.801987 258.054117 
L 99.998978 258.04443 
L 102.356685 257.863726 
L 103.508335 258.037843 
L 104.63278 257.521294 
L 105.730022 256.444513 
L 108.223752 253.278603 
L 109.457015 252.187625 
L 110.687334 251.787061 
L 111.908232 251.76411 
L 113.112642 251.306943 
L 114.298915 250.484614 
L 115.471999 249.4881 
L 117.78684 247.823786 
L 120.081896 246.107598 
L 124.64398 243.774937 
L 133.679939 238.293839 
L 135.944494 237.167096 
L 138.209048 235.557385 
L 140.475251 234.329352 
L 143.876617 231.966113 
L 146.147766 230.738081 
L 148.416443 229.16277 
L 149.551605 228.267273 
L 151.826052 226.837753 
L 155.241432 225.044302 
L 167.691947 217.837733 
L 175.572134 212.77326 
L 176.69658 212.174805 
L 185.670711 206.089792 
L 190.189928 203.394564 
L 192.446457 201.739178 
L 193.575025 201.094857 
L 195.830511 199.499889 
L 201.439549 196.100822 
L 207.027978 192.080913 
L 208.153248 191.372706 
L 209.281815 190.520345 
L 214.960925 187.196085 
L 220.661469 183.564407 
L 226.354593 180.145682 
L 228.607607 178.349773 
L 234.227362 174.426512 
L 237.584211 172.062727 
L 240.933641 169.973598 
L 252.122864 162.202429 
L 253.246486 161.4904 
L 254.368458 160.600363 
L 255.493728 159.475531 
L 256.624769 158.611158 
L 261.174487 155.909377 
L 264.577501 153.672272 
L 266.84288 152.225825 
L 271.37034 148.935965 
L 273.638218 147.444531 
L 275.906894 145.761105 
L 278.178043 144.163407 
L 285.027764 139.036685 
L 288.483538 136.743885 
L 298.863239 129.145809 
L 301.150052 127.454193 
L 303.423674 125.661006 
L 306.815972 123.236065 
L 311.33189 119.749086 
L 314.737378 117.529454 
L 318.157704 114.960906 
L 320.451112 113.327715 
L 322.753587 111.703808 
L 325.055238 110.157437 
L 326.202766 109.354219 
L 328.493701 107.475859 
L 336.490949 101.678061 
L 341.029126 97.876566 
L 343.297802 96.224264 
L 345.568952 94.468762 
L 347.845047 92.589856 
L 358.136141 84.694532 
L 362.736971 81.264902 
L 366.168838 78.074181 
L 367.312244 77.260205 
L 371.866909 73.368981 
L 377.512219 67.531731 
L 379.765232 64.823944 
L 382.016597 62.175675 
L 383.137745 60.71667 
L 384.254771 59.548428 
L 385.361905 58.67996 
L 387.675922 56.630964 
L 389.989114 54.844337 
L 391.191875 54.278099 
L 392.303131 53.880673 
L 393.417684 53.654 
L 394.574692 53.568 
L 395.664102 54.052879 
L 396.752481 54.842445 
L 397.835657 54.641641 
L 397.986363 54.303321 
L 398.487273 55.157389 
L 398.235117 71.045605 
L 398.241068 70.981071 
L 398.234731 84.338279 
L 398.230455 83.739244 
L 397.143982 84.440319 
L 394.902716 89.831185 
L 393.781568 89.044144 
L 392.681853 88.862519 
L 391.516189 89.081496 
L 390.406582 89.438228 
L 387.093012 89.667835 
L 385.966093 90.242059 
L 384.853189 93.294394 
L 383.766252 95.44468 
L 381.56806 98.693587 
L 379.271767 98.013177 
L 378.156802 98.4061 
L 377.03689 98.924355 
L 375.895468 99.186572 
L 374.783182 99.679266 
L 373.681406 103.527856 
L 372.599416 105.994296 
L 371.474764 106.759223 
L 370.374638 106.842356 
L 368.184277 107.356858 
L 367.100226 108.154751 
L 366.008961 109.549324 
L 364.918315 111.175962 
L 363.794693 112.167152 
L 362.673133 112.774753 
L 359.372341 115.529772 
L 357.151891 117.886049 
L 356.053001 118.133607 
L 354.969362 118.514194 
L 353.881188 119.267449 
L 351.63374 121.401626 
L 350.539384 122.84152 
L 349.44647 123.892842 
L 347.233852 125.031871 
L 345.036896 126.748332 
L 342.795012 128.991989 
L 340.569615 130.556789 
L 338.385025 131.989584 
L 336.213213 133.776483 
L 335.082584 134.596218 
L 332.851417 136.653678 
L 328.437308 140.213825 
L 326.228399 141.772073 
L 323.9894 143.69589 
L 317.237497 148.500007 
L 315.000147 150.407034 
L 313.870343 151.396177 
L 312.768568 152.120219 
L 310.539049 153.291464 
L 309.446754 154.063557 
L 305.015334 157.631076 
L 302.835277 158.916033 
L 299.444629 161.580956 
L 298.359341 162.345405 
L 297.270343 162.947818 
L 296.137654 163.718683 
L 295.009524 164.811717 
L 290.618498 168.059259 
L 289.523331 168.577515 
L 287.30288 170.160879 
L 282.823646 173.600626 
L 281.740007 174.214847 
L 280.657192 174.971378 
L 279.525327 175.598363 
L 278.411805 176.420965 
L 277.313945 177.381304 
L 272.874487 180.670754 
L 271.777246 181.229211 
L 270.684126 182.033657 
L 268.50349 183.3782 
L 265.22372 185.723283 
L 263.042427 187.189251 
L 261.918806 187.833162 
L 258.616365 190.640874 
L 254.21792 193.011007 
L 253.108725 193.818456 
L 250.901465 195.702003 
L 249.810818 196.402566 
L 248.712341 196.879869 
L 247.626228 197.538796 
L 246.498073 198.406446 
L 245.375276 198.964626 
L 244.254128 199.862443 
L 243.166367 200.295278 
L 242.064592 201.045394 
L 240.963847 201.52204 
L 238.762975 202.869517 
L 237.652956 203.921454 
L 236.520679 204.742554 
L 235.421789 205.398205 
L 234.312594 206.230089 
L 232.091732 207.229401 
L 230.959454 207.939247 
L 226.502478 211.671941 
L 224.315827 212.751452 
L 222.062814 213.904814 
L 218.727811 216.251945 
L 217.620265 217.055572 
L 216.511894 217.523456 
L 215.415065 218.153444 
L 214.281423 218.654115 
L 213.170373 219.371605 
L 212.069628 220.333445 
L 208.725969 222.540382 
L 207.632849 222.965402 
L 206.501396 223.591704 
L 205.383134 224.393966 
L 203.130533 225.747996 
L 202.038238 226.421393 
L 199.847052 227.502065 
L 196.448984 229.743743 
L 195.36617 230.729336 
L 190.98009 233.351259 
L 189.898924 233.871767 
L 188.766234 234.671298 
L 187.679414 235.277299 
L 186.582997 236.05376 
L 184.394697 236.95424 
L 181.037635 239.171142 
L 178.856754 240.408594 
L 174.4614 243.154194 
L 173.343756 243.961779 
L 172.250636 244.536481 
L 171.140617 244.938431 
L 167.843123 246.756318 
L 166.759484 247.079451 
L 164.508119 248.647799 
L 163.377491 249.471084 
L 162.295913 249.964358 
L 160.077929 251.268195 
L 158.987283 251.650761 
L 157.8954 252.220072 
L 156.801868 252.934012 
L 155.712458 253.431928 
L 154.5876 254.071062 
L 153.476345 254.995226 
L 152.35767 255.349603 
L 150.110427 256.590194 
L 147.919654 257.390647 
L 144.599283 259.519091 
L 142.379451 261.146138 
L 140.188266 262.469591 
L 135.759525 264.594554 
L 133.544845 266.035568 
L 132.458733 266.716883 
L 131.359019 267.117399 
L 129.17278 268.246463 
L 128.045858 268.864233 
L 126.92471 269.660625 
L 122.481336 271.761358 
L 121.351944 272.166908 
L 120.237803 272.994561 
L 116.895998 274.986223 
L 115.805764 275.766507 
L 113.634776 276.777217 
L 111.375992 278.026955 
L 109.183571 278.848055 
L 105.811635 280.670119 
L 103.578819 282.31382 
L 102.444068 282.873779 
L 99.184909 284.148566 
L 98.057166 284.659723 
L 94.706705 286.63398 
L 93.573191 286.877938 
L 92.447921 287.266378 
L 91.342024 287.893567 
L 89.107559 289.46724 
L 86.869384 290.431606 
L 84.63121 290.974975 
L 83.524694 291.68482 
L 82.394478 292.677784 
L 81.296825 293.366744 
L 80.168669 293.644915 
L 79.081881 294.032721 
L 77.964237 294.131888 
L 76.839997 293.997052 
L 74.667979 294.774401 
L 74.115236 295.488 
L 73.832727 294.099792 
L 73.832999 294.114876 
" clip-path="url(#pf079c1cde0)" style="fill: none; stroke: #000000; stroke-width: 1.5; stroke-linecap: square"/>
   </g>
   <g id="patch_3">
    <path d="M 57.6 307.584 
L 57.6 41.472 
" style="fill: none; stroke: #000000; stroke-width: 0.8; stroke-linejoin: miter; stroke-linecap: square"/>
   </g>
   <g id="patch_4">
    <path d="M 414.72 307.584 
L 414.72 41.472 
" style="fill: none; stroke: #000000; stroke-width: 0.8; stroke-linejoin: miter; stroke-linecap: square"/>
   </g>
   <g id="patch_5">
    <path d="M 57.6 307.584 
L 414.72 307.584 
" style="fill: none; stroke: #000000; stroke-width: 0.8; stroke-linejoin: miter; stroke-linecap: square"/>
   </g>
   <g id="patch_6">
    <path d="M 57.6 41.472 
L 414.72 41.472 
" style="fill: none; stroke: #000000; stroke-width: 0.8; stroke-linejoin: miter; stroke-linecap: square"/>
   </g>
   <g id="text_14">
    <!-- 2025-07-02 trial 12 -->
    <g transform="translate(178.0125 35.472) scale(0.12 -0.12)">
     <defs>
      <path id="DejaVuSans-35" d="M 691 4666 
L 3169 4666 
L 3169 4134 
L 1269 4134 
L 1269 2991 
Q 1406 3038 1543 3061 
Q 1681 3084 1819 3084 
Q 2600 3084 3056 2656 
Q 3513 2228 3513 1497 
Q 3513 744 3044 326 
Q 2575 -91 1722 -91 
Q 1428 -91 1123 -41 
Q 819 9 494 109 
L 494 744 
Q 775 591 1075 516 
Q 1375 441 1709 441 
Q 2250 441 2565 725 
Q 2881 1009 2881 1497 
Q 2881 1984 2565 2268 
Q 2250 2553 1709 2553 
Q 1456 2553 1204 2497 
Q 953 2441 691 2322 
L 691 4666 
z
" transform="scale(0.015625)"/>
      <path id="DejaVuSans-2d" d="M 313 2009 
L 1997 2009 
L 1997 1497 
L 313 1497 
L 313 2009 
z
" transform="scale(0.015625)"/>
      <path id="DejaVuSans-37" d="M 525 4666 
L 3525 4666 
L 3525 4397 
L 1831 0 
L 1172 0 
L 2766 4134 
L 525 4134 
L 525 4666 
z
" transform="scale(0.015625)"/>
      <path id="DejaVuSans-6c" d="M 603 4863 
L 1178 4863 
L 1178 0 
L 603 0 
L 603 4863 
z
" transform="scale(0.015625)"/>
     </defs>
     <use xlink:href="#DejaVuSans-32"/>
     <use xlink:href="#DejaVuSans-30" transform="translate(63.623047 0)"/>
     <use xlink:href="#DejaVuSans-32" transform="translate(127.246094 0)"/>
     <use xlink:href="#DejaVuSans-35" transform="translate(190.869141 0)"/>
     <use xlink:href="#DejaVuSans-2d" transform="translate(254.492188 0)"/>
     <use xlink:href="#DejaVuSans-30" transform="translate(290.576172 0)"/>
     <use xlink:href="#DejaVuSans-37" transform="translate(354.199219 0)"/>
     <use xlink:href="#DejaVuSans-2d" transform="translate(417.822266 0)"/>
     <use xlink:href="#DejaVuSans-30" transform="translate(453.90625 0)"/>
     <use xlink:href="#DejaVuSans-32" transform="translate(517.529297 0)"/>
     <use xlink:href="#DejaVuSans-20" transform="translate(581.152344 0)"/>
     <use xlink:href="#DejaVuSans-74" transform="translate(612.939453 0)"/>
     <use xlink:href="#DejaVuSans-72" transform="translate(652.148438 0)"/>
     <use xlink:href="#DejaVuSans-69" transform="translate(693.261719 0)"/>
     <use xlink:href="#DejaVuSans-61" transform="translate(721.044922 0)"/>
     <use xlink:href="#DejaVuSans-6c" transform="translate(782.324219 0)"/>
     <use xlink:href="#DejaVuSans-20" transform="translate(810.107422 0)"/>
     <use xlink:href="#DejaVuSans-31" transform="translate(841.894531 0)"/>
     <use xlink:href="#DejaVuSans-32" transform="translate(905.517578 0)"/>
    </g>
   </g>
  </g>
 </g>
 <defs>
  <clipPath id="pf079c1cde0">
   <rect x="57.6" y="41.472" width="357.12" height="266.112"/>
  </clipPath>
 </defs>
</svg>
