<?xml version="1.0" encoding="utf-8" standalone="no"?>
<!DOCTYPE svg PUBLIC "-//W3C//DTD SVG 1.1//EN"
  "http://www.w3.org/Graphics/SVG/1.1/DTD/svg11.dtd">
<svg xmlns:xlink="http://www.w3.org/1999/xlink" width="460.8pt" height="345.6pt" viewBox="0 0 460.8 345.6" xmlns="http://www.w3.org/2000/svg" version="1.1">
 <metadata>
  <rdf:RDF xmlns:dc="http://purl.org/dc/elements/1.1/" xmlns:cc="http://creativecommons.org/ns#" xmlns:rdf="http://www.w3.org/1999/02/22-rdf-syntax-ns#">
   <cc:Work>
    <dc:type rdf:resource="http://purl.org/dc/dcmitype/StillImage"/>
    <dc:date>2025-07-16T22:12:22.230953</dc:date>
    <dc:format>image/svg+xml</dc:format>
    <dc:creator>
     <cc:Agent>
      <dc:title>Matplotlib v3.10.3, https://matplotlib.org/</dc:title>
     </cc:Agent>
    </dc:creator>
   </cc:Work>
  </rdf:RDF>
 </metadata>
 <defs>
  <style type="text/css">*{stroke-linejoin: round; stroke-linecap: butt}</style>
 </defs>
 <g id="figure_1">
  <g id="patch_1">
   <path d="M 0 345.6 
L 460.8 345.6 
L 460.8 0 
L 0 0 
z
" style="fill: #ffffff"/>
  </g>
  <g id="axes_1">
   <g id="patch_2">
    <path d="M 57.6 307.584 
L 414.72 307.584 
L 414.72 41.472 
L 57.6 41.472 
z
" style="fill: #ffffff"/>
   </g>
   <g id="matplotlib.axis_1">
    <g id="xtick_1">
     <g id="line2d_1">
      <defs>
       <path id="ma5c42b5445" d="M 0 0 
L 0 3.5 
" style="stroke: #000000; stroke-width: 0.8"/>
      </defs>
      <g>
       <use xlink:href="#ma5c42b5445" x="73.975346" y="307.584" style="stroke: #000000; stroke-width: 0.8"/>
      </g>
     </g>
     <g id="text_1">
      <!-- 0.000 -->
      <g transform="translate(59.661284 322.182437) scale(0.1 -0.1)">
       <defs>
        <path id="DejaVuSans-30" d="M 2034 4250 
Q 1547 4250 1301 3770 
Q 1056 3291 1056 2328 
Q 1056 1369 1301 889 
Q 1547 409 2034 409 
Q 2525 409 2770 889 
Q 3016 1369 3016 2328 
Q 3016 3291 2770 3770 
Q 2525 4250 2034 4250 
z
M 2034 4750 
Q 2819 4750 3233 4129 
Q 3647 3509 3647 2328 
Q 3647 1150 3233 529 
Q 2819 -91 2034 -91 
Q 1250 -91 836 529 
Q 422 1150 422 2328 
Q 422 3509 836 4129 
Q 1250 4750 2034 4750 
z
" transform="scale(0.015625)"/>
        <path id="DejaVuSans-2e" d="M 684 794 
L 1344 794 
L 1344 0 
L 684 0 
L 684 794 
z
" transform="scale(0.015625)"/>
       </defs>
       <use xlink:href="#DejaVuSans-30"/>
       <use xlink:href="#DejaVuSans-2e" transform="translate(63.623047 0)"/>
       <use xlink:href="#DejaVuSans-30" transform="translate(95.410156 0)"/>
       <use xlink:href="#DejaVuSans-30" transform="translate(159.033203 0)"/>
       <use xlink:href="#DejaVuSans-30" transform="translate(222.65625 0)"/>
      </g>
     </g>
    </g>
    <g id="xtick_2">
     <g id="line2d_2">
      <g>
       <use xlink:href="#ma5c42b5445" x="119.38106" y="307.584" style="stroke: #000000; stroke-width: 0.8"/>
      </g>
     </g>
     <g id="text_2">
      <!-- 0.025 -->
      <g transform="translate(105.066998 322.182437) scale(0.1 -0.1)">
       <defs>
        <path id="DejaVuSans-32" d="M 1228 531 
L 3431 531 
L 3431 0 
L 469 0 
L 469 531 
Q 828 903 1448 1529 
Q 2069 2156 2228 2338 
Q 2531 2678 2651 2914 
Q 2772 3150 2772 3378 
Q 2772 3750 2511 3984 
Q 2250 4219 1831 4219 
Q 1534 4219 1204 4116 
Q 875 4013 500 3803 
L 500 4441 
Q 881 4594 1212 4672 
Q 1544 4750 1819 4750 
Q 2544 4750 2975 4387 
Q 3406 4025 3406 3419 
Q 3406 3131 3298 2873 
Q 3191 2616 2906 2266 
Q 2828 2175 2409 1742 
Q 1991 1309 1228 531 
z
" transform="scale(0.015625)"/>
        <path id="DejaVuSans-35" d="M 691 4666 
L 3169 4666 
L 3169 4134 
L 1269 4134 
L 1269 2991 
Q 1406 3038 1543 3061 
Q 1681 3084 1819 3084 
Q 2600 3084 3056 2656 
Q 3513 2228 3513 1497 
Q 3513 744 3044 326 
Q 2575 -91 1722 -91 
Q 1428 -91 1123 -41 
Q 819 9 494 109 
L 494 744 
Q 775 591 1075 516 
Q 1375 441 1709 441 
Q 2250 441 2565 725 
Q 2881 1009 2881 1497 
Q 2881 1984 2565 2268 
Q 2250 2553 1709 2553 
Q 1456 2553 1204 2497 
Q 953 2441 691 2322 
L 691 4666 
z
" transform="scale(0.015625)"/>
       </defs>
       <use xlink:href="#DejaVuSans-30"/>
       <use xlink:href="#DejaVuSans-2e" transform="translate(63.623047 0)"/>
       <use xlink:href="#DejaVuSans-30" transform="translate(95.410156 0)"/>
       <use xlink:href="#DejaVuSans-32" transform="translate(159.033203 0)"/>
       <use xlink:href="#DejaVuSans-35" transform="translate(222.65625 0)"/>
      </g>
     </g>
    </g>
    <g id="xtick_3">
     <g id="line2d_3">
      <g>
       <use xlink:href="#ma5c42b5445" x="164.786775" y="307.584" style="stroke: #000000; stroke-width: 0.8"/>
      </g>
     </g>
     <g id="text_3">
      <!-- 0.050 -->
      <g transform="translate(150.472712 322.182437) scale(0.1 -0.1)">
       <use xlink:href="#DejaVuSans-30"/>
       <use xlink:href="#DejaVuSans-2e" transform="translate(63.623047 0)"/>
       <use xlink:href="#DejaVuSans-30" transform="translate(95.410156 0)"/>
       <use xlink:href="#DejaVuSans-35" transform="translate(159.033203 0)"/>
       <use xlink:href="#DejaVuSans-30" transform="translate(222.65625 0)"/>
      </g>
     </g>
    </g>
    <g id="xtick_4">
     <g id="line2d_4">
      <g>
       <use xlink:href="#ma5c42b5445" x="210.192489" y="307.584" style="stroke: #000000; stroke-width: 0.8"/>
      </g>
     </g>
     <g id="text_4">
      <!-- 0.075 -->
      <g transform="translate(195.878427 322.182437) scale(0.1 -0.1)">
       <defs>
        <path id="DejaVuSans-37" d="M 525 4666 
L 3525 4666 
L 3525 4397 
L 1831 0 
L 1172 0 
L 2766 4134 
L 525 4134 
L 525 4666 
z
" transform="scale(0.015625)"/>
       </defs>
       <use xlink:href="#DejaVuSans-30"/>
       <use xlink:href="#DejaVuSans-2e" transform="translate(63.623047 0)"/>
       <use xlink:href="#DejaVuSans-30" transform="translate(95.410156 0)"/>
       <use xlink:href="#DejaVuSans-37" transform="translate(159.033203 0)"/>
       <use xlink:href="#DejaVuSans-35" transform="translate(222.65625 0)"/>
      </g>
     </g>
    </g>
    <g id="xtick_5">
     <g id="line2d_5">
      <g>
       <use xlink:href="#ma5c42b5445" x="255.598203" y="307.584" style="stroke: #000000; stroke-width: 0.8"/>
      </g>
     </g>
     <g id="text_5">
      <!-- 0.100 -->
      <g transform="translate(241.284141 322.182437) scale(0.1 -0.1)">
       <defs>
        <path id="DejaVuSans-31" d="M 794 531 
L 1825 531 
L 1825 4091 
L 703 3866 
L 703 4441 
L 1819 4666 
L 2450 4666 
L 2450 531 
L 3481 531 
L 3481 0 
L 794 0 
L 794 531 
z
" transform="scale(0.015625)"/>
       </defs>
       <use xlink:href="#DejaVuSans-30"/>
       <use xlink:href="#DejaVuSans-2e" transform="translate(63.623047 0)"/>
       <use xlink:href="#DejaVuSans-31" transform="translate(95.410156 0)"/>
       <use xlink:href="#DejaVuSans-30" transform="translate(159.033203 0)"/>
       <use xlink:href="#DejaVuSans-30" transform="translate(222.65625 0)"/>
      </g>
     </g>
    </g>
    <g id="xtick_6">
     <g id="line2d_6">
      <g>
       <use xlink:href="#ma5c42b5445" x="301.003918" y="307.584" style="stroke: #000000; stroke-width: 0.8"/>
      </g>
     </g>
     <g id="text_6">
      <!-- 0.125 -->
      <g transform="translate(286.689855 322.182437) scale(0.1 -0.1)">
       <use xlink:href="#DejaVuSans-30"/>
       <use xlink:href="#DejaVuSans-2e" transform="translate(63.623047 0)"/>
       <use xlink:href="#DejaVuSans-31" transform="translate(95.410156 0)"/>
       <use xlink:href="#DejaVuSans-32" transform="translate(159.033203 0)"/>
       <use xlink:href="#DejaVuSans-35" transform="translate(222.65625 0)"/>
      </g>
     </g>
    </g>
    <g id="xtick_7">
     <g id="line2d_7">
      <g>
       <use xlink:href="#ma5c42b5445" x="346.409632" y="307.584" style="stroke: #000000; stroke-width: 0.8"/>
      </g>
     </g>
     <g id="text_7">
      <!-- 0.150 -->
      <g transform="translate(332.09557 322.182437) scale(0.1 -0.1)">
       <use xlink:href="#DejaVuSans-30"/>
       <use xlink:href="#DejaVuSans-2e" transform="translate(63.623047 0)"/>
       <use xlink:href="#DejaVuSans-31" transform="translate(95.410156 0)"/>
       <use xlink:href="#DejaVuSans-35" transform="translate(159.033203 0)"/>
       <use xlink:href="#DejaVuSans-30" transform="translate(222.65625 0)"/>
      </g>
     </g>
    </g>
    <g id="xtick_8">
     <g id="line2d_8">
      <g>
       <use xlink:href="#ma5c42b5445" x="391.815347" y="307.584" style="stroke: #000000; stroke-width: 0.8"/>
      </g>
     </g>
     <g id="text_8">
      <!-- 0.175 -->
      <g transform="translate(377.501284 322.182437) scale(0.1 -0.1)">
       <use xlink:href="#DejaVuSans-30"/>
       <use xlink:href="#DejaVuSans-2e" transform="translate(63.623047 0)"/>
       <use xlink:href="#DejaVuSans-31" transform="translate(95.410156 0)"/>
       <use xlink:href="#DejaVuSans-37" transform="translate(159.033203 0)"/>
       <use xlink:href="#DejaVuSans-35" transform="translate(222.65625 0)"/>
      </g>
     </g>
    </g>
    <g id="text_9">
     <!-- Strain -->
     <g transform="translate(221.348281 335.860562) scale(0.1 -0.1)">
      <defs>
       <path id="DejaVuSans-53" d="M 3425 4513 
L 3425 3897 
Q 3066 4069 2747 4153 
Q 2428 4238 2131 4238 
Q 1616 4238 1336 4038 
Q 1056 3838 1056 3469 
Q 1056 3159 1242 3001 
Q 1428 2844 1947 2747 
L 2328 2669 
Q 3034 2534 3370 2195 
Q 3706 1856 3706 1288 
Q 3706 609 3251 259 
Q 2797 -91 1919 -91 
Q 1588 -91 1214 -16 
Q 841 59 441 206 
L 441 856 
Q 825 641 1194 531 
Q 1563 422 1919 422 
Q 2459 422 2753 634 
Q 3047 847 3047 1241 
Q 3047 1584 2836 1778 
Q 2625 1972 2144 2069 
L 1759 2144 
Q 1053 2284 737 2584 
Q 422 2884 422 3419 
Q 422 4038 858 4394 
Q 1294 4750 2059 4750 
Q 2388 4750 2728 4690 
Q 3069 4631 3425 4513 
z
" transform="scale(0.015625)"/>
       <path id="DejaVuSans-74" d="M 1172 4494 
L 1172 3500 
L 2356 3500 
L 2356 3053 
L 1172 3053 
L 1172 1153 
Q 1172 725 1289 603 
Q 1406 481 1766 481 
L 2356 481 
L 2356 0 
L 1766 0 
Q 1100 0 847 248 
Q 594 497 594 1153 
L 594 3053 
L 172 3053 
L 172 3500 
L 594 3500 
L 594 4494 
L 1172 4494 
z
" transform="scale(0.015625)"/>
       <path id="DejaVuSans-72" d="M 2631 2963 
Q 2534 3019 2420 3045 
Q 2306 3072 2169 3072 
Q 1681 3072 1420 2755 
Q 1159 2438 1159 1844 
L 1159 0 
L 581 0 
L 581 3500 
L 1159 3500 
L 1159 2956 
Q 1341 3275 1631 3429 
Q 1922 3584 2338 3584 
Q 2397 3584 2469 3576 
Q 2541 3569 2628 3553 
L 2631 2963 
z
" transform="scale(0.015625)"/>
       <path id="DejaVuSans-61" d="M 2194 1759 
Q 1497 1759 1228 1600 
Q 959 1441 959 1056 
Q 959 750 1161 570 
Q 1363 391 1709 391 
Q 2188 391 2477 730 
Q 2766 1069 2766 1631 
L 2766 1759 
L 2194 1759 
z
M 3341 1997 
L 3341 0 
L 2766 0 
L 2766 531 
Q 2569 213 2275 61 
Q 1981 -91 1556 -91 
Q 1019 -91 701 211 
Q 384 513 384 1019 
Q 384 1609 779 1909 
Q 1175 2209 1959 2209 
L 2766 2209 
L 2766 2266 
Q 2766 2663 2505 2880 
Q 2244 3097 1772 3097 
Q 1472 3097 1187 3025 
Q 903 2953 641 2809 
L 641 3341 
Q 956 3463 1253 3523 
Q 1550 3584 1831 3584 
Q 2591 3584 2966 3190 
Q 3341 2797 3341 1997 
z
" transform="scale(0.015625)"/>
       <path id="DejaVuSans-69" d="M 603 3500 
L 1178 3500 
L 1178 0 
L 603 0 
L 603 3500 
z
M 603 4863 
L 1178 4863 
L 1178 4134 
L 603 4134 
L 603 4863 
z
" transform="scale(0.015625)"/>
       <path id="DejaVuSans-6e" d="M 3513 2113 
L 3513 0 
L 2938 0 
L 2938 2094 
Q 2938 2591 2744 2837 
Q 2550 3084 2163 3084 
Q 1697 3084 1428 2787 
Q 1159 2491 1159 1978 
L 1159 0 
L 581 0 
L 581 3500 
L 1159 3500 
L 1159 2956 
Q 1366 3272 1645 3428 
Q 1925 3584 2291 3584 
Q 2894 3584 3203 3211 
Q 3513 2838 3513 2113 
z
" transform="scale(0.015625)"/>
      </defs>
      <use xlink:href="#DejaVuSans-53"/>
      <use xlink:href="#DejaVuSans-74" transform="translate(63.476562 0)"/>
      <use xlink:href="#DejaVuSans-72" transform="translate(102.685547 0)"/>
      <use xlink:href="#DejaVuSans-61" transform="translate(143.798828 0)"/>
      <use xlink:href="#DejaVuSans-69" transform="translate(205.078125 0)"/>
      <use xlink:href="#DejaVuSans-6e" transform="translate(232.861328 0)"/>
     </g>
    </g>
   </g>
   <g id="matplotlib.axis_2">
    <g id="ytick_1">
     <g id="line2d_9">
      <defs>
       <path id="m29e03aaae1" d="M 0 0 
L -3.5 0 
" style="stroke: #000000; stroke-width: 0.8"/>
      </defs>
      <g>
       <use xlink:href="#m29e03aaae1" x="57.6" y="275.80896" style="stroke: #000000; stroke-width: 0.8"/>
      </g>
     </g>
     <g id="text_10">
      <!-- 0 -->
      <g transform="translate(44.2375 279.608179) scale(0.1 -0.1)">
       <use xlink:href="#DejaVuSans-30"/>
      </g>
     </g>
    </g>
    <g id="ytick_2">
     <g id="line2d_10">
      <g>
       <use xlink:href="#m29e03aaae1" x="57.6" y="239.826749" style="stroke: #000000; stroke-width: 0.8"/>
      </g>
     </g>
     <g id="text_11">
      <!-- 250 -->
      <g transform="translate(31.5125 243.625968) scale(0.1 -0.1)">
       <use xlink:href="#DejaVuSans-32"/>
       <use xlink:href="#DejaVuSans-35" transform="translate(63.623047 0)"/>
       <use xlink:href="#DejaVuSans-30" transform="translate(127.246094 0)"/>
      </g>
     </g>
    </g>
    <g id="ytick_3">
     <g id="line2d_11">
      <g>
       <use xlink:href="#m29e03aaae1" x="57.6" y="203.844538" style="stroke: #000000; stroke-width: 0.8"/>
      </g>
     </g>
     <g id="text_12">
      <!-- 500 -->
      <g transform="translate(31.5125 207.643757) scale(0.1 -0.1)">
       <use xlink:href="#DejaVuSans-35"/>
       <use xlink:href="#DejaVuSans-30" transform="translate(63.623047 0)"/>
       <use xlink:href="#DejaVuSans-30" transform="translate(127.246094 0)"/>
      </g>
     </g>
    </g>
    <g id="ytick_4">
     <g id="line2d_12">
      <g>
       <use xlink:href="#m29e03aaae1" x="57.6" y="167.862327" style="stroke: #000000; stroke-width: 0.8"/>
      </g>
     </g>
     <g id="text_13">
      <!-- 750 -->
      <g transform="translate(31.5125 171.661546) scale(0.1 -0.1)">
       <use xlink:href="#DejaVuSans-37"/>
       <use xlink:href="#DejaVuSans-35" transform="translate(63.623047 0)"/>
       <use xlink:href="#DejaVuSans-30" transform="translate(127.246094 0)"/>
      </g>
     </g>
    </g>
    <g id="ytick_5">
     <g id="line2d_13">
      <g>
       <use xlink:href="#m29e03aaae1" x="57.6" y="131.880116" style="stroke: #000000; stroke-width: 0.8"/>
      </g>
     </g>
     <g id="text_14">
      <!-- 1000 -->
      <g transform="translate(25.15 135.679335) scale(0.1 -0.1)">
       <use xlink:href="#DejaVuSans-31"/>
       <use xlink:href="#DejaVuSans-30" transform="translate(63.623047 0)"/>
       <use xlink:href="#DejaVuSans-30" transform="translate(127.246094 0)"/>
       <use xlink:href="#DejaVuSans-30" transform="translate(190.869141 0)"/>
      </g>
     </g>
    </g>
    <g id="ytick_6">
     <g id="line2d_14">
      <g>
       <use xlink:href="#m29e03aaae1" x="57.6" y="95.897905" style="stroke: #000000; stroke-width: 0.8"/>
      </g>
     </g>
     <g id="text_15">
      <!-- 1250 -->
      <g transform="translate(25.15 99.697124) scale(0.1 -0.1)">
       <use xlink:href="#DejaVuSans-31"/>
       <use xlink:href="#DejaVuSans-32" transform="translate(63.623047 0)"/>
       <use xlink:href="#DejaVuSans-35" transform="translate(127.246094 0)"/>
       <use xlink:href="#DejaVuSans-30" transform="translate(190.869141 0)"/>
      </g>
     </g>
    </g>
    <g id="ytick_7">
     <g id="line2d_15">
      <g>
       <use xlink:href="#m29e03aaae1" x="57.6" y="59.915694" style="stroke: #000000; stroke-width: 0.8"/>
      </g>
     </g>
     <g id="text_16">
      <!-- 1500 -->
      <g transform="translate(25.15 63.714913) scale(0.1 -0.1)">
       <use xlink:href="#DejaVuSans-31"/>
       <use xlink:href="#DejaVuSans-35" transform="translate(63.623047 0)"/>
       <use xlink:href="#DejaVuSans-30" transform="translate(127.246094 0)"/>
       <use xlink:href="#DejaVuSans-30" transform="translate(190.869141 0)"/>
      </g>
     </g>
    </g>
    <g id="text_17">
     <!-- Stress [Pa] -->
     <g transform="translate(19.070312 201.235813) rotate(-90) scale(0.1 -0.1)">
      <defs>
       <path id="DejaVuSans-65" d="M 3597 1894 
L 3597 1613 
L 953 1613 
Q 991 1019 1311 708 
Q 1631 397 2203 397 
Q 2534 397 2845 478 
Q 3156 559 3463 722 
L 3463 178 
Q 3153 47 2828 -22 
Q 2503 -91 2169 -91 
Q 1331 -91 842 396 
Q 353 884 353 1716 
Q 353 2575 817 3079 
Q 1281 3584 2069 3584 
Q 2775 3584 3186 3129 
Q 3597 2675 3597 1894 
z
M 3022 2063 
Q 3016 2534 2758 2815 
Q 2500 3097 2075 3097 
Q 1594 3097 1305 2825 
Q 1016 2553 972 2059 
L 3022 2063 
z
" transform="scale(0.015625)"/>
       <path id="DejaVuSans-73" d="M 2834 3397 
L 2834 2853 
Q 2591 2978 2328 3040 
Q 2066 3103 1784 3103 
Q 1356 3103 1142 2972 
Q 928 2841 928 2578 
Q 928 2378 1081 2264 
Q 1234 2150 1697 2047 
L 1894 2003 
Q 2506 1872 2764 1633 
Q 3022 1394 3022 966 
Q 3022 478 2636 193 
Q 2250 -91 1575 -91 
Q 1294 -91 989 -36 
Q 684 19 347 128 
L 347 722 
Q 666 556 975 473 
Q 1284 391 1588 391 
Q 1994 391 2212 530 
Q 2431 669 2431 922 
Q 2431 1156 2273 1281 
Q 2116 1406 1581 1522 
L 1381 1569 
Q 847 1681 609 1914 
Q 372 2147 372 2553 
Q 372 3047 722 3315 
Q 1072 3584 1716 3584 
Q 2034 3584 2315 3537 
Q 2597 3491 2834 3397 
z
" transform="scale(0.015625)"/>
       <path id="DejaVuSans-20" transform="scale(0.015625)"/>
       <path id="DejaVuSans-5b" d="M 550 4863 
L 1875 4863 
L 1875 4416 
L 1125 4416 
L 1125 -397 
L 1875 -397 
L 1875 -844 
L 550 -844 
L 550 4863 
z
" transform="scale(0.015625)"/>
       <path id="DejaVuSans-50" d="M 1259 4147 
L 1259 2394 
L 2053 2394 
Q 2494 2394 2734 2622 
Q 2975 2850 2975 3272 
Q 2975 3691 2734 3919 
Q 2494 4147 2053 4147 
L 1259 4147 
z
M 628 4666 
L 2053 4666 
Q 2838 4666 3239 4311 
Q 3641 3956 3641 3272 
Q 3641 2581 3239 2228 
Q 2838 1875 2053 1875 
L 1259 1875 
L 1259 0 
L 628 0 
L 628 4666 
z
" transform="scale(0.015625)"/>
       <path id="DejaVuSans-5d" d="M 1947 4863 
L 1947 -844 
L 622 -844 
L 622 -397 
L 1369 -397 
L 1369 4416 
L 622 4416 
L 622 4863 
L 1947 4863 
z
" transform="scale(0.015625)"/>
      </defs>
      <use xlink:href="#DejaVuSans-53"/>
      <use xlink:href="#DejaVuSans-74" transform="translate(63.476562 0)"/>
      <use xlink:href="#DejaVuSans-72" transform="translate(102.685547 0)"/>
      <use xlink:href="#DejaVuSans-65" transform="translate(141.548828 0)"/>
      <use xlink:href="#DejaVuSans-73" transform="translate(203.072266 0)"/>
      <use xlink:href="#DejaVuSans-73" transform="translate(255.171875 0)"/>
      <use xlink:href="#DejaVuSans-20" transform="translate(307.271484 0)"/>
      <use xlink:href="#DejaVuSans-5b" transform="translate(339.058594 0)"/>
      <use xlink:href="#DejaVuSans-50" transform="translate(378.072266 0)"/>
      <use xlink:href="#DejaVuSans-61" transform="translate(433.875 0)"/>
      <use xlink:href="#DejaVuSans-5d" transform="translate(495.154297 0)"/>
     </g>
    </g>
   </g>
   <g id="line2d_16">
    <path d="M 73.975346 275.934933 
L 73.97738 275.680494 
L 73.975346 275.960601 
L 73.9774 275.761116 
L 74.103682 275.813848 
L 74.755675 275.190041 
L 75.432428 272.480403 
L 76.78816 271.18327 
L 78.16047 273.024083 
L 79.503583 274.055235 
L 80.166231 274.273086 
L 80.873419 274.798903 
L 81.523943 275.795314 
L 82.18956 275.544505 
L 82.854436 276.325464 
L 83.503722 273.412462 
L 84.17899 271.426769 
L 85.511091 271.619338 
L 86.821541 271.893102 
L 87.499779 271.797514 
L 88.838794 270.322549 
L 89.507999 270.019704 
L 90.843689 269.997305 
L 92.177151 269.550921 
L 94.186623 268.404547 
L 95.498063 267.883623 
L 96.807276 267.217933 
L 98.112283 266.580043 
L 99.460097 265.995819 
L 100.132148 265.566564 
L 103.430543 264.271707 
L 105.4285 263.167603 
L 107.420155 262.187272 
L 108.758813 261.454869 
L 111.408912 260.071301 
L 112.059683 259.84833 
L 113.401311 259.115358 
L 114.751599 258.460742 
L 116.107579 257.701752 
L 118.724273 256.511459 
L 125.347899 253.020071 
L 126.682103 252.507216 
L 127.352917 252.128783 
L 128.691452 251.176443 
L 131.323982 249.79936 
L 131.996776 249.291901 
L 135.319049 247.799369 
L 136.627767 246.644424 
L 137.964338 245.792831 
L 139.303492 245.291136 
L 140.636954 244.462058 
L 141.304798 243.867518 
L 142.647664 243.129729 
L 143.317735 242.875079 
L 143.988054 242.807769 
L 144.640805 242.590515 
L 145.96437 241.190563 
L 147.288676 240.555366 
L 148.603828 240.191857 
L 149.265487 239.844107 
L 151.2783 238.25581 
L 152.600132 237.815595 
L 157.283898 234.931377 
L 161.905982 232.302598 
L 163.882297 231.074834 
L 165.874944 230.033062 
L 168.523558 228.456144 
L 169.178288 228.222098 
L 172.493416 225.830684 
L 173.832322 225.463487 
L 174.505239 225.028998 
L 175.82534 223.972359 
L 177.142718 223.143204 
L 178.48014 222.648985 
L 179.151696 222.166102 
L 179.815953 221.527112 
L 183.144783 219.731395 
L 184.488886 218.62401 
L 186.484695 217.641204 
L 187.828673 216.401152 
L 189.848043 215.431896 
L 190.50698 215.279866 
L 191.171979 214.762697 
L 191.826586 214.017361 
L 193.165615 213.319812 
L 195.177562 212.457168 
L 196.488631 211.102577 
L 197.166126 210.65231 
L 199.805832 209.363294 
L 201.789818 208.003165 
L 203.096541 207.307759 
L 204.440396 206.44045 
L 206.436259 204.962369 
L 208.416286 203.861659 
L 211.079004 201.885448 
L 213.086002 200.853424 
L 213.754713 200.467709 
L 215.082236 199.434888 
L 215.744885 199.109173 
L 217.71254 197.873368 
L 219.053224 196.921364 
L 219.725028 196.325307 
L 223.040744 194.29258 
L 230.287068 189.163064 
L 231.595044 188.441697 
L 234.280774 186.650341 
L 235.636321 185.888298 
L 237.640102 184.30114 
L 239.001525 183.402124 
L 240.325832 182.541718 
L 242.983601 180.601689 
L 244.971052 179.319082 
L 246.301421 178.245225 
L 247.625728 177.34674 
L 248.954489 176.72952 
L 251.631837 174.399481 
L 252.285577 174.116548 
L 254.278347 172.746785 
L 255.613665 171.547693 
L 257.590971 170.517982 
L 260.287341 168.221138 
L 262.273059 166.899088 
L 262.943873 166.21853 
L 264.951366 164.915974 
L 266.251671 164.273571 
L 267.600242 163.20453 
L 268.925044 162.157752 
L 270.279044 161.38215 
L 270.950353 160.880303 
L 272.303363 159.619466 
L 273.624948 158.648997 
L 274.933419 157.836151 
L 282.334394 151.990653 
L 283.659397 151.159821 
L 284.973559 150.256406 
L 287.670671 147.991572 
L 290.297758 146.342972 
L 299.589434 139.072188 
L 300.907307 138.201513 
L 304.259397 135.450914 
L 305.567621 134.533845 
L 307.581052 132.485194 
L 308.935795 131.53748 
L 312.912922 128.598006 
L 316.922572 125.295478 
L 320.915783 122.065636 
L 322.245781 121.003384 
L 324.243624 119.348185 
L 325.548631 118.355111 
L 328.218772 116.117281 
L 329.535161 115.201502 
L 330.860952 114.032751 
L 334.209331 111.139491 
L 343.452756 103.378541 
L 344.13124 103.016871 
L 345.454805 101.853431 
L 347.445967 99.800987 
L 348.753324 98.800574 
L 350.106582 97.509396 
L 352.098486 95.526131 
L 353.414627 94.595939 
L 356.762263 91.472065 
L 357.426149 91.05305 
L 359.431415 89.295449 
L 360.755474 87.716786 
L 361.417875 87.36293 
L 364.076263 85.134809 
L 364.742375 84.292987 
L 367.384803 82.125701 
L 368.689067 80.827241 
L 369.993084 79.574748 
L 378.025654 72.428288 
L 380.669072 69.72229 
L 382.659151 67.674094 
L 383.315118 67.223828 
L 389.973769 60.919113 
L 391.962086 58.764419 
L 396.626111 54.742402 
L 397.277902 54.468191 
L 397.931581 54.013374 
L 398.152732 53.657848 
L 398.487273 53.568 
L 398.300949 61.61615 
L 398.302372 63.699978 
L 398.304011 79.837751 
L 398.29798 79.502384 
L 397.648477 79.8504 
L 396.983416 81.677711 
L 396.331191 83.059325 
L 395.64949 82.913573 
L 394.958138 82.938263 
L 394.270746 83.184104 
L 392.945696 83.954851 
L 392.291956 84.133695 
L 391.6204 84.655908 
L 390.967649 84.787893 
L 390.315888 86.500362 
L 389.657199 87.420616 
L 389.002469 88.130453 
L 387.660841 90.358725 
L 387.00908 91.256679 
L 386.356329 91.198935 
L 385.701104 91.334562 
L 384.358486 92.533198 
L 383.014384 92.993003 
L 382.365098 95.294474 
L 381.708512 96.704742 
L 381.039554 97.376046 
L 380.369234 97.617753 
L 379.699905 98.092823 
L 379.018699 98.266148 
L 378.360752 98.766023 
L 377.705279 99.435961 
L 376.378281 101.263764 
L 375.729613 102.0801 
L 373.733503 103.773605 
L 373.051059 104.408347 
L 372.382225 105.277628 
L 371.698544 105.738969 
L 369.696247 107.654876 
L 369.040651 108.319125 
L 367.693827 110.126866 
L 365.69351 111.639232 
L 360.393313 116.981831 
L 359.074078 118.228559 
L 357.729234 119.678119 
L 355.102395 121.929602 
L 353.111109 124.04819 
L 350.459031 126.30028 
L 345.804409 130.605573 
L 345.151163 131.105296 
L 341.832756 134.247195 
L 340.524533 135.430661 
L 339.178451 136.731093 
L 335.841208 139.49838 
L 334.493394 140.753452 
L 333.181459 141.695021 
L 330.50909 144.08782 
L 328.542178 145.665648 
L 325.238045 148.512211 
L 323.918934 149.452643 
L 322.585472 150.769611 
L 320.598517 152.340537 
L 318.598818 153.917228 
L 317.278842 155.098267 
L 314.639631 157.267297 
L 313.340563 158.43271 
L 309.947861 161.016015 
L 308.591882 162.092679 
L 307.285885 163.192403 
L 305.950196 164.005704 
L 303.276096 166.26902 
L 299.276575 169.179519 
L 297.291104 170.422075 
L 296.615342 170.982177 
L 295.297252 172.304199 
L 293.31772 173.586882 
L 291.990938 174.365594 
L 290.662796 175.651614 
L 288.658767 177.094954 
L 287.997109 177.438874 
L 284.674217 180.130459 
L 284.023693 180.493721 
L 282.716459 181.453268 
L 280.066608 183.309782 
L 279.397449 184.003775 
L 270.038469 190.687833 
L 269.363449 191.039035 
L 268.028749 192.042728 
L 265.37432 193.755651 
L 264.054591 194.825186 
L 263.376369 195.235022 
L 262.043155 195.716843 
L 261.364051 196.139575 
L 260.045807 197.422409 
L 257.419463 199.026559 
L 256.071649 200.129924 
L 253.415983 201.753568 
L 252.758531 202.483278 
L 252.087346 202.992103 
L 249.435762 204.411284 
L 248.781156 205.134168 
L 248.11294 205.664308 
L 246.094591 206.578456 
L 245.437634 206.894917 
L 243.460576 208.718283 
L 241.476837 209.584815 
L 240.124817 210.767902 
L 238.812387 211.521961 
L 237.497236 212.11377 
L 234.85753 213.948514 
L 233.538419 214.591904 
L 231.541442 216.293373 
L 229.552616 217.139078 
L 228.892071 217.516753 
L 227.564052 218.717058 
L 226.903878 219.047362 
L 226.224156 219.225333 
L 224.899107 219.912111 
L 224.244748 220.505285 
L 223.567129 221.289004 
L 222.894212 221.745186 
L 221.557038 222.138733 
L 220.22803 222.737132 
L 218.87502 224.112204 
L 217.54861 224.759708 
L 216.212425 225.258749 
L 215.541364 225.691644 
L 214.216732 226.746027 
L 212.899849 227.422792 
L 211.576532 227.992565 
L 208.914185 229.782783 
L 206.22598 231.241218 
L 204.227395 232.493256 
L 203.577119 232.775469 
L 198.869297 235.634311 
L 197.547418 236.195027 
L 196.202078 237.255232 
L 192.846771 239.143604 
L 191.50069 240.066514 
L 189.479587 240.709827 
L 188.811867 241.008443 
L 186.833324 242.528699 
L 185.521389 243.324175 
L 184.867649 243.512974 
L 181.534604 245.474626 
L 180.228113 246.046789 
L 177.553641 247.806172 
L 176.234283 248.413721 
L 175.555799 248.714215 
L 174.213181 249.595936 
L 168.236726 252.510189 
L 167.575192 253.065436 
L 166.908708 253.46655 
L 164.921613 254.113717 
L 164.243129 254.4755 
L 162.942947 255.671862 
L 162.268793 255.999473 
L 160.939785 256.484016 
L 160.285302 256.754357 
L 158.294016 258.28364 
L 156.280585 258.811312 
L 153.005202 260.657169 
L 151.700195 261.33401 
L 149.735262 262.445642 
L 148.405682 262.86613 
L 147.062322 263.527762 
L 145.049385 264.455944 
L 142.380357 266.075567 
L 140.408743 266.789121 
L 137.083381 268.66073 
L 135.100384 269.475624 
L 133.777562 269.797945 
L 132.431511 270.565231 
L 131.090997 271.476459 
L 128.422588 272.488307 
L 126.395052 273.75415 
L 123.109276 274.99261 
L 119.746175 276.816469 
L 119.083774 277.102588 
L 118.410238 277.261008 
L 113.743955 279.487901 
L 111.097321 280.520969 
L 109.087601 281.700794 
L 108.417777 281.965674 
L 106.416718 282.468571 
L 104.40081 283.756563 
L 101.719657 284.561682 
L 99.715186 285.882171 
L 98.38692 286.237137 
L 97.048756 286.568645 
L 95.068853 287.844425 
L 93.742195 288.3238 
L 92.425312 288.585594 
L 91.118078 289.246544 
L 90.4438 289.766216 
L 89.766306 290.139794 
L 87.780835 290.539215 
L 86.44094 291.144564 
L 85.767899 291.606436 
L 84.446217 292.070907 
L 83.780599 292.160035 
L 82.449117 292.73288 
L 81.113427 293.490353 
L 80.459934 293.72556 
L 79.150721 293.859623 
L 77.811568 294.375769 
L 76.474765 294.983232 
L 75.167408 294.914756 
L 74.510698 294.829241 
L 74.00932 295.423031 
L 73.982874 295.488 
L 73.832727 294.204506 
L 73.83316 294.209787 
" clip-path="url(#pbdc949d71f)" style="fill: none; stroke: #ff0000; stroke-width: 1.5; stroke-linecap: square"/>
   </g>
   <g id="line2d_17">
    <path d="M 73.975346 275.934933 
L 73.97738 275.680494 
L 73.975346 275.960601 
L 73.9774 275.761116 
L 74.103682 275.813848 
L 74.755675 275.190041 
L 75.432428 272.480403 
L 76.78816 271.18327 
L 77.443385 274.942436 
L 78.16047 275.086729 
L 78.829552 274.966576 
L 79.503583 275.018764 
L 80.166231 274.621443 
L 80.873419 274.801444 
L 81.523943 275.795314 
L 82.18956 275.544505 
L 82.854436 276.325464 
L 83.503722 273.412462 
L 84.17899 271.426769 
L 85.511091 271.619338 
L 86.821541 271.893102 
L 87.499779 271.797514 
L 88.838794 270.322549 
L 89.507999 270.019704 
L 90.843689 269.997305 
L 92.177151 269.550921 
L 94.186623 268.404547 
L 95.498063 267.883623 
L 96.807276 267.217933 
L 98.112283 266.580043 
L 99.460097 265.995819 
L 100.132148 265.566564 
L 103.430543 264.271707 
L 105.4285 263.167603 
L 107.420155 262.187272 
L 108.758813 261.454869 
L 111.408912 260.071301 
L 112.059683 259.84833 
L 113.401311 259.115358 
L 114.751599 258.460742 
L 116.107579 257.701752 
L 118.724273 256.511459 
L 125.347899 253.020071 
L 126.682103 252.507216 
L 127.352917 252.128783 
L 128.691452 251.176443 
L 131.323982 249.79936 
L 131.996776 249.291901 
L 135.319049 247.799369 
L 136.627767 246.644424 
L 137.964338 245.792831 
L 139.303492 245.291136 
L 140.636954 244.462058 
L 141.304798 243.867518 
L 142.647664 243.129729 
L 143.317735 242.875079 
L 143.988054 242.807769 
L 144.640805 242.590515 
L 145.96437 241.190563 
L 147.288676 240.555366 
L 148.603828 240.191857 
L 149.265487 239.844107 
L 151.2783 238.25581 
L 152.600132 237.815595 
L 157.283898 234.931377 
L 161.905982 232.302598 
L 163.882297 231.074834 
L 165.874944 230.033062 
L 168.523558 228.456144 
L 169.178288 228.222098 
L 172.493416 225.830684 
L 173.832322 225.463487 
L 174.505239 225.028998 
L 175.82534 223.972359 
L 177.142718 223.143204 
L 178.48014 222.648985 
L 179.151696 222.166102 
L 179.815953 221.527112 
L 183.144783 219.731395 
L 184.488886 218.62401 
L 186.484695 217.641204 
L 187.828673 216.401152 
L 189.848043 215.431896 
L 190.50698 215.279866 
L 191.171979 214.762697 
L 191.826586 214.017361 
L 193.165615 213.319812 
L 195.177562 212.457168 
L 196.488631 211.102577 
L 197.166126 210.65231 
L 199.805832 209.363294 
L 201.789818 208.003165 
L 203.096541 207.307759 
L 204.440396 206.44045 
L 206.436259 204.962369 
L 208.416286 203.861659 
L 211.079004 201.885448 
L 213.086002 200.853424 
L 213.754713 200.467709 
L 215.082236 199.434888 
L 215.744885 199.109173 
L 217.71254 197.873368 
L 219.053224 196.921364 
L 219.725028 196.325307 
L 223.040744 194.29258 
L 230.287068 189.163064 
L 231.595044 188.441697 
L 234.280774 186.650341 
L 235.636321 185.888298 
L 237.640102 184.30114 
L 239.001525 183.402124 
L 240.325832 182.541718 
L 242.983601 180.601689 
L 244.971052 179.319082 
L 246.301421 178.245225 
L 247.625728 177.34674 
L 248.954489 176.72952 
L 251.631837 174.399481 
L 252.285577 174.116548 
L 254.278347 172.746785 
L 255.613665 171.547693 
L 257.590971 170.517982 
L 260.287341 168.221138 
L 262.273059 166.899088 
L 262.943873 166.21853 
L 264.951366 164.915974 
L 266.251671 164.273571 
L 267.600242 163.20453 
L 268.925044 162.157752 
L 270.279044 161.38215 
L 270.950353 160.880303 
L 272.303363 159.619466 
L 273.624948 158.648997 
L 274.933419 157.836151 
L 282.334394 151.990653 
L 283.659397 151.159821 
L 284.973559 150.256406 
L 287.670671 147.991572 
L 290.297758 146.342972 
L 299.589434 139.072188 
L 300.907307 138.201513 
L 304.259397 135.450914 
L 305.567621 134.533845 
L 307.581052 132.485194 
L 308.935795 131.53748 
L 312.912922 128.598006 
L 316.922572 125.295478 
L 320.915783 122.065636 
L 322.245781 121.003384 
L 324.243624 119.348185 
L 325.548631 118.355111 
L 328.218772 116.117281 
L 329.535161 115.201502 
L 330.860952 114.032751 
L 334.209331 111.139491 
L 343.452756 103.378541 
L 344.13124 103.016871 
L 345.454805 101.853431 
L 347.445967 99.800987 
L 348.753324 98.800574 
L 350.106582 97.509396 
L 352.098486 95.526131 
L 353.414627 94.595939 
L 356.762263 91.472065 
L 357.426149 91.05305 
L 359.431415 89.295449 
L 360.755474 87.716786 
L 361.417875 87.36293 
L 364.076263 85.134809 
L 364.742375 84.292987 
L 367.384803 82.125701 
L 368.689067 80.827241 
L 369.993084 79.574748 
L 378.025654 72.428288 
L 380.669072 69.72229 
L 382.659151 67.674094 
L 383.315118 67.223828 
L 389.973769 60.919113 
L 391.962086 58.764419 
L 396.626111 54.742402 
L 397.277902 54.468191 
L 397.931581 54.013374 
L 398.152732 53.657848 
L 398.487273 53.568 
L 398.300949 61.61615 
L 398.302372 63.699978 
L 398.304011 79.837751 
L 398.29798 79.502384 
L 397.648477 79.8504 
L 396.983416 81.677711 
L 396.331191 83.059325 
L 395.64949 82.913573 
L 394.958138 82.938263 
L 394.270746 83.184104 
L 392.945696 83.954851 
L 392.291956 84.133695 
L 391.6204 84.655908 
L 390.967649 84.787893 
L 390.315888 86.500362 
L 389.657199 87.420616 
L 389.002469 88.130453 
L 387.660841 90.358725 
L 387.00908 91.256679 
L 386.356329 91.198935 
L 385.701104 91.334562 
L 384.358486 92.533198 
L 383.014384 92.993003 
L 382.365098 95.294474 
L 381.708512 96.704742 
L 381.039554 97.376046 
L 380.369234 97.617753 
L 379.699905 98.092823 
L 379.018699 98.266148 
L 378.360752 98.766023 
L 377.705279 99.435961 
L 376.378281 101.263764 
L 375.729613 102.0801 
L 373.733503 103.773605 
L 373.051059 104.408347 
L 372.382225 105.277628 
L 371.698544 105.738969 
L 369.696247 107.654876 
L 369.040651 108.319125 
L 367.693827 110.126866 
L 365.69351 111.639232 
L 360.393313 116.981831 
L 359.074078 118.228559 
L 357.729234 119.678119 
L 355.102395 121.929602 
L 353.111109 124.04819 
L 350.459031 126.30028 
L 345.804409 130.605573 
L 345.151163 131.105296 
L 341.832756 134.247195 
L 340.524533 135.430661 
L 339.178451 136.731093 
L 335.841208 139.49838 
L 334.493394 140.753452 
L 333.181459 141.695021 
L 330.50909 144.08782 
L 328.542178 145.665648 
L 325.238045 148.512211 
L 323.918934 149.452643 
L 322.585472 150.769611 
L 320.598517 152.340537 
L 318.598818 153.917228 
L 317.278842 155.098267 
L 314.639631 157.267297 
L 313.340563 158.43271 
L 309.947861 161.016015 
L 308.591882 162.092679 
L 307.285885 163.192403 
L 305.950196 164.005704 
L 303.276096 166.26902 
L 299.276575 169.179519 
L 297.291104 170.422075 
L 296.615342 170.982177 
L 295.297252 172.304199 
L 293.31772 173.586882 
L 291.990938 174.365594 
L 290.662796 175.651614 
L 288.658767 177.094954 
L 287.997109 177.438874 
L 284.674217 180.130459 
L 284.023693 180.493721 
L 282.716459 181.453268 
L 280.066608 183.309782 
L 279.397449 184.003775 
L 270.038469 190.687833 
L 269.363449 191.039035 
L 268.028749 192.042728 
L 265.37432 193.755651 
L 264.054591 194.825186 
L 263.376369 195.235022 
L 262.043155 195.716843 
L 261.364051 196.139575 
L 260.045807 197.422409 
L 257.419463 199.026559 
L 256.071649 200.129924 
L 253.415983 201.753568 
L 252.758531 202.483278 
L 252.087346 202.992103 
L 249.435762 204.411284 
L 248.781156 205.134168 
L 248.11294 205.664308 
L 246.094591 206.578456 
L 245.437634 206.894917 
L 243.460576 208.718283 
L 241.476837 209.584815 
L 240.124817 210.767902 
L 238.812387 211.521961 
L 237.497236 212.11377 
L 234.85753 213.948514 
L 233.538419 214.591904 
L 231.541442 216.293373 
L 229.552616 217.139078 
L 228.892071 217.516753 
L 227.564052 218.717058 
L 226.903878 219.047362 
L 226.224156 219.225333 
L 224.899107 219.912111 
L 224.244748 220.505285 
L 223.567129 221.289004 
L 222.894212 221.745186 
L 221.557038 222.138733 
L 220.22803 222.737132 
L 218.87502 224.112204 
L 217.54861 224.759708 
L 216.212425 225.258749 
L 215.541364 225.691644 
L 214.216732 226.746027 
L 212.899849 227.422792 
L 211.576532 227.992565 
L 208.914185 229.782783 
L 206.22598 231.241218 
L 204.227395 232.493256 
L 203.577119 232.775469 
L 198.869297 235.634311 
L 197.547418 236.195027 
L 196.202078 237.255232 
L 192.846771 239.143604 
L 191.50069 240.066514 
L 189.479587 240.709827 
L 188.811867 241.008443 
L 186.833324 242.528699 
L 185.521389 243.324175 
L 184.867649 243.512974 
L 181.534604 245.474626 
L 180.228113 246.046789 
L 177.553641 247.806172 
L 176.234283 248.413721 
L 175.555799 248.714215 
L 174.213181 249.595936 
L 168.236726 252.510189 
L 167.575192 253.065436 
L 166.908708 253.46655 
L 164.921613 254.113717 
L 164.243129 254.4755 
L 162.942947 255.671862 
L 162.268793 255.999473 
L 160.939785 256.484016 
L 160.285302 256.754357 
L 158.294016 258.28364 
L 156.280585 258.811312 
L 153.005202 260.657169 
L 151.700195 261.33401 
L 149.735262 262.445642 
L 148.405682 262.86613 
L 147.062322 263.527762 
L 145.049385 264.455944 
L 142.380357 266.075567 
L 140.408743 266.789121 
L 137.083381 268.66073 
L 135.100384 269.475624 
L 133.777562 269.797945 
L 132.431511 270.565231 
L 131.090997 271.476459 
L 128.422588 272.488307 
L 126.395052 273.75415 
L 123.109276 274.99261 
L 119.746175 276.816469 
L 119.083774 277.102588 
L 118.410238 277.261008 
L 113.743955 279.487901 
L 111.097321 280.520969 
L 109.087601 281.700794 
L 108.417777 281.965674 
L 106.416718 282.468571 
L 104.40081 283.756563 
L 101.719657 284.561682 
L 99.715186 285.882171 
L 98.38692 286.237137 
L 97.048756 286.568645 
L 95.068853 287.844425 
L 93.742195 288.3238 
L 92.425312 288.585594 
L 91.118078 289.246544 
L 90.4438 289.766216 
L 89.766306 290.139794 
L 87.780835 290.539215 
L 86.44094 291.144564 
L 85.767899 291.606436 
L 84.446217 292.070907 
L 83.780599 292.160035 
L 82.449117 292.73288 
L 81.113427 293.490353 
L 80.459934 293.72556 
L 79.150721 293.859623 
L 77.811568 294.375769 
L 76.474765 294.983232 
L 75.167408 294.914756 
L 74.510698 294.829241 
L 74.00932 295.423031 
L 73.982874 295.488 
L 73.832727 294.204506 
L 73.83316 294.209787 
" clip-path="url(#pbdc949d71f)" style="fill: none; stroke: #000000; stroke-width: 1.5; stroke-linecap: square"/>
   </g>
   <g id="patch_3">
    <path d="M 57.6 307.584 
L 57.6 41.472 
" style="fill: none; stroke: #000000; stroke-width: 0.8; stroke-linejoin: miter; stroke-linecap: square"/>
   </g>
   <g id="patch_4">
    <path d="M 414.72 307.584 
L 414.72 41.472 
" style="fill: none; stroke: #000000; stroke-width: 0.8; stroke-linejoin: miter; stroke-linecap: square"/>
   </g>
   <g id="patch_5">
    <path d="M 57.6 307.584 
L 414.72 307.584 
" style="fill: none; stroke: #000000; stroke-width: 0.8; stroke-linejoin: miter; stroke-linecap: square"/>
   </g>
   <g id="patch_6">
    <path d="M 57.6 41.472 
L 414.72 41.472 
" style="fill: none; stroke: #000000; stroke-width: 0.8; stroke-linejoin: miter; stroke-linecap: square"/>
   </g>
   <g id="text_18">
    <!-- 2025-07-02 trial 14 -->
    <g transform="translate(178.0125 35.472) scale(0.12 -0.12)">
     <defs>
      <path id="DejaVuSans-2d" d="M 313 2009 
L 1997 2009 
L 1997 1497 
L 313 1497 
L 313 2009 
z
" transform="scale(0.015625)"/>
      <path id="DejaVuSans-6c" d="M 603 4863 
L 1178 4863 
L 1178 0 
L 603 0 
L 603 4863 
z
" transform="scale(0.015625)"/>
      <path id="DejaVuSans-34" d="M 2419 4116 
L 825 1625 
L 2419 1625 
L 2419 4116 
z
M 2253 4666 
L 3047 4666 
L 3047 1625 
L 3713 1625 
L 3713 1100 
L 3047 1100 
L 3047 0 
L 2419 0 
L 2419 1100 
L 313 1100 
L 313 1709 
L 2253 4666 
z
" transform="scale(0.015625)"/>
     </defs>
     <use xlink:href="#DejaVuSans-32"/>
     <use xlink:href="#DejaVuSans-30" transform="translate(63.623047 0)"/>
     <use xlink:href="#DejaVuSans-32" transform="translate(127.246094 0)"/>
     <use xlink:href="#DejaVuSans-35" transform="translate(190.869141 0)"/>
     <use xlink:href="#DejaVuSans-2d" transform="translate(254.492188 0)"/>
     <use xlink:href="#DejaVuSans-30" transform="translate(290.576172 0)"/>
     <use xlink:href="#DejaVuSans-37" transform="translate(354.199219 0)"/>
     <use xlink:href="#DejaVuSans-2d" transform="translate(417.822266 0)"/>
     <use xlink:href="#DejaVuSans-30" transform="translate(453.90625 0)"/>
     <use xlink:href="#DejaVuSans-32" transform="translate(517.529297 0)"/>
     <use xlink:href="#DejaVuSans-20" transform="translate(581.152344 0)"/>
     <use xlink:href="#DejaVuSans-74" transform="translate(612.939453 0)"/>
     <use xlink:href="#DejaVuSans-72" transform="translate(652.148438 0)"/>
     <use xlink:href="#DejaVuSans-69" transform="translate(693.261719 0)"/>
     <use xlink:href="#DejaVuSans-61" transform="translate(721.044922 0)"/>
     <use xlink:href="#DejaVuSans-6c" transform="translate(782.324219 0)"/>
     <use xlink:href="#DejaVuSans-20" transform="translate(810.107422 0)"/>
     <use xlink:href="#DejaVuSans-31" transform="translate(841.894531 0)"/>
     <use xlink:href="#DejaVuSans-34" transform="translate(905.517578 0)"/>
    </g>
   </g>
  </g>
 </g>
 <defs>
  <clipPath id="pbdc949d71f">
   <rect x="57.6" y="41.472" width="357.12" height="266.112"/>
  </clipPath>
 </defs>
</svg>
