<?xml version="1.0" encoding="utf-8" standalone="no"?>
<!DOCTYPE svg PUBLIC "-//W3C//DTD SVG 1.1//EN"
  "http://www.w3.org/Graphics/SVG/1.1/DTD/svg11.dtd">
<svg xmlns:xlink="http://www.w3.org/1999/xlink" width="432pt" height="288pt" viewBox="0 0 432 288" xmlns="http://www.w3.org/2000/svg" version="1.1">
 <metadata>
  <rdf:RDF xmlns:dc="http://purl.org/dc/elements/1.1/" xmlns:cc="http://creativecommons.org/ns#" xmlns:rdf="http://www.w3.org/1999/02/22-rdf-syntax-ns#">
   <cc:Work>
    <dc:type rdf:resource="http://purl.org/dc/dcmitype/StillImage"/>
    <dc:date>2025-07-03T20:54:33.702485</dc:date>
    <dc:format>image/svg+xml</dc:format>
    <dc:creator>
     <cc:Agent>
      <dc:title>Matplotlib v3.9.2, https://matplotlib.org/</dc:title>
     </cc:Agent>
    </dc:creator>
   </cc:Work>
  </rdf:RDF>
 </metadata>
 <defs>
  <style type="text/css">*{stroke-linejoin: round; stroke-linecap: butt}</style>
 </defs>
 <g id="figure_1">
  <g id="patch_1">
   <path d="M 0 288 
L 432 288 
L 432 0 
L 0 0 
z
" style="fill: #ffffff"/>
  </g>
  <g id="axes_1">
   <g id="patch_2">
    <path d="M 54 256.32 
L 388.8 256.32 
L 388.8 34.56 
L 54 34.56 
z
" style="fill: #ffffff"/>
   </g>
   <g id="matplotlib.axis_1">
    <g id="xtick_1">
     <g id="line2d_1">
      <defs>
       <path id="m9620173ce4" d="M 0 0 
L 0 3.5 
" style="stroke: #000000; stroke-width: 0.8"/>
      </defs>
      <g>
       <use xlink:href="#m9620173ce4" x="69.354584" y="256.32" style="stroke: #000000; stroke-width: 0.8"/>
      </g>
     </g>
     <g id="text_1">
      <!-- 0.000 -->
      <g transform="translate(55.040521 270.918437) scale(0.1 -0.1)">
       <defs>
        <path id="DejaVuSans-30" d="M 2034 4250 
Q 1547 4250 1301 3770 
Q 1056 3291 1056 2328 
Q 1056 1369 1301 889 
Q 1547 409 2034 409 
Q 2525 409 2770 889 
Q 3016 1369 3016 2328 
Q 3016 3291 2770 3770 
Q 2525 4250 2034 4250 
z
M 2034 4750 
Q 2819 4750 3233 4129 
Q 3647 3509 3647 2328 
Q 3647 1150 3233 529 
Q 2819 -91 2034 -91 
Q 1250 -91 836 529 
Q 422 1150 422 2328 
Q 422 3509 836 4129 
Q 1250 4750 2034 4750 
z
" transform="scale(0.015625)"/>
        <path id="DejaVuSans-2e" d="M 684 794 
L 1344 794 
L 1344 0 
L 684 0 
L 684 794 
z
" transform="scale(0.015625)"/>
       </defs>
       <use xlink:href="#DejaVuSans-30"/>
       <use xlink:href="#DejaVuSans-2e" x="63.623047"/>
       <use xlink:href="#DejaVuSans-30" x="95.410156"/>
       <use xlink:href="#DejaVuSans-30" x="159.033203"/>
       <use xlink:href="#DejaVuSans-30" x="222.65625"/>
      </g>
     </g>
    </g>
    <g id="xtick_2">
     <g id="line2d_2">
      <g>
       <use xlink:href="#m9620173ce4" x="111.924429" y="256.32" style="stroke: #000000; stroke-width: 0.8"/>
      </g>
     </g>
     <g id="text_2">
      <!-- 0.025 -->
      <g transform="translate(97.610366 270.918437) scale(0.1 -0.1)">
       <defs>
        <path id="DejaVuSans-32" d="M 1228 531 
L 3431 531 
L 3431 0 
L 469 0 
L 469 531 
Q 828 903 1448 1529 
Q 2069 2156 2228 2338 
Q 2531 2678 2651 2914 
Q 2772 3150 2772 3378 
Q 2772 3750 2511 3984 
Q 2250 4219 1831 4219 
Q 1534 4219 1204 4116 
Q 875 4013 500 3803 
L 500 4441 
Q 881 4594 1212 4672 
Q 1544 4750 1819 4750 
Q 2544 4750 2975 4387 
Q 3406 4025 3406 3419 
Q 3406 3131 3298 2873 
Q 3191 2616 2906 2266 
Q 2828 2175 2409 1742 
Q 1991 1309 1228 531 
z
" transform="scale(0.015625)"/>
        <path id="DejaVuSans-35" d="M 691 4666 
L 3169 4666 
L 3169 4134 
L 1269 4134 
L 1269 2991 
Q 1406 3038 1543 3061 
Q 1681 3084 1819 3084 
Q 2600 3084 3056 2656 
Q 3513 2228 3513 1497 
Q 3513 744 3044 326 
Q 2575 -91 1722 -91 
Q 1428 -91 1123 -41 
Q 819 9 494 109 
L 494 744 
Q 775 591 1075 516 
Q 1375 441 1709 441 
Q 2250 441 2565 725 
Q 2881 1009 2881 1497 
Q 2881 1984 2565 2268 
Q 2250 2553 1709 2553 
Q 1456 2553 1204 2497 
Q 953 2441 691 2322 
L 691 4666 
z
" transform="scale(0.015625)"/>
       </defs>
       <use xlink:href="#DejaVuSans-30"/>
       <use xlink:href="#DejaVuSans-2e" x="63.623047"/>
       <use xlink:href="#DejaVuSans-30" x="95.410156"/>
       <use xlink:href="#DejaVuSans-32" x="159.033203"/>
       <use xlink:href="#DejaVuSans-35" x="222.65625"/>
      </g>
     </g>
    </g>
    <g id="xtick_3">
     <g id="line2d_3">
      <g>
       <use xlink:href="#m9620173ce4" x="154.494274" y="256.32" style="stroke: #000000; stroke-width: 0.8"/>
      </g>
     </g>
     <g id="text_3">
      <!-- 0.050 -->
      <g transform="translate(140.180212 270.918437) scale(0.1 -0.1)">
       <use xlink:href="#DejaVuSans-30"/>
       <use xlink:href="#DejaVuSans-2e" x="63.623047"/>
       <use xlink:href="#DejaVuSans-30" x="95.410156"/>
       <use xlink:href="#DejaVuSans-35" x="159.033203"/>
       <use xlink:href="#DejaVuSans-30" x="222.65625"/>
      </g>
     </g>
    </g>
    <g id="xtick_4">
     <g id="line2d_4">
      <g>
       <use xlink:href="#m9620173ce4" x="197.06412" y="256.32" style="stroke: #000000; stroke-width: 0.8"/>
      </g>
     </g>
     <g id="text_4">
      <!-- 0.075 -->
      <g transform="translate(182.750057 270.918437) scale(0.1 -0.1)">
       <defs>
        <path id="DejaVuSans-37" d="M 525 4666 
L 3525 4666 
L 3525 4397 
L 1831 0 
L 1172 0 
L 2766 4134 
L 525 4134 
L 525 4666 
z
" transform="scale(0.015625)"/>
       </defs>
       <use xlink:href="#DejaVuSans-30"/>
       <use xlink:href="#DejaVuSans-2e" x="63.623047"/>
       <use xlink:href="#DejaVuSans-30" x="95.410156"/>
       <use xlink:href="#DejaVuSans-37" x="159.033203"/>
       <use xlink:href="#DejaVuSans-35" x="222.65625"/>
      </g>
     </g>
    </g>
    <g id="xtick_5">
     <g id="line2d_5">
      <g>
       <use xlink:href="#m9620173ce4" x="239.633965" y="256.32" style="stroke: #000000; stroke-width: 0.8"/>
      </g>
     </g>
     <g id="text_5">
      <!-- 0.100 -->
      <g transform="translate(225.319903 270.918437) scale(0.1 -0.1)">
       <defs>
        <path id="DejaVuSans-31" d="M 794 531 
L 1825 531 
L 1825 4091 
L 703 3866 
L 703 4441 
L 1819 4666 
L 2450 4666 
L 2450 531 
L 3481 531 
L 3481 0 
L 794 0 
L 794 531 
z
" transform="scale(0.015625)"/>
       </defs>
       <use xlink:href="#DejaVuSans-30"/>
       <use xlink:href="#DejaVuSans-2e" x="63.623047"/>
       <use xlink:href="#DejaVuSans-31" x="95.410156"/>
       <use xlink:href="#DejaVuSans-30" x="159.033203"/>
       <use xlink:href="#DejaVuSans-30" x="222.65625"/>
      </g>
     </g>
    </g>
    <g id="xtick_6">
     <g id="line2d_6">
      <g>
       <use xlink:href="#m9620173ce4" x="282.203811" y="256.32" style="stroke: #000000; stroke-width: 0.8"/>
      </g>
     </g>
     <g id="text_6">
      <!-- 0.125 -->
      <g transform="translate(267.889748 270.918437) scale(0.1 -0.1)">
       <use xlink:href="#DejaVuSans-30"/>
       <use xlink:href="#DejaVuSans-2e" x="63.623047"/>
       <use xlink:href="#DejaVuSans-31" x="95.410156"/>
       <use xlink:href="#DejaVuSans-32" x="159.033203"/>
       <use xlink:href="#DejaVuSans-35" x="222.65625"/>
      </g>
     </g>
    </g>
    <g id="xtick_7">
     <g id="line2d_7">
      <g>
       <use xlink:href="#m9620173ce4" x="324.773656" y="256.32" style="stroke: #000000; stroke-width: 0.8"/>
      </g>
     </g>
     <g id="text_7">
      <!-- 0.150 -->
      <g transform="translate(310.459593 270.918437) scale(0.1 -0.1)">
       <use xlink:href="#DejaVuSans-30"/>
       <use xlink:href="#DejaVuSans-2e" x="63.623047"/>
       <use xlink:href="#DejaVuSans-31" x="95.410156"/>
       <use xlink:href="#DejaVuSans-35" x="159.033203"/>
       <use xlink:href="#DejaVuSans-30" x="222.65625"/>
      </g>
     </g>
    </g>
    <g id="xtick_8">
     <g id="line2d_8">
      <g>
       <use xlink:href="#m9620173ce4" x="367.343501" y="256.32" style="stroke: #000000; stroke-width: 0.8"/>
      </g>
     </g>
     <g id="text_8">
      <!-- 0.175 -->
      <g transform="translate(353.029439 270.918437) scale(0.1 -0.1)">
       <use xlink:href="#DejaVuSans-30"/>
       <use xlink:href="#DejaVuSans-2e" x="63.623047"/>
       <use xlink:href="#DejaVuSans-31" x="95.410156"/>
       <use xlink:href="#DejaVuSans-37" x="159.033203"/>
       <use xlink:href="#DejaVuSans-35" x="222.65625"/>
      </g>
     </g>
    </g>
    <g id="text_9">
     <!-- Strain -->
     <g transform="translate(206.588281 284.596563) scale(0.1 -0.1)">
      <defs>
       <path id="DejaVuSans-53" d="M 3425 4513 
L 3425 3897 
Q 3066 4069 2747 4153 
Q 2428 4238 2131 4238 
Q 1616 4238 1336 4038 
Q 1056 3838 1056 3469 
Q 1056 3159 1242 3001 
Q 1428 2844 1947 2747 
L 2328 2669 
Q 3034 2534 3370 2195 
Q 3706 1856 3706 1288 
Q 3706 609 3251 259 
Q 2797 -91 1919 -91 
Q 1588 -91 1214 -16 
Q 841 59 441 206 
L 441 856 
Q 825 641 1194 531 
Q 1563 422 1919 422 
Q 2459 422 2753 634 
Q 3047 847 3047 1241 
Q 3047 1584 2836 1778 
Q 2625 1972 2144 2069 
L 1759 2144 
Q 1053 2284 737 2584 
Q 422 2884 422 3419 
Q 422 4038 858 4394 
Q 1294 4750 2059 4750 
Q 2388 4750 2728 4690 
Q 3069 4631 3425 4513 
z
" transform="scale(0.015625)"/>
       <path id="DejaVuSans-74" d="M 1172 4494 
L 1172 3500 
L 2356 3500 
L 2356 3053 
L 1172 3053 
L 1172 1153 
Q 1172 725 1289 603 
Q 1406 481 1766 481 
L 2356 481 
L 2356 0 
L 1766 0 
Q 1100 0 847 248 
Q 594 497 594 1153 
L 594 3053 
L 172 3053 
L 172 3500 
L 594 3500 
L 594 4494 
L 1172 4494 
z
" transform="scale(0.015625)"/>
       <path id="DejaVuSans-72" d="M 2631 2963 
Q 2534 3019 2420 3045 
Q 2306 3072 2169 3072 
Q 1681 3072 1420 2755 
Q 1159 2438 1159 1844 
L 1159 0 
L 581 0 
L 581 3500 
L 1159 3500 
L 1159 2956 
Q 1341 3275 1631 3429 
Q 1922 3584 2338 3584 
Q 2397 3584 2469 3576 
Q 2541 3569 2628 3553 
L 2631 2963 
z
" transform="scale(0.015625)"/>
       <path id="DejaVuSans-61" d="M 2194 1759 
Q 1497 1759 1228 1600 
Q 959 1441 959 1056 
Q 959 750 1161 570 
Q 1363 391 1709 391 
Q 2188 391 2477 730 
Q 2766 1069 2766 1631 
L 2766 1759 
L 2194 1759 
z
M 3341 1997 
L 3341 0 
L 2766 0 
L 2766 531 
Q 2569 213 2275 61 
Q 1981 -91 1556 -91 
Q 1019 -91 701 211 
Q 384 513 384 1019 
Q 384 1609 779 1909 
Q 1175 2209 1959 2209 
L 2766 2209 
L 2766 2266 
Q 2766 2663 2505 2880 
Q 2244 3097 1772 3097 
Q 1472 3097 1187 3025 
Q 903 2953 641 2809 
L 641 3341 
Q 956 3463 1253 3523 
Q 1550 3584 1831 3584 
Q 2591 3584 2966 3190 
Q 3341 2797 3341 1997 
z
" transform="scale(0.015625)"/>
       <path id="DejaVuSans-69" d="M 603 3500 
L 1178 3500 
L 1178 0 
L 603 0 
L 603 3500 
z
M 603 4863 
L 1178 4863 
L 1178 4134 
L 603 4134 
L 603 4863 
z
" transform="scale(0.015625)"/>
       <path id="DejaVuSans-6e" d="M 3513 2113 
L 3513 0 
L 2938 0 
L 2938 2094 
Q 2938 2591 2744 2837 
Q 2550 3084 2163 3084 
Q 1697 3084 1428 2787 
Q 1159 2491 1159 1978 
L 1159 0 
L 581 0 
L 581 3500 
L 1159 3500 
L 1159 2956 
Q 1366 3272 1645 3428 
Q 1925 3584 2291 3584 
Q 2894 3584 3203 3211 
Q 3513 2838 3513 2113 
z
" transform="scale(0.015625)"/>
      </defs>
      <use xlink:href="#DejaVuSans-53"/>
      <use xlink:href="#DejaVuSans-74" x="63.476562"/>
      <use xlink:href="#DejaVuSans-72" x="102.685547"/>
      <use xlink:href="#DejaVuSans-61" x="143.798828"/>
      <use xlink:href="#DejaVuSans-69" x="205.078125"/>
      <use xlink:href="#DejaVuSans-6e" x="232.861328"/>
     </g>
    </g>
   </g>
   <g id="matplotlib.axis_2">
    <g id="ytick_1">
     <g id="line2d_9">
      <defs>
       <path id="m1e231343c8" d="M 0 0 
L -3.5 0 
" style="stroke: #000000; stroke-width: 0.8"/>
      </defs>
      <g>
       <use xlink:href="#m1e231343c8" x="54" y="231.914222" style="stroke: #000000; stroke-width: 0.8"/>
      </g>
     </g>
     <g id="text_10">
      <!-- 0 -->
      <g transform="translate(40.6375 235.713441) scale(0.1 -0.1)">
       <use xlink:href="#DejaVuSans-30"/>
      </g>
     </g>
    </g>
    <g id="ytick_2">
     <g id="line2d_10">
      <g>
       <use xlink:href="#m1e231343c8" x="54" y="201.95371" style="stroke: #000000; stroke-width: 0.8"/>
      </g>
     </g>
     <g id="text_11">
      <!-- 250 -->
      <g transform="translate(27.9125 205.752929) scale(0.1 -0.1)">
       <use xlink:href="#DejaVuSans-32"/>
       <use xlink:href="#DejaVuSans-35" x="63.623047"/>
       <use xlink:href="#DejaVuSans-30" x="127.246094"/>
      </g>
     </g>
    </g>
    <g id="ytick_3">
     <g id="line2d_11">
      <g>
       <use xlink:href="#m1e231343c8" x="54" y="171.993198" style="stroke: #000000; stroke-width: 0.8"/>
      </g>
     </g>
     <g id="text_12">
      <!-- 500 -->
      <g transform="translate(27.9125 175.792417) scale(0.1 -0.1)">
       <use xlink:href="#DejaVuSans-35"/>
       <use xlink:href="#DejaVuSans-30" x="63.623047"/>
       <use xlink:href="#DejaVuSans-30" x="127.246094"/>
      </g>
     </g>
    </g>
    <g id="ytick_4">
     <g id="line2d_12">
      <g>
       <use xlink:href="#m1e231343c8" x="54" y="142.032686" style="stroke: #000000; stroke-width: 0.8"/>
      </g>
     </g>
     <g id="text_13">
      <!-- 750 -->
      <g transform="translate(27.9125 145.831905) scale(0.1 -0.1)">
       <use xlink:href="#DejaVuSans-37"/>
       <use xlink:href="#DejaVuSans-35" x="63.623047"/>
       <use xlink:href="#DejaVuSans-30" x="127.246094"/>
      </g>
     </g>
    </g>
    <g id="ytick_5">
     <g id="line2d_13">
      <g>
       <use xlink:href="#m1e231343c8" x="54" y="112.072174" style="stroke: #000000; stroke-width: 0.8"/>
      </g>
     </g>
     <g id="text_14">
      <!-- 1000 -->
      <g transform="translate(21.55 115.871393) scale(0.1 -0.1)">
       <use xlink:href="#DejaVuSans-31"/>
       <use xlink:href="#DejaVuSans-30" x="63.623047"/>
       <use xlink:href="#DejaVuSans-30" x="127.246094"/>
       <use xlink:href="#DejaVuSans-30" x="190.869141"/>
      </g>
     </g>
    </g>
    <g id="ytick_6">
     <g id="line2d_14">
      <g>
       <use xlink:href="#m1e231343c8" x="54" y="82.111662" style="stroke: #000000; stroke-width: 0.8"/>
      </g>
     </g>
     <g id="text_15">
      <!-- 1250 -->
      <g transform="translate(21.55 85.910881) scale(0.1 -0.1)">
       <use xlink:href="#DejaVuSans-31"/>
       <use xlink:href="#DejaVuSans-32" x="63.623047"/>
       <use xlink:href="#DejaVuSans-35" x="127.246094"/>
       <use xlink:href="#DejaVuSans-30" x="190.869141"/>
      </g>
     </g>
    </g>
    <g id="ytick_7">
     <g id="line2d_15">
      <g>
       <use xlink:href="#m1e231343c8" x="54" y="52.15115" style="stroke: #000000; stroke-width: 0.8"/>
      </g>
     </g>
     <g id="text_16">
      <!-- 1500 -->
      <g transform="translate(21.55 55.950368) scale(0.1 -0.1)">
       <use xlink:href="#DejaVuSans-31"/>
       <use xlink:href="#DejaVuSans-35" x="63.623047"/>
       <use xlink:href="#DejaVuSans-30" x="127.246094"/>
       <use xlink:href="#DejaVuSans-30" x="190.869141"/>
      </g>
     </g>
    </g>
    <g id="text_17">
     <!-- Stress [Pa] -->
     <g transform="translate(15.470312 172.147812) rotate(-90) scale(0.1 -0.1)">
      <defs>
       <path id="DejaVuSans-65" d="M 3597 1894 
L 3597 1613 
L 953 1613 
Q 991 1019 1311 708 
Q 1631 397 2203 397 
Q 2534 397 2845 478 
Q 3156 559 3463 722 
L 3463 178 
Q 3153 47 2828 -22 
Q 2503 -91 2169 -91 
Q 1331 -91 842 396 
Q 353 884 353 1716 
Q 353 2575 817 3079 
Q 1281 3584 2069 3584 
Q 2775 3584 3186 3129 
Q 3597 2675 3597 1894 
z
M 3022 2063 
Q 3016 2534 2758 2815 
Q 2500 3097 2075 3097 
Q 1594 3097 1305 2825 
Q 1016 2553 972 2059 
L 3022 2063 
z
" transform="scale(0.015625)"/>
       <path id="DejaVuSans-73" d="M 2834 3397 
L 2834 2853 
Q 2591 2978 2328 3040 
Q 2066 3103 1784 3103 
Q 1356 3103 1142 2972 
Q 928 2841 928 2578 
Q 928 2378 1081 2264 
Q 1234 2150 1697 2047 
L 1894 2003 
Q 2506 1872 2764 1633 
Q 3022 1394 3022 966 
Q 3022 478 2636 193 
Q 2250 -91 1575 -91 
Q 1294 -91 989 -36 
Q 684 19 347 128 
L 347 722 
Q 666 556 975 473 
Q 1284 391 1588 391 
Q 1994 391 2212 530 
Q 2431 669 2431 922 
Q 2431 1156 2273 1281 
Q 2116 1406 1581 1522 
L 1381 1569 
Q 847 1681 609 1914 
Q 372 2147 372 2553 
Q 372 3047 722 3315 
Q 1072 3584 1716 3584 
Q 2034 3584 2315 3537 
Q 2597 3491 2834 3397 
z
" transform="scale(0.015625)"/>
       <path id="DejaVuSans-20" transform="scale(0.015625)"/>
       <path id="DejaVuSans-5b" d="M 550 4863 
L 1875 4863 
L 1875 4416 
L 1125 4416 
L 1125 -397 
L 1875 -397 
L 1875 -844 
L 550 -844 
L 550 4863 
z
" transform="scale(0.015625)"/>
       <path id="DejaVuSans-50" d="M 1259 4147 
L 1259 2394 
L 2053 2394 
Q 2494 2394 2734 2622 
Q 2975 2850 2975 3272 
Q 2975 3691 2734 3919 
Q 2494 4147 2053 4147 
L 1259 4147 
z
M 628 4666 
L 2053 4666 
Q 2838 4666 3239 4311 
Q 3641 3956 3641 3272 
Q 3641 2581 3239 2228 
Q 2838 1875 2053 1875 
L 1259 1875 
L 1259 0 
L 628 0 
L 628 4666 
z
" transform="scale(0.015625)"/>
       <path id="DejaVuSans-5d" d="M 1947 4863 
L 1947 -844 
L 622 -844 
L 622 -397 
L 1369 -397 
L 1369 4416 
L 622 4416 
L 622 4863 
L 1947 4863 
z
" transform="scale(0.015625)"/>
      </defs>
      <use xlink:href="#DejaVuSans-53"/>
      <use xlink:href="#DejaVuSans-74" x="63.476562"/>
      <use xlink:href="#DejaVuSans-72" x="102.685547"/>
      <use xlink:href="#DejaVuSans-65" x="141.548828"/>
      <use xlink:href="#DejaVuSans-73" x="203.072266"/>
      <use xlink:href="#DejaVuSans-73" x="255.171875"/>
      <use xlink:href="#DejaVuSans-20" x="307.271484"/>
      <use xlink:href="#DejaVuSans-5b" x="339.058594"/>
      <use xlink:href="#DejaVuSans-50" x="378.072266"/>
      <use xlink:href="#DejaVuSans-61" x="433.875"/>
      <use xlink:href="#DejaVuSans-5d" x="495.154297"/>
     </g>
    </g>
   </g>
   <g id="line2d_16">
    <path d="M 69.354584 232.103031 
L 69.357105 232.136353 
L 69.359681 231.962326 
L 69.98011 230.581863 
L 70.623526 227.547187 
L 71.281442 226.761739 
L 71.899456 227.121494 
L 72.523966 226.973212 
L 73.892226 225.051655 
L 74.503281 224.537791 
L 75.164908 224.337198 
L 75.873861 224.36933 
L 77.902358 224.909089 
L 78.569554 225.145304 
L 80.654655 226.411521 
L 82.071633 227.37811 
L 84.161374 228.50184 
L 84.834137 228.503987 
L 85.495765 228.078041 
L 86.78747 226.887615 
L 87.422187 226.47127 
L 88.051337 226.384552 
L 90.029724 227.070588 
L 90.749812 226.971365 
L 91.444846 226.522934 
L 92.770885 225.029849 
L 94.041247 223.566576 
L 95.898073 222.092186 
L 97.124822 221.338823 
L 98.346931 220.720873 
L 101.019422 219.706535 
L 102.466739 218.921701 
L 103.915268 218.429058 
L 105.361012 217.940964 
L 109.671335 215.889046 
L 112.540554 214.56169 
L 116.131716 212.738409 
L 121.585272 210.32421 
L 124.035058 209.113574 
L 127.729223 207.67809 
L 129.565634 206.628131 
L 132.615802 204.930663 
L 134.448501 204.085087 
L 136.28584 203.16372 
L 138.744905 202.000832 
L 147.471337 197.842176 
L 152.447 194.976009 
L 154.901425 193.744151 
L 156.135597 193.22094 
L 166.007169 188.000461 
L 170.753628 185.153495 
L 172.592823 184.112883 
L 175.052816 182.958585 
L 183.752338 178.317138 
L 198.263604 169.802766 
L 199.716772 169.055971 
L 214.795015 160.033795 
L 223.493928 154.81613 
L 227.102722 152.374141 
L 229.274122 151.166536 
L 232.169323 149.325318 
L 235.571184 147.146071 
L 237.406667 146.0375 
L 238.6362 145.297526 
L 239.86666 144.591911 
L 242.331292 142.953308 
L 250.642004 137.762628 
L 261.238253 130.452324 
L 264.332035 128.437291 
L 268.019704 125.986207 
L 269.850548 124.628536 
L 274.122825 121.433688 
L 280.292758 117.398065 
L 282.143088 116.244019 
L 288.000534 112.050529 
L 294.69847 106.946757 
L 296.549728 105.591107 
L 298.40841 104.374407 
L 300.264308 103.060695 
L 301.497552 102.138064 
L 305.290079 99.534387 
L 309.597619 96.026262 
L 311.025732 94.817142 
L 312.460341 93.762635 
L 313.897734 92.740971 
L 318.220121 89.409699 
L 319.663081 88.45271 
L 326.8236 82.536963 
L 334.441133 76.50197 
L 339.343487 72.695741 
L 341.289396 71.076843 
L 342.738853 69.914713 
L 351.366748 62.277134 
L 361.837725 53.530336 
L 363.978039 52.073631 
L 367.279218 50.244539 
L 370.505696 48.620588 
L 371.789282 47.331129 
L 372.423535 46.418099 
L 373.034531 45.005732 
L 373.294531 44.821354 
L 373.581818 45.892488 
L 373.423922 58.907603 
L 373.42514 71.455736 
L 373.426474 71.421172 
L 372.907489 71.516605 
L 372.293883 73.068996 
L 371.667749 74.267064 
L 370.378596 74.235643 
L 369.731352 74.473627 
L 368.493236 75.081992 
L 367.884037 75.160847 
L 367.259064 75.508633 
L 366.615763 76.11073 
L 365.994733 77.604825 
L 365.373935 78.485265 
L 364.728083 79.649922 
L 364.108677 80.400822 
L 363.491359 80.229045 
L 362.248835 80.575047 
L 361.637549 81.013498 
L 361.027451 81.737414 
L 360.395982 81.864301 
L 359.776228 84.00262 
L 359.151022 84.896071 
L 356.647996 86.192004 
L 356.025574 86.839134 
L 354.786878 88.422157 
L 354.16724 88.999812 
L 352.930748 89.857641 
L 352.31575 90.354325 
L 350.432942 92.301524 
L 347.973645 94.231292 
L 346.746432 95.70745 
L 344.239839 97.566606 
L 343.609414 98.147671 
L 342.986992 98.904824 
L 342.354595 99.486647 
L 340.484314 100.873687 
L 339.244226 102.14723 
L 338.611945 102.726148 
L 337.371973 103.623136 
L 336.136409 104.621052 
L 334.2507 106.134221 
L 332.995417 107.218918 
L 331.74199 108.472882 
L 327.378629 111.953572 
L 325.522267 113.289516 
L 323.023881 115.624388 
L 321.179814 116.948332 
L 319.913164 118.008649 
L 316.163322 120.754561 
L 315.540117 121.289906 
L 314.923263 121.624524 
L 311.773094 124.026849 
L 308.033343 126.839141 
L 305.539712 128.846342 
L 303.68451 130.144075 
L 300.60372 132.2865 
L 299.987982 132.6354 
L 297.50943 134.543819 
L 295.008144 136.242424 
L 292.513353 138.142002 
L 291.898123 138.413523 
L 291.260622 138.844901 
L 290.01369 139.87086 
L 288.151761 141.044043 
L 287.530035 141.293648 
L 281.325217 145.694845 
L 280.714162 146.024031 
L 279.444728 146.955441 
L 278.217516 147.678867 
L 277.605997 148.167467 
L 276.359066 148.928093 
L 275.112366 149.831208 
L 273.243941 150.850345 
L 271.377604 152.214522 
L 264.574375 156.454568 
L 261.433963 158.570276 
L 260.194455 159.167005 
L 257.06054 161.208186 
L 255.833327 161.76645 
L 253.96583 162.960713 
L 252.075134 164.135033 
L 249.567816 165.609675 
L 248.314853 166.371506 
L 241.479464 170.351359 
L 240.223833 171.266284 
L 237.77789 172.408428 
L 235.232062 173.940293 
L 234.599665 174.206572 
L 233.33951 174.954693 
L 229.557886 177.071002 
L 228.33021 177.621751 
L 225.833215 179.360967 
L 223.948594 180.060637 
L 219.58387 182.873624 
L 217.106826 183.92772 
L 215.234457 185.031491 
L 209.02123 188.471937 
L 207.793089 189.25448 
L 206.537342 189.75388 
L 205.294354 190.44219 
L 204.066446 191.092856 
L 202.801883 191.553082 
L 202.184565 191.901911 
L 200.925571 192.83452 
L 199.035107 193.811088 
L 197.806502 194.278009 
L 197.194984 194.65507 
L 195.954316 195.167039 
L 193.468399 196.523964 
L 191.607629 197.32367 
L 188.466058 198.817685 
L 187.201495 199.290242 
L 185.976486 200.121228 
L 182.227573 201.792422 
L 179.075098 203.402856 
L 172.23217 206.745356 
L 170.987558 207.468088 
L 168.512255 208.334696 
L 163.457832 210.728652 
L 162.831402 211.109739 
L 160.929106 211.813681 
L 159.051401 212.825997 
L 155.980818 214.080972 
L 154.762189 214.81305 
L 154.145567 214.991144 
L 152.921834 215.550136 
L 149.773535 216.685644 
L 148.513265 217.195639 
L 146.669191 218.31252 
L 145.41646 218.843121 
L 144.161177 219.060836 
L 143.550354 219.282903 
L 142.302147 220.161322 
L 141.665342 220.502887 
L 141.042456 220.692144 
L 139.796221 220.871838 
L 139.167187 221.152518 
L 137.921068 221.990894 
L 137.304214 222.274858 
L 134.79156 222.991802 
L 133.542192 223.733607 
L 129.780545 225.29006 
L 129.145827 225.436653 
L 127.895184 225.953927 
L 125.407121 227.035908 
L 124.777044 227.468801 
L 121.693701 228.698233 
L 120.467649 229.221855 
L 116.791796 230.542592 
L 116.156383 230.603235 
L 112.420112 232.138288 
L 111.150446 232.57535 
L 109.259634 233.460654 
L 108.035901 233.863468 
L 105.555958 234.716449 
L 103.679413 235.613405 
L 101.201706 236.29339 
L 100.587636 236.3987 
L 96.245996 238.230713 
L 89.366066 240.527435 
L 87.503905 241.405728 
L 86.879875 241.458216 
L 85.625984 241.853822 
L 84.372672 242.428698 
L 83.76185 242.721251 
L 82.494271 242.961481 
L 81.236901 243.219826 
L 79.972454 243.669268 
L 79.34574 243.999338 
L 77.507938 244.449269 
L 76.272373 244.707809 
L 73.754964 245.69903 
L 71.87403 246.032151 
L 70.631506 245.957507 
L 69.489404 246.152015 
L 69.365726 246.24 
L 69.218265 245.082668 
L 69.218265 245.082668 
" clip-path="url(#p83d35fa6ba)" style="fill: none; stroke: #ff0000; stroke-width: 1.5; stroke-linecap: square"/>
   </g>
   <g id="line2d_17">
    <path d="M 69.354584 232.103031 
L 69.357105 232.136353 
L 69.359681 231.962326 
L 69.98011 230.581863 
L 70.623526 227.547187 
L 71.281442 226.761739 
L 71.899456 227.121494 
L 72.523966 226.973212 
L 73.222711 233.24517 
L 74.503281 231.233169 
L 75.164908 230.542964 
L 75.873861 230.018285 
L 77.902358 229.059401 
L 80.654655 228.003126 
L 82.775947 227.73736 
L 84.161374 228.50184 
L 84.834137 228.503987 
L 85.495765 228.078041 
L 86.78747 226.887615 
L 87.422187 226.47127 
L 88.051337 226.384552 
L 90.029724 227.070588 
L 90.749812 226.971365 
L 91.444846 226.522934 
L 92.770885 225.029849 
L 94.041247 223.566576 
L 95.898073 222.092186 
L 97.124822 221.338823 
L 98.346931 220.720873 
L 101.019422 219.706535 
L 102.466739 218.921701 
L 103.915268 218.429058 
L 105.361012 217.940964 
L 109.671335 215.889046 
L 112.540554 214.56169 
L 116.131716 212.738409 
L 121.585272 210.32421 
L 124.035058 209.113574 
L 127.729223 207.67809 
L 129.565634 206.628131 
L 132.615802 204.930663 
L 134.448501 204.085087 
L 136.28584 203.16372 
L 138.744905 202.000832 
L 147.471337 197.842176 
L 152.447 194.976009 
L 154.901425 193.744151 
L 156.135597 193.22094 
L 166.007169 188.000461 
L 170.753628 185.153495 
L 172.592823 184.112883 
L 175.052816 182.958585 
L 183.752338 178.317138 
L 198.263604 169.802766 
L 199.716772 169.055971 
L 214.795015 160.033795 
L 223.493928 154.81613 
L 227.102722 152.374141 
L 229.274122 151.166536 
L 232.169323 149.325318 
L 235.571184 147.146071 
L 237.406667 146.0375 
L 238.6362 145.297526 
L 239.86666 144.591911 
L 242.331292 142.953308 
L 250.642004 137.762628 
L 261.238253 130.452324 
L 264.332035 128.437291 
L 268.019704 125.986207 
L 269.850548 124.628536 
L 274.122825 121.433688 
L 280.292758 117.398065 
L 282.143088 116.244019 
L 288.000534 112.050529 
L 294.69847 106.946757 
L 296.549728 105.591107 
L 298.40841 104.374407 
L 300.264308 103.060695 
L 301.497552 102.138064 
L 305.290079 99.534387 
L 309.597619 96.026262 
L 311.025732 94.817142 
L 312.460341 93.762635 
L 313.897734 92.740971 
L 318.220121 89.409699 
L 319.663081 88.45271 
L 326.8236 82.536963 
L 334.441133 76.50197 
L 339.343487 72.695741 
L 341.289396 71.076843 
L 342.738853 69.914713 
L 351.366748 62.277134 
L 357.331605 57.102195 
L 367.97054 46.758479 
L 369.231622 45.827132 
L 370.505696 45.212728 
L 371.167092 44.792719 
L 371.789282 44.64 
L 372.423535 44.860805 
L 373.034531 44.848741 
L 373.294531 44.672361 
L 373.581818 45.820857 
L 373.426561 58.715189 
L 373.424879 58.688299 
L 373.425604 59.876782 
L 373.424212 59.863471 
L 373.42514 71.455736 
L 373.426474 71.421172 
L 372.907489 71.516605 
L 372.293883 73.068996 
L 371.667749 74.267064 
L 370.378596 74.235643 
L 369.731352 74.473627 
L 368.493236 75.081992 
L 367.884037 75.160847 
L 367.259064 75.508633 
L 366.615763 76.11073 
L 365.994733 77.604825 
L 365.373935 78.485265 
L 364.728083 79.649922 
L 364.108677 80.400822 
L 363.491359 80.229045 
L 362.248835 80.575047 
L 361.637549 81.013498 
L 361.027451 81.737414 
L 360.395982 81.864301 
L 359.776228 84.00262 
L 359.151022 84.896071 
L 356.647996 86.192004 
L 356.025574 86.839134 
L 354.786878 88.422157 
L 354.16724 88.999812 
L 352.930748 89.857641 
L 352.31575 90.354325 
L 350.432942 92.301524 
L 347.973645 94.231292 
L 346.746432 95.70745 
L 344.239839 97.566606 
L 343.609414 98.147671 
L 342.986992 98.904824 
L 342.354595 99.486647 
L 340.484314 100.873687 
L 339.244226 102.14723 
L 338.611945 102.726148 
L 337.371973 103.623136 
L 336.136409 104.621052 
L 334.2507 106.134221 
L 332.995417 107.218918 
L 331.74199 108.472882 
L 327.378629 111.953572 
L 325.522267 113.289516 
L 323.023881 115.624388 
L 321.179814 116.948332 
L 319.913164 118.008649 
L 316.163322 120.754561 
L 315.540117 121.289906 
L 314.923263 121.624524 
L 311.773094 124.026849 
L 308.033343 126.839141 
L 305.539712 128.846342 
L 303.68451 130.144075 
L 300.60372 132.2865 
L 299.987982 132.6354 
L 297.50943 134.543819 
L 295.008144 136.242424 
L 292.513353 138.142002 
L 291.898123 138.413523 
L 291.260622 138.844901 
L 290.01369 139.87086 
L 288.151761 141.044043 
L 287.530035 141.293648 
L 281.325217 145.694845 
L 280.714162 146.024031 
L 279.444728 146.955441 
L 278.217516 147.678867 
L 277.605997 148.167467 
L 276.359066 148.928093 
L 275.112366 149.831208 
L 273.243941 150.850345 
L 271.377604 152.214522 
L 264.574375 156.454568 
L 261.433963 158.570276 
L 260.194455 159.167005 
L 257.06054 161.208186 
L 255.833327 161.76645 
L 253.96583 162.960713 
L 252.075134 164.135033 
L 249.567816 165.609675 
L 248.314853 166.371506 
L 241.479464 170.351359 
L 240.223833 171.266284 
L 237.77789 172.408428 
L 235.232062 173.940293 
L 234.599665 174.206572 
L 233.33951 174.954693 
L 229.557886 177.071002 
L 228.33021 177.621751 
L 225.833215 179.360967 
L 223.948594 180.060637 
L 219.58387 182.873624 
L 217.106826 183.92772 
L 215.234457 185.031491 
L 209.02123 188.471937 
L 207.793089 189.25448 
L 206.537342 189.75388 
L 205.294354 190.44219 
L 204.066446 191.092856 
L 202.801883 191.553082 
L 202.184565 191.901911 
L 200.925571 192.83452 
L 199.035107 193.811088 
L 197.806502 194.278009 
L 197.194984 194.65507 
L 195.954316 195.167039 
L 193.468399 196.523964 
L 191.607629 197.32367 
L 188.466058 198.817685 
L 187.201495 199.290242 
L 185.976486 200.121228 
L 182.227573 201.792422 
L 179.075098 203.402856 
L 172.23217 206.745356 
L 170.987558 207.468088 
L 168.512255 208.334696 
L 163.457832 210.728652 
L 162.831402 211.109739 
L 160.929106 211.813681 
L 159.051401 212.825997 
L 155.980818 214.080972 
L 154.762189 214.81305 
L 154.145567 214.991144 
L 152.921834 215.550136 
L 149.773535 216.685644 
L 148.513265 217.195639 
L 146.669191 218.31252 
L 145.41646 218.843121 
L 144.161177 219.060836 
L 143.550354 219.282903 
L 142.302147 220.161322 
L 141.665342 220.502887 
L 141.042456 220.692144 
L 139.796221 220.871838 
L 139.167187 221.152518 
L 137.921068 221.990894 
L 137.304214 222.274858 
L 134.79156 222.991802 
L 133.542192 223.733607 
L 129.780545 225.29006 
L 129.145827 225.436653 
L 127.895184 225.953927 
L 125.407121 227.035908 
L 124.777044 227.468801 
L 121.693701 228.698233 
L 120.467649 229.221855 
L 116.791796 230.542592 
L 116.156383 230.603235 
L 112.420112 232.138288 
L 111.150446 232.57535 
L 109.259634 233.460654 
L 108.035901 233.863468 
L 105.555958 234.716449 
L 103.679413 235.613405 
L 101.201706 236.29339 
L 100.587636 236.3987 
L 96.245996 238.230713 
L 89.366066 240.527435 
L 87.503905 241.405728 
L 86.879875 241.458216 
L 85.625984 241.853822 
L 84.372672 242.428698 
L 83.76185 242.721251 
L 82.494271 242.961481 
L 81.236901 243.219826 
L 79.972454 243.669268 
L 79.34574 243.999338 
L 77.507938 244.449269 
L 76.272373 244.707809 
L 73.754964 245.69903 
L 71.87403 246.032151 
L 70.631506 245.957507 
L 69.489404 246.152015 
L 69.365726 246.24 
L 69.218265 245.082668 
L 69.218265 245.082668 
" clip-path="url(#p83d35fa6ba)" style="fill: none; stroke: #000000; stroke-width: 1.5; stroke-linecap: square"/>
   </g>
   <g id="patch_3">
    <path d="M 54 256.32 
L 54 34.56 
" style="fill: none; stroke: #000000; stroke-width: 0.8; stroke-linejoin: miter; stroke-linecap: square"/>
   </g>
   <g id="patch_4">
    <path d="M 388.8 256.32 
L 388.8 34.56 
" style="fill: none; stroke: #000000; stroke-width: 0.8; stroke-linejoin: miter; stroke-linecap: square"/>
   </g>
   <g id="patch_5">
    <path d="M 54 256.32 
L 388.8 256.32 
" style="fill: none; stroke: #000000; stroke-width: 0.8; stroke-linejoin: miter; stroke-linecap: square"/>
   </g>
   <g id="patch_6">
    <path d="M 54 34.56 
L 388.8 34.56 
" style="fill: none; stroke: #000000; stroke-width: 0.8; stroke-linejoin: miter; stroke-linecap: square"/>
   </g>
   <g id="text_18">
    <!-- 2025-07-03 trial 22 -->
    <g transform="translate(163.2525 28.56) scale(0.12 -0.12)">
     <defs>
      <path id="DejaVuSans-2d" d="M 313 2009 
L 1997 2009 
L 1997 1497 
L 313 1497 
L 313 2009 
z
" transform="scale(0.015625)"/>
      <path id="DejaVuSans-33" d="M 2597 2516 
Q 3050 2419 3304 2112 
Q 3559 1806 3559 1356 
Q 3559 666 3084 287 
Q 2609 -91 1734 -91 
Q 1441 -91 1130 -33 
Q 819 25 488 141 
L 488 750 
Q 750 597 1062 519 
Q 1375 441 1716 441 
Q 2309 441 2620 675 
Q 2931 909 2931 1356 
Q 2931 1769 2642 2001 
Q 2353 2234 1838 2234 
L 1294 2234 
L 1294 2753 
L 1863 2753 
Q 2328 2753 2575 2939 
Q 2822 3125 2822 3475 
Q 2822 3834 2567 4026 
Q 2313 4219 1838 4219 
Q 1578 4219 1281 4162 
Q 984 4106 628 3988 
L 628 4550 
Q 988 4650 1302 4700 
Q 1616 4750 1894 4750 
Q 2613 4750 3031 4423 
Q 3450 4097 3450 3541 
Q 3450 3153 3228 2886 
Q 3006 2619 2597 2516 
z
" transform="scale(0.015625)"/>
      <path id="DejaVuSans-6c" d="M 603 4863 
L 1178 4863 
L 1178 0 
L 603 0 
L 603 4863 
z
" transform="scale(0.015625)"/>
     </defs>
     <use xlink:href="#DejaVuSans-32"/>
     <use xlink:href="#DejaVuSans-30" x="63.623047"/>
     <use xlink:href="#DejaVuSans-32" x="127.246094"/>
     <use xlink:href="#DejaVuSans-35" x="190.869141"/>
     <use xlink:href="#DejaVuSans-2d" x="254.492188"/>
     <use xlink:href="#DejaVuSans-30" x="290.576172"/>
     <use xlink:href="#DejaVuSans-37" x="354.199219"/>
     <use xlink:href="#DejaVuSans-2d" x="417.822266"/>
     <use xlink:href="#DejaVuSans-30" x="453.90625"/>
     <use xlink:href="#DejaVuSans-33" x="517.529297"/>
     <use xlink:href="#DejaVuSans-20" x="581.152344"/>
     <use xlink:href="#DejaVuSans-74" x="612.939453"/>
     <use xlink:href="#DejaVuSans-72" x="652.148438"/>
     <use xlink:href="#DejaVuSans-69" x="693.261719"/>
     <use xlink:href="#DejaVuSans-61" x="721.044922"/>
     <use xlink:href="#DejaVuSans-6c" x="782.324219"/>
     <use xlink:href="#DejaVuSans-20" x="810.107422"/>
     <use xlink:href="#DejaVuSans-32" x="841.894531"/>
     <use xlink:href="#DejaVuSans-32" x="905.517578"/>
    </g>
   </g>
  </g>
 </g>
 <defs>
  <clipPath id="p83d35fa6ba">
   <rect x="54" y="34.56" width="334.8" height="221.76"/>
  </clipPath>
 </defs>
</svg>
