<?xml version="1.0" encoding="utf-8" standalone="no"?>
<!DOCTYPE svg PUBLIC "-//W3C//DTD SVG 1.1//EN"
  "http://www.w3.org/Graphics/SVG/1.1/DTD/svg11.dtd">
<svg xmlns:xlink="http://www.w3.org/1999/xlink" width="460.8pt" height="345.6pt" viewBox="0 0 460.8 345.6" xmlns="http://www.w3.org/2000/svg" version="1.1">
 <metadata>
  <rdf:RDF xmlns:dc="http://purl.org/dc/elements/1.1/" xmlns:cc="http://creativecommons.org/ns#" xmlns:rdf="http://www.w3.org/1999/02/22-rdf-syntax-ns#">
   <cc:Work>
    <dc:type rdf:resource="http://purl.org/dc/dcmitype/StillImage"/>
    <dc:date>2025-07-16T22:11:24.931126</dc:date>
    <dc:format>image/svg+xml</dc:format>
    <dc:creator>
     <cc:Agent>
      <dc:title>Matplotlib v3.10.3, https://matplotlib.org/</dc:title>
     </cc:Agent>
    </dc:creator>
   </cc:Work>
  </rdf:RDF>
 </metadata>
 <defs>
  <style type="text/css">*{stroke-linejoin: round; stroke-linecap: butt}</style>
 </defs>
 <g id="figure_1">
  <g id="patch_1">
   <path d="M 0 345.6 
L 460.8 345.6 
L 460.8 0 
L 0 0 
z
" style="fill: #ffffff"/>
  </g>
  <g id="axes_1">
   <g id="patch_2">
    <path d="M 57.6 307.584 
L 414.72 307.584 
L 414.72 41.472 
L 57.6 41.472 
z
" style="fill: #ffffff"/>
   </g>
   <g id="matplotlib.axis_1">
    <g id="xtick_1">
     <g id="line2d_1">
      <defs>
       <path id="m0acd3e52b7" d="M 0 0 
L 0 3.5 
" style="stroke: #000000; stroke-width: 0.8"/>
      </defs>
      <g>
       <use xlink:href="#m0acd3e52b7" x="128.007522" y="307.584" style="stroke: #000000; stroke-width: 0.8"/>
      </g>
     </g>
     <g id="text_1">
      <!-- 0.00 -->
      <g transform="translate(116.87471 322.182437) scale(0.1 -0.1)">
       <defs>
        <path id="DejaVuSans-30" d="M 2034 4250 
Q 1547 4250 1301 3770 
Q 1056 3291 1056 2328 
Q 1056 1369 1301 889 
Q 1547 409 2034 409 
Q 2525 409 2770 889 
Q 3016 1369 3016 2328 
Q 3016 3291 2770 3770 
Q 2525 4250 2034 4250 
z
M 2034 4750 
Q 2819 4750 3233 4129 
Q 3647 3509 3647 2328 
Q 3647 1150 3233 529 
Q 2819 -91 2034 -91 
Q 1250 -91 836 529 
Q 422 1150 422 2328 
Q 422 3509 836 4129 
Q 1250 4750 2034 4750 
z
" transform="scale(0.015625)"/>
        <path id="DejaVuSans-2e" d="M 684 794 
L 1344 794 
L 1344 0 
L 684 0 
L 684 794 
z
" transform="scale(0.015625)"/>
       </defs>
       <use xlink:href="#DejaVuSans-30"/>
       <use xlink:href="#DejaVuSans-2e" transform="translate(63.623047 0)"/>
       <use xlink:href="#DejaVuSans-30" transform="translate(95.410156 0)"/>
       <use xlink:href="#DejaVuSans-30" transform="translate(159.033203 0)"/>
      </g>
     </g>
    </g>
    <g id="xtick_2">
     <g id="line2d_2">
      <g>
       <use xlink:href="#m0acd3e52b7" x="200.983522" y="307.584" style="stroke: #000000; stroke-width: 0.8"/>
      </g>
     </g>
     <g id="text_2">
      <!-- 0.05 -->
      <g transform="translate(189.85071 322.182437) scale(0.1 -0.1)">
       <defs>
        <path id="DejaVuSans-35" d="M 691 4666 
L 3169 4666 
L 3169 4134 
L 1269 4134 
L 1269 2991 
Q 1406 3038 1543 3061 
Q 1681 3084 1819 3084 
Q 2600 3084 3056 2656 
Q 3513 2228 3513 1497 
Q 3513 744 3044 326 
Q 2575 -91 1722 -91 
Q 1428 -91 1123 -41 
Q 819 9 494 109 
L 494 744 
Q 775 591 1075 516 
Q 1375 441 1709 441 
Q 2250 441 2565 725 
Q 2881 1009 2881 1497 
Q 2881 1984 2565 2268 
Q 2250 2553 1709 2553 
Q 1456 2553 1204 2497 
Q 953 2441 691 2322 
L 691 4666 
z
" transform="scale(0.015625)"/>
       </defs>
       <use xlink:href="#DejaVuSans-30"/>
       <use xlink:href="#DejaVuSans-2e" transform="translate(63.623047 0)"/>
       <use xlink:href="#DejaVuSans-30" transform="translate(95.410156 0)"/>
       <use xlink:href="#DejaVuSans-35" transform="translate(159.033203 0)"/>
      </g>
     </g>
    </g>
    <g id="xtick_3">
     <g id="line2d_3">
      <g>
       <use xlink:href="#m0acd3e52b7" x="273.959522" y="307.584" style="stroke: #000000; stroke-width: 0.8"/>
      </g>
     </g>
     <g id="text_3">
      <!-- 0.10 -->
      <g transform="translate(262.82671 322.182437) scale(0.1 -0.1)">
       <defs>
        <path id="DejaVuSans-31" d="M 794 531 
L 1825 531 
L 1825 4091 
L 703 3866 
L 703 4441 
L 1819 4666 
L 2450 4666 
L 2450 531 
L 3481 531 
L 3481 0 
L 794 0 
L 794 531 
z
" transform="scale(0.015625)"/>
       </defs>
       <use xlink:href="#DejaVuSans-30"/>
       <use xlink:href="#DejaVuSans-2e" transform="translate(63.623047 0)"/>
       <use xlink:href="#DejaVuSans-31" transform="translate(95.410156 0)"/>
       <use xlink:href="#DejaVuSans-30" transform="translate(159.033203 0)"/>
      </g>
     </g>
    </g>
    <g id="xtick_4">
     <g id="line2d_4">
      <g>
       <use xlink:href="#m0acd3e52b7" x="346.935522" y="307.584" style="stroke: #000000; stroke-width: 0.8"/>
      </g>
     </g>
     <g id="text_4">
      <!-- 0.15 -->
      <g transform="translate(335.802709 322.182437) scale(0.1 -0.1)">
       <use xlink:href="#DejaVuSans-30"/>
       <use xlink:href="#DejaVuSans-2e" transform="translate(63.623047 0)"/>
       <use xlink:href="#DejaVuSans-31" transform="translate(95.410156 0)"/>
       <use xlink:href="#DejaVuSans-35" transform="translate(159.033203 0)"/>
      </g>
     </g>
    </g>
    <g id="text_5">
     <!-- Strain -->
     <g transform="translate(221.348281 335.860562) scale(0.1 -0.1)">
      <defs>
       <path id="DejaVuSans-53" d="M 3425 4513 
L 3425 3897 
Q 3066 4069 2747 4153 
Q 2428 4238 2131 4238 
Q 1616 4238 1336 4038 
Q 1056 3838 1056 3469 
Q 1056 3159 1242 3001 
Q 1428 2844 1947 2747 
L 2328 2669 
Q 3034 2534 3370 2195 
Q 3706 1856 3706 1288 
Q 3706 609 3251 259 
Q 2797 -91 1919 -91 
Q 1588 -91 1214 -16 
Q 841 59 441 206 
L 441 856 
Q 825 641 1194 531 
Q 1563 422 1919 422 
Q 2459 422 2753 634 
Q 3047 847 3047 1241 
Q 3047 1584 2836 1778 
Q 2625 1972 2144 2069 
L 1759 2144 
Q 1053 2284 737 2584 
Q 422 2884 422 3419 
Q 422 4038 858 4394 
Q 1294 4750 2059 4750 
Q 2388 4750 2728 4690 
Q 3069 4631 3425 4513 
z
" transform="scale(0.015625)"/>
       <path id="DejaVuSans-74" d="M 1172 4494 
L 1172 3500 
L 2356 3500 
L 2356 3053 
L 1172 3053 
L 1172 1153 
Q 1172 725 1289 603 
Q 1406 481 1766 481 
L 2356 481 
L 2356 0 
L 1766 0 
Q 1100 0 847 248 
Q 594 497 594 1153 
L 594 3053 
L 172 3053 
L 172 3500 
L 594 3500 
L 594 4494 
L 1172 4494 
z
" transform="scale(0.015625)"/>
       <path id="DejaVuSans-72" d="M 2631 2963 
Q 2534 3019 2420 3045 
Q 2306 3072 2169 3072 
Q 1681 3072 1420 2755 
Q 1159 2438 1159 1844 
L 1159 0 
L 581 0 
L 581 3500 
L 1159 3500 
L 1159 2956 
Q 1341 3275 1631 3429 
Q 1922 3584 2338 3584 
Q 2397 3584 2469 3576 
Q 2541 3569 2628 3553 
L 2631 2963 
z
" transform="scale(0.015625)"/>
       <path id="DejaVuSans-61" d="M 2194 1759 
Q 1497 1759 1228 1600 
Q 959 1441 959 1056 
Q 959 750 1161 570 
Q 1363 391 1709 391 
Q 2188 391 2477 730 
Q 2766 1069 2766 1631 
L 2766 1759 
L 2194 1759 
z
M 3341 1997 
L 3341 0 
L 2766 0 
L 2766 531 
Q 2569 213 2275 61 
Q 1981 -91 1556 -91 
Q 1019 -91 701 211 
Q 384 513 384 1019 
Q 384 1609 779 1909 
Q 1175 2209 1959 2209 
L 2766 2209 
L 2766 2266 
Q 2766 2663 2505 2880 
Q 2244 3097 1772 3097 
Q 1472 3097 1187 3025 
Q 903 2953 641 2809 
L 641 3341 
Q 956 3463 1253 3523 
Q 1550 3584 1831 3584 
Q 2591 3584 2966 3190 
Q 3341 2797 3341 1997 
z
" transform="scale(0.015625)"/>
       <path id="DejaVuSans-69" d="M 603 3500 
L 1178 3500 
L 1178 0 
L 603 0 
L 603 3500 
z
M 603 4863 
L 1178 4863 
L 1178 4134 
L 603 4134 
L 603 4863 
z
" transform="scale(0.015625)"/>
       <path id="DejaVuSans-6e" d="M 3513 2113 
L 3513 0 
L 2938 0 
L 2938 2094 
Q 2938 2591 2744 2837 
Q 2550 3084 2163 3084 
Q 1697 3084 1428 2787 
Q 1159 2491 1159 1978 
L 1159 0 
L 581 0 
L 581 3500 
L 1159 3500 
L 1159 2956 
Q 1366 3272 1645 3428 
Q 1925 3584 2291 3584 
Q 2894 3584 3203 3211 
Q 3513 2838 3513 2113 
z
" transform="scale(0.015625)"/>
      </defs>
      <use xlink:href="#DejaVuSans-53"/>
      <use xlink:href="#DejaVuSans-74" transform="translate(63.476562 0)"/>
      <use xlink:href="#DejaVuSans-72" transform="translate(102.685547 0)"/>
      <use xlink:href="#DejaVuSans-61" transform="translate(143.798828 0)"/>
      <use xlink:href="#DejaVuSans-69" transform="translate(205.078125 0)"/>
      <use xlink:href="#DejaVuSans-6e" transform="translate(232.861328 0)"/>
     </g>
    </g>
   </g>
   <g id="matplotlib.axis_2">
    <g id="ytick_1">
     <g id="line2d_5">
      <defs>
       <path id="ma29ad8fbc6" d="M 0 0 
L -3.5 0 
" style="stroke: #000000; stroke-width: 0.8"/>
      </defs>
      <g>
       <use xlink:href="#ma29ad8fbc6" x="57.6" y="282.225815" style="stroke: #000000; stroke-width: 0.8"/>
      </g>
     </g>
     <g id="text_6">
      <!-- −200 -->
      <g transform="translate(23.132812 286.025034) scale(0.1 -0.1)">
       <defs>
        <path id="DejaVuSans-2212" d="M 678 2272 
L 4684 2272 
L 4684 1741 
L 678 1741 
L 678 2272 
z
" transform="scale(0.015625)"/>
        <path id="DejaVuSans-32" d="M 1228 531 
L 3431 531 
L 3431 0 
L 469 0 
L 469 531 
Q 828 903 1448 1529 
Q 2069 2156 2228 2338 
Q 2531 2678 2651 2914 
Q 2772 3150 2772 3378 
Q 2772 3750 2511 3984 
Q 2250 4219 1831 4219 
Q 1534 4219 1204 4116 
Q 875 4013 500 3803 
L 500 4441 
Q 881 4594 1212 4672 
Q 1544 4750 1819 4750 
Q 2544 4750 2975 4387 
Q 3406 4025 3406 3419 
Q 3406 3131 3298 2873 
Q 3191 2616 2906 2266 
Q 2828 2175 2409 1742 
Q 1991 1309 1228 531 
z
" transform="scale(0.015625)"/>
       </defs>
       <use xlink:href="#DejaVuSans-2212"/>
       <use xlink:href="#DejaVuSans-32" transform="translate(83.789062 0)"/>
       <use xlink:href="#DejaVuSans-30" transform="translate(147.412109 0)"/>
       <use xlink:href="#DejaVuSans-30" transform="translate(211.035156 0)"/>
      </g>
     </g>
    </g>
    <g id="ytick_2">
     <g id="line2d_6">
      <g>
       <use xlink:href="#ma29ad8fbc6" x="57.6" y="244.561916" style="stroke: #000000; stroke-width: 0.8"/>
      </g>
     </g>
     <g id="text_7">
      <!-- 0 -->
      <g transform="translate(44.2375 248.361134) scale(0.1 -0.1)">
       <use xlink:href="#DejaVuSans-30"/>
      </g>
     </g>
    </g>
    <g id="ytick_3">
     <g id="line2d_7">
      <g>
       <use xlink:href="#ma29ad8fbc6" x="57.6" y="206.898016" style="stroke: #000000; stroke-width: 0.8"/>
      </g>
     </g>
     <g id="text_8">
      <!-- 200 -->
      <g transform="translate(31.5125 210.697235) scale(0.1 -0.1)">
       <use xlink:href="#DejaVuSans-32"/>
       <use xlink:href="#DejaVuSans-30" transform="translate(63.623047 0)"/>
       <use xlink:href="#DejaVuSans-30" transform="translate(127.246094 0)"/>
      </g>
     </g>
    </g>
    <g id="ytick_4">
     <g id="line2d_8">
      <g>
       <use xlink:href="#ma29ad8fbc6" x="57.6" y="169.234117" style="stroke: #000000; stroke-width: 0.8"/>
      </g>
     </g>
     <g id="text_9">
      <!-- 400 -->
      <g transform="translate(31.5125 173.033335) scale(0.1 -0.1)">
       <defs>
        <path id="DejaVuSans-34" d="M 2419 4116 
L 825 1625 
L 2419 1625 
L 2419 4116 
z
M 2253 4666 
L 3047 4666 
L 3047 1625 
L 3713 1625 
L 3713 1100 
L 3047 1100 
L 3047 0 
L 2419 0 
L 2419 1100 
L 313 1100 
L 313 1709 
L 2253 4666 
z
" transform="scale(0.015625)"/>
       </defs>
       <use xlink:href="#DejaVuSans-34"/>
       <use xlink:href="#DejaVuSans-30" transform="translate(63.623047 0)"/>
       <use xlink:href="#DejaVuSans-30" transform="translate(127.246094 0)"/>
      </g>
     </g>
    </g>
    <g id="ytick_5">
     <g id="line2d_9">
      <g>
       <use xlink:href="#ma29ad8fbc6" x="57.6" y="131.570217" style="stroke: #000000; stroke-width: 0.8"/>
      </g>
     </g>
     <g id="text_10">
      <!-- 600 -->
      <g transform="translate(31.5125 135.369436) scale(0.1 -0.1)">
       <defs>
        <path id="DejaVuSans-36" d="M 2113 2584 
Q 1688 2584 1439 2293 
Q 1191 2003 1191 1497 
Q 1191 994 1439 701 
Q 1688 409 2113 409 
Q 2538 409 2786 701 
Q 3034 994 3034 1497 
Q 3034 2003 2786 2293 
Q 2538 2584 2113 2584 
z
M 3366 4563 
L 3366 3988 
Q 3128 4100 2886 4159 
Q 2644 4219 2406 4219 
Q 1781 4219 1451 3797 
Q 1122 3375 1075 2522 
Q 1259 2794 1537 2939 
Q 1816 3084 2150 3084 
Q 2853 3084 3261 2657 
Q 3669 2231 3669 1497 
Q 3669 778 3244 343 
Q 2819 -91 2113 -91 
Q 1303 -91 875 529 
Q 447 1150 447 2328 
Q 447 3434 972 4092 
Q 1497 4750 2381 4750 
Q 2619 4750 2861 4703 
Q 3103 4656 3366 4563 
z
" transform="scale(0.015625)"/>
       </defs>
       <use xlink:href="#DejaVuSans-36"/>
       <use xlink:href="#DejaVuSans-30" transform="translate(63.623047 0)"/>
       <use xlink:href="#DejaVuSans-30" transform="translate(127.246094 0)"/>
      </g>
     </g>
    </g>
    <g id="ytick_6">
     <g id="line2d_10">
      <g>
       <use xlink:href="#ma29ad8fbc6" x="57.6" y="93.906318" style="stroke: #000000; stroke-width: 0.8"/>
      </g>
     </g>
     <g id="text_11">
      <!-- 800 -->
      <g transform="translate(31.5125 97.705536) scale(0.1 -0.1)">
       <defs>
        <path id="DejaVuSans-38" d="M 2034 2216 
Q 1584 2216 1326 1975 
Q 1069 1734 1069 1313 
Q 1069 891 1326 650 
Q 1584 409 2034 409 
Q 2484 409 2743 651 
Q 3003 894 3003 1313 
Q 3003 1734 2745 1975 
Q 2488 2216 2034 2216 
z
M 1403 2484 
Q 997 2584 770 2862 
Q 544 3141 544 3541 
Q 544 4100 942 4425 
Q 1341 4750 2034 4750 
Q 2731 4750 3128 4425 
Q 3525 4100 3525 3541 
Q 3525 3141 3298 2862 
Q 3072 2584 2669 2484 
Q 3125 2378 3379 2068 
Q 3634 1759 3634 1313 
Q 3634 634 3220 271 
Q 2806 -91 2034 -91 
Q 1263 -91 848 271 
Q 434 634 434 1313 
Q 434 1759 690 2068 
Q 947 2378 1403 2484 
z
M 1172 3481 
Q 1172 3119 1398 2916 
Q 1625 2713 2034 2713 
Q 2441 2713 2670 2916 
Q 2900 3119 2900 3481 
Q 2900 3844 2670 4047 
Q 2441 4250 2034 4250 
Q 1625 4250 1398 4047 
Q 1172 3844 1172 3481 
z
" transform="scale(0.015625)"/>
       </defs>
       <use xlink:href="#DejaVuSans-38"/>
       <use xlink:href="#DejaVuSans-30" transform="translate(63.623047 0)"/>
       <use xlink:href="#DejaVuSans-30" transform="translate(127.246094 0)"/>
      </g>
     </g>
    </g>
    <g id="ytick_7">
     <g id="line2d_11">
      <g>
       <use xlink:href="#ma29ad8fbc6" x="57.6" y="56.242418" style="stroke: #000000; stroke-width: 0.8"/>
      </g>
     </g>
     <g id="text_12">
      <!-- 1000 -->
      <g transform="translate(25.15 60.041637) scale(0.1 -0.1)">
       <use xlink:href="#DejaVuSans-31"/>
       <use xlink:href="#DejaVuSans-30" transform="translate(63.623047 0)"/>
       <use xlink:href="#DejaVuSans-30" transform="translate(127.246094 0)"/>
       <use xlink:href="#DejaVuSans-30" transform="translate(190.869141 0)"/>
      </g>
     </g>
    </g>
    <g id="text_13">
     <!-- Stress [Pa] -->
     <g transform="translate(17.053125 201.235813) rotate(-90) scale(0.1 -0.1)">
      <defs>
       <path id="DejaVuSans-65" d="M 3597 1894 
L 3597 1613 
L 953 1613 
Q 991 1019 1311 708 
Q 1631 397 2203 397 
Q 2534 397 2845 478 
Q 3156 559 3463 722 
L 3463 178 
Q 3153 47 2828 -22 
Q 2503 -91 2169 -91 
Q 1331 -91 842 396 
Q 353 884 353 1716 
Q 353 2575 817 3079 
Q 1281 3584 2069 3584 
Q 2775 3584 3186 3129 
Q 3597 2675 3597 1894 
z
M 3022 2063 
Q 3016 2534 2758 2815 
Q 2500 3097 2075 3097 
Q 1594 3097 1305 2825 
Q 1016 2553 972 2059 
L 3022 2063 
z
" transform="scale(0.015625)"/>
       <path id="DejaVuSans-73" d="M 2834 3397 
L 2834 2853 
Q 2591 2978 2328 3040 
Q 2066 3103 1784 3103 
Q 1356 3103 1142 2972 
Q 928 2841 928 2578 
Q 928 2378 1081 2264 
Q 1234 2150 1697 2047 
L 1894 2003 
Q 2506 1872 2764 1633 
Q 3022 1394 3022 966 
Q 3022 478 2636 193 
Q 2250 -91 1575 -91 
Q 1294 -91 989 -36 
Q 684 19 347 128 
L 347 722 
Q 666 556 975 473 
Q 1284 391 1588 391 
Q 1994 391 2212 530 
Q 2431 669 2431 922 
Q 2431 1156 2273 1281 
Q 2116 1406 1581 1522 
L 1381 1569 
Q 847 1681 609 1914 
Q 372 2147 372 2553 
Q 372 3047 722 3315 
Q 1072 3584 1716 3584 
Q 2034 3584 2315 3537 
Q 2597 3491 2834 3397 
z
" transform="scale(0.015625)"/>
       <path id="DejaVuSans-20" transform="scale(0.015625)"/>
       <path id="DejaVuSans-5b" d="M 550 4863 
L 1875 4863 
L 1875 4416 
L 1125 4416 
L 1125 -397 
L 1875 -397 
L 1875 -844 
L 550 -844 
L 550 4863 
z
" transform="scale(0.015625)"/>
       <path id="DejaVuSans-50" d="M 1259 4147 
L 1259 2394 
L 2053 2394 
Q 2494 2394 2734 2622 
Q 2975 2850 2975 3272 
Q 2975 3691 2734 3919 
Q 2494 4147 2053 4147 
L 1259 4147 
z
M 628 4666 
L 2053 4666 
Q 2838 4666 3239 4311 
Q 3641 3956 3641 3272 
Q 3641 2581 3239 2228 
Q 2838 1875 2053 1875 
L 1259 1875 
L 1259 0 
L 628 0 
L 628 4666 
z
" transform="scale(0.015625)"/>
       <path id="DejaVuSans-5d" d="M 1947 4863 
L 1947 -844 
L 622 -844 
L 622 -397 
L 1369 -397 
L 1369 4416 
L 622 4416 
L 622 4863 
L 1947 4863 
z
" transform="scale(0.015625)"/>
      </defs>
      <use xlink:href="#DejaVuSans-53"/>
      <use xlink:href="#DejaVuSans-74" transform="translate(63.476562 0)"/>
      <use xlink:href="#DejaVuSans-72" transform="translate(102.685547 0)"/>
      <use xlink:href="#DejaVuSans-65" transform="translate(141.548828 0)"/>
      <use xlink:href="#DejaVuSans-73" transform="translate(203.072266 0)"/>
      <use xlink:href="#DejaVuSans-73" transform="translate(255.171875 0)"/>
      <use xlink:href="#DejaVuSans-20" transform="translate(307.271484 0)"/>
      <use xlink:href="#DejaVuSans-5b" transform="translate(339.058594 0)"/>
      <use xlink:href="#DejaVuSans-50" transform="translate(378.072266 0)"/>
      <use xlink:href="#DejaVuSans-61" transform="translate(433.875 0)"/>
      <use xlink:href="#DejaVuSans-5d" transform="translate(495.154297 0)"/>
     </g>
    </g>
   </g>
   <g id="line2d_12">
    <path d="M 128.007522 246.257534 
L 128.008075 245.725265 
L 128.009955 245.923784 
L 128.553106 245.722133 
L 129.108603 243.848361 
L 129.66949 243.046925 
L 130.246049 241.60124 
L 130.788789 242.554145 
L 131.928297 245.502317 
L 133.63529 247.309709 
L 134.193702 248.194563 
L 134.770055 248.169501 
L 135.31692 249.371426 
L 135.864713 246.154158 
L 136.423847 244.762598 
L 136.970711 245.031271 
L 137.537578 245.580806 
L 138.086299 245.897466 
L 138.653166 246.480661 
L 139.205392 246.224209 
L 140.28778 245.498463 
L 141.387077 245.756046 
L 141.944664 245.997474 
L 142.487817 245.932178 
L 143.043342 245.67113 
L 143.598867 245.54287 
L 144.16491 245.796729 
L 145.257166 245.939171 
L 146.384095 245.774518 
L 147.492466 245.17064 
L 148.595474 245.136524 
L 150.286589 244.445174 
L 152.496937 244.088513 
L 153.062979 243.850778 
L 154.188877 243.112089 
L 155.816482 242.349378 
L 157.467386 241.863091 
L 158.566197 241.346129 
L 159.689723 240.619948 
L 162.448379 239.310937 
L 162.992976 239.194117 
L 164.669347 238.261997 
L 166.332933 237.208752 
L 167.979714 236.358976 
L 169.645878 235.25396 
L 171.312041 234.427554 
L 172.408812 233.656699 
L 174.054149 232.398933 
L 175.147879 231.937001 
L 175.6933 231.602643 
L 177.363794 230.067045 
L 180.117501 228.581663 
L 180.674883 228.024536 
L 183.450654 226.195238 
L 184.006489 225.716315 
L 186.811084 224.057926 
L 188.488383 222.633415 
L 189.58933 222.133593 
L 190.714094 221.325937 
L 191.268485 220.882779 
L 191.823289 220.176286 
L 192.92073 219.401924 
L 193.482854 219.269594 
L 194.596895 218.611259 
L 196.262234 216.779353 
L 196.813017 216.484509 
L 197.375759 216.353459 
L 199.030504 215.452104 
L 200.121347 214.434257 
L 200.683471 214.133833 
L 204.015696 211.571836 
L 205.670312 210.715199 
L 215.096813 203.890896 
L 215.654092 203.249436 
L 217.329123 201.973926 
L 218.422852 201.398734 
L 222.304725 198.563845 
L 223.39 197.581395 
L 224.476306 196.877715 
L 226.15568 195.612644 
L 226.710071 195.10436 
L 227.273433 194.799866 
L 227.818441 194.338688 
L 228.370049 194.122505 
L 229.464191 193.376865 
L 231.702171 191.642738 
L 233.375139 190.205513 
L 233.940975 189.956591 
L 239.443434 186.103917 
L 242.791124 183.354778 
L 243.905474 182.703394 
L 245.008896 181.851652 
L 246.651964 180.844575 
L 247.201716 180.480627 
L 247.752086 179.970605 
L 248.844784 179.255652 
L 249.411033 178.722032 
L 249.975013 178.360828 
L 250.533425 178.15489 
L 254.474184 175.182228 
L 255.598844 174.256945 
L 256.729279 173.498774 
L 257.837237 172.630475 
L 260.010879 171.172808 
L 262.181429 169.380874 
L 263.275983 168.465104 
L 266.012369 166.595925 
L 268.248454 164.73375 
L 269.906576 163.542207 
L 270.455503 163.257149 
L 271.540984 162.365618 
L 272.649148 161.607035 
L 275.418114 159.404321 
L 276.51638 158.790622 
L 280.430976 155.643297 
L 282.107863 154.645047 
L 284.31254 152.412972 
L 286.517526 150.867771 
L 287.072846 150.412904 
L 287.623422 149.79733 
L 291.520864 146.85144 
L 293.738751 145.049284 
L 295.39543 144.135892 
L 296.50679 143.001333 
L 297.621553 141.727926 
L 298.166768 141.241275 
L 298.721468 141.078966 
L 299.829014 140.418024 
L 300.935734 139.35609 
L 301.499714 138.671549 
L 302.588082 137.972373 
L 307.563092 133.874665 
L 308.674349 133.222687 
L 309.780141 132.186912 
L 310.330512 131.805905 
L 311.42754 130.808363 
L 312.524982 130.135896 
L 313.069372 129.591575 
L 313.636445 129.223419 
L 315.870816 127.286007 
L 318.674425 124.92446 
L 319.222321 124.348948 
L 322.000954 122.317907 
L 323.124789 121.310579 
L 325.870661 119.210903 
L 328.090288 117.014135 
L 329.740368 115.515719 
L 330.30311 114.903986 
L 333.618735 112.426185 
L 335.284384 110.84969 
L 340.238334 106.805238 
L 341.362995 105.915536 
L 343.019467 104.356569 
L 345.807315 101.907992 
L 347.438835 100.560039 
L 348.001243 100.072279 
L 349.125285 98.852929 
L 350.23613 97.734194 
L 350.784026 97.287193 
L 351.33254 97.008859 
L 352.418433 95.973267 
L 353.528041 94.731142 
L 354.620327 93.687318 
L 356.257621 92.357293 
L 357.34104 91.20316 
L 358.43312 90.304311 
L 359.534067 89.491991 
L 362.275582 86.960361 
L 363.940921 85.409992 
L 364.499849 84.677157 
L 366.159208 83.356964 
L 367.257474 82.598381 
L 369.450191 80.131053 
L 370.016027 79.833281 
L 371.683015 78.475267 
L 373.351241 76.727603 
L 375.594402 74.785342 
L 376.726899 73.596726 
L 380.047267 70.231373 
L 380.608772 69.573906 
L 382.271843 68.222021 
L 383.384337 67.287683 
L 384.497141 65.907077 
L 388.956191 61.651141 
L 393.384929 57.071195 
L 394.487319 56.197866 
L 396.143688 54.514686 
L 397.79119 53.965242 
L 398.143704 53.568 
L 398.487273 53.710026 
L 398.284364 59.685419 
L 398.288771 70.653928 
L 398.282714 70.631004 
L 397.736313 70.95465 
L 396.625469 74.566782 
L 396.059143 74.361163 
L 395.487533 74.362227 
L 394.916955 74.508208 
L 393.813946 75.051889 
L 393.265432 75.06322 
L 392.701658 74.874935 
L 392.126955 75.553713 
L 391.554314 77.213294 
L 389.880108 80.397634 
L 389.328501 81.894404 
L 388.783286 82.150672 
L 388.206314 81.756723 
L 387.640891 81.951445 
L 386.509219 82.971807 
L 385.954519 82.926405 
L 385.409201 83.918482 
L 384.860171 86.573958 
L 384.299696 87.507107 
L 383.747779 87.972949 
L 382.085327 88.733408 
L 381.527946 89.194402 
L 380.965306 89.946995 
L 380.417823 90.923316 
L 377.665714 94.620775 
L 377.118643 95.548619 
L 375.998519 96.1266 
L 375.45083 96.580826 
L 374.909945 96.805298 
L 374.351223 97.401299 
L 373.801678 99.005817 
L 373.250483 99.716151 
L 372.147268 100.315079 
L 371.034155 100.969012 
L 370.481207 102.42078 
L 369.927022 103.086661 
L 368.264364 104.332079 
L 367.711003 104.772539 
L 367.160942 105.903074 
L 366.052366 107.134291 
L 364.389501 108.59077 
L 363.297525 110.282913 
L 362.185134 111.148605 
L 361.078207 112.317922 
L 359.39967 114.176627 
L 357.752272 115.739162 
L 357.196437 116.601332 
L 356.634725 117.219467 
L 354.426027 118.868164 
L 353.880296 119.810093 
L 352.757955 121.029774 
L 350.548432 123.017586 
L 348.875051 124.645245 
L 347.192803 126.229274 
L 346.626761 126.812469 
L 345.541074 127.657169 
L 344.976475 128.362381 
L 343.852021 129.327086 
L 342.745713 130.374569 
L 341.073981 132.139703 
L 339.963755 133.388048 
L 339.409299 133.658494 
L 338.859548 134.148849 
L 338.316601 134.856806 
L 337.212974 135.784649 
L 336.655077 136.447969 
L 331.634521 140.588027 
L 328.843902 142.989774 
L 327.746049 143.830266 
L 327.18444 144.21763 
L 326.07772 145.708179 
L 325.526305 146.156712 
L 323.874989 147.062969 
L 323.314514 147.564255 
L 322.773011 148.510392 
L 321.674023 149.397441 
L 320.568127 149.994676 
L 320.006828 150.557931 
L 319.450065 151.321591 
L 318.335303 152.209647 
L 317.24013 152.872098 
L 316.684708 153.668869 
L 315.568605 154.653788 
L 314.468689 155.117024 
L 313.917803 155.552225 
L 313.358566 156.349087 
L 312.272943 157.455515 
L 310.598737 158.654741 
L 310.057646 159.444652 
L 308.945358 160.200903 
L 307.276307 161.389337 
L 306.719339 162.080829 
L 306.174123 162.557922 
L 303.959755 163.883922 
L 303.398868 164.82951 
L 302.834269 165.434772 
L 302.269464 165.655431 
L 301.727961 165.680807 
L 301.170992 165.89045 
L 300.619178 166.296565 
L 300.07087 167.434783 
L 298.963737 168.290733 
L 297.302561 168.835243 
L 296.754459 170.055416 
L 296.212853 170.650136 
L 295.667225 170.980835 
L 294.542152 171.199579 
L 293.980544 171.566923 
L 293.416254 172.656664 
L 292.860213 173.248548 
L 291.745245 173.767487 
L 291.190131 173.889665 
L 290.633266 174.171704 
L 290.091144 175.010275 
L 288.96638 175.86275 
L 287.269491 176.849772 
L 286.721802 177.653403 
L 286.161018 178.159126 
L 285.058099 178.537343 
L 284.493501 178.947665 
L 282.836822 180.515596 
L 281.72639 180.954501 
L 281.179319 181.190395 
L 278.431077 183.609703 
L 277.335698 184.27938 
L 274.558689 186.612618 
L 272.922425 187.82744 
L 272.37288 187.943191 
L 271.826428 188.177851 
L 270.701574 189.111285 
L 269.042524 190.822271 
L 267.943227 191.185007 
L 267.382134 191.497459 
L 266.275207 192.470396 
L 265.731229 192.828719 
L 265.182303 193.026356 
L 264.6375 193.44267 
L 264.074963 193.731157 
L 262.964016 194.860228 
L 260.763256 195.974345 
L 259.658083 197.107167 
L 258.018313 197.929894 
L 255.804872 199.84037 
L 254.705369 200.268562 
L 252.506569 202.078196 
L 251.386032 202.496464 
L 250.276837 203.430893 
L 249.716569 203.642685 
L 248.597682 204.463055 
L 246.954201 205.684325 
L 245.857173 206.309801 
L 244.735811 207.165385 
L 244.175053 207.765273 
L 243.629013 208.155746 
L 241.965427 208.789183 
L 240.309677 210.432574 
L 239.765699 210.810425 
L 238.670114 211.106768 
L 237.006321 212.606693 
L 230.919552 216.194869 
L 229.276277 217.122027 
L 228.169969 218.107174 
L 226.48937 218.754511 
L 225.922297 219.105013 
L 224.819804 220.25128 
L 223.706588 220.783374 
L 222.602136 221.024051 
L 220.395912 222.832129 
L 219.845954 223.141517 
L 219.29146 223.29663 
L 217.620315 224.422061 
L 217.076131 224.804852 
L 215.968585 225.236737 
L 215.41739 225.560165 
L 213.777002 226.804165 
L 213.223539 227.115611 
L 212.670694 227.235433 
L 212.105065 227.499579 
L 211.558097 227.934505 
L 211.013707 228.583374 
L 209.907605 229.324167 
L 208.249895 229.956251 
L 206.587546 231.224879 
L 205.454019 231.80665 
L 204.891276 232.110413 
L 203.774857 232.92708 
L 202.107868 233.855049 
L 201.554611 233.960231 
L 199.927215 234.792834 
L 198.274248 235.960266 
L 197.72264 236.206004 
L 195.502395 237.679907 
L 194.386395 238.156817 
L 193.280808 238.753024 
L 191.613098 240.144377 
L 190.521224 240.729859 
L 189.402054 241.179244 
L 187.75249 242.176923 
L 185.547916 243.347154 
L 183.865461 244.495182 
L 181.642538 245.718831 
L 180.532518 246.588775 
L 179.976168 246.909139 
L 178.325263 247.581926 
L 177.212254 248.327384 
L 176.655597 248.744335 
L 175.53671 249.231124 
L 173.296462 250.466983 
L 172.169533 251.259592 
L 169.377884 252.769213 
L 168.292609 253.630194 
L 167.747394 253.779011 
L 165.509002 254.928342 
L 164.410117 255.407699 
L 163.315144 256.118573 
L 162.771785 256.359635 
L 161.665477 257.262051 
L 161.115932 257.518433 
L 160.569685 257.501803 
L 156.102902 260.24255 
L 155.539953 260.450409 
L 154.997006 260.83352 
L 153.340328 261.515614 
L 152.784287 261.976151 
L 152.229999 262.190081 
L 151.128846 262.828523 
L 150.038004 263.342157 
L 148.366876 264.502148 
L 146.155085 265.18214 
L 144.490364 266.369019 
L 143.398285 266.790505 
L 141.166697 268.265117 
L 140.057502 268.624832 
L 139.503627 269.038995 
L 137.260388 270.096105 
L 135.039924 271.366413 
L 133.928048 271.792765 
L 132.799057 272.626123 
L 131.108767 273.364092 
L 128.891408 274.436728 
L 128.329284 274.486897 
L 127.775511 274.858712 
L 126.673843 275.755822 
L 125.575164 276.194691 
L 123.364198 277.325783 
L 122.813465 277.682385 
L 121.14462 278.212392 
L 120.024599 278.849186 
L 118.388335 279.616985 
L 115.566064 281.049087 
L 114.481614 281.327022 
L 113.937018 281.623604 
L 112.840607 281.980941 
L 112.297248 282.237187 
L 111.736774 282.676046 
L 110.620568 283.257458 
L 110.079064 283.382068 
L 108.423549 284.039271 
L 107.864931 284.516547 
L 107.297858 284.80101 
L 106.747694 284.748188 
L 105.650459 284.968026 
L 105.086272 285.208631 
L 104.532809 285.830608 
L 103.966767 286.225723 
L 102.851798 286.409604 
L 101.753945 286.504435 
L 100.652586 287.605198 
L 99.022921 287.85797 
L 98.462858 288.069648 
L 97.348714 288.922397 
L 96.79855 289.120755 
L 95.13412 289.245825 
L 94.016883 290.361348 
L 92.902945 290.257038 
L 91.784264 290.367814 
L 91.219563 290.776392 
L 90.677338 291.430566 
L 89.576185 291.772787 
L 89.016123 291.93569 
L 88.462866 291.944683 
L 87.897648 292.136941 
L 87.335937 292.486346 
L 85.126414 293.153865 
L 83.998454 293.680025 
L 82.902044 293.556327 
L 81.788483 294.048014 
L 81.228524 294.609989 
L 80.113349 294.3989 
L 79.006525 294.356791 
L 78.45069 294.480603 
L 77.894237 295.488 
L 75.717295 294.470038 
L 75.15713 294.024284 
L 74.608512 294.203149 
L 73.936353 293.403073 
L 73.832908 245.850381 
L 73.832908 245.850381 
" clip-path="url(#pb1020543d0)" style="fill: none; stroke: #ff0000; stroke-width: 1.5; stroke-linecap: square"/>
   </g>
   <g id="line2d_13">
    <path d="M 128.007522 246.257534 
L 128.008075 245.725265 
L 128.009955 245.923784 
L 128.553106 245.722133 
L 129.108603 243.848361 
L 129.66949 243.046925 
L 130.246049 241.60124 
L 130.788789 245.967541 
L 131.928297 247.145845 
L 132.513516 247.251581 
L 133.085951 247.023279 
L 133.63529 247.312773 
L 134.193702 248.194563 
L 134.770055 248.169501 
L 135.31692 249.371426 
L 135.864713 246.154158 
L 136.423847 244.762598 
L 136.970711 245.031271 
L 137.537578 245.580806 
L 138.086299 245.897466 
L 138.653166 246.480661 
L 139.205392 246.224209 
L 140.28778 245.498463 
L 141.387077 245.756046 
L 141.944664 245.997474 
L 142.487817 245.932178 
L 143.043342 245.67113 
L 143.598867 245.54287 
L 144.16491 245.796729 
L 145.257166 245.939171 
L 146.384095 245.774518 
L 147.492466 245.17064 
L 148.595474 245.136524 
L 150.286589 244.445174 
L 152.496937 244.088513 
L 153.062979 243.850778 
L 154.188877 243.112089 
L 155.816482 242.349378 
L 157.467386 241.863091 
L 158.566197 241.346129 
L 159.689723 240.619948 
L 162.448379 239.310937 
L 162.992976 239.194117 
L 164.669347 238.261997 
L 166.332933 237.208752 
L 167.979714 236.358976 
L 169.645878 235.25396 
L 171.312041 234.427554 
L 172.408812 233.656699 
L 174.054149 232.398933 
L 175.147879 231.937001 
L 175.6933 231.602643 
L 177.363794 230.067045 
L 180.117501 228.581663 
L 180.674883 228.024536 
L 183.450654 226.195238 
L 184.006489 225.716315 
L 186.811084 224.057926 
L 188.488383 222.633415 
L 189.58933 222.133593 
L 190.714094 221.325937 
L 191.268485 220.882779 
L 191.823289 220.176286 
L 192.92073 219.401924 
L 193.482854 219.269594 
L 194.596895 218.611259 
L 196.262234 216.779353 
L 196.813017 216.484509 
L 197.375759 216.353459 
L 199.030504 215.452104 
L 200.121347 214.434257 
L 200.683471 214.133833 
L 204.015696 211.571836 
L 205.670312 210.715199 
L 215.096813 203.890896 
L 215.654092 203.249436 
L 217.329123 201.973926 
L 218.422852 201.398734 
L 222.304725 198.563845 
L 223.39 197.581395 
L 224.476306 196.877715 
L 226.15568 195.612644 
L 226.710071 195.10436 
L 227.273433 194.799866 
L 227.818441 194.338688 
L 228.370049 194.122505 
L 229.464191 193.376865 
L 231.702171 191.642738 
L 233.375139 190.205513 
L 233.940975 189.956591 
L 239.443434 186.103917 
L 242.791124 183.354778 
L 243.905474 182.703394 
L 245.008896 181.851652 
L 246.651964 180.844575 
L 247.201716 180.480627 
L 247.752086 179.970605 
L 248.844784 179.255652 
L 249.411033 178.722032 
L 249.975013 178.360828 
L 250.533425 178.15489 
L 254.474184 175.182228 
L 255.598844 174.256945 
L 256.729279 173.498774 
L 257.837237 172.630475 
L 260.010879 171.172808 
L 262.181429 169.380874 
L 263.275983 168.465104 
L 266.012369 166.595925 
L 268.248454 164.73375 
L 269.906576 163.542207 
L 270.455503 163.257149 
L 271.540984 162.365618 
L 272.649148 161.607035 
L 275.418114 159.404321 
L 276.51638 158.790622 
L 280.430976 155.643297 
L 282.107863 154.645047 
L 284.31254 152.412972 
L 286.517526 150.867771 
L 287.072846 150.412904 
L 287.623422 149.79733 
L 291.520864 146.85144 
L 293.738751 145.049284 
L 295.39543 144.135892 
L 296.50679 143.001333 
L 297.621553 141.727926 
L 298.166768 141.241275 
L 298.721468 141.078966 
L 299.829014 140.418024 
L 300.935734 139.35609 
L 301.499714 138.671549 
L 302.588082 137.972373 
L 307.563092 133.874665 
L 308.674349 133.222687 
L 309.780141 132.186912 
L 310.330512 131.805905 
L 311.42754 130.808363 
L 312.524982 130.135896 
L 313.069372 129.591575 
L 313.636445 129.223419 
L 315.870816 127.286007 
L 318.674425 124.92446 
L 319.222321 124.348948 
L 322.000954 122.317907 
L 323.124789 121.310579 
L 325.870661 119.210903 
L 328.090288 117.014135 
L 329.740368 115.515719 
L 330.30311 114.903986 
L 333.618735 112.426185 
L 335.284384 110.84969 
L 340.238334 106.805238 
L 341.362995 105.915536 
L 343.019467 104.356569 
L 345.807315 101.907992 
L 347.438835 100.560039 
L 348.001243 100.072279 
L 349.125285 98.852929 
L 350.23613 97.734194 
L 350.784026 97.287193 
L 351.33254 97.008859 
L 352.418433 95.973267 
L 353.528041 94.731142 
L 354.620327 93.687318 
L 356.257621 92.357293 
L 357.34104 91.20316 
L 358.43312 90.304311 
L 359.534067 89.491991 
L 362.275582 86.960361 
L 363.940921 85.409992 
L 364.499849 84.677157 
L 366.159208 83.356964 
L 367.257474 82.598381 
L 369.450191 80.131053 
L 370.016027 79.833281 
L 371.683015 78.475267 
L 373.351241 76.727603 
L 375.594402 74.785342 
L 376.726899 73.596726 
L 380.047267 70.231373 
L 380.608772 69.573906 
L 382.271843 68.222021 
L 383.384337 67.287683 
L 384.497141 65.907077 
L 388.956191 61.651141 
L 393.384929 57.071195 
L 394.487319 56.197866 
L 396.143688 54.514686 
L 397.79119 53.965242 
L 398.143704 53.568 
L 398.487273 53.710026 
L 398.284364 59.685419 
L 398.288771 70.653928 
L 398.282714 70.631004 
L 397.736313 70.95465 
L 396.625469 74.566782 
L 396.059143 74.361163 
L 395.487533 74.362227 
L 394.916955 74.508208 
L 393.813946 75.051889 
L 393.265432 75.06322 
L 392.701658 74.874935 
L 392.126955 75.553713 
L 391.554314 77.213294 
L 389.880108 80.397634 
L 389.328501 81.894404 
L 388.783286 82.150672 
L 388.206314 81.756723 
L 387.640891 81.951445 
L 386.509219 82.971807 
L 385.954519 82.926405 
L 385.409201 83.918482 
L 384.860171 86.573958 
L 384.299696 87.507107 
L 383.747779 87.972949 
L 382.085327 88.733408 
L 381.527946 89.194402 
L 380.965306 89.946995 
L 380.417823 90.923316 
L 377.665714 94.620775 
L 377.118643 95.548619 
L 375.998519 96.1266 
L 375.45083 96.580826 
L 374.909945 96.805298 
L 374.351223 97.401299 
L 373.801678 99.005817 
L 373.250483 99.716151 
L 372.147268 100.315079 
L 371.034155 100.969012 
L 370.481207 102.42078 
L 369.927022 103.086661 
L 368.264364 104.332079 
L 367.711003 104.772539 
L 367.160942 105.903074 
L 366.052366 107.134291 
L 364.389501 108.59077 
L 363.297525 110.282913 
L 362.185134 111.148605 
L 361.078207 112.317922 
L 359.39967 114.176627 
L 357.752272 115.739162 
L 357.196437 116.601332 
L 356.634725 117.219467 
L 354.426027 118.868164 
L 353.880296 119.810093 
L 352.757955 121.029774 
L 350.548432 123.017586 
L 348.875051 124.645245 
L 347.192803 126.229274 
L 346.626761 126.812469 
L 345.541074 127.657169 
L 344.976475 128.362381 
L 343.852021 129.327086 
L 342.745713 130.374569 
L 341.073981 132.139703 
L 339.963755 133.388048 
L 339.409299 133.658494 
L 338.859548 134.148849 
L 338.316601 134.856806 
L 337.212974 135.784649 
L 336.655077 136.447969 
L 331.634521 140.588027 
L 328.843902 142.989774 
L 327.746049 143.830266 
L 327.18444 144.21763 
L 326.07772 145.708179 
L 325.526305 146.156712 
L 323.874989 147.062969 
L 323.314514 147.564255 
L 322.773011 148.510392 
L 321.674023 149.397441 
L 320.568127 149.994676 
L 320.006828 150.557931 
L 319.450065 151.321591 
L 318.335303 152.209647 
L 317.24013 152.872098 
L 316.684708 153.668869 
L 315.568605 154.653788 
L 314.468689 155.117024 
L 313.917803 155.552225 
L 313.358566 156.349087 
L 312.272943 157.455515 
L 310.598737 158.654741 
L 310.057646 159.444652 
L 308.945358 160.200903 
L 307.276307 161.389337 
L 306.719339 162.080829 
L 306.174123 162.557922 
L 303.959755 163.883922 
L 303.398868 164.82951 
L 302.834269 165.434772 
L 302.269464 165.655431 
L 301.727961 165.680807 
L 301.170992 165.89045 
L 300.619178 166.296565 
L 300.07087 167.434783 
L 298.963737 168.290733 
L 297.302561 168.835243 
L 296.754459 170.055416 
L 296.212853 170.650136 
L 295.667225 170.980835 
L 294.542152 171.199579 
L 293.980544 171.566923 
L 293.416254 172.656664 
L 292.860213 173.248548 
L 291.745245 173.767487 
L 291.190131 173.889665 
L 290.633266 174.171704 
L 290.091144 175.010275 
L 288.96638 175.86275 
L 287.269491 176.849772 
L 286.721802 177.653403 
L 286.161018 178.159126 
L 285.058099 178.537343 
L 284.493501 178.947665 
L 282.836822 180.515596 
L 281.72639 180.954501 
L 281.179319 181.190395 
L 278.431077 183.609703 
L 277.335698 184.27938 
L 274.558689 186.612618 
L 272.922425 187.82744 
L 272.37288 187.943191 
L 271.826428 188.177851 
L 270.701574 189.111285 
L 269.042524 190.822271 
L 267.943227 191.185007 
L 267.382134 191.497459 
L 266.275207 192.470396 
L 265.731229 192.828719 
L 265.182303 193.026356 
L 264.6375 193.44267 
L 264.074963 193.731157 
L 262.964016 194.860228 
L 260.763256 195.974345 
L 259.658083 197.107167 
L 258.018313 197.929894 
L 255.804872 199.84037 
L 254.705369 200.268562 
L 252.506569 202.078196 
L 251.386032 202.496464 
L 250.276837 203.430893 
L 249.716569 203.642685 
L 248.597682 204.463055 
L 246.954201 205.684325 
L 245.857173 206.309801 
L 244.735811 207.165385 
L 244.175053 207.765273 
L 243.629013 208.155746 
L 241.965427 208.789183 
L 240.309677 210.432574 
L 239.765699 210.810425 
L 238.670114 211.106768 
L 237.006321 212.606693 
L 230.919552 216.194869 
L 229.276277 217.122027 
L 228.169969 218.107174 
L 226.48937 218.754511 
L 225.922297 219.105013 
L 224.819804 220.25128 
L 223.706588 220.783374 
L 222.602136 221.024051 
L 220.395912 222.832129 
L 219.845954 223.141517 
L 219.29146 223.29663 
L 217.620315 224.422061 
L 217.076131 224.804852 
L 215.968585 225.236737 
L 215.41739 225.560165 
L 213.777002 226.804165 
L 213.223539 227.115611 
L 212.670694 227.235433 
L 212.105065 227.499579 
L 211.558097 227.934505 
L 211.013707 228.583374 
L 209.907605 229.324167 
L 208.249895 229.956251 
L 206.587546 231.224879 
L 205.454019 231.80665 
L 204.891276 232.110413 
L 203.774857 232.92708 
L 202.107868 233.855049 
L 201.554611 233.960231 
L 199.927215 234.792834 
L 198.274248 235.960266 
L 197.72264 236.206004 
L 195.502395 237.679907 
L 194.386395 238.156817 
L 193.280808 238.753024 
L 191.613098 240.144377 
L 190.521224 240.729859 
L 189.402054 241.179244 
L 187.75249 242.176923 
L 185.547916 243.347154 
L 183.865461 244.495182 
L 181.642538 245.718831 
L 180.532518 246.588775 
L 179.976168 246.909139 
L 178.325263 247.581926 
L 177.212254 248.327384 
L 176.655597 248.744335 
L 175.53671 249.231124 
L 173.296462 250.466983 
L 172.169533 251.259592 
L 169.377884 252.769213 
L 168.292609 253.630194 
L 167.747394 253.779011 
L 165.509002 254.928342 
L 164.410117 255.407699 
L 163.315144 256.118573 
L 162.771785 256.359635 
L 161.665477 257.262051 
L 161.115932 257.518433 
L 160.569685 257.501803 
L 156.102902 260.24255 
L 155.539953 260.450409 
L 154.997006 260.83352 
L 153.340328 261.515614 
L 152.784287 261.976151 
L 152.229999 262.190081 
L 151.128846 262.828523 
L 150.038004 263.342157 
L 148.366876 264.502148 
L 146.155085 265.18214 
L 144.490364 266.369019 
L 143.398285 266.790505 
L 141.166697 268.265117 
L 140.057502 268.624832 
L 139.503627 269.038995 
L 137.260388 270.096105 
L 135.039924 271.366413 
L 133.928048 271.792765 
L 132.799057 272.626123 
L 131.108767 273.364092 
L 128.891408 274.436728 
L 128.329284 274.486897 
L 127.775511 274.858712 
L 127.217408 275.435255 
L 126.673843 275.755822 
L 125.575164 276.194691 
L 123.364198 277.325783 
L 122.813465 277.682385 
L 121.14462 278.212392 
L 120.024599 278.849186 
L 118.388335 279.616985 
L 115.566064 281.049087 
L 114.481614 281.327022 
L 113.937018 281.623604 
L 112.840607 281.980941 
L 112.297248 282.237187 
L 111.736774 282.676046 
L 110.620568 283.257458 
L 110.079064 283.382068 
L 108.423549 284.039271 
L 107.864931 284.516547 
L 107.297858 284.80101 
L 106.747694 284.748188 
L 105.650459 284.968026 
L 105.086272 285.208631 
L 104.532809 285.830608 
L 103.966767 286.225723 
L 102.851798 286.409604 
L 101.753945 286.504435 
L 100.652586 287.605198 
L 99.022921 287.85797 
L 98.462858 288.069648 
L 97.348714 288.922397 
L 96.79855 289.120755 
L 95.13412 289.245825 
L 94.016883 290.361348 
L 92.902945 290.257038 
L 91.784264 290.367814 
L 91.219563 290.776392 
L 90.677338 291.430566 
L 89.576185 291.772787 
L 89.016123 291.93569 
L 88.462866 291.944683 
L 87.897648 292.136941 
L 87.335937 292.486346 
L 85.126414 293.153865 
L 83.998454 293.680025 
L 82.902044 293.556327 
L 81.788483 294.048014 
L 81.228524 294.609989 
L 80.113349 294.3989 
L 79.006525 294.356791 
L 78.45069 294.480603 
L 77.894237 295.488 
L 75.717295 294.470038 
L 75.15713 294.024284 
L 74.608512 294.203149 
L 73.936353 293.403073 
L 73.832908 245.850381 
L 73.832908 245.850381 
" clip-path="url(#pb1020543d0)" style="fill: none; stroke: #000000; stroke-width: 1.5; stroke-linecap: square"/>
   </g>
   <g id="patch_3">
    <path d="M 57.6 307.584 
L 57.6 41.472 
" style="fill: none; stroke: #000000; stroke-width: 0.8; stroke-linejoin: miter; stroke-linecap: square"/>
   </g>
   <g id="patch_4">
    <path d="M 414.72 307.584 
L 414.72 41.472 
" style="fill: none; stroke: #000000; stroke-width: 0.8; stroke-linejoin: miter; stroke-linecap: square"/>
   </g>
   <g id="patch_5">
    <path d="M 57.6 307.584 
L 414.72 307.584 
" style="fill: none; stroke: #000000; stroke-width: 0.8; stroke-linejoin: miter; stroke-linecap: square"/>
   </g>
   <g id="patch_6">
    <path d="M 57.6 41.472 
L 414.72 41.472 
" style="fill: none; stroke: #000000; stroke-width: 0.8; stroke-linejoin: miter; stroke-linecap: square"/>
   </g>
   <g id="text_14">
    <!-- 2025-06-16 trial 9 -->
    <g transform="translate(181.83 35.472) scale(0.12 -0.12)">
     <defs>
      <path id="DejaVuSans-2d" d="M 313 2009 
L 1997 2009 
L 1997 1497 
L 313 1497 
L 313 2009 
z
" transform="scale(0.015625)"/>
      <path id="DejaVuSans-6c" d="M 603 4863 
L 1178 4863 
L 1178 0 
L 603 0 
L 603 4863 
z
" transform="scale(0.015625)"/>
      <path id="DejaVuSans-39" d="M 703 97 
L 703 672 
Q 941 559 1184 500 
Q 1428 441 1663 441 
Q 2288 441 2617 861 
Q 2947 1281 2994 2138 
Q 2813 1869 2534 1725 
Q 2256 1581 1919 1581 
Q 1219 1581 811 2004 
Q 403 2428 403 3163 
Q 403 3881 828 4315 
Q 1253 4750 1959 4750 
Q 2769 4750 3195 4129 
Q 3622 3509 3622 2328 
Q 3622 1225 3098 567 
Q 2575 -91 1691 -91 
Q 1453 -91 1209 -44 
Q 966 3 703 97 
z
M 1959 2075 
Q 2384 2075 2632 2365 
Q 2881 2656 2881 3163 
Q 2881 3666 2632 3958 
Q 2384 4250 1959 4250 
Q 1534 4250 1286 3958 
Q 1038 3666 1038 3163 
Q 1038 2656 1286 2365 
Q 1534 2075 1959 2075 
z
" transform="scale(0.015625)"/>
     </defs>
     <use xlink:href="#DejaVuSans-32"/>
     <use xlink:href="#DejaVuSans-30" transform="translate(63.623047 0)"/>
     <use xlink:href="#DejaVuSans-32" transform="translate(127.246094 0)"/>
     <use xlink:href="#DejaVuSans-35" transform="translate(190.869141 0)"/>
     <use xlink:href="#DejaVuSans-2d" transform="translate(254.492188 0)"/>
     <use xlink:href="#DejaVuSans-30" transform="translate(290.576172 0)"/>
     <use xlink:href="#DejaVuSans-36" transform="translate(354.199219 0)"/>
     <use xlink:href="#DejaVuSans-2d" transform="translate(417.822266 0)"/>
     <use xlink:href="#DejaVuSans-31" transform="translate(453.90625 0)"/>
     <use xlink:href="#DejaVuSans-36" transform="translate(517.529297 0)"/>
     <use xlink:href="#DejaVuSans-20" transform="translate(581.152344 0)"/>
     <use xlink:href="#DejaVuSans-74" transform="translate(612.939453 0)"/>
     <use xlink:href="#DejaVuSans-72" transform="translate(652.148438 0)"/>
     <use xlink:href="#DejaVuSans-69" transform="translate(693.261719 0)"/>
     <use xlink:href="#DejaVuSans-61" transform="translate(721.044922 0)"/>
     <use xlink:href="#DejaVuSans-6c" transform="translate(782.324219 0)"/>
     <use xlink:href="#DejaVuSans-20" transform="translate(810.107422 0)"/>
     <use xlink:href="#DejaVuSans-39" transform="translate(841.894531 0)"/>
    </g>
   </g>
  </g>
 </g>
 <defs>
  <clipPath id="pb1020543d0">
   <rect x="57.6" y="41.472" width="357.12" height="266.112"/>
  </clipPath>
 </defs>
</svg>
