<?xml version="1.0" encoding="utf-8" standalone="no"?>
<!DOCTYPE svg PUBLIC "-//W3C//DTD SVG 1.1//EN"
  "http://www.w3.org/Graphics/SVG/1.1/DTD/svg11.dtd">
<svg xmlns:xlink="http://www.w3.org/1999/xlink" width="460.8pt" height="345.6pt" viewBox="0 0 460.8 345.6" xmlns="http://www.w3.org/2000/svg" version="1.1">
 <metadata>
  <rdf:RDF xmlns:dc="http://purl.org/dc/elements/1.1/" xmlns:cc="http://creativecommons.org/ns#" xmlns:rdf="http://www.w3.org/1999/02/22-rdf-syntax-ns#">
   <cc:Work>
    <dc:type rdf:resource="http://purl.org/dc/dcmitype/StillImage"/>
    <dc:date>2025-07-16T22:11:47.231725</dc:date>
    <dc:format>image/svg+xml</dc:format>
    <dc:creator>
     <cc:Agent>
      <dc:title>Matplotlib v3.10.3, https://matplotlib.org/</dc:title>
     </cc:Agent>
    </dc:creator>
   </cc:Work>
  </rdf:RDF>
 </metadata>
 <defs>
  <style type="text/css">*{stroke-linejoin: round; stroke-linecap: butt}</style>
 </defs>
 <g id="figure_1">
  <g id="patch_1">
   <path d="M 0 345.6 
L 460.8 345.6 
L 460.8 0 
L 0 0 
z
" style="fill: #ffffff"/>
  </g>
  <g id="axes_1">
   <g id="patch_2">
    <path d="M 57.6 307.584 
L 414.72 307.584 
L 414.72 41.472 
L 57.6 41.472 
z
" style="fill: #ffffff"/>
   </g>
   <g id="matplotlib.axis_1">
    <g id="xtick_1">
     <g id="line2d_1">
      <defs>
       <path id="m46e8e39543" d="M 0 0 
L 0 3.5 
" style="stroke: #000000; stroke-width: 0.8"/>
      </defs>
      <g>
       <use xlink:href="#m46e8e39543" x="73.903299" y="307.584" style="stroke: #000000; stroke-width: 0.8"/>
      </g>
     </g>
     <g id="text_1">
      <!-- 0.00 -->
      <g transform="translate(62.770486 322.182437) scale(0.1 -0.1)">
       <defs>
        <path id="DejaVuSans-30" d="M 2034 4250 
Q 1547 4250 1301 3770 
Q 1056 3291 1056 2328 
Q 1056 1369 1301 889 
Q 1547 409 2034 409 
Q 2525 409 2770 889 
Q 3016 1369 3016 2328 
Q 3016 3291 2770 3770 
Q 2525 4250 2034 4250 
z
M 2034 4750 
Q 2819 4750 3233 4129 
Q 3647 3509 3647 2328 
Q 3647 1150 3233 529 
Q 2819 -91 2034 -91 
Q 1250 -91 836 529 
Q 422 1150 422 2328 
Q 422 3509 836 4129 
Q 1250 4750 2034 4750 
z
" transform="scale(0.015625)"/>
        <path id="DejaVuSans-2e" d="M 684 794 
L 1344 794 
L 1344 0 
L 684 0 
L 684 794 
z
" transform="scale(0.015625)"/>
       </defs>
       <use xlink:href="#DejaVuSans-30"/>
       <use xlink:href="#DejaVuSans-2e" transform="translate(63.623047 0)"/>
       <use xlink:href="#DejaVuSans-30" transform="translate(95.410156 0)"/>
       <use xlink:href="#DejaVuSans-30" transform="translate(159.033203 0)"/>
      </g>
     </g>
    </g>
    <g id="xtick_2">
     <g id="line2d_2">
      <g>
       <use xlink:href="#m46e8e39543" x="116.088582" y="307.584" style="stroke: #000000; stroke-width: 0.8"/>
      </g>
     </g>
     <g id="text_2">
      <!-- 0.05 -->
      <g transform="translate(104.95577 322.182437) scale(0.1 -0.1)">
       <defs>
        <path id="DejaVuSans-35" d="M 691 4666 
L 3169 4666 
L 3169 4134 
L 1269 4134 
L 1269 2991 
Q 1406 3038 1543 3061 
Q 1681 3084 1819 3084 
Q 2600 3084 3056 2656 
Q 3513 2228 3513 1497 
Q 3513 744 3044 326 
Q 2575 -91 1722 -91 
Q 1428 -91 1123 -41 
Q 819 9 494 109 
L 494 744 
Q 775 591 1075 516 
Q 1375 441 1709 441 
Q 2250 441 2565 725 
Q 2881 1009 2881 1497 
Q 2881 1984 2565 2268 
Q 2250 2553 1709 2553 
Q 1456 2553 1204 2497 
Q 953 2441 691 2322 
L 691 4666 
z
" transform="scale(0.015625)"/>
       </defs>
       <use xlink:href="#DejaVuSans-30"/>
       <use xlink:href="#DejaVuSans-2e" transform="translate(63.623047 0)"/>
       <use xlink:href="#DejaVuSans-30" transform="translate(95.410156 0)"/>
       <use xlink:href="#DejaVuSans-35" transform="translate(159.033203 0)"/>
      </g>
     </g>
    </g>
    <g id="xtick_3">
     <g id="line2d_3">
      <g>
       <use xlink:href="#m46e8e39543" x="158.273866" y="307.584" style="stroke: #000000; stroke-width: 0.8"/>
      </g>
     </g>
     <g id="text_3">
      <!-- 0.10 -->
      <g transform="translate(147.141053 322.182437) scale(0.1 -0.1)">
       <defs>
        <path id="DejaVuSans-31" d="M 794 531 
L 1825 531 
L 1825 4091 
L 703 3866 
L 703 4441 
L 1819 4666 
L 2450 4666 
L 2450 531 
L 3481 531 
L 3481 0 
L 794 0 
L 794 531 
z
" transform="scale(0.015625)"/>
       </defs>
       <use xlink:href="#DejaVuSans-30"/>
       <use xlink:href="#DejaVuSans-2e" transform="translate(63.623047 0)"/>
       <use xlink:href="#DejaVuSans-31" transform="translate(95.410156 0)"/>
       <use xlink:href="#DejaVuSans-30" transform="translate(159.033203 0)"/>
      </g>
     </g>
    </g>
    <g id="xtick_4">
     <g id="line2d_4">
      <g>
       <use xlink:href="#m46e8e39543" x="200.459149" y="307.584" style="stroke: #000000; stroke-width: 0.8"/>
      </g>
     </g>
     <g id="text_4">
      <!-- 0.15 -->
      <g transform="translate(189.326337 322.182437) scale(0.1 -0.1)">
       <use xlink:href="#DejaVuSans-30"/>
       <use xlink:href="#DejaVuSans-2e" transform="translate(63.623047 0)"/>
       <use xlink:href="#DejaVuSans-31" transform="translate(95.410156 0)"/>
       <use xlink:href="#DejaVuSans-35" transform="translate(159.033203 0)"/>
      </g>
     </g>
    </g>
    <g id="xtick_5">
     <g id="line2d_5">
      <g>
       <use xlink:href="#m46e8e39543" x="242.644433" y="307.584" style="stroke: #000000; stroke-width: 0.8"/>
      </g>
     </g>
     <g id="text_5">
      <!-- 0.20 -->
      <g transform="translate(231.511621 322.182437) scale(0.1 -0.1)">
       <defs>
        <path id="DejaVuSans-32" d="M 1228 531 
L 3431 531 
L 3431 0 
L 469 0 
L 469 531 
Q 828 903 1448 1529 
Q 2069 2156 2228 2338 
Q 2531 2678 2651 2914 
Q 2772 3150 2772 3378 
Q 2772 3750 2511 3984 
Q 2250 4219 1831 4219 
Q 1534 4219 1204 4116 
Q 875 4013 500 3803 
L 500 4441 
Q 881 4594 1212 4672 
Q 1544 4750 1819 4750 
Q 2544 4750 2975 4387 
Q 3406 4025 3406 3419 
Q 3406 3131 3298 2873 
Q 3191 2616 2906 2266 
Q 2828 2175 2409 1742 
Q 1991 1309 1228 531 
z
" transform="scale(0.015625)"/>
       </defs>
       <use xlink:href="#DejaVuSans-30"/>
       <use xlink:href="#DejaVuSans-2e" transform="translate(63.623047 0)"/>
       <use xlink:href="#DejaVuSans-32" transform="translate(95.410156 0)"/>
       <use xlink:href="#DejaVuSans-30" transform="translate(159.033203 0)"/>
      </g>
     </g>
    </g>
    <g id="xtick_6">
     <g id="line2d_6">
      <g>
       <use xlink:href="#m46e8e39543" x="284.829717" y="307.584" style="stroke: #000000; stroke-width: 0.8"/>
      </g>
     </g>
     <g id="text_6">
      <!-- 0.25 -->
      <g transform="translate(273.696904 322.182437) scale(0.1 -0.1)">
       <use xlink:href="#DejaVuSans-30"/>
       <use xlink:href="#DejaVuSans-2e" transform="translate(63.623047 0)"/>
       <use xlink:href="#DejaVuSans-32" transform="translate(95.410156 0)"/>
       <use xlink:href="#DejaVuSans-35" transform="translate(159.033203 0)"/>
      </g>
     </g>
    </g>
    <g id="xtick_7">
     <g id="line2d_7">
      <g>
       <use xlink:href="#m46e8e39543" x="327.015" y="307.584" style="stroke: #000000; stroke-width: 0.8"/>
      </g>
     </g>
     <g id="text_7">
      <!-- 0.30 -->
      <g transform="translate(315.882188 322.182437) scale(0.1 -0.1)">
       <defs>
        <path id="DejaVuSans-33" d="M 2597 2516 
Q 3050 2419 3304 2112 
Q 3559 1806 3559 1356 
Q 3559 666 3084 287 
Q 2609 -91 1734 -91 
Q 1441 -91 1130 -33 
Q 819 25 488 141 
L 488 750 
Q 750 597 1062 519 
Q 1375 441 1716 441 
Q 2309 441 2620 675 
Q 2931 909 2931 1356 
Q 2931 1769 2642 2001 
Q 2353 2234 1838 2234 
L 1294 2234 
L 1294 2753 
L 1863 2753 
Q 2328 2753 2575 2939 
Q 2822 3125 2822 3475 
Q 2822 3834 2567 4026 
Q 2313 4219 1838 4219 
Q 1578 4219 1281 4162 
Q 984 4106 628 3988 
L 628 4550 
Q 988 4650 1302 4700 
Q 1616 4750 1894 4750 
Q 2613 4750 3031 4423 
Q 3450 4097 3450 3541 
Q 3450 3153 3228 2886 
Q 3006 2619 2597 2516 
z
" transform="scale(0.015625)"/>
       </defs>
       <use xlink:href="#DejaVuSans-30"/>
       <use xlink:href="#DejaVuSans-2e" transform="translate(63.623047 0)"/>
       <use xlink:href="#DejaVuSans-33" transform="translate(95.410156 0)"/>
       <use xlink:href="#DejaVuSans-30" transform="translate(159.033203 0)"/>
      </g>
     </g>
    </g>
    <g id="xtick_8">
     <g id="line2d_8">
      <g>
       <use xlink:href="#m46e8e39543" x="369.200284" y="307.584" style="stroke: #000000; stroke-width: 0.8"/>
      </g>
     </g>
     <g id="text_8">
      <!-- 0.35 -->
      <g transform="translate(358.067471 322.182437) scale(0.1 -0.1)">
       <use xlink:href="#DejaVuSans-30"/>
       <use xlink:href="#DejaVuSans-2e" transform="translate(63.623047 0)"/>
       <use xlink:href="#DejaVuSans-33" transform="translate(95.410156 0)"/>
       <use xlink:href="#DejaVuSans-35" transform="translate(159.033203 0)"/>
      </g>
     </g>
    </g>
    <g id="xtick_9">
     <g id="line2d_9">
      <g>
       <use xlink:href="#m46e8e39543" x="411.385567" y="307.584" style="stroke: #000000; stroke-width: 0.8"/>
      </g>
     </g>
     <g id="text_9">
      <!-- 0.40 -->
      <g transform="translate(400.252755 322.182437) scale(0.1 -0.1)">
       <defs>
        <path id="DejaVuSans-34" d="M 2419 4116 
L 825 1625 
L 2419 1625 
L 2419 4116 
z
M 2253 4666 
L 3047 4666 
L 3047 1625 
L 3713 1625 
L 3713 1100 
L 3047 1100 
L 3047 0 
L 2419 0 
L 2419 1100 
L 313 1100 
L 313 1709 
L 2253 4666 
z
" transform="scale(0.015625)"/>
       </defs>
       <use xlink:href="#DejaVuSans-30"/>
       <use xlink:href="#DejaVuSans-2e" transform="translate(63.623047 0)"/>
       <use xlink:href="#DejaVuSans-34" transform="translate(95.410156 0)"/>
       <use xlink:href="#DejaVuSans-30" transform="translate(159.033203 0)"/>
      </g>
     </g>
    </g>
    <g id="text_10">
     <!-- Strain -->
     <g transform="translate(221.348281 335.860562) scale(0.1 -0.1)">
      <defs>
       <path id="DejaVuSans-53" d="M 3425 4513 
L 3425 3897 
Q 3066 4069 2747 4153 
Q 2428 4238 2131 4238 
Q 1616 4238 1336 4038 
Q 1056 3838 1056 3469 
Q 1056 3159 1242 3001 
Q 1428 2844 1947 2747 
L 2328 2669 
Q 3034 2534 3370 2195 
Q 3706 1856 3706 1288 
Q 3706 609 3251 259 
Q 2797 -91 1919 -91 
Q 1588 -91 1214 -16 
Q 841 59 441 206 
L 441 856 
Q 825 641 1194 531 
Q 1563 422 1919 422 
Q 2459 422 2753 634 
Q 3047 847 3047 1241 
Q 3047 1584 2836 1778 
Q 2625 1972 2144 2069 
L 1759 2144 
Q 1053 2284 737 2584 
Q 422 2884 422 3419 
Q 422 4038 858 4394 
Q 1294 4750 2059 4750 
Q 2388 4750 2728 4690 
Q 3069 4631 3425 4513 
z
" transform="scale(0.015625)"/>
       <path id="DejaVuSans-74" d="M 1172 4494 
L 1172 3500 
L 2356 3500 
L 2356 3053 
L 1172 3053 
L 1172 1153 
Q 1172 725 1289 603 
Q 1406 481 1766 481 
L 2356 481 
L 2356 0 
L 1766 0 
Q 1100 0 847 248 
Q 594 497 594 1153 
L 594 3053 
L 172 3053 
L 172 3500 
L 594 3500 
L 594 4494 
L 1172 4494 
z
" transform="scale(0.015625)"/>
       <path id="DejaVuSans-72" d="M 2631 2963 
Q 2534 3019 2420 3045 
Q 2306 3072 2169 3072 
Q 1681 3072 1420 2755 
Q 1159 2438 1159 1844 
L 1159 0 
L 581 0 
L 581 3500 
L 1159 3500 
L 1159 2956 
Q 1341 3275 1631 3429 
Q 1922 3584 2338 3584 
Q 2397 3584 2469 3576 
Q 2541 3569 2628 3553 
L 2631 2963 
z
" transform="scale(0.015625)"/>
       <path id="DejaVuSans-61" d="M 2194 1759 
Q 1497 1759 1228 1600 
Q 959 1441 959 1056 
Q 959 750 1161 570 
Q 1363 391 1709 391 
Q 2188 391 2477 730 
Q 2766 1069 2766 1631 
L 2766 1759 
L 2194 1759 
z
M 3341 1997 
L 3341 0 
L 2766 0 
L 2766 531 
Q 2569 213 2275 61 
Q 1981 -91 1556 -91 
Q 1019 -91 701 211 
Q 384 513 384 1019 
Q 384 1609 779 1909 
Q 1175 2209 1959 2209 
L 2766 2209 
L 2766 2266 
Q 2766 2663 2505 2880 
Q 2244 3097 1772 3097 
Q 1472 3097 1187 3025 
Q 903 2953 641 2809 
L 641 3341 
Q 956 3463 1253 3523 
Q 1550 3584 1831 3584 
Q 2591 3584 2966 3190 
Q 3341 2797 3341 1997 
z
" transform="scale(0.015625)"/>
       <path id="DejaVuSans-69" d="M 603 3500 
L 1178 3500 
L 1178 0 
L 603 0 
L 603 3500 
z
M 603 4863 
L 1178 4863 
L 1178 4134 
L 603 4134 
L 603 4863 
z
" transform="scale(0.015625)"/>
       <path id="DejaVuSans-6e" d="M 3513 2113 
L 3513 0 
L 2938 0 
L 2938 2094 
Q 2938 2591 2744 2837 
Q 2550 3084 2163 3084 
Q 1697 3084 1428 2787 
Q 1159 2491 1159 1978 
L 1159 0 
L 581 0 
L 581 3500 
L 1159 3500 
L 1159 2956 
Q 1366 3272 1645 3428 
Q 1925 3584 2291 3584 
Q 2894 3584 3203 3211 
Q 3513 2838 3513 2113 
z
" transform="scale(0.015625)"/>
      </defs>
      <use xlink:href="#DejaVuSans-53"/>
      <use xlink:href="#DejaVuSans-74" transform="translate(63.476562 0)"/>
      <use xlink:href="#DejaVuSans-72" transform="translate(102.685547 0)"/>
      <use xlink:href="#DejaVuSans-61" transform="translate(143.798828 0)"/>
      <use xlink:href="#DejaVuSans-69" transform="translate(205.078125 0)"/>
      <use xlink:href="#DejaVuSans-6e" transform="translate(232.861328 0)"/>
     </g>
    </g>
   </g>
   <g id="matplotlib.axis_2">
    <g id="ytick_1">
     <g id="line2d_10">
      <defs>
       <path id="m0f24b21ce9" d="M 0 0 
L -3.5 0 
" style="stroke: #000000; stroke-width: 0.8"/>
      </defs>
      <g>
       <use xlink:href="#m0f24b21ce9" x="57.6" y="284.609879" style="stroke: #000000; stroke-width: 0.8"/>
      </g>
     </g>
     <g id="text_11">
      <!-- 0 -->
      <g transform="translate(44.2375 288.409098) scale(0.1 -0.1)">
       <use xlink:href="#DejaVuSans-30"/>
      </g>
     </g>
    </g>
    <g id="ytick_2">
     <g id="line2d_11">
      <g>
       <use xlink:href="#m0f24b21ce9" x="57.6" y="251.417036" style="stroke: #000000; stroke-width: 0.8"/>
      </g>
     </g>
     <g id="text_12">
      <!-- 250 -->
      <g transform="translate(31.5125 255.216254) scale(0.1 -0.1)">
       <use xlink:href="#DejaVuSans-32"/>
       <use xlink:href="#DejaVuSans-35" transform="translate(63.623047 0)"/>
       <use xlink:href="#DejaVuSans-30" transform="translate(127.246094 0)"/>
      </g>
     </g>
    </g>
    <g id="ytick_3">
     <g id="line2d_12">
      <g>
       <use xlink:href="#m0f24b21ce9" x="57.6" y="218.224192" style="stroke: #000000; stroke-width: 0.8"/>
      </g>
     </g>
     <g id="text_13">
      <!-- 500 -->
      <g transform="translate(31.5125 222.023411) scale(0.1 -0.1)">
       <use xlink:href="#DejaVuSans-35"/>
       <use xlink:href="#DejaVuSans-30" transform="translate(63.623047 0)"/>
       <use xlink:href="#DejaVuSans-30" transform="translate(127.246094 0)"/>
      </g>
     </g>
    </g>
    <g id="ytick_4">
     <g id="line2d_13">
      <g>
       <use xlink:href="#m0f24b21ce9" x="57.6" y="185.031349" style="stroke: #000000; stroke-width: 0.8"/>
      </g>
     </g>
     <g id="text_14">
      <!-- 750 -->
      <g transform="translate(31.5125 188.830568) scale(0.1 -0.1)">
       <defs>
        <path id="DejaVuSans-37" d="M 525 4666 
L 3525 4666 
L 3525 4397 
L 1831 0 
L 1172 0 
L 2766 4134 
L 525 4134 
L 525 4666 
z
" transform="scale(0.015625)"/>
       </defs>
       <use xlink:href="#DejaVuSans-37"/>
       <use xlink:href="#DejaVuSans-35" transform="translate(63.623047 0)"/>
       <use xlink:href="#DejaVuSans-30" transform="translate(127.246094 0)"/>
      </g>
     </g>
    </g>
    <g id="ytick_5">
     <g id="line2d_14">
      <g>
       <use xlink:href="#m0f24b21ce9" x="57.6" y="151.838506" style="stroke: #000000; stroke-width: 0.8"/>
      </g>
     </g>
     <g id="text_15">
      <!-- 1000 -->
      <g transform="translate(25.15 155.637724) scale(0.1 -0.1)">
       <use xlink:href="#DejaVuSans-31"/>
       <use xlink:href="#DejaVuSans-30" transform="translate(63.623047 0)"/>
       <use xlink:href="#DejaVuSans-30" transform="translate(127.246094 0)"/>
       <use xlink:href="#DejaVuSans-30" transform="translate(190.869141 0)"/>
      </g>
     </g>
    </g>
    <g id="ytick_6">
     <g id="line2d_15">
      <g>
       <use xlink:href="#m0f24b21ce9" x="57.6" y="118.645662" style="stroke: #000000; stroke-width: 0.8"/>
      </g>
     </g>
     <g id="text_16">
      <!-- 1250 -->
      <g transform="translate(25.15 122.444881) scale(0.1 -0.1)">
       <use xlink:href="#DejaVuSans-31"/>
       <use xlink:href="#DejaVuSans-32" transform="translate(63.623047 0)"/>
       <use xlink:href="#DejaVuSans-35" transform="translate(127.246094 0)"/>
       <use xlink:href="#DejaVuSans-30" transform="translate(190.869141 0)"/>
      </g>
     </g>
    </g>
    <g id="ytick_7">
     <g id="line2d_16">
      <g>
       <use xlink:href="#m0f24b21ce9" x="57.6" y="85.452819" style="stroke: #000000; stroke-width: 0.8"/>
      </g>
     </g>
     <g id="text_17">
      <!-- 1500 -->
      <g transform="translate(25.15 89.252038) scale(0.1 -0.1)">
       <use xlink:href="#DejaVuSans-31"/>
       <use xlink:href="#DejaVuSans-35" transform="translate(63.623047 0)"/>
       <use xlink:href="#DejaVuSans-30" transform="translate(127.246094 0)"/>
       <use xlink:href="#DejaVuSans-30" transform="translate(190.869141 0)"/>
      </g>
     </g>
    </g>
    <g id="ytick_8">
     <g id="line2d_17">
      <g>
       <use xlink:href="#m0f24b21ce9" x="57.6" y="52.259975" style="stroke: #000000; stroke-width: 0.8"/>
      </g>
     </g>
     <g id="text_18">
      <!-- 1750 -->
      <g transform="translate(25.15 56.059194) scale(0.1 -0.1)">
       <use xlink:href="#DejaVuSans-31"/>
       <use xlink:href="#DejaVuSans-37" transform="translate(63.623047 0)"/>
       <use xlink:href="#DejaVuSans-35" transform="translate(127.246094 0)"/>
       <use xlink:href="#DejaVuSans-30" transform="translate(190.869141 0)"/>
      </g>
     </g>
    </g>
    <g id="text_19">
     <!-- Stress [Pa] -->
     <g transform="translate(19.070312 201.235813) rotate(-90) scale(0.1 -0.1)">
      <defs>
       <path id="DejaVuSans-65" d="M 3597 1894 
L 3597 1613 
L 953 1613 
Q 991 1019 1311 708 
Q 1631 397 2203 397 
Q 2534 397 2845 478 
Q 3156 559 3463 722 
L 3463 178 
Q 3153 47 2828 -22 
Q 2503 -91 2169 -91 
Q 1331 -91 842 396 
Q 353 884 353 1716 
Q 353 2575 817 3079 
Q 1281 3584 2069 3584 
Q 2775 3584 3186 3129 
Q 3597 2675 3597 1894 
z
M 3022 2063 
Q 3016 2534 2758 2815 
Q 2500 3097 2075 3097 
Q 1594 3097 1305 2825 
Q 1016 2553 972 2059 
L 3022 2063 
z
" transform="scale(0.015625)"/>
       <path id="DejaVuSans-73" d="M 2834 3397 
L 2834 2853 
Q 2591 2978 2328 3040 
Q 2066 3103 1784 3103 
Q 1356 3103 1142 2972 
Q 928 2841 928 2578 
Q 928 2378 1081 2264 
Q 1234 2150 1697 2047 
L 1894 2003 
Q 2506 1872 2764 1633 
Q 3022 1394 3022 966 
Q 3022 478 2636 193 
Q 2250 -91 1575 -91 
Q 1294 -91 989 -36 
Q 684 19 347 128 
L 347 722 
Q 666 556 975 473 
Q 1284 391 1588 391 
Q 1994 391 2212 530 
Q 2431 669 2431 922 
Q 2431 1156 2273 1281 
Q 2116 1406 1581 1522 
L 1381 1569 
Q 847 1681 609 1914 
Q 372 2147 372 2553 
Q 372 3047 722 3315 
Q 1072 3584 1716 3584 
Q 2034 3584 2315 3537 
Q 2597 3491 2834 3397 
z
" transform="scale(0.015625)"/>
       <path id="DejaVuSans-20" transform="scale(0.015625)"/>
       <path id="DejaVuSans-5b" d="M 550 4863 
L 1875 4863 
L 1875 4416 
L 1125 4416 
L 1125 -397 
L 1875 -397 
L 1875 -844 
L 550 -844 
L 550 4863 
z
" transform="scale(0.015625)"/>
       <path id="DejaVuSans-50" d="M 1259 4147 
L 1259 2394 
L 2053 2394 
Q 2494 2394 2734 2622 
Q 2975 2850 2975 3272 
Q 2975 3691 2734 3919 
Q 2494 4147 2053 4147 
L 1259 4147 
z
M 628 4666 
L 2053 4666 
Q 2838 4666 3239 4311 
Q 3641 3956 3641 3272 
Q 3641 2581 3239 2228 
Q 2838 1875 2053 1875 
L 1259 1875 
L 1259 0 
L 628 0 
L 628 4666 
z
" transform="scale(0.015625)"/>
       <path id="DejaVuSans-5d" d="M 1947 4863 
L 1947 -844 
L 622 -844 
L 622 -397 
L 1369 -397 
L 1369 4416 
L 622 4416 
L 622 4863 
L 1947 4863 
z
" transform="scale(0.015625)"/>
      </defs>
      <use xlink:href="#DejaVuSans-53"/>
      <use xlink:href="#DejaVuSans-74" transform="translate(63.476562 0)"/>
      <use xlink:href="#DejaVuSans-72" transform="translate(102.685547 0)"/>
      <use xlink:href="#DejaVuSans-65" transform="translate(141.548828 0)"/>
      <use xlink:href="#DejaVuSans-73" transform="translate(203.072266 0)"/>
      <use xlink:href="#DejaVuSans-73" transform="translate(255.171875 0)"/>
      <use xlink:href="#DejaVuSans-20" transform="translate(307.271484 0)"/>
      <use xlink:href="#DejaVuSans-5b" transform="translate(339.058594 0)"/>
      <use xlink:href="#DejaVuSans-50" transform="translate(378.072266 0)"/>
      <use xlink:href="#DejaVuSans-61" transform="translate(433.875 0)"/>
      <use xlink:href="#DejaVuSans-5d" transform="translate(495.154297 0)"/>
     </g>
    </g>
   </g>
   <g id="line2d_18">
    <path d="M 73.903299 289.365492 
L 73.90381 289.176289 
L 73.904545 289.234149 
L 74.586167 281.386551 
L 74.940943 280.837828 
L 75.279131 280.544604 
L 75.608159 279.460184 
L 76.326128 276.41019 
L 76.705909 275.608482 
L 77.125302 275.417987 
L 77.464975 275.686512 
L 78.597881 277.347707 
L 79.009847 277.692844 
L 79.435676 277.875472 
L 79.876361 277.887595 
L 80.80265 277.602409 
L 81.953381 277.116432 
L 82.644612 277.0778 
L 83.35961 277.50806 
L 84.095405 278.301512 
L 85.230291 279.994692 
L 86.779123 282.559742 
L 87.559481 283.261881 
L 88.340829 283.410234 
L 90.293705 283.10695 
L 90.683884 283.32208 
L 91.074063 283.709004 
L 93.381467 286.806461 
L 93.755801 286.964068 
L 94.127164 286.943884 
L 94.493576 286.743199 
L 95.218477 285.85998 
L 96.639561 283.521926 
L 97.340695 282.697519 
L 98.038858 282.162532 
L 98.733059 281.876724 
L 101.809928 281.190966 
L 103.812319 280.122539 
L 105.126449 279.48076 
L 107.071405 278.700979 
L 108.515265 277.739344 
L 109.951203 276.865411 
L 111.38318 276.290441 
L 112.33585 275.932408 
L 114.717527 274.865271 
L 119.471967 273.122822 
L 121.846712 271.888276 
L 124.229378 270.951661 
L 129.491843 269.020652 
L 130.930752 268.235453 
L 132.85887 267.108731 
L 134.313624 266.598765 
L 136.261548 266.074612 
L 139.194819 265.064739 
L 145.080184 262.594615 
L 150.674401 260.386568 
L 153.975078 258.737239 
L 162.258954 255.608054 
L 164.235125 254.775307 
L 166.528665 253.830438 
L 169.619398 252.676372 
L 171.07019 252.117653 
L 173.471673 250.942951 
L 178.231064 248.311351 
L 179.657099 247.727095 
L 182.509169 246.345002 
L 184.888865 244.961877 
L 187.282425 243.581331 
L 188.245989 243.20163 
L 190.663317 242.408435 
L 192.11609 241.823922 
L 194.05213 240.813792 
L 197.939066 238.545384 
L 203.477825 236.193401 
L 208.041137 233.330162 
L 209.682068 232.67626 
L 210.996199 232.162166 
L 213.953241 230.734158 
L 215.922951 229.429966 
L 217.569824 228.406938 
L 220.217891 227.140922 
L 224.522735 225.526158 
L 229.108823 222.740304 
L 230.73589 221.961297 
L 234.764439 219.823928 
L 239.058388 216.592852 
L 240.968681 215.428984 
L 242.882935 214.309484 
L 245.760552 212.417699 
L 249.127579 210.393311 
L 250.572429 209.521442 
L 252.019261 208.73418 
L 257.326289 205.382901 
L 261.672725 202.413902 
L 264.098965 200.752708 
L 266.859927 198.836659 
L 269.137622 197.291542 
L 270.439869 196.354669 
L 273.705886 193.720489 
L 276.337118 191.951988 
L 278.315742 190.854671 
L 280.294365 189.352889 
L 282.934511 187.286714 
L 289.541806 182.689022 
L 292.817725 180.078058 
L 294.449743 178.721244 
L 298.994239 175.2673 
L 301.411566 173.227436 
L 306.233347 169.12346 
L 309.122058 166.717823 
L 310.562948 165.289815 
L 312.003837 163.89792 
L 316.807793 159.40444 
L 320.178781 156.160467 
L 322.592147 153.893607 
L 331.352297 145.382524 
L 334.291529 142.786521 
L 336.573185 140.32981 
L 340.804746 135.74966 
L 344.06284 132.299327 
L 346.019677 130.077867 
L 349.299557 125.951707 
L 351.283132 123.73231 
L 356.581248 118.111075 
L 365.396917 107.211162 
L 367.802361 103.686541 
L 372.603345 97.015967 
L 375.007799 93.914383 
L 377.403339 90.464051 
L 381.237789 84.82218 
L 383.157985 82.746203 
L 391.143781 74.976765 
L 394.089434 72.738795 
L 394.811859 71.732277 
L 395.859104 69.774956 
L 396.597374 67.867162 
L 397.301974 65.310367 
L 397.62964 63.772472 
L 397.954305 61.602811 
L 398.279093 60.456548 
L 398.334611 60.527355 
L 398.487273 61.781457 
L 398.40548 75.631892 
L 398.39994 82.359875 
L 398.074998 82.674428 
L 397.414899 84.943836 
L 396.38548 85.179585 
L 395.363736 86.142317 
L 395.029014 86.216188 
L 394.350781 88.16951 
L 394.00628 88.637946 
L 393.321981 89.148686 
L 392.652289 89.788401 
L 392.31472 90.338736 
L 391.323056 93.118786 
L 390.664784 93.862922 
L 390.002643 94.82675 
L 388.996806 96.595961 
L 387.328394 99.18126 
L 386.658207 100.279286 
L 386.004113 101.010315 
L 385.000751 102.685955 
L 384.323323 103.951326 
L 382.674934 106.080683 
L 380.669201 108.963784 
L 379.674566 110.334592 
L 378.675104 111.944196 
L 378.012839 112.841603 
L 377.354784 113.574437 
L 375.999555 115.636098 
L 371.02304 122.211617 
L 369.686999 123.86991 
L 368.710561 125.178358 
L 365.736807 128.936956 
L 365.077514 129.711385 
L 364.411164 130.730156 
L 363.738006 131.53167 
L 363.072895 132.294555 
L 362.744238 132.561146 
L 362.07727 133.500921 
L 360.055197 135.902946 
L 358.742923 137.404147 
L 357.763731 138.70144 
L 357.09701 139.326903 
L 356.422243 140.050967 
L 355.423152 141.186202 
L 354.431364 142.243344 
L 353.07985 143.925497 
L 345.401326 152.295876 
L 344.408796 153.149947 
L 341.742376 156.012517 
L 340.738024 156.825703 
L 339.413248 158.355085 
L 338.411433 159.275707 
L 337.399716 160.439446 
L 336.42105 161.144357 
L 334.774673 162.858738 
L 330.476421 166.894865 
L 330.15086 167.035061 
L 329.138028 167.960132 
L 328.472112 168.87624 
L 327.45959 169.602915 
L 326.793241 170.197682 
L 326.117112 171.08864 
L 321.480115 175.168465 
L 321.152325 175.301027 
L 320.158186 176.213975 
L 319.485894 177.011426 
L 318.821897 177.250795 
L 318.142921 177.866133 
L 317.13484 178.878416 
L 316.795785 179.053579 
L 315.153617 180.474139 
L 314.502369 180.809425 
L 312.870847 182.192034 
L 311.865319 182.876471 
L 310.875388 183.797351 
L 309.556043 184.874104 
L 308.893345 185.69764 
L 307.908613 186.136058 
L 307.580204 186.409968 
L 306.907789 187.283836 
L 306.238717 187.860611 
L 305.580537 188.1751 
L 304.587635 189.084243 
L 303.244291 190.004058 
L 302.269214 190.828158 
L 301.29075 191.423167 
L 299.988255 192.678736 
L 299.336884 192.968808 
L 298.002699 194.158907 
L 296.997666 194.753496 
L 295.64021 195.912238 
L 294.987106 196.187615 
L 293.998908 196.920997 
L 291.669903 198.651564 
L 291.012838 198.970744 
L 290.339061 199.580021 
L 289.666893 200.351999 
L 288.987422 200.672163 
L 288.311417 201.03779 
L 287.645687 201.708975 
L 286.98268 201.996758 
L 286.314102 202.181135 
L 284.994834 203.627603 
L 283.999333 203.825458 
L 283.324318 204.553617 
L 282.993805 204.823755 
L 282.331417 204.996637 
L 281.993847 205.212557 
L 280.989805 206.278533 
L 279.996903 206.680822 
L 279.665647 207.138553 
L 279.338476 207.257419 
L 278.347679 207.972754 
L 278.017846 208.051017 
L 277.680834 208.557114 
L 277.01891 208.723 
L 276.350704 209.106006 
L 276.017467 209.174339 
L 275.685964 209.867578 
L 275.349818 210.025717 
L 275.011258 209.962084 
L 274.67109 210.085094 
L 274.341071 210.351169 
L 274.011672 210.386959 
L 273.672618 211.241094 
L 273.338638 211.343331 
L 272.997851 211.263479 
L 272.671917 211.304985 
L 272.337814 211.508894 
L 272.004454 211.500922 
L 271.671465 212.714945 
L 271.33699 212.79944 
L 271.007715 212.592475 
L 270.674231 212.551768 
L 270.333319 212.626613 
L 269.995688 212.515018 
L 269.667898 213.838299 
L 269.327048 214.334231 
L 268.99604 214.125743 
L 267.985684 213.941495 
L 267.653128 214.63072 
L 267.324781 215.813353 
L 266.326495 215.380683 
L 265.660022 215.407841 
L 265.329694 216.87093 
L 265.004627 216.890034 
L 264.351152 216.691808 
L 264.017544 216.677178 
L 263.691363 216.376175 
L 263.357631 217.983075 
L 262.022085 217.915428 
L 261.689715 217.5015 
L 261.353136 219.025723 
L 261.019404 219.149623 
L 260.022278 219.188239 
L 259.695045 218.890372 
L 259.366018 220.06933 
L 259.028634 220.549237 
L 258.351144 220.44401 
L 258.020383 220.467947 
L 257.690427 220.136627 
L 257.35917 220.777212 
L 257.025377 221.71876 
L 256.363422 221.595383 
L 256.032042 221.702598 
L 255.373367 221.659024 
L 255.04075 222.466406 
L 253.701552 222.857284 
L 253.03774 223.829439 
L 252.376048 223.809202 
L 252.038726 223.991573 
L 251.6993 223.900146 
L 251.033322 225.053821 
L 250.358555 224.98735 
L 250.019748 225.170366 
L 249.692082 225.152885 
L 249.026599 226.280431 
L 248.701656 226.123187 
L 248.0462 226.157429 
L 247.717915 226.191257 
L 247.381893 226.602005 
L 247.04878 227.441953 
L 245.725984 227.365737 
L 245.400113 227.603909 
L 245.072694 228.521693 
L 244.39983 228.646613 
L 243.412375 228.744332 
L 243.079696 229.460529 
L 241.744335 229.698007 
L 241.415431 229.906217 
L 241.079966 230.640599 
L 239.414959 231.095747 
L 239.081289 231.585851 
L 238.749724 231.829871 
L 238.418096 231.78903 
L 237.422719 232.236992 
L 236.748571 232.754664 
L 235.753951 232.93352 
L 235.091687 233.399183 
L 234.425461 233.88774 
L 233.756388 234.12627 
L 233.087749 234.696403 
L 232.081726 235.027767 
L 231.425155 235.252232 
L 230.095304 236.028365 
L 228.104765 237.032768 
L 227.124366 237.430833 
L 226.796824 237.714142 
L 226.140625 237.937441 
L 225.127856 238.668502 
L 224.462496 238.990504 
L 223.795033 239.228801 
L 223.133882 239.813798 
L 218.175254 242.101548 
L 216.180167 242.957271 
L 215.855595 243.066545 
L 214.856071 243.792253 
L 213.861189 244.044794 
L 213.194221 244.541315 
L 212.863893 244.925111 
L 212.202742 244.975069 
L 211.870666 244.911121 
L 211.533221 245.042623 
L 210.871761 245.667256 
L 209.878983 245.958231 
L 209.541104 245.91581 
L 208.876612 246.678083 
L 207.204177 247.221337 
L 206.541913 247.712666 
L 205.889304 247.970692 
L 204.22015 248.605135 
L 202.875281 249.343894 
L 202.209674 249.526853 
L 201.552051 249.934865 
L 201.227109 250.28832 
L 200.893377 250.472431 
L 199.899856 250.580065 
L 199.573057 250.705751 
L 198.564991 251.321629 
L 197.580507 251.534442 
L 195.923979 252.466842 
L 193.580476 253.328605 
L 192.906823 253.889581 
L 191.90996 254.252596 
L 190.927952 254.48039 
L 189.617906 255.093791 
L 188.618815 255.398875 
L 187.289791 256.132219 
L 186.295899 256.492466 
L 185.960929 256.751705 
L 184.3096 257.272527 
L 183.974136 257.610377 
L 183.312985 257.749162 
L 182.979625 257.78625 
L 182.310304 258.1105 
L 181.973973 258.42752 
L 180.31924 258.909362 
L 179.659451 259.465759 
L 179.319329 259.582078 
L 178.662387 259.647093 
L 177.666267 260.055381 
L 176.672375 260.58084 
L 174.706254 261.30354 
L 173.39101 261.97437 
L 172.050636 262.32715 
L 171.388866 262.735339 
L 169.738853 263.213273 
L 169.40475 263.470384 
L 167.747727 263.933486 
L 166.412985 264.633384 
L 165.75363 264.947937 
L 163.791099 265.589683 
L 163.125716 265.787337 
L 162.457634 266.039466 
L 161.792089 266.467662 
L 161.127349 266.803803 
L 159.460423 267.303856 
L 158.445734 267.664292 
L 157.78087 267.842348 
L 156.427499 268.599027 
L 155.750256 268.726261 
L 153.730566 269.467108 
L 153.392625 269.531142 
L 152.060545 270.202842 
L 150.08873 270.925242 
L 148.089681 271.681912 
L 147.416833 272.028935 
L 146.103623 272.299532 
L 144.760031 272.858057 
L 143.777403 273.100937 
L 142.446685 273.853456 
L 141.77427 274.053236 
L 140.77097 274.316115 
L 140.097627 274.604946 
L 139.76309 274.885918 
L 138.761581 275.192603 
L 138.090776 275.220906 
L 136.748359 275.993074 
L 136.09216 275.979736 
L 135.420612 276.240464 
L 134.418612 276.685816 
L 133.761794 276.798777 
L 133.08616 277.044153 
L 132.413807 277.46245 
L 131.759836 277.403124 
L 131.086926 277.810729 
L 130.078764 278.334479 
L 129.751098 278.266415 
L 129.097003 278.476986 
L 128.446746 278.830716 
L 127.782253 278.992978 
L 127.102535 279.147619 
L 125.778748 279.66937 
L 124.784547 279.992862 
L 124.4575 280.146422 
L 124.126491 280.424911 
L 122.47177 280.845944 
L 121.118275 281.434109 
L 120.79098 281.438138 
L 120.459352 281.593986 
L 119.789784 281.694683 
L 118.452629 282.357176 
L 118.114812 282.557635 
L 116.46695 282.653576 
L 114.126908 283.684411 
L 113.795157 283.686399 
L 112.120866 284.257299 
L 111.441766 284.359863 
L 110.127264 284.837291 
L 109.477626 284.948318 
L 109.137705 285.182955 
L 108.482991 285.444128 
L 107.818622 285.666594 
L 107.486624 285.538393 
L 104.837817 286.598041 
L 104.160079 286.947055 
L 102.832703 286.977313 
L 101.831693 287.560344 
L 101.167324 287.7007 
L 93.904807 289.736974 
L 93.576893 289.730705 
L 92.904849 290.07994 
L 92.565299 290.437636 
L 91.577845 290.420133 
L 91.238666 290.463736 
L 90.566932 290.902058 
L 89.244237 290.843668 
L 88.9136 291.49541 
L 88.57925 291.673822 
L 87.914262 291.516662 
L 87.253173 291.435197 
L 86.595056 292.354038 
L 85.919174 292.140151 
L 85.259633 292.123086 
L 84.59285 293.073098 
L 83.921797 292.617463 
L 83.246411 292.419446 
L 82.910884 292.592611 
L 82.58427 293.632147 
L 82.25908 293.681948 
L 81.925794 293.385852 
L 81.255359 293.268177 
L 80.921937 292.944796 
L 80.592724 293.441801 
L 80.26679 294.16152 
L 78.923446 293.700833 
L 78.592561 293.538027 
L 77.918537 294.912736 
L 76.926687 294.404435 
L 76.265537 294.278902 
L 75.932053 295.278198 
L 75.595536 295.488 
L 74.2806 293.895968 
L 73.922047 295.264879 
L 73.83295 294.535028 
L 73.83295 294.535028 
" clip-path="url(#p7af1caef44)" style="fill: none; stroke: #ff0000; stroke-width: 1.5; stroke-linecap: square"/>
   </g>
   <g id="line2d_19">
    <path d="M 73.903299 289.365492 
L 73.90381 289.176289 
L 73.904545 289.234149 
L 74.586167 281.386551 
L 74.940943 280.837828 
L 75.279131 280.544604 
L 75.608159 279.460184 
L 76.326128 276.41019 
L 76.705909 287.487709 
L 77.125302 287.148119 
L 77.464975 287.178815 
L 78.20275 287.823689 
L 78.597881 287.985165 
L 79.009847 287.983618 
L 79.435676 287.835039 
L 80.80265 286.860611 
L 82.296026 285.891237 
L 84.095405 285.136778 
L 85.614528 284.54143 
L 86.779123 284.12252 
L 87.169302 283.901716 
L 88.340829 282.856279 
L 89.121187 282.086171 
L 89.902536 281.214495 
L 90.293705 280.923786 
L 90.683884 280.814931 
L 91.074063 280.939778 
L 91.464242 281.299876 
L 92.239649 282.410413 
L 92.622896 286.060471 
L 93.381467 286.806461 
L 93.755801 286.964068 
L 94.127164 286.943884 
L 94.493576 286.743199 
L 95.218477 285.85998 
L 96.639561 283.521926 
L 97.340695 282.697519 
L 98.038858 282.162532 
L 98.733059 281.876724 
L 101.809928 281.190966 
L 103.812319 280.122539 
L 105.126449 279.48076 
L 107.071405 278.700979 
L 108.515265 277.739344 
L 109.951203 276.865411 
L 111.38318 276.290441 
L 112.33585 275.932408 
L 114.717527 274.865271 
L 119.471967 273.122822 
L 121.846712 271.888276 
L 124.229378 270.951661 
L 129.491843 269.020652 
L 130.930752 268.235453 
L 132.85887 267.108731 
L 134.313624 266.598765 
L 136.261548 266.074612 
L 139.194819 265.064739 
L 145.080184 262.594615 
L 150.674401 260.386568 
L 153.975078 258.737239 
L 162.258954 255.608054 
L 164.235125 254.775307 
L 166.528665 253.830438 
L 169.619398 252.676372 
L 171.07019 252.117653 
L 173.471673 250.942951 
L 178.231064 248.311351 
L 179.657099 247.727095 
L 182.509169 246.345002 
L 184.888865 244.961877 
L 187.282425 243.581331 
L 188.245989 243.20163 
L 190.663317 242.408435 
L 192.11609 241.823922 
L 194.05213 240.813792 
L 197.939066 238.545384 
L 203.477825 236.193401 
L 208.041137 233.330162 
L 209.682068 232.67626 
L 210.996199 232.162166 
L 213.953241 230.734158 
L 215.922951 229.429966 
L 217.569824 228.406938 
L 220.217891 227.140922 
L 224.522735 225.526158 
L 229.108823 222.740304 
L 230.73589 221.961297 
L 234.764439 219.823928 
L 239.058388 216.592852 
L 240.968681 215.428984 
L 242.882935 214.309484 
L 245.760552 212.417699 
L 249.127579 210.393311 
L 250.572429 209.521442 
L 252.019261 208.73418 
L 257.326289 205.382901 
L 261.672725 202.413902 
L 264.098965 200.752708 
L 266.859927 198.836659 
L 269.137622 197.291542 
L 270.439869 196.354669 
L 273.705886 193.720489 
L 276.337118 191.951988 
L 278.315742 190.854671 
L 280.294365 189.352889 
L 282.934511 187.286714 
L 289.541806 182.689022 
L 292.817725 180.078058 
L 294.449743 178.721244 
L 298.994239 175.2673 
L 301.411566 173.227436 
L 306.233347 169.12346 
L 309.122058 166.717823 
L 310.562948 165.289815 
L 312.003837 163.89792 
L 316.807793 159.40444 
L 320.178781 156.160467 
L 322.592147 153.893607 
L 331.352297 145.382524 
L 334.291529 142.786521 
L 336.573185 140.32981 
L 340.804746 135.74966 
L 344.06284 132.299327 
L 346.019677 130.077867 
L 349.299557 125.951707 
L 351.283132 123.73231 
L 356.581248 118.111075 
L 365.396917 107.211162 
L 367.802361 103.686541 
L 372.603345 97.015967 
L 376.445717 92.172814 
L 378.838287 88.446041 
L 380.277196 86.157965 
L 382.199372 83.729299 
L 383.636301 82.116283 
L 390.35352 74.69856 
L 392.948606 70.980992 
L 394.462283 68.397886 
L 395.515964 65.822002 
L 396.226258 63.711976 
L 396.951655 60.920962 
L 397.62964 57.460828 
L 397.954305 55.057981 
L 398.334611 53.568 
L 398.487273 54.632509 
L 398.408203 67.063826 
L 398.39994 82.359875 
L 398.074998 82.674428 
L 397.414899 84.943836 
L 396.38548 85.179585 
L 395.363736 86.142317 
L 395.029014 86.216188 
L 394.350781 88.16951 
L 394.00628 88.637946 
L 393.321981 89.148686 
L 392.652289 89.788401 
L 392.31472 90.338736 
L 391.323056 93.118786 
L 390.664784 93.862922 
L 390.002643 94.82675 
L 388.996806 96.595961 
L 387.328394 99.18126 
L 386.658207 100.279286 
L 386.004113 101.010315 
L 385.000751 102.685955 
L 384.323323 103.951326 
L 382.674934 106.080683 
L 380.669201 108.963784 
L 379.674566 110.334592 
L 378.675104 111.944196 
L 378.012839 112.841603 
L 377.354784 113.574437 
L 375.999555 115.636098 
L 371.02304 122.211617 
L 369.686999 123.86991 
L 368.710561 125.178358 
L 365.736807 128.936956 
L 365.077514 129.711385 
L 364.411164 130.730156 
L 363.738006 131.53167 
L 363.072895 132.294555 
L 362.744238 132.561146 
L 362.07727 133.500921 
L 360.055197 135.902946 
L 358.742923 137.404147 
L 357.763731 138.70144 
L 357.09701 139.326903 
L 356.422243 140.050967 
L 355.423152 141.186202 
L 354.431364 142.243344 
L 353.07985 143.925497 
L 345.401326 152.295876 
L 344.408796 153.149947 
L 341.742376 156.012517 
L 340.738024 156.825703 
L 339.413248 158.355085 
L 338.411433 159.275707 
L 337.399716 160.439446 
L 336.42105 161.144357 
L 334.774673 162.858738 
L 330.476421 166.894865 
L 330.15086 167.035061 
L 329.138028 167.960132 
L 328.472112 168.87624 
L 327.45959 169.602915 
L 326.793241 170.197682 
L 326.117112 171.08864 
L 321.480115 175.168465 
L 321.152325 175.301027 
L 320.158186 176.213975 
L 319.485894 177.011426 
L 318.821897 177.250795 
L 318.142921 177.866133 
L 317.13484 178.878416 
L 316.795785 179.053579 
L 315.153617 180.474139 
L 314.502369 180.809425 
L 312.870847 182.192034 
L 311.865319 182.876471 
L 310.875388 183.797351 
L 309.556043 184.874104 
L 308.893345 185.69764 
L 307.908613 186.136058 
L 307.580204 186.409968 
L 306.907789 187.283836 
L 306.238717 187.860611 
L 305.580537 188.1751 
L 304.587635 189.084243 
L 303.244291 190.004058 
L 302.269214 190.828158 
L 301.29075 191.423167 
L 299.988255 192.678736 
L 299.336884 192.968808 
L 298.002699 194.158907 
L 296.997666 194.753496 
L 295.64021 195.912238 
L 294.987106 196.187615 
L 293.998908 196.920997 
L 291.669903 198.651564 
L 291.012838 198.970744 
L 290.339061 199.580021 
L 289.666893 200.351999 
L 288.987422 200.672163 
L 288.311417 201.03779 
L 287.645687 201.708975 
L 286.98268 201.996758 
L 286.314102 202.181135 
L 284.994834 203.627603 
L 283.999333 203.825458 
L 283.324318 204.553617 
L 282.993805 204.823755 
L 282.331417 204.996637 
L 281.993847 205.212557 
L 280.989805 206.278533 
L 279.996903 206.680822 
L 279.665647 207.138553 
L 279.338476 207.257419 
L 278.347679 207.972754 
L 278.017846 208.051017 
L 277.680834 208.557114 
L 277.01891 208.723 
L 276.350704 209.106006 
L 276.017467 209.174339 
L 275.685964 209.867578 
L 275.349818 210.025717 
L 275.011258 209.962084 
L 274.67109 210.085094 
L 274.341071 210.351169 
L 274.011672 210.386959 
L 273.672618 211.241094 
L 273.338638 211.343331 
L 272.997851 211.263479 
L 272.671917 211.304985 
L 272.337814 211.508894 
L 272.004454 211.500922 
L 271.671465 212.714945 
L 271.33699 212.79944 
L 271.007715 212.592475 
L 270.674231 212.551768 
L 270.333319 212.626613 
L 269.995688 212.515018 
L 269.667898 213.838299 
L 269.327048 214.334231 
L 268.99604 214.125743 
L 267.985684 213.941495 
L 267.653128 214.63072 
L 267.324781 215.813353 
L 266.326495 215.380683 
L 265.660022 215.407841 
L 265.329694 216.87093 
L 265.004627 216.890034 
L 264.351152 216.691808 
L 264.017544 216.677178 
L 263.691363 216.376175 
L 263.357631 217.983075 
L 262.022085 217.915428 
L 261.689715 217.5015 
L 261.353136 219.025723 
L 261.019404 219.149623 
L 260.022278 219.188239 
L 259.695045 218.890372 
L 259.366018 220.06933 
L 259.028634 220.549237 
L 258.351144 220.44401 
L 258.020383 220.467947 
L 257.690427 220.136627 
L 257.35917 220.777212 
L 257.025377 221.71876 
L 256.363422 221.595383 
L 256.032042 221.702598 
L 255.373367 221.659024 
L 255.04075 222.466406 
L 253.701552 222.857284 
L 253.03774 223.829439 
L 252.376048 223.809202 
L 252.038726 223.991573 
L 251.6993 223.900146 
L 251.033322 225.053821 
L 250.358555 224.98735 
L 250.019748 225.170366 
L 249.692082 225.152885 
L 249.026599 226.280431 
L 248.701656 226.123187 
L 248.0462 226.157429 
L 247.717915 226.191257 
L 247.381893 226.602005 
L 247.04878 227.441953 
L 245.725984 227.365737 
L 245.400113 227.603909 
L 245.072694 228.521693 
L 244.39983 228.646613 
L 243.412375 228.744332 
L 243.079696 229.460529 
L 241.744335 229.698007 
L 241.415431 229.906217 
L 241.079966 230.640599 
L 239.414959 231.095747 
L 239.081289 231.585851 
L 238.749724 231.829871 
L 238.418096 231.78903 
L 237.422719 232.236992 
L 236.748571 232.754664 
L 235.753951 232.93352 
L 235.091687 233.399183 
L 234.425461 233.88774 
L 233.756388 234.12627 
L 233.087749 234.696403 
L 232.081726 235.027767 
L 231.425155 235.252232 
L 230.095304 236.028365 
L 228.104765 237.032768 
L 227.124366 237.430833 
L 226.796824 237.714142 
L 226.140625 237.937441 
L 225.127856 238.668502 
L 224.462496 238.990504 
L 223.795033 239.228801 
L 223.133882 239.813798 
L 218.175254 242.101548 
L 216.180167 242.957271 
L 215.855595 243.066545 
L 214.856071 243.792253 
L 213.861189 244.044794 
L 213.194221 244.541315 
L 212.863893 244.925111 
L 212.202742 244.975069 
L 211.870666 244.911121 
L 211.533221 245.042623 
L 210.871761 245.667256 
L 209.878983 245.958231 
L 209.541104 245.91581 
L 208.876612 246.678083 
L 207.204177 247.221337 
L 206.541913 247.712666 
L 205.889304 247.970692 
L 204.22015 248.605135 
L 202.875281 249.343894 
L 202.209674 249.526853 
L 201.552051 249.934865 
L 201.227109 250.28832 
L 200.893377 250.472431 
L 199.899856 250.580065 
L 199.573057 250.705751 
L 198.564991 251.321629 
L 197.580507 251.534442 
L 195.923979 252.466842 
L 193.580476 253.328605 
L 192.906823 253.889581 
L 191.90996 254.252596 
L 190.927952 254.48039 
L 189.617906 255.093791 
L 188.618815 255.398875 
L 187.289791 256.132219 
L 186.295899 256.492466 
L 185.960929 256.751705 
L 184.3096 257.272527 
L 183.974136 257.610377 
L 183.312985 257.749162 
L 182.979625 257.78625 
L 182.310304 258.1105 
L 181.973973 258.42752 
L 180.31924 258.909362 
L 179.659451 259.465759 
L 179.319329 259.582078 
L 178.662387 259.647093 
L 177.666267 260.055381 
L 176.672375 260.58084 
L 174.706254 261.30354 
L 173.39101 261.97437 
L 172.050636 262.32715 
L 171.388866 262.735339 
L 169.738853 263.213273 
L 169.40475 263.470384 
L 167.747727 263.933486 
L 166.412985 264.633384 
L 165.75363 264.947937 
L 163.791099 265.589683 
L 163.125716 265.787337 
L 162.457634 266.039466 
L 161.792089 266.467662 
L 161.127349 266.803803 
L 159.460423 267.303856 
L 158.445734 267.664292 
L 157.78087 267.842348 
L 156.427499 268.599027 
L 155.750256 268.726261 
L 153.730566 269.467108 
L 153.392625 269.531142 
L 152.060545 270.202842 
L 150.08873 270.925242 
L 148.089681 271.681912 
L 147.416833 272.028935 
L 146.103623 272.299532 
L 144.760031 272.858057 
L 143.777403 273.100937 
L 142.446685 273.853456 
L 141.77427 274.053236 
L 140.77097 274.316115 
L 140.097627 274.604946 
L 139.76309 274.885918 
L 138.761581 275.192603 
L 138.090776 275.220906 
L 136.748359 275.993074 
L 136.09216 275.979736 
L 135.420612 276.240464 
L 134.418612 276.685816 
L 133.761794 276.798777 
L 133.08616 277.044153 
L 132.413807 277.46245 
L 131.759836 277.403124 
L 131.086926 277.810729 
L 130.078764 278.334479 
L 129.751098 278.266415 
L 129.097003 278.476986 
L 128.446746 278.830716 
L 127.782253 278.992978 
L 127.102535 279.147619 
L 125.778748 279.66937 
L 124.784547 279.992862 
L 124.4575 280.146422 
L 124.126491 280.424911 
L 122.47177 280.845944 
L 121.118275 281.434109 
L 120.79098 281.438138 
L 120.459352 281.593986 
L 119.789784 281.694683 
L 118.452629 282.357176 
L 118.114812 282.557635 
L 116.46695 282.653576 
L 114.126908 283.684411 
L 113.795157 283.686399 
L 112.120866 284.257299 
L 111.441766 284.359863 
L 110.127264 284.837291 
L 109.477626 284.948318 
L 109.137705 285.182955 
L 108.482991 285.444128 
L 107.818622 285.666594 
L 107.486624 285.538393 
L 104.837817 286.598041 
L 104.160079 286.947055 
L 102.832703 286.977313 
L 101.831693 287.560344 
L 101.167324 287.7007 
L 93.904807 289.736974 
L 93.576893 289.730705 
L 92.904849 290.07994 
L 92.565299 290.437636 
L 91.577845 290.420133 
L 91.238666 290.463736 
L 90.566932 290.902058 
L 89.244237 290.843668 
L 88.9136 291.49541 
L 88.57925 291.673822 
L 87.914262 291.516662 
L 87.253173 291.435197 
L 86.595056 292.354038 
L 85.919174 292.140151 
L 85.259633 292.123086 
L 84.59285 293.073098 
L 83.921797 292.617463 
L 83.246411 292.419446 
L 82.910884 292.592611 
L 82.58427 293.632147 
L 82.25908 293.681948 
L 81.925794 293.385852 
L 81.255359 293.268177 
L 80.921937 292.944796 
L 80.592724 293.441801 
L 80.26679 294.16152 
L 78.923446 293.700833 
L 78.592561 293.538027 
L 77.918537 294.912736 
L 76.926687 294.404435 
L 76.265537 294.278902 
L 75.932053 295.278198 
L 75.595536 295.488 
L 74.2806 293.895968 
L 73.922047 295.264879 
L 73.83295 294.535028 
L 73.83295 294.535028 
" clip-path="url(#p7af1caef44)" style="fill: none; stroke: #000000; stroke-width: 1.5; stroke-linecap: square"/>
   </g>
   <g id="patch_3">
    <path d="M 57.6 307.584 
L 57.6 41.472 
" style="fill: none; stroke: #000000; stroke-width: 0.8; stroke-linejoin: miter; stroke-linecap: square"/>
   </g>
   <g id="patch_4">
    <path d="M 414.72 307.584 
L 414.72 41.472 
" style="fill: none; stroke: #000000; stroke-width: 0.8; stroke-linejoin: miter; stroke-linecap: square"/>
   </g>
   <g id="patch_5">
    <path d="M 57.6 307.584 
L 414.72 307.584 
" style="fill: none; stroke: #000000; stroke-width: 0.8; stroke-linejoin: miter; stroke-linecap: square"/>
   </g>
   <g id="patch_6">
    <path d="M 57.6 41.472 
L 414.72 41.472 
" style="fill: none; stroke: #000000; stroke-width: 0.8; stroke-linejoin: miter; stroke-linecap: square"/>
   </g>
   <g id="text_20">
    <!-- 2025-06-18 trial 8 -->
    <g transform="translate(181.83 35.472) scale(0.12 -0.12)">
     <defs>
      <path id="DejaVuSans-2d" d="M 313 2009 
L 1997 2009 
L 1997 1497 
L 313 1497 
L 313 2009 
z
" transform="scale(0.015625)"/>
      <path id="DejaVuSans-36" d="M 2113 2584 
Q 1688 2584 1439 2293 
Q 1191 2003 1191 1497 
Q 1191 994 1439 701 
Q 1688 409 2113 409 
Q 2538 409 2786 701 
Q 3034 994 3034 1497 
Q 3034 2003 2786 2293 
Q 2538 2584 2113 2584 
z
M 3366 4563 
L 3366 3988 
Q 3128 4100 2886 4159 
Q 2644 4219 2406 4219 
Q 1781 4219 1451 3797 
Q 1122 3375 1075 2522 
Q 1259 2794 1537 2939 
Q 1816 3084 2150 3084 
Q 2853 3084 3261 2657 
Q 3669 2231 3669 1497 
Q 3669 778 3244 343 
Q 2819 -91 2113 -91 
Q 1303 -91 875 529 
Q 447 1150 447 2328 
Q 447 3434 972 4092 
Q 1497 4750 2381 4750 
Q 2619 4750 2861 4703 
Q 3103 4656 3366 4563 
z
" transform="scale(0.015625)"/>
      <path id="DejaVuSans-38" d="M 2034 2216 
Q 1584 2216 1326 1975 
Q 1069 1734 1069 1313 
Q 1069 891 1326 650 
Q 1584 409 2034 409 
Q 2484 409 2743 651 
Q 3003 894 3003 1313 
Q 3003 1734 2745 1975 
Q 2488 2216 2034 2216 
z
M 1403 2484 
Q 997 2584 770 2862 
Q 544 3141 544 3541 
Q 544 4100 942 4425 
Q 1341 4750 2034 4750 
Q 2731 4750 3128 4425 
Q 3525 4100 3525 3541 
Q 3525 3141 3298 2862 
Q 3072 2584 2669 2484 
Q 3125 2378 3379 2068 
Q 3634 1759 3634 1313 
Q 3634 634 3220 271 
Q 2806 -91 2034 -91 
Q 1263 -91 848 271 
Q 434 634 434 1313 
Q 434 1759 690 2068 
Q 947 2378 1403 2484 
z
M 1172 3481 
Q 1172 3119 1398 2916 
Q 1625 2713 2034 2713 
Q 2441 2713 2670 2916 
Q 2900 3119 2900 3481 
Q 2900 3844 2670 4047 
Q 2441 4250 2034 4250 
Q 1625 4250 1398 4047 
Q 1172 3844 1172 3481 
z
" transform="scale(0.015625)"/>
      <path id="DejaVuSans-6c" d="M 603 4863 
L 1178 4863 
L 1178 0 
L 603 0 
L 603 4863 
z
" transform="scale(0.015625)"/>
     </defs>
     <use xlink:href="#DejaVuSans-32"/>
     <use xlink:href="#DejaVuSans-30" transform="translate(63.623047 0)"/>
     <use xlink:href="#DejaVuSans-32" transform="translate(127.246094 0)"/>
     <use xlink:href="#DejaVuSans-35" transform="translate(190.869141 0)"/>
     <use xlink:href="#DejaVuSans-2d" transform="translate(254.492188 0)"/>
     <use xlink:href="#DejaVuSans-30" transform="translate(290.576172 0)"/>
     <use xlink:href="#DejaVuSans-36" transform="translate(354.199219 0)"/>
     <use xlink:href="#DejaVuSans-2d" transform="translate(417.822266 0)"/>
     <use xlink:href="#DejaVuSans-31" transform="translate(453.90625 0)"/>
     <use xlink:href="#DejaVuSans-38" transform="translate(517.529297 0)"/>
     <use xlink:href="#DejaVuSans-20" transform="translate(581.152344 0)"/>
     <use xlink:href="#DejaVuSans-74" transform="translate(612.939453 0)"/>
     <use xlink:href="#DejaVuSans-72" transform="translate(652.148438 0)"/>
     <use xlink:href="#DejaVuSans-69" transform="translate(693.261719 0)"/>
     <use xlink:href="#DejaVuSans-61" transform="translate(721.044922 0)"/>
     <use xlink:href="#DejaVuSans-6c" transform="translate(782.324219 0)"/>
     <use xlink:href="#DejaVuSans-20" transform="translate(810.107422 0)"/>
     <use xlink:href="#DejaVuSans-38" transform="translate(841.894531 0)"/>
    </g>
   </g>
  </g>
 </g>
 <defs>
  <clipPath id="p7af1caef44">
   <rect x="57.6" y="41.472" width="357.12" height="266.112"/>
  </clipPath>
 </defs>
</svg>
