<?xml version="1.0" encoding="utf-8" standalone="no"?>
<!DOCTYPE svg PUBLIC "-//W3C//DTD SVG 1.1//EN"
  "http://www.w3.org/Graphics/SVG/1.1/DTD/svg11.dtd">
<svg xmlns:xlink="http://www.w3.org/1999/xlink" width="432pt" height="288pt" viewBox="0 0 432 288" xmlns="http://www.w3.org/2000/svg" version="1.1">
 <metadata>
  <rdf:RDF xmlns:dc="http://purl.org/dc/elements/1.1/" xmlns:cc="http://creativecommons.org/ns#" xmlns:rdf="http://www.w3.org/1999/02/22-rdf-syntax-ns#">
   <cc:Work>
    <dc:type rdf:resource="http://purl.org/dc/dcmitype/StillImage"/>
    <dc:date>2025-07-03T20:54:30.986550</dc:date>
    <dc:format>image/svg+xml</dc:format>
    <dc:creator>
     <cc:Agent>
      <dc:title>Matplotlib v3.9.2, https://matplotlib.org/</dc:title>
     </cc:Agent>
    </dc:creator>
   </cc:Work>
  </rdf:RDF>
 </metadata>
 <defs>
  <style type="text/css">*{stroke-linejoin: round; stroke-linecap: butt}</style>
 </defs>
 <g id="figure_1">
  <g id="patch_1">
   <path d="M 0 288 
L 432 288 
L 432 0 
L 0 0 
z
" style="fill: #ffffff"/>
  </g>
  <g id="axes_1">
   <g id="patch_2">
    <path d="M 54 256.32 
L 388.8 256.32 
L 388.8 34.56 
L 54 34.56 
z
" style="fill: #ffffff"/>
   </g>
   <g id="matplotlib.axis_1">
    <g id="xtick_1">
     <g id="line2d_1">
      <defs>
       <path id="mc5e6c2cd13" d="M 0 0 
L 0 3.5 
" style="stroke: #000000; stroke-width: 0.8"/>
      </defs>
      <g>
       <use xlink:href="#mc5e6c2cd13" x="69.432761" y="256.32" style="stroke: #000000; stroke-width: 0.8"/>
      </g>
     </g>
     <g id="text_1">
      <!-- 0.00 -->
      <g transform="translate(58.299949 270.918437) scale(0.1 -0.1)">
       <defs>
        <path id="DejaVuSans-30" d="M 2034 4250 
Q 1547 4250 1301 3770 
Q 1056 3291 1056 2328 
Q 1056 1369 1301 889 
Q 1547 409 2034 409 
Q 2525 409 2770 889 
Q 3016 1369 3016 2328 
Q 3016 3291 2770 3770 
Q 2525 4250 2034 4250 
z
M 2034 4750 
Q 2819 4750 3233 4129 
Q 3647 3509 3647 2328 
Q 3647 1150 3233 529 
Q 2819 -91 2034 -91 
Q 1250 -91 836 529 
Q 422 1150 422 2328 
Q 422 3509 836 4129 
Q 1250 4750 2034 4750 
z
" transform="scale(0.015625)"/>
        <path id="DejaVuSans-2e" d="M 684 794 
L 1344 794 
L 1344 0 
L 684 0 
L 684 794 
z
" transform="scale(0.015625)"/>
       </defs>
       <use xlink:href="#DejaVuSans-30"/>
       <use xlink:href="#DejaVuSans-2e" x="63.623047"/>
       <use xlink:href="#DejaVuSans-30" x="95.410156"/>
       <use xlink:href="#DejaVuSans-30" x="159.033203"/>
      </g>
     </g>
    </g>
    <g id="xtick_2">
     <g id="line2d_2">
      <g>
       <use xlink:href="#mc5e6c2cd13" x="126.16342" y="256.32" style="stroke: #000000; stroke-width: 0.8"/>
      </g>
     </g>
     <g id="text_2">
      <!-- 0.02 -->
      <g transform="translate(115.030607 270.918437) scale(0.1 -0.1)">
       <defs>
        <path id="DejaVuSans-32" d="M 1228 531 
L 3431 531 
L 3431 0 
L 469 0 
L 469 531 
Q 828 903 1448 1529 
Q 2069 2156 2228 2338 
Q 2531 2678 2651 2914 
Q 2772 3150 2772 3378 
Q 2772 3750 2511 3984 
Q 2250 4219 1831 4219 
Q 1534 4219 1204 4116 
Q 875 4013 500 3803 
L 500 4441 
Q 881 4594 1212 4672 
Q 1544 4750 1819 4750 
Q 2544 4750 2975 4387 
Q 3406 4025 3406 3419 
Q 3406 3131 3298 2873 
Q 3191 2616 2906 2266 
Q 2828 2175 2409 1742 
Q 1991 1309 1228 531 
z
" transform="scale(0.015625)"/>
       </defs>
       <use xlink:href="#DejaVuSans-30"/>
       <use xlink:href="#DejaVuSans-2e" x="63.623047"/>
       <use xlink:href="#DejaVuSans-30" x="95.410156"/>
       <use xlink:href="#DejaVuSans-32" x="159.033203"/>
      </g>
     </g>
    </g>
    <g id="xtick_3">
     <g id="line2d_3">
      <g>
       <use xlink:href="#mc5e6c2cd13" x="182.894078" y="256.32" style="stroke: #000000; stroke-width: 0.8"/>
      </g>
     </g>
     <g id="text_3">
      <!-- 0.04 -->
      <g transform="translate(171.761266 270.918437) scale(0.1 -0.1)">
       <defs>
        <path id="DejaVuSans-34" d="M 2419 4116 
L 825 1625 
L 2419 1625 
L 2419 4116 
z
M 2253 4666 
L 3047 4666 
L 3047 1625 
L 3713 1625 
L 3713 1100 
L 3047 1100 
L 3047 0 
L 2419 0 
L 2419 1100 
L 313 1100 
L 313 1709 
L 2253 4666 
z
" transform="scale(0.015625)"/>
       </defs>
       <use xlink:href="#DejaVuSans-30"/>
       <use xlink:href="#DejaVuSans-2e" x="63.623047"/>
       <use xlink:href="#DejaVuSans-30" x="95.410156"/>
       <use xlink:href="#DejaVuSans-34" x="159.033203"/>
      </g>
     </g>
    </g>
    <g id="xtick_4">
     <g id="line2d_4">
      <g>
       <use xlink:href="#mc5e6c2cd13" x="239.624737" y="256.32" style="stroke: #000000; stroke-width: 0.8"/>
      </g>
     </g>
     <g id="text_4">
      <!-- 0.06 -->
      <g transform="translate(228.491924 270.918437) scale(0.1 -0.1)">
       <defs>
        <path id="DejaVuSans-36" d="M 2113 2584 
Q 1688 2584 1439 2293 
Q 1191 2003 1191 1497 
Q 1191 994 1439 701 
Q 1688 409 2113 409 
Q 2538 409 2786 701 
Q 3034 994 3034 1497 
Q 3034 2003 2786 2293 
Q 2538 2584 2113 2584 
z
M 3366 4563 
L 3366 3988 
Q 3128 4100 2886 4159 
Q 2644 4219 2406 4219 
Q 1781 4219 1451 3797 
Q 1122 3375 1075 2522 
Q 1259 2794 1537 2939 
Q 1816 3084 2150 3084 
Q 2853 3084 3261 2657 
Q 3669 2231 3669 1497 
Q 3669 778 3244 343 
Q 2819 -91 2113 -91 
Q 1303 -91 875 529 
Q 447 1150 447 2328 
Q 447 3434 972 4092 
Q 1497 4750 2381 4750 
Q 2619 4750 2861 4703 
Q 3103 4656 3366 4563 
z
" transform="scale(0.015625)"/>
       </defs>
       <use xlink:href="#DejaVuSans-30"/>
       <use xlink:href="#DejaVuSans-2e" x="63.623047"/>
       <use xlink:href="#DejaVuSans-30" x="95.410156"/>
       <use xlink:href="#DejaVuSans-36" x="159.033203"/>
      </g>
     </g>
    </g>
    <g id="xtick_5">
     <g id="line2d_5">
      <g>
       <use xlink:href="#mc5e6c2cd13" x="296.355395" y="256.32" style="stroke: #000000; stroke-width: 0.8"/>
      </g>
     </g>
     <g id="text_5">
      <!-- 0.08 -->
      <g transform="translate(285.222583 270.918437) scale(0.1 -0.1)">
       <defs>
        <path id="DejaVuSans-38" d="M 2034 2216 
Q 1584 2216 1326 1975 
Q 1069 1734 1069 1313 
Q 1069 891 1326 650 
Q 1584 409 2034 409 
Q 2484 409 2743 651 
Q 3003 894 3003 1313 
Q 3003 1734 2745 1975 
Q 2488 2216 2034 2216 
z
M 1403 2484 
Q 997 2584 770 2862 
Q 544 3141 544 3541 
Q 544 4100 942 4425 
Q 1341 4750 2034 4750 
Q 2731 4750 3128 4425 
Q 3525 4100 3525 3541 
Q 3525 3141 3298 2862 
Q 3072 2584 2669 2484 
Q 3125 2378 3379 2068 
Q 3634 1759 3634 1313 
Q 3634 634 3220 271 
Q 2806 -91 2034 -91 
Q 1263 -91 848 271 
Q 434 634 434 1313 
Q 434 1759 690 2068 
Q 947 2378 1403 2484 
z
M 1172 3481 
Q 1172 3119 1398 2916 
Q 1625 2713 2034 2713 
Q 2441 2713 2670 2916 
Q 2900 3119 2900 3481 
Q 2900 3844 2670 4047 
Q 2441 4250 2034 4250 
Q 1625 4250 1398 4047 
Q 1172 3844 1172 3481 
z
" transform="scale(0.015625)"/>
       </defs>
       <use xlink:href="#DejaVuSans-30"/>
       <use xlink:href="#DejaVuSans-2e" x="63.623047"/>
       <use xlink:href="#DejaVuSans-30" x="95.410156"/>
       <use xlink:href="#DejaVuSans-38" x="159.033203"/>
      </g>
     </g>
    </g>
    <g id="xtick_6">
     <g id="line2d_6">
      <g>
       <use xlink:href="#mc5e6c2cd13" x="353.086054" y="256.32" style="stroke: #000000; stroke-width: 0.8"/>
      </g>
     </g>
     <g id="text_6">
      <!-- 0.10 -->
      <g transform="translate(341.953241 270.918437) scale(0.1 -0.1)">
       <defs>
        <path id="DejaVuSans-31" d="M 794 531 
L 1825 531 
L 1825 4091 
L 703 3866 
L 703 4441 
L 1819 4666 
L 2450 4666 
L 2450 531 
L 3481 531 
L 3481 0 
L 794 0 
L 794 531 
z
" transform="scale(0.015625)"/>
       </defs>
       <use xlink:href="#DejaVuSans-30"/>
       <use xlink:href="#DejaVuSans-2e" x="63.623047"/>
       <use xlink:href="#DejaVuSans-31" x="95.410156"/>
       <use xlink:href="#DejaVuSans-30" x="159.033203"/>
      </g>
     </g>
    </g>
    <g id="text_7">
     <!-- Strain -->
     <g transform="translate(206.588281 284.596563) scale(0.1 -0.1)">
      <defs>
       <path id="DejaVuSans-53" d="M 3425 4513 
L 3425 3897 
Q 3066 4069 2747 4153 
Q 2428 4238 2131 4238 
Q 1616 4238 1336 4038 
Q 1056 3838 1056 3469 
Q 1056 3159 1242 3001 
Q 1428 2844 1947 2747 
L 2328 2669 
Q 3034 2534 3370 2195 
Q 3706 1856 3706 1288 
Q 3706 609 3251 259 
Q 2797 -91 1919 -91 
Q 1588 -91 1214 -16 
Q 841 59 441 206 
L 441 856 
Q 825 641 1194 531 
Q 1563 422 1919 422 
Q 2459 422 2753 634 
Q 3047 847 3047 1241 
Q 3047 1584 2836 1778 
Q 2625 1972 2144 2069 
L 1759 2144 
Q 1053 2284 737 2584 
Q 422 2884 422 3419 
Q 422 4038 858 4394 
Q 1294 4750 2059 4750 
Q 2388 4750 2728 4690 
Q 3069 4631 3425 4513 
z
" transform="scale(0.015625)"/>
       <path id="DejaVuSans-74" d="M 1172 4494 
L 1172 3500 
L 2356 3500 
L 2356 3053 
L 1172 3053 
L 1172 1153 
Q 1172 725 1289 603 
Q 1406 481 1766 481 
L 2356 481 
L 2356 0 
L 1766 0 
Q 1100 0 847 248 
Q 594 497 594 1153 
L 594 3053 
L 172 3053 
L 172 3500 
L 594 3500 
L 594 4494 
L 1172 4494 
z
" transform="scale(0.015625)"/>
       <path id="DejaVuSans-72" d="M 2631 2963 
Q 2534 3019 2420 3045 
Q 2306 3072 2169 3072 
Q 1681 3072 1420 2755 
Q 1159 2438 1159 1844 
L 1159 0 
L 581 0 
L 581 3500 
L 1159 3500 
L 1159 2956 
Q 1341 3275 1631 3429 
Q 1922 3584 2338 3584 
Q 2397 3584 2469 3576 
Q 2541 3569 2628 3553 
L 2631 2963 
z
" transform="scale(0.015625)"/>
       <path id="DejaVuSans-61" d="M 2194 1759 
Q 1497 1759 1228 1600 
Q 959 1441 959 1056 
Q 959 750 1161 570 
Q 1363 391 1709 391 
Q 2188 391 2477 730 
Q 2766 1069 2766 1631 
L 2766 1759 
L 2194 1759 
z
M 3341 1997 
L 3341 0 
L 2766 0 
L 2766 531 
Q 2569 213 2275 61 
Q 1981 -91 1556 -91 
Q 1019 -91 701 211 
Q 384 513 384 1019 
Q 384 1609 779 1909 
Q 1175 2209 1959 2209 
L 2766 2209 
L 2766 2266 
Q 2766 2663 2505 2880 
Q 2244 3097 1772 3097 
Q 1472 3097 1187 3025 
Q 903 2953 641 2809 
L 641 3341 
Q 956 3463 1253 3523 
Q 1550 3584 1831 3584 
Q 2591 3584 2966 3190 
Q 3341 2797 3341 1997 
z
" transform="scale(0.015625)"/>
       <path id="DejaVuSans-69" d="M 603 3500 
L 1178 3500 
L 1178 0 
L 603 0 
L 603 3500 
z
M 603 4863 
L 1178 4863 
L 1178 4134 
L 603 4134 
L 603 4863 
z
" transform="scale(0.015625)"/>
       <path id="DejaVuSans-6e" d="M 3513 2113 
L 3513 0 
L 2938 0 
L 2938 2094 
Q 2938 2591 2744 2837 
Q 2550 3084 2163 3084 
Q 1697 3084 1428 2787 
Q 1159 2491 1159 1978 
L 1159 0 
L 581 0 
L 581 3500 
L 1159 3500 
L 1159 2956 
Q 1366 3272 1645 3428 
Q 1925 3584 2291 3584 
Q 2894 3584 3203 3211 
Q 3513 2838 3513 2113 
z
" transform="scale(0.015625)"/>
      </defs>
      <use xlink:href="#DejaVuSans-53"/>
      <use xlink:href="#DejaVuSans-74" x="63.476562"/>
      <use xlink:href="#DejaVuSans-72" x="102.685547"/>
      <use xlink:href="#DejaVuSans-61" x="143.798828"/>
      <use xlink:href="#DejaVuSans-69" x="205.078125"/>
      <use xlink:href="#DejaVuSans-6e" x="232.861328"/>
     </g>
    </g>
   </g>
   <g id="matplotlib.axis_2">
    <g id="ytick_1">
     <g id="line2d_7">
      <defs>
       <path id="m168e1ca831" d="M 0 0 
L -3.5 0 
" style="stroke: #000000; stroke-width: 0.8"/>
      </defs>
      <g>
       <use xlink:href="#m168e1ca831" x="54" y="220.664604" style="stroke: #000000; stroke-width: 0.8"/>
      </g>
     </g>
     <g id="text_8">
      <!-- 0 -->
      <g transform="translate(40.6375 224.463822) scale(0.1 -0.1)">
       <use xlink:href="#DejaVuSans-30"/>
      </g>
     </g>
    </g>
    <g id="ytick_2">
     <g id="line2d_8">
      <g>
       <use xlink:href="#m168e1ca831" x="54" y="176.838363" style="stroke: #000000; stroke-width: 0.8"/>
      </g>
     </g>
     <g id="text_9">
      <!-- 200 -->
      <g transform="translate(27.9125 180.637582) scale(0.1 -0.1)">
       <use xlink:href="#DejaVuSans-32"/>
       <use xlink:href="#DejaVuSans-30" x="63.623047"/>
       <use xlink:href="#DejaVuSans-30" x="127.246094"/>
      </g>
     </g>
    </g>
    <g id="ytick_3">
     <g id="line2d_9">
      <g>
       <use xlink:href="#m168e1ca831" x="54" y="133.012123" style="stroke: #000000; stroke-width: 0.8"/>
      </g>
     </g>
     <g id="text_10">
      <!-- 400 -->
      <g transform="translate(27.9125 136.811342) scale(0.1 -0.1)">
       <use xlink:href="#DejaVuSans-34"/>
       <use xlink:href="#DejaVuSans-30" x="63.623047"/>
       <use xlink:href="#DejaVuSans-30" x="127.246094"/>
      </g>
     </g>
    </g>
    <g id="ytick_4">
     <g id="line2d_10">
      <g>
       <use xlink:href="#m168e1ca831" x="54" y="89.185883" style="stroke: #000000; stroke-width: 0.8"/>
      </g>
     </g>
     <g id="text_11">
      <!-- 600 -->
      <g transform="translate(27.9125 92.985101) scale(0.1 -0.1)">
       <use xlink:href="#DejaVuSans-36"/>
       <use xlink:href="#DejaVuSans-30" x="63.623047"/>
       <use xlink:href="#DejaVuSans-30" x="127.246094"/>
      </g>
     </g>
    </g>
    <g id="ytick_5">
     <g id="line2d_11">
      <g>
       <use xlink:href="#m168e1ca831" x="54" y="45.359642" style="stroke: #000000; stroke-width: 0.8"/>
      </g>
     </g>
     <g id="text_12">
      <!-- 800 -->
      <g transform="translate(27.9125 49.158861) scale(0.1 -0.1)">
       <use xlink:href="#DejaVuSans-38"/>
       <use xlink:href="#DejaVuSans-30" x="63.623047"/>
       <use xlink:href="#DejaVuSans-30" x="127.246094"/>
      </g>
     </g>
    </g>
    <g id="text_13">
     <!-- Stress [Pa] -->
     <g transform="translate(21.832812 172.147812) rotate(-90) scale(0.1 -0.1)">
      <defs>
       <path id="DejaVuSans-65" d="M 3597 1894 
L 3597 1613 
L 953 1613 
Q 991 1019 1311 708 
Q 1631 397 2203 397 
Q 2534 397 2845 478 
Q 3156 559 3463 722 
L 3463 178 
Q 3153 47 2828 -22 
Q 2503 -91 2169 -91 
Q 1331 -91 842 396 
Q 353 884 353 1716 
Q 353 2575 817 3079 
Q 1281 3584 2069 3584 
Q 2775 3584 3186 3129 
Q 3597 2675 3597 1894 
z
M 3022 2063 
Q 3016 2534 2758 2815 
Q 2500 3097 2075 3097 
Q 1594 3097 1305 2825 
Q 1016 2553 972 2059 
L 3022 2063 
z
" transform="scale(0.015625)"/>
       <path id="DejaVuSans-73" d="M 2834 3397 
L 2834 2853 
Q 2591 2978 2328 3040 
Q 2066 3103 1784 3103 
Q 1356 3103 1142 2972 
Q 928 2841 928 2578 
Q 928 2378 1081 2264 
Q 1234 2150 1697 2047 
L 1894 2003 
Q 2506 1872 2764 1633 
Q 3022 1394 3022 966 
Q 3022 478 2636 193 
Q 2250 -91 1575 -91 
Q 1294 -91 989 -36 
Q 684 19 347 128 
L 347 722 
Q 666 556 975 473 
Q 1284 391 1588 391 
Q 1994 391 2212 530 
Q 2431 669 2431 922 
Q 2431 1156 2273 1281 
Q 2116 1406 1581 1522 
L 1381 1569 
Q 847 1681 609 1914 
Q 372 2147 372 2553 
Q 372 3047 722 3315 
Q 1072 3584 1716 3584 
Q 2034 3584 2315 3537 
Q 2597 3491 2834 3397 
z
" transform="scale(0.015625)"/>
       <path id="DejaVuSans-20" transform="scale(0.015625)"/>
       <path id="DejaVuSans-5b" d="M 550 4863 
L 1875 4863 
L 1875 4416 
L 1125 4416 
L 1125 -397 
L 1875 -397 
L 1875 -844 
L 550 -844 
L 550 4863 
z
" transform="scale(0.015625)"/>
       <path id="DejaVuSans-50" d="M 1259 4147 
L 1259 2394 
L 2053 2394 
Q 2494 2394 2734 2622 
Q 2975 2850 2975 3272 
Q 2975 3691 2734 3919 
Q 2494 4147 2053 4147 
L 1259 4147 
z
M 628 4666 
L 2053 4666 
Q 2838 4666 3239 4311 
Q 3641 3956 3641 3272 
Q 3641 2581 3239 2228 
Q 2838 1875 2053 1875 
L 1259 1875 
L 1259 0 
L 628 0 
L 628 4666 
z
" transform="scale(0.015625)"/>
       <path id="DejaVuSans-5d" d="M 1947 4863 
L 1947 -844 
L 622 -844 
L 622 -397 
L 1369 -397 
L 1369 4416 
L 622 4416 
L 622 4863 
L 1947 4863 
z
" transform="scale(0.015625)"/>
      </defs>
      <use xlink:href="#DejaVuSans-53"/>
      <use xlink:href="#DejaVuSans-74" x="63.476562"/>
      <use xlink:href="#DejaVuSans-72" x="102.685547"/>
      <use xlink:href="#DejaVuSans-65" x="141.548828"/>
      <use xlink:href="#DejaVuSans-73" x="203.072266"/>
      <use xlink:href="#DejaVuSans-73" x="255.171875"/>
      <use xlink:href="#DejaVuSans-20" x="307.271484"/>
      <use xlink:href="#DejaVuSans-5b" x="339.058594"/>
      <use xlink:href="#DejaVuSans-50" x="378.072266"/>
      <use xlink:href="#DejaVuSans-61" x="433.875"/>
      <use xlink:href="#DejaVuSans-5d" x="495.154297"/>
     </g>
    </g>
   </g>
   <g id="line2d_12">
    <path d="M 69.432761 221.737494 
L 69.432761 222.15601 
L 69.435353 221.853674 
L 70.448929 219.664657 
L 72.528787 211.234129 
L 73.602337 209.056743 
L 74.642652 209.608076 
L 76.761154 212.132153 
L 77.936725 213.081916 
L 78.961583 213.697229 
L 80.020447 214.082031 
L 81.107136 214.315314 
L 82.218558 214.712819 
L 83.348528 215.341991 
L 86.78636 216.671011 
L 87.928698 216.825706 
L 89.06176 217.179326 
L 90.177819 217.816812 
L 91.267599 218.584106 
L 93.343592 221.447252 
L 94.485156 221.489174 
L 95.544794 220.108877 
L 97.807827 215.570712 
L 98.878285 213.767272 
L 99.934058 212.403605 
L 102.046377 210.192728 
L 103.116835 209.495188 
L 104.197341 209.140413 
L 105.284803 209.025619 
L 106.376129 208.739674 
L 109.637741 207.408574 
L 111.805708 206.36827 
L 112.88776 205.707224 
L 116.150918 204.275881 
L 118.331251 203.4356 
L 120.506948 202.292282 
L 129.135535 198.144 
L 134.434496 195.005533 
L 144.003894 190.109397 
L 146.142491 188.904178 
L 149.359276 187.418557 
L 152.572196 185.459441 
L 159.008856 182.209877 
L 161.147453 181.114139 
L 166.441776 177.776111 
L 168.558733 176.423069 
L 172.793418 174.030647 
L 175.963829 172.209653 
L 180.198515 169.755329 
L 182.322427 168.551958 
L 183.38361 168.015638 
L 193.946751 161.504036 
L 199.20784 158.647816 
L 206.548013 154.482903 
L 210.765695 151.674729 
L 212.898882 150.563285 
L 216.114652 148.857453 
L 218.26407 147.546448 
L 222.559814 145.292609 
L 226.817687 142.607313 
L 231.025321 139.624061 
L 233.118318 138.469656 
L 248.828932 128.159927 
L 254.131757 124.873176 
L 255.196031 124.358105 
L 268.981367 115.921109 
L 276.445988 110.560679 
L 277.518765 109.92966 
L 282.900425 106.2327 
L 285.070711 104.863951 
L 288.333869 103.249909 
L 291.570748 101.130959 
L 293.716882 99.639088 
L 296.918208 97.587589 
L 301.152121 94.640369 
L 305.381396 91.429839 
L 309.652408 88.664164 
L 312.87924 86.410325 
L 316.116892 84.271512 
L 319.354545 82.177045 
L 320.431186 81.499369 
L 322.575966 79.905191 
L 324.715337 78.399706 
L 326.850069 76.909466 
L 328.979392 75.468654 
L 332.166034 73.216663 
L 334.286082 71.740743 
L 338.539317 68.608744 
L 341.748372 66.512892 
L 343.894698 64.848035 
L 346.043343 63.34717 
L 350.346044 60.043789 
L 353.575967 57.847232 
L 357.864755 54.903707 
L 361.032074 53.289203 
L 364.330013 52.318999 
L 365.39506 52.1102 
L 369.643634 50.501484 
L 370.704817 49.72934 
L 371.751702 48.562001 
L 373.135713 45.340398 
L 373.581818 45.96687 
L 373.427505 48.749234 
L 373.34425 51.647141 
L 373.34495 51.582368 
L 373.346883 68.283072 
L 373.332971 68.232171 
L 372.317823 68.667469 
L 371.29311 71.124521 
L 370.246032 73.317151 
L 368.187816 72.445342 
L 366.053083 72.701347 
L 365.005812 72.960644 
L 363.978249 72.80312 
L 362.9275 73.247282 
L 361.911918 72.865194 
L 360.859623 75.494595 
L 359.796507 77.414677 
L 358.7531 78.591948 
L 357.706602 80.13716 
L 356.691019 80.891866 
L 355.600853 80.380375 
L 354.516869 80.205658 
L 353.495876 80.568055 
L 352.436625 81.287076 
L 350.369327 82.341368 
L 349.349687 86.180146 
L 348.315748 87.182455 
L 346.237823 87.484958 
L 345.202145 87.365054 
L 343.109148 89.546366 
L 342.058399 90.832657 
L 341.023832 91.731476 
L 339.985063 92.398527 
L 338.954409 92.868615 
L 337.908297 93.470648 
L 334.776531 96.045077 
L 332.711359 96.97844 
L 331.66486 97.601953 
L 328.526331 100.650795 
L 327.46708 101.452041 
L 326.445701 102.002162 
L 325.426254 102.273729 
L 324.379949 102.951405 
L 322.312265 104.77725 
L 318.184625 107.460468 
L 316.070374 109.277535 
L 313.955784 110.598876 
L 312.911218 111.496901 
L 311.870516 112.074796 
L 306.606529 116.207834 
L 305.586696 116.864491 
L 303.511476 117.867378 
L 301.444371 119.347571 
L 300.382415 120.129185 
L 298.302558 121.921769 
L 296.212266 122.937244 
L 295.171178 123.750732 
L 294.132795 124.320543 
L 288.930905 127.984063 
L 286.890079 129.018997 
L 284.772736 130.672766 
L 279.645744 133.890341 
L 277.565307 135.409107 
L 273.41023 137.98088 
L 272.358321 138.950275 
L 271.312209 139.617095 
L 270.269382 140.437282 
L 267.177807 142.363946 
L 266.114305 143.376765 
L 265.088336 144.002955 
L 260.957992 145.877073 
L 259.899513 146.506245 
L 257.832022 148.155395 
L 256.804846 148.727169 
L 255.783081 149.157126 
L 251.639596 151.814937 
L 250.617058 152.603018 
L 247.524323 154.181664 
L 245.423597 155.46576 
L 241.268133 158.223929 
L 240.240957 158.710936 
L 231.944485 163.716039 
L 230.915763 164.605287 
L 229.885109 165.283425 
L 225.72037 167.085941 
L 223.636842 168.757149 
L 222.621259 169.525136 
L 221.584036 170.068039 
L 220.533673 170.399052 
L 219.497609 170.510587 
L 218.448985 171.181623 
L 215.338667 173.622087 
L 214.302168 174.21705 
L 212.225788 175.107163 
L 211.181222 175.636323 
L 209.090737 177.616227 
L 208.069358 178.22796 
L 205.958198 178.886234 
L 204.921748 179.236679 
L 203.878534 179.867756 
L 202.856382 180.781256 
L 201.810657 181.507089 
L 200.787345 181.953243 
L 198.709033 182.63193 
L 197.692678 183.083367 
L 194.540817 185.626269 
L 193.505525 186.161781 
L 191.399003 186.691533 
L 189.334217 187.895135 
L 187.234735 189.477692 
L 185.169949 190.429072 
L 184.130021 190.744581 
L 183.114824 191.183402 
L 179.993879 193.12635 
L 175.928457 195.186402 
L 174.882345 196.022987 
L 173.830823 196.692695 
L 172.808285 197.158395 
L 170.750068 197.872117 
L 167.59087 199.861837 
L 166.534324 200.769101 
L 165.507535 201.223945 
L 164.462582 201.492625 
L 163.424972 201.877114 
L 161.363471 202.947099 
L 160.313881 203.759432 
L 158.249868 204.704402 
L 157.197573 204.963236 
L 156.158804 205.419062 
L 155.105736 206.0491 
L 153.058726 207.750681 
L 152.010103 208.304498 
L 150.986791 208.497591 
L 148.940941 209.194438 
L 147.886327 209.7348 
L 144.726737 211.651302 
L 142.630262 212.539395 
L 140.592141 214.293638 
L 139.578491 214.795889 
L 137.47465 215.485051 
L 135.405999 216.073917 
L 132.274619 218.096551 
L 130.205196 218.880186 
L 129.178793 219.313781 
L 127.060291 220.615316 
L 124.01393 221.810719 
L 121.905475 222.820476 
L 120.852794 223.492725 
L 119.790834 223.950052 
L 116.618878 225.628189 
L 114.573801 226.494339 
L 111.484553 227.671281 
L 107.321553 229.97807 
L 106.307903 230.312116 
L 105.293093 230.903292 
L 103.257291 231.764476 
L 101.151541 233.021203 
L 93.936963 236.113416 
L 91.818848 237.237794 
L 90.772929 237.693158 
L 89.728363 238.441627 
L 88.664861 238.865348 
L 85.559168 239.834967 
L 84.51151 240.289234 
L 83.459602 240.931918 
L 82.397646 241.23354 
L 79.237282 242.558807 
L 77.169985 243.651658 
L 74.054836 244.523568 
L 73.027467 244.640518 
L 69.977338 245.417215 
L 69.44892 246.24 
L 69.219026 245.207127 
L 69.219026 245.207127 
" clip-path="url(#p0bc08d3570)" style="fill: none; stroke: #ff0000; stroke-width: 1.5; stroke-linecap: square"/>
   </g>
   <g id="line2d_13">
    <path d="M 69.432761 221.737494 
L 69.432761 222.15601 
L 69.435353 221.853674 
L 70.448929 219.664657 
L 72.528787 211.234129 
L 73.602337 209.056743 
L 74.642652 209.608076 
L 75.657461 210.854409 
L 76.761154 225.410336 
L 77.936725 225.988694 
L 78.961583 225.939727 
L 80.020447 225.429276 
L 81.107136 224.644428 
L 82.218558 224.020107 
L 84.48932 223.364143 
L 85.63784 222.820894 
L 86.78636 222.007405 
L 87.928698 220.820606 
L 89.06176 220.089575 
L 90.177819 219.60915 
L 91.267599 219.321358 
L 92.329555 220.149182 
L 93.343592 221.447252 
L 94.485156 221.489174 
L 95.544794 220.108877 
L 97.807827 215.570712 
L 98.878285 213.767272 
L 99.934058 212.403605 
L 102.046377 210.192728 
L 103.116835 209.495188 
L 104.197341 209.140413 
L 105.284803 209.025619 
L 106.376129 208.739674 
L 109.637741 207.408574 
L 111.805708 206.36827 
L 112.88776 205.707224 
L 116.150918 204.275881 
L 118.331251 203.4356 
L 120.506948 202.292282 
L 129.135535 198.144 
L 134.434496 195.005533 
L 144.003894 190.109397 
L 146.142491 188.904178 
L 149.359276 187.418557 
L 152.572196 185.459441 
L 159.008856 182.209877 
L 161.147453 181.114139 
L 166.441776 177.776111 
L 168.558733 176.423069 
L 172.793418 174.030647 
L 175.963829 172.209653 
L 180.198515 169.755329 
L 182.322427 168.551958 
L 183.38361 168.015638 
L 193.946751 161.504036 
L 199.20784 158.647816 
L 206.548013 154.482903 
L 210.765695 151.674729 
L 212.898882 150.563285 
L 216.114652 148.857453 
L 218.26407 147.546448 
L 222.559814 145.292609 
L 226.817687 142.607313 
L 231.025321 139.624061 
L 233.118318 138.469656 
L 248.828932 128.159927 
L 254.131757 124.873176 
L 255.196031 124.358105 
L 268.981367 115.921109 
L 276.445988 110.560679 
L 277.518765 109.92966 
L 282.900425 106.2327 
L 285.070711 104.863951 
L 288.333869 103.249909 
L 291.570748 101.130959 
L 293.716882 99.639088 
L 296.918208 97.587589 
L 301.152121 94.640369 
L 305.381396 91.429839 
L 309.652408 88.664164 
L 312.87924 86.410325 
L 316.116892 84.271512 
L 319.354545 82.177045 
L 320.431186 81.499369 
L 322.575966 79.905191 
L 324.715337 78.399706 
L 326.850069 76.909466 
L 328.979392 75.468654 
L 332.166034 73.216663 
L 334.286082 71.740743 
L 338.539317 68.608744 
L 341.748372 66.39606 
L 343.894698 64.718176 
L 344.969021 64.014768 
L 347.118439 62.260352 
L 350.346044 59.237488 
L 352.500872 57.564894 
L 354.65029 55.377807 
L 357.864755 51.891956 
L 361.032074 48.862047 
L 365.39506 45.963447 
L 366.524258 45.30217 
L 367.57153 44.932918 
L 368.627279 44.6922 
L 369.643634 44.64 
L 370.704817 44.808611 
L 371.751702 45.714488 
L 372.7811 45.914858 
L 373.135713 45.067965 
L 373.581818 45.835894 
L 373.427505 48.613242 
L 373.347052 52.766785 
L 373.346883 68.283072 
L 373.332971 68.232171 
L 372.317823 68.667469 
L 371.29311 71.124521 
L 370.246032 73.317151 
L 368.187816 72.445342 
L 366.053083 72.701347 
L 365.005812 72.960644 
L 363.978249 72.80312 
L 362.9275 73.247282 
L 361.911918 72.865194 
L 360.859623 75.494595 
L 359.796507 77.414677 
L 358.7531 78.591948 
L 357.706602 80.13716 
L 356.691019 80.891866 
L 355.600853 80.380375 
L 354.516869 80.205658 
L 353.495876 80.568055 
L 352.436625 81.287076 
L 350.369327 82.341368 
L 349.349687 86.180146 
L 348.315748 87.182455 
L 346.237823 87.484958 
L 345.202145 87.365054 
L 343.109148 89.546366 
L 342.058399 90.832657 
L 341.023832 91.731476 
L 339.985063 92.398527 
L 338.954409 92.868615 
L 337.908297 93.470648 
L 334.776531 96.045077 
L 332.711359 96.97844 
L 331.66486 97.601953 
L 328.526331 100.650795 
L 327.46708 101.452041 
L 326.445701 102.002162 
L 325.426254 102.273729 
L 324.379949 102.951405 
L 322.312265 104.77725 
L 318.184625 107.460468 
L 316.070374 109.277535 
L 313.955784 110.598876 
L 312.911218 111.496901 
L 311.870516 112.074796 
L 306.606529 116.207834 
L 305.586696 116.864491 
L 303.511476 117.867378 
L 301.444371 119.347571 
L 300.382415 120.129185 
L 298.302558 121.921769 
L 296.212266 122.937244 
L 295.171178 123.750732 
L 294.132795 124.320543 
L 288.930905 127.984063 
L 286.890079 129.018997 
L 284.772736 130.672766 
L 279.645744 133.890341 
L 277.565307 135.409107 
L 273.41023 137.98088 
L 272.358321 138.950275 
L 271.312209 139.617095 
L 270.269382 140.437282 
L 267.177807 142.363946 
L 266.114305 143.376765 
L 265.088336 144.002955 
L 260.957992 145.877073 
L 259.899513 146.506245 
L 257.832022 148.155395 
L 256.804846 148.727169 
L 255.783081 149.157126 
L 251.639596 151.814937 
L 250.617058 152.603018 
L 247.524323 154.181664 
L 245.423597 155.46576 
L 241.268133 158.223929 
L 240.240957 158.710936 
L 231.944485 163.716039 
L 230.915763 164.605287 
L 229.885109 165.283425 
L 225.72037 167.085941 
L 223.636842 168.757149 
L 222.621259 169.525136 
L 221.584036 170.068039 
L 220.533673 170.399052 
L 219.497609 170.510587 
L 218.448985 171.181623 
L 215.338667 173.622087 
L 214.302168 174.21705 
L 212.225788 175.107163 
L 211.181222 175.636323 
L 209.090737 177.616227 
L 208.069358 178.22796 
L 205.958198 178.886234 
L 204.921748 179.236679 
L 203.878534 179.867756 
L 202.856382 180.781256 
L 201.810657 181.507089 
L 200.787345 181.953243 
L 198.709033 182.63193 
L 197.692678 183.083367 
L 194.540817 185.626269 
L 193.505525 186.161781 
L 191.399003 186.691533 
L 189.334217 187.895135 
L 187.234735 189.477692 
L 185.169949 190.429072 
L 184.130021 190.744581 
L 183.114824 191.183402 
L 179.993879 193.12635 
L 175.928457 195.186402 
L 174.882345 196.022987 
L 173.830823 196.692695 
L 172.808285 197.158395 
L 170.750068 197.872117 
L 167.59087 199.861837 
L 166.534324 200.769101 
L 165.507535 201.223945 
L 164.462582 201.492625 
L 163.424972 201.877114 
L 161.363471 202.947099 
L 160.313881 203.759432 
L 158.249868 204.704402 
L 157.197573 204.963236 
L 156.158804 205.419062 
L 155.105736 206.0491 
L 153.058726 207.750681 
L 152.010103 208.304498 
L 150.986791 208.497591 
L 148.940941 209.194438 
L 147.886327 209.7348 
L 144.726737 211.651302 
L 142.630262 212.539395 
L 140.592141 214.293638 
L 139.578491 214.795889 
L 137.47465 215.485051 
L 135.405999 216.073917 
L 132.274619 218.096551 
L 130.205196 218.880186 
L 129.178793 219.313781 
L 127.060291 220.615316 
L 124.01393 221.810719 
L 121.905475 222.820476 
L 120.852794 223.492725 
L 119.790834 223.950052 
L 116.618878 225.628189 
L 114.573801 226.494339 
L 111.484553 227.671281 
L 107.321553 229.97807 
L 106.307903 230.312116 
L 105.293093 230.903292 
L 103.257291 231.764476 
L 101.151541 233.021203 
L 93.936963 236.113416 
L 91.818848 237.237794 
L 90.772929 237.693158 
L 89.728363 238.441627 
L 88.664861 238.865348 
L 85.559168 239.834967 
L 84.51151 240.289234 
L 83.459602 240.931918 
L 82.397646 241.23354 
L 79.237282 242.558807 
L 77.169985 243.651658 
L 74.054836 244.523568 
L 73.027467 244.640518 
L 69.977338 245.417215 
L 69.44892 246.24 
L 69.219026 245.207127 
L 69.219026 245.207127 
" clip-path="url(#p0bc08d3570)" style="fill: none; stroke: #000000; stroke-width: 1.5; stroke-linecap: square"/>
   </g>
   <g id="patch_3">
    <path d="M 54 256.32 
L 54 34.56 
" style="fill: none; stroke: #000000; stroke-width: 0.8; stroke-linejoin: miter; stroke-linecap: square"/>
   </g>
   <g id="patch_4">
    <path d="M 388.8 256.32 
L 388.8 34.56 
" style="fill: none; stroke: #000000; stroke-width: 0.8; stroke-linejoin: miter; stroke-linecap: square"/>
   </g>
   <g id="patch_5">
    <path d="M 54 256.32 
L 388.8 256.32 
" style="fill: none; stroke: #000000; stroke-width: 0.8; stroke-linejoin: miter; stroke-linecap: square"/>
   </g>
   <g id="patch_6">
    <path d="M 54 34.56 
L 388.8 34.56 
" style="fill: none; stroke: #000000; stroke-width: 0.8; stroke-linejoin: miter; stroke-linecap: square"/>
   </g>
   <g id="text_14">
    <!-- 2025-07-03 trial 11 -->
    <g transform="translate(163.2525 28.56) scale(0.12 -0.12)">
     <defs>
      <path id="DejaVuSans-35" d="M 691 4666 
L 3169 4666 
L 3169 4134 
L 1269 4134 
L 1269 2991 
Q 1406 3038 1543 3061 
Q 1681 3084 1819 3084 
Q 2600 3084 3056 2656 
Q 3513 2228 3513 1497 
Q 3513 744 3044 326 
Q 2575 -91 1722 -91 
Q 1428 -91 1123 -41 
Q 819 9 494 109 
L 494 744 
Q 775 591 1075 516 
Q 1375 441 1709 441 
Q 2250 441 2565 725 
Q 2881 1009 2881 1497 
Q 2881 1984 2565 2268 
Q 2250 2553 1709 2553 
Q 1456 2553 1204 2497 
Q 953 2441 691 2322 
L 691 4666 
z
" transform="scale(0.015625)"/>
      <path id="DejaVuSans-2d" d="M 313 2009 
L 1997 2009 
L 1997 1497 
L 313 1497 
L 313 2009 
z
" transform="scale(0.015625)"/>
      <path id="DejaVuSans-37" d="M 525 4666 
L 3525 4666 
L 3525 4397 
L 1831 0 
L 1172 0 
L 2766 4134 
L 525 4134 
L 525 4666 
z
" transform="scale(0.015625)"/>
      <path id="DejaVuSans-33" d="M 2597 2516 
Q 3050 2419 3304 2112 
Q 3559 1806 3559 1356 
Q 3559 666 3084 287 
Q 2609 -91 1734 -91 
Q 1441 -91 1130 -33 
Q 819 25 488 141 
L 488 750 
Q 750 597 1062 519 
Q 1375 441 1716 441 
Q 2309 441 2620 675 
Q 2931 909 2931 1356 
Q 2931 1769 2642 2001 
Q 2353 2234 1838 2234 
L 1294 2234 
L 1294 2753 
L 1863 2753 
Q 2328 2753 2575 2939 
Q 2822 3125 2822 3475 
Q 2822 3834 2567 4026 
Q 2313 4219 1838 4219 
Q 1578 4219 1281 4162 
Q 984 4106 628 3988 
L 628 4550 
Q 988 4650 1302 4700 
Q 1616 4750 1894 4750 
Q 2613 4750 3031 4423 
Q 3450 4097 3450 3541 
Q 3450 3153 3228 2886 
Q 3006 2619 2597 2516 
z
" transform="scale(0.015625)"/>
      <path id="DejaVuSans-6c" d="M 603 4863 
L 1178 4863 
L 1178 0 
L 603 0 
L 603 4863 
z
" transform="scale(0.015625)"/>
     </defs>
     <use xlink:href="#DejaVuSans-32"/>
     <use xlink:href="#DejaVuSans-30" x="63.623047"/>
     <use xlink:href="#DejaVuSans-32" x="127.246094"/>
     <use xlink:href="#DejaVuSans-35" x="190.869141"/>
     <use xlink:href="#DejaVuSans-2d" x="254.492188"/>
     <use xlink:href="#DejaVuSans-30" x="290.576172"/>
     <use xlink:href="#DejaVuSans-37" x="354.199219"/>
     <use xlink:href="#DejaVuSans-2d" x="417.822266"/>
     <use xlink:href="#DejaVuSans-30" x="453.90625"/>
     <use xlink:href="#DejaVuSans-33" x="517.529297"/>
     <use xlink:href="#DejaVuSans-20" x="581.152344"/>
     <use xlink:href="#DejaVuSans-74" x="612.939453"/>
     <use xlink:href="#DejaVuSans-72" x="652.148438"/>
     <use xlink:href="#DejaVuSans-69" x="693.261719"/>
     <use xlink:href="#DejaVuSans-61" x="721.044922"/>
     <use xlink:href="#DejaVuSans-6c" x="782.324219"/>
     <use xlink:href="#DejaVuSans-20" x="810.107422"/>
     <use xlink:href="#DejaVuSans-31" x="841.894531"/>
     <use xlink:href="#DejaVuSans-31" x="905.517578"/>
    </g>
   </g>
  </g>
 </g>
 <defs>
  <clipPath id="p0bc08d3570">
   <rect x="54" y="34.56" width="334.8" height="221.76"/>
  </clipPath>
 </defs>
</svg>
