<?xml version="1.0" encoding="utf-8" standalone="no"?>
<!DOCTYPE svg PUBLIC "-//W3C//DTD SVG 1.1//EN"
  "http://www.w3.org/Graphics/SVG/1.1/DTD/svg11.dtd">
<svg xmlns:xlink="http://www.w3.org/1999/xlink" width="432pt" height="288pt" viewBox="0 0 432 288" xmlns="http://www.w3.org/2000/svg" version="1.1">
 <metadata>
  <rdf:RDF xmlns:dc="http://purl.org/dc/elements/1.1/" xmlns:cc="http://creativecommons.org/ns#" xmlns:rdf="http://www.w3.org/1999/02/22-rdf-syntax-ns#">
   <cc:Work>
    <dc:type rdf:resource="http://purl.org/dc/dcmitype/StillImage"/>
    <dc:date>2025-07-03T20:54:36.669949</dc:date>
    <dc:format>image/svg+xml</dc:format>
    <dc:creator>
     <cc:Agent>
      <dc:title>Matplotlib v3.9.2, https://matplotlib.org/</dc:title>
     </cc:Agent>
    </dc:creator>
   </cc:Work>
  </rdf:RDF>
 </metadata>
 <defs>
  <style type="text/css">*{stroke-linejoin: round; stroke-linecap: butt}</style>
 </defs>
 <g id="figure_1">
  <g id="patch_1">
   <path d="M 0 288 
L 432 288 
L 432 0 
L 0 0 
z
" style="fill: #ffffff"/>
  </g>
  <g id="axes_1">
   <g id="patch_2">
    <path d="M 54 256.32 
L 388.8 256.32 
L 388.8 34.56 
L 54 34.56 
z
" style="fill: #ffffff"/>
   </g>
   <g id="matplotlib.axis_1">
    <g id="xtick_1">
     <g id="line2d_1">
      <defs>
       <path id="m574abfa477" d="M 0 0 
L 0 3.5 
" style="stroke: #000000; stroke-width: 0.8"/>
      </defs>
      <g>
       <use xlink:href="#m574abfa477" x="69.438591" y="256.32" style="stroke: #000000; stroke-width: 0.8"/>
      </g>
     </g>
     <g id="text_1">
      <!-- 0.00 -->
      <g transform="translate(58.305778 270.918437) scale(0.1 -0.1)">
       <defs>
        <path id="DejaVuSans-30" d="M 2034 4250 
Q 1547 4250 1301 3770 
Q 1056 3291 1056 2328 
Q 1056 1369 1301 889 
Q 1547 409 2034 409 
Q 2525 409 2770 889 
Q 3016 1369 3016 2328 
Q 3016 3291 2770 3770 
Q 2525 4250 2034 4250 
z
M 2034 4750 
Q 2819 4750 3233 4129 
Q 3647 3509 3647 2328 
Q 3647 1150 3233 529 
Q 2819 -91 2034 -91 
Q 1250 -91 836 529 
Q 422 1150 422 2328 
Q 422 3509 836 4129 
Q 1250 4750 2034 4750 
z
" transform="scale(0.015625)"/>
        <path id="DejaVuSans-2e" d="M 684 794 
L 1344 794 
L 1344 0 
L 684 0 
L 684 794 
z
" transform="scale(0.015625)"/>
       </defs>
       <use xlink:href="#DejaVuSans-30"/>
       <use xlink:href="#DejaVuSans-2e" x="63.623047"/>
       <use xlink:href="#DejaVuSans-30" x="95.410156"/>
       <use xlink:href="#DejaVuSans-30" x="159.033203"/>
      </g>
     </g>
    </g>
    <g id="xtick_2">
     <g id="line2d_2">
      <g>
       <use xlink:href="#m574abfa477" x="126.157032" y="256.32" style="stroke: #000000; stroke-width: 0.8"/>
      </g>
     </g>
     <g id="text_2">
      <!-- 0.02 -->
      <g transform="translate(115.02422 270.918437) scale(0.1 -0.1)">
       <defs>
        <path id="DejaVuSans-32" d="M 1228 531 
L 3431 531 
L 3431 0 
L 469 0 
L 469 531 
Q 828 903 1448 1529 
Q 2069 2156 2228 2338 
Q 2531 2678 2651 2914 
Q 2772 3150 2772 3378 
Q 2772 3750 2511 3984 
Q 2250 4219 1831 4219 
Q 1534 4219 1204 4116 
Q 875 4013 500 3803 
L 500 4441 
Q 881 4594 1212 4672 
Q 1544 4750 1819 4750 
Q 2544 4750 2975 4387 
Q 3406 4025 3406 3419 
Q 3406 3131 3298 2873 
Q 3191 2616 2906 2266 
Q 2828 2175 2409 1742 
Q 1991 1309 1228 531 
z
" transform="scale(0.015625)"/>
       </defs>
       <use xlink:href="#DejaVuSans-30"/>
       <use xlink:href="#DejaVuSans-2e" x="63.623047"/>
       <use xlink:href="#DejaVuSans-30" x="95.410156"/>
       <use xlink:href="#DejaVuSans-32" x="159.033203"/>
      </g>
     </g>
    </g>
    <g id="xtick_3">
     <g id="line2d_3">
      <g>
       <use xlink:href="#m574abfa477" x="182.875474" y="256.32" style="stroke: #000000; stroke-width: 0.8"/>
      </g>
     </g>
     <g id="text_3">
      <!-- 0.04 -->
      <g transform="translate(171.742661 270.918437) scale(0.1 -0.1)">
       <defs>
        <path id="DejaVuSans-34" d="M 2419 4116 
L 825 1625 
L 2419 1625 
L 2419 4116 
z
M 2253 4666 
L 3047 4666 
L 3047 1625 
L 3713 1625 
L 3713 1100 
L 3047 1100 
L 3047 0 
L 2419 0 
L 2419 1100 
L 313 1100 
L 313 1709 
L 2253 4666 
z
" transform="scale(0.015625)"/>
       </defs>
       <use xlink:href="#DejaVuSans-30"/>
       <use xlink:href="#DejaVuSans-2e" x="63.623047"/>
       <use xlink:href="#DejaVuSans-30" x="95.410156"/>
       <use xlink:href="#DejaVuSans-34" x="159.033203"/>
      </g>
     </g>
    </g>
    <g id="xtick_4">
     <g id="line2d_4">
      <g>
       <use xlink:href="#m574abfa477" x="239.593916" y="256.32" style="stroke: #000000; stroke-width: 0.8"/>
      </g>
     </g>
     <g id="text_4">
      <!-- 0.06 -->
      <g transform="translate(228.461103 270.918437) scale(0.1 -0.1)">
       <defs>
        <path id="DejaVuSans-36" d="M 2113 2584 
Q 1688 2584 1439 2293 
Q 1191 2003 1191 1497 
Q 1191 994 1439 701 
Q 1688 409 2113 409 
Q 2538 409 2786 701 
Q 3034 994 3034 1497 
Q 3034 2003 2786 2293 
Q 2538 2584 2113 2584 
z
M 3366 4563 
L 3366 3988 
Q 3128 4100 2886 4159 
Q 2644 4219 2406 4219 
Q 1781 4219 1451 3797 
Q 1122 3375 1075 2522 
Q 1259 2794 1537 2939 
Q 1816 3084 2150 3084 
Q 2853 3084 3261 2657 
Q 3669 2231 3669 1497 
Q 3669 778 3244 343 
Q 2819 -91 2113 -91 
Q 1303 -91 875 529 
Q 447 1150 447 2328 
Q 447 3434 972 4092 
Q 1497 4750 2381 4750 
Q 2619 4750 2861 4703 
Q 3103 4656 3366 4563 
z
" transform="scale(0.015625)"/>
       </defs>
       <use xlink:href="#DejaVuSans-30"/>
       <use xlink:href="#DejaVuSans-2e" x="63.623047"/>
       <use xlink:href="#DejaVuSans-30" x="95.410156"/>
       <use xlink:href="#DejaVuSans-36" x="159.033203"/>
      </g>
     </g>
    </g>
    <g id="xtick_5">
     <g id="line2d_5">
      <g>
       <use xlink:href="#m574abfa477" x="296.312357" y="256.32" style="stroke: #000000; stroke-width: 0.8"/>
      </g>
     </g>
     <g id="text_5">
      <!-- 0.08 -->
      <g transform="translate(285.179545 270.918437) scale(0.1 -0.1)">
       <defs>
        <path id="DejaVuSans-38" d="M 2034 2216 
Q 1584 2216 1326 1975 
Q 1069 1734 1069 1313 
Q 1069 891 1326 650 
Q 1584 409 2034 409 
Q 2484 409 2743 651 
Q 3003 894 3003 1313 
Q 3003 1734 2745 1975 
Q 2488 2216 2034 2216 
z
M 1403 2484 
Q 997 2584 770 2862 
Q 544 3141 544 3541 
Q 544 4100 942 4425 
Q 1341 4750 2034 4750 
Q 2731 4750 3128 4425 
Q 3525 4100 3525 3541 
Q 3525 3141 3298 2862 
Q 3072 2584 2669 2484 
Q 3125 2378 3379 2068 
Q 3634 1759 3634 1313 
Q 3634 634 3220 271 
Q 2806 -91 2034 -91 
Q 1263 -91 848 271 
Q 434 634 434 1313 
Q 434 1759 690 2068 
Q 947 2378 1403 2484 
z
M 1172 3481 
Q 1172 3119 1398 2916 
Q 1625 2713 2034 2713 
Q 2441 2713 2670 2916 
Q 2900 3119 2900 3481 
Q 2900 3844 2670 4047 
Q 2441 4250 2034 4250 
Q 1625 4250 1398 4047 
Q 1172 3844 1172 3481 
z
" transform="scale(0.015625)"/>
       </defs>
       <use xlink:href="#DejaVuSans-30"/>
       <use xlink:href="#DejaVuSans-2e" x="63.623047"/>
       <use xlink:href="#DejaVuSans-30" x="95.410156"/>
       <use xlink:href="#DejaVuSans-38" x="159.033203"/>
      </g>
     </g>
    </g>
    <g id="xtick_6">
     <g id="line2d_6">
      <g>
       <use xlink:href="#m574abfa477" x="353.030799" y="256.32" style="stroke: #000000; stroke-width: 0.8"/>
      </g>
     </g>
     <g id="text_6">
      <!-- 0.10 -->
      <g transform="translate(341.897986 270.918437) scale(0.1 -0.1)">
       <defs>
        <path id="DejaVuSans-31" d="M 794 531 
L 1825 531 
L 1825 4091 
L 703 3866 
L 703 4441 
L 1819 4666 
L 2450 4666 
L 2450 531 
L 3481 531 
L 3481 0 
L 794 0 
L 794 531 
z
" transform="scale(0.015625)"/>
       </defs>
       <use xlink:href="#DejaVuSans-30"/>
       <use xlink:href="#DejaVuSans-2e" x="63.623047"/>
       <use xlink:href="#DejaVuSans-31" x="95.410156"/>
       <use xlink:href="#DejaVuSans-30" x="159.033203"/>
      </g>
     </g>
    </g>
    <g id="text_7">
     <!-- Strain -->
     <g transform="translate(206.588281 284.596563) scale(0.1 -0.1)">
      <defs>
       <path id="DejaVuSans-53" d="M 3425 4513 
L 3425 3897 
Q 3066 4069 2747 4153 
Q 2428 4238 2131 4238 
Q 1616 4238 1336 4038 
Q 1056 3838 1056 3469 
Q 1056 3159 1242 3001 
Q 1428 2844 1947 2747 
L 2328 2669 
Q 3034 2534 3370 2195 
Q 3706 1856 3706 1288 
Q 3706 609 3251 259 
Q 2797 -91 1919 -91 
Q 1588 -91 1214 -16 
Q 841 59 441 206 
L 441 856 
Q 825 641 1194 531 
Q 1563 422 1919 422 
Q 2459 422 2753 634 
Q 3047 847 3047 1241 
Q 3047 1584 2836 1778 
Q 2625 1972 2144 2069 
L 1759 2144 
Q 1053 2284 737 2584 
Q 422 2884 422 3419 
Q 422 4038 858 4394 
Q 1294 4750 2059 4750 
Q 2388 4750 2728 4690 
Q 3069 4631 3425 4513 
z
" transform="scale(0.015625)"/>
       <path id="DejaVuSans-74" d="M 1172 4494 
L 1172 3500 
L 2356 3500 
L 2356 3053 
L 1172 3053 
L 1172 1153 
Q 1172 725 1289 603 
Q 1406 481 1766 481 
L 2356 481 
L 2356 0 
L 1766 0 
Q 1100 0 847 248 
Q 594 497 594 1153 
L 594 3053 
L 172 3053 
L 172 3500 
L 594 3500 
L 594 4494 
L 1172 4494 
z
" transform="scale(0.015625)"/>
       <path id="DejaVuSans-72" d="M 2631 2963 
Q 2534 3019 2420 3045 
Q 2306 3072 2169 3072 
Q 1681 3072 1420 2755 
Q 1159 2438 1159 1844 
L 1159 0 
L 581 0 
L 581 3500 
L 1159 3500 
L 1159 2956 
Q 1341 3275 1631 3429 
Q 1922 3584 2338 3584 
Q 2397 3584 2469 3576 
Q 2541 3569 2628 3553 
L 2631 2963 
z
" transform="scale(0.015625)"/>
       <path id="DejaVuSans-61" d="M 2194 1759 
Q 1497 1759 1228 1600 
Q 959 1441 959 1056 
Q 959 750 1161 570 
Q 1363 391 1709 391 
Q 2188 391 2477 730 
Q 2766 1069 2766 1631 
L 2766 1759 
L 2194 1759 
z
M 3341 1997 
L 3341 0 
L 2766 0 
L 2766 531 
Q 2569 213 2275 61 
Q 1981 -91 1556 -91 
Q 1019 -91 701 211 
Q 384 513 384 1019 
Q 384 1609 779 1909 
Q 1175 2209 1959 2209 
L 2766 2209 
L 2766 2266 
Q 2766 2663 2505 2880 
Q 2244 3097 1772 3097 
Q 1472 3097 1187 3025 
Q 903 2953 641 2809 
L 641 3341 
Q 956 3463 1253 3523 
Q 1550 3584 1831 3584 
Q 2591 3584 2966 3190 
Q 3341 2797 3341 1997 
z
" transform="scale(0.015625)"/>
       <path id="DejaVuSans-69" d="M 603 3500 
L 1178 3500 
L 1178 0 
L 603 0 
L 603 3500 
z
M 603 4863 
L 1178 4863 
L 1178 4134 
L 603 4134 
L 603 4863 
z
" transform="scale(0.015625)"/>
       <path id="DejaVuSans-6e" d="M 3513 2113 
L 3513 0 
L 2938 0 
L 2938 2094 
Q 2938 2591 2744 2837 
Q 2550 3084 2163 3084 
Q 1697 3084 1428 2787 
Q 1159 2491 1159 1978 
L 1159 0 
L 581 0 
L 581 3500 
L 1159 3500 
L 1159 2956 
Q 1366 3272 1645 3428 
Q 1925 3584 2291 3584 
Q 2894 3584 3203 3211 
Q 3513 2838 3513 2113 
z
" transform="scale(0.015625)"/>
      </defs>
      <use xlink:href="#DejaVuSans-53"/>
      <use xlink:href="#DejaVuSans-74" x="63.476562"/>
      <use xlink:href="#DejaVuSans-72" x="102.685547"/>
      <use xlink:href="#DejaVuSans-61" x="143.798828"/>
      <use xlink:href="#DejaVuSans-69" x="205.078125"/>
      <use xlink:href="#DejaVuSans-6e" x="232.861328"/>
     </g>
    </g>
   </g>
   <g id="matplotlib.axis_2">
    <g id="ytick_1">
     <g id="line2d_7">
      <defs>
       <path id="m2fb1e7f2c9" d="M 0 0 
L -3.5 0 
" style="stroke: #000000; stroke-width: 0.8"/>
      </defs>
      <g>
       <use xlink:href="#m2fb1e7f2c9" x="54" y="218.378149" style="stroke: #000000; stroke-width: 0.8"/>
      </g>
     </g>
     <g id="text_8">
      <!-- 0 -->
      <g transform="translate(40.6375 222.177367) scale(0.1 -0.1)">
       <use xlink:href="#DejaVuSans-30"/>
      </g>
     </g>
    </g>
    <g id="ytick_2">
     <g id="line2d_8">
      <g>
       <use xlink:href="#m2fb1e7f2c9" x="54" y="177.388146" style="stroke: #000000; stroke-width: 0.8"/>
      </g>
     </g>
     <g id="text_9">
      <!-- 200 -->
      <g transform="translate(27.9125 181.187365) scale(0.1 -0.1)">
       <use xlink:href="#DejaVuSans-32"/>
       <use xlink:href="#DejaVuSans-30" x="63.623047"/>
       <use xlink:href="#DejaVuSans-30" x="127.246094"/>
      </g>
     </g>
    </g>
    <g id="ytick_3">
     <g id="line2d_9">
      <g>
       <use xlink:href="#m2fb1e7f2c9" x="54" y="136.398144" style="stroke: #000000; stroke-width: 0.8"/>
      </g>
     </g>
     <g id="text_10">
      <!-- 400 -->
      <g transform="translate(27.9125 140.197363) scale(0.1 -0.1)">
       <use xlink:href="#DejaVuSans-34"/>
       <use xlink:href="#DejaVuSans-30" x="63.623047"/>
       <use xlink:href="#DejaVuSans-30" x="127.246094"/>
      </g>
     </g>
    </g>
    <g id="ytick_4">
     <g id="line2d_10">
      <g>
       <use xlink:href="#m2fb1e7f2c9" x="54" y="95.408142" style="stroke: #000000; stroke-width: 0.8"/>
      </g>
     </g>
     <g id="text_11">
      <!-- 600 -->
      <g transform="translate(27.9125 99.207361) scale(0.1 -0.1)">
       <use xlink:href="#DejaVuSans-36"/>
       <use xlink:href="#DejaVuSans-30" x="63.623047"/>
       <use xlink:href="#DejaVuSans-30" x="127.246094"/>
      </g>
     </g>
    </g>
    <g id="ytick_5">
     <g id="line2d_11">
      <g>
       <use xlink:href="#m2fb1e7f2c9" x="54" y="54.41814" style="stroke: #000000; stroke-width: 0.8"/>
      </g>
     </g>
     <g id="text_12">
      <!-- 800 -->
      <g transform="translate(27.9125 58.217359) scale(0.1 -0.1)">
       <use xlink:href="#DejaVuSans-38"/>
       <use xlink:href="#DejaVuSans-30" x="63.623047"/>
       <use xlink:href="#DejaVuSans-30" x="127.246094"/>
      </g>
     </g>
    </g>
    <g id="text_13">
     <!-- Stress [Pa] -->
     <g transform="translate(21.832812 172.147812) rotate(-90) scale(0.1 -0.1)">
      <defs>
       <path id="DejaVuSans-65" d="M 3597 1894 
L 3597 1613 
L 953 1613 
Q 991 1019 1311 708 
Q 1631 397 2203 397 
Q 2534 397 2845 478 
Q 3156 559 3463 722 
L 3463 178 
Q 3153 47 2828 -22 
Q 2503 -91 2169 -91 
Q 1331 -91 842 396 
Q 353 884 353 1716 
Q 353 2575 817 3079 
Q 1281 3584 2069 3584 
Q 2775 3584 3186 3129 
Q 3597 2675 3597 1894 
z
M 3022 2063 
Q 3016 2534 2758 2815 
Q 2500 3097 2075 3097 
Q 1594 3097 1305 2825 
Q 1016 2553 972 2059 
L 3022 2063 
z
" transform="scale(0.015625)"/>
       <path id="DejaVuSans-73" d="M 2834 3397 
L 2834 2853 
Q 2591 2978 2328 3040 
Q 2066 3103 1784 3103 
Q 1356 3103 1142 2972 
Q 928 2841 928 2578 
Q 928 2378 1081 2264 
Q 1234 2150 1697 2047 
L 1894 2003 
Q 2506 1872 2764 1633 
Q 3022 1394 3022 966 
Q 3022 478 2636 193 
Q 2250 -91 1575 -91 
Q 1294 -91 989 -36 
Q 684 19 347 128 
L 347 722 
Q 666 556 975 473 
Q 1284 391 1588 391 
Q 1994 391 2212 530 
Q 2431 669 2431 922 
Q 2431 1156 2273 1281 
Q 2116 1406 1581 1522 
L 1381 1569 
Q 847 1681 609 1914 
Q 372 2147 372 2553 
Q 372 3047 722 3315 
Q 1072 3584 1716 3584 
Q 2034 3584 2315 3537 
Q 2597 3491 2834 3397 
z
" transform="scale(0.015625)"/>
       <path id="DejaVuSans-20" transform="scale(0.015625)"/>
       <path id="DejaVuSans-5b" d="M 550 4863 
L 1875 4863 
L 1875 4416 
L 1125 4416 
L 1125 -397 
L 1875 -397 
L 1875 -844 
L 550 -844 
L 550 4863 
z
" transform="scale(0.015625)"/>
       <path id="DejaVuSans-50" d="M 1259 4147 
L 1259 2394 
L 2053 2394 
Q 2494 2394 2734 2622 
Q 2975 2850 2975 3272 
Q 2975 3691 2734 3919 
Q 2494 4147 2053 4147 
L 1259 4147 
z
M 628 4666 
L 2053 4666 
Q 2838 4666 3239 4311 
Q 3641 3956 3641 3272 
Q 3641 2581 3239 2228 
Q 2838 1875 2053 1875 
L 1259 1875 
L 1259 0 
L 628 0 
L 628 4666 
z
" transform="scale(0.015625)"/>
       <path id="DejaVuSans-5d" d="M 1947 4863 
L 1947 -844 
L 622 -844 
L 622 -397 
L 1369 -397 
L 1369 4416 
L 622 4416 
L 622 4863 
L 1947 4863 
z
" transform="scale(0.015625)"/>
      </defs>
      <use xlink:href="#DejaVuSans-53"/>
      <use xlink:href="#DejaVuSans-74" x="63.476562"/>
      <use xlink:href="#DejaVuSans-72" x="102.685547"/>
      <use xlink:href="#DejaVuSans-65" x="141.548828"/>
      <use xlink:href="#DejaVuSans-73" x="203.072266"/>
      <use xlink:href="#DejaVuSans-73" x="255.171875"/>
      <use xlink:href="#DejaVuSans-20" x="307.271484"/>
      <use xlink:href="#DejaVuSans-5b" x="339.058594"/>
      <use xlink:href="#DejaVuSans-50" x="378.072266"/>
      <use xlink:href="#DejaVuSans-61" x="433.875"/>
      <use xlink:href="#DejaVuSans-5d" x="495.154297"/>
     </g>
    </g>
   </g>
   <g id="line2d_12">
    <path d="M 69.438591 220.201626 
L 69.438591 220.133337 
L 69.4407 220.437093 
L 69.666542 220.240956 
L 70.691847 219.627508 
L 71.72875 217.798958 
L 72.769808 216.556809 
L 73.826126 217.321541 
L 75.875013 217.816564 
L 76.918968 217.699053 
L 77.984945 216.785263 
L 79.014218 215.199202 
L 80.031514 216.347433 
L 81.054605 217.034611 
L 82.136424 217.028542 
L 85.293788 215.933993 
L 86.344698 216.846918 
L 87.387107 217.424085 
L 88.423528 212.553135 
L 89.440823 211.675895 
L 90.468551 212.093243 
L 92.525165 212.376493 
L 93.554438 212.78192 
L 94.594336 211.916777 
L 95.620903 210.068892 
L 96.665657 209.549985 
L 99.744976 209.366198 
L 100.801681 209.101256 
L 101.849499 207.89324 
L 102.8695 207.301005 
L 104.926886 207.011218 
L 105.982046 206.73935 
L 107.039137 206.15365 
L 109.108115 204.541233 
L 112.263934 203.598281 
L 113.322763 203.020304 
L 114.340832 202.068926 
L 115.382661 201.568772 
L 117.452798 200.890127 
L 119.533753 199.890468 
L 120.589688 198.993961 
L 121.635961 198.285583 
L 123.671325 197.888718 
L 124.729576 197.457963 
L 127.880951 195.301269 
L 129.925202 194.612498 
L 130.982679 193.960856 
L 134.07301 191.537262 
L 136.129624 191.258359 
L 137.147692 190.938493 
L 138.200147 190.382658 
L 140.271056 188.352881 
L 142.373261 187.676153 
L 144.422148 186.999263 
L 145.472671 186.353778 
L 146.528953 185.329144 
L 147.556681 184.606538 
L 150.656477 183.565779 
L 151.715886 183.057903 
L 152.730091 182.395567 
L 153.755114 181.54745 
L 154.789796 180.903855 
L 158.934706 179.073684 
L 161.057388 177.548542 
L 163.153605 176.275718 
L 164.194662 175.724204 
L 165.251753 175.435431 
L 167.319185 174.200844 
L 168.344208 173.646629 
L 171.461203 171.617931 
L 172.488001 171.181866 
L 175.614843 169.349103 
L 177.698889 168.034262 
L 179.774048 167.044647 
L 183.940595 164.398115 
L 187.028027 162.861739 
L 189.106278 161.514494 
L 190.152551 160.840278 
L 191.199596 160.308854 
L 192.254369 160.00496 
L 193.316483 159.462195 
L 196.371075 157.419563 
L 197.387441 156.777082 
L 198.401259 156.289943 
L 199.463373 155.907686 
L 200.524328 155.251561 
L 202.637737 153.620998 
L 206.88117 151.495736 
L 207.895375 150.820116 
L 208.916148 149.918424 
L 209.94233 149.204782 
L 214.113126 147.086433 
L 217.223161 144.699564 
L 219.311071 143.923545 
L 221.39473 142.893642 
L 224.495456 140.309683 
L 226.555934 139.61489 
L 227.577479 139.141253 
L 228.638434 138.443922 
L 230.72248 136.841658 
L 231.769139 136.177919 
L 232.82739 135.735768 
L 234.93114 134.436913 
L 237.002822 132.773514 
L 238.028232 132.111611 
L 241.128028 130.840785 
L 244.271483 128.518831 
L 245.292642 127.770086 
L 246.32462 127.276683 
L 247.354665 126.939683 
L 248.370705 126.45891 
L 250.487206 124.933984 
L 252.528365 123.55844 
L 254.562957 122.437806 
L 258.697049 119.730678 
L 260.745935 118.693727 
L 266.929494 114.393301 
L 267.946403 113.932302 
L 270.023494 112.553409 
L 274.170505 109.905709 
L 276.292028 108.437381 
L 277.354529 107.87269 
L 278.415483 107.153972 
L 280.462052 106.080647 
L 281.483984 105.49943 
L 283.609371 103.952253 
L 287.737667 101.705908 
L 290.840747 98.970373 
L 291.856498 98.372198 
L 293.924703 97.642193 
L 294.980248 96.965924 
L 296.006237 95.915174 
L 297.041692 95.035841 
L 299.093959 93.771968 
L 301.166414 92.852293 
L 302.207085 92.017245 
L 303.230563 90.986369 
L 305.290654 89.774465 
L 306.327654 89.46494 
L 307.358473 89.005993 
L 308.420973 88.35662 
L 309.461837 87.48798 
L 310.509076 86.390137 
L 311.537962 85.535106 
L 312.598144 85.06039 
L 316.780725 82.492275 
L 318.837146 80.666208 
L 319.862555 80.060364 
L 320.91076 79.732437 
L 324.010556 77.600694 
L 326.089338 75.684477 
L 327.106633 75.109632 
L 329.196475 74.213449 
L 330.227679 73.676085 
L 334.367373 70.415067 
L 335.380419 69.758349 
L 337.449783 68.72715 
L 338.466693 68.021933 
L 339.522238 67.088702 
L 344.697387 63.739221 
L 346.741638 62.274782 
L 348.778547 60.973875 
L 349.840951 60.155906 
L 351.880951 58.915054 
L 353.930611 57.320459 
L 354.96027 56.761493 
L 357.008771 55.224901 
L 359.090112 53.747284 
L 361.170294 52.151934 
L 364.260045 49.965644 
L 365.313272 49.36034 
L 368.443591 47.141106 
L 369.485421 46.653914 
L 372.591109 45.57739 
L 373.003746 45.110558 
L 373.581818 44.64 
L 373.390278 45.904089 
L 373.286081 50.195415 
L 373.288158 50.726271 
L 373.289872 57.137391 
L 373.287916 57.131045 
L 373.287602 68.1236 
L 373.2827 67.803828 
L 372.260237 67.985573 
L 371.247384 70.53187 
L 370.207293 72.583575 
L 368.163043 71.869664 
L 364.995633 72.586424 
L 363.963269 72.457227 
L 362.906275 72.771315 
L 361.888979 72.490157 
L 360.831888 74.985688 
L 359.77441 76.562892 
L 357.643614 78.967044 
L 356.571069 80.62353 
L 355.519 81.180822 
L 354.482 80.456704 
L 353.462386 80.455475 
L 351.357477 81.372289 
L 350.313908 81.650773 
L 349.290044 82.397723 
L 348.254783 86.072322 
L 347.208896 87.339313 
L 346.17576 87.843531 
L 345.121759 87.886021 
L 344.100214 88.192453 
L 342.023509 89.297102 
L 340.988054 90.092077 
L 339.97327 91.27525 
L 336.843917 94.357182 
L 335.803053 94.842592 
L 334.768491 95.517322 
L 333.704832 95.991391 
L 331.618468 96.512135 
L 330.567172 97.398921 
L 327.472013 100.693314 
L 326.409899 101.379412 
L 323.282671 103.093469 
L 321.212534 104.763997 
L 314.962714 109.132039 
L 312.891032 110.273736 
L 311.851521 111.155121 
L 310.811043 111.807411 
L 307.678068 114.414033 
L 304.592181 116.042435 
L 303.550544 116.78038 
L 301.460703 118.450583 
L 299.420316 119.812626 
L 297.37452 120.875257 
L 295.340315 122.577217 
L 292.280315 124.655277 
L 290.159564 125.933502 
L 286.059859 128.519223 
L 285.040631 129.056803 
L 283.984168 129.83935 
L 281.873076 131.04445 
L 278.724598 133.616237 
L 275.55178 135.542432 
L 274.533325 136.224209 
L 272.475552 137.329721 
L 270.403881 138.781415 
L 269.347177 139.315593 
L 268.294722 140.24688 
L 267.273563 140.872167 
L 266.233085 141.336298 
L 265.193767 141.925077 
L 262.12488 144.139233 
L 261.109129 144.721423 
L 259.075939 146.2306 
L 258.059802 146.650446 
L 257.001165 147.497699 
L 250.785346 151.133738 
L 248.70072 152.483683 
L 246.649515 153.650979 
L 241.468378 156.832877 
L 240.451082 157.296469 
L 233.242223 161.55294 
L 232.221837 162.061573 
L 229.083018 164.142658 
L 227.00554 165.187683 
L 225.982449 165.819558 
L 224.920335 166.649529 
L 222.884198 167.843828 
L 221.851835 168.355593 
L 220.81638 168.693836 
L 219.79638 169.153215 
L 218.746629 169.81663 
L 215.623651 172.144524 
L 210.396343 174.957289 
L 207.311507 176.718824 
L 206.269097 177.142018 
L 202.080528 179.568205 
L 201.01996 180.254951 
L 195.9018 182.940476 
L 191.821026 185.325509 
L 189.706844 186.53763 
L 188.656707 187.24101 
L 185.510547 188.830096 
L 180.329784 191.708723 
L 179.266898 192.169182 
L 176.124215 194.114278 
L 165.775849 199.569254 
L 164.753917 200.157169 
L 161.669382 201.477572 
L 159.593257 202.824277 
L 158.544279 203.577451 
L 157.527551 204.160237 
L 155.461664 204.957534 
L 154.446687 205.297073 
L 151.303811 207.058979 
L 148.212901 208.510511 
L 147.198697 208.956496 
L 146.136969 209.565041 
L 144.013901 210.440756 
L 142.969753 211.045844 
L 140.867548 212.48166 
L 139.840979 213.186336 
L 136.718774 214.549891 
L 134.620819 215.643251 
L 131.515264 217.06637 
L 127.327467 219.469873 
L 126.273853 219.889503 
L 125.222944 220.58543 
L 124.16933 221.072245 
L 123.113012 221.793771 
L 122.098034 222.346365 
L 119.033784 223.598181 
L 114.857964 225.702218 
L 113.833714 226.172506 
L 112.811009 226.507778 
L 110.699918 227.706398 
L 109.644372 228.256615 
L 108.581486 228.649296 
L 105.524262 230.142527 
L 104.463694 230.895809 
L 103.449489 231.422696 
L 101.406011 232.181487 
L 100.343511 232.632548 
L 97.196578 234.371448 
L 95.126442 235.057735 
L 94.070897 235.383772 
L 90.951397 237.287932 
L 88.877396 238.141396 
L 87.845419 238.366642 
L 84.721282 240.07438 
L 82.648827 241.179865 
L 81.62672 241.398584 
L 80.61097 241.770743 
L 79.553879 242.355741 
L 76.439787 243.722158 
L 75.412447 244.20314 
L 72.306082 244.861777 
L 71.273718 244.950272 
L 70.253815 245.322106 
L 69.458968 246.24 
L 69.219084 245.099942 
L 69.219084 245.099942 
" clip-path="url(#p91df262f0b)" style="fill: none; stroke: #ff0000; stroke-width: 1.5; stroke-linecap: square"/>
   </g>
   <g id="line2d_13">
    <path d="M 69.438591 220.201626 
L 69.438591 220.133337 
L 69.4407 220.437093 
L 69.666542 220.240956 
L 70.691847 219.627508 
L 71.72875 217.798958 
L 72.769808 216.556809 
L 73.826126 217.321541 
L 74.858103 221.562208 
L 75.875013 220.753704 
L 76.918968 219.639882 
L 77.984945 218.157297 
L 79.014218 215.695251 
L 81.054605 217.034611 
L 82.136424 217.028542 
L 85.293788 215.933993 
L 86.344698 216.846918 
L 87.387107 217.424085 
L 88.423528 212.553135 
L 89.440823 211.675895 
L 90.468551 212.093243 
L 92.525165 212.376493 
L 93.554438 212.78192 
L 94.594336 211.916777 
L 95.620903 210.068892 
L 96.665657 209.549985 
L 99.744976 209.366198 
L 100.801681 209.101256 
L 101.849499 207.89324 
L 102.8695 207.301005 
L 104.926886 207.011218 
L 105.982046 206.73935 
L 107.039137 206.15365 
L 109.108115 204.541233 
L 112.263934 203.598281 
L 113.322763 203.020304 
L 114.340832 202.068926 
L 115.382661 201.568772 
L 117.452798 200.890127 
L 119.533753 199.890468 
L 120.589688 198.993961 
L 121.635961 198.285583 
L 123.671325 197.888718 
L 124.729576 197.457963 
L 127.880951 195.301269 
L 129.925202 194.612498 
L 130.982679 193.960856 
L 134.07301 191.537262 
L 136.129624 191.258359 
L 137.147692 190.938493 
L 138.200147 190.382658 
L 140.271056 188.352881 
L 142.373261 187.676153 
L 144.422148 186.999263 
L 145.472671 186.353778 
L 146.528953 185.329144 
L 147.556681 184.606538 
L 150.656477 183.565779 
L 151.715886 183.057903 
L 152.730091 182.395567 
L 153.755114 181.54745 
L 154.789796 180.903855 
L 158.934706 179.073684 
L 161.057388 177.548542 
L 163.153605 176.275718 
L 164.194662 175.724204 
L 165.251753 175.435431 
L 167.319185 174.200844 
L 168.344208 173.646629 
L 171.461203 171.617931 
L 172.488001 171.181866 
L 175.614843 169.349103 
L 177.698889 168.034262 
L 179.774048 167.044647 
L 183.940595 164.398115 
L 187.028027 162.861739 
L 189.106278 161.514494 
L 190.152551 160.840278 
L 191.199596 160.308854 
L 192.254369 160.00496 
L 193.316483 159.462195 
L 196.371075 157.419563 
L 197.387441 156.777082 
L 198.401259 156.289943 
L 199.463373 155.907686 
L 200.524328 155.251561 
L 202.637737 153.620998 
L 206.88117 151.495736 
L 207.895375 150.820116 
L 208.916148 149.918424 
L 209.94233 149.204782 
L 214.113126 147.086433 
L 217.223161 144.699564 
L 219.311071 143.923545 
L 221.39473 142.893642 
L 224.495456 140.309683 
L 226.555934 139.61489 
L 227.577479 139.141253 
L 228.638434 138.443922 
L 230.72248 136.841658 
L 231.769139 136.177919 
L 232.82739 135.735768 
L 234.93114 134.436913 
L 237.002822 132.773514 
L 238.028232 132.111611 
L 241.128028 130.840785 
L 244.271483 128.518831 
L 245.292642 127.770086 
L 246.32462 127.276683 
L 247.354665 126.939683 
L 248.370705 126.45891 
L 250.487206 124.933984 
L 252.528365 123.55844 
L 254.562957 122.437806 
L 258.697049 119.730678 
L 260.745935 118.693727 
L 266.929494 114.393301 
L 267.946403 113.932302 
L 270.023494 112.553409 
L 274.170505 109.905709 
L 276.292028 108.437381 
L 277.354529 107.87269 
L 278.415483 107.153972 
L 280.462052 106.080647 
L 281.483984 105.49943 
L 283.609371 103.952253 
L 287.737667 101.705908 
L 290.840747 98.970373 
L 291.856498 98.372198 
L 293.924703 97.642193 
L 294.980248 96.965924 
L 296.006237 95.915174 
L 297.041692 95.035841 
L 299.093959 93.771968 
L 301.166414 92.852293 
L 302.207085 92.017245 
L 303.230563 90.986369 
L 305.290654 89.774465 
L 306.327654 89.46494 
L 307.358473 89.005993 
L 308.420973 88.35662 
L 309.461837 87.48798 
L 310.509076 86.390137 
L 311.537962 85.535106 
L 312.598144 85.06039 
L 316.780725 82.492275 
L 318.837146 80.666208 
L 319.862555 80.060364 
L 320.91076 79.732437 
L 324.010556 77.600694 
L 326.089338 75.684477 
L 327.106633 75.109632 
L 329.196475 74.213449 
L 330.227679 73.676085 
L 334.367373 70.415067 
L 335.380419 69.758349 
L 337.449783 68.72715 
L 338.466693 68.021933 
L 339.522238 67.088702 
L 344.697387 63.739221 
L 346.741638 62.274782 
L 348.778547 60.973875 
L 349.840951 60.155906 
L 351.880951 58.915054 
L 353.930611 57.320459 
L 354.96027 56.761493 
L 357.008771 55.224901 
L 359.090112 53.747284 
L 361.170294 52.151934 
L 364.260045 49.965644 
L 365.313272 49.36034 
L 368.443591 47.141106 
L 369.485421 46.653914 
L 372.591109 45.57739 
L 373.003746 45.110558 
L 373.581818 44.64 
L 373.524685 44.965308 
L 373.450913 44.732675 
L 373.390278 44.87241 
L 373.347247 44.821306 
L 373.289027 58.206719 
L 373.28753 58.19635 
L 373.288158 59.361188 
L 373.289389 59.149847 
L 373.287602 68.1236 
L 373.2827 67.803828 
L 372.260237 67.985573 
L 371.247384 70.53187 
L 370.207293 72.583575 
L 368.163043 71.869664 
L 364.995633 72.586424 
L 363.963269 72.457227 
L 362.906275 72.771315 
L 361.888979 72.490157 
L 360.831888 74.985688 
L 359.77441 76.562892 
L 357.643614 78.967044 
L 356.571069 80.62353 
L 355.519 81.180822 
L 354.482 80.456704 
L 353.462386 80.455475 
L 351.357477 81.372289 
L 350.313908 81.650773 
L 349.290044 82.397723 
L 348.254783 86.072322 
L 347.208896 87.339313 
L 346.17576 87.843531 
L 345.121759 87.886021 
L 344.100214 88.192453 
L 342.023509 89.297102 
L 340.988054 90.092077 
L 339.97327 91.27525 
L 336.843917 94.357182 
L 335.803053 94.842592 
L 334.768491 95.517322 
L 333.704832 95.991391 
L 331.618468 96.512135 
L 330.567172 97.398921 
L 327.472013 100.693314 
L 326.409899 101.379412 
L 323.282671 103.093469 
L 321.212534 104.763997 
L 314.962714 109.132039 
L 312.891032 110.273736 
L 311.851521 111.155121 
L 310.811043 111.807411 
L 307.678068 114.414033 
L 304.592181 116.042435 
L 303.550544 116.78038 
L 301.460703 118.450583 
L 299.420316 119.812626 
L 297.37452 120.875257 
L 295.340315 122.577217 
L 292.280315 124.655277 
L 290.159564 125.933502 
L 286.059859 128.519223 
L 285.040631 129.056803 
L 283.984168 129.83935 
L 281.873076 131.04445 
L 278.724598 133.616237 
L 275.55178 135.542432 
L 274.533325 136.224209 
L 272.475552 137.329721 
L 270.403881 138.781415 
L 269.347177 139.315593 
L 268.294722 140.24688 
L 267.273563 140.872167 
L 266.233085 141.336298 
L 265.193767 141.925077 
L 262.12488 144.139233 
L 261.109129 144.721423 
L 259.075939 146.2306 
L 258.059802 146.650446 
L 257.001165 147.497699 
L 250.785346 151.133738 
L 248.70072 152.483683 
L 246.649515 153.650979 
L 241.468378 156.832877 
L 240.451082 157.296469 
L 233.242223 161.55294 
L 232.221837 162.061573 
L 229.083018 164.142658 
L 227.00554 165.187683 
L 225.982449 165.819558 
L 224.920335 166.649529 
L 222.884198 167.843828 
L 221.851835 168.355593 
L 220.81638 168.693836 
L 219.79638 169.153215 
L 218.746629 169.81663 
L 215.623651 172.144524 
L 210.396343 174.957289 
L 207.311507 176.718824 
L 206.269097 177.142018 
L 202.080528 179.568205 
L 201.01996 180.254951 
L 195.9018 182.940476 
L 191.821026 185.325509 
L 189.706844 186.53763 
L 188.656707 187.24101 
L 185.510547 188.830096 
L 180.329784 191.708723 
L 179.266898 192.169182 
L 176.124215 194.114278 
L 165.775849 199.569254 
L 164.753917 200.157169 
L 161.669382 201.477572 
L 159.593257 202.824277 
L 158.544279 203.577451 
L 157.527551 204.160237 
L 155.461664 204.957534 
L 154.446687 205.297073 
L 151.303811 207.058979 
L 148.212901 208.510511 
L 147.198697 208.956496 
L 146.136969 209.565041 
L 144.013901 210.440756 
L 142.969753 211.045844 
L 140.867548 212.48166 
L 139.840979 213.186336 
L 136.718774 214.549891 
L 134.620819 215.643251 
L 131.515264 217.06637 
L 127.327467 219.469873 
L 126.273853 219.889503 
L 125.222944 220.58543 
L 124.16933 221.072245 
L 123.113012 221.793771 
L 122.098034 222.346365 
L 119.033784 223.598181 
L 114.857964 225.702218 
L 113.833714 226.172506 
L 112.811009 226.507778 
L 110.699918 227.706398 
L 109.644372 228.256615 
L 108.581486 228.649296 
L 105.524262 230.142527 
L 104.463694 230.895809 
L 103.449489 231.422696 
L 101.406011 232.181487 
L 100.343511 232.632548 
L 97.196578 234.371448 
L 95.126442 235.057735 
L 94.070897 235.383772 
L 90.951397 237.287932 
L 88.877396 238.141396 
L 87.845419 238.366642 
L 84.721282 240.07438 
L 82.648827 241.179865 
L 81.62672 241.398584 
L 80.61097 241.770743 
L 79.553879 242.355741 
L 76.439787 243.722158 
L 75.412447 244.20314 
L 72.306082 244.861777 
L 71.273718 244.950272 
L 70.253815 245.322106 
L 69.458968 246.24 
L 69.219084 245.099942 
L 69.219084 245.099942 
" clip-path="url(#p91df262f0b)" style="fill: none; stroke: #000000; stroke-width: 1.5; stroke-linecap: square"/>
   </g>
   <g id="patch_3">
    <path d="M 54 256.32 
L 54 34.56 
" style="fill: none; stroke: #000000; stroke-width: 0.8; stroke-linejoin: miter; stroke-linecap: square"/>
   </g>
   <g id="patch_4">
    <path d="M 388.8 256.32 
L 388.8 34.56 
" style="fill: none; stroke: #000000; stroke-width: 0.8; stroke-linejoin: miter; stroke-linecap: square"/>
   </g>
   <g id="patch_5">
    <path d="M 54 256.32 
L 388.8 256.32 
" style="fill: none; stroke: #000000; stroke-width: 0.8; stroke-linejoin: miter; stroke-linecap: square"/>
   </g>
   <g id="patch_6">
    <path d="M 54 34.56 
L 388.8 34.56 
" style="fill: none; stroke: #000000; stroke-width: 0.8; stroke-linejoin: miter; stroke-linecap: square"/>
   </g>
   <g id="text_14">
    <!-- 2025-07-03 trial 6 -->
    <g transform="translate(167.07 28.56) scale(0.12 -0.12)">
     <defs>
      <path id="DejaVuSans-35" d="M 691 4666 
L 3169 4666 
L 3169 4134 
L 1269 4134 
L 1269 2991 
Q 1406 3038 1543 3061 
Q 1681 3084 1819 3084 
Q 2600 3084 3056 2656 
Q 3513 2228 3513 1497 
Q 3513 744 3044 326 
Q 2575 -91 1722 -91 
Q 1428 -91 1123 -41 
Q 819 9 494 109 
L 494 744 
Q 775 591 1075 516 
Q 1375 441 1709 441 
Q 2250 441 2565 725 
Q 2881 1009 2881 1497 
Q 2881 1984 2565 2268 
Q 2250 2553 1709 2553 
Q 1456 2553 1204 2497 
Q 953 2441 691 2322 
L 691 4666 
z
" transform="scale(0.015625)"/>
      <path id="DejaVuSans-2d" d="M 313 2009 
L 1997 2009 
L 1997 1497 
L 313 1497 
L 313 2009 
z
" transform="scale(0.015625)"/>
      <path id="DejaVuSans-37" d="M 525 4666 
L 3525 4666 
L 3525 4397 
L 1831 0 
L 1172 0 
L 2766 4134 
L 525 4134 
L 525 4666 
z
" transform="scale(0.015625)"/>
      <path id="DejaVuSans-33" d="M 2597 2516 
Q 3050 2419 3304 2112 
Q 3559 1806 3559 1356 
Q 3559 666 3084 287 
Q 2609 -91 1734 -91 
Q 1441 -91 1130 -33 
Q 819 25 488 141 
L 488 750 
Q 750 597 1062 519 
Q 1375 441 1716 441 
Q 2309 441 2620 675 
Q 2931 909 2931 1356 
Q 2931 1769 2642 2001 
Q 2353 2234 1838 2234 
L 1294 2234 
L 1294 2753 
L 1863 2753 
Q 2328 2753 2575 2939 
Q 2822 3125 2822 3475 
Q 2822 3834 2567 4026 
Q 2313 4219 1838 4219 
Q 1578 4219 1281 4162 
Q 984 4106 628 3988 
L 628 4550 
Q 988 4650 1302 4700 
Q 1616 4750 1894 4750 
Q 2613 4750 3031 4423 
Q 3450 4097 3450 3541 
Q 3450 3153 3228 2886 
Q 3006 2619 2597 2516 
z
" transform="scale(0.015625)"/>
      <path id="DejaVuSans-6c" d="M 603 4863 
L 1178 4863 
L 1178 0 
L 603 0 
L 603 4863 
z
" transform="scale(0.015625)"/>
     </defs>
     <use xlink:href="#DejaVuSans-32"/>
     <use xlink:href="#DejaVuSans-30" x="63.623047"/>
     <use xlink:href="#DejaVuSans-32" x="127.246094"/>
     <use xlink:href="#DejaVuSans-35" x="190.869141"/>
     <use xlink:href="#DejaVuSans-2d" x="254.492188"/>
     <use xlink:href="#DejaVuSans-30" x="290.576172"/>
     <use xlink:href="#DejaVuSans-37" x="354.199219"/>
     <use xlink:href="#DejaVuSans-2d" x="417.822266"/>
     <use xlink:href="#DejaVuSans-30" x="453.90625"/>
     <use xlink:href="#DejaVuSans-33" x="517.529297"/>
     <use xlink:href="#DejaVuSans-20" x="581.152344"/>
     <use xlink:href="#DejaVuSans-74" x="612.939453"/>
     <use xlink:href="#DejaVuSans-72" x="652.148438"/>
     <use xlink:href="#DejaVuSans-69" x="693.261719"/>
     <use xlink:href="#DejaVuSans-61" x="721.044922"/>
     <use xlink:href="#DejaVuSans-6c" x="782.324219"/>
     <use xlink:href="#DejaVuSans-20" x="810.107422"/>
     <use xlink:href="#DejaVuSans-36" x="841.894531"/>
    </g>
   </g>
  </g>
 </g>
 <defs>
  <clipPath id="p91df262f0b">
   <rect x="54" y="34.56" width="334.8" height="221.76"/>
  </clipPath>
 </defs>
</svg>
