<?xml version="1.0" encoding="utf-8" standalone="no"?>
<!DOCTYPE svg PUBLIC "-//W3C//DTD SVG 1.1//EN"
  "http://www.w3.org/Graphics/SVG/1.1/DTD/svg11.dtd">
<svg xmlns:xlink="http://www.w3.org/1999/xlink" width="460.8pt" height="345.6pt" viewBox="0 0 460.8 345.6" xmlns="http://www.w3.org/2000/svg" version="1.1">
 <metadata>
  <rdf:RDF xmlns:dc="http://purl.org/dc/elements/1.1/" xmlns:cc="http://creativecommons.org/ns#" xmlns:rdf="http://www.w3.org/1999/02/22-rdf-syntax-ns#">
   <cc:Work>
    <dc:type rdf:resource="http://purl.org/dc/dcmitype/StillImage"/>
    <dc:date>2025-07-16T22:11:49.932575</dc:date>
    <dc:format>image/svg+xml</dc:format>
    <dc:creator>
     <cc:Agent>
      <dc:title>Matplotlib v3.10.3, https://matplotlib.org/</dc:title>
     </cc:Agent>
    </dc:creator>
   </cc:Work>
  </rdf:RDF>
 </metadata>
 <defs>
  <style type="text/css">*{stroke-linejoin: round; stroke-linecap: butt}</style>
 </defs>
 <g id="figure_1">
  <g id="patch_1">
   <path d="M 0 345.6 
L 460.8 345.6 
L 460.8 0 
L 0 0 
z
" style="fill: #ffffff"/>
  </g>
  <g id="axes_1">
   <g id="patch_2">
    <path d="M 57.6 307.584 
L 414.72 307.584 
L 414.72 41.472 
L 57.6 41.472 
z
" style="fill: #ffffff"/>
   </g>
   <g id="matplotlib.axis_1">
    <g id="xtick_1">
     <g id="line2d_1">
      <defs>
       <path id="m9f8491e3fe" d="M 0 0 
L 0 3.5 
" style="stroke: #000000; stroke-width: 0.8"/>
      </defs>
      <g>
       <use xlink:href="#m9f8491e3fe" x="73.902789" y="307.584" style="stroke: #000000; stroke-width: 0.8"/>
      </g>
     </g>
     <g id="text_1">
      <!-- 0.00 -->
      <g transform="translate(62.769977 322.182437) scale(0.1 -0.1)">
       <defs>
        <path id="DejaVuSans-30" d="M 2034 4250 
Q 1547 4250 1301 3770 
Q 1056 3291 1056 2328 
Q 1056 1369 1301 889 
Q 1547 409 2034 409 
Q 2525 409 2770 889 
Q 3016 1369 3016 2328 
Q 3016 3291 2770 3770 
Q 2525 4250 2034 4250 
z
M 2034 4750 
Q 2819 4750 3233 4129 
Q 3647 3509 3647 2328 
Q 3647 1150 3233 529 
Q 2819 -91 2034 -91 
Q 1250 -91 836 529 
Q 422 1150 422 2328 
Q 422 3509 836 4129 
Q 1250 4750 2034 4750 
z
" transform="scale(0.015625)"/>
        <path id="DejaVuSans-2e" d="M 684 794 
L 1344 794 
L 1344 0 
L 684 0 
L 684 794 
z
" transform="scale(0.015625)"/>
       </defs>
       <use xlink:href="#DejaVuSans-30"/>
       <use xlink:href="#DejaVuSans-2e" transform="translate(63.623047 0)"/>
       <use xlink:href="#DejaVuSans-30" transform="translate(95.410156 0)"/>
       <use xlink:href="#DejaVuSans-30" transform="translate(159.033203 0)"/>
      </g>
     </g>
    </g>
    <g id="xtick_2">
     <g id="line2d_2">
      <g>
       <use xlink:href="#m9f8491e3fe" x="116.088207" y="307.584" style="stroke: #000000; stroke-width: 0.8"/>
      </g>
     </g>
     <g id="text_2">
      <!-- 0.05 -->
      <g transform="translate(104.955395 322.182437) scale(0.1 -0.1)">
       <defs>
        <path id="DejaVuSans-35" d="M 691 4666 
L 3169 4666 
L 3169 4134 
L 1269 4134 
L 1269 2991 
Q 1406 3038 1543 3061 
Q 1681 3084 1819 3084 
Q 2600 3084 3056 2656 
Q 3513 2228 3513 1497 
Q 3513 744 3044 326 
Q 2575 -91 1722 -91 
Q 1428 -91 1123 -41 
Q 819 9 494 109 
L 494 744 
Q 775 591 1075 516 
Q 1375 441 1709 441 
Q 2250 441 2565 725 
Q 2881 1009 2881 1497 
Q 2881 1984 2565 2268 
Q 2250 2553 1709 2553 
Q 1456 2553 1204 2497 
Q 953 2441 691 2322 
L 691 4666 
z
" transform="scale(0.015625)"/>
       </defs>
       <use xlink:href="#DejaVuSans-30"/>
       <use xlink:href="#DejaVuSans-2e" transform="translate(63.623047 0)"/>
       <use xlink:href="#DejaVuSans-30" transform="translate(95.410156 0)"/>
       <use xlink:href="#DejaVuSans-35" transform="translate(159.033203 0)"/>
      </g>
     </g>
    </g>
    <g id="xtick_3">
     <g id="line2d_3">
      <g>
       <use xlink:href="#m9f8491e3fe" x="158.273625" y="307.584" style="stroke: #000000; stroke-width: 0.8"/>
      </g>
     </g>
     <g id="text_3">
      <!-- 0.10 -->
      <g transform="translate(147.140813 322.182437) scale(0.1 -0.1)">
       <defs>
        <path id="DejaVuSans-31" d="M 794 531 
L 1825 531 
L 1825 4091 
L 703 3866 
L 703 4441 
L 1819 4666 
L 2450 4666 
L 2450 531 
L 3481 531 
L 3481 0 
L 794 0 
L 794 531 
z
" transform="scale(0.015625)"/>
       </defs>
       <use xlink:href="#DejaVuSans-30"/>
       <use xlink:href="#DejaVuSans-2e" transform="translate(63.623047 0)"/>
       <use xlink:href="#DejaVuSans-31" transform="translate(95.410156 0)"/>
       <use xlink:href="#DejaVuSans-30" transform="translate(159.033203 0)"/>
      </g>
     </g>
    </g>
    <g id="xtick_4">
     <g id="line2d_4">
      <g>
       <use xlink:href="#m9f8491e3fe" x="200.459044" y="307.584" style="stroke: #000000; stroke-width: 0.8"/>
      </g>
     </g>
     <g id="text_4">
      <!-- 0.15 -->
      <g transform="translate(189.326231 322.182437) scale(0.1 -0.1)">
       <use xlink:href="#DejaVuSans-30"/>
       <use xlink:href="#DejaVuSans-2e" transform="translate(63.623047 0)"/>
       <use xlink:href="#DejaVuSans-31" transform="translate(95.410156 0)"/>
       <use xlink:href="#DejaVuSans-35" transform="translate(159.033203 0)"/>
      </g>
     </g>
    </g>
    <g id="xtick_5">
     <g id="line2d_5">
      <g>
       <use xlink:href="#m9f8491e3fe" x="242.644462" y="307.584" style="stroke: #000000; stroke-width: 0.8"/>
      </g>
     </g>
     <g id="text_5">
      <!-- 0.20 -->
      <g transform="translate(231.511649 322.182437) scale(0.1 -0.1)">
       <defs>
        <path id="DejaVuSans-32" d="M 1228 531 
L 3431 531 
L 3431 0 
L 469 0 
L 469 531 
Q 828 903 1448 1529 
Q 2069 2156 2228 2338 
Q 2531 2678 2651 2914 
Q 2772 3150 2772 3378 
Q 2772 3750 2511 3984 
Q 2250 4219 1831 4219 
Q 1534 4219 1204 4116 
Q 875 4013 500 3803 
L 500 4441 
Q 881 4594 1212 4672 
Q 1544 4750 1819 4750 
Q 2544 4750 2975 4387 
Q 3406 4025 3406 3419 
Q 3406 3131 3298 2873 
Q 3191 2616 2906 2266 
Q 2828 2175 2409 1742 
Q 1991 1309 1228 531 
z
" transform="scale(0.015625)"/>
       </defs>
       <use xlink:href="#DejaVuSans-30"/>
       <use xlink:href="#DejaVuSans-2e" transform="translate(63.623047 0)"/>
       <use xlink:href="#DejaVuSans-32" transform="translate(95.410156 0)"/>
       <use xlink:href="#DejaVuSans-30" transform="translate(159.033203 0)"/>
      </g>
     </g>
    </g>
    <g id="xtick_6">
     <g id="line2d_6">
      <g>
       <use xlink:href="#m9f8491e3fe" x="284.82988" y="307.584" style="stroke: #000000; stroke-width: 0.8"/>
      </g>
     </g>
     <g id="text_6">
      <!-- 0.25 -->
      <g transform="translate(273.697067 322.182437) scale(0.1 -0.1)">
       <use xlink:href="#DejaVuSans-30"/>
       <use xlink:href="#DejaVuSans-2e" transform="translate(63.623047 0)"/>
       <use xlink:href="#DejaVuSans-32" transform="translate(95.410156 0)"/>
       <use xlink:href="#DejaVuSans-35" transform="translate(159.033203 0)"/>
      </g>
     </g>
    </g>
    <g id="xtick_7">
     <g id="line2d_7">
      <g>
       <use xlink:href="#m9f8491e3fe" x="327.015298" y="307.584" style="stroke: #000000; stroke-width: 0.8"/>
      </g>
     </g>
     <g id="text_7">
      <!-- 0.30 -->
      <g transform="translate(315.882486 322.182437) scale(0.1 -0.1)">
       <defs>
        <path id="DejaVuSans-33" d="M 2597 2516 
Q 3050 2419 3304 2112 
Q 3559 1806 3559 1356 
Q 3559 666 3084 287 
Q 2609 -91 1734 -91 
Q 1441 -91 1130 -33 
Q 819 25 488 141 
L 488 750 
Q 750 597 1062 519 
Q 1375 441 1716 441 
Q 2309 441 2620 675 
Q 2931 909 2931 1356 
Q 2931 1769 2642 2001 
Q 2353 2234 1838 2234 
L 1294 2234 
L 1294 2753 
L 1863 2753 
Q 2328 2753 2575 2939 
Q 2822 3125 2822 3475 
Q 2822 3834 2567 4026 
Q 2313 4219 1838 4219 
Q 1578 4219 1281 4162 
Q 984 4106 628 3988 
L 628 4550 
Q 988 4650 1302 4700 
Q 1616 4750 1894 4750 
Q 2613 4750 3031 4423 
Q 3450 4097 3450 3541 
Q 3450 3153 3228 2886 
Q 3006 2619 2597 2516 
z
" transform="scale(0.015625)"/>
       </defs>
       <use xlink:href="#DejaVuSans-30"/>
       <use xlink:href="#DejaVuSans-2e" transform="translate(63.623047 0)"/>
       <use xlink:href="#DejaVuSans-33" transform="translate(95.410156 0)"/>
       <use xlink:href="#DejaVuSans-30" transform="translate(159.033203 0)"/>
      </g>
     </g>
    </g>
    <g id="xtick_8">
     <g id="line2d_8">
      <g>
       <use xlink:href="#m9f8491e3fe" x="369.200716" y="307.584" style="stroke: #000000; stroke-width: 0.8"/>
      </g>
     </g>
     <g id="text_8">
      <!-- 0.35 -->
      <g transform="translate(358.067904 322.182437) scale(0.1 -0.1)">
       <use xlink:href="#DejaVuSans-30"/>
       <use xlink:href="#DejaVuSans-2e" transform="translate(63.623047 0)"/>
       <use xlink:href="#DejaVuSans-33" transform="translate(95.410156 0)"/>
       <use xlink:href="#DejaVuSans-35" transform="translate(159.033203 0)"/>
      </g>
     </g>
    </g>
    <g id="xtick_9">
     <g id="line2d_9">
      <g>
       <use xlink:href="#m9f8491e3fe" x="411.386134" y="307.584" style="stroke: #000000; stroke-width: 0.8"/>
      </g>
     </g>
     <g id="text_9">
      <!-- 0.40 -->
      <g transform="translate(400.253322 322.182437) scale(0.1 -0.1)">
       <defs>
        <path id="DejaVuSans-34" d="M 2419 4116 
L 825 1625 
L 2419 1625 
L 2419 4116 
z
M 2253 4666 
L 3047 4666 
L 3047 1625 
L 3713 1625 
L 3713 1100 
L 3047 1100 
L 3047 0 
L 2419 0 
L 2419 1100 
L 313 1100 
L 313 1709 
L 2253 4666 
z
" transform="scale(0.015625)"/>
       </defs>
       <use xlink:href="#DejaVuSans-30"/>
       <use xlink:href="#DejaVuSans-2e" transform="translate(63.623047 0)"/>
       <use xlink:href="#DejaVuSans-34" transform="translate(95.410156 0)"/>
       <use xlink:href="#DejaVuSans-30" transform="translate(159.033203 0)"/>
      </g>
     </g>
    </g>
    <g id="text_10">
     <!-- Strain -->
     <g transform="translate(221.348281 335.860562) scale(0.1 -0.1)">
      <defs>
       <path id="DejaVuSans-53" d="M 3425 4513 
L 3425 3897 
Q 3066 4069 2747 4153 
Q 2428 4238 2131 4238 
Q 1616 4238 1336 4038 
Q 1056 3838 1056 3469 
Q 1056 3159 1242 3001 
Q 1428 2844 1947 2747 
L 2328 2669 
Q 3034 2534 3370 2195 
Q 3706 1856 3706 1288 
Q 3706 609 3251 259 
Q 2797 -91 1919 -91 
Q 1588 -91 1214 -16 
Q 841 59 441 206 
L 441 856 
Q 825 641 1194 531 
Q 1563 422 1919 422 
Q 2459 422 2753 634 
Q 3047 847 3047 1241 
Q 3047 1584 2836 1778 
Q 2625 1972 2144 2069 
L 1759 2144 
Q 1053 2284 737 2584 
Q 422 2884 422 3419 
Q 422 4038 858 4394 
Q 1294 4750 2059 4750 
Q 2388 4750 2728 4690 
Q 3069 4631 3425 4513 
z
" transform="scale(0.015625)"/>
       <path id="DejaVuSans-74" d="M 1172 4494 
L 1172 3500 
L 2356 3500 
L 2356 3053 
L 1172 3053 
L 1172 1153 
Q 1172 725 1289 603 
Q 1406 481 1766 481 
L 2356 481 
L 2356 0 
L 1766 0 
Q 1100 0 847 248 
Q 594 497 594 1153 
L 594 3053 
L 172 3053 
L 172 3500 
L 594 3500 
L 594 4494 
L 1172 4494 
z
" transform="scale(0.015625)"/>
       <path id="DejaVuSans-72" d="M 2631 2963 
Q 2534 3019 2420 3045 
Q 2306 3072 2169 3072 
Q 1681 3072 1420 2755 
Q 1159 2438 1159 1844 
L 1159 0 
L 581 0 
L 581 3500 
L 1159 3500 
L 1159 2956 
Q 1341 3275 1631 3429 
Q 1922 3584 2338 3584 
Q 2397 3584 2469 3576 
Q 2541 3569 2628 3553 
L 2631 2963 
z
" transform="scale(0.015625)"/>
       <path id="DejaVuSans-61" d="M 2194 1759 
Q 1497 1759 1228 1600 
Q 959 1441 959 1056 
Q 959 750 1161 570 
Q 1363 391 1709 391 
Q 2188 391 2477 730 
Q 2766 1069 2766 1631 
L 2766 1759 
L 2194 1759 
z
M 3341 1997 
L 3341 0 
L 2766 0 
L 2766 531 
Q 2569 213 2275 61 
Q 1981 -91 1556 -91 
Q 1019 -91 701 211 
Q 384 513 384 1019 
Q 384 1609 779 1909 
Q 1175 2209 1959 2209 
L 2766 2209 
L 2766 2266 
Q 2766 2663 2505 2880 
Q 2244 3097 1772 3097 
Q 1472 3097 1187 3025 
Q 903 2953 641 2809 
L 641 3341 
Q 956 3463 1253 3523 
Q 1550 3584 1831 3584 
Q 2591 3584 2966 3190 
Q 3341 2797 3341 1997 
z
" transform="scale(0.015625)"/>
       <path id="DejaVuSans-69" d="M 603 3500 
L 1178 3500 
L 1178 0 
L 603 0 
L 603 3500 
z
M 603 4863 
L 1178 4863 
L 1178 4134 
L 603 4134 
L 603 4863 
z
" transform="scale(0.015625)"/>
       <path id="DejaVuSans-6e" d="M 3513 2113 
L 3513 0 
L 2938 0 
L 2938 2094 
Q 2938 2591 2744 2837 
Q 2550 3084 2163 3084 
Q 1697 3084 1428 2787 
Q 1159 2491 1159 1978 
L 1159 0 
L 581 0 
L 581 3500 
L 1159 3500 
L 1159 2956 
Q 1366 3272 1645 3428 
Q 1925 3584 2291 3584 
Q 2894 3584 3203 3211 
Q 3513 2838 3513 2113 
z
" transform="scale(0.015625)"/>
      </defs>
      <use xlink:href="#DejaVuSans-53"/>
      <use xlink:href="#DejaVuSans-74" transform="translate(63.476562 0)"/>
      <use xlink:href="#DejaVuSans-72" transform="translate(102.685547 0)"/>
      <use xlink:href="#DejaVuSans-61" transform="translate(143.798828 0)"/>
      <use xlink:href="#DejaVuSans-69" transform="translate(205.078125 0)"/>
      <use xlink:href="#DejaVuSans-6e" transform="translate(232.861328 0)"/>
     </g>
    </g>
   </g>
   <g id="matplotlib.axis_2">
    <g id="ytick_1">
     <g id="line2d_10">
      <defs>
       <path id="mcde7838f10" d="M 0 0 
L -3.5 0 
" style="stroke: #000000; stroke-width: 0.8"/>
      </defs>
      <g>
       <use xlink:href="#mcde7838f10" x="57.6" y="284.696346" style="stroke: #000000; stroke-width: 0.8"/>
      </g>
     </g>
     <g id="text_11">
      <!-- 0 -->
      <g transform="translate(44.2375 288.495564) scale(0.1 -0.1)">
       <use xlink:href="#DejaVuSans-30"/>
      </g>
     </g>
    </g>
    <g id="ytick_2">
     <g id="line2d_11">
      <g>
       <use xlink:href="#mcde7838f10" x="57.6" y="250.386382" style="stroke: #000000; stroke-width: 0.8"/>
      </g>
     </g>
     <g id="text_12">
      <!-- 250 -->
      <g transform="translate(31.5125 254.185601) scale(0.1 -0.1)">
       <use xlink:href="#DejaVuSans-32"/>
       <use xlink:href="#DejaVuSans-35" transform="translate(63.623047 0)"/>
       <use xlink:href="#DejaVuSans-30" transform="translate(127.246094 0)"/>
      </g>
     </g>
    </g>
    <g id="ytick_3">
     <g id="line2d_12">
      <g>
       <use xlink:href="#mcde7838f10" x="57.6" y="216.076419" style="stroke: #000000; stroke-width: 0.8"/>
      </g>
     </g>
     <g id="text_13">
      <!-- 500 -->
      <g transform="translate(31.5125 219.875638) scale(0.1 -0.1)">
       <use xlink:href="#DejaVuSans-35"/>
       <use xlink:href="#DejaVuSans-30" transform="translate(63.623047 0)"/>
       <use xlink:href="#DejaVuSans-30" transform="translate(127.246094 0)"/>
      </g>
     </g>
    </g>
    <g id="ytick_4">
     <g id="line2d_13">
      <g>
       <use xlink:href="#mcde7838f10" x="57.6" y="181.766456" style="stroke: #000000; stroke-width: 0.8"/>
      </g>
     </g>
     <g id="text_14">
      <!-- 750 -->
      <g transform="translate(31.5125 185.565674) scale(0.1 -0.1)">
       <defs>
        <path id="DejaVuSans-37" d="M 525 4666 
L 3525 4666 
L 3525 4397 
L 1831 0 
L 1172 0 
L 2766 4134 
L 525 4134 
L 525 4666 
z
" transform="scale(0.015625)"/>
       </defs>
       <use xlink:href="#DejaVuSans-37"/>
       <use xlink:href="#DejaVuSans-35" transform="translate(63.623047 0)"/>
       <use xlink:href="#DejaVuSans-30" transform="translate(127.246094 0)"/>
      </g>
     </g>
    </g>
    <g id="ytick_5">
     <g id="line2d_14">
      <g>
       <use xlink:href="#mcde7838f10" x="57.6" y="147.456492" style="stroke: #000000; stroke-width: 0.8"/>
      </g>
     </g>
     <g id="text_15">
      <!-- 1000 -->
      <g transform="translate(25.15 151.255711) scale(0.1 -0.1)">
       <use xlink:href="#DejaVuSans-31"/>
       <use xlink:href="#DejaVuSans-30" transform="translate(63.623047 0)"/>
       <use xlink:href="#DejaVuSans-30" transform="translate(127.246094 0)"/>
       <use xlink:href="#DejaVuSans-30" transform="translate(190.869141 0)"/>
      </g>
     </g>
    </g>
    <g id="ytick_6">
     <g id="line2d_15">
      <g>
       <use xlink:href="#mcde7838f10" x="57.6" y="113.146529" style="stroke: #000000; stroke-width: 0.8"/>
      </g>
     </g>
     <g id="text_16">
      <!-- 1250 -->
      <g transform="translate(25.15 116.945748) scale(0.1 -0.1)">
       <use xlink:href="#DejaVuSans-31"/>
       <use xlink:href="#DejaVuSans-32" transform="translate(63.623047 0)"/>
       <use xlink:href="#DejaVuSans-35" transform="translate(127.246094 0)"/>
       <use xlink:href="#DejaVuSans-30" transform="translate(190.869141 0)"/>
      </g>
     </g>
    </g>
    <g id="ytick_7">
     <g id="line2d_16">
      <g>
       <use xlink:href="#mcde7838f10" x="57.6" y="78.836566" style="stroke: #000000; stroke-width: 0.8"/>
      </g>
     </g>
     <g id="text_17">
      <!-- 1500 -->
      <g transform="translate(25.15 82.635784) scale(0.1 -0.1)">
       <use xlink:href="#DejaVuSans-31"/>
       <use xlink:href="#DejaVuSans-35" transform="translate(63.623047 0)"/>
       <use xlink:href="#DejaVuSans-30" transform="translate(127.246094 0)"/>
       <use xlink:href="#DejaVuSans-30" transform="translate(190.869141 0)"/>
      </g>
     </g>
    </g>
    <g id="ytick_8">
     <g id="line2d_17">
      <g>
       <use xlink:href="#mcde7838f10" x="57.6" y="44.526602" style="stroke: #000000; stroke-width: 0.8"/>
      </g>
     </g>
     <g id="text_18">
      <!-- 1750 -->
      <g transform="translate(25.15 48.325821) scale(0.1 -0.1)">
       <use xlink:href="#DejaVuSans-31"/>
       <use xlink:href="#DejaVuSans-37" transform="translate(63.623047 0)"/>
       <use xlink:href="#DejaVuSans-35" transform="translate(127.246094 0)"/>
       <use xlink:href="#DejaVuSans-30" transform="translate(190.869141 0)"/>
      </g>
     </g>
    </g>
    <g id="text_19">
     <!-- Stress [Pa] -->
     <g transform="translate(19.070312 201.235813) rotate(-90) scale(0.1 -0.1)">
      <defs>
       <path id="DejaVuSans-65" d="M 3597 1894 
L 3597 1613 
L 953 1613 
Q 991 1019 1311 708 
Q 1631 397 2203 397 
Q 2534 397 2845 478 
Q 3156 559 3463 722 
L 3463 178 
Q 3153 47 2828 -22 
Q 2503 -91 2169 -91 
Q 1331 -91 842 396 
Q 353 884 353 1716 
Q 353 2575 817 3079 
Q 1281 3584 2069 3584 
Q 2775 3584 3186 3129 
Q 3597 2675 3597 1894 
z
M 3022 2063 
Q 3016 2534 2758 2815 
Q 2500 3097 2075 3097 
Q 1594 3097 1305 2825 
Q 1016 2553 972 2059 
L 3022 2063 
z
" transform="scale(0.015625)"/>
       <path id="DejaVuSans-73" d="M 2834 3397 
L 2834 2853 
Q 2591 2978 2328 3040 
Q 2066 3103 1784 3103 
Q 1356 3103 1142 2972 
Q 928 2841 928 2578 
Q 928 2378 1081 2264 
Q 1234 2150 1697 2047 
L 1894 2003 
Q 2506 1872 2764 1633 
Q 3022 1394 3022 966 
Q 3022 478 2636 193 
Q 2250 -91 1575 -91 
Q 1294 -91 989 -36 
Q 684 19 347 128 
L 347 722 
Q 666 556 975 473 
Q 1284 391 1588 391 
Q 1994 391 2212 530 
Q 2431 669 2431 922 
Q 2431 1156 2273 1281 
Q 2116 1406 1581 1522 
L 1381 1569 
Q 847 1681 609 1914 
Q 372 2147 372 2553 
Q 372 3047 722 3315 
Q 1072 3584 1716 3584 
Q 2034 3584 2315 3537 
Q 2597 3491 2834 3397 
z
" transform="scale(0.015625)"/>
       <path id="DejaVuSans-20" transform="scale(0.015625)"/>
       <path id="DejaVuSans-5b" d="M 550 4863 
L 1875 4863 
L 1875 4416 
L 1125 4416 
L 1125 -397 
L 1875 -397 
L 1875 -844 
L 550 -844 
L 550 4863 
z
" transform="scale(0.015625)"/>
       <path id="DejaVuSans-50" d="M 1259 4147 
L 1259 2394 
L 2053 2394 
Q 2494 2394 2734 2622 
Q 2975 2850 2975 3272 
Q 2975 3691 2734 3919 
Q 2494 4147 2053 4147 
L 1259 4147 
z
M 628 4666 
L 2053 4666 
Q 2838 4666 3239 4311 
Q 3641 3956 3641 3272 
Q 3641 2581 3239 2228 
Q 2838 1875 2053 1875 
L 1259 1875 
L 1259 0 
L 628 0 
L 628 4666 
z
" transform="scale(0.015625)"/>
       <path id="DejaVuSans-5d" d="M 1947 4863 
L 1947 -844 
L 622 -844 
L 622 -397 
L 1369 -397 
L 1369 4416 
L 622 4416 
L 622 4863 
L 1947 4863 
z
" transform="scale(0.015625)"/>
      </defs>
      <use xlink:href="#DejaVuSans-53"/>
      <use xlink:href="#DejaVuSans-74" transform="translate(63.476562 0)"/>
      <use xlink:href="#DejaVuSans-72" transform="translate(102.685547 0)"/>
      <use xlink:href="#DejaVuSans-65" transform="translate(141.548828 0)"/>
      <use xlink:href="#DejaVuSans-73" transform="translate(203.072266 0)"/>
      <use xlink:href="#DejaVuSans-73" transform="translate(255.171875 0)"/>
      <use xlink:href="#DejaVuSans-20" transform="translate(307.271484 0)"/>
      <use xlink:href="#DejaVuSans-5b" transform="translate(339.058594 0)"/>
      <use xlink:href="#DejaVuSans-50" transform="translate(378.072266 0)"/>
      <use xlink:href="#DejaVuSans-61" transform="translate(433.875 0)"/>
      <use xlink:href="#DejaVuSans-5d" transform="translate(495.154297 0)"/>
     </g>
    </g>
   </g>
   <g id="line2d_18">
    <path d="M 73.902789 284.638126 
L 73.902789 284.773746 
L 73.902214 284.440048 
L 73.90243 284.614902 
L 74.564834 273.334637 
L 75.639315 266.165465 
L 76.041875 264.687263 
L 76.384025 264.03775 
L 76.761331 263.757521 
L 77.173298 263.707653 
L 81.681168 264.64526 
L 84.697637 265.581135 
L 86.965436 266.215183 
L 87.5616 266.523408 
L 88.169648 266.987346 
L 89.419413 268.380227 
L 91.039551 270.690317 
L 92.709206 273.540067 
L 94.761118 277.074526 
L 96.147545 278.887616 
L 98.59558 281.83762 
L 101.748712 286.093048 
L 102.792494 286.992128 
L 103.483727 287.365411 
L 104.172979 287.561651 
L 105.200916 287.599313 
L 106.561597 287.364678 
L 111.237818 285.968598 
L 113.533346 285.083384 
L 116.448805 283.693704 
L 120.923004 281.2375 
L 125.361552 278.502934 
L 134.89423 273.749972 
L 140.029949 271.733177 
L 144.565547 269.696117 
L 150.796547 267.215915 
L 160.73327 264.108599 
L 163.714089 263.277244 
L 166.683024 262.122732 
L 169.964895 260.632799 
L 172.904121 259.296978 
L 177.4417 257.370304 
L 187.049641 252.35551 
L 194.049118 247.966768 
L 197.877638 245.466837 
L 201.729926 243.341256 
L 210.830838 238.771203 
L 215.106976 236.646688 
L 219.072158 234.955182 
L 223.371615 233.243478 
L 227.328875 231.415457 
L 234.865097 227.51838 
L 238.115279 225.515449 
L 243.918468 221.972458 
L 247.115173 219.963128 
L 249.662238 218.111643 
L 258.571024 211.297624 
L 263.686941 207.62985 
L 267.54517 204.805696 
L 276.972876 198.487611 
L 282.558197 194.487081 
L 289.15363 190.260448 
L 299.995492 182.363908 
L 312.285179 171.660279 
L 316.129544 168.140751 
L 318.686512 165.386988 
L 321.883218 161.912254 
L 327.01696 156.818538 
L 332.818168 151.242753 
L 336.05447 147.772286 
L 342.245858 140.844141 
L 345.860472 136.876673 
L 349.158189 133.365678 
L 351.802304 130.842283 
L 354.111696 128.525794 
L 356.747888 125.511799 
L 360.03174 121.40995 
L 363.961271 116.39089 
L 366.246896 113.96135 
L 368.520637 111.845367 
L 370.449751 110.267979 
L 374.848687 106.839106 
L 388.581961 95.356964 
L 390.515037 93.394561 
L 391.541984 92.058207 
L 392.467919 90.557608 
L 393.674606 88.123802 
L 394.772854 85.190862 
L 395.859219 81.60201 
L 396.522724 78.816251 
L 397.22386 74.465902 
L 397.883898 69.986503 
L 398.208904 69.404465 
L 398.334951 69.497602 
L 398.487273 70.973421 
L 398.404737 88.999567 
L 398.077194 89.252833 
L 397.402362 91.481801 
L 397.056127 91.313473 
L 396.730564 91.281311 
L 396.383957 91.578271 
L 395.697923 92.429424 
L 395.370256 92.712519 
L 395.020183 92.666925 
L 394.356431 94.397226 
L 393.358946 95.291706 
L 393.018776 95.724315 
L 392.341562 97.069801 
L 392.007829 98.330165 
L 391.335041 99.410486 
L 390.340774 100.884555 
L 389.66291 102.147586 
L 387.67871 105.005669 
L 386.999732 106.146182 
L 379.967049 116.49191 
L 378.317324 118.713345 
L 377.317487 120.185947 
L 376.32124 121.436246 
L 374.969411 123.46899 
L 374.288824 124.099905 
L 372.634457 126.535978 
L 371.655293 127.707754 
L 370.980276 128.729017 
L 367.682591 132.886659 
L 367.024657 133.483845 
L 365.687868 135.376325 
L 363.713324 137.825396 
L 362.068241 139.651084 
L 361.398547 140.418714 
L 361.073851 140.690545 
L 359.749287 142.309211 
L 353.462581 149.705151 
L 352.793754 150.318369 
L 350.44803 153.05181 
L 343.47263 160.423354 
L 343.136297 160.863961 
L 341.829218 161.933018 
L 337.787721 166.031268 
L 337.133996 166.549265 
L 335.127451 168.50936 
L 334.467289 169.078317 
L 333.491576 170.153106 
L 329.505907 173.966977 
L 329.166479 174.110725 
L 326.808594 176.405325 
L 325.80331 177.282607 
L 324.812262 178.234013 
L 324.159403 178.641208 
L 322.528247 180.157605 
L 322.188448 180.28872 
L 320.853146 181.664736 
L 320.525478 182.07608 
L 319.86742 182.260247 
L 318.518393 183.605875 
L 317.190393 184.601841 
L 316.513891 185.412866 
L 314.865528 186.521484 
L 314.189273 187.264051 
L 313.537405 187.766083 
L 312.53534 188.600971 
L 311.538721 189.577707 
L 306.174145 193.674865 
L 304.524792 195.045798 
L 303.859307 195.411757 
L 300.534898 198.122318 
L 300.20098 198.532796 
L 298.22235 199.791411 
L 297.562807 200.418126 
L 294.557493 202.414392 
L 293.890028 202.946087 
L 293.235684 203.25028 
L 292.585301 203.696986 
L 291.275251 204.844432 
L 290.949812 204.93552 
L 288.94271 206.206633 
L 288.273635 206.569551 
L 287.606603 207.198699 
L 286.936166 207.852945 
L 285.95677 208.391548 
L 284.967084 209.222669 
L 284.310016 209.588795 
L 283.644902 209.90312 
L 280.316548 212.331327 
L 279.637323 212.799148 
L 278.985207 213.177997 
L 276.337115 214.981042 
L 275.666864 215.409385 
L 275.001379 215.875022 
L 274.333666 216.22922 
L 273.6688 216.611936 
L 273.001643 217.177893 
L 272.337272 217.674426 
L 266.035481 221.411079 
L 265.362692 221.77413 
L 264.353323 222.505832 
L 263.022477 223.175205 
L 262.357889 223.661369 
L 261.036451 224.32123 
L 258.038178 226.344063 
L 256.698233 226.899746 
L 255.373452 227.924225 
L 253.720076 228.59049 
L 251.7014 230.073608 
L 251.031211 230.398306 
L 250.374268 230.571712 
L 249.722399 230.848033 
L 249.071521 231.405958 
L 247.438879 232.304621 
L 246.448574 232.92897 
L 245.452172 233.410897 
L 244.784087 233.842573 
L 243.465682 234.538883 
L 242.47321 235.123567 
L 241.810696 235.26849 
L 239.475061 236.763489 
L 239.137615 236.933245 
L 238.470892 237.089666 
L 234.506607 239.272519 
L 234.178445 239.300198 
L 233.504356 239.635762 
L 232.829835 240.159625 
L 231.518299 240.763606 
L 230.853309 241.228577 
L 229.868915 241.394863 
L 227.551477 242.762017 
L 226.242665 243.382192 
L 225.576684 243.610936 
L 224.571463 244.361136 
L 222.592214 245.211146 
L 221.918064 245.579864 
L 221.244795 245.832534 
L 220.581229 246.182524 
L 219.593028 246.807457 
L 217.922136 247.536101 
L 217.257641 247.655002 
L 215.599127 248.784654 
L 214.594339 249.037637 
L 212.58224 250.136008 
L 211.243223 250.695404 
L 209.908972 251.420275 
L 209.252153 251.54383 
L 208.596261 251.902071 
L 207.942288 252.451664 
L 206.936386 252.56955 
L 206.261988 253.006267 
L 205.587683 253.42745 
L 205.258406 253.508187 
L 204.929501 253.469579 
L 204.254299 253.851286 
L 203.590183 254.311525 
L 203.257564 254.441449 
L 202.591089 254.486405 
L 201.924799 255.008635 
L 201.261171 255.634985 
L 200.932266 255.740429 
L 199.927106 255.61154 
L 199.593373 255.797415 
L 198.940452 256.37887 
L 197.950271 256.733006 
L 197.620004 256.791806 
L 196.945738 257.219503 
L 196.271835 257.657794 
L 194.952996 258.073147 
L 193.286436 258.782539 
L 191.977995 259.407045 
L 191.65268 259.573189 
L 191.326622 259.584919 
L 189.303877 260.491087 
L 188.642725 260.582229 
L 187.307484 261.552671 
L 186.632467 261.603806 
L 184.989551 262.368541 
L 184.011872 262.62123 
L 182.997676 263.191987 
L 182.335904 263.557404 
L 180.664934 264.035761 
L 179.671472 264.602676 
L 179.013538 264.902436 
L 178.347434 265.273172 
L 177.674831 265.506447 
L 176.339157 266.170883 
L 175.674167 266.113915 
L 175.348481 266.195334 
L 174.02141 267.030338 
L 173.021116 267.298861 
L 172.044056 267.968521 
L 169.73615 268.525862 
L 168.720963 269.032078 
L 168.066991 269.253348 
L 166.718071 269.960959 
L 166.062489 270.024001 
L 164.400703 270.85323 
L 163.738684 271.008685 
L 163.063976 271.492287 
L 162.727458 271.76695 
L 162.058631 271.817001 
L 161.044063 271.747278 
L 160.043422 272.536322 
L 158.722602 272.753522 
L 158.061635 273.125447 
L 157.729821 273.387578 
L 157.071268 273.511816 
L 154.428345 274.512188 
L 153.760755 274.744089 
L 152.763518 275.1905 
L 149.773105 276.128623 
L 148.780324 276.433936 
L 148.106012 276.875731 
L 146.789648 277.217117 
L 145.458307 277.799916 
L 145.132744 277.824682 
L 144.128574 278.24911 
L 142.814687 278.567979 
L 142.141527 279.110073 
L 141.811755 279.235668 
L 140.813775 279.331056 
L 140.149211 279.762189 
L 139.817459 279.98136 
L 138.491192 280.169578 
L 137.829297 280.415326 
L 137.494636 280.661809 
L 136.158714 281.040712 
L 135.485925 281.561342 
L 135.15863 281.656763 
L 134.496982 281.570679 
L 134.17179 281.536516 
L 133.838862 281.634972 
L 133.176967 282.205775 
L 132.521261 282.198201 
L 131.531122 282.531054 
L 131.196399 282.765589 
L 130.537351 282.881017 
L 130.206094 282.750064 
L 129.880283 282.764456 
L 129.54556 282.953697 
L 129.212756 283.283786 
L 128.876176 283.424634 
L 128.550737 283.761189 
L 128.223317 283.922801 
L 126.894761 284.146183 
L 126.233608 284.333697 
L 125.904703 284.308709 
L 124.904371 284.776007 
L 123.8966 285.53692 
L 122.578256 285.296415 
L 122.243533 285.500354 
L 121.578234 286.111938 
L 120.589538 286.257377 
L 119.924548 286.424808 
L 118.257121 287.039923 
L 117.930692 287.249928 
L 116.6147 287.457581 
L 116.277006 287.521767 
L 115.939409 287.727412 
L 114.294264 288.113668 
L 113.305011 288.655657 
L 112.973878 288.823525 
L 112.316191 288.865659 
L 111.656524 289.192377 
L 111.000323 289.549446 
L 109.325408 289.831377 
L 108.994584 290.120538 
L 107.655316 290.438994 
L 106.990945 290.630429 
L 106.312336 290.889477 
L 104.664468 291.114327 
L 103.645939 291.626944 
L 102.299124 291.720953 
L 101.969724 291.719791 
L 100.979109 292.122218 
L 100.647233 292.45534 
L 100.316843 292.477987 
L 99.647164 292.345444 
L 98.979389 292.628602 
L 98.653826 293.105138 
L 97.649533 292.958301 
L 96.992465 293.129174 
L 96.652296 293.834947 
L 95.002199 293.477393 
L 94.666981 294.185298 
L 94.335105 294.219477 
L 93.340096 293.408652 
L 93.005001 293.273141 
L 92.347129 294.559901 
L 90.697105 293.82989 
L 90.36201 294.668844 
L 89.372386 294.047678 
L 88.70721 293.84602 
L 88.36964 294.727235 
L 88.03863 295.022479 
L 87.382801 294.412894 
L 87.04424 294.312117 
L 86.718987 294.06725 
L 86.391753 294.255591 
L 86.066685 295.146805 
L 84.720736 294.381954 
L 84.387499 294.199262 
L 83.720636 295.440877 
L 83.054532 294.7739 
L 82.397836 294.47644 
L 82.064537 294.382598 
L 81.729443 295.184357 
L 81.403261 295.488 
L 80.729234 294.689174 
L 80.074271 294.254707 
L 79.739796 294.264148 
L 79.401978 295.232951 
L 79.06874 295.37603 
L 78.727209 294.736649 
L 77.725638 293.655594 
L 77.401066 293.553389 
L 77.064176 294.365147 
L 76.737623 294.650862 
L 76.074738 293.191325 
L 75.423685 292.282695 
L 75.090757 291.491801 
L 74.7582 291.718559 
L 74.425086 290.576812 
L 73.833063 284.408285 
L 73.833063 284.408285 
" clip-path="url(#p1c1b231556)" style="fill: none; stroke: #ff0000; stroke-width: 1.5; stroke-linecap: square"/>
   </g>
   <g id="line2d_19">
    <path d="M 73.902789 284.638126 
L 73.902789 284.773746 
L 73.902214 284.440048 
L 73.90243 284.614902 
L 74.564834 273.334637 
L 75.639315 266.165465 
L 76.041875 284.880638 
L 76.384025 284.095676 
L 76.761331 283.626406 
L 77.173298 283.354701 
L 81.225627 282.784244 
L 83.128994 283.324338 
L 84.697637 283.662093 
L 85.806779 283.742615 
L 86.379176 283.68289 
L 87.5616 283.208819 
L 89.419413 282.335338 
L 91.701075 281.437325 
L 92.372502 281.369068 
L 93.388555 281.556776 
L 95.105744 282.006848 
L 96.147545 281.91726 
L 97.894444 281.635698 
L 98.245012 281.67196 
L 98.59558 281.83762 
L 101.748712 286.093048 
L 102.792494 286.992128 
L 103.483727 287.365411 
L 104.172979 287.561651 
L 105.200916 287.599313 
L 106.561597 287.364678 
L 107.910393 286.956199 
L 108.245116 286.770809 
L 109.249286 285.517644 
L 110.245533 284.567905 
L 111.237818 283.901861 
L 111.897362 283.615566 
L 112.226143 285.622511 
L 114.509787 284.638644 
L 117.73224 283.024993 
L 120.923004 281.2375 
L 125.361552 278.502934 
L 134.89423 273.749972 
L 140.029949 271.733177 
L 144.565547 269.696117 
L 150.796547 267.215915 
L 160.73327 264.108599 
L 163.714089 263.277244 
L 166.683024 262.122732 
L 169.964895 260.632799 
L 172.904121 259.296978 
L 177.4417 257.370304 
L 187.049641 252.35551 
L 194.049118 247.966768 
L 197.877638 245.466837 
L 201.729926 243.341256 
L 210.830838 238.771203 
L 215.106976 236.646688 
L 219.072158 234.955182 
L 223.371615 233.243478 
L 227.328875 231.415457 
L 234.865097 227.51838 
L 238.115279 225.515449 
L 243.918468 221.972458 
L 247.115173 219.963128 
L 249.662238 218.111643 
L 258.571024 211.297624 
L 263.686941 207.62985 
L 267.54517 204.805696 
L 276.972876 198.487611 
L 282.558197 194.487081 
L 289.15363 190.260448 
L 299.995492 182.363908 
L 312.285179 171.660279 
L 316.129544 168.140751 
L 318.686512 165.386988 
L 321.883218 161.912254 
L 327.01696 156.818538 
L 332.818168 151.242753 
L 336.05447 147.772286 
L 342.245858 140.844141 
L 345.860472 136.876673 
L 349.158189 133.365678 
L 351.802304 130.842283 
L 354.111696 128.525794 
L 356.747888 125.511799 
L 359.376158 122.258902 
L 359.704939 123.222265 
L 361.998486 120.014129 
L 366.246896 113.96135 
L 368.520637 111.845367 
L 370.449751 110.267979 
L 374.848687 106.839106 
L 381.28369 101.397695 
L 382.901849 99.562208 
L 386.383484 94.224308 
L 388.163062 90.776238 
L 390.150605 86.545339 
L 391.211222 83.907826 
L 393.674606 76.653334 
L 395.145704 70.805586 
L 396.522724 64.237934 
L 397.22386 59.35539 
L 397.883898 54.408854 
L 398.334951 53.568 
L 398.487273 54.91237 
L 398.433363 58.288079 
L 398.404737 88.999567 
L 398.077194 89.252833 
L 397.402362 91.481801 
L 397.056127 91.313473 
L 396.730564 91.281311 
L 396.383957 91.578271 
L 395.697923 92.429424 
L 395.370256 92.712519 
L 395.020183 92.666925 
L 394.356431 94.397226 
L 393.358946 95.291706 
L 393.018776 95.724315 
L 392.341562 97.069801 
L 392.007829 98.330165 
L 391.335041 99.410486 
L 390.340774 100.884555 
L 389.66291 102.147586 
L 387.67871 105.005669 
L 386.999732 106.146182 
L 379.967049 116.49191 
L 378.317324 118.713345 
L 377.317487 120.185947 
L 376.32124 121.436246 
L 374.969411 123.46899 
L 374.288824 124.099905 
L 372.634457 126.535978 
L 371.655293 127.707754 
L 370.980276 128.729017 
L 367.682591 132.886659 
L 367.024657 133.483845 
L 365.687868 135.376325 
L 363.713324 137.825396 
L 362.068241 139.651084 
L 361.398547 140.418714 
L 361.073851 140.690545 
L 359.749287 142.309211 
L 353.462581 149.705151 
L 352.793754 150.318369 
L 350.44803 153.05181 
L 343.47263 160.423354 
L 343.136297 160.863961 
L 341.829218 161.933018 
L 337.787721 166.031268 
L 337.133996 166.549265 
L 335.127451 168.50936 
L 334.467289 169.078317 
L 333.491576 170.153106 
L 329.505907 173.966977 
L 329.166479 174.110725 
L 326.808594 176.405325 
L 325.80331 177.282607 
L 324.812262 178.234013 
L 324.159403 178.641208 
L 322.528247 180.157605 
L 322.188448 180.28872 
L 320.853146 181.664736 
L 320.525478 182.07608 
L 319.86742 182.260247 
L 318.518393 183.605875 
L 317.190393 184.601841 
L 316.513891 185.412866 
L 314.865528 186.521484 
L 314.189273 187.264051 
L 313.537405 187.766083 
L 312.53534 188.600971 
L 311.538721 189.577707 
L 306.174145 193.674865 
L 304.524792 195.045798 
L 303.859307 195.411757 
L 300.534898 198.122318 
L 300.20098 198.532796 
L 298.22235 199.791411 
L 297.562807 200.418126 
L 294.557493 202.414392 
L 293.890028 202.946087 
L 293.235684 203.25028 
L 292.585301 203.696986 
L 291.275251 204.844432 
L 290.949812 204.93552 
L 288.94271 206.206633 
L 288.273635 206.569551 
L 287.606603 207.198699 
L 286.936166 207.852945 
L 285.95677 208.391548 
L 284.967084 209.222669 
L 284.310016 209.588795 
L 283.644902 209.90312 
L 280.316548 212.331327 
L 279.637323 212.799148 
L 278.985207 213.177997 
L 276.337115 214.981042 
L 275.666864 215.409385 
L 275.001379 215.875022 
L 274.333666 216.22922 
L 273.6688 216.611936 
L 273.001643 217.177893 
L 272.337272 217.674426 
L 266.035481 221.411079 
L 265.362692 221.77413 
L 264.353323 222.505832 
L 263.022477 223.175205 
L 262.357889 223.661369 
L 261.036451 224.32123 
L 258.038178 226.344063 
L 256.698233 226.899746 
L 255.373452 227.924225 
L 253.720076 228.59049 
L 251.7014 230.073608 
L 251.031211 230.398306 
L 250.374268 230.571712 
L 249.722399 230.848033 
L 249.071521 231.405958 
L 247.438879 232.304621 
L 246.448574 232.92897 
L 245.452172 233.410897 
L 244.784087 233.842573 
L 243.465682 234.538883 
L 242.47321 235.123567 
L 241.810696 235.26849 
L 239.475061 236.763489 
L 239.137615 236.933245 
L 238.470892 237.089666 
L 234.506607 239.272519 
L 234.178445 239.300198 
L 233.504356 239.635762 
L 232.829835 240.159625 
L 231.518299 240.763606 
L 230.853309 241.228577 
L 229.868915 241.394863 
L 227.551477 242.762017 
L 226.242665 243.382192 
L 225.576684 243.610936 
L 224.571463 244.361136 
L 222.592214 245.211146 
L 221.918064 245.579864 
L 221.244795 245.832534 
L 220.581229 246.182524 
L 219.593028 246.807457 
L 217.922136 247.536101 
L 217.257641 247.655002 
L 215.599127 248.784654 
L 214.594339 249.037637 
L 212.58224 250.136008 
L 211.243223 250.695404 
L 209.908972 251.420275 
L 209.252153 251.54383 
L 208.596261 251.902071 
L 207.942288 252.451664 
L 206.936386 252.56955 
L 206.261988 253.006267 
L 205.587683 253.42745 
L 205.258406 253.508187 
L 204.929501 253.469579 
L 204.254299 253.851286 
L 203.590183 254.311525 
L 203.257564 254.441449 
L 202.591089 254.486405 
L 201.924799 255.008635 
L 201.261171 255.634985 
L 200.932266 255.740429 
L 199.927106 255.61154 
L 199.593373 255.797415 
L 198.940452 256.37887 
L 197.950271 256.733006 
L 197.620004 256.791806 
L 196.945738 257.219503 
L 196.271835 257.657794 
L 194.952996 258.073147 
L 193.286436 258.782539 
L 191.977995 259.407045 
L 191.65268 259.573189 
L 191.326622 259.584919 
L 189.303877 260.491087 
L 188.642725 260.582229 
L 187.307484 261.552671 
L 186.632467 261.603806 
L 184.989551 262.368541 
L 184.011872 262.62123 
L 182.997676 263.191987 
L 182.335904 263.557404 
L 180.664934 264.035761 
L 179.671472 264.602676 
L 179.013538 264.902436 
L 178.347434 265.273172 
L 177.674831 265.506447 
L 176.339157 266.170883 
L 175.674167 266.113915 
L 175.348481 266.195334 
L 174.02141 267.030338 
L 173.021116 267.298861 
L 172.044056 267.968521 
L 169.73615 268.525862 
L 168.720963 269.032078 
L 168.066991 269.253348 
L 166.718071 269.960959 
L 166.062489 270.024001 
L 164.400703 270.85323 
L 163.738684 271.008685 
L 163.063976 271.492287 
L 162.727458 271.76695 
L 162.058631 271.817001 
L 161.044063 271.747278 
L 160.043422 272.536322 
L 158.722602 272.753522 
L 158.061635 273.125447 
L 157.729821 273.387578 
L 157.071268 273.511816 
L 154.428345 274.512188 
L 153.760755 274.744089 
L 152.763518 275.1905 
L 149.773105 276.128623 
L 148.780324 276.433936 
L 148.106012 276.875731 
L 146.789648 277.217117 
L 145.458307 277.799916 
L 145.132744 277.824682 
L 144.128574 278.24911 
L 142.814687 278.567979 
L 142.141527 279.110073 
L 141.811755 279.235668 
L 140.813775 279.331056 
L 140.149211 279.762189 
L 139.817459 279.98136 
L 138.491192 280.169578 
L 137.829297 280.415326 
L 137.494636 280.661809 
L 136.158714 281.040712 
L 135.485925 281.561342 
L 135.15863 281.656763 
L 134.496982 281.570679 
L 134.17179 281.536516 
L 133.838862 281.634972 
L 133.176967 282.205775 
L 132.521261 282.198201 
L 131.531122 282.531054 
L 131.196399 282.765589 
L 130.537351 282.881017 
L 130.206094 282.750064 
L 129.880283 282.764456 
L 129.54556 282.953697 
L 129.212756 283.283786 
L 128.876176 283.424634 
L 128.550737 283.761189 
L 128.223317 283.922801 
L 126.894761 284.146183 
L 126.233608 284.333697 
L 125.904703 284.308709 
L 124.904371 284.776007 
L 123.8966 285.53692 
L 122.578256 285.296415 
L 122.243533 285.500354 
L 121.578234 286.111938 
L 120.589538 286.257377 
L 119.924548 286.424808 
L 118.257121 287.039923 
L 117.930692 287.249928 
L 116.6147 287.457581 
L 116.277006 287.521767 
L 115.939409 287.727412 
L 114.294264 288.113668 
L 113.305011 288.655657 
L 112.973878 288.823525 
L 112.316191 288.865659 
L 111.656524 289.192377 
L 111.000323 289.549446 
L 109.325408 289.831377 
L 108.994584 290.120538 
L 107.655316 290.438994 
L 106.990945 290.630429 
L 106.312336 290.889477 
L 104.664468 291.114327 
L 103.645939 291.626944 
L 102.299124 291.720953 
L 101.969724 291.719791 
L 100.979109 292.122218 
L 100.647233 292.45534 
L 100.316843 292.477987 
L 99.647164 292.345444 
L 98.979389 292.628602 
L 98.653826 293.105138 
L 97.649533 292.958301 
L 96.992465 293.129174 
L 96.652296 293.834947 
L 95.002199 293.477393 
L 94.666981 294.185298 
L 94.335105 294.219477 
L 93.340096 293.408652 
L 93.005001 293.273141 
L 92.347129 294.559901 
L 90.697105 293.82989 
L 90.36201 294.668844 
L 89.372386 294.047678 
L 88.70721 293.84602 
L 88.36964 294.727235 
L 88.03863 295.022479 
L 87.382801 294.412894 
L 87.04424 294.312117 
L 86.718987 294.06725 
L 86.391753 294.255591 
L 86.066685 295.146805 
L 84.720736 294.381954 
L 84.387499 294.199262 
L 83.720636 295.440877 
L 83.054532 294.7739 
L 82.397836 294.47644 
L 82.064537 294.382598 
L 81.729443 295.184357 
L 81.403261 295.488 
L 80.729234 294.689174 
L 80.074271 294.254707 
L 79.739796 294.264148 
L 79.401978 295.232951 
L 79.06874 295.37603 
L 78.727209 294.736649 
L 77.725638 293.655594 
L 77.401066 293.553389 
L 77.064176 294.365147 
L 76.737623 294.650862 
L 76.074738 293.191325 
L 75.423685 292.282695 
L 75.090757 291.491801 
L 74.7582 291.718559 
L 74.425086 290.576812 
L 73.833063 284.408285 
L 73.833063 284.408285 
" clip-path="url(#p1c1b231556)" style="fill: none; stroke: #000000; stroke-width: 1.5; stroke-linecap: square"/>
   </g>
   <g id="patch_3">
    <path d="M 57.6 307.584 
L 57.6 41.472 
" style="fill: none; stroke: #000000; stroke-width: 0.8; stroke-linejoin: miter; stroke-linecap: square"/>
   </g>
   <g id="patch_4">
    <path d="M 414.72 307.584 
L 414.72 41.472 
" style="fill: none; stroke: #000000; stroke-width: 0.8; stroke-linejoin: miter; stroke-linecap: square"/>
   </g>
   <g id="patch_5">
    <path d="M 57.6 307.584 
L 414.72 307.584 
" style="fill: none; stroke: #000000; stroke-width: 0.8; stroke-linejoin: miter; stroke-linecap: square"/>
   </g>
   <g id="patch_6">
    <path d="M 57.6 41.472 
L 414.72 41.472 
" style="fill: none; stroke: #000000; stroke-width: 0.8; stroke-linejoin: miter; stroke-linecap: square"/>
   </g>
   <g id="text_20">
    <!-- 2025-06-18 trial 12 -->
    <g transform="translate(178.0125 35.472) scale(0.12 -0.12)">
     <defs>
      <path id="DejaVuSans-2d" d="M 313 2009 
L 1997 2009 
L 1997 1497 
L 313 1497 
L 313 2009 
z
" transform="scale(0.015625)"/>
      <path id="DejaVuSans-36" d="M 2113 2584 
Q 1688 2584 1439 2293 
Q 1191 2003 1191 1497 
Q 1191 994 1439 701 
Q 1688 409 2113 409 
Q 2538 409 2786 701 
Q 3034 994 3034 1497 
Q 3034 2003 2786 2293 
Q 2538 2584 2113 2584 
z
M 3366 4563 
L 3366 3988 
Q 3128 4100 2886 4159 
Q 2644 4219 2406 4219 
Q 1781 4219 1451 3797 
Q 1122 3375 1075 2522 
Q 1259 2794 1537 2939 
Q 1816 3084 2150 3084 
Q 2853 3084 3261 2657 
Q 3669 2231 3669 1497 
Q 3669 778 3244 343 
Q 2819 -91 2113 -91 
Q 1303 -91 875 529 
Q 447 1150 447 2328 
Q 447 3434 972 4092 
Q 1497 4750 2381 4750 
Q 2619 4750 2861 4703 
Q 3103 4656 3366 4563 
z
" transform="scale(0.015625)"/>
      <path id="DejaVuSans-38" d="M 2034 2216 
Q 1584 2216 1326 1975 
Q 1069 1734 1069 1313 
Q 1069 891 1326 650 
Q 1584 409 2034 409 
Q 2484 409 2743 651 
Q 3003 894 3003 1313 
Q 3003 1734 2745 1975 
Q 2488 2216 2034 2216 
z
M 1403 2484 
Q 997 2584 770 2862 
Q 544 3141 544 3541 
Q 544 4100 942 4425 
Q 1341 4750 2034 4750 
Q 2731 4750 3128 4425 
Q 3525 4100 3525 3541 
Q 3525 3141 3298 2862 
Q 3072 2584 2669 2484 
Q 3125 2378 3379 2068 
Q 3634 1759 3634 1313 
Q 3634 634 3220 271 
Q 2806 -91 2034 -91 
Q 1263 -91 848 271 
Q 434 634 434 1313 
Q 434 1759 690 2068 
Q 947 2378 1403 2484 
z
M 1172 3481 
Q 1172 3119 1398 2916 
Q 1625 2713 2034 2713 
Q 2441 2713 2670 2916 
Q 2900 3119 2900 3481 
Q 2900 3844 2670 4047 
Q 2441 4250 2034 4250 
Q 1625 4250 1398 4047 
Q 1172 3844 1172 3481 
z
" transform="scale(0.015625)"/>
      <path id="DejaVuSans-6c" d="M 603 4863 
L 1178 4863 
L 1178 0 
L 603 0 
L 603 4863 
z
" transform="scale(0.015625)"/>
     </defs>
     <use xlink:href="#DejaVuSans-32"/>
     <use xlink:href="#DejaVuSans-30" transform="translate(63.623047 0)"/>
     <use xlink:href="#DejaVuSans-32" transform="translate(127.246094 0)"/>
     <use xlink:href="#DejaVuSans-35" transform="translate(190.869141 0)"/>
     <use xlink:href="#DejaVuSans-2d" transform="translate(254.492188 0)"/>
     <use xlink:href="#DejaVuSans-30" transform="translate(290.576172 0)"/>
     <use xlink:href="#DejaVuSans-36" transform="translate(354.199219 0)"/>
     <use xlink:href="#DejaVuSans-2d" transform="translate(417.822266 0)"/>
     <use xlink:href="#DejaVuSans-31" transform="translate(453.90625 0)"/>
     <use xlink:href="#DejaVuSans-38" transform="translate(517.529297 0)"/>
     <use xlink:href="#DejaVuSans-20" transform="translate(581.152344 0)"/>
     <use xlink:href="#DejaVuSans-74" transform="translate(612.939453 0)"/>
     <use xlink:href="#DejaVuSans-72" transform="translate(652.148438 0)"/>
     <use xlink:href="#DejaVuSans-69" transform="translate(693.261719 0)"/>
     <use xlink:href="#DejaVuSans-61" transform="translate(721.044922 0)"/>
     <use xlink:href="#DejaVuSans-6c" transform="translate(782.324219 0)"/>
     <use xlink:href="#DejaVuSans-20" transform="translate(810.107422 0)"/>
     <use xlink:href="#DejaVuSans-31" transform="translate(841.894531 0)"/>
     <use xlink:href="#DejaVuSans-32" transform="translate(905.517578 0)"/>
    </g>
   </g>
  </g>
 </g>
 <defs>
  <clipPath id="p1c1b231556">
   <rect x="57.6" y="41.472" width="357.12" height="266.112"/>
  </clipPath>
 </defs>
</svg>
