<?xml version="1.0" encoding="utf-8" standalone="no"?>
<!DOCTYPE svg PUBLIC "-//W3C//DTD SVG 1.1//EN"
  "http://www.w3.org/Graphics/SVG/1.1/DTD/svg11.dtd">
<svg xmlns:xlink="http://www.w3.org/1999/xlink" width="460.8pt" height="345.6pt" viewBox="0 0 460.8 345.6" xmlns="http://www.w3.org/2000/svg" version="1.1">
 <metadata>
  <rdf:RDF xmlns:dc="http://purl.org/dc/elements/1.1/" xmlns:cc="http://creativecommons.org/ns#" xmlns:rdf="http://www.w3.org/1999/02/22-rdf-syntax-ns#">
   <cc:Work>
    <dc:type rdf:resource="http://purl.org/dc/dcmitype/StillImage"/>
    <dc:date>2025-07-14T21:34:45.603356</dc:date>
    <dc:format>image/svg+xml</dc:format>
    <dc:creator>
     <cc:Agent>
      <dc:title>Matplotlib v3.10.3, https://matplotlib.org/</dc:title>
     </cc:Agent>
    </dc:creator>
   </cc:Work>
  </rdf:RDF>
 </metadata>
 <defs>
  <style type="text/css">*{stroke-linejoin: round; stroke-linecap: butt}</style>
 </defs>
 <g id="figure_1">
  <g id="patch_1">
   <path d="M 0 345.6 
L 460.8 345.6 
L 460.8 0 
L 0 0 
z
" style="fill: #ffffff"/>
  </g>
  <g id="axes_1">
   <g id="patch_2">
    <path d="M 57.6 307.584 
L 414.72 307.584 
L 414.72 41.472 
L 57.6 41.472 
z
" style="fill: #ffffff"/>
   </g>
   <g id="matplotlib.axis_1">
    <g id="xtick_1">
     <g id="line2d_1">
      <defs>
       <path id="mc2b46157d0" d="M 0 0 
L 0 3.5 
" style="stroke: #000000; stroke-width: 0.8"/>
      </defs>
      <g>
       <use xlink:href="#mc2b46157d0" x="73.904553" y="307.584" style="stroke: #000000; stroke-width: 0.8"/>
      </g>
     </g>
     <g id="text_1">
      <!-- 0.00 -->
      <g transform="translate(62.771741 322.182437) scale(0.1 -0.1)">
       <defs>
        <path id="DejaVuSans-30" d="M 2034 4250 
Q 1547 4250 1301 3770 
Q 1056 3291 1056 2328 
Q 1056 1369 1301 889 
Q 1547 409 2034 409 
Q 2525 409 2770 889 
Q 3016 1369 3016 2328 
Q 3016 3291 2770 3770 
Q 2525 4250 2034 4250 
z
M 2034 4750 
Q 2819 4750 3233 4129 
Q 3647 3509 3647 2328 
Q 3647 1150 3233 529 
Q 2819 -91 2034 -91 
Q 1250 -91 836 529 
Q 422 1150 422 2328 
Q 422 3509 836 4129 
Q 1250 4750 2034 4750 
z
" transform="scale(0.015625)"/>
        <path id="DejaVuSans-2e" d="M 684 794 
L 1344 794 
L 1344 0 
L 684 0 
L 684 794 
z
" transform="scale(0.015625)"/>
       </defs>
       <use xlink:href="#DejaVuSans-30"/>
       <use xlink:href="#DejaVuSans-2e" transform="translate(63.623047 0)"/>
       <use xlink:href="#DejaVuSans-30" transform="translate(95.410156 0)"/>
       <use xlink:href="#DejaVuSans-30" transform="translate(159.033203 0)"/>
      </g>
     </g>
    </g>
    <g id="xtick_2">
     <g id="line2d_2">
      <g>
       <use xlink:href="#mc2b46157d0" x="117.711752" y="307.584" style="stroke: #000000; stroke-width: 0.8"/>
      </g>
     </g>
     <g id="text_2">
      <!-- 0.05 -->
      <g transform="translate(106.57894 322.182437) scale(0.1 -0.1)">
       <defs>
        <path id="DejaVuSans-35" d="M 691 4666 
L 3169 4666 
L 3169 4134 
L 1269 4134 
L 1269 2991 
Q 1406 3038 1543 3061 
Q 1681 3084 1819 3084 
Q 2600 3084 3056 2656 
Q 3513 2228 3513 1497 
Q 3513 744 3044 326 
Q 2575 -91 1722 -91 
Q 1428 -91 1123 -41 
Q 819 9 494 109 
L 494 744 
Q 775 591 1075 516 
Q 1375 441 1709 441 
Q 2250 441 2565 725 
Q 2881 1009 2881 1497 
Q 2881 1984 2565 2268 
Q 2250 2553 1709 2553 
Q 1456 2553 1204 2497 
Q 953 2441 691 2322 
L 691 4666 
z
" transform="scale(0.015625)"/>
       </defs>
       <use xlink:href="#DejaVuSans-30"/>
       <use xlink:href="#DejaVuSans-2e" transform="translate(63.623047 0)"/>
       <use xlink:href="#DejaVuSans-30" transform="translate(95.410156 0)"/>
       <use xlink:href="#DejaVuSans-35" transform="translate(159.033203 0)"/>
      </g>
     </g>
    </g>
    <g id="xtick_3">
     <g id="line2d_3">
      <g>
       <use xlink:href="#mc2b46157d0" x="161.518951" y="307.584" style="stroke: #000000; stroke-width: 0.8"/>
      </g>
     </g>
     <g id="text_3">
      <!-- 0.10 -->
      <g transform="translate(150.386139 322.182437) scale(0.1 -0.1)">
       <defs>
        <path id="DejaVuSans-31" d="M 794 531 
L 1825 531 
L 1825 4091 
L 703 3866 
L 703 4441 
L 1819 4666 
L 2450 4666 
L 2450 531 
L 3481 531 
L 3481 0 
L 794 0 
L 794 531 
z
" transform="scale(0.015625)"/>
       </defs>
       <use xlink:href="#DejaVuSans-30"/>
       <use xlink:href="#DejaVuSans-2e" transform="translate(63.623047 0)"/>
       <use xlink:href="#DejaVuSans-31" transform="translate(95.410156 0)"/>
       <use xlink:href="#DejaVuSans-30" transform="translate(159.033203 0)"/>
      </g>
     </g>
    </g>
    <g id="xtick_4">
     <g id="line2d_4">
      <g>
       <use xlink:href="#mc2b46157d0" x="205.32615" y="307.584" style="stroke: #000000; stroke-width: 0.8"/>
      </g>
     </g>
     <g id="text_4">
      <!-- 0.15 -->
      <g transform="translate(194.193338 322.182437) scale(0.1 -0.1)">
       <use xlink:href="#DejaVuSans-30"/>
       <use xlink:href="#DejaVuSans-2e" transform="translate(63.623047 0)"/>
       <use xlink:href="#DejaVuSans-31" transform="translate(95.410156 0)"/>
       <use xlink:href="#DejaVuSans-35" transform="translate(159.033203 0)"/>
      </g>
     </g>
    </g>
    <g id="xtick_5">
     <g id="line2d_5">
      <g>
       <use xlink:href="#mc2b46157d0" x="249.13335" y="307.584" style="stroke: #000000; stroke-width: 0.8"/>
      </g>
     </g>
     <g id="text_5">
      <!-- 0.20 -->
      <g transform="translate(238.000537 322.182437) scale(0.1 -0.1)">
       <defs>
        <path id="DejaVuSans-32" d="M 1228 531 
L 3431 531 
L 3431 0 
L 469 0 
L 469 531 
Q 828 903 1448 1529 
Q 2069 2156 2228 2338 
Q 2531 2678 2651 2914 
Q 2772 3150 2772 3378 
Q 2772 3750 2511 3984 
Q 2250 4219 1831 4219 
Q 1534 4219 1204 4116 
Q 875 4013 500 3803 
L 500 4441 
Q 881 4594 1212 4672 
Q 1544 4750 1819 4750 
Q 2544 4750 2975 4387 
Q 3406 4025 3406 3419 
Q 3406 3131 3298 2873 
Q 3191 2616 2906 2266 
Q 2828 2175 2409 1742 
Q 1991 1309 1228 531 
z
" transform="scale(0.015625)"/>
       </defs>
       <use xlink:href="#DejaVuSans-30"/>
       <use xlink:href="#DejaVuSans-2e" transform="translate(63.623047 0)"/>
       <use xlink:href="#DejaVuSans-32" transform="translate(95.410156 0)"/>
       <use xlink:href="#DejaVuSans-30" transform="translate(159.033203 0)"/>
      </g>
     </g>
    </g>
    <g id="xtick_6">
     <g id="line2d_6">
      <g>
       <use xlink:href="#mc2b46157d0" x="292.940549" y="307.584" style="stroke: #000000; stroke-width: 0.8"/>
      </g>
     </g>
     <g id="text_6">
      <!-- 0.25 -->
      <g transform="translate(281.807736 322.182437) scale(0.1 -0.1)">
       <use xlink:href="#DejaVuSans-30"/>
       <use xlink:href="#DejaVuSans-2e" transform="translate(63.623047 0)"/>
       <use xlink:href="#DejaVuSans-32" transform="translate(95.410156 0)"/>
       <use xlink:href="#DejaVuSans-35" transform="translate(159.033203 0)"/>
      </g>
     </g>
    </g>
    <g id="xtick_7">
     <g id="line2d_7">
      <g>
       <use xlink:href="#mc2b46157d0" x="336.747748" y="307.584" style="stroke: #000000; stroke-width: 0.8"/>
      </g>
     </g>
     <g id="text_7">
      <!-- 0.30 -->
      <g transform="translate(325.614935 322.182437) scale(0.1 -0.1)">
       <defs>
        <path id="DejaVuSans-33" d="M 2597 2516 
Q 3050 2419 3304 2112 
Q 3559 1806 3559 1356 
Q 3559 666 3084 287 
Q 2609 -91 1734 -91 
Q 1441 -91 1130 -33 
Q 819 25 488 141 
L 488 750 
Q 750 597 1062 519 
Q 1375 441 1716 441 
Q 2309 441 2620 675 
Q 2931 909 2931 1356 
Q 2931 1769 2642 2001 
Q 2353 2234 1838 2234 
L 1294 2234 
L 1294 2753 
L 1863 2753 
Q 2328 2753 2575 2939 
Q 2822 3125 2822 3475 
Q 2822 3834 2567 4026 
Q 2313 4219 1838 4219 
Q 1578 4219 1281 4162 
Q 984 4106 628 3988 
L 628 4550 
Q 988 4650 1302 4700 
Q 1616 4750 1894 4750 
Q 2613 4750 3031 4423 
Q 3450 4097 3450 3541 
Q 3450 3153 3228 2886 
Q 3006 2619 2597 2516 
z
" transform="scale(0.015625)"/>
       </defs>
       <use xlink:href="#DejaVuSans-30"/>
       <use xlink:href="#DejaVuSans-2e" transform="translate(63.623047 0)"/>
       <use xlink:href="#DejaVuSans-33" transform="translate(95.410156 0)"/>
       <use xlink:href="#DejaVuSans-30" transform="translate(159.033203 0)"/>
      </g>
     </g>
    </g>
    <g id="xtick_8">
     <g id="line2d_8">
      <g>
       <use xlink:href="#mc2b46157d0" x="380.554947" y="307.584" style="stroke: #000000; stroke-width: 0.8"/>
      </g>
     </g>
     <g id="text_8">
      <!-- 0.35 -->
      <g transform="translate(369.422135 322.182437) scale(0.1 -0.1)">
       <use xlink:href="#DejaVuSans-30"/>
       <use xlink:href="#DejaVuSans-2e" transform="translate(63.623047 0)"/>
       <use xlink:href="#DejaVuSans-33" transform="translate(95.410156 0)"/>
       <use xlink:href="#DejaVuSans-35" transform="translate(159.033203 0)"/>
      </g>
     </g>
    </g>
    <g id="text_9">
     <!-- Strain -->
     <g transform="translate(221.348281 335.860562) scale(0.1 -0.1)">
      <defs>
       <path id="DejaVuSans-53" d="M 3425 4513 
L 3425 3897 
Q 3066 4069 2747 4153 
Q 2428 4238 2131 4238 
Q 1616 4238 1336 4038 
Q 1056 3838 1056 3469 
Q 1056 3159 1242 3001 
Q 1428 2844 1947 2747 
L 2328 2669 
Q 3034 2534 3370 2195 
Q 3706 1856 3706 1288 
Q 3706 609 3251 259 
Q 2797 -91 1919 -91 
Q 1588 -91 1214 -16 
Q 841 59 441 206 
L 441 856 
Q 825 641 1194 531 
Q 1563 422 1919 422 
Q 2459 422 2753 634 
Q 3047 847 3047 1241 
Q 3047 1584 2836 1778 
Q 2625 1972 2144 2069 
L 1759 2144 
Q 1053 2284 737 2584 
Q 422 2884 422 3419 
Q 422 4038 858 4394 
Q 1294 4750 2059 4750 
Q 2388 4750 2728 4690 
Q 3069 4631 3425 4513 
z
" transform="scale(0.015625)"/>
       <path id="DejaVuSans-74" d="M 1172 4494 
L 1172 3500 
L 2356 3500 
L 2356 3053 
L 1172 3053 
L 1172 1153 
Q 1172 725 1289 603 
Q 1406 481 1766 481 
L 2356 481 
L 2356 0 
L 1766 0 
Q 1100 0 847 248 
Q 594 497 594 1153 
L 594 3053 
L 172 3053 
L 172 3500 
L 594 3500 
L 594 4494 
L 1172 4494 
z
" transform="scale(0.015625)"/>
       <path id="DejaVuSans-72" d="M 2631 2963 
Q 2534 3019 2420 3045 
Q 2306 3072 2169 3072 
Q 1681 3072 1420 2755 
Q 1159 2438 1159 1844 
L 1159 0 
L 581 0 
L 581 3500 
L 1159 3500 
L 1159 2956 
Q 1341 3275 1631 3429 
Q 1922 3584 2338 3584 
Q 2397 3584 2469 3576 
Q 2541 3569 2628 3553 
L 2631 2963 
z
" transform="scale(0.015625)"/>
       <path id="DejaVuSans-61" d="M 2194 1759 
Q 1497 1759 1228 1600 
Q 959 1441 959 1056 
Q 959 750 1161 570 
Q 1363 391 1709 391 
Q 2188 391 2477 730 
Q 2766 1069 2766 1631 
L 2766 1759 
L 2194 1759 
z
M 3341 1997 
L 3341 0 
L 2766 0 
L 2766 531 
Q 2569 213 2275 61 
Q 1981 -91 1556 -91 
Q 1019 -91 701 211 
Q 384 513 384 1019 
Q 384 1609 779 1909 
Q 1175 2209 1959 2209 
L 2766 2209 
L 2766 2266 
Q 2766 2663 2505 2880 
Q 2244 3097 1772 3097 
Q 1472 3097 1187 3025 
Q 903 2953 641 2809 
L 641 3341 
Q 956 3463 1253 3523 
Q 1550 3584 1831 3584 
Q 2591 3584 2966 3190 
Q 3341 2797 3341 1997 
z
" transform="scale(0.015625)"/>
       <path id="DejaVuSans-69" d="M 603 3500 
L 1178 3500 
L 1178 0 
L 603 0 
L 603 3500 
z
M 603 4863 
L 1178 4863 
L 1178 4134 
L 603 4134 
L 603 4863 
z
" transform="scale(0.015625)"/>
       <path id="DejaVuSans-6e" d="M 3513 2113 
L 3513 0 
L 2938 0 
L 2938 2094 
Q 2938 2591 2744 2837 
Q 2550 3084 2163 3084 
Q 1697 3084 1428 2787 
Q 1159 2491 1159 1978 
L 1159 0 
L 581 0 
L 581 3500 
L 1159 3500 
L 1159 2956 
Q 1366 3272 1645 3428 
Q 1925 3584 2291 3584 
Q 2894 3584 3203 3211 
Q 3513 2838 3513 2113 
z
" transform="scale(0.015625)"/>
      </defs>
      <use xlink:href="#DejaVuSans-53"/>
      <use xlink:href="#DejaVuSans-74" transform="translate(63.476562 0)"/>
      <use xlink:href="#DejaVuSans-72" transform="translate(102.685547 0)"/>
      <use xlink:href="#DejaVuSans-61" transform="translate(143.798828 0)"/>
      <use xlink:href="#DejaVuSans-69" transform="translate(205.078125 0)"/>
      <use xlink:href="#DejaVuSans-6e" transform="translate(232.861328 0)"/>
     </g>
    </g>
   </g>
   <g id="matplotlib.axis_2">
    <g id="ytick_1">
     <g id="line2d_9">
      <defs>
       <path id="mca45981588" d="M 0 0 
L -3.5 0 
" style="stroke: #000000; stroke-width: 0.8"/>
      </defs>
      <g>
       <use xlink:href="#mca45981588" x="57.6" y="284.646764" style="stroke: #000000; stroke-width: 0.8"/>
      </g>
     </g>
     <g id="text_10">
      <!-- 0 -->
      <g transform="translate(44.2375 288.445983) scale(0.1 -0.1)">
       <use xlink:href="#DejaVuSans-30"/>
      </g>
     </g>
    </g>
    <g id="ytick_2">
     <g id="line2d_10">
      <g>
       <use xlink:href="#mca45981588" x="57.6" y="249.658135" style="stroke: #000000; stroke-width: 0.8"/>
      </g>
     </g>
     <g id="text_11">
      <!-- 500 -->
      <g transform="translate(31.5125 253.457353) scale(0.1 -0.1)">
       <use xlink:href="#DejaVuSans-35"/>
       <use xlink:href="#DejaVuSans-30" transform="translate(63.623047 0)"/>
       <use xlink:href="#DejaVuSans-30" transform="translate(127.246094 0)"/>
      </g>
     </g>
    </g>
    <g id="ytick_3">
     <g id="line2d_11">
      <g>
       <use xlink:href="#mca45981588" x="57.6" y="214.669505" style="stroke: #000000; stroke-width: 0.8"/>
      </g>
     </g>
     <g id="text_12">
      <!-- 1000 -->
      <g transform="translate(25.15 218.468724) scale(0.1 -0.1)">
       <use xlink:href="#DejaVuSans-31"/>
       <use xlink:href="#DejaVuSans-30" transform="translate(63.623047 0)"/>
       <use xlink:href="#DejaVuSans-30" transform="translate(127.246094 0)"/>
       <use xlink:href="#DejaVuSans-30" transform="translate(190.869141 0)"/>
      </g>
     </g>
    </g>
    <g id="ytick_4">
     <g id="line2d_12">
      <g>
       <use xlink:href="#mca45981588" x="57.6" y="179.680875" style="stroke: #000000; stroke-width: 0.8"/>
      </g>
     </g>
     <g id="text_13">
      <!-- 1500 -->
      <g transform="translate(25.15 183.480094) scale(0.1 -0.1)">
       <use xlink:href="#DejaVuSans-31"/>
       <use xlink:href="#DejaVuSans-35" transform="translate(63.623047 0)"/>
       <use xlink:href="#DejaVuSans-30" transform="translate(127.246094 0)"/>
       <use xlink:href="#DejaVuSans-30" transform="translate(190.869141 0)"/>
      </g>
     </g>
    </g>
    <g id="ytick_5">
     <g id="line2d_13">
      <g>
       <use xlink:href="#mca45981588" x="57.6" y="144.692246" style="stroke: #000000; stroke-width: 0.8"/>
      </g>
     </g>
     <g id="text_14">
      <!-- 2000 -->
      <g transform="translate(25.15 148.491465) scale(0.1 -0.1)">
       <use xlink:href="#DejaVuSans-32"/>
       <use xlink:href="#DejaVuSans-30" transform="translate(63.623047 0)"/>
       <use xlink:href="#DejaVuSans-30" transform="translate(127.246094 0)"/>
       <use xlink:href="#DejaVuSans-30" transform="translate(190.869141 0)"/>
      </g>
     </g>
    </g>
    <g id="ytick_6">
     <g id="line2d_14">
      <g>
       <use xlink:href="#mca45981588" x="57.6" y="109.703616" style="stroke: #000000; stroke-width: 0.8"/>
      </g>
     </g>
     <g id="text_15">
      <!-- 2500 -->
      <g transform="translate(25.15 113.502835) scale(0.1 -0.1)">
       <use xlink:href="#DejaVuSans-32"/>
       <use xlink:href="#DejaVuSans-35" transform="translate(63.623047 0)"/>
       <use xlink:href="#DejaVuSans-30" transform="translate(127.246094 0)"/>
       <use xlink:href="#DejaVuSans-30" transform="translate(190.869141 0)"/>
      </g>
     </g>
    </g>
    <g id="ytick_7">
     <g id="line2d_15">
      <g>
       <use xlink:href="#mca45981588" x="57.6" y="74.714987" style="stroke: #000000; stroke-width: 0.8"/>
      </g>
     </g>
     <g id="text_16">
      <!-- 3000 -->
      <g transform="translate(25.15 78.514206) scale(0.1 -0.1)">
       <use xlink:href="#DejaVuSans-33"/>
       <use xlink:href="#DejaVuSans-30" transform="translate(63.623047 0)"/>
       <use xlink:href="#DejaVuSans-30" transform="translate(127.246094 0)"/>
       <use xlink:href="#DejaVuSans-30" transform="translate(190.869141 0)"/>
      </g>
     </g>
    </g>
    <g id="text_17">
     <!-- Stress [Pa] -->
     <g transform="translate(19.070312 201.235813) rotate(-90) scale(0.1 -0.1)">
      <defs>
       <path id="DejaVuSans-65" d="M 3597 1894 
L 3597 1613 
L 953 1613 
Q 991 1019 1311 708 
Q 1631 397 2203 397 
Q 2534 397 2845 478 
Q 3156 559 3463 722 
L 3463 178 
Q 3153 47 2828 -22 
Q 2503 -91 2169 -91 
Q 1331 -91 842 396 
Q 353 884 353 1716 
Q 353 2575 817 3079 
Q 1281 3584 2069 3584 
Q 2775 3584 3186 3129 
Q 3597 2675 3597 1894 
z
M 3022 2063 
Q 3016 2534 2758 2815 
Q 2500 3097 2075 3097 
Q 1594 3097 1305 2825 
Q 1016 2553 972 2059 
L 3022 2063 
z
" transform="scale(0.015625)"/>
       <path id="DejaVuSans-73" d="M 2834 3397 
L 2834 2853 
Q 2591 2978 2328 3040 
Q 2066 3103 1784 3103 
Q 1356 3103 1142 2972 
Q 928 2841 928 2578 
Q 928 2378 1081 2264 
Q 1234 2150 1697 2047 
L 1894 2003 
Q 2506 1872 2764 1633 
Q 3022 1394 3022 966 
Q 3022 478 2636 193 
Q 2250 -91 1575 -91 
Q 1294 -91 989 -36 
Q 684 19 347 128 
L 347 722 
Q 666 556 975 473 
Q 1284 391 1588 391 
Q 1994 391 2212 530 
Q 2431 669 2431 922 
Q 2431 1156 2273 1281 
Q 2116 1406 1581 1522 
L 1381 1569 
Q 847 1681 609 1914 
Q 372 2147 372 2553 
Q 372 3047 722 3315 
Q 1072 3584 1716 3584 
Q 2034 3584 2315 3537 
Q 2597 3491 2834 3397 
z
" transform="scale(0.015625)"/>
       <path id="DejaVuSans-20" transform="scale(0.015625)"/>
       <path id="DejaVuSans-5b" d="M 550 4863 
L 1875 4863 
L 1875 4416 
L 1125 4416 
L 1125 -397 
L 1875 -397 
L 1875 -844 
L 550 -844 
L 550 4863 
z
" transform="scale(0.015625)"/>
       <path id="DejaVuSans-50" d="M 1259 4147 
L 1259 2394 
L 2053 2394 
Q 2494 2394 2734 2622 
Q 2975 2850 2975 3272 
Q 2975 3691 2734 3919 
Q 2494 4147 2053 4147 
L 1259 4147 
z
M 628 4666 
L 2053 4666 
Q 2838 4666 3239 4311 
Q 3641 3956 3641 3272 
Q 3641 2581 3239 2228 
Q 2838 1875 2053 1875 
L 1259 1875 
L 1259 0 
L 628 0 
L 628 4666 
z
" transform="scale(0.015625)"/>
       <path id="DejaVuSans-5d" d="M 1947 4863 
L 1947 -844 
L 622 -844 
L 622 -397 
L 1369 -397 
L 1369 4416 
L 622 4416 
L 622 4863 
L 1947 4863 
z
" transform="scale(0.015625)"/>
      </defs>
      <use xlink:href="#DejaVuSans-53"/>
      <use xlink:href="#DejaVuSans-74" transform="translate(63.476562 0)"/>
      <use xlink:href="#DejaVuSans-72" transform="translate(102.685547 0)"/>
      <use xlink:href="#DejaVuSans-65" transform="translate(141.548828 0)"/>
      <use xlink:href="#DejaVuSans-73" transform="translate(203.072266 0)"/>
      <use xlink:href="#DejaVuSans-73" transform="translate(255.171875 0)"/>
      <use xlink:href="#DejaVuSans-20" transform="translate(307.271484 0)"/>
      <use xlink:href="#DejaVuSans-5b" transform="translate(339.058594 0)"/>
      <use xlink:href="#DejaVuSans-50" transform="translate(378.072266 0)"/>
      <use xlink:href="#DejaVuSans-61" transform="translate(433.875 0)"/>
      <use xlink:href="#DejaVuSans-5d" transform="translate(495.154297 0)"/>
     </g>
    </g>
   </g>
   <g id="line2d_16">
    <path d="M 73.904553 285.343838 
L 73.904553 285.405343 
L 73.904553 285.318068 
L 73.903694 285.377511 
L 74.60821 279.26769 
L 75.308839 276.856437 
L 75.661382 275.997217 
L 76.072847 275.424585 
L 76.420933 275.205974 
L 77.219601 275.149689 
L 84.151621 275.936446 
L 87.478991 276.217256 
L 88.679221 276.663724 
L 90.554827 277.746993 
L 92.505695 279.252259 
L 94.508059 280.827133 
L 95.860793 281.559101 
L 98.932668 283.041526 
L 100.643887 283.867574 
L 101.665865 284.16395 
L 102.683882 284.272372 
L 103.697937 284.196239 
L 105.377467 283.785118 
L 108.041345 282.80191 
L 112.667973 280.91489 
L 117.611494 278.67113 
L 121.57859 276.964655 
L 124.896057 275.710085 
L 128.882959 274.255938 
L 132.20393 273.030353 
L 137.498013 271.159647 
L 146.323462 267.383975 
L 154.679517 263.416339 
L 162.954368 259.096313 
L 172.53442 253.96166 
L 189.218803 246.15581 
L 198.798855 241.978807 
L 205.675419 238.541928 
L 217.285563 232.324006 
L 220.46835 230.442423 
L 231.916087 223.202138 
L 245.150304 215.298405 
L 271.775203 198.320665 
L 277.302994 194.350852 
L 281.820691 190.969442 
L 286.956328 186.907183 
L 305.918204 170.561634 
L 310.134853 166.539616 
L 315.036781 161.919407 
L 327.55601 150.275349 
L 330.839807 146.847172 
L 346.44281 129.571419 
L 350.283149 124.816345 
L 354.743409 118.925796 
L 366.850677 102.515789 
L 374.440249 93.009992 
L 378.700471 88.000415 
L 390.657215 74.307282 
L 392.551638 71.847086 
L 394.212352 69.263989 
L 395.656687 66.679804 
L 396.749223 64.343053 
L 397.751395 61.510891 
L 398.076365 61.614589 
L 398.339627 63.887306 
L 398.469262 73.292804 
L 398.401427 95.449999 
L 398.398085 107.414513 
L 398.068783 107.646975 
L 397.738831 108.287872 
L 397.413769 109.175778 
L 396.743715 109.771725 
L 396.051751 110.911007 
L 392.370229 117.511092 
L 392.039101 118.529648 
L 391.374741 119.71325 
L 390.379997 121.300903 
L 389.382219 123.083648 
L 388.032734 125.375399 
L 385.343977 130.060729 
L 382.688394 134.327597 
L 381.025823 136.896963 
L 372.357456 149.218268 
L 370.045658 152.218756 
L 367.681468 155.333835 
L 363.382439 160.673054 
L 357.398496 167.571078 
L 354.080256 171.181143 
L 353.40686 171.919637 
L 351.050715 174.543248 
L 344.094031 181.586538 
L 342.423042 183.248557 
L 340.724821 184.855719 
L 338.098638 187.331252 
L 333.777328 191.315204 
L 331.770755 193.028205 
L 326.487566 197.629134 
L 325.496411 198.438255 
L 324.155436 199.559387 
L 322.801216 200.685719 
L 322.125221 201.178649 
L 316.123205 205.999388 
L 311.122511 209.412475 
L 310.465702 209.863939 
L 308.459625 211.295484 
L 307.118696 212.150575 
L 305.102964 213.570496 
L 303.781981 214.555506 
L 299.75262 217.198456 
L 299.101475 217.52789 
L 297.420336 218.719581 
L 296.116126 219.531354 
L 294.131092 220.734669 
L 293.459553 221.157651 
L 292.456638 221.883501 
L 288.789723 224.061745 
L 288.109147 224.427423 
L 286.470715 225.492169 
L 285.478941 226.046107 
L 283.809376 227.043794 
L 282.472703 227.645652 
L 281.464775 228.350361 
L 280.802767 228.629251 
L 279.809693 229.264999 
L 279.148057 229.666024 
L 274.200915 232.441396 
L 271.260501 233.931707 
L 270.272812 234.430619 
L 268.941307 235.127511 
L 267.942601 235.750819 
L 267.28901 236.038597 
L 266.294853 236.486293 
L 264.954498 237.302857 
L 263.948983 237.781444 
L 262.967607 238.272776 
L 261.960855 238.869811 
L 255.969516 241.64201 
L 253.304773 243.00823 
L 252.30681 243.361945 
L 251.63688 243.663963 
L 250.650367 244.337472 
L 249.316835 244.807277 
L 248.315839 245.371547 
L 246.339903 246.198342 
L 244.658455 246.967884 
L 243.66959 247.392804 
L 242.67992 247.758346 
L 241.373606 248.311418 
L 240.377871 248.734638 
L 237.375068 250.226684 
L 236.708356 250.487042 
L 226.702558 254.691614 
L 225.373327 255.143376 
L 224.385948 255.61785 
L 223.393802 255.975745 
L 222.401904 256.450873 
L 220.75295 257.057905 
L 219.419031 257.582367 
L 218.743159 257.952566 
L 217.422965 258.371183 
L 215.767327 258.92869 
L 215.089103 259.262793 
L 202.149667 264.053605 
L 201.151015 264.378767 
L 200.148471 264.786353 
L 199.141472 265.073092 
L 198.142332 265.442553 
L 197.474135 265.578979 
L 195.796896 266.339812 
L 195.137859 266.462428 
L 194.142061 266.869403 
L 192.477386 267.49353 
L 168.156703 275.245468 
L 167.493333 275.420974 
L 166.496917 275.819068 
L 164.845239 276.280974 
L 164.167511 276.471588 
L 163.172518 276.694306 
L 161.82226 277.135026 
L 160.805311 277.489682 
L 158.467301 278.201767 
L 157.144028 278.441497 
L 156.132943 278.849707 
L 154.801377 279.150162 
L 154.135841 279.377715 
L 153.467334 279.621614 
L 152.143457 279.901618 
L 150.799636 280.36112 
L 148.146776 281.022722 
L 140.836659 283.050457 
L 140.162953 283.58385 
L 139.169942 283.55095 
L 138.845436 283.530485 
L 137.852792 284.116053 
L 136.851734 284.11415 
L 136.52603 284.253945 
L 136.187537 284.582338 
L 135.519339 284.660184 
L 134.524037 284.779619 
L 134.198851 285.112363 
L 132.556705 285.175198 
L 132.227868 285.572791 
L 131.893521 285.745663 
L 130.550071 285.668296 
L 129.884597 286.223798 
L 129.217266 286.177078 
L 128.215276 286.452363 
L 127.877402 286.850975 
L 127.217313 286.773726 
L 126.20858 286.859063 
L 125.869839 287.232015 
L 125.543725 287.386409 
L 124.539696 287.432565 
L 124.206588 287.486179 
L 123.553059 287.959752 
L 122.554725 287.835622 
L 121.893955 288.000971 
L 121.556885 288.445264 
L 119.900972 288.512666 
L 119.563469 288.878242 
L 119.237478 289.060053 
L 118.5673 288.910649 
L 117.902941 288.953754 
L 117.571256 289.149163 
L 117.244275 289.55114 
L 116.263703 289.478538 
L 115.596496 289.513523 
L 115.271001 289.884605 
L 114.943772 290.058191 
L 114.26691 289.90623 
L 113.60255 289.983053 
L 112.932249 290.542908 
L 112.260586 290.420074 
L 111.276018 290.52945 
L 110.936411 291.016908 
L 110.270256 290.873367 
L 109.595375 290.850169 
L 109.265423 290.862795 
L 108.597473 291.59317 
L 107.596168 291.375064 
L 107.268506 291.367968 
L 106.940101 291.488355 
L 106.607117 291.992942 
L 104.956987 291.891158 
L 104.624745 292.318219 
L 104.286932 292.54807 
L 103.619169 292.382156 
L 102.954994 292.377065 
L 102.625166 292.552002 
L 102.297566 292.988546 
L 100.969837 292.884102 
L 100.63351 292.850713 
L 100.308015 293.306085 
L 99.977877 293.443971 
L 99.320573 293.283553 
L 98.648786 293.140151 
L 98.32162 293.258523 
L 97.988511 293.800293 
L 97.656208 293.967236 
L 97.317405 293.779791 
L 96.327116 293.693032 
L 95.990047 293.806062 
L 95.65995 294.424106 
L 95.321333 294.446239 
L 94.982902 294.231842 
L 93.98562 293.977324 
L 93.656844 294.223542 
L 93.317856 294.777277 
L 92.986047 294.766003 
L 92.334932 294.525265 
L 91.675771 294.310154 
L 91.346253 294.530919 
L 91.009307 295.055492 
L 90.677251 295.093573 
L 90.009797 294.778163 
L 89.334172 294.551361 
L 89.003725 294.683721 
L 88.670617 295.233105 
L 88.342027 295.44367 
L 87.670977 295.041911 
L 86.669176 294.697998 
L 86.332973 295.198371 
L 85.997698 295.488 
L 84.341626 294.734356 
L 84.014398 294.953205 
L 83.680794 295.363612 
L 83.345705 295.310494 
L 82.339077 294.714852 
L 82.003741 294.517823 
L 81.675646 294.529749 
L 81.345013 294.854097 
L 81.012029 294.993699 
L 80.349031 294.454427 
L 79.364394 293.908865 
L 78.69075 294.18408 
L 77.026013 292.416222 
L 76.695009 292.428341 
L 76.3671 292.622787 
L 76.035725 292.271299 
L 75.366166 291.288634 
L 75.028972 290.873707 
L 74.697164 290.259202 
L 74.37173 289.893665 
L 73.960761 288.792416 
L 73.906372 288.018575 
L 73.832991 285.318191 
L 73.832991 285.318191 
" clip-path="url(#p00a498beb8)" style="fill: none; stroke: #ff0000; stroke-width: 1.5; stroke-linecap: square"/>
   </g>
   <g id="line2d_17">
    <path d="M 73.904553 285.343838 
L 73.904553 285.405343 
L 73.904553 285.318068 
L 73.903694 285.377511 
L 74.60821 279.26769 
L 75.308839 276.856437 
L 75.661382 275.997217 
L 76.072847 275.424585 
L 76.420933 275.205974 
L 76.80368 285.431275 
L 79.597284 285.166711 
L 82.649354 285.127421 
L 85.761831 285.232359 
L 89.29518 285.088793 
L 94.844757 284.242625 
L 96.540131 283.881535 
L 98.590028 283.443224 
L 99.617948 283.405879 
L 100.986527 283.986668 
L 102.006524 284.221322 
L 103.02256 284.266254 
L 104.371333 284.063549 
L 106.044921 283.560525 
L 109.035595 282.375386 
L 110.35862 281.211089 
L 111.679665 280.320872 
L 112.667973 279.830933 
L 112.99873 280.772412 
L 118.601783 278.224119 
L 123.236333 276.300663 
L 133.530917 272.595305 
L 136.838481 271.426657 
L 144.049759 268.408512 
L 151.480885 265.032542 
L 155.319243 263.09114 
L 162.318603 259.444351 
L 172.53442 253.96166 
L 189.218803 246.15581 
L 198.798855 241.978807 
L 205.675419 238.541928 
L 217.285563 232.324006 
L 220.46835 230.442423 
L 231.916087 223.202138 
L 245.150304 215.298405 
L 271.775203 198.320665 
L 277.302994 194.350852 
L 281.820691 190.969442 
L 286.956328 186.907183 
L 305.918204 170.561634 
L 310.134853 166.539616 
L 315.036781 161.919407 
L 327.55601 150.275349 
L 330.839807 146.847172 
L 346.44281 129.571419 
L 350.283149 124.816345 
L 350.920895 124.700662 
L 354.743409 119.558243 
L 360.467277 111.397832 
L 363.656006 106.714001 
L 367.488423 101.702249 
L 374.440249 93.009992 
L 378.700471 88.000415 
L 381.025668 85.24112 
L 383.245895 82.299108 
L 386.330644 77.632131 
L 388.631085 73.782501 
L 391.734649 68.081199 
L 394.89268 61.347201 
L 396.400889 57.718357 
L 397.421134 54.675197 
L 397.751395 53.568 
L 398.076365 53.574356 
L 398.339627 55.764958 
L 398.469262 65.054081 
L 398.401303 86.709988 
L 398.398085 107.414513 
L 398.068783 107.646975 
L 397.738831 108.287872 
L 397.413769 109.175778 
L 396.743715 109.771725 
L 396.051751 110.911007 
L 392.370229 117.511092 
L 392.039101 118.529648 
L 391.374741 119.71325 
L 390.379997 121.300903 
L 389.382219 123.083648 
L 388.032734 125.375399 
L 385.343977 130.060729 
L 382.688394 134.327597 
L 381.025823 136.896963 
L 372.357456 149.218268 
L 370.045658 152.218756 
L 367.681468 155.333835 
L 363.382439 160.673054 
L 357.398496 167.571078 
L 354.080256 171.181143 
L 353.40686 171.919637 
L 351.050715 174.543248 
L 344.094031 181.586538 
L 342.423042 183.248557 
L 340.724821 184.855719 
L 338.098638 187.331252 
L 333.777328 191.315204 
L 331.770755 193.028205 
L 326.487566 197.629134 
L 325.496411 198.438255 
L 324.155436 199.559387 
L 322.801216 200.685719 
L 322.125221 201.178649 
L 316.123205 205.999388 
L 311.122511 209.412475 
L 310.465702 209.863939 
L 308.459625 211.295484 
L 307.118696 212.150575 
L 305.102964 213.570496 
L 303.781981 214.555506 
L 299.75262 217.198456 
L 299.101475 217.52789 
L 297.420336 218.719581 
L 296.116126 219.531354 
L 294.131092 220.734669 
L 293.459553 221.157651 
L 292.456638 221.883501 
L 288.789723 224.061745 
L 288.109147 224.427423 
L 286.470715 225.492169 
L 285.478941 226.046107 
L 283.809376 227.043794 
L 282.472703 227.645652 
L 281.464775 228.350361 
L 280.802767 228.629251 
L 279.809693 229.264999 
L 279.148057 229.666024 
L 274.200915 232.441396 
L 271.260501 233.931707 
L 270.272812 234.430619 
L 268.941307 235.127511 
L 267.942601 235.750819 
L 267.28901 236.038597 
L 266.294853 236.486293 
L 264.954498 237.302857 
L 263.948983 237.781444 
L 262.967607 238.272776 
L 261.960855 238.869811 
L 255.969516 241.64201 
L 253.304773 243.00823 
L 252.30681 243.361945 
L 251.63688 243.663963 
L 250.650367 244.337472 
L 249.316835 244.807277 
L 248.315839 245.371547 
L 246.339903 246.198342 
L 244.658455 246.967884 
L 243.66959 247.392804 
L 242.67992 247.758346 
L 241.373606 248.311418 
L 240.377871 248.734638 
L 237.375068 250.226684 
L 236.708356 250.487042 
L 226.702558 254.691614 
L 225.373327 255.143376 
L 224.385948 255.61785 
L 223.393802 255.975745 
L 222.401904 256.450873 
L 220.75295 257.057905 
L 219.419031 257.582367 
L 218.743159 257.952566 
L 217.422965 258.371183 
L 215.767327 258.92869 
L 215.089103 259.262793 
L 202.149667 264.053605 
L 201.151015 264.378767 
L 200.148471 264.786353 
L 199.141472 265.073092 
L 198.142332 265.442553 
L 197.474135 265.578979 
L 195.796896 266.339812 
L 195.137859 266.462428 
L 194.142061 266.869403 
L 192.477386 267.49353 
L 168.156703 275.245468 
L 167.493333 275.420974 
L 166.496917 275.819068 
L 164.845239 276.280974 
L 164.167511 276.471588 
L 163.172518 276.694306 
L 161.82226 277.135026 
L 160.805311 277.489682 
L 158.467301 278.201767 
L 157.144028 278.441497 
L 156.132943 278.849707 
L 154.801377 279.150162 
L 154.135841 279.377715 
L 153.467334 279.621614 
L 152.143457 279.901618 
L 150.799636 280.36112 
L 148.146776 281.022722 
L 140.836659 283.050457 
L 140.162953 283.58385 
L 139.169942 283.55095 
L 138.845436 283.530485 
L 137.852792 284.116053 
L 136.851734 284.11415 
L 136.52603 284.253945 
L 136.187537 284.582338 
L 135.519339 284.660184 
L 134.524037 284.779619 
L 134.198851 285.112363 
L 132.556705 285.175198 
L 132.227868 285.572791 
L 131.893521 285.745663 
L 130.550071 285.668296 
L 129.884597 286.223798 
L 129.217266 286.177078 
L 128.215276 286.452363 
L 127.877402 286.850975 
L 127.217313 286.773726 
L 126.20858 286.859063 
L 125.869839 287.232015 
L 125.543725 287.386409 
L 124.539696 287.432565 
L 124.206588 287.486179 
L 123.553059 287.959752 
L 122.554725 287.835622 
L 121.893955 288.000971 
L 121.556885 288.445264 
L 119.900972 288.512666 
L 119.563469 288.878242 
L 119.237478 289.060053 
L 118.5673 288.910649 
L 117.902941 288.953754 
L 117.571256 289.149163 
L 117.244275 289.55114 
L 116.263703 289.478538 
L 115.596496 289.513523 
L 115.271001 289.884605 
L 114.943772 290.058191 
L 114.26691 289.90623 
L 113.60255 289.983053 
L 112.932249 290.542908 
L 112.260586 290.420074 
L 111.276018 290.52945 
L 110.936411 291.016908 
L 110.270256 290.873367 
L 109.595375 290.850169 
L 109.265423 290.862795 
L 108.597473 291.59317 
L 107.596168 291.375064 
L 107.268506 291.367968 
L 106.940101 291.488355 
L 106.607117 291.992942 
L 104.956987 291.891158 
L 104.624745 292.318219 
L 104.286932 292.54807 
L 103.619169 292.382156 
L 102.954994 292.377065 
L 102.625166 292.552002 
L 102.297566 292.988546 
L 100.969837 292.884102 
L 100.63351 292.850713 
L 100.308015 293.306085 
L 99.977877 293.443971 
L 99.320573 293.283553 
L 98.648786 293.140151 
L 98.32162 293.258523 
L 97.988511 293.800293 
L 97.656208 293.967236 
L 97.317405 293.779791 
L 96.327116 293.693032 
L 95.990047 293.806062 
L 95.65995 294.424106 
L 95.321333 294.446239 
L 94.982902 294.231842 
L 93.98562 293.977324 
L 93.656844 294.223542 
L 93.317856 294.777277 
L 92.986047 294.766003 
L 92.334932 294.525265 
L 91.675771 294.310154 
L 91.346253 294.530919 
L 91.009307 295.055492 
L 90.677251 295.093573 
L 90.009797 294.778163 
L 89.334172 294.551361 
L 89.003725 294.683721 
L 88.670617 295.233105 
L 88.342027 295.44367 
L 87.670977 295.041911 
L 86.669176 294.697998 
L 86.332973 295.198371 
L 85.997698 295.488 
L 84.341626 294.734356 
L 84.014398 294.953205 
L 83.680794 295.363612 
L 83.345705 295.310494 
L 82.339077 294.714852 
L 82.003741 294.517823 
L 81.675646 294.529749 
L 81.345013 294.854097 
L 81.012029 294.993699 
L 80.349031 294.454427 
L 79.364394 293.908865 
L 78.69075 294.18408 
L 77.026013 292.416222 
L 76.695009 292.428341 
L 76.3671 292.622787 
L 76.035725 292.271299 
L 75.366166 291.288634 
L 75.028972 290.873707 
L 74.697164 290.259202 
L 74.37173 289.893665 
L 73.960761 288.792416 
L 73.906372 288.018575 
L 73.832991 285.318191 
L 73.832991 285.318191 
" clip-path="url(#p00a498beb8)" style="fill: none; stroke: #000000; stroke-width: 1.5; stroke-linecap: square"/>
   </g>
   <g id="patch_3">
    <path d="M 57.6 307.584 
L 57.6 41.472 
" style="fill: none; stroke: #000000; stroke-width: 0.8; stroke-linejoin: miter; stroke-linecap: square"/>
   </g>
   <g id="patch_4">
    <path d="M 414.72 307.584 
L 414.72 41.472 
" style="fill: none; stroke: #000000; stroke-width: 0.8; stroke-linejoin: miter; stroke-linecap: square"/>
   </g>
   <g id="patch_5">
    <path d="M 57.6 307.584 
L 414.72 307.584 
" style="fill: none; stroke: #000000; stroke-width: 0.8; stroke-linejoin: miter; stroke-linecap: square"/>
   </g>
   <g id="patch_6">
    <path d="M 57.6 41.472 
L 414.72 41.472 
" style="fill: none; stroke: #000000; stroke-width: 0.8; stroke-linejoin: miter; stroke-linecap: square"/>
   </g>
   <g id="text_18">
    <!-- 2025-06-16 trial 32 -->
    <g transform="translate(178.0125 35.472) scale(0.12 -0.12)">
     <defs>
      <path id="DejaVuSans-2d" d="M 313 2009 
L 1997 2009 
L 1997 1497 
L 313 1497 
L 313 2009 
z
" transform="scale(0.015625)"/>
      <path id="DejaVuSans-36" d="M 2113 2584 
Q 1688 2584 1439 2293 
Q 1191 2003 1191 1497 
Q 1191 994 1439 701 
Q 1688 409 2113 409 
Q 2538 409 2786 701 
Q 3034 994 3034 1497 
Q 3034 2003 2786 2293 
Q 2538 2584 2113 2584 
z
M 3366 4563 
L 3366 3988 
Q 3128 4100 2886 4159 
Q 2644 4219 2406 4219 
Q 1781 4219 1451 3797 
Q 1122 3375 1075 2522 
Q 1259 2794 1537 2939 
Q 1816 3084 2150 3084 
Q 2853 3084 3261 2657 
Q 3669 2231 3669 1497 
Q 3669 778 3244 343 
Q 2819 -91 2113 -91 
Q 1303 -91 875 529 
Q 447 1150 447 2328 
Q 447 3434 972 4092 
Q 1497 4750 2381 4750 
Q 2619 4750 2861 4703 
Q 3103 4656 3366 4563 
z
" transform="scale(0.015625)"/>
      <path id="DejaVuSans-6c" d="M 603 4863 
L 1178 4863 
L 1178 0 
L 603 0 
L 603 4863 
z
" transform="scale(0.015625)"/>
     </defs>
     <use xlink:href="#DejaVuSans-32"/>
     <use xlink:href="#DejaVuSans-30" transform="translate(63.623047 0)"/>
     <use xlink:href="#DejaVuSans-32" transform="translate(127.246094 0)"/>
     <use xlink:href="#DejaVuSans-35" transform="translate(190.869141 0)"/>
     <use xlink:href="#DejaVuSans-2d" transform="translate(254.492188 0)"/>
     <use xlink:href="#DejaVuSans-30" transform="translate(290.576172 0)"/>
     <use xlink:href="#DejaVuSans-36" transform="translate(354.199219 0)"/>
     <use xlink:href="#DejaVuSans-2d" transform="translate(417.822266 0)"/>
     <use xlink:href="#DejaVuSans-31" transform="translate(453.90625 0)"/>
     <use xlink:href="#DejaVuSans-36" transform="translate(517.529297 0)"/>
     <use xlink:href="#DejaVuSans-20" transform="translate(581.152344 0)"/>
     <use xlink:href="#DejaVuSans-74" transform="translate(612.939453 0)"/>
     <use xlink:href="#DejaVuSans-72" transform="translate(652.148438 0)"/>
     <use xlink:href="#DejaVuSans-69" transform="translate(693.261719 0)"/>
     <use xlink:href="#DejaVuSans-61" transform="translate(721.044922 0)"/>
     <use xlink:href="#DejaVuSans-6c" transform="translate(782.324219 0)"/>
     <use xlink:href="#DejaVuSans-20" transform="translate(810.107422 0)"/>
     <use xlink:href="#DejaVuSans-33" transform="translate(841.894531 0)"/>
     <use xlink:href="#DejaVuSans-32" transform="translate(905.517578 0)"/>
    </g>
   </g>
  </g>
 </g>
 <defs>
  <clipPath id="p00a498beb8">
   <rect x="57.6" y="41.472" width="357.12" height="266.112"/>
  </clipPath>
 </defs>
</svg>
