<?xml version="1.0" encoding="utf-8" standalone="no"?>
<!DOCTYPE svg PUBLIC "-//W3C//DTD SVG 1.1//EN"
  "http://www.w3.org/Graphics/SVG/1.1/DTD/svg11.dtd">
<svg xmlns:xlink="http://www.w3.org/1999/xlink" width="460.8pt" height="345.6pt" viewBox="0 0 460.8 345.6" xmlns="http://www.w3.org/2000/svg" version="1.1">
 <metadata>
  <rdf:RDF xmlns:dc="http://purl.org/dc/elements/1.1/" xmlns:cc="http://creativecommons.org/ns#" xmlns:rdf="http://www.w3.org/1999/02/22-rdf-syntax-ns#">
   <cc:Work>
    <dc:type rdf:resource="http://purl.org/dc/dcmitype/StillImage"/>
    <dc:date>2025-07-16T22:12:14.452004</dc:date>
    <dc:format>image/svg+xml</dc:format>
    <dc:creator>
     <cc:Agent>
      <dc:title>Matplotlib v3.10.3, https://matplotlib.org/</dc:title>
     </cc:Agent>
    </dc:creator>
   </cc:Work>
  </rdf:RDF>
 </metadata>
 <defs>
  <style type="text/css">*{stroke-linejoin: round; stroke-linecap: butt}</style>
 </defs>
 <g id="figure_1">
  <g id="patch_1">
   <path d="M 0 345.6 
L 460.8 345.6 
L 460.8 0 
L 0 0 
z
" style="fill: #ffffff"/>
  </g>
  <g id="axes_1">
   <g id="patch_2">
    <path d="M 57.6 307.584 
L 414.72 307.584 
L 414.72 41.472 
L 57.6 41.472 
z
" style="fill: #ffffff"/>
   </g>
   <g id="matplotlib.axis_1">
    <g id="xtick_1">
     <g id="line2d_1">
      <defs>
       <path id="m23d8364b4a" d="M 0 0 
L 0 3.5 
" style="stroke: #000000; stroke-width: 0.8"/>
      </defs>
      <g>
       <use xlink:href="#m23d8364b4a" x="74.578904" y="307.584" style="stroke: #000000; stroke-width: 0.8"/>
      </g>
     </g>
     <g id="text_1">
      <!-- 0.000 -->
      <g transform="translate(60.264842 322.182437) scale(0.1 -0.1)">
       <defs>
        <path id="DejaVuSans-30" d="M 2034 4250 
Q 1547 4250 1301 3770 
Q 1056 3291 1056 2328 
Q 1056 1369 1301 889 
Q 1547 409 2034 409 
Q 2525 409 2770 889 
Q 3016 1369 3016 2328 
Q 3016 3291 2770 3770 
Q 2525 4250 2034 4250 
z
M 2034 4750 
Q 2819 4750 3233 4129 
Q 3647 3509 3647 2328 
Q 3647 1150 3233 529 
Q 2819 -91 2034 -91 
Q 1250 -91 836 529 
Q 422 1150 422 2328 
Q 422 3509 836 4129 
Q 1250 4750 2034 4750 
z
" transform="scale(0.015625)"/>
        <path id="DejaVuSans-2e" d="M 684 794 
L 1344 794 
L 1344 0 
L 684 0 
L 684 794 
z
" transform="scale(0.015625)"/>
       </defs>
       <use xlink:href="#DejaVuSans-30"/>
       <use xlink:href="#DejaVuSans-2e" transform="translate(63.623047 0)"/>
       <use xlink:href="#DejaVuSans-30" transform="translate(95.410156 0)"/>
       <use xlink:href="#DejaVuSans-30" transform="translate(159.033203 0)"/>
       <use xlink:href="#DejaVuSans-30" transform="translate(222.65625 0)"/>
      </g>
     </g>
    </g>
    <g id="xtick_2">
     <g id="line2d_2">
      <g>
       <use xlink:href="#m23d8364b4a" x="119.777107" y="307.584" style="stroke: #000000; stroke-width: 0.8"/>
      </g>
     </g>
     <g id="text_2">
      <!-- 0.005 -->
      <g transform="translate(105.463045 322.182437) scale(0.1 -0.1)">
       <defs>
        <path id="DejaVuSans-35" d="M 691 4666 
L 3169 4666 
L 3169 4134 
L 1269 4134 
L 1269 2991 
Q 1406 3038 1543 3061 
Q 1681 3084 1819 3084 
Q 2600 3084 3056 2656 
Q 3513 2228 3513 1497 
Q 3513 744 3044 326 
Q 2575 -91 1722 -91 
Q 1428 -91 1123 -41 
Q 819 9 494 109 
L 494 744 
Q 775 591 1075 516 
Q 1375 441 1709 441 
Q 2250 441 2565 725 
Q 2881 1009 2881 1497 
Q 2881 1984 2565 2268 
Q 2250 2553 1709 2553 
Q 1456 2553 1204 2497 
Q 953 2441 691 2322 
L 691 4666 
z
" transform="scale(0.015625)"/>
       </defs>
       <use xlink:href="#DejaVuSans-30"/>
       <use xlink:href="#DejaVuSans-2e" transform="translate(63.623047 0)"/>
       <use xlink:href="#DejaVuSans-30" transform="translate(95.410156 0)"/>
       <use xlink:href="#DejaVuSans-30" transform="translate(159.033203 0)"/>
       <use xlink:href="#DejaVuSans-35" transform="translate(222.65625 0)"/>
      </g>
     </g>
    </g>
    <g id="xtick_3">
     <g id="line2d_3">
      <g>
       <use xlink:href="#m23d8364b4a" x="164.97531" y="307.584" style="stroke: #000000; stroke-width: 0.8"/>
      </g>
     </g>
     <g id="text_3">
      <!-- 0.010 -->
      <g transform="translate(150.661248 322.182437) scale(0.1 -0.1)">
       <defs>
        <path id="DejaVuSans-31" d="M 794 531 
L 1825 531 
L 1825 4091 
L 703 3866 
L 703 4441 
L 1819 4666 
L 2450 4666 
L 2450 531 
L 3481 531 
L 3481 0 
L 794 0 
L 794 531 
z
" transform="scale(0.015625)"/>
       </defs>
       <use xlink:href="#DejaVuSans-30"/>
       <use xlink:href="#DejaVuSans-2e" transform="translate(63.623047 0)"/>
       <use xlink:href="#DejaVuSans-30" transform="translate(95.410156 0)"/>
       <use xlink:href="#DejaVuSans-31" transform="translate(159.033203 0)"/>
       <use xlink:href="#DejaVuSans-30" transform="translate(222.65625 0)"/>
      </g>
     </g>
    </g>
    <g id="xtick_4">
     <g id="line2d_4">
      <g>
       <use xlink:href="#m23d8364b4a" x="210.173513" y="307.584" style="stroke: #000000; stroke-width: 0.8"/>
      </g>
     </g>
     <g id="text_4">
      <!-- 0.015 -->
      <g transform="translate(195.85945 322.182437) scale(0.1 -0.1)">
       <use xlink:href="#DejaVuSans-30"/>
       <use xlink:href="#DejaVuSans-2e" transform="translate(63.623047 0)"/>
       <use xlink:href="#DejaVuSans-30" transform="translate(95.410156 0)"/>
       <use xlink:href="#DejaVuSans-31" transform="translate(159.033203 0)"/>
       <use xlink:href="#DejaVuSans-35" transform="translate(222.65625 0)"/>
      </g>
     </g>
    </g>
    <g id="xtick_5">
     <g id="line2d_5">
      <g>
       <use xlink:href="#m23d8364b4a" x="255.371716" y="307.584" style="stroke: #000000; stroke-width: 0.8"/>
      </g>
     </g>
     <g id="text_5">
      <!-- 0.020 -->
      <g transform="translate(241.057653 322.182437) scale(0.1 -0.1)">
       <defs>
        <path id="DejaVuSans-32" d="M 1228 531 
L 3431 531 
L 3431 0 
L 469 0 
L 469 531 
Q 828 903 1448 1529 
Q 2069 2156 2228 2338 
Q 2531 2678 2651 2914 
Q 2772 3150 2772 3378 
Q 2772 3750 2511 3984 
Q 2250 4219 1831 4219 
Q 1534 4219 1204 4116 
Q 875 4013 500 3803 
L 500 4441 
Q 881 4594 1212 4672 
Q 1544 4750 1819 4750 
Q 2544 4750 2975 4387 
Q 3406 4025 3406 3419 
Q 3406 3131 3298 2873 
Q 3191 2616 2906 2266 
Q 2828 2175 2409 1742 
Q 1991 1309 1228 531 
z
" transform="scale(0.015625)"/>
       </defs>
       <use xlink:href="#DejaVuSans-30"/>
       <use xlink:href="#DejaVuSans-2e" transform="translate(63.623047 0)"/>
       <use xlink:href="#DejaVuSans-30" transform="translate(95.410156 0)"/>
       <use xlink:href="#DejaVuSans-32" transform="translate(159.033203 0)"/>
       <use xlink:href="#DejaVuSans-30" transform="translate(222.65625 0)"/>
      </g>
     </g>
    </g>
    <g id="xtick_6">
     <g id="line2d_6">
      <g>
       <use xlink:href="#m23d8364b4a" x="300.569919" y="307.584" style="stroke: #000000; stroke-width: 0.8"/>
      </g>
     </g>
     <g id="text_6">
      <!-- 0.025 -->
      <g transform="translate(286.255856 322.182437) scale(0.1 -0.1)">
       <use xlink:href="#DejaVuSans-30"/>
       <use xlink:href="#DejaVuSans-2e" transform="translate(63.623047 0)"/>
       <use xlink:href="#DejaVuSans-30" transform="translate(95.410156 0)"/>
       <use xlink:href="#DejaVuSans-32" transform="translate(159.033203 0)"/>
       <use xlink:href="#DejaVuSans-35" transform="translate(222.65625 0)"/>
      </g>
     </g>
    </g>
    <g id="xtick_7">
     <g id="line2d_7">
      <g>
       <use xlink:href="#m23d8364b4a" x="345.768122" y="307.584" style="stroke: #000000; stroke-width: 0.8"/>
      </g>
     </g>
     <g id="text_7">
      <!-- 0.030 -->
      <g transform="translate(331.454059 322.182437) scale(0.1 -0.1)">
       <defs>
        <path id="DejaVuSans-33" d="M 2597 2516 
Q 3050 2419 3304 2112 
Q 3559 1806 3559 1356 
Q 3559 666 3084 287 
Q 2609 -91 1734 -91 
Q 1441 -91 1130 -33 
Q 819 25 488 141 
L 488 750 
Q 750 597 1062 519 
Q 1375 441 1716 441 
Q 2309 441 2620 675 
Q 2931 909 2931 1356 
Q 2931 1769 2642 2001 
Q 2353 2234 1838 2234 
L 1294 2234 
L 1294 2753 
L 1863 2753 
Q 2328 2753 2575 2939 
Q 2822 3125 2822 3475 
Q 2822 3834 2567 4026 
Q 2313 4219 1838 4219 
Q 1578 4219 1281 4162 
Q 984 4106 628 3988 
L 628 4550 
Q 988 4650 1302 4700 
Q 1616 4750 1894 4750 
Q 2613 4750 3031 4423 
Q 3450 4097 3450 3541 
Q 3450 3153 3228 2886 
Q 3006 2619 2597 2516 
z
" transform="scale(0.015625)"/>
       </defs>
       <use xlink:href="#DejaVuSans-30"/>
       <use xlink:href="#DejaVuSans-2e" transform="translate(63.623047 0)"/>
       <use xlink:href="#DejaVuSans-30" transform="translate(95.410156 0)"/>
       <use xlink:href="#DejaVuSans-33" transform="translate(159.033203 0)"/>
       <use xlink:href="#DejaVuSans-30" transform="translate(222.65625 0)"/>
      </g>
     </g>
    </g>
    <g id="xtick_8">
     <g id="line2d_8">
      <g>
       <use xlink:href="#m23d8364b4a" x="390.966325" y="307.584" style="stroke: #000000; stroke-width: 0.8"/>
      </g>
     </g>
     <g id="text_8">
      <!-- 0.035 -->
      <g transform="translate(376.652262 322.182437) scale(0.1 -0.1)">
       <use xlink:href="#DejaVuSans-30"/>
       <use xlink:href="#DejaVuSans-2e" transform="translate(63.623047 0)"/>
       <use xlink:href="#DejaVuSans-30" transform="translate(95.410156 0)"/>
       <use xlink:href="#DejaVuSans-33" transform="translate(159.033203 0)"/>
       <use xlink:href="#DejaVuSans-35" transform="translate(222.65625 0)"/>
      </g>
     </g>
    </g>
    <g id="text_9">
     <!-- Strain -->
     <g transform="translate(221.348281 335.860562) scale(0.1 -0.1)">
      <defs>
       <path id="DejaVuSans-53" d="M 3425 4513 
L 3425 3897 
Q 3066 4069 2747 4153 
Q 2428 4238 2131 4238 
Q 1616 4238 1336 4038 
Q 1056 3838 1056 3469 
Q 1056 3159 1242 3001 
Q 1428 2844 1947 2747 
L 2328 2669 
Q 3034 2534 3370 2195 
Q 3706 1856 3706 1288 
Q 3706 609 3251 259 
Q 2797 -91 1919 -91 
Q 1588 -91 1214 -16 
Q 841 59 441 206 
L 441 856 
Q 825 641 1194 531 
Q 1563 422 1919 422 
Q 2459 422 2753 634 
Q 3047 847 3047 1241 
Q 3047 1584 2836 1778 
Q 2625 1972 2144 2069 
L 1759 2144 
Q 1053 2284 737 2584 
Q 422 2884 422 3419 
Q 422 4038 858 4394 
Q 1294 4750 2059 4750 
Q 2388 4750 2728 4690 
Q 3069 4631 3425 4513 
z
" transform="scale(0.015625)"/>
       <path id="DejaVuSans-74" d="M 1172 4494 
L 1172 3500 
L 2356 3500 
L 2356 3053 
L 1172 3053 
L 1172 1153 
Q 1172 725 1289 603 
Q 1406 481 1766 481 
L 2356 481 
L 2356 0 
L 1766 0 
Q 1100 0 847 248 
Q 594 497 594 1153 
L 594 3053 
L 172 3053 
L 172 3500 
L 594 3500 
L 594 4494 
L 1172 4494 
z
" transform="scale(0.015625)"/>
       <path id="DejaVuSans-72" d="M 2631 2963 
Q 2534 3019 2420 3045 
Q 2306 3072 2169 3072 
Q 1681 3072 1420 2755 
Q 1159 2438 1159 1844 
L 1159 0 
L 581 0 
L 581 3500 
L 1159 3500 
L 1159 2956 
Q 1341 3275 1631 3429 
Q 1922 3584 2338 3584 
Q 2397 3584 2469 3576 
Q 2541 3569 2628 3553 
L 2631 2963 
z
" transform="scale(0.015625)"/>
       <path id="DejaVuSans-61" d="M 2194 1759 
Q 1497 1759 1228 1600 
Q 959 1441 959 1056 
Q 959 750 1161 570 
Q 1363 391 1709 391 
Q 2188 391 2477 730 
Q 2766 1069 2766 1631 
L 2766 1759 
L 2194 1759 
z
M 3341 1997 
L 3341 0 
L 2766 0 
L 2766 531 
Q 2569 213 2275 61 
Q 1981 -91 1556 -91 
Q 1019 -91 701 211 
Q 384 513 384 1019 
Q 384 1609 779 1909 
Q 1175 2209 1959 2209 
L 2766 2209 
L 2766 2266 
Q 2766 2663 2505 2880 
Q 2244 3097 1772 3097 
Q 1472 3097 1187 3025 
Q 903 2953 641 2809 
L 641 3341 
Q 956 3463 1253 3523 
Q 1550 3584 1831 3584 
Q 2591 3584 2966 3190 
Q 3341 2797 3341 1997 
z
" transform="scale(0.015625)"/>
       <path id="DejaVuSans-69" d="M 603 3500 
L 1178 3500 
L 1178 0 
L 603 0 
L 603 3500 
z
M 603 4863 
L 1178 4863 
L 1178 4134 
L 603 4134 
L 603 4863 
z
" transform="scale(0.015625)"/>
       <path id="DejaVuSans-6e" d="M 3513 2113 
L 3513 0 
L 2938 0 
L 2938 2094 
Q 2938 2591 2744 2837 
Q 2550 3084 2163 3084 
Q 1697 3084 1428 2787 
Q 1159 2491 1159 1978 
L 1159 0 
L 581 0 
L 581 3500 
L 1159 3500 
L 1159 2956 
Q 1366 3272 1645 3428 
Q 1925 3584 2291 3584 
Q 2894 3584 3203 3211 
Q 3513 2838 3513 2113 
z
" transform="scale(0.015625)"/>
      </defs>
      <use xlink:href="#DejaVuSans-53"/>
      <use xlink:href="#DejaVuSans-74" transform="translate(63.476562 0)"/>
      <use xlink:href="#DejaVuSans-72" transform="translate(102.685547 0)"/>
      <use xlink:href="#DejaVuSans-61" transform="translate(143.798828 0)"/>
      <use xlink:href="#DejaVuSans-69" transform="translate(205.078125 0)"/>
      <use xlink:href="#DejaVuSans-6e" transform="translate(232.861328 0)"/>
     </g>
    </g>
   </g>
   <g id="matplotlib.axis_2">
    <g id="ytick_1">
     <g id="line2d_9">
      <defs>
       <path id="m559334bdaf" d="M 0 0 
L -3.5 0 
" style="stroke: #000000; stroke-width: 0.8"/>
      </defs>
      <g>
       <use xlink:href="#m559334bdaf" x="57.6" y="278.299945" style="stroke: #000000; stroke-width: 0.8"/>
      </g>
     </g>
     <g id="text_10">
      <!-- −50 -->
      <g transform="translate(29.495313 282.099164) scale(0.1 -0.1)">
       <defs>
        <path id="DejaVuSans-2212" d="M 678 2272 
L 4684 2272 
L 4684 1741 
L 678 1741 
L 678 2272 
z
" transform="scale(0.015625)"/>
       </defs>
       <use xlink:href="#DejaVuSans-2212"/>
       <use xlink:href="#DejaVuSans-35" transform="translate(83.789062 0)"/>
       <use xlink:href="#DejaVuSans-30" transform="translate(147.412109 0)"/>
      </g>
     </g>
    </g>
    <g id="ytick_2">
     <g id="line2d_10">
      <g>
       <use xlink:href="#m559334bdaf" x="57.6" y="244.510178" style="stroke: #000000; stroke-width: 0.8"/>
      </g>
     </g>
     <g id="text_11">
      <!-- 0 -->
      <g transform="translate(44.2375 248.309397) scale(0.1 -0.1)">
       <use xlink:href="#DejaVuSans-30"/>
      </g>
     </g>
    </g>
    <g id="ytick_3">
     <g id="line2d_11">
      <g>
       <use xlink:href="#m559334bdaf" x="57.6" y="210.720411" style="stroke: #000000; stroke-width: 0.8"/>
      </g>
     </g>
     <g id="text_12">
      <!-- 50 -->
      <g transform="translate(37.875 214.51963) scale(0.1 -0.1)">
       <use xlink:href="#DejaVuSans-35"/>
       <use xlink:href="#DejaVuSans-30" transform="translate(63.623047 0)"/>
      </g>
     </g>
    </g>
    <g id="ytick_4">
     <g id="line2d_12">
      <g>
       <use xlink:href="#m559334bdaf" x="57.6" y="176.930644" style="stroke: #000000; stroke-width: 0.8"/>
      </g>
     </g>
     <g id="text_13">
      <!-- 100 -->
      <g transform="translate(31.5125 180.729863) scale(0.1 -0.1)">
       <use xlink:href="#DejaVuSans-31"/>
       <use xlink:href="#DejaVuSans-30" transform="translate(63.623047 0)"/>
       <use xlink:href="#DejaVuSans-30" transform="translate(127.246094 0)"/>
      </g>
     </g>
    </g>
    <g id="ytick_5">
     <g id="line2d_13">
      <g>
       <use xlink:href="#m559334bdaf" x="57.6" y="143.140877" style="stroke: #000000; stroke-width: 0.8"/>
      </g>
     </g>
     <g id="text_14">
      <!-- 150 -->
      <g transform="translate(31.5125 146.940096) scale(0.1 -0.1)">
       <use xlink:href="#DejaVuSans-31"/>
       <use xlink:href="#DejaVuSans-35" transform="translate(63.623047 0)"/>
       <use xlink:href="#DejaVuSans-30" transform="translate(127.246094 0)"/>
      </g>
     </g>
    </g>
    <g id="ytick_6">
     <g id="line2d_14">
      <g>
       <use xlink:href="#m559334bdaf" x="57.6" y="109.35111" style="stroke: #000000; stroke-width: 0.8"/>
      </g>
     </g>
     <g id="text_15">
      <!-- 200 -->
      <g transform="translate(31.5125 113.150329) scale(0.1 -0.1)">
       <use xlink:href="#DejaVuSans-32"/>
       <use xlink:href="#DejaVuSans-30" transform="translate(63.623047 0)"/>
       <use xlink:href="#DejaVuSans-30" transform="translate(127.246094 0)"/>
      </g>
     </g>
    </g>
    <g id="ytick_7">
     <g id="line2d_15">
      <g>
       <use xlink:href="#m559334bdaf" x="57.6" y="75.561343" style="stroke: #000000; stroke-width: 0.8"/>
      </g>
     </g>
     <g id="text_16">
      <!-- 250 -->
      <g transform="translate(31.5125 79.360562) scale(0.1 -0.1)">
       <use xlink:href="#DejaVuSans-32"/>
       <use xlink:href="#DejaVuSans-35" transform="translate(63.623047 0)"/>
       <use xlink:href="#DejaVuSans-30" transform="translate(127.246094 0)"/>
      </g>
     </g>
    </g>
    <g id="ytick_8">
     <g id="line2d_16">
      <g>
       <use xlink:href="#m559334bdaf" x="57.6" y="41.771576" style="stroke: #000000; stroke-width: 0.8"/>
      </g>
     </g>
     <g id="text_17">
      <!-- 300 -->
      <g transform="translate(31.5125 45.570795) scale(0.1 -0.1)">
       <use xlink:href="#DejaVuSans-33"/>
       <use xlink:href="#DejaVuSans-30" transform="translate(63.623047 0)"/>
       <use xlink:href="#DejaVuSans-30" transform="translate(127.246094 0)"/>
      </g>
     </g>
    </g>
    <g id="text_18">
     <!-- Stress [Pa] -->
     <g transform="translate(23.415625 201.235813) rotate(-90) scale(0.1 -0.1)">
      <defs>
       <path id="DejaVuSans-65" d="M 3597 1894 
L 3597 1613 
L 953 1613 
Q 991 1019 1311 708 
Q 1631 397 2203 397 
Q 2534 397 2845 478 
Q 3156 559 3463 722 
L 3463 178 
Q 3153 47 2828 -22 
Q 2503 -91 2169 -91 
Q 1331 -91 842 396 
Q 353 884 353 1716 
Q 353 2575 817 3079 
Q 1281 3584 2069 3584 
Q 2775 3584 3186 3129 
Q 3597 2675 3597 1894 
z
M 3022 2063 
Q 3016 2534 2758 2815 
Q 2500 3097 2075 3097 
Q 1594 3097 1305 2825 
Q 1016 2553 972 2059 
L 3022 2063 
z
" transform="scale(0.015625)"/>
       <path id="DejaVuSans-73" d="M 2834 3397 
L 2834 2853 
Q 2591 2978 2328 3040 
Q 2066 3103 1784 3103 
Q 1356 3103 1142 2972 
Q 928 2841 928 2578 
Q 928 2378 1081 2264 
Q 1234 2150 1697 2047 
L 1894 2003 
Q 2506 1872 2764 1633 
Q 3022 1394 3022 966 
Q 3022 478 2636 193 
Q 2250 -91 1575 -91 
Q 1294 -91 989 -36 
Q 684 19 347 128 
L 347 722 
Q 666 556 975 473 
Q 1284 391 1588 391 
Q 1994 391 2212 530 
Q 2431 669 2431 922 
Q 2431 1156 2273 1281 
Q 2116 1406 1581 1522 
L 1381 1569 
Q 847 1681 609 1914 
Q 372 2147 372 2553 
Q 372 3047 722 3315 
Q 1072 3584 1716 3584 
Q 2034 3584 2315 3537 
Q 2597 3491 2834 3397 
z
" transform="scale(0.015625)"/>
       <path id="DejaVuSans-20" transform="scale(0.015625)"/>
       <path id="DejaVuSans-5b" d="M 550 4863 
L 1875 4863 
L 1875 4416 
L 1125 4416 
L 1125 -397 
L 1875 -397 
L 1875 -844 
L 550 -844 
L 550 4863 
z
" transform="scale(0.015625)"/>
       <path id="DejaVuSans-50" d="M 1259 4147 
L 1259 2394 
L 2053 2394 
Q 2494 2394 2734 2622 
Q 2975 2850 2975 3272 
Q 2975 3691 2734 3919 
Q 2494 4147 2053 4147 
L 1259 4147 
z
M 628 4666 
L 2053 4666 
Q 2838 4666 3239 4311 
Q 3641 3956 3641 3272 
Q 3641 2581 3239 2228 
Q 2838 1875 2053 1875 
L 1259 1875 
L 1259 0 
L 628 0 
L 628 4666 
z
" transform="scale(0.015625)"/>
       <path id="DejaVuSans-5d" d="M 1947 4863 
L 1947 -844 
L 622 -844 
L 622 -397 
L 1369 -397 
L 1369 4416 
L 622 4416 
L 622 4863 
L 1947 4863 
z
" transform="scale(0.015625)"/>
      </defs>
      <use xlink:href="#DejaVuSans-53"/>
      <use xlink:href="#DejaVuSans-74" transform="translate(63.476562 0)"/>
      <use xlink:href="#DejaVuSans-72" transform="translate(102.685547 0)"/>
      <use xlink:href="#DejaVuSans-65" transform="translate(141.548828 0)"/>
      <use xlink:href="#DejaVuSans-73" transform="translate(203.072266 0)"/>
      <use xlink:href="#DejaVuSans-73" transform="translate(255.171875 0)"/>
      <use xlink:href="#DejaVuSans-20" transform="translate(307.271484 0)"/>
      <use xlink:href="#DejaVuSans-5b" transform="translate(339.058594 0)"/>
      <use xlink:href="#DejaVuSans-50" transform="translate(378.072266 0)"/>
      <use xlink:href="#DejaVuSans-61" transform="translate(433.875 0)"/>
      <use xlink:href="#DejaVuSans-5d" transform="translate(495.154297 0)"/>
     </g>
    </g>
   </g>
   <g id="line2d_17">
    <path d="M 74.578904 247.899644 
L 74.578904 247.156403 
L 74.573387 248.293213 
L 74.608385 247.858267 
L 77.851094 247.727351 
L 81.177519 240.626269 
L 84.479632 235.899244 
L 87.887341 237.925695 
L 91.1214 237.568257 
L 94.414573 233.564327 
L 97.874007 227.749689 
L 101.154865 230.415889 
L 104.630308 236.211295 
L 108.078657 239.005712 
L 111.366905 242.164123 
L 114.655152 240.879905 
L 117.892903 236.764141 
L 121.12573 234.013175 
L 124.492797 238.014457 
L 127.752103 234.755609 
L 131.105007 218.49129 
L 134.491163 217.959501 
L 137.863155 219.935823 
L 141.12554 219.933808 
L 144.488912 219.511093 
L 147.75376 219.424903 
L 151.047549 213.269065 
L 154.33087 209.41116 
L 157.669611 209.567911 
L 160.964016 208.754245 
L 164.235022 208.36056 
L 167.506027 208.098962 
L 170.803511 203.735312 
L 174.089296 199.162953 
L 177.478309 198.702429 
L 180.860154 197.888185 
L 187.553646 195.831012 
L 190.853593 192.924049 
L 194.090731 189.175841 
L 197.428856 187.041385 
L 204.080476 183.74425 
L 207.394586 182.767308 
L 210.770273 180.340447 
L 214.069605 176.956944 
L 217.390488 174.313538 
L 220.635631 172.717771 
L 223.971909 170.920953 
L 227.331586 169.492759 
L 230.639538 168.248164 
L 234.020152 166.36943 
L 237.32873 163.327126 
L 240.645918 160.860731 
L 247.174382 157.302355 
L 253.812455 153.377848 
L 257.071145 150.491542 
L 260.305165 147.315089 
L 263.611886 145.055978 
L 273.357167 140.638548 
L 276.715613 138.549324 
L 280.01987 136.144544 
L 283.338291 133.267498 
L 286.712747 130.517957 
L 293.268305 127.588912 
L 296.524532 125.449826 
L 299.757359 123.012992 
L 303.014818 120.903111 
L 309.556829 115.92117 
L 316.166575 112.159072 
L 322.693808 107.651534 
L 325.931561 105.670582 
L 332.620127 100.856036 
L 335.966258 98.710539 
L 345.871063 91.750484 
L 349.153153 89.765971 
L 355.77152 85.002355 
L 359.09302 83.03102 
L 362.405898 80.767635 
L 365.73725 78.290555 
L 369.110474 76.103387 
L 375.604455 71.225445 
L 378.868071 68.827076 
L 382.100898 67.006039 
L 385.411929 65.417929 
L 388.67493 64.68066 
L 391.905294 63.674424 
L 395.139353 61.96718 
L 396.633535 60.248004 
L 398.487273 57.288241 
L 398.287068 57.907232 
L 398.035601 59.349762 
L 397.68734 59.995076 
L 397.589201 60.132965 
L 397.432563 62.701311 
L 397.429676 68.362935 
L 397.423557 62.289759 
L 397.430177 68.205279 
L 397.42679 75.237967 
L 397.432293 67.958116 
L 397.42169 74.786871 
L 397.424827 90.655665 
L 397.430677 74.250875 
L 397.421979 90.508271 
L 394.164983 89.645768 
L 390.840712 97.959568 
L 387.454556 105.076321 
L 384.202024 102.614021 
L 380.965502 101.627151 
L 374.199348 102.623838 
L 370.837208 103.554079 
L 367.520635 102.732065 
L 364.124011 102.99402 
L 360.877636 103.108458 
L 357.473623 111.220317 
L 354.201386 116.38461 
L 350.817078 120.792424 
L 347.404443 124.140311 
L 343.94501 125.588405 
L 340.574826 124.892049 
L 337.23978 124.696752 
L 333.866555 125.375434 
L 330.578308 126.297705 
L 327.206315 127.602313 
L 323.854643 132.468858 
L 320.585485 140.634141 
L 317.222728 143.62676 
L 313.978817 144.611715 
L 310.677023 144.999538 
L 307.351829 145.568011 
L 303.998309 147.824985 
L 300.64479 150.610142 
L 297.277107 153.648177 
L 293.916814 156.871409 
L 290.645193 158.876223 
L 287.350172 160.680521 
L 284.082245 163.254476 
L 280.830329 165.204442 
L 277.458951 167.972147 
L 274.194104 170.475939 
L 270.932951 173.476216 
L 264.257932 176.933087 
L 260.889633 178.087039 
L 257.647781 180.397003 
L 254.366923 182.190972 
L 251.062666 184.568328 
L 247.802128 187.253761 
L 244.45723 189.762183 
L 237.904134 193.201958 
L 234.661464 195.666573 
L 231.285777 198.567125 
L 228.043097 200.969768 
L 224.756081 202.975295 
L 221.467834 205.159257 
L 218.206681 207.840772 
L 214.82853 209.868737 
L 211.491636 212.311269 
L 208.155359 214.960374 
L 204.784597 216.726919 
L 201.406446 217.840581 
L 198.065242 220.431275 
L 194.711723 222.682909 
L 188.227595 226.311092 
L 184.977526 228.419905 
L 181.593217 230.207106 
L 174.981998 236.177936 
L 171.628479 238.515046 
L 168.357473 240.329316 
L 165.058142 241.768551 
L 161.788368 242.869258 
L 158.421301 245.427186 
L 155.081334 248.173165 
L 151.727814 250.167295 
L 148.359516 252.802153 
L 145.108215 254.731106 
L 141.843367 255.969824 
L 138.601919 258.040171 
L 135.217611 261.304717 
L 128.678063 265.313277 
L 125.42553 267.729454 
L 122.175461 269.69616 
L 118.936476 270.882879 
L 115.584188 272.724573 
L 112.244213 275.053135 
L 108.861136 276.941842 
L 99.115855 283.406113 
L 95.868273 284.836375 
L 92.512291 287.203758 
L 89.18094 288.660356 
L 85.924097 289.817158 
L 79.255852 291.430312 
L 76.011016 292.642936 
L 74.647841 295.425956 
L 73.832727 295.450871 
L 73.836436 295.488 
" clip-path="url(#p07457c15e3)" style="fill: none; stroke: #ff0000; stroke-width: 1.5; stroke-linecap: square"/>
   </g>
   <g id="line2d_18">
    <path d="M 74.578904 247.899644 
L 74.578904 247.156403 
L 74.573387 248.293213 
L 74.608385 247.858267 
L 77.851094 247.727351 
L 81.177519 240.626269 
L 84.479632 235.899244 
L 87.887341 237.925695 
L 91.1214 250.859456 
L 94.414573 243.249157 
L 97.874007 234.149315 
L 101.154865 234.939987 
L 104.630308 237.84695 
L 108.078657 239.017642 
L 111.366905 242.164123 
L 114.655152 240.879905 
L 117.892903 236.764141 
L 121.12573 234.013175 
L 124.492797 238.014457 
L 127.752103 234.755609 
L 131.105007 218.49129 
L 134.491163 217.959501 
L 137.863155 219.935823 
L 141.12554 219.933808 
L 144.488912 219.511093 
L 147.75376 219.424903 
L 151.047549 213.269065 
L 154.33087 209.41116 
L 157.669611 209.567911 
L 160.964016 208.754245 
L 164.235022 208.36056 
L 167.506027 208.098962 
L 170.803511 203.735312 
L 174.089296 199.162953 
L 177.478309 198.702429 
L 180.860154 197.888185 
L 187.553646 195.831012 
L 190.853593 192.924049 
L 194.090731 189.175841 
L 197.428856 187.041385 
L 204.080476 183.74425 
L 207.394586 182.767308 
L 210.770273 180.340447 
L 214.069605 176.956944 
L 217.390488 174.313538 
L 220.635631 172.717771 
L 223.971909 170.920953 
L 227.331586 169.492759 
L 230.639538 168.248164 
L 234.020152 166.36943 
L 237.32873 163.327126 
L 240.645918 160.860731 
L 247.174382 157.302355 
L 253.812455 153.377848 
L 257.071145 150.491542 
L 260.305165 147.315089 
L 263.611886 145.055978 
L 273.357167 140.638548 
L 276.715613 138.549324 
L 280.01987 136.144544 
L 283.338291 133.267498 
L 286.712747 130.517957 
L 293.268305 127.588912 
L 296.524532 125.449826 
L 299.757359 123.012992 
L 303.014818 120.903111 
L 309.556829 115.92117 
L 316.166575 112.159072 
L 322.693808 107.651534 
L 325.931561 105.670582 
L 332.620127 100.856036 
L 335.966258 98.710539 
L 345.871063 91.750484 
L 349.153153 89.765971 
L 355.77152 85.002355 
L 359.09302 83.03102 
L 362.405898 80.767635 
L 365.73725 78.290555 
L 369.110474 76.103387 
L 375.604455 71.225445 
L 378.868071 68.827076 
L 382.100898 67.006039 
L 385.411929 65.417929 
L 388.67493 64.68066 
L 391.905294 63.674424 
L 395.139353 61.96718 
L 396.633535 60.248004 
L 398.487273 57.288241 
L 398.287068 57.907232 
L 398.035601 56.52881 
L 397.835088 56.435641 
L 397.68734 53.568 
L 397.477784 62.149176 
L 397.452268 61.921625 
L 397.439221 61.854634 
L 397.423749 63.152552 
L 397.434333 68.478519 
L 397.423557 62.289759 
L 397.426136 68.189374 
L 397.41307 87.166884 
L 397.432293 67.958116 
L 397.430754 86.110998 
L 397.424827 90.655665 
L 397.421979 90.508271 
L 394.164983 89.645768 
L 390.840712 97.959568 
L 387.454556 105.076321 
L 384.202024 102.614021 
L 380.965502 101.627151 
L 374.199348 102.623838 
L 370.837208 103.554079 
L 367.520635 102.732065 
L 364.124011 102.99402 
L 360.877636 103.108458 
L 357.473623 111.220317 
L 354.201386 116.38461 
L 350.817078 120.792424 
L 347.404443 124.140311 
L 343.94501 125.588405 
L 340.574826 124.892049 
L 337.23978 124.696752 
L 333.866555 125.375434 
L 330.578308 126.297705 
L 327.206315 127.602313 
L 323.854643 132.468858 
L 320.585485 140.634141 
L 317.222728 143.62676 
L 313.978817 144.611715 
L 310.677023 144.999538 
L 307.351829 145.568011 
L 303.998309 147.824985 
L 300.64479 150.610142 
L 297.277107 153.648177 
L 293.916814 156.871409 
L 290.645193 158.876223 
L 287.350172 160.680521 
L 284.082245 163.254476 
L 280.830329 165.204442 
L 277.458951 167.972147 
L 274.194104 170.475939 
L 270.932951 173.476216 
L 264.257932 176.933087 
L 260.889633 178.087039 
L 257.647781 180.397003 
L 254.366923 182.190972 
L 251.062666 184.568328 
L 247.802128 187.253761 
L 244.45723 189.762183 
L 237.904134 193.201958 
L 234.661464 195.666573 
L 231.285777 198.567125 
L 228.043097 200.969768 
L 224.756081 202.975295 
L 221.467834 205.159257 
L 218.206681 207.840772 
L 214.82853 209.868737 
L 211.491636 212.311269 
L 208.155359 214.960374 
L 204.784597 216.726919 
L 201.406446 217.840581 
L 198.065242 220.431275 
L 194.711723 222.682909 
L 188.227595 226.311092 
L 184.977526 228.419905 
L 181.593217 230.207106 
L 174.981998 236.177936 
L 171.628479 238.515046 
L 168.357473 240.329316 
L 165.058142 241.768551 
L 161.788368 242.869258 
L 158.421301 245.427186 
L 155.081334 248.173165 
L 151.727814 250.167295 
L 148.359516 252.802153 
L 145.108215 254.731106 
L 141.843367 255.969824 
L 138.601919 258.040171 
L 135.217611 261.304717 
L 128.678063 265.313277 
L 125.42553 267.729454 
L 122.175461 269.69616 
L 118.936476 270.882879 
L 115.584188 272.724573 
L 112.244213 275.053135 
L 108.861136 276.941842 
L 99.115855 283.406113 
L 95.868273 284.836375 
L 92.512291 287.203758 
L 89.18094 288.660356 
L 85.924097 289.817158 
L 79.255852 291.430312 
L 76.011016 292.642936 
L 74.647841 295.425956 
L 73.832727 295.450871 
L 73.836436 295.488 
" clip-path="url(#p07457c15e3)" style="fill: none; stroke: #000000; stroke-width: 1.5; stroke-linecap: square"/>
   </g>
   <g id="patch_3">
    <path d="M 57.6 307.584 
L 57.6 41.472 
" style="fill: none; stroke: #000000; stroke-width: 0.8; stroke-linejoin: miter; stroke-linecap: square"/>
   </g>
   <g id="patch_4">
    <path d="M 414.72 307.584 
L 414.72 41.472 
" style="fill: none; stroke: #000000; stroke-width: 0.8; stroke-linejoin: miter; stroke-linecap: square"/>
   </g>
   <g id="patch_5">
    <path d="M 57.6 307.584 
L 414.72 307.584 
" style="fill: none; stroke: #000000; stroke-width: 0.8; stroke-linejoin: miter; stroke-linecap: square"/>
   </g>
   <g id="patch_6">
    <path d="M 57.6 41.472 
L 414.72 41.472 
" style="fill: none; stroke: #000000; stroke-width: 0.8; stroke-linejoin: miter; stroke-linecap: square"/>
   </g>
   <g id="text_19">
    <!-- 2025-07-02 trial 2 -->
    <g transform="translate(181.83 35.472) scale(0.12 -0.12)">
     <defs>
      <path id="DejaVuSans-2d" d="M 313 2009 
L 1997 2009 
L 1997 1497 
L 313 1497 
L 313 2009 
z
" transform="scale(0.015625)"/>
      <path id="DejaVuSans-37" d="M 525 4666 
L 3525 4666 
L 3525 4397 
L 1831 0 
L 1172 0 
L 2766 4134 
L 525 4134 
L 525 4666 
z
" transform="scale(0.015625)"/>
      <path id="DejaVuSans-6c" d="M 603 4863 
L 1178 4863 
L 1178 0 
L 603 0 
L 603 4863 
z
" transform="scale(0.015625)"/>
     </defs>
     <use xlink:href="#DejaVuSans-32"/>
     <use xlink:href="#DejaVuSans-30" transform="translate(63.623047 0)"/>
     <use xlink:href="#DejaVuSans-32" transform="translate(127.246094 0)"/>
     <use xlink:href="#DejaVuSans-35" transform="translate(190.869141 0)"/>
     <use xlink:href="#DejaVuSans-2d" transform="translate(254.492188 0)"/>
     <use xlink:href="#DejaVuSans-30" transform="translate(290.576172 0)"/>
     <use xlink:href="#DejaVuSans-37" transform="translate(354.199219 0)"/>
     <use xlink:href="#DejaVuSans-2d" transform="translate(417.822266 0)"/>
     <use xlink:href="#DejaVuSans-30" transform="translate(453.90625 0)"/>
     <use xlink:href="#DejaVuSans-32" transform="translate(517.529297 0)"/>
     <use xlink:href="#DejaVuSans-20" transform="translate(581.152344 0)"/>
     <use xlink:href="#DejaVuSans-74" transform="translate(612.939453 0)"/>
     <use xlink:href="#DejaVuSans-72" transform="translate(652.148438 0)"/>
     <use xlink:href="#DejaVuSans-69" transform="translate(693.261719 0)"/>
     <use xlink:href="#DejaVuSans-61" transform="translate(721.044922 0)"/>
     <use xlink:href="#DejaVuSans-6c" transform="translate(782.324219 0)"/>
     <use xlink:href="#DejaVuSans-20" transform="translate(810.107422 0)"/>
     <use xlink:href="#DejaVuSans-32" transform="translate(841.894531 0)"/>
    </g>
   </g>
  </g>
 </g>
 <defs>
  <clipPath id="p07457c15e3">
   <rect x="57.6" y="41.472" width="357.12" height="266.112"/>
  </clipPath>
 </defs>
</svg>
