<?xml version="1.0" encoding="utf-8" standalone="no"?>
<!DOCTYPE svg PUBLIC "-//W3C//DTD SVG 1.1//EN"
  "http://www.w3.org/Graphics/SVG/1.1/DTD/svg11.dtd">
<svg xmlns:xlink="http://www.w3.org/1999/xlink" width="460.8pt" height="345.6pt" viewBox="0 0 460.8 345.6" xmlns="http://www.w3.org/2000/svg" version="1.1">
 <metadata>
  <rdf:RDF xmlns:dc="http://purl.org/dc/elements/1.1/" xmlns:cc="http://creativecommons.org/ns#" xmlns:rdf="http://www.w3.org/1999/02/22-rdf-syntax-ns#">
   <cc:Work>
    <dc:type rdf:resource="http://purl.org/dc/dcmitype/StillImage"/>
    <dc:date>2025-07-14T21:34:41.850980</dc:date>
    <dc:format>image/svg+xml</dc:format>
    <dc:creator>
     <cc:Agent>
      <dc:title>Matplotlib v3.10.3, https://matplotlib.org/</dc:title>
     </cc:Agent>
    </dc:creator>
   </cc:Work>
  </rdf:RDF>
 </metadata>
 <defs>
  <style type="text/css">*{stroke-linejoin: round; stroke-linecap: butt}</style>
 </defs>
 <g id="figure_1">
  <g id="patch_1">
   <path d="M 0 345.6 
L 460.8 345.6 
L 460.8 0 
L 0 0 
z
" style="fill: #ffffff"/>
  </g>
  <g id="axes_1">
   <g id="patch_2">
    <path d="M 57.6 307.584 
L 414.72 307.584 
L 414.72 41.472 
L 57.6 41.472 
z
" style="fill: #ffffff"/>
   </g>
   <g id="matplotlib.axis_1">
    <g id="xtick_1">
     <g id="line2d_1">
      <defs>
       <path id="mc6d43ad6ee" d="M 0 0 
L 0 3.5 
" style="stroke: #000000; stroke-width: 0.8"/>
      </defs>
      <g>
       <use xlink:href="#mc6d43ad6ee" x="73.909858" y="307.584" style="stroke: #000000; stroke-width: 0.8"/>
      </g>
     </g>
     <g id="text_1">
      <!-- 0.00 -->
      <g transform="translate(62.777046 322.182437) scale(0.1 -0.1)">
       <defs>
        <path id="DejaVuSans-30" d="M 2034 4250 
Q 1547 4250 1301 3770 
Q 1056 3291 1056 2328 
Q 1056 1369 1301 889 
Q 1547 409 2034 409 
Q 2525 409 2770 889 
Q 3016 1369 3016 2328 
Q 3016 3291 2770 3770 
Q 2525 4250 2034 4250 
z
M 2034 4750 
Q 2819 4750 3233 4129 
Q 3647 3509 3647 2328 
Q 3647 1150 3233 529 
Q 2819 -91 2034 -91 
Q 1250 -91 836 529 
Q 422 1150 422 2328 
Q 422 3509 836 4129 
Q 1250 4750 2034 4750 
z
" transform="scale(0.015625)"/>
        <path id="DejaVuSans-2e" d="M 684 794 
L 1344 794 
L 1344 0 
L 684 0 
L 684 794 
z
" transform="scale(0.015625)"/>
       </defs>
       <use xlink:href="#DejaVuSans-30"/>
       <use xlink:href="#DejaVuSans-2e" transform="translate(63.623047 0)"/>
       <use xlink:href="#DejaVuSans-30" transform="translate(95.410156 0)"/>
       <use xlink:href="#DejaVuSans-30" transform="translate(159.033203 0)"/>
      </g>
     </g>
    </g>
    <g id="xtick_2">
     <g id="line2d_2">
      <g>
       <use xlink:href="#mc6d43ad6ee" x="117.715515" y="307.584" style="stroke: #000000; stroke-width: 0.8"/>
      </g>
     </g>
     <g id="text_2">
      <!-- 0.05 -->
      <g transform="translate(106.582702 322.182437) scale(0.1 -0.1)">
       <defs>
        <path id="DejaVuSans-35" d="M 691 4666 
L 3169 4666 
L 3169 4134 
L 1269 4134 
L 1269 2991 
Q 1406 3038 1543 3061 
Q 1681 3084 1819 3084 
Q 2600 3084 3056 2656 
Q 3513 2228 3513 1497 
Q 3513 744 3044 326 
Q 2575 -91 1722 -91 
Q 1428 -91 1123 -41 
Q 819 9 494 109 
L 494 744 
Q 775 591 1075 516 
Q 1375 441 1709 441 
Q 2250 441 2565 725 
Q 2881 1009 2881 1497 
Q 2881 1984 2565 2268 
Q 2250 2553 1709 2553 
Q 1456 2553 1204 2497 
Q 953 2441 691 2322 
L 691 4666 
z
" transform="scale(0.015625)"/>
       </defs>
       <use xlink:href="#DejaVuSans-30"/>
       <use xlink:href="#DejaVuSans-2e" transform="translate(63.623047 0)"/>
       <use xlink:href="#DejaVuSans-30" transform="translate(95.410156 0)"/>
       <use xlink:href="#DejaVuSans-35" transform="translate(159.033203 0)"/>
      </g>
     </g>
    </g>
    <g id="xtick_3">
     <g id="line2d_3">
      <g>
       <use xlink:href="#mc6d43ad6ee" x="161.521171" y="307.584" style="stroke: #000000; stroke-width: 0.8"/>
      </g>
     </g>
     <g id="text_3">
      <!-- 0.10 -->
      <g transform="translate(150.388358 322.182437) scale(0.1 -0.1)">
       <defs>
        <path id="DejaVuSans-31" d="M 794 531 
L 1825 531 
L 1825 4091 
L 703 3866 
L 703 4441 
L 1819 4666 
L 2450 4666 
L 2450 531 
L 3481 531 
L 3481 0 
L 794 0 
L 794 531 
z
" transform="scale(0.015625)"/>
       </defs>
       <use xlink:href="#DejaVuSans-30"/>
       <use xlink:href="#DejaVuSans-2e" transform="translate(63.623047 0)"/>
       <use xlink:href="#DejaVuSans-31" transform="translate(95.410156 0)"/>
       <use xlink:href="#DejaVuSans-30" transform="translate(159.033203 0)"/>
      </g>
     </g>
    </g>
    <g id="xtick_4">
     <g id="line2d_4">
      <g>
       <use xlink:href="#mc6d43ad6ee" x="205.326827" y="307.584" style="stroke: #000000; stroke-width: 0.8"/>
      </g>
     </g>
     <g id="text_4">
      <!-- 0.15 -->
      <g transform="translate(194.194014 322.182437) scale(0.1 -0.1)">
       <use xlink:href="#DejaVuSans-30"/>
       <use xlink:href="#DejaVuSans-2e" transform="translate(63.623047 0)"/>
       <use xlink:href="#DejaVuSans-31" transform="translate(95.410156 0)"/>
       <use xlink:href="#DejaVuSans-35" transform="translate(159.033203 0)"/>
      </g>
     </g>
    </g>
    <g id="xtick_5">
     <g id="line2d_5">
      <g>
       <use xlink:href="#mc6d43ad6ee" x="249.132483" y="307.584" style="stroke: #000000; stroke-width: 0.8"/>
      </g>
     </g>
     <g id="text_5">
      <!-- 0.20 -->
      <g transform="translate(237.999671 322.182437) scale(0.1 -0.1)">
       <defs>
        <path id="DejaVuSans-32" d="M 1228 531 
L 3431 531 
L 3431 0 
L 469 0 
L 469 531 
Q 828 903 1448 1529 
Q 2069 2156 2228 2338 
Q 2531 2678 2651 2914 
Q 2772 3150 2772 3378 
Q 2772 3750 2511 3984 
Q 2250 4219 1831 4219 
Q 1534 4219 1204 4116 
Q 875 4013 500 3803 
L 500 4441 
Q 881 4594 1212 4672 
Q 1544 4750 1819 4750 
Q 2544 4750 2975 4387 
Q 3406 4025 3406 3419 
Q 3406 3131 3298 2873 
Q 3191 2616 2906 2266 
Q 2828 2175 2409 1742 
Q 1991 1309 1228 531 
z
" transform="scale(0.015625)"/>
       </defs>
       <use xlink:href="#DejaVuSans-30"/>
       <use xlink:href="#DejaVuSans-2e" transform="translate(63.623047 0)"/>
       <use xlink:href="#DejaVuSans-32" transform="translate(95.410156 0)"/>
       <use xlink:href="#DejaVuSans-30" transform="translate(159.033203 0)"/>
      </g>
     </g>
    </g>
    <g id="xtick_6">
     <g id="line2d_6">
      <g>
       <use xlink:href="#mc6d43ad6ee" x="292.938139" y="307.584" style="stroke: #000000; stroke-width: 0.8"/>
      </g>
     </g>
     <g id="text_6">
      <!-- 0.25 -->
      <g transform="translate(281.805327 322.182437) scale(0.1 -0.1)">
       <use xlink:href="#DejaVuSans-30"/>
       <use xlink:href="#DejaVuSans-2e" transform="translate(63.623047 0)"/>
       <use xlink:href="#DejaVuSans-32" transform="translate(95.410156 0)"/>
       <use xlink:href="#DejaVuSans-35" transform="translate(159.033203 0)"/>
      </g>
     </g>
    </g>
    <g id="xtick_7">
     <g id="line2d_7">
      <g>
       <use xlink:href="#mc6d43ad6ee" x="336.743795" y="307.584" style="stroke: #000000; stroke-width: 0.8"/>
      </g>
     </g>
     <g id="text_7">
      <!-- 0.30 -->
      <g transform="translate(325.610983 322.182437) scale(0.1 -0.1)">
       <defs>
        <path id="DejaVuSans-33" d="M 2597 2516 
Q 3050 2419 3304 2112 
Q 3559 1806 3559 1356 
Q 3559 666 3084 287 
Q 2609 -91 1734 -91 
Q 1441 -91 1130 -33 
Q 819 25 488 141 
L 488 750 
Q 750 597 1062 519 
Q 1375 441 1716 441 
Q 2309 441 2620 675 
Q 2931 909 2931 1356 
Q 2931 1769 2642 2001 
Q 2353 2234 1838 2234 
L 1294 2234 
L 1294 2753 
L 1863 2753 
Q 2328 2753 2575 2939 
Q 2822 3125 2822 3475 
Q 2822 3834 2567 4026 
Q 2313 4219 1838 4219 
Q 1578 4219 1281 4162 
Q 984 4106 628 3988 
L 628 4550 
Q 988 4650 1302 4700 
Q 1616 4750 1894 4750 
Q 2613 4750 3031 4423 
Q 3450 4097 3450 3541 
Q 3450 3153 3228 2886 
Q 3006 2619 2597 2516 
z
" transform="scale(0.015625)"/>
       </defs>
       <use xlink:href="#DejaVuSans-30"/>
       <use xlink:href="#DejaVuSans-2e" transform="translate(63.623047 0)"/>
       <use xlink:href="#DejaVuSans-33" transform="translate(95.410156 0)"/>
       <use xlink:href="#DejaVuSans-30" transform="translate(159.033203 0)"/>
      </g>
     </g>
    </g>
    <g id="xtick_8">
     <g id="line2d_8">
      <g>
       <use xlink:href="#mc6d43ad6ee" x="380.549452" y="307.584" style="stroke: #000000; stroke-width: 0.8"/>
      </g>
     </g>
     <g id="text_8">
      <!-- 0.35 -->
      <g transform="translate(369.416639 322.182437) scale(0.1 -0.1)">
       <use xlink:href="#DejaVuSans-30"/>
       <use xlink:href="#DejaVuSans-2e" transform="translate(63.623047 0)"/>
       <use xlink:href="#DejaVuSans-33" transform="translate(95.410156 0)"/>
       <use xlink:href="#DejaVuSans-35" transform="translate(159.033203 0)"/>
      </g>
     </g>
    </g>
    <g id="text_9">
     <!-- Strain -->
     <g transform="translate(221.348281 335.860562) scale(0.1 -0.1)">
      <defs>
       <path id="DejaVuSans-53" d="M 3425 4513 
L 3425 3897 
Q 3066 4069 2747 4153 
Q 2428 4238 2131 4238 
Q 1616 4238 1336 4038 
Q 1056 3838 1056 3469 
Q 1056 3159 1242 3001 
Q 1428 2844 1947 2747 
L 2328 2669 
Q 3034 2534 3370 2195 
Q 3706 1856 3706 1288 
Q 3706 609 3251 259 
Q 2797 -91 1919 -91 
Q 1588 -91 1214 -16 
Q 841 59 441 206 
L 441 856 
Q 825 641 1194 531 
Q 1563 422 1919 422 
Q 2459 422 2753 634 
Q 3047 847 3047 1241 
Q 3047 1584 2836 1778 
Q 2625 1972 2144 2069 
L 1759 2144 
Q 1053 2284 737 2584 
Q 422 2884 422 3419 
Q 422 4038 858 4394 
Q 1294 4750 2059 4750 
Q 2388 4750 2728 4690 
Q 3069 4631 3425 4513 
z
" transform="scale(0.015625)"/>
       <path id="DejaVuSans-74" d="M 1172 4494 
L 1172 3500 
L 2356 3500 
L 2356 3053 
L 1172 3053 
L 1172 1153 
Q 1172 725 1289 603 
Q 1406 481 1766 481 
L 2356 481 
L 2356 0 
L 1766 0 
Q 1100 0 847 248 
Q 594 497 594 1153 
L 594 3053 
L 172 3053 
L 172 3500 
L 594 3500 
L 594 4494 
L 1172 4494 
z
" transform="scale(0.015625)"/>
       <path id="DejaVuSans-72" d="M 2631 2963 
Q 2534 3019 2420 3045 
Q 2306 3072 2169 3072 
Q 1681 3072 1420 2755 
Q 1159 2438 1159 1844 
L 1159 0 
L 581 0 
L 581 3500 
L 1159 3500 
L 1159 2956 
Q 1341 3275 1631 3429 
Q 1922 3584 2338 3584 
Q 2397 3584 2469 3576 
Q 2541 3569 2628 3553 
L 2631 2963 
z
" transform="scale(0.015625)"/>
       <path id="DejaVuSans-61" d="M 2194 1759 
Q 1497 1759 1228 1600 
Q 959 1441 959 1056 
Q 959 750 1161 570 
Q 1363 391 1709 391 
Q 2188 391 2477 730 
Q 2766 1069 2766 1631 
L 2766 1759 
L 2194 1759 
z
M 3341 1997 
L 3341 0 
L 2766 0 
L 2766 531 
Q 2569 213 2275 61 
Q 1981 -91 1556 -91 
Q 1019 -91 701 211 
Q 384 513 384 1019 
Q 384 1609 779 1909 
Q 1175 2209 1959 2209 
L 2766 2209 
L 2766 2266 
Q 2766 2663 2505 2880 
Q 2244 3097 1772 3097 
Q 1472 3097 1187 3025 
Q 903 2953 641 2809 
L 641 3341 
Q 956 3463 1253 3523 
Q 1550 3584 1831 3584 
Q 2591 3584 2966 3190 
Q 3341 2797 3341 1997 
z
" transform="scale(0.015625)"/>
       <path id="DejaVuSans-69" d="M 603 3500 
L 1178 3500 
L 1178 0 
L 603 0 
L 603 3500 
z
M 603 4863 
L 1178 4863 
L 1178 4134 
L 603 4134 
L 603 4863 
z
" transform="scale(0.015625)"/>
       <path id="DejaVuSans-6e" d="M 3513 2113 
L 3513 0 
L 2938 0 
L 2938 2094 
Q 2938 2591 2744 2837 
Q 2550 3084 2163 3084 
Q 1697 3084 1428 2787 
Q 1159 2491 1159 1978 
L 1159 0 
L 581 0 
L 581 3500 
L 1159 3500 
L 1159 2956 
Q 1366 3272 1645 3428 
Q 1925 3584 2291 3584 
Q 2894 3584 3203 3211 
Q 3513 2838 3513 2113 
z
" transform="scale(0.015625)"/>
      </defs>
      <use xlink:href="#DejaVuSans-53"/>
      <use xlink:href="#DejaVuSans-74" transform="translate(63.476562 0)"/>
      <use xlink:href="#DejaVuSans-72" transform="translate(102.685547 0)"/>
      <use xlink:href="#DejaVuSans-61" transform="translate(143.798828 0)"/>
      <use xlink:href="#DejaVuSans-69" transform="translate(205.078125 0)"/>
      <use xlink:href="#DejaVuSans-6e" transform="translate(232.861328 0)"/>
     </g>
    </g>
   </g>
   <g id="matplotlib.axis_2">
    <g id="ytick_1">
     <g id="line2d_9">
      <defs>
       <path id="mc4602d65a3" d="M 0 0 
L -3.5 0 
" style="stroke: #000000; stroke-width: 0.8"/>
      </defs>
      <g>
       <use xlink:href="#mc4602d65a3" x="57.6" y="281.683289" style="stroke: #000000; stroke-width: 0.8"/>
      </g>
     </g>
     <g id="text_10">
      <!-- 0 -->
      <g transform="translate(44.2375 285.482508) scale(0.1 -0.1)">
       <use xlink:href="#DejaVuSans-30"/>
      </g>
     </g>
    </g>
    <g id="ytick_2">
     <g id="line2d_10">
      <g>
       <use xlink:href="#mc4602d65a3" x="57.6" y="243.303484" style="stroke: #000000; stroke-width: 0.8"/>
      </g>
     </g>
     <g id="text_11">
      <!-- 500 -->
      <g transform="translate(31.5125 247.102702) scale(0.1 -0.1)">
       <use xlink:href="#DejaVuSans-35"/>
       <use xlink:href="#DejaVuSans-30" transform="translate(63.623047 0)"/>
       <use xlink:href="#DejaVuSans-30" transform="translate(127.246094 0)"/>
      </g>
     </g>
    </g>
    <g id="ytick_3">
     <g id="line2d_11">
      <g>
       <use xlink:href="#mc4602d65a3" x="57.6" y="204.923678" style="stroke: #000000; stroke-width: 0.8"/>
      </g>
     </g>
     <g id="text_12">
      <!-- 1000 -->
      <g transform="translate(25.15 208.722897) scale(0.1 -0.1)">
       <use xlink:href="#DejaVuSans-31"/>
       <use xlink:href="#DejaVuSans-30" transform="translate(63.623047 0)"/>
       <use xlink:href="#DejaVuSans-30" transform="translate(127.246094 0)"/>
       <use xlink:href="#DejaVuSans-30" transform="translate(190.869141 0)"/>
      </g>
     </g>
    </g>
    <g id="ytick_4">
     <g id="line2d_12">
      <g>
       <use xlink:href="#mc4602d65a3" x="57.6" y="166.543873" style="stroke: #000000; stroke-width: 0.8"/>
      </g>
     </g>
     <g id="text_13">
      <!-- 1500 -->
      <g transform="translate(25.15 170.343091) scale(0.1 -0.1)">
       <use xlink:href="#DejaVuSans-31"/>
       <use xlink:href="#DejaVuSans-35" transform="translate(63.623047 0)"/>
       <use xlink:href="#DejaVuSans-30" transform="translate(127.246094 0)"/>
       <use xlink:href="#DejaVuSans-30" transform="translate(190.869141 0)"/>
      </g>
     </g>
    </g>
    <g id="ytick_5">
     <g id="line2d_13">
      <g>
       <use xlink:href="#mc4602d65a3" x="57.6" y="128.164067" style="stroke: #000000; stroke-width: 0.8"/>
      </g>
     </g>
     <g id="text_14">
      <!-- 2000 -->
      <g transform="translate(25.15 131.963286) scale(0.1 -0.1)">
       <use xlink:href="#DejaVuSans-32"/>
       <use xlink:href="#DejaVuSans-30" transform="translate(63.623047 0)"/>
       <use xlink:href="#DejaVuSans-30" transform="translate(127.246094 0)"/>
       <use xlink:href="#DejaVuSans-30" transform="translate(190.869141 0)"/>
      </g>
     </g>
    </g>
    <g id="ytick_6">
     <g id="line2d_14">
      <g>
       <use xlink:href="#mc4602d65a3" x="57.6" y="89.784262" style="stroke: #000000; stroke-width: 0.8"/>
      </g>
     </g>
     <g id="text_15">
      <!-- 2500 -->
      <g transform="translate(25.15 93.583481) scale(0.1 -0.1)">
       <use xlink:href="#DejaVuSans-32"/>
       <use xlink:href="#DejaVuSans-35" transform="translate(63.623047 0)"/>
       <use xlink:href="#DejaVuSans-30" transform="translate(127.246094 0)"/>
       <use xlink:href="#DejaVuSans-30" transform="translate(190.869141 0)"/>
      </g>
     </g>
    </g>
    <g id="ytick_7">
     <g id="line2d_15">
      <g>
       <use xlink:href="#mc4602d65a3" x="57.6" y="51.404456" style="stroke: #000000; stroke-width: 0.8"/>
      </g>
     </g>
     <g id="text_16">
      <!-- 3000 -->
      <g transform="translate(25.15 55.203675) scale(0.1 -0.1)">
       <use xlink:href="#DejaVuSans-33"/>
       <use xlink:href="#DejaVuSans-30" transform="translate(63.623047 0)"/>
       <use xlink:href="#DejaVuSans-30" transform="translate(127.246094 0)"/>
       <use xlink:href="#DejaVuSans-30" transform="translate(190.869141 0)"/>
      </g>
     </g>
    </g>
    <g id="text_17">
     <!-- Stress [Pa] -->
     <g transform="translate(19.070312 201.235813) rotate(-90) scale(0.1 -0.1)">
      <defs>
       <path id="DejaVuSans-65" d="M 3597 1894 
L 3597 1613 
L 953 1613 
Q 991 1019 1311 708 
Q 1631 397 2203 397 
Q 2534 397 2845 478 
Q 3156 559 3463 722 
L 3463 178 
Q 3153 47 2828 -22 
Q 2503 -91 2169 -91 
Q 1331 -91 842 396 
Q 353 884 353 1716 
Q 353 2575 817 3079 
Q 1281 3584 2069 3584 
Q 2775 3584 3186 3129 
Q 3597 2675 3597 1894 
z
M 3022 2063 
Q 3016 2534 2758 2815 
Q 2500 3097 2075 3097 
Q 1594 3097 1305 2825 
Q 1016 2553 972 2059 
L 3022 2063 
z
" transform="scale(0.015625)"/>
       <path id="DejaVuSans-73" d="M 2834 3397 
L 2834 2853 
Q 2591 2978 2328 3040 
Q 2066 3103 1784 3103 
Q 1356 3103 1142 2972 
Q 928 2841 928 2578 
Q 928 2378 1081 2264 
Q 1234 2150 1697 2047 
L 1894 2003 
Q 2506 1872 2764 1633 
Q 3022 1394 3022 966 
Q 3022 478 2636 193 
Q 2250 -91 1575 -91 
Q 1294 -91 989 -36 
Q 684 19 347 128 
L 347 722 
Q 666 556 975 473 
Q 1284 391 1588 391 
Q 1994 391 2212 530 
Q 2431 669 2431 922 
Q 2431 1156 2273 1281 
Q 2116 1406 1581 1522 
L 1381 1569 
Q 847 1681 609 1914 
Q 372 2147 372 2553 
Q 372 3047 722 3315 
Q 1072 3584 1716 3584 
Q 2034 3584 2315 3537 
Q 2597 3491 2834 3397 
z
" transform="scale(0.015625)"/>
       <path id="DejaVuSans-20" transform="scale(0.015625)"/>
       <path id="DejaVuSans-5b" d="M 550 4863 
L 1875 4863 
L 1875 4416 
L 1125 4416 
L 1125 -397 
L 1875 -397 
L 1875 -844 
L 550 -844 
L 550 4863 
z
" transform="scale(0.015625)"/>
       <path id="DejaVuSans-50" d="M 1259 4147 
L 1259 2394 
L 2053 2394 
Q 2494 2394 2734 2622 
Q 2975 2850 2975 3272 
Q 2975 3691 2734 3919 
Q 2494 4147 2053 4147 
L 1259 4147 
z
M 628 4666 
L 2053 4666 
Q 2838 4666 3239 4311 
Q 3641 3956 3641 3272 
Q 3641 2581 3239 2228 
Q 2838 1875 2053 1875 
L 1259 1875 
L 1259 0 
L 628 0 
L 628 4666 
z
" transform="scale(0.015625)"/>
       <path id="DejaVuSans-5d" d="M 1947 4863 
L 1947 -844 
L 622 -844 
L 622 -397 
L 1369 -397 
L 1369 4416 
L 622 4416 
L 622 4863 
L 1947 4863 
z
" transform="scale(0.015625)"/>
      </defs>
      <use xlink:href="#DejaVuSans-53"/>
      <use xlink:href="#DejaVuSans-74" transform="translate(63.476562 0)"/>
      <use xlink:href="#DejaVuSans-72" transform="translate(102.685547 0)"/>
      <use xlink:href="#DejaVuSans-65" transform="translate(141.548828 0)"/>
      <use xlink:href="#DejaVuSans-73" transform="translate(203.072266 0)"/>
      <use xlink:href="#DejaVuSans-73" transform="translate(255.171875 0)"/>
      <use xlink:href="#DejaVuSans-20" transform="translate(307.271484 0)"/>
      <use xlink:href="#DejaVuSans-5b" transform="translate(339.058594 0)"/>
      <use xlink:href="#DejaVuSans-50" transform="translate(378.072266 0)"/>
      <use xlink:href="#DejaVuSans-61" transform="translate(433.875 0)"/>
      <use xlink:href="#DejaVuSans-5d" transform="translate(495.154297 0)"/>
     </g>
    </g>
   </g>
   <g id="line2d_16">
    <path d="M 73.909858 287.502957 
L 73.909858 287.524647 
L 73.909233 287.32432 
L 73.911642 287.376746 
L 74.128405 286.984178 
L 74.463915 284.793171 
L 74.824243 283.950386 
L 75.496131 284.206142 
L 75.82539 283.991396 
L 77.2875 282.079335 
L 77.630127 282.172522 
L 80.00129 283.811453 
L 80.863306 284.621523 
L 82.047154 285.80382 
L 82.466527 286.034971 
L 82.878472 285.955186 
L 83.683549 285.021637 
L 84.479713 284.075561 
L 84.87829 283.830094 
L 85.277362 283.8163 
L 85.676929 283.991676 
L 86.852361 285.067494 
L 87.228162 285.111059 
L 87.594556 284.893777 
L 89.335422 283.095576 
L 90.348946 282.17187 
L 91.0275 281.530002 
L 91.716717 281.218732 
L 92.413361 281.451001 
L 93.108519 281.751497 
L 93.792289 281.784007 
L 94.461205 281.48724 
L 97.855795 279.396447 
L 98.661862 279.114145 
L 99.872447 278.832365 
L 105.897646 276.076456 
L 109.158056 274.811989 
L 111.772326 273.830718 
L 118.38425 270.787288 
L 121.01882 269.772314 
L 122.330906 269.193543 
L 123.312248 268.757042 
L 129.206238 266.002773 
L 130.52278 265.459048 
L 135.426698 263.377585 
L 140.268548 261.111267 
L 142.680311 260.054984 
L 145.87883 258.666292 
L 148.66788 257.246432 
L 169.739489 247.384512 
L 173.081425 245.663299 
L 174.066728 245.219192 
L 175.710054 244.472502 
L 177.673727 243.498389 
L 183.550883 240.493285 
L 190.748542 236.877645 
L 192.387412 235.938131 
L 194.03668 235.148044 
L 197.004965 233.748167 
L 197.986307 233.24933 
L 199.288985 232.553492 
L 200.500066 231.914623 
L 203.295552 230.28792 
L 226.104306 217.525957 
L 227.716439 216.491298 
L 235.679069 211.859044 
L 239.611862 209.331601 
L 242.564303 207.597228 
L 244.754745 206.19571 
L 247.427935 204.362315 
L 250.715577 202.362193 
L 252.363359 201.310235 
L 254.3348 200.070542 
L 257.92744 197.673736 
L 275.100915 185.717146 
L 287.742495 176.192258 
L 292.173385 172.750354 
L 295.329076 170.131858 
L 296.958538 168.880961 
L 298.916765 167.298998 
L 302.510396 164.214706 
L 304.806794 162.341642 
L 320.079973 148.514672 
L 323.045288 145.595616 
L 327.009273 141.896911 
L 329.29775 139.609864 
L 330.756393 138.168082 
L 334.779175 134.072013 
L 338.391126 130.336623 
L 341.192058 127.305123 
L 346.804321 121.132969 
L 348.415959 119.312398 
L 361.028326 104.284341 
L 366.854979 96.858896 
L 375.712551 84.84491 
L 382.289321 75.340602 
L 385.246714 70.875074 
L 391.151102 61.92672 
L 393.130124 59.392715 
L 394.900698 57.447771 
L 396.675727 55.573216 
L 398.044815 53.911692 
L 398.328987 54.367375 
L 398.487273 58.734831 
L 398.395055 87.977575 
L 398.395581 94.976642 
L 398.06561 95.213142 
L 397.740714 95.746037 
L 397.411331 96.757301 
L 396.405852 97.868464 
L 395.364848 99.393311 
L 395.025067 99.779183 
L 394.687391 100.434159 
L 394.000155 102.444123 
L 391.668045 106.105247 
L 391.336124 107.309317 
L 390.659224 108.553056 
L 389.336988 110.519549 
L 387.031925 114.721211 
L 386.376748 115.879945 
L 385.707089 116.970677 
L 385.037925 117.972975 
L 384.036902 119.757531 
L 383.358455 120.92581 
L 382.36523 122.293325 
L 380.699376 124.943651 
L 379.708163 126.455123 
L 378.704231 128.027095 
L 377.708903 129.372315 
L 373.654866 135.122294 
L 372.678847 136.449917 
L 371.326717 138.291915 
L 366.334848 144.890588 
L 365.345337 146.07982 
L 364.348956 147.169508 
L 362.348582 149.689522 
L 357.406968 155.496617 
L 355.390038 157.768946 
L 348.750015 164.815156 
L 347.068781 166.615128 
L 342.763529 170.935292 
L 338.100796 175.463985 
L 337.42371 176.197254 
L 335.767263 177.655515 
L 332.756876 180.39886 
L 332.104423 180.961935 
L 330.4712 182.43865 
L 326.176594 186.086576 
L 325.176066 186.891651 
L 315.540433 194.765286 
L 314.548276 195.473109 
L 313.560065 196.362218 
L 304.890022 202.627718 
L 304.214917 203.153883 
L 302.886863 203.951911 
L 302.218194 204.580491 
L 300.886674 205.307012 
L 297.894746 207.355783 
L 296.581484 208.084335 
L 295.912877 208.672277 
L 294.258225 209.682591 
L 293.254912 210.417873 
L 291.298171 211.702622 
L 289.96778 212.494363 
L 287.317985 214.24598 
L 286.316839 214.874802 
L 285.325533 215.377014 
L 283.990794 216.16285 
L 283.331657 216.463821 
L 282.338463 217.25595 
L 279.015914 219.254394 
L 278.341675 219.443536 
L 277.679505 219.891931 
L 277.015973 220.552797 
L 275.682844 221.211352 
L 275.343806 221.568666 
L 274.337585 221.945665 
L 274.010151 222.039584 
L 273.343401 222.630304 
L 272.003278 223.061026 
L 271.334362 223.861156 
L 270.658266 224.087339 
L 270.325169 224.218666 
L 269.987307 224.21126 
L 269.653777 224.725607 
L 267.986933 225.26889 
L 267.658787 225.887329 
L 266.979906 226.011144 
L 265.989993 226.447119 
L 265.655349 227.019365 
L 264.984452 227.108437 
L 264.315784 227.380286 
L 263.32324 228.207627 
L 262.64504 228.423128 
L 262.315904 228.417671 
L 261.653053 229.171408 
L 260.981166 229.328539 
L 260.314168 229.533685 
L 259.980577 230.002976 
L 259.646056 230.171501 
L 259.310608 230.181488 
L 258.645776 230.42401 
L 258.316146 230.464788 
L 257.977293 231.141835 
L 256.297266 231.576905 
L 255.957547 232.234267 
L 254.605479 232.479897 
L 254.279005 232.682163 
L 253.946651 233.362565 
L 252.619464 233.460478 
L 252.293051 233.581897 
L 251.956117 234.346632 
L 251.629334 234.431771 
L 250.972176 234.441851 
L 250.297257 234.415945 
L 249.968245 235.082627 
L 249.629516 235.445785 
L 248.3014 235.446424 
L 247.648328 236.260241 
L 247.312013 236.246563 
L 246.640621 236.459948 
L 246.305482 236.394266 
L 245.633533 237.234633 
L 244.299352 237.400269 
L 243.634149 238.303489 
L 242.95991 238.294765 
L 242.626194 238.384476 
L 241.958392 238.380058 
L 241.622804 239.060982 
L 240.972269 239.123966 
L 240.30818 239.36425 
L 239.975331 239.343806 
L 239.640254 239.989163 
L 239.30691 240.139616 
L 238.652971 240.176306 
L 238.313933 240.277043 
L 237.977556 240.235669 
L 237.645636 240.79996 
L 237.305484 241.10664 
L 236.639043 241.213491 
L 236.298148 241.337566 
L 235.969508 241.227607 
L 235.308018 242.036974 
L 233.980088 242.251361 
L 233.318645 242.949691 
L 232.658641 243.088647 
L 231.650996 243.455983 
L 231.31858 243.864038 
L 230.663032 243.941804 
L 229.657739 244.321376 
L 229.324951 244.746608 
L 228.65554 244.797531 
L 227.323711 245.648612 
L 226.652937 245.563648 
L 225.995285 245.809781 
L 225.658166 246.185128 
L 225.327993 246.728185 
L 224.321957 246.672981 
L 223.992822 246.763983 
L 223.666719 246.98242 
L 223.329909 247.495723 
L 221.991581 247.515974 
L 221.656504 247.808436 
L 221.322479 248.381316 
L 220.326036 248.396597 
L 219.988855 248.360186 
L 219.664175 248.440734 
L 219.33015 249.127624 
L 218.991607 249.325078 
L 217.661758 249.187709 
L 217.329188 249.882053 
L 216.993554 250.224379 
L 215.989189 250.217701 
L 215.664324 250.040945 
L 214.995903 251.025991 
L 213.997541 251.103002 
L 213.663207 250.999236 
L 213.332895 251.14418 
L 212.999984 251.812503 
L 211.346199 251.989813 
L 211.011369 252.563961 
L 210.016969 252.850835 
L 209.68969 252.886649 
L 209.350404 252.788443 
L 208.685341 253.634731 
L 208.011349 253.615069 
L 207.679119 253.730397 
L 207.014968 253.696871 
L 206.678653 254.297489 
L 206.020073 254.444218 
L 205.355117 254.558442 
L 205.016884 254.494901 
L 204.353476 255.238553 
L 203.686052 255.306726 
L 202.682554 255.520035 
L 202.343887 255.938454 
L 200.663334 256.394482 
L 200.326524 256.755673 
L 199.013757 256.950665 
L 198.682641 256.99017 
L 198.354 257.452843 
L 198.018118 257.621728 
L 197.358238 257.662268 
L 196.365694 258.02722 
L 196.031236 258.430335 
L 194.706029 258.543657 
L 194.366991 258.635593 
L 194.035256 259.075897 
L 193.709215 259.243642 
L 193.035471 259.257434 
L 192.367027 259.426425 
L 191.713459 260.12806 
L 191.047761 260.050075 
L 190.372903 260.194085 
L 189.705658 260.82053 
L 189.043797 260.754773 
L 188.376675 260.840609 
L 188.048159 261.130805 
L 187.709554 261.672592 
L 187.378871 261.746814 
L 186.046547 261.593073 
L 185.385985 262.449318 
L 184.389071 262.493542 
L 183.724177 262.561612 
L 183.38582 263.123904 
L 183.04771 263.358037 
L 182.051144 263.220477 
L 181.71978 263.203197 
L 181.39213 263.424439 
L 181.065779 263.979871 
L 180.73095 264.061967 
L 180.072431 263.938714 
L 179.396768 263.984832 
L 178.733484 264.802247 
L 177.729243 264.776644 
L 177.397756 264.749088 
L 177.06206 264.930774 
L 176.734286 265.340284 
L 176.395789 265.51581 
L 175.067611 265.626086 
L 174.734577 266.014568 
L 174.401666 266.217076 
L 173.05752 266.311532 
L 172.392874 266.895029 
L 171.046315 267.1418 
L 170.372756 267.647339 
L 169.373838 267.710117 
L 169.048787 267.768217 
L 168.064715 268.321045 
L 166.732576 268.664779 
L 166.396013 269.018811 
L 165.727592 269.185883 
L 165.066474 269.206411 
L 164.734615 269.316773 
L 164.080676 269.666668 
L 162.732694 269.974086 
L 162.406157 270.263919 
L 161.739407 270.428794 
L 160.743893 270.681178 
L 160.072493 271.166463 
L 159.403329 271.21176 
L 158.739673 271.324438 
L 158.077936 271.760883 
L 156.760156 271.976891 
L 155.096716 272.671852 
L 150.789081 274.137794 
L 150.457408 274.362066 
L 148.79929 274.750526 
L 148.462232 275.087037 
L 147.810831 275.135637 
L 147.151446 275.215605 
L 146.81804 275.267442 
L 146.485624 275.644292 
L 146.152837 275.798712 
L 144.8306 275.717658 
L 144.16744 276.365662 
L 142.510111 276.546041 
L 142.173239 276.884117 
L 141.511069 277.07638 
L 140.848465 277.09306 
L 140.511717 277.196314 
L 140.179363 277.477422 
L 139.179826 277.637874 
L 138.524649 277.696105 
L 138.189634 278.046336 
L 137.521832 278.205475 
L 136.520685 278.301224 
L 136.183937 278.622113 
L 135.520568 278.820444 
L 134.525734 278.983407 
L 133.860221 279.426731 
L 132.211697 279.620983 
L 131.873896 279.904925 
L 129.222554 280.671491 
L 128.551904 280.844232 
L 127.221692 281.436972 
L 126.225744 281.620874 
L 123.894254 282.403011 
L 123.225214 282.426892 
L 122.5636 282.684961 
L 121.904834 283.040559 
L 120.584516 283.33695 
L 119.588913 283.643323 
L 118.254856 283.624678 
L 117.276052 283.994269 
L 116.272058 283.930585 
L 115.615582 284.231892 
L 115.283104 284.430718 
L 113.955421 284.647603 
L 112.96591 285.046526 
L 111.642189 285.252572 
L 110.986215 285.55538 
L 109.655438 285.867967 
L 109.328097 286.105716 
L 108.997724 286.196996 
L 108.010193 286.194773 
L 107.680563 286.237099 
L 107.013627 286.902495 
L 105.367639 287.02719 
L 104.713515 287.564969 
L 104.041875 287.509653 
L 103.040545 287.970002 
L 102.710543 288.199549 
L 102.042617 288.198602 
L 101.047164 288.486983 
L 100.718895 288.76496 
L 100.052331 288.801938 
L 99.394431 289.024879 
L 98.398854 289.469499 
L 97.722759 289.529567 
L 97.056999 289.802713 
L 96.718641 290.060819 
L 96.393962 290.162953 
L 95.712049 290.054046 
L 95.051706 290.207468 
L 94.390526 290.788886 
L 92.73346 290.862702 
L 92.070671 291.533671 
L 91.074847 291.431444 
L 90.74862 291.428583 
L 90.421589 291.569128 
L 90.096105 292.102713 
L 89.760161 292.239594 
L 89.098919 292.083618 
L 88.438606 291.982368 
L 88.103529 292.161414 
L 87.769875 292.757111 
L 87.430899 292.835061 
L 86.76524 292.612573 
L 86.104308 292.490846 
L 85.769169 292.65493 
L 85.435268 293.18844 
L 85.095178 293.288282 
L 84.770251 293.053478 
L 84.11594 292.993012 
L 83.788909 292.962257 
L 83.455751 293.085924 
L 83.128596 293.676626 
L 82.791662 293.914384 
L 82.460298 293.656913 
L 81.120609 293.412414 
L 80.469455 294.489276 
L 80.1423 294.41272 
L 79.803881 294.202429 
L 78.799758 294.033787 
L 78.465424 294.238669 
L 77.802202 295.1423 
L 77.118432 294.702373 
L 76.104597 294.534244 
L 75.444779 295.488 
L 75.112611 295.40617 
L 74.450441 294.93645 
L 74.11982 294.817762 
L 73.875722 294.616649 
L 73.850424 294.692705 
L 73.833118 293.220837 
L 73.833118 293.220837 
" clip-path="url(#pd10e3d2bc3)" style="fill: none; stroke: #ff0000; stroke-width: 1.5; stroke-linecap: square"/>
   </g>
   <g id="line2d_17">
    <path d="M 73.909858 287.502957 
L 73.909858 287.524647 
L 73.909233 287.32432 
L 73.911642 287.376746 
L 74.128405 286.984178 
L 74.463915 284.793171 
L 74.824243 283.950386 
L 75.496131 284.206142 
L 75.82539 283.991396 
L 76.189803 283.467356 
L 76.523519 287.12758 
L 76.888922 286.454709 
L 77.2875 286.031554 
L 77.99157 285.740883 
L 80.430565 285.464397 
L 82.047154 285.80382 
L 82.466527 286.034971 
L 82.878472 285.955186 
L 83.282991 285.439194 
L 84.081631 283.649046 
L 84.479713 283.083697 
L 84.87829 283.830094 
L 85.277362 283.8163 
L 85.676929 283.991676 
L 86.852361 285.067494 
L 87.228162 285.111059 
L 87.594556 284.893777 
L 89.335422 283.095576 
L 90.348946 282.17187 
L 91.0275 281.530002 
L 91.716717 281.218732 
L 92.413361 281.451001 
L 93.108519 281.751497 
L 93.792289 281.784007 
L 94.461205 281.48724 
L 97.855795 279.396447 
L 98.661862 279.114145 
L 99.872447 278.832365 
L 105.897646 276.076456 
L 109.158056 274.811989 
L 111.772326 273.830718 
L 118.38425 270.787288 
L 121.01882 269.772314 
L 122.330906 269.193543 
L 123.312248 268.757042 
L 129.206238 266.002773 
L 130.52278 265.459048 
L 135.426698 263.377585 
L 140.268548 261.111267 
L 142.680311 260.054984 
L 145.87883 258.666292 
L 148.66788 257.246432 
L 169.739489 247.384512 
L 173.081425 245.663299 
L 174.066728 245.219192 
L 175.710054 244.472502 
L 177.673727 243.498389 
L 183.550883 240.493285 
L 190.748542 236.877645 
L 192.387412 235.938131 
L 194.03668 235.148044 
L 197.004965 233.748167 
L 197.986307 233.24933 
L 199.288985 232.553492 
L 200.500066 231.914623 
L 203.295552 230.28792 
L 226.104306 217.525957 
L 227.716439 216.491298 
L 235.679069 211.859044 
L 239.611862 209.331601 
L 242.564303 207.597228 
L 244.754745 206.19571 
L 247.427935 204.362315 
L 250.715577 202.362193 
L 252.363359 201.310235 
L 254.3348 200.070542 
L 257.92744 197.673736 
L 275.100915 185.717146 
L 287.742495 176.192258 
L 292.173385 172.750354 
L 295.329076 170.131858 
L 296.958538 168.880961 
L 298.916765 167.298998 
L 302.510396 164.214706 
L 304.806794 162.341642 
L 320.079973 148.514672 
L 323.045288 145.595616 
L 327.009273 141.896911 
L 329.29775 139.609864 
L 330.756393 138.168082 
L 334.779175 134.072013 
L 338.391126 130.336623 
L 341.192058 127.305123 
L 346.804321 121.132969 
L 348.415959 119.312398 
L 361.028326 104.284341 
L 366.854979 96.858896 
L 375.712551 84.84491 
L 382.289321 75.340602 
L 385.246714 70.875074 
L 390.497534 62.565673 
L 395.277489 55.094482 
L 396.315523 53.973184 
L 396.675727 53.680965 
L 397.025534 53.568 
L 397.377075 53.819283 
L 397.714132 54.222044 
L 398.044815 53.823743 
L 398.328987 54.325092 
L 398.487273 58.68909 
L 398.396757 87.401265 
L 398.395581 94.976642 
L 398.06561 95.213142 
L 397.740714 95.746037 
L 397.411331 96.757301 
L 396.405852 97.868464 
L 395.364848 99.393311 
L 395.025067 99.779183 
L 394.687391 100.434159 
L 394.000155 102.444123 
L 391.668045 106.105247 
L 391.336124 107.309317 
L 390.659224 108.553056 
L 389.336988 110.519549 
L 387.031925 114.721211 
L 386.376748 115.879945 
L 385.707089 116.970677 
L 385.037925 117.972975 
L 384.036902 119.757531 
L 383.358455 120.92581 
L 382.36523 122.293325 
L 380.699376 124.943651 
L 379.708163 126.455123 
L 378.704231 128.027095 
L 377.708903 129.372315 
L 373.654866 135.122294 
L 372.678847 136.449917 
L 371.326717 138.291915 
L 366.334848 144.890588 
L 365.345337 146.07982 
L 364.348956 147.169508 
L 362.348582 149.689522 
L 357.406968 155.496617 
L 355.390038 157.768946 
L 348.750015 164.815156 
L 347.068781 166.615128 
L 342.763529 170.935292 
L 338.100796 175.463985 
L 337.42371 176.197254 
L 335.767263 177.655515 
L 332.756876 180.39886 
L 332.104423 180.961935 
L 330.4712 182.43865 
L 326.176594 186.086576 
L 325.176066 186.891651 
L 315.540433 194.765286 
L 314.548276 195.473109 
L 313.560065 196.362218 
L 304.890022 202.627718 
L 304.214917 203.153883 
L 302.886863 203.951911 
L 302.218194 204.580491 
L 300.886674 205.307012 
L 297.894746 207.355783 
L 296.581484 208.084335 
L 295.912877 208.672277 
L 294.258225 209.682591 
L 293.254912 210.417873 
L 291.298171 211.702622 
L 289.96778 212.494363 
L 287.317985 214.24598 
L 286.316839 214.874802 
L 285.325533 215.377014 
L 283.990794 216.16285 
L 283.331657 216.463821 
L 282.338463 217.25595 
L 279.015914 219.254394 
L 278.341675 219.443536 
L 277.679505 219.891931 
L 277.015973 220.552797 
L 275.682844 221.211352 
L 275.343806 221.568666 
L 274.337585 221.945665 
L 274.010151 222.039584 
L 273.343401 222.630304 
L 272.003278 223.061026 
L 271.334362 223.861156 
L 270.658266 224.087339 
L 270.325169 224.218666 
L 269.987307 224.21126 
L 269.653777 224.725607 
L 267.986933 225.26889 
L 267.658787 225.887329 
L 266.979906 226.011144 
L 265.989993 226.447119 
L 265.655349 227.019365 
L 264.984452 227.108437 
L 264.315784 227.380286 
L 263.32324 228.207627 
L 262.64504 228.423128 
L 262.315904 228.417671 
L 261.653053 229.171408 
L 260.981166 229.328539 
L 260.314168 229.533685 
L 259.980577 230.002976 
L 259.646056 230.171501 
L 259.310608 230.181488 
L 258.645776 230.42401 
L 258.316146 230.464788 
L 257.977293 231.141835 
L 256.297266 231.576905 
L 255.957547 232.234267 
L 254.605479 232.479897 
L 254.279005 232.682163 
L 253.946651 233.362565 
L 252.619464 233.460478 
L 252.293051 233.581897 
L 251.956117 234.346632 
L 251.629334 234.431771 
L 250.972176 234.441851 
L 250.297257 234.415945 
L 249.968245 235.082627 
L 249.629516 235.445785 
L 248.3014 235.446424 
L 247.648328 236.260241 
L 247.312013 236.246563 
L 246.640621 236.459948 
L 246.305482 236.394266 
L 245.633533 237.234633 
L 244.299352 237.400269 
L 243.634149 238.303489 
L 242.95991 238.294765 
L 242.626194 238.384476 
L 241.958392 238.380058 
L 241.622804 239.060982 
L 240.972269 239.123966 
L 240.30818 239.36425 
L 239.975331 239.343806 
L 239.640254 239.989163 
L 239.30691 240.139616 
L 238.652971 240.176306 
L 238.313933 240.277043 
L 237.977556 240.235669 
L 237.645636 240.79996 
L 237.305484 241.10664 
L 236.639043 241.213491 
L 236.298148 241.337566 
L 235.969508 241.227607 
L 235.308018 242.036974 
L 233.980088 242.251361 
L 233.318645 242.949691 
L 232.658641 243.088647 
L 231.650996 243.455983 
L 231.31858 243.864038 
L 230.663032 243.941804 
L 229.657739 244.321376 
L 229.324951 244.746608 
L 228.65554 244.797531 
L 227.323711 245.648612 
L 226.652937 245.563648 
L 225.995285 245.809781 
L 225.658166 246.185128 
L 225.327993 246.728185 
L 224.321957 246.672981 
L 223.992822 246.763983 
L 223.666719 246.98242 
L 223.329909 247.495723 
L 221.991581 247.515974 
L 221.656504 247.808436 
L 221.322479 248.381316 
L 220.326036 248.396597 
L 219.988855 248.360186 
L 219.664175 248.440734 
L 219.33015 249.127624 
L 218.991607 249.325078 
L 217.661758 249.187709 
L 217.329188 249.882053 
L 216.993554 250.224379 
L 215.989189 250.217701 
L 215.664324 250.040945 
L 214.995903 251.025991 
L 213.997541 251.103002 
L 213.663207 250.999236 
L 213.332895 251.14418 
L 212.999984 251.812503 
L 211.346199 251.989813 
L 211.011369 252.563961 
L 210.016969 252.850835 
L 209.68969 252.886649 
L 209.350404 252.788443 
L 208.685341 253.634731 
L 208.011349 253.615069 
L 207.679119 253.730397 
L 207.014968 253.696871 
L 206.678653 254.297489 
L 206.020073 254.444218 
L 205.355117 254.558442 
L 205.016884 254.494901 
L 204.353476 255.238553 
L 203.686052 255.306726 
L 202.682554 255.520035 
L 202.343887 255.938454 
L 200.663334 256.394482 
L 200.326524 256.755673 
L 199.013757 256.950665 
L 198.682641 256.99017 
L 198.354 257.452843 
L 198.018118 257.621728 
L 197.358238 257.662268 
L 196.365694 258.02722 
L 196.031236 258.430335 
L 194.706029 258.543657 
L 194.366991 258.635593 
L 194.035256 259.075897 
L 193.709215 259.243642 
L 193.035471 259.257434 
L 192.367027 259.426425 
L 191.713459 260.12806 
L 191.047761 260.050075 
L 190.372903 260.194085 
L 189.705658 260.82053 
L 189.043797 260.754773 
L 188.376675 260.840609 
L 188.048159 261.130805 
L 187.709554 261.672592 
L 187.378871 261.746814 
L 186.046547 261.593073 
L 185.385985 262.449318 
L 184.389071 262.493542 
L 183.724177 262.561612 
L 183.38582 263.123904 
L 183.04771 263.358037 
L 182.051144 263.220477 
L 181.71978 263.203197 
L 181.39213 263.424439 
L 181.065779 263.979871 
L 180.73095 264.061967 
L 180.072431 263.938714 
L 179.396768 263.984832 
L 178.733484 264.802247 
L 177.729243 264.776644 
L 177.397756 264.749088 
L 177.06206 264.930774 
L 176.734286 265.340284 
L 176.395789 265.51581 
L 175.067611 265.626086 
L 174.734577 266.014568 
L 174.401666 266.217076 
L 173.05752 266.311532 
L 172.392874 266.895029 
L 171.046315 267.1418 
L 170.372756 267.647339 
L 169.373838 267.710117 
L 169.048787 267.768217 
L 168.064715 268.321045 
L 166.732576 268.664779 
L 166.396013 269.018811 
L 165.727592 269.185883 
L 165.066474 269.206411 
L 164.734615 269.316773 
L 164.080676 269.666668 
L 162.732694 269.974086 
L 162.406157 270.263919 
L 161.739407 270.428794 
L 160.743893 270.681178 
L 160.072493 271.166463 
L 159.403329 271.21176 
L 158.739673 271.324438 
L 158.077936 271.760883 
L 156.760156 271.976891 
L 155.096716 272.671852 
L 150.789081 274.137794 
L 150.457408 274.362066 
L 148.79929 274.750526 
L 148.462232 275.087037 
L 147.810831 275.135637 
L 147.151446 275.215605 
L 146.81804 275.267442 
L 146.485624 275.644292 
L 146.152837 275.798712 
L 144.8306 275.717658 
L 144.16744 276.365662 
L 142.510111 276.546041 
L 142.173239 276.884117 
L 141.511069 277.07638 
L 140.848465 277.09306 
L 140.511717 277.196314 
L 140.179363 277.477422 
L 139.179826 277.637874 
L 138.524649 277.696105 
L 138.189634 278.046336 
L 137.521832 278.205475 
L 136.520685 278.301224 
L 136.183937 278.622113 
L 135.520568 278.820444 
L 134.525734 278.983407 
L 133.860221 279.426731 
L 132.211697 279.620983 
L 131.873896 279.904925 
L 129.222554 280.671491 
L 128.551904 280.844232 
L 127.221692 281.436972 
L 126.225744 281.620874 
L 123.894254 282.403011 
L 123.225214 282.426892 
L 122.5636 282.684961 
L 121.904834 283.040559 
L 120.584516 283.33695 
L 119.588913 283.643323 
L 118.254856 283.624678 
L 117.276052 283.994269 
L 116.272058 283.930585 
L 115.615582 284.231892 
L 115.283104 284.430718 
L 113.955421 284.647603 
L 112.96591 285.046526 
L 111.642189 285.252572 
L 110.986215 285.55538 
L 109.655438 285.867967 
L 109.328097 286.105716 
L 108.997724 286.196996 
L 108.010193 286.194773 
L 107.680563 286.237099 
L 107.013627 286.902495 
L 105.367639 287.02719 
L 104.713515 287.564969 
L 104.041875 287.509653 
L 103.040545 287.970002 
L 102.710543 288.199549 
L 102.042617 288.198602 
L 101.047164 288.486983 
L 100.718895 288.76496 
L 100.052331 288.801938 
L 99.394431 289.024879 
L 98.398854 289.469499 
L 97.722759 289.529567 
L 97.056999 289.802713 
L 96.718641 290.060819 
L 96.393962 290.162953 
L 95.712049 290.054046 
L 95.051706 290.207468 
L 94.390526 290.788886 
L 92.73346 290.862702 
L 92.070671 291.533671 
L 91.074847 291.431444 
L 90.74862 291.428583 
L 90.421589 291.569128 
L 90.096105 292.102713 
L 89.760161 292.239594 
L 89.098919 292.083618 
L 88.438606 291.982368 
L 88.103529 292.161414 
L 87.769875 292.757111 
L 87.430899 292.835061 
L 86.76524 292.612573 
L 86.104308 292.490846 
L 85.769169 292.65493 
L 85.435268 293.18844 
L 85.095178 293.288282 
L 84.770251 293.053478 
L 84.11594 292.993012 
L 83.788909 292.962257 
L 83.455751 293.085924 
L 83.128596 293.676626 
L 82.791662 293.914384 
L 82.460298 293.656913 
L 81.120609 293.412414 
L 80.469455 294.489276 
L 80.1423 294.41272 
L 79.803881 294.202429 
L 78.799758 294.033787 
L 78.465424 294.238669 
L 77.802202 295.1423 
L 77.118432 294.702373 
L 76.104597 294.534244 
L 75.444779 295.488 
L 75.112611 295.40617 
L 74.450441 294.93645 
L 74.11982 294.817762 
L 73.875722 294.616649 
L 73.850424 294.692705 
L 73.833118 293.220837 
L 73.833118 293.220837 
" clip-path="url(#pd10e3d2bc3)" style="fill: none; stroke: #000000; stroke-width: 1.5; stroke-linecap: square"/>
   </g>
   <g id="patch_3">
    <path d="M 57.6 307.584 
L 57.6 41.472 
" style="fill: none; stroke: #000000; stroke-width: 0.8; stroke-linejoin: miter; stroke-linecap: square"/>
   </g>
   <g id="patch_4">
    <path d="M 414.72 307.584 
L 414.72 41.472 
" style="fill: none; stroke: #000000; stroke-width: 0.8; stroke-linejoin: miter; stroke-linecap: square"/>
   </g>
   <g id="patch_5">
    <path d="M 57.6 307.584 
L 414.72 307.584 
" style="fill: none; stroke: #000000; stroke-width: 0.8; stroke-linejoin: miter; stroke-linecap: square"/>
   </g>
   <g id="patch_6">
    <path d="M 57.6 41.472 
L 414.72 41.472 
" style="fill: none; stroke: #000000; stroke-width: 0.8; stroke-linejoin: miter; stroke-linecap: square"/>
   </g>
   <g id="text_18">
    <!-- 2025-06-16 trial 26 -->
    <g transform="translate(178.0125 35.472) scale(0.12 -0.12)">
     <defs>
      <path id="DejaVuSans-2d" d="M 313 2009 
L 1997 2009 
L 1997 1497 
L 313 1497 
L 313 2009 
z
" transform="scale(0.015625)"/>
      <path id="DejaVuSans-36" d="M 2113 2584 
Q 1688 2584 1439 2293 
Q 1191 2003 1191 1497 
Q 1191 994 1439 701 
Q 1688 409 2113 409 
Q 2538 409 2786 701 
Q 3034 994 3034 1497 
Q 3034 2003 2786 2293 
Q 2538 2584 2113 2584 
z
M 3366 4563 
L 3366 3988 
Q 3128 4100 2886 4159 
Q 2644 4219 2406 4219 
Q 1781 4219 1451 3797 
Q 1122 3375 1075 2522 
Q 1259 2794 1537 2939 
Q 1816 3084 2150 3084 
Q 2853 3084 3261 2657 
Q 3669 2231 3669 1497 
Q 3669 778 3244 343 
Q 2819 -91 2113 -91 
Q 1303 -91 875 529 
Q 447 1150 447 2328 
Q 447 3434 972 4092 
Q 1497 4750 2381 4750 
Q 2619 4750 2861 4703 
Q 3103 4656 3366 4563 
z
" transform="scale(0.015625)"/>
      <path id="DejaVuSans-6c" d="M 603 4863 
L 1178 4863 
L 1178 0 
L 603 0 
L 603 4863 
z
" transform="scale(0.015625)"/>
     </defs>
     <use xlink:href="#DejaVuSans-32"/>
     <use xlink:href="#DejaVuSans-30" transform="translate(63.623047 0)"/>
     <use xlink:href="#DejaVuSans-32" transform="translate(127.246094 0)"/>
     <use xlink:href="#DejaVuSans-35" transform="translate(190.869141 0)"/>
     <use xlink:href="#DejaVuSans-2d" transform="translate(254.492188 0)"/>
     <use xlink:href="#DejaVuSans-30" transform="translate(290.576172 0)"/>
     <use xlink:href="#DejaVuSans-36" transform="translate(354.199219 0)"/>
     <use xlink:href="#DejaVuSans-2d" transform="translate(417.822266 0)"/>
     <use xlink:href="#DejaVuSans-31" transform="translate(453.90625 0)"/>
     <use xlink:href="#DejaVuSans-36" transform="translate(517.529297 0)"/>
     <use xlink:href="#DejaVuSans-20" transform="translate(581.152344 0)"/>
     <use xlink:href="#DejaVuSans-74" transform="translate(612.939453 0)"/>
     <use xlink:href="#DejaVuSans-72" transform="translate(652.148438 0)"/>
     <use xlink:href="#DejaVuSans-69" transform="translate(693.261719 0)"/>
     <use xlink:href="#DejaVuSans-61" transform="translate(721.044922 0)"/>
     <use xlink:href="#DejaVuSans-6c" transform="translate(782.324219 0)"/>
     <use xlink:href="#DejaVuSans-20" transform="translate(810.107422 0)"/>
     <use xlink:href="#DejaVuSans-32" transform="translate(841.894531 0)"/>
     <use xlink:href="#DejaVuSans-36" transform="translate(905.517578 0)"/>
    </g>
   </g>
  </g>
 </g>
 <defs>
  <clipPath id="pd10e3d2bc3">
   <rect x="57.6" y="41.472" width="357.12" height="266.112"/>
  </clipPath>
 </defs>
</svg>
