<?xml version="1.0" encoding="utf-8" standalone="no"?>
<!DOCTYPE svg PUBLIC "-//W3C//DTD SVG 1.1//EN"
  "http://www.w3.org/Graphics/SVG/1.1/DTD/svg11.dtd">
<svg xmlns:xlink="http://www.w3.org/1999/xlink" width="460.8pt" height="345.6pt" viewBox="0 0 460.8 345.6" xmlns="http://www.w3.org/2000/svg" version="1.1">
 <metadata>
  <rdf:RDF xmlns:dc="http://purl.org/dc/elements/1.1/" xmlns:cc="http://creativecommons.org/ns#" xmlns:rdf="http://www.w3.org/1999/02/22-rdf-syntax-ns#">
   <cc:Work>
    <dc:type rdf:resource="http://purl.org/dc/dcmitype/StillImage"/>
    <dc:date>2025-07-14T21:34:39.956151</dc:date>
    <dc:format>image/svg+xml</dc:format>
    <dc:creator>
     <cc:Agent>
      <dc:title>Matplotlib v3.10.3, https://matplotlib.org/</dc:title>
     </cc:Agent>
    </dc:creator>
   </cc:Work>
  </rdf:RDF>
 </metadata>
 <defs>
  <style type="text/css">*{stroke-linejoin: round; stroke-linecap: butt}</style>
 </defs>
 <g id="figure_1">
  <g id="patch_1">
   <path d="M 0 345.6 
L 460.8 345.6 
L 460.8 0 
L 0 0 
z
" style="fill: #ffffff"/>
  </g>
  <g id="axes_1">
   <g id="patch_2">
    <path d="M 57.6 307.584 
L 414.72 307.584 
L 414.72 41.472 
L 57.6 41.472 
z
" style="fill: #ffffff"/>
   </g>
   <g id="matplotlib.axis_1">
    <g id="xtick_1">
     <g id="line2d_1">
      <defs>
       <path id="m001f676598" d="M 0 0 
L 0 3.5 
" style="stroke: #000000; stroke-width: 0.8"/>
      </defs>
      <g>
       <use xlink:href="#m001f676598" x="73.904254" y="307.584" style="stroke: #000000; stroke-width: 0.8"/>
      </g>
     </g>
     <g id="text_1">
      <!-- 0.00 -->
      <g transform="translate(62.771441 322.182437) scale(0.1 -0.1)">
       <defs>
        <path id="DejaVuSans-30" d="M 2034 4250 
Q 1547 4250 1301 3770 
Q 1056 3291 1056 2328 
Q 1056 1369 1301 889 
Q 1547 409 2034 409 
Q 2525 409 2770 889 
Q 3016 1369 3016 2328 
Q 3016 3291 2770 3770 
Q 2525 4250 2034 4250 
z
M 2034 4750 
Q 2819 4750 3233 4129 
Q 3647 3509 3647 2328 
Q 3647 1150 3233 529 
Q 2819 -91 2034 -91 
Q 1250 -91 836 529 
Q 422 1150 422 2328 
Q 422 3509 836 4129 
Q 1250 4750 2034 4750 
z
" transform="scale(0.015625)"/>
        <path id="DejaVuSans-2e" d="M 684 794 
L 1344 794 
L 1344 0 
L 684 0 
L 684 794 
z
" transform="scale(0.015625)"/>
       </defs>
       <use xlink:href="#DejaVuSans-30"/>
       <use xlink:href="#DejaVuSans-2e" transform="translate(63.623047 0)"/>
       <use xlink:href="#DejaVuSans-30" transform="translate(95.410156 0)"/>
       <use xlink:href="#DejaVuSans-30" transform="translate(159.033203 0)"/>
      </g>
     </g>
    </g>
    <g id="xtick_2">
     <g id="line2d_2">
      <g>
       <use xlink:href="#m001f676598" x="117.706899" y="307.584" style="stroke: #000000; stroke-width: 0.8"/>
      </g>
     </g>
     <g id="text_2">
      <!-- 0.05 -->
      <g transform="translate(106.574087 322.182437) scale(0.1 -0.1)">
       <defs>
        <path id="DejaVuSans-35" d="M 691 4666 
L 3169 4666 
L 3169 4134 
L 1269 4134 
L 1269 2991 
Q 1406 3038 1543 3061 
Q 1681 3084 1819 3084 
Q 2600 3084 3056 2656 
Q 3513 2228 3513 1497 
Q 3513 744 3044 326 
Q 2575 -91 1722 -91 
Q 1428 -91 1123 -41 
Q 819 9 494 109 
L 494 744 
Q 775 591 1075 516 
Q 1375 441 1709 441 
Q 2250 441 2565 725 
Q 2881 1009 2881 1497 
Q 2881 1984 2565 2268 
Q 2250 2553 1709 2553 
Q 1456 2553 1204 2497 
Q 953 2441 691 2322 
L 691 4666 
z
" transform="scale(0.015625)"/>
       </defs>
       <use xlink:href="#DejaVuSans-30"/>
       <use xlink:href="#DejaVuSans-2e" transform="translate(63.623047 0)"/>
       <use xlink:href="#DejaVuSans-30" transform="translate(95.410156 0)"/>
       <use xlink:href="#DejaVuSans-35" transform="translate(159.033203 0)"/>
      </g>
     </g>
    </g>
    <g id="xtick_3">
     <g id="line2d_3">
      <g>
       <use xlink:href="#m001f676598" x="161.509545" y="307.584" style="stroke: #000000; stroke-width: 0.8"/>
      </g>
     </g>
     <g id="text_3">
      <!-- 0.10 -->
      <g transform="translate(150.376732 322.182437) scale(0.1 -0.1)">
       <defs>
        <path id="DejaVuSans-31" d="M 794 531 
L 1825 531 
L 1825 4091 
L 703 3866 
L 703 4441 
L 1819 4666 
L 2450 4666 
L 2450 531 
L 3481 531 
L 3481 0 
L 794 0 
L 794 531 
z
" transform="scale(0.015625)"/>
       </defs>
       <use xlink:href="#DejaVuSans-30"/>
       <use xlink:href="#DejaVuSans-2e" transform="translate(63.623047 0)"/>
       <use xlink:href="#DejaVuSans-31" transform="translate(95.410156 0)"/>
       <use xlink:href="#DejaVuSans-30" transform="translate(159.033203 0)"/>
      </g>
     </g>
    </g>
    <g id="xtick_4">
     <g id="line2d_4">
      <g>
       <use xlink:href="#m001f676598" x="205.312191" y="307.584" style="stroke: #000000; stroke-width: 0.8"/>
      </g>
     </g>
     <g id="text_4">
      <!-- 0.15 -->
      <g transform="translate(194.179378 322.182437) scale(0.1 -0.1)">
       <use xlink:href="#DejaVuSans-30"/>
       <use xlink:href="#DejaVuSans-2e" transform="translate(63.623047 0)"/>
       <use xlink:href="#DejaVuSans-31" transform="translate(95.410156 0)"/>
       <use xlink:href="#DejaVuSans-35" transform="translate(159.033203 0)"/>
      </g>
     </g>
    </g>
    <g id="xtick_5">
     <g id="line2d_5">
      <g>
       <use xlink:href="#m001f676598" x="249.114836" y="307.584" style="stroke: #000000; stroke-width: 0.8"/>
      </g>
     </g>
     <g id="text_5">
      <!-- 0.20 -->
      <g transform="translate(237.982024 322.182437) scale(0.1 -0.1)">
       <defs>
        <path id="DejaVuSans-32" d="M 1228 531 
L 3431 531 
L 3431 0 
L 469 0 
L 469 531 
Q 828 903 1448 1529 
Q 2069 2156 2228 2338 
Q 2531 2678 2651 2914 
Q 2772 3150 2772 3378 
Q 2772 3750 2511 3984 
Q 2250 4219 1831 4219 
Q 1534 4219 1204 4116 
Q 875 4013 500 3803 
L 500 4441 
Q 881 4594 1212 4672 
Q 1544 4750 1819 4750 
Q 2544 4750 2975 4387 
Q 3406 4025 3406 3419 
Q 3406 3131 3298 2873 
Q 3191 2616 2906 2266 
Q 2828 2175 2409 1742 
Q 1991 1309 1228 531 
z
" transform="scale(0.015625)"/>
       </defs>
       <use xlink:href="#DejaVuSans-30"/>
       <use xlink:href="#DejaVuSans-2e" transform="translate(63.623047 0)"/>
       <use xlink:href="#DejaVuSans-32" transform="translate(95.410156 0)"/>
       <use xlink:href="#DejaVuSans-30" transform="translate(159.033203 0)"/>
      </g>
     </g>
    </g>
    <g id="xtick_6">
     <g id="line2d_6">
      <g>
       <use xlink:href="#m001f676598" x="292.917482" y="307.584" style="stroke: #000000; stroke-width: 0.8"/>
      </g>
     </g>
     <g id="text_6">
      <!-- 0.25 -->
      <g transform="translate(281.78467 322.182437) scale(0.1 -0.1)">
       <use xlink:href="#DejaVuSans-30"/>
       <use xlink:href="#DejaVuSans-2e" transform="translate(63.623047 0)"/>
       <use xlink:href="#DejaVuSans-32" transform="translate(95.410156 0)"/>
       <use xlink:href="#DejaVuSans-35" transform="translate(159.033203 0)"/>
      </g>
     </g>
    </g>
    <g id="xtick_7">
     <g id="line2d_7">
      <g>
       <use xlink:href="#m001f676598" x="336.720128" y="307.584" style="stroke: #000000; stroke-width: 0.8"/>
      </g>
     </g>
     <g id="text_7">
      <!-- 0.30 -->
      <g transform="translate(325.587315 322.182437) scale(0.1 -0.1)">
       <defs>
        <path id="DejaVuSans-33" d="M 2597 2516 
Q 3050 2419 3304 2112 
Q 3559 1806 3559 1356 
Q 3559 666 3084 287 
Q 2609 -91 1734 -91 
Q 1441 -91 1130 -33 
Q 819 25 488 141 
L 488 750 
Q 750 597 1062 519 
Q 1375 441 1716 441 
Q 2309 441 2620 675 
Q 2931 909 2931 1356 
Q 2931 1769 2642 2001 
Q 2353 2234 1838 2234 
L 1294 2234 
L 1294 2753 
L 1863 2753 
Q 2328 2753 2575 2939 
Q 2822 3125 2822 3475 
Q 2822 3834 2567 4026 
Q 2313 4219 1838 4219 
Q 1578 4219 1281 4162 
Q 984 4106 628 3988 
L 628 4550 
Q 988 4650 1302 4700 
Q 1616 4750 1894 4750 
Q 2613 4750 3031 4423 
Q 3450 4097 3450 3541 
Q 3450 3153 3228 2886 
Q 3006 2619 2597 2516 
z
" transform="scale(0.015625)"/>
       </defs>
       <use xlink:href="#DejaVuSans-30"/>
       <use xlink:href="#DejaVuSans-2e" transform="translate(63.623047 0)"/>
       <use xlink:href="#DejaVuSans-33" transform="translate(95.410156 0)"/>
       <use xlink:href="#DejaVuSans-30" transform="translate(159.033203 0)"/>
      </g>
     </g>
    </g>
    <g id="xtick_8">
     <g id="line2d_8">
      <g>
       <use xlink:href="#m001f676598" x="380.522773" y="307.584" style="stroke: #000000; stroke-width: 0.8"/>
      </g>
     </g>
     <g id="text_8">
      <!-- 0.35 -->
      <g transform="translate(369.389961 322.182437) scale(0.1 -0.1)">
       <use xlink:href="#DejaVuSans-30"/>
       <use xlink:href="#DejaVuSans-2e" transform="translate(63.623047 0)"/>
       <use xlink:href="#DejaVuSans-33" transform="translate(95.410156 0)"/>
       <use xlink:href="#DejaVuSans-35" transform="translate(159.033203 0)"/>
      </g>
     </g>
    </g>
    <g id="text_9">
     <!-- Strain -->
     <g transform="translate(221.348281 335.860562) scale(0.1 -0.1)">
      <defs>
       <path id="DejaVuSans-53" d="M 3425 4513 
L 3425 3897 
Q 3066 4069 2747 4153 
Q 2428 4238 2131 4238 
Q 1616 4238 1336 4038 
Q 1056 3838 1056 3469 
Q 1056 3159 1242 3001 
Q 1428 2844 1947 2747 
L 2328 2669 
Q 3034 2534 3370 2195 
Q 3706 1856 3706 1288 
Q 3706 609 3251 259 
Q 2797 -91 1919 -91 
Q 1588 -91 1214 -16 
Q 841 59 441 206 
L 441 856 
Q 825 641 1194 531 
Q 1563 422 1919 422 
Q 2459 422 2753 634 
Q 3047 847 3047 1241 
Q 3047 1584 2836 1778 
Q 2625 1972 2144 2069 
L 1759 2144 
Q 1053 2284 737 2584 
Q 422 2884 422 3419 
Q 422 4038 858 4394 
Q 1294 4750 2059 4750 
Q 2388 4750 2728 4690 
Q 3069 4631 3425 4513 
z
" transform="scale(0.015625)"/>
       <path id="DejaVuSans-74" d="M 1172 4494 
L 1172 3500 
L 2356 3500 
L 2356 3053 
L 1172 3053 
L 1172 1153 
Q 1172 725 1289 603 
Q 1406 481 1766 481 
L 2356 481 
L 2356 0 
L 1766 0 
Q 1100 0 847 248 
Q 594 497 594 1153 
L 594 3053 
L 172 3053 
L 172 3500 
L 594 3500 
L 594 4494 
L 1172 4494 
z
" transform="scale(0.015625)"/>
       <path id="DejaVuSans-72" d="M 2631 2963 
Q 2534 3019 2420 3045 
Q 2306 3072 2169 3072 
Q 1681 3072 1420 2755 
Q 1159 2438 1159 1844 
L 1159 0 
L 581 0 
L 581 3500 
L 1159 3500 
L 1159 2956 
Q 1341 3275 1631 3429 
Q 1922 3584 2338 3584 
Q 2397 3584 2469 3576 
Q 2541 3569 2628 3553 
L 2631 2963 
z
" transform="scale(0.015625)"/>
       <path id="DejaVuSans-61" d="M 2194 1759 
Q 1497 1759 1228 1600 
Q 959 1441 959 1056 
Q 959 750 1161 570 
Q 1363 391 1709 391 
Q 2188 391 2477 730 
Q 2766 1069 2766 1631 
L 2766 1759 
L 2194 1759 
z
M 3341 1997 
L 3341 0 
L 2766 0 
L 2766 531 
Q 2569 213 2275 61 
Q 1981 -91 1556 -91 
Q 1019 -91 701 211 
Q 384 513 384 1019 
Q 384 1609 779 1909 
Q 1175 2209 1959 2209 
L 2766 2209 
L 2766 2266 
Q 2766 2663 2505 2880 
Q 2244 3097 1772 3097 
Q 1472 3097 1187 3025 
Q 903 2953 641 2809 
L 641 3341 
Q 956 3463 1253 3523 
Q 1550 3584 1831 3584 
Q 2591 3584 2966 3190 
Q 3341 2797 3341 1997 
z
" transform="scale(0.015625)"/>
       <path id="DejaVuSans-69" d="M 603 3500 
L 1178 3500 
L 1178 0 
L 603 0 
L 603 3500 
z
M 603 4863 
L 1178 4863 
L 1178 4134 
L 603 4134 
L 603 4863 
z
" transform="scale(0.015625)"/>
       <path id="DejaVuSans-6e" d="M 3513 2113 
L 3513 0 
L 2938 0 
L 2938 2094 
Q 2938 2591 2744 2837 
Q 2550 3084 2163 3084 
Q 1697 3084 1428 2787 
Q 1159 2491 1159 1978 
L 1159 0 
L 581 0 
L 581 3500 
L 1159 3500 
L 1159 2956 
Q 1366 3272 1645 3428 
Q 1925 3584 2291 3584 
Q 2894 3584 3203 3211 
Q 3513 2838 3513 2113 
z
" transform="scale(0.015625)"/>
      </defs>
      <use xlink:href="#DejaVuSans-53"/>
      <use xlink:href="#DejaVuSans-74" transform="translate(63.476562 0)"/>
      <use xlink:href="#DejaVuSans-72" transform="translate(102.685547 0)"/>
      <use xlink:href="#DejaVuSans-61" transform="translate(143.798828 0)"/>
      <use xlink:href="#DejaVuSans-69" transform="translate(205.078125 0)"/>
      <use xlink:href="#DejaVuSans-6e" transform="translate(232.861328 0)"/>
     </g>
    </g>
   </g>
   <g id="matplotlib.axis_2">
    <g id="ytick_1">
     <g id="line2d_9">
      <defs>
       <path id="m07a62088a9" d="M 0 0 
L -3.5 0 
" style="stroke: #000000; stroke-width: 0.8"/>
      </defs>
      <g>
       <use xlink:href="#m07a62088a9" x="57.6" y="283.277116" style="stroke: #000000; stroke-width: 0.8"/>
      </g>
     </g>
     <g id="text_10">
      <!-- 0 -->
      <g transform="translate(44.2375 287.076334) scale(0.1 -0.1)">
       <use xlink:href="#DejaVuSans-30"/>
      </g>
     </g>
    </g>
    <g id="ytick_2">
     <g id="line2d_10">
      <g>
       <use xlink:href="#m07a62088a9" x="57.6" y="245.555273" style="stroke: #000000; stroke-width: 0.8"/>
      </g>
     </g>
     <g id="text_11">
      <!-- 500 -->
      <g transform="translate(31.5125 249.354492) scale(0.1 -0.1)">
       <use xlink:href="#DejaVuSans-35"/>
       <use xlink:href="#DejaVuSans-30" transform="translate(63.623047 0)"/>
       <use xlink:href="#DejaVuSans-30" transform="translate(127.246094 0)"/>
      </g>
     </g>
    </g>
    <g id="ytick_3">
     <g id="line2d_11">
      <g>
       <use xlink:href="#m07a62088a9" x="57.6" y="207.833431" style="stroke: #000000; stroke-width: 0.8"/>
      </g>
     </g>
     <g id="text_12">
      <!-- 1000 -->
      <g transform="translate(25.15 211.63265) scale(0.1 -0.1)">
       <use xlink:href="#DejaVuSans-31"/>
       <use xlink:href="#DejaVuSans-30" transform="translate(63.623047 0)"/>
       <use xlink:href="#DejaVuSans-30" transform="translate(127.246094 0)"/>
       <use xlink:href="#DejaVuSans-30" transform="translate(190.869141 0)"/>
      </g>
     </g>
    </g>
    <g id="ytick_4">
     <g id="line2d_12">
      <g>
       <use xlink:href="#m07a62088a9" x="57.6" y="170.111589" style="stroke: #000000; stroke-width: 0.8"/>
      </g>
     </g>
     <g id="text_13">
      <!-- 1500 -->
      <g transform="translate(25.15 173.910807) scale(0.1 -0.1)">
       <use xlink:href="#DejaVuSans-31"/>
       <use xlink:href="#DejaVuSans-35" transform="translate(63.623047 0)"/>
       <use xlink:href="#DejaVuSans-30" transform="translate(127.246094 0)"/>
       <use xlink:href="#DejaVuSans-30" transform="translate(190.869141 0)"/>
      </g>
     </g>
    </g>
    <g id="ytick_5">
     <g id="line2d_13">
      <g>
       <use xlink:href="#m07a62088a9" x="57.6" y="132.389746" style="stroke: #000000; stroke-width: 0.8"/>
      </g>
     </g>
     <g id="text_14">
      <!-- 2000 -->
      <g transform="translate(25.15 136.188965) scale(0.1 -0.1)">
       <use xlink:href="#DejaVuSans-32"/>
       <use xlink:href="#DejaVuSans-30" transform="translate(63.623047 0)"/>
       <use xlink:href="#DejaVuSans-30" transform="translate(127.246094 0)"/>
       <use xlink:href="#DejaVuSans-30" transform="translate(190.869141 0)"/>
      </g>
     </g>
    </g>
    <g id="ytick_6">
     <g id="line2d_14">
      <g>
       <use xlink:href="#m07a62088a9" x="57.6" y="94.667904" style="stroke: #000000; stroke-width: 0.8"/>
      </g>
     </g>
     <g id="text_15">
      <!-- 2500 -->
      <g transform="translate(25.15 98.467123) scale(0.1 -0.1)">
       <use xlink:href="#DejaVuSans-32"/>
       <use xlink:href="#DejaVuSans-35" transform="translate(63.623047 0)"/>
       <use xlink:href="#DejaVuSans-30" transform="translate(127.246094 0)"/>
       <use xlink:href="#DejaVuSans-30" transform="translate(190.869141 0)"/>
      </g>
     </g>
    </g>
    <g id="ytick_7">
     <g id="line2d_15">
      <g>
       <use xlink:href="#m07a62088a9" x="57.6" y="56.946062" style="stroke: #000000; stroke-width: 0.8"/>
      </g>
     </g>
     <g id="text_16">
      <!-- 3000 -->
      <g transform="translate(25.15 60.74528) scale(0.1 -0.1)">
       <use xlink:href="#DejaVuSans-33"/>
       <use xlink:href="#DejaVuSans-30" transform="translate(63.623047 0)"/>
       <use xlink:href="#DejaVuSans-30" transform="translate(127.246094 0)"/>
       <use xlink:href="#DejaVuSans-30" transform="translate(190.869141 0)"/>
      </g>
     </g>
    </g>
    <g id="text_17">
     <!-- Stress [Pa] -->
     <g transform="translate(19.070312 201.235813) rotate(-90) scale(0.1 -0.1)">
      <defs>
       <path id="DejaVuSans-65" d="M 3597 1894 
L 3597 1613 
L 953 1613 
Q 991 1019 1311 708 
Q 1631 397 2203 397 
Q 2534 397 2845 478 
Q 3156 559 3463 722 
L 3463 178 
Q 3153 47 2828 -22 
Q 2503 -91 2169 -91 
Q 1331 -91 842 396 
Q 353 884 353 1716 
Q 353 2575 817 3079 
Q 1281 3584 2069 3584 
Q 2775 3584 3186 3129 
Q 3597 2675 3597 1894 
z
M 3022 2063 
Q 3016 2534 2758 2815 
Q 2500 3097 2075 3097 
Q 1594 3097 1305 2825 
Q 1016 2553 972 2059 
L 3022 2063 
z
" transform="scale(0.015625)"/>
       <path id="DejaVuSans-73" d="M 2834 3397 
L 2834 2853 
Q 2591 2978 2328 3040 
Q 2066 3103 1784 3103 
Q 1356 3103 1142 2972 
Q 928 2841 928 2578 
Q 928 2378 1081 2264 
Q 1234 2150 1697 2047 
L 1894 2003 
Q 2506 1872 2764 1633 
Q 3022 1394 3022 966 
Q 3022 478 2636 193 
Q 2250 -91 1575 -91 
Q 1294 -91 989 -36 
Q 684 19 347 128 
L 347 722 
Q 666 556 975 473 
Q 1284 391 1588 391 
Q 1994 391 2212 530 
Q 2431 669 2431 922 
Q 2431 1156 2273 1281 
Q 2116 1406 1581 1522 
L 1381 1569 
Q 847 1681 609 1914 
Q 372 2147 372 2553 
Q 372 3047 722 3315 
Q 1072 3584 1716 3584 
Q 2034 3584 2315 3537 
Q 2597 3491 2834 3397 
z
" transform="scale(0.015625)"/>
       <path id="DejaVuSans-20" transform="scale(0.015625)"/>
       <path id="DejaVuSans-5b" d="M 550 4863 
L 1875 4863 
L 1875 4416 
L 1125 4416 
L 1125 -397 
L 1875 -397 
L 1875 -844 
L 550 -844 
L 550 4863 
z
" transform="scale(0.015625)"/>
       <path id="DejaVuSans-50" d="M 1259 4147 
L 1259 2394 
L 2053 2394 
Q 2494 2394 2734 2622 
Q 2975 2850 2975 3272 
Q 2975 3691 2734 3919 
Q 2494 4147 2053 4147 
L 1259 4147 
z
M 628 4666 
L 2053 4666 
Q 2838 4666 3239 4311 
Q 3641 3956 3641 3272 
Q 3641 2581 3239 2228 
Q 2838 1875 2053 1875 
L 1259 1875 
L 1259 0 
L 628 0 
L 628 4666 
z
" transform="scale(0.015625)"/>
       <path id="DejaVuSans-5d" d="M 1947 4863 
L 1947 -844 
L 622 -844 
L 622 -397 
L 1369 -397 
L 1369 4416 
L 622 4416 
L 622 4863 
L 1947 4863 
z
" transform="scale(0.015625)"/>
      </defs>
      <use xlink:href="#DejaVuSans-53"/>
      <use xlink:href="#DejaVuSans-74" transform="translate(63.476562 0)"/>
      <use xlink:href="#DejaVuSans-72" transform="translate(102.685547 0)"/>
      <use xlink:href="#DejaVuSans-65" transform="translate(141.548828 0)"/>
      <use xlink:href="#DejaVuSans-73" transform="translate(203.072266 0)"/>
      <use xlink:href="#DejaVuSans-73" transform="translate(255.171875 0)"/>
      <use xlink:href="#DejaVuSans-20" transform="translate(307.271484 0)"/>
      <use xlink:href="#DejaVuSans-5b" transform="translate(339.058594 0)"/>
      <use xlink:href="#DejaVuSans-50" transform="translate(378.072266 0)"/>
      <use xlink:href="#DejaVuSans-61" transform="translate(433.875 0)"/>
      <use xlink:href="#DejaVuSans-5d" transform="translate(495.154297 0)"/>
     </g>
    </g>
   </g>
   <g id="line2d_16">
    <path d="M 73.904254 283.854587 
L 73.904254 283.781955 
L 73.904539 283.982743 
L 73.904923 283.889386 
L 74.208464 282.818843 
L 74.546365 282.139872 
L 76.586395 284.453128 
L 76.925658 284.516667 
L 77.253533 284.899497 
L 77.588762 283.508325 
L 77.91967 283.101897 
L 78.921737 283.365641 
L 79.253202 283.478802 
L 79.580706 283.399259 
L 80.233114 283.084422 
L 81.558787 282.935684 
L 82.553305 282.589195 
L 83.885724 282.439681 
L 88.881432 281.01816 
L 89.872484 280.695709 
L 90.862547 280.404602 
L 91.194321 280.190789 
L 92.863898 279.743646 
L 93.523114 279.391102 
L 94.184921 279.143096 
L 94.856762 278.998199 
L 96.850254 278.052467 
L 97.50947 277.915521 
L 98.160517 277.5385 
L 102.174759 275.956172 
L 103.502845 275.334668 
L 104.499219 274.941138 
L 105.839931 274.353556 
L 107.164799 273.814077 
L 107.833298 273.562347 
L 108.818905 273.244065 
L 110.484424 272.418293 
L 111.140298 272.13724 
L 112.475068 271.491423 
L 113.816646 270.955745 
L 114.477224 270.676343 
L 114.806089 270.591157 
L 115.484614 270.205213 
L 117.801525 269.163429 
L 118.815707 268.535949 
L 120.150477 268.071466 
L 121.487228 267.503991 
L 122.15288 267.235067 
L 122.823112 266.823161 
L 128.116788 264.631517 
L 142.087055 258.218912 
L 143.096665 257.827494 
L 144.426856 257.094136 
L 145.423849 256.619149 
L 146.756515 255.889199 
L 148.788871 255.128505 
L 158.756614 250.356945 
L 159.431797 249.989322 
L 160.430399 249.476428 
L 162.435525 248.556171 
L 163.747273 247.986498 
L 164.413916 247.724463 
L 170.067188 244.901322 
L 171.405176 244.190057 
L 172.062164 243.82685 
L 173.054702 243.410272 
L 174.398136 242.723652 
L 175.062411 242.479187 
L 179.417495 240.11409 
L 187.083451 236.233257 
L 189.394544 235.027056 
L 190.387206 234.605806 
L 191.729317 233.82084 
L 192.718265 233.365036 
L 194.705815 232.251321 
L 195.367074 231.887015 
L 198.682525 230.143304 
L 200.018966 229.51289 
L 200.678244 229.008607 
L 203.986508 227.2154 
L 205.653115 226.346736 
L 215.636816 220.714905 
L 216.312618 220.241109 
L 217.292902 219.738511 
L 220.929235 217.652543 
L 222.253485 216.929574 
L 223.260751 216.234013 
L 224.905357 215.200107 
L 229.233087 212.559215 
L 229.898615 212.193333 
L 231.228559 211.435186 
L 231.893716 211.005417 
L 233.546088 210.110187 
L 234.551374 209.511401 
L 234.878135 209.375345 
L 236.529146 208.156776 
L 237.521931 207.622116 
L 240.523834 205.720573 
L 241.189981 205.404379 
L 242.525309 204.421279 
L 243.516113 203.872511 
L 247.17423 201.384696 
L 248.506216 200.727327 
L 250.508 199.380177 
L 251.174023 198.918876 
L 252.524884 197.906242 
L 254.183445 196.952127 
L 255.527313 195.912963 
L 256.199154 195.40421 
L 257.870618 194.441868 
L 259.868937 192.985412 
L 264.852386 189.573035 
L 265.861633 188.83636 
L 277.194943 180.545164 
L 280.529764 178.077246 
L 285.147541 174.602118 
L 286.148372 173.792047 
L 287.139052 173.087545 
L 288.821347 171.767374 
L 289.489598 171.192626 
L 290.486035 170.28765 
L 291.147726 169.768526 
L 291.805581 169.30902 
L 292.822502 168.505216 
L 293.824693 167.751759 
L 297.460268 164.818115 
L 298.112058 164.311633 
L 301.759654 161.268381 
L 302.412434 160.780734 
L 303.749309 159.504012 
L 305.412001 158.27358 
L 306.751351 156.9737 
L 308.08773 155.848059 
L 309.10267 155.044217 
L 310.107833 154.211501 
L 313.076904 151.429918 
L 314.745151 150.017873 
L 315.758729 149.058408 
L 317.116645 147.926647 
L 318.770874 146.458209 
L 320.455428 144.92198 
L 322.442204 142.984372 
L 323.096593 142.424867 
L 326.08683 139.48308 
L 329.392054 136.472907 
L 330.393875 135.428796 
L 333.038475 132.819509 
L 334.35864 131.525932 
L 336.377752 129.500517 
L 339.377953 126.482365 
L 347.684899 117.74099 
L 348.342506 117.093285 
L 349.678205 115.478127 
L 351.337385 113.79342 
L 352.331284 112.659021 
L 353.658442 111.17336 
L 361.28315 102.391952 
L 362.288343 101.243225 
L 370.919482 90.752962 
L 372.909817 88.190285 
L 374.230849 86.500448 
L 381.178054 77.291121 
L 382.168858 75.956796 
L 387.865582 68.191411 
L 390.16665 64.775535 
L 390.829455 63.892434 
L 391.819393 62.397832 
L 395.812905 56.593334 
L 397.162033 54.582723 
L 397.830161 53.907389 
L 398.275961 53.568 
L 398.487273 54.888931 
L 398.365418 66.755933 
L 398.366625 84.948628 
L 398.039152 85.055535 
L 397.709637 85.606245 
L 397.040581 87.176551 
L 396.36874 87.904725 
L 395.326569 89.491667 
L 394.65708 90.288143 
L 393.6543 92.891861 
L 392.976394 94.673305 
L 392.6479 95.20082 
L 392.305296 95.484878 
L 390.958891 97.430558 
L 390.623775 98.217433 
L 390.289402 99.54802 
L 389.616075 100.900007 
L 387.970325 103.385879 
L 384.971764 108.877281 
L 384.314405 109.768296 
L 383.33047 111.497121 
L 382.99752 112.53295 
L 381.987407 113.859946 
L 381.656808 114.271302 
L 380.652946 116.271507 
L 379.999671 117.077363 
L 379.668082 117.497661 
L 378.336778 119.822304 
L 377.667041 120.733986 
L 374.338439 126.016136 
L 373.672786 126.797515 
L 370.357892 131.566624 
L 369.689641 132.335105 
L 368.355892 134.39217 
L 367.359827 135.622721 
L 367.025453 136.358516 
L 365.387501 138.234427 
L 365.04929 139.038671 
L 364.046232 140.084174 
L 363.377981 140.733418 
L 363.046145 141.535904 
L 362.705335 142.061367 
L 361.372731 143.223358 
L 360.711937 144.546479 
L 360.043561 145.194001 
L 359.377043 145.802644 
L 359.041494 146.344816 
L 358.716218 147.085448 
L 358.389704 147.509336 
L 357.716254 148.02813 
L 357.054686 148.668726 
L 356.388662 149.931157 
L 355.055068 151.009346 
L 354.383413 152.222821 
L 353.376146 153.156782 
L 353.038617 153.404252 
L 352.375564 154.568992 
L 351.062949 155.581846 
L 350.067936 157.126612 
L 349.054481 157.790257 
L 348.721407 158.131405 
L 348.386105 158.955143 
L 348.057983 159.417507 
L 347.387751 159.893868 
L 346.73299 160.40013 
L 346.057436 161.694001 
L 345.3851 162.041854 
L 344.3964 162.898352 
L 344.065616 163.697466 
L 343.738978 164.000945 
L 343.404172 164.135462 
L 342.4 165.029189 
L 342.065812 165.831382 
L 341.730201 166.203823 
L 341.064177 166.571207 
L 340.395245 167.033314 
L 340.070279 167.810443 
L 339.730583 168.25639 
L 338.398041 168.946454 
L 337.733502 170.141022 
L 336.737035 170.774555 
L 336.400372 170.950479 
L 336.068165 171.286442 
L 335.729521 172.0901 
L 335.396881 172.467671 
L 334.725164 172.840479 
L 334.059883 173.259567 
L 333.393983 174.416392 
L 332.039037 175.18315 
L 331.705283 175.621549 
L 331.373385 176.321141 
L 331.035051 176.611171 
L 330.366304 176.882569 
L 329.710306 177.323203 
L 329.055794 178.594428 
L 328.388625 178.741706 
L 327.371395 179.403216 
L 327.044695 180.354766 
L 326.704752 180.626915 
L 326.362148 180.643185 
L 325.370787 181.075281 
L 324.711323 182.51239 
L 323.384969 182.978931 
L 323.058394 183.166672 
L 322.728538 183.984254 
L 322.393917 184.449586 
L 321.721086 184.604495 
L 321.064964 184.915394 
L 320.739564 185.415244 
L 320.403427 186.228246 
L 320.071591 186.392251 
L 319.746934 186.399159 
L 318.750374 186.836293 
L 318.416558 187.682751 
L 318.078719 188.167027 
L 316.737327 188.558184 
L 316.076687 189.771806 
L 315.072577 190.174459 
L 314.737152 190.244805 
L 314.408534 190.595956 
L 314.077564 191.303463 
L 313.737497 191.576051 
L 312.408606 192.059256 
L 312.078503 192.730705 
L 311.738065 193.134953 
L 310.415796 193.559601 
L 309.758869 194.625112 
L 308.411474 195.135514 
L 308.075554 195.361823 
L 307.748483 196.070941 
L 307.085368 196.400821 
L 306.088932 196.857487 
L 305.423527 197.830803 
L 304.090211 198.302941 
L 303.762893 198.644016 
L 303.430686 199.262406 
L 303.092723 199.517259 
L 302.427318 199.793457 
L 301.757148 200.073887 
L 301.422465 200.652556 
L 301.092486 200.976079 
L 300.433889 201.230419 
L 299.770588 201.601321 
L 299.10475 202.496734 
L 297.780562 202.990757 
L 296.783507 204.143643 
L 296.109531 204.342029 
L 295.442394 204.625098 
L 295.103688 205.337734 
L 294.77637 205.608445 
L 294.110223 205.744391 
L 293.778015 205.90247 
L 293.448902 205.908534 
L 292.788634 206.986618 
L 292.115432 207.212871 
L 291.11095 207.662867 
L 290.774782 208.246667 
L 290.44505 208.474248 
L 289.773333 208.669483 
L 289.123338 208.916586 
L 288.45292 209.920573 
L 287.117377 210.245762 
L 286.786283 210.514041 
L 286.457665 211.244999 
L 286.120755 211.440518 
L 285.13094 211.661265 
L 284.798919 211.706547 
L 284.470115 212.371181 
L 284.143168 212.763098 
L 282.81075 213.018753 
L 282.473034 213.350012 
L 282.136866 214.068071 
L 281.798409 214.243198 
L 281.124959 214.287889 
L 280.460977 214.493961 
L 279.799255 215.440056 
L 278.80189 215.787378 
L 278.467702 215.912964 
L 278.139889 216.40772 
L 277.48253 216.863139 
L 276.478172 217.126444 
L 275.819018 217.868908 
L 275.157945 218.167659 
L 274.496501 218.338155 
L 274.169802 218.608582 
L 273.835861 219.055336 
L 273.165691 219.390932 
L 272.164614 219.67581 
L 271.499704 220.579944 
L 270.500978 220.863218 
L 270.171122 220.890412 
L 269.845104 221.114888 
L 269.506584 221.740607 
L 269.173572 221.960613 
L 268.507301 222.054277 
L 267.849446 222.15975 
L 267.189054 222.970425 
L 265.873717 223.391364 
L 265.541633 223.70578 
L 265.216048 224.201123 
L 264.561411 224.38858 
L 263.557827 224.684488 
L 263.219431 225.313358 
L 262.883572 225.499853 
L 262.222128 225.639175 
L 261.895862 225.785546 
L 261.557466 225.753131 
L 261.223712 226.353566 
L 260.885068 226.619467 
L 259.542748 226.879373 
L 259.213202 227.465334 
L 258.876786 227.790326 
L 257.538798 227.935626 
L 257.205538 228.288028 
L 256.879582 228.880401 
L 255.224486 229.261669 
L 254.887699 229.951733 
L 253.88526 230.195965 
L 253.218865 230.327972 
L 252.885173 231.004185 
L 252.21983 231.346963 
L 251.228097 231.372888 
L 250.559103 232.40635 
L 249.541192 232.493867 
L 248.882038 232.557274 
L 248.553234 233.32253 
L 247.883002 233.46815 
L 246.891517 233.542398 
L 246.553987 234.321432 
L 246.213116 234.565045 
L 245.215256 234.718232 
L 244.888062 234.623284 
L 244.553503 235.126322 
L 244.219439 235.409995 
L 243.23012 235.664812 
L 242.895808 235.65457 
L 242.225329 236.474049 
L 240.911352 236.823973 
L 240.574256 236.955994 
L 240.245081 237.395528 
L 238.583333 237.794921 
L 238.252982 238.347207 
L 237.923622 238.537495 
L 236.602652 238.684434 
L 235.935886 239.546464 
L 235.26454 239.630336 
L 234.935798 239.785007 
L 234.604334 239.805097 
L 233.940538 240.579417 
L 232.962606 240.730886 
L 232.632008 240.766041 
L 231.963942 241.404814 
L 230.620647 241.647584 
L 229.963101 242.488655 
L 228.962395 242.593642 
L 228.632106 242.555739 
L 228.307573 242.871127 
L 227.968496 243.386623 
L 226.985799 243.488881 
L 226.651116 243.469982 
L 226.313215 243.633539 
L 225.986392 244.130787 
L 224.648651 244.459151 
L 224.321209 244.653781 
L 223.985784 245.113724 
L 222.668202 245.442791 
L 221.663411 246.198691 
L 220.98402 246.404489 
L 220.653546 246.468898 
L 219.98418 246.98302 
L 218.640127 247.273127 
L 217.973423 247.773407 
L 216.974697 248.07675 
L 216.640199 248.23329 
L 216.315542 248.595691 
L 215.642402 248.773376 
L 214.630432 249.083609 
L 214.298967 249.534613 
L 213.623413 249.753583 
L 212.61528 250.005462 
L 212.275213 250.363392 
L 211.275188 250.645077 
L 210.935059 250.68293 
L 209.944378 251.25733 
L 207.939809 252.068371 
L 207.276632 252.331662 
L 202.95366 254.166757 
L 202.290112 254.500869 
L 201.625821 254.667559 
L 200.625671 255.113616 
L 200.28777 255.397381 
L 199.620261 255.52454 
L 196.980163 256.548638 
L 196.31315 256.900669 
L 193.318209 258.088092 
L 192.653547 258.349506 
L 191.990989 258.451853 
L 190.665131 259.065283 
L 189.673111 259.3568 
L 189.348207 259.6631 
L 187.689955 260.108443 
L 187.360966 260.436106 
L 185.70977 260.95209 
L 185.371064 261.340361 
L 184.373576 261.528755 
L 184.046072 261.54518 
L 183.718877 261.717435 
L 183.379863 262.02784 
L 181.718114 262.435041 
L 181.059641 262.873514 
L 180.06797 263.156582 
L 179.405041 263.43213 
L 178.736418 263.766462 
L 177.738063 264.025268 
L 177.073339 264.437022 
L 175.719755 264.711125 
L 175.386187 265.131239 
L 175.05466 265.366232 
L 173.722303 265.422444 
L 173.068162 266.119012 
L 171.731164 266.179499 
L 171.394686 266.373909 
L 171.070153 266.82506 
L 170.402768 266.895236 
L 169.395749 267.010007 
L 168.738575 267.646206 
L 167.415316 267.730664 
L 167.080262 267.970251 
L 166.745579 268.417939 
L 166.084723 268.446174 
L 165.080613 268.619707 
L 164.746982 269.178076 
L 164.084733 269.239771 
L 163.102902 269.179176 
L 162.438116 269.789872 
L 161.766399 269.948276 
L 161.098766 270.027925 
L 158.412393 271.015447 
L 157.409195 271.375139 
L 156.73853 271.686691 
L 156.075725 271.748582 
L 155.736215 271.856872 
L 155.070006 272.405787 
L 154.06212 272.471006 
L 153.725086 272.486154 
L 153.067046 273.107513 
L 152.054086 273.202391 
L 151.724106 273.184838 
L 151.069098 273.764845 
L 149.729756 273.830553 
L 149.066827 274.366617 
L 147.736203 274.363195 
L 147.075502 275.047693 
L 146.090267 275.185876 
L 145.759916 275.180351 
L 145.424058 275.380899 
L 145.090241 275.747221 
L 144.420257 275.782364 
L 143.41955 275.825801 
L 143.083568 276.344962 
L 142.089917 276.392842 
L 141.411887 276.348383 
L 141.085002 276.800487 
L 140.757313 277.060268 
L 139.419324 277.027206 
L 138.436252 277.660756 
L 137.451883 277.752381 
L 137.125865 277.879304 
L 136.79539 278.229539 
L 136.124849 278.279275 
L 135.450656 278.344427 
L 135.119377 278.519215 
L 134.445741 279.033483 
L 133.125909 279.133 
L 132.14086 279.707693 
L 130.810917 279.856092 
L 130.154114 280.403953 
L 128.835682 280.417284 
L 127.834295 281.041363 
L 126.831979 280.988727 
L 126.498039 281.114029 
L 125.837585 281.62608 
L 125.16453 281.764931 
L 124.159863 281.941437 
L 123.489693 282.311276 
L 122.160864 282.568171 
L 120.830611 283.144394 
L 120.16632 283.241174 
L 119.164747 283.673179 
L 118.163546 283.755767 
L 115.850054 284.497295 
L 115.190838 284.816878 
L 113.859534 285.083235 
L 112.865635 285.321343 
L 112.202767 285.505983 
L 111.527151 285.925474 
L 110.531272 286.044645 
L 108.867787 286.459052 
L 108.53199 286.524092 
L 108.207148 286.701994 
L 107.868257 287.026946 
L 107.543538 287.146246 
L 106.560036 287.116636 
L 106.22789 287.176452 
L 105.557782 287.778994 
L 104.558685 287.704881 
L 104.223383 287.755637 
L 103.559649 288.384525 
L 101.880542 288.538695 
L 101.542579 288.917586 
L 99.895489 289.044996 
L 99.558949 289.396917 
L 98.903879 289.491191 
L 97.919202 289.6703 
L 97.580125 289.994812 
L 97.254416 290.091906 
L 96.248387 290.141132 
L 95.909434 290.268425 
L 95.579022 290.629581 
L 95.252508 290.694271 
L 94.59552 290.674914 
L 93.928506 290.676254 
L 93.263225 291.251339 
L 92.605422 291.085308 
L 91.955489 291.122763 
L 91.622354 291.318883 
L 91.296335 291.777802 
L 89.961936 291.688126 
L 89.626944 291.765801 
L 89.296779 292.213727 
L 88.958321 292.356498 
L 88.297001 292.242913 
L 87.625964 292.267116 
L 86.963035 292.916831 
L 85.971612 292.708159 
L 85.643365 292.747168 
L 85.30862 292.933342 
L 84.979817 293.407725 
L 83.331652 293.296805 
L 82.998888 293.774082 
L 82.669898 293.933214 
L 82.011549 293.771323 
L 81.359635 293.813066 
L 80.692188 294.460386 
L 79.696185 294.383067 
L 79.369919 294.417643 
L 79.032451 294.585692 
L 78.695293 294.998843 
L 77.032338 294.846345 
L 76.697602 295.288583 
L 76.365828 295.488 
L 75.700299 295.280783 
L 74.710547 295.214856 
L 74.380444 295.464414 
L 73.892561 295.32924 
L 73.832727 294.205997 
L 73.83301 294.208567 
" clip-path="url(#pe2e0712a9f)" style="fill: none; stroke: #ff0000; stroke-width: 1.5; stroke-linecap: square"/>
   </g>
   <g id="line2d_17">
    <path d="M 73.904254 283.854587 
L 73.904254 283.781955 
L 73.904539 283.982743 
L 73.904923 283.889386 
L 74.208464 282.818843 
L 74.546365 282.139872 
L 75.223281 283.06274 
L 75.575787 284.824039 
L 76.254683 284.598986 
L 76.586395 284.918588 
L 76.925658 284.684951 
L 77.253533 284.900724 
L 77.588762 283.508325 
L 77.91967 283.101897 
L 78.921737 283.365641 
L 79.253202 283.478802 
L 79.580706 283.399259 
L 80.233114 283.084422 
L 81.558787 282.935684 
L 82.553305 282.589195 
L 83.885724 282.439681 
L 88.881432 281.01816 
L 89.872484 280.695709 
L 90.862547 280.404602 
L 91.194321 280.190789 
L 92.863898 279.743646 
L 93.523114 279.391102 
L 94.184921 279.143096 
L 94.856762 278.998199 
L 96.850254 278.052467 
L 97.50947 277.915521 
L 98.160517 277.5385 
L 102.174759 275.956172 
L 103.502845 275.334668 
L 104.499219 274.941138 
L 105.839931 274.353556 
L 107.164799 273.814077 
L 107.833298 273.562347 
L 108.818905 273.244065 
L 110.484424 272.418293 
L 111.140298 272.13724 
L 112.475068 271.491423 
L 113.816646 270.955745 
L 114.477224 270.676343 
L 114.806089 270.591157 
L 115.484614 270.205213 
L 117.801525 269.163429 
L 118.815707 268.535949 
L 120.150477 268.071466 
L 121.487228 267.503991 
L 122.15288 267.235067 
L 122.823112 266.823161 
L 128.116788 264.631517 
L 142.087055 258.218912 
L 143.096665 257.827494 
L 144.426856 257.094136 
L 145.423849 256.619149 
L 146.756515 255.889199 
L 148.788871 255.128505 
L 158.756614 250.356945 
L 159.431797 249.989322 
L 160.430399 249.476428 
L 162.435525 248.556171 
L 163.747273 247.986498 
L 164.413916 247.724463 
L 170.067188 244.901322 
L 171.405176 244.190057 
L 172.062164 243.82685 
L 173.054702 243.410272 
L 174.398136 242.723652 
L 175.062411 242.479187 
L 179.417495 240.11409 
L 187.083451 236.233257 
L 189.394544 235.027056 
L 190.387206 234.605806 
L 191.729317 233.82084 
L 192.718265 233.365036 
L 194.705815 232.251321 
L 195.367074 231.887015 
L 198.682525 230.143304 
L 200.018966 229.51289 
L 200.678244 229.008607 
L 203.986508 227.2154 
L 205.653115 226.346736 
L 215.636816 220.714905 
L 216.312618 220.241109 
L 217.292902 219.738511 
L 220.929235 217.652543 
L 222.253485 216.929574 
L 223.260751 216.234013 
L 224.905357 215.200107 
L 229.233087 212.559215 
L 229.898615 212.193333 
L 231.228559 211.435186 
L 231.893716 211.005417 
L 233.546088 210.110187 
L 234.551374 209.511401 
L 234.878135 209.375345 
L 236.529146 208.156776 
L 237.521931 207.622116 
L 240.523834 205.720573 
L 241.189981 205.404379 
L 242.525309 204.421279 
L 243.516113 203.872511 
L 247.17423 201.384696 
L 248.506216 200.727327 
L 250.508 199.380177 
L 251.174023 198.918876 
L 252.524884 197.906242 
L 254.183445 196.952127 
L 255.527313 195.912963 
L 256.199154 195.40421 
L 257.870618 194.441868 
L 259.868937 192.985412 
L 264.852386 189.573035 
L 265.861633 188.83636 
L 277.194943 180.545164 
L 280.529764 178.077246 
L 285.147541 174.602118 
L 286.148372 173.792047 
L 287.139052 173.087545 
L 288.821347 171.767374 
L 289.489598 171.192626 
L 290.486035 170.28765 
L 291.147726 169.768526 
L 291.805581 169.30902 
L 292.822502 168.505216 
L 293.824693 167.751759 
L 297.460268 164.818115 
L 298.112058 164.311633 
L 301.759654 161.268381 
L 302.412434 160.780734 
L 303.749309 159.504012 
L 305.412001 158.27358 
L 306.751351 156.9737 
L 308.08773 155.848059 
L 309.10267 155.044217 
L 310.107833 154.211501 
L 313.076904 151.429918 
L 314.745151 150.017873 
L 315.758729 149.058408 
L 317.116645 147.926647 
L 318.770874 146.458209 
L 320.455428 144.92198 
L 322.442204 142.984372 
L 323.096593 142.424867 
L 326.08683 139.48308 
L 329.392054 136.472907 
L 330.393875 135.428796 
L 333.038475 132.819509 
L 334.35864 131.525932 
L 336.377752 129.500517 
L 339.377953 126.482365 
L 347.684899 117.74099 
L 348.342506 117.093285 
L 349.678205 115.478127 
L 351.337385 113.79342 
L 352.331284 112.659021 
L 353.658442 111.17336 
L 361.28315 102.391952 
L 362.288343 101.243225 
L 370.919482 90.752962 
L 372.909817 88.190285 
L 374.230849 86.500448 
L 381.178054 77.291121 
L 382.168858 75.956796 
L 387.865582 68.191411 
L 390.16665 64.775535 
L 390.829455 63.892434 
L 391.819393 62.397832 
L 395.812905 56.593334 
L 397.162033 54.582723 
L 397.830161 53.907389 
L 398.275961 53.568 
L 398.487273 54.888931 
L 398.366563 64.966317 
L 398.366625 84.948628 
L 398.039152 85.079949 
L 397.709637 85.606245 
L 397.040581 87.176551 
L 396.36874 87.904725 
L 395.326569 89.491667 
L 394.65708 90.288143 
L 393.6543 92.891861 
L 392.976394 94.673305 
L 392.6479 95.20082 
L 392.305296 95.484878 
L 390.958891 97.430558 
L 390.623775 98.217433 
L 390.289402 99.54802 
L 389.616075 100.900007 
L 387.970325 103.385879 
L 384.971764 108.877281 
L 384.314405 109.768296 
L 383.33047 111.497121 
L 382.99752 112.53295 
L 381.987407 113.859946 
L 381.656808 114.271302 
L 380.652946 116.271507 
L 379.999671 117.077363 
L 379.668082 117.497661 
L 378.336778 119.822304 
L 377.667041 120.733986 
L 374.338439 126.016136 
L 373.672786 126.797515 
L 370.357892 131.566624 
L 369.689641 132.335105 
L 368.355892 134.39217 
L 367.359827 135.622721 
L 367.025453 136.358516 
L 365.387501 138.234427 
L 365.04929 139.038671 
L 364.046232 140.084174 
L 363.377981 140.733418 
L 363.046145 141.535904 
L 362.705335 142.061367 
L 361.372731 143.223358 
L 360.711937 144.546479 
L 360.043561 145.194001 
L 359.377043 145.802644 
L 359.041494 146.344816 
L 358.716218 147.085448 
L 358.389704 147.509336 
L 357.716254 148.02813 
L 357.054686 148.668726 
L 356.388662 149.931157 
L 355.055068 151.009346 
L 354.383413 152.222821 
L 353.376146 153.156782 
L 353.038617 153.404252 
L 352.375564 154.568992 
L 351.062949 155.581846 
L 350.067936 157.126612 
L 349.054481 157.790257 
L 348.721407 158.131405 
L 348.386105 158.955143 
L 348.057983 159.417507 
L 347.387751 159.893868 
L 346.73299 160.40013 
L 346.057436 161.694001 
L 345.3851 162.041854 
L 344.3964 162.898352 
L 344.065616 163.697466 
L 343.738978 164.000945 
L 343.404172 164.135462 
L 342.4 165.029189 
L 342.065812 165.831382 
L 341.730201 166.203823 
L 341.064177 166.571207 
L 340.395245 167.033314 
L 340.070279 167.810443 
L 339.730583 168.25639 
L 338.398041 168.946454 
L 337.733502 170.141022 
L 336.737035 170.774555 
L 336.400372 170.950479 
L 336.068165 171.286442 
L 335.729521 172.0901 
L 335.396881 172.467671 
L 334.725164 172.840479 
L 334.059883 173.259567 
L 333.393983 174.416392 
L 332.039037 175.18315 
L 331.705283 175.621549 
L 331.373385 176.321141 
L 331.035051 176.611171 
L 330.366304 176.882569 
L 329.710306 177.323203 
L 329.055794 178.594428 
L 328.388625 178.741706 
L 327.371395 179.403216 
L 327.044695 180.354766 
L 326.704752 180.626915 
L 326.362148 180.643185 
L 325.370787 181.075281 
L 324.711323 182.51239 
L 323.384969 182.978931 
L 323.058394 183.166672 
L 322.728538 183.984254 
L 322.393917 184.449586 
L 321.721086 184.604495 
L 321.064964 184.915394 
L 320.739564 185.415244 
L 320.403427 186.228246 
L 320.071591 186.392251 
L 319.746934 186.399159 
L 318.750374 186.836293 
L 318.416558 187.682751 
L 318.078719 188.167027 
L 316.737327 188.558184 
L 316.076687 189.771806 
L 315.072577 190.174459 
L 314.737152 190.244805 
L 314.408534 190.595956 
L 314.077564 191.303463 
L 313.737497 191.576051 
L 312.408606 192.059256 
L 312.078503 192.730705 
L 311.738065 193.134953 
L 310.415796 193.559601 
L 309.758869 194.625112 
L 308.411474 195.135514 
L 308.075554 195.361823 
L 307.748483 196.070941 
L 307.085368 196.400821 
L 306.088932 196.857487 
L 305.423527 197.830803 
L 304.090211 198.302941 
L 303.762893 198.644016 
L 303.430686 199.262406 
L 303.092723 199.517259 
L 302.427318 199.793457 
L 301.757148 200.073887 
L 301.422465 200.652556 
L 301.092486 200.976079 
L 300.433889 201.230419 
L 299.770588 201.601321 
L 299.10475 202.496734 
L 297.780562 202.990757 
L 296.783507 204.143643 
L 296.109531 204.342029 
L 295.442394 204.625098 
L 295.103688 205.337734 
L 294.77637 205.608445 
L 294.110223 205.744391 
L 293.778015 205.90247 
L 293.448902 205.908534 
L 292.788634 206.986618 
L 292.115432 207.212871 
L 291.11095 207.662867 
L 290.774782 208.246667 
L 290.44505 208.474248 
L 289.773333 208.669483 
L 289.123338 208.916586 
L 288.45292 209.920573 
L 287.117377 210.245762 
L 286.786283 210.514041 
L 286.457665 211.244999 
L 286.120755 211.440518 
L 285.13094 211.661265 
L 284.798919 211.706547 
L 284.470115 212.371181 
L 284.143168 212.763098 
L 282.81075 213.018753 
L 282.473034 213.350012 
L 282.136866 214.068071 
L 281.798409 214.243198 
L 281.124959 214.287889 
L 280.460977 214.493961 
L 279.799255 215.440056 
L 278.80189 215.787378 
L 278.467702 215.912964 
L 278.139889 216.40772 
L 277.48253 216.863139 
L 276.478172 217.126444 
L 275.819018 217.868908 
L 275.157945 218.167659 
L 274.496501 218.338155 
L 274.169802 218.608582 
L 273.835861 219.055336 
L 273.165691 219.390932 
L 272.164614 219.67581 
L 271.499704 220.579944 
L 270.500978 220.863218 
L 270.171122 220.890412 
L 269.845104 221.114888 
L 269.506584 221.740607 
L 269.173572 221.960613 
L 268.507301 222.054277 
L 267.849446 222.15975 
L 267.189054 222.970425 
L 265.873717 223.391364 
L 265.541633 223.70578 
L 265.216048 224.201123 
L 264.561411 224.38858 
L 263.557827 224.684488 
L 263.219431 225.313358 
L 262.883572 225.499853 
L 262.222128 225.639175 
L 261.895862 225.785546 
L 261.557466 225.753131 
L 261.223712 226.353566 
L 260.885068 226.619467 
L 259.542748 226.879373 
L 259.213202 227.465334 
L 258.876786 227.790326 
L 257.538798 227.935626 
L 257.205538 228.288028 
L 256.879582 228.880401 
L 255.224486 229.261669 
L 254.887699 229.951733 
L 253.88526 230.195965 
L 253.218865 230.327972 
L 252.885173 231.004185 
L 252.21983 231.346963 
L 251.228097 231.372888 
L 250.559103 232.40635 
L 249.541192 232.493867 
L 248.882038 232.557274 
L 248.553234 233.32253 
L 247.883002 233.46815 
L 246.891517 233.542398 
L 246.553987 234.321432 
L 246.213116 234.565045 
L 245.215256 234.718232 
L 244.888062 234.623284 
L 244.553503 235.126322 
L 244.219439 235.409995 
L 243.23012 235.664812 
L 242.895808 235.65457 
L 242.225329 236.474049 
L 240.911352 236.823973 
L 240.574256 236.955994 
L 240.245081 237.395528 
L 238.583333 237.794921 
L 238.252982 238.347207 
L 237.923622 238.537495 
L 236.602652 238.684434 
L 235.935886 239.546464 
L 235.26454 239.630336 
L 234.935798 239.785007 
L 234.604334 239.805097 
L 233.940538 240.579417 
L 232.962606 240.730886 
L 232.632008 240.766041 
L 231.963942 241.404814 
L 230.620647 241.647584 
L 229.963101 242.488655 
L 228.962395 242.593642 
L 228.632106 242.555739 
L 228.307573 242.871127 
L 227.968496 243.386623 
L 226.985799 243.488881 
L 226.651116 243.469982 
L 226.313215 243.633539 
L 225.986392 244.130787 
L 224.648651 244.459151 
L 224.321209 244.653781 
L 223.985784 245.113724 
L 222.668202 245.442791 
L 221.663411 246.198691 
L 220.98402 246.404489 
L 220.653546 246.468898 
L 219.98418 246.98302 
L 218.640127 247.273127 
L 217.973423 247.773407 
L 216.974697 248.07675 
L 216.640199 248.23329 
L 216.315542 248.595691 
L 215.642402 248.773376 
L 214.630432 249.083609 
L 214.298967 249.534613 
L 213.623413 249.753583 
L 212.61528 250.005462 
L 212.275213 250.363392 
L 211.275188 250.645077 
L 210.935059 250.68293 
L 209.944378 251.25733 
L 207.939809 252.068371 
L 207.276632 252.331662 
L 202.95366 254.166757 
L 202.290112 254.500869 
L 201.625821 254.667559 
L 200.625671 255.113616 
L 200.28777 255.397381 
L 199.620261 255.52454 
L 196.980163 256.548638 
L 196.31315 256.900669 
L 193.318209 258.088092 
L 192.653547 258.349506 
L 191.990989 258.451853 
L 190.665131 259.065283 
L 189.673111 259.3568 
L 189.348207 259.6631 
L 187.689955 260.108443 
L 187.360966 260.436106 
L 185.70977 260.95209 
L 185.371064 261.340361 
L 184.373576 261.528755 
L 184.046072 261.54518 
L 183.718877 261.717435 
L 183.379863 262.02784 
L 181.718114 262.435041 
L 181.059641 262.873514 
L 180.06797 263.156582 
L 179.405041 263.43213 
L 178.736418 263.766462 
L 177.738063 264.025268 
L 177.073339 264.437022 
L 175.719755 264.711125 
L 175.386187 265.131239 
L 175.05466 265.366232 
L 173.722303 265.422444 
L 173.068162 266.119012 
L 171.731164 266.179499 
L 171.394686 266.373909 
L 171.070153 266.82506 
L 170.402768 266.895236 
L 169.395749 267.010007 
L 168.738575 267.646206 
L 167.415316 267.730664 
L 167.080262 267.970251 
L 166.745579 268.417939 
L 166.084723 268.446174 
L 165.080613 268.619707 
L 164.746982 269.178076 
L 164.084733 269.239771 
L 163.102902 269.179176 
L 162.438116 269.789872 
L 161.766399 269.948276 
L 161.098766 270.027925 
L 158.412393 271.015447 
L 157.409195 271.375139 
L 156.73853 271.686691 
L 156.075725 271.748582 
L 155.736215 271.856872 
L 155.070006 272.405787 
L 154.06212 272.471006 
L 153.725086 272.486154 
L 153.067046 273.107513 
L 152.054086 273.202391 
L 151.724106 273.184838 
L 151.069098 273.764845 
L 149.729756 273.830553 
L 149.066827 274.366617 
L 147.736203 274.363195 
L 147.075502 275.047693 
L 146.090267 275.185876 
L 145.759916 275.180351 
L 145.424058 275.380899 
L 145.090241 275.747221 
L 144.420257 275.782364 
L 143.41955 275.825801 
L 143.083568 276.344962 
L 142.089917 276.392842 
L 141.411887 276.348383 
L 141.085002 276.800487 
L 140.757313 277.060268 
L 139.419324 277.027206 
L 138.436252 277.660756 
L 137.451883 277.752381 
L 137.125865 277.879304 
L 136.79539 278.229539 
L 136.124849 278.279275 
L 135.450656 278.344427 
L 135.119377 278.519215 
L 134.445741 279.033483 
L 133.125909 279.133 
L 132.14086 279.707693 
L 130.810917 279.856092 
L 130.154114 280.403953 
L 128.835682 280.417284 
L 127.834295 281.041363 
L 126.831979 280.988727 
L 126.498039 281.114029 
L 125.837585 281.62608 
L 125.16453 281.764931 
L 124.159863 281.941437 
L 123.489693 282.311276 
L 122.160864 282.568171 
L 120.830611 283.144394 
L 120.16632 283.241174 
L 119.164747 283.673179 
L 118.163546 283.755767 
L 115.850054 284.497295 
L 115.190838 284.816878 
L 113.859534 285.083235 
L 112.865635 285.321343 
L 112.202767 285.505983 
L 111.527151 285.925474 
L 110.531272 286.044645 
L 108.867787 286.459052 
L 108.53199 286.524092 
L 108.207148 286.701994 
L 107.868257 287.026946 
L 107.543538 287.146246 
L 106.560036 287.116636 
L 106.22789 287.176452 
L 105.557782 287.778994 
L 104.558685 287.704881 
L 104.223383 287.755637 
L 103.559649 288.384525 
L 101.880542 288.538695 
L 101.542579 288.917586 
L 99.895489 289.044996 
L 99.558949 289.396917 
L 98.903879 289.491191 
L 97.919202 289.6703 
L 97.580125 289.994812 
L 97.254416 290.091906 
L 96.248387 290.141132 
L 95.909434 290.268425 
L 95.579022 290.629581 
L 95.252508 290.694271 
L 94.59552 290.674914 
L 93.928506 290.676254 
L 93.263225 291.251339 
L 92.605422 291.085308 
L 91.955489 291.122763 
L 91.622354 291.318883 
L 91.296335 291.777802 
L 89.961936 291.688126 
L 89.626944 291.765801 
L 89.296779 292.213727 
L 88.958321 292.356498 
L 88.297001 292.242913 
L 87.625964 292.267116 
L 86.963035 292.916831 
L 85.971612 292.708159 
L 85.643365 292.747168 
L 85.30862 292.933342 
L 84.979817 293.407725 
L 83.331652 293.296805 
L 82.998888 293.774082 
L 82.669898 293.933214 
L 82.011549 293.771323 
L 81.359635 293.813066 
L 80.692188 294.460386 
L 79.696185 294.383067 
L 79.369919 294.417643 
L 79.032451 294.585692 
L 78.695293 294.998843 
L 77.032338 294.846345 
L 76.697602 295.288583 
L 76.365828 295.488 
L 75.700299 295.280783 
L 74.710547 295.214856 
L 74.380444 295.464414 
L 73.892561 295.32924 
L 73.832727 294.205997 
L 73.83301 294.208567 
" clip-path="url(#pe2e0712a9f)" style="fill: none; stroke: #000000; stroke-width: 1.5; stroke-linecap: square"/>
   </g>
   <g id="patch_3">
    <path d="M 57.6 307.584 
L 57.6 41.472 
" style="fill: none; stroke: #000000; stroke-width: 0.8; stroke-linejoin: miter; stroke-linecap: square"/>
   </g>
   <g id="patch_4">
    <path d="M 414.72 307.584 
L 414.72 41.472 
" style="fill: none; stroke: #000000; stroke-width: 0.8; stroke-linejoin: miter; stroke-linecap: square"/>
   </g>
   <g id="patch_5">
    <path d="M 57.6 307.584 
L 414.72 307.584 
" style="fill: none; stroke: #000000; stroke-width: 0.8; stroke-linejoin: miter; stroke-linecap: square"/>
   </g>
   <g id="patch_6">
    <path d="M 57.6 41.472 
L 414.72 41.472 
" style="fill: none; stroke: #000000; stroke-width: 0.8; stroke-linejoin: miter; stroke-linecap: square"/>
   </g>
   <g id="text_18">
    <!-- 2025-06-16 trial 23 -->
    <g transform="translate(178.0125 35.472) scale(0.12 -0.12)">
     <defs>
      <path id="DejaVuSans-2d" d="M 313 2009 
L 1997 2009 
L 1997 1497 
L 313 1497 
L 313 2009 
z
" transform="scale(0.015625)"/>
      <path id="DejaVuSans-36" d="M 2113 2584 
Q 1688 2584 1439 2293 
Q 1191 2003 1191 1497 
Q 1191 994 1439 701 
Q 1688 409 2113 409 
Q 2538 409 2786 701 
Q 3034 994 3034 1497 
Q 3034 2003 2786 2293 
Q 2538 2584 2113 2584 
z
M 3366 4563 
L 3366 3988 
Q 3128 4100 2886 4159 
Q 2644 4219 2406 4219 
Q 1781 4219 1451 3797 
Q 1122 3375 1075 2522 
Q 1259 2794 1537 2939 
Q 1816 3084 2150 3084 
Q 2853 3084 3261 2657 
Q 3669 2231 3669 1497 
Q 3669 778 3244 343 
Q 2819 -91 2113 -91 
Q 1303 -91 875 529 
Q 447 1150 447 2328 
Q 447 3434 972 4092 
Q 1497 4750 2381 4750 
Q 2619 4750 2861 4703 
Q 3103 4656 3366 4563 
z
" transform="scale(0.015625)"/>
      <path id="DejaVuSans-6c" d="M 603 4863 
L 1178 4863 
L 1178 0 
L 603 0 
L 603 4863 
z
" transform="scale(0.015625)"/>
     </defs>
     <use xlink:href="#DejaVuSans-32"/>
     <use xlink:href="#DejaVuSans-30" transform="translate(63.623047 0)"/>
     <use xlink:href="#DejaVuSans-32" transform="translate(127.246094 0)"/>
     <use xlink:href="#DejaVuSans-35" transform="translate(190.869141 0)"/>
     <use xlink:href="#DejaVuSans-2d" transform="translate(254.492188 0)"/>
     <use xlink:href="#DejaVuSans-30" transform="translate(290.576172 0)"/>
     <use xlink:href="#DejaVuSans-36" transform="translate(354.199219 0)"/>
     <use xlink:href="#DejaVuSans-2d" transform="translate(417.822266 0)"/>
     <use xlink:href="#DejaVuSans-31" transform="translate(453.90625 0)"/>
     <use xlink:href="#DejaVuSans-36" transform="translate(517.529297 0)"/>
     <use xlink:href="#DejaVuSans-20" transform="translate(581.152344 0)"/>
     <use xlink:href="#DejaVuSans-74" transform="translate(612.939453 0)"/>
     <use xlink:href="#DejaVuSans-72" transform="translate(652.148438 0)"/>
     <use xlink:href="#DejaVuSans-69" transform="translate(693.261719 0)"/>
     <use xlink:href="#DejaVuSans-61" transform="translate(721.044922 0)"/>
     <use xlink:href="#DejaVuSans-6c" transform="translate(782.324219 0)"/>
     <use xlink:href="#DejaVuSans-20" transform="translate(810.107422 0)"/>
     <use xlink:href="#DejaVuSans-32" transform="translate(841.894531 0)"/>
     <use xlink:href="#DejaVuSans-33" transform="translate(905.517578 0)"/>
    </g>
   </g>
  </g>
 </g>
 <defs>
  <clipPath id="pe2e0712a9f">
   <rect x="57.6" y="41.472" width="357.12" height="266.112"/>
  </clipPath>
 </defs>
</svg>
