<?xml version="1.0" encoding="utf-8" standalone="no"?>
<!DOCTYPE svg PUBLIC "-//W3C//DTD SVG 1.1//EN"
  "http://www.w3.org/Graphics/SVG/1.1/DTD/svg11.dtd">
<svg xmlns:xlink="http://www.w3.org/1999/xlink" width="432pt" height="288pt" viewBox="0 0 432 288" xmlns="http://www.w3.org/2000/svg" version="1.1">
 <metadata>
  <rdf:RDF xmlns:dc="http://purl.org/dc/elements/1.1/" xmlns:cc="http://creativecommons.org/ns#" xmlns:rdf="http://www.w3.org/1999/02/22-rdf-syntax-ns#">
   <cc:Work>
    <dc:type rdf:resource="http://purl.org/dc/dcmitype/StillImage"/>
    <dc:date>2025-07-03T20:54:36.046568</dc:date>
    <dc:format>image/svg+xml</dc:format>
    <dc:creator>
     <cc:Agent>
      <dc:title>Matplotlib v3.9.2, https://matplotlib.org/</dc:title>
     </cc:Agent>
    </dc:creator>
   </cc:Work>
  </rdf:RDF>
 </metadata>
 <defs>
  <style type="text/css">*{stroke-linejoin: round; stroke-linecap: butt}</style>
 </defs>
 <g id="figure_1">
  <g id="patch_1">
   <path d="M 0 288 
L 432 288 
L 432 0 
L 0 0 
z
" style="fill: #ffffff"/>
  </g>
  <g id="axes_1">
   <g id="patch_2">
    <path d="M 54 256.32 
L 388.8 256.32 
L 388.8 34.56 
L 54 34.56 
z
" style="fill: #ffffff"/>
   </g>
   <g id="matplotlib.axis_1">
    <g id="xtick_1">
     <g id="line2d_1">
      <defs>
       <path id="m8582f0ccb8" d="M 0 0 
L 0 3.5 
" style="stroke: #000000; stroke-width: 0.8"/>
      </defs>
      <g>
       <use xlink:href="#m8582f0ccb8" x="69.316085" y="256.32" style="stroke: #000000; stroke-width: 0.8"/>
      </g>
     </g>
     <g id="text_1">
      <!-- 0.00 -->
      <g transform="translate(58.183273 270.918437) scale(0.1 -0.1)">
       <defs>
        <path id="DejaVuSans-30" d="M 2034 4250 
Q 1547 4250 1301 3770 
Q 1056 3291 1056 2328 
Q 1056 1369 1301 889 
Q 1547 409 2034 409 
Q 2525 409 2770 889 
Q 3016 1369 3016 2328 
Q 3016 3291 2770 3770 
Q 2525 4250 2034 4250 
z
M 2034 4750 
Q 2819 4750 3233 4129 
Q 3647 3509 3647 2328 
Q 3647 1150 3233 529 
Q 2819 -91 2034 -91 
Q 1250 -91 836 529 
Q 422 1150 422 2328 
Q 422 3509 836 4129 
Q 1250 4750 2034 4750 
z
" transform="scale(0.015625)"/>
        <path id="DejaVuSans-2e" d="M 684 794 
L 1344 794 
L 1344 0 
L 684 0 
L 684 794 
z
" transform="scale(0.015625)"/>
       </defs>
       <use xlink:href="#DejaVuSans-30"/>
       <use xlink:href="#DejaVuSans-2e" x="63.623047"/>
       <use xlink:href="#DejaVuSans-30" x="95.410156"/>
       <use xlink:href="#DejaVuSans-30" x="159.033203"/>
      </g>
     </g>
    </g>
    <g id="xtick_2">
     <g id="line2d_2">
      <g>
       <use xlink:href="#m8582f0ccb8" x="130.140361" y="256.32" style="stroke: #000000; stroke-width: 0.8"/>
      </g>
     </g>
     <g id="text_2">
      <!-- 0.05 -->
      <g transform="translate(119.007549 270.918437) scale(0.1 -0.1)">
       <defs>
        <path id="DejaVuSans-35" d="M 691 4666 
L 3169 4666 
L 3169 4134 
L 1269 4134 
L 1269 2991 
Q 1406 3038 1543 3061 
Q 1681 3084 1819 3084 
Q 2600 3084 3056 2656 
Q 3513 2228 3513 1497 
Q 3513 744 3044 326 
Q 2575 -91 1722 -91 
Q 1428 -91 1123 -41 
Q 819 9 494 109 
L 494 744 
Q 775 591 1075 516 
Q 1375 441 1709 441 
Q 2250 441 2565 725 
Q 2881 1009 2881 1497 
Q 2881 1984 2565 2268 
Q 2250 2553 1709 2553 
Q 1456 2553 1204 2497 
Q 953 2441 691 2322 
L 691 4666 
z
" transform="scale(0.015625)"/>
       </defs>
       <use xlink:href="#DejaVuSans-30"/>
       <use xlink:href="#DejaVuSans-2e" x="63.623047"/>
       <use xlink:href="#DejaVuSans-30" x="95.410156"/>
       <use xlink:href="#DejaVuSans-35" x="159.033203"/>
      </g>
     </g>
    </g>
    <g id="xtick_3">
     <g id="line2d_3">
      <g>
       <use xlink:href="#m8582f0ccb8" x="190.964637" y="256.32" style="stroke: #000000; stroke-width: 0.8"/>
      </g>
     </g>
     <g id="text_3">
      <!-- 0.10 -->
      <g transform="translate(179.831825 270.918437) scale(0.1 -0.1)">
       <defs>
        <path id="DejaVuSans-31" d="M 794 531 
L 1825 531 
L 1825 4091 
L 703 3866 
L 703 4441 
L 1819 4666 
L 2450 4666 
L 2450 531 
L 3481 531 
L 3481 0 
L 794 0 
L 794 531 
z
" transform="scale(0.015625)"/>
       </defs>
       <use xlink:href="#DejaVuSans-30"/>
       <use xlink:href="#DejaVuSans-2e" x="63.623047"/>
       <use xlink:href="#DejaVuSans-31" x="95.410156"/>
       <use xlink:href="#DejaVuSans-30" x="159.033203"/>
      </g>
     </g>
    </g>
    <g id="xtick_4">
     <g id="line2d_4">
      <g>
       <use xlink:href="#m8582f0ccb8" x="251.788913" y="256.32" style="stroke: #000000; stroke-width: 0.8"/>
      </g>
     </g>
     <g id="text_4">
      <!-- 0.15 -->
      <g transform="translate(240.6561 270.918437) scale(0.1 -0.1)">
       <use xlink:href="#DejaVuSans-30"/>
       <use xlink:href="#DejaVuSans-2e" x="63.623047"/>
       <use xlink:href="#DejaVuSans-31" x="95.410156"/>
       <use xlink:href="#DejaVuSans-35" x="159.033203"/>
      </g>
     </g>
    </g>
    <g id="xtick_5">
     <g id="line2d_5">
      <g>
       <use xlink:href="#m8582f0ccb8" x="312.613189" y="256.32" style="stroke: #000000; stroke-width: 0.8"/>
      </g>
     </g>
     <g id="text_5">
      <!-- 0.20 -->
      <g transform="translate(301.480376 270.918437) scale(0.1 -0.1)">
       <defs>
        <path id="DejaVuSans-32" d="M 1228 531 
L 3431 531 
L 3431 0 
L 469 0 
L 469 531 
Q 828 903 1448 1529 
Q 2069 2156 2228 2338 
Q 2531 2678 2651 2914 
Q 2772 3150 2772 3378 
Q 2772 3750 2511 3984 
Q 2250 4219 1831 4219 
Q 1534 4219 1204 4116 
Q 875 4013 500 3803 
L 500 4441 
Q 881 4594 1212 4672 
Q 1544 4750 1819 4750 
Q 2544 4750 2975 4387 
Q 3406 4025 3406 3419 
Q 3406 3131 3298 2873 
Q 3191 2616 2906 2266 
Q 2828 2175 2409 1742 
Q 1991 1309 1228 531 
z
" transform="scale(0.015625)"/>
       </defs>
       <use xlink:href="#DejaVuSans-30"/>
       <use xlink:href="#DejaVuSans-2e" x="63.623047"/>
       <use xlink:href="#DejaVuSans-32" x="95.410156"/>
       <use xlink:href="#DejaVuSans-30" x="159.033203"/>
      </g>
     </g>
    </g>
    <g id="xtick_6">
     <g id="line2d_6">
      <g>
       <use xlink:href="#m8582f0ccb8" x="373.437465" y="256.32" style="stroke: #000000; stroke-width: 0.8"/>
      </g>
     </g>
     <g id="text_6">
      <!-- 0.25 -->
      <g transform="translate(362.304652 270.918437) scale(0.1 -0.1)">
       <use xlink:href="#DejaVuSans-30"/>
       <use xlink:href="#DejaVuSans-2e" x="63.623047"/>
       <use xlink:href="#DejaVuSans-32" x="95.410156"/>
       <use xlink:href="#DejaVuSans-35" x="159.033203"/>
      </g>
     </g>
    </g>
    <g id="text_7">
     <!-- Strain -->
     <g transform="translate(206.588281 284.596563) scale(0.1 -0.1)">
      <defs>
       <path id="DejaVuSans-53" d="M 3425 4513 
L 3425 3897 
Q 3066 4069 2747 4153 
Q 2428 4238 2131 4238 
Q 1616 4238 1336 4038 
Q 1056 3838 1056 3469 
Q 1056 3159 1242 3001 
Q 1428 2844 1947 2747 
L 2328 2669 
Q 3034 2534 3370 2195 
Q 3706 1856 3706 1288 
Q 3706 609 3251 259 
Q 2797 -91 1919 -91 
Q 1588 -91 1214 -16 
Q 841 59 441 206 
L 441 856 
Q 825 641 1194 531 
Q 1563 422 1919 422 
Q 2459 422 2753 634 
Q 3047 847 3047 1241 
Q 3047 1584 2836 1778 
Q 2625 1972 2144 2069 
L 1759 2144 
Q 1053 2284 737 2584 
Q 422 2884 422 3419 
Q 422 4038 858 4394 
Q 1294 4750 2059 4750 
Q 2388 4750 2728 4690 
Q 3069 4631 3425 4513 
z
" transform="scale(0.015625)"/>
       <path id="DejaVuSans-74" d="M 1172 4494 
L 1172 3500 
L 2356 3500 
L 2356 3053 
L 1172 3053 
L 1172 1153 
Q 1172 725 1289 603 
Q 1406 481 1766 481 
L 2356 481 
L 2356 0 
L 1766 0 
Q 1100 0 847 248 
Q 594 497 594 1153 
L 594 3053 
L 172 3053 
L 172 3500 
L 594 3500 
L 594 4494 
L 1172 4494 
z
" transform="scale(0.015625)"/>
       <path id="DejaVuSans-72" d="M 2631 2963 
Q 2534 3019 2420 3045 
Q 2306 3072 2169 3072 
Q 1681 3072 1420 2755 
Q 1159 2438 1159 1844 
L 1159 0 
L 581 0 
L 581 3500 
L 1159 3500 
L 1159 2956 
Q 1341 3275 1631 3429 
Q 1922 3584 2338 3584 
Q 2397 3584 2469 3576 
Q 2541 3569 2628 3553 
L 2631 2963 
z
" transform="scale(0.015625)"/>
       <path id="DejaVuSans-61" d="M 2194 1759 
Q 1497 1759 1228 1600 
Q 959 1441 959 1056 
Q 959 750 1161 570 
Q 1363 391 1709 391 
Q 2188 391 2477 730 
Q 2766 1069 2766 1631 
L 2766 1759 
L 2194 1759 
z
M 3341 1997 
L 3341 0 
L 2766 0 
L 2766 531 
Q 2569 213 2275 61 
Q 1981 -91 1556 -91 
Q 1019 -91 701 211 
Q 384 513 384 1019 
Q 384 1609 779 1909 
Q 1175 2209 1959 2209 
L 2766 2209 
L 2766 2266 
Q 2766 2663 2505 2880 
Q 2244 3097 1772 3097 
Q 1472 3097 1187 3025 
Q 903 2953 641 2809 
L 641 3341 
Q 956 3463 1253 3523 
Q 1550 3584 1831 3584 
Q 2591 3584 2966 3190 
Q 3341 2797 3341 1997 
z
" transform="scale(0.015625)"/>
       <path id="DejaVuSans-69" d="M 603 3500 
L 1178 3500 
L 1178 0 
L 603 0 
L 603 3500 
z
M 603 4863 
L 1178 4863 
L 1178 4134 
L 603 4134 
L 603 4863 
z
" transform="scale(0.015625)"/>
       <path id="DejaVuSans-6e" d="M 3513 2113 
L 3513 0 
L 2938 0 
L 2938 2094 
Q 2938 2591 2744 2837 
Q 2550 3084 2163 3084 
Q 1697 3084 1428 2787 
Q 1159 2491 1159 1978 
L 1159 0 
L 581 0 
L 581 3500 
L 1159 3500 
L 1159 2956 
Q 1366 3272 1645 3428 
Q 1925 3584 2291 3584 
Q 2894 3584 3203 3211 
Q 3513 2838 3513 2113 
z
" transform="scale(0.015625)"/>
      </defs>
      <use xlink:href="#DejaVuSans-53"/>
      <use xlink:href="#DejaVuSans-74" x="63.476562"/>
      <use xlink:href="#DejaVuSans-72" x="102.685547"/>
      <use xlink:href="#DejaVuSans-61" x="143.798828"/>
      <use xlink:href="#DejaVuSans-69" x="205.078125"/>
      <use xlink:href="#DejaVuSans-6e" x="232.861328"/>
     </g>
    </g>
   </g>
   <g id="matplotlib.axis_2">
    <g id="ytick_1">
     <g id="line2d_7">
      <defs>
       <path id="m1cf90c529f" d="M 0 0 
L -3.5 0 
" style="stroke: #000000; stroke-width: 0.8"/>
      </defs>
      <g>
       <use xlink:href="#m1cf90c529f" x="54" y="236.170309" style="stroke: #000000; stroke-width: 0.8"/>
      </g>
     </g>
     <g id="text_8">
      <!-- 0 -->
      <g transform="translate(40.6375 239.969528) scale(0.1 -0.1)">
       <use xlink:href="#DejaVuSans-30"/>
      </g>
     </g>
    </g>
    <g id="ytick_2">
     <g id="line2d_8">
      <g>
       <use xlink:href="#m1cf90c529f" x="54" y="199.239625" style="stroke: #000000; stroke-width: 0.8"/>
      </g>
     </g>
     <g id="text_9">
      <!-- 500 -->
      <g transform="translate(27.9125 203.038843) scale(0.1 -0.1)">
       <use xlink:href="#DejaVuSans-35"/>
       <use xlink:href="#DejaVuSans-30" x="63.623047"/>
       <use xlink:href="#DejaVuSans-30" x="127.246094"/>
      </g>
     </g>
    </g>
    <g id="ytick_3">
     <g id="line2d_9">
      <g>
       <use xlink:href="#m1cf90c529f" x="54" y="162.30894" style="stroke: #000000; stroke-width: 0.8"/>
      </g>
     </g>
     <g id="text_10">
      <!-- 1000 -->
      <g transform="translate(21.55 166.108158) scale(0.1 -0.1)">
       <use xlink:href="#DejaVuSans-31"/>
       <use xlink:href="#DejaVuSans-30" x="63.623047"/>
       <use xlink:href="#DejaVuSans-30" x="127.246094"/>
       <use xlink:href="#DejaVuSans-30" x="190.869141"/>
      </g>
     </g>
    </g>
    <g id="ytick_4">
     <g id="line2d_10">
      <g>
       <use xlink:href="#m1cf90c529f" x="54" y="125.378255" style="stroke: #000000; stroke-width: 0.8"/>
      </g>
     </g>
     <g id="text_11">
      <!-- 1500 -->
      <g transform="translate(21.55 129.177473) scale(0.1 -0.1)">
       <use xlink:href="#DejaVuSans-31"/>
       <use xlink:href="#DejaVuSans-35" x="63.623047"/>
       <use xlink:href="#DejaVuSans-30" x="127.246094"/>
       <use xlink:href="#DejaVuSans-30" x="190.869141"/>
      </g>
     </g>
    </g>
    <g id="ytick_5">
     <g id="line2d_11">
      <g>
       <use xlink:href="#m1cf90c529f" x="54" y="88.44757" style="stroke: #000000; stroke-width: 0.8"/>
      </g>
     </g>
     <g id="text_12">
      <!-- 2000 -->
      <g transform="translate(21.55 92.246789) scale(0.1 -0.1)">
       <use xlink:href="#DejaVuSans-32"/>
       <use xlink:href="#DejaVuSans-30" x="63.623047"/>
       <use xlink:href="#DejaVuSans-30" x="127.246094"/>
       <use xlink:href="#DejaVuSans-30" x="190.869141"/>
      </g>
     </g>
    </g>
    <g id="ytick_6">
     <g id="line2d_12">
      <g>
       <use xlink:href="#m1cf90c529f" x="54" y="51.516885" style="stroke: #000000; stroke-width: 0.8"/>
      </g>
     </g>
     <g id="text_13">
      <!-- 2500 -->
      <g transform="translate(21.55 55.316104) scale(0.1 -0.1)">
       <use xlink:href="#DejaVuSans-32"/>
       <use xlink:href="#DejaVuSans-35" x="63.623047"/>
       <use xlink:href="#DejaVuSans-30" x="127.246094"/>
       <use xlink:href="#DejaVuSans-30" x="190.869141"/>
      </g>
     </g>
    </g>
    <g id="text_14">
     <!-- Stress [Pa] -->
     <g transform="translate(15.470312 172.147812) rotate(-90) scale(0.1 -0.1)">
      <defs>
       <path id="DejaVuSans-65" d="M 3597 1894 
L 3597 1613 
L 953 1613 
Q 991 1019 1311 708 
Q 1631 397 2203 397 
Q 2534 397 2845 478 
Q 3156 559 3463 722 
L 3463 178 
Q 3153 47 2828 -22 
Q 2503 -91 2169 -91 
Q 1331 -91 842 396 
Q 353 884 353 1716 
Q 353 2575 817 3079 
Q 1281 3584 2069 3584 
Q 2775 3584 3186 3129 
Q 3597 2675 3597 1894 
z
M 3022 2063 
Q 3016 2534 2758 2815 
Q 2500 3097 2075 3097 
Q 1594 3097 1305 2825 
Q 1016 2553 972 2059 
L 3022 2063 
z
" transform="scale(0.015625)"/>
       <path id="DejaVuSans-73" d="M 2834 3397 
L 2834 2853 
Q 2591 2978 2328 3040 
Q 2066 3103 1784 3103 
Q 1356 3103 1142 2972 
Q 928 2841 928 2578 
Q 928 2378 1081 2264 
Q 1234 2150 1697 2047 
L 1894 2003 
Q 2506 1872 2764 1633 
Q 3022 1394 3022 966 
Q 3022 478 2636 193 
Q 2250 -91 1575 -91 
Q 1294 -91 989 -36 
Q 684 19 347 128 
L 347 722 
Q 666 556 975 473 
Q 1284 391 1588 391 
Q 1994 391 2212 530 
Q 2431 669 2431 922 
Q 2431 1156 2273 1281 
Q 2116 1406 1581 1522 
L 1381 1569 
Q 847 1681 609 1914 
Q 372 2147 372 2553 
Q 372 3047 722 3315 
Q 1072 3584 1716 3584 
Q 2034 3584 2315 3537 
Q 2597 3491 2834 3397 
z
" transform="scale(0.015625)"/>
       <path id="DejaVuSans-20" transform="scale(0.015625)"/>
       <path id="DejaVuSans-5b" d="M 550 4863 
L 1875 4863 
L 1875 4416 
L 1125 4416 
L 1125 -397 
L 1875 -397 
L 1875 -844 
L 550 -844 
L 550 4863 
z
" transform="scale(0.015625)"/>
       <path id="DejaVuSans-50" d="M 1259 4147 
L 1259 2394 
L 2053 2394 
Q 2494 2394 2734 2622 
Q 2975 2850 2975 3272 
Q 2975 3691 2734 3919 
Q 2494 4147 2053 4147 
L 1259 4147 
z
M 628 4666 
L 2053 4666 
Q 2838 4666 3239 4311 
Q 3641 3956 3641 3272 
Q 3641 2581 3239 2228 
Q 2838 1875 2053 1875 
L 1259 1875 
L 1259 0 
L 628 0 
L 628 4666 
z
" transform="scale(0.015625)"/>
       <path id="DejaVuSans-5d" d="M 1947 4863 
L 1947 -844 
L 622 -844 
L 622 -397 
L 1369 -397 
L 1369 4416 
L 622 4416 
L 622 4863 
L 1947 4863 
z
" transform="scale(0.015625)"/>
      </defs>
      <use xlink:href="#DejaVuSans-53"/>
      <use xlink:href="#DejaVuSans-74" x="63.476562"/>
      <use xlink:href="#DejaVuSans-72" x="102.685547"/>
      <use xlink:href="#DejaVuSans-65" x="141.548828"/>
      <use xlink:href="#DejaVuSans-73" x="203.072266"/>
      <use xlink:href="#DejaVuSans-73" x="255.171875"/>
      <use xlink:href="#DejaVuSans-20" x="307.271484"/>
      <use xlink:href="#DejaVuSans-5b" x="339.058594"/>
      <use xlink:href="#DejaVuSans-50" x="378.072266"/>
      <use xlink:href="#DejaVuSans-61" x="433.875"/>
      <use xlink:href="#DejaVuSans-5d" x="495.154297"/>
     </g>
    </g>
   </g>
   <g id="line2d_13">
    <path d="M 69.316085 236.386068 
L 69.31618 236.45298 
L 69.317594 236.306753 
L 69.354845 236.371313 
L 69.791444 235.969873 
L 70.679856 234.868536 
L 71.605806 235.164007 
L 73.393734 235.387293 
L 73.859112 235.648898 
L 74.302282 235.213907 
L 74.744789 234.569752 
L 75.195417 234.229768 
L 75.636432 234.046463 
L 76.09601 233.703288 
L 76.547632 233.706436 
L 77.884103 234.060727 
L 78.780636 233.756341 
L 79.65496 232.48255 
L 80.094982 232.371145 
L 81.866644 232.316678 
L 83.647777 231.462339 
L 84.549778 231.069532 
L 85.450869 230.713287 
L 87.240288 230.347334 
L 88.116518 229.775582 
L 89.008576 229.376158 
L 90.775621 229.010453 
L 102.350544 224.579225 
L 103.236718 224.214912 
L 105.894575 223.234009 
L 108.104128 222.351054 
L 109.002069 222.029482 
L 109.88642 221.728951 
L 110.763479 221.298657 
L 114.377391 219.935507 
L 115.261908 219.462511 
L 119.281099 217.79891 
L 120.631243 217.050082 
L 122.444362 216.550237 
L 126.887177 214.596916 
L 127.769705 214.314368 
L 133.124953 211.811551 
L 135.353481 210.986583 
L 138.011238 209.770335 
L 139.340416 209.260943 
L 140.236038 208.681133 
L 142.449402 207.760385 
L 142.892903 207.417054 
L 143.790513 207.112162 
L 144.681162 206.912046 
L 145.569491 206.441114 
L 146.470913 205.880066 
L 146.91355 205.688227 
L 147.369813 205.62646 
L 148.275046 205.161698 
L 149.150282 204.650282 
L 152.243026 203.202606 
L 153.137818 202.858418 
L 154.037251 202.389627 
L 155.814738 201.435694 
L 157.601174 200.689629 
L 162.493021 198.359449 
L 163.37124 197.887038 
L 166.033244 196.506082 
L 166.935992 196.123824 
L 168.718781 195.064622 
L 170.065279 194.629638 
L 171.851881 193.623389 
L 172.305492 193.53126 
L 176.316396 191.407081 
L 177.206383 190.843348 
L 179.8977 189.568204 
L 182.138576 188.263583 
L 183.901892 187.471157 
L 188.370634 185.043624 
L 189.258797 184.522788 
L 194.137013 181.988484 
L 195.928918 181.04623 
L 196.824788 180.628977 
L 198.592828 179.549663 
L 199.925901 178.920572 
L 201.241873 178.059304 
L 203.929316 176.648161 
L 204.803392 176.111054 
L 205.680286 175.727667 
L 207.907903 174.376101 
L 209.242219 173.767485 
L 211.022772 172.591828 
L 218.129817 168.583549 
L 219.457338 167.787386 
L 220.79845 167.103584 
L 224.404738 164.908471 
L 224.860338 164.586783 
L 225.752644 164.210291 
L 227.105108 163.408999 
L 228.469257 162.499676 
L 229.810202 161.721147 
L 230.71411 161.138612 
L 231.604428 160.470011 
L 233.812488 159.205329 
L 235.120225 158.388724 
L 236.895557 157.227314 
L 237.78977 156.598106 
L 240.461883 154.996535 
L 243.141785 153.268311 
L 248.467201 149.969701 
L 249.805826 148.987625 
L 253.37555 146.617665 
L 255.185685 145.378168 
L 256.497773 144.557948 
L 257.388919 143.950539 
L 259.615873 142.360237 
L 260.967592 141.501908 
L 262.297931 140.51847 
L 264.517095 138.992941 
L 266.316127 137.776333 
L 266.75157 136.933263 
L 267.189105 137.071092 
L 268.067987 136.587733 
L 268.503533 136.001003 
L 268.954079 136.065952 
L 269.401558 135.307275 
L 269.851026 134.906878 
L 270.306294 134.833832 
L 271.187662 134.447964 
L 272.973435 132.818346 
L 273.850826 132.270767 
L 276.971578 130.013148 
L 278.282671 129.08625 
L 288.967892 120.867382 
L 289.856221 120.18648 
L 290.733611 119.652682 
L 294.297202 116.741799 
L 297.448367 114.341047 
L 298.356086 113.454769 
L 299.663202 112.551256 
L 300.556337 111.860078 
L 301.456101 110.942659 
L 302.331835 110.331357 
L 303.218009 109.807173 
L 308.132158 105.619307 
L 309.002588 105.114392 
L 309.913291 104.204758 
L 310.792152 103.353281 
L 312.55812 102.048776 
L 313.898071 100.718425 
L 319.197964 96.138492 
L 320.084635 95.345248 
L 322.308544 93.49842 
L 323.213032 92.609651 
L 324.539228 91.485688 
L 326.321852 89.813095 
L 327.20206 89.142781 
L 329.44045 87.199649 
L 330.331596 86.476395 
L 332.123791 84.717415 
L 345.050427 72.620546 
L 346.379108 71.345392 
L 347.258156 70.634517 
L 354.827803 62.942003 
L 355.711326 62.127194 
L 356.60529 61.398957 
L 357.497431 60.419567 
L 358.399018 59.282758 
L 360.1891 57.855792 
L 362.404785 55.484702 
L 363.742416 54.184091 
L 364.653989 53.143878 
L 365.973058 51.761054 
L 371.323582 46.17238 
L 372.6487 45.137325 
L 373.297793 44.64 
L 373.581818 44.988548 
L 373.434088 51.133831 
L 373.436512 79.645685 
L 372.99647 79.701009 
L 371.666628 81.726898 
L 371.201747 81.847493 
L 370.289056 82.432947 
L 369.835444 82.826416 
L 369.385811 83.024785 
L 368.922421 83.54531 
L 368.459861 83.59534 
L 366.207653 88.036637 
L 365.770615 88.151431 
L 365.310043 88.136785 
L 364.861735 88.40818 
L 363.516977 89.535569 
L 363.08168 89.940969 
L 362.633952 91.717106 
L 362.193765 92.35005 
L 361.744629 92.77466 
L 360.859615 93.377631 
L 359.501433 94.842357 
L 358.615673 96.006804 
L 357.722869 97.012975 
L 356.402391 98.766846 
L 355.518123 99.259656 
L 354.198805 100.489615 
L 353.763259 101.502327 
L 353.308073 102.144302 
L 352.408475 102.724384 
L 351.955526 102.992705 
L 351.511776 103.498593 
L 350.62295 104.927195 
L 348.860711 106.390441 
L 347.522169 108.072999 
L 345.747748 109.671009 
L 344.853287 110.70583 
L 343.066023 112.328315 
L 341.300303 114.304378 
L 339.495968 115.873038 
L 335.908346 119.363964 
L 333.241453 121.776763 
L 332.347489 122.590716 
L 331.00903 123.830446 
L 330.109265 124.712287 
L 328.786219 125.755127 
L 326.549735 127.775255 
L 322.97649 130.810391 
L 321.192706 132.418678 
L 318.965586 134.310816 
L 316.749238 136.1005 
L 314.074888 138.178628 
L 313.18283 139.106324 
L 312.288866 139.745341 
L 311.393887 140.191974 
L 310.055925 141.460588 
L 299.78804 149.26774 
L 298.909075 150.001115 
L 297.571113 150.805647 
L 296.21956 151.88827 
L 294.898005 152.666566 
L 294.00661 153.541244 
L 291.777916 154.937114 
L 291.336734 155.409525 
L 289.549304 156.358057 
L 288.660395 157.269403 
L 286.880754 158.210918 
L 286.429546 158.782047 
L 285.982316 159.146944 
L 284.191736 159.900454 
L 283.753124 160.521175 
L 283.315092 160.935353 
L 281.546223 161.727409 
L 280.653254 162.821477 
L 278.860644 163.53697 
L 277.971238 164.689505 
L 276.202867 165.303025 
L 274.870125 166.485572 
L 273.539455 166.905862 
L 272.649054 168.076069 
L 272.208536 168.30523 
L 270.864441 168.666122 
L 270.412819 169.037344 
L 269.958711 169.696914 
L 269.509077 170.031059 
L 268.177205 170.376532 
L 267.732875 170.618766 
L 266.849684 171.57698 
L 265.961686 172.003965 
L 265.058276 172.360395 
L 263.294628 173.724379 
L 259.709823 175.826837 
L 259.258615 176.218826 
L 257.448645 176.994023 
L 257.000255 177.219602 
L 256.547472 177.653398 
L 255.660386 178.038459 
L 255.21705 178.206076 
L 254.339826 178.846261 
L 253.894584 179.245803 
L 253.014707 179.599878 
L 252.116435 179.847625 
L 251.676248 180.176476 
L 250.778555 181.001718 
L 248.978446 181.712126 
L 248.089951 182.472905 
L 245.847812 183.639342 
L 244.970587 184.145775 
L 240.513374 186.507366 
L 239.169777 187.25347 
L 238.286917 187.683413 
L 237.397594 188.174276 
L 234.734969 189.491256 
L 233.85675 189.956933 
L 232.061778 190.699904 
L 231.174444 191.367629 
L 230.291916 191.681902 
L 228.95329 192.261984 
L 228.064796 192.854367 
L 224.963641 194.33171 
L 223.169747 195.161856 
L 221.845209 195.726796 
L 220.956051 196.117306 
L 220.063331 196.713932 
L 219.180305 196.949549 
L 218.29496 197.393428 
L 217.417652 197.952179 
L 216.077369 198.459682 
L 214.743384 199.202147 
L 213.404935 199.579128 
L 212.087938 200.483351 
L 210.744174 200.932251 
L 209.404886 201.64044 
L 208.072559 202.155282 
L 207.185638 202.70905 
L 204.959181 203.559613 
L 201.397786 205.136651 
L 200.500176 205.305672 
L 199.178207 206.127585 
L 197.821848 206.435708 
L 196.047428 207.426289 
L 194.734491 207.752707 
L 192.076486 209.004556 
L 191.639282 209.129977 
L 190.295519 209.787484 
L 187.63103 210.77898 
L 186.286272 211.442832 
L 183.592282 212.46474 
L 183.157067 212.700401 
L 182.265424 212.987766 
L 165.775405 219.076702 
L 164.88923 219.314064 
L 163.996095 219.58943 
L 163.094011 220.022137 
L 156.854857 222.054174 
L 155.961059 222.402683 
L 154.176778 222.966212 
L 152.829534 223.532597 
L 151.931924 223.657732 
L 149.245061 224.440772 
L 148.353583 224.7915 
L 147.456056 225.179373 
L 145.694148 225.548807 
L 144.810709 226.007964 
L 143.025433 226.254223 
L 142.14307 226.764121 
L 140.806765 227.063728 
L 139.908741 227.396549 
L 138.575916 227.804144 
L 138.139541 227.886519 
L 137.241444 228.296438 
L 135.8884 228.544645 
L 135.447385 228.609482 
L 134.108179 229.20965 
L 130.987012 230.138114 
L 125.64796 231.768973 
L 124.773553 232.019173 
L 123.446197 232.570722 
L 121.234822 233.167261 
L 119.874817 233.727491 
L 117.649354 234.266807 
L 107.386395 237.283354 
L 106.504696 237.432642 
L 101.995171 238.866677 
L 101.086788 238.975949 
L 99.298363 239.625676 
L 97.533307 240.086259 
L 96.653762 240.335958 
L 95.760627 240.421983 
L 95.320108 240.504312 
L 94.412174 240.868942 
L 88.203235 242.354439 
L 87.297007 242.589293 
L 86.401221 242.836214 
L 84.652406 243.240056 
L 82.399825 243.760536 
L 81.505447 244.15527 
L 79.274682 244.473155 
L 77.947989 244.889341 
L 76.608038 244.975869 
L 75.708687 245.23255 
L 74.806768 245.522747 
L 72.577293 245.991766 
L 72.130643 246.183031 
L 71.695759 246.24 
L 69.919267 245.996811 
L 69.317491 246.13588 
L 69.218182 245.240928 
L 69.218481 245.241634 
" clip-path="url(#pd4fceec759)" style="fill: none; stroke: #ff0000; stroke-width: 1.5; stroke-linecap: square"/>
   </g>
   <g id="line2d_14">
    <path d="M 69.316085 236.386068 
L 69.31618 236.45298 
L 69.317594 236.306753 
L 69.354845 236.371313 
L 69.791444 235.969873 
L 70.679856 234.868536 
L 71.14424 236.522025 
L 72.499107 235.752482 
L 73.393734 235.388597 
L 73.859112 235.648898 
L 74.302282 235.213907 
L 74.744789 234.569752 
L 75.195417 234.229768 
L 75.636432 234.046463 
L 76.09601 233.703288 
L 76.547632 233.706436 
L 77.884103 234.060727 
L 78.780636 233.756341 
L 79.65496 232.48255 
L 80.094982 232.371145 
L 81.866644 232.316678 
L 83.647777 231.462339 
L 84.549778 231.069532 
L 85.450869 230.713287 
L 87.240288 230.347334 
L 88.116518 229.775582 
L 89.008576 229.376158 
L 90.775621 229.010453 
L 102.350544 224.579225 
L 103.236718 224.214912 
L 105.894575 223.234009 
L 108.104128 222.351054 
L 109.002069 222.029482 
L 109.88642 221.728951 
L 110.763479 221.298657 
L 114.377391 219.935507 
L 115.261908 219.462511 
L 119.281099 217.79891 
L 120.631243 217.050082 
L 122.444362 216.550237 
L 126.887177 214.596916 
L 127.769705 214.314368 
L 133.124953 211.811551 
L 135.353481 210.986583 
L 138.011238 209.770335 
L 139.340416 209.260943 
L 140.236038 208.681133 
L 142.449402 207.760385 
L 142.892903 207.417054 
L 143.790513 207.112162 
L 144.681162 206.912046 
L 145.569491 206.441114 
L 146.470913 205.880066 
L 146.91355 205.688227 
L 147.369813 205.62646 
L 148.275046 205.161698 
L 149.150282 204.650282 
L 152.243026 203.202606 
L 153.137818 202.858418 
L 154.037251 202.389627 
L 155.814738 201.435694 
L 157.601174 200.689629 
L 162.493021 198.359449 
L 163.37124 197.887038 
L 166.033244 196.506082 
L 166.935992 196.123824 
L 168.718781 195.064622 
L 170.065279 194.629638 
L 171.851881 193.623389 
L 172.305492 193.53126 
L 176.316396 191.407081 
L 177.206383 190.843348 
L 179.8977 189.568204 
L 182.138576 188.263583 
L 183.901892 187.471157 
L 188.370634 185.043624 
L 189.258797 184.522788 
L 194.137013 181.988484 
L 195.928918 181.04623 
L 196.824788 180.628977 
L 198.592828 179.549663 
L 199.925901 178.920572 
L 201.241873 178.059304 
L 203.929316 176.648161 
L 204.803392 176.111054 
L 205.680286 175.727667 
L 207.907903 174.376101 
L 209.242219 173.767485 
L 211.022772 172.591828 
L 218.129817 168.583549 
L 219.457338 167.787386 
L 220.79845 167.103584 
L 224.404738 164.908471 
L 224.860338 164.586783 
L 225.752644 164.210291 
L 227.105108 163.408999 
L 228.469257 162.499676 
L 229.810202 161.721147 
L 230.71411 161.138612 
L 231.604428 160.470011 
L 233.812488 159.205329 
L 235.120225 158.388724 
L 236.895557 157.227314 
L 237.78977 156.598106 
L 240.461883 154.996535 
L 243.141785 153.268311 
L 248.467201 149.969701 
L 249.805826 148.987625 
L 253.37555 146.617665 
L 255.185685 145.378168 
L 256.497773 144.557948 
L 257.388919 143.950539 
L 259.615873 142.360237 
L 260.967592 141.501908 
L 262.297931 140.51847 
L 264.517095 138.992941 
L 266.316127 137.776333 
L 266.75157 136.933263 
L 267.189105 137.071092 
L 268.067987 136.587733 
L 268.503533 136.001003 
L 268.954079 136.065952 
L 269.401558 135.307275 
L 269.851026 134.906878 
L 270.306294 134.833832 
L 271.187662 134.447964 
L 272.973435 132.818346 
L 273.850826 132.270767 
L 276.971578 130.013148 
L 278.282671 129.08625 
L 288.967892 120.867382 
L 289.856221 120.18648 
L 290.733611 119.652682 
L 294.297202 116.741799 
L 297.448367 114.341047 
L 298.356086 113.454769 
L 299.663202 112.551256 
L 300.556337 111.860078 
L 301.456101 110.942659 
L 302.331835 110.331357 
L 303.218009 109.807173 
L 308.132158 105.619307 
L 309.002588 105.114392 
L 309.913291 104.204758 
L 310.792152 103.353281 
L 312.55812 102.048776 
L 313.898071 100.718425 
L 319.197964 96.138492 
L 320.084635 95.345248 
L 322.308544 93.49842 
L 323.213032 92.609651 
L 324.539228 91.485688 
L 326.321852 89.813095 
L 327.20206 89.142781 
L 329.44045 87.199649 
L 330.331596 86.476395 
L 332.123791 84.717415 
L 345.050427 72.620546 
L 346.379108 71.345392 
L 347.258156 70.634517 
L 354.827803 62.942003 
L 355.711326 62.127194 
L 356.60529 61.398957 
L 357.497431 60.419567 
L 358.399018 59.282758 
L 360.1891 57.855792 
L 362.404785 55.484702 
L 363.742416 54.184091 
L 364.653989 53.143878 
L 365.973058 51.761054 
L 371.323582 46.17238 
L 372.6487 45.137325 
L 373.297793 44.64 
L 373.581818 44.988548 
L 373.434088 51.133831 
L 373.436512 79.645685 
L 372.99647 79.701009 
L 371.666628 81.726898 
L 371.201747 81.847493 
L 370.289056 82.432947 
L 369.835444 82.826416 
L 369.385811 83.024785 
L 368.922421 83.54531 
L 368.459861 83.59534 
L 366.207653 88.036637 
L 365.770615 88.151431 
L 365.310043 88.136785 
L 364.861735 88.40818 
L 363.516977 89.535569 
L 363.08168 89.940969 
L 362.633952 91.717106 
L 362.193765 92.35005 
L 361.744629 92.77466 
L 360.859615 93.377631 
L 359.501433 94.842357 
L 358.615673 96.006804 
L 357.722869 97.012975 
L 356.402391 98.766846 
L 355.518123 99.259656 
L 354.198805 100.489615 
L 353.763259 101.502327 
L 353.308073 102.144302 
L 352.408475 102.724384 
L 351.955526 102.992705 
L 351.511776 103.498593 
L 350.62295 104.927195 
L 348.860711 106.390441 
L 347.522169 108.072999 
L 345.747748 109.671009 
L 344.853287 110.70583 
L 343.066023 112.328315 
L 341.300303 114.304378 
L 339.495968 115.873038 
L 335.908346 119.363964 
L 333.241453 121.776763 
L 332.347489 122.590716 
L 331.00903 123.830446 
L 330.109265 124.712287 
L 328.786219 125.755127 
L 326.549735 127.775255 
L 322.97649 130.810391 
L 321.192706 132.418678 
L 318.965586 134.310816 
L 316.749238 136.1005 
L 314.074888 138.178628 
L 313.18283 139.106324 
L 312.288866 139.745341 
L 311.393887 140.191974 
L 310.055925 141.460588 
L 299.78804 149.26774 
L 298.909075 150.001115 
L 297.571113 150.805647 
L 296.21956 151.88827 
L 294.898005 152.666566 
L 294.00661 153.541244 
L 291.777916 154.937114 
L 291.336734 155.409525 
L 289.549304 156.358057 
L 288.660395 157.269403 
L 286.880754 158.210918 
L 286.429546 158.782047 
L 285.982316 159.146944 
L 284.191736 159.900454 
L 283.753124 160.521175 
L 283.315092 160.935353 
L 281.546223 161.727409 
L 280.653254 162.821477 
L 278.860644 163.53697 
L 277.971238 164.689505 
L 276.202867 165.303025 
L 274.870125 166.485572 
L 273.539455 166.905862 
L 272.649054 168.076069 
L 272.208536 168.30523 
L 270.864441 168.666122 
L 270.412819 169.037344 
L 269.958711 169.696914 
L 269.509077 170.031059 
L 268.177205 170.376532 
L 267.732875 170.618766 
L 266.849684 171.57698 
L 265.961686 172.003965 
L 265.058276 172.360395 
L 263.294628 173.724379 
L 259.709823 175.826837 
L 259.258615 176.218826 
L 257.448645 176.994023 
L 257.000255 177.219602 
L 256.547472 177.653398 
L 255.660386 178.038459 
L 255.21705 178.206076 
L 254.339826 178.846261 
L 253.894584 179.245803 
L 253.014707 179.599878 
L 252.116435 179.847625 
L 251.676248 180.176476 
L 250.778555 181.001718 
L 248.978446 181.712126 
L 248.089951 182.472905 
L 245.847812 183.639342 
L 244.970587 184.145775 
L 240.513374 186.507366 
L 239.169777 187.25347 
L 238.286917 187.683413 
L 237.397594 188.174276 
L 234.734969 189.491256 
L 233.85675 189.956933 
L 232.061778 190.699904 
L 231.174444 191.367629 
L 230.291916 191.681902 
L 228.95329 192.261984 
L 228.064796 192.854367 
L 224.963641 194.33171 
L 223.169747 195.161856 
L 221.845209 195.726796 
L 220.956051 196.117306 
L 220.063331 196.713932 
L 219.180305 196.949549 
L 218.29496 197.393428 
L 217.417652 197.952179 
L 216.077369 198.459682 
L 214.743384 199.202147 
L 213.404935 199.579128 
L 212.087938 200.483351 
L 210.744174 200.932251 
L 209.404886 201.64044 
L 208.072559 202.155282 
L 207.185638 202.70905 
L 204.959181 203.559613 
L 201.397786 205.136651 
L 200.500176 205.305672 
L 199.178207 206.127585 
L 197.821848 206.435708 
L 196.047428 207.426289 
L 194.734491 207.752707 
L 192.076486 209.004556 
L 191.639282 209.129977 
L 190.295519 209.787484 
L 187.63103 210.77898 
L 186.286272 211.442832 
L 183.592282 212.46474 
L 183.157067 212.700401 
L 182.265424 212.987766 
L 165.775405 219.076702 
L 164.88923 219.314064 
L 163.996095 219.58943 
L 163.094011 220.022137 
L 156.854857 222.054174 
L 155.961059 222.402683 
L 154.176778 222.966212 
L 152.829534 223.532597 
L 151.931924 223.657732 
L 149.245061 224.440772 
L 148.353583 224.7915 
L 147.456056 225.179373 
L 145.694148 225.548807 
L 144.810709 226.007964 
L 143.025433 226.254223 
L 142.14307 226.764121 
L 140.806765 227.063728 
L 139.908741 227.396549 
L 138.575916 227.804144 
L 138.139541 227.886519 
L 137.241444 228.296438 
L 135.8884 228.544645 
L 135.447385 228.609482 
L 134.108179 229.20965 
L 130.987012 230.138114 
L 125.64796 231.768973 
L 124.773553 232.019173 
L 123.446197 232.570722 
L 121.234822 233.167261 
L 119.874817 233.727491 
L 117.649354 234.266807 
L 107.386395 237.283354 
L 106.504696 237.432642 
L 101.995171 238.866677 
L 101.086788 238.975949 
L 99.298363 239.625676 
L 97.533307 240.086259 
L 96.653762 240.335958 
L 95.760627 240.421983 
L 95.320108 240.504312 
L 94.412174 240.868942 
L 88.203235 242.354439 
L 87.297007 242.589293 
L 86.401221 242.836214 
L 84.652406 243.240056 
L 82.399825 243.760536 
L 81.505447 244.15527 
L 79.274682 244.473155 
L 77.947989 244.889341 
L 76.608038 244.975869 
L 75.708687 245.23255 
L 74.806768 245.522747 
L 72.577293 245.991766 
L 72.130643 246.183031 
L 71.695759 246.24 
L 69.919267 245.996811 
L 69.317491 246.13588 
L 69.218182 245.240928 
L 69.218481 245.241634 
" clip-path="url(#pd4fceec759)" style="fill: none; stroke: #000000; stroke-width: 1.5; stroke-linecap: square"/>
   </g>
   <g id="patch_3">
    <path d="M 54 256.32 
L 54 34.56 
" style="fill: none; stroke: #000000; stroke-width: 0.8; stroke-linejoin: miter; stroke-linecap: square"/>
   </g>
   <g id="patch_4">
    <path d="M 388.8 256.32 
L 388.8 34.56 
" style="fill: none; stroke: #000000; stroke-width: 0.8; stroke-linejoin: miter; stroke-linecap: square"/>
   </g>
   <g id="patch_5">
    <path d="M 54 256.32 
L 388.8 256.32 
" style="fill: none; stroke: #000000; stroke-width: 0.8; stroke-linejoin: miter; stroke-linecap: square"/>
   </g>
   <g id="patch_6">
    <path d="M 54 34.56 
L 388.8 34.56 
" style="fill: none; stroke: #000000; stroke-width: 0.8; stroke-linejoin: miter; stroke-linecap: square"/>
   </g>
   <g id="text_15">
    <!-- 2025-07-03 trial 31 -->
    <g transform="translate(163.2525 28.56) scale(0.12 -0.12)">
     <defs>
      <path id="DejaVuSans-2d" d="M 313 2009 
L 1997 2009 
L 1997 1497 
L 313 1497 
L 313 2009 
z
" transform="scale(0.015625)"/>
      <path id="DejaVuSans-37" d="M 525 4666 
L 3525 4666 
L 3525 4397 
L 1831 0 
L 1172 0 
L 2766 4134 
L 525 4134 
L 525 4666 
z
" transform="scale(0.015625)"/>
      <path id="DejaVuSans-33" d="M 2597 2516 
Q 3050 2419 3304 2112 
Q 3559 1806 3559 1356 
Q 3559 666 3084 287 
Q 2609 -91 1734 -91 
Q 1441 -91 1130 -33 
Q 819 25 488 141 
L 488 750 
Q 750 597 1062 519 
Q 1375 441 1716 441 
Q 2309 441 2620 675 
Q 2931 909 2931 1356 
Q 2931 1769 2642 2001 
Q 2353 2234 1838 2234 
L 1294 2234 
L 1294 2753 
L 1863 2753 
Q 2328 2753 2575 2939 
Q 2822 3125 2822 3475 
Q 2822 3834 2567 4026 
Q 2313 4219 1838 4219 
Q 1578 4219 1281 4162 
Q 984 4106 628 3988 
L 628 4550 
Q 988 4650 1302 4700 
Q 1616 4750 1894 4750 
Q 2613 4750 3031 4423 
Q 3450 4097 3450 3541 
Q 3450 3153 3228 2886 
Q 3006 2619 2597 2516 
z
" transform="scale(0.015625)"/>
      <path id="DejaVuSans-6c" d="M 603 4863 
L 1178 4863 
L 1178 0 
L 603 0 
L 603 4863 
z
" transform="scale(0.015625)"/>
     </defs>
     <use xlink:href="#DejaVuSans-32"/>
     <use xlink:href="#DejaVuSans-30" x="63.623047"/>
     <use xlink:href="#DejaVuSans-32" x="127.246094"/>
     <use xlink:href="#DejaVuSans-35" x="190.869141"/>
     <use xlink:href="#DejaVuSans-2d" x="254.492188"/>
     <use xlink:href="#DejaVuSans-30" x="290.576172"/>
     <use xlink:href="#DejaVuSans-37" x="354.199219"/>
     <use xlink:href="#DejaVuSans-2d" x="417.822266"/>
     <use xlink:href="#DejaVuSans-30" x="453.90625"/>
     <use xlink:href="#DejaVuSans-33" x="517.529297"/>
     <use xlink:href="#DejaVuSans-20" x="581.152344"/>
     <use xlink:href="#DejaVuSans-74" x="612.939453"/>
     <use xlink:href="#DejaVuSans-72" x="652.148438"/>
     <use xlink:href="#DejaVuSans-69" x="693.261719"/>
     <use xlink:href="#DejaVuSans-61" x="721.044922"/>
     <use xlink:href="#DejaVuSans-6c" x="782.324219"/>
     <use xlink:href="#DejaVuSans-20" x="810.107422"/>
     <use xlink:href="#DejaVuSans-33" x="841.894531"/>
     <use xlink:href="#DejaVuSans-31" x="905.517578"/>
    </g>
   </g>
  </g>
 </g>
 <defs>
  <clipPath id="pd4fceec759">
   <rect x="54" y="34.56" width="334.8" height="221.76"/>
  </clipPath>
 </defs>
</svg>
