<?xml version="1.0" encoding="utf-8" standalone="no"?>
<!DOCTYPE svg PUBLIC "-//W3C//DTD SVG 1.1//EN"
  "http://www.w3.org/Graphics/SVG/1.1/DTD/svg11.dtd">
<svg xmlns:xlink="http://www.w3.org/1999/xlink" width="460.8pt" height="345.6pt" viewBox="0 0 460.8 345.6" xmlns="http://www.w3.org/2000/svg" version="1.1">
 <metadata>
  <rdf:RDF xmlns:dc="http://purl.org/dc/elements/1.1/" xmlns:cc="http://creativecommons.org/ns#" xmlns:rdf="http://www.w3.org/1999/02/22-rdf-syntax-ns#">
   <cc:Work>
    <dc:type rdf:resource="http://purl.org/dc/dcmitype/StillImage"/>
    <dc:date>2025-07-16T22:12:01.551158</dc:date>
    <dc:format>image/svg+xml</dc:format>
    <dc:creator>
     <cc:Agent>
      <dc:title>Matplotlib v3.10.3, https://matplotlib.org/</dc:title>
     </cc:Agent>
    </dc:creator>
   </cc:Work>
  </rdf:RDF>
 </metadata>
 <defs>
  <style type="text/css">*{stroke-linejoin: round; stroke-linecap: butt}</style>
 </defs>
 <g id="figure_1">
  <g id="patch_1">
   <path d="M 0 345.6 
L 460.8 345.6 
L 460.8 0 
L 0 0 
z
" style="fill: #ffffff"/>
  </g>
  <g id="axes_1">
   <g id="patch_2">
    <path d="M 57.6 307.584 
L 414.72 307.584 
L 414.72 41.472 
L 57.6 41.472 
z
" style="fill: #ffffff"/>
   </g>
   <g id="matplotlib.axis_1">
    <g id="xtick_1">
     <g id="line2d_1">
      <defs>
       <path id="m1e53ac2264" d="M 0 0 
L 0 3.5 
" style="stroke: #000000; stroke-width: 0.8"/>
      </defs>
      <g>
       <use xlink:href="#m1e53ac2264" x="73.976471" y="307.584" style="stroke: #000000; stroke-width: 0.8"/>
      </g>
     </g>
     <g id="text_1">
      <!-- 0.000 -->
      <g transform="translate(59.662409 322.182437) scale(0.1 -0.1)">
       <defs>
        <path id="DejaVuSans-30" d="M 2034 4250 
Q 1547 4250 1301 3770 
Q 1056 3291 1056 2328 
Q 1056 1369 1301 889 
Q 1547 409 2034 409 
Q 2525 409 2770 889 
Q 3016 1369 3016 2328 
Q 3016 3291 2770 3770 
Q 2525 4250 2034 4250 
z
M 2034 4750 
Q 2819 4750 3233 4129 
Q 3647 3509 3647 2328 
Q 3647 1150 3233 529 
Q 2819 -91 2034 -91 
Q 1250 -91 836 529 
Q 422 1150 422 2328 
Q 422 3509 836 4129 
Q 1250 4750 2034 4750 
z
" transform="scale(0.015625)"/>
        <path id="DejaVuSans-2e" d="M 684 794 
L 1344 794 
L 1344 0 
L 684 0 
L 684 794 
z
" transform="scale(0.015625)"/>
       </defs>
       <use xlink:href="#DejaVuSans-30"/>
       <use xlink:href="#DejaVuSans-2e" transform="translate(63.623047 0)"/>
       <use xlink:href="#DejaVuSans-30" transform="translate(95.410156 0)"/>
       <use xlink:href="#DejaVuSans-30" transform="translate(159.033203 0)"/>
       <use xlink:href="#DejaVuSans-30" transform="translate(222.65625 0)"/>
      </g>
     </g>
    </g>
    <g id="xtick_2">
     <g id="line2d_2">
      <g>
       <use xlink:href="#m1e53ac2264" x="119.386932" y="307.584" style="stroke: #000000; stroke-width: 0.8"/>
      </g>
     </g>
     <g id="text_2">
      <!-- 0.025 -->
      <g transform="translate(105.07287 322.182437) scale(0.1 -0.1)">
       <defs>
        <path id="DejaVuSans-32" d="M 1228 531 
L 3431 531 
L 3431 0 
L 469 0 
L 469 531 
Q 828 903 1448 1529 
Q 2069 2156 2228 2338 
Q 2531 2678 2651 2914 
Q 2772 3150 2772 3378 
Q 2772 3750 2511 3984 
Q 2250 4219 1831 4219 
Q 1534 4219 1204 4116 
Q 875 4013 500 3803 
L 500 4441 
Q 881 4594 1212 4672 
Q 1544 4750 1819 4750 
Q 2544 4750 2975 4387 
Q 3406 4025 3406 3419 
Q 3406 3131 3298 2873 
Q 3191 2616 2906 2266 
Q 2828 2175 2409 1742 
Q 1991 1309 1228 531 
z
" transform="scale(0.015625)"/>
        <path id="DejaVuSans-35" d="M 691 4666 
L 3169 4666 
L 3169 4134 
L 1269 4134 
L 1269 2991 
Q 1406 3038 1543 3061 
Q 1681 3084 1819 3084 
Q 2600 3084 3056 2656 
Q 3513 2228 3513 1497 
Q 3513 744 3044 326 
Q 2575 -91 1722 -91 
Q 1428 -91 1123 -41 
Q 819 9 494 109 
L 494 744 
Q 775 591 1075 516 
Q 1375 441 1709 441 
Q 2250 441 2565 725 
Q 2881 1009 2881 1497 
Q 2881 1984 2565 2268 
Q 2250 2553 1709 2553 
Q 1456 2553 1204 2497 
Q 953 2441 691 2322 
L 691 4666 
z
" transform="scale(0.015625)"/>
       </defs>
       <use xlink:href="#DejaVuSans-30"/>
       <use xlink:href="#DejaVuSans-2e" transform="translate(63.623047 0)"/>
       <use xlink:href="#DejaVuSans-30" transform="translate(95.410156 0)"/>
       <use xlink:href="#DejaVuSans-32" transform="translate(159.033203 0)"/>
       <use xlink:href="#DejaVuSans-35" transform="translate(222.65625 0)"/>
      </g>
     </g>
    </g>
    <g id="xtick_3">
     <g id="line2d_3">
      <g>
       <use xlink:href="#m1e53ac2264" x="164.797393" y="307.584" style="stroke: #000000; stroke-width: 0.8"/>
      </g>
     </g>
     <g id="text_3">
      <!-- 0.050 -->
      <g transform="translate(150.48333 322.182437) scale(0.1 -0.1)">
       <use xlink:href="#DejaVuSans-30"/>
       <use xlink:href="#DejaVuSans-2e" transform="translate(63.623047 0)"/>
       <use xlink:href="#DejaVuSans-30" transform="translate(95.410156 0)"/>
       <use xlink:href="#DejaVuSans-35" transform="translate(159.033203 0)"/>
       <use xlink:href="#DejaVuSans-30" transform="translate(222.65625 0)"/>
      </g>
     </g>
    </g>
    <g id="xtick_4">
     <g id="line2d_4">
      <g>
       <use xlink:href="#m1e53ac2264" x="210.207854" y="307.584" style="stroke: #000000; stroke-width: 0.8"/>
      </g>
     </g>
     <g id="text_4">
      <!-- 0.075 -->
      <g transform="translate(195.893791 322.182437) scale(0.1 -0.1)">
       <defs>
        <path id="DejaVuSans-37" d="M 525 4666 
L 3525 4666 
L 3525 4397 
L 1831 0 
L 1172 0 
L 2766 4134 
L 525 4134 
L 525 4666 
z
" transform="scale(0.015625)"/>
       </defs>
       <use xlink:href="#DejaVuSans-30"/>
       <use xlink:href="#DejaVuSans-2e" transform="translate(63.623047 0)"/>
       <use xlink:href="#DejaVuSans-30" transform="translate(95.410156 0)"/>
       <use xlink:href="#DejaVuSans-37" transform="translate(159.033203 0)"/>
       <use xlink:href="#DejaVuSans-35" transform="translate(222.65625 0)"/>
      </g>
     </g>
    </g>
    <g id="xtick_5">
     <g id="line2d_5">
      <g>
       <use xlink:href="#m1e53ac2264" x="255.618314" y="307.584" style="stroke: #000000; stroke-width: 0.8"/>
      </g>
     </g>
     <g id="text_5">
      <!-- 0.100 -->
      <g transform="translate(241.304252 322.182437) scale(0.1 -0.1)">
       <defs>
        <path id="DejaVuSans-31" d="M 794 531 
L 1825 531 
L 1825 4091 
L 703 3866 
L 703 4441 
L 1819 4666 
L 2450 4666 
L 2450 531 
L 3481 531 
L 3481 0 
L 794 0 
L 794 531 
z
" transform="scale(0.015625)"/>
       </defs>
       <use xlink:href="#DejaVuSans-30"/>
       <use xlink:href="#DejaVuSans-2e" transform="translate(63.623047 0)"/>
       <use xlink:href="#DejaVuSans-31" transform="translate(95.410156 0)"/>
       <use xlink:href="#DejaVuSans-30" transform="translate(159.033203 0)"/>
       <use xlink:href="#DejaVuSans-30" transform="translate(222.65625 0)"/>
      </g>
     </g>
    </g>
    <g id="xtick_6">
     <g id="line2d_6">
      <g>
       <use xlink:href="#m1e53ac2264" x="301.028775" y="307.584" style="stroke: #000000; stroke-width: 0.8"/>
      </g>
     </g>
     <g id="text_6">
      <!-- 0.125 -->
      <g transform="translate(286.714713 322.182437) scale(0.1 -0.1)">
       <use xlink:href="#DejaVuSans-30"/>
       <use xlink:href="#DejaVuSans-2e" transform="translate(63.623047 0)"/>
       <use xlink:href="#DejaVuSans-31" transform="translate(95.410156 0)"/>
       <use xlink:href="#DejaVuSans-32" transform="translate(159.033203 0)"/>
       <use xlink:href="#DejaVuSans-35" transform="translate(222.65625 0)"/>
      </g>
     </g>
    </g>
    <g id="xtick_7">
     <g id="line2d_7">
      <g>
       <use xlink:href="#m1e53ac2264" x="346.439236" y="307.584" style="stroke: #000000; stroke-width: 0.8"/>
      </g>
     </g>
     <g id="text_7">
      <!-- 0.150 -->
      <g transform="translate(332.125173 322.182437) scale(0.1 -0.1)">
       <use xlink:href="#DejaVuSans-30"/>
       <use xlink:href="#DejaVuSans-2e" transform="translate(63.623047 0)"/>
       <use xlink:href="#DejaVuSans-31" transform="translate(95.410156 0)"/>
       <use xlink:href="#DejaVuSans-35" transform="translate(159.033203 0)"/>
       <use xlink:href="#DejaVuSans-30" transform="translate(222.65625 0)"/>
      </g>
     </g>
    </g>
    <g id="xtick_8">
     <g id="line2d_8">
      <g>
       <use xlink:href="#m1e53ac2264" x="391.849697" y="307.584" style="stroke: #000000; stroke-width: 0.8"/>
      </g>
     </g>
     <g id="text_8">
      <!-- 0.175 -->
      <g transform="translate(377.535634 322.182437) scale(0.1 -0.1)">
       <use xlink:href="#DejaVuSans-30"/>
       <use xlink:href="#DejaVuSans-2e" transform="translate(63.623047 0)"/>
       <use xlink:href="#DejaVuSans-31" transform="translate(95.410156 0)"/>
       <use xlink:href="#DejaVuSans-37" transform="translate(159.033203 0)"/>
       <use xlink:href="#DejaVuSans-35" transform="translate(222.65625 0)"/>
      </g>
     </g>
    </g>
    <g id="text_9">
     <!-- Strain -->
     <g transform="translate(221.348281 335.860562) scale(0.1 -0.1)">
      <defs>
       <path id="DejaVuSans-53" d="M 3425 4513 
L 3425 3897 
Q 3066 4069 2747 4153 
Q 2428 4238 2131 4238 
Q 1616 4238 1336 4038 
Q 1056 3838 1056 3469 
Q 1056 3159 1242 3001 
Q 1428 2844 1947 2747 
L 2328 2669 
Q 3034 2534 3370 2195 
Q 3706 1856 3706 1288 
Q 3706 609 3251 259 
Q 2797 -91 1919 -91 
Q 1588 -91 1214 -16 
Q 841 59 441 206 
L 441 856 
Q 825 641 1194 531 
Q 1563 422 1919 422 
Q 2459 422 2753 634 
Q 3047 847 3047 1241 
Q 3047 1584 2836 1778 
Q 2625 1972 2144 2069 
L 1759 2144 
Q 1053 2284 737 2584 
Q 422 2884 422 3419 
Q 422 4038 858 4394 
Q 1294 4750 2059 4750 
Q 2388 4750 2728 4690 
Q 3069 4631 3425 4513 
z
" transform="scale(0.015625)"/>
       <path id="DejaVuSans-74" d="M 1172 4494 
L 1172 3500 
L 2356 3500 
L 2356 3053 
L 1172 3053 
L 1172 1153 
Q 1172 725 1289 603 
Q 1406 481 1766 481 
L 2356 481 
L 2356 0 
L 1766 0 
Q 1100 0 847 248 
Q 594 497 594 1153 
L 594 3053 
L 172 3053 
L 172 3500 
L 594 3500 
L 594 4494 
L 1172 4494 
z
" transform="scale(0.015625)"/>
       <path id="DejaVuSans-72" d="M 2631 2963 
Q 2534 3019 2420 3045 
Q 2306 3072 2169 3072 
Q 1681 3072 1420 2755 
Q 1159 2438 1159 1844 
L 1159 0 
L 581 0 
L 581 3500 
L 1159 3500 
L 1159 2956 
Q 1341 3275 1631 3429 
Q 1922 3584 2338 3584 
Q 2397 3584 2469 3576 
Q 2541 3569 2628 3553 
L 2631 2963 
z
" transform="scale(0.015625)"/>
       <path id="DejaVuSans-61" d="M 2194 1759 
Q 1497 1759 1228 1600 
Q 959 1441 959 1056 
Q 959 750 1161 570 
Q 1363 391 1709 391 
Q 2188 391 2477 730 
Q 2766 1069 2766 1631 
L 2766 1759 
L 2194 1759 
z
M 3341 1997 
L 3341 0 
L 2766 0 
L 2766 531 
Q 2569 213 2275 61 
Q 1981 -91 1556 -91 
Q 1019 -91 701 211 
Q 384 513 384 1019 
Q 384 1609 779 1909 
Q 1175 2209 1959 2209 
L 2766 2209 
L 2766 2266 
Q 2766 2663 2505 2880 
Q 2244 3097 1772 3097 
Q 1472 3097 1187 3025 
Q 903 2953 641 2809 
L 641 3341 
Q 956 3463 1253 3523 
Q 1550 3584 1831 3584 
Q 2591 3584 2966 3190 
Q 3341 2797 3341 1997 
z
" transform="scale(0.015625)"/>
       <path id="DejaVuSans-69" d="M 603 3500 
L 1178 3500 
L 1178 0 
L 603 0 
L 603 3500 
z
M 603 4863 
L 1178 4863 
L 1178 4134 
L 603 4134 
L 603 4863 
z
" transform="scale(0.015625)"/>
       <path id="DejaVuSans-6e" d="M 3513 2113 
L 3513 0 
L 2938 0 
L 2938 2094 
Q 2938 2591 2744 2837 
Q 2550 3084 2163 3084 
Q 1697 3084 1428 2787 
Q 1159 2491 1159 1978 
L 1159 0 
L 581 0 
L 581 3500 
L 1159 3500 
L 1159 2956 
Q 1366 3272 1645 3428 
Q 1925 3584 2291 3584 
Q 2894 3584 3203 3211 
Q 3513 2838 3513 2113 
z
" transform="scale(0.015625)"/>
      </defs>
      <use xlink:href="#DejaVuSans-53"/>
      <use xlink:href="#DejaVuSans-74" transform="translate(63.476562 0)"/>
      <use xlink:href="#DejaVuSans-72" transform="translate(102.685547 0)"/>
      <use xlink:href="#DejaVuSans-61" transform="translate(143.798828 0)"/>
      <use xlink:href="#DejaVuSans-69" transform="translate(205.078125 0)"/>
      <use xlink:href="#DejaVuSans-6e" transform="translate(232.861328 0)"/>
     </g>
    </g>
   </g>
   <g id="matplotlib.axis_2">
    <g id="ytick_1">
     <g id="line2d_9">
      <defs>
       <path id="m0395c82fa3" d="M 0 0 
L -3.5 0 
" style="stroke: #000000; stroke-width: 0.8"/>
      </defs>
      <g>
       <use xlink:href="#m0395c82fa3" x="57.6" y="298.072251" style="stroke: #000000; stroke-width: 0.8"/>
      </g>
     </g>
     <g id="text_10">
      <!-- −250 -->
      <g transform="translate(23.132812 301.87147) scale(0.1 -0.1)">
       <defs>
        <path id="DejaVuSans-2212" d="M 678 2272 
L 4684 2272 
L 4684 1741 
L 678 1741 
L 678 2272 
z
" transform="scale(0.015625)"/>
       </defs>
       <use xlink:href="#DejaVuSans-2212"/>
       <use xlink:href="#DejaVuSans-32" transform="translate(83.789062 0)"/>
       <use xlink:href="#DejaVuSans-35" transform="translate(147.412109 0)"/>
       <use xlink:href="#DejaVuSans-30" transform="translate(211.035156 0)"/>
      </g>
     </g>
    </g>
    <g id="ytick_2">
     <g id="line2d_10">
      <g>
       <use xlink:href="#m0395c82fa3" x="57.6" y="263.079447" style="stroke: #000000; stroke-width: 0.8"/>
      </g>
     </g>
     <g id="text_11">
      <!-- 0 -->
      <g transform="translate(44.2375 266.878666) scale(0.1 -0.1)">
       <use xlink:href="#DejaVuSans-30"/>
      </g>
     </g>
    </g>
    <g id="ytick_3">
     <g id="line2d_11">
      <g>
       <use xlink:href="#m0395c82fa3" x="57.6" y="228.086644" style="stroke: #000000; stroke-width: 0.8"/>
      </g>
     </g>
     <g id="text_12">
      <!-- 250 -->
      <g transform="translate(31.5125 231.885863) scale(0.1 -0.1)">
       <use xlink:href="#DejaVuSans-32"/>
       <use xlink:href="#DejaVuSans-35" transform="translate(63.623047 0)"/>
       <use xlink:href="#DejaVuSans-30" transform="translate(127.246094 0)"/>
      </g>
     </g>
    </g>
    <g id="ytick_4">
     <g id="line2d_12">
      <g>
       <use xlink:href="#m0395c82fa3" x="57.6" y="193.09384" style="stroke: #000000; stroke-width: 0.8"/>
      </g>
     </g>
     <g id="text_13">
      <!-- 500 -->
      <g transform="translate(31.5125 196.893059) scale(0.1 -0.1)">
       <use xlink:href="#DejaVuSans-35"/>
       <use xlink:href="#DejaVuSans-30" transform="translate(63.623047 0)"/>
       <use xlink:href="#DejaVuSans-30" transform="translate(127.246094 0)"/>
      </g>
     </g>
    </g>
    <g id="ytick_5">
     <g id="line2d_13">
      <g>
       <use xlink:href="#m0395c82fa3" x="57.6" y="158.101037" style="stroke: #000000; stroke-width: 0.8"/>
      </g>
     </g>
     <g id="text_14">
      <!-- 750 -->
      <g transform="translate(31.5125 161.900256) scale(0.1 -0.1)">
       <use xlink:href="#DejaVuSans-37"/>
       <use xlink:href="#DejaVuSans-35" transform="translate(63.623047 0)"/>
       <use xlink:href="#DejaVuSans-30" transform="translate(127.246094 0)"/>
      </g>
     </g>
    </g>
    <g id="ytick_6">
     <g id="line2d_14">
      <g>
       <use xlink:href="#m0395c82fa3" x="57.6" y="123.108233" style="stroke: #000000; stroke-width: 0.8"/>
      </g>
     </g>
     <g id="text_15">
      <!-- 1000 -->
      <g transform="translate(25.15 126.907452) scale(0.1 -0.1)">
       <use xlink:href="#DejaVuSans-31"/>
       <use xlink:href="#DejaVuSans-30" transform="translate(63.623047 0)"/>
       <use xlink:href="#DejaVuSans-30" transform="translate(127.246094 0)"/>
       <use xlink:href="#DejaVuSans-30" transform="translate(190.869141 0)"/>
      </g>
     </g>
    </g>
    <g id="ytick_7">
     <g id="line2d_15">
      <g>
       <use xlink:href="#m0395c82fa3" x="57.6" y="88.11543" style="stroke: #000000; stroke-width: 0.8"/>
      </g>
     </g>
     <g id="text_16">
      <!-- 1250 -->
      <g transform="translate(25.15 91.914649) scale(0.1 -0.1)">
       <use xlink:href="#DejaVuSans-31"/>
       <use xlink:href="#DejaVuSans-32" transform="translate(63.623047 0)"/>
       <use xlink:href="#DejaVuSans-35" transform="translate(127.246094 0)"/>
       <use xlink:href="#DejaVuSans-30" transform="translate(190.869141 0)"/>
      </g>
     </g>
    </g>
    <g id="ytick_8">
     <g id="line2d_16">
      <g>
       <use xlink:href="#m0395c82fa3" x="57.6" y="53.122626" style="stroke: #000000; stroke-width: 0.8"/>
      </g>
     </g>
     <g id="text_17">
      <!-- 1500 -->
      <g transform="translate(25.15 56.921845) scale(0.1 -0.1)">
       <use xlink:href="#DejaVuSans-31"/>
       <use xlink:href="#DejaVuSans-35" transform="translate(63.623047 0)"/>
       <use xlink:href="#DejaVuSans-30" transform="translate(127.246094 0)"/>
       <use xlink:href="#DejaVuSans-30" transform="translate(190.869141 0)"/>
      </g>
     </g>
    </g>
    <g id="text_18">
     <!-- Stress [Pa] -->
     <g transform="translate(17.053125 201.235813) rotate(-90) scale(0.1 -0.1)">
      <defs>
       <path id="DejaVuSans-65" d="M 3597 1894 
L 3597 1613 
L 953 1613 
Q 991 1019 1311 708 
Q 1631 397 2203 397 
Q 2534 397 2845 478 
Q 3156 559 3463 722 
L 3463 178 
Q 3153 47 2828 -22 
Q 2503 -91 2169 -91 
Q 1331 -91 842 396 
Q 353 884 353 1716 
Q 353 2575 817 3079 
Q 1281 3584 2069 3584 
Q 2775 3584 3186 3129 
Q 3597 2675 3597 1894 
z
M 3022 2063 
Q 3016 2534 2758 2815 
Q 2500 3097 2075 3097 
Q 1594 3097 1305 2825 
Q 1016 2553 972 2059 
L 3022 2063 
z
" transform="scale(0.015625)"/>
       <path id="DejaVuSans-73" d="M 2834 3397 
L 2834 2853 
Q 2591 2978 2328 3040 
Q 2066 3103 1784 3103 
Q 1356 3103 1142 2972 
Q 928 2841 928 2578 
Q 928 2378 1081 2264 
Q 1234 2150 1697 2047 
L 1894 2003 
Q 2506 1872 2764 1633 
Q 3022 1394 3022 966 
Q 3022 478 2636 193 
Q 2250 -91 1575 -91 
Q 1294 -91 989 -36 
Q 684 19 347 128 
L 347 722 
Q 666 556 975 473 
Q 1284 391 1588 391 
Q 1994 391 2212 530 
Q 2431 669 2431 922 
Q 2431 1156 2273 1281 
Q 2116 1406 1581 1522 
L 1381 1569 
Q 847 1681 609 1914 
Q 372 2147 372 2553 
Q 372 3047 722 3315 
Q 1072 3584 1716 3584 
Q 2034 3584 2315 3537 
Q 2597 3491 2834 3397 
z
" transform="scale(0.015625)"/>
       <path id="DejaVuSans-20" transform="scale(0.015625)"/>
       <path id="DejaVuSans-5b" d="M 550 4863 
L 1875 4863 
L 1875 4416 
L 1125 4416 
L 1125 -397 
L 1875 -397 
L 1875 -844 
L 550 -844 
L 550 4863 
z
" transform="scale(0.015625)"/>
       <path id="DejaVuSans-50" d="M 1259 4147 
L 1259 2394 
L 2053 2394 
Q 2494 2394 2734 2622 
Q 2975 2850 2975 3272 
Q 2975 3691 2734 3919 
Q 2494 4147 2053 4147 
L 1259 4147 
z
M 628 4666 
L 2053 4666 
Q 2838 4666 3239 4311 
Q 3641 3956 3641 3272 
Q 3641 2581 3239 2228 
Q 2838 1875 2053 1875 
L 1259 1875 
L 1259 0 
L 628 0 
L 628 4666 
z
" transform="scale(0.015625)"/>
       <path id="DejaVuSans-5d" d="M 1947 4863 
L 1947 -844 
L 622 -844 
L 622 -397 
L 1369 -397 
L 1369 4416 
L 622 4416 
L 622 4863 
L 1947 4863 
z
" transform="scale(0.015625)"/>
      </defs>
      <use xlink:href="#DejaVuSans-53"/>
      <use xlink:href="#DejaVuSans-74" transform="translate(63.476562 0)"/>
      <use xlink:href="#DejaVuSans-72" transform="translate(102.685547 0)"/>
      <use xlink:href="#DejaVuSans-65" transform="translate(141.548828 0)"/>
      <use xlink:href="#DejaVuSans-73" transform="translate(203.072266 0)"/>
      <use xlink:href="#DejaVuSans-73" transform="translate(255.171875 0)"/>
      <use xlink:href="#DejaVuSans-20" transform="translate(307.271484 0)"/>
      <use xlink:href="#DejaVuSans-5b" transform="translate(339.058594 0)"/>
      <use xlink:href="#DejaVuSans-50" transform="translate(378.072266 0)"/>
      <use xlink:href="#DejaVuSans-61" transform="translate(433.875 0)"/>
      <use xlink:href="#DejaVuSans-5d" transform="translate(495.154297 0)"/>
     </g>
    </g>
   </g>
   <g id="line2d_17">
    <path d="M 73.976471 263.733908 
L 73.974975 264.024719 
L 73.975818 263.711441 
L 74.640968 261.744867 
L 75.291931 258.109593 
L 75.950937 257.432608 
L 76.634936 257.882149 
L 77.338239 257.817021 
L 78.017289 257.20947 
L 78.773054 256.076398 
L 79.470912 255.407177 
L 80.234102 255.289379 
L 80.889395 255.504781 
L 82.308869 256.464351 
L 83.852075 257.633423 
L 84.662778 258.374641 
L 88.506442 262.667333 
L 90.021932 263.848797 
L 90.880148 264.416513 
L 91.729456 264.731649 
L 92.569855 264.657881 
L 95.052448 263.577922 
L 95.873049 263.593035 
L 96.688702 263.810797 
L 97.498415 264.317139 
L 98.29922 265.007605 
L 99.086166 265.534602 
L 99.855294 265.69951 
L 100.607595 265.55463 
L 101.341088 265.187857 
L 102.764521 263.959771 
L 104.142419 262.543431 
L 106.168682 260.307973 
L 106.844763 259.769174 
L 108.199894 259.211195 
L 110.237046 258.791309 
L 111.586238 258.598185 
L 112.923551 258.132858 
L 120.273089 253.789381 
L 122.224121 252.627981 
L 126.78742 250.299281 
L 128.091078 249.465411 
L 132.008981 247.234084 
L 137.24935 244.049089 
L 141.867088 241.410564 
L 147.145072 238.494673 
L 150.42055 236.61035 
L 152.372573 235.552226 
L 154.792804 234.035561 
L 162.005982 229.096073 
L 165.224048 227.256011 
L 176.440259 220.304137 
L 178.828814 218.665903 
L 181.226278 217.145107 
L 191.721865 210.851244 
L 194.142095 209.332219 
L 198.156612 206.231729 
L 200.571893 204.587593 
L 205.108473 201.724225 
L 206.410151 200.970614 
L 210.96751 198.016953 
L 212.918543 197.029646 
L 214.53698 195.910147 
L 219.366553 192.38936 
L 232.294248 183.500058 
L 235.213374 181.469379 
L 237.644493 179.635808 
L 242.205812 176.419535 
L 244.827976 174.61075 
L 247.459049 172.937698 
L 250.753335 170.598375 
L 255.376025 167.609307 
L 272.48295 155.121314 
L 275.110063 153.209845 
L 281.639536 148.435412 
L 286.324589 144.939412 
L 292.726075 139.880715 
L 295.123539 138.126814 
L 299.121621 135.006733 
L 301.527994 133.273487 
L 305.538945 130.365858 
L 309.542967 126.963099 
L 311.954289 125.056941 
L 313.567777 123.827675 
L 316.80762 121.258788 
L 319.569355 119.186209 
L 327.796161 112.850446 
L 335.759676 106.0473 
L 347.820246 96.090426 
L 350.894781 93.415902 
L 357.429652 87.997293 
L 363.354021 83.106787 
L 366.628509 80.324859 
L 368.580531 78.510172 
L 371.341277 76.000889 
L 377.84472 70.321953 
L 381.10634 67.283313 
L 382.414947 66.293055 
L 385.173714 64.471877 
L 390.456647 61.80355 
L 392.626936 60.819194 
L 393.307471 60.582694 
L 394.694773 59.722562 
L 395.357491 59.205303 
L 396.055844 58.434578 
L 396.713365 57.541103 
L 397.380042 56.121812 
L 398.030417 53.751359 
L 398.220008 53.765043 
L 398.487273 54.858281 
L 398.336813 78.155884 
L 398.335854 78.147548 
L 398.336379 84.242091 
L 398.336658 78.135727 
L 398.336813 84.085298 
L 397.681117 84.434883 
L 396.355187 87.49322 
L 395.690489 87.212644 
L 395.031484 87.164345 
L 394.331151 87.2965 
L 392.993342 87.965795 
L 392.335574 88.070194 
L 391.660978 88.41196 
L 391.010139 88.478941 
L 390.359795 90.18032 
L 389.683961 91.275624 
L 389.019511 92.655376 
L 388.367187 93.409153 
L 387.708182 92.987201 
L 387.048527 92.952309 
L 385.038349 94.364666 
L 384.37724 93.991014 
L 383.721451 96.69084 
L 383.055146 97.854452 
L 382.377209 98.348843 
L 381.720678 98.636427 
L 380.386829 98.969654 
L 379.06758 100.515678 
L 378.391499 101.501215 
L 377.058764 102.785512 
L 376.383425 103.151695 
L 374.363844 104.883097 
L 371.718665 106.997502 
L 371.049761 107.618184 
L 369.724913 109.104447 
L 368.421503 110.111081 
L 366.405634 111.635049 
L 364.380855 113.644334 
L 362.376122 115.061265 
L 361.04747 116.43364 
L 360.397373 117.169252 
L 358.399322 118.73807 
L 357.063988 119.71955 
L 355.729149 121.047369 
L 353.739264 122.576722 
L 352.386854 123.587857 
L 350.430872 125.586962 
L 349.097271 126.469815 
L 348.424283 126.922232 
L 345.756214 129.432548 
L 343.775485 130.743438 
L 343.102126 131.353423 
L 341.746252 132.79691 
L 339.082637 134.536722 
L 337.738456 135.925511 
L 337.065098 136.46313 
L 335.744612 137.318467 
L 334.402844 138.41141 
L 333.734063 139.178742 
L 332.378932 140.240628 
L 328.393841 143.133614 
L 327.054919 144.410239 
L 326.387252 144.661565 
L 325.716368 145.036896 
L 323.711634 146.84214 
L 323.045576 147.504648 
L 321.727565 148.0575 
L 321.065095 148.45828 
L 319.735205 149.792444 
L 319.085603 150.418437 
L 317.756208 151.267724 
L 317.095965 151.596507 
L 316.422112 152.192329 
L 315.093212 153.699257 
L 314.438166 154.154772 
L 312.429226 155.110581 
L 311.766632 155.701165 
L 311.100079 156.528544 
L 310.439836 157.018215 
L 308.429906 158.071692 
L 307.760383 158.713471 
L 307.099026 159.817036 
L 306.425667 160.386818 
L 305.095577 160.954304 
L 304.429147 161.213745 
L 303.769028 161.667233 
L 303.103464 162.584166 
L 302.438272 163.22447 
L 299.771069 164.369751 
L 298.431404 165.916955 
L 297.108691 166.755989 
L 295.751704 167.315222 
L 294.421443 168.774938 
L 293.751301 169.167162 
L 293.096502 169.386399 
L 291.763767 170.133113 
L 291.089295 170.751951 
L 290.427072 171.661802 
L 289.747403 172.258878 
L 288.430629 172.756764 
L 287.753558 173.073818 
L 287.086015 173.524908 
L 285.768127 175.092324 
L 284.412377 175.787438 
L 283.070857 176.37699 
L 282.407892 176.80831 
L 281.730821 177.609722 
L 281.059071 178.195586 
L 277.72915 180.220805 
L 277.070515 180.93709 
L 274.41816 182.381536 
L 273.764599 182.805258 
L 272.448165 184.330894 
L 269.75275 185.682006 
L 269.102406 186.21063 
L 268.452681 186.894604 
L 267.77858 187.350046 
L 266.464528 187.948303 
L 265.143794 189.204641 
L 264.473282 189.82547 
L 263.802645 190.244914 
L 262.455185 190.81263 
L 261.782445 191.176822 
L 260.442904 192.733763 
L 259.779444 193.011278 
L 258.46564 193.428697 
L 257.804407 193.698834 
L 257.12647 194.273411 
L 256.460334 195.423769 
L 255.796503 195.723966 
L 254.460427 196.079066 
L 253.130413 196.683422 
L 252.476357 197.925228 
L 251.808814 198.607506 
L 250.476945 198.827264 
L 249.150272 199.292628 
L 247.832508 201.183148 
L 246.523035 201.655224 
L 245.190423 202.087669 
L 244.523869 202.649706 
L 243.87204 203.514411 
L 242.527798 204.151285 
L 241.207312 204.627935 
L 240.54031 205.170736 
L 239.860517 205.992214 
L 239.186663 206.45732 
L 237.837224 206.924232 
L 237.179455 207.176776 
L 236.523048 207.647414 
L 235.852659 208.48158 
L 235.175341 208.947423 
L 233.161451 209.741496 
L 232.490691 210.149284 
L 231.829953 211.096609 
L 231.150284 211.695751 
L 229.81792 212.167569 
L 228.474048 212.852577 
L 227.142921 214.201936 
L 225.139673 214.987415 
L 224.459277 215.429551 
L 223.134708 216.836302 
L 219.79229 218.404051 
L 219.127221 218.977374 
L 217.804261 219.788524 
L 216.470906 220.412451 
L 212.485444 222.960094 
L 209.169629 224.899079 
L 207.145578 226.158294 
L 205.813461 227.103996 
L 203.815162 228.12745 
L 202.474879 229.121765 
L 201.144989 229.916244 
L 199.814109 230.4165 
L 195.834339 232.963303 
L 193.873408 234.088224 
L 189.884311 236.531626 
L 188.573476 237.219068 
L 180.560483 241.790454 
L 176.583682 244.286313 
L 174.601252 245.345134 
L 171.915736 246.784342 
L 169.287138 248.438289 
L 166.652847 249.763083 
L 165.995574 250.021049 
L 164.644155 251.041036 
L 163.964609 251.458856 
L 162.644618 251.971394 
L 161.305078 252.555635 
L 159.312594 254.120382 
L 157.973548 254.574606 
L 156.627573 255.232836 
L 155.294343 256.326148 
L 152.641245 257.146998 
L 149.986539 258.83757 
L 147.341607 260.262689 
L 146.672703 260.789759 
L 144.690489 261.681722 
L 143.352681 262.486528 
L 142.01481 263.419847 
L 141.338234 263.688546 
L 140.687395 263.789719 
L 140.018986 264.029574 
L 138.696269 264.880633 
L 138.024024 265.461037 
L 137.361554 265.847212 
L 134.701774 266.767501 
L 132.72748 268.120106 
L 130.745266 268.830213 
L 127.390103 270.890029 
L 126.717081 271.120492 
L 124.726454 272.262693 
L 124.056559 272.467196 
L 122.06754 273.509201 
L 120.729979 274.373095 
L 118.755685 275.126338 
L 116.74031 276.206703 
L 115.388643 276.968724 
L 114.036729 277.512724 
L 113.365103 277.904283 
L 112.031501 278.440464 
L 108.09305 280.472386 
L 106.791372 280.969728 
L 104.138025 282.400564 
L 102.811847 283.030393 
L 102.155316 283.2784 
L 100.138333 284.319447 
L 96.78812 285.9603 
L 95.433236 286.621591 
L 94.753196 286.782146 
L 92.067336 288.21401 
L 88.739147 289.556269 
L 87.382283 290.24349 
L 86.713008 290.518311 
L 86.046331 291.002154 
L 85.390047 291.255177 
L 84.74094 291.272407 
L 82.738063 292.211507 
L 82.080047 292.834107 
L 81.431188 293.176527 
L 78.764975 293.761284 
L 78.104754 294.751607 
L 77.424837 294.868051 
L 74.787454 294.582277 
L 74.034983 295.488 
L 74.014057 295.472361 
L 73.83318 294.296075 
L 73.83318 294.296075 
" clip-path="url(#ped151ece51)" style="fill: none; stroke: #ff0000; stroke-width: 1.5; stroke-linecap: square"/>
   </g>
   <g id="line2d_18">
    <path d="M 73.976471 263.733908 
L 73.974975 264.024719 
L 73.975818 263.711441 
L 74.640968 261.744867 
L 75.291931 258.109593 
L 75.950937 257.432608 
L 76.634936 257.882149 
L 77.338239 257.817021 
L 78.017289 257.20947 
L 78.773054 256.076398 
L 79.470912 263.888686 
L 80.889395 263.324741 
L 82.308869 263.062128 
L 83.852075 262.981869 
L 87.204763 263.865311 
L 88.506442 263.812198 
L 89.156786 263.674105 
L 90.021932 263.848797 
L 90.880148 264.416513 
L 91.729456 264.731649 
L 92.569855 264.657881 
L 95.052448 263.577922 
L 95.873049 263.593035 
L 96.688702 263.810797 
L 97.498415 264.317139 
L 98.29922 265.007605 
L 99.086166 265.534602 
L 99.855294 265.69951 
L 100.607595 265.55463 
L 101.341088 265.187857 
L 102.764521 263.959771 
L 104.142419 262.543431 
L 106.168682 260.307973 
L 106.844763 259.769174 
L 108.199894 259.211195 
L 110.237046 258.791309 
L 111.586238 258.598185 
L 112.923551 258.132858 
L 120.273089 253.789381 
L 122.224121 252.627981 
L 126.78742 250.299281 
L 128.091078 249.465411 
L 132.008981 247.234084 
L 137.24935 244.049089 
L 141.867088 241.410564 
L 147.145072 238.494673 
L 150.42055 236.61035 
L 152.372573 235.552226 
L 154.792804 234.035561 
L 162.005982 229.096073 
L 165.224048 227.256011 
L 176.440259 220.304137 
L 178.828814 218.665903 
L 181.226278 217.145107 
L 191.721865 210.851244 
L 194.142095 209.332219 
L 198.156612 206.231729 
L 200.571893 204.587593 
L 205.108473 201.724225 
L 206.410151 200.970614 
L 210.96751 198.016953 
L 212.918543 197.029646 
L 214.53698 195.910147 
L 219.366553 192.38936 
L 232.294248 183.500058 
L 235.213374 181.469379 
L 237.644493 179.635808 
L 242.205812 176.419535 
L 244.827976 174.61075 
L 247.459049 172.937698 
L 250.753335 170.598375 
L 255.376025 167.609307 
L 272.48295 155.121314 
L 275.110063 153.209845 
L 281.639536 148.435412 
L 286.324589 144.939412 
L 292.726075 139.880715 
L 295.123539 138.126814 
L 299.121621 135.006733 
L 301.527994 133.273487 
L 305.538945 130.365858 
L 309.542967 126.963099 
L 311.954289 125.056941 
L 313.567777 123.827675 
L 316.80762 121.258788 
L 319.569355 119.186209 
L 327.796161 112.850446 
L 335.759676 106.0473 
L 347.820246 96.090426 
L 350.894781 93.415902 
L 357.429652 87.997293 
L 363.354021 83.106787 
L 366.628509 80.324859 
L 368.580531 78.510172 
L 371.341277 76.000889 
L 377.194376 70.882024 
L 382.414947 65.924086 
L 384.36796 64.280909 
L 389.037174 60.263666 
L 391.128769 58.398817 
L 393.307471 56.656423 
L 396.055844 54.690524 
L 396.713365 54.397961 
L 397.380042 54.302948 
L 398.030417 53.568 
L 398.220008 53.591025 
L 398.487273 54.774619 
L 398.336813 78.155884 
L 398.335854 78.147548 
L 398.336379 84.242091 
L 398.336658 78.135727 
L 398.336813 84.085298 
L 397.681117 84.434883 
L 396.355187 87.49322 
L 395.690489 87.212644 
L 395.031484 87.164345 
L 394.331151 87.2965 
L 392.993342 87.965795 
L 392.335574 88.070194 
L 391.660978 88.41196 
L 391.010139 88.478941 
L 390.359795 90.18032 
L 389.683961 91.275624 
L 389.019511 92.655376 
L 388.367187 93.409153 
L 387.708182 92.987201 
L 387.048527 92.952309 
L 385.038349 94.364666 
L 384.37724 93.991014 
L 383.721451 96.69084 
L 383.055146 97.854452 
L 382.377209 98.348843 
L 381.720678 98.636427 
L 380.386829 98.969654 
L 379.06758 100.515678 
L 378.391499 101.501215 
L 377.058764 102.785512 
L 376.383425 103.151695 
L 374.363844 104.883097 
L 371.718665 106.997502 
L 371.049761 107.618184 
L 369.724913 109.104447 
L 368.421503 110.111081 
L 366.405634 111.635049 
L 364.380855 113.644334 
L 362.376122 115.061265 
L 361.04747 116.43364 
L 360.397373 117.169252 
L 358.399322 118.73807 
L 357.063988 119.71955 
L 355.729149 121.047369 
L 353.739264 122.576722 
L 352.386854 123.587857 
L 350.430872 125.586962 
L 349.097271 126.469815 
L 348.424283 126.922232 
L 345.756214 129.432548 
L 343.775485 130.743438 
L 343.102126 131.353423 
L 341.746252 132.79691 
L 339.082637 134.536722 
L 337.738456 135.925511 
L 337.065098 136.46313 
L 335.744612 137.318467 
L 334.402844 138.41141 
L 333.734063 139.178742 
L 332.378932 140.240628 
L 328.393841 143.133614 
L 327.054919 144.410239 
L 326.387252 144.661565 
L 325.716368 145.036896 
L 323.711634 146.84214 
L 323.045576 147.504648 
L 321.727565 148.0575 
L 321.065095 148.45828 
L 319.735205 149.792444 
L 319.085603 150.418437 
L 317.756208 151.267724 
L 317.095965 151.596507 
L 316.422112 152.192329 
L 315.093212 153.699257 
L 314.438166 154.154772 
L 312.429226 155.110581 
L 311.766632 155.701165 
L 311.100079 156.528544 
L 310.439836 157.018215 
L 308.429906 158.071692 
L 307.760383 158.713471 
L 307.099026 159.817036 
L 306.425667 160.386818 
L 305.095577 160.954304 
L 304.429147 161.213745 
L 303.769028 161.667233 
L 303.103464 162.584166 
L 302.438272 163.22447 
L 299.771069 164.369751 
L 298.431404 165.916955 
L 297.108691 166.755989 
L 295.751704 167.315222 
L 294.421443 168.774938 
L 293.751301 169.167162 
L 293.096502 169.386399 
L 291.763767 170.133113 
L 291.089295 170.751951 
L 290.427072 171.661802 
L 289.747403 172.258878 
L 288.430629 172.756764 
L 287.753558 173.073818 
L 287.086015 173.524908 
L 285.768127 175.092324 
L 284.412377 175.787438 
L 283.070857 176.37699 
L 282.407892 176.80831 
L 281.730821 177.609722 
L 281.059071 178.195586 
L 277.72915 180.220805 
L 277.070515 180.93709 
L 274.41816 182.381536 
L 273.764599 182.805258 
L 272.448165 184.330894 
L 269.75275 185.682006 
L 269.102406 186.21063 
L 268.452681 186.894604 
L 267.77858 187.350046 
L 266.464528 187.948303 
L 265.143794 189.204641 
L 264.473282 189.82547 
L 263.802645 190.244914 
L 262.455185 190.81263 
L 261.782445 191.176822 
L 260.442904 192.733763 
L 259.779444 193.011278 
L 258.46564 193.428697 
L 257.804407 193.698834 
L 257.12647 194.273411 
L 256.460334 195.423769 
L 255.796503 195.723966 
L 254.460427 196.079066 
L 253.130413 196.683422 
L 252.476357 197.925228 
L 251.808814 198.607506 
L 250.476945 198.827264 
L 249.150272 199.292628 
L 247.832508 201.183148 
L 246.523035 201.655224 
L 245.190423 202.087669 
L 244.523869 202.649706 
L 243.87204 203.514411 
L 242.527798 204.151285 
L 241.207312 204.627935 
L 240.54031 205.170736 
L 239.860517 205.992214 
L 239.186663 206.45732 
L 237.837224 206.924232 
L 237.179455 207.176776 
L 236.523048 207.647414 
L 235.852659 208.48158 
L 235.175341 208.947423 
L 233.161451 209.741496 
L 232.490691 210.149284 
L 231.829953 211.096609 
L 231.150284 211.695751 
L 229.81792 212.167569 
L 228.474048 212.852577 
L 227.142921 214.201936 
L 225.139673 214.987415 
L 224.459277 215.429551 
L 223.134708 216.836302 
L 219.79229 218.404051 
L 219.127221 218.977374 
L 217.804261 219.788524 
L 216.470906 220.412451 
L 212.485444 222.960094 
L 209.169629 224.899079 
L 207.145578 226.158294 
L 205.813461 227.103996 
L 203.815162 228.12745 
L 202.474879 229.121765 
L 201.144989 229.916244 
L 199.814109 230.4165 
L 195.834339 232.963303 
L 193.873408 234.088224 
L 189.884311 236.531626 
L 188.573476 237.219068 
L 180.560483 241.790454 
L 176.583682 244.286313 
L 174.601252 245.345134 
L 171.915736 246.784342 
L 169.287138 248.438289 
L 166.652847 249.763083 
L 165.995574 250.021049 
L 164.644155 251.041036 
L 163.964609 251.458856 
L 162.644618 251.971394 
L 161.305078 252.555635 
L 159.312594 254.120382 
L 157.973548 254.574606 
L 156.627573 255.232836 
L 155.294343 256.326148 
L 152.641245 257.146998 
L 149.986539 258.83757 
L 147.341607 260.262689 
L 146.672703 260.789759 
L 144.690489 261.681722 
L 143.352681 262.486528 
L 142.01481 263.419847 
L 141.338234 263.688546 
L 140.687395 263.789719 
L 140.018986 264.029574 
L 138.696269 264.880633 
L 138.024024 265.461037 
L 137.361554 265.847212 
L 134.701774 266.767501 
L 132.72748 268.120106 
L 130.745266 268.830213 
L 127.390103 270.890029 
L 126.717081 271.120492 
L 124.726454 272.262693 
L 124.056559 272.467196 
L 122.06754 273.509201 
L 120.729979 274.373095 
L 118.755685 275.126338 
L 116.74031 276.206703 
L 115.388643 276.968724 
L 114.036729 277.512724 
L 113.365103 277.904283 
L 112.031501 278.440464 
L 108.09305 280.472386 
L 106.791372 280.969728 
L 104.138025 282.400564 
L 102.811847 283.030393 
L 102.155316 283.2784 
L 100.138333 284.319447 
L 96.78812 285.9603 
L 95.433236 286.621591 
L 94.753196 286.782146 
L 92.067336 288.21401 
L 88.739147 289.556269 
L 87.382283 290.24349 
L 86.713008 290.518311 
L 86.046331 291.002154 
L 85.390047 291.255177 
L 84.74094 291.272407 
L 82.738063 292.211507 
L 82.080047 292.834107 
L 81.431188 293.176527 
L 78.764975 293.761284 
L 78.104754 294.751607 
L 77.424837 294.868051 
L 74.787454 294.582277 
L 74.034983 295.488 
L 74.014057 295.472361 
L 73.83318 294.296075 
L 73.83318 294.296075 
" clip-path="url(#ped151ece51)" style="fill: none; stroke: #000000; stroke-width: 1.5; stroke-linecap: square"/>
   </g>
   <g id="patch_3">
    <path d="M 57.6 307.584 
L 57.6 41.472 
" style="fill: none; stroke: #000000; stroke-width: 0.8; stroke-linejoin: miter; stroke-linecap: square"/>
   </g>
   <g id="patch_4">
    <path d="M 414.72 307.584 
L 414.72 41.472 
" style="fill: none; stroke: #000000; stroke-width: 0.8; stroke-linejoin: miter; stroke-linecap: square"/>
   </g>
   <g id="patch_5">
    <path d="M 57.6 307.584 
L 414.72 307.584 
" style="fill: none; stroke: #000000; stroke-width: 0.8; stroke-linejoin: miter; stroke-linecap: square"/>
   </g>
   <g id="patch_6">
    <path d="M 57.6 41.472 
L 414.72 41.472 
" style="fill: none; stroke: #000000; stroke-width: 0.8; stroke-linejoin: miter; stroke-linecap: square"/>
   </g>
   <g id="text_19">
    <!-- 2025-06-19 trial 15 -->
    <g transform="translate(178.0125 35.472) scale(0.12 -0.12)">
     <defs>
      <path id="DejaVuSans-2d" d="M 313 2009 
L 1997 2009 
L 1997 1497 
L 313 1497 
L 313 2009 
z
" transform="scale(0.015625)"/>
      <path id="DejaVuSans-36" d="M 2113 2584 
Q 1688 2584 1439 2293 
Q 1191 2003 1191 1497 
Q 1191 994 1439 701 
Q 1688 409 2113 409 
Q 2538 409 2786 701 
Q 3034 994 3034 1497 
Q 3034 2003 2786 2293 
Q 2538 2584 2113 2584 
z
M 3366 4563 
L 3366 3988 
Q 3128 4100 2886 4159 
Q 2644 4219 2406 4219 
Q 1781 4219 1451 3797 
Q 1122 3375 1075 2522 
Q 1259 2794 1537 2939 
Q 1816 3084 2150 3084 
Q 2853 3084 3261 2657 
Q 3669 2231 3669 1497 
Q 3669 778 3244 343 
Q 2819 -91 2113 -91 
Q 1303 -91 875 529 
Q 447 1150 447 2328 
Q 447 3434 972 4092 
Q 1497 4750 2381 4750 
Q 2619 4750 2861 4703 
Q 3103 4656 3366 4563 
z
" transform="scale(0.015625)"/>
      <path id="DejaVuSans-39" d="M 703 97 
L 703 672 
Q 941 559 1184 500 
Q 1428 441 1663 441 
Q 2288 441 2617 861 
Q 2947 1281 2994 2138 
Q 2813 1869 2534 1725 
Q 2256 1581 1919 1581 
Q 1219 1581 811 2004 
Q 403 2428 403 3163 
Q 403 3881 828 4315 
Q 1253 4750 1959 4750 
Q 2769 4750 3195 4129 
Q 3622 3509 3622 2328 
Q 3622 1225 3098 567 
Q 2575 -91 1691 -91 
Q 1453 -91 1209 -44 
Q 966 3 703 97 
z
M 1959 2075 
Q 2384 2075 2632 2365 
Q 2881 2656 2881 3163 
Q 2881 3666 2632 3958 
Q 2384 4250 1959 4250 
Q 1534 4250 1286 3958 
Q 1038 3666 1038 3163 
Q 1038 2656 1286 2365 
Q 1534 2075 1959 2075 
z
" transform="scale(0.015625)"/>
      <path id="DejaVuSans-6c" d="M 603 4863 
L 1178 4863 
L 1178 0 
L 603 0 
L 603 4863 
z
" transform="scale(0.015625)"/>
     </defs>
     <use xlink:href="#DejaVuSans-32"/>
     <use xlink:href="#DejaVuSans-30" transform="translate(63.623047 0)"/>
     <use xlink:href="#DejaVuSans-32" transform="translate(127.246094 0)"/>
     <use xlink:href="#DejaVuSans-35" transform="translate(190.869141 0)"/>
     <use xlink:href="#DejaVuSans-2d" transform="translate(254.492188 0)"/>
     <use xlink:href="#DejaVuSans-30" transform="translate(290.576172 0)"/>
     <use xlink:href="#DejaVuSans-36" transform="translate(354.199219 0)"/>
     <use xlink:href="#DejaVuSans-2d" transform="translate(417.822266 0)"/>
     <use xlink:href="#DejaVuSans-31" transform="translate(453.90625 0)"/>
     <use xlink:href="#DejaVuSans-39" transform="translate(517.529297 0)"/>
     <use xlink:href="#DejaVuSans-20" transform="translate(581.152344 0)"/>
     <use xlink:href="#DejaVuSans-74" transform="translate(612.939453 0)"/>
     <use xlink:href="#DejaVuSans-72" transform="translate(652.148438 0)"/>
     <use xlink:href="#DejaVuSans-69" transform="translate(693.261719 0)"/>
     <use xlink:href="#DejaVuSans-61" transform="translate(721.044922 0)"/>
     <use xlink:href="#DejaVuSans-6c" transform="translate(782.324219 0)"/>
     <use xlink:href="#DejaVuSans-20" transform="translate(810.107422 0)"/>
     <use xlink:href="#DejaVuSans-31" transform="translate(841.894531 0)"/>
     <use xlink:href="#DejaVuSans-35" transform="translate(905.517578 0)"/>
    </g>
   </g>
  </g>
 </g>
 <defs>
  <clipPath id="ped151ece51">
   <rect x="57.6" y="41.472" width="357.12" height="266.112"/>
  </clipPath>
 </defs>
</svg>
