<?xml version="1.0" encoding="utf-8" standalone="no"?>
<!DOCTYPE svg PUBLIC "-//W3C//DTD SVG 1.1//EN"
  "http://www.w3.org/Graphics/SVG/1.1/DTD/svg11.dtd">
<svg xmlns:xlink="http://www.w3.org/1999/xlink" width="460.8pt" height="345.6pt" viewBox="0 0 460.8 345.6" xmlns="http://www.w3.org/2000/svg" version="1.1">
 <metadata>
  <rdf:RDF xmlns:dc="http://purl.org/dc/elements/1.1/" xmlns:cc="http://creativecommons.org/ns#" xmlns:rdf="http://www.w3.org/1999/02/22-rdf-syntax-ns#">
   <cc:Work>
    <dc:type rdf:resource="http://purl.org/dc/dcmitype/StillImage"/>
    <dc:date>2025-07-08T21:01:33.562531</dc:date>
    <dc:format>image/svg+xml</dc:format>
    <dc:creator>
     <cc:Agent>
      <dc:title>Matplotlib v3.10.3, https://matplotlib.org/</dc:title>
     </cc:Agent>
    </dc:creator>
   </cc:Work>
  </rdf:RDF>
 </metadata>
 <defs>
  <style type="text/css">*{stroke-linejoin: round; stroke-linecap: butt}</style>
 </defs>
 <g id="figure_1">
  <g id="patch_1">
   <path d="M 0 345.6 
L 460.8 345.6 
L 460.8 0 
L 0 0 
z
" style="fill: #ffffff"/>
  </g>
  <g id="axes_1">
   <g id="patch_2">
    <path d="M 57.6 307.584 
L 414.72 307.584 
L 414.72 41.472 
L 57.6 41.472 
z
" style="fill: #ffffff"/>
   </g>
   <g id="matplotlib.axis_1">
    <g id="xtick_1">
     <g id="line2d_1">
      <defs>
       <path id="m25b897bba7" d="M 0 0 
L 0 3.5 
" style="stroke: #000000; stroke-width: 0.8"/>
      </defs>
      <g>
       <use xlink:href="#m25b897bba7" x="74.061612" y="307.584" style="stroke: #000000; stroke-width: 0.8"/>
      </g>
     </g>
     <g id="text_1">
      <!-- 0.00 -->
      <g transform="translate(62.928799 322.182437) scale(0.1 -0.1)">
       <defs>
        <path id="DejaVuSans-30" d="M 2034 4250 
Q 1547 4250 1301 3770 
Q 1056 3291 1056 2328 
Q 1056 1369 1301 889 
Q 1547 409 2034 409 
Q 2525 409 2770 889 
Q 3016 1369 3016 2328 
Q 3016 3291 2770 3770 
Q 2525 4250 2034 4250 
z
M 2034 4750 
Q 2819 4750 3233 4129 
Q 3647 3509 3647 2328 
Q 3647 1150 3233 529 
Q 2819 -91 2034 -91 
Q 1250 -91 836 529 
Q 422 1150 422 2328 
Q 422 3509 836 4129 
Q 1250 4750 2034 4750 
z
" transform="scale(0.015625)"/>
        <path id="DejaVuSans-2e" d="M 684 794 
L 1344 794 
L 1344 0 
L 684 0 
L 684 794 
z
" transform="scale(0.015625)"/>
       </defs>
       <use xlink:href="#DejaVuSans-30"/>
       <use xlink:href="#DejaVuSans-2e" transform="translate(63.623047 0)"/>
       <use xlink:href="#DejaVuSans-30" transform="translate(95.410156 0)"/>
       <use xlink:href="#DejaVuSans-30" transform="translate(159.033203 0)"/>
      </g>
     </g>
    </g>
    <g id="xtick_2">
     <g id="line2d_2">
      <g>
       <use xlink:href="#m25b897bba7" x="134.574314" y="307.584" style="stroke: #000000; stroke-width: 0.8"/>
      </g>
     </g>
     <g id="text_2">
      <!-- 0.02 -->
      <g transform="translate(123.441502 322.182437) scale(0.1 -0.1)">
       <defs>
        <path id="DejaVuSans-32" d="M 1228 531 
L 3431 531 
L 3431 0 
L 469 0 
L 469 531 
Q 828 903 1448 1529 
Q 2069 2156 2228 2338 
Q 2531 2678 2651 2914 
Q 2772 3150 2772 3378 
Q 2772 3750 2511 3984 
Q 2250 4219 1831 4219 
Q 1534 4219 1204 4116 
Q 875 4013 500 3803 
L 500 4441 
Q 881 4594 1212 4672 
Q 1544 4750 1819 4750 
Q 2544 4750 2975 4387 
Q 3406 4025 3406 3419 
Q 3406 3131 3298 2873 
Q 3191 2616 2906 2266 
Q 2828 2175 2409 1742 
Q 1991 1309 1228 531 
z
" transform="scale(0.015625)"/>
       </defs>
       <use xlink:href="#DejaVuSans-30"/>
       <use xlink:href="#DejaVuSans-2e" transform="translate(63.623047 0)"/>
       <use xlink:href="#DejaVuSans-30" transform="translate(95.410156 0)"/>
       <use xlink:href="#DejaVuSans-32" transform="translate(159.033203 0)"/>
      </g>
     </g>
    </g>
    <g id="xtick_3">
     <g id="line2d_3">
      <g>
       <use xlink:href="#m25b897bba7" x="195.087017" y="307.584" style="stroke: #000000; stroke-width: 0.8"/>
      </g>
     </g>
     <g id="text_3">
      <!-- 0.04 -->
      <g transform="translate(183.954204 322.182437) scale(0.1 -0.1)">
       <defs>
        <path id="DejaVuSans-34" d="M 2419 4116 
L 825 1625 
L 2419 1625 
L 2419 4116 
z
M 2253 4666 
L 3047 4666 
L 3047 1625 
L 3713 1625 
L 3713 1100 
L 3047 1100 
L 3047 0 
L 2419 0 
L 2419 1100 
L 313 1100 
L 313 1709 
L 2253 4666 
z
" transform="scale(0.015625)"/>
       </defs>
       <use xlink:href="#DejaVuSans-30"/>
       <use xlink:href="#DejaVuSans-2e" transform="translate(63.623047 0)"/>
       <use xlink:href="#DejaVuSans-30" transform="translate(95.410156 0)"/>
       <use xlink:href="#DejaVuSans-34" transform="translate(159.033203 0)"/>
      </g>
     </g>
    </g>
    <g id="xtick_4">
     <g id="line2d_4">
      <g>
       <use xlink:href="#m25b897bba7" x="255.599719" y="307.584" style="stroke: #000000; stroke-width: 0.8"/>
      </g>
     </g>
     <g id="text_4">
      <!-- 0.06 -->
      <g transform="translate(244.466907 322.182437) scale(0.1 -0.1)">
       <defs>
        <path id="DejaVuSans-36" d="M 2113 2584 
Q 1688 2584 1439 2293 
Q 1191 2003 1191 1497 
Q 1191 994 1439 701 
Q 1688 409 2113 409 
Q 2538 409 2786 701 
Q 3034 994 3034 1497 
Q 3034 2003 2786 2293 
Q 2538 2584 2113 2584 
z
M 3366 4563 
L 3366 3988 
Q 3128 4100 2886 4159 
Q 2644 4219 2406 4219 
Q 1781 4219 1451 3797 
Q 1122 3375 1075 2522 
Q 1259 2794 1537 2939 
Q 1816 3084 2150 3084 
Q 2853 3084 3261 2657 
Q 3669 2231 3669 1497 
Q 3669 778 3244 343 
Q 2819 -91 2113 -91 
Q 1303 -91 875 529 
Q 447 1150 447 2328 
Q 447 3434 972 4092 
Q 1497 4750 2381 4750 
Q 2619 4750 2861 4703 
Q 3103 4656 3366 4563 
z
" transform="scale(0.015625)"/>
       </defs>
       <use xlink:href="#DejaVuSans-30"/>
       <use xlink:href="#DejaVuSans-2e" transform="translate(63.623047 0)"/>
       <use xlink:href="#DejaVuSans-30" transform="translate(95.410156 0)"/>
       <use xlink:href="#DejaVuSans-36" transform="translate(159.033203 0)"/>
      </g>
     </g>
    </g>
    <g id="xtick_5">
     <g id="line2d_5">
      <g>
       <use xlink:href="#m25b897bba7" x="316.112422" y="307.584" style="stroke: #000000; stroke-width: 0.8"/>
      </g>
     </g>
     <g id="text_5">
      <!-- 0.08 -->
      <g transform="translate(304.979609 322.182437) scale(0.1 -0.1)">
       <defs>
        <path id="DejaVuSans-38" d="M 2034 2216 
Q 1584 2216 1326 1975 
Q 1069 1734 1069 1313 
Q 1069 891 1326 650 
Q 1584 409 2034 409 
Q 2484 409 2743 651 
Q 3003 894 3003 1313 
Q 3003 1734 2745 1975 
Q 2488 2216 2034 2216 
z
M 1403 2484 
Q 997 2584 770 2862 
Q 544 3141 544 3541 
Q 544 4100 942 4425 
Q 1341 4750 2034 4750 
Q 2731 4750 3128 4425 
Q 3525 4100 3525 3541 
Q 3525 3141 3298 2862 
Q 3072 2584 2669 2484 
Q 3125 2378 3379 2068 
Q 3634 1759 3634 1313 
Q 3634 634 3220 271 
Q 2806 -91 2034 -91 
Q 1263 -91 848 271 
Q 434 634 434 1313 
Q 434 1759 690 2068 
Q 947 2378 1403 2484 
z
M 1172 3481 
Q 1172 3119 1398 2916 
Q 1625 2713 2034 2713 
Q 2441 2713 2670 2916 
Q 2900 3119 2900 3481 
Q 2900 3844 2670 4047 
Q 2441 4250 2034 4250 
Q 1625 4250 1398 4047 
Q 1172 3844 1172 3481 
z
" transform="scale(0.015625)"/>
       </defs>
       <use xlink:href="#DejaVuSans-30"/>
       <use xlink:href="#DejaVuSans-2e" transform="translate(63.623047 0)"/>
       <use xlink:href="#DejaVuSans-30" transform="translate(95.410156 0)"/>
       <use xlink:href="#DejaVuSans-38" transform="translate(159.033203 0)"/>
      </g>
     </g>
    </g>
    <g id="xtick_6">
     <g id="line2d_6">
      <g>
       <use xlink:href="#m25b897bba7" x="376.625124" y="307.584" style="stroke: #000000; stroke-width: 0.8"/>
      </g>
     </g>
     <g id="text_6">
      <!-- 0.10 -->
      <g transform="translate(365.492312 322.182437) scale(0.1 -0.1)">
       <defs>
        <path id="DejaVuSans-31" d="M 794 531 
L 1825 531 
L 1825 4091 
L 703 3866 
L 703 4441 
L 1819 4666 
L 2450 4666 
L 2450 531 
L 3481 531 
L 3481 0 
L 794 0 
L 794 531 
z
" transform="scale(0.015625)"/>
       </defs>
       <use xlink:href="#DejaVuSans-30"/>
       <use xlink:href="#DejaVuSans-2e" transform="translate(63.623047 0)"/>
       <use xlink:href="#DejaVuSans-31" transform="translate(95.410156 0)"/>
       <use xlink:href="#DejaVuSans-30" transform="translate(159.033203 0)"/>
      </g>
     </g>
    </g>
    <g id="text_7">
     <!-- Strain -->
     <g transform="translate(221.348281 335.860562) scale(0.1 -0.1)">
      <defs>
       <path id="DejaVuSans-53" d="M 3425 4513 
L 3425 3897 
Q 3066 4069 2747 4153 
Q 2428 4238 2131 4238 
Q 1616 4238 1336 4038 
Q 1056 3838 1056 3469 
Q 1056 3159 1242 3001 
Q 1428 2844 1947 2747 
L 2328 2669 
Q 3034 2534 3370 2195 
Q 3706 1856 3706 1288 
Q 3706 609 3251 259 
Q 2797 -91 1919 -91 
Q 1588 -91 1214 -16 
Q 841 59 441 206 
L 441 856 
Q 825 641 1194 531 
Q 1563 422 1919 422 
Q 2459 422 2753 634 
Q 3047 847 3047 1241 
Q 3047 1584 2836 1778 
Q 2625 1972 2144 2069 
L 1759 2144 
Q 1053 2284 737 2584 
Q 422 2884 422 3419 
Q 422 4038 858 4394 
Q 1294 4750 2059 4750 
Q 2388 4750 2728 4690 
Q 3069 4631 3425 4513 
z
" transform="scale(0.015625)"/>
       <path id="DejaVuSans-74" d="M 1172 4494 
L 1172 3500 
L 2356 3500 
L 2356 3053 
L 1172 3053 
L 1172 1153 
Q 1172 725 1289 603 
Q 1406 481 1766 481 
L 2356 481 
L 2356 0 
L 1766 0 
Q 1100 0 847 248 
Q 594 497 594 1153 
L 594 3053 
L 172 3053 
L 172 3500 
L 594 3500 
L 594 4494 
L 1172 4494 
z
" transform="scale(0.015625)"/>
       <path id="DejaVuSans-72" d="M 2631 2963 
Q 2534 3019 2420 3045 
Q 2306 3072 2169 3072 
Q 1681 3072 1420 2755 
Q 1159 2438 1159 1844 
L 1159 0 
L 581 0 
L 581 3500 
L 1159 3500 
L 1159 2956 
Q 1341 3275 1631 3429 
Q 1922 3584 2338 3584 
Q 2397 3584 2469 3576 
Q 2541 3569 2628 3553 
L 2631 2963 
z
" transform="scale(0.015625)"/>
       <path id="DejaVuSans-61" d="M 2194 1759 
Q 1497 1759 1228 1600 
Q 959 1441 959 1056 
Q 959 750 1161 570 
Q 1363 391 1709 391 
Q 2188 391 2477 730 
Q 2766 1069 2766 1631 
L 2766 1759 
L 2194 1759 
z
M 3341 1997 
L 3341 0 
L 2766 0 
L 2766 531 
Q 2569 213 2275 61 
Q 1981 -91 1556 -91 
Q 1019 -91 701 211 
Q 384 513 384 1019 
Q 384 1609 779 1909 
Q 1175 2209 1959 2209 
L 2766 2209 
L 2766 2266 
Q 2766 2663 2505 2880 
Q 2244 3097 1772 3097 
Q 1472 3097 1187 3025 
Q 903 2953 641 2809 
L 641 3341 
Q 956 3463 1253 3523 
Q 1550 3584 1831 3584 
Q 2591 3584 2966 3190 
Q 3341 2797 3341 1997 
z
" transform="scale(0.015625)"/>
       <path id="DejaVuSans-69" d="M 603 3500 
L 1178 3500 
L 1178 0 
L 603 0 
L 603 3500 
z
M 603 4863 
L 1178 4863 
L 1178 4134 
L 603 4134 
L 603 4863 
z
" transform="scale(0.015625)"/>
       <path id="DejaVuSans-6e" d="M 3513 2113 
L 3513 0 
L 2938 0 
L 2938 2094 
Q 2938 2591 2744 2837 
Q 2550 3084 2163 3084 
Q 1697 3084 1428 2787 
Q 1159 2491 1159 1978 
L 1159 0 
L 581 0 
L 581 3500 
L 1159 3500 
L 1159 2956 
Q 1366 3272 1645 3428 
Q 1925 3584 2291 3584 
Q 2894 3584 3203 3211 
Q 3513 2838 3513 2113 
z
" transform="scale(0.015625)"/>
      </defs>
      <use xlink:href="#DejaVuSans-53"/>
      <use xlink:href="#DejaVuSans-74" transform="translate(63.476562 0)"/>
      <use xlink:href="#DejaVuSans-72" transform="translate(102.685547 0)"/>
      <use xlink:href="#DejaVuSans-61" transform="translate(143.798828 0)"/>
      <use xlink:href="#DejaVuSans-69" transform="translate(205.078125 0)"/>
      <use xlink:href="#DejaVuSans-6e" transform="translate(232.861328 0)"/>
     </g>
    </g>
   </g>
   <g id="matplotlib.axis_2">
    <g id="ytick_1">
     <g id="line2d_7">
      <defs>
       <path id="mb515e7700f" d="M 0 0 
L -3.5 0 
" style="stroke: #000000; stroke-width: 0.8"/>
      </defs>
      <g>
       <use xlink:href="#mb515e7700f" x="57.6" y="264.797524" style="stroke: #000000; stroke-width: 0.8"/>
      </g>
     </g>
     <g id="text_8">
      <!-- 0 -->
      <g transform="translate(44.2375 268.596743) scale(0.1 -0.1)">
       <use xlink:href="#DejaVuSans-30"/>
      </g>
     </g>
    </g>
    <g id="ytick_2">
     <g id="line2d_8">
      <g>
       <use xlink:href="#mb515e7700f" x="57.6" y="212.206036" style="stroke: #000000; stroke-width: 0.8"/>
      </g>
     </g>
     <g id="text_9">
      <!-- 200 -->
      <g transform="translate(31.5125 216.005255) scale(0.1 -0.1)">
       <use xlink:href="#DejaVuSans-32"/>
       <use xlink:href="#DejaVuSans-30" transform="translate(63.623047 0)"/>
       <use xlink:href="#DejaVuSans-30" transform="translate(127.246094 0)"/>
      </g>
     </g>
    </g>
    <g id="ytick_3">
     <g id="line2d_9">
      <g>
       <use xlink:href="#mb515e7700f" x="57.6" y="159.614548" style="stroke: #000000; stroke-width: 0.8"/>
      </g>
     </g>
     <g id="text_10">
      <!-- 400 -->
      <g transform="translate(31.5125 163.413766) scale(0.1 -0.1)">
       <use xlink:href="#DejaVuSans-34"/>
       <use xlink:href="#DejaVuSans-30" transform="translate(63.623047 0)"/>
       <use xlink:href="#DejaVuSans-30" transform="translate(127.246094 0)"/>
      </g>
     </g>
    </g>
    <g id="ytick_4">
     <g id="line2d_10">
      <g>
       <use xlink:href="#mb515e7700f" x="57.6" y="107.023059" style="stroke: #000000; stroke-width: 0.8"/>
      </g>
     </g>
     <g id="text_11">
      <!-- 600 -->
      <g transform="translate(31.5125 110.822278) scale(0.1 -0.1)">
       <use xlink:href="#DejaVuSans-36"/>
       <use xlink:href="#DejaVuSans-30" transform="translate(63.623047 0)"/>
       <use xlink:href="#DejaVuSans-30" transform="translate(127.246094 0)"/>
      </g>
     </g>
    </g>
    <g id="ytick_5">
     <g id="line2d_11">
      <g>
       <use xlink:href="#mb515e7700f" x="57.6" y="54.431571" style="stroke: #000000; stroke-width: 0.8"/>
      </g>
     </g>
     <g id="text_12">
      <!-- 800 -->
      <g transform="translate(31.5125 58.23079) scale(0.1 -0.1)">
       <use xlink:href="#DejaVuSans-38"/>
       <use xlink:href="#DejaVuSans-30" transform="translate(63.623047 0)"/>
       <use xlink:href="#DejaVuSans-30" transform="translate(127.246094 0)"/>
      </g>
     </g>
    </g>
    <g id="text_13">
     <!-- Stress [Pa] -->
     <g transform="translate(25.432812 201.235813) rotate(-90) scale(0.1 -0.1)">
      <defs>
       <path id="DejaVuSans-65" d="M 3597 1894 
L 3597 1613 
L 953 1613 
Q 991 1019 1311 708 
Q 1631 397 2203 397 
Q 2534 397 2845 478 
Q 3156 559 3463 722 
L 3463 178 
Q 3153 47 2828 -22 
Q 2503 -91 2169 -91 
Q 1331 -91 842 396 
Q 353 884 353 1716 
Q 353 2575 817 3079 
Q 1281 3584 2069 3584 
Q 2775 3584 3186 3129 
Q 3597 2675 3597 1894 
z
M 3022 2063 
Q 3016 2534 2758 2815 
Q 2500 3097 2075 3097 
Q 1594 3097 1305 2825 
Q 1016 2553 972 2059 
L 3022 2063 
z
" transform="scale(0.015625)"/>
       <path id="DejaVuSans-73" d="M 2834 3397 
L 2834 2853 
Q 2591 2978 2328 3040 
Q 2066 3103 1784 3103 
Q 1356 3103 1142 2972 
Q 928 2841 928 2578 
Q 928 2378 1081 2264 
Q 1234 2150 1697 2047 
L 1894 2003 
Q 2506 1872 2764 1633 
Q 3022 1394 3022 966 
Q 3022 478 2636 193 
Q 2250 -91 1575 -91 
Q 1294 -91 989 -36 
Q 684 19 347 128 
L 347 722 
Q 666 556 975 473 
Q 1284 391 1588 391 
Q 1994 391 2212 530 
Q 2431 669 2431 922 
Q 2431 1156 2273 1281 
Q 2116 1406 1581 1522 
L 1381 1569 
Q 847 1681 609 1914 
Q 372 2147 372 2553 
Q 372 3047 722 3315 
Q 1072 3584 1716 3584 
Q 2034 3584 2315 3537 
Q 2597 3491 2834 3397 
z
" transform="scale(0.015625)"/>
       <path id="DejaVuSans-20" transform="scale(0.015625)"/>
       <path id="DejaVuSans-5b" d="M 550 4863 
L 1875 4863 
L 1875 4416 
L 1125 4416 
L 1125 -397 
L 1875 -397 
L 1875 -844 
L 550 -844 
L 550 4863 
z
" transform="scale(0.015625)"/>
       <path id="DejaVuSans-50" d="M 1259 4147 
L 1259 2394 
L 2053 2394 
Q 2494 2394 2734 2622 
Q 2975 2850 2975 3272 
Q 2975 3691 2734 3919 
Q 2494 4147 2053 4147 
L 1259 4147 
z
M 628 4666 
L 2053 4666 
Q 2838 4666 3239 4311 
Q 3641 3956 3641 3272 
Q 3641 2581 3239 2228 
Q 2838 1875 2053 1875 
L 1259 1875 
L 1259 0 
L 628 0 
L 628 4666 
z
" transform="scale(0.015625)"/>
       <path id="DejaVuSans-5d" d="M 1947 4863 
L 1947 -844 
L 622 -844 
L 622 -397 
L 1369 -397 
L 1369 4416 
L 622 4416 
L 622 4863 
L 1947 4863 
z
" transform="scale(0.015625)"/>
      </defs>
      <use xlink:href="#DejaVuSans-53"/>
      <use xlink:href="#DejaVuSans-74" transform="translate(63.476562 0)"/>
      <use xlink:href="#DejaVuSans-72" transform="translate(102.685547 0)"/>
      <use xlink:href="#DejaVuSans-65" transform="translate(141.548828 0)"/>
      <use xlink:href="#DejaVuSans-73" transform="translate(203.072266 0)"/>
      <use xlink:href="#DejaVuSans-73" transform="translate(255.171875 0)"/>
      <use xlink:href="#DejaVuSans-20" transform="translate(307.271484 0)"/>
      <use xlink:href="#DejaVuSans-5b" transform="translate(339.058594 0)"/>
      <use xlink:href="#DejaVuSans-50" transform="translate(378.072266 0)"/>
      <use xlink:href="#DejaVuSans-61" transform="translate(433.875 0)"/>
      <use xlink:href="#DejaVuSans-5d" transform="translate(495.154297 0)"/>
     </g>
    </g>
   </g>
   <g id="line2d_12">
    <path d="M 74.061612 266.084992 
L 74.061612 266.587212 
L 74.064377 266.224409 
L 75.145525 263.597589 
L 77.364039 253.480955 
L 78.509159 250.868091 
L 79.618828 251.529691 
L 81.878564 254.558584 
L 83.132507 255.698299 
L 84.225688 256.436675 
L 85.355144 256.898437 
L 86.514279 257.178377 
L 87.699795 257.655383 
L 88.905097 258.410389 
L 92.572118 260.005214 
L 93.790611 260.190847 
L 94.999211 260.615191 
L 96.189673 261.380175 
L 97.352106 262.300927 
L 98.484859 264.179018 
L 99.566498 265.736703 
L 100.784167 265.787009 
L 101.914447 264.130652 
L 104.328349 258.684854 
L 105.470171 256.520726 
L 106.596329 254.884326 
L 108.849469 252.231273 
L 109.991291 251.394225 
L 111.14383 250.968495 
L 112.30379 250.830743 
L 113.467871 250.487609 
L 115.790262 249.389192 
L 118.102761 248.278856 
L 119.259422 247.641924 
L 120.413611 246.848669 
L 123.894312 245.131058 
L 125.057569 244.695072 
L 126.220002 244.12272 
L 128.540744 242.750738 
L 132.014026 240.833844 
L 133.169039 240.137598 
L 135.466698 239.040012 
L 138.877324 236.98786 
L 141.134586 235.324851 
L 146.792582 232.189526 
L 149.05644 230.843598 
L 151.326281 229.464455 
L 152.464805 228.898478 
L 155.885324 226.685014 
L 158.17309 225.473789 
L 159.316561 224.902269 
L 162.743675 222.551329 
L 169.609446 218.651852 
L 171.890617 217.336967 
L 176.410088 214.183903 
L 179.795982 211.707683 
L 184.31298 208.836776 
L 187.694751 206.651583 
L 192.211749 203.706395 
L 194.477256 202.26235 
L 195.609184 201.618765 
L 205.747079 194.472818 
L 212.488362 190.377379 
L 220.317881 185.379484 
L 224.816741 182.009675 
L 227.092141 180.675942 
L 230.522296 178.628943 
L 232.815008 177.055737 
L 236.255313 175.129419 
L 238.537308 173.561757 
L 239.675008 172.63657 
L 241.938866 171.128775 
L 246.427009 167.548873 
L 248.659539 166.163587 
L 264.288896 154.582396 
L 268.807543 151.371127 
L 269.940296 150.478091 
L 272.2091 149.229726 
L 286.913458 139.105331 
L 294.87572 132.672815 
L 296.020016 131.915592 
L 301.760453 127.47924 
L 304.075425 125.836742 
L 307.556127 123.899891 
L 309.860381 122.296197 
L 313.298007 119.566905 
L 315.578353 118.000915 
L 323.479596 111.624386 
L 325.740156 109.715807 
L 329.153255 107.272293 
L 339.494781 99.394622 
L 341.793265 97.799243 
L 344.081031 95.886229 
L 346.363026 94.079647 
L 348.640074 92.291359 
L 350.911352 90.562385 
L 354.310436 87.859996 
L 355.44154 87.049002 
L 361.108604 82.330493 
L 364.531597 79.81547 
L 366.821012 77.817643 
L 369.1129 76.016604 
L 373.702447 72.052547 
L 376.00093 70.394527 
L 380.580584 66.603423 
L 383.985439 64.500271 
L 385.100879 63.947044 
L 388.61868 62.782799 
L 389.754731 62.532239 
L 394.286543 60.601781 
L 395.418472 59.675208 
L 396.535149 58.274401 
L 398.011428 54.408478 
L 398.487273 55.160244 
L 398.358869 57.768465 
L 398.234433 62.355735 
L 398.238865 62.349828 
L 398.23804 71.660008 
L 398.236417 71.496011 
L 398.236675 81.939686 
L 398.239534 71.350913 
L 398.221835 81.878605 
L 397.139011 82.400963 
L 396.045984 85.349425 
L 394.929101 87.980581 
L 392.73367 86.934411 
L 390.456622 87.241617 
L 389.339533 87.552772 
L 388.243466 87.363744 
L 387.122667 87.896738 
L 386.039379 87.438233 
L 384.916931 90.593514 
L 383.782941 92.897612 
L 382.669974 94.310338 
L 381.553709 96.164592 
L 380.470421 97.070239 
L 379.307576 96.45645 
L 378.151327 96.24679 
L 377.062268 96.681667 
L 375.9324 97.544491 
L 373.727282 98.809642 
L 372.639666 103.416175 
L 371.536798 104.618946 
L 370.420121 104.86663 
L 369.320344 104.981949 
L 368.215621 104.838064 
L 367.085547 106.07174 
L 363.758754 110.077771 
L 362.650734 110.878232 
L 361.55137 111.442339 
L 360.435517 112.164777 
L 359.313069 113.161196 
L 358.185262 114.316433 
L 357.094966 115.254092 
L 354.892116 116.374129 
L 353.775851 117.122344 
L 350.428087 120.780954 
L 349.298219 121.74245 
L 348.208748 122.402595 
L 347.121338 122.728475 
L 346.005279 123.541686 
L 343.799749 125.7327 
L 339.396933 128.952561 
L 337.141732 131.133042 
L 334.88617 132.718651 
L 333.771966 133.796281 
L 332.661884 134.489755 
L 327.046965 139.449401 
L 325.959142 140.23739 
L 323.745574 141.440853 
L 321.540663 143.217085 
L 320.407909 144.155022 
L 318.189395 146.306123 
L 315.95975 147.524692 
L 314.849256 148.500878 
L 313.741648 149.184652 
L 311.526019 151.035026 
L 310.42109 151.960767 
L 309.315414 152.686038 
L 308.192966 153.580875 
L 306.016084 154.822796 
L 303.757585 156.807319 
L 298.288794 160.668409 
L 296.069661 162.490928 
L 291.637579 165.577056 
L 290.515543 166.74033 
L 289.39969 167.540514 
L 288.287341 168.524738 
L 284.989661 170.836736 
L 283.855258 172.052117 
L 282.760892 172.803546 
L 278.355191 175.052488 
L 277.226148 175.807494 
L 275.020824 177.786474 
L 273.925169 178.472603 
L 272.835286 178.988551 
L 268.415569 182.177924 
L 267.324862 183.123622 
L 264.025944 185.017996 
L 261.78517 186.558912 
L 257.352676 189.868715 
L 256.257021 190.453124 
L 247.407451 196.459247 
L 246.310147 197.526344 
L 245.210783 198.34011 
L 240.768395 200.503129 
L 238.545965 202.508579 
L 237.462677 203.430163 
L 236.356305 204.081646 
L 235.235918 204.478863 
L 234.130783 204.612705 
L 233.01225 205.417947 
L 229.694578 208.346505 
L 228.588979 209.06046 
L 226.374174 210.128596 
L 225.25997 210.763588 
L 223.03012 213.139473 
L 221.940649 213.873552 
L 219.688745 214.663481 
L 218.583198 215.084015 
L 217.470436 215.841307 
L 216.380141 216.937507 
L 215.2647 217.808507 
L 214.173168 218.343892 
L 211.956302 219.158316 
L 210.87219 219.700041 
L 209.75881 220.733601 
L 208.642546 221.616519 
L 207.510205 222.751523 
L 206.405894 223.394137 
L 204.158937 224.029839 
L 201.956498 225.474162 
L 199.717051 227.373231 
L 197.514613 228.514886 
L 196.405355 228.893498 
L 195.322479 229.420082 
L 194.214871 230.235234 
L 193.113858 231.187583 
L 190.911832 232.371507 
L 188.737836 233.602549 
L 187.657021 234.223682 
L 186.541168 235.227585 
L 185.419545 236.031234 
L 184.328837 236.590074 
L 182.133406 237.44654 
L 178.763595 239.834205 
L 177.636613 240.922921 
L 176.541371 241.468734 
L 175.426755 241.79115 
L 174.319971 242.252537 
L 172.121036 243.536518 
L 171.001473 244.511318 
L 168.799859 245.645282 
L 167.677411 245.955884 
L 166.569391 246.502875 
L 165.446118 247.25892 
L 163.262641 249.300817 
L 162.144109 249.965397 
L 161.052577 250.19711 
L 158.870337 251.033326 
L 157.745416 251.68176 
L 156.627502 252.476124 
L 155.505466 253.422099 
L 152.138947 255.047274 
L 149.964951 257.152365 
L 148.883724 257.755067 
L 147.768283 258.107105 
L 145.522537 258.95991 
L 144.433066 259.288701 
L 141.092927 261.715861 
L 138.885543 262.656223 
L 137.790713 263.176537 
L 135.530977 264.738379 
L 134.447689 265.176859 
L 133.364401 265.744222 
L 132.281525 266.172862 
L 130.032507 267.384572 
L 128.909647 268.191269 
L 127.77689 268.740062 
L 124.39347 270.753827 
L 122.212054 271.793207 
L 118.916856 273.205538 
L 116.706174 274.713471 
L 115.602894 275.412488 
L 114.476323 275.973685 
L 113.395096 276.374539 
L 112.312633 277.083951 
L 110.14111 278.117372 
L 109.019074 278.940006 
L 107.894977 279.625443 
L 100.199428 283.336099 
L 97.940104 284.685353 
L 96.824458 285.23179 
L 95.710254 286.129953 
L 94.575852 286.638418 
L 92.388446 287.283241 
L 90.145611 288.347081 
L 89.023575 289.118301 
L 87.890822 289.480248 
L 84.519768 291.070569 
L 82.31465 292.38199 
L 78.991825 293.428282 
L 77.895965 293.568622 
L 74.642493 294.500658 
L 74.078848 295.488 
L 73.833627 294.248552 
L 73.833627 294.248552 
" clip-path="url(#p38f52abcb0)" style="fill: none; stroke: #ff0000; stroke-width: 1.5; stroke-linecap: square"/>
   </g>
   <g id="line2d_13">
    <path d="M 74.061612 266.084992 
L 74.061612 266.587212 
L 74.064377 266.224409 
L 75.145525 263.597589 
L 77.364039 253.480955 
L 78.509159 250.868091 
L 79.618828 251.529691 
L 80.701292 253.02529 
L 81.878564 270.492403 
L 83.132507 271.186432 
L 84.225688 271.127673 
L 85.355144 270.515131 
L 86.514279 269.573314 
L 87.699795 268.824129 
L 90.121941 268.036972 
L 91.347029 267.385072 
L 92.572118 266.408886 
L 93.790611 264.984727 
L 94.999211 264.10749 
L 96.189673 263.53098 
L 97.352106 263.185629 
L 98.484859 264.179018 
L 99.566498 265.736703 
L 100.784167 265.787009 
L 101.914447 264.130652 
L 104.328349 258.684854 
L 105.470171 256.520726 
L 106.596329 254.884326 
L 108.849469 252.231273 
L 109.991291 251.394225 
L 111.14383 250.968495 
L 112.30379 250.830743 
L 113.467871 250.487609 
L 115.790262 249.389192 
L 118.102761 248.278856 
L 119.259422 247.641924 
L 120.413611 246.848669 
L 123.894312 245.131058 
L 125.057569 244.695072 
L 126.220002 244.12272 
L 128.540744 242.750738 
L 132.014026 240.833844 
L 133.169039 240.137598 
L 135.466698 239.040012 
L 138.877324 236.98786 
L 141.134586 235.324851 
L 146.792582 232.189526 
L 149.05644 230.843598 
L 151.326281 229.464455 
L 152.464805 228.898478 
L 155.885324 226.685014 
L 158.17309 225.473789 
L 159.316561 224.902269 
L 162.743675 222.551329 
L 169.609446 218.651852 
L 171.890617 217.336967 
L 176.410088 214.183903 
L 179.795982 211.707683 
L 184.31298 208.836776 
L 187.694751 206.651583 
L 192.211749 203.706395 
L 194.477256 202.26235 
L 195.609184 201.618765 
L 205.747079 194.472818 
L 212.488362 190.377379 
L 220.317881 185.379484 
L 224.816741 182.009675 
L 227.092141 180.675942 
L 230.522296 178.628943 
L 232.815008 177.055737 
L 236.255313 175.129419 
L 238.537308 173.561757 
L 239.675008 172.63657 
L 241.938866 171.128775 
L 246.427009 167.548873 
L 248.659539 166.163587 
L 264.288896 154.582396 
L 268.807543 151.371127 
L 269.940296 150.478091 
L 272.2091 149.229726 
L 286.913458 139.105331 
L 294.87572 132.672815 
L 296.020016 131.915592 
L 301.760453 127.47924 
L 304.075425 125.836742 
L 307.556127 123.899891 
L 309.860381 122.296197 
L 313.298007 119.566905 
L 315.578353 118.000915 
L 323.479596 111.624386 
L 325.740156 109.715807 
L 329.153255 107.272293 
L 339.494781 99.394622 
L 341.793265 97.799243 
L 344.081031 95.886229 
L 346.363026 94.079647 
L 348.640074 92.291359 
L 350.911352 90.562385 
L 354.310436 87.859996 
L 355.44154 87.049002 
L 361.108604 82.330493 
L 364.531597 79.675272 
L 366.821012 77.661811 
L 367.966956 76.817721 
L 370.259668 74.712422 
L 373.702447 71.084985 
L 376.00093 69.077872 
L 378.293642 66.453368 
L 381.722406 62.270348 
L 385.100879 58.634457 
L 389.754731 55.156136 
L 390.959209 54.362604 
L 392.076298 53.919501 
L 393.20243 53.63064 
L 394.286543 53.568 
L 395.418472 53.770333 
L 396.535149 54.857386 
L 397.633173 55.097829 
L 398.011428 54.081558 
L 398.487273 55.003073 
L 398.358869 57.412463 
L 398.236855 63.320142 
L 398.236675 81.939686 
L 398.221835 81.878605 
L 397.139011 82.400963 
L 396.045984 85.349425 
L 394.929101 87.980581 
L 392.73367 86.934411 
L 390.456622 87.241617 
L 389.339533 87.552772 
L 388.243466 87.363744 
L 387.122667 87.896738 
L 386.039379 87.438233 
L 384.916931 90.593514 
L 383.782941 92.897612 
L 382.669974 94.310338 
L 381.553709 96.164592 
L 380.470421 97.070239 
L 379.307576 96.45645 
L 378.151327 96.24679 
L 377.062268 96.681667 
L 375.9324 97.544491 
L 373.727282 98.809642 
L 372.639666 103.416175 
L 371.536798 104.618946 
L 370.420121 104.86663 
L 369.320344 104.981949 
L 368.215621 104.838064 
L 367.085547 106.07174 
L 363.758754 110.077771 
L 362.650734 110.878232 
L 361.55137 111.442339 
L 360.435517 112.164777 
L 359.313069 113.161196 
L 358.185262 114.316433 
L 357.094966 115.254092 
L 354.892116 116.374129 
L 353.775851 117.122344 
L 350.428087 120.780954 
L 349.298219 121.74245 
L 348.208748 122.402595 
L 347.121338 122.728475 
L 346.005279 123.541686 
L 343.799749 125.7327 
L 339.396933 128.952561 
L 337.141732 131.133042 
L 334.88617 132.718651 
L 333.771966 133.796281 
L 332.661884 134.489755 
L 327.046965 139.449401 
L 325.959142 140.23739 
L 323.745574 141.440853 
L 321.540663 143.217085 
L 320.407909 144.155022 
L 318.189395 146.306123 
L 315.95975 147.524692 
L 314.849256 148.500878 
L 313.741648 149.184652 
L 311.526019 151.035026 
L 310.42109 151.960767 
L 309.315414 152.686038 
L 308.192966 153.580875 
L 306.016084 154.822796 
L 303.757585 156.807319 
L 298.288794 160.668409 
L 296.069661 162.490928 
L 291.637579 165.577056 
L 290.515543 166.74033 
L 289.39969 167.540514 
L 288.287341 168.524738 
L 284.989661 170.836736 
L 283.855258 172.052117 
L 282.760892 172.803546 
L 278.355191 175.052488 
L 277.226148 175.807494 
L 275.020824 177.786474 
L 273.925169 178.472603 
L 272.835286 178.988551 
L 268.415569 182.177924 
L 267.324862 183.123622 
L 264.025944 185.017996 
L 261.78517 186.558912 
L 257.352676 189.868715 
L 256.257021 190.453124 
L 247.407451 196.459247 
L 246.310147 197.526344 
L 245.210783 198.34011 
L 240.768395 200.503129 
L 238.545965 202.508579 
L 237.462677 203.430163 
L 236.356305 204.081646 
L 235.235918 204.478863 
L 234.130783 204.612705 
L 233.01225 205.417947 
L 229.694578 208.346505 
L 228.588979 209.06046 
L 226.374174 210.128596 
L 225.25997 210.763588 
L 223.03012 213.139473 
L 221.940649 213.873552 
L 219.688745 214.663481 
L 218.583198 215.084015 
L 217.470436 215.841307 
L 216.380141 216.937507 
L 215.2647 217.808507 
L 214.173168 218.343892 
L 211.956302 219.158316 
L 210.87219 219.700041 
L 209.75881 220.733601 
L 208.642546 221.616519 
L 207.510205 222.751523 
L 206.405894 223.394137 
L 204.158937 224.029839 
L 201.956498 225.474162 
L 199.717051 227.373231 
L 197.514613 228.514886 
L 196.405355 228.893498 
L 195.322479 229.420082 
L 194.214871 230.235234 
L 193.113858 231.187583 
L 190.911832 232.371507 
L 188.737836 233.602549 
L 187.657021 234.223682 
L 186.541168 235.227585 
L 185.419545 236.031234 
L 184.328837 236.590074 
L 182.133406 237.44654 
L 178.763595 239.834205 
L 177.636613 240.922921 
L 176.541371 241.468734 
L 175.426755 241.79115 
L 174.319971 242.252537 
L 172.121036 243.536518 
L 171.001473 244.511318 
L 168.799859 245.645282 
L 167.677411 245.955884 
L 166.569391 246.502875 
L 165.446118 247.25892 
L 163.262641 249.300817 
L 162.144109 249.965397 
L 161.052577 250.19711 
L 158.870337 251.033326 
L 157.745416 251.68176 
L 156.627502 252.476124 
L 155.505466 253.422099 
L 152.138947 255.047274 
L 149.964951 257.152365 
L 148.883724 257.755067 
L 147.768283 258.107105 
L 145.522537 258.95991 
L 144.433066 259.288701 
L 141.092927 261.715861 
L 138.885543 262.656223 
L 137.790713 263.176537 
L 135.530977 264.738379 
L 134.447689 265.176859 
L 133.364401 265.744222 
L 132.281525 266.172862 
L 130.032507 267.384572 
L 128.909647 268.191269 
L 127.77689 268.740062 
L 124.39347 270.753827 
L 122.212054 271.793207 
L 118.916856 273.205538 
L 116.706174 274.713471 
L 115.602894 275.412488 
L 114.476323 275.973685 
L 113.395096 276.374539 
L 112.312633 277.083951 
L 110.14111 278.117372 
L 109.019074 278.940006 
L 107.894977 279.625443 
L 100.199428 283.336099 
L 97.940104 284.685353 
L 96.824458 285.23179 
L 95.710254 286.129953 
L 94.575852 286.638418 
L 92.388446 287.283241 
L 90.145611 288.347081 
L 89.023575 289.118301 
L 87.890822 289.480248 
L 84.519768 291.070569 
L 82.31465 292.38199 
L 78.991825 293.428282 
L 77.895965 293.568622 
L 74.642493 294.500658 
L 74.078848 295.488 
L 73.833627 294.248552 
L 73.833627 294.248552 
" clip-path="url(#p38f52abcb0)" style="fill: none; stroke: #000000; stroke-width: 1.5; stroke-linecap: square"/>
   </g>
   <g id="patch_3">
    <path d="M 57.6 307.584 
L 57.6 41.472 
" style="fill: none; stroke: #000000; stroke-width: 0.8; stroke-linejoin: miter; stroke-linecap: square"/>
   </g>
   <g id="patch_4">
    <path d="M 414.72 307.584 
L 414.72 41.472 
" style="fill: none; stroke: #000000; stroke-width: 0.8; stroke-linejoin: miter; stroke-linecap: square"/>
   </g>
   <g id="patch_5">
    <path d="M 57.6 307.584 
L 414.72 307.584 
" style="fill: none; stroke: #000000; stroke-width: 0.8; stroke-linejoin: miter; stroke-linecap: square"/>
   </g>
   <g id="patch_6">
    <path d="M 57.6 41.472 
L 414.72 41.472 
" style="fill: none; stroke: #000000; stroke-width: 0.8; stroke-linejoin: miter; stroke-linecap: square"/>
   </g>
   <g id="text_14">
    <!-- 2025-07-02 trial 11 -->
    <g transform="translate(178.0125 35.472) scale(0.12 -0.12)">
     <defs>
      <path id="DejaVuSans-35" d="M 691 4666 
L 3169 4666 
L 3169 4134 
L 1269 4134 
L 1269 2991 
Q 1406 3038 1543 3061 
Q 1681 3084 1819 3084 
Q 2600 3084 3056 2656 
Q 3513 2228 3513 1497 
Q 3513 744 3044 326 
Q 2575 -91 1722 -91 
Q 1428 -91 1123 -41 
Q 819 9 494 109 
L 494 744 
Q 775 591 1075 516 
Q 1375 441 1709 441 
Q 2250 441 2565 725 
Q 2881 1009 2881 1497 
Q 2881 1984 2565 2268 
Q 2250 2553 1709 2553 
Q 1456 2553 1204 2497 
Q 953 2441 691 2322 
L 691 4666 
z
" transform="scale(0.015625)"/>
      <path id="DejaVuSans-2d" d="M 313 2009 
L 1997 2009 
L 1997 1497 
L 313 1497 
L 313 2009 
z
" transform="scale(0.015625)"/>
      <path id="DejaVuSans-37" d="M 525 4666 
L 3525 4666 
L 3525 4397 
L 1831 0 
L 1172 0 
L 2766 4134 
L 525 4134 
L 525 4666 
z
" transform="scale(0.015625)"/>
      <path id="DejaVuSans-6c" d="M 603 4863 
L 1178 4863 
L 1178 0 
L 603 0 
L 603 4863 
z
" transform="scale(0.015625)"/>
     </defs>
     <use xlink:href="#DejaVuSans-32"/>
     <use xlink:href="#DejaVuSans-30" transform="translate(63.623047 0)"/>
     <use xlink:href="#DejaVuSans-32" transform="translate(127.246094 0)"/>
     <use xlink:href="#DejaVuSans-35" transform="translate(190.869141 0)"/>
     <use xlink:href="#DejaVuSans-2d" transform="translate(254.492188 0)"/>
     <use xlink:href="#DejaVuSans-30" transform="translate(290.576172 0)"/>
     <use xlink:href="#DejaVuSans-37" transform="translate(354.199219 0)"/>
     <use xlink:href="#DejaVuSans-2d" transform="translate(417.822266 0)"/>
     <use xlink:href="#DejaVuSans-30" transform="translate(453.90625 0)"/>
     <use xlink:href="#DejaVuSans-32" transform="translate(517.529297 0)"/>
     <use xlink:href="#DejaVuSans-20" transform="translate(581.152344 0)"/>
     <use xlink:href="#DejaVuSans-74" transform="translate(612.939453 0)"/>
     <use xlink:href="#DejaVuSans-72" transform="translate(652.148438 0)"/>
     <use xlink:href="#DejaVuSans-69" transform="translate(693.261719 0)"/>
     <use xlink:href="#DejaVuSans-61" transform="translate(721.044922 0)"/>
     <use xlink:href="#DejaVuSans-6c" transform="translate(782.324219 0)"/>
     <use xlink:href="#DejaVuSans-20" transform="translate(810.107422 0)"/>
     <use xlink:href="#DejaVuSans-31" transform="translate(841.894531 0)"/>
     <use xlink:href="#DejaVuSans-31" transform="translate(905.517578 0)"/>
    </g>
   </g>
  </g>
 </g>
 <defs>
  <clipPath id="p38f52abcb0">
   <rect x="57.6" y="41.472" width="357.12" height="266.112"/>
  </clipPath>
 </defs>
</svg>
