<?xml version="1.0" encoding="utf-8" standalone="no"?>
<!DOCTYPE svg PUBLIC "-//W3C//DTD SVG 1.1//EN"
  "http://www.w3.org/Graphics/SVG/1.1/DTD/svg11.dtd">
<svg xmlns:xlink="http://www.w3.org/1999/xlink" width="432pt" height="288pt" viewBox="0 0 432 288" xmlns="http://www.w3.org/2000/svg" version="1.1">
 <metadata>
  <rdf:RDF xmlns:dc="http://purl.org/dc/elements/1.1/" xmlns:cc="http://creativecommons.org/ns#" xmlns:rdf="http://www.w3.org/1999/02/22-rdf-syntax-ns#">
   <cc:Work>
    <dc:type rdf:resource="http://purl.org/dc/dcmitype/StillImage"/>
    <dc:date>2025-07-03T20:54:29.901478</dc:date>
    <dc:format>image/svg+xml</dc:format>
    <dc:creator>
     <cc:Agent>
      <dc:title>Matplotlib v3.9.2, https://matplotlib.org/</dc:title>
     </cc:Agent>
    </dc:creator>
   </cc:Work>
  </rdf:RDF>
 </metadata>
 <defs>
  <style type="text/css">*{stroke-linejoin: round; stroke-linecap: butt}</style>
 </defs>
 <g id="figure_1">
  <g id="patch_1">
   <path d="M 0 288 
L 432 288 
L 432 0 
L 0 0 
z
" style="fill: #ffffff"/>
  </g>
  <g id="axes_1">
   <g id="patch_2">
    <path d="M 54 256.32 
L 388.8 256.32 
L 388.8 34.56 
L 54 34.56 
z
" style="fill: #ffffff"/>
   </g>
   <g id="matplotlib.axis_1">
    <g id="xtick_1">
     <g id="line2d_1">
      <defs>
       <path id="m8096cbb82c" d="M 0 0 
L 0 3.5 
" style="stroke: #000000; stroke-width: 0.8"/>
      </defs>
      <g>
       <use xlink:href="#m8096cbb82c" x="69.439396" y="256.32" style="stroke: #000000; stroke-width: 0.8"/>
      </g>
     </g>
     <g id="text_1">
      <!-- 0.00 -->
      <g transform="translate(58.306583 270.918437) scale(0.1 -0.1)">
       <defs>
        <path id="DejaVuSans-30" d="M 2034 4250 
Q 1547 4250 1301 3770 
Q 1056 3291 1056 2328 
Q 1056 1369 1301 889 
Q 1547 409 2034 409 
Q 2525 409 2770 889 
Q 3016 1369 3016 2328 
Q 3016 3291 2770 3770 
Q 2525 4250 2034 4250 
z
M 2034 4750 
Q 2819 4750 3233 4129 
Q 3647 3509 3647 2328 
Q 3647 1150 3233 529 
Q 2819 -91 2034 -91 
Q 1250 -91 836 529 
Q 422 1150 422 2328 
Q 422 3509 836 4129 
Q 1250 4750 2034 4750 
z
" transform="scale(0.015625)"/>
        <path id="DejaVuSans-2e" d="M 684 794 
L 1344 794 
L 1344 0 
L 684 0 
L 684 794 
z
" transform="scale(0.015625)"/>
       </defs>
       <use xlink:href="#DejaVuSans-30"/>
       <use xlink:href="#DejaVuSans-2e" x="63.623047"/>
       <use xlink:href="#DejaVuSans-30" x="95.410156"/>
       <use xlink:href="#DejaVuSans-30" x="159.033203"/>
      </g>
     </g>
    </g>
    <g id="xtick_2">
     <g id="line2d_2">
      <g>
       <use xlink:href="#m8096cbb82c" x="120.073419" y="256.32" style="stroke: #000000; stroke-width: 0.8"/>
      </g>
     </g>
     <g id="text_2">
      <!-- 0.02 -->
      <g transform="translate(108.940606 270.918437) scale(0.1 -0.1)">
       <defs>
        <path id="DejaVuSans-32" d="M 1228 531 
L 3431 531 
L 3431 0 
L 469 0 
L 469 531 
Q 828 903 1448 1529 
Q 2069 2156 2228 2338 
Q 2531 2678 2651 2914 
Q 2772 3150 2772 3378 
Q 2772 3750 2511 3984 
Q 2250 4219 1831 4219 
Q 1534 4219 1204 4116 
Q 875 4013 500 3803 
L 500 4441 
Q 881 4594 1212 4672 
Q 1544 4750 1819 4750 
Q 2544 4750 2975 4387 
Q 3406 4025 3406 3419 
Q 3406 3131 3298 2873 
Q 3191 2616 2906 2266 
Q 2828 2175 2409 1742 
Q 1991 1309 1228 531 
z
" transform="scale(0.015625)"/>
       </defs>
       <use xlink:href="#DejaVuSans-30"/>
       <use xlink:href="#DejaVuSans-2e" x="63.623047"/>
       <use xlink:href="#DejaVuSans-30" x="95.410156"/>
       <use xlink:href="#DejaVuSans-32" x="159.033203"/>
      </g>
     </g>
    </g>
    <g id="xtick_3">
     <g id="line2d_3">
      <g>
       <use xlink:href="#m8096cbb82c" x="170.707442" y="256.32" style="stroke: #000000; stroke-width: 0.8"/>
      </g>
     </g>
     <g id="text_3">
      <!-- 0.04 -->
      <g transform="translate(159.574629 270.918437) scale(0.1 -0.1)">
       <defs>
        <path id="DejaVuSans-34" d="M 2419 4116 
L 825 1625 
L 2419 1625 
L 2419 4116 
z
M 2253 4666 
L 3047 4666 
L 3047 1625 
L 3713 1625 
L 3713 1100 
L 3047 1100 
L 3047 0 
L 2419 0 
L 2419 1100 
L 313 1100 
L 313 1709 
L 2253 4666 
z
" transform="scale(0.015625)"/>
       </defs>
       <use xlink:href="#DejaVuSans-30"/>
       <use xlink:href="#DejaVuSans-2e" x="63.623047"/>
       <use xlink:href="#DejaVuSans-30" x="95.410156"/>
       <use xlink:href="#DejaVuSans-34" x="159.033203"/>
      </g>
     </g>
    </g>
    <g id="xtick_4">
     <g id="line2d_4">
      <g>
       <use xlink:href="#m8096cbb82c" x="221.341465" y="256.32" style="stroke: #000000; stroke-width: 0.8"/>
      </g>
     </g>
     <g id="text_4">
      <!-- 0.06 -->
      <g transform="translate(210.208652 270.918437) scale(0.1 -0.1)">
       <defs>
        <path id="DejaVuSans-36" d="M 2113 2584 
Q 1688 2584 1439 2293 
Q 1191 2003 1191 1497 
Q 1191 994 1439 701 
Q 1688 409 2113 409 
Q 2538 409 2786 701 
Q 3034 994 3034 1497 
Q 3034 2003 2786 2293 
Q 2538 2584 2113 2584 
z
M 3366 4563 
L 3366 3988 
Q 3128 4100 2886 4159 
Q 2644 4219 2406 4219 
Q 1781 4219 1451 3797 
Q 1122 3375 1075 2522 
Q 1259 2794 1537 2939 
Q 1816 3084 2150 3084 
Q 2853 3084 3261 2657 
Q 3669 2231 3669 1497 
Q 3669 778 3244 343 
Q 2819 -91 2113 -91 
Q 1303 -91 875 529 
Q 447 1150 447 2328 
Q 447 3434 972 4092 
Q 1497 4750 2381 4750 
Q 2619 4750 2861 4703 
Q 3103 4656 3366 4563 
z
" transform="scale(0.015625)"/>
       </defs>
       <use xlink:href="#DejaVuSans-30"/>
       <use xlink:href="#DejaVuSans-2e" x="63.623047"/>
       <use xlink:href="#DejaVuSans-30" x="95.410156"/>
       <use xlink:href="#DejaVuSans-36" x="159.033203"/>
      </g>
     </g>
    </g>
    <g id="xtick_5">
     <g id="line2d_5">
      <g>
       <use xlink:href="#m8096cbb82c" x="271.975488" y="256.32" style="stroke: #000000; stroke-width: 0.8"/>
      </g>
     </g>
     <g id="text_5">
      <!-- 0.08 -->
      <g transform="translate(260.842675 270.918437) scale(0.1 -0.1)">
       <defs>
        <path id="DejaVuSans-38" d="M 2034 2216 
Q 1584 2216 1326 1975 
Q 1069 1734 1069 1313 
Q 1069 891 1326 650 
Q 1584 409 2034 409 
Q 2484 409 2743 651 
Q 3003 894 3003 1313 
Q 3003 1734 2745 1975 
Q 2488 2216 2034 2216 
z
M 1403 2484 
Q 997 2584 770 2862 
Q 544 3141 544 3541 
Q 544 4100 942 4425 
Q 1341 4750 2034 4750 
Q 2731 4750 3128 4425 
Q 3525 4100 3525 3541 
Q 3525 3141 3298 2862 
Q 3072 2584 2669 2484 
Q 3125 2378 3379 2068 
Q 3634 1759 3634 1313 
Q 3634 634 3220 271 
Q 2806 -91 2034 -91 
Q 1263 -91 848 271 
Q 434 634 434 1313 
Q 434 1759 690 2068 
Q 947 2378 1403 2484 
z
M 1172 3481 
Q 1172 3119 1398 2916 
Q 1625 2713 2034 2713 
Q 2441 2713 2670 2916 
Q 2900 3119 2900 3481 
Q 2900 3844 2670 4047 
Q 2441 4250 2034 4250 
Q 1625 4250 1398 4047 
Q 1172 3844 1172 3481 
z
" transform="scale(0.015625)"/>
       </defs>
       <use xlink:href="#DejaVuSans-30"/>
       <use xlink:href="#DejaVuSans-2e" x="63.623047"/>
       <use xlink:href="#DejaVuSans-30" x="95.410156"/>
       <use xlink:href="#DejaVuSans-38" x="159.033203"/>
      </g>
     </g>
    </g>
    <g id="xtick_6">
     <g id="line2d_6">
      <g>
       <use xlink:href="#m8096cbb82c" x="322.609511" y="256.32" style="stroke: #000000; stroke-width: 0.8"/>
      </g>
     </g>
     <g id="text_6">
      <!-- 0.10 -->
      <g transform="translate(311.476698 270.918437) scale(0.1 -0.1)">
       <defs>
        <path id="DejaVuSans-31" d="M 794 531 
L 1825 531 
L 1825 4091 
L 703 3866 
L 703 4441 
L 1819 4666 
L 2450 4666 
L 2450 531 
L 3481 531 
L 3481 0 
L 794 0 
L 794 531 
z
" transform="scale(0.015625)"/>
       </defs>
       <use xlink:href="#DejaVuSans-30"/>
       <use xlink:href="#DejaVuSans-2e" x="63.623047"/>
       <use xlink:href="#DejaVuSans-31" x="95.410156"/>
       <use xlink:href="#DejaVuSans-30" x="159.033203"/>
      </g>
     </g>
    </g>
    <g id="xtick_7">
     <g id="line2d_7">
      <g>
       <use xlink:href="#m8096cbb82c" x="373.243534" y="256.32" style="stroke: #000000; stroke-width: 0.8"/>
      </g>
     </g>
     <g id="text_7">
      <!-- 0.12 -->
      <g transform="translate(362.110722 270.918437) scale(0.1 -0.1)">
       <use xlink:href="#DejaVuSans-30"/>
       <use xlink:href="#DejaVuSans-2e" x="63.623047"/>
       <use xlink:href="#DejaVuSans-31" x="95.410156"/>
       <use xlink:href="#DejaVuSans-32" x="159.033203"/>
      </g>
     </g>
    </g>
    <g id="text_8">
     <!-- Strain -->
     <g transform="translate(206.588281 284.596563) scale(0.1 -0.1)">
      <defs>
       <path id="DejaVuSans-53" d="M 3425 4513 
L 3425 3897 
Q 3066 4069 2747 4153 
Q 2428 4238 2131 4238 
Q 1616 4238 1336 4038 
Q 1056 3838 1056 3469 
Q 1056 3159 1242 3001 
Q 1428 2844 1947 2747 
L 2328 2669 
Q 3034 2534 3370 2195 
Q 3706 1856 3706 1288 
Q 3706 609 3251 259 
Q 2797 -91 1919 -91 
Q 1588 -91 1214 -16 
Q 841 59 441 206 
L 441 856 
Q 825 641 1194 531 
Q 1563 422 1919 422 
Q 2459 422 2753 634 
Q 3047 847 3047 1241 
Q 3047 1584 2836 1778 
Q 2625 1972 2144 2069 
L 1759 2144 
Q 1053 2284 737 2584 
Q 422 2884 422 3419 
Q 422 4038 858 4394 
Q 1294 4750 2059 4750 
Q 2388 4750 2728 4690 
Q 3069 4631 3425 4513 
z
" transform="scale(0.015625)"/>
       <path id="DejaVuSans-74" d="M 1172 4494 
L 1172 3500 
L 2356 3500 
L 2356 3053 
L 1172 3053 
L 1172 1153 
Q 1172 725 1289 603 
Q 1406 481 1766 481 
L 2356 481 
L 2356 0 
L 1766 0 
Q 1100 0 847 248 
Q 594 497 594 1153 
L 594 3053 
L 172 3053 
L 172 3500 
L 594 3500 
L 594 4494 
L 1172 4494 
z
" transform="scale(0.015625)"/>
       <path id="DejaVuSans-72" d="M 2631 2963 
Q 2534 3019 2420 3045 
Q 2306 3072 2169 3072 
Q 1681 3072 1420 2755 
Q 1159 2438 1159 1844 
L 1159 0 
L 581 0 
L 581 3500 
L 1159 3500 
L 1159 2956 
Q 1341 3275 1631 3429 
Q 1922 3584 2338 3584 
Q 2397 3584 2469 3576 
Q 2541 3569 2628 3553 
L 2631 2963 
z
" transform="scale(0.015625)"/>
       <path id="DejaVuSans-61" d="M 2194 1759 
Q 1497 1759 1228 1600 
Q 959 1441 959 1056 
Q 959 750 1161 570 
Q 1363 391 1709 391 
Q 2188 391 2477 730 
Q 2766 1069 2766 1631 
L 2766 1759 
L 2194 1759 
z
M 3341 1997 
L 3341 0 
L 2766 0 
L 2766 531 
Q 2569 213 2275 61 
Q 1981 -91 1556 -91 
Q 1019 -91 701 211 
Q 384 513 384 1019 
Q 384 1609 779 1909 
Q 1175 2209 1959 2209 
L 2766 2209 
L 2766 2266 
Q 2766 2663 2505 2880 
Q 2244 3097 1772 3097 
Q 1472 3097 1187 3025 
Q 903 2953 641 2809 
L 641 3341 
Q 956 3463 1253 3523 
Q 1550 3584 1831 3584 
Q 2591 3584 2966 3190 
Q 3341 2797 3341 1997 
z
" transform="scale(0.015625)"/>
       <path id="DejaVuSans-69" d="M 603 3500 
L 1178 3500 
L 1178 0 
L 603 0 
L 603 3500 
z
M 603 4863 
L 1178 4863 
L 1178 4134 
L 603 4134 
L 603 4863 
z
" transform="scale(0.015625)"/>
       <path id="DejaVuSans-6e" d="M 3513 2113 
L 3513 0 
L 2938 0 
L 2938 2094 
Q 2938 2591 2744 2837 
Q 2550 3084 2163 3084 
Q 1697 3084 1428 2787 
Q 1159 2491 1159 1978 
L 1159 0 
L 581 0 
L 581 3500 
L 1159 3500 
L 1159 2956 
Q 1366 3272 1645 3428 
Q 1925 3584 2291 3584 
Q 2894 3584 3203 3211 
Q 3513 2838 3513 2113 
z
" transform="scale(0.015625)"/>
      </defs>
      <use xlink:href="#DejaVuSans-53"/>
      <use xlink:href="#DejaVuSans-74" x="63.476562"/>
      <use xlink:href="#DejaVuSans-72" x="102.685547"/>
      <use xlink:href="#DejaVuSans-61" x="143.798828"/>
      <use xlink:href="#DejaVuSans-69" x="205.078125"/>
      <use xlink:href="#DejaVuSans-6e" x="232.861328"/>
     </g>
    </g>
   </g>
   <g id="matplotlib.axis_2">
    <g id="ytick_1">
     <g id="line2d_8">
      <defs>
       <path id="m4a4796bb8d" d="M 0 0 
L -3.5 0 
" style="stroke: #000000; stroke-width: 0.8"/>
      </defs>
      <g>
       <use xlink:href="#m4a4796bb8d" x="54" y="215.96018" style="stroke: #000000; stroke-width: 0.8"/>
      </g>
     </g>
     <g id="text_9">
      <!-- 0 -->
      <g transform="translate(40.6375 219.759399) scale(0.1 -0.1)">
       <use xlink:href="#DejaVuSans-30"/>
      </g>
     </g>
    </g>
    <g id="ytick_2">
     <g id="line2d_9">
      <g>
       <use xlink:href="#m4a4796bb8d" x="54" y="175.335954" style="stroke: #000000; stroke-width: 0.8"/>
      </g>
     </g>
     <g id="text_10">
      <!-- 500 -->
      <g transform="translate(27.9125 179.135173) scale(0.1 -0.1)">
       <defs>
        <path id="DejaVuSans-35" d="M 691 4666 
L 3169 4666 
L 3169 4134 
L 1269 4134 
L 1269 2991 
Q 1406 3038 1543 3061 
Q 1681 3084 1819 3084 
Q 2600 3084 3056 2656 
Q 3513 2228 3513 1497 
Q 3513 744 3044 326 
Q 2575 -91 1722 -91 
Q 1428 -91 1123 -41 
Q 819 9 494 109 
L 494 744 
Q 775 591 1075 516 
Q 1375 441 1709 441 
Q 2250 441 2565 725 
Q 2881 1009 2881 1497 
Q 2881 1984 2565 2268 
Q 2250 2553 1709 2553 
Q 1456 2553 1204 2497 
Q 953 2441 691 2322 
L 691 4666 
z
" transform="scale(0.015625)"/>
       </defs>
       <use xlink:href="#DejaVuSans-35"/>
       <use xlink:href="#DejaVuSans-30" x="63.623047"/>
       <use xlink:href="#DejaVuSans-30" x="127.246094"/>
      </g>
     </g>
    </g>
    <g id="ytick_3">
     <g id="line2d_10">
      <g>
       <use xlink:href="#m4a4796bb8d" x="54" y="134.711729" style="stroke: #000000; stroke-width: 0.8"/>
      </g>
     </g>
     <g id="text_11">
      <!-- 1000 -->
      <g transform="translate(21.55 138.510948) scale(0.1 -0.1)">
       <use xlink:href="#DejaVuSans-31"/>
       <use xlink:href="#DejaVuSans-30" x="63.623047"/>
       <use xlink:href="#DejaVuSans-30" x="127.246094"/>
       <use xlink:href="#DejaVuSans-30" x="190.869141"/>
      </g>
     </g>
    </g>
    <g id="ytick_4">
     <g id="line2d_11">
      <g>
       <use xlink:href="#m4a4796bb8d" x="54" y="94.087504" style="stroke: #000000; stroke-width: 0.8"/>
      </g>
     </g>
     <g id="text_12">
      <!-- 1500 -->
      <g transform="translate(21.55 97.886722) scale(0.1 -0.1)">
       <use xlink:href="#DejaVuSans-31"/>
       <use xlink:href="#DejaVuSans-35" x="63.623047"/>
       <use xlink:href="#DejaVuSans-30" x="127.246094"/>
       <use xlink:href="#DejaVuSans-30" x="190.869141"/>
      </g>
     </g>
    </g>
    <g id="ytick_5">
     <g id="line2d_12">
      <g>
       <use xlink:href="#m4a4796bb8d" x="54" y="53.463278" style="stroke: #000000; stroke-width: 0.8"/>
      </g>
     </g>
     <g id="text_13">
      <!-- 2000 -->
      <g transform="translate(21.55 57.262497) scale(0.1 -0.1)">
       <use xlink:href="#DejaVuSans-32"/>
       <use xlink:href="#DejaVuSans-30" x="63.623047"/>
       <use xlink:href="#DejaVuSans-30" x="127.246094"/>
       <use xlink:href="#DejaVuSans-30" x="190.869141"/>
      </g>
     </g>
    </g>
    <g id="text_14">
     <!-- Stress [Pa] -->
     <g transform="translate(15.470312 172.147812) rotate(-90) scale(0.1 -0.1)">
      <defs>
       <path id="DejaVuSans-65" d="M 3597 1894 
L 3597 1613 
L 953 1613 
Q 991 1019 1311 708 
Q 1631 397 2203 397 
Q 2534 397 2845 478 
Q 3156 559 3463 722 
L 3463 178 
Q 3153 47 2828 -22 
Q 2503 -91 2169 -91 
Q 1331 -91 842 396 
Q 353 884 353 1716 
Q 353 2575 817 3079 
Q 1281 3584 2069 3584 
Q 2775 3584 3186 3129 
Q 3597 2675 3597 1894 
z
M 3022 2063 
Q 3016 2534 2758 2815 
Q 2500 3097 2075 3097 
Q 1594 3097 1305 2825 
Q 1016 2553 972 2059 
L 3022 2063 
z
" transform="scale(0.015625)"/>
       <path id="DejaVuSans-73" d="M 2834 3397 
L 2834 2853 
Q 2591 2978 2328 3040 
Q 2066 3103 1784 3103 
Q 1356 3103 1142 2972 
Q 928 2841 928 2578 
Q 928 2378 1081 2264 
Q 1234 2150 1697 2047 
L 1894 2003 
Q 2506 1872 2764 1633 
Q 3022 1394 3022 966 
Q 3022 478 2636 193 
Q 2250 -91 1575 -91 
Q 1294 -91 989 -36 
Q 684 19 347 128 
L 347 722 
Q 666 556 975 473 
Q 1284 391 1588 391 
Q 1994 391 2212 530 
Q 2431 669 2431 922 
Q 2431 1156 2273 1281 
Q 2116 1406 1581 1522 
L 1381 1569 
Q 847 1681 609 1914 
Q 372 2147 372 2553 
Q 372 3047 722 3315 
Q 1072 3584 1716 3584 
Q 2034 3584 2315 3537 
Q 2597 3491 2834 3397 
z
" transform="scale(0.015625)"/>
       <path id="DejaVuSans-20" transform="scale(0.015625)"/>
       <path id="DejaVuSans-5b" d="M 550 4863 
L 1875 4863 
L 1875 4416 
L 1125 4416 
L 1125 -397 
L 1875 -397 
L 1875 -844 
L 550 -844 
L 550 4863 
z
" transform="scale(0.015625)"/>
       <path id="DejaVuSans-50" d="M 1259 4147 
L 1259 2394 
L 2053 2394 
Q 2494 2394 2734 2622 
Q 2975 2850 2975 3272 
Q 2975 3691 2734 3919 
Q 2494 4147 2053 4147 
L 1259 4147 
z
M 628 4666 
L 2053 4666 
Q 2838 4666 3239 4311 
Q 3641 3956 3641 3272 
Q 3641 2581 3239 2228 
Q 2838 1875 2053 1875 
L 1259 1875 
L 1259 0 
L 628 0 
L 628 4666 
z
" transform="scale(0.015625)"/>
       <path id="DejaVuSans-5d" d="M 1947 4863 
L 1947 -844 
L 622 -844 
L 622 -397 
L 1369 -397 
L 1369 4416 
L 622 4416 
L 622 4863 
L 1947 4863 
z
" transform="scale(0.015625)"/>
      </defs>
      <use xlink:href="#DejaVuSans-53"/>
      <use xlink:href="#DejaVuSans-74" x="63.476562"/>
      <use xlink:href="#DejaVuSans-72" x="102.685547"/>
      <use xlink:href="#DejaVuSans-65" x="141.548828"/>
      <use xlink:href="#DejaVuSans-73" x="203.072266"/>
      <use xlink:href="#DejaVuSans-73" x="255.171875"/>
      <use xlink:href="#DejaVuSans-20" x="307.271484"/>
      <use xlink:href="#DejaVuSans-5b" x="339.058594"/>
      <use xlink:href="#DejaVuSans-50" x="378.072266"/>
      <use xlink:href="#DejaVuSans-61" x="433.875"/>
      <use xlink:href="#DejaVuSans-5d" x="495.154297"/>
     </g>
    </g>
   </g>
   <g id="line2d_13">
    <path d="M 69.439396 216.375239 
L 69.440106 216.448991 
L 69.437784 216.3463 
L 69.440952 216.384313 
L 70.643101 215.990463 
L 71.684294 215.432673 
L 72.728482 215.194896 
L 73.785031 215.409165 
L 76.863512 215.480492 
L 77.907313 215.727133 
L 78.94841 215.767819 
L 79.970579 216.023795 
L 81.013994 216.01483 
L 82.06668 215.694882 
L 83.135591 215.609382 
L 84.194459 215.768146 
L 87.28588 214.736835 
L 89.360834 213.719633 
L 94.586987 212.223943 
L 97.670489 210.860909 
L 99.761955 210.147106 
L 103.909733 208.576782 
L 104.961453 207.820587 
L 107.043455 206.760459 
L 110.124639 205.374559 
L 113.236341 203.698171 
L 116.398541 202.191756 
L 120.546898 199.834278 
L 122.66386 198.827418 
L 123.697618 198.327456 
L 126.815308 196.378221 
L 130.963858 194.227563 
L 135.153743 191.639202 
L 137.235937 190.525379 
L 139.328798 189.204316 
L 147.567566 184.588789 
L 149.645124 183.308996 
L 163.03375 175.432583 
L 172.477681 169.868214 
L 176.635696 167.424584 
L 178.701859 166.197373 
L 180.78753 165.004761 
L 184.960031 162.428904 
L 188.069029 160.580809 
L 193.264435 157.414635 
L 200.499964 153.023226 
L 204.677101 150.553048 
L 206.749251 149.293466 
L 217.206773 142.817095 
L 220.267483 141.138052 
L 225.476446 137.939769 
L 228.549904 136.089961 
L 233.721974 132.961217 
L 236.850674 131.089314 
L 239.935335 129.359402 
L 258.848814 117.651051 
L 260.878085 116.489269 
L 298.340743 93.140575 
L 300.405554 91.779768 
L 304.565693 89.282185 
L 306.64866 87.950837 
L 311.824401 84.674451 
L 323.146647 77.432946 
L 325.188279 76.034458 
L 328.278734 74.175915 
L 330.354748 72.769547 
L 332.478663 71.241401 
L 334.585581 69.88419 
L 338.687388 67.217213 
L 341.786729 65.208287 
L 361.528148 51.717612 
L 363.558191 50.356976 
L 366.623923 48.21805 
L 368.733497 46.807722 
L 369.767448 46.159775 
L 372.959116 44.64 
L 373.581818 45.35664 
L 373.246962 50.619428 
L 373.238464 76.552457 
L 372.217599 76.611109 
L 370.111623 78.998004 
L 368.066514 79.768072 
L 361.731853 83.779328 
L 360.688051 85.226289 
L 358.598904 87.195991 
L 357.522652 88.52751 
L 356.45181 89.421584 
L 355.368605 89.815696 
L 354.290809 90.347002 
L 351.225077 92.565058 
L 350.195376 93.039585 
L 349.161425 94.966125 
L 348.144279 96.024113 
L 341.844965 100.528737 
L 339.760573 102.287232 
L 337.667755 104.029305 
L 336.602707 104.92355 
L 331.380224 108.234706 
L 329.280839 110.270008 
L 327.205405 111.713543 
L 325.154115 112.983915 
L 323.105336 114.700297 
L 293.127483 135.449861 
L 291.070398 136.737362 
L 287.961038 138.851323 
L 278.521242 144.906189 
L 276.441365 146.256891 
L 273.328504 148.154657 
L 270.21988 150.162383 
L 267.118608 151.974681 
L 264.995658 153.356663 
L 260.842858 155.73555 
L 256.668812 158.334016 
L 253.541657 160.066497 
L 250.434591 161.987728 
L 247.32791 163.757549 
L 244.190325 165.482323 
L 242.073363 166.686753 
L 238.960792 168.558051 
L 230.778811 173.146257 
L 217.238366 180.628728 
L 215.157137 181.900129 
L 205.937512 186.662452 
L 199.796391 190.016085 
L 194.584724 192.466309 
L 191.426278 194.152373 
L 187.242912 196.267353 
L 184.163659 197.649228 
L 182.082624 198.720746 
L 180.004679 199.87876 
L 175.875058 201.779694 
L 171.711635 203.891044 
L 169.675803 204.827766 
L 165.532661 206.948193 
L 164.498904 207.307878 
L 160.352267 209.385849 
L 159.301705 209.967082 
L 156.20391 211.151815 
L 150.965008 213.792416 
L 148.930716 214.700963 
L 141.724546 217.969213 
L 140.663748 218.593009 
L 138.600482 219.481259 
L 135.478434 220.696032 
L 131.317908 222.755998 
L 129.246917 223.487871 
L 127.169551 224.531129 
L 125.061861 225.528055 
L 120.93842 227.200247 
L 119.891526 227.789274 
L 117.808172 228.619718 
L 115.743748 229.428923 
L 107.448712 232.979784 
L 103.304411 234.861364 
L 98.030935 236.946937 
L 94.931594 238.266552 
L 92.871418 238.945241 
L 89.733833 240.298941 
L 85.662745 241.80009 
L 82.511253 243.080825 
L 75.24115 245.491997 
L 73.210334 245.940918 
L 70.107131 246.24 
L 69.516612 246.090035 
L 69.47663 246.03377 
L 69.218902 240.469002 
L 69.218902 240.469002 
" clip-path="url(#pcc815dd9f9)" style="fill: none; stroke: #ff0000; stroke-width: 1.5; stroke-linecap: square"/>
   </g>
   <g id="line2d_14">
    <path d="M 69.439396 216.375239 
L 69.440106 216.448991 
L 69.437784 216.3463 
L 69.440952 216.384313 
L 70.643101 215.990463 
L 71.684294 215.432673 
L 72.728482 215.194896 
L 73.785031 215.409165 
L 74.812994 216.996692 
L 75.849842 216.445496 
L 76.863512 216.249896 
L 77.907313 216.271049 
L 78.94841 215.964468 
L 81.013994 216.01483 
L 82.06668 215.694882 
L 83.135591 215.609382 
L 84.194459 215.768146 
L 87.28588 214.736835 
L 89.360834 213.719633 
L 94.586987 212.223943 
L 97.670489 210.860909 
L 99.761955 210.147106 
L 103.909733 208.576782 
L 104.961453 207.820587 
L 107.043455 206.760459 
L 110.124639 205.374559 
L 113.236341 203.698171 
L 116.398541 202.191756 
L 120.546898 199.834278 
L 122.66386 198.827418 
L 123.697618 198.327456 
L 126.815308 196.378221 
L 130.963858 194.227563 
L 135.153743 191.639202 
L 137.235937 190.525379 
L 139.328798 189.204316 
L 147.567566 184.588789 
L 149.645124 183.308996 
L 163.03375 175.432583 
L 172.477681 169.868214 
L 176.635696 167.424584 
L 178.701859 166.197373 
L 180.78753 165.004761 
L 184.960031 162.428904 
L 188.069029 160.580809 
L 193.264435 157.414635 
L 200.499964 153.023226 
L 204.677101 150.553048 
L 206.749251 149.293466 
L 217.206773 142.817095 
L 220.267483 141.138052 
L 225.476446 137.939769 
L 228.549904 136.089961 
L 233.721974 132.961217 
L 236.850674 131.089314 
L 239.935335 129.359402 
L 258.848814 117.651051 
L 260.878085 116.489269 
L 298.340743 93.140575 
L 300.405554 91.779768 
L 304.565693 89.282185 
L 306.64866 87.950837 
L 311.824401 84.674451 
L 323.146647 77.432946 
L 325.188279 76.034458 
L 328.278734 74.175915 
L 330.354748 72.769547 
L 332.478663 71.241401 
L 334.585581 69.88419 
L 338.687388 67.217213 
L 341.786729 65.208287 
L 361.528148 51.717612 
L 363.558191 50.356976 
L 366.623923 48.21805 
L 368.733497 46.807722 
L 369.767448 46.159775 
L 372.959116 44.64 
L 373.581818 45.35664 
L 373.246962 50.619428 
L 373.238464 76.552457 
L 372.217599 76.611109 
L 370.111623 78.998004 
L 368.066514 79.768072 
L 361.731853 83.779328 
L 360.688051 85.226289 
L 358.598904 87.195991 
L 357.522652 88.52751 
L 356.45181 89.421584 
L 355.368605 89.815696 
L 354.290809 90.347002 
L 351.225077 92.565058 
L 350.195376 93.039585 
L 349.161425 94.966125 
L 348.144279 96.024113 
L 341.844965 100.528737 
L 339.760573 102.287232 
L 337.667755 104.029305 
L 336.602707 104.92355 
L 331.380224 108.234706 
L 329.280839 110.270008 
L 327.205405 111.713543 
L 325.154115 112.983915 
L 323.105336 114.700297 
L 293.127483 135.449861 
L 291.070398 136.737362 
L 287.961038 138.851323 
L 278.521242 144.906189 
L 276.441365 146.256891 
L 273.328504 148.154657 
L 270.21988 150.162383 
L 267.118608 151.974681 
L 264.995658 153.356663 
L 260.842858 155.73555 
L 256.668812 158.334016 
L 253.541657 160.066497 
L 250.434591 161.987728 
L 247.32791 163.757549 
L 244.190325 165.482323 
L 242.073363 166.686753 
L 238.960792 168.558051 
L 230.778811 173.146257 
L 217.238366 180.628728 
L 215.157137 181.900129 
L 205.937512 186.662452 
L 199.796391 190.016085 
L 194.584724 192.466309 
L 191.426278 194.152373 
L 187.242912 196.267353 
L 184.163659 197.649228 
L 182.082624 198.720746 
L 181.027233 199.390885 
L 167.576998 205.912472 
L 165.532661 206.948193 
L 164.498904 207.307878 
L 160.352267 209.385849 
L 159.301705 209.967082 
L 156.20391 211.151815 
L 150.965008 213.792416 
L 148.930716 214.700963 
L 141.724546 217.969213 
L 140.663748 218.593009 
L 138.600482 219.481259 
L 135.478434 220.696032 
L 131.317908 222.755998 
L 129.246917 223.487871 
L 127.169551 224.531129 
L 125.061861 225.528055 
L 120.93842 227.200247 
L 119.891526 227.789274 
L 117.808172 228.619718 
L 115.743748 229.428923 
L 107.448712 232.979784 
L 103.304411 234.861364 
L 98.030935 236.946937 
L 94.931594 238.266552 
L 92.871418 238.945241 
L 89.733833 240.298941 
L 85.662745 241.80009 
L 82.511253 243.080825 
L 75.24115 245.491997 
L 73.210334 245.940918 
L 70.107131 246.24 
L 69.516612 246.090035 
L 69.47663 246.03377 
L 69.218902 240.469002 
L 69.218902 240.469002 
" clip-path="url(#pcc815dd9f9)" style="fill: none; stroke: #000000; stroke-width: 1.5; stroke-linecap: square"/>
   </g>
   <g id="patch_3">
    <path d="M 54 256.32 
L 54 34.56 
" style="fill: none; stroke: #000000; stroke-width: 0.8; stroke-linejoin: miter; stroke-linecap: square"/>
   </g>
   <g id="patch_4">
    <path d="M 388.8 256.32 
L 388.8 34.56 
" style="fill: none; stroke: #000000; stroke-width: 0.8; stroke-linejoin: miter; stroke-linecap: square"/>
   </g>
   <g id="patch_5">
    <path d="M 54 256.32 
L 388.8 256.32 
" style="fill: none; stroke: #000000; stroke-width: 0.8; stroke-linejoin: miter; stroke-linecap: square"/>
   </g>
   <g id="patch_6">
    <path d="M 54 34.56 
L 388.8 34.56 
" style="fill: none; stroke: #000000; stroke-width: 0.8; stroke-linejoin: miter; stroke-linecap: square"/>
   </g>
   <g id="text_15">
    <!-- 2025-06-25 trial 7 -->
    <g transform="translate(167.07 28.56) scale(0.12 -0.12)">
     <defs>
      <path id="DejaVuSans-2d" d="M 313 2009 
L 1997 2009 
L 1997 1497 
L 313 1497 
L 313 2009 
z
" transform="scale(0.015625)"/>
      <path id="DejaVuSans-6c" d="M 603 4863 
L 1178 4863 
L 1178 0 
L 603 0 
L 603 4863 
z
" transform="scale(0.015625)"/>
      <path id="DejaVuSans-37" d="M 525 4666 
L 3525 4666 
L 3525 4397 
L 1831 0 
L 1172 0 
L 2766 4134 
L 525 4134 
L 525 4666 
z
" transform="scale(0.015625)"/>
     </defs>
     <use xlink:href="#DejaVuSans-32"/>
     <use xlink:href="#DejaVuSans-30" x="63.623047"/>
     <use xlink:href="#DejaVuSans-32" x="127.246094"/>
     <use xlink:href="#DejaVuSans-35" x="190.869141"/>
     <use xlink:href="#DejaVuSans-2d" x="254.492188"/>
     <use xlink:href="#DejaVuSans-30" x="290.576172"/>
     <use xlink:href="#DejaVuSans-36" x="354.199219"/>
     <use xlink:href="#DejaVuSans-2d" x="417.822266"/>
     <use xlink:href="#DejaVuSans-32" x="453.90625"/>
     <use xlink:href="#DejaVuSans-35" x="517.529297"/>
     <use xlink:href="#DejaVuSans-20" x="581.152344"/>
     <use xlink:href="#DejaVuSans-74" x="612.939453"/>
     <use xlink:href="#DejaVuSans-72" x="652.148438"/>
     <use xlink:href="#DejaVuSans-69" x="693.261719"/>
     <use xlink:href="#DejaVuSans-61" x="721.044922"/>
     <use xlink:href="#DejaVuSans-6c" x="782.324219"/>
     <use xlink:href="#DejaVuSans-20" x="810.107422"/>
     <use xlink:href="#DejaVuSans-37" x="841.894531"/>
    </g>
   </g>
  </g>
 </g>
 <defs>
  <clipPath id="pcc815dd9f9">
   <rect x="54" y="34.56" width="334.8" height="221.76"/>
  </clipPath>
 </defs>
</svg>
