<?xml version="1.0" encoding="utf-8" standalone="no"?>
<!DOCTYPE svg PUBLIC "-//W3C//DTD SVG 1.1//EN"
  "http://www.w3.org/Graphics/SVG/1.1/DTD/svg11.dtd">
<svg xmlns:xlink="http://www.w3.org/1999/xlink" width="432pt" height="288pt" viewBox="0 0 432 288" xmlns="http://www.w3.org/2000/svg" version="1.1">
 <metadata>
  <rdf:RDF xmlns:dc="http://purl.org/dc/elements/1.1/" xmlns:cc="http://creativecommons.org/ns#" xmlns:rdf="http://www.w3.org/1999/02/22-rdf-syntax-ns#">
   <cc:Work>
    <dc:type rdf:resource="http://purl.org/dc/dcmitype/StillImage"/>
    <dc:date>2025-07-03T20:54:24.780817</dc:date>
    <dc:format>image/svg+xml</dc:format>
    <dc:creator>
     <cc:Agent>
      <dc:title>Matplotlib v3.9.2, https://matplotlib.org/</dc:title>
     </cc:Agent>
    </dc:creator>
   </cc:Work>
  </rdf:RDF>
 </metadata>
 <defs>
  <style type="text/css">*{stroke-linejoin: round; stroke-linecap: butt}</style>
 </defs>
 <g id="figure_1">
  <g id="patch_1">
   <path d="M 0 288 
L 432 288 
L 432 0 
L 0 0 
z
" style="fill: #ffffff"/>
  </g>
  <g id="axes_1">
   <g id="patch_2">
    <path d="M 54 256.32 
L 388.8 256.32 
L 388.8 34.56 
L 54 34.56 
z
" style="fill: #ffffff"/>
   </g>
   <g id="matplotlib.axis_1">
    <g id="xtick_1">
     <g id="line2d_1">
      <defs>
       <path id="m578771de79" d="M 0 0 
L 0 3.5 
" style="stroke: #000000; stroke-width: 0.8"/>
      </defs>
      <g>
       <use xlink:href="#m578771de79" x="69.363638" y="256.32" style="stroke: #000000; stroke-width: 0.8"/>
      </g>
     </g>
     <g id="text_1">
      <!-- 0.000 -->
      <g transform="translate(55.049576 270.918437) scale(0.1 -0.1)">
       <defs>
        <path id="DejaVuSans-30" d="M 2034 4250 
Q 1547 4250 1301 3770 
Q 1056 3291 1056 2328 
Q 1056 1369 1301 889 
Q 1547 409 2034 409 
Q 2525 409 2770 889 
Q 3016 1369 3016 2328 
Q 3016 3291 2770 3770 
Q 2525 4250 2034 4250 
z
M 2034 4750 
Q 2819 4750 3233 4129 
Q 3647 3509 3647 2328 
Q 3647 1150 3233 529 
Q 2819 -91 2034 -91 
Q 1250 -91 836 529 
Q 422 1150 422 2328 
Q 422 3509 836 4129 
Q 1250 4750 2034 4750 
z
" transform="scale(0.015625)"/>
        <path id="DejaVuSans-2e" d="M 684 794 
L 1344 794 
L 1344 0 
L 684 0 
L 684 794 
z
" transform="scale(0.015625)"/>
       </defs>
       <use xlink:href="#DejaVuSans-30"/>
       <use xlink:href="#DejaVuSans-2e" x="63.623047"/>
       <use xlink:href="#DejaVuSans-30" x="95.410156"/>
       <use xlink:href="#DejaVuSans-30" x="159.033203"/>
       <use xlink:href="#DejaVuSans-30" x="222.65625"/>
      </g>
     </g>
    </g>
    <g id="xtick_2">
     <g id="line2d_2">
      <g>
       <use xlink:href="#m578771de79" x="107.37125" y="256.32" style="stroke: #000000; stroke-width: 0.8"/>
      </g>
     </g>
     <g id="text_2">
      <!-- 0.025 -->
      <g transform="translate(93.057188 270.918437) scale(0.1 -0.1)">
       <defs>
        <path id="DejaVuSans-32" d="M 1228 531 
L 3431 531 
L 3431 0 
L 469 0 
L 469 531 
Q 828 903 1448 1529 
Q 2069 2156 2228 2338 
Q 2531 2678 2651 2914 
Q 2772 3150 2772 3378 
Q 2772 3750 2511 3984 
Q 2250 4219 1831 4219 
Q 1534 4219 1204 4116 
Q 875 4013 500 3803 
L 500 4441 
Q 881 4594 1212 4672 
Q 1544 4750 1819 4750 
Q 2544 4750 2975 4387 
Q 3406 4025 3406 3419 
Q 3406 3131 3298 2873 
Q 3191 2616 2906 2266 
Q 2828 2175 2409 1742 
Q 1991 1309 1228 531 
z
" transform="scale(0.015625)"/>
        <path id="DejaVuSans-35" d="M 691 4666 
L 3169 4666 
L 3169 4134 
L 1269 4134 
L 1269 2991 
Q 1406 3038 1543 3061 
Q 1681 3084 1819 3084 
Q 2600 3084 3056 2656 
Q 3513 2228 3513 1497 
Q 3513 744 3044 326 
Q 2575 -91 1722 -91 
Q 1428 -91 1123 -41 
Q 819 9 494 109 
L 494 744 
Q 775 591 1075 516 
Q 1375 441 1709 441 
Q 2250 441 2565 725 
Q 2881 1009 2881 1497 
Q 2881 1984 2565 2268 
Q 2250 2553 1709 2553 
Q 1456 2553 1204 2497 
Q 953 2441 691 2322 
L 691 4666 
z
" transform="scale(0.015625)"/>
       </defs>
       <use xlink:href="#DejaVuSans-30"/>
       <use xlink:href="#DejaVuSans-2e" x="63.623047"/>
       <use xlink:href="#DejaVuSans-30" x="95.410156"/>
       <use xlink:href="#DejaVuSans-32" x="159.033203"/>
       <use xlink:href="#DejaVuSans-35" x="222.65625"/>
      </g>
     </g>
    </g>
    <g id="xtick_3">
     <g id="line2d_3">
      <g>
       <use xlink:href="#m578771de79" x="145.378862" y="256.32" style="stroke: #000000; stroke-width: 0.8"/>
      </g>
     </g>
     <g id="text_3">
      <!-- 0.050 -->
      <g transform="translate(131.0648 270.918437) scale(0.1 -0.1)">
       <use xlink:href="#DejaVuSans-30"/>
       <use xlink:href="#DejaVuSans-2e" x="63.623047"/>
       <use xlink:href="#DejaVuSans-30" x="95.410156"/>
       <use xlink:href="#DejaVuSans-35" x="159.033203"/>
       <use xlink:href="#DejaVuSans-30" x="222.65625"/>
      </g>
     </g>
    </g>
    <g id="xtick_4">
     <g id="line2d_4">
      <g>
       <use xlink:href="#m578771de79" x="183.386475" y="256.32" style="stroke: #000000; stroke-width: 0.8"/>
      </g>
     </g>
     <g id="text_4">
      <!-- 0.075 -->
      <g transform="translate(169.072412 270.918437) scale(0.1 -0.1)">
       <defs>
        <path id="DejaVuSans-37" d="M 525 4666 
L 3525 4666 
L 3525 4397 
L 1831 0 
L 1172 0 
L 2766 4134 
L 525 4134 
L 525 4666 
z
" transform="scale(0.015625)"/>
       </defs>
       <use xlink:href="#DejaVuSans-30"/>
       <use xlink:href="#DejaVuSans-2e" x="63.623047"/>
       <use xlink:href="#DejaVuSans-30" x="95.410156"/>
       <use xlink:href="#DejaVuSans-37" x="159.033203"/>
       <use xlink:href="#DejaVuSans-35" x="222.65625"/>
      </g>
     </g>
    </g>
    <g id="xtick_5">
     <g id="line2d_5">
      <g>
       <use xlink:href="#m578771de79" x="221.394087" y="256.32" style="stroke: #000000; stroke-width: 0.8"/>
      </g>
     </g>
     <g id="text_5">
      <!-- 0.100 -->
      <g transform="translate(207.080024 270.918437) scale(0.1 -0.1)">
       <defs>
        <path id="DejaVuSans-31" d="M 794 531 
L 1825 531 
L 1825 4091 
L 703 3866 
L 703 4441 
L 1819 4666 
L 2450 4666 
L 2450 531 
L 3481 531 
L 3481 0 
L 794 0 
L 794 531 
z
" transform="scale(0.015625)"/>
       </defs>
       <use xlink:href="#DejaVuSans-30"/>
       <use xlink:href="#DejaVuSans-2e" x="63.623047"/>
       <use xlink:href="#DejaVuSans-31" x="95.410156"/>
       <use xlink:href="#DejaVuSans-30" x="159.033203"/>
       <use xlink:href="#DejaVuSans-30" x="222.65625"/>
      </g>
     </g>
    </g>
    <g id="xtick_6">
     <g id="line2d_6">
      <g>
       <use xlink:href="#m578771de79" x="259.401699" y="256.32" style="stroke: #000000; stroke-width: 0.8"/>
      </g>
     </g>
     <g id="text_6">
      <!-- 0.125 -->
      <g transform="translate(245.087637 270.918437) scale(0.1 -0.1)">
       <use xlink:href="#DejaVuSans-30"/>
       <use xlink:href="#DejaVuSans-2e" x="63.623047"/>
       <use xlink:href="#DejaVuSans-31" x="95.410156"/>
       <use xlink:href="#DejaVuSans-32" x="159.033203"/>
       <use xlink:href="#DejaVuSans-35" x="222.65625"/>
      </g>
     </g>
    </g>
    <g id="xtick_7">
     <g id="line2d_7">
      <g>
       <use xlink:href="#m578771de79" x="297.409311" y="256.32" style="stroke: #000000; stroke-width: 0.8"/>
      </g>
     </g>
     <g id="text_7">
      <!-- 0.150 -->
      <g transform="translate(283.095249 270.918437) scale(0.1 -0.1)">
       <use xlink:href="#DejaVuSans-30"/>
       <use xlink:href="#DejaVuSans-2e" x="63.623047"/>
       <use xlink:href="#DejaVuSans-31" x="95.410156"/>
       <use xlink:href="#DejaVuSans-35" x="159.033203"/>
       <use xlink:href="#DejaVuSans-30" x="222.65625"/>
      </g>
     </g>
    </g>
    <g id="xtick_8">
     <g id="line2d_8">
      <g>
       <use xlink:href="#m578771de79" x="335.416923" y="256.32" style="stroke: #000000; stroke-width: 0.8"/>
      </g>
     </g>
     <g id="text_8">
      <!-- 0.175 -->
      <g transform="translate(321.102861 270.918437) scale(0.1 -0.1)">
       <use xlink:href="#DejaVuSans-30"/>
       <use xlink:href="#DejaVuSans-2e" x="63.623047"/>
       <use xlink:href="#DejaVuSans-31" x="95.410156"/>
       <use xlink:href="#DejaVuSans-37" x="159.033203"/>
       <use xlink:href="#DejaVuSans-35" x="222.65625"/>
      </g>
     </g>
    </g>
    <g id="xtick_9">
     <g id="line2d_9">
      <g>
       <use xlink:href="#m578771de79" x="373.424536" y="256.32" style="stroke: #000000; stroke-width: 0.8"/>
      </g>
     </g>
     <g id="text_9">
      <!-- 0.200 -->
      <g transform="translate(359.110473 270.918437) scale(0.1 -0.1)">
       <use xlink:href="#DejaVuSans-30"/>
       <use xlink:href="#DejaVuSans-2e" x="63.623047"/>
       <use xlink:href="#DejaVuSans-32" x="95.410156"/>
       <use xlink:href="#DejaVuSans-30" x="159.033203"/>
       <use xlink:href="#DejaVuSans-30" x="222.65625"/>
      </g>
     </g>
    </g>
    <g id="text_10">
     <!-- Strain -->
     <g transform="translate(206.588281 284.596563) scale(0.1 -0.1)">
      <defs>
       <path id="DejaVuSans-53" d="M 3425 4513 
L 3425 3897 
Q 3066 4069 2747 4153 
Q 2428 4238 2131 4238 
Q 1616 4238 1336 4038 
Q 1056 3838 1056 3469 
Q 1056 3159 1242 3001 
Q 1428 2844 1947 2747 
L 2328 2669 
Q 3034 2534 3370 2195 
Q 3706 1856 3706 1288 
Q 3706 609 3251 259 
Q 2797 -91 1919 -91 
Q 1588 -91 1214 -16 
Q 841 59 441 206 
L 441 856 
Q 825 641 1194 531 
Q 1563 422 1919 422 
Q 2459 422 2753 634 
Q 3047 847 3047 1241 
Q 3047 1584 2836 1778 
Q 2625 1972 2144 2069 
L 1759 2144 
Q 1053 2284 737 2584 
Q 422 2884 422 3419 
Q 422 4038 858 4394 
Q 1294 4750 2059 4750 
Q 2388 4750 2728 4690 
Q 3069 4631 3425 4513 
z
" transform="scale(0.015625)"/>
       <path id="DejaVuSans-74" d="M 1172 4494 
L 1172 3500 
L 2356 3500 
L 2356 3053 
L 1172 3053 
L 1172 1153 
Q 1172 725 1289 603 
Q 1406 481 1766 481 
L 2356 481 
L 2356 0 
L 1766 0 
Q 1100 0 847 248 
Q 594 497 594 1153 
L 594 3053 
L 172 3053 
L 172 3500 
L 594 3500 
L 594 4494 
L 1172 4494 
z
" transform="scale(0.015625)"/>
       <path id="DejaVuSans-72" d="M 2631 2963 
Q 2534 3019 2420 3045 
Q 2306 3072 2169 3072 
Q 1681 3072 1420 2755 
Q 1159 2438 1159 1844 
L 1159 0 
L 581 0 
L 581 3500 
L 1159 3500 
L 1159 2956 
Q 1341 3275 1631 3429 
Q 1922 3584 2338 3584 
Q 2397 3584 2469 3576 
Q 2541 3569 2628 3553 
L 2631 2963 
z
" transform="scale(0.015625)"/>
       <path id="DejaVuSans-61" d="M 2194 1759 
Q 1497 1759 1228 1600 
Q 959 1441 959 1056 
Q 959 750 1161 570 
Q 1363 391 1709 391 
Q 2188 391 2477 730 
Q 2766 1069 2766 1631 
L 2766 1759 
L 2194 1759 
z
M 3341 1997 
L 3341 0 
L 2766 0 
L 2766 531 
Q 2569 213 2275 61 
Q 1981 -91 1556 -91 
Q 1019 -91 701 211 
Q 384 513 384 1019 
Q 384 1609 779 1909 
Q 1175 2209 1959 2209 
L 2766 2209 
L 2766 2266 
Q 2766 2663 2505 2880 
Q 2244 3097 1772 3097 
Q 1472 3097 1187 3025 
Q 903 2953 641 2809 
L 641 3341 
Q 956 3463 1253 3523 
Q 1550 3584 1831 3584 
Q 2591 3584 2966 3190 
Q 3341 2797 3341 1997 
z
" transform="scale(0.015625)"/>
       <path id="DejaVuSans-69" d="M 603 3500 
L 1178 3500 
L 1178 0 
L 603 0 
L 603 3500 
z
M 603 4863 
L 1178 4863 
L 1178 4134 
L 603 4134 
L 603 4863 
z
" transform="scale(0.015625)"/>
       <path id="DejaVuSans-6e" d="M 3513 2113 
L 3513 0 
L 2938 0 
L 2938 2094 
Q 2938 2591 2744 2837 
Q 2550 3084 2163 3084 
Q 1697 3084 1428 2787 
Q 1159 2491 1159 1978 
L 1159 0 
L 581 0 
L 581 3500 
L 1159 3500 
L 1159 2956 
Q 1366 3272 1645 3428 
Q 1925 3584 2291 3584 
Q 2894 3584 3203 3211 
Q 3513 2838 3513 2113 
z
" transform="scale(0.015625)"/>
      </defs>
      <use xlink:href="#DejaVuSans-53"/>
      <use xlink:href="#DejaVuSans-74" x="63.476562"/>
      <use xlink:href="#DejaVuSans-72" x="102.685547"/>
      <use xlink:href="#DejaVuSans-61" x="143.798828"/>
      <use xlink:href="#DejaVuSans-69" x="205.078125"/>
      <use xlink:href="#DejaVuSans-6e" x="232.861328"/>
     </g>
    </g>
   </g>
   <g id="matplotlib.axis_2">
    <g id="ytick_1">
     <g id="line2d_10">
      <defs>
       <path id="ma0443ace51" d="M 0 0 
L -3.5 0 
" style="stroke: #000000; stroke-width: 0.8"/>
      </defs>
      <g>
       <use xlink:href="#ma0443ace51" x="54" y="241.106557" style="stroke: #000000; stroke-width: 0.8"/>
      </g>
     </g>
     <g id="text_11">
      <!-- 0 -->
      <g transform="translate(40.6375 244.905776) scale(0.1 -0.1)">
       <use xlink:href="#DejaVuSans-30"/>
      </g>
     </g>
    </g>
    <g id="ytick_2">
     <g id="line2d_11">
      <g>
       <use xlink:href="#ma0443ace51" x="54" y="214.756813" style="stroke: #000000; stroke-width: 0.8"/>
      </g>
     </g>
     <g id="text_12">
      <!-- 100 -->
      <g transform="translate(27.9125 218.556031) scale(0.1 -0.1)">
       <use xlink:href="#DejaVuSans-31"/>
       <use xlink:href="#DejaVuSans-30" x="63.623047"/>
       <use xlink:href="#DejaVuSans-30" x="127.246094"/>
      </g>
     </g>
    </g>
    <g id="ytick_3">
     <g id="line2d_12">
      <g>
       <use xlink:href="#ma0443ace51" x="54" y="188.407069" style="stroke: #000000; stroke-width: 0.8"/>
      </g>
     </g>
     <g id="text_13">
      <!-- 200 -->
      <g transform="translate(27.9125 192.206287) scale(0.1 -0.1)">
       <use xlink:href="#DejaVuSans-32"/>
       <use xlink:href="#DejaVuSans-30" x="63.623047"/>
       <use xlink:href="#DejaVuSans-30" x="127.246094"/>
      </g>
     </g>
    </g>
    <g id="ytick_4">
     <g id="line2d_13">
      <g>
       <use xlink:href="#ma0443ace51" x="54" y="162.057324" style="stroke: #000000; stroke-width: 0.8"/>
      </g>
     </g>
     <g id="text_14">
      <!-- 300 -->
      <g transform="translate(27.9125 165.856543) scale(0.1 -0.1)">
       <defs>
        <path id="DejaVuSans-33" d="M 2597 2516 
Q 3050 2419 3304 2112 
Q 3559 1806 3559 1356 
Q 3559 666 3084 287 
Q 2609 -91 1734 -91 
Q 1441 -91 1130 -33 
Q 819 25 488 141 
L 488 750 
Q 750 597 1062 519 
Q 1375 441 1716 441 
Q 2309 441 2620 675 
Q 2931 909 2931 1356 
Q 2931 1769 2642 2001 
Q 2353 2234 1838 2234 
L 1294 2234 
L 1294 2753 
L 1863 2753 
Q 2328 2753 2575 2939 
Q 2822 3125 2822 3475 
Q 2822 3834 2567 4026 
Q 2313 4219 1838 4219 
Q 1578 4219 1281 4162 
Q 984 4106 628 3988 
L 628 4550 
Q 988 4650 1302 4700 
Q 1616 4750 1894 4750 
Q 2613 4750 3031 4423 
Q 3450 4097 3450 3541 
Q 3450 3153 3228 2886 
Q 3006 2619 2597 2516 
z
" transform="scale(0.015625)"/>
       </defs>
       <use xlink:href="#DejaVuSans-33"/>
       <use xlink:href="#DejaVuSans-30" x="63.623047"/>
       <use xlink:href="#DejaVuSans-30" x="127.246094"/>
      </g>
     </g>
    </g>
    <g id="ytick_5">
     <g id="line2d_14">
      <g>
       <use xlink:href="#ma0443ace51" x="54" y="135.70758" style="stroke: #000000; stroke-width: 0.8"/>
      </g>
     </g>
     <g id="text_15">
      <!-- 400 -->
      <g transform="translate(27.9125 139.506799) scale(0.1 -0.1)">
       <defs>
        <path id="DejaVuSans-34" d="M 2419 4116 
L 825 1625 
L 2419 1625 
L 2419 4116 
z
M 2253 4666 
L 3047 4666 
L 3047 1625 
L 3713 1625 
L 3713 1100 
L 3047 1100 
L 3047 0 
L 2419 0 
L 2419 1100 
L 313 1100 
L 313 1709 
L 2253 4666 
z
" transform="scale(0.015625)"/>
       </defs>
       <use xlink:href="#DejaVuSans-34"/>
       <use xlink:href="#DejaVuSans-30" x="63.623047"/>
       <use xlink:href="#DejaVuSans-30" x="127.246094"/>
      </g>
     </g>
    </g>
    <g id="ytick_6">
     <g id="line2d_15">
      <g>
       <use xlink:href="#ma0443ace51" x="54" y="109.357836" style="stroke: #000000; stroke-width: 0.8"/>
      </g>
     </g>
     <g id="text_16">
      <!-- 500 -->
      <g transform="translate(27.9125 113.157055) scale(0.1 -0.1)">
       <use xlink:href="#DejaVuSans-35"/>
       <use xlink:href="#DejaVuSans-30" x="63.623047"/>
       <use xlink:href="#DejaVuSans-30" x="127.246094"/>
      </g>
     </g>
    </g>
    <g id="ytick_7">
     <g id="line2d_16">
      <g>
       <use xlink:href="#ma0443ace51" x="54" y="83.008092" style="stroke: #000000; stroke-width: 0.8"/>
      </g>
     </g>
     <g id="text_17">
      <!-- 600 -->
      <g transform="translate(27.9125 86.80731) scale(0.1 -0.1)">
       <defs>
        <path id="DejaVuSans-36" d="M 2113 2584 
Q 1688 2584 1439 2293 
Q 1191 2003 1191 1497 
Q 1191 994 1439 701 
Q 1688 409 2113 409 
Q 2538 409 2786 701 
Q 3034 994 3034 1497 
Q 3034 2003 2786 2293 
Q 2538 2584 2113 2584 
z
M 3366 4563 
L 3366 3988 
Q 3128 4100 2886 4159 
Q 2644 4219 2406 4219 
Q 1781 4219 1451 3797 
Q 1122 3375 1075 2522 
Q 1259 2794 1537 2939 
Q 1816 3084 2150 3084 
Q 2853 3084 3261 2657 
Q 3669 2231 3669 1497 
Q 3669 778 3244 343 
Q 2819 -91 2113 -91 
Q 1303 -91 875 529 
Q 447 1150 447 2328 
Q 447 3434 972 4092 
Q 1497 4750 2381 4750 
Q 2619 4750 2861 4703 
Q 3103 4656 3366 4563 
z
" transform="scale(0.015625)"/>
       </defs>
       <use xlink:href="#DejaVuSans-36"/>
       <use xlink:href="#DejaVuSans-30" x="63.623047"/>
       <use xlink:href="#DejaVuSans-30" x="127.246094"/>
      </g>
     </g>
    </g>
    <g id="ytick_8">
     <g id="line2d_17">
      <g>
       <use xlink:href="#ma0443ace51" x="54" y="56.658348" style="stroke: #000000; stroke-width: 0.8"/>
      </g>
     </g>
     <g id="text_18">
      <!-- 700 -->
      <g transform="translate(27.9125 60.457566) scale(0.1 -0.1)">
       <use xlink:href="#DejaVuSans-37"/>
       <use xlink:href="#DejaVuSans-30" x="63.623047"/>
       <use xlink:href="#DejaVuSans-30" x="127.246094"/>
      </g>
     </g>
    </g>
    <g id="text_19">
     <!-- Stress [Pa] -->
     <g transform="translate(21.832812 172.147812) rotate(-90) scale(0.1 -0.1)">
      <defs>
       <path id="DejaVuSans-65" d="M 3597 1894 
L 3597 1613 
L 953 1613 
Q 991 1019 1311 708 
Q 1631 397 2203 397 
Q 2534 397 2845 478 
Q 3156 559 3463 722 
L 3463 178 
Q 3153 47 2828 -22 
Q 2503 -91 2169 -91 
Q 1331 -91 842 396 
Q 353 884 353 1716 
Q 353 2575 817 3079 
Q 1281 3584 2069 3584 
Q 2775 3584 3186 3129 
Q 3597 2675 3597 1894 
z
M 3022 2063 
Q 3016 2534 2758 2815 
Q 2500 3097 2075 3097 
Q 1594 3097 1305 2825 
Q 1016 2553 972 2059 
L 3022 2063 
z
" transform="scale(0.015625)"/>
       <path id="DejaVuSans-73" d="M 2834 3397 
L 2834 2853 
Q 2591 2978 2328 3040 
Q 2066 3103 1784 3103 
Q 1356 3103 1142 2972 
Q 928 2841 928 2578 
Q 928 2378 1081 2264 
Q 1234 2150 1697 2047 
L 1894 2003 
Q 2506 1872 2764 1633 
Q 3022 1394 3022 966 
Q 3022 478 2636 193 
Q 2250 -91 1575 -91 
Q 1294 -91 989 -36 
Q 684 19 347 128 
L 347 722 
Q 666 556 975 473 
Q 1284 391 1588 391 
Q 1994 391 2212 530 
Q 2431 669 2431 922 
Q 2431 1156 2273 1281 
Q 2116 1406 1581 1522 
L 1381 1569 
Q 847 1681 609 1914 
Q 372 2147 372 2553 
Q 372 3047 722 3315 
Q 1072 3584 1716 3584 
Q 2034 3584 2315 3537 
Q 2597 3491 2834 3397 
z
" transform="scale(0.015625)"/>
       <path id="DejaVuSans-20" transform="scale(0.015625)"/>
       <path id="DejaVuSans-5b" d="M 550 4863 
L 1875 4863 
L 1875 4416 
L 1125 4416 
L 1125 -397 
L 1875 -397 
L 1875 -844 
L 550 -844 
L 550 4863 
z
" transform="scale(0.015625)"/>
       <path id="DejaVuSans-50" d="M 1259 4147 
L 1259 2394 
L 2053 2394 
Q 2494 2394 2734 2622 
Q 2975 2850 2975 3272 
Q 2975 3691 2734 3919 
Q 2494 4147 2053 4147 
L 1259 4147 
z
M 628 4666 
L 2053 4666 
Q 2838 4666 3239 4311 
Q 3641 3956 3641 3272 
Q 3641 2581 3239 2228 
Q 2838 1875 2053 1875 
L 1259 1875 
L 1259 0 
L 628 0 
L 628 4666 
z
" transform="scale(0.015625)"/>
       <path id="DejaVuSans-5d" d="M 1947 4863 
L 1947 -844 
L 622 -844 
L 622 -397 
L 1369 -397 
L 1369 4416 
L 622 4416 
L 622 4863 
L 1947 4863 
z
" transform="scale(0.015625)"/>
      </defs>
      <use xlink:href="#DejaVuSans-53"/>
      <use xlink:href="#DejaVuSans-74" x="63.476562"/>
      <use xlink:href="#DejaVuSans-72" x="102.685547"/>
      <use xlink:href="#DejaVuSans-65" x="141.548828"/>
      <use xlink:href="#DejaVuSans-73" x="203.072266"/>
      <use xlink:href="#DejaVuSans-73" x="255.171875"/>
      <use xlink:href="#DejaVuSans-20" x="307.271484"/>
      <use xlink:href="#DejaVuSans-5b" x="339.058594"/>
      <use xlink:href="#DejaVuSans-50" x="378.072266"/>
      <use xlink:href="#DejaVuSans-61" x="433.875"/>
      <use xlink:href="#DejaVuSans-5d" x="495.154297"/>
     </g>
    </g>
   </g>
   <g id="line2d_18">
    <path d="M 69.363638 240.887052 
L 69.364034 240.715731 
L 69.36561 241.130161 
L 69.365579 240.77642 
L 69.997401 236.595855 
L 70.644973 230.331213 
L 71.290806 228.161946 
L 71.96494 228.661873 
L 72.659952 228.804448 
L 73.331303 228.431725 
L 73.943266 227.55963 
L 75.328651 225.156647 
L 75.946646 224.506186 
L 76.602685 224.24553 
L 77.29677 224.522573 
L 78.026115 225.266909 
L 78.787937 226.385634 
L 79.578525 227.938741 
L 83.339386 237.546228 
L 83.975011 238.728278 
L 87.095606 242.295535 
L 87.900113 242.189197 
L 89.482217 241.054918 
L 90.260742 240.634424 
L 91.032772 240.375295 
L 91.798306 240.410784 
L 92.556417 240.755179 
L 93.306176 241.446189 
L 94.768579 243.184824 
L 95.475654 243.716413 
L 96.166026 243.8641 
L 96.838769 243.45166 
L 97.494808 242.555124 
L 98.137857 241.287531 
L 100.014112 236.879286 
L 100.633034 235.796111 
L 101.253813 235.048442 
L 101.877375 234.645167 
L 103.12914 234.410896 
L 103.757342 234.399261 
L 105.014674 234.579027 
L 107.515419 234.562677 
L 108.754192 234.301882 
L 111.823752 233.03179 
L 117.436742 231.335648 
L 118.942756 230.711572 
L 120.446915 230.259694 
L 121.951073 229.59729 
L 123.453376 229.212624 
L 126.446847 228.71094 
L 127.191039 228.410428 
L 128.675711 227.631097 
L 130.159456 227.020631 
L 131.640416 226.293792 
L 132.381825 226.052994 
L 133.123233 225.959952 
L 134.605122 225.420447 
L 137.574466 224.182017 
L 142.074647 221.946458 
L 144.34898 221.414383 
L 146.625168 221.105261 
L 147.380495 220.803083 
L 148.134894 220.322598 
L 150.395308 219.380235 
L 153.398058 218.167079 
L 155.642697 217.201386 
L 163.160706 213.376389 
L 164.677856 212.904375 
L 173.63043 209.359614 
L 175.458433 208.484742 
L 179.139493 206.693614 
L 180.372699 205.987606 
L 182.845606 204.773061 
L 184.082524 204.184536 
L 185.931869 203.114137 
L 193.576083 198.972796 
L 198.734391 195.566627 
L 205.47202 191.916604 
L 210.380718 188.58709 
L 212.227279 187.49836 
L 213.459557 186.739582 
L 214.692763 185.828048 
L 216.547995 184.879671 
L 217.784912 184.320586 
L 225.197139 179.237438 
L 226.431273 178.518377 
L 229.499905 176.52589 
L 231.478231 174.708933 
L 232.994453 173.358019 
L 236.027824 171.105014 
L 238.297517 169.775208 
L 239.803531 168.669258 
L 241.305834 167.290566 
L 242.808137 166.000755 
L 245.065767 164.330443 
L 251.086113 160.029404 
L 254.833055 156.984292 
L 256.32979 155.987771 
L 258.56515 154.116933 
L 260.798654 151.878371 
L 267.557625 146.334735 
L 269.825462 144.634983 
L 272.095155 142.600836 
L 275.875502 139.73181 
L 280.405608 135.621854 
L 282.991722 133.19943 
L 284.829004 131.754085 
L 290.358481 127.528591 
L 294.170217 124.210759 
L 300.223041 118.236631 
L 302.35169 116.092499 
L 303.573761 115.029321 
L 310.947015 108.725796 
L 313.388387 106.228383 
L 316.125752 103.362135 
L 322.681508 96.572014 
L 328.223976 91.52276 
L 330.069609 89.922438 
L 331.295392 88.533752 
L 334.353817 84.930944 
L 335.576816 83.640021 
L 338.645448 80.134977 
L 339.877726 78.915155 
L 341.113716 77.614234 
L 346.077161 72.936583 
L 348.551924 70.80245 
L 352.378667 66.89191 
L 353.890249 65.141054 
L 355.392552 63.290213 
L 359.847497 58.780871 
L 361.302476 57.848785 
L 362.726833 57.347469 
L 364.102939 56.848097 
L 366.041364 56.130702 
L 368.799781 55.2856 
L 370.102117 54.344348 
L 370.747022 53.610566 
L 371.399118 52.602936 
L 372.02964 50.934846 
L 372.657146 48.433544 
L 373.295961 44.967592 
L 373.581818 46.359402 
L 373.42471 66.540555 
L 373.426566 66.3322 
L 373.424826 78.449893 
L 373.42529 66.32083 
L 373.423811 77.892388 
L 372.80918 79.486218 
L 372.196114 81.920307 
L 371.570696 83.619868 
L 370.939014 82.730276 
L 370.323803 82.522684 
L 369.668924 82.551829 
L 369.046753 82.880392 
L 368.420639 82.764333 
L 367.810531 83.122753 
L 367.176994 82.794745 
L 366.558303 84.225491 
L 365.299347 88.618184 
L 364.66001 88.957752 
L 364.045263 88.293405 
L 363.403606 87.9475 
L 362.768677 88.32189 
L 362.158337 88.885836 
L 360.905065 90.803472 
L 360.274775 93.889133 
L 359.658868 94.815804 
L 358.405944 95.281934 
L 357.790501 95.673196 
L 357.164619 96.338099 
L 355.905547 98.129886 
L 355.276185 99.101689 
L 354.028944 100.262561 
L 353.416285 100.727771 
L 352.794346 101.657218 
L 352.157097 102.121526 
L 350.295689 104.144633 
L 349.673751 104.320137 
L 348.419087 105.811447 
L 347.783229 106.812135 
L 347.148764 108.069729 
L 345.901871 109.370372 
L 344.664721 110.271491 
L 344.038839 111.011244 
L 343.42676 111.9961 
L 341.564192 114.019139 
L 340.330841 114.760931 
L 337.827544 118.012679 
L 336.600138 119.244444 
L 334.1038 121.789558 
L 332.836261 123.371411 
L 330.989236 125.263913 
L 327.211905 129.354149 
L 325.94019 130.519535 
L 321.525262 135.024459 
L 320.893348 135.46745 
L 318.399679 137.78843 
L 317.783076 138.130047 
L 316.542446 139.21107 
L 314.66596 141.423247 
L 313.445049 142.320825 
L 307.877179 147.449781 
L 307.24109 147.875101 
L 305.984802 149.210739 
L 305.35544 149.817074 
L 304.108083 150.551837 
L 303.470138 150.949279 
L 302.199351 152.647503 
L 299.718093 154.24471 
L 299.101722 155.058619 
L 298.48941 156.097078 
L 297.856801 156.694248 
L 295.995393 157.259895 
L 295.358608 157.78218 
L 293.474741 160.061396 
L 292.25267 160.729076 
L 289.176615 163.451352 
L 287.926242 164.367746 
L 287.305463 164.949745 
L 286.684453 165.748239 
L 285.429209 166.560621 
L 284.804487 166.868736 
L 284.179996 167.373211 
L 283.562929 167.59731 
L 281.667884 169.362052 
L 281.032491 169.657981 
L 279.771404 170.963863 
L 275.446252 174.057365 
L 274.190892 174.671581 
L 272.336443 176.365778 
L 271.719376 176.91917 
L 268.611307 178.845312 
L 267.977538 179.614645 
L 266.723918 180.533556 
L 266.101747 180.652991 
L 264.871789 181.349348 
L 264.237367 181.937791 
L 263.610209 182.242399 
L 262.350557 183.42313 
L 261.120367 184.039837 
L 258.587145 186.347417 
L 256.722257 187.439896 
L 256.094519 187.98197 
L 255.467477 188.761231 
L 254.857369 189.110937 
L 252.969284 189.644882 
L 252.358248 190.093307 
L 251.096393 191.793475 
L 250.478398 192.182989 
L 249.219848 192.555794 
L 248.601157 193.022028 
L 247.348929 194.380927 
L 246.103196 195.061227 
L 244.852244 195.17053 
L 244.241324 195.805021 
L 243.631796 196.619208 
L 242.393487 197.478388 
L 241.147754 197.7808 
L 239.912924 198.559992 
L 239.293885 199.300856 
L 238.669859 199.775926 
L 236.79314 200.648437 
L 236.169578 200.567776 
L 234.928833 201.599779 
L 233.67759 202.723369 
L 233.066787 203.213714 
L 231.810383 203.423883 
L 230.575321 204.250689 
L 229.304998 205.347823 
L 226.838122 206.634556 
L 224.959084 207.899094 
L 224.321139 207.963297 
L 223.6963 208.272876 
L 223.081669 208.761207 
L 222.466342 209.543732 
L 221.831413 210.086292 
L 221.207618 210.409183 
L 220.581272 210.379988 
L 219.335075 210.84619 
L 218.096302 212.119851 
L 215.60646 213.05695 
L 214.982898 213.688524 
L 214.35168 214.547149 
L 213.730669 214.991529 
L 212.473105 215.044279 
L 211.862302 215.232917 
L 211.239203 215.625499 
L 209.991731 216.697009 
L 208.754349 217.21229 
L 207.521375 217.497964 
L 206.25894 218.186492 
L 204.995576 219.160126 
L 203.094819 219.912197 
L 202.460121 220.000514 
L 201.829368 220.259454 
L 199.952997 221.639044 
L 199.322475 222.014579 
L 198.074886 222.366021 
L 196.853975 223.008238 
L 195.021797 223.628303 
L 194.410761 223.759037 
L 193.772816 224.040073 
L 191.905609 225.307353 
L 191.283902 225.488143 
L 190.666603 225.475764 
L 187.54624 227.382984 
L 186.918733 227.198198 
L 186.296795 227.322457 
L 185.688311 227.608839 
L 183.797094 229.101781 
L 181.936846 229.168326 
L 181.320127 229.511991 
L 180.065463 230.44991 
L 178.813466 230.794799 
L 178.193152 230.880763 
L 176.934312 231.495638 
L 176.306226 231.928214 
L 174.469408 232.194787 
L 173.229054 232.82393 
L 172.607347 233.23696 
L 171.37043 233.554533 
L 169.493015 234.041076 
L 167.62546 235.023928 
L 166.366272 234.828032 
L 165.729023 235.03584 
L 165.111724 235.11828 
L 163.847085 236.2193 
L 163.228858 236.289156 
L 161.364434 235.913679 
L 160.11151 236.512569 
L 158.883639 236.945405 
L 157.000715 237.024453 
L 156.36973 237.25586 
L 155.737352 237.283085 
L 155.103582 237.585054 
L 153.881975 237.448596 
L 153.249598 237.505506 
L 152.623252 237.715751 
L 150.76196 238.679291 
L 150.133526 238.730699 
L 149.510195 238.897645 
L 148.272118 238.856538 
L 147.645772 239.322789 
L 146.385192 239.394485 
L 145.760238 239.279491 
L 144.503834 239.411532 
L 143.872848 239.784133 
L 143.240702 239.968067 
L 142.603736 240.389642 
L 141.991076 240.658179 
L 141.375865 240.666483 
L 140.155882 240.97729 
L 139.541599 240.912794 
L 138.926388 240.717154 
L 137.664069 241.077766 
L 137.045842 241.433443 
L 136.424251 241.61941 
L 133.952968 241.755984 
L 133.343788 241.951812 
L 132.735536 242.359252 
L 131.509058 242.479066 
L 130.899646 242.344441 
L 130.26866 242.437914 
L 129.64463 242.67354 
L 129.016428 243.078758 
L 127.777191 243.024086 
L 127.146865 242.978075 
L 125.908787 243.159046 
L 124.640088 243.861999 
L 124.023253 243.897749 
L 122.763138 243.525573 
L 122.140503 243.58206 
L 121.502558 243.768045 
L 120.252186 244.447582 
L 118.990214 244.546108 
L 118.358069 244.537703 
L 116.48019 245.105025 
L 115.249768 245.16671 
L 113.993712 245.213806 
L 113.379777 245.726162 
L 112.744963 246.072131 
L 111.471574 245.485974 
L 110.843604 245.434846 
L 110.232568 245.154025 
L 109.616661 245.244906 
L 108.984168 246.047983 
L 108.35585 246.239648 
L 106.474491 246.089804 
L 105.237574 245.722426 
L 103.983374 245.978944 
L 103.35146 246.24 
L 102.736713 245.955189 
L 100.854195 245.680978 
L 99.610318 245.979068 
L 98.975388 245.748126 
L 98.342315 245.636195 
L 97.088115 245.117239 
L 96.46625 245.415351 
L 95.237684 244.871663 
L 94.005754 244.102313 
L 93.379292 244.886773 
L 92.75051 244.650428 
L 91.482739 243.184808 
L 90.851753 242.528654 
L 90.241066 241.480751 
L 89.628522 242.318407 
L 89.019111 241.906019 
L 87.763171 241.422834 
L 87.144712 241.330135 
L 86.520221 240.899243 
L 85.886336 242.352017 
L 84.00057 241.161782 
L 83.390463 241.039916 
L 82.756577 241.107858 
L 82.128607 242.280091 
L 80.881158 241.296865 
L 79.627422 240.672164 
L 79.009543 241.082139 
L 78.381805 242.138946 
L 77.757314 241.426412 
L 77.121457 241.145966 
L 76.493487 240.589832 
L 75.862849 240.318752 
L 74.619668 242.121388 
L 73.987291 241.493772 
L 73.373239 241.138337 
L 72.73483 240.949771 
L 72.119155 240.376782 
L 71.488401 240.516285 
L 70.861475 241.407561 
L 70.236869 240.592958 
L 69.298104 239.563824 
L 69.218502 241.092575 
L 69.218502 241.092575 
" clip-path="url(#p3fea096769)" style="fill: none; stroke: #ff0000; stroke-width: 1.5; stroke-linecap: square"/>
   </g>
   <g id="line2d_19">
    <path d="M 69.363638 240.887052 
L 69.364034 240.715731 
L 69.36561 241.130161 
L 69.365579 240.77642 
L 69.997401 236.595855 
L 70.644973 230.331213 
L 71.290806 228.161946 
L 71.96494 228.661873 
L 72.659952 228.804448 
L 73.331303 228.431725 
L 73.943266 227.55963 
L 74.608585 242.349675 
L 76.602685 237.890187 
L 77.29677 236.942964 
L 78.026115 236.45859 
L 78.787937 236.454147 
L 80.187241 237.481774 
L 80.807092 237.606201 
L 81.433438 237.615089 
L 83.339386 238.432747 
L 83.975011 238.728278 
L 87.095606 242.295535 
L 87.900113 242.189197 
L 89.482217 241.054918 
L 90.260742 240.634424 
L 91.032772 240.375295 
L 91.798306 240.410784 
L 92.556417 240.755179 
L 93.306176 241.446189 
L 94.768579 243.184824 
L 95.475654 243.716413 
L 96.166026 243.8641 
L 96.838769 243.45166 
L 97.494808 242.555124 
L 98.137857 241.287531 
L 100.014112 236.879286 
L 100.633034 235.796111 
L 101.253813 235.048442 
L 101.877375 234.645167 
L 103.12914 234.410896 
L 103.757342 234.399261 
L 105.014674 234.579027 
L 107.515419 234.562677 
L 108.754192 234.301882 
L 111.823752 233.03179 
L 117.436742 231.335648 
L 118.942756 230.711572 
L 120.446915 230.259694 
L 121.951073 229.59729 
L 123.453376 229.212624 
L 126.446847 228.71094 
L 127.191039 228.410428 
L 128.675711 227.631097 
L 130.159456 227.020631 
L 131.640416 226.293792 
L 132.381825 226.052994 
L 133.123233 225.959952 
L 134.605122 225.420447 
L 137.574466 224.182017 
L 142.074647 221.946458 
L 144.34898 221.414383 
L 146.625168 221.105261 
L 147.380495 220.803083 
L 148.134894 220.322598 
L 150.395308 219.380235 
L 153.398058 218.167079 
L 155.642697 217.201386 
L 163.160706 213.376389 
L 164.677856 212.904375 
L 173.63043 209.359614 
L 175.458433 208.484742 
L 179.139493 206.693614 
L 180.372699 205.987606 
L 182.845606 204.773061 
L 184.082524 204.184536 
L 185.931869 203.114137 
L 193.576083 198.972796 
L 198.734391 195.566627 
L 205.47202 191.916604 
L 210.380718 188.58709 
L 212.227279 187.49836 
L 213.459557 186.739582 
L 214.692763 185.828048 
L 216.547995 184.879671 
L 217.784912 184.320586 
L 225.197139 179.237438 
L 226.431273 178.518377 
L 229.499905 176.52589 
L 231.478231 174.708933 
L 232.994453 173.358019 
L 236.027824 171.105014 
L 238.297517 169.775208 
L 239.803531 168.669258 
L 241.305834 167.290566 
L 242.808137 166.000755 
L 245.065767 164.330443 
L 251.086113 160.029404 
L 254.833055 156.984292 
L 256.32979 155.987771 
L 258.56515 154.116933 
L 260.798654 151.878371 
L 267.557625 146.334735 
L 269.825462 144.634983 
L 272.095155 142.600836 
L 275.875502 139.73181 
L 280.405608 135.621854 
L 282.991722 133.19943 
L 284.829004 131.754085 
L 290.358481 127.528591 
L 294.170217 124.210759 
L 300.223041 118.236631 
L 302.35169 116.092499 
L 303.573761 115.029321 
L 310.947015 108.725796 
L 313.388387 106.228383 
L 316.125752 103.362135 
L 322.681508 96.572014 
L 328.223976 91.52276 
L 330.069609 89.922438 
L 331.295392 88.533752 
L 334.353817 84.930944 
L 335.576816 83.640021 
L 338.645448 80.134977 
L 339.877726 78.915155 
L 341.113716 77.614234 
L 346.077161 72.936583 
L 348.551924 70.80245 
L 351.618701 67.630705 
L 353.13585 65.933766 
L 355.392552 63.143114 
L 356.887432 61.391772 
L 359.847497 57.623572 
L 362.019758 55.505687 
L 363.421846 54.052565 
L 366.762996 50.129301 
L 370.102117 46.633233 
L 372.02964 45.017844 
L 372.657146 45.009512 
L 373.295961 44.64 
L 373.581818 46.201908 
L 373.423376 65.950137 
L 373.425812 65.685558 
L 373.424826 78.449893 
L 373.423811 77.892388 
L 372.80918 79.486218 
L 372.196114 81.920307 
L 371.570696 83.619868 
L 370.939014 82.730276 
L 370.323803 82.522684 
L 369.668924 82.551829 
L 369.046753 82.880392 
L 368.420639 82.764333 
L 367.810531 83.122753 
L 367.176994 82.794745 
L 366.558303 84.225491 
L 365.299347 88.618184 
L 364.66001 88.957752 
L 364.045263 88.293405 
L 363.403606 87.9475 
L 362.768677 88.32189 
L 362.158337 88.885836 
L 360.905065 90.803472 
L 360.274775 93.889133 
L 359.658868 94.815804 
L 358.405944 95.281934 
L 357.790501 95.673196 
L 357.164619 96.338099 
L 355.905547 98.129886 
L 355.276185 99.101689 
L 354.028944 100.262561 
L 353.416285 100.727771 
L 352.794346 101.657218 
L 352.157097 102.121526 
L 350.295689 104.144633 
L 349.673751 104.320137 
L 348.419087 105.811447 
L 347.783229 106.812135 
L 347.148764 108.069729 
L 345.901871 109.370372 
L 344.664721 110.271491 
L 344.038839 111.011244 
L 343.42676 111.9961 
L 341.564192 114.019139 
L 340.330841 114.760931 
L 337.827544 118.012679 
L 336.600138 119.244444 
L 334.1038 121.789558 
L 332.836261 123.371411 
L 330.989236 125.263913 
L 327.211905 129.354149 
L 325.94019 130.519535 
L 321.525262 135.024459 
L 320.893348 135.46745 
L 318.399679 137.78843 
L 317.783076 138.130047 
L 316.542446 139.21107 
L 314.66596 141.423247 
L 313.445049 142.320825 
L 307.877179 147.449781 
L 307.24109 147.875101 
L 305.984802 149.210739 
L 305.35544 149.817074 
L 304.108083 150.551837 
L 303.470138 150.949279 
L 302.199351 152.647503 
L 299.718093 154.24471 
L 299.101722 155.058619 
L 298.48941 156.097078 
L 297.856801 156.694248 
L 295.995393 157.259895 
L 295.358608 157.78218 
L 293.474741 160.061396 
L 292.25267 160.729076 
L 289.176615 163.451352 
L 287.926242 164.367746 
L 287.305463 164.949745 
L 286.684453 165.748239 
L 285.429209 166.560621 
L 284.804487 166.868736 
L 284.179996 167.373211 
L 283.562929 167.59731 
L 281.667884 169.362052 
L 281.032491 169.657981 
L 279.771404 170.963863 
L 275.446252 174.057365 
L 274.190892 174.671581 
L 272.336443 176.365778 
L 271.719376 176.91917 
L 268.611307 178.845312 
L 267.977538 179.614645 
L 266.723918 180.533556 
L 266.101747 180.652991 
L 264.871789 181.349348 
L 264.237367 181.937791 
L 263.610209 182.242399 
L 262.350557 183.42313 
L 261.120367 184.039837 
L 258.587145 186.347417 
L 256.722257 187.439896 
L 256.094519 187.98197 
L 255.467477 188.761231 
L 254.857369 189.110937 
L 252.969284 189.644882 
L 252.358248 190.093307 
L 251.096393 191.793475 
L 250.478398 192.182989 
L 249.219848 192.555794 
L 248.601157 193.022028 
L 247.348929 194.380927 
L 246.103196 195.061227 
L 244.852244 195.17053 
L 244.241324 195.805021 
L 243.631796 196.619208 
L 242.393487 197.478388 
L 241.147754 197.7808 
L 239.912924 198.559992 
L 239.293885 199.300856 
L 238.669859 199.775926 
L 236.79314 200.648437 
L 236.169578 200.567776 
L 234.928833 201.599779 
L 233.67759 202.723369 
L 233.066787 203.213714 
L 231.810383 203.423883 
L 230.575321 204.250689 
L 229.304998 205.347823 
L 226.838122 206.634556 
L 224.959084 207.899094 
L 224.321139 207.963297 
L 223.6963 208.272876 
L 223.081669 208.761207 
L 222.466342 209.543732 
L 221.831413 210.086292 
L 221.207618 210.409183 
L 220.581272 210.379988 
L 219.335075 210.84619 
L 218.096302 212.119851 
L 215.60646 213.05695 
L 214.982898 213.688524 
L 214.35168 214.547149 
L 213.730669 214.991529 
L 212.473105 215.044279 
L 211.862302 215.232917 
L 211.239203 215.625499 
L 209.991731 216.697009 
L 208.754349 217.21229 
L 207.521375 217.497964 
L 206.25894 218.186492 
L 204.995576 219.160126 
L 203.094819 219.912197 
L 202.460121 220.000514 
L 201.829368 220.259454 
L 199.952997 221.639044 
L 199.322475 222.014579 
L 198.074886 222.366021 
L 196.853975 223.008238 
L 195.021797 223.628303 
L 194.410761 223.759037 
L 193.772816 224.040073 
L 191.905609 225.307353 
L 191.283902 225.488143 
L 190.666603 225.475764 
L 187.54624 227.382984 
L 186.918733 227.198198 
L 186.296795 227.322457 
L 185.688311 227.608839 
L 183.797094 229.101781 
L 181.936846 229.168326 
L 181.320127 229.511991 
L 180.065463 230.44991 
L 178.813466 230.794799 
L 178.193152 230.880763 
L 176.934312 231.495638 
L 176.306226 231.928214 
L 174.469408 232.194787 
L 173.229054 232.82393 
L 172.607347 233.23696 
L 171.37043 233.554533 
L 169.493015 234.041076 
L 167.62546 235.023928 
L 166.366272 234.828032 
L 165.729023 235.03584 
L 165.111724 235.11828 
L 163.847085 236.2193 
L 163.228858 236.289156 
L 161.364434 235.913679 
L 160.11151 236.512569 
L 158.883639 236.945405 
L 157.000715 237.024453 
L 156.36973 237.25586 
L 155.737352 237.283085 
L 155.103582 237.585054 
L 153.881975 237.448596 
L 153.249598 237.505506 
L 152.623252 237.715751 
L 150.76196 238.679291 
L 150.133526 238.730699 
L 149.510195 238.897645 
L 148.272118 238.856538 
L 147.645772 239.322789 
L 146.385192 239.394485 
L 145.760238 239.279491 
L 144.503834 239.411532 
L 143.872848 239.784133 
L 143.240702 239.968067 
L 142.603736 240.389642 
L 141.991076 240.658179 
L 141.375865 240.666483 
L 140.155882 240.97729 
L 139.541599 240.912794 
L 138.926388 240.717154 
L 137.664069 241.077766 
L 137.045842 241.433443 
L 136.424251 241.61941 
L 133.952968 241.755984 
L 133.343788 241.951812 
L 132.735536 242.359252 
L 131.509058 242.479066 
L 130.899646 242.344441 
L 130.26866 242.437914 
L 129.64463 242.67354 
L 129.016428 243.078758 
L 127.777191 243.024086 
L 127.146865 242.978075 
L 125.908787 243.159046 
L 124.640088 243.861999 
L 124.023253 243.897749 
L 122.763138 243.525573 
L 122.140503 243.58206 
L 121.502558 243.768045 
L 120.252186 244.447582 
L 118.990214 244.546108 
L 118.358069 244.537703 
L 116.48019 245.105025 
L 115.249768 245.16671 
L 113.993712 245.213806 
L 113.379777 245.726162 
L 112.744963 246.072131 
L 111.471574 245.485974 
L 110.843604 245.434846 
L 110.232568 245.154025 
L 109.616661 245.244906 
L 108.984168 246.047983 
L 108.35585 246.239648 
L 106.474491 246.089804 
L 105.237574 245.722426 
L 103.983374 245.978944 
L 103.35146 246.24 
L 102.736713 245.955189 
L 100.854195 245.680978 
L 99.610318 245.979068 
L 98.975388 245.748126 
L 98.342315 245.636195 
L 97.088115 245.117239 
L 96.46625 245.415351 
L 95.237684 244.871663 
L 94.005754 244.102313 
L 93.379292 244.886773 
L 92.75051 244.650428 
L 91.482739 243.184808 
L 90.851753 242.528654 
L 90.241066 241.480751 
L 89.628522 242.318407 
L 89.019111 241.906019 
L 87.763171 241.422834 
L 87.144712 241.330135 
L 86.520221 240.899243 
L 85.886336 242.352017 
L 84.00057 241.161782 
L 83.390463 241.039916 
L 82.756577 241.107858 
L 82.128607 242.280091 
L 80.881158 241.296865 
L 79.627422 240.672164 
L 79.009543 241.082139 
L 78.381805 242.138946 
L 77.757314 241.426412 
L 77.121457 241.145966 
L 76.493487 240.589832 
L 75.862849 240.318752 
L 74.619668 242.121388 
L 73.987291 241.493772 
L 73.373239 241.138337 
L 72.73483 240.949771 
L 72.119155 240.376782 
L 71.488401 240.516285 
L 70.861475 241.407561 
L 70.236869 240.592958 
L 69.298104 239.563824 
L 69.218502 241.092575 
L 69.218502 241.092575 
" clip-path="url(#p3fea096769)" style="fill: none; stroke: #000000; stroke-width: 1.5; stroke-linecap: square"/>
   </g>
   <g id="patch_3">
    <path d="M 54 256.32 
L 54 34.56 
" style="fill: none; stroke: #000000; stroke-width: 0.8; stroke-linejoin: miter; stroke-linecap: square"/>
   </g>
   <g id="patch_4">
    <path d="M 388.8 256.32 
L 388.8 34.56 
" style="fill: none; stroke: #000000; stroke-width: 0.8; stroke-linejoin: miter; stroke-linecap: square"/>
   </g>
   <g id="patch_5">
    <path d="M 54 256.32 
L 388.8 256.32 
" style="fill: none; stroke: #000000; stroke-width: 0.8; stroke-linejoin: miter; stroke-linecap: square"/>
   </g>
   <g id="patch_6">
    <path d="M 54 34.56 
L 388.8 34.56 
" style="fill: none; stroke: #000000; stroke-width: 0.8; stroke-linejoin: miter; stroke-linecap: square"/>
   </g>
   <g id="text_20">
    <!-- 2025-06-20 trial 6 -->
    <g transform="translate(167.07 28.56) scale(0.12 -0.12)">
     <defs>
      <path id="DejaVuSans-2d" d="M 313 2009 
L 1997 2009 
L 1997 1497 
L 313 1497 
L 313 2009 
z
" transform="scale(0.015625)"/>
      <path id="DejaVuSans-6c" d="M 603 4863 
L 1178 4863 
L 1178 0 
L 603 0 
L 603 4863 
z
" transform="scale(0.015625)"/>
     </defs>
     <use xlink:href="#DejaVuSans-32"/>
     <use xlink:href="#DejaVuSans-30" x="63.623047"/>
     <use xlink:href="#DejaVuSans-32" x="127.246094"/>
     <use xlink:href="#DejaVuSans-35" x="190.869141"/>
     <use xlink:href="#DejaVuSans-2d" x="254.492188"/>
     <use xlink:href="#DejaVuSans-30" x="290.576172"/>
     <use xlink:href="#DejaVuSans-36" x="354.199219"/>
     <use xlink:href="#DejaVuSans-2d" x="417.822266"/>
     <use xlink:href="#DejaVuSans-32" x="453.90625"/>
     <use xlink:href="#DejaVuSans-30" x="517.529297"/>
     <use xlink:href="#DejaVuSans-20" x="581.152344"/>
     <use xlink:href="#DejaVuSans-74" x="612.939453"/>
     <use xlink:href="#DejaVuSans-72" x="652.148438"/>
     <use xlink:href="#DejaVuSans-69" x="693.261719"/>
     <use xlink:href="#DejaVuSans-61" x="721.044922"/>
     <use xlink:href="#DejaVuSans-6c" x="782.324219"/>
     <use xlink:href="#DejaVuSans-20" x="810.107422"/>
     <use xlink:href="#DejaVuSans-36" x="841.894531"/>
    </g>
   </g>
  </g>
 </g>
 <defs>
  <clipPath id="p3fea096769">
   <rect x="54" y="34.56" width="334.8" height="221.76"/>
  </clipPath>
 </defs>
</svg>
