<?xml version="1.0" encoding="utf-8" standalone="no"?>
<!DOCTYPE svg PUBLIC "-//W3C//DTD SVG 1.1//EN"
  "http://www.w3.org/Graphics/SVG/1.1/DTD/svg11.dtd">
<svg xmlns:xlink="http://www.w3.org/1999/xlink" width="460.8pt" height="345.6pt" viewBox="0 0 460.8 345.6" xmlns="http://www.w3.org/2000/svg" version="1.1">
 <metadata>
  <rdf:RDF xmlns:dc="http://purl.org/dc/elements/1.1/" xmlns:cc="http://creativecommons.org/ns#" xmlns:rdf="http://www.w3.org/1999/02/22-rdf-syntax-ns#">
   <cc:Work>
    <dc:type rdf:resource="http://purl.org/dc/dcmitype/StillImage"/>
    <dc:date>2025-07-14T21:35:11.355340</dc:date>
    <dc:format>image/svg+xml</dc:format>
    <dc:creator>
     <cc:Agent>
      <dc:title>Matplotlib v3.10.3, https://matplotlib.org/</dc:title>
     </cc:Agent>
    </dc:creator>
   </cc:Work>
  </rdf:RDF>
 </metadata>
 <defs>
  <style type="text/css">*{stroke-linejoin: round; stroke-linecap: butt}</style>
 </defs>
 <g id="figure_1">
  <g id="patch_1">
   <path d="M 0 345.6 
L 460.8 345.6 
L 460.8 0 
L 0 0 
z
" style="fill: #ffffff"/>
  </g>
  <g id="axes_1">
   <g id="patch_2">
    <path d="M 57.6 307.584 
L 414.72 307.584 
L 414.72 41.472 
L 57.6 41.472 
z
" style="fill: #ffffff"/>
   </g>
   <g id="matplotlib.axis_1">
    <g id="xtick_1">
     <g id="line2d_1">
      <defs>
       <path id="m3d08cd635b" d="M 0 0 
L 0 3.5 
" style="stroke: #000000; stroke-width: 0.8"/>
      </defs>
      <g>
       <use xlink:href="#m3d08cd635b" x="73.974947" y="307.584" style="stroke: #000000; stroke-width: 0.8"/>
      </g>
     </g>
     <g id="text_1">
      <!-- 0.000 -->
      <g transform="translate(59.660885 322.182437) scale(0.1 -0.1)">
       <defs>
        <path id="DejaVuSans-30" d="M 2034 4250 
Q 1547 4250 1301 3770 
Q 1056 3291 1056 2328 
Q 1056 1369 1301 889 
Q 1547 409 2034 409 
Q 2525 409 2770 889 
Q 3016 1369 3016 2328 
Q 3016 3291 2770 3770 
Q 2525 4250 2034 4250 
z
M 2034 4750 
Q 2819 4750 3233 4129 
Q 3647 3509 3647 2328 
Q 3647 1150 3233 529 
Q 2819 -91 2034 -91 
Q 1250 -91 836 529 
Q 422 1150 422 2328 
Q 422 3509 836 4129 
Q 1250 4750 2034 4750 
z
" transform="scale(0.015625)"/>
        <path id="DejaVuSans-2e" d="M 684 794 
L 1344 794 
L 1344 0 
L 684 0 
L 684 794 
z
" transform="scale(0.015625)"/>
       </defs>
       <use xlink:href="#DejaVuSans-30"/>
       <use xlink:href="#DejaVuSans-2e" transform="translate(63.623047 0)"/>
       <use xlink:href="#DejaVuSans-30" transform="translate(95.410156 0)"/>
       <use xlink:href="#DejaVuSans-30" transform="translate(159.033203 0)"/>
       <use xlink:href="#DejaVuSans-30" transform="translate(222.65625 0)"/>
      </g>
     </g>
    </g>
    <g id="xtick_2">
     <g id="line2d_2">
      <g>
       <use xlink:href="#m3d08cd635b" x="119.38492" y="307.584" style="stroke: #000000; stroke-width: 0.8"/>
      </g>
     </g>
     <g id="text_2">
      <!-- 0.025 -->
      <g transform="translate(105.070857 322.182437) scale(0.1 -0.1)">
       <defs>
        <path id="DejaVuSans-32" d="M 1228 531 
L 3431 531 
L 3431 0 
L 469 0 
L 469 531 
Q 828 903 1448 1529 
Q 2069 2156 2228 2338 
Q 2531 2678 2651 2914 
Q 2772 3150 2772 3378 
Q 2772 3750 2511 3984 
Q 2250 4219 1831 4219 
Q 1534 4219 1204 4116 
Q 875 4013 500 3803 
L 500 4441 
Q 881 4594 1212 4672 
Q 1544 4750 1819 4750 
Q 2544 4750 2975 4387 
Q 3406 4025 3406 3419 
Q 3406 3131 3298 2873 
Q 3191 2616 2906 2266 
Q 2828 2175 2409 1742 
Q 1991 1309 1228 531 
z
" transform="scale(0.015625)"/>
        <path id="DejaVuSans-35" d="M 691 4666 
L 3169 4666 
L 3169 4134 
L 1269 4134 
L 1269 2991 
Q 1406 3038 1543 3061 
Q 1681 3084 1819 3084 
Q 2600 3084 3056 2656 
Q 3513 2228 3513 1497 
Q 3513 744 3044 326 
Q 2575 -91 1722 -91 
Q 1428 -91 1123 -41 
Q 819 9 494 109 
L 494 744 
Q 775 591 1075 516 
Q 1375 441 1709 441 
Q 2250 441 2565 725 
Q 2881 1009 2881 1497 
Q 2881 1984 2565 2268 
Q 2250 2553 1709 2553 
Q 1456 2553 1204 2497 
Q 953 2441 691 2322 
L 691 4666 
z
" transform="scale(0.015625)"/>
       </defs>
       <use xlink:href="#DejaVuSans-30"/>
       <use xlink:href="#DejaVuSans-2e" transform="translate(63.623047 0)"/>
       <use xlink:href="#DejaVuSans-30" transform="translate(95.410156 0)"/>
       <use xlink:href="#DejaVuSans-32" transform="translate(159.033203 0)"/>
       <use xlink:href="#DejaVuSans-35" transform="translate(222.65625 0)"/>
      </g>
     </g>
    </g>
    <g id="xtick_3">
     <g id="line2d_3">
      <g>
       <use xlink:href="#m3d08cd635b" x="164.794893" y="307.584" style="stroke: #000000; stroke-width: 0.8"/>
      </g>
     </g>
     <g id="text_3">
      <!-- 0.050 -->
      <g transform="translate(150.48083 322.182437) scale(0.1 -0.1)">
       <use xlink:href="#DejaVuSans-30"/>
       <use xlink:href="#DejaVuSans-2e" transform="translate(63.623047 0)"/>
       <use xlink:href="#DejaVuSans-30" transform="translate(95.410156 0)"/>
       <use xlink:href="#DejaVuSans-35" transform="translate(159.033203 0)"/>
       <use xlink:href="#DejaVuSans-30" transform="translate(222.65625 0)"/>
      </g>
     </g>
    </g>
    <g id="xtick_4">
     <g id="line2d_4">
      <g>
       <use xlink:href="#m3d08cd635b" x="210.204866" y="307.584" style="stroke: #000000; stroke-width: 0.8"/>
      </g>
     </g>
     <g id="text_4">
      <!-- 0.075 -->
      <g transform="translate(195.890803 322.182437) scale(0.1 -0.1)">
       <defs>
        <path id="DejaVuSans-37" d="M 525 4666 
L 3525 4666 
L 3525 4397 
L 1831 0 
L 1172 0 
L 2766 4134 
L 525 4134 
L 525 4666 
z
" transform="scale(0.015625)"/>
       </defs>
       <use xlink:href="#DejaVuSans-30"/>
       <use xlink:href="#DejaVuSans-2e" transform="translate(63.623047 0)"/>
       <use xlink:href="#DejaVuSans-30" transform="translate(95.410156 0)"/>
       <use xlink:href="#DejaVuSans-37" transform="translate(159.033203 0)"/>
       <use xlink:href="#DejaVuSans-35" transform="translate(222.65625 0)"/>
      </g>
     </g>
    </g>
    <g id="xtick_5">
     <g id="line2d_5">
      <g>
       <use xlink:href="#m3d08cd635b" x="255.614838" y="307.584" style="stroke: #000000; stroke-width: 0.8"/>
      </g>
     </g>
     <g id="text_5">
      <!-- 0.100 -->
      <g transform="translate(241.300776 322.182437) scale(0.1 -0.1)">
       <defs>
        <path id="DejaVuSans-31" d="M 794 531 
L 1825 531 
L 1825 4091 
L 703 3866 
L 703 4441 
L 1819 4666 
L 2450 4666 
L 2450 531 
L 3481 531 
L 3481 0 
L 794 0 
L 794 531 
z
" transform="scale(0.015625)"/>
       </defs>
       <use xlink:href="#DejaVuSans-30"/>
       <use xlink:href="#DejaVuSans-2e" transform="translate(63.623047 0)"/>
       <use xlink:href="#DejaVuSans-31" transform="translate(95.410156 0)"/>
       <use xlink:href="#DejaVuSans-30" transform="translate(159.033203 0)"/>
       <use xlink:href="#DejaVuSans-30" transform="translate(222.65625 0)"/>
      </g>
     </g>
    </g>
    <g id="xtick_6">
     <g id="line2d_6">
      <g>
       <use xlink:href="#m3d08cd635b" x="301.024811" y="307.584" style="stroke: #000000; stroke-width: 0.8"/>
      </g>
     </g>
     <g id="text_6">
      <!-- 0.125 -->
      <g transform="translate(286.710749 322.182437) scale(0.1 -0.1)">
       <use xlink:href="#DejaVuSans-30"/>
       <use xlink:href="#DejaVuSans-2e" transform="translate(63.623047 0)"/>
       <use xlink:href="#DejaVuSans-31" transform="translate(95.410156 0)"/>
       <use xlink:href="#DejaVuSans-32" transform="translate(159.033203 0)"/>
       <use xlink:href="#DejaVuSans-35" transform="translate(222.65625 0)"/>
      </g>
     </g>
    </g>
    <g id="xtick_7">
     <g id="line2d_7">
      <g>
       <use xlink:href="#m3d08cd635b" x="346.434784" y="307.584" style="stroke: #000000; stroke-width: 0.8"/>
      </g>
     </g>
     <g id="text_7">
      <!-- 0.150 -->
      <g transform="translate(332.120722 322.182437) scale(0.1 -0.1)">
       <use xlink:href="#DejaVuSans-30"/>
       <use xlink:href="#DejaVuSans-2e" transform="translate(63.623047 0)"/>
       <use xlink:href="#DejaVuSans-31" transform="translate(95.410156 0)"/>
       <use xlink:href="#DejaVuSans-35" transform="translate(159.033203 0)"/>
       <use xlink:href="#DejaVuSans-30" transform="translate(222.65625 0)"/>
      </g>
     </g>
    </g>
    <g id="xtick_8">
     <g id="line2d_8">
      <g>
       <use xlink:href="#m3d08cd635b" x="391.844757" y="307.584" style="stroke: #000000; stroke-width: 0.8"/>
      </g>
     </g>
     <g id="text_8">
      <!-- 0.175 -->
      <g transform="translate(377.530694 322.182437) scale(0.1 -0.1)">
       <use xlink:href="#DejaVuSans-30"/>
       <use xlink:href="#DejaVuSans-2e" transform="translate(63.623047 0)"/>
       <use xlink:href="#DejaVuSans-31" transform="translate(95.410156 0)"/>
       <use xlink:href="#DejaVuSans-37" transform="translate(159.033203 0)"/>
       <use xlink:href="#DejaVuSans-35" transform="translate(222.65625 0)"/>
      </g>
     </g>
    </g>
    <g id="text_9">
     <!-- Strain -->
     <g transform="translate(221.348281 335.860562) scale(0.1 -0.1)">
      <defs>
       <path id="DejaVuSans-53" d="M 3425 4513 
L 3425 3897 
Q 3066 4069 2747 4153 
Q 2428 4238 2131 4238 
Q 1616 4238 1336 4038 
Q 1056 3838 1056 3469 
Q 1056 3159 1242 3001 
Q 1428 2844 1947 2747 
L 2328 2669 
Q 3034 2534 3370 2195 
Q 3706 1856 3706 1288 
Q 3706 609 3251 259 
Q 2797 -91 1919 -91 
Q 1588 -91 1214 -16 
Q 841 59 441 206 
L 441 856 
Q 825 641 1194 531 
Q 1563 422 1919 422 
Q 2459 422 2753 634 
Q 3047 847 3047 1241 
Q 3047 1584 2836 1778 
Q 2625 1972 2144 2069 
L 1759 2144 
Q 1053 2284 737 2584 
Q 422 2884 422 3419 
Q 422 4038 858 4394 
Q 1294 4750 2059 4750 
Q 2388 4750 2728 4690 
Q 3069 4631 3425 4513 
z
" transform="scale(0.015625)"/>
       <path id="DejaVuSans-74" d="M 1172 4494 
L 1172 3500 
L 2356 3500 
L 2356 3053 
L 1172 3053 
L 1172 1153 
Q 1172 725 1289 603 
Q 1406 481 1766 481 
L 2356 481 
L 2356 0 
L 1766 0 
Q 1100 0 847 248 
Q 594 497 594 1153 
L 594 3053 
L 172 3053 
L 172 3500 
L 594 3500 
L 594 4494 
L 1172 4494 
z
" transform="scale(0.015625)"/>
       <path id="DejaVuSans-72" d="M 2631 2963 
Q 2534 3019 2420 3045 
Q 2306 3072 2169 3072 
Q 1681 3072 1420 2755 
Q 1159 2438 1159 1844 
L 1159 0 
L 581 0 
L 581 3500 
L 1159 3500 
L 1159 2956 
Q 1341 3275 1631 3429 
Q 1922 3584 2338 3584 
Q 2397 3584 2469 3576 
Q 2541 3569 2628 3553 
L 2631 2963 
z
" transform="scale(0.015625)"/>
       <path id="DejaVuSans-61" d="M 2194 1759 
Q 1497 1759 1228 1600 
Q 959 1441 959 1056 
Q 959 750 1161 570 
Q 1363 391 1709 391 
Q 2188 391 2477 730 
Q 2766 1069 2766 1631 
L 2766 1759 
L 2194 1759 
z
M 3341 1997 
L 3341 0 
L 2766 0 
L 2766 531 
Q 2569 213 2275 61 
Q 1981 -91 1556 -91 
Q 1019 -91 701 211 
Q 384 513 384 1019 
Q 384 1609 779 1909 
Q 1175 2209 1959 2209 
L 2766 2209 
L 2766 2266 
Q 2766 2663 2505 2880 
Q 2244 3097 1772 3097 
Q 1472 3097 1187 3025 
Q 903 2953 641 2809 
L 641 3341 
Q 956 3463 1253 3523 
Q 1550 3584 1831 3584 
Q 2591 3584 2966 3190 
Q 3341 2797 3341 1997 
z
" transform="scale(0.015625)"/>
       <path id="DejaVuSans-69" d="M 603 3500 
L 1178 3500 
L 1178 0 
L 603 0 
L 603 3500 
z
M 603 4863 
L 1178 4863 
L 1178 4134 
L 603 4134 
L 603 4863 
z
" transform="scale(0.015625)"/>
       <path id="DejaVuSans-6e" d="M 3513 2113 
L 3513 0 
L 2938 0 
L 2938 2094 
Q 2938 2591 2744 2837 
Q 2550 3084 2163 3084 
Q 1697 3084 1428 2787 
Q 1159 2491 1159 1978 
L 1159 0 
L 581 0 
L 581 3500 
L 1159 3500 
L 1159 2956 
Q 1366 3272 1645 3428 
Q 1925 3584 2291 3584 
Q 2894 3584 3203 3211 
Q 3513 2838 3513 2113 
z
" transform="scale(0.015625)"/>
      </defs>
      <use xlink:href="#DejaVuSans-53"/>
      <use xlink:href="#DejaVuSans-74" transform="translate(63.476562 0)"/>
      <use xlink:href="#DejaVuSans-72" transform="translate(102.685547 0)"/>
      <use xlink:href="#DejaVuSans-61" transform="translate(143.798828 0)"/>
      <use xlink:href="#DejaVuSans-69" transform="translate(205.078125 0)"/>
      <use xlink:href="#DejaVuSans-6e" transform="translate(232.861328 0)"/>
     </g>
    </g>
   </g>
   <g id="matplotlib.axis_2">
    <g id="ytick_1">
     <g id="line2d_9">
      <defs>
       <path id="m3ac66e9a9c" d="M 0 0 
L -3.5 0 
" style="stroke: #000000; stroke-width: 0.8"/>
      </defs>
      <g>
       <use xlink:href="#m3ac66e9a9c" x="57.6" y="306.067631" style="stroke: #000000; stroke-width: 0.8"/>
      </g>
     </g>
     <g id="text_10">
      <!-- −250 -->
      <g transform="translate(23.132812 309.86685) scale(0.1 -0.1)">
       <defs>
        <path id="DejaVuSans-2212" d="M 678 2272 
L 4684 2272 
L 4684 1741 
L 678 1741 
L 678 2272 
z
" transform="scale(0.015625)"/>
       </defs>
       <use xlink:href="#DejaVuSans-2212"/>
       <use xlink:href="#DejaVuSans-32" transform="translate(83.789062 0)"/>
       <use xlink:href="#DejaVuSans-35" transform="translate(147.412109 0)"/>
       <use xlink:href="#DejaVuSans-30" transform="translate(211.035156 0)"/>
      </g>
     </g>
    </g>
    <g id="ytick_2">
     <g id="line2d_10">
      <g>
       <use xlink:href="#m3ac66e9a9c" x="57.6" y="273.175763" style="stroke: #000000; stroke-width: 0.8"/>
      </g>
     </g>
     <g id="text_11">
      <!-- 0 -->
      <g transform="translate(44.2375 276.974982) scale(0.1 -0.1)">
       <use xlink:href="#DejaVuSans-30"/>
      </g>
     </g>
    </g>
    <g id="ytick_3">
     <g id="line2d_11">
      <g>
       <use xlink:href="#m3ac66e9a9c" x="57.6" y="240.283895" style="stroke: #000000; stroke-width: 0.8"/>
      </g>
     </g>
     <g id="text_12">
      <!-- 250 -->
      <g transform="translate(31.5125 244.083114) scale(0.1 -0.1)">
       <use xlink:href="#DejaVuSans-32"/>
       <use xlink:href="#DejaVuSans-35" transform="translate(63.623047 0)"/>
       <use xlink:href="#DejaVuSans-30" transform="translate(127.246094 0)"/>
      </g>
     </g>
    </g>
    <g id="ytick_4">
     <g id="line2d_12">
      <g>
       <use xlink:href="#m3ac66e9a9c" x="57.6" y="207.392027" style="stroke: #000000; stroke-width: 0.8"/>
      </g>
     </g>
     <g id="text_13">
      <!-- 500 -->
      <g transform="translate(31.5125 211.191245) scale(0.1 -0.1)">
       <use xlink:href="#DejaVuSans-35"/>
       <use xlink:href="#DejaVuSans-30" transform="translate(63.623047 0)"/>
       <use xlink:href="#DejaVuSans-30" transform="translate(127.246094 0)"/>
      </g>
     </g>
    </g>
    <g id="ytick_5">
     <g id="line2d_13">
      <g>
       <use xlink:href="#m3ac66e9a9c" x="57.6" y="174.500158" style="stroke: #000000; stroke-width: 0.8"/>
      </g>
     </g>
     <g id="text_14">
      <!-- 750 -->
      <g transform="translate(31.5125 178.299377) scale(0.1 -0.1)">
       <use xlink:href="#DejaVuSans-37"/>
       <use xlink:href="#DejaVuSans-35" transform="translate(63.623047 0)"/>
       <use xlink:href="#DejaVuSans-30" transform="translate(127.246094 0)"/>
      </g>
     </g>
    </g>
    <g id="ytick_6">
     <g id="line2d_14">
      <g>
       <use xlink:href="#m3ac66e9a9c" x="57.6" y="141.60829" style="stroke: #000000; stroke-width: 0.8"/>
      </g>
     </g>
     <g id="text_15">
      <!-- 1000 -->
      <g transform="translate(25.15 145.407509) scale(0.1 -0.1)">
       <use xlink:href="#DejaVuSans-31"/>
       <use xlink:href="#DejaVuSans-30" transform="translate(63.623047 0)"/>
       <use xlink:href="#DejaVuSans-30" transform="translate(127.246094 0)"/>
       <use xlink:href="#DejaVuSans-30" transform="translate(190.869141 0)"/>
      </g>
     </g>
    </g>
    <g id="ytick_7">
     <g id="line2d_15">
      <g>
       <use xlink:href="#m3ac66e9a9c" x="57.6" y="108.716422" style="stroke: #000000; stroke-width: 0.8"/>
      </g>
     </g>
     <g id="text_16">
      <!-- 1250 -->
      <g transform="translate(25.15 112.515641) scale(0.1 -0.1)">
       <use xlink:href="#DejaVuSans-31"/>
       <use xlink:href="#DejaVuSans-32" transform="translate(63.623047 0)"/>
       <use xlink:href="#DejaVuSans-35" transform="translate(127.246094 0)"/>
       <use xlink:href="#DejaVuSans-30" transform="translate(190.869141 0)"/>
      </g>
     </g>
    </g>
    <g id="ytick_8">
     <g id="line2d_16">
      <g>
       <use xlink:href="#m3ac66e9a9c" x="57.6" y="75.824554" style="stroke: #000000; stroke-width: 0.8"/>
      </g>
     </g>
     <g id="text_17">
      <!-- 1500 -->
      <g transform="translate(25.15 79.623772) scale(0.1 -0.1)">
       <use xlink:href="#DejaVuSans-31"/>
       <use xlink:href="#DejaVuSans-35" transform="translate(63.623047 0)"/>
       <use xlink:href="#DejaVuSans-30" transform="translate(127.246094 0)"/>
       <use xlink:href="#DejaVuSans-30" transform="translate(190.869141 0)"/>
      </g>
     </g>
    </g>
    <g id="ytick_9">
     <g id="line2d_17">
      <g>
       <use xlink:href="#m3ac66e9a9c" x="57.6" y="42.932685" style="stroke: #000000; stroke-width: 0.8"/>
      </g>
     </g>
     <g id="text_18">
      <!-- 1750 -->
      <g transform="translate(25.15 46.731904) scale(0.1 -0.1)">
       <use xlink:href="#DejaVuSans-31"/>
       <use xlink:href="#DejaVuSans-37" transform="translate(63.623047 0)"/>
       <use xlink:href="#DejaVuSans-35" transform="translate(127.246094 0)"/>
       <use xlink:href="#DejaVuSans-30" transform="translate(190.869141 0)"/>
      </g>
     </g>
    </g>
    <g id="text_19">
     <!-- Stress [Pa] -->
     <g transform="translate(17.053125 201.235813) rotate(-90) scale(0.1 -0.1)">
      <defs>
       <path id="DejaVuSans-65" d="M 3597 1894 
L 3597 1613 
L 953 1613 
Q 991 1019 1311 708 
Q 1631 397 2203 397 
Q 2534 397 2845 478 
Q 3156 559 3463 722 
L 3463 178 
Q 3153 47 2828 -22 
Q 2503 -91 2169 -91 
Q 1331 -91 842 396 
Q 353 884 353 1716 
Q 353 2575 817 3079 
Q 1281 3584 2069 3584 
Q 2775 3584 3186 3129 
Q 3597 2675 3597 1894 
z
M 3022 2063 
Q 3016 2534 2758 2815 
Q 2500 3097 2075 3097 
Q 1594 3097 1305 2825 
Q 1016 2553 972 2059 
L 3022 2063 
z
" transform="scale(0.015625)"/>
       <path id="DejaVuSans-73" d="M 2834 3397 
L 2834 2853 
Q 2591 2978 2328 3040 
Q 2066 3103 1784 3103 
Q 1356 3103 1142 2972 
Q 928 2841 928 2578 
Q 928 2378 1081 2264 
Q 1234 2150 1697 2047 
L 1894 2003 
Q 2506 1872 2764 1633 
Q 3022 1394 3022 966 
Q 3022 478 2636 193 
Q 2250 -91 1575 -91 
Q 1294 -91 989 -36 
Q 684 19 347 128 
L 347 722 
Q 666 556 975 473 
Q 1284 391 1588 391 
Q 1994 391 2212 530 
Q 2431 669 2431 922 
Q 2431 1156 2273 1281 
Q 2116 1406 1581 1522 
L 1381 1569 
Q 847 1681 609 1914 
Q 372 2147 372 2553 
Q 372 3047 722 3315 
Q 1072 3584 1716 3584 
Q 2034 3584 2315 3537 
Q 2597 3491 2834 3397 
z
" transform="scale(0.015625)"/>
       <path id="DejaVuSans-20" transform="scale(0.015625)"/>
       <path id="DejaVuSans-5b" d="M 550 4863 
L 1875 4863 
L 1875 4416 
L 1125 4416 
L 1125 -397 
L 1875 -397 
L 1875 -844 
L 550 -844 
L 550 4863 
z
" transform="scale(0.015625)"/>
       <path id="DejaVuSans-50" d="M 1259 4147 
L 1259 2394 
L 2053 2394 
Q 2494 2394 2734 2622 
Q 2975 2850 2975 3272 
Q 2975 3691 2734 3919 
Q 2494 4147 2053 4147 
L 1259 4147 
z
M 628 4666 
L 2053 4666 
Q 2838 4666 3239 4311 
Q 3641 3956 3641 3272 
Q 3641 2581 3239 2228 
Q 2838 1875 2053 1875 
L 1259 1875 
L 1259 0 
L 628 0 
L 628 4666 
z
" transform="scale(0.015625)"/>
       <path id="DejaVuSans-5d" d="M 1947 4863 
L 1947 -844 
L 622 -844 
L 622 -397 
L 1369 -397 
L 1369 4416 
L 622 4416 
L 622 4863 
L 1947 4863 
z
" transform="scale(0.015625)"/>
      </defs>
      <use xlink:href="#DejaVuSans-53"/>
      <use xlink:href="#DejaVuSans-74" transform="translate(63.476562 0)"/>
      <use xlink:href="#DejaVuSans-72" transform="translate(102.685547 0)"/>
      <use xlink:href="#DejaVuSans-65" transform="translate(141.548828 0)"/>
      <use xlink:href="#DejaVuSans-73" transform="translate(203.072266 0)"/>
      <use xlink:href="#DejaVuSans-73" transform="translate(255.171875 0)"/>
      <use xlink:href="#DejaVuSans-20" transform="translate(307.271484 0)"/>
      <use xlink:href="#DejaVuSans-5b" transform="translate(339.058594 0)"/>
      <use xlink:href="#DejaVuSans-50" transform="translate(378.072266 0)"/>
      <use xlink:href="#DejaVuSans-61" transform="translate(433.875 0)"/>
      <use xlink:href="#DejaVuSans-5d" transform="translate(495.154297 0)"/>
     </g>
    </g>
   </g>
   <g id="line2d_18">
    <path d="M 73.974947 273.496962 
L 73.974947 273.497517 
L 73.972775 273.329082 
L 74.623415 268.678657 
L 75.337351 264.469515 
L 78.251496 260.308633 
L 78.968153 259.569759 
L 79.757071 259.005064 
L 81.310159 258.43704 
L 82.810785 258.249098 
L 86.245595 258.196881 
L 88.827147 257.934642 
L 90.898661 257.75309 
L 92.335936 257.923455 
L 93.816764 258.386084 
L 95.331249 259.124958 
L 99.211495 261.281672 
L 100.779432 261.958973 
L 101.5634 262.120394 
L 103.125397 262.089417 
L 106.229594 261.608899 
L 109.292218 261.545688 
L 112.279612 261.23089 
L 113.738664 260.768816 
L 115.173959 260.045474 
L 117.282358 258.65426 
L 119.345224 256.900266 
L 122.03962 254.503917 
L 126.646423 250.860579 
L 128.917159 249.274108 
L 138.495034 242.798419 
L 142.307974 240.150232 
L 145.180544 238.506071 
L 150.951421 235.689254 
L 153.839829 234.282509 
L 162.489216 229.124812 
L 166.341747 226.59977 
L 169.240053 225.12535 
L 172.14232 223.665353 
L 174.074524 222.499352 
L 180.845159 217.961821 
L 190.278514 211.903275 
L 193.560885 209.932944 
L 200.814571 205.643924 
L 205.451062 202.601892 
L 209.440193 200.359753 
L 212.102914 198.804345 
L 226.671656 189.517385 
L 241.630403 179.690137 
L 248.357484 175.061634 
L 256.971483 168.820657 
L 263.682726 164.242078 
L 278.999802 153.619376 
L 285.689268 149.114018 
L 290.462368 145.478447 
L 296.211468 140.927603 
L 303.63145 135.485895 
L 306.872248 132.989699 
L 311.421639 129.411817 
L 315.988848 125.801762 
L 321.237079 121.767909 
L 337.074821 109.487732 
L 341.052074 106.227144 
L 349.032316 100.035468 
L 352.350323 97.439423 
L 357.624291 93.057212 
L 365.467932 86.314153 
L 367.736689 84.737666 
L 370.625097 82.980344 
L 379.733778 77.725018 
L 382.226243 76.239504 
L 385.314602 74.844408 
L 390.461868 72.52239 
L 391.821934 71.580492 
L 393.264159 70.015099 
L 394.742018 67.940483 
L 395.452242 66.790014 
L 396.808843 63.913841 
L 397.472575 61.418372 
L 398.124644 60.677938 
L 398.20739 60.81405 
L 398.487273 62.672399 
L 398.332607 80.923027 
L 398.330504 88.284744 
L 398.332731 96.741216 
L 398.330937 88.272956 
L 398.330071 96.670664 
L 397.678589 97.074511 
L 396.345775 99.903845 
L 395.683064 99.630321 
L 394.987194 99.660119 
L 392.265329 100.735893 
L 391.570448 100.628852 
L 390.917884 101.70629 
L 390.268289 103.211774 
L 389.59667 104.483447 
L 388.902284 105.1448 
L 388.202949 105.198937 
L 387.54593 105.09271 
L 386.206898 105.884143 
L 385.53132 106.420964 
L 384.865268 106.618354 
L 384.200826 108.609764 
L 383.525989 109.899327 
L 382.18238 110.602283 
L 381.511255 110.878876 
L 380.195485 111.79075 
L 378.867219 113.225924 
L 377.54254 114.455856 
L 376.869127 115.246717 
L 375.527125 116.160186 
L 374.18166 117.452661 
L 373.525136 117.753557 
L 370.8639 119.907012 
L 369.538479 121.466857 
L 368.200438 122.450358 
L 366.868211 123.407511 
L 364.890721 125.325561 
L 362.902094 126.575462 
L 362.22899 127.179403 
L 360.905951 128.647686 
L 360.251902 129.240949 
L 358.916582 130.079324 
L 357.58349 131.232983 
L 355.591894 133.046331 
L 353.605247 134.403638 
L 352.273887 135.575047 
L 348.936578 138.348599 
L 346.971461 139.818512 
L 344.970709 141.372325 
L 342.335952 143.793566 
L 340.342376 145.197053 
L 338.340881 146.935862 
L 336.365371 148.184861 
L 333.696835 150.391222 
L 333.039553 150.911193 
L 331.705718 151.801781 
L 329.701378 153.326194 
L 328.38052 154.423472 
L 325.055089 156.657776 
L 323.710365 157.766225 
L 320.349052 160.395968 
L 317.035376 162.590402 
L 315.705501 163.581947 
L 312.384524 165.987171 
L 311.071569 166.959154 
L 309.766193 167.773122 
L 308.41751 168.764458 
L 307.066105 169.813 
L 305.057929 171.133418 
L 304.382351 171.486214 
L 302.381598 173.037461 
L 301.049001 173.942957 
L 298.345201 176.029361 
L 296.337644 177.256588 
L 295.010444 178.239509 
L 293.682054 179.054517 
L 292.350446 179.914526 
L 290.349199 181.432075 
L 284.968079 185.067854 
L 284.286808 185.636571 
L 282.961387 186.265474 
L 280.97771 187.676518 
L 280.304359 188.332047 
L 279.65348 188.753644 
L 278.996461 189.029335 
L 275.696767 191.155367 
L 274.361942 191.842583 
L 272.359953 193.387244 
L 271.034037 194.262299 
L 268.357706 195.747328 
L 267.035502 196.849122 
L 265.703152 197.780827 
L 263.702152 198.75573 
L 263.051568 199.253331 
L 261.097834 200.344863 
L 260.444032 200.678174 
L 259.100175 201.72207 
L 258.433505 202.347506 
L 254.393148 204.76216 
L 252.440652 205.762025 
L 251.765321 206.190608 
L 249.770755 207.759468 
L 247.775942 208.814319 
L 245.112154 210.439902 
L 241.808501 212.560212 
L 235.18585 216.540675 
L 233.161094 217.57306 
L 231.157867 218.842862 
L 229.183531 219.947455 
L 226.47899 221.795472 
L 223.825425 223.022595 
L 221.149342 224.728052 
L 218.485632 226.160661 
L 217.81624 226.699423 
L 214.487051 228.317899 
L 212.491619 229.786564 
L 211.183768 230.437794 
L 209.847953 230.992019 
L 207.853635 232.322353 
L 206.534401 232.910242 
L 205.879609 233.146202 
L 203.885044 234.556969 
L 201.218109 235.666493 
L 200.553295 236.072611 
L 199.898751 236.636196 
L 199.230843 237.053061 
L 197.917061 237.500325 
L 196.590403 238.171663 
L 194.590888 239.586243 
L 193.287986 240.109959 
L 191.954027 240.934467 
L 191.289956 241.488484 
L 189.950924 242.125777 
L 188.642331 242.640374 
L 187.969722 242.965296 
L 186.625865 243.820382 
L 185.321973 244.478685 
L 184.01239 245.033534 
L 180.694151 247.047819 
L 177.977236 248.215137 
L 176.63177 249.21639 
L 175.976731 249.417559 
L 173.969792 250.417632 
L 172.638185 251.356895 
L 169.333541 252.853088 
L 168.655735 253.346641 
L 166.656468 254.195764 
L 163.292889 256.073525 
L 161.302035 257.048567 
L 159.312914 258.193281 
L 155.317967 259.927583 
L 154.008631 260.542479 
L 152.677519 261.043625 
L 149.376502 263.070237 
L 147.392577 263.932326 
L 146.723433 264.464016 
L 145.387123 265.142357 
L 142.122569 266.570459 
L 138.808026 268.302438 
L 130.160132 272.38844 
L 129.508558 272.539464 
L 127.505826 273.623576 
L 126.170259 274.048068 
L 124.844466 274.628746 
L 123.525479 275.584581 
L 122.87341 275.854136 
L 121.546999 276.213558 
L 120.206111 276.946711 
L 119.537338 277.43867 
L 117.545742 278.125783 
L 116.205655 278.561259 
L 115.540099 279.097387 
L 114.890009 279.449073 
L 114.224824 279.583001 
L 112.243126 280.529233 
L 110.242374 281.584049 
L 108.243602 282.176272 
L 105.588676 283.695346 
L 103.609454 284.333124 
L 102.960601 284.742986 
L 101.648048 285.162191 
L 100.325034 285.611817 
L 99.663561 285.903525 
L 99.001098 286.351385 
L 97.686071 286.781944 
L 96.354463 287.337001 
L 95.033249 288.35479 
L 93.038436 288.53463 
L 92.359516 288.670484 
L 91.028404 289.951016 
L 88.362715 290.260192 
L 87.707676 290.773353 
L 87.048553 291.433943 
L 84.380042 291.896365 
L 83.074418 293.303267 
L 81.742811 293.196786 
L 80.404645 293.537201 
L 79.752947 293.906319 
L 79.094691 294.939155 
L 77.096908 294.613826 
L 75.756144 294.575352 
L 75.091207 295.341199 
L 73.939228 295.484141 
L 73.833245 292.946326 
L 73.833245 292.946326 
" clip-path="url(#paf6b2810c0)" style="fill: none; stroke: #ff0000; stroke-width: 1.5; stroke-linecap: square"/>
   </g>
   <g id="line2d_19">
    <path d="M 73.974947 273.496962 
L 73.974947 273.497517 
L 73.972775 273.329082 
L 74.623415 268.678657 
L 75.337351 264.469515 
L 78.251496 260.308633 
L 78.968153 259.569759 
L 79.757071 271.777972 
L 82.040675 270.404787 
L 85.334925 268.941699 
L 88.161962 267.979207 
L 90.195132 267.392047 
L 92.335936 266.978695 
L 93.816764 266.414 
L 98.429507 264.201241 
L 101.5634 262.560408 
L 102.345388 262.228224 
L 106.229594 261.608899 
L 109.292218 261.545688 
L 112.279612 261.23089 
L 113.738664 260.768816 
L 115.173959 260.045474 
L 117.282358 258.65426 
L 119.345224 256.900266 
L 122.03962 254.503917 
L 126.646423 250.860579 
L 128.917159 249.274108 
L 138.495034 242.798419 
L 142.307974 240.150232 
L 145.180544 238.506071 
L 150.951421 235.689254 
L 153.839829 234.282509 
L 162.489216 229.124812 
L 166.341747 226.59977 
L 169.240053 225.12535 
L 172.14232 223.665353 
L 174.074524 222.499352 
L 180.845159 217.961821 
L 190.278514 211.903275 
L 193.560885 209.932944 
L 200.814571 205.643924 
L 205.451062 202.601892 
L 209.440193 200.359753 
L 212.102914 198.804345 
L 226.671656 189.517385 
L 241.630403 179.690137 
L 248.357484 175.061634 
L 256.971483 168.820657 
L 263.682726 164.242078 
L 278.999802 153.619376 
L 285.689268 149.114018 
L 290.462368 145.478447 
L 296.211468 140.927603 
L 303.63145 135.485895 
L 306.872248 132.989699 
L 311.421639 129.411817 
L 315.988848 125.801762 
L 321.237079 121.767909 
L 337.074821 109.487732 
L 341.052074 106.227144 
L 349.032316 100.035468 
L 352.350323 97.439423 
L 357.624291 93.057212 
L 365.467932 86.314153 
L 369.668893 83.371407 
L 380.579118 76.520874 
L 385.314602 73.110237 
L 388.916699 70.097605 
L 391.164668 67.950322 
L 392.577197 66.129207 
L 393.999624 63.756157 
L 395.452242 60.892742 
L 396.808843 57.408052 
L 397.472575 54.6319 
L 398.20739 53.568 
L 398.487273 55.189488 
L 398.33468 70.664284 
L 398.334618 90.101524 
L 398.334494 90.01336 
L 398.332731 96.741216 
L 398.330071 96.670664 
L 397.678589 97.074511 
L 396.345775 99.903845 
L 395.683064 99.630321 
L 394.987194 99.660119 
L 392.265329 100.735893 
L 391.570448 100.628852 
L 390.917884 101.70629 
L 390.268289 103.211774 
L 389.59667 104.483447 
L 388.902284 105.1448 
L 388.202949 105.198937 
L 387.54593 105.09271 
L 386.206898 105.884143 
L 385.53132 106.420964 
L 384.865268 106.618354 
L 384.200826 108.609764 
L 383.525989 109.899327 
L 382.18238 110.602283 
L 381.511255 110.878876 
L 380.195485 111.79075 
L 378.867219 113.225924 
L 377.54254 114.455856 
L 376.869127 115.246717 
L 375.527125 116.160186 
L 374.18166 117.452661 
L 373.525136 117.753557 
L 370.8639 119.907012 
L 369.538479 121.466857 
L 368.200438 122.450358 
L 366.868211 123.407511 
L 364.890721 125.325561 
L 362.902094 126.575462 
L 362.22899 127.179403 
L 360.905951 128.647686 
L 360.251902 129.240949 
L 358.916582 130.079324 
L 357.58349 131.232983 
L 355.591894 133.046331 
L 353.605247 134.403638 
L 352.273887 135.575047 
L 348.936578 138.348599 
L 346.971461 139.818512 
L 344.970709 141.372325 
L 342.335952 143.793566 
L 340.342376 145.197053 
L 338.340881 146.935862 
L 336.365371 148.184861 
L 333.696835 150.391222 
L 333.039553 150.911193 
L 331.705718 151.801781 
L 329.701378 153.326194 
L 328.38052 154.423472 
L 325.055089 156.657776 
L 323.710365 157.766225 
L 320.349052 160.395968 
L 317.035376 162.590402 
L 315.705501 163.581947 
L 312.384524 165.987171 
L 311.071569 166.959154 
L 309.766193 167.773122 
L 308.41751 168.764458 
L 307.066105 169.813 
L 305.057929 171.133418 
L 304.382351 171.486214 
L 302.381598 173.037461 
L 301.049001 173.942957 
L 298.345201 176.029361 
L 296.337644 177.256588 
L 295.010444 178.239509 
L 293.682054 179.054517 
L 292.350446 179.914526 
L 290.349199 181.432075 
L 284.968079 185.067854 
L 284.286808 185.636571 
L 282.961387 186.265474 
L 280.97771 187.676518 
L 280.304359 188.332047 
L 279.65348 188.753644 
L 278.996461 189.029335 
L 275.696767 191.155367 
L 274.361942 191.842583 
L 272.359953 193.387244 
L 271.034037 194.262299 
L 268.357706 195.747328 
L 267.035502 196.849122 
L 265.703152 197.780827 
L 263.702152 198.75573 
L 263.051568 199.253331 
L 261.097834 200.344863 
L 260.444032 200.678174 
L 259.100175 201.72207 
L 258.433505 202.347506 
L 254.393148 204.76216 
L 252.440652 205.762025 
L 251.765321 206.190608 
L 249.770755 207.759468 
L 247.775942 208.814319 
L 245.112154 210.439902 
L 241.808501 212.560212 
L 235.18585 216.540675 
L 233.161094 217.57306 
L 231.157867 218.842862 
L 229.183531 219.947455 
L 226.47899 221.795472 
L 223.825425 223.022595 
L 221.149342 224.728052 
L 218.485632 226.160661 
L 217.81624 226.699423 
L 214.487051 228.317899 
L 212.491619 229.786564 
L 211.183768 230.437794 
L 209.847953 230.992019 
L 207.853635 232.322353 
L 206.534401 232.910242 
L 205.879609 233.146202 
L 203.885044 234.556969 
L 201.218109 235.666493 
L 200.553295 236.072611 
L 199.898751 236.636196 
L 199.230843 237.053061 
L 197.917061 237.500325 
L 196.590403 238.171663 
L 194.590888 239.586243 
L 193.287986 240.109959 
L 191.954027 240.934467 
L 191.289956 241.488484 
L 189.950924 242.125777 
L 188.642331 242.640374 
L 187.969722 242.965296 
L 186.625865 243.820382 
L 185.321973 244.478685 
L 184.01239 245.033534 
L 180.694151 247.047819 
L 177.977236 248.215137 
L 176.63177 249.21639 
L 175.976731 249.417559 
L 173.969792 250.417632 
L 172.638185 251.356895 
L 169.333541 252.853088 
L 168.655735 253.346641 
L 166.656468 254.195764 
L 163.292889 256.073525 
L 161.302035 257.048567 
L 159.312914 258.193281 
L 155.317967 259.927583 
L 154.008631 260.542479 
L 152.677519 261.043625 
L 149.376502 263.070237 
L 147.392577 263.932326 
L 146.723433 264.464016 
L 145.387123 265.142357 
L 142.122569 266.570459 
L 138.808026 268.302438 
L 130.160132 272.38844 
L 129.508558 272.539464 
L 127.505826 273.623576 
L 126.170259 274.048068 
L 124.844466 274.628746 
L 123.525479 275.584581 
L 122.87341 275.854136 
L 121.546999 276.213558 
L 120.206111 276.946711 
L 119.537338 277.43867 
L 117.545742 278.125783 
L 116.205655 278.561259 
L 115.540099 279.097387 
L 114.890009 279.449073 
L 114.224824 279.583001 
L 112.243126 280.529233 
L 110.242374 281.584049 
L 108.243602 282.176272 
L 105.588676 283.695346 
L 103.609454 284.333124 
L 102.960601 284.742986 
L 101.648048 285.162191 
L 100.325034 285.611817 
L 99.663561 285.903525 
L 99.001098 286.351385 
L 97.686071 286.781944 
L 96.354463 287.337001 
L 95.033249 288.35479 
L 93.038436 288.53463 
L 92.359516 288.670484 
L 91.028404 289.951016 
L 88.362715 290.260192 
L 87.707676 290.773353 
L 87.048553 291.433943 
L 84.380042 291.896365 
L 83.074418 293.303267 
L 81.742811 293.196786 
L 80.404645 293.537201 
L 79.752947 293.906319 
L 79.094691 294.939155 
L 77.096908 294.613826 
L 75.756144 294.575352 
L 75.091207 295.341199 
L 73.939228 295.484141 
L 73.833245 292.946326 
L 73.833245 292.946326 
" clip-path="url(#paf6b2810c0)" style="fill: none; stroke: #000000; stroke-width: 1.5; stroke-linecap: square"/>
   </g>
   <g id="patch_3">
    <path d="M 57.6 307.584 
L 57.6 41.472 
" style="fill: none; stroke: #000000; stroke-width: 0.8; stroke-linejoin: miter; stroke-linecap: square"/>
   </g>
   <g id="patch_4">
    <path d="M 414.72 307.584 
L 414.72 41.472 
" style="fill: none; stroke: #000000; stroke-width: 0.8; stroke-linejoin: miter; stroke-linecap: square"/>
   </g>
   <g id="patch_5">
    <path d="M 57.6 307.584 
L 414.72 307.584 
" style="fill: none; stroke: #000000; stroke-width: 0.8; stroke-linejoin: miter; stroke-linecap: square"/>
   </g>
   <g id="patch_6">
    <path d="M 57.6 41.472 
L 414.72 41.472 
" style="fill: none; stroke: #000000; stroke-width: 0.8; stroke-linejoin: miter; stroke-linecap: square"/>
   </g>
   <g id="text_20">
    <!-- 2025-06-19 trial 22 -->
    <g transform="translate(178.0125 35.472) scale(0.12 -0.12)">
     <defs>
      <path id="DejaVuSans-2d" d="M 313 2009 
L 1997 2009 
L 1997 1497 
L 313 1497 
L 313 2009 
z
" transform="scale(0.015625)"/>
      <path id="DejaVuSans-36" d="M 2113 2584 
Q 1688 2584 1439 2293 
Q 1191 2003 1191 1497 
Q 1191 994 1439 701 
Q 1688 409 2113 409 
Q 2538 409 2786 701 
Q 3034 994 3034 1497 
Q 3034 2003 2786 2293 
Q 2538 2584 2113 2584 
z
M 3366 4563 
L 3366 3988 
Q 3128 4100 2886 4159 
Q 2644 4219 2406 4219 
Q 1781 4219 1451 3797 
Q 1122 3375 1075 2522 
Q 1259 2794 1537 2939 
Q 1816 3084 2150 3084 
Q 2853 3084 3261 2657 
Q 3669 2231 3669 1497 
Q 3669 778 3244 343 
Q 2819 -91 2113 -91 
Q 1303 -91 875 529 
Q 447 1150 447 2328 
Q 447 3434 972 4092 
Q 1497 4750 2381 4750 
Q 2619 4750 2861 4703 
Q 3103 4656 3366 4563 
z
" transform="scale(0.015625)"/>
      <path id="DejaVuSans-39" d="M 703 97 
L 703 672 
Q 941 559 1184 500 
Q 1428 441 1663 441 
Q 2288 441 2617 861 
Q 2947 1281 2994 2138 
Q 2813 1869 2534 1725 
Q 2256 1581 1919 1581 
Q 1219 1581 811 2004 
Q 403 2428 403 3163 
Q 403 3881 828 4315 
Q 1253 4750 1959 4750 
Q 2769 4750 3195 4129 
Q 3622 3509 3622 2328 
Q 3622 1225 3098 567 
Q 2575 -91 1691 -91 
Q 1453 -91 1209 -44 
Q 966 3 703 97 
z
M 1959 2075 
Q 2384 2075 2632 2365 
Q 2881 2656 2881 3163 
Q 2881 3666 2632 3958 
Q 2384 4250 1959 4250 
Q 1534 4250 1286 3958 
Q 1038 3666 1038 3163 
Q 1038 2656 1286 2365 
Q 1534 2075 1959 2075 
z
" transform="scale(0.015625)"/>
      <path id="DejaVuSans-6c" d="M 603 4863 
L 1178 4863 
L 1178 0 
L 603 0 
L 603 4863 
z
" transform="scale(0.015625)"/>
     </defs>
     <use xlink:href="#DejaVuSans-32"/>
     <use xlink:href="#DejaVuSans-30" transform="translate(63.623047 0)"/>
     <use xlink:href="#DejaVuSans-32" transform="translate(127.246094 0)"/>
     <use xlink:href="#DejaVuSans-35" transform="translate(190.869141 0)"/>
     <use xlink:href="#DejaVuSans-2d" transform="translate(254.492188 0)"/>
     <use xlink:href="#DejaVuSans-30" transform="translate(290.576172 0)"/>
     <use xlink:href="#DejaVuSans-36" transform="translate(354.199219 0)"/>
     <use xlink:href="#DejaVuSans-2d" transform="translate(417.822266 0)"/>
     <use xlink:href="#DejaVuSans-31" transform="translate(453.90625 0)"/>
     <use xlink:href="#DejaVuSans-39" transform="translate(517.529297 0)"/>
     <use xlink:href="#DejaVuSans-20" transform="translate(581.152344 0)"/>
     <use xlink:href="#DejaVuSans-74" transform="translate(612.939453 0)"/>
     <use xlink:href="#DejaVuSans-72" transform="translate(652.148438 0)"/>
     <use xlink:href="#DejaVuSans-69" transform="translate(693.261719 0)"/>
     <use xlink:href="#DejaVuSans-61" transform="translate(721.044922 0)"/>
     <use xlink:href="#DejaVuSans-6c" transform="translate(782.324219 0)"/>
     <use xlink:href="#DejaVuSans-20" transform="translate(810.107422 0)"/>
     <use xlink:href="#DejaVuSans-32" transform="translate(841.894531 0)"/>
     <use xlink:href="#DejaVuSans-32" transform="translate(905.517578 0)"/>
    </g>
   </g>
  </g>
 </g>
 <defs>
  <clipPath id="paf6b2810c0">
   <rect x="57.6" y="41.472" width="357.12" height="266.112"/>
  </clipPath>
 </defs>
</svg>
