<?xml version="1.0" encoding="utf-8" standalone="no"?>
<!DOCTYPE svg PUBLIC "-//W3C//DTD SVG 1.1//EN"
  "http://www.w3.org/Graphics/SVG/1.1/DTD/svg11.dtd">
<svg xmlns:xlink="http://www.w3.org/1999/xlink" width="460.8pt" height="345.6pt" viewBox="0 0 460.8 345.6" xmlns="http://www.w3.org/2000/svg" version="1.1">
 <metadata>
  <rdf:RDF xmlns:dc="http://purl.org/dc/elements/1.1/" xmlns:cc="http://creativecommons.org/ns#" xmlns:rdf="http://www.w3.org/1999/02/22-rdf-syntax-ns#">
   <cc:Work>
    <dc:type rdf:resource="http://purl.org/dc/dcmitype/StillImage"/>
    <dc:date>2025-07-16T22:11:59.736789</dc:date>
    <dc:format>image/svg+xml</dc:format>
    <dc:creator>
     <cc:Agent>
      <dc:title>Matplotlib v3.10.3, https://matplotlib.org/</dc:title>
     </cc:Agent>
    </dc:creator>
   </cc:Work>
  </rdf:RDF>
 </metadata>
 <defs>
  <style type="text/css">*{stroke-linejoin: round; stroke-linecap: butt}</style>
 </defs>
 <g id="figure_1">
  <g id="patch_1">
   <path d="M 0 345.6 
L 460.8 345.6 
L 460.8 0 
L 0 0 
z
" style="fill: #ffffff"/>
  </g>
  <g id="axes_1">
   <g id="patch_2">
    <path d="M 57.6 307.584 
L 414.72 307.584 
L 414.72 41.472 
L 57.6 41.472 
z
" style="fill: #ffffff"/>
   </g>
   <g id="matplotlib.axis_1">
    <g id="xtick_1">
     <g id="line2d_1">
      <defs>
       <path id="m3563e606ab" d="M 0 0 
L 0 3.5 
" style="stroke: #000000; stroke-width: 0.8"/>
      </defs>
      <g>
       <use xlink:href="#m3563e606ab" x="74.089164" y="307.584" style="stroke: #000000; stroke-width: 0.8"/>
      </g>
     </g>
     <g id="text_1">
      <!-- 0.00 -->
      <g transform="translate(62.956351 322.182437) scale(0.1 -0.1)">
       <defs>
        <path id="DejaVuSans-30" d="M 2034 4250 
Q 1547 4250 1301 3770 
Q 1056 3291 1056 2328 
Q 1056 1369 1301 889 
Q 1547 409 2034 409 
Q 2525 409 2770 889 
Q 3016 1369 3016 2328 
Q 3016 3291 2770 3770 
Q 2525 4250 2034 4250 
z
M 2034 4750 
Q 2819 4750 3233 4129 
Q 3647 3509 3647 2328 
Q 3647 1150 3233 529 
Q 2819 -91 2034 -91 
Q 1250 -91 836 529 
Q 422 1150 422 2328 
Q 422 3509 836 4129 
Q 1250 4750 2034 4750 
z
" transform="scale(0.015625)"/>
        <path id="DejaVuSans-2e" d="M 684 794 
L 1344 794 
L 1344 0 
L 684 0 
L 684 794 
z
" transform="scale(0.015625)"/>
       </defs>
       <use xlink:href="#DejaVuSans-30"/>
       <use xlink:href="#DejaVuSans-2e" transform="translate(63.623047 0)"/>
       <use xlink:href="#DejaVuSans-30" transform="translate(95.410156 0)"/>
       <use xlink:href="#DejaVuSans-30" transform="translate(159.033203 0)"/>
      </g>
     </g>
    </g>
    <g id="xtick_2">
     <g id="line2d_2">
      <g>
       <use xlink:href="#m3563e606ab" x="134.602955" y="307.584" style="stroke: #000000; stroke-width: 0.8"/>
      </g>
     </g>
     <g id="text_2">
      <!-- 0.02 -->
      <g transform="translate(123.470142 322.182437) scale(0.1 -0.1)">
       <defs>
        <path id="DejaVuSans-32" d="M 1228 531 
L 3431 531 
L 3431 0 
L 469 0 
L 469 531 
Q 828 903 1448 1529 
Q 2069 2156 2228 2338 
Q 2531 2678 2651 2914 
Q 2772 3150 2772 3378 
Q 2772 3750 2511 3984 
Q 2250 4219 1831 4219 
Q 1534 4219 1204 4116 
Q 875 4013 500 3803 
L 500 4441 
Q 881 4594 1212 4672 
Q 1544 4750 1819 4750 
Q 2544 4750 2975 4387 
Q 3406 4025 3406 3419 
Q 3406 3131 3298 2873 
Q 3191 2616 2906 2266 
Q 2828 2175 2409 1742 
Q 1991 1309 1228 531 
z
" transform="scale(0.015625)"/>
       </defs>
       <use xlink:href="#DejaVuSans-30"/>
       <use xlink:href="#DejaVuSans-2e" transform="translate(63.623047 0)"/>
       <use xlink:href="#DejaVuSans-30" transform="translate(95.410156 0)"/>
       <use xlink:href="#DejaVuSans-32" transform="translate(159.033203 0)"/>
      </g>
     </g>
    </g>
    <g id="xtick_3">
     <g id="line2d_3">
      <g>
       <use xlink:href="#m3563e606ab" x="195.116746" y="307.584" style="stroke: #000000; stroke-width: 0.8"/>
      </g>
     </g>
     <g id="text_3">
      <!-- 0.04 -->
      <g transform="translate(183.983934 322.182437) scale(0.1 -0.1)">
       <defs>
        <path id="DejaVuSans-34" d="M 2419 4116 
L 825 1625 
L 2419 1625 
L 2419 4116 
z
M 2253 4666 
L 3047 4666 
L 3047 1625 
L 3713 1625 
L 3713 1100 
L 3047 1100 
L 3047 0 
L 2419 0 
L 2419 1100 
L 313 1100 
L 313 1709 
L 2253 4666 
z
" transform="scale(0.015625)"/>
       </defs>
       <use xlink:href="#DejaVuSans-30"/>
       <use xlink:href="#DejaVuSans-2e" transform="translate(63.623047 0)"/>
       <use xlink:href="#DejaVuSans-30" transform="translate(95.410156 0)"/>
       <use xlink:href="#DejaVuSans-34" transform="translate(159.033203 0)"/>
      </g>
     </g>
    </g>
    <g id="xtick_4">
     <g id="line2d_4">
      <g>
       <use xlink:href="#m3563e606ab" x="255.630538" y="307.584" style="stroke: #000000; stroke-width: 0.8"/>
      </g>
     </g>
     <g id="text_4">
      <!-- 0.06 -->
      <g transform="translate(244.497725 322.182437) scale(0.1 -0.1)">
       <defs>
        <path id="DejaVuSans-36" d="M 2113 2584 
Q 1688 2584 1439 2293 
Q 1191 2003 1191 1497 
Q 1191 994 1439 701 
Q 1688 409 2113 409 
Q 2538 409 2786 701 
Q 3034 994 3034 1497 
Q 3034 2003 2786 2293 
Q 2538 2584 2113 2584 
z
M 3366 4563 
L 3366 3988 
Q 3128 4100 2886 4159 
Q 2644 4219 2406 4219 
Q 1781 4219 1451 3797 
Q 1122 3375 1075 2522 
Q 1259 2794 1537 2939 
Q 1816 3084 2150 3084 
Q 2853 3084 3261 2657 
Q 3669 2231 3669 1497 
Q 3669 778 3244 343 
Q 2819 -91 2113 -91 
Q 1303 -91 875 529 
Q 447 1150 447 2328 
Q 447 3434 972 4092 
Q 1497 4750 2381 4750 
Q 2619 4750 2861 4703 
Q 3103 4656 3366 4563 
z
" transform="scale(0.015625)"/>
       </defs>
       <use xlink:href="#DejaVuSans-30"/>
       <use xlink:href="#DejaVuSans-2e" transform="translate(63.623047 0)"/>
       <use xlink:href="#DejaVuSans-30" transform="translate(95.410156 0)"/>
       <use xlink:href="#DejaVuSans-36" transform="translate(159.033203 0)"/>
      </g>
     </g>
    </g>
    <g id="xtick_5">
     <g id="line2d_5">
      <g>
       <use xlink:href="#m3563e606ab" x="316.144329" y="307.584" style="stroke: #000000; stroke-width: 0.8"/>
      </g>
     </g>
     <g id="text_5">
      <!-- 0.08 -->
      <g transform="translate(305.011516 322.182437) scale(0.1 -0.1)">
       <defs>
        <path id="DejaVuSans-38" d="M 2034 2216 
Q 1584 2216 1326 1975 
Q 1069 1734 1069 1313 
Q 1069 891 1326 650 
Q 1584 409 2034 409 
Q 2484 409 2743 651 
Q 3003 894 3003 1313 
Q 3003 1734 2745 1975 
Q 2488 2216 2034 2216 
z
M 1403 2484 
Q 997 2584 770 2862 
Q 544 3141 544 3541 
Q 544 4100 942 4425 
Q 1341 4750 2034 4750 
Q 2731 4750 3128 4425 
Q 3525 4100 3525 3541 
Q 3525 3141 3298 2862 
Q 3072 2584 2669 2484 
Q 3125 2378 3379 2068 
Q 3634 1759 3634 1313 
Q 3634 634 3220 271 
Q 2806 -91 2034 -91 
Q 1263 -91 848 271 
Q 434 634 434 1313 
Q 434 1759 690 2068 
Q 947 2378 1403 2484 
z
M 1172 3481 
Q 1172 3119 1398 2916 
Q 1625 2713 2034 2713 
Q 2441 2713 2670 2916 
Q 2900 3119 2900 3481 
Q 2900 3844 2670 4047 
Q 2441 4250 2034 4250 
Q 1625 4250 1398 4047 
Q 1172 3844 1172 3481 
z
" transform="scale(0.015625)"/>
       </defs>
       <use xlink:href="#DejaVuSans-30"/>
       <use xlink:href="#DejaVuSans-2e" transform="translate(63.623047 0)"/>
       <use xlink:href="#DejaVuSans-30" transform="translate(95.410156 0)"/>
       <use xlink:href="#DejaVuSans-38" transform="translate(159.033203 0)"/>
      </g>
     </g>
    </g>
    <g id="xtick_6">
     <g id="line2d_6">
      <g>
       <use xlink:href="#m3563e606ab" x="376.65812" y="307.584" style="stroke: #000000; stroke-width: 0.8"/>
      </g>
     </g>
     <g id="text_6">
      <!-- 0.10 -->
      <g transform="translate(365.525308 322.182437) scale(0.1 -0.1)">
       <defs>
        <path id="DejaVuSans-31" d="M 794 531 
L 1825 531 
L 1825 4091 
L 703 3866 
L 703 4441 
L 1819 4666 
L 2450 4666 
L 2450 531 
L 3481 531 
L 3481 0 
L 794 0 
L 794 531 
z
" transform="scale(0.015625)"/>
       </defs>
       <use xlink:href="#DejaVuSans-30"/>
       <use xlink:href="#DejaVuSans-2e" transform="translate(63.623047 0)"/>
       <use xlink:href="#DejaVuSans-31" transform="translate(95.410156 0)"/>
       <use xlink:href="#DejaVuSans-30" transform="translate(159.033203 0)"/>
      </g>
     </g>
    </g>
    <g id="text_7">
     <!-- Strain -->
     <g transform="translate(221.348281 335.860562) scale(0.1 -0.1)">
      <defs>
       <path id="DejaVuSans-53" d="M 3425 4513 
L 3425 3897 
Q 3066 4069 2747 4153 
Q 2428 4238 2131 4238 
Q 1616 4238 1336 4038 
Q 1056 3838 1056 3469 
Q 1056 3159 1242 3001 
Q 1428 2844 1947 2747 
L 2328 2669 
Q 3034 2534 3370 2195 
Q 3706 1856 3706 1288 
Q 3706 609 3251 259 
Q 2797 -91 1919 -91 
Q 1588 -91 1214 -16 
Q 841 59 441 206 
L 441 856 
Q 825 641 1194 531 
Q 1563 422 1919 422 
Q 2459 422 2753 634 
Q 3047 847 3047 1241 
Q 3047 1584 2836 1778 
Q 2625 1972 2144 2069 
L 1759 2144 
Q 1053 2284 737 2584 
Q 422 2884 422 3419 
Q 422 4038 858 4394 
Q 1294 4750 2059 4750 
Q 2388 4750 2728 4690 
Q 3069 4631 3425 4513 
z
" transform="scale(0.015625)"/>
       <path id="DejaVuSans-74" d="M 1172 4494 
L 1172 3500 
L 2356 3500 
L 2356 3053 
L 1172 3053 
L 1172 1153 
Q 1172 725 1289 603 
Q 1406 481 1766 481 
L 2356 481 
L 2356 0 
L 1766 0 
Q 1100 0 847 248 
Q 594 497 594 1153 
L 594 3053 
L 172 3053 
L 172 3500 
L 594 3500 
L 594 4494 
L 1172 4494 
z
" transform="scale(0.015625)"/>
       <path id="DejaVuSans-72" d="M 2631 2963 
Q 2534 3019 2420 3045 
Q 2306 3072 2169 3072 
Q 1681 3072 1420 2755 
Q 1159 2438 1159 1844 
L 1159 0 
L 581 0 
L 581 3500 
L 1159 3500 
L 1159 2956 
Q 1341 3275 1631 3429 
Q 1922 3584 2338 3584 
Q 2397 3584 2469 3576 
Q 2541 3569 2628 3553 
L 2631 2963 
z
" transform="scale(0.015625)"/>
       <path id="DejaVuSans-61" d="M 2194 1759 
Q 1497 1759 1228 1600 
Q 959 1441 959 1056 
Q 959 750 1161 570 
Q 1363 391 1709 391 
Q 2188 391 2477 730 
Q 2766 1069 2766 1631 
L 2766 1759 
L 2194 1759 
z
M 3341 1997 
L 3341 0 
L 2766 0 
L 2766 531 
Q 2569 213 2275 61 
Q 1981 -91 1556 -91 
Q 1019 -91 701 211 
Q 384 513 384 1019 
Q 384 1609 779 1909 
Q 1175 2209 1959 2209 
L 2766 2209 
L 2766 2266 
Q 2766 2663 2505 2880 
Q 2244 3097 1772 3097 
Q 1472 3097 1187 3025 
Q 903 2953 641 2809 
L 641 3341 
Q 956 3463 1253 3523 
Q 1550 3584 1831 3584 
Q 2591 3584 2966 3190 
Q 3341 2797 3341 1997 
z
" transform="scale(0.015625)"/>
       <path id="DejaVuSans-69" d="M 603 3500 
L 1178 3500 
L 1178 0 
L 603 0 
L 603 3500 
z
M 603 4863 
L 1178 4863 
L 1178 4134 
L 603 4134 
L 603 4863 
z
" transform="scale(0.015625)"/>
       <path id="DejaVuSans-6e" d="M 3513 2113 
L 3513 0 
L 2938 0 
L 2938 2094 
Q 2938 2591 2744 2837 
Q 2550 3084 2163 3084 
Q 1697 3084 1428 2787 
Q 1159 2491 1159 1978 
L 1159 0 
L 581 0 
L 581 3500 
L 1159 3500 
L 1159 2956 
Q 1366 3272 1645 3428 
Q 1925 3584 2291 3584 
Q 2894 3584 3203 3211 
Q 3513 2838 3513 2113 
z
" transform="scale(0.015625)"/>
      </defs>
      <use xlink:href="#DejaVuSans-53"/>
      <use xlink:href="#DejaVuSans-74" transform="translate(63.476562 0)"/>
      <use xlink:href="#DejaVuSans-72" transform="translate(102.685547 0)"/>
      <use xlink:href="#DejaVuSans-61" transform="translate(143.798828 0)"/>
      <use xlink:href="#DejaVuSans-69" transform="translate(205.078125 0)"/>
      <use xlink:href="#DejaVuSans-6e" transform="translate(232.861328 0)"/>
     </g>
    </g>
   </g>
   <g id="matplotlib.axis_2">
    <g id="ytick_1">
     <g id="line2d_7">
      <defs>
       <path id="m4d26d69a1d" d="M 0 0 
L -3.5 0 
" style="stroke: #000000; stroke-width: 0.8"/>
      </defs>
      <g>
       <use xlink:href="#m4d26d69a1d" x="57.6" y="306.855968" style="stroke: #000000; stroke-width: 0.8"/>
      </g>
     </g>
     <g id="text_8">
      <!-- −200 -->
      <g transform="translate(23.132812 310.655187) scale(0.1 -0.1)">
       <defs>
        <path id="DejaVuSans-2212" d="M 678 2272 
L 4684 2272 
L 4684 1741 
L 678 1741 
L 678 2272 
z
" transform="scale(0.015625)"/>
       </defs>
       <use xlink:href="#DejaVuSans-2212"/>
       <use xlink:href="#DejaVuSans-32" transform="translate(83.789062 0)"/>
       <use xlink:href="#DejaVuSans-30" transform="translate(147.412109 0)"/>
       <use xlink:href="#DejaVuSans-30" transform="translate(211.035156 0)"/>
      </g>
     </g>
    </g>
    <g id="ytick_2">
     <g id="line2d_8">
      <g>
       <use xlink:href="#m4d26d69a1d" x="57.6" y="260.257283" style="stroke: #000000; stroke-width: 0.8"/>
      </g>
     </g>
     <g id="text_9">
      <!-- 0 -->
      <g transform="translate(44.2375 264.056502) scale(0.1 -0.1)">
       <use xlink:href="#DejaVuSans-30"/>
      </g>
     </g>
    </g>
    <g id="ytick_3">
     <g id="line2d_9">
      <g>
       <use xlink:href="#m4d26d69a1d" x="57.6" y="213.658598" style="stroke: #000000; stroke-width: 0.8"/>
      </g>
     </g>
     <g id="text_10">
      <!-- 200 -->
      <g transform="translate(31.5125 217.457816) scale(0.1 -0.1)">
       <use xlink:href="#DejaVuSans-32"/>
       <use xlink:href="#DejaVuSans-30" transform="translate(63.623047 0)"/>
       <use xlink:href="#DejaVuSans-30" transform="translate(127.246094 0)"/>
      </g>
     </g>
    </g>
    <g id="ytick_4">
     <g id="line2d_10">
      <g>
       <use xlink:href="#m4d26d69a1d" x="57.6" y="167.059912" style="stroke: #000000; stroke-width: 0.8"/>
      </g>
     </g>
     <g id="text_11">
      <!-- 400 -->
      <g transform="translate(31.5125 170.859131) scale(0.1 -0.1)">
       <use xlink:href="#DejaVuSans-34"/>
       <use xlink:href="#DejaVuSans-30" transform="translate(63.623047 0)"/>
       <use xlink:href="#DejaVuSans-30" transform="translate(127.246094 0)"/>
      </g>
     </g>
    </g>
    <g id="ytick_5">
     <g id="line2d_11">
      <g>
       <use xlink:href="#m4d26d69a1d" x="57.6" y="120.461227" style="stroke: #000000; stroke-width: 0.8"/>
      </g>
     </g>
     <g id="text_12">
      <!-- 600 -->
      <g transform="translate(31.5125 124.260446) scale(0.1 -0.1)">
       <use xlink:href="#DejaVuSans-36"/>
       <use xlink:href="#DejaVuSans-30" transform="translate(63.623047 0)"/>
       <use xlink:href="#DejaVuSans-30" transform="translate(127.246094 0)"/>
      </g>
     </g>
    </g>
    <g id="ytick_6">
     <g id="line2d_12">
      <g>
       <use xlink:href="#m4d26d69a1d" x="57.6" y="73.862542" style="stroke: #000000; stroke-width: 0.8"/>
      </g>
     </g>
     <g id="text_13">
      <!-- 800 -->
      <g transform="translate(31.5125 77.661761) scale(0.1 -0.1)">
       <use xlink:href="#DejaVuSans-38"/>
       <use xlink:href="#DejaVuSans-30" transform="translate(63.623047 0)"/>
       <use xlink:href="#DejaVuSans-30" transform="translate(127.246094 0)"/>
      </g>
     </g>
    </g>
    <g id="text_14">
     <!-- Stress [Pa] -->
     <g transform="translate(17.053125 201.235813) rotate(-90) scale(0.1 -0.1)">
      <defs>
       <path id="DejaVuSans-65" d="M 3597 1894 
L 3597 1613 
L 953 1613 
Q 991 1019 1311 708 
Q 1631 397 2203 397 
Q 2534 397 2845 478 
Q 3156 559 3463 722 
L 3463 178 
Q 3153 47 2828 -22 
Q 2503 -91 2169 -91 
Q 1331 -91 842 396 
Q 353 884 353 1716 
Q 353 2575 817 3079 
Q 1281 3584 2069 3584 
Q 2775 3584 3186 3129 
Q 3597 2675 3597 1894 
z
M 3022 2063 
Q 3016 2534 2758 2815 
Q 2500 3097 2075 3097 
Q 1594 3097 1305 2825 
Q 1016 2553 972 2059 
L 3022 2063 
z
" transform="scale(0.015625)"/>
       <path id="DejaVuSans-73" d="M 2834 3397 
L 2834 2853 
Q 2591 2978 2328 3040 
Q 2066 3103 1784 3103 
Q 1356 3103 1142 2972 
Q 928 2841 928 2578 
Q 928 2378 1081 2264 
Q 1234 2150 1697 2047 
L 1894 2003 
Q 2506 1872 2764 1633 
Q 3022 1394 3022 966 
Q 3022 478 2636 193 
Q 2250 -91 1575 -91 
Q 1294 -91 989 -36 
Q 684 19 347 128 
L 347 722 
Q 666 556 975 473 
Q 1284 391 1588 391 
Q 1994 391 2212 530 
Q 2431 669 2431 922 
Q 2431 1156 2273 1281 
Q 2116 1406 1581 1522 
L 1381 1569 
Q 847 1681 609 1914 
Q 372 2147 372 2553 
Q 372 3047 722 3315 
Q 1072 3584 1716 3584 
Q 2034 3584 2315 3537 
Q 2597 3491 2834 3397 
z
" transform="scale(0.015625)"/>
       <path id="DejaVuSans-20" transform="scale(0.015625)"/>
       <path id="DejaVuSans-5b" d="M 550 4863 
L 1875 4863 
L 1875 4416 
L 1125 4416 
L 1125 -397 
L 1875 -397 
L 1875 -844 
L 550 -844 
L 550 4863 
z
" transform="scale(0.015625)"/>
       <path id="DejaVuSans-50" d="M 1259 4147 
L 1259 2394 
L 2053 2394 
Q 2494 2394 2734 2622 
Q 2975 2850 2975 3272 
Q 2975 3691 2734 3919 
Q 2494 4147 2053 4147 
L 1259 4147 
z
M 628 4666 
L 2053 4666 
Q 2838 4666 3239 4311 
Q 3641 3956 3641 3272 
Q 3641 2581 3239 2228 
Q 2838 1875 2053 1875 
L 1259 1875 
L 1259 0 
L 628 0 
L 628 4666 
z
" transform="scale(0.015625)"/>
       <path id="DejaVuSans-5d" d="M 1947 4863 
L 1947 -844 
L 622 -844 
L 622 -397 
L 1369 -397 
L 1369 4416 
L 622 4416 
L 622 4863 
L 1947 4863 
z
" transform="scale(0.015625)"/>
      </defs>
      <use xlink:href="#DejaVuSans-53"/>
      <use xlink:href="#DejaVuSans-74" transform="translate(63.476562 0)"/>
      <use xlink:href="#DejaVuSans-72" transform="translate(102.685547 0)"/>
      <use xlink:href="#DejaVuSans-65" transform="translate(141.548828 0)"/>
      <use xlink:href="#DejaVuSans-73" transform="translate(203.072266 0)"/>
      <use xlink:href="#DejaVuSans-73" transform="translate(255.171875 0)"/>
      <use xlink:href="#DejaVuSans-20" transform="translate(307.271484 0)"/>
      <use xlink:href="#DejaVuSans-5b" transform="translate(339.058594 0)"/>
      <use xlink:href="#DejaVuSans-50" transform="translate(378.072266 0)"/>
      <use xlink:href="#DejaVuSans-61" transform="translate(433.875 0)"/>
      <use xlink:href="#DejaVuSans-5d" transform="translate(495.154297 0)"/>
     </g>
    </g>
   </g>
   <g id="line2d_13">
    <path d="M 74.089164 261.400674 
L 74.088408 261.454202 
L 74.089164 260.984756 
L 74.093216 261.341287 
L 75.200621 250.723837 
L 76.356066 246.822969 
L 77.493787 247.419372 
L 78.706531 248.796611 
L 79.881351 249.848696 
L 81.164996 250.610991 
L 82.307663 250.997787 
L 83.511338 251.198184 
L 84.771074 251.145702 
L 88.289763 250.622361 
L 89.439025 250.719244 
L 93.040157 251.728597 
L 94.27681 252.533133 
L 96.751764 254.937899 
L 99.185496 257.533238 
L 100.366087 258.325003 
L 101.512051 258.344159 
L 102.628336 257.624105 
L 103.713293 256.443333 
L 107.609572 250.94027 
L 110.147183 247.908772 
L 112.693038 245.591435 
L 113.977508 244.613025 
L 116.572829 242.992165 
L 119.202777 241.735262 
L 123.197989 239.841803 
L 125.883998 238.516628 
L 128.574951 237.269549 
L 132.61494 235.14883 
L 137.988607 231.811825 
L 140.672967 230.292146 
L 162.113223 216.431341 
L 171.015472 210.432197 
L 174.275288 208.457696 
L 176.455094 207.17869 
L 179.72975 204.927169 
L 183.01265 202.949721 
L 192.907519 196.748215 
L 200.629177 191.750074 
L 205.04485 189.097759 
L 207.246092 187.800089 
L 209.440738 186.262728 
L 212.717042 184.162488 
L 223.520438 177.000254 
L 227.527192 174.035555 
L 232.857989 169.905802 
L 246.288035 161.315247 
L 251.658404 158.18355 
L 255.658563 155.230639 
L 258.313243 153.279714 
L 263.617658 149.120491 
L 278.341255 138.986613 
L 281.038806 137.432552 
L 285.088431 135.027786 
L 287.779387 133.326375 
L 294.477097 128.298764 
L 301.176455 123.299641 
L 303.862464 121.190559 
L 307.91044 118.307394 
L 311.157065 116.109902 
L 314.408637 114.025379 
L 317.655262 111.950679 
L 324.3843 107.200087 
L 328.402596 104.084108 
L 343.184715 92.743987 
L 349.928593 87.765493 
L 352.629442 85.867614 
L 356.41195 82.98936 
L 359.112799 81.003071 
L 367.503898 74.168939 
L 369.682056 72.696412 
L 372.946818 70.74254 
L 378.031933 68.209579 
L 385.417222 65.633395 
L 388.971361 64.784408 
L 390.077753 64.48897 
L 391.260817 63.969804 
L 392.466965 63.189827 
L 393.637663 62.239414 
L 394.719064 60.959518 
L 395.805669 59.490921 
L 396.895984 57.110714 
L 398.056171 53.844913 
L 398.487273 55.175092 
L 398.319449 60.150884 
L 398.271425 63.937678 
L 398.270962 82.574598 
L 398.268076 82.335153 
L 398.267638 89.473442 
L 398.261764 89.414732 
L 397.170882 89.764077 
L 396.073868 92.813257 
L 394.932618 94.97913 
L 393.811799 94.292813 
L 392.699224 93.8569 
L 391.608496 93.861689 
L 390.484792 94.281639 
L 389.349545 94.458506 
L 388.23697 94.271892 
L 387.101723 94.748388 
L 386.013468 94.791672 
L 384.867916 98.038303 
L 383.746684 99.898853 
L 382.647713 100.867193 
L 381.565642 102.017758 
L 380.409784 102.812317 
L 379.279484 102.679056 
L 378.166084 102.36127 
L 377.057631 102.687897 
L 375.942995 103.378236 
L 374.832069 104.371626 
L 373.736189 105.753808 
L 372.642988 108.523513 
L 371.554322 109.388831 
L 370.460503 109.550226 
L 368.272864 110.168731 
L 367.188732 111.028155 
L 364.969147 113.127413 
L 362.75085 114.985477 
L 361.643222 116.155443 
L 360.53683 116.829573 
L 359.455996 118.102439 
L 358.324047 118.830843 
L 356.141767 119.191515 
L 353.901159 120.93443 
L 352.817233 121.992777 
L 351.727536 123.276694 
L 348.394346 125.376076 
L 347.26487 126.005448 
L 343.949817 128.81813 
L 340.659084 131.140502 
L 339.555578 132.237529 
L 335.150854 135.773796 
L 332.946315 137.014368 
L 331.816015 137.780101 
L 329.56036 139.721571 
L 326.259735 141.580402 
L 325.130671 142.383587 
L 322.873368 144.396154 
L 318.428221 147.096604 
L 317.330692 148.100309 
L 316.224506 149.326022 
L 314.008837 150.65525 
L 310.678944 152.898789 
L 309.555652 153.860499 
L 306.236013 156.087515 
L 305.14982 156.676673 
L 302.908593 158.484668 
L 300.736207 159.993664 
L 299.648777 160.81539 
L 296.336198 162.515082 
L 295.254539 163.356455 
L 293.074733 164.736642 
L 287.48755 169.013255 
L 286.365082 169.413803 
L 284.170023 170.84237 
L 281.935959 172.403629 
L 280.810605 173.185325 
L 277.552026 175.094746 
L 275.320899 176.861483 
L 272.021098 178.766239 
L 270.894095 179.649116 
L 268.638854 181.612811 
L 267.548538 182.287555 
L 265.348946 183.382986 
L 264.256569 184.032312 
L 260.889577 186.670138 
L 258.67061 188.01496 
L 257.582768 188.495938 
L 254.24512 190.696868 
L 252.013169 192.696911 
L 248.682864 194.522956 
L 247.566991 194.928785 
L 246.476264 195.517697 
L 244.246373 197.367933 
L 243.121019 198.324976 
L 238.73585 201.232454 
L 237.642649 201.813139 
L 236.551097 202.532334 
L 234.331718 203.811217 
L 229.873174 206.876483 
L 228.771316 207.377721 
L 226.547223 208.692409 
L 223.241444 211.350373 
L 218.811755 213.228974 
L 217.700829 213.982428 
L 216.603094 214.940454 
L 215.486191 215.630915 
L 213.316278 216.713392 
L 207.825129 220.247602 
L 206.741409 220.842285 
L 204.516671 222.478616 
L 203.391317 223.338409 
L 198.976803 225.199933 
L 196.773294 226.636481 
L 194.578236 228.247026 
L 193.450615 229.132605 
L 190.135562 230.625944 
L 189.005262 231.244327 
L 187.897427 232.086437 
L 186.799898 233.182481 
L 185.679079 233.975352 
L 184.588764 234.529145 
L 182.404423 235.248432 
L 181.29 235.926615 
L 180.194325 236.948493 
L 177.996794 238.382217 
L 175.803797 239.33263 
L 174.716779 239.971764 
L 173.632358 240.790895 
L 172.550699 241.33597 
L 168.060414 244.135636 
L 166.926404 244.997884 
L 164.719803 246.168218 
L 162.530516 247.379442 
L 161.436079 248.18889 
L 155.946785 251.219405 
L 152.578555 253.256961 
L 151.449904 253.779934 
L 148.117126 255.842355 
L 147.030932 256.353416 
L 145.93672 257.02777 
L 144.84352 257.443146 
L 140.492976 260.385006 
L 139.38576 261.044401 
L 137.188229 261.865084 
L 134.95504 263.275722 
L 133.851328 263.880352 
L 132.7437 264.756107 
L 131.612575 265.495563 
L 129.413807 266.382738 
L 128.314423 267.163083 
L 127.227408 267.612381 
L 123.895042 269.691624 
L 121.666182 271.205163 
L 120.582463 271.665757 
L 118.328135 273.125036 
L 117.199896 273.862527 
L 116.068771 274.342768 
L 114.934349 275.064296 
L 112.768146 276.103365 
L 111.684014 276.707257 
L 110.594111 277.542246 
L 109.49349 277.908167 
L 108.395755 278.452137 
L 107.263393 279.170227 
L 106.141337 280.107624 
L 102.864208 281.820455 
L 100.651013 282.579312 
L 99.565026 283.24632 
L 98.475741 284.162474 
L 97.391609 284.659967 
L 96.272438 284.975371 
L 95.159451 285.161708 
L 94.07367 285.728518 
L 89.649203 288.855406 
L 87.451672 289.896256 
L 84.107763 291.417193 
L 81.874575 292.868846 
L 80.787146 293.355718 
L 78.560759 294.013701 
L 76.38219 294.098236 
L 75.290432 294.910446 
L 74.092631 295.486546 
L 73.832727 294.796648 
L 73.833764 294.799346 
" clip-path="url(#p61017c7667)" style="fill: none; stroke: #ff0000; stroke-width: 1.5; stroke-linecap: square"/>
   </g>
   <g id="line2d_14">
    <path d="M 74.089164 261.400674 
L 74.088408 261.454202 
L 74.089164 260.984756 
L 74.093216 261.341287 
L 75.200621 250.723837 
L 76.356066 246.822969 
L 77.493787 247.419372 
L 78.706531 248.796611 
L 79.881351 249.848696 
L 81.164996 250.610991 
L 82.307663 265.115947 
L 83.511338 264.921444 
L 84.771074 264.16266 
L 86.083575 263.015779 
L 88.289763 260.518428 
L 89.439025 259.622166 
L 90.617967 259.093177 
L 91.819994 258.409469 
L 93.040157 257.402571 
L 94.27681 256.78075 
L 96.751764 256.84362 
L 97.978523 257.026335 
L 99.185496 257.533238 
L 100.366087 258.325003 
L 101.512051 258.344159 
L 102.628336 257.624105 
L 103.713293 256.443333 
L 107.609572 250.94027 
L 110.147183 247.908772 
L 112.693038 245.591435 
L 113.977508 244.613025 
L 116.572829 242.992165 
L 119.202777 241.735262 
L 123.197989 239.841803 
L 125.883998 238.516628 
L 128.574951 237.269549 
L 132.61494 235.14883 
L 137.988607 231.811825 
L 140.672967 230.292146 
L 162.113223 216.431341 
L 171.015472 210.432197 
L 174.275288 208.457696 
L 176.455094 207.17869 
L 179.72975 204.927169 
L 183.01265 202.949721 
L 192.907519 196.748215 
L 200.629177 191.750074 
L 205.04485 189.097759 
L 207.246092 187.800089 
L 209.440738 186.262728 
L 212.717042 184.162488 
L 223.520438 177.000254 
L 227.527192 174.035555 
L 232.857989 169.905802 
L 246.288035 161.315247 
L 251.658404 158.18355 
L 255.658563 155.230639 
L 258.313243 153.279714 
L 263.617658 149.120491 
L 278.341255 138.986613 
L 281.038806 137.432552 
L 285.088431 135.027786 
L 287.779387 133.326375 
L 294.477097 128.298764 
L 301.176455 123.299641 
L 303.862464 121.190559 
L 307.91044 118.307394 
L 311.157065 116.109902 
L 314.408637 114.025379 
L 317.655262 111.950679 
L 324.3843 107.200087 
L 328.402596 104.084108 
L 343.184715 92.743987 
L 349.928593 87.765493 
L 352.629442 85.867614 
L 356.41195 82.98936 
L 359.112799 81.003071 
L 367.503898 73.976428 
L 370.771959 71.41719 
L 372.946818 69.719217 
L 375.377252 68.081535 
L 385.417222 60.500334 
L 387.784999 58.965429 
L 388.971361 58.248813 
L 393.637663 56.007132 
L 394.719064 55.727503 
L 395.805669 56.463275 
L 396.895984 56.805498 
L 397.980632 53.568 
L 398.056171 53.705651 
L 398.487273 55.024438 
L 398.297575 60.715161 
L 398.272997 65.818627 
L 398.267638 89.473442 
L 398.261764 89.414732 
L 397.170882 89.764077 
L 396.073868 92.813257 
L 394.932618 94.97913 
L 393.811799 94.292813 
L 392.699224 93.8569 
L 391.608496 93.861689 
L 390.484792 94.281639 
L 389.349545 94.458506 
L 388.23697 94.271892 
L 387.101723 94.748388 
L 386.013468 94.791672 
L 384.867916 98.038303 
L 383.746684 99.898853 
L 382.647713 100.867193 
L 381.565642 102.017758 
L 380.409784 102.812317 
L 379.279484 102.679056 
L 378.166084 102.36127 
L 377.057631 102.687897 
L 375.942995 103.378236 
L 374.832069 104.371626 
L 373.736189 105.753808 
L 372.642988 108.523513 
L 371.554322 109.388831 
L 370.460503 109.550226 
L 368.272864 110.168731 
L 367.188732 111.028155 
L 364.969147 113.127413 
L 362.75085 114.985477 
L 361.643222 116.155443 
L 360.53683 116.829573 
L 359.455996 118.102439 
L 358.324047 118.830843 
L 356.141767 119.191515 
L 353.901159 120.93443 
L 352.817233 121.992777 
L 351.727536 123.276694 
L 348.394346 125.376076 
L 347.26487 126.005448 
L 343.949817 128.81813 
L 340.659084 131.140502 
L 339.555578 132.237529 
L 335.150854 135.773796 
L 332.946315 137.014368 
L 331.816015 137.780101 
L 329.56036 139.721571 
L 326.259735 141.580402 
L 325.130671 142.383587 
L 322.873368 144.396154 
L 318.428221 147.096604 
L 317.330692 148.100309 
L 316.224506 149.326022 
L 314.008837 150.65525 
L 310.678944 152.898789 
L 309.555652 153.860499 
L 306.236013 156.087515 
L 305.14982 156.676673 
L 302.908593 158.484668 
L 300.736207 159.993664 
L 299.648777 160.81539 
L 296.336198 162.515082 
L 295.254539 163.356455 
L 293.074733 164.736642 
L 287.48755 169.013255 
L 286.365082 169.413803 
L 284.170023 170.84237 
L 281.935959 172.403629 
L 280.810605 173.185325 
L 277.552026 175.094746 
L 275.320899 176.861483 
L 272.021098 178.766239 
L 270.894095 179.649116 
L 268.638854 181.612811 
L 267.548538 182.287555 
L 265.348946 183.382986 
L 264.256569 184.032312 
L 260.889577 186.670138 
L 258.67061 188.01496 
L 257.582768 188.495938 
L 254.24512 190.696868 
L 252.013169 192.696911 
L 248.682864 194.522956 
L 247.566991 194.928785 
L 246.476264 195.517697 
L 244.246373 197.367933 
L 243.121019 198.324976 
L 238.73585 201.232454 
L 237.642649 201.813139 
L 236.551097 202.532334 
L 234.331718 203.811217 
L 229.873174 206.876483 
L 228.771316 207.377721 
L 226.547223 208.692409 
L 223.241444 211.350373 
L 218.811755 213.228974 
L 217.700829 213.982428 
L 216.603094 214.940454 
L 215.486191 215.630915 
L 213.316278 216.713392 
L 207.825129 220.247602 
L 206.741409 220.842285 
L 204.516671 222.478616 
L 203.391317 223.338409 
L 198.976803 225.199933 
L 196.773294 226.636481 
L 194.578236 228.247026 
L 193.450615 229.132605 
L 190.135562 230.625944 
L 189.005262 231.244327 
L 187.897427 232.086437 
L 186.799898 233.182481 
L 185.679079 233.975352 
L 184.588764 234.529145 
L 182.404423 235.248432 
L 181.29 235.926615 
L 180.194325 236.948493 
L 177.996794 238.382217 
L 175.803797 239.33263 
L 174.716779 239.971764 
L 173.632358 240.790895 
L 172.550699 241.33597 
L 168.060414 244.135636 
L 166.926404 244.997884 
L 164.719803 246.168218 
L 162.530516 247.379442 
L 161.436079 248.18889 
L 155.946785 251.219405 
L 152.578555 253.256961 
L 151.449904 253.779934 
L 148.117126 255.842355 
L 147.030932 256.353416 
L 145.93672 257.02777 
L 144.84352 257.443146 
L 140.492976 260.385006 
L 139.38576 261.044401 
L 137.188229 261.865084 
L 134.95504 263.275722 
L 133.851328 263.880352 
L 132.7437 264.756107 
L 131.612575 265.495563 
L 129.413807 266.382738 
L 128.314423 267.163083 
L 127.227408 267.612381 
L 123.895042 269.691624 
L 121.666182 271.205163 
L 120.582463 271.665757 
L 118.328135 273.125036 
L 117.199896 273.862527 
L 116.068771 274.342768 
L 114.934349 275.064296 
L 112.768146 276.103365 
L 111.684014 276.707257 
L 110.594111 277.542246 
L 109.49349 277.908167 
L 108.395755 278.452137 
L 107.263393 279.170227 
L 106.141337 280.107624 
L 102.864208 281.820455 
L 100.651013 282.579312 
L 99.565026 283.24632 
L 98.475741 284.162474 
L 97.391609 284.659967 
L 96.272438 284.975371 
L 95.159451 285.161708 
L 94.07367 285.728518 
L 89.649203 288.855406 
L 87.451672 289.896256 
L 84.107763 291.417193 
L 81.874575 292.868846 
L 80.787146 293.355718 
L 78.560759 294.013701 
L 76.38219 294.098236 
L 75.290432 294.910446 
L 74.092631 295.486546 
L 73.832727 294.796648 
L 73.833764 294.799346 
" clip-path="url(#p61017c7667)" style="fill: none; stroke: #000000; stroke-width: 1.5; stroke-linecap: square"/>
   </g>
   <g id="patch_3">
    <path d="M 57.6 307.584 
L 57.6 41.472 
" style="fill: none; stroke: #000000; stroke-width: 0.8; stroke-linejoin: miter; stroke-linecap: square"/>
   </g>
   <g id="patch_4">
    <path d="M 414.72 307.584 
L 414.72 41.472 
" style="fill: none; stroke: #000000; stroke-width: 0.8; stroke-linejoin: miter; stroke-linecap: square"/>
   </g>
   <g id="patch_5">
    <path d="M 57.6 307.584 
L 414.72 307.584 
" style="fill: none; stroke: #000000; stroke-width: 0.8; stroke-linejoin: miter; stroke-linecap: square"/>
   </g>
   <g id="patch_6">
    <path d="M 57.6 41.472 
L 414.72 41.472 
" style="fill: none; stroke: #000000; stroke-width: 0.8; stroke-linejoin: miter; stroke-linecap: square"/>
   </g>
   <g id="text_15">
    <!-- 2025-06-19 trial 12 -->
    <g transform="translate(178.0125 35.472) scale(0.12 -0.12)">
     <defs>
      <path id="DejaVuSans-35" d="M 691 4666 
L 3169 4666 
L 3169 4134 
L 1269 4134 
L 1269 2991 
Q 1406 3038 1543 3061 
Q 1681 3084 1819 3084 
Q 2600 3084 3056 2656 
Q 3513 2228 3513 1497 
Q 3513 744 3044 326 
Q 2575 -91 1722 -91 
Q 1428 -91 1123 -41 
Q 819 9 494 109 
L 494 744 
Q 775 591 1075 516 
Q 1375 441 1709 441 
Q 2250 441 2565 725 
Q 2881 1009 2881 1497 
Q 2881 1984 2565 2268 
Q 2250 2553 1709 2553 
Q 1456 2553 1204 2497 
Q 953 2441 691 2322 
L 691 4666 
z
" transform="scale(0.015625)"/>
      <path id="DejaVuSans-2d" d="M 313 2009 
L 1997 2009 
L 1997 1497 
L 313 1497 
L 313 2009 
z
" transform="scale(0.015625)"/>
      <path id="DejaVuSans-39" d="M 703 97 
L 703 672 
Q 941 559 1184 500 
Q 1428 441 1663 441 
Q 2288 441 2617 861 
Q 2947 1281 2994 2138 
Q 2813 1869 2534 1725 
Q 2256 1581 1919 1581 
Q 1219 1581 811 2004 
Q 403 2428 403 3163 
Q 403 3881 828 4315 
Q 1253 4750 1959 4750 
Q 2769 4750 3195 4129 
Q 3622 3509 3622 2328 
Q 3622 1225 3098 567 
Q 2575 -91 1691 -91 
Q 1453 -91 1209 -44 
Q 966 3 703 97 
z
M 1959 2075 
Q 2384 2075 2632 2365 
Q 2881 2656 2881 3163 
Q 2881 3666 2632 3958 
Q 2384 4250 1959 4250 
Q 1534 4250 1286 3958 
Q 1038 3666 1038 3163 
Q 1038 2656 1286 2365 
Q 1534 2075 1959 2075 
z
" transform="scale(0.015625)"/>
      <path id="DejaVuSans-6c" d="M 603 4863 
L 1178 4863 
L 1178 0 
L 603 0 
L 603 4863 
z
" transform="scale(0.015625)"/>
     </defs>
     <use xlink:href="#DejaVuSans-32"/>
     <use xlink:href="#DejaVuSans-30" transform="translate(63.623047 0)"/>
     <use xlink:href="#DejaVuSans-32" transform="translate(127.246094 0)"/>
     <use xlink:href="#DejaVuSans-35" transform="translate(190.869141 0)"/>
     <use xlink:href="#DejaVuSans-2d" transform="translate(254.492188 0)"/>
     <use xlink:href="#DejaVuSans-30" transform="translate(290.576172 0)"/>
     <use xlink:href="#DejaVuSans-36" transform="translate(354.199219 0)"/>
     <use xlink:href="#DejaVuSans-2d" transform="translate(417.822266 0)"/>
     <use xlink:href="#DejaVuSans-31" transform="translate(453.90625 0)"/>
     <use xlink:href="#DejaVuSans-39" transform="translate(517.529297 0)"/>
     <use xlink:href="#DejaVuSans-20" transform="translate(581.152344 0)"/>
     <use xlink:href="#DejaVuSans-74" transform="translate(612.939453 0)"/>
     <use xlink:href="#DejaVuSans-72" transform="translate(652.148438 0)"/>
     <use xlink:href="#DejaVuSans-69" transform="translate(693.261719 0)"/>
     <use xlink:href="#DejaVuSans-61" transform="translate(721.044922 0)"/>
     <use xlink:href="#DejaVuSans-6c" transform="translate(782.324219 0)"/>
     <use xlink:href="#DejaVuSans-20" transform="translate(810.107422 0)"/>
     <use xlink:href="#DejaVuSans-31" transform="translate(841.894531 0)"/>
     <use xlink:href="#DejaVuSans-32" transform="translate(905.517578 0)"/>
    </g>
   </g>
  </g>
 </g>
 <defs>
  <clipPath id="p61017c7667">
   <rect x="57.6" y="41.472" width="357.12" height="266.112"/>
  </clipPath>
 </defs>
</svg>
