<?xml version="1.0" encoding="utf-8" standalone="no"?>
<!DOCTYPE svg PUBLIC "-//W3C//DTD SVG 1.1//EN"
  "http://www.w3.org/Graphics/SVG/1.1/DTD/svg11.dtd">
<svg xmlns:xlink="http://www.w3.org/1999/xlink" width="460.8pt" height="345.6pt" viewBox="0 0 460.8 345.6" xmlns="http://www.w3.org/2000/svg" version="1.1">
 <metadata>
  <rdf:RDF xmlns:dc="http://purl.org/dc/elements/1.1/" xmlns:cc="http://creativecommons.org/ns#" xmlns:rdf="http://www.w3.org/1999/02/22-rdf-syntax-ns#">
   <cc:Work>
    <dc:type rdf:resource="http://purl.org/dc/dcmitype/StillImage"/>
    <dc:date>2025-07-14T21:34:38.569647</dc:date>
    <dc:format>image/svg+xml</dc:format>
    <dc:creator>
     <cc:Agent>
      <dc:title>Matplotlib v3.10.3, https://matplotlib.org/</dc:title>
     </cc:Agent>
    </dc:creator>
   </cc:Work>
  </rdf:RDF>
 </metadata>
 <defs>
  <style type="text/css">*{stroke-linejoin: round; stroke-linecap: butt}</style>
 </defs>
 <g id="figure_1">
  <g id="patch_1">
   <path d="M 0 345.6 
L 460.8 345.6 
L 460.8 0 
L 0 0 
z
" style="fill: #ffffff"/>
  </g>
  <g id="axes_1">
   <g id="patch_2">
    <path d="M 57.6 307.584 
L 414.72 307.584 
L 414.72 41.472 
L 57.6 41.472 
z
" style="fill: #ffffff"/>
   </g>
   <g id="matplotlib.axis_1">
    <g id="xtick_1">
     <g id="line2d_1">
      <defs>
       <path id="m6bc7f95b8d" d="M 0 0 
L 0 3.5 
" style="stroke: #000000; stroke-width: 0.8"/>
      </defs>
      <g>
       <use xlink:href="#m6bc7f95b8d" x="73.904928" y="307.584" style="stroke: #000000; stroke-width: 0.8"/>
      </g>
     </g>
     <g id="text_1">
      <!-- 0.00 -->
      <g transform="translate(62.772115 322.182437) scale(0.1 -0.1)">
       <defs>
        <path id="DejaVuSans-30" d="M 2034 4250 
Q 1547 4250 1301 3770 
Q 1056 3291 1056 2328 
Q 1056 1369 1301 889 
Q 1547 409 2034 409 
Q 2525 409 2770 889 
Q 3016 1369 3016 2328 
Q 3016 3291 2770 3770 
Q 2525 4250 2034 4250 
z
M 2034 4750 
Q 2819 4750 3233 4129 
Q 3647 3509 3647 2328 
Q 3647 1150 3233 529 
Q 2819 -91 2034 -91 
Q 1250 -91 836 529 
Q 422 1150 422 2328 
Q 422 3509 836 4129 
Q 1250 4750 2034 4750 
z
" transform="scale(0.015625)"/>
        <path id="DejaVuSans-2e" d="M 684 794 
L 1344 794 
L 1344 0 
L 684 0 
L 684 794 
z
" transform="scale(0.015625)"/>
       </defs>
       <use xlink:href="#DejaVuSans-30"/>
       <use xlink:href="#DejaVuSans-2e" transform="translate(63.623047 0)"/>
       <use xlink:href="#DejaVuSans-30" transform="translate(95.410156 0)"/>
       <use xlink:href="#DejaVuSans-30" transform="translate(159.033203 0)"/>
      </g>
     </g>
    </g>
    <g id="xtick_2">
     <g id="line2d_2">
      <g>
       <use xlink:href="#m6bc7f95b8d" x="117.707725" y="307.584" style="stroke: #000000; stroke-width: 0.8"/>
      </g>
     </g>
     <g id="text_2">
      <!-- 0.05 -->
      <g transform="translate(106.574912 322.182437) scale(0.1 -0.1)">
       <defs>
        <path id="DejaVuSans-35" d="M 691 4666 
L 3169 4666 
L 3169 4134 
L 1269 4134 
L 1269 2991 
Q 1406 3038 1543 3061 
Q 1681 3084 1819 3084 
Q 2600 3084 3056 2656 
Q 3513 2228 3513 1497 
Q 3513 744 3044 326 
Q 2575 -91 1722 -91 
Q 1428 -91 1123 -41 
Q 819 9 494 109 
L 494 744 
Q 775 591 1075 516 
Q 1375 441 1709 441 
Q 2250 441 2565 725 
Q 2881 1009 2881 1497 
Q 2881 1984 2565 2268 
Q 2250 2553 1709 2553 
Q 1456 2553 1204 2497 
Q 953 2441 691 2322 
L 691 4666 
z
" transform="scale(0.015625)"/>
       </defs>
       <use xlink:href="#DejaVuSans-30"/>
       <use xlink:href="#DejaVuSans-2e" transform="translate(63.623047 0)"/>
       <use xlink:href="#DejaVuSans-30" transform="translate(95.410156 0)"/>
       <use xlink:href="#DejaVuSans-35" transform="translate(159.033203 0)"/>
      </g>
     </g>
    </g>
    <g id="xtick_3">
     <g id="line2d_3">
      <g>
       <use xlink:href="#m6bc7f95b8d" x="161.510522" y="307.584" style="stroke: #000000; stroke-width: 0.8"/>
      </g>
     </g>
     <g id="text_3">
      <!-- 0.10 -->
      <g transform="translate(150.377709 322.182437) scale(0.1 -0.1)">
       <defs>
        <path id="DejaVuSans-31" d="M 794 531 
L 1825 531 
L 1825 4091 
L 703 3866 
L 703 4441 
L 1819 4666 
L 2450 4666 
L 2450 531 
L 3481 531 
L 3481 0 
L 794 0 
L 794 531 
z
" transform="scale(0.015625)"/>
       </defs>
       <use xlink:href="#DejaVuSans-30"/>
       <use xlink:href="#DejaVuSans-2e" transform="translate(63.623047 0)"/>
       <use xlink:href="#DejaVuSans-31" transform="translate(95.410156 0)"/>
       <use xlink:href="#DejaVuSans-30" transform="translate(159.033203 0)"/>
      </g>
     </g>
    </g>
    <g id="xtick_4">
     <g id="line2d_4">
      <g>
       <use xlink:href="#m6bc7f95b8d" x="205.313318" y="307.584" style="stroke: #000000; stroke-width: 0.8"/>
      </g>
     </g>
     <g id="text_4">
      <!-- 0.15 -->
      <g transform="translate(194.180506 322.182437) scale(0.1 -0.1)">
       <use xlink:href="#DejaVuSans-30"/>
       <use xlink:href="#DejaVuSans-2e" transform="translate(63.623047 0)"/>
       <use xlink:href="#DejaVuSans-31" transform="translate(95.410156 0)"/>
       <use xlink:href="#DejaVuSans-35" transform="translate(159.033203 0)"/>
      </g>
     </g>
    </g>
    <g id="xtick_5">
     <g id="line2d_5">
      <g>
       <use xlink:href="#m6bc7f95b8d" x="249.116115" y="307.584" style="stroke: #000000; stroke-width: 0.8"/>
      </g>
     </g>
     <g id="text_5">
      <!-- 0.20 -->
      <g transform="translate(237.983303 322.182437) scale(0.1 -0.1)">
       <defs>
        <path id="DejaVuSans-32" d="M 1228 531 
L 3431 531 
L 3431 0 
L 469 0 
L 469 531 
Q 828 903 1448 1529 
Q 2069 2156 2228 2338 
Q 2531 2678 2651 2914 
Q 2772 3150 2772 3378 
Q 2772 3750 2511 3984 
Q 2250 4219 1831 4219 
Q 1534 4219 1204 4116 
Q 875 4013 500 3803 
L 500 4441 
Q 881 4594 1212 4672 
Q 1544 4750 1819 4750 
Q 2544 4750 2975 4387 
Q 3406 4025 3406 3419 
Q 3406 3131 3298 2873 
Q 3191 2616 2906 2266 
Q 2828 2175 2409 1742 
Q 1991 1309 1228 531 
z
" transform="scale(0.015625)"/>
       </defs>
       <use xlink:href="#DejaVuSans-30"/>
       <use xlink:href="#DejaVuSans-2e" transform="translate(63.623047 0)"/>
       <use xlink:href="#DejaVuSans-32" transform="translate(95.410156 0)"/>
       <use xlink:href="#DejaVuSans-30" transform="translate(159.033203 0)"/>
      </g>
     </g>
    </g>
    <g id="xtick_6">
     <g id="line2d_6">
      <g>
       <use xlink:href="#m6bc7f95b8d" x="292.918912" y="307.584" style="stroke: #000000; stroke-width: 0.8"/>
      </g>
     </g>
     <g id="text_6">
      <!-- 0.25 -->
      <g transform="translate(281.7861 322.182437) scale(0.1 -0.1)">
       <use xlink:href="#DejaVuSans-30"/>
       <use xlink:href="#DejaVuSans-2e" transform="translate(63.623047 0)"/>
       <use xlink:href="#DejaVuSans-32" transform="translate(95.410156 0)"/>
       <use xlink:href="#DejaVuSans-35" transform="translate(159.033203 0)"/>
      </g>
     </g>
    </g>
    <g id="xtick_7">
     <g id="line2d_7">
      <g>
       <use xlink:href="#m6bc7f95b8d" x="336.721709" y="307.584" style="stroke: #000000; stroke-width: 0.8"/>
      </g>
     </g>
     <g id="text_7">
      <!-- 0.30 -->
      <g transform="translate(325.588897 322.182437) scale(0.1 -0.1)">
       <defs>
        <path id="DejaVuSans-33" d="M 2597 2516 
Q 3050 2419 3304 2112 
Q 3559 1806 3559 1356 
Q 3559 666 3084 287 
Q 2609 -91 1734 -91 
Q 1441 -91 1130 -33 
Q 819 25 488 141 
L 488 750 
Q 750 597 1062 519 
Q 1375 441 1716 441 
Q 2309 441 2620 675 
Q 2931 909 2931 1356 
Q 2931 1769 2642 2001 
Q 2353 2234 1838 2234 
L 1294 2234 
L 1294 2753 
L 1863 2753 
Q 2328 2753 2575 2939 
Q 2822 3125 2822 3475 
Q 2822 3834 2567 4026 
Q 2313 4219 1838 4219 
Q 1578 4219 1281 4162 
Q 984 4106 628 3988 
L 628 4550 
Q 988 4650 1302 4700 
Q 1616 4750 1894 4750 
Q 2613 4750 3031 4423 
Q 3450 4097 3450 3541 
Q 3450 3153 3228 2886 
Q 3006 2619 2597 2516 
z
" transform="scale(0.015625)"/>
       </defs>
       <use xlink:href="#DejaVuSans-30"/>
       <use xlink:href="#DejaVuSans-2e" transform="translate(63.623047 0)"/>
       <use xlink:href="#DejaVuSans-33" transform="translate(95.410156 0)"/>
       <use xlink:href="#DejaVuSans-30" transform="translate(159.033203 0)"/>
      </g>
     </g>
    </g>
    <g id="xtick_8">
     <g id="line2d_8">
      <g>
       <use xlink:href="#m6bc7f95b8d" x="380.524506" y="307.584" style="stroke: #000000; stroke-width: 0.8"/>
      </g>
     </g>
     <g id="text_8">
      <!-- 0.35 -->
      <g transform="translate(369.391694 322.182437) scale(0.1 -0.1)">
       <use xlink:href="#DejaVuSans-30"/>
       <use xlink:href="#DejaVuSans-2e" transform="translate(63.623047 0)"/>
       <use xlink:href="#DejaVuSans-33" transform="translate(95.410156 0)"/>
       <use xlink:href="#DejaVuSans-35" transform="translate(159.033203 0)"/>
      </g>
     </g>
    </g>
    <g id="text_9">
     <!-- Strain -->
     <g transform="translate(221.348281 335.860562) scale(0.1 -0.1)">
      <defs>
       <path id="DejaVuSans-53" d="M 3425 4513 
L 3425 3897 
Q 3066 4069 2747 4153 
Q 2428 4238 2131 4238 
Q 1616 4238 1336 4038 
Q 1056 3838 1056 3469 
Q 1056 3159 1242 3001 
Q 1428 2844 1947 2747 
L 2328 2669 
Q 3034 2534 3370 2195 
Q 3706 1856 3706 1288 
Q 3706 609 3251 259 
Q 2797 -91 1919 -91 
Q 1588 -91 1214 -16 
Q 841 59 441 206 
L 441 856 
Q 825 641 1194 531 
Q 1563 422 1919 422 
Q 2459 422 2753 634 
Q 3047 847 3047 1241 
Q 3047 1584 2836 1778 
Q 2625 1972 2144 2069 
L 1759 2144 
Q 1053 2284 737 2584 
Q 422 2884 422 3419 
Q 422 4038 858 4394 
Q 1294 4750 2059 4750 
Q 2388 4750 2728 4690 
Q 3069 4631 3425 4513 
z
" transform="scale(0.015625)"/>
       <path id="DejaVuSans-74" d="M 1172 4494 
L 1172 3500 
L 2356 3500 
L 2356 3053 
L 1172 3053 
L 1172 1153 
Q 1172 725 1289 603 
Q 1406 481 1766 481 
L 2356 481 
L 2356 0 
L 1766 0 
Q 1100 0 847 248 
Q 594 497 594 1153 
L 594 3053 
L 172 3053 
L 172 3500 
L 594 3500 
L 594 4494 
L 1172 4494 
z
" transform="scale(0.015625)"/>
       <path id="DejaVuSans-72" d="M 2631 2963 
Q 2534 3019 2420 3045 
Q 2306 3072 2169 3072 
Q 1681 3072 1420 2755 
Q 1159 2438 1159 1844 
L 1159 0 
L 581 0 
L 581 3500 
L 1159 3500 
L 1159 2956 
Q 1341 3275 1631 3429 
Q 1922 3584 2338 3584 
Q 2397 3584 2469 3576 
Q 2541 3569 2628 3553 
L 2631 2963 
z
" transform="scale(0.015625)"/>
       <path id="DejaVuSans-61" d="M 2194 1759 
Q 1497 1759 1228 1600 
Q 959 1441 959 1056 
Q 959 750 1161 570 
Q 1363 391 1709 391 
Q 2188 391 2477 730 
Q 2766 1069 2766 1631 
L 2766 1759 
L 2194 1759 
z
M 3341 1997 
L 3341 0 
L 2766 0 
L 2766 531 
Q 2569 213 2275 61 
Q 1981 -91 1556 -91 
Q 1019 -91 701 211 
Q 384 513 384 1019 
Q 384 1609 779 1909 
Q 1175 2209 1959 2209 
L 2766 2209 
L 2766 2266 
Q 2766 2663 2505 2880 
Q 2244 3097 1772 3097 
Q 1472 3097 1187 3025 
Q 903 2953 641 2809 
L 641 3341 
Q 956 3463 1253 3523 
Q 1550 3584 1831 3584 
Q 2591 3584 2966 3190 
Q 3341 2797 3341 1997 
z
" transform="scale(0.015625)"/>
       <path id="DejaVuSans-69" d="M 603 3500 
L 1178 3500 
L 1178 0 
L 603 0 
L 603 3500 
z
M 603 4863 
L 1178 4863 
L 1178 4134 
L 603 4134 
L 603 4863 
z
" transform="scale(0.015625)"/>
       <path id="DejaVuSans-6e" d="M 3513 2113 
L 3513 0 
L 2938 0 
L 2938 2094 
Q 2938 2591 2744 2837 
Q 2550 3084 2163 3084 
Q 1697 3084 1428 2787 
Q 1159 2491 1159 1978 
L 1159 0 
L 581 0 
L 581 3500 
L 1159 3500 
L 1159 2956 
Q 1366 3272 1645 3428 
Q 1925 3584 2291 3584 
Q 2894 3584 3203 3211 
Q 3513 2838 3513 2113 
z
" transform="scale(0.015625)"/>
      </defs>
      <use xlink:href="#DejaVuSans-53"/>
      <use xlink:href="#DejaVuSans-74" transform="translate(63.476562 0)"/>
      <use xlink:href="#DejaVuSans-72" transform="translate(102.685547 0)"/>
      <use xlink:href="#DejaVuSans-61" transform="translate(143.798828 0)"/>
      <use xlink:href="#DejaVuSans-69" transform="translate(205.078125 0)"/>
      <use xlink:href="#DejaVuSans-6e" transform="translate(232.861328 0)"/>
     </g>
    </g>
   </g>
   <g id="matplotlib.axis_2">
    <g id="ytick_1">
     <g id="line2d_9">
      <defs>
       <path id="m606472fc6e" d="M 0 0 
L -3.5 0 
" style="stroke: #000000; stroke-width: 0.8"/>
      </defs>
      <g>
       <use xlink:href="#m606472fc6e" x="57.6" y="278.606422" style="stroke: #000000; stroke-width: 0.8"/>
      </g>
     </g>
     <g id="text_10">
      <!-- 0 -->
      <g transform="translate(44.2375 282.40564) scale(0.1 -0.1)">
       <use xlink:href="#DejaVuSans-30"/>
      </g>
     </g>
    </g>
    <g id="ytick_2">
     <g id="line2d_10">
      <g>
       <use xlink:href="#m606472fc6e" x="57.6" y="237.338237" style="stroke: #000000; stroke-width: 0.8"/>
      </g>
     </g>
     <g id="text_11">
      <!-- 500 -->
      <g transform="translate(31.5125 241.137456) scale(0.1 -0.1)">
       <use xlink:href="#DejaVuSans-35"/>
       <use xlink:href="#DejaVuSans-30" transform="translate(63.623047 0)"/>
       <use xlink:href="#DejaVuSans-30" transform="translate(127.246094 0)"/>
      </g>
     </g>
    </g>
    <g id="ytick_3">
     <g id="line2d_11">
      <g>
       <use xlink:href="#m606472fc6e" x="57.6" y="196.070052" style="stroke: #000000; stroke-width: 0.8"/>
      </g>
     </g>
     <g id="text_12">
      <!-- 1000 -->
      <g transform="translate(25.15 199.869271) scale(0.1 -0.1)">
       <use xlink:href="#DejaVuSans-31"/>
       <use xlink:href="#DejaVuSans-30" transform="translate(63.623047 0)"/>
       <use xlink:href="#DejaVuSans-30" transform="translate(127.246094 0)"/>
       <use xlink:href="#DejaVuSans-30" transform="translate(190.869141 0)"/>
      </g>
     </g>
    </g>
    <g id="ytick_4">
     <g id="line2d_12">
      <g>
       <use xlink:href="#m606472fc6e" x="57.6" y="154.801868" style="stroke: #000000; stroke-width: 0.8"/>
      </g>
     </g>
     <g id="text_13">
      <!-- 1500 -->
      <g transform="translate(25.15 158.601086) scale(0.1 -0.1)">
       <use xlink:href="#DejaVuSans-31"/>
       <use xlink:href="#DejaVuSans-35" transform="translate(63.623047 0)"/>
       <use xlink:href="#DejaVuSans-30" transform="translate(127.246094 0)"/>
       <use xlink:href="#DejaVuSans-30" transform="translate(190.869141 0)"/>
      </g>
     </g>
    </g>
    <g id="ytick_5">
     <g id="line2d_13">
      <g>
       <use xlink:href="#m606472fc6e" x="57.6" y="113.533683" style="stroke: #000000; stroke-width: 0.8"/>
      </g>
     </g>
     <g id="text_14">
      <!-- 2000 -->
      <g transform="translate(25.15 117.332902) scale(0.1 -0.1)">
       <use xlink:href="#DejaVuSans-32"/>
       <use xlink:href="#DejaVuSans-30" transform="translate(63.623047 0)"/>
       <use xlink:href="#DejaVuSans-30" transform="translate(127.246094 0)"/>
       <use xlink:href="#DejaVuSans-30" transform="translate(190.869141 0)"/>
      </g>
     </g>
    </g>
    <g id="ytick_6">
     <g id="line2d_14">
      <g>
       <use xlink:href="#m606472fc6e" x="57.6" y="72.265498" style="stroke: #000000; stroke-width: 0.8"/>
      </g>
     </g>
     <g id="text_15">
      <!-- 2500 -->
      <g transform="translate(25.15 76.064717) scale(0.1 -0.1)">
       <use xlink:href="#DejaVuSans-32"/>
       <use xlink:href="#DejaVuSans-35" transform="translate(63.623047 0)"/>
       <use xlink:href="#DejaVuSans-30" transform="translate(127.246094 0)"/>
       <use xlink:href="#DejaVuSans-30" transform="translate(190.869141 0)"/>
      </g>
     </g>
    </g>
    <g id="text_16">
     <!-- Stress [Pa] -->
     <g transform="translate(19.070312 201.235813) rotate(-90) scale(0.1 -0.1)">
      <defs>
       <path id="DejaVuSans-65" d="M 3597 1894 
L 3597 1613 
L 953 1613 
Q 991 1019 1311 708 
Q 1631 397 2203 397 
Q 2534 397 2845 478 
Q 3156 559 3463 722 
L 3463 178 
Q 3153 47 2828 -22 
Q 2503 -91 2169 -91 
Q 1331 -91 842 396 
Q 353 884 353 1716 
Q 353 2575 817 3079 
Q 1281 3584 2069 3584 
Q 2775 3584 3186 3129 
Q 3597 2675 3597 1894 
z
M 3022 2063 
Q 3016 2534 2758 2815 
Q 2500 3097 2075 3097 
Q 1594 3097 1305 2825 
Q 1016 2553 972 2059 
L 3022 2063 
z
" transform="scale(0.015625)"/>
       <path id="DejaVuSans-73" d="M 2834 3397 
L 2834 2853 
Q 2591 2978 2328 3040 
Q 2066 3103 1784 3103 
Q 1356 3103 1142 2972 
Q 928 2841 928 2578 
Q 928 2378 1081 2264 
Q 1234 2150 1697 2047 
L 1894 2003 
Q 2506 1872 2764 1633 
Q 3022 1394 3022 966 
Q 3022 478 2636 193 
Q 2250 -91 1575 -91 
Q 1294 -91 989 -36 
Q 684 19 347 128 
L 347 722 
Q 666 556 975 473 
Q 1284 391 1588 391 
Q 1994 391 2212 530 
Q 2431 669 2431 922 
Q 2431 1156 2273 1281 
Q 2116 1406 1581 1522 
L 1381 1569 
Q 847 1681 609 1914 
Q 372 2147 372 2553 
Q 372 3047 722 3315 
Q 1072 3584 1716 3584 
Q 2034 3584 2315 3537 
Q 2597 3491 2834 3397 
z
" transform="scale(0.015625)"/>
       <path id="DejaVuSans-20" transform="scale(0.015625)"/>
       <path id="DejaVuSans-5b" d="M 550 4863 
L 1875 4863 
L 1875 4416 
L 1125 4416 
L 1125 -397 
L 1875 -397 
L 1875 -844 
L 550 -844 
L 550 4863 
z
" transform="scale(0.015625)"/>
       <path id="DejaVuSans-50" d="M 1259 4147 
L 1259 2394 
L 2053 2394 
Q 2494 2394 2734 2622 
Q 2975 2850 2975 3272 
Q 2975 3691 2734 3919 
Q 2494 4147 2053 4147 
L 1259 4147 
z
M 628 4666 
L 2053 4666 
Q 2838 4666 3239 4311 
Q 3641 3956 3641 3272 
Q 3641 2581 3239 2228 
Q 2838 1875 2053 1875 
L 1259 1875 
L 1259 0 
L 628 0 
L 628 4666 
z
" transform="scale(0.015625)"/>
       <path id="DejaVuSans-5d" d="M 1947 4863 
L 1947 -844 
L 622 -844 
L 622 -397 
L 1369 -397 
L 1369 4416 
L 622 4416 
L 622 4863 
L 1947 4863 
z
" transform="scale(0.015625)"/>
      </defs>
      <use xlink:href="#DejaVuSans-53"/>
      <use xlink:href="#DejaVuSans-74" transform="translate(63.476562 0)"/>
      <use xlink:href="#DejaVuSans-72" transform="translate(102.685547 0)"/>
      <use xlink:href="#DejaVuSans-65" transform="translate(141.548828 0)"/>
      <use xlink:href="#DejaVuSans-73" transform="translate(203.072266 0)"/>
      <use xlink:href="#DejaVuSans-73" transform="translate(255.171875 0)"/>
      <use xlink:href="#DejaVuSans-20" transform="translate(307.271484 0)"/>
      <use xlink:href="#DejaVuSans-5b" transform="translate(339.058594 0)"/>
      <use xlink:href="#DejaVuSans-50" transform="translate(378.072266 0)"/>
      <use xlink:href="#DejaVuSans-61" transform="translate(433.875 0)"/>
      <use xlink:href="#DejaVuSans-5d" transform="translate(495.154297 0)"/>
     </g>
    </g>
   </g>
   <g id="line2d_15">
    <path d="M 73.904928 279.283793 
L 73.904928 279.368716 
L 73.905316 279.224588 
L 73.908656 279.320827 
L 74.235503 279.268724 
L 74.568082 278.678605 
L 75.230581 278.043343 
L 76.244001 278.998675 
L 76.57918 279.126556 
L 76.911883 279.434432 
L 77.257954 279.558201 
L 77.584593 280.056977 
L 77.917296 279.928745 
L 78.252847 279.57148 
L 78.929765 279.264866 
L 79.255042 279.151637 
L 79.921687 278.385313 
L 80.26949 278.670169 
L 80.609744 279.216008 
L 81.278493 279.666198 
L 81.603646 279.825909 
L 81.938949 280.122681 
L 82.267136 280.104752 
L 82.594145 279.083607 
L 82.92623 278.891786 
L 83.260914 278.874588 
L 84.266327 279.407008 
L 84.936438 279.647078 
L 86.58158 278.820852 
L 86.917997 278.86832 
L 87.92997 279.462165 
L 88.606022 279.623531 
L 89.258866 278.993226 
L 89.592002 278.969307 
L 90.6015 279.238873 
L 91.94036 278.882915 
L 92.930672 278.828769 
L 93.591935 278.70779 
L 94.260993 278.505676 
L 94.939768 278.338304 
L 95.919189 278.014362 
L 101.257917 276.315838 
L 102.948537 275.632495 
L 108.282688 273.386699 
L 109.609541 272.791942 
L 110.261008 272.558544 
L 114.282909 270.549669 
L 115.281886 270.169152 
L 116.284019 269.597937 
L 117.273218 269.268072 
L 120.297047 267.594442 
L 123.294597 266.312978 
L 123.965326 266.027751 
L 124.639026 265.53615 
L 125.304185 265.335624 
L 126.310395 264.935331 
L 127.640157 264.194342 
L 128.628861 263.748162 
L 129.643805 263.139985 
L 130.963108 262.672748 
L 133.621642 261.234928 
L 135.272009 260.492411 
L 136.941468 259.556835 
L 137.617148 259.267038 
L 138.953041 258.55802 
L 139.608546 258.34436 
L 141.276272 257.29403 
L 141.935614 257.067698 
L 143.602992 256.328165 
L 144.595285 255.836805 
L 145.262796 255.448171 
L 146.258927 254.977997 
L 147.258151 254.480624 
L 148.591998 253.912295 
L 149.252578 253.487642 
L 151.222636 252.541106 
L 152.543796 251.892321 
L 153.548095 251.325535 
L 154.541131 250.816917 
L 155.532744 250.347225 
L 156.527451 249.748008 
L 158.187255 249.049743 
L 159.858161 248.177468 
L 162.196121 246.96338 
L 176.752836 239.334503 
L 177.4201 238.898605 
L 179.081885 238.174854 
L 179.760288 237.734727 
L 180.439434 237.391833 
L 186.778687 233.910872 
L 187.793878 233.381519 
L 190.113272 232.110065 
L 191.116365 231.590172 
L 198.457008 227.496535 
L 199.116598 227.009224 
L 200.784045 226.190474 
L 201.785745 225.575502 
L 202.449172 225.290135 
L 206.803652 222.690281 
L 212.445425 219.402134 
L 213.45715 218.66307 
L 215.464434 217.591485 
L 217.127766 216.502531 
L 219.10047 215.366124 
L 219.761669 214.928963 
L 220.416679 214.586831 
L 222.076855 213.586152 
L 222.748698 213.291464 
L 224.411272 212.166577 
L 227.054087 210.599472 
L 227.726487 210.210558 
L 230.076948 208.665301 
L 237.085383 204.28527 
L 237.764034 203.731893 
L 238.756698 203.143961 
L 240.086863 202.173934 
L 241.425351 201.47131 
L 243.427637 200.131686 
L 244.41238 199.532629 
L 247.038733 197.748708 
L 247.69003 197.377132 
L 249.372191 196.222699 
L 250.378904 195.49065 
L 251.374415 194.778846 
L 252.354207 194.208147 
L 254.714818 192.555835 
L 256.699683 191.212192 
L 257.365461 190.693211 
L 258.688849 189.953546 
L 260.680429 188.565054 
L 262.007777 187.568323 
L 262.672813 187.010658 
L 265.332523 185.157334 
L 266.326672 184.564952 
L 267.318037 183.711236 
L 274.924902 178.333787 
L 276.237769 177.281554 
L 277.895222 176.022788 
L 279.221147 175.049008 
L 280.214307 174.284167 
L 291.845687 165.237563 
L 292.520624 164.74015 
L 293.848592 163.479379 
L 297.476784 160.430649 
L 298.138539 159.837505 
L 299.455491 158.916 
L 302.160192 156.620394 
L 302.831107 155.986721 
L 304.475069 154.61178 
L 306.807057 152.506392 
L 307.824105 151.574704 
L 309.516462 150.03035 
L 310.835146 149.050517 
L 312.145043 147.870162 
L 313.144143 146.935067 
L 314.135694 146.028274 
L 315.136837 145.130541 
L 317.472755 142.895148 
L 318.483986 141.925016 
L 319.809106 140.619627 
L 323.115951 137.555442 
L 324.433398 136.252539 
L 326.079587 134.648333 
L 329.403729 131.446115 
L 335.00003 125.837869 
L 344.620212 115.955098 
L 345.950377 114.562497 
L 356.884787 102.742518 
L 358.882865 100.56822 
L 360.215783 99.13082 
L 367.176503 91.272429 
L 368.515177 89.663773 
L 370.482559 87.499897 
L 372.80678 84.672483 
L 377.47249 79.143291 
L 378.127097 78.410801 
L 379.773163 76.359011 
L 384.44438 70.594662 
L 385.452454 69.318658 
L 386.431566 68.121166 
L 387.097344 67.2175 
L 388.750527 65.264567 
L 389.751484 63.841921 
L 397.057099 54.571004 
L 398.053415 53.698848 
L 398.293041 53.568 
L 398.487273 55.074571 
L 398.368481 67.755682 
L 398.368914 85.867249 
L 398.043451 86.04049 
L 397.712914 86.574584 
L 397.046145 88.085104 
L 396.702055 88.275041 
L 396.376778 88.599514 
L 395.344134 89.987846 
L 394.680831 90.712799 
L 394.017776 92.575292 
L 393.358557 94.156207 
L 393.021522 95.095231 
L 392.693769 95.531229 
L 392.350916 95.74097 
L 391.674369 96.713508 
L 390.675949 98.3026 
L 390.345845 99.604983 
L 389.669546 100.907686 
L 388.688516 102.173428 
L 387.701731 103.797557 
L 385.044899 108.62645 
L 384.386052 109.325988 
L 383.387508 110.582991 
L 383.050906 111.689903 
L 382.71684 112.28898 
L 381.708952 113.457308 
L 381.377857 113.931871 
L 380.719072 115.239866 
L 379.717124 116.395446 
L 378.722975 118.217771 
L 378.056454 118.937914 
L 377.727835 119.335107 
L 376.387799 121.532957 
L 375.719793 122.270258 
L 374.735483 123.951874 
L 373.732855 125.052132 
L 372.741737 126.824186 
L 371.746226 127.880588 
L 371.407705 128.368781 
L 371.080014 129.245268 
L 370.0949 130.274169 
L 369.435805 131.003051 
L 369.104247 131.908311 
L 368.771729 132.424084 
L 368.101618 132.903738 
L 367.444257 133.52791 
L 366.781882 134.926344 
L 365.450759 136.16651 
L 364.794263 137.532632 
L 363.130869 139.176926 
L 362.800332 140.062071 
L 362.462615 140.438819 
L 361.795228 140.86664 
L 361.129883 141.332163 
L 360.795137 142.236681 
L 360.455193 142.789336 
L 360.122118 142.926778 
L 359.455721 143.571795 
L 359.119799 143.729853 
L 358.783692 144.33374 
L 358.457857 145.223375 
L 356.796939 146.52664 
L 356.464731 147.400881 
L 356.135864 147.871996 
L 354.808206 148.691878 
L 354.140942 150.176822 
L 353.807249 150.462751 
L 353.469223 150.58059 
L 352.47464 151.363971 
L 352.144969 152.316625 
L 351.8088 152.699968 
L 351.467184 152.776686 
L 350.476748 153.371774 
L 349.8192 154.895523 
L 348.473038 155.750482 
L 348.142067 156.198788 
L 347.803175 157.121455 
L 347.467316 157.4238 
L 346.801908 157.776976 
L 346.145722 158.129711 
L 345.810048 158.990483 
L 345.473879 159.475469 
L 344.806708 159.812009 
L 344.139445 160.190621 
L 343.804266 160.741111 
L 343.476389 161.572779 
L 341.810953 162.394996 
L 341.472742 163.378918 
L 341.142699 163.759194 
L 340.46999 164.043339 
L 340.137534 164.283867 
L 339.812937 164.333456 
L 339.155823 165.73173 
L 337.479618 166.675103 
L 337.146296 167.558324 
L 336.820153 167.987107 
L 336.160006 168.242648 
L 335.824579 168.478366 
L 335.493485 168.569487 
L 335.158677 169.082855 
L 334.82882 169.929275 
L 333.487052 170.614992 
L 333.150883 170.764982 
L 332.824492 171.684443 
L 332.484919 172.066883 
L 331.826691 172.280082 
L 331.490645 172.475952 
L 331.158746 172.502771 
L 330.168495 174.081682 
L 329.163453 174.519524 
L 328.837805 174.682492 
L 328.501419 175.54164 
L 328.176452 175.909008 
L 326.854735 176.399716 
L 326.196878 177.676923 
L 325.526458 177.896446 
L 324.517393 178.494861 
L 324.179677 179.392674 
L 323.512228 179.766937 
L 322.517645 180.260612 
L 322.182651 180.986046 
L 321.844378 181.405168 
L 321.172658 181.657903 
L 320.520433 181.961741 
L 319.845341 183.182454 
L 318.84426 183.622591 
L 318.509328 183.699971 
L 318.177306 183.968431 
L 317.847511 184.669332 
L 316.520905 185.432589 
L 316.184859 185.569049 
L 315.852837 186.308675 
L 315.513635 186.70671 
L 314.841792 186.870489 
L 314.189133 187.208553 
L 313.520384 188.354431 
L 312.184279 188.84973 
L 311.852627 189.141932 
L 311.518872 189.895829 
L 310.196907 190.423659 
L 309.863152 190.515561 
L 309.533048 191.273547 
L 309.193413 191.651077 
L 307.869777 192.070729 
L 307.201276 193.21789 
L 305.863159 193.609561 
L 305.535778 193.954219 
L 305.207778 194.7579 
L 304.539524 195.073934 
L 303.540361 195.298919 
L 303.206729 196.089296 
L 302.536186 196.549949 
L 301.553918 196.849873 
L 300.89241 197.784808 
L 299.562834 198.346592 
L 298.899036 199.427528 
L 298.236351 199.564499 
L 297.906495 199.753474 
L 297.57243 199.816748 
L 297.237003 200.099535 
L 296.897183 200.78424 
L 296.243534 201.030661 
L 295.249369 201.490417 
L 294.924772 202.020622 
L 294.254724 202.374761 
L 293.255809 202.828317 
L 292.91834 203.414245 
L 291.243311 204.184057 
L 290.916734 204.918311 
L 289.255507 205.408669 
L 288.925836 206.168659 
L 288.598702 206.509689 
L 287.279368 206.846293 
L 286.615755 207.829134 
L 285.296328 208.11395 
L 284.968328 208.529864 
L 284.642432 209.147221 
L 283.984204 209.373277 
L 283.321396 209.53617 
L 282.984918 209.715935 
L 282.650605 210.392462 
L 281.985445 210.682239 
L 280.980094 210.83735 
L 280.307694 211.851499 
L 279.320351 212.233363 
L 278.987277 212.286901 
L 277.985638 213.065713 
L 276.977007 213.434403 
L 275.96522 214.394694 
L 274.631992 214.901668 
L 274.307148 215.420328 
L 272.967051 216.064734 
L 272.627602 216.130183 
L 271.968012 216.844072 
L 271.307308 217.116386 
L 265.969879 220.322181 
L 264.961062 220.859021 
L 263.954102 221.602034 
L 263.286281 221.873641 
L 260.283285 223.654375 
L 259.295696 224.057932 
L 258.621129 224.601407 
L 257.620048 224.96482 
L 256.620019 225.713496 
L 255.622218 226.016041 
L 254.628161 226.949763 
L 253.641066 226.947959 
L 253.308177 227.181843 
L 252.973183 227.801044 
L 252.303011 228.032032 
L 251.640327 228.158064 
L 251.306448 228.264302 
L 250.97065 228.801202 
L 249.962637 229.188037 
L 249.6308 229.220464 
L 249.302491 229.470348 
L 248.974862 229.895282 
L 247.639468 230.331581 
L 247.311344 230.579546 
L 246.98353 230.997424 
L 245.644546 231.380696 
L 244.988732 232.023509 
L 244.320602 232.098725 
L 243.650182 232.293137 
L 242.992882 233.005192 
L 241.983879 233.196477 
L 241.644121 233.255392 
L 240.973206 234.062486 
L 239.637874 234.441143 
L 239.313092 234.84034 
L 238.640382 235.187117 
L 237.968415 235.309321 
L 237.635588 235.455693 
L 237.302946 235.901553 
L 236.967272 236.152123 
L 235.620986 236.444316 
L 235.290572 236.857787 
L 234.303663 237.260592 
L 233.646549 237.526309 
L 233.316445 237.909791 
L 232.644106 238.057509 
L 231.637888 238.485179 
L 231.303143 238.901574 
L 229.971818 239.290376 
L 229.316437 239.852065 
L 228.982619 239.861213 
L 227.979062 240.225634 
L 227.304001 240.982633 
L 225.973063 241.132555 
L 225.298992 241.911294 
L 223.964712 242.06673 
L 222.967035 242.916087 
L 222.29188 243.043287 
L 221.96388 243.049548 
L 221.627464 243.265026 
L 221.293151 243.869956 
L 220.620194 243.915684 
L 219.954415 244.069414 
L 219.622021 244.140115 
L 219.283253 244.827245 
L 218.61339 244.772921 
L 217.604573 245.107115 
L 217.26729 245.644576 
L 215.943778 245.732049 
L 215.272739 246.498964 
L 214.604192 246.514914 
L 213.942745 246.557836 
L 213.614559 246.855814 
L 213.277895 247.525205 
L 212.291667 247.666776 
L 211.624156 247.732523 
L 211.288977 248.411936 
L 209.613515 248.745514 
L 209.278583 249.239119 
L 207.950368 249.484611 
L 207.625029 249.743781 
L 207.298638 250.156528 
L 205.975049 250.257978 
L 205.31447 251.09479 
L 204.323043 251.224217 
L 203.992938 251.201006 
L 203.328576 252.011335 
L 202.336282 252.107564 
L 202.004074 252.010951 
L 201.676136 252.253499 
L 201.337058 252.895019 
L 200.34526 252.924895 
L 199.67812 252.992661 
L 199.338671 253.859527 
L 197.681829 253.755774 
L 197.345412 254.621997 
L 196.005129 254.736735 
L 195.670755 254.590092 
L 195.338237 255.325469 
L 194.665465 255.523664 
L 193.65931 255.590018 
L 193.324935 256.270874 
L 192.649874 256.383196 
L 191.647926 256.414693 
L 191.311262 257.128221 
L 189.649461 257.181718 
L 189.320471 258.020762 
L 188.328735 258.069082 
L 188.002096 258.094294 
L 187.677376 257.931053 
L 187.345477 258.621971 
L 187.006214 258.799131 
L 185.664817 258.859551 
L 185.325429 259.544577 
L 184.985238 259.625384 
L 184.324782 259.547749 
L 183.655352 259.596875 
L 183.327599 260.297134 
L 183.00127 260.528503 
L 182.001403 260.479645 
L 181.662759 260.421197 
L 181.326775 261.041761 
L 181.000632 261.314019 
L 180.337329 261.365858 
L 179.670065 261.249811 
L 179.331792 261.571881 
L 178.998531 262.160936 
L 177.334395 262.221037 
L 176.997173 262.798145 
L 176.327929 262.941479 
L 175.667844 263.004294 
L 175.338916 263.16177 
L 175.005903 263.614806 
L 173.986364 263.709905 
L 173.656136 263.709597 
L 173.317615 263.908899 
L 172.985592 264.448164 
L 172.652518 264.508658 
L 171.980798 264.469952 
L 171.314896 264.564424 
L 170.986401 265.041232 
L 170.655616 265.301912 
L 169.333899 265.326497 
L 168.6714 266.160971 
L 167.335264 266.080802 
L 166.99829 266.26915 
L 166.664163 266.855799 
L 166.329356 266.987399 
L 165.001489 266.952152 
L 164.32717 267.708645 
L 163.331164 267.722344 
L 163.005763 267.737523 
L 162.34444 268.594246 
L 162.007281 268.695037 
L 161.325412 268.620862 
L 161.00063 268.560464 
L 160.661861 268.645311 
L 160.323774 269.257055 
L 159.996826 269.495765 
L 159.325601 269.280752 
L 158.664031 269.161353 
L 158.333432 269.589515 
L 158.003018 270.211241 
L 157.673834 270.260774 
L 157.339769 270.172783 
L 156.33677 270.288619 
L 156.005304 270.847928 
L 155.670496 270.933143 
L 154.673252 270.858251 
L 154.346613 270.907414 
L 154.013538 271.452051 
L 153.68888 271.685484 
L 152.349835 271.777362 
L 151.688884 272.446472 
L 150.364135 272.570518 
L 150.026047 272.76748 
L 149.692299 273.172698 
L 148.025501 273.490432 
L 147.687909 273.843047 
L 147.011176 273.921284 
L 146.346017 274.005702 
L 146.019502 274.134565 
L 145.685375 274.483331 
L 145.352115 274.654888 
L 144.683366 274.68141 
L 144.023343 274.968977 
L 143.355708 275.316333 
L 142.355741 275.429771 
L 142.026317 275.658554 
L 141.688446 276.042312 
L 141.360755 276.16066 
L 140.705374 276.09202 
L 140.03842 276.267002 
L 139.37883 276.906728 
L 138.032424 276.867136 
L 137.697802 277.113077 
L 137.367698 277.50578 
L 136.692017 277.613197 
L 136.024259 277.636149 
L 135.693288 277.789526 
L 135.024725 278.288042 
L 133.364889 278.717561 
L 133.029277 278.912089 
L 131.712326 279.143185 
L 130.046085 279.863821 
L 126.387274 281.177025 
L 125.391287 281.363176 
L 122.724399 282.455376 
L 121.714529 282.501149 
L 121.381578 282.627347 
L 120.720998 283.258895 
L 119.402314 283.304283 
L 118.737959 283.943447 
L 117.399347 284.02752 
L 117.072917 284.24409 
L 116.737243 284.651465 
L 116.085637 284.658547 
L 115.427038 284.635269 
L 115.097057 284.750623 
L 114.764725 285.132702 
L 114.430165 285.325476 
L 113.752752 285.263616 
L 113.093471 285.428771 
L 112.760273 285.862444 
L 112.422371 286.061138 
L 112.096103 285.94814 
L 111.10251 285.970996 
L 110.437846 286.654921 
L 109.771573 286.535453 
L 109.09281 286.607214 
L 108.423813 287.361232 
L 106.770754 287.434362 
L 106.432357 287.812233 
L 104.777873 287.97364 
L 104.441456 288.42439 
L 103.787622 288.481947 
L 102.805292 288.561577 
L 102.466338 288.990921 
L 102.13611 289.168085 
L 101.127231 289.22625 
L 100.788457 289.282222 
L 100.119646 289.73461 
L 99.44706 289.718403 
L 98.788213 289.804753 
L 98.137102 290.376893 
L 97.465259 290.25655 
L 96.805669 290.379114 
L 96.150783 290.923869 
L 95.148093 290.768818 
L 94.813532 290.836592 
L 94.155366 291.521765 
L 93.487484 291.370054 
L 92.822196 291.289985 
L 92.495434 291.439654 
L 92.160069 292.017163 
L 90.520192 291.917361 
L 90.19213 292.395372 
L 89.855527 292.662499 
L 89.189501 292.465845 
L 88.518462 292.420796 
L 88.180189 292.716856 
L 87.848971 293.223052 
L 87.184059 292.968242 
L 86.181987 292.877341 
L 85.843095 293.628913 
L 85.517632 293.649117 
L 85.178864 293.465193 
L 84.510158 293.362764 
L 84.170957 293.2197 
L 83.504683 294.212105 
L 82.835687 293.979583 
L 81.831821 293.771008 
L 81.494228 294.446091 
L 81.154593 294.619137 
L 80.823746 294.392078 
L 80.161434 294.338862 
L 79.83399 294.239802 
L 79.49943 294.396603 
L 79.174215 295.076417 
L 77.51243 294.625192 
L 77.177128 295.226565 
L 76.850303 295.488 
L 76.18161 295.142424 
L 75.84148 295.13363 
L 75.166542 294.979413 
L 74.835696 295.438262 
L 74.505963 295.366594 
L 73.870818 294.930321 
L 73.83294 291.61309 
L 73.83294 291.61309 
" clip-path="url(#pa21e840788)" style="fill: none; stroke: #ff0000; stroke-width: 1.5; stroke-linecap: square"/>
   </g>
   <g id="line2d_16">
    <path d="M 73.904928 279.283793 
L 73.904928 279.368716 
L 73.905316 279.224588 
L 73.908656 279.320827 
L 74.235503 279.268724 
L 74.568082 278.678605 
L 75.230581 278.043343 
L 75.568235 279.911058 
L 76.57918 279.635775 
L 77.257954 279.559543 
L 77.584593 280.056977 
L 77.917296 279.928745 
L 78.252847 279.57148 
L 78.929765 279.264866 
L 79.255042 279.151637 
L 79.921687 278.385313 
L 80.26949 278.670169 
L 80.609744 279.216008 
L 81.278493 279.666198 
L 81.603646 279.825909 
L 81.938949 280.122681 
L 82.267136 280.104752 
L 82.594145 279.083607 
L 82.92623 278.891786 
L 83.260914 278.874588 
L 84.266327 279.407008 
L 84.936438 279.647078 
L 86.58158 278.820852 
L 86.917997 278.86832 
L 87.92997 279.462165 
L 88.606022 279.623531 
L 89.258866 278.993226 
L 89.592002 278.969307 
L 90.6015 279.238873 
L 91.94036 278.882915 
L 92.930672 278.828769 
L 93.591935 278.70779 
L 94.260993 278.505676 
L 94.939768 278.338304 
L 95.919189 278.014362 
L 101.257917 276.315838 
L 102.948537 275.632495 
L 108.282688 273.386699 
L 109.609541 272.791942 
L 110.261008 272.558544 
L 114.282909 270.549669 
L 115.281886 270.169152 
L 116.284019 269.597937 
L 117.273218 269.268072 
L 120.297047 267.594442 
L 123.294597 266.312978 
L 123.965326 266.027751 
L 124.639026 265.53615 
L 125.304185 265.335624 
L 126.310395 264.935331 
L 127.640157 264.194342 
L 128.628861 263.748162 
L 129.643805 263.139985 
L 130.963108 262.672748 
L 133.621642 261.234928 
L 135.272009 260.492411 
L 136.941468 259.556835 
L 137.617148 259.267038 
L 138.953041 258.55802 
L 139.608546 258.34436 
L 141.276272 257.29403 
L 141.935614 257.067698 
L 143.602992 256.328165 
L 144.595285 255.836805 
L 145.262796 255.448171 
L 146.258927 254.977997 
L 147.258151 254.480624 
L 148.591998 253.912295 
L 149.252578 253.487642 
L 151.222636 252.541106 
L 152.543796 251.892321 
L 153.548095 251.325535 
L 154.541131 250.816917 
L 155.532744 250.347225 
L 156.527451 249.748008 
L 158.187255 249.049743 
L 159.858161 248.177468 
L 162.196121 246.96338 
L 176.752836 239.334503 
L 177.4201 238.898605 
L 179.081885 238.174854 
L 179.760288 237.734727 
L 180.439434 237.391833 
L 186.778687 233.910872 
L 187.793878 233.381519 
L 190.113272 232.110065 
L 191.116365 231.590172 
L 198.457008 227.496535 
L 199.116598 227.009224 
L 200.784045 226.190474 
L 201.785745 225.575502 
L 202.449172 225.290135 
L 206.803652 222.690281 
L 212.445425 219.402134 
L 213.45715 218.66307 
L 215.464434 217.591485 
L 217.127766 216.502531 
L 219.10047 215.366124 
L 219.761669 214.928963 
L 220.416679 214.586831 
L 222.076855 213.586152 
L 222.748698 213.291464 
L 224.411272 212.166577 
L 227.054087 210.599472 
L 227.726487 210.210558 
L 230.076948 208.665301 
L 237.085383 204.28527 
L 237.764034 203.731893 
L 238.756698 203.143961 
L 240.086863 202.173934 
L 241.425351 201.47131 
L 243.427637 200.131686 
L 244.41238 199.532629 
L 247.038733 197.748708 
L 247.69003 197.377132 
L 249.372191 196.222699 
L 250.378904 195.49065 
L 251.374415 194.778846 
L 252.354207 194.208147 
L 254.714818 192.555835 
L 256.699683 191.212192 
L 257.365461 190.693211 
L 258.688849 189.953546 
L 260.680429 188.565054 
L 262.007777 187.568323 
L 262.672813 187.010658 
L 265.332523 185.157334 
L 266.326672 184.564952 
L 267.318037 183.711236 
L 274.924902 178.333787 
L 276.237769 177.281554 
L 277.895222 176.022788 
L 279.221147 175.049008 
L 280.214307 174.284167 
L 291.845687 165.237563 
L 292.520624 164.74015 
L 293.848592 163.479379 
L 297.476784 160.430649 
L 298.138539 159.837505 
L 299.455491 158.916 
L 302.160192 156.620394 
L 302.831107 155.986721 
L 304.475069 154.61178 
L 306.807057 152.506392 
L 307.824105 151.574704 
L 309.516462 150.03035 
L 310.835146 149.050517 
L 312.145043 147.870162 
L 313.144143 146.935067 
L 314.135694 146.028274 
L 315.136837 145.130541 
L 317.472755 142.895148 
L 318.483986 141.925016 
L 319.809106 140.619627 
L 323.115951 137.555442 
L 324.433398 136.252539 
L 326.079587 134.648333 
L 329.403729 131.446115 
L 335.00003 125.837869 
L 344.620212 115.955098 
L 345.950377 114.562497 
L 356.884787 102.742518 
L 358.882865 100.56822 
L 360.215783 99.13082 
L 367.176503 91.272429 
L 368.515177 89.663773 
L 370.482559 87.499897 
L 372.80678 84.672483 
L 377.47249 79.143291 
L 378.127097 78.410801 
L 379.773163 76.359011 
L 384.44438 70.594662 
L 385.452454 69.318658 
L 386.431566 68.121166 
L 387.097344 67.2175 
L 388.750527 65.264567 
L 389.751484 63.841921 
L 397.057099 54.571004 
L 398.053415 53.698848 
L 398.293041 53.568 
L 398.487273 55.074571 
L 398.367584 65.349093 
L 398.368914 85.867249 
L 398.043451 86.04049 
L 397.712914 86.601294 
L 397.046145 88.085104 
L 396.702055 88.275041 
L 396.376778 88.599514 
L 395.344134 89.987846 
L 394.680831 90.712799 
L 394.017776 92.575292 
L 393.358557 94.156207 
L 393.021522 95.095231 
L 392.693769 95.531229 
L 392.350916 95.74097 
L 391.674369 96.713508 
L 390.675949 98.3026 
L 390.345845 99.604983 
L 389.669546 100.907686 
L 388.688516 102.173428 
L 387.701731 103.797557 
L 385.044899 108.62645 
L 384.386052 109.325988 
L 383.387508 110.582991 
L 383.050906 111.689903 
L 382.71684 112.28898 
L 381.708952 113.457308 
L 381.377857 113.931871 
L 380.719072 115.239866 
L 379.717124 116.395446 
L 378.722975 118.217771 
L 378.056454 118.937914 
L 377.727835 119.335107 
L 376.387799 121.532957 
L 375.719793 122.270258 
L 374.735483 123.951874 
L 373.732855 125.052132 
L 372.741737 126.824186 
L 371.746226 127.880588 
L 371.407705 128.368781 
L 371.080014 129.245268 
L 370.0949 130.274169 
L 369.435805 131.003051 
L 369.104247 131.908311 
L 368.771729 132.424084 
L 368.101618 132.903738 
L 367.444257 133.52791 
L 366.781882 134.926344 
L 365.450759 136.16651 
L 364.794263 137.532632 
L 363.130869 139.176926 
L 362.800332 140.062071 
L 362.462615 140.438819 
L 361.795228 140.86664 
L 361.129883 141.332163 
L 360.795137 142.236681 
L 360.455193 142.789336 
L 360.122118 142.926778 
L 359.455721 143.571795 
L 359.119799 143.729853 
L 358.783692 144.33374 
L 358.457857 145.223375 
L 356.796939 146.52664 
L 356.464731 147.400881 
L 356.135864 147.871996 
L 354.808206 148.691878 
L 354.140942 150.176822 
L 353.807249 150.462751 
L 353.469223 150.58059 
L 352.47464 151.363971 
L 352.144969 152.316625 
L 351.8088 152.699968 
L 351.467184 152.776686 
L 350.476748 153.371774 
L 349.8192 154.895523 
L 348.473038 155.750482 
L 348.142067 156.198788 
L 347.803175 157.121455 
L 347.467316 157.4238 
L 346.801908 157.776976 
L 346.145722 158.129711 
L 345.810048 158.990483 
L 345.473879 159.475469 
L 344.806708 159.812009 
L 344.139445 160.190621 
L 343.804266 160.741111 
L 343.476389 161.572779 
L 341.810953 162.394996 
L 341.472742 163.378918 
L 341.142699 163.759194 
L 340.46999 164.043339 
L 340.137534 164.283867 
L 339.812937 164.333456 
L 339.155823 165.73173 
L 337.479618 166.675103 
L 337.146296 167.558324 
L 336.820153 167.987107 
L 336.160006 168.242648 
L 335.824579 168.478366 
L 335.493485 168.569487 
L 335.158677 169.082855 
L 334.82882 169.929275 
L 333.487052 170.614992 
L 333.150883 170.764982 
L 332.824492 171.684443 
L 332.484919 172.066883 
L 331.826691 172.280082 
L 331.490645 172.475952 
L 331.158746 172.502771 
L 330.168495 174.081682 
L 329.163453 174.519524 
L 328.837805 174.682492 
L 328.501419 175.54164 
L 328.176452 175.909008 
L 326.854735 176.399716 
L 326.196878 177.676923 
L 325.526458 177.896446 
L 324.517393 178.494861 
L 324.179677 179.392674 
L 323.512228 179.766937 
L 322.517645 180.260612 
L 322.182651 180.986046 
L 321.844378 181.405168 
L 321.172658 181.657903 
L 320.520433 181.961741 
L 319.845341 183.182454 
L 318.84426 183.622591 
L 318.509328 183.699971 
L 318.177306 183.968431 
L 317.847511 184.669332 
L 316.520905 185.432589 
L 316.184859 185.569049 
L 315.852837 186.308675 
L 315.513635 186.70671 
L 314.841792 186.870489 
L 314.189133 187.208553 
L 313.520384 188.354431 
L 312.184279 188.84973 
L 311.852627 189.141932 
L 311.518872 189.895829 
L 310.196907 190.423659 
L 309.863152 190.515561 
L 309.533048 191.273547 
L 309.193413 191.651077 
L 307.869777 192.070729 
L 307.201276 193.21789 
L 305.863159 193.609561 
L 305.535778 193.954219 
L 305.207778 194.7579 
L 304.539524 195.073934 
L 303.540361 195.298919 
L 303.206729 196.089296 
L 302.536186 196.549949 
L 301.553918 196.849873 
L 300.89241 197.784808 
L 299.562834 198.346592 
L 298.899036 199.427528 
L 298.236351 199.564499 
L 297.906495 199.753474 
L 297.57243 199.816748 
L 297.237003 200.099535 
L 296.897183 200.78424 
L 296.243534 201.030661 
L 295.249369 201.490417 
L 294.924772 202.020622 
L 294.254724 202.374761 
L 293.255809 202.828317 
L 292.91834 203.414245 
L 291.243311 204.184057 
L 290.916734 204.918311 
L 289.255507 205.408669 
L 288.925836 206.168659 
L 288.598702 206.509689 
L 287.279368 206.846293 
L 286.615755 207.829134 
L 285.296328 208.11395 
L 284.968328 208.529864 
L 284.642432 209.147221 
L 283.984204 209.373277 
L 283.321396 209.53617 
L 282.984918 209.715935 
L 282.650605 210.392462 
L 281.985445 210.682239 
L 280.980094 210.83735 
L 280.307694 211.851499 
L 279.320351 212.233363 
L 278.987277 212.286901 
L 277.985638 213.065713 
L 276.977007 213.434403 
L 275.96522 214.394694 
L 274.631992 214.901668 
L 274.307148 215.420328 
L 272.967051 216.064734 
L 272.627602 216.130183 
L 271.968012 216.844072 
L 271.307308 217.116386 
L 265.969879 220.322181 
L 264.961062 220.859021 
L 263.954102 221.602034 
L 263.286281 221.873641 
L 260.283285 223.654375 
L 259.295696 224.057932 
L 258.621129 224.601407 
L 257.620048 224.96482 
L 256.620019 225.713496 
L 255.622218 226.016041 
L 254.628161 226.949763 
L 253.641066 226.947959 
L 253.308177 227.181843 
L 252.973183 227.801044 
L 252.303011 228.032032 
L 251.640327 228.158064 
L 251.306448 228.264302 
L 250.97065 228.801202 
L 249.962637 229.188037 
L 249.6308 229.220464 
L 249.302491 229.470348 
L 248.974862 229.895282 
L 247.639468 230.331581 
L 247.311344 230.579546 
L 246.98353 230.997424 
L 245.644546 231.380696 
L 244.988732 232.023509 
L 244.320602 232.098725 
L 243.650182 232.293137 
L 242.992882 233.005192 
L 241.983879 233.196477 
L 241.644121 233.255392 
L 240.973206 234.062486 
L 239.637874 234.441143 
L 239.313092 234.84034 
L 238.640382 235.187117 
L 237.968415 235.309321 
L 237.635588 235.455693 
L 237.302946 235.901553 
L 236.967272 236.152123 
L 235.620986 236.444316 
L 235.290572 236.857787 
L 234.303663 237.260592 
L 233.646549 237.526309 
L 233.316445 237.909791 
L 232.644106 238.057509 
L 231.637888 238.485179 
L 231.303143 238.901574 
L 229.971818 239.290376 
L 229.316437 239.852065 
L 228.982619 239.861213 
L 227.979062 240.225634 
L 227.304001 240.982633 
L 225.973063 241.132555 
L 225.298992 241.911294 
L 223.964712 242.06673 
L 222.967035 242.916087 
L 222.29188 243.043287 
L 221.96388 243.049548 
L 221.627464 243.265026 
L 221.293151 243.869956 
L 220.620194 243.915684 
L 219.954415 244.069414 
L 219.622021 244.140115 
L 219.283253 244.827245 
L 218.61339 244.772921 
L 217.604573 245.107115 
L 217.26729 245.644576 
L 215.943778 245.732049 
L 215.272739 246.498964 
L 214.604192 246.514914 
L 213.942745 246.557836 
L 213.614559 246.855814 
L 213.277895 247.525205 
L 212.291667 247.666776 
L 211.624156 247.732523 
L 211.288977 248.411936 
L 209.613515 248.745514 
L 209.278583 249.239119 
L 207.950368 249.484611 
L 207.625029 249.743781 
L 207.298638 250.156528 
L 205.975049 250.257978 
L 205.31447 251.09479 
L 204.323043 251.224217 
L 203.992938 251.201006 
L 203.328576 252.011335 
L 202.336282 252.107564 
L 202.004074 252.010951 
L 201.676136 252.253499 
L 201.337058 252.895019 
L 200.34526 252.924895 
L 199.67812 252.992661 
L 199.338671 253.859527 
L 197.681829 253.755774 
L 197.345412 254.621997 
L 196.005129 254.736735 
L 195.670755 254.590092 
L 195.338237 255.325469 
L 194.665465 255.523664 
L 193.65931 255.590018 
L 193.324935 256.270874 
L 192.649874 256.383196 
L 191.647926 256.414693 
L 191.311262 257.128221 
L 189.649461 257.181718 
L 189.320471 258.020762 
L 188.328735 258.069082 
L 188.002096 258.094294 
L 187.677376 257.931053 
L 187.345477 258.621971 
L 187.006214 258.799131 
L 185.664817 258.859551 
L 185.325429 259.544577 
L 184.985238 259.625384 
L 184.324782 259.547749 
L 183.655352 259.596875 
L 183.327599 260.297134 
L 183.00127 260.528503 
L 182.001403 260.479645 
L 181.662759 260.421197 
L 181.326775 261.041761 
L 181.000632 261.314019 
L 180.337329 261.365858 
L 179.670065 261.249811 
L 179.331792 261.571881 
L 178.998531 262.160936 
L 177.334395 262.221037 
L 176.997173 262.798145 
L 176.327929 262.941479 
L 175.667844 263.004294 
L 175.338916 263.16177 
L 175.005903 263.614806 
L 173.986364 263.709905 
L 173.656136 263.709597 
L 173.317615 263.908899 
L 172.985592 264.448164 
L 172.652518 264.508658 
L 171.980798 264.469952 
L 171.314896 264.564424 
L 170.986401 265.041232 
L 170.655616 265.301912 
L 169.333899 265.326497 
L 168.6714 266.160971 
L 167.335264 266.080802 
L 166.99829 266.26915 
L 166.664163 266.855799 
L 166.329356 266.987399 
L 165.001489 266.952152 
L 164.32717 267.708645 
L 163.331164 267.722344 
L 163.005763 267.737523 
L 162.34444 268.594246 
L 162.007281 268.695037 
L 161.325412 268.620862 
L 161.00063 268.560464 
L 160.661861 268.645311 
L 160.323774 269.257055 
L 159.996826 269.495765 
L 159.325601 269.280752 
L 158.664031 269.161353 
L 158.333432 269.589515 
L 158.003018 270.211241 
L 157.673834 270.260774 
L 157.339769 270.172783 
L 156.33677 270.288619 
L 156.005304 270.847928 
L 155.670496 270.933143 
L 154.673252 270.858251 
L 154.346613 270.907414 
L 154.013538 271.452051 
L 153.68888 271.685484 
L 152.349835 271.777362 
L 151.688884 272.446472 
L 150.364135 272.570518 
L 150.026047 272.76748 
L 149.692299 273.172698 
L 148.025501 273.490432 
L 147.687909 273.843047 
L 147.011176 273.921284 
L 146.346017 274.005702 
L 146.019502 274.134565 
L 145.685375 274.483331 
L 145.352115 274.654888 
L 144.683366 274.68141 
L 144.023343 274.968977 
L 143.355708 275.316333 
L 142.355741 275.429771 
L 142.026317 275.658554 
L 141.688446 276.042312 
L 141.360755 276.16066 
L 140.705374 276.09202 
L 140.03842 276.267002 
L 139.37883 276.906728 
L 138.032424 276.867136 
L 137.697802 277.113077 
L 137.367698 277.50578 
L 136.692017 277.613197 
L 136.024259 277.636149 
L 135.693288 277.789526 
L 135.024725 278.288042 
L 133.364889 278.717561 
L 133.029277 278.912089 
L 131.712326 279.143185 
L 130.046085 279.863821 
L 126.387274 281.177025 
L 125.391287 281.363176 
L 122.724399 282.455376 
L 121.714529 282.501149 
L 121.381578 282.627347 
L 120.720998 283.258895 
L 119.402314 283.304283 
L 118.737959 283.943447 
L 117.399347 284.02752 
L 117.072917 284.24409 
L 116.737243 284.651465 
L 116.085637 284.658547 
L 115.427038 284.635269 
L 115.097057 284.750623 
L 114.764725 285.132702 
L 114.430165 285.325476 
L 113.752752 285.263616 
L 113.093471 285.428771 
L 112.760273 285.862444 
L 112.422371 286.061138 
L 112.096103 285.94814 
L 111.10251 285.970996 
L 110.437846 286.654921 
L 109.771573 286.535453 
L 109.09281 286.607214 
L 108.423813 287.361232 
L 106.770754 287.434362 
L 106.432357 287.812233 
L 104.777873 287.97364 
L 104.441456 288.42439 
L 103.787622 288.481947 
L 102.805292 288.561577 
L 102.466338 288.990921 
L 102.13611 289.168085 
L 101.127231 289.22625 
L 100.788457 289.282222 
L 100.119646 289.73461 
L 99.44706 289.718403 
L 98.788213 289.804753 
L 98.137102 290.376893 
L 97.465259 290.25655 
L 96.805669 290.379114 
L 96.150783 290.923869 
L 95.148093 290.768818 
L 94.813532 290.836592 
L 94.155366 291.521765 
L 93.487484 291.370054 
L 92.822196 291.289985 
L 92.495434 291.439654 
L 92.160069 292.017163 
L 90.520192 291.917361 
L 90.19213 292.395372 
L 89.855527 292.662499 
L 89.189501 292.465845 
L 88.518462 292.420796 
L 88.180189 292.716856 
L 87.848971 293.223052 
L 87.184059 292.968242 
L 86.181987 292.877341 
L 85.843095 293.628913 
L 85.517632 293.649117 
L 85.178864 293.465193 
L 84.510158 293.362764 
L 84.170957 293.2197 
L 83.504683 294.212105 
L 82.835687 293.979583 
L 81.831821 293.771008 
L 81.494228 294.446091 
L 81.154593 294.619137 
L 80.823746 294.392078 
L 80.161434 294.338862 
L 79.83399 294.239802 
L 79.49943 294.396603 
L 79.174215 295.076417 
L 77.51243 294.625192 
L 77.177128 295.226565 
L 76.850303 295.488 
L 76.18161 295.142424 
L 75.84148 295.13363 
L 75.166542 294.979413 
L 74.835696 295.438262 
L 74.505963 295.366594 
L 73.870818 294.930321 
L 73.83294 291.61309 
L 73.83294 291.61309 
" clip-path="url(#pa21e840788)" style="fill: none; stroke: #000000; stroke-width: 1.5; stroke-linecap: square"/>
   </g>
   <g id="patch_3">
    <path d="M 57.6 307.584 
L 57.6 41.472 
" style="fill: none; stroke: #000000; stroke-width: 0.8; stroke-linejoin: miter; stroke-linecap: square"/>
   </g>
   <g id="patch_4">
    <path d="M 414.72 307.584 
L 414.72 41.472 
" style="fill: none; stroke: #000000; stroke-width: 0.8; stroke-linejoin: miter; stroke-linecap: square"/>
   </g>
   <g id="patch_5">
    <path d="M 57.6 307.584 
L 414.72 307.584 
" style="fill: none; stroke: #000000; stroke-width: 0.8; stroke-linejoin: miter; stroke-linecap: square"/>
   </g>
   <g id="patch_6">
    <path d="M 57.6 41.472 
L 414.72 41.472 
" style="fill: none; stroke: #000000; stroke-width: 0.8; stroke-linejoin: miter; stroke-linecap: square"/>
   </g>
   <g id="text_17">
    <!-- 2025-06-16 trial 21 -->
    <g transform="translate(178.0125 35.472) scale(0.12 -0.12)">
     <defs>
      <path id="DejaVuSans-2d" d="M 313 2009 
L 1997 2009 
L 1997 1497 
L 313 1497 
L 313 2009 
z
" transform="scale(0.015625)"/>
      <path id="DejaVuSans-36" d="M 2113 2584 
Q 1688 2584 1439 2293 
Q 1191 2003 1191 1497 
Q 1191 994 1439 701 
Q 1688 409 2113 409 
Q 2538 409 2786 701 
Q 3034 994 3034 1497 
Q 3034 2003 2786 2293 
Q 2538 2584 2113 2584 
z
M 3366 4563 
L 3366 3988 
Q 3128 4100 2886 4159 
Q 2644 4219 2406 4219 
Q 1781 4219 1451 3797 
Q 1122 3375 1075 2522 
Q 1259 2794 1537 2939 
Q 1816 3084 2150 3084 
Q 2853 3084 3261 2657 
Q 3669 2231 3669 1497 
Q 3669 778 3244 343 
Q 2819 -91 2113 -91 
Q 1303 -91 875 529 
Q 447 1150 447 2328 
Q 447 3434 972 4092 
Q 1497 4750 2381 4750 
Q 2619 4750 2861 4703 
Q 3103 4656 3366 4563 
z
" transform="scale(0.015625)"/>
      <path id="DejaVuSans-6c" d="M 603 4863 
L 1178 4863 
L 1178 0 
L 603 0 
L 603 4863 
z
" transform="scale(0.015625)"/>
     </defs>
     <use xlink:href="#DejaVuSans-32"/>
     <use xlink:href="#DejaVuSans-30" transform="translate(63.623047 0)"/>
     <use xlink:href="#DejaVuSans-32" transform="translate(127.246094 0)"/>
     <use xlink:href="#DejaVuSans-35" transform="translate(190.869141 0)"/>
     <use xlink:href="#DejaVuSans-2d" transform="translate(254.492188 0)"/>
     <use xlink:href="#DejaVuSans-30" transform="translate(290.576172 0)"/>
     <use xlink:href="#DejaVuSans-36" transform="translate(354.199219 0)"/>
     <use xlink:href="#DejaVuSans-2d" transform="translate(417.822266 0)"/>
     <use xlink:href="#DejaVuSans-31" transform="translate(453.90625 0)"/>
     <use xlink:href="#DejaVuSans-36" transform="translate(517.529297 0)"/>
     <use xlink:href="#DejaVuSans-20" transform="translate(581.152344 0)"/>
     <use xlink:href="#DejaVuSans-74" transform="translate(612.939453 0)"/>
     <use xlink:href="#DejaVuSans-72" transform="translate(652.148438 0)"/>
     <use xlink:href="#DejaVuSans-69" transform="translate(693.261719 0)"/>
     <use xlink:href="#DejaVuSans-61" transform="translate(721.044922 0)"/>
     <use xlink:href="#DejaVuSans-6c" transform="translate(782.324219 0)"/>
     <use xlink:href="#DejaVuSans-20" transform="translate(810.107422 0)"/>
     <use xlink:href="#DejaVuSans-32" transform="translate(841.894531 0)"/>
     <use xlink:href="#DejaVuSans-31" transform="translate(905.517578 0)"/>
    </g>
   </g>
  </g>
 </g>
 <defs>
  <clipPath id="pa21e840788">
   <rect x="57.6" y="41.472" width="357.12" height="266.112"/>
  </clipPath>
 </defs>
</svg>
