<?xml version="1.0" encoding="utf-8" standalone="no"?>
<!DOCTYPE svg PUBLIC "-//W3C//DTD SVG 1.1//EN"
  "http://www.w3.org/Graphics/SVG/1.1/DTD/svg11.dtd">
<svg xmlns:xlink="http://www.w3.org/1999/xlink" width="460.8pt" height="345.6pt" viewBox="0 0 460.8 345.6" xmlns="http://www.w3.org/2000/svg" version="1.1">
 <metadata>
  <rdf:RDF xmlns:dc="http://purl.org/dc/elements/1.1/" xmlns:cc="http://creativecommons.org/ns#" xmlns:rdf="http://www.w3.org/1999/02/22-rdf-syntax-ns#">
   <cc:Work>
    <dc:type rdf:resource="http://purl.org/dc/dcmitype/StillImage"/>
    <dc:date>2025-07-14T21:35:04.654471</dc:date>
    <dc:format>image/svg+xml</dc:format>
    <dc:creator>
     <cc:Agent>
      <dc:title>Matplotlib v3.10.3, https://matplotlib.org/</dc:title>
     </cc:Agent>
    </dc:creator>
   </cc:Work>
  </rdf:RDF>
 </metadata>
 <defs>
  <style type="text/css">*{stroke-linejoin: round; stroke-linecap: butt}</style>
 </defs>
 <g id="figure_1">
  <g id="patch_1">
   <path d="M 0 345.6 
L 460.8 345.6 
L 460.8 0 
L 0 0 
z
" style="fill: #ffffff"/>
  </g>
  <g id="axes_1">
   <g id="patch_2">
    <path d="M 57.6 307.584 
L 414.72 307.584 
L 414.72 41.472 
L 57.6 41.472 
z
" style="fill: #ffffff"/>
   </g>
   <g id="matplotlib.axis_1">
    <g id="xtick_1">
     <g id="line2d_1">
      <defs>
       <path id="me0cdaceaa6" d="M 0 0 
L 0 3.5 
" style="stroke: #000000; stroke-width: 0.8"/>
      </defs>
      <g>
       <use xlink:href="#me0cdaceaa6" x="74.062065" y="307.584" style="stroke: #000000; stroke-width: 0.8"/>
      </g>
     </g>
     <g id="text_1">
      <!-- 0.00 -->
      <g transform="translate(62.929252 322.182437) scale(0.1 -0.1)">
       <defs>
        <path id="DejaVuSans-30" d="M 2034 4250 
Q 1547 4250 1301 3770 
Q 1056 3291 1056 2328 
Q 1056 1369 1301 889 
Q 1547 409 2034 409 
Q 2525 409 2770 889 
Q 3016 1369 3016 2328 
Q 3016 3291 2770 3770 
Q 2525 4250 2034 4250 
z
M 2034 4750 
Q 2819 4750 3233 4129 
Q 3647 3509 3647 2328 
Q 3647 1150 3233 529 
Q 2819 -91 2034 -91 
Q 1250 -91 836 529 
Q 422 1150 422 2328 
Q 422 3509 836 4129 
Q 1250 4750 2034 4750 
z
" transform="scale(0.015625)"/>
        <path id="DejaVuSans-2e" d="M 684 794 
L 1344 794 
L 1344 0 
L 684 0 
L 684 794 
z
" transform="scale(0.015625)"/>
       </defs>
       <use xlink:href="#DejaVuSans-30"/>
       <use xlink:href="#DejaVuSans-2e" transform="translate(63.623047 0)"/>
       <use xlink:href="#DejaVuSans-30" transform="translate(95.410156 0)"/>
       <use xlink:href="#DejaVuSans-30" transform="translate(159.033203 0)"/>
      </g>
     </g>
    </g>
    <g id="xtick_2">
     <g id="line2d_2">
      <g>
       <use xlink:href="#me0cdaceaa6" x="134.574572" y="307.584" style="stroke: #000000; stroke-width: 0.8"/>
      </g>
     </g>
     <g id="text_2">
      <!-- 0.02 -->
      <g transform="translate(123.44176 322.182437) scale(0.1 -0.1)">
       <defs>
        <path id="DejaVuSans-32" d="M 1228 531 
L 3431 531 
L 3431 0 
L 469 0 
L 469 531 
Q 828 903 1448 1529 
Q 2069 2156 2228 2338 
Q 2531 2678 2651 2914 
Q 2772 3150 2772 3378 
Q 2772 3750 2511 3984 
Q 2250 4219 1831 4219 
Q 1534 4219 1204 4116 
Q 875 4013 500 3803 
L 500 4441 
Q 881 4594 1212 4672 
Q 1544 4750 1819 4750 
Q 2544 4750 2975 4387 
Q 3406 4025 3406 3419 
Q 3406 3131 3298 2873 
Q 3191 2616 2906 2266 
Q 2828 2175 2409 1742 
Q 1991 1309 1228 531 
z
" transform="scale(0.015625)"/>
       </defs>
       <use xlink:href="#DejaVuSans-30"/>
       <use xlink:href="#DejaVuSans-2e" transform="translate(63.623047 0)"/>
       <use xlink:href="#DejaVuSans-30" transform="translate(95.410156 0)"/>
       <use xlink:href="#DejaVuSans-32" transform="translate(159.033203 0)"/>
      </g>
     </g>
    </g>
    <g id="xtick_3">
     <g id="line2d_3">
      <g>
       <use xlink:href="#me0cdaceaa6" x="195.08708" y="307.584" style="stroke: #000000; stroke-width: 0.8"/>
      </g>
     </g>
     <g id="text_3">
      <!-- 0.04 -->
      <g transform="translate(183.954267 322.182437) scale(0.1 -0.1)">
       <defs>
        <path id="DejaVuSans-34" d="M 2419 4116 
L 825 1625 
L 2419 1625 
L 2419 4116 
z
M 2253 4666 
L 3047 4666 
L 3047 1625 
L 3713 1625 
L 3713 1100 
L 3047 1100 
L 3047 0 
L 2419 0 
L 2419 1100 
L 313 1100 
L 313 1709 
L 2253 4666 
z
" transform="scale(0.015625)"/>
       </defs>
       <use xlink:href="#DejaVuSans-30"/>
       <use xlink:href="#DejaVuSans-2e" transform="translate(63.623047 0)"/>
       <use xlink:href="#DejaVuSans-30" transform="translate(95.410156 0)"/>
       <use xlink:href="#DejaVuSans-34" transform="translate(159.033203 0)"/>
      </g>
     </g>
    </g>
    <g id="xtick_4">
     <g id="line2d_4">
      <g>
       <use xlink:href="#me0cdaceaa6" x="255.599587" y="307.584" style="stroke: #000000; stroke-width: 0.8"/>
      </g>
     </g>
     <g id="text_4">
      <!-- 0.06 -->
      <g transform="translate(244.466775 322.182437) scale(0.1 -0.1)">
       <defs>
        <path id="DejaVuSans-36" d="M 2113 2584 
Q 1688 2584 1439 2293 
Q 1191 2003 1191 1497 
Q 1191 994 1439 701 
Q 1688 409 2113 409 
Q 2538 409 2786 701 
Q 3034 994 3034 1497 
Q 3034 2003 2786 2293 
Q 2538 2584 2113 2584 
z
M 3366 4563 
L 3366 3988 
Q 3128 4100 2886 4159 
Q 2644 4219 2406 4219 
Q 1781 4219 1451 3797 
Q 1122 3375 1075 2522 
Q 1259 2794 1537 2939 
Q 1816 3084 2150 3084 
Q 2853 3084 3261 2657 
Q 3669 2231 3669 1497 
Q 3669 778 3244 343 
Q 2819 -91 2113 -91 
Q 1303 -91 875 529 
Q 447 1150 447 2328 
Q 447 3434 972 4092 
Q 1497 4750 2381 4750 
Q 2619 4750 2861 4703 
Q 3103 4656 3366 4563 
z
" transform="scale(0.015625)"/>
       </defs>
       <use xlink:href="#DejaVuSans-30"/>
       <use xlink:href="#DejaVuSans-2e" transform="translate(63.623047 0)"/>
       <use xlink:href="#DejaVuSans-30" transform="translate(95.410156 0)"/>
       <use xlink:href="#DejaVuSans-36" transform="translate(159.033203 0)"/>
      </g>
     </g>
    </g>
    <g id="xtick_5">
     <g id="line2d_5">
      <g>
       <use xlink:href="#me0cdaceaa6" x="316.112095" y="307.584" style="stroke: #000000; stroke-width: 0.8"/>
      </g>
     </g>
     <g id="text_5">
      <!-- 0.08 -->
      <g transform="translate(304.979282 322.182437) scale(0.1 -0.1)">
       <defs>
        <path id="DejaVuSans-38" d="M 2034 2216 
Q 1584 2216 1326 1975 
Q 1069 1734 1069 1313 
Q 1069 891 1326 650 
Q 1584 409 2034 409 
Q 2484 409 2743 651 
Q 3003 894 3003 1313 
Q 3003 1734 2745 1975 
Q 2488 2216 2034 2216 
z
M 1403 2484 
Q 997 2584 770 2862 
Q 544 3141 544 3541 
Q 544 4100 942 4425 
Q 1341 4750 2034 4750 
Q 2731 4750 3128 4425 
Q 3525 4100 3525 3541 
Q 3525 3141 3298 2862 
Q 3072 2584 2669 2484 
Q 3125 2378 3379 2068 
Q 3634 1759 3634 1313 
Q 3634 634 3220 271 
Q 2806 -91 2034 -91 
Q 1263 -91 848 271 
Q 434 634 434 1313 
Q 434 1759 690 2068 
Q 947 2378 1403 2484 
z
M 1172 3481 
Q 1172 3119 1398 2916 
Q 1625 2713 2034 2713 
Q 2441 2713 2670 2916 
Q 2900 3119 2900 3481 
Q 2900 3844 2670 4047 
Q 2441 4250 2034 4250 
Q 1625 4250 1398 4047 
Q 1172 3844 1172 3481 
z
" transform="scale(0.015625)"/>
       </defs>
       <use xlink:href="#DejaVuSans-30"/>
       <use xlink:href="#DejaVuSans-2e" transform="translate(63.623047 0)"/>
       <use xlink:href="#DejaVuSans-30" transform="translate(95.410156 0)"/>
       <use xlink:href="#DejaVuSans-38" transform="translate(159.033203 0)"/>
      </g>
     </g>
    </g>
    <g id="xtick_6">
     <g id="line2d_6">
      <g>
       <use xlink:href="#me0cdaceaa6" x="376.624602" y="307.584" style="stroke: #000000; stroke-width: 0.8"/>
      </g>
     </g>
     <g id="text_6">
      <!-- 0.10 -->
      <g transform="translate(365.49179 322.182437) scale(0.1 -0.1)">
       <defs>
        <path id="DejaVuSans-31" d="M 794 531 
L 1825 531 
L 1825 4091 
L 703 3866 
L 703 4441 
L 1819 4666 
L 2450 4666 
L 2450 531 
L 3481 531 
L 3481 0 
L 794 0 
L 794 531 
z
" transform="scale(0.015625)"/>
       </defs>
       <use xlink:href="#DejaVuSans-30"/>
       <use xlink:href="#DejaVuSans-2e" transform="translate(63.623047 0)"/>
       <use xlink:href="#DejaVuSans-31" transform="translate(95.410156 0)"/>
       <use xlink:href="#DejaVuSans-30" transform="translate(159.033203 0)"/>
      </g>
     </g>
    </g>
    <g id="text_7">
     <!-- Strain -->
     <g transform="translate(221.348281 335.860562) scale(0.1 -0.1)">
      <defs>
       <path id="DejaVuSans-53" d="M 3425 4513 
L 3425 3897 
Q 3066 4069 2747 4153 
Q 2428 4238 2131 4238 
Q 1616 4238 1336 4038 
Q 1056 3838 1056 3469 
Q 1056 3159 1242 3001 
Q 1428 2844 1947 2747 
L 2328 2669 
Q 3034 2534 3370 2195 
Q 3706 1856 3706 1288 
Q 3706 609 3251 259 
Q 2797 -91 1919 -91 
Q 1588 -91 1214 -16 
Q 841 59 441 206 
L 441 856 
Q 825 641 1194 531 
Q 1563 422 1919 422 
Q 2459 422 2753 634 
Q 3047 847 3047 1241 
Q 3047 1584 2836 1778 
Q 2625 1972 2144 2069 
L 1759 2144 
Q 1053 2284 737 2584 
Q 422 2884 422 3419 
Q 422 4038 858 4394 
Q 1294 4750 2059 4750 
Q 2388 4750 2728 4690 
Q 3069 4631 3425 4513 
z
" transform="scale(0.015625)"/>
       <path id="DejaVuSans-74" d="M 1172 4494 
L 1172 3500 
L 2356 3500 
L 2356 3053 
L 1172 3053 
L 1172 1153 
Q 1172 725 1289 603 
Q 1406 481 1766 481 
L 2356 481 
L 2356 0 
L 1766 0 
Q 1100 0 847 248 
Q 594 497 594 1153 
L 594 3053 
L 172 3053 
L 172 3500 
L 594 3500 
L 594 4494 
L 1172 4494 
z
" transform="scale(0.015625)"/>
       <path id="DejaVuSans-72" d="M 2631 2963 
Q 2534 3019 2420 3045 
Q 2306 3072 2169 3072 
Q 1681 3072 1420 2755 
Q 1159 2438 1159 1844 
L 1159 0 
L 581 0 
L 581 3500 
L 1159 3500 
L 1159 2956 
Q 1341 3275 1631 3429 
Q 1922 3584 2338 3584 
Q 2397 3584 2469 3576 
Q 2541 3569 2628 3553 
L 2631 2963 
z
" transform="scale(0.015625)"/>
       <path id="DejaVuSans-61" d="M 2194 1759 
Q 1497 1759 1228 1600 
Q 959 1441 959 1056 
Q 959 750 1161 570 
Q 1363 391 1709 391 
Q 2188 391 2477 730 
Q 2766 1069 2766 1631 
L 2766 1759 
L 2194 1759 
z
M 3341 1997 
L 3341 0 
L 2766 0 
L 2766 531 
Q 2569 213 2275 61 
Q 1981 -91 1556 -91 
Q 1019 -91 701 211 
Q 384 513 384 1019 
Q 384 1609 779 1909 
Q 1175 2209 1959 2209 
L 2766 2209 
L 2766 2266 
Q 2766 2663 2505 2880 
Q 2244 3097 1772 3097 
Q 1472 3097 1187 3025 
Q 903 2953 641 2809 
L 641 3341 
Q 956 3463 1253 3523 
Q 1550 3584 1831 3584 
Q 2591 3584 2966 3190 
Q 3341 2797 3341 1997 
z
" transform="scale(0.015625)"/>
       <path id="DejaVuSans-69" d="M 603 3500 
L 1178 3500 
L 1178 0 
L 603 0 
L 603 3500 
z
M 603 4863 
L 1178 4863 
L 1178 4134 
L 603 4134 
L 603 4863 
z
" transform="scale(0.015625)"/>
       <path id="DejaVuSans-6e" d="M 3513 2113 
L 3513 0 
L 2938 0 
L 2938 2094 
Q 2938 2591 2744 2837 
Q 2550 3084 2163 3084 
Q 1697 3084 1428 2787 
Q 1159 2491 1159 1978 
L 1159 0 
L 581 0 
L 581 3500 
L 1159 3500 
L 1159 2956 
Q 1366 3272 1645 3428 
Q 1925 3584 2291 3584 
Q 2894 3584 3203 3211 
Q 3513 2838 3513 2113 
z
" transform="scale(0.015625)"/>
      </defs>
      <use xlink:href="#DejaVuSans-53"/>
      <use xlink:href="#DejaVuSans-74" transform="translate(63.476562 0)"/>
      <use xlink:href="#DejaVuSans-72" transform="translate(102.685547 0)"/>
      <use xlink:href="#DejaVuSans-61" transform="translate(143.798828 0)"/>
      <use xlink:href="#DejaVuSans-69" transform="translate(205.078125 0)"/>
      <use xlink:href="#DejaVuSans-6e" transform="translate(232.861328 0)"/>
     </g>
    </g>
   </g>
   <g id="matplotlib.axis_2">
    <g id="ytick_1">
     <g id="line2d_7">
      <defs>
       <path id="m77c1fa52af" d="M 0 0 
L -3.5 0 
" style="stroke: #000000; stroke-width: 0.8"/>
      </defs>
      <g>
       <use xlink:href="#m77c1fa52af" x="57.6" y="272.143155" style="stroke: #000000; stroke-width: 0.8"/>
      </g>
     </g>
     <g id="text_8">
      <!-- 0 -->
      <g transform="translate(44.2375 275.942374) scale(0.1 -0.1)">
       <use xlink:href="#DejaVuSans-30"/>
      </g>
     </g>
    </g>
    <g id="ytick_2">
     <g id="line2d_8">
      <g>
       <use xlink:href="#m77c1fa52af" x="57.6" y="225.07865" style="stroke: #000000; stroke-width: 0.8"/>
      </g>
     </g>
     <g id="text_9">
      <!-- 200 -->
      <g transform="translate(31.5125 228.877869) scale(0.1 -0.1)">
       <use xlink:href="#DejaVuSans-32"/>
       <use xlink:href="#DejaVuSans-30" transform="translate(63.623047 0)"/>
       <use xlink:href="#DejaVuSans-30" transform="translate(127.246094 0)"/>
      </g>
     </g>
    </g>
    <g id="ytick_3">
     <g id="line2d_9">
      <g>
       <use xlink:href="#m77c1fa52af" x="57.6" y="178.014146" style="stroke: #000000; stroke-width: 0.8"/>
      </g>
     </g>
     <g id="text_10">
      <!-- 400 -->
      <g transform="translate(31.5125 181.813364) scale(0.1 -0.1)">
       <use xlink:href="#DejaVuSans-34"/>
       <use xlink:href="#DejaVuSans-30" transform="translate(63.623047 0)"/>
       <use xlink:href="#DejaVuSans-30" transform="translate(127.246094 0)"/>
      </g>
     </g>
    </g>
    <g id="ytick_4">
     <g id="line2d_10">
      <g>
       <use xlink:href="#m77c1fa52af" x="57.6" y="130.949641" style="stroke: #000000; stroke-width: 0.8"/>
      </g>
     </g>
     <g id="text_11">
      <!-- 600 -->
      <g transform="translate(31.5125 134.74886) scale(0.1 -0.1)">
       <use xlink:href="#DejaVuSans-36"/>
       <use xlink:href="#DejaVuSans-30" transform="translate(63.623047 0)"/>
       <use xlink:href="#DejaVuSans-30" transform="translate(127.246094 0)"/>
      </g>
     </g>
    </g>
    <g id="ytick_5">
     <g id="line2d_11">
      <g>
       <use xlink:href="#m77c1fa52af" x="57.6" y="83.885136" style="stroke: #000000; stroke-width: 0.8"/>
      </g>
     </g>
     <g id="text_12">
      <!-- 800 -->
      <g transform="translate(31.5125 87.684355) scale(0.1 -0.1)">
       <use xlink:href="#DejaVuSans-38"/>
       <use xlink:href="#DejaVuSans-30" transform="translate(63.623047 0)"/>
       <use xlink:href="#DejaVuSans-30" transform="translate(127.246094 0)"/>
      </g>
     </g>
    </g>
    <g id="text_13">
     <!-- Stress [Pa] -->
     <g transform="translate(25.432812 201.235813) rotate(-90) scale(0.1 -0.1)">
      <defs>
       <path id="DejaVuSans-65" d="M 3597 1894 
L 3597 1613 
L 953 1613 
Q 991 1019 1311 708 
Q 1631 397 2203 397 
Q 2534 397 2845 478 
Q 3156 559 3463 722 
L 3463 178 
Q 3153 47 2828 -22 
Q 2503 -91 2169 -91 
Q 1331 -91 842 396 
Q 353 884 353 1716 
Q 353 2575 817 3079 
Q 1281 3584 2069 3584 
Q 2775 3584 3186 3129 
Q 3597 2675 3597 1894 
z
M 3022 2063 
Q 3016 2534 2758 2815 
Q 2500 3097 2075 3097 
Q 1594 3097 1305 2825 
Q 1016 2553 972 2059 
L 3022 2063 
z
" transform="scale(0.015625)"/>
       <path id="DejaVuSans-73" d="M 2834 3397 
L 2834 2853 
Q 2591 2978 2328 3040 
Q 2066 3103 1784 3103 
Q 1356 3103 1142 2972 
Q 928 2841 928 2578 
Q 928 2378 1081 2264 
Q 1234 2150 1697 2047 
L 1894 2003 
Q 2506 1872 2764 1633 
Q 3022 1394 3022 966 
Q 3022 478 2636 193 
Q 2250 -91 1575 -91 
Q 1294 -91 989 -36 
Q 684 19 347 128 
L 347 722 
Q 666 556 975 473 
Q 1284 391 1588 391 
Q 1994 391 2212 530 
Q 2431 669 2431 922 
Q 2431 1156 2273 1281 
Q 2116 1406 1581 1522 
L 1381 1569 
Q 847 1681 609 1914 
Q 372 2147 372 2553 
Q 372 3047 722 3315 
Q 1072 3584 1716 3584 
Q 2034 3584 2315 3537 
Q 2597 3491 2834 3397 
z
" transform="scale(0.015625)"/>
       <path id="DejaVuSans-20" transform="scale(0.015625)"/>
       <path id="DejaVuSans-5b" d="M 550 4863 
L 1875 4863 
L 1875 4416 
L 1125 4416 
L 1125 -397 
L 1875 -397 
L 1875 -844 
L 550 -844 
L 550 4863 
z
" transform="scale(0.015625)"/>
       <path id="DejaVuSans-50" d="M 1259 4147 
L 1259 2394 
L 2053 2394 
Q 2494 2394 2734 2622 
Q 2975 2850 2975 3272 
Q 2975 3691 2734 3919 
Q 2494 4147 2053 4147 
L 1259 4147 
z
M 628 4666 
L 2053 4666 
Q 2838 4666 3239 4311 
Q 3641 3956 3641 3272 
Q 3641 2581 3239 2228 
Q 2838 1875 2053 1875 
L 1259 1875 
L 1259 0 
L 628 0 
L 628 4666 
z
" transform="scale(0.015625)"/>
       <path id="DejaVuSans-5d" d="M 1947 4863 
L 1947 -844 
L 622 -844 
L 622 -397 
L 1369 -397 
L 1369 4416 
L 622 4416 
L 622 4863 
L 1947 4863 
z
" transform="scale(0.015625)"/>
      </defs>
      <use xlink:href="#DejaVuSans-53"/>
      <use xlink:href="#DejaVuSans-74" transform="translate(63.476562 0)"/>
      <use xlink:href="#DejaVuSans-72" transform="translate(102.685547 0)"/>
      <use xlink:href="#DejaVuSans-65" transform="translate(141.548828 0)"/>
      <use xlink:href="#DejaVuSans-73" transform="translate(203.072266 0)"/>
      <use xlink:href="#DejaVuSans-73" transform="translate(255.171875 0)"/>
      <use xlink:href="#DejaVuSans-20" transform="translate(307.271484 0)"/>
      <use xlink:href="#DejaVuSans-5b" transform="translate(339.058594 0)"/>
      <use xlink:href="#DejaVuSans-50" transform="translate(378.072266 0)"/>
      <use xlink:href="#DejaVuSans-61" transform="translate(433.875 0)"/>
      <use xlink:href="#DejaVuSans-5d" transform="translate(495.154297 0)"/>
     </g>
    </g>
   </g>
   <g id="line2d_12">
    <path d="M 74.062065 271.344493 
L 74.062687 271.01263 
L 74.065221 271.28868 
L 75.195555 263.295603 
L 76.313465 258.565919 
L 77.444492 259.569233 
L 78.67782 259.655848 
L 79.921866 258.834836 
L 81.110676 257.438869 
L 83.614432 252.632851 
L 84.918661 251.348997 
L 86.039869 250.998269 
L 87.223732 250.976535 
L 91.111685 251.706516 
L 92.498355 252.292386 
L 93.918002 253.556396 
L 96.08622 256.163789 
L 98.256087 258.844603 
L 99.68068 260.186001 
L 101.075595 260.614304 
L 102.439181 259.814128 
L 103.774738 258.188972 
L 106.386492 254.313599 
L 107.67753 252.7698 
L 108.961972 251.557382 
L 110.241468 250.591019 
L 111.517667 249.917343 
L 112.788918 249.734104 
L 114.051926 250.226463 
L 115.301743 250.962645 
L 116.525179 251.254835 
L 117.722233 250.839369 
L 118.891257 249.765853 
L 120.033899 248.347066 
L 127.735608 237.197185 
L 128.843628 236.074061 
L 129.961538 235.380542 
L 131.09099 235.037751 
L 133.364733 234.681194 
L 135.643423 234.046212 
L 137.91222 233.192459 
L 140.16288 232.044532 
L 165.424681 214.981383 
L 173.007673 210.363876 
L 175.441353 208.912348 
L 183.514049 203.328474 
L 190.22151 199.119736 
L 194.246316 196.403205 
L 205.009911 189.121751 
L 210.141085 185.57776 
L 215.565752 181.693458 
L 217.745036 180.345571 
L 222.106204 177.835409 
L 224.285964 176.349155 
L 228.655377 173.240722 
L 231.954695 171.062933 
L 235.262258 168.881176 
L 238.574768 166.661716 
L 240.785855 165.239953 
L 249.605474 158.881206 
L 251.80502 157.466388 
L 255.092797 155.493976 
L 258.360787 153.34496 
L 260.532303 151.888471 
L 264.309784 149.38823 
L 275.004128 141.670219 
L 279.017392 138.56377 
L 283.050442 135.725203 
L 291.123126 130.421122 
L 296.481839 127.016033 
L 299.148005 125.150774 
L 303.13324 122.173305 
L 305.787864 120.218752 
L 308.444137 118.132242 
L 321.826082 108.005277 
L 326.958905 104.492042 
L 332.342351 100.848835 
L 345.730891 90.34088 
L 351.12423 86.516108 
L 355.453633 83.550669 
L 357.620202 81.866976 
L 360.873354 79.862815 
L 363.036625 78.462878 
L 372.425091 71.547531 
L 378.942936 67.841818 
L 380.1977 67.208821 
L 381.429379 66.727127 
L 383.80535 66.131088 
L 388.46908 64.651283 
L 390.765083 63.877151 
L 391.984396 63.311124 
L 393.174031 62.564029 
L 394.271743 61.363021 
L 395.380996 59.959612 
L 396.497464 57.718821 
L 397.582758 53.952446 
L 398.014212 53.860563 
L 398.487273 55.364599 
L 398.237655 69.614759 
L 398.236315 69.556005 
L 398.239046 89.655764 
L 398.223974 89.319499 
L 397.13832 89.802619 
L 396.036898 92.418818 
L 394.944132 94.642494 
L 393.79036 93.966523 
L 392.709549 93.695431 
L 391.558662 93.830241 
L 389.36365 94.603055 
L 388.1971 94.421878 
L 387.101037 94.827438 
L 385.972821 95.499905 
L 383.789352 100.438376 
L 382.651656 102.045425 
L 380.454995 101.242396 
L 378.166412 101.710525 
L 377.083128 102.556588 
L 375.990156 102.718279 
L 374.889147 105.596702 
L 373.780511 108.016082 
L 372.676024 108.757225 
L 371.544511 109.043183 
L 370.425364 109.204146 
L 369.337133 109.606094 
L 368.205826 110.60495 
L 365.952899 112.843756 
L 364.847767 113.623407 
L 363.725735 114.212936 
L 362.614626 115.054782 
L 359.306651 118.050358 
L 358.192863 119.453271 
L 357.109991 119.463564 
L 356.010218 119.730238 
L 354.893957 120.375389 
L 353.778108 121.212647 
L 352.670297 121.618998 
L 351.589073 123.354656 
L 350.484148 124.602296 
L 344.883905 127.854066 
L 343.782071 128.926093 
L 339.36814 132.096909 
L 337.149633 133.725042 
L 336.019356 134.620589 
L 333.849902 136.183611 
L 331.635104 137.842253 
L 330.503591 138.89791 
L 328.317236 140.225791 
L 327.228593 141.030307 
L 325.01091 142.449591 
L 323.896709 143.440013 
L 322.772616 144.085909 
L 321.688919 144.910145 
L 319.508335 146.201315 
L 318.378677 147.041759 
L 317.26221 148.07038 
L 310.67058 152.460435 
L 308.4125 154.135943 
L 306.157306 156.031587 
L 303.977546 157.665672 
L 302.870766 158.296313 
L 301.768932 158.645615 
L 300.638655 159.294611 
L 296.228846 162.561542 
L 292.872643 164.030743 
L 291.763801 165.040017 
L 290.673535 166.24087 
L 289.564886 167.104421 
L 288.477067 168.117415 
L 287.353799 168.836606 
L 285.148894 169.710698 
L 280.689208 173.359486 
L 274.017197 177.74024 
L 272.931439 178.68031 
L 271.840323 179.461015 
L 270.753328 180.086571 
L 268.576042 181.658027 
L 267.469261 182.068284 
L 265.275074 183.410055 
L 264.146511 184.14609 
L 261.917492 185.879888 
L 257.475118 188.207926 
L 256.362773 189.150725 
L 254.135197 190.641816 
L 250.823924 192.41282 
L 248.598615 194.345545 
L 244.168608 196.968069 
L 241.968444 198.888888 
L 240.845999 199.560146 
L 238.6514 200.387234 
L 237.563581 200.928333 
L 236.438406 201.65888 
L 234.212272 203.704215 
L 233.119919 204.411004 
L 232.013139 204.899767 
L 229.804524 206.226779 
L 228.696919 207.173055 
L 223.158895 210.198643 
L 220.932349 211.992218 
L 217.644573 213.873723 
L 216.515945 214.553352 
L 215.402775 215.421243 
L 214.274972 216.123506 
L 213.183443 216.566443 
L 203.205647 222.913643 
L 202.091859 223.741972 
L 197.619394 226.228508 
L 195.364613 227.792026 
L 194.282977 228.340194 
L 192.104454 229.776964 
L 191.007154 230.266564 
L 188.79112 231.930786 
L 185.446046 233.537711 
L 183.228363 234.821441 
L 182.12868 235.592848 
L 179.923363 236.786539 
L 177.711245 238.023885 
L 174.393377 240.546447 
L 171.09076 242.446308 
L 169.962133 242.89643 
L 165.474004 245.346566 
L 163.244985 246.941152 
L 161.074706 248.114999 
L 157.697068 250.573197 
L 155.508832 251.697989 
L 153.323301 252.634339 
L 152.194261 253.352538 
L 151.071405 254.209143 
L 147.791048 255.868591 
L 146.671076 256.674845 
L 145.559762 257.723805 
L 144.432783 258.336463 
L 143.342079 258.754534 
L 142.251374 259.378602 
L 141.116976 259.853536 
L 140.004012 260.539242 
L 138.892903 261.626648 
L 134.481033 263.544677 
L 133.376932 264.673629 
L 132.290762 265.463543 
L 131.171203 265.591597 
L 130.05824 266.014815 
L 127.874486 267.070551 
L 126.758431 268.662594 
L 125.675765 269.207832 
L 124.547137 269.300255 
L 122.326569 269.965265 
L 121.225559 270.362377 
L 120.107649 272.141318 
L 116.759484 272.998745 
L 114.579518 274.168624 
L 113.469234 275.797997 
L 109.058188 277.131769 
L 107.973048 277.764797 
L 106.866474 279.446506 
L 105.737434 279.896877 
L 103.477294 280.357502 
L 101.272289 281.193734 
L 100.160562 282.901487 
L 99.035026 283.679968 
L 97.905574 283.841713 
L 94.563386 284.770176 
L 93.475773 286.438987 
L 92.378679 287.439796 
L 91.249227 287.449137 
L 90.165531 287.784239 
L 89.049682 288.338608 
L 87.919405 288.516109 
L 86.803143 289.971017 
L 85.688531 290.994123 
L 83.465077 291.147499 
L 82.347579 291.706332 
L 81.222043 291.864923 
L 80.117736 293.832691 
L 79.028268 294.262637 
L 77.937151 294.008893 
L 76.836142 293.909219 
L 75.730804 293.932764 
L 74.646864 293.781611 
L 74.127172 295.488 
L 73.832727 294.10944 
L 73.833694 294.126427 
" clip-path="url(#pa5ca9b434a)" style="fill: none; stroke: #ff0000; stroke-width: 1.5; stroke-linecap: square"/>
   </g>
   <g id="line2d_13">
    <path d="M 74.062065 271.344493 
L 74.062687 271.01263 
L 74.065221 271.28868 
L 75.195555 263.295603 
L 76.313465 258.565919 
L 77.444492 259.569233 
L 78.67782 259.655848 
L 79.921866 258.834836 
L 81.110676 257.438869 
L 82.417378 254.819569 
L 83.614432 266.892142 
L 84.918661 265.20944 
L 87.223732 263.162214 
L 89.766236 261.426432 
L 91.111685 260.698435 
L 92.498355 260.441962 
L 93.918002 260.703892 
L 96.08622 260.453868 
L 97.174451 260.676111 
L 99.68068 260.977728 
L 101.075595 260.614304 
L 102.439181 259.814128 
L 103.774738 258.188972 
L 106.386492 254.313599 
L 107.67753 252.7698 
L 108.961972 251.557382 
L 110.241468 250.591019 
L 111.517667 249.917343 
L 112.788918 249.734104 
L 114.051926 250.226463 
L 115.301743 250.962645 
L 116.525179 251.254835 
L 117.722233 250.839369 
L 118.891257 249.765853 
L 120.033899 248.347066 
L 127.735608 237.197185 
L 128.843628 236.074061 
L 129.961538 235.380542 
L 131.09099 235.037751 
L 133.364733 234.681194 
L 135.643423 234.046212 
L 137.91222 233.192459 
L 140.16288 232.044532 
L 165.424681 214.981383 
L 173.007673 210.363876 
L 175.441353 208.912348 
L 183.514049 203.328474 
L 190.22151 199.119736 
L 194.246316 196.403205 
L 205.009911 189.121751 
L 210.141085 185.57776 
L 215.565752 181.693458 
L 217.745036 180.345571 
L 222.106204 177.835409 
L 224.285964 176.349155 
L 228.655377 173.240722 
L 231.954695 171.062933 
L 235.262258 168.881176 
L 238.574768 166.661716 
L 240.785855 165.239953 
L 249.605474 158.881206 
L 251.80502 157.466388 
L 255.092797 155.493976 
L 258.360787 153.34496 
L 260.532303 151.888471 
L 264.309784 149.38823 
L 275.004128 141.670219 
L 279.017392 138.56377 
L 283.050442 135.725203 
L 291.123126 130.421122 
L 296.481839 127.016033 
L 299.148005 125.150774 
L 303.13324 122.173305 
L 305.787864 120.218752 
L 308.444137 118.132242 
L 321.826082 108.005277 
L 326.958905 104.492042 
L 332.342351 100.848835 
L 345.730891 90.34088 
L 351.12423 86.516108 
L 355.453633 83.550669 
L 357.620202 81.866976 
L 364.385372 77.316382 
L 369.755628 73.01273 
L 371.092833 71.74872 
L 373.752404 69.74704 
L 375.069823 68.888946 
L 376.3757 67.903484 
L 381.429379 63.492842 
L 384.9381 60.993346 
L 389.576273 57.710788 
L 391.984396 56.424534 
L 393.174031 55.872335 
L 394.271743 55.068439 
L 395.380996 54.675296 
L 396.497464 54.660909 
L 397.582758 53.644179 
L 398.014212 53.568 
L 398.487273 55.223945 
L 398.235542 69.417661 
L 398.23683 79.659701 
L 398.240901 79.581646 
L 398.239844 80.431957 
L 398.235697 80.22162 
L 398.239046 89.655764 
L 398.223974 89.319499 
L 397.13832 89.802619 
L 396.036898 92.418818 
L 394.944132 94.642494 
L 393.79036 93.966523 
L 392.709549 93.695431 
L 391.558662 93.830241 
L 389.36365 94.603055 
L 388.1971 94.421878 
L 387.101037 94.827438 
L 385.972821 95.499905 
L 383.789352 100.438376 
L 382.651656 102.045425 
L 380.454995 101.242396 
L 378.166412 101.710525 
L 377.083128 102.556588 
L 375.990156 102.718279 
L 374.889147 105.596702 
L 373.780511 108.016082 
L 372.676024 108.757225 
L 371.544511 109.043183 
L 370.425364 109.204146 
L 369.337133 109.606094 
L 368.205826 110.60495 
L 365.952899 112.843756 
L 364.847767 113.623407 
L 363.725735 114.212936 
L 362.614626 115.054782 
L 359.306651 118.050358 
L 358.192863 119.453271 
L 357.109991 119.463564 
L 356.010218 119.730238 
L 354.893957 120.375389 
L 353.778108 121.212647 
L 352.670297 121.618998 
L 351.589073 123.354656 
L 350.484148 124.602296 
L 344.883905 127.854066 
L 343.782071 128.926093 
L 339.36814 132.096909 
L 337.149633 133.725042 
L 336.019356 134.620589 
L 333.849902 136.183611 
L 331.635104 137.842253 
L 330.503591 138.89791 
L 328.317236 140.225791 
L 327.228593 141.030307 
L 325.01091 142.449591 
L 323.896709 143.440013 
L 322.772616 144.085909 
L 321.688919 144.910145 
L 319.508335 146.201315 
L 318.378677 147.041759 
L 317.26221 148.07038 
L 310.67058 152.460435 
L 308.4125 154.135943 
L 306.157306 156.031587 
L 303.977546 157.665672 
L 302.870766 158.296313 
L 301.768932 158.645615 
L 300.638655 159.294611 
L 296.228846 162.561542 
L 292.872643 164.030743 
L 291.763801 165.040017 
L 290.673535 166.24087 
L 289.564886 167.104421 
L 288.477067 168.117415 
L 287.353799 168.836606 
L 285.148894 169.710698 
L 280.689208 173.359486 
L 274.017197 177.74024 
L 272.931439 178.68031 
L 271.840323 179.461015 
L 270.753328 180.086571 
L 268.576042 181.658027 
L 267.469261 182.068284 
L 265.275074 183.410055 
L 264.146511 184.14609 
L 261.917492 185.879888 
L 257.475118 188.207926 
L 256.362773 189.150725 
L 254.135197 190.641816 
L 250.823924 192.41282 
L 248.598615 194.345545 
L 244.168608 196.968069 
L 241.968444 198.888888 
L 240.845999 199.560146 
L 238.6514 200.387234 
L 237.563581 200.928333 
L 236.438406 201.65888 
L 234.212272 203.704215 
L 233.119919 204.411004 
L 232.013139 204.899767 
L 229.804524 206.226779 
L 228.696919 207.173055 
L 223.158895 210.198643 
L 220.932349 211.992218 
L 217.644573 213.873723 
L 216.515945 214.553352 
L 215.402775 215.421243 
L 214.274972 216.123506 
L 213.183443 216.566443 
L 203.205647 222.913643 
L 202.091859 223.741972 
L 197.619394 226.228508 
L 195.364613 227.792026 
L 194.282977 228.340194 
L 192.104454 229.776964 
L 191.007154 230.266564 
L 188.79112 231.930786 
L 185.446046 233.537711 
L 183.228363 234.821441 
L 182.12868 235.592848 
L 179.923363 236.786539 
L 177.711245 238.023885 
L 174.393377 240.546447 
L 171.09076 242.446308 
L 169.962133 242.89643 
L 165.474004 245.346566 
L 163.244985 246.941152 
L 161.074706 248.114999 
L 157.697068 250.573197 
L 155.508832 251.697989 
L 153.323301 252.634339 
L 152.194261 253.352538 
L 151.071405 254.209143 
L 147.791048 255.868591 
L 146.671076 256.674845 
L 145.559762 257.723805 
L 144.432783 258.336463 
L 143.342079 258.754534 
L 142.251374 259.378602 
L 141.116976 259.853536 
L 140.004012 260.539242 
L 138.892903 261.626648 
L 134.481033 263.544677 
L 133.376932 264.673629 
L 132.290762 265.463543 
L 131.171203 265.591597 
L 130.05824 266.014815 
L 127.874486 267.070551 
L 126.758431 268.662594 
L 125.675765 269.207832 
L 124.547137 269.300255 
L 122.326569 269.965265 
L 121.225559 270.362377 
L 120.107649 272.141318 
L 116.759484 272.998745 
L 114.579518 274.168624 
L 113.469234 275.797997 
L 109.058188 277.131769 
L 107.973048 277.764797 
L 106.866474 279.446506 
L 105.737434 279.896877 
L 103.477294 280.357502 
L 101.272289 281.193734 
L 100.160562 282.901487 
L 99.035026 283.679968 
L 97.905574 283.841713 
L 94.563386 284.770176 
L 93.475773 286.438987 
L 92.378679 287.439796 
L 91.249227 287.449137 
L 90.165531 287.784239 
L 89.049682 288.338608 
L 87.919405 288.516109 
L 86.803143 289.971017 
L 85.688531 290.994123 
L 83.465077 291.147499 
L 82.347579 291.706332 
L 81.222043 291.864923 
L 80.117736 293.832691 
L 79.028268 294.262637 
L 77.937151 294.008893 
L 76.836142 293.909219 
L 75.730804 293.932764 
L 74.646864 293.781611 
L 74.127172 295.488 
L 73.832727 294.10944 
L 73.833694 294.126427 
" clip-path="url(#pa5ca9b434a)" style="fill: none; stroke: #000000; stroke-width: 1.5; stroke-linecap: square"/>
   </g>
   <g id="patch_3">
    <path d="M 57.6 307.584 
L 57.6 41.472 
" style="fill: none; stroke: #000000; stroke-width: 0.8; stroke-linejoin: miter; stroke-linecap: square"/>
   </g>
   <g id="patch_4">
    <path d="M 414.72 307.584 
L 414.72 41.472 
" style="fill: none; stroke: #000000; stroke-width: 0.8; stroke-linejoin: miter; stroke-linecap: square"/>
   </g>
   <g id="patch_5">
    <path d="M 57.6 307.584 
L 414.72 307.584 
" style="fill: none; stroke: #000000; stroke-width: 0.8; stroke-linejoin: miter; stroke-linecap: square"/>
   </g>
   <g id="patch_6">
    <path d="M 57.6 41.472 
L 414.72 41.472 
" style="fill: none; stroke: #000000; stroke-width: 0.8; stroke-linejoin: miter; stroke-linecap: square"/>
   </g>
   <g id="text_14">
    <!-- 2025-06-19 trial 11 -->
    <g transform="translate(178.0125 35.472) scale(0.12 -0.12)">
     <defs>
      <path id="DejaVuSans-35" d="M 691 4666 
L 3169 4666 
L 3169 4134 
L 1269 4134 
L 1269 2991 
Q 1406 3038 1543 3061 
Q 1681 3084 1819 3084 
Q 2600 3084 3056 2656 
Q 3513 2228 3513 1497 
Q 3513 744 3044 326 
Q 2575 -91 1722 -91 
Q 1428 -91 1123 -41 
Q 819 9 494 109 
L 494 744 
Q 775 591 1075 516 
Q 1375 441 1709 441 
Q 2250 441 2565 725 
Q 2881 1009 2881 1497 
Q 2881 1984 2565 2268 
Q 2250 2553 1709 2553 
Q 1456 2553 1204 2497 
Q 953 2441 691 2322 
L 691 4666 
z
" transform="scale(0.015625)"/>
      <path id="DejaVuSans-2d" d="M 313 2009 
L 1997 2009 
L 1997 1497 
L 313 1497 
L 313 2009 
z
" transform="scale(0.015625)"/>
      <path id="DejaVuSans-39" d="M 703 97 
L 703 672 
Q 941 559 1184 500 
Q 1428 441 1663 441 
Q 2288 441 2617 861 
Q 2947 1281 2994 2138 
Q 2813 1869 2534 1725 
Q 2256 1581 1919 1581 
Q 1219 1581 811 2004 
Q 403 2428 403 3163 
Q 403 3881 828 4315 
Q 1253 4750 1959 4750 
Q 2769 4750 3195 4129 
Q 3622 3509 3622 2328 
Q 3622 1225 3098 567 
Q 2575 -91 1691 -91 
Q 1453 -91 1209 -44 
Q 966 3 703 97 
z
M 1959 2075 
Q 2384 2075 2632 2365 
Q 2881 2656 2881 3163 
Q 2881 3666 2632 3958 
Q 2384 4250 1959 4250 
Q 1534 4250 1286 3958 
Q 1038 3666 1038 3163 
Q 1038 2656 1286 2365 
Q 1534 2075 1959 2075 
z
" transform="scale(0.015625)"/>
      <path id="DejaVuSans-6c" d="M 603 4863 
L 1178 4863 
L 1178 0 
L 603 0 
L 603 4863 
z
" transform="scale(0.015625)"/>
     </defs>
     <use xlink:href="#DejaVuSans-32"/>
     <use xlink:href="#DejaVuSans-30" transform="translate(63.623047 0)"/>
     <use xlink:href="#DejaVuSans-32" transform="translate(127.246094 0)"/>
     <use xlink:href="#DejaVuSans-35" transform="translate(190.869141 0)"/>
     <use xlink:href="#DejaVuSans-2d" transform="translate(254.492188 0)"/>
     <use xlink:href="#DejaVuSans-30" transform="translate(290.576172 0)"/>
     <use xlink:href="#DejaVuSans-36" transform="translate(354.199219 0)"/>
     <use xlink:href="#DejaVuSans-2d" transform="translate(417.822266 0)"/>
     <use xlink:href="#DejaVuSans-31" transform="translate(453.90625 0)"/>
     <use xlink:href="#DejaVuSans-39" transform="translate(517.529297 0)"/>
     <use xlink:href="#DejaVuSans-20" transform="translate(581.152344 0)"/>
     <use xlink:href="#DejaVuSans-74" transform="translate(612.939453 0)"/>
     <use xlink:href="#DejaVuSans-72" transform="translate(652.148438 0)"/>
     <use xlink:href="#DejaVuSans-69" transform="translate(693.261719 0)"/>
     <use xlink:href="#DejaVuSans-61" transform="translate(721.044922 0)"/>
     <use xlink:href="#DejaVuSans-6c" transform="translate(782.324219 0)"/>
     <use xlink:href="#DejaVuSans-20" transform="translate(810.107422 0)"/>
     <use xlink:href="#DejaVuSans-31" transform="translate(841.894531 0)"/>
     <use xlink:href="#DejaVuSans-31" transform="translate(905.517578 0)"/>
    </g>
   </g>
  </g>
 </g>
 <defs>
  <clipPath id="pa5ca9b434a">
   <rect x="57.6" y="41.472" width="357.12" height="266.112"/>
  </clipPath>
 </defs>
</svg>
