<?xml version="1.0" encoding="utf-8" standalone="no"?>
<!DOCTYPE svg PUBLIC "-//W3C//DTD SVG 1.1//EN"
  "http://www.w3.org/Graphics/SVG/1.1/DTD/svg11.dtd">
<svg xmlns:xlink="http://www.w3.org/1999/xlink" width="460.8pt" height="345.6pt" viewBox="0 0 460.8 345.6" xmlns="http://www.w3.org/2000/svg" version="1.1">
 <metadata>
  <rdf:RDF xmlns:dc="http://purl.org/dc/elements/1.1/" xmlns:cc="http://creativecommons.org/ns#" xmlns:rdf="http://www.w3.org/1999/02/22-rdf-syntax-ns#">
   <cc:Work>
    <dc:type rdf:resource="http://purl.org/dc/dcmitype/StillImage"/>
    <dc:date>2025-07-14T21:34:36.245385</dc:date>
    <dc:format>image/svg+xml</dc:format>
    <dc:creator>
     <cc:Agent>
      <dc:title>Matplotlib v3.10.3, https://matplotlib.org/</dc:title>
     </cc:Agent>
    </dc:creator>
   </cc:Work>
  </rdf:RDF>
 </metadata>
 <defs>
  <style type="text/css">*{stroke-linejoin: round; stroke-linecap: butt}</style>
 </defs>
 <g id="figure_1">
  <g id="patch_1">
   <path d="M 0 345.6 
L 460.8 345.6 
L 460.8 0 
L 0 0 
z
" style="fill: #ffffff"/>
  </g>
  <g id="axes_1">
   <g id="patch_2">
    <path d="M 57.6 307.584 
L 414.72 307.584 
L 414.72 41.472 
L 57.6 41.472 
z
" style="fill: #ffffff"/>
   </g>
   <g id="matplotlib.axis_1">
    <g id="xtick_1">
     <g id="line2d_1">
      <defs>
       <path id="mb79ab8c3ad" d="M 0 0 
L 0 3.5 
" style="stroke: #000000; stroke-width: 0.8"/>
      </defs>
      <g>
       <use xlink:href="#mb79ab8c3ad" x="73.934276" y="307.584" style="stroke: #000000; stroke-width: 0.8"/>
      </g>
     </g>
     <g id="text_1">
      <!-- 0.00 -->
      <g transform="translate(62.801463 322.182437) scale(0.1 -0.1)">
       <defs>
        <path id="DejaVuSans-30" d="M 2034 4250 
Q 1547 4250 1301 3770 
Q 1056 3291 1056 2328 
Q 1056 1369 1301 889 
Q 1547 409 2034 409 
Q 2525 409 2770 889 
Q 3016 1369 3016 2328 
Q 3016 3291 2770 3770 
Q 2525 4250 2034 4250 
z
M 2034 4750 
Q 2819 4750 3233 4129 
Q 3647 3509 3647 2328 
Q 3647 1150 3233 529 
Q 2819 -91 2034 -91 
Q 1250 -91 836 529 
Q 422 1150 422 2328 
Q 422 3509 836 4129 
Q 1250 4750 2034 4750 
z
" transform="scale(0.015625)"/>
        <path id="DejaVuSans-2e" d="M 684 794 
L 1344 794 
L 1344 0 
L 684 0 
L 684 794 
z
" transform="scale(0.015625)"/>
       </defs>
       <use xlink:href="#DejaVuSans-30"/>
       <use xlink:href="#DejaVuSans-2e" transform="translate(63.623047 0)"/>
       <use xlink:href="#DejaVuSans-30" transform="translate(95.410156 0)"/>
       <use xlink:href="#DejaVuSans-30" transform="translate(159.033203 0)"/>
      </g>
     </g>
    </g>
    <g id="xtick_2">
     <g id="line2d_2">
      <g>
       <use xlink:href="#mb79ab8c3ad" x="136.504344" y="307.584" style="stroke: #000000; stroke-width: 0.8"/>
      </g>
     </g>
     <g id="text_2">
      <!-- 0.05 -->
      <g transform="translate(125.371531 322.182437) scale(0.1 -0.1)">
       <defs>
        <path id="DejaVuSans-35" d="M 691 4666 
L 3169 4666 
L 3169 4134 
L 1269 4134 
L 1269 2991 
Q 1406 3038 1543 3061 
Q 1681 3084 1819 3084 
Q 2600 3084 3056 2656 
Q 3513 2228 3513 1497 
Q 3513 744 3044 326 
Q 2575 -91 1722 -91 
Q 1428 -91 1123 -41 
Q 819 9 494 109 
L 494 744 
Q 775 591 1075 516 
Q 1375 441 1709 441 
Q 2250 441 2565 725 
Q 2881 1009 2881 1497 
Q 2881 1984 2565 2268 
Q 2250 2553 1709 2553 
Q 1456 2553 1204 2497 
Q 953 2441 691 2322 
L 691 4666 
z
" transform="scale(0.015625)"/>
       </defs>
       <use xlink:href="#DejaVuSans-30"/>
       <use xlink:href="#DejaVuSans-2e" transform="translate(63.623047 0)"/>
       <use xlink:href="#DejaVuSans-30" transform="translate(95.410156 0)"/>
       <use xlink:href="#DejaVuSans-35" transform="translate(159.033203 0)"/>
      </g>
     </g>
    </g>
    <g id="xtick_3">
     <g id="line2d_3">
      <g>
       <use xlink:href="#mb79ab8c3ad" x="199.074412" y="307.584" style="stroke: #000000; stroke-width: 0.8"/>
      </g>
     </g>
     <g id="text_3">
      <!-- 0.10 -->
      <g transform="translate(187.941599 322.182437) scale(0.1 -0.1)">
       <defs>
        <path id="DejaVuSans-31" d="M 794 531 
L 1825 531 
L 1825 4091 
L 703 3866 
L 703 4441 
L 1819 4666 
L 2450 4666 
L 2450 531 
L 3481 531 
L 3481 0 
L 794 0 
L 794 531 
z
" transform="scale(0.015625)"/>
       </defs>
       <use xlink:href="#DejaVuSans-30"/>
       <use xlink:href="#DejaVuSans-2e" transform="translate(63.623047 0)"/>
       <use xlink:href="#DejaVuSans-31" transform="translate(95.410156 0)"/>
       <use xlink:href="#DejaVuSans-30" transform="translate(159.033203 0)"/>
      </g>
     </g>
    </g>
    <g id="xtick_4">
     <g id="line2d_4">
      <g>
       <use xlink:href="#mb79ab8c3ad" x="261.644479" y="307.584" style="stroke: #000000; stroke-width: 0.8"/>
      </g>
     </g>
     <g id="text_4">
      <!-- 0.15 -->
      <g transform="translate(250.511667 322.182437) scale(0.1 -0.1)">
       <use xlink:href="#DejaVuSans-30"/>
       <use xlink:href="#DejaVuSans-2e" transform="translate(63.623047 0)"/>
       <use xlink:href="#DejaVuSans-31" transform="translate(95.410156 0)"/>
       <use xlink:href="#DejaVuSans-35" transform="translate(159.033203 0)"/>
      </g>
     </g>
    </g>
    <g id="xtick_5">
     <g id="line2d_5">
      <g>
       <use xlink:href="#mb79ab8c3ad" x="324.214547" y="307.584" style="stroke: #000000; stroke-width: 0.8"/>
      </g>
     </g>
     <g id="text_5">
      <!-- 0.20 -->
      <g transform="translate(313.081735 322.182437) scale(0.1 -0.1)">
       <defs>
        <path id="DejaVuSans-32" d="M 1228 531 
L 3431 531 
L 3431 0 
L 469 0 
L 469 531 
Q 828 903 1448 1529 
Q 2069 2156 2228 2338 
Q 2531 2678 2651 2914 
Q 2772 3150 2772 3378 
Q 2772 3750 2511 3984 
Q 2250 4219 1831 4219 
Q 1534 4219 1204 4116 
Q 875 4013 500 3803 
L 500 4441 
Q 881 4594 1212 4672 
Q 1544 4750 1819 4750 
Q 2544 4750 2975 4387 
Q 3406 4025 3406 3419 
Q 3406 3131 3298 2873 
Q 3191 2616 2906 2266 
Q 2828 2175 2409 1742 
Q 1991 1309 1228 531 
z
" transform="scale(0.015625)"/>
       </defs>
       <use xlink:href="#DejaVuSans-30"/>
       <use xlink:href="#DejaVuSans-2e" transform="translate(63.623047 0)"/>
       <use xlink:href="#DejaVuSans-32" transform="translate(95.410156 0)"/>
       <use xlink:href="#DejaVuSans-30" transform="translate(159.033203 0)"/>
      </g>
     </g>
    </g>
    <g id="xtick_6">
     <g id="line2d_6">
      <g>
       <use xlink:href="#mb79ab8c3ad" x="386.784615" y="307.584" style="stroke: #000000; stroke-width: 0.8"/>
      </g>
     </g>
     <g id="text_6">
      <!-- 0.25 -->
      <g transform="translate(375.651803 322.182437) scale(0.1 -0.1)">
       <use xlink:href="#DejaVuSans-30"/>
       <use xlink:href="#DejaVuSans-2e" transform="translate(63.623047 0)"/>
       <use xlink:href="#DejaVuSans-32" transform="translate(95.410156 0)"/>
       <use xlink:href="#DejaVuSans-35" transform="translate(159.033203 0)"/>
      </g>
     </g>
    </g>
    <g id="text_7">
     <!-- Strain -->
     <g transform="translate(221.348281 335.860562) scale(0.1 -0.1)">
      <defs>
       <path id="DejaVuSans-53" d="M 3425 4513 
L 3425 3897 
Q 3066 4069 2747 4153 
Q 2428 4238 2131 4238 
Q 1616 4238 1336 4038 
Q 1056 3838 1056 3469 
Q 1056 3159 1242 3001 
Q 1428 2844 1947 2747 
L 2328 2669 
Q 3034 2534 3370 2195 
Q 3706 1856 3706 1288 
Q 3706 609 3251 259 
Q 2797 -91 1919 -91 
Q 1588 -91 1214 -16 
Q 841 59 441 206 
L 441 856 
Q 825 641 1194 531 
Q 1563 422 1919 422 
Q 2459 422 2753 634 
Q 3047 847 3047 1241 
Q 3047 1584 2836 1778 
Q 2625 1972 2144 2069 
L 1759 2144 
Q 1053 2284 737 2584 
Q 422 2884 422 3419 
Q 422 4038 858 4394 
Q 1294 4750 2059 4750 
Q 2388 4750 2728 4690 
Q 3069 4631 3425 4513 
z
" transform="scale(0.015625)"/>
       <path id="DejaVuSans-74" d="M 1172 4494 
L 1172 3500 
L 2356 3500 
L 2356 3053 
L 1172 3053 
L 1172 1153 
Q 1172 725 1289 603 
Q 1406 481 1766 481 
L 2356 481 
L 2356 0 
L 1766 0 
Q 1100 0 847 248 
Q 594 497 594 1153 
L 594 3053 
L 172 3053 
L 172 3500 
L 594 3500 
L 594 4494 
L 1172 4494 
z
" transform="scale(0.015625)"/>
       <path id="DejaVuSans-72" d="M 2631 2963 
Q 2534 3019 2420 3045 
Q 2306 3072 2169 3072 
Q 1681 3072 1420 2755 
Q 1159 2438 1159 1844 
L 1159 0 
L 581 0 
L 581 3500 
L 1159 3500 
L 1159 2956 
Q 1341 3275 1631 3429 
Q 1922 3584 2338 3584 
Q 2397 3584 2469 3576 
Q 2541 3569 2628 3553 
L 2631 2963 
z
" transform="scale(0.015625)"/>
       <path id="DejaVuSans-61" d="M 2194 1759 
Q 1497 1759 1228 1600 
Q 959 1441 959 1056 
Q 959 750 1161 570 
Q 1363 391 1709 391 
Q 2188 391 2477 730 
Q 2766 1069 2766 1631 
L 2766 1759 
L 2194 1759 
z
M 3341 1997 
L 3341 0 
L 2766 0 
L 2766 531 
Q 2569 213 2275 61 
Q 1981 -91 1556 -91 
Q 1019 -91 701 211 
Q 384 513 384 1019 
Q 384 1609 779 1909 
Q 1175 2209 1959 2209 
L 2766 2209 
L 2766 2266 
Q 2766 2663 2505 2880 
Q 2244 3097 1772 3097 
Q 1472 3097 1187 3025 
Q 903 2953 641 2809 
L 641 3341 
Q 956 3463 1253 3523 
Q 1550 3584 1831 3584 
Q 2591 3584 2966 3190 
Q 3341 2797 3341 1997 
z
" transform="scale(0.015625)"/>
       <path id="DejaVuSans-69" d="M 603 3500 
L 1178 3500 
L 1178 0 
L 603 0 
L 603 3500 
z
M 603 4863 
L 1178 4863 
L 1178 4134 
L 603 4134 
L 603 4863 
z
" transform="scale(0.015625)"/>
       <path id="DejaVuSans-6e" d="M 3513 2113 
L 3513 0 
L 2938 0 
L 2938 2094 
Q 2938 2591 2744 2837 
Q 2550 3084 2163 3084 
Q 1697 3084 1428 2787 
Q 1159 2491 1159 1978 
L 1159 0 
L 581 0 
L 581 3500 
L 1159 3500 
L 1159 2956 
Q 1366 3272 1645 3428 
Q 1925 3584 2291 3584 
Q 2894 3584 3203 3211 
Q 3513 2838 3513 2113 
z
" transform="scale(0.015625)"/>
      </defs>
      <use xlink:href="#DejaVuSans-53"/>
      <use xlink:href="#DejaVuSans-74" transform="translate(63.476562 0)"/>
      <use xlink:href="#DejaVuSans-72" transform="translate(102.685547 0)"/>
      <use xlink:href="#DejaVuSans-61" transform="translate(143.798828 0)"/>
      <use xlink:href="#DejaVuSans-69" transform="translate(205.078125 0)"/>
      <use xlink:href="#DejaVuSans-6e" transform="translate(232.861328 0)"/>
     </g>
    </g>
   </g>
   <g id="matplotlib.axis_2">
    <g id="ytick_1">
     <g id="line2d_7">
      <defs>
       <path id="mb74d2e0673" d="M 0 0 
L -3.5 0 
" style="stroke: #000000; stroke-width: 0.8"/>
      </defs>
      <g>
       <use xlink:href="#mb74d2e0673" x="57.6" y="306.738051" style="stroke: #000000; stroke-width: 0.8"/>
      </g>
     </g>
     <g id="text_8">
      <!-- −250 -->
      <g transform="translate(23.132812 310.53727) scale(0.1 -0.1)">
       <defs>
        <path id="DejaVuSans-2212" d="M 678 2272 
L 4684 2272 
L 4684 1741 
L 678 1741 
L 678 2272 
z
" transform="scale(0.015625)"/>
       </defs>
       <use xlink:href="#DejaVuSans-2212"/>
       <use xlink:href="#DejaVuSans-32" transform="translate(83.789062 0)"/>
       <use xlink:href="#DejaVuSans-35" transform="translate(147.412109 0)"/>
       <use xlink:href="#DejaVuSans-30" transform="translate(211.035156 0)"/>
      </g>
     </g>
    </g>
    <g id="ytick_2">
     <g id="line2d_8">
      <g>
       <use xlink:href="#mb74d2e0673" x="57.6" y="271.885928" style="stroke: #000000; stroke-width: 0.8"/>
      </g>
     </g>
     <g id="text_9">
      <!-- 0 -->
      <g transform="translate(44.2375 275.685146) scale(0.1 -0.1)">
       <use xlink:href="#DejaVuSans-30"/>
      </g>
     </g>
    </g>
    <g id="ytick_3">
     <g id="line2d_9">
      <g>
       <use xlink:href="#mb74d2e0673" x="57.6" y="237.033805" style="stroke: #000000; stroke-width: 0.8"/>
      </g>
     </g>
     <g id="text_10">
      <!-- 250 -->
      <g transform="translate(31.5125 240.833023) scale(0.1 -0.1)">
       <use xlink:href="#DejaVuSans-32"/>
       <use xlink:href="#DejaVuSans-35" transform="translate(63.623047 0)"/>
       <use xlink:href="#DejaVuSans-30" transform="translate(127.246094 0)"/>
      </g>
     </g>
    </g>
    <g id="ytick_4">
     <g id="line2d_10">
      <g>
       <use xlink:href="#mb74d2e0673" x="57.6" y="202.181681" style="stroke: #000000; stroke-width: 0.8"/>
      </g>
     </g>
     <g id="text_11">
      <!-- 500 -->
      <g transform="translate(31.5125 205.9809) scale(0.1 -0.1)">
       <use xlink:href="#DejaVuSans-35"/>
       <use xlink:href="#DejaVuSans-30" transform="translate(63.623047 0)"/>
       <use xlink:href="#DejaVuSans-30" transform="translate(127.246094 0)"/>
      </g>
     </g>
    </g>
    <g id="ytick_5">
     <g id="line2d_11">
      <g>
       <use xlink:href="#mb74d2e0673" x="57.6" y="167.329558" style="stroke: #000000; stroke-width: 0.8"/>
      </g>
     </g>
     <g id="text_12">
      <!-- 750 -->
      <g transform="translate(31.5125 171.128777) scale(0.1 -0.1)">
       <defs>
        <path id="DejaVuSans-37" d="M 525 4666 
L 3525 4666 
L 3525 4397 
L 1831 0 
L 1172 0 
L 2766 4134 
L 525 4134 
L 525 4666 
z
" transform="scale(0.015625)"/>
       </defs>
       <use xlink:href="#DejaVuSans-37"/>
       <use xlink:href="#DejaVuSans-35" transform="translate(63.623047 0)"/>
       <use xlink:href="#DejaVuSans-30" transform="translate(127.246094 0)"/>
      </g>
     </g>
    </g>
    <g id="ytick_6">
     <g id="line2d_12">
      <g>
       <use xlink:href="#mb74d2e0673" x="57.6" y="132.477435" style="stroke: #000000; stroke-width: 0.8"/>
      </g>
     </g>
     <g id="text_13">
      <!-- 1000 -->
      <g transform="translate(25.15 136.276654) scale(0.1 -0.1)">
       <use xlink:href="#DejaVuSans-31"/>
       <use xlink:href="#DejaVuSans-30" transform="translate(63.623047 0)"/>
       <use xlink:href="#DejaVuSans-30" transform="translate(127.246094 0)"/>
       <use xlink:href="#DejaVuSans-30" transform="translate(190.869141 0)"/>
      </g>
     </g>
    </g>
    <g id="ytick_7">
     <g id="line2d_13">
      <g>
       <use xlink:href="#mb74d2e0673" x="57.6" y="97.625312" style="stroke: #000000; stroke-width: 0.8"/>
      </g>
     </g>
     <g id="text_14">
      <!-- 1250 -->
      <g transform="translate(25.15 101.42453) scale(0.1 -0.1)">
       <use xlink:href="#DejaVuSans-31"/>
       <use xlink:href="#DejaVuSans-32" transform="translate(63.623047 0)"/>
       <use xlink:href="#DejaVuSans-35" transform="translate(127.246094 0)"/>
       <use xlink:href="#DejaVuSans-30" transform="translate(190.869141 0)"/>
      </g>
     </g>
    </g>
    <g id="ytick_8">
     <g id="line2d_14">
      <g>
       <use xlink:href="#mb74d2e0673" x="57.6" y="62.773189" style="stroke: #000000; stroke-width: 0.8"/>
      </g>
     </g>
     <g id="text_15">
      <!-- 1500 -->
      <g transform="translate(25.15 66.572407) scale(0.1 -0.1)">
       <use xlink:href="#DejaVuSans-31"/>
       <use xlink:href="#DejaVuSans-35" transform="translate(63.623047 0)"/>
       <use xlink:href="#DejaVuSans-30" transform="translate(127.246094 0)"/>
       <use xlink:href="#DejaVuSans-30" transform="translate(190.869141 0)"/>
      </g>
     </g>
    </g>
    <g id="text_16">
     <!-- Stress [Pa] -->
     <g transform="translate(17.053125 201.235813) rotate(-90) scale(0.1 -0.1)">
      <defs>
       <path id="DejaVuSans-65" d="M 3597 1894 
L 3597 1613 
L 953 1613 
Q 991 1019 1311 708 
Q 1631 397 2203 397 
Q 2534 397 2845 478 
Q 3156 559 3463 722 
L 3463 178 
Q 3153 47 2828 -22 
Q 2503 -91 2169 -91 
Q 1331 -91 842 396 
Q 353 884 353 1716 
Q 353 2575 817 3079 
Q 1281 3584 2069 3584 
Q 2775 3584 3186 3129 
Q 3597 2675 3597 1894 
z
M 3022 2063 
Q 3016 2534 2758 2815 
Q 2500 3097 2075 3097 
Q 1594 3097 1305 2825 
Q 1016 2553 972 2059 
L 3022 2063 
z
" transform="scale(0.015625)"/>
       <path id="DejaVuSans-73" d="M 2834 3397 
L 2834 2853 
Q 2591 2978 2328 3040 
Q 2066 3103 1784 3103 
Q 1356 3103 1142 2972 
Q 928 2841 928 2578 
Q 928 2378 1081 2264 
Q 1234 2150 1697 2047 
L 1894 2003 
Q 2506 1872 2764 1633 
Q 3022 1394 3022 966 
Q 3022 478 2636 193 
Q 2250 -91 1575 -91 
Q 1294 -91 989 -36 
Q 684 19 347 128 
L 347 722 
Q 666 556 975 473 
Q 1284 391 1588 391 
Q 1994 391 2212 530 
Q 2431 669 2431 922 
Q 2431 1156 2273 1281 
Q 2116 1406 1581 1522 
L 1381 1569 
Q 847 1681 609 1914 
Q 372 2147 372 2553 
Q 372 3047 722 3315 
Q 1072 3584 1716 3584 
Q 2034 3584 2315 3537 
Q 2597 3491 2834 3397 
z
" transform="scale(0.015625)"/>
       <path id="DejaVuSans-20" transform="scale(0.015625)"/>
       <path id="DejaVuSans-5b" d="M 550 4863 
L 1875 4863 
L 1875 4416 
L 1125 4416 
L 1125 -397 
L 1875 -397 
L 1875 -844 
L 550 -844 
L 550 4863 
z
" transform="scale(0.015625)"/>
       <path id="DejaVuSans-50" d="M 1259 4147 
L 1259 2394 
L 2053 2394 
Q 2494 2394 2734 2622 
Q 2975 2850 2975 3272 
Q 2975 3691 2734 3919 
Q 2494 4147 2053 4147 
L 1259 4147 
z
M 628 4666 
L 2053 4666 
Q 2838 4666 3239 4311 
Q 3641 3956 3641 3272 
Q 3641 2581 3239 2228 
Q 2838 1875 2053 1875 
L 1259 1875 
L 1259 0 
L 628 0 
L 628 4666 
z
" transform="scale(0.015625)"/>
       <path id="DejaVuSans-5d" d="M 1947 4863 
L 1947 -844 
L 622 -844 
L 622 -397 
L 1369 -397 
L 1369 4416 
L 622 4416 
L 622 4863 
L 1947 4863 
z
" transform="scale(0.015625)"/>
      </defs>
      <use xlink:href="#DejaVuSans-53"/>
      <use xlink:href="#DejaVuSans-74" transform="translate(63.476562 0)"/>
      <use xlink:href="#DejaVuSans-72" transform="translate(102.685547 0)"/>
      <use xlink:href="#DejaVuSans-65" transform="translate(141.548828 0)"/>
      <use xlink:href="#DejaVuSans-73" transform="translate(203.072266 0)"/>
      <use xlink:href="#DejaVuSans-73" transform="translate(255.171875 0)"/>
      <use xlink:href="#DejaVuSans-20" transform="translate(307.271484 0)"/>
      <use xlink:href="#DejaVuSans-5b" transform="translate(339.058594 0)"/>
      <use xlink:href="#DejaVuSans-50" transform="translate(378.072266 0)"/>
      <use xlink:href="#DejaVuSans-61" transform="translate(433.875 0)"/>
      <use xlink:href="#DejaVuSans-5d" transform="translate(495.154297 0)"/>
     </g>
    </g>
   </g>
   <g id="line2d_15">
    <path d="M 73.934276 287.245647 
L 73.934276 287.263377 
L 73.935664 287.011462 
L 74.217649 286.432978 
L 74.695197 282.572366 
L 75.179111 280.908977 
L 76.159668 281.311104 
L 76.69397 280.818574 
L 77.202106 279.638777 
L 78.177359 276.847999 
L 78.73889 276.212599 
L 79.224041 276.193437 
L 79.738188 276.474844 
L 80.84074 277.429299 
L 81.423487 278.072824 
L 83.714871 281.153947 
L 84.792671 282.211864 
L 85.40017 282.556649 
L 85.997062 282.52882 
L 86.585467 282.015299 
L 88.901604 278.383821 
L 89.482936 277.923928 
L 90.067098 277.792839 
L 90.652674 278.031182 
L 91.237543 278.656832 
L 92.386064 280.24127 
L 92.940522 280.451394 
L 93.480129 280.175269 
L 94.005591 279.531743 
L 95.519744 276.87097 
L 96.992878 274.148445 
L 97.985104 272.828351 
L 98.48814 272.44023 
L 98.996629 272.267906 
L 99.509361 272.386383 
L 101.048267 273.226 
L 101.553927 273.282268 
L 102.054637 273.182936 
L 103.039083 272.659123 
L 108.663583 268.223509 
L 117.256274 263.49755 
L 118.964204 262.757874 
L 129.175009 256.619463 
L 130.324945 255.959687 
L 132.05692 255.144988 
L 141.241552 250.140329 
L 144.646097 247.906407 
L 150.371021 244.514084 
L 151.523786 243.984855 
L 155.554217 241.504193 
L 157.641675 240.280388 
L 160.91892 238.327602 
L 163.273247 236.891045 
L 167.513015 234.566934 
L 172.174992 231.561918 
L 174.504566 230.098006 
L 182.003899 225.769375 
L 183.408433 224.922445 
L 186.211842 223.173605 
L 188.082432 221.887095 
L 190.426858 220.441871 
L 191.835635 219.463582 
L 199.331432 215.103533 
L 202.221829 213.223062 
L 206.245189 210.541164 
L 210.849882 207.5784 
L 217.741671 203.289439 
L 220.586806 201.314715 
L 222.287664 200.15171 
L 225.696452 197.633943 
L 227.411454 196.409186 
L 229.706374 194.914126 
L 232.578384 192.959715 
L 234.303995 191.788585 
L 236.608109 190.237732 
L 239.381815 188.131106 
L 248.922885 181.658744 
L 251.93846 179.409654 
L 259.440622 174.046399 
L 262.256762 172.258557 
L 269.573633 166.407241 
L 271.909572 164.630503 
L 273.787455 163.253481 
L 276.134709 161.668501 
L 279.873061 158.68759 
L 280.805173 157.974729 
L 283.140405 156.084778 
L 285.487659 154.31725 
L 287.840572 152.57518 
L 292.623483 148.942619 
L 294.925475 146.997416 
L 297.215445 145.074423 
L 301.785484 141.347608 
L 304.639813 139.085518 
L 313.202094 132.148116 
L 323.721953 123.109506 
L 325.917863 121.341977 
L 327.637108 119.726121 
L 331.647097 116.118156 
L 333.374122 114.664806 
L 339.167647 109.558853 
L 341.031164 107.995541 
L 348.012107 101.465489 
L 349.888355 99.788422 
L 355.486688 94.372623 
L 361.266775 88.384801 
L 363.602714 86.081543 
L 369.738532 80.365106 
L 372.553258 77.543994 
L 376.285244 73.597795 
L 378.618354 71.174824 
L 383.287403 66.51793 
L 386.525752 63.189255 
L 388.240754 61.739156 
L 391.001355 59.807614 
L 392.541674 59.009436 
L 394.993597 58.022887 
L 396.005978 57.419446 
L 396.501384 57.012096 
L 396.996613 56.453074 
L 397.465145 55.679543 
L 397.935975 54.566916 
L 398.267107 54.083814 
L 398.487273 57.295755 
L 398.373433 83.92173 
L 398.366714 83.872707 
L 397.897299 84.374057 
L 396.95029 86.967524 
L 396.463194 86.92099 
L 395.977336 87.0556 
L 395.498196 87.36619 
L 395.000492 87.831094 
L 394.534613 88.004231 
L 394.040445 88.425563 
L 393.569615 88.504328 
L 393.074209 89.696584 
L 392.598959 91.15535 
L 392.103023 92.247665 
L 391.117869 92.61977 
L 390.16949 93.429324 
L 389.222968 94.253231 
L 388.280822 96.818311 
L 387.335184 97.86289 
L 386.865592 98.226566 
L 385.921633 99.321047 
L 384.507375 101.234967 
L 383.099571 102.929638 
L 382.138197 104.148979 
L 380.709087 105.851843 
L 380.232246 106.217551 
L 378.795534 108.025706 
L 377.858206 109.350946 
L 373.114678 114.689623 
L 372.150033 115.895962 
L 370.731355 117.386891 
L 369.775463 118.748967 
L 367.887546 120.481286 
L 366.468337 122.225522 
L 364.57768 124.007321 
L 363.624881 125.125501 
L 360.307943 128.516266 
L 358.423739 130.22679 
L 357.939296 131.134931 
L 355.546249 133.075868 
L 355.073474 133.844929 
L 354.597517 134.072709 
L 353.15181 135.388969 
L 352.194149 136.835599 
L 351.713418 136.946002 
L 350.275822 138.057817 
L 349.800925 139.057164 
L 349.324084 139.513765 
L 348.846005 139.739327 
L 347.414067 140.931896 
L 346.938905 141.884049 
L 345.988051 142.466465 
L 345.033838 142.952537 
L 344.561328 143.973103 
L 344.085902 144.481308 
L 342.658671 145.270768 
L 342.177056 145.299511 
L 341.69491 146.663889 
L 340.741227 147.408016 
L 339.313444 147.94367 
L 338.829619 149.209663 
L 338.355695 149.603622 
L 337.387514 150.10184 
L 336.430207 150.56539 
L 335.9592 151.722436 
L 335.476348 152.101753 
L 333.580651 153.054244 
L 333.116363 154.248938 
L 332.633776 154.613054 
L 330.740444 155.359221 
L 330.260686 156.496766 
L 329.787911 156.877302 
L 328.819377 157.30158 
L 327.874976 157.835388 
L 327.401317 159.096167 
L 326.931018 159.506996 
L 325.975214 159.81514 
L 325.507566 160.123022 
L 325.033907 160.145197 
L 324.077926 161.748798 
L 323.601792 161.806403 
L 322.164019 162.580679 
L 321.224127 164.033876 
L 320.759132 164.016212 
L 319.347968 164.65201 
L 318.870861 165.18432 
L 318.404186 166.460402 
L 317.93424 166.480115 
L 316.491694 167.046551 
L 316.027405 167.359258 
L 315.553128 168.497074 
L 315.082563 168.59374 
L 313.641254 169.334685 
L 313.16954 169.944075 
L 312.688809 170.86806 
L 311.740431 171.143644 
L 310.770482 171.502301 
L 309.809992 173.203219 
L 309.323957 173.218742 
L 308.376816 173.547445 
L 307.898472 173.621377 
L 307.425962 174.127728 
L 306.961144 175.416811 
L 306.478998 175.334237 
L 305.525493 175.718802 
L 305.041225 175.877297 
L 304.577468 175.908884 
L 304.095322 177.528803 
L 303.134656 177.636243 
L 302.18062 178.116924 
L 301.70864 177.97523 
L 301.233125 179.278769 
L 300.75425 179.849581 
L 300.277586 179.796758 
L 299.318599 180.341629 
L 298.834509 180.366157 
L 298.367127 181.397007 
L 297.891611 181.846058 
L 296.949951 181.95101 
L 296.484249 182.155531 
L 296.017397 182.1713 
L 295.07167 184.11282 
L 294.58369 184.013471 
L 294.098893 184.064441 
L 293.148746 184.344671 
L 292.675795 184.378349 
L 292.207352 185.927307 
L 290.779568 186.338143 
L 290.31581 186.571137 
L 289.834195 186.473549 
L 289.368581 187.873948 
L 288.900668 188.23131 
L 288.432844 188.164936 
L 287.475448 188.54141 
L 286.999668 188.522738 
L 286.52654 189.187254 
L 286.062959 190.437471 
L 285.119796 190.392917 
L 284.174246 190.793462 
L 283.704831 190.725979 
L 283.240719 192.091033 
L 282.767237 192.814526 
L 281.823102 192.604249 
L 280.890459 192.75924 
L 280.416358 192.749379 
L 279.94933 194.383653 
L 279.467714 194.795057 
L 278.522165 194.791155 
L 278.03666 194.896826 
L 277.555487 194.775082 
L 277.084215 195.497008 
L 276.609319 196.841885 
L 275.659968 196.849511 
L 274.696738 197.125696 
L 274.215123 196.975953 
L 273.738458 198.27289 
L 273.267363 198.742737 
L 272.786411 198.689414 
L 272.312398 198.830355 
L 271.841745 199.100454 
L 271.36791 199.154775 
L 270.901942 199.774543 
L 270.420503 200.874542 
L 269.465053 200.74656 
L 268.034971 201.046126 
L 267.554505 202.400889 
L 267.089598 202.704797 
L 266.134324 202.818573 
L 265.668621 203.007689 
L 265.203714 202.981908 
L 264.740045 203.898106 
L 264.25569 204.602572 
L 262.83878 204.724346 
L 262.370778 204.830627 
L 261.904722 205.30749 
L 261.439771 206.389563 
L 260.963637 206.510567 
L 259.998108 206.542188 
L 259.064836 206.831107 
L 258.581718 208.092157 
L 258.097185 208.602935 
L 257.631659 208.665069 
L 256.193179 208.56401 
L 255.7273 209.270067 
L 255.249928 210.246866 
L 254.764247 210.398704 
L 253.827537 210.452687 
L 252.884993 210.799274 
L 252.4055 211.829023 
L 251.931045 212.166664 
L 251.444657 212.270605 
L 250.972766 212.171493 
L 250.011481 212.394529 
L 249.067113 214.166675 
L 248.582669 214.225816 
L 247.621384 214.129565 
L 247.143482 214.218034 
L 246.665315 214.498819 
L 246.193512 215.686199 
L 245.71172 215.940556 
L 244.754325 215.855642 
L 243.805328 215.861685 
L 243.33715 216.931113 
L 242.864021 217.675393 
L 240.954711 217.648152 
L 240.484854 218.092086 
L 240.00925 219.102335 
L 239.528254 219.326797 
L 238.108636 219.420408 
L 237.633828 219.660502 
L 237.159639 220.426314 
L 236.686687 220.864405 
L 234.783123 221.545738 
L 234.312735 222.201317 
L 233.843497 222.59658 
L 231.944088 223.182229 
L 230.998715 224.142981 
L 230.528592 224.422695 
L 229.569075 224.63433 
L 229.083658 224.842 
L 228.130241 225.725426 
L 226.216522 226.433137 
L 225.270088 227.349945 
L 223.831078 227.826051 
L 223.349197 227.961803 
L 222.870765 228.383372 
L 222.38747 229.0076 
L 220.958361 229.524015 
L 220.021121 230.03817 
L 219.537473 230.675737 
L 219.073892 230.919124 
L 218.107302 231.096371 
L 217.637533 231.23704 
L 217.165819 231.604745 
L 216.701973 232.186654 
L 216.236005 232.521413 
L 215.298765 232.706962 
L 214.366443 233.056906 
L 213.430794 234.121526 
L 211.523252 234.808514 
L 211.049416 235.196295 
L 210.577437 235.730535 
L 210.110674 235.954269 
L 209.152925 235.955162 
L 208.667773 236.107072 
L 208.183595 236.477857 
L 207.699946 237.057735 
L 207.231238 237.257736 
L 206.280915 237.280656 
L 205.343233 237.818485 
L 204.871519 238.572244 
L 204.396976 238.878907 
L 203.919958 238.999759 
L 202.956518 238.942935 
L 202.478262 239.076376 
L 201.996735 239.71137 
L 201.515828 240.118584 
L 201.029439 240.101817 
L 199.596616 240.531937 
L 198.65363 241.729203 
L 197.718689 242.021935 
L 197.23124 242.071347 
L 196.759172 242.251615 
L 195.3252 243.273713 
L 194.856315 243.475153 
L 194.386723 243.519572 
L 193.903517 243.724398 
L 192.011622 244.961377 
L 191.057442 245.231324 
L 189.152021 246.281242 
L 186.771528 247.466795 
L 183.456446 249.037107 
L 181.542893 250.136548 
L 180.119607 250.611632 
L 179.6486 250.856813 
L 179.163449 251.29206 
L 178.209236 251.704242 
L 176.785077 252.065375 
L 175.341204 253.038992 
L 173.895563 253.670397 
L 172.933482 254.375065 
L 171.01542 254.979259 
L 170.078004 255.833027 
L 169.614423 256.029099 
L 168.17265 256.237164 
L 167.228249 256.835323 
L 166.752734 257.258788 
L 163.456576 258.680313 
L 162.042495 259.168086 
L 159.687726 260.600319 
L 157.787787 261.187371 
L 156.840557 261.801621 
L 151.633316 264.105455 
L 150.703679 264.65537 
L 150.219235 264.785765 
L 148.786943 265.485522 
L 147.840332 265.798366 
L 146.407687 266.565389 
L 145.477491 266.84602 
L 144.056515 267.450485 
L 143.572248 267.79097 
L 142.13642 268.135128 
L 139.749561 269.366377 
L 138.798707 269.65569 
L 136.424048 270.964476 
L 135.958169 271.078193 
L 135.026056 271.442698 
L 133.158776 272.260428 
L 129.367472 274.040424 
L 128.412021 274.445575 
L 127.45993 274.955981 
L 126.992812 275.048083 
L 126.064413 275.585031 
L 124.66536 276.014302 
L 118.991488 278.563757 
L 118.518713 278.60289 
L 110.886246 281.921987 
L 110.420281 281.974882 
L 109.463946 282.504044 
L 108.984276 282.829632 
L 107.094768 283.299896 
L 106.613153 283.542725 
L 106.132422 283.986367 
L 105.1798 284.242947 
L 103.754315 284.474938 
L 102.798953 285.338694 
L 101.855348 285.545346 
L 97.605502 287.386504 
L 97.130694 287.693032 
L 94.758333 288.162339 
L 94.282022 288.746076 
L 93.806772 288.996531 
L 91.890036 289.363491 
L 90.474894 290.341534 
L 89.503178 290.419935 
L 88.546401 290.658794 
L 88.065139 291.051924 
L 87.58043 291.65286 
L 86.137475 291.58203 
L 85.190953 291.74705 
L 84.70978 292.674285 
L 84.245491 292.852462 
L 83.291986 292.533448 
L 82.808249 292.641227 
L 82.329551 292.550799 
L 81.860666 293.13774 
L 81.386123 294.194235 
L 80.908928 293.973383 
L 80.432794 293.879865 
L 79.479112 293.91207 
L 79.01279 293.749301 
L 78.534357 294.68324 
L 78.06724 295.244767 
L 77.099767 294.95738 
L 75.670498 294.797163 
L 75.200818 295.201737 
L 74.733258 295.305134 
L 74.018394 295.350149 
L 73.914676 295.488 
L 73.833109 294.036041 
L 73.833109 294.036041 
" clip-path="url(#p301586d3bb)" style="fill: none; stroke: #ff0000; stroke-width: 1.5; stroke-linecap: square"/>
   </g>
   <g id="line2d_16">
    <path d="M 73.934276 287.245647 
L 73.934276 287.263377 
L 73.935664 287.011462 
L 74.217649 286.432978 
L 74.695197 282.572366 
L 75.179111 280.908977 
L 76.159668 281.311104 
L 76.69397 280.818574 
L 77.202106 279.638777 
L 77.666041 285.940769 
L 78.177359 284.415375 
L 78.73889 283.390501 
L 79.224041 282.846443 
L 79.738188 282.53091 
L 80.278502 282.371653 
L 80.84074 282.33861 
L 82.633536 282.930676 
L 83.714871 282.860256 
L 84.792671 282.644122 
L 85.997062 282.52882 
L 86.585467 282.015299 
L 88.901604 278.383821 
L 89.482936 277.923928 
L 90.067098 277.792839 
L 90.652674 278.031182 
L 91.237543 278.656832 
L 92.386064 280.24127 
L 92.940522 280.451394 
L 93.480129 280.175269 
L 94.005591 279.531743 
L 95.519744 276.87097 
L 96.992878 274.148445 
L 97.985104 272.828351 
L 98.48814 272.44023 
L 98.996629 272.267906 
L 99.509361 272.386383 
L 101.048267 273.226 
L 101.553927 273.282268 
L 102.054637 273.182936 
L 103.039083 272.659123 
L 108.663583 268.223509 
L 117.256274 263.49755 
L 118.964204 262.757874 
L 129.175009 256.619463 
L 130.324945 255.959687 
L 132.05692 255.144988 
L 141.241552 250.140329 
L 144.646097 247.906407 
L 150.371021 244.514084 
L 151.523786 243.984855 
L 155.554217 241.504193 
L 157.641675 240.280388 
L 160.91892 238.327602 
L 163.273247 236.891045 
L 167.513015 234.566934 
L 172.174992 231.561918 
L 174.504566 230.098006 
L 182.003899 225.769375 
L 183.408433 224.922445 
L 186.211842 223.173605 
L 188.082432 221.887095 
L 190.426858 220.441871 
L 191.835635 219.463582 
L 199.331432 215.103533 
L 202.221829 213.223062 
L 206.245189 210.541164 
L 210.849882 207.5784 
L 217.741671 203.289439 
L 220.586806 201.314715 
L 222.287664 200.15171 
L 225.696452 197.633943 
L 227.411454 196.409186 
L 229.706374 194.914126 
L 232.578384 192.959715 
L 234.303995 191.788585 
L 236.608109 190.237732 
L 239.381815 188.131106 
L 248.922885 181.658744 
L 251.93846 179.409654 
L 259.440622 174.046399 
L 262.256762 172.258557 
L 269.573633 166.407241 
L 271.909572 164.630503 
L 273.787455 163.253481 
L 276.134709 161.668501 
L 279.873061 158.68759 
L 280.805173 157.974729 
L 283.140405 156.084778 
L 285.487659 154.31725 
L 287.840572 152.57518 
L 292.623483 148.942619 
L 294.925475 146.997416 
L 297.215445 145.074423 
L 301.785484 141.347608 
L 304.639813 139.085518 
L 313.202094 132.148116 
L 323.721953 123.109506 
L 325.917863 121.341977 
L 327.637108 119.726121 
L 331.647097 116.118156 
L 333.374122 114.664806 
L 339.167647 109.558853 
L 341.031164 107.995541 
L 348.012107 101.465489 
L 349.888355 99.788422 
L 355.486688 94.372623 
L 361.266775 88.384801 
L 363.602714 86.081543 
L 369.738532 80.365106 
L 372.553258 77.543994 
L 376.285244 73.597795 
L 378.618354 71.174824 
L 382.822054 66.963492 
L 384.794483 64.870671 
L 393.025411 55.998546 
L 394.993597 54.288436 
L 396.005978 53.765987 
L 396.501384 53.575448 
L 396.996613 53.568 
L 397.935975 54.398611 
L 398.267107 53.924084 
L 398.487273 57.218962 
L 398.373433 83.92173 
L 398.366714 83.872707 
L 397.897299 84.374057 
L 396.95029 86.967524 
L 396.463194 86.92099 
L 395.977336 87.0556 
L 395.498196 87.36619 
L 395.000492 87.831094 
L 394.534613 88.004231 
L 394.040445 88.425563 
L 393.569615 88.504328 
L 393.074209 89.696584 
L 392.598959 91.15535 
L 392.103023 92.247665 
L 391.117869 92.61977 
L 390.16949 93.429324 
L 389.222968 94.253231 
L 388.280822 96.818311 
L 387.335184 97.86289 
L 386.865592 98.226566 
L 385.921633 99.321047 
L 384.507375 101.234967 
L 383.099571 102.929638 
L 382.138197 104.148979 
L 380.709087 105.851843 
L 380.232246 106.217551 
L 378.795534 108.025706 
L 377.858206 109.350946 
L 373.114678 114.689623 
L 372.150033 115.895962 
L 370.731355 117.386891 
L 369.775463 118.748967 
L 367.887546 120.481286 
L 366.468337 122.225522 
L 364.57768 124.007321 
L 363.624881 125.125501 
L 360.307943 128.516266 
L 358.423739 130.22679 
L 357.939296 131.134931 
L 355.546249 133.075868 
L 355.073474 133.844929 
L 354.597517 134.072709 
L 353.15181 135.388969 
L 352.194149 136.835599 
L 351.713418 136.946002 
L 350.275822 138.057817 
L 349.800925 139.057164 
L 349.324084 139.513765 
L 348.846005 139.739327 
L 347.414067 140.931896 
L 346.938905 141.884049 
L 345.988051 142.466465 
L 345.033838 142.952537 
L 344.561328 143.973103 
L 344.085902 144.481308 
L 342.658671 145.270768 
L 342.177056 145.299511 
L 341.69491 146.663889 
L 340.741227 147.408016 
L 339.313444 147.94367 
L 338.829619 149.209663 
L 338.355695 149.603622 
L 337.387514 150.10184 
L 336.430207 150.56539 
L 335.9592 151.722436 
L 335.476348 152.101753 
L 333.580651 153.054244 
L 333.116363 154.248938 
L 332.633776 154.613054 
L 330.740444 155.359221 
L 330.260686 156.496766 
L 329.787911 156.877302 
L 328.819377 157.30158 
L 327.874976 157.835388 
L 327.401317 159.096167 
L 326.931018 159.506996 
L 325.975214 159.81514 
L 325.507566 160.123022 
L 325.033907 160.145197 
L 324.077926 161.748798 
L 323.601792 161.806403 
L 322.164019 162.580679 
L 321.224127 164.033876 
L 320.759132 164.016212 
L 319.347968 164.65201 
L 318.870861 165.18432 
L 318.404186 166.460402 
L 317.93424 166.480115 
L 316.491694 167.046551 
L 316.027405 167.359258 
L 315.553128 168.497074 
L 315.082563 168.59374 
L 313.641254 169.334685 
L 313.16954 169.944075 
L 312.688809 170.86806 
L 311.740431 171.143644 
L 310.770482 171.502301 
L 309.809992 173.203219 
L 309.323957 173.218742 
L 308.376816 173.547445 
L 307.898472 173.621377 
L 307.425962 174.127728 
L 306.961144 175.416811 
L 306.478998 175.334237 
L 305.525493 175.718802 
L 305.041225 175.877297 
L 304.577468 175.908884 
L 304.095322 177.528803 
L 303.134656 177.636243 
L 302.18062 178.116924 
L 301.70864 177.97523 
L 301.233125 179.278769 
L 300.75425 179.849581 
L 300.277586 179.796758 
L 299.318599 180.341629 
L 298.834509 180.366157 
L 298.367127 181.397007 
L 297.891611 181.846058 
L 296.949951 181.95101 
L 296.484249 182.155531 
L 296.017397 182.1713 
L 295.07167 184.11282 
L 294.58369 184.013471 
L 294.098893 184.064441 
L 293.148746 184.344671 
L 292.675795 184.378349 
L 292.207352 185.927307 
L 290.779568 186.338143 
L 290.31581 186.571137 
L 289.834195 186.473549 
L 289.368581 187.873948 
L 288.900668 188.23131 
L 288.432844 188.164936 
L 287.475448 188.54141 
L 286.999668 188.522738 
L 286.52654 189.187254 
L 286.062959 190.437471 
L 285.119796 190.392917 
L 284.174246 190.793462 
L 283.704831 190.725979 
L 283.240719 192.091033 
L 282.767237 192.814526 
L 281.823102 192.604249 
L 280.890459 192.75924 
L 280.416358 192.749379 
L 279.94933 194.383653 
L 279.467714 194.795057 
L 278.522165 194.791155 
L 278.03666 194.896826 
L 277.555487 194.775082 
L 277.084215 195.497008 
L 276.609319 196.841885 
L 275.659968 196.849511 
L 274.696738 197.125696 
L 274.215123 196.975953 
L 273.738458 198.27289 
L 273.267363 198.742737 
L 272.786411 198.689414 
L 272.312398 198.830355 
L 271.841745 199.100454 
L 271.36791 199.154775 
L 270.901942 199.774543 
L 270.420503 200.874542 
L 269.465053 200.74656 
L 268.034971 201.046126 
L 267.554505 202.400889 
L 267.089598 202.704797 
L 266.134324 202.818573 
L 265.668621 203.007689 
L 265.203714 202.981908 
L 264.740045 203.898106 
L 264.25569 204.602572 
L 262.83878 204.724346 
L 262.370778 204.830627 
L 261.904722 205.30749 
L 261.439771 206.389563 
L 260.963637 206.510567 
L 259.998108 206.542188 
L 259.064836 206.831107 
L 258.581718 208.092157 
L 258.097185 208.602935 
L 257.631659 208.665069 
L 256.193179 208.56401 
L 255.7273 209.270067 
L 255.249928 210.246866 
L 254.764247 210.398704 
L 253.827537 210.452687 
L 252.884993 210.799274 
L 252.4055 211.829023 
L 251.931045 212.166664 
L 251.444657 212.270605 
L 250.972766 212.171493 
L 250.011481 212.394529 
L 249.067113 214.166675 
L 248.582669 214.225816 
L 247.621384 214.129565 
L 247.143482 214.218034 
L 246.665315 214.498819 
L 246.193512 215.686199 
L 245.71172 215.940556 
L 244.754325 215.855642 
L 243.805328 215.861685 
L 243.33715 216.931113 
L 242.864021 217.675393 
L 240.954711 217.648152 
L 240.484854 218.092086 
L 240.00925 219.102335 
L 239.528254 219.326797 
L 238.108636 219.420408 
L 237.633828 219.660502 
L 237.159639 220.426314 
L 236.686687 220.864405 
L 234.783123 221.545738 
L 234.312735 222.201317 
L 233.843497 222.59658 
L 231.944088 223.182229 
L 230.998715 224.142981 
L 230.528592 224.422695 
L 229.569075 224.63433 
L 229.083658 224.842 
L 228.130241 225.725426 
L 226.216522 226.433137 
L 225.270088 227.349945 
L 223.831078 227.826051 
L 223.349197 227.961803 
L 222.870765 228.383372 
L 222.38747 229.0076 
L 220.958361 229.524015 
L 220.021121 230.03817 
L 219.537473 230.675737 
L 219.073892 230.919124 
L 218.107302 231.096371 
L 217.637533 231.23704 
L 217.165819 231.604745 
L 216.701973 232.186654 
L 216.236005 232.521413 
L 215.298765 232.706962 
L 214.366443 233.056906 
L 213.430794 234.121526 
L 211.523252 234.808514 
L 211.049416 235.196295 
L 210.577437 235.730535 
L 210.110674 235.954269 
L 209.152925 235.955162 
L 208.667773 236.107072 
L 208.183595 236.477857 
L 207.699946 237.057735 
L 207.231238 237.257736 
L 206.280915 237.280656 
L 205.343233 237.818485 
L 204.871519 238.572244 
L 204.396976 238.878907 
L 203.919958 238.999759 
L 202.956518 238.942935 
L 202.478262 239.076376 
L 201.996735 239.71137 
L 201.515828 240.118584 
L 201.029439 240.101817 
L 199.596616 240.531937 
L 198.65363 241.729203 
L 197.718689 242.021935 
L 197.23124 242.071347 
L 196.759172 242.251615 
L 195.3252 243.273713 
L 194.856315 243.475153 
L 194.386723 243.519572 
L 193.903517 243.724398 
L 192.011622 244.961377 
L 191.057442 245.231324 
L 189.152021 246.281242 
L 186.771528 247.466795 
L 183.456446 249.037107 
L 181.542893 250.136548 
L 180.119607 250.611632 
L 179.6486 250.856813 
L 179.163449 251.29206 
L 178.209236 251.704242 
L 176.785077 252.065375 
L 175.341204 253.038992 
L 173.895563 253.670397 
L 172.933482 254.375065 
L 171.01542 254.979259 
L 170.078004 255.833027 
L 169.614423 256.029099 
L 168.17265 256.237164 
L 167.228249 256.835323 
L 166.752734 257.258788 
L 163.456576 258.680313 
L 162.042495 259.168086 
L 159.687726 260.600319 
L 157.787787 261.187371 
L 156.840557 261.801621 
L 151.633316 264.105455 
L 150.703679 264.65537 
L 150.219235 264.785765 
L 148.786943 265.485522 
L 147.840332 265.798366 
L 146.407687 266.565389 
L 145.477491 266.84602 
L 144.056515 267.450485 
L 143.572248 267.79097 
L 142.13642 268.135128 
L 139.749561 269.366377 
L 138.798707 269.65569 
L 136.424048 270.964476 
L 135.958169 271.078193 
L 135.026056 271.442698 
L 133.158776 272.260428 
L 129.367472 274.040424 
L 128.412021 274.445575 
L 127.45993 274.955981 
L 126.992812 275.048083 
L 126.064413 275.585031 
L 124.66536 276.014302 
L 118.991488 278.563757 
L 118.518713 278.60289 
L 110.886246 281.921987 
L 110.420281 281.974882 
L 109.463946 282.504044 
L 108.984276 282.829632 
L 107.094768 283.299896 
L 106.613153 283.542725 
L 106.132422 283.986367 
L 105.1798 284.242947 
L 103.754315 284.474938 
L 102.798953 285.338694 
L 101.855348 285.545346 
L 97.605502 287.386504 
L 97.130694 287.693032 
L 94.758333 288.162339 
L 94.282022 288.746076 
L 93.806772 288.996531 
L 91.890036 289.363491 
L 90.474894 290.341534 
L 89.503178 290.419935 
L 88.546401 290.658794 
L 88.065139 291.051924 
L 87.58043 291.65286 
L 86.137475 291.58203 
L 85.190953 291.74705 
L 84.70978 292.674285 
L 84.245491 292.852462 
L 83.291986 292.533448 
L 82.808249 292.641227 
L 82.329551 292.550799 
L 81.860666 293.13774 
L 81.386123 294.194235 
L 80.908928 293.973383 
L 80.432794 293.879865 
L 79.479112 293.91207 
L 79.01279 293.749301 
L 78.534357 294.68324 
L 78.06724 295.244767 
L 77.099767 294.95738 
L 75.670498 294.797163 
L 75.200818 295.201737 
L 74.733258 295.305134 
L 74.018394 295.350149 
L 73.914676 295.488 
L 73.833109 294.036041 
L 73.833109 294.036041 
" clip-path="url(#p301586d3bb)" style="fill: none; stroke: #000000; stroke-width: 1.5; stroke-linecap: square"/>
   </g>
   <g id="patch_3">
    <path d="M 57.6 307.584 
L 57.6 41.472 
" style="fill: none; stroke: #000000; stroke-width: 0.8; stroke-linejoin: miter; stroke-linecap: square"/>
   </g>
   <g id="patch_4">
    <path d="M 414.72 307.584 
L 414.72 41.472 
" style="fill: none; stroke: #000000; stroke-width: 0.8; stroke-linejoin: miter; stroke-linecap: square"/>
   </g>
   <g id="patch_5">
    <path d="M 57.6 307.584 
L 414.72 307.584 
" style="fill: none; stroke: #000000; stroke-width: 0.8; stroke-linejoin: miter; stroke-linecap: square"/>
   </g>
   <g id="patch_6">
    <path d="M 57.6 41.472 
L 414.72 41.472 
" style="fill: none; stroke: #000000; stroke-width: 0.8; stroke-linejoin: miter; stroke-linecap: square"/>
   </g>
   <g id="text_17">
    <!-- 2025-06-16 trial 18 -->
    <g transform="translate(178.0125 35.472) scale(0.12 -0.12)">
     <defs>
      <path id="DejaVuSans-2d" d="M 313 2009 
L 1997 2009 
L 1997 1497 
L 313 1497 
L 313 2009 
z
" transform="scale(0.015625)"/>
      <path id="DejaVuSans-36" d="M 2113 2584 
Q 1688 2584 1439 2293 
Q 1191 2003 1191 1497 
Q 1191 994 1439 701 
Q 1688 409 2113 409 
Q 2538 409 2786 701 
Q 3034 994 3034 1497 
Q 3034 2003 2786 2293 
Q 2538 2584 2113 2584 
z
M 3366 4563 
L 3366 3988 
Q 3128 4100 2886 4159 
Q 2644 4219 2406 4219 
Q 1781 4219 1451 3797 
Q 1122 3375 1075 2522 
Q 1259 2794 1537 2939 
Q 1816 3084 2150 3084 
Q 2853 3084 3261 2657 
Q 3669 2231 3669 1497 
Q 3669 778 3244 343 
Q 2819 -91 2113 -91 
Q 1303 -91 875 529 
Q 447 1150 447 2328 
Q 447 3434 972 4092 
Q 1497 4750 2381 4750 
Q 2619 4750 2861 4703 
Q 3103 4656 3366 4563 
z
" transform="scale(0.015625)"/>
      <path id="DejaVuSans-6c" d="M 603 4863 
L 1178 4863 
L 1178 0 
L 603 0 
L 603 4863 
z
" transform="scale(0.015625)"/>
      <path id="DejaVuSans-38" d="M 2034 2216 
Q 1584 2216 1326 1975 
Q 1069 1734 1069 1313 
Q 1069 891 1326 650 
Q 1584 409 2034 409 
Q 2484 409 2743 651 
Q 3003 894 3003 1313 
Q 3003 1734 2745 1975 
Q 2488 2216 2034 2216 
z
M 1403 2484 
Q 997 2584 770 2862 
Q 544 3141 544 3541 
Q 544 4100 942 4425 
Q 1341 4750 2034 4750 
Q 2731 4750 3128 4425 
Q 3525 4100 3525 3541 
Q 3525 3141 3298 2862 
Q 3072 2584 2669 2484 
Q 3125 2378 3379 2068 
Q 3634 1759 3634 1313 
Q 3634 634 3220 271 
Q 2806 -91 2034 -91 
Q 1263 -91 848 271 
Q 434 634 434 1313 
Q 434 1759 690 2068 
Q 947 2378 1403 2484 
z
M 1172 3481 
Q 1172 3119 1398 2916 
Q 1625 2713 2034 2713 
Q 2441 2713 2670 2916 
Q 2900 3119 2900 3481 
Q 2900 3844 2670 4047 
Q 2441 4250 2034 4250 
Q 1625 4250 1398 4047 
Q 1172 3844 1172 3481 
z
" transform="scale(0.015625)"/>
     </defs>
     <use xlink:href="#DejaVuSans-32"/>
     <use xlink:href="#DejaVuSans-30" transform="translate(63.623047 0)"/>
     <use xlink:href="#DejaVuSans-32" transform="translate(127.246094 0)"/>
     <use xlink:href="#DejaVuSans-35" transform="translate(190.869141 0)"/>
     <use xlink:href="#DejaVuSans-2d" transform="translate(254.492188 0)"/>
     <use xlink:href="#DejaVuSans-30" transform="translate(290.576172 0)"/>
     <use xlink:href="#DejaVuSans-36" transform="translate(354.199219 0)"/>
     <use xlink:href="#DejaVuSans-2d" transform="translate(417.822266 0)"/>
     <use xlink:href="#DejaVuSans-31" transform="translate(453.90625 0)"/>
     <use xlink:href="#DejaVuSans-36" transform="translate(517.529297 0)"/>
     <use xlink:href="#DejaVuSans-20" transform="translate(581.152344 0)"/>
     <use xlink:href="#DejaVuSans-74" transform="translate(612.939453 0)"/>
     <use xlink:href="#DejaVuSans-72" transform="translate(652.148438 0)"/>
     <use xlink:href="#DejaVuSans-69" transform="translate(693.261719 0)"/>
     <use xlink:href="#DejaVuSans-61" transform="translate(721.044922 0)"/>
     <use xlink:href="#DejaVuSans-6c" transform="translate(782.324219 0)"/>
     <use xlink:href="#DejaVuSans-20" transform="translate(810.107422 0)"/>
     <use xlink:href="#DejaVuSans-31" transform="translate(841.894531 0)"/>
     <use xlink:href="#DejaVuSans-38" transform="translate(905.517578 0)"/>
    </g>
   </g>
  </g>
 </g>
 <defs>
  <clipPath id="p301586d3bb">
   <rect x="57.6" y="41.472" width="357.12" height="266.112"/>
  </clipPath>
 </defs>
</svg>
