<?xml version="1.0" encoding="utf-8" standalone="no"?>
<!DOCTYPE svg PUBLIC "-//W3C//DTD SVG 1.1//EN"
  "http://www.w3.org/Graphics/SVG/1.1/DTD/svg11.dtd">
<svg xmlns:xlink="http://www.w3.org/1999/xlink" width="432pt" height="288pt" viewBox="0 0 432 288" xmlns="http://www.w3.org/2000/svg" version="1.1">
 <metadata>
  <rdf:RDF xmlns:dc="http://purl.org/dc/elements/1.1/" xmlns:cc="http://creativecommons.org/ns#" xmlns:rdf="http://www.w3.org/1999/02/22-rdf-syntax-ns#">
   <cc:Work>
    <dc:type rdf:resource="http://purl.org/dc/dcmitype/StillImage"/>
    <dc:date>2025-07-03T20:54:23.657921</dc:date>
    <dc:format>image/svg+xml</dc:format>
    <dc:creator>
     <cc:Agent>
      <dc:title>Matplotlib v3.9.2, https://matplotlib.org/</dc:title>
     </cc:Agent>
    </dc:creator>
   </cc:Work>
  </rdf:RDF>
 </metadata>
 <defs>
  <style type="text/css">*{stroke-linejoin: round; stroke-linecap: butt}</style>
 </defs>
 <g id="figure_1">
  <g id="patch_1">
   <path d="M 0 288 
L 432 288 
L 432 0 
L 0 0 
z
" style="fill: #ffffff"/>
  </g>
  <g id="axes_1">
   <g id="patch_2">
    <path d="M 54 256.32 
L 388.8 256.32 
L 388.8 34.56 
L 54 34.56 
z
" style="fill: #ffffff"/>
   </g>
   <g id="matplotlib.axis_1">
    <g id="xtick_1">
     <g id="line2d_1">
      <defs>
       <path id="m242d678a1f" d="M 0 0 
L 0 3.5 
" style="stroke: #000000; stroke-width: 0.8"/>
      </defs>
      <g>
       <use xlink:href="#m242d678a1f" x="69.362022" y="256.32" style="stroke: #000000; stroke-width: 0.8"/>
      </g>
     </g>
     <g id="text_1">
      <!-- 0.000 -->
      <g transform="translate(55.04796 270.918437) scale(0.1 -0.1)">
       <defs>
        <path id="DejaVuSans-30" d="M 2034 4250 
Q 1547 4250 1301 3770 
Q 1056 3291 1056 2328 
Q 1056 1369 1301 889 
Q 1547 409 2034 409 
Q 2525 409 2770 889 
Q 3016 1369 3016 2328 
Q 3016 3291 2770 3770 
Q 2525 4250 2034 4250 
z
M 2034 4750 
Q 2819 4750 3233 4129 
Q 3647 3509 3647 2328 
Q 3647 1150 3233 529 
Q 2819 -91 2034 -91 
Q 1250 -91 836 529 
Q 422 1150 422 2328 
Q 422 3509 836 4129 
Q 1250 4750 2034 4750 
z
" transform="scale(0.015625)"/>
        <path id="DejaVuSans-2e" d="M 684 794 
L 1344 794 
L 1344 0 
L 684 0 
L 684 794 
z
" transform="scale(0.015625)"/>
       </defs>
       <use xlink:href="#DejaVuSans-30"/>
       <use xlink:href="#DejaVuSans-2e" x="63.623047"/>
       <use xlink:href="#DejaVuSans-30" x="95.410156"/>
       <use xlink:href="#DejaVuSans-30" x="159.033203"/>
       <use xlink:href="#DejaVuSans-30" x="222.65625"/>
      </g>
     </g>
    </g>
    <g id="xtick_2">
     <g id="line2d_2">
      <g>
       <use xlink:href="#m242d678a1f" x="107.362961" y="256.32" style="stroke: #000000; stroke-width: 0.8"/>
      </g>
     </g>
     <g id="text_2">
      <!-- 0.025 -->
      <g transform="translate(93.048899 270.918437) scale(0.1 -0.1)">
       <defs>
        <path id="DejaVuSans-32" d="M 1228 531 
L 3431 531 
L 3431 0 
L 469 0 
L 469 531 
Q 828 903 1448 1529 
Q 2069 2156 2228 2338 
Q 2531 2678 2651 2914 
Q 2772 3150 2772 3378 
Q 2772 3750 2511 3984 
Q 2250 4219 1831 4219 
Q 1534 4219 1204 4116 
Q 875 4013 500 3803 
L 500 4441 
Q 881 4594 1212 4672 
Q 1544 4750 1819 4750 
Q 2544 4750 2975 4387 
Q 3406 4025 3406 3419 
Q 3406 3131 3298 2873 
Q 3191 2616 2906 2266 
Q 2828 2175 2409 1742 
Q 1991 1309 1228 531 
z
" transform="scale(0.015625)"/>
        <path id="DejaVuSans-35" d="M 691 4666 
L 3169 4666 
L 3169 4134 
L 1269 4134 
L 1269 2991 
Q 1406 3038 1543 3061 
Q 1681 3084 1819 3084 
Q 2600 3084 3056 2656 
Q 3513 2228 3513 1497 
Q 3513 744 3044 326 
Q 2575 -91 1722 -91 
Q 1428 -91 1123 -41 
Q 819 9 494 109 
L 494 744 
Q 775 591 1075 516 
Q 1375 441 1709 441 
Q 2250 441 2565 725 
Q 2881 1009 2881 1497 
Q 2881 1984 2565 2268 
Q 2250 2553 1709 2553 
Q 1456 2553 1204 2497 
Q 953 2441 691 2322 
L 691 4666 
z
" transform="scale(0.015625)"/>
       </defs>
       <use xlink:href="#DejaVuSans-30"/>
       <use xlink:href="#DejaVuSans-2e" x="63.623047"/>
       <use xlink:href="#DejaVuSans-30" x="95.410156"/>
       <use xlink:href="#DejaVuSans-32" x="159.033203"/>
       <use xlink:href="#DejaVuSans-35" x="222.65625"/>
      </g>
     </g>
    </g>
    <g id="xtick_3">
     <g id="line2d_3">
      <g>
       <use xlink:href="#m242d678a1f" x="145.363901" y="256.32" style="stroke: #000000; stroke-width: 0.8"/>
      </g>
     </g>
     <g id="text_3">
      <!-- 0.050 -->
      <g transform="translate(131.049838 270.918437) scale(0.1 -0.1)">
       <use xlink:href="#DejaVuSans-30"/>
       <use xlink:href="#DejaVuSans-2e" x="63.623047"/>
       <use xlink:href="#DejaVuSans-30" x="95.410156"/>
       <use xlink:href="#DejaVuSans-35" x="159.033203"/>
       <use xlink:href="#DejaVuSans-30" x="222.65625"/>
      </g>
     </g>
    </g>
    <g id="xtick_4">
     <g id="line2d_4">
      <g>
       <use xlink:href="#m242d678a1f" x="183.36484" y="256.32" style="stroke: #000000; stroke-width: 0.8"/>
      </g>
     </g>
     <g id="text_4">
      <!-- 0.075 -->
      <g transform="translate(169.050777 270.918437) scale(0.1 -0.1)">
       <defs>
        <path id="DejaVuSans-37" d="M 525 4666 
L 3525 4666 
L 3525 4397 
L 1831 0 
L 1172 0 
L 2766 4134 
L 525 4134 
L 525 4666 
z
" transform="scale(0.015625)"/>
       </defs>
       <use xlink:href="#DejaVuSans-30"/>
       <use xlink:href="#DejaVuSans-2e" x="63.623047"/>
       <use xlink:href="#DejaVuSans-30" x="95.410156"/>
       <use xlink:href="#DejaVuSans-37" x="159.033203"/>
       <use xlink:href="#DejaVuSans-35" x="222.65625"/>
      </g>
     </g>
    </g>
    <g id="xtick_5">
     <g id="line2d_5">
      <g>
       <use xlink:href="#m242d678a1f" x="221.365779" y="256.32" style="stroke: #000000; stroke-width: 0.8"/>
      </g>
     </g>
     <g id="text_5">
      <!-- 0.100 -->
      <g transform="translate(207.051716 270.918437) scale(0.1 -0.1)">
       <defs>
        <path id="DejaVuSans-31" d="M 794 531 
L 1825 531 
L 1825 4091 
L 703 3866 
L 703 4441 
L 1819 4666 
L 2450 4666 
L 2450 531 
L 3481 531 
L 3481 0 
L 794 0 
L 794 531 
z
" transform="scale(0.015625)"/>
       </defs>
       <use xlink:href="#DejaVuSans-30"/>
       <use xlink:href="#DejaVuSans-2e" x="63.623047"/>
       <use xlink:href="#DejaVuSans-31" x="95.410156"/>
       <use xlink:href="#DejaVuSans-30" x="159.033203"/>
       <use xlink:href="#DejaVuSans-30" x="222.65625"/>
      </g>
     </g>
    </g>
    <g id="xtick_6">
     <g id="line2d_6">
      <g>
       <use xlink:href="#m242d678a1f" x="259.366718" y="256.32" style="stroke: #000000; stroke-width: 0.8"/>
      </g>
     </g>
     <g id="text_6">
      <!-- 0.125 -->
      <g transform="translate(245.052656 270.918437) scale(0.1 -0.1)">
       <use xlink:href="#DejaVuSans-30"/>
       <use xlink:href="#DejaVuSans-2e" x="63.623047"/>
       <use xlink:href="#DejaVuSans-31" x="95.410156"/>
       <use xlink:href="#DejaVuSans-32" x="159.033203"/>
       <use xlink:href="#DejaVuSans-35" x="222.65625"/>
      </g>
     </g>
    </g>
    <g id="xtick_7">
     <g id="line2d_7">
      <g>
       <use xlink:href="#m242d678a1f" x="297.367657" y="256.32" style="stroke: #000000; stroke-width: 0.8"/>
      </g>
     </g>
     <g id="text_7">
      <!-- 0.150 -->
      <g transform="translate(283.053595 270.918437) scale(0.1 -0.1)">
       <use xlink:href="#DejaVuSans-30"/>
       <use xlink:href="#DejaVuSans-2e" x="63.623047"/>
       <use xlink:href="#DejaVuSans-31" x="95.410156"/>
       <use xlink:href="#DejaVuSans-35" x="159.033203"/>
       <use xlink:href="#DejaVuSans-30" x="222.65625"/>
      </g>
     </g>
    </g>
    <g id="xtick_8">
     <g id="line2d_8">
      <g>
       <use xlink:href="#m242d678a1f" x="335.368597" y="256.32" style="stroke: #000000; stroke-width: 0.8"/>
      </g>
     </g>
     <g id="text_8">
      <!-- 0.175 -->
      <g transform="translate(321.054534 270.918437) scale(0.1 -0.1)">
       <use xlink:href="#DejaVuSans-30"/>
       <use xlink:href="#DejaVuSans-2e" x="63.623047"/>
       <use xlink:href="#DejaVuSans-31" x="95.410156"/>
       <use xlink:href="#DejaVuSans-37" x="159.033203"/>
       <use xlink:href="#DejaVuSans-35" x="222.65625"/>
      </g>
     </g>
    </g>
    <g id="xtick_9">
     <g id="line2d_9">
      <g>
       <use xlink:href="#m242d678a1f" x="373.369536" y="256.32" style="stroke: #000000; stroke-width: 0.8"/>
      </g>
     </g>
     <g id="text_9">
      <!-- 0.200 -->
      <g transform="translate(359.055473 270.918437) scale(0.1 -0.1)">
       <use xlink:href="#DejaVuSans-30"/>
       <use xlink:href="#DejaVuSans-2e" x="63.623047"/>
       <use xlink:href="#DejaVuSans-32" x="95.410156"/>
       <use xlink:href="#DejaVuSans-30" x="159.033203"/>
       <use xlink:href="#DejaVuSans-30" x="222.65625"/>
      </g>
     </g>
    </g>
    <g id="text_10">
     <!-- Strain -->
     <g transform="translate(206.588281 284.596563) scale(0.1 -0.1)">
      <defs>
       <path id="DejaVuSans-53" d="M 3425 4513 
L 3425 3897 
Q 3066 4069 2747 4153 
Q 2428 4238 2131 4238 
Q 1616 4238 1336 4038 
Q 1056 3838 1056 3469 
Q 1056 3159 1242 3001 
Q 1428 2844 1947 2747 
L 2328 2669 
Q 3034 2534 3370 2195 
Q 3706 1856 3706 1288 
Q 3706 609 3251 259 
Q 2797 -91 1919 -91 
Q 1588 -91 1214 -16 
Q 841 59 441 206 
L 441 856 
Q 825 641 1194 531 
Q 1563 422 1919 422 
Q 2459 422 2753 634 
Q 3047 847 3047 1241 
Q 3047 1584 2836 1778 
Q 2625 1972 2144 2069 
L 1759 2144 
Q 1053 2284 737 2584 
Q 422 2884 422 3419 
Q 422 4038 858 4394 
Q 1294 4750 2059 4750 
Q 2388 4750 2728 4690 
Q 3069 4631 3425 4513 
z
" transform="scale(0.015625)"/>
       <path id="DejaVuSans-74" d="M 1172 4494 
L 1172 3500 
L 2356 3500 
L 2356 3053 
L 1172 3053 
L 1172 1153 
Q 1172 725 1289 603 
Q 1406 481 1766 481 
L 2356 481 
L 2356 0 
L 1766 0 
Q 1100 0 847 248 
Q 594 497 594 1153 
L 594 3053 
L 172 3053 
L 172 3500 
L 594 3500 
L 594 4494 
L 1172 4494 
z
" transform="scale(0.015625)"/>
       <path id="DejaVuSans-72" d="M 2631 2963 
Q 2534 3019 2420 3045 
Q 2306 3072 2169 3072 
Q 1681 3072 1420 2755 
Q 1159 2438 1159 1844 
L 1159 0 
L 581 0 
L 581 3500 
L 1159 3500 
L 1159 2956 
Q 1341 3275 1631 3429 
Q 1922 3584 2338 3584 
Q 2397 3584 2469 3576 
Q 2541 3569 2628 3553 
L 2631 2963 
z
" transform="scale(0.015625)"/>
       <path id="DejaVuSans-61" d="M 2194 1759 
Q 1497 1759 1228 1600 
Q 959 1441 959 1056 
Q 959 750 1161 570 
Q 1363 391 1709 391 
Q 2188 391 2477 730 
Q 2766 1069 2766 1631 
L 2766 1759 
L 2194 1759 
z
M 3341 1997 
L 3341 0 
L 2766 0 
L 2766 531 
Q 2569 213 2275 61 
Q 1981 -91 1556 -91 
Q 1019 -91 701 211 
Q 384 513 384 1019 
Q 384 1609 779 1909 
Q 1175 2209 1959 2209 
L 2766 2209 
L 2766 2266 
Q 2766 2663 2505 2880 
Q 2244 3097 1772 3097 
Q 1472 3097 1187 3025 
Q 903 2953 641 2809 
L 641 3341 
Q 956 3463 1253 3523 
Q 1550 3584 1831 3584 
Q 2591 3584 2966 3190 
Q 3341 2797 3341 1997 
z
" transform="scale(0.015625)"/>
       <path id="DejaVuSans-69" d="M 603 3500 
L 1178 3500 
L 1178 0 
L 603 0 
L 603 3500 
z
M 603 4863 
L 1178 4863 
L 1178 4134 
L 603 4134 
L 603 4863 
z
" transform="scale(0.015625)"/>
       <path id="DejaVuSans-6e" d="M 3513 2113 
L 3513 0 
L 2938 0 
L 2938 2094 
Q 2938 2591 2744 2837 
Q 2550 3084 2163 3084 
Q 1697 3084 1428 2787 
Q 1159 2491 1159 1978 
L 1159 0 
L 581 0 
L 581 3500 
L 1159 3500 
L 1159 2956 
Q 1366 3272 1645 3428 
Q 1925 3584 2291 3584 
Q 2894 3584 3203 3211 
Q 3513 2838 3513 2113 
z
" transform="scale(0.015625)"/>
      </defs>
      <use xlink:href="#DejaVuSans-53"/>
      <use xlink:href="#DejaVuSans-74" x="63.476562"/>
      <use xlink:href="#DejaVuSans-72" x="102.685547"/>
      <use xlink:href="#DejaVuSans-61" x="143.798828"/>
      <use xlink:href="#DejaVuSans-69" x="205.078125"/>
      <use xlink:href="#DejaVuSans-6e" x="232.861328"/>
     </g>
    </g>
   </g>
   <g id="matplotlib.axis_2">
    <g id="ytick_1">
     <g id="line2d_10">
      <defs>
       <path id="m227fd9331e" d="M 0 0 
L -3.5 0 
" style="stroke: #000000; stroke-width: 0.8"/>
      </defs>
      <g>
       <use xlink:href="#m227fd9331e" x="54" y="234.544154" style="stroke: #000000; stroke-width: 0.8"/>
      </g>
     </g>
     <g id="text_11">
      <!-- 0 -->
      <g transform="translate(40.6375 238.343372) scale(0.1 -0.1)">
       <use xlink:href="#DejaVuSans-30"/>
      </g>
     </g>
    </g>
    <g id="ytick_2">
     <g id="line2d_11">
      <g>
       <use xlink:href="#m227fd9331e" x="54" y="201.409287" style="stroke: #000000; stroke-width: 0.8"/>
      </g>
     </g>
     <g id="text_12">
      <!-- 100 -->
      <g transform="translate(27.9125 205.208506) scale(0.1 -0.1)">
       <use xlink:href="#DejaVuSans-31"/>
       <use xlink:href="#DejaVuSans-30" x="63.623047"/>
       <use xlink:href="#DejaVuSans-30" x="127.246094"/>
      </g>
     </g>
    </g>
    <g id="ytick_3">
     <g id="line2d_12">
      <g>
       <use xlink:href="#m227fd9331e" x="54" y="168.27442" style="stroke: #000000; stroke-width: 0.8"/>
      </g>
     </g>
     <g id="text_13">
      <!-- 200 -->
      <g transform="translate(27.9125 172.073639) scale(0.1 -0.1)">
       <use xlink:href="#DejaVuSans-32"/>
       <use xlink:href="#DejaVuSans-30" x="63.623047"/>
       <use xlink:href="#DejaVuSans-30" x="127.246094"/>
      </g>
     </g>
    </g>
    <g id="ytick_4">
     <g id="line2d_13">
      <g>
       <use xlink:href="#m227fd9331e" x="54" y="135.139553" style="stroke: #000000; stroke-width: 0.8"/>
      </g>
     </g>
     <g id="text_14">
      <!-- 300 -->
      <g transform="translate(27.9125 138.938772) scale(0.1 -0.1)">
       <defs>
        <path id="DejaVuSans-33" d="M 2597 2516 
Q 3050 2419 3304 2112 
Q 3559 1806 3559 1356 
Q 3559 666 3084 287 
Q 2609 -91 1734 -91 
Q 1441 -91 1130 -33 
Q 819 25 488 141 
L 488 750 
Q 750 597 1062 519 
Q 1375 441 1716 441 
Q 2309 441 2620 675 
Q 2931 909 2931 1356 
Q 2931 1769 2642 2001 
Q 2353 2234 1838 2234 
L 1294 2234 
L 1294 2753 
L 1863 2753 
Q 2328 2753 2575 2939 
Q 2822 3125 2822 3475 
Q 2822 3834 2567 4026 
Q 2313 4219 1838 4219 
Q 1578 4219 1281 4162 
Q 984 4106 628 3988 
L 628 4550 
Q 988 4650 1302 4700 
Q 1616 4750 1894 4750 
Q 2613 4750 3031 4423 
Q 3450 4097 3450 3541 
Q 3450 3153 3228 2886 
Q 3006 2619 2597 2516 
z
" transform="scale(0.015625)"/>
       </defs>
       <use xlink:href="#DejaVuSans-33"/>
       <use xlink:href="#DejaVuSans-30" x="63.623047"/>
       <use xlink:href="#DejaVuSans-30" x="127.246094"/>
      </g>
     </g>
    </g>
    <g id="ytick_5">
     <g id="line2d_14">
      <g>
       <use xlink:href="#m227fd9331e" x="54" y="102.004687" style="stroke: #000000; stroke-width: 0.8"/>
      </g>
     </g>
     <g id="text_15">
      <!-- 400 -->
      <g transform="translate(27.9125 105.803905) scale(0.1 -0.1)">
       <defs>
        <path id="DejaVuSans-34" d="M 2419 4116 
L 825 1625 
L 2419 1625 
L 2419 4116 
z
M 2253 4666 
L 3047 4666 
L 3047 1625 
L 3713 1625 
L 3713 1100 
L 3047 1100 
L 3047 0 
L 2419 0 
L 2419 1100 
L 313 1100 
L 313 1709 
L 2253 4666 
z
" transform="scale(0.015625)"/>
       </defs>
       <use xlink:href="#DejaVuSans-34"/>
       <use xlink:href="#DejaVuSans-30" x="63.623047"/>
       <use xlink:href="#DejaVuSans-30" x="127.246094"/>
      </g>
     </g>
    </g>
    <g id="ytick_6">
     <g id="line2d_15">
      <g>
       <use xlink:href="#m227fd9331e" x="54" y="68.86982" style="stroke: #000000; stroke-width: 0.8"/>
      </g>
     </g>
     <g id="text_16">
      <!-- 500 -->
      <g transform="translate(27.9125 72.669039) scale(0.1 -0.1)">
       <use xlink:href="#DejaVuSans-35"/>
       <use xlink:href="#DejaVuSans-30" x="63.623047"/>
       <use xlink:href="#DejaVuSans-30" x="127.246094"/>
      </g>
     </g>
    </g>
    <g id="ytick_7">
     <g id="line2d_16">
      <g>
       <use xlink:href="#m227fd9331e" x="54" y="35.734953" style="stroke: #000000; stroke-width: 0.8"/>
      </g>
     </g>
     <g id="text_17">
      <!-- 600 -->
      <g transform="translate(27.9125 39.534172) scale(0.1 -0.1)">
       <defs>
        <path id="DejaVuSans-36" d="M 2113 2584 
Q 1688 2584 1439 2293 
Q 1191 2003 1191 1497 
Q 1191 994 1439 701 
Q 1688 409 2113 409 
Q 2538 409 2786 701 
Q 3034 994 3034 1497 
Q 3034 2003 2786 2293 
Q 2538 2584 2113 2584 
z
M 3366 4563 
L 3366 3988 
Q 3128 4100 2886 4159 
Q 2644 4219 2406 4219 
Q 1781 4219 1451 3797 
Q 1122 3375 1075 2522 
Q 1259 2794 1537 2939 
Q 1816 3084 2150 3084 
Q 2853 3084 3261 2657 
Q 3669 2231 3669 1497 
Q 3669 778 3244 343 
Q 2819 -91 2113 -91 
Q 1303 -91 875 529 
Q 447 1150 447 2328 
Q 447 3434 972 4092 
Q 1497 4750 2381 4750 
Q 2619 4750 2861 4703 
Q 3103 4656 3366 4563 
z
" transform="scale(0.015625)"/>
       </defs>
       <use xlink:href="#DejaVuSans-36"/>
       <use xlink:href="#DejaVuSans-30" x="63.623047"/>
       <use xlink:href="#DejaVuSans-30" x="127.246094"/>
      </g>
     </g>
    </g>
    <g id="text_18">
     <!-- Stress [Pa] -->
     <g transform="translate(21.832812 172.147812) rotate(-90) scale(0.1 -0.1)">
      <defs>
       <path id="DejaVuSans-65" d="M 3597 1894 
L 3597 1613 
L 953 1613 
Q 991 1019 1311 708 
Q 1631 397 2203 397 
Q 2534 397 2845 478 
Q 3156 559 3463 722 
L 3463 178 
Q 3153 47 2828 -22 
Q 2503 -91 2169 -91 
Q 1331 -91 842 396 
Q 353 884 353 1716 
Q 353 2575 817 3079 
Q 1281 3584 2069 3584 
Q 2775 3584 3186 3129 
Q 3597 2675 3597 1894 
z
M 3022 2063 
Q 3016 2534 2758 2815 
Q 2500 3097 2075 3097 
Q 1594 3097 1305 2825 
Q 1016 2553 972 2059 
L 3022 2063 
z
" transform="scale(0.015625)"/>
       <path id="DejaVuSans-73" d="M 2834 3397 
L 2834 2853 
Q 2591 2978 2328 3040 
Q 2066 3103 1784 3103 
Q 1356 3103 1142 2972 
Q 928 2841 928 2578 
Q 928 2378 1081 2264 
Q 1234 2150 1697 2047 
L 1894 2003 
Q 2506 1872 2764 1633 
Q 3022 1394 3022 966 
Q 3022 478 2636 193 
Q 2250 -91 1575 -91 
Q 1294 -91 989 -36 
Q 684 19 347 128 
L 347 722 
Q 666 556 975 473 
Q 1284 391 1588 391 
Q 1994 391 2212 530 
Q 2431 669 2431 922 
Q 2431 1156 2273 1281 
Q 2116 1406 1581 1522 
L 1381 1569 
Q 847 1681 609 1914 
Q 372 2147 372 2553 
Q 372 3047 722 3315 
Q 1072 3584 1716 3584 
Q 2034 3584 2315 3537 
Q 2597 3491 2834 3397 
z
" transform="scale(0.015625)"/>
       <path id="DejaVuSans-20" transform="scale(0.015625)"/>
       <path id="DejaVuSans-5b" d="M 550 4863 
L 1875 4863 
L 1875 4416 
L 1125 4416 
L 1125 -397 
L 1875 -397 
L 1875 -844 
L 550 -844 
L 550 4863 
z
" transform="scale(0.015625)"/>
       <path id="DejaVuSans-50" d="M 1259 4147 
L 1259 2394 
L 2053 2394 
Q 2494 2394 2734 2622 
Q 2975 2850 2975 3272 
Q 2975 3691 2734 3919 
Q 2494 4147 2053 4147 
L 1259 4147 
z
M 628 4666 
L 2053 4666 
Q 2838 4666 3239 4311 
Q 3641 3956 3641 3272 
Q 3641 2581 3239 2228 
Q 2838 1875 2053 1875 
L 1259 1875 
L 1259 0 
L 628 0 
L 628 4666 
z
" transform="scale(0.015625)"/>
       <path id="DejaVuSans-5d" d="M 1947 4863 
L 1947 -844 
L 622 -844 
L 622 -397 
L 1369 -397 
L 1369 4416 
L 622 4416 
L 622 4863 
L 1947 4863 
z
" transform="scale(0.015625)"/>
      </defs>
      <use xlink:href="#DejaVuSans-53"/>
      <use xlink:href="#DejaVuSans-74" x="63.476562"/>
      <use xlink:href="#DejaVuSans-72" x="102.685547"/>
      <use xlink:href="#DejaVuSans-65" x="141.548828"/>
      <use xlink:href="#DejaVuSans-73" x="203.072266"/>
      <use xlink:href="#DejaVuSans-73" x="255.171875"/>
      <use xlink:href="#DejaVuSans-20" x="307.271484"/>
      <use xlink:href="#DejaVuSans-5b" x="339.058594"/>
      <use xlink:href="#DejaVuSans-50" x="378.072266"/>
      <use xlink:href="#DejaVuSans-61" x="433.875"/>
      <use xlink:href="#DejaVuSans-5d" x="495.154297"/>
     </g>
    </g>
   </g>
   <g id="line2d_17">
    <path d="M 69.362022 238.059836 
L 69.362548 238.684564 
L 69.362022 237.847071 
L 69.3644 238.131175 
L 69.981226 238.055228 
L 70.59917 234.954016 
L 71.210678 233.118483 
L 71.840857 233.755481 
L 72.497478 235.283123 
L 74.426053 238.269954 
L 75.052521 239.604459 
L 75.698472 239.825745 
L 76.339784 241.623972 
L 76.981097 239.998888 
L 77.61058 238.749427 
L 78.223596 238.148184 
L 78.834756 237.88334 
L 79.447772 237.893599 
L 80.685632 236.37054 
L 81.307461 236.846313 
L 81.955036 238.493751 
L 82.589158 239.634069 
L 83.862128 240.637193 
L 84.496598 241.338882 
L 85.72634 237.501265 
L 86.350721 237.169192 
L 86.978928 237.28641 
L 89.48225 239.173786 
L 90.117531 239.306241 
L 91.994037 238.34486 
L 93.214385 238.295173 
L 93.835403 237.953416 
L 94.468829 237.03959 
L 95.088339 235.603496 
L 95.730115 236.472967 
L 96.374675 237.99537 
L 97.01274 238.913038 
L 97.62158 239.459448 
L 98.252455 239.810231 
L 98.86137 240.287216 
L 99.477053 237.614714 
L 100.110712 236.467062 
L 100.728598 236.378558 
L 102.000553 237.717515 
L 102.615424 238.078812 
L 104.473142 236.365016 
L 105.110744 236.471664 
L 106.345821 236.877028 
L 107.58542 236.923145 
L 108.846242 236.411748 
L 109.454851 236.305181 
L 110.092684 236.422329 
L 111.354898 236.209368 
L 111.987629 235.948398 
L 112.622679 235.892451 
L 113.88723 235.174437 
L 114.496303 235.050048 
L 115.107231 235.282236 
L 115.744136 235.067749 
L 116.380346 234.551812 
L 116.990346 234.290908 
L 117.605217 234.243951 
L 118.218001 233.919676 
L 118.831944 233.922263 
L 119.446352 234.110402 
L 120.054497 234.010616 
L 120.680849 233.502248 
L 122.557702 232.637775 
L 123.189736 232.586414 
L 123.82525 232.716075 
L 127.554603 231.283945 
L 128.176432 231.191009 
L 129.404837 231.19127 
L 131.307203 230.195556 
L 132.537641 229.876001 
L 133.152049 229.496884 
L 133.766224 229.294346 
L 134.403825 229.221619 
L 135.660588 228.569909 
L 136.271285 228.74346 
L 136.886388 228.770352 
L 138.111955 228.266246 
L 139.994839 227.180657 
L 140.632208 226.989811 
L 141.874939 227.040652 
L 142.495377 226.893259 
L 144.351043 226.06511 
L 144.973568 225.634435 
L 145.608154 225.418355 
L 146.226505 225.352751 
L 146.85622 225.120193 
L 148.106837 225.178942 
L 148.737016 224.786434 
L 149.35467 224.170435 
L 150.606795 223.437153 
L 151.221434 223.234508 
L 152.45999 223.513563 
L 153.09388 223.181113 
L 153.728002 222.563106 
L 154.342178 222.514371 
L 155.583517 222.048165 
L 156.836685 221.741589 
L 157.46988 221.177586 
L 158.07872 220.889319 
L 158.695447 220.442906 
L 159.319596 220.551299 
L 159.936025 220.490988 
L 160.559478 220.256256 
L 161.169015 219.680683 
L 162.418124 219.113013 
L 163.040649 219.009502 
L 164.306806 219.100109 
L 166.195024 218.038564 
L 166.82845 217.592434 
L 167.437291 217.520784 
L 168.046364 217.183228 
L 169.906053 216.634229 
L 172.392907 215.160765 
L 173.635405 214.899326 
L 175.513215 213.842553 
L 176.129942 213.178793 
L 176.758613 212.937613 
L 178.634075 212.827901 
L 179.252425 212.694322 
L 179.883764 212.237015 
L 181.109679 210.771366 
L 181.730813 210.241174 
L 182.368182 209.921415 
L 182.985141 209.885202 
L 183.601635 209.998374 
L 184.211868 209.777001 
L 186.097766 208.378086 
L 187.336322 208.27385 
L 187.970445 207.977223 
L 188.592042 207.534978 
L 189.839644 206.190607 
L 191.075837 205.77298 
L 192.315784 205.43122 
L 192.927176 205.104055 
L 194.199827 204.04782 
L 194.835573 203.790866 
L 195.466448 203.364338 
L 196.095468 202.740394 
L 196.730981 202.378107 
L 197.345389 202.17472 
L 201.091325 199.98525 
L 201.699702 199.690427 
L 202.959712 199.500792 
L 203.596153 198.569678 
L 204.840392 197.810222 
L 205.455205 197.841963 
L 206.684484 197.463938 
L 208.574673 195.730279 
L 211.066629 194.587947 
L 216.055412 191.131356 
L 216.665645 191.015707 
L 218.57265 189.755457 
L 219.800768 188.988274 
L 220.410827 188.687205 
L 222.288955 187.142471 
L 224.770938 185.760457 
L 225.405524 185.298218 
L 226.036167 184.621099 
L 229.756474 181.98127 
L 230.991783 181.476509 
L 232.852168 180.176422 
L 235.392368 177.713212 
L 236.002933 177.449601 
L 236.640767 176.981293 
L 237.911794 176.222793 
L 239.795373 174.818083 
L 240.411172 174.423904 
L 241.026507 173.856539 
L 241.635812 173.5187 
L 242.891184 172.114214 
L 244.133914 171.092991 
L 244.752497 170.686895 
L 245.37247 170.475988 
L 246.602213 169.78407 
L 247.867442 168.726525 
L 248.494142 167.833829 
L 249.123393 167.238174 
L 249.757979 166.886256 
L 250.368444 166.722084 
L 250.983387 166.184831 
L 251.60081 165.927877 
L 252.222639 165.214698 
L 254.727352 163.2023 
L 255.9506 162.431499 
L 258.440932 160.146497 
L 259.700131 159.310947 
L 260.309668 159.091266 
L 260.920364 158.651422 
L 261.530132 158.009142 
L 262.16611 157.169532 
L 262.801392 156.593785 
L 264.658762 155.656226 
L 266.566245 153.521839 
L 269.082787 151.563996 
L 271.566625 149.691077 
L 272.185439 149.357582 
L 272.823273 148.852209 
L 274.079456 146.852024 
L 274.692703 146.431608 
L 275.31059 146.161721 
L 275.923374 145.499883 
L 277.167496 144.702577 
L 278.429942 143.272027 
L 279.039246 142.983024 
L 279.649943 142.550951 
L 280.259015 142.263187 
L 280.893833 141.736946 
L 282.790329 139.533593 
L 284.017288 138.273917 
L 284.636798 138.006704 
L 285.253524 137.244367 
L 285.8677 136.952488 
L 287.107879 135.627064 
L 287.744553 134.812426 
L 288.360815 134.465179 
L 290.218881 133.036485 
L 290.830273 132.607163 
L 292.086689 131.08799 
L 294.56009 129.177171 
L 295.170786 128.492281 
L 295.805604 127.558896 
L 297.068122 126.1402 
L 301.386369 122.252596 
L 302.021882 122.042017 
L 303.9101 120.112643 
L 304.542599 119.324898 
L 305.151208 118.822494 
L 305.760512 118.586245 
L 306.394171 118.093533 
L 308.277402 115.780765 
L 308.88949 115.019738 
L 310.763676 114.107985 
L 312.612739 111.419473 
L 313.250341 110.53184 
L 313.874025 110.266384 
L 314.499566 110.341682 
L 316.381289 108.611384 
L 317.647214 106.79613 
L 318.283424 106.331893 
L 319.544014 104.812895 
L 320.177672 103.890686 
L 320.791616 103.390378 
L 322.659191 102.213715 
L 323.279513 101.527429 
L 324.528854 99.918584 
L 325.759524 98.703525 
L 326.376483 98.375225 
L 326.985324 97.647552 
L 328.258381 95.797514 
L 330.115287 93.836184 
L 330.725055 93.451479 
L 332.598661 91.264443 
L 333.231971 90.292116 
L 333.851945 89.634643 
L 335.116478 88.779361 
L 336.359209 87.849468 
L 338.854413 84.666007 
L 340.714102 83.171631 
L 341.346601 82.712753 
L 341.96843 81.901608 
L 342.59023 80.87328 
L 343.219018 80.173111 
L 344.473114 78.343362 
L 345.097726 78.020858 
L 345.717004 77.458742 
L 346.326077 76.633452 
L 348.842967 74.181593 
L 349.451807 73.666616 
L 351.291782 70.89903 
L 351.902246 70.333935 
L 352.512711 69.463766 
L 353.738974 68.63638 
L 354.376575 67.917613 
L 355.012553 66.945111 
L 356.912832 64.810114 
L 357.548925 64.060307 
L 358.161245 63.62413 
L 359.381942 61.932687 
L 359.998205 61.098142 
L 360.615163 60.663232 
L 361.227019 59.844053 
L 362.450731 58.558619 
L 363.088332 57.817238 
L 364.34382 55.670715 
L 366.224152 53.561126 
L 366.840879 53.073042 
L 367.477784 52.332708 
L 368.731184 50.301963 
L 369.988527 48.58485 
L 370.597368 48.107505 
L 371.85216 47.629287 
L 372.478338 47.381425 
L 373.194682 46.759598 
L 373.581818 45.609064 
L 373.367477 50.954372 
L 373.366057 50.729626 
L 373.369681 65.69003 
L 373.364114 65.064361 
L 372.748431 65.965243 
L 372.138895 69.849835 
L 371.506164 72.719239 
L 370.209188 70.98212 
L 369.556511 70.558474 
L 368.315172 70.755421 
L 367.705403 70.248422 
L 367.074992 70.734236 
L 366.460817 69.752742 
L 365.850585 72.851334 
L 363.997853 79.40965 
L 363.389476 80.851899 
L 362.130742 79.06022 
L 361.517262 78.952409 
L 360.898912 79.298608 
L 360.252729 79.18832 
L 359.634611 78.596201 
L 359.022059 81.283721 
L 358.412986 85.624614 
L 357.803102 87.418564 
L 357.173387 87.457495 
L 356.543207 87.333302 
L 355.929728 87.350099 
L 355.298157 87.579778 
L 354.670993 88.105058 
L 354.039538 89.087076 
L 352.793212 91.637513 
L 352.170165 92.162182 
L 350.926971 94.198864 
L 350.289601 95.500189 
L 349.670323 96.468848 
L 349.04919 96.797366 
L 348.419011 96.84289 
L 347.77909 96.673534 
L 347.158188 97.760416 
L 346.526502 98.319006 
L 345.904208 100.16028 
L 345.266955 101.344954 
L 344.629354 101.806593 
L 344.00938 102.491046 
L 343.381752 102.804982 
L 342.77152 103.24321 
L 341.529485 105.804299 
L 340.30299 106.924557 
L 339.061419 108.540649 
L 337.790159 109.732657 
L 335.90829 111.910242 
L 335.274168 112.737104 
L 334.644917 113.337299 
L 334.018217 114.311721 
L 333.385022 115.022455 
L 332.776878 115.486092 
L 332.144379 116.212455 
L 331.515823 117.327103 
L 329.619951 119.498292 
L 328.37954 120.646993 
L 327.75887 121.449756 
L 327.145159 122.431513 
L 326.535622 123.01765 
L 325.897557 123.927984 
L 324.648332 125.070398 
L 324.029054 125.443228 
L 322.188383 127.585123 
L 320.913935 129.236544 
L 319.032443 130.978498 
L 317.123814 132.607949 
L 316.509871 132.9254 
L 315.25879 134.074013 
L 313.995649 135.672205 
L 312.162415 137.485888 
L 310.307132 140.011527 
L 309.696436 140.835944 
L 309.078317 141.429242 
L 308.454633 141.83918 
L 307.203784 143.079653 
L 303.456688 146.810954 
L 302.233672 147.50469 
L 301.595839 147.984217 
L 300.962412 148.622918 
L 300.326435 148.962377 
L 299.716202 149.449065 
L 298.489475 150.759645 
L 297.262748 151.920482 
L 296.630482 152.69775 
L 296.005057 153.244945 
L 294.144208 155.455382 
L 291.02632 157.649966 
L 289.800289 158.645867 
L 289.162456 158.981807 
L 288.536568 159.600338 
L 287.30207 161.270826 
L 286.041248 161.994783 
L 284.808723 162.529842 
L 284.185154 163.131609 
L 283.574805 164.174834 
L 282.953556 164.709719 
L 281.101984 165.599446 
L 280.491288 166.041287 
L 279.232785 167.904913 
L 277.388868 169.215493 
L 276.778867 169.590506 
L 276.143701 170.132092 
L 275.51329 170.830734 
L 274.901666 171.225174 
L 273.658703 171.395556 
L 272.410174 172.606293 
L 271.800869 173.526231 
L 271.179388 174.227885 
L 270.56614 174.751768 
L 269.310653 175.384269 
L 268.698565 175.893876 
L 267.466155 177.495735 
L 266.846066 177.926891 
L 266.208696 178.157105 
L 264.97246 178.446741 
L 264.359676 178.851091 
L 263.09839 180.249509 
L 261.238932 181.80029 
L 259.999608 182.365833 
L 258.106055 184.311534 
L 256.877473 185.155334 
L 255.628016 185.436834 
L 255.01616 186.063049 
L 253.749771 186.992482 
L 251.243667 189.10095 
L 249.988527 190.361718 
L 249.378063 190.627564 
L 248.761568 190.569451 
L 247.522316 191.442633 
L 246.277498 193.101246 
L 245.646608 193.534808 
L 245.009239 193.738678 
L 243.789934 194.485342 
L 243.176454 194.780332 
L 242.562047 195.503814 
L 241.941841 195.966665 
L 240.694008 196.561752 
L 240.082616 197.166553 
L 239.447102 197.41531 
L 238.183729 198.094502 
L 237.549374 198.325644 
L 236.326126 198.935503 
L 234.480585 200.639302 
L 233.842984 201.17471 
L 233.208398 201.964376 
L 231.30348 202.512873 
L 230.047239 203.315503 
L 228.164819 204.480968 
L 227.52861 204.598683 
L 226.290982 205.600194 
L 225.042916 206.856291 
L 224.428741 206.995346 
L 223.808999 207.013341 
L 222.578097 207.643583 
L 221.35972 208.556951 
L 220.127194 209.48907 
L 219.506292 209.68044 
L 218.279797 210.639844 
L 217.058173 211.702804 
L 216.440286 211.979283 
L 215.211037 212.35915 
L 214.575987 212.672716 
L 213.31818 213.658488 
L 212.072666 213.914579 
L 211.436225 213.965953 
L 210.808597 214.240533 
L 209.559487 215.597652 
L 208.923974 215.729553 
L 208.309566 216.148777 
L 207.686577 216.151344 
L 207.06498 216.362644 
L 206.444078 216.447183 
L 205.199492 217.166354 
L 204.573952 218.012599 
L 203.93867 218.240379 
L 202.70684 218.936445 
L 201.465269 219.056349 
L 200.217203 220.027677 
L 198.965789 220.445945 
L 197.709374 220.434731 
L 197.074324 220.794944 
L 196.454002 221.600676 
L 195.832405 222.076536 
L 194.567176 222.814971 
L 193.341608 222.986141 
L 192.704239 223.318937 
L 192.069189 223.876698 
L 191.460812 223.98226 
L 190.241971 224.465804 
L 188.969552 224.961741 
L 187.698061 225.588984 
L 186.424946 226.178085 
L 185.81309 226.081715 
L 183.957119 226.670786 
L 183.338536 226.713343 
L 182.702327 227.28359 
L 180.200745 228.85812 
L 179.577524 228.701981 
L 178.958478 228.929215 
L 177.712964 229.533992 
L 177.089047 229.872835 
L 176.461767 230.502281 
L 175.82347 230.732647 
L 174.59396 230.745425 
L 173.328035 230.7384 
L 172.087624 231.600144 
L 170.841066 232.742645 
L 168.975875 233.074479 
L 168.338738 233.15388 
L 164.553836 234.838473 
L 163.938269 234.838259 
L 163.315744 234.674082 
L 162.696466 234.679099 
L 162.087161 234.836504 
L 161.456518 235.173006 
L 160.827962 235.775559 
L 160.191521 236.148358 
L 158.966649 235.883071 
L 158.33763 236.082774 
L 157.081446 236.828586 
L 156.470054 236.88811 
L 155.85356 236.819929 
L 154.615236 237.025056 
L 153.992957 237.562235 
L 153.36069 237.926159 
L 152.124686 237.856873 
L 151.490331 237.87788 
L 150.87488 238.197543 
L 150.266272 238.888719 
L 149.639108 239.266853 
L 149.015191 239.162499 
L 147.749266 238.249197 
L 147.11468 238.205636 
L 145.893404 239.471337 
L 145.263456 239.516496 
L 144.648121 239.268285 
L 144.029075 238.876769 
L 143.416987 238.877873 
L 142.779154 238.993712 
L 142.170082 239.516983 
L 141.544309 239.467913 
L 140.912275 239.546725 
L 140.287198 239.229077 
L 139.655164 239.083635 
L 139.020875 239.337445 
L 138.393015 240.250747 
L 136.497143 240.212667 
L 135.251861 239.818402 
L 134.022466 241.093091 
L 132.773357 241.348565 
L 132.155007 241.358696 
L 130.902302 241.111952 
L 127.797102 241.855947 
L 127.185478 241.751766 
L 125.931962 241.945231 
L 124.030292 242.600712 
L 123.392354 242.720407 
L 122.758463 242.720462 
L 122.12782 242.967022 
L 121.493466 242.851623 
L 120.862591 242.939657 
L 120.235891 243.353561 
L 118.981331 243.879851 
L 118.365069 243.794502 
L 117.113292 243.395212 
L 116.497725 243.330682 
L 115.867314 243.531714 
L 115.249428 244.220707 
L 114.620756 244.55633 
L 112.738105 244.025749 
L 111.485052 244.022922 
L 110.862295 244.598582 
L 110.234899 244.811415 
L 108.381498 244.342489 
L 107.749695 244.369611 
L 107.126706 244.606026 
L 106.497339 245.019457 
L 105.88873 245.08695 
L 104.666409 245.018405 
L 104.030664 245.021975 
L 102.788397 245.649881 
L 102.161001 245.666569 
L 101.530126 245.408993 
L 100.278929 245.235106 
L 99.659537 245.512022 
L 99.030286 246.226772 
L 98.394772 245.769401 
L 97.776422 245.473887 
L 97.166189 244.999599 
L 96.549231 244.812764 
L 95.940274 244.838046 
L 95.330621 245.986048 
L 94.710416 246.24 
L 91.621484 242.570973 
L 90.992001 242.755729 
L 90.371795 241.671728 
L 89.128832 238.706551 
L 88.507003 237.730208 
L 87.885521 237.4405 
L 87.270418 238.094754 
L 86.640935 239.2101 
L 86.018642 238.884627 
L 85.40493 238.212747 
L 84.768257 237.780697 
L 84.156401 237.572748 
L 83.521351 237.648646 
L 82.900565 238.886406 
L 82.267487 239.116978 
L 80.408493 237.781203 
L 79.77727 237.644655 
L 79.145352 238.616283 
L 78.51668 239.347056 
L 77.904686 238.959473 
L 76.647806 237.875429 
L 76.025049 237.447678 
L 75.396262 237.706973 
L 74.767706 239.154985 
L 74.152719 239.732479 
L 73.542023 239.277738 
L 71.649514 236.643349 
L 71.026757 236.384574 
L 70.411422 237.047111 
L 69.79829 237.311046 
L 69.374305 237.266763 
L 69.348067 237.289334 
L 69.218458 238.078499 
L 69.218458 238.078499 
" clip-path="url(#p81952e1cfa)" style="fill: none; stroke: #ff0000; stroke-width: 1.5; stroke-linecap: square"/>
   </g>
   <g id="line2d_18">
    <path d="M 69.362022 238.059836 
L 69.362548 238.684564 
L 69.362022 237.847071 
L 69.3644 238.131175 
L 69.981226 238.055228 
L 70.59917 234.954016 
L 71.210678 233.118483 
L 71.840857 233.755481 
L 72.497478 241.79992 
L 73.157113 241.074561 
L 73.789379 240.583159 
L 75.052521 240.406436 
L 75.698472 239.831594 
L 76.339784 241.623972 
L 76.981097 239.998888 
L 77.61058 238.749427 
L 78.223596 238.148184 
L 78.834756 237.88334 
L 79.447772 237.893599 
L 80.685632 236.37054 
L 81.307461 236.846313 
L 81.955036 238.493751 
L 82.589158 239.634069 
L 83.862128 240.637193 
L 84.496598 241.338882 
L 85.72634 237.501265 
L 86.350721 237.169192 
L 86.978928 237.28641 
L 89.48225 239.173786 
L 90.117531 239.306241 
L 91.994037 238.34486 
L 93.214385 238.295173 
L 93.835403 237.953416 
L 94.468829 237.03959 
L 95.088339 235.603496 
L 95.730115 236.472967 
L 96.374675 237.99537 
L 97.01274 238.913038 
L 97.62158 239.459448 
L 98.252455 239.810231 
L 98.86137 240.287216 
L 99.477053 237.614714 
L 100.110712 236.467062 
L 100.728598 236.378558 
L 102.000553 237.717515 
L 102.615424 238.078812 
L 104.473142 236.365016 
L 105.110744 236.471664 
L 106.345821 236.877028 
L 107.58542 236.923145 
L 108.846242 236.411748 
L 109.454851 236.305181 
L 110.092684 236.422329 
L 111.354898 236.209368 
L 111.987629 235.948398 
L 112.622679 235.892451 
L 113.88723 235.174437 
L 114.496303 235.050048 
L 115.107231 235.282236 
L 115.744136 235.067749 
L 116.380346 234.551812 
L 116.990346 234.290908 
L 117.605217 234.243951 
L 118.218001 233.919676 
L 118.831944 233.922263 
L 119.446352 234.110402 
L 120.054497 234.010616 
L 120.680849 233.502248 
L 122.557702 232.637775 
L 123.189736 232.586414 
L 123.82525 232.716075 
L 127.554603 231.283945 
L 128.176432 231.191009 
L 129.404837 231.19127 
L 131.307203 230.195556 
L 132.537641 229.876001 
L 133.152049 229.496884 
L 133.766224 229.294346 
L 134.403825 229.221619 
L 135.660588 228.569909 
L 136.271285 228.74346 
L 136.886388 228.770352 
L 138.111955 228.266246 
L 139.994839 227.180657 
L 140.632208 226.989811 
L 141.874939 227.040652 
L 142.495377 226.893259 
L 144.351043 226.06511 
L 144.973568 225.634435 
L 145.608154 225.418355 
L 146.226505 225.352751 
L 146.85622 225.120193 
L 148.106837 225.178942 
L 148.737016 224.786434 
L 149.35467 224.170435 
L 150.606795 223.437153 
L 151.221434 223.234508 
L 152.45999 223.513563 
L 153.09388 223.181113 
L 153.728002 222.563106 
L 154.342178 222.514371 
L 155.583517 222.048165 
L 156.836685 221.741589 
L 157.46988 221.177586 
L 158.07872 220.889319 
L 158.695447 220.442906 
L 159.319596 220.551299 
L 159.936025 220.490988 
L 160.559478 220.256256 
L 161.169015 219.680683 
L 162.418124 219.113013 
L 163.040649 219.009502 
L 164.306806 219.100109 
L 166.195024 218.038564 
L 166.82845 217.592434 
L 167.437291 217.520784 
L 168.046364 217.183228 
L 169.906053 216.634229 
L 172.392907 215.160765 
L 173.635405 214.899326 
L 175.513215 213.842553 
L 176.129942 213.178793 
L 176.758613 212.937613 
L 178.634075 212.827901 
L 179.252425 212.694322 
L 179.883764 212.237015 
L 181.109679 210.771366 
L 181.730813 210.241174 
L 182.368182 209.921415 
L 182.985141 209.885202 
L 183.601635 209.998374 
L 184.211868 209.777001 
L 186.097766 208.378086 
L 187.336322 208.27385 
L 187.970445 207.977223 
L 188.592042 207.534978 
L 189.839644 206.190607 
L 191.075837 205.77298 
L 192.315784 205.43122 
L 192.927176 205.104055 
L 194.199827 204.04782 
L 194.835573 203.790866 
L 195.466448 203.364338 
L 196.095468 202.740394 
L 196.730981 202.378107 
L 197.345389 202.17472 
L 201.091325 199.98525 
L 201.699702 199.690427 
L 202.959712 199.500792 
L 203.596153 198.569678 
L 204.840392 197.810222 
L 205.455205 197.841963 
L 206.684484 197.463938 
L 208.574673 195.730279 
L 211.066629 194.587947 
L 216.055412 191.131356 
L 216.665645 191.015707 
L 218.57265 189.755457 
L 219.800768 188.988274 
L 220.410827 188.687205 
L 222.288955 187.142471 
L 224.770938 185.760457 
L 225.405524 185.298218 
L 226.036167 184.621099 
L 229.756474 181.98127 
L 230.991783 181.476509 
L 232.852168 180.176422 
L 235.392368 177.713212 
L 236.002933 177.449601 
L 236.640767 176.981293 
L 237.911794 176.222793 
L 239.795373 174.818083 
L 240.411172 174.423904 
L 241.026507 173.856539 
L 241.635812 173.5187 
L 242.891184 172.114214 
L 244.133914 171.092991 
L 244.752497 170.686895 
L 245.37247 170.475988 
L 246.602213 169.78407 
L 247.867442 168.726525 
L 248.494142 167.833829 
L 249.123393 167.238174 
L 249.757979 166.886256 
L 250.368444 166.722084 
L 250.983387 166.184831 
L 251.60081 165.927877 
L 252.222639 165.214698 
L 254.727352 163.2023 
L 255.9506 162.431499 
L 258.440932 160.146497 
L 259.700131 159.310947 
L 260.309668 159.091266 
L 260.920364 158.651422 
L 261.530132 158.009142 
L 262.16611 157.169532 
L 262.801392 156.593785 
L 264.658762 155.656226 
L 266.566245 153.521839 
L 269.082787 151.563996 
L 271.566625 149.691077 
L 272.185439 149.357582 
L 272.823273 148.852209 
L 274.079456 146.852024 
L 274.692703 146.431608 
L 275.31059 146.161721 
L 275.923374 145.499883 
L 277.167496 144.702577 
L 278.429942 143.272027 
L 279.039246 142.983024 
L 279.649943 142.550951 
L 280.259015 142.263187 
L 280.893833 141.736946 
L 282.790329 139.533593 
L 284.017288 138.273917 
L 284.636798 138.006704 
L 285.253524 137.244367 
L 285.8677 136.952488 
L 287.107879 135.627064 
L 287.744553 134.812426 
L 288.360815 134.465179 
L 290.218881 133.036485 
L 290.830273 132.607163 
L 292.086689 131.08799 
L 294.56009 129.177171 
L 295.170786 128.492281 
L 295.805604 127.558896 
L 297.068122 126.1402 
L 301.386369 122.252596 
L 302.021882 122.042017 
L 303.9101 120.112643 
L 304.542599 119.324898 
L 305.151208 118.822494 
L 305.760512 118.586245 
L 306.394171 118.093533 
L 308.277402 115.780765 
L 308.88949 115.019738 
L 310.763676 114.107985 
L 312.612739 111.419473 
L 313.250341 110.53184 
L 313.874025 110.266384 
L 314.499566 110.341682 
L 316.381289 108.611384 
L 317.647214 106.79613 
L 318.283424 106.331893 
L 319.544014 104.812895 
L 320.177672 103.890686 
L 320.791616 103.390378 
L 322.659191 102.213715 
L 323.279513 101.527429 
L 324.528854 99.918584 
L 325.759524 98.703525 
L 326.376483 98.375225 
L 326.985324 97.647552 
L 328.258381 95.797514 
L 330.115287 93.836184 
L 330.725055 93.451479 
L 332.598661 91.264443 
L 333.231971 90.292116 
L 333.851945 89.634643 
L 335.116478 88.779361 
L 336.359209 87.849468 
L 338.854413 84.666007 
L 340.714102 83.171631 
L 341.346601 82.712753 
L 341.96843 81.901608 
L 342.59023 80.87328 
L 343.219018 80.173111 
L 344.473114 78.343362 
L 345.097726 78.020858 
L 345.717004 77.458742 
L 346.326077 76.633452 
L 348.842967 74.181593 
L 349.451807 73.666616 
L 351.291782 70.89903 
L 351.902246 70.333935 
L 352.512711 69.463766 
L 353.738974 68.63638 
L 354.376575 67.917613 
L 355.012553 66.945111 
L 356.912832 64.810114 
L 357.548925 64.060307 
L 358.161245 63.62413 
L 359.381942 61.932687 
L 359.998205 61.098142 
L 360.615163 60.663232 
L 361.227019 59.844053 
L 362.450731 58.558619 
L 363.088332 57.817238 
L 364.34382 55.670715 
L 366.224152 53.561126 
L 366.840879 53.073042 
L 367.477784 52.332708 
L 368.731184 50.301963 
L 369.988527 48.58485 
L 370.597368 48.107505 
L 371.85216 47.629287 
L 372.478338 47.381425 
L 373.194682 46.759598 
L 373.581818 45.609064 
L 373.533285 46.41676 
L 373.414445 44.64 
L 373.369681 65.69003 
L 373.364114 65.064361 
L 372.748431 65.965243 
L 372.138895 69.849835 
L 371.506164 72.719239 
L 370.209188 70.98212 
L 369.556511 70.558474 
L 368.315172 70.755421 
L 367.705403 70.248422 
L 367.074992 70.734236 
L 366.460817 69.752742 
L 365.850585 72.851334 
L 363.997853 79.40965 
L 363.389476 80.851899 
L 362.130742 79.06022 
L 361.517262 78.952409 
L 360.898912 79.298608 
L 360.252729 79.18832 
L 359.634611 78.596201 
L 359.022059 81.283721 
L 358.412986 85.624614 
L 357.803102 87.418564 
L 357.173387 87.457495 
L 356.543207 87.333302 
L 355.929728 87.350099 
L 355.298157 87.579778 
L 354.670993 88.105058 
L 354.039538 89.087076 
L 352.793212 91.637513 
L 352.170165 92.162182 
L 350.926971 94.198864 
L 350.289601 95.500189 
L 349.670323 96.468848 
L 349.04919 96.797366 
L 348.419011 96.84289 
L 347.77909 96.673534 
L 347.158188 97.760416 
L 346.526502 98.319006 
L 345.904208 100.16028 
L 345.266955 101.344954 
L 344.629354 101.806593 
L 344.00938 102.491046 
L 343.381752 102.804982 
L 342.77152 103.24321 
L 341.529485 105.804299 
L 340.30299 106.924557 
L 339.061419 108.540649 
L 337.790159 109.732657 
L 335.90829 111.910242 
L 335.274168 112.737104 
L 334.644917 113.337299 
L 334.018217 114.311721 
L 333.385022 115.022455 
L 332.776878 115.486092 
L 332.144379 116.212455 
L 331.515823 117.327103 
L 329.619951 119.498292 
L 328.37954 120.646993 
L 327.75887 121.449756 
L 327.145159 122.431513 
L 326.535622 123.01765 
L 325.897557 123.927984 
L 324.648332 125.070398 
L 324.029054 125.443228 
L 322.188383 127.585123 
L 320.913935 129.236544 
L 319.032443 130.978498 
L 317.123814 132.607949 
L 316.509871 132.9254 
L 315.25879 134.074013 
L 313.995649 135.672205 
L 312.162415 137.485888 
L 310.307132 140.011527 
L 309.696436 140.835944 
L 309.078317 141.429242 
L 308.454633 141.83918 
L 307.203784 143.079653 
L 303.456688 146.810954 
L 302.233672 147.50469 
L 301.595839 147.984217 
L 300.962412 148.622918 
L 300.326435 148.962377 
L 299.716202 149.449065 
L 298.489475 150.759645 
L 297.262748 151.920482 
L 296.630482 152.69775 
L 296.005057 153.244945 
L 294.144208 155.455382 
L 291.02632 157.649966 
L 289.800289 158.645867 
L 289.162456 158.981807 
L 288.536568 159.600338 
L 287.30207 161.270826 
L 286.041248 161.994783 
L 284.808723 162.529842 
L 284.185154 163.131609 
L 283.574805 164.174834 
L 282.953556 164.709719 
L 281.101984 165.599446 
L 280.491288 166.041287 
L 279.232785 167.904913 
L 277.388868 169.215493 
L 276.778867 169.590506 
L 276.143701 170.132092 
L 275.51329 170.830734 
L 274.901666 171.225174 
L 273.658703 171.395556 
L 272.410174 172.606293 
L 271.800869 173.526231 
L 271.179388 174.227885 
L 270.56614 174.751768 
L 269.310653 175.384269 
L 268.698565 175.893876 
L 267.466155 177.495735 
L 266.846066 177.926891 
L 266.208696 178.157105 
L 264.97246 178.446741 
L 264.359676 178.851091 
L 263.09839 180.249509 
L 261.238932 181.80029 
L 259.999608 182.365833 
L 258.106055 184.311534 
L 256.877473 185.155334 
L 255.628016 185.436834 
L 255.01616 186.063049 
L 253.749771 186.992482 
L 251.243667 189.10095 
L 249.988527 190.361718 
L 249.378063 190.627564 
L 248.761568 190.569451 
L 247.522316 191.442633 
L 246.277498 193.101246 
L 245.646608 193.534808 
L 245.009239 193.738678 
L 243.789934 194.485342 
L 243.176454 194.780332 
L 242.562047 195.503814 
L 241.941841 195.966665 
L 240.694008 196.561752 
L 240.082616 197.166553 
L 239.447102 197.41531 
L 238.183729 198.094502 
L 237.549374 198.325644 
L 236.326126 198.935503 
L 234.480585 200.639302 
L 233.842984 201.17471 
L 233.208398 201.964376 
L 231.30348 202.512873 
L 230.047239 203.315503 
L 228.164819 204.480968 
L 227.52861 204.598683 
L 226.290982 205.600194 
L 225.042916 206.856291 
L 224.428741 206.995346 
L 223.808999 207.013341 
L 222.578097 207.643583 
L 221.35972 208.556951 
L 220.127194 209.48907 
L 219.506292 209.68044 
L 218.279797 210.639844 
L 217.058173 211.702804 
L 216.440286 211.979283 
L 215.211037 212.35915 
L 214.575987 212.672716 
L 213.31818 213.658488 
L 212.072666 213.914579 
L 211.436225 213.965953 
L 210.808597 214.240533 
L 209.559487 215.597652 
L 208.923974 215.729553 
L 208.309566 216.148777 
L 207.686577 216.151344 
L 207.06498 216.362644 
L 206.444078 216.447183 
L 205.199492 217.166354 
L 204.573952 218.012599 
L 203.93867 218.240379 
L 202.70684 218.936445 
L 201.465269 219.056349 
L 200.217203 220.027677 
L 198.965789 220.445945 
L 197.709374 220.434731 
L 197.074324 220.794944 
L 196.454002 221.600676 
L 195.832405 222.076536 
L 194.567176 222.814971 
L 193.341608 222.986141 
L 192.704239 223.318937 
L 192.069189 223.876698 
L 191.460812 223.98226 
L 190.241971 224.465804 
L 188.969552 224.961741 
L 187.698061 225.588984 
L 186.424946 226.178085 
L 185.81309 226.081715 
L 183.957119 226.670786 
L 183.338536 226.713343 
L 182.702327 227.28359 
L 180.200745 228.85812 
L 179.577524 228.701981 
L 178.958478 228.929215 
L 177.712964 229.533992 
L 177.089047 229.872835 
L 176.461767 230.502281 
L 175.82347 230.732647 
L 174.59396 230.745425 
L 173.328035 230.7384 
L 172.087624 231.600144 
L 170.841066 232.742645 
L 168.975875 233.074479 
L 168.338738 233.15388 
L 164.553836 234.838473 
L 163.938269 234.838259 
L 163.315744 234.674082 
L 162.696466 234.679099 
L 162.087161 234.836504 
L 161.456518 235.173006 
L 160.827962 235.775559 
L 160.191521 236.148358 
L 158.966649 235.883071 
L 158.33763 236.082774 
L 157.081446 236.828586 
L 156.470054 236.88811 
L 155.85356 236.819929 
L 154.615236 237.025056 
L 153.992957 237.562235 
L 153.36069 237.926159 
L 152.124686 237.856873 
L 151.490331 237.87788 
L 150.87488 238.197543 
L 150.266272 238.888719 
L 149.639108 239.266853 
L 149.015191 239.162499 
L 147.749266 238.249197 
L 147.11468 238.205636 
L 145.893404 239.471337 
L 145.263456 239.516496 
L 144.648121 239.268285 
L 144.029075 238.876769 
L 143.416987 238.877873 
L 142.779154 238.993712 
L 142.170082 239.516983 
L 141.544309 239.467913 
L 140.912275 239.546725 
L 140.287198 239.229077 
L 139.655164 239.083635 
L 139.020875 239.337445 
L 138.393015 240.250747 
L 136.497143 240.212667 
L 135.251861 239.818402 
L 134.022466 241.093091 
L 132.773357 241.348565 
L 132.155007 241.358696 
L 130.902302 241.111952 
L 127.797102 241.855947 
L 127.185478 241.751766 
L 125.931962 241.945231 
L 124.030292 242.600712 
L 123.392354 242.720407 
L 122.758463 242.720462 
L 122.12782 242.967022 
L 121.493466 242.851623 
L 120.862591 242.939657 
L 120.235891 243.353561 
L 118.981331 243.879851 
L 118.365069 243.794502 
L 117.113292 243.395212 
L 116.497725 243.330682 
L 115.867314 243.531714 
L 115.249428 244.220707 
L 114.620756 244.55633 
L 112.738105 244.025749 
L 111.485052 244.022922 
L 110.862295 244.598582 
L 110.234899 244.811415 
L 108.381498 244.342489 
L 107.749695 244.369611 
L 107.126706 244.606026 
L 106.497339 245.019457 
L 105.88873 245.08695 
L 104.666409 245.018405 
L 104.030664 245.021975 
L 102.788397 245.649881 
L 102.161001 245.666569 
L 101.530126 245.408993 
L 100.278929 245.235106 
L 99.659537 245.512022 
L 99.030286 246.226772 
L 98.394772 245.769401 
L 97.776422 245.473887 
L 97.166189 244.999599 
L 96.549231 244.812764 
L 95.940274 244.838046 
L 95.330621 245.986048 
L 94.710416 246.24 
L 91.621484 242.570973 
L 90.992001 242.755729 
L 90.371795 241.671728 
L 89.128832 238.706551 
L 88.507003 237.730208 
L 87.885521 237.4405 
L 87.270418 238.094754 
L 86.640935 239.2101 
L 86.018642 238.884627 
L 85.40493 238.212747 
L 84.768257 237.780697 
L 84.156401 237.572748 
L 83.521351 237.648646 
L 82.900565 238.886406 
L 82.267487 239.116978 
L 80.408493 237.781203 
L 79.77727 237.644655 
L 79.145352 238.616283 
L 78.51668 239.347056 
L 77.904686 238.959473 
L 76.647806 237.875429 
L 76.025049 237.447678 
L 75.396262 237.706973 
L 74.767706 239.154985 
L 74.152719 239.732479 
L 73.542023 239.277738 
L 71.649514 236.643349 
L 71.026757 236.384574 
L 70.411422 237.047111 
L 69.79829 237.311046 
L 69.374305 237.266763 
L 69.348067 237.289334 
L 69.218458 238.078499 
L 69.218458 238.078499 
" clip-path="url(#p81952e1cfa)" style="fill: none; stroke: #000000; stroke-width: 1.5; stroke-linecap: square"/>
   </g>
   <g id="patch_3">
    <path d="M 54 256.32 
L 54 34.56 
" style="fill: none; stroke: #000000; stroke-width: 0.8; stroke-linejoin: miter; stroke-linecap: square"/>
   </g>
   <g id="patch_4">
    <path d="M 388.8 256.32 
L 388.8 34.56 
" style="fill: none; stroke: #000000; stroke-width: 0.8; stroke-linejoin: miter; stroke-linecap: square"/>
   </g>
   <g id="patch_5">
    <path d="M 54 256.32 
L 388.8 256.32 
" style="fill: none; stroke: #000000; stroke-width: 0.8; stroke-linejoin: miter; stroke-linecap: square"/>
   </g>
   <g id="patch_6">
    <path d="M 54 34.56 
L 388.8 34.56 
" style="fill: none; stroke: #000000; stroke-width: 0.8; stroke-linejoin: miter; stroke-linecap: square"/>
   </g>
   <g id="text_19">
    <!-- 2025-06-20 trial 20 -->
    <g transform="translate(163.2525 28.56) scale(0.12 -0.12)">
     <defs>
      <path id="DejaVuSans-2d" d="M 313 2009 
L 1997 2009 
L 1997 1497 
L 313 1497 
L 313 2009 
z
" transform="scale(0.015625)"/>
      <path id="DejaVuSans-6c" d="M 603 4863 
L 1178 4863 
L 1178 0 
L 603 0 
L 603 4863 
z
" transform="scale(0.015625)"/>
     </defs>
     <use xlink:href="#DejaVuSans-32"/>
     <use xlink:href="#DejaVuSans-30" x="63.623047"/>
     <use xlink:href="#DejaVuSans-32" x="127.246094"/>
     <use xlink:href="#DejaVuSans-35" x="190.869141"/>
     <use xlink:href="#DejaVuSans-2d" x="254.492188"/>
     <use xlink:href="#DejaVuSans-30" x="290.576172"/>
     <use xlink:href="#DejaVuSans-36" x="354.199219"/>
     <use xlink:href="#DejaVuSans-2d" x="417.822266"/>
     <use xlink:href="#DejaVuSans-32" x="453.90625"/>
     <use xlink:href="#DejaVuSans-30" x="517.529297"/>
     <use xlink:href="#DejaVuSans-20" x="581.152344"/>
     <use xlink:href="#DejaVuSans-74" x="612.939453"/>
     <use xlink:href="#DejaVuSans-72" x="652.148438"/>
     <use xlink:href="#DejaVuSans-69" x="693.261719"/>
     <use xlink:href="#DejaVuSans-61" x="721.044922"/>
     <use xlink:href="#DejaVuSans-6c" x="782.324219"/>
     <use xlink:href="#DejaVuSans-20" x="810.107422"/>
     <use xlink:href="#DejaVuSans-32" x="841.894531"/>
     <use xlink:href="#DejaVuSans-30" x="905.517578"/>
    </g>
   </g>
  </g>
 </g>
 <defs>
  <clipPath id="p81952e1cfa">
   <rect x="54" y="34.56" width="334.8" height="221.76"/>
  </clipPath>
 </defs>
</svg>
