<?xml version="1.0" encoding="utf-8" standalone="no"?>
<!DOCTYPE svg PUBLIC "-//W3C//DTD SVG 1.1//EN"
  "http://www.w3.org/Graphics/SVG/1.1/DTD/svg11.dtd">
<svg xmlns:xlink="http://www.w3.org/1999/xlink" width="460.8pt" height="345.6pt" viewBox="0 0 460.8 345.6" xmlns="http://www.w3.org/2000/svg" version="1.1">
 <metadata>
  <rdf:RDF xmlns:dc="http://purl.org/dc/elements/1.1/" xmlns:cc="http://creativecommons.org/ns#" xmlns:rdf="http://www.w3.org/1999/02/22-rdf-syntax-ns#">
   <cc:Work>
    <dc:type rdf:resource="http://purl.org/dc/dcmitype/StillImage"/>
    <dc:date>2025-07-08T21:01:21.669896</dc:date>
    <dc:format>image/svg+xml</dc:format>
    <dc:creator>
     <cc:Agent>
      <dc:title>Matplotlib v3.10.3, https://matplotlib.org/</dc:title>
     </cc:Agent>
    </dc:creator>
   </cc:Work>
  </rdf:RDF>
 </metadata>
 <defs>
  <style type="text/css">*{stroke-linejoin: round; stroke-linecap: butt}</style>
 </defs>
 <g id="figure_1">
  <g id="patch_1">
   <path d="M 0 345.6 
L 460.8 345.6 
L 460.8 0 
L 0 0 
z
" style="fill: #ffffff"/>
  </g>
  <g id="axes_1">
   <g id="patch_2">
    <path d="M 57.6 307.584 
L 414.72 307.584 
L 414.72 41.472 
L 57.6 41.472 
z
" style="fill: #ffffff"/>
   </g>
   <g id="matplotlib.axis_1">
    <g id="xtick_1">
     <g id="line2d_1">
      <defs>
       <path id="m78be2aafdd" d="M 0 0 
L 0 3.5 
" style="stroke: #000000; stroke-width: 0.8"/>
      </defs>
      <g>
       <use xlink:href="#m78be2aafdd" x="73.931634" y="307.584" style="stroke: #000000; stroke-width: 0.8"/>
      </g>
     </g>
     <g id="text_1">
      <!-- 0.00 -->
      <g transform="translate(62.798821 322.182437) scale(0.1 -0.1)">
       <defs>
        <path id="DejaVuSans-30" d="M 2034 4250 
Q 1547 4250 1301 3770 
Q 1056 3291 1056 2328 
Q 1056 1369 1301 889 
Q 1547 409 2034 409 
Q 2525 409 2770 889 
Q 3016 1369 3016 2328 
Q 3016 3291 2770 3770 
Q 2525 4250 2034 4250 
z
M 2034 4750 
Q 2819 4750 3233 4129 
Q 3647 3509 3647 2328 
Q 3647 1150 3233 529 
Q 2819 -91 2034 -91 
Q 1250 -91 836 529 
Q 422 1150 422 2328 
Q 422 3509 836 4129 
Q 1250 4750 2034 4750 
z
" transform="scale(0.015625)"/>
        <path id="DejaVuSans-2e" d="M 684 794 
L 1344 794 
L 1344 0 
L 684 0 
L 684 794 
z
" transform="scale(0.015625)"/>
       </defs>
       <use xlink:href="#DejaVuSans-30"/>
       <use xlink:href="#DejaVuSans-2e" transform="translate(63.623047 0)"/>
       <use xlink:href="#DejaVuSans-30" transform="translate(95.410156 0)"/>
       <use xlink:href="#DejaVuSans-30" transform="translate(159.033203 0)"/>
      </g>
     </g>
    </g>
    <g id="xtick_2">
     <g id="line2d_2">
      <g>
       <use xlink:href="#m78be2aafdd" x="138.819653" y="307.584" style="stroke: #000000; stroke-width: 0.8"/>
      </g>
     </g>
     <g id="text_2">
      <!-- 0.05 -->
      <g transform="translate(127.686841 322.182437) scale(0.1 -0.1)">
       <defs>
        <path id="DejaVuSans-35" d="M 691 4666 
L 3169 4666 
L 3169 4134 
L 1269 4134 
L 1269 2991 
Q 1406 3038 1543 3061 
Q 1681 3084 1819 3084 
Q 2600 3084 3056 2656 
Q 3513 2228 3513 1497 
Q 3513 744 3044 326 
Q 2575 -91 1722 -91 
Q 1428 -91 1123 -41 
Q 819 9 494 109 
L 494 744 
Q 775 591 1075 516 
Q 1375 441 1709 441 
Q 2250 441 2565 725 
Q 2881 1009 2881 1497 
Q 2881 1984 2565 2268 
Q 2250 2553 1709 2553 
Q 1456 2553 1204 2497 
Q 953 2441 691 2322 
L 691 4666 
z
" transform="scale(0.015625)"/>
       </defs>
       <use xlink:href="#DejaVuSans-30"/>
       <use xlink:href="#DejaVuSans-2e" transform="translate(63.623047 0)"/>
       <use xlink:href="#DejaVuSans-30" transform="translate(95.410156 0)"/>
       <use xlink:href="#DejaVuSans-35" transform="translate(159.033203 0)"/>
      </g>
     </g>
    </g>
    <g id="xtick_3">
     <g id="line2d_3">
      <g>
       <use xlink:href="#m78be2aafdd" x="203.707672" y="307.584" style="stroke: #000000; stroke-width: 0.8"/>
      </g>
     </g>
     <g id="text_3">
      <!-- 0.10 -->
      <g transform="translate(192.57486 322.182437) scale(0.1 -0.1)">
       <defs>
        <path id="DejaVuSans-31" d="M 794 531 
L 1825 531 
L 1825 4091 
L 703 3866 
L 703 4441 
L 1819 4666 
L 2450 4666 
L 2450 531 
L 3481 531 
L 3481 0 
L 794 0 
L 794 531 
z
" transform="scale(0.015625)"/>
       </defs>
       <use xlink:href="#DejaVuSans-30"/>
       <use xlink:href="#DejaVuSans-2e" transform="translate(63.623047 0)"/>
       <use xlink:href="#DejaVuSans-31" transform="translate(95.410156 0)"/>
       <use xlink:href="#DejaVuSans-30" transform="translate(159.033203 0)"/>
      </g>
     </g>
    </g>
    <g id="xtick_4">
     <g id="line2d_4">
      <g>
       <use xlink:href="#m78be2aafdd" x="268.595692" y="307.584" style="stroke: #000000; stroke-width: 0.8"/>
      </g>
     </g>
     <g id="text_4">
      <!-- 0.15 -->
      <g transform="translate(257.462879 322.182437) scale(0.1 -0.1)">
       <use xlink:href="#DejaVuSans-30"/>
       <use xlink:href="#DejaVuSans-2e" transform="translate(63.623047 0)"/>
       <use xlink:href="#DejaVuSans-31" transform="translate(95.410156 0)"/>
       <use xlink:href="#DejaVuSans-35" transform="translate(159.033203 0)"/>
      </g>
     </g>
    </g>
    <g id="xtick_5">
     <g id="line2d_5">
      <g>
       <use xlink:href="#m78be2aafdd" x="333.483711" y="307.584" style="stroke: #000000; stroke-width: 0.8"/>
      </g>
     </g>
     <g id="text_5">
      <!-- 0.20 -->
      <g transform="translate(322.350898 322.182437) scale(0.1 -0.1)">
       <defs>
        <path id="DejaVuSans-32" d="M 1228 531 
L 3431 531 
L 3431 0 
L 469 0 
L 469 531 
Q 828 903 1448 1529 
Q 2069 2156 2228 2338 
Q 2531 2678 2651 2914 
Q 2772 3150 2772 3378 
Q 2772 3750 2511 3984 
Q 2250 4219 1831 4219 
Q 1534 4219 1204 4116 
Q 875 4013 500 3803 
L 500 4441 
Q 881 4594 1212 4672 
Q 1544 4750 1819 4750 
Q 2544 4750 2975 4387 
Q 3406 4025 3406 3419 
Q 3406 3131 3298 2873 
Q 3191 2616 2906 2266 
Q 2828 2175 2409 1742 
Q 1991 1309 1228 531 
z
" transform="scale(0.015625)"/>
       </defs>
       <use xlink:href="#DejaVuSans-30"/>
       <use xlink:href="#DejaVuSans-2e" transform="translate(63.623047 0)"/>
       <use xlink:href="#DejaVuSans-32" transform="translate(95.410156 0)"/>
       <use xlink:href="#DejaVuSans-30" transform="translate(159.033203 0)"/>
      </g>
     </g>
    </g>
    <g id="xtick_6">
     <g id="line2d_6">
      <g>
       <use xlink:href="#m78be2aafdd" x="398.37173" y="307.584" style="stroke: #000000; stroke-width: 0.8"/>
      </g>
     </g>
     <g id="text_6">
      <!-- 0.25 -->
      <g transform="translate(387.238918 322.182437) scale(0.1 -0.1)">
       <use xlink:href="#DejaVuSans-30"/>
       <use xlink:href="#DejaVuSans-2e" transform="translate(63.623047 0)"/>
       <use xlink:href="#DejaVuSans-32" transform="translate(95.410156 0)"/>
       <use xlink:href="#DejaVuSans-35" transform="translate(159.033203 0)"/>
      </g>
     </g>
    </g>
    <g id="text_7">
     <!-- Strain -->
     <g transform="translate(221.348281 335.860562) scale(0.1 -0.1)">
      <defs>
       <path id="DejaVuSans-53" d="M 3425 4513 
L 3425 3897 
Q 3066 4069 2747 4153 
Q 2428 4238 2131 4238 
Q 1616 4238 1336 4038 
Q 1056 3838 1056 3469 
Q 1056 3159 1242 3001 
Q 1428 2844 1947 2747 
L 2328 2669 
Q 3034 2534 3370 2195 
Q 3706 1856 3706 1288 
Q 3706 609 3251 259 
Q 2797 -91 1919 -91 
Q 1588 -91 1214 -16 
Q 841 59 441 206 
L 441 856 
Q 825 641 1194 531 
Q 1563 422 1919 422 
Q 2459 422 2753 634 
Q 3047 847 3047 1241 
Q 3047 1584 2836 1778 
Q 2625 1972 2144 2069 
L 1759 2144 
Q 1053 2284 737 2584 
Q 422 2884 422 3419 
Q 422 4038 858 4394 
Q 1294 4750 2059 4750 
Q 2388 4750 2728 4690 
Q 3069 4631 3425 4513 
z
" transform="scale(0.015625)"/>
       <path id="DejaVuSans-74" d="M 1172 4494 
L 1172 3500 
L 2356 3500 
L 2356 3053 
L 1172 3053 
L 1172 1153 
Q 1172 725 1289 603 
Q 1406 481 1766 481 
L 2356 481 
L 2356 0 
L 1766 0 
Q 1100 0 847 248 
Q 594 497 594 1153 
L 594 3053 
L 172 3053 
L 172 3500 
L 594 3500 
L 594 4494 
L 1172 4494 
z
" transform="scale(0.015625)"/>
       <path id="DejaVuSans-72" d="M 2631 2963 
Q 2534 3019 2420 3045 
Q 2306 3072 2169 3072 
Q 1681 3072 1420 2755 
Q 1159 2438 1159 1844 
L 1159 0 
L 581 0 
L 581 3500 
L 1159 3500 
L 1159 2956 
Q 1341 3275 1631 3429 
Q 1922 3584 2338 3584 
Q 2397 3584 2469 3576 
Q 2541 3569 2628 3553 
L 2631 2963 
z
" transform="scale(0.015625)"/>
       <path id="DejaVuSans-61" d="M 2194 1759 
Q 1497 1759 1228 1600 
Q 959 1441 959 1056 
Q 959 750 1161 570 
Q 1363 391 1709 391 
Q 2188 391 2477 730 
Q 2766 1069 2766 1631 
L 2766 1759 
L 2194 1759 
z
M 3341 1997 
L 3341 0 
L 2766 0 
L 2766 531 
Q 2569 213 2275 61 
Q 1981 -91 1556 -91 
Q 1019 -91 701 211 
Q 384 513 384 1019 
Q 384 1609 779 1909 
Q 1175 2209 1959 2209 
L 2766 2209 
L 2766 2266 
Q 2766 2663 2505 2880 
Q 2244 3097 1772 3097 
Q 1472 3097 1187 3025 
Q 903 2953 641 2809 
L 641 3341 
Q 956 3463 1253 3523 
Q 1550 3584 1831 3584 
Q 2591 3584 2966 3190 
Q 3341 2797 3341 1997 
z
" transform="scale(0.015625)"/>
       <path id="DejaVuSans-69" d="M 603 3500 
L 1178 3500 
L 1178 0 
L 603 0 
L 603 3500 
z
M 603 4863 
L 1178 4863 
L 1178 4134 
L 603 4134 
L 603 4863 
z
" transform="scale(0.015625)"/>
       <path id="DejaVuSans-6e" d="M 3513 2113 
L 3513 0 
L 2938 0 
L 2938 2094 
Q 2938 2591 2744 2837 
Q 2550 3084 2163 3084 
Q 1697 3084 1428 2787 
Q 1159 2491 1159 1978 
L 1159 0 
L 581 0 
L 581 3500 
L 1159 3500 
L 1159 2956 
Q 1366 3272 1645 3428 
Q 1925 3584 2291 3584 
Q 2894 3584 3203 3211 
Q 3513 2838 3513 2113 
z
" transform="scale(0.015625)"/>
      </defs>
      <use xlink:href="#DejaVuSans-53"/>
      <use xlink:href="#DejaVuSans-74" transform="translate(63.476562 0)"/>
      <use xlink:href="#DejaVuSans-72" transform="translate(102.685547 0)"/>
      <use xlink:href="#DejaVuSans-61" transform="translate(143.798828 0)"/>
      <use xlink:href="#DejaVuSans-69" transform="translate(205.078125 0)"/>
      <use xlink:href="#DejaVuSans-6e" transform="translate(232.861328 0)"/>
     </g>
    </g>
   </g>
   <g id="matplotlib.axis_2">
    <g id="ytick_1">
     <g id="line2d_7">
      <defs>
       <path id="ma1878c43d9" d="M 0 0 
L -3.5 0 
" style="stroke: #000000; stroke-width: 0.8"/>
      </defs>
      <g>
       <use xlink:href="#ma1878c43d9" x="57.6" y="279.800887" style="stroke: #000000; stroke-width: 0.8"/>
      </g>
     </g>
     <g id="text_8">
      <!-- 0 -->
      <g transform="translate(44.2375 283.600106) scale(0.1 -0.1)">
       <use xlink:href="#DejaVuSans-30"/>
      </g>
     </g>
    </g>
    <g id="ytick_2">
     <g id="line2d_8">
      <g>
       <use xlink:href="#ma1878c43d9" x="57.6" y="238.143945" style="stroke: #000000; stroke-width: 0.8"/>
      </g>
     </g>
     <g id="text_9">
      <!-- 500 -->
      <g transform="translate(31.5125 241.943164) scale(0.1 -0.1)">
       <use xlink:href="#DejaVuSans-35"/>
       <use xlink:href="#DejaVuSans-30" transform="translate(63.623047 0)"/>
       <use xlink:href="#DejaVuSans-30" transform="translate(127.246094 0)"/>
      </g>
     </g>
    </g>
    <g id="ytick_3">
     <g id="line2d_9">
      <g>
       <use xlink:href="#ma1878c43d9" x="57.6" y="196.487003" style="stroke: #000000; stroke-width: 0.8"/>
      </g>
     </g>
     <g id="text_10">
      <!-- 1000 -->
      <g transform="translate(25.15 200.286222) scale(0.1 -0.1)">
       <use xlink:href="#DejaVuSans-31"/>
       <use xlink:href="#DejaVuSans-30" transform="translate(63.623047 0)"/>
       <use xlink:href="#DejaVuSans-30" transform="translate(127.246094 0)"/>
       <use xlink:href="#DejaVuSans-30" transform="translate(190.869141 0)"/>
      </g>
     </g>
    </g>
    <g id="ytick_4">
     <g id="line2d_10">
      <g>
       <use xlink:href="#ma1878c43d9" x="57.6" y="154.830061" style="stroke: #000000; stroke-width: 0.8"/>
      </g>
     </g>
     <g id="text_11">
      <!-- 1500 -->
      <g transform="translate(25.15 158.62928) scale(0.1 -0.1)">
       <use xlink:href="#DejaVuSans-31"/>
       <use xlink:href="#DejaVuSans-35" transform="translate(63.623047 0)"/>
       <use xlink:href="#DejaVuSans-30" transform="translate(127.246094 0)"/>
       <use xlink:href="#DejaVuSans-30" transform="translate(190.869141 0)"/>
      </g>
     </g>
    </g>
    <g id="ytick_5">
     <g id="line2d_11">
      <g>
       <use xlink:href="#ma1878c43d9" x="57.6" y="113.173119" style="stroke: #000000; stroke-width: 0.8"/>
      </g>
     </g>
     <g id="text_12">
      <!-- 2000 -->
      <g transform="translate(25.15 116.972338) scale(0.1 -0.1)">
       <use xlink:href="#DejaVuSans-32"/>
       <use xlink:href="#DejaVuSans-30" transform="translate(63.623047 0)"/>
       <use xlink:href="#DejaVuSans-30" transform="translate(127.246094 0)"/>
       <use xlink:href="#DejaVuSans-30" transform="translate(190.869141 0)"/>
      </g>
     </g>
    </g>
    <g id="ytick_6">
     <g id="line2d_12">
      <g>
       <use xlink:href="#ma1878c43d9" x="57.6" y="71.516177" style="stroke: #000000; stroke-width: 0.8"/>
      </g>
     </g>
     <g id="text_13">
      <!-- 2500 -->
      <g transform="translate(25.15 75.315396) scale(0.1 -0.1)">
       <use xlink:href="#DejaVuSans-32"/>
       <use xlink:href="#DejaVuSans-35" transform="translate(63.623047 0)"/>
       <use xlink:href="#DejaVuSans-30" transform="translate(127.246094 0)"/>
       <use xlink:href="#DejaVuSans-30" transform="translate(190.869141 0)"/>
      </g>
     </g>
    </g>
    <g id="text_14">
     <!-- Stress [Pa] -->
     <g transform="translate(19.070312 201.235813) rotate(-90) scale(0.1 -0.1)">
      <defs>
       <path id="DejaVuSans-65" d="M 3597 1894 
L 3597 1613 
L 953 1613 
Q 991 1019 1311 708 
Q 1631 397 2203 397 
Q 2534 397 2845 478 
Q 3156 559 3463 722 
L 3463 178 
Q 3153 47 2828 -22 
Q 2503 -91 2169 -91 
Q 1331 -91 842 396 
Q 353 884 353 1716 
Q 353 2575 817 3079 
Q 1281 3584 2069 3584 
Q 2775 3584 3186 3129 
Q 3597 2675 3597 1894 
z
M 3022 2063 
Q 3016 2534 2758 2815 
Q 2500 3097 2075 3097 
Q 1594 3097 1305 2825 
Q 1016 2553 972 2059 
L 3022 2063 
z
" transform="scale(0.015625)"/>
       <path id="DejaVuSans-73" d="M 2834 3397 
L 2834 2853 
Q 2591 2978 2328 3040 
Q 2066 3103 1784 3103 
Q 1356 3103 1142 2972 
Q 928 2841 928 2578 
Q 928 2378 1081 2264 
Q 1234 2150 1697 2047 
L 1894 2003 
Q 2506 1872 2764 1633 
Q 3022 1394 3022 966 
Q 3022 478 2636 193 
Q 2250 -91 1575 -91 
Q 1294 -91 989 -36 
Q 684 19 347 128 
L 347 722 
Q 666 556 975 473 
Q 1284 391 1588 391 
Q 1994 391 2212 530 
Q 2431 669 2431 922 
Q 2431 1156 2273 1281 
Q 2116 1406 1581 1522 
L 1381 1569 
Q 847 1681 609 1914 
Q 372 2147 372 2553 
Q 372 3047 722 3315 
Q 1072 3584 1716 3584 
Q 2034 3584 2315 3537 
Q 2597 3491 2834 3397 
z
" transform="scale(0.015625)"/>
       <path id="DejaVuSans-20" transform="scale(0.015625)"/>
       <path id="DejaVuSans-5b" d="M 550 4863 
L 1875 4863 
L 1875 4416 
L 1125 4416 
L 1125 -397 
L 1875 -397 
L 1875 -844 
L 550 -844 
L 550 4863 
z
" transform="scale(0.015625)"/>
       <path id="DejaVuSans-50" d="M 1259 4147 
L 1259 2394 
L 2053 2394 
Q 2494 2394 2734 2622 
Q 2975 2850 2975 3272 
Q 2975 3691 2734 3919 
Q 2494 4147 2053 4147 
L 1259 4147 
z
M 628 4666 
L 2053 4666 
Q 2838 4666 3239 4311 
Q 3641 3956 3641 3272 
Q 3641 2581 3239 2228 
Q 2838 1875 2053 1875 
L 1259 1875 
L 1259 0 
L 628 0 
L 628 4666 
z
" transform="scale(0.015625)"/>
       <path id="DejaVuSans-5d" d="M 1947 4863 
L 1947 -844 
L 622 -844 
L 622 -397 
L 1369 -397 
L 1369 4416 
L 622 4416 
L 622 4863 
L 1947 4863 
z
" transform="scale(0.015625)"/>
      </defs>
      <use xlink:href="#DejaVuSans-53"/>
      <use xlink:href="#DejaVuSans-74" transform="translate(63.476562 0)"/>
      <use xlink:href="#DejaVuSans-72" transform="translate(102.685547 0)"/>
      <use xlink:href="#DejaVuSans-65" transform="translate(141.548828 0)"/>
      <use xlink:href="#DejaVuSans-73" transform="translate(203.072266 0)"/>
      <use xlink:href="#DejaVuSans-73" transform="translate(255.171875 0)"/>
      <use xlink:href="#DejaVuSans-20" transform="translate(307.271484 0)"/>
      <use xlink:href="#DejaVuSans-5b" transform="translate(339.058594 0)"/>
      <use xlink:href="#DejaVuSans-50" transform="translate(378.072266 0)"/>
      <use xlink:href="#DejaVuSans-61" transform="translate(433.875 0)"/>
      <use xlink:href="#DejaVuSans-5d" transform="translate(495.154297 0)"/>
     </g>
    </g>
   </g>
   <g id="line2d_13">
    <path d="M 73.931634 280.004602 
L 73.93104 279.901551 
L 73.931634 280.005092 
L 73.930802 279.955721 
L 74.402163 278.592944 
L 74.901639 276.386999 
L 75.384319 275.955601 
L 75.883192 275.98655 
L 76.395222 275.428917 
L 76.896997 274.583773 
L 77.365532 274.08884 
L 77.881805 273.974503 
L 78.444048 274.187195 
L 79.944069 275.079584 
L 80.480851 275.124458 
L 81.602507 275.002404 
L 82.786399 275.222647 
L 84.013431 275.751828 
L 86.345853 276.894494 
L 86.959723 277.004835 
L 87.567228 276.845361 
L 88.763142 276.344105 
L 89.352966 276.2845 
L 89.936426 276.428343 
L 91.075055 276.907996 
L 91.62386 276.871459 
L 92.158521 276.586231 
L 92.679745 276.073384 
L 94.688966 273.608908 
L 95.676957 273.130836 
L 97.142324 272.519634 
L 100.947892 270.415556 
L 102.822741 269.384944 
L 106.099307 267.918763 
L 107.502438 267.237133 
L 109.370921 266.479981 
L 116.377383 263.046364 
L 118.727486 262.100934 
L 121.071226 260.83392 
L 125.288399 258.764266 
L 132.325978 255.218244 
L 134.20507 254.289499 
L 136.549753 253.233027 
L 138.993209 252.050318 
L 140.725199 251.03762 
L 147.624869 247.330719 
L 149.34908 246.408648 
L 152.789014 244.867647 
L 157.342117 242.313247 
L 161.343587 239.89584 
L 165.742515 237.670575 
L 171.284311 234.814789 
L 174.709394 232.839625 
L 176.98736 231.372039 
L 179.272398 230.034773 
L 180.995902 229.16504 
L 182.145847 228.61812 
L 187.327672 225.565977 
L 192.680645 222.349793 
L 194.089323 221.4632 
L 196.91468 219.956623 
L 199.727307 218.300057 
L 206.676483 213.856904 
L 210.05206 211.757743 
L 221.832985 204.51606 
L 227.476627 200.978468 
L 236.176888 195.346634 
L 240.186844 192.412867 
L 248.785972 186.64826 
L 249.92743 185.885312 
L 253.347385 183.331756 
L 268.266957 172.647324 
L 271.278313 170.507416 
L 275.921941 167.034809 
L 282.16743 162.081267 
L 285.536642 159.316108 
L 290.221996 155.807671 
L 295.357144 151.791656 
L 299.547442 148.303944 
L 301.420877 146.768213 
L 304.241991 144.467777 
L 313.138219 136.820877 
L 315.014482 135.156583 
L 317.37095 133.19582 
L 321.612875 129.675089 
L 326.352686 125.64116 
L 351.210877 102.366329 
L 358.916075 94.745983 
L 361.764063 91.687868 
L 371.81775 81.312878 
L 382.518746 69.934696 
L 388.416988 63.675151 
L 391.699211 60.901912 
L 395.69962 57.768627 
L 396.675588 56.694107 
L 397.621941 55.101997 
L 398.26673 53.671579 
L 398.487273 54.982765 
L 398.37173 75.369976 
L 398.372084 88.004194 
L 398.370559 87.990143 
L 397.899084 88.266304 
L 396.963737 90.042344 
L 395.525422 90.557211 
L 394.563598 91.302333 
L 394.088698 91.519502 
L 393.598415 92.110418 
L 393.112022 92.383571 
L 392.175835 94.351841 
L 391.692802 95.233868 
L 391.207647 95.67172 
L 390.743178 95.808582 
L 390.258553 96.074841 
L 389.295138 96.963366 
L 388.815199 97.572987 
L 387.39147 100.086618 
L 385.971277 101.092642 
L 384.542156 102.757639 
L 383.594565 103.974773 
L 382.654842 104.904659 
L 381.697615 106.141991 
L 378.865982 109.001795 
L 377.923076 110.306745 
L 376.042127 112.132533 
L 375.094713 113.242707 
L 374.138017 114.186556 
L 373.1891 115.136817 
L 371.292858 117.237207 
L 368.944523 119.778522 
L 368.008712 120.694205 
L 366.102745 122.671213 
L 364.669645 124.08971 
L 362.777558 125.948429 
L 359.896861 128.797366 
L 358.009282 130.722826 
L 348.546678 139.705664 
L 338.105477 149.28651 
L 337.166638 150.119711 
L 335.264031 151.831426 
L 333.350815 153.421746 
L 331.452097 155.022549 
L 328.58466 157.414929 
L 321.49289 163.417326 
L 320.073051 164.560782 
L 319.121659 165.464324 
L 312.958297 170.185021 
L 311.535452 171.637502 
L 309.634922 172.849586 
L 308.691574 173.795719 
L 305.845531 175.929216 
L 304.910582 176.604523 
L 303.957598 177.2851 
L 302.518929 178.496965 
L 298.25413 181.626474 
L 297.28824 182.329268 
L 294.445909 184.526431 
L 293.49602 185.300795 
L 292.546219 186.035554 
L 291.125584 186.861203 
L 288.268756 188.966988 
L 283.021955 192.821685 
L 281.590447 193.790562 
L 280.65868 194.37274 
L 279.213469 195.454812 
L 273.95701 199.168289 
L 273.008093 199.738436 
L 272.058999 200.308847 
L 270.169652 201.645499 
L 267.783569 203.142328 
L 266.830674 203.816054 
L 263.949226 205.763721 
L 259.177856 208.74403 
L 257.741308 209.806959 
L 255.823672 211.009164 
L 254.388893 211.991828 
L 252.496386 213.155817 
L 247.252325 216.367434 
L 246.301286 217.095343 
L 244.87464 217.869795 
L 243.441276 218.886752 
L 242.021525 219.660501 
L 240.576911 220.656086 
L 239.159812 221.250778 
L 236.793001 222.795686 
L 235.37714 223.620369 
L 234.438124 224.159561 
L 233.492213 224.716711 
L 232.069368 225.514346 
L 230.638656 226.185702 
L 229.698667 227.012844 
L 227.330298 228.220565 
L 226.392166 228.85934 
L 224.971178 229.492276 
L 223.546212 230.507301 
L 222.591283 230.771178 
L 221.659959 231.328899 
L 221.17613 231.801 
L 219.757174 232.519337 
L 218.809849 232.980943 
L 217.86438 233.743452 
L 215.954203 234.531433 
L 214.52296 235.571793 
L 213.566971 236.011445 
L 212.132191 236.822209 
L 210.237717 237.704895 
L 208.818055 238.63162 
L 206.92694 239.529542 
L 205.044941 240.572174 
L 203.611046 241.327042 
L 200.293992 243.122337 
L 199.35586 243.574283 
L 198.404026 244.192554 
L 196.053127 245.256339 
L 195.113228 245.869252 
L 193.681211 246.398631 
L 192.280467 247.27271 
L 191.811931 247.59043 
L 190.384578 248.117086 
L 187.99876 249.475604 
L 187.034992 249.775634 
L 181.852868 252.416542 
L 181.381504 252.537026 
L 173.76356 256.355761 
L 172.802178 256.959629 
L 171.381544 257.328731 
L 169.940808 258.220806 
L 168.994013 258.636507 
L 168.052876 258.975368 
L 167.10502 259.735242 
L 166.163352 260.138648 
L 165.20754 260.42392 
L 164.260479 260.83793 
L 163.306347 261.491239 
L 160.94758 262.568964 
L 159.99884 262.985038 
L 158.579073 263.442242 
L 157.64156 264.133708 
L 156.201123 264.618114 
L 155.727107 264.718499 
L 153.820609 265.818947 
L 151.925074 266.562926 
L 149.068776 267.914913 
L 146.213274 269.122472 
L 145.270545 269.652926 
L 139.594459 271.929224 
L 138.160918 272.680733 
L 136.271499 273.373503 
L 135.324173 273.791223 
L 133.887626 274.308308 
L 131.995273 275.217536 
L 130.565975 275.750203 
L 129.624307 276.245443 
L 128.208093 276.657785 
L 127.249982 277.09781 
L 126.775524 277.399898 
L 124.390441 278.207117 
L 123.445413 278.705958 
L 121.539093 279.335062 
L 120.586375 279.94903 
L 118.234681 280.651857 
L 117.753504 281.062661 
L 116.803438 281.38104 
L 116.323233 281.44879 
L 113.953858 282.41405 
L 112.536201 282.778391 
L 111.588522 283.291919 
L 110.164528 283.762109 
L 109.688037 283.957413 
L 108.751142 284.483959 
L 107.309821 284.784286 
L 106.354982 285.265826 
L 105.880612 285.580033 
L 103.522376 286.377921 
L 102.0708 286.971559 
L 100.660585 287.423667 
L 97.813658 288.522027 
L 96.857846 288.750579 
L 96.387454 288.905619 
L 95.435885 289.392077 
L 93.525145 289.884529 
L 93.048564 290.223851 
L 92.56279 290.406586 
L 91.615465 290.576227 
L 90.672206 290.830279 
L 90.195537 291.113048 
L 87.840819 291.806007 
L 87.365654 292.099621 
L 85.454913 292.342553 
L 84.516605 293.079442 
L 83.083063 293.143026 
L 82.13839 293.363209 
L 81.655621 294.000141 
L 81.188324 294.03785 
L 80.250369 293.940969 
L 79.297209 294.066824 
L 78.829646 294.624545 
L 78.347901 294.82765 
L 77.404465 294.788549 
L 76.438398 294.805794 
L 75.478784 295.488 
L 74.535791 295.124067 
L 73.915224 295.010134 
L 73.833473 294.471001 
L 73.833473 294.471001 
" clip-path="url(#p1fca3dcd50)" style="fill: none; stroke: #ff0000; stroke-width: 1.5; stroke-linecap: square"/>
   </g>
   <g id="line2d_14">
    <path d="M 73.931634 280.004602 
L 73.93104 279.901551 
L 73.931634 280.005092 
L 73.930802 279.955721 
L 74.402163 278.592944 
L 74.901639 276.386999 
L 75.384319 275.955601 
L 75.883192 275.98655 
L 76.395222 275.428917 
L 76.896997 274.583773 
L 77.365532 279.137218 
L 77.881805 278.881672 
L 79.423552 278.764525 
L 79.944069 278.618223 
L 81.602507 277.532913 
L 82.786399 276.741512 
L 84.478784 276.265021 
L 84.946259 276.194071 
L 86.345853 276.894494 
L 86.959723 277.004835 
L 87.567228 276.845361 
L 88.763142 276.344105 
L 89.352966 276.2845 
L 89.936426 276.428343 
L 91.075055 276.907996 
L 91.62386 276.871459 
L 92.158521 276.586231 
L 92.679745 276.073384 
L 94.688966 273.608908 
L 95.676957 273.130836 
L 97.142324 272.519634 
L 100.947892 270.415556 
L 102.822741 269.384944 
L 106.099307 267.918763 
L 107.502438 267.237133 
L 109.370921 266.479981 
L 116.377383 263.046364 
L 118.727486 262.100934 
L 121.071226 260.83392 
L 125.288399 258.764266 
L 132.325978 255.218244 
L 134.20507 254.289499 
L 136.549753 253.233027 
L 138.993209 252.050318 
L 140.725199 251.03762 
L 147.624869 247.330719 
L 149.34908 246.408648 
L 152.789014 244.867647 
L 157.342117 242.313247 
L 161.343587 239.89584 
L 165.742515 237.670575 
L 171.284311 234.814789 
L 174.709394 232.839625 
L 176.98736 231.372039 
L 179.272398 230.034773 
L 180.995902 229.16504 
L 182.145847 228.61812 
L 187.327672 225.565977 
L 192.680645 222.349793 
L 194.089323 221.4632 
L 196.91468 219.956623 
L 199.727307 218.300057 
L 206.676483 213.856904 
L 210.05206 211.757743 
L 221.832985 204.51606 
L 227.476627 200.978468 
L 236.176888 195.346634 
L 240.186844 192.412867 
L 248.785972 186.64826 
L 249.92743 185.885312 
L 253.347385 183.331756 
L 268.266957 172.647324 
L 271.278313 170.507416 
L 275.921941 167.034809 
L 282.16743 162.081267 
L 285.536642 159.316108 
L 290.221996 155.807671 
L 295.357144 151.791656 
L 299.547442 148.303944 
L 301.420877 146.768213 
L 304.241991 144.467777 
L 313.138219 136.820877 
L 315.014482 135.156583 
L 317.37095 133.19582 
L 321.612875 129.675089 
L 326.352686 125.64116 
L 351.210877 102.366329 
L 358.916075 94.745983 
L 361.764063 91.687868 
L 371.81775 81.312878 
L 382.053393 70.414529 
L 386.11639 65.811117 
L 387.845551 63.808729 
L 388.984181 62.661805 
L 394.712336 56.200194 
L 397.151195 54.104552 
L 397.621941 54.01937 
L 398.26673 53.568 
L 398.487273 54.932967 
L 398.371863 75.239349 
L 398.372084 88.004194 
L 398.370559 87.990143 
L 397.899084 88.266304 
L 396.963737 90.042344 
L 395.525422 90.557211 
L 394.563598 91.302333 
L 394.088698 91.519502 
L 393.598415 92.110418 
L 393.112022 92.383571 
L 392.175835 94.351841 
L 391.692802 95.233868 
L 391.207647 95.67172 
L 390.743178 95.808582 
L 390.258553 96.074841 
L 389.295138 96.963366 
L 388.815199 97.572987 
L 387.39147 100.086618 
L 385.971277 101.092642 
L 384.542156 102.757639 
L 383.594565 103.974773 
L 382.654842 104.904659 
L 381.697615 106.141991 
L 378.865982 109.001795 
L 377.923076 110.306745 
L 376.042127 112.132533 
L 375.094713 113.242707 
L 374.138017 114.186556 
L 373.1891 115.136817 
L 371.292858 117.237207 
L 368.944523 119.778522 
L 368.008712 120.694205 
L 366.102745 122.671213 
L 364.669645 124.08971 
L 362.777558 125.948429 
L 359.896861 128.797366 
L 358.009282 130.722826 
L 348.546678 139.705664 
L 338.105477 149.28651 
L 337.166638 150.119711 
L 335.264031 151.831426 
L 333.350815 153.421746 
L 331.452097 155.022549 
L 328.58466 157.414929 
L 321.49289 163.417326 
L 320.073051 164.560782 
L 319.121659 165.464324 
L 312.958297 170.185021 
L 311.535452 171.637502 
L 309.634922 172.849586 
L 308.691574 173.795719 
L 305.845531 175.929216 
L 304.910582 176.604523 
L 303.957598 177.2851 
L 302.518929 178.496965 
L 298.25413 181.626474 
L 297.28824 182.329268 
L 294.445909 184.526431 
L 293.49602 185.300795 
L 292.546219 186.035554 
L 291.125584 186.861203 
L 288.268756 188.966988 
L 283.021955 192.821685 
L 281.590447 193.790562 
L 280.65868 194.37274 
L 279.213469 195.454812 
L 273.95701 199.168289 
L 273.008093 199.738436 
L 272.058999 200.308847 
L 270.169652 201.645499 
L 267.783569 203.142328 
L 266.830674 203.816054 
L 263.949226 205.763721 
L 259.177856 208.74403 
L 257.741308 209.806959 
L 255.823672 211.009164 
L 254.388893 211.991828 
L 252.496386 213.155817 
L 247.252325 216.367434 
L 246.301286 217.095343 
L 244.87464 217.869795 
L 243.441276 218.886752 
L 242.021525 219.660501 
L 240.576911 220.656086 
L 239.159812 221.250778 
L 236.793001 222.795686 
L 235.37714 223.620369 
L 234.438124 224.159561 
L 233.492213 224.716711 
L 232.069368 225.514346 
L 230.638656 226.185702 
L 229.698667 227.012844 
L 227.330298 228.220565 
L 226.392166 228.85934 
L 224.971178 229.492276 
L 223.546212 230.507301 
L 222.591283 230.771178 
L 221.659959 231.328899 
L 221.17613 231.801 
L 219.757174 232.519337 
L 218.809849 232.980943 
L 217.86438 233.743452 
L 215.954203 234.531433 
L 214.52296 235.571793 
L 213.566971 236.011445 
L 212.132191 236.822209 
L 210.237717 237.704895 
L 208.818055 238.63162 
L 206.92694 239.529542 
L 205.044941 240.572174 
L 203.611046 241.327042 
L 200.293992 243.122337 
L 199.35586 243.574283 
L 198.404026 244.192554 
L 196.053127 245.256339 
L 195.113228 245.869252 
L 193.681211 246.398631 
L 192.280467 247.27271 
L 191.811931 247.59043 
L 190.384578 248.117086 
L 187.99876 249.475604 
L 187.034992 249.775634 
L 181.852868 252.416542 
L 181.381504 252.537026 
L 173.76356 256.355761 
L 172.802178 256.959629 
L 171.381544 257.328731 
L 169.940808 258.220806 
L 168.994013 258.636507 
L 168.052876 258.975368 
L 167.10502 259.735242 
L 166.163352 260.138648 
L 165.20754 260.42392 
L 164.260479 260.83793 
L 163.306347 261.491239 
L 160.94758 262.568964 
L 159.99884 262.985038 
L 158.579073 263.442242 
L 157.64156 264.133708 
L 156.201123 264.618114 
L 155.727107 264.718499 
L 153.820609 265.818947 
L 151.925074 266.562926 
L 149.068776 267.914913 
L 146.213274 269.122472 
L 145.270545 269.652926 
L 139.594459 271.929224 
L 138.160918 272.680733 
L 136.271499 273.373503 
L 135.324173 273.791223 
L 133.887626 274.308308 
L 131.995273 275.217536 
L 130.565975 275.750203 
L 129.624307 276.245443 
L 128.208093 276.657785 
L 127.249982 277.09781 
L 126.775524 277.399898 
L 124.390441 278.207117 
L 123.445413 278.705958 
L 121.539093 279.335062 
L 120.586375 279.94903 
L 118.234681 280.651857 
L 117.753504 281.062661 
L 116.803438 281.38104 
L 116.323233 281.44879 
L 113.953858 282.41405 
L 112.536201 282.778391 
L 111.588522 283.291919 
L 110.164528 283.762109 
L 109.688037 283.957413 
L 108.751142 284.483959 
L 107.309821 284.784286 
L 106.354982 285.265826 
L 105.880612 285.580033 
L 103.522376 286.377921 
L 102.0708 286.971559 
L 100.660585 287.423667 
L 97.813658 288.522027 
L 96.857846 288.750579 
L 96.387454 288.905619 
L 95.435885 289.392077 
L 93.525145 289.884529 
L 93.048564 290.223851 
L 92.56279 290.406586 
L 91.615465 290.576227 
L 90.672206 290.830279 
L 90.195537 291.113048 
L 87.840819 291.806007 
L 87.365654 292.099621 
L 85.454913 292.342553 
L 84.516605 293.079442 
L 83.083063 293.143026 
L 82.13839 293.363209 
L 81.655621 294.000141 
L 81.188324 294.03785 
L 80.250369 293.940969 
L 79.297209 294.066824 
L 78.829646 294.624545 
L 78.347901 294.82765 
L 77.404465 294.788549 
L 76.438398 294.805794 
L 75.478784 295.488 
L 74.535791 295.124067 
L 73.915224 295.010134 
L 73.833473 294.471001 
L 73.833473 294.471001 
" clip-path="url(#p1fca3dcd50)" style="fill: none; stroke: #000000; stroke-width: 1.5; stroke-linecap: square"/>
   </g>
   <g id="patch_3">
    <path d="M 57.6 307.584 
L 57.6 41.472 
" style="fill: none; stroke: #000000; stroke-width: 0.8; stroke-linejoin: miter; stroke-linecap: square"/>
   </g>
   <g id="patch_4">
    <path d="M 414.72 307.584 
L 414.72 41.472 
" style="fill: none; stroke: #000000; stroke-width: 0.8; stroke-linejoin: miter; stroke-linecap: square"/>
   </g>
   <g id="patch_5">
    <path d="M 57.6 307.584 
L 414.72 307.584 
" style="fill: none; stroke: #000000; stroke-width: 0.8; stroke-linejoin: miter; stroke-linecap: square"/>
   </g>
   <g id="patch_6">
    <path d="M 57.6 41.472 
L 414.72 41.472 
" style="fill: none; stroke: #000000; stroke-width: 0.8; stroke-linejoin: miter; stroke-linecap: square"/>
   </g>
   <g id="text_15">
    <!-- 2025-06-19 trial 29 -->
    <g transform="translate(178.0125 35.472) scale(0.12 -0.12)">
     <defs>
      <path id="DejaVuSans-2d" d="M 313 2009 
L 1997 2009 
L 1997 1497 
L 313 1497 
L 313 2009 
z
" transform="scale(0.015625)"/>
      <path id="DejaVuSans-36" d="M 2113 2584 
Q 1688 2584 1439 2293 
Q 1191 2003 1191 1497 
Q 1191 994 1439 701 
Q 1688 409 2113 409 
Q 2538 409 2786 701 
Q 3034 994 3034 1497 
Q 3034 2003 2786 2293 
Q 2538 2584 2113 2584 
z
M 3366 4563 
L 3366 3988 
Q 3128 4100 2886 4159 
Q 2644 4219 2406 4219 
Q 1781 4219 1451 3797 
Q 1122 3375 1075 2522 
Q 1259 2794 1537 2939 
Q 1816 3084 2150 3084 
Q 2853 3084 3261 2657 
Q 3669 2231 3669 1497 
Q 3669 778 3244 343 
Q 2819 -91 2113 -91 
Q 1303 -91 875 529 
Q 447 1150 447 2328 
Q 447 3434 972 4092 
Q 1497 4750 2381 4750 
Q 2619 4750 2861 4703 
Q 3103 4656 3366 4563 
z
" transform="scale(0.015625)"/>
      <path id="DejaVuSans-39" d="M 703 97 
L 703 672 
Q 941 559 1184 500 
Q 1428 441 1663 441 
Q 2288 441 2617 861 
Q 2947 1281 2994 2138 
Q 2813 1869 2534 1725 
Q 2256 1581 1919 1581 
Q 1219 1581 811 2004 
Q 403 2428 403 3163 
Q 403 3881 828 4315 
Q 1253 4750 1959 4750 
Q 2769 4750 3195 4129 
Q 3622 3509 3622 2328 
Q 3622 1225 3098 567 
Q 2575 -91 1691 -91 
Q 1453 -91 1209 -44 
Q 966 3 703 97 
z
M 1959 2075 
Q 2384 2075 2632 2365 
Q 2881 2656 2881 3163 
Q 2881 3666 2632 3958 
Q 2384 4250 1959 4250 
Q 1534 4250 1286 3958 
Q 1038 3666 1038 3163 
Q 1038 2656 1286 2365 
Q 1534 2075 1959 2075 
z
" transform="scale(0.015625)"/>
      <path id="DejaVuSans-6c" d="M 603 4863 
L 1178 4863 
L 1178 0 
L 603 0 
L 603 4863 
z
" transform="scale(0.015625)"/>
     </defs>
     <use xlink:href="#DejaVuSans-32"/>
     <use xlink:href="#DejaVuSans-30" transform="translate(63.623047 0)"/>
     <use xlink:href="#DejaVuSans-32" transform="translate(127.246094 0)"/>
     <use xlink:href="#DejaVuSans-35" transform="translate(190.869141 0)"/>
     <use xlink:href="#DejaVuSans-2d" transform="translate(254.492188 0)"/>
     <use xlink:href="#DejaVuSans-30" transform="translate(290.576172 0)"/>
     <use xlink:href="#DejaVuSans-36" transform="translate(354.199219 0)"/>
     <use xlink:href="#DejaVuSans-2d" transform="translate(417.822266 0)"/>
     <use xlink:href="#DejaVuSans-31" transform="translate(453.90625 0)"/>
     <use xlink:href="#DejaVuSans-39" transform="translate(517.529297 0)"/>
     <use xlink:href="#DejaVuSans-20" transform="translate(581.152344 0)"/>
     <use xlink:href="#DejaVuSans-74" transform="translate(612.939453 0)"/>
     <use xlink:href="#DejaVuSans-72" transform="translate(652.148438 0)"/>
     <use xlink:href="#DejaVuSans-69" transform="translate(693.261719 0)"/>
     <use xlink:href="#DejaVuSans-61" transform="translate(721.044922 0)"/>
     <use xlink:href="#DejaVuSans-6c" transform="translate(782.324219 0)"/>
     <use xlink:href="#DejaVuSans-20" transform="translate(810.107422 0)"/>
     <use xlink:href="#DejaVuSans-32" transform="translate(841.894531 0)"/>
     <use xlink:href="#DejaVuSans-39" transform="translate(905.517578 0)"/>
    </g>
   </g>
  </g>
 </g>
 <defs>
  <clipPath id="p1fca3dcd50">
   <rect x="57.6" y="41.472" width="357.12" height="266.112"/>
  </clipPath>
 </defs>
</svg>
