<?xml version="1.0" encoding="utf-8" standalone="no"?>
<!DOCTYPE svg PUBLIC "-//W3C//DTD SVG 1.1//EN"
  "http://www.w3.org/Graphics/SVG/1.1/DTD/svg11.dtd">
<svg xmlns:xlink="http://www.w3.org/1999/xlink" width="460.8pt" height="345.6pt" viewBox="0 0 460.8 345.6" xmlns="http://www.w3.org/2000/svg" version="1.1">
 <metadata>
  <rdf:RDF xmlns:dc="http://purl.org/dc/elements/1.1/" xmlns:cc="http://creativecommons.org/ns#" xmlns:rdf="http://www.w3.org/1999/02/22-rdf-syntax-ns#">
   <cc:Work>
    <dc:type rdf:resource="http://purl.org/dc/dcmitype/StillImage"/>
    <dc:date>2025-07-16T22:11:33.045369</dc:date>
    <dc:format>image/svg+xml</dc:format>
    <dc:creator>
     <cc:Agent>
      <dc:title>Matplotlib v3.10.3, https://matplotlib.org/</dc:title>
     </cc:Agent>
    </dc:creator>
   </cc:Work>
  </rdf:RDF>
 </metadata>
 <defs>
  <style type="text/css">*{stroke-linejoin: round; stroke-linecap: butt}</style>
 </defs>
 <g id="figure_1">
  <g id="patch_1">
   <path d="M 0 345.6 
L 460.8 345.6 
L 460.8 0 
L 0 0 
z
" style="fill: #ffffff"/>
  </g>
  <g id="axes_1">
   <g id="patch_2">
    <path d="M 57.6 307.584 
L 414.72 307.584 
L 414.72 41.472 
L 57.6 41.472 
z
" style="fill: #ffffff"/>
   </g>
   <g id="matplotlib.axis_1">
    <g id="xtick_1">
     <g id="line2d_1">
      <defs>
       <path id="m5e0b66ba60" d="M 0 0 
L 0 3.5 
" style="stroke: #000000; stroke-width: 0.8"/>
      </defs>
      <g>
       <use xlink:href="#m5e0b66ba60" x="73.934093" y="307.584" style="stroke: #000000; stroke-width: 0.8"/>
      </g>
     </g>
     <g id="text_1">
      <!-- 0.00 -->
      <g transform="translate(62.80128 322.182437) scale(0.1 -0.1)">
       <defs>
        <path id="DejaVuSans-30" d="M 2034 4250 
Q 1547 4250 1301 3770 
Q 1056 3291 1056 2328 
Q 1056 1369 1301 889 
Q 1547 409 2034 409 
Q 2525 409 2770 889 
Q 3016 1369 3016 2328 
Q 3016 3291 2770 3770 
Q 2525 4250 2034 4250 
z
M 2034 4750 
Q 2819 4750 3233 4129 
Q 3647 3509 3647 2328 
Q 3647 1150 3233 529 
Q 2819 -91 2034 -91 
Q 1250 -91 836 529 
Q 422 1150 422 2328 
Q 422 3509 836 4129 
Q 1250 4750 2034 4750 
z
" transform="scale(0.015625)"/>
        <path id="DejaVuSans-2e" d="M 684 794 
L 1344 794 
L 1344 0 
L 684 0 
L 684 794 
z
" transform="scale(0.015625)"/>
       </defs>
       <use xlink:href="#DejaVuSans-30"/>
       <use xlink:href="#DejaVuSans-2e" transform="translate(63.623047 0)"/>
       <use xlink:href="#DejaVuSans-30" transform="translate(95.410156 0)"/>
       <use xlink:href="#DejaVuSans-30" transform="translate(159.033203 0)"/>
      </g>
     </g>
    </g>
    <g id="xtick_2">
     <g id="line2d_2">
      <g>
       <use xlink:href="#m5e0b66ba60" x="136.502653" y="307.584" style="stroke: #000000; stroke-width: 0.8"/>
      </g>
     </g>
     <g id="text_2">
      <!-- 0.05 -->
      <g transform="translate(125.369841 322.182437) scale(0.1 -0.1)">
       <defs>
        <path id="DejaVuSans-35" d="M 691 4666 
L 3169 4666 
L 3169 4134 
L 1269 4134 
L 1269 2991 
Q 1406 3038 1543 3061 
Q 1681 3084 1819 3084 
Q 2600 3084 3056 2656 
Q 3513 2228 3513 1497 
Q 3513 744 3044 326 
Q 2575 -91 1722 -91 
Q 1428 -91 1123 -41 
Q 819 9 494 109 
L 494 744 
Q 775 591 1075 516 
Q 1375 441 1709 441 
Q 2250 441 2565 725 
Q 2881 1009 2881 1497 
Q 2881 1984 2565 2268 
Q 2250 2553 1709 2553 
Q 1456 2553 1204 2497 
Q 953 2441 691 2322 
L 691 4666 
z
" transform="scale(0.015625)"/>
       </defs>
       <use xlink:href="#DejaVuSans-30"/>
       <use xlink:href="#DejaVuSans-2e" transform="translate(63.623047 0)"/>
       <use xlink:href="#DejaVuSans-30" transform="translate(95.410156 0)"/>
       <use xlink:href="#DejaVuSans-35" transform="translate(159.033203 0)"/>
      </g>
     </g>
    </g>
    <g id="xtick_3">
     <g id="line2d_3">
      <g>
       <use xlink:href="#m5e0b66ba60" x="199.071214" y="307.584" style="stroke: #000000; stroke-width: 0.8"/>
      </g>
     </g>
     <g id="text_3">
      <!-- 0.10 -->
      <g transform="translate(187.938402 322.182437) scale(0.1 -0.1)">
       <defs>
        <path id="DejaVuSans-31" d="M 794 531 
L 1825 531 
L 1825 4091 
L 703 3866 
L 703 4441 
L 1819 4666 
L 2450 4666 
L 2450 531 
L 3481 531 
L 3481 0 
L 794 0 
L 794 531 
z
" transform="scale(0.015625)"/>
       </defs>
       <use xlink:href="#DejaVuSans-30"/>
       <use xlink:href="#DejaVuSans-2e" transform="translate(63.623047 0)"/>
       <use xlink:href="#DejaVuSans-31" transform="translate(95.410156 0)"/>
       <use xlink:href="#DejaVuSans-30" transform="translate(159.033203 0)"/>
      </g>
     </g>
    </g>
    <g id="xtick_4">
     <g id="line2d_4">
      <g>
       <use xlink:href="#m5e0b66ba60" x="261.639775" y="307.584" style="stroke: #000000; stroke-width: 0.8"/>
      </g>
     </g>
     <g id="text_4">
      <!-- 0.15 -->
      <g transform="translate(250.506963 322.182437) scale(0.1 -0.1)">
       <use xlink:href="#DejaVuSans-30"/>
       <use xlink:href="#DejaVuSans-2e" transform="translate(63.623047 0)"/>
       <use xlink:href="#DejaVuSans-31" transform="translate(95.410156 0)"/>
       <use xlink:href="#DejaVuSans-35" transform="translate(159.033203 0)"/>
      </g>
     </g>
    </g>
    <g id="xtick_5">
     <g id="line2d_5">
      <g>
       <use xlink:href="#m5e0b66ba60" x="324.208336" y="307.584" style="stroke: #000000; stroke-width: 0.8"/>
      </g>
     </g>
     <g id="text_5">
      <!-- 0.20 -->
      <g transform="translate(313.075523 322.182437) scale(0.1 -0.1)">
       <defs>
        <path id="DejaVuSans-32" d="M 1228 531 
L 3431 531 
L 3431 0 
L 469 0 
L 469 531 
Q 828 903 1448 1529 
Q 2069 2156 2228 2338 
Q 2531 2678 2651 2914 
Q 2772 3150 2772 3378 
Q 2772 3750 2511 3984 
Q 2250 4219 1831 4219 
Q 1534 4219 1204 4116 
Q 875 4013 500 3803 
L 500 4441 
Q 881 4594 1212 4672 
Q 1544 4750 1819 4750 
Q 2544 4750 2975 4387 
Q 3406 4025 3406 3419 
Q 3406 3131 3298 2873 
Q 3191 2616 2906 2266 
Q 2828 2175 2409 1742 
Q 1991 1309 1228 531 
z
" transform="scale(0.015625)"/>
       </defs>
       <use xlink:href="#DejaVuSans-30"/>
       <use xlink:href="#DejaVuSans-2e" transform="translate(63.623047 0)"/>
       <use xlink:href="#DejaVuSans-32" transform="translate(95.410156 0)"/>
       <use xlink:href="#DejaVuSans-30" transform="translate(159.033203 0)"/>
      </g>
     </g>
    </g>
    <g id="xtick_6">
     <g id="line2d_6">
      <g>
       <use xlink:href="#m5e0b66ba60" x="386.776897" y="307.584" style="stroke: #000000; stroke-width: 0.8"/>
      </g>
     </g>
     <g id="text_6">
      <!-- 0.25 -->
      <g transform="translate(375.644084 322.182437) scale(0.1 -0.1)">
       <use xlink:href="#DejaVuSans-30"/>
       <use xlink:href="#DejaVuSans-2e" transform="translate(63.623047 0)"/>
       <use xlink:href="#DejaVuSans-32" transform="translate(95.410156 0)"/>
       <use xlink:href="#DejaVuSans-35" transform="translate(159.033203 0)"/>
      </g>
     </g>
    </g>
    <g id="text_7">
     <!-- Strain -->
     <g transform="translate(221.348281 335.860562) scale(0.1 -0.1)">
      <defs>
       <path id="DejaVuSans-53" d="M 3425 4513 
L 3425 3897 
Q 3066 4069 2747 4153 
Q 2428 4238 2131 4238 
Q 1616 4238 1336 4038 
Q 1056 3838 1056 3469 
Q 1056 3159 1242 3001 
Q 1428 2844 1947 2747 
L 2328 2669 
Q 3034 2534 3370 2195 
Q 3706 1856 3706 1288 
Q 3706 609 3251 259 
Q 2797 -91 1919 -91 
Q 1588 -91 1214 -16 
Q 841 59 441 206 
L 441 856 
Q 825 641 1194 531 
Q 1563 422 1919 422 
Q 2459 422 2753 634 
Q 3047 847 3047 1241 
Q 3047 1584 2836 1778 
Q 2625 1972 2144 2069 
L 1759 2144 
Q 1053 2284 737 2584 
Q 422 2884 422 3419 
Q 422 4038 858 4394 
Q 1294 4750 2059 4750 
Q 2388 4750 2728 4690 
Q 3069 4631 3425 4513 
z
" transform="scale(0.015625)"/>
       <path id="DejaVuSans-74" d="M 1172 4494 
L 1172 3500 
L 2356 3500 
L 2356 3053 
L 1172 3053 
L 1172 1153 
Q 1172 725 1289 603 
Q 1406 481 1766 481 
L 2356 481 
L 2356 0 
L 1766 0 
Q 1100 0 847 248 
Q 594 497 594 1153 
L 594 3053 
L 172 3053 
L 172 3500 
L 594 3500 
L 594 4494 
L 1172 4494 
z
" transform="scale(0.015625)"/>
       <path id="DejaVuSans-72" d="M 2631 2963 
Q 2534 3019 2420 3045 
Q 2306 3072 2169 3072 
Q 1681 3072 1420 2755 
Q 1159 2438 1159 1844 
L 1159 0 
L 581 0 
L 581 3500 
L 1159 3500 
L 1159 2956 
Q 1341 3275 1631 3429 
Q 1922 3584 2338 3584 
Q 2397 3584 2469 3576 
Q 2541 3569 2628 3553 
L 2631 2963 
z
" transform="scale(0.015625)"/>
       <path id="DejaVuSans-61" d="M 2194 1759 
Q 1497 1759 1228 1600 
Q 959 1441 959 1056 
Q 959 750 1161 570 
Q 1363 391 1709 391 
Q 2188 391 2477 730 
Q 2766 1069 2766 1631 
L 2766 1759 
L 2194 1759 
z
M 3341 1997 
L 3341 0 
L 2766 0 
L 2766 531 
Q 2569 213 2275 61 
Q 1981 -91 1556 -91 
Q 1019 -91 701 211 
Q 384 513 384 1019 
Q 384 1609 779 1909 
Q 1175 2209 1959 2209 
L 2766 2209 
L 2766 2266 
Q 2766 2663 2505 2880 
Q 2244 3097 1772 3097 
Q 1472 3097 1187 3025 
Q 903 2953 641 2809 
L 641 3341 
Q 956 3463 1253 3523 
Q 1550 3584 1831 3584 
Q 2591 3584 2966 3190 
Q 3341 2797 3341 1997 
z
" transform="scale(0.015625)"/>
       <path id="DejaVuSans-69" d="M 603 3500 
L 1178 3500 
L 1178 0 
L 603 0 
L 603 3500 
z
M 603 4863 
L 1178 4863 
L 1178 4134 
L 603 4134 
L 603 4863 
z
" transform="scale(0.015625)"/>
       <path id="DejaVuSans-6e" d="M 3513 2113 
L 3513 0 
L 2938 0 
L 2938 2094 
Q 2938 2591 2744 2837 
Q 2550 3084 2163 3084 
Q 1697 3084 1428 2787 
Q 1159 2491 1159 1978 
L 1159 0 
L 581 0 
L 581 3500 
L 1159 3500 
L 1159 2956 
Q 1366 3272 1645 3428 
Q 1925 3584 2291 3584 
Q 2894 3584 3203 3211 
Q 3513 2838 3513 2113 
z
" transform="scale(0.015625)"/>
      </defs>
      <use xlink:href="#DejaVuSans-53"/>
      <use xlink:href="#DejaVuSans-74" transform="translate(63.476562 0)"/>
      <use xlink:href="#DejaVuSans-72" transform="translate(102.685547 0)"/>
      <use xlink:href="#DejaVuSans-61" transform="translate(143.798828 0)"/>
      <use xlink:href="#DejaVuSans-69" transform="translate(205.078125 0)"/>
      <use xlink:href="#DejaVuSans-6e" transform="translate(232.861328 0)"/>
     </g>
    </g>
   </g>
   <g id="matplotlib.axis_2">
    <g id="ytick_1">
     <g id="line2d_7">
      <defs>
       <path id="mc5fff5304b" d="M 0 0 
L -3.5 0 
" style="stroke: #000000; stroke-width: 0.8"/>
      </defs>
      <g>
       <use xlink:href="#mc5fff5304b" x="57.6" y="304.56654" style="stroke: #000000; stroke-width: 0.8"/>
      </g>
     </g>
     <g id="text_8">
      <!-- −250 -->
      <g transform="translate(23.132812 308.365758) scale(0.1 -0.1)">
       <defs>
        <path id="DejaVuSans-2212" d="M 678 2272 
L 4684 2272 
L 4684 1741 
L 678 1741 
L 678 2272 
z
" transform="scale(0.015625)"/>
       </defs>
       <use xlink:href="#DejaVuSans-2212"/>
       <use xlink:href="#DejaVuSans-32" transform="translate(83.789062 0)"/>
       <use xlink:href="#DejaVuSans-35" transform="translate(147.412109 0)"/>
       <use xlink:href="#DejaVuSans-30" transform="translate(211.035156 0)"/>
      </g>
     </g>
    </g>
    <g id="ytick_2">
     <g id="line2d_8">
      <g>
       <use xlink:href="#mc5fff5304b" x="57.6" y="269.298862" style="stroke: #000000; stroke-width: 0.8"/>
      </g>
     </g>
     <g id="text_9">
      <!-- 0 -->
      <g transform="translate(44.2375 273.098081) scale(0.1 -0.1)">
       <use xlink:href="#DejaVuSans-30"/>
      </g>
     </g>
    </g>
    <g id="ytick_3">
     <g id="line2d_9">
      <g>
       <use xlink:href="#mc5fff5304b" x="57.6" y="234.031185" style="stroke: #000000; stroke-width: 0.8"/>
      </g>
     </g>
     <g id="text_10">
      <!-- 250 -->
      <g transform="translate(31.5125 237.830404) scale(0.1 -0.1)">
       <use xlink:href="#DejaVuSans-32"/>
       <use xlink:href="#DejaVuSans-35" transform="translate(63.623047 0)"/>
       <use xlink:href="#DejaVuSans-30" transform="translate(127.246094 0)"/>
      </g>
     </g>
    </g>
    <g id="ytick_4">
     <g id="line2d_10">
      <g>
       <use xlink:href="#mc5fff5304b" x="57.6" y="198.763508" style="stroke: #000000; stroke-width: 0.8"/>
      </g>
     </g>
     <g id="text_11">
      <!-- 500 -->
      <g transform="translate(31.5125 202.562726) scale(0.1 -0.1)">
       <use xlink:href="#DejaVuSans-35"/>
       <use xlink:href="#DejaVuSans-30" transform="translate(63.623047 0)"/>
       <use xlink:href="#DejaVuSans-30" transform="translate(127.246094 0)"/>
      </g>
     </g>
    </g>
    <g id="ytick_5">
     <g id="line2d_11">
      <g>
       <use xlink:href="#mc5fff5304b" x="57.6" y="163.49583" style="stroke: #000000; stroke-width: 0.8"/>
      </g>
     </g>
     <g id="text_12">
      <!-- 750 -->
      <g transform="translate(31.5125 167.295049) scale(0.1 -0.1)">
       <defs>
        <path id="DejaVuSans-37" d="M 525 4666 
L 3525 4666 
L 3525 4397 
L 1831 0 
L 1172 0 
L 2766 4134 
L 525 4134 
L 525 4666 
z
" transform="scale(0.015625)"/>
       </defs>
       <use xlink:href="#DejaVuSans-37"/>
       <use xlink:href="#DejaVuSans-35" transform="translate(63.623047 0)"/>
       <use xlink:href="#DejaVuSans-30" transform="translate(127.246094 0)"/>
      </g>
     </g>
    </g>
    <g id="ytick_6">
     <g id="line2d_12">
      <g>
       <use xlink:href="#mc5fff5304b" x="57.6" y="128.228153" style="stroke: #000000; stroke-width: 0.8"/>
      </g>
     </g>
     <g id="text_13">
      <!-- 1000 -->
      <g transform="translate(25.15 132.027372) scale(0.1 -0.1)">
       <use xlink:href="#DejaVuSans-31"/>
       <use xlink:href="#DejaVuSans-30" transform="translate(63.623047 0)"/>
       <use xlink:href="#DejaVuSans-30" transform="translate(127.246094 0)"/>
       <use xlink:href="#DejaVuSans-30" transform="translate(190.869141 0)"/>
      </g>
     </g>
    </g>
    <g id="ytick_7">
     <g id="line2d_13">
      <g>
       <use xlink:href="#mc5fff5304b" x="57.6" y="92.960476" style="stroke: #000000; stroke-width: 0.8"/>
      </g>
     </g>
     <g id="text_14">
      <!-- 1250 -->
      <g transform="translate(25.15 96.759694) scale(0.1 -0.1)">
       <use xlink:href="#DejaVuSans-31"/>
       <use xlink:href="#DejaVuSans-32" transform="translate(63.623047 0)"/>
       <use xlink:href="#DejaVuSans-35" transform="translate(127.246094 0)"/>
       <use xlink:href="#DejaVuSans-30" transform="translate(190.869141 0)"/>
      </g>
     </g>
    </g>
    <g id="ytick_8">
     <g id="line2d_14">
      <g>
       <use xlink:href="#mc5fff5304b" x="57.6" y="57.692798" style="stroke: #000000; stroke-width: 0.8"/>
      </g>
     </g>
     <g id="text_15">
      <!-- 1500 -->
      <g transform="translate(25.15 61.492017) scale(0.1 -0.1)">
       <use xlink:href="#DejaVuSans-31"/>
       <use xlink:href="#DejaVuSans-35" transform="translate(63.623047 0)"/>
       <use xlink:href="#DejaVuSans-30" transform="translate(127.246094 0)"/>
       <use xlink:href="#DejaVuSans-30" transform="translate(190.869141 0)"/>
      </g>
     </g>
    </g>
    <g id="text_16">
     <!-- Stress [Pa] -->
     <g transform="translate(17.053125 201.235813) rotate(-90) scale(0.1 -0.1)">
      <defs>
       <path id="DejaVuSans-65" d="M 3597 1894 
L 3597 1613 
L 953 1613 
Q 991 1019 1311 708 
Q 1631 397 2203 397 
Q 2534 397 2845 478 
Q 3156 559 3463 722 
L 3463 178 
Q 3153 47 2828 -22 
Q 2503 -91 2169 -91 
Q 1331 -91 842 396 
Q 353 884 353 1716 
Q 353 2575 817 3079 
Q 1281 3584 2069 3584 
Q 2775 3584 3186 3129 
Q 3597 2675 3597 1894 
z
M 3022 2063 
Q 3016 2534 2758 2815 
Q 2500 3097 2075 3097 
Q 1594 3097 1305 2825 
Q 1016 2553 972 2059 
L 3022 2063 
z
" transform="scale(0.015625)"/>
       <path id="DejaVuSans-73" d="M 2834 3397 
L 2834 2853 
Q 2591 2978 2328 3040 
Q 2066 3103 1784 3103 
Q 1356 3103 1142 2972 
Q 928 2841 928 2578 
Q 928 2378 1081 2264 
Q 1234 2150 1697 2047 
L 1894 2003 
Q 2506 1872 2764 1633 
Q 3022 1394 3022 966 
Q 3022 478 2636 193 
Q 2250 -91 1575 -91 
Q 1294 -91 989 -36 
Q 684 19 347 128 
L 347 722 
Q 666 556 975 473 
Q 1284 391 1588 391 
Q 1994 391 2212 530 
Q 2431 669 2431 922 
Q 2431 1156 2273 1281 
Q 2116 1406 1581 1522 
L 1381 1569 
Q 847 1681 609 1914 
Q 372 2147 372 2553 
Q 372 3047 722 3315 
Q 1072 3584 1716 3584 
Q 2034 3584 2315 3537 
Q 2597 3491 2834 3397 
z
" transform="scale(0.015625)"/>
       <path id="DejaVuSans-20" transform="scale(0.015625)"/>
       <path id="DejaVuSans-5b" d="M 550 4863 
L 1875 4863 
L 1875 4416 
L 1125 4416 
L 1125 -397 
L 1875 -397 
L 1875 -844 
L 550 -844 
L 550 4863 
z
" transform="scale(0.015625)"/>
       <path id="DejaVuSans-50" d="M 1259 4147 
L 1259 2394 
L 2053 2394 
Q 2494 2394 2734 2622 
Q 2975 2850 2975 3272 
Q 2975 3691 2734 3919 
Q 2494 4147 2053 4147 
L 1259 4147 
z
M 628 4666 
L 2053 4666 
Q 2838 4666 3239 4311 
Q 3641 3956 3641 3272 
Q 3641 2581 3239 2228 
Q 2838 1875 2053 1875 
L 1259 1875 
L 1259 0 
L 628 0 
L 628 4666 
z
" transform="scale(0.015625)"/>
       <path id="DejaVuSans-5d" d="M 1947 4863 
L 1947 -844 
L 622 -844 
L 622 -397 
L 1369 -397 
L 1369 4416 
L 622 4416 
L 622 4863 
L 1947 4863 
z
" transform="scale(0.015625)"/>
      </defs>
      <use xlink:href="#DejaVuSans-53"/>
      <use xlink:href="#DejaVuSans-74" transform="translate(63.476562 0)"/>
      <use xlink:href="#DejaVuSans-72" transform="translate(102.685547 0)"/>
      <use xlink:href="#DejaVuSans-65" transform="translate(141.548828 0)"/>
      <use xlink:href="#DejaVuSans-73" transform="translate(203.072266 0)"/>
      <use xlink:href="#DejaVuSans-73" transform="translate(255.171875 0)"/>
      <use xlink:href="#DejaVuSans-20" transform="translate(307.271484 0)"/>
      <use xlink:href="#DejaVuSans-5b" transform="translate(339.058594 0)"/>
      <use xlink:href="#DejaVuSans-50" transform="translate(378.072266 0)"/>
      <use xlink:href="#DejaVuSans-61" transform="translate(433.875 0)"/>
      <use xlink:href="#DejaVuSans-5d" transform="translate(495.154297 0)"/>
     </g>
    </g>
   </g>
   <g id="line2d_15">
    <path d="M 73.934093 284.780516 
L 73.933377 284.283753 
L 73.933374 284.292058 
L 74.399236 282.669576 
L 74.878365 279.074828 
L 75.342111 278.102416 
L 75.82619 278.458985 
L 76.322644 278.648678 
L 76.797176 278.346238 
L 77.318029 277.260908 
L 78.31306 274.354632 
L 78.886599 273.654649 
L 79.380932 273.573523 
L 79.904968 273.747697 
L 80.456584 274.144555 
L 81.032952 274.708598 
L 81.62983 275.508893 
L 83.184256 278.061065 
L 84.134026 279.224233 
L 85.077906 279.979254 
L 85.545366 280.250586 
L 86.160631 280.431475 
L 86.766701 280.218383 
L 87.364993 279.599525 
L 89.137944 277.161366 
L 89.727042 276.619797 
L 90.317554 276.320783 
L 90.908067 276.381328 
L 91.497872 276.866986 
L 92.658388 278.50485 
L 93.219197 278.900064 
L 93.763742 278.845292 
L 94.293435 278.394715 
L 94.808984 277.725975 
L 95.806136 275.875431 
L 97.259433 272.687408 
L 97.745987 271.921098 
L 98.236784 271.408033 
L 98.732531 271.109567 
L 99.232522 271.000349 
L 100.240283 271.187969 
L 101.246629 271.426824 
L 102.243074 271.388814 
L 103.223961 271.015388 
L 104.189289 270.383101 
L 105.614298 269.509629 
L 107.482721 268.243957 
L 108.640408 267.476003 
L 111.52225 265.951332 
L 113.244283 265.15323 
L 115.524297 263.796566 
L 123.476764 259.406458 
L 124.611114 258.70483 
L 125.749706 258.190394 
L 129.178214 256.055361 
L 140.108702 250.150448 
L 149.230139 244.459772 
L 151.529955 243.481878 
L 153.82482 242.090681 
L 156.703125 240.188062 
L 163.848678 236.066819 
L 168.552273 233.647299 
L 176.496961 228.474981 
L 177.909241 227.670576 
L 180.262096 226.419978 
L 182.136177 225.282025 
L 193.8361 218.028396 
L 198.048185 215.532409 
L 199.907415 214.32073 
L 202.571438 212.813051 
L 216.350596 203.652565 
L 218.062021 202.475145 
L 223.188516 199.218055 
L 227.175712 196.278343 
L 229.467748 194.85645 
L 232.9104 192.498596 
L 235.214458 191.065191 
L 239.03334 188.390234 
L 239.964016 187.728346 
L 243.231282 185.626477 
L 251.132124 179.954252 
L 253.571965 177.974345 
L 255.914213 176.223015 
L 262.481971 171.802501 
L 267.126156 168.283397 
L 268.519341 167.213414 
L 270.383521 165.720262 
L 272.259723 164.361406 
L 274.613286 162.827142 
L 277.425822 160.813798 
L 279.758169 158.901861 
L 286.316037 153.872613 
L 290.077636 151.081997 
L 292.522428 149.384933 
L 298.248629 144.707595 
L 301.665114 141.956445 
L 303.945128 140.016553 
L 310.791534 134.404076 
L 316.518443 129.588057 
L 327.859969 120.011749 
L 333.01546 115.095967 
L 337.29968 111.223856 
L 339.158909 109.583253 
L 355.024949 95.294705 
L 365.83875 84.440298 
L 370.563555 80.111581 
L 386.833981 63.346163 
L 389.654296 61.140968 
L 392.286496 59.546408 
L 396.230199 57.71039 
L 397.193759 56.487474 
L 398.121739 54.463475 
L 398.267135 54.615021 
L 398.487273 57.756862 
L 398.356617 84.654076 
L 397.885688 84.948482 
L 396.931454 87.658315 
L 396.441187 87.559426 
L 395.470732 88.046215 
L 394.971448 88.442799 
L 393.543964 89.119812 
L 392.110094 92.866671 
L 391.114355 93.180759 
L 389.20571 94.555649 
L 388.730648 96.335756 
L 388.265399 97.629931 
L 387.791751 98.311004 
L 386.836501 98.845241 
L 385.883018 99.753315 
L 383.484017 103.033084 
L 383.009397 103.56465 
L 382.534954 104.326437 
L 382.050522 104.840188 
L 381.099161 106.213022 
L 379.670218 107.369527 
L 378.730968 108.559828 
L 377.788977 110.110673 
L 375.89094 111.955872 
L 373.98698 114.402664 
L 372.115904 116.49357 
L 371.188411 117.536351 
L 368.836373 120.12316 
L 366.916147 122.16583 
L 364.051102 125.151518 
L 362.603109 126.978629 
L 362.135119 127.43455 
L 361.179515 128.086091 
L 358.809156 130.6976 
L 356.917174 132.556838 
L 356.434864 133.141026 
L 355.463878 133.947487 
L 352.64922 136.719398 
L 351.718721 137.523392 
L 350.769128 138.516703 
L 348.845189 140.230553 
L 347.438214 141.442232 
L 346.004808 143.102981 
L 344.11866 144.655179 
L 343.638913 145.396136 
L 342.684546 145.868493 
L 341.733097 146.400847 
L 341.255206 147.053347 
L 340.771923 148.004656 
L 339.824451 148.685181 
L 339.344439 148.952951 
L 338.873267 149.051652 
L 338.409167 149.576785 
L 337.924469 150.347411 
L 336.039603 151.661217 
L 335.092132 153.095306 
L 333.187707 154.076327 
L 332.227153 155.343257 
L 330.32885 156.378321 
L 329.381378 157.791067 
L 328.913919 157.914537 
L 327.488203 159.025837 
L 327.015793 159.761039 
L 325.59379 160.720159 
L 325.126861 161.003209 
L 324.651092 161.435765 
L 324.177621 162.272649 
L 322.740767 162.891832 
L 322.269794 163.118585 
L 320.856542 164.784643 
L 319.423578 165.388273 
L 318.953466 165.932309 
L 318.483973 166.682174 
L 316.106366 168.167173 
L 315.628387 169.100393 
L 313.251044 170.242072 
L 312.778193 171.16104 
L 310.399546 172.534209 
L 309.916617 173.406859 
L 309.450218 173.727336 
L 308.965609 173.856168 
L 307.535827 174.702515 
L 307.050511 175.534054 
L 306.578985 175.864073 
L 305.646188 176.276931 
L 304.688373 176.809044 
L 304.220737 177.775427 
L 303.742404 178.141512 
L 303.257088 178.203496 
L 301.835881 178.734616 
L 301.369482 179.73334 
L 300.894332 180.13395 
L 299.938197 180.356412 
L 299.452527 180.617535 
L 298.969089 180.677677 
L 298.011275 182.455823 
L 297.524191 182.350725 
L 296.109436 182.873571 
L 295.635966 183.371597 
L 295.171423 184.621441 
L 294.695831 184.55616 
L 294.22236 184.632652 
L 293.282491 184.951177 
L 292.802214 185.031909 
L 292.330688 186.222758 
L 289.949014 187.103142 
L 289.46856 188.380598 
L 287.537306 189.183274 
L 287.054995 189.220428 
L 286.580287 190.092667 
L 284.670227 190.9462 
L 284.198702 191.18425 
L 283.731154 192.185989 
L 283.254766 192.539107 
L 282.307294 192.769295 
L 281.827459 192.991602 
L 281.344529 193.084136 
L 280.873004 193.957951 
L 280.400682 194.48938 
L 279.451619 194.773114 
L 278.968425 195.007002 
L 278.483904 195.022033 
L 277.52662 196.632746 
L 277.0459 196.570249 
L 275.622527 197.02092 
L 275.152062 197.552442 
L 274.677796 198.505846 
L 274.199552 198.44414 
L 273.264456 198.711949 
L 272.789925 198.767993 
L 272.317161 199.148372 
L 271.843249 200.473929 
L 270.909832 200.535625 
L 269.949278 200.830957 
L 269.469177 200.828768 
L 268.991286 201.918622 
L 268.52586 202.326657 
L 268.050268 202.336224 
L 266.614032 202.891338 
L 266.132252 203.803729 
L 263.771949 204.665416 
L 263.286191 205.568625 
L 262.81272 205.547115 
L 261.369059 205.999589 
L 260.900362 206.653361 
L 260.41372 207.533372 
L 259.94626 207.436907 
L 259.466248 207.485123 
L 258.994203 207.662551 
L 258.516842 207.680533 
L 258.042488 208.024589 
L 257.561415 209.219413 
L 256.62128 209.305202 
L 255.664792 209.619153 
L 255.192117 209.612049 
L 254.715552 210.704643 
L 254.240402 210.89959 
L 253.758091 210.899616 
L 252.336177 211.444436 
L 251.871458 212.357374 
L 251.397899 212.768365 
L 250.91771 212.777795 
L 249.962459 213.195483 
L 249.48775 213.248935 
L 249.009771 214.319227 
L 248.537715 214.686391 
L 246.660187 214.730799 
L 245.708207 216.339388 
L 244.75826 216.525441 
L 243.327417 216.930488 
L 242.844576 217.993482 
L 242.361911 217.967967 
L 240.944096 218.379236 
L 240.461432 218.708081 
L 239.988757 219.701529 
L 238.570643 219.753522 
L 238.093106 219.820096 
L 237.610354 220.061435 
L 237.135822 221.336288 
L 235.250691 221.688922 
L 234.772182 221.620215 
L 234.303838 222.634424 
L 233.83302 223.364007 
L 232.876178 223.451994 
L 231.926938 223.600978 
L 231.446926 223.915062 
L 230.98203 224.972506 
L 228.601925 225.219506 
L 228.130753 226.504911 
L 227.176916 226.894965 
L 226.220074 226.930667 
L 225.753764 226.698792 
L 224.817077 228.33597 
L 224.337595 228.305313 
L 222.432132 228.829645 
L 221.96096 230.00638 
L 221.477854 230.130471 
L 220.525078 230.183962 
L 219.581408 230.210492 
L 219.111915 231.181877 
L 218.633759 231.789044 
L 217.670519 231.843058 
L 217.195458 231.955496 
L 216.713854 231.935797 
L 216.232693 232.404711 
L 215.762316 233.25386 
L 215.296801 233.42422 
L 214.361883 233.607579 
L 213.881517 233.704563 
L 213.407869 233.984824 
L 212.926266 234.796904 
L 212.455359 234.996704 
L 211.042903 235.133098 
L 210.558647 235.260028 
L 209.614977 236.464992 
L 208.666533 236.695533 
L 207.718708 236.968211 
L 207.254342 237.306092 
L 206.774418 237.879248 
L 206.291202 238.04502 
L 205.810482 238.025892 
L 204.860359 238.351098 
L 204.384501 238.583032 
L 203.919517 239.064922 
L 203.439239 239.364442 
L 202.0038 239.677123 
L 201.52582 239.966699 
L 201.058096 240.492646 
L 200.572072 240.750772 
L 199.609042 240.912088 
L 198.654764 241.430189 
L 198.1881 241.993273 
L 197.706585 242.361559 
L 195.785564 242.831343 
L 195.303341 243.434716 
L 194.83102 243.832294 
L 194.356212 244.005559 
L 193.871957 243.998174 
L 192.917855 244.279003 
L 191.966229 245.406679 
L 191.500626 245.642939 
L 191.03405 245.555068 
L 190.095242 245.638735 
L 189.62955 245.866422 
L 188.665371 247.162104 
L 186.774671 247.309511 
L 186.309687 247.63334 
L 185.83931 248.394442 
L 185.359298 248.740562 
L 183.444641 248.954474 
L 182.487633 250.108328 
L 181.539631 250.329206 
L 180.60153 250.259533 
L 180.120015 250.539144 
L 179.636909 251.19418 
L 179.166886 251.526906 
L 177.252052 251.810717 
L 176.310415 253.020478 
L 173.914332 253.76739 
L 173.433436 254.346233 
L 172.963678 254.525255 
L 171.557068 254.694201 
L 171.090227 255.0383 
L 170.612248 255.682921 
L 169.641085 256.073578 
L 168.219435 256.363662 
L 167.751092 256.954838 
L 167.286196 257.342001 
L 166.334658 257.452894 
L 165.865608 257.426043 
L 165.392314 257.548732 
L 164.926357 257.858401 
L 164.454743 258.510696 
L 163.98251 258.843901 
L 163.021601 259.057237 
L 162.072273 259.29974 
L 161.117641 260.188972 
L 160.643463 260.315735 
L 159.679129 260.448851 
L 159.19399 260.576922 
L 157.788164 261.391148 
L 156.845466 261.663894 
L 156.367487 261.868421 
L 155.418512 262.69722 
L 154.954059 262.845361 
L 154.47493 262.854155 
L 153.513668 263.220762 
L 152.09635 264.356912 
L 151.130492 264.389632 
L 150.177362 264.700192 
L 149.21778 265.486663 
L 147.316416 265.748359 
L 145.882479 266.842187 
L 144.457647 267.306865 
L 143.022296 267.963957 
L 141.11975 268.792561 
L 139.22905 269.477162 
L 136.86099 270.634729 
L 135.444313 271.177454 
L 134.499228 271.833415 
L 132.588019 272.49842 
L 132.118349 272.718338 
L 131.648503 273.097862 
L 131.180867 273.259534 
L 130.699794 273.274627 
L 129.282299 273.832058 
L 128.818818 274.304287 
L 128.343668 274.544615 
L 126.44784 274.938429 
L 125.496214 275.647046 
L 125.025362 275.86417 
L 124.074001 276.082088 
L 123.588154 276.270479 
L 122.639533 276.951278 
L 121.699664 277.314951 
L 120.282788 277.731226 
L 118.85 278.484621 
L 117.89528 278.826604 
L 115.526335 279.869129 
L 114.575504 280.211746 
L 113.148432 281.0837 
L 112.19159 281.177569 
L 111.71918 281.201962 
L 111.242792 281.402541 
L 110.289751 282.237369 
L 108.860676 282.385958 
L 108.378101 282.49942 
L 107.894464 282.946811 
L 107.430364 283.683795 
L 105.033131 283.621946 
L 104.096621 284.810706 
L 103.62262 284.884562 
L 102.661888 284.88585 
L 102.182672 285.025194 
L 101.708878 285.448835 
L 101.233905 286.086741 
L 100.762909 286.135042 
L 99.828874 286.052895 
L 98.874331 286.135928 
L 98.407667 286.944308 
L 97.928185 287.525002 
L 96.96604 287.337778 
L 95.562778 287.476457 
L 95.096733 288.483403 
L 94.618223 288.74692 
L 94.141924 288.530916 
L 92.723192 288.388726 
L 92.255556 288.852552 
L 91.788008 289.912257 
L 90.350093 289.665131 
L 89.876641 289.624592 
L 89.393358 289.447701 
L 88.455522 291.067235 
L 87.988505 291.142066 
L 87.516095 290.960738 
L 86.079948 290.957355 
L 85.123725 292.257286 
L 84.155479 292.324982 
L 83.193686 292.313004 
L 82.719597 292.510568 
L 82.244889 293.193971 
L 81.768943 293.634749 
L 79.848098 293.193615 
L 79.38276 293.486069 
L 78.914947 294.471226 
L 78.450522 294.81225 
L 77.986952 294.51351 
L 77.04337 294.357445 
L 76.095102 294.4076 
L 75.614118 295.475665 
L 75.145598 295.488 
L 74.667177 294.902785 
L 73.911091 294.458756 
L 73.856548 294.339259 
L 73.833028 293.602017 
L 73.833028 293.602017 
" clip-path="url(#pc18d617be9)" style="fill: none; stroke: #ff0000; stroke-width: 1.5; stroke-linecap: square"/>
   </g>
   <g id="line2d_16">
    <path d="M 73.934093 284.780516 
L 73.933377 284.283753 
L 73.933374 284.292058 
L 74.399236 282.669576 
L 74.878365 279.074828 
L 75.342111 278.102416 
L 75.82619 278.458985 
L 76.322644 278.648678 
L 76.797176 278.346238 
L 77.318029 285.138867 
L 78.31306 281.618119 
L 78.886599 280.386981 
L 79.380932 279.701797 
L 79.904968 279.26972 
L 80.456584 279.112402 
L 81.032952 279.211068 
L 82.244387 279.744964 
L 84.607143 279.661106 
L 85.545366 280.250586 
L 86.160631 280.431475 
L 86.766701 280.218383 
L 87.364993 279.599525 
L 89.137944 277.161366 
L 89.727042 276.619797 
L 90.317554 276.320783 
L 90.908067 276.381328 
L 91.497872 276.866986 
L 92.658388 278.50485 
L 93.219197 278.900064 
L 93.763742 278.845292 
L 94.293435 278.394715 
L 94.808984 277.725975 
L 95.806136 275.875431 
L 97.259433 272.687408 
L 97.745987 271.921098 
L 98.236784 271.408033 
L 98.732531 271.109567 
L 99.232522 271.000349 
L 100.240283 271.187969 
L 101.246629 271.426824 
L 102.243074 271.388814 
L 103.223961 271.015388 
L 104.189289 270.383101 
L 105.614298 269.509629 
L 107.482721 268.243957 
L 108.640408 267.476003 
L 111.52225 265.951332 
L 113.244283 265.15323 
L 115.524297 263.796566 
L 123.476764 259.406458 
L 124.611114 258.70483 
L 125.749706 258.190394 
L 129.178214 256.055361 
L 140.108702 250.150448 
L 149.230139 244.459772 
L 151.529955 243.481878 
L 153.82482 242.090681 
L 156.703125 240.188062 
L 163.848678 236.066819 
L 168.552273 233.647299 
L 176.496961 228.474981 
L 177.909241 227.670576 
L 180.262096 226.419978 
L 182.136177 225.282025 
L 193.8361 218.028396 
L 198.048185 215.532409 
L 199.907415 214.32073 
L 202.571438 212.813051 
L 216.350596 203.652565 
L 218.062021 202.475145 
L 223.188516 199.218055 
L 227.175712 196.278343 
L 229.467748 194.85645 
L 232.9104 192.498596 
L 235.214458 191.065191 
L 239.03334 188.390234 
L 239.964016 187.728346 
L 243.231282 185.626477 
L 251.132124 179.954252 
L 253.571965 177.974345 
L 255.914213 176.223015 
L 262.481971 171.802501 
L 267.126156 168.283397 
L 268.519341 167.213414 
L 270.383521 165.720262 
L 272.259723 164.361406 
L 274.613286 162.827142 
L 277.425822 160.813798 
L 279.758169 158.901861 
L 286.316037 153.872613 
L 290.077636 151.081997 
L 292.522428 149.384933 
L 298.248629 144.707595 
L 301.665114 141.956445 
L 303.945128 140.016553 
L 310.791534 134.404076 
L 316.518443 129.588057 
L 327.859969 120.011749 
L 333.01546 115.095967 
L 337.29968 111.223856 
L 339.158909 109.583253 
L 355.024949 95.294705 
L 365.83875 84.440298 
L 370.563555 80.111581 
L 386.259734 63.644234 
L 387.974695 61.86303 
L 389.654296 60.132188 
L 393.247581 56.26967 
L 395.295633 54.511899 
L 397.193759 53.568 
L 398.121739 54.293164 
L 398.267135 54.453386 
L 398.487273 57.679154 
L 398.356617 84.654076 
L 397.885688 84.948482 
L 396.931454 87.658315 
L 396.441187 87.559426 
L 395.470732 88.046215 
L 394.971448 88.442799 
L 393.543964 89.119812 
L 392.110094 92.866671 
L 391.114355 93.180759 
L 389.20571 94.555649 
L 388.730648 96.335756 
L 388.265399 97.629931 
L 387.791751 98.311004 
L 386.836501 98.845241 
L 385.883018 99.753315 
L 383.484017 103.033084 
L 383.009397 103.56465 
L 382.534954 104.326437 
L 382.050522 104.840188 
L 381.099161 106.213022 
L 379.670218 107.369527 
L 378.730968 108.559828 
L 377.788977 110.110673 
L 375.89094 111.955872 
L 373.98698 114.402664 
L 372.115904 116.49357 
L 371.188411 117.536351 
L 368.836373 120.12316 
L 366.916147 122.16583 
L 364.051102 125.151518 
L 362.603109 126.978629 
L 362.135119 127.43455 
L 361.179515 128.086091 
L 358.809156 130.6976 
L 356.917174 132.556838 
L 356.434864 133.141026 
L 355.463878 133.947487 
L 352.64922 136.719398 
L 351.718721 137.523392 
L 350.769128 138.516703 
L 348.845189 140.230553 
L 347.438214 141.442232 
L 346.004808 143.102981 
L 344.11866 144.655179 
L 343.638913 145.396136 
L 342.684546 145.868493 
L 341.733097 146.400847 
L 341.255206 147.053347 
L 340.771923 148.004656 
L 339.824451 148.685181 
L 339.344439 148.952951 
L 338.873267 149.051652 
L 338.409167 149.576785 
L 337.924469 150.347411 
L 336.039603 151.661217 
L 335.092132 153.095306 
L 333.187707 154.076327 
L 332.227153 155.343257 
L 330.32885 156.378321 
L 329.381378 157.791067 
L 328.913919 157.914537 
L 327.488203 159.025837 
L 327.015793 159.761039 
L 325.59379 160.720159 
L 325.126861 161.003209 
L 324.651092 161.435765 
L 324.177621 162.272649 
L 322.740767 162.891832 
L 322.269794 163.118585 
L 320.856542 164.784643 
L 319.423578 165.388273 
L 318.953466 165.932309 
L 318.483973 166.682174 
L 316.106366 168.167173 
L 315.628387 169.100393 
L 313.251044 170.242072 
L 312.778193 171.16104 
L 310.399546 172.534209 
L 309.916617 173.406859 
L 309.450218 173.727336 
L 308.965609 173.856168 
L 307.535827 174.702515 
L 307.050511 175.534054 
L 306.578985 175.864073 
L 305.646188 176.276931 
L 304.688373 176.809044 
L 304.220737 177.775427 
L 303.742404 178.141512 
L 303.257088 178.203496 
L 301.835881 178.734616 
L 301.369482 179.73334 
L 300.894332 180.13395 
L 299.938197 180.356412 
L 299.452527 180.617535 
L 298.969089 180.677677 
L 298.011275 182.455823 
L 297.524191 182.350725 
L 296.109436 182.873571 
L 295.635966 183.371597 
L 295.171423 184.621441 
L 294.695831 184.55616 
L 294.22236 184.632652 
L 293.282491 184.951177 
L 292.802214 185.031909 
L 292.330688 186.222758 
L 289.949014 187.103142 
L 289.46856 188.380598 
L 287.537306 189.183274 
L 287.054995 189.220428 
L 286.580287 190.092667 
L 284.670227 190.9462 
L 284.198702 191.18425 
L 283.731154 192.185989 
L 283.254766 192.539107 
L 282.307294 192.769295 
L 281.827459 192.991602 
L 281.344529 193.084136 
L 280.873004 193.957951 
L 280.400682 194.48938 
L 279.451619 194.773114 
L 278.968425 195.007002 
L 278.483904 195.022033 
L 277.52662 196.632746 
L 277.0459 196.570249 
L 275.622527 197.02092 
L 275.152062 197.552442 
L 274.677796 198.505846 
L 274.199552 198.44414 
L 273.264456 198.711949 
L 272.789925 198.767993 
L 272.317161 199.148372 
L 271.843249 200.473929 
L 270.909832 200.535625 
L 269.949278 200.830957 
L 269.469177 200.828768 
L 268.991286 201.918622 
L 268.52586 202.326657 
L 268.050268 202.336224 
L 266.614032 202.891338 
L 266.132252 203.803729 
L 263.771949 204.665416 
L 263.286191 205.568625 
L 262.81272 205.547115 
L 261.369059 205.999589 
L 260.900362 206.653361 
L 260.41372 207.533372 
L 259.94626 207.436907 
L 259.466248 207.485123 
L 258.994203 207.662551 
L 258.516842 207.680533 
L 258.042488 208.024589 
L 257.561415 209.219413 
L 256.62128 209.305202 
L 255.664792 209.619153 
L 255.192117 209.612049 
L 254.715552 210.704643 
L 254.240402 210.89959 
L 253.758091 210.899616 
L 252.336177 211.444436 
L 251.871458 212.357374 
L 251.397899 212.768365 
L 250.91771 212.777795 
L 249.962459 213.195483 
L 249.48775 213.248935 
L 249.009771 214.319227 
L 248.537715 214.686391 
L 246.660187 214.730799 
L 245.708207 216.339388 
L 244.75826 216.525441 
L 243.327417 216.930488 
L 242.844576 217.993482 
L 242.361911 217.967967 
L 240.944096 218.379236 
L 240.461432 218.708081 
L 239.988757 219.701529 
L 238.570643 219.753522 
L 238.093106 219.820096 
L 237.610354 220.061435 
L 237.135822 221.336288 
L 235.250691 221.688922 
L 234.772182 221.620215 
L 234.303838 222.634424 
L 233.83302 223.364007 
L 232.876178 223.451994 
L 231.926938 223.600978 
L 231.446926 223.915062 
L 230.98203 224.972506 
L 228.601925 225.219506 
L 228.130753 226.504911 
L 227.176916 226.894965 
L 226.220074 226.930667 
L 225.753764 226.698792 
L 224.817077 228.33597 
L 224.337595 228.305313 
L 222.432132 228.829645 
L 221.96096 230.00638 
L 221.477854 230.130471 
L 220.525078 230.183962 
L 219.581408 230.210492 
L 219.111915 231.181877 
L 218.633759 231.789044 
L 217.670519 231.843058 
L 217.195458 231.955496 
L 216.713854 231.935797 
L 216.232693 232.404711 
L 215.762316 233.25386 
L 215.296801 233.42422 
L 214.361883 233.607579 
L 213.881517 233.704563 
L 213.407869 233.984824 
L 212.926266 234.796904 
L 212.455359 234.996704 
L 211.042903 235.133098 
L 210.558647 235.260028 
L 209.614977 236.464992 
L 208.666533 236.695533 
L 207.718708 236.968211 
L 207.254342 237.306092 
L 206.774418 237.879248 
L 206.291202 238.04502 
L 205.810482 238.025892 
L 204.860359 238.351098 
L 204.384501 238.583032 
L 203.919517 239.064922 
L 203.439239 239.364442 
L 202.0038 239.677123 
L 201.52582 239.966699 
L 201.058096 240.492646 
L 200.572072 240.750772 
L 199.609042 240.912088 
L 198.654764 241.430189 
L 198.1881 241.993273 
L 197.706585 242.361559 
L 195.785564 242.831343 
L 195.303341 243.434716 
L 194.83102 243.832294 
L 194.356212 244.005559 
L 193.871957 243.998174 
L 192.917855 244.279003 
L 191.966229 245.406679 
L 191.500626 245.642939 
L 191.03405 245.555068 
L 190.095242 245.638735 
L 189.62955 245.866422 
L 188.665371 247.162104 
L 186.774671 247.309511 
L 186.309687 247.63334 
L 185.83931 248.394442 
L 185.359298 248.740562 
L 183.444641 248.954474 
L 182.487633 250.108328 
L 181.539631 250.329206 
L 180.60153 250.259533 
L 180.120015 250.539144 
L 179.636909 251.19418 
L 179.166886 251.526906 
L 177.252052 251.810717 
L 176.310415 253.020478 
L 173.914332 253.76739 
L 173.433436 254.346233 
L 172.963678 254.525255 
L 171.557068 254.694201 
L 171.090227 255.0383 
L 170.612248 255.682921 
L 169.641085 256.073578 
L 168.219435 256.363662 
L 167.751092 256.954838 
L 167.286196 257.342001 
L 166.334658 257.452894 
L 165.865608 257.426043 
L 165.392314 257.548732 
L 164.926357 257.858401 
L 164.454743 258.510696 
L 163.98251 258.843901 
L 163.021601 259.057237 
L 162.072273 259.29974 
L 161.117641 260.188972 
L 160.643463 260.315735 
L 159.679129 260.448851 
L 159.19399 260.576922 
L 157.788164 261.391148 
L 156.845466 261.663894 
L 156.367487 261.868421 
L 155.418512 262.69722 
L 154.954059 262.845361 
L 154.47493 262.854155 
L 153.513668 263.220762 
L 152.09635 264.356912 
L 151.130492 264.389632 
L 150.177362 264.700192 
L 149.21778 265.486663 
L 147.316416 265.748359 
L 145.882479 266.842187 
L 144.457647 267.306865 
L 143.022296 267.963957 
L 141.11975 268.792561 
L 139.22905 269.477162 
L 136.86099 270.634729 
L 135.444313 271.177454 
L 134.499228 271.833415 
L 132.588019 272.49842 
L 132.118349 272.718338 
L 131.648503 273.097862 
L 131.180867 273.259534 
L 130.699794 273.274627 
L 129.282299 273.832058 
L 128.818818 274.304287 
L 128.343668 274.544615 
L 126.44784 274.938429 
L 125.496214 275.647046 
L 125.025362 275.86417 
L 124.074001 276.082088 
L 123.588154 276.270479 
L 122.639533 276.951278 
L 121.699664 277.314951 
L 120.282788 277.731226 
L 118.85 278.484621 
L 117.89528 278.826604 
L 115.526335 279.869129 
L 114.575504 280.211746 
L 113.148432 281.0837 
L 112.19159 281.177569 
L 111.71918 281.201962 
L 111.242792 281.402541 
L 110.289751 282.237369 
L 108.860676 282.385958 
L 108.378101 282.49942 
L 107.894464 282.946811 
L 107.430364 283.683795 
L 105.033131 283.621946 
L 104.096621 284.810706 
L 103.62262 284.884562 
L 102.661888 284.88585 
L 102.182672 285.025194 
L 101.708878 285.448835 
L 101.233905 286.086741 
L 100.762909 286.135042 
L 99.828874 286.052895 
L 98.874331 286.135928 
L 98.407667 286.944308 
L 97.928185 287.525002 
L 96.96604 287.337778 
L 95.562778 287.476457 
L 95.096733 288.483403 
L 94.618223 288.74692 
L 94.141924 288.530916 
L 92.723192 288.388726 
L 92.255556 288.852552 
L 91.788008 289.912257 
L 90.350093 289.665131 
L 89.876641 289.624592 
L 89.393358 289.447701 
L 88.455522 291.067235 
L 87.988505 291.142066 
L 87.516095 290.960738 
L 86.079948 290.957355 
L 85.123725 292.257286 
L 84.155479 292.324982 
L 83.193686 292.313004 
L 82.719597 292.510568 
L 82.244889 293.193971 
L 81.768943 293.634749 
L 79.848098 293.193615 
L 79.38276 293.486069 
L 78.914947 294.471226 
L 78.450522 294.81225 
L 77.986952 294.51351 
L 77.04337 294.357445 
L 76.095102 294.4076 
L 75.614118 295.475665 
L 75.145598 295.488 
L 74.667177 294.902785 
L 73.911091 294.458756 
L 73.856548 294.339259 
L 73.833028 293.602017 
L 73.833028 293.602017 
" clip-path="url(#pc18d617be9)" style="fill: none; stroke: #000000; stroke-width: 1.5; stroke-linecap: square"/>
   </g>
   <g id="patch_3">
    <path d="M 57.6 307.584 
L 57.6 41.472 
" style="fill: none; stroke: #000000; stroke-width: 0.8; stroke-linejoin: miter; stroke-linecap: square"/>
   </g>
   <g id="patch_4">
    <path d="M 414.72 307.584 
L 414.72 41.472 
" style="fill: none; stroke: #000000; stroke-width: 0.8; stroke-linejoin: miter; stroke-linecap: square"/>
   </g>
   <g id="patch_5">
    <path d="M 57.6 307.584 
L 414.72 307.584 
" style="fill: none; stroke: #000000; stroke-width: 0.8; stroke-linejoin: miter; stroke-linecap: square"/>
   </g>
   <g id="patch_6">
    <path d="M 57.6 41.472 
L 414.72 41.472 
" style="fill: none; stroke: #000000; stroke-width: 0.8; stroke-linejoin: miter; stroke-linecap: square"/>
   </g>
   <g id="text_17">
    <!-- 2025-06-16 trial 20 -->
    <g transform="translate(178.0125 35.472) scale(0.12 -0.12)">
     <defs>
      <path id="DejaVuSans-2d" d="M 313 2009 
L 1997 2009 
L 1997 1497 
L 313 1497 
L 313 2009 
z
" transform="scale(0.015625)"/>
      <path id="DejaVuSans-36" d="M 2113 2584 
Q 1688 2584 1439 2293 
Q 1191 2003 1191 1497 
Q 1191 994 1439 701 
Q 1688 409 2113 409 
Q 2538 409 2786 701 
Q 3034 994 3034 1497 
Q 3034 2003 2786 2293 
Q 2538 2584 2113 2584 
z
M 3366 4563 
L 3366 3988 
Q 3128 4100 2886 4159 
Q 2644 4219 2406 4219 
Q 1781 4219 1451 3797 
Q 1122 3375 1075 2522 
Q 1259 2794 1537 2939 
Q 1816 3084 2150 3084 
Q 2853 3084 3261 2657 
Q 3669 2231 3669 1497 
Q 3669 778 3244 343 
Q 2819 -91 2113 -91 
Q 1303 -91 875 529 
Q 447 1150 447 2328 
Q 447 3434 972 4092 
Q 1497 4750 2381 4750 
Q 2619 4750 2861 4703 
Q 3103 4656 3366 4563 
z
" transform="scale(0.015625)"/>
      <path id="DejaVuSans-6c" d="M 603 4863 
L 1178 4863 
L 1178 0 
L 603 0 
L 603 4863 
z
" transform="scale(0.015625)"/>
     </defs>
     <use xlink:href="#DejaVuSans-32"/>
     <use xlink:href="#DejaVuSans-30" transform="translate(63.623047 0)"/>
     <use xlink:href="#DejaVuSans-32" transform="translate(127.246094 0)"/>
     <use xlink:href="#DejaVuSans-35" transform="translate(190.869141 0)"/>
     <use xlink:href="#DejaVuSans-2d" transform="translate(254.492188 0)"/>
     <use xlink:href="#DejaVuSans-30" transform="translate(290.576172 0)"/>
     <use xlink:href="#DejaVuSans-36" transform="translate(354.199219 0)"/>
     <use xlink:href="#DejaVuSans-2d" transform="translate(417.822266 0)"/>
     <use xlink:href="#DejaVuSans-31" transform="translate(453.90625 0)"/>
     <use xlink:href="#DejaVuSans-36" transform="translate(517.529297 0)"/>
     <use xlink:href="#DejaVuSans-20" transform="translate(581.152344 0)"/>
     <use xlink:href="#DejaVuSans-74" transform="translate(612.939453 0)"/>
     <use xlink:href="#DejaVuSans-72" transform="translate(652.148438 0)"/>
     <use xlink:href="#DejaVuSans-69" transform="translate(693.261719 0)"/>
     <use xlink:href="#DejaVuSans-61" transform="translate(721.044922 0)"/>
     <use xlink:href="#DejaVuSans-6c" transform="translate(782.324219 0)"/>
     <use xlink:href="#DejaVuSans-20" transform="translate(810.107422 0)"/>
     <use xlink:href="#DejaVuSans-32" transform="translate(841.894531 0)"/>
     <use xlink:href="#DejaVuSans-30" transform="translate(905.517578 0)"/>
    </g>
   </g>
  </g>
 </g>
 <defs>
  <clipPath id="pc18d617be9">
   <rect x="57.6" y="41.472" width="357.12" height="266.112"/>
  </clipPath>
 </defs>
</svg>
