<?xml version="1.0" encoding="utf-8" standalone="no"?>
<!DOCTYPE svg PUBLIC "-//W3C//DTD SVG 1.1//EN"
  "http://www.w3.org/Graphics/SVG/1.1/DTD/svg11.dtd">
<svg xmlns:xlink="http://www.w3.org/1999/xlink" width="460.8pt" height="345.6pt" viewBox="0 0 460.8 345.6" xmlns="http://www.w3.org/2000/svg" version="1.1">
 <metadata>
  <rdf:RDF xmlns:dc="http://purl.org/dc/elements/1.1/" xmlns:cc="http://creativecommons.org/ns#" xmlns:rdf="http://www.w3.org/1999/02/22-rdf-syntax-ns#">
   <cc:Work>
    <dc:type rdf:resource="http://purl.org/dc/dcmitype/StillImage"/>
    <dc:date>2025-07-16T22:12:33.507957</dc:date>
    <dc:format>image/svg+xml</dc:format>
    <dc:creator>
     <cc:Agent>
      <dc:title>Matplotlib v3.10.3, https://matplotlib.org/</dc:title>
     </cc:Agent>
    </dc:creator>
   </cc:Work>
  </rdf:RDF>
 </metadata>
 <defs>
  <style type="text/css">*{stroke-linejoin: round; stroke-linecap: butt}</style>
 </defs>
 <g id="figure_1">
  <g id="patch_1">
   <path d="M 0 345.6 
L 460.8 345.6 
L 460.8 0 
L 0 0 
z
" style="fill: #ffffff"/>
  </g>
  <g id="axes_1">
   <g id="patch_2">
    <path d="M 57.6 307.584 
L 414.72 307.584 
L 414.72 41.472 
L 57.6 41.472 
z
" style="fill: #ffffff"/>
   </g>
   <g id="matplotlib.axis_1">
    <g id="xtick_1">
     <g id="line2d_1">
      <defs>
       <path id="m9ee0838bb9" d="M 0 0 
L 0 3.5 
" style="stroke: #000000; stroke-width: 0.8"/>
      </defs>
      <g>
       <use xlink:href="#m9ee0838bb9" x="73.938186" y="307.584" style="stroke: #000000; stroke-width: 0.8"/>
      </g>
     </g>
     <g id="text_1">
      <!-- 0.00 -->
      <g transform="translate(62.805374 322.182437) scale(0.1 -0.1)">
       <defs>
        <path id="DejaVuSans-30" d="M 2034 4250 
Q 1547 4250 1301 3770 
Q 1056 3291 1056 2328 
Q 1056 1369 1301 889 
Q 1547 409 2034 409 
Q 2525 409 2770 889 
Q 3016 1369 3016 2328 
Q 3016 3291 2770 3770 
Q 2525 4250 2034 4250 
z
M 2034 4750 
Q 2819 4750 3233 4129 
Q 3647 3509 3647 2328 
Q 3647 1150 3233 529 
Q 2819 -91 2034 -91 
Q 1250 -91 836 529 
Q 422 1150 422 2328 
Q 422 3509 836 4129 
Q 1250 4750 2034 4750 
z
" transform="scale(0.015625)"/>
        <path id="DejaVuSans-2e" d="M 684 794 
L 1344 794 
L 1344 0 
L 684 0 
L 684 794 
z
" transform="scale(0.015625)"/>
       </defs>
       <use xlink:href="#DejaVuSans-30"/>
       <use xlink:href="#DejaVuSans-2e" transform="translate(63.623047 0)"/>
       <use xlink:href="#DejaVuSans-30" transform="translate(95.410156 0)"/>
       <use xlink:href="#DejaVuSans-30" transform="translate(159.033203 0)"/>
      </g>
     </g>
    </g>
    <g id="xtick_2">
     <g id="line2d_2">
      <g>
       <use xlink:href="#m9ee0838bb9" x="138.818573" y="307.584" style="stroke: #000000; stroke-width: 0.8"/>
      </g>
     </g>
     <g id="text_2">
      <!-- 0.05 -->
      <g transform="translate(127.685761 322.182437) scale(0.1 -0.1)">
       <defs>
        <path id="DejaVuSans-35" d="M 691 4666 
L 3169 4666 
L 3169 4134 
L 1269 4134 
L 1269 2991 
Q 1406 3038 1543 3061 
Q 1681 3084 1819 3084 
Q 2600 3084 3056 2656 
Q 3513 2228 3513 1497 
Q 3513 744 3044 326 
Q 2575 -91 1722 -91 
Q 1428 -91 1123 -41 
Q 819 9 494 109 
L 494 744 
Q 775 591 1075 516 
Q 1375 441 1709 441 
Q 2250 441 2565 725 
Q 2881 1009 2881 1497 
Q 2881 1984 2565 2268 
Q 2250 2553 1709 2553 
Q 1456 2553 1204 2497 
Q 953 2441 691 2322 
L 691 4666 
z
" transform="scale(0.015625)"/>
       </defs>
       <use xlink:href="#DejaVuSans-30"/>
       <use xlink:href="#DejaVuSans-2e" transform="translate(63.623047 0)"/>
       <use xlink:href="#DejaVuSans-30" transform="translate(95.410156 0)"/>
       <use xlink:href="#DejaVuSans-35" transform="translate(159.033203 0)"/>
      </g>
     </g>
    </g>
    <g id="xtick_3">
     <g id="line2d_3">
      <g>
       <use xlink:href="#m9ee0838bb9" x="203.69896" y="307.584" style="stroke: #000000; stroke-width: 0.8"/>
      </g>
     </g>
     <g id="text_3">
      <!-- 0.10 -->
      <g transform="translate(192.566148 322.182437) scale(0.1 -0.1)">
       <defs>
        <path id="DejaVuSans-31" d="M 794 531 
L 1825 531 
L 1825 4091 
L 703 3866 
L 703 4441 
L 1819 4666 
L 2450 4666 
L 2450 531 
L 3481 531 
L 3481 0 
L 794 0 
L 794 531 
z
" transform="scale(0.015625)"/>
       </defs>
       <use xlink:href="#DejaVuSans-30"/>
       <use xlink:href="#DejaVuSans-2e" transform="translate(63.623047 0)"/>
       <use xlink:href="#DejaVuSans-31" transform="translate(95.410156 0)"/>
       <use xlink:href="#DejaVuSans-30" transform="translate(159.033203 0)"/>
      </g>
     </g>
    </g>
    <g id="xtick_4">
     <g id="line2d_4">
      <g>
       <use xlink:href="#m9ee0838bb9" x="268.579347" y="307.584" style="stroke: #000000; stroke-width: 0.8"/>
      </g>
     </g>
     <g id="text_4">
      <!-- 0.15 -->
      <g transform="translate(257.446535 322.182437) scale(0.1 -0.1)">
       <use xlink:href="#DejaVuSans-30"/>
       <use xlink:href="#DejaVuSans-2e" transform="translate(63.623047 0)"/>
       <use xlink:href="#DejaVuSans-31" transform="translate(95.410156 0)"/>
       <use xlink:href="#DejaVuSans-35" transform="translate(159.033203 0)"/>
      </g>
     </g>
    </g>
    <g id="xtick_5">
     <g id="line2d_5">
      <g>
       <use xlink:href="#m9ee0838bb9" x="333.459734" y="307.584" style="stroke: #000000; stroke-width: 0.8"/>
      </g>
     </g>
     <g id="text_5">
      <!-- 0.20 -->
      <g transform="translate(322.326922 322.182437) scale(0.1 -0.1)">
       <defs>
        <path id="DejaVuSans-32" d="M 1228 531 
L 3431 531 
L 3431 0 
L 469 0 
L 469 531 
Q 828 903 1448 1529 
Q 2069 2156 2228 2338 
Q 2531 2678 2651 2914 
Q 2772 3150 2772 3378 
Q 2772 3750 2511 3984 
Q 2250 4219 1831 4219 
Q 1534 4219 1204 4116 
Q 875 4013 500 3803 
L 500 4441 
Q 881 4594 1212 4672 
Q 1544 4750 1819 4750 
Q 2544 4750 2975 4387 
Q 3406 4025 3406 3419 
Q 3406 3131 3298 2873 
Q 3191 2616 2906 2266 
Q 2828 2175 2409 1742 
Q 1991 1309 1228 531 
z
" transform="scale(0.015625)"/>
       </defs>
       <use xlink:href="#DejaVuSans-30"/>
       <use xlink:href="#DejaVuSans-2e" transform="translate(63.623047 0)"/>
       <use xlink:href="#DejaVuSans-32" transform="translate(95.410156 0)"/>
       <use xlink:href="#DejaVuSans-30" transform="translate(159.033203 0)"/>
      </g>
     </g>
    </g>
    <g id="xtick_6">
     <g id="line2d_6">
      <g>
       <use xlink:href="#m9ee0838bb9" x="398.340121" y="307.584" style="stroke: #000000; stroke-width: 0.8"/>
      </g>
     </g>
     <g id="text_6">
      <!-- 0.25 -->
      <g transform="translate(387.207309 322.182437) scale(0.1 -0.1)">
       <use xlink:href="#DejaVuSans-30"/>
       <use xlink:href="#DejaVuSans-2e" transform="translate(63.623047 0)"/>
       <use xlink:href="#DejaVuSans-32" transform="translate(95.410156 0)"/>
       <use xlink:href="#DejaVuSans-35" transform="translate(159.033203 0)"/>
      </g>
     </g>
    </g>
    <g id="text_7">
     <!-- Strain -->
     <g transform="translate(221.348281 335.860562) scale(0.1 -0.1)">
      <defs>
       <path id="DejaVuSans-53" d="M 3425 4513 
L 3425 3897 
Q 3066 4069 2747 4153 
Q 2428 4238 2131 4238 
Q 1616 4238 1336 4038 
Q 1056 3838 1056 3469 
Q 1056 3159 1242 3001 
Q 1428 2844 1947 2747 
L 2328 2669 
Q 3034 2534 3370 2195 
Q 3706 1856 3706 1288 
Q 3706 609 3251 259 
Q 2797 -91 1919 -91 
Q 1588 -91 1214 -16 
Q 841 59 441 206 
L 441 856 
Q 825 641 1194 531 
Q 1563 422 1919 422 
Q 2459 422 2753 634 
Q 3047 847 3047 1241 
Q 3047 1584 2836 1778 
Q 2625 1972 2144 2069 
L 1759 2144 
Q 1053 2284 737 2584 
Q 422 2884 422 3419 
Q 422 4038 858 4394 
Q 1294 4750 2059 4750 
Q 2388 4750 2728 4690 
Q 3069 4631 3425 4513 
z
" transform="scale(0.015625)"/>
       <path id="DejaVuSans-74" d="M 1172 4494 
L 1172 3500 
L 2356 3500 
L 2356 3053 
L 1172 3053 
L 1172 1153 
Q 1172 725 1289 603 
Q 1406 481 1766 481 
L 2356 481 
L 2356 0 
L 1766 0 
Q 1100 0 847 248 
Q 594 497 594 1153 
L 594 3053 
L 172 3053 
L 172 3500 
L 594 3500 
L 594 4494 
L 1172 4494 
z
" transform="scale(0.015625)"/>
       <path id="DejaVuSans-72" d="M 2631 2963 
Q 2534 3019 2420 3045 
Q 2306 3072 2169 3072 
Q 1681 3072 1420 2755 
Q 1159 2438 1159 1844 
L 1159 0 
L 581 0 
L 581 3500 
L 1159 3500 
L 1159 2956 
Q 1341 3275 1631 3429 
Q 1922 3584 2338 3584 
Q 2397 3584 2469 3576 
Q 2541 3569 2628 3553 
L 2631 2963 
z
" transform="scale(0.015625)"/>
       <path id="DejaVuSans-61" d="M 2194 1759 
Q 1497 1759 1228 1600 
Q 959 1441 959 1056 
Q 959 750 1161 570 
Q 1363 391 1709 391 
Q 2188 391 2477 730 
Q 2766 1069 2766 1631 
L 2766 1759 
L 2194 1759 
z
M 3341 1997 
L 3341 0 
L 2766 0 
L 2766 531 
Q 2569 213 2275 61 
Q 1981 -91 1556 -91 
Q 1019 -91 701 211 
Q 384 513 384 1019 
Q 384 1609 779 1909 
Q 1175 2209 1959 2209 
L 2766 2209 
L 2766 2266 
Q 2766 2663 2505 2880 
Q 2244 3097 1772 3097 
Q 1472 3097 1187 3025 
Q 903 2953 641 2809 
L 641 3341 
Q 956 3463 1253 3523 
Q 1550 3584 1831 3584 
Q 2591 3584 2966 3190 
Q 3341 2797 3341 1997 
z
" transform="scale(0.015625)"/>
       <path id="DejaVuSans-69" d="M 603 3500 
L 1178 3500 
L 1178 0 
L 603 0 
L 603 3500 
z
M 603 4863 
L 1178 4863 
L 1178 4134 
L 603 4134 
L 603 4863 
z
" transform="scale(0.015625)"/>
       <path id="DejaVuSans-6e" d="M 3513 2113 
L 3513 0 
L 2938 0 
L 2938 2094 
Q 2938 2591 2744 2837 
Q 2550 3084 2163 3084 
Q 1697 3084 1428 2787 
Q 1159 2491 1159 1978 
L 1159 0 
L 581 0 
L 581 3500 
L 1159 3500 
L 1159 2956 
Q 1366 3272 1645 3428 
Q 1925 3584 2291 3584 
Q 2894 3584 3203 3211 
Q 3513 2838 3513 2113 
z
" transform="scale(0.015625)"/>
      </defs>
      <use xlink:href="#DejaVuSans-53"/>
      <use xlink:href="#DejaVuSans-74" transform="translate(63.476562 0)"/>
      <use xlink:href="#DejaVuSans-72" transform="translate(102.685547 0)"/>
      <use xlink:href="#DejaVuSans-61" transform="translate(143.798828 0)"/>
      <use xlink:href="#DejaVuSans-69" transform="translate(205.078125 0)"/>
      <use xlink:href="#DejaVuSans-6e" transform="translate(232.861328 0)"/>
     </g>
    </g>
   </g>
   <g id="matplotlib.axis_2">
    <g id="ytick_1">
     <g id="line2d_7">
      <defs>
       <path id="md79ae5612e" d="M 0 0 
L -3.5 0 
" style="stroke: #000000; stroke-width: 0.8"/>
      </defs>
      <g>
       <use xlink:href="#md79ae5612e" x="57.6" y="306.729503" style="stroke: #000000; stroke-width: 0.8"/>
      </g>
     </g>
     <g id="text_8">
      <!-- −250 -->
      <g transform="translate(23.132812 310.528721) scale(0.1 -0.1)">
       <defs>
        <path id="DejaVuSans-2212" d="M 678 2272 
L 4684 2272 
L 4684 1741 
L 678 1741 
L 678 2272 
z
" transform="scale(0.015625)"/>
       </defs>
       <use xlink:href="#DejaVuSans-2212"/>
       <use xlink:href="#DejaVuSans-32" transform="translate(83.789062 0)"/>
       <use xlink:href="#DejaVuSans-35" transform="translate(147.412109 0)"/>
       <use xlink:href="#DejaVuSans-30" transform="translate(211.035156 0)"/>
      </g>
     </g>
    </g>
    <g id="ytick_2">
     <g id="line2d_8">
      <g>
       <use xlink:href="#md79ae5612e" x="57.6" y="276.464419" style="stroke: #000000; stroke-width: 0.8"/>
      </g>
     </g>
     <g id="text_9">
      <!-- 0 -->
      <g transform="translate(44.2375 280.263638) scale(0.1 -0.1)">
       <use xlink:href="#DejaVuSans-30"/>
      </g>
     </g>
    </g>
    <g id="ytick_3">
     <g id="line2d_9">
      <g>
       <use xlink:href="#md79ae5612e" x="57.6" y="246.199335" style="stroke: #000000; stroke-width: 0.8"/>
      </g>
     </g>
     <g id="text_10">
      <!-- 250 -->
      <g transform="translate(31.5125 249.998554) scale(0.1 -0.1)">
       <use xlink:href="#DejaVuSans-32"/>
       <use xlink:href="#DejaVuSans-35" transform="translate(63.623047 0)"/>
       <use xlink:href="#DejaVuSans-30" transform="translate(127.246094 0)"/>
      </g>
     </g>
    </g>
    <g id="ytick_4">
     <g id="line2d_10">
      <g>
       <use xlink:href="#md79ae5612e" x="57.6" y="215.934252" style="stroke: #000000; stroke-width: 0.8"/>
      </g>
     </g>
     <g id="text_11">
      <!-- 500 -->
      <g transform="translate(31.5125 219.73347) scale(0.1 -0.1)">
       <use xlink:href="#DejaVuSans-35"/>
       <use xlink:href="#DejaVuSans-30" transform="translate(63.623047 0)"/>
       <use xlink:href="#DejaVuSans-30" transform="translate(127.246094 0)"/>
      </g>
     </g>
    </g>
    <g id="ytick_5">
     <g id="line2d_11">
      <g>
       <use xlink:href="#md79ae5612e" x="57.6" y="185.669168" style="stroke: #000000; stroke-width: 0.8"/>
      </g>
     </g>
     <g id="text_12">
      <!-- 750 -->
      <g transform="translate(31.5125 189.468387) scale(0.1 -0.1)">
       <defs>
        <path id="DejaVuSans-37" d="M 525 4666 
L 3525 4666 
L 3525 4397 
L 1831 0 
L 1172 0 
L 2766 4134 
L 525 4134 
L 525 4666 
z
" transform="scale(0.015625)"/>
       </defs>
       <use xlink:href="#DejaVuSans-37"/>
       <use xlink:href="#DejaVuSans-35" transform="translate(63.623047 0)"/>
       <use xlink:href="#DejaVuSans-30" transform="translate(127.246094 0)"/>
      </g>
     </g>
    </g>
    <g id="ytick_6">
     <g id="line2d_12">
      <g>
       <use xlink:href="#md79ae5612e" x="57.6" y="155.404084" style="stroke: #000000; stroke-width: 0.8"/>
      </g>
     </g>
     <g id="text_13">
      <!-- 1000 -->
      <g transform="translate(25.15 159.203303) scale(0.1 -0.1)">
       <use xlink:href="#DejaVuSans-31"/>
       <use xlink:href="#DejaVuSans-30" transform="translate(63.623047 0)"/>
       <use xlink:href="#DejaVuSans-30" transform="translate(127.246094 0)"/>
       <use xlink:href="#DejaVuSans-30" transform="translate(190.869141 0)"/>
      </g>
     </g>
    </g>
    <g id="ytick_7">
     <g id="line2d_13">
      <g>
       <use xlink:href="#md79ae5612e" x="57.6" y="125.139" style="stroke: #000000; stroke-width: 0.8"/>
      </g>
     </g>
     <g id="text_14">
      <!-- 1250 -->
      <g transform="translate(25.15 128.938219) scale(0.1 -0.1)">
       <use xlink:href="#DejaVuSans-31"/>
       <use xlink:href="#DejaVuSans-32" transform="translate(63.623047 0)"/>
       <use xlink:href="#DejaVuSans-35" transform="translate(127.246094 0)"/>
       <use xlink:href="#DejaVuSans-30" transform="translate(190.869141 0)"/>
      </g>
     </g>
    </g>
    <g id="ytick_8">
     <g id="line2d_14">
      <g>
       <use xlink:href="#md79ae5612e" x="57.6" y="94.873917" style="stroke: #000000; stroke-width: 0.8"/>
      </g>
     </g>
     <g id="text_15">
      <!-- 1500 -->
      <g transform="translate(25.15 98.673135) scale(0.1 -0.1)">
       <use xlink:href="#DejaVuSans-31"/>
       <use xlink:href="#DejaVuSans-35" transform="translate(63.623047 0)"/>
       <use xlink:href="#DejaVuSans-30" transform="translate(127.246094 0)"/>
       <use xlink:href="#DejaVuSans-30" transform="translate(190.869141 0)"/>
      </g>
     </g>
    </g>
    <g id="ytick_9">
     <g id="line2d_15">
      <g>
       <use xlink:href="#md79ae5612e" x="57.6" y="64.608833" style="stroke: #000000; stroke-width: 0.8"/>
      </g>
     </g>
     <g id="text_16">
      <!-- 1750 -->
      <g transform="translate(25.15 68.408052) scale(0.1 -0.1)">
       <use xlink:href="#DejaVuSans-31"/>
       <use xlink:href="#DejaVuSans-37" transform="translate(63.623047 0)"/>
       <use xlink:href="#DejaVuSans-35" transform="translate(127.246094 0)"/>
       <use xlink:href="#DejaVuSans-30" transform="translate(190.869141 0)"/>
      </g>
     </g>
    </g>
    <g id="text_17">
     <!-- Stress [Pa] -->
     <g transform="translate(17.053125 201.235813) rotate(-90) scale(0.1 -0.1)">
      <defs>
       <path id="DejaVuSans-65" d="M 3597 1894 
L 3597 1613 
L 953 1613 
Q 991 1019 1311 708 
Q 1631 397 2203 397 
Q 2534 397 2845 478 
Q 3156 559 3463 722 
L 3463 178 
Q 3153 47 2828 -22 
Q 2503 -91 2169 -91 
Q 1331 -91 842 396 
Q 353 884 353 1716 
Q 353 2575 817 3079 
Q 1281 3584 2069 3584 
Q 2775 3584 3186 3129 
Q 3597 2675 3597 1894 
z
M 3022 2063 
Q 3016 2534 2758 2815 
Q 2500 3097 2075 3097 
Q 1594 3097 1305 2825 
Q 1016 2553 972 2059 
L 3022 2063 
z
" transform="scale(0.015625)"/>
       <path id="DejaVuSans-73" d="M 2834 3397 
L 2834 2853 
Q 2591 2978 2328 3040 
Q 2066 3103 1784 3103 
Q 1356 3103 1142 2972 
Q 928 2841 928 2578 
Q 928 2378 1081 2264 
Q 1234 2150 1697 2047 
L 1894 2003 
Q 2506 1872 2764 1633 
Q 3022 1394 3022 966 
Q 3022 478 2636 193 
Q 2250 -91 1575 -91 
Q 1294 -91 989 -36 
Q 684 19 347 128 
L 347 722 
Q 666 556 975 473 
Q 1284 391 1588 391 
Q 1994 391 2212 530 
Q 2431 669 2431 922 
Q 2431 1156 2273 1281 
Q 2116 1406 1581 1522 
L 1381 1569 
Q 847 1681 609 1914 
Q 372 2147 372 2553 
Q 372 3047 722 3315 
Q 1072 3584 1716 3584 
Q 2034 3584 2315 3537 
Q 2597 3491 2834 3397 
z
" transform="scale(0.015625)"/>
       <path id="DejaVuSans-20" transform="scale(0.015625)"/>
       <path id="DejaVuSans-5b" d="M 550 4863 
L 1875 4863 
L 1875 4416 
L 1125 4416 
L 1125 -397 
L 1875 -397 
L 1875 -844 
L 550 -844 
L 550 4863 
z
" transform="scale(0.015625)"/>
       <path id="DejaVuSans-50" d="M 1259 4147 
L 1259 2394 
L 2053 2394 
Q 2494 2394 2734 2622 
Q 2975 2850 2975 3272 
Q 2975 3691 2734 3919 
Q 2494 4147 2053 4147 
L 1259 4147 
z
M 628 4666 
L 2053 4666 
Q 2838 4666 3239 4311 
Q 3641 3956 3641 3272 
Q 3641 2581 3239 2228 
Q 2838 1875 2053 1875 
L 1259 1875 
L 1259 0 
L 628 0 
L 628 4666 
z
" transform="scale(0.015625)"/>
       <path id="DejaVuSans-5d" d="M 1947 4863 
L 1947 -844 
L 622 -844 
L 622 -397 
L 1369 -397 
L 1369 4416 
L 622 4416 
L 622 4863 
L 1947 4863 
z
" transform="scale(0.015625)"/>
      </defs>
      <use xlink:href="#DejaVuSans-53"/>
      <use xlink:href="#DejaVuSans-74" transform="translate(63.476562 0)"/>
      <use xlink:href="#DejaVuSans-72" transform="translate(102.685547 0)"/>
      <use xlink:href="#DejaVuSans-65" transform="translate(141.548828 0)"/>
      <use xlink:href="#DejaVuSans-73" transform="translate(203.072266 0)"/>
      <use xlink:href="#DejaVuSans-73" transform="translate(255.171875 0)"/>
      <use xlink:href="#DejaVuSans-20" transform="translate(307.271484 0)"/>
      <use xlink:href="#DejaVuSans-5b" transform="translate(339.058594 0)"/>
      <use xlink:href="#DejaVuSans-50" transform="translate(378.072266 0)"/>
      <use xlink:href="#DejaVuSans-61" transform="translate(433.875 0)"/>
      <use xlink:href="#DejaVuSans-5d" transform="translate(495.154297 0)"/>
     </g>
    </g>
   </g>
   <g id="line2d_16">
    <path d="M 73.938186 277.217736 
L 73.938186 277.080401 
L 73.938186 277.263863 
L 73.93627 277.183774 
L 74.35304 277.066332 
L 75.301315 275.727106 
L 75.772624 275.271988 
L 76.257192 275.985542 
L 77.23004 276.77655 
L 78.206423 277.459352 
L 79.158057 278.285272 
L 79.648105 278.189697 
L 80.117292 277.334505 
L 82.026924 276.556436 
L 82.491515 276.968975 
L 82.986513 277.557861 
L 83.453382 277.793683 
L 83.940071 277.774152 
L 84.405192 278.077017 
L 84.884191 278.123524 
L 85.357533 277.108445 
L 85.820975 276.69262 
L 86.772344 276.85204 
L 87.739358 277.42874 
L 88.224456 277.520012 
L 90.123481 277.196522 
L 91.06548 277.081992 
L 91.542181 276.816897 
L 92.480909 276.915433 
L 93.921884 277.532583 
L 94.404419 277.462226 
L 95.34057 276.873962 
L 95.811967 276.830384 
L 96.287165 276.962006 
L 97.246576 277.403352 
L 97.730967 277.420891 
L 99.629904 277.141317 
L 100.566157 277.241506 
L 101.53105 277.144303 
L 102.482153 277.19834 
L 103.892898 277.455116 
L 105.327862 277.199245 
L 107.216815 277.325404 
L 109.127243 277.070802 
L 111.026091 277.370656 
L 111.990099 277.251828 
L 113.895312 277.329182 
L 114.852956 277.214808 
L 116.28297 277.285717 
L 117.218516 277.293666 
L 118.152433 277.189333 
L 118.622681 277.176832 
L 119.561763 277.4149 
L 120.527012 277.494408 
L 121.000443 277.366941 
L 121.471398 277.122837 
L 121.950309 277.093668 
L 122.884794 277.240167 
L 123.819633 277.385387 
L 124.788769 277.143424 
L 126.721736 277.348359 
L 128.625357 277.108844 
L 130.072337 277.161183 
L 131.025032 276.806751 
L 133.39183 276.401232 
L 134.337806 275.99284 
L 136.693821 275.659151 
L 137.642184 275.130558 
L 138.127459 274.933858 
L 139.547573 274.699796 
L 140.011457 274.56357 
L 140.974935 274.05182 
L 141.924387 273.71373 
L 142.872485 273.602543 
L 145.260585 272.354462 
L 147.168803 271.592706 
L 148.605888 270.96085 
L 149.55487 270.524066 
L 150.027593 270.410596 
L 151.935988 269.349165 
L 152.40217 269.017271 
L 154.292908 268.289906 
L 159.034371 265.843764 
L 159.506298 265.363212 
L 160.463766 264.899504 
L 161.405323 264.575681 
L 161.886709 264.344879 
L 162.83516 263.519801 
L 163.775126 263.088089 
L 164.720622 262.621659 
L 166.129776 261.868899 
L 168.021375 260.867601 
L 168.96965 260.256704 
L 172.304523 258.310988 
L 173.257041 257.780385 
L 175.609696 256.466716 
L 176.572578 255.836793 
L 177.976604 255.117465 
L 179.397956 254.299214 
L 179.876513 253.831295 
L 181.295743 253.042583 
L 182.244195 252.589626 
L 184.146755 251.278126 
L 185.545832 250.597238 
L 194.161992 245.168239 
L 195.101604 244.318342 
L 197.014948 243.251297 
L 197.978427 242.488965 
L 199.398729 241.684119 
L 210.310519 234.349457 
L 211.256043 233.485436 
L 212.666787 232.842414 
L 215.030757 230.816308 
L 215.51444 230.647426 
L 217.429818 229.431213 
L 218.374027 228.565302 
L 219.319119 227.988378 
L 220.278178 227.479084 
L 222.176938 225.996438 
L 223.579119 225.113834 
L 224.060151 224.670926 
L 225.010901 224.127163 
L 229.340897 220.729903 
L 231.689662 219.153117 
L 234.087298 217.208892 
L 235.035927 216.572697 
L 237.421817 214.766673 
L 238.364082 214.266981 
L 239.317483 213.39603 
L 240.269471 212.429185 
L 240.73689 212.078788 
L 241.683574 211.614155 
L 242.645992 210.90545 
L 243.601073 210.023142 
L 245.987759 208.466673 
L 246.95442 207.617669 
L 248.832584 206.256149 
L 252.142176 203.489341 
L 253.107599 202.844437 
L 254.036958 202.089094 
L 255.943496 200.568772 
L 257.378538 199.262233 
L 258.802187 198.35064 
L 259.76318 197.341431 
L 260.704737 196.486047 
L 262.60217 195.30778 
L 264.50367 193.370198 
L 265.920602 192.517493 
L 267.829438 190.828657 
L 269.766737 189.233185 
L 270.2483 188.744212 
L 271.645255 187.807417 
L 276.867042 183.162682 
L 277.82946 182.322802 
L 278.790906 181.334264 
L 281.141285 179.529476 
L 283.521695 177.336689 
L 284.940571 176.257554 
L 285.901928 175.396109 
L 286.863374 174.420523 
L 288.736058 172.920745 
L 291.103386 170.684318 
L 292.054843 169.880613 
L 294.430613 167.66977 
L 295.361209 166.993476 
L 298.207359 164.144046 
L 301.049886 161.563346 
L 309.078423 153.870033 
L 310.031648 153.027154 
L 310.499421 152.74847 
L 315.712812 147.628167 
L 316.67081 146.667957 
L 318.085443 145.534846 
L 320.002942 143.337912 
L 321.431188 142.075284 
L 322.384236 140.925712 
L 323.830868 139.422553 
L 324.76995 138.592115 
L 325.711507 137.548836 
L 328.547979 134.563349 
L 329.968093 133.308314 
L 331.865527 131.155913 
L 333.764728 129.328643 
L 335.188555 127.630125 
L 337.090762 125.993366 
L 339.926813 122.809186 
L 340.879685 121.846105 
L 341.842456 120.712356 
L 342.792322 119.756357 
L 345.147275 117.15824 
L 345.627423 116.731282 
L 347.997668 113.964729 
L 348.934806 112.969174 
L 351.786127 109.60962 
L 352.255492 109.313327 
L 353.200761 108.29174 
L 355.084759 105.805913 
L 356.042934 105.045848 
L 357.468705 103.30688 
L 358.433775 102.190867 
L 359.367376 101.201437 
L 361.748229 98.228551 
L 363.147858 96.550959 
L 364.571242 94.937296 
L 365.990649 93.338946 
L 366.934858 92.070703 
L 368.83954 89.989887 
L 370.274327 88.098051 
L 372.645368 85.398362 
L 373.591256 84.239651 
L 375.024011 82.572778 
L 375.974937 81.150136 
L 382.585106 73.217974 
L 384.029086 71.195473 
L 388.294666 65.882514 
L 389.257083 64.518187 
L 390.202088 63.14531 
L 393.060878 59.644405 
L 394.497257 57.719264 
L 396.833139 54.970161 
L 397.788486 54.097997 
L 398.212902 53.568 
L 398.487273 53.664276 
L 398.341072 61.724184 
L 398.337823 78.359483 
L 397.870271 78.431451 
L 396.912295 81.032933 
L 396.436566 81.444898 
L 395.940331 81.38317 
L 395.44657 81.677613 
L 394.499179 82.499119 
L 394.028931 82.741436 
L 393.541888 83.402546 
L 393.060856 83.238193 
L 392.125664 85.893604 
L 391.638267 86.972357 
L 391.151932 88.486234 
L 390.66153 89.588593 
L 389.689036 89.495188 
L 389.214191 89.931334 
L 388.733866 90.552759 
L 388.261143 90.947242 
L 387.796375 90.95611 
L 387.319586 92.262219 
L 386.844565 94.501135 
L 386.374493 95.395629 
L 385.891428 95.888877 
L 385.425246 96.033339 
L 384.948103 96.371231 
L 383.982305 97.493831 
L 383.507725 98.282543 
L 383.029698 99.320718 
L 380.154732 103.908797 
L 379.687489 104.007769 
L 378.739037 104.823022 
L 378.264193 105.190709 
L 377.780774 105.822087 
L 377.301068 107.451317 
L 376.83356 108.326033 
L 375.885374 109.182693 
L 375.400806 109.565533 
L 374.919243 110.190339 
L 373.965665 111.911188 
L 373.493295 112.276706 
L 372.077623 113.925747 
L 371.594558 114.9555 
L 371.114587 115.673903 
L 370.156942 116.679539 
L 369.20849 117.916136 
L 368.250934 119.37004 
L 366.839306 120.880855 
L 364.949828 123.419892 
L 363.529979 124.974603 
L 362.588333 126.470871 
L 351.693558 139.325591 
L 347.891354 143.670149 
L 345.979248 145.611495 
L 345.037602 146.809684 
L 344.074654 147.753561 
L 343.12196 148.671023 
L 341.213035 151.067656 
L 339.341235 152.886248 
L 338.401092 153.935142 
L 336.971962 155.531419 
L 335.527098 157.08128 
L 330.259081 162.578146 
L 329.323004 163.550988 
L 326.982724 165.713279 
L 325.11309 167.681095 
L 312.696704 179.501978 
L 311.760451 180.291775 
L 310.312051 181.852099 
L 309.362539 182.757121 
L 307.926691 183.803271 
L 305.552291 186.15671 
L 304.593586 186.824486 
L 303.641952 187.957343 
L 301.280436 189.827893 
L 300.328537 190.865047 
L 298.430749 192.331457 
L 297.488927 193.387496 
L 296.551967 194.09282 
L 295.126903 195.04767 
L 293.233005 197.088036 
L 288.500425 200.729177 
L 288.013913 201.103818 
L 287.07377 202.017836 
L 280.031008 207.561117 
L 279.561909 208.089392 
L 278.61496 208.701501 
L 277.665271 209.303865 
L 277.198205 209.630014 
L 275.293346 211.419768 
L 271.009934 214.602114 
L 270.058653 215.341252 
L 269.111616 216.216415 
L 267.696209 217.353657 
L 266.750232 217.968765 
L 263.894447 220.143433 
L 262.935742 220.72932 
L 261.503518 221.921831 
L 260.076863 222.714498 
L 259.612095 223.003072 
L 258.66098 223.927872 
L 257.239098 224.877203 
L 256.303364 225.474683 
L 255.347488 226.195893 
L 253.461457 227.80292 
L 252.035155 228.53874 
L 249.212428 230.576873 
L 248.748545 230.843754 
L 247.31747 231.971761 
L 246.850934 232.134901 
L 242.589177 235.45178 
L 241.633478 235.824188 
L 240.685114 236.388128 
L 239.251741 237.538019 
L 238.29887 238.048737 
L 236.873099 239.062667 
L 235.448388 240.370083 
L 234.501528 240.878389 
L 232.607475 241.810318 
L 231.653985 242.606431 
L 230.216546 243.444671 
L 229.744707 243.625133 
L 228.790156 244.316356 
L 228.31814 244.713902 
L 227.35643 245.198509 
L 222.12704 248.418354 
L 221.183671 248.96281 
L 216.926864 251.607343 
L 215.972225 252.303287 
L 215.029784 252.744984 
L 213.581738 253.675239 
L 210.700142 255.377107 
L 209.768419 256.015862 
L 208.330449 256.938939 
L 206.924832 257.505335 
L 205.99123 258.236562 
L 203.649182 259.423841 
L 201.788343 260.655365 
L 200.849968 261.040342 
L 197.996503 262.814964 
L 197.062017 263.279756 
L 194.692214 264.495267 
L 193.751894 265.028008 
L 190.426833 266.710066 
L 189.015028 267.589647 
L 188.066223 268.037165 
L 187.10902 268.536466 
L 186.627767 268.918957 
L 185.20836 269.523219 
L 184.255224 269.824792 
L 182.830602 271.025852 
L 181.886923 271.31738 
L 181.415261 271.462464 
L 180.453197 272.04095 
L 179.975524 272.441495 
L 179.03432 272.788367 
L 178.090465 273.135558 
L 177.13397 273.703398 
L 175.708463 274.519512 
L 174.291476 275.062354 
L 173.815394 275.305597 
L 172.869152 275.985017 
L 171.450453 276.557335 
L 170.984094 276.737573 
L 170.033786 277.413995 
L 167.661949 278.268756 
L 166.699885 279.024801 
L 165.770703 279.469672 
L 164.817036 279.941722 
L 163.872297 280.441286 
L 162.462879 280.890482 
L 160.089805 281.997758 
L 159.137287 282.447206 
L 158.177521 282.969803 
L 156.744502 283.495569 
L 155.314311 284.221437 
L 154.369925 284.395092 
L 151.531791 285.430844 
L 151.056062 285.500702 
L 150.09939 285.941123 
L 149.160043 286.516579 
L 148.675122 286.776697 
L 148.208232 286.875988 
L 146.788826 287.572204 
L 146.313097 287.6378 
L 145.834186 287.864996 
L 144.871415 288.082806 
L 143.925262 288.552368 
L 142.976987 288.803267 
L 141.067885 289.662479 
L 140.581196 289.897012 
L 139.636385 290.100209 
L 138.217509 290.684214 
L 136.32308 291.090713 
L 134.894569 291.98433 
L 133.489658 292.192695 
L 133.025067 292.278795 
L 131.592667 292.938022 
L 130.639972 293.194712 
L 129.692404 293.358561 
L 128.739533 293.633944 
L 127.805716 293.847951 
L 127.332639 293.862069 
L 124.974504 294.473609 
L 123.54997 294.450577 
L 122.131447 295.016971 
L 121.184056 294.993835 
L 120.717167 294.921749 
L 119.300591 295.371439 
L 117.403334 295.306063 
L 116.923719 295.267818 
L 116.441273 295.378487 
L 115.474436 295.3774 
L 115.009314 295.488 
L 111.691059 295.186826 
L 110.253443 294.993807 
L 108.824667 294.701198 
L 107.855708 294.451013 
L 105.495098 293.524092 
L 103.128927 291.343051 
L 102.649663 290.815351 
L 101.70952 288.992164 
L 101.234852 287.57501 
L 99.342015 279.2201 
L 98.862751 277.673301 
L 98.375354 277.209242 
L 97.42266 276.972125 
L 96.952764 277.094201 
L 96.486316 277.459655 
L 96.021549 277.449265 
L 95.067263 277.146544 
L 94.598606 277.050172 
L 94.122877 277.088963 
L 93.656177 277.419117 
L 92.694378 277.418774 
L 91.266574 276.988123 
L 90.788371 277.342348 
L 90.323073 277.526893 
L 87.957335 277.201925 
L 87.011005 277.570683 
L 85.587709 277.070385 
L 84.633601 277.155431 
L 83.218613 277.226917 
L 82.747481 277.106847 
L 82.268129 277.1414 
L 81.796772 277.326859 
L 80.388149 277.062494 
L 79.438902 277.43235 
L 77.067331 277.135443 
L 76.594873 277.41132 
L 76.130812 277.459441 
L 75.182183 276.729682 
L 74.718034 276.473663 
L 74.251587 276.409527 
L 73.833009 277.201373 
L 73.833009 277.201373 
" clip-path="url(#p38c857c619)" style="fill: none; stroke: #ff0000; stroke-width: 1.5; stroke-linecap: square"/>
   </g>
   <g id="line2d_17">
    <path d="M 73.938186 277.217736 
L 73.938186 277.080401 
L 73.938186 277.263863 
L 73.93627 277.183774 
L 74.35304 277.066332 
L 75.301315 275.727106 
L 75.772624 275.271988 
L 76.257192 275.985542 
L 76.751306 278.787328 
L 77.718143 278.202669 
L 78.206423 278.269788 
L 78.677555 278.101348 
L 79.158057 278.287409 
L 79.648105 278.189697 
L 80.117292 277.334505 
L 82.026924 276.556436 
L 82.491515 276.968975 
L 82.986513 277.557861 
L 83.453382 277.793683 
L 83.940071 277.774152 
L 84.405192 278.077017 
L 84.884191 278.123524 
L 85.357533 277.108445 
L 85.820975 276.69262 
L 86.772344 276.85204 
L 87.739358 277.42874 
L 88.224456 277.520012 
L 90.123481 277.196522 
L 91.06548 277.081992 
L 91.542181 276.816897 
L 92.480909 276.915433 
L 93.921884 277.532583 
L 94.404419 277.462226 
L 95.34057 276.873962 
L 95.811967 276.830384 
L 96.287165 276.962006 
L 97.246576 277.403352 
L 97.730967 277.420891 
L 99.629904 277.141317 
L 100.566157 277.241506 
L 101.53105 277.144303 
L 102.482153 277.19834 
L 103.892898 277.455116 
L 105.327862 277.199245 
L 107.216815 277.325404 
L 109.127243 277.070802 
L 111.026091 277.370656 
L 111.990099 277.251828 
L 113.895312 277.329182 
L 114.852956 277.214808 
L 116.28297 277.285717 
L 117.218516 277.293666 
L 118.152433 277.189333 
L 118.622681 277.176832 
L 119.561763 277.4149 
L 120.527012 277.494408 
L 121.000443 277.366941 
L 121.471398 277.122837 
L 121.950309 277.093668 
L 122.884794 277.240167 
L 123.819633 277.385387 
L 124.788769 277.143424 
L 126.721736 277.348359 
L 128.625357 277.108844 
L 130.072337 277.161183 
L 131.025032 276.806751 
L 133.39183 276.401232 
L 134.337806 275.99284 
L 136.693821 275.659151 
L 137.642184 275.130558 
L 138.127459 274.933858 
L 139.547573 274.699796 
L 140.011457 274.56357 
L 140.974935 274.05182 
L 141.924387 273.71373 
L 142.872485 273.602543 
L 145.260585 272.354462 
L 147.168803 271.592706 
L 148.605888 270.96085 
L 149.55487 270.524066 
L 150.027593 270.410596 
L 151.935988 269.349165 
L 152.40217 269.017271 
L 154.292908 268.289906 
L 159.034371 265.843764 
L 159.506298 265.363212 
L 160.463766 264.899504 
L 161.405323 264.575681 
L 161.886709 264.344879 
L 162.83516 263.519801 
L 163.775126 263.088089 
L 164.720622 262.621659 
L 166.129776 261.868899 
L 168.021375 260.867601 
L 168.96965 260.256704 
L 172.304523 258.310988 
L 173.257041 257.780385 
L 175.609696 256.466716 
L 176.572578 255.836793 
L 177.976604 255.117465 
L 179.397956 254.299214 
L 179.876513 253.831295 
L 181.295743 253.042583 
L 182.244195 252.589626 
L 184.146755 251.278126 
L 185.545832 250.597238 
L 194.161992 245.168239 
L 195.101604 244.318342 
L 197.014948 243.251297 
L 197.978427 242.488965 
L 199.398729 241.684119 
L 210.310519 234.349457 
L 211.256043 233.485436 
L 212.666787 232.842414 
L 215.030757 230.816308 
L 215.51444 230.647426 
L 217.429818 229.431213 
L 218.374027 228.565302 
L 219.319119 227.988378 
L 220.278178 227.479084 
L 222.176938 225.996438 
L 223.579119 225.113834 
L 224.060151 224.670926 
L 225.010901 224.127163 
L 229.340897 220.729903 
L 231.689662 219.153117 
L 234.087298 217.208892 
L 235.035927 216.572697 
L 237.421817 214.766673 
L 238.364082 214.266981 
L 239.317483 213.39603 
L 240.269471 212.429185 
L 240.73689 212.078788 
L 241.683574 211.614155 
L 242.645992 210.90545 
L 243.601073 210.023142 
L 245.987759 208.466673 
L 246.95442 207.617669 
L 248.832584 206.256149 
L 252.142176 203.489341 
L 253.107599 202.844437 
L 254.036958 202.089094 
L 255.943496 200.568772 
L 257.378538 199.262233 
L 258.802187 198.35064 
L 259.76318 197.341431 
L 260.704737 196.486047 
L 262.60217 195.30778 
L 264.50367 193.370198 
L 265.920602 192.517493 
L 267.829438 190.828657 
L 269.766737 189.233185 
L 270.2483 188.744212 
L 271.645255 187.807417 
L 276.867042 183.162682 
L 277.82946 182.322802 
L 278.790906 181.334264 
L 281.141285 179.529476 
L 283.521695 177.336689 
L 284.940571 176.257554 
L 285.901928 175.396109 
L 286.863374 174.420523 
L 288.736058 172.920745 
L 291.103386 170.684318 
L 292.054843 169.880613 
L 294.430613 167.66977 
L 295.361209 166.993476 
L 298.207359 164.144046 
L 301.049886 161.563346 
L 309.078423 153.870033 
L 310.031648 153.027154 
L 310.499421 152.74847 
L 315.712812 147.628167 
L 316.67081 146.667957 
L 318.085443 145.534846 
L 320.002942 143.337912 
L 321.431188 142.075284 
L 322.384236 140.925712 
L 323.830868 139.422553 
L 324.76995 138.592115 
L 325.711507 137.548836 
L 328.547979 134.563349 
L 329.968093 133.308314 
L 331.865527 131.155913 
L 333.764728 129.328643 
L 335.188555 127.630125 
L 337.090762 125.993366 
L 339.926813 122.809186 
L 340.879685 121.846105 
L 341.842456 120.712356 
L 342.792322 119.756357 
L 345.147275 117.15824 
L 345.627423 116.731282 
L 347.997668 113.964729 
L 348.934806 112.969174 
L 351.786127 109.60962 
L 352.255492 109.313327 
L 353.200761 108.29174 
L 355.084759 105.805913 
L 356.042934 105.045848 
L 357.468705 103.30688 
L 358.433775 102.190867 
L 359.367376 101.201437 
L 361.748229 98.228551 
L 363.147858 96.550959 
L 364.571242 94.937296 
L 365.990649 93.338946 
L 366.934858 92.070703 
L 368.83954 89.989887 
L 370.274327 88.098051 
L 372.645368 85.398362 
L 373.591256 84.239651 
L 375.024011 82.572778 
L 375.974937 81.150136 
L 382.585106 73.217974 
L 384.029086 71.195473 
L 388.294666 65.882514 
L 389.257083 64.518187 
L 390.202088 63.14531 
L 393.060878 59.644405 
L 394.497257 57.719264 
L 396.833139 54.970161 
L 397.788486 54.097997 
L 398.212902 53.568 
L 398.487273 53.664276 
L 398.341072 61.724184 
L 398.337823 78.359483 
L 397.870271 78.431451 
L 396.912295 81.032933 
L 396.436566 81.444898 
L 395.940331 81.38317 
L 395.44657 81.677613 
L 394.499179 82.499119 
L 394.028931 82.741436 
L 393.541888 83.402546 
L 393.060856 83.238193 
L 392.125664 85.893604 
L 391.638267 86.972357 
L 391.151932 88.486234 
L 390.66153 89.588593 
L 389.689036 89.495188 
L 389.214191 89.931334 
L 388.733866 90.552759 
L 388.261143 90.947242 
L 387.796375 90.95611 
L 387.319586 92.262219 
L 386.844565 94.501135 
L 386.374493 95.395629 
L 385.891428 95.888877 
L 385.425246 96.033339 
L 384.948103 96.371231 
L 383.982305 97.493831 
L 383.507725 98.282543 
L 383.029698 99.320718 
L 380.154732 103.908797 
L 379.687489 104.007769 
L 378.739037 104.823022 
L 378.264193 105.190709 
L 377.780774 105.822087 
L 377.301068 107.451317 
L 376.83356 108.326033 
L 375.885374 109.182693 
L 375.400806 109.565533 
L 374.919243 110.190339 
L 373.965665 111.911188 
L 373.493295 112.276706 
L 372.077623 113.925747 
L 371.594558 114.9555 
L 371.114587 115.673903 
L 370.156942 116.679539 
L 369.20849 117.916136 
L 368.250934 119.37004 
L 366.839306 120.880855 
L 364.949828 123.419892 
L 363.529979 124.974603 
L 362.588333 126.470871 
L 351.693558 139.325591 
L 347.891354 143.670149 
L 345.979248 145.611495 
L 345.037602 146.809684 
L 344.074654 147.753561 
L 343.12196 148.671023 
L 341.213035 151.067656 
L 339.341235 152.886248 
L 338.401092 153.935142 
L 336.971962 155.531419 
L 335.527098 157.08128 
L 330.259081 162.578146 
L 329.323004 163.550988 
L 326.982724 165.713279 
L 325.11309 167.681095 
L 312.696704 179.501978 
L 311.760451 180.291775 
L 310.312051 181.852099 
L 309.362539 182.757121 
L 307.926691 183.803271 
L 305.552291 186.15671 
L 304.593586 186.824486 
L 303.641952 187.957343 
L 301.280436 189.827893 
L 300.328537 190.865047 
L 298.430749 192.331457 
L 297.488927 193.387496 
L 296.551967 194.09282 
L 295.126903 195.04767 
L 293.233005 197.088036 
L 288.500425 200.729177 
L 288.013913 201.103818 
L 287.07377 202.017836 
L 280.031008 207.561117 
L 279.561909 208.089392 
L 278.61496 208.701501 
L 277.665271 209.303865 
L 277.198205 209.630014 
L 275.293346 211.419768 
L 271.009934 214.602114 
L 270.058653 215.341252 
L 269.111616 216.216415 
L 267.696209 217.353657 
L 266.750232 217.968765 
L 263.894447 220.143433 
L 262.935742 220.72932 
L 261.503518 221.921831 
L 260.076863 222.714498 
L 259.612095 223.003072 
L 258.66098 223.927872 
L 257.239098 224.877203 
L 256.303364 225.474683 
L 255.347488 226.195893 
L 253.461457 227.80292 
L 252.035155 228.53874 
L 249.212428 230.576873 
L 248.748545 230.843754 
L 247.31747 231.971761 
L 246.850934 232.134901 
L 242.589177 235.45178 
L 241.633478 235.824188 
L 240.685114 236.388128 
L 239.251741 237.538019 
L 238.29887 238.048737 
L 236.873099 239.062667 
L 235.448388 240.370083 
L 234.501528 240.878389 
L 232.607475 241.810318 
L 231.653985 242.606431 
L 230.216546 243.444671 
L 229.744707 243.625133 
L 228.790156 244.316356 
L 228.31814 244.713902 
L 227.35643 245.198509 
L 222.12704 248.418354 
L 221.183671 248.96281 
L 216.926864 251.607343 
L 215.972225 252.303287 
L 215.029784 252.744984 
L 213.581738 253.675239 
L 210.700142 255.377107 
L 209.768419 256.015862 
L 208.330449 256.938939 
L 206.924832 257.505335 
L 205.99123 258.236562 
L 203.649182 259.423841 
L 201.788343 260.655365 
L 200.849968 261.040342 
L 197.996503 262.814964 
L 197.062017 263.279756 
L 194.692214 264.495267 
L 193.751894 265.028008 
L 190.426833 266.710066 
L 189.015028 267.589647 
L 188.066223 268.037165 
L 187.10902 268.536466 
L 186.627767 268.918957 
L 185.20836 269.523219 
L 184.255224 269.824792 
L 182.830602 271.025852 
L 181.886923 271.31738 
L 181.415261 271.462464 
L 180.453197 272.04095 
L 179.975524 272.441495 
L 179.03432 272.788367 
L 178.090465 273.135558 
L 177.13397 273.703398 
L 175.708463 274.519512 
L 174.291476 275.062354 
L 173.815394 275.305597 
L 172.869152 275.985017 
L 171.450453 276.557335 
L 170.984094 276.737573 
L 170.033786 277.413995 
L 167.661949 278.268756 
L 166.699885 279.024801 
L 165.770703 279.469672 
L 164.817036 279.941722 
L 163.872297 280.441286 
L 162.462879 280.890482 
L 160.089805 281.997758 
L 159.137287 282.447206 
L 158.177521 282.969803 
L 156.744502 283.495569 
L 155.314311 284.221437 
L 154.369925 284.395092 
L 151.531791 285.430844 
L 151.056062 285.500702 
L 150.09939 285.941123 
L 149.160043 286.516579 
L 148.675122 286.776697 
L 148.208232 286.875988 
L 146.788826 287.572204 
L 146.313097 287.6378 
L 145.834186 287.864996 
L 144.871415 288.082806 
L 143.925262 288.552368 
L 142.976987 288.803267 
L 141.067885 289.662479 
L 140.581196 289.897012 
L 139.636385 290.100209 
L 138.217509 290.684214 
L 136.32308 291.090713 
L 134.894569 291.98433 
L 133.489658 292.192695 
L 133.025067 292.278795 
L 131.592667 292.938022 
L 130.639972 293.194712 
L 129.692404 293.358561 
L 128.739533 293.633944 
L 127.805716 293.847951 
L 127.332639 293.862069 
L 124.974504 294.473609 
L 123.54997 294.450577 
L 122.131447 295.016971 
L 121.184056 294.993835 
L 120.717167 294.921749 
L 119.300591 295.371439 
L 117.403334 295.306063 
L 116.923719 295.267818 
L 116.441273 295.378487 
L 115.474436 295.3774 
L 115.009314 295.488 
L 111.691059 295.186826 
L 110.253443 294.993807 
L 108.824667 294.701198 
L 107.855708 294.451013 
L 105.495098 293.524092 
L 103.128927 291.343051 
L 102.649663 290.815351 
L 101.70952 288.992164 
L 101.234852 287.57501 
L 99.342015 279.2201 
L 98.862751 277.673301 
L 98.375354 277.209242 
L 97.42266 276.972125 
L 96.952764 277.094201 
L 96.486316 277.459655 
L 96.021549 277.449265 
L 95.067263 277.146544 
L 94.598606 277.050172 
L 94.122877 277.088963 
L 93.656177 277.419117 
L 92.694378 277.418774 
L 91.266574 276.988123 
L 90.788371 277.342348 
L 90.323073 277.526893 
L 87.957335 277.201925 
L 87.011005 277.570683 
L 85.587709 277.070385 
L 84.633601 277.155431 
L 83.218613 277.226917 
L 82.747481 277.106847 
L 82.268129 277.1414 
L 81.796772 277.326859 
L 80.388149 277.062494 
L 79.438902 277.43235 
L 77.067331 277.135443 
L 76.594873 277.41132 
L 76.130812 277.459441 
L 75.182183 276.729682 
L 74.718034 276.473663 
L 74.251587 276.409527 
L 73.833009 277.201373 
L 73.833009 277.201373 
" clip-path="url(#p38c857c619)" style="fill: none; stroke: #000000; stroke-width: 1.5; stroke-linecap: square"/>
   </g>
   <g id="patch_3">
    <path d="M 57.6 307.584 
L 57.6 41.472 
" style="fill: none; stroke: #000000; stroke-width: 0.8; stroke-linejoin: miter; stroke-linecap: square"/>
   </g>
   <g id="patch_4">
    <path d="M 414.72 307.584 
L 414.72 41.472 
" style="fill: none; stroke: #000000; stroke-width: 0.8; stroke-linejoin: miter; stroke-linecap: square"/>
   </g>
   <g id="patch_5">
    <path d="M 57.6 307.584 
L 414.72 307.584 
" style="fill: none; stroke: #000000; stroke-width: 0.8; stroke-linejoin: miter; stroke-linecap: square"/>
   </g>
   <g id="patch_6">
    <path d="M 57.6 41.472 
L 414.72 41.472 
" style="fill: none; stroke: #000000; stroke-width: 0.8; stroke-linejoin: miter; stroke-linecap: square"/>
   </g>
   <g id="text_18">
    <!-- 2025-07-02 trial 29 -->
    <g transform="translate(178.0125 35.472) scale(0.12 -0.12)">
     <defs>
      <path id="DejaVuSans-2d" d="M 313 2009 
L 1997 2009 
L 1997 1497 
L 313 1497 
L 313 2009 
z
" transform="scale(0.015625)"/>
      <path id="DejaVuSans-6c" d="M 603 4863 
L 1178 4863 
L 1178 0 
L 603 0 
L 603 4863 
z
" transform="scale(0.015625)"/>
      <path id="DejaVuSans-39" d="M 703 97 
L 703 672 
Q 941 559 1184 500 
Q 1428 441 1663 441 
Q 2288 441 2617 861 
Q 2947 1281 2994 2138 
Q 2813 1869 2534 1725 
Q 2256 1581 1919 1581 
Q 1219 1581 811 2004 
Q 403 2428 403 3163 
Q 403 3881 828 4315 
Q 1253 4750 1959 4750 
Q 2769 4750 3195 4129 
Q 3622 3509 3622 2328 
Q 3622 1225 3098 567 
Q 2575 -91 1691 -91 
Q 1453 -91 1209 -44 
Q 966 3 703 97 
z
M 1959 2075 
Q 2384 2075 2632 2365 
Q 2881 2656 2881 3163 
Q 2881 3666 2632 3958 
Q 2384 4250 1959 4250 
Q 1534 4250 1286 3958 
Q 1038 3666 1038 3163 
Q 1038 2656 1286 2365 
Q 1534 2075 1959 2075 
z
" transform="scale(0.015625)"/>
     </defs>
     <use xlink:href="#DejaVuSans-32"/>
     <use xlink:href="#DejaVuSans-30" transform="translate(63.623047 0)"/>
     <use xlink:href="#DejaVuSans-32" transform="translate(127.246094 0)"/>
     <use xlink:href="#DejaVuSans-35" transform="translate(190.869141 0)"/>
     <use xlink:href="#DejaVuSans-2d" transform="translate(254.492188 0)"/>
     <use xlink:href="#DejaVuSans-30" transform="translate(290.576172 0)"/>
     <use xlink:href="#DejaVuSans-37" transform="translate(354.199219 0)"/>
     <use xlink:href="#DejaVuSans-2d" transform="translate(417.822266 0)"/>
     <use xlink:href="#DejaVuSans-30" transform="translate(453.90625 0)"/>
     <use xlink:href="#DejaVuSans-32" transform="translate(517.529297 0)"/>
     <use xlink:href="#DejaVuSans-20" transform="translate(581.152344 0)"/>
     <use xlink:href="#DejaVuSans-74" transform="translate(612.939453 0)"/>
     <use xlink:href="#DejaVuSans-72" transform="translate(652.148438 0)"/>
     <use xlink:href="#DejaVuSans-69" transform="translate(693.261719 0)"/>
     <use xlink:href="#DejaVuSans-61" transform="translate(721.044922 0)"/>
     <use xlink:href="#DejaVuSans-6c" transform="translate(782.324219 0)"/>
     <use xlink:href="#DejaVuSans-20" transform="translate(810.107422 0)"/>
     <use xlink:href="#DejaVuSans-32" transform="translate(841.894531 0)"/>
     <use xlink:href="#DejaVuSans-39" transform="translate(905.517578 0)"/>
    </g>
   </g>
  </g>
 </g>
 <defs>
  <clipPath id="p38c857c619">
   <rect x="57.6" y="41.472" width="357.12" height="266.112"/>
  </clipPath>
 </defs>
</svg>
