<?xml version="1.0" encoding="utf-8" standalone="no"?>
<!DOCTYPE svg PUBLIC "-//W3C//DTD SVG 1.1//EN"
  "http://www.w3.org/Graphics/SVG/1.1/DTD/svg11.dtd">
<svg xmlns:xlink="http://www.w3.org/1999/xlink" width="432pt" height="288pt" viewBox="0 0 432 288" xmlns="http://www.w3.org/2000/svg" version="1.1">
 <metadata>
  <rdf:RDF xmlns:dc="http://purl.org/dc/elements/1.1/" xmlns:cc="http://creativecommons.org/ns#" xmlns:rdf="http://www.w3.org/1999/02/22-rdf-syntax-ns#">
   <cc:Work>
    <dc:type rdf:resource="http://purl.org/dc/dcmitype/StillImage"/>
    <dc:date>2025-07-03T20:54:32.358499</dc:date>
    <dc:format>image/svg+xml</dc:format>
    <dc:creator>
     <cc:Agent>
      <dc:title>Matplotlib v3.9.2, https://matplotlib.org/</dc:title>
     </cc:Agent>
    </dc:creator>
   </cc:Work>
  </rdf:RDF>
 </metadata>
 <defs>
  <style type="text/css">*{stroke-linejoin: round; stroke-linecap: butt}</style>
 </defs>
 <g id="figure_1">
  <g id="patch_1">
   <path d="M 0 288 
L 432 288 
L 432 0 
L 0 0 
z
" style="fill: #ffffff"/>
  </g>
  <g id="axes_1">
   <g id="patch_2">
    <path d="M 54 256.32 
L 388.8 256.32 
L 388.8 34.56 
L 54 34.56 
z
" style="fill: #ffffff"/>
   </g>
   <g id="matplotlib.axis_1">
    <g id="xtick_1">
     <g id="line2d_1">
      <defs>
       <path id="mc3cce495cd" d="M 0 0 
L 0 3.5 
" style="stroke: #000000; stroke-width: 0.8"/>
      </defs>
      <g>
       <use xlink:href="#mc3cce495cd" x="69.355036" y="256.32" style="stroke: #000000; stroke-width: 0.8"/>
      </g>
     </g>
     <g id="text_1">
      <!-- 0.000 -->
      <g transform="translate(55.040973 270.918437) scale(0.1 -0.1)">
       <defs>
        <path id="DejaVuSans-30" d="M 2034 4250 
Q 1547 4250 1301 3770 
Q 1056 3291 1056 2328 
Q 1056 1369 1301 889 
Q 1547 409 2034 409 
Q 2525 409 2770 889 
Q 3016 1369 3016 2328 
Q 3016 3291 2770 3770 
Q 2525 4250 2034 4250 
z
M 2034 4750 
Q 2819 4750 3233 4129 
Q 3647 3509 3647 2328 
Q 3647 1150 3233 529 
Q 2819 -91 2034 -91 
Q 1250 -91 836 529 
Q 422 1150 422 2328 
Q 422 3509 836 4129 
Q 1250 4750 2034 4750 
z
" transform="scale(0.015625)"/>
        <path id="DejaVuSans-2e" d="M 684 794 
L 1344 794 
L 1344 0 
L 684 0 
L 684 794 
z
" transform="scale(0.015625)"/>
       </defs>
       <use xlink:href="#DejaVuSans-30"/>
       <use xlink:href="#DejaVuSans-2e" x="63.623047"/>
       <use xlink:href="#DejaVuSans-30" x="95.410156"/>
       <use xlink:href="#DejaVuSans-30" x="159.033203"/>
       <use xlink:href="#DejaVuSans-30" x="222.65625"/>
      </g>
     </g>
    </g>
    <g id="xtick_2">
     <g id="line2d_2">
      <g>
       <use xlink:href="#mc3cce495cd" x="111.927699" y="256.32" style="stroke: #000000; stroke-width: 0.8"/>
      </g>
     </g>
     <g id="text_2">
      <!-- 0.025 -->
      <g transform="translate(97.613636 270.918437) scale(0.1 -0.1)">
       <defs>
        <path id="DejaVuSans-32" d="M 1228 531 
L 3431 531 
L 3431 0 
L 469 0 
L 469 531 
Q 828 903 1448 1529 
Q 2069 2156 2228 2338 
Q 2531 2678 2651 2914 
Q 2772 3150 2772 3378 
Q 2772 3750 2511 3984 
Q 2250 4219 1831 4219 
Q 1534 4219 1204 4116 
Q 875 4013 500 3803 
L 500 4441 
Q 881 4594 1212 4672 
Q 1544 4750 1819 4750 
Q 2544 4750 2975 4387 
Q 3406 4025 3406 3419 
Q 3406 3131 3298 2873 
Q 3191 2616 2906 2266 
Q 2828 2175 2409 1742 
Q 1991 1309 1228 531 
z
" transform="scale(0.015625)"/>
        <path id="DejaVuSans-35" d="M 691 4666 
L 3169 4666 
L 3169 4134 
L 1269 4134 
L 1269 2991 
Q 1406 3038 1543 3061 
Q 1681 3084 1819 3084 
Q 2600 3084 3056 2656 
Q 3513 2228 3513 1497 
Q 3513 744 3044 326 
Q 2575 -91 1722 -91 
Q 1428 -91 1123 -41 
Q 819 9 494 109 
L 494 744 
Q 775 591 1075 516 
Q 1375 441 1709 441 
Q 2250 441 2565 725 
Q 2881 1009 2881 1497 
Q 2881 1984 2565 2268 
Q 2250 2553 1709 2553 
Q 1456 2553 1204 2497 
Q 953 2441 691 2322 
L 691 4666 
z
" transform="scale(0.015625)"/>
       </defs>
       <use xlink:href="#DejaVuSans-30"/>
       <use xlink:href="#DejaVuSans-2e" x="63.623047"/>
       <use xlink:href="#DejaVuSans-30" x="95.410156"/>
       <use xlink:href="#DejaVuSans-32" x="159.033203"/>
       <use xlink:href="#DejaVuSans-35" x="222.65625"/>
      </g>
     </g>
    </g>
    <g id="xtick_3">
     <g id="line2d_3">
      <g>
       <use xlink:href="#mc3cce495cd" x="154.500362" y="256.32" style="stroke: #000000; stroke-width: 0.8"/>
      </g>
     </g>
     <g id="text_3">
      <!-- 0.050 -->
      <g transform="translate(140.1863 270.918437) scale(0.1 -0.1)">
       <use xlink:href="#DejaVuSans-30"/>
       <use xlink:href="#DejaVuSans-2e" x="63.623047"/>
       <use xlink:href="#DejaVuSans-30" x="95.410156"/>
       <use xlink:href="#DejaVuSans-35" x="159.033203"/>
       <use xlink:href="#DejaVuSans-30" x="222.65625"/>
      </g>
     </g>
    </g>
    <g id="xtick_4">
     <g id="line2d_4">
      <g>
       <use xlink:href="#mc3cce495cd" x="197.073025" y="256.32" style="stroke: #000000; stroke-width: 0.8"/>
      </g>
     </g>
     <g id="text_4">
      <!-- 0.075 -->
      <g transform="translate(182.758963 270.918437) scale(0.1 -0.1)">
       <defs>
        <path id="DejaVuSans-37" d="M 525 4666 
L 3525 4666 
L 3525 4397 
L 1831 0 
L 1172 0 
L 2766 4134 
L 525 4134 
L 525 4666 
z
" transform="scale(0.015625)"/>
       </defs>
       <use xlink:href="#DejaVuSans-30"/>
       <use xlink:href="#DejaVuSans-2e" x="63.623047"/>
       <use xlink:href="#DejaVuSans-30" x="95.410156"/>
       <use xlink:href="#DejaVuSans-37" x="159.033203"/>
       <use xlink:href="#DejaVuSans-35" x="222.65625"/>
      </g>
     </g>
    </g>
    <g id="xtick_5">
     <g id="line2d_5">
      <g>
       <use xlink:href="#mc3cce495cd" x="239.645689" y="256.32" style="stroke: #000000; stroke-width: 0.8"/>
      </g>
     </g>
     <g id="text_5">
      <!-- 0.100 -->
      <g transform="translate(225.331626 270.918437) scale(0.1 -0.1)">
       <defs>
        <path id="DejaVuSans-31" d="M 794 531 
L 1825 531 
L 1825 4091 
L 703 3866 
L 703 4441 
L 1819 4666 
L 2450 4666 
L 2450 531 
L 3481 531 
L 3481 0 
L 794 0 
L 794 531 
z
" transform="scale(0.015625)"/>
       </defs>
       <use xlink:href="#DejaVuSans-30"/>
       <use xlink:href="#DejaVuSans-2e" x="63.623047"/>
       <use xlink:href="#DejaVuSans-31" x="95.410156"/>
       <use xlink:href="#DejaVuSans-30" x="159.033203"/>
       <use xlink:href="#DejaVuSans-30" x="222.65625"/>
      </g>
     </g>
    </g>
    <g id="xtick_6">
     <g id="line2d_6">
      <g>
       <use xlink:href="#mc3cce495cd" x="282.218352" y="256.32" style="stroke: #000000; stroke-width: 0.8"/>
      </g>
     </g>
     <g id="text_6">
      <!-- 0.125 -->
      <g transform="translate(267.90429 270.918437) scale(0.1 -0.1)">
       <use xlink:href="#DejaVuSans-30"/>
       <use xlink:href="#DejaVuSans-2e" x="63.623047"/>
       <use xlink:href="#DejaVuSans-31" x="95.410156"/>
       <use xlink:href="#DejaVuSans-32" x="159.033203"/>
       <use xlink:href="#DejaVuSans-35" x="222.65625"/>
      </g>
     </g>
    </g>
    <g id="xtick_7">
     <g id="line2d_7">
      <g>
       <use xlink:href="#mc3cce495cd" x="324.791015" y="256.32" style="stroke: #000000; stroke-width: 0.8"/>
      </g>
     </g>
     <g id="text_7">
      <!-- 0.150 -->
      <g transform="translate(310.476953 270.918437) scale(0.1 -0.1)">
       <use xlink:href="#DejaVuSans-30"/>
       <use xlink:href="#DejaVuSans-2e" x="63.623047"/>
       <use xlink:href="#DejaVuSans-31" x="95.410156"/>
       <use xlink:href="#DejaVuSans-35" x="159.033203"/>
       <use xlink:href="#DejaVuSans-30" x="222.65625"/>
      </g>
     </g>
    </g>
    <g id="xtick_8">
     <g id="line2d_8">
      <g>
       <use xlink:href="#mc3cce495cd" x="367.363679" y="256.32" style="stroke: #000000; stroke-width: 0.8"/>
      </g>
     </g>
     <g id="text_8">
      <!-- 0.175 -->
      <g transform="translate(353.049616 270.918437) scale(0.1 -0.1)">
       <use xlink:href="#DejaVuSans-30"/>
       <use xlink:href="#DejaVuSans-2e" x="63.623047"/>
       <use xlink:href="#DejaVuSans-31" x="95.410156"/>
       <use xlink:href="#DejaVuSans-37" x="159.033203"/>
       <use xlink:href="#DejaVuSans-35" x="222.65625"/>
      </g>
     </g>
    </g>
    <g id="text_9">
     <!-- Strain -->
     <g transform="translate(206.588281 284.596563) scale(0.1 -0.1)">
      <defs>
       <path id="DejaVuSans-53" d="M 3425 4513 
L 3425 3897 
Q 3066 4069 2747 4153 
Q 2428 4238 2131 4238 
Q 1616 4238 1336 4038 
Q 1056 3838 1056 3469 
Q 1056 3159 1242 3001 
Q 1428 2844 1947 2747 
L 2328 2669 
Q 3034 2534 3370 2195 
Q 3706 1856 3706 1288 
Q 3706 609 3251 259 
Q 2797 -91 1919 -91 
Q 1588 -91 1214 -16 
Q 841 59 441 206 
L 441 856 
Q 825 641 1194 531 
Q 1563 422 1919 422 
Q 2459 422 2753 634 
Q 3047 847 3047 1241 
Q 3047 1584 2836 1778 
Q 2625 1972 2144 2069 
L 1759 2144 
Q 1053 2284 737 2584 
Q 422 2884 422 3419 
Q 422 4038 858 4394 
Q 1294 4750 2059 4750 
Q 2388 4750 2728 4690 
Q 3069 4631 3425 4513 
z
" transform="scale(0.015625)"/>
       <path id="DejaVuSans-74" d="M 1172 4494 
L 1172 3500 
L 2356 3500 
L 2356 3053 
L 1172 3053 
L 1172 1153 
Q 1172 725 1289 603 
Q 1406 481 1766 481 
L 2356 481 
L 2356 0 
L 1766 0 
Q 1100 0 847 248 
Q 594 497 594 1153 
L 594 3053 
L 172 3053 
L 172 3500 
L 594 3500 
L 594 4494 
L 1172 4494 
z
" transform="scale(0.015625)"/>
       <path id="DejaVuSans-72" d="M 2631 2963 
Q 2534 3019 2420 3045 
Q 2306 3072 2169 3072 
Q 1681 3072 1420 2755 
Q 1159 2438 1159 1844 
L 1159 0 
L 581 0 
L 581 3500 
L 1159 3500 
L 1159 2956 
Q 1341 3275 1631 3429 
Q 1922 3584 2338 3584 
Q 2397 3584 2469 3576 
Q 2541 3569 2628 3553 
L 2631 2963 
z
" transform="scale(0.015625)"/>
       <path id="DejaVuSans-61" d="M 2194 1759 
Q 1497 1759 1228 1600 
Q 959 1441 959 1056 
Q 959 750 1161 570 
Q 1363 391 1709 391 
Q 2188 391 2477 730 
Q 2766 1069 2766 1631 
L 2766 1759 
L 2194 1759 
z
M 3341 1997 
L 3341 0 
L 2766 0 
L 2766 531 
Q 2569 213 2275 61 
Q 1981 -91 1556 -91 
Q 1019 -91 701 211 
Q 384 513 384 1019 
Q 384 1609 779 1909 
Q 1175 2209 1959 2209 
L 2766 2209 
L 2766 2266 
Q 2766 2663 2505 2880 
Q 2244 3097 1772 3097 
Q 1472 3097 1187 3025 
Q 903 2953 641 2809 
L 641 3341 
Q 956 3463 1253 3523 
Q 1550 3584 1831 3584 
Q 2591 3584 2966 3190 
Q 3341 2797 3341 1997 
z
" transform="scale(0.015625)"/>
       <path id="DejaVuSans-69" d="M 603 3500 
L 1178 3500 
L 1178 0 
L 603 0 
L 603 3500 
z
M 603 4863 
L 1178 4863 
L 1178 4134 
L 603 4134 
L 603 4863 
z
" transform="scale(0.015625)"/>
       <path id="DejaVuSans-6e" d="M 3513 2113 
L 3513 0 
L 2938 0 
L 2938 2094 
Q 2938 2591 2744 2837 
Q 2550 3084 2163 3084 
Q 1697 3084 1428 2787 
Q 1159 2491 1159 1978 
L 1159 0 
L 581 0 
L 581 3500 
L 1159 3500 
L 1159 2956 
Q 1366 3272 1645 3428 
Q 1925 3584 2291 3584 
Q 2894 3584 3203 3211 
Q 3513 2838 3513 2113 
z
" transform="scale(0.015625)"/>
      </defs>
      <use xlink:href="#DejaVuSans-53"/>
      <use xlink:href="#DejaVuSans-74" x="63.476562"/>
      <use xlink:href="#DejaVuSans-72" x="102.685547"/>
      <use xlink:href="#DejaVuSans-61" x="143.798828"/>
      <use xlink:href="#DejaVuSans-69" x="205.078125"/>
      <use xlink:href="#DejaVuSans-6e" x="232.861328"/>
     </g>
    </g>
   </g>
   <g id="matplotlib.axis_2">
    <g id="ytick_1">
     <g id="line2d_9">
      <defs>
       <path id="mbc72e1e1c8" d="M 0 0 
L -3.5 0 
" style="stroke: #000000; stroke-width: 0.8"/>
      </defs>
      <g>
       <use xlink:href="#mbc72e1e1c8" x="54" y="231.044015" style="stroke: #000000; stroke-width: 0.8"/>
      </g>
     </g>
     <g id="text_10">
      <!-- 0 -->
      <g transform="translate(40.6375 234.843234) scale(0.1 -0.1)">
       <use xlink:href="#DejaVuSans-30"/>
      </g>
     </g>
    </g>
    <g id="ytick_2">
     <g id="line2d_10">
      <g>
       <use xlink:href="#mbc72e1e1c8" x="54" y="201.112671" style="stroke: #000000; stroke-width: 0.8"/>
      </g>
     </g>
     <g id="text_11">
      <!-- 250 -->
      <g transform="translate(27.9125 204.91189) scale(0.1 -0.1)">
       <use xlink:href="#DejaVuSans-32"/>
       <use xlink:href="#DejaVuSans-35" x="63.623047"/>
       <use xlink:href="#DejaVuSans-30" x="127.246094"/>
      </g>
     </g>
    </g>
    <g id="ytick_3">
     <g id="line2d_11">
      <g>
       <use xlink:href="#mbc72e1e1c8" x="54" y="171.181328" style="stroke: #000000; stroke-width: 0.8"/>
      </g>
     </g>
     <g id="text_12">
      <!-- 500 -->
      <g transform="translate(27.9125 174.980546) scale(0.1 -0.1)">
       <use xlink:href="#DejaVuSans-35"/>
       <use xlink:href="#DejaVuSans-30" x="63.623047"/>
       <use xlink:href="#DejaVuSans-30" x="127.246094"/>
      </g>
     </g>
    </g>
    <g id="ytick_4">
     <g id="line2d_12">
      <g>
       <use xlink:href="#mbc72e1e1c8" x="54" y="141.249984" style="stroke: #000000; stroke-width: 0.8"/>
      </g>
     </g>
     <g id="text_13">
      <!-- 750 -->
      <g transform="translate(27.9125 145.049203) scale(0.1 -0.1)">
       <use xlink:href="#DejaVuSans-37"/>
       <use xlink:href="#DejaVuSans-35" x="63.623047"/>
       <use xlink:href="#DejaVuSans-30" x="127.246094"/>
      </g>
     </g>
    </g>
    <g id="ytick_5">
     <g id="line2d_13">
      <g>
       <use xlink:href="#mbc72e1e1c8" x="54" y="111.31864" style="stroke: #000000; stroke-width: 0.8"/>
      </g>
     </g>
     <g id="text_14">
      <!-- 1000 -->
      <g transform="translate(21.55 115.117859) scale(0.1 -0.1)">
       <use xlink:href="#DejaVuSans-31"/>
       <use xlink:href="#DejaVuSans-30" x="63.623047"/>
       <use xlink:href="#DejaVuSans-30" x="127.246094"/>
       <use xlink:href="#DejaVuSans-30" x="190.869141"/>
      </g>
     </g>
    </g>
    <g id="ytick_6">
     <g id="line2d_14">
      <g>
       <use xlink:href="#mbc72e1e1c8" x="54" y="81.387297" style="stroke: #000000; stroke-width: 0.8"/>
      </g>
     </g>
     <g id="text_15">
      <!-- 1250 -->
      <g transform="translate(21.55 85.186515) scale(0.1 -0.1)">
       <use xlink:href="#DejaVuSans-31"/>
       <use xlink:href="#DejaVuSans-32" x="63.623047"/>
       <use xlink:href="#DejaVuSans-35" x="127.246094"/>
       <use xlink:href="#DejaVuSans-30" x="190.869141"/>
      </g>
     </g>
    </g>
    <g id="ytick_7">
     <g id="line2d_15">
      <g>
       <use xlink:href="#mbc72e1e1c8" x="54" y="51.455953" style="stroke: #000000; stroke-width: 0.8"/>
      </g>
     </g>
     <g id="text_16">
      <!-- 1500 -->
      <g transform="translate(21.55 55.255172) scale(0.1 -0.1)">
       <use xlink:href="#DejaVuSans-31"/>
       <use xlink:href="#DejaVuSans-35" x="63.623047"/>
       <use xlink:href="#DejaVuSans-30" x="127.246094"/>
       <use xlink:href="#DejaVuSans-30" x="190.869141"/>
      </g>
     </g>
    </g>
    <g id="text_17">
     <!-- Stress [Pa] -->
     <g transform="translate(15.470312 172.147812) rotate(-90) scale(0.1 -0.1)">
      <defs>
       <path id="DejaVuSans-65" d="M 3597 1894 
L 3597 1613 
L 953 1613 
Q 991 1019 1311 708 
Q 1631 397 2203 397 
Q 2534 397 2845 478 
Q 3156 559 3463 722 
L 3463 178 
Q 3153 47 2828 -22 
Q 2503 -91 2169 -91 
Q 1331 -91 842 396 
Q 353 884 353 1716 
Q 353 2575 817 3079 
Q 1281 3584 2069 3584 
Q 2775 3584 3186 3129 
Q 3597 2675 3597 1894 
z
M 3022 2063 
Q 3016 2534 2758 2815 
Q 2500 3097 2075 3097 
Q 1594 3097 1305 2825 
Q 1016 2553 972 2059 
L 3022 2063 
z
" transform="scale(0.015625)"/>
       <path id="DejaVuSans-73" d="M 2834 3397 
L 2834 2853 
Q 2591 2978 2328 3040 
Q 2066 3103 1784 3103 
Q 1356 3103 1142 2972 
Q 928 2841 928 2578 
Q 928 2378 1081 2264 
Q 1234 2150 1697 2047 
L 1894 2003 
Q 2506 1872 2764 1633 
Q 3022 1394 3022 966 
Q 3022 478 2636 193 
Q 2250 -91 1575 -91 
Q 1294 -91 989 -36 
Q 684 19 347 128 
L 347 722 
Q 666 556 975 473 
Q 1284 391 1588 391 
Q 1994 391 2212 530 
Q 2431 669 2431 922 
Q 2431 1156 2273 1281 
Q 2116 1406 1581 1522 
L 1381 1569 
Q 847 1681 609 1914 
Q 372 2147 372 2553 
Q 372 3047 722 3315 
Q 1072 3584 1716 3584 
Q 2034 3584 2315 3537 
Q 2597 3491 2834 3397 
z
" transform="scale(0.015625)"/>
       <path id="DejaVuSans-20" transform="scale(0.015625)"/>
       <path id="DejaVuSans-5b" d="M 550 4863 
L 1875 4863 
L 1875 4416 
L 1125 4416 
L 1125 -397 
L 1875 -397 
L 1875 -844 
L 550 -844 
L 550 4863 
z
" transform="scale(0.015625)"/>
       <path id="DejaVuSans-50" d="M 1259 4147 
L 1259 2394 
L 2053 2394 
Q 2494 2394 2734 2622 
Q 2975 2850 2975 3272 
Q 2975 3691 2734 3919 
Q 2494 4147 2053 4147 
L 1259 4147 
z
M 628 4666 
L 2053 4666 
Q 2838 4666 3239 4311 
Q 3641 3956 3641 3272 
Q 3641 2581 3239 2228 
Q 2838 1875 2053 1875 
L 1259 1875 
L 1259 0 
L 628 0 
L 628 4666 
z
" transform="scale(0.015625)"/>
       <path id="DejaVuSans-5d" d="M 1947 4863 
L 1947 -844 
L 622 -844 
L 622 -397 
L 1369 -397 
L 1369 4416 
L 622 4416 
L 622 4863 
L 1947 4863 
z
" transform="scale(0.015625)"/>
      </defs>
      <use xlink:href="#DejaVuSans-53"/>
      <use xlink:href="#DejaVuSans-74" x="63.476562"/>
      <use xlink:href="#DejaVuSans-72" x="102.685547"/>
      <use xlink:href="#DejaVuSans-65" x="141.548828"/>
      <use xlink:href="#DejaVuSans-73" x="203.072266"/>
      <use xlink:href="#DejaVuSans-73" x="255.171875"/>
      <use xlink:href="#DejaVuSans-20" x="307.271484"/>
      <use xlink:href="#DejaVuSans-5b" x="339.058594"/>
      <use xlink:href="#DejaVuSans-50" x="378.072266"/>
      <use xlink:href="#DejaVuSans-61" x="433.875"/>
      <use xlink:href="#DejaVuSans-5d" x="495.154297"/>
     </g>
    </g>
   </g>
   <g id="line2d_16">
    <path d="M 69.355036 231.854348 
L 69.355036 231.936947 
L 69.355036 231.623919 
L 69.354848 231.72513 
L 69.976193 230.876005 
L 70.591927 228.994682 
L 71.237823 228.433333 
L 71.854022 228.711184 
L 72.495277 228.027559 
L 73.154628 226.797406 
L 73.826508 226.458444 
L 74.477507 226.875521 
L 75.790642 227.995127 
L 77.679607 229.14603 
L 78.29395 229.367125 
L 78.985782 229.846163 
L 79.641421 229.734007 
L 80.940636 228.169687 
L 81.596275 227.983565 
L 82.223146 228.5045 
L 82.872289 228.59637 
L 84.816702 225.654752 
L 85.454245 225.037909 
L 86.102925 224.64645 
L 89.226144 223.921517 
L 91.865869 222.250688 
L 92.530789 221.883712 
L 94.363609 221.346371 
L 95.642408 220.947278 
L 96.917958 220.16209 
L 98.138292 219.803694 
L 100.026331 218.92184 
L 101.975345 218.00393 
L 103.251359 217.741885 
L 105.872292 216.347172 
L 108.492066 215.161818 
L 109.148633 214.739063 
L 112.319645 213.448461 
L 112.933524 213.269705 
L 115.389039 212.060752 
L 118.46261 210.687998 
L 119.682943 210.010959 
L 122.887827 208.576494 
L 124.207922 207.865256 
L 126.204073 207.112121 
L 127.525559 206.387128 
L 128.850758 205.678035 
L 134.830781 202.951266 
L 136.155516 202.347168 
L 137.477003 201.559582 
L 138.806378 200.913713 
L 141.969965 199.241875 
L 144.526634 197.858644 
L 145.759496 197.317517 
L 146.99375 196.803775 
L 148.225684 196.128251 
L 149.456689 195.642587 
L 155.96297 191.924994 
L 157.183304 191.450877 
L 159.127022 190.286345 
L 160.354316 189.556177 
L 161.591818 189.022118 
L 162.833996 188.367779 
L 164.689089 187.582338 
L 166.629558 186.431182 
L 167.962181 185.675019 
L 170.623251 184.085838 
L 172.625434 183.016458 
L 175.177462 181.497064 
L 180.123294 179.062626 
L 181.349659 178.308229 
L 182.574633 177.745018 
L 184.519279 176.444195 
L 187.013771 175.103494 
L 189.679017 173.568199 
L 193.351422 171.609065 
L 194.5815 170.841039 
L 199.474899 167.870523 
L 200.703121 167.2981 
L 202.593478 166.119308 
L 203.925173 165.271274 
L 206.582067 163.665436 
L 207.913762 162.953188 
L 210.966452 161.290436 
L 212.239682 160.637248 
L 213.560241 159.619607 
L 223.86455 153.608276 
L 226.513092 151.899463 
L 227.841538 151.229364 
L 233.120062 147.652983 
L 235.670698 146.213471 
L 236.946713 145.377678 
L 238.283048 144.403701 
L 242.169555 141.921561 
L 244.834337 140.468925 
L 250.124924 136.84888 
L 252.734954 135.385517 
L 265.651568 126.713085 
L 266.983263 125.736079 
L 269.646189 124.14223 
L 270.966284 123.099603 
L 271.627955 122.538285 
L 274.963689 120.371886 
L 276.19191 119.571302 
L 278.049323 118.522491 
L 282.347403 115.241912 
L 285.410577 113.279864 
L 287.240614 112.074949 
L 298.193921 103.940891 
L 299.425855 102.928803 
L 303.125832 100.42685 
L 310.2794 94.958806 
L 313.937168 92.263018 
L 315.770192 90.768705 
L 321.294637 86.659779 
L 323.747369 84.610111 
L 326.19082 82.806778 
L 329.50521 80.447931 
L 332.795703 77.609541 
L 334.791853 76.207509 
L 339.421233 72.516038 
L 341.412279 70.759396 
L 343.356461 69.295528 
L 368.57352 48.047326 
L 369.864382 47.29293 
L 371.134133 46.669145 
L 372.390775 45.876132 
L 373.003088 45.263138 
L 373.315943 44.64 
L 373.581818 45.257285 
L 373.446039 69.283682 
L 373.442588 69.128919 
L 372.832189 69.356623 
L 371.593237 71.950635 
L 370.968918 72.160561 
L 370.319543 71.974296 
L 369.048864 72.363515 
L 368.419064 72.646398 
L 367.794745 72.705094 
L 367.15349 73.136178 
L 366.523835 72.97225 
L 365.268933 75.693783 
L 362.747297 78.745001 
L 362.099081 78.562049 
L 360.837683 79.10958 
L 360.20594 79.68806 
L 359.597165 79.925545 
L 358.353515 82.797187 
L 357.7285 83.353204 
L 355.870275 84.27492 
L 352.738124 87.362041 
L 352.119605 87.835085 
L 350.264107 89.749992 
L 349.65162 90.32191 
L 348.419686 91.162688 
L 345.299715 94.12437 
L 343.430818 95.575871 
L 342.18624 96.846912 
L 339.710308 98.864842 
L 335.991625 101.964598 
L 328.544226 108.123444 
L 326.686349 109.691802 
L 324.822672 110.971929 
L 323.554546 112.167001 
L 322.919091 112.581175 
L 321.670221 113.787351 
L 319.803818 115.093278 
L 316.697883 117.666783 
L 315.456901 118.360164 
L 312.337974 120.922249 
L 310.476965 122.438614 
L 308.618392 123.697414 
L 307.353746 124.768057 
L 306.720147 125.38793 
L 303.618838 127.434348 
L 302.370548 128.648601 
L 301.109614 129.315292 
L 300.479958 129.613744 
L 299.844619 130.038897 
L 298.577537 131.357766 
L 297.94939 131.87195 
L 296.097081 132.89325 
L 294.845195 133.903824 
L 293.592845 134.874457 
L 290.504601 136.694606 
L 288.013589 138.588485 
L 286.781887 139.584294 
L 283.042817 141.908374 
L 281.15536 143.277848 
L 278.048845 145.362093 
L 276.170436 146.651937 
L 274.926554 147.329276 
L 268.702852 151.503193 
L 258.762932 157.767231 
L 257.539351 158.3406 
L 255.656069 159.696319 
L 253.7678 160.851323 
L 250.676366 162.619228 
L 249.425176 163.366873 
L 247.557323 164.69344 
L 245.686222 165.527435 
L 243.796763 166.744606 
L 240.658 168.675713 
L 239.425834 169.348651 
L 238.1591 170.169931 
L 236.91835 170.937074 
L 234.449031 172.283832 
L 233.211761 173.129973 
L 231.951987 173.618192 
L 228.832828 175.601678 
L 228.217325 175.821258 
L 226.984927 176.61995 
L 223.87934 178.284847 
L 218.886644 181.016381 
L 217.613414 181.799172 
L 216.389832 182.425669 
L 213.917308 183.726595 
L 212.030663 184.809858 
L 210.147729 185.520812 
L 208.280224 186.839365 
L 206.432788 187.693804 
L 203.945024 189.283173 
L 202.721906 189.815403 
L 193.32438 194.688593 
L 192.066577 195.222747 
L 190.201741 196.254521 
L 188.975839 196.71381 
L 187.082002 197.751326 
L 186.453043 198.216167 
L 180.837608 200.829144 
L 180.202501 201.456841 
L 179.565422 201.737847 
L 178.293583 202.07747 
L 175.788187 203.35072 
L 174.554165 203.642165 
L 173.920102 203.882812 
L 172.068374 205.040214 
L 169.59105 206.093315 
L 168.981115 206.505218 
L 167.122528 207.244116 
L 164.613999 208.638261 
L 163.360257 209.0554 
L 160.21871 210.699255 
L 159.604367 210.9112 
L 158.377305 211.515235 
L 156.482772 212.299161 
L 153.388597 213.676712 
L 152.115599 214.254435 
L 149.607303 215.424108 
L 148.362377 215.961386 
L 145.858605 217.021491 
L 144.632007 217.627577 
L 142.148187 218.754629 
L 141.525144 219.153533 
L 137.786763 220.607844 
L 136.536385 221.321984 
L 135.288907 221.76665 
L 134.062077 222.088259 
L 132.816571 222.78937 
L 131.586377 223.433977 
L 129.721308 224.069671 
L 127.839071 225.037528 
L 125.363371 226.072047 
L 119.762984 228.346907 
L 118.513418 228.994605 
L 116.650669 229.499655 
L 115.391707 230.119023 
L 114.137965 230.807798 
L 112.279392 231.341668 
L 111.010802 231.944977 
L 109.77214 232.341437 
L 108.542758 232.727406 
L 107.274255 233.514012 
L 106.656432 233.833855 
L 105.398978 234.084613 
L 104.786259 234.152096 
L 102.283183 235.331267 
L 100.393058 235.700629 
L 98.518359 236.847305 
L 97.273665 237.160227 
L 96.64865 237.275506 
L 95.39978 237.842881 
L 94.154622 238.403316 
L 91.662225 239.022825 
L 89.771636 239.94731 
L 88.533902 240.277469 
L 87.28828 240.653721 
L 86.661873 240.847502 
L 86.03593 241.217886 
L 83.553734 242.088692 
L 82.936376 242.213673 
L 79.774876 243.443514 
L 73.48684 245.391759 
L 72.225094 245.8684 
L 70.980632 245.848252 
L 70.355501 245.697566 
L 69.738258 245.740621 
L 69.388079 246.161254 
L 69.357599 246.24 
L 69.218612 244.947062 
L 69.218612 244.947062 
" clip-path="url(#pb09d98f386)" style="fill: none; stroke: #ff0000; stroke-width: 1.5; stroke-linecap: square"/>
   </g>
   <g id="line2d_17">
    <path d="M 69.355036 231.854348 
L 69.355036 231.936947 
L 69.355036 231.623919 
L 69.354848 231.72513 
L 69.976193 230.876005 
L 70.591927 228.994682 
L 71.237823 228.433333 
L 71.854022 228.711184 
L 72.495277 230.382257 
L 73.154628 228.513191 
L 73.826508 227.592216 
L 75.172123 227.833628 
L 75.790642 227.997241 
L 77.679607 229.14603 
L 78.29395 229.367125 
L 78.985782 229.846163 
L 79.641421 229.734007 
L 80.940636 228.169687 
L 81.596275 227.983565 
L 82.223146 228.5045 
L 82.872289 228.59637 
L 84.816702 225.654752 
L 85.454245 225.037909 
L 86.102925 224.64645 
L 89.226144 223.921517 
L 91.865869 222.250688 
L 92.530789 221.883712 
L 94.363609 221.346371 
L 95.642408 220.947278 
L 96.917958 220.16209 
L 98.138292 219.803694 
L 100.026331 218.92184 
L 101.975345 218.00393 
L 103.251359 217.741885 
L 105.872292 216.347172 
L 108.492066 215.161818 
L 109.148633 214.739063 
L 112.319645 213.448461 
L 112.933524 213.269705 
L 115.389039 212.060752 
L 118.46261 210.687998 
L 119.682943 210.010959 
L 122.887827 208.576494 
L 124.207922 207.865256 
L 126.204073 207.112121 
L 127.525559 206.387128 
L 128.850758 205.678035 
L 134.830781 202.951266 
L 136.155516 202.347168 
L 137.477003 201.559582 
L 138.806378 200.913713 
L 141.969965 199.241875 
L 144.526634 197.858644 
L 145.759496 197.317517 
L 146.99375 196.803775 
L 148.225684 196.128251 
L 149.456689 195.642587 
L 155.96297 191.924994 
L 157.183304 191.450877 
L 159.127022 190.286345 
L 160.354316 189.556177 
L 161.591818 189.022118 
L 162.833996 188.367779 
L 164.689089 187.582338 
L 166.629558 186.431182 
L 167.962181 185.675019 
L 170.623251 184.085838 
L 172.625434 183.016458 
L 175.177462 181.497064 
L 180.123294 179.062626 
L 181.349659 178.308229 
L 182.574633 177.745018 
L 184.519279 176.444195 
L 187.013771 175.103494 
L 189.679017 173.568199 
L 193.351422 171.609065 
L 194.5815 170.841039 
L 199.474899 167.870523 
L 200.703121 167.2981 
L 202.593478 166.119308 
L 203.925173 165.271274 
L 206.582067 163.665436 
L 207.913762 162.953188 
L 210.966452 161.290436 
L 212.239682 160.637248 
L 213.560241 159.619607 
L 223.86455 153.608276 
L 226.513092 151.899463 
L 227.841538 151.229364 
L 233.120062 147.652983 
L 235.670698 146.213471 
L 236.946713 145.377678 
L 238.283048 144.403701 
L 242.169555 141.921561 
L 244.834337 140.468925 
L 250.124924 136.84888 
L 252.734954 135.385517 
L 265.651568 126.713085 
L 266.983263 125.736079 
L 269.646189 124.14223 
L 270.966284 123.099603 
L 271.627955 122.538285 
L 274.963689 120.371886 
L 276.19191 119.571302 
L 278.049323 118.522491 
L 282.347403 115.241912 
L 285.410577 113.279864 
L 287.240614 112.074949 
L 298.193921 103.940891 
L 299.425855 102.928803 
L 303.125832 100.42685 
L 310.2794 94.958806 
L 313.937168 92.263018 
L 315.770192 90.768705 
L 321.294637 86.659779 
L 323.747369 84.610111 
L 326.19082 82.806778 
L 329.50521 80.447931 
L 332.795703 77.609541 
L 334.791853 76.207509 
L 339.421233 72.516038 
L 341.412279 70.759396 
L 343.356461 69.295528 
L 368.57352 48.047326 
L 369.864382 47.29293 
L 371.134133 46.669145 
L 372.390775 45.876132 
L 373.003088 45.263138 
L 373.315943 44.64 
L 373.581818 45.257285 
L 373.446039 69.283682 
L 373.442588 69.128919 
L 372.832189 69.356623 
L 372.20816 70.820382 
L 371.593237 71.950635 
L 370.968918 72.160561 
L 370.319543 71.974296 
L 369.048864 72.363515 
L 368.419064 72.646398 
L 367.794745 72.705094 
L 367.15349 73.136178 
L 366.523835 72.97225 
L 365.268933 75.693783 
L 362.747297 78.745001 
L 362.099081 78.562049 
L 360.837683 79.10958 
L 360.20594 79.68806 
L 359.597165 79.925545 
L 358.353515 82.797187 
L 357.7285 83.353204 
L 355.870275 84.27492 
L 352.738124 87.362041 
L 352.119605 87.835085 
L 350.264107 89.749992 
L 349.65162 90.32191 
L 348.419686 91.162688 
L 345.299715 94.12437 
L 343.430818 95.575871 
L 342.18624 96.846912 
L 339.710308 98.864842 
L 335.991625 101.964598 
L 328.544226 108.123444 
L 326.686349 109.691802 
L 324.822672 110.971929 
L 323.554546 112.167001 
L 322.919091 112.581175 
L 321.670221 113.787351 
L 319.803818 115.093278 
L 316.697883 117.666783 
L 315.456901 118.360164 
L 312.337974 120.922249 
L 310.476965 122.438614 
L 308.618392 123.697414 
L 307.353746 124.768057 
L 306.720147 125.38793 
L 303.618838 127.434348 
L 302.370548 128.648601 
L 301.109614 129.315292 
L 300.479958 129.613744 
L 299.844619 130.038897 
L 298.577537 131.357766 
L 297.94939 131.87195 
L 296.097081 132.89325 
L 294.845195 133.903824 
L 293.592845 134.874457 
L 290.504601 136.694606 
L 288.013589 138.588485 
L 286.781887 139.584294 
L 283.042817 141.908374 
L 281.15536 143.277848 
L 278.048845 145.362093 
L 276.170436 146.651937 
L 274.926554 147.329276 
L 268.702852 151.503193 
L 258.762932 157.767231 
L 257.539351 158.3406 
L 255.656069 159.696319 
L 253.7678 160.851323 
L 250.676366 162.619228 
L 249.425176 163.366873 
L 247.557323 164.69344 
L 245.686222 165.527435 
L 243.796763 166.744606 
L 240.658 168.675713 
L 239.425834 169.348651 
L 238.1591 170.169931 
L 236.91835 170.937074 
L 234.449031 172.283832 
L 233.211761 173.129973 
L 231.951987 173.618192 
L 228.832828 175.601678 
L 228.217325 175.821258 
L 226.984927 176.61995 
L 223.87934 178.284847 
L 218.886644 181.016381 
L 217.613414 181.799172 
L 216.389832 182.425669 
L 213.917308 183.726595 
L 212.030663 184.809858 
L 210.147729 185.520812 
L 208.280224 186.839365 
L 206.432788 187.693804 
L 203.945024 189.283173 
L 202.721906 189.815403 
L 193.32438 194.688593 
L 192.066577 195.222747 
L 190.201741 196.254521 
L 188.975839 196.71381 
L 187.082002 197.751326 
L 186.453043 198.216167 
L 180.837608 200.829144 
L 180.202501 201.456841 
L 179.565422 201.737847 
L 178.293583 202.07747 
L 175.788187 203.35072 
L 174.554165 203.642165 
L 173.920102 203.882812 
L 172.068374 205.040214 
L 169.59105 206.093315 
L 168.981115 206.505218 
L 167.122528 207.244116 
L 164.613999 208.638261 
L 163.360257 209.0554 
L 160.21871 210.699255 
L 159.604367 210.9112 
L 158.377305 211.515235 
L 156.482772 212.299161 
L 153.388597 213.676712 
L 152.115599 214.254435 
L 149.607303 215.424108 
L 148.362377 215.961386 
L 145.858605 217.021491 
L 144.632007 217.627577 
L 142.148187 218.754629 
L 141.525144 219.153533 
L 137.786763 220.607844 
L 136.536385 221.321984 
L 135.288907 221.76665 
L 134.062077 222.088259 
L 132.816571 222.78937 
L 131.586377 223.433977 
L 129.721308 224.069671 
L 127.839071 225.037528 
L 125.363371 226.072047 
L 119.762984 228.346907 
L 118.513418 228.994605 
L 116.650669 229.499655 
L 115.391707 230.119023 
L 114.137965 230.807798 
L 112.279392 231.341668 
L 111.010802 231.944977 
L 109.77214 232.341437 
L 108.542758 232.727406 
L 107.274255 233.514012 
L 106.656432 233.833855 
L 105.398978 234.084613 
L 104.786259 234.152096 
L 102.283183 235.331267 
L 100.393058 235.700629 
L 98.518359 236.847305 
L 97.273665 237.160227 
L 96.64865 237.275506 
L 95.39978 237.842881 
L 94.154622 238.403316 
L 91.662225 239.022825 
L 89.771636 239.94731 
L 88.533902 240.277469 
L 87.28828 240.653721 
L 86.661873 240.847502 
L 86.03593 241.217886 
L 83.553734 242.088692 
L 82.936376 242.213673 
L 79.774876 243.443514 
L 73.48684 245.391759 
L 72.225094 245.8684 
L 70.980632 245.848252 
L 70.355501 245.697566 
L 69.738258 245.740621 
L 69.388079 246.161254 
L 69.357599 246.24 
L 69.218612 244.947062 
L 69.218612 244.947062 
" clip-path="url(#pb09d98f386)" style="fill: none; stroke: #000000; stroke-width: 1.5; stroke-linecap: square"/>
   </g>
   <g id="patch_3">
    <path d="M 54 256.32 
L 54 34.56 
" style="fill: none; stroke: #000000; stroke-width: 0.8; stroke-linejoin: miter; stroke-linecap: square"/>
   </g>
   <g id="patch_4">
    <path d="M 388.8 256.32 
L 388.8 34.56 
" style="fill: none; stroke: #000000; stroke-width: 0.8; stroke-linejoin: miter; stroke-linecap: square"/>
   </g>
   <g id="patch_5">
    <path d="M 54 256.32 
L 388.8 256.32 
" style="fill: none; stroke: #000000; stroke-width: 0.8; stroke-linejoin: miter; stroke-linecap: square"/>
   </g>
   <g id="patch_6">
    <path d="M 54 34.56 
L 388.8 34.56 
" style="fill: none; stroke: #000000; stroke-width: 0.8; stroke-linejoin: miter; stroke-linecap: square"/>
   </g>
   <g id="text_18">
    <!-- 2025-07-03 trial 17 -->
    <g transform="translate(163.2525 28.56) scale(0.12 -0.12)">
     <defs>
      <path id="DejaVuSans-2d" d="M 313 2009 
L 1997 2009 
L 1997 1497 
L 313 1497 
L 313 2009 
z
" transform="scale(0.015625)"/>
      <path id="DejaVuSans-33" d="M 2597 2516 
Q 3050 2419 3304 2112 
Q 3559 1806 3559 1356 
Q 3559 666 3084 287 
Q 2609 -91 1734 -91 
Q 1441 -91 1130 -33 
Q 819 25 488 141 
L 488 750 
Q 750 597 1062 519 
Q 1375 441 1716 441 
Q 2309 441 2620 675 
Q 2931 909 2931 1356 
Q 2931 1769 2642 2001 
Q 2353 2234 1838 2234 
L 1294 2234 
L 1294 2753 
L 1863 2753 
Q 2328 2753 2575 2939 
Q 2822 3125 2822 3475 
Q 2822 3834 2567 4026 
Q 2313 4219 1838 4219 
Q 1578 4219 1281 4162 
Q 984 4106 628 3988 
L 628 4550 
Q 988 4650 1302 4700 
Q 1616 4750 1894 4750 
Q 2613 4750 3031 4423 
Q 3450 4097 3450 3541 
Q 3450 3153 3228 2886 
Q 3006 2619 2597 2516 
z
" transform="scale(0.015625)"/>
      <path id="DejaVuSans-6c" d="M 603 4863 
L 1178 4863 
L 1178 0 
L 603 0 
L 603 4863 
z
" transform="scale(0.015625)"/>
     </defs>
     <use xlink:href="#DejaVuSans-32"/>
     <use xlink:href="#DejaVuSans-30" x="63.623047"/>
     <use xlink:href="#DejaVuSans-32" x="127.246094"/>
     <use xlink:href="#DejaVuSans-35" x="190.869141"/>
     <use xlink:href="#DejaVuSans-2d" x="254.492188"/>
     <use xlink:href="#DejaVuSans-30" x="290.576172"/>
     <use xlink:href="#DejaVuSans-37" x="354.199219"/>
     <use xlink:href="#DejaVuSans-2d" x="417.822266"/>
     <use xlink:href="#DejaVuSans-30" x="453.90625"/>
     <use xlink:href="#DejaVuSans-33" x="517.529297"/>
     <use xlink:href="#DejaVuSans-20" x="581.152344"/>
     <use xlink:href="#DejaVuSans-74" x="612.939453"/>
     <use xlink:href="#DejaVuSans-72" x="652.148438"/>
     <use xlink:href="#DejaVuSans-69" x="693.261719"/>
     <use xlink:href="#DejaVuSans-61" x="721.044922"/>
     <use xlink:href="#DejaVuSans-6c" x="782.324219"/>
     <use xlink:href="#DejaVuSans-20" x="810.107422"/>
     <use xlink:href="#DejaVuSans-31" x="841.894531"/>
     <use xlink:href="#DejaVuSans-37" x="905.517578"/>
    </g>
   </g>
  </g>
 </g>
 <defs>
  <clipPath id="pb09d98f386">
   <rect x="54" y="34.56" width="334.8" height="221.76"/>
  </clipPath>
 </defs>
</svg>
