<?xml version="1.0" encoding="utf-8" standalone="no"?>
<!DOCTYPE svg PUBLIC "-//W3C//DTD SVG 1.1//EN"
  "http://www.w3.org/Graphics/SVG/1.1/DTD/svg11.dtd">
<svg xmlns:xlink="http://www.w3.org/1999/xlink" width="460.8pt" height="345.6pt" viewBox="0 0 460.8 345.6" xmlns="http://www.w3.org/2000/svg" version="1.1">
 <metadata>
  <rdf:RDF xmlns:dc="http://purl.org/dc/elements/1.1/" xmlns:cc="http://creativecommons.org/ns#" xmlns:rdf="http://www.w3.org/1999/02/22-rdf-syntax-ns#">
   <cc:Work>
    <dc:type rdf:resource="http://purl.org/dc/dcmitype/StillImage"/>
    <dc:date>2025-07-16T22:12:34.090970</dc:date>
    <dc:format>image/svg+xml</dc:format>
    <dc:creator>
     <cc:Agent>
      <dc:title>Matplotlib v3.10.3, https://matplotlib.org/</dc:title>
     </cc:Agent>
    </dc:creator>
   </cc:Work>
  </rdf:RDF>
 </metadata>
 <defs>
  <style type="text/css">*{stroke-linejoin: round; stroke-linecap: butt}</style>
 </defs>
 <g id="figure_1">
  <g id="patch_1">
   <path d="M 0 345.6 
L 460.8 345.6 
L 460.8 0 
L 0 0 
z
" style="fill: #ffffff"/>
  </g>
  <g id="axes_1">
   <g id="patch_2">
    <path d="M 57.6 307.584 
L 414.72 307.584 
L 414.72 41.472 
L 57.6 41.472 
z
" style="fill: #ffffff"/>
   </g>
   <g id="matplotlib.axis_1">
    <g id="xtick_1">
     <g id="line2d_1">
      <defs>
       <path id="ma080fddfe6" d="M 0 0 
L 0 3.5 
" style="stroke: #000000; stroke-width: 0.8"/>
      </defs>
      <g>
       <use xlink:href="#ma080fddfe6" x="73.933039" y="307.584" style="stroke: #000000; stroke-width: 0.8"/>
      </g>
     </g>
     <g id="text_1">
      <!-- 0.00 -->
      <g transform="translate(62.800227 322.182437) scale(0.1 -0.1)">
       <defs>
        <path id="DejaVuSans-30" d="M 2034 4250 
Q 1547 4250 1301 3770 
Q 1056 3291 1056 2328 
Q 1056 1369 1301 889 
Q 1547 409 2034 409 
Q 2525 409 2770 889 
Q 3016 1369 3016 2328 
Q 3016 3291 2770 3770 
Q 2525 4250 2034 4250 
z
M 2034 4750 
Q 2819 4750 3233 4129 
Q 3647 3509 3647 2328 
Q 3647 1150 3233 529 
Q 2819 -91 2034 -91 
Q 1250 -91 836 529 
Q 422 1150 422 2328 
Q 422 3509 836 4129 
Q 1250 4750 2034 4750 
z
" transform="scale(0.015625)"/>
        <path id="DejaVuSans-2e" d="M 684 794 
L 1344 794 
L 1344 0 
L 684 0 
L 684 794 
z
" transform="scale(0.015625)"/>
       </defs>
       <use xlink:href="#DejaVuSans-30"/>
       <use xlink:href="#DejaVuSans-2e" transform="translate(63.623047 0)"/>
       <use xlink:href="#DejaVuSans-30" transform="translate(95.410156 0)"/>
       <use xlink:href="#DejaVuSans-30" transform="translate(159.033203 0)"/>
      </g>
     </g>
    </g>
    <g id="xtick_2">
     <g id="line2d_2">
      <g>
       <use xlink:href="#ma080fddfe6" x="138.812401" y="307.584" style="stroke: #000000; stroke-width: 0.8"/>
      </g>
     </g>
     <g id="text_2">
      <!-- 0.05 -->
      <g transform="translate(127.679589 322.182437) scale(0.1 -0.1)">
       <defs>
        <path id="DejaVuSans-35" d="M 691 4666 
L 3169 4666 
L 3169 4134 
L 1269 4134 
L 1269 2991 
Q 1406 3038 1543 3061 
Q 1681 3084 1819 3084 
Q 2600 3084 3056 2656 
Q 3513 2228 3513 1497 
Q 3513 744 3044 326 
Q 2575 -91 1722 -91 
Q 1428 -91 1123 -41 
Q 819 9 494 109 
L 494 744 
Q 775 591 1075 516 
Q 1375 441 1709 441 
Q 2250 441 2565 725 
Q 2881 1009 2881 1497 
Q 2881 1984 2565 2268 
Q 2250 2553 1709 2553 
Q 1456 2553 1204 2497 
Q 953 2441 691 2322 
L 691 4666 
z
" transform="scale(0.015625)"/>
       </defs>
       <use xlink:href="#DejaVuSans-30"/>
       <use xlink:href="#DejaVuSans-2e" transform="translate(63.623047 0)"/>
       <use xlink:href="#DejaVuSans-30" transform="translate(95.410156 0)"/>
       <use xlink:href="#DejaVuSans-35" transform="translate(159.033203 0)"/>
      </g>
     </g>
    </g>
    <g id="xtick_3">
     <g id="line2d_3">
      <g>
       <use xlink:href="#ma080fddfe6" x="203.691763" y="307.584" style="stroke: #000000; stroke-width: 0.8"/>
      </g>
     </g>
     <g id="text_3">
      <!-- 0.10 -->
      <g transform="translate(192.55895 322.182437) scale(0.1 -0.1)">
       <defs>
        <path id="DejaVuSans-31" d="M 794 531 
L 1825 531 
L 1825 4091 
L 703 3866 
L 703 4441 
L 1819 4666 
L 2450 4666 
L 2450 531 
L 3481 531 
L 3481 0 
L 794 0 
L 794 531 
z
" transform="scale(0.015625)"/>
       </defs>
       <use xlink:href="#DejaVuSans-30"/>
       <use xlink:href="#DejaVuSans-2e" transform="translate(63.623047 0)"/>
       <use xlink:href="#DejaVuSans-31" transform="translate(95.410156 0)"/>
       <use xlink:href="#DejaVuSans-30" transform="translate(159.033203 0)"/>
      </g>
     </g>
    </g>
    <g id="xtick_4">
     <g id="line2d_4">
      <g>
       <use xlink:href="#ma080fddfe6" x="268.571125" y="307.584" style="stroke: #000000; stroke-width: 0.8"/>
      </g>
     </g>
     <g id="text_4">
      <!-- 0.15 -->
      <g transform="translate(257.438312 322.182437) scale(0.1 -0.1)">
       <use xlink:href="#DejaVuSans-30"/>
       <use xlink:href="#DejaVuSans-2e" transform="translate(63.623047 0)"/>
       <use xlink:href="#DejaVuSans-31" transform="translate(95.410156 0)"/>
       <use xlink:href="#DejaVuSans-35" transform="translate(159.033203 0)"/>
      </g>
     </g>
    </g>
    <g id="xtick_5">
     <g id="line2d_5">
      <g>
       <use xlink:href="#ma080fddfe6" x="333.450486" y="307.584" style="stroke: #000000; stroke-width: 0.8"/>
      </g>
     </g>
     <g id="text_5">
      <!-- 0.20 -->
      <g transform="translate(322.317674 322.182437) scale(0.1 -0.1)">
       <defs>
        <path id="DejaVuSans-32" d="M 1228 531 
L 3431 531 
L 3431 0 
L 469 0 
L 469 531 
Q 828 903 1448 1529 
Q 2069 2156 2228 2338 
Q 2531 2678 2651 2914 
Q 2772 3150 2772 3378 
Q 2772 3750 2511 3984 
Q 2250 4219 1831 4219 
Q 1534 4219 1204 4116 
Q 875 4013 500 3803 
L 500 4441 
Q 881 4594 1212 4672 
Q 1544 4750 1819 4750 
Q 2544 4750 2975 4387 
Q 3406 4025 3406 3419 
Q 3406 3131 3298 2873 
Q 3191 2616 2906 2266 
Q 2828 2175 2409 1742 
Q 1991 1309 1228 531 
z
" transform="scale(0.015625)"/>
       </defs>
       <use xlink:href="#DejaVuSans-30"/>
       <use xlink:href="#DejaVuSans-2e" transform="translate(63.623047 0)"/>
       <use xlink:href="#DejaVuSans-32" transform="translate(95.410156 0)"/>
       <use xlink:href="#DejaVuSans-30" transform="translate(159.033203 0)"/>
      </g>
     </g>
    </g>
    <g id="xtick_6">
     <g id="line2d_6">
      <g>
       <use xlink:href="#ma080fddfe6" x="398.329848" y="307.584" style="stroke: #000000; stroke-width: 0.8"/>
      </g>
     </g>
     <g id="text_6">
      <!-- 0.25 -->
      <g transform="translate(387.197036 322.182437) scale(0.1 -0.1)">
       <use xlink:href="#DejaVuSans-30"/>
       <use xlink:href="#DejaVuSans-2e" transform="translate(63.623047 0)"/>
       <use xlink:href="#DejaVuSans-32" transform="translate(95.410156 0)"/>
       <use xlink:href="#DejaVuSans-35" transform="translate(159.033203 0)"/>
      </g>
     </g>
    </g>
    <g id="text_7">
     <!-- Strain -->
     <g transform="translate(221.348281 335.860562) scale(0.1 -0.1)">
      <defs>
       <path id="DejaVuSans-53" d="M 3425 4513 
L 3425 3897 
Q 3066 4069 2747 4153 
Q 2428 4238 2131 4238 
Q 1616 4238 1336 4038 
Q 1056 3838 1056 3469 
Q 1056 3159 1242 3001 
Q 1428 2844 1947 2747 
L 2328 2669 
Q 3034 2534 3370 2195 
Q 3706 1856 3706 1288 
Q 3706 609 3251 259 
Q 2797 -91 1919 -91 
Q 1588 -91 1214 -16 
Q 841 59 441 206 
L 441 856 
Q 825 641 1194 531 
Q 1563 422 1919 422 
Q 2459 422 2753 634 
Q 3047 847 3047 1241 
Q 3047 1584 2836 1778 
Q 2625 1972 2144 2069 
L 1759 2144 
Q 1053 2284 737 2584 
Q 422 2884 422 3419 
Q 422 4038 858 4394 
Q 1294 4750 2059 4750 
Q 2388 4750 2728 4690 
Q 3069 4631 3425 4513 
z
" transform="scale(0.015625)"/>
       <path id="DejaVuSans-74" d="M 1172 4494 
L 1172 3500 
L 2356 3500 
L 2356 3053 
L 1172 3053 
L 1172 1153 
Q 1172 725 1289 603 
Q 1406 481 1766 481 
L 2356 481 
L 2356 0 
L 1766 0 
Q 1100 0 847 248 
Q 594 497 594 1153 
L 594 3053 
L 172 3053 
L 172 3500 
L 594 3500 
L 594 4494 
L 1172 4494 
z
" transform="scale(0.015625)"/>
       <path id="DejaVuSans-72" d="M 2631 2963 
Q 2534 3019 2420 3045 
Q 2306 3072 2169 3072 
Q 1681 3072 1420 2755 
Q 1159 2438 1159 1844 
L 1159 0 
L 581 0 
L 581 3500 
L 1159 3500 
L 1159 2956 
Q 1341 3275 1631 3429 
Q 1922 3584 2338 3584 
Q 2397 3584 2469 3576 
Q 2541 3569 2628 3553 
L 2631 2963 
z
" transform="scale(0.015625)"/>
       <path id="DejaVuSans-61" d="M 2194 1759 
Q 1497 1759 1228 1600 
Q 959 1441 959 1056 
Q 959 750 1161 570 
Q 1363 391 1709 391 
Q 2188 391 2477 730 
Q 2766 1069 2766 1631 
L 2766 1759 
L 2194 1759 
z
M 3341 1997 
L 3341 0 
L 2766 0 
L 2766 531 
Q 2569 213 2275 61 
Q 1981 -91 1556 -91 
Q 1019 -91 701 211 
Q 384 513 384 1019 
Q 384 1609 779 1909 
Q 1175 2209 1959 2209 
L 2766 2209 
L 2766 2266 
Q 2766 2663 2505 2880 
Q 2244 3097 1772 3097 
Q 1472 3097 1187 3025 
Q 903 2953 641 2809 
L 641 3341 
Q 956 3463 1253 3523 
Q 1550 3584 1831 3584 
Q 2591 3584 2966 3190 
Q 3341 2797 3341 1997 
z
" transform="scale(0.015625)"/>
       <path id="DejaVuSans-69" d="M 603 3500 
L 1178 3500 
L 1178 0 
L 603 0 
L 603 3500 
z
M 603 4863 
L 1178 4863 
L 1178 4134 
L 603 4134 
L 603 4863 
z
" transform="scale(0.015625)"/>
       <path id="DejaVuSans-6e" d="M 3513 2113 
L 3513 0 
L 2938 0 
L 2938 2094 
Q 2938 2591 2744 2837 
Q 2550 3084 2163 3084 
Q 1697 3084 1428 2787 
Q 1159 2491 1159 1978 
L 1159 0 
L 581 0 
L 581 3500 
L 1159 3500 
L 1159 2956 
Q 1366 3272 1645 3428 
Q 1925 3584 2291 3584 
Q 2894 3584 3203 3211 
Q 3513 2838 3513 2113 
z
" transform="scale(0.015625)"/>
      </defs>
      <use xlink:href="#DejaVuSans-53"/>
      <use xlink:href="#DejaVuSans-74" transform="translate(63.476562 0)"/>
      <use xlink:href="#DejaVuSans-72" transform="translate(102.685547 0)"/>
      <use xlink:href="#DejaVuSans-61" transform="translate(143.798828 0)"/>
      <use xlink:href="#DejaVuSans-69" transform="translate(205.078125 0)"/>
      <use xlink:href="#DejaVuSans-6e" transform="translate(232.861328 0)"/>
     </g>
    </g>
   </g>
   <g id="matplotlib.axis_2">
    <g id="ytick_1">
     <g id="line2d_7">
      <defs>
       <path id="m3536c03961" d="M 0 0 
L -3.5 0 
" style="stroke: #000000; stroke-width: 0.8"/>
      </defs>
      <g>
       <use xlink:href="#m3536c03961" x="57.6" y="283.662147" style="stroke: #000000; stroke-width: 0.8"/>
      </g>
     </g>
     <g id="text_8">
      <!-- 0 -->
      <g transform="translate(44.2375 287.461366) scale(0.1 -0.1)">
       <use xlink:href="#DejaVuSans-30"/>
      </g>
     </g>
    </g>
    <g id="ytick_2">
     <g id="line2d_8">
      <g>
       <use xlink:href="#m3536c03961" x="57.6" y="239.224444" style="stroke: #000000; stroke-width: 0.8"/>
      </g>
     </g>
     <g id="text_9">
      <!-- 500 -->
      <g transform="translate(31.5125 243.023663) scale(0.1 -0.1)">
       <use xlink:href="#DejaVuSans-35"/>
       <use xlink:href="#DejaVuSans-30" transform="translate(63.623047 0)"/>
       <use xlink:href="#DejaVuSans-30" transform="translate(127.246094 0)"/>
      </g>
     </g>
    </g>
    <g id="ytick_3">
     <g id="line2d_9">
      <g>
       <use xlink:href="#m3536c03961" x="57.6" y="194.786741" style="stroke: #000000; stroke-width: 0.8"/>
      </g>
     </g>
     <g id="text_10">
      <!-- 1000 -->
      <g transform="translate(25.15 198.58596) scale(0.1 -0.1)">
       <use xlink:href="#DejaVuSans-31"/>
       <use xlink:href="#DejaVuSans-30" transform="translate(63.623047 0)"/>
       <use xlink:href="#DejaVuSans-30" transform="translate(127.246094 0)"/>
       <use xlink:href="#DejaVuSans-30" transform="translate(190.869141 0)"/>
      </g>
     </g>
    </g>
    <g id="ytick_4">
     <g id="line2d_10">
      <g>
       <use xlink:href="#m3536c03961" x="57.6" y="150.349038" style="stroke: #000000; stroke-width: 0.8"/>
      </g>
     </g>
     <g id="text_11">
      <!-- 1500 -->
      <g transform="translate(25.15 154.148257) scale(0.1 -0.1)">
       <use xlink:href="#DejaVuSans-31"/>
       <use xlink:href="#DejaVuSans-35" transform="translate(63.623047 0)"/>
       <use xlink:href="#DejaVuSans-30" transform="translate(127.246094 0)"/>
       <use xlink:href="#DejaVuSans-30" transform="translate(190.869141 0)"/>
      </g>
     </g>
    </g>
    <g id="ytick_5">
     <g id="line2d_11">
      <g>
       <use xlink:href="#m3536c03961" x="57.6" y="105.911335" style="stroke: #000000; stroke-width: 0.8"/>
      </g>
     </g>
     <g id="text_12">
      <!-- 2000 -->
      <g transform="translate(25.15 109.710553) scale(0.1 -0.1)">
       <use xlink:href="#DejaVuSans-32"/>
       <use xlink:href="#DejaVuSans-30" transform="translate(63.623047 0)"/>
       <use xlink:href="#DejaVuSans-30" transform="translate(127.246094 0)"/>
       <use xlink:href="#DejaVuSans-30" transform="translate(190.869141 0)"/>
      </g>
     </g>
    </g>
    <g id="ytick_6">
     <g id="line2d_12">
      <g>
       <use xlink:href="#m3536c03961" x="57.6" y="61.473632" style="stroke: #000000; stroke-width: 0.8"/>
      </g>
     </g>
     <g id="text_13">
      <!-- 2500 -->
      <g transform="translate(25.15 65.27285) scale(0.1 -0.1)">
       <use xlink:href="#DejaVuSans-32"/>
       <use xlink:href="#DejaVuSans-35" transform="translate(63.623047 0)"/>
       <use xlink:href="#DejaVuSans-30" transform="translate(127.246094 0)"/>
       <use xlink:href="#DejaVuSans-30" transform="translate(190.869141 0)"/>
      </g>
     </g>
    </g>
    <g id="text_14">
     <!-- Stress [Pa] -->
     <g transform="translate(19.070312 201.235813) rotate(-90) scale(0.1 -0.1)">
      <defs>
       <path id="DejaVuSans-65" d="M 3597 1894 
L 3597 1613 
L 953 1613 
Q 991 1019 1311 708 
Q 1631 397 2203 397 
Q 2534 397 2845 478 
Q 3156 559 3463 722 
L 3463 178 
Q 3153 47 2828 -22 
Q 2503 -91 2169 -91 
Q 1331 -91 842 396 
Q 353 884 353 1716 
Q 353 2575 817 3079 
Q 1281 3584 2069 3584 
Q 2775 3584 3186 3129 
Q 3597 2675 3597 1894 
z
M 3022 2063 
Q 3016 2534 2758 2815 
Q 2500 3097 2075 3097 
Q 1594 3097 1305 2825 
Q 1016 2553 972 2059 
L 3022 2063 
z
" transform="scale(0.015625)"/>
       <path id="DejaVuSans-73" d="M 2834 3397 
L 2834 2853 
Q 2591 2978 2328 3040 
Q 2066 3103 1784 3103 
Q 1356 3103 1142 2972 
Q 928 2841 928 2578 
Q 928 2378 1081 2264 
Q 1234 2150 1697 2047 
L 1894 2003 
Q 2506 1872 2764 1633 
Q 3022 1394 3022 966 
Q 3022 478 2636 193 
Q 2250 -91 1575 -91 
Q 1294 -91 989 -36 
Q 684 19 347 128 
L 347 722 
Q 666 556 975 473 
Q 1284 391 1588 391 
Q 1994 391 2212 530 
Q 2431 669 2431 922 
Q 2431 1156 2273 1281 
Q 2116 1406 1581 1522 
L 1381 1569 
Q 847 1681 609 1914 
Q 372 2147 372 2553 
Q 372 3047 722 3315 
Q 1072 3584 1716 3584 
Q 2034 3584 2315 3537 
Q 2597 3491 2834 3397 
z
" transform="scale(0.015625)"/>
       <path id="DejaVuSans-20" transform="scale(0.015625)"/>
       <path id="DejaVuSans-5b" d="M 550 4863 
L 1875 4863 
L 1875 4416 
L 1125 4416 
L 1125 -397 
L 1875 -397 
L 1875 -844 
L 550 -844 
L 550 4863 
z
" transform="scale(0.015625)"/>
       <path id="DejaVuSans-50" d="M 1259 4147 
L 1259 2394 
L 2053 2394 
Q 2494 2394 2734 2622 
Q 2975 2850 2975 3272 
Q 2975 3691 2734 3919 
Q 2494 4147 2053 4147 
L 1259 4147 
z
M 628 4666 
L 2053 4666 
Q 2838 4666 3239 4311 
Q 3641 3956 3641 3272 
Q 3641 2581 3239 2228 
Q 2838 1875 2053 1875 
L 1259 1875 
L 1259 0 
L 628 0 
L 628 4666 
z
" transform="scale(0.015625)"/>
       <path id="DejaVuSans-5d" d="M 1947 4863 
L 1947 -844 
L 622 -844 
L 622 -397 
L 1369 -397 
L 1369 4416 
L 622 4416 
L 622 4863 
L 1947 4863 
z
" transform="scale(0.015625)"/>
      </defs>
      <use xlink:href="#DejaVuSans-53"/>
      <use xlink:href="#DejaVuSans-74" transform="translate(63.476562 0)"/>
      <use xlink:href="#DejaVuSans-72" transform="translate(102.685547 0)"/>
      <use xlink:href="#DejaVuSans-65" transform="translate(141.548828 0)"/>
      <use xlink:href="#DejaVuSans-73" transform="translate(203.072266 0)"/>
      <use xlink:href="#DejaVuSans-73" transform="translate(255.171875 0)"/>
      <use xlink:href="#DejaVuSans-20" transform="translate(307.271484 0)"/>
      <use xlink:href="#DejaVuSans-5b" transform="translate(339.058594 0)"/>
      <use xlink:href="#DejaVuSans-50" transform="translate(378.072266 0)"/>
      <use xlink:href="#DejaVuSans-61" transform="translate(433.875 0)"/>
      <use xlink:href="#DejaVuSans-5d" transform="translate(495.154297 0)"/>
     </g>
    </g>
   </g>
   <g id="line2d_13">
    <path d="M 73.933039 284.150354 
L 73.933775 284.036516 
L 73.933039 284.173788 
L 73.940609 284.072206 
L 74.404086 283.881366 
L 74.869282 282.948998 
L 75.342086 282.348941 
L 76.322874 282.891479 
L 77.29111 283.080597 
L 78.721632 283.34194 
L 79.194524 283.223191 
L 79.683504 282.620839 
L 80.155512 282.281349 
L 82.056982 281.719429 
L 82.527753 281.517178 
L 82.997287 281.022088 
L 83.466997 280.89951 
L 84.909894 281.217103 
L 85.384907 281.057182 
L 85.855149 280.767066 
L 86.324771 280.10298 
L 86.795984 279.741241 
L 87.754144 279.798386 
L 88.239234 279.923196 
L 90.138825 279.008232 
L 91.579247 278.655749 
L 92.059388 278.477244 
L 93.008355 277.9963 
L 93.950781 277.846041 
L 95.379888 277.277062 
L 96.805991 276.539766 
L 98.704987 276.074706 
L 100.613262 275.024653 
L 101.557103 274.847373 
L 102.978785 274.29193 
L 103.929697 273.766535 
L 108.209772 272.035897 
L 109.153435 271.634767 
L 110.570875 271.131761 
L 118.614094 267.730551 
L 123.379913 265.61262 
L 128.170889 263.351863 
L 129.57507 262.790238 
L 131.511896 261.689517 
L 136.285519 259.522628 
L 137.707379 258.785004 
L 138.656699 258.415408 
L 145.779432 254.821999 
L 146.252325 254.46752 
L 147.208534 254.109728 
L 148.634106 253.475642 
L 149.59094 252.810291 
L 150.522759 252.443166 
L 151.961678 251.761515 
L 152.906933 251.20619 
L 154.340636 250.652082 
L 156.239012 249.662323 
L 157.688096 248.878423 
L 162.420883 246.412381 
L 166.214806 244.551226 
L 168.117596 243.246286 
L 169.542881 242.571913 
L 170.979236 241.892464 
L 172.852598 240.970294 
L 180.934109 236.385885 
L 181.884115 235.976487 
L 183.289533 235.194086 
L 184.230722 234.569204 
L 186.139086 233.541268 
L 187.570669 232.632448 
L 188.994826 232.057005 
L 190.911499 230.794548 
L 192.331414 230.181564 
L 193.282248 229.525306 
L 196.137547 227.824341 
L 200.399236 225.224274 
L 201.360931 224.565622 
L 203.300232 223.524715 
L 204.261486 222.923206 
L 206.130704 221.892509 
L 208.508513 220.341945 
L 209.451469 219.84723 
L 216.064793 215.63942 
L 216.548116 215.263957 
L 218.913816 214.028667 
L 219.863313 213.413013 
L 221.283405 212.538713 
L 222.706944 211.543099 
L 223.648839 211.058547 
L 225.081306 210.012441 
L 225.564805 209.570092 
L 226.519252 209.158656 
L 227.950327 208.235731 
L 228.908486 207.552348 
L 230.33123 206.81168 
L 232.707537 205.070292 
L 234.597692 203.912193 
L 236.009652 202.900046 
L 239.789643 200.36984 
L 240.257585 199.983416 
L 241.192233 199.463923 
L 247.854802 194.838998 
L 248.813845 194.279785 
L 250.705238 192.847724 
L 251.653233 192.30696 
L 252.594864 191.688589 
L 254.024413 190.47166 
L 263.510614 183.619714 
L 273.04943 176.446902 
L 273.992718 175.781492 
L 275.886674 174.116828 
L 278.275886 172.361014 
L 281.130565 170.180931 
L 282.527322 169.197589 
L 283.474344 168.506055 
L 284.899209 167.224723 
L 286.302153 166.167644 
L 288.681818 164.11206 
L 289.625305 163.485024 
L 290.588945 162.603323 
L 291.542685 161.681809 
L 293.453878 160.330826 
L 294.880157 158.986448 
L 297.741532 156.73757 
L 298.709238 155.831138 
L 312.054705 144.2794 
L 312.995806 143.508053 
L 314.408384 141.978004 
L 316.780713 140.007292 
L 317.743027 139.038002 
L 327.270021 130.295632 
L 329.175733 128.489794 
L 331.989399 125.887503 
L 344.354653 113.76839 
L 349.072971 108.938146 
L 350.011861 107.982346 
L 352.378622 105.401975 
L 353.330594 104.469594 
L 354.287781 103.36522 
L 360.473569 96.947573 
L 361.899494 95.369841 
L 370.892517 85.404828 
L 371.854566 84.347762 
L 383.718819 70.490998 
L 385.140855 68.759915 
L 387.04038 66.660208 
L 397.948772 53.781704 
L 398.203692 53.568 
L 398.487273 53.947632 
L 398.328301 60.542027 
L 398.326047 89.127056 
L 397.861928 89.267679 
L 396.439936 91.749664 
L 395.949542 91.84093 
L 395.460032 92.113253 
L 394.517782 93.066899 
L 394.046127 93.296692 
L 393.556441 93.824289 
L 393.070643 93.859875 
L 392.109832 96.139632 
L 391.155208 97.834086 
L 390.672835 99.016975 
L 390.181381 99.554958 
L 389.687451 99.506034 
L 389.198648 99.754984 
L 388.210259 100.818515 
L 387.721102 101.238381 
L 387.24326 101.457214 
L 386.77134 103.690132 
L 386.300745 104.470379 
L 385.828118 104.972308 
L 385.355933 105.195449 
L 384.39848 106.083801 
L 383.448364 107.279325 
L 382.497276 108.754572 
L 381.070643 110.427855 
L 380.115489 112.002776 
L 379.165284 112.640585 
L 377.742673 113.942363 
L 376.796535 116.018088 
L 376.318516 116.350225 
L 375.371847 117.250849 
L 374.894535 117.558067 
L 373.4664 119.729719 
L 372.059213 120.984775 
L 371.109009 122.496744 
L 369.679371 123.948384 
L 369.197993 124.348484 
L 368.250086 125.741107 
L 366.834724 127.233602 
L 365.871172 128.279896 
L 364.453644 129.863435 
L 362.54581 132.090732 
L 360.142632 134.734898 
L 358.271569 136.547949 
L 355.865916 139.313334 
L 354.427771 140.674165 
L 352.980101 142.03756 
L 349.164787 146.035003 
L 347.732144 147.340599 
L 342.959885 152.232776 
L 342.003317 152.880281 
L 340.104941 154.78954 
L 339.16004 155.504025 
L 337.268293 157.480451 
L 335.844401 158.637379 
L 334.894727 159.846298 
L 333.463321 160.846127 
L 332.981412 161.280982 
L 332.031495 162.469503 
L 330.150886 164.03974 
L 327.790136 166.039211 
L 326.827557 166.950889 
L 325.880534 167.607012 
L 323.990202 169.63632 
L 322.550664 170.449589 
L 322.070258 170.895873 
L 321.133931 171.997437 
L 319.716845 172.912499 
L 319.241566 173.394193 
L 318.774861 174.092659 
L 318.288179 174.509808 
L 316.85589 175.210804 
L 316.386798 175.703599 
L 315.902768 176.507359 
L 315.432704 176.941933 
L 313.545554 177.906411 
L 313.080617 178.764692 
L 312.599592 179.182919 
L 310.710939 180.056036 
L 310.244765 181.085 
L 309.771342 181.581495 
L 307.866049 182.476287 
L 307.388472 183.302905 
L 306.908066 183.868535 
L 305.490096 184.627471 
L 305.006243 184.894032 
L 304.057276 186.133116 
L 302.61544 186.931186 
L 302.130703 187.285384 
L 301.192785 188.301981 
L 299.296707 189.556335 
L 298.818158 190.265292 
L 298.336338 190.626142 
L 296.902767 191.176145 
L 296.425631 191.527907 
L 295.486741 192.711159 
L 295.01049 193.029103 
L 294.071953 193.398289 
L 293.601889 193.724243 
L 292.158108 195.108529 
L 290.249479 196.200865 
L 289.772874 196.859705 
L 289.304136 197.290719 
L 287.407616 198.447694 
L 286.929067 198.928545 
L 285.51103 199.801194 
L 285.028149 200.024992 
L 283.129331 201.540848 
L 282.189204 201.932412 
L 281.716399 202.28099 
L 280.756737 203.311826 
L 279.326746 203.921485 
L 278.849964 204.193006 
L 277.891716 205.161875 
L 276.450057 205.992415 
L 272.20567 209.195847 
L 270.778507 209.739462 
L 270.298101 210.173006 
L 269.824502 210.813766 
L 269.340119 211.161922 
L 268.399991 211.525733 
L 267.429103 212.025648 
L 266.481108 213.026086 
L 265.058541 213.6653 
L 264.572744 213.908396 
L 263.644637 214.868131 
L 261.748736 215.812654 
L 260.78819 216.700819 
L 259.847001 217.216472 
L 258.899614 217.733155 
L 257.947819 218.439536 
L 256.046526 219.473043 
L 254.132239 220.909929 
L 252.727174 221.560619 
L 252.26206 221.787929 
L 250.84104 222.853257 
L 249.881643 223.413829 
L 249.405745 223.567122 
L 248.462259 224.237777 
L 245.11913 226.325259 
L 244.174936 226.721296 
L 239.92571 229.476611 
L 238.045167 230.514403 
L 237.089482 231.265516 
L 234.693818 232.419681 
L 233.755899 233.175478 
L 233.270102 233.314215 
L 232.325908 233.852351 
L 231.856374 234.042612 
L 230.421787 235.017051 
L 229.955789 235.171082 
L 228.053612 236.239765 
L 226.14675 237.154695 
L 224.248463 238.265252 
L 220.927608 240.029637 
L 219.986773 240.760797 
L 217.585894 241.868731 
L 216.640463 242.526728 
L 216.175393 242.675773 
L 215.233674 242.81637 
L 213.326635 244.038685 
L 211.904069 244.692513 
L 210.482474 245.724989 
L 208.596562 246.491442 
L 206.719576 247.601648 
L 205.768311 247.883175 
L 204.827211 248.452459 
L 203.871349 249.205524 
L 201.983492 249.860102 
L 199.607008 251.148332 
L 198.175072 251.788003 
L 196.760903 252.7883 
L 195.339927 253.059649 
L 193.441993 254.13325 
L 192.006853 254.685179 
L 191.044451 255.300131 
L 189.628602 255.864496 
L 188.691479 256.26455 
L 183.440163 258.749743 
L 181.545267 259.710151 
L 181.066541 260.014559 
L 179.188407 260.708587 
L 176.83075 261.748206 
L 169.685157 264.967525 
L 168.242968 265.566434 
L 164.924683 267.133205 
L 163.504414 267.553914 
L 161.145255 268.67597 
L 159.236891 269.399975 
L 157.810584 270.1518 
L 156.855076 270.433959 
L 153.991116 271.667423 
L 153.512566 271.767206 
L 151.626742 272.703381 
L 151.145717 272.987601 
L 150.198341 273.232874 
L 149.724388 273.274749 
L 147.810367 274.123849 
L 146.854152 274.445072 
L 145.911864 274.774787 
L 144.462073 275.554285 
L 143.02996 276.001833 
L 141.157659 276.915361 
L 139.758605 277.323383 
L 137.380972 278.384443 
L 136.426525 278.541065 
L 135.49011 278.962149 
L 134.535574 279.555466 
L 132.658854 279.948413 
L 130.767107 280.847913 
L 129.342596 281.428531 
L 127.926482 281.855388 
L 126.968322 282.031679 
L 124.585651 283.145497 
L 123.177951 283.372391 
L 121.265786 284.098001 
L 120.335558 284.252342 
L 119.377136 284.741108 
L 118.426047 285.119592 
L 108.992086 287.996151 
L 107.593738 288.334377 
L 105.207532 289.210282 
L 104.276596 289.391011 
L 102.846605 289.871054 
L 101.426867 290.106634 
L 100.469414 290.37093 
L 99.051764 290.968625 
L 97.634855 291.118049 
L 95.711023 291.782264 
L 93.827586 292.092306 
L 91.914979 292.72782 
L 90.473673 292.957504 
L 89.534341 293.343834 
L 88.579396 293.459388 
L 87.624242 293.462409 
L 87.141184 293.518798 
L 85.736473 294.188282 
L 83.850206 294.270433 
L 82.906278 294.577698 
L 82.423132 294.795184 
L 80.069276 294.987998 
L 79.113945 295.254771 
L 78.168867 295.291267 
L 76.735855 295.299541 
L 75.783087 295.470083 
L 75.312934 295.488 
L 74.361934 295.157421 
L 73.929525 295.226176 
L 73.833022 293.657423 
L 73.833022 293.657423 
" clip-path="url(#p72b40a6835)" style="fill: none; stroke: #ff0000; stroke-width: 1.5; stroke-linecap: square"/>
   </g>
   <g id="line2d_14">
    <path d="M 73.933039 284.150354 
L 73.933775 284.036516 
L 73.933039 284.173788 
L 73.940609 284.072206 
L 74.404086 283.881366 
L 74.869282 282.948998 
L 75.342086 282.348941 
L 75.828237 284.400696 
L 78.238486 283.271705 
L 78.721632 283.34194 
L 79.194524 283.223191 
L 79.683504 282.620839 
L 80.155512 282.281349 
L 82.056982 281.719429 
L 82.527753 281.517178 
L 82.997287 281.022088 
L 83.466997 280.89951 
L 84.909894 281.217103 
L 85.384907 281.057182 
L 85.855149 280.767066 
L 86.324771 280.10298 
L 86.795984 279.741241 
L 87.754144 279.798386 
L 88.239234 279.923196 
L 90.138825 279.008232 
L 91.579247 278.655749 
L 92.059388 278.477244 
L 93.008355 277.9963 
L 93.950781 277.846041 
L 95.379888 277.277062 
L 96.805991 276.539766 
L 98.704987 276.074706 
L 100.613262 275.024653 
L 101.557103 274.847373 
L 102.978785 274.29193 
L 103.929697 273.766535 
L 108.209772 272.035897 
L 109.153435 271.634767 
L 110.570875 271.131761 
L 118.614094 267.730551 
L 123.379913 265.61262 
L 128.170889 263.351863 
L 129.57507 262.790238 
L 131.511896 261.689517 
L 136.285519 259.522628 
L 137.707379 258.785004 
L 138.656699 258.415408 
L 145.779432 254.821999 
L 146.252325 254.46752 
L 147.208534 254.109728 
L 148.634106 253.475642 
L 149.59094 252.810291 
L 150.522759 252.443166 
L 151.961678 251.761515 
L 152.906933 251.20619 
L 154.340636 250.652082 
L 156.239012 249.662323 
L 157.688096 248.878423 
L 162.420883 246.412381 
L 166.214806 244.551226 
L 168.117596 243.246286 
L 169.542881 242.571913 
L 170.979236 241.892464 
L 172.852598 240.970294 
L 180.934109 236.385885 
L 181.884115 235.976487 
L 183.289533 235.194086 
L 184.230722 234.569204 
L 186.139086 233.541268 
L 187.570669 232.632448 
L 188.994826 232.057005 
L 190.911499 230.794548 
L 192.331414 230.181564 
L 193.282248 229.525306 
L 196.137547 227.824341 
L 200.399236 225.224274 
L 201.360931 224.565622 
L 203.300232 223.524715 
L 204.261486 222.923206 
L 206.130704 221.892509 
L 208.508513 220.341945 
L 209.451469 219.84723 
L 216.064793 215.63942 
L 216.548116 215.263957 
L 218.913816 214.028667 
L 219.863313 213.413013 
L 221.283405 212.538713 
L 222.706944 211.543099 
L 223.648839 211.058547 
L 225.081306 210.012441 
L 225.564805 209.570092 
L 226.519252 209.158656 
L 227.950327 208.235731 
L 228.908486 207.552348 
L 230.33123 206.81168 
L 232.707537 205.070292 
L 234.597692 203.912193 
L 236.009652 202.900046 
L 239.789643 200.36984 
L 240.257585 199.983416 
L 241.192233 199.463923 
L 247.854802 194.838998 
L 248.813845 194.279785 
L 250.705238 192.847724 
L 251.653233 192.30696 
L 252.594864 191.688589 
L 254.024413 190.47166 
L 263.510614 183.619714 
L 273.04943 176.446902 
L 273.992718 175.781492 
L 275.886674 174.116828 
L 278.275886 172.361014 
L 281.130565 170.180931 
L 282.527322 169.197589 
L 283.474344 168.506055 
L 284.899209 167.224723 
L 286.302153 166.167644 
L 288.681818 164.11206 
L 289.625305 163.485024 
L 290.588945 162.603323 
L 291.542685 161.681809 
L 293.453878 160.330826 
L 294.880157 158.986448 
L 297.741532 156.73757 
L 298.709238 155.831138 
L 312.054705 144.2794 
L 312.995806 143.508053 
L 314.408384 141.978004 
L 316.780713 140.007292 
L 317.743027 139.038002 
L 327.270021 130.295632 
L 329.175733 128.489794 
L 331.989399 125.887503 
L 344.354653 113.76839 
L 349.072971 108.938146 
L 350.011861 107.982346 
L 352.378622 105.401975 
L 353.330594 104.469594 
L 354.287781 103.36522 
L 360.473569 96.947573 
L 361.899494 95.369841 
L 370.892517 85.404828 
L 371.854566 84.347762 
L 383.718819 70.490998 
L 385.140855 68.759915 
L 387.04038 66.660208 
L 397.948772 53.781704 
L 398.203692 53.568 
L 398.487273 53.947632 
L 398.328301 60.542027 
L 398.326047 89.127056 
L 397.861928 89.267679 
L 396.439936 91.749664 
L 395.949542 91.84093 
L 395.460032 92.113253 
L 394.517782 93.066899 
L 394.046127 93.296692 
L 393.556441 93.824289 
L 393.070643 93.859875 
L 392.109832 96.139632 
L 391.155208 97.834086 
L 390.672835 99.016975 
L 390.181381 99.554958 
L 389.687451 99.506034 
L 389.198648 99.754984 
L 388.210259 100.818515 
L 387.721102 101.238381 
L 387.24326 101.457214 
L 386.77134 103.690132 
L 386.300745 104.470379 
L 385.828118 104.972308 
L 385.355933 105.195449 
L 384.39848 106.083801 
L 383.448364 107.279325 
L 382.497276 108.754572 
L 381.070643 110.427855 
L 380.115489 112.002776 
L 379.165284 112.640585 
L 377.742673 113.942363 
L 376.796535 116.018088 
L 376.318516 116.350225 
L 375.371847 117.250849 
L 374.894535 117.558067 
L 373.4664 119.729719 
L 372.059213 120.984775 
L 371.109009 122.496744 
L 369.679371 123.948384 
L 369.197993 124.348484 
L 368.250086 125.741107 
L 366.834724 127.233602 
L 365.871172 128.279896 
L 364.453644 129.863435 
L 362.54581 132.090732 
L 360.142632 134.734898 
L 358.271569 136.547949 
L 355.865916 139.313334 
L 354.427771 140.674165 
L 352.980101 142.03756 
L 349.164787 146.035003 
L 347.732144 147.340599 
L 342.959885 152.232776 
L 342.003317 152.880281 
L 340.104941 154.78954 
L 339.16004 155.504025 
L 337.268293 157.480451 
L 335.844401 158.637379 
L 334.894727 159.846298 
L 333.463321 160.846127 
L 332.981412 161.280982 
L 332.031495 162.469503 
L 330.150886 164.03974 
L 327.790136 166.039211 
L 326.827557 166.950889 
L 325.880534 167.607012 
L 323.990202 169.63632 
L 322.550664 170.449589 
L 322.070258 170.895873 
L 321.133931 171.997437 
L 319.716845 172.912499 
L 319.241566 173.394193 
L 318.774861 174.092659 
L 318.288179 174.509808 
L 316.85589 175.210804 
L 316.386798 175.703599 
L 315.902768 176.507359 
L 315.432704 176.941933 
L 313.545554 177.906411 
L 313.080617 178.764692 
L 312.599592 179.182919 
L 310.710939 180.056036 
L 310.244765 181.085 
L 309.771342 181.581495 
L 307.866049 182.476287 
L 307.388472 183.302905 
L 306.908066 183.868535 
L 305.490096 184.627471 
L 305.006243 184.894032 
L 304.057276 186.133116 
L 302.61544 186.931186 
L 302.130703 187.285384 
L 301.192785 188.301981 
L 299.296707 189.556335 
L 298.818158 190.265292 
L 298.336338 190.626142 
L 296.902767 191.176145 
L 296.425631 191.527907 
L 295.486741 192.711159 
L 295.01049 193.029103 
L 294.071953 193.398289 
L 293.601889 193.724243 
L 292.158108 195.108529 
L 290.249479 196.200865 
L 289.772874 196.859705 
L 289.304136 197.290719 
L 287.407616 198.447694 
L 286.929067 198.928545 
L 285.51103 199.801194 
L 285.028149 200.024992 
L 283.129331 201.540848 
L 282.189204 201.932412 
L 281.716399 202.28099 
L 280.756737 203.311826 
L 279.326746 203.921485 
L 278.849964 204.193006 
L 277.891716 205.161875 
L 276.450057 205.992415 
L 272.20567 209.195847 
L 270.778507 209.739462 
L 270.298101 210.173006 
L 269.824502 210.813766 
L 269.340119 211.161922 
L 268.399991 211.525733 
L 267.429103 212.025648 
L 266.481108 213.026086 
L 265.058541 213.6653 
L 264.572744 213.908396 
L 263.644637 214.868131 
L 261.748736 215.812654 
L 260.78819 216.700819 
L 259.847001 217.216472 
L 258.899614 217.733155 
L 257.947819 218.439536 
L 256.046526 219.473043 
L 254.132239 220.909929 
L 252.727174 221.560619 
L 252.26206 221.787929 
L 250.84104 222.853257 
L 249.881643 223.413829 
L 249.405745 223.567122 
L 248.462259 224.237777 
L 245.11913 226.325259 
L 244.174936 226.721296 
L 239.92571 229.476611 
L 238.045167 230.514403 
L 237.089482 231.265516 
L 234.693818 232.419681 
L 233.755899 233.175478 
L 233.270102 233.314215 
L 232.325908 233.852351 
L 231.856374 234.042612 
L 230.421787 235.017051 
L 229.955789 235.171082 
L 228.053612 236.239765 
L 226.14675 237.154695 
L 224.248463 238.265252 
L 220.927608 240.029637 
L 219.986773 240.760797 
L 217.585894 241.868731 
L 216.640463 242.526728 
L 216.175393 242.675773 
L 215.233674 242.81637 
L 213.326635 244.038685 
L 211.904069 244.692513 
L 210.482474 245.724989 
L 208.596562 246.491442 
L 206.719576 247.601648 
L 205.768311 247.883175 
L 204.827211 248.452459 
L 203.871349 249.205524 
L 201.983492 249.860102 
L 199.607008 251.148332 
L 198.175072 251.788003 
L 196.760903 252.7883 
L 195.339927 253.059649 
L 193.441993 254.13325 
L 192.006853 254.685179 
L 191.044451 255.300131 
L 189.628602 255.864496 
L 188.691479 256.26455 
L 183.440163 258.749743 
L 181.545267 259.710151 
L 181.066541 260.014559 
L 179.188407 260.708587 
L 176.83075 261.748206 
L 169.685157 264.967525 
L 168.242968 265.566434 
L 164.924683 267.133205 
L 163.504414 267.553914 
L 161.145255 268.67597 
L 159.236891 269.399975 
L 157.810584 270.1518 
L 156.855076 270.433959 
L 153.991116 271.667423 
L 153.512566 271.767206 
L 151.626742 272.703381 
L 151.145717 272.987601 
L 150.198341 273.232874 
L 149.724388 273.274749 
L 147.810367 274.123849 
L 146.854152 274.445072 
L 145.911864 274.774787 
L 144.462073 275.554285 
L 143.02996 276.001833 
L 141.157659 276.915361 
L 139.758605 277.323383 
L 137.380972 278.384443 
L 136.426525 278.541065 
L 135.49011 278.962149 
L 134.535574 279.555466 
L 132.658854 279.948413 
L 130.767107 280.847913 
L 129.342596 281.428531 
L 127.926482 281.855388 
L 126.968322 282.031679 
L 124.585651 283.145497 
L 123.177951 283.372391 
L 121.265786 284.098001 
L 120.335558 284.252342 
L 119.377136 284.741108 
L 118.426047 285.119592 
L 108.992086 287.996151 
L 107.593738 288.334377 
L 105.207532 289.210282 
L 104.276596 289.391011 
L 102.846605 289.871054 
L 101.426867 290.106634 
L 100.469414 290.37093 
L 99.051764 290.968625 
L 97.634855 291.118049 
L 95.711023 291.782264 
L 93.827586 292.092306 
L 91.914979 292.72782 
L 90.473673 292.957504 
L 89.534341 293.343834 
L 88.579396 293.459388 
L 87.624242 293.462409 
L 87.141184 293.518798 
L 85.736473 294.188282 
L 83.850206 294.270433 
L 82.906278 294.577698 
L 82.423132 294.795184 
L 80.069276 294.987998 
L 79.113945 295.254771 
L 78.168867 295.291267 
L 76.735855 295.299541 
L 75.783087 295.470083 
L 75.312934 295.488 
L 74.361934 295.157421 
L 73.929525 295.226176 
L 73.833022 293.657423 
L 73.833022 293.657423 
" clip-path="url(#p72b40a6835)" style="fill: none; stroke: #000000; stroke-width: 1.5; stroke-linecap: square"/>
   </g>
   <g id="patch_3">
    <path d="M 57.6 307.584 
L 57.6 41.472 
" style="fill: none; stroke: #000000; stroke-width: 0.8; stroke-linejoin: miter; stroke-linecap: square"/>
   </g>
   <g id="patch_4">
    <path d="M 414.72 307.584 
L 414.72 41.472 
" style="fill: none; stroke: #000000; stroke-width: 0.8; stroke-linejoin: miter; stroke-linecap: square"/>
   </g>
   <g id="patch_5">
    <path d="M 57.6 307.584 
L 414.72 307.584 
" style="fill: none; stroke: #000000; stroke-width: 0.8; stroke-linejoin: miter; stroke-linecap: square"/>
   </g>
   <g id="patch_6">
    <path d="M 57.6 41.472 
L 414.72 41.472 
" style="fill: none; stroke: #000000; stroke-width: 0.8; stroke-linejoin: miter; stroke-linecap: square"/>
   </g>
   <g id="text_15">
    <!-- 2025-07-02 trial 30 -->
    <g transform="translate(178.0125 35.472) scale(0.12 -0.12)">
     <defs>
      <path id="DejaVuSans-2d" d="M 313 2009 
L 1997 2009 
L 1997 1497 
L 313 1497 
L 313 2009 
z
" transform="scale(0.015625)"/>
      <path id="DejaVuSans-37" d="M 525 4666 
L 3525 4666 
L 3525 4397 
L 1831 0 
L 1172 0 
L 2766 4134 
L 525 4134 
L 525 4666 
z
" transform="scale(0.015625)"/>
      <path id="DejaVuSans-6c" d="M 603 4863 
L 1178 4863 
L 1178 0 
L 603 0 
L 603 4863 
z
" transform="scale(0.015625)"/>
      <path id="DejaVuSans-33" d="M 2597 2516 
Q 3050 2419 3304 2112 
Q 3559 1806 3559 1356 
Q 3559 666 3084 287 
Q 2609 -91 1734 -91 
Q 1441 -91 1130 -33 
Q 819 25 488 141 
L 488 750 
Q 750 597 1062 519 
Q 1375 441 1716 441 
Q 2309 441 2620 675 
Q 2931 909 2931 1356 
Q 2931 1769 2642 2001 
Q 2353 2234 1838 2234 
L 1294 2234 
L 1294 2753 
L 1863 2753 
Q 2328 2753 2575 2939 
Q 2822 3125 2822 3475 
Q 2822 3834 2567 4026 
Q 2313 4219 1838 4219 
Q 1578 4219 1281 4162 
Q 984 4106 628 3988 
L 628 4550 
Q 988 4650 1302 4700 
Q 1616 4750 1894 4750 
Q 2613 4750 3031 4423 
Q 3450 4097 3450 3541 
Q 3450 3153 3228 2886 
Q 3006 2619 2597 2516 
z
" transform="scale(0.015625)"/>
     </defs>
     <use xlink:href="#DejaVuSans-32"/>
     <use xlink:href="#DejaVuSans-30" transform="translate(63.623047 0)"/>
     <use xlink:href="#DejaVuSans-32" transform="translate(127.246094 0)"/>
     <use xlink:href="#DejaVuSans-35" transform="translate(190.869141 0)"/>
     <use xlink:href="#DejaVuSans-2d" transform="translate(254.492188 0)"/>
     <use xlink:href="#DejaVuSans-30" transform="translate(290.576172 0)"/>
     <use xlink:href="#DejaVuSans-37" transform="translate(354.199219 0)"/>
     <use xlink:href="#DejaVuSans-2d" transform="translate(417.822266 0)"/>
     <use xlink:href="#DejaVuSans-30" transform="translate(453.90625 0)"/>
     <use xlink:href="#DejaVuSans-32" transform="translate(517.529297 0)"/>
     <use xlink:href="#DejaVuSans-20" transform="translate(581.152344 0)"/>
     <use xlink:href="#DejaVuSans-74" transform="translate(612.939453 0)"/>
     <use xlink:href="#DejaVuSans-72" transform="translate(652.148438 0)"/>
     <use xlink:href="#DejaVuSans-69" transform="translate(693.261719 0)"/>
     <use xlink:href="#DejaVuSans-61" transform="translate(721.044922 0)"/>
     <use xlink:href="#DejaVuSans-6c" transform="translate(782.324219 0)"/>
     <use xlink:href="#DejaVuSans-20" transform="translate(810.107422 0)"/>
     <use xlink:href="#DejaVuSans-33" transform="translate(841.894531 0)"/>
     <use xlink:href="#DejaVuSans-30" transform="translate(905.517578 0)"/>
    </g>
   </g>
  </g>
 </g>
 <defs>
  <clipPath id="p72b40a6835">
   <rect x="57.6" y="41.472" width="357.12" height="266.112"/>
  </clipPath>
 </defs>
</svg>
