<?xml version="1.0" encoding="utf-8" standalone="no"?>
<!DOCTYPE svg PUBLIC "-//W3C//DTD SVG 1.1//EN"
  "http://www.w3.org/Graphics/SVG/1.1/DTD/svg11.dtd">
<svg xmlns:xlink="http://www.w3.org/1999/xlink" width="432pt" height="288pt" viewBox="0 0 432 288" xmlns="http://www.w3.org/2000/svg" version="1.1">
 <metadata>
  <rdf:RDF xmlns:dc="http://purl.org/dc/elements/1.1/" xmlns:cc="http://creativecommons.org/ns#" xmlns:rdf="http://www.w3.org/1999/02/22-rdf-syntax-ns#">
   <cc:Work>
    <dc:type rdf:resource="http://purl.org/dc/dcmitype/StillImage"/>
    <dc:date>2025-07-03T20:54:22.947300</dc:date>
    <dc:format>image/svg+xml</dc:format>
    <dc:creator>
     <cc:Agent>
      <dc:title>Matplotlib v3.9.2, https://matplotlib.org/</dc:title>
     </cc:Agent>
    </dc:creator>
   </cc:Work>
  </rdf:RDF>
 </metadata>
 <defs>
  <style type="text/css">*{stroke-linejoin: round; stroke-linecap: butt}</style>
 </defs>
 <g id="figure_1">
  <g id="patch_1">
   <path d="M 0 288 
L 432 288 
L 432 0 
L 0 0 
z
" style="fill: #ffffff"/>
  </g>
  <g id="axes_1">
   <g id="patch_2">
    <path d="M 54 256.32 
L 388.8 256.32 
L 388.8 34.56 
L 54 34.56 
z
" style="fill: #ffffff"/>
   </g>
   <g id="matplotlib.axis_1">
    <g id="xtick_1">
     <g id="line2d_1">
      <defs>
       <path id="m2ca99741e9" d="M 0 0 
L 0 3.5 
" style="stroke: #000000; stroke-width: 0.8"/>
      </defs>
      <g>
       <use xlink:href="#m2ca99741e9" x="69.312737" y="256.32" style="stroke: #000000; stroke-width: 0.8"/>
      </g>
     </g>
     <g id="text_1">
      <!-- 0.00 -->
      <g transform="translate(58.179924 270.918437) scale(0.1 -0.1)">
       <defs>
        <path id="DejaVuSans-30" d="M 2034 4250 
Q 1547 4250 1301 3770 
Q 1056 3291 1056 2328 
Q 1056 1369 1301 889 
Q 1547 409 2034 409 
Q 2525 409 2770 889 
Q 3016 1369 3016 2328 
Q 3016 3291 2770 3770 
Q 2525 4250 2034 4250 
z
M 2034 4750 
Q 2819 4750 3233 4129 
Q 3647 3509 3647 2328 
Q 3647 1150 3233 529 
Q 2819 -91 2034 -91 
Q 1250 -91 836 529 
Q 422 1150 422 2328 
Q 422 3509 836 4129 
Q 1250 4750 2034 4750 
z
" transform="scale(0.015625)"/>
        <path id="DejaVuSans-2e" d="M 684 794 
L 1344 794 
L 1344 0 
L 684 0 
L 684 794 
z
" transform="scale(0.015625)"/>
       </defs>
       <use xlink:href="#DejaVuSans-30"/>
       <use xlink:href="#DejaVuSans-2e" x="63.623047"/>
       <use xlink:href="#DejaVuSans-30" x="95.410156"/>
       <use xlink:href="#DejaVuSans-30" x="159.033203"/>
      </g>
     </g>
    </g>
    <g id="xtick_2">
     <g id="line2d_2">
      <g>
       <use xlink:href="#m2ca99741e9" x="123.620347" y="256.32" style="stroke: #000000; stroke-width: 0.8"/>
      </g>
     </g>
     <g id="text_2">
      <!-- 0.05 -->
      <g transform="translate(112.487534 270.918437) scale(0.1 -0.1)">
       <defs>
        <path id="DejaVuSans-35" d="M 691 4666 
L 3169 4666 
L 3169 4134 
L 1269 4134 
L 1269 2991 
Q 1406 3038 1543 3061 
Q 1681 3084 1819 3084 
Q 2600 3084 3056 2656 
Q 3513 2228 3513 1497 
Q 3513 744 3044 326 
Q 2575 -91 1722 -91 
Q 1428 -91 1123 -41 
Q 819 9 494 109 
L 494 744 
Q 775 591 1075 516 
Q 1375 441 1709 441 
Q 2250 441 2565 725 
Q 2881 1009 2881 1497 
Q 2881 1984 2565 2268 
Q 2250 2553 1709 2553 
Q 1456 2553 1204 2497 
Q 953 2441 691 2322 
L 691 4666 
z
" transform="scale(0.015625)"/>
       </defs>
       <use xlink:href="#DejaVuSans-30"/>
       <use xlink:href="#DejaVuSans-2e" x="63.623047"/>
       <use xlink:href="#DejaVuSans-30" x="95.410156"/>
       <use xlink:href="#DejaVuSans-35" x="159.033203"/>
      </g>
     </g>
    </g>
    <g id="xtick_3">
     <g id="line2d_3">
      <g>
       <use xlink:href="#m2ca99741e9" x="177.927956" y="256.32" style="stroke: #000000; stroke-width: 0.8"/>
      </g>
     </g>
     <g id="text_3">
      <!-- 0.10 -->
      <g transform="translate(166.795144 270.918437) scale(0.1 -0.1)">
       <defs>
        <path id="DejaVuSans-31" d="M 794 531 
L 1825 531 
L 1825 4091 
L 703 3866 
L 703 4441 
L 1819 4666 
L 2450 4666 
L 2450 531 
L 3481 531 
L 3481 0 
L 794 0 
L 794 531 
z
" transform="scale(0.015625)"/>
       </defs>
       <use xlink:href="#DejaVuSans-30"/>
       <use xlink:href="#DejaVuSans-2e" x="63.623047"/>
       <use xlink:href="#DejaVuSans-31" x="95.410156"/>
       <use xlink:href="#DejaVuSans-30" x="159.033203"/>
      </g>
     </g>
    </g>
    <g id="xtick_4">
     <g id="line2d_4">
      <g>
       <use xlink:href="#m2ca99741e9" x="232.235566" y="256.32" style="stroke: #000000; stroke-width: 0.8"/>
      </g>
     </g>
     <g id="text_4">
      <!-- 0.15 -->
      <g transform="translate(221.102753 270.918437) scale(0.1 -0.1)">
       <use xlink:href="#DejaVuSans-30"/>
       <use xlink:href="#DejaVuSans-2e" x="63.623047"/>
       <use xlink:href="#DejaVuSans-31" x="95.410156"/>
       <use xlink:href="#DejaVuSans-35" x="159.033203"/>
      </g>
     </g>
    </g>
    <g id="xtick_5">
     <g id="line2d_5">
      <g>
       <use xlink:href="#m2ca99741e9" x="286.543176" y="256.32" style="stroke: #000000; stroke-width: 0.8"/>
      </g>
     </g>
     <g id="text_5">
      <!-- 0.20 -->
      <g transform="translate(275.410363 270.918437) scale(0.1 -0.1)">
       <defs>
        <path id="DejaVuSans-32" d="M 1228 531 
L 3431 531 
L 3431 0 
L 469 0 
L 469 531 
Q 828 903 1448 1529 
Q 2069 2156 2228 2338 
Q 2531 2678 2651 2914 
Q 2772 3150 2772 3378 
Q 2772 3750 2511 3984 
Q 2250 4219 1831 4219 
Q 1534 4219 1204 4116 
Q 875 4013 500 3803 
L 500 4441 
Q 881 4594 1212 4672 
Q 1544 4750 1819 4750 
Q 2544 4750 2975 4387 
Q 3406 4025 3406 3419 
Q 3406 3131 3298 2873 
Q 3191 2616 2906 2266 
Q 2828 2175 2409 1742 
Q 1991 1309 1228 531 
z
" transform="scale(0.015625)"/>
       </defs>
       <use xlink:href="#DejaVuSans-30"/>
       <use xlink:href="#DejaVuSans-2e" x="63.623047"/>
       <use xlink:href="#DejaVuSans-32" x="95.410156"/>
       <use xlink:href="#DejaVuSans-30" x="159.033203"/>
      </g>
     </g>
    </g>
    <g id="xtick_6">
     <g id="line2d_6">
      <g>
       <use xlink:href="#m2ca99741e9" x="340.850785" y="256.32" style="stroke: #000000; stroke-width: 0.8"/>
      </g>
     </g>
     <g id="text_6">
      <!-- 0.25 -->
      <g transform="translate(329.717973 270.918437) scale(0.1 -0.1)">
       <use xlink:href="#DejaVuSans-30"/>
       <use xlink:href="#DejaVuSans-2e" x="63.623047"/>
       <use xlink:href="#DejaVuSans-32" x="95.410156"/>
       <use xlink:href="#DejaVuSans-35" x="159.033203"/>
      </g>
     </g>
    </g>
    <g id="text_7">
     <!-- Strain -->
     <g transform="translate(206.588281 284.596563) scale(0.1 -0.1)">
      <defs>
       <path id="DejaVuSans-53" d="M 3425 4513 
L 3425 3897 
Q 3066 4069 2747 4153 
Q 2428 4238 2131 4238 
Q 1616 4238 1336 4038 
Q 1056 3838 1056 3469 
Q 1056 3159 1242 3001 
Q 1428 2844 1947 2747 
L 2328 2669 
Q 3034 2534 3370 2195 
Q 3706 1856 3706 1288 
Q 3706 609 3251 259 
Q 2797 -91 1919 -91 
Q 1588 -91 1214 -16 
Q 841 59 441 206 
L 441 856 
Q 825 641 1194 531 
Q 1563 422 1919 422 
Q 2459 422 2753 634 
Q 3047 847 3047 1241 
Q 3047 1584 2836 1778 
Q 2625 1972 2144 2069 
L 1759 2144 
Q 1053 2284 737 2584 
Q 422 2884 422 3419 
Q 422 4038 858 4394 
Q 1294 4750 2059 4750 
Q 2388 4750 2728 4690 
Q 3069 4631 3425 4513 
z
" transform="scale(0.015625)"/>
       <path id="DejaVuSans-74" d="M 1172 4494 
L 1172 3500 
L 2356 3500 
L 2356 3053 
L 1172 3053 
L 1172 1153 
Q 1172 725 1289 603 
Q 1406 481 1766 481 
L 2356 481 
L 2356 0 
L 1766 0 
Q 1100 0 847 248 
Q 594 497 594 1153 
L 594 3053 
L 172 3053 
L 172 3500 
L 594 3500 
L 594 4494 
L 1172 4494 
z
" transform="scale(0.015625)"/>
       <path id="DejaVuSans-72" d="M 2631 2963 
Q 2534 3019 2420 3045 
Q 2306 3072 2169 3072 
Q 1681 3072 1420 2755 
Q 1159 2438 1159 1844 
L 1159 0 
L 581 0 
L 581 3500 
L 1159 3500 
L 1159 2956 
Q 1341 3275 1631 3429 
Q 1922 3584 2338 3584 
Q 2397 3584 2469 3576 
Q 2541 3569 2628 3553 
L 2631 2963 
z
" transform="scale(0.015625)"/>
       <path id="DejaVuSans-61" d="M 2194 1759 
Q 1497 1759 1228 1600 
Q 959 1441 959 1056 
Q 959 750 1161 570 
Q 1363 391 1709 391 
Q 2188 391 2477 730 
Q 2766 1069 2766 1631 
L 2766 1759 
L 2194 1759 
z
M 3341 1997 
L 3341 0 
L 2766 0 
L 2766 531 
Q 2569 213 2275 61 
Q 1981 -91 1556 -91 
Q 1019 -91 701 211 
Q 384 513 384 1019 
Q 384 1609 779 1909 
Q 1175 2209 1959 2209 
L 2766 2209 
L 2766 2266 
Q 2766 2663 2505 2880 
Q 2244 3097 1772 3097 
Q 1472 3097 1187 3025 
Q 903 2953 641 2809 
L 641 3341 
Q 956 3463 1253 3523 
Q 1550 3584 1831 3584 
Q 2591 3584 2966 3190 
Q 3341 2797 3341 1997 
z
" transform="scale(0.015625)"/>
       <path id="DejaVuSans-69" d="M 603 3500 
L 1178 3500 
L 1178 0 
L 603 0 
L 603 3500 
z
M 603 4863 
L 1178 4863 
L 1178 4134 
L 603 4134 
L 603 4863 
z
" transform="scale(0.015625)"/>
       <path id="DejaVuSans-6e" d="M 3513 2113 
L 3513 0 
L 2938 0 
L 2938 2094 
Q 2938 2591 2744 2837 
Q 2550 3084 2163 3084 
Q 1697 3084 1428 2787 
Q 1159 2491 1159 1978 
L 1159 0 
L 581 0 
L 581 3500 
L 1159 3500 
L 1159 2956 
Q 1366 3272 1645 3428 
Q 1925 3584 2291 3584 
Q 2894 3584 3203 3211 
Q 3513 2838 3513 2113 
z
" transform="scale(0.015625)"/>
      </defs>
      <use xlink:href="#DejaVuSans-53"/>
      <use xlink:href="#DejaVuSans-74" x="63.476562"/>
      <use xlink:href="#DejaVuSans-72" x="102.685547"/>
      <use xlink:href="#DejaVuSans-61" x="143.798828"/>
      <use xlink:href="#DejaVuSans-69" x="205.078125"/>
      <use xlink:href="#DejaVuSans-6e" x="232.861328"/>
     </g>
    </g>
   </g>
   <g id="matplotlib.axis_2">
    <g id="ytick_1">
     <g id="line2d_7">
      <defs>
       <path id="md0e7f8f6e1" d="M 0 0 
L -3.5 0 
" style="stroke: #000000; stroke-width: 0.8"/>
      </defs>
      <g>
       <use xlink:href="#md0e7f8f6e1" x="54" y="240.861071" style="stroke: #000000; stroke-width: 0.8"/>
      </g>
     </g>
     <g id="text_8">
      <!-- 0 -->
      <g transform="translate(40.6375 244.66029) scale(0.1 -0.1)">
       <use xlink:href="#DejaVuSans-30"/>
      </g>
     </g>
    </g>
    <g id="ytick_2">
     <g id="line2d_8">
      <g>
       <use xlink:href="#md0e7f8f6e1" x="54" y="209.637629" style="stroke: #000000; stroke-width: 0.8"/>
      </g>
     </g>
     <g id="text_9">
      <!-- 200 -->
      <g transform="translate(27.9125 213.436848) scale(0.1 -0.1)">
       <use xlink:href="#DejaVuSans-32"/>
       <use xlink:href="#DejaVuSans-30" x="63.623047"/>
       <use xlink:href="#DejaVuSans-30" x="127.246094"/>
      </g>
     </g>
    </g>
    <g id="ytick_3">
     <g id="line2d_9">
      <g>
       <use xlink:href="#md0e7f8f6e1" x="54" y="178.414186" style="stroke: #000000; stroke-width: 0.8"/>
      </g>
     </g>
     <g id="text_10">
      <!-- 400 -->
      <g transform="translate(27.9125 182.213405) scale(0.1 -0.1)">
       <defs>
        <path id="DejaVuSans-34" d="M 2419 4116 
L 825 1625 
L 2419 1625 
L 2419 4116 
z
M 2253 4666 
L 3047 4666 
L 3047 1625 
L 3713 1625 
L 3713 1100 
L 3047 1100 
L 3047 0 
L 2419 0 
L 2419 1100 
L 313 1100 
L 313 1709 
L 2253 4666 
z
" transform="scale(0.015625)"/>
       </defs>
       <use xlink:href="#DejaVuSans-34"/>
       <use xlink:href="#DejaVuSans-30" x="63.623047"/>
       <use xlink:href="#DejaVuSans-30" x="127.246094"/>
      </g>
     </g>
    </g>
    <g id="ytick_4">
     <g id="line2d_10">
      <g>
       <use xlink:href="#md0e7f8f6e1" x="54" y="147.190744" style="stroke: #000000; stroke-width: 0.8"/>
      </g>
     </g>
     <g id="text_11">
      <!-- 600 -->
      <g transform="translate(27.9125 150.989963) scale(0.1 -0.1)">
       <defs>
        <path id="DejaVuSans-36" d="M 2113 2584 
Q 1688 2584 1439 2293 
Q 1191 2003 1191 1497 
Q 1191 994 1439 701 
Q 1688 409 2113 409 
Q 2538 409 2786 701 
Q 3034 994 3034 1497 
Q 3034 2003 2786 2293 
Q 2538 2584 2113 2584 
z
M 3366 4563 
L 3366 3988 
Q 3128 4100 2886 4159 
Q 2644 4219 2406 4219 
Q 1781 4219 1451 3797 
Q 1122 3375 1075 2522 
Q 1259 2794 1537 2939 
Q 1816 3084 2150 3084 
Q 2853 3084 3261 2657 
Q 3669 2231 3669 1497 
Q 3669 778 3244 343 
Q 2819 -91 2113 -91 
Q 1303 -91 875 529 
Q 447 1150 447 2328 
Q 447 3434 972 4092 
Q 1497 4750 2381 4750 
Q 2619 4750 2861 4703 
Q 3103 4656 3366 4563 
z
" transform="scale(0.015625)"/>
       </defs>
       <use xlink:href="#DejaVuSans-36"/>
       <use xlink:href="#DejaVuSans-30" x="63.623047"/>
       <use xlink:href="#DejaVuSans-30" x="127.246094"/>
      </g>
     </g>
    </g>
    <g id="ytick_5">
     <g id="line2d_11">
      <g>
       <use xlink:href="#md0e7f8f6e1" x="54" y="115.967301" style="stroke: #000000; stroke-width: 0.8"/>
      </g>
     </g>
     <g id="text_12">
      <!-- 800 -->
      <g transform="translate(27.9125 119.76652) scale(0.1 -0.1)">
       <defs>
        <path id="DejaVuSans-38" d="M 2034 2216 
Q 1584 2216 1326 1975 
Q 1069 1734 1069 1313 
Q 1069 891 1326 650 
Q 1584 409 2034 409 
Q 2484 409 2743 651 
Q 3003 894 3003 1313 
Q 3003 1734 2745 1975 
Q 2488 2216 2034 2216 
z
M 1403 2484 
Q 997 2584 770 2862 
Q 544 3141 544 3541 
Q 544 4100 942 4425 
Q 1341 4750 2034 4750 
Q 2731 4750 3128 4425 
Q 3525 4100 3525 3541 
Q 3525 3141 3298 2862 
Q 3072 2584 2669 2484 
Q 3125 2378 3379 2068 
Q 3634 1759 3634 1313 
Q 3634 634 3220 271 
Q 2806 -91 2034 -91 
Q 1263 -91 848 271 
Q 434 634 434 1313 
Q 434 1759 690 2068 
Q 947 2378 1403 2484 
z
M 1172 3481 
Q 1172 3119 1398 2916 
Q 1625 2713 2034 2713 
Q 2441 2713 2670 2916 
Q 2900 3119 2900 3481 
Q 2900 3844 2670 4047 
Q 2441 4250 2034 4250 
Q 1625 4250 1398 4047 
Q 1172 3844 1172 3481 
z
" transform="scale(0.015625)"/>
       </defs>
       <use xlink:href="#DejaVuSans-38"/>
       <use xlink:href="#DejaVuSans-30" x="63.623047"/>
       <use xlink:href="#DejaVuSans-30" x="127.246094"/>
      </g>
     </g>
    </g>
    <g id="ytick_6">
     <g id="line2d_12">
      <g>
       <use xlink:href="#md0e7f8f6e1" x="54" y="84.743859" style="stroke: #000000; stroke-width: 0.8"/>
      </g>
     </g>
     <g id="text_13">
      <!-- 1000 -->
      <g transform="translate(21.55 88.543077) scale(0.1 -0.1)">
       <use xlink:href="#DejaVuSans-31"/>
       <use xlink:href="#DejaVuSans-30" x="63.623047"/>
       <use xlink:href="#DejaVuSans-30" x="127.246094"/>
       <use xlink:href="#DejaVuSans-30" x="190.869141"/>
      </g>
     </g>
    </g>
    <g id="ytick_7">
     <g id="line2d_13">
      <g>
       <use xlink:href="#md0e7f8f6e1" x="54" y="53.520416" style="stroke: #000000; stroke-width: 0.8"/>
      </g>
     </g>
     <g id="text_14">
      <!-- 1200 -->
      <g transform="translate(21.55 57.319635) scale(0.1 -0.1)">
       <use xlink:href="#DejaVuSans-31"/>
       <use xlink:href="#DejaVuSans-32" x="63.623047"/>
       <use xlink:href="#DejaVuSans-30" x="127.246094"/>
       <use xlink:href="#DejaVuSans-30" x="190.869141"/>
      </g>
     </g>
    </g>
    <g id="text_15">
     <!-- Stress [Pa] -->
     <g transform="translate(15.470312 172.147812) rotate(-90) scale(0.1 -0.1)">
      <defs>
       <path id="DejaVuSans-65" d="M 3597 1894 
L 3597 1613 
L 953 1613 
Q 991 1019 1311 708 
Q 1631 397 2203 397 
Q 2534 397 2845 478 
Q 3156 559 3463 722 
L 3463 178 
Q 3153 47 2828 -22 
Q 2503 -91 2169 -91 
Q 1331 -91 842 396 
Q 353 884 353 1716 
Q 353 2575 817 3079 
Q 1281 3584 2069 3584 
Q 2775 3584 3186 3129 
Q 3597 2675 3597 1894 
z
M 3022 2063 
Q 3016 2534 2758 2815 
Q 2500 3097 2075 3097 
Q 1594 3097 1305 2825 
Q 1016 2553 972 2059 
L 3022 2063 
z
" transform="scale(0.015625)"/>
       <path id="DejaVuSans-73" d="M 2834 3397 
L 2834 2853 
Q 2591 2978 2328 3040 
Q 2066 3103 1784 3103 
Q 1356 3103 1142 2972 
Q 928 2841 928 2578 
Q 928 2378 1081 2264 
Q 1234 2150 1697 2047 
L 1894 2003 
Q 2506 1872 2764 1633 
Q 3022 1394 3022 966 
Q 3022 478 2636 193 
Q 2250 -91 1575 -91 
Q 1294 -91 989 -36 
Q 684 19 347 128 
L 347 722 
Q 666 556 975 473 
Q 1284 391 1588 391 
Q 1994 391 2212 530 
Q 2431 669 2431 922 
Q 2431 1156 2273 1281 
Q 2116 1406 1581 1522 
L 1381 1569 
Q 847 1681 609 1914 
Q 372 2147 372 2553 
Q 372 3047 722 3315 
Q 1072 3584 1716 3584 
Q 2034 3584 2315 3537 
Q 2597 3491 2834 3397 
z
" transform="scale(0.015625)"/>
       <path id="DejaVuSans-20" transform="scale(0.015625)"/>
       <path id="DejaVuSans-5b" d="M 550 4863 
L 1875 4863 
L 1875 4416 
L 1125 4416 
L 1125 -397 
L 1875 -397 
L 1875 -844 
L 550 -844 
L 550 4863 
z
" transform="scale(0.015625)"/>
       <path id="DejaVuSans-50" d="M 1259 4147 
L 1259 2394 
L 2053 2394 
Q 2494 2394 2734 2622 
Q 2975 2850 2975 3272 
Q 2975 3691 2734 3919 
Q 2494 4147 2053 4147 
L 1259 4147 
z
M 628 4666 
L 2053 4666 
Q 2838 4666 3239 4311 
Q 3641 3956 3641 3272 
Q 3641 2581 3239 2228 
Q 2838 1875 2053 1875 
L 1259 1875 
L 1259 0 
L 628 0 
L 628 4666 
z
" transform="scale(0.015625)"/>
       <path id="DejaVuSans-5d" d="M 1947 4863 
L 1947 -844 
L 622 -844 
L 622 -397 
L 1369 -397 
L 1369 4416 
L 622 4416 
L 622 4863 
L 1947 4863 
z
" transform="scale(0.015625)"/>
      </defs>
      <use xlink:href="#DejaVuSans-53"/>
      <use xlink:href="#DejaVuSans-74" x="63.476562"/>
      <use xlink:href="#DejaVuSans-72" x="102.685547"/>
      <use xlink:href="#DejaVuSans-65" x="141.548828"/>
      <use xlink:href="#DejaVuSans-73" x="203.072266"/>
      <use xlink:href="#DejaVuSans-73" x="255.171875"/>
      <use xlink:href="#DejaVuSans-20" x="307.271484"/>
      <use xlink:href="#DejaVuSans-5b" x="339.058594"/>
      <use xlink:href="#DejaVuSans-50" x="378.072266"/>
      <use xlink:href="#DejaVuSans-61" x="433.875"/>
      <use xlink:href="#DejaVuSans-5d" x="495.154297"/>
     </g>
    </g>
   </g>
   <g id="line2d_14">
    <path d="M 69.312737 242.105042 
L 69.312737 242.105028 
L 69.312756 242.42104 
L 69.324112 242.339429 
L 69.764682 242.185526 
L 70.205782 240.727865 
L 71.104141 239.613424 
L 71.985513 240.8953 
L 72.447413 241.541998 
L 72.915786 241.952964 
L 73.379343 242.761253 
L 73.820361 242.940658 
L 74.272979 243.558847 
L 74.707533 243.753164 
L 75.146727 242.763537 
L 75.590728 242.235647 
L 76.918586 241.333054 
L 77.364575 240.941163 
L 77.815537 241.356416 
L 78.733204 242.398372 
L 80.076144 243.392551 
L 80.5223 242.159712 
L 80.96746 241.283873 
L 81.415604 241.128616 
L 81.852561 241.203009 
L 82.742882 242.020349 
L 83.628397 242.125613 
L 84.080187 242.102321 
L 84.968433 241.577455 
L 86.302672 241.352616 
L 86.744601 240.564155 
L 87.185949 240.504556 
L 87.620503 241.165405 
L 88.062515 241.541493 
L 89.427166 242.094719 
L 90.308206 240.727933 
L 90.745163 240.623347 
L 91.195294 240.865015 
L 91.632334 241.23592 
L 92.077495 241.26744 
L 92.521992 240.890899 
L 93.410905 240.607679 
L 94.304126 240.321018 
L 95.180029 240.265109 
L 96.966705 239.963271 
L 98.328539 239.67131 
L 99.233776 239.438207 
L 100.554674 239.186229 
L 101.435217 239.177967 
L 103.226963 238.844907 
L 105.885 238.191124 
L 106.77868 237.697506 
L 108.111013 237.509098 
L 108.552362 237.659119 
L 109.456936 237.370489 
L 110.79739 236.718562 
L 111.698981 236.653286 
L 112.138673 236.58149 
L 113.035869 236.110109 
L 113.931163 235.996866 
L 115.255043 235.797194 
L 116.156634 235.450705 
L 117.516148 235.137564 
L 118.422913 234.823247 
L 119.785575 234.513838 
L 121.55445 233.750816 
L 123.334099 233.483745 
L 124.226243 233.433742 
L 125.098334 233.103029 
L 125.533882 232.860189 
L 128.637576 231.953185 
L 129.534693 231.674691 
L 133.969394 230.573854 
L 134.874797 230.143401 
L 135.748048 230.000776 
L 137.934738 228.980664 
L 138.813458 228.788037 
L 139.703976 228.294469 
L 140.142176 228.406278 
L 141.468045 228.185102 
L 141.916106 227.984819 
L 142.365079 227.528264 
L 143.261201 227.11268 
L 143.700229 227.13579 
L 144.603809 226.791419 
L 145.487418 226.398793 
L 145.932745 226.262404 
L 146.379728 226.272922 
L 147.27701 225.950211 
L 148.629397 225.306103 
L 149.946483 225.028985 
L 151.747024 223.890364 
L 153.516231 223.531907 
L 154.41343 222.975057 
L 155.754049 222.203668 
L 156.194901 222.042406 
L 156.636245 222.0427 
L 157.076433 221.927783 
L 157.949021 221.441362 
L 158.403794 221.33831 
L 159.312843 220.904874 
L 160.626946 220.453132 
L 161.973418 219.792745 
L 163.325887 219.187115 
L 163.779666 219.101182 
L 168.239477 216.825847 
L 168.694415 216.751695 
L 170.475224 215.77083 
L 170.913921 215.472061 
L 172.245529 215.081737 
L 172.699473 214.786033 
L 173.1448 214.33063 
L 173.592695 214.040809 
L 175.360244 213.643254 
L 176.72473 212.718995 
L 177.61472 212.459018 
L 178.515814 212.083722 
L 180.307477 210.827023 
L 180.7475 210.632252 
L 181.642462 210.441861 
L 182.084308 210.263649 
L 183.876148 208.908456 
L 184.321474 208.705911 
L 185.208813 208.459162 
L 185.660437 208.204433 
L 186.554984 207.555593 
L 187.428898 207.178346 
L 188.307286 206.680282 
L 189.21501 206.101257 
L 190.541045 205.780963 
L 190.989935 205.556717 
L 191.882576 204.761469 
L 192.761793 204.403898 
L 193.652114 204.186594 
L 195.427961 202.82413 
L 195.864504 202.734976 
L 196.76452 202.285681 
L 198.095196 201.254815 
L 198.540854 201.21056 
L 198.988003 201.024367 
L 201.178671 199.447713 
L 202.063689 199.340221 
L 202.951358 198.776376 
L 204.313523 197.775477 
L 205.676786 196.957512 
L 206.550203 196.455293 
L 208.787276 195.073821 
L 211.491552 193.306161 
L 214.604031 191.557075 
L 215.50645 190.724678 
L 216.413221 190.049107 
L 217.285643 189.713684 
L 217.739422 189.504947 
L 218.632063 188.665722 
L 219.081533 188.2747 
L 219.517578 188.146672 
L 220.395967 187.656219 
L 220.835658 187.522123 
L 222.175615 186.494771 
L 223.951285 185.509956 
L 226.621182 183.556808 
L 228.415084 182.439481 
L 229.294301 181.723136 
L 229.74261 181.23943 
L 231.533363 180.545392 
L 231.984158 180.222825 
L 232.884009 179.380391 
L 233.772839 178.825021 
L 234.660343 178.192845 
L 236.006183 177.262889 
L 236.893853 176.631454 
L 237.78204 175.803953 
L 238.684791 175.219251 
L 239.12498 175.066843 
L 243.601457 171.926926 
L 244.509677 171.165288 
L 245.400993 170.560429 
L 252.523522 165.138481 
L 252.967688 164.667116 
L 254.296706 164.036705 
L 255.639232 162.838669 
L 256.534774 162.031367 
L 258.300335 160.975918 
L 261.840302 158.347933 
L 262.290435 157.85242 
L 264.960487 155.783688 
L 266.297378 154.527976 
L 266.737732 154.296798 
L 269.424275 151.922037 
L 269.86347 151.709597 
L 273.430348 148.550839 
L 273.87236 148.277144 
L 276.539595 145.910816 
L 277.425607 145.270784 
L 279.654228 143.219 
L 280.990497 142.18157 
L 281.876509 141.152284 
L 282.772134 140.31816 
L 284.098169 139.410212 
L 289.398415 134.568951 
L 292.522722 131.844985 
L 293.866988 130.608156 
L 296.511932 128.404469 
L 297.397778 127.807837 
L 300.979614 124.282802 
L 302.744284 122.645973 
L 303.624164 121.569625 
L 304.520452 120.714437 
L 305.428673 119.895863 
L 306.30126 119.344319 
L 308.556233 116.922496 
L 309.434787 116.271767 
L 311.226865 114.378902 
L 312.549917 113.10731 
L 313.889376 111.748475 
L 314.781024 110.968735 
L 315.667533 109.950146 
L 317.454474 108.20431 
L 318.33916 107.141867 
L 323.208332 102.321421 
L 324.558233 100.553772 
L 325.905482 99.322578 
L 326.80699 98.527865 
L 328.153162 96.687493 
L 330.381783 94.660969 
L 332.176016 92.602974 
L 333.935941 90.736931 
L 334.814993 89.810903 
L 337.931014 86.195394 
L 338.838074 85.519694 
L 339.741488 84.509332 
L 341.095201 82.706808 
L 342.8422 80.817645 
L 347.710751 75.230059 
L 348.58251 74.334309 
L 352.198487 69.882547 
L 354.416003 67.51807 
L 355.321241 66.148651 
L 356.209739 65.195225 
L 357.979153 63.213912 
L 359.291432 61.586226 
L 360.183908 60.427354 
L 361.525522 58.773175 
L 363.314037 56.453539 
L 364.195409 55.409855 
L 366.011518 53.310804 
L 367.34468 51.516343 
L 370.038577 48.150945 
L 371.815242 46.264169 
L 373.148611 45.315206 
L 373.313475 44.95545 
L 373.581818 44.64 
L 373.43417 49.343962 
L 373.435724 72.738742 
L 373.431353 72.658912 
L 372.993422 72.790504 
L 372.094441 75.737914 
L 371.648783 76.017841 
L 371.183403 75.815809 
L 370.719018 75.890599 
L 369.826542 76.328231 
L 369.383701 76.261915 
L 368.925945 76.701933 
L 368.475315 76.390432 
L 367.596098 79.259267 
L 367.141491 80.364741 
L 366.690695 82.097824 
L 366.234927 83.249085 
L 365.334331 82.397559 
L 364.896296 82.582209 
L 364.018074 83.294481 
L 363.563135 82.981561 
L 363.122449 84.539199 
L 362.682385 86.872184 
L 362.234904 87.76308 
L 361.79024 88.103707 
L 360.908206 88.523114 
L 359.562448 89.908988 
L 358.68522 91.368911 
L 357.347832 93.206321 
L 356.902754 93.922131 
L 356.446821 95.362966 
L 356.004312 95.519396 
L 355.558986 95.364118 
L 355.118134 95.510715 
L 354.673305 95.997055 
L 354.232785 96.22487 
L 353.78721 96.803287 
L 353.342629 98.478118 
L 352.887193 99.292496 
L 352.449822 99.409463 
L 351.997369 99.728945 
L 351.546366 99.805236 
L 350.199697 102.30185 
L 349.310371 102.782718 
L 348.875817 103.304436 
L 347.979198 104.70512 
L 347.088876 105.704374 
L 346.642058 105.890341 
L 346.192174 106.427487 
L 345.314946 108.168304 
L 343.538447 109.767028 
L 343.10381 110.313841 
L 342.64912 111.182357 
L 342.195092 111.762575 
L 340.853064 112.935372 
L 339.959842 114.02653 
L 339.514516 114.46375 
L 339.05908 114.752295 
L 338.163124 115.688279 
L 336.822836 117.795475 
L 335.487354 118.937645 
L 334.60333 120.202407 
L 332.79733 121.734035 
L 331.90502 123.238388 
L 330.111202 124.346124 
L 329.227448 126.187494 
L 328.783944 126.556671 
L 327.467688 127.119004 
L 326.561953 128.702013 
L 326.112649 129.206865 
L 324.768881 130.115162 
L 324.315185 131.144777 
L 323.42014 132.314838 
L 322.092282 132.783971 
L 320.745198 135.191397 
L 318.962919 136.109907 
L 318.526128 137.218507 
L 318.088757 137.886843 
L 316.745983 138.60975 
L 316.296264 138.688797 
L 315.844474 139.879181 
L 315.393265 140.513537 
L 314.946778 140.82296 
L 313.6224 140.962996 
L 312.74136 142.75935 
L 312.289321 143.317764 
L 311.385907 143.638037 
L 310.93246 143.774792 
L 310.485642 144.911202 
L 309.142951 145.800164 
L 308.704254 146.029388 
L 308.267131 146.053423 
L 307.387106 147.905006 
L 306.950315 148.200051 
L 306.513441 148.2589 
L 306.07491 148.438387 
L 305.628257 148.79152 
L 304.309763 150.648553 
L 303.856481 150.963468 
L 302.96732 151.393489 
L 302.062746 152.999536 
L 301.626369 153.232586 
L 300.728756 153.400298 
L 300.278623 153.594636 
L 299.379518 155.014408 
L 298.924165 155.438875 
L 297.58255 155.879078 
L 297.136458 156.899071 
L 296.695192 157.419555 
L 295.800396 157.986526 
L 294.915046 158.507669 
L 294.02746 159.765931 
L 292.25038 160.441318 
L 291.812843 161.214228 
L 291.364534 161.737839 
L 290.91987 162.041523 
L 290.466257 162.20256 
L 289.574113 162.757374 
L 288.692658 164.226513 
L 287.342592 164.895456 
L 286.895774 165.287711 
L 286.009037 166.554268 
L 285.120041 166.857675 
L 284.676704 167.039692 
L 284.228808 167.42948 
L 283.793509 168.190377 
L 283.345862 168.641831 
L 282.008557 169.209934 
L 280.219297 170.911895 
L 279.335107 171.32147 
L 278.002112 172.928011 
L 275.799345 174.298294 
L 274.019055 175.543582 
L 273.567099 175.896139 
L 272.677772 176.761364 
L 271.792423 177.413986 
L 270.89108 178.246218 
L 270.015344 178.779784 
L 266.447844 181.357441 
L 265.569538 182.362989 
L 265.117914 182.382237 
L 264.218643 182.820588 
L 261.989691 184.679185 
L 261.549171 184.762398 
L 259.327013 186.489495 
L 258.454094 187.024769 
L 256.222076 188.947912 
L 255.337555 189.285792 
L 251.33834 191.872967 
L 250.883898 192.057515 
L 249.991339 192.686975 
L 247.749626 194.147279 
L 247.294355 194.422578 
L 245.953487 195.585399 
L 244.637562 196.128504 
L 242.848964 197.403947 
L 241.503869 198.33376 
L 240.623989 198.839722 
L 239.722067 199.123166 
L 237.486982 200.822639 
L 236.607434 201.223966 
L 235.243611 202.051179 
L 232.15765 203.870735 
L 226.368076 206.967701 
L 225.474772 207.318613 
L 223.693797 208.378299 
L 221.00654 209.834597 
L 220.550772 210.178433 
L 220.095833 210.376679 
L 219.186784 211.013092 
L 218.310219 211.403337 
L 217.872185 211.727714 
L 215.635609 212.686563 
L 213.827952 213.739518 
L 211.602811 214.874221 
L 210.708761 215.229249 
L 209.809646 215.557066 
L 208.899933 215.970221 
L 208.446652 216.352809 
L 207.100066 216.913804 
L 206.201955 217.199563 
L 205.322406 217.789694 
L 203.528257 218.843138 
L 202.639261 219.074936 
L 198.60463 221.143156 
L 198.169248 221.139958 
L 197.734694 221.261491 
L 196.841141 221.847756 
L 195.951151 222.545054 
L 194.198186 222.815971 
L 192.855081 223.597726 
L 191.976195 223.946987 
L 191.096646 224.421684 
L 190.222235 225.068217 
L 187.967947 225.750898 
L 187.090055 226.23444 
L 186.207192 226.350165 
L 185.307258 226.677463 
L 184.417683 227.330249 
L 182.186742 228.034716 
L 180.826566 228.736148 
L 180.37345 228.769653 
L 178.145243 229.761245 
L 177.25688 229.885005 
L 176.352968 230.439717 
L 175.01384 231.136634 
L 174.12269 231.199667 
L 171.447832 232.608934 
L 170.547318 232.890224 
L 169.209019 232.947413 
L 166.996723 234.11467 
L 166.109664 234.344216 
L 165.664835 234.582984 
L 165.22216 234.639022 
L 164.347418 235.015779 
L 161.696342 235.620683 
L 160.78663 236.074297 
L 159.896143 236.537629 
L 159.016097 236.668274 
L 158.1334 236.719037 
L 156.349028 237.344588 
L 155.448882 237.326524 
L 155.013168 237.473265 
L 153.693514 238.431381 
L 152.803193 238.383649 
L 152.350905 238.328978 
L 151.908894 238.420237 
L 151.460833 238.663489 
L 151.019732 239.045871 
L 150.569683 239.218889 
L 150.125682 239.132398 
L 148.786223 239.323633 
L 147.890846 239.877435 
L 147.00152 239.750495 
L 146.545421 239.653439 
L 145.205132 240.223131 
L 144.313915 240.374044 
L 143.414561 240.421881 
L 142.97255 240.771723 
L 142.073279 240.907843 
L 141.627124 240.808205 
L 140.738128 241.019067 
L 139.405629 241.738785 
L 138.962623 241.771486 
L 138.51912 241.624313 
L 137.637085 241.665752 
L 135.847908 242.113458 
L 134.969519 242.063491 
L 133.174774 242.49071 
L 132.721658 242.659658 
L 131.831171 242.630696 
L 130.056412 242.917788 
L 129.161201 243.084803 
L 128.705599 243.024401 
L 127.828868 243.069389 
L 124.679266 243.120585 
L 124.22847 243.461047 
L 121.578839 243.635475 
L 120.696639 243.769872 
L 119.806649 243.609451 
L 119.354196 243.661459 
L 118.469095 244.16845 
L 117.574051 244.262148 
L 116.688204 244.042412 
L 116.237243 244.165085 
L 115.787939 244.46336 
L 115.351562 244.494594 
L 113.58451 244.147569 
L 112.689131 244.550068 
L 112.252109 244.676422 
L 110.915965 244.745303 
L 110.467738 244.887807 
L 109.144686 244.821262 
L 108.703503 245.018007 
L 107.818734 244.972515 
L 103.828198 245.498819 
L 103.38022 245.713027 
L 102.472166 245.859016 
L 102.035789 245.769953 
L 100.711452 245.990067 
L 99.370336 245.945813 
L 98.485401 246.218284 
L 98.032616 246.143967 
L 97.595411 246.24 
L 96.267221 246.100384 
L 95.81858 246.21657 
L 94.489562 246.008067 
L 93.580347 246.109745 
L 92.246688 245.977808 
L 90.463877 245.366956 
L 90.008109 244.936688 
L 88.665666 243.092037 
L 88.226969 242.747297 
L 87.341951 242.548163 
L 86.015005 242.411928 
L 84.692367 242.804562 
L 84.237428 242.657276 
L 83.781163 242.326522 
L 82.891671 242.164924 
L 81.990163 242.759128 
L 81.53887 242.741794 
L 80.213332 242.169243 
L 79.765685 242.114861 
L 79.327619 242.55878 
L 78.435972 242.530391 
L 77.992137 242.397349 
L 77.551452 242.483761 
L 77.111263 242.351579 
L 76.229063 242.500496 
L 75.789206 242.535965 
L 74.897227 242.322916 
L 73.99315 242.554578 
L 73.095205 242.396282 
L 72.207287 242.450444 
L 71.321523 242.685994 
L 70.879677 242.413852 
L 70.425401 241.909412 
L 69.54896 241.467916 
L 69.421262 241.617002 
L 69.218182 242.350283 
L 69.218439 242.33899 
" clip-path="url(#p6ce1cae6c1)" style="fill: none; stroke: #ff0000; stroke-width: 1.5; stroke-linecap: square"/>
   </g>
   <g id="line2d_15">
    <path d="M 69.312737 242.105042 
L 69.312737 242.105028 
L 69.312756 242.42104 
L 69.324112 242.339429 
L 69.764682 242.185526 
L 70.205782 240.727865 
L 71.104141 239.613424 
L 71.543833 243.410858 
L 71.985513 243.132618 
L 72.915786 242.998088 
L 73.379343 243.13911 
L 73.820361 242.943415 
L 74.272979 243.558847 
L 74.707533 243.753164 
L 75.146727 242.763537 
L 75.590728 242.235647 
L 76.918586 241.333054 
L 77.364575 240.941163 
L 77.815537 241.356416 
L 78.733204 242.398372 
L 80.076144 243.392551 
L 80.5223 242.159712 
L 80.96746 241.283873 
L 81.415604 241.128616 
L 81.852561 241.203009 
L 82.742882 242.020349 
L 83.628397 242.125613 
L 84.080187 242.102321 
L 84.968433 241.577455 
L 86.302672 241.352616 
L 86.744601 240.564155 
L 87.185949 240.504556 
L 87.620503 241.165405 
L 88.062515 241.541493 
L 89.427166 242.094719 
L 90.308206 240.727933 
L 90.745163 240.623347 
L 91.195294 240.865015 
L 91.632334 241.23592 
L 92.077495 241.26744 
L 92.521992 240.890899 
L 93.410905 240.607679 
L 94.304126 240.321018 
L 95.180029 240.265109 
L 96.966705 239.963271 
L 98.328539 239.67131 
L 99.233776 239.438207 
L 100.554674 239.186229 
L 101.435217 239.177967 
L 103.226963 238.844907 
L 105.885 238.191124 
L 106.77868 237.697506 
L 108.111013 237.509098 
L 108.552362 237.659119 
L 109.456936 237.370489 
L 110.79739 236.718562 
L 111.698981 236.653286 
L 112.138673 236.58149 
L 113.035869 236.110109 
L 113.931163 235.996866 
L 115.255043 235.797194 
L 116.156634 235.450705 
L 117.516148 235.137564 
L 118.422913 234.823247 
L 119.785575 234.513838 
L 121.55445 233.750816 
L 123.334099 233.483745 
L 124.226243 233.433742 
L 125.098334 233.103029 
L 125.533882 232.860189 
L 128.637576 231.953185 
L 129.534693 231.674691 
L 133.969394 230.573854 
L 134.874797 230.143401 
L 135.748048 230.000776 
L 137.934738 228.980664 
L 138.813458 228.788037 
L 139.703976 228.294469 
L 140.142176 228.406278 
L 141.468045 228.185102 
L 141.916106 227.984819 
L 142.365079 227.528264 
L 143.261201 227.11268 
L 143.700229 227.13579 
L 144.603809 226.791419 
L 145.487418 226.398793 
L 145.932745 226.262404 
L 146.379728 226.272922 
L 147.27701 225.950211 
L 148.629397 225.306103 
L 149.946483 225.028985 
L 151.747024 223.890364 
L 153.516231 223.531907 
L 154.41343 222.975057 
L 155.754049 222.203668 
L 156.194901 222.042406 
L 156.636245 222.0427 
L 157.076433 221.927783 
L 157.949021 221.441362 
L 158.403794 221.33831 
L 159.312843 220.904874 
L 160.626946 220.453132 
L 161.973418 219.792745 
L 163.325887 219.187115 
L 163.779666 219.101182 
L 168.239477 216.825847 
L 168.694415 216.751695 
L 170.475224 215.77083 
L 170.913921 215.472061 
L 172.245529 215.081737 
L 172.699473 214.786033 
L 173.1448 214.33063 
L 173.592695 214.040809 
L 175.360244 213.643254 
L 176.72473 212.718995 
L 177.61472 212.459018 
L 178.515814 212.083722 
L 180.307477 210.827023 
L 180.7475 210.632252 
L 181.642462 210.441861 
L 182.084308 210.263649 
L 183.876148 208.908456 
L 184.321474 208.705911 
L 185.208813 208.459162 
L 185.660437 208.204433 
L 186.554984 207.555593 
L 187.428898 207.178346 
L 188.307286 206.680282 
L 189.21501 206.101257 
L 190.541045 205.780963 
L 190.989935 205.556717 
L 191.882576 204.761469 
L 192.761793 204.403898 
L 193.652114 204.186594 
L 195.427961 202.82413 
L 195.864504 202.734976 
L 196.76452 202.285681 
L 198.095196 201.254815 
L 198.540854 201.21056 
L 198.988003 201.024367 
L 201.178671 199.447713 
L 202.063689 199.340221 
L 202.951358 198.776376 
L 204.313523 197.775477 
L 205.676786 196.957512 
L 206.550203 196.455293 
L 208.787276 195.073821 
L 211.491552 193.306161 
L 214.604031 191.557075 
L 215.50645 190.724678 
L 216.413221 190.049107 
L 217.285643 189.713684 
L 217.739422 189.504947 
L 218.632063 188.665722 
L 219.081533 188.2747 
L 219.517578 188.146672 
L 220.395967 187.656219 
L 220.835658 187.522123 
L 222.175615 186.494771 
L 223.951285 185.509956 
L 226.621182 183.556808 
L 228.415084 182.439481 
L 229.294301 181.723136 
L 229.74261 181.23943 
L 231.533363 180.545392 
L 231.984158 180.222825 
L 232.884009 179.380391 
L 233.772839 178.825021 
L 234.660343 178.192845 
L 236.006183 177.262889 
L 236.893853 176.631454 
L 237.78204 175.803953 
L 238.684791 175.219251 
L 239.12498 175.066843 
L 243.601457 171.926926 
L 244.509677 171.165288 
L 245.400993 170.560429 
L 252.523522 165.138481 
L 252.967688 164.667116 
L 254.296706 164.036705 
L 255.639232 162.838669 
L 256.534774 162.031367 
L 258.300335 160.975918 
L 261.840302 158.347933 
L 262.290435 157.85242 
L 264.960487 155.783688 
L 266.297378 154.527976 
L 266.737732 154.296798 
L 269.424275 151.922037 
L 269.86347 151.709597 
L 273.430348 148.550839 
L 273.87236 148.277144 
L 276.539595 145.910816 
L 277.425607 145.270784 
L 279.654228 143.219 
L 280.990497 142.18157 
L 281.876509 141.152284 
L 282.772134 140.31816 
L 284.098169 139.410212 
L 289.398415 134.568951 
L 292.522722 131.844985 
L 293.866988 130.608156 
L 296.511932 128.404469 
L 297.397778 127.807837 
L 300.979614 124.282802 
L 302.744284 122.645973 
L 303.624164 121.569625 
L 304.520452 120.714437 
L 305.428673 119.895863 
L 306.30126 119.344319 
L 308.556233 116.922496 
L 309.434787 116.271767 
L 311.226865 114.378902 
L 312.549917 113.10731 
L 313.889376 111.748475 
L 314.781024 110.968735 
L 315.667533 109.950146 
L 317.454474 108.20431 
L 318.33916 107.141867 
L 323.208332 102.321421 
L 324.558233 100.553772 
L 325.905482 99.322578 
L 326.80699 98.527865 
L 328.153162 96.687493 
L 330.381783 94.660969 
L 332.176016 92.602974 
L 333.935941 90.736931 
L 334.814993 89.810903 
L 337.931014 86.195394 
L 338.838074 85.519694 
L 339.741488 84.509332 
L 341.095201 82.706808 
L 342.8422 80.817645 
L 347.710751 75.230059 
L 348.58251 74.334309 
L 352.198487 69.882547 
L 354.416003 67.51807 
L 355.321241 66.148651 
L 356.209739 65.195225 
L 357.979153 63.213912 
L 359.291432 61.586226 
L 360.183908 60.427354 
L 361.525522 58.773175 
L 363.314037 56.453539 
L 364.195409 55.409855 
L 366.011518 53.310804 
L 367.34468 51.516343 
L 370.038577 48.150945 
L 371.815242 46.264169 
L 373.148611 45.315206 
L 373.313475 44.95545 
L 373.581818 44.64 
L 373.43417 49.343962 
L 373.435724 72.738742 
L 373.431353 72.658912 
L 372.993422 72.790504 
L 372.094441 75.737914 
L 371.648783 76.017841 
L 371.183403 75.815809 
L 370.719018 75.890599 
L 369.826542 76.328231 
L 369.383701 76.261915 
L 368.925945 76.701933 
L 368.475315 76.390432 
L 367.596098 79.259267 
L 367.141491 80.364741 
L 366.690695 82.097824 
L 366.234927 83.249085 
L 365.334331 82.397559 
L 364.896296 82.582209 
L 364.018074 83.294481 
L 363.563135 82.981561 
L 363.122449 84.539199 
L 362.682385 86.872184 
L 362.234904 87.76308 
L 361.79024 88.103707 
L 360.908206 88.523114 
L 359.562448 89.908988 
L 358.68522 91.368911 
L 357.347832 93.206321 
L 356.902754 93.922131 
L 356.446821 95.362966 
L 356.004312 95.519396 
L 355.558986 95.364118 
L 355.118134 95.510715 
L 354.673305 95.997055 
L 354.232785 96.22487 
L 353.78721 96.803287 
L 353.342629 98.478118 
L 352.887193 99.292496 
L 352.449822 99.409463 
L 351.997369 99.728945 
L 351.546366 99.805236 
L 350.199697 102.30185 
L 349.310371 102.782718 
L 348.875817 103.304436 
L 347.979198 104.70512 
L 347.088876 105.704374 
L 346.642058 105.890341 
L 346.192174 106.427487 
L 345.314946 108.168304 
L 343.538447 109.767028 
L 343.10381 110.313841 
L 342.64912 111.182357 
L 342.195092 111.762575 
L 340.853064 112.935372 
L 339.959842 114.02653 
L 339.514516 114.46375 
L 339.05908 114.752295 
L 338.163124 115.688279 
L 336.822836 117.795475 
L 335.487354 118.937645 
L 334.60333 120.202407 
L 332.79733 121.734035 
L 331.90502 123.238388 
L 330.111202 124.346124 
L 329.227448 126.187494 
L 328.783944 126.556671 
L 327.467688 127.119004 
L 326.561953 128.702013 
L 326.112649 129.206865 
L 324.768881 130.115162 
L 324.315185 131.144777 
L 323.42014 132.314838 
L 322.092282 132.783971 
L 320.745198 135.191397 
L 318.962919 136.109907 
L 318.526128 137.218507 
L 318.088757 137.886843 
L 316.745983 138.60975 
L 316.296264 138.688797 
L 315.844474 139.879181 
L 315.393265 140.513537 
L 314.946778 140.82296 
L 313.6224 140.962996 
L 312.74136 142.75935 
L 312.289321 143.317764 
L 311.385907 143.638037 
L 310.93246 143.774792 
L 310.485642 144.911202 
L 309.142951 145.800164 
L 308.704254 146.029388 
L 308.267131 146.053423 
L 307.387106 147.905006 
L 306.950315 148.200051 
L 306.513441 148.2589 
L 306.07491 148.438387 
L 305.628257 148.79152 
L 304.309763 150.648553 
L 303.856481 150.963468 
L 302.96732 151.393489 
L 302.062746 152.999536 
L 301.626369 153.232586 
L 300.728756 153.400298 
L 300.278623 153.594636 
L 299.379518 155.014408 
L 298.924165 155.438875 
L 297.58255 155.879078 
L 297.136458 156.899071 
L 296.695192 157.419555 
L 295.800396 157.986526 
L 294.915046 158.507669 
L 294.02746 159.765931 
L 292.25038 160.441318 
L 291.812843 161.214228 
L 291.364534 161.737839 
L 290.91987 162.041523 
L 290.466257 162.20256 
L 289.574113 162.757374 
L 288.692658 164.226513 
L 287.342592 164.895456 
L 286.895774 165.287711 
L 286.009037 166.554268 
L 285.120041 166.857675 
L 284.676704 167.039692 
L 284.228808 167.42948 
L 283.793509 168.190377 
L 283.345862 168.641831 
L 282.008557 169.209934 
L 280.219297 170.911895 
L 279.335107 171.32147 
L 278.002112 172.928011 
L 275.799345 174.298294 
L 274.019055 175.543582 
L 273.567099 175.896139 
L 272.677772 176.761364 
L 271.792423 177.413986 
L 270.89108 178.246218 
L 270.015344 178.779784 
L 266.447844 181.357441 
L 265.569538 182.362989 
L 265.117914 182.382237 
L 264.218643 182.820588 
L 261.989691 184.679185 
L 261.549171 184.762398 
L 259.327013 186.489495 
L 258.454094 187.024769 
L 256.222076 188.947912 
L 255.337555 189.285792 
L 251.33834 191.872967 
L 250.883898 192.057515 
L 249.991339 192.686975 
L 247.749626 194.147279 
L 247.294355 194.422578 
L 245.953487 195.585399 
L 244.637562 196.128504 
L 242.848964 197.403947 
L 241.503869 198.33376 
L 240.623989 198.839722 
L 239.722067 199.123166 
L 237.486982 200.822639 
L 236.607434 201.223966 
L 235.243611 202.051179 
L 232.15765 203.870735 
L 226.368076 206.967701 
L 225.474772 207.318613 
L 223.693797 208.378299 
L 221.00654 209.834597 
L 220.550772 210.178433 
L 220.095833 210.376679 
L 219.186784 211.013092 
L 218.310219 211.403337 
L 217.872185 211.727714 
L 215.635609 212.686563 
L 213.827952 213.739518 
L 211.602811 214.874221 
L 210.708761 215.229249 
L 209.809646 215.557066 
L 208.899933 215.970221 
L 208.446652 216.352809 
L 207.100066 216.913804 
L 206.201955 217.199563 
L 205.322406 217.789694 
L 203.528257 218.843138 
L 202.639261 219.074936 
L 198.60463 221.143156 
L 198.169248 221.139958 
L 197.734694 221.261491 
L 196.841141 221.847756 
L 195.951151 222.545054 
L 194.198186 222.815971 
L 192.855081 223.597726 
L 191.976195 223.946987 
L 191.096646 224.421684 
L 190.222235 225.068217 
L 187.967947 225.750898 
L 187.090055 226.23444 
L 186.207192 226.350165 
L 185.307258 226.677463 
L 184.417683 227.330249 
L 182.186742 228.034716 
L 180.826566 228.736148 
L 180.37345 228.769653 
L 178.145243 229.761245 
L 177.25688 229.885005 
L 176.352968 230.439717 
L 175.01384 231.136634 
L 174.12269 231.199667 
L 171.447832 232.608934 
L 170.547318 232.890224 
L 169.209019 232.947413 
L 166.996723 234.11467 
L 166.109664 234.344216 
L 165.664835 234.582984 
L 165.22216 234.639022 
L 164.347418 235.015779 
L 161.696342 235.620683 
L 160.78663 236.074297 
L 159.896143 236.537629 
L 159.016097 236.668274 
L 158.1334 236.719037 
L 156.349028 237.344588 
L 155.448882 237.326524 
L 155.013168 237.473265 
L 153.693514 238.431381 
L 152.803193 238.383649 
L 152.350905 238.328978 
L 151.908894 238.420237 
L 151.460833 238.663489 
L 151.019732 239.045871 
L 150.569683 239.218889 
L 150.125682 239.132398 
L 148.786223 239.323633 
L 147.890846 239.877435 
L 147.00152 239.750495 
L 146.545421 239.653439 
L 145.205132 240.223131 
L 144.313915 240.374044 
L 143.414561 240.421881 
L 142.97255 240.771723 
L 142.073279 240.907843 
L 141.627124 240.808205 
L 140.738128 241.019067 
L 139.405629 241.738785 
L 138.962623 241.771486 
L 138.51912 241.624313 
L 137.637085 241.665752 
L 135.847908 242.113458 
L 134.969519 242.063491 
L 133.174774 242.49071 
L 132.721658 242.659658 
L 131.831171 242.630696 
L 130.056412 242.917788 
L 129.161201 243.084803 
L 128.705599 243.024401 
L 127.828868 243.069389 
L 124.679266 243.120585 
L 124.22847 243.461047 
L 121.578839 243.635475 
L 120.696639 243.769872 
L 119.806649 243.609451 
L 119.354196 243.661459 
L 118.469095 244.16845 
L 117.574051 244.262148 
L 116.688204 244.042412 
L 116.237243 244.165085 
L 115.787939 244.46336 
L 115.351562 244.494594 
L 113.58451 244.147569 
L 112.689131 244.550068 
L 112.252109 244.676422 
L 110.915965 244.745303 
L 110.467738 244.887807 
L 109.144686 244.821262 
L 108.703503 245.018007 
L 107.818734 244.972515 
L 103.828198 245.498819 
L 103.38022 245.713027 
L 102.472166 245.859016 
L 102.035789 245.769953 
L 100.711452 245.990067 
L 99.370336 245.945813 
L 98.485401 246.218284 
L 98.032616 246.143967 
L 97.595411 246.24 
L 96.267221 246.100384 
L 95.81858 246.21657 
L 94.489562 246.008067 
L 93.580347 246.109745 
L 92.246688 245.977808 
L 90.463877 245.366956 
L 90.008109 244.936688 
L 88.665666 243.092037 
L 88.226969 242.747297 
L 87.341951 242.548163 
L 86.015005 242.411928 
L 84.692367 242.804562 
L 84.237428 242.657276 
L 83.781163 242.326522 
L 82.891671 242.164924 
L 81.990163 242.759128 
L 81.53887 242.741794 
L 80.213332 242.169243 
L 79.765685 242.114861 
L 79.327619 242.55878 
L 78.435972 242.530391 
L 77.992137 242.397349 
L 77.551452 242.483761 
L 77.111263 242.351579 
L 76.229063 242.500496 
L 75.789206 242.535965 
L 74.897227 242.322916 
L 73.99315 242.554578 
L 73.095205 242.396282 
L 72.207287 242.450444 
L 71.321523 242.685994 
L 70.879677 242.413852 
L 70.425401 241.909412 
L 69.54896 241.467916 
L 69.421262 241.617002 
L 69.218182 242.350283 
L 69.218439 242.33899 
" clip-path="url(#p6ce1cae6c1)" style="fill: none; stroke: #000000; stroke-width: 1.5; stroke-linecap: square"/>
   </g>
   <g id="patch_3">
    <path d="M 54 256.32 
L 54 34.56 
" style="fill: none; stroke: #000000; stroke-width: 0.8; stroke-linejoin: miter; stroke-linecap: square"/>
   </g>
   <g id="patch_4">
    <path d="M 388.8 256.32 
L 388.8 34.56 
" style="fill: none; stroke: #000000; stroke-width: 0.8; stroke-linejoin: miter; stroke-linecap: square"/>
   </g>
   <g id="patch_5">
    <path d="M 54 256.32 
L 388.8 256.32 
" style="fill: none; stroke: #000000; stroke-width: 0.8; stroke-linejoin: miter; stroke-linecap: square"/>
   </g>
   <g id="patch_6">
    <path d="M 54 34.56 
L 388.8 34.56 
" style="fill: none; stroke: #000000; stroke-width: 0.8; stroke-linejoin: miter; stroke-linecap: square"/>
   </g>
   <g id="text_16">
    <!-- 2025-06-20 trial 17 -->
    <g transform="translate(163.2525 28.56) scale(0.12 -0.12)">
     <defs>
      <path id="DejaVuSans-2d" d="M 313 2009 
L 1997 2009 
L 1997 1497 
L 313 1497 
L 313 2009 
z
" transform="scale(0.015625)"/>
      <path id="DejaVuSans-6c" d="M 603 4863 
L 1178 4863 
L 1178 0 
L 603 0 
L 603 4863 
z
" transform="scale(0.015625)"/>
      <path id="DejaVuSans-37" d="M 525 4666 
L 3525 4666 
L 3525 4397 
L 1831 0 
L 1172 0 
L 2766 4134 
L 525 4134 
L 525 4666 
z
" transform="scale(0.015625)"/>
     </defs>
     <use xlink:href="#DejaVuSans-32"/>
     <use xlink:href="#DejaVuSans-30" x="63.623047"/>
     <use xlink:href="#DejaVuSans-32" x="127.246094"/>
     <use xlink:href="#DejaVuSans-35" x="190.869141"/>
     <use xlink:href="#DejaVuSans-2d" x="254.492188"/>
     <use xlink:href="#DejaVuSans-30" x="290.576172"/>
     <use xlink:href="#DejaVuSans-36" x="354.199219"/>
     <use xlink:href="#DejaVuSans-2d" x="417.822266"/>
     <use xlink:href="#DejaVuSans-32" x="453.90625"/>
     <use xlink:href="#DejaVuSans-30" x="517.529297"/>
     <use xlink:href="#DejaVuSans-20" x="581.152344"/>
     <use xlink:href="#DejaVuSans-74" x="612.939453"/>
     <use xlink:href="#DejaVuSans-72" x="652.148438"/>
     <use xlink:href="#DejaVuSans-69" x="693.261719"/>
     <use xlink:href="#DejaVuSans-61" x="721.044922"/>
     <use xlink:href="#DejaVuSans-6c" x="782.324219"/>
     <use xlink:href="#DejaVuSans-20" x="810.107422"/>
     <use xlink:href="#DejaVuSans-31" x="841.894531"/>
     <use xlink:href="#DejaVuSans-37" x="905.517578"/>
    </g>
   </g>
  </g>
 </g>
 <defs>
  <clipPath id="p6ce1cae6c1">
   <rect x="54" y="34.56" width="334.8" height="221.76"/>
  </clipPath>
 </defs>
</svg>
