<?xml version="1.0" encoding="utf-8" standalone="no"?>
<!DOCTYPE svg PUBLIC "-//W3C//DTD SVG 1.1//EN"
  "http://www.w3.org/Graphics/SVG/1.1/DTD/svg11.dtd">
<svg xmlns:xlink="http://www.w3.org/1999/xlink" width="460.8pt" height="345.6pt" viewBox="0 0 460.8 345.6" xmlns="http://www.w3.org/2000/svg" version="1.1">
 <metadata>
  <rdf:RDF xmlns:dc="http://purl.org/dc/elements/1.1/" xmlns:cc="http://creativecommons.org/ns#" xmlns:rdf="http://www.w3.org/1999/02/22-rdf-syntax-ns#">
   <cc:Work>
    <dc:type rdf:resource="http://purl.org/dc/dcmitype/StillImage"/>
    <dc:date>2025-07-16T22:12:15.857631</dc:date>
    <dc:format>image/svg+xml</dc:format>
    <dc:creator>
     <cc:Agent>
      <dc:title>Matplotlib v3.10.3, https://matplotlib.org/</dc:title>
     </cc:Agent>
    </dc:creator>
   </cc:Work>
  </rdf:RDF>
 </metadata>
 <defs>
  <style type="text/css">*{stroke-linejoin: round; stroke-linecap: butt}</style>
 </defs>
 <g id="figure_1">
  <g id="patch_1">
   <path d="M 0 345.6 
L 460.8 345.6 
L 460.8 0 
L 0 0 
z
" style="fill: #ffffff"/>
  </g>
  <g id="axes_1">
   <g id="patch_2">
    <path d="M 57.6 307.584 
L 414.72 307.584 
L 414.72 41.472 
L 57.6 41.472 
z
" style="fill: #ffffff"/>
   </g>
   <g id="matplotlib.axis_1">
    <g id="xtick_1">
     <g id="line2d_1">
      <defs>
       <path id="m64e0c75140" d="M 0 0 
L 0 3.5 
" style="stroke: #000000; stroke-width: 0.8"/>
      </defs>
      <g>
       <use xlink:href="#m64e0c75140" x="74.070356" y="307.584" style="stroke: #000000; stroke-width: 0.8"/>
      </g>
     </g>
     <g id="text_1">
      <!-- 0.00 -->
      <g transform="translate(62.937543 322.182437) scale(0.1 -0.1)">
       <defs>
        <path id="DejaVuSans-30" d="M 2034 4250 
Q 1547 4250 1301 3770 
Q 1056 3291 1056 2328 
Q 1056 1369 1301 889 
Q 1547 409 2034 409 
Q 2525 409 2770 889 
Q 3016 1369 3016 2328 
Q 3016 3291 2770 3770 
Q 2525 4250 2034 4250 
z
M 2034 4750 
Q 2819 4750 3233 4129 
Q 3647 3509 3647 2328 
Q 3647 1150 3233 529 
Q 2819 -91 2034 -91 
Q 1250 -91 836 529 
Q 422 1150 422 2328 
Q 422 3509 836 4129 
Q 1250 4750 2034 4750 
z
" transform="scale(0.015625)"/>
        <path id="DejaVuSans-2e" d="M 684 794 
L 1344 794 
L 1344 0 
L 684 0 
L 684 794 
z
" transform="scale(0.015625)"/>
       </defs>
       <use xlink:href="#DejaVuSans-30"/>
       <use xlink:href="#DejaVuSans-2e" transform="translate(63.623047 0)"/>
       <use xlink:href="#DejaVuSans-30" transform="translate(95.410156 0)"/>
       <use xlink:href="#DejaVuSans-30" transform="translate(159.033203 0)"/>
      </g>
     </g>
    </g>
    <g id="xtick_2">
     <g id="line2d_2">
      <g>
       <use xlink:href="#m64e0c75140" x="134.568667" y="307.584" style="stroke: #000000; stroke-width: 0.8"/>
      </g>
     </g>
     <g id="text_2">
      <!-- 0.02 -->
      <g transform="translate(123.435855 322.182437) scale(0.1 -0.1)">
       <defs>
        <path id="DejaVuSans-32" d="M 1228 531 
L 3431 531 
L 3431 0 
L 469 0 
L 469 531 
Q 828 903 1448 1529 
Q 2069 2156 2228 2338 
Q 2531 2678 2651 2914 
Q 2772 3150 2772 3378 
Q 2772 3750 2511 3984 
Q 2250 4219 1831 4219 
Q 1534 4219 1204 4116 
Q 875 4013 500 3803 
L 500 4441 
Q 881 4594 1212 4672 
Q 1544 4750 1819 4750 
Q 2544 4750 2975 4387 
Q 3406 4025 3406 3419 
Q 3406 3131 3298 2873 
Q 3191 2616 2906 2266 
Q 2828 2175 2409 1742 
Q 1991 1309 1228 531 
z
" transform="scale(0.015625)"/>
       </defs>
       <use xlink:href="#DejaVuSans-30"/>
       <use xlink:href="#DejaVuSans-2e" transform="translate(63.623047 0)"/>
       <use xlink:href="#DejaVuSans-30" transform="translate(95.410156 0)"/>
       <use xlink:href="#DejaVuSans-32" transform="translate(159.033203 0)"/>
      </g>
     </g>
    </g>
    <g id="xtick_3">
     <g id="line2d_3">
      <g>
       <use xlink:href="#m64e0c75140" x="195.066979" y="307.584" style="stroke: #000000; stroke-width: 0.8"/>
      </g>
     </g>
     <g id="text_3">
      <!-- 0.04 -->
      <g transform="translate(183.934166 322.182437) scale(0.1 -0.1)">
       <defs>
        <path id="DejaVuSans-34" d="M 2419 4116 
L 825 1625 
L 2419 1625 
L 2419 4116 
z
M 2253 4666 
L 3047 4666 
L 3047 1625 
L 3713 1625 
L 3713 1100 
L 3047 1100 
L 3047 0 
L 2419 0 
L 2419 1100 
L 313 1100 
L 313 1709 
L 2253 4666 
z
" transform="scale(0.015625)"/>
       </defs>
       <use xlink:href="#DejaVuSans-30"/>
       <use xlink:href="#DejaVuSans-2e" transform="translate(63.623047 0)"/>
       <use xlink:href="#DejaVuSans-30" transform="translate(95.410156 0)"/>
       <use xlink:href="#DejaVuSans-34" transform="translate(159.033203 0)"/>
      </g>
     </g>
    </g>
    <g id="xtick_4">
     <g id="line2d_4">
      <g>
       <use xlink:href="#m64e0c75140" x="255.56529" y="307.584" style="stroke: #000000; stroke-width: 0.8"/>
      </g>
     </g>
     <g id="text_4">
      <!-- 0.06 -->
      <g transform="translate(244.432478 322.182437) scale(0.1 -0.1)">
       <defs>
        <path id="DejaVuSans-36" d="M 2113 2584 
Q 1688 2584 1439 2293 
Q 1191 2003 1191 1497 
Q 1191 994 1439 701 
Q 1688 409 2113 409 
Q 2538 409 2786 701 
Q 3034 994 3034 1497 
Q 3034 2003 2786 2293 
Q 2538 2584 2113 2584 
z
M 3366 4563 
L 3366 3988 
Q 3128 4100 2886 4159 
Q 2644 4219 2406 4219 
Q 1781 4219 1451 3797 
Q 1122 3375 1075 2522 
Q 1259 2794 1537 2939 
Q 1816 3084 2150 3084 
Q 2853 3084 3261 2657 
Q 3669 2231 3669 1497 
Q 3669 778 3244 343 
Q 2819 -91 2113 -91 
Q 1303 -91 875 529 
Q 447 1150 447 2328 
Q 447 3434 972 4092 
Q 1497 4750 2381 4750 
Q 2619 4750 2861 4703 
Q 3103 4656 3366 4563 
z
" transform="scale(0.015625)"/>
       </defs>
       <use xlink:href="#DejaVuSans-30"/>
       <use xlink:href="#DejaVuSans-2e" transform="translate(63.623047 0)"/>
       <use xlink:href="#DejaVuSans-30" transform="translate(95.410156 0)"/>
       <use xlink:href="#DejaVuSans-36" transform="translate(159.033203 0)"/>
      </g>
     </g>
    </g>
    <g id="xtick_5">
     <g id="line2d_5">
      <g>
       <use xlink:href="#m64e0c75140" x="316.063601" y="307.584" style="stroke: #000000; stroke-width: 0.8"/>
      </g>
     </g>
     <g id="text_5">
      <!-- 0.08 -->
      <g transform="translate(304.930789 322.182437) scale(0.1 -0.1)">
       <defs>
        <path id="DejaVuSans-38" d="M 2034 2216 
Q 1584 2216 1326 1975 
Q 1069 1734 1069 1313 
Q 1069 891 1326 650 
Q 1584 409 2034 409 
Q 2484 409 2743 651 
Q 3003 894 3003 1313 
Q 3003 1734 2745 1975 
Q 2488 2216 2034 2216 
z
M 1403 2484 
Q 997 2584 770 2862 
Q 544 3141 544 3541 
Q 544 4100 942 4425 
Q 1341 4750 2034 4750 
Q 2731 4750 3128 4425 
Q 3525 4100 3525 3541 
Q 3525 3141 3298 2862 
Q 3072 2584 2669 2484 
Q 3125 2378 3379 2068 
Q 3634 1759 3634 1313 
Q 3634 634 3220 271 
Q 2806 -91 2034 -91 
Q 1263 -91 848 271 
Q 434 634 434 1313 
Q 434 1759 690 2068 
Q 947 2378 1403 2484 
z
M 1172 3481 
Q 1172 3119 1398 2916 
Q 1625 2713 2034 2713 
Q 2441 2713 2670 2916 
Q 2900 3119 2900 3481 
Q 2900 3844 2670 4047 
Q 2441 4250 2034 4250 
Q 1625 4250 1398 4047 
Q 1172 3844 1172 3481 
z
" transform="scale(0.015625)"/>
       </defs>
       <use xlink:href="#DejaVuSans-30"/>
       <use xlink:href="#DejaVuSans-2e" transform="translate(63.623047 0)"/>
       <use xlink:href="#DejaVuSans-30" transform="translate(95.410156 0)"/>
       <use xlink:href="#DejaVuSans-38" transform="translate(159.033203 0)"/>
      </g>
     </g>
    </g>
    <g id="xtick_6">
     <g id="line2d_6">
      <g>
       <use xlink:href="#m64e0c75140" x="376.561913" y="307.584" style="stroke: #000000; stroke-width: 0.8"/>
      </g>
     </g>
     <g id="text_6">
      <!-- 0.10 -->
      <g transform="translate(365.4291 322.182437) scale(0.1 -0.1)">
       <defs>
        <path id="DejaVuSans-31" d="M 794 531 
L 1825 531 
L 1825 4091 
L 703 3866 
L 703 4441 
L 1819 4666 
L 2450 4666 
L 2450 531 
L 3481 531 
L 3481 0 
L 794 0 
L 794 531 
z
" transform="scale(0.015625)"/>
       </defs>
       <use xlink:href="#DejaVuSans-30"/>
       <use xlink:href="#DejaVuSans-2e" transform="translate(63.623047 0)"/>
       <use xlink:href="#DejaVuSans-31" transform="translate(95.410156 0)"/>
       <use xlink:href="#DejaVuSans-30" transform="translate(159.033203 0)"/>
      </g>
     </g>
    </g>
    <g id="text_7">
     <!-- Strain -->
     <g transform="translate(221.348281 335.860562) scale(0.1 -0.1)">
      <defs>
       <path id="DejaVuSans-53" d="M 3425 4513 
L 3425 3897 
Q 3066 4069 2747 4153 
Q 2428 4238 2131 4238 
Q 1616 4238 1336 4038 
Q 1056 3838 1056 3469 
Q 1056 3159 1242 3001 
Q 1428 2844 1947 2747 
L 2328 2669 
Q 3034 2534 3370 2195 
Q 3706 1856 3706 1288 
Q 3706 609 3251 259 
Q 2797 -91 1919 -91 
Q 1588 -91 1214 -16 
Q 841 59 441 206 
L 441 856 
Q 825 641 1194 531 
Q 1563 422 1919 422 
Q 2459 422 2753 634 
Q 3047 847 3047 1241 
Q 3047 1584 2836 1778 
Q 2625 1972 2144 2069 
L 1759 2144 
Q 1053 2284 737 2584 
Q 422 2884 422 3419 
Q 422 4038 858 4394 
Q 1294 4750 2059 4750 
Q 2388 4750 2728 4690 
Q 3069 4631 3425 4513 
z
" transform="scale(0.015625)"/>
       <path id="DejaVuSans-74" d="M 1172 4494 
L 1172 3500 
L 2356 3500 
L 2356 3053 
L 1172 3053 
L 1172 1153 
Q 1172 725 1289 603 
Q 1406 481 1766 481 
L 2356 481 
L 2356 0 
L 1766 0 
Q 1100 0 847 248 
Q 594 497 594 1153 
L 594 3053 
L 172 3053 
L 172 3500 
L 594 3500 
L 594 4494 
L 1172 4494 
z
" transform="scale(0.015625)"/>
       <path id="DejaVuSans-72" d="M 2631 2963 
Q 2534 3019 2420 3045 
Q 2306 3072 2169 3072 
Q 1681 3072 1420 2755 
Q 1159 2438 1159 1844 
L 1159 0 
L 581 0 
L 581 3500 
L 1159 3500 
L 1159 2956 
Q 1341 3275 1631 3429 
Q 1922 3584 2338 3584 
Q 2397 3584 2469 3576 
Q 2541 3569 2628 3553 
L 2631 2963 
z
" transform="scale(0.015625)"/>
       <path id="DejaVuSans-61" d="M 2194 1759 
Q 1497 1759 1228 1600 
Q 959 1441 959 1056 
Q 959 750 1161 570 
Q 1363 391 1709 391 
Q 2188 391 2477 730 
Q 2766 1069 2766 1631 
L 2766 1759 
L 2194 1759 
z
M 3341 1997 
L 3341 0 
L 2766 0 
L 2766 531 
Q 2569 213 2275 61 
Q 1981 -91 1556 -91 
Q 1019 -91 701 211 
Q 384 513 384 1019 
Q 384 1609 779 1909 
Q 1175 2209 1959 2209 
L 2766 2209 
L 2766 2266 
Q 2766 2663 2505 2880 
Q 2244 3097 1772 3097 
Q 1472 3097 1187 3025 
Q 903 2953 641 2809 
L 641 3341 
Q 956 3463 1253 3523 
Q 1550 3584 1831 3584 
Q 2591 3584 2966 3190 
Q 3341 2797 3341 1997 
z
" transform="scale(0.015625)"/>
       <path id="DejaVuSans-69" d="M 603 3500 
L 1178 3500 
L 1178 0 
L 603 0 
L 603 3500 
z
M 603 4863 
L 1178 4863 
L 1178 4134 
L 603 4134 
L 603 4863 
z
" transform="scale(0.015625)"/>
       <path id="DejaVuSans-6e" d="M 3513 2113 
L 3513 0 
L 2938 0 
L 2938 2094 
Q 2938 2591 2744 2837 
Q 2550 3084 2163 3084 
Q 1697 3084 1428 2787 
Q 1159 2491 1159 1978 
L 1159 0 
L 581 0 
L 581 3500 
L 1159 3500 
L 1159 2956 
Q 1366 3272 1645 3428 
Q 1925 3584 2291 3584 
Q 2894 3584 3203 3211 
Q 3513 2838 3513 2113 
z
" transform="scale(0.015625)"/>
      </defs>
      <use xlink:href="#DejaVuSans-53"/>
      <use xlink:href="#DejaVuSans-74" transform="translate(63.476562 0)"/>
      <use xlink:href="#DejaVuSans-72" transform="translate(102.685547 0)"/>
      <use xlink:href="#DejaVuSans-61" transform="translate(143.798828 0)"/>
      <use xlink:href="#DejaVuSans-69" transform="translate(205.078125 0)"/>
      <use xlink:href="#DejaVuSans-6e" transform="translate(232.861328 0)"/>
     </g>
    </g>
   </g>
   <g id="matplotlib.axis_2">
    <g id="ytick_1">
     <g id="line2d_7">
      <defs>
       <path id="mffc1626631" d="M 0 0 
L -3.5 0 
" style="stroke: #000000; stroke-width: 0.8"/>
      </defs>
      <g>
       <use xlink:href="#mffc1626631" x="57.6" y="302.474481" style="stroke: #000000; stroke-width: 0.8"/>
      </g>
     </g>
     <g id="text_8">
      <!-- −200 -->
      <g transform="translate(23.132812 306.2737) scale(0.1 -0.1)">
       <defs>
        <path id="DejaVuSans-2212" d="M 678 2272 
L 4684 2272 
L 4684 1741 
L 678 1741 
L 678 2272 
z
" transform="scale(0.015625)"/>
       </defs>
       <use xlink:href="#DejaVuSans-2212"/>
       <use xlink:href="#DejaVuSans-32" transform="translate(83.789062 0)"/>
       <use xlink:href="#DejaVuSans-30" transform="translate(147.412109 0)"/>
       <use xlink:href="#DejaVuSans-30" transform="translate(211.035156 0)"/>
      </g>
     </g>
    </g>
    <g id="ytick_2">
     <g id="line2d_8">
      <g>
       <use xlink:href="#mffc1626631" x="57.6" y="255.832822" style="stroke: #000000; stroke-width: 0.8"/>
      </g>
     </g>
     <g id="text_9">
      <!-- 0 -->
      <g transform="translate(44.2375 259.63204) scale(0.1 -0.1)">
       <use xlink:href="#DejaVuSans-30"/>
      </g>
     </g>
    </g>
    <g id="ytick_3">
     <g id="line2d_9">
      <g>
       <use xlink:href="#mffc1626631" x="57.6" y="209.191162" style="stroke: #000000; stroke-width: 0.8"/>
      </g>
     </g>
     <g id="text_10">
      <!-- 200 -->
      <g transform="translate(31.5125 212.990381) scale(0.1 -0.1)">
       <use xlink:href="#DejaVuSans-32"/>
       <use xlink:href="#DejaVuSans-30" transform="translate(63.623047 0)"/>
       <use xlink:href="#DejaVuSans-30" transform="translate(127.246094 0)"/>
      </g>
     </g>
    </g>
    <g id="ytick_4">
     <g id="line2d_10">
      <g>
       <use xlink:href="#mffc1626631" x="57.6" y="162.549502" style="stroke: #000000; stroke-width: 0.8"/>
      </g>
     </g>
     <g id="text_11">
      <!-- 400 -->
      <g transform="translate(31.5125 166.348721) scale(0.1 -0.1)">
       <use xlink:href="#DejaVuSans-34"/>
       <use xlink:href="#DejaVuSans-30" transform="translate(63.623047 0)"/>
       <use xlink:href="#DejaVuSans-30" transform="translate(127.246094 0)"/>
      </g>
     </g>
    </g>
    <g id="ytick_5">
     <g id="line2d_11">
      <g>
       <use xlink:href="#mffc1626631" x="57.6" y="115.907842" style="stroke: #000000; stroke-width: 0.8"/>
      </g>
     </g>
     <g id="text_12">
      <!-- 600 -->
      <g transform="translate(31.5125 119.707061) scale(0.1 -0.1)">
       <use xlink:href="#DejaVuSans-36"/>
       <use xlink:href="#DejaVuSans-30" transform="translate(63.623047 0)"/>
       <use xlink:href="#DejaVuSans-30" transform="translate(127.246094 0)"/>
      </g>
     </g>
    </g>
    <g id="ytick_6">
     <g id="line2d_12">
      <g>
       <use xlink:href="#mffc1626631" x="57.6" y="69.266183" style="stroke: #000000; stroke-width: 0.8"/>
      </g>
     </g>
     <g id="text_13">
      <!-- 800 -->
      <g transform="translate(31.5125 73.065401) scale(0.1 -0.1)">
       <use xlink:href="#DejaVuSans-38"/>
       <use xlink:href="#DejaVuSans-30" transform="translate(63.623047 0)"/>
       <use xlink:href="#DejaVuSans-30" transform="translate(127.246094 0)"/>
      </g>
     </g>
    </g>
    <g id="text_14">
     <!-- Stress [Pa] -->
     <g transform="translate(17.053125 201.235813) rotate(-90) scale(0.1 -0.1)">
      <defs>
       <path id="DejaVuSans-65" d="M 3597 1894 
L 3597 1613 
L 953 1613 
Q 991 1019 1311 708 
Q 1631 397 2203 397 
Q 2534 397 2845 478 
Q 3156 559 3463 722 
L 3463 178 
Q 3153 47 2828 -22 
Q 2503 -91 2169 -91 
Q 1331 -91 842 396 
Q 353 884 353 1716 
Q 353 2575 817 3079 
Q 1281 3584 2069 3584 
Q 2775 3584 3186 3129 
Q 3597 2675 3597 1894 
z
M 3022 2063 
Q 3016 2534 2758 2815 
Q 2500 3097 2075 3097 
Q 1594 3097 1305 2825 
Q 1016 2553 972 2059 
L 3022 2063 
z
" transform="scale(0.015625)"/>
       <path id="DejaVuSans-73" d="M 2834 3397 
L 2834 2853 
Q 2591 2978 2328 3040 
Q 2066 3103 1784 3103 
Q 1356 3103 1142 2972 
Q 928 2841 928 2578 
Q 928 2378 1081 2264 
Q 1234 2150 1697 2047 
L 1894 2003 
Q 2506 1872 2764 1633 
Q 3022 1394 3022 966 
Q 3022 478 2636 193 
Q 2250 -91 1575 -91 
Q 1294 -91 989 -36 
Q 684 19 347 128 
L 347 722 
Q 666 556 975 473 
Q 1284 391 1588 391 
Q 1994 391 2212 530 
Q 2431 669 2431 922 
Q 2431 1156 2273 1281 
Q 2116 1406 1581 1522 
L 1381 1569 
Q 847 1681 609 1914 
Q 372 2147 372 2553 
Q 372 3047 722 3315 
Q 1072 3584 1716 3584 
Q 2034 3584 2315 3537 
Q 2597 3491 2834 3397 
z
" transform="scale(0.015625)"/>
       <path id="DejaVuSans-20" transform="scale(0.015625)"/>
       <path id="DejaVuSans-5b" d="M 550 4863 
L 1875 4863 
L 1875 4416 
L 1125 4416 
L 1125 -397 
L 1875 -397 
L 1875 -844 
L 550 -844 
L 550 4863 
z
" transform="scale(0.015625)"/>
       <path id="DejaVuSans-50" d="M 1259 4147 
L 1259 2394 
L 2053 2394 
Q 2494 2394 2734 2622 
Q 2975 2850 2975 3272 
Q 2975 3691 2734 3919 
Q 2494 4147 2053 4147 
L 1259 4147 
z
M 628 4666 
L 2053 4666 
Q 2838 4666 3239 4311 
Q 3641 3956 3641 3272 
Q 3641 2581 3239 2228 
Q 2838 1875 2053 1875 
L 1259 1875 
L 1259 0 
L 628 0 
L 628 4666 
z
" transform="scale(0.015625)"/>
       <path id="DejaVuSans-5d" d="M 1947 4863 
L 1947 -844 
L 622 -844 
L 622 -397 
L 1369 -397 
L 1369 4416 
L 622 4416 
L 622 4863 
L 1947 4863 
z
" transform="scale(0.015625)"/>
      </defs>
      <use xlink:href="#DejaVuSans-53"/>
      <use xlink:href="#DejaVuSans-74" transform="translate(63.476562 0)"/>
      <use xlink:href="#DejaVuSans-72" transform="translate(102.685547 0)"/>
      <use xlink:href="#DejaVuSans-65" transform="translate(141.548828 0)"/>
      <use xlink:href="#DejaVuSans-73" transform="translate(203.072266 0)"/>
      <use xlink:href="#DejaVuSans-73" transform="translate(255.171875 0)"/>
      <use xlink:href="#DejaVuSans-20" transform="translate(307.271484 0)"/>
      <use xlink:href="#DejaVuSans-5b" transform="translate(339.058594 0)"/>
      <use xlink:href="#DejaVuSans-50" transform="translate(378.072266 0)"/>
      <use xlink:href="#DejaVuSans-61" transform="translate(433.875 0)"/>
      <use xlink:href="#DejaVuSans-5d" transform="translate(495.154297 0)"/>
     </g>
    </g>
   </g>
   <g id="line2d_13">
    <path d="M 74.070356 258.161436 
L 74.068197 257.733879 
L 74.547842 256.51789 
L 75.67332 254.318894 
L 76.76892 252.637053 
L 77.93767 253.449675 
L 80.206758 257.022295 
L 81.298444 257.390029 
L 82.438346 258.313787 
L 83.545691 259.719643 
L 84.664987 259.177691 
L 85.759969 259.244306 
L 86.872053 253.50953 
L 87.995058 253.386033 
L 89.100343 254.27292 
L 90.204391 254.622586 
L 91.30267 254.845936 
L 92.401772 255.617353 
L 93.492839 254.341639 
L 94.578136 252.557787 
L 95.68713 252.223007 
L 99.039249 252.715406 
L 100.127843 252.116602 
L 101.220352 250.889758 
L 103.419752 250.055463 
L 104.551412 249.764792 
L 105.678126 249.717097 
L 106.761156 249.412905 
L 107.853253 248.461616 
L 108.951738 247.710908 
L 110.077628 247.401923 
L 113.367931 246.004056 
L 114.467033 245.327215 
L 115.574378 244.485066 
L 116.656997 243.950857 
L 118.860972 243.176797 
L 119.945239 242.675342 
L 123.292413 240.476315 
L 124.403055 239.939955 
L 126.62269 239.078203 
L 128.867877 237.866477 
L 131.075393 236.453625 
L 132.169551 236.036975 
L 134.394956 234.880986 
L 136.641379 233.343191 
L 138.825985 232.316376 
L 142.136687 230.573328 
L 143.224868 229.801727 
L 147.627461 227.436777 
L 151.015022 225.102308 
L 152.100113 224.530059 
L 153.198392 223.822983 
L 155.417615 222.693972 
L 163.155379 217.619583 
L 166.453718 215.868424 
L 169.782141 213.722615 
L 170.875886 212.999192 
L 173.08728 211.922109 
L 174.169898 211.181603 
L 175.281364 210.565231 
L 177.478952 208.797111 
L 180.79192 206.729224 
L 181.887314 206.268942 
L 182.970757 205.67199 
L 185.198145 204.181805 
L 186.296424 203.536796 
L 188.492569 201.548921 
L 190.680471 200.404793 
L 191.814604 199.618197 
L 193.981489 198.499878 
L 195.113561 197.52917 
L 197.29487 196.114035 
L 200.603717 194.305601 
L 206.210502 190.580148 
L 207.291471 190.123861 
L 208.420246 189.479958 
L 212.90709 186.132877 
L 214.037514 185.369265 
L 215.169586 184.801318 
L 219.607208 181.529939 
L 221.813244 180.594136 
L 222.902044 180.113759 
L 224.025049 179.29361 
L 227.351411 176.377797 
L 230.648308 174.749912 
L 231.736284 173.805751 
L 235.022053 171.647713 
L 237.247458 170.637982 
L 240.598882 167.900244 
L 241.695512 167.382565 
L 242.779367 166.651891 
L 246.097487 163.935923 
L 247.218844 162.918633 
L 250.5178 161.262234 
L 253.869096 158.49907 
L 256.044223 157.412093 
L 258.255616 155.89679 
L 260.463712 153.980814 
L 262.659858 152.554863 
L 263.757312 152.007318 
L 264.840342 151.321874 
L 268.201927 148.686708 
L 271.508714 146.601614 
L 280.397147 140.329003 
L 281.508613 139.613447 
L 285.96169 136.167173 
L 287.062853 135.70345 
L 288.157835 135.068274 
L 291.497604 132.695827 
L 292.61247 131.547028 
L 293.74042 130.598197 
L 299.263546 126.963263 
L 300.392733 125.997233 
L 304.864973 122.959989 
L 305.973966 122.454233 
L 308.192778 120.792057 
L 310.419419 118.883579 
L 315.932036 114.944454 
L 317.022278 113.79504 
L 318.129005 112.81917 
L 322.499402 110.12958 
L 323.610868 109.327006 
L 325.856878 107.538361 
L 328.035303 106.3404 
L 332.496003 102.591533 
L 337.908683 98.946152 
L 338.990065 97.879577 
L 340.082574 97.026612 
L 342.257289 95.479108 
L 343.390185 94.590623 
L 344.512778 93.858351 
L 346.743541 91.914384 
L 350.089479 89.362863 
L 351.192702 88.870749 
L 352.286448 88.115863 
L 356.773524 84.357286 
L 358.979147 82.983816 
L 362.237305 80.141009 
L 364.432626 78.736689 
L 365.513596 78.166776 
L 369.907122 74.802849 
L 373.227921 72.350636 
L 374.361101 71.352674 
L 376.541173 69.773459 
L 379.810046 66.981289 
L 384.180906 64.082069 
L 385.307208 63.241886 
L 386.425681 62.080182 
L 387.509123 61.207061 
L 389.70362 59.890803 
L 394.094467 56.376686 
L 396.28031 55.688599 
L 397.383534 55.115797 
L 397.89754 54.410442 
L 398.487273 54.078596 
L 398.223804 56.270971 
L 398.170333 61.439782 
L 398.169303 67.298125 
L 398.170565 67.271931 
L 398.171131 67.210263 
L 398.169612 68.009672 
L 398.168504 80.9864 
L 398.167268 80.723136 
L 398.167036 85.628484 
L 398.164074 85.447029 
L 397.068139 85.421142 
L 394.856231 90.674005 
L 393.747649 90.854615 
L 392.595796 90.336813 
L 390.353907 90.645967 
L 389.244501 91.074908 
L 388.14581 91.002378 
L 387.012374 91.452535 
L 385.899259 90.814225 
L 384.817053 93.339198 
L 383.689102 95.416549 
L 382.556206 96.763103 
L 381.455043 97.848113 
L 379.256837 101.25432 
L 377.031844 100.395424 
L 374.819627 101.111473 
L 373.713106 101.892415 
L 372.592779 101.919362 
L 371.486877 105.736442 
L 370.380356 107.89786 
L 369.26992 108.419103 
L 368.18112 108.619531 
L 367.056466 108.693612 
L 365.96849 109.257749 
L 364.85043 110.105798 
L 362.651194 112.564648 
L 360.468031 114.692635 
L 359.375522 115.619835 
L 356.080763 117.786108 
L 354.979188 118.563609 
L 353.895333 119.157612 
L 352.803236 120.034912 
L 351.687237 121.322963 
L 350.552692 122.331773 
L 349.450293 122.928479 
L 348.354075 123.777757 
L 343.908416 127.860428 
L 342.801895 128.522398 
L 341.667351 128.916433 
L 340.545582 129.472335 
L 339.413098 130.383312 
L 337.231995 132.659278 
L 335.031523 134.304001 
L 331.720202 136.551146 
L 329.520477 138.681031 
L 328.419726 139.4487 
L 327.309702 140.422604 
L 326.180927 141.16397 
L 322.87991 143.77805 
L 317.428904 147.549409 
L 316.297656 148.561905 
L 314.112638 150.0836 
L 313.013535 150.772977 
L 308.642263 153.991261 
L 306.392749 155.522788 
L 304.17909 157.341545 
L 303.0532 158.290853 
L 299.752182 160.399544 
L 298.639067 161.134151 
L 295.31456 163.791862 
L 294.223287 164.453217 
L 289.798852 167.69092 
L 287.614658 169.08934 
L 283.137885 172.463345 
L 274.265061 178.492657 
L 272.070565 179.844373 
L 262.089211 186.762853 
L 260.972388 187.488856 
L 259.847734 188.016244 
L 255.470692 190.644827 
L 252.172147 193.191182 
L 248.774644 195.25406 
L 246.55542 197.11608 
L 244.327131 198.608154 
L 242.137167 199.536829 
L 239.938137 201.600415 
L 237.741992 203.14964 
L 236.633823 203.651955 
L 235.523593 203.921875 
L 234.441799 204.360341 
L 231.129655 207.119326 
L 230.019837 207.893632 
L 228.891886 208.541897 
L 226.712638 209.216772 
L 223.35001 211.695041 
L 222.244957 212.688061 
L 221.127309 213.36988 
L 218.944764 214.211291 
L 217.847721 214.793541 
L 216.765927 215.57645 
L 215.639213 216.581818 
L 214.557419 217.289509 
L 213.46491 217.8585 
L 211.268765 218.685409 
L 210.135457 219.502977 
L 207.898513 221.501669 
L 206.811773 222.185638 
L 204.609034 223.061156 
L 200.193666 226.027484 
L 195.728638 228.164013 
L 194.648145 229.064552 
L 192.457769 230.379458 
L 187.966572 233.374791 
L 186.875711 233.964984 
L 184.650306 235.396957 
L 183.52895 235.903943 
L 182.414599 236.678985 
L 181.290769 237.26967 
L 180.204854 237.980556 
L 177.990988 239.172863 
L 176.897655 239.730977 
L 174.638869 241.554896 
L 171.330021 243.482425 
L 169.129549 244.299809 
L 168.029538 245.152235 
L 165.796715 246.448029 
L 158.091456 251.092386 
L 155.879651 252.601913 
L 154.747167 253.245447 
L 153.663312 253.675125 
L 152.58193 254.311162 
L 151.452331 254.829946 
L 150.333447 255.482145 
L 149.209617 256.417949 
L 148.12906 256.779537 
L 143.65682 259.212576 
L 142.560602 260.146044 
L 141.453257 260.525024 
L 140.345899 261.13888 
L 139.249681 261.5602 
L 137.006143 262.927894 
L 135.876544 263.879921 
L 132.610556 265.473945 
L 129.245249 267.543645 
L 128.155213 268.260922 
L 125.959067 269.072284 
L 120.403385 272.288048 
L 118.187046 273.020442 
L 117.083616 273.689418 
L 113.754437 276.153016 
L 112.64668 276.683846 
L 111.527383 276.963149 
L 110.436111 277.386743 
L 109.325675 277.946824 
L 107.09924 279.517804 
L 99.337935 283.566253 
L 97.167341 284.393346 
L 94.914737 285.893164 
L 90.492568 287.878212 
L 89.387078 288.648832 
L 88.269842 289.219975 
L 84.966719 290.45773 
L 83.845362 291.139119 
L 82.734514 292.134409 
L 81.653544 292.858815 
L 78.355823 294.005032 
L 77.244769 294.173862 
L 76.157618 294.536864 
L 75.0512 295.127149 
L 74.129769 295.463096 
L 74.08217 295.488 
L 73.832727 294.74 
L 73.833366 294.750816 
" clip-path="url(#pbbadd4a4e8)" style="fill: none; stroke: #ff0000; stroke-width: 1.5; stroke-linecap: square"/>
   </g>
   <g id="line2d_14">
    <path d="M 74.070356 258.161436 
L 74.068197 257.733879 
L 74.547842 256.51789 
L 75.67332 254.318894 
L 76.76892 252.637053 
L 77.93767 253.449675 
L 79.097765 259.939859 
L 80.206758 260.364406 
L 81.298444 259.598458 
L 82.438346 259.874996 
L 83.545691 260.284087 
L 84.664987 259.181808 
L 85.759969 259.244306 
L 86.872053 253.50953 
L 87.995058 253.386033 
L 89.100343 254.27292 
L 90.204391 254.622586 
L 91.30267 254.845936 
L 92.401772 255.617353 
L 93.492839 254.341639 
L 94.578136 252.557787 
L 95.68713 252.223007 
L 99.039249 252.715406 
L 100.127843 252.116602 
L 101.220352 250.889758 
L 103.419752 250.055463 
L 104.551412 249.764792 
L 105.678126 249.717097 
L 106.761156 249.412905 
L 107.853253 248.461616 
L 108.951738 247.710908 
L 110.077628 247.401923 
L 113.367931 246.004056 
L 114.467033 245.327215 
L 115.574378 244.485066 
L 116.656997 243.950857 
L 118.860972 243.176797 
L 119.945239 242.675342 
L 123.292413 240.476315 
L 124.403055 239.939955 
L 126.62269 239.078203 
L 128.867877 237.866477 
L 131.075393 236.453625 
L 132.169551 236.036975 
L 134.394956 234.880986 
L 136.641379 233.343191 
L 138.825985 232.316376 
L 142.136687 230.573328 
L 143.224868 229.801727 
L 147.627461 227.436777 
L 151.015022 225.102308 
L 152.100113 224.530059 
L 153.198392 223.822983 
L 155.417615 222.693972 
L 163.155379 217.619583 
L 166.453718 215.868424 
L 169.782141 213.722615 
L 170.875886 212.999192 
L 173.08728 211.922109 
L 174.169898 211.181603 
L 175.281364 210.565231 
L 177.478952 208.797111 
L 180.79192 206.729224 
L 181.887314 206.268942 
L 182.970757 205.67199 
L 185.198145 204.181805 
L 186.296424 203.536796 
L 188.492569 201.548921 
L 190.680471 200.404793 
L 191.814604 199.618197 
L 193.981489 198.499878 
L 195.113561 197.52917 
L 197.29487 196.114035 
L 200.603717 194.305601 
L 206.210502 190.580148 
L 207.291471 190.123861 
L 208.420246 189.479958 
L 212.90709 186.132877 
L 214.037514 185.369265 
L 215.169586 184.801318 
L 219.607208 181.529939 
L 221.813244 180.594136 
L 222.902044 180.113759 
L 224.025049 179.29361 
L 227.351411 176.377797 
L 230.648308 174.749912 
L 231.736284 173.805751 
L 235.022053 171.647713 
L 237.247458 170.637982 
L 240.598882 167.900244 
L 241.695512 167.382565 
L 242.779367 166.651891 
L 246.097487 163.935923 
L 247.218844 162.918633 
L 250.5178 161.262234 
L 253.869096 158.49907 
L 256.044223 157.412093 
L 258.255616 155.89679 
L 260.463712 153.980814 
L 262.659858 152.554863 
L 263.757312 152.007318 
L 264.840342 151.321874 
L 268.201927 148.686708 
L 271.508714 146.601614 
L 280.397147 140.329003 
L 281.508613 139.613447 
L 285.96169 136.167173 
L 287.062853 135.70345 
L 288.157835 135.068274 
L 291.497604 132.695827 
L 292.61247 131.547028 
L 293.74042 130.598197 
L 299.263546 126.963263 
L 300.392733 125.997233 
L 304.864973 122.959989 
L 305.973966 122.454233 
L 308.192778 120.792057 
L 310.419419 118.883579 
L 315.932036 114.944454 
L 317.022278 113.79504 
L 318.129005 112.81917 
L 322.499402 110.12958 
L 323.610868 109.327006 
L 325.856878 107.538361 
L 328.035303 106.3404 
L 332.496003 102.591533 
L 337.908683 98.946152 
L 338.990065 97.879577 
L 340.082574 97.026612 
L 342.257289 95.479108 
L 343.390185 94.590623 
L 344.512778 93.858351 
L 346.743541 91.914384 
L 350.089479 89.362863 
L 351.192702 88.870749 
L 352.286448 88.115863 
L 356.773524 84.357286 
L 358.979147 82.983816 
L 362.237305 80.141009 
L 364.432626 78.736689 
L 365.513596 78.166776 
L 369.907122 74.802849 
L 373.227921 72.350636 
L 374.361101 71.352674 
L 376.541173 69.773459 
L 379.810046 66.981289 
L 384.180906 64.082069 
L 385.307208 63.241886 
L 386.425681 62.080182 
L 387.509123 61.207061 
L 389.70362 59.890803 
L 394.094467 56.376686 
L 396.28031 55.688599 
L 397.383534 55.115797 
L 397.89754 54.410442 
L 398.487273 54.078596 
L 398.420047 53.568 
L 398.321552 54.552374 
L 398.267025 53.82995 
L 398.168916 65.537533 
L 398.169096 65.317608 
L 398.167036 85.628484 
L 398.164074 85.447029 
L 397.068139 85.421142 
L 394.856231 90.674005 
L 393.747649 90.854615 
L 392.595796 90.336813 
L 390.353907 90.645967 
L 389.244501 91.074908 
L 388.14581 91.002378 
L 387.012374 91.452535 
L 385.899259 90.814225 
L 384.817053 93.339198 
L 383.689102 95.416549 
L 382.556206 96.763103 
L 381.455043 97.848113 
L 379.256837 101.25432 
L 377.031844 100.395424 
L 374.819627 101.111473 
L 373.713106 101.892415 
L 372.592779 101.919362 
L 371.486877 105.736442 
L 370.380356 107.89786 
L 369.26992 108.419103 
L 368.18112 108.619531 
L 367.056466 108.693612 
L 365.96849 109.257749 
L 364.85043 110.105798 
L 362.651194 112.564648 
L 360.468031 114.692635 
L 359.375522 115.619835 
L 356.080763 117.786108 
L 354.979188 118.563609 
L 353.895333 119.157612 
L 352.803236 120.034912 
L 351.687237 121.322963 
L 350.552692 122.331773 
L 349.450293 122.928479 
L 348.354075 123.777757 
L 343.908416 127.860428 
L 342.801895 128.522398 
L 341.667351 128.916433 
L 340.545582 129.472335 
L 339.413098 130.383312 
L 337.231995 132.659278 
L 335.031523 134.304001 
L 331.720202 136.551146 
L 329.520477 138.681031 
L 328.419726 139.4487 
L 327.309702 140.422604 
L 326.180927 141.16397 
L 322.87991 143.77805 
L 317.428904 147.549409 
L 316.297656 148.561905 
L 314.112638 150.0836 
L 313.013535 150.772977 
L 308.642263 153.991261 
L 306.392749 155.522788 
L 304.17909 157.341545 
L 303.0532 158.290853 
L 299.752182 160.399544 
L 298.639067 161.134151 
L 295.31456 163.791862 
L 294.223287 164.453217 
L 289.798852 167.69092 
L 287.614658 169.08934 
L 283.137885 172.463345 
L 274.265061 178.492657 
L 272.070565 179.844373 
L 262.089211 186.762853 
L 260.972388 187.488856 
L 259.847734 188.016244 
L 255.470692 190.644827 
L 252.172147 193.191182 
L 248.774644 195.25406 
L 246.55542 197.11608 
L 244.327131 198.608154 
L 242.137167 199.536829 
L 239.938137 201.600415 
L 237.741992 203.14964 
L 236.633823 203.651955 
L 235.523593 203.921875 
L 234.441799 204.360341 
L 231.129655 207.119326 
L 230.019837 207.893632 
L 228.891886 208.541897 
L 226.712638 209.216772 
L 223.35001 211.695041 
L 222.244957 212.688061 
L 221.127309 213.36988 
L 218.944764 214.211291 
L 217.847721 214.793541 
L 216.765927 215.57645 
L 215.639213 216.581818 
L 214.557419 217.289509 
L 213.46491 217.8585 
L 211.268765 218.685409 
L 210.135457 219.502977 
L 207.898513 221.501669 
L 206.811773 222.185638 
L 204.609034 223.061156 
L 200.193666 226.027484 
L 195.728638 228.245903 
L 194.648145 229.064552 
L 192.457769 230.379458 
L 187.966572 233.374791 
L 186.875711 233.964984 
L 184.650306 235.396957 
L 183.52895 235.903943 
L 182.414599 236.678985 
L 181.290769 237.26967 
L 180.204854 237.980556 
L 177.990988 239.172863 
L 176.897655 239.730977 
L 174.638869 241.554896 
L 171.330021 243.482425 
L 169.129549 244.299809 
L 168.029538 245.152235 
L 165.796715 246.448029 
L 158.091456 251.092386 
L 155.879651 252.601913 
L 154.747167 253.245447 
L 153.663312 253.675125 
L 152.58193 254.311162 
L 151.452331 254.829946 
L 150.333447 255.482145 
L 149.209617 256.417949 
L 148.12906 256.779537 
L 143.65682 259.212576 
L 142.560602 260.146044 
L 141.453257 260.525024 
L 140.345899 261.13888 
L 139.249681 261.5602 
L 137.006143 262.927894 
L 135.876544 263.879921 
L 132.610556 265.473945 
L 129.245249 267.543645 
L 128.155213 268.260922 
L 125.959067 269.072284 
L 120.403385 272.288048 
L 118.187046 273.020442 
L 117.083616 273.689418 
L 113.754437 276.153016 
L 112.64668 276.683846 
L 111.527383 276.963149 
L 110.436111 277.386743 
L 109.325675 277.946824 
L 107.09924 279.517804 
L 99.337935 283.566253 
L 97.167341 284.393346 
L 94.914737 285.893164 
L 90.492568 287.878212 
L 89.387078 288.648832 
L 88.269842 289.219975 
L 84.966719 290.45773 
L 83.845362 291.139119 
L 82.734514 292.134409 
L 81.653544 292.858815 
L 78.355823 294.005032 
L 77.244769 294.173862 
L 76.157618 294.536864 
L 75.0512 295.127149 
L 74.129769 295.463096 
L 74.08217 295.488 
L 73.832727 294.74 
L 73.833366 294.750816 
" clip-path="url(#pbbadd4a4e8)" style="fill: none; stroke: #000000; stroke-width: 1.5; stroke-linecap: square"/>
   </g>
   <g id="patch_3">
    <path d="M 57.6 307.584 
L 57.6 41.472 
" style="fill: none; stroke: #000000; stroke-width: 0.8; stroke-linejoin: miter; stroke-linecap: square"/>
   </g>
   <g id="patch_4">
    <path d="M 414.72 307.584 
L 414.72 41.472 
" style="fill: none; stroke: #000000; stroke-width: 0.8; stroke-linejoin: miter; stroke-linecap: square"/>
   </g>
   <g id="patch_5">
    <path d="M 57.6 307.584 
L 414.72 307.584 
" style="fill: none; stroke: #000000; stroke-width: 0.8; stroke-linejoin: miter; stroke-linecap: square"/>
   </g>
   <g id="patch_6">
    <path d="M 57.6 41.472 
L 414.72 41.472 
" style="fill: none; stroke: #000000; stroke-width: 0.8; stroke-linejoin: miter; stroke-linecap: square"/>
   </g>
   <g id="text_15">
    <!-- 2025-07-02 trial 4 -->
    <g transform="translate(181.83 35.472) scale(0.12 -0.12)">
     <defs>
      <path id="DejaVuSans-35" d="M 691 4666 
L 3169 4666 
L 3169 4134 
L 1269 4134 
L 1269 2991 
Q 1406 3038 1543 3061 
Q 1681 3084 1819 3084 
Q 2600 3084 3056 2656 
Q 3513 2228 3513 1497 
Q 3513 744 3044 326 
Q 2575 -91 1722 -91 
Q 1428 -91 1123 -41 
Q 819 9 494 109 
L 494 744 
Q 775 591 1075 516 
Q 1375 441 1709 441 
Q 2250 441 2565 725 
Q 2881 1009 2881 1497 
Q 2881 1984 2565 2268 
Q 2250 2553 1709 2553 
Q 1456 2553 1204 2497 
Q 953 2441 691 2322 
L 691 4666 
z
" transform="scale(0.015625)"/>
      <path id="DejaVuSans-2d" d="M 313 2009 
L 1997 2009 
L 1997 1497 
L 313 1497 
L 313 2009 
z
" transform="scale(0.015625)"/>
      <path id="DejaVuSans-37" d="M 525 4666 
L 3525 4666 
L 3525 4397 
L 1831 0 
L 1172 0 
L 2766 4134 
L 525 4134 
L 525 4666 
z
" transform="scale(0.015625)"/>
      <path id="DejaVuSans-6c" d="M 603 4863 
L 1178 4863 
L 1178 0 
L 603 0 
L 603 4863 
z
" transform="scale(0.015625)"/>
     </defs>
     <use xlink:href="#DejaVuSans-32"/>
     <use xlink:href="#DejaVuSans-30" transform="translate(63.623047 0)"/>
     <use xlink:href="#DejaVuSans-32" transform="translate(127.246094 0)"/>
     <use xlink:href="#DejaVuSans-35" transform="translate(190.869141 0)"/>
     <use xlink:href="#DejaVuSans-2d" transform="translate(254.492188 0)"/>
     <use xlink:href="#DejaVuSans-30" transform="translate(290.576172 0)"/>
     <use xlink:href="#DejaVuSans-37" transform="translate(354.199219 0)"/>
     <use xlink:href="#DejaVuSans-2d" transform="translate(417.822266 0)"/>
     <use xlink:href="#DejaVuSans-30" transform="translate(453.90625 0)"/>
     <use xlink:href="#DejaVuSans-32" transform="translate(517.529297 0)"/>
     <use xlink:href="#DejaVuSans-20" transform="translate(581.152344 0)"/>
     <use xlink:href="#DejaVuSans-74" transform="translate(612.939453 0)"/>
     <use xlink:href="#DejaVuSans-72" transform="translate(652.148438 0)"/>
     <use xlink:href="#DejaVuSans-69" transform="translate(693.261719 0)"/>
     <use xlink:href="#DejaVuSans-61" transform="translate(721.044922 0)"/>
     <use xlink:href="#DejaVuSans-6c" transform="translate(782.324219 0)"/>
     <use xlink:href="#DejaVuSans-20" transform="translate(810.107422 0)"/>
     <use xlink:href="#DejaVuSans-34" transform="translate(841.894531 0)"/>
    </g>
   </g>
  </g>
 </g>
 <defs>
  <clipPath id="pbbadd4a4e8">
   <rect x="57.6" y="41.472" width="357.12" height="266.112"/>
  </clipPath>
 </defs>
</svg>
