<?xml version="1.0" encoding="utf-8" standalone="no"?>
<!DOCTYPE svg PUBLIC "-//W3C//DTD SVG 1.1//EN"
  "http://www.w3.org/Graphics/SVG/1.1/DTD/svg11.dtd">
<svg xmlns:xlink="http://www.w3.org/1999/xlink" width="460.8pt" height="345.6pt" viewBox="0 0 460.8 345.6" xmlns="http://www.w3.org/2000/svg" version="1.1">
 <metadata>
  <rdf:RDF xmlns:dc="http://purl.org/dc/elements/1.1/" xmlns:cc="http://creativecommons.org/ns#" xmlns:rdf="http://www.w3.org/1999/02/22-rdf-syntax-ns#">
   <cc:Work>
    <dc:type rdf:resource="http://purl.org/dc/dcmitype/StillImage"/>
    <dc:date>2025-07-16T22:12:17.824151</dc:date>
    <dc:format>image/svg+xml</dc:format>
    <dc:creator>
     <cc:Agent>
      <dc:title>Matplotlib v3.10.3, https://matplotlib.org/</dc:title>
     </cc:Agent>
    </dc:creator>
   </cc:Work>
  </rdf:RDF>
 </metadata>
 <defs>
  <style type="text/css">*{stroke-linejoin: round; stroke-linecap: butt}</style>
 </defs>
 <g id="figure_1">
  <g id="patch_1">
   <path d="M 0 345.6 
L 460.8 345.6 
L 460.8 0 
L 0 0 
z
" style="fill: #ffffff"/>
  </g>
  <g id="axes_1">
   <g id="patch_2">
    <path d="M 57.6 307.584 
L 414.72 307.584 
L 414.72 41.472 
L 57.6 41.472 
z
" style="fill: #ffffff"/>
   </g>
   <g id="matplotlib.axis_1">
    <g id="xtick_1">
     <g id="line2d_1">
      <defs>
       <path id="m04081f7c4f" d="M 0 0 
L 0 3.5 
" style="stroke: #000000; stroke-width: 0.8"/>
      </defs>
      <g>
       <use xlink:href="#m04081f7c4f" x="74.066989" y="307.584" style="stroke: #000000; stroke-width: 0.8"/>
      </g>
     </g>
     <g id="text_1">
      <!-- 0.00 -->
      <g transform="translate(62.934176 322.182437) scale(0.1 -0.1)">
       <defs>
        <path id="DejaVuSans-30" d="M 2034 4250 
Q 1547 4250 1301 3770 
Q 1056 3291 1056 2328 
Q 1056 1369 1301 889 
Q 1547 409 2034 409 
Q 2525 409 2770 889 
Q 3016 1369 3016 2328 
Q 3016 3291 2770 3770 
Q 2525 4250 2034 4250 
z
M 2034 4750 
Q 2819 4750 3233 4129 
Q 3647 3509 3647 2328 
Q 3647 1150 3233 529 
Q 2819 -91 2034 -91 
Q 1250 -91 836 529 
Q 422 1150 422 2328 
Q 422 3509 836 4129 
Q 1250 4750 2034 4750 
z
" transform="scale(0.015625)"/>
        <path id="DejaVuSans-2e" d="M 684 794 
L 1344 794 
L 1344 0 
L 684 0 
L 684 794 
z
" transform="scale(0.015625)"/>
       </defs>
       <use xlink:href="#DejaVuSans-30"/>
       <use xlink:href="#DejaVuSans-2e" transform="translate(63.623047 0)"/>
       <use xlink:href="#DejaVuSans-30" transform="translate(95.410156 0)"/>
       <use xlink:href="#DejaVuSans-30" transform="translate(159.033203 0)"/>
      </g>
     </g>
    </g>
    <g id="xtick_2">
     <g id="line2d_2">
      <g>
       <use xlink:href="#m04081f7c4f" x="134.573566" y="307.584" style="stroke: #000000; stroke-width: 0.8"/>
      </g>
     </g>
     <g id="text_2">
      <!-- 0.02 -->
      <g transform="translate(123.440754 322.182437) scale(0.1 -0.1)">
       <defs>
        <path id="DejaVuSans-32" d="M 1228 531 
L 3431 531 
L 3431 0 
L 469 0 
L 469 531 
Q 828 903 1448 1529 
Q 2069 2156 2228 2338 
Q 2531 2678 2651 2914 
Q 2772 3150 2772 3378 
Q 2772 3750 2511 3984 
Q 2250 4219 1831 4219 
Q 1534 4219 1204 4116 
Q 875 4013 500 3803 
L 500 4441 
Q 881 4594 1212 4672 
Q 1544 4750 1819 4750 
Q 2544 4750 2975 4387 
Q 3406 4025 3406 3419 
Q 3406 3131 3298 2873 
Q 3191 2616 2906 2266 
Q 2828 2175 2409 1742 
Q 1991 1309 1228 531 
z
" transform="scale(0.015625)"/>
       </defs>
       <use xlink:href="#DejaVuSans-30"/>
       <use xlink:href="#DejaVuSans-2e" transform="translate(63.623047 0)"/>
       <use xlink:href="#DejaVuSans-30" transform="translate(95.410156 0)"/>
       <use xlink:href="#DejaVuSans-32" transform="translate(159.033203 0)"/>
      </g>
     </g>
    </g>
    <g id="xtick_3">
     <g id="line2d_3">
      <g>
       <use xlink:href="#m04081f7c4f" x="195.080144" y="307.584" style="stroke: #000000; stroke-width: 0.8"/>
      </g>
     </g>
     <g id="text_3">
      <!-- 0.04 -->
      <g transform="translate(183.947331 322.182437) scale(0.1 -0.1)">
       <defs>
        <path id="DejaVuSans-34" d="M 2419 4116 
L 825 1625 
L 2419 1625 
L 2419 4116 
z
M 2253 4666 
L 3047 4666 
L 3047 1625 
L 3713 1625 
L 3713 1100 
L 3047 1100 
L 3047 0 
L 2419 0 
L 2419 1100 
L 313 1100 
L 313 1709 
L 2253 4666 
z
" transform="scale(0.015625)"/>
       </defs>
       <use xlink:href="#DejaVuSans-30"/>
       <use xlink:href="#DejaVuSans-2e" transform="translate(63.623047 0)"/>
       <use xlink:href="#DejaVuSans-30" transform="translate(95.410156 0)"/>
       <use xlink:href="#DejaVuSans-34" transform="translate(159.033203 0)"/>
      </g>
     </g>
    </g>
    <g id="xtick_4">
     <g id="line2d_4">
      <g>
       <use xlink:href="#m04081f7c4f" x="255.586721" y="307.584" style="stroke: #000000; stroke-width: 0.8"/>
      </g>
     </g>
     <g id="text_4">
      <!-- 0.06 -->
      <g transform="translate(244.453909 322.182437) scale(0.1 -0.1)">
       <defs>
        <path id="DejaVuSans-36" d="M 2113 2584 
Q 1688 2584 1439 2293 
Q 1191 2003 1191 1497 
Q 1191 994 1439 701 
Q 1688 409 2113 409 
Q 2538 409 2786 701 
Q 3034 994 3034 1497 
Q 3034 2003 2786 2293 
Q 2538 2584 2113 2584 
z
M 3366 4563 
L 3366 3988 
Q 3128 4100 2886 4159 
Q 2644 4219 2406 4219 
Q 1781 4219 1451 3797 
Q 1122 3375 1075 2522 
Q 1259 2794 1537 2939 
Q 1816 3084 2150 3084 
Q 2853 3084 3261 2657 
Q 3669 2231 3669 1497 
Q 3669 778 3244 343 
Q 2819 -91 2113 -91 
Q 1303 -91 875 529 
Q 447 1150 447 2328 
Q 447 3434 972 4092 
Q 1497 4750 2381 4750 
Q 2619 4750 2861 4703 
Q 3103 4656 3366 4563 
z
" transform="scale(0.015625)"/>
       </defs>
       <use xlink:href="#DejaVuSans-30"/>
       <use xlink:href="#DejaVuSans-2e" transform="translate(63.623047 0)"/>
       <use xlink:href="#DejaVuSans-30" transform="translate(95.410156 0)"/>
       <use xlink:href="#DejaVuSans-36" transform="translate(159.033203 0)"/>
      </g>
     </g>
    </g>
    <g id="xtick_5">
     <g id="line2d_5">
      <g>
       <use xlink:href="#m04081f7c4f" x="316.093299" y="307.584" style="stroke: #000000; stroke-width: 0.8"/>
      </g>
     </g>
     <g id="text_5">
      <!-- 0.08 -->
      <g transform="translate(304.960486 322.182437) scale(0.1 -0.1)">
       <defs>
        <path id="DejaVuSans-38" d="M 2034 2216 
Q 1584 2216 1326 1975 
Q 1069 1734 1069 1313 
Q 1069 891 1326 650 
Q 1584 409 2034 409 
Q 2484 409 2743 651 
Q 3003 894 3003 1313 
Q 3003 1734 2745 1975 
Q 2488 2216 2034 2216 
z
M 1403 2484 
Q 997 2584 770 2862 
Q 544 3141 544 3541 
Q 544 4100 942 4425 
Q 1341 4750 2034 4750 
Q 2731 4750 3128 4425 
Q 3525 4100 3525 3541 
Q 3525 3141 3298 2862 
Q 3072 2584 2669 2484 
Q 3125 2378 3379 2068 
Q 3634 1759 3634 1313 
Q 3634 634 3220 271 
Q 2806 -91 2034 -91 
Q 1263 -91 848 271 
Q 434 634 434 1313 
Q 434 1759 690 2068 
Q 947 2378 1403 2484 
z
M 1172 3481 
Q 1172 3119 1398 2916 
Q 1625 2713 2034 2713 
Q 2441 2713 2670 2916 
Q 2900 3119 2900 3481 
Q 2900 3844 2670 4047 
Q 2441 4250 2034 4250 
Q 1625 4250 1398 4047 
Q 1172 3844 1172 3481 
z
" transform="scale(0.015625)"/>
       </defs>
       <use xlink:href="#DejaVuSans-30"/>
       <use xlink:href="#DejaVuSans-2e" transform="translate(63.623047 0)"/>
       <use xlink:href="#DejaVuSans-30" transform="translate(95.410156 0)"/>
       <use xlink:href="#DejaVuSans-38" transform="translate(159.033203 0)"/>
      </g>
     </g>
    </g>
    <g id="xtick_6">
     <g id="line2d_6">
      <g>
       <use xlink:href="#m04081f7c4f" x="376.599876" y="307.584" style="stroke: #000000; stroke-width: 0.8"/>
      </g>
     </g>
     <g id="text_6">
      <!-- 0.10 -->
      <g transform="translate(365.467064 322.182437) scale(0.1 -0.1)">
       <defs>
        <path id="DejaVuSans-31" d="M 794 531 
L 1825 531 
L 1825 4091 
L 703 3866 
L 703 4441 
L 1819 4666 
L 2450 4666 
L 2450 531 
L 3481 531 
L 3481 0 
L 794 0 
L 794 531 
z
" transform="scale(0.015625)"/>
       </defs>
       <use xlink:href="#DejaVuSans-30"/>
       <use xlink:href="#DejaVuSans-2e" transform="translate(63.623047 0)"/>
       <use xlink:href="#DejaVuSans-31" transform="translate(95.410156 0)"/>
       <use xlink:href="#DejaVuSans-30" transform="translate(159.033203 0)"/>
      </g>
     </g>
    </g>
    <g id="text_7">
     <!-- Strain -->
     <g transform="translate(221.348281 335.860562) scale(0.1 -0.1)">
      <defs>
       <path id="DejaVuSans-53" d="M 3425 4513 
L 3425 3897 
Q 3066 4069 2747 4153 
Q 2428 4238 2131 4238 
Q 1616 4238 1336 4038 
Q 1056 3838 1056 3469 
Q 1056 3159 1242 3001 
Q 1428 2844 1947 2747 
L 2328 2669 
Q 3034 2534 3370 2195 
Q 3706 1856 3706 1288 
Q 3706 609 3251 259 
Q 2797 -91 1919 -91 
Q 1588 -91 1214 -16 
Q 841 59 441 206 
L 441 856 
Q 825 641 1194 531 
Q 1563 422 1919 422 
Q 2459 422 2753 634 
Q 3047 847 3047 1241 
Q 3047 1584 2836 1778 
Q 2625 1972 2144 2069 
L 1759 2144 
Q 1053 2284 737 2584 
Q 422 2884 422 3419 
Q 422 4038 858 4394 
Q 1294 4750 2059 4750 
Q 2388 4750 2728 4690 
Q 3069 4631 3425 4513 
z
" transform="scale(0.015625)"/>
       <path id="DejaVuSans-74" d="M 1172 4494 
L 1172 3500 
L 2356 3500 
L 2356 3053 
L 1172 3053 
L 1172 1153 
Q 1172 725 1289 603 
Q 1406 481 1766 481 
L 2356 481 
L 2356 0 
L 1766 0 
Q 1100 0 847 248 
Q 594 497 594 1153 
L 594 3053 
L 172 3053 
L 172 3500 
L 594 3500 
L 594 4494 
L 1172 4494 
z
" transform="scale(0.015625)"/>
       <path id="DejaVuSans-72" d="M 2631 2963 
Q 2534 3019 2420 3045 
Q 2306 3072 2169 3072 
Q 1681 3072 1420 2755 
Q 1159 2438 1159 1844 
L 1159 0 
L 581 0 
L 581 3500 
L 1159 3500 
L 1159 2956 
Q 1341 3275 1631 3429 
Q 1922 3584 2338 3584 
Q 2397 3584 2469 3576 
Q 2541 3569 2628 3553 
L 2631 2963 
z
" transform="scale(0.015625)"/>
       <path id="DejaVuSans-61" d="M 2194 1759 
Q 1497 1759 1228 1600 
Q 959 1441 959 1056 
Q 959 750 1161 570 
Q 1363 391 1709 391 
Q 2188 391 2477 730 
Q 2766 1069 2766 1631 
L 2766 1759 
L 2194 1759 
z
M 3341 1997 
L 3341 0 
L 2766 0 
L 2766 531 
Q 2569 213 2275 61 
Q 1981 -91 1556 -91 
Q 1019 -91 701 211 
Q 384 513 384 1019 
Q 384 1609 779 1909 
Q 1175 2209 1959 2209 
L 2766 2209 
L 2766 2266 
Q 2766 2663 2505 2880 
Q 2244 3097 1772 3097 
Q 1472 3097 1187 3025 
Q 903 2953 641 2809 
L 641 3341 
Q 956 3463 1253 3523 
Q 1550 3584 1831 3584 
Q 2591 3584 2966 3190 
Q 3341 2797 3341 1997 
z
" transform="scale(0.015625)"/>
       <path id="DejaVuSans-69" d="M 603 3500 
L 1178 3500 
L 1178 0 
L 603 0 
L 603 3500 
z
M 603 4863 
L 1178 4863 
L 1178 4134 
L 603 4134 
L 603 4863 
z
" transform="scale(0.015625)"/>
       <path id="DejaVuSans-6e" d="M 3513 2113 
L 3513 0 
L 2938 0 
L 2938 2094 
Q 2938 2591 2744 2837 
Q 2550 3084 2163 3084 
Q 1697 3084 1428 2787 
Q 1159 2491 1159 1978 
L 1159 0 
L 581 0 
L 581 3500 
L 1159 3500 
L 1159 2956 
Q 1366 3272 1645 3428 
Q 1925 3584 2291 3584 
Q 2894 3584 3203 3211 
Q 3513 2838 3513 2113 
z
" transform="scale(0.015625)"/>
      </defs>
      <use xlink:href="#DejaVuSans-53"/>
      <use xlink:href="#DejaVuSans-74" transform="translate(63.476562 0)"/>
      <use xlink:href="#DejaVuSans-72" transform="translate(102.685547 0)"/>
      <use xlink:href="#DejaVuSans-61" transform="translate(143.798828 0)"/>
      <use xlink:href="#DejaVuSans-69" transform="translate(205.078125 0)"/>
      <use xlink:href="#DejaVuSans-6e" transform="translate(232.861328 0)"/>
     </g>
    </g>
   </g>
   <g id="matplotlib.axis_2">
    <g id="ytick_1">
     <g id="line2d_7">
      <defs>
       <path id="m26d3370d35" d="M 0 0 
L -3.5 0 
" style="stroke: #000000; stroke-width: 0.8"/>
      </defs>
      <g>
       <use xlink:href="#m26d3370d35" x="57.6" y="264.666929" style="stroke: #000000; stroke-width: 0.8"/>
      </g>
     </g>
     <g id="text_8">
      <!-- 0 -->
      <g transform="translate(44.2375 268.466148) scale(0.1 -0.1)">
       <use xlink:href="#DejaVuSans-30"/>
      </g>
     </g>
    </g>
    <g id="ytick_2">
     <g id="line2d_8">
      <g>
       <use xlink:href="#m26d3370d35" x="57.6" y="215.010266" style="stroke: #000000; stroke-width: 0.8"/>
      </g>
     </g>
     <g id="text_9">
      <!-- 200 -->
      <g transform="translate(31.5125 218.809485) scale(0.1 -0.1)">
       <use xlink:href="#DejaVuSans-32"/>
       <use xlink:href="#DejaVuSans-30" transform="translate(63.623047 0)"/>
       <use xlink:href="#DejaVuSans-30" transform="translate(127.246094 0)"/>
      </g>
     </g>
    </g>
    <g id="ytick_3">
     <g id="line2d_9">
      <g>
       <use xlink:href="#m26d3370d35" x="57.6" y="165.353602" style="stroke: #000000; stroke-width: 0.8"/>
      </g>
     </g>
     <g id="text_10">
      <!-- 400 -->
      <g transform="translate(31.5125 169.152821) scale(0.1 -0.1)">
       <use xlink:href="#DejaVuSans-34"/>
       <use xlink:href="#DejaVuSans-30" transform="translate(63.623047 0)"/>
       <use xlink:href="#DejaVuSans-30" transform="translate(127.246094 0)"/>
      </g>
     </g>
    </g>
    <g id="ytick_4">
     <g id="line2d_10">
      <g>
       <use xlink:href="#m26d3370d35" x="57.6" y="115.696939" style="stroke: #000000; stroke-width: 0.8"/>
      </g>
     </g>
     <g id="text_11">
      <!-- 600 -->
      <g transform="translate(31.5125 119.496157) scale(0.1 -0.1)">
       <use xlink:href="#DejaVuSans-36"/>
       <use xlink:href="#DejaVuSans-30" transform="translate(63.623047 0)"/>
       <use xlink:href="#DejaVuSans-30" transform="translate(127.246094 0)"/>
      </g>
     </g>
    </g>
    <g id="ytick_5">
     <g id="line2d_11">
      <g>
       <use xlink:href="#m26d3370d35" x="57.6" y="66.040275" style="stroke: #000000; stroke-width: 0.8"/>
      </g>
     </g>
     <g id="text_12">
      <!-- 800 -->
      <g transform="translate(31.5125 69.839494) scale(0.1 -0.1)">
       <use xlink:href="#DejaVuSans-38"/>
       <use xlink:href="#DejaVuSans-30" transform="translate(63.623047 0)"/>
       <use xlink:href="#DejaVuSans-30" transform="translate(127.246094 0)"/>
      </g>
     </g>
    </g>
    <g id="text_13">
     <!-- Stress [Pa] -->
     <g transform="translate(25.432812 201.235813) rotate(-90) scale(0.1 -0.1)">
      <defs>
       <path id="DejaVuSans-65" d="M 3597 1894 
L 3597 1613 
L 953 1613 
Q 991 1019 1311 708 
Q 1631 397 2203 397 
Q 2534 397 2845 478 
Q 3156 559 3463 722 
L 3463 178 
Q 3153 47 2828 -22 
Q 2503 -91 2169 -91 
Q 1331 -91 842 396 
Q 353 884 353 1716 
Q 353 2575 817 3079 
Q 1281 3584 2069 3584 
Q 2775 3584 3186 3129 
Q 3597 2675 3597 1894 
z
M 3022 2063 
Q 3016 2534 2758 2815 
Q 2500 3097 2075 3097 
Q 1594 3097 1305 2825 
Q 1016 2553 972 2059 
L 3022 2063 
z
" transform="scale(0.015625)"/>
       <path id="DejaVuSans-73" d="M 2834 3397 
L 2834 2853 
Q 2591 2978 2328 3040 
Q 2066 3103 1784 3103 
Q 1356 3103 1142 2972 
Q 928 2841 928 2578 
Q 928 2378 1081 2264 
Q 1234 2150 1697 2047 
L 1894 2003 
Q 2506 1872 2764 1633 
Q 3022 1394 3022 966 
Q 3022 478 2636 193 
Q 2250 -91 1575 -91 
Q 1294 -91 989 -36 
Q 684 19 347 128 
L 347 722 
Q 666 556 975 473 
Q 1284 391 1588 391 
Q 1994 391 2212 530 
Q 2431 669 2431 922 
Q 2431 1156 2273 1281 
Q 2116 1406 1581 1522 
L 1381 1569 
Q 847 1681 609 1914 
Q 372 2147 372 2553 
Q 372 3047 722 3315 
Q 1072 3584 1716 3584 
Q 2034 3584 2315 3537 
Q 2597 3491 2834 3397 
z
" transform="scale(0.015625)"/>
       <path id="DejaVuSans-20" transform="scale(0.015625)"/>
       <path id="DejaVuSans-5b" d="M 550 4863 
L 1875 4863 
L 1875 4416 
L 1125 4416 
L 1125 -397 
L 1875 -397 
L 1875 -844 
L 550 -844 
L 550 4863 
z
" transform="scale(0.015625)"/>
       <path id="DejaVuSans-50" d="M 1259 4147 
L 1259 2394 
L 2053 2394 
Q 2494 2394 2734 2622 
Q 2975 2850 2975 3272 
Q 2975 3691 2734 3919 
Q 2494 4147 2053 4147 
L 1259 4147 
z
M 628 4666 
L 2053 4666 
Q 2838 4666 3239 4311 
Q 3641 3956 3641 3272 
Q 3641 2581 3239 2228 
Q 2838 1875 2053 1875 
L 1259 1875 
L 1259 0 
L 628 0 
L 628 4666 
z
" transform="scale(0.015625)"/>
       <path id="DejaVuSans-5d" d="M 1947 4863 
L 1947 -844 
L 622 -844 
L 622 -397 
L 1369 -397 
L 1369 4416 
L 622 4416 
L 622 4863 
L 1947 4863 
z
" transform="scale(0.015625)"/>
      </defs>
      <use xlink:href="#DejaVuSans-53"/>
      <use xlink:href="#DejaVuSans-74" transform="translate(63.476562 0)"/>
      <use xlink:href="#DejaVuSans-72" transform="translate(102.685547 0)"/>
      <use xlink:href="#DejaVuSans-65" transform="translate(141.548828 0)"/>
      <use xlink:href="#DejaVuSans-73" transform="translate(203.072266 0)"/>
      <use xlink:href="#DejaVuSans-73" transform="translate(255.171875 0)"/>
      <use xlink:href="#DejaVuSans-20" transform="translate(307.271484 0)"/>
      <use xlink:href="#DejaVuSans-5b" transform="translate(339.058594 0)"/>
      <use xlink:href="#DejaVuSans-50" transform="translate(378.072266 0)"/>
      <use xlink:href="#DejaVuSans-61" transform="translate(433.875 0)"/>
      <use xlink:href="#DejaVuSans-5d" transform="translate(495.154297 0)"/>
     </g>
    </g>
   </g>
   <g id="line2d_12">
    <path d="M 74.066989 266.390462 
L 74.064752 265.953038 
L 74.063048 266.218537 
L 74.3625 266.274002 
L 75.451758 262.759326 
L 76.585015 259.821471 
L 77.747742 260.797836 
L 78.838752 261.026759 
L 81.094961 256.059676 
L 82.268817 256.424552 
L 87.041726 261.695209 
L 88.253501 262.237453 
L 89.43044 263.087133 
L 90.550714 263.490676 
L 91.76084 262.073303 
L 92.918209 260.136717 
L 94.050023 258.677996 
L 95.167823 259.177108 
L 96.374652 261.080197 
L 97.480088 260.533979 
L 100.898612 254.688627 
L 102.053094 253.615653 
L 103.240963 252.708597 
L 105.474916 252.883765 
L 106.592716 252.621606 
L 107.694854 252.239261 
L 108.780506 251.436363 
L 109.96178 250.347164 
L 112.224585 248.87274 
L 114.398361 247.929309 
L 115.489782 247.193929 
L 119.859591 245.314524 
L 123.208047 243.002396 
L 124.395916 242.215461 
L 126.763411 240.98599 
L 132.639286 237.19028 
L 134.803994 236.136672 
L 135.887997 235.31624 
L 136.979419 234.715113 
L 138.070841 234.255042 
L 142.423339 231.718637 
L 144.605358 230.252067 
L 146.802151 229.178316 
L 148.997359 227.640823 
L 150.101146 227.086802 
L 152.315314 225.757623 
L 153.424047 225.254111 
L 165.48162 217.704824 
L 167.844169 215.895686 
L 171.393763 213.478616 
L 173.757961 212.1777 
L 174.939235 211.255466 
L 181.559483 207.077411 
L 182.650911 206.510829 
L 184.839525 205.185052 
L 187.023193 203.808243 
L 192.466289 200.606594 
L 194.837081 198.84901 
L 197.202103 197.167058 
L 199.470677 195.751784 
L 200.551293 195.244387 
L 205.278039 191.759839 
L 208.727888 189.820112 
L 212.265117 187.335785 
L 214.433123 186.06732 
L 216.603601 184.851719 
L 217.790646 183.803345 
L 220.060869 182.266899 
L 228.132774 176.900983 
L 229.320644 176.352982 
L 230.504391 175.627023 
L 234.034201 173.149239 
L 236.386858 171.673246 
L 241.03859 167.845084 
L 243.394544 166.356791 
L 245.747201 164.443757 
L 248.111399 162.820427 
L 249.296795 162.08557 
L 250.378324 161.232425 
L 254.708295 158.452025 
L 255.792297 157.888583 
L 260.154687 154.96643 
L 261.250231 154.474694 
L 263.433899 153.10783 
L 265.605202 151.470629 
L 267.770734 150.008768 
L 271.310436 147.646132 
L 272.476048 146.579962 
L 274.812218 144.95035 
L 275.981952 143.905117 
L 277.156632 143.015334 
L 279.500221 141.613663 
L 285.327457 136.803862 
L 286.507907 136.299303 
L 287.689182 135.638246 
L 290.055028 133.875952 
L 291.138206 133.070698 
L 295.508015 130.397685 
L 298.86966 127.769161 
L 301.244574 125.896429 
L 302.326104 125.280123 
L 307.050378 121.845298 
L 309.404039 120.036912 
L 314.137381 116.565973 
L 315.319479 115.632747 
L 317.585581 114.251228 
L 318.666286 113.469527 
L 320.834292 111.721889 
L 321.924065 110.864556 
L 326.316131 107.889279 
L 328.512988 105.884126 
L 329.614302 105.075732 
L 330.71644 104.525113 
L 337.307012 99.439217 
L 342.844906 95.474186 
L 346.345452 92.560932 
L 347.511888 91.439805 
L 348.689866 90.654179 
L 349.874437 90.006469 
L 350.955967 89.185251 
L 353.22619 87.198941 
L 357.56962 83.80311 
L 366.354989 76.749141 
L 369.663876 74.808629 
L 371.845896 72.769455 
L 372.935669 71.798545 
L 376.201691 69.597902 
L 377.387911 68.721727 
L 382.087455 64.641809 
L 383.266256 63.864558 
L 385.626332 61.897613 
L 387.992179 59.745385 
L 389.179223 59.196598 
L 391.480771 58.532663 
L 392.645971 58.211294 
L 394.876626 57.052352 
L 396.010914 56.709851 
L 397.103778 55.596706 
L 397.964437 53.568 
L 398.487273 53.945471 
L 398.3256 56.553402 
L 398.237731 57.808716 
L 398.209265 60.910429 
L 398.210424 83.709176 
L 398.206818 83.243054 
L 397.10893 83.999124 
L 394.878687 89.29968 
L 393.772015 88.722826 
L 392.674823 88.400819 
L 391.514981 88.630723 
L 389.30205 89.378092 
L 388.214749 89.066668 
L 387.102719 89.404917 
L 385.968844 89.348651 
L 384.876598 92.27342 
L 383.769926 94.364934 
L 382.625747 95.679458 
L 381.477188 97.823345 
L 380.334657 99.357223 
L 379.244472 98.637087 
L 378.143158 98.104444 
L 375.877057 98.666872 
L 374.741533 99.35737 
L 373.648256 99.101639 
L 372.561162 104.256821 
L 371.450781 106.314575 
L 370.329683 106.586335 
L 368.092845 106.555209 
L 366.963092 107.219717 
L 365.836017 108.469862 
L 364.737177 110.063882 
L 363.637717 111.344123 
L 362.52713 112.07898 
L 361.397995 112.675265 
L 358.077979 115.232214 
L 356.968009 116.252848 
L 355.853918 116.83474 
L 354.755902 117.154669 
L 353.653764 117.981906 
L 351.437586 120.491013 
L 349.241347 122.390961 
L 345.950183 124.313416 
L 344.817956 125.530849 
L 342.572875 127.564004 
L 339.216794 130.05749 
L 337.033126 131.960579 
L 334.839154 133.806356 
L 333.750618 134.683054 
L 332.622513 135.293733 
L 328.137297 138.765327 
L 327.053706 139.788577 
L 324.878488 140.996213 
L 323.750795 141.815729 
L 320.441289 144.917147 
L 317.130341 146.632466 
L 315.998115 147.460095 
L 314.885878 148.456783 
L 311.576167 151.944209 
L 309.321193 152.775257 
L 305.989637 155.367405 
L 303.775056 157.481425 
L 302.691878 158.064756 
L 300.500791 159.503981 
L 298.292367 161.318116 
L 296.037394 162.74347 
L 294.943911 163.534723 
L 293.844658 164.136504 
L 292.751176 164.897661 
L 291.668409 165.903116 
L 289.431366 167.434459 
L 287.19865 169.066099 
L 286.072606 169.697126 
L 284.941616 170.643436 
L 279.452358 174.438623 
L 277.206865 176.381752 
L 276.122862 177.224168 
L 273.922707 178.3784 
L 272.823866 178.773633 
L 271.696354 179.578658 
L 270.587621 180.703449 
L 269.451685 181.639553 
L 265.00274 184.158817 
L 263.905548 185.008953 
L 262.777443 186.185822 
L 261.673244 187.004946 
L 259.46938 188.142167 
L 258.35364 188.764361 
L 257.257273 189.222992 
L 256.144006 189.89347 
L 255.052996 190.976126 
L 251.76719 193.060836 
L 248.483651 195.134521 
L 247.37904 196.305375 
L 244.075111 198.178246 
L 241.858058 199.678185 
L 239.627196 201.53757 
L 238.526707 202.334581 
L 235.189792 204.146336 
L 234.058802 205.059672 
L 228.52503 208.559006 
L 226.331882 210.257053 
L 220.764518 213.590141 
L 219.641359 214.351168 
L 217.476046 215.600544 
L 216.347117 216.259115 
L 213.010202 218.493975 
L 211.917543 218.844687 
L 209.742119 220.044978 
L 208.656055 220.737439 
L 207.573701 221.56834 
L 205.379729 222.789043 
L 203.153608 224.052536 
L 200.916564 225.78264 
L 196.526147 228.055513 
L 193.146366 230.463425 
L 189.839746 231.997089 
L 187.627638 233.680349 
L 185.381115 235.194813 
L 183.189203 236.183388 
L 182.064596 236.895214 
L 180.971731 237.733704 
L 179.88237 238.755908 
L 177.677063 240.072264 
L 175.46949 240.941569 
L 174.3385 241.481065 
L 173.23121 242.505363 
L 170.980152 244.024275 
L 165.483887 246.569971 
L 163.229191 248.269881 
L 160.972569 249.60377 
L 159.876202 250.1714 
L 158.772003 250.549067 
L 157.682642 251.229947 
L 156.569787 252.059277 
L 155.470328 253.03045 
L 153.241528 254.328355 
L 151.072698 254.907808 
L 149.952424 255.449529 
L 146.640239 258.104223 
L 144.411233 259.030775 
L 143.311568 259.380473 
L 142.186348 259.921638 
L 137.716176 262.943106 
L 133.374421 265.095086 
L 131.148712 266.140188 
L 127.771407 268.205794 
L 126.684932 268.626347 
L 124.427898 270.091349 
L 123.311334 270.62548 
L 121.109118 271.858746 
L 118.918443 272.686375 
L 116.685934 274.375524 
L 114.481657 275.738201 
L 111.18802 276.898124 
L 106.692329 279.367613 
L 105.609563 279.818655 
L 100.002426 283.34743 
L 98.899876 283.735991 
L 91.167598 288.057262 
L 88.98022 288.819727 
L 83.433259 292.044864 
L 78.921853 294.049643 
L 77.811266 294.181229 
L 75.614614 293.9658 
L 74.521441 294.677578 
L 74.115094 295.488 
L 73.833436 294.638962 
L 73.833436 294.638962 
" clip-path="url(#p1e95850567)" style="fill: none; stroke: #ff0000; stroke-width: 1.5; stroke-linecap: square"/>
   </g>
   <g id="line2d_13">
    <path d="M 74.066989 266.390462 
L 74.064752 265.953038 
L 74.063048 266.218537 
L 74.3625 266.274002 
L 75.451758 262.759326 
L 76.585015 259.821471 
L 77.747742 260.797836 
L 78.838752 265.909869 
L 81.094961 258.410862 
L 82.268817 258.086679 
L 83.394037 258.260711 
L 84.584379 258.885783 
L 87.041726 261.695209 
L 88.253501 262.237453 
L 89.43044 263.087133 
L 90.550714 263.490676 
L 91.76084 262.073303 
L 92.918209 260.136717 
L 94.050023 258.677996 
L 95.167823 259.177108 
L 96.374652 261.080197 
L 97.480088 260.533979 
L 100.898612 254.688627 
L 102.053094 253.615653 
L 103.240963 252.708597 
L 105.474916 252.883765 
L 106.592716 252.621606 
L 107.694854 252.239261 
L 108.780506 251.436363 
L 109.96178 250.347164 
L 112.224585 248.87274 
L 114.398361 247.929309 
L 115.489782 247.193929 
L 119.859591 245.314524 
L 123.208047 243.002396 
L 124.395916 242.215461 
L 126.763411 240.98599 
L 132.639286 237.19028 
L 134.803994 236.136672 
L 135.887997 235.31624 
L 136.979419 234.715113 
L 138.070841 234.255042 
L 142.423339 231.718637 
L 144.605358 230.252067 
L 146.802151 229.178316 
L 148.997359 227.640823 
L 150.101146 227.086802 
L 152.315314 225.757623 
L 153.424047 225.254111 
L 165.48162 217.704824 
L 167.844169 215.895686 
L 171.393763 213.478616 
L 173.757961 212.1777 
L 174.939235 211.255466 
L 181.559483 207.077411 
L 182.650911 206.510829 
L 184.839525 205.185052 
L 187.023193 203.808243 
L 192.466289 200.606594 
L 194.837081 198.84901 
L 197.202103 197.167058 
L 199.470677 195.751784 
L 200.551293 195.244387 
L 205.278039 191.759839 
L 208.727888 189.820112 
L 212.265117 187.335785 
L 214.433123 186.06732 
L 216.603601 184.851719 
L 217.790646 183.803345 
L 220.060869 182.266899 
L 228.132774 176.900983 
L 229.320644 176.352982 
L 230.504391 175.627023 
L 234.034201 173.149239 
L 236.386858 171.673246 
L 241.03859 167.845084 
L 243.394544 166.356791 
L 245.747201 164.443757 
L 248.111399 162.820427 
L 249.296795 162.08557 
L 250.378324 161.232425 
L 254.708295 158.452025 
L 255.792297 157.888583 
L 260.154687 154.96643 
L 261.250231 154.474694 
L 263.433899 153.10783 
L 265.605202 151.470629 
L 267.770734 150.008768 
L 271.310436 147.646132 
L 272.476048 146.579962 
L 274.812218 144.95035 
L 275.981952 143.905117 
L 277.156632 143.015334 
L 279.500221 141.613663 
L 285.327457 136.803862 
L 286.507907 136.299303 
L 287.689182 135.638246 
L 290.055028 133.875952 
L 291.138206 133.070698 
L 295.508015 130.397685 
L 298.86966 127.769161 
L 301.244574 125.896429 
L 302.326104 125.280123 
L 307.050378 121.845298 
L 309.404039 120.036912 
L 314.137381 116.565973 
L 315.319479 115.632747 
L 317.585581 114.251228 
L 318.666286 113.469527 
L 320.834292 111.721889 
L 321.924065 110.864556 
L 326.316131 107.889279 
L 328.512988 105.884126 
L 329.614302 105.075732 
L 330.71644 104.525113 
L 337.307012 99.439217 
L 342.844906 95.474186 
L 346.345452 92.560932 
L 347.511888 91.439805 
L 348.689866 90.654179 
L 349.874437 90.006469 
L 350.955967 89.185251 
L 353.22619 87.198941 
L 357.56962 83.80311 
L 366.354989 76.749141 
L 369.663876 74.808629 
L 371.845896 72.769455 
L 372.935669 71.798545 
L 376.201691 69.597902 
L 377.387911 68.721727 
L 382.087455 64.641809 
L 383.266256 63.864558 
L 385.626332 61.897613 
L 387.992179 59.745385 
L 389.179223 59.196598 
L 391.480771 58.532663 
L 392.645971 58.211294 
L 394.876626 57.052352 
L 396.010914 56.709851 
L 397.103778 55.596706 
L 397.964437 53.568 
L 398.487273 53.945471 
L 398.453913 55.026623 
L 398.381861 54.335765 
L 398.211223 59.154644 
L 398.209652 76.211788 
L 398.212872 76.07832 
L 398.211764 78.967825 
L 398.206354 78.908468 
L 398.210424 83.709176 
L 398.210759 78.771092 
L 398.206818 83.243054 
L 397.10893 83.999124 
L 394.878687 89.29968 
L 393.772015 88.722826 
L 392.674823 88.400819 
L 391.514981 88.630723 
L 389.30205 89.378092 
L 388.214749 89.066668 
L 387.102719 89.404917 
L 385.968844 89.348651 
L 384.876598 92.27342 
L 383.769926 94.364934 
L 382.625747 95.679458 
L 381.477188 97.823345 
L 380.334657 99.357223 
L 379.244472 98.637087 
L 378.143158 98.104444 
L 375.877057 98.666872 
L 374.741533 99.35737 
L 373.648256 99.101639 
L 372.561162 104.256821 
L 371.450781 106.314575 
L 370.329683 106.586335 
L 368.092845 106.555209 
L 366.963092 107.219717 
L 365.836017 108.469862 
L 364.737177 110.063882 
L 363.637717 111.344123 
L 362.52713 112.07898 
L 361.397995 112.675265 
L 358.077979 115.232214 
L 356.968009 116.252848 
L 355.853918 116.83474 
L 354.755902 117.154669 
L 353.653764 117.981906 
L 351.437586 120.491013 
L 349.241347 122.390961 
L 345.950183 124.313416 
L 344.817956 125.530849 
L 342.572875 127.564004 
L 339.216794 130.05749 
L 337.033126 131.960579 
L 334.839154 133.806356 
L 333.750618 134.683054 
L 332.622513 135.293733 
L 328.137297 138.765327 
L 327.053706 139.788577 
L 324.878488 140.996213 
L 323.750795 141.815729 
L 320.441289 144.917147 
L 317.130341 146.632466 
L 315.998115 147.460095 
L 314.885878 148.456783 
L 311.576167 151.944209 
L 309.321193 152.775257 
L 305.989637 155.367405 
L 303.775056 157.481425 
L 302.691878 158.064756 
L 300.500791 159.503981 
L 298.292367 161.318116 
L 296.037394 162.74347 
L 294.943911 163.534723 
L 293.844658 164.136504 
L 292.751176 164.897661 
L 291.668409 165.903116 
L 289.431366 167.434459 
L 287.19865 169.066099 
L 286.072606 169.697126 
L 284.941616 170.643436 
L 279.452358 174.438623 
L 277.206865 176.381752 
L 276.122862 177.224168 
L 273.922707 178.3784 
L 272.823866 178.773633 
L 271.696354 179.578658 
L 270.587621 180.703449 
L 269.451685 181.639553 
L 265.00274 184.158817 
L 263.905548 185.008953 
L 262.777443 186.185822 
L 261.673244 187.004946 
L 259.46938 188.142167 
L 258.35364 188.764361 
L 257.257273 189.222992 
L 256.144006 189.89347 
L 255.052996 190.976126 
L 251.76719 193.060836 
L 248.483651 195.134521 
L 247.37904 196.305375 
L 244.075111 198.178246 
L 241.858058 199.678185 
L 239.627196 201.53757 
L 238.526707 202.334581 
L 235.189792 204.146336 
L 234.058802 205.059672 
L 228.52503 208.559006 
L 226.331882 210.257053 
L 220.764518 213.590141 
L 219.641359 214.351168 
L 217.476046 215.600544 
L 216.347117 216.259115 
L 213.010202 218.493975 
L 211.917543 218.844687 
L 209.742119 220.044978 
L 208.656055 220.737439 
L 207.573701 221.56834 
L 205.379729 222.789043 
L 203.153608 224.052536 
L 200.916564 225.78264 
L 196.526147 228.055513 
L 193.146366 230.463425 
L 189.839746 231.997089 
L 188.728952 232.778266 
L 187.627638 233.767533 
L 185.381115 235.194813 
L 183.189203 236.183388 
L 182.064596 236.895214 
L 180.971731 237.733704 
L 179.88237 238.755908 
L 177.677063 240.072264 
L 175.46949 240.941569 
L 174.3385 241.481065 
L 173.23121 242.505363 
L 170.980152 244.024275 
L 165.483887 246.569971 
L 163.229191 248.269881 
L 160.972569 249.60377 
L 159.876202 250.1714 
L 158.772003 250.549067 
L 157.682642 251.229947 
L 156.569787 252.059277 
L 155.470328 253.03045 
L 153.241528 254.328355 
L 151.072698 254.907808 
L 149.952424 255.449529 
L 146.640239 258.104223 
L 144.411233 259.030775 
L 143.311568 259.380473 
L 142.186348 259.921638 
L 137.716176 262.943106 
L 133.374421 265.095086 
L 131.148712 266.140188 
L 127.771407 268.205794 
L 126.684932 268.626347 
L 124.427898 270.091349 
L 123.311334 270.62548 
L 121.109118 271.858746 
L 118.918443 272.686375 
L 116.685934 274.375524 
L 114.481657 275.738201 
L 111.18802 276.898124 
L 106.692329 279.367613 
L 105.609563 279.818655 
L 100.002426 283.34743 
L 98.899876 283.735991 
L 91.167598 288.057262 
L 88.98022 288.819727 
L 83.433259 292.044864 
L 78.921853 294.049643 
L 77.811266 294.181229 
L 75.614614 293.9658 
L 74.521441 294.677578 
L 74.115094 295.488 
L 73.833436 294.638962 
L 73.833436 294.638962 
" clip-path="url(#p1e95850567)" style="fill: none; stroke: #000000; stroke-width: 1.5; stroke-linecap: square"/>
   </g>
   <g id="patch_3">
    <path d="M 57.6 307.584 
L 57.6 41.472 
" style="fill: none; stroke: #000000; stroke-width: 0.8; stroke-linejoin: miter; stroke-linecap: square"/>
   </g>
   <g id="patch_4">
    <path d="M 414.72 307.584 
L 414.72 41.472 
" style="fill: none; stroke: #000000; stroke-width: 0.8; stroke-linejoin: miter; stroke-linecap: square"/>
   </g>
   <g id="patch_5">
    <path d="M 57.6 307.584 
L 414.72 307.584 
" style="fill: none; stroke: #000000; stroke-width: 0.8; stroke-linejoin: miter; stroke-linecap: square"/>
   </g>
   <g id="patch_6">
    <path d="M 57.6 41.472 
L 414.72 41.472 
" style="fill: none; stroke: #000000; stroke-width: 0.8; stroke-linejoin: miter; stroke-linecap: square"/>
   </g>
   <g id="text_14">
    <!-- 2025-07-02 trial 7 -->
    <g transform="translate(181.83 35.472) scale(0.12 -0.12)">
     <defs>
      <path id="DejaVuSans-35" d="M 691 4666 
L 3169 4666 
L 3169 4134 
L 1269 4134 
L 1269 2991 
Q 1406 3038 1543 3061 
Q 1681 3084 1819 3084 
Q 2600 3084 3056 2656 
Q 3513 2228 3513 1497 
Q 3513 744 3044 326 
Q 2575 -91 1722 -91 
Q 1428 -91 1123 -41 
Q 819 9 494 109 
L 494 744 
Q 775 591 1075 516 
Q 1375 441 1709 441 
Q 2250 441 2565 725 
Q 2881 1009 2881 1497 
Q 2881 1984 2565 2268 
Q 2250 2553 1709 2553 
Q 1456 2553 1204 2497 
Q 953 2441 691 2322 
L 691 4666 
z
" transform="scale(0.015625)"/>
      <path id="DejaVuSans-2d" d="M 313 2009 
L 1997 2009 
L 1997 1497 
L 313 1497 
L 313 2009 
z
" transform="scale(0.015625)"/>
      <path id="DejaVuSans-37" d="M 525 4666 
L 3525 4666 
L 3525 4397 
L 1831 0 
L 1172 0 
L 2766 4134 
L 525 4134 
L 525 4666 
z
" transform="scale(0.015625)"/>
      <path id="DejaVuSans-6c" d="M 603 4863 
L 1178 4863 
L 1178 0 
L 603 0 
L 603 4863 
z
" transform="scale(0.015625)"/>
     </defs>
     <use xlink:href="#DejaVuSans-32"/>
     <use xlink:href="#DejaVuSans-30" transform="translate(63.623047 0)"/>
     <use xlink:href="#DejaVuSans-32" transform="translate(127.246094 0)"/>
     <use xlink:href="#DejaVuSans-35" transform="translate(190.869141 0)"/>
     <use xlink:href="#DejaVuSans-2d" transform="translate(254.492188 0)"/>
     <use xlink:href="#DejaVuSans-30" transform="translate(290.576172 0)"/>
     <use xlink:href="#DejaVuSans-37" transform="translate(354.199219 0)"/>
     <use xlink:href="#DejaVuSans-2d" transform="translate(417.822266 0)"/>
     <use xlink:href="#DejaVuSans-30" transform="translate(453.90625 0)"/>
     <use xlink:href="#DejaVuSans-32" transform="translate(517.529297 0)"/>
     <use xlink:href="#DejaVuSans-20" transform="translate(581.152344 0)"/>
     <use xlink:href="#DejaVuSans-74" transform="translate(612.939453 0)"/>
     <use xlink:href="#DejaVuSans-72" transform="translate(652.148438 0)"/>
     <use xlink:href="#DejaVuSans-69" transform="translate(693.261719 0)"/>
     <use xlink:href="#DejaVuSans-61" transform="translate(721.044922 0)"/>
     <use xlink:href="#DejaVuSans-6c" transform="translate(782.324219 0)"/>
     <use xlink:href="#DejaVuSans-20" transform="translate(810.107422 0)"/>
     <use xlink:href="#DejaVuSans-37" transform="translate(841.894531 0)"/>
    </g>
   </g>
  </g>
 </g>
 <defs>
  <clipPath id="p1e95850567">
   <rect x="57.6" y="41.472" width="357.12" height="266.112"/>
  </clipPath>
 </defs>
</svg>
