<?xml version="1.0" encoding="utf-8" standalone="no"?>
<!DOCTYPE svg PUBLIC "-//W3C//DTD SVG 1.1//EN"
  "http://www.w3.org/Graphics/SVG/1.1/DTD/svg11.dtd">
<svg xmlns:xlink="http://www.w3.org/1999/xlink" width="432pt" height="288pt" viewBox="0 0 432 288" xmlns="http://www.w3.org/2000/svg" version="1.1">
 <metadata>
  <rdf:RDF xmlns:dc="http://purl.org/dc/elements/1.1/" xmlns:cc="http://creativecommons.org/ns#" xmlns:rdf="http://www.w3.org/1999/02/22-rdf-syntax-ns#">
   <cc:Work>
    <dc:type rdf:resource="http://purl.org/dc/dcmitype/StillImage"/>
    <dc:date>2025-07-03T20:54:33.483373</dc:date>
    <dc:format>image/svg+xml</dc:format>
    <dc:creator>
     <cc:Agent>
      <dc:title>Matplotlib v3.9.2, https://matplotlib.org/</dc:title>
     </cc:Agent>
    </dc:creator>
   </cc:Work>
  </rdf:RDF>
 </metadata>
 <defs>
  <style type="text/css">*{stroke-linejoin: round; stroke-linecap: butt}</style>
 </defs>
 <g id="figure_1">
  <g id="patch_1">
   <path d="M 0 288 
L 432 288 
L 432 0 
L 0 0 
z
" style="fill: #ffffff"/>
  </g>
  <g id="axes_1">
   <g id="patch_2">
    <path d="M 54 256.32 
L 388.8 256.32 
L 388.8 34.56 
L 54 34.56 
z
" style="fill: #ffffff"/>
   </g>
   <g id="matplotlib.axis_1">
    <g id="xtick_1">
     <g id="line2d_1">
      <defs>
       <path id="m8f72e63dd7" d="M 0 0 
L 0 3.5 
" style="stroke: #000000; stroke-width: 0.8"/>
      </defs>
      <g>
       <use xlink:href="#m8f72e63dd7" x="69.345588" y="256.32" style="stroke: #000000; stroke-width: 0.8"/>
      </g>
     </g>
     <g id="text_1">
      <!-- 0.000 -->
      <g transform="translate(55.031526 270.918437) scale(0.1 -0.1)">
       <defs>
        <path id="DejaVuSans-30" d="M 2034 4250 
Q 1547 4250 1301 3770 
Q 1056 3291 1056 2328 
Q 1056 1369 1301 889 
Q 1547 409 2034 409 
Q 2525 409 2770 889 
Q 3016 1369 3016 2328 
Q 3016 3291 2770 3770 
Q 2525 4250 2034 4250 
z
M 2034 4750 
Q 2819 4750 3233 4129 
Q 3647 3509 3647 2328 
Q 3647 1150 3233 529 
Q 2819 -91 2034 -91 
Q 1250 -91 836 529 
Q 422 1150 422 2328 
Q 422 3509 836 4129 
Q 1250 4750 2034 4750 
z
" transform="scale(0.015625)"/>
        <path id="DejaVuSans-2e" d="M 684 794 
L 1344 794 
L 1344 0 
L 684 0 
L 684 794 
z
" transform="scale(0.015625)"/>
       </defs>
       <use xlink:href="#DejaVuSans-30"/>
       <use xlink:href="#DejaVuSans-2e" x="63.623047"/>
       <use xlink:href="#DejaVuSans-30" x="95.410156"/>
       <use xlink:href="#DejaVuSans-30" x="159.033203"/>
       <use xlink:href="#DejaVuSans-30" x="222.65625"/>
      </g>
     </g>
    </g>
    <g id="xtick_2">
     <g id="line2d_2">
      <g>
       <use xlink:href="#m8f72e63dd7" x="111.917321" y="256.32" style="stroke: #000000; stroke-width: 0.8"/>
      </g>
     </g>
     <g id="text_2">
      <!-- 0.025 -->
      <g transform="translate(97.603259 270.918437) scale(0.1 -0.1)">
       <defs>
        <path id="DejaVuSans-32" d="M 1228 531 
L 3431 531 
L 3431 0 
L 469 0 
L 469 531 
Q 828 903 1448 1529 
Q 2069 2156 2228 2338 
Q 2531 2678 2651 2914 
Q 2772 3150 2772 3378 
Q 2772 3750 2511 3984 
Q 2250 4219 1831 4219 
Q 1534 4219 1204 4116 
Q 875 4013 500 3803 
L 500 4441 
Q 881 4594 1212 4672 
Q 1544 4750 1819 4750 
Q 2544 4750 2975 4387 
Q 3406 4025 3406 3419 
Q 3406 3131 3298 2873 
Q 3191 2616 2906 2266 
Q 2828 2175 2409 1742 
Q 1991 1309 1228 531 
z
" transform="scale(0.015625)"/>
        <path id="DejaVuSans-35" d="M 691 4666 
L 3169 4666 
L 3169 4134 
L 1269 4134 
L 1269 2991 
Q 1406 3038 1543 3061 
Q 1681 3084 1819 3084 
Q 2600 3084 3056 2656 
Q 3513 2228 3513 1497 
Q 3513 744 3044 326 
Q 2575 -91 1722 -91 
Q 1428 -91 1123 -41 
Q 819 9 494 109 
L 494 744 
Q 775 591 1075 516 
Q 1375 441 1709 441 
Q 2250 441 2565 725 
Q 2881 1009 2881 1497 
Q 2881 1984 2565 2268 
Q 2250 2553 1709 2553 
Q 1456 2553 1204 2497 
Q 953 2441 691 2322 
L 691 4666 
z
" transform="scale(0.015625)"/>
       </defs>
       <use xlink:href="#DejaVuSans-30"/>
       <use xlink:href="#DejaVuSans-2e" x="63.623047"/>
       <use xlink:href="#DejaVuSans-30" x="95.410156"/>
       <use xlink:href="#DejaVuSans-32" x="159.033203"/>
       <use xlink:href="#DejaVuSans-35" x="222.65625"/>
      </g>
     </g>
    </g>
    <g id="xtick_3">
     <g id="line2d_3">
      <g>
       <use xlink:href="#m8f72e63dd7" x="154.489054" y="256.32" style="stroke: #000000; stroke-width: 0.8"/>
      </g>
     </g>
     <g id="text_3">
      <!-- 0.050 -->
      <g transform="translate(140.174992 270.918437) scale(0.1 -0.1)">
       <use xlink:href="#DejaVuSans-30"/>
       <use xlink:href="#DejaVuSans-2e" x="63.623047"/>
       <use xlink:href="#DejaVuSans-30" x="95.410156"/>
       <use xlink:href="#DejaVuSans-35" x="159.033203"/>
       <use xlink:href="#DejaVuSans-30" x="222.65625"/>
      </g>
     </g>
    </g>
    <g id="xtick_4">
     <g id="line2d_4">
      <g>
       <use xlink:href="#m8f72e63dd7" x="197.060787" y="256.32" style="stroke: #000000; stroke-width: 0.8"/>
      </g>
     </g>
     <g id="text_4">
      <!-- 0.075 -->
      <g transform="translate(182.746725 270.918437) scale(0.1 -0.1)">
       <defs>
        <path id="DejaVuSans-37" d="M 525 4666 
L 3525 4666 
L 3525 4397 
L 1831 0 
L 1172 0 
L 2766 4134 
L 525 4134 
L 525 4666 
z
" transform="scale(0.015625)"/>
       </defs>
       <use xlink:href="#DejaVuSans-30"/>
       <use xlink:href="#DejaVuSans-2e" x="63.623047"/>
       <use xlink:href="#DejaVuSans-30" x="95.410156"/>
       <use xlink:href="#DejaVuSans-37" x="159.033203"/>
       <use xlink:href="#DejaVuSans-35" x="222.65625"/>
      </g>
     </g>
    </g>
    <g id="xtick_5">
     <g id="line2d_5">
      <g>
       <use xlink:href="#m8f72e63dd7" x="239.632521" y="256.32" style="stroke: #000000; stroke-width: 0.8"/>
      </g>
     </g>
     <g id="text_5">
      <!-- 0.100 -->
      <g transform="translate(225.318458 270.918437) scale(0.1 -0.1)">
       <defs>
        <path id="DejaVuSans-31" d="M 794 531 
L 1825 531 
L 1825 4091 
L 703 3866 
L 703 4441 
L 1819 4666 
L 2450 4666 
L 2450 531 
L 3481 531 
L 3481 0 
L 794 0 
L 794 531 
z
" transform="scale(0.015625)"/>
       </defs>
       <use xlink:href="#DejaVuSans-30"/>
       <use xlink:href="#DejaVuSans-2e" x="63.623047"/>
       <use xlink:href="#DejaVuSans-31" x="95.410156"/>
       <use xlink:href="#DejaVuSans-30" x="159.033203"/>
       <use xlink:href="#DejaVuSans-30" x="222.65625"/>
      </g>
     </g>
    </g>
    <g id="xtick_6">
     <g id="line2d_6">
      <g>
       <use xlink:href="#m8f72e63dd7" x="282.204254" y="256.32" style="stroke: #000000; stroke-width: 0.8"/>
      </g>
     </g>
     <g id="text_6">
      <!-- 0.125 -->
      <g transform="translate(267.890191 270.918437) scale(0.1 -0.1)">
       <use xlink:href="#DejaVuSans-30"/>
       <use xlink:href="#DejaVuSans-2e" x="63.623047"/>
       <use xlink:href="#DejaVuSans-31" x="95.410156"/>
       <use xlink:href="#DejaVuSans-32" x="159.033203"/>
       <use xlink:href="#DejaVuSans-35" x="222.65625"/>
      </g>
     </g>
    </g>
    <g id="xtick_7">
     <g id="line2d_7">
      <g>
       <use xlink:href="#m8f72e63dd7" x="324.775987" y="256.32" style="stroke: #000000; stroke-width: 0.8"/>
      </g>
     </g>
     <g id="text_7">
      <!-- 0.150 -->
      <g transform="translate(310.461924 270.918437) scale(0.1 -0.1)">
       <use xlink:href="#DejaVuSans-30"/>
       <use xlink:href="#DejaVuSans-2e" x="63.623047"/>
       <use xlink:href="#DejaVuSans-31" x="95.410156"/>
       <use xlink:href="#DejaVuSans-35" x="159.033203"/>
       <use xlink:href="#DejaVuSans-30" x="222.65625"/>
      </g>
     </g>
    </g>
    <g id="xtick_8">
     <g id="line2d_8">
      <g>
       <use xlink:href="#m8f72e63dd7" x="367.34772" y="256.32" style="stroke: #000000; stroke-width: 0.8"/>
      </g>
     </g>
     <g id="text_8">
      <!-- 0.175 -->
      <g transform="translate(353.033657 270.918437) scale(0.1 -0.1)">
       <use xlink:href="#DejaVuSans-30"/>
       <use xlink:href="#DejaVuSans-2e" x="63.623047"/>
       <use xlink:href="#DejaVuSans-31" x="95.410156"/>
       <use xlink:href="#DejaVuSans-37" x="159.033203"/>
       <use xlink:href="#DejaVuSans-35" x="222.65625"/>
      </g>
     </g>
    </g>
    <g id="text_9">
     <!-- Strain -->
     <g transform="translate(206.588281 284.596563) scale(0.1 -0.1)">
      <defs>
       <path id="DejaVuSans-53" d="M 3425 4513 
L 3425 3897 
Q 3066 4069 2747 4153 
Q 2428 4238 2131 4238 
Q 1616 4238 1336 4038 
Q 1056 3838 1056 3469 
Q 1056 3159 1242 3001 
Q 1428 2844 1947 2747 
L 2328 2669 
Q 3034 2534 3370 2195 
Q 3706 1856 3706 1288 
Q 3706 609 3251 259 
Q 2797 -91 1919 -91 
Q 1588 -91 1214 -16 
Q 841 59 441 206 
L 441 856 
Q 825 641 1194 531 
Q 1563 422 1919 422 
Q 2459 422 2753 634 
Q 3047 847 3047 1241 
Q 3047 1584 2836 1778 
Q 2625 1972 2144 2069 
L 1759 2144 
Q 1053 2284 737 2584 
Q 422 2884 422 3419 
Q 422 4038 858 4394 
Q 1294 4750 2059 4750 
Q 2388 4750 2728 4690 
Q 3069 4631 3425 4513 
z
" transform="scale(0.015625)"/>
       <path id="DejaVuSans-74" d="M 1172 4494 
L 1172 3500 
L 2356 3500 
L 2356 3053 
L 1172 3053 
L 1172 1153 
Q 1172 725 1289 603 
Q 1406 481 1766 481 
L 2356 481 
L 2356 0 
L 1766 0 
Q 1100 0 847 248 
Q 594 497 594 1153 
L 594 3053 
L 172 3053 
L 172 3500 
L 594 3500 
L 594 4494 
L 1172 4494 
z
" transform="scale(0.015625)"/>
       <path id="DejaVuSans-72" d="M 2631 2963 
Q 2534 3019 2420 3045 
Q 2306 3072 2169 3072 
Q 1681 3072 1420 2755 
Q 1159 2438 1159 1844 
L 1159 0 
L 581 0 
L 581 3500 
L 1159 3500 
L 1159 2956 
Q 1341 3275 1631 3429 
Q 1922 3584 2338 3584 
Q 2397 3584 2469 3576 
Q 2541 3569 2628 3553 
L 2631 2963 
z
" transform="scale(0.015625)"/>
       <path id="DejaVuSans-61" d="M 2194 1759 
Q 1497 1759 1228 1600 
Q 959 1441 959 1056 
Q 959 750 1161 570 
Q 1363 391 1709 391 
Q 2188 391 2477 730 
Q 2766 1069 2766 1631 
L 2766 1759 
L 2194 1759 
z
M 3341 1997 
L 3341 0 
L 2766 0 
L 2766 531 
Q 2569 213 2275 61 
Q 1981 -91 1556 -91 
Q 1019 -91 701 211 
Q 384 513 384 1019 
Q 384 1609 779 1909 
Q 1175 2209 1959 2209 
L 2766 2209 
L 2766 2266 
Q 2766 2663 2505 2880 
Q 2244 3097 1772 3097 
Q 1472 3097 1187 3025 
Q 903 2953 641 2809 
L 641 3341 
Q 956 3463 1253 3523 
Q 1550 3584 1831 3584 
Q 2591 3584 2966 3190 
Q 3341 2797 3341 1997 
z
" transform="scale(0.015625)"/>
       <path id="DejaVuSans-69" d="M 603 3500 
L 1178 3500 
L 1178 0 
L 603 0 
L 603 3500 
z
M 603 4863 
L 1178 4863 
L 1178 4134 
L 603 4134 
L 603 4863 
z
" transform="scale(0.015625)"/>
       <path id="DejaVuSans-6e" d="M 3513 2113 
L 3513 0 
L 2938 0 
L 2938 2094 
Q 2938 2591 2744 2837 
Q 2550 3084 2163 3084 
Q 1697 3084 1428 2787 
Q 1159 2491 1159 1978 
L 1159 0 
L 581 0 
L 581 3500 
L 1159 3500 
L 1159 2956 
Q 1366 3272 1645 3428 
Q 1925 3584 2291 3584 
Q 2894 3584 3203 3211 
Q 3513 2838 3513 2113 
z
" transform="scale(0.015625)"/>
      </defs>
      <use xlink:href="#DejaVuSans-53"/>
      <use xlink:href="#DejaVuSans-74" x="63.476562"/>
      <use xlink:href="#DejaVuSans-72" x="102.685547"/>
      <use xlink:href="#DejaVuSans-61" x="143.798828"/>
      <use xlink:href="#DejaVuSans-69" x="205.078125"/>
      <use xlink:href="#DejaVuSans-6e" x="232.861328"/>
     </g>
    </g>
   </g>
   <g id="matplotlib.axis_2">
    <g id="ytick_1">
     <g id="line2d_9">
      <defs>
       <path id="m721d375d62" d="M 0 0 
L -3.5 0 
" style="stroke: #000000; stroke-width: 0.8"/>
      </defs>
      <g>
       <use xlink:href="#m721d375d62" x="54" y="232.447287" style="stroke: #000000; stroke-width: 0.8"/>
      </g>
     </g>
     <g id="text_10">
      <!-- 0 -->
      <g transform="translate(40.6375 236.246505) scale(0.1 -0.1)">
       <use xlink:href="#DejaVuSans-30"/>
      </g>
     </g>
    </g>
    <g id="ytick_2">
     <g id="line2d_10">
      <g>
       <use xlink:href="#m721d375d62" x="54" y="202.535293" style="stroke: #000000; stroke-width: 0.8"/>
      </g>
     </g>
     <g id="text_11">
      <!-- 250 -->
      <g transform="translate(27.9125 206.334512) scale(0.1 -0.1)">
       <use xlink:href="#DejaVuSans-32"/>
       <use xlink:href="#DejaVuSans-35" x="63.623047"/>
       <use xlink:href="#DejaVuSans-30" x="127.246094"/>
      </g>
     </g>
    </g>
    <g id="ytick_3">
     <g id="line2d_11">
      <g>
       <use xlink:href="#m721d375d62" x="54" y="172.6233" style="stroke: #000000; stroke-width: 0.8"/>
      </g>
     </g>
     <g id="text_12">
      <!-- 500 -->
      <g transform="translate(27.9125 176.422519) scale(0.1 -0.1)">
       <use xlink:href="#DejaVuSans-35"/>
       <use xlink:href="#DejaVuSans-30" x="63.623047"/>
       <use xlink:href="#DejaVuSans-30" x="127.246094"/>
      </g>
     </g>
    </g>
    <g id="ytick_4">
     <g id="line2d_12">
      <g>
       <use xlink:href="#m721d375d62" x="54" y="142.711306" style="stroke: #000000; stroke-width: 0.8"/>
      </g>
     </g>
     <g id="text_13">
      <!-- 750 -->
      <g transform="translate(27.9125 146.510525) scale(0.1 -0.1)">
       <use xlink:href="#DejaVuSans-37"/>
       <use xlink:href="#DejaVuSans-35" x="63.623047"/>
       <use xlink:href="#DejaVuSans-30" x="127.246094"/>
      </g>
     </g>
    </g>
    <g id="ytick_5">
     <g id="line2d_13">
      <g>
       <use xlink:href="#m721d375d62" x="54" y="112.799313" style="stroke: #000000; stroke-width: 0.8"/>
      </g>
     </g>
     <g id="text_14">
      <!-- 1000 -->
      <g transform="translate(21.55 116.598532) scale(0.1 -0.1)">
       <use xlink:href="#DejaVuSans-31"/>
       <use xlink:href="#DejaVuSans-30" x="63.623047"/>
       <use xlink:href="#DejaVuSans-30" x="127.246094"/>
       <use xlink:href="#DejaVuSans-30" x="190.869141"/>
      </g>
     </g>
    </g>
    <g id="ytick_6">
     <g id="line2d_14">
      <g>
       <use xlink:href="#m721d375d62" x="54" y="82.88732" style="stroke: #000000; stroke-width: 0.8"/>
      </g>
     </g>
     <g id="text_15">
      <!-- 1250 -->
      <g transform="translate(21.55 86.686538) scale(0.1 -0.1)">
       <use xlink:href="#DejaVuSans-31"/>
       <use xlink:href="#DejaVuSans-32" x="63.623047"/>
       <use xlink:href="#DejaVuSans-35" x="127.246094"/>
       <use xlink:href="#DejaVuSans-30" x="190.869141"/>
      </g>
     </g>
    </g>
    <g id="ytick_7">
     <g id="line2d_15">
      <g>
       <use xlink:href="#m721d375d62" x="54" y="52.975326" style="stroke: #000000; stroke-width: 0.8"/>
      </g>
     </g>
     <g id="text_16">
      <!-- 1500 -->
      <g transform="translate(21.55 56.774545) scale(0.1 -0.1)">
       <use xlink:href="#DejaVuSans-31"/>
       <use xlink:href="#DejaVuSans-35" x="63.623047"/>
       <use xlink:href="#DejaVuSans-30" x="127.246094"/>
       <use xlink:href="#DejaVuSans-30" x="190.869141"/>
      </g>
     </g>
    </g>
    <g id="text_17">
     <!-- Stress [Pa] -->
     <g transform="translate(15.470312 172.147812) rotate(-90) scale(0.1 -0.1)">
      <defs>
       <path id="DejaVuSans-65" d="M 3597 1894 
L 3597 1613 
L 953 1613 
Q 991 1019 1311 708 
Q 1631 397 2203 397 
Q 2534 397 2845 478 
Q 3156 559 3463 722 
L 3463 178 
Q 3153 47 2828 -22 
Q 2503 -91 2169 -91 
Q 1331 -91 842 396 
Q 353 884 353 1716 
Q 353 2575 817 3079 
Q 1281 3584 2069 3584 
Q 2775 3584 3186 3129 
Q 3597 2675 3597 1894 
z
M 3022 2063 
Q 3016 2534 2758 2815 
Q 2500 3097 2075 3097 
Q 1594 3097 1305 2825 
Q 1016 2553 972 2059 
L 3022 2063 
z
" transform="scale(0.015625)"/>
       <path id="DejaVuSans-73" d="M 2834 3397 
L 2834 2853 
Q 2591 2978 2328 3040 
Q 2066 3103 1784 3103 
Q 1356 3103 1142 2972 
Q 928 2841 928 2578 
Q 928 2378 1081 2264 
Q 1234 2150 1697 2047 
L 1894 2003 
Q 2506 1872 2764 1633 
Q 3022 1394 3022 966 
Q 3022 478 2636 193 
Q 2250 -91 1575 -91 
Q 1294 -91 989 -36 
Q 684 19 347 128 
L 347 722 
Q 666 556 975 473 
Q 1284 391 1588 391 
Q 1994 391 2212 530 
Q 2431 669 2431 922 
Q 2431 1156 2273 1281 
Q 2116 1406 1581 1522 
L 1381 1569 
Q 847 1681 609 1914 
Q 372 2147 372 2553 
Q 372 3047 722 3315 
Q 1072 3584 1716 3584 
Q 2034 3584 2315 3537 
Q 2597 3491 2834 3397 
z
" transform="scale(0.015625)"/>
       <path id="DejaVuSans-20" transform="scale(0.015625)"/>
       <path id="DejaVuSans-5b" d="M 550 4863 
L 1875 4863 
L 1875 4416 
L 1125 4416 
L 1125 -397 
L 1875 -397 
L 1875 -844 
L 550 -844 
L 550 4863 
z
" transform="scale(0.015625)"/>
       <path id="DejaVuSans-50" d="M 1259 4147 
L 1259 2394 
L 2053 2394 
Q 2494 2394 2734 2622 
Q 2975 2850 2975 3272 
Q 2975 3691 2734 3919 
Q 2494 4147 2053 4147 
L 1259 4147 
z
M 628 4666 
L 2053 4666 
Q 2838 4666 3239 4311 
Q 3641 3956 3641 3272 
Q 3641 2581 3239 2228 
Q 2838 1875 2053 1875 
L 1259 1875 
L 1259 0 
L 628 0 
L 628 4666 
z
" transform="scale(0.015625)"/>
       <path id="DejaVuSans-5d" d="M 1947 4863 
L 1947 -844 
L 622 -844 
L 622 -397 
L 1369 -397 
L 1369 4416 
L 622 4416 
L 622 4863 
L 1947 4863 
z
" transform="scale(0.015625)"/>
      </defs>
      <use xlink:href="#DejaVuSans-53"/>
      <use xlink:href="#DejaVuSans-74" x="63.476562"/>
      <use xlink:href="#DejaVuSans-72" x="102.685547"/>
      <use xlink:href="#DejaVuSans-65" x="141.548828"/>
      <use xlink:href="#DejaVuSans-73" x="203.072266"/>
      <use xlink:href="#DejaVuSans-73" x="255.171875"/>
      <use xlink:href="#DejaVuSans-20" x="307.271484"/>
      <use xlink:href="#DejaVuSans-5b" x="339.058594"/>
      <use xlink:href="#DejaVuSans-50" x="378.072266"/>
      <use xlink:href="#DejaVuSans-61" x="433.875"/>
      <use xlink:href="#DejaVuSans-5d" x="495.154297"/>
     </g>
    </g>
   </g>
   <g id="line2d_16">
    <path d="M 69.345588 232.780356 
L 69.345734 232.42933 
L 69.346593 232.530331 
L 69.957393 230.789683 
L 70.570447 228.374854 
L 71.198928 228.425591 
L 71.862905 228.824994 
L 72.547762 228.566133 
L 74.503501 226.64794 
L 75.17119 226.518201 
L 75.885742 226.841935 
L 77.159872 227.742388 
L 77.821529 228.124766 
L 80.485789 230.068938 
L 81.125174 230.108412 
L 81.746928 229.685426 
L 83.189952 228.328944 
L 83.894761 227.881997 
L 84.591217 227.723787 
L 85.945619 227.983376 
L 86.594748 228.071309 
L 87.217894 227.837053 
L 88.590855 226.423568 
L 89.250192 225.719852 
L 90.549842 224.754072 
L 91.842068 224.030934 
L 93.789456 223.279674 
L 95.090962 222.848994 
L 97.67263 221.898978 
L 99.579186 220.962204 
L 100.84311 220.361902 
L 105.257161 218.840636 
L 108.404439 217.239494 
L 110.299395 216.377127 
L 112.196207 215.58967 
L 120.400104 211.338874 
L 122.337283 210.342196 
L 126.891395 208.894408 
L 129.45636 207.494543 
L 132.006012 206.280066 
L 137.144758 203.423838 
L 138.444872 202.792259 
L 140.393651 201.771241 
L 142.983208 200.551088 
L 144.912035 199.880288 
L 146.815807 198.952092 
L 153.165203 195.172221 
L 155.759399 193.936304 
L 158.372619 192.72561 
L 170.574761 186.119762 
L 172.508229 185.031147 
L 174.450512 183.984401 
L 176.384444 182.751764 
L 179.603177 181.015175 
L 181.526901 180.143223 
L 183.431601 179.035943 
L 185.337693 178.095637 
L 187.241928 177.102616 
L 189.769773 175.627083 
L 193.577411 173.217952 
L 199.974511 169.725605 
L 202.511636 168.424614 
L 204.384784 167.356681 
L 206.866694 165.718717 
L 208.738914 164.813976 
L 213.160787 161.720906 
L 223.345015 156.230662 
L 224.602905 155.256305 
L 225.864972 154.290525 
L 229.034058 152.286322 
L 231.574895 150.839039 
L 234.128724 149.26892 
L 235.411206 148.450441 
L 236.700185 147.590596 
L 237.991019 146.714861 
L 239.933201 145.314917 
L 242.529717 143.80836 
L 243.821944 143.085223 
L 266.259817 128.256494 
L 268.805758 126.243968 
L 270.719274 125.024699 
L 272.633253 123.711853 
L 275.204714 121.904388 
L 277.800766 120.308542 
L 286.795122 113.89356 
L 294.456145 108.055241 
L 299.653818 104.426439 
L 300.948364 103.387008 
L 302.877655 101.988404 
L 304.788851 100.617546 
L 306.674063 99.218178 
L 307.921746 98.218346 
L 310.416183 96.323863 
L 311.670826 95.370694 
L 314.194973 93.501938 
L 315.463536 92.517744 
L 322.444342 87.340011 
L 336.415233 75.875687 
L 338.989478 73.777655 
L 348.474929 65.790103 
L 351.007414 63.505675 
L 353.570987 61.329453 
L 356.780905 58.484323 
L 358.700916 56.796414 
L 363.135317 52.770353 
L 364.397848 51.673666 
L 365.65481 50.848376 
L 371.35847 47.9499 
L 371.983007 47.326771 
L 372.601455 46.367265 
L 373.294199 45.047009 
L 373.581818 46.071386 
L 373.430092 58.673115 
L 373.43015 58.6463 
L 373.430846 69.328466 
L 373.426583 69.191254 
L 372.817995 69.603915 
L 372.190326 71.127812 
L 371.566253 72.291087 
L 370.301634 72.112731 
L 369.653839 72.29342 
L 369.037885 72.694589 
L 367.802963 73.089483 
L 366.528136 73.844969 
L 365.883183 75.507655 
L 365.243798 76.436862 
L 363.382714 78.531756 
L 362.084223 78.592622 
L 361.44159 79.033895 
L 359.573546 80.916776 
L 358.962697 82.643276 
L 358.345003 83.410301 
L 356.478351 84.27147 
L 355.231828 85.432348 
L 353.983334 86.913683 
L 352.725443 88.207107 
L 352.107517 88.850856 
L 350.854035 89.826095 
L 350.234833 90.463853 
L 348.972767 91.151836 
L 345.870728 94.378587 
L 344.028203 95.66785 
L 334.016321 104.733566 
L 332.148741 106.054357 
L 326.52744 110.902555 
L 325.290894 111.869344 
L 323.413337 113.397845 
L 320.891872 115.315715 
L 318.382123 117.389028 
L 315.910421 119.225058 
L 314.023353 120.771467 
L 313.391856 121.05907 
L 312.148349 121.971756 
L 311.518824 122.475203 
L 310.276477 123.830676 
L 307.777864 125.237161 
L 307.150194 125.722574 
L 305.913532 126.853705 
L 303.42675 128.570053 
L 302.157491 129.648453 
L 299.68231 131.337749 
L 298.409803 132.471388 
L 297.172792 133.304748 
L 295.916758 133.940552 
L 294.052194 135.556576 
L 293.432064 136.022062 
L 291.548476 136.910409 
L 289.695251 138.790413 
L 289.065262 139.19341 
L 287.823843 139.716341 
L 287.186082 140.099917 
L 285.302842 141.796591 
L 284.066063 142.381886 
L 283.429462 142.741815 
L 280.942796 144.669277 
L 279.703465 145.34323 
L 279.077884 145.811428 
L 278.452766 146.427242 
L 277.202532 147.169044 
L 275.953646 147.818381 
L 275.329804 148.246034 
L 274.076553 149.371916 
L 271.585596 150.564828 
L 269.732632 152.175555 
L 267.878507 153.169522 
L 267.241906 153.476231 
L 265.373978 154.88713 
L 264.126063 155.528231 
L 260.418322 157.952905 
L 258.558166 159.037296 
L 256.67017 160.274032 
L 254.801662 161.138165 
L 254.190348 161.518461 
L 252.303164 163.049737 
L 250.42874 164.040235 
L 247.298514 165.903332 
L 245.409778 167.065232 
L 244.180191 167.883963 
L 242.311915 168.871499 
L 241.05704 169.752341 
L 240.429835 170.284794 
L 239.19004 170.907167 
L 237.30274 171.706934 
L 234.787655 173.664348 
L 233.530692 174.007678 
L 232.910795 174.282732 
L 231.644321 175.162188 
L 228.465679 176.767409 
L 226.606219 177.866303 
L 225.376168 178.490441 
L 224.153541 179.203489 
L 220.464548 181.341057 
L 219.223825 181.989535 
L 215.493421 184.161816 
L 214.268517 184.823571 
L 212.998563 185.512153 
L 212.364977 185.784496 
L 211.091311 186.547864 
L 207.42227 188.426268 
L 206.164611 189.160945 
L 203.671218 190.373404 
L 203.052132 190.828802 
L 201.165993 191.699744 
L 199.911277 192.304528 
L 198.67995 193.1732 
L 194.92797 194.825734 
L 193.670428 195.510659 
L 191.18875 196.748467 
L 182.449519 200.930173 
L 180.609779 201.939526 
L 176.85745 203.63002 
L 175.626008 204.204698 
L 173.72038 205.264559 
L 171.815216 206.022252 
L 170.569621 206.807059 
L 169.311926 207.217999 
L 168.073988 207.639219 
L 166.840341 208.370869 
L 166.225547 208.833203 
L 163.741318 209.958675 
L 163.110748 210.251417 
L 162.487835 210.6768 
L 160.589979 211.346875 
L 159.3474 211.812739 
L 157.487592 213.031 
L 156.864911 213.276796 
L 155.600524 213.597498 
L 154.343794 214.166524 
L 152.450744 215.259599 
L 151.216285 215.66124 
L 148.074923 217.192453 
L 147.44389 217.283273 
L 146.197599 217.879729 
L 144.954556 218.569888 
L 142.454319 219.522804 
L 141.210696 220.268926 
L 138.70634 220.917896 
L 136.815677 222.03536 
L 134.97756 222.669303 
L 134.339799 222.818474 
L 132.462011 223.904283 
L 130.586543 224.424756 
L 129.337932 225.053686 
L 128.076909 225.71137 
L 126.831315 226.030312 
L 125.584328 226.637046 
L 124.351957 227.201154 
L 122.469888 227.694317 
L 121.221973 228.371297 
L 119.985658 228.891454 
L 118.109494 229.489234 
L 116.223702 230.471661 
L 114.973932 231.011271 
L 111.876881 232.089136 
L 110.000021 232.802342 
L 108.752802 233.093412 
L 107.500939 233.680101 
L 105.615495 234.342491 
L 104.388461 234.80298 
L 103.138458 235.395936 
L 100.001155 236.41431 
L 98.740945 237.155924 
L 96.8729 237.569745 
L 91.844814 239.219965 
L 89.986282 240.265197 
L 88.122414 240.77093 
L 86.256922 241.404477 
L 84.40326 241.92517 
L 83.156506 242.578314 
L 79.405338 243.618451 
L 78.163339 244.09059 
L 76.931495 244.329566 
L 74.414322 245.186353 
L 72.560893 245.65969 
L 71.943548 245.877189 
L 71.318314 245.927075 
L 70.088147 245.833454 
L 69.479792 245.998429 
L 69.349177 246.24 
L 69.218572 245.023877 
L 69.218572 245.023877 
" clip-path="url(#p60fafb6121)" style="fill: none; stroke: #ff0000; stroke-width: 1.5; stroke-linecap: square"/>
   </g>
   <g id="line2d_17">
    <path d="M 69.345588 232.780356 
L 69.345734 232.42933 
L 69.346593 232.530331 
L 69.957393 230.789683 
L 70.570447 228.374854 
L 71.198928 228.425591 
L 71.862905 228.824994 
L 72.547762 228.566133 
L 73.886851 227.130452 
L 74.503501 233.89797 
L 75.17119 233.565439 
L 77.159872 233.382195 
L 77.821529 233.206645 
L 79.830628 233.232876 
L 80.485789 232.982666 
L 81.125174 232.28967 
L 83.894761 227.881997 
L 84.591217 227.723787 
L 85.945619 227.983376 
L 86.594748 228.071309 
L 87.217894 227.837053 
L 88.590855 226.423568 
L 89.250192 225.719852 
L 90.549842 224.754072 
L 91.842068 224.030934 
L 93.789456 223.279674 
L 95.090962 222.848994 
L 97.67263 221.898978 
L 99.579186 220.962204 
L 100.84311 220.361902 
L 105.257161 218.840636 
L 108.404439 217.239494 
L 110.299395 216.377127 
L 112.196207 215.58967 
L 120.400104 211.338874 
L 122.337283 210.342196 
L 126.891395 208.894408 
L 129.45636 207.494543 
L 132.006012 206.280066 
L 137.144758 203.423838 
L 138.444872 202.792259 
L 140.393651 201.771241 
L 142.983208 200.551088 
L 144.912035 199.880288 
L 146.815807 198.952092 
L 153.165203 195.172221 
L 155.759399 193.936304 
L 158.372619 192.72561 
L 170.574761 186.119762 
L 172.508229 185.031147 
L 174.450512 183.984401 
L 176.384444 182.751764 
L 179.603177 181.015175 
L 181.526901 180.143223 
L 183.431601 179.035943 
L 185.337693 178.095637 
L 187.241928 177.102616 
L 189.769773 175.627083 
L 193.577411 173.217952 
L 199.974511 169.725605 
L 202.511636 168.424614 
L 204.384784 167.356681 
L 206.866694 165.718717 
L 208.738914 164.813976 
L 213.160787 161.720906 
L 223.345015 156.230662 
L 224.602905 155.256305 
L 225.864972 154.290525 
L 229.034058 152.286322 
L 231.574895 150.839039 
L 234.128724 149.26892 
L 235.411206 148.450441 
L 236.700185 147.590596 
L 237.991019 146.714861 
L 239.933201 145.314917 
L 242.529717 143.80836 
L 243.821944 143.085223 
L 266.259817 128.256494 
L 268.805758 126.243968 
L 270.719274 125.024699 
L 272.633253 123.711853 
L 275.204714 121.904388 
L 277.800766 120.308542 
L 286.795122 113.89356 
L 294.456145 108.055241 
L 299.653818 104.426439 
L 300.948364 103.387008 
L 302.877655 101.988404 
L 304.788851 100.617546 
L 306.674063 99.218178 
L 307.921746 98.218346 
L 310.416183 96.323863 
L 311.670826 95.370694 
L 314.194973 93.501938 
L 315.463536 92.517744 
L 322.444342 87.340011 
L 336.415233 75.875687 
L 338.989478 73.777655 
L 348.474929 65.790103 
L 351.007414 63.505675 
L 355.498886 59.595535 
L 358.061531 57.18694 
L 359.337982 55.92309 
L 360.609328 54.619828 
L 361.242217 54.022616 
L 363.135317 51.620523 
L 364.397848 50.029218 
L 365.65481 48.647766 
L 369.509681 45.44485 
L 370.729293 44.869401 
L 371.983007 44.64 
L 373.294199 44.898258 
L 373.581818 45.999871 
L 373.428961 58.531679 
L 373.430469 58.530086 
L 373.430846 69.328466 
L 373.426583 69.191254 
L 372.817995 69.603915 
L 372.190326 71.127812 
L 371.566253 72.291087 
L 370.301634 72.112731 
L 369.653839 72.29342 
L 369.037885 72.694589 
L 367.802963 73.089483 
L 366.528136 73.844969 
L 365.883183 75.507655 
L 365.243798 76.436862 
L 363.382714 78.531756 
L 362.084223 78.592622 
L 361.44159 79.033895 
L 359.573546 80.916776 
L 358.962697 82.643276 
L 358.345003 83.410301 
L 356.478351 84.27147 
L 355.231828 85.432348 
L 353.983334 86.913683 
L 352.725443 88.207107 
L 352.107517 88.850856 
L 350.854035 89.826095 
L 350.234833 90.463853 
L 348.972767 91.151836 
L 345.870728 94.378587 
L 344.028203 95.66785 
L 334.016321 104.733566 
L 332.148741 106.054357 
L 326.52744 110.902555 
L 325.290894 111.869344 
L 323.413337 113.397845 
L 320.891872 115.315715 
L 318.382123 117.389028 
L 315.910421 119.225058 
L 314.023353 120.771467 
L 313.391856 121.05907 
L 312.148349 121.971756 
L 311.518824 122.475203 
L 310.276477 123.830676 
L 307.777864 125.237161 
L 307.150194 125.722574 
L 305.913532 126.853705 
L 303.42675 128.570053 
L 302.157491 129.648453 
L 299.68231 131.337749 
L 298.409803 132.471388 
L 297.172792 133.304748 
L 295.916758 133.940552 
L 294.052194 135.556576 
L 293.432064 136.022062 
L 291.548476 136.910409 
L 289.695251 138.790413 
L 289.065262 139.19341 
L 287.823843 139.716341 
L 287.186082 140.099917 
L 285.302842 141.796591 
L 284.066063 142.381886 
L 283.429462 142.741815 
L 280.942796 144.669277 
L 279.703465 145.34323 
L 279.077884 145.811428 
L 278.452766 146.427242 
L 277.202532 147.169044 
L 275.953646 147.818381 
L 275.329804 148.246034 
L 274.076553 149.371916 
L 271.585596 150.564828 
L 269.732632 152.175555 
L 267.878507 153.169522 
L 267.241906 153.476231 
L 265.373978 154.88713 
L 264.126063 155.528231 
L 260.418322 157.952905 
L 258.558166 159.037296 
L 256.67017 160.274032 
L 254.801662 161.138165 
L 254.190348 161.518461 
L 252.303164 163.049737 
L 250.42874 164.040235 
L 247.298514 165.903332 
L 245.409778 167.065232 
L 244.180191 167.883963 
L 242.311915 168.871499 
L 241.05704 169.752341 
L 240.429835 170.284794 
L 239.19004 170.907167 
L 237.30274 171.706934 
L 234.787655 173.664348 
L 233.530692 174.007678 
L 232.910795 174.282732 
L 231.644321 175.162188 
L 228.465679 176.767409 
L 226.606219 177.866303 
L 225.376168 178.490441 
L 224.153541 179.203489 
L 220.464548 181.341057 
L 219.223825 181.989535 
L 215.493421 184.161816 
L 214.268517 184.823571 
L 212.998563 185.512153 
L 212.364977 185.784496 
L 211.091311 186.547864 
L 207.42227 188.426268 
L 206.164611 189.160945 
L 203.671218 190.373404 
L 203.052132 190.828802 
L 201.165993 191.699744 
L 199.911277 192.304528 
L 198.67995 193.1732 
L 194.92797 194.825734 
L 193.670428 195.510659 
L 191.18875 196.748467 
L 182.449519 200.930173 
L 180.609779 201.939526 
L 176.85745 203.63002 
L 175.626008 204.204698 
L 173.72038 205.264559 
L 171.815216 206.022252 
L 170.569621 206.807059 
L 169.311926 207.217999 
L 168.073988 207.639219 
L 166.840341 208.370869 
L 166.225547 208.833203 
L 163.741318 209.958675 
L 163.110748 210.251417 
L 162.487835 210.6768 
L 160.589979 211.346875 
L 159.3474 211.812739 
L 157.487592 213.031 
L 156.864911 213.276796 
L 155.600524 213.597498 
L 154.343794 214.166524 
L 152.450744 215.259599 
L 151.216285 215.66124 
L 148.074923 217.192453 
L 147.44389 217.283273 
L 146.197599 217.879729 
L 144.954556 218.569888 
L 142.454319 219.522804 
L 141.210696 220.268926 
L 138.70634 220.917896 
L 136.815677 222.03536 
L 134.97756 222.669303 
L 134.339799 222.818474 
L 132.462011 223.904283 
L 130.586543 224.424756 
L 129.337932 225.053686 
L 128.076909 225.71137 
L 126.831315 226.030312 
L 125.584328 226.637046 
L 124.351957 227.201154 
L 122.469888 227.694317 
L 121.221973 228.371297 
L 119.985658 228.891454 
L 118.109494 229.489234 
L 116.223702 230.471661 
L 114.973932 231.011271 
L 111.876881 232.089136 
L 110.000021 232.802342 
L 108.752802 233.093412 
L 107.500939 233.680101 
L 105.615495 234.342491 
L 104.388461 234.80298 
L 103.138458 235.395936 
L 100.001155 236.41431 
L 98.740945 237.155924 
L 96.8729 237.569745 
L 91.844814 239.219965 
L 89.986282 240.265197 
L 88.122414 240.77093 
L 86.256922 241.404477 
L 84.40326 241.92517 
L 83.156506 242.578314 
L 79.405338 243.618451 
L 78.163339 244.09059 
L 76.931495 244.329566 
L 74.414322 245.186353 
L 72.560893 245.65969 
L 71.943548 245.877189 
L 71.318314 245.927075 
L 70.088147 245.833454 
L 69.479792 245.998429 
L 69.349177 246.24 
L 69.218572 245.023877 
L 69.218572 245.023877 
" clip-path="url(#p60fafb6121)" style="fill: none; stroke: #000000; stroke-width: 1.5; stroke-linecap: square"/>
   </g>
   <g id="patch_3">
    <path d="M 54 256.32 
L 54 34.56 
" style="fill: none; stroke: #000000; stroke-width: 0.8; stroke-linejoin: miter; stroke-linecap: square"/>
   </g>
   <g id="patch_4">
    <path d="M 388.8 256.32 
L 388.8 34.56 
" style="fill: none; stroke: #000000; stroke-width: 0.8; stroke-linejoin: miter; stroke-linecap: square"/>
   </g>
   <g id="patch_5">
    <path d="M 54 256.32 
L 388.8 256.32 
" style="fill: none; stroke: #000000; stroke-width: 0.8; stroke-linejoin: miter; stroke-linecap: square"/>
   </g>
   <g id="patch_6">
    <path d="M 54 34.56 
L 388.8 34.56 
" style="fill: none; stroke: #000000; stroke-width: 0.8; stroke-linejoin: miter; stroke-linecap: square"/>
   </g>
   <g id="text_18">
    <!-- 2025-07-03 trial 21 -->
    <g transform="translate(163.2525 28.56) scale(0.12 -0.12)">
     <defs>
      <path id="DejaVuSans-2d" d="M 313 2009 
L 1997 2009 
L 1997 1497 
L 313 1497 
L 313 2009 
z
" transform="scale(0.015625)"/>
      <path id="DejaVuSans-33" d="M 2597 2516 
Q 3050 2419 3304 2112 
Q 3559 1806 3559 1356 
Q 3559 666 3084 287 
Q 2609 -91 1734 -91 
Q 1441 -91 1130 -33 
Q 819 25 488 141 
L 488 750 
Q 750 597 1062 519 
Q 1375 441 1716 441 
Q 2309 441 2620 675 
Q 2931 909 2931 1356 
Q 2931 1769 2642 2001 
Q 2353 2234 1838 2234 
L 1294 2234 
L 1294 2753 
L 1863 2753 
Q 2328 2753 2575 2939 
Q 2822 3125 2822 3475 
Q 2822 3834 2567 4026 
Q 2313 4219 1838 4219 
Q 1578 4219 1281 4162 
Q 984 4106 628 3988 
L 628 4550 
Q 988 4650 1302 4700 
Q 1616 4750 1894 4750 
Q 2613 4750 3031 4423 
Q 3450 4097 3450 3541 
Q 3450 3153 3228 2886 
Q 3006 2619 2597 2516 
z
" transform="scale(0.015625)"/>
      <path id="DejaVuSans-6c" d="M 603 4863 
L 1178 4863 
L 1178 0 
L 603 0 
L 603 4863 
z
" transform="scale(0.015625)"/>
     </defs>
     <use xlink:href="#DejaVuSans-32"/>
     <use xlink:href="#DejaVuSans-30" x="63.623047"/>
     <use xlink:href="#DejaVuSans-32" x="127.246094"/>
     <use xlink:href="#DejaVuSans-35" x="190.869141"/>
     <use xlink:href="#DejaVuSans-2d" x="254.492188"/>
     <use xlink:href="#DejaVuSans-30" x="290.576172"/>
     <use xlink:href="#DejaVuSans-37" x="354.199219"/>
     <use xlink:href="#DejaVuSans-2d" x="417.822266"/>
     <use xlink:href="#DejaVuSans-30" x="453.90625"/>
     <use xlink:href="#DejaVuSans-33" x="517.529297"/>
     <use xlink:href="#DejaVuSans-20" x="581.152344"/>
     <use xlink:href="#DejaVuSans-74" x="612.939453"/>
     <use xlink:href="#DejaVuSans-72" x="652.148438"/>
     <use xlink:href="#DejaVuSans-69" x="693.261719"/>
     <use xlink:href="#DejaVuSans-61" x="721.044922"/>
     <use xlink:href="#DejaVuSans-6c" x="782.324219"/>
     <use xlink:href="#DejaVuSans-20" x="810.107422"/>
     <use xlink:href="#DejaVuSans-32" x="841.894531"/>
     <use xlink:href="#DejaVuSans-31" x="905.517578"/>
    </g>
   </g>
  </g>
 </g>
 <defs>
  <clipPath id="p60fafb6121">
   <rect x="54" y="34.56" width="334.8" height="221.76"/>
  </clipPath>
 </defs>
</svg>
