<?xml version="1.0" encoding="utf-8" standalone="no"?>
<!DOCTYPE svg PUBLIC "-//W3C//DTD SVG 1.1//EN"
  "http://www.w3.org/Graphics/SVG/1.1/DTD/svg11.dtd">
<svg xmlns:xlink="http://www.w3.org/1999/xlink" width="460.8pt" height="345.6pt" viewBox="0 0 460.8 345.6" xmlns="http://www.w3.org/2000/svg" version="1.1">
 <metadata>
  <rdf:RDF xmlns:dc="http://purl.org/dc/elements/1.1/" xmlns:cc="http://creativecommons.org/ns#" xmlns:rdf="http://www.w3.org/1999/02/22-rdf-syntax-ns#">
   <cc:Work>
    <dc:type rdf:resource="http://purl.org/dc/dcmitype/StillImage"/>
    <dc:date>2025-07-16T22:12:11.606542</dc:date>
    <dc:format>image/svg+xml</dc:format>
    <dc:creator>
     <cc:Agent>
      <dc:title>Matplotlib v3.10.3, https://matplotlib.org/</dc:title>
     </cc:Agent>
    </dc:creator>
   </cc:Work>
  </rdf:RDF>
 </metadata>
 <defs>
  <style type="text/css">*{stroke-linejoin: round; stroke-linecap: butt}</style>
 </defs>
 <g id="figure_1">
  <g id="patch_1">
   <path d="M 0 345.6 
L 460.8 345.6 
L 460.8 0 
L 0 0 
z
" style="fill: #ffffff"/>
  </g>
  <g id="axes_1">
   <g id="patch_2">
    <path d="M 57.6 307.584 
L 414.72 307.584 
L 414.72 41.472 
L 57.6 41.472 
z
" style="fill: #ffffff"/>
   </g>
   <g id="matplotlib.axis_1">
    <g id="xtick_1">
     <g id="line2d_1">
      <defs>
       <path id="m7afaf7a08b" d="M 0 0 
L 0 3.5 
" style="stroke: #000000; stroke-width: 0.8"/>
      </defs>
      <g>
       <use xlink:href="#m7afaf7a08b" x="73.930226" y="307.584" style="stroke: #000000; stroke-width: 0.8"/>
      </g>
     </g>
     <g id="text_1">
      <!-- 0.00 -->
      <g transform="translate(62.797413 322.182437) scale(0.1 -0.1)">
       <defs>
        <path id="DejaVuSans-30" d="M 2034 4250 
Q 1547 4250 1301 3770 
Q 1056 3291 1056 2328 
Q 1056 1369 1301 889 
Q 1547 409 2034 409 
Q 2525 409 2770 889 
Q 3016 1369 3016 2328 
Q 3016 3291 2770 3770 
Q 2525 4250 2034 4250 
z
M 2034 4750 
Q 2819 4750 3233 4129 
Q 3647 3509 3647 2328 
Q 3647 1150 3233 529 
Q 2819 -91 2034 -91 
Q 1250 -91 836 529 
Q 422 1150 422 2328 
Q 422 3509 836 4129 
Q 1250 4750 2034 4750 
z
" transform="scale(0.015625)"/>
        <path id="DejaVuSans-2e" d="M 684 794 
L 1344 794 
L 1344 0 
L 684 0 
L 684 794 
z
" transform="scale(0.015625)"/>
       </defs>
       <use xlink:href="#DejaVuSans-30"/>
       <use xlink:href="#DejaVuSans-2e" transform="translate(63.623047 0)"/>
       <use xlink:href="#DejaVuSans-30" transform="translate(95.410156 0)"/>
       <use xlink:href="#DejaVuSans-30" transform="translate(159.033203 0)"/>
      </g>
     </g>
    </g>
    <g id="xtick_2">
     <g id="line2d_2">
      <g>
       <use xlink:href="#m7afaf7a08b" x="138.820608" y="307.584" style="stroke: #000000; stroke-width: 0.8"/>
      </g>
     </g>
     <g id="text_2">
      <!-- 0.05 -->
      <g transform="translate(127.687795 322.182437) scale(0.1 -0.1)">
       <defs>
        <path id="DejaVuSans-35" d="M 691 4666 
L 3169 4666 
L 3169 4134 
L 1269 4134 
L 1269 2991 
Q 1406 3038 1543 3061 
Q 1681 3084 1819 3084 
Q 2600 3084 3056 2656 
Q 3513 2228 3513 1497 
Q 3513 744 3044 326 
Q 2575 -91 1722 -91 
Q 1428 -91 1123 -41 
Q 819 9 494 109 
L 494 744 
Q 775 591 1075 516 
Q 1375 441 1709 441 
Q 2250 441 2565 725 
Q 2881 1009 2881 1497 
Q 2881 1984 2565 2268 
Q 2250 2553 1709 2553 
Q 1456 2553 1204 2497 
Q 953 2441 691 2322 
L 691 4666 
z
" transform="scale(0.015625)"/>
       </defs>
       <use xlink:href="#DejaVuSans-30"/>
       <use xlink:href="#DejaVuSans-2e" transform="translate(63.623047 0)"/>
       <use xlink:href="#DejaVuSans-30" transform="translate(95.410156 0)"/>
       <use xlink:href="#DejaVuSans-35" transform="translate(159.033203 0)"/>
      </g>
     </g>
    </g>
    <g id="xtick_3">
     <g id="line2d_3">
      <g>
       <use xlink:href="#m7afaf7a08b" x="203.71099" y="307.584" style="stroke: #000000; stroke-width: 0.8"/>
      </g>
     </g>
     <g id="text_3">
      <!-- 0.10 -->
      <g transform="translate(192.578177 322.182437) scale(0.1 -0.1)">
       <defs>
        <path id="DejaVuSans-31" d="M 794 531 
L 1825 531 
L 1825 4091 
L 703 3866 
L 703 4441 
L 1819 4666 
L 2450 4666 
L 2450 531 
L 3481 531 
L 3481 0 
L 794 0 
L 794 531 
z
" transform="scale(0.015625)"/>
       </defs>
       <use xlink:href="#DejaVuSans-30"/>
       <use xlink:href="#DejaVuSans-2e" transform="translate(63.623047 0)"/>
       <use xlink:href="#DejaVuSans-31" transform="translate(95.410156 0)"/>
       <use xlink:href="#DejaVuSans-30" transform="translate(159.033203 0)"/>
      </g>
     </g>
    </g>
    <g id="xtick_4">
     <g id="line2d_4">
      <g>
       <use xlink:href="#m7afaf7a08b" x="268.601372" y="307.584" style="stroke: #000000; stroke-width: 0.8"/>
      </g>
     </g>
     <g id="text_4">
      <!-- 0.15 -->
      <g transform="translate(257.468559 322.182437) scale(0.1 -0.1)">
       <use xlink:href="#DejaVuSans-30"/>
       <use xlink:href="#DejaVuSans-2e" transform="translate(63.623047 0)"/>
       <use xlink:href="#DejaVuSans-31" transform="translate(95.410156 0)"/>
       <use xlink:href="#DejaVuSans-35" transform="translate(159.033203 0)"/>
      </g>
     </g>
    </g>
    <g id="xtick_5">
     <g id="line2d_5">
      <g>
       <use xlink:href="#m7afaf7a08b" x="333.491754" y="307.584" style="stroke: #000000; stroke-width: 0.8"/>
      </g>
     </g>
     <g id="text_5">
      <!-- 0.20 -->
      <g transform="translate(322.358941 322.182437) scale(0.1 -0.1)">
       <defs>
        <path id="DejaVuSans-32" d="M 1228 531 
L 3431 531 
L 3431 0 
L 469 0 
L 469 531 
Q 828 903 1448 1529 
Q 2069 2156 2228 2338 
Q 2531 2678 2651 2914 
Q 2772 3150 2772 3378 
Q 2772 3750 2511 3984 
Q 2250 4219 1831 4219 
Q 1534 4219 1204 4116 
Q 875 4013 500 3803 
L 500 4441 
Q 881 4594 1212 4672 
Q 1544 4750 1819 4750 
Q 2544 4750 2975 4387 
Q 3406 4025 3406 3419 
Q 3406 3131 3298 2873 
Q 3191 2616 2906 2266 
Q 2828 2175 2409 1742 
Q 1991 1309 1228 531 
z
" transform="scale(0.015625)"/>
       </defs>
       <use xlink:href="#DejaVuSans-30"/>
       <use xlink:href="#DejaVuSans-2e" transform="translate(63.623047 0)"/>
       <use xlink:href="#DejaVuSans-32" transform="translate(95.410156 0)"/>
       <use xlink:href="#DejaVuSans-30" transform="translate(159.033203 0)"/>
      </g>
     </g>
    </g>
    <g id="xtick_6">
     <g id="line2d_6">
      <g>
       <use xlink:href="#m7afaf7a08b" x="398.382136" y="307.584" style="stroke: #000000; stroke-width: 0.8"/>
      </g>
     </g>
     <g id="text_6">
      <!-- 0.25 -->
      <g transform="translate(387.249323 322.182437) scale(0.1 -0.1)">
       <use xlink:href="#DejaVuSans-30"/>
       <use xlink:href="#DejaVuSans-2e" transform="translate(63.623047 0)"/>
       <use xlink:href="#DejaVuSans-32" transform="translate(95.410156 0)"/>
       <use xlink:href="#DejaVuSans-35" transform="translate(159.033203 0)"/>
      </g>
     </g>
    </g>
    <g id="text_7">
     <!-- Strain -->
     <g transform="translate(221.348281 335.860562) scale(0.1 -0.1)">
      <defs>
       <path id="DejaVuSans-53" d="M 3425 4513 
L 3425 3897 
Q 3066 4069 2747 4153 
Q 2428 4238 2131 4238 
Q 1616 4238 1336 4038 
Q 1056 3838 1056 3469 
Q 1056 3159 1242 3001 
Q 1428 2844 1947 2747 
L 2328 2669 
Q 3034 2534 3370 2195 
Q 3706 1856 3706 1288 
Q 3706 609 3251 259 
Q 2797 -91 1919 -91 
Q 1588 -91 1214 -16 
Q 841 59 441 206 
L 441 856 
Q 825 641 1194 531 
Q 1563 422 1919 422 
Q 2459 422 2753 634 
Q 3047 847 3047 1241 
Q 3047 1584 2836 1778 
Q 2625 1972 2144 2069 
L 1759 2144 
Q 1053 2284 737 2584 
Q 422 2884 422 3419 
Q 422 4038 858 4394 
Q 1294 4750 2059 4750 
Q 2388 4750 2728 4690 
Q 3069 4631 3425 4513 
z
" transform="scale(0.015625)"/>
       <path id="DejaVuSans-74" d="M 1172 4494 
L 1172 3500 
L 2356 3500 
L 2356 3053 
L 1172 3053 
L 1172 1153 
Q 1172 725 1289 603 
Q 1406 481 1766 481 
L 2356 481 
L 2356 0 
L 1766 0 
Q 1100 0 847 248 
Q 594 497 594 1153 
L 594 3053 
L 172 3053 
L 172 3500 
L 594 3500 
L 594 4494 
L 1172 4494 
z
" transform="scale(0.015625)"/>
       <path id="DejaVuSans-72" d="M 2631 2963 
Q 2534 3019 2420 3045 
Q 2306 3072 2169 3072 
Q 1681 3072 1420 2755 
Q 1159 2438 1159 1844 
L 1159 0 
L 581 0 
L 581 3500 
L 1159 3500 
L 1159 2956 
Q 1341 3275 1631 3429 
Q 1922 3584 2338 3584 
Q 2397 3584 2469 3576 
Q 2541 3569 2628 3553 
L 2631 2963 
z
" transform="scale(0.015625)"/>
       <path id="DejaVuSans-61" d="M 2194 1759 
Q 1497 1759 1228 1600 
Q 959 1441 959 1056 
Q 959 750 1161 570 
Q 1363 391 1709 391 
Q 2188 391 2477 730 
Q 2766 1069 2766 1631 
L 2766 1759 
L 2194 1759 
z
M 3341 1997 
L 3341 0 
L 2766 0 
L 2766 531 
Q 2569 213 2275 61 
Q 1981 -91 1556 -91 
Q 1019 -91 701 211 
Q 384 513 384 1019 
Q 384 1609 779 1909 
Q 1175 2209 1959 2209 
L 2766 2209 
L 2766 2266 
Q 2766 2663 2505 2880 
Q 2244 3097 1772 3097 
Q 1472 3097 1187 3025 
Q 903 2953 641 2809 
L 641 3341 
Q 956 3463 1253 3523 
Q 1550 3584 1831 3584 
Q 2591 3584 2966 3190 
Q 3341 2797 3341 1997 
z
" transform="scale(0.015625)"/>
       <path id="DejaVuSans-69" d="M 603 3500 
L 1178 3500 
L 1178 0 
L 603 0 
L 603 3500 
z
M 603 4863 
L 1178 4863 
L 1178 4134 
L 603 4134 
L 603 4863 
z
" transform="scale(0.015625)"/>
       <path id="DejaVuSans-6e" d="M 3513 2113 
L 3513 0 
L 2938 0 
L 2938 2094 
Q 2938 2591 2744 2837 
Q 2550 3084 2163 3084 
Q 1697 3084 1428 2787 
Q 1159 2491 1159 1978 
L 1159 0 
L 581 0 
L 581 3500 
L 1159 3500 
L 1159 2956 
Q 1366 3272 1645 3428 
Q 1925 3584 2291 3584 
Q 2894 3584 3203 3211 
Q 3513 2838 3513 2113 
z
" transform="scale(0.015625)"/>
      </defs>
      <use xlink:href="#DejaVuSans-53"/>
      <use xlink:href="#DejaVuSans-74" transform="translate(63.476562 0)"/>
      <use xlink:href="#DejaVuSans-72" transform="translate(102.685547 0)"/>
      <use xlink:href="#DejaVuSans-61" transform="translate(143.798828 0)"/>
      <use xlink:href="#DejaVuSans-69" transform="translate(205.078125 0)"/>
      <use xlink:href="#DejaVuSans-6e" transform="translate(232.861328 0)"/>
     </g>
    </g>
   </g>
   <g id="matplotlib.axis_2">
    <g id="ytick_1">
     <g id="line2d_7">
      <defs>
       <path id="mbfa460c266" d="M 0 0 
L -3.5 0 
" style="stroke: #000000; stroke-width: 0.8"/>
      </defs>
      <g>
       <use xlink:href="#mbfa460c266" x="57.6" y="279.78184" style="stroke: #000000; stroke-width: 0.8"/>
      </g>
     </g>
     <g id="text_8">
      <!-- 0 -->
      <g transform="translate(44.2375 283.581058) scale(0.1 -0.1)">
       <use xlink:href="#DejaVuSans-30"/>
      </g>
     </g>
    </g>
    <g id="ytick_2">
     <g id="line2d_8">
      <g>
       <use xlink:href="#mbfa460c266" x="57.6" y="238.883398" style="stroke: #000000; stroke-width: 0.8"/>
      </g>
     </g>
     <g id="text_9">
      <!-- 500 -->
      <g transform="translate(31.5125 242.682617) scale(0.1 -0.1)">
       <use xlink:href="#DejaVuSans-35"/>
       <use xlink:href="#DejaVuSans-30" transform="translate(63.623047 0)"/>
       <use xlink:href="#DejaVuSans-30" transform="translate(127.246094 0)"/>
      </g>
     </g>
    </g>
    <g id="ytick_3">
     <g id="line2d_9">
      <g>
       <use xlink:href="#mbfa460c266" x="57.6" y="197.984957" style="stroke: #000000; stroke-width: 0.8"/>
      </g>
     </g>
     <g id="text_10">
      <!-- 1000 -->
      <g transform="translate(25.15 201.784176) scale(0.1 -0.1)">
       <use xlink:href="#DejaVuSans-31"/>
       <use xlink:href="#DejaVuSans-30" transform="translate(63.623047 0)"/>
       <use xlink:href="#DejaVuSans-30" transform="translate(127.246094 0)"/>
       <use xlink:href="#DejaVuSans-30" transform="translate(190.869141 0)"/>
      </g>
     </g>
    </g>
    <g id="ytick_4">
     <g id="line2d_10">
      <g>
       <use xlink:href="#mbfa460c266" x="57.6" y="157.086516" style="stroke: #000000; stroke-width: 0.8"/>
      </g>
     </g>
     <g id="text_11">
      <!-- 1500 -->
      <g transform="translate(25.15 160.885735) scale(0.1 -0.1)">
       <use xlink:href="#DejaVuSans-31"/>
       <use xlink:href="#DejaVuSans-35" transform="translate(63.623047 0)"/>
       <use xlink:href="#DejaVuSans-30" transform="translate(127.246094 0)"/>
       <use xlink:href="#DejaVuSans-30" transform="translate(190.869141 0)"/>
      </g>
     </g>
    </g>
    <g id="ytick_5">
     <g id="line2d_11">
      <g>
       <use xlink:href="#mbfa460c266" x="57.6" y="116.188075" style="stroke: #000000; stroke-width: 0.8"/>
      </g>
     </g>
     <g id="text_12">
      <!-- 2000 -->
      <g transform="translate(25.15 119.987294) scale(0.1 -0.1)">
       <use xlink:href="#DejaVuSans-32"/>
       <use xlink:href="#DejaVuSans-30" transform="translate(63.623047 0)"/>
       <use xlink:href="#DejaVuSans-30" transform="translate(127.246094 0)"/>
       <use xlink:href="#DejaVuSans-30" transform="translate(190.869141 0)"/>
      </g>
     </g>
    </g>
    <g id="ytick_6">
     <g id="line2d_12">
      <g>
       <use xlink:href="#mbfa460c266" x="57.6" y="75.289634" style="stroke: #000000; stroke-width: 0.8"/>
      </g>
     </g>
     <g id="text_13">
      <!-- 2500 -->
      <g transform="translate(25.15 79.088853) scale(0.1 -0.1)">
       <use xlink:href="#DejaVuSans-32"/>
       <use xlink:href="#DejaVuSans-35" transform="translate(63.623047 0)"/>
       <use xlink:href="#DejaVuSans-30" transform="translate(127.246094 0)"/>
       <use xlink:href="#DejaVuSans-30" transform="translate(190.869141 0)"/>
      </g>
     </g>
    </g>
    <g id="text_14">
     <!-- Stress [Pa] -->
     <g transform="translate(19.070312 201.235813) rotate(-90) scale(0.1 -0.1)">
      <defs>
       <path id="DejaVuSans-65" d="M 3597 1894 
L 3597 1613 
L 953 1613 
Q 991 1019 1311 708 
Q 1631 397 2203 397 
Q 2534 397 2845 478 
Q 3156 559 3463 722 
L 3463 178 
Q 3153 47 2828 -22 
Q 2503 -91 2169 -91 
Q 1331 -91 842 396 
Q 353 884 353 1716 
Q 353 2575 817 3079 
Q 1281 3584 2069 3584 
Q 2775 3584 3186 3129 
Q 3597 2675 3597 1894 
z
M 3022 2063 
Q 3016 2534 2758 2815 
Q 2500 3097 2075 3097 
Q 1594 3097 1305 2825 
Q 1016 2553 972 2059 
L 3022 2063 
z
" transform="scale(0.015625)"/>
       <path id="DejaVuSans-73" d="M 2834 3397 
L 2834 2853 
Q 2591 2978 2328 3040 
Q 2066 3103 1784 3103 
Q 1356 3103 1142 2972 
Q 928 2841 928 2578 
Q 928 2378 1081 2264 
Q 1234 2150 1697 2047 
L 1894 2003 
Q 2506 1872 2764 1633 
Q 3022 1394 3022 966 
Q 3022 478 2636 193 
Q 2250 -91 1575 -91 
Q 1294 -91 989 -36 
Q 684 19 347 128 
L 347 722 
Q 666 556 975 473 
Q 1284 391 1588 391 
Q 1994 391 2212 530 
Q 2431 669 2431 922 
Q 2431 1156 2273 1281 
Q 2116 1406 1581 1522 
L 1381 1569 
Q 847 1681 609 1914 
Q 372 2147 372 2553 
Q 372 3047 722 3315 
Q 1072 3584 1716 3584 
Q 2034 3584 2315 3537 
Q 2597 3491 2834 3397 
z
" transform="scale(0.015625)"/>
       <path id="DejaVuSans-20" transform="scale(0.015625)"/>
       <path id="DejaVuSans-5b" d="M 550 4863 
L 1875 4863 
L 1875 4416 
L 1125 4416 
L 1125 -397 
L 1875 -397 
L 1875 -844 
L 550 -844 
L 550 4863 
z
" transform="scale(0.015625)"/>
       <path id="DejaVuSans-50" d="M 1259 4147 
L 1259 2394 
L 2053 2394 
Q 2494 2394 2734 2622 
Q 2975 2850 2975 3272 
Q 2975 3691 2734 3919 
Q 2494 4147 2053 4147 
L 1259 4147 
z
M 628 4666 
L 2053 4666 
Q 2838 4666 3239 4311 
Q 3641 3956 3641 3272 
Q 3641 2581 3239 2228 
Q 2838 1875 2053 1875 
L 1259 1875 
L 1259 0 
L 628 0 
L 628 4666 
z
" transform="scale(0.015625)"/>
       <path id="DejaVuSans-5d" d="M 1947 4863 
L 1947 -844 
L 622 -844 
L 622 -397 
L 1369 -397 
L 1369 4416 
L 622 4416 
L 622 4863 
L 1947 4863 
z
" transform="scale(0.015625)"/>
      </defs>
      <use xlink:href="#DejaVuSans-53"/>
      <use xlink:href="#DejaVuSans-74" transform="translate(63.476562 0)"/>
      <use xlink:href="#DejaVuSans-72" transform="translate(102.685547 0)"/>
      <use xlink:href="#DejaVuSans-65" transform="translate(141.548828 0)"/>
      <use xlink:href="#DejaVuSans-73" transform="translate(203.072266 0)"/>
      <use xlink:href="#DejaVuSans-73" transform="translate(255.171875 0)"/>
      <use xlink:href="#DejaVuSans-20" transform="translate(307.271484 0)"/>
      <use xlink:href="#DejaVuSans-5b" transform="translate(339.058594 0)"/>
      <use xlink:href="#DejaVuSans-50" transform="translate(378.072266 0)"/>
      <use xlink:href="#DejaVuSans-61" transform="translate(433.875 0)"/>
      <use xlink:href="#DejaVuSans-5d" transform="translate(495.154297 0)"/>
     </g>
    </g>
   </g>
   <g id="line2d_13">
    <path d="M 73.930226 280.241338 
L 73.93207 280.098051 
L 73.930226 280.246487 
L 73.943162 280.150353 
L 74.423638 275.544422 
L 75.360213 274.079418 
L 75.858469 273.273113 
L 76.3493 272.83513 
L 76.913685 272.656918 
L 77.416539 272.677972 
L 79.500802 273.167901 
L 81.080797 273.140134 
L 82.836189 272.898812 
L 84.099336 272.739331 
L 85.430378 273.013933 
L 86.586023 273.514339 
L 88.013252 274.524806 
L 88.976525 275.162814 
L 89.944042 275.424483 
L 90.912973 275.307594 
L 92.37132 275.109682 
L 93.832497 275.241123 
L 95.286601 275.456494 
L 96.245631 275.42739 
L 97.196172 275.210295 
L 98.138142 274.811263 
L 99.068882 274.229124 
L 102.985627 271.334981 
L 105.748142 269.763756 
L 112.028513 266.893755 
L 115.30732 265.515658 
L 124.255437 261.291009 
L 130.866801 258.310649 
L 141.154446 253.110021 
L 144.854773 251.18772 
L 150.350098 248.203911 
L 154.453556 245.85949 
L 161.978686 241.992126 
L 168.80081 238.195116 
L 175.631422 234.425003 
L 178.362817 232.932409 
L 184.520128 229.134709 
L 187.279813 227.517961 
L 194.942149 223.367805 
L 205.71921 216.810461 
L 209.964119 214.301882 
L 219.429056 208.337487 
L 223.229812 206.164121 
L 227.951407 203.269979 
L 233.101594 199.799904 
L 242.111947 193.997134 
L 246.895779 190.538785 
L 250.992166 187.741896 
L 255.080065 184.986391 
L 261.206256 180.274097 
L 264.632171 177.799315 
L 268.069401 175.483174 
L 272.882938 171.803419 
L 275.644038 169.55763 
L 280.508497 165.981336 
L 285.160781 162.536782 
L 288.415541 159.897843 
L 291.681617 157.156822 
L 296.850193 153.118403 
L 300.148803 150.604996 
L 303.914197 147.388056 
L 309.108234 143.030288 
L 312.43089 140.420317 
L 317.630585 136.317753 
L 320.907977 133.441543 
L 325.322625 129.525208 
L 329.471348 125.942706 
L 334.944792 120.85789 
L 342.443047 113.641846 
L 347.919983 108.526745 
L 363.026823 93.691839 
L 375.467333 80.731652 
L 381.60484 75.379282 
L 387.811658 70.457308 
L 392.002108 67.467981 
L 393.086321 66.508555 
L 394.664901 64.697302 
L 395.635954 63.423355 
L 396.61514 61.843854 
L 397.11711 60.831317 
L 397.594327 59.555301 
L 398.064294 57.978085 
L 398.293509 58.072945 
L 398.487273 60.196004 
L 398.381451 86.953288 
L 398.382843 86.923672 
L 398.382578 90.616446 
L 398.383639 94.785354 
L 398.384257 90.568487 
L 398.380368 94.735047 
L 397.915617 95.175078 
L 396.976213 97.0006 
L 396.028146 97.108027 
L 395.56419 97.352238 
L 394.605868 98.080774 
L 393.659746 99.035501 
L 393.174749 99.150138 
L 392.217488 101.147276 
L 390.267735 102.399356 
L 389.306672 103.676666 
L 388.825743 104.901124 
L 388.356483 105.542236 
L 386.915993 106.693323 
L 385.962003 107.847514 
L 384.997757 108.877035 
L 382.137554 111.905246 
L 380.702015 113.463537 
L 375.004174 119.432168 
L 374.053719 120.396767 
L 372.170315 122.492451 
L 370.742202 123.939264 
L 366.454991 128.204822 
L 363.132866 131.53419 
L 357.898693 136.551434 
L 356.949741 137.312043 
L 349.789773 144.031885 
L 347.406344 146.147399 
L 336.478263 155.798942 
L 335.062527 156.810444 
L 333.644316 158.12043 
L 329.884404 161.392172 
L 328.930325 162.069236 
L 326.564577 164.029559 
L 326.09461 164.274546 
L 323.695267 166.304619 
L 319.39327 169.619804 
L 317.962329 171.050752 
L 317.017974 171.643065 
L 316.07362 172.26133 
L 314.183497 173.870059 
L 312.764313 174.863713 
L 312.291871 175.34265 
L 310.38778 176.764719 
L 308.012926 178.654095 
L 302.292165 182.739201 
L 301.809291 183.029279 
L 300.867501 183.873347 
L 295.597854 187.687579 
L 294.168504 188.854185 
L 293.219553 189.428086 
L 291.794357 190.548479 
L 289.883547 191.891314 
L 288.933181 192.410838 
L 287.048893 193.665903 
L 285.615631 194.67463 
L 284.681001 195.263149 
L 283.235207 196.423289 
L 279.436396 198.913073 
L 277.537256 200.179907 
L 275.174867 201.876621 
L 273.254266 203.05762 
L 271.356186 204.334929 
L 269.456515 205.519857 
L 268.49722 206.238909 
L 266.588532 207.282354 
L 265.144506 208.219666 
L 263.716482 209.118611 
L 262.775509 209.815279 
L 260.870534 210.878037 
L 259.919638 211.684858 
L 258.957426 212.136508 
L 257.537269 212.823746 
L 257.060937 213.260954 
L 256.119058 213.789811 
L 255.642726 214.187273 
L 254.685111 214.714319 
L 253.720954 215.46747 
L 252.305041 216.235451 
L 250.874873 217.158337 
L 249.463027 218.022924 
L 248.042871 218.823926 
L 246.127994 220.23539 
L 244.251309 221.191799 
L 242.818599 222.226708 
L 241.390133 222.848335 
L 238.062957 224.735443 
L 237.109851 225.408887 
L 235.674843 225.936644 
L 234.221269 226.99979 
L 232.794748 227.545804 
L 230.884468 228.838094 
L 229.456002 229.479184 
L 228.51262 230.249622 
L 225.196926 232.106937 
L 224.253986 232.66028 
L 222.337872 233.593582 
L 221.393959 234.269785 
L 219.513561 235.15289 
L 218.085537 236.129344 
L 214.742437 237.785546 
L 212.34999 239.143383 
L 210.913744 239.855796 
L 209.952416 240.362107 
L 208.536504 241.006603 
L 207.104324 241.949691 
L 205.20872 242.770286 
L 204.268421 243.455364 
L 202.378298 244.297836 
L 201.426253 244.96934 
L 198.605744 246.307842 
L 197.661743 246.827948 
L 196.246361 247.503633 
L 194.324942 248.440039 
L 193.357779 248.95398 
L 184.803314 253.065565 
L 183.377589 253.806388 
L 181.951067 254.596656 
L 181.019842 254.974624 
L 180.08751 255.457657 
L 178.654447 256.019147 
L 176.289406 257.170708 
L 175.352301 257.575154 
L 174.388851 258.087285 
L 172.497137 258.950007 
L 171.566928 259.393423 
L 170.637956 259.734671 
L 165.900548 262.019132 
L 164.942049 262.471601 
L 163.999197 262.957478 
L 161.621426 263.953245 
L 160.174748 264.626689 
L 155.864568 266.575687 
L 154.41789 267.247363 
L 153.016123 267.80187 
L 152.082731 268.209204 
L 147.809709 270.071476 
L 146.382828 270.575418 
L 144.471576 271.407803 
L 143.5129 271.836389 
L 142.096546 272.60937 
L 140.681605 273.032094 
L 139.264632 273.649647 
L 138.315327 273.91872 
L 132.14711 276.571667 
L 130.719351 276.99092 
L 128.825868 277.825525 
L 127.865247 278.084307 
L 126.454197 278.871557 
L 124.569025 279.396161 
L 123.625925 280.03887 
L 122.187557 280.317664 
L 121.706009 280.533121 
L 120.764484 281.152463 
L 119.809346 281.307981 
L 118.86623 281.476486 
L 117.910471 282.083887 
L 115.525451 283.037803 
L 115.057782 283.347453 
L 114.102642 283.570648 
L 113.148387 283.694554 
L 112.206419 284.227463 
L 111.732281 284.4898 
L 110.308235 284.812124 
L 109.834643 284.967789 
L 108.89577 285.611293 
L 106.989734 285.931977 
L 106.524718 286.198475 
L 106.040517 286.630423 
L 105.084493 286.811813 
L 103.673443 287.183603 
L 103.20825 287.618225 
L 101.322547 287.864941 
L 100.856647 287.968173 
L 100.375546 288.594473 
L 99.901336 288.754008 
L 98.933996 288.77678 
L 98.457133 288.936066 
L 97.978061 288.931702 
L 97.507033 289.419907 
L 97.037686 289.579163 
L 95.615054 289.692061 
L 95.137927 289.801403 
L 94.655671 290.224557 
L 94.174477 290.351164 
L 93.221989 290.406458 
L 92.284354 290.709684 
L 91.818718 291.162153 
L 91.345392 291.313955 
L 89.933016 291.322966 
L 89.46296 291.460956 
L 88.978672 292.036629 
L 88.504125 292.264995 
L 87.561186 292.14378 
L 86.611085 292.122433 
L 86.145008 292.456202 
L 85.674245 292.999026 
L 84.730951 292.854975 
L 83.791548 292.91472 
L 83.326266 292.950464 
L 82.84348 293.619683 
L 82.362374 293.731271 
L 81.392559 293.739058 
L 80.446436 293.807592 
L 79.981685 294.367229 
L 79.503055 294.669764 
L 78.5587 294.60949 
L 77.594013 294.678433 
L 77.11018 295.000258 
L 76.632875 295.488 
L 75.196806 295.141234 
L 74.720651 294.917996 
L 74.255502 295.089072 
L 73.963165 295.462785 
L 73.832848 294.187163 
L 73.832848 294.187163 
" clip-path="url(#p128c371448)" style="fill: none; stroke: #ff0000; stroke-width: 1.5; stroke-linecap: square"/>
   </g>
   <g id="line2d_14">
    <path d="M 73.930226 280.241338 
L 73.93207 280.098051 
L 73.930226 280.246487 
L 73.943162 280.150353 
L 74.423638 275.544422 
L 75.360213 274.079418 
L 75.858469 273.273113 
L 76.3493 272.83513 
L 76.913685 272.656918 
L 77.416539 280.619023 
L 78.549552 280.710241 
L 79.500802 280.500604 
L 83.458568 278.891007 
L 84.099336 278.769118 
L 85.430378 278.92474 
L 86.586023 279.144077 
L 87.533737 279.148905 
L 88.494181 278.989908 
L 88.976525 278.795402 
L 89.944042 278.034879 
L 92.37132 275.383244 
L 92.859322 275.164384 
L 93.832497 275.241123 
L 95.286601 275.456494 
L 96.245631 275.42739 
L 97.196172 275.210295 
L 98.138142 274.811263 
L 99.068882 274.229124 
L 102.985627 271.334981 
L 105.748142 269.763756 
L 112.028513 266.893755 
L 115.30732 265.515658 
L 124.255437 261.291009 
L 130.866801 258.310649 
L 141.154446 253.110021 
L 144.854773 251.18772 
L 150.350098 248.203911 
L 154.453556 245.85949 
L 161.978686 241.992126 
L 168.80081 238.195116 
L 175.631422 234.425003 
L 178.362817 232.932409 
L 184.520128 229.134709 
L 187.279813 227.517961 
L 194.942149 223.367805 
L 205.71921 216.810461 
L 209.964119 214.301882 
L 219.429056 208.337487 
L 223.229812 206.164121 
L 227.951407 203.269979 
L 233.101594 199.799904 
L 242.111947 193.997134 
L 246.895779 190.538785 
L 250.992166 187.741896 
L 255.080065 184.986391 
L 261.206256 180.274097 
L 264.632171 177.799315 
L 268.069401 175.483174 
L 272.882938 171.803419 
L 275.644038 169.55763 
L 280.508497 165.981336 
L 285.160781 162.536782 
L 288.415541 159.897843 
L 291.681617 157.156822 
L 296.850193 153.118403 
L 300.148803 150.604996 
L 303.914197 147.388056 
L 309.108234 143.030288 
L 312.43089 140.420317 
L 317.630585 136.317753 
L 320.907977 133.441543 
L 325.322625 129.525208 
L 329.471348 125.942706 
L 334.944792 120.85789 
L 342.443047 113.641846 
L 347.919983 108.526745 
L 363.026823 93.691839 
L 375.467333 80.707852 
L 381.60484 75.148215 
L 387.237372 70.224085 
L 390.463842 67.044736 
L 393.086321 63.932291 
L 394.664901 61.592008 
L 396.139162 58.998936 
L 397.11711 56.7866 
L 398.064294 53.602983 
L 398.293509 53.568 
L 398.487273 55.543799 
L 398.381804 79.871635 
L 398.383639 94.785354 
L 398.380368 94.735047 
L 397.915617 95.175078 
L 396.976213 97.0006 
L 396.028146 97.108027 
L 395.56419 97.352238 
L 394.605868 98.080774 
L 393.659746 99.035501 
L 393.174749 99.150138 
L 392.217488 101.147276 
L 390.267735 102.399356 
L 389.306672 103.676666 
L 388.825743 104.901124 
L 388.356483 105.542236 
L 386.915993 106.693323 
L 385.962003 107.847514 
L 384.997757 108.877035 
L 382.137554 111.905246 
L 380.702015 113.463537 
L 375.004174 119.432168 
L 374.053719 120.396767 
L 372.170315 122.492451 
L 370.742202 123.939264 
L 366.454991 128.204822 
L 363.132866 131.53419 
L 357.898693 136.551434 
L 356.949741 137.312043 
L 349.789773 144.031885 
L 347.406344 146.147399 
L 336.478263 155.798942 
L 335.062527 156.810444 
L 333.644316 158.12043 
L 329.884404 161.392172 
L 328.930325 162.069236 
L 326.564577 164.029559 
L 326.09461 164.274546 
L 323.695267 166.304619 
L 319.39327 169.619804 
L 317.962329 171.050752 
L 317.017974 171.643065 
L 316.07362 172.26133 
L 314.183497 173.870059 
L 312.764313 174.863713 
L 312.291871 175.34265 
L 310.38778 176.764719 
L 308.012926 178.654095 
L 302.292165 182.739201 
L 301.809291 183.029279 
L 300.867501 183.873347 
L 295.597854 187.687579 
L 294.168504 188.854185 
L 293.219553 189.428086 
L 291.794357 190.548479 
L 289.883547 191.891314 
L 288.933181 192.410838 
L 287.048893 193.665903 
L 285.615631 194.67463 
L 284.681001 195.263149 
L 283.235207 196.423289 
L 279.436396 198.913073 
L 277.537256 200.179907 
L 275.174867 201.876621 
L 273.254266 203.05762 
L 271.356186 204.334929 
L 269.456515 205.519857 
L 268.49722 206.238909 
L 266.588532 207.282354 
L 265.144506 208.219666 
L 263.716482 209.118611 
L 262.775509 209.815279 
L 260.870534 210.878037 
L 259.919638 211.684858 
L 258.957426 212.136508 
L 257.537269 212.823746 
L 257.060937 213.260954 
L 256.119058 213.789811 
L 255.642726 214.187273 
L 254.685111 214.714319 
L 253.720954 215.46747 
L 252.305041 216.235451 
L 250.874873 217.158337 
L 249.463027 218.022924 
L 248.042871 218.823926 
L 246.127994 220.23539 
L 244.251309 221.191799 
L 242.818599 222.226708 
L 241.390133 222.848335 
L 238.062957 224.735443 
L 237.109851 225.408887 
L 235.674843 225.936644 
L 234.221269 226.99979 
L 232.794748 227.545804 
L 230.884468 228.838094 
L 229.456002 229.479184 
L 228.51262 230.249622 
L 225.196926 232.106937 
L 224.253986 232.66028 
L 222.337872 233.593582 
L 221.393959 234.269785 
L 219.513561 235.15289 
L 218.085537 236.129344 
L 214.742437 237.785546 
L 212.34999 239.143383 
L 210.913744 239.855796 
L 209.952416 240.362107 
L 208.536504 241.006603 
L 207.104324 241.949691 
L 205.20872 242.770286 
L 204.268421 243.455364 
L 202.378298 244.297836 
L 201.426253 244.96934 
L 198.605744 246.307842 
L 197.661743 246.827948 
L 196.246361 247.503633 
L 194.324942 248.440039 
L 193.357779 248.95398 
L 184.803314 253.065565 
L 183.377589 253.806388 
L 181.951067 254.596656 
L 181.019842 254.974624 
L 180.08751 255.457657 
L 178.654447 256.019147 
L 176.289406 257.170708 
L 175.352301 257.575154 
L 174.388851 258.087285 
L 172.497137 258.950007 
L 171.566928 259.393423 
L 170.637956 259.734671 
L 165.900548 262.019132 
L 164.942049 262.471601 
L 163.999197 262.957478 
L 161.621426 263.953245 
L 160.174748 264.626689 
L 155.864568 266.575687 
L 154.41789 267.247363 
L 153.016123 267.80187 
L 152.082731 268.209204 
L 147.809709 270.071476 
L 146.382828 270.575418 
L 144.471576 271.407803 
L 143.5129 271.836389 
L 142.096546 272.60937 
L 140.681605 273.032094 
L 139.264632 273.649647 
L 138.315327 273.91872 
L 132.14711 276.571667 
L 130.719351 276.99092 
L 128.825868 277.825525 
L 127.865247 278.084307 
L 126.454197 278.871557 
L 124.569025 279.396161 
L 123.625925 280.03887 
L 122.187557 280.317664 
L 121.706009 280.533121 
L 120.764484 281.152463 
L 119.809346 281.307981 
L 118.86623 281.476486 
L 117.910471 282.083887 
L 115.525451 283.037803 
L 115.057782 283.347453 
L 114.102642 283.570648 
L 113.148387 283.694554 
L 112.206419 284.227463 
L 111.732281 284.4898 
L 110.308235 284.812124 
L 109.834643 284.967789 
L 108.89577 285.611293 
L 106.989734 285.931977 
L 106.524718 286.198475 
L 106.040517 286.630423 
L 105.084493 286.811813 
L 103.673443 287.183603 
L 103.20825 287.618225 
L 101.322547 287.864941 
L 100.856647 287.968173 
L 100.375546 288.594473 
L 99.901336 288.754008 
L 98.933996 288.77678 
L 98.457133 288.936066 
L 97.978061 288.931702 
L 97.507033 289.419907 
L 97.037686 289.579163 
L 95.615054 289.692061 
L 95.137927 289.801403 
L 94.655671 290.224557 
L 94.174477 290.351164 
L 93.221989 290.406458 
L 92.284354 290.709684 
L 91.818718 291.162153 
L 91.345392 291.313955 
L 89.933016 291.322966 
L 89.46296 291.460956 
L 88.978672 292.036629 
L 88.504125 292.264995 
L 87.561186 292.14378 
L 86.611085 292.122433 
L 86.145008 292.456202 
L 85.674245 292.999026 
L 84.730951 292.854975 
L 83.791548 292.91472 
L 83.326266 292.950464 
L 82.84348 293.619683 
L 82.362374 293.731271 
L 81.392559 293.739058 
L 80.446436 293.807592 
L 79.981685 294.367229 
L 79.503055 294.669764 
L 78.5587 294.60949 
L 77.594013 294.678433 
L 77.11018 295.000258 
L 76.632875 295.488 
L 75.196806 295.141234 
L 74.720651 294.917996 
L 74.255502 295.089072 
L 73.963165 295.462785 
L 73.832848 294.187163 
L 73.832848 294.187163 
" clip-path="url(#p128c371448)" style="fill: none; stroke: #000000; stroke-width: 1.5; stroke-linecap: square"/>
   </g>
   <g id="patch_3">
    <path d="M 57.6 307.584 
L 57.6 41.472 
" style="fill: none; stroke: #000000; stroke-width: 0.8; stroke-linejoin: miter; stroke-linecap: square"/>
   </g>
   <g id="patch_4">
    <path d="M 414.72 307.584 
L 414.72 41.472 
" style="fill: none; stroke: #000000; stroke-width: 0.8; stroke-linejoin: miter; stroke-linecap: square"/>
   </g>
   <g id="patch_5">
    <path d="M 57.6 307.584 
L 414.72 307.584 
" style="fill: none; stroke: #000000; stroke-width: 0.8; stroke-linejoin: miter; stroke-linecap: square"/>
   </g>
   <g id="patch_6">
    <path d="M 57.6 41.472 
L 414.72 41.472 
" style="fill: none; stroke: #000000; stroke-width: 0.8; stroke-linejoin: miter; stroke-linecap: square"/>
   </g>
   <g id="text_15">
    <!-- 2025-06-19 trial 30 -->
    <g transform="translate(178.0125 35.472) scale(0.12 -0.12)">
     <defs>
      <path id="DejaVuSans-2d" d="M 313 2009 
L 1997 2009 
L 1997 1497 
L 313 1497 
L 313 2009 
z
" transform="scale(0.015625)"/>
      <path id="DejaVuSans-36" d="M 2113 2584 
Q 1688 2584 1439 2293 
Q 1191 2003 1191 1497 
Q 1191 994 1439 701 
Q 1688 409 2113 409 
Q 2538 409 2786 701 
Q 3034 994 3034 1497 
Q 3034 2003 2786 2293 
Q 2538 2584 2113 2584 
z
M 3366 4563 
L 3366 3988 
Q 3128 4100 2886 4159 
Q 2644 4219 2406 4219 
Q 1781 4219 1451 3797 
Q 1122 3375 1075 2522 
Q 1259 2794 1537 2939 
Q 1816 3084 2150 3084 
Q 2853 3084 3261 2657 
Q 3669 2231 3669 1497 
Q 3669 778 3244 343 
Q 2819 -91 2113 -91 
Q 1303 -91 875 529 
Q 447 1150 447 2328 
Q 447 3434 972 4092 
Q 1497 4750 2381 4750 
Q 2619 4750 2861 4703 
Q 3103 4656 3366 4563 
z
" transform="scale(0.015625)"/>
      <path id="DejaVuSans-39" d="M 703 97 
L 703 672 
Q 941 559 1184 500 
Q 1428 441 1663 441 
Q 2288 441 2617 861 
Q 2947 1281 2994 2138 
Q 2813 1869 2534 1725 
Q 2256 1581 1919 1581 
Q 1219 1581 811 2004 
Q 403 2428 403 3163 
Q 403 3881 828 4315 
Q 1253 4750 1959 4750 
Q 2769 4750 3195 4129 
Q 3622 3509 3622 2328 
Q 3622 1225 3098 567 
Q 2575 -91 1691 -91 
Q 1453 -91 1209 -44 
Q 966 3 703 97 
z
M 1959 2075 
Q 2384 2075 2632 2365 
Q 2881 2656 2881 3163 
Q 2881 3666 2632 3958 
Q 2384 4250 1959 4250 
Q 1534 4250 1286 3958 
Q 1038 3666 1038 3163 
Q 1038 2656 1286 2365 
Q 1534 2075 1959 2075 
z
" transform="scale(0.015625)"/>
      <path id="DejaVuSans-6c" d="M 603 4863 
L 1178 4863 
L 1178 0 
L 603 0 
L 603 4863 
z
" transform="scale(0.015625)"/>
      <path id="DejaVuSans-33" d="M 2597 2516 
Q 3050 2419 3304 2112 
Q 3559 1806 3559 1356 
Q 3559 666 3084 287 
Q 2609 -91 1734 -91 
Q 1441 -91 1130 -33 
Q 819 25 488 141 
L 488 750 
Q 750 597 1062 519 
Q 1375 441 1716 441 
Q 2309 441 2620 675 
Q 2931 909 2931 1356 
Q 2931 1769 2642 2001 
Q 2353 2234 1838 2234 
L 1294 2234 
L 1294 2753 
L 1863 2753 
Q 2328 2753 2575 2939 
Q 2822 3125 2822 3475 
Q 2822 3834 2567 4026 
Q 2313 4219 1838 4219 
Q 1578 4219 1281 4162 
Q 984 4106 628 3988 
L 628 4550 
Q 988 4650 1302 4700 
Q 1616 4750 1894 4750 
Q 2613 4750 3031 4423 
Q 3450 4097 3450 3541 
Q 3450 3153 3228 2886 
Q 3006 2619 2597 2516 
z
" transform="scale(0.015625)"/>
     </defs>
     <use xlink:href="#DejaVuSans-32"/>
     <use xlink:href="#DejaVuSans-30" transform="translate(63.623047 0)"/>
     <use xlink:href="#DejaVuSans-32" transform="translate(127.246094 0)"/>
     <use xlink:href="#DejaVuSans-35" transform="translate(190.869141 0)"/>
     <use xlink:href="#DejaVuSans-2d" transform="translate(254.492188 0)"/>
     <use xlink:href="#DejaVuSans-30" transform="translate(290.576172 0)"/>
     <use xlink:href="#DejaVuSans-36" transform="translate(354.199219 0)"/>
     <use xlink:href="#DejaVuSans-2d" transform="translate(417.822266 0)"/>
     <use xlink:href="#DejaVuSans-31" transform="translate(453.90625 0)"/>
     <use xlink:href="#DejaVuSans-39" transform="translate(517.529297 0)"/>
     <use xlink:href="#DejaVuSans-20" transform="translate(581.152344 0)"/>
     <use xlink:href="#DejaVuSans-74" transform="translate(612.939453 0)"/>
     <use xlink:href="#DejaVuSans-72" transform="translate(652.148438 0)"/>
     <use xlink:href="#DejaVuSans-69" transform="translate(693.261719 0)"/>
     <use xlink:href="#DejaVuSans-61" transform="translate(721.044922 0)"/>
     <use xlink:href="#DejaVuSans-6c" transform="translate(782.324219 0)"/>
     <use xlink:href="#DejaVuSans-20" transform="translate(810.107422 0)"/>
     <use xlink:href="#DejaVuSans-33" transform="translate(841.894531 0)"/>
     <use xlink:href="#DejaVuSans-30" transform="translate(905.517578 0)"/>
    </g>
   </g>
  </g>
 </g>
 <defs>
  <clipPath id="p128c371448">
   <rect x="57.6" y="41.472" width="357.12" height="266.112"/>
  </clipPath>
 </defs>
</svg>
