<?xml version="1.0" encoding="utf-8" standalone="no"?>
<!DOCTYPE svg PUBLIC "-//W3C//DTD SVG 1.1//EN"
  "http://www.w3.org/Graphics/SVG/1.1/DTD/svg11.dtd">
<svg xmlns:xlink="http://www.w3.org/1999/xlink" width="432pt" height="288pt" viewBox="0 0 432 288" xmlns="http://www.w3.org/2000/svg" version="1.1">
 <metadata>
  <rdf:RDF xmlns:dc="http://purl.org/dc/elements/1.1/" xmlns:cc="http://creativecommons.org/ns#" xmlns:rdf="http://www.w3.org/1999/02/22-rdf-syntax-ns#">
   <cc:Work>
    <dc:type rdf:resource="http://purl.org/dc/dcmitype/StillImage"/>
    <dc:date>2025-07-03T20:54:25.226207</dc:date>
    <dc:format>image/svg+xml</dc:format>
    <dc:creator>
     <cc:Agent>
      <dc:title>Matplotlib v3.9.2, https://matplotlib.org/</dc:title>
     </cc:Agent>
    </dc:creator>
   </cc:Work>
  </rdf:RDF>
 </metadata>
 <defs>
  <style type="text/css">*{stroke-linejoin: round; stroke-linecap: butt}</style>
 </defs>
 <g id="figure_1">
  <g id="patch_1">
   <path d="M 0 288 
L 432 288 
L 432 0 
L 0 0 
z
" style="fill: #ffffff"/>
  </g>
  <g id="axes_1">
   <g id="patch_2">
    <path d="M 54 256.32 
L 388.8 256.32 
L 388.8 34.56 
L 54 34.56 
z
" style="fill: #ffffff"/>
   </g>
   <g id="matplotlib.axis_1">
    <g id="xtick_1">
     <g id="line2d_1">
      <defs>
       <path id="m16f579569c" d="M 0 0 
L 0 3.5 
" style="stroke: #000000; stroke-width: 0.8"/>
      </defs>
      <g>
       <use xlink:href="#m16f579569c" x="69.354346" y="256.32" style="stroke: #000000; stroke-width: 0.8"/>
      </g>
     </g>
     <g id="text_1">
      <!-- 0.000 -->
      <g transform="translate(55.040284 270.918437) scale(0.1 -0.1)">
       <defs>
        <path id="DejaVuSans-30" d="M 2034 4250 
Q 1547 4250 1301 3770 
Q 1056 3291 1056 2328 
Q 1056 1369 1301 889 
Q 1547 409 2034 409 
Q 2525 409 2770 889 
Q 3016 1369 3016 2328 
Q 3016 3291 2770 3770 
Q 2525 4250 2034 4250 
z
M 2034 4750 
Q 2819 4750 3233 4129 
Q 3647 3509 3647 2328 
Q 3647 1150 3233 529 
Q 2819 -91 2034 -91 
Q 1250 -91 836 529 
Q 422 1150 422 2328 
Q 422 3509 836 4129 
Q 1250 4750 2034 4750 
z
" transform="scale(0.015625)"/>
        <path id="DejaVuSans-2e" d="M 684 794 
L 1344 794 
L 1344 0 
L 684 0 
L 684 794 
z
" transform="scale(0.015625)"/>
       </defs>
       <use xlink:href="#DejaVuSans-30"/>
       <use xlink:href="#DejaVuSans-2e" x="63.623047"/>
       <use xlink:href="#DejaVuSans-30" x="95.410156"/>
       <use xlink:href="#DejaVuSans-30" x="159.033203"/>
       <use xlink:href="#DejaVuSans-30" x="222.65625"/>
      </g>
     </g>
    </g>
    <g id="xtick_2">
     <g id="line2d_2">
      <g>
       <use xlink:href="#m16f579569c" x="107.36238" y="256.32" style="stroke: #000000; stroke-width: 0.8"/>
      </g>
     </g>
     <g id="text_2">
      <!-- 0.025 -->
      <g transform="translate(93.048318 270.918437) scale(0.1 -0.1)">
       <defs>
        <path id="DejaVuSans-32" d="M 1228 531 
L 3431 531 
L 3431 0 
L 469 0 
L 469 531 
Q 828 903 1448 1529 
Q 2069 2156 2228 2338 
Q 2531 2678 2651 2914 
Q 2772 3150 2772 3378 
Q 2772 3750 2511 3984 
Q 2250 4219 1831 4219 
Q 1534 4219 1204 4116 
Q 875 4013 500 3803 
L 500 4441 
Q 881 4594 1212 4672 
Q 1544 4750 1819 4750 
Q 2544 4750 2975 4387 
Q 3406 4025 3406 3419 
Q 3406 3131 3298 2873 
Q 3191 2616 2906 2266 
Q 2828 2175 2409 1742 
Q 1991 1309 1228 531 
z
" transform="scale(0.015625)"/>
        <path id="DejaVuSans-35" d="M 691 4666 
L 3169 4666 
L 3169 4134 
L 1269 4134 
L 1269 2991 
Q 1406 3038 1543 3061 
Q 1681 3084 1819 3084 
Q 2600 3084 3056 2656 
Q 3513 2228 3513 1497 
Q 3513 744 3044 326 
Q 2575 -91 1722 -91 
Q 1428 -91 1123 -41 
Q 819 9 494 109 
L 494 744 
Q 775 591 1075 516 
Q 1375 441 1709 441 
Q 2250 441 2565 725 
Q 2881 1009 2881 1497 
Q 2881 1984 2565 2268 
Q 2250 2553 1709 2553 
Q 1456 2553 1204 2497 
Q 953 2441 691 2322 
L 691 4666 
z
" transform="scale(0.015625)"/>
       </defs>
       <use xlink:href="#DejaVuSans-30"/>
       <use xlink:href="#DejaVuSans-2e" x="63.623047"/>
       <use xlink:href="#DejaVuSans-30" x="95.410156"/>
       <use xlink:href="#DejaVuSans-32" x="159.033203"/>
       <use xlink:href="#DejaVuSans-35" x="222.65625"/>
      </g>
     </g>
    </g>
    <g id="xtick_3">
     <g id="line2d_3">
      <g>
       <use xlink:href="#m16f579569c" x="145.370414" y="256.32" style="stroke: #000000; stroke-width: 0.8"/>
      </g>
     </g>
     <g id="text_3">
      <!-- 0.050 -->
      <g transform="translate(131.056352 270.918437) scale(0.1 -0.1)">
       <use xlink:href="#DejaVuSans-30"/>
       <use xlink:href="#DejaVuSans-2e" x="63.623047"/>
       <use xlink:href="#DejaVuSans-30" x="95.410156"/>
       <use xlink:href="#DejaVuSans-35" x="159.033203"/>
       <use xlink:href="#DejaVuSans-30" x="222.65625"/>
      </g>
     </g>
    </g>
    <g id="xtick_4">
     <g id="line2d_4">
      <g>
       <use xlink:href="#m16f579569c" x="183.378448" y="256.32" style="stroke: #000000; stroke-width: 0.8"/>
      </g>
     </g>
     <g id="text_4">
      <!-- 0.075 -->
      <g transform="translate(169.064386 270.918437) scale(0.1 -0.1)">
       <defs>
        <path id="DejaVuSans-37" d="M 525 4666 
L 3525 4666 
L 3525 4397 
L 1831 0 
L 1172 0 
L 2766 4134 
L 525 4134 
L 525 4666 
z
" transform="scale(0.015625)"/>
       </defs>
       <use xlink:href="#DejaVuSans-30"/>
       <use xlink:href="#DejaVuSans-2e" x="63.623047"/>
       <use xlink:href="#DejaVuSans-30" x="95.410156"/>
       <use xlink:href="#DejaVuSans-37" x="159.033203"/>
       <use xlink:href="#DejaVuSans-35" x="222.65625"/>
      </g>
     </g>
    </g>
    <g id="xtick_5">
     <g id="line2d_5">
      <g>
       <use xlink:href="#m16f579569c" x="221.386482" y="256.32" style="stroke: #000000; stroke-width: 0.8"/>
      </g>
     </g>
     <g id="text_5">
      <!-- 0.100 -->
      <g transform="translate(207.07242 270.918437) scale(0.1 -0.1)">
       <defs>
        <path id="DejaVuSans-31" d="M 794 531 
L 1825 531 
L 1825 4091 
L 703 3866 
L 703 4441 
L 1819 4666 
L 2450 4666 
L 2450 531 
L 3481 531 
L 3481 0 
L 794 0 
L 794 531 
z
" transform="scale(0.015625)"/>
       </defs>
       <use xlink:href="#DejaVuSans-30"/>
       <use xlink:href="#DejaVuSans-2e" x="63.623047"/>
       <use xlink:href="#DejaVuSans-31" x="95.410156"/>
       <use xlink:href="#DejaVuSans-30" x="159.033203"/>
       <use xlink:href="#DejaVuSans-30" x="222.65625"/>
      </g>
     </g>
    </g>
    <g id="xtick_6">
     <g id="line2d_6">
      <g>
       <use xlink:href="#m16f579569c" x="259.394516" y="256.32" style="stroke: #000000; stroke-width: 0.8"/>
      </g>
     </g>
     <g id="text_6">
      <!-- 0.125 -->
      <g transform="translate(245.080454 270.918437) scale(0.1 -0.1)">
       <use xlink:href="#DejaVuSans-30"/>
       <use xlink:href="#DejaVuSans-2e" x="63.623047"/>
       <use xlink:href="#DejaVuSans-31" x="95.410156"/>
       <use xlink:href="#DejaVuSans-32" x="159.033203"/>
       <use xlink:href="#DejaVuSans-35" x="222.65625"/>
      </g>
     </g>
    </g>
    <g id="xtick_7">
     <g id="line2d_7">
      <g>
       <use xlink:href="#m16f579569c" x="297.40255" y="256.32" style="stroke: #000000; stroke-width: 0.8"/>
      </g>
     </g>
     <g id="text_7">
      <!-- 0.150 -->
      <g transform="translate(283.088488 270.918437) scale(0.1 -0.1)">
       <use xlink:href="#DejaVuSans-30"/>
       <use xlink:href="#DejaVuSans-2e" x="63.623047"/>
       <use xlink:href="#DejaVuSans-31" x="95.410156"/>
       <use xlink:href="#DejaVuSans-35" x="159.033203"/>
       <use xlink:href="#DejaVuSans-30" x="222.65625"/>
      </g>
     </g>
    </g>
    <g id="xtick_8">
     <g id="line2d_8">
      <g>
       <use xlink:href="#m16f579569c" x="335.410584" y="256.32" style="stroke: #000000; stroke-width: 0.8"/>
      </g>
     </g>
     <g id="text_8">
      <!-- 0.175 -->
      <g transform="translate(321.096522 270.918437) scale(0.1 -0.1)">
       <use xlink:href="#DejaVuSans-30"/>
       <use xlink:href="#DejaVuSans-2e" x="63.623047"/>
       <use xlink:href="#DejaVuSans-31" x="95.410156"/>
       <use xlink:href="#DejaVuSans-37" x="159.033203"/>
       <use xlink:href="#DejaVuSans-35" x="222.65625"/>
      </g>
     </g>
    </g>
    <g id="xtick_9">
     <g id="line2d_9">
      <g>
       <use xlink:href="#m16f579569c" x="373.418618" y="256.32" style="stroke: #000000; stroke-width: 0.8"/>
      </g>
     </g>
     <g id="text_9">
      <!-- 0.200 -->
      <g transform="translate(359.104556 270.918437) scale(0.1 -0.1)">
       <use xlink:href="#DejaVuSans-30"/>
       <use xlink:href="#DejaVuSans-2e" x="63.623047"/>
       <use xlink:href="#DejaVuSans-32" x="95.410156"/>
       <use xlink:href="#DejaVuSans-30" x="159.033203"/>
       <use xlink:href="#DejaVuSans-30" x="222.65625"/>
      </g>
     </g>
    </g>
    <g id="text_10">
     <!-- Strain -->
     <g transform="translate(206.588281 284.596563) scale(0.1 -0.1)">
      <defs>
       <path id="DejaVuSans-53" d="M 3425 4513 
L 3425 3897 
Q 3066 4069 2747 4153 
Q 2428 4238 2131 4238 
Q 1616 4238 1336 4038 
Q 1056 3838 1056 3469 
Q 1056 3159 1242 3001 
Q 1428 2844 1947 2747 
L 2328 2669 
Q 3034 2534 3370 2195 
Q 3706 1856 3706 1288 
Q 3706 609 3251 259 
Q 2797 -91 1919 -91 
Q 1588 -91 1214 -16 
Q 841 59 441 206 
L 441 856 
Q 825 641 1194 531 
Q 1563 422 1919 422 
Q 2459 422 2753 634 
Q 3047 847 3047 1241 
Q 3047 1584 2836 1778 
Q 2625 1972 2144 2069 
L 1759 2144 
Q 1053 2284 737 2584 
Q 422 2884 422 3419 
Q 422 4038 858 4394 
Q 1294 4750 2059 4750 
Q 2388 4750 2728 4690 
Q 3069 4631 3425 4513 
z
" transform="scale(0.015625)"/>
       <path id="DejaVuSans-74" d="M 1172 4494 
L 1172 3500 
L 2356 3500 
L 2356 3053 
L 1172 3053 
L 1172 1153 
Q 1172 725 1289 603 
Q 1406 481 1766 481 
L 2356 481 
L 2356 0 
L 1766 0 
Q 1100 0 847 248 
Q 594 497 594 1153 
L 594 3053 
L 172 3053 
L 172 3500 
L 594 3500 
L 594 4494 
L 1172 4494 
z
" transform="scale(0.015625)"/>
       <path id="DejaVuSans-72" d="M 2631 2963 
Q 2534 3019 2420 3045 
Q 2306 3072 2169 3072 
Q 1681 3072 1420 2755 
Q 1159 2438 1159 1844 
L 1159 0 
L 581 0 
L 581 3500 
L 1159 3500 
L 1159 2956 
Q 1341 3275 1631 3429 
Q 1922 3584 2338 3584 
Q 2397 3584 2469 3576 
Q 2541 3569 2628 3553 
L 2631 2963 
z
" transform="scale(0.015625)"/>
       <path id="DejaVuSans-61" d="M 2194 1759 
Q 1497 1759 1228 1600 
Q 959 1441 959 1056 
Q 959 750 1161 570 
Q 1363 391 1709 391 
Q 2188 391 2477 730 
Q 2766 1069 2766 1631 
L 2766 1759 
L 2194 1759 
z
M 3341 1997 
L 3341 0 
L 2766 0 
L 2766 531 
Q 2569 213 2275 61 
Q 1981 -91 1556 -91 
Q 1019 -91 701 211 
Q 384 513 384 1019 
Q 384 1609 779 1909 
Q 1175 2209 1959 2209 
L 2766 2209 
L 2766 2266 
Q 2766 2663 2505 2880 
Q 2244 3097 1772 3097 
Q 1472 3097 1187 3025 
Q 903 2953 641 2809 
L 641 3341 
Q 956 3463 1253 3523 
Q 1550 3584 1831 3584 
Q 2591 3584 2966 3190 
Q 3341 2797 3341 1997 
z
" transform="scale(0.015625)"/>
       <path id="DejaVuSans-69" d="M 603 3500 
L 1178 3500 
L 1178 0 
L 603 0 
L 603 3500 
z
M 603 4863 
L 1178 4863 
L 1178 4134 
L 603 4134 
L 603 4863 
z
" transform="scale(0.015625)"/>
       <path id="DejaVuSans-6e" d="M 3513 2113 
L 3513 0 
L 2938 0 
L 2938 2094 
Q 2938 2591 2744 2837 
Q 2550 3084 2163 3084 
Q 1697 3084 1428 2787 
Q 1159 2491 1159 1978 
L 1159 0 
L 581 0 
L 581 3500 
L 1159 3500 
L 1159 2956 
Q 1366 3272 1645 3428 
Q 1925 3584 2291 3584 
Q 2894 3584 3203 3211 
Q 3513 2838 3513 2113 
z
" transform="scale(0.015625)"/>
      </defs>
      <use xlink:href="#DejaVuSans-53"/>
      <use xlink:href="#DejaVuSans-74" x="63.476562"/>
      <use xlink:href="#DejaVuSans-72" x="102.685547"/>
      <use xlink:href="#DejaVuSans-61" x="143.798828"/>
      <use xlink:href="#DejaVuSans-69" x="205.078125"/>
      <use xlink:href="#DejaVuSans-6e" x="232.861328"/>
     </g>
    </g>
   </g>
   <g id="matplotlib.axis_2">
    <g id="ytick_1">
     <g id="line2d_10">
      <defs>
       <path id="m6957771bd7" d="M 0 0 
L -3.5 0 
" style="stroke: #000000; stroke-width: 0.8"/>
      </defs>
      <g>
       <use xlink:href="#m6957771bd7" x="54" y="239.146264" style="stroke: #000000; stroke-width: 0.8"/>
      </g>
     </g>
     <g id="text_11">
      <!-- 0 -->
      <g transform="translate(40.6375 242.945483) scale(0.1 -0.1)">
       <use xlink:href="#DejaVuSans-30"/>
      </g>
     </g>
    </g>
    <g id="ytick_2">
     <g id="line2d_11">
      <g>
       <use xlink:href="#m6957771bd7" x="54" y="190.507278" style="stroke: #000000; stroke-width: 0.8"/>
      </g>
     </g>
     <g id="text_12">
      <!-- 200 -->
      <g transform="translate(27.9125 194.306497) scale(0.1 -0.1)">
       <use xlink:href="#DejaVuSans-32"/>
       <use xlink:href="#DejaVuSans-30" x="63.623047"/>
       <use xlink:href="#DejaVuSans-30" x="127.246094"/>
      </g>
     </g>
    </g>
    <g id="ytick_3">
     <g id="line2d_12">
      <g>
       <use xlink:href="#m6957771bd7" x="54" y="141.868292" style="stroke: #000000; stroke-width: 0.8"/>
      </g>
     </g>
     <g id="text_13">
      <!-- 400 -->
      <g transform="translate(27.9125 145.667511) scale(0.1 -0.1)">
       <defs>
        <path id="DejaVuSans-34" d="M 2419 4116 
L 825 1625 
L 2419 1625 
L 2419 4116 
z
M 2253 4666 
L 3047 4666 
L 3047 1625 
L 3713 1625 
L 3713 1100 
L 3047 1100 
L 3047 0 
L 2419 0 
L 2419 1100 
L 313 1100 
L 313 1709 
L 2253 4666 
z
" transform="scale(0.015625)"/>
       </defs>
       <use xlink:href="#DejaVuSans-34"/>
       <use xlink:href="#DejaVuSans-30" x="63.623047"/>
       <use xlink:href="#DejaVuSans-30" x="127.246094"/>
      </g>
     </g>
    </g>
    <g id="ytick_4">
     <g id="line2d_13">
      <g>
       <use xlink:href="#m6957771bd7" x="54" y="93.229306" style="stroke: #000000; stroke-width: 0.8"/>
      </g>
     </g>
     <g id="text_14">
      <!-- 600 -->
      <g transform="translate(27.9125 97.028525) scale(0.1 -0.1)">
       <defs>
        <path id="DejaVuSans-36" d="M 2113 2584 
Q 1688 2584 1439 2293 
Q 1191 2003 1191 1497 
Q 1191 994 1439 701 
Q 1688 409 2113 409 
Q 2538 409 2786 701 
Q 3034 994 3034 1497 
Q 3034 2003 2786 2293 
Q 2538 2584 2113 2584 
z
M 3366 4563 
L 3366 3988 
Q 3128 4100 2886 4159 
Q 2644 4219 2406 4219 
Q 1781 4219 1451 3797 
Q 1122 3375 1075 2522 
Q 1259 2794 1537 2939 
Q 1816 3084 2150 3084 
Q 2853 3084 3261 2657 
Q 3669 2231 3669 1497 
Q 3669 778 3244 343 
Q 2819 -91 2113 -91 
Q 1303 -91 875 529 
Q 447 1150 447 2328 
Q 447 3434 972 4092 
Q 1497 4750 2381 4750 
Q 2619 4750 2861 4703 
Q 3103 4656 3366 4563 
z
" transform="scale(0.015625)"/>
       </defs>
       <use xlink:href="#DejaVuSans-36"/>
       <use xlink:href="#DejaVuSans-30" x="63.623047"/>
       <use xlink:href="#DejaVuSans-30" x="127.246094"/>
      </g>
     </g>
    </g>
    <g id="ytick_5">
     <g id="line2d_14">
      <g>
       <use xlink:href="#m6957771bd7" x="54" y="44.59032" style="stroke: #000000; stroke-width: 0.8"/>
      </g>
     </g>
     <g id="text_15">
      <!-- 800 -->
      <g transform="translate(27.9125 48.389539) scale(0.1 -0.1)">
       <defs>
        <path id="DejaVuSans-38" d="M 2034 2216 
Q 1584 2216 1326 1975 
Q 1069 1734 1069 1313 
Q 1069 891 1326 650 
Q 1584 409 2034 409 
Q 2484 409 2743 651 
Q 3003 894 3003 1313 
Q 3003 1734 2745 1975 
Q 2488 2216 2034 2216 
z
M 1403 2484 
Q 997 2584 770 2862 
Q 544 3141 544 3541 
Q 544 4100 942 4425 
Q 1341 4750 2034 4750 
Q 2731 4750 3128 4425 
Q 3525 4100 3525 3541 
Q 3525 3141 3298 2862 
Q 3072 2584 2669 2484 
Q 3125 2378 3379 2068 
Q 3634 1759 3634 1313 
Q 3634 634 3220 271 
Q 2806 -91 2034 -91 
Q 1263 -91 848 271 
Q 434 634 434 1313 
Q 434 1759 690 2068 
Q 947 2378 1403 2484 
z
M 1172 3481 
Q 1172 3119 1398 2916 
Q 1625 2713 2034 2713 
Q 2441 2713 2670 2916 
Q 2900 3119 2900 3481 
Q 2900 3844 2670 4047 
Q 2441 4250 2034 4250 
Q 1625 4250 1398 4047 
Q 1172 3844 1172 3481 
z
" transform="scale(0.015625)"/>
       </defs>
       <use xlink:href="#DejaVuSans-38"/>
       <use xlink:href="#DejaVuSans-30" x="63.623047"/>
       <use xlink:href="#DejaVuSans-30" x="127.246094"/>
      </g>
     </g>
    </g>
    <g id="text_16">
     <!-- Stress [Pa] -->
     <g transform="translate(21.832812 172.147812) rotate(-90) scale(0.1 -0.1)">
      <defs>
       <path id="DejaVuSans-65" d="M 3597 1894 
L 3597 1613 
L 953 1613 
Q 991 1019 1311 708 
Q 1631 397 2203 397 
Q 2534 397 2845 478 
Q 3156 559 3463 722 
L 3463 178 
Q 3153 47 2828 -22 
Q 2503 -91 2169 -91 
Q 1331 -91 842 396 
Q 353 884 353 1716 
Q 353 2575 817 3079 
Q 1281 3584 2069 3584 
Q 2775 3584 3186 3129 
Q 3597 2675 3597 1894 
z
M 3022 2063 
Q 3016 2534 2758 2815 
Q 2500 3097 2075 3097 
Q 1594 3097 1305 2825 
Q 1016 2553 972 2059 
L 3022 2063 
z
" transform="scale(0.015625)"/>
       <path id="DejaVuSans-73" d="M 2834 3397 
L 2834 2853 
Q 2591 2978 2328 3040 
Q 2066 3103 1784 3103 
Q 1356 3103 1142 2972 
Q 928 2841 928 2578 
Q 928 2378 1081 2264 
Q 1234 2150 1697 2047 
L 1894 2003 
Q 2506 1872 2764 1633 
Q 3022 1394 3022 966 
Q 3022 478 2636 193 
Q 2250 -91 1575 -91 
Q 1294 -91 989 -36 
Q 684 19 347 128 
L 347 722 
Q 666 556 975 473 
Q 1284 391 1588 391 
Q 1994 391 2212 530 
Q 2431 669 2431 922 
Q 2431 1156 2273 1281 
Q 2116 1406 1581 1522 
L 1381 1569 
Q 847 1681 609 1914 
Q 372 2147 372 2553 
Q 372 3047 722 3315 
Q 1072 3584 1716 3584 
Q 2034 3584 2315 3537 
Q 2597 3491 2834 3397 
z
" transform="scale(0.015625)"/>
       <path id="DejaVuSans-20" transform="scale(0.015625)"/>
       <path id="DejaVuSans-5b" d="M 550 4863 
L 1875 4863 
L 1875 4416 
L 1125 4416 
L 1125 -397 
L 1875 -397 
L 1875 -844 
L 550 -844 
L 550 4863 
z
" transform="scale(0.015625)"/>
       <path id="DejaVuSans-50" d="M 1259 4147 
L 1259 2394 
L 2053 2394 
Q 2494 2394 2734 2622 
Q 2975 2850 2975 3272 
Q 2975 3691 2734 3919 
Q 2494 4147 2053 4147 
L 1259 4147 
z
M 628 4666 
L 2053 4666 
Q 2838 4666 3239 4311 
Q 3641 3956 3641 3272 
Q 3641 2581 3239 2228 
Q 2838 1875 2053 1875 
L 1259 1875 
L 1259 0 
L 628 0 
L 628 4666 
z
" transform="scale(0.015625)"/>
       <path id="DejaVuSans-5d" d="M 1947 4863 
L 1947 -844 
L 622 -844 
L 622 -397 
L 1369 -397 
L 1369 4416 
L 622 4416 
L 622 4863 
L 1947 4863 
z
" transform="scale(0.015625)"/>
      </defs>
      <use xlink:href="#DejaVuSans-53"/>
      <use xlink:href="#DejaVuSans-74" x="63.476562"/>
      <use xlink:href="#DejaVuSans-72" x="102.685547"/>
      <use xlink:href="#DejaVuSans-65" x="141.548828"/>
      <use xlink:href="#DejaVuSans-73" x="203.072266"/>
      <use xlink:href="#DejaVuSans-73" x="255.171875"/>
      <use xlink:href="#DejaVuSans-20" x="307.271484"/>
      <use xlink:href="#DejaVuSans-5b" x="339.058594"/>
      <use xlink:href="#DejaVuSans-50" x="378.072266"/>
      <use xlink:href="#DejaVuSans-61" x="433.875"/>
      <use xlink:href="#DejaVuSans-5d" x="495.154297"/>
     </g>
    </g>
   </g>
   <g id="line2d_15">
    <path d="M 69.354346 240.762451 
L 69.354346 240.815518 
L 69.355974 240.086847 
L 69.354864 240.360235 
L 69.982255 236.62001 
L 70.630879 230.590951 
L 71.277878 229.506803 
L 71.945524 229.401336 
L 72.636369 228.239615 
L 73.313758 226.704665 
L 73.941967 225.618819 
L 74.635131 225.28667 
L 75.387683 225.643107 
L 76.031666 226.217816 
L 77.416139 227.953734 
L 79.690496 231.13232 
L 81.300456 233.956134 
L 84.398508 238.583732 
L 86.246946 241.340899 
L 87.053318 241.83281 
L 87.849482 241.656162 
L 88.634512 241.32805 
L 89.413045 241.351248 
L 90.183228 241.810605 
L 90.941347 242.560136 
L 92.418612 244.381158 
L 93.131263 244.765665 
L 93.823499 244.653068 
L 94.498104 244.096303 
L 95.156007 243.308834 
L 95.799991 242.316295 
L 98.286845 237.786298 
L 98.899279 237.040868 
L 99.512641 236.555365 
L 100.127857 236.330813 
L 101.968871 236.044997 
L 103.804318 235.526426 
L 105.02733 235.260604 
L 106.247559 235.047715 
L 111.721421 233.466241 
L 113.998563 233.15902 
L 117.757609 231.934496 
L 119.247865 231.406953 
L 119.99021 231.182401 
L 122.955876 229.689491 
L 125.189405 228.93714 
L 126.685229 228.498034 
L 129.692651 227.561633 
L 131.202394 227.217756 
L 132.713993 226.87311 
L 135.744614 225.81905 
L 139.240128 224.742945 
L 144.128466 222.684298 
L 145.975048 221.947071 
L 147.21198 221.694835 
L 148.449839 221.522256 
L 149.687698 221.10622 
L 155.235795 218.889669 
L 158.293326 217.718207 
L 163.308515 214.654578 
L 168.203348 212.641303 
L 169.429144 212.208862 
L 174.951259 209.265081 
L 176.183551 208.621417 
L 181.119213 205.704296 
L 182.973218 204.843769 
L 193.438419 199.227926 
L 195.877948 197.987252 
L 197.396042 196.884488 
L 199.671328 195.240851 
L 202.707517 193.469559 
L 205.739994 191.78337 
L 210.272006 189.103617 
L 211.778037 188.024949 
L 216.284068 185.591537 
L 220.008781 183.123519 
L 225.95032 178.191071 
L 228.948464 176.158314 
L 234.231172 172.47987 
L 235.743699 171.33866 
L 241.796604 167.080885 
L 243.305419 165.707941 
L 245.576993 163.668519 
L 247.405944 162.360685 
L 249.246958 161.17538 
L 251.708758 159.837811 
L 253.552556 158.673526 
L 255.390786 157.371843 
L 260.851657 152.91926 
L 267.505847 146.496466 
L 270.573585 144.20122 
L 273.040025 142.475043 
L 277.342838 139.315938 
L 279.779584 136.88996 
L 282.974449 133.871329 
L 286.644414 130.322079 
L 289.726071 128.073486 
L 294.648743 124.24329 
L 297.097551 121.952658 
L 298.319636 120.614576 
L 301.369743 117.820496 
L 305.04342 113.70269 
L 308.140852 111.019861 
L 311.246636 108.326266 
L 312.487279 107.349107 
L 313.722557 106.37754 
L 317.401802 102.875969 
L 319.674304 100.726322 
L 325.645537 94.29635 
L 333.05599 86.332455 
L 343.559235 75.859015 
L 345.824314 73.363825 
L 346.579649 72.733235 
L 348.091248 70.913238 
L 350.366534 68.31295 
L 352.495206 65.951569 
L 355.544386 62.420262 
L 357.983915 60.199866 
L 359.498298 59.274488 
L 360.247138 58.879728 
L 362.443549 57.360672 
L 364.523041 56.468361 
L 365.815649 55.846998 
L 368.416174 54.912648 
L 369.772808 53.883709 
L 370.44927 53.131615 
L 371.081654 52.023724 
L 371.730046 50.593873 
L 372.349555 48.741578 
L 372.96286 45.729099 
L 373.30341 44.942351 
L 373.581818 46.365569 
L 373.419691 55.914816 
L 373.41914 72.739099 
L 373.415922 72.36624 
L 372.80227 73.322539 
L 372.180034 75.893733 
L 371.545098 77.870913 
L 370.92292 77.249294 
L 370.313966 76.880745 
L 369.666038 76.83446 
L 369.052908 77.0593 
L 368.438067 77.005357 
L 367.185825 77.271435 
L 366.549497 78.26814 
L 365.92152 80.475719 
L 364.66719 83.858862 
L 364.029469 83.636265 
L 363.418659 82.970812 
L 362.784883 82.772679 
L 362.159225 83.140139 
L 361.520345 83.816871 
L 360.897008 84.170248 
L 360.274483 86.089223 
L 359.641982 88.530069 
L 359.015513 89.164889 
L 358.405167 89.617517 
L 357.177747 90.08756 
L 356.553249 90.798 
L 355.313302 92.765134 
L 354.70052 93.611945 
L 352.811253 95.581387 
L 352.200211 96.496255 
L 351.569682 97.191699 
L 350.929613 97.718537 
L 350.321123 98.584702 
L 349.068649 99.238106 
L 348.437424 99.996545 
L 347.803647 101.226452 
L 346.571704 102.779858 
L 344.677797 104.39299 
L 342.179693 107.309086 
L 341.551252 107.739349 
L 339.661985 110.011653 
L 339.026121 110.863591 
L 335.939012 114.001579 
L 334.708112 115.50282 
L 328.467779 121.658062 
L 327.842586 122.219954 
L 326.59452 123.820141 
L 325.958887 124.256491 
L 324.709197 125.703004 
L 323.481313 126.818778 
L 322.255052 128.42768 
L 319.163014 131.215175 
L 317.936754 132.61747 
L 317.327103 133.15988 
L 316.715365 133.46364 
L 315.488177 134.35185 
L 314.239415 135.830533 
L 313.607262 136.798463 
L 312.336925 138.008248 
L 309.853203 140.196057 
L 309.22569 141.089266 
L 308.58797 141.629946 
L 306.108887 143.19886 
L 304.881395 144.9152 
L 304.248662 145.511633 
L 303.013355 146.283402 
L 301.782455 147.102416 
L 300.516062 148.401351 
L 299.242709 149.323012 
L 297.984435 150.731459 
L 297.352283 151.526362 
L 296.114191 152.472632 
L 294.87378 153.211589 
L 293.608083 154.478666 
L 292.97941 155.234733 
L 291.731112 156.219582 
L 291.119373 156.468101 
L 289.856489 157.361758 
L 287.972906 159.163747 
L 287.337506 159.463726 
L 283.00059 163.212727 
L 282.36635 163.467014 
L 279.919629 165.578578 
L 279.287708 166.185586 
L 278.662631 166.630972 
L 278.037322 167.293989 
L 277.427672 167.710474 
L 276.181693 168.370543 
L 274.946139 169.418972 
L 273.701784 170.260944 
L 271.189528 172.314721 
L 269.333435 173.408377 
L 268.717985 173.846522 
L 268.086761 174.464167 
L 267.458784 175.265094 
L 266.820831 175.747842 
L 265.591091 176.230998 
L 263.693242 177.616278 
L 263.063641 178.390033 
L 262.45283 178.747656 
L 261.838772 178.780299 
L 261.206156 179.182861 
L 260.58363 179.972701 
L 258.076464 181.734726 
L 257.464957 182.011987 
L 256.855075 182.450773 
L 255.623479 183.518867 
L 253.743956 184.572543 
L 251.884499 186.197466 
L 250.020983 187.260114 
L 249.4111 187.690024 
L 248.142619 188.405558 
L 247.507219 188.791474 
L 246.893857 189.021233 
L 245.036836 190.16453 
L 244.399652 190.432331 
L 243.14625 191.258828 
L 242.529408 191.987467 
L 241.275078 192.813451 
L 240.666356 193.100901 
L 240.055545 193.513797 
L 239.444735 193.765937 
L 237.585858 194.975306 
L 236.967161 195.076647 
L 235.736261 195.740121 
L 234.489354 196.600806 
L 232.583385 198.096103 
L 231.974663 198.426266 
L 231.360141 198.94599 
L 229.471237 199.846596 
L 228.230477 200.692959 
L 227.618855 201.440952 
L 227.000506 202.016334 
L 226.362321 202.260848 
L 224.496485 202.626521 
L 223.256886 203.836691 
L 221.999772 204.702299 
L 220.766088 204.937404 
L 218.886913 206.244021 
L 218.267287 206.588987 
L 217.636527 206.746074 
L 216.382429 207.391083 
L 214.524712 208.694079 
L 213.278211 209.390733 
L 212.055431 210.378081 
L 210.780918 210.806277 
L 210.143198 210.93479 
L 209.508261 211.190743 
L 208.874253 211.620941 
L 208.240012 212.27332 
L 206.968747 212.793397 
L 205.710706 213.834128 
L 204.459623 214.44905 
L 202.591003 214.935762 
L 201.961866 215.446259 
L 199.448915 216.702553 
L 198.839279 216.908494 
L 197.610235 217.79209 
L 195.754374 218.644476 
L 193.882042 220.07366 
L 190.74041 221.085801 
L 189.494315 222.084236 
L 187.639846 222.58993 
L 187.018133 222.719659 
L 184.510168 224.423919 
L 182.655315 225.065891 
L 181.408176 225.437533 
L 179.535381 226.706507 
L 178.922947 227.104599 
L 176.449084 227.873047 
L 175.815075 228.245858 
L 174.547058 229.225003 
L 173.936944 229.390838 
L 172.716715 229.514204 
L 172.107297 229.803545 
L 171.498806 229.944845 
L 168.970196 231.12987 
L 168.337311 231.101127 
L 166.455932 231.937957 
L 165.819603 232.001657 
L 165.189307 232.478957 
L 163.924769 232.794885 
L 163.292385 233.00697 
L 161.398478 234.045589 
L 159.557696 234.401091 
L 158.944798 234.350547 
L 158.311022 234.89802 
L 157.678173 235.291434 
L 156.449129 235.619199 
L 155.829503 235.898607 
L 155.208718 235.905207 
L 152.698608 236.760229 
L 151.429895 236.98621 
L 149.558259 237.589563 
L 147.705414 237.557216 
L 147.078945 237.836239 
L 146.461523 238.347376 
L 145.837374 238.671002 
L 144.580956 238.825342 
L 143.965042 238.776304 
L 143.329178 238.951479 
L 142.069744 239.664033 
L 140.839772 239.853891 
L 139.58637 239.851466 
L 138.955377 239.855756 
L 137.700257 240.356457 
L 137.064392 240.509186 
L 136.42644 240.525467 
L 135.788952 240.746523 
L 135.179765 240.615703 
L 132.718662 240.858342 
L 132.107156 241.173381 
L 131.496345 241.31329 
L 130.858857 241.177815 
L 129.60116 241.307363 
L 128.968543 241.629003 
L 127.122425 241.744246 
L 126.510223 241.938462 
L 125.877606 241.809452 
L 124.626988 242.19399 
L 124.015714 242.374636 
L 122.147119 242.375182 
L 121.538861 242.724891 
L 120.277803 242.963582 
L 119.645186 243.197897 
L 119.036232 243.210485 
L 118.427046 243.089889 
L 117.162044 243.307518 
L 115.297832 243.953256 
L 114.672175 243.839173 
L 113.437099 243.886662 
L 112.799379 244.139794 
L 112.164211 244.186898 
L 111.527882 244.485339 
L 106.024638 245.238602 
L 104.79861 245.109908 
L 104.163905 244.933989 
L 103.54312 244.982568 
L 102.308856 245.582975 
L 101.698278 245.645845 
L 100.459491 245.533265 
L 99.847985 245.520533 
L 97.975999 246.24 
L 97.356141 246.18082 
L 96.099027 245.392774 
L 94.864532 245.505529 
L 93.016558 245.95508 
L 91.131462 245.793384 
L 90.511836 245.890396 
L 89.899634 245.866489 
L 89.26145 245.702524 
L 88.01176 245.691014 
L 86.771117 245.476816 
L 85.51841 245.366187 
L 84.27394 245.163053 
L 82.400913 244.558423 
L 80.521621 244.283893 
L 79.893876 244.055689 
L 79.278658 243.423432 
L 78.651377 242.47165 
L 78.030824 241.885663 
L 77.422333 241.582672 
L 76.796688 241.55139 
L 76.178222 241.893569 
L 75.541198 241.517207 
L 74.30937 241.142771 
L 73.696936 240.890599 
L 73.08775 241.213376 
L 72.469284 241.345245 
L 71.844555 240.83587 
L 71.213562 240.48017 
L 70.593936 239.898412 
L 69.978138 239.618171 
L 69.218182 241.045718 
L 69.21839 241.03178 
" clip-path="url(#p748931f661)" style="fill: none; stroke: #ff0000; stroke-width: 1.5; stroke-linecap: square"/>
   </g>
   <g id="line2d_16">
    <path d="M 69.354346 240.762451 
L 69.354346 240.815518 
L 69.355974 240.086847 
L 69.354864 240.360235 
L 69.982255 236.62001 
L 70.630879 230.590951 
L 71.277878 229.506803 
L 71.945524 229.401336 
L 72.636369 228.239615 
L 73.313758 226.704665 
L 73.941967 225.618819 
L 74.635131 240.022987 
L 75.387683 239.967233 
L 78.15106 239.253077 
L 78.910107 239.241798 
L 80.489445 239.976974 
L 81.300456 239.87854 
L 81.914746 239.281787 
L 83.776794 238.513991 
L 84.398508 238.583732 
L 86.246946 241.340899 
L 87.053318 241.83281 
L 87.849482 241.656162 
L 88.634512 241.32805 
L 89.413045 241.351248 
L 90.183228 241.810605 
L 90.941347 242.560136 
L 92.418612 244.381158 
L 93.131263 244.765665 
L 93.823499 244.653068 
L 94.498104 244.096303 
L 95.156007 243.308834 
L 95.799991 242.316295 
L 98.286845 237.786298 
L 98.899279 237.040868 
L 99.512641 236.555365 
L 100.127857 236.330813 
L 101.968871 236.044997 
L 103.804318 235.526426 
L 105.02733 235.260604 
L 106.247559 235.047715 
L 111.721421 233.466241 
L 113.998563 233.15902 
L 117.757609 231.934496 
L 119.247865 231.406953 
L 119.99021 231.182401 
L 122.955876 229.689491 
L 125.189405 228.93714 
L 126.685229 228.498034 
L 129.692651 227.561633 
L 131.202394 227.217756 
L 132.713993 226.87311 
L 135.744614 225.81905 
L 139.240128 224.742945 
L 144.128466 222.684298 
L 145.975048 221.947071 
L 147.21198 221.694835 
L 148.449839 221.522256 
L 149.687698 221.10622 
L 155.235795 218.889669 
L 158.293326 217.718207 
L 163.308515 214.654578 
L 168.203348 212.641303 
L 169.429144 212.208862 
L 174.951259 209.265081 
L 176.183551 208.621417 
L 181.119213 205.704296 
L 182.973218 204.843769 
L 193.438419 199.227926 
L 195.877948 197.987252 
L 197.396042 196.884488 
L 199.671328 195.240851 
L 202.707517 193.469559 
L 205.739994 191.78337 
L 210.272006 189.103617 
L 211.778037 188.024949 
L 216.284068 185.591537 
L 220.008781 183.123519 
L 225.95032 178.191071 
L 228.948464 176.158314 
L 234.231172 172.47987 
L 235.743699 171.33866 
L 241.796604 167.080885 
L 243.305419 165.707941 
L 245.576993 163.668519 
L 247.405944 162.360685 
L 249.246958 161.17538 
L 251.708758 159.837811 
L 253.552556 158.673526 
L 255.390786 157.371843 
L 260.851657 152.91926 
L 267.505847 146.496466 
L 270.573585 144.20122 
L 273.040025 142.475043 
L 277.342838 139.315938 
L 279.779584 136.88996 
L 282.974449 133.871329 
L 286.644414 130.322079 
L 289.726071 128.073486 
L 294.648743 124.24329 
L 297.097551 121.952658 
L 298.319636 120.614576 
L 301.369743 117.820496 
L 305.04342 113.70269 
L 308.140852 111.019861 
L 311.246636 108.326266 
L 312.487279 107.349107 
L 313.722557 106.37754 
L 317.401802 102.875969 
L 319.674304 100.726322 
L 325.645537 94.29635 
L 333.05599 86.332455 
L 343.559235 75.859015 
L 345.824314 73.363825 
L 346.579649 72.733235 
L 348.091248 70.913238 
L 350.366534 68.31295 
L 352.495206 65.91467 
L 354.933808 62.907758 
L 357.375193 60.296535 
L 357.983915 59.558796 
L 359.498298 58.206359 
L 360.247138 57.662026 
L 361.721619 55.888426 
L 367.131454 49.516131 
L 369.772808 46.766737 
L 370.44927 46.216059 
L 371.081654 45.518565 
L 371.730046 45.132777 
L 372.349555 45.581368 
L 372.96286 45.410519 
L 373.30341 44.64 
L 373.581818 46.220209 
L 373.419517 55.484072 
L 373.416966 55.459128 
L 373.418937 70.170148 
L 373.41914 72.739099 
L 373.416792 70.105647 
L 373.415922 72.36624 
L 372.80227 73.322539 
L 372.180034 75.893733 
L 371.545098 77.870913 
L 370.92292 77.249294 
L 370.313966 76.880745 
L 369.666038 76.83446 
L 369.052908 77.0593 
L 368.438067 77.005357 
L 367.185825 77.271435 
L 366.549497 78.26814 
L 365.92152 80.475719 
L 364.66719 83.858862 
L 364.029469 83.636265 
L 363.418659 82.970812 
L 362.784883 82.772679 
L 362.159225 83.140139 
L 361.520345 83.816871 
L 360.897008 84.170248 
L 360.274483 86.089223 
L 359.641982 88.530069 
L 359.015513 89.164889 
L 358.405167 89.617517 
L 357.177747 90.08756 
L 356.553249 90.798 
L 355.313302 92.765134 
L 354.70052 93.611945 
L 352.811253 95.581387 
L 352.200211 96.496255 
L 351.569682 97.191699 
L 350.929613 97.718537 
L 350.321123 98.584702 
L 349.068649 99.238106 
L 348.437424 99.996545 
L 347.803647 101.226452 
L 346.571704 102.779858 
L 344.677797 104.39299 
L 342.179693 107.309086 
L 341.551252 107.739349 
L 339.661985 110.011653 
L 339.026121 110.863591 
L 335.939012 114.001579 
L 334.708112 115.50282 
L 328.467779 121.658062 
L 327.842586 122.219954 
L 326.59452 123.820141 
L 325.958887 124.256491 
L 324.709197 125.703004 
L 323.481313 126.818778 
L 322.255052 128.42768 
L 319.163014 131.215175 
L 317.936754 132.61747 
L 317.327103 133.15988 
L 316.715365 133.46364 
L 315.488177 134.35185 
L 314.239415 135.830533 
L 313.607262 136.798463 
L 312.336925 138.008248 
L 309.853203 140.196057 
L 309.22569 141.089266 
L 308.58797 141.629946 
L 306.108887 143.19886 
L 304.881395 144.9152 
L 304.248662 145.511633 
L 303.013355 146.283402 
L 301.782455 147.102416 
L 300.516062 148.401351 
L 299.242709 149.323012 
L 297.984435 150.731459 
L 297.352283 151.526362 
L 296.114191 152.472632 
L 294.87378 153.211589 
L 293.608083 154.478666 
L 292.97941 155.234733 
L 291.731112 156.219582 
L 291.119373 156.468101 
L 289.856489 157.361758 
L 287.972906 159.163747 
L 287.337506 159.463726 
L 283.00059 163.212727 
L 282.36635 163.467014 
L 279.919629 165.578578 
L 279.287708 166.185586 
L 278.662631 166.630972 
L 278.037322 167.293989 
L 277.427672 167.710474 
L 276.181693 168.370543 
L 274.946139 169.418972 
L 273.701784 170.260944 
L 271.189528 172.314721 
L 269.333435 173.408377 
L 268.717985 173.846522 
L 268.086761 174.464167 
L 267.458784 175.265094 
L 266.820831 175.747842 
L 265.591091 176.230998 
L 263.693242 177.616278 
L 263.063641 178.390033 
L 262.45283 178.747656 
L 261.838772 178.780299 
L 261.206156 179.182861 
L 260.58363 179.972701 
L 258.076464 181.734726 
L 257.464957 182.011987 
L 256.855075 182.450773 
L 255.623479 183.518867 
L 253.743956 184.572543 
L 251.884499 186.197466 
L 250.020983 187.260114 
L 249.4111 187.690024 
L 248.142619 188.405558 
L 247.507219 188.791474 
L 246.893857 189.021233 
L 245.036836 190.16453 
L 244.399652 190.432331 
L 243.14625 191.258828 
L 242.529408 191.987467 
L 241.275078 192.813451 
L 240.666356 193.100901 
L 240.055545 193.513797 
L 239.444735 193.765937 
L 237.585858 194.975306 
L 236.967161 195.076647 
L 235.736261 195.740121 
L 234.489354 196.600806 
L 232.583385 198.096103 
L 231.974663 198.426266 
L 231.360141 198.94599 
L 229.471237 199.846596 
L 228.230477 200.692959 
L 227.618855 201.440952 
L 227.000506 202.016334 
L 226.362321 202.260848 
L 224.496485 202.626521 
L 223.256886 203.836691 
L 221.999772 204.702299 
L 220.766088 204.937404 
L 218.886913 206.244021 
L 218.267287 206.588987 
L 217.636527 206.746074 
L 216.382429 207.391083 
L 214.524712 208.694079 
L 213.278211 209.390733 
L 212.055431 210.378081 
L 210.780918 210.806277 
L 210.143198 210.93479 
L 209.508261 211.190743 
L 208.874253 211.620941 
L 208.240012 212.27332 
L 206.968747 212.793397 
L 205.710706 213.834128 
L 204.459623 214.44905 
L 202.591003 214.935762 
L 201.961866 215.446259 
L 199.448915 216.702553 
L 198.839279 216.908494 
L 197.610235 217.79209 
L 195.754374 218.644476 
L 193.882042 220.07366 
L 190.74041 221.085801 
L 189.494315 222.084236 
L 187.639846 222.58993 
L 187.018133 222.719659 
L 184.510168 224.423919 
L 182.655315 225.065891 
L 181.408176 225.437533 
L 179.535381 226.706507 
L 178.922947 227.104599 
L 176.449084 227.873047 
L 175.815075 228.245858 
L 174.547058 229.225003 
L 173.936944 229.390838 
L 172.716715 229.514204 
L 172.107297 229.803545 
L 171.498806 229.944845 
L 168.970196 231.12987 
L 168.337311 231.101127 
L 166.455932 231.937957 
L 165.819603 232.001657 
L 165.189307 232.478957 
L 163.924769 232.794885 
L 163.292385 233.00697 
L 161.398478 234.045589 
L 159.557696 234.401091 
L 158.944798 234.350547 
L 158.311022 234.89802 
L 157.678173 235.291434 
L 156.449129 235.619199 
L 155.829503 235.898607 
L 155.208718 235.905207 
L 152.698608 236.760229 
L 151.429895 236.98621 
L 149.558259 237.589563 
L 147.705414 237.557216 
L 147.078945 237.836239 
L 146.461523 238.347376 
L 145.837374 238.671002 
L 144.580956 238.825342 
L 143.965042 238.776304 
L 143.329178 238.951479 
L 142.069744 239.664033 
L 140.839772 239.853891 
L 139.58637 239.851466 
L 138.955377 239.855756 
L 137.700257 240.356457 
L 137.064392 240.509186 
L 136.42644 240.525467 
L 135.788952 240.746523 
L 135.179765 240.615703 
L 132.718662 240.858342 
L 132.107156 241.173381 
L 131.496345 241.31329 
L 130.858857 241.177815 
L 129.60116 241.307363 
L 128.968543 241.629003 
L 127.122425 241.744246 
L 126.510223 241.938462 
L 125.877606 241.809452 
L 124.626988 242.19399 
L 124.015714 242.374636 
L 122.147119 242.375182 
L 121.538861 242.724891 
L 120.277803 242.963582 
L 119.645186 243.197897 
L 119.036232 243.210485 
L 118.427046 243.089889 
L 117.162044 243.307518 
L 115.297832 243.953256 
L 114.672175 243.839173 
L 113.437099 243.886662 
L 112.799379 244.139794 
L 112.164211 244.186898 
L 111.527882 244.485339 
L 106.024638 245.238602 
L 104.79861 245.109908 
L 104.163905 244.933989 
L 103.54312 244.982568 
L 102.308856 245.582975 
L 101.698278 245.645845 
L 100.459491 245.533265 
L 99.847985 245.520533 
L 97.975999 246.24 
L 97.356141 246.18082 
L 96.099027 245.392774 
L 94.864532 245.505529 
L 93.016558 245.95508 
L 91.131462 245.793384 
L 90.511836 245.890396 
L 89.899634 245.866489 
L 89.26145 245.702524 
L 88.01176 245.691014 
L 86.771117 245.476816 
L 85.51841 245.366187 
L 84.27394 245.163053 
L 82.400913 244.558423 
L 80.521621 244.283893 
L 79.893876 244.055689 
L 79.278658 243.423432 
L 78.651377 242.47165 
L 78.030824 241.885663 
L 77.422333 241.582672 
L 76.796688 241.55139 
L 76.178222 241.893569 
L 75.541198 241.517207 
L 74.30937 241.142771 
L 73.696936 240.890599 
L 73.08775 241.213376 
L 72.469284 241.345245 
L 71.844555 240.83587 
L 71.213562 240.48017 
L 70.593936 239.898412 
L 69.978138 239.618171 
L 69.218182 241.045718 
L 69.21839 241.03178 
" clip-path="url(#p748931f661)" style="fill: none; stroke: #000000; stroke-width: 1.5; stroke-linecap: square"/>
   </g>
   <g id="patch_3">
    <path d="M 54 256.32 
L 54 34.56 
" style="fill: none; stroke: #000000; stroke-width: 0.8; stroke-linejoin: miter; stroke-linecap: square"/>
   </g>
   <g id="patch_4">
    <path d="M 388.8 256.32 
L 388.8 34.56 
" style="fill: none; stroke: #000000; stroke-width: 0.8; stroke-linejoin: miter; stroke-linecap: square"/>
   </g>
   <g id="patch_5">
    <path d="M 54 256.32 
L 388.8 256.32 
" style="fill: none; stroke: #000000; stroke-width: 0.8; stroke-linejoin: miter; stroke-linecap: square"/>
   </g>
   <g id="patch_6">
    <path d="M 54 34.56 
L 388.8 34.56 
" style="fill: none; stroke: #000000; stroke-width: 0.8; stroke-linejoin: miter; stroke-linecap: square"/>
   </g>
   <g id="text_17">
    <!-- 2025-06-20 trial 8 -->
    <g transform="translate(167.07 28.56) scale(0.12 -0.12)">
     <defs>
      <path id="DejaVuSans-2d" d="M 313 2009 
L 1997 2009 
L 1997 1497 
L 313 1497 
L 313 2009 
z
" transform="scale(0.015625)"/>
      <path id="DejaVuSans-6c" d="M 603 4863 
L 1178 4863 
L 1178 0 
L 603 0 
L 603 4863 
z
" transform="scale(0.015625)"/>
     </defs>
     <use xlink:href="#DejaVuSans-32"/>
     <use xlink:href="#DejaVuSans-30" x="63.623047"/>
     <use xlink:href="#DejaVuSans-32" x="127.246094"/>
     <use xlink:href="#DejaVuSans-35" x="190.869141"/>
     <use xlink:href="#DejaVuSans-2d" x="254.492188"/>
     <use xlink:href="#DejaVuSans-30" x="290.576172"/>
     <use xlink:href="#DejaVuSans-36" x="354.199219"/>
     <use xlink:href="#DejaVuSans-2d" x="417.822266"/>
     <use xlink:href="#DejaVuSans-32" x="453.90625"/>
     <use xlink:href="#DejaVuSans-30" x="517.529297"/>
     <use xlink:href="#DejaVuSans-20" x="581.152344"/>
     <use xlink:href="#DejaVuSans-74" x="612.939453"/>
     <use xlink:href="#DejaVuSans-72" x="652.148438"/>
     <use xlink:href="#DejaVuSans-69" x="693.261719"/>
     <use xlink:href="#DejaVuSans-61" x="721.044922"/>
     <use xlink:href="#DejaVuSans-6c" x="782.324219"/>
     <use xlink:href="#DejaVuSans-20" x="810.107422"/>
     <use xlink:href="#DejaVuSans-38" x="841.894531"/>
    </g>
   </g>
  </g>
 </g>
 <defs>
  <clipPath id="p748931f661">
   <rect x="54" y="34.56" width="334.8" height="221.76"/>
  </clipPath>
 </defs>
</svg>
