<?xml version="1.0" encoding="utf-8" standalone="no"?>
<!DOCTYPE svg PUBLIC "-//W3C//DTD SVG 1.1//EN"
  "http://www.w3.org/Graphics/SVG/1.1/DTD/svg11.dtd">
<svg xmlns:xlink="http://www.w3.org/1999/xlink" width="460.8pt" height="345.6pt" viewBox="0 0 460.8 345.6" xmlns="http://www.w3.org/2000/svg" version="1.1">
 <metadata>
  <rdf:RDF xmlns:dc="http://purl.org/dc/elements/1.1/" xmlns:cc="http://creativecommons.org/ns#" xmlns:rdf="http://www.w3.org/1999/02/22-rdf-syntax-ns#">
   <cc:Work>
    <dc:type rdf:resource="http://purl.org/dc/dcmitype/StillImage"/>
    <dc:date>2025-07-14T21:34:58.968343</dc:date>
    <dc:format>image/svg+xml</dc:format>
    <dc:creator>
     <cc:Agent>
      <dc:title>Matplotlib v3.10.3, https://matplotlib.org/</dc:title>
     </cc:Agent>
    </dc:creator>
   </cc:Work>
  </rdf:RDF>
 </metadata>
 <defs>
  <style type="text/css">*{stroke-linejoin: round; stroke-linecap: butt}</style>
 </defs>
 <g id="figure_1">
  <g id="patch_1">
   <path d="M 0 345.6 
L 460.8 345.6 
L 460.8 0 
L 0 0 
z
" style="fill: #ffffff"/>
  </g>
  <g id="axes_1">
   <g id="patch_2">
    <path d="M 57.6 307.584 
L 414.72 307.584 
L 414.72 41.472 
L 57.6 41.472 
z
" style="fill: #ffffff"/>
   </g>
   <g id="matplotlib.axis_1">
    <g id="xtick_1">
     <g id="line2d_1">
      <defs>
       <path id="ma4beadd30e" d="M 0 0 
L 0 3.5 
" style="stroke: #000000; stroke-width: 0.8"/>
      </defs>
      <g>
       <use xlink:href="#ma4beadd30e" x="74.047819" y="307.584" style="stroke: #000000; stroke-width: 0.8"/>
      </g>
     </g>
     <g id="text_1">
      <!-- 0.00 -->
      <g transform="translate(62.915006 322.182437) scale(0.1 -0.1)">
       <defs>
        <path id="DejaVuSans-30" d="M 2034 4250 
Q 1547 4250 1301 3770 
Q 1056 3291 1056 2328 
Q 1056 1369 1301 889 
Q 1547 409 2034 409 
Q 2525 409 2770 889 
Q 3016 1369 3016 2328 
Q 3016 3291 2770 3770 
Q 2525 4250 2034 4250 
z
M 2034 4750 
Q 2819 4750 3233 4129 
Q 3647 3509 3647 2328 
Q 3647 1150 3233 529 
Q 2819 -91 2034 -91 
Q 1250 -91 836 529 
Q 422 1150 422 2328 
Q 422 3509 836 4129 
Q 1250 4750 2034 4750 
z
" transform="scale(0.015625)"/>
        <path id="DejaVuSans-2e" d="M 684 794 
L 1344 794 
L 1344 0 
L 684 0 
L 684 794 
z
" transform="scale(0.015625)"/>
       </defs>
       <use xlink:href="#DejaVuSans-30"/>
       <use xlink:href="#DejaVuSans-2e" transform="translate(63.623047 0)"/>
       <use xlink:href="#DejaVuSans-30" transform="translate(95.410156 0)"/>
       <use xlink:href="#DejaVuSans-30" transform="translate(159.033203 0)"/>
      </g>
     </g>
    </g>
    <g id="xtick_2">
     <g id="line2d_2">
      <g>
       <use xlink:href="#ma4beadd30e" x="134.542082" y="307.584" style="stroke: #000000; stroke-width: 0.8"/>
      </g>
     </g>
     <g id="text_2">
      <!-- 0.02 -->
      <g transform="translate(123.409269 322.182437) scale(0.1 -0.1)">
       <defs>
        <path id="DejaVuSans-32" d="M 1228 531 
L 3431 531 
L 3431 0 
L 469 0 
L 469 531 
Q 828 903 1448 1529 
Q 2069 2156 2228 2338 
Q 2531 2678 2651 2914 
Q 2772 3150 2772 3378 
Q 2772 3750 2511 3984 
Q 2250 4219 1831 4219 
Q 1534 4219 1204 4116 
Q 875 4013 500 3803 
L 500 4441 
Q 881 4594 1212 4672 
Q 1544 4750 1819 4750 
Q 2544 4750 2975 4387 
Q 3406 4025 3406 3419 
Q 3406 3131 3298 2873 
Q 3191 2616 2906 2266 
Q 2828 2175 2409 1742 
Q 1991 1309 1228 531 
z
" transform="scale(0.015625)"/>
       </defs>
       <use xlink:href="#DejaVuSans-30"/>
       <use xlink:href="#DejaVuSans-2e" transform="translate(63.623047 0)"/>
       <use xlink:href="#DejaVuSans-30" transform="translate(95.410156 0)"/>
       <use xlink:href="#DejaVuSans-32" transform="translate(159.033203 0)"/>
      </g>
     </g>
    </g>
    <g id="xtick_3">
     <g id="line2d_3">
      <g>
       <use xlink:href="#ma4beadd30e" x="195.036344" y="307.584" style="stroke: #000000; stroke-width: 0.8"/>
      </g>
     </g>
     <g id="text_3">
      <!-- 0.04 -->
      <g transform="translate(183.903532 322.182437) scale(0.1 -0.1)">
       <defs>
        <path id="DejaVuSans-34" d="M 2419 4116 
L 825 1625 
L 2419 1625 
L 2419 4116 
z
M 2253 4666 
L 3047 4666 
L 3047 1625 
L 3713 1625 
L 3713 1100 
L 3047 1100 
L 3047 0 
L 2419 0 
L 2419 1100 
L 313 1100 
L 313 1709 
L 2253 4666 
z
" transform="scale(0.015625)"/>
       </defs>
       <use xlink:href="#DejaVuSans-30"/>
       <use xlink:href="#DejaVuSans-2e" transform="translate(63.623047 0)"/>
       <use xlink:href="#DejaVuSans-30" transform="translate(95.410156 0)"/>
       <use xlink:href="#DejaVuSans-34" transform="translate(159.033203 0)"/>
      </g>
     </g>
    </g>
    <g id="xtick_4">
     <g id="line2d_4">
      <g>
       <use xlink:href="#ma4beadd30e" x="255.530607" y="307.584" style="stroke: #000000; stroke-width: 0.8"/>
      </g>
     </g>
     <g id="text_4">
      <!-- 0.06 -->
      <g transform="translate(244.397795 322.182437) scale(0.1 -0.1)">
       <defs>
        <path id="DejaVuSans-36" d="M 2113 2584 
Q 1688 2584 1439 2293 
Q 1191 2003 1191 1497 
Q 1191 994 1439 701 
Q 1688 409 2113 409 
Q 2538 409 2786 701 
Q 3034 994 3034 1497 
Q 3034 2003 2786 2293 
Q 2538 2584 2113 2584 
z
M 3366 4563 
L 3366 3988 
Q 3128 4100 2886 4159 
Q 2644 4219 2406 4219 
Q 1781 4219 1451 3797 
Q 1122 3375 1075 2522 
Q 1259 2794 1537 2939 
Q 1816 3084 2150 3084 
Q 2853 3084 3261 2657 
Q 3669 2231 3669 1497 
Q 3669 778 3244 343 
Q 2819 -91 2113 -91 
Q 1303 -91 875 529 
Q 447 1150 447 2328 
Q 447 3434 972 4092 
Q 1497 4750 2381 4750 
Q 2619 4750 2861 4703 
Q 3103 4656 3366 4563 
z
" transform="scale(0.015625)"/>
       </defs>
       <use xlink:href="#DejaVuSans-30"/>
       <use xlink:href="#DejaVuSans-2e" transform="translate(63.623047 0)"/>
       <use xlink:href="#DejaVuSans-30" transform="translate(95.410156 0)"/>
       <use xlink:href="#DejaVuSans-36" transform="translate(159.033203 0)"/>
      </g>
     </g>
    </g>
    <g id="xtick_5">
     <g id="line2d_5">
      <g>
       <use xlink:href="#ma4beadd30e" x="316.02487" y="307.584" style="stroke: #000000; stroke-width: 0.8"/>
      </g>
     </g>
     <g id="text_5">
      <!-- 0.08 -->
      <g transform="translate(304.892057 322.182437) scale(0.1 -0.1)">
       <defs>
        <path id="DejaVuSans-38" d="M 2034 2216 
Q 1584 2216 1326 1975 
Q 1069 1734 1069 1313 
Q 1069 891 1326 650 
Q 1584 409 2034 409 
Q 2484 409 2743 651 
Q 3003 894 3003 1313 
Q 3003 1734 2745 1975 
Q 2488 2216 2034 2216 
z
M 1403 2484 
Q 997 2584 770 2862 
Q 544 3141 544 3541 
Q 544 4100 942 4425 
Q 1341 4750 2034 4750 
Q 2731 4750 3128 4425 
Q 3525 4100 3525 3541 
Q 3525 3141 3298 2862 
Q 3072 2584 2669 2484 
Q 3125 2378 3379 2068 
Q 3634 1759 3634 1313 
Q 3634 634 3220 271 
Q 2806 -91 2034 -91 
Q 1263 -91 848 271 
Q 434 634 434 1313 
Q 434 1759 690 2068 
Q 947 2378 1403 2484 
z
M 1172 3481 
Q 1172 3119 1398 2916 
Q 1625 2713 2034 2713 
Q 2441 2713 2670 2916 
Q 2900 3119 2900 3481 
Q 2900 3844 2670 4047 
Q 2441 4250 2034 4250 
Q 1625 4250 1398 4047 
Q 1172 3844 1172 3481 
z
" transform="scale(0.015625)"/>
       </defs>
       <use xlink:href="#DejaVuSans-30"/>
       <use xlink:href="#DejaVuSans-2e" transform="translate(63.623047 0)"/>
       <use xlink:href="#DejaVuSans-30" transform="translate(95.410156 0)"/>
       <use xlink:href="#DejaVuSans-38" transform="translate(159.033203 0)"/>
      </g>
     </g>
    </g>
    <g id="xtick_6">
     <g id="line2d_6">
      <g>
       <use xlink:href="#ma4beadd30e" x="376.519132" y="307.584" style="stroke: #000000; stroke-width: 0.8"/>
      </g>
     </g>
     <g id="text_6">
      <!-- 0.10 -->
      <g transform="translate(365.38632 322.182437) scale(0.1 -0.1)">
       <defs>
        <path id="DejaVuSans-31" d="M 794 531 
L 1825 531 
L 1825 4091 
L 703 3866 
L 703 4441 
L 1819 4666 
L 2450 4666 
L 2450 531 
L 3481 531 
L 3481 0 
L 794 0 
L 794 531 
z
" transform="scale(0.015625)"/>
       </defs>
       <use xlink:href="#DejaVuSans-30"/>
       <use xlink:href="#DejaVuSans-2e" transform="translate(63.623047 0)"/>
       <use xlink:href="#DejaVuSans-31" transform="translate(95.410156 0)"/>
       <use xlink:href="#DejaVuSans-30" transform="translate(159.033203 0)"/>
      </g>
     </g>
    </g>
    <g id="text_7">
     <!-- Strain -->
     <g transform="translate(221.348281 335.860562) scale(0.1 -0.1)">
      <defs>
       <path id="DejaVuSans-53" d="M 3425 4513 
L 3425 3897 
Q 3066 4069 2747 4153 
Q 2428 4238 2131 4238 
Q 1616 4238 1336 4038 
Q 1056 3838 1056 3469 
Q 1056 3159 1242 3001 
Q 1428 2844 1947 2747 
L 2328 2669 
Q 3034 2534 3370 2195 
Q 3706 1856 3706 1288 
Q 3706 609 3251 259 
Q 2797 -91 1919 -91 
Q 1588 -91 1214 -16 
Q 841 59 441 206 
L 441 856 
Q 825 641 1194 531 
Q 1563 422 1919 422 
Q 2459 422 2753 634 
Q 3047 847 3047 1241 
Q 3047 1584 2836 1778 
Q 2625 1972 2144 2069 
L 1759 2144 
Q 1053 2284 737 2584 
Q 422 2884 422 3419 
Q 422 4038 858 4394 
Q 1294 4750 2059 4750 
Q 2388 4750 2728 4690 
Q 3069 4631 3425 4513 
z
" transform="scale(0.015625)"/>
       <path id="DejaVuSans-74" d="M 1172 4494 
L 1172 3500 
L 2356 3500 
L 2356 3053 
L 1172 3053 
L 1172 1153 
Q 1172 725 1289 603 
Q 1406 481 1766 481 
L 2356 481 
L 2356 0 
L 1766 0 
Q 1100 0 847 248 
Q 594 497 594 1153 
L 594 3053 
L 172 3053 
L 172 3500 
L 594 3500 
L 594 4494 
L 1172 4494 
z
" transform="scale(0.015625)"/>
       <path id="DejaVuSans-72" d="M 2631 2963 
Q 2534 3019 2420 3045 
Q 2306 3072 2169 3072 
Q 1681 3072 1420 2755 
Q 1159 2438 1159 1844 
L 1159 0 
L 581 0 
L 581 3500 
L 1159 3500 
L 1159 2956 
Q 1341 3275 1631 3429 
Q 1922 3584 2338 3584 
Q 2397 3584 2469 3576 
Q 2541 3569 2628 3553 
L 2631 2963 
z
" transform="scale(0.015625)"/>
       <path id="DejaVuSans-61" d="M 2194 1759 
Q 1497 1759 1228 1600 
Q 959 1441 959 1056 
Q 959 750 1161 570 
Q 1363 391 1709 391 
Q 2188 391 2477 730 
Q 2766 1069 2766 1631 
L 2766 1759 
L 2194 1759 
z
M 3341 1997 
L 3341 0 
L 2766 0 
L 2766 531 
Q 2569 213 2275 61 
Q 1981 -91 1556 -91 
Q 1019 -91 701 211 
Q 384 513 384 1019 
Q 384 1609 779 1909 
Q 1175 2209 1959 2209 
L 2766 2209 
L 2766 2266 
Q 2766 2663 2505 2880 
Q 2244 3097 1772 3097 
Q 1472 3097 1187 3025 
Q 903 2953 641 2809 
L 641 3341 
Q 956 3463 1253 3523 
Q 1550 3584 1831 3584 
Q 2591 3584 2966 3190 
Q 3341 2797 3341 1997 
z
" transform="scale(0.015625)"/>
       <path id="DejaVuSans-69" d="M 603 3500 
L 1178 3500 
L 1178 0 
L 603 0 
L 603 3500 
z
M 603 4863 
L 1178 4863 
L 1178 4134 
L 603 4134 
L 603 4863 
z
" transform="scale(0.015625)"/>
       <path id="DejaVuSans-6e" d="M 3513 2113 
L 3513 0 
L 2938 0 
L 2938 2094 
Q 2938 2591 2744 2837 
Q 2550 3084 2163 3084 
Q 1697 3084 1428 2787 
Q 1159 2491 1159 1978 
L 1159 0 
L 581 0 
L 581 3500 
L 1159 3500 
L 1159 2956 
Q 1366 3272 1645 3428 
Q 1925 3584 2291 3584 
Q 2894 3584 3203 3211 
Q 3513 2838 3513 2113 
z
" transform="scale(0.015625)"/>
      </defs>
      <use xlink:href="#DejaVuSans-53"/>
      <use xlink:href="#DejaVuSans-74" transform="translate(63.476562 0)"/>
      <use xlink:href="#DejaVuSans-72" transform="translate(102.685547 0)"/>
      <use xlink:href="#DejaVuSans-61" transform="translate(143.798828 0)"/>
      <use xlink:href="#DejaVuSans-69" transform="translate(205.078125 0)"/>
      <use xlink:href="#DejaVuSans-6e" transform="translate(232.861328 0)"/>
     </g>
    </g>
   </g>
   <g id="matplotlib.axis_2">
    <g id="ytick_1">
     <g id="line2d_7">
      <defs>
       <path id="m8d66654321" d="M 0 0 
L -3.5 0 
" style="stroke: #000000; stroke-width: 0.8"/>
      </defs>
      <g>
       <use xlink:href="#m8d66654321" x="57.6" y="297.86829" style="stroke: #000000; stroke-width: 0.8"/>
      </g>
     </g>
     <g id="text_8">
      <!-- −200 -->
      <g transform="translate(23.132812 301.667508) scale(0.1 -0.1)">
       <defs>
        <path id="DejaVuSans-2212" d="M 678 2272 
L 4684 2272 
L 4684 1741 
L 678 1741 
L 678 2272 
z
" transform="scale(0.015625)"/>
       </defs>
       <use xlink:href="#DejaVuSans-2212"/>
       <use xlink:href="#DejaVuSans-32" transform="translate(83.789062 0)"/>
       <use xlink:href="#DejaVuSans-30" transform="translate(147.412109 0)"/>
       <use xlink:href="#DejaVuSans-30" transform="translate(211.035156 0)"/>
      </g>
     </g>
    </g>
    <g id="ytick_2">
     <g id="line2d_8">
      <g>
       <use xlink:href="#m8d66654321" x="57.6" y="254.97094" style="stroke: #000000; stroke-width: 0.8"/>
      </g>
     </g>
     <g id="text_9">
      <!-- 0 -->
      <g transform="translate(44.2375 258.770159) scale(0.1 -0.1)">
       <use xlink:href="#DejaVuSans-30"/>
      </g>
     </g>
    </g>
    <g id="ytick_3">
     <g id="line2d_9">
      <g>
       <use xlink:href="#m8d66654321" x="57.6" y="212.073591" style="stroke: #000000; stroke-width: 0.8"/>
      </g>
     </g>
     <g id="text_10">
      <!-- 200 -->
      <g transform="translate(31.5125 215.872809) scale(0.1 -0.1)">
       <use xlink:href="#DejaVuSans-32"/>
       <use xlink:href="#DejaVuSans-30" transform="translate(63.623047 0)"/>
       <use xlink:href="#DejaVuSans-30" transform="translate(127.246094 0)"/>
      </g>
     </g>
    </g>
    <g id="ytick_4">
     <g id="line2d_10">
      <g>
       <use xlink:href="#m8d66654321" x="57.6" y="169.176241" style="stroke: #000000; stroke-width: 0.8"/>
      </g>
     </g>
     <g id="text_11">
      <!-- 400 -->
      <g transform="translate(31.5125 172.97546) scale(0.1 -0.1)">
       <use xlink:href="#DejaVuSans-34"/>
       <use xlink:href="#DejaVuSans-30" transform="translate(63.623047 0)"/>
       <use xlink:href="#DejaVuSans-30" transform="translate(127.246094 0)"/>
      </g>
     </g>
    </g>
    <g id="ytick_5">
     <g id="line2d_11">
      <g>
       <use xlink:href="#m8d66654321" x="57.6" y="126.278892" style="stroke: #000000; stroke-width: 0.8"/>
      </g>
     </g>
     <g id="text_12">
      <!-- 600 -->
      <g transform="translate(31.5125 130.078111) scale(0.1 -0.1)">
       <use xlink:href="#DejaVuSans-36"/>
       <use xlink:href="#DejaVuSans-30" transform="translate(63.623047 0)"/>
       <use xlink:href="#DejaVuSans-30" transform="translate(127.246094 0)"/>
      </g>
     </g>
    </g>
    <g id="ytick_6">
     <g id="line2d_12">
      <g>
       <use xlink:href="#m8d66654321" x="57.6" y="83.381542" style="stroke: #000000; stroke-width: 0.8"/>
      </g>
     </g>
     <g id="text_13">
      <!-- 800 -->
      <g transform="translate(31.5125 87.180761) scale(0.1 -0.1)">
       <use xlink:href="#DejaVuSans-38"/>
       <use xlink:href="#DejaVuSans-30" transform="translate(63.623047 0)"/>
       <use xlink:href="#DejaVuSans-30" transform="translate(127.246094 0)"/>
      </g>
     </g>
    </g>
    <g id="text_14">
     <!-- Stress [Pa] -->
     <g transform="translate(17.053125 201.235813) rotate(-90) scale(0.1 -0.1)">
      <defs>
       <path id="DejaVuSans-65" d="M 3597 1894 
L 3597 1613 
L 953 1613 
Q 991 1019 1311 708 
Q 1631 397 2203 397 
Q 2534 397 2845 478 
Q 3156 559 3463 722 
L 3463 178 
Q 3153 47 2828 -22 
Q 2503 -91 2169 -91 
Q 1331 -91 842 396 
Q 353 884 353 1716 
Q 353 2575 817 3079 
Q 1281 3584 2069 3584 
Q 2775 3584 3186 3129 
Q 3597 2675 3597 1894 
z
M 3022 2063 
Q 3016 2534 2758 2815 
Q 2500 3097 2075 3097 
Q 1594 3097 1305 2825 
Q 1016 2553 972 2059 
L 3022 2063 
z
" transform="scale(0.015625)"/>
       <path id="DejaVuSans-73" d="M 2834 3397 
L 2834 2853 
Q 2591 2978 2328 3040 
Q 2066 3103 1784 3103 
Q 1356 3103 1142 2972 
Q 928 2841 928 2578 
Q 928 2378 1081 2264 
Q 1234 2150 1697 2047 
L 1894 2003 
Q 2506 1872 2764 1633 
Q 3022 1394 3022 966 
Q 3022 478 2636 193 
Q 2250 -91 1575 -91 
Q 1294 -91 989 -36 
Q 684 19 347 128 
L 347 722 
Q 666 556 975 473 
Q 1284 391 1588 391 
Q 1994 391 2212 530 
Q 2431 669 2431 922 
Q 2431 1156 2273 1281 
Q 2116 1406 1581 1522 
L 1381 1569 
Q 847 1681 609 1914 
Q 372 2147 372 2553 
Q 372 3047 722 3315 
Q 1072 3584 1716 3584 
Q 2034 3584 2315 3537 
Q 2597 3491 2834 3397 
z
" transform="scale(0.015625)"/>
       <path id="DejaVuSans-20" transform="scale(0.015625)"/>
       <path id="DejaVuSans-5b" d="M 550 4863 
L 1875 4863 
L 1875 4416 
L 1125 4416 
L 1125 -397 
L 1875 -397 
L 1875 -844 
L 550 -844 
L 550 4863 
z
" transform="scale(0.015625)"/>
       <path id="DejaVuSans-50" d="M 1259 4147 
L 1259 2394 
L 2053 2394 
Q 2494 2394 2734 2622 
Q 2975 2850 2975 3272 
Q 2975 3691 2734 3919 
Q 2494 4147 2053 4147 
L 1259 4147 
z
M 628 4666 
L 2053 4666 
Q 2838 4666 3239 4311 
Q 3641 3956 3641 3272 
Q 3641 2581 3239 2228 
Q 2838 1875 2053 1875 
L 1259 1875 
L 1259 0 
L 628 0 
L 628 4666 
z
" transform="scale(0.015625)"/>
       <path id="DejaVuSans-5d" d="M 1947 4863 
L 1947 -844 
L 622 -844 
L 622 -397 
L 1369 -397 
L 1369 4416 
L 622 4416 
L 622 4863 
L 1947 4863 
z
" transform="scale(0.015625)"/>
      </defs>
      <use xlink:href="#DejaVuSans-53"/>
      <use xlink:href="#DejaVuSans-74" transform="translate(63.476562 0)"/>
      <use xlink:href="#DejaVuSans-72" transform="translate(102.685547 0)"/>
      <use xlink:href="#DejaVuSans-65" transform="translate(141.548828 0)"/>
      <use xlink:href="#DejaVuSans-73" transform="translate(203.072266 0)"/>
      <use xlink:href="#DejaVuSans-73" transform="translate(255.171875 0)"/>
      <use xlink:href="#DejaVuSans-20" transform="translate(307.271484 0)"/>
      <use xlink:href="#DejaVuSans-5b" transform="translate(339.058594 0)"/>
      <use xlink:href="#DejaVuSans-50" transform="translate(378.072266 0)"/>
      <use xlink:href="#DejaVuSans-61" transform="translate(433.875 0)"/>
      <use xlink:href="#DejaVuSans-5d" transform="translate(495.154297 0)"/>
     </g>
    </g>
   </g>
   <g id="line2d_13">
    <path d="M 74.047819 275.151964 
L 74.044786 275.046734 
L 74.048025 275.488843 
L 74.049261 275.314375 
L 74.701648 275.254143 
L 75.805725 273.946981 
L 76.91588 272.086134 
L 78.066626 270.587661 
L 79.150408 271.2408 
L 81.425938 271.423119 
L 82.526204 271.228579 
L 83.621936 271.387463 
L 84.765883 271.209002 
L 85.917247 271.533085 
L 87.008859 270.181704 
L 88.144151 268.3351 
L 89.267494 267.245178 
L 90.406907 266.439662 
L 92.608262 263.679251 
L 94.869622 264.342475 
L 95.96247 264.167349 
L 98.153111 263.230087 
L 99.259352 263.535657 
L 100.365387 260.826549 
L 101.466889 258.679261 
L 102.550671 257.973785 
L 103.647846 257.490091 
L 105.91225 257.311864 
L 108.102067 256.244211 
L 110.291677 254.535514 
L 112.492208 252.6975 
L 113.599891 252.034244 
L 114.709017 251.183173 
L 115.834419 250.118572 
L 116.926443 249.435139 
L 118.013934 249.020342 
L 119.114612 248.767418 
L 120.256498 248.171928 
L 121.35093 247.918257 
L 122.473036 247.276422 
L 124.668004 244.8861 
L 125.767033 243.995805 
L 126.854936 243.361995 
L 129.069066 242.562866 
L 130.202298 241.859877 
L 133.556047 239.422757 
L 138.99309 236.411059 
L 141.206807 234.877007 
L 142.335507 234.012711 
L 144.54634 232.864009 
L 146.783134 231.4725 
L 147.890405 230.821621 
L 150.118643 229.088983 
L 152.297745 227.823399 
L 156.715291 224.852056 
L 157.838221 224.100347 
L 160.04823 222.842449 
L 165.483624 219.257531 
L 173.275317 214.065086 
L 177.746317 211.541 
L 178.866775 210.851689 
L 181.079257 209.081272 
L 182.168801 208.484879 
L 185.456823 206.105408 
L 186.56121 205.474877 
L 188.75968 204.006388 
L 190.926008 202.665633 
L 192.056768 201.751034 
L 196.497802 198.984405 
L 198.709872 197.377896 
L 205.286392 193.098918 
L 206.36729 192.33421 
L 207.454368 191.783145 
L 210.705715 189.310643 
L 220.519918 182.815763 
L 223.775386 180.798696 
L 226.021658 179.032123 
L 227.142528 178.279509 
L 228.260925 177.372259 
L 229.387564 176.632192 
L 230.468693 176.06095 
L 238.339506 170.896086 
L 242.799084 167.43212 
L 243.894817 166.727548 
L 246.082573 165.617166 
L 250.498058 162.333836 
L 253.838415 160.268501 
L 254.943832 159.202544 
L 257.169848 157.605501 
L 258.252393 156.859444 
L 260.428199 155.762175 
L 263.743831 153.160809 
L 265.964142 151.458668 
L 268.179096 150.049863 
L 269.306559 149.099884 
L 273.738115 146.184383 
L 274.840029 145.517566 
L 277.020368 143.834189 
L 278.150716 142.676444 
L 281.44121 140.471732 
L 283.621189 139.255892 
L 285.856335 137.263467 
L 291.334804 133.425787 
L 293.541311 131.445344 
L 299.154313 127.665434 
L 301.370091 126.034734 
L 303.592051 124.834486 
L 304.706121 123.98805 
L 305.826579 122.936562 
L 310.237119 119.845285 
L 311.326052 119.142875 
L 315.761317 115.693491 
L 319.071591 113.420051 
L 330.236196 104.986553 
L 332.412826 103.646024 
L 334.616242 101.952926 
L 335.720628 101.063309 
L 336.822954 99.89426 
L 342.336335 95.969886 
L 345.608286 93.089992 
L 346.710199 92.353883 
L 347.814586 91.781905 
L 350.041078 90.201847 
L 353.379374 87.42041 
L 356.652973 85.349536 
L 358.883999 83.455907 
L 360.001572 82.413462 
L 361.123266 81.849397 
L 366.713346 77.533244 
L 368.879674 76.040225 
L 369.960983 75.349331 
L 374.309299 72.063741 
L 376.485517 70.167625 
L 380.833008 66.887912 
L 387.368255 61.465433 
L 388.457807 60.467525 
L 393.983988 56.675788 
L 397.251097 55.060405 
L 397.875096 54.248559 
L 398.487273 53.835345 
L 398.199792 55.607852 
L 398.125282 57.04592 
L 398.125334 74.922864 
L 398.122655 74.7201 
L 398.128708 74.684874 
L 398.126029 75.248034 
L 398.125875 74.903972 
L 398.117607 80.500658 
L 397.034649 80.870607 
L 395.945355 83.511338 
L 394.86281 85.634889 
L 393.780676 85.341044 
L 392.677526 84.801283 
L 390.458863 85.092584 
L 389.316977 85.467421 
L 388.186217 85.174128 
L 387.025787 85.741216 
L 385.892143 85.199703 
L 383.673068 89.8551 
L 382.546841 91.313754 
L 381.431741 93.239034 
L 380.329827 94.829266 
L 378.089736 93.972318 
L 376.953207 94.343171 
L 374.705286 95.563539 
L 373.583592 95.441132 
L 371.402429 100.897665 
L 370.277439 101.889695 
L 369.149151 102.516496 
L 366.913181 103.31636 
L 363.614471 105.662893 
L 360.298633 108.72738 
L 359.167049 109.654073 
L 356.936642 111.849516 
L 355.847091 112.796585 
L 354.755479 112.839483 
L 353.66634 113.091786 
L 350.3777 115.415754 
L 349.288766 117.259194 
L 348.156358 118.133211 
L 347.02189 118.551003 
L 344.805287 119.976877 
L 342.612586 122.450169 
L 341.514381 123.215443 
L 339.268109 124.291009 
L 338.139615 124.993207 
L 335.914436 127.347286 
L 331.470518 129.994772 
L 326.999813 133.925589 
L 323.689951 136.172691 
L 319.245208 139.693628 
L 318.147827 140.38407 
L 317.043853 140.912867 
L 314.841673 142.674466 
L 312.608382 144.514288 
L 310.384774 145.920493 
L 308.213398 147.344551 
L 307.093764 148.248411 
L 305.985669 149.414747 
L 304.861915 150.301764 
L 301.592025 152.136725 
L 296.119955 156.234501 
L 293.924781 157.683661 
L 292.836466 158.469734 
L 291.709003 159.467189 
L 288.333632 161.862824 
L 285.064566 163.806529 
L 283.944314 164.624819 
L 282.836438 165.788569 
L 281.715156 166.691072 
L 280.62849 167.191043 
L 279.542235 167.897763 
L 277.324396 169.551071 
L 274.042968 171.906577 
L 272.910972 172.512579 
L 267.380798 176.29995 
L 266.291247 176.92449 
L 265.168317 177.720963 
L 264.056925 178.684055 
L 258.499142 182.449157 
L 254.088589 185.324536 
L 250.809221 187.582263 
L 248.611574 188.832813 
L 247.484111 189.66365 
L 246.369217 190.657489 
L 245.248347 191.498498 
L 243.031745 192.910242 
L 240.839043 194.29723 
L 239.743311 194.863103 
L 237.500335 196.571232 
L 236.385235 197.174747 
L 234.182643 198.687321 
L 233.085674 199.324861 
L 231.982936 200.096239 
L 230.881434 201.031523 
L 228.695545 202.378259 
L 227.564786 203.219721 
L 224.177863 205.340671 
L 223.059466 206.163256 
L 216.425318 209.999121 
L 215.340712 210.797741 
L 214.216546 211.801075 
L 207.537481 216.10899 
L 205.313461 217.794853 
L 201.999478 219.899921 
L 197.568179 222.499899 
L 196.444425 223.434957 
L 195.363527 223.996422 
L 190.911779 226.986304 
L 189.78514 227.832288 
L 187.600268 228.855065 
L 185.398913 230.442584 
L 183.176541 232.049998 
L 179.839063 233.588345 
L 176.539708 236.312359 
L 175.43697 236.858563 
L 174.320112 237.23136 
L 173.227264 237.816111 
L 169.914723 240.578784 
L 166.622168 241.899701 
L 165.498002 242.490443 
L 164.400415 243.441552 
L 163.291496 244.564934 
L 162.199472 245.141093 
L 161.08808 245.464046 
L 159.991523 245.936549 
L 155.526794 249.052015 
L 154.426116 249.558656 
L 153.342334 250.194726 
L 151.112751 252.051165 
L 150.027321 252.531016 
L 148.927467 253.201224 
L 145.616008 254.789588 
L 143.452153 256.441765 
L 140.133224 258.485058 
L 139.021215 259.249427 
L 135.716709 260.907709 
L 133.489187 262.662074 
L 131.235909 264.074609 
L 129.059691 264.881481 
L 126.828047 266.331714 
L 125.71954 267.112022 
L 120.163421 270.283268 
L 119.03431 271.317349 
L 117.945171 272.086353 
L 115.736398 272.866548 
L 114.608111 273.6169 
L 113.490126 274.147731 
L 111.277232 275.789735 
L 109.0528 276.38556 
L 107.937906 277.039265 
L 106.85639 277.861058 
L 105.725012 279.042089 
L 103.513767 280.195821 
L 101.28645 280.871229 
L 100.196073 281.492096 
L 99.085918 283.028748 
L 97.951655 283.392422 
L 95.705383 284.402199 
L 94.596464 284.678511 
L 93.491633 285.292457 
L 92.366436 286.808084 
L 90.158282 287.529611 
L 87.954454 288.51825 
L 86.851304 289.131204 
L 85.758662 290.398936 
L 84.659633 290.604406 
L 82.441794 291.4015 
L 81.314743 291.995972 
L 80.222925 293.117827 
L 79.101231 293.772174 
L 76.930576 293.901477 
L 75.813827 293.758461 
L 74.718404 294.670184 
L 74.153977 295.488 
L 74.122041 295.48474 
L 73.832966 294.096949 
L 73.832966 294.096949 
" clip-path="url(#p396e3954a3)" style="fill: none; stroke: #ff0000; stroke-width: 1.5; stroke-linecap: square"/>
   </g>
   <g id="line2d_14">
    <path d="M 74.047819 275.151964 
L 74.044786 275.046734 
L 74.048025 275.488843 
L 74.049261 275.314375 
L 74.701648 275.254143 
L 75.805725 273.946981 
L 76.91588 272.086134 
L 78.066626 270.587661 
L 79.150408 275.459216 
L 80.259328 274.392967 
L 82.526204 272.664457 
L 84.765883 271.212789 
L 85.917247 271.533085 
L 87.008859 270.181704 
L 88.144151 268.3351 
L 89.267494 267.245178 
L 90.406907 266.439662 
L 92.608262 263.679251 
L 94.869622 264.342475 
L 95.96247 264.167349 
L 98.153111 263.230087 
L 99.259352 263.535657 
L 100.365387 260.826549 
L 101.466889 258.679261 
L 102.550671 257.973785 
L 103.647846 257.490091 
L 105.91225 257.311864 
L 108.102067 256.244211 
L 110.291677 254.535514 
L 112.492208 252.6975 
L 113.599891 252.034244 
L 114.709017 251.183173 
L 115.834419 250.118572 
L 116.926443 249.435139 
L 118.013934 249.020342 
L 119.114612 248.767418 
L 120.256498 248.171928 
L 121.35093 247.918257 
L 122.473036 247.276422 
L 124.668004 244.8861 
L 125.767033 243.995805 
L 126.854936 243.361995 
L 129.069066 242.562866 
L 130.202298 241.859877 
L 133.556047 239.422757 
L 138.99309 236.411059 
L 141.206807 234.877007 
L 142.335507 234.012711 
L 144.54634 232.864009 
L 146.783134 231.4725 
L 147.890405 230.821621 
L 150.118643 229.088983 
L 152.297745 227.823399 
L 156.715291 224.852056 
L 157.838221 224.100347 
L 160.04823 222.842449 
L 165.483624 219.257531 
L 173.275317 214.065086 
L 177.746317 211.541 
L 178.866775 210.851689 
L 181.079257 209.081272 
L 182.168801 208.484879 
L 185.456823 206.105408 
L 186.56121 205.474877 
L 188.75968 204.006388 
L 190.926008 202.665633 
L 192.056768 201.751034 
L 196.497802 198.984405 
L 198.709872 197.377896 
L 205.286392 193.098918 
L 206.36729 192.33421 
L 207.454368 191.783145 
L 210.705715 189.310643 
L 220.519918 182.815763 
L 223.775386 180.798696 
L 226.021658 179.032123 
L 227.142528 178.279509 
L 228.260925 177.372259 
L 229.387564 176.632192 
L 230.468693 176.06095 
L 238.339506 170.896086 
L 242.799084 167.43212 
L 243.894817 166.727548 
L 246.082573 165.617166 
L 250.498058 162.333836 
L 253.838415 160.268501 
L 254.943832 159.202544 
L 257.169848 157.605501 
L 258.252393 156.859444 
L 260.428199 155.762175 
L 263.743831 153.160809 
L 265.964142 151.458668 
L 268.179096 150.049863 
L 269.306559 149.099884 
L 273.738115 146.184383 
L 274.840029 145.517566 
L 277.020368 143.834189 
L 278.150716 142.676444 
L 281.44121 140.471732 
L 283.621189 139.255892 
L 285.856335 137.263467 
L 291.334804 133.425787 
L 293.541311 131.445344 
L 299.154313 127.665434 
L 301.370091 126.034734 
L 303.592051 124.834486 
L 304.706121 123.98805 
L 305.826579 122.936562 
L 310.237119 119.845285 
L 311.326052 119.142875 
L 315.761317 115.693491 
L 319.071591 113.420051 
L 330.236196 104.986553 
L 332.412826 103.646024 
L 334.616242 101.952926 
L 335.720628 101.063309 
L 336.822954 99.89426 
L 342.336335 95.969886 
L 345.608286 93.089992 
L 346.710199 92.353883 
L 347.814586 91.781905 
L 350.041078 90.201847 
L 353.379374 87.42041 
L 356.652973 85.349536 
L 358.883999 83.455907 
L 360.001572 82.413462 
L 361.123266 81.849397 
L 366.713346 77.533244 
L 368.879674 76.040225 
L 369.960983 75.349331 
L 374.309299 72.063741 
L 376.485517 70.167625 
L 380.833008 66.887912 
L 387.368255 61.465433 
L 388.457807 60.467525 
L 393.983988 56.675788 
L 397.251097 55.060405 
L 397.875096 54.248559 
L 398.487273 53.835345 
L 398.395378 54.261643 
L 398.30866 53.734288 
L 398.244375 54.127204 
L 398.199792 53.568 
L 398.124355 68.926005 
L 398.125437 68.868482 
L 398.117607 80.500658 
L 397.034649 80.870607 
L 395.945355 83.511338 
L 394.86281 85.634889 
L 393.780676 85.341044 
L 392.677526 84.801283 
L 390.458863 85.092584 
L 389.316977 85.467421 
L 388.186217 85.174128 
L 387.025787 85.741216 
L 385.892143 85.199703 
L 383.673068 89.8551 
L 382.546841 91.313754 
L 381.431741 93.239034 
L 380.329827 94.829266 
L 378.089736 93.972318 
L 376.953207 94.343171 
L 374.705286 95.563539 
L 373.583592 95.441132 
L 371.402429 100.897665 
L 370.277439 101.889695 
L 369.149151 102.516496 
L 366.913181 103.31636 
L 363.614471 105.662893 
L 360.298633 108.72738 
L 359.167049 109.654073 
L 356.936642 111.849516 
L 355.847091 112.796585 
L 354.755479 112.839483 
L 353.66634 113.091786 
L 350.3777 115.415754 
L 349.288766 117.259194 
L 348.156358 118.133211 
L 347.02189 118.551003 
L 344.805287 119.976877 
L 342.612586 122.450169 
L 341.514381 123.215443 
L 339.268109 124.291009 
L 338.139615 124.993207 
L 335.914436 127.347286 
L 331.470518 129.994772 
L 326.999813 133.925589 
L 323.689951 136.172691 
L 319.245208 139.693628 
L 318.147827 140.38407 
L 317.043853 140.912867 
L 314.841673 142.674466 
L 312.608382 144.514288 
L 310.384774 145.920493 
L 308.213398 147.344551 
L 307.093764 148.248411 
L 305.985669 149.414747 
L 304.861915 150.301764 
L 301.592025 152.136725 
L 296.119955 156.234501 
L 293.924781 157.683661 
L 292.836466 158.469734 
L 291.709003 159.467189 
L 288.333632 161.862824 
L 285.064566 163.806529 
L 283.944314 164.624819 
L 282.836438 165.788569 
L 281.715156 166.691072 
L 280.62849 167.191043 
L 279.542235 167.897763 
L 277.324396 169.551071 
L 274.042968 171.906577 
L 272.910972 172.512579 
L 267.380798 176.29995 
L 266.291247 176.92449 
L 265.168317 177.720963 
L 264.056925 178.684055 
L 258.499142 182.449157 
L 254.088589 185.324536 
L 250.809221 187.582263 
L 248.611574 188.832813 
L 247.484111 189.66365 
L 246.369217 190.657489 
L 245.248347 191.498498 
L 243.031745 192.910242 
L 240.839043 194.29723 
L 239.743311 194.863103 
L 237.500335 196.571232 
L 236.385235 197.174747 
L 234.182643 198.687321 
L 233.085674 199.324861 
L 231.982936 200.096239 
L 230.881434 201.031523 
L 228.695545 202.378259 
L 227.564786 203.219721 
L 224.177863 205.340671 
L 223.059466 206.163256 
L 216.425318 209.999121 
L 215.340712 210.797741 
L 214.216546 211.801075 
L 207.537481 216.10899 
L 205.313461 217.794853 
L 201.999478 219.899921 
L 197.568179 222.499899 
L 196.444425 223.434957 
L 195.363527 223.996422 
L 194.279745 224.789422 
L 193.150221 225.44027 
L 189.78514 227.832288 
L 187.600268 228.855065 
L 185.398913 230.442584 
L 183.176541 232.049998 
L 179.839063 233.588345 
L 176.539708 236.312359 
L 175.43697 236.858563 
L 174.320112 237.23136 
L 173.227264 237.816111 
L 169.914723 240.578784 
L 166.622168 241.899701 
L 165.498002 242.490443 
L 164.400415 243.441552 
L 163.291496 244.564934 
L 162.199472 245.141093 
L 161.08808 245.464046 
L 159.991523 245.936549 
L 155.526794 249.052015 
L 154.426116 249.558656 
L 153.342334 250.194726 
L 151.112751 252.051165 
L 150.027321 252.531016 
L 148.927467 253.201224 
L 145.616008 254.789588 
L 143.452153 256.441765 
L 140.133224 258.485058 
L 139.021215 259.249427 
L 135.716709 260.907709 
L 133.489187 262.662074 
L 131.235909 264.074609 
L 129.059691 264.881481 
L 126.828047 266.331714 
L 125.71954 267.112022 
L 120.163421 270.283268 
L 119.03431 271.317349 
L 117.945171 272.086353 
L 115.736398 272.866548 
L 114.608111 273.6169 
L 113.490126 274.147731 
L 111.277232 275.789735 
L 109.0528 276.38556 
L 107.937906 277.039265 
L 106.85639 277.861058 
L 105.725012 279.042089 
L 103.513767 280.195821 
L 101.28645 280.871229 
L 100.196073 281.492096 
L 99.085918 283.028748 
L 97.951655 283.392422 
L 95.705383 284.402199 
L 94.596464 284.678511 
L 93.491633 285.292457 
L 92.366436 286.808084 
L 90.158282 287.529611 
L 87.954454 288.51825 
L 86.851304 289.131204 
L 85.758662 290.398936 
L 84.659633 290.604406 
L 82.441794 291.4015 
L 81.314743 291.995972 
L 80.222925 293.117827 
L 79.101231 293.772174 
L 76.930576 293.901477 
L 75.813827 293.758461 
L 74.718404 294.670184 
L 74.153977 295.488 
L 74.122041 295.48474 
L 73.832966 294.096949 
L 73.832966 294.096949 
" clip-path="url(#p396e3954a3)" style="fill: none; stroke: #000000; stroke-width: 1.5; stroke-linecap: square"/>
   </g>
   <g id="patch_3">
    <path d="M 57.6 307.584 
L 57.6 41.472 
" style="fill: none; stroke: #000000; stroke-width: 0.8; stroke-linejoin: miter; stroke-linecap: square"/>
   </g>
   <g id="patch_4">
    <path d="M 414.72 307.584 
L 414.72 41.472 
" style="fill: none; stroke: #000000; stroke-width: 0.8; stroke-linejoin: miter; stroke-linecap: square"/>
   </g>
   <g id="patch_5">
    <path d="M 57.6 307.584 
L 414.72 307.584 
" style="fill: none; stroke: #000000; stroke-width: 0.8; stroke-linejoin: miter; stroke-linecap: square"/>
   </g>
   <g id="patch_6">
    <path d="M 57.6 41.472 
L 414.72 41.472 
" style="fill: none; stroke: #000000; stroke-width: 0.8; stroke-linejoin: miter; stroke-linecap: square"/>
   </g>
   <g id="text_15">
    <!-- 2025-06-19 trial 8 -->
    <g transform="translate(181.83 35.472) scale(0.12 -0.12)">
     <defs>
      <path id="DejaVuSans-35" d="M 691 4666 
L 3169 4666 
L 3169 4134 
L 1269 4134 
L 1269 2991 
Q 1406 3038 1543 3061 
Q 1681 3084 1819 3084 
Q 2600 3084 3056 2656 
Q 3513 2228 3513 1497 
Q 3513 744 3044 326 
Q 2575 -91 1722 -91 
Q 1428 -91 1123 -41 
Q 819 9 494 109 
L 494 744 
Q 775 591 1075 516 
Q 1375 441 1709 441 
Q 2250 441 2565 725 
Q 2881 1009 2881 1497 
Q 2881 1984 2565 2268 
Q 2250 2553 1709 2553 
Q 1456 2553 1204 2497 
Q 953 2441 691 2322 
L 691 4666 
z
" transform="scale(0.015625)"/>
      <path id="DejaVuSans-2d" d="M 313 2009 
L 1997 2009 
L 1997 1497 
L 313 1497 
L 313 2009 
z
" transform="scale(0.015625)"/>
      <path id="DejaVuSans-39" d="M 703 97 
L 703 672 
Q 941 559 1184 500 
Q 1428 441 1663 441 
Q 2288 441 2617 861 
Q 2947 1281 2994 2138 
Q 2813 1869 2534 1725 
Q 2256 1581 1919 1581 
Q 1219 1581 811 2004 
Q 403 2428 403 3163 
Q 403 3881 828 4315 
Q 1253 4750 1959 4750 
Q 2769 4750 3195 4129 
Q 3622 3509 3622 2328 
Q 3622 1225 3098 567 
Q 2575 -91 1691 -91 
Q 1453 -91 1209 -44 
Q 966 3 703 97 
z
M 1959 2075 
Q 2384 2075 2632 2365 
Q 2881 2656 2881 3163 
Q 2881 3666 2632 3958 
Q 2384 4250 1959 4250 
Q 1534 4250 1286 3958 
Q 1038 3666 1038 3163 
Q 1038 2656 1286 2365 
Q 1534 2075 1959 2075 
z
" transform="scale(0.015625)"/>
      <path id="DejaVuSans-6c" d="M 603 4863 
L 1178 4863 
L 1178 0 
L 603 0 
L 603 4863 
z
" transform="scale(0.015625)"/>
     </defs>
     <use xlink:href="#DejaVuSans-32"/>
     <use xlink:href="#DejaVuSans-30" transform="translate(63.623047 0)"/>
     <use xlink:href="#DejaVuSans-32" transform="translate(127.246094 0)"/>
     <use xlink:href="#DejaVuSans-35" transform="translate(190.869141 0)"/>
     <use xlink:href="#DejaVuSans-2d" transform="translate(254.492188 0)"/>
     <use xlink:href="#DejaVuSans-30" transform="translate(290.576172 0)"/>
     <use xlink:href="#DejaVuSans-36" transform="translate(354.199219 0)"/>
     <use xlink:href="#DejaVuSans-2d" transform="translate(417.822266 0)"/>
     <use xlink:href="#DejaVuSans-31" transform="translate(453.90625 0)"/>
     <use xlink:href="#DejaVuSans-39" transform="translate(517.529297 0)"/>
     <use xlink:href="#DejaVuSans-20" transform="translate(581.152344 0)"/>
     <use xlink:href="#DejaVuSans-74" transform="translate(612.939453 0)"/>
     <use xlink:href="#DejaVuSans-72" transform="translate(652.148438 0)"/>
     <use xlink:href="#DejaVuSans-69" transform="translate(693.261719 0)"/>
     <use xlink:href="#DejaVuSans-61" transform="translate(721.044922 0)"/>
     <use xlink:href="#DejaVuSans-6c" transform="translate(782.324219 0)"/>
     <use xlink:href="#DejaVuSans-20" transform="translate(810.107422 0)"/>
     <use xlink:href="#DejaVuSans-38" transform="translate(841.894531 0)"/>
    </g>
   </g>
  </g>
 </g>
 <defs>
  <clipPath id="p396e3954a3">
   <rect x="57.6" y="41.472" width="357.12" height="266.112"/>
  </clipPath>
 </defs>
</svg>
