<?xml version="1.0" encoding="utf-8" standalone="no"?>
<!DOCTYPE svg PUBLIC "-//W3C//DTD SVG 1.1//EN"
  "http://www.w3.org/Graphics/SVG/1.1/DTD/svg11.dtd">
<svg xmlns:xlink="http://www.w3.org/1999/xlink" width="460.8pt" height="345.6pt" viewBox="0 0 460.8 345.6" xmlns="http://www.w3.org/2000/svg" version="1.1">
 <metadata>
  <rdf:RDF xmlns:dc="http://purl.org/dc/elements/1.1/" xmlns:cc="http://creativecommons.org/ns#" xmlns:rdf="http://www.w3.org/1999/02/22-rdf-syntax-ns#">
   <cc:Work>
    <dc:type rdf:resource="http://purl.org/dc/dcmitype/StillImage"/>
    <dc:date>2025-07-08T21:01:19.998922</dc:date>
    <dc:format>image/svg+xml</dc:format>
    <dc:creator>
     <cc:Agent>
      <dc:title>Matplotlib v3.10.3, https://matplotlib.org/</dc:title>
     </cc:Agent>
    </dc:creator>
   </cc:Work>
  </rdf:RDF>
 </metadata>
 <defs>
  <style type="text/css">*{stroke-linejoin: round; stroke-linecap: butt}</style>
 </defs>
 <g id="figure_1">
  <g id="patch_1">
   <path d="M 0 345.6 
L 460.8 345.6 
L 460.8 0 
L 0 0 
z
" style="fill: #ffffff"/>
  </g>
  <g id="axes_1">
   <g id="patch_2">
    <path d="M 57.6 307.584 
L 414.72 307.584 
L 414.72 41.472 
L 57.6 41.472 
z
" style="fill: #ffffff"/>
   </g>
   <g id="matplotlib.axis_1">
    <g id="xtick_1">
     <g id="line2d_1">
      <defs>
       <path id="mb5cfced78f" d="M 0 0 
L 0 3.5 
" style="stroke: #000000; stroke-width: 0.8"/>
      </defs>
      <g>
       <use xlink:href="#mb5cfced78f" x="73.93085" y="307.584" style="stroke: #000000; stroke-width: 0.8"/>
      </g>
     </g>
     <g id="text_1">
      <!-- 0.00 -->
      <g transform="translate(62.798037 322.182437) scale(0.1 -0.1)">
       <defs>
        <path id="DejaVuSans-30" d="M 2034 4250 
Q 1547 4250 1301 3770 
Q 1056 3291 1056 2328 
Q 1056 1369 1301 889 
Q 1547 409 2034 409 
Q 2525 409 2770 889 
Q 3016 1369 3016 2328 
Q 3016 3291 2770 3770 
Q 2525 4250 2034 4250 
z
M 2034 4750 
Q 2819 4750 3233 4129 
Q 3647 3509 3647 2328 
Q 3647 1150 3233 529 
Q 2819 -91 2034 -91 
Q 1250 -91 836 529 
Q 422 1150 422 2328 
Q 422 3509 836 4129 
Q 1250 4750 2034 4750 
z
" transform="scale(0.015625)"/>
        <path id="DejaVuSans-2e" d="M 684 794 
L 1344 794 
L 1344 0 
L 684 0 
L 684 794 
z
" transform="scale(0.015625)"/>
       </defs>
       <use xlink:href="#DejaVuSans-30"/>
       <use xlink:href="#DejaVuSans-2e" transform="translate(63.623047 0)"/>
       <use xlink:href="#DejaVuSans-30" transform="translate(95.410156 0)"/>
       <use xlink:href="#DejaVuSans-30" transform="translate(159.033203 0)"/>
      </g>
     </g>
    </g>
    <g id="xtick_2">
     <g id="line2d_2">
      <g>
       <use xlink:href="#mb5cfced78f" x="138.818973" y="307.584" style="stroke: #000000; stroke-width: 0.8"/>
      </g>
     </g>
     <g id="text_2">
      <!-- 0.05 -->
      <g transform="translate(127.68616 322.182437) scale(0.1 -0.1)">
       <defs>
        <path id="DejaVuSans-35" d="M 691 4666 
L 3169 4666 
L 3169 4134 
L 1269 4134 
L 1269 2991 
Q 1406 3038 1543 3061 
Q 1681 3084 1819 3084 
Q 2600 3084 3056 2656 
Q 3513 2228 3513 1497 
Q 3513 744 3044 326 
Q 2575 -91 1722 -91 
Q 1428 -91 1123 -41 
Q 819 9 494 109 
L 494 744 
Q 775 591 1075 516 
Q 1375 441 1709 441 
Q 2250 441 2565 725 
Q 2881 1009 2881 1497 
Q 2881 1984 2565 2268 
Q 2250 2553 1709 2553 
Q 1456 2553 1204 2497 
Q 953 2441 691 2322 
L 691 4666 
z
" transform="scale(0.015625)"/>
       </defs>
       <use xlink:href="#DejaVuSans-30"/>
       <use xlink:href="#DejaVuSans-2e" transform="translate(63.623047 0)"/>
       <use xlink:href="#DejaVuSans-30" transform="translate(95.410156 0)"/>
       <use xlink:href="#DejaVuSans-35" transform="translate(159.033203 0)"/>
      </g>
     </g>
    </g>
    <g id="xtick_3">
     <g id="line2d_3">
      <g>
       <use xlink:href="#mb5cfced78f" x="203.707096" y="307.584" style="stroke: #000000; stroke-width: 0.8"/>
      </g>
     </g>
     <g id="text_3">
      <!-- 0.10 -->
      <g transform="translate(192.574283 322.182437) scale(0.1 -0.1)">
       <defs>
        <path id="DejaVuSans-31" d="M 794 531 
L 1825 531 
L 1825 4091 
L 703 3866 
L 703 4441 
L 1819 4666 
L 2450 4666 
L 2450 531 
L 3481 531 
L 3481 0 
L 794 0 
L 794 531 
z
" transform="scale(0.015625)"/>
       </defs>
       <use xlink:href="#DejaVuSans-30"/>
       <use xlink:href="#DejaVuSans-2e" transform="translate(63.623047 0)"/>
       <use xlink:href="#DejaVuSans-31" transform="translate(95.410156 0)"/>
       <use xlink:href="#DejaVuSans-30" transform="translate(159.033203 0)"/>
      </g>
     </g>
    </g>
    <g id="xtick_4">
     <g id="line2d_4">
      <g>
       <use xlink:href="#mb5cfced78f" x="268.595219" y="307.584" style="stroke: #000000; stroke-width: 0.8"/>
      </g>
     </g>
     <g id="text_4">
      <!-- 0.15 -->
      <g transform="translate(257.462406 322.182437) scale(0.1 -0.1)">
       <use xlink:href="#DejaVuSans-30"/>
       <use xlink:href="#DejaVuSans-2e" transform="translate(63.623047 0)"/>
       <use xlink:href="#DejaVuSans-31" transform="translate(95.410156 0)"/>
       <use xlink:href="#DejaVuSans-35" transform="translate(159.033203 0)"/>
      </g>
     </g>
    </g>
    <g id="xtick_5">
     <g id="line2d_5">
      <g>
       <use xlink:href="#mb5cfced78f" x="333.483342" y="307.584" style="stroke: #000000; stroke-width: 0.8"/>
      </g>
     </g>
     <g id="text_5">
      <!-- 0.20 -->
      <g transform="translate(322.350529 322.182437) scale(0.1 -0.1)">
       <defs>
        <path id="DejaVuSans-32" d="M 1228 531 
L 3431 531 
L 3431 0 
L 469 0 
L 469 531 
Q 828 903 1448 1529 
Q 2069 2156 2228 2338 
Q 2531 2678 2651 2914 
Q 2772 3150 2772 3378 
Q 2772 3750 2511 3984 
Q 2250 4219 1831 4219 
Q 1534 4219 1204 4116 
Q 875 4013 500 3803 
L 500 4441 
Q 881 4594 1212 4672 
Q 1544 4750 1819 4750 
Q 2544 4750 2975 4387 
Q 3406 4025 3406 3419 
Q 3406 3131 3298 2873 
Q 3191 2616 2906 2266 
Q 2828 2175 2409 1742 
Q 1991 1309 1228 531 
z
" transform="scale(0.015625)"/>
       </defs>
       <use xlink:href="#DejaVuSans-30"/>
       <use xlink:href="#DejaVuSans-2e" transform="translate(63.623047 0)"/>
       <use xlink:href="#DejaVuSans-32" transform="translate(95.410156 0)"/>
       <use xlink:href="#DejaVuSans-30" transform="translate(159.033203 0)"/>
      </g>
     </g>
    </g>
    <g id="xtick_6">
     <g id="line2d_6">
      <g>
       <use xlink:href="#mb5cfced78f" x="398.371465" y="307.584" style="stroke: #000000; stroke-width: 0.8"/>
      </g>
     </g>
     <g id="text_6">
      <!-- 0.25 -->
      <g transform="translate(387.238652 322.182437) scale(0.1 -0.1)">
       <use xlink:href="#DejaVuSans-30"/>
       <use xlink:href="#DejaVuSans-2e" transform="translate(63.623047 0)"/>
       <use xlink:href="#DejaVuSans-32" transform="translate(95.410156 0)"/>
       <use xlink:href="#DejaVuSans-35" transform="translate(159.033203 0)"/>
      </g>
     </g>
    </g>
    <g id="text_7">
     <!-- Strain -->
     <g transform="translate(221.348281 335.860562) scale(0.1 -0.1)">
      <defs>
       <path id="DejaVuSans-53" d="M 3425 4513 
L 3425 3897 
Q 3066 4069 2747 4153 
Q 2428 4238 2131 4238 
Q 1616 4238 1336 4038 
Q 1056 3838 1056 3469 
Q 1056 3159 1242 3001 
Q 1428 2844 1947 2747 
L 2328 2669 
Q 3034 2534 3370 2195 
Q 3706 1856 3706 1288 
Q 3706 609 3251 259 
Q 2797 -91 1919 -91 
Q 1588 -91 1214 -16 
Q 841 59 441 206 
L 441 856 
Q 825 641 1194 531 
Q 1563 422 1919 422 
Q 2459 422 2753 634 
Q 3047 847 3047 1241 
Q 3047 1584 2836 1778 
Q 2625 1972 2144 2069 
L 1759 2144 
Q 1053 2284 737 2584 
Q 422 2884 422 3419 
Q 422 4038 858 4394 
Q 1294 4750 2059 4750 
Q 2388 4750 2728 4690 
Q 3069 4631 3425 4513 
z
" transform="scale(0.015625)"/>
       <path id="DejaVuSans-74" d="M 1172 4494 
L 1172 3500 
L 2356 3500 
L 2356 3053 
L 1172 3053 
L 1172 1153 
Q 1172 725 1289 603 
Q 1406 481 1766 481 
L 2356 481 
L 2356 0 
L 1766 0 
Q 1100 0 847 248 
Q 594 497 594 1153 
L 594 3053 
L 172 3053 
L 172 3500 
L 594 3500 
L 594 4494 
L 1172 4494 
z
" transform="scale(0.015625)"/>
       <path id="DejaVuSans-72" d="M 2631 2963 
Q 2534 3019 2420 3045 
Q 2306 3072 2169 3072 
Q 1681 3072 1420 2755 
Q 1159 2438 1159 1844 
L 1159 0 
L 581 0 
L 581 3500 
L 1159 3500 
L 1159 2956 
Q 1341 3275 1631 3429 
Q 1922 3584 2338 3584 
Q 2397 3584 2469 3576 
Q 2541 3569 2628 3553 
L 2631 2963 
z
" transform="scale(0.015625)"/>
       <path id="DejaVuSans-61" d="M 2194 1759 
Q 1497 1759 1228 1600 
Q 959 1441 959 1056 
Q 959 750 1161 570 
Q 1363 391 1709 391 
Q 2188 391 2477 730 
Q 2766 1069 2766 1631 
L 2766 1759 
L 2194 1759 
z
M 3341 1997 
L 3341 0 
L 2766 0 
L 2766 531 
Q 2569 213 2275 61 
Q 1981 -91 1556 -91 
Q 1019 -91 701 211 
Q 384 513 384 1019 
Q 384 1609 779 1909 
Q 1175 2209 1959 2209 
L 2766 2209 
L 2766 2266 
Q 2766 2663 2505 2880 
Q 2244 3097 1772 3097 
Q 1472 3097 1187 3025 
Q 903 2953 641 2809 
L 641 3341 
Q 956 3463 1253 3523 
Q 1550 3584 1831 3584 
Q 2591 3584 2966 3190 
Q 3341 2797 3341 1997 
z
" transform="scale(0.015625)"/>
       <path id="DejaVuSans-69" d="M 603 3500 
L 1178 3500 
L 1178 0 
L 603 0 
L 603 3500 
z
M 603 4863 
L 1178 4863 
L 1178 4134 
L 603 4134 
L 603 4863 
z
" transform="scale(0.015625)"/>
       <path id="DejaVuSans-6e" d="M 3513 2113 
L 3513 0 
L 2938 0 
L 2938 2094 
Q 2938 2591 2744 2837 
Q 2550 3084 2163 3084 
Q 1697 3084 1428 2787 
Q 1159 2491 1159 1978 
L 1159 0 
L 581 0 
L 581 3500 
L 1159 3500 
L 1159 2956 
Q 1366 3272 1645 3428 
Q 1925 3584 2291 3584 
Q 2894 3584 3203 3211 
Q 3513 2838 3513 2113 
z
" transform="scale(0.015625)"/>
      </defs>
      <use xlink:href="#DejaVuSans-53"/>
      <use xlink:href="#DejaVuSans-74" transform="translate(63.476562 0)"/>
      <use xlink:href="#DejaVuSans-72" transform="translate(102.685547 0)"/>
      <use xlink:href="#DejaVuSans-61" transform="translate(143.798828 0)"/>
      <use xlink:href="#DejaVuSans-69" transform="translate(205.078125 0)"/>
      <use xlink:href="#DejaVuSans-6e" transform="translate(232.861328 0)"/>
     </g>
    </g>
   </g>
   <g id="matplotlib.axis_2">
    <g id="ytick_1">
     <g id="line2d_7">
      <defs>
       <path id="m14ca94100d" d="M 0 0 
L -3.5 0 
" style="stroke: #000000; stroke-width: 0.8"/>
      </defs>
      <g>
       <use xlink:href="#m14ca94100d" x="57.6" y="279.789451" style="stroke: #000000; stroke-width: 0.8"/>
      </g>
     </g>
     <g id="text_8">
      <!-- 0 -->
      <g transform="translate(44.2375 283.58867) scale(0.1 -0.1)">
       <use xlink:href="#DejaVuSans-30"/>
      </g>
     </g>
    </g>
    <g id="ytick_2">
     <g id="line2d_8">
      <g>
       <use xlink:href="#m14ca94100d" x="57.6" y="237.853287" style="stroke: #000000; stroke-width: 0.8"/>
      </g>
     </g>
     <g id="text_9">
      <!-- 500 -->
      <g transform="translate(31.5125 241.652505) scale(0.1 -0.1)">
       <use xlink:href="#DejaVuSans-35"/>
       <use xlink:href="#DejaVuSans-30" transform="translate(63.623047 0)"/>
       <use xlink:href="#DejaVuSans-30" transform="translate(127.246094 0)"/>
      </g>
     </g>
    </g>
    <g id="ytick_3">
     <g id="line2d_9">
      <g>
       <use xlink:href="#m14ca94100d" x="57.6" y="195.917122" style="stroke: #000000; stroke-width: 0.8"/>
      </g>
     </g>
     <g id="text_10">
      <!-- 1000 -->
      <g transform="translate(25.15 199.716341) scale(0.1 -0.1)">
       <use xlink:href="#DejaVuSans-31"/>
       <use xlink:href="#DejaVuSans-30" transform="translate(63.623047 0)"/>
       <use xlink:href="#DejaVuSans-30" transform="translate(127.246094 0)"/>
       <use xlink:href="#DejaVuSans-30" transform="translate(190.869141 0)"/>
      </g>
     </g>
    </g>
    <g id="ytick_4">
     <g id="line2d_10">
      <g>
       <use xlink:href="#m14ca94100d" x="57.6" y="153.980958" style="stroke: #000000; stroke-width: 0.8"/>
      </g>
     </g>
     <g id="text_11">
      <!-- 1500 -->
      <g transform="translate(25.15 157.780177) scale(0.1 -0.1)">
       <use xlink:href="#DejaVuSans-31"/>
       <use xlink:href="#DejaVuSans-35" transform="translate(63.623047 0)"/>
       <use xlink:href="#DejaVuSans-30" transform="translate(127.246094 0)"/>
       <use xlink:href="#DejaVuSans-30" transform="translate(190.869141 0)"/>
      </g>
     </g>
    </g>
    <g id="ytick_5">
     <g id="line2d_11">
      <g>
       <use xlink:href="#m14ca94100d" x="57.6" y="112.044794" style="stroke: #000000; stroke-width: 0.8"/>
      </g>
     </g>
     <g id="text_12">
      <!-- 2000 -->
      <g transform="translate(25.15 115.844012) scale(0.1 -0.1)">
       <use xlink:href="#DejaVuSans-32"/>
       <use xlink:href="#DejaVuSans-30" transform="translate(63.623047 0)"/>
       <use xlink:href="#DejaVuSans-30" transform="translate(127.246094 0)"/>
       <use xlink:href="#DejaVuSans-30" transform="translate(190.869141 0)"/>
      </g>
     </g>
    </g>
    <g id="ytick_6">
     <g id="line2d_12">
      <g>
       <use xlink:href="#m14ca94100d" x="57.6" y="70.108629" style="stroke: #000000; stroke-width: 0.8"/>
      </g>
     </g>
     <g id="text_13">
      <!-- 2500 -->
      <g transform="translate(25.15 73.907848) scale(0.1 -0.1)">
       <use xlink:href="#DejaVuSans-32"/>
       <use xlink:href="#DejaVuSans-35" transform="translate(63.623047 0)"/>
       <use xlink:href="#DejaVuSans-30" transform="translate(127.246094 0)"/>
       <use xlink:href="#DejaVuSans-30" transform="translate(190.869141 0)"/>
      </g>
     </g>
    </g>
    <g id="text_14">
     <!-- Stress [Pa] -->
     <g transform="translate(19.070312 201.235813) rotate(-90) scale(0.1 -0.1)">
      <defs>
       <path id="DejaVuSans-65" d="M 3597 1894 
L 3597 1613 
L 953 1613 
Q 991 1019 1311 708 
Q 1631 397 2203 397 
Q 2534 397 2845 478 
Q 3156 559 3463 722 
L 3463 178 
Q 3153 47 2828 -22 
Q 2503 -91 2169 -91 
Q 1331 -91 842 396 
Q 353 884 353 1716 
Q 353 2575 817 3079 
Q 1281 3584 2069 3584 
Q 2775 3584 3186 3129 
Q 3597 2675 3597 1894 
z
M 3022 2063 
Q 3016 2534 2758 2815 
Q 2500 3097 2075 3097 
Q 1594 3097 1305 2825 
Q 1016 2553 972 2059 
L 3022 2063 
z
" transform="scale(0.015625)"/>
       <path id="DejaVuSans-73" d="M 2834 3397 
L 2834 2853 
Q 2591 2978 2328 3040 
Q 2066 3103 1784 3103 
Q 1356 3103 1142 2972 
Q 928 2841 928 2578 
Q 928 2378 1081 2264 
Q 1234 2150 1697 2047 
L 1894 2003 
Q 2506 1872 2764 1633 
Q 3022 1394 3022 966 
Q 3022 478 2636 193 
Q 2250 -91 1575 -91 
Q 1294 -91 989 -36 
Q 684 19 347 128 
L 347 722 
Q 666 556 975 473 
Q 1284 391 1588 391 
Q 1994 391 2212 530 
Q 2431 669 2431 922 
Q 2431 1156 2273 1281 
Q 2116 1406 1581 1522 
L 1381 1569 
Q 847 1681 609 1914 
Q 372 2147 372 2553 
Q 372 3047 722 3315 
Q 1072 3584 1716 3584 
Q 2034 3584 2315 3537 
Q 2597 3491 2834 3397 
z
" transform="scale(0.015625)"/>
       <path id="DejaVuSans-20" transform="scale(0.015625)"/>
       <path id="DejaVuSans-5b" d="M 550 4863 
L 1875 4863 
L 1875 4416 
L 1125 4416 
L 1125 -397 
L 1875 -397 
L 1875 -844 
L 550 -844 
L 550 4863 
z
" transform="scale(0.015625)"/>
       <path id="DejaVuSans-50" d="M 1259 4147 
L 1259 2394 
L 2053 2394 
Q 2494 2394 2734 2622 
Q 2975 2850 2975 3272 
Q 2975 3691 2734 3919 
Q 2494 4147 2053 4147 
L 1259 4147 
z
M 628 4666 
L 2053 4666 
Q 2838 4666 3239 4311 
Q 3641 3956 3641 3272 
Q 3641 2581 3239 2228 
Q 2838 1875 2053 1875 
L 1259 1875 
L 1259 0 
L 628 0 
L 628 4666 
z
" transform="scale(0.015625)"/>
       <path id="DejaVuSans-5d" d="M 1947 4863 
L 1947 -844 
L 622 -844 
L 622 -397 
L 1369 -397 
L 1369 4416 
L 622 4416 
L 622 4863 
L 1947 4863 
z
" transform="scale(0.015625)"/>
      </defs>
      <use xlink:href="#DejaVuSans-53"/>
      <use xlink:href="#DejaVuSans-74" transform="translate(63.476562 0)"/>
      <use xlink:href="#DejaVuSans-72" transform="translate(102.685547 0)"/>
      <use xlink:href="#DejaVuSans-65" transform="translate(141.548828 0)"/>
      <use xlink:href="#DejaVuSans-73" transform="translate(203.072266 0)"/>
      <use xlink:href="#DejaVuSans-73" transform="translate(255.171875 0)"/>
      <use xlink:href="#DejaVuSans-20" transform="translate(307.271484 0)"/>
      <use xlink:href="#DejaVuSans-5b" transform="translate(339.058594 0)"/>
      <use xlink:href="#DejaVuSans-50" transform="translate(378.072266 0)"/>
      <use xlink:href="#DejaVuSans-61" transform="translate(433.875 0)"/>
      <use xlink:href="#DejaVuSans-5d" transform="translate(495.154297 0)"/>
     </g>
    </g>
   </g>
   <g id="line2d_13">
    <path d="M 73.93085 279.719862 
L 73.93085 279.63638 
L 73.931192 279.801323 
L 74.416509 276.83988 
L 74.905378 274.820358 
L 75.417408 274.038859 
L 75.932621 273.742613 
L 76.454199 273.902397 
L 78.037675 274.71643 
L 79.010816 275.008166 
L 80.053972 275.151957 
L 81.159364 275.049968 
L 82.319919 274.898486 
L 82.920199 275.088099 
L 84.147233 275.935018 
L 85.833256 277.467252 
L 87.013613 277.768713 
L 88.140929 277.891993 
L 88.681249 277.854333 
L 89.205302 277.649941 
L 89.713089 277.266263 
L 91.164313 275.613445 
L 92.778907 273.822715 
L 93.916124 272.842835 
L 95.628314 271.948177 
L 97.353236 271.196912 
L 99.083107 270.553855 
L 101.969289 269.27941 
L 103.700575 268.583663 
L 111.17523 264.85598 
L 112.901564 264.007293 
L 114.628606 263.056763 
L 122.875548 259.072884 
L 137.923869 251.716889 
L 144.478983 248.099559 
L 150.11344 245.275552 
L 152.554778 244.055211 
L 156.582421 241.817152 
L 160.030848 239.96666 
L 161.751525 239.036287 
L 164.616491 237.480006 
L 167.47297 235.993389 
L 171.444742 233.510979 
L 173.159762 232.420062 
L 181.268797 228.065236 
L 184.720759 226.232425 
L 186.998729 224.856845 
L 190.985353 222.377617 
L 197.301574 218.562415 
L 199.032152 217.547526 
L 202.270776 215.451396 
L 208.835233 211.599063 
L 213.517766 208.843659 
L 215.375644 207.669288 
L 217.109759 206.592516 
L 223.378596 202.405659 
L 226.202543 200.676105 
L 229.034977 198.894215 
L 230.921852 197.658315 
L 237.042879 193.464385 
L 250.176036 184.567663 
L 253.043831 182.469991 
L 257.645033 179.312521 
L 264.491761 174.346849 
L 267.914727 171.704957 
L 278.817299 163.567461 
L 280.540805 162.202843 
L 283.896585 159.70947 
L 292.823171 152.701082 
L 297.567233 148.78439 
L 305.536945 142.404384 
L 313.931698 135.349672 
L 317.682994 132.182267 
L 324.229063 126.231555 
L 327.509877 123.362285 
L 333.645049 118.033944 
L 335.985961 116.028921 
L 339.324061 112.885949 
L 348.988282 103.582215 
L 351.859613 100.82186 
L 357.610055 95.348535 
L 361.314497 91.813741 
L 363.750178 89.372351 
L 388.484865 63.375205 
L 392.748721 59.975152 
L 395.766801 57.629946 
L 396.742594 56.526299 
L 397.696021 54.78932 
L 398.163099 53.677871 
L 398.281957 53.71215 
L 398.487273 54.996408 
L 398.370758 73.994802 
L 398.371929 80.16425 
L 398.371642 81.16296 
L 398.3731 81.077185 
L 398.37131 88.831026 
L 398.362602 88.82318 
L 397.895878 89.032567 
L 396.957303 90.901005 
L 395.505902 91.426307 
L 394.562288 92.140795 
L 394.093221 92.320302 
L 393.610364 92.832255 
L 393.133694 93.04688 
L 392.647124 94.34431 
L 391.199082 96.476294 
L 390.245213 96.918761 
L 389.290637 97.628476 
L 388.349056 98.875449 
L 387.871282 100.030968 
L 387.407166 100.677119 
L 386.451794 101.516789 
L 385.972473 101.861303 
L 380.758549 107.84667 
L 380.278344 108.169259 
L 378.874415 109.663568 
L 376.988778 111.775031 
L 375.556405 113.158678 
L 373.646457 115.3345 
L 372.700191 116.165153 
L 371.742521 117.083591 
L 369.836728 119.104351 
L 368.884096 120.070175 
L 367.462045 121.608243 
L 365.596033 123.417715 
L 363.730884 125.324532 
L 361.84507 127.188373 
L 359.45306 129.555945 
L 358.491853 130.484285 
L 357.079968 131.970725 
L 355.176651 133.64149 
L 354.221456 134.746728 
L 348.031872 140.370187 
L 347.077649 141.253441 
L 346.123957 141.899239 
L 343.742821 144.165322 
L 342.79461 144.822878 
L 342.32846 145.488213 
L 340.879822 146.753409 
L 339.929312 147.314029 
L 338.979775 148.58317 
L 337.541811 149.582808 
L 336.599258 150.373502 
L 336.130545 151.133607 
L 334.689221 152.051472 
L 334.219624 152.349573 
L 333.750558 152.804107 
L 333.274242 153.506838 
L 332.338584 154.062109 
L 331.369952 154.693386 
L 330.892487 155.282119 
L 330.410668 156.163361 
L 328.018305 157.526123 
L 327.55304 158.568417 
L 326.116225 159.443626 
L 325.173848 159.924095 
L 324.705135 160.986546 
L 324.238367 161.37387 
L 322.351316 162.341031 
L 321.386485 163.7897 
L 319.015957 165.234203 
L 318.551797 166.062922 
L 316.181092 167.431651 
L 315.712998 168.268315 
L 313.339553 169.855603 
L 312.865359 170.682543 
L 310.961864 171.599656 
L 310.49545 171.891458 
L 310.030538 172.818118 
L 307.662486 174.073557 
L 307.181065 174.991222 
L 306.225781 175.609172 
L 304.796215 176.284475 
L 304.319635 177.099127 
L 303.836866 177.509856 
L 301.936554 178.438682 
L 301.46068 179.257842 
L 300.991171 179.711801 
L 299.10465 180.430113 
L 298.640888 180.992667 
L 298.160064 181.897491 
L 295.772916 182.995668 
L 295.289815 183.925533 
L 294.343814 184.546445 
L 292.90921 185.131542 
L 292.441204 185.960604 
L 291.964446 186.394141 
L 290.036994 187.216904 
L 289.572436 187.886925 
L 289.08896 188.363339 
L 288.132616 188.928865 
L 287.187057 189.24436 
L 286.247421 190.268531 
L 283.896032 191.856554 
L 283.425993 192.37611 
L 281.039288 193.855787 
L 280.56527 194.412208 
L 280.084093 194.751152 
L 278.656383 195.381347 
L 278.181924 195.70208 
L 277.228851 196.694955 
L 275.33013 197.692649 
L 274.3752 198.599153 
L 273.413552 199.021596 
L 272.455705 199.672919 
L 271.501482 200.694118 
L 270.5561 201.0221 
L 269.617437 201.472921 
L 268.188048 202.98796 
L 267.237361 203.265806 
L 266.281459 203.733976 
L 265.333955 204.847613 
L 263.429842 205.596358 
L 262.960952 205.934153 
L 262.002663 206.940113 
L 260.560257 207.549825 
L 260.075101 207.865298 
L 259.142437 208.816535 
L 256.77412 210.099334 
L 255.833158 210.903908 
L 254.401558 211.532257 
L 253.457149 212.281577 
L 252.981275 212.706981 
L 252.038545 213.126595 
L 251.09219 213.577239 
L 249.680659 214.714878 
L 247.75618 215.655053 
L 246.822909 216.427535 
L 244.449198 217.694952 
L 243.498689 218.452494 
L 241.593072 219.378226 
L 240.659536 220.298433 
L 238.296699 221.314648 
L 237.337316 222.290787 
L 234.959274 223.591135 
L 234.49171 224.000361 
L 233.069129 224.580696 
L 232.133294 225.173848 
L 231.66741 225.683503 
L 230.701872 226.145882 
L 229.263642 226.81818 
L 228.311453 227.602773 
L 224.498795 229.695268 
L 223.568265 230.049816 
L 221.19146 231.544345 
L 220.241304 231.960998 
L 214.074263 235.56112 
L 213.118273 235.990071 
L 209.307836 238.172214 
L 208.348221 238.709672 
L 199.762715 243.179748 
L 198.81583 243.739373 
L 197.875575 244.188116 
L 195.47225 245.570283 
L 194.521917 245.865898 
L 193.087666 246.675112 
L 192.130438 247.211178 
L 190.256967 248.144435 
L 185.039154 250.72387 
L 182.205482 252.226798 
L 172.2754 257.18135 
L 170.833192 257.891507 
L 157.548611 264.086121 
L 156.609506 264.383714 
L 155.653675 265.003308 
L 154.222076 265.467876 
L 153.75796 265.620375 
L 152.332461 266.472996 
L 151.366569 266.776374 
L 150.402269 267.10387 
L 149.449284 267.713378 
L 148.029001 268.332146 
L 147.564177 268.43579 
L 145.203727 269.616902 
L 143.787499 270.139299 
L 142.847598 270.717733 
L 140.487679 271.611042 
L 139.551137 272.063742 
L 138.611236 272.359456 
L 136.240266 273.528501 
L 135.296298 273.833177 
L 133.391389 274.779463 
L 131.485933 275.456116 
L 127.715278 277.17442 
L 126.303481 277.610411 
L 122.970863 279.037355 
L 122.006032 279.47149 
L 120.101178 279.984459 
L 118.677093 280.754532 
L 116.773157 281.375047 
L 115.820879 281.869274 
L 113.42162 282.698656 
L 112.47279 283.234169 
L 109.136934 284.399788 
L 108.180325 284.931897 
L 106.273471 285.435474 
L 104.837982 286.083394 
L 97.689035 288.738735 
L 96.741179 288.977396 
L 95.795619 289.494918 
L 94.369325 289.78719 
L 93.413422 290.133011 
L 92.936311 290.404635 
L 91.513906 290.77756 
L 89.625175 291.613246 
L 88.672013 291.577835 
L 87.727692 291.970906 
L 87.255708 292.281914 
L 86.298654 292.42874 
L 85.343548 292.583177 
L 84.872625 292.671568 
L 84.398254 293.098564 
L 83.923883 293.314913 
L 82.976026 293.330133 
L 82.031969 293.572343 
L 81.566262 293.975734 
L 81.102765 294.21319 
L 79.184949 294.375825 
L 78.709694 294.771216 
L 78.230992 294.951385 
L 76.324492 295.035176 
L 75.843491 295.380171 
L 75.359837 295.488 
L 74.079866 295.19671 
L 73.92432 295.32034 
L 73.83286 294.658149 
L 73.83286 294.658149 
" clip-path="url(#pcc52840f4c)" style="fill: none; stroke: #ff0000; stroke-width: 1.5; stroke-linecap: square"/>
   </g>
   <g id="line2d_14">
    <path d="M 73.93085 279.719862 
L 73.93085 279.63638 
L 73.931192 279.801323 
L 74.416509 276.83988 
L 74.905378 274.820358 
L 75.417408 274.038859 
L 75.932621 273.742613 
L 76.454199 273.902397 
L 76.942184 279.264327 
L 77.471188 279.399409 
L 78.037675 279.402238 
L 79.010816 278.961628 
L 81.159364 277.597438 
L 82.319919 276.427531 
L 82.920199 276.201995 
L 83.531241 276.147184 
L 84.147233 276.217201 
L 84.611173 276.389773 
L 85.226458 277.024167 
L 85.833256 277.467252 
L 87.013613 277.768713 
L 88.140929 277.891993 
L 88.681249 277.854333 
L 89.205302 277.649941 
L 89.713089 277.266263 
L 91.164313 275.613445 
L 92.778907 273.822715 
L 93.916124 272.842835 
L 95.628314 271.948177 
L 97.353236 271.196912 
L 99.083107 270.553855 
L 101.969289 269.27941 
L 103.700575 268.583663 
L 111.17523 264.85598 
L 112.901564 264.007293 
L 114.628606 263.056763 
L 122.875548 259.072884 
L 137.923869 251.716889 
L 144.478983 248.099559 
L 150.11344 245.275552 
L 152.554778 244.055211 
L 156.582421 241.817152 
L 160.030848 239.96666 
L 161.751525 239.036287 
L 164.616491 237.480006 
L 167.47297 235.993389 
L 171.444742 233.510979 
L 173.159762 232.420062 
L 181.268797 228.065236 
L 184.720759 226.232425 
L 186.998729 224.856845 
L 190.985353 222.377617 
L 197.301574 218.562415 
L 199.032152 217.547526 
L 202.270776 215.451396 
L 208.835233 211.599063 
L 213.517766 208.843659 
L 215.375644 207.669288 
L 217.109759 206.592516 
L 223.378596 202.405659 
L 226.202543 200.676105 
L 229.034977 198.894215 
L 230.921852 197.658315 
L 237.042879 193.464385 
L 250.176036 184.567663 
L 253.043831 182.469991 
L 257.645033 179.312521 
L 264.491761 174.346849 
L 267.914727 171.704957 
L 278.817299 163.567461 
L 280.540805 162.202843 
L 283.896585 159.70947 
L 292.823171 152.701082 
L 297.567233 148.78439 
L 305.536945 142.404384 
L 313.931698 135.349672 
L 317.682994 132.182267 
L 324.229063 126.231555 
L 327.509877 123.362285 
L 333.645049 118.033944 
L 335.985961 116.028921 
L 339.324061 112.885949 
L 348.988282 103.582215 
L 351.859613 100.82186 
L 357.610055 95.348535 
L 361.314497 91.813741 
L 363.750178 89.372351 
L 385.025831 66.739553 
L 387.913428 63.517459 
L 390.162402 61.206333 
L 395.246991 55.669091 
L 397.216081 53.862455 
L 398.281957 53.607876 
L 398.487273 54.946277 
L 398.370979 73.913713 
L 398.37131 88.831026 
L 398.362602 88.82318 
L 397.895878 89.032567 
L 396.957303 90.901005 
L 395.505902 91.426307 
L 394.562288 92.140795 
L 394.093221 92.320302 
L 393.610364 92.832255 
L 393.133694 93.04688 
L 392.647124 94.34431 
L 391.199082 96.476294 
L 390.245213 96.918761 
L 389.290637 97.628476 
L 388.349056 98.875449 
L 387.871282 100.030968 
L 387.407166 100.677119 
L 386.451794 101.516789 
L 385.972473 101.861303 
L 380.758549 107.84667 
L 380.278344 108.169259 
L 378.874415 109.663568 
L 376.988778 111.775031 
L 375.556405 113.158678 
L 373.646457 115.3345 
L 372.700191 116.165153 
L 371.742521 117.083591 
L 369.836728 119.104351 
L 368.884096 120.070175 
L 367.462045 121.608243 
L 365.596033 123.417715 
L 363.730884 125.324532 
L 361.84507 127.188373 
L 359.45306 129.555945 
L 358.491853 130.484285 
L 357.079968 131.970725 
L 355.176651 133.64149 
L 354.221456 134.746728 
L 348.031872 140.370187 
L 347.077649 141.253441 
L 346.123957 141.899239 
L 343.742821 144.165322 
L 342.79461 144.822878 
L 342.32846 145.488213 
L 340.879822 146.753409 
L 339.929312 147.314029 
L 338.979775 148.58317 
L 337.541811 149.582808 
L 336.599258 150.373502 
L 336.130545 151.133607 
L 334.689221 152.051472 
L 334.219624 152.349573 
L 333.750558 152.804107 
L 333.274242 153.506838 
L 332.338584 154.062109 
L 331.369952 154.693386 
L 330.892487 155.282119 
L 330.410668 156.163361 
L 328.018305 157.526123 
L 327.55304 158.568417 
L 326.116225 159.443626 
L 325.173848 159.924095 
L 324.705135 160.986546 
L 324.238367 161.37387 
L 322.351316 162.341031 
L 321.386485 163.7897 
L 319.015957 165.234203 
L 318.551797 166.062922 
L 316.181092 167.431651 
L 315.712998 168.268315 
L 313.339553 169.855603 
L 312.865359 170.682543 
L 310.961864 171.599656 
L 310.49545 171.891458 
L 310.030538 172.818118 
L 307.662486 174.073557 
L 307.181065 174.991222 
L 306.225781 175.609172 
L 304.796215 176.284475 
L 304.319635 177.099127 
L 303.836866 177.509856 
L 301.936554 178.438682 
L 301.46068 179.257842 
L 300.991171 179.711801 
L 299.10465 180.430113 
L 298.640888 180.992667 
L 298.160064 181.897491 
L 295.772916 182.995668 
L 295.289815 183.925533 
L 294.343814 184.546445 
L 292.90921 185.131542 
L 292.441204 185.960604 
L 291.964446 186.394141 
L 290.036994 187.216904 
L 289.572436 187.886925 
L 289.08896 188.363339 
L 288.132616 188.928865 
L 287.187057 189.24436 
L 286.247421 190.268531 
L 283.896032 191.856554 
L 283.425993 192.37611 
L 281.039288 193.855787 
L 280.56527 194.412208 
L 280.084093 194.751152 
L 278.656383 195.381347 
L 278.181924 195.70208 
L 277.228851 196.694955 
L 275.33013 197.692649 
L 274.3752 198.599153 
L 273.413552 199.021596 
L 272.455705 199.672919 
L 271.501482 200.694118 
L 270.5561 201.0221 
L 269.617437 201.472921 
L 268.188048 202.98796 
L 267.237361 203.265806 
L 266.281459 203.733976 
L 265.333955 204.847613 
L 263.429842 205.596358 
L 262.960952 205.934153 
L 262.002663 206.940113 
L 260.560257 207.549825 
L 260.075101 207.865298 
L 259.142437 208.816535 
L 256.77412 210.099334 
L 255.833158 210.903908 
L 254.401558 211.532257 
L 253.457149 212.281577 
L 252.981275 212.706981 
L 252.038545 213.126595 
L 251.09219 213.577239 
L 249.680659 214.714878 
L 247.75618 215.655053 
L 246.822909 216.427535 
L 244.449198 217.694952 
L 243.498689 218.452494 
L 241.593072 219.378226 
L 240.659536 220.298433 
L 238.296699 221.314648 
L 237.337316 222.290787 
L 234.959274 223.591135 
L 234.49171 224.000361 
L 233.069129 224.580696 
L 232.133294 225.173848 
L 231.66741 225.683503 
L 230.701872 226.145882 
L 229.263642 226.81818 
L 228.311453 227.602773 
L 224.498795 229.695268 
L 223.568265 230.049816 
L 221.19146 231.544345 
L 220.241304 231.960998 
L 214.074263 235.56112 
L 213.118273 235.990071 
L 209.307836 238.172214 
L 208.348221 238.709672 
L 199.762715 243.179748 
L 198.81583 243.739373 
L 197.875575 244.188116 
L 195.47225 245.570283 
L 194.521917 245.865898 
L 193.087666 246.675112 
L 192.130438 247.211178 
L 190.256967 248.144435 
L 185.039154 250.72387 
L 182.205482 252.226798 
L 172.2754 257.18135 
L 170.833192 257.891507 
L 157.548611 264.086121 
L 156.609506 264.383714 
L 155.653675 265.003308 
L 154.222076 265.467876 
L 153.75796 265.620375 
L 152.332461 266.472996 
L 151.366569 266.776374 
L 150.402269 267.10387 
L 149.449284 267.713378 
L 148.029001 268.332146 
L 147.564177 268.43579 
L 145.203727 269.616902 
L 143.787499 270.139299 
L 142.847598 270.717733 
L 140.487679 271.611042 
L 139.551137 272.063742 
L 138.611236 272.359456 
L 136.240266 273.528501 
L 135.296298 273.833177 
L 133.391389 274.779463 
L 131.485933 275.456116 
L 127.715278 277.17442 
L 126.303481 277.610411 
L 122.970863 279.037355 
L 122.006032 279.47149 
L 120.101178 279.984459 
L 118.677093 280.754532 
L 116.773157 281.375047 
L 115.820879 281.869274 
L 113.42162 282.698656 
L 112.47279 283.234169 
L 109.136934 284.399788 
L 108.180325 284.931897 
L 106.273471 285.435474 
L 104.837982 286.083394 
L 97.689035 288.738735 
L 96.741179 288.977396 
L 95.795619 289.494918 
L 94.369325 289.78719 
L 93.413422 290.133011 
L 92.936311 290.404635 
L 91.513906 290.77756 
L 89.625175 291.613246 
L 88.672013 291.577835 
L 87.727692 291.970906 
L 87.255708 292.281914 
L 86.298654 292.42874 
L 85.343548 292.583177 
L 84.872625 292.671568 
L 84.398254 293.098564 
L 83.923883 293.314913 
L 82.976026 293.330133 
L 82.031969 293.572343 
L 81.566262 293.975734 
L 81.102765 294.21319 
L 79.184949 294.375825 
L 78.709694 294.771216 
L 78.230992 294.951385 
L 76.324492 295.035176 
L 75.843491 295.380171 
L 75.359837 295.488 
L 74.079866 295.19671 
L 73.92432 295.32034 
L 73.83286 294.658149 
L 73.83286 294.658149 
" clip-path="url(#pcc52840f4c)" style="fill: none; stroke: #000000; stroke-width: 1.5; stroke-linecap: square"/>
   </g>
   <g id="patch_3">
    <path d="M 57.6 307.584 
L 57.6 41.472 
" style="fill: none; stroke: #000000; stroke-width: 0.8; stroke-linejoin: miter; stroke-linecap: square"/>
   </g>
   <g id="patch_4">
    <path d="M 414.72 307.584 
L 414.72 41.472 
" style="fill: none; stroke: #000000; stroke-width: 0.8; stroke-linejoin: miter; stroke-linecap: square"/>
   </g>
   <g id="patch_5">
    <path d="M 57.6 307.584 
L 414.72 307.584 
" style="fill: none; stroke: #000000; stroke-width: 0.8; stroke-linejoin: miter; stroke-linecap: square"/>
   </g>
   <g id="patch_6">
    <path d="M 57.6 41.472 
L 414.72 41.472 
" style="fill: none; stroke: #000000; stroke-width: 0.8; stroke-linejoin: miter; stroke-linecap: square"/>
   </g>
   <g id="text_15">
    <!-- 2025-06-19 trial 27 -->
    <g transform="translate(178.0125 35.472) scale(0.12 -0.12)">
     <defs>
      <path id="DejaVuSans-2d" d="M 313 2009 
L 1997 2009 
L 1997 1497 
L 313 1497 
L 313 2009 
z
" transform="scale(0.015625)"/>
      <path id="DejaVuSans-36" d="M 2113 2584 
Q 1688 2584 1439 2293 
Q 1191 2003 1191 1497 
Q 1191 994 1439 701 
Q 1688 409 2113 409 
Q 2538 409 2786 701 
Q 3034 994 3034 1497 
Q 3034 2003 2786 2293 
Q 2538 2584 2113 2584 
z
M 3366 4563 
L 3366 3988 
Q 3128 4100 2886 4159 
Q 2644 4219 2406 4219 
Q 1781 4219 1451 3797 
Q 1122 3375 1075 2522 
Q 1259 2794 1537 2939 
Q 1816 3084 2150 3084 
Q 2853 3084 3261 2657 
Q 3669 2231 3669 1497 
Q 3669 778 3244 343 
Q 2819 -91 2113 -91 
Q 1303 -91 875 529 
Q 447 1150 447 2328 
Q 447 3434 972 4092 
Q 1497 4750 2381 4750 
Q 2619 4750 2861 4703 
Q 3103 4656 3366 4563 
z
" transform="scale(0.015625)"/>
      <path id="DejaVuSans-39" d="M 703 97 
L 703 672 
Q 941 559 1184 500 
Q 1428 441 1663 441 
Q 2288 441 2617 861 
Q 2947 1281 2994 2138 
Q 2813 1869 2534 1725 
Q 2256 1581 1919 1581 
Q 1219 1581 811 2004 
Q 403 2428 403 3163 
Q 403 3881 828 4315 
Q 1253 4750 1959 4750 
Q 2769 4750 3195 4129 
Q 3622 3509 3622 2328 
Q 3622 1225 3098 567 
Q 2575 -91 1691 -91 
Q 1453 -91 1209 -44 
Q 966 3 703 97 
z
M 1959 2075 
Q 2384 2075 2632 2365 
Q 2881 2656 2881 3163 
Q 2881 3666 2632 3958 
Q 2384 4250 1959 4250 
Q 1534 4250 1286 3958 
Q 1038 3666 1038 3163 
Q 1038 2656 1286 2365 
Q 1534 2075 1959 2075 
z
" transform="scale(0.015625)"/>
      <path id="DejaVuSans-6c" d="M 603 4863 
L 1178 4863 
L 1178 0 
L 603 0 
L 603 4863 
z
" transform="scale(0.015625)"/>
      <path id="DejaVuSans-37" d="M 525 4666 
L 3525 4666 
L 3525 4397 
L 1831 0 
L 1172 0 
L 2766 4134 
L 525 4134 
L 525 4666 
z
" transform="scale(0.015625)"/>
     </defs>
     <use xlink:href="#DejaVuSans-32"/>
     <use xlink:href="#DejaVuSans-30" transform="translate(63.623047 0)"/>
     <use xlink:href="#DejaVuSans-32" transform="translate(127.246094 0)"/>
     <use xlink:href="#DejaVuSans-35" transform="translate(190.869141 0)"/>
     <use xlink:href="#DejaVuSans-2d" transform="translate(254.492188 0)"/>
     <use xlink:href="#DejaVuSans-30" transform="translate(290.576172 0)"/>
     <use xlink:href="#DejaVuSans-36" transform="translate(354.199219 0)"/>
     <use xlink:href="#DejaVuSans-2d" transform="translate(417.822266 0)"/>
     <use xlink:href="#DejaVuSans-31" transform="translate(453.90625 0)"/>
     <use xlink:href="#DejaVuSans-39" transform="translate(517.529297 0)"/>
     <use xlink:href="#DejaVuSans-20" transform="translate(581.152344 0)"/>
     <use xlink:href="#DejaVuSans-74" transform="translate(612.939453 0)"/>
     <use xlink:href="#DejaVuSans-72" transform="translate(652.148438 0)"/>
     <use xlink:href="#DejaVuSans-69" transform="translate(693.261719 0)"/>
     <use xlink:href="#DejaVuSans-61" transform="translate(721.044922 0)"/>
     <use xlink:href="#DejaVuSans-6c" transform="translate(782.324219 0)"/>
     <use xlink:href="#DejaVuSans-20" transform="translate(810.107422 0)"/>
     <use xlink:href="#DejaVuSans-32" transform="translate(841.894531 0)"/>
     <use xlink:href="#DejaVuSans-37" transform="translate(905.517578 0)"/>
    </g>
   </g>
  </g>
 </g>
 <defs>
  <clipPath id="pcc52840f4c">
   <rect x="57.6" y="41.472" width="357.12" height="266.112"/>
  </clipPath>
 </defs>
</svg>
