<?xml version="1.0" encoding="utf-8" standalone="no"?>
<!DOCTYPE svg PUBLIC "-//W3C//DTD SVG 1.1//EN"
  "http://www.w3.org/Graphics/SVG/1.1/DTD/svg11.dtd">
<svg xmlns:xlink="http://www.w3.org/1999/xlink" width="460.8pt" height="345.6pt" viewBox="0 0 460.8 345.6" xmlns="http://www.w3.org/2000/svg" version="1.1">
 <metadata>
  <rdf:RDF xmlns:dc="http://purl.org/dc/elements/1.1/" xmlns:cc="http://creativecommons.org/ns#" xmlns:rdf="http://www.w3.org/1999/02/22-rdf-syntax-ns#">
   <cc:Work>
    <dc:type rdf:resource="http://purl.org/dc/dcmitype/StillImage"/>
    <dc:date>2025-07-16T22:11:26.416435</dc:date>
    <dc:format>image/svg+xml</dc:format>
    <dc:creator>
     <cc:Agent>
      <dc:title>Matplotlib v3.10.3, https://matplotlib.org/</dc:title>
     </cc:Agent>
    </dc:creator>
   </cc:Work>
  </rdf:RDF>
 </metadata>
 <defs>
  <style type="text/css">*{stroke-linejoin: round; stroke-linecap: butt}</style>
 </defs>
 <g id="figure_1">
  <g id="patch_1">
   <path d="M 0 345.6 
L 460.8 345.6 
L 460.8 0 
L 0 0 
z
" style="fill: #ffffff"/>
  </g>
  <g id="axes_1">
   <g id="patch_2">
    <path d="M 57.6 307.584 
L 414.72 307.584 
L 414.72 41.472 
L 57.6 41.472 
z
" style="fill: #ffffff"/>
   </g>
   <g id="matplotlib.axis_1">
    <g id="xtick_1">
     <g id="line2d_1">
      <defs>
       <path id="mea3f763f27" d="M 0 0 
L 0 3.5 
" style="stroke: #000000; stroke-width: 0.8"/>
      </defs>
      <g>
       <use xlink:href="#mea3f763f27" x="59.729213" y="307.584" style="stroke: #000000; stroke-width: 0.8"/>
      </g>
     </g>
     <g id="text_1">
      <!-- −0.05 -->
      <g transform="translate(44.406557 322.182437) scale(0.1 -0.1)">
       <defs>
        <path id="DejaVuSans-2212" d="M 678 2272 
L 4684 2272 
L 4684 1741 
L 678 1741 
L 678 2272 
z
" transform="scale(0.015625)"/>
        <path id="DejaVuSans-30" d="M 2034 4250 
Q 1547 4250 1301 3770 
Q 1056 3291 1056 2328 
Q 1056 1369 1301 889 
Q 1547 409 2034 409 
Q 2525 409 2770 889 
Q 3016 1369 3016 2328 
Q 3016 3291 2770 3770 
Q 2525 4250 2034 4250 
z
M 2034 4750 
Q 2819 4750 3233 4129 
Q 3647 3509 3647 2328 
Q 3647 1150 3233 529 
Q 2819 -91 2034 -91 
Q 1250 -91 836 529 
Q 422 1150 422 2328 
Q 422 3509 836 4129 
Q 1250 4750 2034 4750 
z
" transform="scale(0.015625)"/>
        <path id="DejaVuSans-2e" d="M 684 794 
L 1344 794 
L 1344 0 
L 684 0 
L 684 794 
z
" transform="scale(0.015625)"/>
        <path id="DejaVuSans-35" d="M 691 4666 
L 3169 4666 
L 3169 4134 
L 1269 4134 
L 1269 2991 
Q 1406 3038 1543 3061 
Q 1681 3084 1819 3084 
Q 2600 3084 3056 2656 
Q 3513 2228 3513 1497 
Q 3513 744 3044 326 
Q 2575 -91 1722 -91 
Q 1428 -91 1123 -41 
Q 819 9 494 109 
L 494 744 
Q 775 591 1075 516 
Q 1375 441 1709 441 
Q 2250 441 2565 725 
Q 2881 1009 2881 1497 
Q 2881 1984 2565 2268 
Q 2250 2553 1709 2553 
Q 1456 2553 1204 2497 
Q 953 2441 691 2322 
L 691 4666 
z
" transform="scale(0.015625)"/>
       </defs>
       <use xlink:href="#DejaVuSans-2212"/>
       <use xlink:href="#DejaVuSans-30" transform="translate(83.789062 0)"/>
       <use xlink:href="#DejaVuSans-2e" transform="translate(147.412109 0)"/>
       <use xlink:href="#DejaVuSans-30" transform="translate(179.199219 0)"/>
       <use xlink:href="#DejaVuSans-35" transform="translate(242.822266 0)"/>
      </g>
     </g>
    </g>
    <g id="xtick_2">
     <g id="line2d_2">
      <g>
       <use xlink:href="#mea3f763f27" x="114.473823" y="307.584" style="stroke: #000000; stroke-width: 0.8"/>
      </g>
     </g>
     <g id="text_2">
      <!-- 0.00 -->
      <g transform="translate(103.341011 322.182437) scale(0.1 -0.1)">
       <use xlink:href="#DejaVuSans-30"/>
       <use xlink:href="#DejaVuSans-2e" transform="translate(63.623047 0)"/>
       <use xlink:href="#DejaVuSans-30" transform="translate(95.410156 0)"/>
       <use xlink:href="#DejaVuSans-30" transform="translate(159.033203 0)"/>
      </g>
     </g>
    </g>
    <g id="xtick_3">
     <g id="line2d_3">
      <g>
       <use xlink:href="#mea3f763f27" x="169.218434" y="307.584" style="stroke: #000000; stroke-width: 0.8"/>
      </g>
     </g>
     <g id="text_3">
      <!-- 0.05 -->
      <g transform="translate(158.085621 322.182437) scale(0.1 -0.1)">
       <use xlink:href="#DejaVuSans-30"/>
       <use xlink:href="#DejaVuSans-2e" transform="translate(63.623047 0)"/>
       <use xlink:href="#DejaVuSans-30" transform="translate(95.410156 0)"/>
       <use xlink:href="#DejaVuSans-35" transform="translate(159.033203 0)"/>
      </g>
     </g>
    </g>
    <g id="xtick_4">
     <g id="line2d_4">
      <g>
       <use xlink:href="#mea3f763f27" x="223.963044" y="307.584" style="stroke: #000000; stroke-width: 0.8"/>
      </g>
     </g>
     <g id="text_4">
      <!-- 0.10 -->
      <g transform="translate(212.830231 322.182437) scale(0.1 -0.1)">
       <defs>
        <path id="DejaVuSans-31" d="M 794 531 
L 1825 531 
L 1825 4091 
L 703 3866 
L 703 4441 
L 1819 4666 
L 2450 4666 
L 2450 531 
L 3481 531 
L 3481 0 
L 794 0 
L 794 531 
z
" transform="scale(0.015625)"/>
       </defs>
       <use xlink:href="#DejaVuSans-30"/>
       <use xlink:href="#DejaVuSans-2e" transform="translate(63.623047 0)"/>
       <use xlink:href="#DejaVuSans-31" transform="translate(95.410156 0)"/>
       <use xlink:href="#DejaVuSans-30" transform="translate(159.033203 0)"/>
      </g>
     </g>
    </g>
    <g id="xtick_5">
     <g id="line2d_5">
      <g>
       <use xlink:href="#mea3f763f27" x="278.707654" y="307.584" style="stroke: #000000; stroke-width: 0.8"/>
      </g>
     </g>
     <g id="text_5">
      <!-- 0.15 -->
      <g transform="translate(267.574842 322.182437) scale(0.1 -0.1)">
       <use xlink:href="#DejaVuSans-30"/>
       <use xlink:href="#DejaVuSans-2e" transform="translate(63.623047 0)"/>
       <use xlink:href="#DejaVuSans-31" transform="translate(95.410156 0)"/>
       <use xlink:href="#DejaVuSans-35" transform="translate(159.033203 0)"/>
      </g>
     </g>
    </g>
    <g id="xtick_6">
     <g id="line2d_6">
      <g>
       <use xlink:href="#mea3f763f27" x="333.452265" y="307.584" style="stroke: #000000; stroke-width: 0.8"/>
      </g>
     </g>
     <g id="text_6">
      <!-- 0.20 -->
      <g transform="translate(322.319452 322.182437) scale(0.1 -0.1)">
       <defs>
        <path id="DejaVuSans-32" d="M 1228 531 
L 3431 531 
L 3431 0 
L 469 0 
L 469 531 
Q 828 903 1448 1529 
Q 2069 2156 2228 2338 
Q 2531 2678 2651 2914 
Q 2772 3150 2772 3378 
Q 2772 3750 2511 3984 
Q 2250 4219 1831 4219 
Q 1534 4219 1204 4116 
Q 875 4013 500 3803 
L 500 4441 
Q 881 4594 1212 4672 
Q 1544 4750 1819 4750 
Q 2544 4750 2975 4387 
Q 3406 4025 3406 3419 
Q 3406 3131 3298 2873 
Q 3191 2616 2906 2266 
Q 2828 2175 2409 1742 
Q 1991 1309 1228 531 
z
" transform="scale(0.015625)"/>
       </defs>
       <use xlink:href="#DejaVuSans-30"/>
       <use xlink:href="#DejaVuSans-2e" transform="translate(63.623047 0)"/>
       <use xlink:href="#DejaVuSans-32" transform="translate(95.410156 0)"/>
       <use xlink:href="#DejaVuSans-30" transform="translate(159.033203 0)"/>
      </g>
     </g>
    </g>
    <g id="xtick_7">
     <g id="line2d_7">
      <g>
       <use xlink:href="#mea3f763f27" x="388.196875" y="307.584" style="stroke: #000000; stroke-width: 0.8"/>
      </g>
     </g>
     <g id="text_7">
      <!-- 0.25 -->
      <g transform="translate(377.064063 322.182437) scale(0.1 -0.1)">
       <use xlink:href="#DejaVuSans-30"/>
       <use xlink:href="#DejaVuSans-2e" transform="translate(63.623047 0)"/>
       <use xlink:href="#DejaVuSans-32" transform="translate(95.410156 0)"/>
       <use xlink:href="#DejaVuSans-35" transform="translate(159.033203 0)"/>
      </g>
     </g>
    </g>
    <g id="text_8">
     <!-- Strain -->
     <g transform="translate(221.348281 335.860562) scale(0.1 -0.1)">
      <defs>
       <path id="DejaVuSans-53" d="M 3425 4513 
L 3425 3897 
Q 3066 4069 2747 4153 
Q 2428 4238 2131 4238 
Q 1616 4238 1336 4038 
Q 1056 3838 1056 3469 
Q 1056 3159 1242 3001 
Q 1428 2844 1947 2747 
L 2328 2669 
Q 3034 2534 3370 2195 
Q 3706 1856 3706 1288 
Q 3706 609 3251 259 
Q 2797 -91 1919 -91 
Q 1588 -91 1214 -16 
Q 841 59 441 206 
L 441 856 
Q 825 641 1194 531 
Q 1563 422 1919 422 
Q 2459 422 2753 634 
Q 3047 847 3047 1241 
Q 3047 1584 2836 1778 
Q 2625 1972 2144 2069 
L 1759 2144 
Q 1053 2284 737 2584 
Q 422 2884 422 3419 
Q 422 4038 858 4394 
Q 1294 4750 2059 4750 
Q 2388 4750 2728 4690 
Q 3069 4631 3425 4513 
z
" transform="scale(0.015625)"/>
       <path id="DejaVuSans-74" d="M 1172 4494 
L 1172 3500 
L 2356 3500 
L 2356 3053 
L 1172 3053 
L 1172 1153 
Q 1172 725 1289 603 
Q 1406 481 1766 481 
L 2356 481 
L 2356 0 
L 1766 0 
Q 1100 0 847 248 
Q 594 497 594 1153 
L 594 3053 
L 172 3053 
L 172 3500 
L 594 3500 
L 594 4494 
L 1172 4494 
z
" transform="scale(0.015625)"/>
       <path id="DejaVuSans-72" d="M 2631 2963 
Q 2534 3019 2420 3045 
Q 2306 3072 2169 3072 
Q 1681 3072 1420 2755 
Q 1159 2438 1159 1844 
L 1159 0 
L 581 0 
L 581 3500 
L 1159 3500 
L 1159 2956 
Q 1341 3275 1631 3429 
Q 1922 3584 2338 3584 
Q 2397 3584 2469 3576 
Q 2541 3569 2628 3553 
L 2631 2963 
z
" transform="scale(0.015625)"/>
       <path id="DejaVuSans-61" d="M 2194 1759 
Q 1497 1759 1228 1600 
Q 959 1441 959 1056 
Q 959 750 1161 570 
Q 1363 391 1709 391 
Q 2188 391 2477 730 
Q 2766 1069 2766 1631 
L 2766 1759 
L 2194 1759 
z
M 3341 1997 
L 3341 0 
L 2766 0 
L 2766 531 
Q 2569 213 2275 61 
Q 1981 -91 1556 -91 
Q 1019 -91 701 211 
Q 384 513 384 1019 
Q 384 1609 779 1909 
Q 1175 2209 1959 2209 
L 2766 2209 
L 2766 2266 
Q 2766 2663 2505 2880 
Q 2244 3097 1772 3097 
Q 1472 3097 1187 3025 
Q 903 2953 641 2809 
L 641 3341 
Q 956 3463 1253 3523 
Q 1550 3584 1831 3584 
Q 2591 3584 2966 3190 
Q 3341 2797 3341 1997 
z
" transform="scale(0.015625)"/>
       <path id="DejaVuSans-69" d="M 603 3500 
L 1178 3500 
L 1178 0 
L 603 0 
L 603 3500 
z
M 603 4863 
L 1178 4863 
L 1178 4134 
L 603 4134 
L 603 4863 
z
" transform="scale(0.015625)"/>
       <path id="DejaVuSans-6e" d="M 3513 2113 
L 3513 0 
L 2938 0 
L 2938 2094 
Q 2938 2591 2744 2837 
Q 2550 3084 2163 3084 
Q 1697 3084 1428 2787 
Q 1159 2491 1159 1978 
L 1159 0 
L 581 0 
L 581 3500 
L 1159 3500 
L 1159 2956 
Q 1366 3272 1645 3428 
Q 1925 3584 2291 3584 
Q 2894 3584 3203 3211 
Q 3513 2838 3513 2113 
z
" transform="scale(0.015625)"/>
      </defs>
      <use xlink:href="#DejaVuSans-53"/>
      <use xlink:href="#DejaVuSans-74" transform="translate(63.476562 0)"/>
      <use xlink:href="#DejaVuSans-72" transform="translate(102.685547 0)"/>
      <use xlink:href="#DejaVuSans-61" transform="translate(143.798828 0)"/>
      <use xlink:href="#DejaVuSans-69" transform="translate(205.078125 0)"/>
      <use xlink:href="#DejaVuSans-6e" transform="translate(232.861328 0)"/>
     </g>
    </g>
   </g>
   <g id="matplotlib.axis_2">
    <g id="ytick_1">
     <g id="line2d_8">
      <defs>
       <path id="mbd944daf60" d="M 0 0 
L -3.5 0 
" style="stroke: #000000; stroke-width: 0.8"/>
      </defs>
      <g>
       <use xlink:href="#mbd944daf60" x="57.6" y="295.051556" style="stroke: #000000; stroke-width: 0.8"/>
      </g>
     </g>
     <g id="text_9">
      <!-- −250 -->
      <g transform="translate(23.132812 298.850775) scale(0.1 -0.1)">
       <use xlink:href="#DejaVuSans-2212"/>
       <use xlink:href="#DejaVuSans-32" transform="translate(83.789062 0)"/>
       <use xlink:href="#DejaVuSans-35" transform="translate(147.412109 0)"/>
       <use xlink:href="#DejaVuSans-30" transform="translate(211.035156 0)"/>
      </g>
     </g>
    </g>
    <g id="ytick_2">
     <g id="line2d_9">
      <g>
       <use xlink:href="#mbd944daf60" x="57.6" y="262.772643" style="stroke: #000000; stroke-width: 0.8"/>
      </g>
     </g>
     <g id="text_10">
      <!-- 0 -->
      <g transform="translate(44.2375 266.571862) scale(0.1 -0.1)">
       <use xlink:href="#DejaVuSans-30"/>
      </g>
     </g>
    </g>
    <g id="ytick_3">
     <g id="line2d_10">
      <g>
       <use xlink:href="#mbd944daf60" x="57.6" y="230.493731" style="stroke: #000000; stroke-width: 0.8"/>
      </g>
     </g>
     <g id="text_11">
      <!-- 250 -->
      <g transform="translate(31.5125 234.292949) scale(0.1 -0.1)">
       <use xlink:href="#DejaVuSans-32"/>
       <use xlink:href="#DejaVuSans-35" transform="translate(63.623047 0)"/>
       <use xlink:href="#DejaVuSans-30" transform="translate(127.246094 0)"/>
      </g>
     </g>
    </g>
    <g id="ytick_4">
     <g id="line2d_11">
      <g>
       <use xlink:href="#mbd944daf60" x="57.6" y="198.214818" style="stroke: #000000; stroke-width: 0.8"/>
      </g>
     </g>
     <g id="text_12">
      <!-- 500 -->
      <g transform="translate(31.5125 202.014037) scale(0.1 -0.1)">
       <use xlink:href="#DejaVuSans-35"/>
       <use xlink:href="#DejaVuSans-30" transform="translate(63.623047 0)"/>
       <use xlink:href="#DejaVuSans-30" transform="translate(127.246094 0)"/>
      </g>
     </g>
    </g>
    <g id="ytick_5">
     <g id="line2d_12">
      <g>
       <use xlink:href="#mbd944daf60" x="57.6" y="165.935905" style="stroke: #000000; stroke-width: 0.8"/>
      </g>
     </g>
     <g id="text_13">
      <!-- 750 -->
      <g transform="translate(31.5125 169.735124) scale(0.1 -0.1)">
       <defs>
        <path id="DejaVuSans-37" d="M 525 4666 
L 3525 4666 
L 3525 4397 
L 1831 0 
L 1172 0 
L 2766 4134 
L 525 4134 
L 525 4666 
z
" transform="scale(0.015625)"/>
       </defs>
       <use xlink:href="#DejaVuSans-37"/>
       <use xlink:href="#DejaVuSans-35" transform="translate(63.623047 0)"/>
       <use xlink:href="#DejaVuSans-30" transform="translate(127.246094 0)"/>
      </g>
     </g>
    </g>
    <g id="ytick_6">
     <g id="line2d_13">
      <g>
       <use xlink:href="#mbd944daf60" x="57.6" y="133.656992" style="stroke: #000000; stroke-width: 0.8"/>
      </g>
     </g>
     <g id="text_14">
      <!-- 1000 -->
      <g transform="translate(25.15 137.456211) scale(0.1 -0.1)">
       <use xlink:href="#DejaVuSans-31"/>
       <use xlink:href="#DejaVuSans-30" transform="translate(63.623047 0)"/>
       <use xlink:href="#DejaVuSans-30" transform="translate(127.246094 0)"/>
       <use xlink:href="#DejaVuSans-30" transform="translate(190.869141 0)"/>
      </g>
     </g>
    </g>
    <g id="ytick_7">
     <g id="line2d_14">
      <g>
       <use xlink:href="#mbd944daf60" x="57.6" y="101.37808" style="stroke: #000000; stroke-width: 0.8"/>
      </g>
     </g>
     <g id="text_15">
      <!-- 1250 -->
      <g transform="translate(25.15 105.177299) scale(0.1 -0.1)">
       <use xlink:href="#DejaVuSans-31"/>
       <use xlink:href="#DejaVuSans-32" transform="translate(63.623047 0)"/>
       <use xlink:href="#DejaVuSans-35" transform="translate(127.246094 0)"/>
       <use xlink:href="#DejaVuSans-30" transform="translate(190.869141 0)"/>
      </g>
     </g>
    </g>
    <g id="ytick_8">
     <g id="line2d_15">
      <g>
       <use xlink:href="#mbd944daf60" x="57.6" y="69.099167" style="stroke: #000000; stroke-width: 0.8"/>
      </g>
     </g>
     <g id="text_16">
      <!-- 1500 -->
      <g transform="translate(25.15 72.898386) scale(0.1 -0.1)">
       <use xlink:href="#DejaVuSans-31"/>
       <use xlink:href="#DejaVuSans-35" transform="translate(63.623047 0)"/>
       <use xlink:href="#DejaVuSans-30" transform="translate(127.246094 0)"/>
       <use xlink:href="#DejaVuSans-30" transform="translate(190.869141 0)"/>
      </g>
     </g>
    </g>
    <g id="text_17">
     <!-- Stress [Pa] -->
     <g transform="translate(17.053125 201.235813) rotate(-90) scale(0.1 -0.1)">
      <defs>
       <path id="DejaVuSans-65" d="M 3597 1894 
L 3597 1613 
L 953 1613 
Q 991 1019 1311 708 
Q 1631 397 2203 397 
Q 2534 397 2845 478 
Q 3156 559 3463 722 
L 3463 178 
Q 3153 47 2828 -22 
Q 2503 -91 2169 -91 
Q 1331 -91 842 396 
Q 353 884 353 1716 
Q 353 2575 817 3079 
Q 1281 3584 2069 3584 
Q 2775 3584 3186 3129 
Q 3597 2675 3597 1894 
z
M 3022 2063 
Q 3016 2534 2758 2815 
Q 2500 3097 2075 3097 
Q 1594 3097 1305 2825 
Q 1016 2553 972 2059 
L 3022 2063 
z
" transform="scale(0.015625)"/>
       <path id="DejaVuSans-73" d="M 2834 3397 
L 2834 2853 
Q 2591 2978 2328 3040 
Q 2066 3103 1784 3103 
Q 1356 3103 1142 2972 
Q 928 2841 928 2578 
Q 928 2378 1081 2264 
Q 1234 2150 1697 2047 
L 1894 2003 
Q 2506 1872 2764 1633 
Q 3022 1394 3022 966 
Q 3022 478 2636 193 
Q 2250 -91 1575 -91 
Q 1294 -91 989 -36 
Q 684 19 347 128 
L 347 722 
Q 666 556 975 473 
Q 1284 391 1588 391 
Q 1994 391 2212 530 
Q 2431 669 2431 922 
Q 2431 1156 2273 1281 
Q 2116 1406 1581 1522 
L 1381 1569 
Q 847 1681 609 1914 
Q 372 2147 372 2553 
Q 372 3047 722 3315 
Q 1072 3584 1716 3584 
Q 2034 3584 2315 3537 
Q 2597 3491 2834 3397 
z
" transform="scale(0.015625)"/>
       <path id="DejaVuSans-20" transform="scale(0.015625)"/>
       <path id="DejaVuSans-5b" d="M 550 4863 
L 1875 4863 
L 1875 4416 
L 1125 4416 
L 1125 -397 
L 1875 -397 
L 1875 -844 
L 550 -844 
L 550 4863 
z
" transform="scale(0.015625)"/>
       <path id="DejaVuSans-50" d="M 1259 4147 
L 1259 2394 
L 2053 2394 
Q 2494 2394 2734 2622 
Q 2975 2850 2975 3272 
Q 2975 3691 2734 3919 
Q 2494 4147 2053 4147 
L 1259 4147 
z
M 628 4666 
L 2053 4666 
Q 2838 4666 3239 4311 
Q 3641 3956 3641 3272 
Q 3641 2581 3239 2228 
Q 2838 1875 2053 1875 
L 1259 1875 
L 1259 0 
L 628 0 
L 628 4666 
z
" transform="scale(0.015625)"/>
       <path id="DejaVuSans-5d" d="M 1947 4863 
L 1947 -844 
L 622 -844 
L 622 -397 
L 1369 -397 
L 1369 4416 
L 622 4416 
L 622 4863 
L 1947 4863 
z
" transform="scale(0.015625)"/>
      </defs>
      <use xlink:href="#DejaVuSans-53"/>
      <use xlink:href="#DejaVuSans-74" transform="translate(63.476562 0)"/>
      <use xlink:href="#DejaVuSans-72" transform="translate(102.685547 0)"/>
      <use xlink:href="#DejaVuSans-65" transform="translate(141.548828 0)"/>
      <use xlink:href="#DejaVuSans-73" transform="translate(203.072266 0)"/>
      <use xlink:href="#DejaVuSans-73" transform="translate(255.171875 0)"/>
      <use xlink:href="#DejaVuSans-20" transform="translate(307.271484 0)"/>
      <use xlink:href="#DejaVuSans-5b" transform="translate(339.058594 0)"/>
      <use xlink:href="#DejaVuSans-50" transform="translate(378.072266 0)"/>
      <use xlink:href="#DejaVuSans-61" transform="translate(433.875 0)"/>
      <use xlink:href="#DejaVuSans-5d" transform="translate(495.154297 0)"/>
     </g>
    </g>
   </g>
   <g id="line2d_16">
    <path d="M 114.473823 263.795669 
L 114.473823 263.702426 
L 114.473983 264.038672 
L 114.473708 263.920439 
L 114.889821 261.978005 
L 115.30633 261.062114 
L 115.741323 261.647011 
L 116.572019 263.416235 
L 117.406737 264.407332 
L 117.841731 265.269243 
L 118.258316 265.705354 
L 118.678459 266.409429 
L 119.094735 264.534504 
L 119.508459 263.275369 
L 119.919939 263.395551 
L 120.757751 263.993194 
L 121.171552 264.282515 
L 121.584888 264.276675 
L 121.998535 263.930004 
L 122.410402 263.780828 
L 123.647834 263.910364 
L 124.056685 263.941269 
L 124.464143 263.782757 
L 125.709878 263.71615 
L 129.006518 263.333149 
L 132.760737 262.200337 
L 134.456831 261.385233 
L 134.881306 261.262475 
L 136.118222 260.577192 
L 137.368443 260.092664 
L 139.869502 258.989278 
L 140.691844 258.628466 
L 141.520993 258.090556 
L 142.350142 257.505769 
L 144.41321 256.616018 
L 146.075066 255.568324 
L 146.488867 255.466715 
L 147.745739 254.621392 
L 153.568005 251.061193 
L 154.384314 250.709798 
L 155.650004 249.881439 
L 156.875009 249.201941 
L 157.71808 248.483327 
L 158.555737 247.689019 
L 159.391692 247.200996 
L 160.211405 246.933021 
L 161.876895 245.908938 
L 162.702796 245.616717 
L 163.125723 245.319337 
L 164.366551 244.001106 
L 165.20065 243.501607 
L 166.027324 243.170944 
L 168.541222 241.569653 
L 170.192249 240.67518 
L 171.020006 240.156773 
L 171.847917 239.418906 
L 172.66732 238.8989 
L 173.075398 238.588257 
L 173.917618 238.246898 
L 174.748236 237.555908 
L 177.254014 236.011962 
L 178.067693 235.372929 
L 179.316367 234.650222 
L 180.56504 233.828165 
L 182.648121 232.439005 
L 183.882394 231.570543 
L 192.221836 226.132647 
L 193.058256 225.50371 
L 197.622035 222.625369 
L 199.257902 221.361602 
L 204.229382 218.246112 
L 205.892011 217.140033 
L 207.582485 215.959358 
L 209.222219 214.779907 
L 211.267711 213.536081 
L 212.542991 212.611208 
L 216.267383 210.152299 
L 217.084466 209.580681 
L 218.716621 208.670796 
L 219.985868 207.737457 
L 224.136562 205.02326 
L 224.964444 204.390271 
L 227.004831 202.967121 
L 229.901592 200.916258 
L 230.325603 200.770469 
L 231.583248 199.679284 
L 235.769444 196.7158 
L 236.614835 196.075513 
L 239.936999 193.71835 
L 241.173607 192.880426 
L 241.5987 192.715228 
L 246.589671 189.021363 
L 247.414102 188.420239 
L 248.239383 188.010841 
L 252.37863 184.828501 
L 253.19989 184.304654 
L 254.458773 183.292674 
L 257.736231 180.752886 
L 258.142607 180.532235 
L 258.984595 179.788348 
L 261.067367 178.508275 
L 263.183707 176.601586 
L 264.002801 176.232371 
L 266.106099 174.447931 
L 267.36359 173.789692 
L 268.619224 172.507425 
L 269.454561 171.885261 
L 270.290361 171.499991 
L 272.781675 169.549875 
L 273.616083 168.93519 
L 274.843719 167.91073 
L 276.089839 166.810272 
L 277.33773 165.870818 
L 281.471562 162.653704 
L 283.554953 160.825656 
L 284.374047 160.360178 
L 286.024069 158.92055 
L 286.866057 158.182746 
L 289.367503 156.387935 
L 290.203613 155.552865 
L 291.041888 155.024801 
L 291.86222 154.321175 
L 293.946384 152.542105 
L 298.504904 148.871208 
L 299.346274 148.009298 
L 300.178362 147.358537 
L 306.79529 141.732445 
L 307.612527 141.072372 
L 309.697465 139.006521 
L 312.177486 137.051795 
L 313.012204 136.186874 
L 314.712423 134.748454 
L 315.937757 133.725562 
L 316.783922 132.930377 
L 322.633753 127.61292 
L 326.826175 123.795263 
L 327.669865 123.014376 
L 329.337134 121.448525 
L 330.571112 120.308237 
L 331.419133 119.434286 
L 332.674149 118.37916 
L 334.718248 116.230843 
L 335.54554 115.514988 
L 338.024788 113.185747 
L 338.862832 112.337508 
L 339.700489 111.419094 
L 343.021647 108.349917 
L 345.494862 105.863144 
L 345.903558 105.597936 
L 351.750932 99.797771 
L 352.579617 99.00453 
L 353.819628 97.606936 
L 355.065362 96.590754 
L 355.894047 95.799582 
L 356.311019 95.233075 
L 357.546234 94.209682 
L 358.392553 93.247809 
L 359.223868 92.40929 
L 360.885878 90.932616 
L 362.144374 89.37197 
L 362.963623 88.56581 
L 364.633213 87.184458 
L 366.310692 85.307558 
L 368.396868 83.306221 
L 374.60744 77.174138 
L 375.424677 76.175391 
L 382.065641 69.453222 
L 383.337363 68.102222 
L 385.004478 66.434653 
L 386.235362 65.229395 
L 388.327802 63.077629 
L 389.549714 61.900278 
L 391.211724 60.147986 
L 392.028188 59.322323 
L 393.685403 57.568086 
L 394.520971 56.730069 
L 396.58812 54.529952 
L 398.238605 53.568 
L 398.487273 54.612794 
L 398.33349 64.013743 
L 398.323029 77.486772 
L 397.913153 77.742527 
L 397.086286 80.186154 
L 396.670319 80.169237 
L 396.250795 80.266409 
L 394.551194 81.416825 
L 394.136775 81.45972 
L 393.7123 82.245953 
L 393.282411 83.567416 
L 392.041492 86.172792 
L 391.616089 87.3746 
L 391.197183 87.529295 
L 390.790498 87.428595 
L 390.362465 87.678063 
L 389.507483 88.766739 
L 389.088577 88.899233 
L 388.676633 89.835912 
L 388.260434 91.783991 
L 387.840987 92.524491 
L 387.42912 92.977521 
L 386.601208 93.519852 
L 385.35122 94.909922 
L 384.515574 96.404845 
L 383.689133 97.47822 
L 383.269221 98.027575 
L 382.443244 99.660166 
L 381.602957 100.287221 
L 380.352273 101.301615 
L 379.936693 102.135368 
L 379.528074 103.414814 
L 379.11961 103.918264 
L 377.863976 104.738111 
L 377.027556 106.461305 
L 376.618938 106.895772 
L 375.388673 107.79716 
L 374.548618 109.521295 
L 374.125845 110.053592 
L 372.863481 110.933062 
L 372.026811 112.518682 
L 371.61796 113.059759 
L 370.344691 113.939574 
L 369.927796 115.015457 
L 368.683686 116.2458 
L 367.855311 116.802806 
L 367.449244 118.001604 
L 366.604781 118.851505 
L 365.371964 119.582505 
L 364.965124 120.633178 
L 364.13234 121.820312 
L 362.905323 122.625124 
L 362.075246 124.269489 
L 361.250004 124.837328 
L 360.420855 125.366271 
L 359.998082 125.978463 
L 359.586988 126.909482 
L 357.91237 127.96351 
L 357.49679 128.643855 
L 357.083376 129.711711 
L 356.671896 130.079766 
L 356.261189 130.238803 
L 355.437145 130.755846 
L 355.022029 131.397936 
L 354.613642 132.476704 
L 354.20193 132.835165 
L 353.787665 132.972049 
L 353.372162 133.35967 
L 352.946914 133.533163 
L 352.538837 133.839933 
L 352.122483 134.988813 
L 351.709765 135.415339 
L 351.284053 135.527507 
L 350.031512 136.337539 
L 349.621192 137.319605 
L 349.206153 137.807315 
L 348.361071 138.346714 
L 347.943558 138.594834 
L 347.528519 138.979758 
L 347.112785 139.939499 
L 346.692951 140.426331 
L 345.84725 140.818366 
L 345.02514 141.359976 
L 344.616212 142.257758 
L 344.201096 142.879859 
L 342.521064 143.788427 
L 341.689131 145.414465 
L 340.038568 146.313195 
L 339.216922 147.698373 
L 337.984027 148.304545 
L 337.568834 148.422309 
L 336.723906 149.861278 
L 335.07984 150.771398 
L 334.661476 151.25685 
L 334.251697 152.181724 
L 332.161345 153.482076 
L 331.739191 154.619667 
L 331.331906 154.736421 
L 330.089575 155.429543 
L 329.677476 155.533143 
L 329.259112 156.903019 
L 328.838117 157.038123 
L 327.577997 157.77251 
L 327.160251 157.888777 
L 326.736937 159.224538 
L 326.315479 159.35381 
L 325.471015 159.867326 
L 324.637381 160.365022 
L 324.213834 161.450814 
L 323.795083 161.551999 
L 322.128432 162.40009 
L 321.72252 163.442234 
L 321.299071 163.558423 
L 320.466209 164.017348 
L 319.632033 164.428933 
L 319.224884 165.656203 
L 318.380884 165.972043 
L 317.134377 166.590498 
L 316.723979 167.819524 
L 316.308941 167.886868 
L 314.646776 168.544033 
L 314.228798 169.978126 
L 313.81987 170.02418 
L 313.407307 170.216893 
L 312.988865 170.276351 
L 312.575992 170.49531 
L 312.165904 170.310326 
L 311.748236 171.655368 
L 310.924037 172.256781 
L 310.516578 172.328406 
L 310.090711 172.606596 
L 309.666856 172.604307 
L 309.258778 173.734122 
L 307.590426 174.66946 
L 307.17036 174.599615 
L 306.756172 175.779349 
L 306.344769 176.118745 
L 305.087588 176.597651 
L 304.67951 176.521402 
L 303.857245 178.272032 
L 302.207533 178.643019 
L 301.79992 178.949923 
L 301.382252 180.121253 
L 300.542081 180.458588 
L 299.718346 180.69197 
L 299.311971 180.964782 
L 298.902965 182.010689 
L 298.478336 182.323056 
L 296.81563 182.846174 
L 296.396105 183.901989 
L 295.568271 184.290269 
L 294.320758 184.571022 
L 293.903244 185.73721 
L 293.058781 186.087581 
L 291.818306 186.354239 
L 291.399091 187.31699 
L 290.978639 187.927678 
L 289.322255 188.439782 
L 288.480731 189.449442 
L 285.976578 191.141531 
L 285.150059 191.802199 
L 281.838878 194.0668 
L 281.001221 194.694419 
L 280.180445 195.078678 
L 279.347739 195.88004 
L 278.936103 196.348372 
L 276.840801 197.558932 
L 276.019619 198.422285 
L 274.355675 199.54539 
L 273.107775 200.305771 
L 269.78127 202.586324 
L 268.959392 203.276028 
L 266.87894 204.468484 
L 265.620134 205.261192 
L 263.924556 206.227016 
L 262.24785 207.482067 
L 261.421795 208.071683 
L 260.603475 208.520731 
L 254.379329 212.724419 
L 253.969704 212.928357 
L 253.149528 213.560617 
L 251.073639 214.806755 
L 250.65427 215.220465 
L 249.414423 215.686072 
L 248.586744 216.33909 
L 248.174722 216.753489 
L 246.934402 217.350611 
L 246.109275 217.831485 
L 245.281055 218.598262 
L 244.438757 218.936353 
L 243.604658 219.330214 
L 242.763521 219.964669 
L 242.346317 220.399513 
L 240.280947 221.20931 
L 239.448763 222.108303 
L 238.628277 222.606172 
L 237.80578 222.837633 
L 236.964255 223.428566 
L 235.702975 224.277056 
L 234.461572 224.860558 
L 233.205009 225.68064 
L 231.548877 226.694109 
L 230.293243 227.527015 
L 229.069369 228.182871 
L 226.993094 229.369111 
L 226.151415 229.831924 
L 224.482753 230.990114 
L 222.823372 231.659986 
L 220.760633 233.080423 
L 219.510335 233.607508 
L 215.730592 235.905816 
L 214.89835 236.408388 
L 212.839709 237.524873 
L 211.590108 238.207162 
L 210.756783 238.413764 
L 209.92191 239.041195 
L 206.980704 240.823569 
L 206.56845 240.957326 
L 204.472838 242.220027 
L 203.660551 242.456678 
L 202.833104 243.048144 
L 202.013082 243.648202 
L 201.173414 243.941066 
L 200.33684 244.217515 
L 199.076004 245.090537 
L 198.229375 245.624152 
L 197.821143 245.684261 
L 196.130205 246.69138 
L 195.289919 247.301032 
L 194.883388 247.528331 
L 194.061046 247.712741 
L 192.808273 248.403292 
L 192.386429 248.779249 
L 191.973556 248.953525 
L 191.557744 248.940928 
L 190.731766 249.337062 
L 189.500573 250.204868 
L 188.263666 250.603206 
L 187.427015 251.317493 
L 186.609158 251.60603 
L 185.357391 252.221719 
L 184.517723 252.716326 
L 183.691978 253.024194 
L 181.604255 254.147934 
L 181.190145 254.293237 
L 179.107339 255.526869 
L 178.277881 255.83061 
L 177.439915 256.485195 
L 175.362557 257.334516 
L 174.524049 257.876785 
L 172.441509 258.644271 
L 171.611045 259.42196 
L 169.969609 260.056353 
L 169.54962 260.198264 
L 168.71555 260.786695 
L 166.244811 261.945687 
L 165.828148 262.264639 
L 163.756204 263.076 
L 162.913133 263.756109 
L 162.081819 264.126689 
L 161.24741 264.268217 
L 159.168505 265.507923 
L 158.334996 265.648918 
L 157.092665 266.385468 
L 156.255163 266.674082 
L 155.414877 266.947537 
L 153.745055 268.052958 
L 152.505353 268.438435 
L 150.853553 269.414575 
L 148.802183 270.508488 
L 147.989768 270.944477 
L 142.985329 273.159182 
L 142.564721 273.466595 
L 140.917407 274.102365 
L 139.67701 274.91997 
L 138.845386 275.141549 
L 138.43443 275.217865 
L 137.188386 275.982886 
L 136.354133 276.238835 
L 135.94126 276.333545 
L 135.518641 276.630015 
L 135.104299 277.065047 
L 134.682222 277.302536 
L 133.031968 277.624142 
L 132.201195 278.37245 
L 130.525959 278.935019 
L 129.694645 279.380571 
L 128.848789 279.724545 
L 127.578214 280.269626 
L 126.304325 280.97032 
L 125.878768 281.055706 
L 125.048072 281.510837 
L 124.21258 281.649095 
L 123.38173 282.074469 
L 122.974117 282.147462 
L 121.312029 282.929544 
L 120.48056 283.24235 
L 119.647699 283.439152 
L 118.389357 284.206556 
L 117.566443 284.493848 
L 116.730642 284.703893 
L 115.90567 285.113244 
L 115.083173 285.698408 
L 114.665969 285.820296 
L 114.244743 285.798496 
L 109.246801 287.776496 
L 108.402956 288.211684 
L 107.165809 288.412971 
L 106.325677 288.825474 
L 105.912108 289.206134 
L 105.488097 289.40192 
L 104.655855 289.509022 
L 103.003435 290.036626 
L 101.753525 290.328579 
L 100.918188 290.797475 
L 98.835107 291.330102 
L 98.014156 291.658294 
L 97.187953 291.909933 
L 95.928528 292.432216 
L 94.698418 292.572034 
L 94.275026 292.679624 
L 93.443249 293.194628 
L 92.613481 293.164572 
L 91.790056 293.427738 
L 90.951007 293.851309 
L 88.886798 294.265026 
L 88.048213 294.481844 
L 85.974787 294.984138 
L 85.152058 295.080722 
L 84.727506 295.400239 
L 83.892247 295.488 
L 83.063717 295.3254 
L 82.225364 295.436964 
L 81.389718 295.204059 
L 80.557166 295.128985 
L 80.13362 295.23224 
L 78.865455 294.374986 
L 78.036307 293.704573 
L 77.614926 293.877811 
L 77.206885 293.316599 
L 76.360256 291.502724 
L 75.54209 288.650341 
L 75.134399 287.182384 
L 74.302853 282.053063 
L 73.870757 278.135834 
L 73.832727 263.866741 
L 73.83323 263.871068 
" clip-path="url(#p115b322b67)" style="fill: none; stroke: #ff0000; stroke-width: 1.5; stroke-linecap: square"/>
   </g>
   <g id="line2d_17">
    <path d="M 114.473823 263.795669 
L 114.473823 263.702426 
L 114.473983 264.038672 
L 114.473708 263.920439 
L 114.889821 261.978005 
L 115.30633 261.062114 
L 115.741323 261.647011 
L 116.572019 263.416235 
L 116.992008 266.294596 
L 117.406737 266.112622 
L 117.841731 266.396079 
L 118.678459 266.697433 
L 119.094735 264.536605 
L 119.508459 263.275369 
L 119.919939 263.395551 
L 120.757751 263.993194 
L 121.171552 264.282515 
L 121.584888 264.276675 
L 121.998535 263.930004 
L 122.410402 263.780828 
L 123.647834 263.910364 
L 124.056685 263.941269 
L 124.464143 263.782757 
L 125.709878 263.71615 
L 129.006518 263.333149 
L 132.760737 262.200337 
L 134.456831 261.385233 
L 134.881306 261.262475 
L 136.118222 260.577192 
L 137.368443 260.092664 
L 139.869502 258.989278 
L 140.691844 258.628466 
L 141.520993 258.090556 
L 142.350142 257.505769 
L 144.41321 256.616018 
L 146.075066 255.568324 
L 146.488867 255.466715 
L 147.745739 254.621392 
L 153.568005 251.061193 
L 154.384314 250.709798 
L 155.650004 249.881439 
L 156.875009 249.201941 
L 157.71808 248.483327 
L 158.555737 247.689019 
L 159.391692 247.200996 
L 160.211405 246.933021 
L 161.876895 245.908938 
L 162.702796 245.616717 
L 163.125723 245.319337 
L 164.366551 244.001106 
L 165.20065 243.501607 
L 166.027324 243.170944 
L 168.541222 241.569653 
L 170.192249 240.67518 
L 171.020006 240.156773 
L 171.847917 239.418906 
L 172.66732 238.8989 
L 173.075398 238.588257 
L 173.917618 238.246898 
L 174.748236 237.555908 
L 177.254014 236.011962 
L 178.067693 235.372929 
L 179.316367 234.650222 
L 180.56504 233.828165 
L 182.648121 232.439005 
L 183.882394 231.570543 
L 192.221836 226.132647 
L 193.058256 225.50371 
L 197.622035 222.625369 
L 199.257902 221.361602 
L 204.229382 218.246112 
L 205.892011 217.140033 
L 207.582485 215.959358 
L 209.222219 214.779907 
L 211.267711 213.536081 
L 212.542991 212.611208 
L 216.267383 210.152299 
L 217.084466 209.580681 
L 218.716621 208.670796 
L 219.985868 207.737457 
L 224.136562 205.02326 
L 224.964444 204.390271 
L 227.004831 202.967121 
L 229.901592 200.916258 
L 230.325603 200.770469 
L 231.583248 199.679284 
L 235.769444 196.7158 
L 236.614835 196.075513 
L 239.936999 193.71835 
L 241.173607 192.880426 
L 241.5987 192.715228 
L 246.589671 189.021363 
L 247.414102 188.420239 
L 248.239383 188.010841 
L 252.37863 184.828501 
L 253.19989 184.304654 
L 254.458773 183.292674 
L 257.736231 180.752886 
L 258.142607 180.532235 
L 258.984595 179.788348 
L 261.067367 178.508275 
L 263.183707 176.601586 
L 264.002801 176.232371 
L 266.106099 174.447931 
L 267.36359 173.789692 
L 268.619224 172.507425 
L 269.454561 171.885261 
L 270.290361 171.499991 
L 272.781675 169.549875 
L 273.616083 168.93519 
L 274.843719 167.91073 
L 276.089839 166.810272 
L 277.33773 165.870818 
L 281.471562 162.653704 
L 283.554953 160.825656 
L 284.374047 160.360178 
L 286.024069 158.92055 
L 286.866057 158.182746 
L 289.367503 156.387935 
L 290.203613 155.552865 
L 291.041888 155.024801 
L 291.86222 154.321175 
L 293.946384 152.542105 
L 298.504904 148.871208 
L 299.346274 148.009298 
L 300.178362 147.358537 
L 306.79529 141.732445 
L 307.612527 141.072372 
L 309.697465 139.006521 
L 312.177486 137.051795 
L 313.012204 136.186874 
L 314.712423 134.748454 
L 315.937757 133.725562 
L 316.783922 132.930377 
L 322.633753 127.61292 
L 326.826175 123.795263 
L 327.669865 123.014376 
L 329.337134 121.448525 
L 330.571112 120.308237 
L 331.419133 119.434286 
L 332.674149 118.37916 
L 334.718248 116.230843 
L 335.54554 115.514988 
L 338.024788 113.185747 
L 338.862832 112.337508 
L 339.700489 111.419094 
L 343.021647 108.349917 
L 345.494862 105.863144 
L 345.903558 105.597936 
L 351.750932 99.797771 
L 352.579617 99.00453 
L 353.819628 97.606936 
L 355.065362 96.590754 
L 355.894047 95.799582 
L 356.311019 95.233075 
L 357.546234 94.209682 
L 358.392553 93.247809 
L 359.223868 92.40929 
L 360.885878 90.932616 
L 362.144374 89.37197 
L 362.963623 88.56581 
L 364.633213 87.184458 
L 366.310692 85.307558 
L 368.396868 83.306221 
L 374.60744 77.174138 
L 375.424677 76.175391 
L 382.065641 69.453222 
L 383.337363 68.102222 
L 385.004478 66.434653 
L 386.235362 65.229395 
L 388.327802 63.077629 
L 389.549714 61.900278 
L 391.211724 60.147986 
L 392.028188 59.322323 
L 393.685403 57.568086 
L 394.520971 56.730069 
L 396.58812 54.529952 
L 398.238605 53.568 
L 398.487273 54.612794 
L 398.33349 64.013743 
L 398.323029 77.486772 
L 397.913153 77.742527 
L 397.086286 80.186154 
L 396.670319 80.169237 
L 396.250795 80.266409 
L 394.551194 81.416825 
L 394.136775 81.45972 
L 393.7123 82.245953 
L 393.282411 83.567416 
L 392.041492 86.172792 
L 391.616089 87.3746 
L 391.197183 87.529295 
L 390.790498 87.428595 
L 390.362465 87.678063 
L 389.507483 88.766739 
L 389.088577 88.899233 
L 388.676633 89.835912 
L 388.260434 91.783991 
L 387.840987 92.524491 
L 387.42912 92.977521 
L 386.601208 93.519852 
L 385.35122 94.909922 
L 384.515574 96.404845 
L 383.689133 97.47822 
L 383.269221 98.027575 
L 382.443244 99.660166 
L 381.602957 100.287221 
L 380.352273 101.301615 
L 379.936693 102.135368 
L 379.528074 103.414814 
L 379.11961 103.918264 
L 377.863976 104.738111 
L 377.027556 106.461305 
L 376.618938 106.895772 
L 375.388673 107.79716 
L 374.548618 109.521295 
L 374.125845 110.053592 
L 372.863481 110.933062 
L 372.026811 112.518682 
L 371.61796 113.059759 
L 370.344691 113.939574 
L 369.927796 115.015457 
L 368.683686 116.2458 
L 367.855311 116.802806 
L 367.449244 118.001604 
L 366.604781 118.851505 
L 365.371964 119.582505 
L 364.965124 120.633178 
L 364.13234 121.820312 
L 362.905323 122.625124 
L 362.075246 124.269489 
L 361.250004 124.837328 
L 360.420855 125.366271 
L 359.998082 125.978463 
L 359.586988 126.909482 
L 357.91237 127.96351 
L 357.49679 128.643855 
L 357.083376 129.711711 
L 356.671896 130.079766 
L 356.261189 130.238803 
L 355.437145 130.755846 
L 355.022029 131.397936 
L 354.613642 132.476704 
L 354.20193 132.835165 
L 353.787665 132.972049 
L 353.372162 133.35967 
L 352.946914 133.533163 
L 352.538837 133.839933 
L 352.122483 134.988813 
L 351.709765 135.415339 
L 351.284053 135.527507 
L 350.031512 136.337539 
L 349.621192 137.319605 
L 349.206153 137.807315 
L 348.361071 138.346714 
L 347.943558 138.594834 
L 347.528519 138.979758 
L 347.112785 139.939499 
L 346.692951 140.426331 
L 345.84725 140.818366 
L 345.02514 141.359976 
L 344.616212 142.257758 
L 344.201096 142.879859 
L 342.521064 143.788427 
L 341.689131 145.414465 
L 340.038568 146.313195 
L 339.216922 147.698373 
L 337.984027 148.304545 
L 337.568834 148.422309 
L 336.723906 149.861278 
L 335.07984 150.771398 
L 334.661476 151.25685 
L 334.251697 152.181724 
L 332.161345 153.482076 
L 331.739191 154.619667 
L 331.331906 154.736421 
L 330.089575 155.429543 
L 329.677476 155.533143 
L 329.259112 156.903019 
L 328.838117 157.038123 
L 327.577997 157.77251 
L 327.160251 157.888777 
L 326.736937 159.224538 
L 326.315479 159.35381 
L 325.471015 159.867326 
L 324.637381 160.365022 
L 324.213834 161.450814 
L 323.795083 161.551999 
L 322.128432 162.40009 
L 321.72252 163.442234 
L 321.299071 163.558423 
L 320.466209 164.017348 
L 319.632033 164.428933 
L 319.224884 165.656203 
L 318.380884 165.972043 
L 317.134377 166.590498 
L 316.723979 167.819524 
L 316.308941 167.886868 
L 314.646776 168.544033 
L 314.228798 169.978126 
L 313.81987 170.02418 
L 313.407307 170.216893 
L 312.988865 170.276351 
L 312.575992 170.49531 
L 312.165904 170.310326 
L 311.748236 171.655368 
L 310.924037 172.256781 
L 310.516578 172.328406 
L 310.090711 172.606596 
L 309.666856 172.604307 
L 309.258778 173.734122 
L 307.590426 174.66946 
L 307.17036 174.599615 
L 306.756172 175.779349 
L 306.344769 176.118745 
L 305.087588 176.597651 
L 304.67951 176.521402 
L 303.857245 178.272032 
L 302.207533 178.643019 
L 301.79992 178.949923 
L 301.382252 180.121253 
L 300.542081 180.458588 
L 299.718346 180.69197 
L 299.311971 180.964782 
L 298.902965 182.010689 
L 298.478336 182.323056 
L 296.81563 182.846174 
L 296.396105 183.901989 
L 295.568271 184.290269 
L 294.320758 184.571022 
L 293.903244 185.73721 
L 293.058781 186.087581 
L 291.818306 186.354239 
L 291.399091 187.31699 
L 290.978639 187.927678 
L 289.322255 188.439782 
L 288.480731 189.449442 
L 285.976578 191.141531 
L 285.150059 191.802199 
L 281.838878 194.0668 
L 281.001221 194.694419 
L 280.180445 195.078678 
L 279.347739 195.88004 
L 278.936103 196.348372 
L 276.840801 197.558932 
L 276.019619 198.422285 
L 274.355675 199.54539 
L 273.107775 200.305771 
L 269.78127 202.586324 
L 268.959392 203.276028 
L 266.87894 204.468484 
L 265.620134 205.261192 
L 263.924556 206.227016 
L 262.24785 207.482067 
L 261.421795 208.071683 
L 260.603475 208.520731 
L 254.379329 212.724419 
L 253.969704 212.928357 
L 253.149528 213.560617 
L 251.073639 214.806755 
L 250.65427 215.220465 
L 249.414423 215.686072 
L 248.586744 216.33909 
L 248.174722 216.753489 
L 246.934402 217.350611 
L 246.109275 217.831485 
L 245.281055 218.598262 
L 244.438757 218.936353 
L 243.604658 219.330214 
L 242.763521 219.964669 
L 242.346317 220.399513 
L 240.280947 221.20931 
L 239.448763 222.108303 
L 238.628277 222.606172 
L 237.80578 222.837633 
L 236.964255 223.428566 
L 235.702975 224.277056 
L 234.461572 224.860558 
L 233.205009 225.68064 
L 231.548877 226.694109 
L 230.293243 227.527015 
L 229.069369 228.182871 
L 226.993094 229.369111 
L 226.151415 229.831924 
L 224.482753 230.990114 
L 222.823372 231.659986 
L 220.760633 233.080423 
L 219.510335 233.607508 
L 215.730592 235.905816 
L 214.89835 236.408388 
L 212.839709 237.524873 
L 211.590108 238.207162 
L 210.756783 238.413764 
L 209.92191 239.041195 
L 206.980704 240.823569 
L 206.56845 240.957326 
L 204.472838 242.220027 
L 203.660551 242.456678 
L 202.833104 243.048144 
L 202.013082 243.648202 
L 201.173414 243.941066 
L 200.33684 244.217515 
L 199.076004 245.090537 
L 198.229375 245.624152 
L 197.821143 245.684261 
L 196.130205 246.69138 
L 195.289919 247.301032 
L 194.883388 247.528331 
L 194.061046 247.712741 
L 192.808273 248.403292 
L 192.386429 248.779249 
L 191.973556 248.953525 
L 191.557744 248.940928 
L 190.731766 249.337062 
L 189.500573 250.204868 
L 188.263666 250.603206 
L 187.427015 251.317493 
L 186.609158 251.60603 
L 185.357391 252.221719 
L 184.517723 252.716326 
L 183.691978 253.024194 
L 181.604255 254.147934 
L 181.190145 254.293237 
L 179.107339 255.526869 
L 178.277881 255.83061 
L 177.439915 256.485195 
L 175.362557 257.334516 
L 174.524049 257.876785 
L 172.441509 258.644271 
L 171.611045 259.42196 
L 169.969609 260.056353 
L 169.54962 260.198264 
L 168.71555 260.786695 
L 166.244811 261.945687 
L 165.828148 262.264639 
L 163.756204 263.076 
L 162.913133 263.756109 
L 162.081819 264.126689 
L 161.24741 264.268217 
L 159.168505 265.507923 
L 158.334996 265.648918 
L 157.092665 266.385468 
L 156.255163 266.674082 
L 155.414877 266.947537 
L 153.745055 268.052958 
L 152.505353 268.438435 
L 150.853553 269.414575 
L 148.802183 270.508488 
L 147.989768 270.944477 
L 142.985329 273.159182 
L 142.564721 273.466595 
L 140.917407 274.102365 
L 139.67701 274.91997 
L 138.845386 275.141549 
L 138.43443 275.217865 
L 137.188386 275.982886 
L 136.354133 276.238835 
L 135.94126 276.333545 
L 135.518641 276.630015 
L 135.104299 277.065047 
L 134.682222 277.302536 
L 133.031968 277.624142 
L 132.201195 278.37245 
L 130.525959 278.935019 
L 129.694645 279.380571 
L 128.848789 279.724545 
L 127.578214 280.269626 
L 126.304325 280.97032 
L 125.878768 281.055706 
L 125.048072 281.510837 
L 124.21258 281.649095 
L 123.38173 282.074469 
L 122.974117 282.147462 
L 121.312029 282.929544 
L 120.48056 283.24235 
L 119.647699 283.439152 
L 118.389357 284.206556 
L 117.566443 284.493848 
L 116.730642 284.703893 
L 115.90567 285.113244 
L 115.083173 285.698408 
L 114.665969 285.820296 
L 114.244743 285.798496 
L 109.246801 287.776496 
L 108.402956 288.211684 
L 107.165809 288.412971 
L 106.325677 288.825474 
L 105.912108 289.206134 
L 105.488097 289.40192 
L 104.655855 289.509022 
L 103.003435 290.036626 
L 101.753525 290.328579 
L 100.918188 290.797475 
L 98.835107 291.330102 
L 98.014156 291.658294 
L 97.187953 291.909933 
L 95.928528 292.432216 
L 94.698418 292.572034 
L 94.275026 292.679624 
L 93.443249 293.194628 
L 92.613481 293.164572 
L 91.790056 293.427738 
L 90.951007 293.851309 
L 88.886798 294.265026 
L 88.048213 294.481844 
L 85.974787 294.984138 
L 85.152058 295.080722 
L 84.727506 295.400239 
L 83.892247 295.488 
L 83.063717 295.3254 
L 82.225364 295.436964 
L 81.389718 295.204059 
L 80.557166 295.128985 
L 80.13362 295.23224 
L 78.865455 294.374986 
L 78.036307 293.704573 
L 77.614926 293.877811 
L 77.206885 293.316599 
L 76.360256 291.502724 
L 75.54209 288.650341 
L 75.134399 287.182384 
L 74.302853 282.053063 
L 73.870757 278.135834 
L 73.832727 263.866741 
L 73.83323 263.871068 
" clip-path="url(#p115b322b67)" style="fill: none; stroke: #000000; stroke-width: 1.5; stroke-linecap: square"/>
   </g>
   <g id="patch_3">
    <path d="M 57.6 307.584 
L 57.6 41.472 
" style="fill: none; stroke: #000000; stroke-width: 0.8; stroke-linejoin: miter; stroke-linecap: square"/>
   </g>
   <g id="patch_4">
    <path d="M 414.72 307.584 
L 414.72 41.472 
" style="fill: none; stroke: #000000; stroke-width: 0.8; stroke-linejoin: miter; stroke-linecap: square"/>
   </g>
   <g id="patch_5">
    <path d="M 57.6 307.584 
L 414.72 307.584 
" style="fill: none; stroke: #000000; stroke-width: 0.8; stroke-linejoin: miter; stroke-linecap: square"/>
   </g>
   <g id="patch_6">
    <path d="M 57.6 41.472 
L 414.72 41.472 
" style="fill: none; stroke: #000000; stroke-width: 0.8; stroke-linejoin: miter; stroke-linecap: square"/>
   </g>
   <g id="text_18">
    <!-- 2025-06-16 trial 11 -->
    <g transform="translate(178.0125 35.472) scale(0.12 -0.12)">
     <defs>
      <path id="DejaVuSans-2d" d="M 313 2009 
L 1997 2009 
L 1997 1497 
L 313 1497 
L 313 2009 
z
" transform="scale(0.015625)"/>
      <path id="DejaVuSans-36" d="M 2113 2584 
Q 1688 2584 1439 2293 
Q 1191 2003 1191 1497 
Q 1191 994 1439 701 
Q 1688 409 2113 409 
Q 2538 409 2786 701 
Q 3034 994 3034 1497 
Q 3034 2003 2786 2293 
Q 2538 2584 2113 2584 
z
M 3366 4563 
L 3366 3988 
Q 3128 4100 2886 4159 
Q 2644 4219 2406 4219 
Q 1781 4219 1451 3797 
Q 1122 3375 1075 2522 
Q 1259 2794 1537 2939 
Q 1816 3084 2150 3084 
Q 2853 3084 3261 2657 
Q 3669 2231 3669 1497 
Q 3669 778 3244 343 
Q 2819 -91 2113 -91 
Q 1303 -91 875 529 
Q 447 1150 447 2328 
Q 447 3434 972 4092 
Q 1497 4750 2381 4750 
Q 2619 4750 2861 4703 
Q 3103 4656 3366 4563 
z
" transform="scale(0.015625)"/>
      <path id="DejaVuSans-6c" d="M 603 4863 
L 1178 4863 
L 1178 0 
L 603 0 
L 603 4863 
z
" transform="scale(0.015625)"/>
     </defs>
     <use xlink:href="#DejaVuSans-32"/>
     <use xlink:href="#DejaVuSans-30" transform="translate(63.623047 0)"/>
     <use xlink:href="#DejaVuSans-32" transform="translate(127.246094 0)"/>
     <use xlink:href="#DejaVuSans-35" transform="translate(190.869141 0)"/>
     <use xlink:href="#DejaVuSans-2d" transform="translate(254.492188 0)"/>
     <use xlink:href="#DejaVuSans-30" transform="translate(290.576172 0)"/>
     <use xlink:href="#DejaVuSans-36" transform="translate(354.199219 0)"/>
     <use xlink:href="#DejaVuSans-2d" transform="translate(417.822266 0)"/>
     <use xlink:href="#DejaVuSans-31" transform="translate(453.90625 0)"/>
     <use xlink:href="#DejaVuSans-36" transform="translate(517.529297 0)"/>
     <use xlink:href="#DejaVuSans-20" transform="translate(581.152344 0)"/>
     <use xlink:href="#DejaVuSans-74" transform="translate(612.939453 0)"/>
     <use xlink:href="#DejaVuSans-72" transform="translate(652.148438 0)"/>
     <use xlink:href="#DejaVuSans-69" transform="translate(693.261719 0)"/>
     <use xlink:href="#DejaVuSans-61" transform="translate(721.044922 0)"/>
     <use xlink:href="#DejaVuSans-6c" transform="translate(782.324219 0)"/>
     <use xlink:href="#DejaVuSans-20" transform="translate(810.107422 0)"/>
     <use xlink:href="#DejaVuSans-31" transform="translate(841.894531 0)"/>
     <use xlink:href="#DejaVuSans-31" transform="translate(905.517578 0)"/>
    </g>
   </g>
  </g>
 </g>
 <defs>
  <clipPath id="p115b322b67">
   <rect x="57.6" y="41.472" width="357.12" height="266.112"/>
  </clipPath>
 </defs>
</svg>
