<?xml version="1.0" encoding="utf-8" standalone="no"?>
<!DOCTYPE svg PUBLIC "-//W3C//DTD SVG 1.1//EN"
  "http://www.w3.org/Graphics/SVG/1.1/DTD/svg11.dtd">
<svg xmlns:xlink="http://www.w3.org/1999/xlink" width="432pt" height="288pt" viewBox="0 0 432 288" xmlns="http://www.w3.org/2000/svg" version="1.1">
 <metadata>
  <rdf:RDF xmlns:dc="http://purl.org/dc/elements/1.1/" xmlns:cc="http://creativecommons.org/ns#" xmlns:rdf="http://www.w3.org/1999/02/22-rdf-syntax-ns#">
   <cc:Work>
    <dc:type rdf:resource="http://purl.org/dc/dcmitype/StillImage"/>
    <dc:date>2025-07-03T20:54:31.184350</dc:date>
    <dc:format>image/svg+xml</dc:format>
    <dc:creator>
     <cc:Agent>
      <dc:title>Matplotlib v3.9.2, https://matplotlib.org/</dc:title>
     </cc:Agent>
    </dc:creator>
   </cc:Work>
  </rdf:RDF>
 </metadata>
 <defs>
  <style type="text/css">*{stroke-linejoin: round; stroke-linecap: butt}</style>
 </defs>
 <g id="figure_1">
  <g id="patch_1">
   <path d="M 0 288 
L 432 288 
L 432 0 
L 0 0 
z
" style="fill: #ffffff"/>
  </g>
  <g id="axes_1">
   <g id="patch_2">
    <path d="M 54 256.32 
L 388.8 256.32 
L 388.8 34.56 
L 54 34.56 
z
" style="fill: #ffffff"/>
   </g>
   <g id="matplotlib.axis_1">
    <g id="xtick_1">
     <g id="line2d_1">
      <defs>
       <path id="me1380cc613" d="M 0 0 
L 0 3.5 
" style="stroke: #000000; stroke-width: 0.8"/>
      </defs>
      <g>
       <use xlink:href="#me1380cc613" x="69.450887" y="256.32" style="stroke: #000000; stroke-width: 0.8"/>
      </g>
     </g>
     <g id="text_1">
      <!-- 0.00 -->
      <g transform="translate(58.318074 270.918437) scale(0.1 -0.1)">
       <defs>
        <path id="DejaVuSans-30" d="M 2034 4250 
Q 1547 4250 1301 3770 
Q 1056 3291 1056 2328 
Q 1056 1369 1301 889 
Q 1547 409 2034 409 
Q 2525 409 2770 889 
Q 3016 1369 3016 2328 
Q 3016 3291 2770 3770 
Q 2525 4250 2034 4250 
z
M 2034 4750 
Q 2819 4750 3233 4129 
Q 3647 3509 3647 2328 
Q 3647 1150 3233 529 
Q 2819 -91 2034 -91 
Q 1250 -91 836 529 
Q 422 1150 422 2328 
Q 422 3509 836 4129 
Q 1250 4750 2034 4750 
z
" transform="scale(0.015625)"/>
        <path id="DejaVuSans-2e" d="M 684 794 
L 1344 794 
L 1344 0 
L 684 0 
L 684 794 
z
" transform="scale(0.015625)"/>
       </defs>
       <use xlink:href="#DejaVuSans-30"/>
       <use xlink:href="#DejaVuSans-2e" x="63.623047"/>
       <use xlink:href="#DejaVuSans-30" x="95.410156"/>
       <use xlink:href="#DejaVuSans-30" x="159.033203"/>
      </g>
     </g>
    </g>
    <g id="xtick_2">
     <g id="line2d_2">
      <g>
       <use xlink:href="#me1380cc613" x="126.178345" y="256.32" style="stroke: #000000; stroke-width: 0.8"/>
      </g>
     </g>
     <g id="text_2">
      <!-- 0.02 -->
      <g transform="translate(115.045532 270.918437) scale(0.1 -0.1)">
       <defs>
        <path id="DejaVuSans-32" d="M 1228 531 
L 3431 531 
L 3431 0 
L 469 0 
L 469 531 
Q 828 903 1448 1529 
Q 2069 2156 2228 2338 
Q 2531 2678 2651 2914 
Q 2772 3150 2772 3378 
Q 2772 3750 2511 3984 
Q 2250 4219 1831 4219 
Q 1534 4219 1204 4116 
Q 875 4013 500 3803 
L 500 4441 
Q 881 4594 1212 4672 
Q 1544 4750 1819 4750 
Q 2544 4750 2975 4387 
Q 3406 4025 3406 3419 
Q 3406 3131 3298 2873 
Q 3191 2616 2906 2266 
Q 2828 2175 2409 1742 
Q 1991 1309 1228 531 
z
" transform="scale(0.015625)"/>
       </defs>
       <use xlink:href="#DejaVuSans-30"/>
       <use xlink:href="#DejaVuSans-2e" x="63.623047"/>
       <use xlink:href="#DejaVuSans-30" x="95.410156"/>
       <use xlink:href="#DejaVuSans-32" x="159.033203"/>
      </g>
     </g>
    </g>
    <g id="xtick_3">
     <g id="line2d_3">
      <g>
       <use xlink:href="#me1380cc613" x="182.905803" y="256.32" style="stroke: #000000; stroke-width: 0.8"/>
      </g>
     </g>
     <g id="text_3">
      <!-- 0.04 -->
      <g transform="translate(171.77299 270.918437) scale(0.1 -0.1)">
       <defs>
        <path id="DejaVuSans-34" d="M 2419 4116 
L 825 1625 
L 2419 1625 
L 2419 4116 
z
M 2253 4666 
L 3047 4666 
L 3047 1625 
L 3713 1625 
L 3713 1100 
L 3047 1100 
L 3047 0 
L 2419 0 
L 2419 1100 
L 313 1100 
L 313 1709 
L 2253 4666 
z
" transform="scale(0.015625)"/>
       </defs>
       <use xlink:href="#DejaVuSans-30"/>
       <use xlink:href="#DejaVuSans-2e" x="63.623047"/>
       <use xlink:href="#DejaVuSans-30" x="95.410156"/>
       <use xlink:href="#DejaVuSans-34" x="159.033203"/>
      </g>
     </g>
    </g>
    <g id="xtick_4">
     <g id="line2d_4">
      <g>
       <use xlink:href="#me1380cc613" x="239.633261" y="256.32" style="stroke: #000000; stroke-width: 0.8"/>
      </g>
     </g>
     <g id="text_4">
      <!-- 0.06 -->
      <g transform="translate(228.500448 270.918437) scale(0.1 -0.1)">
       <defs>
        <path id="DejaVuSans-36" d="M 2113 2584 
Q 1688 2584 1439 2293 
Q 1191 2003 1191 1497 
Q 1191 994 1439 701 
Q 1688 409 2113 409 
Q 2538 409 2786 701 
Q 3034 994 3034 1497 
Q 3034 2003 2786 2293 
Q 2538 2584 2113 2584 
z
M 3366 4563 
L 3366 3988 
Q 3128 4100 2886 4159 
Q 2644 4219 2406 4219 
Q 1781 4219 1451 3797 
Q 1122 3375 1075 2522 
Q 1259 2794 1537 2939 
Q 1816 3084 2150 3084 
Q 2853 3084 3261 2657 
Q 3669 2231 3669 1497 
Q 3669 778 3244 343 
Q 2819 -91 2113 -91 
Q 1303 -91 875 529 
Q 447 1150 447 2328 
Q 447 3434 972 4092 
Q 1497 4750 2381 4750 
Q 2619 4750 2861 4703 
Q 3103 4656 3366 4563 
z
" transform="scale(0.015625)"/>
       </defs>
       <use xlink:href="#DejaVuSans-30"/>
       <use xlink:href="#DejaVuSans-2e" x="63.623047"/>
       <use xlink:href="#DejaVuSans-30" x="95.410156"/>
       <use xlink:href="#DejaVuSans-36" x="159.033203"/>
      </g>
     </g>
    </g>
    <g id="xtick_5">
     <g id="line2d_5">
      <g>
       <use xlink:href="#me1380cc613" x="296.360718" y="256.32" style="stroke: #000000; stroke-width: 0.8"/>
      </g>
     </g>
     <g id="text_5">
      <!-- 0.08 -->
      <g transform="translate(285.227906 270.918437) scale(0.1 -0.1)">
       <defs>
        <path id="DejaVuSans-38" d="M 2034 2216 
Q 1584 2216 1326 1975 
Q 1069 1734 1069 1313 
Q 1069 891 1326 650 
Q 1584 409 2034 409 
Q 2484 409 2743 651 
Q 3003 894 3003 1313 
Q 3003 1734 2745 1975 
Q 2488 2216 2034 2216 
z
M 1403 2484 
Q 997 2584 770 2862 
Q 544 3141 544 3541 
Q 544 4100 942 4425 
Q 1341 4750 2034 4750 
Q 2731 4750 3128 4425 
Q 3525 4100 3525 3541 
Q 3525 3141 3298 2862 
Q 3072 2584 2669 2484 
Q 3125 2378 3379 2068 
Q 3634 1759 3634 1313 
Q 3634 634 3220 271 
Q 2806 -91 2034 -91 
Q 1263 -91 848 271 
Q 434 634 434 1313 
Q 434 1759 690 2068 
Q 947 2378 1403 2484 
z
M 1172 3481 
Q 1172 3119 1398 2916 
Q 1625 2713 2034 2713 
Q 2441 2713 2670 2916 
Q 2900 3119 2900 3481 
Q 2900 3844 2670 4047 
Q 2441 4250 2034 4250 
Q 1625 4250 1398 4047 
Q 1172 3844 1172 3481 
z
" transform="scale(0.015625)"/>
       </defs>
       <use xlink:href="#DejaVuSans-30"/>
       <use xlink:href="#DejaVuSans-2e" x="63.623047"/>
       <use xlink:href="#DejaVuSans-30" x="95.410156"/>
       <use xlink:href="#DejaVuSans-38" x="159.033203"/>
      </g>
     </g>
    </g>
    <g id="xtick_6">
     <g id="line2d_6">
      <g>
       <use xlink:href="#me1380cc613" x="353.088176" y="256.32" style="stroke: #000000; stroke-width: 0.8"/>
      </g>
     </g>
     <g id="text_6">
      <!-- 0.10 -->
      <g transform="translate(341.955364 270.918437) scale(0.1 -0.1)">
       <defs>
        <path id="DejaVuSans-31" d="M 794 531 
L 1825 531 
L 1825 4091 
L 703 3866 
L 703 4441 
L 1819 4666 
L 2450 4666 
L 2450 531 
L 3481 531 
L 3481 0 
L 794 0 
L 794 531 
z
" transform="scale(0.015625)"/>
       </defs>
       <use xlink:href="#DejaVuSans-30"/>
       <use xlink:href="#DejaVuSans-2e" x="63.623047"/>
       <use xlink:href="#DejaVuSans-31" x="95.410156"/>
       <use xlink:href="#DejaVuSans-30" x="159.033203"/>
      </g>
     </g>
    </g>
    <g id="text_7">
     <!-- Strain -->
     <g transform="translate(206.588281 284.596563) scale(0.1 -0.1)">
      <defs>
       <path id="DejaVuSans-53" d="M 3425 4513 
L 3425 3897 
Q 3066 4069 2747 4153 
Q 2428 4238 2131 4238 
Q 1616 4238 1336 4038 
Q 1056 3838 1056 3469 
Q 1056 3159 1242 3001 
Q 1428 2844 1947 2747 
L 2328 2669 
Q 3034 2534 3370 2195 
Q 3706 1856 3706 1288 
Q 3706 609 3251 259 
Q 2797 -91 1919 -91 
Q 1588 -91 1214 -16 
Q 841 59 441 206 
L 441 856 
Q 825 641 1194 531 
Q 1563 422 1919 422 
Q 2459 422 2753 634 
Q 3047 847 3047 1241 
Q 3047 1584 2836 1778 
Q 2625 1972 2144 2069 
L 1759 2144 
Q 1053 2284 737 2584 
Q 422 2884 422 3419 
Q 422 4038 858 4394 
Q 1294 4750 2059 4750 
Q 2388 4750 2728 4690 
Q 3069 4631 3425 4513 
z
" transform="scale(0.015625)"/>
       <path id="DejaVuSans-74" d="M 1172 4494 
L 1172 3500 
L 2356 3500 
L 2356 3053 
L 1172 3053 
L 1172 1153 
Q 1172 725 1289 603 
Q 1406 481 1766 481 
L 2356 481 
L 2356 0 
L 1766 0 
Q 1100 0 847 248 
Q 594 497 594 1153 
L 594 3053 
L 172 3053 
L 172 3500 
L 594 3500 
L 594 4494 
L 1172 4494 
z
" transform="scale(0.015625)"/>
       <path id="DejaVuSans-72" d="M 2631 2963 
Q 2534 3019 2420 3045 
Q 2306 3072 2169 3072 
Q 1681 3072 1420 2755 
Q 1159 2438 1159 1844 
L 1159 0 
L 581 0 
L 581 3500 
L 1159 3500 
L 1159 2956 
Q 1341 3275 1631 3429 
Q 1922 3584 2338 3584 
Q 2397 3584 2469 3576 
Q 2541 3569 2628 3553 
L 2631 2963 
z
" transform="scale(0.015625)"/>
       <path id="DejaVuSans-61" d="M 2194 1759 
Q 1497 1759 1228 1600 
Q 959 1441 959 1056 
Q 959 750 1161 570 
Q 1363 391 1709 391 
Q 2188 391 2477 730 
Q 2766 1069 2766 1631 
L 2766 1759 
L 2194 1759 
z
M 3341 1997 
L 3341 0 
L 2766 0 
L 2766 531 
Q 2569 213 2275 61 
Q 1981 -91 1556 -91 
Q 1019 -91 701 211 
Q 384 513 384 1019 
Q 384 1609 779 1909 
Q 1175 2209 1959 2209 
L 2766 2209 
L 2766 2266 
Q 2766 2663 2505 2880 
Q 2244 3097 1772 3097 
Q 1472 3097 1187 3025 
Q 903 2953 641 2809 
L 641 3341 
Q 956 3463 1253 3523 
Q 1550 3584 1831 3584 
Q 2591 3584 2966 3190 
Q 3341 2797 3341 1997 
z
" transform="scale(0.015625)"/>
       <path id="DejaVuSans-69" d="M 603 3500 
L 1178 3500 
L 1178 0 
L 603 0 
L 603 3500 
z
M 603 4863 
L 1178 4863 
L 1178 4134 
L 603 4134 
L 603 4863 
z
" transform="scale(0.015625)"/>
       <path id="DejaVuSans-6e" d="M 3513 2113 
L 3513 0 
L 2938 0 
L 2938 2094 
Q 2938 2591 2744 2837 
Q 2550 3084 2163 3084 
Q 1697 3084 1428 2787 
Q 1159 2491 1159 1978 
L 1159 0 
L 581 0 
L 581 3500 
L 1159 3500 
L 1159 2956 
Q 1366 3272 1645 3428 
Q 1925 3584 2291 3584 
Q 2894 3584 3203 3211 
Q 3513 2838 3513 2113 
z
" transform="scale(0.015625)"/>
      </defs>
      <use xlink:href="#DejaVuSans-53"/>
      <use xlink:href="#DejaVuSans-74" x="63.476562"/>
      <use xlink:href="#DejaVuSans-72" x="102.685547"/>
      <use xlink:href="#DejaVuSans-61" x="143.798828"/>
      <use xlink:href="#DejaVuSans-69" x="205.078125"/>
      <use xlink:href="#DejaVuSans-6e" x="232.861328"/>
     </g>
    </g>
   </g>
   <g id="matplotlib.axis_2">
    <g id="ytick_1">
     <g id="line2d_7">
      <defs>
       <path id="m4ddb3429e0" d="M 0 0 
L -3.5 0 
" style="stroke: #000000; stroke-width: 0.8"/>
      </defs>
      <g>
       <use xlink:href="#m4ddb3429e0" x="54" y="225.045396" style="stroke: #000000; stroke-width: 0.8"/>
      </g>
     </g>
     <g id="text_8">
      <!-- 0 -->
      <g transform="translate(40.6375 228.844615) scale(0.1 -0.1)">
       <use xlink:href="#DejaVuSans-30"/>
      </g>
     </g>
    </g>
    <g id="ytick_2">
     <g id="line2d_8">
      <g>
       <use xlink:href="#m4ddb3429e0" x="54" y="181.875457" style="stroke: #000000; stroke-width: 0.8"/>
      </g>
     </g>
     <g id="text_9">
      <!-- 200 -->
      <g transform="translate(27.9125 185.674676) scale(0.1 -0.1)">
       <use xlink:href="#DejaVuSans-32"/>
       <use xlink:href="#DejaVuSans-30" x="63.623047"/>
       <use xlink:href="#DejaVuSans-30" x="127.246094"/>
      </g>
     </g>
    </g>
    <g id="ytick_3">
     <g id="line2d_9">
      <g>
       <use xlink:href="#m4ddb3429e0" x="54" y="138.705519" style="stroke: #000000; stroke-width: 0.8"/>
      </g>
     </g>
     <g id="text_10">
      <!-- 400 -->
      <g transform="translate(27.9125 142.504737) scale(0.1 -0.1)">
       <use xlink:href="#DejaVuSans-34"/>
       <use xlink:href="#DejaVuSans-30" x="63.623047"/>
       <use xlink:href="#DejaVuSans-30" x="127.246094"/>
      </g>
     </g>
    </g>
    <g id="ytick_4">
     <g id="line2d_10">
      <g>
       <use xlink:href="#m4ddb3429e0" x="54" y="95.53558" style="stroke: #000000; stroke-width: 0.8"/>
      </g>
     </g>
     <g id="text_11">
      <!-- 600 -->
      <g transform="translate(27.9125 99.334799) scale(0.1 -0.1)">
       <use xlink:href="#DejaVuSans-36"/>
       <use xlink:href="#DejaVuSans-30" x="63.623047"/>
       <use xlink:href="#DejaVuSans-30" x="127.246094"/>
      </g>
     </g>
    </g>
    <g id="ytick_5">
     <g id="line2d_11">
      <g>
       <use xlink:href="#m4ddb3429e0" x="54" y="52.365642" style="stroke: #000000; stroke-width: 0.8"/>
      </g>
     </g>
     <g id="text_12">
      <!-- 800 -->
      <g transform="translate(27.9125 56.16486) scale(0.1 -0.1)">
       <use xlink:href="#DejaVuSans-38"/>
       <use xlink:href="#DejaVuSans-30" x="63.623047"/>
       <use xlink:href="#DejaVuSans-30" x="127.246094"/>
      </g>
     </g>
    </g>
    <g id="text_13">
     <!-- Stress [Pa] -->
     <g transform="translate(21.832812 172.147812) rotate(-90) scale(0.1 -0.1)">
      <defs>
       <path id="DejaVuSans-65" d="M 3597 1894 
L 3597 1613 
L 953 1613 
Q 991 1019 1311 708 
Q 1631 397 2203 397 
Q 2534 397 2845 478 
Q 3156 559 3463 722 
L 3463 178 
Q 3153 47 2828 -22 
Q 2503 -91 2169 -91 
Q 1331 -91 842 396 
Q 353 884 353 1716 
Q 353 2575 817 3079 
Q 1281 3584 2069 3584 
Q 2775 3584 3186 3129 
Q 3597 2675 3597 1894 
z
M 3022 2063 
Q 3016 2534 2758 2815 
Q 2500 3097 2075 3097 
Q 1594 3097 1305 2825 
Q 1016 2553 972 2059 
L 3022 2063 
z
" transform="scale(0.015625)"/>
       <path id="DejaVuSans-73" d="M 2834 3397 
L 2834 2853 
Q 2591 2978 2328 3040 
Q 2066 3103 1784 3103 
Q 1356 3103 1142 2972 
Q 928 2841 928 2578 
Q 928 2378 1081 2264 
Q 1234 2150 1697 2047 
L 1894 2003 
Q 2506 1872 2764 1633 
Q 3022 1394 3022 966 
Q 3022 478 2636 193 
Q 2250 -91 1575 -91 
Q 1294 -91 989 -36 
Q 684 19 347 128 
L 347 722 
Q 666 556 975 473 
Q 1284 391 1588 391 
Q 1994 391 2212 530 
Q 2431 669 2431 922 
Q 2431 1156 2273 1281 
Q 2116 1406 1581 1522 
L 1381 1569 
Q 847 1681 609 1914 
Q 372 2147 372 2553 
Q 372 3047 722 3315 
Q 1072 3584 1716 3584 
Q 2034 3584 2315 3537 
Q 2597 3491 2834 3397 
z
" transform="scale(0.015625)"/>
       <path id="DejaVuSans-20" transform="scale(0.015625)"/>
       <path id="DejaVuSans-5b" d="M 550 4863 
L 1875 4863 
L 1875 4416 
L 1125 4416 
L 1125 -397 
L 1875 -397 
L 1875 -844 
L 550 -844 
L 550 4863 
z
" transform="scale(0.015625)"/>
       <path id="DejaVuSans-50" d="M 1259 4147 
L 1259 2394 
L 2053 2394 
Q 2494 2394 2734 2622 
Q 2975 2850 2975 3272 
Q 2975 3691 2734 3919 
Q 2494 4147 2053 4147 
L 1259 4147 
z
M 628 4666 
L 2053 4666 
Q 2838 4666 3239 4311 
Q 3641 3956 3641 3272 
Q 3641 2581 3239 2228 
Q 2838 1875 2053 1875 
L 1259 1875 
L 1259 0 
L 628 0 
L 628 4666 
z
" transform="scale(0.015625)"/>
       <path id="DejaVuSans-5d" d="M 1947 4863 
L 1947 -844 
L 622 -844 
L 622 -397 
L 1369 -397 
L 1369 4416 
L 622 4416 
L 622 4863 
L 1947 4863 
z
" transform="scale(0.015625)"/>
      </defs>
      <use xlink:href="#DejaVuSans-53"/>
      <use xlink:href="#DejaVuSans-74" x="63.476562"/>
      <use xlink:href="#DejaVuSans-72" x="102.685547"/>
      <use xlink:href="#DejaVuSans-65" x="141.548828"/>
      <use xlink:href="#DejaVuSans-73" x="203.072266"/>
      <use xlink:href="#DejaVuSans-73" x="255.171875"/>
      <use xlink:href="#DejaVuSans-20" x="307.271484"/>
      <use xlink:href="#DejaVuSans-5b" x="339.058594"/>
      <use xlink:href="#DejaVuSans-50" x="378.072266"/>
      <use xlink:href="#DejaVuSans-61" x="433.875"/>
      <use xlink:href="#DejaVuSans-5d" x="495.154297"/>
     </g>
    </g>
   </g>
   <g id="line2d_12">
    <path d="M 69.450887 226.318931 
L 69.450887 226.328799 
L 69.450836 225.998504 
L 70.47311 221.884824 
L 71.536165 219.198218 
L 72.611586 219.810517 
L 73.690485 219.894747 
L 74.78175 219.223465 
L 75.851375 218.254253 
L 77.968985 216.880066 
L 79.149127 216.481005 
L 80.22107 216.523032 
L 81.339385 217.200115 
L 82.486295 218.305835 
L 84.79789 219.710055 
L 85.936298 219.863741 
L 87.054613 218.83583 
L 88.163653 217.476204 
L 89.272693 216.381404 
L 90.384824 215.639251 
L 91.503912 215.198101 
L 92.626863 215.045097 
L 94.860399 214.923524 
L 95.959392 214.886439 
L 97.039064 215.031536 
L 98.093232 214.601079 
L 99.121895 213.703761 
L 101.459767 211.065503 
L 102.615951 210.156354 
L 103.769376 209.822551 
L 104.913967 209.803425 
L 106.043102 209.422452 
L 107.155233 208.737178 
L 108.254999 207.90675 
L 110.425163 206.519822 
L 112.576778 205.089665 
L 116.853731 203.145781 
L 125.324943 198.578199 
L 127.447963 197.639246 
L 129.570983 196.297821 
L 131.695548 195.27446 
L 134.884328 193.305094 
L 137.013531 192.281734 
L 139.140415 190.968975 
L 141.269617 189.604343 
L 143.40423 188.560961 
L 144.472309 188.112985 
L 147.666499 186.478976 
L 149.788746 185.396916 
L 152.972889 183.791574 
L 158.267686 180.924891 
L 160.381432 179.716788 
L 161.436373 179.154827 
L 163.544708 177.79247 
L 165.653044 176.812338 
L 174.066292 171.741494 
L 178.303057 169.49547 
L 180.418554 168.115982 
L 181.476586 167.579048 
L 184.646045 165.685671 
L 185.700985 165.225182 
L 188.849577 163.417352 
L 196.201702 158.766954 
L 201.525868 155.996737 
L 206.870127 152.970339 
L 212.207431 150.121402 
L 214.319631 148.624811 
L 219.588151 145.355427 
L 222.735198 143.385606 
L 225.875289 141.644665 
L 236.365185 135.168691 
L 237.41858 134.575333 
L 238.47043 133.833636 
L 239.52537 132.896276 
L 240.585721 132.175965 
L 244.851081 129.924481 
L 248.041407 128.060227 
L 250.1652 126.854855 
L 254.409694 124.113304 
L 256.535829 122.870442 
L 259.726928 120.824176 
L 263.993061 117.942477 
L 266.137721 116.478649 
L 270.453317 113.953237 
L 280.184287 107.621507 
L 282.328173 106.211827 
L 284.459695 104.717505 
L 287.639973 102.696721 
L 291.873647 99.790905 
L 295.066292 97.941212 
L 298.272848 95.800755 
L 300.422917 94.439763 
L 302.581488 93.086506 
L 305.815093 91.128516 
L 309.034788 88.871572 
L 313.322561 86.077693 
L 315.460265 84.731717 
L 319.714806 81.563805 
L 321.84169 80.186887 
L 323.970892 78.723968 
L 326.104732 77.158213 
L 337.911976 69.095382 
L 341.138626 66.890311 
L 343.283286 65.207614 
L 345.424081 63.695552 
L 346.49216 62.866944 
L 348.625227 61.491391 
L 353.917705 57.611358 
L 354.973419 56.769554 
L 359.191636 54.050301 
L 362.300812 52.811256 
L 365.614794 51.758319 
L 367.784185 51.217289 
L 369.913774 50.413708 
L 370.935096 49.891107 
L 371.955451 48.506909 
L 373.112215 45.521122 
L 373.581818 46.093506 
L 373.350567 59.582174 
L 373.351799 59.49697 
L 373.34506 70.281899 
L 373.349021 59.45653 
L 373.341051 69.782704 
L 372.322483 70.366933 
L 370.221296 74.859321 
L 369.17022 74.203453 
L 368.139237 74.052099 
L 367.046427 74.23458 
L 366.006171 74.531856 
L 362.899699 74.723196 
L 361.843213 75.201716 
L 360.799865 77.745329 
L 359.780862 79.537233 
L 357.720056 82.244656 
L 355.567282 81.677647 
L 351.359233 83.066055 
L 350.326319 86.273214 
L 349.311953 88.32858 
L 348.257592 88.966019 
L 346.212243 89.205762 
L 345.17276 89.464048 
L 344.156462 90.128959 
L 343.133401 91.291104 
L 342.11092 92.646635 
L 341.057525 93.472627 
L 340.006062 93.97896 
L 336.91157 96.27481 
L 334.829898 98.238374 
L 333.799688 98.444673 
L 332.783776 98.761828 
L 331.763614 99.389541 
L 329.656631 101.168022 
L 328.630672 102.367934 
L 327.606066 103.244035 
L 325.531736 104.193226 
L 323.47209 105.62361 
L 321.370324 107.493324 
L 318.259988 109.410931 
L 317.235961 109.99132 
L 315.199887 111.480403 
L 314.139923 112.163515 
L 312.048203 113.878065 
L 306.895997 117.469609 
L 305.839124 118.143394 
L 303.740063 119.746575 
L 297.410153 123.750006 
L 294.253446 126.16348 
L 293.220532 126.766849 
L 291.130359 127.742886 
L 289.054096 129.167355 
L 286.9674 130.716501 
L 284.927849 131.924717 
L 283.908073 132.430027 
L 280.729339 134.650797 
L 279.711882 135.287837 
L 277.629051 136.432236 
L 276.571429 137.343097 
L 272.454842 140.049383 
L 271.428123 140.481262 
L 269.34645 141.800733 
L 265.147168 144.667188 
L 262.054994 146.331969 
L 257.898026 149.149737 
L 255.819832 150.558962 
L 254.791168 151.024343 
L 253.766368 151.694714 
L 251.722022 152.815167 
L 248.647237 154.769403 
L 244.51075 157.35101 
L 243.468754 158.202825 
L 242.452842 158.867395 
L 238.3293 160.842505 
L 237.28943 161.51538 
L 235.220123 163.085003 
L 234.197642 163.668805 
L 233.167819 164.066557 
L 232.149589 164.615663 
L 231.091943 165.338705 
L 230.039321 165.803855 
L 228.988245 166.552036 
L 227.968469 166.912732 
L 226.935555 167.537828 
L 225.903606 167.935033 
L 223.840289 169.057931 
L 222.799646 169.934545 
L 219.668057 171.858408 
L 217.585998 172.691168 
L 216.524488 173.282706 
L 212.346073 176.393284 
L 210.296088 177.292877 
L 208.183888 178.254012 
L 205.057322 180.209955 
L 204.018998 180.879644 
L 202.979901 181.269547 
L 201.951624 181.794536 
L 200.888834 182.211763 
L 199.847225 182.809671 
L 198.815276 183.611205 
L 195.680596 185.450318 
L 194.655796 185.804502 
L 193.595059 186.32642 
L 192.546688 186.994971 
L 190.434874 188.12333 
L 189.410848 188.684494 
L 187.356612 189.585054 
L 184.170923 191.453119 
L 183.155784 192.274446 
L 179.043834 194.459382 
L 178.030241 194.893139 
L 176.968345 195.559415 
L 175.94945 196.064416 
L 174.921559 196.711467 
L 172.870028 197.461867 
L 169.722783 199.309285 
L 167.678207 200.340495 
L 163.557563 202.628495 
L 162.509771 203.301483 
L 161.484972 203.780401 
L 160.444329 204.115359 
L 155.281302 206.513035 
L 153.166398 207.89257 
L 152.152418 208.303632 
L 150.073058 209.390163 
L 149.050577 209.708968 
L 144.925875 211.725885 
L 143.884073 212.496022 
L 142.835315 212.791335 
L 140.728526 213.825162 
L 138.674676 214.492206 
L 135.561828 216.265909 
L 133.480736 217.621782 
L 131.4265 218.724659 
L 127.274555 220.495461 
L 125.198292 221.696306 
L 124.180062 222.264069 
L 122.118484 223.044558 
L 120.042992 224.053528 
L 118.991915 224.717188 
L 114.826252 226.467798 
L 113.767447 226.805757 
L 112.72294 227.495467 
L 109.589998 229.155186 
L 108.567904 229.805422 
L 106.532603 230.647681 
L 104.414993 231.689129 
L 102.359598 232.373379 
L 99.198407 233.891766 
L 97.105142 235.261517 
L 96.041314 235.728149 
L 92.985852 236.790471 
L 90.881574 237.740458 
L 88.787536 238.86165 
L 87.724867 239.064949 
L 86.669926 239.388648 
L 85.633148 239.911306 
L 83.538337 241.2227 
L 81.440048 242.026338 
L 79.341759 242.479146 
L 78.304401 243.070683 
L 77.244823 243.898154 
L 76.215773 244.472287 
L 73.091472 245.109907 
L 72.037497 244.997543 
L 70.00123 245.645334 
L 69.483034 246.24 
L 69.218182 245.08316 
L 69.218437 245.09573 
" clip-path="url(#pce47fa79af)" style="fill: none; stroke: #ff0000; stroke-width: 1.5; stroke-linecap: square"/>
   </g>
   <g id="line2d_13">
    <path d="M 69.450887 226.318931 
L 69.450887 226.328799 
L 69.450836 225.998504 
L 70.47311 221.884824 
L 71.536165 219.198218 
L 72.611586 219.810517 
L 73.690485 219.894747 
L 74.78175 219.223465 
L 75.851375 231.333594 
L 76.870764 230.261546 
L 79.149127 227.658325 
L 80.22107 226.697467 
L 81.339385 226.368026 
L 82.486295 226.553677 
L 83.643251 226.503624 
L 84.79789 226.266099 
L 85.936298 225.120222 
L 89.272693 218.146901 
L 90.384824 216.365463 
L 91.503912 215.198101 
L 92.626863 215.045097 
L 94.860399 214.923524 
L 95.959392 214.886439 
L 97.039064 215.031536 
L 98.093232 214.601079 
L 99.121895 213.703761 
L 101.459767 211.065503 
L 102.615951 210.156354 
L 103.769376 209.822551 
L 104.913967 209.803425 
L 106.043102 209.422452 
L 107.155233 208.737178 
L 108.254999 207.90675 
L 110.425163 206.519822 
L 112.576778 205.089665 
L 116.853731 203.145781 
L 125.324943 198.578199 
L 127.447963 197.639246 
L 129.570983 196.297821 
L 131.695548 195.27446 
L 134.884328 193.305094 
L 137.013531 192.281734 
L 139.140415 190.968975 
L 141.269617 189.604343 
L 143.40423 188.560961 
L 144.472309 188.112985 
L 147.666499 186.478976 
L 149.788746 185.396916 
L 152.972889 183.791574 
L 158.267686 180.924891 
L 160.381432 179.716788 
L 161.436373 179.154827 
L 163.544708 177.79247 
L 165.653044 176.812338 
L 174.066292 171.741494 
L 178.303057 169.49547 
L 180.418554 168.115982 
L 181.476586 167.579048 
L 184.646045 165.685671 
L 185.700985 165.225182 
L 188.849577 163.417352 
L 196.201702 158.766954 
L 201.525868 155.996737 
L 206.870127 152.970339 
L 212.207431 150.121402 
L 214.319631 148.624811 
L 219.588151 145.355427 
L 222.735198 143.385606 
L 225.875289 141.644665 
L 236.365185 135.168691 
L 237.41858 134.575333 
L 238.47043 133.833636 
L 239.52537 132.896276 
L 240.585721 132.175965 
L 244.851081 129.924481 
L 248.041407 128.060227 
L 250.1652 126.854855 
L 254.409694 124.113304 
L 256.535829 122.870442 
L 259.726928 120.824176 
L 263.993061 117.942477 
L 266.137721 116.478649 
L 270.453317 113.953237 
L 280.184287 107.621507 
L 282.328173 106.211827 
L 284.459695 104.717505 
L 287.639973 102.696721 
L 291.873647 99.790905 
L 295.066292 97.941212 
L 298.272848 95.800755 
L 300.422917 94.439763 
L 302.581488 93.086506 
L 305.815093 91.128516 
L 309.034788 88.871572 
L 313.322561 86.077693 
L 315.460265 84.731717 
L 319.714806 81.563805 
L 321.84169 80.186887 
L 323.970892 78.723968 
L 326.104732 77.158213 
L 337.911976 69.095382 
L 340.06591 67.720751 
L 343.283286 65.061817 
L 344.355229 64.383504 
L 348.625227 61.140818 
L 353.917705 56.276443 
L 356.029905 54.019954 
L 358.140559 51.813062 
L 359.191636 50.597225 
L 360.238848 49.62369 
L 362.300812 48.055887 
L 364.553671 46.372507 
L 365.614794 45.703614 
L 367.784185 44.900561 
L 368.829079 44.711667 
L 369.913774 44.64 
L 370.935096 45.044066 
L 371.955451 45.702038 
L 372.970928 45.534701 
L 373.112215 45.252768 
L 373.581818 45.964491 
L 373.350036 59.406661 
L 373.34506 70.281899 
L 373.341051 69.782704 
L 372.322483 70.366933 
L 370.221296 74.859321 
L 369.17022 74.203453 
L 368.139237 74.052099 
L 367.046427 74.23458 
L 366.006171 74.531856 
L 362.899699 74.723196 
L 361.843213 75.201716 
L 360.799865 77.745329 
L 359.780862 79.537233 
L 357.720056 82.244656 
L 355.567282 81.677647 
L 351.359233 83.066055 
L 350.326319 86.273214 
L 349.311953 88.32858 
L 348.257592 88.966019 
L 346.212243 89.205762 
L 345.17276 89.464048 
L 344.156462 90.128959 
L 343.133401 91.291104 
L 342.11092 92.646635 
L 341.057525 93.472627 
L 340.006062 93.97896 
L 336.91157 96.27481 
L 334.829898 98.238374 
L 333.799688 98.444673 
L 332.783776 98.761828 
L 331.763614 99.389541 
L 329.656631 101.168022 
L 328.630672 102.367934 
L 327.606066 103.244035 
L 325.531736 104.193226 
L 323.47209 105.62361 
L 321.370324 107.493324 
L 318.259988 109.410931 
L 317.235961 109.99132 
L 315.199887 111.480403 
L 314.139923 112.163515 
L 312.048203 113.878065 
L 306.895997 117.469609 
L 305.839124 118.143394 
L 303.740063 119.746575 
L 297.410153 123.750006 
L 294.253446 126.16348 
L 293.220532 126.766849 
L 291.130359 127.742886 
L 289.054096 129.167355 
L 286.9674 130.716501 
L 284.927849 131.924717 
L 283.908073 132.430027 
L 280.729339 134.650797 
L 279.711882 135.287837 
L 277.629051 136.432236 
L 276.571429 137.343097 
L 272.454842 140.049383 
L 271.428123 140.481262 
L 269.34645 141.800733 
L 265.147168 144.667188 
L 262.054994 146.331969 
L 257.898026 149.149737 
L 255.819832 150.558962 
L 254.791168 151.024343 
L 253.766368 151.694714 
L 251.722022 152.815167 
L 248.647237 154.769403 
L 244.51075 157.35101 
L 243.468754 158.202825 
L 242.452842 158.867395 
L 238.3293 160.842505 
L 237.28943 161.51538 
L 235.220123 163.085003 
L 234.197642 163.668805 
L 233.167819 164.066557 
L 232.149589 164.615663 
L 231.091943 165.338705 
L 230.039321 165.803855 
L 228.988245 166.552036 
L 227.968469 166.912732 
L 226.935555 167.537828 
L 225.903606 167.935033 
L 223.840289 169.057931 
L 222.799646 169.934545 
L 219.668057 171.858408 
L 217.585998 172.691168 
L 216.524488 173.282706 
L 212.346073 176.393284 
L 210.296088 177.292877 
L 208.183888 178.254012 
L 205.057322 180.209955 
L 204.018998 180.879644 
L 202.979901 181.269547 
L 201.951624 181.794536 
L 200.888834 182.211763 
L 199.847225 182.809671 
L 198.815276 183.611205 
L 195.680596 185.450318 
L 194.655796 185.804502 
L 193.595059 186.32642 
L 192.546688 186.994971 
L 190.434874 188.12333 
L 189.410848 188.684494 
L 187.356612 189.585054 
L 184.170923 191.453119 
L 183.155784 192.274446 
L 179.043834 194.459382 
L 178.030241 194.893139 
L 176.968345 195.559415 
L 175.94945 196.064416 
L 174.921559 196.711467 
L 172.870028 197.461867 
L 169.722783 199.309285 
L 167.678207 200.340495 
L 163.557563 202.628495 
L 162.509771 203.301483 
L 161.484972 203.780401 
L 160.444329 204.115359 
L 155.281302 206.513035 
L 153.166398 207.89257 
L 152.152418 208.303632 
L 150.073058 209.390163 
L 149.050577 209.708968 
L 144.925875 211.725885 
L 143.884073 212.496022 
L 142.835315 212.791335 
L 140.728526 213.825162 
L 138.674676 214.492206 
L 135.561828 216.265909 
L 133.480736 217.621782 
L 131.4265 218.724659 
L 127.274555 220.495461 
L 125.198292 221.696306 
L 124.180062 222.264069 
L 122.118484 223.044558 
L 120.042992 224.053528 
L 118.991915 224.717188 
L 114.826252 226.467798 
L 113.767447 226.805757 
L 112.72294 227.495467 
L 109.589998 229.155186 
L 108.567904 229.805422 
L 106.532603 230.647681 
L 104.414993 231.689129 
L 102.359598 232.373379 
L 99.198407 233.891766 
L 97.105142 235.261517 
L 96.041314 235.728149 
L 92.985852 236.790471 
L 90.881574 237.740458 
L 88.787536 238.86165 
L 87.724867 239.064949 
L 86.669926 239.388648 
L 85.633148 239.911306 
L 83.538337 241.2227 
L 81.440048 242.026338 
L 79.341759 242.479146 
L 78.304401 243.070683 
L 77.244823 243.898154 
L 76.215773 244.472287 
L 73.091472 245.109907 
L 72.037497 244.997543 
L 70.00123 245.645334 
L 69.483034 246.24 
L 69.218182 245.08316 
L 69.218437 245.09573 
" clip-path="url(#pce47fa79af)" style="fill: none; stroke: #000000; stroke-width: 1.5; stroke-linecap: square"/>
   </g>
   <g id="patch_3">
    <path d="M 54 256.32 
L 54 34.56 
" style="fill: none; stroke: #000000; stroke-width: 0.8; stroke-linejoin: miter; stroke-linecap: square"/>
   </g>
   <g id="patch_4">
    <path d="M 388.8 256.32 
L 388.8 34.56 
" style="fill: none; stroke: #000000; stroke-width: 0.8; stroke-linejoin: miter; stroke-linecap: square"/>
   </g>
   <g id="patch_5">
    <path d="M 54 256.32 
L 388.8 256.32 
" style="fill: none; stroke: #000000; stroke-width: 0.8; stroke-linejoin: miter; stroke-linecap: square"/>
   </g>
   <g id="patch_6">
    <path d="M 54 34.56 
L 388.8 34.56 
" style="fill: none; stroke: #000000; stroke-width: 0.8; stroke-linejoin: miter; stroke-linecap: square"/>
   </g>
   <g id="text_14">
    <!-- 2025-07-03 trial 12 -->
    <g transform="translate(163.2525 28.56) scale(0.12 -0.12)">
     <defs>
      <path id="DejaVuSans-35" d="M 691 4666 
L 3169 4666 
L 3169 4134 
L 1269 4134 
L 1269 2991 
Q 1406 3038 1543 3061 
Q 1681 3084 1819 3084 
Q 2600 3084 3056 2656 
Q 3513 2228 3513 1497 
Q 3513 744 3044 326 
Q 2575 -91 1722 -91 
Q 1428 -91 1123 -41 
Q 819 9 494 109 
L 494 744 
Q 775 591 1075 516 
Q 1375 441 1709 441 
Q 2250 441 2565 725 
Q 2881 1009 2881 1497 
Q 2881 1984 2565 2268 
Q 2250 2553 1709 2553 
Q 1456 2553 1204 2497 
Q 953 2441 691 2322 
L 691 4666 
z
" transform="scale(0.015625)"/>
      <path id="DejaVuSans-2d" d="M 313 2009 
L 1997 2009 
L 1997 1497 
L 313 1497 
L 313 2009 
z
" transform="scale(0.015625)"/>
      <path id="DejaVuSans-37" d="M 525 4666 
L 3525 4666 
L 3525 4397 
L 1831 0 
L 1172 0 
L 2766 4134 
L 525 4134 
L 525 4666 
z
" transform="scale(0.015625)"/>
      <path id="DejaVuSans-33" d="M 2597 2516 
Q 3050 2419 3304 2112 
Q 3559 1806 3559 1356 
Q 3559 666 3084 287 
Q 2609 -91 1734 -91 
Q 1441 -91 1130 -33 
Q 819 25 488 141 
L 488 750 
Q 750 597 1062 519 
Q 1375 441 1716 441 
Q 2309 441 2620 675 
Q 2931 909 2931 1356 
Q 2931 1769 2642 2001 
Q 2353 2234 1838 2234 
L 1294 2234 
L 1294 2753 
L 1863 2753 
Q 2328 2753 2575 2939 
Q 2822 3125 2822 3475 
Q 2822 3834 2567 4026 
Q 2313 4219 1838 4219 
Q 1578 4219 1281 4162 
Q 984 4106 628 3988 
L 628 4550 
Q 988 4650 1302 4700 
Q 1616 4750 1894 4750 
Q 2613 4750 3031 4423 
Q 3450 4097 3450 3541 
Q 3450 3153 3228 2886 
Q 3006 2619 2597 2516 
z
" transform="scale(0.015625)"/>
      <path id="DejaVuSans-6c" d="M 603 4863 
L 1178 4863 
L 1178 0 
L 603 0 
L 603 4863 
z
" transform="scale(0.015625)"/>
     </defs>
     <use xlink:href="#DejaVuSans-32"/>
     <use xlink:href="#DejaVuSans-30" x="63.623047"/>
     <use xlink:href="#DejaVuSans-32" x="127.246094"/>
     <use xlink:href="#DejaVuSans-35" x="190.869141"/>
     <use xlink:href="#DejaVuSans-2d" x="254.492188"/>
     <use xlink:href="#DejaVuSans-30" x="290.576172"/>
     <use xlink:href="#DejaVuSans-37" x="354.199219"/>
     <use xlink:href="#DejaVuSans-2d" x="417.822266"/>
     <use xlink:href="#DejaVuSans-30" x="453.90625"/>
     <use xlink:href="#DejaVuSans-33" x="517.529297"/>
     <use xlink:href="#DejaVuSans-20" x="581.152344"/>
     <use xlink:href="#DejaVuSans-74" x="612.939453"/>
     <use xlink:href="#DejaVuSans-72" x="652.148438"/>
     <use xlink:href="#DejaVuSans-69" x="693.261719"/>
     <use xlink:href="#DejaVuSans-61" x="721.044922"/>
     <use xlink:href="#DejaVuSans-6c" x="782.324219"/>
     <use xlink:href="#DejaVuSans-20" x="810.107422"/>
     <use xlink:href="#DejaVuSans-31" x="841.894531"/>
     <use xlink:href="#DejaVuSans-32" x="905.517578"/>
    </g>
   </g>
  </g>
 </g>
 <defs>
  <clipPath id="pce47fa79af">
   <rect x="54" y="34.56" width="334.8" height="221.76"/>
  </clipPath>
 </defs>
</svg>
