<?xml version="1.0" encoding="utf-8" standalone="no"?>
<!DOCTYPE svg PUBLIC "-//W3C//DTD SVG 1.1//EN"
  "http://www.w3.org/Graphics/SVG/1.1/DTD/svg11.dtd">
<svg xmlns:xlink="http://www.w3.org/1999/xlink" width="432pt" height="288pt" viewBox="0 0 432 288" xmlns="http://www.w3.org/2000/svg" version="1.1">
 <metadata>
  <rdf:RDF xmlns:dc="http://purl.org/dc/elements/1.1/" xmlns:cc="http://creativecommons.org/ns#" xmlns:rdf="http://www.w3.org/1999/02/22-rdf-syntax-ns#">
   <cc:Work>
    <dc:type rdf:resource="http://purl.org/dc/dcmitype/StillImage"/>
    <dc:date>2025-07-03T20:54:33.035726</dc:date>
    <dc:format>image/svg+xml</dc:format>
    <dc:creator>
     <cc:Agent>
      <dc:title>Matplotlib v3.9.2, https://matplotlib.org/</dc:title>
     </cc:Agent>
    </dc:creator>
   </cc:Work>
  </rdf:RDF>
 </metadata>
 <defs>
  <style type="text/css">*{stroke-linejoin: round; stroke-linecap: butt}</style>
 </defs>
 <g id="figure_1">
  <g id="patch_1">
   <path d="M 0 288 
L 432 288 
L 432 0 
L 0 0 
z
" style="fill: #ffffff"/>
  </g>
  <g id="axes_1">
   <g id="patch_2">
    <path d="M 54 256.32 
L 388.8 256.32 
L 388.8 34.56 
L 54 34.56 
z
" style="fill: #ffffff"/>
   </g>
   <g id="matplotlib.axis_1">
    <g id="xtick_1">
     <g id="line2d_1">
      <defs>
       <path id="mc57ad2e6a8" d="M 0 0 
L 0 3.5 
" style="stroke: #000000; stroke-width: 0.8"/>
      </defs>
      <g>
       <use xlink:href="#mc57ad2e6a8" x="69.917723" y="256.32" style="stroke: #000000; stroke-width: 0.8"/>
      </g>
     </g>
     <g id="text_1">
      <!-- 0.000 -->
      <g transform="translate(55.60366 270.918437) scale(0.1 -0.1)">
       <defs>
        <path id="DejaVuSans-30" d="M 2034 4250 
Q 1547 4250 1301 3770 
Q 1056 3291 1056 2328 
Q 1056 1369 1301 889 
Q 1547 409 2034 409 
Q 2525 409 2770 889 
Q 3016 1369 3016 2328 
Q 3016 3291 2770 3770 
Q 2525 4250 2034 4250 
z
M 2034 4750 
Q 2819 4750 3233 4129 
Q 3647 3509 3647 2328 
Q 3647 1150 3233 529 
Q 2819 -91 2034 -91 
Q 1250 -91 836 529 
Q 422 1150 422 2328 
Q 422 3509 836 4129 
Q 1250 4750 2034 4750 
z
" transform="scale(0.015625)"/>
        <path id="DejaVuSans-2e" d="M 684 794 
L 1344 794 
L 1344 0 
L 684 0 
L 684 794 
z
" transform="scale(0.015625)"/>
       </defs>
       <use xlink:href="#DejaVuSans-30"/>
       <use xlink:href="#DejaVuSans-2e" x="63.623047"/>
       <use xlink:href="#DejaVuSans-30" x="95.410156"/>
       <use xlink:href="#DejaVuSans-30" x="159.033203"/>
       <use xlink:href="#DejaVuSans-30" x="222.65625"/>
      </g>
     </g>
    </g>
    <g id="xtick_2">
     <g id="line2d_2">
      <g>
       <use xlink:href="#mc57ad2e6a8" x="112.291038" y="256.32" style="stroke: #000000; stroke-width: 0.8"/>
      </g>
     </g>
     <g id="text_2">
      <!-- 0.005 -->
      <g transform="translate(97.976976 270.918437) scale(0.1 -0.1)">
       <defs>
        <path id="DejaVuSans-35" d="M 691 4666 
L 3169 4666 
L 3169 4134 
L 1269 4134 
L 1269 2991 
Q 1406 3038 1543 3061 
Q 1681 3084 1819 3084 
Q 2600 3084 3056 2656 
Q 3513 2228 3513 1497 
Q 3513 744 3044 326 
Q 2575 -91 1722 -91 
Q 1428 -91 1123 -41 
Q 819 9 494 109 
L 494 744 
Q 775 591 1075 516 
Q 1375 441 1709 441 
Q 2250 441 2565 725 
Q 2881 1009 2881 1497 
Q 2881 1984 2565 2268 
Q 2250 2553 1709 2553 
Q 1456 2553 1204 2497 
Q 953 2441 691 2322 
L 691 4666 
z
" transform="scale(0.015625)"/>
       </defs>
       <use xlink:href="#DejaVuSans-30"/>
       <use xlink:href="#DejaVuSans-2e" x="63.623047"/>
       <use xlink:href="#DejaVuSans-30" x="95.410156"/>
       <use xlink:href="#DejaVuSans-30" x="159.033203"/>
       <use xlink:href="#DejaVuSans-35" x="222.65625"/>
      </g>
     </g>
    </g>
    <g id="xtick_3">
     <g id="line2d_3">
      <g>
       <use xlink:href="#mc57ad2e6a8" x="154.664353" y="256.32" style="stroke: #000000; stroke-width: 0.8"/>
      </g>
     </g>
     <g id="text_3">
      <!-- 0.010 -->
      <g transform="translate(140.350291 270.918437) scale(0.1 -0.1)">
       <defs>
        <path id="DejaVuSans-31" d="M 794 531 
L 1825 531 
L 1825 4091 
L 703 3866 
L 703 4441 
L 1819 4666 
L 2450 4666 
L 2450 531 
L 3481 531 
L 3481 0 
L 794 0 
L 794 531 
z
" transform="scale(0.015625)"/>
       </defs>
       <use xlink:href="#DejaVuSans-30"/>
       <use xlink:href="#DejaVuSans-2e" x="63.623047"/>
       <use xlink:href="#DejaVuSans-30" x="95.410156"/>
       <use xlink:href="#DejaVuSans-31" x="159.033203"/>
       <use xlink:href="#DejaVuSans-30" x="222.65625"/>
      </g>
     </g>
    </g>
    <g id="xtick_4">
     <g id="line2d_4">
      <g>
       <use xlink:href="#mc57ad2e6a8" x="197.037668" y="256.32" style="stroke: #000000; stroke-width: 0.8"/>
      </g>
     </g>
     <g id="text_4">
      <!-- 0.015 -->
      <g transform="translate(182.723606 270.918437) scale(0.1 -0.1)">
       <use xlink:href="#DejaVuSans-30"/>
       <use xlink:href="#DejaVuSans-2e" x="63.623047"/>
       <use xlink:href="#DejaVuSans-30" x="95.410156"/>
       <use xlink:href="#DejaVuSans-31" x="159.033203"/>
       <use xlink:href="#DejaVuSans-35" x="222.65625"/>
      </g>
     </g>
    </g>
    <g id="xtick_5">
     <g id="line2d_5">
      <g>
       <use xlink:href="#mc57ad2e6a8" x="239.410984" y="256.32" style="stroke: #000000; stroke-width: 0.8"/>
      </g>
     </g>
     <g id="text_5">
      <!-- 0.020 -->
      <g transform="translate(225.096921 270.918437) scale(0.1 -0.1)">
       <defs>
        <path id="DejaVuSans-32" d="M 1228 531 
L 3431 531 
L 3431 0 
L 469 0 
L 469 531 
Q 828 903 1448 1529 
Q 2069 2156 2228 2338 
Q 2531 2678 2651 2914 
Q 2772 3150 2772 3378 
Q 2772 3750 2511 3984 
Q 2250 4219 1831 4219 
Q 1534 4219 1204 4116 
Q 875 4013 500 3803 
L 500 4441 
Q 881 4594 1212 4672 
Q 1544 4750 1819 4750 
Q 2544 4750 2975 4387 
Q 3406 4025 3406 3419 
Q 3406 3131 3298 2873 
Q 3191 2616 2906 2266 
Q 2828 2175 2409 1742 
Q 1991 1309 1228 531 
z
" transform="scale(0.015625)"/>
       </defs>
       <use xlink:href="#DejaVuSans-30"/>
       <use xlink:href="#DejaVuSans-2e" x="63.623047"/>
       <use xlink:href="#DejaVuSans-30" x="95.410156"/>
       <use xlink:href="#DejaVuSans-32" x="159.033203"/>
       <use xlink:href="#DejaVuSans-30" x="222.65625"/>
      </g>
     </g>
    </g>
    <g id="xtick_6">
     <g id="line2d_6">
      <g>
       <use xlink:href="#mc57ad2e6a8" x="281.784299" y="256.32" style="stroke: #000000; stroke-width: 0.8"/>
      </g>
     </g>
     <g id="text_6">
      <!-- 0.025 -->
      <g transform="translate(267.470236 270.918437) scale(0.1 -0.1)">
       <use xlink:href="#DejaVuSans-30"/>
       <use xlink:href="#DejaVuSans-2e" x="63.623047"/>
       <use xlink:href="#DejaVuSans-30" x="95.410156"/>
       <use xlink:href="#DejaVuSans-32" x="159.033203"/>
       <use xlink:href="#DejaVuSans-35" x="222.65625"/>
      </g>
     </g>
    </g>
    <g id="xtick_7">
     <g id="line2d_7">
      <g>
       <use xlink:href="#mc57ad2e6a8" x="324.157614" y="256.32" style="stroke: #000000; stroke-width: 0.8"/>
      </g>
     </g>
     <g id="text_7">
      <!-- 0.030 -->
      <g transform="translate(309.843552 270.918437) scale(0.1 -0.1)">
       <defs>
        <path id="DejaVuSans-33" d="M 2597 2516 
Q 3050 2419 3304 2112 
Q 3559 1806 3559 1356 
Q 3559 666 3084 287 
Q 2609 -91 1734 -91 
Q 1441 -91 1130 -33 
Q 819 25 488 141 
L 488 750 
Q 750 597 1062 519 
Q 1375 441 1716 441 
Q 2309 441 2620 675 
Q 2931 909 2931 1356 
Q 2931 1769 2642 2001 
Q 2353 2234 1838 2234 
L 1294 2234 
L 1294 2753 
L 1863 2753 
Q 2328 2753 2575 2939 
Q 2822 3125 2822 3475 
Q 2822 3834 2567 4026 
Q 2313 4219 1838 4219 
Q 1578 4219 1281 4162 
Q 984 4106 628 3988 
L 628 4550 
Q 988 4650 1302 4700 
Q 1616 4750 1894 4750 
Q 2613 4750 3031 4423 
Q 3450 4097 3450 3541 
Q 3450 3153 3228 2886 
Q 3006 2619 2597 2516 
z
" transform="scale(0.015625)"/>
       </defs>
       <use xlink:href="#DejaVuSans-30"/>
       <use xlink:href="#DejaVuSans-2e" x="63.623047"/>
       <use xlink:href="#DejaVuSans-30" x="95.410156"/>
       <use xlink:href="#DejaVuSans-33" x="159.033203"/>
       <use xlink:href="#DejaVuSans-30" x="222.65625"/>
      </g>
     </g>
    </g>
    <g id="xtick_8">
     <g id="line2d_8">
      <g>
       <use xlink:href="#mc57ad2e6a8" x="366.530929" y="256.32" style="stroke: #000000; stroke-width: 0.8"/>
      </g>
     </g>
     <g id="text_8">
      <!-- 0.035 -->
      <g transform="translate(352.216867 270.918437) scale(0.1 -0.1)">
       <use xlink:href="#DejaVuSans-30"/>
       <use xlink:href="#DejaVuSans-2e" x="63.623047"/>
       <use xlink:href="#DejaVuSans-30" x="95.410156"/>
       <use xlink:href="#DejaVuSans-33" x="159.033203"/>
       <use xlink:href="#DejaVuSans-35" x="222.65625"/>
      </g>
     </g>
    </g>
    <g id="text_9">
     <!-- Strain -->
     <g transform="translate(206.588281 284.596563) scale(0.1 -0.1)">
      <defs>
       <path id="DejaVuSans-53" d="M 3425 4513 
L 3425 3897 
Q 3066 4069 2747 4153 
Q 2428 4238 2131 4238 
Q 1616 4238 1336 4038 
Q 1056 3838 1056 3469 
Q 1056 3159 1242 3001 
Q 1428 2844 1947 2747 
L 2328 2669 
Q 3034 2534 3370 2195 
Q 3706 1856 3706 1288 
Q 3706 609 3251 259 
Q 2797 -91 1919 -91 
Q 1588 -91 1214 -16 
Q 841 59 441 206 
L 441 856 
Q 825 641 1194 531 
Q 1563 422 1919 422 
Q 2459 422 2753 634 
Q 3047 847 3047 1241 
Q 3047 1584 2836 1778 
Q 2625 1972 2144 2069 
L 1759 2144 
Q 1053 2284 737 2584 
Q 422 2884 422 3419 
Q 422 4038 858 4394 
Q 1294 4750 2059 4750 
Q 2388 4750 2728 4690 
Q 3069 4631 3425 4513 
z
" transform="scale(0.015625)"/>
       <path id="DejaVuSans-74" d="M 1172 4494 
L 1172 3500 
L 2356 3500 
L 2356 3053 
L 1172 3053 
L 1172 1153 
Q 1172 725 1289 603 
Q 1406 481 1766 481 
L 2356 481 
L 2356 0 
L 1766 0 
Q 1100 0 847 248 
Q 594 497 594 1153 
L 594 3053 
L 172 3053 
L 172 3500 
L 594 3500 
L 594 4494 
L 1172 4494 
z
" transform="scale(0.015625)"/>
       <path id="DejaVuSans-72" d="M 2631 2963 
Q 2534 3019 2420 3045 
Q 2306 3072 2169 3072 
Q 1681 3072 1420 2755 
Q 1159 2438 1159 1844 
L 1159 0 
L 581 0 
L 581 3500 
L 1159 3500 
L 1159 2956 
Q 1341 3275 1631 3429 
Q 1922 3584 2338 3584 
Q 2397 3584 2469 3576 
Q 2541 3569 2628 3553 
L 2631 2963 
z
" transform="scale(0.015625)"/>
       <path id="DejaVuSans-61" d="M 2194 1759 
Q 1497 1759 1228 1600 
Q 959 1441 959 1056 
Q 959 750 1161 570 
Q 1363 391 1709 391 
Q 2188 391 2477 730 
Q 2766 1069 2766 1631 
L 2766 1759 
L 2194 1759 
z
M 3341 1997 
L 3341 0 
L 2766 0 
L 2766 531 
Q 2569 213 2275 61 
Q 1981 -91 1556 -91 
Q 1019 -91 701 211 
Q 384 513 384 1019 
Q 384 1609 779 1909 
Q 1175 2209 1959 2209 
L 2766 2209 
L 2766 2266 
Q 2766 2663 2505 2880 
Q 2244 3097 1772 3097 
Q 1472 3097 1187 3025 
Q 903 2953 641 2809 
L 641 3341 
Q 956 3463 1253 3523 
Q 1550 3584 1831 3584 
Q 2591 3584 2966 3190 
Q 3341 2797 3341 1997 
z
" transform="scale(0.015625)"/>
       <path id="DejaVuSans-69" d="M 603 3500 
L 1178 3500 
L 1178 0 
L 603 0 
L 603 3500 
z
M 603 4863 
L 1178 4863 
L 1178 4134 
L 603 4134 
L 603 4863 
z
" transform="scale(0.015625)"/>
       <path id="DejaVuSans-6e" d="M 3513 2113 
L 3513 0 
L 2938 0 
L 2938 2094 
Q 2938 2591 2744 2837 
Q 2550 3084 2163 3084 
Q 1697 3084 1428 2787 
Q 1159 2491 1159 1978 
L 1159 0 
L 581 0 
L 581 3500 
L 1159 3500 
L 1159 2956 
Q 1366 3272 1645 3428 
Q 1925 3584 2291 3584 
Q 2894 3584 3203 3211 
Q 3513 2838 3513 2113 
z
" transform="scale(0.015625)"/>
      </defs>
      <use xlink:href="#DejaVuSans-53"/>
      <use xlink:href="#DejaVuSans-74" x="63.476562"/>
      <use xlink:href="#DejaVuSans-72" x="102.685547"/>
      <use xlink:href="#DejaVuSans-61" x="143.798828"/>
      <use xlink:href="#DejaVuSans-69" x="205.078125"/>
      <use xlink:href="#DejaVuSans-6e" x="232.861328"/>
     </g>
    </g>
   </g>
   <g id="matplotlib.axis_2">
    <g id="ytick_1">
     <g id="line2d_9">
      <defs>
       <path id="ma75c3670c0" d="M 0 0 
L -3.5 0 
" style="stroke: #000000; stroke-width: 0.8"/>
      </defs>
      <g>
       <use xlink:href="#ma75c3670c0" x="54" y="231.916621" style="stroke: #000000; stroke-width: 0.8"/>
      </g>
     </g>
     <g id="text_10">
      <!-- −50 -->
      <g transform="translate(25.895312 235.71584) scale(0.1 -0.1)">
       <defs>
        <path id="DejaVuSans-2212" d="M 678 2272 
L 4684 2272 
L 4684 1741 
L 678 1741 
L 678 2272 
z
" transform="scale(0.015625)"/>
       </defs>
       <use xlink:href="#DejaVuSans-2212"/>
       <use xlink:href="#DejaVuSans-35" x="83.789062"/>
       <use xlink:href="#DejaVuSans-30" x="147.412109"/>
      </g>
     </g>
    </g>
    <g id="ytick_2">
     <g id="line2d_10">
      <g>
       <use xlink:href="#ma75c3670c0" x="54" y="203.758482" style="stroke: #000000; stroke-width: 0.8"/>
      </g>
     </g>
     <g id="text_11">
      <!-- 0 -->
      <g transform="translate(40.6375 207.557701) scale(0.1 -0.1)">
       <use xlink:href="#DejaVuSans-30"/>
      </g>
     </g>
    </g>
    <g id="ytick_3">
     <g id="line2d_11">
      <g>
       <use xlink:href="#ma75c3670c0" x="54" y="175.600343" style="stroke: #000000; stroke-width: 0.8"/>
      </g>
     </g>
     <g id="text_12">
      <!-- 50 -->
      <g transform="translate(34.275 179.399561) scale(0.1 -0.1)">
       <use xlink:href="#DejaVuSans-35"/>
       <use xlink:href="#DejaVuSans-30" x="63.623047"/>
      </g>
     </g>
    </g>
    <g id="ytick_4">
     <g id="line2d_12">
      <g>
       <use xlink:href="#ma75c3670c0" x="54" y="147.442203" style="stroke: #000000; stroke-width: 0.8"/>
      </g>
     </g>
     <g id="text_13">
      <!-- 100 -->
      <g transform="translate(27.9125 151.241422) scale(0.1 -0.1)">
       <use xlink:href="#DejaVuSans-31"/>
       <use xlink:href="#DejaVuSans-30" x="63.623047"/>
       <use xlink:href="#DejaVuSans-30" x="127.246094"/>
      </g>
     </g>
    </g>
    <g id="ytick_5">
     <g id="line2d_13">
      <g>
       <use xlink:href="#ma75c3670c0" x="54" y="119.284064" style="stroke: #000000; stroke-width: 0.8"/>
      </g>
     </g>
     <g id="text_14">
      <!-- 150 -->
      <g transform="translate(27.9125 123.083283) scale(0.1 -0.1)">
       <use xlink:href="#DejaVuSans-31"/>
       <use xlink:href="#DejaVuSans-35" x="63.623047"/>
       <use xlink:href="#DejaVuSans-30" x="127.246094"/>
      </g>
     </g>
    </g>
    <g id="ytick_6">
     <g id="line2d_14">
      <g>
       <use xlink:href="#ma75c3670c0" x="54" y="91.125925" style="stroke: #000000; stroke-width: 0.8"/>
      </g>
     </g>
     <g id="text_15">
      <!-- 200 -->
      <g transform="translate(27.9125 94.925144) scale(0.1 -0.1)">
       <use xlink:href="#DejaVuSans-32"/>
       <use xlink:href="#DejaVuSans-30" x="63.623047"/>
       <use xlink:href="#DejaVuSans-30" x="127.246094"/>
      </g>
     </g>
    </g>
    <g id="ytick_7">
     <g id="line2d_15">
      <g>
       <use xlink:href="#ma75c3670c0" x="54" y="62.967786" style="stroke: #000000; stroke-width: 0.8"/>
      </g>
     </g>
     <g id="text_16">
      <!-- 250 -->
      <g transform="translate(27.9125 66.767005) scale(0.1 -0.1)">
       <use xlink:href="#DejaVuSans-32"/>
       <use xlink:href="#DejaVuSans-35" x="63.623047"/>
       <use xlink:href="#DejaVuSans-30" x="127.246094"/>
      </g>
     </g>
    </g>
    <g id="ytick_8">
     <g id="line2d_16">
      <g>
       <use xlink:href="#ma75c3670c0" x="54" y="34.809647" style="stroke: #000000; stroke-width: 0.8"/>
      </g>
     </g>
     <g id="text_17">
      <!-- 300 -->
      <g transform="translate(27.9125 38.608866) scale(0.1 -0.1)">
       <use xlink:href="#DejaVuSans-33"/>
       <use xlink:href="#DejaVuSans-30" x="63.623047"/>
       <use xlink:href="#DejaVuSans-30" x="127.246094"/>
      </g>
     </g>
    </g>
    <g id="text_18">
     <!-- Stress [Pa] -->
     <g transform="translate(19.815625 172.147812) rotate(-90) scale(0.1 -0.1)">
      <defs>
       <path id="DejaVuSans-65" d="M 3597 1894 
L 3597 1613 
L 953 1613 
Q 991 1019 1311 708 
Q 1631 397 2203 397 
Q 2534 397 2845 478 
Q 3156 559 3463 722 
L 3463 178 
Q 3153 47 2828 -22 
Q 2503 -91 2169 -91 
Q 1331 -91 842 396 
Q 353 884 353 1716 
Q 353 2575 817 3079 
Q 1281 3584 2069 3584 
Q 2775 3584 3186 3129 
Q 3597 2675 3597 1894 
z
M 3022 2063 
Q 3016 2534 2758 2815 
Q 2500 3097 2075 3097 
Q 1594 3097 1305 2825 
Q 1016 2553 972 2059 
L 3022 2063 
z
" transform="scale(0.015625)"/>
       <path id="DejaVuSans-73" d="M 2834 3397 
L 2834 2853 
Q 2591 2978 2328 3040 
Q 2066 3103 1784 3103 
Q 1356 3103 1142 2972 
Q 928 2841 928 2578 
Q 928 2378 1081 2264 
Q 1234 2150 1697 2047 
L 1894 2003 
Q 2506 1872 2764 1633 
Q 3022 1394 3022 966 
Q 3022 478 2636 193 
Q 2250 -91 1575 -91 
Q 1294 -91 989 -36 
Q 684 19 347 128 
L 347 722 
Q 666 556 975 473 
Q 1284 391 1588 391 
Q 1994 391 2212 530 
Q 2431 669 2431 922 
Q 2431 1156 2273 1281 
Q 2116 1406 1581 1522 
L 1381 1569 
Q 847 1681 609 1914 
Q 372 2147 372 2553 
Q 372 3047 722 3315 
Q 1072 3584 1716 3584 
Q 2034 3584 2315 3537 
Q 2597 3491 2834 3397 
z
" transform="scale(0.015625)"/>
       <path id="DejaVuSans-20" transform="scale(0.015625)"/>
       <path id="DejaVuSans-5b" d="M 550 4863 
L 1875 4863 
L 1875 4416 
L 1125 4416 
L 1125 -397 
L 1875 -397 
L 1875 -844 
L 550 -844 
L 550 4863 
z
" transform="scale(0.015625)"/>
       <path id="DejaVuSans-50" d="M 1259 4147 
L 1259 2394 
L 2053 2394 
Q 2494 2394 2734 2622 
Q 2975 2850 2975 3272 
Q 2975 3691 2734 3919 
Q 2494 4147 2053 4147 
L 1259 4147 
z
M 628 4666 
L 2053 4666 
Q 2838 4666 3239 4311 
Q 3641 3956 3641 3272 
Q 3641 2581 3239 2228 
Q 2838 1875 2053 1875 
L 1259 1875 
L 1259 0 
L 628 0 
L 628 4666 
z
" transform="scale(0.015625)"/>
       <path id="DejaVuSans-5d" d="M 1947 4863 
L 1947 -844 
L 622 -844 
L 622 -397 
L 1369 -397 
L 1369 4416 
L 622 4416 
L 622 4863 
L 1947 4863 
z
" transform="scale(0.015625)"/>
      </defs>
      <use xlink:href="#DejaVuSans-53"/>
      <use xlink:href="#DejaVuSans-74" x="63.476562"/>
      <use xlink:href="#DejaVuSans-72" x="102.685547"/>
      <use xlink:href="#DejaVuSans-65" x="141.548828"/>
      <use xlink:href="#DejaVuSans-73" x="203.072266"/>
      <use xlink:href="#DejaVuSans-73" x="255.171875"/>
      <use xlink:href="#DejaVuSans-20" x="307.271484"/>
      <use xlink:href="#DejaVuSans-5b" x="339.058594"/>
      <use xlink:href="#DejaVuSans-50" x="378.072266"/>
      <use xlink:href="#DejaVuSans-61" x="433.875"/>
      <use xlink:href="#DejaVuSans-5d" x="495.154297"/>
     </g>
    </g>
   </g>
   <g id="line2d_17">
    <path d="M 69.917723 206.583036 
L 69.917723 205.963669 
L 69.912551 206.911011 
L 69.945361 206.548556 
L 72.985401 206.439459 
L 76.103924 200.521891 
L 79.199655 196.582704 
L 82.394382 198.271413 
L 85.426312 197.973548 
L 88.513663 194.636939 
L 91.756881 189.791407 
L 94.832686 192.013241 
L 98.090914 196.842746 
L 101.323741 199.171426 
L 104.406473 201.803436 
L 107.489205 200.733254 
L 110.524597 197.303451 
L 113.555372 195.01098 
L 116.711997 198.345381 
L 119.767596 195.629675 
L 122.910944 182.076075 
L 126.085465 181.632918 
L 129.246708 183.279853 
L 132.305194 183.278174 
L 135.458355 182.925911 
L 138.51915 182.854086 
L 141.607077 177.724221 
L 144.685191 174.5093 
L 147.815261 174.639926 
L 150.903765 173.961871 
L 157.036901 173.415801 
L 160.128292 169.779426 
L 163.208715 165.969127 
L 166.385915 165.585358 
L 169.556395 164.906821 
L 175.831544 163.19251 
L 178.925244 160.770041 
L 181.960061 157.646534 
L 185.089553 155.867821 
L 191.325446 153.120209 
L 194.432424 152.30609 
L 197.597131 150.283705 
L 200.690254 147.46412 
L 203.803583 145.261282 
L 206.845904 143.931476 
L 209.973665 142.434128 
L 213.123362 141.243966 
L 216.224567 140.206803 
L 219.393893 138.641191 
L 222.495684 136.105939 
L 225.605549 134.050609 
L 231.725984 131.085296 
L 237.949176 127.814873 
L 241.004198 125.409618 
L 244.036092 122.762575 
L 247.136143 120.879982 
L 256.272344 117.19879 
L 259.420887 115.45777 
L 262.518628 113.453787 
L 265.629647 111.056249 
L 268.7932 108.764964 
L 274.939036 106.324094 
L 277.991749 104.541522 
L 281.022524 102.510827 
L 284.076392 100.752593 
L 290.209527 96.600975 
L 296.406164 93.465893 
L 302.525445 89.709611 
L 305.560839 88.058818 
L 311.831369 84.046696 
L 314.968366 82.258782 
L 324.254122 76.458737 
L 327.331081 74.804976 
L 333.5358 70.835296 
L 336.649706 69.192517 
L 339.755529 67.306362 
L 342.878671 65.242129 
L 346.041069 63.419489 
L 352.129176 59.354537 
L 355.188816 57.355896 
L 358.219592 55.838366 
L 361.323684 54.514941 
L 364.382746 53.90055 
L 367.411213 53.06202 
L 370.443143 51.639316 
L 371.843939 50.20667 
L 373.581818 47.7402 
L 373.394127 48.256027 
L 372.970395 49.864554 
L 372.739876 50.110804 
L 372.593028 52.251092 
L 372.581933 57.625482 
L 372.584585 51.908132 
L 372.591151 56.964456 
L 372.585775 75.546388 
L 372.583105 75.42356 
L 369.529671 74.704806 
L 366.413168 81.632973 
L 363.238647 87.563601 
L 360.189398 85.511684 
L 357.155158 84.689293 
L 350.811889 85.519865 
L 347.659882 86.295065 
L 344.550595 85.610055 
L 341.36626 85.82835 
L 338.322784 85.923715 
L 335.131522 92.683597 
L 332.063799 96.987175 
L 328.89101 100.660353 
L 325.691666 103.450259 
L 322.448447 104.657004 
L 319.2889 104.076708 
L 316.162294 103.91396 
L 312.999896 104.479528 
L 309.917164 105.248088 
L 306.75592 106.335261 
L 303.613728 110.390715 
L 300.548892 117.195117 
L 297.396308 119.688967 
L 294.355141 120.509763 
L 291.259709 120.832948 
L 288.142339 121.306676 
L 284.998415 123.187488 
L 281.85449 125.508452 
L 278.697288 128.040148 
L 275.547013 130.726174 
L 272.479868 132.396853 
L 269.390786 133.900434 
L 266.327105 136.045396 
L 263.278433 137.670368 
L 260.117767 139.976789 
L 257.056972 142.063282 
L 253.999641 144.563513 
L 247.741811 147.444239 
L 244.584031 148.405866 
L 241.544795 150.330836 
L 238.46899 151.82581 
L 235.371249 153.80694 
L 232.314495 156.044801 
L 229.178653 158.135152 
L 223.035126 161.001632 
L 219.995123 163.055478 
L 216.830416 165.472604 
L 213.790403 167.474807 
L 210.708826 169.146079 
L 207.626094 170.966047 
L 204.568763 173.200643 
L 201.401747 174.890614 
L 198.273409 176.926058 
L 195.145649 179.133645 
L 191.98556 180.605765 
L 188.818544 181.533817 
L 185.686165 183.692729 
L 182.54224 185.569091 
L 176.46337 188.592577 
L 173.41643 190.34992 
L 170.243641 191.839255 
L 164.045624 196.814947 
L 160.901699 198.762538 
L 157.835131 200.27443 
L 154.742008 201.473792 
L 151.676595 202.391048 
L 148.51997 204.522655 
L 145.38875 206.810971 
L 142.244826 208.472746 
L 139.087046 210.668461 
L 136.038952 212.275922 
L 132.978157 213.308187 
L 129.939299 215.033476 
L 126.76651 217.753931 
L 120.635684 221.094398 
L 117.586435 223.107879 
L 114.539495 224.7468 
L 111.502946 225.735732 
L 108.360176 227.270477 
L 105.22895 229.210946 
L 102.057315 230.784868 
L 92.921114 236.171761 
L 89.876506 237.363645 
L 86.730273 239.336465 
L 83.607131 240.550297 
L 80.553841 241.514298 
L 74.302361 242.858593 
L 71.260328 243.869113 
L 69.982351 246.188297 
L 69.218182 246.209059 
L 69.221659 246.24 
" clip-path="url(#pf8d1678045)" style="fill: none; stroke: #ff0000; stroke-width: 1.5; stroke-linecap: square"/>
   </g>
   <g id="line2d_18">
    <path d="M 69.917723 206.583036 
L 69.917723 205.963669 
L 69.912551 206.911011 
L 69.945361 206.548556 
L 72.985401 206.439459 
L 76.103924 200.521891 
L 79.199655 196.582704 
L 82.394382 198.271413 
L 85.426312 209.049547 
L 88.513663 202.707631 
L 91.756881 195.12443 
L 94.832686 195.783323 
L 98.090914 198.205792 
L 101.323741 199.181368 
L 104.406473 201.803436 
L 107.489205 200.733254 
L 110.524597 197.303451 
L 113.555372 195.01098 
L 116.711997 198.345381 
L 119.767596 195.629675 
L 122.910944 182.076075 
L 126.085465 181.632918 
L 129.246708 183.279853 
L 132.305194 183.278174 
L 135.458355 182.925911 
L 138.51915 182.854086 
L 141.607077 177.724221 
L 144.685191 174.5093 
L 147.815261 174.639926 
L 150.903765 173.961871 
L 157.036901 173.415801 
L 160.128292 169.779426 
L 163.208715 165.969127 
L 166.385915 165.585358 
L 169.556395 164.906821 
L 175.831544 163.19251 
L 178.925244 160.770041 
L 181.960061 157.646534 
L 185.089553 155.867821 
L 191.325446 153.120209 
L 194.432424 152.30609 
L 197.597131 150.283705 
L 200.690254 147.46412 
L 203.803583 145.261282 
L 206.845904 143.931476 
L 209.973665 142.434128 
L 213.123362 141.243966 
L 216.224567 140.206803 
L 219.393893 138.641191 
L 222.495684 136.105939 
L 225.605549 134.050609 
L 231.725984 131.085296 
L 237.949176 127.814873 
L 241.004198 125.409618 
L 244.036092 122.762575 
L 247.136143 120.879982 
L 256.272344 117.19879 
L 259.420887 115.45777 
L 262.518628 113.453787 
L 265.629647 111.056249 
L 268.7932 108.764964 
L 274.939036 106.324094 
L 277.991749 104.541522 
L 281.022524 102.510827 
L 284.076392 100.752593 
L 290.209527 96.600975 
L 296.406164 93.465893 
L 302.525445 89.709611 
L 305.560839 88.058818 
L 311.831369 84.046696 
L 314.968366 82.258782 
L 324.254122 76.458737 
L 327.331081 74.804976 
L 333.5358 70.835296 
L 336.649706 69.192517 
L 339.755529 67.306362 
L 342.878671 65.242129 
L 346.041069 63.419489 
L 352.129176 59.354537 
L 355.188816 57.355896 
L 358.219592 55.838366 
L 361.323684 54.514941 
L 364.382746 53.90055 
L 367.411213 53.06202 
L 370.443143 51.639316 
L 371.843939 50.20667 
L 373.581818 47.7402 
L 373.394127 48.256027 
L 373.158376 47.107342 
L 372.970395 47.029701 
L 372.831882 44.64 
L 372.635422 51.79098 
L 372.611501 51.601354 
L 372.594074 53.024753 
L 372.59927 51.545528 
L 372.582672 52.803453 
L 372.585559 65.613405 
L 372.584585 51.908132 
L 372.586281 65.039675 
L 372.582276 74.948775 
L 372.577765 64.568572 
L 372.592053 73.342409 
L 372.585775 75.546388 
L 372.57616 73.239429 
L 372.583105 75.42356 
L 369.529671 74.704806 
L 366.413168 81.632973 
L 363.238647 87.563601 
L 360.189398 85.511684 
L 357.155158 84.689293 
L 350.811889 85.519865 
L 347.659882 86.295065 
L 344.550595 85.610055 
L 341.36626 85.82835 
L 338.322784 85.923715 
L 335.131522 92.683597 
L 332.063799 96.987175 
L 328.89101 100.660353 
L 325.691666 103.450259 
L 322.448447 104.657004 
L 319.2889 104.076708 
L 316.162294 103.91396 
L 312.999896 104.479528 
L 309.917164 105.248088 
L 306.75592 106.335261 
L 303.613728 110.390715 
L 300.548892 117.195117 
L 297.396308 119.688967 
L 294.355141 120.509763 
L 291.259709 120.832948 
L 288.142339 121.306676 
L 284.998415 123.187488 
L 281.85449 125.508452 
L 278.697288 128.040148 
L 275.547013 130.726174 
L 272.479868 132.396853 
L 269.390786 133.900434 
L 266.327105 136.045396 
L 263.278433 137.670368 
L 260.117767 139.976789 
L 257.056972 142.063282 
L 253.999641 144.563513 
L 247.741811 147.444239 
L 244.584031 148.405866 
L 241.544795 150.330836 
L 238.46899 151.82581 
L 235.371249 153.80694 
L 232.314495 156.044801 
L 229.178653 158.135152 
L 223.035126 161.001632 
L 219.995123 163.055478 
L 216.830416 165.472604 
L 213.790403 167.474807 
L 210.708826 169.146079 
L 207.626094 170.966047 
L 204.568763 173.200643 
L 201.401747 174.890614 
L 198.273409 176.926058 
L 195.145649 179.133645 
L 191.98556 180.605765 
L 188.818544 181.533817 
L 185.686165 183.692729 
L 182.54224 185.569091 
L 176.46337 188.592577 
L 173.41643 190.34992 
L 170.243641 191.839255 
L 164.045624 196.814947 
L 160.901699 198.762538 
L 157.835131 200.27443 
L 154.742008 201.473792 
L 151.676595 202.391048 
L 148.51997 204.522655 
L 145.38875 206.810971 
L 142.244826 208.472746 
L 139.087046 210.668461 
L 136.038952 212.275922 
L 132.978157 213.308187 
L 129.939299 215.033476 
L 126.76651 217.753931 
L 120.635684 221.094398 
L 117.586435 223.107879 
L 114.539495 224.7468 
L 111.502946 225.735732 
L 108.360176 227.270477 
L 105.22895 229.210946 
L 102.057315 230.784868 
L 92.921114 236.171761 
L 89.876506 237.363645 
L 86.730273 239.336465 
L 83.607131 240.550297 
L 80.553841 241.514298 
L 74.302361 242.858593 
L 71.260328 243.869113 
L 69.982351 246.188297 
L 69.218182 246.209059 
L 69.221659 246.24 
" clip-path="url(#pf8d1678045)" style="fill: none; stroke: #000000; stroke-width: 1.5; stroke-linecap: square"/>
   </g>
   <g id="patch_3">
    <path d="M 54 256.32 
L 54 34.56 
" style="fill: none; stroke: #000000; stroke-width: 0.8; stroke-linejoin: miter; stroke-linecap: square"/>
   </g>
   <g id="patch_4">
    <path d="M 388.8 256.32 
L 388.8 34.56 
" style="fill: none; stroke: #000000; stroke-width: 0.8; stroke-linejoin: miter; stroke-linecap: square"/>
   </g>
   <g id="patch_5">
    <path d="M 54 256.32 
L 388.8 256.32 
" style="fill: none; stroke: #000000; stroke-width: 0.8; stroke-linejoin: miter; stroke-linecap: square"/>
   </g>
   <g id="patch_6">
    <path d="M 54 34.56 
L 388.8 34.56 
" style="fill: none; stroke: #000000; stroke-width: 0.8; stroke-linejoin: miter; stroke-linecap: square"/>
   </g>
   <g id="text_19">
    <!-- 2025-07-03 trial 2 -->
    <g transform="translate(167.07 28.56) scale(0.12 -0.12)">
     <defs>
      <path id="DejaVuSans-2d" d="M 313 2009 
L 1997 2009 
L 1997 1497 
L 313 1497 
L 313 2009 
z
" transform="scale(0.015625)"/>
      <path id="DejaVuSans-37" d="M 525 4666 
L 3525 4666 
L 3525 4397 
L 1831 0 
L 1172 0 
L 2766 4134 
L 525 4134 
L 525 4666 
z
" transform="scale(0.015625)"/>
      <path id="DejaVuSans-6c" d="M 603 4863 
L 1178 4863 
L 1178 0 
L 603 0 
L 603 4863 
z
" transform="scale(0.015625)"/>
     </defs>
     <use xlink:href="#DejaVuSans-32"/>
     <use xlink:href="#DejaVuSans-30" x="63.623047"/>
     <use xlink:href="#DejaVuSans-32" x="127.246094"/>
     <use xlink:href="#DejaVuSans-35" x="190.869141"/>
     <use xlink:href="#DejaVuSans-2d" x="254.492188"/>
     <use xlink:href="#DejaVuSans-30" x="290.576172"/>
     <use xlink:href="#DejaVuSans-37" x="354.199219"/>
     <use xlink:href="#DejaVuSans-2d" x="417.822266"/>
     <use xlink:href="#DejaVuSans-30" x="453.90625"/>
     <use xlink:href="#DejaVuSans-33" x="517.529297"/>
     <use xlink:href="#DejaVuSans-20" x="581.152344"/>
     <use xlink:href="#DejaVuSans-74" x="612.939453"/>
     <use xlink:href="#DejaVuSans-72" x="652.148438"/>
     <use xlink:href="#DejaVuSans-69" x="693.261719"/>
     <use xlink:href="#DejaVuSans-61" x="721.044922"/>
     <use xlink:href="#DejaVuSans-6c" x="782.324219"/>
     <use xlink:href="#DejaVuSans-20" x="810.107422"/>
     <use xlink:href="#DejaVuSans-32" x="841.894531"/>
    </g>
   </g>
  </g>
 </g>
 <defs>
  <clipPath id="pf8d1678045">
   <rect x="54" y="34.56" width="334.8" height="221.76"/>
  </clipPath>
 </defs>
</svg>
