<?xml version="1.0" encoding="utf-8" standalone="no"?>
<!DOCTYPE svg PUBLIC "-//W3C//DTD SVG 1.1//EN"
  "http://www.w3.org/Graphics/SVG/1.1/DTD/svg11.dtd">
<svg xmlns:xlink="http://www.w3.org/1999/xlink" width="460.8pt" height="345.6pt" viewBox="0 0 460.8 345.6" xmlns="http://www.w3.org/2000/svg" version="1.1">
 <metadata>
  <rdf:RDF xmlns:dc="http://purl.org/dc/elements/1.1/" xmlns:cc="http://creativecommons.org/ns#" xmlns:rdf="http://www.w3.org/1999/02/22-rdf-syntax-ns#">
   <cc:Work>
    <dc:type rdf:resource="http://purl.org/dc/dcmitype/StillImage"/>
    <dc:date>2025-07-08T21:01:42.302338</dc:date>
    <dc:format>image/svg+xml</dc:format>
    <dc:creator>
     <cc:Agent>
      <dc:title>Matplotlib v3.10.3, https://matplotlib.org/</dc:title>
     </cc:Agent>
    </dc:creator>
   </cc:Work>
  </rdf:RDF>
 </metadata>
 <defs>
  <style type="text/css">*{stroke-linejoin: round; stroke-linecap: butt}</style>
 </defs>
 <g id="figure_1">
  <g id="patch_1">
   <path d="M 0 345.6 
L 460.8 345.6 
L 460.8 0 
L 0 0 
z
" style="fill: #ffffff"/>
  </g>
  <g id="axes_1">
   <g id="patch_2">
    <path d="M 57.6 307.584 
L 414.72 307.584 
L 414.72 41.472 
L 57.6 41.472 
z
" style="fill: #ffffff"/>
   </g>
   <g id="matplotlib.axis_1">
    <g id="xtick_1">
     <g id="line2d_1">
      <defs>
       <path id="m2c1c67bfec" d="M 0 0 
L 0 3.5 
" style="stroke: #000000; stroke-width: 0.8"/>
      </defs>
      <g>
       <use xlink:href="#m2c1c67bfec" x="73.973173" y="307.584" style="stroke: #000000; stroke-width: 0.8"/>
      </g>
     </g>
     <g id="text_1">
      <!-- 0.000 -->
      <g transform="translate(59.65911 322.182437) scale(0.1 -0.1)">
       <defs>
        <path id="DejaVuSans-30" d="M 2034 4250 
Q 1547 4250 1301 3770 
Q 1056 3291 1056 2328 
Q 1056 1369 1301 889 
Q 1547 409 2034 409 
Q 2525 409 2770 889 
Q 3016 1369 3016 2328 
Q 3016 3291 2770 3770 
Q 2525 4250 2034 4250 
z
M 2034 4750 
Q 2819 4750 3233 4129 
Q 3647 3509 3647 2328 
Q 3647 1150 3233 529 
Q 2819 -91 2034 -91 
Q 1250 -91 836 529 
Q 422 1150 422 2328 
Q 422 3509 836 4129 
Q 1250 4750 2034 4750 
z
" transform="scale(0.015625)"/>
        <path id="DejaVuSans-2e" d="M 684 794 
L 1344 794 
L 1344 0 
L 684 0 
L 684 794 
z
" transform="scale(0.015625)"/>
       </defs>
       <use xlink:href="#DejaVuSans-30"/>
       <use xlink:href="#DejaVuSans-2e" transform="translate(63.623047 0)"/>
       <use xlink:href="#DejaVuSans-30" transform="translate(95.410156 0)"/>
       <use xlink:href="#DejaVuSans-30" transform="translate(159.033203 0)"/>
       <use xlink:href="#DejaVuSans-30" transform="translate(222.65625 0)"/>
      </g>
     </g>
    </g>
    <g id="xtick_2">
     <g id="line2d_2">
      <g>
       <use xlink:href="#m2c1c67bfec" x="119.384195" y="307.584" style="stroke: #000000; stroke-width: 0.8"/>
      </g>
     </g>
     <g id="text_2">
      <!-- 0.025 -->
      <g transform="translate(105.070132 322.182437) scale(0.1 -0.1)">
       <defs>
        <path id="DejaVuSans-32" d="M 1228 531 
L 3431 531 
L 3431 0 
L 469 0 
L 469 531 
Q 828 903 1448 1529 
Q 2069 2156 2228 2338 
Q 2531 2678 2651 2914 
Q 2772 3150 2772 3378 
Q 2772 3750 2511 3984 
Q 2250 4219 1831 4219 
Q 1534 4219 1204 4116 
Q 875 4013 500 3803 
L 500 4441 
Q 881 4594 1212 4672 
Q 1544 4750 1819 4750 
Q 2544 4750 2975 4387 
Q 3406 4025 3406 3419 
Q 3406 3131 3298 2873 
Q 3191 2616 2906 2266 
Q 2828 2175 2409 1742 
Q 1991 1309 1228 531 
z
" transform="scale(0.015625)"/>
        <path id="DejaVuSans-35" d="M 691 4666 
L 3169 4666 
L 3169 4134 
L 1269 4134 
L 1269 2991 
Q 1406 3038 1543 3061 
Q 1681 3084 1819 3084 
Q 2600 3084 3056 2656 
Q 3513 2228 3513 1497 
Q 3513 744 3044 326 
Q 2575 -91 1722 -91 
Q 1428 -91 1123 -41 
Q 819 9 494 109 
L 494 744 
Q 775 591 1075 516 
Q 1375 441 1709 441 
Q 2250 441 2565 725 
Q 2881 1009 2881 1497 
Q 2881 1984 2565 2268 
Q 2250 2553 1709 2553 
Q 1456 2553 1204 2497 
Q 953 2441 691 2322 
L 691 4666 
z
" transform="scale(0.015625)"/>
       </defs>
       <use xlink:href="#DejaVuSans-30"/>
       <use xlink:href="#DejaVuSans-2e" transform="translate(63.623047 0)"/>
       <use xlink:href="#DejaVuSans-30" transform="translate(95.410156 0)"/>
       <use xlink:href="#DejaVuSans-32" transform="translate(159.033203 0)"/>
       <use xlink:href="#DejaVuSans-35" transform="translate(222.65625 0)"/>
      </g>
     </g>
    </g>
    <g id="xtick_3">
     <g id="line2d_3">
      <g>
       <use xlink:href="#m2c1c67bfec" x="164.795216" y="307.584" style="stroke: #000000; stroke-width: 0.8"/>
      </g>
     </g>
     <g id="text_3">
      <!-- 0.050 -->
      <g transform="translate(150.481154 322.182437) scale(0.1 -0.1)">
       <use xlink:href="#DejaVuSans-30"/>
       <use xlink:href="#DejaVuSans-2e" transform="translate(63.623047 0)"/>
       <use xlink:href="#DejaVuSans-30" transform="translate(95.410156 0)"/>
       <use xlink:href="#DejaVuSans-35" transform="translate(159.033203 0)"/>
       <use xlink:href="#DejaVuSans-30" transform="translate(222.65625 0)"/>
      </g>
     </g>
    </g>
    <g id="xtick_4">
     <g id="line2d_4">
      <g>
       <use xlink:href="#m2c1c67bfec" x="210.206238" y="307.584" style="stroke: #000000; stroke-width: 0.8"/>
      </g>
     </g>
     <g id="text_4">
      <!-- 0.075 -->
      <g transform="translate(195.892176 322.182437) scale(0.1 -0.1)">
       <defs>
        <path id="DejaVuSans-37" d="M 525 4666 
L 3525 4666 
L 3525 4397 
L 1831 0 
L 1172 0 
L 2766 4134 
L 525 4134 
L 525 4666 
z
" transform="scale(0.015625)"/>
       </defs>
       <use xlink:href="#DejaVuSans-30"/>
       <use xlink:href="#DejaVuSans-2e" transform="translate(63.623047 0)"/>
       <use xlink:href="#DejaVuSans-30" transform="translate(95.410156 0)"/>
       <use xlink:href="#DejaVuSans-37" transform="translate(159.033203 0)"/>
       <use xlink:href="#DejaVuSans-35" transform="translate(222.65625 0)"/>
      </g>
     </g>
    </g>
    <g id="xtick_5">
     <g id="line2d_5">
      <g>
       <use xlink:href="#m2c1c67bfec" x="255.61726" y="307.584" style="stroke: #000000; stroke-width: 0.8"/>
      </g>
     </g>
     <g id="text_5">
      <!-- 0.100 -->
      <g transform="translate(241.303198 322.182437) scale(0.1 -0.1)">
       <defs>
        <path id="DejaVuSans-31" d="M 794 531 
L 1825 531 
L 1825 4091 
L 703 3866 
L 703 4441 
L 1819 4666 
L 2450 4666 
L 2450 531 
L 3481 531 
L 3481 0 
L 794 0 
L 794 531 
z
" transform="scale(0.015625)"/>
       </defs>
       <use xlink:href="#DejaVuSans-30"/>
       <use xlink:href="#DejaVuSans-2e" transform="translate(63.623047 0)"/>
       <use xlink:href="#DejaVuSans-31" transform="translate(95.410156 0)"/>
       <use xlink:href="#DejaVuSans-30" transform="translate(159.033203 0)"/>
       <use xlink:href="#DejaVuSans-30" transform="translate(222.65625 0)"/>
      </g>
     </g>
    </g>
    <g id="xtick_6">
     <g id="line2d_6">
      <g>
       <use xlink:href="#m2c1c67bfec" x="301.028282" y="307.584" style="stroke: #000000; stroke-width: 0.8"/>
      </g>
     </g>
     <g id="text_6">
      <!-- 0.125 -->
      <g transform="translate(286.71422 322.182437) scale(0.1 -0.1)">
       <use xlink:href="#DejaVuSans-30"/>
       <use xlink:href="#DejaVuSans-2e" transform="translate(63.623047 0)"/>
       <use xlink:href="#DejaVuSans-31" transform="translate(95.410156 0)"/>
       <use xlink:href="#DejaVuSans-32" transform="translate(159.033203 0)"/>
       <use xlink:href="#DejaVuSans-35" transform="translate(222.65625 0)"/>
      </g>
     </g>
    </g>
    <g id="xtick_7">
     <g id="line2d_7">
      <g>
       <use xlink:href="#m2c1c67bfec" x="346.439304" y="307.584" style="stroke: #000000; stroke-width: 0.8"/>
      </g>
     </g>
     <g id="text_7">
      <!-- 0.150 -->
      <g transform="translate(332.125242 322.182437) scale(0.1 -0.1)">
       <use xlink:href="#DejaVuSans-30"/>
       <use xlink:href="#DejaVuSans-2e" transform="translate(63.623047 0)"/>
       <use xlink:href="#DejaVuSans-31" transform="translate(95.410156 0)"/>
       <use xlink:href="#DejaVuSans-35" transform="translate(159.033203 0)"/>
       <use xlink:href="#DejaVuSans-30" transform="translate(222.65625 0)"/>
      </g>
     </g>
    </g>
    <g id="xtick_8">
     <g id="line2d_8">
      <g>
       <use xlink:href="#m2c1c67bfec" x="391.850326" y="307.584" style="stroke: #000000; stroke-width: 0.8"/>
      </g>
     </g>
     <g id="text_8">
      <!-- 0.175 -->
      <g transform="translate(377.536264 322.182437) scale(0.1 -0.1)">
       <use xlink:href="#DejaVuSans-30"/>
       <use xlink:href="#DejaVuSans-2e" transform="translate(63.623047 0)"/>
       <use xlink:href="#DejaVuSans-31" transform="translate(95.410156 0)"/>
       <use xlink:href="#DejaVuSans-37" transform="translate(159.033203 0)"/>
       <use xlink:href="#DejaVuSans-35" transform="translate(222.65625 0)"/>
      </g>
     </g>
    </g>
    <g id="text_9">
     <!-- Strain -->
     <g transform="translate(221.348281 335.860562) scale(0.1 -0.1)">
      <defs>
       <path id="DejaVuSans-53" d="M 3425 4513 
L 3425 3897 
Q 3066 4069 2747 4153 
Q 2428 4238 2131 4238 
Q 1616 4238 1336 4038 
Q 1056 3838 1056 3469 
Q 1056 3159 1242 3001 
Q 1428 2844 1947 2747 
L 2328 2669 
Q 3034 2534 3370 2195 
Q 3706 1856 3706 1288 
Q 3706 609 3251 259 
Q 2797 -91 1919 -91 
Q 1588 -91 1214 -16 
Q 841 59 441 206 
L 441 856 
Q 825 641 1194 531 
Q 1563 422 1919 422 
Q 2459 422 2753 634 
Q 3047 847 3047 1241 
Q 3047 1584 2836 1778 
Q 2625 1972 2144 2069 
L 1759 2144 
Q 1053 2284 737 2584 
Q 422 2884 422 3419 
Q 422 4038 858 4394 
Q 1294 4750 2059 4750 
Q 2388 4750 2728 4690 
Q 3069 4631 3425 4513 
z
" transform="scale(0.015625)"/>
       <path id="DejaVuSans-74" d="M 1172 4494 
L 1172 3500 
L 2356 3500 
L 2356 3053 
L 1172 3053 
L 1172 1153 
Q 1172 725 1289 603 
Q 1406 481 1766 481 
L 2356 481 
L 2356 0 
L 1766 0 
Q 1100 0 847 248 
Q 594 497 594 1153 
L 594 3053 
L 172 3053 
L 172 3500 
L 594 3500 
L 594 4494 
L 1172 4494 
z
" transform="scale(0.015625)"/>
       <path id="DejaVuSans-72" d="M 2631 2963 
Q 2534 3019 2420 3045 
Q 2306 3072 2169 3072 
Q 1681 3072 1420 2755 
Q 1159 2438 1159 1844 
L 1159 0 
L 581 0 
L 581 3500 
L 1159 3500 
L 1159 2956 
Q 1341 3275 1631 3429 
Q 1922 3584 2338 3584 
Q 2397 3584 2469 3576 
Q 2541 3569 2628 3553 
L 2631 2963 
z
" transform="scale(0.015625)"/>
       <path id="DejaVuSans-61" d="M 2194 1759 
Q 1497 1759 1228 1600 
Q 959 1441 959 1056 
Q 959 750 1161 570 
Q 1363 391 1709 391 
Q 2188 391 2477 730 
Q 2766 1069 2766 1631 
L 2766 1759 
L 2194 1759 
z
M 3341 1997 
L 3341 0 
L 2766 0 
L 2766 531 
Q 2569 213 2275 61 
Q 1981 -91 1556 -91 
Q 1019 -91 701 211 
Q 384 513 384 1019 
Q 384 1609 779 1909 
Q 1175 2209 1959 2209 
L 2766 2209 
L 2766 2266 
Q 2766 2663 2505 2880 
Q 2244 3097 1772 3097 
Q 1472 3097 1187 3025 
Q 903 2953 641 2809 
L 641 3341 
Q 956 3463 1253 3523 
Q 1550 3584 1831 3584 
Q 2591 3584 2966 3190 
Q 3341 2797 3341 1997 
z
" transform="scale(0.015625)"/>
       <path id="DejaVuSans-69" d="M 603 3500 
L 1178 3500 
L 1178 0 
L 603 0 
L 603 3500 
z
M 603 4863 
L 1178 4863 
L 1178 4134 
L 603 4134 
L 603 4863 
z
" transform="scale(0.015625)"/>
       <path id="DejaVuSans-6e" d="M 3513 2113 
L 3513 0 
L 2938 0 
L 2938 2094 
Q 2938 2591 2744 2837 
Q 2550 3084 2163 3084 
Q 1697 3084 1428 2787 
Q 1159 2491 1159 1978 
L 1159 0 
L 581 0 
L 581 3500 
L 1159 3500 
L 1159 2956 
Q 1366 3272 1645 3428 
Q 1925 3584 2291 3584 
Q 2894 3584 3203 3211 
Q 3513 2838 3513 2113 
z
" transform="scale(0.015625)"/>
      </defs>
      <use xlink:href="#DejaVuSans-53"/>
      <use xlink:href="#DejaVuSans-74" transform="translate(63.476562 0)"/>
      <use xlink:href="#DejaVuSans-72" transform="translate(102.685547 0)"/>
      <use xlink:href="#DejaVuSans-61" transform="translate(143.798828 0)"/>
      <use xlink:href="#DejaVuSans-69" transform="translate(205.078125 0)"/>
      <use xlink:href="#DejaVuSans-6e" transform="translate(232.861328 0)"/>
     </g>
    </g>
   </g>
   <g id="matplotlib.axis_2">
    <g id="ytick_1">
     <g id="line2d_9">
      <defs>
       <path id="m633a3000c2" d="M 0 0 
L -3.5 0 
" style="stroke: #000000; stroke-width: 0.8"/>
      </defs>
      <g>
       <use xlink:href="#m633a3000c2" x="57.6" y="279.575839" style="stroke: #000000; stroke-width: 0.8"/>
      </g>
     </g>
     <g id="text_10">
      <!-- 0 -->
      <g transform="translate(44.2375 283.375057) scale(0.1 -0.1)">
       <use xlink:href="#DejaVuSans-30"/>
      </g>
     </g>
    </g>
    <g id="ytick_2">
     <g id="line2d_10">
      <g>
       <use xlink:href="#m633a3000c2" x="57.6" y="243.81077" style="stroke: #000000; stroke-width: 0.8"/>
      </g>
     </g>
     <g id="text_11">
      <!-- 250 -->
      <g transform="translate(31.5125 247.609989) scale(0.1 -0.1)">
       <use xlink:href="#DejaVuSans-32"/>
       <use xlink:href="#DejaVuSans-35" transform="translate(63.623047 0)"/>
       <use xlink:href="#DejaVuSans-30" transform="translate(127.246094 0)"/>
      </g>
     </g>
    </g>
    <g id="ytick_3">
     <g id="line2d_11">
      <g>
       <use xlink:href="#m633a3000c2" x="57.6" y="208.045702" style="stroke: #000000; stroke-width: 0.8"/>
      </g>
     </g>
     <g id="text_12">
      <!-- 500 -->
      <g transform="translate(31.5125 211.844921) scale(0.1 -0.1)">
       <use xlink:href="#DejaVuSans-35"/>
       <use xlink:href="#DejaVuSans-30" transform="translate(63.623047 0)"/>
       <use xlink:href="#DejaVuSans-30" transform="translate(127.246094 0)"/>
      </g>
     </g>
    </g>
    <g id="ytick_4">
     <g id="line2d_12">
      <g>
       <use xlink:href="#m633a3000c2" x="57.6" y="172.280634" style="stroke: #000000; stroke-width: 0.8"/>
      </g>
     </g>
     <g id="text_13">
      <!-- 750 -->
      <g transform="translate(31.5125 176.079853) scale(0.1 -0.1)">
       <use xlink:href="#DejaVuSans-37"/>
       <use xlink:href="#DejaVuSans-35" transform="translate(63.623047 0)"/>
       <use xlink:href="#DejaVuSans-30" transform="translate(127.246094 0)"/>
      </g>
     </g>
    </g>
    <g id="ytick_5">
     <g id="line2d_13">
      <g>
       <use xlink:href="#m633a3000c2" x="57.6" y="136.515566" style="stroke: #000000; stroke-width: 0.8"/>
      </g>
     </g>
     <g id="text_14">
      <!-- 1000 -->
      <g transform="translate(25.15 140.314785) scale(0.1 -0.1)">
       <use xlink:href="#DejaVuSans-31"/>
       <use xlink:href="#DejaVuSans-30" transform="translate(63.623047 0)"/>
       <use xlink:href="#DejaVuSans-30" transform="translate(127.246094 0)"/>
       <use xlink:href="#DejaVuSans-30" transform="translate(190.869141 0)"/>
      </g>
     </g>
    </g>
    <g id="ytick_6">
     <g id="line2d_14">
      <g>
       <use xlink:href="#m633a3000c2" x="57.6" y="100.750498" style="stroke: #000000; stroke-width: 0.8"/>
      </g>
     </g>
     <g id="text_15">
      <!-- 1250 -->
      <g transform="translate(25.15 104.549717) scale(0.1 -0.1)">
       <use xlink:href="#DejaVuSans-31"/>
       <use xlink:href="#DejaVuSans-32" transform="translate(63.623047 0)"/>
       <use xlink:href="#DejaVuSans-35" transform="translate(127.246094 0)"/>
       <use xlink:href="#DejaVuSans-30" transform="translate(190.869141 0)"/>
      </g>
     </g>
    </g>
    <g id="ytick_7">
     <g id="line2d_15">
      <g>
       <use xlink:href="#m633a3000c2" x="57.6" y="64.98543" style="stroke: #000000; stroke-width: 0.8"/>
      </g>
     </g>
     <g id="text_16">
      <!-- 1500 -->
      <g transform="translate(25.15 68.784648) scale(0.1 -0.1)">
       <use xlink:href="#DejaVuSans-31"/>
       <use xlink:href="#DejaVuSans-35" transform="translate(63.623047 0)"/>
       <use xlink:href="#DejaVuSans-30" transform="translate(127.246094 0)"/>
       <use xlink:href="#DejaVuSans-30" transform="translate(190.869141 0)"/>
      </g>
     </g>
    </g>
    <g id="text_17">
     <!-- Stress [Pa] -->
     <g transform="translate(19.070312 201.235813) rotate(-90) scale(0.1 -0.1)">
      <defs>
       <path id="DejaVuSans-65" d="M 3597 1894 
L 3597 1613 
L 953 1613 
Q 991 1019 1311 708 
Q 1631 397 2203 397 
Q 2534 397 2845 478 
Q 3156 559 3463 722 
L 3463 178 
Q 3153 47 2828 -22 
Q 2503 -91 2169 -91 
Q 1331 -91 842 396 
Q 353 884 353 1716 
Q 353 2575 817 3079 
Q 1281 3584 2069 3584 
Q 2775 3584 3186 3129 
Q 3597 2675 3597 1894 
z
M 3022 2063 
Q 3016 2534 2758 2815 
Q 2500 3097 2075 3097 
Q 1594 3097 1305 2825 
Q 1016 2553 972 2059 
L 3022 2063 
z
" transform="scale(0.015625)"/>
       <path id="DejaVuSans-73" d="M 2834 3397 
L 2834 2853 
Q 2591 2978 2328 3040 
Q 2066 3103 1784 3103 
Q 1356 3103 1142 2972 
Q 928 2841 928 2578 
Q 928 2378 1081 2264 
Q 1234 2150 1697 2047 
L 1894 2003 
Q 2506 1872 2764 1633 
Q 3022 1394 3022 966 
Q 3022 478 2636 193 
Q 2250 -91 1575 -91 
Q 1294 -91 989 -36 
Q 684 19 347 128 
L 347 722 
Q 666 556 975 473 
Q 1284 391 1588 391 
Q 1994 391 2212 530 
Q 2431 669 2431 922 
Q 2431 1156 2273 1281 
Q 2116 1406 1581 1522 
L 1381 1569 
Q 847 1681 609 1914 
Q 372 2147 372 2553 
Q 372 3047 722 3315 
Q 1072 3584 1716 3584 
Q 2034 3584 2315 3537 
Q 2597 3491 2834 3397 
z
" transform="scale(0.015625)"/>
       <path id="DejaVuSans-20" transform="scale(0.015625)"/>
       <path id="DejaVuSans-5b" d="M 550 4863 
L 1875 4863 
L 1875 4416 
L 1125 4416 
L 1125 -397 
L 1875 -397 
L 1875 -844 
L 550 -844 
L 550 4863 
z
" transform="scale(0.015625)"/>
       <path id="DejaVuSans-50" d="M 1259 4147 
L 1259 2394 
L 2053 2394 
Q 2494 2394 2734 2622 
Q 2975 2850 2975 3272 
Q 2975 3691 2734 3919 
Q 2494 4147 2053 4147 
L 1259 4147 
z
M 628 4666 
L 2053 4666 
Q 2838 4666 3239 4311 
Q 3641 3956 3641 3272 
Q 3641 2581 3239 2228 
Q 2838 1875 2053 1875 
L 1259 1875 
L 1259 0 
L 628 0 
L 628 4666 
z
" transform="scale(0.015625)"/>
       <path id="DejaVuSans-5d" d="M 1947 4863 
L 1947 -844 
L 622 -844 
L 622 -397 
L 1369 -397 
L 1369 4416 
L 622 4416 
L 622 4863 
L 1947 4863 
z
" transform="scale(0.015625)"/>
      </defs>
      <use xlink:href="#DejaVuSans-53"/>
      <use xlink:href="#DejaVuSans-74" transform="translate(63.476562 0)"/>
      <use xlink:href="#DejaVuSans-72" transform="translate(102.685547 0)"/>
      <use xlink:href="#DejaVuSans-65" transform="translate(141.548828 0)"/>
      <use xlink:href="#DejaVuSans-73" transform="translate(203.072266 0)"/>
      <use xlink:href="#DejaVuSans-73" transform="translate(255.171875 0)"/>
      <use xlink:href="#DejaVuSans-20" transform="translate(307.271484 0)"/>
      <use xlink:href="#DejaVuSans-5b" transform="translate(339.058594 0)"/>
      <use xlink:href="#DejaVuSans-50" transform="translate(378.072266 0)"/>
      <use xlink:href="#DejaVuSans-61" transform="translate(433.875 0)"/>
      <use xlink:href="#DejaVuSans-5d" transform="translate(495.154297 0)"/>
     </g>
    </g>
   </g>
   <g id="line2d_16">
    <path d="M 73.973173 279.906338 
L 73.97343 280.04241 
L 73.973131 279.789961 
L 74.011424 279.844279 
L 75.33157 274.152293 
L 76.046759 274.195872 
L 76.781252 274.366267 
L 77.433584 273.691324 
L 78.862478 271.442118 
L 79.633101 270.63086 
L 80.332948 270.48651 
L 81.080308 270.613703 
L 81.871224 270.972285 
L 83.9084 272.420486 
L 84.616165 272.905432 
L 86.762229 274.702263 
L 87.469004 275.242096 
L 88.164891 275.581076 
L 88.84791 275.509167 
L 89.519049 274.991651 
L 91.643337 272.564511 
L 92.4491 272.083788 
L 93.249915 272.100488 
L 94.04182 272.268621 
L 95.580096 272.979602 
L 96.315578 272.828622 
L 97.027303 272.207362 
L 98.39433 270.545036 
L 100.360235 268.16796 
L 101.788634 266.643759 
L 102.442946 266.181433 
L 103.762459 265.790581 
L 106.409402 265.381597 
L 108.494091 264.481674 
L 110.037317 263.570893 
L 112.342751 262.161898 
L 116.984307 259.547777 
L 119.064048 258.499173 
L 122.98002 256.494551 
L 124.289634 255.921845 
L 126.254549 255.015588 
L 128.211545 254.146728 
L 130.815924 252.626147 
L 134.078574 250.938489 
L 136.0425 249.706824 
L 139.988168 247.43319 
L 141.308732 246.837411 
L 143.280577 246.005946 
L 157.046862 237.72327 
L 163.680059 234.431492 
L 172.79291 228.580482 
L 174.747927 227.3455 
L 180.65851 223.935501 
L 184.587351 221.701978 
L 186.666102 220.376823 
L 197.490459 213.257354 
L 198.918858 212.504603 
L 200.867936 211.521141 
L 204.746292 209.216444 
L 208.576531 206.681239 
L 211.606559 204.454351 
L 213.876358 202.668377 
L 215.399291 201.655963 
L 220.792167 198.2918 
L 222.343311 197.279085 
L 223.897426 196.163831 
L 225.846503 195.082053 
L 227.398637 194.211685 
L 231.254226 191.374996 
L 235.875984 188.412245 
L 237.41426 187.452306 
L 238.181419 186.866029 
L 239.717715 185.441955 
L 241.26688 184.326701 
L 243.347611 182.968974 
L 251.90019 177.090821 
L 256.610047 173.929629 
L 262.014801 169.651373 
L 264.86863 167.372613 
L 266.176264 166.574926 
L 271.443378 162.934707 
L 274.733745 160.706612 
L 282.403348 154.495813 
L 284.371233 153.11215 
L 289.642353 149.167445 
L 294.891696 145.208868 
L 300.194493 140.58922 
L 308.180858 134.293978 
L 310.818893 132.361435 
L 316.945271 127.356364 
L 325.341448 119.947065 
L 336.883716 110.462319 
L 359.219407 90.267119 
L 360.750754 88.646413 
L 363.054209 86.361017 
L 365.368553 84.408569 
L 370.66046 79.287088 
L 372.996581 77.132579 
L 376.1058 74.069703 
L 379.215018 70.819242 
L 381.812468 68.308865 
L 385.062249 65.060214 
L 386.489659 63.820105 
L 391.605368 60.563009 
L 394.412177 58.781559 
L 395.771285 57.69013 
L 396.422874 57.056806 
L 397.099706 55.92014 
L 398.206548 53.745859 
L 398.487273 55.363851 
L 398.334738 78.574277 
L 398.337398 78.522179 
L 398.339378 78.522141 
L 398.336904 78.628751 
L 398.337553 78.378286 
L 398.339131 85.23796 
L 398.328706 84.802022 
L 397.677333 85.110258 
L 397.014545 86.907843 
L 396.358872 88.309903 
L 395.018573 88.173003 
L 393.671189 88.817354 
L 393.006731 89.163872 
L 392.354399 89.292742 
L 391.031174 90.209837 
L 390.365479 92.012097 
L 389.70993 93.293523 
L 388.365918 95.32574 
L 387.059026 95.432688 
L 386.389866 95.705546 
L 385.085202 97.107152 
L 384.411217 97.410262 
L 383.760617 99.549993 
L 383.084528 100.898672 
L 382.415368 101.507115 
L 379.763474 103.353859 
L 379.114359 104.11053 
L 377.787299 106.028145 
L 375.798008 108.161015 
L 375.14051 108.412856 
L 374.480259 109.005768 
L 373.155797 110.445676 
L 372.474511 110.965605 
L 371.79867 111.867036 
L 369.832146 113.698625 
L 369.172266 114.615286 
L 367.832832 116.012972 
L 365.860245 117.622973 
L 361.188004 122.31123 
L 360.528 122.784188 
L 357.198904 126.293699 
L 355.223842 127.814506 
L 353.875624 129.309453 
L 348.554267 134.171875 
L 347.881024 134.68924 
L 346.548148 136.086474 
L 345.237792 137.289036 
L 344.55997 138.054906 
L 343.252089 139.120474 
L 341.941176 140.272549 
L 341.26286 140.846763 
L 340.591473 141.596196 
L 337.313974 144.139219 
L 335.969962 145.475533 
L 334.655152 146.476788 
L 334.002325 146.958718 
L 332.656844 148.423205 
L 331.35317 149.747908 
L 329.344947 151.088896 
L 328.008112 152.12408 
L 327.346005 152.867783 
L 325.345036 154.519242 
L 324.032205 155.642111 
L 320.067234 159.117251 
L 319.390155 159.732631 
L 316.684561 161.695257 
L 315.324711 162.857558 
L 312.673808 164.754439 
L 310.677464 166.498192 
L 309.324883 167.645338 
L 307.339428 168.888312 
L 305.355581 170.532542 
L 304.689514 171.138724 
L 302.018319 173.095092 
L 300.014551 174.641761 
L 294.656568 178.749848 
L 292.687678 179.961561 
L 289.353756 182.638713 
L 286.689737 184.516896 
L 285.383341 185.54077 
L 283.370664 186.971404 
L 282.01799 187.713675 
L 280.669029 188.672407 
L 278.042131 190.38374 
L 276.049746 192.013673 
L 274.710436 192.848831 
L 273.389192 193.708117 
L 271.380474 195.322189 
L 270.07581 195.998262 
L 269.398483 196.403967 
L 266.720606 198.495972 
L 265.386988 199.16149 
L 264.712136 199.610547 
L 262.739797 201.336275 
L 260.060202 202.692126 
L 258.722624 203.75777 
L 256.080135 205.324003 
L 254.768789 206.341996 
L 253.438141 207.188163 
L 252.08423 207.957802 
L 248.149698 210.849756 
L 243.517716 213.596739 
L 242.211073 214.193232 
L 238.240286 216.786016 
L 236.929682 217.610468 
L 236.253098 218.172468 
L 235.573049 218.538213 
L 234.893001 218.773108 
L 234.220624 219.130258 
L 232.886634 220.116434 
L 231.547077 220.904546 
L 229.560632 221.850687 
L 226.243461 224.086411 
L 224.89054 224.809833 
L 223.562119 225.479799 
L 222.88405 225.869595 
L 220.858009 227.378188 
L 217.579521 229.052388 
L 216.253574 230.0072 
L 215.596293 230.315079 
L 214.934309 230.498479 
L 213.627666 231.270418 
L 212.956278 231.621545 
L 211.635034 232.765676 
L 208.299627 234.344387 
L 206.350055 235.666225 
L 205.023119 236.287184 
L 201.024731 238.606244 
L 199.672924 239.19286 
L 197.711968 240.53415 
L 194.366941 242.323986 
L 193.049656 243.024488 
L 190.380935 244.357221 
L 189.058948 245.343774 
L 188.399934 245.751816 
L 187.735476 245.97952 
L 184.372601 247.813748 
L 183.045169 248.191989 
L 181.036576 249.267736 
L 179.060369 250.035754 
L 178.387621 250.427435 
L 177.061056 251.483956 
L 175.736099 252.130549 
L 173.732826 253.054524 
L 172.395248 253.861334 
L 171.082913 254.568282 
L 170.421177 254.709416 
L 168.415058 255.664152 
L 166.418961 256.951195 
L 164.411729 257.84454 
L 161.06623 259.514996 
L 159.738799 260.281997 
L 156.420468 261.828929 
L 154.409028 263.02757 
L 153.071203 263.31464 
L 150.440468 264.747762 
L 148.424574 265.477178 
L 145.07698 267.285521 
L 144.417966 267.481163 
L 140.40647 269.418155 
L 139.73929 269.581048 
L 139.085473 269.873131 
L 136.412054 271.502206 
L 134.433157 272.006142 
L 130.436045 273.749055 
L 129.114553 274.450009 
L 128.444156 274.902836 
L 126.449544 275.414905 
L 124.463965 276.683212 
L 123.143463 277.227833 
L 122.481974 277.398831 
L 121.156028 278.09266 
L 119.827112 278.962123 
L 119.164386 279.259333 
L 117.851308 279.673426 
L 116.520659 280.286619 
L 115.192505 280.703233 
L 113.196656 281.479336 
L 112.540983 281.848322 
L 109.903443 282.746437 
L 107.237073 284.050104 
L 103.255272 285.475357 
L 99.941395 286.944217 
L 98.609067 287.422586 
L 95.284549 288.772886 
L 93.970481 289.19235 
L 92.61657 289.732165 
L 91.276889 290.156435 
L 89.949829 290.744748 
L 82.672526 293.430923 
L 82.018708 293.587049 
L 80.70464 294.072663 
L 79.38785 294.444995 
L 78.086898 294.917877 
L 76.758972 295.239289 
L 76.094143 295.257805 
L 75.443296 295.084508 
L 74.125021 295.131001 
L 73.980436 295.488 
L 73.83283 294.204104 
L 73.83283 294.204104 
" clip-path="url(#p04012144b6)" style="fill: none; stroke: #ff0000; stroke-width: 1.5; stroke-linecap: square"/>
   </g>
   <g id="line2d_17">
    <path d="M 73.973173 279.906338 
L 73.97343 280.04241 
L 73.973131 279.789961 
L 74.011424 279.844279 
L 75.33157 274.152293 
L 76.046759 274.195872 
L 76.781252 274.366267 
L 77.433584 273.691324 
L 78.862478 271.442118 
L 79.633101 279.29955 
L 81.080308 278.606244 
L 83.9084 277.886969 
L 85.33185 277.894207 
L 86.047534 277.661988 
L 86.762229 277.310342 
L 87.469004 277.142059 
L 88.164891 276.751207 
L 88.84791 275.990483 
L 89.519049 274.991651 
L 91.643337 272.564511 
L 92.4491 272.083788 
L 93.249915 272.100488 
L 94.04182 272.268621 
L 95.580096 272.979602 
L 96.315578 272.828622 
L 97.027303 272.207362 
L 98.39433 270.545036 
L 100.360235 268.16796 
L 101.788634 266.643759 
L 102.442946 266.181433 
L 103.762459 265.790581 
L 106.409402 265.381597 
L 108.494091 264.481674 
L 110.037317 263.570893 
L 112.342751 262.161898 
L 116.984307 259.547777 
L 119.064048 258.499173 
L 122.98002 256.494551 
L 124.289634 255.921845 
L 126.254549 255.015588 
L 128.211545 254.146728 
L 130.815924 252.626147 
L 134.078574 250.938489 
L 136.0425 249.706824 
L 139.988168 247.43319 
L 141.308732 246.837411 
L 143.280577 246.005946 
L 157.046862 237.72327 
L 163.680059 234.431492 
L 172.79291 228.580482 
L 174.747927 227.3455 
L 180.65851 223.935501 
L 184.587351 221.701978 
L 186.666102 220.376823 
L 197.490459 213.257354 
L 198.918858 212.504603 
L 200.867936 211.521141 
L 204.746292 209.216444 
L 208.576531 206.681239 
L 211.606559 204.454351 
L 213.876358 202.668377 
L 215.399291 201.655963 
L 220.792167 198.2918 
L 222.343311 197.279085 
L 223.897426 196.163831 
L 225.846503 195.082053 
L 227.398637 194.211685 
L 231.254226 191.374996 
L 235.875984 188.412245 
L 237.41426 187.452306 
L 238.181419 186.866029 
L 239.717715 185.441955 
L 241.26688 184.326701 
L 243.347611 182.968974 
L 251.90019 177.090821 
L 256.610047 173.929629 
L 262.014801 169.651373 
L 264.86863 167.372613 
L 266.176264 166.574926 
L 271.443378 162.934707 
L 274.733745 160.706612 
L 282.403348 154.495813 
L 284.371233 153.11215 
L 289.642353 149.167445 
L 294.891696 145.208868 
L 300.194493 140.58922 
L 308.180858 134.293978 
L 310.818893 132.361435 
L 316.945271 127.356364 
L 325.341448 119.947065 
L 336.883716 110.462319 
L 359.219407 90.267119 
L 360.750754 88.646413 
L 363.054209 86.361017 
L 365.368553 84.408569 
L 370.66046 79.287088 
L 372.996581 77.132579 
L 376.1058 74.047997 
L 378.436971 71.507933 
L 381.812468 68.076513 
L 384.411897 64.956713 
L 387.262756 61.647594 
L 388.779255 60.098061 
L 390.931753 57.780999 
L 393.72025 55.118173 
L 395.106084 54.185991 
L 395.771285 53.863448 
L 396.422874 53.844297 
L 397.753647 54.354048 
L 398.206548 53.568 
L 398.487273 55.278343 
L 398.338729 78.234488 
L 398.339131 85.23796 
L 398.337986 78.110198 
L 398.328706 84.802022 
L 397.677333 85.110258 
L 397.014545 86.907843 
L 396.358872 88.309903 
L 395.018573 88.173003 
L 393.671189 88.817354 
L 393.006731 89.163872 
L 392.354399 89.292742 
L 391.031174 90.209837 
L 390.365479 92.012097 
L 389.70993 93.293523 
L 388.365918 95.32574 
L 387.059026 95.432688 
L 386.389866 95.705546 
L 385.085202 97.107152 
L 384.411217 97.410262 
L 383.760617 99.549993 
L 383.084528 100.898672 
L 382.415368 101.507115 
L 379.763474 103.353859 
L 379.114359 104.11053 
L 377.787299 106.028145 
L 375.798008 108.161015 
L 375.14051 108.412856 
L 374.480259 109.005768 
L 373.155797 110.445676 
L 372.474511 110.965605 
L 371.79867 111.867036 
L 369.832146 113.698625 
L 369.172266 114.615286 
L 367.832832 116.012972 
L 365.860245 117.622973 
L 361.188004 122.31123 
L 360.528 122.784188 
L 357.198904 126.293699 
L 355.223842 127.814506 
L 353.875624 129.309453 
L 348.554267 134.171875 
L 347.881024 134.68924 
L 346.548148 136.086474 
L 345.237792 137.289036 
L 344.55997 138.054906 
L 343.252089 139.120474 
L 341.941176 140.272549 
L 341.26286 140.846763 
L 340.591473 141.596196 
L 337.313974 144.139219 
L 335.969962 145.475533 
L 334.655152 146.476788 
L 334.002325 146.958718 
L 332.656844 148.423205 
L 331.35317 149.747908 
L 329.344947 151.088896 
L 328.008112 152.12408 
L 327.346005 152.867783 
L 325.345036 154.519242 
L 324.032205 155.642111 
L 320.067234 159.117251 
L 319.390155 159.732631 
L 316.684561 161.695257 
L 315.324711 162.857558 
L 312.673808 164.754439 
L 310.677464 166.498192 
L 309.324883 167.645338 
L 307.339428 168.888312 
L 305.355581 170.532542 
L 304.689514 171.138724 
L 302.018319 173.095092 
L 300.014551 174.641761 
L 294.656568 178.749848 
L 292.687678 179.961561 
L 289.353756 182.638713 
L 286.689737 184.516896 
L 285.383341 185.54077 
L 283.370664 186.971404 
L 282.01799 187.713675 
L 280.669029 188.672407 
L 278.042131 190.38374 
L 276.049746 192.013673 
L 274.710436 192.848831 
L 273.389192 193.708117 
L 271.380474 195.322189 
L 270.07581 195.998262 
L 269.398483 196.403967 
L 266.720606 198.495972 
L 265.386988 199.16149 
L 264.712136 199.610547 
L 262.739797 201.336275 
L 260.060202 202.692126 
L 258.722624 203.75777 
L 256.080135 205.324003 
L 254.768789 206.341996 
L 253.438141 207.188163 
L 252.08423 207.957802 
L 248.149698 210.849756 
L 243.517716 213.596739 
L 242.211073 214.193232 
L 238.240286 216.786016 
L 236.929682 217.610468 
L 236.253098 218.172468 
L 235.573049 218.538213 
L 234.893001 218.773108 
L 234.220624 219.130258 
L 232.886634 220.116434 
L 231.547077 220.904546 
L 229.560632 221.850687 
L 226.243461 224.086411 
L 224.89054 224.809833 
L 223.562119 225.479799 
L 222.88405 225.869595 
L 220.858009 227.378188 
L 217.579521 229.052388 
L 216.253574 230.0072 
L 215.596293 230.315079 
L 214.934309 230.498479 
L 213.627666 231.270418 
L 212.956278 231.621545 
L 211.635034 232.765676 
L 208.299627 234.344387 
L 206.350055 235.666225 
L 205.023119 236.287184 
L 201.024731 238.606244 
L 199.672924 239.19286 
L 197.711968 240.53415 
L 194.366941 242.323986 
L 193.049656 243.024488 
L 190.380935 244.357221 
L 189.058948 245.343774 
L 188.399934 245.751816 
L 187.735476 245.97952 
L 184.372601 247.813748 
L 183.045169 248.191989 
L 181.036576 249.267736 
L 179.060369 250.035754 
L 178.387621 250.427435 
L 177.061056 251.483956 
L 175.736099 252.130549 
L 173.732826 253.054524 
L 172.395248 253.861334 
L 171.082913 254.568282 
L 170.421177 254.709416 
L 168.415058 255.664152 
L 166.418961 256.951195 
L 164.411729 257.84454 
L 161.06623 259.514996 
L 159.738799 260.281997 
L 156.420468 261.828929 
L 154.409028 263.02757 
L 153.071203 263.31464 
L 150.440468 264.747762 
L 148.424574 265.477178 
L 145.07698 267.285521 
L 144.417966 267.481163 
L 140.40647 269.418155 
L 139.73929 269.581048 
L 139.085473 269.873131 
L 136.412054 271.502206 
L 134.433157 272.006142 
L 130.436045 273.749055 
L 129.114553 274.450009 
L 128.444156 274.902836 
L 126.449544 275.414905 
L 124.463965 276.683212 
L 123.143463 277.227833 
L 122.481974 277.398831 
L 121.156028 278.09266 
L 119.827112 278.962123 
L 119.164386 279.259333 
L 117.851308 279.673426 
L 116.520659 280.286619 
L 115.192505 280.703233 
L 113.196656 281.479336 
L 112.540983 281.848322 
L 109.903443 282.746437 
L 107.237073 284.050104 
L 103.255272 285.475357 
L 99.941395 286.944217 
L 98.609067 287.422586 
L 95.284549 288.772886 
L 93.970481 289.19235 
L 92.61657 289.732165 
L 91.276889 290.156435 
L 89.949829 290.744748 
L 82.672526 293.430923 
L 82.018708 293.587049 
L 80.70464 294.072663 
L 79.38785 294.444995 
L 78.086898 294.917877 
L 76.758972 295.239289 
L 76.094143 295.257805 
L 75.443296 295.084508 
L 74.125021 295.131001 
L 73.980436 295.488 
L 73.83283 294.204104 
L 73.83283 294.204104 
" clip-path="url(#p04012144b6)" style="fill: none; stroke: #000000; stroke-width: 1.5; stroke-linecap: square"/>
   </g>
   <g id="patch_3">
    <path d="M 57.6 307.584 
L 57.6 41.472 
" style="fill: none; stroke: #000000; stroke-width: 0.8; stroke-linejoin: miter; stroke-linecap: square"/>
   </g>
   <g id="patch_4">
    <path d="M 414.72 307.584 
L 414.72 41.472 
" style="fill: none; stroke: #000000; stroke-width: 0.8; stroke-linejoin: miter; stroke-linecap: square"/>
   </g>
   <g id="patch_5">
    <path d="M 57.6 307.584 
L 414.72 307.584 
" style="fill: none; stroke: #000000; stroke-width: 0.8; stroke-linejoin: miter; stroke-linecap: square"/>
   </g>
   <g id="patch_6">
    <path d="M 57.6 41.472 
L 414.72 41.472 
" style="fill: none; stroke: #000000; stroke-width: 0.8; stroke-linejoin: miter; stroke-linecap: square"/>
   </g>
   <g id="text_18">
    <!-- 2025-07-02 trial 23 -->
    <g transform="translate(178.0125 35.472) scale(0.12 -0.12)">
     <defs>
      <path id="DejaVuSans-2d" d="M 313 2009 
L 1997 2009 
L 1997 1497 
L 313 1497 
L 313 2009 
z
" transform="scale(0.015625)"/>
      <path id="DejaVuSans-6c" d="M 603 4863 
L 1178 4863 
L 1178 0 
L 603 0 
L 603 4863 
z
" transform="scale(0.015625)"/>
      <path id="DejaVuSans-33" d="M 2597 2516 
Q 3050 2419 3304 2112 
Q 3559 1806 3559 1356 
Q 3559 666 3084 287 
Q 2609 -91 1734 -91 
Q 1441 -91 1130 -33 
Q 819 25 488 141 
L 488 750 
Q 750 597 1062 519 
Q 1375 441 1716 441 
Q 2309 441 2620 675 
Q 2931 909 2931 1356 
Q 2931 1769 2642 2001 
Q 2353 2234 1838 2234 
L 1294 2234 
L 1294 2753 
L 1863 2753 
Q 2328 2753 2575 2939 
Q 2822 3125 2822 3475 
Q 2822 3834 2567 4026 
Q 2313 4219 1838 4219 
Q 1578 4219 1281 4162 
Q 984 4106 628 3988 
L 628 4550 
Q 988 4650 1302 4700 
Q 1616 4750 1894 4750 
Q 2613 4750 3031 4423 
Q 3450 4097 3450 3541 
Q 3450 3153 3228 2886 
Q 3006 2619 2597 2516 
z
" transform="scale(0.015625)"/>
     </defs>
     <use xlink:href="#DejaVuSans-32"/>
     <use xlink:href="#DejaVuSans-30" transform="translate(63.623047 0)"/>
     <use xlink:href="#DejaVuSans-32" transform="translate(127.246094 0)"/>
     <use xlink:href="#DejaVuSans-35" transform="translate(190.869141 0)"/>
     <use xlink:href="#DejaVuSans-2d" transform="translate(254.492188 0)"/>
     <use xlink:href="#DejaVuSans-30" transform="translate(290.576172 0)"/>
     <use xlink:href="#DejaVuSans-37" transform="translate(354.199219 0)"/>
     <use xlink:href="#DejaVuSans-2d" transform="translate(417.822266 0)"/>
     <use xlink:href="#DejaVuSans-30" transform="translate(453.90625 0)"/>
     <use xlink:href="#DejaVuSans-32" transform="translate(517.529297 0)"/>
     <use xlink:href="#DejaVuSans-20" transform="translate(581.152344 0)"/>
     <use xlink:href="#DejaVuSans-74" transform="translate(612.939453 0)"/>
     <use xlink:href="#DejaVuSans-72" transform="translate(652.148438 0)"/>
     <use xlink:href="#DejaVuSans-69" transform="translate(693.261719 0)"/>
     <use xlink:href="#DejaVuSans-61" transform="translate(721.044922 0)"/>
     <use xlink:href="#DejaVuSans-6c" transform="translate(782.324219 0)"/>
     <use xlink:href="#DejaVuSans-20" transform="translate(810.107422 0)"/>
     <use xlink:href="#DejaVuSans-32" transform="translate(841.894531 0)"/>
     <use xlink:href="#DejaVuSans-33" transform="translate(905.517578 0)"/>
    </g>
   </g>
  </g>
 </g>
 <defs>
  <clipPath id="p04012144b6">
   <rect x="57.6" y="41.472" width="357.12" height="266.112"/>
  </clipPath>
 </defs>
</svg>
