<?xml version="1.0" encoding="utf-8" standalone="no"?>
<!DOCTYPE svg PUBLIC "-//W3C//DTD SVG 1.1//EN"
  "http://www.w3.org/Graphics/SVG/1.1/DTD/svg11.dtd">
<svg xmlns:xlink="http://www.w3.org/1999/xlink" width="432pt" height="288pt" viewBox="0 0 432 288" xmlns="http://www.w3.org/2000/svg" version="1.1">
 <metadata>
  <rdf:RDF xmlns:dc="http://purl.org/dc/elements/1.1/" xmlns:cc="http://creativecommons.org/ns#" xmlns:rdf="http://www.w3.org/1999/02/22-rdf-syntax-ns#">
   <cc:Work>
    <dc:type rdf:resource="http://purl.org/dc/dcmitype/StillImage"/>
    <dc:date>2025-07-03T20:54:22.030466</dc:date>
    <dc:format>image/svg+xml</dc:format>
    <dc:creator>
     <cc:Agent>
      <dc:title>Matplotlib v3.9.2, https://matplotlib.org/</dc:title>
     </cc:Agent>
    </dc:creator>
   </cc:Work>
  </rdf:RDF>
 </metadata>
 <defs>
  <style type="text/css">*{stroke-linejoin: round; stroke-linecap: butt}</style>
 </defs>
 <g id="figure_1">
  <g id="patch_1">
   <path d="M 0 288 
L 432 288 
L 432 0 
L 0 0 
z
" style="fill: #ffffff"/>
  </g>
  <g id="axes_1">
   <g id="patch_2">
    <path d="M 54 256.32 
L 388.8 256.32 
L 388.8 34.56 
L 54 34.56 
z
" style="fill: #ffffff"/>
   </g>
   <g id="matplotlib.axis_1">
    <g id="xtick_1">
     <g id="line2d_1">
      <defs>
       <path id="m70081bffc6" d="M 0 0 
L 0 3.5 
" style="stroke: #000000; stroke-width: 0.8"/>
      </defs>
      <g>
       <use xlink:href="#m70081bffc6" x="69.46177" y="256.32" style="stroke: #000000; stroke-width: 0.8"/>
      </g>
     </g>
     <g id="text_1">
      <!-- 0.00 -->
      <g transform="translate(58.328958 270.918437) scale(0.1 -0.1)">
       <defs>
        <path id="DejaVuSans-30" d="M 2034 4250 
Q 1547 4250 1301 3770 
Q 1056 3291 1056 2328 
Q 1056 1369 1301 889 
Q 1547 409 2034 409 
Q 2525 409 2770 889 
Q 3016 1369 3016 2328 
Q 3016 3291 2770 3770 
Q 2525 4250 2034 4250 
z
M 2034 4750 
Q 2819 4750 3233 4129 
Q 3647 3509 3647 2328 
Q 3647 1150 3233 529 
Q 2819 -91 2034 -91 
Q 1250 -91 836 529 
Q 422 1150 422 2328 
Q 422 3509 836 4129 
Q 1250 4750 2034 4750 
z
" transform="scale(0.015625)"/>
        <path id="DejaVuSans-2e" d="M 684 794 
L 1344 794 
L 1344 0 
L 684 0 
L 684 794 
z
" transform="scale(0.015625)"/>
       </defs>
       <use xlink:href="#DejaVuSans-30"/>
       <use xlink:href="#DejaVuSans-2e" x="63.623047"/>
       <use xlink:href="#DejaVuSans-30" x="95.410156"/>
       <use xlink:href="#DejaVuSans-30" x="159.033203"/>
      </g>
     </g>
    </g>
    <g id="xtick_2">
     <g id="line2d_2">
      <g>
       <use xlink:href="#m70081bffc6" x="120.096184" y="256.32" style="stroke: #000000; stroke-width: 0.8"/>
      </g>
     </g>
     <g id="text_2">
      <!-- 0.02 -->
      <g transform="translate(108.963372 270.918437) scale(0.1 -0.1)">
       <defs>
        <path id="DejaVuSans-32" d="M 1228 531 
L 3431 531 
L 3431 0 
L 469 0 
L 469 531 
Q 828 903 1448 1529 
Q 2069 2156 2228 2338 
Q 2531 2678 2651 2914 
Q 2772 3150 2772 3378 
Q 2772 3750 2511 3984 
Q 2250 4219 1831 4219 
Q 1534 4219 1204 4116 
Q 875 4013 500 3803 
L 500 4441 
Q 881 4594 1212 4672 
Q 1544 4750 1819 4750 
Q 2544 4750 2975 4387 
Q 3406 4025 3406 3419 
Q 3406 3131 3298 2873 
Q 3191 2616 2906 2266 
Q 2828 2175 2409 1742 
Q 1991 1309 1228 531 
z
" transform="scale(0.015625)"/>
       </defs>
       <use xlink:href="#DejaVuSans-30"/>
       <use xlink:href="#DejaVuSans-2e" x="63.623047"/>
       <use xlink:href="#DejaVuSans-30" x="95.410156"/>
       <use xlink:href="#DejaVuSans-32" x="159.033203"/>
      </g>
     </g>
    </g>
    <g id="xtick_3">
     <g id="line2d_3">
      <g>
       <use xlink:href="#m70081bffc6" x="170.730598" y="256.32" style="stroke: #000000; stroke-width: 0.8"/>
      </g>
     </g>
     <g id="text_3">
      <!-- 0.04 -->
      <g transform="translate(159.597786 270.918437) scale(0.1 -0.1)">
       <defs>
        <path id="DejaVuSans-34" d="M 2419 4116 
L 825 1625 
L 2419 1625 
L 2419 4116 
z
M 2253 4666 
L 3047 4666 
L 3047 1625 
L 3713 1625 
L 3713 1100 
L 3047 1100 
L 3047 0 
L 2419 0 
L 2419 1100 
L 313 1100 
L 313 1709 
L 2253 4666 
z
" transform="scale(0.015625)"/>
       </defs>
       <use xlink:href="#DejaVuSans-30"/>
       <use xlink:href="#DejaVuSans-2e" x="63.623047"/>
       <use xlink:href="#DejaVuSans-30" x="95.410156"/>
       <use xlink:href="#DejaVuSans-34" x="159.033203"/>
      </g>
     </g>
    </g>
    <g id="xtick_4">
     <g id="line2d_4">
      <g>
       <use xlink:href="#m70081bffc6" x="221.365013" y="256.32" style="stroke: #000000; stroke-width: 0.8"/>
      </g>
     </g>
     <g id="text_4">
      <!-- 0.06 -->
      <g transform="translate(210.2322 270.918437) scale(0.1 -0.1)">
       <defs>
        <path id="DejaVuSans-36" d="M 2113 2584 
Q 1688 2584 1439 2293 
Q 1191 2003 1191 1497 
Q 1191 994 1439 701 
Q 1688 409 2113 409 
Q 2538 409 2786 701 
Q 3034 994 3034 1497 
Q 3034 2003 2786 2293 
Q 2538 2584 2113 2584 
z
M 3366 4563 
L 3366 3988 
Q 3128 4100 2886 4159 
Q 2644 4219 2406 4219 
Q 1781 4219 1451 3797 
Q 1122 3375 1075 2522 
Q 1259 2794 1537 2939 
Q 1816 3084 2150 3084 
Q 2853 3084 3261 2657 
Q 3669 2231 3669 1497 
Q 3669 778 3244 343 
Q 2819 -91 2113 -91 
Q 1303 -91 875 529 
Q 447 1150 447 2328 
Q 447 3434 972 4092 
Q 1497 4750 2381 4750 
Q 2619 4750 2861 4703 
Q 3103 4656 3366 4563 
z
" transform="scale(0.015625)"/>
       </defs>
       <use xlink:href="#DejaVuSans-30"/>
       <use xlink:href="#DejaVuSans-2e" x="63.623047"/>
       <use xlink:href="#DejaVuSans-30" x="95.410156"/>
       <use xlink:href="#DejaVuSans-36" x="159.033203"/>
      </g>
     </g>
    </g>
    <g id="xtick_5">
     <g id="line2d_5">
      <g>
       <use xlink:href="#m70081bffc6" x="271.999427" y="256.32" style="stroke: #000000; stroke-width: 0.8"/>
      </g>
     </g>
     <g id="text_5">
      <!-- 0.08 -->
      <g transform="translate(260.866614 270.918437) scale(0.1 -0.1)">
       <defs>
        <path id="DejaVuSans-38" d="M 2034 2216 
Q 1584 2216 1326 1975 
Q 1069 1734 1069 1313 
Q 1069 891 1326 650 
Q 1584 409 2034 409 
Q 2484 409 2743 651 
Q 3003 894 3003 1313 
Q 3003 1734 2745 1975 
Q 2488 2216 2034 2216 
z
M 1403 2484 
Q 997 2584 770 2862 
Q 544 3141 544 3541 
Q 544 4100 942 4425 
Q 1341 4750 2034 4750 
Q 2731 4750 3128 4425 
Q 3525 4100 3525 3541 
Q 3525 3141 3298 2862 
Q 3072 2584 2669 2484 
Q 3125 2378 3379 2068 
Q 3634 1759 3634 1313 
Q 3634 634 3220 271 
Q 2806 -91 2034 -91 
Q 1263 -91 848 271 
Q 434 634 434 1313 
Q 434 1759 690 2068 
Q 947 2378 1403 2484 
z
M 1172 3481 
Q 1172 3119 1398 2916 
Q 1625 2713 2034 2713 
Q 2441 2713 2670 2916 
Q 2900 3119 2900 3481 
Q 2900 3844 2670 4047 
Q 2441 4250 2034 4250 
Q 1625 4250 1398 4047 
Q 1172 3844 1172 3481 
z
" transform="scale(0.015625)"/>
       </defs>
       <use xlink:href="#DejaVuSans-30"/>
       <use xlink:href="#DejaVuSans-2e" x="63.623047"/>
       <use xlink:href="#DejaVuSans-30" x="95.410156"/>
       <use xlink:href="#DejaVuSans-38" x="159.033203"/>
      </g>
     </g>
    </g>
    <g id="xtick_6">
     <g id="line2d_6">
      <g>
       <use xlink:href="#m70081bffc6" x="322.633841" y="256.32" style="stroke: #000000; stroke-width: 0.8"/>
      </g>
     </g>
     <g id="text_6">
      <!-- 0.10 -->
      <g transform="translate(311.501029 270.918437) scale(0.1 -0.1)">
       <defs>
        <path id="DejaVuSans-31" d="M 794 531 
L 1825 531 
L 1825 4091 
L 703 3866 
L 703 4441 
L 1819 4666 
L 2450 4666 
L 2450 531 
L 3481 531 
L 3481 0 
L 794 0 
L 794 531 
z
" transform="scale(0.015625)"/>
       </defs>
       <use xlink:href="#DejaVuSans-30"/>
       <use xlink:href="#DejaVuSans-2e" x="63.623047"/>
       <use xlink:href="#DejaVuSans-31" x="95.410156"/>
       <use xlink:href="#DejaVuSans-30" x="159.033203"/>
      </g>
     </g>
    </g>
    <g id="xtick_7">
     <g id="line2d_7">
      <g>
       <use xlink:href="#m70081bffc6" x="373.268255" y="256.32" style="stroke: #000000; stroke-width: 0.8"/>
      </g>
     </g>
     <g id="text_7">
      <!-- 0.12 -->
      <g transform="translate(362.135443 270.918437) scale(0.1 -0.1)">
       <use xlink:href="#DejaVuSans-30"/>
       <use xlink:href="#DejaVuSans-2e" x="63.623047"/>
       <use xlink:href="#DejaVuSans-31" x="95.410156"/>
       <use xlink:href="#DejaVuSans-32" x="159.033203"/>
      </g>
     </g>
    </g>
    <g id="text_8">
     <!-- Strain -->
     <g transform="translate(206.588281 284.596563) scale(0.1 -0.1)">
      <defs>
       <path id="DejaVuSans-53" d="M 3425 4513 
L 3425 3897 
Q 3066 4069 2747 4153 
Q 2428 4238 2131 4238 
Q 1616 4238 1336 4038 
Q 1056 3838 1056 3469 
Q 1056 3159 1242 3001 
Q 1428 2844 1947 2747 
L 2328 2669 
Q 3034 2534 3370 2195 
Q 3706 1856 3706 1288 
Q 3706 609 3251 259 
Q 2797 -91 1919 -91 
Q 1588 -91 1214 -16 
Q 841 59 441 206 
L 441 856 
Q 825 641 1194 531 
Q 1563 422 1919 422 
Q 2459 422 2753 634 
Q 3047 847 3047 1241 
Q 3047 1584 2836 1778 
Q 2625 1972 2144 2069 
L 1759 2144 
Q 1053 2284 737 2584 
Q 422 2884 422 3419 
Q 422 4038 858 4394 
Q 1294 4750 2059 4750 
Q 2388 4750 2728 4690 
Q 3069 4631 3425 4513 
z
" transform="scale(0.015625)"/>
       <path id="DejaVuSans-74" d="M 1172 4494 
L 1172 3500 
L 2356 3500 
L 2356 3053 
L 1172 3053 
L 1172 1153 
Q 1172 725 1289 603 
Q 1406 481 1766 481 
L 2356 481 
L 2356 0 
L 1766 0 
Q 1100 0 847 248 
Q 594 497 594 1153 
L 594 3053 
L 172 3053 
L 172 3500 
L 594 3500 
L 594 4494 
L 1172 4494 
z
" transform="scale(0.015625)"/>
       <path id="DejaVuSans-72" d="M 2631 2963 
Q 2534 3019 2420 3045 
Q 2306 3072 2169 3072 
Q 1681 3072 1420 2755 
Q 1159 2438 1159 1844 
L 1159 0 
L 581 0 
L 581 3500 
L 1159 3500 
L 1159 2956 
Q 1341 3275 1631 3429 
Q 1922 3584 2338 3584 
Q 2397 3584 2469 3576 
Q 2541 3569 2628 3553 
L 2631 2963 
z
" transform="scale(0.015625)"/>
       <path id="DejaVuSans-61" d="M 2194 1759 
Q 1497 1759 1228 1600 
Q 959 1441 959 1056 
Q 959 750 1161 570 
Q 1363 391 1709 391 
Q 2188 391 2477 730 
Q 2766 1069 2766 1631 
L 2766 1759 
L 2194 1759 
z
M 3341 1997 
L 3341 0 
L 2766 0 
L 2766 531 
Q 2569 213 2275 61 
Q 1981 -91 1556 -91 
Q 1019 -91 701 211 
Q 384 513 384 1019 
Q 384 1609 779 1909 
Q 1175 2209 1959 2209 
L 2766 2209 
L 2766 2266 
Q 2766 2663 2505 2880 
Q 2244 3097 1772 3097 
Q 1472 3097 1187 3025 
Q 903 2953 641 2809 
L 641 3341 
Q 956 3463 1253 3523 
Q 1550 3584 1831 3584 
Q 2591 3584 2966 3190 
Q 3341 2797 3341 1997 
z
" transform="scale(0.015625)"/>
       <path id="DejaVuSans-69" d="M 603 3500 
L 1178 3500 
L 1178 0 
L 603 0 
L 603 3500 
z
M 603 4863 
L 1178 4863 
L 1178 4134 
L 603 4134 
L 603 4863 
z
" transform="scale(0.015625)"/>
       <path id="DejaVuSans-6e" d="M 3513 2113 
L 3513 0 
L 2938 0 
L 2938 2094 
Q 2938 2591 2744 2837 
Q 2550 3084 2163 3084 
Q 1697 3084 1428 2787 
Q 1159 2491 1159 1978 
L 1159 0 
L 581 0 
L 581 3500 
L 1159 3500 
L 1159 2956 
Q 1366 3272 1645 3428 
Q 1925 3584 2291 3584 
Q 2894 3584 3203 3211 
Q 3513 2838 3513 2113 
z
" transform="scale(0.015625)"/>
      </defs>
      <use xlink:href="#DejaVuSans-53"/>
      <use xlink:href="#DejaVuSans-74" x="63.476562"/>
      <use xlink:href="#DejaVuSans-72" x="102.685547"/>
      <use xlink:href="#DejaVuSans-61" x="143.798828"/>
      <use xlink:href="#DejaVuSans-69" x="205.078125"/>
      <use xlink:href="#DejaVuSans-6e" x="232.861328"/>
     </g>
    </g>
   </g>
   <g id="matplotlib.axis_2">
    <g id="ytick_1">
     <g id="line2d_8">
      <defs>
       <path id="m435452dbbf" d="M 0 0 
L -3.5 0 
" style="stroke: #000000; stroke-width: 0.8"/>
      </defs>
      <g>
       <use xlink:href="#m435452dbbf" x="54" y="254.636348" style="stroke: #000000; stroke-width: 0.8"/>
      </g>
     </g>
     <g id="text_9">
      <!-- −50 -->
      <g transform="translate(25.895312 258.435567) scale(0.1 -0.1)">
       <defs>
        <path id="DejaVuSans-2212" d="M 678 2272 
L 4684 2272 
L 4684 1741 
L 678 1741 
L 678 2272 
z
" transform="scale(0.015625)"/>
        <path id="DejaVuSans-35" d="M 691 4666 
L 3169 4666 
L 3169 4134 
L 1269 4134 
L 1269 2991 
Q 1406 3038 1543 3061 
Q 1681 3084 1819 3084 
Q 2600 3084 3056 2656 
Q 3513 2228 3513 1497 
Q 3513 744 3044 326 
Q 2575 -91 1722 -91 
Q 1428 -91 1123 -41 
Q 819 9 494 109 
L 494 744 
Q 775 591 1075 516 
Q 1375 441 1709 441 
Q 2250 441 2565 725 
Q 2881 1009 2881 1497 
Q 2881 1984 2565 2268 
Q 2250 2553 1709 2553 
Q 1456 2553 1204 2497 
Q 953 2441 691 2322 
L 691 4666 
z
" transform="scale(0.015625)"/>
       </defs>
       <use xlink:href="#DejaVuSans-2212"/>
       <use xlink:href="#DejaVuSans-35" x="83.789062"/>
       <use xlink:href="#DejaVuSans-30" x="147.412109"/>
      </g>
     </g>
    </g>
    <g id="ytick_2">
     <g id="line2d_9">
      <g>
       <use xlink:href="#m435452dbbf" x="54" y="228.745742" style="stroke: #000000; stroke-width: 0.8"/>
      </g>
     </g>
     <g id="text_10">
      <!-- 0 -->
      <g transform="translate(40.6375 232.54496) scale(0.1 -0.1)">
       <use xlink:href="#DejaVuSans-30"/>
      </g>
     </g>
    </g>
    <g id="ytick_3">
     <g id="line2d_10">
      <g>
       <use xlink:href="#m435452dbbf" x="54" y="202.855135" style="stroke: #000000; stroke-width: 0.8"/>
      </g>
     </g>
     <g id="text_11">
      <!-- 50 -->
      <g transform="translate(34.275 206.654354) scale(0.1 -0.1)">
       <use xlink:href="#DejaVuSans-35"/>
       <use xlink:href="#DejaVuSans-30" x="63.623047"/>
      </g>
     </g>
    </g>
    <g id="ytick_4">
     <g id="line2d_11">
      <g>
       <use xlink:href="#m435452dbbf" x="54" y="176.964529" style="stroke: #000000; stroke-width: 0.8"/>
      </g>
     </g>
     <g id="text_12">
      <!-- 100 -->
      <g transform="translate(27.9125 180.763747) scale(0.1 -0.1)">
       <use xlink:href="#DejaVuSans-31"/>
       <use xlink:href="#DejaVuSans-30" x="63.623047"/>
       <use xlink:href="#DejaVuSans-30" x="127.246094"/>
      </g>
     </g>
    </g>
    <g id="ytick_5">
     <g id="line2d_12">
      <g>
       <use xlink:href="#m435452dbbf" x="54" y="151.073922" style="stroke: #000000; stroke-width: 0.8"/>
      </g>
     </g>
     <g id="text_13">
      <!-- 150 -->
      <g transform="translate(27.9125 154.873141) scale(0.1 -0.1)">
       <use xlink:href="#DejaVuSans-31"/>
       <use xlink:href="#DejaVuSans-35" x="63.623047"/>
       <use xlink:href="#DejaVuSans-30" x="127.246094"/>
      </g>
     </g>
    </g>
    <g id="ytick_6">
     <g id="line2d_13">
      <g>
       <use xlink:href="#m435452dbbf" x="54" y="125.183316" style="stroke: #000000; stroke-width: 0.8"/>
      </g>
     </g>
     <g id="text_14">
      <!-- 200 -->
      <g transform="translate(27.9125 128.982534) scale(0.1 -0.1)">
       <use xlink:href="#DejaVuSans-32"/>
       <use xlink:href="#DejaVuSans-30" x="63.623047"/>
       <use xlink:href="#DejaVuSans-30" x="127.246094"/>
      </g>
     </g>
    </g>
    <g id="ytick_7">
     <g id="line2d_14">
      <g>
       <use xlink:href="#m435452dbbf" x="54" y="99.292709" style="stroke: #000000; stroke-width: 0.8"/>
      </g>
     </g>
     <g id="text_15">
      <!-- 250 -->
      <g transform="translate(27.9125 103.091928) scale(0.1 -0.1)">
       <use xlink:href="#DejaVuSans-32"/>
       <use xlink:href="#DejaVuSans-35" x="63.623047"/>
       <use xlink:href="#DejaVuSans-30" x="127.246094"/>
      </g>
     </g>
    </g>
    <g id="ytick_8">
     <g id="line2d_15">
      <g>
       <use xlink:href="#m435452dbbf" x="54" y="73.402103" style="stroke: #000000; stroke-width: 0.8"/>
      </g>
     </g>
     <g id="text_16">
      <!-- 300 -->
      <g transform="translate(27.9125 77.201321) scale(0.1 -0.1)">
       <defs>
        <path id="DejaVuSans-33" d="M 2597 2516 
Q 3050 2419 3304 2112 
Q 3559 1806 3559 1356 
Q 3559 666 3084 287 
Q 2609 -91 1734 -91 
Q 1441 -91 1130 -33 
Q 819 25 488 141 
L 488 750 
Q 750 597 1062 519 
Q 1375 441 1716 441 
Q 2309 441 2620 675 
Q 2931 909 2931 1356 
Q 2931 1769 2642 2001 
Q 2353 2234 1838 2234 
L 1294 2234 
L 1294 2753 
L 1863 2753 
Q 2328 2753 2575 2939 
Q 2822 3125 2822 3475 
Q 2822 3834 2567 4026 
Q 2313 4219 1838 4219 
Q 1578 4219 1281 4162 
Q 984 4106 628 3988 
L 628 4550 
Q 988 4650 1302 4700 
Q 1616 4750 1894 4750 
Q 2613 4750 3031 4423 
Q 3450 4097 3450 3541 
Q 3450 3153 3228 2886 
Q 3006 2619 2597 2516 
z
" transform="scale(0.015625)"/>
       </defs>
       <use xlink:href="#DejaVuSans-33"/>
       <use xlink:href="#DejaVuSans-30" x="63.623047"/>
       <use xlink:href="#DejaVuSans-30" x="127.246094"/>
      </g>
     </g>
    </g>
    <g id="ytick_9">
     <g id="line2d_16">
      <g>
       <use xlink:href="#m435452dbbf" x="54" y="47.511496" style="stroke: #000000; stroke-width: 0.8"/>
      </g>
     </g>
     <g id="text_17">
      <!-- 350 -->
      <g transform="translate(27.9125 51.310715) scale(0.1 -0.1)">
       <use xlink:href="#DejaVuSans-33"/>
       <use xlink:href="#DejaVuSans-35" x="63.623047"/>
       <use xlink:href="#DejaVuSans-30" x="127.246094"/>
      </g>
     </g>
    </g>
    <g id="text_18">
     <!-- Stress [Pa] -->
     <g transform="translate(19.815625 172.147812) rotate(-90) scale(0.1 -0.1)">
      <defs>
       <path id="DejaVuSans-65" d="M 3597 1894 
L 3597 1613 
L 953 1613 
Q 991 1019 1311 708 
Q 1631 397 2203 397 
Q 2534 397 2845 478 
Q 3156 559 3463 722 
L 3463 178 
Q 3153 47 2828 -22 
Q 2503 -91 2169 -91 
Q 1331 -91 842 396 
Q 353 884 353 1716 
Q 353 2575 817 3079 
Q 1281 3584 2069 3584 
Q 2775 3584 3186 3129 
Q 3597 2675 3597 1894 
z
M 3022 2063 
Q 3016 2534 2758 2815 
Q 2500 3097 2075 3097 
Q 1594 3097 1305 2825 
Q 1016 2553 972 2059 
L 3022 2063 
z
" transform="scale(0.015625)"/>
       <path id="DejaVuSans-73" d="M 2834 3397 
L 2834 2853 
Q 2591 2978 2328 3040 
Q 2066 3103 1784 3103 
Q 1356 3103 1142 2972 
Q 928 2841 928 2578 
Q 928 2378 1081 2264 
Q 1234 2150 1697 2047 
L 1894 2003 
Q 2506 1872 2764 1633 
Q 3022 1394 3022 966 
Q 3022 478 2636 193 
Q 2250 -91 1575 -91 
Q 1294 -91 989 -36 
Q 684 19 347 128 
L 347 722 
Q 666 556 975 473 
Q 1284 391 1588 391 
Q 1994 391 2212 530 
Q 2431 669 2431 922 
Q 2431 1156 2273 1281 
Q 2116 1406 1581 1522 
L 1381 1569 
Q 847 1681 609 1914 
Q 372 2147 372 2553 
Q 372 3047 722 3315 
Q 1072 3584 1716 3584 
Q 2034 3584 2315 3537 
Q 2597 3491 2834 3397 
z
" transform="scale(0.015625)"/>
       <path id="DejaVuSans-20" transform="scale(0.015625)"/>
       <path id="DejaVuSans-5b" d="M 550 4863 
L 1875 4863 
L 1875 4416 
L 1125 4416 
L 1125 -397 
L 1875 -397 
L 1875 -844 
L 550 -844 
L 550 4863 
z
" transform="scale(0.015625)"/>
       <path id="DejaVuSans-50" d="M 1259 4147 
L 1259 2394 
L 2053 2394 
Q 2494 2394 2734 2622 
Q 2975 2850 2975 3272 
Q 2975 3691 2734 3919 
Q 2494 4147 2053 4147 
L 1259 4147 
z
M 628 4666 
L 2053 4666 
Q 2838 4666 3239 4311 
Q 3641 3956 3641 3272 
Q 3641 2581 3239 2228 
Q 2838 1875 2053 1875 
L 1259 1875 
L 1259 0 
L 628 0 
L 628 4666 
z
" transform="scale(0.015625)"/>
       <path id="DejaVuSans-5d" d="M 1947 4863 
L 1947 -844 
L 622 -844 
L 622 -397 
L 1369 -397 
L 1369 4416 
L 622 4416 
L 622 4863 
L 1947 4863 
z
" transform="scale(0.015625)"/>
      </defs>
      <use xlink:href="#DejaVuSans-53"/>
      <use xlink:href="#DejaVuSans-74" x="63.476562"/>
      <use xlink:href="#DejaVuSans-72" x="102.685547"/>
      <use xlink:href="#DejaVuSans-65" x="141.548828"/>
      <use xlink:href="#DejaVuSans-73" x="203.072266"/>
      <use xlink:href="#DejaVuSans-73" x="255.171875"/>
      <use xlink:href="#DejaVuSans-20" x="307.271484"/>
      <use xlink:href="#DejaVuSans-5b" x="339.058594"/>
      <use xlink:href="#DejaVuSans-50" x="378.072266"/>
      <use xlink:href="#DejaVuSans-61" x="433.875"/>
      <use xlink:href="#DejaVuSans-5d" x="495.154297"/>
     </g>
    </g>
   </g>
   <g id="line2d_17">
    <path d="M 69.46177 230.354615 
L 69.460959 230.878688 
L 69.46177 230.182335 
L 69.461689 230.810156 
L 70.488479 230.58544 
L 71.503797 224.211367 
L 72.526746 222.416485 
L 73.571328 221.14751 
L 74.603162 224.014028 
L 76.721686 227.911008 
L 77.813011 229.06864 
L 78.881544 231.402462 
L 79.976733 229.901251 
L 81.017452 232.438177 
L 82.081736 231.46898 
L 83.106617 228.062125 
L 84.160857 227.206318 
L 85.208529 226.137377 
L 86.269336 225.338111 
L 87.313918 222.965265 
L 88.377043 224.041096 
L 89.406173 226.653819 
L 90.479342 226.960855 
L 91.555215 227.8271 
L 92.588208 227.837144 
L 93.630472 230.267162 
L 94.662532 225.510151 
L 95.705762 221.333724 
L 96.724847 220.757313 
L 97.778508 221.307816 
L 98.817681 222.810391 
L 99.869217 223.730894 
L 100.882894 223.852794 
L 101.943315 223.583779 
L 102.989442 222.951065 
L 104.036535 221.545915 
L 105.08189 220.39183 
L 106.119518 219.943267 
L 107.163135 218.96411 
L 108.180675 218.345826 
L 109.208646 218.697105 
L 110.270225 219.255727 
L 112.354367 219.512933 
L 113.379248 219.800495 
L 114.430204 218.704947 
L 115.490818 217.331179 
L 116.512801 216.407966 
L 119.674424 215.740412 
L 120.730982 215.835154 
L 122.802183 215.326123 
L 124.885359 214.311208 
L 125.92685 213.592804 
L 126.978386 213.369403 
L 128.039193 212.516257 
L 129.060983 212.490894 
L 130.080068 212.251367 
L 131.09645 211.773489 
L 132.153007 211.146093 
L 133.201453 210.87409 
L 135.30124 209.69217 
L 136.325348 209.512975 
L 137.356023 209.107312 
L 138.375108 209.015132 
L 139.428575 208.366181 
L 141.527397 207.511316 
L 142.586659 207.208843 
L 145.677983 205.826508 
L 146.733382 204.793078 
L 147.750536 204.72218 
L 148.776575 204.337369 
L 149.803387 204.500792 
L 151.90839 203.099803 
L 152.950654 201.987745 
L 153.998713 201.863286 
L 155.047544 201.466118 
L 156.099853 201.243902 
L 158.133774 201.131067 
L 160.204009 200.047049 
L 161.242797 199.869638 
L 162.2642 199.428401 
L 164.371907 197.731386 
L 165.434646 197.130875 
L 166.46223 196.712625 
L 167.490973 196.453935 
L 168.514308 195.974249 
L 169.530973 195.069162 
L 170.551604 194.879656 
L 171.568758 194.314075 
L 172.593638 193.888926 
L 173.625086 193.33334 
L 174.655374 193.15484 
L 176.687751 192.352554 
L 177.736969 191.455352 
L 180.827062 189.381261 
L 181.852328 188.992654 
L 182.873732 188.856112 
L 184.976417 187.933402 
L 186.009409 187.336847 
L 188.105913 185.070295 
L 189.127317 184.84217 
L 190.154129 184.427024 
L 192.203503 183.400451 
L 193.22027 183.017371 
L 195.337285 181.34223 
L 196.352894 180.901296 
L 197.36773 181.068949 
L 198.425447 180.580611 
L 199.483163 180.366855 
L 200.537403 179.60455 
L 201.590484 178.487033 
L 204.670146 176.466226 
L 205.704298 176.193784 
L 206.735746 175.78396 
L 208.820274 174.521706 
L 209.877991 174.191793 
L 211.977971 172.721301 
L 213.037233 171.988131 
L 214.055546 171.610202 
L 216.102602 169.992123 
L 217.124778 169.353065 
L 218.138456 168.859269 
L 219.195786 168.22045 
L 221.307815 167.414455 
L 223.386935 166.125866 
L 226.44535 163.633968 
L 227.472162 163.413219 
L 229.511106 162.029756 
L 230.533668 161.170947 
L 231.550436 160.734822 
L 232.569135 159.76044 
L 233.595947 159.134822 
L 234.616964 158.810432 
L 235.674294 158.308433 
L 237.777752 156.490051 
L 238.83431 156.001837 
L 239.889322 155.24591 
L 240.943562 154.033971 
L 242.002824 153.431345 
L 243.061699 152.522322 
L 244.119802 151.452427 
L 245.136956 150.686164 
L 246.16483 150.722135 
L 247.18971 150.603646 
L 248.206864 150.25328 
L 251.270302 147.902334 
L 252.284752 146.913898 
L 253.341696 145.652019 
L 254.397867 144.913302 
L 255.457515 144.560718 
L 256.519095 143.623041 
L 258.571173 142.662493 
L 259.633139 141.892307 
L 260.679266 140.674637 
L 261.730416 139.959304 
L 262.792768 139.061948 
L 263.817262 138.849659 
L 264.843687 138.388087 
L 265.902949 137.614967 
L 266.937487 136.605791 
L 267.964878 135.171987 
L 269.009074 133.974102 
L 270.034341 133.355119 
L 271.076714 133.071049 
L 272.111264 132.522422 
L 273.174002 131.749712 
L 274.215301 130.749406 
L 275.251384 129.315055 
L 276.31335 128.370829 
L 278.402128 127.852085 
L 279.442846 127.241544 
L 280.465795 126.948895 
L 282.538541 124.565816 
L 283.577715 123.574063 
L 285.6804 122.43335 
L 286.738116 121.640957 
L 287.794288 120.592621 
L 288.847755 119.748275 
L 289.905471 118.739236 
L 290.964733 117.962023 
L 292.023995 116.904953 
L 294.139814 115.880018 
L 296.221759 113.77288 
L 297.270977 113.108306 
L 300.404337 110.621184 
L 302.477662 109.162 
L 303.534992 108.216682 
L 306.599203 106.236349 
L 307.618288 105.114466 
L 308.635442 103.793641 
L 309.656459 102.847982 
L 311.735193 101.7378 
L 312.782479 100.81329 
L 313.831697 99.700141 
L 315.872959 98.301676 
L 317.949761 96.812678 
L 318.96537 96.455497 
L 321.014551 93.035952 
L 322.050199 92.005644 
L 323.107529 91.242758 
L 324.127774 91.138869 
L 325.147632 90.757972 
L 326.20728 89.523383 
L 327.256498 88.022445 
L 329.32287 86.027085 
L 330.351613 85.31686 
L 331.383833 84.780684 
L 332.410259 84.076881 
L 333.428572 83.589758 
L 334.485129 82.754146 
L 336.569464 79.287525 
L 338.642404 77.720819 
L 339.668443 76.426465 
L 341.729406 75.369669 
L 343.776462 72.892849 
L 344.795548 72.460477 
L 345.810384 71.723243 
L 347.936779 69.66788 
L 348.956637 68.305029 
L 349.980358 67.249187 
L 353.076246 65.195154 
L 354.125464 64.1767 
L 356.22699 61.404877 
L 357.246462 60.540883 
L 358.264775 59.944192 
L 360.375186 58.112707 
L 362.479416 56.65499 
L 366.704874 52.809929 
L 367.753705 51.271604 
L 368.807945 50.351393 
L 369.852141 50.222142 
L 371.914698 50.282742 
L 372.939481 49.193402 
L 373.02051 48.873839 
L 373.581818 47.351138 
L 373.45972 47.790469 
L 373.399335 48.278137 
L 373.269825 54.875202 
L 373.26712 54.067288 
L 373.269052 71.504806 
L 373.262436 71.238423 
L 372.245596 72.11845 
L 371.223517 78.028051 
L 370.202886 82.221483 
L 369.176461 80.121535 
L 368.08289 78.838984 
L 367.001222 78.589555 
L 365.972478 78.523923 
L 364.938327 77.854301 
L 362.834869 76.192149 
L 361.800331 77.098851 
L 360.752272 82.180207 
L 359.706145 84.018992 
L 358.685128 86.727767 
L 357.643637 90.046477 
L 356.570854 88.782346 
L 355.54636 87.232833 
L 354.478599 86.781997 
L 353.407362 86.968036 
L 352.372051 87.741292 
L 351.351807 86.58134 
L 350.332335 89.826163 
L 349.313636 95.674361 
L 348.261714 97.636496 
L 347.235481 97.762694 
L 346.192831 97.254781 
L 345.14709 97.27703 
L 344.093623 97.511509 
L 343.066038 98.166506 
L 341.0072 101.962514 
L 338.965359 104.551495 
L 337.923022 105.058727 
L 336.868396 106.394561 
L 335.831154 107.181598 
L 334.812455 108.799063 
L 333.757828 109.673427 
L 332.741061 110.105885 
L 331.685276 110.195123 
L 329.599782 112.608289 
L 327.525297 115.969571 
L 326.506598 116.487957 
L 325.46163 116.830299 
L 323.40762 117.994276 
L 321.341055 121.016618 
L 319.282023 122.638109 
L 318.248258 123.159062 
L 317.233421 124.060989 
L 316.194634 125.614323 
L 315.154881 127.394708 
L 314.133091 128.191706 
L 313.090296 128.862113 
L 312.045714 129.719831 
L 309.950755 131.040519 
L 307.886315 133.486911 
L 304.772271 135.493264 
L 303.756662 136.077734 
L 301.68295 138.424109 
L 298.557703 141.531664 
L 296.506783 142.784913 
L 294.392123 145.63492 
L 293.357971 145.990404 
L 292.31223 146.480272 
L 291.270739 147.400484 
L 290.24045 148.071914 
L 289.227159 148.885491 
L 288.176396 150.212593 
L 286.075498 152.132838 
L 285.021645 152.380143 
L 283.972813 152.900448 
L 282.94407 153.66961 
L 281.88674 155.044742 
L 279.789077 157.024069 
L 276.715595 158.950386 
L 274.654052 160.772115 
L 273.619321 161.954172 
L 272.578409 162.909041 
L 271.521453 163.524698 
L 267.376927 166.774092 
L 266.328482 168.018778 
L 265.314804 168.591932 
L 263.24766 169.536994 
L 261.152762 170.715737 
L 259.08639 173.362027 
L 258.025969 173.819118 
L 256.994135 173.792365 
L 254.921583 174.347848 
L 252.836668 176.402018 
L 251.773929 177.630058 
L 250.744027 178.377252 
L 249.706012 178.902456 
L 248.675337 179.289289 
L 247.61453 180.180982 
L 244.545684 183.272368 
L 243.487582 184.024065 
L 242.447249 184.067289 
L 240.358857 184.319344 
L 239.304231 185.011413 
L 238.287271 185.864355 
L 237.232065 187.132238 
L 236.198831 188.029743 
L 234.152933 189.405284 
L 233.116078 189.813343 
L 228.957451 191.933588 
L 227.942615 192.920932 
L 226.917349 193.466521 
L 225.894786 194.226678 
L 224.833979 195.380216 
L 223.818757 196.143989 
L 222.795035 196.249157 
L 221.735774 196.965582 
L 220.68617 197.890296 
L 219.633861 198.26327 
L 218.581167 198.77451 
L 217.532335 199.443928 
L 216.471528 199.756191 
L 215.451284 200.226804 
L 214.427562 200.958442 
L 213.410795 201.358033 
L 211.289157 203.200858 
L 210.272002 203.537682 
L 209.248667 203.748572 
L 208.234218 204.309582 
L 207.186545 204.689074 
L 206.153552 205.350988 
L 204.096645 207.033129 
L 203.035066 207.20204 
L 199.931838 208.473658 
L 197.838231 210.562827 
L 196.77472 210.994875 
L 194.70603 211.654307 
L 193.677287 212.046704 
L 192.658588 213.328778 
L 189.613307 215.525195 
L 187.502123 215.626347 
L 186.463722 216.536529 
L 185.420685 217.251921 
L 184.359878 217.622294 
L 182.302778 218.687706 
L 181.275966 218.716549 
L 179.201868 219.792585 
L 178.154196 220.696968 
L 177.107296 221.140878 
L 176.051511 222.086606 
L 175.036288 222.407294 
L 174.013339 222.60995 
L 172.986141 222.636021 
L 171.957784 223.053008 
L 170.939085 223.016084 
L 168.859772 224.845317 
L 167.814031 225.458655 
L 166.758632 225.84576 
L 165.695507 226.54124 
L 164.668309 226.330427 
L 163.640725 226.272581 
L 162.586099 226.705055 
L 161.543062 227.471519 
L 160.487283 227.640901 
L 159.470515 228.247425 
L 156.395875 229.275884 
L 155.34009 229.646156 
L 154.292224 230.200957 
L 153.239916 230.488335 
L 151.161182 230.675219 
L 150.143255 231.248577 
L 147.099133 232.631231 
L 146.075798 233.16026 
L 144.027969 232.906755 
L 141.921035 233.837729 
L 140.869113 234.199659 
L 139.84771 234.140257 
L 137.796018 233.610835 
L 135.72192 234.242831 
L 133.652125 235.388382 
L 132.624541 235.332165 
L 131.601206 235.113124 
L 130.552954 235.251074 
L 129.522279 236.062945 
L 127.444125 236.841215 
L 126.426198 236.855436 
L 124.363303 236.481395 
L 123.340355 236.562957 
L 121.304115 237.574751 
L 118.237973 238.352646 
L 117.215024 238.154421 
L 115.166809 238.785484 
L 114.149269 239.086942 
L 113.091939 239.554689 
L 112.038472 240.144472 
L 110.981141 240.125151 
L 108.926799 239.741618 
L 106.863904 239.904634 
L 103.741554 241.098319 
L 102.708562 240.95988 
L 100.625579 241.384913 
L 99.589495 241.345024 
L 98.563843 241.739508 
L 97.512307 242.367036 
L 96.479507 242.652961 
L 94.387444 243.607651 
L 93.360633 243.403289 
L 92.328026 243.48529 
L 90.256246 244.299877 
L 88.196828 244.882753 
L 87.163449 244.855548 
L 85.092055 244.257685 
L 84.035876 244.589681 
L 82.990522 245.113781 
L 80.930717 244.760523 
L 78.862414 244.874521 
L 77.802379 244.946601 
L 76.761081 246.24 
L 75.742382 246.194861 
L 74.690846 245.873366 
L 72.605738 244.326513 
L 71.567917 243.026974 
L 70.550956 242.940346 
L 69.663457 243.671644 
L 69.480877 243.97408 
L 69.218707 240.458799 
L 69.218707 240.458799 
" clip-path="url(#p94933b22e9)" style="fill: none; stroke: #ff0000; stroke-width: 1.5; stroke-linecap: square"/>
   </g>
   <g id="line2d_18">
    <path d="M 69.46177 230.354615 
L 69.460959 230.878688 
L 69.46177 230.182335 
L 69.461689 230.810156 
L 70.488479 230.58544 
L 71.503797 224.211367 
L 72.526746 222.416485 
L 73.571328 221.14751 
L 74.603162 234.198093 
L 75.638859 233.275221 
L 76.721686 232.81457 
L 77.813011 232.535123 
L 78.881544 232.655744 
L 79.976733 229.910392 
L 81.017452 232.438177 
L 82.081736 231.46898 
L 83.106617 228.062125 
L 84.160857 227.206318 
L 85.208529 226.137377 
L 86.269336 225.338111 
L 87.313918 222.965265 
L 88.377043 224.041096 
L 89.406173 226.653819 
L 90.479342 226.960855 
L 91.555215 227.8271 
L 92.588208 227.837144 
L 93.630472 230.267162 
L 94.662532 225.510151 
L 95.705762 221.333724 
L 96.724847 220.757313 
L 97.778508 221.307816 
L 98.817681 222.810391 
L 99.869217 223.730894 
L 100.882894 223.852794 
L 101.943315 223.583779 
L 102.989442 222.951065 
L 104.036535 221.545915 
L 105.08189 220.39183 
L 106.119518 219.943267 
L 107.163135 218.96411 
L 108.180675 218.345826 
L 109.208646 218.697105 
L 110.270225 219.255727 
L 112.354367 219.512933 
L 113.379248 219.800495 
L 114.430204 218.704947 
L 115.490818 217.331179 
L 116.512801 216.407966 
L 119.674424 215.740412 
L 120.730982 215.835154 
L 122.802183 215.326123 
L 124.885359 214.311208 
L 125.92685 213.592804 
L 126.978386 213.369403 
L 128.039193 212.516257 
L 129.060983 212.490894 
L 130.080068 212.251367 
L 131.09645 211.773489 
L 132.153007 211.146093 
L 133.201453 210.87409 
L 135.30124 209.69217 
L 136.325348 209.512975 
L 137.356023 209.107312 
L 138.375108 209.015132 
L 139.428575 208.366181 
L 141.527397 207.511316 
L 142.586659 207.208843 
L 145.677983 205.826508 
L 146.733382 204.793078 
L 147.750536 204.72218 
L 148.776575 204.337369 
L 149.803387 204.500792 
L 151.90839 203.099803 
L 152.950654 201.987745 
L 153.998713 201.863286 
L 155.047544 201.466118 
L 156.099853 201.243902 
L 158.133774 201.131067 
L 160.204009 200.047049 
L 161.242797 199.869638 
L 162.2642 199.428401 
L 164.371907 197.731386 
L 165.434646 197.130875 
L 166.46223 196.712625 
L 167.490973 196.453935 
L 168.514308 195.974249 
L 169.530973 195.069162 
L 170.551604 194.879656 
L 171.568758 194.314075 
L 172.593638 193.888926 
L 173.625086 193.33334 
L 174.655374 193.15484 
L 176.687751 192.352554 
L 177.736969 191.455352 
L 180.827062 189.381261 
L 181.852328 188.992654 
L 182.873732 188.856112 
L 184.976417 187.933402 
L 186.009409 187.336847 
L 188.105913 185.070295 
L 189.127317 184.84217 
L 190.154129 184.427024 
L 192.203503 183.400451 
L 193.22027 183.017371 
L 195.337285 181.34223 
L 196.352894 180.901296 
L 197.36773 181.068949 
L 198.425447 180.580611 
L 199.483163 180.366855 
L 200.537403 179.60455 
L 201.590484 178.487033 
L 204.670146 176.466226 
L 205.704298 176.193784 
L 206.735746 175.78396 
L 208.820274 174.521706 
L 209.877991 174.191793 
L 211.977971 172.721301 
L 213.037233 171.988131 
L 214.055546 171.610202 
L 216.102602 169.992123 
L 217.124778 169.353065 
L 218.138456 168.859269 
L 219.195786 168.22045 
L 221.307815 167.414455 
L 223.386935 166.125866 
L 226.44535 163.633968 
L 227.472162 163.413219 
L 229.511106 162.029756 
L 230.533668 161.170947 
L 231.550436 160.734822 
L 232.569135 159.76044 
L 233.595947 159.134822 
L 234.616964 158.810432 
L 235.674294 158.308433 
L 237.777752 156.490051 
L 238.83431 156.001837 
L 239.889322 155.24591 
L 240.943562 154.033971 
L 242.002824 153.431345 
L 243.061699 152.522322 
L 244.119802 151.452427 
L 245.136956 150.686164 
L 246.16483 150.722135 
L 247.18971 150.603646 
L 248.206864 150.25328 
L 251.270302 147.902334 
L 252.284752 146.913898 
L 253.341696 145.652019 
L 254.397867 144.913302 
L 255.457515 144.560718 
L 256.519095 143.623041 
L 258.571173 142.662493 
L 259.633139 141.892307 
L 260.679266 140.674637 
L 261.730416 139.959304 
L 262.792768 139.061948 
L 263.817262 138.849659 
L 264.843687 138.388087 
L 265.902949 137.614967 
L 266.937487 136.605791 
L 267.964878 135.171987 
L 269.009074 133.974102 
L 270.034341 133.355119 
L 271.076714 133.071049 
L 272.111264 132.522422 
L 273.174002 131.749712 
L 274.215301 130.749406 
L 275.251384 129.315055 
L 276.31335 128.370829 
L 278.402128 127.852085 
L 279.442846 127.241544 
L 280.465795 126.948895 
L 282.538541 124.565816 
L 283.577715 123.574063 
L 285.6804 122.43335 
L 286.738116 121.640957 
L 287.794288 120.592621 
L 288.847755 119.748275 
L 289.905471 118.739236 
L 290.964733 117.962023 
L 292.023995 116.904953 
L 294.139814 115.880018 
L 296.221759 113.77288 
L 297.270977 113.108306 
L 300.404337 110.621184 
L 302.477662 109.162 
L 303.534992 108.216682 
L 306.599203 106.236349 
L 307.618288 105.114466 
L 308.635442 103.793641 
L 309.656459 102.847982 
L 311.735193 101.7378 
L 312.782479 100.81329 
L 313.831697 99.700141 
L 315.872959 98.301676 
L 317.949761 96.812678 
L 318.96537 96.455497 
L 321.014551 93.035952 
L 322.050199 92.005644 
L 323.107529 91.242758 
L 324.127774 91.138869 
L 325.147632 90.757972 
L 326.20728 89.523383 
L 327.256498 88.022445 
L 329.32287 86.027085 
L 330.351613 85.31686 
L 331.383833 84.780684 
L 332.410259 84.076881 
L 333.428572 83.589758 
L 334.485129 82.754146 
L 336.569464 79.287525 
L 338.642404 77.720819 
L 339.668443 76.426465 
L 341.729406 75.369669 
L 343.776462 72.892849 
L 344.795548 72.460477 
L 345.810384 71.723243 
L 347.936779 69.66788 
L 348.956637 68.305029 
L 349.980358 67.249187 
L 353.076246 65.195154 
L 354.125464 64.1767 
L 356.22699 61.404877 
L 357.246462 60.540883 
L 358.264775 59.944192 
L 360.375186 58.112707 
L 362.479416 56.65499 
L 366.704874 52.809929 
L 367.753705 51.271604 
L 368.807945 50.351393 
L 369.852141 50.222142 
L 371.914698 50.282742 
L 372.939481 49.193402 
L 373.02051 48.873839 
L 373.581818 47.351138 
L 373.533312 47.618134 
L 373.354692 44.64 
L 373.269052 71.504806 
L 373.262436 71.238423 
L 372.245596 72.11845 
L 371.223517 78.028051 
L 370.202886 82.221483 
L 369.176461 80.121535 
L 368.08289 78.838984 
L 367.001222 78.589555 
L 365.972478 78.523923 
L 364.938327 77.854301 
L 362.834869 76.192149 
L 361.800331 77.098851 
L 360.752272 82.180207 
L 359.706145 84.018992 
L 358.685128 86.727767 
L 357.643637 90.046477 
L 356.570854 88.782346 
L 355.54636 87.232833 
L 354.478599 86.781997 
L 353.407362 86.968036 
L 352.372051 87.741292 
L 351.351807 86.58134 
L 350.332335 89.826163 
L 349.313636 95.674361 
L 348.261714 97.636496 
L 347.235481 97.762694 
L 346.192831 97.254781 
L 345.14709 97.27703 
L 344.093623 97.511509 
L 343.066038 98.166506 
L 341.0072 101.962514 
L 338.965359 104.551495 
L 337.923022 105.058727 
L 336.868396 106.394561 
L 335.831154 107.181598 
L 334.812455 108.799063 
L 333.757828 109.673427 
L 332.741061 110.105885 
L 331.685276 110.195123 
L 329.599782 112.608289 
L 327.525297 115.969571 
L 326.506598 116.487957 
L 325.46163 116.830299 
L 323.40762 117.994276 
L 321.341055 121.016618 
L 319.282023 122.638109 
L 318.248258 123.159062 
L 317.233421 124.060989 
L 316.194634 125.614323 
L 315.154881 127.394708 
L 314.133091 128.191706 
L 313.090296 128.862113 
L 312.045714 129.719831 
L 309.950755 131.040519 
L 307.886315 133.486911 
L 304.772271 135.493264 
L 303.756662 136.077734 
L 301.68295 138.424109 
L 298.557703 141.531664 
L 296.506783 142.784913 
L 294.392123 145.63492 
L 293.357971 145.990404 
L 292.31223 146.480272 
L 291.270739 147.400484 
L 290.24045 148.071914 
L 289.227159 148.885491 
L 288.176396 150.212593 
L 286.075498 152.132838 
L 285.021645 152.380143 
L 283.972813 152.900448 
L 282.94407 153.66961 
L 281.88674 155.044742 
L 279.789077 157.024069 
L 276.715595 158.950386 
L 274.654052 160.772115 
L 273.619321 161.954172 
L 272.578409 162.909041 
L 271.521453 163.524698 
L 267.376927 166.774092 
L 266.328482 168.018778 
L 265.314804 168.591932 
L 263.24766 169.536994 
L 261.152762 170.715737 
L 259.08639 173.362027 
L 258.025969 173.819118 
L 256.994135 173.792365 
L 254.921583 174.347848 
L 252.836668 176.402018 
L 251.773929 177.630058 
L 250.744027 178.377252 
L 249.706012 178.902456 
L 248.675337 179.289289 
L 247.61453 180.180982 
L 244.545684 183.272368 
L 243.487582 184.024065 
L 242.447249 184.067289 
L 240.358857 184.319344 
L 239.304231 185.011413 
L 238.287271 185.864355 
L 237.232065 187.132238 
L 236.198831 188.029743 
L 234.152933 189.405284 
L 233.116078 189.813343 
L 228.957451 191.933588 
L 227.942615 192.920932 
L 226.917349 193.466521 
L 225.894786 194.226678 
L 224.833979 195.380216 
L 223.818757 196.143989 
L 222.795035 196.249157 
L 221.735774 196.965582 
L 220.68617 197.890296 
L 219.633861 198.26327 
L 218.581167 198.77451 
L 217.532335 199.443928 
L 216.471528 199.756191 
L 215.451284 200.226804 
L 214.427562 200.958442 
L 213.410795 201.358033 
L 211.289157 203.200858 
L 210.272002 203.537682 
L 209.248667 203.748572 
L 208.234218 204.309582 
L 207.186545 204.689074 
L 206.153552 205.350988 
L 204.096645 207.033129 
L 203.035066 207.20204 
L 199.931838 208.473658 
L 197.838231 210.562827 
L 196.77472 210.994875 
L 194.70603 211.654307 
L 193.677287 212.046704 
L 192.658588 213.328778 
L 189.613307 215.525195 
L 187.502123 215.626347 
L 186.463722 216.536529 
L 185.420685 217.251921 
L 184.359878 217.622294 
L 183.333453 218.109777 
L 182.302778 218.869533 
L 181.275966 218.716549 
L 179.201868 219.792585 
L 178.154196 220.696968 
L 177.107296 221.140878 
L 176.051511 222.086606 
L 175.036288 222.407294 
L 174.013339 222.60995 
L 172.986141 222.636021 
L 171.957784 223.053008 
L 170.939085 223.016084 
L 168.859772 224.845317 
L 167.814031 225.458655 
L 166.758632 225.84576 
L 165.695507 226.54124 
L 164.668309 226.330427 
L 163.640725 226.272581 
L 162.586099 226.705055 
L 161.543062 227.471519 
L 160.487283 227.640901 
L 159.470515 228.247425 
L 156.395875 229.275884 
L 155.34009 229.646156 
L 154.292224 230.200957 
L 153.239916 230.488335 
L 151.161182 230.675219 
L 150.143255 231.248577 
L 147.099133 232.631231 
L 146.075798 233.16026 
L 144.027969 232.906755 
L 141.921035 233.837729 
L 140.869113 234.199659 
L 139.84771 234.140257 
L 137.796018 233.610835 
L 135.72192 234.242831 
L 133.652125 235.388382 
L 132.624541 235.332165 
L 131.601206 235.113124 
L 130.552954 235.251074 
L 129.522279 236.062945 
L 127.444125 236.841215 
L 126.426198 236.855436 
L 124.363303 236.481395 
L 123.340355 236.562957 
L 121.304115 237.574751 
L 118.237973 238.352646 
L 117.215024 238.154421 
L 115.166809 238.785484 
L 114.149269 239.086942 
L 113.091939 239.554689 
L 112.038472 240.144472 
L 110.981141 240.125151 
L 108.926799 239.741618 
L 106.863904 239.904634 
L 103.741554 241.098319 
L 102.708562 240.95988 
L 100.625579 241.384913 
L 99.589495 241.345024 
L 98.563843 241.739508 
L 97.512307 242.367036 
L 96.479507 242.652961 
L 94.387444 243.607651 
L 93.360633 243.403289 
L 92.328026 243.48529 
L 90.256246 244.299877 
L 88.196828 244.882753 
L 87.163449 244.855548 
L 85.092055 244.257685 
L 84.035876 244.589681 
L 82.990522 245.113781 
L 80.930717 244.760523 
L 78.862414 244.874521 
L 77.802379 244.946601 
L 76.761081 246.24 
L 75.742382 246.194861 
L 74.690846 245.873366 
L 72.605738 244.326513 
L 71.567917 243.026974 
L 70.550956 242.940346 
L 69.663457 243.671644 
L 69.480877 243.97408 
L 69.218707 240.458799 
L 69.218707 240.458799 
" clip-path="url(#p94933b22e9)" style="fill: none; stroke: #000000; stroke-width: 1.5; stroke-linecap: square"/>
   </g>
   <g id="patch_3">
    <path d="M 54 256.32 
L 54 34.56 
" style="fill: none; stroke: #000000; stroke-width: 0.8; stroke-linejoin: miter; stroke-linecap: square"/>
   </g>
   <g id="patch_4">
    <path d="M 388.8 256.32 
L 388.8 34.56 
" style="fill: none; stroke: #000000; stroke-width: 0.8; stroke-linejoin: miter; stroke-linecap: square"/>
   </g>
   <g id="patch_5">
    <path d="M 54 256.32 
L 388.8 256.32 
" style="fill: none; stroke: #000000; stroke-width: 0.8; stroke-linejoin: miter; stroke-linecap: square"/>
   </g>
   <g id="patch_6">
    <path d="M 54 34.56 
L 388.8 34.56 
" style="fill: none; stroke: #000000; stroke-width: 0.8; stroke-linejoin: miter; stroke-linecap: square"/>
   </g>
   <g id="text_19">
    <!-- 2025-06-20 trial 13 -->
    <g transform="translate(163.2525 28.56) scale(0.12 -0.12)">
     <defs>
      <path id="DejaVuSans-2d" d="M 313 2009 
L 1997 2009 
L 1997 1497 
L 313 1497 
L 313 2009 
z
" transform="scale(0.015625)"/>
      <path id="DejaVuSans-6c" d="M 603 4863 
L 1178 4863 
L 1178 0 
L 603 0 
L 603 4863 
z
" transform="scale(0.015625)"/>
     </defs>
     <use xlink:href="#DejaVuSans-32"/>
     <use xlink:href="#DejaVuSans-30" x="63.623047"/>
     <use xlink:href="#DejaVuSans-32" x="127.246094"/>
     <use xlink:href="#DejaVuSans-35" x="190.869141"/>
     <use xlink:href="#DejaVuSans-2d" x="254.492188"/>
     <use xlink:href="#DejaVuSans-30" x="290.576172"/>
     <use xlink:href="#DejaVuSans-36" x="354.199219"/>
     <use xlink:href="#DejaVuSans-2d" x="417.822266"/>
     <use xlink:href="#DejaVuSans-32" x="453.90625"/>
     <use xlink:href="#DejaVuSans-30" x="517.529297"/>
     <use xlink:href="#DejaVuSans-20" x="581.152344"/>
     <use xlink:href="#DejaVuSans-74" x="612.939453"/>
     <use xlink:href="#DejaVuSans-72" x="652.148438"/>
     <use xlink:href="#DejaVuSans-69" x="693.261719"/>
     <use xlink:href="#DejaVuSans-61" x="721.044922"/>
     <use xlink:href="#DejaVuSans-6c" x="782.324219"/>
     <use xlink:href="#DejaVuSans-20" x="810.107422"/>
     <use xlink:href="#DejaVuSans-31" x="841.894531"/>
     <use xlink:href="#DejaVuSans-33" x="905.517578"/>
    </g>
   </g>
  </g>
 </g>
 <defs>
  <clipPath id="p94933b22e9">
   <rect x="54" y="34.56" width="334.8" height="221.76"/>
  </clipPath>
 </defs>
</svg>
