<?xml version="1.0" encoding="utf-8" standalone="no"?>
<!DOCTYPE svg PUBLIC "-//W3C//DTD SVG 1.1//EN"
  "http://www.w3.org/Graphics/SVG/1.1/DTD/svg11.dtd">
<svg xmlns:xlink="http://www.w3.org/1999/xlink" width="460.8pt" height="345.6pt" viewBox="0 0 460.8 345.6" xmlns="http://www.w3.org/2000/svg" version="1.1">
 <metadata>
  <rdf:RDF xmlns:dc="http://purl.org/dc/elements/1.1/" xmlns:cc="http://creativecommons.org/ns#" xmlns:rdf="http://www.w3.org/1999/02/22-rdf-syntax-ns#">
   <cc:Work>
    <dc:type rdf:resource="http://purl.org/dc/dcmitype/StillImage"/>
    <dc:date>2025-07-16T22:12:27.258472</dc:date>
    <dc:format>image/svg+xml</dc:format>
    <dc:creator>
     <cc:Agent>
      <dc:title>Matplotlib v3.10.3, https://matplotlib.org/</dc:title>
     </cc:Agent>
    </dc:creator>
   </cc:Work>
  </rdf:RDF>
 </metadata>
 <defs>
  <style type="text/css">*{stroke-linejoin: round; stroke-linecap: butt}</style>
 </defs>
 <g id="figure_1">
  <g id="patch_1">
   <path d="M 0 345.6 
L 460.8 345.6 
L 460.8 0 
L 0 0 
z
" style="fill: #ffffff"/>
  </g>
  <g id="axes_1">
   <g id="patch_2">
    <path d="M 57.6 307.584 
L 414.72 307.584 
L 414.72 41.472 
L 57.6 41.472 
z
" style="fill: #ffffff"/>
   </g>
   <g id="matplotlib.axis_1">
    <g id="xtick_1">
     <g id="line2d_1">
      <defs>
       <path id="m5a78118c09" d="M 0 0 
L 0 3.5 
" style="stroke: #000000; stroke-width: 0.8"/>
      </defs>
      <g>
       <use xlink:href="#m5a78118c09" x="73.968628" y="307.584" style="stroke: #000000; stroke-width: 0.8"/>
      </g>
     </g>
     <g id="text_1">
      <!-- 0.000 -->
      <g transform="translate(59.654565 322.182437) scale(0.1 -0.1)">
       <defs>
        <path id="DejaVuSans-30" d="M 2034 4250 
Q 1547 4250 1301 3770 
Q 1056 3291 1056 2328 
Q 1056 1369 1301 889 
Q 1547 409 2034 409 
Q 2525 409 2770 889 
Q 3016 1369 3016 2328 
Q 3016 3291 2770 3770 
Q 2525 4250 2034 4250 
z
M 2034 4750 
Q 2819 4750 3233 4129 
Q 3647 3509 3647 2328 
Q 3647 1150 3233 529 
Q 2819 -91 2034 -91 
Q 1250 -91 836 529 
Q 422 1150 422 2328 
Q 422 3509 836 4129 
Q 1250 4750 2034 4750 
z
" transform="scale(0.015625)"/>
        <path id="DejaVuSans-2e" d="M 684 794 
L 1344 794 
L 1344 0 
L 684 0 
L 684 794 
z
" transform="scale(0.015625)"/>
       </defs>
       <use xlink:href="#DejaVuSans-30"/>
       <use xlink:href="#DejaVuSans-2e" transform="translate(63.623047 0)"/>
       <use xlink:href="#DejaVuSans-30" transform="translate(95.410156 0)"/>
       <use xlink:href="#DejaVuSans-30" transform="translate(159.033203 0)"/>
       <use xlink:href="#DejaVuSans-30" transform="translate(222.65625 0)"/>
      </g>
     </g>
    </g>
    <g id="xtick_2">
     <g id="line2d_2">
      <g>
       <use xlink:href="#m5a78118c09" x="119.378476" y="307.584" style="stroke: #000000; stroke-width: 0.8"/>
      </g>
     </g>
     <g id="text_2">
      <!-- 0.025 -->
      <g transform="translate(105.064414 322.182437) scale(0.1 -0.1)">
       <defs>
        <path id="DejaVuSans-32" d="M 1228 531 
L 3431 531 
L 3431 0 
L 469 0 
L 469 531 
Q 828 903 1448 1529 
Q 2069 2156 2228 2338 
Q 2531 2678 2651 2914 
Q 2772 3150 2772 3378 
Q 2772 3750 2511 3984 
Q 2250 4219 1831 4219 
Q 1534 4219 1204 4116 
Q 875 4013 500 3803 
L 500 4441 
Q 881 4594 1212 4672 
Q 1544 4750 1819 4750 
Q 2544 4750 2975 4387 
Q 3406 4025 3406 3419 
Q 3406 3131 3298 2873 
Q 3191 2616 2906 2266 
Q 2828 2175 2409 1742 
Q 1991 1309 1228 531 
z
" transform="scale(0.015625)"/>
        <path id="DejaVuSans-35" d="M 691 4666 
L 3169 4666 
L 3169 4134 
L 1269 4134 
L 1269 2991 
Q 1406 3038 1543 3061 
Q 1681 3084 1819 3084 
Q 2600 3084 3056 2656 
Q 3513 2228 3513 1497 
Q 3513 744 3044 326 
Q 2575 -91 1722 -91 
Q 1428 -91 1123 -41 
Q 819 9 494 109 
L 494 744 
Q 775 591 1075 516 
Q 1375 441 1709 441 
Q 2250 441 2565 725 
Q 2881 1009 2881 1497 
Q 2881 1984 2565 2268 
Q 2250 2553 1709 2553 
Q 1456 2553 1204 2497 
Q 953 2441 691 2322 
L 691 4666 
z
" transform="scale(0.015625)"/>
       </defs>
       <use xlink:href="#DejaVuSans-30"/>
       <use xlink:href="#DejaVuSans-2e" transform="translate(63.623047 0)"/>
       <use xlink:href="#DejaVuSans-30" transform="translate(95.410156 0)"/>
       <use xlink:href="#DejaVuSans-32" transform="translate(159.033203 0)"/>
       <use xlink:href="#DejaVuSans-35" transform="translate(222.65625 0)"/>
      </g>
     </g>
    </g>
    <g id="xtick_3">
     <g id="line2d_3">
      <g>
       <use xlink:href="#m5a78118c09" x="164.788325" y="307.584" style="stroke: #000000; stroke-width: 0.8"/>
      </g>
     </g>
     <g id="text_3">
      <!-- 0.050 -->
      <g transform="translate(150.474262 322.182437) scale(0.1 -0.1)">
       <use xlink:href="#DejaVuSans-30"/>
       <use xlink:href="#DejaVuSans-2e" transform="translate(63.623047 0)"/>
       <use xlink:href="#DejaVuSans-30" transform="translate(95.410156 0)"/>
       <use xlink:href="#DejaVuSans-35" transform="translate(159.033203 0)"/>
       <use xlink:href="#DejaVuSans-30" transform="translate(222.65625 0)"/>
      </g>
     </g>
    </g>
    <g id="xtick_4">
     <g id="line2d_4">
      <g>
       <use xlink:href="#m5a78118c09" x="210.198173" y="307.584" style="stroke: #000000; stroke-width: 0.8"/>
      </g>
     </g>
     <g id="text_4">
      <!-- 0.075 -->
      <g transform="translate(195.884111 322.182437) scale(0.1 -0.1)">
       <defs>
        <path id="DejaVuSans-37" d="M 525 4666 
L 3525 4666 
L 3525 4397 
L 1831 0 
L 1172 0 
L 2766 4134 
L 525 4134 
L 525 4666 
z
" transform="scale(0.015625)"/>
       </defs>
       <use xlink:href="#DejaVuSans-30"/>
       <use xlink:href="#DejaVuSans-2e" transform="translate(63.623047 0)"/>
       <use xlink:href="#DejaVuSans-30" transform="translate(95.410156 0)"/>
       <use xlink:href="#DejaVuSans-37" transform="translate(159.033203 0)"/>
       <use xlink:href="#DejaVuSans-35" transform="translate(222.65625 0)"/>
      </g>
     </g>
    </g>
    <g id="xtick_5">
     <g id="line2d_5">
      <g>
       <use xlink:href="#m5a78118c09" x="255.608022" y="307.584" style="stroke: #000000; stroke-width: 0.8"/>
      </g>
     </g>
     <g id="text_5">
      <!-- 0.100 -->
      <g transform="translate(241.293959 322.182437) scale(0.1 -0.1)">
       <defs>
        <path id="DejaVuSans-31" d="M 794 531 
L 1825 531 
L 1825 4091 
L 703 3866 
L 703 4441 
L 1819 4666 
L 2450 4666 
L 2450 531 
L 3481 531 
L 3481 0 
L 794 0 
L 794 531 
z
" transform="scale(0.015625)"/>
       </defs>
       <use xlink:href="#DejaVuSans-30"/>
       <use xlink:href="#DejaVuSans-2e" transform="translate(63.623047 0)"/>
       <use xlink:href="#DejaVuSans-31" transform="translate(95.410156 0)"/>
       <use xlink:href="#DejaVuSans-30" transform="translate(159.033203 0)"/>
       <use xlink:href="#DejaVuSans-30" transform="translate(222.65625 0)"/>
      </g>
     </g>
    </g>
    <g id="xtick_6">
     <g id="line2d_6">
      <g>
       <use xlink:href="#m5a78118c09" x="301.01787" y="307.584" style="stroke: #000000; stroke-width: 0.8"/>
      </g>
     </g>
     <g id="text_6">
      <!-- 0.125 -->
      <g transform="translate(286.703808 322.182437) scale(0.1 -0.1)">
       <use xlink:href="#DejaVuSans-30"/>
       <use xlink:href="#DejaVuSans-2e" transform="translate(63.623047 0)"/>
       <use xlink:href="#DejaVuSans-31" transform="translate(95.410156 0)"/>
       <use xlink:href="#DejaVuSans-32" transform="translate(159.033203 0)"/>
       <use xlink:href="#DejaVuSans-35" transform="translate(222.65625 0)"/>
      </g>
     </g>
    </g>
    <g id="xtick_7">
     <g id="line2d_7">
      <g>
       <use xlink:href="#m5a78118c09" x="346.427719" y="307.584" style="stroke: #000000; stroke-width: 0.8"/>
      </g>
     </g>
     <g id="text_7">
      <!-- 0.150 -->
      <g transform="translate(332.113657 322.182437) scale(0.1 -0.1)">
       <use xlink:href="#DejaVuSans-30"/>
       <use xlink:href="#DejaVuSans-2e" transform="translate(63.623047 0)"/>
       <use xlink:href="#DejaVuSans-31" transform="translate(95.410156 0)"/>
       <use xlink:href="#DejaVuSans-35" transform="translate(159.033203 0)"/>
       <use xlink:href="#DejaVuSans-30" transform="translate(222.65625 0)"/>
      </g>
     </g>
    </g>
    <g id="xtick_8">
     <g id="line2d_8">
      <g>
       <use xlink:href="#m5a78118c09" x="391.837568" y="307.584" style="stroke: #000000; stroke-width: 0.8"/>
      </g>
     </g>
     <g id="text_8">
      <!-- 0.175 -->
      <g transform="translate(377.523505 322.182437) scale(0.1 -0.1)">
       <use xlink:href="#DejaVuSans-30"/>
       <use xlink:href="#DejaVuSans-2e" transform="translate(63.623047 0)"/>
       <use xlink:href="#DejaVuSans-31" transform="translate(95.410156 0)"/>
       <use xlink:href="#DejaVuSans-37" transform="translate(159.033203 0)"/>
       <use xlink:href="#DejaVuSans-35" transform="translate(222.65625 0)"/>
      </g>
     </g>
    </g>
    <g id="text_9">
     <!-- Strain -->
     <g transform="translate(221.348281 335.860562) scale(0.1 -0.1)">
      <defs>
       <path id="DejaVuSans-53" d="M 3425 4513 
L 3425 3897 
Q 3066 4069 2747 4153 
Q 2428 4238 2131 4238 
Q 1616 4238 1336 4038 
Q 1056 3838 1056 3469 
Q 1056 3159 1242 3001 
Q 1428 2844 1947 2747 
L 2328 2669 
Q 3034 2534 3370 2195 
Q 3706 1856 3706 1288 
Q 3706 609 3251 259 
Q 2797 -91 1919 -91 
Q 1588 -91 1214 -16 
Q 841 59 441 206 
L 441 856 
Q 825 641 1194 531 
Q 1563 422 1919 422 
Q 2459 422 2753 634 
Q 3047 847 3047 1241 
Q 3047 1584 2836 1778 
Q 2625 1972 2144 2069 
L 1759 2144 
Q 1053 2284 737 2584 
Q 422 2884 422 3419 
Q 422 4038 858 4394 
Q 1294 4750 2059 4750 
Q 2388 4750 2728 4690 
Q 3069 4631 3425 4513 
z
" transform="scale(0.015625)"/>
       <path id="DejaVuSans-74" d="M 1172 4494 
L 1172 3500 
L 2356 3500 
L 2356 3053 
L 1172 3053 
L 1172 1153 
Q 1172 725 1289 603 
Q 1406 481 1766 481 
L 2356 481 
L 2356 0 
L 1766 0 
Q 1100 0 847 248 
Q 594 497 594 1153 
L 594 3053 
L 172 3053 
L 172 3500 
L 594 3500 
L 594 4494 
L 1172 4494 
z
" transform="scale(0.015625)"/>
       <path id="DejaVuSans-72" d="M 2631 2963 
Q 2534 3019 2420 3045 
Q 2306 3072 2169 3072 
Q 1681 3072 1420 2755 
Q 1159 2438 1159 1844 
L 1159 0 
L 581 0 
L 581 3500 
L 1159 3500 
L 1159 2956 
Q 1341 3275 1631 3429 
Q 1922 3584 2338 3584 
Q 2397 3584 2469 3576 
Q 2541 3569 2628 3553 
L 2631 2963 
z
" transform="scale(0.015625)"/>
       <path id="DejaVuSans-61" d="M 2194 1759 
Q 1497 1759 1228 1600 
Q 959 1441 959 1056 
Q 959 750 1161 570 
Q 1363 391 1709 391 
Q 2188 391 2477 730 
Q 2766 1069 2766 1631 
L 2766 1759 
L 2194 1759 
z
M 3341 1997 
L 3341 0 
L 2766 0 
L 2766 531 
Q 2569 213 2275 61 
Q 1981 -91 1556 -91 
Q 1019 -91 701 211 
Q 384 513 384 1019 
Q 384 1609 779 1909 
Q 1175 2209 1959 2209 
L 2766 2209 
L 2766 2266 
Q 2766 2663 2505 2880 
Q 2244 3097 1772 3097 
Q 1472 3097 1187 3025 
Q 903 2953 641 2809 
L 641 3341 
Q 956 3463 1253 3523 
Q 1550 3584 1831 3584 
Q 2591 3584 2966 3190 
Q 3341 2797 3341 1997 
z
" transform="scale(0.015625)"/>
       <path id="DejaVuSans-69" d="M 603 3500 
L 1178 3500 
L 1178 0 
L 603 0 
L 603 3500 
z
M 603 4863 
L 1178 4863 
L 1178 4134 
L 603 4134 
L 603 4863 
z
" transform="scale(0.015625)"/>
       <path id="DejaVuSans-6e" d="M 3513 2113 
L 3513 0 
L 2938 0 
L 2938 2094 
Q 2938 2591 2744 2837 
Q 2550 3084 2163 3084 
Q 1697 3084 1428 2787 
Q 1159 2491 1159 1978 
L 1159 0 
L 581 0 
L 581 3500 
L 1159 3500 
L 1159 2956 
Q 1366 3272 1645 3428 
Q 1925 3584 2291 3584 
Q 2894 3584 3203 3211 
Q 3513 2838 3513 2113 
z
" transform="scale(0.015625)"/>
      </defs>
      <use xlink:href="#DejaVuSans-53"/>
      <use xlink:href="#DejaVuSans-74" transform="translate(63.476562 0)"/>
      <use xlink:href="#DejaVuSans-72" transform="translate(102.685547 0)"/>
      <use xlink:href="#DejaVuSans-61" transform="translate(143.798828 0)"/>
      <use xlink:href="#DejaVuSans-69" transform="translate(205.078125 0)"/>
      <use xlink:href="#DejaVuSans-6e" transform="translate(232.861328 0)"/>
     </g>
    </g>
   </g>
   <g id="matplotlib.axis_2">
    <g id="ytick_1">
     <g id="line2d_9">
      <defs>
       <path id="m4d825d08cd" d="M 0 0 
L -3.5 0 
" style="stroke: #000000; stroke-width: 0.8"/>
      </defs>
      <g>
       <use xlink:href="#m4d825d08cd" x="57.6" y="278.936744" style="stroke: #000000; stroke-width: 0.8"/>
      </g>
     </g>
     <g id="text_10">
      <!-- 0 -->
      <g transform="translate(44.2375 282.735963) scale(0.1 -0.1)">
       <use xlink:href="#DejaVuSans-30"/>
      </g>
     </g>
    </g>
    <g id="ytick_2">
     <g id="line2d_10">
      <g>
       <use xlink:href="#m4d825d08cd" x="57.6" y="243.042352" style="stroke: #000000; stroke-width: 0.8"/>
      </g>
     </g>
     <g id="text_11">
      <!-- 250 -->
      <g transform="translate(31.5125 246.841571) scale(0.1 -0.1)">
       <use xlink:href="#DejaVuSans-32"/>
       <use xlink:href="#DejaVuSans-35" transform="translate(63.623047 0)"/>
       <use xlink:href="#DejaVuSans-30" transform="translate(127.246094 0)"/>
      </g>
     </g>
    </g>
    <g id="ytick_3">
     <g id="line2d_11">
      <g>
       <use xlink:href="#m4d825d08cd" x="57.6" y="207.14796" style="stroke: #000000; stroke-width: 0.8"/>
      </g>
     </g>
     <g id="text_12">
      <!-- 500 -->
      <g transform="translate(31.5125 210.947179) scale(0.1 -0.1)">
       <use xlink:href="#DejaVuSans-35"/>
       <use xlink:href="#DejaVuSans-30" transform="translate(63.623047 0)"/>
       <use xlink:href="#DejaVuSans-30" transform="translate(127.246094 0)"/>
      </g>
     </g>
    </g>
    <g id="ytick_4">
     <g id="line2d_12">
      <g>
       <use xlink:href="#m4d825d08cd" x="57.6" y="171.253568" style="stroke: #000000; stroke-width: 0.8"/>
      </g>
     </g>
     <g id="text_13">
      <!-- 750 -->
      <g transform="translate(31.5125 175.052786) scale(0.1 -0.1)">
       <use xlink:href="#DejaVuSans-37"/>
       <use xlink:href="#DejaVuSans-35" transform="translate(63.623047 0)"/>
       <use xlink:href="#DejaVuSans-30" transform="translate(127.246094 0)"/>
      </g>
     </g>
    </g>
    <g id="ytick_5">
     <g id="line2d_13">
      <g>
       <use xlink:href="#m4d825d08cd" x="57.6" y="135.359176" style="stroke: #000000; stroke-width: 0.8"/>
      </g>
     </g>
     <g id="text_14">
      <!-- 1000 -->
      <g transform="translate(25.15 139.158394) scale(0.1 -0.1)">
       <use xlink:href="#DejaVuSans-31"/>
       <use xlink:href="#DejaVuSans-30" transform="translate(63.623047 0)"/>
       <use xlink:href="#DejaVuSans-30" transform="translate(127.246094 0)"/>
       <use xlink:href="#DejaVuSans-30" transform="translate(190.869141 0)"/>
      </g>
     </g>
    </g>
    <g id="ytick_6">
     <g id="line2d_14">
      <g>
       <use xlink:href="#m4d825d08cd" x="57.6" y="99.464784" style="stroke: #000000; stroke-width: 0.8"/>
      </g>
     </g>
     <g id="text_15">
      <!-- 1250 -->
      <g transform="translate(25.15 103.264002) scale(0.1 -0.1)">
       <use xlink:href="#DejaVuSans-31"/>
       <use xlink:href="#DejaVuSans-32" transform="translate(63.623047 0)"/>
       <use xlink:href="#DejaVuSans-35" transform="translate(127.246094 0)"/>
       <use xlink:href="#DejaVuSans-30" transform="translate(190.869141 0)"/>
      </g>
     </g>
    </g>
    <g id="ytick_7">
     <g id="line2d_15">
      <g>
       <use xlink:href="#m4d825d08cd" x="57.6" y="63.570392" style="stroke: #000000; stroke-width: 0.8"/>
      </g>
     </g>
     <g id="text_16">
      <!-- 1500 -->
      <g transform="translate(25.15 67.36961) scale(0.1 -0.1)">
       <use xlink:href="#DejaVuSans-31"/>
       <use xlink:href="#DejaVuSans-35" transform="translate(63.623047 0)"/>
       <use xlink:href="#DejaVuSans-30" transform="translate(127.246094 0)"/>
       <use xlink:href="#DejaVuSans-30" transform="translate(190.869141 0)"/>
      </g>
     </g>
    </g>
    <g id="text_17">
     <!-- Stress [Pa] -->
     <g transform="translate(19.070312 201.235813) rotate(-90) scale(0.1 -0.1)">
      <defs>
       <path id="DejaVuSans-65" d="M 3597 1894 
L 3597 1613 
L 953 1613 
Q 991 1019 1311 708 
Q 1631 397 2203 397 
Q 2534 397 2845 478 
Q 3156 559 3463 722 
L 3463 178 
Q 3153 47 2828 -22 
Q 2503 -91 2169 -91 
Q 1331 -91 842 396 
Q 353 884 353 1716 
Q 353 2575 817 3079 
Q 1281 3584 2069 3584 
Q 2775 3584 3186 3129 
Q 3597 2675 3597 1894 
z
M 3022 2063 
Q 3016 2534 2758 2815 
Q 2500 3097 2075 3097 
Q 1594 3097 1305 2825 
Q 1016 2553 972 2059 
L 3022 2063 
z
" transform="scale(0.015625)"/>
       <path id="DejaVuSans-73" d="M 2834 3397 
L 2834 2853 
Q 2591 2978 2328 3040 
Q 2066 3103 1784 3103 
Q 1356 3103 1142 2972 
Q 928 2841 928 2578 
Q 928 2378 1081 2264 
Q 1234 2150 1697 2047 
L 1894 2003 
Q 2506 1872 2764 1633 
Q 3022 1394 3022 966 
Q 3022 478 2636 193 
Q 2250 -91 1575 -91 
Q 1294 -91 989 -36 
Q 684 19 347 128 
L 347 722 
Q 666 556 975 473 
Q 1284 391 1588 391 
Q 1994 391 2212 530 
Q 2431 669 2431 922 
Q 2431 1156 2273 1281 
Q 2116 1406 1581 1522 
L 1381 1569 
Q 847 1681 609 1914 
Q 372 2147 372 2553 
Q 372 3047 722 3315 
Q 1072 3584 1716 3584 
Q 2034 3584 2315 3537 
Q 2597 3491 2834 3397 
z
" transform="scale(0.015625)"/>
       <path id="DejaVuSans-20" transform="scale(0.015625)"/>
       <path id="DejaVuSans-5b" d="M 550 4863 
L 1875 4863 
L 1875 4416 
L 1125 4416 
L 1125 -397 
L 1875 -397 
L 1875 -844 
L 550 -844 
L 550 4863 
z
" transform="scale(0.015625)"/>
       <path id="DejaVuSans-50" d="M 1259 4147 
L 1259 2394 
L 2053 2394 
Q 2494 2394 2734 2622 
Q 2975 2850 2975 3272 
Q 2975 3691 2734 3919 
Q 2494 4147 2053 4147 
L 1259 4147 
z
M 628 4666 
L 2053 4666 
Q 2838 4666 3239 4311 
Q 3641 3956 3641 3272 
Q 3641 2581 3239 2228 
Q 2838 1875 2053 1875 
L 1259 1875 
L 1259 0 
L 628 0 
L 628 4666 
z
" transform="scale(0.015625)"/>
       <path id="DejaVuSans-5d" d="M 1947 4863 
L 1947 -844 
L 622 -844 
L 622 -397 
L 1369 -397 
L 1369 4416 
L 622 4416 
L 622 4863 
L 1947 4863 
z
" transform="scale(0.015625)"/>
      </defs>
      <use xlink:href="#DejaVuSans-53"/>
      <use xlink:href="#DejaVuSans-74" transform="translate(63.476562 0)"/>
      <use xlink:href="#DejaVuSans-72" transform="translate(102.685547 0)"/>
      <use xlink:href="#DejaVuSans-65" transform="translate(141.548828 0)"/>
      <use xlink:href="#DejaVuSans-73" transform="translate(203.072266 0)"/>
      <use xlink:href="#DejaVuSans-73" transform="translate(255.171875 0)"/>
      <use xlink:href="#DejaVuSans-20" transform="translate(307.271484 0)"/>
      <use xlink:href="#DejaVuSans-5b" transform="translate(339.058594 0)"/>
      <use xlink:href="#DejaVuSans-50" transform="translate(378.072266 0)"/>
      <use xlink:href="#DejaVuSans-61" transform="translate(433.875 0)"/>
      <use xlink:href="#DejaVuSans-5d" transform="translate(495.154297 0)"/>
     </g>
    </g>
   </g>
   <g id="line2d_16">
    <path d="M 73.968628 279.336428 
L 73.968783 278.915197 
L 73.969699 279.036398 
L 74.621219 276.94762 
L 75.275143 274.049824 
L 75.945523 274.110709 
L 76.653765 274.589992 
L 77.384279 274.27936 
L 79.470401 271.977528 
L 80.182602 271.821841 
L 80.944791 272.210322 
L 82.303864 273.290866 
L 83.009631 273.749719 
L 85.15267 275.518542 
L 85.851508 276.082726 
L 86.533519 276.130094 
L 87.196723 275.622511 
L 88.735949 273.994733 
L 89.487745 273.458396 
L 90.230632 273.268544 
L 90.961146 273.358343 
L 92.367731 273.685571 
L 93.03242 273.404463 
L 93.777286 272.632041 
L 95.200205 270.863822 
L 96.586498 269.704886 
L 97.964873 268.837121 
L 100.042086 267.935608 
L 101.430359 267.418793 
L 103.500643 266.617465 
L 106.217799 265.154645 
L 107.565985 264.434282 
L 111.602687 262.942915 
L 114.289157 261.487056 
L 117.652688 259.652552 
L 119.675954 258.707605 
L 127.742787 254.084268 
L 129.801688 252.734344 
L 131.186991 252.178484 
L 133.275093 251.562544 
L 134.661386 250.991702 
L 135.350821 250.673289 
L 137.404773 249.313378 
L 140.126877 247.920777 
L 141.485455 247.098111 
L 145.594347 244.430347 
L 147.67453 243.350711 
L 149.059834 242.490513 
L 153.203867 240.40933 
L 155.251879 239.507969 
L 156.603527 238.74251 
L 163.376216 234.206665 
L 165.44848 233.089194 
L 171.014936 230.049748 
L 181.264401 223.884895 
L 182.631393 222.871242 
L 184.700192 221.647533 
L 186.080546 220.781282 
L 187.456941 219.739782 
L 191.576723 217.21821 
L 193.628694 216.171868 
L 195.660374 214.843131 
L 197.015487 214.163932 
L 199.048652 212.871819 
L 200.4003 212.116044 
L 205.125386 208.910732 
L 207.162108 207.434168 
L 218.010437 200.828017 
L 220.657807 198.862461 
L 222.654842 197.776771 
L 227.371506 194.065087 
L 232.152511 191.09132 
L 233.509604 190.306488 
L 236.890458 188.450494 
L 238.9063 186.946813 
L 240.922637 185.14863 
L 244.302995 182.743587 
L 246.33517 181.506258 
L 249.737306 179.122704 
L 251.105287 178.140529 
L 251.791752 177.545473 
L 253.169137 176.658337 
L 255.928748 174.377901 
L 258.698365 172.570032 
L 260.07674 171.702267 
L 264.168805 168.778745 
L 265.522928 167.82381 
L 267.545699 166.19573 
L 268.893883 165.088247 
L 270.249491 164.029798 
L 273.660041 161.595093 
L 275.036931 160.49427 
L 276.42075 159.709438 
L 284.689513 153.293366 
L 286.046606 152.018506 
L 288.767225 150.029638 
L 290.808804 148.454223 
L 293.551695 146.285265 
L 296.320817 144.37025 
L 305.236746 137.261879 
L 314.086554 129.666289 
L 318.939324 125.940682 
L 321.700033 123.55501 
L 327.119 119.061813 
L 328.449862 117.862016 
L 331.110595 115.588636 
L 332.448881 114.444833 
L 334.466718 112.740176 
L 337.171995 110.468006 
L 341.248717 107.140717 
L 343.270004 105.388541 
L 345.94608 102.95323 
L 349.966875 99.197658 
L 351.994596 97.250257 
L 356.779065 92.980064 
L 359.530866 90.458795 
L 360.903301 89.215412 
L 362.955273 87.310991 
L 364.315335 86.057923 
L 386.671731 64.084134 
L 388.017935 62.613141 
L 389.362655 61.471759 
L 391.345832 60.257736 
L 396.115701 57.53988 
L 396.781874 56.792125 
L 397.441552 55.640717 
L 398.180479 54.056411 
L 398.487273 55.285663 
L 398.326143 69.958325 
L 398.326236 83.194159 
L 398.321688 83.029505 
L 397.672528 83.524697 
L 397.003014 85.353375 
L 396.337336 86.749305 
L 394.98841 86.535277 
L 394.297428 86.752104 
L 393.640411 87.233506 
L 392.32316 87.70738 
L 390.963345 88.613962 
L 390.275395 90.609186 
L 389.593384 91.724235 
L 387.608228 94.238108 
L 386.223172 94.311147 
L 385.537696 94.840674 
L 383.545116 97.100131 
L 382.893543 99.171931 
L 382.23467 100.092361 
L 380.243574 101.125763 
L 378.91395 102.518818 
L 377.582222 104.296419 
L 376.240472 105.848529 
L 375.581352 106.621027 
L 374.244304 107.791314 
L 373.583822 108.556623 
L 372.237618 109.382203 
L 368.928776 113.254304 
L 366.963417 114.80142 
L 360.276691 121.590839 
L 358.942953 122.885241 
L 357.615432 124.470039 
L 356.284075 125.680279 
L 354.969794 126.619021 
L 349.630015 131.776425 
L 348.295936 133.083066 
L 347.634713 133.593827 
L 344.974227 136.077414 
L 342.284664 138.378858 
L 339.607598 140.866834 
L 336.971116 143.070069 
L 334.958244 144.92576 
L 334.284646 145.270884 
L 332.958239 146.366107 
L 332.286746 146.970244 
L 330.961576 148.596811 
L 328.296388 150.284593 
L 327.626874 150.867088 
L 326.307767 152.224446 
L 323.6552 154.284064 
L 322.301324 155.578144 
L 320.337945 156.979825 
L 316.984312 159.965698 
L 315.644542 160.728662 
L 314.329023 162.122776 
L 312.994202 163.226475 
L 310.985041 164.292491 
L 309.008268 166.548495 
L 308.336279 167.032092 
L 307.012099 167.65961 
L 306.33182 168.1199 
L 304.323031 170.155909 
L 303.0038 170.858263 
L 302.324759 171.290178 
L 300.988082 172.601056 
L 300.336509 173.182189 
L 297.683076 174.973713 
L 297.016284 175.712691 
L 296.358277 176.225722 
L 294.350555 177.382058 
L 293.685124 177.89524 
L 292.348324 179.246299 
L 289.691302 180.677793 
L 287.714807 182.610666 
L 285.737074 183.803426 
L 285.058033 184.171477 
L 283.065576 185.864556 
L 281.734467 186.633877 
L 277.779544 189.543486 
L 276.471696 190.361083 
L 273.117074 192.663822 
L 271.788439 193.365797 
L 271.136372 193.822153 
L 269.123375 195.659684 
L 267.12399 196.848282 
L 266.462271 197.319696 
L 265.132028 198.419612 
L 263.12559 199.496316 
L 262.445063 199.908406 
L 260.458871 201.460756 
L 258.466043 202.645798 
L 257.790713 203.10503 
L 255.803454 204.778511 
L 253.122923 206.048321 
L 252.449697 206.661537 
L 251.789958 207.427452 
L 250.440165 208.397218 
L 249.771765 208.541272 
L 248.438181 209.139279 
L 247.087275 210.194625 
L 243.696724 212.120891 
L 241.7133 213.439564 
L 240.401245 214.188529 
L 239.750663 214.69354 
L 237.780601 215.868442 
L 235.162184 217.609269 
L 233.838747 218.387442 
L 229.859649 220.994179 
L 229.202431 221.320352 
L 227.874539 222.268628 
L 226.522643 222.941396 
L 225.164065 223.857437 
L 223.200933 224.882327 
L 222.55134 225.184622 
L 219.908919 226.993134 
L 217.913121 227.961613 
L 215.911137 229.379865 
L 213.238696 230.765433 
L 211.92528 231.807841 
L 208.590703 233.364112 
L 205.921555 234.948305 
L 199.256607 238.685716 
L 198.595878 239.031104 
L 197.287783 239.556621 
L 189.308429 244.200374 
L 188.647947 244.356024 
L 187.987218 244.640055 
L 184.626409 246.628695 
L 183.269564 247.226702 
L 181.940929 248.16847 
L 180.599388 248.661599 
L 179.27892 249.167063 
L 177.96303 250.045043 
L 177.30725 250.599844 
L 174.657405 251.950411 
L 173.984798 252.301701 
L 173.320357 252.81216 
L 171.977246 253.391741 
L 170.6449 253.83705 
L 169.97056 254.175287 
L 167.986765 255.6372 
L 167.322571 255.932155 
L 166.646747 256.060217 
L 165.313906 256.586453 
L 163.963301 257.472773 
L 163.294406 257.964693 
L 162.614127 258.311519 
L 161.297371 258.793488 
L 157.946584 260.630944 
L 157.273482 260.739928 
L 155.944105 261.455675 
L 154.618193 262.283865 
L 151.951273 263.427365 
L 151.294751 263.940851 
L 150.624742 264.322711 
L 147.95343 265.101475 
L 145.936722 266.442431 
L 143.976064 267.203163 
L 143.295785 267.382169 
L 141.292812 268.68514 
L 139.292312 269.309707 
L 137.960461 270.064423 
L 136.61537 270.853644 
L 135.286736 271.236374 
L 133.956617 271.964455 
L 132.642088 272.641385 
L 131.310866 272.934707 
L 130.634547 273.233181 
L 129.303438 274.045556 
L 127.984702 274.669745 
L 125.983461 275.387081 
L 124.635029 276.135138 
L 123.307632 276.946227 
L 116.669904 279.481079 
L 116.002989 279.712095 
L 114.667669 280.416121 
L 112.656529 281.210989 
L 111.347691 281.763576 
L 110.014355 282.475124 
L 106.667899 283.697173 
L 105.323674 284.587108 
L 103.331094 285.083694 
L 101.333317 285.933722 
L 100.666277 286.21903 
L 99.994412 286.315822 
L 97.967802 287.063958 
L 95.985367 288.318237 
L 93.997241 288.925116 
L 92.007383 289.685373 
L 90.030144 290.310204 
L 88.700273 291.093977 
L 84.699027 292.342141 
L 83.374228 292.908708 
L 82.060261 293.195479 
L 80.032541 294.025523 
L 76.072869 295.11249 
L 74.760691 295.000145 
L 74.111778 295.198115 
L 73.972456 295.488 
L 73.833143 294.028653 
L 73.833143 294.028653 
" clip-path="url(#pddea4bc4a8)" style="fill: none; stroke: #ff0000; stroke-width: 1.5; stroke-linecap: square"/>
   </g>
   <g id="line2d_17">
    <path d="M 73.968628 279.336428 
L 73.968783 278.915197 
L 73.969699 279.036398 
L 74.621219 276.94762 
L 75.275143 274.049824 
L 75.945523 274.110709 
L 76.653765 274.589992 
L 77.384279 274.27936 
L 78.812641 272.556543 
L 79.470401 280.677564 
L 80.182602 280.278527 
L 82.303864 280.058634 
L 83.009631 279.847974 
L 85.15267 279.879451 
L 85.851508 279.579199 
L 86.533519 278.747604 
L 89.487745 273.458396 
L 90.230632 273.268544 
L 90.961146 273.358343 
L 92.367731 273.685571 
L 93.03242 273.404463 
L 93.777286 272.632041 
L 95.200205 270.863822 
L 96.586498 269.704886 
L 97.964873 268.837121 
L 100.042086 267.935608 
L 101.430359 267.418793 
L 103.500643 266.617465 
L 106.217799 265.154645 
L 107.565985 264.434282 
L 111.602687 262.942915 
L 114.289157 261.487056 
L 117.652688 259.652552 
L 119.675954 258.707605 
L 127.742787 254.084268 
L 129.801688 252.734344 
L 131.186991 252.178484 
L 133.275093 251.562544 
L 134.661386 250.991702 
L 135.350821 250.673289 
L 137.404773 249.313378 
L 140.126877 247.920777 
L 141.485455 247.098111 
L 145.594347 244.430347 
L 147.67453 243.350711 
L 149.059834 242.490513 
L 153.203867 240.40933 
L 155.251879 239.507969 
L 156.603527 238.74251 
L 163.376216 234.206665 
L 165.44848 233.089194 
L 171.014936 230.049748 
L 181.264401 223.884895 
L 182.631393 222.871242 
L 184.700192 221.647533 
L 186.080546 220.781282 
L 187.456941 219.739782 
L 191.576723 217.21821 
L 193.628694 216.171868 
L 195.660374 214.843131 
L 197.015487 214.163932 
L 199.048652 212.871819 
L 200.4003 212.116044 
L 205.125386 208.910732 
L 207.162108 207.434168 
L 218.010437 200.828017 
L 220.657807 198.862461 
L 222.654842 197.776771 
L 227.371506 194.065087 
L 232.152511 191.09132 
L 233.509604 190.306488 
L 236.890458 188.450494 
L 238.9063 186.946813 
L 240.922637 185.14863 
L 244.302995 182.743587 
L 246.33517 181.506258 
L 249.737306 179.122704 
L 251.105287 178.140529 
L 251.791752 177.545473 
L 253.169137 176.658337 
L 255.928748 174.377901 
L 258.698365 172.570032 
L 260.07674 171.702267 
L 264.168805 168.778745 
L 265.522928 167.82381 
L 267.545699 166.19573 
L 268.893883 165.088247 
L 270.249491 164.029798 
L 273.660041 161.595093 
L 275.036931 160.49427 
L 276.42075 159.709438 
L 284.689513 153.293366 
L 286.046606 152.018506 
L 288.767225 150.029638 
L 290.808804 148.454223 
L 293.551695 146.285265 
L 296.320817 144.37025 
L 305.236746 137.261879 
L 314.086554 129.666289 
L 318.939324 125.940682 
L 321.700033 123.55501 
L 327.119 119.061813 
L 328.449862 117.862016 
L 331.110595 115.588636 
L 332.448881 114.444833 
L 334.466718 112.740176 
L 337.171995 110.468006 
L 341.248717 107.140717 
L 343.270004 105.388541 
L 345.94608 102.95323 
L 349.966875 99.197658 
L 351.994596 97.250257 
L 356.779065 92.980064 
L 359.530866 90.458795 
L 360.903301 89.215412 
L 362.955273 87.310991 
L 364.315335 86.057923 
L 381.249299 69.330087 
L 383.293847 67.107707 
L 384.64995 65.543794 
L 385.325032 64.827139 
L 387.344338 61.944628 
L 388.691038 60.035061 
L 390.031798 58.377319 
L 394.14366 54.53382 
L 395.444579 53.843281 
L 396.781874 53.568 
L 398.091083 53.914485 
L 398.180479 53.877909 
L 398.487273 55.199845 
L 398.324503 69.889751 
L 398.323946 69.814896 
L 398.323946 76.9564 
L 398.323761 76.938467 
L 398.326236 83.194159 
L 398.324998 76.914612 
L 398.321688 83.029505 
L 397.672528 83.524697 
L 397.003014 85.353375 
L 396.337336 86.749305 
L 394.98841 86.535277 
L 394.297428 86.752104 
L 393.640411 87.233506 
L 392.32316 87.70738 
L 390.963345 88.613962 
L 390.275395 90.609186 
L 389.593384 91.724235 
L 387.608228 94.238108 
L 386.223172 94.311147 
L 385.537696 94.840674 
L 383.545116 97.100131 
L 382.893543 99.171931 
L 382.23467 100.092361 
L 380.243574 101.125763 
L 378.91395 102.518818 
L 377.582222 104.296419 
L 376.240472 105.848529 
L 375.581352 106.621027 
L 374.244304 107.791314 
L 373.583822 108.556623 
L 372.237618 109.382203 
L 368.928776 113.254304 
L 366.963417 114.80142 
L 360.276691 121.590839 
L 358.942953 122.885241 
L 357.615432 124.470039 
L 356.284075 125.680279 
L 354.969794 126.619021 
L 349.630015 131.776425 
L 348.295936 133.083066 
L 347.634713 133.593827 
L 344.974227 136.077414 
L 342.284664 138.378858 
L 339.607598 140.866834 
L 336.971116 143.070069 
L 334.958244 144.92576 
L 334.284646 145.270884 
L 332.958239 146.366107 
L 332.286746 146.970244 
L 330.961576 148.596811 
L 328.296388 150.284593 
L 327.626874 150.867088 
L 326.307767 152.224446 
L 323.6552 154.284064 
L 322.301324 155.578144 
L 320.337945 156.979825 
L 316.984312 159.965698 
L 315.644542 160.728662 
L 314.329023 162.122776 
L 312.994202 163.226475 
L 310.985041 164.292491 
L 309.008268 166.548495 
L 308.336279 167.032092 
L 307.012099 167.65961 
L 306.33182 168.1199 
L 304.323031 170.155909 
L 303.0038 170.858263 
L 302.324759 171.290178 
L 300.988082 172.601056 
L 300.336509 173.182189 
L 297.683076 174.973713 
L 297.016284 175.712691 
L 296.358277 176.225722 
L 294.350555 177.382058 
L 293.685124 177.89524 
L 292.348324 179.246299 
L 289.691302 180.677793 
L 287.714807 182.610666 
L 285.737074 183.803426 
L 285.058033 184.171477 
L 283.065576 185.864556 
L 281.734467 186.633877 
L 277.779544 189.543486 
L 276.471696 190.361083 
L 273.117074 192.663822 
L 271.788439 193.365797 
L 271.136372 193.822153 
L 269.123375 195.659684 
L 267.12399 196.848282 
L 266.462271 197.319696 
L 265.132028 198.419612 
L 263.12559 199.496316 
L 262.445063 199.908406 
L 260.458871 201.460756 
L 258.466043 202.645798 
L 257.790713 203.10503 
L 255.803454 204.778511 
L 253.122923 206.048321 
L 252.449697 206.661537 
L 251.789958 207.427452 
L 250.440165 208.397218 
L 249.771765 208.541272 
L 248.438181 209.139279 
L 247.087275 210.194625 
L 243.696724 212.120891 
L 241.7133 213.439564 
L 240.401245 214.188529 
L 239.750663 214.69354 
L 237.780601 215.868442 
L 235.162184 217.609269 
L 233.838747 218.387442 
L 229.859649 220.994179 
L 229.202431 221.320352 
L 227.874539 222.268628 
L 226.522643 222.941396 
L 225.164065 223.857437 
L 223.200933 224.882327 
L 222.55134 225.184622 
L 219.908919 226.993134 
L 217.913121 227.961613 
L 215.911137 229.379865 
L 213.238696 230.765433 
L 211.92528 231.807841 
L 208.590703 233.364112 
L 205.921555 234.948305 
L 199.256607 238.685716 
L 198.595878 239.031104 
L 197.287783 239.556621 
L 189.308429 244.200374 
L 188.647947 244.356024 
L 187.987218 244.640055 
L 184.626409 246.628695 
L 183.269564 247.226702 
L 181.940929 248.16847 
L 180.599388 248.661599 
L 179.27892 249.167063 
L 177.96303 250.045043 
L 177.30725 250.599844 
L 174.657405 251.950411 
L 173.984798 252.301701 
L 173.320357 252.81216 
L 171.977246 253.391741 
L 170.6449 253.83705 
L 169.97056 254.175287 
L 167.986765 255.6372 
L 167.322571 255.932155 
L 166.646747 256.060217 
L 165.313906 256.586453 
L 163.963301 257.472773 
L 163.294406 257.964693 
L 162.614127 258.311519 
L 161.297371 258.793488 
L 157.946584 260.630944 
L 157.273482 260.739928 
L 155.944105 261.455675 
L 154.618193 262.283865 
L 151.951273 263.427365 
L 151.294751 263.940851 
L 150.624742 264.322711 
L 147.95343 265.101475 
L 145.936722 266.442431 
L 143.976064 267.203163 
L 143.295785 267.382169 
L 141.292812 268.68514 
L 139.292312 269.309707 
L 137.960461 270.064423 
L 136.61537 270.853644 
L 135.286736 271.236374 
L 133.956617 271.964455 
L 132.642088 272.641385 
L 131.310866 272.934707 
L 130.634547 273.233181 
L 129.303438 274.045556 
L 127.984702 274.669745 
L 125.983461 275.387081 
L 124.635029 276.135138 
L 123.307632 276.946227 
L 116.669904 279.481079 
L 116.002989 279.712095 
L 114.667669 280.416121 
L 112.656529 281.210989 
L 111.347691 281.763576 
L 110.014355 282.475124 
L 106.667899 283.697173 
L 105.323674 284.587108 
L 103.331094 285.083694 
L 101.333317 285.933722 
L 100.666277 286.21903 
L 99.994412 286.315822 
L 97.967802 287.063958 
L 95.985367 288.318237 
L 93.997241 288.925116 
L 92.007383 289.685373 
L 90.030144 290.310204 
L 88.700273 291.093977 
L 84.699027 292.342141 
L 83.374228 292.908708 
L 82.060261 293.195479 
L 80.032541 294.025523 
L 76.072869 295.11249 
L 74.760691 295.000145 
L 74.111778 295.198115 
L 73.972456 295.488 
L 73.833143 294.028653 
L 73.833143 294.028653 
" clip-path="url(#pddea4bc4a8)" style="fill: none; stroke: #000000; stroke-width: 1.5; stroke-linecap: square"/>
   </g>
   <g id="patch_3">
    <path d="M 57.6 307.584 
L 57.6 41.472 
" style="fill: none; stroke: #000000; stroke-width: 0.8; stroke-linejoin: miter; stroke-linecap: square"/>
   </g>
   <g id="patch_4">
    <path d="M 414.72 307.584 
L 414.72 41.472 
" style="fill: none; stroke: #000000; stroke-width: 0.8; stroke-linejoin: miter; stroke-linecap: square"/>
   </g>
   <g id="patch_5">
    <path d="M 57.6 307.584 
L 414.72 307.584 
" style="fill: none; stroke: #000000; stroke-width: 0.8; stroke-linejoin: miter; stroke-linecap: square"/>
   </g>
   <g id="patch_6">
    <path d="M 57.6 41.472 
L 414.72 41.472 
" style="fill: none; stroke: #000000; stroke-width: 0.8; stroke-linejoin: miter; stroke-linecap: square"/>
   </g>
   <g id="text_18">
    <!-- 2025-07-02 trial 21 -->
    <g transform="translate(178.0125 35.472) scale(0.12 -0.12)">
     <defs>
      <path id="DejaVuSans-2d" d="M 313 2009 
L 1997 2009 
L 1997 1497 
L 313 1497 
L 313 2009 
z
" transform="scale(0.015625)"/>
      <path id="DejaVuSans-6c" d="M 603 4863 
L 1178 4863 
L 1178 0 
L 603 0 
L 603 4863 
z
" transform="scale(0.015625)"/>
     </defs>
     <use xlink:href="#DejaVuSans-32"/>
     <use xlink:href="#DejaVuSans-30" transform="translate(63.623047 0)"/>
     <use xlink:href="#DejaVuSans-32" transform="translate(127.246094 0)"/>
     <use xlink:href="#DejaVuSans-35" transform="translate(190.869141 0)"/>
     <use xlink:href="#DejaVuSans-2d" transform="translate(254.492188 0)"/>
     <use xlink:href="#DejaVuSans-30" transform="translate(290.576172 0)"/>
     <use xlink:href="#DejaVuSans-37" transform="translate(354.199219 0)"/>
     <use xlink:href="#DejaVuSans-2d" transform="translate(417.822266 0)"/>
     <use xlink:href="#DejaVuSans-30" transform="translate(453.90625 0)"/>
     <use xlink:href="#DejaVuSans-32" transform="translate(517.529297 0)"/>
     <use xlink:href="#DejaVuSans-20" transform="translate(581.152344 0)"/>
     <use xlink:href="#DejaVuSans-74" transform="translate(612.939453 0)"/>
     <use xlink:href="#DejaVuSans-72" transform="translate(652.148438 0)"/>
     <use xlink:href="#DejaVuSans-69" transform="translate(693.261719 0)"/>
     <use xlink:href="#DejaVuSans-61" transform="translate(721.044922 0)"/>
     <use xlink:href="#DejaVuSans-6c" transform="translate(782.324219 0)"/>
     <use xlink:href="#DejaVuSans-20" transform="translate(810.107422 0)"/>
     <use xlink:href="#DejaVuSans-32" transform="translate(841.894531 0)"/>
     <use xlink:href="#DejaVuSans-31" transform="translate(905.517578 0)"/>
    </g>
   </g>
  </g>
 </g>
 <defs>
  <clipPath id="pddea4bc4a8">
   <rect x="57.6" y="41.472" width="357.12" height="266.112"/>
  </clipPath>
 </defs>
</svg>
