<?xml version="1.0" encoding="utf-8" standalone="no"?>
<!DOCTYPE svg PUBLIC "-//W3C//DTD SVG 1.1//EN"
  "http://www.w3.org/Graphics/SVG/1.1/DTD/svg11.dtd">
<svg xmlns:xlink="http://www.w3.org/1999/xlink" width="432pt" height="288pt" viewBox="0 0 432 288" xmlns="http://www.w3.org/2000/svg" version="1.1">
 <metadata>
  <rdf:RDF xmlns:dc="http://purl.org/dc/elements/1.1/" xmlns:cc="http://creativecommons.org/ns#" xmlns:rdf="http://www.w3.org/1999/02/22-rdf-syntax-ns#">
   <cc:Work>
    <dc:type rdf:resource="http://purl.org/dc/dcmitype/StillImage"/>
    <dc:date>2025-07-03T20:54:32.130155</dc:date>
    <dc:format>image/svg+xml</dc:format>
    <dc:creator>
     <cc:Agent>
      <dc:title>Matplotlib v3.9.2, https://matplotlib.org/</dc:title>
     </cc:Agent>
    </dc:creator>
   </cc:Work>
  </rdf:RDF>
 </metadata>
 <defs>
  <style type="text/css">*{stroke-linejoin: round; stroke-linecap: butt}</style>
 </defs>
 <g id="figure_1">
  <g id="patch_1">
   <path d="M 0 288 
L 432 288 
L 432 0 
L 0 0 
z
" style="fill: #ffffff"/>
  </g>
  <g id="axes_1">
   <g id="patch_2">
    <path d="M 54 256.32 
L 388.8 256.32 
L 388.8 34.56 
L 54 34.56 
z
" style="fill: #ffffff"/>
   </g>
   <g id="matplotlib.axis_1">
    <g id="xtick_1">
     <g id="line2d_1">
      <defs>
       <path id="m8abdbb8d2e" d="M 0 0 
L 0 3.5 
" style="stroke: #000000; stroke-width: 0.8"/>
      </defs>
      <g>
       <use xlink:href="#m8abdbb8d2e" x="69.358161" y="256.32" style="stroke: #000000; stroke-width: 0.8"/>
      </g>
     </g>
     <g id="text_1">
      <!-- 0.000 -->
      <g transform="translate(55.044098 270.918437) scale(0.1 -0.1)">
       <defs>
        <path id="DejaVuSans-30" d="M 2034 4250 
Q 1547 4250 1301 3770 
Q 1056 3291 1056 2328 
Q 1056 1369 1301 889 
Q 1547 409 2034 409 
Q 2525 409 2770 889 
Q 3016 1369 3016 2328 
Q 3016 3291 2770 3770 
Q 2525 4250 2034 4250 
z
M 2034 4750 
Q 2819 4750 3233 4129 
Q 3647 3509 3647 2328 
Q 3647 1150 3233 529 
Q 2819 -91 2034 -91 
Q 1250 -91 836 529 
Q 422 1150 422 2328 
Q 422 3509 836 4129 
Q 1250 4750 2034 4750 
z
" transform="scale(0.015625)"/>
        <path id="DejaVuSans-2e" d="M 684 794 
L 1344 794 
L 1344 0 
L 684 0 
L 684 794 
z
" transform="scale(0.015625)"/>
       </defs>
       <use xlink:href="#DejaVuSans-30"/>
       <use xlink:href="#DejaVuSans-2e" x="63.623047"/>
       <use xlink:href="#DejaVuSans-30" x="95.410156"/>
       <use xlink:href="#DejaVuSans-30" x="159.033203"/>
       <use xlink:href="#DejaVuSans-30" x="222.65625"/>
      </g>
     </g>
    </g>
    <g id="xtick_2">
     <g id="line2d_2">
      <g>
       <use xlink:href="#m8abdbb8d2e" x="111.927144" y="256.32" style="stroke: #000000; stroke-width: 0.8"/>
      </g>
     </g>
     <g id="text_2">
      <!-- 0.025 -->
      <g transform="translate(97.613082 270.918437) scale(0.1 -0.1)">
       <defs>
        <path id="DejaVuSans-32" d="M 1228 531 
L 3431 531 
L 3431 0 
L 469 0 
L 469 531 
Q 828 903 1448 1529 
Q 2069 2156 2228 2338 
Q 2531 2678 2651 2914 
Q 2772 3150 2772 3378 
Q 2772 3750 2511 3984 
Q 2250 4219 1831 4219 
Q 1534 4219 1204 4116 
Q 875 4013 500 3803 
L 500 4441 
Q 881 4594 1212 4672 
Q 1544 4750 1819 4750 
Q 2544 4750 2975 4387 
Q 3406 4025 3406 3419 
Q 3406 3131 3298 2873 
Q 3191 2616 2906 2266 
Q 2828 2175 2409 1742 
Q 1991 1309 1228 531 
z
" transform="scale(0.015625)"/>
        <path id="DejaVuSans-35" d="M 691 4666 
L 3169 4666 
L 3169 4134 
L 1269 4134 
L 1269 2991 
Q 1406 3038 1543 3061 
Q 1681 3084 1819 3084 
Q 2600 3084 3056 2656 
Q 3513 2228 3513 1497 
Q 3513 744 3044 326 
Q 2575 -91 1722 -91 
Q 1428 -91 1123 -41 
Q 819 9 494 109 
L 494 744 
Q 775 591 1075 516 
Q 1375 441 1709 441 
Q 2250 441 2565 725 
Q 2881 1009 2881 1497 
Q 2881 1984 2565 2268 
Q 2250 2553 1709 2553 
Q 1456 2553 1204 2497 
Q 953 2441 691 2322 
L 691 4666 
z
" transform="scale(0.015625)"/>
       </defs>
       <use xlink:href="#DejaVuSans-30"/>
       <use xlink:href="#DejaVuSans-2e" x="63.623047"/>
       <use xlink:href="#DejaVuSans-30" x="95.410156"/>
       <use xlink:href="#DejaVuSans-32" x="159.033203"/>
       <use xlink:href="#DejaVuSans-35" x="222.65625"/>
      </g>
     </g>
    </g>
    <g id="xtick_3">
     <g id="line2d_3">
      <g>
       <use xlink:href="#m8abdbb8d2e" x="154.496128" y="256.32" style="stroke: #000000; stroke-width: 0.8"/>
      </g>
     </g>
     <g id="text_3">
      <!-- 0.050 -->
      <g transform="translate(140.182066 270.918437) scale(0.1 -0.1)">
       <use xlink:href="#DejaVuSans-30"/>
       <use xlink:href="#DejaVuSans-2e" x="63.623047"/>
       <use xlink:href="#DejaVuSans-30" x="95.410156"/>
       <use xlink:href="#DejaVuSans-35" x="159.033203"/>
       <use xlink:href="#DejaVuSans-30" x="222.65625"/>
      </g>
     </g>
    </g>
    <g id="xtick_4">
     <g id="line2d_4">
      <g>
       <use xlink:href="#m8abdbb8d2e" x="197.065112" y="256.32" style="stroke: #000000; stroke-width: 0.8"/>
      </g>
     </g>
     <g id="text_4">
      <!-- 0.075 -->
      <g transform="translate(182.751049 270.918437) scale(0.1 -0.1)">
       <defs>
        <path id="DejaVuSans-37" d="M 525 4666 
L 3525 4666 
L 3525 4397 
L 1831 0 
L 1172 0 
L 2766 4134 
L 525 4134 
L 525 4666 
z
" transform="scale(0.015625)"/>
       </defs>
       <use xlink:href="#DejaVuSans-30"/>
       <use xlink:href="#DejaVuSans-2e" x="63.623047"/>
       <use xlink:href="#DejaVuSans-30" x="95.410156"/>
       <use xlink:href="#DejaVuSans-37" x="159.033203"/>
       <use xlink:href="#DejaVuSans-35" x="222.65625"/>
      </g>
     </g>
    </g>
    <g id="xtick_5">
     <g id="line2d_5">
      <g>
       <use xlink:href="#m8abdbb8d2e" x="239.634096" y="256.32" style="stroke: #000000; stroke-width: 0.8"/>
      </g>
     </g>
     <g id="text_5">
      <!-- 0.100 -->
      <g transform="translate(225.320033 270.918437) scale(0.1 -0.1)">
       <defs>
        <path id="DejaVuSans-31" d="M 794 531 
L 1825 531 
L 1825 4091 
L 703 3866 
L 703 4441 
L 1819 4666 
L 2450 4666 
L 2450 531 
L 3481 531 
L 3481 0 
L 794 0 
L 794 531 
z
" transform="scale(0.015625)"/>
       </defs>
       <use xlink:href="#DejaVuSans-30"/>
       <use xlink:href="#DejaVuSans-2e" x="63.623047"/>
       <use xlink:href="#DejaVuSans-31" x="95.410156"/>
       <use xlink:href="#DejaVuSans-30" x="159.033203"/>
       <use xlink:href="#DejaVuSans-30" x="222.65625"/>
      </g>
     </g>
    </g>
    <g id="xtick_6">
     <g id="line2d_6">
      <g>
       <use xlink:href="#m8abdbb8d2e" x="282.203079" y="256.32" style="stroke: #000000; stroke-width: 0.8"/>
      </g>
     </g>
     <g id="text_6">
      <!-- 0.125 -->
      <g transform="translate(267.889017 270.918437) scale(0.1 -0.1)">
       <use xlink:href="#DejaVuSans-30"/>
       <use xlink:href="#DejaVuSans-2e" x="63.623047"/>
       <use xlink:href="#DejaVuSans-31" x="95.410156"/>
       <use xlink:href="#DejaVuSans-32" x="159.033203"/>
       <use xlink:href="#DejaVuSans-35" x="222.65625"/>
      </g>
     </g>
    </g>
    <g id="xtick_7">
     <g id="line2d_7">
      <g>
       <use xlink:href="#m8abdbb8d2e" x="324.772063" y="256.32" style="stroke: #000000; stroke-width: 0.8"/>
      </g>
     </g>
     <g id="text_7">
      <!-- 0.150 -->
      <g transform="translate(310.458001 270.918437) scale(0.1 -0.1)">
       <use xlink:href="#DejaVuSans-30"/>
       <use xlink:href="#DejaVuSans-2e" x="63.623047"/>
       <use xlink:href="#DejaVuSans-31" x="95.410156"/>
       <use xlink:href="#DejaVuSans-35" x="159.033203"/>
       <use xlink:href="#DejaVuSans-30" x="222.65625"/>
      </g>
     </g>
    </g>
    <g id="xtick_8">
     <g id="line2d_8">
      <g>
       <use xlink:href="#m8abdbb8d2e" x="367.341047" y="256.32" style="stroke: #000000; stroke-width: 0.8"/>
      </g>
     </g>
     <g id="text_8">
      <!-- 0.175 -->
      <g transform="translate(353.026984 270.918437) scale(0.1 -0.1)">
       <use xlink:href="#DejaVuSans-30"/>
       <use xlink:href="#DejaVuSans-2e" x="63.623047"/>
       <use xlink:href="#DejaVuSans-31" x="95.410156"/>
       <use xlink:href="#DejaVuSans-37" x="159.033203"/>
       <use xlink:href="#DejaVuSans-35" x="222.65625"/>
      </g>
     </g>
    </g>
    <g id="text_9">
     <!-- Strain -->
     <g transform="translate(206.588281 284.596563) scale(0.1 -0.1)">
      <defs>
       <path id="DejaVuSans-53" d="M 3425 4513 
L 3425 3897 
Q 3066 4069 2747 4153 
Q 2428 4238 2131 4238 
Q 1616 4238 1336 4038 
Q 1056 3838 1056 3469 
Q 1056 3159 1242 3001 
Q 1428 2844 1947 2747 
L 2328 2669 
Q 3034 2534 3370 2195 
Q 3706 1856 3706 1288 
Q 3706 609 3251 259 
Q 2797 -91 1919 -91 
Q 1588 -91 1214 -16 
Q 841 59 441 206 
L 441 856 
Q 825 641 1194 531 
Q 1563 422 1919 422 
Q 2459 422 2753 634 
Q 3047 847 3047 1241 
Q 3047 1584 2836 1778 
Q 2625 1972 2144 2069 
L 1759 2144 
Q 1053 2284 737 2584 
Q 422 2884 422 3419 
Q 422 4038 858 4394 
Q 1294 4750 2059 4750 
Q 2388 4750 2728 4690 
Q 3069 4631 3425 4513 
z
" transform="scale(0.015625)"/>
       <path id="DejaVuSans-74" d="M 1172 4494 
L 1172 3500 
L 2356 3500 
L 2356 3053 
L 1172 3053 
L 1172 1153 
Q 1172 725 1289 603 
Q 1406 481 1766 481 
L 2356 481 
L 2356 0 
L 1766 0 
Q 1100 0 847 248 
Q 594 497 594 1153 
L 594 3053 
L 172 3053 
L 172 3500 
L 594 3500 
L 594 4494 
L 1172 4494 
z
" transform="scale(0.015625)"/>
       <path id="DejaVuSans-72" d="M 2631 2963 
Q 2534 3019 2420 3045 
Q 2306 3072 2169 3072 
Q 1681 3072 1420 2755 
Q 1159 2438 1159 1844 
L 1159 0 
L 581 0 
L 581 3500 
L 1159 3500 
L 1159 2956 
Q 1341 3275 1631 3429 
Q 1922 3584 2338 3584 
Q 2397 3584 2469 3576 
Q 2541 3569 2628 3553 
L 2631 2963 
z
" transform="scale(0.015625)"/>
       <path id="DejaVuSans-61" d="M 2194 1759 
Q 1497 1759 1228 1600 
Q 959 1441 959 1056 
Q 959 750 1161 570 
Q 1363 391 1709 391 
Q 2188 391 2477 730 
Q 2766 1069 2766 1631 
L 2766 1759 
L 2194 1759 
z
M 3341 1997 
L 3341 0 
L 2766 0 
L 2766 531 
Q 2569 213 2275 61 
Q 1981 -91 1556 -91 
Q 1019 -91 701 211 
Q 384 513 384 1019 
Q 384 1609 779 1909 
Q 1175 2209 1959 2209 
L 2766 2209 
L 2766 2266 
Q 2766 2663 2505 2880 
Q 2244 3097 1772 3097 
Q 1472 3097 1187 3025 
Q 903 2953 641 2809 
L 641 3341 
Q 956 3463 1253 3523 
Q 1550 3584 1831 3584 
Q 2591 3584 2966 3190 
Q 3341 2797 3341 1997 
z
" transform="scale(0.015625)"/>
       <path id="DejaVuSans-69" d="M 603 3500 
L 1178 3500 
L 1178 0 
L 603 0 
L 603 3500 
z
M 603 4863 
L 1178 4863 
L 1178 4134 
L 603 4134 
L 603 4863 
z
" transform="scale(0.015625)"/>
       <path id="DejaVuSans-6e" d="M 3513 2113 
L 3513 0 
L 2938 0 
L 2938 2094 
Q 2938 2591 2744 2837 
Q 2550 3084 2163 3084 
Q 1697 3084 1428 2787 
Q 1159 2491 1159 1978 
L 1159 0 
L 581 0 
L 581 3500 
L 1159 3500 
L 1159 2956 
Q 1366 3272 1645 3428 
Q 1925 3584 2291 3584 
Q 2894 3584 3203 3211 
Q 3513 2838 3513 2113 
z
" transform="scale(0.015625)"/>
      </defs>
      <use xlink:href="#DejaVuSans-53"/>
      <use xlink:href="#DejaVuSans-74" x="63.476562"/>
      <use xlink:href="#DejaVuSans-72" x="102.685547"/>
      <use xlink:href="#DejaVuSans-61" x="143.798828"/>
      <use xlink:href="#DejaVuSans-69" x="205.078125"/>
      <use xlink:href="#DejaVuSans-6e" x="232.861328"/>
     </g>
    </g>
   </g>
   <g id="matplotlib.axis_2">
    <g id="ytick_1">
     <g id="line2d_9">
      <defs>
       <path id="m4b03cc2428" d="M 0 0 
L -3.5 0 
" style="stroke: #000000; stroke-width: 0.8"/>
      </defs>
      <g>
       <use xlink:href="#m4b03cc2428" x="54" y="229.821099" style="stroke: #000000; stroke-width: 0.8"/>
      </g>
     </g>
     <g id="text_10">
      <!-- 0 -->
      <g transform="translate(40.6375 233.620318) scale(0.1 -0.1)">
       <use xlink:href="#DejaVuSans-30"/>
      </g>
     </g>
    </g>
    <g id="ytick_2">
     <g id="line2d_10">
      <g>
       <use xlink:href="#m4b03cc2428" x="54" y="199.771632" style="stroke: #000000; stroke-width: 0.8"/>
      </g>
     </g>
     <g id="text_11">
      <!-- 250 -->
      <g transform="translate(27.9125 203.570851) scale(0.1 -0.1)">
       <use xlink:href="#DejaVuSans-32"/>
       <use xlink:href="#DejaVuSans-35" x="63.623047"/>
       <use xlink:href="#DejaVuSans-30" x="127.246094"/>
      </g>
     </g>
    </g>
    <g id="ytick_3">
     <g id="line2d_11">
      <g>
       <use xlink:href="#m4b03cc2428" x="54" y="169.722165" style="stroke: #000000; stroke-width: 0.8"/>
      </g>
     </g>
     <g id="text_12">
      <!-- 500 -->
      <g transform="translate(27.9125 173.521384) scale(0.1 -0.1)">
       <use xlink:href="#DejaVuSans-35"/>
       <use xlink:href="#DejaVuSans-30" x="63.623047"/>
       <use xlink:href="#DejaVuSans-30" x="127.246094"/>
      </g>
     </g>
    </g>
    <g id="ytick_4">
     <g id="line2d_12">
      <g>
       <use xlink:href="#m4b03cc2428" x="54" y="139.672698" style="stroke: #000000; stroke-width: 0.8"/>
      </g>
     </g>
     <g id="text_13">
      <!-- 750 -->
      <g transform="translate(27.9125 143.471917) scale(0.1 -0.1)">
       <use xlink:href="#DejaVuSans-37"/>
       <use xlink:href="#DejaVuSans-35" x="63.623047"/>
       <use xlink:href="#DejaVuSans-30" x="127.246094"/>
      </g>
     </g>
    </g>
    <g id="ytick_5">
     <g id="line2d_13">
      <g>
       <use xlink:href="#m4b03cc2428" x="54" y="109.623231" style="stroke: #000000; stroke-width: 0.8"/>
      </g>
     </g>
     <g id="text_14">
      <!-- 1000 -->
      <g transform="translate(21.55 113.42245) scale(0.1 -0.1)">
       <use xlink:href="#DejaVuSans-31"/>
       <use xlink:href="#DejaVuSans-30" x="63.623047"/>
       <use xlink:href="#DejaVuSans-30" x="127.246094"/>
       <use xlink:href="#DejaVuSans-30" x="190.869141"/>
      </g>
     </g>
    </g>
    <g id="ytick_6">
     <g id="line2d_14">
      <g>
       <use xlink:href="#m4b03cc2428" x="54" y="79.573764" style="stroke: #000000; stroke-width: 0.8"/>
      </g>
     </g>
     <g id="text_15">
      <!-- 1250 -->
      <g transform="translate(21.55 83.372982) scale(0.1 -0.1)">
       <use xlink:href="#DejaVuSans-31"/>
       <use xlink:href="#DejaVuSans-32" x="63.623047"/>
       <use xlink:href="#DejaVuSans-35" x="127.246094"/>
       <use xlink:href="#DejaVuSans-30" x="190.869141"/>
      </g>
     </g>
    </g>
    <g id="ytick_7">
     <g id="line2d_15">
      <g>
       <use xlink:href="#m4b03cc2428" x="54" y="49.524297" style="stroke: #000000; stroke-width: 0.8"/>
      </g>
     </g>
     <g id="text_16">
      <!-- 1500 -->
      <g transform="translate(21.55 53.323515) scale(0.1 -0.1)">
       <use xlink:href="#DejaVuSans-31"/>
       <use xlink:href="#DejaVuSans-35" x="63.623047"/>
       <use xlink:href="#DejaVuSans-30" x="127.246094"/>
       <use xlink:href="#DejaVuSans-30" x="190.869141"/>
      </g>
     </g>
    </g>
    <g id="text_17">
     <!-- Stress [Pa] -->
     <g transform="translate(15.470312 172.147812) rotate(-90) scale(0.1 -0.1)">
      <defs>
       <path id="DejaVuSans-65" d="M 3597 1894 
L 3597 1613 
L 953 1613 
Q 991 1019 1311 708 
Q 1631 397 2203 397 
Q 2534 397 2845 478 
Q 3156 559 3463 722 
L 3463 178 
Q 3153 47 2828 -22 
Q 2503 -91 2169 -91 
Q 1331 -91 842 396 
Q 353 884 353 1716 
Q 353 2575 817 3079 
Q 1281 3584 2069 3584 
Q 2775 3584 3186 3129 
Q 3597 2675 3597 1894 
z
M 3022 2063 
Q 3016 2534 2758 2815 
Q 2500 3097 2075 3097 
Q 1594 3097 1305 2825 
Q 1016 2553 972 2059 
L 3022 2063 
z
" transform="scale(0.015625)"/>
       <path id="DejaVuSans-73" d="M 2834 3397 
L 2834 2853 
Q 2591 2978 2328 3040 
Q 2066 3103 1784 3103 
Q 1356 3103 1142 2972 
Q 928 2841 928 2578 
Q 928 2378 1081 2264 
Q 1234 2150 1697 2047 
L 1894 2003 
Q 2506 1872 2764 1633 
Q 3022 1394 3022 966 
Q 3022 478 2636 193 
Q 2250 -91 1575 -91 
Q 1294 -91 989 -36 
Q 684 19 347 128 
L 347 722 
Q 666 556 975 473 
Q 1284 391 1588 391 
Q 1994 391 2212 530 
Q 2431 669 2431 922 
Q 2431 1156 2273 1281 
Q 2116 1406 1581 1522 
L 1381 1569 
Q 847 1681 609 1914 
Q 372 2147 372 2553 
Q 372 3047 722 3315 
Q 1072 3584 1716 3584 
Q 2034 3584 2315 3537 
Q 2597 3491 2834 3397 
z
" transform="scale(0.015625)"/>
       <path id="DejaVuSans-20" transform="scale(0.015625)"/>
       <path id="DejaVuSans-5b" d="M 550 4863 
L 1875 4863 
L 1875 4416 
L 1125 4416 
L 1125 -397 
L 1875 -397 
L 1875 -844 
L 550 -844 
L 550 4863 
z
" transform="scale(0.015625)"/>
       <path id="DejaVuSans-50" d="M 1259 4147 
L 1259 2394 
L 2053 2394 
Q 2494 2394 2734 2622 
Q 2975 2850 2975 3272 
Q 2975 3691 2734 3919 
Q 2494 4147 2053 4147 
L 1259 4147 
z
M 628 4666 
L 2053 4666 
Q 2838 4666 3239 4311 
Q 3641 3956 3641 3272 
Q 3641 2581 3239 2228 
Q 2838 1875 2053 1875 
L 1259 1875 
L 1259 0 
L 628 0 
L 628 4666 
z
" transform="scale(0.015625)"/>
       <path id="DejaVuSans-5d" d="M 1947 4863 
L 1947 -844 
L 622 -844 
L 622 -397 
L 1369 -397 
L 1369 4416 
L 622 4416 
L 622 4863 
L 1947 4863 
z
" transform="scale(0.015625)"/>
      </defs>
      <use xlink:href="#DejaVuSans-53"/>
      <use xlink:href="#DejaVuSans-74" x="63.476562"/>
      <use xlink:href="#DejaVuSans-72" x="102.685547"/>
      <use xlink:href="#DejaVuSans-65" x="141.548828"/>
      <use xlink:href="#DejaVuSans-73" x="203.072266"/>
      <use xlink:href="#DejaVuSans-73" x="255.171875"/>
      <use xlink:href="#DejaVuSans-20" x="307.271484"/>
      <use xlink:href="#DejaVuSans-5b" x="339.058594"/>
      <use xlink:href="#DejaVuSans-50" x="378.072266"/>
      <use xlink:href="#DejaVuSans-61" x="433.875"/>
      <use xlink:href="#DejaVuSans-5d" x="495.154297"/>
     </g>
    </g>
   </g>
   <g id="line2d_16">
    <path d="M 69.358161 229.999913 
L 69.358161 229.909358 
L 69.356814 230.133681 
L 69.356465 230.02457 
L 69.979054 229.053541 
L 70.610278 227.074841 
L 71.228512 226.979441 
L 71.838626 227.536892 
L 72.463123 227.349386 
L 73.0853 226.000353 
L 73.714437 225.131996 
L 74.331974 225.279467 
L 75.710879 226.713638 
L 78.284957 228.983733 
L 78.957707 229.399541 
L 79.593803 228.976036 
L 80.959252 227.195738 
L 81.622258 227.009515 
L 82.270417 227.808697 
L 82.87914 228.26094 
L 83.505492 227.770573 
L 84.805986 225.736381 
L 85.462032 225.012454 
L 86.129214 224.51911 
L 86.749536 224.367014 
L 88.638337 224.284275 
L 89.256339 224.15226 
L 91.193393 223.132377 
L 95.176998 221.612625 
L 98.492492 220.0847 
L 101.097745 218.942722 
L 102.317045 218.64664 
L 104.259667 217.798553 
L 107.417414 216.429629 
L 108.742034 215.704435 
L 112.048713 214.412224 
L 114.030308 213.482104 
L 114.691459 213.284399 
L 116.66331 212.100827 
L 119.994116 210.671851 
L 121.217592 210.184207 
L 122.452667 209.713541 
L 126.763831 207.571406 
L 128.699957 206.663901 
L 131.332459 205.401823 
L 131.992681 205.126328 
L 133.975668 203.854451 
L 137.30137 202.332925 
L 138.62367 201.596962 
L 140.615009 200.684262 
L 143.273993 199.147343 
L 145.276466 198.588181 
L 146.606654 197.745289 
L 147.93081 196.893908 
L 149.931428 195.662195 
L 151.207332 194.762671 
L 151.817446 194.599236 
L 153.64918 193.785737 
L 154.264862 193.599878 
L 157.341878 191.964011 
L 158.566746 191.234636 
L 159.790222 190.739264 
L 168.652768 185.666213 
L 171.116886 184.732925 
L 174.339588 182.827707 
L 175.66792 181.970626 
L 176.994396 181.100241 
L 180.934388 179.14954 
L 182.777257 177.990294 
L 184.018364 177.437024 
L 187.699927 175.305848 
L 188.316537 175.131771 
L 188.928971 174.839236 
L 191.367064 173.079668 
L 196.484135 170.271759 
L 198.372473 169.264926 
L 200.206991 168.169913 
L 205.783387 164.829258 
L 207.005007 164.002583 
L 212.783693 160.822321 
L 234.458301 147.401223 
L 236.432937 146.097926 
L 238.408036 144.948309 
L 239.731264 144.093888 
L 249.932929 137.642272 
L 251.914524 136.284371 
L 253.899642 134.998019 
L 261.507742 129.989697 
L 262.742817 129.370799 
L 264.021969 128.47913 
L 265.299265 127.568203 
L 270.801427 123.808825 
L 271.411077 123.355516 
L 272.686517 122.642231 
L 274.009746 121.498189 
L 279.943395 117.518237 
L 283.004057 115.288637 
L 292.202165 108.81219 
L 292.815063 108.473538 
L 296.528176 105.61077 
L 301.68654 101.929309 
L 303.629626 100.362363 
L 304.853566 99.437501 
L 306.084465 98.527334 
L 309.173081 96.41004 
L 313.615141 92.923512 
L 316.830419 90.493783 
L 318.16571 89.496452 
L 320.108332 87.837273 
L 321.995278 86.394487 
L 323.833508 84.989202 
L 326.306442 83.139223 
L 327.543373 82.109711 
L 329.392274 80.65679 
L 330.61807 79.620437 
L 331.840154 78.816186 
L 333.834276 77.268498 
L 336.469134 75.099504 
L 337.782619 73.860441 
L 339.108631 72.867924 
L 341.76112 70.682714 
L 343.085276 69.731752 
L 347.047248 66.250245 
L 351.052659 63.082146 
L 354.381608 60.25764 
L 355.706229 59.164021 
L 357.029457 58.055453 
L 359.015692 56.392473 
L 361.568428 54.16064 
L 362.793296 53.1253 
L 365.849898 50.339816 
L 367.74102 48.907419 
L 368.400314 48.384935 
L 371.568732 46.795817 
L 372.203552 46.277767 
L 372.816798 45.538796 
L 373.31266 44.64 
L 373.581818 45.372653 
L 373.421895 54.79121 
L 373.416792 68.675365 
L 372.802473 68.754675 
L 371.55922 71.260009 
L 370.929852 71.375997 
L 370.280764 71.249145 
L 369.636085 71.432027 
L 368.397182 72.111152 
L 367.782196 72.195514 
L 367.149812 72.573694 
L 366.532506 72.487891 
L 365.278409 75.266027 
L 364.032894 76.60087 
L 363.423476 77.712226 
L 362.798515 78.115872 
L 362.14502 78.011603 
L 361.505677 78.077531 
L 360.240212 79.059786 
L 359.606435 79.529154 
L 358.367765 82.435821 
L 357.755911 82.935246 
L 357.134661 83.258062 
L 356.503669 83.390646 
L 355.261866 84.330523 
L 353.419345 86.358886 
L 351.576562 87.956302 
L 350.946962 88.32574 
L 349.697736 89.619028 
L 349.071847 89.916251 
L 348.437838 90.405415 
L 347.178753 91.82831 
L 346.552516 92.272688 
L 345.288675 93.517325 
L 342.791615 95.47569 
L 341.544593 96.725902 
L 339.044285 98.701752 
L 337.177985 100.623946 
L 334.66025 102.465975 
L 332.78873 104.342687 
L 331.556903 105.093979 
L 328.425951 107.966629 
L 327.181132 108.733568 
L 326.550372 109.179593 
L 324.666325 110.907439 
L 322.174833 112.940364 
L 320.938859 114.012849 
L 319.072095 115.308417 
L 317.826001 116.240628 
L 316.591274 117.245435 
L 314.743765 118.60511 
L 312.862154 120.375399 
L 310.994709 121.463886 
L 310.369284 121.925684 
L 309.126322 123.169688 
L 307.875472 123.944546 
L 306.640861 124.666446 
L 304.790858 126.330874 
L 302.917135 127.436339 
L 299.190451 130.263379 
L 292.95128 134.747697 
L 291.687903 135.744015 
L 288.556545 137.699094 
L 287.290616 138.739882 
L 285.410862 140.057621 
L 284.776157 140.391839 
L 283.526467 141.267545 
L 282.898723 141.610694 
L 281.636969 142.568244 
L 280.419061 143.378132 
L 279.808019 143.913159 
L 276.04735 146.390905 
L 274.808505 147.37932 
L 274.197695 147.696814 
L 273.586653 147.858396 
L 272.965868 148.143963 
L 270.459876 150.080284 
L 268.583253 150.898756 
L 267.319412 152.126227 
L 264.176397 153.826771 
L 263.560019 154.385489 
L 258.539192 157.520656 
L 257.304813 158.177182 
L 254.158665 160.265598 
L 251.648382 161.540642 
L 250.394284 162.403488 
L 249.130211 163.202418 
L 247.220067 164.405876 
L 243.502416 166.778122 
L 242.281956 167.569639 
L 241.059176 168.180429 
L 234.894008 171.800349 
L 233.670764 172.500077 
L 232.409475 173.225303 
L 231.160713 173.983817 
L 227.435943 175.942412 
L 222.991853 178.533105 
L 221.740075 179.358767 
L 220.489689 179.984633 
L 219.242319 180.397147 
L 217.988221 181.203678 
L 217.37312 181.719955 
L 216.120646 182.384652 
L 214.283446 183.230898 
L 213.062289 183.997774 
L 210.597243 185.115179 
L 208.154698 186.694889 
L 206.281207 187.641734 
L 204.400293 188.769053 
L 201.922255 189.866757 
L 200.652615 190.781611 
L 199.428211 191.293168 
L 197.5446 192.174239 
L 196.290618 192.939151 
L 193.823831 194.100939 
L 193.203046 194.697412 
L 191.330251 195.654075 
L 190.080568 196.148243 
L 188.205221 197.189725 
L 183.928181 199.142285 
L 180.808479 200.760478 
L 170.308485 205.794789 
L 169.692571 206.193873 
L 168.46724 206.698335 
L 167.21755 207.489663 
L 164.70773 208.2767 
L 164.071402 208.570724 
L 162.829716 209.320179 
L 157.85601 211.709509 
L 156.000961 212.600418 
L 154.74524 213.368434 
L 154.136981 213.635821 
L 152.289697 214.130329 
L 149.808644 215.51794 
L 147.917638 216.100446 
L 146.070013 217.255764 
L 143.588032 217.909149 
L 141.718484 219.132186 
L 139.179899 219.9925 
L 137.303668 220.983569 
L 136.05189 221.331945 
L 134.806376 221.890346 
L 134.189766 222.104838 
L 132.91711 222.804377 
L 131.685282 223.282772 
L 129.227424 224.599878 
L 127.390818 225.229323 
L 123.607994 226.844127 
L 118.645772 229.037258 
L 117.406057 229.271149 
L 116.166574 229.778208 
L 114.91874 230.344908 
L 113.056152 230.957028 
L 111.187765 232.138192 
L 110.5635 232.352236 
L 109.317753 232.618261 
L 106.192347 233.879355 
L 104.94428 234.29456 
L 103.678816 234.880201 
L 101.210057 235.641977 
L 99.962339 236.340281 
L 99.347587 236.664363 
L 96.210951 237.671561 
L 94.961261 238.219288 
L 92.48969 238.924194 
L 91.242088 239.532893 
L 90.617591 239.776145 
L 89.369293 239.981392 
L 88.741664 240.149356 
L 86.273834 241.327733 
L 84.426557 241.63496 
L 83.176171 242.335005 
L 80.034896 243.262837 
L 78.149458 244.26397 
L 76.265835 244.430584 
L 75.64157 244.657607 
L 74.386893 245.375135 
L 73.157849 245.717621 
L 71.905839 245.742487 
L 71.275195 245.706527 
L 70.038148 245.924622 
L 69.350929 246.24 
L 69.219045 244.979169 
L 69.219045 244.979169 
" clip-path="url(#p4a50a238c7)" style="fill: none; stroke: #ff0000; stroke-width: 1.5; stroke-linecap: square"/>
   </g>
   <g id="line2d_17">
    <path d="M 69.358161 229.999913 
L 69.358161 229.909358 
L 69.356814 230.133681 
L 69.356465 230.02457 
L 69.979054 229.053541 
L 70.610278 227.074841 
L 71.228512 226.979441 
L 71.838626 227.536892 
L 72.463123 229.713376 
L 73.0853 227.72291 
L 73.714437 226.270242 
L 74.331974 226.084129 
L 75.003332 226.32548 
L 75.710879 226.71576 
L 78.284957 228.983733 
L 78.957707 229.399541 
L 79.593803 228.976036 
L 80.959252 227.195738 
L 81.622258 227.009515 
L 82.270417 227.808697 
L 82.87914 228.26094 
L 83.505492 227.770573 
L 84.805986 225.736381 
L 85.462032 225.012454 
L 86.129214 224.51911 
L 86.749536 224.367014 
L 88.638337 224.284275 
L 89.256339 224.15226 
L 91.193393 223.132377 
L 95.176998 221.612625 
L 98.492492 220.0847 
L 101.097745 218.942722 
L 102.317045 218.64664 
L 104.259667 217.798553 
L 107.417414 216.429629 
L 108.742034 215.704435 
L 112.048713 214.412224 
L 114.030308 213.482104 
L 114.691459 213.284399 
L 116.66331 212.100827 
L 119.994116 210.671851 
L 121.217592 210.184207 
L 122.452667 209.713541 
L 126.763831 207.571406 
L 128.699957 206.663901 
L 131.332459 205.401823 
L 131.992681 205.126328 
L 133.975668 203.854451 
L 137.30137 202.332925 
L 138.62367 201.596962 
L 140.615009 200.684262 
L 143.273993 199.147343 
L 145.276466 198.588181 
L 146.606654 197.745289 
L 147.93081 196.893908 
L 149.931428 195.662195 
L 151.207332 194.762671 
L 151.817446 194.599236 
L 153.64918 193.785737 
L 154.264862 193.599878 
L 157.341878 191.964011 
L 158.566746 191.234636 
L 159.790222 190.739264 
L 168.652768 185.666213 
L 171.116886 184.732925 
L 174.339588 182.827707 
L 175.66792 181.970626 
L 176.994396 181.100241 
L 180.934388 179.14954 
L 182.777257 177.990294 
L 184.018364 177.437024 
L 187.699927 175.305848 
L 188.316537 175.131771 
L 188.928971 174.839236 
L 191.367064 173.079668 
L 196.484135 170.271759 
L 198.372473 169.264926 
L 200.206991 168.169913 
L 205.783387 164.829258 
L 207.005007 164.002583 
L 212.783693 160.822321 
L 234.458301 147.401223 
L 236.432937 146.097926 
L 238.408036 144.948309 
L 239.731264 144.093888 
L 249.932929 137.642272 
L 251.914524 136.284371 
L 253.899642 134.998019 
L 261.507742 129.989697 
L 262.742817 129.370799 
L 264.021969 128.47913 
L 265.299265 127.568203 
L 270.801427 123.808825 
L 271.411077 123.355516 
L 272.686517 122.642231 
L 274.009746 121.498189 
L 279.943395 117.518237 
L 283.004057 115.288637 
L 292.202165 108.81219 
L 292.815063 108.473538 
L 296.528176 105.61077 
L 301.68654 101.929309 
L 303.629626 100.362363 
L 304.853566 99.437501 
L 306.084465 98.527334 
L 309.173081 96.41004 
L 313.615141 92.923512 
L 316.830419 90.493783 
L 318.16571 89.496452 
L 320.108332 87.837273 
L 321.995278 86.394487 
L 323.833508 84.989202 
L 326.306442 83.139223 
L 327.543373 82.109711 
L 329.392274 80.65679 
L 330.61807 79.620437 
L 331.840154 78.816186 
L 333.834276 77.268498 
L 336.469134 75.099504 
L 337.782619 73.860441 
L 339.108631 72.867924 
L 341.76112 70.682714 
L 343.085276 69.731752 
L 347.047248 66.250245 
L 351.052659 63.082146 
L 354.381608 60.25764 
L 355.706229 59.164021 
L 357.029457 58.055453 
L 359.015692 56.392473 
L 361.568428 54.16064 
L 362.793296 53.1253 
L 365.849898 50.339816 
L 367.74102 48.907419 
L 368.400314 48.384935 
L 371.568732 46.795817 
L 372.203552 46.277767 
L 372.816798 45.538796 
L 373.31266 44.64 
L 373.581818 45.372653 
L 373.43622 48.461695 
L 373.422765 56.731078 
L 373.422243 56.680179 
L 373.416792 68.675365 
L 372.802473 68.754675 
L 371.55922 71.302215 
L 370.929852 71.375997 
L 370.280764 71.249145 
L 369.636085 71.432027 
L 368.397182 72.111152 
L 367.782196 72.195514 
L 367.149812 72.573694 
L 366.532506 72.487891 
L 365.278409 75.266027 
L 364.032894 76.60087 
L 363.423476 77.712226 
L 362.798515 78.115872 
L 362.14502 78.011603 
L 361.505677 78.077531 
L 360.240212 79.059786 
L 359.606435 79.529154 
L 358.367765 82.435821 
L 357.755911 82.935246 
L 357.134661 83.258062 
L 356.503669 83.390646 
L 355.261866 84.330523 
L 353.419345 86.358886 
L 351.576562 87.956302 
L 350.946962 88.32574 
L 349.697736 89.619028 
L 349.071847 89.916251 
L 348.437838 90.405415 
L 347.178753 91.82831 
L 346.552516 92.272688 
L 345.288675 93.517325 
L 342.791615 95.47569 
L 341.544593 96.725902 
L 339.044285 98.701752 
L 337.177985 100.623946 
L 334.66025 102.465975 
L 332.78873 104.342687 
L 331.556903 105.093979 
L 328.425951 107.966629 
L 327.181132 108.733568 
L 326.550372 109.179593 
L 324.666325 110.907439 
L 322.174833 112.940364 
L 320.938859 114.012849 
L 319.072095 115.308417 
L 317.826001 116.240628 
L 316.591274 117.245435 
L 314.743765 118.60511 
L 312.862154 120.375399 
L 310.994709 121.463886 
L 310.369284 121.925684 
L 309.126322 123.169688 
L 307.875472 123.944546 
L 306.640861 124.666446 
L 304.790858 126.330874 
L 302.917135 127.436339 
L 299.190451 130.263379 
L 292.95128 134.747697 
L 291.687903 135.744015 
L 288.556545 137.699094 
L 287.290616 138.739882 
L 285.410862 140.057621 
L 284.776157 140.391839 
L 283.526467 141.267545 
L 282.898723 141.610694 
L 281.636969 142.568244 
L 280.419061 143.378132 
L 279.808019 143.913159 
L 276.04735 146.390905 
L 274.808505 147.37932 
L 274.197695 147.696814 
L 273.586653 147.858396 
L 272.965868 148.143963 
L 270.459876 150.080284 
L 268.583253 150.898756 
L 267.319412 152.126227 
L 264.176397 153.826771 
L 263.560019 154.385489 
L 258.539192 157.520656 
L 257.304813 158.177182 
L 254.158665 160.265598 
L 251.648382 161.540642 
L 250.394284 162.403488 
L 249.130211 163.202418 
L 247.220067 164.405876 
L 243.502416 166.778122 
L 242.281956 167.569639 
L 241.059176 168.180429 
L 234.894008 171.800349 
L 233.670764 172.500077 
L 232.409475 173.225303 
L 231.160713 173.983817 
L 227.435943 175.942412 
L 222.991853 178.533105 
L 221.740075 179.358767 
L 220.489689 179.984633 
L 219.242319 180.397147 
L 217.988221 181.203678 
L 217.37312 181.719955 
L 216.120646 182.384652 
L 214.283446 183.230898 
L 213.062289 183.997774 
L 210.597243 185.115179 
L 208.154698 186.694889 
L 206.281207 187.641734 
L 204.400293 188.769053 
L 201.922255 189.866757 
L 200.652615 190.781611 
L 199.428211 191.293168 
L 197.5446 192.174239 
L 196.290618 192.939151 
L 193.823831 194.100939 
L 193.203046 194.697412 
L 191.330251 195.654075 
L 190.080568 196.148243 
L 188.205221 197.189725 
L 183.928181 199.142285 
L 180.808479 200.760478 
L 170.308485 205.794789 
L 169.692571 206.193873 
L 168.46724 206.698335 
L 167.21755 207.489663 
L 164.70773 208.2767 
L 164.071402 208.570724 
L 162.829716 209.320179 
L 157.85601 211.709509 
L 156.000961 212.600418 
L 154.74524 213.368434 
L 154.136981 213.635821 
L 152.289697 214.130329 
L 149.808644 215.51794 
L 147.917638 216.100446 
L 146.070013 217.255764 
L 143.588032 217.909149 
L 141.718484 219.132186 
L 139.179899 219.9925 
L 137.303668 220.983569 
L 136.05189 221.331945 
L 134.806376 221.890346 
L 134.189766 222.104838 
L 132.91711 222.804377 
L 131.685282 223.282772 
L 129.227424 224.599878 
L 127.390818 225.229323 
L 123.607994 226.844127 
L 118.645772 229.037258 
L 117.406057 229.271149 
L 116.166574 229.778208 
L 114.91874 230.344908 
L 113.056152 230.957028 
L 111.187765 232.138192 
L 110.5635 232.352236 
L 109.317753 232.618261 
L 106.192347 233.879355 
L 104.94428 234.29456 
L 103.678816 234.880201 
L 101.210057 235.641977 
L 99.962339 236.340281 
L 99.347587 236.664363 
L 96.210951 237.671561 
L 94.961261 238.219288 
L 92.48969 238.924194 
L 91.242088 239.532893 
L 90.617591 239.776145 
L 89.369293 239.981392 
L 88.741664 240.149356 
L 86.273834 241.327733 
L 84.426557 241.63496 
L 83.176171 242.335005 
L 80.034896 243.262837 
L 78.149458 244.26397 
L 76.265835 244.430584 
L 75.64157 244.657607 
L 74.386893 245.375135 
L 73.157849 245.717621 
L 71.905839 245.742487 
L 71.275195 245.706527 
L 70.038148 245.924622 
L 69.350929 246.24 
L 69.219045 244.979169 
L 69.219045 244.979169 
" clip-path="url(#p4a50a238c7)" style="fill: none; stroke: #000000; stroke-width: 1.5; stroke-linecap: square"/>
   </g>
   <g id="patch_3">
    <path d="M 54 256.32 
L 54 34.56 
" style="fill: none; stroke: #000000; stroke-width: 0.8; stroke-linejoin: miter; stroke-linecap: square"/>
   </g>
   <g id="patch_4">
    <path d="M 388.8 256.32 
L 388.8 34.56 
" style="fill: none; stroke: #000000; stroke-width: 0.8; stroke-linejoin: miter; stroke-linecap: square"/>
   </g>
   <g id="patch_5">
    <path d="M 54 256.32 
L 388.8 256.32 
" style="fill: none; stroke: #000000; stroke-width: 0.8; stroke-linejoin: miter; stroke-linecap: square"/>
   </g>
   <g id="patch_6">
    <path d="M 54 34.56 
L 388.8 34.56 
" style="fill: none; stroke: #000000; stroke-width: 0.8; stroke-linejoin: miter; stroke-linecap: square"/>
   </g>
   <g id="text_18">
    <!-- 2025-07-03 trial 16 -->
    <g transform="translate(163.2525 28.56) scale(0.12 -0.12)">
     <defs>
      <path id="DejaVuSans-2d" d="M 313 2009 
L 1997 2009 
L 1997 1497 
L 313 1497 
L 313 2009 
z
" transform="scale(0.015625)"/>
      <path id="DejaVuSans-33" d="M 2597 2516 
Q 3050 2419 3304 2112 
Q 3559 1806 3559 1356 
Q 3559 666 3084 287 
Q 2609 -91 1734 -91 
Q 1441 -91 1130 -33 
Q 819 25 488 141 
L 488 750 
Q 750 597 1062 519 
Q 1375 441 1716 441 
Q 2309 441 2620 675 
Q 2931 909 2931 1356 
Q 2931 1769 2642 2001 
Q 2353 2234 1838 2234 
L 1294 2234 
L 1294 2753 
L 1863 2753 
Q 2328 2753 2575 2939 
Q 2822 3125 2822 3475 
Q 2822 3834 2567 4026 
Q 2313 4219 1838 4219 
Q 1578 4219 1281 4162 
Q 984 4106 628 3988 
L 628 4550 
Q 988 4650 1302 4700 
Q 1616 4750 1894 4750 
Q 2613 4750 3031 4423 
Q 3450 4097 3450 3541 
Q 3450 3153 3228 2886 
Q 3006 2619 2597 2516 
z
" transform="scale(0.015625)"/>
      <path id="DejaVuSans-6c" d="M 603 4863 
L 1178 4863 
L 1178 0 
L 603 0 
L 603 4863 
z
" transform="scale(0.015625)"/>
      <path id="DejaVuSans-36" d="M 2113 2584 
Q 1688 2584 1439 2293 
Q 1191 2003 1191 1497 
Q 1191 994 1439 701 
Q 1688 409 2113 409 
Q 2538 409 2786 701 
Q 3034 994 3034 1497 
Q 3034 2003 2786 2293 
Q 2538 2584 2113 2584 
z
M 3366 4563 
L 3366 3988 
Q 3128 4100 2886 4159 
Q 2644 4219 2406 4219 
Q 1781 4219 1451 3797 
Q 1122 3375 1075 2522 
Q 1259 2794 1537 2939 
Q 1816 3084 2150 3084 
Q 2853 3084 3261 2657 
Q 3669 2231 3669 1497 
Q 3669 778 3244 343 
Q 2819 -91 2113 -91 
Q 1303 -91 875 529 
Q 447 1150 447 2328 
Q 447 3434 972 4092 
Q 1497 4750 2381 4750 
Q 2619 4750 2861 4703 
Q 3103 4656 3366 4563 
z
" transform="scale(0.015625)"/>
     </defs>
     <use xlink:href="#DejaVuSans-32"/>
     <use xlink:href="#DejaVuSans-30" x="63.623047"/>
     <use xlink:href="#DejaVuSans-32" x="127.246094"/>
     <use xlink:href="#DejaVuSans-35" x="190.869141"/>
     <use xlink:href="#DejaVuSans-2d" x="254.492188"/>
     <use xlink:href="#DejaVuSans-30" x="290.576172"/>
     <use xlink:href="#DejaVuSans-37" x="354.199219"/>
     <use xlink:href="#DejaVuSans-2d" x="417.822266"/>
     <use xlink:href="#DejaVuSans-30" x="453.90625"/>
     <use xlink:href="#DejaVuSans-33" x="517.529297"/>
     <use xlink:href="#DejaVuSans-20" x="581.152344"/>
     <use xlink:href="#DejaVuSans-74" x="612.939453"/>
     <use xlink:href="#DejaVuSans-72" x="652.148438"/>
     <use xlink:href="#DejaVuSans-69" x="693.261719"/>
     <use xlink:href="#DejaVuSans-61" x="721.044922"/>
     <use xlink:href="#DejaVuSans-6c" x="782.324219"/>
     <use xlink:href="#DejaVuSans-20" x="810.107422"/>
     <use xlink:href="#DejaVuSans-31" x="841.894531"/>
     <use xlink:href="#DejaVuSans-36" x="905.517578"/>
    </g>
   </g>
  </g>
 </g>
 <defs>
  <clipPath id="p4a50a238c7">
   <rect x="54" y="34.56" width="334.8" height="221.76"/>
  </clipPath>
 </defs>
</svg>
