<?xml version="1.0" encoding="utf-8" standalone="no"?>
<!DOCTYPE svg PUBLIC "-//W3C//DTD SVG 1.1//EN"
  "http://www.w3.org/Graphics/SVG/1.1/DTD/svg11.dtd">
<svg xmlns:xlink="http://www.w3.org/1999/xlink" width="432pt" height="288pt" viewBox="0 0 432 288" xmlns="http://www.w3.org/2000/svg" version="1.1">
 <metadata>
  <rdf:RDF xmlns:dc="http://purl.org/dc/elements/1.1/" xmlns:cc="http://creativecommons.org/ns#" xmlns:rdf="http://www.w3.org/1999/02/22-rdf-syntax-ns#">
   <cc:Work>
    <dc:type rdf:resource="http://purl.org/dc/dcmitype/StillImage"/>
    <dc:date>2025-06-20T10:54:10.021062</dc:date>
    <dc:format>image/svg+xml</dc:format>
    <dc:creator>
     <cc:Agent>
      <dc:title>Matplotlib v3.9.2, https://matplotlib.org/</dc:title>
     </cc:Agent>
    </dc:creator>
   </cc:Work>
  </rdf:RDF>
 </metadata>
 <defs>
  <style type="text/css">*{stroke-linejoin: round; stroke-linecap: butt}</style>
 </defs>
 <g id="figure_1">
  <g id="patch_1">
   <path d="M 0 288 
L 432 288 
L 432 0 
L 0 0 
z
" style="fill: #ffffff"/>
  </g>
  <g id="axes_1">
   <g id="patch_2">
    <path d="M 54 256.32 
L 388.8 256.32 
L 388.8 34.56 
L 54 34.56 
z
" style="fill: #ffffff"/>
   </g>
   <g id="matplotlib.axis_1">
    <g id="xtick_1">
     <g id="line2d_1">
      <defs>
       <path id="m4073688baf" d="M 0 0 
L 0 3.5 
" style="stroke: #000000; stroke-width: 0.8"/>
      </defs>
      <g>
       <use xlink:href="#m4073688baf" x="69.448781" y="256.32" style="stroke: #000000; stroke-width: 0.8"/>
      </g>
     </g>
     <g id="text_1">
      <!-- 0.00 -->
      <g transform="translate(58.315968 270.918437) scale(0.1 -0.1)">
       <defs>
        <path id="DejaVuSans-30" d="M 2034 4250 
Q 1547 4250 1301 3770 
Q 1056 3291 1056 2328 
Q 1056 1369 1301 889 
Q 1547 409 2034 409 
Q 2525 409 2770 889 
Q 3016 1369 3016 2328 
Q 3016 3291 2770 3770 
Q 2525 4250 2034 4250 
z
M 2034 4750 
Q 2819 4750 3233 4129 
Q 3647 3509 3647 2328 
Q 3647 1150 3233 529 
Q 2819 -91 2034 -91 
Q 1250 -91 836 529 
Q 422 1150 422 2328 
Q 422 3509 836 4129 
Q 1250 4750 2034 4750 
z
" transform="scale(0.015625)"/>
        <path id="DejaVuSans-2e" d="M 684 794 
L 1344 794 
L 1344 0 
L 684 0 
L 684 794 
z
" transform="scale(0.015625)"/>
       </defs>
       <use xlink:href="#DejaVuSans-30"/>
       <use xlink:href="#DejaVuSans-2e" x="63.623047"/>
       <use xlink:href="#DejaVuSans-30" x="95.410156"/>
       <use xlink:href="#DejaVuSans-30" x="159.033203"/>
      </g>
     </g>
    </g>
    <g id="xtick_2">
     <g id="line2d_2">
      <g>
       <use xlink:href="#m4073688baf" x="120.098257" y="256.32" style="stroke: #000000; stroke-width: 0.8"/>
      </g>
     </g>
     <g id="text_2">
      <!-- 0.02 -->
      <g transform="translate(108.965445 270.918437) scale(0.1 -0.1)">
       <defs>
        <path id="DejaVuSans-32" d="M 1228 531 
L 3431 531 
L 3431 0 
L 469 0 
L 469 531 
Q 828 903 1448 1529 
Q 2069 2156 2228 2338 
Q 2531 2678 2651 2914 
Q 2772 3150 2772 3378 
Q 2772 3750 2511 3984 
Q 2250 4219 1831 4219 
Q 1534 4219 1204 4116 
Q 875 4013 500 3803 
L 500 4441 
Q 881 4594 1212 4672 
Q 1544 4750 1819 4750 
Q 2544 4750 2975 4387 
Q 3406 4025 3406 3419 
Q 3406 3131 3298 2873 
Q 3191 2616 2906 2266 
Q 2828 2175 2409 1742 
Q 1991 1309 1228 531 
z
" transform="scale(0.015625)"/>
       </defs>
       <use xlink:href="#DejaVuSans-30"/>
       <use xlink:href="#DejaVuSans-2e" x="63.623047"/>
       <use xlink:href="#DejaVuSans-30" x="95.410156"/>
       <use xlink:href="#DejaVuSans-32" x="159.033203"/>
      </g>
     </g>
    </g>
    <g id="xtick_3">
     <g id="line2d_3">
      <g>
       <use xlink:href="#m4073688baf" x="170.747734" y="256.32" style="stroke: #000000; stroke-width: 0.8"/>
      </g>
     </g>
     <g id="text_3">
      <!-- 0.04 -->
      <g transform="translate(159.614921 270.918437) scale(0.1 -0.1)">
       <defs>
        <path id="DejaVuSans-34" d="M 2419 4116 
L 825 1625 
L 2419 1625 
L 2419 4116 
z
M 2253 4666 
L 3047 4666 
L 3047 1625 
L 3713 1625 
L 3713 1100 
L 3047 1100 
L 3047 0 
L 2419 0 
L 2419 1100 
L 313 1100 
L 313 1709 
L 2253 4666 
z
" transform="scale(0.015625)"/>
       </defs>
       <use xlink:href="#DejaVuSans-30"/>
       <use xlink:href="#DejaVuSans-2e" x="63.623047"/>
       <use xlink:href="#DejaVuSans-30" x="95.410156"/>
       <use xlink:href="#DejaVuSans-34" x="159.033203"/>
      </g>
     </g>
    </g>
    <g id="xtick_4">
     <g id="line2d_4">
      <g>
       <use xlink:href="#m4073688baf" x="221.39721" y="256.32" style="stroke: #000000; stroke-width: 0.8"/>
      </g>
     </g>
     <g id="text_4">
      <!-- 0.06 -->
      <g transform="translate(210.264398 270.918437) scale(0.1 -0.1)">
       <defs>
        <path id="DejaVuSans-36" d="M 2113 2584 
Q 1688 2584 1439 2293 
Q 1191 2003 1191 1497 
Q 1191 994 1439 701 
Q 1688 409 2113 409 
Q 2538 409 2786 701 
Q 3034 994 3034 1497 
Q 3034 2003 2786 2293 
Q 2538 2584 2113 2584 
z
M 3366 4563 
L 3366 3988 
Q 3128 4100 2886 4159 
Q 2644 4219 2406 4219 
Q 1781 4219 1451 3797 
Q 1122 3375 1075 2522 
Q 1259 2794 1537 2939 
Q 1816 3084 2150 3084 
Q 2853 3084 3261 2657 
Q 3669 2231 3669 1497 
Q 3669 778 3244 343 
Q 2819 -91 2113 -91 
Q 1303 -91 875 529 
Q 447 1150 447 2328 
Q 447 3434 972 4092 
Q 1497 4750 2381 4750 
Q 2619 4750 2861 4703 
Q 3103 4656 3366 4563 
z
" transform="scale(0.015625)"/>
       </defs>
       <use xlink:href="#DejaVuSans-30"/>
       <use xlink:href="#DejaVuSans-2e" x="63.623047"/>
       <use xlink:href="#DejaVuSans-30" x="95.410156"/>
       <use xlink:href="#DejaVuSans-36" x="159.033203"/>
      </g>
     </g>
    </g>
    <g id="xtick_5">
     <g id="line2d_5">
      <g>
       <use xlink:href="#m4073688baf" x="272.046687" y="256.32" style="stroke: #000000; stroke-width: 0.8"/>
      </g>
     </g>
     <g id="text_5">
      <!-- 0.08 -->
      <g transform="translate(260.913874 270.918437) scale(0.1 -0.1)">
       <defs>
        <path id="DejaVuSans-38" d="M 2034 2216 
Q 1584 2216 1326 1975 
Q 1069 1734 1069 1313 
Q 1069 891 1326 650 
Q 1584 409 2034 409 
Q 2484 409 2743 651 
Q 3003 894 3003 1313 
Q 3003 1734 2745 1975 
Q 2488 2216 2034 2216 
z
M 1403 2484 
Q 997 2584 770 2862 
Q 544 3141 544 3541 
Q 544 4100 942 4425 
Q 1341 4750 2034 4750 
Q 2731 4750 3128 4425 
Q 3525 4100 3525 3541 
Q 3525 3141 3298 2862 
Q 3072 2584 2669 2484 
Q 3125 2378 3379 2068 
Q 3634 1759 3634 1313 
Q 3634 634 3220 271 
Q 2806 -91 2034 -91 
Q 1263 -91 848 271 
Q 434 634 434 1313 
Q 434 1759 690 2068 
Q 947 2378 1403 2484 
z
M 1172 3481 
Q 1172 3119 1398 2916 
Q 1625 2713 2034 2713 
Q 2441 2713 2670 2916 
Q 2900 3119 2900 3481 
Q 2900 3844 2670 4047 
Q 2441 4250 2034 4250 
Q 1625 4250 1398 4047 
Q 1172 3844 1172 3481 
z
" transform="scale(0.015625)"/>
       </defs>
       <use xlink:href="#DejaVuSans-30"/>
       <use xlink:href="#DejaVuSans-2e" x="63.623047"/>
       <use xlink:href="#DejaVuSans-30" x="95.410156"/>
       <use xlink:href="#DejaVuSans-38" x="159.033203"/>
      </g>
     </g>
    </g>
    <g id="xtick_6">
     <g id="line2d_6">
      <g>
       <use xlink:href="#m4073688baf" x="322.696164" y="256.32" style="stroke: #000000; stroke-width: 0.8"/>
      </g>
     </g>
     <g id="text_6">
      <!-- 0.10 -->
      <g transform="translate(311.563351 270.918437) scale(0.1 -0.1)">
       <defs>
        <path id="DejaVuSans-31" d="M 794 531 
L 1825 531 
L 1825 4091 
L 703 3866 
L 703 4441 
L 1819 4666 
L 2450 4666 
L 2450 531 
L 3481 531 
L 3481 0 
L 794 0 
L 794 531 
z
" transform="scale(0.015625)"/>
       </defs>
       <use xlink:href="#DejaVuSans-30"/>
       <use xlink:href="#DejaVuSans-2e" x="63.623047"/>
       <use xlink:href="#DejaVuSans-31" x="95.410156"/>
       <use xlink:href="#DejaVuSans-30" x="159.033203"/>
      </g>
     </g>
    </g>
    <g id="xtick_7">
     <g id="line2d_7">
      <g>
       <use xlink:href="#m4073688baf" x="373.34564" y="256.32" style="stroke: #000000; stroke-width: 0.8"/>
      </g>
     </g>
     <g id="text_7">
      <!-- 0.12 -->
      <g transform="translate(362.212828 270.918437) scale(0.1 -0.1)">
       <use xlink:href="#DejaVuSans-30"/>
       <use xlink:href="#DejaVuSans-2e" x="63.623047"/>
       <use xlink:href="#DejaVuSans-31" x="95.410156"/>
       <use xlink:href="#DejaVuSans-32" x="159.033203"/>
      </g>
     </g>
    </g>
    <g id="text_8">
     <!-- Strain -->
     <g transform="translate(206.588281 284.596563) scale(0.1 -0.1)">
      <defs>
       <path id="DejaVuSans-53" d="M 3425 4513 
L 3425 3897 
Q 3066 4069 2747 4153 
Q 2428 4238 2131 4238 
Q 1616 4238 1336 4038 
Q 1056 3838 1056 3469 
Q 1056 3159 1242 3001 
Q 1428 2844 1947 2747 
L 2328 2669 
Q 3034 2534 3370 2195 
Q 3706 1856 3706 1288 
Q 3706 609 3251 259 
Q 2797 -91 1919 -91 
Q 1588 -91 1214 -16 
Q 841 59 441 206 
L 441 856 
Q 825 641 1194 531 
Q 1563 422 1919 422 
Q 2459 422 2753 634 
Q 3047 847 3047 1241 
Q 3047 1584 2836 1778 
Q 2625 1972 2144 2069 
L 1759 2144 
Q 1053 2284 737 2584 
Q 422 2884 422 3419 
Q 422 4038 858 4394 
Q 1294 4750 2059 4750 
Q 2388 4750 2728 4690 
Q 3069 4631 3425 4513 
z
" transform="scale(0.015625)"/>
       <path id="DejaVuSans-74" d="M 1172 4494 
L 1172 3500 
L 2356 3500 
L 2356 3053 
L 1172 3053 
L 1172 1153 
Q 1172 725 1289 603 
Q 1406 481 1766 481 
L 2356 481 
L 2356 0 
L 1766 0 
Q 1100 0 847 248 
Q 594 497 594 1153 
L 594 3053 
L 172 3053 
L 172 3500 
L 594 3500 
L 594 4494 
L 1172 4494 
z
" transform="scale(0.015625)"/>
       <path id="DejaVuSans-72" d="M 2631 2963 
Q 2534 3019 2420 3045 
Q 2306 3072 2169 3072 
Q 1681 3072 1420 2755 
Q 1159 2438 1159 1844 
L 1159 0 
L 581 0 
L 581 3500 
L 1159 3500 
L 1159 2956 
Q 1341 3275 1631 3429 
Q 1922 3584 2338 3584 
Q 2397 3584 2469 3576 
Q 2541 3569 2628 3553 
L 2631 2963 
z
" transform="scale(0.015625)"/>
       <path id="DejaVuSans-61" d="M 2194 1759 
Q 1497 1759 1228 1600 
Q 959 1441 959 1056 
Q 959 750 1161 570 
Q 1363 391 1709 391 
Q 2188 391 2477 730 
Q 2766 1069 2766 1631 
L 2766 1759 
L 2194 1759 
z
M 3341 1997 
L 3341 0 
L 2766 0 
L 2766 531 
Q 2569 213 2275 61 
Q 1981 -91 1556 -91 
Q 1019 -91 701 211 
Q 384 513 384 1019 
Q 384 1609 779 1909 
Q 1175 2209 1959 2209 
L 2766 2209 
L 2766 2266 
Q 2766 2663 2505 2880 
Q 2244 3097 1772 3097 
Q 1472 3097 1187 3025 
Q 903 2953 641 2809 
L 641 3341 
Q 956 3463 1253 3523 
Q 1550 3584 1831 3584 
Q 2591 3584 2966 3190 
Q 3341 2797 3341 1997 
z
" transform="scale(0.015625)"/>
       <path id="DejaVuSans-69" d="M 603 3500 
L 1178 3500 
L 1178 0 
L 603 0 
L 603 3500 
z
M 603 4863 
L 1178 4863 
L 1178 4134 
L 603 4134 
L 603 4863 
z
" transform="scale(0.015625)"/>
       <path id="DejaVuSans-6e" d="M 3513 2113 
L 3513 0 
L 2938 0 
L 2938 2094 
Q 2938 2591 2744 2837 
Q 2550 3084 2163 3084 
Q 1697 3084 1428 2787 
Q 1159 2491 1159 1978 
L 1159 0 
L 581 0 
L 581 3500 
L 1159 3500 
L 1159 2956 
Q 1366 3272 1645 3428 
Q 1925 3584 2291 3584 
Q 2894 3584 3203 3211 
Q 3513 2838 3513 2113 
z
" transform="scale(0.015625)"/>
      </defs>
      <use xlink:href="#DejaVuSans-53"/>
      <use xlink:href="#DejaVuSans-74" x="63.476562"/>
      <use xlink:href="#DejaVuSans-72" x="102.685547"/>
      <use xlink:href="#DejaVuSans-61" x="143.798828"/>
      <use xlink:href="#DejaVuSans-69" x="205.078125"/>
      <use xlink:href="#DejaVuSans-6e" x="232.861328"/>
     </g>
    </g>
   </g>
   <g id="matplotlib.axis_2">
    <g id="ytick_1">
     <g id="line2d_8">
      <defs>
       <path id="mec2940c750" d="M 0 0 
L -3.5 0 
" style="stroke: #000000; stroke-width: 0.8"/>
      </defs>
      <g>
       <use xlink:href="#mec2940c750" x="54" y="256.158884" style="stroke: #000000; stroke-width: 0.8"/>
      </g>
     </g>
     <g id="text_9">
      <!-- −50 -->
      <g transform="translate(25.895312 259.958103) scale(0.1 -0.1)">
       <defs>
        <path id="DejaVuSans-2212" d="M 678 2272 
L 4684 2272 
L 4684 1741 
L 678 1741 
L 678 2272 
z
" transform="scale(0.015625)"/>
        <path id="DejaVuSans-35" d="M 691 4666 
L 3169 4666 
L 3169 4134 
L 1269 4134 
L 1269 2991 
Q 1406 3038 1543 3061 
Q 1681 3084 1819 3084 
Q 2600 3084 3056 2656 
Q 3513 2228 3513 1497 
Q 3513 744 3044 326 
Q 2575 -91 1722 -91 
Q 1428 -91 1123 -41 
Q 819 9 494 109 
L 494 744 
Q 775 591 1075 516 
Q 1375 441 1709 441 
Q 2250 441 2565 725 
Q 2881 1009 2881 1497 
Q 2881 1984 2565 2268 
Q 2250 2553 1709 2553 
Q 1456 2553 1204 2497 
Q 953 2441 691 2322 
L 691 4666 
z
" transform="scale(0.015625)"/>
       </defs>
       <use xlink:href="#DejaVuSans-2212"/>
       <use xlink:href="#DejaVuSans-35" x="83.789062"/>
       <use xlink:href="#DejaVuSans-30" x="147.412109"/>
      </g>
     </g>
    </g>
    <g id="ytick_2">
     <g id="line2d_9">
      <g>
       <use xlink:href="#mec2940c750" x="54" y="220.800262" style="stroke: #000000; stroke-width: 0.8"/>
      </g>
     </g>
     <g id="text_10">
      <!-- 0 -->
      <g transform="translate(40.6375 224.599481) scale(0.1 -0.1)">
       <use xlink:href="#DejaVuSans-30"/>
      </g>
     </g>
    </g>
    <g id="ytick_3">
     <g id="line2d_10">
      <g>
       <use xlink:href="#mec2940c750" x="54" y="185.441639" style="stroke: #000000; stroke-width: 0.8"/>
      </g>
     </g>
     <g id="text_11">
      <!-- 50 -->
      <g transform="translate(34.275 189.240858) scale(0.1 -0.1)">
       <use xlink:href="#DejaVuSans-35"/>
       <use xlink:href="#DejaVuSans-30" x="63.623047"/>
      </g>
     </g>
    </g>
    <g id="ytick_4">
     <g id="line2d_11">
      <g>
       <use xlink:href="#mec2940c750" x="54" y="150.083017" style="stroke: #000000; stroke-width: 0.8"/>
      </g>
     </g>
     <g id="text_12">
      <!-- 100 -->
      <g transform="translate(27.9125 153.882236) scale(0.1 -0.1)">
       <use xlink:href="#DejaVuSans-31"/>
       <use xlink:href="#DejaVuSans-30" x="63.623047"/>
       <use xlink:href="#DejaVuSans-30" x="127.246094"/>
      </g>
     </g>
    </g>
    <g id="ytick_5">
     <g id="line2d_12">
      <g>
       <use xlink:href="#mec2940c750" x="54" y="114.724394" style="stroke: #000000; stroke-width: 0.8"/>
      </g>
     </g>
     <g id="text_13">
      <!-- 150 -->
      <g transform="translate(27.9125 118.523613) scale(0.1 -0.1)">
       <use xlink:href="#DejaVuSans-31"/>
       <use xlink:href="#DejaVuSans-35" x="63.623047"/>
       <use xlink:href="#DejaVuSans-30" x="127.246094"/>
      </g>
     </g>
    </g>
    <g id="ytick_6">
     <g id="line2d_13">
      <g>
       <use xlink:href="#mec2940c750" x="54" y="79.365772" style="stroke: #000000; stroke-width: 0.8"/>
      </g>
     </g>
     <g id="text_14">
      <!-- 200 -->
      <g transform="translate(27.9125 83.164991) scale(0.1 -0.1)">
       <use xlink:href="#DejaVuSans-32"/>
       <use xlink:href="#DejaVuSans-30" x="63.623047"/>
       <use xlink:href="#DejaVuSans-30" x="127.246094"/>
      </g>
     </g>
    </g>
    <g id="ytick_7">
     <g id="line2d_14">
      <g>
       <use xlink:href="#mec2940c750" x="54" y="44.007149" style="stroke: #000000; stroke-width: 0.8"/>
      </g>
     </g>
     <g id="text_15">
      <!-- 250 -->
      <g transform="translate(27.9125 47.806368) scale(0.1 -0.1)">
       <use xlink:href="#DejaVuSans-32"/>
       <use xlink:href="#DejaVuSans-35" x="63.623047"/>
       <use xlink:href="#DejaVuSans-30" x="127.246094"/>
      </g>
     </g>
    </g>
    <g id="text_16">
     <!-- Stress [Pa] -->
     <g transform="translate(19.815625 172.147812) rotate(-90) scale(0.1 -0.1)">
      <defs>
       <path id="DejaVuSans-65" d="M 3597 1894 
L 3597 1613 
L 953 1613 
Q 991 1019 1311 708 
Q 1631 397 2203 397 
Q 2534 397 2845 478 
Q 3156 559 3463 722 
L 3463 178 
Q 3153 47 2828 -22 
Q 2503 -91 2169 -91 
Q 1331 -91 842 396 
Q 353 884 353 1716 
Q 353 2575 817 3079 
Q 1281 3584 2069 3584 
Q 2775 3584 3186 3129 
Q 3597 2675 3597 1894 
z
M 3022 2063 
Q 3016 2534 2758 2815 
Q 2500 3097 2075 3097 
Q 1594 3097 1305 2825 
Q 1016 2553 972 2059 
L 3022 2063 
z
" transform="scale(0.015625)"/>
       <path id="DejaVuSans-73" d="M 2834 3397 
L 2834 2853 
Q 2591 2978 2328 3040 
Q 2066 3103 1784 3103 
Q 1356 3103 1142 2972 
Q 928 2841 928 2578 
Q 928 2378 1081 2264 
Q 1234 2150 1697 2047 
L 1894 2003 
Q 2506 1872 2764 1633 
Q 3022 1394 3022 966 
Q 3022 478 2636 193 
Q 2250 -91 1575 -91 
Q 1294 -91 989 -36 
Q 684 19 347 128 
L 347 722 
Q 666 556 975 473 
Q 1284 391 1588 391 
Q 1994 391 2212 530 
Q 2431 669 2431 922 
Q 2431 1156 2273 1281 
Q 2116 1406 1581 1522 
L 1381 1569 
Q 847 1681 609 1914 
Q 372 2147 372 2553 
Q 372 3047 722 3315 
Q 1072 3584 1716 3584 
Q 2034 3584 2315 3537 
Q 2597 3491 2834 3397 
z
" transform="scale(0.015625)"/>
       <path id="DejaVuSans-20" transform="scale(0.015625)"/>
       <path id="DejaVuSans-5b" d="M 550 4863 
L 1875 4863 
L 1875 4416 
L 1125 4416 
L 1125 -397 
L 1875 -397 
L 1875 -844 
L 550 -844 
L 550 4863 
z
" transform="scale(0.015625)"/>
       <path id="DejaVuSans-50" d="M 1259 4147 
L 1259 2394 
L 2053 2394 
Q 2494 2394 2734 2622 
Q 2975 2850 2975 3272 
Q 2975 3691 2734 3919 
Q 2494 4147 2053 4147 
L 1259 4147 
z
M 628 4666 
L 2053 4666 
Q 2838 4666 3239 4311 
Q 3641 3956 3641 3272 
Q 3641 2581 3239 2228 
Q 2838 1875 2053 1875 
L 1259 1875 
L 1259 0 
L 628 0 
L 628 4666 
z
" transform="scale(0.015625)"/>
       <path id="DejaVuSans-5d" d="M 1947 4863 
L 1947 -844 
L 622 -844 
L 622 -397 
L 1369 -397 
L 1369 4416 
L 622 4416 
L 622 4863 
L 1947 4863 
z
" transform="scale(0.015625)"/>
      </defs>
      <use xlink:href="#DejaVuSans-53"/>
      <use xlink:href="#DejaVuSans-74" x="63.476562"/>
      <use xlink:href="#DejaVuSans-72" x="102.685547"/>
      <use xlink:href="#DejaVuSans-65" x="141.548828"/>
      <use xlink:href="#DejaVuSans-73" x="203.072266"/>
      <use xlink:href="#DejaVuSans-73" x="255.171875"/>
      <use xlink:href="#DejaVuSans-20" x="307.271484"/>
      <use xlink:href="#DejaVuSans-5b" x="339.058594"/>
      <use xlink:href="#DejaVuSans-50" x="378.072266"/>
      <use xlink:href="#DejaVuSans-61" x="433.875"/>
      <use xlink:href="#DejaVuSans-5d" x="495.154297"/>
     </g>
    </g>
   </g>
   <g id="line2d_15">
    <path d="M 69.448781 228.084643 
L 69.445718 227.256883 
L 69.448781 228.739425 
L 69.44459 227.906715 
L 70.491016 213.594159 
L 71.532237 196.736439 
L 72.624274 196.128574 
L 73.73795 197.977139 
L 74.870948 195.105155 
L 75.973032 191.554121 
L 76.990102 187.564799 
L 78.103006 183.87065 
L 79.325654 182.650075 
L 80.376729 183.173432 
L 81.489633 184.643339 
L 82.659727 186.876525 
L 83.882375 189.768635 
L 85.151394 193.334576 
L 86.460601 197.985805 
L 88.820884 207.68779 
L 90.884393 214.986639 
L 91.923103 218.296167 
L 93.991249 223.203809 
L 95.022232 225.547313 
L 96.045484 227.536011 
L 97.059463 228.835969 
L 98.398039 229.00303 
L 99.722703 227.215587 
L 101.036548 224.878046 
L 102.342664 223.423047 
L 103.644143 224.01265 
L 104.939439 225.831399 
L 106.219278 227.861839 
L 107.485205 230.294789 
L 108.731039 233.341941 
L 109.94905 235.613887 
L 111.136147 236.142088 
L 112.293876 235.210352 
L 113.423782 233.266377 
L 114.530503 230.839389 
L 115.615584 227.947279 
L 116.685208 224.560231 
L 118.793542 216.563696 
L 119.844618 213.406228 
L 120.901876 211.268452 
L 121.962226 210.392247 
L 123.025667 210.627324 
L 125.160278 211.707393 
L 126.225264 212.437874 
L 127.288706 213.025986 
L 128.34751 213.269729 
L 129.403222 213.305606 
L 130.452752 213.123918 
L 132.537901 211.730785 
L 134.607592 210.576178 
L 137.691262 208.797679 
L 139.737768 207.950545 
L 140.759476 207.182049 
L 141.781183 206.193663 
L 142.801344 205.444547 
L 143.824597 205.240823 
L 144.846305 205.243356 
L 145.868012 205.071264 
L 146.888174 204.596451 
L 148.928497 203.212264 
L 149.950204 202.744159 
L 150.971911 202.414324 
L 153.01378 201.267171 
L 155.055649 200.21319 
L 157.100609 199.346676 
L 158.123862 198.839811 
L 160.175005 197.543579 
L 161.20135 197.425551 
L 163.255584 197.455221 
L 168.377778 196.037881 
L 170.413464 194.82737 
L 171.430534 194.441258 
L 172.446059 194.2769 
L 173.711987 193.792769 
L 177.495859 191.750403 
L 181.270456 189.088619 
L 182.528656 188.55492 
L 185.041963 188.180921 
L 187.552179 186.359935 
L 190.06394 185.066685 
L 192.578793 183.832321 
L 195.095192 182.436207 
L 197.614681 181.399743 
L 198.874426 180.877225 
L 202.652116 179.788585 
L 206.412802 178.934089 
L 207.660182 178.420143 
L 211.377589 175.869422 
L 213.844525 173.966443 
L 219.996408 169.017059 
L 223.693721 165.595723 
L 224.928735 164.892821 
L 228.646142 161.704047 
L 231.139355 159.783179 
L 236.161332 156.965981 
L 237.424168 156.608939 
L 239.952933 155.427125 
L 242.231293 154.862492 
L 243.495676 154.379853 
L 246.018257 152.951687 
L 248.537747 151.361027 
L 249.795946 150.152006 
L 254.830289 146.486182 
L 258.612615 142.604195 
L 261.144471 140.73625 
L 263.173974 139.041235 
L 265.208114 137.758421 
L 268.262416 135.159994 
L 273.363212 131.21614 
L 277.443859 128.517831 
L 278.462474 127.780642 
L 281.518322 125.135256 
L 283.557099 123.786101 
L 286.611401 121.233883 
L 288.647087 119.771429 
L 291.701389 116.952368 
L 293.741713 114.799684 
L 294.762792 113.971032 
L 298.854258 111.445654 
L 300.90231 109.93326 
L 303.973614 107.662059 
L 306.017029 106.664728 
L 307.037191 105.975989 
L 308.054261 105.041271 
L 310.08531 102.811066 
L 312.365216 100.384079 
L 314.897072 97.405504 
L 317.176978 95.203625 
L 319.209573 93.375931 
L 321.245259 91.318657 
L 323.285582 89.595317 
L 325.327451 87.837689 
L 327.367774 85.610467 
L 328.389481 84.435733 
L 331.457695 81.482502 
L 332.480948 80.677481 
L 333.505746 79.718911 
L 339.660721 75.01476 
L 340.68552 74.264899 
L 341.708773 73.254151 
L 343.750642 70.825673 
L 349.862337 64.76715 
L 350.877861 64.199909 
L 352.140698 64.079203 
L 354.638548 64.608988 
L 355.864288 64.78695 
L 358.252393 65.403759 
L 359.403939 65.8741 
L 361.605015 66.629552 
L 363.834686 67.945909 
L 365.99712 68.966719 
L 367.111569 69.218754 
L 368.244567 69.044042 
L 369.340467 68.261383 
L 370.423616 66.089319 
L 371.439914 61.461943 
L 372.479783 54.000598 
L 373.125982 45.519188 
L 373.581818 46.513747 
L 373.395489 52.098633 
L 373.348104 59.133604 
L 373.34948 58.479199 
L 373.347959 67.870403 
L 373.34692 58.333068 
L 373.337018 66.160935 
L 372.319658 68.168256 
L 371.299593 75.587696 
L 370.252189 81.32272 
L 369.210387 77.954307 
L 368.188293 76.074435 
L 367.099735 74.819946 
L 366.065275 74.670635 
L 365.02386 73.059849 
L 363.929119 72.732146 
L 362.887704 71.554431 
L 361.874498 73.255595 
L 360.800237 79.531772 
L 359.777757 83.692534 
L 358.75605 85.70173 
L 357.672901 83.601224 
L 356.598253 80.759055 
L 355.522833 80.23281 
L 354.493784 80.626166 
L 353.432902 81.54593 
L 352.395931 82.608342 
L 351.34814 92.62339 
L 350.304407 94.480527 
L 349.24425 94.779731 
L 348.207859 94.365015 
L 347.16258 93.375884 
L 346.115755 93.665409 
L 345.082841 95.115937 
L 343.009092 99.239429 
L 340.947129 101.519482 
L 339.933537 101.983207 
L 338.919172 103.260431 
L 336.864165 106.159436 
L 335.803042 107.192545 
L 332.728646 108.847193 
L 331.696892 110.066277 
L 330.656056 111.840675 
L 329.597059 114.70446 
L 328.567575 115.726226 
L 325.456082 116.840163 
L 324.442103 117.542599 
L 323.399916 119.494401 
L 322.363717 120.995615 
L 321.323269 122.160844 
L 320.26601 122.573871 
L 319.204115 122.772669 
L 318.154971 123.397777 
L 316.072141 126.218702 
L 315.025896 128.04006 
L 313.970183 129.312719 
L 312.956205 130.726722 
L 310.915882 132.084367 
L 308.884446 134.541449 
L 307.864671 135.279198 
L 306.843737 136.323954 
L 305.82087 137.56894 
L 304.796071 137.858134 
L 303.76951 138.593763 
L 302.74162 139.806884 
L 301.716821 140.74095 
L 300.699364 141.240087 
L 299.641719 142.547126 
L 298.582915 143.267825 
L 297.525271 144.571137 
L 293.412165 149.000333 
L 292.354906 149.245543 
L 291.303444 150.49966 
L 290.249277 151.336173 
L 289.187768 152.797136 
L 286.063137 155.259785 
L 285.022495 156.550799 
L 283.969874 156.709083 
L 282.955122 157.584636 
L 281.929937 158.688371 
L 279.886909 160.084066 
L 278.83081 161.16693 
L 277.771015 161.632052 
L 276.749695 161.925206 
L 275.726828 162.961565 
L 274.698938 163.797425 
L 273.671821 165.115832 
L 272.657069 165.815322 
L 271.607539 167.056581 
L 270.56226 167.776883 
L 269.515628 168.814465 
L 268.454506 169.335905 
L 267.432026 170.454257 
L 265.363107 171.726613 
L 264.337922 171.936772 
L 263.283369 172.712443 
L 261.181604 175.351027 
L 259.129688 175.995221 
L 258.106049 176.554565 
L 257.043767 176.960098 
L 256.000226 177.54128 
L 253.934786 179.883106 
L 252.889108 180.509638 
L 251.828758 181.458518 
L 250.810142 181.920706 
L 249.747088 182.007818 
L 248.700069 182.443096 
L 247.665997 183.836042 
L 246.625161 184.776537 
L 245.569062 185.343219 
L 244.54465 186.188863 
L 243.500916 185.820244 
L 242.456797 185.855927 
L 241.432384 186.395682 
L 240.372421 188.054545 
L 239.30898 189.043118 
L 238.286113 190.531613 
L 237.255132 190.821477 
L 236.21874 191.301589 
L 235.1866 191.212171 
L 234.164506 192.04123 
L 233.148209 192.376585 
L 232.133843 193.36786 
L 231.120637 193.968178 
L 230.061447 194.852209 
L 229.003416 195.540244 
L 227.945385 196.369093 
L 226.884455 197.343822 
L 223.709202 199.232825 
L 222.661991 199.674491 
L 221.612847 199.839146 
L 220.558294 200.682694 
L 219.545088 200.903824 
L 217.490467 201.803089 
L 216.45794 202.585236 
L 215.432755 202.628439 
L 214.372792 203.172241 
L 212.286677 205.068651 
L 211.231351 206.128222 
L 209.14968 207.072705 
L 208.134156 206.684055 
L 207.069169 206.531704 
L 206.032391 206.151893 
L 204.977451 207.06984 
L 203.936423 208.554283 
L 202.8867 209.808026 
L 201.861865 210.639747 
L 200.817358 210.943083 
L 199.771306 210.572322 
L 198.746508 210.353462 
L 197.700456 211.387596 
L 196.677589 212.7156 
L 195.645062 213.811881 
L 194.631856 214.121898 
L 192.566415 214.018953 
L 191.504906 214.655469 
L 190.457695 215.659508 
L 189.413961 217.392165 
L 188.35593 218.112764 
L 186.291262 217.202306 
L 185.272646 217.599179 
L 184.219639 217.779311 
L 182.120965 220.366463 
L 181.09694 220.351963 
L 180.064412 220.07995 
L 178.015202 220.583181 
L 174.889351 223.499109 
L 172.826228 223.150826 
L 171.806067 222.786144 
L 170.75731 223.293742 
L 169.718026 224.361512 
L 168.674486 225.638271 
L 167.660121 226.316901 
L 166.62798 225.874655 
L 165.598931 225.643282 
L 164.538967 225.208778 
L 163.505861 225.48682 
L 162.486472 226.557012 
L 161.451626 228.426449 
L 160.433783 228.511969 
L 159.391209 228.822983 
L 156.286672 228.675984 
L 154.230312 230.852706 
L 152.155404 232.343438 
L 151.120624 232.257542 
L 150.064912 231.547745 
L 149.014609 231.211554 
L 146.935064 231.918989 
L 144.872521 233.339409 
L 143.856997 233.290551 
L 142.822924 232.629764 
L 141.794261 232.561258 
L 140.734298 232.964397 
L 139.696167 233.928208 
L 138.66422 234.729781 
L 137.609666 234.721253 
L 136.59221 233.855204 
L 135.571662 233.681027 
L 134.554205 233.382778 
L 133.492696 233.516354 
L 132.438529 234.241012 
L 131.423391 234.498646 
L 130.401297 234.051745 
L 129.338243 233.819626 
L 128.284076 233.964721 
L 127.235705 233.893572 
L 126.180771 234.002594 
L 125.122354 234.425789 
L 124.106056 234.608631 
L 123.092464 234.46618 
L 122.035592 234.993636 
L 120.983357 235.736783 
L 119.923394 235.578225 
L 116.830836 235.593895 
L 113.7661 236.714144 
L 112.744393 236.933023 
L 110.671997 238.260375 
L 109.640049 239.583149 
L 108.614478 238.69114 
L 106.534739 237.39761 
L 105.473617 237.424671 
L 104.455967 238.094101 
L 103.419382 241.454688 
L 102.364442 241.603463 
L 100.282597 239.887615 
L 99.231521 239.487667 
L 98.178707 238.903026 
L 96.122154 243.333479 
L 92.988635 240.137693 
L 91.971178 239.894358 
L 90.925512 240.415688 
L 89.905737 244.194811 
L 88.840364 244.02152 
L 87.819816 242.805138 
L 86.797722 242.064591 
L 85.750511 241.783626 
L 84.706005 240.99586 
L 83.687582 243.819254 
L 82.628585 246.24 
L 81.586783 245.166359 
L 80.527593 243.472648 
L 78.462925 242.309515 
L 77.431364 243.675301 
L 76.373526 246.054701 
L 75.325441 245.129453 
L 74.302188 243.814214 
L 73.26116 242.143052 
L 72.228053 240.258335 
L 71.201129 240.163636 
L 70.173915 242.579861 
L 69.660212 242.217123 
L 69.483229 241.771685 
L 69.218182 238.995621 
L 69.218464 239.02348 
" clip-path="url(#pa0345b961c)" style="fill: none; stroke: #ff0000; stroke-width: 1.5; stroke-linecap: square"/>
   </g>
   <g id="line2d_16">
    <path d="M 69.448781 228.084643 
L 69.445718 227.256883 
L 69.448781 228.739425 
L 69.44459 227.906715 
L 70.491016 213.594159 
L 71.532237 196.736439 
L 72.624274 196.128574 
L 73.73795 197.977139 
L 74.870948 195.105155 
L 75.973032 191.554121 
L 76.990102 187.564799 
L 78.103006 226.721531 
L 79.325654 224.302371 
L 80.376729 222.681988 
L 81.489633 221.262767 
L 82.659727 220.210278 
L 83.882375 219.804786 
L 85.151394 220.356374 
L 86.460601 222.476261 
L 87.800723 225.088104 
L 88.820884 224.909211 
L 89.851866 224.271157 
L 90.884393 224.378492 
L 91.923103 224.080337 
L 92.958721 223.28128 
L 93.991249 223.203809 
L 95.022232 225.547313 
L 96.045484 227.536011 
L 97.059463 228.835969 
L 98.398039 229.00303 
L 99.722703 227.215587 
L 101.036548 224.878046 
L 102.342664 223.423047 
L 103.644143 224.01265 
L 104.939439 225.831399 
L 106.219278 227.861839 
L 107.485205 230.294789 
L 108.731039 233.341941 
L 109.94905 235.613887 
L 111.136147 236.142088 
L 112.293876 235.210352 
L 113.423782 233.266377 
L 114.530503 230.839389 
L 115.615584 227.947279 
L 116.685208 224.560231 
L 118.793542 216.563696 
L 119.844618 213.406228 
L 120.901876 211.268452 
L 121.962226 210.392247 
L 123.025667 210.627324 
L 125.160278 211.707393 
L 126.225264 212.437874 
L 127.288706 213.025986 
L 128.34751 213.269729 
L 129.403222 213.305606 
L 130.452752 213.123918 
L 132.537901 211.730785 
L 134.607592 210.576178 
L 137.691262 208.797679 
L 139.737768 207.950545 
L 140.759476 207.182049 
L 141.781183 206.193663 
L 142.801344 205.444547 
L 143.824597 205.240823 
L 144.846305 205.243356 
L 145.868012 205.071264 
L 146.888174 204.596451 
L 148.928497 203.212264 
L 149.950204 202.744159 
L 150.971911 202.414324 
L 153.01378 201.267171 
L 155.055649 200.21319 
L 157.100609 199.346676 
L 158.123862 198.839811 
L 160.175005 197.543579 
L 161.20135 197.425551 
L 163.255584 197.455221 
L 168.377778 196.037881 
L 170.413464 194.82737 
L 171.430534 194.441258 
L 172.446059 194.2769 
L 173.711987 193.792769 
L 177.495859 191.750403 
L 181.270456 189.088619 
L 182.528656 188.55492 
L 185.041963 188.180921 
L 187.552179 186.359935 
L 190.06394 185.066685 
L 192.578793 183.832321 
L 195.095192 182.436207 
L 197.614681 181.399743 
L 198.874426 180.877225 
L 202.652116 179.788585 
L 206.412802 178.934089 
L 207.660182 178.420143 
L 211.377589 175.869422 
L 213.844525 173.966443 
L 219.996408 169.017059 
L 223.693721 165.595723 
L 224.928735 164.892821 
L 228.646142 161.704047 
L 231.139355 159.783179 
L 236.161332 156.965981 
L 237.424168 156.608939 
L 239.952933 155.427125 
L 242.231293 154.862492 
L 243.495676 154.379853 
L 246.018257 152.951687 
L 248.537747 151.361027 
L 249.795946 150.152006 
L 254.830289 146.486182 
L 258.612615 142.604195 
L 261.144471 140.73625 
L 263.173974 139.041235 
L 265.208114 137.758421 
L 268.262416 135.159994 
L 273.363212 131.21614 
L 277.443859 128.517831 
L 278.462474 127.780642 
L 281.518322 125.135256 
L 283.557099 123.786101 
L 286.611401 121.233883 
L 288.647087 119.771429 
L 291.701389 116.952368 
L 293.741713 114.799684 
L 294.762792 113.971032 
L 298.854258 111.445654 
L 300.90231 109.93326 
L 303.973614 107.662059 
L 306.017029 106.664728 
L 307.037191 105.975989 
L 308.054261 105.041271 
L 310.08531 102.811066 
L 312.365216 100.384079 
L 314.897072 97.405504 
L 317.176978 95.203625 
L 319.209573 93.375931 
L 321.245259 91.318657 
L 323.285582 89.595317 
L 325.327451 87.837689 
L 327.367774 85.610467 
L 328.389481 84.435733 
L 331.457695 81.482502 
L 332.480948 80.677481 
L 333.505746 79.718911 
L 338.635923 75.60962 
L 340.68552 73.887864 
L 343.750642 70.430889 
L 346.809581 66.720901 
L 348.845267 63.014826 
L 349.862337 61.6612 
L 350.877861 60.659024 
L 354.638548 57.812988 
L 359.403939 52.867518 
L 362.645271 50.174054 
L 364.954546 48.660914 
L 365.99712 48.411582 
L 367.111569 48.523722 
L 369.340467 49.345409 
L 370.423616 50.209315 
L 371.439914 52.272552 
L 372.479783 53.074218 
L 373.125982 44.64 
L 373.581818 46.091064 
L 373.347959 67.870403 
L 373.337018 66.160935 
L 372.319658 68.168256 
L 371.299593 75.587696 
L 370.252189 81.32272 
L 369.210387 77.954307 
L 368.188293 76.074435 
L 367.099735 74.819946 
L 366.065275 74.670635 
L 365.02386 73.059849 
L 363.929119 72.732146 
L 362.887704 71.554431 
L 361.874498 73.255595 
L 360.800237 79.531772 
L 359.777757 83.692534 
L 358.75605 85.70173 
L 357.672901 83.601224 
L 356.598253 80.759055 
L 355.522833 80.23281 
L 354.493784 80.626166 
L 353.432902 81.54593 
L 352.395931 82.608342 
L 351.34814 92.62339 
L 350.304407 94.480527 
L 349.24425 94.779731 
L 348.207859 94.365015 
L 347.16258 93.375884 
L 346.115755 93.665409 
L 345.082841 95.115937 
L 343.009092 99.239429 
L 340.947129 101.519482 
L 339.933537 101.983207 
L 338.919172 103.260431 
L 336.864165 106.159436 
L 335.803042 107.192545 
L 332.728646 108.847193 
L 331.696892 110.066277 
L 330.656056 111.840675 
L 329.597059 114.70446 
L 328.567575 115.726226 
L 325.456082 116.840163 
L 324.442103 117.542599 
L 323.399916 119.494401 
L 322.363717 120.995615 
L 321.323269 122.160844 
L 320.26601 122.573871 
L 319.204115 122.772669 
L 318.154971 123.397777 
L 316.072141 126.218702 
L 315.025896 128.04006 
L 313.970183 129.312719 
L 312.956205 130.726722 
L 310.915882 132.084367 
L 308.884446 134.541449 
L 307.864671 135.279198 
L 306.843737 136.323954 
L 305.82087 137.56894 
L 304.796071 137.858134 
L 303.76951 138.593763 
L 302.74162 139.806884 
L 301.716821 140.74095 
L 300.699364 141.240087 
L 299.641719 142.547126 
L 298.582915 143.267825 
L 297.525271 144.571137 
L 293.412165 149.000333 
L 292.354906 149.245543 
L 291.303444 150.49966 
L 290.249277 151.336173 
L 289.187768 152.797136 
L 286.063137 155.259785 
L 285.022495 156.550799 
L 283.969874 156.709083 
L 282.955122 157.584636 
L 281.929937 158.688371 
L 279.886909 160.084066 
L 278.83081 161.16693 
L 277.771015 161.632052 
L 276.749695 161.925206 
L 275.726828 162.961565 
L 274.698938 163.797425 
L 273.671821 165.115832 
L 272.657069 165.815322 
L 271.607539 167.056581 
L 270.56226 167.776883 
L 269.515628 168.814465 
L 268.454506 169.335905 
L 267.432026 170.454257 
L 265.363107 171.726613 
L 264.337922 171.936772 
L 263.283369 172.712443 
L 261.181604 175.351027 
L 259.129688 175.995221 
L 258.106049 176.554565 
L 257.043767 176.960098 
L 256.000226 177.54128 
L 253.934786 179.883106 
L 252.889108 180.509638 
L 251.828758 181.458518 
L 250.810142 181.920706 
L 249.747088 182.007818 
L 248.700069 182.443096 
L 247.665997 183.836042 
L 246.625161 184.776537 
L 245.569062 185.343219 
L 244.54465 186.188863 
L 243.500916 185.820244 
L 242.456797 185.855927 
L 241.432384 186.395682 
L 240.372421 188.054545 
L 239.30898 189.043118 
L 238.286113 190.531613 
L 237.255132 190.821477 
L 236.21874 191.301589 
L 235.1866 191.212171 
L 234.164506 192.04123 
L 233.148209 192.376585 
L 232.133843 193.36786 
L 231.120637 193.968178 
L 230.061447 194.852209 
L 229.003416 195.540244 
L 227.945385 196.369093 
L 226.884455 197.343822 
L 223.709202 199.232825 
L 222.661991 199.674491 
L 221.612847 199.839146 
L 220.558294 200.682694 
L 219.545088 200.903824 
L 217.490467 201.803089 
L 216.45794 202.585236 
L 215.432755 202.628439 
L 214.372792 203.172241 
L 212.286677 205.068651 
L 211.231351 206.128222 
L 209.14968 207.072705 
L 208.134156 206.684055 
L 207.069169 206.531704 
L 206.032391 206.151893 
L 204.977451 207.06984 
L 203.936423 208.554283 
L 202.8867 209.808026 
L 201.861865 210.639747 
L 200.817358 210.943083 
L 199.771306 210.572322 
L 198.746508 210.353462 
L 197.700456 211.387596 
L 196.677589 212.7156 
L 195.645062 213.811881 
L 194.631856 214.121898 
L 192.566415 214.018953 
L 191.504906 214.655469 
L 190.457695 215.659508 
L 189.413961 217.392165 
L 188.35593 218.112764 
L 186.291262 217.202306 
L 185.272646 217.599179 
L 184.219639 217.779311 
L 182.120965 220.366463 
L 181.09694 220.351963 
L 180.064412 220.07995 
L 178.015202 220.583181 
L 174.889351 223.499109 
L 172.826228 223.150826 
L 171.806067 222.786144 
L 170.75731 223.293742 
L 169.718026 224.361512 
L 168.674486 225.638271 
L 167.660121 226.316901 
L 166.62798 225.874655 
L 165.598931 225.643282 
L 164.538967 225.208778 
L 163.505861 225.48682 
L 162.486472 226.557012 
L 161.451626 228.426449 
L 160.433783 228.511969 
L 159.391209 228.822983 
L 156.286672 228.675984 
L 154.230312 230.852706 
L 152.155404 232.343438 
L 151.120624 232.257542 
L 150.064912 231.547745 
L 149.014609 231.211554 
L 146.935064 231.918989 
L 144.872521 233.339409 
L 143.856997 233.290551 
L 142.822924 232.629764 
L 141.794261 232.561258 
L 140.734298 232.964397 
L 139.696167 233.928208 
L 138.66422 234.729781 
L 137.609666 234.721253 
L 136.59221 233.855204 
L 135.571662 233.681027 
L 134.554205 233.382778 
L 133.492696 233.516354 
L 132.438529 234.241012 
L 131.423391 234.498646 
L 130.401297 234.051745 
L 129.338243 233.819626 
L 128.284076 233.964721 
L 127.235705 233.893572 
L 126.180771 234.002594 
L 125.122354 234.425789 
L 124.106056 234.608631 
L 123.092464 234.46618 
L 122.035592 234.993636 
L 120.983357 235.736783 
L 119.923394 235.578225 
L 116.830836 235.593895 
L 113.7661 236.714144 
L 112.744393 236.933023 
L 110.671997 238.260375 
L 109.640049 239.583149 
L 108.614478 238.69114 
L 106.534739 237.39761 
L 105.473617 237.424671 
L 104.455967 238.094101 
L 103.419382 241.454688 
L 102.364442 241.603463 
L 100.282597 239.887615 
L 99.231521 239.487667 
L 98.178707 238.903026 
L 96.122154 243.333479 
L 92.988635 240.137693 
L 91.971178 239.894358 
L 90.925512 240.415688 
L 89.905737 244.194811 
L 88.840364 244.02152 
L 87.819816 242.805138 
L 86.797722 242.064591 
L 85.750511 241.783626 
L 84.706005 240.99586 
L 83.687582 243.819254 
L 82.628585 246.24 
L 81.586783 245.166359 
L 80.527593 243.472648 
L 78.462925 242.309515 
L 77.431364 243.675301 
L 76.373526 246.054701 
L 75.325441 245.129453 
L 74.302188 243.814214 
L 73.26116 242.143052 
L 72.228053 240.258335 
L 71.201129 240.163636 
L 70.173915 242.579861 
L 69.660212 242.217123 
L 69.483229 241.771685 
L 69.218182 238.995621 
L 69.218464 239.02348 
" clip-path="url(#pa0345b961c)" style="fill: none; stroke: #000000; stroke-width: 1.5; stroke-linecap: square"/>
   </g>
   <g id="patch_3">
    <path d="M 54 256.32 
L 54 34.56 
" style="fill: none; stroke: #000000; stroke-width: 0.8; stroke-linejoin: miter; stroke-linecap: square"/>
   </g>
   <g id="patch_4">
    <path d="M 388.8 256.32 
L 388.8 34.56 
" style="fill: none; stroke: #000000; stroke-width: 0.8; stroke-linejoin: miter; stroke-linecap: square"/>
   </g>
   <g id="patch_5">
    <path d="M 54 256.32 
L 388.8 256.32 
" style="fill: none; stroke: #000000; stroke-width: 0.8; stroke-linejoin: miter; stroke-linecap: square"/>
   </g>
   <g id="patch_6">
    <path d="M 54 34.56 
L 388.8 34.56 
" style="fill: none; stroke: #000000; stroke-width: 0.8; stroke-linejoin: miter; stroke-linecap: square"/>
   </g>
   <g id="text_17">
    <!-- 2025-06-20 trial 24 -->
    <g transform="translate(163.2525 28.56) scale(0.12 -0.12)">
     <defs>
      <path id="DejaVuSans-2d" d="M 313 2009 
L 1997 2009 
L 1997 1497 
L 313 1497 
L 313 2009 
z
" transform="scale(0.015625)"/>
      <path id="DejaVuSans-6c" d="M 603 4863 
L 1178 4863 
L 1178 0 
L 603 0 
L 603 4863 
z
" transform="scale(0.015625)"/>
     </defs>
     <use xlink:href="#DejaVuSans-32"/>
     <use xlink:href="#DejaVuSans-30" x="63.623047"/>
     <use xlink:href="#DejaVuSans-32" x="127.246094"/>
     <use xlink:href="#DejaVuSans-35" x="190.869141"/>
     <use xlink:href="#DejaVuSans-2d" x="254.492188"/>
     <use xlink:href="#DejaVuSans-30" x="290.576172"/>
     <use xlink:href="#DejaVuSans-36" x="354.199219"/>
     <use xlink:href="#DejaVuSans-2d" x="417.822266"/>
     <use xlink:href="#DejaVuSans-32" x="453.90625"/>
     <use xlink:href="#DejaVuSans-30" x="517.529297"/>
     <use xlink:href="#DejaVuSans-20" x="581.152344"/>
     <use xlink:href="#DejaVuSans-74" x="612.939453"/>
     <use xlink:href="#DejaVuSans-72" x="652.148438"/>
     <use xlink:href="#DejaVuSans-69" x="693.261719"/>
     <use xlink:href="#DejaVuSans-61" x="721.044922"/>
     <use xlink:href="#DejaVuSans-6c" x="782.324219"/>
     <use xlink:href="#DejaVuSans-20" x="810.107422"/>
     <use xlink:href="#DejaVuSans-32" x="841.894531"/>
     <use xlink:href="#DejaVuSans-34" x="905.517578"/>
    </g>
   </g>
  </g>
 </g>
 <defs>
  <clipPath id="pa0345b961c">
   <rect x="54" y="34.56" width="334.8" height="221.76"/>
  </clipPath>
 </defs>
</svg>
