<?xml version="1.0" encoding="utf-8" standalone="no"?>
<!DOCTYPE svg PUBLIC "-//W3C//DTD SVG 1.1//EN"
  "http://www.w3.org/Graphics/SVG/1.1/DTD/svg11.dtd">
<svg xmlns:xlink="http://www.w3.org/1999/xlink" width="460.8pt" height="345.6pt" viewBox="0 0 460.8 345.6" xmlns="http://www.w3.org/2000/svg" version="1.1">
 <metadata>
  <rdf:RDF xmlns:dc="http://purl.org/dc/elements/1.1/" xmlns:cc="http://creativecommons.org/ns#" xmlns:rdf="http://www.w3.org/1999/02/22-rdf-syntax-ns#">
   <cc:Work>
    <dc:type rdf:resource="http://purl.org/dc/dcmitype/StillImage"/>
    <dc:date>2025-07-16T22:12:32.857263</dc:date>
    <dc:format>image/svg+xml</dc:format>
    <dc:creator>
     <cc:Agent>
      <dc:title>Matplotlib v3.10.3, https://matplotlib.org/</dc:title>
     </cc:Agent>
    </dc:creator>
   </cc:Work>
  </rdf:RDF>
 </metadata>
 <defs>
  <style type="text/css">*{stroke-linejoin: round; stroke-linecap: butt}</style>
 </defs>
 <g id="figure_1">
  <g id="patch_1">
   <path d="M 0 345.6 
L 460.8 345.6 
L 460.8 0 
L 0 0 
z
" style="fill: #ffffff"/>
  </g>
  <g id="axes_1">
   <g id="patch_2">
    <path d="M 57.6 307.584 
L 414.72 307.584 
L 414.72 41.472 
L 57.6 41.472 
z
" style="fill: #ffffff"/>
   </g>
   <g id="matplotlib.axis_1">
    <g id="xtick_1">
     <g id="line2d_1">
      <defs>
       <path id="m982f23959a" d="M 0 0 
L 0 3.5 
" style="stroke: #000000; stroke-width: 0.8"/>
      </defs>
      <g>
       <use xlink:href="#m982f23959a" x="73.934592" y="307.584" style="stroke: #000000; stroke-width: 0.8"/>
      </g>
     </g>
     <g id="text_1">
      <!-- 0.00 -->
      <g transform="translate(62.80178 322.182437) scale(0.1 -0.1)">
       <defs>
        <path id="DejaVuSans-30" d="M 2034 4250 
Q 1547 4250 1301 3770 
Q 1056 3291 1056 2328 
Q 1056 1369 1301 889 
Q 1547 409 2034 409 
Q 2525 409 2770 889 
Q 3016 1369 3016 2328 
Q 3016 3291 2770 3770 
Q 2525 4250 2034 4250 
z
M 2034 4750 
Q 2819 4750 3233 4129 
Q 3647 3509 3647 2328 
Q 3647 1150 3233 529 
Q 2819 -91 2034 -91 
Q 1250 -91 836 529 
Q 422 1150 422 2328 
Q 422 3509 836 4129 
Q 1250 4750 2034 4750 
z
" transform="scale(0.015625)"/>
        <path id="DejaVuSans-2e" d="M 684 794 
L 1344 794 
L 1344 0 
L 684 0 
L 684 794 
z
" transform="scale(0.015625)"/>
       </defs>
       <use xlink:href="#DejaVuSans-30"/>
       <use xlink:href="#DejaVuSans-2e" transform="translate(63.623047 0)"/>
       <use xlink:href="#DejaVuSans-30" transform="translate(95.410156 0)"/>
       <use xlink:href="#DejaVuSans-30" transform="translate(159.033203 0)"/>
      </g>
     </g>
    </g>
    <g id="xtick_2">
     <g id="line2d_2">
      <g>
       <use xlink:href="#m982f23959a" x="138.814845" y="307.584" style="stroke: #000000; stroke-width: 0.8"/>
      </g>
     </g>
     <g id="text_2">
      <!-- 0.05 -->
      <g transform="translate(127.682033 322.182437) scale(0.1 -0.1)">
       <defs>
        <path id="DejaVuSans-35" d="M 691 4666 
L 3169 4666 
L 3169 4134 
L 1269 4134 
L 1269 2991 
Q 1406 3038 1543 3061 
Q 1681 3084 1819 3084 
Q 2600 3084 3056 2656 
Q 3513 2228 3513 1497 
Q 3513 744 3044 326 
Q 2575 -91 1722 -91 
Q 1428 -91 1123 -41 
Q 819 9 494 109 
L 494 744 
Q 775 591 1075 516 
Q 1375 441 1709 441 
Q 2250 441 2565 725 
Q 2881 1009 2881 1497 
Q 2881 1984 2565 2268 
Q 2250 2553 1709 2553 
Q 1456 2553 1204 2497 
Q 953 2441 691 2322 
L 691 4666 
z
" transform="scale(0.015625)"/>
       </defs>
       <use xlink:href="#DejaVuSans-30"/>
       <use xlink:href="#DejaVuSans-2e" transform="translate(63.623047 0)"/>
       <use xlink:href="#DejaVuSans-30" transform="translate(95.410156 0)"/>
       <use xlink:href="#DejaVuSans-35" transform="translate(159.033203 0)"/>
      </g>
     </g>
    </g>
    <g id="xtick_3">
     <g id="line2d_3">
      <g>
       <use xlink:href="#m982f23959a" x="203.695098" y="307.584" style="stroke: #000000; stroke-width: 0.8"/>
      </g>
     </g>
     <g id="text_3">
      <!-- 0.10 -->
      <g transform="translate(192.562286 322.182437) scale(0.1 -0.1)">
       <defs>
        <path id="DejaVuSans-31" d="M 794 531 
L 1825 531 
L 1825 4091 
L 703 3866 
L 703 4441 
L 1819 4666 
L 2450 4666 
L 2450 531 
L 3481 531 
L 3481 0 
L 794 0 
L 794 531 
z
" transform="scale(0.015625)"/>
       </defs>
       <use xlink:href="#DejaVuSans-30"/>
       <use xlink:href="#DejaVuSans-2e" transform="translate(63.623047 0)"/>
       <use xlink:href="#DejaVuSans-31" transform="translate(95.410156 0)"/>
       <use xlink:href="#DejaVuSans-30" transform="translate(159.033203 0)"/>
      </g>
     </g>
    </g>
    <g id="xtick_4">
     <g id="line2d_4">
      <g>
       <use xlink:href="#m982f23959a" x="268.575351" y="307.584" style="stroke: #000000; stroke-width: 0.8"/>
      </g>
     </g>
     <g id="text_4">
      <!-- 0.15 -->
      <g transform="translate(257.442538 322.182437) scale(0.1 -0.1)">
       <use xlink:href="#DejaVuSans-30"/>
       <use xlink:href="#DejaVuSans-2e" transform="translate(63.623047 0)"/>
       <use xlink:href="#DejaVuSans-31" transform="translate(95.410156 0)"/>
       <use xlink:href="#DejaVuSans-35" transform="translate(159.033203 0)"/>
      </g>
     </g>
    </g>
    <g id="xtick_5">
     <g id="line2d_5">
      <g>
       <use xlink:href="#m982f23959a" x="333.455604" y="307.584" style="stroke: #000000; stroke-width: 0.8"/>
      </g>
     </g>
     <g id="text_5">
      <!-- 0.20 -->
      <g transform="translate(322.322791 322.182437) scale(0.1 -0.1)">
       <defs>
        <path id="DejaVuSans-32" d="M 1228 531 
L 3431 531 
L 3431 0 
L 469 0 
L 469 531 
Q 828 903 1448 1529 
Q 2069 2156 2228 2338 
Q 2531 2678 2651 2914 
Q 2772 3150 2772 3378 
Q 2772 3750 2511 3984 
Q 2250 4219 1831 4219 
Q 1534 4219 1204 4116 
Q 875 4013 500 3803 
L 500 4441 
Q 881 4594 1212 4672 
Q 1544 4750 1819 4750 
Q 2544 4750 2975 4387 
Q 3406 4025 3406 3419 
Q 3406 3131 3298 2873 
Q 3191 2616 2906 2266 
Q 2828 2175 2409 1742 
Q 1991 1309 1228 531 
z
" transform="scale(0.015625)"/>
       </defs>
       <use xlink:href="#DejaVuSans-30"/>
       <use xlink:href="#DejaVuSans-2e" transform="translate(63.623047 0)"/>
       <use xlink:href="#DejaVuSans-32" transform="translate(95.410156 0)"/>
       <use xlink:href="#DejaVuSans-30" transform="translate(159.033203 0)"/>
      </g>
     </g>
    </g>
    <g id="xtick_6">
     <g id="line2d_6">
      <g>
       <use xlink:href="#m982f23959a" x="398.335857" y="307.584" style="stroke: #000000; stroke-width: 0.8"/>
      </g>
     </g>
     <g id="text_6">
      <!-- 0.25 -->
      <g transform="translate(387.203044 322.182437) scale(0.1 -0.1)">
       <use xlink:href="#DejaVuSans-30"/>
       <use xlink:href="#DejaVuSans-2e" transform="translate(63.623047 0)"/>
       <use xlink:href="#DejaVuSans-32" transform="translate(95.410156 0)"/>
       <use xlink:href="#DejaVuSans-35" transform="translate(159.033203 0)"/>
      </g>
     </g>
    </g>
    <g id="text_7">
     <!-- Strain -->
     <g transform="translate(221.348281 335.860562) scale(0.1 -0.1)">
      <defs>
       <path id="DejaVuSans-53" d="M 3425 4513 
L 3425 3897 
Q 3066 4069 2747 4153 
Q 2428 4238 2131 4238 
Q 1616 4238 1336 4038 
Q 1056 3838 1056 3469 
Q 1056 3159 1242 3001 
Q 1428 2844 1947 2747 
L 2328 2669 
Q 3034 2534 3370 2195 
Q 3706 1856 3706 1288 
Q 3706 609 3251 259 
Q 2797 -91 1919 -91 
Q 1588 -91 1214 -16 
Q 841 59 441 206 
L 441 856 
Q 825 641 1194 531 
Q 1563 422 1919 422 
Q 2459 422 2753 634 
Q 3047 847 3047 1241 
Q 3047 1584 2836 1778 
Q 2625 1972 2144 2069 
L 1759 2144 
Q 1053 2284 737 2584 
Q 422 2884 422 3419 
Q 422 4038 858 4394 
Q 1294 4750 2059 4750 
Q 2388 4750 2728 4690 
Q 3069 4631 3425 4513 
z
" transform="scale(0.015625)"/>
       <path id="DejaVuSans-74" d="M 1172 4494 
L 1172 3500 
L 2356 3500 
L 2356 3053 
L 1172 3053 
L 1172 1153 
Q 1172 725 1289 603 
Q 1406 481 1766 481 
L 2356 481 
L 2356 0 
L 1766 0 
Q 1100 0 847 248 
Q 594 497 594 1153 
L 594 3053 
L 172 3053 
L 172 3500 
L 594 3500 
L 594 4494 
L 1172 4494 
z
" transform="scale(0.015625)"/>
       <path id="DejaVuSans-72" d="M 2631 2963 
Q 2534 3019 2420 3045 
Q 2306 3072 2169 3072 
Q 1681 3072 1420 2755 
Q 1159 2438 1159 1844 
L 1159 0 
L 581 0 
L 581 3500 
L 1159 3500 
L 1159 2956 
Q 1341 3275 1631 3429 
Q 1922 3584 2338 3584 
Q 2397 3584 2469 3576 
Q 2541 3569 2628 3553 
L 2631 2963 
z
" transform="scale(0.015625)"/>
       <path id="DejaVuSans-61" d="M 2194 1759 
Q 1497 1759 1228 1600 
Q 959 1441 959 1056 
Q 959 750 1161 570 
Q 1363 391 1709 391 
Q 2188 391 2477 730 
Q 2766 1069 2766 1631 
L 2766 1759 
L 2194 1759 
z
M 3341 1997 
L 3341 0 
L 2766 0 
L 2766 531 
Q 2569 213 2275 61 
Q 1981 -91 1556 -91 
Q 1019 -91 701 211 
Q 384 513 384 1019 
Q 384 1609 779 1909 
Q 1175 2209 1959 2209 
L 2766 2209 
L 2766 2266 
Q 2766 2663 2505 2880 
Q 2244 3097 1772 3097 
Q 1472 3097 1187 3025 
Q 903 2953 641 2809 
L 641 3341 
Q 956 3463 1253 3523 
Q 1550 3584 1831 3584 
Q 2591 3584 2966 3190 
Q 3341 2797 3341 1997 
z
" transform="scale(0.015625)"/>
       <path id="DejaVuSans-69" d="M 603 3500 
L 1178 3500 
L 1178 0 
L 603 0 
L 603 3500 
z
M 603 4863 
L 1178 4863 
L 1178 4134 
L 603 4134 
L 603 4863 
z
" transform="scale(0.015625)"/>
       <path id="DejaVuSans-6e" d="M 3513 2113 
L 3513 0 
L 2938 0 
L 2938 2094 
Q 2938 2591 2744 2837 
Q 2550 3084 2163 3084 
Q 1697 3084 1428 2787 
Q 1159 2491 1159 1978 
L 1159 0 
L 581 0 
L 581 3500 
L 1159 3500 
L 1159 2956 
Q 1366 3272 1645 3428 
Q 1925 3584 2291 3584 
Q 2894 3584 3203 3211 
Q 3513 2838 3513 2113 
z
" transform="scale(0.015625)"/>
      </defs>
      <use xlink:href="#DejaVuSans-53"/>
      <use xlink:href="#DejaVuSans-74" transform="translate(63.476562 0)"/>
      <use xlink:href="#DejaVuSans-72" transform="translate(102.685547 0)"/>
      <use xlink:href="#DejaVuSans-61" transform="translate(143.798828 0)"/>
      <use xlink:href="#DejaVuSans-69" transform="translate(205.078125 0)"/>
      <use xlink:href="#DejaVuSans-6e" transform="translate(232.861328 0)"/>
     </g>
    </g>
   </g>
   <g id="matplotlib.axis_2">
    <g id="ytick_1">
     <g id="line2d_7">
      <defs>
       <path id="m1da5c54431" d="M 0 0 
L -3.5 0 
" style="stroke: #000000; stroke-width: 0.8"/>
      </defs>
      <g>
       <use xlink:href="#m1da5c54431" x="57.6" y="283.508425" style="stroke: #000000; stroke-width: 0.8"/>
      </g>
     </g>
     <g id="text_8">
      <!-- 0 -->
      <g transform="translate(44.2375 287.307644) scale(0.1 -0.1)">
       <use xlink:href="#DejaVuSans-30"/>
      </g>
     </g>
    </g>
    <g id="ytick_2">
     <g id="line2d_8">
      <g>
       <use xlink:href="#m1da5c54431" x="57.6" y="238.231758" style="stroke: #000000; stroke-width: 0.8"/>
      </g>
     </g>
     <g id="text_9">
      <!-- 500 -->
      <g transform="translate(31.5125 242.030977) scale(0.1 -0.1)">
       <use xlink:href="#DejaVuSans-35"/>
       <use xlink:href="#DejaVuSans-30" transform="translate(63.623047 0)"/>
       <use xlink:href="#DejaVuSans-30" transform="translate(127.246094 0)"/>
      </g>
     </g>
    </g>
    <g id="ytick_3">
     <g id="line2d_9">
      <g>
       <use xlink:href="#m1da5c54431" x="57.6" y="192.955091" style="stroke: #000000; stroke-width: 0.8"/>
      </g>
     </g>
     <g id="text_10">
      <!-- 1000 -->
      <g transform="translate(25.15 196.75431) scale(0.1 -0.1)">
       <use xlink:href="#DejaVuSans-31"/>
       <use xlink:href="#DejaVuSans-30" transform="translate(63.623047 0)"/>
       <use xlink:href="#DejaVuSans-30" transform="translate(127.246094 0)"/>
       <use xlink:href="#DejaVuSans-30" transform="translate(190.869141 0)"/>
      </g>
     </g>
    </g>
    <g id="ytick_4">
     <g id="line2d_10">
      <g>
       <use xlink:href="#m1da5c54431" x="57.6" y="147.678424" style="stroke: #000000; stroke-width: 0.8"/>
      </g>
     </g>
     <g id="text_11">
      <!-- 1500 -->
      <g transform="translate(25.15 151.477643) scale(0.1 -0.1)">
       <use xlink:href="#DejaVuSans-31"/>
       <use xlink:href="#DejaVuSans-35" transform="translate(63.623047 0)"/>
       <use xlink:href="#DejaVuSans-30" transform="translate(127.246094 0)"/>
       <use xlink:href="#DejaVuSans-30" transform="translate(190.869141 0)"/>
      </g>
     </g>
    </g>
    <g id="ytick_5">
     <g id="line2d_11">
      <g>
       <use xlink:href="#m1da5c54431" x="57.6" y="102.401758" style="stroke: #000000; stroke-width: 0.8"/>
      </g>
     </g>
     <g id="text_12">
      <!-- 2000 -->
      <g transform="translate(25.15 106.200976) scale(0.1 -0.1)">
       <use xlink:href="#DejaVuSans-32"/>
       <use xlink:href="#DejaVuSans-30" transform="translate(63.623047 0)"/>
       <use xlink:href="#DejaVuSans-30" transform="translate(127.246094 0)"/>
       <use xlink:href="#DejaVuSans-30" transform="translate(190.869141 0)"/>
      </g>
     </g>
    </g>
    <g id="ytick_6">
     <g id="line2d_12">
      <g>
       <use xlink:href="#m1da5c54431" x="57.6" y="57.125091" style="stroke: #000000; stroke-width: 0.8"/>
      </g>
     </g>
     <g id="text_13">
      <!-- 2500 -->
      <g transform="translate(25.15 60.92431) scale(0.1 -0.1)">
       <use xlink:href="#DejaVuSans-32"/>
       <use xlink:href="#DejaVuSans-35" transform="translate(63.623047 0)"/>
       <use xlink:href="#DejaVuSans-30" transform="translate(127.246094 0)"/>
       <use xlink:href="#DejaVuSans-30" transform="translate(190.869141 0)"/>
      </g>
     </g>
    </g>
    <g id="text_14">
     <!-- Stress [Pa] -->
     <g transform="translate(19.070312 201.235813) rotate(-90) scale(0.1 -0.1)">
      <defs>
       <path id="DejaVuSans-65" d="M 3597 1894 
L 3597 1613 
L 953 1613 
Q 991 1019 1311 708 
Q 1631 397 2203 397 
Q 2534 397 2845 478 
Q 3156 559 3463 722 
L 3463 178 
Q 3153 47 2828 -22 
Q 2503 -91 2169 -91 
Q 1331 -91 842 396 
Q 353 884 353 1716 
Q 353 2575 817 3079 
Q 1281 3584 2069 3584 
Q 2775 3584 3186 3129 
Q 3597 2675 3597 1894 
z
M 3022 2063 
Q 3016 2534 2758 2815 
Q 2500 3097 2075 3097 
Q 1594 3097 1305 2825 
Q 1016 2553 972 2059 
L 3022 2063 
z
" transform="scale(0.015625)"/>
       <path id="DejaVuSans-73" d="M 2834 3397 
L 2834 2853 
Q 2591 2978 2328 3040 
Q 2066 3103 1784 3103 
Q 1356 3103 1142 2972 
Q 928 2841 928 2578 
Q 928 2378 1081 2264 
Q 1234 2150 1697 2047 
L 1894 2003 
Q 2506 1872 2764 1633 
Q 3022 1394 3022 966 
Q 3022 478 2636 193 
Q 2250 -91 1575 -91 
Q 1294 -91 989 -36 
Q 684 19 347 128 
L 347 722 
Q 666 556 975 473 
Q 1284 391 1588 391 
Q 1994 391 2212 530 
Q 2431 669 2431 922 
Q 2431 1156 2273 1281 
Q 2116 1406 1581 1522 
L 1381 1569 
Q 847 1681 609 1914 
Q 372 2147 372 2553 
Q 372 3047 722 3315 
Q 1072 3584 1716 3584 
Q 2034 3584 2315 3537 
Q 2597 3491 2834 3397 
z
" transform="scale(0.015625)"/>
       <path id="DejaVuSans-20" transform="scale(0.015625)"/>
       <path id="DejaVuSans-5b" d="M 550 4863 
L 1875 4863 
L 1875 4416 
L 1125 4416 
L 1125 -397 
L 1875 -397 
L 1875 -844 
L 550 -844 
L 550 4863 
z
" transform="scale(0.015625)"/>
       <path id="DejaVuSans-50" d="M 1259 4147 
L 1259 2394 
L 2053 2394 
Q 2494 2394 2734 2622 
Q 2975 2850 2975 3272 
Q 2975 3691 2734 3919 
Q 2494 4147 2053 4147 
L 1259 4147 
z
M 628 4666 
L 2053 4666 
Q 2838 4666 3239 4311 
Q 3641 3956 3641 3272 
Q 3641 2581 3239 2228 
Q 2838 1875 2053 1875 
L 1259 1875 
L 1259 0 
L 628 0 
L 628 4666 
z
" transform="scale(0.015625)"/>
       <path id="DejaVuSans-5d" d="M 1947 4863 
L 1947 -844 
L 622 -844 
L 622 -397 
L 1369 -397 
L 1369 4416 
L 622 4416 
L 622 4863 
L 1947 4863 
z
" transform="scale(0.015625)"/>
      </defs>
      <use xlink:href="#DejaVuSans-53"/>
      <use xlink:href="#DejaVuSans-74" transform="translate(63.476562 0)"/>
      <use xlink:href="#DejaVuSans-72" transform="translate(102.685547 0)"/>
      <use xlink:href="#DejaVuSans-65" transform="translate(141.548828 0)"/>
      <use xlink:href="#DejaVuSans-73" transform="translate(203.072266 0)"/>
      <use xlink:href="#DejaVuSans-73" transform="translate(255.171875 0)"/>
      <use xlink:href="#DejaVuSans-20" transform="translate(307.271484 0)"/>
      <use xlink:href="#DejaVuSans-5b" transform="translate(339.058594 0)"/>
      <use xlink:href="#DejaVuSans-50" transform="translate(378.072266 0)"/>
      <use xlink:href="#DejaVuSans-61" transform="translate(433.875 0)"/>
      <use xlink:href="#DejaVuSans-5d" transform="translate(495.154297 0)"/>
     </g>
    </g>
   </g>
   <g id="line2d_13">
    <path d="M 73.934592 283.829688 
L 73.935181 283.781367 
L 73.934592 283.876612 
L 73.935024 283.804056 
L 74.400416 282.123132 
L 74.871194 282.687613 
L 75.341441 282.960365 
L 75.825654 282.930558 
L 76.800445 283.103503 
L 77.271045 283.940095 
L 78.214191 282.473541 
L 79.16158 281.673218 
L 79.63554 281.688638 
L 80.567903 282.082333 
L 81.501326 282.03917 
L 81.968214 282.135172 
L 82.910034 280.777606 
L 83.394601 280.621137 
L 84.350299 280.839791 
L 84.834159 280.957692 
L 85.308048 280.749586 
L 86.248808 279.955276 
L 88.616485 279.345131 
L 89.582967 278.929054 
L 91.463867 278.362278 
L 92.419653 277.86729 
L 93.820495 277.522383 
L 95.252274 276.918896 
L 95.737901 276.66768 
L 97.157412 276.381552 
L 98.566916 275.633653 
L 100.466467 275.218191 
L 101.416331 274.613105 
L 102.369554 274.285793 
L 103.311463 274.091368 
L 105.668709 273.009596 
L 107.102786 272.163029 
L 109.014326 271.576762 
L 109.976918 271.13668 
L 110.914761 270.831082 
L 111.859498 270.439988 
L 113.294459 269.748617 
L 114.712803 269.25843 
L 115.66249 268.694291 
L 119.004073 267.222999 
L 119.95323 266.821048 
L 121.838644 265.97873 
L 123.741377 265.112776 
L 125.156539 264.432 
L 126.088371 264.081227 
L 127.022854 263.615923 
L 128.93425 262.816924 
L 136.059677 259.362185 
L 138.438403 258.351546 
L 139.870889 257.546689 
L 141.765667 256.873753 
L 144.583029 255.397916 
L 145.550748 254.910134 
L 147.455957 253.709888 
L 148.404583 253.40608 
L 149.829026 252.569679 
L 150.309703 252.207744 
L 152.219419 251.567375 
L 154.603537 250.216395 
L 155.556445 249.721639 
L 156.514972 249.239346 
L 157.934376 248.557568 
L 158.886715 248.063057 
L 160.328217 247.360544 
L 162.710567 246.002166 
L 164.650071 244.863102 
L 166.05215 244.272237 
L 170.335886 241.942126 
L 170.803304 241.74374 
L 172.247282 240.813418 
L 174.605412 239.697166 
L 175.569242 239.106922 
L 179.378189 236.973974 
L 180.329025 236.309424 
L 186.940595 232.737822 
L 188.36159 231.860092 
L 190.268345 230.757459 
L 191.225104 230.140633 
L 192.157112 229.753452 
L 194.542645 228.349952 
L 195.47978 227.855942 
L 196.921989 226.840816 
L 199.754964 225.272718 
L 201.15881 224.398185 
L 204.939483 222.079479 
L 205.889877 221.403524 
L 207.781473 220.466736 
L 209.710194 219.217478 
L 212.056303 217.830586 
L 213.49417 216.829657 
L 216.849543 214.696322 
L 219.232954 213.264331 
L 220.659959 212.402826 
L 222.092269 211.373479 
L 223.967247 210.276745 
L 227.761222 207.769556 
L 231.09821 205.637652 
L 233.003506 204.304115 
L 234.418491 203.375607 
L 236.324671 202.052664 
L 237.746285 201.203568 
L 239.193356 200.384633 
L 242.04666 198.337343 
L 243.005187 197.641343 
L 245.376311 196.005859 
L 246.788467 195.089807 
L 249.156829 193.326788 
L 250.09697 192.773196 
L 257.220331 187.597536 
L 258.159588 186.951264 
L 259.094602 186.277265 
L 263.345433 183.412741 
L 264.30396 182.518593 
L 266.169391 181.289379 
L 267.119078 180.388169 
L 268.081936 179.663822 
L 269.023668 179.1968 
L 273.776988 175.380377 
L 275.171995 174.155601 
L 277.111677 172.7081 
L 278.061717 171.900714 
L 279.466095 171.059444 
L 280.432753 170.175128 
L 281.850036 168.958179 
L 283.262368 168.024648 
L 284.223723 167.176888 
L 285.179333 166.346213 
L 286.599267 165.258499 
L 287.534812 164.489483 
L 293.260337 159.730592 
L 295.63219 157.82009 
L 297.042666 156.631298 
L 301.295575 152.920892 
L 302.714272 151.612791 
L 304.580057 150.159993 
L 306.943226 148.166344 
L 308.824215 146.428255 
L 309.78115 145.628695 
L 311.671685 143.933653 
L 313.559392 142.187164 
L 314.514559 141.209596 
L 316.408188 139.611623 
L 318.766628 137.453507 
L 319.709156 136.655856 
L 322.54708 133.958048 
L 330.212993 126.727033 
L 331.611183 125.394497 
L 332.572008 124.503691 
L 334.449107 122.632548 
L 335.395789 121.77868 
L 337.298699 119.666247 
L 338.744444 118.400811 
L 347.830535 109.177018 
L 348.781636 108.239729 
L 349.722661 107.340714 
L 353.98348 102.759068 
L 355.884711 100.817104 
L 357.769412 98.892893 
L 359.185457 97.388458 
L 360.608751 95.769391 
L 362.509716 93.750115 
L 364.881172 91.214733 
L 366.782668 89.142961 
L 372.493696 82.925652 
L 373.443207 81.916873 
L 377.279168 77.513928 
L 381.538088 72.657777 
L 391.084901 61.53095 
L 392.043781 60.524557 
L 393.469815 58.657805 
L 394.411723 57.496693 
L 395.343379 56.409743 
L 396.314103 55.319452 
L 398.226228 53.568 
L 398.487273 54.067355 
L 398.331592 61.652621 
L 398.336431 73.26859 
L 398.337183 73.237951 
L 398.336144 86.736337 
L 398.336696 86.651162 
L 398.335282 86.580961 
L 398.335437 88.571007 
L 398.332498 88.553075 
L 397.863333 88.730857 
L 396.924342 90.616698 
L 396.456393 91.073579 
L 395.966876 91.168095 
L 395.478243 91.425516 
L 394.536047 92.318195 
L 394.067568 92.582583 
L 393.582471 93.220169 
L 393.097904 93.270875 
L 392.147863 95.422823 
L 390.747198 97.375286 
L 389.75632 99.576771 
L 389.271223 99.540823 
L 388.778524 99.681047 
L 387.346392 101.172501 
L 386.864123 101.216096 
L 385.925308 104.319268 
L 385.446576 104.923352 
L 383.543577 106.496843 
L 383.078457 107.094055 
L 382.133101 108.683056 
L 381.18675 109.925347 
L 380.242897 111.372418 
L 379.28331 112.074621 
L 377.841719 113.392362 
L 377.372444 114.563879 
L 376.890176 115.416984 
L 374.965079 117.177074 
L 374.027944 118.871448 
L 373.064114 119.777717 
L 372.587149 120.197207 
L 371.165712 122.210088 
L 370.206832 123.037327 
L 369.741004 123.51937 
L 368.329644 125.376577 
L 366.891059 126.746909 
L 365.963912 128.10302 
L 365.003794 129.021602 
L 363.571927 130.655081 
L 362.633642 131.729051 
L 360.722423 133.636654 
L 359.761422 134.860857 
L 358.355277 136.178693 
L 356.902792 137.819152 
L 354.984501 139.737827 
L 354.016252 140.808742 
L 350.213791 144.675777 
L 347.839749 147.192236 
L 346.894924 148.048205 
L 345.936707 149.184799 
L 344.022306 150.885473 
L 340.227358 154.732082 
L 333.058563 161.381718 
L 332.126554 162.112269 
L 328.820328 165.273472 
L 327.405608 166.543204 
L 325.035987 168.606004 
L 323.613754 169.861609 
L 322.181379 171.132485 
L 320.761621 172.210081 
L 318.858976 173.948553 
L 317.923255 174.62384 
L 315.543733 176.738277 
L 314.601471 177.407408 
L 312.218944 179.401916 
L 305.573211 184.838873 
L 303.667561 186.046898 
L 302.252577 187.453214 
L 300.826278 188.290093 
L 298.43573 190.265583 
L 297.478441 190.936957 
L 296.058329 192.179199 
L 294.151353 193.45103 
L 293.208296 194.372284 
L 289.892699 196.678236 
L 287.505753 198.62298 
L 286.53821 199.195041 
L 285.122872 200.456946 
L 283.693922 201.345271 
L 281.308743 202.964338 
L 280.352338 203.54079 
L 278.918526 204.696843 
L 277.019417 205.954166 
L 276.081177 206.871949 
L 273.718803 208.299072 
L 272.759747 209.086843 
L 271.344409 209.741109 
L 270.399406 210.605381 
L 269.915723 211.007499 
L 267.994958 212.003262 
L 266.086921 213.435348 
L 264.679627 214.278336 
L 263.728172 214.907188 
L 259.457938 217.785248 
L 258.523996 218.298801 
L 256.141292 220.08595 
L 255.187716 220.491361 
L 253.288165 221.968481 
L 251.854088 222.621911 
L 250.90935 223.289228 
L 249.951708 223.958884 
L 247.109364 225.529798 
L 246.141822 226.18318 
L 244.271794 227.246412 
L 242.826933 228.158026 
L 241.395308 229.058485 
L 240.441378 229.586688 
L 238.999523 230.503791 
L 235.245324 232.54323 
L 234.762525 232.798694 
L 233.814871 233.547001 
L 232.856344 233.987202 
L 231.43968 234.647051 
L 230.483231 235.36741 
L 228.589867 236.269599 
L 224.768313 238.525441 
L 223.835244 238.91224 
L 221.926412 240.150998 
L 220.513283 240.72924 
L 219.1021 241.663093 
L 217.206836 242.65278 
L 215.79468 243.491949 
L 214.374038 244.18122 
L 213.426649 244.884759 
L 211.543186 245.732949 
L 210.127317 246.567012 
L 208.710123 247.223831 
L 207.762822 247.82214 
L 206.365859 248.484396 
L 204.448983 249.454298 
L 203.972725 249.587098 
L 203.010928 250.196002 
L 202.535377 250.596497 
L 200.63123 251.384388 
L 200.155237 251.607782 
L 199.208644 252.318575 
L 197.77934 252.755365 
L 195.872364 253.802418 
L 194.463191 254.286024 
L 193.504665 255.072793 
L 191.123552 256.028385 
L 190.180229 256.635523 
L 188.290047 257.467105 
L 186.853849 258.179473 
L 185.921663 258.625925 
L 184.991422 259.12621 
L 181.663783 260.473194 
L 176.911988 262.832631 
L 175.965571 263.334539 
L 173.591707 264.181559 
L 170.308318 265.867831 
L 167.950718 266.79727 
L 166.529983 267.539609 
L 165.576406 267.791601 
L 164.142506 268.44212 
L 163.197946 268.913353 
L 160.828965 269.825142 
L 159.879101 270.257445 
L 158.458813 270.720864 
L 157.507711 271.199293 
L 156.558731 271.735896 
L 154.640176 272.392804 
L 153.225103 273.256694 
L 152.757861 273.408264 
L 151.81171 273.555552 
L 150.857868 274.019961 
L 149.423526 274.719206 
L 148.472855 274.93985 
L 147.027906 275.740268 
L 146.081047 275.982954 
L 145.610977 276.016528 
L 144.651743 276.450167 
L 143.703824 276.948448 
L 138.014186 278.977317 
L 137.054991 279.466451 
L 134.70517 280.204555 
L 133.287003 280.885808 
L 129.963805 282.00342 
L 128.995025 282.380674 
L 127.597542 282.786706 
L 125.220562 283.583942 
L 124.273615 283.910586 
L 123.319243 284.317762 
L 121.901253 284.840549 
L 120.959522 285.07835 
L 119.053695 285.671081 
L 118.112935 286.06072 
L 116.698304 286.292613 
L 114.792831 287.075898 
L 113.837307 287.213874 
L 112.879134 287.538918 
L 110.991162 288.224753 
L 110.514728 288.221046 
L 108.62596 288.829223 
L 107.663014 289.187077 
L 106.715802 289.427985 
L 106.244317 289.526081 
L 105.272886 289.94495 
L 102.899463 290.534276 
L 101.48228 290.872814 
L 100.072953 291.181392 
L 99.118846 291.637342 
L 96.753467 292.106188 
L 95.823226 292.4297 
L 93.477117 292.660066 
L 92.528491 292.967688 
L 91.111455 293.307032 
L 90.154343 293.393365 
L 88.715669 293.758469 
L 84.891552 294.338767 
L 83.48523 294.511481 
L 82.553221 294.709229 
L 81.139298 294.814081 
L 80.195091 294.951371 
L 79.25993 295.096442 
L 77.823908 295.216586 
L 75.916137 295.488 
L 74.499738 295.01679 
L 73.937673 294.919762 
L 73.832964 293.257086 
L 73.832964 293.257086 
" clip-path="url(#p3c6f9891b0)" style="fill: none; stroke: #ff0000; stroke-width: 1.5; stroke-linecap: square"/>
   </g>
   <g id="line2d_14">
    <path d="M 73.934592 283.829688 
L 73.935181 283.781367 
L 73.934592 283.876612 
L 73.935024 283.804056 
L 74.400416 282.123132 
L 74.871194 282.687613 
L 75.341441 282.960365 
L 75.825654 282.930558 
L 76.308099 283.02495 
L 76.800445 284.884459 
L 77.271045 285.237816 
L 78.214191 283.079748 
L 79.16158 281.674816 
L 79.63554 281.688638 
L 80.567903 282.082333 
L 81.501326 282.03917 
L 81.968214 282.135172 
L 82.910034 280.777606 
L 83.394601 280.621137 
L 84.350299 280.839791 
L 84.834159 280.957692 
L 85.308048 280.749586 
L 86.248808 279.955276 
L 88.616485 279.345131 
L 89.582967 278.929054 
L 91.463867 278.362278 
L 92.419653 277.86729 
L 93.820495 277.522383 
L 95.252274 276.918896 
L 95.737901 276.66768 
L 97.157412 276.381552 
L 98.566916 275.633653 
L 100.466467 275.218191 
L 101.416331 274.613105 
L 102.369554 274.285793 
L 103.311463 274.091368 
L 105.668709 273.009596 
L 107.102786 272.163029 
L 109.014326 271.576762 
L 109.976918 271.13668 
L 110.914761 270.831082 
L 111.859498 270.439988 
L 113.294459 269.748617 
L 114.712803 269.25843 
L 115.66249 268.694291 
L 119.004073 267.222999 
L 119.95323 266.821048 
L 121.838644 265.97873 
L 123.741377 265.112776 
L 125.156539 264.432 
L 126.088371 264.081227 
L 127.022854 263.615923 
L 128.93425 262.816924 
L 136.059677 259.362185 
L 138.438403 258.351546 
L 139.870889 257.546689 
L 141.765667 256.873753 
L 144.583029 255.397916 
L 145.550748 254.910134 
L 147.455957 253.709888 
L 148.404583 253.40608 
L 149.829026 252.569679 
L 150.309703 252.207744 
L 152.219419 251.567375 
L 154.603537 250.216395 
L 155.556445 249.721639 
L 156.514972 249.239346 
L 157.934376 248.557568 
L 158.886715 248.063057 
L 160.328217 247.360544 
L 162.710567 246.002166 
L 164.650071 244.863102 
L 166.05215 244.272237 
L 170.335886 241.942126 
L 170.803304 241.74374 
L 172.247282 240.813418 
L 174.605412 239.697166 
L 175.569242 239.106922 
L 179.378189 236.973974 
L 180.329025 236.309424 
L 186.940595 232.737822 
L 188.36159 231.860092 
L 190.268345 230.757459 
L 191.225104 230.140633 
L 192.157112 229.753452 
L 194.542645 228.349952 
L 195.47978 227.855942 
L 196.921989 226.840816 
L 199.754964 225.272718 
L 201.15881 224.398185 
L 204.939483 222.079479 
L 205.889877 221.403524 
L 207.781473 220.466736 
L 209.710194 219.217478 
L 212.056303 217.830586 
L 213.49417 216.829657 
L 216.849543 214.696322 
L 219.232954 213.264331 
L 220.659959 212.402826 
L 222.092269 211.373479 
L 223.967247 210.276745 
L 227.761222 207.769556 
L 231.09821 205.637652 
L 233.003506 204.304115 
L 234.418491 203.375607 
L 236.324671 202.052664 
L 237.746285 201.203568 
L 239.193356 200.384633 
L 242.04666 198.337343 
L 243.005187 197.641343 
L 245.376311 196.005859 
L 246.788467 195.089807 
L 249.156829 193.326788 
L 250.09697 192.773196 
L 257.220331 187.597536 
L 258.159588 186.951264 
L 259.094602 186.277265 
L 263.345433 183.412741 
L 264.30396 182.518593 
L 266.169391 181.289379 
L 267.119078 180.388169 
L 268.081936 179.663822 
L 269.023668 179.1968 
L 273.776988 175.380377 
L 275.171995 174.155601 
L 277.111677 172.7081 
L 278.061717 171.900714 
L 279.466095 171.059444 
L 280.432753 170.175128 
L 281.850036 168.958179 
L 283.262368 168.024648 
L 284.223723 167.176888 
L 285.179333 166.346213 
L 286.599267 165.258499 
L 287.534812 164.489483 
L 293.260337 159.730592 
L 295.63219 157.82009 
L 297.042666 156.631298 
L 301.295575 152.920892 
L 302.714272 151.612791 
L 304.580057 150.159993 
L 306.943226 148.166344 
L 308.824215 146.428255 
L 309.78115 145.628695 
L 311.671685 143.933653 
L 313.559392 142.187164 
L 314.514559 141.209596 
L 316.408188 139.611623 
L 318.766628 137.453507 
L 319.709156 136.655856 
L 322.54708 133.958048 
L 330.212993 126.727033 
L 331.611183 125.394497 
L 332.572008 124.503691 
L 334.449107 122.632548 
L 335.395789 121.77868 
L 337.298699 119.666247 
L 338.744444 118.400811 
L 347.830535 109.177018 
L 348.781636 108.239729 
L 349.722661 107.340714 
L 353.98348 102.759068 
L 355.884711 100.817104 
L 357.769412 98.892893 
L 359.185457 97.388458 
L 360.608751 95.769391 
L 362.509716 93.750115 
L 364.881172 91.214733 
L 366.782668 89.142961 
L 372.493696 82.925652 
L 373.443207 81.916873 
L 377.279168 77.513928 
L 381.538088 72.657777 
L 391.084901 61.53095 
L 392.043781 60.524557 
L 393.469815 58.657805 
L 394.411723 57.496693 
L 395.343379 56.409743 
L 396.314103 55.319452 
L 398.226228 53.568 
L 398.487273 54.067355 
L 398.331592 61.652621 
L 398.336431 73.26859 
L 398.337183 73.237951 
L 398.336144 86.736337 
L 398.336696 86.651162 
L 398.335282 86.580961 
L 398.335437 88.571007 
L 398.332498 88.553075 
L 397.863333 88.730857 
L 396.924342 90.616698 
L 396.456393 91.073579 
L 395.966876 91.168095 
L 395.478243 91.425516 
L 394.536047 92.318195 
L 394.067568 92.582583 
L 393.582471 93.220169 
L 393.097904 93.270875 
L 392.147863 95.422823 
L 390.747198 97.375286 
L 389.75632 99.576771 
L 389.271223 99.540823 
L 388.778524 99.681047 
L 387.346392 101.172501 
L 386.864123 101.216096 
L 385.925308 104.319268 
L 385.446576 104.923352 
L 383.543577 106.496843 
L 383.078457 107.094055 
L 382.133101 108.683056 
L 381.18675 109.925347 
L 380.242897 111.372418 
L 379.28331 112.074621 
L 377.841719 113.392362 
L 377.372444 114.563879 
L 376.890176 115.416984 
L 374.965079 117.177074 
L 374.027944 118.871448 
L 373.064114 119.777717 
L 372.587149 120.197207 
L 371.165712 122.210088 
L 370.206832 123.037327 
L 369.741004 123.51937 
L 368.329644 125.376577 
L 366.891059 126.746909 
L 365.963912 128.10302 
L 365.003794 129.021602 
L 363.571927 130.655081 
L 362.633642 131.729051 
L 360.722423 133.636654 
L 359.761422 134.860857 
L 358.355277 136.178693 
L 356.902792 137.819152 
L 354.984501 139.737827 
L 354.016252 140.808742 
L 350.213791 144.675777 
L 347.839749 147.192236 
L 346.894924 148.048205 
L 345.936707 149.184799 
L 344.022306 150.885473 
L 340.227358 154.732082 
L 333.058563 161.381718 
L 332.126554 162.112269 
L 328.820328 165.273472 
L 327.405608 166.543204 
L 325.035987 168.606004 
L 323.613754 169.861609 
L 322.181379 171.132485 
L 320.761621 172.210081 
L 318.858976 173.948553 
L 317.923255 174.62384 
L 315.543733 176.738277 
L 314.601471 177.407408 
L 312.218944 179.401916 
L 305.573211 184.838873 
L 303.667561 186.046898 
L 302.252577 187.453214 
L 300.826278 188.290093 
L 298.43573 190.265583 
L 297.478441 190.936957 
L 296.058329 192.179199 
L 294.151353 193.45103 
L 293.208296 194.372284 
L 289.892699 196.678236 
L 287.505753 198.62298 
L 286.53821 199.195041 
L 285.122872 200.456946 
L 283.693922 201.345271 
L 281.308743 202.964338 
L 280.352338 203.54079 
L 278.918526 204.696843 
L 277.019417 205.954166 
L 276.081177 206.871949 
L 273.718803 208.299072 
L 272.759747 209.086843 
L 271.344409 209.741109 
L 270.399406 210.605381 
L 269.915723 211.007499 
L 267.994958 212.003262 
L 266.086921 213.435348 
L 264.679627 214.278336 
L 263.728172 214.907188 
L 259.457938 217.785248 
L 258.523996 218.298801 
L 256.141292 220.08595 
L 255.187716 220.491361 
L 253.288165 221.968481 
L 251.854088 222.621911 
L 250.90935 223.289228 
L 249.951708 223.958884 
L 247.109364 225.529798 
L 246.141822 226.18318 
L 244.271794 227.246412 
L 242.826933 228.158026 
L 241.395308 229.058485 
L 240.441378 229.586688 
L 238.999523 230.503791 
L 235.245324 232.54323 
L 234.762525 232.798694 
L 233.814871 233.547001 
L 232.856344 233.987202 
L 231.43968 234.647051 
L 230.483231 235.36741 
L 228.589867 236.269599 
L 224.768313 238.525441 
L 223.835244 238.91224 
L 221.926412 240.150998 
L 220.513283 240.72924 
L 219.1021 241.663093 
L 217.206836 242.65278 
L 215.79468 243.491949 
L 214.374038 244.18122 
L 213.426649 244.884759 
L 211.543186 245.732949 
L 210.127317 246.567012 
L 208.710123 247.223831 
L 207.762822 247.82214 
L 206.365859 248.484396 
L 204.448983 249.454298 
L 203.972725 249.587098 
L 203.010928 250.196002 
L 202.535377 250.596497 
L 200.63123 251.384388 
L 200.155237 251.607782 
L 199.208644 252.318575 
L 197.77934 252.755365 
L 195.872364 253.802418 
L 194.463191 254.286024 
L 193.504665 255.072793 
L 191.123552 256.028385 
L 190.180229 256.635523 
L 188.290047 257.467105 
L 186.853849 258.179473 
L 185.921663 258.625925 
L 184.991422 259.12621 
L 181.663783 260.473194 
L 176.911988 262.832631 
L 175.965571 263.334539 
L 173.591707 264.181559 
L 170.308318 265.867831 
L 167.950718 266.79727 
L 166.529983 267.539609 
L 165.576406 267.791601 
L 164.142506 268.44212 
L 163.197946 268.913353 
L 160.828965 269.825142 
L 159.879101 270.257445 
L 158.458813 270.720864 
L 157.507711 271.199293 
L 156.558731 271.735896 
L 154.640176 272.392804 
L 153.225103 273.256694 
L 152.757861 273.408264 
L 151.81171 273.555552 
L 150.857868 274.019961 
L 149.423526 274.719206 
L 148.472855 274.93985 
L 147.027906 275.740268 
L 146.081047 275.982954 
L 145.610977 276.016528 
L 144.651743 276.450167 
L 143.703824 276.948448 
L 138.014186 278.977317 
L 137.054991 279.466451 
L 134.70517 280.204555 
L 133.287003 280.885808 
L 129.963805 282.00342 
L 128.995025 282.380674 
L 127.597542 282.786706 
L 125.220562 283.583942 
L 124.273615 283.910586 
L 123.319243 284.317762 
L 121.901253 284.840549 
L 120.959522 285.07835 
L 119.053695 285.671081 
L 118.112935 286.06072 
L 116.698304 286.292613 
L 114.792831 287.075898 
L 113.837307 287.213874 
L 112.879134 287.538918 
L 110.991162 288.224753 
L 110.514728 288.221046 
L 108.62596 288.829223 
L 107.663014 289.187077 
L 106.715802 289.427985 
L 106.244317 289.526081 
L 105.272886 289.94495 
L 102.899463 290.534276 
L 101.48228 290.872814 
L 100.072953 291.181392 
L 99.118846 291.637342 
L 96.753467 292.106188 
L 95.823226 292.4297 
L 93.477117 292.660066 
L 92.528491 292.967688 
L 91.111455 293.307032 
L 90.154343 293.393365 
L 88.715669 293.758469 
L 84.891552 294.338767 
L 83.48523 294.511481 
L 82.553221 294.709229 
L 81.139298 294.814081 
L 80.195091 294.951371 
L 79.25993 295.096442 
L 77.823908 295.216586 
L 75.916137 295.488 
L 74.499738 295.01679 
L 73.937673 294.919762 
L 73.832964 293.257086 
L 73.832964 293.257086 
" clip-path="url(#p3c6f9891b0)" style="fill: none; stroke: #000000; stroke-width: 1.5; stroke-linecap: square"/>
   </g>
   <g id="patch_3">
    <path d="M 57.6 307.584 
L 57.6 41.472 
" style="fill: none; stroke: #000000; stroke-width: 0.8; stroke-linejoin: miter; stroke-linecap: square"/>
   </g>
   <g id="patch_4">
    <path d="M 414.72 307.584 
L 414.72 41.472 
" style="fill: none; stroke: #000000; stroke-width: 0.8; stroke-linejoin: miter; stroke-linecap: square"/>
   </g>
   <g id="patch_5">
    <path d="M 57.6 307.584 
L 414.72 307.584 
" style="fill: none; stroke: #000000; stroke-width: 0.8; stroke-linejoin: miter; stroke-linecap: square"/>
   </g>
   <g id="patch_6">
    <path d="M 57.6 41.472 
L 414.72 41.472 
" style="fill: none; stroke: #000000; stroke-width: 0.8; stroke-linejoin: miter; stroke-linecap: square"/>
   </g>
   <g id="text_15">
    <!-- 2025-07-02 trial 28 -->
    <g transform="translate(178.0125 35.472) scale(0.12 -0.12)">
     <defs>
      <path id="DejaVuSans-2d" d="M 313 2009 
L 1997 2009 
L 1997 1497 
L 313 1497 
L 313 2009 
z
" transform="scale(0.015625)"/>
      <path id="DejaVuSans-37" d="M 525 4666 
L 3525 4666 
L 3525 4397 
L 1831 0 
L 1172 0 
L 2766 4134 
L 525 4134 
L 525 4666 
z
" transform="scale(0.015625)"/>
      <path id="DejaVuSans-6c" d="M 603 4863 
L 1178 4863 
L 1178 0 
L 603 0 
L 603 4863 
z
" transform="scale(0.015625)"/>
      <path id="DejaVuSans-38" d="M 2034 2216 
Q 1584 2216 1326 1975 
Q 1069 1734 1069 1313 
Q 1069 891 1326 650 
Q 1584 409 2034 409 
Q 2484 409 2743 651 
Q 3003 894 3003 1313 
Q 3003 1734 2745 1975 
Q 2488 2216 2034 2216 
z
M 1403 2484 
Q 997 2584 770 2862 
Q 544 3141 544 3541 
Q 544 4100 942 4425 
Q 1341 4750 2034 4750 
Q 2731 4750 3128 4425 
Q 3525 4100 3525 3541 
Q 3525 3141 3298 2862 
Q 3072 2584 2669 2484 
Q 3125 2378 3379 2068 
Q 3634 1759 3634 1313 
Q 3634 634 3220 271 
Q 2806 -91 2034 -91 
Q 1263 -91 848 271 
Q 434 634 434 1313 
Q 434 1759 690 2068 
Q 947 2378 1403 2484 
z
M 1172 3481 
Q 1172 3119 1398 2916 
Q 1625 2713 2034 2713 
Q 2441 2713 2670 2916 
Q 2900 3119 2900 3481 
Q 2900 3844 2670 4047 
Q 2441 4250 2034 4250 
Q 1625 4250 1398 4047 
Q 1172 3844 1172 3481 
z
" transform="scale(0.015625)"/>
     </defs>
     <use xlink:href="#DejaVuSans-32"/>
     <use xlink:href="#DejaVuSans-30" transform="translate(63.623047 0)"/>
     <use xlink:href="#DejaVuSans-32" transform="translate(127.246094 0)"/>
     <use xlink:href="#DejaVuSans-35" transform="translate(190.869141 0)"/>
     <use xlink:href="#DejaVuSans-2d" transform="translate(254.492188 0)"/>
     <use xlink:href="#DejaVuSans-30" transform="translate(290.576172 0)"/>
     <use xlink:href="#DejaVuSans-37" transform="translate(354.199219 0)"/>
     <use xlink:href="#DejaVuSans-2d" transform="translate(417.822266 0)"/>
     <use xlink:href="#DejaVuSans-30" transform="translate(453.90625 0)"/>
     <use xlink:href="#DejaVuSans-32" transform="translate(517.529297 0)"/>
     <use xlink:href="#DejaVuSans-20" transform="translate(581.152344 0)"/>
     <use xlink:href="#DejaVuSans-74" transform="translate(612.939453 0)"/>
     <use xlink:href="#DejaVuSans-72" transform="translate(652.148438 0)"/>
     <use xlink:href="#DejaVuSans-69" transform="translate(693.261719 0)"/>
     <use xlink:href="#DejaVuSans-61" transform="translate(721.044922 0)"/>
     <use xlink:href="#DejaVuSans-6c" transform="translate(782.324219 0)"/>
     <use xlink:href="#DejaVuSans-20" transform="translate(810.107422 0)"/>
     <use xlink:href="#DejaVuSans-32" transform="translate(841.894531 0)"/>
     <use xlink:href="#DejaVuSans-38" transform="translate(905.517578 0)"/>
    </g>
   </g>
  </g>
 </g>
 <defs>
  <clipPath id="p3c6f9891b0">
   <rect x="57.6" y="41.472" width="357.12" height="266.112"/>
  </clipPath>
 </defs>
</svg>
