<?xml version="1.0" encoding="utf-8" standalone="no"?>
<!DOCTYPE svg PUBLIC "-//W3C//DTD SVG 1.1//EN"
  "http://www.w3.org/Graphics/SVG/1.1/DTD/svg11.dtd">
<svg xmlns:xlink="http://www.w3.org/1999/xlink" width="460.8pt" height="345.6pt" viewBox="0 0 460.8 345.6" xmlns="http://www.w3.org/2000/svg" version="1.1">
 <metadata>
  <rdf:RDF xmlns:dc="http://purl.org/dc/elements/1.1/" xmlns:cc="http://creativecommons.org/ns#" xmlns:rdf="http://www.w3.org/1999/02/22-rdf-syntax-ns#">
   <cc:Work>
    <dc:type rdf:resource="http://purl.org/dc/dcmitype/StillImage"/>
    <dc:date>2025-07-16T22:12:25.941628</dc:date>
    <dc:format>image/svg+xml</dc:format>
    <dc:creator>
     <cc:Agent>
      <dc:title>Matplotlib v3.10.3, https://matplotlib.org/</dc:title>
     </cc:Agent>
    </dc:creator>
   </cc:Work>
  </rdf:RDF>
 </metadata>
 <defs>
  <style type="text/css">*{stroke-linejoin: round; stroke-linecap: butt}</style>
 </defs>
 <g id="figure_1">
  <g id="patch_1">
   <path d="M 0 345.6 
L 460.8 345.6 
L 460.8 0 
L 0 0 
z
" style="fill: #ffffff"/>
  </g>
  <g id="axes_1">
   <g id="patch_2">
    <path d="M 57.6 307.584 
L 414.72 307.584 
L 414.72 41.472 
L 57.6 41.472 
z
" style="fill: #ffffff"/>
   </g>
   <g id="matplotlib.axis_1">
    <g id="xtick_1">
     <g id="line2d_1">
      <defs>
       <path id="mc53de23997" d="M 0 0 
L 0 3.5 
" style="stroke: #000000; stroke-width: 0.8"/>
      </defs>
      <g>
       <use xlink:href="#mc53de23997" x="73.973404" y="307.584" style="stroke: #000000; stroke-width: 0.8"/>
      </g>
     </g>
     <g id="text_1">
      <!-- 0.000 -->
      <g transform="translate(59.659342 322.182437) scale(0.1 -0.1)">
       <defs>
        <path id="DejaVuSans-30" d="M 2034 4250 
Q 1547 4250 1301 3770 
Q 1056 3291 1056 2328 
Q 1056 1369 1301 889 
Q 1547 409 2034 409 
Q 2525 409 2770 889 
Q 3016 1369 3016 2328 
Q 3016 3291 2770 3770 
Q 2525 4250 2034 4250 
z
M 2034 4750 
Q 2819 4750 3233 4129 
Q 3647 3509 3647 2328 
Q 3647 1150 3233 529 
Q 2819 -91 2034 -91 
Q 1250 -91 836 529 
Q 422 1150 422 2328 
Q 422 3509 836 4129 
Q 1250 4750 2034 4750 
z
" transform="scale(0.015625)"/>
        <path id="DejaVuSans-2e" d="M 684 794 
L 1344 794 
L 1344 0 
L 684 0 
L 684 794 
z
" transform="scale(0.015625)"/>
       </defs>
       <use xlink:href="#DejaVuSans-30"/>
       <use xlink:href="#DejaVuSans-2e" transform="translate(63.623047 0)"/>
       <use xlink:href="#DejaVuSans-30" transform="translate(95.410156 0)"/>
       <use xlink:href="#DejaVuSans-30" transform="translate(159.033203 0)"/>
       <use xlink:href="#DejaVuSans-30" transform="translate(222.65625 0)"/>
      </g>
     </g>
    </g>
    <g id="xtick_2">
     <g id="line2d_2">
      <g>
       <use xlink:href="#mc53de23997" x="119.384424" y="307.584" style="stroke: #000000; stroke-width: 0.8"/>
      </g>
     </g>
     <g id="text_2">
      <!-- 0.025 -->
      <g transform="translate(105.070361 322.182437) scale(0.1 -0.1)">
       <defs>
        <path id="DejaVuSans-32" d="M 1228 531 
L 3431 531 
L 3431 0 
L 469 0 
L 469 531 
Q 828 903 1448 1529 
Q 2069 2156 2228 2338 
Q 2531 2678 2651 2914 
Q 2772 3150 2772 3378 
Q 2772 3750 2511 3984 
Q 2250 4219 1831 4219 
Q 1534 4219 1204 4116 
Q 875 4013 500 3803 
L 500 4441 
Q 881 4594 1212 4672 
Q 1544 4750 1819 4750 
Q 2544 4750 2975 4387 
Q 3406 4025 3406 3419 
Q 3406 3131 3298 2873 
Q 3191 2616 2906 2266 
Q 2828 2175 2409 1742 
Q 1991 1309 1228 531 
z
" transform="scale(0.015625)"/>
        <path id="DejaVuSans-35" d="M 691 4666 
L 3169 4666 
L 3169 4134 
L 1269 4134 
L 1269 2991 
Q 1406 3038 1543 3061 
Q 1681 3084 1819 3084 
Q 2600 3084 3056 2656 
Q 3513 2228 3513 1497 
Q 3513 744 3044 326 
Q 2575 -91 1722 -91 
Q 1428 -91 1123 -41 
Q 819 9 494 109 
L 494 744 
Q 775 591 1075 516 
Q 1375 441 1709 441 
Q 2250 441 2565 725 
Q 2881 1009 2881 1497 
Q 2881 1984 2565 2268 
Q 2250 2553 1709 2553 
Q 1456 2553 1204 2497 
Q 953 2441 691 2322 
L 691 4666 
z
" transform="scale(0.015625)"/>
       </defs>
       <use xlink:href="#DejaVuSans-30"/>
       <use xlink:href="#DejaVuSans-2e" transform="translate(63.623047 0)"/>
       <use xlink:href="#DejaVuSans-30" transform="translate(95.410156 0)"/>
       <use xlink:href="#DejaVuSans-32" transform="translate(159.033203 0)"/>
       <use xlink:href="#DejaVuSans-35" transform="translate(222.65625 0)"/>
      </g>
     </g>
    </g>
    <g id="xtick_3">
     <g id="line2d_3">
      <g>
       <use xlink:href="#mc53de23997" x="164.795444" y="307.584" style="stroke: #000000; stroke-width: 0.8"/>
      </g>
     </g>
     <g id="text_3">
      <!-- 0.050 -->
      <g transform="translate(150.481381 322.182437) scale(0.1 -0.1)">
       <use xlink:href="#DejaVuSans-30"/>
       <use xlink:href="#DejaVuSans-2e" transform="translate(63.623047 0)"/>
       <use xlink:href="#DejaVuSans-30" transform="translate(95.410156 0)"/>
       <use xlink:href="#DejaVuSans-35" transform="translate(159.033203 0)"/>
       <use xlink:href="#DejaVuSans-30" transform="translate(222.65625 0)"/>
      </g>
     </g>
    </g>
    <g id="xtick_4">
     <g id="line2d_4">
      <g>
       <use xlink:href="#mc53de23997" x="210.206464" y="307.584" style="stroke: #000000; stroke-width: 0.8"/>
      </g>
     </g>
     <g id="text_4">
      <!-- 0.075 -->
      <g transform="translate(195.892401 322.182437) scale(0.1 -0.1)">
       <defs>
        <path id="DejaVuSans-37" d="M 525 4666 
L 3525 4666 
L 3525 4397 
L 1831 0 
L 1172 0 
L 2766 4134 
L 525 4134 
L 525 4666 
z
" transform="scale(0.015625)"/>
       </defs>
       <use xlink:href="#DejaVuSans-30"/>
       <use xlink:href="#DejaVuSans-2e" transform="translate(63.623047 0)"/>
       <use xlink:href="#DejaVuSans-30" transform="translate(95.410156 0)"/>
       <use xlink:href="#DejaVuSans-37" transform="translate(159.033203 0)"/>
       <use xlink:href="#DejaVuSans-35" transform="translate(222.65625 0)"/>
      </g>
     </g>
    </g>
    <g id="xtick_5">
     <g id="line2d_5">
      <g>
       <use xlink:href="#mc53de23997" x="255.617483" y="307.584" style="stroke: #000000; stroke-width: 0.8"/>
      </g>
     </g>
     <g id="text_5">
      <!-- 0.100 -->
      <g transform="translate(241.303421 322.182437) scale(0.1 -0.1)">
       <defs>
        <path id="DejaVuSans-31" d="M 794 531 
L 1825 531 
L 1825 4091 
L 703 3866 
L 703 4441 
L 1819 4666 
L 2450 4666 
L 2450 531 
L 3481 531 
L 3481 0 
L 794 0 
L 794 531 
z
" transform="scale(0.015625)"/>
       </defs>
       <use xlink:href="#DejaVuSans-30"/>
       <use xlink:href="#DejaVuSans-2e" transform="translate(63.623047 0)"/>
       <use xlink:href="#DejaVuSans-31" transform="translate(95.410156 0)"/>
       <use xlink:href="#DejaVuSans-30" transform="translate(159.033203 0)"/>
       <use xlink:href="#DejaVuSans-30" transform="translate(222.65625 0)"/>
      </g>
     </g>
    </g>
    <g id="xtick_6">
     <g id="line2d_6">
      <g>
       <use xlink:href="#mc53de23997" x="301.028503" y="307.584" style="stroke: #000000; stroke-width: 0.8"/>
      </g>
     </g>
     <g id="text_6">
      <!-- 0.125 -->
      <g transform="translate(286.714441 322.182437) scale(0.1 -0.1)">
       <use xlink:href="#DejaVuSans-30"/>
       <use xlink:href="#DejaVuSans-2e" transform="translate(63.623047 0)"/>
       <use xlink:href="#DejaVuSans-31" transform="translate(95.410156 0)"/>
       <use xlink:href="#DejaVuSans-32" transform="translate(159.033203 0)"/>
       <use xlink:href="#DejaVuSans-35" transform="translate(222.65625 0)"/>
      </g>
     </g>
    </g>
    <g id="xtick_7">
     <g id="line2d_7">
      <g>
       <use xlink:href="#mc53de23997" x="346.439523" y="307.584" style="stroke: #000000; stroke-width: 0.8"/>
      </g>
     </g>
     <g id="text_7">
      <!-- 0.150 -->
      <g transform="translate(332.125461 322.182437) scale(0.1 -0.1)">
       <use xlink:href="#DejaVuSans-30"/>
       <use xlink:href="#DejaVuSans-2e" transform="translate(63.623047 0)"/>
       <use xlink:href="#DejaVuSans-31" transform="translate(95.410156 0)"/>
       <use xlink:href="#DejaVuSans-35" transform="translate(159.033203 0)"/>
       <use xlink:href="#DejaVuSans-30" transform="translate(222.65625 0)"/>
      </g>
     </g>
    </g>
    <g id="xtick_8">
     <g id="line2d_8">
      <g>
       <use xlink:href="#mc53de23997" x="391.850543" y="307.584" style="stroke: #000000; stroke-width: 0.8"/>
      </g>
     </g>
     <g id="text_8">
      <!-- 0.175 -->
      <g transform="translate(377.53648 322.182437) scale(0.1 -0.1)">
       <use xlink:href="#DejaVuSans-30"/>
       <use xlink:href="#DejaVuSans-2e" transform="translate(63.623047 0)"/>
       <use xlink:href="#DejaVuSans-31" transform="translate(95.410156 0)"/>
       <use xlink:href="#DejaVuSans-37" transform="translate(159.033203 0)"/>
       <use xlink:href="#DejaVuSans-35" transform="translate(222.65625 0)"/>
      </g>
     </g>
    </g>
    <g id="text_9">
     <!-- Strain -->
     <g transform="translate(221.348281 335.860562) scale(0.1 -0.1)">
      <defs>
       <path id="DejaVuSans-53" d="M 3425 4513 
L 3425 3897 
Q 3066 4069 2747 4153 
Q 2428 4238 2131 4238 
Q 1616 4238 1336 4038 
Q 1056 3838 1056 3469 
Q 1056 3159 1242 3001 
Q 1428 2844 1947 2747 
L 2328 2669 
Q 3034 2534 3370 2195 
Q 3706 1856 3706 1288 
Q 3706 609 3251 259 
Q 2797 -91 1919 -91 
Q 1588 -91 1214 -16 
Q 841 59 441 206 
L 441 856 
Q 825 641 1194 531 
Q 1563 422 1919 422 
Q 2459 422 2753 634 
Q 3047 847 3047 1241 
Q 3047 1584 2836 1778 
Q 2625 1972 2144 2069 
L 1759 2144 
Q 1053 2284 737 2584 
Q 422 2884 422 3419 
Q 422 4038 858 4394 
Q 1294 4750 2059 4750 
Q 2388 4750 2728 4690 
Q 3069 4631 3425 4513 
z
" transform="scale(0.015625)"/>
       <path id="DejaVuSans-74" d="M 1172 4494 
L 1172 3500 
L 2356 3500 
L 2356 3053 
L 1172 3053 
L 1172 1153 
Q 1172 725 1289 603 
Q 1406 481 1766 481 
L 2356 481 
L 2356 0 
L 1766 0 
Q 1100 0 847 248 
Q 594 497 594 1153 
L 594 3053 
L 172 3053 
L 172 3500 
L 594 3500 
L 594 4494 
L 1172 4494 
z
" transform="scale(0.015625)"/>
       <path id="DejaVuSans-72" d="M 2631 2963 
Q 2534 3019 2420 3045 
Q 2306 3072 2169 3072 
Q 1681 3072 1420 2755 
Q 1159 2438 1159 1844 
L 1159 0 
L 581 0 
L 581 3500 
L 1159 3500 
L 1159 2956 
Q 1341 3275 1631 3429 
Q 1922 3584 2338 3584 
Q 2397 3584 2469 3576 
Q 2541 3569 2628 3553 
L 2631 2963 
z
" transform="scale(0.015625)"/>
       <path id="DejaVuSans-61" d="M 2194 1759 
Q 1497 1759 1228 1600 
Q 959 1441 959 1056 
Q 959 750 1161 570 
Q 1363 391 1709 391 
Q 2188 391 2477 730 
Q 2766 1069 2766 1631 
L 2766 1759 
L 2194 1759 
z
M 3341 1997 
L 3341 0 
L 2766 0 
L 2766 531 
Q 2569 213 2275 61 
Q 1981 -91 1556 -91 
Q 1019 -91 701 211 
Q 384 513 384 1019 
Q 384 1609 779 1909 
Q 1175 2209 1959 2209 
L 2766 2209 
L 2766 2266 
Q 2766 2663 2505 2880 
Q 2244 3097 1772 3097 
Q 1472 3097 1187 3025 
Q 903 2953 641 2809 
L 641 3341 
Q 956 3463 1253 3523 
Q 1550 3584 1831 3584 
Q 2591 3584 2966 3190 
Q 3341 2797 3341 1997 
z
" transform="scale(0.015625)"/>
       <path id="DejaVuSans-69" d="M 603 3500 
L 1178 3500 
L 1178 0 
L 603 0 
L 603 3500 
z
M 603 4863 
L 1178 4863 
L 1178 4134 
L 603 4134 
L 603 4863 
z
" transform="scale(0.015625)"/>
       <path id="DejaVuSans-6e" d="M 3513 2113 
L 3513 0 
L 2938 0 
L 2938 2094 
Q 2938 2591 2744 2837 
Q 2550 3084 2163 3084 
Q 1697 3084 1428 2787 
Q 1159 2491 1159 1978 
L 1159 0 
L 581 0 
L 581 3500 
L 1159 3500 
L 1159 2956 
Q 1366 3272 1645 3428 
Q 1925 3584 2291 3584 
Q 2894 3584 3203 3211 
Q 3513 2838 3513 2113 
z
" transform="scale(0.015625)"/>
      </defs>
      <use xlink:href="#DejaVuSans-53"/>
      <use xlink:href="#DejaVuSans-74" transform="translate(63.476562 0)"/>
      <use xlink:href="#DejaVuSans-72" transform="translate(102.685547 0)"/>
      <use xlink:href="#DejaVuSans-61" transform="translate(143.798828 0)"/>
      <use xlink:href="#DejaVuSans-69" transform="translate(205.078125 0)"/>
      <use xlink:href="#DejaVuSans-6e" transform="translate(232.861328 0)"/>
     </g>
    </g>
   </g>
   <g id="matplotlib.axis_2">
    <g id="ytick_1">
     <g id="line2d_9">
      <defs>
       <path id="mbe321324f2" d="M 0 0 
L -3.5 0 
" style="stroke: #000000; stroke-width: 0.8"/>
      </defs>
      <g>
       <use xlink:href="#mbe321324f2" x="57.6" y="278.546804" style="stroke: #000000; stroke-width: 0.8"/>
      </g>
     </g>
     <g id="text_10">
      <!-- 0 -->
      <g transform="translate(44.2375 282.346023) scale(0.1 -0.1)">
       <use xlink:href="#DejaVuSans-30"/>
      </g>
     </g>
    </g>
    <g id="ytick_2">
     <g id="line2d_10">
      <g>
       <use xlink:href="#mbe321324f2" x="57.6" y="242.900073" style="stroke: #000000; stroke-width: 0.8"/>
      </g>
     </g>
     <g id="text_11">
      <!-- 250 -->
      <g transform="translate(31.5125 246.699292) scale(0.1 -0.1)">
       <use xlink:href="#DejaVuSans-32"/>
       <use xlink:href="#DejaVuSans-35" transform="translate(63.623047 0)"/>
       <use xlink:href="#DejaVuSans-30" transform="translate(127.246094 0)"/>
      </g>
     </g>
    </g>
    <g id="ytick_3">
     <g id="line2d_11">
      <g>
       <use xlink:href="#mbe321324f2" x="57.6" y="207.253342" style="stroke: #000000; stroke-width: 0.8"/>
      </g>
     </g>
     <g id="text_12">
      <!-- 500 -->
      <g transform="translate(31.5125 211.052561) scale(0.1 -0.1)">
       <use xlink:href="#DejaVuSans-35"/>
       <use xlink:href="#DejaVuSans-30" transform="translate(63.623047 0)"/>
       <use xlink:href="#DejaVuSans-30" transform="translate(127.246094 0)"/>
      </g>
     </g>
    </g>
    <g id="ytick_4">
     <g id="line2d_12">
      <g>
       <use xlink:href="#mbe321324f2" x="57.6" y="171.606611" style="stroke: #000000; stroke-width: 0.8"/>
      </g>
     </g>
     <g id="text_13">
      <!-- 750 -->
      <g transform="translate(31.5125 175.40583) scale(0.1 -0.1)">
       <use xlink:href="#DejaVuSans-37"/>
       <use xlink:href="#DejaVuSans-35" transform="translate(63.623047 0)"/>
       <use xlink:href="#DejaVuSans-30" transform="translate(127.246094 0)"/>
      </g>
     </g>
    </g>
    <g id="ytick_5">
     <g id="line2d_13">
      <g>
       <use xlink:href="#mbe321324f2" x="57.6" y="135.95988" style="stroke: #000000; stroke-width: 0.8"/>
      </g>
     </g>
     <g id="text_14">
      <!-- 1000 -->
      <g transform="translate(25.15 139.759098) scale(0.1 -0.1)">
       <use xlink:href="#DejaVuSans-31"/>
       <use xlink:href="#DejaVuSans-30" transform="translate(63.623047 0)"/>
       <use xlink:href="#DejaVuSans-30" transform="translate(127.246094 0)"/>
       <use xlink:href="#DejaVuSans-30" transform="translate(190.869141 0)"/>
      </g>
     </g>
    </g>
    <g id="ytick_6">
     <g id="line2d_14">
      <g>
       <use xlink:href="#mbe321324f2" x="57.6" y="100.313149" style="stroke: #000000; stroke-width: 0.8"/>
      </g>
     </g>
     <g id="text_15">
      <!-- 1250 -->
      <g transform="translate(25.15 104.112367) scale(0.1 -0.1)">
       <use xlink:href="#DejaVuSans-31"/>
       <use xlink:href="#DejaVuSans-32" transform="translate(63.623047 0)"/>
       <use xlink:href="#DejaVuSans-35" transform="translate(127.246094 0)"/>
       <use xlink:href="#DejaVuSans-30" transform="translate(190.869141 0)"/>
      </g>
     </g>
    </g>
    <g id="ytick_7">
     <g id="line2d_15">
      <g>
       <use xlink:href="#mbe321324f2" x="57.6" y="64.666418" style="stroke: #000000; stroke-width: 0.8"/>
      </g>
     </g>
     <g id="text_16">
      <!-- 1500 -->
      <g transform="translate(25.15 68.465636) scale(0.1 -0.1)">
       <use xlink:href="#DejaVuSans-31"/>
       <use xlink:href="#DejaVuSans-35" transform="translate(63.623047 0)"/>
       <use xlink:href="#DejaVuSans-30" transform="translate(127.246094 0)"/>
       <use xlink:href="#DejaVuSans-30" transform="translate(190.869141 0)"/>
      </g>
     </g>
    </g>
    <g id="text_17">
     <!-- Stress [Pa] -->
     <g transform="translate(19.070312 201.235813) rotate(-90) scale(0.1 -0.1)">
      <defs>
       <path id="DejaVuSans-65" d="M 3597 1894 
L 3597 1613 
L 953 1613 
Q 991 1019 1311 708 
Q 1631 397 2203 397 
Q 2534 397 2845 478 
Q 3156 559 3463 722 
L 3463 178 
Q 3153 47 2828 -22 
Q 2503 -91 2169 -91 
Q 1331 -91 842 396 
Q 353 884 353 1716 
Q 353 2575 817 3079 
Q 1281 3584 2069 3584 
Q 2775 3584 3186 3129 
Q 3597 2675 3597 1894 
z
M 3022 2063 
Q 3016 2534 2758 2815 
Q 2500 3097 2075 3097 
Q 1594 3097 1305 2825 
Q 1016 2553 972 2059 
L 3022 2063 
z
" transform="scale(0.015625)"/>
       <path id="DejaVuSans-73" d="M 2834 3397 
L 2834 2853 
Q 2591 2978 2328 3040 
Q 2066 3103 1784 3103 
Q 1356 3103 1142 2972 
Q 928 2841 928 2578 
Q 928 2378 1081 2264 
Q 1234 2150 1697 2047 
L 1894 2003 
Q 2506 1872 2764 1633 
Q 3022 1394 3022 966 
Q 3022 478 2636 193 
Q 2250 -91 1575 -91 
Q 1294 -91 989 -36 
Q 684 19 347 128 
L 347 722 
Q 666 556 975 473 
Q 1284 391 1588 391 
Q 1994 391 2212 530 
Q 2431 669 2431 922 
Q 2431 1156 2273 1281 
Q 2116 1406 1581 1522 
L 1381 1569 
Q 847 1681 609 1914 
Q 372 2147 372 2553 
Q 372 3047 722 3315 
Q 1072 3584 1716 3584 
Q 2034 3584 2315 3537 
Q 2597 3491 2834 3397 
z
" transform="scale(0.015625)"/>
       <path id="DejaVuSans-20" transform="scale(0.015625)"/>
       <path id="DejaVuSans-5b" d="M 550 4863 
L 1875 4863 
L 1875 4416 
L 1125 4416 
L 1125 -397 
L 1875 -397 
L 1875 -844 
L 550 -844 
L 550 4863 
z
" transform="scale(0.015625)"/>
       <path id="DejaVuSans-50" d="M 1259 4147 
L 1259 2394 
L 2053 2394 
Q 2494 2394 2734 2622 
Q 2975 2850 2975 3272 
Q 2975 3691 2734 3919 
Q 2494 4147 2053 4147 
L 1259 4147 
z
M 628 4666 
L 2053 4666 
Q 2838 4666 3239 4311 
Q 3641 3956 3641 3272 
Q 3641 2581 3239 2228 
Q 2838 1875 2053 1875 
L 1259 1875 
L 1259 0 
L 628 0 
L 628 4666 
z
" transform="scale(0.015625)"/>
       <path id="DejaVuSans-5d" d="M 1947 4863 
L 1947 -844 
L 622 -844 
L 622 -397 
L 1369 -397 
L 1369 4416 
L 622 4416 
L 622 4863 
L 1947 4863 
z
" transform="scale(0.015625)"/>
      </defs>
      <use xlink:href="#DejaVuSans-53"/>
      <use xlink:href="#DejaVuSans-74" transform="translate(63.476562 0)"/>
      <use xlink:href="#DejaVuSans-72" transform="translate(102.685547 0)"/>
      <use xlink:href="#DejaVuSans-65" transform="translate(141.548828 0)"/>
      <use xlink:href="#DejaVuSans-73" transform="translate(203.072266 0)"/>
      <use xlink:href="#DejaVuSans-73" transform="translate(255.171875 0)"/>
      <use xlink:href="#DejaVuSans-20" transform="translate(307.271484 0)"/>
      <use xlink:href="#DejaVuSans-5b" transform="translate(339.058594 0)"/>
      <use xlink:href="#DejaVuSans-50" transform="translate(378.072266 0)"/>
      <use xlink:href="#DejaVuSans-61" transform="translate(433.875 0)"/>
      <use xlink:href="#DejaVuSans-5d" transform="translate(495.154297 0)"/>
     </g>
    </g>
   </g>
   <g id="line2d_16">
    <path d="M 73.973404 277.482997 
L 73.973404 277.394995 
L 73.975317 277.586139 
L 73.978908 277.500611 
L 74.634168 275.740359 
L 75.321764 273.183582 
L 75.98449 272.946833 
L 76.689781 270.852357 
L 77.391112 269.515955 
L 78.114715 269.600176 
L 80.219204 271.081158 
L 81.613947 272.012371 
L 82.33953 272.576268 
L 83.811484 273.250781 
L 84.549936 273.797245 
L 85.281459 274.12849 
L 86.713817 274.408335 
L 87.406734 274.211863 
L 88.085793 273.635341 
L 88.754953 273.428989 
L 89.411245 274.123942 
L 90.172464 275.126093 
L 90.888643 275.259214 
L 91.560278 274.52218 
L 94.3463 270.185939 
L 95.010511 269.435679 
L 96.346356 268.464489 
L 97.020465 268.102284 
L 99.053187 267.616839 
L 103.726914 265.292865 
L 105.736373 264.09323 
L 107.775037 263.227846 
L 110.517999 262.098848 
L 111.884531 261.445977 
L 113.932101 260.186826 
L 117.332344 258.709149 
L 118.674624 257.839256 
L 121.360196 256.402184 
L 122.7099 255.857825 
L 127.433615 253.375894 
L 128.787773 252.821014 
L 133.49664 250.104626 
L 135.50511 248.859904 
L 149.8673 241.026055 
L 151.228387 240.195539 
L 152.587 239.366825 
L 153.946107 238.572078 
L 157.377532 236.462873 
L 168.387986 230.254889 
L 172.443183 227.54077 
L 175.185155 225.826233 
L 180.730472 222.853747 
L 182.79982 221.573856 
L 184.172786 220.74905 
L 186.219366 219.271074 
L 189.635943 217.218679 
L 193.049055 215.144642 
L 195.108009 213.845813 
L 196.486419 213.034234 
L 198.548343 211.659658 
L 201.989666 209.32291 
L 204.734113 207.687426 
L 208.797082 205.070833 
L 220.991079 197.170908 
L 222.353651 196.445896 
L 231.1047 190.364459 
L 234.442581 188.168084 
L 238.486248 185.345289 
L 241.889461 182.910851 
L 246.648317 179.656717 
L 251.368568 176.248683 
L 252.041687 175.66134 
L 254.062531 174.254 
L 256.088324 172.675628 
L 258.806044 170.835146 
L 260.857574 169.43983 
L 261.541582 169.053277 
L 268.407834 163.887788 
L 270.466788 162.504796 
L 271.834805 161.492726 
L 275.244947 159.298155 
L 277.952273 157.149873 
L 279.307421 155.955348 
L 287.548681 149.76059 
L 288.928081 148.701929 
L 290.308966 147.657396 
L 292.375344 146.173408 
L 295.106923 143.897378 
L 298.505682 140.974789 
L 300.547807 139.3366 
L 304.659281 136.060223 
L 306.043136 135.102859 
L 319.046763 124.645175 
L 321.087404 122.732853 
L 323.137449 121.113301 
L 325.201847 119.259292 
L 326.584217 118.34882 
L 330.734791 114.945295 
L 335.546605 110.967352 
L 337.574873 109.04511 
L 338.919627 108.005386 
L 342.253549 104.974286 
L 344.250635 103.117873 
L 348.276979 99.500632 
L 349.631137 98.493973 
L 350.988265 97.26458 
L 353.696086 94.975023 
L 360.417382 88.791687 
L 363.11085 86.119486 
L 370.633766 79.304884 
L 374.732866 75.468817 
L 376.082074 74.157665 
L 377.424849 72.661954 
L 378.769108 71.330362 
L 380.785497 69.36694 
L 387.570641 62.859874 
L 388.938163 61.860128 
L 390.288856 60.820705 
L 394.343411 58.401897 
L 395.035339 58.051565 
L 395.704004 57.539368 
L 397.022526 56.140445 
L 398.190648 53.74527 
L 398.487273 54.88539 
L 398.338357 84.652105 
L 398.330407 84.605514 
L 397.676931 84.848387 
L 397.027507 86.59163 
L 396.355748 88.026698 
L 395.007282 87.947851 
L 393.66129 88.689996 
L 392.997822 89.084514 
L 392.348955 89.153986 
L 391.005933 89.873042 
L 390.336278 91.705409 
L 389.677759 92.855447 
L 387.63786 95.723142 
L 385.615779 96.196507 
L 383.593575 97.788499 
L 382.938644 99.98773 
L 382.277527 101.213216 
L 380.937351 102.06853 
L 380.272646 102.3099 
L 378.931727 103.548461 
L 377.612586 105.378573 
L 374.302174 108.77774 
L 372.995036 110.227011 
L 372.330577 110.545781 
L 370.96782 111.536002 
L 369.639151 113.153451 
L 368.971476 114.192874 
L 368.296995 114.906313 
L 366.283328 116.43599 
L 364.286985 118.720437 
L 362.931342 120.120863 
L 356.33873 126.220035 
L 355.660166 127.009672 
L 352.3397 129.800397 
L 350.347687 132.115353 
L 348.342187 133.62151 
L 347.000897 134.82881 
L 345.662577 136.232693 
L 345.012968 136.716334 
L 343.698652 137.467271 
L 343.048795 138.023353 
L 341.702308 139.49607 
L 339.718585 141.269973 
L 338.396691 142.308475 
L 337.739657 142.992908 
L 337.087573 143.449496 
L 333.755878 146.487284 
L 331.775883 147.806252 
L 329.086498 150.58456 
L 328.434909 151.14455 
L 326.476923 152.366165 
L 324.489735 154.176739 
L 319.767149 158.232017 
L 317.734427 159.716983 
L 313.716002 163.016505 
L 307.7094 167.759625 
L 305.071845 169.622097 
L 303.068325 171.387283 
L 299.016368 174.214812 
L 297.710466 175.261223 
L 296.396151 176.18695 
L 294.388671 177.77915 
L 292.424003 179.020416 
L 291.757565 179.440258 
L 289.118046 181.703645 
L 287.772054 182.607805 
L 287.09547 183.039144 
L 285.089475 184.709946 
L 283.061331 185.923221 
L 280.358707 188.054669 
L 277.039633 190.201824 
L 271.717767 193.923546 
L 268.439031 195.986687 
L 266.41695 197.564308 
L 261.761042 200.515452 
L 260.439673 201.241891 
L 257.802876 203.051939 
L 257.135727 203.584623 
L 255.781816 204.37411 
L 251.801749 207.010542 
L 250.473328 207.858191 
L 247.829354 209.628562 
L 246.511327 210.436685 
L 245.845755 211.014109 
L 242.53324 212.865187 
L 241.206071 213.910345 
L 240.531715 214.441103 
L 234.534021 217.977637 
L 233.216489 218.82416 
L 230.576722 220.194189 
L 229.224544 221.281105 
L 227.901567 222.037677 
L 227.230674 222.397327 
L 226.567454 222.595225 
L 225.892478 222.963818 
L 224.568419 223.91647 
L 223.895052 224.176138 
L 223.24173 224.564945 
L 222.581231 224.797053 
L 221.255037 225.660709 
L 220.578948 226.190415 
L 216.611007 228.484255 
L 213.297131 230.630959 
L 210.639299 231.857834 
L 207.969742 233.556215 
L 205.320324 234.92538 
L 203.990913 235.928884 
L 202.667194 236.463775 
L 202.00719 236.744145 
L 199.3428 238.585755 
L 197.343981 239.264401 
L 196.000959 240.18081 
L 195.328582 240.676475 
L 194.005358 241.240184 
L 193.345107 241.513191 
L 191.34741 242.872871 
L 190.679982 243.367935 
L 186.702637 245.424876 
L 184.694044 246.561388 
L 183.355476 247.10958 
L 180.695912 248.758515 
L 180.042095 249.109448 
L 179.382339 249.316429 
L 171.429127 253.224185 
L 170.100334 253.82591 
L 168.784534 254.741642 
L 168.108692 255.18245 
L 165.460759 256.352553 
L 163.463672 257.555494 
L 162.809113 257.873363 
L 161.498757 258.298184 
L 158.877767 259.801198 
L 150.87742 263.761557 
L 149.542317 264.186086 
L 148.202017 264.905988 
L 147.525433 265.228065 
L 146.175977 266.006354 
L 144.833697 266.798847 
L 142.842914 267.489125 
L 141.519689 268.076844 
L 140.174688 268.951997 
L 137.557197 270.022193 
L 135.54353 271.12023 
L 134.210159 271.675881 
L 133.551393 271.873252 
L 130.870051 273.283823 
L 129.520842 273.724443 
L 128.852054 274.121591 
L 128.182275 274.352215 
L 126.830259 275.135103 
L 124.83837 275.896429 
L 122.854894 276.864088 
L 120.21191 277.921058 
L 119.531614 278.216683 
L 118.853545 278.642687 
L 117.545664 279.073313 
L 116.889372 279.242984 
L 115.561941 279.962772 
L 114.202586 280.628305 
L 112.894457 281.159157 
L 111.589051 281.693973 
L 108.278109 283.208541 
L 104.964233 284.298463 
L 103.612797 285.001569 
L 100.979959 286.065715 
L 99.026428 287.024187 
L 97.054831 287.713767 
L 95.740763 288.285104 
L 92.392703 289.599687 
L 90.386584 290.145927 
L 89.725961 290.565243 
L 88.387641 291.060945 
L 87.055755 291.706715 
L 84.439003 292.543168 
L 83.133349 292.808676 
L 81.785872 293.507161 
L 80.456956 293.903257 
L 79.121606 294.145312 
L 78.454641 294.532309 
L 77.802432 295.112212 
L 77.136242 295.396716 
L 76.458421 295.435857 
L 75.801263 295.361895 
L 74.498084 294.824571 
L 73.984861 295.488 
L 73.833111 293.981348 
L 73.833111 293.981348 
" clip-path="url(#pbb8aec07f3)" style="fill: none; stroke: #ff0000; stroke-width: 1.5; stroke-linecap: square"/>
   </g>
   <g id="line2d_17">
    <path d="M 73.973404 277.482997 
L 73.973404 277.394995 
L 73.975317 277.586139 
L 73.978908 277.500611 
L 74.634168 275.740359 
L 75.321764 273.183582 
L 75.98449 272.946833 
L 76.689781 270.852357 
L 77.391112 269.515955 
L 78.114715 269.600176 
L 78.808622 270.116881 
L 79.557963 279.274496 
L 80.219204 279.479495 
L 81.613947 279.395933 
L 82.33953 279.297341 
L 83.811484 278.699177 
L 84.549936 278.735247 
L 85.281459 278.45931 
L 86.713817 277.007785 
L 87.406734 276.105539 
L 88.085793 274.801601 
L 88.754953 273.908713 
L 89.411245 274.123942 
L 90.172464 275.126093 
L 90.888643 275.259214 
L 91.560278 274.52218 
L 94.3463 270.185939 
L 95.010511 269.435679 
L 96.346356 268.464489 
L 97.020465 268.102284 
L 99.053187 267.616839 
L 103.726914 265.292865 
L 105.736373 264.09323 
L 107.775037 263.227846 
L 110.517999 262.098848 
L 111.884531 261.445977 
L 113.932101 260.186826 
L 117.332344 258.709149 
L 118.674624 257.839256 
L 121.360196 256.402184 
L 122.7099 255.857825 
L 127.433615 253.375894 
L 128.787773 252.821014 
L 133.49664 250.104626 
L 135.50511 248.859904 
L 149.8673 241.026055 
L 151.228387 240.195539 
L 152.587 239.366825 
L 153.946107 238.572078 
L 157.377532 236.462873 
L 168.387986 230.254889 
L 172.443183 227.54077 
L 175.185155 225.826233 
L 180.730472 222.853747 
L 182.79982 221.573856 
L 184.172786 220.74905 
L 186.219366 219.271074 
L 189.635943 217.218679 
L 193.049055 215.144642 
L 195.108009 213.845813 
L 196.486419 213.034234 
L 198.548343 211.659658 
L 201.989666 209.32291 
L 204.734113 207.687426 
L 208.797082 205.070833 
L 220.991079 197.170908 
L 222.353651 196.445896 
L 231.1047 190.364459 
L 234.442581 188.168084 
L 238.486248 185.345289 
L 241.889461 182.910851 
L 246.648317 179.656717 
L 251.368568 176.248683 
L 252.041687 175.66134 
L 254.062531 174.254 
L 256.088324 172.675628 
L 258.806044 170.835146 
L 260.857574 169.43983 
L 261.541582 169.053277 
L 268.407834 163.887788 
L 270.466788 162.504796 
L 271.834805 161.492726 
L 275.244947 159.298155 
L 277.952273 157.149873 
L 279.307421 155.955348 
L 287.548681 149.76059 
L 288.928081 148.701929 
L 290.308966 147.657396 
L 292.375344 146.173408 
L 295.106923 143.897378 
L 298.505682 140.974789 
L 300.547807 139.3366 
L 304.659281 136.060223 
L 306.043136 135.102859 
L 319.046763 124.645175 
L 321.087404 122.732853 
L 323.137449 121.113301 
L 325.201847 119.259292 
L 326.584217 118.34882 
L 330.734791 114.945295 
L 335.546605 110.967352 
L 337.574873 109.04511 
L 338.919627 108.005386 
L 342.253549 104.974286 
L 344.250635 103.117873 
L 348.276979 99.500632 
L 349.631137 98.493973 
L 350.988265 97.26458 
L 353.696086 94.975023 
L 360.417382 88.791687 
L 363.11085 86.119486 
L 370.633766 79.304884 
L 374.732866 75.468817 
L 376.082074 74.157665 
L 377.424849 72.609679 
L 378.769108 71.234051 
L 383.48045 66.222387 
L 386.884158 62.03967 
L 390.288856 57.93999 
L 393.657918 54.617623 
L 394.343411 54.229165 
L 395.704004 53.725347 
L 396.364997 53.689427 
L 397.022526 54.287591 
L 397.677086 54.724266 
L 398.190648 53.568 
L 398.487273 54.800164 
L 398.338357 84.652105 
L 398.330407 84.605514 
L 397.676931 84.848387 
L 397.027507 86.59163 
L 396.355748 88.026698 
L 395.007282 87.947851 
L 393.66129 88.689996 
L 392.997822 89.084514 
L 392.348955 89.153986 
L 391.005933 89.873042 
L 390.336278 91.705409 
L 389.677759 92.855447 
L 387.63786 95.723142 
L 385.615779 96.196507 
L 383.593575 97.788499 
L 382.938644 99.98773 
L 382.277527 101.213216 
L 380.937351 102.06853 
L 380.272646 102.3099 
L 378.931727 103.548461 
L 377.612586 105.378573 
L 374.302174 108.77774 
L 372.995036 110.227011 
L 372.330577 110.545781 
L 370.96782 111.536002 
L 369.639151 113.153451 
L 368.971476 114.192874 
L 368.296995 114.906313 
L 366.283328 116.43599 
L 364.286985 118.720437 
L 362.931342 120.120863 
L 356.33873 126.220035 
L 355.660166 127.009672 
L 352.3397 129.800397 
L 350.347687 132.115353 
L 348.342187 133.62151 
L 347.000897 134.82881 
L 345.662577 136.232693 
L 345.012968 136.716334 
L 343.698652 137.467271 
L 343.048795 138.023353 
L 341.702308 139.49607 
L 339.718585 141.269973 
L 338.396691 142.308475 
L 337.739657 142.992908 
L 337.087573 143.449496 
L 333.755878 146.487284 
L 331.775883 147.806252 
L 329.086498 150.58456 
L 328.434909 151.14455 
L 326.476923 152.366165 
L 324.489735 154.176739 
L 319.767149 158.232017 
L 317.734427 159.716983 
L 313.716002 163.016505 
L 307.7094 167.759625 
L 305.071845 169.622097 
L 303.068325 171.387283 
L 299.016368 174.214812 
L 297.710466 175.261223 
L 296.396151 176.18695 
L 294.388671 177.77915 
L 292.424003 179.020416 
L 291.757565 179.440258 
L 289.118046 181.703645 
L 287.772054 182.607805 
L 287.09547 183.039144 
L 285.089475 184.709946 
L 283.061331 185.923221 
L 280.358707 188.054669 
L 277.039633 190.201824 
L 271.717767 193.923546 
L 268.439031 195.986687 
L 266.41695 197.564308 
L 261.761042 200.515452 
L 260.439673 201.241891 
L 257.802876 203.051939 
L 257.135727 203.584623 
L 255.781816 204.37411 
L 251.801749 207.010542 
L 250.473328 207.858191 
L 247.829354 209.628562 
L 246.511327 210.436685 
L 245.845755 211.014109 
L 242.53324 212.865187 
L 241.206071 213.910345 
L 240.531715 214.441103 
L 234.534021 217.977637 
L 233.216489 218.82416 
L 230.576722 220.194189 
L 229.224544 221.281105 
L 227.901567 222.037677 
L 227.230674 222.397327 
L 226.567454 222.595225 
L 225.892478 222.963818 
L 224.568419 223.91647 
L 223.895052 224.176138 
L 223.24173 224.564945 
L 222.581231 224.797053 
L 221.255037 225.660709 
L 220.578948 226.190415 
L 216.611007 228.484255 
L 213.297131 230.630959 
L 210.639299 231.857834 
L 207.969742 233.556215 
L 205.320324 234.92538 
L 203.990913 235.928884 
L 202.667194 236.463775 
L 202.00719 236.744145 
L 199.3428 238.585755 
L 197.343981 239.264401 
L 196.000959 240.18081 
L 195.328582 240.676475 
L 194.005358 241.240184 
L 193.345107 241.513191 
L 191.34741 242.872871 
L 190.679982 243.367935 
L 186.702637 245.424876 
L 184.694044 246.561388 
L 183.355476 247.10958 
L 180.695912 248.758515 
L 180.042095 249.109448 
L 179.382339 249.316429 
L 171.429127 253.224185 
L 170.100334 253.82591 
L 168.784534 254.741642 
L 168.108692 255.18245 
L 165.460759 256.352553 
L 163.463672 257.555494 
L 162.809113 257.873363 
L 161.498757 258.298184 
L 158.877767 259.801198 
L 150.87742 263.761557 
L 149.542317 264.186086 
L 148.202017 264.905988 
L 147.525433 265.228065 
L 146.175977 266.006354 
L 144.833697 266.798847 
L 142.842914 267.489125 
L 141.519689 268.076844 
L 140.174688 268.951997 
L 137.557197 270.022193 
L 135.54353 271.12023 
L 134.210159 271.675881 
L 133.551393 271.873252 
L 130.870051 273.283823 
L 129.520842 273.724443 
L 128.852054 274.121591 
L 128.182275 274.352215 
L 126.830259 275.135103 
L 124.83837 275.896429 
L 122.854894 276.864088 
L 120.21191 277.921058 
L 119.531614 278.216683 
L 118.853545 278.642687 
L 117.545664 279.073313 
L 116.889372 279.242984 
L 115.561941 279.962772 
L 114.202586 280.628305 
L 112.894457 281.159157 
L 111.589051 281.693973 
L 108.278109 283.208541 
L 104.964233 284.298463 
L 103.612797 285.001569 
L 100.979959 286.065715 
L 99.026428 287.024187 
L 97.054831 287.713767 
L 95.740763 288.285104 
L 92.392703 289.599687 
L 90.386584 290.145927 
L 89.725961 290.565243 
L 88.387641 291.060945 
L 87.055755 291.706715 
L 84.439003 292.543168 
L 83.133349 292.808676 
L 81.785872 293.507161 
L 80.456956 293.903257 
L 79.121606 294.145312 
L 78.454641 294.532309 
L 77.802432 295.112212 
L 77.136242 295.396716 
L 76.458421 295.435857 
L 75.801263 295.361895 
L 74.498084 294.824571 
L 73.984861 295.488 
L 73.833111 293.981348 
L 73.833111 293.981348 
" clip-path="url(#pbb8aec07f3)" style="fill: none; stroke: #000000; stroke-width: 1.5; stroke-linecap: square"/>
   </g>
   <g id="patch_3">
    <path d="M 57.6 307.584 
L 57.6 41.472 
" style="fill: none; stroke: #000000; stroke-width: 0.8; stroke-linejoin: miter; stroke-linecap: square"/>
   </g>
   <g id="patch_4">
    <path d="M 414.72 307.584 
L 414.72 41.472 
" style="fill: none; stroke: #000000; stroke-width: 0.8; stroke-linejoin: miter; stroke-linecap: square"/>
   </g>
   <g id="patch_5">
    <path d="M 57.6 307.584 
L 414.72 307.584 
" style="fill: none; stroke: #000000; stroke-width: 0.8; stroke-linejoin: miter; stroke-linecap: square"/>
   </g>
   <g id="patch_6">
    <path d="M 57.6 41.472 
L 414.72 41.472 
" style="fill: none; stroke: #000000; stroke-width: 0.8; stroke-linejoin: miter; stroke-linecap: square"/>
   </g>
   <g id="text_18">
    <!-- 2025-07-02 trial 19 -->
    <g transform="translate(178.0125 35.472) scale(0.12 -0.12)">
     <defs>
      <path id="DejaVuSans-2d" d="M 313 2009 
L 1997 2009 
L 1997 1497 
L 313 1497 
L 313 2009 
z
" transform="scale(0.015625)"/>
      <path id="DejaVuSans-6c" d="M 603 4863 
L 1178 4863 
L 1178 0 
L 603 0 
L 603 4863 
z
" transform="scale(0.015625)"/>
      <path id="DejaVuSans-39" d="M 703 97 
L 703 672 
Q 941 559 1184 500 
Q 1428 441 1663 441 
Q 2288 441 2617 861 
Q 2947 1281 2994 2138 
Q 2813 1869 2534 1725 
Q 2256 1581 1919 1581 
Q 1219 1581 811 2004 
Q 403 2428 403 3163 
Q 403 3881 828 4315 
Q 1253 4750 1959 4750 
Q 2769 4750 3195 4129 
Q 3622 3509 3622 2328 
Q 3622 1225 3098 567 
Q 2575 -91 1691 -91 
Q 1453 -91 1209 -44 
Q 966 3 703 97 
z
M 1959 2075 
Q 2384 2075 2632 2365 
Q 2881 2656 2881 3163 
Q 2881 3666 2632 3958 
Q 2384 4250 1959 4250 
Q 1534 4250 1286 3958 
Q 1038 3666 1038 3163 
Q 1038 2656 1286 2365 
Q 1534 2075 1959 2075 
z
" transform="scale(0.015625)"/>
     </defs>
     <use xlink:href="#DejaVuSans-32"/>
     <use xlink:href="#DejaVuSans-30" transform="translate(63.623047 0)"/>
     <use xlink:href="#DejaVuSans-32" transform="translate(127.246094 0)"/>
     <use xlink:href="#DejaVuSans-35" transform="translate(190.869141 0)"/>
     <use xlink:href="#DejaVuSans-2d" transform="translate(254.492188 0)"/>
     <use xlink:href="#DejaVuSans-30" transform="translate(290.576172 0)"/>
     <use xlink:href="#DejaVuSans-37" transform="translate(354.199219 0)"/>
     <use xlink:href="#DejaVuSans-2d" transform="translate(417.822266 0)"/>
     <use xlink:href="#DejaVuSans-30" transform="translate(453.90625 0)"/>
     <use xlink:href="#DejaVuSans-32" transform="translate(517.529297 0)"/>
     <use xlink:href="#DejaVuSans-20" transform="translate(581.152344 0)"/>
     <use xlink:href="#DejaVuSans-74" transform="translate(612.939453 0)"/>
     <use xlink:href="#DejaVuSans-72" transform="translate(652.148438 0)"/>
     <use xlink:href="#DejaVuSans-69" transform="translate(693.261719 0)"/>
     <use xlink:href="#DejaVuSans-61" transform="translate(721.044922 0)"/>
     <use xlink:href="#DejaVuSans-6c" transform="translate(782.324219 0)"/>
     <use xlink:href="#DejaVuSans-20" transform="translate(810.107422 0)"/>
     <use xlink:href="#DejaVuSans-31" transform="translate(841.894531 0)"/>
     <use xlink:href="#DejaVuSans-39" transform="translate(905.517578 0)"/>
    </g>
   </g>
  </g>
 </g>
 <defs>
  <clipPath id="pbb8aec07f3">
   <rect x="57.6" y="41.472" width="357.12" height="266.112"/>
  </clipPath>
 </defs>
</svg>
