<?xml version="1.0" encoding="utf-8" standalone="no"?>
<!DOCTYPE svg PUBLIC "-//W3C//DTD SVG 1.1//EN"
  "http://www.w3.org/Graphics/SVG/1.1/DTD/svg11.dtd">
<svg xmlns:xlink="http://www.w3.org/1999/xlink" width="460.8pt" height="345.6pt" viewBox="0 0 460.8 345.6" xmlns="http://www.w3.org/2000/svg" version="1.1">
 <metadata>
  <rdf:RDF xmlns:dc="http://purl.org/dc/elements/1.1/" xmlns:cc="http://creativecommons.org/ns#" xmlns:rdf="http://www.w3.org/1999/02/22-rdf-syntax-ns#">
   <cc:Work>
    <dc:type rdf:resource="http://purl.org/dc/dcmitype/StillImage"/>
    <dc:date>2025-07-16T22:12:31.171801</dc:date>
    <dc:format>image/svg+xml</dc:format>
    <dc:creator>
     <cc:Agent>
      <dc:title>Matplotlib v3.10.3, https://matplotlib.org/</dc:title>
     </cc:Agent>
    </dc:creator>
   </cc:Work>
  </rdf:RDF>
 </metadata>
 <defs>
  <style type="text/css">*{stroke-linejoin: round; stroke-linecap: butt}</style>
 </defs>
 <g id="figure_1">
  <g id="patch_1">
   <path d="M 0 345.6 
L 460.8 345.6 
L 460.8 0 
L 0 0 
z
" style="fill: #ffffff"/>
  </g>
  <g id="axes_1">
   <g id="patch_2">
    <path d="M 57.6 307.584 
L 414.72 307.584 
L 414.72 41.472 
L 57.6 41.472 
z
" style="fill: #ffffff"/>
   </g>
   <g id="matplotlib.axis_1">
    <g id="xtick_1">
     <g id="line2d_1">
      <defs>
       <path id="m6c08799cdd" d="M 0 0 
L 0 3.5 
" style="stroke: #000000; stroke-width: 0.8"/>
      </defs>
      <g>
       <use xlink:href="#m6c08799cdd" x="73.979011" y="307.584" style="stroke: #000000; stroke-width: 0.8"/>
      </g>
     </g>
     <g id="text_1">
      <!-- 0.000 -->
      <g transform="translate(59.664948 322.182437) scale(0.1 -0.1)">
       <defs>
        <path id="DejaVuSans-30" d="M 2034 4250 
Q 1547 4250 1301 3770 
Q 1056 3291 1056 2328 
Q 1056 1369 1301 889 
Q 1547 409 2034 409 
Q 2525 409 2770 889 
Q 3016 1369 3016 2328 
Q 3016 3291 2770 3770 
Q 2525 4250 2034 4250 
z
M 2034 4750 
Q 2819 4750 3233 4129 
Q 3647 3509 3647 2328 
Q 3647 1150 3233 529 
Q 2819 -91 2034 -91 
Q 1250 -91 836 529 
Q 422 1150 422 2328 
Q 422 3509 836 4129 
Q 1250 4750 2034 4750 
z
" transform="scale(0.015625)"/>
        <path id="DejaVuSans-2e" d="M 684 794 
L 1344 794 
L 1344 0 
L 684 0 
L 684 794 
z
" transform="scale(0.015625)"/>
       </defs>
       <use xlink:href="#DejaVuSans-30"/>
       <use xlink:href="#DejaVuSans-2e" transform="translate(63.623047 0)"/>
       <use xlink:href="#DejaVuSans-30" transform="translate(95.410156 0)"/>
       <use xlink:href="#DejaVuSans-30" transform="translate(159.033203 0)"/>
       <use xlink:href="#DejaVuSans-30" transform="translate(222.65625 0)"/>
      </g>
     </g>
    </g>
    <g id="xtick_2">
     <g id="line2d_2">
      <g>
       <use xlink:href="#m6c08799cdd" x="119.38945" y="307.584" style="stroke: #000000; stroke-width: 0.8"/>
      </g>
     </g>
     <g id="text_2">
      <!-- 0.025 -->
      <g transform="translate(105.075387 322.182437) scale(0.1 -0.1)">
       <defs>
        <path id="DejaVuSans-32" d="M 1228 531 
L 3431 531 
L 3431 0 
L 469 0 
L 469 531 
Q 828 903 1448 1529 
Q 2069 2156 2228 2338 
Q 2531 2678 2651 2914 
Q 2772 3150 2772 3378 
Q 2772 3750 2511 3984 
Q 2250 4219 1831 4219 
Q 1534 4219 1204 4116 
Q 875 4013 500 3803 
L 500 4441 
Q 881 4594 1212 4672 
Q 1544 4750 1819 4750 
Q 2544 4750 2975 4387 
Q 3406 4025 3406 3419 
Q 3406 3131 3298 2873 
Q 3191 2616 2906 2266 
Q 2828 2175 2409 1742 
Q 1991 1309 1228 531 
z
" transform="scale(0.015625)"/>
        <path id="DejaVuSans-35" d="M 691 4666 
L 3169 4666 
L 3169 4134 
L 1269 4134 
L 1269 2991 
Q 1406 3038 1543 3061 
Q 1681 3084 1819 3084 
Q 2600 3084 3056 2656 
Q 3513 2228 3513 1497 
Q 3513 744 3044 326 
Q 2575 -91 1722 -91 
Q 1428 -91 1123 -41 
Q 819 9 494 109 
L 494 744 
Q 775 591 1075 516 
Q 1375 441 1709 441 
Q 2250 441 2565 725 
Q 2881 1009 2881 1497 
Q 2881 1984 2565 2268 
Q 2250 2553 1709 2553 
Q 1456 2553 1204 2497 
Q 953 2441 691 2322 
L 691 4666 
z
" transform="scale(0.015625)"/>
       </defs>
       <use xlink:href="#DejaVuSans-30"/>
       <use xlink:href="#DejaVuSans-2e" transform="translate(63.623047 0)"/>
       <use xlink:href="#DejaVuSans-30" transform="translate(95.410156 0)"/>
       <use xlink:href="#DejaVuSans-32" transform="translate(159.033203 0)"/>
       <use xlink:href="#DejaVuSans-35" transform="translate(222.65625 0)"/>
      </g>
     </g>
    </g>
    <g id="xtick_3">
     <g id="line2d_3">
      <g>
       <use xlink:href="#m6c08799cdd" x="164.799888" y="307.584" style="stroke: #000000; stroke-width: 0.8"/>
      </g>
     </g>
     <g id="text_3">
      <!-- 0.050 -->
      <g transform="translate(150.485826 322.182437) scale(0.1 -0.1)">
       <use xlink:href="#DejaVuSans-30"/>
       <use xlink:href="#DejaVuSans-2e" transform="translate(63.623047 0)"/>
       <use xlink:href="#DejaVuSans-30" transform="translate(95.410156 0)"/>
       <use xlink:href="#DejaVuSans-35" transform="translate(159.033203 0)"/>
       <use xlink:href="#DejaVuSans-30" transform="translate(222.65625 0)"/>
      </g>
     </g>
    </g>
    <g id="xtick_4">
     <g id="line2d_4">
      <g>
       <use xlink:href="#m6c08799cdd" x="210.210327" y="307.584" style="stroke: #000000; stroke-width: 0.8"/>
      </g>
     </g>
     <g id="text_4">
      <!-- 0.075 -->
      <g transform="translate(195.896265 322.182437) scale(0.1 -0.1)">
       <defs>
        <path id="DejaVuSans-37" d="M 525 4666 
L 3525 4666 
L 3525 4397 
L 1831 0 
L 1172 0 
L 2766 4134 
L 525 4134 
L 525 4666 
z
" transform="scale(0.015625)"/>
       </defs>
       <use xlink:href="#DejaVuSans-30"/>
       <use xlink:href="#DejaVuSans-2e" transform="translate(63.623047 0)"/>
       <use xlink:href="#DejaVuSans-30" transform="translate(95.410156 0)"/>
       <use xlink:href="#DejaVuSans-37" transform="translate(159.033203 0)"/>
       <use xlink:href="#DejaVuSans-35" transform="translate(222.65625 0)"/>
      </g>
     </g>
    </g>
    <g id="xtick_5">
     <g id="line2d_5">
      <g>
       <use xlink:href="#m6c08799cdd" x="255.620766" y="307.584" style="stroke: #000000; stroke-width: 0.8"/>
      </g>
     </g>
     <g id="text_5">
      <!-- 0.100 -->
      <g transform="translate(241.306703 322.182437) scale(0.1 -0.1)">
       <defs>
        <path id="DejaVuSans-31" d="M 794 531 
L 1825 531 
L 1825 4091 
L 703 3866 
L 703 4441 
L 1819 4666 
L 2450 4666 
L 2450 531 
L 3481 531 
L 3481 0 
L 794 0 
L 794 531 
z
" transform="scale(0.015625)"/>
       </defs>
       <use xlink:href="#DejaVuSans-30"/>
       <use xlink:href="#DejaVuSans-2e" transform="translate(63.623047 0)"/>
       <use xlink:href="#DejaVuSans-31" transform="translate(95.410156 0)"/>
       <use xlink:href="#DejaVuSans-30" transform="translate(159.033203 0)"/>
       <use xlink:href="#DejaVuSans-30" transform="translate(222.65625 0)"/>
      </g>
     </g>
    </g>
    <g id="xtick_6">
     <g id="line2d_6">
      <g>
       <use xlink:href="#m6c08799cdd" x="301.031204" y="307.584" style="stroke: #000000; stroke-width: 0.8"/>
      </g>
     </g>
     <g id="text_6">
      <!-- 0.125 -->
      <g transform="translate(286.717142 322.182437) scale(0.1 -0.1)">
       <use xlink:href="#DejaVuSans-30"/>
       <use xlink:href="#DejaVuSans-2e" transform="translate(63.623047 0)"/>
       <use xlink:href="#DejaVuSans-31" transform="translate(95.410156 0)"/>
       <use xlink:href="#DejaVuSans-32" transform="translate(159.033203 0)"/>
       <use xlink:href="#DejaVuSans-35" transform="translate(222.65625 0)"/>
      </g>
     </g>
    </g>
    <g id="xtick_7">
     <g id="line2d_7">
      <g>
       <use xlink:href="#m6c08799cdd" x="346.441643" y="307.584" style="stroke: #000000; stroke-width: 0.8"/>
      </g>
     </g>
     <g id="text_7">
      <!-- 0.150 -->
      <g transform="translate(332.127581 322.182437) scale(0.1 -0.1)">
       <use xlink:href="#DejaVuSans-30"/>
       <use xlink:href="#DejaVuSans-2e" transform="translate(63.623047 0)"/>
       <use xlink:href="#DejaVuSans-31" transform="translate(95.410156 0)"/>
       <use xlink:href="#DejaVuSans-35" transform="translate(159.033203 0)"/>
       <use xlink:href="#DejaVuSans-30" transform="translate(222.65625 0)"/>
      </g>
     </g>
    </g>
    <g id="xtick_8">
     <g id="line2d_8">
      <g>
       <use xlink:href="#m6c08799cdd" x="391.852082" y="307.584" style="stroke: #000000; stroke-width: 0.8"/>
      </g>
     </g>
     <g id="text_8">
      <!-- 0.175 -->
      <g transform="translate(377.538019 322.182437) scale(0.1 -0.1)">
       <use xlink:href="#DejaVuSans-30"/>
       <use xlink:href="#DejaVuSans-2e" transform="translate(63.623047 0)"/>
       <use xlink:href="#DejaVuSans-31" transform="translate(95.410156 0)"/>
       <use xlink:href="#DejaVuSans-37" transform="translate(159.033203 0)"/>
       <use xlink:href="#DejaVuSans-35" transform="translate(222.65625 0)"/>
      </g>
     </g>
    </g>
    <g id="text_9">
     <!-- Strain -->
     <g transform="translate(221.348281 335.860562) scale(0.1 -0.1)">
      <defs>
       <path id="DejaVuSans-53" d="M 3425 4513 
L 3425 3897 
Q 3066 4069 2747 4153 
Q 2428 4238 2131 4238 
Q 1616 4238 1336 4038 
Q 1056 3838 1056 3469 
Q 1056 3159 1242 3001 
Q 1428 2844 1947 2747 
L 2328 2669 
Q 3034 2534 3370 2195 
Q 3706 1856 3706 1288 
Q 3706 609 3251 259 
Q 2797 -91 1919 -91 
Q 1588 -91 1214 -16 
Q 841 59 441 206 
L 441 856 
Q 825 641 1194 531 
Q 1563 422 1919 422 
Q 2459 422 2753 634 
Q 3047 847 3047 1241 
Q 3047 1584 2836 1778 
Q 2625 1972 2144 2069 
L 1759 2144 
Q 1053 2284 737 2584 
Q 422 2884 422 3419 
Q 422 4038 858 4394 
Q 1294 4750 2059 4750 
Q 2388 4750 2728 4690 
Q 3069 4631 3425 4513 
z
" transform="scale(0.015625)"/>
       <path id="DejaVuSans-74" d="M 1172 4494 
L 1172 3500 
L 2356 3500 
L 2356 3053 
L 1172 3053 
L 1172 1153 
Q 1172 725 1289 603 
Q 1406 481 1766 481 
L 2356 481 
L 2356 0 
L 1766 0 
Q 1100 0 847 248 
Q 594 497 594 1153 
L 594 3053 
L 172 3053 
L 172 3500 
L 594 3500 
L 594 4494 
L 1172 4494 
z
" transform="scale(0.015625)"/>
       <path id="DejaVuSans-72" d="M 2631 2963 
Q 2534 3019 2420 3045 
Q 2306 3072 2169 3072 
Q 1681 3072 1420 2755 
Q 1159 2438 1159 1844 
L 1159 0 
L 581 0 
L 581 3500 
L 1159 3500 
L 1159 2956 
Q 1341 3275 1631 3429 
Q 1922 3584 2338 3584 
Q 2397 3584 2469 3576 
Q 2541 3569 2628 3553 
L 2631 2963 
z
" transform="scale(0.015625)"/>
       <path id="DejaVuSans-61" d="M 2194 1759 
Q 1497 1759 1228 1600 
Q 959 1441 959 1056 
Q 959 750 1161 570 
Q 1363 391 1709 391 
Q 2188 391 2477 730 
Q 2766 1069 2766 1631 
L 2766 1759 
L 2194 1759 
z
M 3341 1997 
L 3341 0 
L 2766 0 
L 2766 531 
Q 2569 213 2275 61 
Q 1981 -91 1556 -91 
Q 1019 -91 701 211 
Q 384 513 384 1019 
Q 384 1609 779 1909 
Q 1175 2209 1959 2209 
L 2766 2209 
L 2766 2266 
Q 2766 2663 2505 2880 
Q 2244 3097 1772 3097 
Q 1472 3097 1187 3025 
Q 903 2953 641 2809 
L 641 3341 
Q 956 3463 1253 3523 
Q 1550 3584 1831 3584 
Q 2591 3584 2966 3190 
Q 3341 2797 3341 1997 
z
" transform="scale(0.015625)"/>
       <path id="DejaVuSans-69" d="M 603 3500 
L 1178 3500 
L 1178 0 
L 603 0 
L 603 3500 
z
M 603 4863 
L 1178 4863 
L 1178 4134 
L 603 4134 
L 603 4863 
z
" transform="scale(0.015625)"/>
       <path id="DejaVuSans-6e" d="M 3513 2113 
L 3513 0 
L 2938 0 
L 2938 2094 
Q 2938 2591 2744 2837 
Q 2550 3084 2163 3084 
Q 1697 3084 1428 2787 
Q 1159 2491 1159 1978 
L 1159 0 
L 581 0 
L 581 3500 
L 1159 3500 
L 1159 2956 
Q 1366 3272 1645 3428 
Q 1925 3584 2291 3584 
Q 2894 3584 3203 3211 
Q 3513 2838 3513 2113 
z
" transform="scale(0.015625)"/>
      </defs>
      <use xlink:href="#DejaVuSans-53"/>
      <use xlink:href="#DejaVuSans-74" transform="translate(63.476562 0)"/>
      <use xlink:href="#DejaVuSans-72" transform="translate(102.685547 0)"/>
      <use xlink:href="#DejaVuSans-61" transform="translate(143.798828 0)"/>
      <use xlink:href="#DejaVuSans-69" transform="translate(205.078125 0)"/>
      <use xlink:href="#DejaVuSans-6e" transform="translate(232.861328 0)"/>
     </g>
    </g>
   </g>
   <g id="matplotlib.axis_2">
    <g id="ytick_1">
     <g id="line2d_9">
      <defs>
       <path id="mecb0983a2b" d="M 0 0 
L -3.5 0 
" style="stroke: #000000; stroke-width: 0.8"/>
      </defs>
      <g>
       <use xlink:href="#mecb0983a2b" x="57.6" y="277.913166" style="stroke: #000000; stroke-width: 0.8"/>
      </g>
     </g>
     <g id="text_10">
      <!-- 0 -->
      <g transform="translate(44.2375 281.712385) scale(0.1 -0.1)">
       <use xlink:href="#DejaVuSans-30"/>
      </g>
     </g>
    </g>
    <g id="ytick_2">
     <g id="line2d_10">
      <g>
       <use xlink:href="#mecb0983a2b" x="57.6" y="241.369761" style="stroke: #000000; stroke-width: 0.8"/>
      </g>
     </g>
     <g id="text_11">
      <!-- 250 -->
      <g transform="translate(31.5125 245.16898) scale(0.1 -0.1)">
       <use xlink:href="#DejaVuSans-32"/>
       <use xlink:href="#DejaVuSans-35" transform="translate(63.623047 0)"/>
       <use xlink:href="#DejaVuSans-30" transform="translate(127.246094 0)"/>
      </g>
     </g>
    </g>
    <g id="ytick_3">
     <g id="line2d_11">
      <g>
       <use xlink:href="#mecb0983a2b" x="57.6" y="204.826356" style="stroke: #000000; stroke-width: 0.8"/>
      </g>
     </g>
     <g id="text_12">
      <!-- 500 -->
      <g transform="translate(31.5125 208.625575) scale(0.1 -0.1)">
       <use xlink:href="#DejaVuSans-35"/>
       <use xlink:href="#DejaVuSans-30" transform="translate(63.623047 0)"/>
       <use xlink:href="#DejaVuSans-30" transform="translate(127.246094 0)"/>
      </g>
     </g>
    </g>
    <g id="ytick_4">
     <g id="line2d_12">
      <g>
       <use xlink:href="#mecb0983a2b" x="57.6" y="168.282952" style="stroke: #000000; stroke-width: 0.8"/>
      </g>
     </g>
     <g id="text_13">
      <!-- 750 -->
      <g transform="translate(31.5125 172.08217) scale(0.1 -0.1)">
       <use xlink:href="#DejaVuSans-37"/>
       <use xlink:href="#DejaVuSans-35" transform="translate(63.623047 0)"/>
       <use xlink:href="#DejaVuSans-30" transform="translate(127.246094 0)"/>
      </g>
     </g>
    </g>
    <g id="ytick_5">
     <g id="line2d_13">
      <g>
       <use xlink:href="#mecb0983a2b" x="57.6" y="131.739547" style="stroke: #000000; stroke-width: 0.8"/>
      </g>
     </g>
     <g id="text_14">
      <!-- 1000 -->
      <g transform="translate(25.15 135.538766) scale(0.1 -0.1)">
       <use xlink:href="#DejaVuSans-31"/>
       <use xlink:href="#DejaVuSans-30" transform="translate(63.623047 0)"/>
       <use xlink:href="#DejaVuSans-30" transform="translate(127.246094 0)"/>
       <use xlink:href="#DejaVuSans-30" transform="translate(190.869141 0)"/>
      </g>
     </g>
    </g>
    <g id="ytick_6">
     <g id="line2d_14">
      <g>
       <use xlink:href="#mecb0983a2b" x="57.6" y="95.196142" style="stroke: #000000; stroke-width: 0.8"/>
      </g>
     </g>
     <g id="text_15">
      <!-- 1250 -->
      <g transform="translate(25.15 98.995361) scale(0.1 -0.1)">
       <use xlink:href="#DejaVuSans-31"/>
       <use xlink:href="#DejaVuSans-32" transform="translate(63.623047 0)"/>
       <use xlink:href="#DejaVuSans-35" transform="translate(127.246094 0)"/>
       <use xlink:href="#DejaVuSans-30" transform="translate(190.869141 0)"/>
      </g>
     </g>
    </g>
    <g id="ytick_7">
     <g id="line2d_15">
      <g>
       <use xlink:href="#mecb0983a2b" x="57.6" y="58.652737" style="stroke: #000000; stroke-width: 0.8"/>
      </g>
     </g>
     <g id="text_16">
      <!-- 1500 -->
      <g transform="translate(25.15 62.451956) scale(0.1 -0.1)">
       <use xlink:href="#DejaVuSans-31"/>
       <use xlink:href="#DejaVuSans-35" transform="translate(63.623047 0)"/>
       <use xlink:href="#DejaVuSans-30" transform="translate(127.246094 0)"/>
       <use xlink:href="#DejaVuSans-30" transform="translate(190.869141 0)"/>
      </g>
     </g>
    </g>
    <g id="text_17">
     <!-- Stress [Pa] -->
     <g transform="translate(19.070312 201.235813) rotate(-90) scale(0.1 -0.1)">
      <defs>
       <path id="DejaVuSans-65" d="M 3597 1894 
L 3597 1613 
L 953 1613 
Q 991 1019 1311 708 
Q 1631 397 2203 397 
Q 2534 397 2845 478 
Q 3156 559 3463 722 
L 3463 178 
Q 3153 47 2828 -22 
Q 2503 -91 2169 -91 
Q 1331 -91 842 396 
Q 353 884 353 1716 
Q 353 2575 817 3079 
Q 1281 3584 2069 3584 
Q 2775 3584 3186 3129 
Q 3597 2675 3597 1894 
z
M 3022 2063 
Q 3016 2534 2758 2815 
Q 2500 3097 2075 3097 
Q 1594 3097 1305 2825 
Q 1016 2553 972 2059 
L 3022 2063 
z
" transform="scale(0.015625)"/>
       <path id="DejaVuSans-73" d="M 2834 3397 
L 2834 2853 
Q 2591 2978 2328 3040 
Q 2066 3103 1784 3103 
Q 1356 3103 1142 2972 
Q 928 2841 928 2578 
Q 928 2378 1081 2264 
Q 1234 2150 1697 2047 
L 1894 2003 
Q 2506 1872 2764 1633 
Q 3022 1394 3022 966 
Q 3022 478 2636 193 
Q 2250 -91 1575 -91 
Q 1294 -91 989 -36 
Q 684 19 347 128 
L 347 722 
Q 666 556 975 473 
Q 1284 391 1588 391 
Q 1994 391 2212 530 
Q 2431 669 2431 922 
Q 2431 1156 2273 1281 
Q 2116 1406 1581 1522 
L 1381 1569 
Q 847 1681 609 1914 
Q 372 2147 372 2553 
Q 372 3047 722 3315 
Q 1072 3584 1716 3584 
Q 2034 3584 2315 3537 
Q 2597 3491 2834 3397 
z
" transform="scale(0.015625)"/>
       <path id="DejaVuSans-20" transform="scale(0.015625)"/>
       <path id="DejaVuSans-5b" d="M 550 4863 
L 1875 4863 
L 1875 4416 
L 1125 4416 
L 1125 -397 
L 1875 -397 
L 1875 -844 
L 550 -844 
L 550 4863 
z
" transform="scale(0.015625)"/>
       <path id="DejaVuSans-50" d="M 1259 4147 
L 1259 2394 
L 2053 2394 
Q 2494 2394 2734 2622 
Q 2975 2850 2975 3272 
Q 2975 3691 2734 3919 
Q 2494 4147 2053 4147 
L 1259 4147 
z
M 628 4666 
L 2053 4666 
Q 2838 4666 3239 4311 
Q 3641 3956 3641 3272 
Q 3641 2581 3239 2228 
Q 2838 1875 2053 1875 
L 1259 1875 
L 1259 0 
L 628 0 
L 628 4666 
z
" transform="scale(0.015625)"/>
       <path id="DejaVuSans-5d" d="M 1947 4863 
L 1947 -844 
L 622 -844 
L 622 -397 
L 1369 -397 
L 1369 4416 
L 622 4416 
L 622 4863 
L 1947 4863 
z
" transform="scale(0.015625)"/>
      </defs>
      <use xlink:href="#DejaVuSans-53"/>
      <use xlink:href="#DejaVuSans-74" transform="translate(63.476562 0)"/>
      <use xlink:href="#DejaVuSans-72" transform="translate(102.685547 0)"/>
      <use xlink:href="#DejaVuSans-65" transform="translate(141.548828 0)"/>
      <use xlink:href="#DejaVuSans-73" transform="translate(203.072266 0)"/>
      <use xlink:href="#DejaVuSans-73" transform="translate(255.171875 0)"/>
      <use xlink:href="#DejaVuSans-20" transform="translate(307.271484 0)"/>
      <use xlink:href="#DejaVuSans-5b" transform="translate(339.058594 0)"/>
      <use xlink:href="#DejaVuSans-50" transform="translate(378.072266 0)"/>
      <use xlink:href="#DejaVuSans-61" transform="translate(433.875 0)"/>
      <use xlink:href="#DejaVuSans-5d" transform="translate(495.154297 0)"/>
     </g>
    </g>
   </g>
   <g id="line2d_16">
    <path d="M 73.979011 278.207975 
L 73.979011 278.260335 
L 73.979053 278.136101 
L 73.979335 278.158371 
L 75.989452 268.606061 
L 76.650189 267.472084 
L 77.336168 267.657434 
L 78.698723 268.805586 
L 80.119185 269.623406 
L 81.505002 270.002888 
L 84.561717 270.302252 
L 87.045298 271.36967 
L 89.606089 272.654023 
L 91.305695 273.40097 
L 92.146094 273.994459 
L 93.784327 275.872918 
L 94.569294 276.304322 
L 95.329513 276.107263 
L 96.064986 275.449063 
L 97.474559 273.614977 
L 99.483993 270.96492 
L 100.94504 269.451306 
L 103.349432 267.259772 
L 104.95203 266.220087 
L 107.364338 265.177628 
L 114.6256 262.037583 
L 120.778626 258.908359 
L 122.737576 257.878226 
L 124.704446 256.925747 
L 127.991801 255.208757 
L 134.562552 252.042247 
L 136.523482 251.121506 
L 144.348397 246.835194 
L 152.25844 242.288189 
L 156.226825 240.317903 
L 158.855917 238.665007 
L 162.791636 236.477169 
L 177.19126 227.870032 
L 178.650327 226.913546 
L 181.073527 225.536749 
L 193.166246 218.101438 
L 194.776763 217.213977 
L 212.286556 205.691161 
L 217.9199 202.040245 
L 224.339201 197.767491 
L 227.540437 195.506936 
L 230.749592 193.2624 
L 235.124813 190.095274 
L 240.373099 186.759284 
L 242.998231 185.095294 
L 244.965101 183.794301 
L 249.035442 180.969834 
L 257.156328 174.490753 
L 259.131117 173.263099 
L 261.107885 171.874593 
L 263.080694 170.586542 
L 268.311162 166.597282 
L 274.178456 161.964334 
L 276.139386 160.315752 
L 278.108236 158.933409 
L 280.085994 157.441365 
L 287.991088 151.655613 
L 290.600382 149.499823 
L 297.791781 143.646279 
L 305.672128 137.721245 
L 317.507992 127.306522 
L 319.897535 125.146418 
L 328.651937 117.733038 
L 332.621312 114.074101 
L 335.823553 111.403091 
L 337.43407 109.991165 
L 340.350224 107.301049 
L 344.263176 103.984164 
L 347.831654 100.89161 
L 350.241985 98.583595 
L 354.24582 94.750065 
L 356.655161 92.665148 
L 367.640727 82.138876 
L 376.08629 73.74929 
L 379.986374 70.010861 
L 381.287061 68.627901 
L 382.748108 67.489609 
L 390.339413 62.152518 
L 394.530519 59.752984 
L 395.192246 59.164117 
L 396.557276 57.359921 
L 397.218013 56.130418 
L 397.871698 54.073235 
L 398.205469 53.655369 
L 398.487273 55.225123 
L 398.337617 72.964268 
L 398.339318 75.822631 
L 398.339195 72.903043 
L 398.339689 75.745711 
L 398.339813 84.294589 
L 398.335421 84.2704 
L 397.677189 84.262504 
L 397.017441 85.937124 
L 396.333194 87.342039 
L 394.955791 87.434502 
L 394.270554 87.679247 
L 393.616499 88.200014 
L 391.588504 89.138531 
L 390.901288 89.524484 
L 390.247727 91.489224 
L 389.594908 92.675278 
L 388.910414 93.592629 
L 388.225363 94.715841 
L 385.539106 95.756586 
L 384.867974 96.349459 
L 384.212186 97.163889 
L 382.902589 100.41044 
L 382.227004 101.225332 
L 380.235387 102.338895 
L 378.899188 103.88964 
L 378.229047 104.8754 
L 375.5809 107.797088 
L 373.580374 109.802194 
L 372.253702 110.79612 
L 370.894983 112.448457 
L 369.563857 114.046657 
L 368.225307 115.320995 
L 367.568281 115.845152 
L 364.898728 118.691507 
L 361.598257 121.822426 
L 360.928116 122.535322 
L 359.595258 123.598349 
L 358.283929 124.926151 
L 356.950575 126.097877 
L 352.940678 130.209653 
L 347.051699 135.542585 
L 346.380321 136.353625 
L 343.074653 139.238489 
L 342.42134 139.751784 
L 341.089471 141.213013 
L 339.08115 142.981001 
L 338.402657 143.396565 
L 329.747722 150.991058 
L 328.429959 152.036135 
L 325.063167 154.760917 
L 324.413565 155.27113 
L 323.059919 156.615264 
L 321.761103 157.760701 
L 321.111996 158.134482 
L 318.450734 160.382562 
L 317.782819 160.950475 
L 316.463572 161.72685 
L 313.808867 164.044725 
L 311.149336 166.047135 
L 308.510593 167.979135 
L 307.156699 169.293686 
L 303.191222 172.214372 
L 301.210866 173.926124 
L 298.561481 175.861975 
L 295.230448 178.614952 
L 294.563029 178.897291 
L 292.587993 180.299664 
L 291.263919 181.666909 
L 289.952405 182.430774 
L 289.303051 182.801782 
L 287.309207 184.637023 
L 286.658616 185.154863 
L 284.001312 186.621176 
L 282.662638 187.910768 
L 281.34636 188.813713 
L 279.360188 189.980316 
L 278.014832 191.192178 
L 276.033857 192.428999 
L 275.372624 192.789299 
L 270.046773 196.614307 
L 269.366733 196.98285 
L 267.34839 198.365882 
L 262.736962 201.454739 
L 259.469404 203.630944 
L 254.857001 206.783038 
L 252.865632 208.08457 
L 250.882801 209.600726 
L 248.235644 211.059837 
L 244.917355 213.215858 
L 243.602562 213.804379 
L 241.614286 215.40489 
L 240.949435 215.847364 
L 239.602223 216.345405 
L 236.283192 218.701798 
L 234.979782 219.363812 
L 228.939973 223.116338 
L 226.296404 224.511316 
L 222.310712 227.047585 
L 220.993938 227.595623 
L 217.672185 229.959181 
L 216.359867 230.340126 
L 209.057727 234.970407 
L 208.407042 235.191632 
L 203.745007 237.841958 
L 203.065709 237.991583 
L 200.403951 239.725598 
L 199.072825 240.317662 
L 198.423224 240.571907 
L 195.10444 242.681899 
L 192.449604 243.915906 
L 191.769316 244.316881 
L 190.418145 245.363808 
L 189.084049 246.060526 
L 188.428509 246.22446 
L 187.750696 246.52263 
L 185.102054 248.309492 
L 184.432902 248.615096 
L 183.078019 248.974748 
L 178.460033 251.485436 
L 174.44558 253.342595 
L 170.473731 255.713933 
L 169.138645 256.1068 
L 167.816922 256.786686 
L 167.15371 257.29975 
L 165.830008 258.007022 
L 164.501604 258.504755 
L 163.176169 259.154134 
L 161.82673 259.819537 
L 160.520351 260.483361 
L 157.196525 262.137402 
L 155.852035 262.701155 
L 152.521869 264.672019 
L 151.844551 264.757649 
L 149.843778 265.888661 
L 148.525273 266.566582 
L 147.198848 266.909915 
L 146.54504 267.083286 
L 145.214903 267.859564 
L 144.546618 268.274251 
L 142.587907 269.157279 
L 141.234013 269.941434 
L 138.539091 271.089971 
L 137.21044 271.83815 
L 135.90406 272.262545 
L 124.586056 277.130655 
L 123.928041 277.361649 
L 122.605081 278.04712 
L 121.935311 278.276227 
L 119.921793 279.263392 
L 119.271944 279.449975 
L 117.932899 279.972783 
L 115.948459 280.926072 
L 115.299105 281.32905 
L 113.303034 281.935289 
L 112.65269 282.241162 
L 111.976115 282.42266 
L 109.972964 283.488965 
L 109.304308 283.611964 
L 100.00387 287.196472 
L 98.646264 287.55024 
L 96.612331 288.590849 
L 95.256953 289.098905 
L 93.947998 289.238752 
L 92.640629 289.903577 
L 91.324103 290.619208 
L 88.653189 291.209308 
L 87.30276 291.98314 
L 86.644002 292.242522 
L 84.655603 292.490842 
L 83.310742 293.011224 
L 81.985678 293.70332 
L 80.639456 294.071285 
L 79.295956 294.538897 
L 77.957438 295.062013 
L 77.288782 295.288038 
L 76.61963 295.289527 
L 75.283678 294.964809 
L 74.62257 294.983459 
L 74.00186 295.488 
L 73.832902 293.52334 
L 73.832902 293.52334 
" clip-path="url(#pe9a9fb6892)" style="fill: none; stroke: #ff0000; stroke-width: 1.5; stroke-linecap: square"/>
   </g>
   <g id="line2d_17">
    <path d="M 73.979011 278.207975 
L 73.979011 278.260335 
L 73.979053 278.136101 
L 73.979335 278.158371 
L 75.989452 268.606061 
L 76.650189 267.472084 
L 77.336168 267.657434 
L 78.698723 268.805586 
L 79.468841 278.165206 
L 80.119185 278.232999 
L 80.799225 278.023151 
L 81.505002 277.572179 
L 83.765862 275.723765 
L 86.204899 274.569449 
L 87.045298 274.034508 
L 90.459357 273.052765 
L 91.305695 273.40097 
L 92.146094 273.994459 
L 93.784327 275.872918 
L 94.569294 276.304322 
L 95.329513 276.107263 
L 96.064986 275.449063 
L 97.474559 273.614977 
L 99.483993 270.96492 
L 100.94504 269.451306 
L 103.349432 267.259772 
L 104.95203 266.220087 
L 107.364338 265.177628 
L 114.6256 262.037583 
L 120.778626 258.908359 
L 122.737576 257.878226 
L 124.704446 256.925747 
L 127.991801 255.208757 
L 134.562552 252.042247 
L 136.523482 251.121506 
L 144.348397 246.835194 
L 152.25844 242.288189 
L 156.226825 240.317903 
L 158.855917 238.665007 
L 162.791636 236.477169 
L 177.19126 227.870032 
L 178.650327 226.913546 
L 181.073527 225.536749 
L 193.166246 218.101438 
L 194.776763 217.213977 
L 212.286556 205.691161 
L 217.9199 202.040245 
L 224.339201 197.767491 
L 227.540437 195.506936 
L 230.749592 193.2624 
L 235.124813 190.095274 
L 240.373099 186.759284 
L 242.998231 185.095294 
L 244.965101 183.794301 
L 249.035442 180.969834 
L 257.156328 174.490753 
L 259.131117 173.263099 
L 261.107885 171.874593 
L 263.080694 170.586542 
L 268.311162 166.597282 
L 274.178456 161.964334 
L 276.139386 160.315752 
L 278.108236 158.933409 
L 280.085994 157.441365 
L 287.991088 151.655613 
L 290.600382 149.499823 
L 297.791781 143.646279 
L 305.672128 137.721245 
L 317.507992 127.306522 
L 319.897535 125.146418 
L 328.651937 117.733038 
L 332.621312 114.074101 
L 335.823553 111.403091 
L 337.43407 109.991165 
L 340.350224 107.301049 
L 344.263176 103.984164 
L 347.831654 100.89161 
L 350.241985 98.583595 
L 354.24582 94.750065 
L 356.655161 92.665148 
L 367.640727 82.138876 
L 377.385988 72.459879 
L 379.33603 70.564309 
L 380.636717 69.074576 
L 381.937405 67.543398 
L 384.357635 65.416497 
L 385.938456 63.763909 
L 388.218124 61.16069 
L 391.001636 58.230529 
L 392.479015 56.794106 
L 393.152126 56.27642 
L 395.192246 55.254156 
L 395.892084 55.017038 
L 397.218013 55.938934 
L 397.871698 53.891505 
L 398.205469 53.568 
L 398.487273 55.130608 
L 398.340339 71.833083 
L 398.339813 84.294589 
L 398.335421 84.2704 
L 397.677189 84.262504 
L 397.017441 85.937124 
L 396.333194 87.342039 
L 394.955791 87.434502 
L 394.270554 87.679247 
L 393.616499 88.200014 
L 391.588504 89.138531 
L 390.901288 89.524484 
L 390.247727 91.489224 
L 389.594908 92.675278 
L 388.910414 93.592629 
L 388.225363 94.715841 
L 385.539106 95.756586 
L 384.867974 96.349459 
L 384.212186 97.163889 
L 382.902589 100.41044 
L 382.227004 101.225332 
L 380.235387 102.338895 
L 378.899188 103.88964 
L 378.229047 104.8754 
L 375.5809 107.797088 
L 373.580374 109.802194 
L 372.253702 110.79612 
L 370.894983 112.448457 
L 369.563857 114.046657 
L 368.225307 115.320995 
L 367.568281 115.845152 
L 364.898728 118.691507 
L 361.598257 121.822426 
L 360.928116 122.535322 
L 359.595258 123.598349 
L 358.283929 124.926151 
L 356.950575 126.097877 
L 352.940678 130.209653 
L 347.051699 135.542585 
L 346.380321 136.353625 
L 343.074653 139.238489 
L 342.42134 139.751784 
L 341.089471 141.213013 
L 339.08115 142.981001 
L 338.402657 143.396565 
L 329.747722 150.991058 
L 328.429959 152.036135 
L 325.063167 154.760917 
L 324.413565 155.27113 
L 323.059919 156.615264 
L 321.761103 157.760701 
L 321.111996 158.134482 
L 318.450734 160.382562 
L 317.782819 160.950475 
L 316.463572 161.72685 
L 313.808867 164.044725 
L 311.149336 166.047135 
L 308.510593 167.979135 
L 307.156699 169.293686 
L 303.191222 172.214372 
L 301.210866 173.926124 
L 298.561481 175.861975 
L 295.230448 178.614952 
L 294.563029 178.897291 
L 292.587993 180.299664 
L 291.263919 181.666909 
L 289.952405 182.430774 
L 289.303051 182.801782 
L 287.309207 184.637023 
L 286.658616 185.154863 
L 284.001312 186.621176 
L 282.662638 187.910768 
L 281.34636 188.813713 
L 279.360188 189.980316 
L 278.014832 191.192178 
L 276.033857 192.428999 
L 275.372624 192.789299 
L 270.046773 196.614307 
L 269.366733 196.98285 
L 267.34839 198.365882 
L 262.736962 201.454739 
L 259.469404 203.630944 
L 254.857001 206.783038 
L 252.865632 208.08457 
L 250.882801 209.600726 
L 248.235644 211.059837 
L 244.917355 213.215858 
L 243.602562 213.804379 
L 241.614286 215.40489 
L 240.949435 215.847364 
L 239.602223 216.345405 
L 236.283192 218.701798 
L 234.979782 219.363812 
L 228.939973 223.116338 
L 226.296404 224.511316 
L 222.310712 227.047585 
L 220.993938 227.595623 
L 217.672185 229.959181 
L 216.359867 230.340126 
L 209.057727 234.970407 
L 208.407042 235.191632 
L 203.745007 237.841958 
L 203.065709 237.991583 
L 200.403951 239.725598 
L 199.072825 240.317662 
L 198.423224 240.571907 
L 195.10444 242.681899 
L 192.449604 243.915906 
L 191.769316 244.316881 
L 190.418145 245.363808 
L 189.084049 246.060526 
L 188.428509 246.22446 
L 187.750696 246.52263 
L 185.102054 248.309492 
L 184.432902 248.615096 
L 183.078019 248.974748 
L 178.460033 251.485436 
L 174.44558 253.342595 
L 170.473731 255.713933 
L 169.138645 256.1068 
L 167.816922 256.786686 
L 167.15371 257.29975 
L 165.830008 258.007022 
L 164.501604 258.504755 
L 163.176169 259.154134 
L 161.82673 259.819537 
L 160.520351 260.483361 
L 157.196525 262.137402 
L 155.852035 262.701155 
L 152.521869 264.672019 
L 151.844551 264.757649 
L 149.843778 265.888661 
L 148.525273 266.566582 
L 147.198848 266.909915 
L 146.54504 267.083286 
L 145.214903 267.859564 
L 144.546618 268.274251 
L 142.587907 269.157279 
L 141.234013 269.941434 
L 138.539091 271.089971 
L 137.21044 271.83815 
L 135.90406 272.262545 
L 124.586056 277.130655 
L 123.928041 277.361649 
L 122.605081 278.04712 
L 121.935311 278.276227 
L 119.921793 279.263392 
L 119.271944 279.449975 
L 117.932899 279.972783 
L 115.948459 280.926072 
L 115.299105 281.32905 
L 113.303034 281.935289 
L 112.65269 282.241162 
L 111.976115 282.42266 
L 109.972964 283.488965 
L 109.304308 283.611964 
L 100.00387 287.196472 
L 98.646264 287.55024 
L 96.612331 288.590849 
L 95.256953 289.098905 
L 93.947998 289.238752 
L 92.640629 289.903577 
L 91.324103 290.619208 
L 88.653189 291.209308 
L 87.30276 291.98314 
L 86.644002 292.242522 
L 84.655603 292.490842 
L 83.310742 293.011224 
L 81.985678 293.70332 
L 80.639456 294.071285 
L 79.295956 294.538897 
L 77.957438 295.062013 
L 77.288782 295.288038 
L 76.61963 295.289527 
L 75.283678 294.964809 
L 74.62257 294.983459 
L 74.00186 295.488 
L 73.832902 293.52334 
L 73.832902 293.52334 
" clip-path="url(#pe9a9fb6892)" style="fill: none; stroke: #000000; stroke-width: 1.5; stroke-linecap: square"/>
   </g>
   <g id="patch_3">
    <path d="M 57.6 307.584 
L 57.6 41.472 
" style="fill: none; stroke: #000000; stroke-width: 0.8; stroke-linejoin: miter; stroke-linecap: square"/>
   </g>
   <g id="patch_4">
    <path d="M 414.72 307.584 
L 414.72 41.472 
" style="fill: none; stroke: #000000; stroke-width: 0.8; stroke-linejoin: miter; stroke-linecap: square"/>
   </g>
   <g id="patch_5">
    <path d="M 57.6 307.584 
L 414.72 307.584 
" style="fill: none; stroke: #000000; stroke-width: 0.8; stroke-linejoin: miter; stroke-linecap: square"/>
   </g>
   <g id="patch_6">
    <path d="M 57.6 41.472 
L 414.72 41.472 
" style="fill: none; stroke: #000000; stroke-width: 0.8; stroke-linejoin: miter; stroke-linecap: square"/>
   </g>
   <g id="text_18">
    <!-- 2025-07-02 trial 26 -->
    <g transform="translate(178.0125 35.472) scale(0.12 -0.12)">
     <defs>
      <path id="DejaVuSans-2d" d="M 313 2009 
L 1997 2009 
L 1997 1497 
L 313 1497 
L 313 2009 
z
" transform="scale(0.015625)"/>
      <path id="DejaVuSans-6c" d="M 603 4863 
L 1178 4863 
L 1178 0 
L 603 0 
L 603 4863 
z
" transform="scale(0.015625)"/>
      <path id="DejaVuSans-36" d="M 2113 2584 
Q 1688 2584 1439 2293 
Q 1191 2003 1191 1497 
Q 1191 994 1439 701 
Q 1688 409 2113 409 
Q 2538 409 2786 701 
Q 3034 994 3034 1497 
Q 3034 2003 2786 2293 
Q 2538 2584 2113 2584 
z
M 3366 4563 
L 3366 3988 
Q 3128 4100 2886 4159 
Q 2644 4219 2406 4219 
Q 1781 4219 1451 3797 
Q 1122 3375 1075 2522 
Q 1259 2794 1537 2939 
Q 1816 3084 2150 3084 
Q 2853 3084 3261 2657 
Q 3669 2231 3669 1497 
Q 3669 778 3244 343 
Q 2819 -91 2113 -91 
Q 1303 -91 875 529 
Q 447 1150 447 2328 
Q 447 3434 972 4092 
Q 1497 4750 2381 4750 
Q 2619 4750 2861 4703 
Q 3103 4656 3366 4563 
z
" transform="scale(0.015625)"/>
     </defs>
     <use xlink:href="#DejaVuSans-32"/>
     <use xlink:href="#DejaVuSans-30" transform="translate(63.623047 0)"/>
     <use xlink:href="#DejaVuSans-32" transform="translate(127.246094 0)"/>
     <use xlink:href="#DejaVuSans-35" transform="translate(190.869141 0)"/>
     <use xlink:href="#DejaVuSans-2d" transform="translate(254.492188 0)"/>
     <use xlink:href="#DejaVuSans-30" transform="translate(290.576172 0)"/>
     <use xlink:href="#DejaVuSans-37" transform="translate(354.199219 0)"/>
     <use xlink:href="#DejaVuSans-2d" transform="translate(417.822266 0)"/>
     <use xlink:href="#DejaVuSans-30" transform="translate(453.90625 0)"/>
     <use xlink:href="#DejaVuSans-32" transform="translate(517.529297 0)"/>
     <use xlink:href="#DejaVuSans-20" transform="translate(581.152344 0)"/>
     <use xlink:href="#DejaVuSans-74" transform="translate(612.939453 0)"/>
     <use xlink:href="#DejaVuSans-72" transform="translate(652.148438 0)"/>
     <use xlink:href="#DejaVuSans-69" transform="translate(693.261719 0)"/>
     <use xlink:href="#DejaVuSans-61" transform="translate(721.044922 0)"/>
     <use xlink:href="#DejaVuSans-6c" transform="translate(782.324219 0)"/>
     <use xlink:href="#DejaVuSans-20" transform="translate(810.107422 0)"/>
     <use xlink:href="#DejaVuSans-32" transform="translate(841.894531 0)"/>
     <use xlink:href="#DejaVuSans-36" transform="translate(905.517578 0)"/>
    </g>
   </g>
  </g>
 </g>
 <defs>
  <clipPath id="pe9a9fb6892">
   <rect x="57.6" y="41.472" width="357.12" height="266.112"/>
  </clipPath>
 </defs>
</svg>
