<?xml version="1.0" encoding="utf-8" standalone="no"?>
<!DOCTYPE svg PUBLIC "-//W3C//DTD SVG 1.1//EN"
  "http://www.w3.org/Graphics/SVG/1.1/DTD/svg11.dtd">
<svg xmlns:xlink="http://www.w3.org/1999/xlink" width="460.8pt" height="345.6pt" viewBox="0 0 460.8 345.6" xmlns="http://www.w3.org/2000/svg" version="1.1">
 <metadata>
  <rdf:RDF xmlns:dc="http://purl.org/dc/elements/1.1/" xmlns:cc="http://creativecommons.org/ns#" xmlns:rdf="http://www.w3.org/1999/02/22-rdf-syntax-ns#">
   <cc:Work>
    <dc:type rdf:resource="http://purl.org/dc/dcmitype/StillImage"/>
    <dc:date>2025-07-14T21:34:35.574521</dc:date>
    <dc:format>image/svg+xml</dc:format>
    <dc:creator>
     <cc:Agent>
      <dc:title>Matplotlib v3.10.3, https://matplotlib.org/</dc:title>
     </cc:Agent>
    </dc:creator>
   </cc:Work>
  </rdf:RDF>
 </metadata>
 <defs>
  <style type="text/css">*{stroke-linejoin: round; stroke-linecap: butt}</style>
 </defs>
 <g id="figure_1">
  <g id="patch_1">
   <path d="M 0 345.6 
L 460.8 345.6 
L 460.8 0 
L 0 0 
z
" style="fill: #ffffff"/>
  </g>
  <g id="axes_1">
   <g id="patch_2">
    <path d="M 57.6 307.584 
L 414.72 307.584 
L 414.72 41.472 
L 57.6 41.472 
z
" style="fill: #ffffff"/>
   </g>
   <g id="matplotlib.axis_1">
    <g id="xtick_1">
     <g id="line2d_1">
      <defs>
       <path id="mcc7d0119b5" d="M 0 0 
L 0 3.5 
" style="stroke: #000000; stroke-width: 0.8"/>
      </defs>
      <g>
       <use xlink:href="#mcc7d0119b5" x="73.940416" y="307.584" style="stroke: #000000; stroke-width: 0.8"/>
      </g>
     </g>
     <g id="text_1">
      <!-- 0.00 -->
      <g transform="translate(62.807603 322.182437) scale(0.1 -0.1)">
       <defs>
        <path id="DejaVuSans-30" d="M 2034 4250 
Q 1547 4250 1301 3770 
Q 1056 3291 1056 2328 
Q 1056 1369 1301 889 
Q 1547 409 2034 409 
Q 2525 409 2770 889 
Q 3016 1369 3016 2328 
Q 3016 3291 2770 3770 
Q 2525 4250 2034 4250 
z
M 2034 4750 
Q 2819 4750 3233 4129 
Q 3647 3509 3647 2328 
Q 3647 1150 3233 529 
Q 2819 -91 2034 -91 
Q 1250 -91 836 529 
Q 422 1150 422 2328 
Q 422 3509 836 4129 
Q 1250 4750 2034 4750 
z
" transform="scale(0.015625)"/>
        <path id="DejaVuSans-2e" d="M 684 794 
L 1344 794 
L 1344 0 
L 684 0 
L 684 794 
z
" transform="scale(0.015625)"/>
       </defs>
       <use xlink:href="#DejaVuSans-30"/>
       <use xlink:href="#DejaVuSans-2e" transform="translate(63.623047 0)"/>
       <use xlink:href="#DejaVuSans-30" transform="translate(95.410156 0)"/>
       <use xlink:href="#DejaVuSans-30" transform="translate(159.033203 0)"/>
      </g>
     </g>
    </g>
    <g id="xtick_2">
     <g id="line2d_2">
      <g>
       <use xlink:href="#mcc7d0119b5" x="136.509713" y="307.584" style="stroke: #000000; stroke-width: 0.8"/>
      </g>
     </g>
     <g id="text_2">
      <!-- 0.05 -->
      <g transform="translate(125.376901 322.182437) scale(0.1 -0.1)">
       <defs>
        <path id="DejaVuSans-35" d="M 691 4666 
L 3169 4666 
L 3169 4134 
L 1269 4134 
L 1269 2991 
Q 1406 3038 1543 3061 
Q 1681 3084 1819 3084 
Q 2600 3084 3056 2656 
Q 3513 2228 3513 1497 
Q 3513 744 3044 326 
Q 2575 -91 1722 -91 
Q 1428 -91 1123 -41 
Q 819 9 494 109 
L 494 744 
Q 775 591 1075 516 
Q 1375 441 1709 441 
Q 2250 441 2565 725 
Q 2881 1009 2881 1497 
Q 2881 1984 2565 2268 
Q 2250 2553 1709 2553 
Q 1456 2553 1204 2497 
Q 953 2441 691 2322 
L 691 4666 
z
" transform="scale(0.015625)"/>
       </defs>
       <use xlink:href="#DejaVuSans-30"/>
       <use xlink:href="#DejaVuSans-2e" transform="translate(63.623047 0)"/>
       <use xlink:href="#DejaVuSans-30" transform="translate(95.410156 0)"/>
       <use xlink:href="#DejaVuSans-35" transform="translate(159.033203 0)"/>
      </g>
     </g>
    </g>
    <g id="xtick_3">
     <g id="line2d_3">
      <g>
       <use xlink:href="#mcc7d0119b5" x="199.079011" y="307.584" style="stroke: #000000; stroke-width: 0.8"/>
      </g>
     </g>
     <g id="text_3">
      <!-- 0.10 -->
      <g transform="translate(187.946198 322.182437) scale(0.1 -0.1)">
       <defs>
        <path id="DejaVuSans-31" d="M 794 531 
L 1825 531 
L 1825 4091 
L 703 3866 
L 703 4441 
L 1819 4666 
L 2450 4666 
L 2450 531 
L 3481 531 
L 3481 0 
L 794 0 
L 794 531 
z
" transform="scale(0.015625)"/>
       </defs>
       <use xlink:href="#DejaVuSans-30"/>
       <use xlink:href="#DejaVuSans-2e" transform="translate(63.623047 0)"/>
       <use xlink:href="#DejaVuSans-31" transform="translate(95.410156 0)"/>
       <use xlink:href="#DejaVuSans-30" transform="translate(159.033203 0)"/>
      </g>
     </g>
    </g>
    <g id="xtick_4">
     <g id="line2d_4">
      <g>
       <use xlink:href="#mcc7d0119b5" x="261.648308" y="307.584" style="stroke: #000000; stroke-width: 0.8"/>
      </g>
     </g>
     <g id="text_4">
      <!-- 0.15 -->
      <g transform="translate(250.515496 322.182437) scale(0.1 -0.1)">
       <use xlink:href="#DejaVuSans-30"/>
       <use xlink:href="#DejaVuSans-2e" transform="translate(63.623047 0)"/>
       <use xlink:href="#DejaVuSans-31" transform="translate(95.410156 0)"/>
       <use xlink:href="#DejaVuSans-35" transform="translate(159.033203 0)"/>
      </g>
     </g>
    </g>
    <g id="xtick_5">
     <g id="line2d_5">
      <g>
       <use xlink:href="#mcc7d0119b5" x="324.217606" y="307.584" style="stroke: #000000; stroke-width: 0.8"/>
      </g>
     </g>
     <g id="text_5">
      <!-- 0.20 -->
      <g transform="translate(313.084793 322.182437) scale(0.1 -0.1)">
       <defs>
        <path id="DejaVuSans-32" d="M 1228 531 
L 3431 531 
L 3431 0 
L 469 0 
L 469 531 
Q 828 903 1448 1529 
Q 2069 2156 2228 2338 
Q 2531 2678 2651 2914 
Q 2772 3150 2772 3378 
Q 2772 3750 2511 3984 
Q 2250 4219 1831 4219 
Q 1534 4219 1204 4116 
Q 875 4013 500 3803 
L 500 4441 
Q 881 4594 1212 4672 
Q 1544 4750 1819 4750 
Q 2544 4750 2975 4387 
Q 3406 4025 3406 3419 
Q 3406 3131 3298 2873 
Q 3191 2616 2906 2266 
Q 2828 2175 2409 1742 
Q 1991 1309 1228 531 
z
" transform="scale(0.015625)"/>
       </defs>
       <use xlink:href="#DejaVuSans-30"/>
       <use xlink:href="#DejaVuSans-2e" transform="translate(63.623047 0)"/>
       <use xlink:href="#DejaVuSans-32" transform="translate(95.410156 0)"/>
       <use xlink:href="#DejaVuSans-30" transform="translate(159.033203 0)"/>
      </g>
     </g>
    </g>
    <g id="xtick_6">
     <g id="line2d_6">
      <g>
       <use xlink:href="#mcc7d0119b5" x="386.786903" y="307.584" style="stroke: #000000; stroke-width: 0.8"/>
      </g>
     </g>
     <g id="text_6">
      <!-- 0.25 -->
      <g transform="translate(375.654091 322.182437) scale(0.1 -0.1)">
       <use xlink:href="#DejaVuSans-30"/>
       <use xlink:href="#DejaVuSans-2e" transform="translate(63.623047 0)"/>
       <use xlink:href="#DejaVuSans-32" transform="translate(95.410156 0)"/>
       <use xlink:href="#DejaVuSans-35" transform="translate(159.033203 0)"/>
      </g>
     </g>
    </g>
    <g id="text_7">
     <!-- Strain -->
     <g transform="translate(221.348281 335.860562) scale(0.1 -0.1)">
      <defs>
       <path id="DejaVuSans-53" d="M 3425 4513 
L 3425 3897 
Q 3066 4069 2747 4153 
Q 2428 4238 2131 4238 
Q 1616 4238 1336 4038 
Q 1056 3838 1056 3469 
Q 1056 3159 1242 3001 
Q 1428 2844 1947 2747 
L 2328 2669 
Q 3034 2534 3370 2195 
Q 3706 1856 3706 1288 
Q 3706 609 3251 259 
Q 2797 -91 1919 -91 
Q 1588 -91 1214 -16 
Q 841 59 441 206 
L 441 856 
Q 825 641 1194 531 
Q 1563 422 1919 422 
Q 2459 422 2753 634 
Q 3047 847 3047 1241 
Q 3047 1584 2836 1778 
Q 2625 1972 2144 2069 
L 1759 2144 
Q 1053 2284 737 2584 
Q 422 2884 422 3419 
Q 422 4038 858 4394 
Q 1294 4750 2059 4750 
Q 2388 4750 2728 4690 
Q 3069 4631 3425 4513 
z
" transform="scale(0.015625)"/>
       <path id="DejaVuSans-74" d="M 1172 4494 
L 1172 3500 
L 2356 3500 
L 2356 3053 
L 1172 3053 
L 1172 1153 
Q 1172 725 1289 603 
Q 1406 481 1766 481 
L 2356 481 
L 2356 0 
L 1766 0 
Q 1100 0 847 248 
Q 594 497 594 1153 
L 594 3053 
L 172 3053 
L 172 3500 
L 594 3500 
L 594 4494 
L 1172 4494 
z
" transform="scale(0.015625)"/>
       <path id="DejaVuSans-72" d="M 2631 2963 
Q 2534 3019 2420 3045 
Q 2306 3072 2169 3072 
Q 1681 3072 1420 2755 
Q 1159 2438 1159 1844 
L 1159 0 
L 581 0 
L 581 3500 
L 1159 3500 
L 1159 2956 
Q 1341 3275 1631 3429 
Q 1922 3584 2338 3584 
Q 2397 3584 2469 3576 
Q 2541 3569 2628 3553 
L 2631 2963 
z
" transform="scale(0.015625)"/>
       <path id="DejaVuSans-61" d="M 2194 1759 
Q 1497 1759 1228 1600 
Q 959 1441 959 1056 
Q 959 750 1161 570 
Q 1363 391 1709 391 
Q 2188 391 2477 730 
Q 2766 1069 2766 1631 
L 2766 1759 
L 2194 1759 
z
M 3341 1997 
L 3341 0 
L 2766 0 
L 2766 531 
Q 2569 213 2275 61 
Q 1981 -91 1556 -91 
Q 1019 -91 701 211 
Q 384 513 384 1019 
Q 384 1609 779 1909 
Q 1175 2209 1959 2209 
L 2766 2209 
L 2766 2266 
Q 2766 2663 2505 2880 
Q 2244 3097 1772 3097 
Q 1472 3097 1187 3025 
Q 903 2953 641 2809 
L 641 3341 
Q 956 3463 1253 3523 
Q 1550 3584 1831 3584 
Q 2591 3584 2966 3190 
Q 3341 2797 3341 1997 
z
" transform="scale(0.015625)"/>
       <path id="DejaVuSans-69" d="M 603 3500 
L 1178 3500 
L 1178 0 
L 603 0 
L 603 3500 
z
M 603 4863 
L 1178 4863 
L 1178 4134 
L 603 4134 
L 603 4863 
z
" transform="scale(0.015625)"/>
       <path id="DejaVuSans-6e" d="M 3513 2113 
L 3513 0 
L 2938 0 
L 2938 2094 
Q 2938 2591 2744 2837 
Q 2550 3084 2163 3084 
Q 1697 3084 1428 2787 
Q 1159 2491 1159 1978 
L 1159 0 
L 581 0 
L 581 3500 
L 1159 3500 
L 1159 2956 
Q 1366 3272 1645 3428 
Q 1925 3584 2291 3584 
Q 2894 3584 3203 3211 
Q 3513 2838 3513 2113 
z
" transform="scale(0.015625)"/>
      </defs>
      <use xlink:href="#DejaVuSans-53"/>
      <use xlink:href="#DejaVuSans-74" transform="translate(63.476562 0)"/>
      <use xlink:href="#DejaVuSans-72" transform="translate(102.685547 0)"/>
      <use xlink:href="#DejaVuSans-61" transform="translate(143.798828 0)"/>
      <use xlink:href="#DejaVuSans-69" transform="translate(205.078125 0)"/>
      <use xlink:href="#DejaVuSans-6e" transform="translate(232.861328 0)"/>
     </g>
    </g>
   </g>
   <g id="matplotlib.axis_2">
    <g id="ytick_1">
     <g id="line2d_7">
      <defs>
       <path id="m033ffdb9ca" d="M 0 0 
L -3.5 0 
" style="stroke: #000000; stroke-width: 0.8"/>
      </defs>
      <g>
       <use xlink:href="#m033ffdb9ca" x="57.6" y="307.368691" style="stroke: #000000; stroke-width: 0.8"/>
      </g>
     </g>
     <g id="text_8">
      <!-- −250 -->
      <g transform="translate(23.132812 311.16791) scale(0.1 -0.1)">
       <defs>
        <path id="DejaVuSans-2212" d="M 678 2272 
L 4684 2272 
L 4684 1741 
L 678 1741 
L 678 2272 
z
" transform="scale(0.015625)"/>
       </defs>
       <use xlink:href="#DejaVuSans-2212"/>
       <use xlink:href="#DejaVuSans-32" transform="translate(83.789062 0)"/>
       <use xlink:href="#DejaVuSans-35" transform="translate(147.412109 0)"/>
       <use xlink:href="#DejaVuSans-30" transform="translate(211.035156 0)"/>
      </g>
     </g>
    </g>
    <g id="ytick_2">
     <g id="line2d_8">
      <g>
       <use xlink:href="#m033ffdb9ca" x="57.6" y="273.807368" style="stroke: #000000; stroke-width: 0.8"/>
      </g>
     </g>
     <g id="text_9">
      <!-- 0 -->
      <g transform="translate(44.2375 277.606587) scale(0.1 -0.1)">
       <use xlink:href="#DejaVuSans-30"/>
      </g>
     </g>
    </g>
    <g id="ytick_3">
     <g id="line2d_9">
      <g>
       <use xlink:href="#m033ffdb9ca" x="57.6" y="240.246045" style="stroke: #000000; stroke-width: 0.8"/>
      </g>
     </g>
     <g id="text_10">
      <!-- 250 -->
      <g transform="translate(31.5125 244.045264) scale(0.1 -0.1)">
       <use xlink:href="#DejaVuSans-32"/>
       <use xlink:href="#DejaVuSans-35" transform="translate(63.623047 0)"/>
       <use xlink:href="#DejaVuSans-30" transform="translate(127.246094 0)"/>
      </g>
     </g>
    </g>
    <g id="ytick_4">
     <g id="line2d_10">
      <g>
       <use xlink:href="#m033ffdb9ca" x="57.6" y="206.684721" style="stroke: #000000; stroke-width: 0.8"/>
      </g>
     </g>
     <g id="text_11">
      <!-- 500 -->
      <g transform="translate(31.5125 210.48394) scale(0.1 -0.1)">
       <use xlink:href="#DejaVuSans-35"/>
       <use xlink:href="#DejaVuSans-30" transform="translate(63.623047 0)"/>
       <use xlink:href="#DejaVuSans-30" transform="translate(127.246094 0)"/>
      </g>
     </g>
    </g>
    <g id="ytick_5">
     <g id="line2d_11">
      <g>
       <use xlink:href="#m033ffdb9ca" x="57.6" y="173.123398" style="stroke: #000000; stroke-width: 0.8"/>
      </g>
     </g>
     <g id="text_12">
      <!-- 750 -->
      <g transform="translate(31.5125 176.922617) scale(0.1 -0.1)">
       <defs>
        <path id="DejaVuSans-37" d="M 525 4666 
L 3525 4666 
L 3525 4397 
L 1831 0 
L 1172 0 
L 2766 4134 
L 525 4134 
L 525 4666 
z
" transform="scale(0.015625)"/>
       </defs>
       <use xlink:href="#DejaVuSans-37"/>
       <use xlink:href="#DejaVuSans-35" transform="translate(63.623047 0)"/>
       <use xlink:href="#DejaVuSans-30" transform="translate(127.246094 0)"/>
      </g>
     </g>
    </g>
    <g id="ytick_6">
     <g id="line2d_12">
      <g>
       <use xlink:href="#m033ffdb9ca" x="57.6" y="139.562075" style="stroke: #000000; stroke-width: 0.8"/>
      </g>
     </g>
     <g id="text_13">
      <!-- 1000 -->
      <g transform="translate(25.15 143.361293) scale(0.1 -0.1)">
       <use xlink:href="#DejaVuSans-31"/>
       <use xlink:href="#DejaVuSans-30" transform="translate(63.623047 0)"/>
       <use xlink:href="#DejaVuSans-30" transform="translate(127.246094 0)"/>
       <use xlink:href="#DejaVuSans-30" transform="translate(190.869141 0)"/>
      </g>
     </g>
    </g>
    <g id="ytick_7">
     <g id="line2d_13">
      <g>
       <use xlink:href="#m033ffdb9ca" x="57.6" y="106.000751" style="stroke: #000000; stroke-width: 0.8"/>
      </g>
     </g>
     <g id="text_14">
      <!-- 1250 -->
      <g transform="translate(25.15 109.79997) scale(0.1 -0.1)">
       <use xlink:href="#DejaVuSans-31"/>
       <use xlink:href="#DejaVuSans-32" transform="translate(63.623047 0)"/>
       <use xlink:href="#DejaVuSans-35" transform="translate(127.246094 0)"/>
       <use xlink:href="#DejaVuSans-30" transform="translate(190.869141 0)"/>
      </g>
     </g>
    </g>
    <g id="ytick_8">
     <g id="line2d_14">
      <g>
       <use xlink:href="#m033ffdb9ca" x="57.6" y="72.439428" style="stroke: #000000; stroke-width: 0.8"/>
      </g>
     </g>
     <g id="text_15">
      <!-- 1500 -->
      <g transform="translate(25.15 76.238647) scale(0.1 -0.1)">
       <use xlink:href="#DejaVuSans-31"/>
       <use xlink:href="#DejaVuSans-35" transform="translate(63.623047 0)"/>
       <use xlink:href="#DejaVuSans-30" transform="translate(127.246094 0)"/>
       <use xlink:href="#DejaVuSans-30" transform="translate(190.869141 0)"/>
      </g>
     </g>
    </g>
    <g id="text_16">
     <!-- Stress [Pa] -->
     <g transform="translate(17.053125 201.235813) rotate(-90) scale(0.1 -0.1)">
      <defs>
       <path id="DejaVuSans-65" d="M 3597 1894 
L 3597 1613 
L 953 1613 
Q 991 1019 1311 708 
Q 1631 397 2203 397 
Q 2534 397 2845 478 
Q 3156 559 3463 722 
L 3463 178 
Q 3153 47 2828 -22 
Q 2503 -91 2169 -91 
Q 1331 -91 842 396 
Q 353 884 353 1716 
Q 353 2575 817 3079 
Q 1281 3584 2069 3584 
Q 2775 3584 3186 3129 
Q 3597 2675 3597 1894 
z
M 3022 2063 
Q 3016 2534 2758 2815 
Q 2500 3097 2075 3097 
Q 1594 3097 1305 2825 
Q 1016 2553 972 2059 
L 3022 2063 
z
" transform="scale(0.015625)"/>
       <path id="DejaVuSans-73" d="M 2834 3397 
L 2834 2853 
Q 2591 2978 2328 3040 
Q 2066 3103 1784 3103 
Q 1356 3103 1142 2972 
Q 928 2841 928 2578 
Q 928 2378 1081 2264 
Q 1234 2150 1697 2047 
L 1894 2003 
Q 2506 1872 2764 1633 
Q 3022 1394 3022 966 
Q 3022 478 2636 193 
Q 2250 -91 1575 -91 
Q 1294 -91 989 -36 
Q 684 19 347 128 
L 347 722 
Q 666 556 975 473 
Q 1284 391 1588 391 
Q 1994 391 2212 530 
Q 2431 669 2431 922 
Q 2431 1156 2273 1281 
Q 2116 1406 1581 1522 
L 1381 1569 
Q 847 1681 609 1914 
Q 372 2147 372 2553 
Q 372 3047 722 3315 
Q 1072 3584 1716 3584 
Q 2034 3584 2315 3537 
Q 2597 3491 2834 3397 
z
" transform="scale(0.015625)"/>
       <path id="DejaVuSans-20" transform="scale(0.015625)"/>
       <path id="DejaVuSans-5b" d="M 550 4863 
L 1875 4863 
L 1875 4416 
L 1125 4416 
L 1125 -397 
L 1875 -397 
L 1875 -844 
L 550 -844 
L 550 4863 
z
" transform="scale(0.015625)"/>
       <path id="DejaVuSans-50" d="M 1259 4147 
L 1259 2394 
L 2053 2394 
Q 2494 2394 2734 2622 
Q 2975 2850 2975 3272 
Q 2975 3691 2734 3919 
Q 2494 4147 2053 4147 
L 1259 4147 
z
M 628 4666 
L 2053 4666 
Q 2838 4666 3239 4311 
Q 3641 3956 3641 3272 
Q 3641 2581 3239 2228 
Q 2838 1875 2053 1875 
L 1259 1875 
L 1259 0 
L 628 0 
L 628 4666 
z
" transform="scale(0.015625)"/>
       <path id="DejaVuSans-5d" d="M 1947 4863 
L 1947 -844 
L 622 -844 
L 622 -397 
L 1369 -397 
L 1369 4416 
L 622 4416 
L 622 4863 
L 1947 4863 
z
" transform="scale(0.015625)"/>
      </defs>
      <use xlink:href="#DejaVuSans-53"/>
      <use xlink:href="#DejaVuSans-74" transform="translate(63.476562 0)"/>
      <use xlink:href="#DejaVuSans-72" transform="translate(102.685547 0)"/>
      <use xlink:href="#DejaVuSans-65" transform="translate(141.548828 0)"/>
      <use xlink:href="#DejaVuSans-73" transform="translate(203.072266 0)"/>
      <use xlink:href="#DejaVuSans-73" transform="translate(255.171875 0)"/>
      <use xlink:href="#DejaVuSans-20" transform="translate(307.271484 0)"/>
      <use xlink:href="#DejaVuSans-5b" transform="translate(339.058594 0)"/>
      <use xlink:href="#DejaVuSans-50" transform="translate(378.072266 0)"/>
      <use xlink:href="#DejaVuSans-61" transform="translate(433.875 0)"/>
      <use xlink:href="#DejaVuSans-5d" transform="translate(495.154297 0)"/>
     </g>
    </g>
   </g>
   <g id="line2d_15">
    <path d="M 73.940416 285.249831 
L 73.942037 285.218005 
L 73.941809 285.314511 
L 73.972638 285.222301 
L 74.445497 283.056631 
L 74.910929 280.047892 
L 75.395367 279.544327 
L 75.892535 279.812052 
L 76.398542 279.688655 
L 76.882627 279.135731 
L 77.415508 277.82019 
L 77.90419 276.284523 
L 78.441668 275.159898 
L 78.90984 274.745727 
L 79.409837 274.705014 
L 79.939536 274.888496 
L 80.497524 275.241637 
L 81.079556 275.745528 
L 81.682098 276.498756 
L 83.246444 278.829381 
L 84.196932 279.99991 
L 85.136812 280.707235 
L 85.753498 280.985262 
L 86.358869 280.993151 
L 86.952924 280.619928 
L 87.537786 279.78324 
L 89.265497 276.662873 
L 89.843286 276.059351 
L 90.423197 275.766719 
L 91.00523 275.893148 
L 91.587263 276.524316 
L 92.165052 277.432988 
L 92.731526 278.082413 
L 93.283856 278.2705 
L 93.822042 277.994038 
L 94.346084 277.434855 
L 95.358099 275.799035 
L 97.806457 271.067887 
L 98.304332 270.517572 
L 98.808572 270.159736 
L 99.318469 269.985513 
L 100.350994 270.094468 
L 101.389884 270.472647 
L 102.418872 270.901554 
L 102.925234 270.894879 
L 103.42523 270.751171 
L 104.404714 270.027415 
L 105.836105 268.771339 
L 107.237085 267.621676 
L 108.969746 266.238845 
L 110.695335 265.259752 
L 111.841721 264.593897 
L 116.404631 261.797199 
L 119.24761 260.451404 
L 123.198075 258.051142 
L 127.154134 255.700374 
L 130.007721 253.995961 
L 132.309685 252.806914 
L 139.763664 248.861857 
L 143.164631 246.541142 
L 144.30253 245.949358 
L 145.44255 245.18987 
L 147.157531 243.931187 
L 155.218296 239.486413 
L 156.952371 238.366482 
L 159.282624 237.088238 
L 161.634093 235.614383 
L 170.563309 230.312576 
L 174.510241 227.822334 
L 178.25774 225.691752 
L 187.618464 220.217809 
L 190.899205 218.143041 
L 196.068901 215.081096 
L 203.259091 210.618064 
L 207.859484 207.518301 
L 209.586487 206.485482 
L 211.883501 204.954509 
L 214.177686 203.384415 
L 218.747669 200.531382 
L 229.009266 193.32251 
L 235.939911 188.706641 
L 240.225596 185.580015 
L 242.086262 184.149195 
L 247.210575 180.683079 
L 252.656789 176.571101 
L 254.990577 174.926936 
L 259.682896 171.481075 
L 262.951614 169.165055 
L 265.147497 167.356578 
L 266.302369 166.271074 
L 268.274774 164.738536 
L 271.076735 162.641078 
L 274.841206 159.832644 
L 279.068193 156.746183 
L 281.404103 154.708711 
L 291.824116 147.000122 
L 305.546329 135.678367 
L 307.260602 134.383692 
L 310.679956 131.452675 
L 317.57807 125.763822 
L 319.549768 124.144694 
L 321.872948 122.272057 
L 324.073781 120.424458 
L 327.527789 117.561252 
L 333.833968 112.009065 
L 337.425881 108.894958 
L 341.622458 105.360941 
L 343.949881 103.303127 
L 346.743356 100.636053 
L 349.54178 98.094691 
L 351.410933 96.428617 
L 354.675408 93.582104 
L 375.366013 74.10524 
L 379.56754 69.829993 
L 382.369501 67.190566 
L 383.763409 65.815038 
L 386.650942 62.910102 
L 387.798742 61.95657 
L 392.146661 59.058937 
L 394.192262 58.251982 
L 395.210996 57.92727 
L 396.174214 57.357654 
L 396.640265 56.973998 
L 397.616036 55.763043 
L 398.087081 54.631897 
L 398.285343 54.676317 
L 398.487273 58.369951 
L 398.371954 87.990322 
L 398.372064 87.943115 
L 397.908445 88.387067 
L 396.959459 90.970795 
L 396.47343 90.989427 
L 395.986163 91.122914 
L 394.038687 92.287836 
L 393.569631 92.314569 
L 393.078828 93.478577 
L 392.121268 96.087751 
L 391.133651 96.399585 
L 389.699608 97.60089 
L 389.216762 97.953346 
L 388.276616 100.501261 
L 387.810831 101.222018 
L 386.863525 101.967748 
L 386.385982 102.322258 
L 385.43903 103.35925 
L 384.47643 104.806893 
L 383.99639 105.552916 
L 383.027779 106.726966 
L 382.087192 107.996864 
L 379.692407 110.434944 
L 377.323258 113.425687 
L 376.378073 114.474416 
L 374.981159 116.084415 
L 369.30066 122.323682 
L 368.369266 123.244873 
L 367.398622 124.36676 
L 365.980846 125.612338 
L 364.522935 127.270718 
L 361.665459 130.262439 
L 360.715235 131.001338 
L 359.763244 132.327246 
L 359.27916 132.517379 
L 357.856609 133.73192 
L 357.381012 134.721966 
L 356.89401 135.168445 
L 354.97606 136.205226 
L 354.502849 137.666961 
L 353.556957 138.121297 
L 352.611596 138.841402 
L 352.133258 138.833993 
L 351.655539 140.463553 
L 350.227419 141.111127 
L 349.762606 141.507693 
L 349.278566 141.521712 
L 348.810394 143.011019 
L 348.344962 143.533933 
L 346.897836 144.227533 
L 346.417465 144.219407 
L 345.938331 144.985855 
L 345.472546 146.385117 
L 344.060515 146.977888 
L 343.59305 147.223541 
L 343.112237 147.070631 
L 342.631158 148.636944 
L 342.16555 148.997835 
L 341.202155 149.424314 
L 340.730977 149.740875 
L 340.257943 149.614617 
L 339.300205 151.580528 
L 337.387802 152.385682 
L 336.908315 152.85363 
L 336.440496 154.200207 
L 334.535188 155.102914 
L 334.058529 155.154098 
L 333.589031 156.447861 
L 333.119091 156.561356 
L 331.702198 157.534188 
L 331.228634 157.552779 
L 330.753566 158.834675 
L 329.793354 159.164824 
L 328.378936 159.879492 
L 327.908112 161.088882 
L 327.437907 161.483411 
L 326.477164 161.67726 
L 326.012992 161.971082 
L 325.527493 162.118156 
L 325.0511 163.205192 
L 324.566131 163.912615 
L 323.602029 164.191864 
L 323.130851 164.425781 
L 322.652425 164.484578 
L 322.182131 165.139732 
L 321.710688 166.129273 
L 320.757547 166.314841 
L 319.805114 166.731327 
L 319.341274 167.142344 
L 318.870361 168.288096 
L 317.463369 168.60998 
L 316.512969 169.003514 
L 316.046123 170.548831 
L 315.105889 170.685994 
L 314.145677 171.134128 
L 313.674499 171.038597 
L 313.204205 172.597346 
L 312.723126 173.150922 
L 312.25796 173.162267 
L 311.304643 173.584295 
L 310.828338 173.537096 
L 310.347436 174.367068 
L 309.879794 175.415797 
L 308.915338 175.504947 
L 307.957247 175.752197 
L 307.480412 176.034503 
L 307.011621 177.443806 
L 305.107285 177.981945 
L 304.623465 177.885656 
L 304.143359 179.144079 
L 303.666259 179.923673 
L 303.197556 179.881739 
L 302.224216 180.090178 
L 301.737303 180.08206 
L 301.267274 180.347266 
L 300.791765 181.876543 
L 300.306708 181.916766 
L 298.898479 182.486944 
L 298.420406 182.283208 
L 297.937205 183.798531 
L 297.463375 184.081432 
L 296.513948 184.362768 
L 296.041179 184.67558 
L 295.569559 184.523266 
L 294.617568 186.477978 
L 293.649222 186.596501 
L 293.185293 186.753641 
L 292.232772 186.750299 
L 291.768931 188.034934 
L 291.302483 188.415884 
L 290.348105 188.631405 
L 289.863844 188.710806 
L 289.379582 188.638349 
L 288.916007 189.168671 
L 288.4321 190.465694 
L 287.472064 190.69036 
L 286.524581 190.980523 
L 286.048541 190.903991 
L 285.576568 192.09395 
L 285.108926 192.783972 
L 284.139697 192.877058 
L 283.180545 193.032258 
L 282.715378 193.391878 
L 282.236775 194.707419 
L 280.80344 195.152423 
L 280.334207 195.254278 
L 279.857018 195.136228 
L 279.376248 196.378554 
L 278.891015 196.856738 
L 277.453436 197.04952 
L 276.976071 196.924012 
L 276.49676 197.449428 
L 276.016388 198.531541 
L 275.065723 198.892816 
L 274.111875 199.085035 
L 273.631769 199.06734 
L 273.160503 199.918112 
L 272.689148 200.463603 
L 270.321767 201.271773 
L 269.844578 202.116546 
L 269.373577 202.604495 
L 268.433874 202.723645 
L 267.970055 202.956747 
L 267.484999 203.055416 
L 267.001975 203.581166 
L 266.5384 204.400575 
L 264.160145 204.98725 
L 263.682338 206.016157 
L 263.209834 206.410832 
L 261.304083 206.757632 
L 260.820883 207.701254 
L 260.344489 208.06988 
L 258.933785 208.385289 
L 258.467292 208.491215 
L 258.001419 209.293998 
L 257.528208 209.877828 
L 257.059947 210.16019 
L 255.624457 210.270971 
L 255.15655 210.680545 
L 254.21499 211.916016 
L 253.742398 212.06113 
L 253.254601 212.083666 
L 252.309593 212.459563 
L 251.84257 212.791578 
L 251.360166 213.367583 
L 250.875639 213.768975 
L 249.436558 214.246344 
L 248.505076 215.0919 
L 248.034075 215.374458 
L 247.102504 215.600852 
L 246.63168 215.731927 
L 246.147684 216.145185 
L 245.678098 216.942621 
L 245.193041 217.281971 
L 243.774413 217.492671 
L 243.3096 217.603073 
L 242.36751 218.78123 
L 241.885105 219.019169 
L 240.922418 219.119814 
L 240.438422 219.337455 
L 239.95805 219.801376 
L 239.477944 220.423806 
L 238.994478 220.750931 
L 237.567508 221.080778 
L 234.223295 222.983506 
L 233.748051 223.479377 
L 231.849527 224.296973 
L 230.431397 225.561981 
L 229.004426 225.995363 
L 228.518928 226.307686 
L 228.037849 226.806752 
L 227.56897 227.077541 
L 226.129093 227.53178 
L 225.651904 227.793603 
L 224.696907 228.718772 
L 224.23068 228.946051 
L 223.281252 229.26842 
L 222.816439 229.470256 
L 221.863122 230.298142 
L 220.452152 230.588973 
L 219.976466 230.695136 
L 219.493265 231.090137 
L 219.026773 231.659231 
L 217.607405 232.268458 
L 217.12615 232.386574 
L 216.658508 232.647093 
L 215.697676 233.495648 
L 213.771947 234.24322 
L 213.297233 234.5367 
L 212.35921 235.253675 
L 211.404655 235.473271 
L 209.508098 236.491611 
L 208.562737 236.94523 
L 207.608447 237.27064 
L 206.197919 238.340495 
L 203.383582 239.638812 
L 202.433271 240.182052 
L 200.077735 241.063664 
L 197.671822 242.474026 
L 196.734594 242.820484 
L 193.878443 244.193033 
L 193.407266 244.307546 
L 192.462081 245.001374 
L 191.979588 245.469077 
L 191.046161 245.959242 
L 190.088247 246.098671 
L 189.620959 246.287174 
L 188.184353 247.18292 
L 186.766013 247.635059 
L 184.871135 248.823943 
L 183.910923 249.121612 
L 182.951064 249.566168 
L 181.534348 250.443999 
L 180.119577 250.939552 
L 178.236899 252.091457 
L 177.273504 252.175895 
L 176.804448 252.306644 
L 174.439807 253.626815 
L 173.499043 254.025549 
L 172.555273 254.627701 
L 171.607083 255.102201 
L 171.129894 255.176639 
L 169.237404 256.144744 
L 168.757209 256.463425 
L 168.287446 256.516509 
L 166.867901 257.11289 
L 165.909716 257.709891 
L 164.958874 258.033397 
L 164.016518 258.327456 
L 162.107746 259.382463 
L 161.138163 259.68967 
L 156.85018 261.925913 
L 155.908885 262.110449 
L 155.444072 262.204084 
L 153.569527 263.281633 
L 152.620807 263.381447 
L 152.136811 263.531073 
L 150.249779 264.72973 
L 149.28161 264.882388 
L 148.336691 265.331972 
L 147.388147 265.953555 
L 146.444554 266.275398 
L 145.494596 266.488482 
L 144.546229 267.044699 
L 143.579652 267.500535 
L 141.678145 268.31996 
L 141.214393 268.470376 
L 140.731899 268.756097 
L 139.316344 269.253565 
L 137.901927 269.953326 
L 136.955328 270.543399 
L 135.076628 271.153254 
L 133.649481 271.926907 
L 132.218621 272.41413 
L 130.319942 273.529171 
L 129.391554 273.73389 
L 127.000349 275.05257 
L 126.064005 275.191622 
L 124.624747 276.006076 
L 121.777171 277.155671 
L 121.290258 277.401842 
L 120.344543 277.530886 
L 117.970797 278.617385 
L 117.495022 278.661951 
L 116.539603 279.136701 
L 115.593004 279.693129 
L 113.700867 280.314255 
L 112.761694 281.040196 
L 112.297058 281.272678 
L 110.407485 281.652892 
L 109.463892 282.285592 
L 105.685099 283.626761 
L 101.392317 285.343427 
L 97.077107 287.105089 
L 96.109115 287.578986 
L 93.228905 288.563721 
L 91.812366 289.154687 
L 91.345344 289.604654 
L 90.879912 289.845171 
L 90.392468 289.747087 
L 89.905909 289.785021 
L 88.958868 290.007335 
L 88.484331 290.633319 
L 88.000158 290.989664 
L 87.530041 290.834671 
L 87.057803 290.841811 
L 86.577961 291.01012 
L 86.103955 290.94631 
L 85.621815 291.603131 
L 85.13994 292.517195 
L 84.168766 292.000502 
L 82.751431 291.868942 
L 82.274163 293.234794 
L 81.804311 293.464627 
L 81.32394 293.156672 
L 79.892903 293.07007 
L 79.426499 293.358109 
L 78.946216 294.613011 
L 76.580337 294.141233 
L 75.639662 295.488 
L 73.889055 294.667124 
L 73.832727 294.137871 
L 73.833285 294.141449 
" clip-path="url(#p8d49ded3d0)" style="fill: none; stroke: #ff0000; stroke-width: 1.5; stroke-linecap: square"/>
   </g>
   <g id="line2d_16">
    <path d="M 73.940416 285.249831 
L 73.942037 285.218005 
L 73.941809 285.314511 
L 73.972638 285.222301 
L 74.445497 283.056631 
L 74.910929 280.047892 
L 75.395367 279.544327 
L 75.892535 279.812052 
L 76.398542 279.688655 
L 76.882627 279.135731 
L 77.415508 285.316991 
L 77.90419 283.57163 
L 78.441668 282.071955 
L 78.90984 281.152329 
L 79.409837 280.536785 
L 79.939536 280.143348 
L 80.497524 279.969125 
L 81.079556 280.030155 
L 82.300906 280.48397 
L 84.196932 280.416159 
L 84.66864 280.412516 
L 85.753498 280.985262 
L 86.358869 280.993151 
L 86.952924 280.619928 
L 87.537786 279.78324 
L 89.265497 276.662873 
L 89.843286 276.059351 
L 90.423197 275.766719 
L 91.00523 275.893148 
L 91.587263 276.524316 
L 92.165052 277.432988 
L 92.731526 278.082413 
L 93.283856 278.2705 
L 93.822042 277.994038 
L 94.346084 277.434855 
L 95.358099 275.799035 
L 97.806457 271.067887 
L 98.304332 270.517572 
L 98.808572 270.159736 
L 99.318469 269.985513 
L 100.350994 270.094468 
L 101.389884 270.472647 
L 102.418872 270.901554 
L 102.925234 270.894879 
L 103.42523 270.751171 
L 104.404714 270.027415 
L 105.836105 268.771339 
L 107.237085 267.621676 
L 108.969746 266.238845 
L 110.695335 265.259752 
L 111.841721 264.593897 
L 116.404631 261.797199 
L 119.24761 260.451404 
L 123.198075 258.051142 
L 127.154134 255.700374 
L 130.007721 253.995961 
L 132.309685 252.806914 
L 139.763664 248.861857 
L 143.164631 246.541142 
L 144.30253 245.949358 
L 145.44255 245.18987 
L 147.157531 243.931187 
L 155.218296 239.486413 
L 156.952371 238.366482 
L 159.282624 237.088238 
L 161.634093 235.614383 
L 170.563309 230.312576 
L 174.510241 227.822334 
L 178.25774 225.691752 
L 187.618464 220.217809 
L 190.899205 218.143041 
L 196.068901 215.081096 
L 203.259091 210.618064 
L 207.859484 207.518301 
L 209.586487 206.485482 
L 211.883501 204.954509 
L 214.177686 203.384415 
L 218.747669 200.531382 
L 229.009266 193.32251 
L 235.939911 188.706641 
L 240.225596 185.580015 
L 242.086262 184.149195 
L 247.210575 180.683079 
L 252.656789 176.571101 
L 254.990577 174.926936 
L 259.682896 171.481075 
L 262.951614 169.165055 
L 265.147497 167.356578 
L 266.302369 166.271074 
L 268.274774 164.738536 
L 271.076735 162.641078 
L 274.841206 159.832644 
L 279.068193 156.746183 
L 281.404103 154.708711 
L 291.824116 147.000122 
L 305.546329 135.678367 
L 307.260602 134.383692 
L 310.679956 131.452675 
L 317.57807 125.763822 
L 319.549768 124.144694 
L 321.872948 122.272057 
L 324.073781 120.424458 
L 327.527789 117.561252 
L 333.833968 112.009065 
L 337.425881 108.894958 
L 341.622458 105.360941 
L 343.949881 103.303127 
L 346.743356 100.636053 
L 349.54178 98.094691 
L 351.410933 96.428617 
L 354.675408 93.582104 
L 375.366013 74.10524 
L 379.56754 69.829993 
L 385.498192 63.853282 
L 387.798742 61.413181 
L 388.93169 60.443413 
L 390.039886 59.179774 
L 391.637471 57.331131 
L 393.11978 55.89979 
L 394.682711 54.643584 
L 396.174214 53.839506 
L 397.140084 53.568 
L 397.616036 54.155351 
L 398.285343 54.522502 
L 398.487273 58.296002 
L 398.371954 87.990322 
L 398.372064 87.943115 
L 397.908445 88.387067 
L 396.959459 90.970795 
L 396.47343 90.989427 
L 395.986163 91.122914 
L 394.038687 92.287836 
L 393.569631 92.314569 
L 393.078828 93.478577 
L 392.121268 96.087751 
L 391.133651 96.399585 
L 389.699608 97.60089 
L 389.216762 97.953346 
L 388.276616 100.501261 
L 387.810831 101.222018 
L 386.863525 101.967748 
L 386.385982 102.322258 
L 385.43903 103.35925 
L 384.47643 104.806893 
L 383.99639 105.552916 
L 383.027779 106.726966 
L 382.087192 107.996864 
L 379.692407 110.434944 
L 377.323258 113.425687 
L 376.378073 114.474416 
L 374.981159 116.084415 
L 369.30066 122.323682 
L 368.369266 123.244873 
L 367.398622 124.36676 
L 365.980846 125.612338 
L 364.522935 127.270718 
L 361.665459 130.262439 
L 360.715235 131.001338 
L 359.763244 132.327246 
L 359.27916 132.517379 
L 357.856609 133.73192 
L 357.381012 134.721966 
L 356.89401 135.168445 
L 354.97606 136.205226 
L 354.502849 137.666961 
L 353.556957 138.121297 
L 352.611596 138.841402 
L 352.133258 138.833993 
L 351.655539 140.463553 
L 350.227419 141.111127 
L 349.762606 141.507693 
L 349.278566 141.521712 
L 348.810394 143.011019 
L 348.344962 143.533933 
L 346.897836 144.227533 
L 346.417465 144.219407 
L 345.938331 144.985855 
L 345.472546 146.385117 
L 344.060515 146.977888 
L 343.59305 147.223541 
L 343.112237 147.070631 
L 342.631158 148.636944 
L 342.16555 148.997835 
L 341.202155 149.424314 
L 340.730977 149.740875 
L 340.257943 149.614617 
L 339.300205 151.580528 
L 337.387802 152.385682 
L 336.908315 152.85363 
L 336.440496 154.200207 
L 334.535188 155.102914 
L 334.058529 155.154098 
L 333.589031 156.447861 
L 333.119091 156.561356 
L 331.702198 157.534188 
L 331.228634 157.552779 
L 330.753566 158.834675 
L 329.793354 159.164824 
L 328.378936 159.879492 
L 327.908112 161.088882 
L 327.437907 161.483411 
L 326.477164 161.67726 
L 326.012992 161.971082 
L 325.527493 162.118156 
L 325.0511 163.205192 
L 324.566131 163.912615 
L 323.602029 164.191864 
L 323.130851 164.425781 
L 322.652425 164.484578 
L 322.182131 165.139732 
L 321.710688 166.129273 
L 320.757547 166.314841 
L 319.805114 166.731327 
L 319.341274 167.142344 
L 318.870361 168.288096 
L 317.463369 168.60998 
L 316.512969 169.003514 
L 316.046123 170.548831 
L 315.105889 170.685994 
L 314.145677 171.134128 
L 313.674499 171.038597 
L 313.204205 172.597346 
L 312.723126 173.150922 
L 312.25796 173.162267 
L 311.304643 173.584295 
L 310.828338 173.537096 
L 310.347436 174.367068 
L 309.879794 175.415797 
L 308.915338 175.504947 
L 307.957247 175.752197 
L 307.480412 176.034503 
L 307.011621 177.443806 
L 305.107285 177.981945 
L 304.623465 177.885656 
L 304.143359 179.144079 
L 303.666259 179.923673 
L 303.197556 179.881739 
L 302.224216 180.090178 
L 301.737303 180.08206 
L 301.267274 180.347266 
L 300.791765 181.876543 
L 300.306708 181.916766 
L 298.898479 182.486944 
L 298.420406 182.283208 
L 297.937205 183.798531 
L 297.463375 184.081432 
L 296.513948 184.362768 
L 296.041179 184.67558 
L 295.569559 184.523266 
L 294.617568 186.477978 
L 293.649222 186.596501 
L 293.185293 186.753641 
L 292.232772 186.750299 
L 291.768931 188.034934 
L 291.302483 188.415884 
L 290.348105 188.631405 
L 289.863844 188.710806 
L 289.379582 188.638349 
L 288.916007 189.168671 
L 288.4321 190.465694 
L 287.472064 190.69036 
L 286.524581 190.980523 
L 286.048541 190.903991 
L 285.576568 192.09395 
L 285.108926 192.783972 
L 284.139697 192.877058 
L 283.180545 193.032258 
L 282.715378 193.391878 
L 282.236775 194.707419 
L 280.80344 195.152423 
L 280.334207 195.254278 
L 279.857018 195.136228 
L 279.376248 196.378554 
L 278.891015 196.856738 
L 277.453436 197.04952 
L 276.976071 196.924012 
L 276.49676 197.449428 
L 276.016388 198.531541 
L 275.065723 198.892816 
L 274.111875 199.085035 
L 273.631769 199.06734 
L 273.160503 199.918112 
L 272.689148 200.463603 
L 270.321767 201.271773 
L 269.844578 202.116546 
L 269.373577 202.604495 
L 268.433874 202.723645 
L 267.970055 202.956747 
L 267.484999 203.055416 
L 267.001975 203.581166 
L 266.5384 204.400575 
L 264.160145 204.98725 
L 263.682338 206.016157 
L 263.209834 206.410832 
L 261.304083 206.757632 
L 260.820883 207.701254 
L 260.344489 208.06988 
L 258.933785 208.385289 
L 258.467292 208.491215 
L 258.001419 209.293998 
L 257.528208 209.877828 
L 257.059947 210.16019 
L 255.624457 210.270971 
L 255.15655 210.680545 
L 254.21499 211.916016 
L 253.742398 212.06113 
L 253.254601 212.083666 
L 252.309593 212.459563 
L 251.84257 212.791578 
L 251.360166 213.367583 
L 250.875639 213.768975 
L 249.436558 214.246344 
L 248.505076 215.0919 
L 248.034075 215.374458 
L 247.102504 215.600852 
L 246.63168 215.731927 
L 246.147684 216.145185 
L 245.678098 216.942621 
L 245.193041 217.281971 
L 243.774413 217.492671 
L 243.3096 217.603073 
L 242.36751 218.78123 
L 241.885105 219.019169 
L 240.922418 219.119814 
L 240.438422 219.337455 
L 239.95805 219.801376 
L 239.477944 220.423806 
L 238.994478 220.750931 
L 237.567508 221.080778 
L 234.223295 222.983506 
L 233.748051 223.479377 
L 231.849527 224.296973 
L 230.431397 225.561981 
L 229.004426 225.995363 
L 228.518928 226.307686 
L 228.037849 226.806752 
L 227.56897 227.077541 
L 226.129093 227.53178 
L 225.651904 227.793603 
L 224.696907 228.718772 
L 224.23068 228.946051 
L 223.281252 229.26842 
L 222.816439 229.470256 
L 221.863122 230.298142 
L 220.452152 230.588973 
L 219.976466 230.695136 
L 219.493265 231.090137 
L 219.026773 231.659231 
L 217.607405 232.268458 
L 217.12615 232.386574 
L 216.658508 232.647093 
L 215.697676 233.495648 
L 213.771947 234.24322 
L 213.297233 234.5367 
L 212.35921 235.253675 
L 211.404655 235.473271 
L 209.508098 236.491611 
L 208.562737 236.94523 
L 207.608447 237.27064 
L 206.197919 238.340495 
L 203.383582 239.638812 
L 202.433271 240.182052 
L 200.077735 241.063664 
L 197.671822 242.474026 
L 196.734594 242.820484 
L 193.878443 244.193033 
L 193.407266 244.307546 
L 192.462081 245.001374 
L 191.979588 245.469077 
L 191.046161 245.959242 
L 190.088247 246.098671 
L 189.620959 246.287174 
L 188.184353 247.18292 
L 186.766013 247.635059 
L 184.871135 248.823943 
L 183.910923 249.121612 
L 182.951064 249.566168 
L 181.534348 250.443999 
L 180.119577 250.939552 
L 178.236899 252.091457 
L 177.273504 252.175895 
L 176.804448 252.306644 
L 174.439807 253.626815 
L 173.499043 254.025549 
L 172.555273 254.627701 
L 171.607083 255.102201 
L 171.129894 255.176639 
L 169.237404 256.144744 
L 168.757209 256.463425 
L 168.287446 256.516509 
L 166.867901 257.11289 
L 165.909716 257.709891 
L 164.958874 258.033397 
L 164.016518 258.327456 
L 162.107746 259.382463 
L 161.138163 259.68967 
L 156.85018 261.925913 
L 155.908885 262.110449 
L 155.444072 262.204084 
L 153.569527 263.281633 
L 152.620807 263.381447 
L 152.136811 263.531073 
L 150.249779 264.72973 
L 149.28161 264.882388 
L 148.336691 265.331972 
L 147.388147 265.953555 
L 146.444554 266.275398 
L 145.494596 266.488482 
L 144.546229 267.044699 
L 143.579652 267.500535 
L 141.678145 268.31996 
L 141.214393 268.470376 
L 140.731899 268.756097 
L 139.316344 269.253565 
L 137.901927 269.953326 
L 136.955328 270.543399 
L 135.076628 271.153254 
L 133.649481 271.926907 
L 132.218621 272.41413 
L 130.319942 273.529171 
L 129.391554 273.73389 
L 127.000349 275.05257 
L 126.064005 275.191622 
L 124.624747 276.006076 
L 121.777171 277.155671 
L 121.290258 277.401842 
L 120.344543 277.530886 
L 117.970797 278.617385 
L 117.495022 278.661951 
L 116.539603 279.136701 
L 115.593004 279.693129 
L 113.700867 280.314255 
L 112.761694 281.040196 
L 112.297058 281.272678 
L 110.407485 281.652892 
L 109.463892 282.285592 
L 105.685099 283.626761 
L 101.392317 285.343427 
L 97.077107 287.105089 
L 96.109115 287.578986 
L 93.228905 288.563721 
L 91.812366 289.154687 
L 91.345344 289.604654 
L 90.879912 289.845171 
L 90.392468 289.747087 
L 89.905909 289.785021 
L 88.958868 290.007335 
L 88.484331 290.633319 
L 88.000158 290.989664 
L 87.530041 290.834671 
L 87.057803 290.841811 
L 86.577961 291.01012 
L 86.103955 290.94631 
L 85.621815 291.603131 
L 85.13994 292.517195 
L 84.168766 292.000502 
L 82.751431 291.868942 
L 82.274163 293.234794 
L 81.804311 293.464627 
L 81.32394 293.156672 
L 79.892903 293.07007 
L 79.426499 293.358109 
L 78.946216 294.613011 
L 76.580337 294.141233 
L 75.639662 295.488 
L 73.889055 294.667124 
L 73.832727 294.137871 
L 73.833285 294.141449 
" clip-path="url(#p8d49ded3d0)" style="fill: none; stroke: #000000; stroke-width: 1.5; stroke-linecap: square"/>
   </g>
   <g id="patch_3">
    <path d="M 57.6 307.584 
L 57.6 41.472 
" style="fill: none; stroke: #000000; stroke-width: 0.8; stroke-linejoin: miter; stroke-linecap: square"/>
   </g>
   <g id="patch_4">
    <path d="M 414.72 307.584 
L 414.72 41.472 
" style="fill: none; stroke: #000000; stroke-width: 0.8; stroke-linejoin: miter; stroke-linecap: square"/>
   </g>
   <g id="patch_5">
    <path d="M 57.6 307.584 
L 414.72 307.584 
" style="fill: none; stroke: #000000; stroke-width: 0.8; stroke-linejoin: miter; stroke-linecap: square"/>
   </g>
   <g id="patch_6">
    <path d="M 57.6 41.472 
L 414.72 41.472 
" style="fill: none; stroke: #000000; stroke-width: 0.8; stroke-linejoin: miter; stroke-linecap: square"/>
   </g>
   <g id="text_17">
    <!-- 2025-06-16 trial 17 -->
    <g transform="translate(178.0125 35.472) scale(0.12 -0.12)">
     <defs>
      <path id="DejaVuSans-2d" d="M 313 2009 
L 1997 2009 
L 1997 1497 
L 313 1497 
L 313 2009 
z
" transform="scale(0.015625)"/>
      <path id="DejaVuSans-36" d="M 2113 2584 
Q 1688 2584 1439 2293 
Q 1191 2003 1191 1497 
Q 1191 994 1439 701 
Q 1688 409 2113 409 
Q 2538 409 2786 701 
Q 3034 994 3034 1497 
Q 3034 2003 2786 2293 
Q 2538 2584 2113 2584 
z
M 3366 4563 
L 3366 3988 
Q 3128 4100 2886 4159 
Q 2644 4219 2406 4219 
Q 1781 4219 1451 3797 
Q 1122 3375 1075 2522 
Q 1259 2794 1537 2939 
Q 1816 3084 2150 3084 
Q 2853 3084 3261 2657 
Q 3669 2231 3669 1497 
Q 3669 778 3244 343 
Q 2819 -91 2113 -91 
Q 1303 -91 875 529 
Q 447 1150 447 2328 
Q 447 3434 972 4092 
Q 1497 4750 2381 4750 
Q 2619 4750 2861 4703 
Q 3103 4656 3366 4563 
z
" transform="scale(0.015625)"/>
      <path id="DejaVuSans-6c" d="M 603 4863 
L 1178 4863 
L 1178 0 
L 603 0 
L 603 4863 
z
" transform="scale(0.015625)"/>
     </defs>
     <use xlink:href="#DejaVuSans-32"/>
     <use xlink:href="#DejaVuSans-30" transform="translate(63.623047 0)"/>
     <use xlink:href="#DejaVuSans-32" transform="translate(127.246094 0)"/>
     <use xlink:href="#DejaVuSans-35" transform="translate(190.869141 0)"/>
     <use xlink:href="#DejaVuSans-2d" transform="translate(254.492188 0)"/>
     <use xlink:href="#DejaVuSans-30" transform="translate(290.576172 0)"/>
     <use xlink:href="#DejaVuSans-36" transform="translate(354.199219 0)"/>
     <use xlink:href="#DejaVuSans-2d" transform="translate(417.822266 0)"/>
     <use xlink:href="#DejaVuSans-31" transform="translate(453.90625 0)"/>
     <use xlink:href="#DejaVuSans-36" transform="translate(517.529297 0)"/>
     <use xlink:href="#DejaVuSans-20" transform="translate(581.152344 0)"/>
     <use xlink:href="#DejaVuSans-74" transform="translate(612.939453 0)"/>
     <use xlink:href="#DejaVuSans-72" transform="translate(652.148438 0)"/>
     <use xlink:href="#DejaVuSans-69" transform="translate(693.261719 0)"/>
     <use xlink:href="#DejaVuSans-61" transform="translate(721.044922 0)"/>
     <use xlink:href="#DejaVuSans-6c" transform="translate(782.324219 0)"/>
     <use xlink:href="#DejaVuSans-20" transform="translate(810.107422 0)"/>
     <use xlink:href="#DejaVuSans-31" transform="translate(841.894531 0)"/>
     <use xlink:href="#DejaVuSans-37" transform="translate(905.517578 0)"/>
    </g>
   </g>
  </g>
 </g>
 <defs>
  <clipPath id="p8d49ded3d0">
   <rect x="57.6" y="41.472" width="357.12" height="266.112"/>
  </clipPath>
 </defs>
</svg>
