<?xml version="1.0" encoding="utf-8" standalone="no"?>
<!DOCTYPE svg PUBLIC "-//W3C//DTD SVG 1.1//EN"
  "http://www.w3.org/Graphics/SVG/1.1/DTD/svg11.dtd">
<svg xmlns:xlink="http://www.w3.org/1999/xlink" width="432pt" height="288pt" viewBox="0 0 432 288" xmlns="http://www.w3.org/2000/svg" version="1.1">
 <metadata>
  <rdf:RDF xmlns:dc="http://purl.org/dc/elements/1.1/" xmlns:cc="http://creativecommons.org/ns#" xmlns:rdf="http://www.w3.org/1999/02/22-rdf-syntax-ns#">
   <cc:Work>
    <dc:type rdf:resource="http://purl.org/dc/dcmitype/StillImage"/>
    <dc:date>2025-07-03T20:54:31.657494</dc:date>
    <dc:format>image/svg+xml</dc:format>
    <dc:creator>
     <cc:Agent>
      <dc:title>Matplotlib v3.9.2, https://matplotlib.org/</dc:title>
     </cc:Agent>
    </dc:creator>
   </cc:Work>
  </rdf:RDF>
 </metadata>
 <defs>
  <style type="text/css">*{stroke-linejoin: round; stroke-linecap: butt}</style>
 </defs>
 <g id="figure_1">
  <g id="patch_1">
   <path d="M 0 288 
L 432 288 
L 432 0 
L 0 0 
z
" style="fill: #ffffff"/>
  </g>
  <g id="axes_1">
   <g id="patch_2">
    <path d="M 54 256.32 
L 388.8 256.32 
L 388.8 34.56 
L 54 34.56 
z
" style="fill: #ffffff"/>
   </g>
   <g id="matplotlib.axis_1">
    <g id="xtick_1">
     <g id="line2d_1">
      <defs>
       <path id="ma1fcb65f79" d="M 0 0 
L 0 3.5 
" style="stroke: #000000; stroke-width: 0.8"/>
      </defs>
      <g>
       <use xlink:href="#ma1fcb65f79" x="69.351887" y="256.32" style="stroke: #000000; stroke-width: 0.8"/>
      </g>
     </g>
     <g id="text_1">
      <!-- 0.000 -->
      <g transform="translate(55.037824 270.918437) scale(0.1 -0.1)">
       <defs>
        <path id="DejaVuSans-30" d="M 2034 4250 
Q 1547 4250 1301 3770 
Q 1056 3291 1056 2328 
Q 1056 1369 1301 889 
Q 1547 409 2034 409 
Q 2525 409 2770 889 
Q 3016 1369 3016 2328 
Q 3016 3291 2770 3770 
Q 2525 4250 2034 4250 
z
M 2034 4750 
Q 2819 4750 3233 4129 
Q 3647 3509 3647 2328 
Q 3647 1150 3233 529 
Q 2819 -91 2034 -91 
Q 1250 -91 836 529 
Q 422 1150 422 2328 
Q 422 3509 836 4129 
Q 1250 4750 2034 4750 
z
" transform="scale(0.015625)"/>
        <path id="DejaVuSans-2e" d="M 684 794 
L 1344 794 
L 1344 0 
L 684 0 
L 684 794 
z
" transform="scale(0.015625)"/>
       </defs>
       <use xlink:href="#DejaVuSans-30"/>
       <use xlink:href="#DejaVuSans-2e" x="63.623047"/>
       <use xlink:href="#DejaVuSans-30" x="95.410156"/>
       <use xlink:href="#DejaVuSans-30" x="159.033203"/>
       <use xlink:href="#DejaVuSans-30" x="222.65625"/>
      </g>
     </g>
    </g>
    <g id="xtick_2">
     <g id="line2d_2">
      <g>
       <use xlink:href="#ma1fcb65f79" x="111.919744" y="256.32" style="stroke: #000000; stroke-width: 0.8"/>
      </g>
     </g>
     <g id="text_2">
      <!-- 0.025 -->
      <g transform="translate(97.605682 270.918437) scale(0.1 -0.1)">
       <defs>
        <path id="DejaVuSans-32" d="M 1228 531 
L 3431 531 
L 3431 0 
L 469 0 
L 469 531 
Q 828 903 1448 1529 
Q 2069 2156 2228 2338 
Q 2531 2678 2651 2914 
Q 2772 3150 2772 3378 
Q 2772 3750 2511 3984 
Q 2250 4219 1831 4219 
Q 1534 4219 1204 4116 
Q 875 4013 500 3803 
L 500 4441 
Q 881 4594 1212 4672 
Q 1544 4750 1819 4750 
Q 2544 4750 2975 4387 
Q 3406 4025 3406 3419 
Q 3406 3131 3298 2873 
Q 3191 2616 2906 2266 
Q 2828 2175 2409 1742 
Q 1991 1309 1228 531 
z
" transform="scale(0.015625)"/>
        <path id="DejaVuSans-35" d="M 691 4666 
L 3169 4666 
L 3169 4134 
L 1269 4134 
L 1269 2991 
Q 1406 3038 1543 3061 
Q 1681 3084 1819 3084 
Q 2600 3084 3056 2656 
Q 3513 2228 3513 1497 
Q 3513 744 3044 326 
Q 2575 -91 1722 -91 
Q 1428 -91 1123 -41 
Q 819 9 494 109 
L 494 744 
Q 775 591 1075 516 
Q 1375 441 1709 441 
Q 2250 441 2565 725 
Q 2881 1009 2881 1497 
Q 2881 1984 2565 2268 
Q 2250 2553 1709 2553 
Q 1456 2553 1204 2497 
Q 953 2441 691 2322 
L 691 4666 
z
" transform="scale(0.015625)"/>
       </defs>
       <use xlink:href="#DejaVuSans-30"/>
       <use xlink:href="#DejaVuSans-2e" x="63.623047"/>
       <use xlink:href="#DejaVuSans-30" x="95.410156"/>
       <use xlink:href="#DejaVuSans-32" x="159.033203"/>
       <use xlink:href="#DejaVuSans-35" x="222.65625"/>
      </g>
     </g>
    </g>
    <g id="xtick_3">
     <g id="line2d_3">
      <g>
       <use xlink:href="#ma1fcb65f79" x="154.487601" y="256.32" style="stroke: #000000; stroke-width: 0.8"/>
      </g>
     </g>
     <g id="text_3">
      <!-- 0.050 -->
      <g transform="translate(140.173539 270.918437) scale(0.1 -0.1)">
       <use xlink:href="#DejaVuSans-30"/>
       <use xlink:href="#DejaVuSans-2e" x="63.623047"/>
       <use xlink:href="#DejaVuSans-30" x="95.410156"/>
       <use xlink:href="#DejaVuSans-35" x="159.033203"/>
       <use xlink:href="#DejaVuSans-30" x="222.65625"/>
      </g>
     </g>
    </g>
    <g id="xtick_4">
     <g id="line2d_4">
      <g>
       <use xlink:href="#ma1fcb65f79" x="197.055459" y="256.32" style="stroke: #000000; stroke-width: 0.8"/>
      </g>
     </g>
     <g id="text_4">
      <!-- 0.075 -->
      <g transform="translate(182.741396 270.918437) scale(0.1 -0.1)">
       <defs>
        <path id="DejaVuSans-37" d="M 525 4666 
L 3525 4666 
L 3525 4397 
L 1831 0 
L 1172 0 
L 2766 4134 
L 525 4134 
L 525 4666 
z
" transform="scale(0.015625)"/>
       </defs>
       <use xlink:href="#DejaVuSans-30"/>
       <use xlink:href="#DejaVuSans-2e" x="63.623047"/>
       <use xlink:href="#DejaVuSans-30" x="95.410156"/>
       <use xlink:href="#DejaVuSans-37" x="159.033203"/>
       <use xlink:href="#DejaVuSans-35" x="222.65625"/>
      </g>
     </g>
    </g>
    <g id="xtick_5">
     <g id="line2d_5">
      <g>
       <use xlink:href="#ma1fcb65f79" x="239.623316" y="256.32" style="stroke: #000000; stroke-width: 0.8"/>
      </g>
     </g>
     <g id="text_5">
      <!-- 0.100 -->
      <g transform="translate(225.309253 270.918437) scale(0.1 -0.1)">
       <defs>
        <path id="DejaVuSans-31" d="M 794 531 
L 1825 531 
L 1825 4091 
L 703 3866 
L 703 4441 
L 1819 4666 
L 2450 4666 
L 2450 531 
L 3481 531 
L 3481 0 
L 794 0 
L 794 531 
z
" transform="scale(0.015625)"/>
       </defs>
       <use xlink:href="#DejaVuSans-30"/>
       <use xlink:href="#DejaVuSans-2e" x="63.623047"/>
       <use xlink:href="#DejaVuSans-31" x="95.410156"/>
       <use xlink:href="#DejaVuSans-30" x="159.033203"/>
       <use xlink:href="#DejaVuSans-30" x="222.65625"/>
      </g>
     </g>
    </g>
    <g id="xtick_6">
     <g id="line2d_6">
      <g>
       <use xlink:href="#ma1fcb65f79" x="282.191173" y="256.32" style="stroke: #000000; stroke-width: 0.8"/>
      </g>
     </g>
     <g id="text_6">
      <!-- 0.125 -->
      <g transform="translate(267.87711 270.918437) scale(0.1 -0.1)">
       <use xlink:href="#DejaVuSans-30"/>
       <use xlink:href="#DejaVuSans-2e" x="63.623047"/>
       <use xlink:href="#DejaVuSans-31" x="95.410156"/>
       <use xlink:href="#DejaVuSans-32" x="159.033203"/>
       <use xlink:href="#DejaVuSans-35" x="222.65625"/>
      </g>
     </g>
    </g>
    <g id="xtick_7">
     <g id="line2d_7">
      <g>
       <use xlink:href="#ma1fcb65f79" x="324.75903" y="256.32" style="stroke: #000000; stroke-width: 0.8"/>
      </g>
     </g>
     <g id="text_7">
      <!-- 0.150 -->
      <g transform="translate(310.444968 270.918437) scale(0.1 -0.1)">
       <use xlink:href="#DejaVuSans-30"/>
       <use xlink:href="#DejaVuSans-2e" x="63.623047"/>
       <use xlink:href="#DejaVuSans-31" x="95.410156"/>
       <use xlink:href="#DejaVuSans-35" x="159.033203"/>
       <use xlink:href="#DejaVuSans-30" x="222.65625"/>
      </g>
     </g>
    </g>
    <g id="xtick_8">
     <g id="line2d_8">
      <g>
       <use xlink:href="#ma1fcb65f79" x="367.326887" y="256.32" style="stroke: #000000; stroke-width: 0.8"/>
      </g>
     </g>
     <g id="text_8">
      <!-- 0.175 -->
      <g transform="translate(353.012825 270.918437) scale(0.1 -0.1)">
       <use xlink:href="#DejaVuSans-30"/>
       <use xlink:href="#DejaVuSans-2e" x="63.623047"/>
       <use xlink:href="#DejaVuSans-31" x="95.410156"/>
       <use xlink:href="#DejaVuSans-37" x="159.033203"/>
       <use xlink:href="#DejaVuSans-35" x="222.65625"/>
      </g>
     </g>
    </g>
    <g id="text_9">
     <!-- Strain -->
     <g transform="translate(206.588281 284.596563) scale(0.1 -0.1)">
      <defs>
       <path id="DejaVuSans-53" d="M 3425 4513 
L 3425 3897 
Q 3066 4069 2747 4153 
Q 2428 4238 2131 4238 
Q 1616 4238 1336 4038 
Q 1056 3838 1056 3469 
Q 1056 3159 1242 3001 
Q 1428 2844 1947 2747 
L 2328 2669 
Q 3034 2534 3370 2195 
Q 3706 1856 3706 1288 
Q 3706 609 3251 259 
Q 2797 -91 1919 -91 
Q 1588 -91 1214 -16 
Q 841 59 441 206 
L 441 856 
Q 825 641 1194 531 
Q 1563 422 1919 422 
Q 2459 422 2753 634 
Q 3047 847 3047 1241 
Q 3047 1584 2836 1778 
Q 2625 1972 2144 2069 
L 1759 2144 
Q 1053 2284 737 2584 
Q 422 2884 422 3419 
Q 422 4038 858 4394 
Q 1294 4750 2059 4750 
Q 2388 4750 2728 4690 
Q 3069 4631 3425 4513 
z
" transform="scale(0.015625)"/>
       <path id="DejaVuSans-74" d="M 1172 4494 
L 1172 3500 
L 2356 3500 
L 2356 3053 
L 1172 3053 
L 1172 1153 
Q 1172 725 1289 603 
Q 1406 481 1766 481 
L 2356 481 
L 2356 0 
L 1766 0 
Q 1100 0 847 248 
Q 594 497 594 1153 
L 594 3053 
L 172 3053 
L 172 3500 
L 594 3500 
L 594 4494 
L 1172 4494 
z
" transform="scale(0.015625)"/>
       <path id="DejaVuSans-72" d="M 2631 2963 
Q 2534 3019 2420 3045 
Q 2306 3072 2169 3072 
Q 1681 3072 1420 2755 
Q 1159 2438 1159 1844 
L 1159 0 
L 581 0 
L 581 3500 
L 1159 3500 
L 1159 2956 
Q 1341 3275 1631 3429 
Q 1922 3584 2338 3584 
Q 2397 3584 2469 3576 
Q 2541 3569 2628 3553 
L 2631 2963 
z
" transform="scale(0.015625)"/>
       <path id="DejaVuSans-61" d="M 2194 1759 
Q 1497 1759 1228 1600 
Q 959 1441 959 1056 
Q 959 750 1161 570 
Q 1363 391 1709 391 
Q 2188 391 2477 730 
Q 2766 1069 2766 1631 
L 2766 1759 
L 2194 1759 
z
M 3341 1997 
L 3341 0 
L 2766 0 
L 2766 531 
Q 2569 213 2275 61 
Q 1981 -91 1556 -91 
Q 1019 -91 701 211 
Q 384 513 384 1019 
Q 384 1609 779 1909 
Q 1175 2209 1959 2209 
L 2766 2209 
L 2766 2266 
Q 2766 2663 2505 2880 
Q 2244 3097 1772 3097 
Q 1472 3097 1187 3025 
Q 903 2953 641 2809 
L 641 3341 
Q 956 3463 1253 3523 
Q 1550 3584 1831 3584 
Q 2591 3584 2966 3190 
Q 3341 2797 3341 1997 
z
" transform="scale(0.015625)"/>
       <path id="DejaVuSans-69" d="M 603 3500 
L 1178 3500 
L 1178 0 
L 603 0 
L 603 3500 
z
M 603 4863 
L 1178 4863 
L 1178 4134 
L 603 4134 
L 603 4863 
z
" transform="scale(0.015625)"/>
       <path id="DejaVuSans-6e" d="M 3513 2113 
L 3513 0 
L 2938 0 
L 2938 2094 
Q 2938 2591 2744 2837 
Q 2550 3084 2163 3084 
Q 1697 3084 1428 2787 
Q 1159 2491 1159 1978 
L 1159 0 
L 581 0 
L 581 3500 
L 1159 3500 
L 1159 2956 
Q 1366 3272 1645 3428 
Q 1925 3584 2291 3584 
Q 2894 3584 3203 3211 
Q 3513 2838 3513 2113 
z
" transform="scale(0.015625)"/>
      </defs>
      <use xlink:href="#DejaVuSans-53"/>
      <use xlink:href="#DejaVuSans-74" x="63.476562"/>
      <use xlink:href="#DejaVuSans-72" x="102.685547"/>
      <use xlink:href="#DejaVuSans-61" x="143.798828"/>
      <use xlink:href="#DejaVuSans-69" x="205.078125"/>
      <use xlink:href="#DejaVuSans-6e" x="232.861328"/>
     </g>
    </g>
   </g>
   <g id="matplotlib.axis_2">
    <g id="ytick_1">
     <g id="line2d_9">
      <defs>
       <path id="m44dcaf382e" d="M 0 0 
L -3.5 0 
" style="stroke: #000000; stroke-width: 0.8"/>
      </defs>
      <g>
       <use xlink:href="#m44dcaf382e" x="54" y="229.8408" style="stroke: #000000; stroke-width: 0.8"/>
      </g>
     </g>
     <g id="text_10">
      <!-- 0 -->
      <g transform="translate(40.6375 233.640019) scale(0.1 -0.1)">
       <use xlink:href="#DejaVuSans-30"/>
      </g>
     </g>
    </g>
    <g id="ytick_2">
     <g id="line2d_10">
      <g>
       <use xlink:href="#m44dcaf382e" x="54" y="199.855624" style="stroke: #000000; stroke-width: 0.8"/>
      </g>
     </g>
     <g id="text_11">
      <!-- 250 -->
      <g transform="translate(27.9125 203.654843) scale(0.1 -0.1)">
       <use xlink:href="#DejaVuSans-32"/>
       <use xlink:href="#DejaVuSans-35" x="63.623047"/>
       <use xlink:href="#DejaVuSans-30" x="127.246094"/>
      </g>
     </g>
    </g>
    <g id="ytick_3">
     <g id="line2d_11">
      <g>
       <use xlink:href="#m44dcaf382e" x="54" y="169.870449" style="stroke: #000000; stroke-width: 0.8"/>
      </g>
     </g>
     <g id="text_12">
      <!-- 500 -->
      <g transform="translate(27.9125 173.669667) scale(0.1 -0.1)">
       <use xlink:href="#DejaVuSans-35"/>
       <use xlink:href="#DejaVuSans-30" x="63.623047"/>
       <use xlink:href="#DejaVuSans-30" x="127.246094"/>
      </g>
     </g>
    </g>
    <g id="ytick_4">
     <g id="line2d_12">
      <g>
       <use xlink:href="#m44dcaf382e" x="54" y="139.885273" style="stroke: #000000; stroke-width: 0.8"/>
      </g>
     </g>
     <g id="text_13">
      <!-- 750 -->
      <g transform="translate(27.9125 143.684491) scale(0.1 -0.1)">
       <use xlink:href="#DejaVuSans-37"/>
       <use xlink:href="#DejaVuSans-35" x="63.623047"/>
       <use xlink:href="#DejaVuSans-30" x="127.246094"/>
      </g>
     </g>
    </g>
    <g id="ytick_5">
     <g id="line2d_13">
      <g>
       <use xlink:href="#m44dcaf382e" x="54" y="109.900097" style="stroke: #000000; stroke-width: 0.8"/>
      </g>
     </g>
     <g id="text_14">
      <!-- 1000 -->
      <g transform="translate(21.55 113.699315) scale(0.1 -0.1)">
       <use xlink:href="#DejaVuSans-31"/>
       <use xlink:href="#DejaVuSans-30" x="63.623047"/>
       <use xlink:href="#DejaVuSans-30" x="127.246094"/>
       <use xlink:href="#DejaVuSans-30" x="190.869141"/>
      </g>
     </g>
    </g>
    <g id="ytick_6">
     <g id="line2d_14">
      <g>
       <use xlink:href="#m44dcaf382e" x="54" y="79.914921" style="stroke: #000000; stroke-width: 0.8"/>
      </g>
     </g>
     <g id="text_15">
      <!-- 1250 -->
      <g transform="translate(21.55 83.71414) scale(0.1 -0.1)">
       <use xlink:href="#DejaVuSans-31"/>
       <use xlink:href="#DejaVuSans-32" x="63.623047"/>
       <use xlink:href="#DejaVuSans-35" x="127.246094"/>
       <use xlink:href="#DejaVuSans-30" x="190.869141"/>
      </g>
     </g>
    </g>
    <g id="ytick_7">
     <g id="line2d_15">
      <g>
       <use xlink:href="#m44dcaf382e" x="54" y="49.929745" style="stroke: #000000; stroke-width: 0.8"/>
      </g>
     </g>
     <g id="text_16">
      <!-- 1500 -->
      <g transform="translate(21.55 53.728964) scale(0.1 -0.1)">
       <use xlink:href="#DejaVuSans-31"/>
       <use xlink:href="#DejaVuSans-35" x="63.623047"/>
       <use xlink:href="#DejaVuSans-30" x="127.246094"/>
       <use xlink:href="#DejaVuSans-30" x="190.869141"/>
      </g>
     </g>
    </g>
    <g id="text_17">
     <!-- Stress [Pa] -->
     <g transform="translate(15.470312 172.147812) rotate(-90) scale(0.1 -0.1)">
      <defs>
       <path id="DejaVuSans-65" d="M 3597 1894 
L 3597 1613 
L 953 1613 
Q 991 1019 1311 708 
Q 1631 397 2203 397 
Q 2534 397 2845 478 
Q 3156 559 3463 722 
L 3463 178 
Q 3153 47 2828 -22 
Q 2503 -91 2169 -91 
Q 1331 -91 842 396 
Q 353 884 353 1716 
Q 353 2575 817 3079 
Q 1281 3584 2069 3584 
Q 2775 3584 3186 3129 
Q 3597 2675 3597 1894 
z
M 3022 2063 
Q 3016 2534 2758 2815 
Q 2500 3097 2075 3097 
Q 1594 3097 1305 2825 
Q 1016 2553 972 2059 
L 3022 2063 
z
" transform="scale(0.015625)"/>
       <path id="DejaVuSans-73" d="M 2834 3397 
L 2834 2853 
Q 2591 2978 2328 3040 
Q 2066 3103 1784 3103 
Q 1356 3103 1142 2972 
Q 928 2841 928 2578 
Q 928 2378 1081 2264 
Q 1234 2150 1697 2047 
L 1894 2003 
Q 2506 1872 2764 1633 
Q 3022 1394 3022 966 
Q 3022 478 2636 193 
Q 2250 -91 1575 -91 
Q 1294 -91 989 -36 
Q 684 19 347 128 
L 347 722 
Q 666 556 975 473 
Q 1284 391 1588 391 
Q 1994 391 2212 530 
Q 2431 669 2431 922 
Q 2431 1156 2273 1281 
Q 2116 1406 1581 1522 
L 1381 1569 
Q 847 1681 609 1914 
Q 372 2147 372 2553 
Q 372 3047 722 3315 
Q 1072 3584 1716 3584 
Q 2034 3584 2315 3537 
Q 2597 3491 2834 3397 
z
" transform="scale(0.015625)"/>
       <path id="DejaVuSans-20" transform="scale(0.015625)"/>
       <path id="DejaVuSans-5b" d="M 550 4863 
L 1875 4863 
L 1875 4416 
L 1125 4416 
L 1125 -397 
L 1875 -397 
L 1875 -844 
L 550 -844 
L 550 4863 
z
" transform="scale(0.015625)"/>
       <path id="DejaVuSans-50" d="M 1259 4147 
L 1259 2394 
L 2053 2394 
Q 2494 2394 2734 2622 
Q 2975 2850 2975 3272 
Q 2975 3691 2734 3919 
Q 2494 4147 2053 4147 
L 1259 4147 
z
M 628 4666 
L 2053 4666 
Q 2838 4666 3239 4311 
Q 3641 3956 3641 3272 
Q 3641 2581 3239 2228 
Q 2838 1875 2053 1875 
L 1259 1875 
L 1259 0 
L 628 0 
L 628 4666 
z
" transform="scale(0.015625)"/>
       <path id="DejaVuSans-5d" d="M 1947 4863 
L 1947 -844 
L 622 -844 
L 622 -397 
L 1369 -397 
L 1369 4416 
L 622 4416 
L 622 4863 
L 1947 4863 
z
" transform="scale(0.015625)"/>
      </defs>
      <use xlink:href="#DejaVuSans-53"/>
      <use xlink:href="#DejaVuSans-74" x="63.476562"/>
      <use xlink:href="#DejaVuSans-72" x="102.685547"/>
      <use xlink:href="#DejaVuSans-65" x="141.548828"/>
      <use xlink:href="#DejaVuSans-73" x="203.072266"/>
      <use xlink:href="#DejaVuSans-73" x="255.171875"/>
      <use xlink:href="#DejaVuSans-20" x="307.271484"/>
      <use xlink:href="#DejaVuSans-5b" x="339.058594"/>
      <use xlink:href="#DejaVuSans-50" x="378.072266"/>
      <use xlink:href="#DejaVuSans-61" x="433.875"/>
      <use xlink:href="#DejaVuSans-5d" x="495.154297"/>
     </g>
    </g>
   </g>
   <g id="line2d_16">
    <path d="M 69.351887 229.945777 
L 69.353793 229.733745 
L 69.351887 229.967167 
L 69.353812 229.80093 
L 69.472202 229.844873 
L 70.083445 229.325034 
L 70.717901 227.067002 
L 71.9889 225.986059 
L 73.275441 227.520069 
L 74.534609 228.379362 
L 75.155842 228.560905 
L 75.81883 228.999086 
L 76.428696 229.829428 
L 77.052713 229.62042 
L 77.676033 230.27122 
L 78.284739 227.843718 
L 78.917803 226.188975 
L 80.166648 226.349448 
L 81.395195 226.577585 
L 82.031042 226.497928 
L 83.286369 225.26879 
L 83.913749 225.01642 
L 85.784175 224.84078 
L 87.036384 224.307183 
L 87.661792 223.925639 
L 93.243841 221.663183 
L 93.873889 221.30547 
L 96.966134 220.226423 
L 98.839219 219.306336 
L 101.334587 218.226593 
L 102.599323 217.56632 
L 105.055953 216.540275 
L 106.313729 215.929465 
L 107.579624 215.383952 
L 108.850855 214.75146 
L 111.304005 213.759549 
L 117.513655 210.850059 
L 118.764472 210.42268 
L 119.39336 210.107319 
L 120.648236 209.313702 
L 123.116234 208.166134 
L 123.746977 207.74325 
L 126.861609 206.499474 
L 128.088532 205.53702 
L 129.341567 204.827359 
L 130.597023 204.40928 
L 131.847144 203.718381 
L 132.473249 203.222932 
L 134.360377 202.395899 
L 134.988801 202.339807 
L 135.600755 202.158762 
L 136.841596 200.992136 
L 138.083134 200.462805 
L 139.316089 200.159881 
L 139.936394 199.870089 
L 141.823406 198.546509 
L 143.672954 197.831052 
L 144.928127 197.045048 
L 146.185208 196.434113 
L 146.815024 196.031015 
L 148.067232 195.478359 
L 149.309466 194.83961 
L 150.554947 194.30124 
L 154.872376 192.012171 
L 159.229618 189.789205 
L 161.712578 188.192237 
L 162.967802 187.886239 
L 164.214327 187.052483 
L 166.071299 185.95267 
L 167.325131 185.540821 
L 167.954715 185.138418 
L 168.577456 184.605927 
L 171.698234 183.109496 
L 172.95833 182.186675 
L 174.829401 181.36767 
L 176.089381 180.334293 
L 177.982541 179.52658 
L 178.600294 179.399889 
L 179.22373 178.968914 
L 179.837424 178.347801 
L 181.092764 177.76651 
L 182.978965 177.04764 
L 184.208092 175.918814 
L 185.457053 175.293718 
L 187.317967 174.469412 
L 189.177954 173.335971 
L 191.035027 172.435037 
L 194.159633 170.511329 
L 195.390268 169.884716 
L 197.886566 168.237874 
L 200.395043 167.056424 
L 201.639597 166.19574 
L 202.881598 165.549405 
L 214.665348 158.384308 
L 215.894127 157.635887 
L 217.120354 157.034748 
L 220.275059 155.254198 
L 220.909051 154.906915 
L 222.787596 153.584283 
L 224.06393 152.835103 
L 225.305468 152.118098 
L 227.797126 150.501408 
L 229.660361 149.432569 
L 230.907582 148.537687 
L 232.771977 147.52381 
L 233.394833 147.2746 
L 235.904847 145.332901 
L 237.128059 144.747881 
L 237.76205 144.412545 
L 240.254173 142.681442 
L 241.491535 142.098318 
L 244.019382 140.184282 
L 245.880993 139.082573 
L 246.509881 138.515442 
L 248.391905 137.429979 
L 249.610941 136.894643 
L 250.875227 136.003775 
L 252.117229 135.13146 
L 253.386604 134.485125 
L 254.015956 134.066919 
L 255.284403 133.016222 
L 256.523389 132.207497 
L 257.75008 131.530126 
L 265.319702 126.25028 
L 266.548206 125.636807 
L 269.059119 123.776374 
L 270.305992 123.003553 
L 271.54521 122.340088 
L 275.283278 119.848617 
L 287.098996 111.534672 
L 288.357236 110.404328 
L 289.627307 109.614567 
L 293.355864 107.165005 
L 298.997864 102.932111 
L 301.47282 101.309732 
L 307.705099 96.764401 
L 308.939213 96.001252 
L 310.182143 95.027293 
L 314.562321 91.644938 
L 316.422308 90.248033 
L 317.651087 89.275086 
L 318.896105 88.48937 
L 321.370133 86.476724 
L 323.246822 85.400616 
L 324.48488 84.302384 
L 325.116784 83.639171 
L 328.861463 80.648221 
L 330.713331 79.231278 
L 331.960436 78.295814 
L 333.232595 77.273941 
L 333.844549 76.629313 
L 336.337367 74.914898 
L 336.966951 74.412874 
L 338.208257 73.097322 
L 338.829258 72.802441 
L 341.321496 70.945674 
L 341.945977 70.244156 
L 345.035207 67.943772 
L 346.868516 66.31229 
L 355.013324 59.822139 
L 356.877255 58.101909 
L 358.742954 56.395079 
L 359.357923 56.019857 
L 365.600409 50.765928 
L 367.464455 48.970349 
L 371.836979 45.618668 
L 372.448033 45.390159 
L 373.060857 45.011145 
L 373.268186 44.714874 
L 373.581818 44.64 
L 373.409547 51.392414 
L 373.410011 66.53146 
L 373.404356 66.251987 
L 372.795447 66.542 
L 372.171953 68.064759 
L 371.560492 69.216104 
L 370.921397 69.094644 
L 370.273255 69.115219 
L 369.628824 69.320087 
L 368.38659 69.962376 
L 367.773709 70.111412 
L 367.144125 70.54659 
L 366.532171 70.656578 
L 365.921145 72.083635 
L 362.821012 76.047232 
L 362.209059 75.999113 
L 361.594785 76.112135 
L 360.336081 77.110999 
L 359.075985 77.494169 
L 358.467279 79.412062 
L 357.85173 80.587285 
L 357.224581 81.146705 
L 356.596157 81.348127 
L 355.968661 81.744019 
L 355.33003 81.888457 
L 354.713205 82.305019 
L 354.098699 82.863301 
L 352.854639 84.38647 
L 352.246513 85.06675 
L 349.735368 87.006956 
L 349.108336 87.731356 
L 347.838961 88.612142 
L 345.97561 90.265938 
L 344.712963 91.772388 
L 342.837665 93.032694 
L 337.868731 97.484859 
L 336.631948 98.523799 
L 335.371157 99.731766 
L 332.908495 101.608002 
L 331.041665 103.373492 
L 328.555342 105.250234 
L 324.191633 108.837977 
L 322.947109 109.811344 
L 317.979798 113.942577 
L 314.851132 116.24865 
L 313.587557 117.294543 
L 312.357618 118.079184 
L 309.852272 120.073183 
L 308.008292 121.38804 
L 304.910667 123.760176 
L 303.674001 124.543869 
L 302.42388 125.641343 
L 300.56111 126.950448 
L 298.686392 128.264356 
L 296.816546 129.698177 
L 292.482734 132.973246 
L 290.57612 134.180012 
L 289.304889 135.077232 
L 288.080518 135.993669 
L 286.828309 136.67142 
L 284.32134 138.557517 
L 280.571789 140.982932 
L 278.71041 142.018396 
L 277.458811 143.071535 
L 276.209966 143.98854 
L 273.741505 145.304661 
L 272.496371 146.376345 
L 270.617594 147.579128 
L 269.997289 147.865728 
L 266.882078 150.108716 
L 266.272212 150.411434 
L 264.424752 151.578187 
L 263.193653 152.305053 
L 258.129304 155.846598 
L 255.678937 157.33636 
L 253.161065 158.906527 
L 252.528233 159.199195 
L 251.276952 160.035607 
L 248.788425 161.463043 
L 247.551179 162.354321 
L 246.915346 162.695852 
L 245.665457 163.09737 
L 245.028798 163.449646 
L 243.792944 164.518674 
L 241.330746 165.855466 
L 240.067171 166.774936 
L 237.577484 168.127973 
L 236.961123 168.736065 
L 235.717381 169.445864 
L 233.846027 170.342737 
L 233.232334 170.94514 
L 232.605881 171.386923 
L 230.713679 172.148714 
L 230.097781 172.412431 
L 228.24429 173.931903 
L 226.384535 174.654012 
L 225.117016 175.639918 
L 223.886613 176.268301 
L 222.030802 177.158315 
L 220.799239 178.032147 
L 218.942268 178.826586 
L 217.070102 180.244478 
L 215.205577 180.949232 
L 214.586316 181.26396 
L 213.341299 182.264215 
L 212.722386 182.539469 
L 212.085146 182.687778 
L 210.842913 183.260092 
L 208.963324 184.787655 
L 207.709723 185.115611 
L 206.463778 185.614277 
L 205.195331 186.76017 
L 203.951822 187.299757 
L 202.699149 187.715624 
L 201.452856 188.548495 
L 200.217393 189.253506 
L 197.723994 190.393932 
L 197.099514 190.860178 
L 195.246254 191.772569 
L 193.970848 192.368651 
L 188.317119 195.428802 
L 187.062822 196.097261 
L 185.200704 196.82919 
L 183.939448 197.712693 
L 180.793848 199.286337 
L 179.531897 200.055428 
L 177.637113 200.591523 
L 177.011125 200.840369 
L 175.156241 202.107249 
L 173.926303 202.770145 
L 173.313421 202.927478 
L 170.188691 204.562188 
L 168.334968 205.423568 
L 167.07406 206.260485 
L 164.583561 207.261845 
L 163.324857 207.996613 
L 157.721931 210.425157 
L 156.476914 211.222125 
L 154.614013 211.761431 
L 153.977933 212.062917 
L 152.759013 213.059885 
L 151.505297 213.496983 
L 150.26747 213.961965 
L 148.40064 215.236366 
L 146.513048 215.676093 
L 143.442376 217.214307 
L 142.218933 217.778341 
L 140.376808 218.704702 
L 139.130326 219.055109 
L 137.870926 219.606469 
L 135.983798 220.379953 
L 133.481585 221.729639 
L 131.633197 222.324268 
L 128.515669 223.883942 
L 126.65661 224.56302 
L 125.416465 224.831621 
L 124.154542 225.471026 
L 122.89781 226.230383 
L 120.396176 227.073589 
L 118.495361 228.128458 
L 114.782579 229.478145 
L 111.641038 230.918824 
L 111.009598 231.05084 
L 106.016973 233.116066 
L 104.153739 233.767474 
L 102.269626 234.750661 
L 101.011154 235.086651 
L 100.391777 235.158174 
L 99.765673 235.390476 
L 97.875759 236.463803 
L 95.362179 237.134735 
L 93.482987 238.235143 
L 92.237737 238.530948 
L 90.983209 238.807204 
L 89.12705 239.870354 
L 87.883308 240.269834 
L 86.64873 240.487995 
L 84.791063 241.471847 
L 84.155912 241.783162 
L 82.294533 242.116013 
L 81.038381 242.62047 
L 80.407405 243.005363 
L 79.168329 243.392422 
L 78.544312 243.466696 
L 77.296047 243.944067 
L 76.043838 244.575294 
L 75.431188 244.7713 
L 74.203801 244.88302 
L 72.948345 245.31314 
L 71.695092 245.81936 
L 70.469445 245.762297 
L 69.853779 245.691034 
L 69.358945 246.24 
L 69.218182 245.170421 
L 69.218588 245.174822 
" clip-path="url(#pffac7274c0)" style="fill: none; stroke: #ff0000; stroke-width: 1.5; stroke-linecap: square"/>
   </g>
   <g id="line2d_17">
    <path d="M 69.351887 229.945777 
L 69.353793 229.733745 
L 69.351887 229.967167 
L 69.353812 229.80093 
L 69.472202 229.844873 
L 70.083445 229.325034 
L 70.717901 227.067002 
L 71.9889 225.986059 
L 72.603173 229.118697 
L 73.275441 229.23894 
L 73.902705 229.138814 
L 74.534609 229.182303 
L 75.155842 228.851203 
L 75.81883 229.001203 
L 76.428696 229.829428 
L 77.052713 229.62042 
L 77.676033 230.27122 
L 78.284739 227.843718 
L 78.917803 226.188975 
L 80.166648 226.349448 
L 81.395195 226.577585 
L 82.031042 226.497928 
L 83.286369 225.26879 
L 83.913749 225.01642 
L 85.784175 224.84078 
L 87.036384 224.307183 
L 87.661792 223.925639 
L 93.243841 221.663183 
L 93.873889 221.30547 
L 96.966134 220.226423 
L 98.839219 219.306336 
L 101.334587 218.226593 
L 102.599323 217.56632 
L 105.055953 216.540275 
L 106.313729 215.929465 
L 107.579624 215.383952 
L 108.850855 214.75146 
L 111.304005 213.759549 
L 117.513655 210.850059 
L 118.764472 210.42268 
L 119.39336 210.107319 
L 120.648236 209.313702 
L 123.116234 208.166134 
L 123.746977 207.74325 
L 126.861609 206.499474 
L 128.088532 205.53702 
L 129.341567 204.827359 
L 130.597023 204.40928 
L 131.847144 203.718381 
L 132.473249 203.222932 
L 134.360377 202.395899 
L 134.988801 202.339807 
L 135.600755 202.158762 
L 136.841596 200.992136 
L 138.083134 200.462805 
L 139.316089 200.159881 
L 139.936394 199.870089 
L 141.823406 198.546509 
L 143.672954 197.831052 
L 144.928127 197.045048 
L 146.185208 196.434113 
L 146.815024 196.031015 
L 148.067232 195.478359 
L 149.309466 194.83961 
L 150.554947 194.30124 
L 154.872376 192.012171 
L 159.229618 189.789205 
L 161.712578 188.192237 
L 162.967802 187.886239 
L 164.214327 187.052483 
L 166.071299 185.95267 
L 167.325131 185.540821 
L 167.954715 185.138418 
L 168.577456 184.605927 
L 171.698234 183.109496 
L 172.95833 182.186675 
L 174.829401 181.36767 
L 176.089381 180.334293 
L 177.982541 179.52658 
L 178.600294 179.399889 
L 179.22373 178.968914 
L 179.837424 178.347801 
L 181.092764 177.76651 
L 182.978965 177.04764 
L 184.208092 175.918814 
L 185.457053 175.293718 
L 187.317967 174.469412 
L 189.177954 173.335971 
L 191.035027 172.435037 
L 194.159633 170.511329 
L 195.390268 169.884716 
L 197.886566 168.237874 
L 200.395043 167.056424 
L 201.639597 166.19574 
L 202.881598 165.549405 
L 214.665348 158.384308 
L 215.894127 157.635887 
L 217.120354 157.034748 
L 220.275059 155.254198 
L 220.909051 154.906915 
L 222.787596 153.584283 
L 224.06393 152.835103 
L 225.305468 152.118098 
L 227.797126 150.501408 
L 229.660361 149.432569 
L 230.907582 148.537687 
L 232.771977 147.52381 
L 233.394833 147.2746 
L 235.904847 145.332901 
L 237.128059 144.747881 
L 237.76205 144.412545 
L 240.254173 142.681442 
L 241.491535 142.098318 
L 244.019382 140.184282 
L 245.880993 139.082573 
L 246.509881 138.515442 
L 248.391905 137.429979 
L 249.610941 136.894643 
L 250.875227 136.003775 
L 252.117229 135.13146 
L 253.386604 134.485125 
L 254.015956 134.066919 
L 255.284403 133.016222 
L 256.523389 132.207497 
L 257.75008 131.530126 
L 265.319702 126.25028 
L 266.548206 125.636807 
L 269.059119 123.776374 
L 270.305992 123.003553 
L 271.54521 122.340088 
L 275.283278 119.848617 
L 287.098996 111.534672 
L 288.357236 110.404328 
L 289.627307 109.614567 
L 293.355864 107.165005 
L 298.997864 102.932111 
L 301.47282 101.309732 
L 307.705099 96.764401 
L 308.939213 96.001252 
L 310.182143 95.027293 
L 314.562321 91.644938 
L 316.422308 90.248033 
L 317.651087 89.275086 
L 318.896105 88.48937 
L 321.370133 86.476724 
L 323.246822 85.400616 
L 324.48488 84.302384 
L 325.116784 83.639171 
L 328.861463 80.648221 
L 330.713331 79.231278 
L 331.960436 78.295814 
L 333.232595 77.273941 
L 333.844549 76.629313 
L 336.337367 74.914898 
L 336.966951 74.412874 
L 338.208257 73.097322 
L 338.829258 72.802441 
L 341.321496 70.945674 
L 341.945977 70.244156 
L 345.035207 67.943772 
L 346.868516 66.31229 
L 355.013324 59.822139 
L 356.877255 58.101909 
L 358.742954 56.395079 
L 359.357923 56.019857 
L 365.600409 50.765928 
L 367.464455 48.970349 
L 371.836979 45.618668 
L 372.448033 45.390159 
L 373.060857 45.011145 
L 373.268186 44.714874 
L 373.581818 44.64 
L 373.409547 51.392414 
L 373.410011 66.53146 
L 373.404356 66.251987 
L 372.795447 66.542 
L 372.171953 68.064759 
L 371.560492 69.216104 
L 370.921397 69.094644 
L 370.273255 69.115219 
L 369.628824 69.320087 
L 368.38659 69.962376 
L 367.773709 70.111412 
L 367.144125 70.54659 
L 366.532171 70.656578 
L 365.921145 72.083635 
L 362.821012 76.047232 
L 362.209059 75.999113 
L 361.594785 76.112135 
L 360.336081 77.110999 
L 359.075985 77.494169 
L 358.467279 79.412062 
L 357.85173 80.587285 
L 357.224581 81.146705 
L 356.596157 81.348127 
L 355.968661 81.744019 
L 355.33003 81.888457 
L 354.713205 82.305019 
L 354.098699 82.863301 
L 352.854639 84.38647 
L 352.246513 85.06675 
L 349.735368 87.006956 
L 349.108336 87.731356 
L 347.838961 88.612142 
L 345.97561 90.265938 
L 344.712963 91.772388 
L 342.837665 93.032694 
L 337.868731 97.484859 
L 336.631948 98.523799 
L 335.371157 99.731766 
L 332.908495 101.608002 
L 331.041665 103.373492 
L 328.555342 105.250234 
L 324.191633 108.837977 
L 322.947109 109.811344 
L 317.979798 113.942577 
L 314.851132 116.24865 
L 313.587557 117.294543 
L 312.357618 118.079184 
L 309.852272 120.073183 
L 308.008292 121.38804 
L 304.910667 123.760176 
L 303.674001 124.543869 
L 302.42388 125.641343 
L 300.56111 126.950448 
L 298.686392 128.264356 
L 296.816546 129.698177 
L 292.482734 132.973246 
L 290.57612 134.180012 
L 289.304889 135.077232 
L 288.080518 135.993669 
L 286.828309 136.67142 
L 284.32134 138.557517 
L 280.571789 140.982932 
L 278.71041 142.018396 
L 277.458811 143.071535 
L 276.209966 143.98854 
L 273.741505 145.304661 
L 272.496371 146.376345 
L 270.617594 147.579128 
L 269.997289 147.865728 
L 266.882078 150.108716 
L 266.272212 150.411434 
L 264.424752 151.578187 
L 263.193653 152.305053 
L 258.129304 155.846598 
L 255.678937 157.33636 
L 253.161065 158.906527 
L 252.528233 159.199195 
L 251.276952 160.035607 
L 248.788425 161.463043 
L 247.551179 162.354321 
L 246.915346 162.695852 
L 245.665457 163.09737 
L 245.028798 163.449646 
L 243.792944 164.518674 
L 241.330746 165.855466 
L 240.067171 166.774936 
L 237.577484 168.127973 
L 236.961123 168.736065 
L 235.717381 169.445864 
L 233.846027 170.342737 
L 233.232334 170.94514 
L 232.605881 171.386923 
L 230.713679 172.148714 
L 230.097781 172.412431 
L 228.24429 173.931903 
L 226.384535 174.654012 
L 225.117016 175.639918 
L 223.886613 176.268301 
L 222.030802 177.158315 
L 220.799239 178.032147 
L 218.942268 178.826586 
L 217.070102 180.244478 
L 215.205577 180.949232 
L 214.586316 181.26396 
L 213.341299 182.264215 
L 212.722386 182.539469 
L 212.085146 182.687778 
L 210.842913 183.260092 
L 208.963324 184.787655 
L 207.709723 185.115611 
L 206.463778 185.614277 
L 205.195331 186.76017 
L 203.951822 187.299757 
L 202.699149 187.715624 
L 201.452856 188.548495 
L 200.217393 189.253506 
L 197.723994 190.393932 
L 197.099514 190.860178 
L 195.246254 191.772569 
L 193.970848 192.368651 
L 188.317119 195.428802 
L 187.062822 196.097261 
L 185.200704 196.82919 
L 183.939448 197.712693 
L 180.793848 199.286337 
L 179.531897 200.055428 
L 177.637113 200.591523 
L 177.011125 200.840369 
L 175.156241 202.107249 
L 173.926303 202.770145 
L 173.313421 202.927478 
L 170.188691 204.562188 
L 168.334968 205.423568 
L 167.07406 206.260485 
L 164.583561 207.261845 
L 163.324857 207.996613 
L 157.721931 210.425157 
L 156.476914 211.222125 
L 154.614013 211.761431 
L 153.977933 212.062917 
L 152.759013 213.059885 
L 151.505297 213.496983 
L 150.26747 213.961965 
L 148.40064 215.236366 
L 146.513048 215.676093 
L 143.442376 217.214307 
L 142.218933 217.778341 
L 140.376808 218.704702 
L 139.130326 219.055109 
L 137.870926 219.606469 
L 135.983798 220.379953 
L 133.481585 221.729639 
L 131.633197 222.324268 
L 128.515669 223.883942 
L 126.65661 224.56302 
L 125.416465 224.831621 
L 124.154542 225.471026 
L 122.89781 226.230383 
L 120.396176 227.073589 
L 118.495361 228.128458 
L 114.782579 229.478145 
L 111.641038 230.918824 
L 111.009598 231.05084 
L 106.016973 233.116066 
L 104.153739 233.767474 
L 102.269626 234.750661 
L 101.011154 235.086651 
L 100.391777 235.158174 
L 99.765673 235.390476 
L 97.875759 236.463803 
L 95.362179 237.134735 
L 93.482987 238.235143 
L 92.237737 238.530948 
L 90.983209 238.807204 
L 89.12705 239.870354 
L 87.883308 240.269834 
L 86.64873 240.487995 
L 84.791063 241.471847 
L 84.155912 241.783162 
L 82.294533 242.116013 
L 81.038381 242.62047 
L 80.407405 243.005363 
L 79.168329 243.392422 
L 78.544312 243.466696 
L 77.296047 243.944067 
L 76.043838 244.575294 
L 75.431188 244.7713 
L 74.203801 244.88302 
L 72.948345 245.31314 
L 71.695092 245.81936 
L 70.469445 245.762297 
L 69.853779 245.691034 
L 69.358945 246.24 
L 69.218182 245.170421 
L 69.218588 245.174822 
" clip-path="url(#pffac7274c0)" style="fill: none; stroke: #000000; stroke-width: 1.5; stroke-linecap: square"/>
   </g>
   <g id="patch_3">
    <path d="M 54 256.32 
L 54 34.56 
" style="fill: none; stroke: #000000; stroke-width: 0.8; stroke-linejoin: miter; stroke-linecap: square"/>
   </g>
   <g id="patch_4">
    <path d="M 388.8 256.32 
L 388.8 34.56 
" style="fill: none; stroke: #000000; stroke-width: 0.8; stroke-linejoin: miter; stroke-linecap: square"/>
   </g>
   <g id="patch_5">
    <path d="M 54 256.32 
L 388.8 256.32 
" style="fill: none; stroke: #000000; stroke-width: 0.8; stroke-linejoin: miter; stroke-linecap: square"/>
   </g>
   <g id="patch_6">
    <path d="M 54 34.56 
L 388.8 34.56 
" style="fill: none; stroke: #000000; stroke-width: 0.8; stroke-linejoin: miter; stroke-linecap: square"/>
   </g>
   <g id="text_18">
    <!-- 2025-07-03 trial 14 -->
    <g transform="translate(163.2525 28.56) scale(0.12 -0.12)">
     <defs>
      <path id="DejaVuSans-2d" d="M 313 2009 
L 1997 2009 
L 1997 1497 
L 313 1497 
L 313 2009 
z
" transform="scale(0.015625)"/>
      <path id="DejaVuSans-33" d="M 2597 2516 
Q 3050 2419 3304 2112 
Q 3559 1806 3559 1356 
Q 3559 666 3084 287 
Q 2609 -91 1734 -91 
Q 1441 -91 1130 -33 
Q 819 25 488 141 
L 488 750 
Q 750 597 1062 519 
Q 1375 441 1716 441 
Q 2309 441 2620 675 
Q 2931 909 2931 1356 
Q 2931 1769 2642 2001 
Q 2353 2234 1838 2234 
L 1294 2234 
L 1294 2753 
L 1863 2753 
Q 2328 2753 2575 2939 
Q 2822 3125 2822 3475 
Q 2822 3834 2567 4026 
Q 2313 4219 1838 4219 
Q 1578 4219 1281 4162 
Q 984 4106 628 3988 
L 628 4550 
Q 988 4650 1302 4700 
Q 1616 4750 1894 4750 
Q 2613 4750 3031 4423 
Q 3450 4097 3450 3541 
Q 3450 3153 3228 2886 
Q 3006 2619 2597 2516 
z
" transform="scale(0.015625)"/>
      <path id="DejaVuSans-6c" d="M 603 4863 
L 1178 4863 
L 1178 0 
L 603 0 
L 603 4863 
z
" transform="scale(0.015625)"/>
      <path id="DejaVuSans-34" d="M 2419 4116 
L 825 1625 
L 2419 1625 
L 2419 4116 
z
M 2253 4666 
L 3047 4666 
L 3047 1625 
L 3713 1625 
L 3713 1100 
L 3047 1100 
L 3047 0 
L 2419 0 
L 2419 1100 
L 313 1100 
L 313 1709 
L 2253 4666 
z
" transform="scale(0.015625)"/>
     </defs>
     <use xlink:href="#DejaVuSans-32"/>
     <use xlink:href="#DejaVuSans-30" x="63.623047"/>
     <use xlink:href="#DejaVuSans-32" x="127.246094"/>
     <use xlink:href="#DejaVuSans-35" x="190.869141"/>
     <use xlink:href="#DejaVuSans-2d" x="254.492188"/>
     <use xlink:href="#DejaVuSans-30" x="290.576172"/>
     <use xlink:href="#DejaVuSans-37" x="354.199219"/>
     <use xlink:href="#DejaVuSans-2d" x="417.822266"/>
     <use xlink:href="#DejaVuSans-30" x="453.90625"/>
     <use xlink:href="#DejaVuSans-33" x="517.529297"/>
     <use xlink:href="#DejaVuSans-20" x="581.152344"/>
     <use xlink:href="#DejaVuSans-74" x="612.939453"/>
     <use xlink:href="#DejaVuSans-72" x="652.148438"/>
     <use xlink:href="#DejaVuSans-69" x="693.261719"/>
     <use xlink:href="#DejaVuSans-61" x="721.044922"/>
     <use xlink:href="#DejaVuSans-6c" x="782.324219"/>
     <use xlink:href="#DejaVuSans-20" x="810.107422"/>
     <use xlink:href="#DejaVuSans-31" x="841.894531"/>
     <use xlink:href="#DejaVuSans-34" x="905.517578"/>
    </g>
   </g>
  </g>
 </g>
 <defs>
  <clipPath id="pffac7274c0">
   <rect x="54" y="34.56" width="334.8" height="221.76"/>
  </clipPath>
 </defs>
</svg>
