<?xml version="1.0" encoding="utf-8" standalone="no"?>
<!DOCTYPE svg PUBLIC "-//W3C//DTD SVG 1.1//EN"
  "http://www.w3.org/Graphics/SVG/1.1/DTD/svg11.dtd">
<svg xmlns:xlink="http://www.w3.org/1999/xlink" width="460.8pt" height="345.6pt" viewBox="0 0 460.8 345.6" xmlns="http://www.w3.org/2000/svg" version="1.1">
 <metadata>
  <rdf:RDF xmlns:dc="http://purl.org/dc/elements/1.1/" xmlns:cc="http://creativecommons.org/ns#" xmlns:rdf="http://www.w3.org/1999/02/22-rdf-syntax-ns#">
   <cc:Work>
    <dc:type rdf:resource="http://purl.org/dc/dcmitype/StillImage"/>
    <dc:date>2025-07-08T21:01:41.661295</dc:date>
    <dc:format>image/svg+xml</dc:format>
    <dc:creator>
     <cc:Agent>
      <dc:title>Matplotlib v3.10.3, https://matplotlib.org/</dc:title>
     </cc:Agent>
    </dc:creator>
   </cc:Work>
  </rdf:RDF>
 </metadata>
 <defs>
  <style type="text/css">*{stroke-linejoin: round; stroke-linecap: butt}</style>
 </defs>
 <g id="figure_1">
  <g id="patch_1">
   <path d="M 0 345.6 
L 460.8 345.6 
L 460.8 0 
L 0 0 
z
" style="fill: #ffffff"/>
  </g>
  <g id="axes_1">
   <g id="patch_2">
    <path d="M 57.6 307.584 
L 414.72 307.584 
L 414.72 41.472 
L 57.6 41.472 
z
" style="fill: #ffffff"/>
   </g>
   <g id="matplotlib.axis_1">
    <g id="xtick_1">
     <g id="line2d_1">
      <defs>
       <path id="m1313ab66ed" d="M 0 0 
L 0 3.5 
" style="stroke: #000000; stroke-width: 0.8"/>
      </defs>
      <g>
       <use xlink:href="#m1313ab66ed" x="73.978222" y="307.584" style="stroke: #000000; stroke-width: 0.8"/>
      </g>
     </g>
     <g id="text_1">
      <!-- 0.000 -->
      <g transform="translate(59.66416 322.182437) scale(0.1 -0.1)">
       <defs>
        <path id="DejaVuSans-30" d="M 2034 4250 
Q 1547 4250 1301 3770 
Q 1056 3291 1056 2328 
Q 1056 1369 1301 889 
Q 1547 409 2034 409 
Q 2525 409 2770 889 
Q 3016 1369 3016 2328 
Q 3016 3291 2770 3770 
Q 2525 4250 2034 4250 
z
M 2034 4750 
Q 2819 4750 3233 4129 
Q 3647 3509 3647 2328 
Q 3647 1150 3233 529 
Q 2819 -91 2034 -91 
Q 1250 -91 836 529 
Q 422 1150 422 2328 
Q 422 3509 836 4129 
Q 1250 4750 2034 4750 
z
" transform="scale(0.015625)"/>
        <path id="DejaVuSans-2e" d="M 684 794 
L 1344 794 
L 1344 0 
L 684 0 
L 684 794 
z
" transform="scale(0.015625)"/>
       </defs>
       <use xlink:href="#DejaVuSans-30"/>
       <use xlink:href="#DejaVuSans-2e" transform="translate(63.623047 0)"/>
       <use xlink:href="#DejaVuSans-30" transform="translate(95.410156 0)"/>
       <use xlink:href="#DejaVuSans-30" transform="translate(159.033203 0)"/>
       <use xlink:href="#DejaVuSans-30" transform="translate(222.65625 0)"/>
      </g>
     </g>
    </g>
    <g id="xtick_2">
     <g id="line2d_2">
      <g>
       <use xlink:href="#m1313ab66ed" x="119.386058" y="307.584" style="stroke: #000000; stroke-width: 0.8"/>
      </g>
     </g>
     <g id="text_2">
      <!-- 0.025 -->
      <g transform="translate(105.071995 322.182437) scale(0.1 -0.1)">
       <defs>
        <path id="DejaVuSans-32" d="M 1228 531 
L 3431 531 
L 3431 0 
L 469 0 
L 469 531 
Q 828 903 1448 1529 
Q 2069 2156 2228 2338 
Q 2531 2678 2651 2914 
Q 2772 3150 2772 3378 
Q 2772 3750 2511 3984 
Q 2250 4219 1831 4219 
Q 1534 4219 1204 4116 
Q 875 4013 500 3803 
L 500 4441 
Q 881 4594 1212 4672 
Q 1544 4750 1819 4750 
Q 2544 4750 2975 4387 
Q 3406 4025 3406 3419 
Q 3406 3131 3298 2873 
Q 3191 2616 2906 2266 
Q 2828 2175 2409 1742 
Q 1991 1309 1228 531 
z
" transform="scale(0.015625)"/>
        <path id="DejaVuSans-35" d="M 691 4666 
L 3169 4666 
L 3169 4134 
L 1269 4134 
L 1269 2991 
Q 1406 3038 1543 3061 
Q 1681 3084 1819 3084 
Q 2600 3084 3056 2656 
Q 3513 2228 3513 1497 
Q 3513 744 3044 326 
Q 2575 -91 1722 -91 
Q 1428 -91 1123 -41 
Q 819 9 494 109 
L 494 744 
Q 775 591 1075 516 
Q 1375 441 1709 441 
Q 2250 441 2565 725 
Q 2881 1009 2881 1497 
Q 2881 1984 2565 2268 
Q 2250 2553 1709 2553 
Q 1456 2553 1204 2497 
Q 953 2441 691 2322 
L 691 4666 
z
" transform="scale(0.015625)"/>
       </defs>
       <use xlink:href="#DejaVuSans-30"/>
       <use xlink:href="#DejaVuSans-2e" transform="translate(63.623047 0)"/>
       <use xlink:href="#DejaVuSans-30" transform="translate(95.410156 0)"/>
       <use xlink:href="#DejaVuSans-32" transform="translate(159.033203 0)"/>
       <use xlink:href="#DejaVuSans-35" transform="translate(222.65625 0)"/>
      </g>
     </g>
    </g>
    <g id="xtick_3">
     <g id="line2d_3">
      <g>
       <use xlink:href="#m1313ab66ed" x="164.793893" y="307.584" style="stroke: #000000; stroke-width: 0.8"/>
      </g>
     </g>
     <g id="text_3">
      <!-- 0.050 -->
      <g transform="translate(150.47983 322.182437) scale(0.1 -0.1)">
       <use xlink:href="#DejaVuSans-30"/>
       <use xlink:href="#DejaVuSans-2e" transform="translate(63.623047 0)"/>
       <use xlink:href="#DejaVuSans-30" transform="translate(95.410156 0)"/>
       <use xlink:href="#DejaVuSans-35" transform="translate(159.033203 0)"/>
       <use xlink:href="#DejaVuSans-30" transform="translate(222.65625 0)"/>
      </g>
     </g>
    </g>
    <g id="xtick_4">
     <g id="line2d_4">
      <g>
       <use xlink:href="#m1313ab66ed" x="210.201728" y="307.584" style="stroke: #000000; stroke-width: 0.8"/>
      </g>
     </g>
     <g id="text_4">
      <!-- 0.075 -->
      <g transform="translate(195.887665 322.182437) scale(0.1 -0.1)">
       <defs>
        <path id="DejaVuSans-37" d="M 525 4666 
L 3525 4666 
L 3525 4397 
L 1831 0 
L 1172 0 
L 2766 4134 
L 525 4134 
L 525 4666 
z
" transform="scale(0.015625)"/>
       </defs>
       <use xlink:href="#DejaVuSans-30"/>
       <use xlink:href="#DejaVuSans-2e" transform="translate(63.623047 0)"/>
       <use xlink:href="#DejaVuSans-30" transform="translate(95.410156 0)"/>
       <use xlink:href="#DejaVuSans-37" transform="translate(159.033203 0)"/>
       <use xlink:href="#DejaVuSans-35" transform="translate(222.65625 0)"/>
      </g>
     </g>
    </g>
    <g id="xtick_5">
     <g id="line2d_5">
      <g>
       <use xlink:href="#m1313ab66ed" x="255.609563" y="307.584" style="stroke: #000000; stroke-width: 0.8"/>
      </g>
     </g>
     <g id="text_5">
      <!-- 0.100 -->
      <g transform="translate(241.2955 322.182437) scale(0.1 -0.1)">
       <defs>
        <path id="DejaVuSans-31" d="M 794 531 
L 1825 531 
L 1825 4091 
L 703 3866 
L 703 4441 
L 1819 4666 
L 2450 4666 
L 2450 531 
L 3481 531 
L 3481 0 
L 794 0 
L 794 531 
z
" transform="scale(0.015625)"/>
       </defs>
       <use xlink:href="#DejaVuSans-30"/>
       <use xlink:href="#DejaVuSans-2e" transform="translate(63.623047 0)"/>
       <use xlink:href="#DejaVuSans-31" transform="translate(95.410156 0)"/>
       <use xlink:href="#DejaVuSans-30" transform="translate(159.033203 0)"/>
       <use xlink:href="#DejaVuSans-30" transform="translate(222.65625 0)"/>
      </g>
     </g>
    </g>
    <g id="xtick_6">
     <g id="line2d_6">
      <g>
       <use xlink:href="#m1313ab66ed" x="301.017398" y="307.584" style="stroke: #000000; stroke-width: 0.8"/>
      </g>
     </g>
     <g id="text_6">
      <!-- 0.125 -->
      <g transform="translate(286.703335 322.182437) scale(0.1 -0.1)">
       <use xlink:href="#DejaVuSans-30"/>
       <use xlink:href="#DejaVuSans-2e" transform="translate(63.623047 0)"/>
       <use xlink:href="#DejaVuSans-31" transform="translate(95.410156 0)"/>
       <use xlink:href="#DejaVuSans-32" transform="translate(159.033203 0)"/>
       <use xlink:href="#DejaVuSans-35" transform="translate(222.65625 0)"/>
      </g>
     </g>
    </g>
    <g id="xtick_7">
     <g id="line2d_7">
      <g>
       <use xlink:href="#m1313ab66ed" x="346.425233" y="307.584" style="stroke: #000000; stroke-width: 0.8"/>
      </g>
     </g>
     <g id="text_7">
      <!-- 0.150 -->
      <g transform="translate(332.11117 322.182437) scale(0.1 -0.1)">
       <use xlink:href="#DejaVuSans-30"/>
       <use xlink:href="#DejaVuSans-2e" transform="translate(63.623047 0)"/>
       <use xlink:href="#DejaVuSans-31" transform="translate(95.410156 0)"/>
       <use xlink:href="#DejaVuSans-35" transform="translate(159.033203 0)"/>
       <use xlink:href="#DejaVuSans-30" transform="translate(222.65625 0)"/>
      </g>
     </g>
    </g>
    <g id="xtick_8">
     <g id="line2d_8">
      <g>
       <use xlink:href="#m1313ab66ed" x="391.833068" y="307.584" style="stroke: #000000; stroke-width: 0.8"/>
      </g>
     </g>
     <g id="text_8">
      <!-- 0.175 -->
      <g transform="translate(377.519006 322.182437) scale(0.1 -0.1)">
       <use xlink:href="#DejaVuSans-30"/>
       <use xlink:href="#DejaVuSans-2e" transform="translate(63.623047 0)"/>
       <use xlink:href="#DejaVuSans-31" transform="translate(95.410156 0)"/>
       <use xlink:href="#DejaVuSans-37" transform="translate(159.033203 0)"/>
       <use xlink:href="#DejaVuSans-35" transform="translate(222.65625 0)"/>
      </g>
     </g>
    </g>
    <g id="text_9">
     <!-- Strain -->
     <g transform="translate(221.348281 335.860562) scale(0.1 -0.1)">
      <defs>
       <path id="DejaVuSans-53" d="M 3425 4513 
L 3425 3897 
Q 3066 4069 2747 4153 
Q 2428 4238 2131 4238 
Q 1616 4238 1336 4038 
Q 1056 3838 1056 3469 
Q 1056 3159 1242 3001 
Q 1428 2844 1947 2747 
L 2328 2669 
Q 3034 2534 3370 2195 
Q 3706 1856 3706 1288 
Q 3706 609 3251 259 
Q 2797 -91 1919 -91 
Q 1588 -91 1214 -16 
Q 841 59 441 206 
L 441 856 
Q 825 641 1194 531 
Q 1563 422 1919 422 
Q 2459 422 2753 634 
Q 3047 847 3047 1241 
Q 3047 1584 2836 1778 
Q 2625 1972 2144 2069 
L 1759 2144 
Q 1053 2284 737 2584 
Q 422 2884 422 3419 
Q 422 4038 858 4394 
Q 1294 4750 2059 4750 
Q 2388 4750 2728 4690 
Q 3069 4631 3425 4513 
z
" transform="scale(0.015625)"/>
       <path id="DejaVuSans-74" d="M 1172 4494 
L 1172 3500 
L 2356 3500 
L 2356 3053 
L 1172 3053 
L 1172 1153 
Q 1172 725 1289 603 
Q 1406 481 1766 481 
L 2356 481 
L 2356 0 
L 1766 0 
Q 1100 0 847 248 
Q 594 497 594 1153 
L 594 3053 
L 172 3053 
L 172 3500 
L 594 3500 
L 594 4494 
L 1172 4494 
z
" transform="scale(0.015625)"/>
       <path id="DejaVuSans-72" d="M 2631 2963 
Q 2534 3019 2420 3045 
Q 2306 3072 2169 3072 
Q 1681 3072 1420 2755 
Q 1159 2438 1159 1844 
L 1159 0 
L 581 0 
L 581 3500 
L 1159 3500 
L 1159 2956 
Q 1341 3275 1631 3429 
Q 1922 3584 2338 3584 
Q 2397 3584 2469 3576 
Q 2541 3569 2628 3553 
L 2631 2963 
z
" transform="scale(0.015625)"/>
       <path id="DejaVuSans-61" d="M 2194 1759 
Q 1497 1759 1228 1600 
Q 959 1441 959 1056 
Q 959 750 1161 570 
Q 1363 391 1709 391 
Q 2188 391 2477 730 
Q 2766 1069 2766 1631 
L 2766 1759 
L 2194 1759 
z
M 3341 1997 
L 3341 0 
L 2766 0 
L 2766 531 
Q 2569 213 2275 61 
Q 1981 -91 1556 -91 
Q 1019 -91 701 211 
Q 384 513 384 1019 
Q 384 1609 779 1909 
Q 1175 2209 1959 2209 
L 2766 2209 
L 2766 2266 
Q 2766 2663 2505 2880 
Q 2244 3097 1772 3097 
Q 1472 3097 1187 3025 
Q 903 2953 641 2809 
L 641 3341 
Q 956 3463 1253 3523 
Q 1550 3584 1831 3584 
Q 2591 3584 2966 3190 
Q 3341 2797 3341 1997 
z
" transform="scale(0.015625)"/>
       <path id="DejaVuSans-69" d="M 603 3500 
L 1178 3500 
L 1178 0 
L 603 0 
L 603 3500 
z
M 603 4863 
L 1178 4863 
L 1178 4134 
L 603 4134 
L 603 4863 
z
" transform="scale(0.015625)"/>
       <path id="DejaVuSans-6e" d="M 3513 2113 
L 3513 0 
L 2938 0 
L 2938 2094 
Q 2938 2591 2744 2837 
Q 2550 3084 2163 3084 
Q 1697 3084 1428 2787 
Q 1159 2491 1159 1978 
L 1159 0 
L 581 0 
L 581 3500 
L 1159 3500 
L 1159 2956 
Q 1366 3272 1645 3428 
Q 1925 3584 2291 3584 
Q 2894 3584 3203 3211 
Q 3513 2838 3513 2113 
z
" transform="scale(0.015625)"/>
      </defs>
      <use xlink:href="#DejaVuSans-53"/>
      <use xlink:href="#DejaVuSans-74" transform="translate(63.476562 0)"/>
      <use xlink:href="#DejaVuSans-72" transform="translate(102.685547 0)"/>
      <use xlink:href="#DejaVuSans-61" transform="translate(143.798828 0)"/>
      <use xlink:href="#DejaVuSans-69" transform="translate(205.078125 0)"/>
      <use xlink:href="#DejaVuSans-6e" transform="translate(232.861328 0)"/>
     </g>
    </g>
   </g>
   <g id="matplotlib.axis_2">
    <g id="ytick_1">
     <g id="line2d_9">
      <defs>
       <path id="mf933c9ab8c" d="M 0 0 
L -3.5 0 
" style="stroke: #000000; stroke-width: 0.8"/>
      </defs>
      <g>
       <use xlink:href="#mf933c9ab8c" x="57.6" y="278.297067" style="stroke: #000000; stroke-width: 0.8"/>
      </g>
     </g>
     <g id="text_10">
      <!-- 0 -->
      <g transform="translate(44.2375 282.096285) scale(0.1 -0.1)">
       <use xlink:href="#DejaVuSans-30"/>
      </g>
     </g>
    </g>
    <g id="ytick_2">
     <g id="line2d_10">
      <g>
       <use xlink:href="#mf933c9ab8c" x="57.6" y="242.344452" style="stroke: #000000; stroke-width: 0.8"/>
      </g>
     </g>
     <g id="text_11">
      <!-- 250 -->
      <g transform="translate(31.5125 246.143671) scale(0.1 -0.1)">
       <use xlink:href="#DejaVuSans-32"/>
       <use xlink:href="#DejaVuSans-35" transform="translate(63.623047 0)"/>
       <use xlink:href="#DejaVuSans-30" transform="translate(127.246094 0)"/>
      </g>
     </g>
    </g>
    <g id="ytick_3">
     <g id="line2d_11">
      <g>
       <use xlink:href="#mf933c9ab8c" x="57.6" y="206.391838" style="stroke: #000000; stroke-width: 0.8"/>
      </g>
     </g>
     <g id="text_12">
      <!-- 500 -->
      <g transform="translate(31.5125 210.191056) scale(0.1 -0.1)">
       <use xlink:href="#DejaVuSans-35"/>
       <use xlink:href="#DejaVuSans-30" transform="translate(63.623047 0)"/>
       <use xlink:href="#DejaVuSans-30" transform="translate(127.246094 0)"/>
      </g>
     </g>
    </g>
    <g id="ytick_4">
     <g id="line2d_12">
      <g>
       <use xlink:href="#mf933c9ab8c" x="57.6" y="170.439223" style="stroke: #000000; stroke-width: 0.8"/>
      </g>
     </g>
     <g id="text_13">
      <!-- 750 -->
      <g transform="translate(31.5125 174.238442) scale(0.1 -0.1)">
       <use xlink:href="#DejaVuSans-37"/>
       <use xlink:href="#DejaVuSans-35" transform="translate(63.623047 0)"/>
       <use xlink:href="#DejaVuSans-30" transform="translate(127.246094 0)"/>
      </g>
     </g>
    </g>
    <g id="ytick_5">
     <g id="line2d_13">
      <g>
       <use xlink:href="#mf933c9ab8c" x="57.6" y="134.486609" style="stroke: #000000; stroke-width: 0.8"/>
      </g>
     </g>
     <g id="text_14">
      <!-- 1000 -->
      <g transform="translate(25.15 138.285827) scale(0.1 -0.1)">
       <use xlink:href="#DejaVuSans-31"/>
       <use xlink:href="#DejaVuSans-30" transform="translate(63.623047 0)"/>
       <use xlink:href="#DejaVuSans-30" transform="translate(127.246094 0)"/>
       <use xlink:href="#DejaVuSans-30" transform="translate(190.869141 0)"/>
      </g>
     </g>
    </g>
    <g id="ytick_6">
     <g id="line2d_14">
      <g>
       <use xlink:href="#mf933c9ab8c" x="57.6" y="98.533994" style="stroke: #000000; stroke-width: 0.8"/>
      </g>
     </g>
     <g id="text_15">
      <!-- 1250 -->
      <g transform="translate(25.15 102.333213) scale(0.1 -0.1)">
       <use xlink:href="#DejaVuSans-31"/>
       <use xlink:href="#DejaVuSans-32" transform="translate(63.623047 0)"/>
       <use xlink:href="#DejaVuSans-35" transform="translate(127.246094 0)"/>
       <use xlink:href="#DejaVuSans-30" transform="translate(190.869141 0)"/>
      </g>
     </g>
    </g>
    <g id="ytick_7">
     <g id="line2d_15">
      <g>
       <use xlink:href="#mf933c9ab8c" x="57.6" y="62.58138" style="stroke: #000000; stroke-width: 0.8"/>
      </g>
     </g>
     <g id="text_16">
      <!-- 1500 -->
      <g transform="translate(25.15 66.380598) scale(0.1 -0.1)">
       <use xlink:href="#DejaVuSans-31"/>
       <use xlink:href="#DejaVuSans-35" transform="translate(63.623047 0)"/>
       <use xlink:href="#DejaVuSans-30" transform="translate(127.246094 0)"/>
       <use xlink:href="#DejaVuSans-30" transform="translate(190.869141 0)"/>
      </g>
     </g>
    </g>
    <g id="text_17">
     <!-- Stress [Pa] -->
     <g transform="translate(19.070312 201.235813) rotate(-90) scale(0.1 -0.1)">
      <defs>
       <path id="DejaVuSans-65" d="M 3597 1894 
L 3597 1613 
L 953 1613 
Q 991 1019 1311 708 
Q 1631 397 2203 397 
Q 2534 397 2845 478 
Q 3156 559 3463 722 
L 3463 178 
Q 3153 47 2828 -22 
Q 2503 -91 2169 -91 
Q 1331 -91 842 396 
Q 353 884 353 1716 
Q 353 2575 817 3079 
Q 1281 3584 2069 3584 
Q 2775 3584 3186 3129 
Q 3597 2675 3597 1894 
z
M 3022 2063 
Q 3016 2534 2758 2815 
Q 2500 3097 2075 3097 
Q 1594 3097 1305 2825 
Q 1016 2553 972 2059 
L 3022 2063 
z
" transform="scale(0.015625)"/>
       <path id="DejaVuSans-73" d="M 2834 3397 
L 2834 2853 
Q 2591 2978 2328 3040 
Q 2066 3103 1784 3103 
Q 1356 3103 1142 2972 
Q 928 2841 928 2578 
Q 928 2378 1081 2264 
Q 1234 2150 1697 2047 
L 1894 2003 
Q 2506 1872 2764 1633 
Q 3022 1394 3022 966 
Q 3022 478 2636 193 
Q 2250 -91 1575 -91 
Q 1294 -91 989 -36 
Q 684 19 347 128 
L 347 722 
Q 666 556 975 473 
Q 1284 391 1588 391 
Q 1994 391 2212 530 
Q 2431 669 2431 922 
Q 2431 1156 2273 1281 
Q 2116 1406 1581 1522 
L 1381 1569 
Q 847 1681 609 1914 
Q 372 2147 372 2553 
Q 372 3047 722 3315 
Q 1072 3584 1716 3584 
Q 2034 3584 2315 3537 
Q 2597 3491 2834 3397 
z
" transform="scale(0.015625)"/>
       <path id="DejaVuSans-20" transform="scale(0.015625)"/>
       <path id="DejaVuSans-5b" d="M 550 4863 
L 1875 4863 
L 1875 4416 
L 1125 4416 
L 1125 -397 
L 1875 -397 
L 1875 -844 
L 550 -844 
L 550 4863 
z
" transform="scale(0.015625)"/>
       <path id="DejaVuSans-50" d="M 1259 4147 
L 1259 2394 
L 2053 2394 
Q 2494 2394 2734 2622 
Q 2975 2850 2975 3272 
Q 2975 3691 2734 3919 
Q 2494 4147 2053 4147 
L 1259 4147 
z
M 628 4666 
L 2053 4666 
Q 2838 4666 3239 4311 
Q 3641 3956 3641 3272 
Q 3641 2581 3239 2228 
Q 2838 1875 2053 1875 
L 1259 1875 
L 1259 0 
L 628 0 
L 628 4666 
z
" transform="scale(0.015625)"/>
       <path id="DejaVuSans-5d" d="M 1947 4863 
L 1947 -844 
L 622 -844 
L 622 -397 
L 1369 -397 
L 1369 4416 
L 622 4416 
L 622 4863 
L 1947 4863 
z
" transform="scale(0.015625)"/>
      </defs>
      <use xlink:href="#DejaVuSans-53"/>
      <use xlink:href="#DejaVuSans-74" transform="translate(63.476562 0)"/>
      <use xlink:href="#DejaVuSans-72" transform="translate(102.685547 0)"/>
      <use xlink:href="#DejaVuSans-65" transform="translate(141.548828 0)"/>
      <use xlink:href="#DejaVuSans-73" transform="translate(203.072266 0)"/>
      <use xlink:href="#DejaVuSans-73" transform="translate(255.171875 0)"/>
      <use xlink:href="#DejaVuSans-20" transform="translate(307.271484 0)"/>
      <use xlink:href="#DejaVuSans-5b" transform="translate(339.058594 0)"/>
      <use xlink:href="#DejaVuSans-50" transform="translate(378.072266 0)"/>
      <use xlink:href="#DejaVuSans-61" transform="translate(433.875 0)"/>
      <use xlink:href="#DejaVuSans-5d" transform="translate(495.154297 0)"/>
     </g>
    </g>
   </g>
   <g id="line2d_16">
    <path d="M 73.978222 278.523637 
L 73.980912 278.563624 
L 73.98366 278.354791 
L 74.64545 276.698236 
L 75.331761 273.056625 
L 76.033538 272.114087 
L 76.692753 272.545793 
L 77.358897 272.367854 
L 78.818375 270.061986 
L 79.470166 269.44535 
L 80.175902 269.204637 
L 80.932119 269.243196 
L 83.095849 269.890907 
L 83.807524 270.174365 
L 86.031632 271.693825 
L 87.543075 272.853732 
L 89.772133 274.202207 
L 90.489747 274.204784 
L 91.195483 273.693649 
L 92.573301 272.265139 
L 93.250333 271.765524 
L 93.921426 271.661462 
L 96.031705 272.484705 
L 96.7998 272.365638 
L 97.541169 271.827521 
L 98.955611 270.035819 
L 100.310664 268.279891 
L 102.291278 266.510624 
L 103.59981 265.606587 
L 104.903393 264.865047 
L 107.75405 263.647842 
L 109.297855 262.706041 
L 110.842952 262.11487 
L 112.38508 261.529157 
L 116.982758 259.066855 
L 120.043257 257.474028 
L 123.873831 255.286091 
L 129.690957 252.389052 
L 132.304062 250.936288 
L 136.244504 249.213708 
L 138.203343 247.953757 
L 141.456856 245.916796 
L 143.411735 244.902104 
L 145.371563 243.796464 
L 147.33733 242.776316 
L 150.626476 241.018265 
L 151.942927 240.39405 
L 155.221185 238.573851 
L 157.30276 237.410611 
L 161.959827 234.340769 
L 165.886412 232.203763 
L 168.525251 230.724017 
L 169.84764 229.969441 
L 171.832214 228.922918 
L 175.771721 226.342094 
L 177.074314 225.600553 
L 181.485907 222.574973 
L 185.410513 220.310941 
L 187.378259 219.16498 
L 195.225491 214.470782 
L 197.55155 212.880079 
L 199.100606 211.777167 
L 207.603093 206.259272 
L 209.152149 205.193952 
L 218.409863 199.258599 
L 220.69534 197.625145 
L 222.218661 196.502224 
L 224.506117 194.975488 
L 227.570576 192.884866 
L 229.887726 191.530025 
L 232.211805 189.918403 
L 233.763831 188.984657 
L 235.311897 187.962993 
L 239.162607 185.184548 
L 243.014957 182.399376 
L 245.331117 180.876582 
L 247.647278 179.190381 
L 251.27593 176.575285 
L 253.233778 175.245 
L 254.54528 174.357031 
L 255.857771 173.510293 
L 257.828487 171.984164 
L 265.028381 167.045009 
L 269.663672 163.504049 
L 274.059428 159.910945 
L 275.36697 159.012972 
L 279.974546 155.636327 
L 281.954171 154.124749 
L 284.581132 152.187529 
L 287.840584 149.554243 
L 292.39768 145.720426 
L 295.680887 143.329672 
L 297.659522 141.856293 
L 302.264128 138.497838 
L 304.872531 136.496687 
L 308.749626 133.058803 
L 311.728961 130.475236 
L 314.345034 128.336108 
L 316.31971 126.709328 
L 317.641109 125.705248 
L 319.623703 124.245814 
L 322.253634 122.0697 
L 326.415795 118.75671 
L 327.950004 117.267567 
L 330.23746 115.231515 
L 331.760781 113.78057 
L 333.291031 112.515162 
L 334.82425 111.289165 
L 339.434795 107.291639 
L 340.973953 106.143252 
L 344.800568 102.639885 
L 352.450332 95.539775 
L 354.001367 94.087011 
L 361.966387 87.234889 
L 364.042023 85.292212 
L 365.58811 83.897656 
L 371.714862 77.764811 
L 373.250061 76.282337 
L 375.564242 73.996477 
L 379.198832 70.528883 
L 385.96024 64.236403 
L 388.243242 62.488357 
L 391.764499 60.293447 
L 395.206076 58.344706 
L 396.575234 56.797355 
L 397.251771 55.701719 
L 397.9035 54.006878 
L 398.180833 53.785625 
L 398.487273 55.070985 
L 398.3195 70.357443 
L 398.318726 70.25666 
L 398.319685 77.884049 
L 398.320427 77.759183 
L 398.320149 85.746883 
L 398.321572 85.705406 
L 397.767989 85.819926 
L 397.113475 87.682796 
L 396.445599 89.120477 
L 395.764609 89.036425 
L 395.070503 89.082771 
L 394.380109 89.368352 
L 393.059452 90.098391 
L 392.40964 90.193016 
L 391.743001 90.61036 
L 391.056814 91.332876 
L 390.394382 93.12579 
L 389.732198 94.182318 
L 389.043288 95.579906 
L 388.382589 96.480986 
L 387.724116 96.274854 
L 387.069603 96.417208 
L 386.398758 96.690056 
L 385.746719 97.216198 
L 385.095948 98.084897 
L 384.422381 98.237161 
L 383.76131 100.803144 
L 383.094424 101.875285 
L 380.424529 103.430405 
L 379.760613 104.20696 
L 378.439337 106.106589 
L 377.77839 106.799774 
L 376.459465 107.829169 
L 375.803467 108.42519 
L 373.795138 110.761829 
L 371.171888 113.077551 
L 369.862861 114.84894 
L 367.847634 116.496942 
L 366.516708 117.777205 
L 365.852792 118.685789 
L 365.178234 119.383976 
L 363.863764 120.381918 
L 362.518485 121.727968 
L 361.186074 123.271377 
L 359.863438 124.347763 
L 358.545503 125.545262 
L 357.868471 126.103691 
L 356.53408 127.361065 
L 355.195112 128.662701 
L 353.858123 130.167458 
L 349.870262 133.885371 
L 347.873316 135.361403 
L 346.556742 136.680926 
L 345.89233 137.593602 
L 340.567141 142.142736 
L 337.90504 144.286108 
L 336.576125 145.547888 
L 335.918147 145.949429 
L 333.229554 148.270304 
L 331.228401 149.869496 
L 330.578837 150.337506 
L 327.270513 153.386127 
L 325.259957 155.088774 
L 322.627799 157.17068 
L 320.643967 158.7438 
L 319.987181 159.162479 
L 317.343392 161.452583 
L 315.354859 162.840925 
L 313.33589 164.732822 
L 312.014243 165.770402 
L 311.357997 166.096228 
L 310.677996 166.613881 
L 309.347936 167.845032 
L 307.361878 169.252851 
L 306.698704 169.552378 
L 300.080231 174.833814 
L 299.42844 175.228837 
L 298.074377 176.346529 
L 296.76535 177.21464 
L 296.113064 177.80096 
L 295.462015 178.177263 
L 292.793976 180.195201 
L 290.797772 181.588696 
L 289.469444 182.657426 
L 282.212666 187.745482 
L 279.524089 189.857704 
L 278.198978 190.581736 
L 276.210197 191.899364 
L 274.197909 193.449823 
L 272.888882 194.11974 
L 271.560059 195.022924 
L 269.556432 196.552464 
L 266.873793 198.199556 
L 265.527401 199.259272 
L 262.219944 201.29396 
L 259.586548 203.136366 
L 258.927828 203.427403 
L 256.913313 204.995218 
L 256.238756 205.519541 
L 253.62975 206.890114 
L 251.592716 208.302405 
L 244.861745 212.485202 
L 243.552224 213.146101 
L 240.888763 215.23316 
L 238.8785 216.072765 
L 234.875081 219.019977 
L 234.222795 219.448348 
L 231.580615 220.713264 
L 229.583421 222.037789 
L 223.630442 225.631235 
L 221.645962 227.105376 
L 220.306498 227.704656 
L 218.980645 228.530628 
L 217.670876 229.311428 
L 216.322009 229.863699 
L 215.663536 230.282293 
L 214.320609 231.401424 
L 212.304114 232.573306 
L 210.993602 233.133611 
L 210.341316 233.586084 
L 209.691257 233.822097 
L 207.692702 235.048321 
L 206.366292 235.828756 
L 205.034994 236.412177 
L 203.705676 237.174408 
L 203.033347 237.693881 
L 201.70873 238.333785 
L 199.681595 239.14829 
L 198.374919 240.145474 
L 195.043829 241.720337 
L 193.040821 242.937542 
L 191.685273 243.682417 
L 189.665066 244.78679 
L 187.682225 245.823878 
L 187.028948 246.261875 
L 185.716952 246.892987 
L 184.389862 247.703042 
L 181.724545 249.196165 
L 180.395969 249.668912 
L 179.077415 250.349819 
L 177.741416 251.15707 
L 176.387601 251.767681 
L 173.014003 253.612721 
L 171.657713 254.176417 
L 169.654828 255.391197 
L 166.379539 256.897166 
L 165.079668 257.77566 
L 164.421938 257.989372 
L 163.116623 258.660163 
L 160.408249 259.739807 
L 158.414149 260.634767 
L 156.447137 261.975024 
L 155.11089 262.611745 
L 153.771922 262.873003 
L 153.120378 263.139484 
L 151.788957 264.193587 
L 151.109698 264.603465 
L 150.445287 264.830573 
L 149.115969 265.046206 
L 148.445 265.383021 
L 147.115806 266.389072 
L 146.457828 266.729829 
L 144.450241 267.21818 
L 143.114366 268.081592 
L 141.767749 268.800465 
L 139.771298 269.625934 
L 138.432581 270.348072 
L 137.755549 270.523983 
L 137.074558 270.915368 
L 135.11374 271.645085 
L 133.095513 272.962562 
L 131.765206 273.638132 
L 127.842827 275.347714 
L 127.186087 275.74918 
L 125.881019 276.223784 
L 124.577916 276.65111 
L 123.900142 276.723881 
L 119.914787 278.565946 
L 118.560476 279.090421 
L 116.54361 280.152784 
L 115.238295 280.636161 
L 113.252979 281.39898 
L 111.942962 282.033237 
L 110.591374 282.736086 
L 107.948486 283.552068 
L 107.293478 283.67844 
L 103.314435 285.574525 
L 101.985612 286.119008 
L 95.323804 288.632923 
L 93.337498 289.686874 
L 92.671867 289.74986 
L 91.334383 290.224587 
L 90.667373 290.639467 
L 88.675375 291.476618 
L 87.316363 291.677573 
L 85.972445 292.115418 
L 83.986387 292.934151 
L 80.679424 293.950944 
L 78.002601 294.974209 
L 76.665632 295.238581 
L 75.340273 295.149009 
L 74.122031 295.382418 
L 73.990108 295.488 
L 73.832816 294.099202 
L 73.832816 294.099202 
" clip-path="url(#p02acdcdd13)" style="fill: none; stroke: #ff0000; stroke-width: 1.5; stroke-linecap: square"/>
   </g>
   <g id="line2d_17">
    <path d="M 73.978222 278.523637 
L 73.980912 278.563624 
L 73.98366 278.354791 
L 74.64545 276.698236 
L 75.331761 273.056625 
L 76.033538 272.114087 
L 76.692753 272.545793 
L 77.358897 272.367854 
L 78.104225 279.894204 
L 79.470166 277.479802 
L 80.175902 276.651557 
L 80.932119 276.021942 
L 83.095849 274.871281 
L 86.031632 273.603751 
L 88.294343 273.284832 
L 89.772133 274.202207 
L 90.489747 274.204784 
L 91.195483 273.693649 
L 92.573301 272.265139 
L 93.250333 271.765524 
L 93.921426 271.661462 
L 96.031705 272.484705 
L 96.7998 272.365638 
L 97.541169 271.827521 
L 98.955611 270.035819 
L 100.310664 268.279891 
L 102.291278 266.510624 
L 103.59981 265.606587 
L 104.903393 264.865047 
L 107.75405 263.647842 
L 109.297855 262.706041 
L 110.842952 262.11487 
L 112.38508 261.529157 
L 116.982758 259.066855 
L 120.043257 257.474028 
L 123.873831 255.286091 
L 129.690957 252.389052 
L 132.304062 250.936288 
L 136.244504 249.213708 
L 138.203343 247.953757 
L 141.456856 245.916796 
L 143.411735 244.902104 
L 145.371563 243.796464 
L 147.33733 242.776316 
L 150.626476 241.018265 
L 151.942927 240.39405 
L 155.221185 238.573851 
L 157.30276 237.410611 
L 161.959827 234.340769 
L 165.886412 232.203763 
L 168.525251 230.724017 
L 169.84764 229.969441 
L 171.832214 228.922918 
L 175.771721 226.342094 
L 177.074314 225.600553 
L 181.485907 222.574973 
L 185.410513 220.310941 
L 187.378259 219.16498 
L 195.225491 214.470782 
L 197.55155 212.880079 
L 199.100606 211.777167 
L 207.603093 206.259272 
L 209.152149 205.193952 
L 218.409863 199.258599 
L 220.69534 197.625145 
L 222.218661 196.502224 
L 224.506117 194.975488 
L 227.570576 192.884866 
L 229.887726 191.530025 
L 232.211805 189.918403 
L 233.763831 188.984657 
L 235.311897 187.962993 
L 239.162607 185.184548 
L 243.014957 182.399376 
L 245.331117 180.876582 
L 247.647278 179.190381 
L 251.27593 176.575285 
L 253.233778 175.245 
L 254.54528 174.357031 
L 255.857771 173.510293 
L 257.828487 171.984164 
L 265.028381 167.045009 
L 269.663672 163.504049 
L 274.059428 159.910945 
L 275.36697 159.012972 
L 279.974546 155.636327 
L 281.954171 154.124749 
L 284.581132 152.187529 
L 287.840584 149.554243 
L 292.39768 145.720426 
L 295.680887 143.329672 
L 297.659522 141.856293 
L 302.264128 138.497838 
L 304.872531 136.496687 
L 308.749626 133.058803 
L 311.728961 130.475236 
L 314.345034 128.336108 
L 316.31971 126.709328 
L 317.641109 125.705248 
L 319.623703 124.245814 
L 322.253634 122.0697 
L 326.415795 118.75671 
L 327.950004 117.267567 
L 330.23746 115.231515 
L 331.760781 113.78057 
L 333.291031 112.515162 
L 334.82425 111.289165 
L 339.434795 107.291639 
L 340.973953 106.143252 
L 344.800568 102.639885 
L 352.450332 95.539775 
L 354.001367 94.087011 
L 361.966387 87.234889 
L 364.042023 85.292212 
L 365.58811 83.897656 
L 371.714862 77.764811 
L 373.250061 76.282337 
L 377.117257 72.386701 
L 379.198832 70.443659 
L 381.153711 68.522634 
L 382.456304 67.00234 
L 383.757908 65.482577 
L 385.96024 63.120548 
L 389.709154 58.909291 
L 393.197747 55.491871 
L 393.847064 54.992559 
L 395.206076 54.255274 
L 395.911565 53.751263 
L 396.575234 53.568 
L 397.251771 53.832966 
L 397.9035 53.81849 
L 398.180833 53.606834 
L 398.487273 54.985029 
L 398.323149 69.920716 
L 398.321046 74.759163 
L 398.320149 85.746883 
L 398.321572 85.705406 
L 397.767989 85.819926 
L 397.113475 87.682796 
L 396.445599 89.120477 
L 395.764609 89.036425 
L 395.070503 89.082771 
L 394.380109 89.368352 
L 393.059452 90.098391 
L 392.40964 90.193016 
L 391.743001 90.61036 
L 391.056814 91.332876 
L 390.394382 93.12579 
L 389.732198 94.182318 
L 389.043288 95.579906 
L 388.382589 96.480986 
L 387.724116 96.274854 
L 387.069603 96.417208 
L 386.398758 96.690056 
L 385.746719 97.216198 
L 385.095948 98.084897 
L 384.422381 98.237161 
L 383.76131 100.803144 
L 383.094424 101.875285 
L 380.424529 103.430405 
L 379.760613 104.20696 
L 378.439337 106.106589 
L 377.77839 106.799774 
L 376.459465 107.829169 
L 375.803467 108.42519 
L 373.795138 110.761829 
L 371.171888 113.077551 
L 369.862861 114.84894 
L 367.847634 116.496942 
L 366.516708 117.777205 
L 365.852792 118.685789 
L 365.178234 119.383976 
L 363.863764 120.381918 
L 362.518485 121.727968 
L 361.186074 123.271377 
L 359.863438 124.347763 
L 358.545503 125.545262 
L 357.868471 126.103691 
L 356.53408 127.361065 
L 355.195112 128.662701 
L 353.858123 130.167458 
L 349.870262 133.885371 
L 347.873316 135.361403 
L 346.556742 136.680926 
L 345.89233 137.593602 
L 340.567141 142.142736 
L 337.90504 144.286108 
L 336.576125 145.547888 
L 335.918147 145.949429 
L 333.229554 148.270304 
L 331.228401 149.869496 
L 330.578837 150.337506 
L 327.270513 153.386127 
L 325.259957 155.088774 
L 322.627799 157.17068 
L 320.643967 158.7438 
L 319.987181 159.162479 
L 317.343392 161.452583 
L 315.354859 162.840925 
L 313.33589 164.732822 
L 312.014243 165.770402 
L 311.357997 166.096228 
L 310.677996 166.613881 
L 309.347936 167.845032 
L 307.361878 169.252851 
L 306.698704 169.552378 
L 300.080231 174.833814 
L 299.42844 175.228837 
L 298.074377 176.346529 
L 296.76535 177.21464 
L 296.113064 177.80096 
L 295.462015 178.177263 
L 292.793976 180.195201 
L 290.797772 181.588696 
L 289.469444 182.657426 
L 282.212666 187.745482 
L 279.524089 189.857704 
L 278.198978 190.581736 
L 276.210197 191.899364 
L 274.197909 193.449823 
L 272.888882 194.11974 
L 271.560059 195.022924 
L 269.556432 196.552464 
L 266.873793 198.199556 
L 265.527401 199.259272 
L 262.219944 201.29396 
L 259.586548 203.136366 
L 258.927828 203.427403 
L 256.913313 204.995218 
L 256.238756 205.519541 
L 253.62975 206.890114 
L 251.592716 208.302405 
L 244.861745 212.485202 
L 243.552224 213.146101 
L 240.888763 215.23316 
L 238.8785 216.072765 
L 234.875081 219.019977 
L 234.222795 219.448348 
L 231.580615 220.713264 
L 229.583421 222.037789 
L 223.630442 225.631235 
L 221.645962 227.105376 
L 220.306498 227.704656 
L 218.980645 228.530628 
L 217.670876 229.311428 
L 216.322009 229.863699 
L 215.663536 230.282293 
L 214.320609 231.401424 
L 212.304114 232.573306 
L 210.993602 233.133611 
L 210.341316 233.586084 
L 209.691257 233.822097 
L 207.692702 235.048321 
L 206.366292 235.828756 
L 205.034994 236.412177 
L 203.705676 237.174408 
L 203.033347 237.693881 
L 201.70873 238.333785 
L 199.681595 239.14829 
L 198.374919 240.145474 
L 195.043829 241.720337 
L 193.040821 242.937542 
L 191.685273 243.682417 
L 189.665066 244.78679 
L 187.682225 245.823878 
L 187.028948 246.261875 
L 185.716952 246.892987 
L 184.389862 247.703042 
L 181.724545 249.196165 
L 180.395969 249.668912 
L 179.077415 250.349819 
L 177.741416 251.15707 
L 176.387601 251.767681 
L 173.014003 253.612721 
L 171.657713 254.176417 
L 169.654828 255.391197 
L 166.379539 256.897166 
L 165.079668 257.77566 
L 164.421938 257.989372 
L 163.116623 258.660163 
L 160.408249 259.739807 
L 158.414149 260.634767 
L 156.447137 261.975024 
L 155.11089 262.611745 
L 153.771922 262.873003 
L 153.120378 263.139484 
L 151.788957 264.193587 
L 151.109698 264.603465 
L 150.445287 264.830573 
L 149.115969 265.046206 
L 148.445 265.383021 
L 147.115806 266.389072 
L 146.457828 266.729829 
L 144.450241 267.21818 
L 143.114366 268.081592 
L 141.767749 268.800465 
L 139.771298 269.625934 
L 138.432581 270.348072 
L 137.755549 270.523983 
L 137.074558 270.915368 
L 135.11374 271.645085 
L 133.095513 272.962562 
L 131.765206 273.638132 
L 127.842827 275.347714 
L 127.186087 275.74918 
L 125.881019 276.223784 
L 124.577916 276.65111 
L 123.900142 276.723881 
L 119.914787 278.565946 
L 118.560476 279.090421 
L 116.54361 280.152784 
L 115.238295 280.636161 
L 113.252979 281.39898 
L 111.942962 282.033237 
L 110.591374 282.736086 
L 107.948486 283.552068 
L 107.293478 283.67844 
L 103.314435 285.574525 
L 101.985612 286.119008 
L 95.323804 288.632923 
L 93.337498 289.686874 
L 92.671867 289.74986 
L 91.334383 290.224587 
L 90.667373 290.639467 
L 88.675375 291.476618 
L 87.316363 291.677573 
L 85.972445 292.115418 
L 83.986387 292.934151 
L 80.679424 293.950944 
L 78.002601 294.974209 
L 76.665632 295.238581 
L 75.340273 295.149009 
L 74.122031 295.382418 
L 73.990108 295.488 
L 73.832816 294.099202 
L 73.832816 294.099202 
" clip-path="url(#p02acdcdd13)" style="fill: none; stroke: #000000; stroke-width: 1.5; stroke-linecap: square"/>
   </g>
   <g id="patch_3">
    <path d="M 57.6 307.584 
L 57.6 41.472 
" style="fill: none; stroke: #000000; stroke-width: 0.8; stroke-linejoin: miter; stroke-linecap: square"/>
   </g>
   <g id="patch_4">
    <path d="M 414.72 307.584 
L 414.72 41.472 
" style="fill: none; stroke: #000000; stroke-width: 0.8; stroke-linejoin: miter; stroke-linecap: square"/>
   </g>
   <g id="patch_5">
    <path d="M 57.6 307.584 
L 414.72 307.584 
" style="fill: none; stroke: #000000; stroke-width: 0.8; stroke-linejoin: miter; stroke-linecap: square"/>
   </g>
   <g id="patch_6">
    <path d="M 57.6 41.472 
L 414.72 41.472 
" style="fill: none; stroke: #000000; stroke-width: 0.8; stroke-linejoin: miter; stroke-linecap: square"/>
   </g>
   <g id="text_18">
    <!-- 2025-07-02 trial 22 -->
    <g transform="translate(178.0125 35.472) scale(0.12 -0.12)">
     <defs>
      <path id="DejaVuSans-2d" d="M 313 2009 
L 1997 2009 
L 1997 1497 
L 313 1497 
L 313 2009 
z
" transform="scale(0.015625)"/>
      <path id="DejaVuSans-6c" d="M 603 4863 
L 1178 4863 
L 1178 0 
L 603 0 
L 603 4863 
z
" transform="scale(0.015625)"/>
     </defs>
     <use xlink:href="#DejaVuSans-32"/>
     <use xlink:href="#DejaVuSans-30" transform="translate(63.623047 0)"/>
     <use xlink:href="#DejaVuSans-32" transform="translate(127.246094 0)"/>
     <use xlink:href="#DejaVuSans-35" transform="translate(190.869141 0)"/>
     <use xlink:href="#DejaVuSans-2d" transform="translate(254.492188 0)"/>
     <use xlink:href="#DejaVuSans-30" transform="translate(290.576172 0)"/>
     <use xlink:href="#DejaVuSans-37" transform="translate(354.199219 0)"/>
     <use xlink:href="#DejaVuSans-2d" transform="translate(417.822266 0)"/>
     <use xlink:href="#DejaVuSans-30" transform="translate(453.90625 0)"/>
     <use xlink:href="#DejaVuSans-32" transform="translate(517.529297 0)"/>
     <use xlink:href="#DejaVuSans-20" transform="translate(581.152344 0)"/>
     <use xlink:href="#DejaVuSans-74" transform="translate(612.939453 0)"/>
     <use xlink:href="#DejaVuSans-72" transform="translate(652.148438 0)"/>
     <use xlink:href="#DejaVuSans-69" transform="translate(693.261719 0)"/>
     <use xlink:href="#DejaVuSans-61" transform="translate(721.044922 0)"/>
     <use xlink:href="#DejaVuSans-6c" transform="translate(782.324219 0)"/>
     <use xlink:href="#DejaVuSans-20" transform="translate(810.107422 0)"/>
     <use xlink:href="#DejaVuSans-32" transform="translate(841.894531 0)"/>
     <use xlink:href="#DejaVuSans-32" transform="translate(905.517578 0)"/>
    </g>
   </g>
  </g>
 </g>
 <defs>
  <clipPath id="p02acdcdd13">
   <rect x="57.6" y="41.472" width="357.12" height="266.112"/>
  </clipPath>
 </defs>
</svg>
