<?xml version="1.0" encoding="utf-8" standalone="no"?>
<!DOCTYPE svg PUBLIC "-//W3C//DTD SVG 1.1//EN"
  "http://www.w3.org/Graphics/SVG/1.1/DTD/svg11.dtd">
<svg xmlns:xlink="http://www.w3.org/1999/xlink" width="460.8pt" height="345.6pt" viewBox="0 0 460.8 345.6" xmlns="http://www.w3.org/2000/svg" version="1.1">
 <metadata>
  <rdf:RDF xmlns:dc="http://purl.org/dc/elements/1.1/" xmlns:cc="http://creativecommons.org/ns#" xmlns:rdf="http://www.w3.org/1999/02/22-rdf-syntax-ns#">
   <cc:Work>
    <dc:type rdf:resource="http://purl.org/dc/dcmitype/StillImage"/>
    <dc:date>2025-07-14T21:35:10.803452</dc:date>
    <dc:format>image/svg+xml</dc:format>
    <dc:creator>
     <cc:Agent>
      <dc:title>Matplotlib v3.10.3, https://matplotlib.org/</dc:title>
     </cc:Agent>
    </dc:creator>
   </cc:Work>
  </rdf:RDF>
 </metadata>
 <defs>
  <style type="text/css">*{stroke-linejoin: round; stroke-linecap: butt}</style>
 </defs>
 <g id="figure_1">
  <g id="patch_1">
   <path d="M 0 345.6 
L 460.8 345.6 
L 460.8 0 
L 0 0 
z
" style="fill: #ffffff"/>
  </g>
  <g id="axes_1">
   <g id="patch_2">
    <path d="M 57.6 307.584 
L 414.72 307.584 
L 414.72 41.472 
L 57.6 41.472 
z
" style="fill: #ffffff"/>
   </g>
   <g id="matplotlib.axis_1">
    <g id="xtick_1">
     <g id="line2d_1">
      <defs>
       <path id="mfb977402cf" d="M 0 0 
L 0 3.5 
" style="stroke: #000000; stroke-width: 0.8"/>
      </defs>
      <g>
       <use xlink:href="#mfb977402cf" x="73.975992" y="307.584" style="stroke: #000000; stroke-width: 0.8"/>
      </g>
     </g>
     <g id="text_1">
      <!-- 0.000 -->
      <g transform="translate(59.66193 322.182437) scale(0.1 -0.1)">
       <defs>
        <path id="DejaVuSans-30" d="M 2034 4250 
Q 1547 4250 1301 3770 
Q 1056 3291 1056 2328 
Q 1056 1369 1301 889 
Q 1547 409 2034 409 
Q 2525 409 2770 889 
Q 3016 1369 3016 2328 
Q 3016 3291 2770 3770 
Q 2525 4250 2034 4250 
z
M 2034 4750 
Q 2819 4750 3233 4129 
Q 3647 3509 3647 2328 
Q 3647 1150 3233 529 
Q 2819 -91 2034 -91 
Q 1250 -91 836 529 
Q 422 1150 422 2328 
Q 422 3509 836 4129 
Q 1250 4750 2034 4750 
z
" transform="scale(0.015625)"/>
        <path id="DejaVuSans-2e" d="M 684 794 
L 1344 794 
L 1344 0 
L 684 0 
L 684 794 
z
" transform="scale(0.015625)"/>
       </defs>
       <use xlink:href="#DejaVuSans-30"/>
       <use xlink:href="#DejaVuSans-2e" transform="translate(63.623047 0)"/>
       <use xlink:href="#DejaVuSans-30" transform="translate(95.410156 0)"/>
       <use xlink:href="#DejaVuSans-30" transform="translate(159.033203 0)"/>
       <use xlink:href="#DejaVuSans-30" transform="translate(222.65625 0)"/>
      </g>
     </g>
    </g>
    <g id="xtick_2">
     <g id="line2d_2">
      <g>
       <use xlink:href="#mfb977402cf" x="119.385204" y="307.584" style="stroke: #000000; stroke-width: 0.8"/>
      </g>
     </g>
     <g id="text_2">
      <!-- 0.025 -->
      <g transform="translate(105.071141 322.182437) scale(0.1 -0.1)">
       <defs>
        <path id="DejaVuSans-32" d="M 1228 531 
L 3431 531 
L 3431 0 
L 469 0 
L 469 531 
Q 828 903 1448 1529 
Q 2069 2156 2228 2338 
Q 2531 2678 2651 2914 
Q 2772 3150 2772 3378 
Q 2772 3750 2511 3984 
Q 2250 4219 1831 4219 
Q 1534 4219 1204 4116 
Q 875 4013 500 3803 
L 500 4441 
Q 881 4594 1212 4672 
Q 1544 4750 1819 4750 
Q 2544 4750 2975 4387 
Q 3406 4025 3406 3419 
Q 3406 3131 3298 2873 
Q 3191 2616 2906 2266 
Q 2828 2175 2409 1742 
Q 1991 1309 1228 531 
z
" transform="scale(0.015625)"/>
        <path id="DejaVuSans-35" d="M 691 4666 
L 3169 4666 
L 3169 4134 
L 1269 4134 
L 1269 2991 
Q 1406 3038 1543 3061 
Q 1681 3084 1819 3084 
Q 2600 3084 3056 2656 
Q 3513 2228 3513 1497 
Q 3513 744 3044 326 
Q 2575 -91 1722 -91 
Q 1428 -91 1123 -41 
Q 819 9 494 109 
L 494 744 
Q 775 591 1075 516 
Q 1375 441 1709 441 
Q 2250 441 2565 725 
Q 2881 1009 2881 1497 
Q 2881 1984 2565 2268 
Q 2250 2553 1709 2553 
Q 1456 2553 1204 2497 
Q 953 2441 691 2322 
L 691 4666 
z
" transform="scale(0.015625)"/>
       </defs>
       <use xlink:href="#DejaVuSans-30"/>
       <use xlink:href="#DejaVuSans-2e" transform="translate(63.623047 0)"/>
       <use xlink:href="#DejaVuSans-30" transform="translate(95.410156 0)"/>
       <use xlink:href="#DejaVuSans-32" transform="translate(159.033203 0)"/>
       <use xlink:href="#DejaVuSans-35" transform="translate(222.65625 0)"/>
      </g>
     </g>
    </g>
    <g id="xtick_3">
     <g id="line2d_3">
      <g>
       <use xlink:href="#mfb977402cf" x="164.794416" y="307.584" style="stroke: #000000; stroke-width: 0.8"/>
      </g>
     </g>
     <g id="text_3">
      <!-- 0.050 -->
      <g transform="translate(150.480353 322.182437) scale(0.1 -0.1)">
       <use xlink:href="#DejaVuSans-30"/>
       <use xlink:href="#DejaVuSans-2e" transform="translate(63.623047 0)"/>
       <use xlink:href="#DejaVuSans-30" transform="translate(95.410156 0)"/>
       <use xlink:href="#DejaVuSans-35" transform="translate(159.033203 0)"/>
       <use xlink:href="#DejaVuSans-30" transform="translate(222.65625 0)"/>
      </g>
     </g>
    </g>
    <g id="xtick_4">
     <g id="line2d_4">
      <g>
       <use xlink:href="#mfb977402cf" x="210.203628" y="307.584" style="stroke: #000000; stroke-width: 0.8"/>
      </g>
     </g>
     <g id="text_4">
      <!-- 0.075 -->
      <g transform="translate(195.889565 322.182437) scale(0.1 -0.1)">
       <defs>
        <path id="DejaVuSans-37" d="M 525 4666 
L 3525 4666 
L 3525 4397 
L 1831 0 
L 1172 0 
L 2766 4134 
L 525 4134 
L 525 4666 
z
" transform="scale(0.015625)"/>
       </defs>
       <use xlink:href="#DejaVuSans-30"/>
       <use xlink:href="#DejaVuSans-2e" transform="translate(63.623047 0)"/>
       <use xlink:href="#DejaVuSans-30" transform="translate(95.410156 0)"/>
       <use xlink:href="#DejaVuSans-37" transform="translate(159.033203 0)"/>
       <use xlink:href="#DejaVuSans-35" transform="translate(222.65625 0)"/>
      </g>
     </g>
    </g>
    <g id="xtick_5">
     <g id="line2d_5">
      <g>
       <use xlink:href="#mfb977402cf" x="255.61284" y="307.584" style="stroke: #000000; stroke-width: 0.8"/>
      </g>
     </g>
     <g id="text_5">
      <!-- 0.100 -->
      <g transform="translate(241.298777 322.182437) scale(0.1 -0.1)">
       <defs>
        <path id="DejaVuSans-31" d="M 794 531 
L 1825 531 
L 1825 4091 
L 703 3866 
L 703 4441 
L 1819 4666 
L 2450 4666 
L 2450 531 
L 3481 531 
L 3481 0 
L 794 0 
L 794 531 
z
" transform="scale(0.015625)"/>
       </defs>
       <use xlink:href="#DejaVuSans-30"/>
       <use xlink:href="#DejaVuSans-2e" transform="translate(63.623047 0)"/>
       <use xlink:href="#DejaVuSans-31" transform="translate(95.410156 0)"/>
       <use xlink:href="#DejaVuSans-30" transform="translate(159.033203 0)"/>
       <use xlink:href="#DejaVuSans-30" transform="translate(222.65625 0)"/>
      </g>
     </g>
    </g>
    <g id="xtick_6">
     <g id="line2d_6">
      <g>
       <use xlink:href="#mfb977402cf" x="301.022052" y="307.584" style="stroke: #000000; stroke-width: 0.8"/>
      </g>
     </g>
     <g id="text_6">
      <!-- 0.125 -->
      <g transform="translate(286.707989 322.182437) scale(0.1 -0.1)">
       <use xlink:href="#DejaVuSans-30"/>
       <use xlink:href="#DejaVuSans-2e" transform="translate(63.623047 0)"/>
       <use xlink:href="#DejaVuSans-31" transform="translate(95.410156 0)"/>
       <use xlink:href="#DejaVuSans-32" transform="translate(159.033203 0)"/>
       <use xlink:href="#DejaVuSans-35" transform="translate(222.65625 0)"/>
      </g>
     </g>
    </g>
    <g id="xtick_7">
     <g id="line2d_7">
      <g>
       <use xlink:href="#mfb977402cf" x="346.431264" y="307.584" style="stroke: #000000; stroke-width: 0.8"/>
      </g>
     </g>
     <g id="text_7">
      <!-- 0.150 -->
      <g transform="translate(332.117201 322.182437) scale(0.1 -0.1)">
       <use xlink:href="#DejaVuSans-30"/>
       <use xlink:href="#DejaVuSans-2e" transform="translate(63.623047 0)"/>
       <use xlink:href="#DejaVuSans-31" transform="translate(95.410156 0)"/>
       <use xlink:href="#DejaVuSans-35" transform="translate(159.033203 0)"/>
       <use xlink:href="#DejaVuSans-30" transform="translate(222.65625 0)"/>
      </g>
     </g>
    </g>
    <g id="xtick_8">
     <g id="line2d_8">
      <g>
       <use xlink:href="#mfb977402cf" x="391.840476" y="307.584" style="stroke: #000000; stroke-width: 0.8"/>
      </g>
     </g>
     <g id="text_8">
      <!-- 0.175 -->
      <g transform="translate(377.526413 322.182437) scale(0.1 -0.1)">
       <use xlink:href="#DejaVuSans-30"/>
       <use xlink:href="#DejaVuSans-2e" transform="translate(63.623047 0)"/>
       <use xlink:href="#DejaVuSans-31" transform="translate(95.410156 0)"/>
       <use xlink:href="#DejaVuSans-37" transform="translate(159.033203 0)"/>
       <use xlink:href="#DejaVuSans-35" transform="translate(222.65625 0)"/>
      </g>
     </g>
    </g>
    <g id="text_9">
     <!-- Strain -->
     <g transform="translate(221.348281 335.860562) scale(0.1 -0.1)">
      <defs>
       <path id="DejaVuSans-53" d="M 3425 4513 
L 3425 3897 
Q 3066 4069 2747 4153 
Q 2428 4238 2131 4238 
Q 1616 4238 1336 4038 
Q 1056 3838 1056 3469 
Q 1056 3159 1242 3001 
Q 1428 2844 1947 2747 
L 2328 2669 
Q 3034 2534 3370 2195 
Q 3706 1856 3706 1288 
Q 3706 609 3251 259 
Q 2797 -91 1919 -91 
Q 1588 -91 1214 -16 
Q 841 59 441 206 
L 441 856 
Q 825 641 1194 531 
Q 1563 422 1919 422 
Q 2459 422 2753 634 
Q 3047 847 3047 1241 
Q 3047 1584 2836 1778 
Q 2625 1972 2144 2069 
L 1759 2144 
Q 1053 2284 737 2584 
Q 422 2884 422 3419 
Q 422 4038 858 4394 
Q 1294 4750 2059 4750 
Q 2388 4750 2728 4690 
Q 3069 4631 3425 4513 
z
" transform="scale(0.015625)"/>
       <path id="DejaVuSans-74" d="M 1172 4494 
L 1172 3500 
L 2356 3500 
L 2356 3053 
L 1172 3053 
L 1172 1153 
Q 1172 725 1289 603 
Q 1406 481 1766 481 
L 2356 481 
L 2356 0 
L 1766 0 
Q 1100 0 847 248 
Q 594 497 594 1153 
L 594 3053 
L 172 3053 
L 172 3500 
L 594 3500 
L 594 4494 
L 1172 4494 
z
" transform="scale(0.015625)"/>
       <path id="DejaVuSans-72" d="M 2631 2963 
Q 2534 3019 2420 3045 
Q 2306 3072 2169 3072 
Q 1681 3072 1420 2755 
Q 1159 2438 1159 1844 
L 1159 0 
L 581 0 
L 581 3500 
L 1159 3500 
L 1159 2956 
Q 1341 3275 1631 3429 
Q 1922 3584 2338 3584 
Q 2397 3584 2469 3576 
Q 2541 3569 2628 3553 
L 2631 2963 
z
" transform="scale(0.015625)"/>
       <path id="DejaVuSans-61" d="M 2194 1759 
Q 1497 1759 1228 1600 
Q 959 1441 959 1056 
Q 959 750 1161 570 
Q 1363 391 1709 391 
Q 2188 391 2477 730 
Q 2766 1069 2766 1631 
L 2766 1759 
L 2194 1759 
z
M 3341 1997 
L 3341 0 
L 2766 0 
L 2766 531 
Q 2569 213 2275 61 
Q 1981 -91 1556 -91 
Q 1019 -91 701 211 
Q 384 513 384 1019 
Q 384 1609 779 1909 
Q 1175 2209 1959 2209 
L 2766 2209 
L 2766 2266 
Q 2766 2663 2505 2880 
Q 2244 3097 1772 3097 
Q 1472 3097 1187 3025 
Q 903 2953 641 2809 
L 641 3341 
Q 956 3463 1253 3523 
Q 1550 3584 1831 3584 
Q 2591 3584 2966 3190 
Q 3341 2797 3341 1997 
z
" transform="scale(0.015625)"/>
       <path id="DejaVuSans-69" d="M 603 3500 
L 1178 3500 
L 1178 0 
L 603 0 
L 603 3500 
z
M 603 4863 
L 1178 4863 
L 1178 4134 
L 603 4134 
L 603 4863 
z
" transform="scale(0.015625)"/>
       <path id="DejaVuSans-6e" d="M 3513 2113 
L 3513 0 
L 2938 0 
L 2938 2094 
Q 2938 2591 2744 2837 
Q 2550 3084 2163 3084 
Q 1697 3084 1428 2787 
Q 1159 2491 1159 1978 
L 1159 0 
L 581 0 
L 581 3500 
L 1159 3500 
L 1159 2956 
Q 1366 3272 1645 3428 
Q 1925 3584 2291 3584 
Q 2894 3584 3203 3211 
Q 3513 2838 3513 2113 
z
" transform="scale(0.015625)"/>
      </defs>
      <use xlink:href="#DejaVuSans-53"/>
      <use xlink:href="#DejaVuSans-74" transform="translate(63.476562 0)"/>
      <use xlink:href="#DejaVuSans-72" transform="translate(102.685547 0)"/>
      <use xlink:href="#DejaVuSans-61" transform="translate(143.798828 0)"/>
      <use xlink:href="#DejaVuSans-69" transform="translate(205.078125 0)"/>
      <use xlink:href="#DejaVuSans-6e" transform="translate(232.861328 0)"/>
     </g>
    </g>
   </g>
   <g id="matplotlib.axis_2">
    <g id="ytick_1">
     <g id="line2d_9">
      <defs>
       <path id="m575f4a0ce2" d="M 0 0 
L -3.5 0 
" style="stroke: #000000; stroke-width: 0.8"/>
      </defs>
      <g>
       <use xlink:href="#m575f4a0ce2" x="57.6" y="304.069939" style="stroke: #000000; stroke-width: 0.8"/>
      </g>
     </g>
     <g id="text_10">
      <!-- −250 -->
      <g transform="translate(23.132812 307.869157) scale(0.1 -0.1)">
       <defs>
        <path id="DejaVuSans-2212" d="M 678 2272 
L 4684 2272 
L 4684 1741 
L 678 1741 
L 678 2272 
z
" transform="scale(0.015625)"/>
       </defs>
       <use xlink:href="#DejaVuSans-2212"/>
       <use xlink:href="#DejaVuSans-32" transform="translate(83.789062 0)"/>
       <use xlink:href="#DejaVuSans-35" transform="translate(147.412109 0)"/>
       <use xlink:href="#DejaVuSans-30" transform="translate(211.035156 0)"/>
      </g>
     </g>
    </g>
    <g id="ytick_2">
     <g id="line2d_10">
      <g>
       <use xlink:href="#m575f4a0ce2" x="57.6" y="271.081631" style="stroke: #000000; stroke-width: 0.8"/>
      </g>
     </g>
     <g id="text_11">
      <!-- 0 -->
      <g transform="translate(44.2375 274.880849) scale(0.1 -0.1)">
       <use xlink:href="#DejaVuSans-30"/>
      </g>
     </g>
    </g>
    <g id="ytick_3">
     <g id="line2d_11">
      <g>
       <use xlink:href="#m575f4a0ce2" x="57.6" y="238.093322" style="stroke: #000000; stroke-width: 0.8"/>
      </g>
     </g>
     <g id="text_12">
      <!-- 250 -->
      <g transform="translate(31.5125 241.892541) scale(0.1 -0.1)">
       <use xlink:href="#DejaVuSans-32"/>
       <use xlink:href="#DejaVuSans-35" transform="translate(63.623047 0)"/>
       <use xlink:href="#DejaVuSans-30" transform="translate(127.246094 0)"/>
      </g>
     </g>
    </g>
    <g id="ytick_4">
     <g id="line2d_12">
      <g>
       <use xlink:href="#m575f4a0ce2" x="57.6" y="205.105014" style="stroke: #000000; stroke-width: 0.8"/>
      </g>
     </g>
     <g id="text_13">
      <!-- 500 -->
      <g transform="translate(31.5125 208.904233) scale(0.1 -0.1)">
       <use xlink:href="#DejaVuSans-35"/>
       <use xlink:href="#DejaVuSans-30" transform="translate(63.623047 0)"/>
       <use xlink:href="#DejaVuSans-30" transform="translate(127.246094 0)"/>
      </g>
     </g>
    </g>
    <g id="ytick_5">
     <g id="line2d_13">
      <g>
       <use xlink:href="#m575f4a0ce2" x="57.6" y="172.116706" style="stroke: #000000; stroke-width: 0.8"/>
      </g>
     </g>
     <g id="text_14">
      <!-- 750 -->
      <g transform="translate(31.5125 175.915925) scale(0.1 -0.1)">
       <use xlink:href="#DejaVuSans-37"/>
       <use xlink:href="#DejaVuSans-35" transform="translate(63.623047 0)"/>
       <use xlink:href="#DejaVuSans-30" transform="translate(127.246094 0)"/>
      </g>
     </g>
    </g>
    <g id="ytick_6">
     <g id="line2d_14">
      <g>
       <use xlink:href="#m575f4a0ce2" x="57.6" y="139.128398" style="stroke: #000000; stroke-width: 0.8"/>
      </g>
     </g>
     <g id="text_15">
      <!-- 1000 -->
      <g transform="translate(25.15 142.927617) scale(0.1 -0.1)">
       <use xlink:href="#DejaVuSans-31"/>
       <use xlink:href="#DejaVuSans-30" transform="translate(63.623047 0)"/>
       <use xlink:href="#DejaVuSans-30" transform="translate(127.246094 0)"/>
       <use xlink:href="#DejaVuSans-30" transform="translate(190.869141 0)"/>
      </g>
     </g>
    </g>
    <g id="ytick_7">
     <g id="line2d_15">
      <g>
       <use xlink:href="#m575f4a0ce2" x="57.6" y="106.14009" style="stroke: #000000; stroke-width: 0.8"/>
      </g>
     </g>
     <g id="text_16">
      <!-- 1250 -->
      <g transform="translate(25.15 109.939309) scale(0.1 -0.1)">
       <use xlink:href="#DejaVuSans-31"/>
       <use xlink:href="#DejaVuSans-32" transform="translate(63.623047 0)"/>
       <use xlink:href="#DejaVuSans-35" transform="translate(127.246094 0)"/>
       <use xlink:href="#DejaVuSans-30" transform="translate(190.869141 0)"/>
      </g>
     </g>
    </g>
    <g id="ytick_8">
     <g id="line2d_16">
      <g>
       <use xlink:href="#m575f4a0ce2" x="57.6" y="73.151782" style="stroke: #000000; stroke-width: 0.8"/>
      </g>
     </g>
     <g id="text_17">
      <!-- 1500 -->
      <g transform="translate(25.15 76.951) scale(0.1 -0.1)">
       <use xlink:href="#DejaVuSans-31"/>
       <use xlink:href="#DejaVuSans-35" transform="translate(63.623047 0)"/>
       <use xlink:href="#DejaVuSans-30" transform="translate(127.246094 0)"/>
       <use xlink:href="#DejaVuSans-30" transform="translate(190.869141 0)"/>
      </g>
     </g>
    </g>
    <g id="text_18">
     <!-- Stress [Pa] -->
     <g transform="translate(17.053125 201.235813) rotate(-90) scale(0.1 -0.1)">
      <defs>
       <path id="DejaVuSans-65" d="M 3597 1894 
L 3597 1613 
L 953 1613 
Q 991 1019 1311 708 
Q 1631 397 2203 397 
Q 2534 397 2845 478 
Q 3156 559 3463 722 
L 3463 178 
Q 3153 47 2828 -22 
Q 2503 -91 2169 -91 
Q 1331 -91 842 396 
Q 353 884 353 1716 
Q 353 2575 817 3079 
Q 1281 3584 2069 3584 
Q 2775 3584 3186 3129 
Q 3597 2675 3597 1894 
z
M 3022 2063 
Q 3016 2534 2758 2815 
Q 2500 3097 2075 3097 
Q 1594 3097 1305 2825 
Q 1016 2553 972 2059 
L 3022 2063 
z
" transform="scale(0.015625)"/>
       <path id="DejaVuSans-73" d="M 2834 3397 
L 2834 2853 
Q 2591 2978 2328 3040 
Q 2066 3103 1784 3103 
Q 1356 3103 1142 2972 
Q 928 2841 928 2578 
Q 928 2378 1081 2264 
Q 1234 2150 1697 2047 
L 1894 2003 
Q 2506 1872 2764 1633 
Q 3022 1394 3022 966 
Q 3022 478 2636 193 
Q 2250 -91 1575 -91 
Q 1294 -91 989 -36 
Q 684 19 347 128 
L 347 722 
Q 666 556 975 473 
Q 1284 391 1588 391 
Q 1994 391 2212 530 
Q 2431 669 2431 922 
Q 2431 1156 2273 1281 
Q 2116 1406 1581 1522 
L 1381 1569 
Q 847 1681 609 1914 
Q 372 2147 372 2553 
Q 372 3047 722 3315 
Q 1072 3584 1716 3584 
Q 2034 3584 2315 3537 
Q 2597 3491 2834 3397 
z
" transform="scale(0.015625)"/>
       <path id="DejaVuSans-20" transform="scale(0.015625)"/>
       <path id="DejaVuSans-5b" d="M 550 4863 
L 1875 4863 
L 1875 4416 
L 1125 4416 
L 1125 -397 
L 1875 -397 
L 1875 -844 
L 550 -844 
L 550 4863 
z
" transform="scale(0.015625)"/>
       <path id="DejaVuSans-50" d="M 1259 4147 
L 1259 2394 
L 2053 2394 
Q 2494 2394 2734 2622 
Q 2975 2850 2975 3272 
Q 2975 3691 2734 3919 
Q 2494 4147 2053 4147 
L 1259 4147 
z
M 628 4666 
L 2053 4666 
Q 2838 4666 3239 4311 
Q 3641 3956 3641 3272 
Q 3641 2581 3239 2228 
Q 2838 1875 2053 1875 
L 1259 1875 
L 1259 0 
L 628 0 
L 628 4666 
z
" transform="scale(0.015625)"/>
       <path id="DejaVuSans-5d" d="M 1947 4863 
L 1947 -844 
L 622 -844 
L 622 -397 
L 1369 -397 
L 1369 4416 
L 622 4416 
L 622 4863 
L 1947 4863 
z
" transform="scale(0.015625)"/>
      </defs>
      <use xlink:href="#DejaVuSans-53"/>
      <use xlink:href="#DejaVuSans-74" transform="translate(63.476562 0)"/>
      <use xlink:href="#DejaVuSans-72" transform="translate(102.685547 0)"/>
      <use xlink:href="#DejaVuSans-65" transform="translate(141.548828 0)"/>
      <use xlink:href="#DejaVuSans-73" transform="translate(203.072266 0)"/>
      <use xlink:href="#DejaVuSans-73" transform="translate(255.171875 0)"/>
      <use xlink:href="#DejaVuSans-20" transform="translate(307.271484 0)"/>
      <use xlink:href="#DejaVuSans-5b" transform="translate(339.058594 0)"/>
      <use xlink:href="#DejaVuSans-50" transform="translate(378.072266 0)"/>
      <use xlink:href="#DejaVuSans-61" transform="translate(433.875 0)"/>
      <use xlink:href="#DejaVuSans-5d" transform="translate(495.154297 0)"/>
     </g>
    </g>
   </g>
   <g id="line2d_17">
    <path d="M 73.975992 271.885548 
L 73.975992 271.941615 
L 73.975918 271.669971 
L 74.000874 271.835695 
L 75.379438 262.919533 
L 76.109447 261.722297 
L 77.50562 258.571206 
L 78.31729 257.444067 
L 79.052743 257.283634 
L 80.509791 257.825506 
L 81.194762 257.87349 
L 82.668637 257.585446 
L 90.567577 255.257733 
L 91.270365 255.161904 
L 91.983052 255.193424 
L 93.446039 255.633765 
L 94.948619 256.423763 
L 98.036927 258.354252 
L 99.606817 259.199883 
L 100.392752 259.525897 
L 101.180666 259.726734 
L 102.750556 259.770459 
L 105.878457 259.295695 
L 106.656473 259.370661 
L 109.736863 260.123107 
L 110.493102 260.112884 
L 111.243403 259.936525 
L 111.989744 259.571569 
L 113.45867 258.347628 
L 115.630383 256.320337 
L 117.061695 255.293339 
L 119.882746 253.663272 
L 127.367933 249.037888 
L 129.351577 247.625906 
L 133.586122 244.320153 
L 135.522254 243.016099 
L 145.117788 237.505028 
L 147.022245 236.406819 
L 151.773488 233.152247 
L 155.58636 230.596436 
L 160.387095 228.038399 
L 164.239561 226.093446 
L 168.088068 223.911493 
L 173.854889 220.136192 
L 176.747208 218.270239 
L 179.643487 216.630158 
L 185.447922 213.502433 
L 187.380094 212.359717 
L 197.399277 205.730408 
L 200.657838 203.699779 
L 207.210679 199.869074 
L 212.478619 196.558871 
L 219.100664 192.220557 
L 223.758862 189.436648 
L 229.743448 185.768163 
L 237.018789 181.178385 
L 240.960341 178.673757 
L 249.43735 173.192727 
L 256.205891 168.680836 
L 270.574442 157.954663 
L 281.114282 151.006017 
L 284.935073 148.189841 
L 288.757844 145.432636 
L 297.363533 139.581086 
L 302.136552 135.934855 
L 306.92145 131.928117 
L 310.773916 128.760336 
L 314.652118 125.861822 
L 322.125427 120.389702 
L 326.6886 116.795767 
L 332.5841 112.23603 
L 338.509296 107.813153 
L 341.80943 105.367497 
L 346.428034 101.612224 
L 357.031225 92.664104 
L 360.359074 90.133884 
L 364.999146 86.779034 
L 372.484333 81.72082 
L 376.241774 79.643459 
L 378.948003 78.277652 
L 388.242622 74.12126 
L 390.610324 72.556285 
L 391.95849 71.428591 
L 393.389802 70.058889 
L 394.118325 69.231617 
L 395.546668 67.038537 
L 396.2257 65.66216 
L 396.884687 63.836263 
L 397.547881 61.329409 
L 398.196445 60.835296 
L 398.487273 62.831241 
L 398.328465 83.336579 
L 398.328156 83.252642 
L 398.327413 98.650461 
L 398.327197 98.61449 
L 397.67223 99.031013 
L 396.325736 101.767251 
L 395.649673 101.482198 
L 394.989449 101.485657 
L 392.967201 102.307558 
L 392.26565 102.597062 
L 391.597259 102.38395 
L 390.915753 103.346552 
L 390.242907 105.063407 
L 389.583425 106.135746 
L 388.915529 106.759399 
L 387.604483 106.767431 
L 384.953438 108.227746 
L 384.290367 110.100375 
L 383.627915 111.166317 
L 382.274863 111.964608 
L 381.624041 112.280781 
L 380.960847 112.732874 
L 380.297529 113.373078 
L 378.959757 114.855299 
L 376.285822 116.919238 
L 375.609512 117.273834 
L 365.649967 125.878042 
L 363.658404 127.616316 
L 362.359236 128.644844 
L 355.743007 134.072465 
L 353.770251 135.525756 
L 353.107923 136.200871 
L 350.456785 138.263759 
L 349.798293 138.590746 
L 348.474874 139.729428 
L 345.788194 141.988086 
L 343.160658 143.823023 
L 342.480141 144.504118 
L 336.477243 148.974632 
L 335.147637 150.170826 
L 331.191996 153.006839 
L 329.195236 154.478489 
L 327.200209 155.991794 
L 325.87481 156.876509 
L 324.5457 157.88174 
L 316.548486 163.631133 
L 315.212693 164.606808 
L 312.511909 166.396543 
L 308.53596 169.60758 
L 303.927378 172.804778 
L 302.593566 173.689353 
L 301.256799 174.819125 
L 299.909129 175.680404 
L 297.954933 176.967211 
L 296.645371 177.894833 
L 294.636239 179.145756 
L 293.282877 180.118303 
L 291.974801 180.845365 
L 290.645195 181.684808 
L 289.322271 182.82961 
L 286.666524 184.408076 
L 283.996162 186.404325 
L 282.003114 187.401872 
L 279.355039 189.249258 
L 278.690855 189.696066 
L 277.366446 190.37584 
L 274.106648 192.635471 
L 272.101969 193.807116 
L 270.767291 194.775073 
L 269.414378 195.773897 
L 266.755166 197.518604 
L 265.428283 198.335584 
L 262.752739 199.972988 
L 262.075934 200.480089 
L 259.430828 201.761749 
L 258.097511 202.832002 
L 255.42704 204.365058 
L 254.099414 205.432251 
L 251.426222 206.832524 
L 250.116289 208.03143 
L 249.442578 208.41259 
L 247.445571 209.149111 
L 246.772231 209.515041 
L 245.462422 210.559007 
L 242.114899 212.268352 
L 238.813899 214.516161 
L 238.154169 214.877501 
L 236.826806 215.405152 
L 233.496234 217.677579 
L 232.189395 218.29859 
L 229.516573 219.88415 
L 228.190185 220.560725 
L 224.831155 222.746572 
L 223.486702 223.439976 
L 222.13433 224.234008 
L 221.478559 224.443468 
L 217.502115 226.908027 
L 216.184388 227.658526 
L 215.532577 228.112288 
L 212.900339 229.274058 
L 212.226009 229.644509 
L 211.565784 230.226854 
L 209.578799 231.361225 
L 208.272702 231.852053 
L 206.278418 233.281769 
L 205.597654 233.495228 
L 203.594221 234.456774 
L 202.262017 235.452547 
L 198.287552 237.558595 
L 196.976754 238.19108 
L 195.675359 238.729857 
L 191.020378 241.33546 
L 189.692752 242.124972 
L 188.380964 242.82846 
L 183.726223 245.318858 
L 181.062805 246.569572 
L 179.737406 247.275981 
L 179.079656 247.553871 
L 177.043797 248.784279 
L 175.057184 249.780192 
L 172.37335 251.289603 
L 171.036143 251.711608 
L 162.329119 256.424405 
L 158.98469 258.065877 
L 157.685274 258.840506 
L 157.030741 259.024341 
L 155.051536 259.829866 
L 154.394281 260.006625 
L 147.048538 263.968995 
L 145.691959 264.53705 
L 145.015897 264.967724 
L 144.338844 265.265051 
L 143.658823 265.71631 
L 140.336912 267.194757 
L 138.991701 268.029885 
L 137.656655 268.682189 
L 133.674149 270.319393 
L 132.326478 271.021803 
L 128.367109 272.915712 
L 127.686593 273.180667 
L 127.010036 273.583108 
L 125.682657 274.190245 
L 125.022927 274.577942 
L 123.699756 274.906142 
L 120.370239 276.928388 
L 119.031478 277.160811 
L 118.377192 277.437989 
L 117.720803 277.901348 
L 115.72726 278.379493 
L 113.736811 279.544288 
L 113.062976 280.02844 
L 111.083292 280.541931 
L 110.42183 280.896039 
L 109.766307 281.516215 
L 107.753957 282.292096 
L 106.427754 282.669735 
L 105.771489 283.304585 
L 103.788092 283.79483 
L 102.449331 284.538583 
L 101.788487 285.138662 
L 99.791728 285.573327 
L 99.117027 285.77413 
L 97.800165 287.151759 
L 96.455217 287.169137 
L 95.11361 287.416724 
L 94.451158 287.949556 
L 93.778312 288.80308 
L 92.447469 288.75856 
L 91.099181 289.004254 
L 90.428961 289.525856 
L 89.76094 290.867602 
L 89.077701 290.537544 
L 88.396195 290.390306 
L 86.376793 290.472502 
L 85.709392 292.255562 
L 85.06055 292.339834 
L 84.385973 292.086701 
L 83.030384 292.133439 
L 82.368303 291.946558 
L 81.708945 293.182582 
L 81.04971 294.163403 
L 80.381071 293.895736 
L 79.722579 293.826507 
L 77.696743 294.073953 
L 77.042952 295.358813 
L 76.369735 295.488 
L 75.720894 295.114142 
L 75.065247 294.975614 
L 74.407826 294.703096 
L 74.169398 294.470086 
L 73.983245 295.095478 
L 73.832727 294.193333 
L 73.832962 294.196636 
" clip-path="url(#p7332b2adf1)" style="fill: none; stroke: #ff0000; stroke-width: 1.5; stroke-linecap: square"/>
   </g>
   <g id="line2d_18">
    <path d="M 73.975992 271.885548 
L 73.975992 271.941615 
L 73.975918 271.669971 
L 74.000874 271.835695 
L 75.379438 262.919533 
L 76.109447 261.722297 
L 77.50562 258.571206 
L 78.31729 270.254426 
L 79.052743 269.933211 
L 80.509791 269.965479 
L 81.194762 269.702471 
L 82.668637 268.682844 
L 84.2801 267.559601 
L 86.020243 266.635247 
L 89.201596 265.197951 
L 90.567577 264.339523 
L 92.709596 262.731083 
L 94.19238 261.850958 
L 98.036927 260.039525 
L 98.820882 259.770258 
L 100.392752 259.596681 
L 101.964621 259.801144 
L 103.534511 259.656688 
L 105.098462 259.351259 
L 105.878457 259.295695 
L 106.656473 259.370661 
L 109.736863 260.123107 
L 110.493102 260.112884 
L 111.243403 259.936525 
L 111.989744 259.571569 
L 113.45867 258.347628 
L 115.630383 256.320337 
L 117.061695 255.293339 
L 119.882746 253.663272 
L 127.367933 249.037888 
L 129.351577 247.625906 
L 133.586122 244.320153 
L 135.522254 243.016099 
L 145.117788 237.505028 
L 147.022245 236.406819 
L 151.773488 233.152247 
L 155.58636 230.596436 
L 160.387095 228.038399 
L 164.239561 226.093446 
L 168.088068 223.911493 
L 173.854889 220.136192 
L 176.747208 218.270239 
L 179.643487 216.630158 
L 185.447922 213.502433 
L 187.380094 212.359717 
L 197.399277 205.730408 
L 200.657838 203.699779 
L 207.210679 199.869074 
L 212.478619 196.558871 
L 219.100664 192.220557 
L 223.758862 189.436648 
L 229.743448 185.768163 
L 237.018789 181.178385 
L 240.960341 178.673757 
L 249.43735 173.192727 
L 256.205891 168.680836 
L 270.574442 157.954663 
L 281.114282 151.006017 
L 284.935073 148.189841 
L 288.757844 145.432636 
L 297.363533 139.581086 
L 302.136552 135.934855 
L 306.92145 131.928117 
L 310.773916 128.760336 
L 314.652118 125.861822 
L 322.125427 120.389702 
L 326.6886 116.795767 
L 332.5841 112.23603 
L 338.509296 107.813153 
L 341.80943 105.367497 
L 346.428034 101.612224 
L 357.031225 92.664104 
L 360.359074 90.133884 
L 364.999146 86.779034 
L 366.974871 85.35091 
L 369.588054 83.365275 
L 372.484333 81.424633 
L 377.156388 78.664716 
L 383.166711 75.245471 
L 385.477003 73.465749 
L 387.587346 71.573092 
L 391.308163 67.578594 
L 393.389802 64.748508 
L 394.118325 63.622483 
L 395.546668 60.814095 
L 396.2257 59.137296 
L 396.884687 57.029892 
L 397.547881 54.271575 
L 398.196445 53.568 
L 398.487273 55.326389 
L 398.327351 72.981813 
L 398.327413 98.650461 
L 398.327197 98.61449 
L 397.67223 99.031013 
L 396.325736 101.767251 
L 395.649673 101.482198 
L 394.989449 101.485657 
L 392.967201 102.307558 
L 392.26565 102.597062 
L 391.597259 102.38395 
L 390.915753 103.346552 
L 390.242907 105.063407 
L 389.583425 106.135746 
L 388.915529 106.759399 
L 387.604483 106.767431 
L 384.953438 108.227746 
L 384.290367 110.100375 
L 383.627915 111.166317 
L 382.274863 111.964608 
L 381.624041 112.280781 
L 380.960847 112.732874 
L 380.297529 113.373078 
L 378.959757 114.855299 
L 376.285822 116.919238 
L 375.609512 117.273834 
L 365.649967 125.878042 
L 363.658404 127.616316 
L 362.359236 128.644844 
L 355.743007 134.072465 
L 353.770251 135.525756 
L 353.107923 136.200871 
L 350.456785 138.263759 
L 349.798293 138.590746 
L 348.474874 139.729428 
L 345.788194 141.988086 
L 343.160658 143.823023 
L 342.480141 144.504118 
L 336.477243 148.974632 
L 335.147637 150.170826 
L 331.191996 153.006839 
L 329.195236 154.478489 
L 327.200209 155.991794 
L 325.87481 156.876509 
L 324.5457 157.88174 
L 316.548486 163.631133 
L 315.212693 164.606808 
L 312.511909 166.396543 
L 308.53596 169.60758 
L 303.927378 172.804778 
L 302.593566 173.689353 
L 301.256799 174.819125 
L 299.909129 175.680404 
L 297.954933 176.967211 
L 296.645371 177.894833 
L 294.636239 179.145756 
L 293.282877 180.118303 
L 291.974801 180.845365 
L 290.645195 181.684808 
L 289.322271 182.82961 
L 286.666524 184.408076 
L 283.996162 186.404325 
L 282.003114 187.401872 
L 279.355039 189.249258 
L 278.690855 189.696066 
L 277.366446 190.37584 
L 274.106648 192.635471 
L 272.101969 193.807116 
L 270.767291 194.775073 
L 269.414378 195.773897 
L 266.755166 197.518604 
L 265.428283 198.335584 
L 262.752739 199.972988 
L 262.075934 200.480089 
L 259.430828 201.761749 
L 258.097511 202.832002 
L 255.42704 204.365058 
L 254.099414 205.432251 
L 251.426222 206.832524 
L 250.116289 208.03143 
L 249.442578 208.41259 
L 247.445571 209.149111 
L 246.772231 209.515041 
L 245.462422 210.559007 
L 242.114899 212.268352 
L 238.813899 214.516161 
L 238.154169 214.877501 
L 236.826806 215.405152 
L 233.496234 217.677579 
L 232.189395 218.29859 
L 229.516573 219.88415 
L 228.190185 220.560725 
L 224.831155 222.746572 
L 223.486702 223.439976 
L 222.13433 224.234008 
L 221.478559 224.443468 
L 217.502115 226.908027 
L 216.184388 227.658526 
L 215.532577 228.112288 
L 212.900339 229.274058 
L 212.226009 229.644509 
L 211.565784 230.226854 
L 209.578799 231.361225 
L 208.272702 231.852053 
L 206.278418 233.281769 
L 205.597654 233.495228 
L 203.594221 234.456774 
L 202.262017 235.452547 
L 198.287552 237.558595 
L 196.976754 238.19108 
L 195.675359 238.729857 
L 191.020378 241.33546 
L 189.692752 242.124972 
L 188.380964 242.82846 
L 183.726223 245.318858 
L 181.062805 246.569572 
L 179.737406 247.275981 
L 179.079656 247.553871 
L 177.043797 248.784279 
L 175.057184 249.780192 
L 172.37335 251.289603 
L 171.036143 251.711608 
L 162.329119 256.424405 
L 158.98469 258.065877 
L 157.685274 258.840506 
L 157.030741 259.024341 
L 155.051536 259.829866 
L 154.394281 260.006625 
L 147.048538 263.968995 
L 145.691959 264.53705 
L 145.015897 264.967724 
L 144.338844 265.265051 
L 143.658823 265.71631 
L 140.336912 267.194757 
L 138.991701 268.029885 
L 137.656655 268.682189 
L 133.674149 270.319393 
L 132.326478 271.021803 
L 128.367109 272.915712 
L 127.686593 273.180667 
L 127.010036 273.583108 
L 125.682657 274.190245 
L 125.022927 274.577942 
L 123.699756 274.906142 
L 120.370239 276.928388 
L 119.031478 277.160811 
L 118.377192 277.437989 
L 117.720803 277.901348 
L 115.72726 278.379493 
L 113.736811 279.544288 
L 113.062976 280.02844 
L 111.083292 280.541931 
L 110.42183 280.896039 
L 109.766307 281.516215 
L 107.753957 282.292096 
L 106.427754 282.669735 
L 105.771489 283.304585 
L 103.788092 283.79483 
L 102.449331 284.538583 
L 101.788487 285.138662 
L 99.791728 285.573327 
L 99.117027 285.77413 
L 97.800165 287.151759 
L 96.455217 287.169137 
L 95.11361 287.416724 
L 94.451158 287.949556 
L 93.778312 288.80308 
L 92.447469 288.75856 
L 91.099181 289.004254 
L 90.428961 289.525856 
L 89.76094 290.867602 
L 89.077701 290.537544 
L 88.396195 290.390306 
L 86.376793 290.472502 
L 85.709392 292.255562 
L 85.06055 292.339834 
L 84.385973 292.086701 
L 83.030384 292.133439 
L 82.368303 291.946558 
L 81.708945 293.182582 
L 81.04971 294.163403 
L 80.381071 293.895736 
L 79.722579 293.826507 
L 77.696743 294.073953 
L 77.042952 295.358813 
L 76.369735 295.488 
L 75.720894 295.114142 
L 75.065247 294.975614 
L 74.407826 294.703096 
L 74.169398 294.470086 
L 73.983245 295.095478 
L 73.832727 294.193333 
L 73.832962 294.196636 
" clip-path="url(#p7332b2adf1)" style="fill: none; stroke: #000000; stroke-width: 1.5; stroke-linecap: square"/>
   </g>
   <g id="patch_3">
    <path d="M 57.6 307.584 
L 57.6 41.472 
" style="fill: none; stroke: #000000; stroke-width: 0.8; stroke-linejoin: miter; stroke-linecap: square"/>
   </g>
   <g id="patch_4">
    <path d="M 414.72 307.584 
L 414.72 41.472 
" style="fill: none; stroke: #000000; stroke-width: 0.8; stroke-linejoin: miter; stroke-linecap: square"/>
   </g>
   <g id="patch_5">
    <path d="M 57.6 307.584 
L 414.72 307.584 
" style="fill: none; stroke: #000000; stroke-width: 0.8; stroke-linejoin: miter; stroke-linecap: square"/>
   </g>
   <g id="patch_6">
    <path d="M 57.6 41.472 
L 414.72 41.472 
" style="fill: none; stroke: #000000; stroke-width: 0.8; stroke-linejoin: miter; stroke-linecap: square"/>
   </g>
   <g id="text_19">
    <!-- 2025-06-19 trial 21 -->
    <g transform="translate(178.0125 35.472) scale(0.12 -0.12)">
     <defs>
      <path id="DejaVuSans-2d" d="M 313 2009 
L 1997 2009 
L 1997 1497 
L 313 1497 
L 313 2009 
z
" transform="scale(0.015625)"/>
      <path id="DejaVuSans-36" d="M 2113 2584 
Q 1688 2584 1439 2293 
Q 1191 2003 1191 1497 
Q 1191 994 1439 701 
Q 1688 409 2113 409 
Q 2538 409 2786 701 
Q 3034 994 3034 1497 
Q 3034 2003 2786 2293 
Q 2538 2584 2113 2584 
z
M 3366 4563 
L 3366 3988 
Q 3128 4100 2886 4159 
Q 2644 4219 2406 4219 
Q 1781 4219 1451 3797 
Q 1122 3375 1075 2522 
Q 1259 2794 1537 2939 
Q 1816 3084 2150 3084 
Q 2853 3084 3261 2657 
Q 3669 2231 3669 1497 
Q 3669 778 3244 343 
Q 2819 -91 2113 -91 
Q 1303 -91 875 529 
Q 447 1150 447 2328 
Q 447 3434 972 4092 
Q 1497 4750 2381 4750 
Q 2619 4750 2861 4703 
Q 3103 4656 3366 4563 
z
" transform="scale(0.015625)"/>
      <path id="DejaVuSans-39" d="M 703 97 
L 703 672 
Q 941 559 1184 500 
Q 1428 441 1663 441 
Q 2288 441 2617 861 
Q 2947 1281 2994 2138 
Q 2813 1869 2534 1725 
Q 2256 1581 1919 1581 
Q 1219 1581 811 2004 
Q 403 2428 403 3163 
Q 403 3881 828 4315 
Q 1253 4750 1959 4750 
Q 2769 4750 3195 4129 
Q 3622 3509 3622 2328 
Q 3622 1225 3098 567 
Q 2575 -91 1691 -91 
Q 1453 -91 1209 -44 
Q 966 3 703 97 
z
M 1959 2075 
Q 2384 2075 2632 2365 
Q 2881 2656 2881 3163 
Q 2881 3666 2632 3958 
Q 2384 4250 1959 4250 
Q 1534 4250 1286 3958 
Q 1038 3666 1038 3163 
Q 1038 2656 1286 2365 
Q 1534 2075 1959 2075 
z
" transform="scale(0.015625)"/>
      <path id="DejaVuSans-6c" d="M 603 4863 
L 1178 4863 
L 1178 0 
L 603 0 
L 603 4863 
z
" transform="scale(0.015625)"/>
     </defs>
     <use xlink:href="#DejaVuSans-32"/>
     <use xlink:href="#DejaVuSans-30" transform="translate(63.623047 0)"/>
     <use xlink:href="#DejaVuSans-32" transform="translate(127.246094 0)"/>
     <use xlink:href="#DejaVuSans-35" transform="translate(190.869141 0)"/>
     <use xlink:href="#DejaVuSans-2d" transform="translate(254.492188 0)"/>
     <use xlink:href="#DejaVuSans-30" transform="translate(290.576172 0)"/>
     <use xlink:href="#DejaVuSans-36" transform="translate(354.199219 0)"/>
     <use xlink:href="#DejaVuSans-2d" transform="translate(417.822266 0)"/>
     <use xlink:href="#DejaVuSans-31" transform="translate(453.90625 0)"/>
     <use xlink:href="#DejaVuSans-39" transform="translate(517.529297 0)"/>
     <use xlink:href="#DejaVuSans-20" transform="translate(581.152344 0)"/>
     <use xlink:href="#DejaVuSans-74" transform="translate(612.939453 0)"/>
     <use xlink:href="#DejaVuSans-72" transform="translate(652.148438 0)"/>
     <use xlink:href="#DejaVuSans-69" transform="translate(693.261719 0)"/>
     <use xlink:href="#DejaVuSans-61" transform="translate(721.044922 0)"/>
     <use xlink:href="#DejaVuSans-6c" transform="translate(782.324219 0)"/>
     <use xlink:href="#DejaVuSans-20" transform="translate(810.107422 0)"/>
     <use xlink:href="#DejaVuSans-32" transform="translate(841.894531 0)"/>
     <use xlink:href="#DejaVuSans-31" transform="translate(905.517578 0)"/>
    </g>
   </g>
  </g>
 </g>
 <defs>
  <clipPath id="p7332b2adf1">
   <rect x="57.6" y="41.472" width="357.12" height="266.112"/>
  </clipPath>
 </defs>
</svg>
