<?xml version="1.0" encoding="utf-8" standalone="no"?>
<!DOCTYPE svg PUBLIC "-//W3C//DTD SVG 1.1//EN"
  "http://www.w3.org/Graphics/SVG/1.1/DTD/svg11.dtd">
<svg xmlns:xlink="http://www.w3.org/1999/xlink" width="432pt" height="288pt" viewBox="0 0 432 288" xmlns="http://www.w3.org/2000/svg" version="1.1">
 <metadata>
  <rdf:RDF xmlns:dc="http://purl.org/dc/elements/1.1/" xmlns:cc="http://creativecommons.org/ns#" xmlns:rdf="http://www.w3.org/1999/02/22-rdf-syntax-ns#">
   <cc:Work>
    <dc:type rdf:resource="http://purl.org/dc/dcmitype/StillImage"/>
    <dc:date>2025-07-03T20:54:24.999531</dc:date>
    <dc:format>image/svg+xml</dc:format>
    <dc:creator>
     <cc:Agent>
      <dc:title>Matplotlib v3.9.2, https://matplotlib.org/</dc:title>
     </cc:Agent>
    </dc:creator>
   </cc:Work>
  </rdf:RDF>
 </metadata>
 <defs>
  <style type="text/css">*{stroke-linejoin: round; stroke-linecap: butt}</style>
 </defs>
 <g id="figure_1">
  <g id="patch_1">
   <path d="M 0 288 
L 432 288 
L 432 0 
L 0 0 
z
" style="fill: #ffffff"/>
  </g>
  <g id="axes_1">
   <g id="patch_2">
    <path d="M 54 256.32 
L 388.8 256.32 
L 388.8 34.56 
L 54 34.56 
z
" style="fill: #ffffff"/>
   </g>
   <g id="matplotlib.axis_1">
    <g id="xtick_1">
     <g id="line2d_1">
      <defs>
       <path id="mb1398f075a" d="M 0 0 
L 0 3.5 
" style="stroke: #000000; stroke-width: 0.8"/>
      </defs>
      <g>
       <use xlink:href="#mb1398f075a" x="69.351421" y="256.32" style="stroke: #000000; stroke-width: 0.8"/>
      </g>
     </g>
     <g id="text_1">
      <!-- 0.000 -->
      <g transform="translate(55.037359 270.918437) scale(0.1 -0.1)">
       <defs>
        <path id="DejaVuSans-30" d="M 2034 4250 
Q 1547 4250 1301 3770 
Q 1056 3291 1056 2328 
Q 1056 1369 1301 889 
Q 1547 409 2034 409 
Q 2525 409 2770 889 
Q 3016 1369 3016 2328 
Q 3016 3291 2770 3770 
Q 2525 4250 2034 4250 
z
M 2034 4750 
Q 2819 4750 3233 4129 
Q 3647 3509 3647 2328 
Q 3647 1150 3233 529 
Q 2819 -91 2034 -91 
Q 1250 -91 836 529 
Q 422 1150 422 2328 
Q 422 3509 836 4129 
Q 1250 4750 2034 4750 
z
" transform="scale(0.015625)"/>
        <path id="DejaVuSans-2e" d="M 684 794 
L 1344 794 
L 1344 0 
L 684 0 
L 684 794 
z
" transform="scale(0.015625)"/>
       </defs>
       <use xlink:href="#DejaVuSans-30"/>
       <use xlink:href="#DejaVuSans-2e" x="63.623047"/>
       <use xlink:href="#DejaVuSans-30" x="95.410156"/>
       <use xlink:href="#DejaVuSans-30" x="159.033203"/>
       <use xlink:href="#DejaVuSans-30" x="222.65625"/>
      </g>
     </g>
    </g>
    <g id="xtick_2">
     <g id="line2d_2">
      <g>
       <use xlink:href="#mb1398f075a" x="107.362527" y="256.32" style="stroke: #000000; stroke-width: 0.8"/>
      </g>
     </g>
     <g id="text_2">
      <!-- 0.025 -->
      <g transform="translate(93.048465 270.918437) scale(0.1 -0.1)">
       <defs>
        <path id="DejaVuSans-32" d="M 1228 531 
L 3431 531 
L 3431 0 
L 469 0 
L 469 531 
Q 828 903 1448 1529 
Q 2069 2156 2228 2338 
Q 2531 2678 2651 2914 
Q 2772 3150 2772 3378 
Q 2772 3750 2511 3984 
Q 2250 4219 1831 4219 
Q 1534 4219 1204 4116 
Q 875 4013 500 3803 
L 500 4441 
Q 881 4594 1212 4672 
Q 1544 4750 1819 4750 
Q 2544 4750 2975 4387 
Q 3406 4025 3406 3419 
Q 3406 3131 3298 2873 
Q 3191 2616 2906 2266 
Q 2828 2175 2409 1742 
Q 1991 1309 1228 531 
z
" transform="scale(0.015625)"/>
        <path id="DejaVuSans-35" d="M 691 4666 
L 3169 4666 
L 3169 4134 
L 1269 4134 
L 1269 2991 
Q 1406 3038 1543 3061 
Q 1681 3084 1819 3084 
Q 2600 3084 3056 2656 
Q 3513 2228 3513 1497 
Q 3513 744 3044 326 
Q 2575 -91 1722 -91 
Q 1428 -91 1123 -41 
Q 819 9 494 109 
L 494 744 
Q 775 591 1075 516 
Q 1375 441 1709 441 
Q 2250 441 2565 725 
Q 2881 1009 2881 1497 
Q 2881 1984 2565 2268 
Q 2250 2553 1709 2553 
Q 1456 2553 1204 2497 
Q 953 2441 691 2322 
L 691 4666 
z
" transform="scale(0.015625)"/>
       </defs>
       <use xlink:href="#DejaVuSans-30"/>
       <use xlink:href="#DejaVuSans-2e" x="63.623047"/>
       <use xlink:href="#DejaVuSans-30" x="95.410156"/>
       <use xlink:href="#DejaVuSans-32" x="159.033203"/>
       <use xlink:href="#DejaVuSans-35" x="222.65625"/>
      </g>
     </g>
    </g>
    <g id="xtick_3">
     <g id="line2d_3">
      <g>
       <use xlink:href="#mb1398f075a" x="145.373633" y="256.32" style="stroke: #000000; stroke-width: 0.8"/>
      </g>
     </g>
     <g id="text_3">
      <!-- 0.050 -->
      <g transform="translate(131.059571 270.918437) scale(0.1 -0.1)">
       <use xlink:href="#DejaVuSans-30"/>
       <use xlink:href="#DejaVuSans-2e" x="63.623047"/>
       <use xlink:href="#DejaVuSans-30" x="95.410156"/>
       <use xlink:href="#DejaVuSans-35" x="159.033203"/>
       <use xlink:href="#DejaVuSans-30" x="222.65625"/>
      </g>
     </g>
    </g>
    <g id="xtick_4">
     <g id="line2d_4">
      <g>
       <use xlink:href="#mb1398f075a" x="183.384739" y="256.32" style="stroke: #000000; stroke-width: 0.8"/>
      </g>
     </g>
     <g id="text_4">
      <!-- 0.075 -->
      <g transform="translate(169.070677 270.918437) scale(0.1 -0.1)">
       <defs>
        <path id="DejaVuSans-37" d="M 525 4666 
L 3525 4666 
L 3525 4397 
L 1831 0 
L 1172 0 
L 2766 4134 
L 525 4134 
L 525 4666 
z
" transform="scale(0.015625)"/>
       </defs>
       <use xlink:href="#DejaVuSans-30"/>
       <use xlink:href="#DejaVuSans-2e" x="63.623047"/>
       <use xlink:href="#DejaVuSans-30" x="95.410156"/>
       <use xlink:href="#DejaVuSans-37" x="159.033203"/>
       <use xlink:href="#DejaVuSans-35" x="222.65625"/>
      </g>
     </g>
    </g>
    <g id="xtick_5">
     <g id="line2d_5">
      <g>
       <use xlink:href="#mb1398f075a" x="221.395845" y="256.32" style="stroke: #000000; stroke-width: 0.8"/>
      </g>
     </g>
     <g id="text_5">
      <!-- 0.100 -->
      <g transform="translate(207.081782 270.918437) scale(0.1 -0.1)">
       <defs>
        <path id="DejaVuSans-31" d="M 794 531 
L 1825 531 
L 1825 4091 
L 703 3866 
L 703 4441 
L 1819 4666 
L 2450 4666 
L 2450 531 
L 3481 531 
L 3481 0 
L 794 0 
L 794 531 
z
" transform="scale(0.015625)"/>
       </defs>
       <use xlink:href="#DejaVuSans-30"/>
       <use xlink:href="#DejaVuSans-2e" x="63.623047"/>
       <use xlink:href="#DejaVuSans-31" x="95.410156"/>
       <use xlink:href="#DejaVuSans-30" x="159.033203"/>
       <use xlink:href="#DejaVuSans-30" x="222.65625"/>
      </g>
     </g>
    </g>
    <g id="xtick_6">
     <g id="line2d_6">
      <g>
       <use xlink:href="#mb1398f075a" x="259.406951" y="256.32" style="stroke: #000000; stroke-width: 0.8"/>
      </g>
     </g>
     <g id="text_6">
      <!-- 0.125 -->
      <g transform="translate(245.092888 270.918437) scale(0.1 -0.1)">
       <use xlink:href="#DejaVuSans-30"/>
       <use xlink:href="#DejaVuSans-2e" x="63.623047"/>
       <use xlink:href="#DejaVuSans-31" x="95.410156"/>
       <use xlink:href="#DejaVuSans-32" x="159.033203"/>
       <use xlink:href="#DejaVuSans-35" x="222.65625"/>
      </g>
     </g>
    </g>
    <g id="xtick_7">
     <g id="line2d_7">
      <g>
       <use xlink:href="#mb1398f075a" x="297.418057" y="256.32" style="stroke: #000000; stroke-width: 0.8"/>
      </g>
     </g>
     <g id="text_7">
      <!-- 0.150 -->
      <g transform="translate(283.103994 270.918437) scale(0.1 -0.1)">
       <use xlink:href="#DejaVuSans-30"/>
       <use xlink:href="#DejaVuSans-2e" x="63.623047"/>
       <use xlink:href="#DejaVuSans-31" x="95.410156"/>
       <use xlink:href="#DejaVuSans-35" x="159.033203"/>
       <use xlink:href="#DejaVuSans-30" x="222.65625"/>
      </g>
     </g>
    </g>
    <g id="xtick_8">
     <g id="line2d_8">
      <g>
       <use xlink:href="#mb1398f075a" x="335.429162" y="256.32" style="stroke: #000000; stroke-width: 0.8"/>
      </g>
     </g>
     <g id="text_8">
      <!-- 0.175 -->
      <g transform="translate(321.1151 270.918437) scale(0.1 -0.1)">
       <use xlink:href="#DejaVuSans-30"/>
       <use xlink:href="#DejaVuSans-2e" x="63.623047"/>
       <use xlink:href="#DejaVuSans-31" x="95.410156"/>
       <use xlink:href="#DejaVuSans-37" x="159.033203"/>
       <use xlink:href="#DejaVuSans-35" x="222.65625"/>
      </g>
     </g>
    </g>
    <g id="xtick_9">
     <g id="line2d_9">
      <g>
       <use xlink:href="#mb1398f075a" x="373.440268" y="256.32" style="stroke: #000000; stroke-width: 0.8"/>
      </g>
     </g>
     <g id="text_9">
      <!-- 0.200 -->
      <g transform="translate(359.126206 270.918437) scale(0.1 -0.1)">
       <use xlink:href="#DejaVuSans-30"/>
       <use xlink:href="#DejaVuSans-2e" x="63.623047"/>
       <use xlink:href="#DejaVuSans-32" x="95.410156"/>
       <use xlink:href="#DejaVuSans-30" x="159.033203"/>
       <use xlink:href="#DejaVuSans-30" x="222.65625"/>
      </g>
     </g>
    </g>
    <g id="text_10">
     <!-- Strain -->
     <g transform="translate(206.588281 284.596563) scale(0.1 -0.1)">
      <defs>
       <path id="DejaVuSans-53" d="M 3425 4513 
L 3425 3897 
Q 3066 4069 2747 4153 
Q 2428 4238 2131 4238 
Q 1616 4238 1336 4038 
Q 1056 3838 1056 3469 
Q 1056 3159 1242 3001 
Q 1428 2844 1947 2747 
L 2328 2669 
Q 3034 2534 3370 2195 
Q 3706 1856 3706 1288 
Q 3706 609 3251 259 
Q 2797 -91 1919 -91 
Q 1588 -91 1214 -16 
Q 841 59 441 206 
L 441 856 
Q 825 641 1194 531 
Q 1563 422 1919 422 
Q 2459 422 2753 634 
Q 3047 847 3047 1241 
Q 3047 1584 2836 1778 
Q 2625 1972 2144 2069 
L 1759 2144 
Q 1053 2284 737 2584 
Q 422 2884 422 3419 
Q 422 4038 858 4394 
Q 1294 4750 2059 4750 
Q 2388 4750 2728 4690 
Q 3069 4631 3425 4513 
z
" transform="scale(0.015625)"/>
       <path id="DejaVuSans-74" d="M 1172 4494 
L 1172 3500 
L 2356 3500 
L 2356 3053 
L 1172 3053 
L 1172 1153 
Q 1172 725 1289 603 
Q 1406 481 1766 481 
L 2356 481 
L 2356 0 
L 1766 0 
Q 1100 0 847 248 
Q 594 497 594 1153 
L 594 3053 
L 172 3053 
L 172 3500 
L 594 3500 
L 594 4494 
L 1172 4494 
z
" transform="scale(0.015625)"/>
       <path id="DejaVuSans-72" d="M 2631 2963 
Q 2534 3019 2420 3045 
Q 2306 3072 2169 3072 
Q 1681 3072 1420 2755 
Q 1159 2438 1159 1844 
L 1159 0 
L 581 0 
L 581 3500 
L 1159 3500 
L 1159 2956 
Q 1341 3275 1631 3429 
Q 1922 3584 2338 3584 
Q 2397 3584 2469 3576 
Q 2541 3569 2628 3553 
L 2631 2963 
z
" transform="scale(0.015625)"/>
       <path id="DejaVuSans-61" d="M 2194 1759 
Q 1497 1759 1228 1600 
Q 959 1441 959 1056 
Q 959 750 1161 570 
Q 1363 391 1709 391 
Q 2188 391 2477 730 
Q 2766 1069 2766 1631 
L 2766 1759 
L 2194 1759 
z
M 3341 1997 
L 3341 0 
L 2766 0 
L 2766 531 
Q 2569 213 2275 61 
Q 1981 -91 1556 -91 
Q 1019 -91 701 211 
Q 384 513 384 1019 
Q 384 1609 779 1909 
Q 1175 2209 1959 2209 
L 2766 2209 
L 2766 2266 
Q 2766 2663 2505 2880 
Q 2244 3097 1772 3097 
Q 1472 3097 1187 3025 
Q 903 2953 641 2809 
L 641 3341 
Q 956 3463 1253 3523 
Q 1550 3584 1831 3584 
Q 2591 3584 2966 3190 
Q 3341 2797 3341 1997 
z
" transform="scale(0.015625)"/>
       <path id="DejaVuSans-69" d="M 603 3500 
L 1178 3500 
L 1178 0 
L 603 0 
L 603 3500 
z
M 603 4863 
L 1178 4863 
L 1178 4134 
L 603 4134 
L 603 4863 
z
" transform="scale(0.015625)"/>
       <path id="DejaVuSans-6e" d="M 3513 2113 
L 3513 0 
L 2938 0 
L 2938 2094 
Q 2938 2591 2744 2837 
Q 2550 3084 2163 3084 
Q 1697 3084 1428 2787 
Q 1159 2491 1159 1978 
L 1159 0 
L 581 0 
L 581 3500 
L 1159 3500 
L 1159 2956 
Q 1366 3272 1645 3428 
Q 1925 3584 2291 3584 
Q 2894 3584 3203 3211 
Q 3513 2838 3513 2113 
z
" transform="scale(0.015625)"/>
      </defs>
      <use xlink:href="#DejaVuSans-53"/>
      <use xlink:href="#DejaVuSans-74" x="63.476562"/>
      <use xlink:href="#DejaVuSans-72" x="102.685547"/>
      <use xlink:href="#DejaVuSans-61" x="143.798828"/>
      <use xlink:href="#DejaVuSans-69" x="205.078125"/>
      <use xlink:href="#DejaVuSans-6e" x="232.861328"/>
     </g>
    </g>
   </g>
   <g id="matplotlib.axis_2">
    <g id="ytick_1">
     <g id="line2d_10">
      <defs>
       <path id="md13488e9f2" d="M 0 0 
L -3.5 0 
" style="stroke: #000000; stroke-width: 0.8"/>
      </defs>
      <g>
       <use xlink:href="#md13488e9f2" x="54" y="240.170552" style="stroke: #000000; stroke-width: 0.8"/>
      </g>
     </g>
     <g id="text_11">
      <!-- 0 -->
      <g transform="translate(40.6375 243.96977) scale(0.1 -0.1)">
       <use xlink:href="#DejaVuSans-30"/>
      </g>
     </g>
    </g>
    <g id="ytick_2">
     <g id="line2d_11">
      <g>
       <use xlink:href="#md13488e9f2" x="54" y="193.897394" style="stroke: #000000; stroke-width: 0.8"/>
      </g>
     </g>
     <g id="text_12">
      <!-- 200 -->
      <g transform="translate(27.9125 197.696613) scale(0.1 -0.1)">
       <use xlink:href="#DejaVuSans-32"/>
       <use xlink:href="#DejaVuSans-30" x="63.623047"/>
       <use xlink:href="#DejaVuSans-30" x="127.246094"/>
      </g>
     </g>
    </g>
    <g id="ytick_3">
     <g id="line2d_12">
      <g>
       <use xlink:href="#md13488e9f2" x="54" y="147.624236" style="stroke: #000000; stroke-width: 0.8"/>
      </g>
     </g>
     <g id="text_13">
      <!-- 400 -->
      <g transform="translate(27.9125 151.423455) scale(0.1 -0.1)">
       <defs>
        <path id="DejaVuSans-34" d="M 2419 4116 
L 825 1625 
L 2419 1625 
L 2419 4116 
z
M 2253 4666 
L 3047 4666 
L 3047 1625 
L 3713 1625 
L 3713 1100 
L 3047 1100 
L 3047 0 
L 2419 0 
L 2419 1100 
L 313 1100 
L 313 1709 
L 2253 4666 
z
" transform="scale(0.015625)"/>
       </defs>
       <use xlink:href="#DejaVuSans-34"/>
       <use xlink:href="#DejaVuSans-30" x="63.623047"/>
       <use xlink:href="#DejaVuSans-30" x="127.246094"/>
      </g>
     </g>
    </g>
    <g id="ytick_4">
     <g id="line2d_13">
      <g>
       <use xlink:href="#md13488e9f2" x="54" y="101.351079" style="stroke: #000000; stroke-width: 0.8"/>
      </g>
     </g>
     <g id="text_14">
      <!-- 600 -->
      <g transform="translate(27.9125 105.150298) scale(0.1 -0.1)">
       <defs>
        <path id="DejaVuSans-36" d="M 2113 2584 
Q 1688 2584 1439 2293 
Q 1191 2003 1191 1497 
Q 1191 994 1439 701 
Q 1688 409 2113 409 
Q 2538 409 2786 701 
Q 3034 994 3034 1497 
Q 3034 2003 2786 2293 
Q 2538 2584 2113 2584 
z
M 3366 4563 
L 3366 3988 
Q 3128 4100 2886 4159 
Q 2644 4219 2406 4219 
Q 1781 4219 1451 3797 
Q 1122 3375 1075 2522 
Q 1259 2794 1537 2939 
Q 1816 3084 2150 3084 
Q 2853 3084 3261 2657 
Q 3669 2231 3669 1497 
Q 3669 778 3244 343 
Q 2819 -91 2113 -91 
Q 1303 -91 875 529 
Q 447 1150 447 2328 
Q 447 3434 972 4092 
Q 1497 4750 2381 4750 
Q 2619 4750 2861 4703 
Q 3103 4656 3366 4563 
z
" transform="scale(0.015625)"/>
       </defs>
       <use xlink:href="#DejaVuSans-36"/>
       <use xlink:href="#DejaVuSans-30" x="63.623047"/>
       <use xlink:href="#DejaVuSans-30" x="127.246094"/>
      </g>
     </g>
    </g>
    <g id="ytick_5">
     <g id="line2d_14">
      <g>
       <use xlink:href="#md13488e9f2" x="54" y="55.077921" style="stroke: #000000; stroke-width: 0.8"/>
      </g>
     </g>
     <g id="text_15">
      <!-- 800 -->
      <g transform="translate(27.9125 58.87714) scale(0.1 -0.1)">
       <defs>
        <path id="DejaVuSans-38" d="M 2034 2216 
Q 1584 2216 1326 1975 
Q 1069 1734 1069 1313 
Q 1069 891 1326 650 
Q 1584 409 2034 409 
Q 2484 409 2743 651 
Q 3003 894 3003 1313 
Q 3003 1734 2745 1975 
Q 2488 2216 2034 2216 
z
M 1403 2484 
Q 997 2584 770 2862 
Q 544 3141 544 3541 
Q 544 4100 942 4425 
Q 1341 4750 2034 4750 
Q 2731 4750 3128 4425 
Q 3525 4100 3525 3541 
Q 3525 3141 3298 2862 
Q 3072 2584 2669 2484 
Q 3125 2378 3379 2068 
Q 3634 1759 3634 1313 
Q 3634 634 3220 271 
Q 2806 -91 2034 -91 
Q 1263 -91 848 271 
Q 434 634 434 1313 
Q 434 1759 690 2068 
Q 947 2378 1403 2484 
z
M 1172 3481 
Q 1172 3119 1398 2916 
Q 1625 2713 2034 2713 
Q 2441 2713 2670 2916 
Q 2900 3119 2900 3481 
Q 2900 3844 2670 4047 
Q 2441 4250 2034 4250 
Q 1625 4250 1398 4047 
Q 1172 3844 1172 3481 
z
" transform="scale(0.015625)"/>
       </defs>
       <use xlink:href="#DejaVuSans-38"/>
       <use xlink:href="#DejaVuSans-30" x="63.623047"/>
       <use xlink:href="#DejaVuSans-30" x="127.246094"/>
      </g>
     </g>
    </g>
    <g id="text_16">
     <!-- Stress [Pa] -->
     <g transform="translate(21.832812 172.147812) rotate(-90) scale(0.1 -0.1)">
      <defs>
       <path id="DejaVuSans-65" d="M 3597 1894 
L 3597 1613 
L 953 1613 
Q 991 1019 1311 708 
Q 1631 397 2203 397 
Q 2534 397 2845 478 
Q 3156 559 3463 722 
L 3463 178 
Q 3153 47 2828 -22 
Q 2503 -91 2169 -91 
Q 1331 -91 842 396 
Q 353 884 353 1716 
Q 353 2575 817 3079 
Q 1281 3584 2069 3584 
Q 2775 3584 3186 3129 
Q 3597 2675 3597 1894 
z
M 3022 2063 
Q 3016 2534 2758 2815 
Q 2500 3097 2075 3097 
Q 1594 3097 1305 2825 
Q 1016 2553 972 2059 
L 3022 2063 
z
" transform="scale(0.015625)"/>
       <path id="DejaVuSans-73" d="M 2834 3397 
L 2834 2853 
Q 2591 2978 2328 3040 
Q 2066 3103 1784 3103 
Q 1356 3103 1142 2972 
Q 928 2841 928 2578 
Q 928 2378 1081 2264 
Q 1234 2150 1697 2047 
L 1894 2003 
Q 2506 1872 2764 1633 
Q 3022 1394 3022 966 
Q 3022 478 2636 193 
Q 2250 -91 1575 -91 
Q 1294 -91 989 -36 
Q 684 19 347 128 
L 347 722 
Q 666 556 975 473 
Q 1284 391 1588 391 
Q 1994 391 2212 530 
Q 2431 669 2431 922 
Q 2431 1156 2273 1281 
Q 2116 1406 1581 1522 
L 1381 1569 
Q 847 1681 609 1914 
Q 372 2147 372 2553 
Q 372 3047 722 3315 
Q 1072 3584 1716 3584 
Q 2034 3584 2315 3537 
Q 2597 3491 2834 3397 
z
" transform="scale(0.015625)"/>
       <path id="DejaVuSans-20" transform="scale(0.015625)"/>
       <path id="DejaVuSans-5b" d="M 550 4863 
L 1875 4863 
L 1875 4416 
L 1125 4416 
L 1125 -397 
L 1875 -397 
L 1875 -844 
L 550 -844 
L 550 4863 
z
" transform="scale(0.015625)"/>
       <path id="DejaVuSans-50" d="M 1259 4147 
L 1259 2394 
L 2053 2394 
Q 2494 2394 2734 2622 
Q 2975 2850 2975 3272 
Q 2975 3691 2734 3919 
Q 2494 4147 2053 4147 
L 1259 4147 
z
M 628 4666 
L 2053 4666 
Q 2838 4666 3239 4311 
Q 3641 3956 3641 3272 
Q 3641 2581 3239 2228 
Q 2838 1875 2053 1875 
L 1259 1875 
L 1259 0 
L 628 0 
L 628 4666 
z
" transform="scale(0.015625)"/>
       <path id="DejaVuSans-5d" d="M 1947 4863 
L 1947 -844 
L 622 -844 
L 622 -397 
L 1369 -397 
L 1369 4416 
L 622 4416 
L 622 4863 
L 1947 4863 
z
" transform="scale(0.015625)"/>
      </defs>
      <use xlink:href="#DejaVuSans-53"/>
      <use xlink:href="#DejaVuSans-74" x="63.476562"/>
      <use xlink:href="#DejaVuSans-72" x="102.685547"/>
      <use xlink:href="#DejaVuSans-65" x="141.548828"/>
      <use xlink:href="#DejaVuSans-73" x="203.072266"/>
      <use xlink:href="#DejaVuSans-73" x="255.171875"/>
      <use xlink:href="#DejaVuSans-20" x="307.271484"/>
      <use xlink:href="#DejaVuSans-5b" x="339.058594"/>
      <use xlink:href="#DejaVuSans-50" x="378.072266"/>
      <use xlink:href="#DejaVuSans-61" x="433.875"/>
      <use xlink:href="#DejaVuSans-5d" x="495.154297"/>
     </g>
    </g>
   </g>
   <g id="line2d_15">
    <path d="M 69.351421 241.07953 
L 69.351298 240.683376 
L 69.352667 241.081281 
L 69.351604 240.750218 
L 69.782295 233.086139 
L 70.446326 226.718046 
L 71.125626 226.968988 
L 72.44757 229.662279 
L 73.167702 230.858213 
L 73.812666 231.628839 
L 74.492894 232.220466 
L 75.207458 232.560664 
L 77.850418 233.295198 
L 79.89203 235.014963 
L 80.59453 235.912402 
L 82.009738 238.87785 
L 84.087543 243.798154 
L 84.749212 244.558538 
L 85.390463 244.54354 
L 86.014083 243.917772 
L 87.5091 241.493713 
L 88.948437 239.126231 
L 89.659289 238.216111 
L 91.078209 236.997741 
L 92.505482 236.144199 
L 93.947602 235.673288 
L 96.87082 235.125436 
L 98.34542 234.950399 
L 99.084113 234.940949 
L 101.303902 234.431384 
L 103.530187 233.624177 
L 105.020564 233.119856 
L 106.520221 232.590172 
L 108.78177 231.990497 
L 109.538095 231.844907 
L 111.809852 231.72439 
L 115.576627 230.878164 
L 117.821472 230.109977 
L 120.062605 228.940136 
L 122.306523 228.233891 
L 127.57017 226.096622 
L 129.083747 225.62376 
L 129.841928 225.358918 
L 131.360141 225.120841 
L 135.155683 223.953074 
L 139.558142 221.925546 
L 142.003436 220.832037 
L 144.464007 220.05518 
L 151.261647 217.827679 
L 153.10745 217.070709 
L 155.558312 216.213753 
L 157.53682 215.236326 
L 159.051325 214.191102 
L 162.077551 212.460607 
L 164.20454 211.234433 
L 165.425795 210.706456 
L 168.491925 209.590023 
L 173.404786 207.082561 
L 174.637178 206.506542 
L 176.488549 205.459855 
L 178.342704 204.558515 
L 185.749116 200.396644 
L 188.833806 198.727116 
L 190.067125 198.023797 
L 191.91108 197.233417 
L 194.968858 195.450734 
L 198.165837 193.423693 
L 200.442234 191.96877 
L 202.717704 190.617247 
L 204.985749 189.442285 
L 209.497712 186.266134 
L 212.503522 184.450284 
L 217.755105 181.357048 
L 219.250122 180.152822 
L 221.488399 178.598057 
L 222.235443 178.018136 
L 223.726748 177.109967 
L 227.463826 174.113303 
L 235.004799 168.816465 
L 238.029169 166.914286 
L 241.050755 164.495592 
L 243.318801 162.834355 
L 244.832378 161.561358 
L 248.18155 158.930498 
L 249.407445 158.114511 
L 252.483783 156.065523 
L 255.555481 154.286741 
L 262.688132 148.654339 
L 265.712502 145.82058 
L 267.690081 144.008144 
L 268.915049 142.89854 
L 270.145584 142.044998 
L 272.611295 140.574467 
L 275.071437 138.620099 
L 277.518588 136.526726 
L 279.347687 134.962062 
L 282.84534 131.713725 
L 284.366341 130.523643 
L 286.955476 127.940581 
L 288.179515 126.931938 
L 290.021606 125.648211 
L 291.253069 124.706389 
L 293.715068 123.013937 
L 296.167787 121.022013 
L 300.447763 116.775878 
L 302.902337 114.532282 
L 306.599511 110.955202 
L 309.078214 108.626739 
L 310.318957 107.585418 
L 311.560629 106.419723 
L 315.269867 103.495732 
L 319.372579 99.564561 
L 321.624848 97.454605 
L 323.115225 95.964077 
L 333.501463 85.015328 
L 336.499849 82.068413 
L 338.006002 80.506675 
L 342.540237 76.413575 
L 344.050102 74.88793 
L 345.559967 73.413984 
L 349.339733 69.204803 
L 353.44523 64.705905 
L 355.274328 62.547175 
L 357.716839 60.235296 
L 359.841972 58.606737 
L 363.496457 56.888191 
L 364.859697 56.345826 
L 366.142201 55.756882 
L 366.866973 55.509355 
L 368.197269 55.240185 
L 368.892809 54.82073 
L 370.172471 53.658358 
L 370.800267 52.872124 
L 371.431774 51.787394 
L 372.074418 50.094942 
L 373.303678 45.243333 
L 373.319744 45.273938 
L 373.581818 46.713406 
L 373.439601 69.603438 
L 373.440442 74.760721 
L 373.440065 69.27711 
L 373.434613 73.619368 
L 372.817838 74.827892 
L 372.20257 77.675918 
L 371.567466 79.319916 
L 370.947559 78.279326 
L 370.297955 77.86042 
L 369.659487 77.917196 
L 369.005011 78.177282 
L 368.347983 78.130917 
L 367.716011 78.746793 
L 367.07824 78.714755 
L 365.84028 82.624465 
L 365.192996 83.688466 
L 364.547801 84.496649 
L 363.910493 84.420257 
L 363.265529 83.7801 
L 362.650261 83.987145 
L 362.005529 85.008225 
L 361.385622 85.639236 
L 360.763278 86.465953 
L 359.543415 89.734531 
L 358.932555 90.154474 
L 353.975962 95.025791 
L 353.33877 96.091011 
L 352.728142 96.705805 
L 352.107423 97.793462 
L 350.850207 98.939281 
L 350.228443 98.975693 
L 348.984916 99.970649 
L 347.757513 101.631032 
L 347.127977 102.870863 
L 346.494613 103.533334 
L 345.855681 103.963183 
L 345.234614 104.560175 
L 343.367467 106.991916 
L 340.880412 109.446337 
L 340.261896 110.367919 
L 339.646629 111.069043 
L 339.032985 111.469476 
L 337.187385 113.195574 
L 334.714946 115.806925 
L 334.088427 116.30704 
L 331.58606 119.534038 
L 330.334412 120.152338 
L 329.077777 121.462037 
L 327.218982 123.896705 
L 325.366451 124.853587 
L 324.738771 125.46143 
L 323.482367 127.262282 
L 322.248323 128.294496 
L 321.624471 128.503782 
L 321.004796 128.883059 
L 320.388136 129.470906 
L 319.768924 130.295184 
L 317.911521 132.152857 
L 317.273286 132.653642 
L 316.637602 132.918027 
L 314.776255 134.971039 
L 312.29732 136.633861 
L 310.418109 138.770643 
L 308.573698 140.36262 
L 307.30088 141.69753 
L 306.037169 142.846153 
L 304.784593 143.794926 
L 303.54153 144.986593 
L 300.422503 147.680859 
L 299.787284 148.06919 
L 298.567652 149.255614 
L 297.930577 149.991733 
L 296.707929 150.927276 
L 296.090806 151.094555 
L 294.843798 151.942 
L 293.591223 153.596896 
L 292.954147 154.271316 
L 291.725482 154.721392 
L 291.089567 155.17822 
L 289.832815 156.571445 
L 288.599264 157.24873 
L 287.980748 157.397452 
L 287.342744 157.811908 
L 285.453093 159.852239 
L 284.822049 160.456059 
L 283.560774 161.265644 
L 281.055159 163.222092 
L 278.556504 164.90693 
L 277.944136 165.739621 
L 276.071711 167.259361 
L 274.830968 167.817394 
L 272.319785 170.354365 
L 271.705677 170.649782 
L 270.466326 171.065259 
L 269.852218 171.480934 
L 268.577835 172.64547 
L 264.790412 175.344644 
L 263.534821 176.057657 
L 262.288292 177.008819 
L 261.046737 178.190974 
L 260.438429 178.678347 
L 259.205806 179.215899 
L 256.691375 181.039675 
L 254.829796 181.811608 
L 253.561908 182.828908 
L 252.93272 183.408342 
L 248.598703 185.8695 
L 247.328263 186.831746 
L 246.718491 187.220916 
L 246.106471 187.396364 
L 244.203828 188.783919 
L 242.946148 189.721291 
L 241.684757 190.289788 
L 241.061833 190.535097 
L 239.808098 191.831018 
L 237.934223 192.687487 
L 236.690927 193.149116 
L 235.451112 194.526367 
L 234.84002 194.897475 
L 234.216169 195.140704 
L 233.589765 195.537418 
L 232.358998 196.05186 
L 231.116398 197.102261 
L 229.874263 197.747417 
L 228.642799 198.178227 
L 228.019296 198.634019 
L 227.399504 199.251495 
L 225.545813 200.350404 
L 224.931473 200.48643 
L 224.301706 200.798639 
L 223.06247 201.9269 
L 221.833791 202.590803 
L 220.586088 202.790585 
L 219.948548 203.257046 
L 219.315648 203.98402 
L 218.703164 204.147839 
L 217.470541 204.893149 
L 216.245893 205.334042 
L 215.607193 205.932862 
L 214.360186 206.324909 
L 213.105986 206.87395 
L 211.871043 207.577939 
L 208.750624 209.751165 
L 207.487377 210.305404 
L 206.248721 210.570726 
L 203.769787 212.238242 
L 201.278135 213.508816 
L 200.661012 213.70643 
L 200.047832 214.174293 
L 198.171173 215.081242 
L 196.898645 215.784042 
L 196.285698 216.133263 
L 195.667646 216.277481 
L 193.207967 217.366944 
L 191.95864 218.389487 
L 190.725553 218.587606 
L 189.476225 219.296274 
L 188.863626 219.541089 
L 187.61743 220.541013 
L 186.362535 220.773091 
L 185.741315 220.792638 
L 184.498715 221.694467 
L 183.882984 222.213786 
L 182.636672 222.598112 
L 181.395929 222.78077 
L 179.487486 224.096749 
L 176.993007 225.039749 
L 176.361267 225.567665 
L 175.132588 225.973277 
L 173.292121 226.769667 
L 172.656669 227.090415 
L 170.754533 227.701801 
L 168.84957 228.502747 
L 166.307067 229.374432 
L 164.425768 230.090418 
L 163.160896 230.894455 
L 157.562239 232.933223 
L 156.33704 233.085278 
L 155.077265 233.566012 
L 153.182742 234.574197 
L 150.711927 235.172535 
L 150.102227 235.573212 
L 149.489512 235.795529 
L 148.8703 235.799561 
L 147.639069 236.06409 
L 147.006865 236.092091 
L 146.382897 236.291347 
L 145.764613 236.80079 
L 145.138674 237.068528 
L 143.917651 237.107578 
L 142.024171 237.754614 
L 141.398116 238.141513 
L 138.898511 238.271938 
L 137.664728 238.644045 
L 137.029044 238.683138 
L 134.519833 239.3243 
L 133.27445 239.407103 
L 131.392918 239.600563 
L 130.764079 239.805657 
L 130.153219 239.840849 
L 128.909228 239.621386 
L 128.293728 239.835579 
L 127.02468 240.028254 
L 123.268158 241.291216 
L 122.643842 241.192088 
L 120.140779 241.275264 
L 118.89818 241.595327 
L 118.271776 241.923301 
L 117.663468 241.886915 
L 116.436645 242.278347 
L 115.199846 242.152241 
L 114.58481 242.366236 
L 113.350795 242.254117 
L 112.101235 242.726172 
L 110.226664 243.235894 
L 108.992743 243.133357 
L 108.373299 243.091308 
L 107.122812 243.417704 
L 106.488288 243.807818 
L 105.238497 244.06128 
L 103.37831 243.892622 
L 102.75933 243.956867 
L 101.522647 244.591566 
L 100.887427 244.625046 
L 100.271231 244.510831 
L 98.4245 244.667886 
L 96.593545 244.922657 
L 93.459056 245.441894 
L 92.220633 245.636635 
L 90.346062 245.72664 
L 89.10903 245.369855 
L 87.837895 245.493547 
L 84.755061 245.526214 
L 83.51594 245.787139 
L 82.888609 245.896438 
L 81.642761 245.702183 
L 79.796726 245.175514 
L 79.182025 244.923303 
L 78.545645 244.798587 
L 77.920865 244.869057 
L 77.29365 245.176332 
L 75.438335 244.659371 
L 74.814483 244.416843 
L 74.202695 243.977818 
L 73.58128 244.129329 
L 72.965664 244.087919 
L 72.335548 243.72692 
L 71.720976 242.876792 
L 70.487077 240.851215 
L 69.871345 240.087722 
L 69.476537 240.354718 
L 69.218182 241.293221 
L 69.218789 241.291033 
" clip-path="url(#p2b1e4e1f54)" style="fill: none; stroke: #ff0000; stroke-width: 1.5; stroke-linecap: square"/>
   </g>
   <g id="line2d_16">
    <path d="M 69.351421 241.07953 
L 69.351298 240.683376 
L 69.352667 241.081281 
L 69.351604 240.750218 
L 69.782295 233.086139 
L 70.446326 226.718046 
L 71.125626 226.968988 
L 72.44757 229.662279 
L 73.167702 230.858213 
L 73.812666 231.628839 
L 74.492894 246.24 
L 75.207458 246.188056 
L 75.950791 245.689343 
L 77.850418 243.122133 
L 78.517654 242.663659 
L 79.19881 242.45003 
L 80.59453 241.546738 
L 81.302598 241.548689 
L 82.713167 242.403206 
L 84.749212 244.558538 
L 85.390463 244.54354 
L 86.014083 243.917772 
L 87.5091 241.493713 
L 88.948437 239.126231 
L 89.659289 238.216111 
L 91.078209 236.997741 
L 92.505482 236.144199 
L 93.947602 235.673288 
L 96.87082 235.125436 
L 98.34542 234.950399 
L 99.084113 234.940949 
L 101.303902 234.431384 
L 103.530187 233.624177 
L 105.020564 233.119856 
L 106.520221 232.590172 
L 108.78177 231.990497 
L 109.538095 231.844907 
L 111.809852 231.72439 
L 115.576627 230.878164 
L 117.821472 230.109977 
L 120.062605 228.940136 
L 122.306523 228.233891 
L 127.57017 226.096622 
L 129.083747 225.62376 
L 129.841928 225.358918 
L 131.360141 225.120841 
L 135.155683 223.953074 
L 139.558142 221.925546 
L 142.003436 220.832037 
L 144.464007 220.05518 
L 151.261647 217.827679 
L 153.10745 217.070709 
L 155.558312 216.213753 
L 157.53682 215.236326 
L 159.051325 214.191102 
L 162.077551 212.460607 
L 164.20454 211.234433 
L 165.425795 210.706456 
L 168.491925 209.590023 
L 173.404786 207.082561 
L 174.637178 206.506542 
L 176.488549 205.459855 
L 178.342704 204.558515 
L 185.749116 200.396644 
L 188.833806 198.727116 
L 190.067125 198.023797 
L 191.91108 197.233417 
L 194.968858 195.450734 
L 198.165837 193.423693 
L 200.442234 191.96877 
L 202.717704 190.617247 
L 204.985749 189.442285 
L 209.497712 186.266134 
L 212.503522 184.450284 
L 217.755105 181.357048 
L 219.250122 180.152822 
L 221.488399 178.598057 
L 222.235443 178.018136 
L 223.726748 177.109967 
L 227.463826 174.113303 
L 235.004799 168.816465 
L 238.029169 166.914286 
L 241.050755 164.495592 
L 243.318801 162.834355 
L 244.832378 161.561358 
L 248.18155 158.930498 
L 249.407445 158.114511 
L 252.483783 156.065523 
L 255.555481 154.286741 
L 262.688132 148.654339 
L 265.712502 145.82058 
L 267.690081 144.008144 
L 268.915049 142.89854 
L 270.145584 142.044998 
L 272.611295 140.574467 
L 275.071437 138.620099 
L 277.518588 136.526726 
L 279.347687 134.962062 
L 282.84534 131.713725 
L 284.366341 130.523643 
L 286.955476 127.940581 
L 288.179515 126.931938 
L 290.021606 125.648211 
L 291.253069 124.706389 
L 293.715068 123.013937 
L 296.167787 121.022013 
L 300.447763 116.775878 
L 302.902337 114.532282 
L 306.599511 110.955202 
L 309.078214 108.626739 
L 310.318957 107.585418 
L 311.560629 106.419723 
L 315.269867 103.495732 
L 319.372579 99.564561 
L 321.624848 97.454605 
L 323.115225 95.964077 
L 333.501463 85.015328 
L 336.499849 82.068413 
L 338.006002 80.506675 
L 342.540237 76.413575 
L 344.050102 74.88793 
L 345.559967 73.413984 
L 349.339733 69.204803 
L 352.836458 65.393629 
L 355.274328 62.410065 
L 357.716839 59.859521 
L 359.085647 58.297783 
L 359.841972 57.590563 
L 361.334204 56.473032 
L 363.496457 54.194075 
L 364.859697 52.64453 
L 366.142201 51.082549 
L 368.197269 49.168968 
L 370.172471 46.887559 
L 371.431774 45.59865 
L 372.074418 44.899477 
L 372.693282 44.64 
L 373.319744 44.986294 
L 373.581818 46.575117 
L 373.441515 69.066986 
L 373.438238 68.645276 
L 373.440442 74.760721 
L 373.434613 73.619368 
L 372.817838 74.827892 
L 372.20257 77.675918 
L 371.567466 79.319916 
L 370.947559 78.279326 
L 370.297955 77.86042 
L 369.659487 77.917196 
L 369.005011 78.177282 
L 368.347983 78.130917 
L 367.716011 78.746793 
L 367.07824 78.714755 
L 365.84028 82.624465 
L 365.192996 83.688466 
L 364.547801 84.496649 
L 363.910493 84.420257 
L 363.265529 83.7801 
L 362.650261 83.987145 
L 362.005529 85.008225 
L 361.385622 85.639236 
L 360.763278 86.465953 
L 359.543415 89.734531 
L 358.932555 90.154474 
L 353.975962 95.025791 
L 353.33877 96.091011 
L 352.728142 96.705805 
L 352.107423 97.793462 
L 350.850207 98.939281 
L 350.228443 98.975693 
L 348.984916 99.970649 
L 347.757513 101.631032 
L 347.127977 102.870863 
L 346.494613 103.533334 
L 345.855681 103.963183 
L 345.234614 104.560175 
L 343.367467 106.991916 
L 340.880412 109.446337 
L 340.261896 110.367919 
L 339.646629 111.069043 
L 339.032985 111.469476 
L 337.187385 113.195574 
L 334.714946 115.806925 
L 334.088427 116.30704 
L 331.58606 119.534038 
L 330.334412 120.152338 
L 329.077777 121.462037 
L 327.218982 123.896705 
L 325.366451 124.853587 
L 324.738771 125.46143 
L 323.482367 127.262282 
L 322.248323 128.294496 
L 321.624471 128.503782 
L 321.004796 128.883059 
L 320.388136 129.470906 
L 319.768924 130.295184 
L 317.911521 132.152857 
L 317.273286 132.653642 
L 316.637602 132.918027 
L 314.776255 134.971039 
L 312.29732 136.633861 
L 310.418109 138.770643 
L 308.573698 140.36262 
L 307.30088 141.69753 
L 306.037169 142.846153 
L 304.784593 143.794926 
L 303.54153 144.986593 
L 300.422503 147.680859 
L 299.787284 148.06919 
L 298.567652 149.255614 
L 297.930577 149.991733 
L 296.707929 150.927276 
L 296.090806 151.094555 
L 294.843798 151.942 
L 293.591223 153.596896 
L 292.954147 154.271316 
L 291.725482 154.721392 
L 291.089567 155.17822 
L 289.832815 156.571445 
L 288.599264 157.24873 
L 287.980748 157.397452 
L 287.342744 157.811908 
L 285.453093 159.852239 
L 284.822049 160.456059 
L 283.560774 161.265644 
L 281.055159 163.222092 
L 278.556504 164.90693 
L 277.944136 165.739621 
L 276.071711 167.259361 
L 274.830968 167.817394 
L 272.319785 170.354365 
L 271.705677 170.649782 
L 270.466326 171.065259 
L 269.852218 171.480934 
L 268.577835 172.64547 
L 264.790412 175.344644 
L 263.534821 176.057657 
L 262.288292 177.008819 
L 261.046737 178.190974 
L 260.438429 178.678347 
L 259.205806 179.215899 
L 256.691375 181.039675 
L 254.829796 181.811608 
L 253.561908 182.828908 
L 252.93272 183.408342 
L 248.598703 185.8695 
L 247.328263 186.831746 
L 246.718491 187.220916 
L 246.106471 187.396364 
L 244.203828 188.783919 
L 242.946148 189.721291 
L 241.684757 190.289788 
L 241.061833 190.535097 
L 239.808098 191.831018 
L 237.934223 192.687487 
L 236.690927 193.149116 
L 235.451112 194.526367 
L 234.84002 194.897475 
L 234.216169 195.140704 
L 233.589765 195.537418 
L 232.358998 196.05186 
L 231.116398 197.102261 
L 229.874263 197.747417 
L 228.642799 198.178227 
L 228.019296 198.634019 
L 227.399504 199.251495 
L 225.545813 200.350404 
L 224.931473 200.48643 
L 224.301706 200.798639 
L 223.06247 201.9269 
L 221.833791 202.590803 
L 220.586088 202.790585 
L 219.948548 203.257046 
L 219.315648 203.98402 
L 218.703164 204.147839 
L 217.470541 204.893149 
L 216.245893 205.334042 
L 215.607193 205.932862 
L 214.360186 206.324909 
L 213.105986 206.87395 
L 211.871043 207.577939 
L 208.750624 209.751165 
L 207.487377 210.305404 
L 206.248721 210.570726 
L 203.769787 212.238242 
L 201.278135 213.508816 
L 200.661012 213.70643 
L 200.047832 214.174293 
L 198.171173 215.081242 
L 196.898645 215.784042 
L 196.285698 216.133263 
L 195.667646 216.277481 
L 193.207967 217.366944 
L 191.95864 218.389487 
L 190.725553 218.587606 
L 189.476225 219.296274 
L 188.863626 219.541089 
L 187.61743 220.541013 
L 186.362535 220.773091 
L 185.741315 220.792638 
L 184.498715 221.694467 
L 183.882984 222.213786 
L 182.636672 222.598112 
L 181.395929 222.78077 
L 179.487486 224.096749 
L 176.993007 225.039749 
L 176.361267 225.567665 
L 175.132588 225.973277 
L 173.292121 226.769667 
L 172.656669 227.090415 
L 170.754533 227.701801 
L 168.84957 228.502747 
L 166.307067 229.374432 
L 164.425768 230.090418 
L 163.160896 230.894455 
L 157.562239 232.933223 
L 156.33704 233.085278 
L 155.077265 233.566012 
L 153.182742 234.574197 
L 150.711927 235.172535 
L 150.102227 235.573212 
L 149.489512 235.795529 
L 148.8703 235.799561 
L 147.639069 236.06409 
L 147.006865 236.092091 
L 146.382897 236.291347 
L 145.764613 236.80079 
L 145.138674 237.068528 
L 143.917651 237.107578 
L 142.024171 237.754614 
L 141.398116 238.141513 
L 138.898511 238.271938 
L 137.664728 238.644045 
L 137.029044 238.683138 
L 134.519833 239.3243 
L 133.27445 239.407103 
L 131.392918 239.600563 
L 130.764079 239.805657 
L 130.153219 239.840849 
L 128.909228 239.621386 
L 128.293728 239.835579 
L 127.02468 240.028254 
L 123.268158 241.291216 
L 122.643842 241.192088 
L 120.140779 241.275264 
L 118.89818 241.595327 
L 118.271776 241.923301 
L 117.663468 241.886915 
L 116.436645 242.278347 
L 115.199846 242.152241 
L 114.58481 242.366236 
L 113.350795 242.254117 
L 112.101235 242.726172 
L 110.226664 243.235894 
L 108.992743 243.133357 
L 108.373299 243.091308 
L 107.122812 243.417704 
L 106.488288 243.807818 
L 105.238497 244.06128 
L 103.37831 243.892622 
L 102.75933 243.956867 
L 101.522647 244.591566 
L 100.887427 244.625046 
L 100.271231 244.510831 
L 98.4245 244.667886 
L 96.593545 244.922657 
L 93.459056 245.441894 
L 92.220633 245.636635 
L 90.346062 245.72664 
L 89.10903 245.369855 
L 87.837895 245.493547 
L 84.755061 245.526214 
L 83.51594 245.787139 
L 82.888609 245.896438 
L 81.642761 245.702183 
L 79.796726 245.175514 
L 79.182025 244.923303 
L 78.545645 244.798587 
L 77.920865 244.869057 
L 77.29365 245.176332 
L 75.438335 244.659371 
L 74.814483 244.416843 
L 74.202695 243.977818 
L 73.58128 244.129329 
L 72.965664 244.087919 
L 72.335548 243.72692 
L 71.720976 242.876792 
L 70.487077 240.851215 
L 69.871345 240.087722 
L 69.476537 240.354718 
L 69.218182 241.293221 
L 69.218789 241.291033 
" clip-path="url(#p2b1e4e1f54)" style="fill: none; stroke: #000000; stroke-width: 1.5; stroke-linecap: square"/>
   </g>
   <g id="patch_3">
    <path d="M 54 256.32 
L 54 34.56 
" style="fill: none; stroke: #000000; stroke-width: 0.8; stroke-linejoin: miter; stroke-linecap: square"/>
   </g>
   <g id="patch_4">
    <path d="M 388.8 256.32 
L 388.8 34.56 
" style="fill: none; stroke: #000000; stroke-width: 0.8; stroke-linejoin: miter; stroke-linecap: square"/>
   </g>
   <g id="patch_5">
    <path d="M 54 256.32 
L 388.8 256.32 
" style="fill: none; stroke: #000000; stroke-width: 0.8; stroke-linejoin: miter; stroke-linecap: square"/>
   </g>
   <g id="patch_6">
    <path d="M 54 34.56 
L 388.8 34.56 
" style="fill: none; stroke: #000000; stroke-width: 0.8; stroke-linejoin: miter; stroke-linecap: square"/>
   </g>
   <g id="text_17">
    <!-- 2025-06-20 trial 7 -->
    <g transform="translate(167.07 28.56) scale(0.12 -0.12)">
     <defs>
      <path id="DejaVuSans-2d" d="M 313 2009 
L 1997 2009 
L 1997 1497 
L 313 1497 
L 313 2009 
z
" transform="scale(0.015625)"/>
      <path id="DejaVuSans-6c" d="M 603 4863 
L 1178 4863 
L 1178 0 
L 603 0 
L 603 4863 
z
" transform="scale(0.015625)"/>
     </defs>
     <use xlink:href="#DejaVuSans-32"/>
     <use xlink:href="#DejaVuSans-30" x="63.623047"/>
     <use xlink:href="#DejaVuSans-32" x="127.246094"/>
     <use xlink:href="#DejaVuSans-35" x="190.869141"/>
     <use xlink:href="#DejaVuSans-2d" x="254.492188"/>
     <use xlink:href="#DejaVuSans-30" x="290.576172"/>
     <use xlink:href="#DejaVuSans-36" x="354.199219"/>
     <use xlink:href="#DejaVuSans-2d" x="417.822266"/>
     <use xlink:href="#DejaVuSans-32" x="453.90625"/>
     <use xlink:href="#DejaVuSans-30" x="517.529297"/>
     <use xlink:href="#DejaVuSans-20" x="581.152344"/>
     <use xlink:href="#DejaVuSans-74" x="612.939453"/>
     <use xlink:href="#DejaVuSans-72" x="652.148438"/>
     <use xlink:href="#DejaVuSans-69" x="693.261719"/>
     <use xlink:href="#DejaVuSans-61" x="721.044922"/>
     <use xlink:href="#DejaVuSans-6c" x="782.324219"/>
     <use xlink:href="#DejaVuSans-20" x="810.107422"/>
     <use xlink:href="#DejaVuSans-37" x="841.894531"/>
    </g>
   </g>
  </g>
 </g>
 <defs>
  <clipPath id="p2b1e4e1f54">
   <rect x="54" y="34.56" width="334.8" height="221.76"/>
  </clipPath>
 </defs>
</svg>
