<?xml version="1.0" encoding="utf-8" standalone="no"?>
<!DOCTYPE svg PUBLIC "-//W3C//DTD SVG 1.1//EN"
  "http://www.w3.org/Graphics/SVG/1.1/DTD/svg11.dtd">
<svg xmlns:xlink="http://www.w3.org/1999/xlink" width="460.8pt" height="345.6pt" viewBox="0 0 460.8 345.6" xmlns="http://www.w3.org/2000/svg" version="1.1">
 <metadata>
  <rdf:RDF xmlns:dc="http://purl.org/dc/elements/1.1/" xmlns:cc="http://creativecommons.org/ns#" xmlns:rdf="http://www.w3.org/1999/02/22-rdf-syntax-ns#">
   <cc:Work>
    <dc:type rdf:resource="http://purl.org/dc/dcmitype/StillImage"/>
    <dc:date>2025-07-28T21:15:05.168583</dc:date>
    <dc:format>image/svg+xml</dc:format>
    <dc:creator>
     <cc:Agent>
      <dc:title>Matplotlib v3.10.3, https://matplotlib.org/</dc:title>
     </cc:Agent>
    </dc:creator>
   </cc:Work>
  </rdf:RDF>
 </metadata>
 <defs>
  <style type="text/css">*{stroke-linejoin: round; stroke-linecap: butt}</style>
 </defs>
 <g id="figure_1">
  <g id="patch_1">
   <path d="M 0 345.6 
L 460.8 345.6 
L 460.8 0 
L 0 0 
z
" style="fill: #ffffff"/>
  </g>
  <g id="axes_1">
   <g id="patch_2">
    <path d="M 57.17 303.64 
L 450 303.64 
L 450 26.88 
L 57.17 26.88 
z
" style="fill: #ffffff"/>
   </g>
   <g id="matplotlib.axis_1">
    <g id="xtick_1">
     <g id="line2d_1">
      <path d="M 75.140782 303.64 
L 75.140782 26.88 
" clip-path="url(#p2e1f0903c4)" style="fill: none; stroke: #b0b0b0; stroke-opacity: 0.3; stroke-width: 0.8; stroke-linecap: square"/>
     </g>
     <g id="line2d_2">
      <defs>
       <path id="m0927c45907" d="M 0 0 
L 0 3.5 
" style="stroke: #000000; stroke-width: 0.8"/>
      </defs>
      <g>
       <use xlink:href="#m0927c45907" x="75.140782" y="303.64" style="stroke: #000000; stroke-width: 0.8"/>
      </g>
     </g>
     <g id="text_1">
      <!-- 0.00 -->
      <g transform="translate(64.007969 318.238437) scale(0.1 -0.1)">
       <defs>
        <path id="DejaVuSans-30" d="M 2034 4250 
Q 1547 4250 1301 3770 
Q 1056 3291 1056 2328 
Q 1056 1369 1301 889 
Q 1547 409 2034 409 
Q 2525 409 2770 889 
Q 3016 1369 3016 2328 
Q 3016 3291 2770 3770 
Q 2525 4250 2034 4250 
z
M 2034 4750 
Q 2819 4750 3233 4129 
Q 3647 3509 3647 2328 
Q 3647 1150 3233 529 
Q 2819 -91 2034 -91 
Q 1250 -91 836 529 
Q 422 1150 422 2328 
Q 422 3509 836 4129 
Q 1250 4750 2034 4750 
z
" transform="scale(0.015625)"/>
        <path id="DejaVuSans-2e" d="M 684 794 
L 1344 794 
L 1344 0 
L 684 0 
L 684 794 
z
" transform="scale(0.015625)"/>
       </defs>
       <use xlink:href="#DejaVuSans-30"/>
       <use xlink:href="#DejaVuSans-2e" transform="translate(63.623047 0)"/>
       <use xlink:href="#DejaVuSans-30" transform="translate(95.410156 0)"/>
       <use xlink:href="#DejaVuSans-30" transform="translate(159.033203 0)"/>
      </g>
     </g>
    </g>
    <g id="xtick_2">
     <g id="line2d_3">
      <path d="M 146.507569 303.64 
L 146.507569 26.88 
" clip-path="url(#p2e1f0903c4)" style="fill: none; stroke: #b0b0b0; stroke-opacity: 0.3; stroke-width: 0.8; stroke-linecap: square"/>
     </g>
     <g id="line2d_4">
      <g>
       <use xlink:href="#m0927c45907" x="146.507569" y="303.64" style="stroke: #000000; stroke-width: 0.8"/>
      </g>
     </g>
     <g id="text_2">
      <!-- 0.05 -->
      <g transform="translate(135.374756 318.238437) scale(0.1 -0.1)">
       <defs>
        <path id="DejaVuSans-35" d="M 691 4666 
L 3169 4666 
L 3169 4134 
L 1269 4134 
L 1269 2991 
Q 1406 3038 1543 3061 
Q 1681 3084 1819 3084 
Q 2600 3084 3056 2656 
Q 3513 2228 3513 1497 
Q 3513 744 3044 326 
Q 2575 -91 1722 -91 
Q 1428 -91 1123 -41 
Q 819 9 494 109 
L 494 744 
Q 775 591 1075 516 
Q 1375 441 1709 441 
Q 2250 441 2565 725 
Q 2881 1009 2881 1497 
Q 2881 1984 2565 2268 
Q 2250 2553 1709 2553 
Q 1456 2553 1204 2497 
Q 953 2441 691 2322 
L 691 4666 
z
" transform="scale(0.015625)"/>
       </defs>
       <use xlink:href="#DejaVuSans-30"/>
       <use xlink:href="#DejaVuSans-2e" transform="translate(63.623047 0)"/>
       <use xlink:href="#DejaVuSans-30" transform="translate(95.410156 0)"/>
       <use xlink:href="#DejaVuSans-35" transform="translate(159.033203 0)"/>
      </g>
     </g>
    </g>
    <g id="xtick_3">
     <g id="line2d_5">
      <path d="M 217.874356 303.64 
L 217.874356 26.88 
" clip-path="url(#p2e1f0903c4)" style="fill: none; stroke: #b0b0b0; stroke-opacity: 0.3; stroke-width: 0.8; stroke-linecap: square"/>
     </g>
     <g id="line2d_6">
      <g>
       <use xlink:href="#m0927c45907" x="217.874356" y="303.64" style="stroke: #000000; stroke-width: 0.8"/>
      </g>
     </g>
     <g id="text_3">
      <!-- 0.10 -->
      <g transform="translate(206.741544 318.238437) scale(0.1 -0.1)">
       <defs>
        <path id="DejaVuSans-31" d="M 794 531 
L 1825 531 
L 1825 4091 
L 703 3866 
L 703 4441 
L 1819 4666 
L 2450 4666 
L 2450 531 
L 3481 531 
L 3481 0 
L 794 0 
L 794 531 
z
" transform="scale(0.015625)"/>
       </defs>
       <use xlink:href="#DejaVuSans-30"/>
       <use xlink:href="#DejaVuSans-2e" transform="translate(63.623047 0)"/>
       <use xlink:href="#DejaVuSans-31" transform="translate(95.410156 0)"/>
       <use xlink:href="#DejaVuSans-30" transform="translate(159.033203 0)"/>
      </g>
     </g>
    </g>
    <g id="xtick_4">
     <g id="line2d_7">
      <path d="M 289.241143 303.64 
L 289.241143 26.88 
" clip-path="url(#p2e1f0903c4)" style="fill: none; stroke: #b0b0b0; stroke-opacity: 0.3; stroke-width: 0.8; stroke-linecap: square"/>
     </g>
     <g id="line2d_8">
      <g>
       <use xlink:href="#m0927c45907" x="289.241143" y="303.64" style="stroke: #000000; stroke-width: 0.8"/>
      </g>
     </g>
     <g id="text_4">
      <!-- 0.15 -->
      <g transform="translate(278.108331 318.238437) scale(0.1 -0.1)">
       <use xlink:href="#DejaVuSans-30"/>
       <use xlink:href="#DejaVuSans-2e" transform="translate(63.623047 0)"/>
       <use xlink:href="#DejaVuSans-31" transform="translate(95.410156 0)"/>
       <use xlink:href="#DejaVuSans-35" transform="translate(159.033203 0)"/>
      </g>
     </g>
    </g>
    <g id="xtick_5">
     <g id="line2d_9">
      <path d="M 360.60793 303.64 
L 360.60793 26.88 
" clip-path="url(#p2e1f0903c4)" style="fill: none; stroke: #b0b0b0; stroke-opacity: 0.3; stroke-width: 0.8; stroke-linecap: square"/>
     </g>
     <g id="line2d_10">
      <g>
       <use xlink:href="#m0927c45907" x="360.60793" y="303.64" style="stroke: #000000; stroke-width: 0.8"/>
      </g>
     </g>
     <g id="text_5">
      <!-- 0.20 -->
      <g transform="translate(349.475118 318.238437) scale(0.1 -0.1)">
       <defs>
        <path id="DejaVuSans-32" d="M 1228 531 
L 3431 531 
L 3431 0 
L 469 0 
L 469 531 
Q 828 903 1448 1529 
Q 2069 2156 2228 2338 
Q 2531 2678 2651 2914 
Q 2772 3150 2772 3378 
Q 2772 3750 2511 3984 
Q 2250 4219 1831 4219 
Q 1534 4219 1204 4116 
Q 875 4013 500 3803 
L 500 4441 
Q 881 4594 1212 4672 
Q 1544 4750 1819 4750 
Q 2544 4750 2975 4387 
Q 3406 4025 3406 3419 
Q 3406 3131 3298 2873 
Q 3191 2616 2906 2266 
Q 2828 2175 2409 1742 
Q 1991 1309 1228 531 
z
" transform="scale(0.015625)"/>
       </defs>
       <use xlink:href="#DejaVuSans-30"/>
       <use xlink:href="#DejaVuSans-2e" transform="translate(63.623047 0)"/>
       <use xlink:href="#DejaVuSans-32" transform="translate(95.410156 0)"/>
       <use xlink:href="#DejaVuSans-30" transform="translate(159.033203 0)"/>
      </g>
     </g>
    </g>
    <g id="xtick_6">
     <g id="line2d_11">
      <path d="M 431.974717 303.64 
L 431.974717 26.88 
" clip-path="url(#p2e1f0903c4)" style="fill: none; stroke: #b0b0b0; stroke-opacity: 0.3; stroke-width: 0.8; stroke-linecap: square"/>
     </g>
     <g id="line2d_12">
      <g>
       <use xlink:href="#m0927c45907" x="431.974717" y="303.64" style="stroke: #000000; stroke-width: 0.8"/>
      </g>
     </g>
     <g id="text_6">
      <!-- 0.25 -->
      <g transform="translate(420.841905 318.238437) scale(0.1 -0.1)">
       <use xlink:href="#DejaVuSans-30"/>
       <use xlink:href="#DejaVuSans-2e" transform="translate(63.623047 0)"/>
       <use xlink:href="#DejaVuSans-32" transform="translate(95.410156 0)"/>
       <use xlink:href="#DejaVuSans-35" transform="translate(159.033203 0)"/>
      </g>
     </g>
    </g>
    <g id="text_7">
     <!-- Strain [-] -->
     <g transform="translate(231.47875 331.916562) scale(0.1 -0.1)">
      <defs>
       <path id="DejaVuSans-53" d="M 3425 4513 
L 3425 3897 
Q 3066 4069 2747 4153 
Q 2428 4238 2131 4238 
Q 1616 4238 1336 4038 
Q 1056 3838 1056 3469 
Q 1056 3159 1242 3001 
Q 1428 2844 1947 2747 
L 2328 2669 
Q 3034 2534 3370 2195 
Q 3706 1856 3706 1288 
Q 3706 609 3251 259 
Q 2797 -91 1919 -91 
Q 1588 -91 1214 -16 
Q 841 59 441 206 
L 441 856 
Q 825 641 1194 531 
Q 1563 422 1919 422 
Q 2459 422 2753 634 
Q 3047 847 3047 1241 
Q 3047 1584 2836 1778 
Q 2625 1972 2144 2069 
L 1759 2144 
Q 1053 2284 737 2584 
Q 422 2884 422 3419 
Q 422 4038 858 4394 
Q 1294 4750 2059 4750 
Q 2388 4750 2728 4690 
Q 3069 4631 3425 4513 
z
" transform="scale(0.015625)"/>
       <path id="DejaVuSans-74" d="M 1172 4494 
L 1172 3500 
L 2356 3500 
L 2356 3053 
L 1172 3053 
L 1172 1153 
Q 1172 725 1289 603 
Q 1406 481 1766 481 
L 2356 481 
L 2356 0 
L 1766 0 
Q 1100 0 847 248 
Q 594 497 594 1153 
L 594 3053 
L 172 3053 
L 172 3500 
L 594 3500 
L 594 4494 
L 1172 4494 
z
" transform="scale(0.015625)"/>
       <path id="DejaVuSans-72" d="M 2631 2963 
Q 2534 3019 2420 3045 
Q 2306 3072 2169 3072 
Q 1681 3072 1420 2755 
Q 1159 2438 1159 1844 
L 1159 0 
L 581 0 
L 581 3500 
L 1159 3500 
L 1159 2956 
Q 1341 3275 1631 3429 
Q 1922 3584 2338 3584 
Q 2397 3584 2469 3576 
Q 2541 3569 2628 3553 
L 2631 2963 
z
" transform="scale(0.015625)"/>
       <path id="DejaVuSans-61" d="M 2194 1759 
Q 1497 1759 1228 1600 
Q 959 1441 959 1056 
Q 959 750 1161 570 
Q 1363 391 1709 391 
Q 2188 391 2477 730 
Q 2766 1069 2766 1631 
L 2766 1759 
L 2194 1759 
z
M 3341 1997 
L 3341 0 
L 2766 0 
L 2766 531 
Q 2569 213 2275 61 
Q 1981 -91 1556 -91 
Q 1019 -91 701 211 
Q 384 513 384 1019 
Q 384 1609 779 1909 
Q 1175 2209 1959 2209 
L 2766 2209 
L 2766 2266 
Q 2766 2663 2505 2880 
Q 2244 3097 1772 3097 
Q 1472 3097 1187 3025 
Q 903 2953 641 2809 
L 641 3341 
Q 956 3463 1253 3523 
Q 1550 3584 1831 3584 
Q 2591 3584 2966 3190 
Q 3341 2797 3341 1997 
z
" transform="scale(0.015625)"/>
       <path id="DejaVuSans-69" d="M 603 3500 
L 1178 3500 
L 1178 0 
L 603 0 
L 603 3500 
z
M 603 4863 
L 1178 4863 
L 1178 4134 
L 603 4134 
L 603 4863 
z
" transform="scale(0.015625)"/>
       <path id="DejaVuSans-6e" d="M 3513 2113 
L 3513 0 
L 2938 0 
L 2938 2094 
Q 2938 2591 2744 2837 
Q 2550 3084 2163 3084 
Q 1697 3084 1428 2787 
Q 1159 2491 1159 1978 
L 1159 0 
L 581 0 
L 581 3500 
L 1159 3500 
L 1159 2956 
Q 1366 3272 1645 3428 
Q 1925 3584 2291 3584 
Q 2894 3584 3203 3211 
Q 3513 2838 3513 2113 
z
" transform="scale(0.015625)"/>
       <path id="DejaVuSans-20" transform="scale(0.015625)"/>
       <path id="DejaVuSans-5b" d="M 550 4863 
L 1875 4863 
L 1875 4416 
L 1125 4416 
L 1125 -397 
L 1875 -397 
L 1875 -844 
L 550 -844 
L 550 4863 
z
" transform="scale(0.015625)"/>
       <path id="DejaVuSans-2d" d="M 313 2009 
L 1997 2009 
L 1997 1497 
L 313 1497 
L 313 2009 
z
" transform="scale(0.015625)"/>
       <path id="DejaVuSans-5d" d="M 1947 4863 
L 1947 -844 
L 622 -844 
L 622 -397 
L 1369 -397 
L 1369 4416 
L 622 4416 
L 622 4863 
L 1947 4863 
z
" transform="scale(0.015625)"/>
      </defs>
      <use xlink:href="#DejaVuSans-53"/>
      <use xlink:href="#DejaVuSans-74" transform="translate(63.476562 0)"/>
      <use xlink:href="#DejaVuSans-72" transform="translate(102.685547 0)"/>
      <use xlink:href="#DejaVuSans-61" transform="translate(143.798828 0)"/>
      <use xlink:href="#DejaVuSans-69" transform="translate(205.078125 0)"/>
      <use xlink:href="#DejaVuSans-6e" transform="translate(232.861328 0)"/>
      <use xlink:href="#DejaVuSans-20" transform="translate(296.240234 0)"/>
      <use xlink:href="#DejaVuSans-5b" transform="translate(328.027344 0)"/>
      <use xlink:href="#DejaVuSans-2d" transform="translate(367.041016 0)"/>
      <use xlink:href="#DejaVuSans-5d" transform="translate(403.125 0)"/>
     </g>
    </g>
   </g>
   <g id="matplotlib.axis_2">
    <g id="ytick_1">
     <g id="line2d_13">
      <path d="M 57.17 278.492866 
L 450 278.492866 
" clip-path="url(#p2e1f0903c4)" style="fill: none; stroke: #b0b0b0; stroke-opacity: 0.3; stroke-width: 0.8; stroke-linecap: square"/>
     </g>
     <g id="line2d_14">
      <defs>
       <path id="meebdb2c033" d="M 0 0 
L -3.5 0 
" style="stroke: #000000; stroke-width: 0.8"/>
      </defs>
      <g>
       <use xlink:href="#meebdb2c033" x="57.17" y="278.492866" style="stroke: #000000; stroke-width: 0.8"/>
      </g>
     </g>
     <g id="text_8">
      <!-- 0 -->
      <g transform="translate(43.8075 282.292085) scale(0.1 -0.1)">
       <use xlink:href="#DejaVuSans-30"/>
      </g>
     </g>
    </g>
    <g id="ytick_2">
     <g id="line2d_15">
      <path d="M 57.17 232.402785 
L 450 232.402785 
" clip-path="url(#p2e1f0903c4)" style="fill: none; stroke: #b0b0b0; stroke-opacity: 0.3; stroke-width: 0.8; stroke-linecap: square"/>
     </g>
     <g id="line2d_16">
      <g>
       <use xlink:href="#meebdb2c033" x="57.17" y="232.402785" style="stroke: #000000; stroke-width: 0.8"/>
      </g>
     </g>
     <g id="text_9">
      <!-- 500 -->
      <g transform="translate(31.0825 236.202004) scale(0.1 -0.1)">
       <use xlink:href="#DejaVuSans-35"/>
       <use xlink:href="#DejaVuSans-30" transform="translate(63.623047 0)"/>
       <use xlink:href="#DejaVuSans-30" transform="translate(127.246094 0)"/>
      </g>
     </g>
    </g>
    <g id="ytick_3">
     <g id="line2d_17">
      <path d="M 57.17 186.312704 
L 450 186.312704 
" clip-path="url(#p2e1f0903c4)" style="fill: none; stroke: #b0b0b0; stroke-opacity: 0.3; stroke-width: 0.8; stroke-linecap: square"/>
     </g>
     <g id="line2d_18">
      <g>
       <use xlink:href="#meebdb2c033" x="57.17" y="186.312704" style="stroke: #000000; stroke-width: 0.8"/>
      </g>
     </g>
     <g id="text_10">
      <!-- 1000 -->
      <g transform="translate(24.72 190.111923) scale(0.1 -0.1)">
       <use xlink:href="#DejaVuSans-31"/>
       <use xlink:href="#DejaVuSans-30" transform="translate(63.623047 0)"/>
       <use xlink:href="#DejaVuSans-30" transform="translate(127.246094 0)"/>
       <use xlink:href="#DejaVuSans-30" transform="translate(190.869141 0)"/>
      </g>
     </g>
    </g>
    <g id="ytick_4">
     <g id="line2d_19">
      <path d="M 57.17 140.222623 
L 450 140.222623 
" clip-path="url(#p2e1f0903c4)" style="fill: none; stroke: #b0b0b0; stroke-opacity: 0.3; stroke-width: 0.8; stroke-linecap: square"/>
     </g>
     <g id="line2d_20">
      <g>
       <use xlink:href="#meebdb2c033" x="57.17" y="140.222623" style="stroke: #000000; stroke-width: 0.8"/>
      </g>
     </g>
     <g id="text_11">
      <!-- 1500 -->
      <g transform="translate(24.72 144.021842) scale(0.1 -0.1)">
       <use xlink:href="#DejaVuSans-31"/>
       <use xlink:href="#DejaVuSans-35" transform="translate(63.623047 0)"/>
       <use xlink:href="#DejaVuSans-30" transform="translate(127.246094 0)"/>
       <use xlink:href="#DejaVuSans-30" transform="translate(190.869141 0)"/>
      </g>
     </g>
    </g>
    <g id="ytick_5">
     <g id="line2d_21">
      <path d="M 57.17 94.132542 
L 450 94.132542 
" clip-path="url(#p2e1f0903c4)" style="fill: none; stroke: #b0b0b0; stroke-opacity: 0.3; stroke-width: 0.8; stroke-linecap: square"/>
     </g>
     <g id="line2d_22">
      <g>
       <use xlink:href="#meebdb2c033" x="57.17" y="94.132542" style="stroke: #000000; stroke-width: 0.8"/>
      </g>
     </g>
     <g id="text_12">
      <!-- 2000 -->
      <g transform="translate(24.72 97.931761) scale(0.1 -0.1)">
       <use xlink:href="#DejaVuSans-32"/>
       <use xlink:href="#DejaVuSans-30" transform="translate(63.623047 0)"/>
       <use xlink:href="#DejaVuSans-30" transform="translate(127.246094 0)"/>
       <use xlink:href="#DejaVuSans-30" transform="translate(190.869141 0)"/>
      </g>
     </g>
    </g>
    <g id="ytick_6">
     <g id="line2d_23">
      <path d="M 57.17 48.042461 
L 450 48.042461 
" clip-path="url(#p2e1f0903c4)" style="fill: none; stroke: #b0b0b0; stroke-opacity: 0.3; stroke-width: 0.8; stroke-linecap: square"/>
     </g>
     <g id="line2d_24">
      <g>
       <use xlink:href="#meebdb2c033" x="57.17" y="48.042461" style="stroke: #000000; stroke-width: 0.8"/>
      </g>
     </g>
     <g id="text_13">
      <!-- 2500 -->
      <g transform="translate(24.72 51.84168) scale(0.1 -0.1)">
       <use xlink:href="#DejaVuSans-32"/>
       <use xlink:href="#DejaVuSans-35" transform="translate(63.623047 0)"/>
       <use xlink:href="#DejaVuSans-30" transform="translate(127.246094 0)"/>
       <use xlink:href="#DejaVuSans-30" transform="translate(190.869141 0)"/>
      </g>
     </g>
    </g>
    <g id="text_14">
     <!-- Stress [Pa] -->
     <g transform="translate(18.640312 191.967812) rotate(-90) scale(0.1 -0.1)">
      <defs>
       <path id="DejaVuSans-65" d="M 3597 1894 
L 3597 1613 
L 953 1613 
Q 991 1019 1311 708 
Q 1631 397 2203 397 
Q 2534 397 2845 478 
Q 3156 559 3463 722 
L 3463 178 
Q 3153 47 2828 -22 
Q 2503 -91 2169 -91 
Q 1331 -91 842 396 
Q 353 884 353 1716 
Q 353 2575 817 3079 
Q 1281 3584 2069 3584 
Q 2775 3584 3186 3129 
Q 3597 2675 3597 1894 
z
M 3022 2063 
Q 3016 2534 2758 2815 
Q 2500 3097 2075 3097 
Q 1594 3097 1305 2825 
Q 1016 2553 972 2059 
L 3022 2063 
z
" transform="scale(0.015625)"/>
       <path id="DejaVuSans-73" d="M 2834 3397 
L 2834 2853 
Q 2591 2978 2328 3040 
Q 2066 3103 1784 3103 
Q 1356 3103 1142 2972 
Q 928 2841 928 2578 
Q 928 2378 1081 2264 
Q 1234 2150 1697 2047 
L 1894 2003 
Q 2506 1872 2764 1633 
Q 3022 1394 3022 966 
Q 3022 478 2636 193 
Q 2250 -91 1575 -91 
Q 1294 -91 989 -36 
Q 684 19 347 128 
L 347 722 
Q 666 556 975 473 
Q 1284 391 1588 391 
Q 1994 391 2212 530 
Q 2431 669 2431 922 
Q 2431 1156 2273 1281 
Q 2116 1406 1581 1522 
L 1381 1569 
Q 847 1681 609 1914 
Q 372 2147 372 2553 
Q 372 3047 722 3315 
Q 1072 3584 1716 3584 
Q 2034 3584 2315 3537 
Q 2597 3491 2834 3397 
z
" transform="scale(0.015625)"/>
       <path id="DejaVuSans-50" d="M 1259 4147 
L 1259 2394 
L 2053 2394 
Q 2494 2394 2734 2622 
Q 2975 2850 2975 3272 
Q 2975 3691 2734 3919 
Q 2494 4147 2053 4147 
L 1259 4147 
z
M 628 4666 
L 2053 4666 
Q 2838 4666 3239 4311 
Q 3641 3956 3641 3272 
Q 3641 2581 3239 2228 
Q 2838 1875 2053 1875 
L 1259 1875 
L 1259 0 
L 628 0 
L 628 4666 
z
" transform="scale(0.015625)"/>
      </defs>
      <use xlink:href="#DejaVuSans-53"/>
      <use xlink:href="#DejaVuSans-74" transform="translate(63.476562 0)"/>
      <use xlink:href="#DejaVuSans-72" transform="translate(102.685547 0)"/>
      <use xlink:href="#DejaVuSans-65" transform="translate(141.548828 0)"/>
      <use xlink:href="#DejaVuSans-73" transform="translate(203.072266 0)"/>
      <use xlink:href="#DejaVuSans-73" transform="translate(255.171875 0)"/>
      <use xlink:href="#DejaVuSans-20" transform="translate(307.271484 0)"/>
      <use xlink:href="#DejaVuSans-5b" transform="translate(339.058594 0)"/>
      <use xlink:href="#DejaVuSans-50" transform="translate(378.072266 0)"/>
      <use xlink:href="#DejaVuSans-61" transform="translate(433.875 0)"/>
      <use xlink:href="#DejaVuSans-5d" transform="translate(495.154297 0)"/>
     </g>
    </g>
   </g>
   <g id="line2d_25">
    <path d="M 75.140782 278.762136 
L 75.140893 278.845644 
L 75.142552 278.66315 
L 75.18626 278.743722 
L 75.698533 278.242718 
L 76.740931 276.868232 
L 77.285806 277.118861 
L 79.387519 277.556992 
L 79.925198 277.51565 
L 80.471239 277.842137 
L 80.991223 277.299261 
L 81.510429 276.495345 
L 82.039163 276.07104 
L 82.556618 275.842273 
L 83.095853 275.413984 
L 83.625754 275.417913 
L 84.681861 275.762691 
L 85.193872 275.860074 
L 86.245798 275.480196 
L 87.271667 273.890484 
L 87.787956 273.751449 
L 89.866696 273.683473 
L 91.956547 272.617245 
L 93.014891 272.127015 
L 93.546542 271.824405 
L 95.135661 271.49909 
L 96.171739 271.225701 
L 97.199844 270.512145 
L 98.24652 270.013657 
L 100.319843 269.557251 
L 101.905073 268.834222 
L 102.432306 268.569004 
L 103.476357 268.267535 
L 106.587313 266.985268 
L 108.15018 266.339434 
L 109.720826 265.926678 
L 111.80533 264.84556 
L 113.901016 264.027009 
L 114.430333 263.722067 
L 115.968501 263.169223 
L 120.138287 261.504715 
L 121.172615 260.982422 
L 122.743066 260.469821 
L 123.260133 260.131601 
L 128.012445 258.231575 
L 129.050273 257.641269 
L 133.7661 255.565069 
L 135.35026 254.630519 
L 137.477642 254.006704 
L 142.690519 251.568929 
L 143.726013 251.216305 
L 148.441548 248.910317 
L 149.488516 248.392396 
L 150.530816 247.914361 
L 153.135304 246.792677 
L 155.22659 245.694349 
L 156.772928 245.216338 
L 159.38043 243.768215 
L 160.426814 243.352946 
L 162.002127 242.353783 
L 164.098395 241.746747 
L 165.668652 240.690162 
L 166.18801 240.450743 
L 166.723356 240.373658 
L 167.785491 239.793627 
L 168.812429 239.155371 
L 172.44123 237.348649 
L 172.970353 237.199797 
L 181.357846 232.799243 
L 186.537166 230.128462 
L 188.62167 228.991281 
L 189.680889 228.514217 
L 190.208456 228.172985 
L 190.741857 227.680278 
L 191.772685 227.192316 
L 193.352568 226.64945 
L 195.448836 225.393634 
L 195.981071 225.278656 
L 200.687174 222.627647 
L 201.73142 221.924099 
L 204.889216 220.332699 
L 207.518497 218.704511 
L 209.587444 217.715551 
L 214.830741 214.685951 
L 215.872847 214.035939 
L 221.070385 211.189933 
L 223.699083 209.69714 
L 224.750232 209.176402 
L 226.302209 208.103397 
L 228.902613 206.656027 
L 229.421235 206.22356 
L 232.028214 204.932621 
L 233.086169 204.20828 
L 234.111746 203.537962 
L 235.140629 203.059489 
L 237.754353 201.372713 
L 239.319943 200.613151 
L 241.409114 199.145912 
L 247.144587 195.678526 
L 248.202639 195.060772 
L 249.229188 194.546446 
L 250.268961 193.788633 
L 252.879185 192.296496 
L 256.576751 189.915342 
L 257.645109 189.155489 
L 258.156925 188.996229 
L 260.27896 187.685596 
L 261.344595 186.896351 
L 265.046124 184.396817 
L 266.603741 183.346402 
L 268.148912 182.439349 
L 269.170527 181.720395 
L 271.233544 180.424209 
L 272.815565 179.185494 
L 275.950829 177.186707 
L 278.580499 175.362344 
L 285.343688 170.913139 
L 286.914333 169.687493 
L 291.102787 166.729744 
L 292.691712 165.586151 
L 295.277216 163.735171 
L 296.866627 162.643268 
L 298.954631 161.004733 
L 300.52061 159.996485 
L 302.616878 158.292172 
L 303.657623 157.520513 
L 305.222824 156.483701 
L 306.286321 155.695622 
L 306.797238 154.643458 
L 307.31061 154.81547 
L 308.341826 154.21223 
L 308.852865 153.479983 
L 309.381501 153.56104 
L 309.906541 152.614199 
L 310.433914 152.114496 
L 310.968093 152.023334 
L 312.002226 151.541764 
L 314.097523 149.507975 
L 315.126989 148.824588 
L 318.788653 146.007044 
L 320.326994 144.850261 
L 332.864256 134.592983 
L 333.906557 133.743207 
L 334.423818 133.481696 
L 336.002437 132.144265 
L 337.035403 131.084425 
L 338.061758 130.402884 
L 339.117282 129.444189 
L 342.814629 126.448013 
L 343.879682 125.341924 
L 344.900178 124.594374 
L 346.461296 123.351724 
L 347.517014 122.206771 
L 348.544536 121.443857 
L 349.584308 120.789667 
L 351.169344 119.174062 
L 352.200366 118.279008 
L 352.721905 117.927088 
L 354.815452 115.946641 
L 356.905692 114.42776 
L 358.471258 112.735106 
L 360.024208 111.575287 
L 361.060966 110.511074 
L 362.115518 109.446765 
L 366.773979 105.401825 
L 367.287934 104.990345 
L 368.8614 103.158361 
L 371.460661 101.084541 
L 372.509865 99.840483 
L 377.21208 95.449939 
L 378.776794 93.961033 
L 380.351816 92.575118 
L 381.397422 91.672486 
L 382.969624 89.996446 
L 394.496428 78.644204 
L 396.051954 77.007527 
L 399.198496 73.806814 
L 400.743474 72.366585 
L 401.791219 71.334048 
L 403.903044 69.056091 
L 405.461245 67.560675 
L 411.176154 61.284295 
L 412.225066 60.375445 
L 413.271839 59.15315 
L 414.329696 57.734395 
L 416.430049 55.953518 
L 419.029772 52.99436 
L 420.599251 51.371177 
L 421.668824 50.072975 
L 423.216524 48.347188 
L 428.977957 41.933252 
L 430.009173 40.912373 
L 431.810837 39.46 
L 432.144091 39.894993 
L 431.970974 47.102182 
L 431.973599 83.14765 
L 431.457286 83.216695 
L 430.411679 85.141663 
L 429.896946 85.745038 
L 429.351489 85.895541 
L 428.805059 86.195577 
L 426.677093 88.014444 
L 426.134358 88.076883 
L 423.491781 93.619691 
L 422.978992 93.762956 
L 422.43859 93.744678 
L 421.912579 94.083384 
L 420.859777 95.229309 
L 420.334738 95.490383 
L 419.823991 95.996328 
L 419.29866 98.212975 
L 418.782177 99.0029 
L 418.255193 99.53282 
L 417.216781 100.285338 
L 415.623189 102.113338 
L 414.583903 103.566586 
L 413.536352 104.822304 
L 411.986999 107.011163 
L 410.949463 107.626197 
L 409.913385 108.457513 
L 409.401472 109.161207 
L 408.890433 110.425086 
L 408.356351 111.226282 
L 407.836951 111.518156 
L 406.248707 112.916458 
L 405.205823 114.699376 
L 403.13814 116.52553 
L 401.567591 118.62539 
L 399.485615 120.619731 
L 398.43612 121.911205 
L 396.339073 123.936091 
L 394.793512 125.896329 
L 388.468926 132.124978 
L 387.405624 133.207068 
L 386.378491 134.054416 
L 384.811637 135.727905 
L 383.762725 136.743731 
L 382.192273 138.290934 
L 381.136555 139.391485 
L 379.584188 140.692966 
L 376.960061 143.214118 
L 372.767475 147.002016 
L 370.674512 149.009183 
L 368.585924 150.869927 
L 366.518144 152.727659 
L 362.322981 156.197693 
L 361.810679 156.863251 
L 360.743293 157.776085 
L 359.691245 158.42215 
L 359.17729 158.71038 
L 357.607422 160.29363 
L 356.546259 161.099975 
L 356.020247 161.399331 
L 352.893442 164.162221 
L 351.316768 165.473224 
L 350.274662 166.231863 
L 349.761485 166.531024 
L 347.654035 168.372579 
L 346.071357 169.520957 
L 344.528519 170.952344 
L 342.958651 171.956413 
L 341.372837 173.307544 
L 339.82222 174.27887 
L 338.776322 175.370482 
L 336.161334 177.112549 
L 335.643684 177.702126 
L 333.546443 178.885908 
L 332.503462 180.023283 
L 330.41536 181.198308 
L 329.885946 181.911087 
L 329.361198 182.366484 
L 327.260262 183.306876 
L 326.745626 184.081546 
L 326.231671 184.598446 
L 324.156209 185.586945 
L 323.108464 186.952359 
L 322.587119 187.190259 
L 322.073553 187.295984 
L 321.005146 187.845306 
L 319.961582 189.283688 
L 317.886703 190.049371 
L 317.362344 190.598844 
L 316.840222 191.335719 
L 314.761649 192.049736 
L 313.716918 193.510174 
L 313.200045 193.796169 
L 312.675006 193.900934 
L 311.093082 194.70986 
L 310.560264 195.533014 
L 310.032696 195.950032 
L 308.469975 196.381187 
L 307.94863 196.6835 
L 306.912358 197.879366 
L 305.870446 198.41225 
L 305.337434 198.57723 
L 304.81045 198.85708 
L 302.741113 200.559354 
L 298.534964 203.183255 
L 298.005549 203.672464 
L 295.881862 204.639921 
L 295.355753 204.921447 
L 294.824491 205.462832 
L 293.783648 205.943394 
L 293.26347 206.152584 
L 292.234199 206.951544 
L 291.711784 207.450178 
L 290.679401 207.89207 
L 289.625433 208.201263 
L 289.10895 208.611674 
L 288.582257 209.222432 
L 288.055662 209.641588 
L 285.943545 210.528189 
L 284.90105 211.477653 
L 282.796395 212.520107 
L 281.753414 213.315036 
L 279.13794 214.708481 
L 278.108097 215.260796 
L 276.011245 216.512725 
L 274.958638 217.159579 
L 267.137932 221.318441 
L 266.094756 221.745078 
L 265.568744 222.245655 
L 265.053622 222.57841 
L 264.018128 222.970627 
L 262.447482 223.694579 
L 261.404987 224.433883 
L 258.291503 226.051043 
L 256.186143 227.052592 
L 254.107376 228.018719 
L 253.064103 228.506082 
L 252.016649 229.250681 
L 250.980571 229.544735 
L 249.941771 230.098703 
L 248.912402 230.796032 
L 247.339812 231.429405 
L 245.774611 232.356012 
L 244.204171 232.826491 
L 242.658902 233.954975 
L 241.082228 234.51521 
L 239.510805 235.399042 
L 237.947548 236.041572 
L 236.906901 236.732683 
L 234.294538 237.794199 
L 233.249126 238.236237 
L 232.207943 238.709596 
L 230.649257 239.614706 
L 228.541807 240.309561 
L 228.02649 240.777201 
L 226.975633 241.119477 
L 225.920109 241.383611 
L 225.404015 241.702448 
L 224.879365 242.166298 
L 224.360062 242.465847 
L 221.775117 243.311397 
L 220.735539 243.950138 
L 219.698489 244.303345 
L 217.612745 245.33053 
L 216.028487 245.995383 
L 214.998438 246.314292 
L 213.962943 246.804085 
L 212.385102 247.632583 
L 209.753877 248.689617 
L 200.886106 252.260508 
L 199.848084 252.657778 
L 198.782059 253.176913 
L 196.661288 253.976845 
L 196.126526 254.237627 
L 194.568326 254.62948 
L 193.533949 255.166408 
L 192.485134 255.711631 
L 190.422701 256.287478 
L 189.894551 256.473883 
L 188.836596 257.05457 
L 187.279368 257.456004 
L 186.231428 257.799665 
L 185.172987 258.33969 
L 182.047447 259.462491 
L 180.475671 260.010677 
L 178.910275 260.383654 
L 176.8037 261.31065 
L 175.242583 261.72989 
L 173.664159 262.552097 
L 173.129396 262.7208 
L 172.076206 262.876971 
L 171.024766 263.274897 
L 169.966714 263.77047 
L 168.923636 263.854217 
L 167.87764 264.291931 
L 167.355615 264.608484 
L 165.790414 264.990876 
L 165.278987 265.018643 
L 164.757253 265.237063 
L 164.245242 265.595589 
L 163.720689 265.810097 
L 161.625976 266.117433 
L 160.590676 266.753793 
L 159.536708 267.018195 
L 158.493046 267.286665 
L 156.924442 267.956595 
L 155.893226 268.154564 
L 154.839464 268.666149 
L 153.2519 268.975916 
L 152.734445 269.056834 
L 151.163118 269.805853 
L 148.036314 270.791108 
L 143.834248 272.247975 
L 142.277257 272.737892 
L 140.210546 273.312182 
L 138.653123 274.000524 
L 136.058456 274.745014 
L 134.462725 275.44419 
L 131.851529 276.117266 
L 129.218036 276.993024 
L 128.17243 277.392456 
L 124.519711 278.394235 
L 122.947704 278.878562 
L 114.544432 281.467434 
L 113.484047 281.857976 
L 112.418217 281.994349 
L 110.319809 282.805219 
L 108.24882 283.380034 
L 107.216826 283.691662 
L 106.168886 283.799022 
L 105.652014 283.901771 
L 104.586709 284.356835 
L 103.047371 284.680791 
L 102.520776 284.80149 
L 101.473906 285.206751 
L 98.323669 285.98414 
L 96.23829 286.50386 
L 95.187239 286.812021 
L 93.645373 287.178952 
L 89.972406 288.241432 
L 89.442894 288.458224 
L 86.825475 288.85495 
L 85.779869 289.227735 
L 85.268831 289.374356 
L 83.696629 289.482344 
L 82.641397 289.802686 
L 81.583151 290.164857 
L 79.488826 290.539713 
L 77.932919 291.06 
L 75.848512 290.756496 
L 75.142431 290.930057 
L 75.025909 289.813142 
L 75.02626 289.814024 
" clip-path="url(#p2e1f0903c4)" style="fill: none; stroke: #ff0000; stroke-width: 2; stroke-linecap: square"/>
   </g>
   <g id="line2d_26">
    <path d="M 75.140782 278.762136 
L 75.140893 278.845644 
L 75.142552 278.66315 
L 75.18626 278.743722 
L 75.698533 278.242718 
L 76.740931 276.868232 
L 77.285806 278.931813 
L 78.365053 278.19953 
L 79.925198 277.517277 
L 80.471239 277.842137 
L 80.991223 277.299261 
L 81.510429 276.495345 
L 82.039163 276.07104 
L 82.556618 275.842273 
L 83.095853 275.413984 
L 83.625754 275.417913 
L 84.681861 275.762691 
L 85.193872 275.860074 
L 86.245798 275.480196 
L 87.271667 273.890484 
L 87.787956 273.751449 
L 89.866696 273.683473 
L 91.956547 272.617245 
L 93.014891 272.127015 
L 93.546542 271.824405 
L 95.135661 271.49909 
L 96.171739 271.225701 
L 97.199844 270.512145 
L 98.24652 270.013657 
L 100.319843 269.557251 
L 101.905073 268.834222 
L 102.432306 268.569004 
L 103.476357 268.267535 
L 106.587313 266.985268 
L 108.15018 266.339434 
L 109.720826 265.926678 
L 111.80533 264.84556 
L 113.901016 264.027009 
L 114.430333 263.722067 
L 115.968501 263.169223 
L 120.138287 261.504715 
L 121.172615 260.982422 
L 122.743066 260.469821 
L 123.260133 260.131601 
L 128.012445 258.231575 
L 129.050273 257.641269 
L 133.7661 255.565069 
L 135.35026 254.630519 
L 137.477642 254.006704 
L 142.690519 251.568929 
L 143.726013 251.216305 
L 148.441548 248.910317 
L 149.488516 248.392396 
L 150.530816 247.914361 
L 153.135304 246.792677 
L 155.22659 245.694349 
L 156.772928 245.216338 
L 159.38043 243.768215 
L 160.426814 243.352946 
L 162.002127 242.353783 
L 164.098395 241.746747 
L 165.668652 240.690162 
L 166.18801 240.450743 
L 166.723356 240.373658 
L 167.785491 239.793627 
L 168.812429 239.155371 
L 172.44123 237.348649 
L 172.970353 237.199797 
L 181.357846 232.799243 
L 186.537166 230.128462 
L 188.62167 228.991281 
L 189.680889 228.514217 
L 190.208456 228.172985 
L 190.741857 227.680278 
L 191.772685 227.192316 
L 193.352568 226.64945 
L 195.448836 225.393634 
L 195.981071 225.278656 
L 200.687174 222.627647 
L 201.73142 221.924099 
L 204.889216 220.332699 
L 207.518497 218.704511 
L 209.587444 217.715551 
L 214.830741 214.685951 
L 215.872847 214.035939 
L 221.070385 211.189933 
L 223.699083 209.69714 
L 224.750232 209.176402 
L 226.302209 208.103397 
L 228.902613 206.656027 
L 229.421235 206.22356 
L 232.028214 204.932621 
L 233.086169 204.20828 
L 234.111746 203.537962 
L 235.140629 203.059489 
L 237.754353 201.372713 
L 239.319943 200.613151 
L 241.409114 199.145912 
L 247.144587 195.678526 
L 248.202639 195.060772 
L 249.229188 194.546446 
L 250.268961 193.788633 
L 252.879185 192.296496 
L 256.576751 189.915342 
L 257.645109 189.155489 
L 258.156925 188.996229 
L 260.27896 187.685596 
L 261.344595 186.896351 
L 265.046124 184.396817 
L 266.603741 183.346402 
L 268.148912 182.439349 
L 269.170527 181.720395 
L 271.233544 180.424209 
L 272.815565 179.185494 
L 275.950829 177.186707 
L 278.580499 175.362344 
L 285.343688 170.913139 
L 286.914333 169.687493 
L 291.102787 166.729744 
L 292.691712 165.586151 
L 295.277216 163.735171 
L 296.866627 162.643268 
L 298.954631 161.004733 
L 300.52061 159.996485 
L 302.616878 158.292172 
L 303.657623 157.520513 
L 305.222824 156.483701 
L 306.286321 155.695622 
L 306.797238 154.643458 
L 307.31061 154.81547 
L 308.341826 154.21223 
L 308.852865 153.479983 
L 309.381501 153.56104 
L 309.906541 152.614199 
L 310.433914 152.114496 
L 310.968093 152.023334 
L 312.002226 151.541764 
L 314.097523 149.507975 
L 315.126989 148.824588 
L 318.788653 146.007044 
L 320.326994 144.850261 
L 332.864256 134.592983 
L 333.906557 133.743207 
L 334.423818 133.481696 
L 336.002437 132.144265 
L 337.035403 131.084425 
L 338.061758 130.402884 
L 339.117282 129.444189 
L 342.814629 126.448013 
L 343.879682 125.341924 
L 344.900178 124.594374 
L 346.461296 123.351724 
L 347.517014 122.206771 
L 348.544536 121.443857 
L 349.584308 120.789667 
L 351.169344 119.174062 
L 352.200366 118.279008 
L 352.721905 117.927088 
L 354.815452 115.946641 
L 356.905692 114.42776 
L 358.471258 112.735106 
L 360.024208 111.575287 
L 361.060966 110.511074 
L 362.115518 109.446765 
L 366.773979 105.401825 
L 367.287934 104.990345 
L 368.8614 103.158361 
L 371.460661 101.084541 
L 372.509865 99.840483 
L 377.21208 95.449939 
L 378.776794 93.961033 
L 380.351816 92.575118 
L 381.397422 91.672486 
L 382.969624 89.996446 
L 394.496428 78.644204 
L 396.051954 77.007527 
L 399.198496 73.806814 
L 400.743474 72.366585 
L 401.791219 71.334048 
L 403.903044 69.056091 
L 405.461245 67.560675 
L 411.176154 61.284295 
L 412.225066 60.375445 
L 413.271839 59.15315 
L 414.329696 57.734395 
L 416.430049 55.953518 
L 419.029772 52.99436 
L 420.599251 51.371177 
L 421.668824 50.072975 
L 423.216524 48.347188 
L 428.977957 41.933252 
L 430.009173 40.912373 
L 431.810837 39.46 
L 432.144091 39.894993 
L 431.970974 47.102182 
L 431.973599 83.14765 
L 431.457286 83.216695 
L 430.411679 85.141663 
L 429.896946 85.745038 
L 429.351489 85.895541 
L 428.805059 86.195577 
L 426.677093 88.014444 
L 426.134358 88.076883 
L 423.491781 93.619691 
L 422.978992 93.762956 
L 422.43859 93.744678 
L 421.912579 94.083384 
L 420.859777 95.229309 
L 420.334738 95.490383 
L 419.823991 95.996328 
L 419.29866 98.212975 
L 418.782177 99.0029 
L 418.255193 99.53282 
L 417.216781 100.285338 
L 415.623189 102.113338 
L 414.583903 103.566586 
L 413.536352 104.822304 
L 411.986999 107.011163 
L 410.949463 107.626197 
L 409.913385 108.457513 
L 409.401472 109.161207 
L 408.890433 110.425086 
L 408.356351 111.226282 
L 407.836951 111.518156 
L 406.248707 112.916458 
L 405.205823 114.699376 
L 403.13814 116.52553 
L 401.567591 118.62539 
L 399.485615 120.619731 
L 398.43612 121.911205 
L 396.339073 123.936091 
L 394.793512 125.896329 
L 388.468926 132.124978 
L 387.405624 133.207068 
L 386.378491 134.054416 
L 384.811637 135.727905 
L 383.762725 136.743731 
L 382.192273 138.290934 
L 381.136555 139.391485 
L 379.584188 140.692966 
L 376.960061 143.214118 
L 372.767475 147.002016 
L 370.674512 149.009183 
L 368.585924 150.869927 
L 366.518144 152.727659 
L 362.322981 156.197693 
L 361.810679 156.863251 
L 360.743293 157.776085 
L 359.691245 158.42215 
L 359.17729 158.71038 
L 357.607422 160.29363 
L 356.546259 161.099975 
L 356.020247 161.399331 
L 352.893442 164.162221 
L 351.316768 165.473224 
L 350.274662 166.231863 
L 349.761485 166.531024 
L 347.654035 168.372579 
L 346.071357 169.520957 
L 344.528519 170.952344 
L 342.958651 171.956413 
L 341.372837 173.307544 
L 339.82222 174.27887 
L 338.776322 175.370482 
L 336.161334 177.112549 
L 335.643684 177.702126 
L 333.546443 178.885908 
L 332.503462 180.023283 
L 330.41536 181.198308 
L 329.885946 181.911087 
L 329.361198 182.366484 
L 327.260262 183.306876 
L 326.745626 184.081546 
L 326.231671 184.598446 
L 324.156209 185.586945 
L 323.108464 186.952359 
L 322.587119 187.190259 
L 322.073553 187.295984 
L 321.005146 187.845306 
L 319.961582 189.283688 
L 317.886703 190.049371 
L 317.362344 190.598844 
L 316.840222 191.335719 
L 314.761649 192.049736 
L 313.716918 193.510174 
L 313.200045 193.796169 
L 312.675006 193.900934 
L 311.093082 194.70986 
L 310.560264 195.533014 
L 310.032696 195.950032 
L 308.469975 196.381187 
L 307.94863 196.6835 
L 306.912358 197.879366 
L 305.870446 198.41225 
L 305.337434 198.57723 
L 304.81045 198.85708 
L 302.741113 200.559354 
L 298.534964 203.183255 
L 298.005549 203.672464 
L 295.881862 204.639921 
L 295.355753 204.921447 
L 294.824491 205.462832 
L 293.783648 205.943394 
L 293.26347 206.152584 
L 292.234199 206.951544 
L 291.711784 207.450178 
L 290.679401 207.89207 
L 289.625433 208.201263 
L 289.10895 208.611674 
L 288.582257 209.222432 
L 288.055662 209.641588 
L 285.943545 210.528189 
L 284.90105 211.477653 
L 282.796395 212.520107 
L 281.753414 213.315036 
L 279.13794 214.708481 
L 278.108097 215.260796 
L 276.011245 216.512725 
L 274.958638 217.159579 
L 267.137932 221.318441 
L 266.094756 221.745078 
L 265.568744 222.245655 
L 265.053622 222.57841 
L 264.018128 222.970627 
L 262.447482 223.694579 
L 261.404987 224.433883 
L 258.291503 226.051043 
L 256.186143 227.052592 
L 254.107376 228.018719 
L 253.064103 228.506082 
L 252.016649 229.250681 
L 250.980571 229.544735 
L 249.941771 230.098703 
L 248.912402 230.796032 
L 247.339812 231.429405 
L 245.774611 232.356012 
L 244.204171 232.826491 
L 242.658902 233.954975 
L 241.082228 234.51521 
L 239.510805 235.399042 
L 237.947548 236.041572 
L 236.906901 236.732683 
L 234.294538 237.794199 
L 233.249126 238.236237 
L 232.207943 238.709596 
L 230.649257 239.614706 
L 228.541807 240.309561 
L 228.02649 240.777201 
L 226.975633 241.119477 
L 225.920109 241.383611 
L 225.404015 241.702448 
L 224.879365 242.166298 
L 224.360062 242.465847 
L 221.775117 243.311397 
L 220.735539 243.950138 
L 219.698489 244.303345 
L 217.612745 245.33053 
L 216.028487 245.995383 
L 214.998438 246.314292 
L 213.962943 246.804085 
L 212.385102 247.632583 
L 209.753877 248.689617 
L 200.886106 252.260508 
L 199.848084 252.657778 
L 198.782059 253.176913 
L 196.661288 253.976845 
L 196.126526 254.237627 
L 194.568326 254.62948 
L 193.533949 255.166408 
L 192.485134 255.711631 
L 190.422701 256.287478 
L 189.894551 256.473883 
L 188.836596 257.05457 
L 187.279368 257.456004 
L 186.231428 257.799665 
L 185.172987 258.33969 
L 182.047447 259.462491 
L 180.475671 260.010677 
L 178.910275 260.383654 
L 176.8037 261.31065 
L 175.242583 261.72989 
L 173.664159 262.552097 
L 173.129396 262.7208 
L 172.076206 262.876971 
L 171.024766 263.274897 
L 169.966714 263.77047 
L 168.923636 263.854217 
L 167.87764 264.291931 
L 167.355615 264.608484 
L 165.790414 264.990876 
L 165.278987 265.018643 
L 164.757253 265.237063 
L 164.245242 265.595589 
L 163.720689 265.810097 
L 161.625976 266.117433 
L 160.590676 266.753793 
L 159.536708 267.018195 
L 158.493046 267.286665 
L 156.924442 267.956595 
L 155.893226 268.154564 
L 154.839464 268.666149 
L 153.2519 268.975916 
L 152.734445 269.056834 
L 151.163118 269.805853 
L 148.036314 270.791108 
L 143.834248 272.247975 
L 142.277257 272.737892 
L 140.210546 273.312182 
L 138.653123 274.000524 
L 136.058456 274.745014 
L 134.462725 275.44419 
L 131.851529 276.117266 
L 129.218036 276.993024 
L 128.17243 277.392456 
L 124.519711 278.394235 
L 122.947704 278.878562 
L 114.544432 281.467434 
L 113.484047 281.857976 
L 112.418217 281.994349 
L 110.319809 282.805219 
L 108.24882 283.380034 
L 107.216826 283.691662 
L 106.168886 283.799022 
L 105.652014 283.901771 
L 104.586709 284.356835 
L 103.047371 284.680791 
L 102.520776 284.80149 
L 101.473906 285.206751 
L 98.323669 285.98414 
L 96.23829 286.50386 
L 95.187239 286.812021 
L 93.645373 287.178952 
L 89.972406 288.241432 
L 89.442894 288.458224 
L 86.825475 288.85495 
L 85.779869 289.227735 
L 85.268831 289.374356 
L 83.696629 289.482344 
L 82.641397 289.802686 
L 81.583151 290.164857 
L 79.488826 290.539713 
L 77.932919 291.06 
L 75.848512 290.756496 
L 75.142431 290.930057 
L 75.025909 289.813142 
L 75.02626 289.814024 
" clip-path="url(#p2e1f0903c4)" style="fill: none; stroke: #000000; stroke-width: 2; stroke-linecap: square"/>
   </g>
   <g id="patch_3">
    <path d="M 57.17 303.64 
L 57.17 26.88 
" style="fill: none; stroke: #000000; stroke-width: 0.8; stroke-linejoin: miter; stroke-linecap: square"/>
   </g>
   <g id="patch_4">
    <path d="M 450 303.64 
L 450 26.88 
" style="fill: none; stroke: #000000; stroke-width: 0.8; stroke-linejoin: miter; stroke-linecap: square"/>
   </g>
   <g id="patch_5">
    <path d="M 57.17 303.64 
L 450 303.64 
" style="fill: none; stroke: #000000; stroke-width: 0.8; stroke-linejoin: miter; stroke-linecap: square"/>
   </g>
   <g id="patch_6">
    <path d="M 57.17 26.88 
L 450 26.88 
" style="fill: none; stroke: #000000; stroke-width: 0.8; stroke-linejoin: miter; stroke-linecap: square"/>
   </g>
   <g id="text_15">
    <!-- 2025-07-02 Trial 31 - Stress vs Strain -->
    <g transform="translate(142.330938 20.88) scale(0.12 -0.12)">
     <defs>
      <path id="DejaVuSans-37" d="M 525 4666 
L 3525 4666 
L 3525 4397 
L 1831 0 
L 1172 0 
L 2766 4134 
L 525 4134 
L 525 4666 
z
" transform="scale(0.015625)"/>
      <path id="DejaVuSans-54" d="M -19 4666 
L 3928 4666 
L 3928 4134 
L 2272 4134 
L 2272 0 
L 1638 0 
L 1638 4134 
L -19 4134 
L -19 4666 
z
" transform="scale(0.015625)"/>
      <path id="DejaVuSans-6c" d="M 603 4863 
L 1178 4863 
L 1178 0 
L 603 0 
L 603 4863 
z
" transform="scale(0.015625)"/>
      <path id="DejaVuSans-33" d="M 2597 2516 
Q 3050 2419 3304 2112 
Q 3559 1806 3559 1356 
Q 3559 666 3084 287 
Q 2609 -91 1734 -91 
Q 1441 -91 1130 -33 
Q 819 25 488 141 
L 488 750 
Q 750 597 1062 519 
Q 1375 441 1716 441 
Q 2309 441 2620 675 
Q 2931 909 2931 1356 
Q 2931 1769 2642 2001 
Q 2353 2234 1838 2234 
L 1294 2234 
L 1294 2753 
L 1863 2753 
Q 2328 2753 2575 2939 
Q 2822 3125 2822 3475 
Q 2822 3834 2567 4026 
Q 2313 4219 1838 4219 
Q 1578 4219 1281 4162 
Q 984 4106 628 3988 
L 628 4550 
Q 988 4650 1302 4700 
Q 1616 4750 1894 4750 
Q 2613 4750 3031 4423 
Q 3450 4097 3450 3541 
Q 3450 3153 3228 2886 
Q 3006 2619 2597 2516 
z
" transform="scale(0.015625)"/>
      <path id="DejaVuSans-76" d="M 191 3500 
L 800 3500 
L 1894 563 
L 2988 3500 
L 3597 3500 
L 2284 0 
L 1503 0 
L 191 3500 
z
" transform="scale(0.015625)"/>
     </defs>
     <use xlink:href="#DejaVuSans-32"/>
     <use xlink:href="#DejaVuSans-30" transform="translate(63.623047 0)"/>
     <use xlink:href="#DejaVuSans-32" transform="translate(127.246094 0)"/>
     <use xlink:href="#DejaVuSans-35" transform="translate(190.869141 0)"/>
     <use xlink:href="#DejaVuSans-2d" transform="translate(254.492188 0)"/>
     <use xlink:href="#DejaVuSans-30" transform="translate(290.576172 0)"/>
     <use xlink:href="#DejaVuSans-37" transform="translate(354.199219 0)"/>
     <use xlink:href="#DejaVuSans-2d" transform="translate(417.822266 0)"/>
     <use xlink:href="#DejaVuSans-30" transform="translate(453.90625 0)"/>
     <use xlink:href="#DejaVuSans-32" transform="translate(517.529297 0)"/>
     <use xlink:href="#DejaVuSans-20" transform="translate(581.152344 0)"/>
     <use xlink:href="#DejaVuSans-54" transform="translate(612.939453 0)"/>
     <use xlink:href="#DejaVuSans-72" transform="translate(659.273438 0)"/>
     <use xlink:href="#DejaVuSans-69" transform="translate(700.386719 0)"/>
     <use xlink:href="#DejaVuSans-61" transform="translate(728.169922 0)"/>
     <use xlink:href="#DejaVuSans-6c" transform="translate(789.449219 0)"/>
     <use xlink:href="#DejaVuSans-20" transform="translate(817.232422 0)"/>
     <use xlink:href="#DejaVuSans-33" transform="translate(849.019531 0)"/>
     <use xlink:href="#DejaVuSans-31" transform="translate(912.642578 0)"/>
     <use xlink:href="#DejaVuSans-20" transform="translate(976.265625 0)"/>
     <use xlink:href="#DejaVuSans-2d" transform="translate(1008.052734 0)"/>
     <use xlink:href="#DejaVuSans-20" transform="translate(1044.136719 0)"/>
     <use xlink:href="#DejaVuSans-53" transform="translate(1075.923828 0)"/>
     <use xlink:href="#DejaVuSans-74" transform="translate(1139.400391 0)"/>
     <use xlink:href="#DejaVuSans-72" transform="translate(1178.609375 0)"/>
     <use xlink:href="#DejaVuSans-65" transform="translate(1217.472656 0)"/>
     <use xlink:href="#DejaVuSans-73" transform="translate(1278.996094 0)"/>
     <use xlink:href="#DejaVuSans-73" transform="translate(1331.095703 0)"/>
     <use xlink:href="#DejaVuSans-20" transform="translate(1383.195312 0)"/>
     <use xlink:href="#DejaVuSans-76" transform="translate(1414.982422 0)"/>
     <use xlink:href="#DejaVuSans-73" transform="translate(1474.162109 0)"/>
     <use xlink:href="#DejaVuSans-20" transform="translate(1526.261719 0)"/>
     <use xlink:href="#DejaVuSans-53" transform="translate(1558.048828 0)"/>
     <use xlink:href="#DejaVuSans-74" transform="translate(1621.525391 0)"/>
     <use xlink:href="#DejaVuSans-72" transform="translate(1660.734375 0)"/>
     <use xlink:href="#DejaVuSans-61" transform="translate(1701.847656 0)"/>
     <use xlink:href="#DejaVuSans-69" transform="translate(1763.126953 0)"/>
     <use xlink:href="#DejaVuSans-6e" transform="translate(1790.910156 0)"/>
    </g>
   </g>
   <g id="legend_1">
    <g id="patch_7">
     <path d="M 64.17 64.23625 
L 170.154375 64.23625 
Q 172.154375 64.23625 172.154375 62.23625 
L 172.154375 33.88 
Q 172.154375 31.88 170.154375 31.88 
L 64.17 31.88 
Q 62.17 31.88 62.17 33.88 
L 62.17 62.23625 
Q 62.17 64.23625 64.17 64.23625 
z
" style="fill: #ffffff; opacity: 0.8; stroke: #cccccc; stroke-linejoin: miter"/>
    </g>
    <g id="line2d_27">
     <path d="M 66.17 39.978437 
L 76.17 39.978437 
L 86.17 39.978437 
" style="fill: none; stroke: #ff0000; stroke-width: 2; stroke-linecap: square"/>
    </g>
    <g id="text_16">
     <!-- Raw Force -->
     <g transform="translate(94.17 43.478437) scale(0.1 -0.1)">
      <defs>
       <path id="DejaVuSans-52" d="M 2841 2188 
Q 3044 2119 3236 1894 
Q 3428 1669 3622 1275 
L 4263 0 
L 3584 0 
L 2988 1197 
Q 2756 1666 2539 1819 
Q 2322 1972 1947 1972 
L 1259 1972 
L 1259 0 
L 628 0 
L 628 4666 
L 2053 4666 
Q 2853 4666 3247 4331 
Q 3641 3997 3641 3322 
Q 3641 2881 3436 2590 
Q 3231 2300 2841 2188 
z
M 1259 4147 
L 1259 2491 
L 2053 2491 
Q 2509 2491 2742 2702 
Q 2975 2913 2975 3322 
Q 2975 3731 2742 3939 
Q 2509 4147 2053 4147 
L 1259 4147 
z
" transform="scale(0.015625)"/>
       <path id="DejaVuSans-77" d="M 269 3500 
L 844 3500 
L 1563 769 
L 2278 3500 
L 2956 3500 
L 3675 769 
L 4391 3500 
L 4966 3500 
L 4050 0 
L 3372 0 
L 2619 2869 
L 1863 0 
L 1184 0 
L 269 3500 
z
" transform="scale(0.015625)"/>
       <path id="DejaVuSans-46" d="M 628 4666 
L 3309 4666 
L 3309 4134 
L 1259 4134 
L 1259 2759 
L 3109 2759 
L 3109 2228 
L 1259 2228 
L 1259 0 
L 628 0 
L 628 4666 
z
" transform="scale(0.015625)"/>
       <path id="DejaVuSans-6f" d="M 1959 3097 
Q 1497 3097 1228 2736 
Q 959 2375 959 1747 
Q 959 1119 1226 758 
Q 1494 397 1959 397 
Q 2419 397 2687 759 
Q 2956 1122 2956 1747 
Q 2956 2369 2687 2733 
Q 2419 3097 1959 3097 
z
M 1959 3584 
Q 2709 3584 3137 3096 
Q 3566 2609 3566 1747 
Q 3566 888 3137 398 
Q 2709 -91 1959 -91 
Q 1206 -91 779 398 
Q 353 888 353 1747 
Q 353 2609 779 3096 
Q 1206 3584 1959 3584 
z
" transform="scale(0.015625)"/>
       <path id="DejaVuSans-63" d="M 3122 3366 
L 3122 2828 
Q 2878 2963 2633 3030 
Q 2388 3097 2138 3097 
Q 1578 3097 1268 2742 
Q 959 2388 959 1747 
Q 959 1106 1268 751 
Q 1578 397 2138 397 
Q 2388 397 2633 464 
Q 2878 531 3122 666 
L 3122 134 
Q 2881 22 2623 -34 
Q 2366 -91 2075 -91 
Q 1284 -91 818 406 
Q 353 903 353 1747 
Q 353 2603 823 3093 
Q 1294 3584 2113 3584 
Q 2378 3584 2631 3529 
Q 2884 3475 3122 3366 
z
" transform="scale(0.015625)"/>
      </defs>
      <use xlink:href="#DejaVuSans-52"/>
      <use xlink:href="#DejaVuSans-61" transform="translate(67.232422 0)"/>
      <use xlink:href="#DejaVuSans-77" transform="translate(128.511719 0)"/>
      <use xlink:href="#DejaVuSans-20" transform="translate(210.298828 0)"/>
      <use xlink:href="#DejaVuSans-46" transform="translate(242.085938 0)"/>
      <use xlink:href="#DejaVuSans-6f" transform="translate(295.980469 0)"/>
      <use xlink:href="#DejaVuSans-72" transform="translate(357.162109 0)"/>
      <use xlink:href="#DejaVuSans-63" transform="translate(396.025391 0)"/>
      <use xlink:href="#DejaVuSans-65" transform="translate(451.005859 0)"/>
     </g>
    </g>
    <g id="line2d_28">
     <path d="M 66.17 54.656563 
L 76.17 54.656563 
L 86.17 54.656563 
" style="fill: none; stroke: #000000; stroke-width: 2; stroke-linecap: square"/>
    </g>
    <g id="text_17">
     <!-- Adjusted Force -->
     <g transform="translate(94.17 58.156563) scale(0.1 -0.1)">
      <defs>
       <path id="DejaVuSans-41" d="M 2188 4044 
L 1331 1722 
L 3047 1722 
L 2188 4044 
z
M 1831 4666 
L 2547 4666 
L 4325 0 
L 3669 0 
L 3244 1197 
L 1141 1197 
L 716 0 
L 50 0 
L 1831 4666 
z
" transform="scale(0.015625)"/>
       <path id="DejaVuSans-64" d="M 2906 2969 
L 2906 4863 
L 3481 4863 
L 3481 0 
L 2906 0 
L 2906 525 
Q 2725 213 2448 61 
Q 2172 -91 1784 -91 
Q 1150 -91 751 415 
Q 353 922 353 1747 
Q 353 2572 751 3078 
Q 1150 3584 1784 3584 
Q 2172 3584 2448 3432 
Q 2725 3281 2906 2969 
z
M 947 1747 
Q 947 1113 1208 752 
Q 1469 391 1925 391 
Q 2381 391 2643 752 
Q 2906 1113 2906 1747 
Q 2906 2381 2643 2742 
Q 2381 3103 1925 3103 
Q 1469 3103 1208 2742 
Q 947 2381 947 1747 
z
" transform="scale(0.015625)"/>
       <path id="DejaVuSans-6a" d="M 603 3500 
L 1178 3500 
L 1178 -63 
Q 1178 -731 923 -1031 
Q 669 -1331 103 -1331 
L -116 -1331 
L -116 -844 
L 38 -844 
Q 366 -844 484 -692 
Q 603 -541 603 -63 
L 603 3500 
z
M 603 4863 
L 1178 4863 
L 1178 4134 
L 603 4134 
L 603 4863 
z
" transform="scale(0.015625)"/>
       <path id="DejaVuSans-75" d="M 544 1381 
L 544 3500 
L 1119 3500 
L 1119 1403 
Q 1119 906 1312 657 
Q 1506 409 1894 409 
Q 2359 409 2629 706 
Q 2900 1003 2900 1516 
L 2900 3500 
L 3475 3500 
L 3475 0 
L 2900 0 
L 2900 538 
Q 2691 219 2414 64 
Q 2138 -91 1772 -91 
Q 1169 -91 856 284 
Q 544 659 544 1381 
z
M 1991 3584 
L 1991 3584 
z
" transform="scale(0.015625)"/>
      </defs>
      <use xlink:href="#DejaVuSans-41"/>
      <use xlink:href="#DejaVuSans-64" transform="translate(66.658203 0)"/>
      <use xlink:href="#DejaVuSans-6a" transform="translate(130.134766 0)"/>
      <use xlink:href="#DejaVuSans-75" transform="translate(157.917969 0)"/>
      <use xlink:href="#DejaVuSans-73" transform="translate(221.296875 0)"/>
      <use xlink:href="#DejaVuSans-74" transform="translate(273.396484 0)"/>
      <use xlink:href="#DejaVuSans-65" transform="translate(312.605469 0)"/>
      <use xlink:href="#DejaVuSans-64" transform="translate(374.128906 0)"/>
      <use xlink:href="#DejaVuSans-20" transform="translate(437.605469 0)"/>
      <use xlink:href="#DejaVuSans-46" transform="translate(469.392578 0)"/>
      <use xlink:href="#DejaVuSans-6f" transform="translate(523.287109 0)"/>
      <use xlink:href="#DejaVuSans-72" transform="translate(584.46875 0)"/>
      <use xlink:href="#DejaVuSans-63" transform="translate(623.332031 0)"/>
      <use xlink:href="#DejaVuSans-65" transform="translate(678.3125 0)"/>
     </g>
    </g>
   </g>
  </g>
 </g>
 <defs>
  <clipPath id="p2e1f0903c4">
   <rect x="57.17" y="26.88" width="392.83" height="276.76"/>
  </clipPath>
 </defs>
</svg>
