<?xml version="1.0" encoding="utf-8" standalone="no"?>
<!DOCTYPE svg PUBLIC "-//W3C//DTD SVG 1.1//EN"
  "http://www.w3.org/Graphics/SVG/1.1/DTD/svg11.dtd">
<svg xmlns:xlink="http://www.w3.org/1999/xlink" width="460.8pt" height="345.6pt" viewBox="0 0 460.8 345.6" xmlns="http://www.w3.org/2000/svg" version="1.1">
 <metadata>
  <rdf:RDF xmlns:dc="http://purl.org/dc/elements/1.1/" xmlns:cc="http://creativecommons.org/ns#" xmlns:rdf="http://www.w3.org/1999/02/22-rdf-syntax-ns#">
   <cc:Work>
    <dc:type rdf:resource="http://purl.org/dc/dcmitype/StillImage"/>
    <dc:date>2025-07-28T21:14:47.105973</dc:date>
    <dc:format>image/svg+xml</dc:format>
    <dc:creator>
     <cc:Agent>
      <dc:title>Matplotlib v3.10.3, https://matplotlib.org/</dc:title>
     </cc:Agent>
    </dc:creator>
   </cc:Work>
  </rdf:RDF>
 </metadata>
 <defs>
  <style type="text/css">*{stroke-linejoin: round; stroke-linecap: butt}</style>
 </defs>
 <g id="figure_1">
  <g id="patch_1">
   <path d="M 0 345.6 
L 460.8 345.6 
L 460.8 0 
L 0 0 
z
" style="fill: #ffffff"/>
  </g>
  <g id="axes_1">
   <g id="patch_2">
    <path d="M 50.87 303.64 
L 450 303.64 
L 450 26.88 
L 50.87 26.88 
z
" style="fill: #ffffff"/>
   </g>
   <g id="matplotlib.axis_1">
    <g id="xtick_1">
     <g id="line2d_1">
      <path d="M 69.278763 303.64 
L 69.278763 26.88 
" clip-path="url(#p9a66f43bb1)" style="fill: none; stroke: #b0b0b0; stroke-opacity: 0.3; stroke-width: 0.8; stroke-linecap: square"/>
     </g>
     <g id="line2d_2">
      <defs>
       <path id="mcc8be0a976" d="M 0 0 
L 0 3.5 
" style="stroke: #000000; stroke-width: 0.8"/>
      </defs>
      <g>
       <use xlink:href="#mcc8be0a976" x="69.278763" y="303.64" style="stroke: #000000; stroke-width: 0.8"/>
      </g>
     </g>
     <g id="text_1">
      <!-- 0.00 -->
      <g transform="translate(58.14595 318.238437) scale(0.1 -0.1)">
       <defs>
        <path id="DejaVuSans-30" d="M 2034 4250 
Q 1547 4250 1301 3770 
Q 1056 3291 1056 2328 
Q 1056 1369 1301 889 
Q 1547 409 2034 409 
Q 2525 409 2770 889 
Q 3016 1369 3016 2328 
Q 3016 3291 2770 3770 
Q 2525 4250 2034 4250 
z
M 2034 4750 
Q 2819 4750 3233 4129 
Q 3647 3509 3647 2328 
Q 3647 1150 3233 529 
Q 2819 -91 2034 -91 
Q 1250 -91 836 529 
Q 422 1150 422 2328 
Q 422 3509 836 4129 
Q 1250 4750 2034 4750 
z
" transform="scale(0.015625)"/>
        <path id="DejaVuSans-2e" d="M 684 794 
L 1344 794 
L 1344 0 
L 684 0 
L 684 794 
z
" transform="scale(0.015625)"/>
       </defs>
       <use xlink:href="#DejaVuSans-30"/>
       <use xlink:href="#DejaVuSans-2e" transform="translate(63.623047 0)"/>
       <use xlink:href="#DejaVuSans-30" transform="translate(95.410156 0)"/>
       <use xlink:href="#DejaVuSans-30" transform="translate(159.033203 0)"/>
      </g>
     </g>
    </g>
    <g id="xtick_2">
     <g id="line2d_3">
      <path d="M 136.894837 303.64 
L 136.894837 26.88 
" clip-path="url(#p9a66f43bb1)" style="fill: none; stroke: #b0b0b0; stroke-opacity: 0.3; stroke-width: 0.8; stroke-linecap: square"/>
     </g>
     <g id="line2d_4">
      <g>
       <use xlink:href="#mcc8be0a976" x="136.894837" y="303.64" style="stroke: #000000; stroke-width: 0.8"/>
      </g>
     </g>
     <g id="text_2">
      <!-- 0.02 -->
      <g transform="translate(125.762024 318.238437) scale(0.1 -0.1)">
       <defs>
        <path id="DejaVuSans-32" d="M 1228 531 
L 3431 531 
L 3431 0 
L 469 0 
L 469 531 
Q 828 903 1448 1529 
Q 2069 2156 2228 2338 
Q 2531 2678 2651 2914 
Q 2772 3150 2772 3378 
Q 2772 3750 2511 3984 
Q 2250 4219 1831 4219 
Q 1534 4219 1204 4116 
Q 875 4013 500 3803 
L 500 4441 
Q 881 4594 1212 4672 
Q 1544 4750 1819 4750 
Q 2544 4750 2975 4387 
Q 3406 4025 3406 3419 
Q 3406 3131 3298 2873 
Q 3191 2616 2906 2266 
Q 2828 2175 2409 1742 
Q 1991 1309 1228 531 
z
" transform="scale(0.015625)"/>
       </defs>
       <use xlink:href="#DejaVuSans-30"/>
       <use xlink:href="#DejaVuSans-2e" transform="translate(63.623047 0)"/>
       <use xlink:href="#DejaVuSans-30" transform="translate(95.410156 0)"/>
       <use xlink:href="#DejaVuSans-32" transform="translate(159.033203 0)"/>
      </g>
     </g>
    </g>
    <g id="xtick_3">
     <g id="line2d_5">
      <path d="M 204.510911 303.64 
L 204.510911 26.88 
" clip-path="url(#p9a66f43bb1)" style="fill: none; stroke: #b0b0b0; stroke-opacity: 0.3; stroke-width: 0.8; stroke-linecap: square"/>
     </g>
     <g id="line2d_6">
      <g>
       <use xlink:href="#mcc8be0a976" x="204.510911" y="303.64" style="stroke: #000000; stroke-width: 0.8"/>
      </g>
     </g>
     <g id="text_3">
      <!-- 0.04 -->
      <g transform="translate(193.378098 318.238437) scale(0.1 -0.1)">
       <defs>
        <path id="DejaVuSans-34" d="M 2419 4116 
L 825 1625 
L 2419 1625 
L 2419 4116 
z
M 2253 4666 
L 3047 4666 
L 3047 1625 
L 3713 1625 
L 3713 1100 
L 3047 1100 
L 3047 0 
L 2419 0 
L 2419 1100 
L 313 1100 
L 313 1709 
L 2253 4666 
z
" transform="scale(0.015625)"/>
       </defs>
       <use xlink:href="#DejaVuSans-30"/>
       <use xlink:href="#DejaVuSans-2e" transform="translate(63.623047 0)"/>
       <use xlink:href="#DejaVuSans-30" transform="translate(95.410156 0)"/>
       <use xlink:href="#DejaVuSans-34" transform="translate(159.033203 0)"/>
      </g>
     </g>
    </g>
    <g id="xtick_4">
     <g id="line2d_7">
      <path d="M 272.126985 303.64 
L 272.126985 26.88 
" clip-path="url(#p9a66f43bb1)" style="fill: none; stroke: #b0b0b0; stroke-opacity: 0.3; stroke-width: 0.8; stroke-linecap: square"/>
     </g>
     <g id="line2d_8">
      <g>
       <use xlink:href="#mcc8be0a976" x="272.126985" y="303.64" style="stroke: #000000; stroke-width: 0.8"/>
      </g>
     </g>
     <g id="text_4">
      <!-- 0.06 -->
      <g transform="translate(260.994172 318.238437) scale(0.1 -0.1)">
       <defs>
        <path id="DejaVuSans-36" d="M 2113 2584 
Q 1688 2584 1439 2293 
Q 1191 2003 1191 1497 
Q 1191 994 1439 701 
Q 1688 409 2113 409 
Q 2538 409 2786 701 
Q 3034 994 3034 1497 
Q 3034 2003 2786 2293 
Q 2538 2584 2113 2584 
z
M 3366 4563 
L 3366 3988 
Q 3128 4100 2886 4159 
Q 2644 4219 2406 4219 
Q 1781 4219 1451 3797 
Q 1122 3375 1075 2522 
Q 1259 2794 1537 2939 
Q 1816 3084 2150 3084 
Q 2853 3084 3261 2657 
Q 3669 2231 3669 1497 
Q 3669 778 3244 343 
Q 2819 -91 2113 -91 
Q 1303 -91 875 529 
Q 447 1150 447 2328 
Q 447 3434 972 4092 
Q 1497 4750 2381 4750 
Q 2619 4750 2861 4703 
Q 3103 4656 3366 4563 
z
" transform="scale(0.015625)"/>
       </defs>
       <use xlink:href="#DejaVuSans-30"/>
       <use xlink:href="#DejaVuSans-2e" transform="translate(63.623047 0)"/>
       <use xlink:href="#DejaVuSans-30" transform="translate(95.410156 0)"/>
       <use xlink:href="#DejaVuSans-36" transform="translate(159.033203 0)"/>
      </g>
     </g>
    </g>
    <g id="xtick_5">
     <g id="line2d_9">
      <path d="M 339.743059 303.64 
L 339.743059 26.88 
" clip-path="url(#p9a66f43bb1)" style="fill: none; stroke: #b0b0b0; stroke-opacity: 0.3; stroke-width: 0.8; stroke-linecap: square"/>
     </g>
     <g id="line2d_10">
      <g>
       <use xlink:href="#mcc8be0a976" x="339.743059" y="303.64" style="stroke: #000000; stroke-width: 0.8"/>
      </g>
     </g>
     <g id="text_5">
      <!-- 0.08 -->
      <g transform="translate(328.610246 318.238437) scale(0.1 -0.1)">
       <defs>
        <path id="DejaVuSans-38" d="M 2034 2216 
Q 1584 2216 1326 1975 
Q 1069 1734 1069 1313 
Q 1069 891 1326 650 
Q 1584 409 2034 409 
Q 2484 409 2743 651 
Q 3003 894 3003 1313 
Q 3003 1734 2745 1975 
Q 2488 2216 2034 2216 
z
M 1403 2484 
Q 997 2584 770 2862 
Q 544 3141 544 3541 
Q 544 4100 942 4425 
Q 1341 4750 2034 4750 
Q 2731 4750 3128 4425 
Q 3525 4100 3525 3541 
Q 3525 3141 3298 2862 
Q 3072 2584 2669 2484 
Q 3125 2378 3379 2068 
Q 3634 1759 3634 1313 
Q 3634 634 3220 271 
Q 2806 -91 2034 -91 
Q 1263 -91 848 271 
Q 434 634 434 1313 
Q 434 1759 690 2068 
Q 947 2378 1403 2484 
z
M 1172 3481 
Q 1172 3119 1398 2916 
Q 1625 2713 2034 2713 
Q 2441 2713 2670 2916 
Q 2900 3119 2900 3481 
Q 2900 3844 2670 4047 
Q 2441 4250 2034 4250 
Q 1625 4250 1398 4047 
Q 1172 3844 1172 3481 
z
" transform="scale(0.015625)"/>
       </defs>
       <use xlink:href="#DejaVuSans-30"/>
       <use xlink:href="#DejaVuSans-2e" transform="translate(63.623047 0)"/>
       <use xlink:href="#DejaVuSans-30" transform="translate(95.410156 0)"/>
       <use xlink:href="#DejaVuSans-38" transform="translate(159.033203 0)"/>
      </g>
     </g>
    </g>
    <g id="xtick_6">
     <g id="line2d_11">
      <path d="M 407.359133 303.64 
L 407.359133 26.88 
" clip-path="url(#p9a66f43bb1)" style="fill: none; stroke: #b0b0b0; stroke-opacity: 0.3; stroke-width: 0.8; stroke-linecap: square"/>
     </g>
     <g id="line2d_12">
      <g>
       <use xlink:href="#mcc8be0a976" x="407.359133" y="303.64" style="stroke: #000000; stroke-width: 0.8"/>
      </g>
     </g>
     <g id="text_6">
      <!-- 0.10 -->
      <g transform="translate(396.22632 318.238437) scale(0.1 -0.1)">
       <defs>
        <path id="DejaVuSans-31" d="M 794 531 
L 1825 531 
L 1825 4091 
L 703 3866 
L 703 4441 
L 1819 4666 
L 2450 4666 
L 2450 531 
L 3481 531 
L 3481 0 
L 794 0 
L 794 531 
z
" transform="scale(0.015625)"/>
       </defs>
       <use xlink:href="#DejaVuSans-30"/>
       <use xlink:href="#DejaVuSans-2e" transform="translate(63.623047 0)"/>
       <use xlink:href="#DejaVuSans-31" transform="translate(95.410156 0)"/>
       <use xlink:href="#DejaVuSans-30" transform="translate(159.033203 0)"/>
      </g>
     </g>
    </g>
    <g id="text_7">
     <!-- Strain [-] -->
     <g transform="translate(228.32875 331.916562) scale(0.1 -0.1)">
      <defs>
       <path id="DejaVuSans-53" d="M 3425 4513 
L 3425 3897 
Q 3066 4069 2747 4153 
Q 2428 4238 2131 4238 
Q 1616 4238 1336 4038 
Q 1056 3838 1056 3469 
Q 1056 3159 1242 3001 
Q 1428 2844 1947 2747 
L 2328 2669 
Q 3034 2534 3370 2195 
Q 3706 1856 3706 1288 
Q 3706 609 3251 259 
Q 2797 -91 1919 -91 
Q 1588 -91 1214 -16 
Q 841 59 441 206 
L 441 856 
Q 825 641 1194 531 
Q 1563 422 1919 422 
Q 2459 422 2753 634 
Q 3047 847 3047 1241 
Q 3047 1584 2836 1778 
Q 2625 1972 2144 2069 
L 1759 2144 
Q 1053 2284 737 2584 
Q 422 2884 422 3419 
Q 422 4038 858 4394 
Q 1294 4750 2059 4750 
Q 2388 4750 2728 4690 
Q 3069 4631 3425 4513 
z
" transform="scale(0.015625)"/>
       <path id="DejaVuSans-74" d="M 1172 4494 
L 1172 3500 
L 2356 3500 
L 2356 3053 
L 1172 3053 
L 1172 1153 
Q 1172 725 1289 603 
Q 1406 481 1766 481 
L 2356 481 
L 2356 0 
L 1766 0 
Q 1100 0 847 248 
Q 594 497 594 1153 
L 594 3053 
L 172 3053 
L 172 3500 
L 594 3500 
L 594 4494 
L 1172 4494 
z
" transform="scale(0.015625)"/>
       <path id="DejaVuSans-72" d="M 2631 2963 
Q 2534 3019 2420 3045 
Q 2306 3072 2169 3072 
Q 1681 3072 1420 2755 
Q 1159 2438 1159 1844 
L 1159 0 
L 581 0 
L 581 3500 
L 1159 3500 
L 1159 2956 
Q 1341 3275 1631 3429 
Q 1922 3584 2338 3584 
Q 2397 3584 2469 3576 
Q 2541 3569 2628 3553 
L 2631 2963 
z
" transform="scale(0.015625)"/>
       <path id="DejaVuSans-61" d="M 2194 1759 
Q 1497 1759 1228 1600 
Q 959 1441 959 1056 
Q 959 750 1161 570 
Q 1363 391 1709 391 
Q 2188 391 2477 730 
Q 2766 1069 2766 1631 
L 2766 1759 
L 2194 1759 
z
M 3341 1997 
L 3341 0 
L 2766 0 
L 2766 531 
Q 2569 213 2275 61 
Q 1981 -91 1556 -91 
Q 1019 -91 701 211 
Q 384 513 384 1019 
Q 384 1609 779 1909 
Q 1175 2209 1959 2209 
L 2766 2209 
L 2766 2266 
Q 2766 2663 2505 2880 
Q 2244 3097 1772 3097 
Q 1472 3097 1187 3025 
Q 903 2953 641 2809 
L 641 3341 
Q 956 3463 1253 3523 
Q 1550 3584 1831 3584 
Q 2591 3584 2966 3190 
Q 3341 2797 3341 1997 
z
" transform="scale(0.015625)"/>
       <path id="DejaVuSans-69" d="M 603 3500 
L 1178 3500 
L 1178 0 
L 603 0 
L 603 3500 
z
M 603 4863 
L 1178 4863 
L 1178 4134 
L 603 4134 
L 603 4863 
z
" transform="scale(0.015625)"/>
       <path id="DejaVuSans-6e" d="M 3513 2113 
L 3513 0 
L 2938 0 
L 2938 2094 
Q 2938 2591 2744 2837 
Q 2550 3084 2163 3084 
Q 1697 3084 1428 2787 
Q 1159 2491 1159 1978 
L 1159 0 
L 581 0 
L 581 3500 
L 1159 3500 
L 1159 2956 
Q 1366 3272 1645 3428 
Q 1925 3584 2291 3584 
Q 2894 3584 3203 3211 
Q 3513 2838 3513 2113 
z
" transform="scale(0.015625)"/>
       <path id="DejaVuSans-20" transform="scale(0.015625)"/>
       <path id="DejaVuSans-5b" d="M 550 4863 
L 1875 4863 
L 1875 4416 
L 1125 4416 
L 1125 -397 
L 1875 -397 
L 1875 -844 
L 550 -844 
L 550 4863 
z
" transform="scale(0.015625)"/>
       <path id="DejaVuSans-2d" d="M 313 2009 
L 1997 2009 
L 1997 1497 
L 313 1497 
L 313 2009 
z
" transform="scale(0.015625)"/>
       <path id="DejaVuSans-5d" d="M 1947 4863 
L 1947 -844 
L 622 -844 
L 622 -397 
L 1369 -397 
L 1369 4416 
L 622 4416 
L 622 4863 
L 1947 4863 
z
" transform="scale(0.015625)"/>
      </defs>
      <use xlink:href="#DejaVuSans-53"/>
      <use xlink:href="#DejaVuSans-74" transform="translate(63.476562 0)"/>
      <use xlink:href="#DejaVuSans-72" transform="translate(102.685547 0)"/>
      <use xlink:href="#DejaVuSans-61" transform="translate(143.798828 0)"/>
      <use xlink:href="#DejaVuSans-69" transform="translate(205.078125 0)"/>
      <use xlink:href="#DejaVuSans-6e" transform="translate(232.861328 0)"/>
      <use xlink:href="#DejaVuSans-20" transform="translate(296.240234 0)"/>
      <use xlink:href="#DejaVuSans-5b" transform="translate(328.027344 0)"/>
      <use xlink:href="#DejaVuSans-2d" transform="translate(367.041016 0)"/>
      <use xlink:href="#DejaVuSans-5d" transform="translate(403.125 0)"/>
     </g>
    </g>
   </g>
   <g id="matplotlib.axis_2">
    <g id="ytick_1">
     <g id="line2d_13">
      <path d="M 50.87 258.276119 
L 450 258.276119 
" clip-path="url(#p9a66f43bb1)" style="fill: none; stroke: #b0b0b0; stroke-opacity: 0.3; stroke-width: 0.8; stroke-linecap: square"/>
     </g>
     <g id="line2d_14">
      <defs>
       <path id="m1ecda7b1e9" d="M 0 0 
L -3.5 0 
" style="stroke: #000000; stroke-width: 0.8"/>
      </defs>
      <g>
       <use xlink:href="#m1ecda7b1e9" x="50.87" y="258.276119" style="stroke: #000000; stroke-width: 0.8"/>
      </g>
     </g>
     <g id="text_8">
      <!-- 0 -->
      <g transform="translate(37.5075 262.075338) scale(0.1 -0.1)">
       <use xlink:href="#DejaVuSans-30"/>
      </g>
     </g>
    </g>
    <g id="ytick_2">
     <g id="line2d_15">
      <path d="M 50.87 209.573859 
L 450 209.573859 
" clip-path="url(#p9a66f43bb1)" style="fill: none; stroke: #b0b0b0; stroke-opacity: 0.3; stroke-width: 0.8; stroke-linecap: square"/>
     </g>
     <g id="line2d_16">
      <g>
       <use xlink:href="#m1ecda7b1e9" x="50.87" y="209.573859" style="stroke: #000000; stroke-width: 0.8"/>
      </g>
     </g>
     <g id="text_9">
      <!-- 200 -->
      <g transform="translate(24.7825 213.373077) scale(0.1 -0.1)">
       <use xlink:href="#DejaVuSans-32"/>
       <use xlink:href="#DejaVuSans-30" transform="translate(63.623047 0)"/>
       <use xlink:href="#DejaVuSans-30" transform="translate(127.246094 0)"/>
      </g>
     </g>
    </g>
    <g id="ytick_3">
     <g id="line2d_17">
      <path d="M 50.87 160.871598 
L 450 160.871598 
" clip-path="url(#p9a66f43bb1)" style="fill: none; stroke: #b0b0b0; stroke-opacity: 0.3; stroke-width: 0.8; stroke-linecap: square"/>
     </g>
     <g id="line2d_18">
      <g>
       <use xlink:href="#m1ecda7b1e9" x="50.87" y="160.871598" style="stroke: #000000; stroke-width: 0.8"/>
      </g>
     </g>
     <g id="text_10">
      <!-- 400 -->
      <g transform="translate(24.7825 164.670817) scale(0.1 -0.1)">
       <use xlink:href="#DejaVuSans-34"/>
       <use xlink:href="#DejaVuSans-30" transform="translate(63.623047 0)"/>
       <use xlink:href="#DejaVuSans-30" transform="translate(127.246094 0)"/>
      </g>
     </g>
    </g>
    <g id="ytick_4">
     <g id="line2d_19">
      <path d="M 50.87 112.169337 
L 450 112.169337 
" clip-path="url(#p9a66f43bb1)" style="fill: none; stroke: #b0b0b0; stroke-opacity: 0.3; stroke-width: 0.8; stroke-linecap: square"/>
     </g>
     <g id="line2d_20">
      <g>
       <use xlink:href="#m1ecda7b1e9" x="50.87" y="112.169337" style="stroke: #000000; stroke-width: 0.8"/>
      </g>
     </g>
     <g id="text_11">
      <!-- 600 -->
      <g transform="translate(24.7825 115.968556) scale(0.1 -0.1)">
       <use xlink:href="#DejaVuSans-36"/>
       <use xlink:href="#DejaVuSans-30" transform="translate(63.623047 0)"/>
       <use xlink:href="#DejaVuSans-30" transform="translate(127.246094 0)"/>
      </g>
     </g>
    </g>
    <g id="ytick_5">
     <g id="line2d_21">
      <path d="M 50.87 63.467077 
L 450 63.467077 
" clip-path="url(#p9a66f43bb1)" style="fill: none; stroke: #b0b0b0; stroke-opacity: 0.3; stroke-width: 0.8; stroke-linecap: square"/>
     </g>
     <g id="line2d_22">
      <g>
       <use xlink:href="#m1ecda7b1e9" x="50.87" y="63.467077" style="stroke: #000000; stroke-width: 0.8"/>
      </g>
     </g>
     <g id="text_12">
      <!-- 800 -->
      <g transform="translate(24.7825 67.266295) scale(0.1 -0.1)">
       <use xlink:href="#DejaVuSans-38"/>
       <use xlink:href="#DejaVuSans-30" transform="translate(63.623047 0)"/>
       <use xlink:href="#DejaVuSans-30" transform="translate(127.246094 0)"/>
      </g>
     </g>
    </g>
    <g id="text_13">
     <!-- Stress [Pa] -->
     <g transform="translate(18.702813 191.967812) rotate(-90) scale(0.1 -0.1)">
      <defs>
       <path id="DejaVuSans-65" d="M 3597 1894 
L 3597 1613 
L 953 1613 
Q 991 1019 1311 708 
Q 1631 397 2203 397 
Q 2534 397 2845 478 
Q 3156 559 3463 722 
L 3463 178 
Q 3153 47 2828 -22 
Q 2503 -91 2169 -91 
Q 1331 -91 842 396 
Q 353 884 353 1716 
Q 353 2575 817 3079 
Q 1281 3584 2069 3584 
Q 2775 3584 3186 3129 
Q 3597 2675 3597 1894 
z
M 3022 2063 
Q 3016 2534 2758 2815 
Q 2500 3097 2075 3097 
Q 1594 3097 1305 2825 
Q 1016 2553 972 2059 
L 3022 2063 
z
" transform="scale(0.015625)"/>
       <path id="DejaVuSans-73" d="M 2834 3397 
L 2834 2853 
Q 2591 2978 2328 3040 
Q 2066 3103 1784 3103 
Q 1356 3103 1142 2972 
Q 928 2841 928 2578 
Q 928 2378 1081 2264 
Q 1234 2150 1697 2047 
L 1894 2003 
Q 2506 1872 2764 1633 
Q 3022 1394 3022 966 
Q 3022 478 2636 193 
Q 2250 -91 1575 -91 
Q 1294 -91 989 -36 
Q 684 19 347 128 
L 347 722 
Q 666 556 975 473 
Q 1284 391 1588 391 
Q 1994 391 2212 530 
Q 2431 669 2431 922 
Q 2431 1156 2273 1281 
Q 2116 1406 1581 1522 
L 1381 1569 
Q 847 1681 609 1914 
Q 372 2147 372 2553 
Q 372 3047 722 3315 
Q 1072 3584 1716 3584 
Q 2034 3584 2315 3537 
Q 2597 3491 2834 3397 
z
" transform="scale(0.015625)"/>
       <path id="DejaVuSans-50" d="M 1259 4147 
L 1259 2394 
L 2053 2394 
Q 2494 2394 2734 2622 
Q 2975 2850 2975 3272 
Q 2975 3691 2734 3919 
Q 2494 4147 2053 4147 
L 1259 4147 
z
M 628 4666 
L 2053 4666 
Q 2838 4666 3239 4311 
Q 3641 3956 3641 3272 
Q 3641 2581 3239 2228 
Q 2838 1875 2053 1875 
L 1259 1875 
L 1259 0 
L 628 0 
L 628 4666 
z
" transform="scale(0.015625)"/>
      </defs>
      <use xlink:href="#DejaVuSans-53"/>
      <use xlink:href="#DejaVuSans-74" transform="translate(63.476562 0)"/>
      <use xlink:href="#DejaVuSans-72" transform="translate(102.685547 0)"/>
      <use xlink:href="#DejaVuSans-65" transform="translate(141.548828 0)"/>
      <use xlink:href="#DejaVuSans-73" transform="translate(203.072266 0)"/>
      <use xlink:href="#DejaVuSans-73" transform="translate(255.171875 0)"/>
      <use xlink:href="#DejaVuSans-20" transform="translate(307.271484 0)"/>
      <use xlink:href="#DejaVuSans-5b" transform="translate(339.058594 0)"/>
      <use xlink:href="#DejaVuSans-50" transform="translate(378.072266 0)"/>
      <use xlink:href="#DejaVuSans-61" transform="translate(433.875 0)"/>
      <use xlink:href="#DejaVuSans-5d" transform="translate(495.154297 0)"/>
     </g>
    </g>
   </g>
   <g id="line2d_23">
    <path d="M 69.278763 258.818277 
L 69.275317 259.161675 
L 69.429152 259.025863 
L 70.639805 258.38541 
L 71.866608 255.961409 
L 73.104695 254.176904 
L 74.374564 254.967098 
L 76.920222 255.655697 
L 78.223714 255.606641 
L 80.79339 255.947673 
L 82.060955 256.629848 
L 83.320691 254.919384 
L 84.565226 252.670946 
L 87.006395 249.804444 
L 89.563175 251.002312 
L 93.340999 250.818347 
L 94.559281 251.104936 
L 95.803586 247.561079 
L 97.057564 245.784403 
L 98.301409 245.772784 
L 99.55976 246.135821 
L 100.819496 245.970169 
L 102.072783 246.512643 
L 103.288301 245.046282 
L 104.523625 243.359953 
L 105.748815 242.740531 
L 108.254007 242.36226 
L 109.48058 241.998878 
L 110.744083 241.059447 
L 111.978255 239.752478 
L 113.206439 238.894683 
L 115.700117 238.425216 
L 116.947876 238.015056 
L 118.156486 237.260828 
L 120.668126 235.380584 
L 121.899304 234.770221 
L 123.142919 234.379824 
L 124.377321 234.128928 
L 125.636136 233.591716 
L 128.13488 231.931182 
L 133.134674 229.499994 
L 135.603939 227.843183 
L 138.079193 226.608724 
L 140.566105 225.470869 
L 145.502564 222.240538 
L 147.929915 221.069861 
L 150.45261 219.793821 
L 152.976687 218.318091 
L 154.24287 217.404214 
L 155.460691 216.67976 
L 157.928575 215.473663 
L 160.413041 214.504858 
L 165.377826 211.209715 
L 171.493876 207.934031 
L 175.187871 205.78839 
L 177.607853 204.130937 
L 182.513682 201.724261 
L 186.206756 199.31874 
L 189.885552 197.489702 
L 191.112117 196.871125 
L 192.373695 196.079936 
L 193.613394 195.109207 
L 197.342165 192.800836 
L 199.810049 191.70639 
L 202.279473 189.91848 
L 204.727551 188.402453 
L 208.441352 186.556058 
L 210.940557 184.434158 
L 215.900275 181.916472 
L 217.130302 181.149667 
L 218.357335 180.168414 
L 219.614307 179.348286 
L 222.061003 178.251595 
L 224.524742 176.662801 
L 228.244991 174.193241 
L 230.665433 172.906934 
L 236.913804 168.730231 
L 238.135771 168.091761 
L 239.366028 167.313792 
L 240.604115 166.866542 
L 241.830227 166.202663 
L 244.324595 164.278913 
L 248.017209 162.115177 
L 250.448706 161.022015 
L 251.70015 160.198742 
L 252.943304 159.098137 
L 257.888975 156.0331 
L 259.101729 155.534196 
L 260.359622 154.44976 
L 262.829391 152.832115 
L 264.093272 152.194416 
L 266.603531 150.723691 
L 269.092602 149.183922 
L 270.349574 148.108213 
L 277.724668 143.591958 
L 278.970586 142.876231 
L 281.467948 141.194138 
L 286.34568 138.174275 
L 290.061324 135.460235 
L 292.517535 133.986815 
L 293.744567 133.37273 
L 296.215675 131.751082 
L 297.464357 130.847857 
L 298.729619 130.209131 
L 301.150522 128.797954 
L 302.407494 128.032561 
L 304.893111 126.076727 
L 311.141107 122.0896 
L 312.400382 121.237195 
L 316.058912 119.245556 
L 319.745307 116.414475 
L 320.990764 115.483529 
L 328.391969 110.965894 
L 332.135248 108.119413 
L 333.396826 107.428197 
L 342.117788 101.819037 
L 343.369693 100.769509 
L 347.047107 98.38157 
L 349.524203 96.982585 
L 352.027092 94.990304 
L 354.512335 93.220028 
L 356.953964 91.72492 
L 358.164876 90.622004 
L 360.599597 89.059519 
L 363.036621 87.513333 
L 365.463972 86.08483 
L 366.723247 84.922111 
L 371.620785 81.355282 
L 372.842291 80.736191 
L 376.574516 77.91204 
L 379.021673 76.334668 
L 380.248706 75.774355 
L 382.715812 74.192315 
L 386.471528 71.341598 
L 387.68244 70.476874 
L 390.128215 69.034126 
L 392.593796 67.184554 
L 393.828198 66.185591 
L 395.057995 64.970767 
L 396.301609 63.924062 
L 397.510679 63.249146 
L 399.974417 61.71836 
L 401.206056 61.033946 
L 402.473161 60.050896 
L 403.719079 58.831196 
L 407.408468 56.051833 
L 411.142075 53.838816 
L 414.841944 50.742353 
L 417.309367 48.800893 
L 419.791069 47.365974 
L 422.275073 45.740733 
L 424.741115 43.671707 
L 425.990947 42.892967 
L 428.442019 41.938985 
L 429.669513 41.604543 
L 430.890097 40.796543 
L 431.196971 40.275116 
L 431.857727 39.58382 
L 431.70193 41.210104 
L 431.520915 43.359178 
L 431.507702 49.082124 
L 431.512797 48.931073 
L 431.501311 71.21376 
L 430.284843 71.393606 
L 429.075658 74.215961 
L 427.83734 76.704772 
L 425.389262 75.659912 
L 422.856895 76.22146 
L 421.608674 76.658699 
L 420.376575 76.418856 
L 419.113615 76.756988 
L 417.897637 76.437497 
L 416.639283 79.383053 
L 415.383233 81.316043 
L 414.106455 82.567314 
L 412.864683 83.590918 
L 411.651929 85.281867 
L 410.429502 86.766709 
L 409.200166 86.75479 
L 407.951945 86.630112 
L 406.663854 86.949026 
L 404.125038 88.373165 
L 402.899848 88.855289 
L 401.659918 92.39889 
L 400.405249 94.205597 
L 399.184665 94.946734 
L 396.729678 95.42079 
L 395.466257 96.253559 
L 394.200765 97.319257 
L 391.71722 99.773032 
L 390.499399 100.676771 
L 389.273748 101.445501 
L 388.043491 102.39005 
L 384.285703 105.896176 
L 383.024125 106.425945 
L 381.757481 106.825774 
L 380.531829 107.44217 
L 379.308021 108.208846 
L 378.094115 109.352572 
L 376.855653 110.893946 
L 375.616645 112.10492 
L 374.362437 112.938074 
L 371.924031 114.002425 
L 370.695616 114.795795 
L 367.027414 118.282414 
L 365.819726 119.014183 
L 364.594075 119.559096 
L 363.375794 120.267636 
L 358.352052 124.319317 
L 357.091856 125.196233 
L 355.841793 125.805057 
L 352.137664 128.803231 
L 348.445051 131.189245 
L 338.412709 138.791384 
L 337.18107 139.268407 
L 335.963249 140.063959 
L 333.4447 142.108344 
L 327.288808 145.915288 
L 326.058781 147.177083 
L 324.800888 148.172197 
L 322.344059 149.437842 
L 316.171413 153.841153 
L 313.717347 155.083441 
L 312.501829 155.935204 
L 311.288153 156.958038 
L 308.850208 158.433383 
L 296.596 166.327172 
L 294.092189 168.200614 
L 292.879435 168.843318 
L 290.442411 170.369356 
L 289.234263 170.949817 
L 287.987885 171.758845 
L 286.750258 172.834039 
L 285.48868 173.694649 
L 283.065474 175.072331 
L 281.809884 175.798068 
L 276.840954 179.149935 
L 275.594576 179.889405 
L 274.356949 180.367454 
L 273.093068 181.065215 
L 270.585112 182.886296 
L 269.372358 183.578922 
L 268.14947 184.546572 
L 265.693562 185.955953 
L 263.275423 187.612893 
L 260.832411 188.894964 
L 259.619196 189.867748 
L 258.403678 190.667406 
L 257.183554 191.230795 
L 255.958508 191.993517 
L 254.730093 192.608373 
L 253.497072 193.008202 
L 252.274185 193.528602 
L 249.764847 195.328636 
L 247.250443 196.94515 
L 242.261937 199.945763 
L 239.810174 201.71397 
L 238.561032 202.368481 
L 237.302679 202.790512 
L 236.066894 203.434564 
L 234.811074 204.303652 
L 232.332136 206.26295 
L 231.120763 207.002035 
L 228.64551 208.035585 
L 227.42861 208.598272 
L 226.177626 209.475573 
L 224.930197 210.57222 
L 223.712837 211.287948 
L 221.237584 212.348512 
L 218.770621 213.965796 
L 217.517795 214.832575 
L 216.295828 215.514614 
L 213.831169 216.394642 
L 210.112761 218.737535 
L 207.649253 220.380487 
L 206.436499 220.789524 
L 203.954797 221.979451 
L 202.713025 222.727519 
L 200.243299 224.733405 
L 197.795221 226.226589 
L 194.064809 227.834777 
L 191.593931 229.581937 
L 187.905002 231.316391 
L 182.942981 234.505785 
L 180.476479 235.501091 
L 179.266948 235.891616 
L 174.313217 239.179187 
L 171.892315 240.391188 
L 170.632579 240.905428 
L 168.148114 242.355491 
L 166.910948 243.250118 
L 165.655746 243.904091 
L 163.212735 244.752902 
L 161.985702 245.342475 
L 160.771566 245.695534 
L 157.035195 248.330134 
L 153.365611 249.957364 
L 152.108639 250.759589 
L 150.864564 251.695412 
L 149.601144 252.372061 
L 145.911294 253.784329 
L 144.703146 254.279896 
L 140.9396 256.856745 
L 137.245144 258.541919 
L 136.006135 259.286136 
L 134.772013 260.261734 
L 133.511357 261.038035 
L 131.043473 261.721743 
L 128.586413 262.965699 
L 127.352701 263.773699 
L 126.11162 264.827847 
L 124.895642 265.572835 
L 122.399201 266.44449 
L 118.703823 268.272051 
L 117.466888 269.133568 
L 113.806976 270.566562 
L 112.550004 271.376487 
L 110.051721 272.600808 
L 108.789222 273.420744 
L 106.323641 274.563957 
L 105.08866 274.908816 
L 96.383819 279.109525 
L 93.862045 280.479507 
L 87.716056 283.39837 
L 86.460927 284.268998 
L 83.987977 284.76706 
L 82.772459 285.404118 
L 80.272333 286.864062 
L 79.028718 287.435027 
L 77.777734 288.132787 
L 74.01581 289.657971 
L 71.554375 290.025377 
L 70.323657 289.996085 
L 69.50005 290.712788 
L 69.300266 291.06 
L 69.013066 289.914417 
L 69.013066 289.914417 
" clip-path="url(#p9a66f43bb1)" style="fill: none; stroke: #ff0000; stroke-width: 2; stroke-linecap: square"/>
   </g>
   <g id="line2d_24">
    <path d="M 69.278763 258.818277 
L 69.275317 259.161675 
L 69.429152 259.025863 
L 70.639805 258.38541 
L 71.866608 255.961409 
L 73.104695 254.176904 
L 74.374564 254.967098 
L 75.652195 260.113335 
L 76.920222 259.14546 
L 78.223714 257.912637 
L 79.529048 257.381308 
L 80.79339 256.537053 
L 82.060955 256.634147 
L 83.320691 254.919384 
L 84.565226 252.670946 
L 87.006395 249.804444 
L 89.563175 251.002312 
L 93.340999 250.818347 
L 94.559281 251.104936 
L 95.803586 247.561079 
L 97.057564 245.784403 
L 98.301409 245.772784 
L 99.55976 246.135821 
L 100.819496 245.970169 
L 102.072783 246.512643 
L 103.288301 245.046282 
L 104.523625 243.359953 
L 105.748815 242.740531 
L 108.254007 242.36226 
L 109.48058 241.998878 
L 110.744083 241.059447 
L 111.978255 239.752478 
L 113.206439 238.894683 
L 115.700117 238.425216 
L 116.947876 238.015056 
L 118.156486 237.260828 
L 120.668126 235.380584 
L 121.899304 234.770221 
L 123.142919 234.379824 
L 124.377321 234.128928 
L 125.636136 233.591716 
L 128.13488 231.931182 
L 133.134674 229.499994 
L 135.603939 227.843183 
L 138.079193 226.608724 
L 140.566105 225.470869 
L 145.502564 222.240538 
L 147.929915 221.069861 
L 150.45261 219.793821 
L 152.976687 218.318091 
L 154.24287 217.404214 
L 155.460691 216.67976 
L 157.928575 215.473663 
L 160.413041 214.504858 
L 165.377826 211.209715 
L 171.493876 207.934031 
L 175.187871 205.78839 
L 177.607853 204.130937 
L 182.513682 201.724261 
L 186.206756 199.31874 
L 189.885552 197.489702 
L 191.112117 196.871125 
L 192.373695 196.079936 
L 193.613394 195.109207 
L 197.342165 192.800836 
L 199.810049 191.70639 
L 202.279473 189.91848 
L 204.727551 188.402453 
L 208.441352 186.556058 
L 210.940557 184.434158 
L 215.900275 181.916472 
L 217.130302 181.149667 
L 218.357335 180.168414 
L 219.614307 179.348286 
L 222.061003 178.251595 
L 224.524742 176.662801 
L 228.244991 174.193241 
L 230.665433 172.906934 
L 236.913804 168.730231 
L 238.135771 168.091761 
L 239.366028 167.313792 
L 240.604115 166.866542 
L 241.830227 166.202663 
L 244.324595 164.278913 
L 248.017209 162.115177 
L 250.448706 161.022015 
L 251.70015 160.198742 
L 252.943304 159.098137 
L 257.888975 156.0331 
L 259.101729 155.534196 
L 260.359622 154.44976 
L 262.829391 152.832115 
L 264.093272 152.194416 
L 266.603531 150.723691 
L 269.092602 149.183922 
L 270.349574 148.108213 
L 277.724668 143.591958 
L 278.970586 142.876231 
L 281.467948 141.194138 
L 286.34568 138.174275 
L 290.061324 135.460235 
L 292.517535 133.986815 
L 293.744567 133.37273 
L 296.215675 131.751082 
L 297.464357 130.847857 
L 298.729619 130.209131 
L 301.150522 128.797954 
L 302.407494 128.032561 
L 304.893111 126.076727 
L 311.141107 122.0896 
L 312.400382 121.237195 
L 316.058912 119.245556 
L 319.745307 116.414475 
L 320.990764 115.483529 
L 328.391969 110.965894 
L 332.135248 108.119413 
L 333.396826 107.428197 
L 342.117788 101.819037 
L 343.369693 100.769509 
L 347.047107 98.38157 
L 349.524203 96.982585 
L 352.027092 94.990304 
L 354.512335 93.220028 
L 356.953964 91.72492 
L 358.164876 90.622004 
L 360.599597 89.059519 
L 363.036621 87.513333 
L 365.463972 86.08483 
L 366.723247 84.922111 
L 371.620785 81.355282 
L 372.842291 80.736191 
L 376.574516 77.91204 
L 379.021673 76.334668 
L 380.248706 75.774355 
L 382.715812 74.192315 
L 386.471528 71.341598 
L 387.68244 70.476874 
L 390.128215 69.034126 
L 392.593796 67.184554 
L 393.828198 66.185591 
L 395.057995 64.970767 
L 396.301609 63.924062 
L 397.510679 63.249146 
L 399.974417 61.71836 
L 401.206056 61.033946 
L 402.473161 60.050896 
L 403.719079 58.831196 
L 407.408468 56.051833 
L 411.142075 53.838816 
L 414.841944 50.742353 
L 417.309367 48.800893 
L 419.791069 47.365974 
L 422.275073 45.740733 
L 424.741115 43.671707 
L 425.990947 42.892967 
L 428.442019 41.938985 
L 429.669513 41.604543 
L 430.890097 40.796543 
L 431.196971 40.275116 
L 431.857727 39.58382 
L 431.794827 39.759575 
L 431.70193 39.984315 
L 431.625989 39.46 
L 431.508968 52.110778 
L 431.511271 51.98148 
L 431.501311 71.21376 
L 430.284843 71.393606 
L 429.075658 74.215961 
L 427.83734 76.704772 
L 425.389262 75.659912 
L 422.856895 76.22146 
L 421.608674 76.658699 
L 420.376575 76.418856 
L 419.113615 76.756988 
L 417.897637 76.437497 
L 416.639283 79.383053 
L 415.383233 81.316043 
L 414.106455 82.567314 
L 412.864683 83.590918 
L 411.651929 85.281867 
L 410.429502 86.766709 
L 409.200166 86.75479 
L 407.951945 86.630112 
L 406.663854 86.949026 
L 404.125038 88.373165 
L 402.899848 88.855289 
L 401.659918 92.39889 
L 400.405249 94.205597 
L 399.184665 94.946734 
L 396.729678 95.42079 
L 395.466257 96.253559 
L 394.200765 97.319257 
L 391.71722 99.773032 
L 390.499399 100.676771 
L 389.273748 101.445501 
L 388.043491 102.39005 
L 384.285703 105.896176 
L 383.024125 106.425945 
L 381.757481 106.825774 
L 380.531829 107.44217 
L 379.308021 108.208846 
L 378.094115 109.352572 
L 376.855653 110.893946 
L 375.616645 112.10492 
L 374.362437 112.938074 
L 371.924031 114.002425 
L 370.695616 114.795795 
L 367.027414 118.282414 
L 365.819726 119.014183 
L 364.594075 119.559096 
L 363.375794 120.267636 
L 358.352052 124.319317 
L 357.091856 125.196233 
L 355.841793 125.805057 
L 352.137664 128.803231 
L 348.445051 131.189245 
L 338.412709 138.791384 
L 337.18107 139.268407 
L 335.963249 140.063959 
L 333.4447 142.108344 
L 327.288808 145.915288 
L 326.058781 147.177083 
L 324.800888 148.172197 
L 322.344059 149.437842 
L 316.171413 153.841153 
L 313.717347 155.083441 
L 312.501829 155.935204 
L 311.288153 156.958038 
L 308.850208 158.433383 
L 296.596 166.327172 
L 294.092189 168.200614 
L 292.879435 168.843318 
L 290.442411 170.369356 
L 289.234263 170.949817 
L 287.987885 171.758845 
L 286.750258 172.834039 
L 285.48868 173.694649 
L 283.065474 175.072331 
L 281.809884 175.798068 
L 276.840954 179.149935 
L 275.594576 179.889405 
L 274.356949 180.367454 
L 273.093068 181.065215 
L 270.585112 182.886296 
L 269.372358 183.578922 
L 268.14947 184.546572 
L 265.693562 185.955953 
L 263.275423 187.612893 
L 260.832411 188.894964 
L 259.619196 189.867748 
L 258.403678 190.667406 
L 257.183554 191.230795 
L 255.958508 191.993517 
L 254.730093 192.608373 
L 253.497072 193.008202 
L 252.274185 193.528602 
L 249.764847 195.328636 
L 247.250443 196.94515 
L 242.261937 199.945763 
L 239.810174 201.71397 
L 238.561032 202.368481 
L 237.302679 202.790512 
L 236.066894 203.434564 
L 234.811074 204.303652 
L 232.332136 206.26295 
L 231.120763 207.002035 
L 228.64551 208.035585 
L 227.42861 208.598272 
L 226.177626 209.475573 
L 224.930197 210.57222 
L 223.712837 211.287948 
L 221.237584 212.348512 
L 218.770621 213.965796 
L 217.517795 214.832575 
L 216.295828 215.514614 
L 213.831169 216.394642 
L 210.112761 218.737535 
L 207.649253 220.380487 
L 206.436499 220.789524 
L 203.954797 222.064959 
L 202.713025 222.727519 
L 200.243299 224.733405 
L 197.795221 226.226589 
L 194.064809 227.834777 
L 191.593931 229.581937 
L 187.905002 231.316391 
L 182.942981 234.505785 
L 180.476479 235.501091 
L 179.266948 235.891616 
L 174.313217 239.179187 
L 171.892315 240.391188 
L 170.632579 240.905428 
L 168.148114 242.355491 
L 166.910948 243.250118 
L 165.655746 243.904091 
L 163.212735 244.752902 
L 161.985702 245.342475 
L 160.771566 245.695534 
L 157.035195 248.330134 
L 153.365611 249.957364 
L 152.108639 250.759589 
L 150.864564 251.695412 
L 149.601144 252.372061 
L 145.911294 253.784329 
L 144.703146 254.279896 
L 140.9396 256.856745 
L 137.245144 258.541919 
L 136.006135 259.286136 
L 134.772013 260.261734 
L 133.511357 261.038035 
L 131.043473 261.721743 
L 128.586413 262.965699 
L 127.352701 263.773699 
L 126.11162 264.827847 
L 124.895642 265.572835 
L 122.399201 266.44449 
L 118.703823 268.272051 
L 117.466888 269.133568 
L 113.806976 270.566562 
L 112.550004 271.376487 
L 110.051721 272.600808 
L 108.789222 273.420744 
L 106.323641 274.563957 
L 105.08866 274.908816 
L 96.383819 279.109525 
L 93.862045 280.479507 
L 87.716056 283.39837 
L 86.460927 284.268998 
L 83.987977 284.76706 
L 82.772459 285.404118 
L 80.272333 286.864062 
L 79.028718 287.435027 
L 77.777734 288.132787 
L 74.01581 289.657971 
L 71.554375 290.025377 
L 70.323657 289.996085 
L 69.50005 290.712788 
L 69.300266 291.06 
L 69.013066 289.914417 
L 69.013066 289.914417 
" clip-path="url(#p9a66f43bb1)" style="fill: none; stroke: #000000; stroke-width: 2; stroke-linecap: square"/>
   </g>
   <g id="patch_3">
    <path d="M 50.87 303.64 
L 50.87 26.88 
" style="fill: none; stroke: #000000; stroke-width: 0.8; stroke-linejoin: miter; stroke-linecap: square"/>
   </g>
   <g id="patch_4">
    <path d="M 450 303.64 
L 450 26.88 
" style="fill: none; stroke: #000000; stroke-width: 0.8; stroke-linejoin: miter; stroke-linecap: square"/>
   </g>
   <g id="patch_5">
    <path d="M 50.87 303.64 
L 450 303.64 
" style="fill: none; stroke: #000000; stroke-width: 0.8; stroke-linejoin: miter; stroke-linecap: square"/>
   </g>
   <g id="patch_6">
    <path d="M 50.87 26.88 
L 450 26.88 
" style="fill: none; stroke: #000000; stroke-width: 0.8; stroke-linejoin: miter; stroke-linecap: square"/>
   </g>
   <g id="text_14">
    <!-- 2025-07-02 Trial 5 - Stress vs Strain -->
    <g transform="translate(142.998438 20.88) scale(0.12 -0.12)">
     <defs>
      <path id="DejaVuSans-35" d="M 691 4666 
L 3169 4666 
L 3169 4134 
L 1269 4134 
L 1269 2991 
Q 1406 3038 1543 3061 
Q 1681 3084 1819 3084 
Q 2600 3084 3056 2656 
Q 3513 2228 3513 1497 
Q 3513 744 3044 326 
Q 2575 -91 1722 -91 
Q 1428 -91 1123 -41 
Q 819 9 494 109 
L 494 744 
Q 775 591 1075 516 
Q 1375 441 1709 441 
Q 2250 441 2565 725 
Q 2881 1009 2881 1497 
Q 2881 1984 2565 2268 
Q 2250 2553 1709 2553 
Q 1456 2553 1204 2497 
Q 953 2441 691 2322 
L 691 4666 
z
" transform="scale(0.015625)"/>
      <path id="DejaVuSans-37" d="M 525 4666 
L 3525 4666 
L 3525 4397 
L 1831 0 
L 1172 0 
L 2766 4134 
L 525 4134 
L 525 4666 
z
" transform="scale(0.015625)"/>
      <path id="DejaVuSans-54" d="M -19 4666 
L 3928 4666 
L 3928 4134 
L 2272 4134 
L 2272 0 
L 1638 0 
L 1638 4134 
L -19 4134 
L -19 4666 
z
" transform="scale(0.015625)"/>
      <path id="DejaVuSans-6c" d="M 603 4863 
L 1178 4863 
L 1178 0 
L 603 0 
L 603 4863 
z
" transform="scale(0.015625)"/>
      <path id="DejaVuSans-76" d="M 191 3500 
L 800 3500 
L 1894 563 
L 2988 3500 
L 3597 3500 
L 2284 0 
L 1503 0 
L 191 3500 
z
" transform="scale(0.015625)"/>
     </defs>
     <use xlink:href="#DejaVuSans-32"/>
     <use xlink:href="#DejaVuSans-30" transform="translate(63.623047 0)"/>
     <use xlink:href="#DejaVuSans-32" transform="translate(127.246094 0)"/>
     <use xlink:href="#DejaVuSans-35" transform="translate(190.869141 0)"/>
     <use xlink:href="#DejaVuSans-2d" transform="translate(254.492188 0)"/>
     <use xlink:href="#DejaVuSans-30" transform="translate(290.576172 0)"/>
     <use xlink:href="#DejaVuSans-37" transform="translate(354.199219 0)"/>
     <use xlink:href="#DejaVuSans-2d" transform="translate(417.822266 0)"/>
     <use xlink:href="#DejaVuSans-30" transform="translate(453.90625 0)"/>
     <use xlink:href="#DejaVuSans-32" transform="translate(517.529297 0)"/>
     <use xlink:href="#DejaVuSans-20" transform="translate(581.152344 0)"/>
     <use xlink:href="#DejaVuSans-54" transform="translate(612.939453 0)"/>
     <use xlink:href="#DejaVuSans-72" transform="translate(659.273438 0)"/>
     <use xlink:href="#DejaVuSans-69" transform="translate(700.386719 0)"/>
     <use xlink:href="#DejaVuSans-61" transform="translate(728.169922 0)"/>
     <use xlink:href="#DejaVuSans-6c" transform="translate(789.449219 0)"/>
     <use xlink:href="#DejaVuSans-20" transform="translate(817.232422 0)"/>
     <use xlink:href="#DejaVuSans-35" transform="translate(849.019531 0)"/>
     <use xlink:href="#DejaVuSans-20" transform="translate(912.642578 0)"/>
     <use xlink:href="#DejaVuSans-2d" transform="translate(944.429688 0)"/>
     <use xlink:href="#DejaVuSans-20" transform="translate(980.513672 0)"/>
     <use xlink:href="#DejaVuSans-53" transform="translate(1012.300781 0)"/>
     <use xlink:href="#DejaVuSans-74" transform="translate(1075.777344 0)"/>
     <use xlink:href="#DejaVuSans-72" transform="translate(1114.986328 0)"/>
     <use xlink:href="#DejaVuSans-65" transform="translate(1153.849609 0)"/>
     <use xlink:href="#DejaVuSans-73" transform="translate(1215.373047 0)"/>
     <use xlink:href="#DejaVuSans-73" transform="translate(1267.472656 0)"/>
     <use xlink:href="#DejaVuSans-20" transform="translate(1319.572266 0)"/>
     <use xlink:href="#DejaVuSans-76" transform="translate(1351.359375 0)"/>
     <use xlink:href="#DejaVuSans-73" transform="translate(1410.539062 0)"/>
     <use xlink:href="#DejaVuSans-20" transform="translate(1462.638672 0)"/>
     <use xlink:href="#DejaVuSans-53" transform="translate(1494.425781 0)"/>
     <use xlink:href="#DejaVuSans-74" transform="translate(1557.902344 0)"/>
     <use xlink:href="#DejaVuSans-72" transform="translate(1597.111328 0)"/>
     <use xlink:href="#DejaVuSans-61" transform="translate(1638.224609 0)"/>
     <use xlink:href="#DejaVuSans-69" transform="translate(1699.503906 0)"/>
     <use xlink:href="#DejaVuSans-6e" transform="translate(1727.287109 0)"/>
    </g>
   </g>
   <g id="legend_1">
    <g id="patch_7">
     <path d="M 57.87 64.23625 
L 163.854375 64.23625 
Q 165.854375 64.23625 165.854375 62.23625 
L 165.854375 33.88 
Q 165.854375 31.88 163.854375 31.88 
L 57.87 31.88 
Q 55.87 31.88 55.87 33.88 
L 55.87 62.23625 
Q 55.87 64.23625 57.87 64.23625 
z
" style="fill: #ffffff; opacity: 0.8; stroke: #cccccc; stroke-linejoin: miter"/>
    </g>
    <g id="line2d_25">
     <path d="M 59.87 39.978437 
L 69.87 39.978437 
L 79.87 39.978437 
" style="fill: none; stroke: #ff0000; stroke-width: 2; stroke-linecap: square"/>
    </g>
    <g id="text_15">
     <!-- Raw Force -->
     <g transform="translate(87.87 43.478437) scale(0.1 -0.1)">
      <defs>
       <path id="DejaVuSans-52" d="M 2841 2188 
Q 3044 2119 3236 1894 
Q 3428 1669 3622 1275 
L 4263 0 
L 3584 0 
L 2988 1197 
Q 2756 1666 2539 1819 
Q 2322 1972 1947 1972 
L 1259 1972 
L 1259 0 
L 628 0 
L 628 4666 
L 2053 4666 
Q 2853 4666 3247 4331 
Q 3641 3997 3641 3322 
Q 3641 2881 3436 2590 
Q 3231 2300 2841 2188 
z
M 1259 4147 
L 1259 2491 
L 2053 2491 
Q 2509 2491 2742 2702 
Q 2975 2913 2975 3322 
Q 2975 3731 2742 3939 
Q 2509 4147 2053 4147 
L 1259 4147 
z
" transform="scale(0.015625)"/>
       <path id="DejaVuSans-77" d="M 269 3500 
L 844 3500 
L 1563 769 
L 2278 3500 
L 2956 3500 
L 3675 769 
L 4391 3500 
L 4966 3500 
L 4050 0 
L 3372 0 
L 2619 2869 
L 1863 0 
L 1184 0 
L 269 3500 
z
" transform="scale(0.015625)"/>
       <path id="DejaVuSans-46" d="M 628 4666 
L 3309 4666 
L 3309 4134 
L 1259 4134 
L 1259 2759 
L 3109 2759 
L 3109 2228 
L 1259 2228 
L 1259 0 
L 628 0 
L 628 4666 
z
" transform="scale(0.015625)"/>
       <path id="DejaVuSans-6f" d="M 1959 3097 
Q 1497 3097 1228 2736 
Q 959 2375 959 1747 
Q 959 1119 1226 758 
Q 1494 397 1959 397 
Q 2419 397 2687 759 
Q 2956 1122 2956 1747 
Q 2956 2369 2687 2733 
Q 2419 3097 1959 3097 
z
M 1959 3584 
Q 2709 3584 3137 3096 
Q 3566 2609 3566 1747 
Q 3566 888 3137 398 
Q 2709 -91 1959 -91 
Q 1206 -91 779 398 
Q 353 888 353 1747 
Q 353 2609 779 3096 
Q 1206 3584 1959 3584 
z
" transform="scale(0.015625)"/>
       <path id="DejaVuSans-63" d="M 3122 3366 
L 3122 2828 
Q 2878 2963 2633 3030 
Q 2388 3097 2138 3097 
Q 1578 3097 1268 2742 
Q 959 2388 959 1747 
Q 959 1106 1268 751 
Q 1578 397 2138 397 
Q 2388 397 2633 464 
Q 2878 531 3122 666 
L 3122 134 
Q 2881 22 2623 -34 
Q 2366 -91 2075 -91 
Q 1284 -91 818 406 
Q 353 903 353 1747 
Q 353 2603 823 3093 
Q 1294 3584 2113 3584 
Q 2378 3584 2631 3529 
Q 2884 3475 3122 3366 
z
" transform="scale(0.015625)"/>
      </defs>
      <use xlink:href="#DejaVuSans-52"/>
      <use xlink:href="#DejaVuSans-61" transform="translate(67.232422 0)"/>
      <use xlink:href="#DejaVuSans-77" transform="translate(128.511719 0)"/>
      <use xlink:href="#DejaVuSans-20" transform="translate(210.298828 0)"/>
      <use xlink:href="#DejaVuSans-46" transform="translate(242.085938 0)"/>
      <use xlink:href="#DejaVuSans-6f" transform="translate(295.980469 0)"/>
      <use xlink:href="#DejaVuSans-72" transform="translate(357.162109 0)"/>
      <use xlink:href="#DejaVuSans-63" transform="translate(396.025391 0)"/>
      <use xlink:href="#DejaVuSans-65" transform="translate(451.005859 0)"/>
     </g>
    </g>
    <g id="line2d_26">
     <path d="M 59.87 54.656563 
L 69.87 54.656563 
L 79.87 54.656563 
" style="fill: none; stroke: #000000; stroke-width: 2; stroke-linecap: square"/>
    </g>
    <g id="text_16">
     <!-- Adjusted Force -->
     <g transform="translate(87.87 58.156563) scale(0.1 -0.1)">
      <defs>
       <path id="DejaVuSans-41" d="M 2188 4044 
L 1331 1722 
L 3047 1722 
L 2188 4044 
z
M 1831 4666 
L 2547 4666 
L 4325 0 
L 3669 0 
L 3244 1197 
L 1141 1197 
L 716 0 
L 50 0 
L 1831 4666 
z
" transform="scale(0.015625)"/>
       <path id="DejaVuSans-64" d="M 2906 2969 
L 2906 4863 
L 3481 4863 
L 3481 0 
L 2906 0 
L 2906 525 
Q 2725 213 2448 61 
Q 2172 -91 1784 -91 
Q 1150 -91 751 415 
Q 353 922 353 1747 
Q 353 2572 751 3078 
Q 1150 3584 1784 3584 
Q 2172 3584 2448 3432 
Q 2725 3281 2906 2969 
z
M 947 1747 
Q 947 1113 1208 752 
Q 1469 391 1925 391 
Q 2381 391 2643 752 
Q 2906 1113 2906 1747 
Q 2906 2381 2643 2742 
Q 2381 3103 1925 3103 
Q 1469 3103 1208 2742 
Q 947 2381 947 1747 
z
" transform="scale(0.015625)"/>
       <path id="DejaVuSans-6a" d="M 603 3500 
L 1178 3500 
L 1178 -63 
Q 1178 -731 923 -1031 
Q 669 -1331 103 -1331 
L -116 -1331 
L -116 -844 
L 38 -844 
Q 366 -844 484 -692 
Q 603 -541 603 -63 
L 603 3500 
z
M 603 4863 
L 1178 4863 
L 1178 4134 
L 603 4134 
L 603 4863 
z
" transform="scale(0.015625)"/>
       <path id="DejaVuSans-75" d="M 544 1381 
L 544 3500 
L 1119 3500 
L 1119 1403 
Q 1119 906 1312 657 
Q 1506 409 1894 409 
Q 2359 409 2629 706 
Q 2900 1003 2900 1516 
L 2900 3500 
L 3475 3500 
L 3475 0 
L 2900 0 
L 2900 538 
Q 2691 219 2414 64 
Q 2138 -91 1772 -91 
Q 1169 -91 856 284 
Q 544 659 544 1381 
z
M 1991 3584 
L 1991 3584 
z
" transform="scale(0.015625)"/>
      </defs>
      <use xlink:href="#DejaVuSans-41"/>
      <use xlink:href="#DejaVuSans-64" transform="translate(66.658203 0)"/>
      <use xlink:href="#DejaVuSans-6a" transform="translate(130.134766 0)"/>
      <use xlink:href="#DejaVuSans-75" transform="translate(157.917969 0)"/>
      <use xlink:href="#DejaVuSans-73" transform="translate(221.296875 0)"/>
      <use xlink:href="#DejaVuSans-74" transform="translate(273.396484 0)"/>
      <use xlink:href="#DejaVuSans-65" transform="translate(312.605469 0)"/>
      <use xlink:href="#DejaVuSans-64" transform="translate(374.128906 0)"/>
      <use xlink:href="#DejaVuSans-20" transform="translate(437.605469 0)"/>
      <use xlink:href="#DejaVuSans-46" transform="translate(469.392578 0)"/>
      <use xlink:href="#DejaVuSans-6f" transform="translate(523.287109 0)"/>
      <use xlink:href="#DejaVuSans-72" transform="translate(584.46875 0)"/>
      <use xlink:href="#DejaVuSans-63" transform="translate(623.332031 0)"/>
      <use xlink:href="#DejaVuSans-65" transform="translate(678.3125 0)"/>
     </g>
    </g>
   </g>
  </g>
 </g>
 <defs>
  <clipPath id="p9a66f43bb1">
   <rect x="50.87" y="26.88" width="399.13" height="276.76"/>
  </clipPath>
 </defs>
</svg>
