<?xml version="1.0" encoding="utf-8" standalone="no"?>
<!DOCTYPE svg PUBLIC "-//W3C//DTD SVG 1.1//EN"
  "http://www.w3.org/Graphics/SVG/1.1/DTD/svg11.dtd">
<svg xmlns:xlink="http://www.w3.org/1999/xlink" width="460.8pt" height="345.6pt" viewBox="0 0 460.8 345.6" xmlns="http://www.w3.org/2000/svg" version="1.1">
 <metadata>
  <rdf:RDF xmlns:dc="http://purl.org/dc/elements/1.1/" xmlns:cc="http://creativecommons.org/ns#" xmlns:rdf="http://www.w3.org/1999/02/22-rdf-syntax-ns#">
   <cc:Work>
    <dc:type rdf:resource="http://purl.org/dc/dcmitype/StillImage"/>
    <dc:date>2025-07-28T21:14:51.911867</dc:date>
    <dc:format>image/svg+xml</dc:format>
    <dc:creator>
     <cc:Agent>
      <dc:title>Matplotlib v3.10.3, https://matplotlib.org/</dc:title>
     </cc:Agent>
    </dc:creator>
   </cc:Work>
  </rdf:RDF>
 </metadata>
 <defs>
  <style type="text/css">*{stroke-linejoin: round; stroke-linecap: butt}</style>
 </defs>
 <g id="figure_1">
  <g id="patch_1">
   <path d="M 0 345.6 
L 460.8 345.6 
L 460.8 0 
L 0 0 
z
" style="fill: #ffffff"/>
  </g>
  <g id="axes_1">
   <g id="patch_2">
    <path d="M 50.87 303.64 
L 450 303.64 
L 450 26.88 
L 50.87 26.88 
z
" style="fill: #ffffff"/>
   </g>
   <g id="matplotlib.axis_1">
    <g id="xtick_1">
     <g id="line2d_1">
      <path d="M 69.289691 303.64 
L 69.289691 26.88 
" clip-path="url(#p164a75fb52)" style="fill: none; stroke: #b0b0b0; stroke-opacity: 0.3; stroke-width: 0.8; stroke-linecap: square"/>
     </g>
     <g id="line2d_2">
      <defs>
       <path id="m2ac8574a4c" d="M 0 0 
L 0 3.5 
" style="stroke: #000000; stroke-width: 0.8"/>
      </defs>
      <g>
       <use xlink:href="#m2ac8574a4c" x="69.289691" y="303.64" style="stroke: #000000; stroke-width: 0.8"/>
      </g>
     </g>
     <g id="text_1">
      <!-- 0.00 -->
      <g transform="translate(58.156878 318.238437) scale(0.1 -0.1)">
       <defs>
        <path id="DejaVuSans-30" d="M 2034 4250 
Q 1547 4250 1301 3770 
Q 1056 3291 1056 2328 
Q 1056 1369 1301 889 
Q 1547 409 2034 409 
Q 2525 409 2770 889 
Q 3016 1369 3016 2328 
Q 3016 3291 2770 3770 
Q 2525 4250 2034 4250 
z
M 2034 4750 
Q 2819 4750 3233 4129 
Q 3647 3509 3647 2328 
Q 3647 1150 3233 529 
Q 2819 -91 2034 -91 
Q 1250 -91 836 529 
Q 422 1150 422 2328 
Q 422 3509 836 4129 
Q 1250 4750 2034 4750 
z
" transform="scale(0.015625)"/>
        <path id="DejaVuSans-2e" d="M 684 794 
L 1344 794 
L 1344 0 
L 684 0 
L 684 794 
z
" transform="scale(0.015625)"/>
       </defs>
       <use xlink:href="#DejaVuSans-30"/>
       <use xlink:href="#DejaVuSans-2e" transform="translate(63.623047 0)"/>
       <use xlink:href="#DejaVuSans-30" transform="translate(95.410156 0)"/>
       <use xlink:href="#DejaVuSans-30" transform="translate(159.033203 0)"/>
      </g>
     </g>
    </g>
    <g id="xtick_2">
     <g id="line2d_3">
      <path d="M 136.917021 303.64 
L 136.917021 26.88 
" clip-path="url(#p164a75fb52)" style="fill: none; stroke: #b0b0b0; stroke-opacity: 0.3; stroke-width: 0.8; stroke-linecap: square"/>
     </g>
     <g id="line2d_4">
      <g>
       <use xlink:href="#m2ac8574a4c" x="136.917021" y="303.64" style="stroke: #000000; stroke-width: 0.8"/>
      </g>
     </g>
     <g id="text_2">
      <!-- 0.02 -->
      <g transform="translate(125.784209 318.238437) scale(0.1 -0.1)">
       <defs>
        <path id="DejaVuSans-32" d="M 1228 531 
L 3431 531 
L 3431 0 
L 469 0 
L 469 531 
Q 828 903 1448 1529 
Q 2069 2156 2228 2338 
Q 2531 2678 2651 2914 
Q 2772 3150 2772 3378 
Q 2772 3750 2511 3984 
Q 2250 4219 1831 4219 
Q 1534 4219 1204 4116 
Q 875 4013 500 3803 
L 500 4441 
Q 881 4594 1212 4672 
Q 1544 4750 1819 4750 
Q 2544 4750 2975 4387 
Q 3406 4025 3406 3419 
Q 3406 3131 3298 2873 
Q 3191 2616 2906 2266 
Q 2828 2175 2409 1742 
Q 1991 1309 1228 531 
z
" transform="scale(0.015625)"/>
       </defs>
       <use xlink:href="#DejaVuSans-30"/>
       <use xlink:href="#DejaVuSans-2e" transform="translate(63.623047 0)"/>
       <use xlink:href="#DejaVuSans-30" transform="translate(95.410156 0)"/>
       <use xlink:href="#DejaVuSans-32" transform="translate(159.033203 0)"/>
      </g>
     </g>
    </g>
    <g id="xtick_3">
     <g id="line2d_5">
      <path d="M 204.544352 303.64 
L 204.544352 26.88 
" clip-path="url(#p164a75fb52)" style="fill: none; stroke: #b0b0b0; stroke-opacity: 0.3; stroke-width: 0.8; stroke-linecap: square"/>
     </g>
     <g id="line2d_6">
      <g>
       <use xlink:href="#m2ac8574a4c" x="204.544352" y="303.64" style="stroke: #000000; stroke-width: 0.8"/>
      </g>
     </g>
     <g id="text_3">
      <!-- 0.04 -->
      <g transform="translate(193.411539 318.238437) scale(0.1 -0.1)">
       <defs>
        <path id="DejaVuSans-34" d="M 2419 4116 
L 825 1625 
L 2419 1625 
L 2419 4116 
z
M 2253 4666 
L 3047 4666 
L 3047 1625 
L 3713 1625 
L 3713 1100 
L 3047 1100 
L 3047 0 
L 2419 0 
L 2419 1100 
L 313 1100 
L 313 1709 
L 2253 4666 
z
" transform="scale(0.015625)"/>
       </defs>
       <use xlink:href="#DejaVuSans-30"/>
       <use xlink:href="#DejaVuSans-2e" transform="translate(63.623047 0)"/>
       <use xlink:href="#DejaVuSans-30" transform="translate(95.410156 0)"/>
       <use xlink:href="#DejaVuSans-34" transform="translate(159.033203 0)"/>
      </g>
     </g>
    </g>
    <g id="xtick_4">
     <g id="line2d_7">
      <path d="M 272.171682 303.64 
L 272.171682 26.88 
" clip-path="url(#p164a75fb52)" style="fill: none; stroke: #b0b0b0; stroke-opacity: 0.3; stroke-width: 0.8; stroke-linecap: square"/>
     </g>
     <g id="line2d_8">
      <g>
       <use xlink:href="#m2ac8574a4c" x="272.171682" y="303.64" style="stroke: #000000; stroke-width: 0.8"/>
      </g>
     </g>
     <g id="text_4">
      <!-- 0.06 -->
      <g transform="translate(261.03887 318.238437) scale(0.1 -0.1)">
       <defs>
        <path id="DejaVuSans-36" d="M 2113 2584 
Q 1688 2584 1439 2293 
Q 1191 2003 1191 1497 
Q 1191 994 1439 701 
Q 1688 409 2113 409 
Q 2538 409 2786 701 
Q 3034 994 3034 1497 
Q 3034 2003 2786 2293 
Q 2538 2584 2113 2584 
z
M 3366 4563 
L 3366 3988 
Q 3128 4100 2886 4159 
Q 2644 4219 2406 4219 
Q 1781 4219 1451 3797 
Q 1122 3375 1075 2522 
Q 1259 2794 1537 2939 
Q 1816 3084 2150 3084 
Q 2853 3084 3261 2657 
Q 3669 2231 3669 1497 
Q 3669 778 3244 343 
Q 2819 -91 2113 -91 
Q 1303 -91 875 529 
Q 447 1150 447 2328 
Q 447 3434 972 4092 
Q 1497 4750 2381 4750 
Q 2619 4750 2861 4703 
Q 3103 4656 3366 4563 
z
" transform="scale(0.015625)"/>
       </defs>
       <use xlink:href="#DejaVuSans-30"/>
       <use xlink:href="#DejaVuSans-2e" transform="translate(63.623047 0)"/>
       <use xlink:href="#DejaVuSans-30" transform="translate(95.410156 0)"/>
       <use xlink:href="#DejaVuSans-36" transform="translate(159.033203 0)"/>
      </g>
     </g>
    </g>
    <g id="xtick_5">
     <g id="line2d_9">
      <path d="M 339.799013 303.64 
L 339.799013 26.88 
" clip-path="url(#p164a75fb52)" style="fill: none; stroke: #b0b0b0; stroke-opacity: 0.3; stroke-width: 0.8; stroke-linecap: square"/>
     </g>
     <g id="line2d_10">
      <g>
       <use xlink:href="#m2ac8574a4c" x="339.799013" y="303.64" style="stroke: #000000; stroke-width: 0.8"/>
      </g>
     </g>
     <g id="text_5">
      <!-- 0.08 -->
      <g transform="translate(328.6662 318.238437) scale(0.1 -0.1)">
       <defs>
        <path id="DejaVuSans-38" d="M 2034 2216 
Q 1584 2216 1326 1975 
Q 1069 1734 1069 1313 
Q 1069 891 1326 650 
Q 1584 409 2034 409 
Q 2484 409 2743 651 
Q 3003 894 3003 1313 
Q 3003 1734 2745 1975 
Q 2488 2216 2034 2216 
z
M 1403 2484 
Q 997 2584 770 2862 
Q 544 3141 544 3541 
Q 544 4100 942 4425 
Q 1341 4750 2034 4750 
Q 2731 4750 3128 4425 
Q 3525 4100 3525 3541 
Q 3525 3141 3298 2862 
Q 3072 2584 2669 2484 
Q 3125 2378 3379 2068 
Q 3634 1759 3634 1313 
Q 3634 634 3220 271 
Q 2806 -91 2034 -91 
Q 1263 -91 848 271 
Q 434 634 434 1313 
Q 434 1759 690 2068 
Q 947 2378 1403 2484 
z
M 1172 3481 
Q 1172 3119 1398 2916 
Q 1625 2713 2034 2713 
Q 2441 2713 2670 2916 
Q 2900 3119 2900 3481 
Q 2900 3844 2670 4047 
Q 2441 4250 2034 4250 
Q 1625 4250 1398 4047 
Q 1172 3844 1172 3481 
z
" transform="scale(0.015625)"/>
       </defs>
       <use xlink:href="#DejaVuSans-30"/>
       <use xlink:href="#DejaVuSans-2e" transform="translate(63.623047 0)"/>
       <use xlink:href="#DejaVuSans-30" transform="translate(95.410156 0)"/>
       <use xlink:href="#DejaVuSans-38" transform="translate(159.033203 0)"/>
      </g>
     </g>
    </g>
    <g id="xtick_6">
     <g id="line2d_11">
      <path d="M 407.426343 303.64 
L 407.426343 26.88 
" clip-path="url(#p164a75fb52)" style="fill: none; stroke: #b0b0b0; stroke-opacity: 0.3; stroke-width: 0.8; stroke-linecap: square"/>
     </g>
     <g id="line2d_12">
      <g>
       <use xlink:href="#m2ac8574a4c" x="407.426343" y="303.64" style="stroke: #000000; stroke-width: 0.8"/>
      </g>
     </g>
     <g id="text_6">
      <!-- 0.10 -->
      <g transform="translate(396.293531 318.238437) scale(0.1 -0.1)">
       <defs>
        <path id="DejaVuSans-31" d="M 794 531 
L 1825 531 
L 1825 4091 
L 703 3866 
L 703 4441 
L 1819 4666 
L 2450 4666 
L 2450 531 
L 3481 531 
L 3481 0 
L 794 0 
L 794 531 
z
" transform="scale(0.015625)"/>
       </defs>
       <use xlink:href="#DejaVuSans-30"/>
       <use xlink:href="#DejaVuSans-2e" transform="translate(63.623047 0)"/>
       <use xlink:href="#DejaVuSans-31" transform="translate(95.410156 0)"/>
       <use xlink:href="#DejaVuSans-30" transform="translate(159.033203 0)"/>
      </g>
     </g>
    </g>
    <g id="text_7">
     <!-- Strain [-] -->
     <g transform="translate(228.32875 331.916562) scale(0.1 -0.1)">
      <defs>
       <path id="DejaVuSans-53" d="M 3425 4513 
L 3425 3897 
Q 3066 4069 2747 4153 
Q 2428 4238 2131 4238 
Q 1616 4238 1336 4038 
Q 1056 3838 1056 3469 
Q 1056 3159 1242 3001 
Q 1428 2844 1947 2747 
L 2328 2669 
Q 3034 2534 3370 2195 
Q 3706 1856 3706 1288 
Q 3706 609 3251 259 
Q 2797 -91 1919 -91 
Q 1588 -91 1214 -16 
Q 841 59 441 206 
L 441 856 
Q 825 641 1194 531 
Q 1563 422 1919 422 
Q 2459 422 2753 634 
Q 3047 847 3047 1241 
Q 3047 1584 2836 1778 
Q 2625 1972 2144 2069 
L 1759 2144 
Q 1053 2284 737 2584 
Q 422 2884 422 3419 
Q 422 4038 858 4394 
Q 1294 4750 2059 4750 
Q 2388 4750 2728 4690 
Q 3069 4631 3425 4513 
z
" transform="scale(0.015625)"/>
       <path id="DejaVuSans-74" d="M 1172 4494 
L 1172 3500 
L 2356 3500 
L 2356 3053 
L 1172 3053 
L 1172 1153 
Q 1172 725 1289 603 
Q 1406 481 1766 481 
L 2356 481 
L 2356 0 
L 1766 0 
Q 1100 0 847 248 
Q 594 497 594 1153 
L 594 3053 
L 172 3053 
L 172 3500 
L 594 3500 
L 594 4494 
L 1172 4494 
z
" transform="scale(0.015625)"/>
       <path id="DejaVuSans-72" d="M 2631 2963 
Q 2534 3019 2420 3045 
Q 2306 3072 2169 3072 
Q 1681 3072 1420 2755 
Q 1159 2438 1159 1844 
L 1159 0 
L 581 0 
L 581 3500 
L 1159 3500 
L 1159 2956 
Q 1341 3275 1631 3429 
Q 1922 3584 2338 3584 
Q 2397 3584 2469 3576 
Q 2541 3569 2628 3553 
L 2631 2963 
z
" transform="scale(0.015625)"/>
       <path id="DejaVuSans-61" d="M 2194 1759 
Q 1497 1759 1228 1600 
Q 959 1441 959 1056 
Q 959 750 1161 570 
Q 1363 391 1709 391 
Q 2188 391 2477 730 
Q 2766 1069 2766 1631 
L 2766 1759 
L 2194 1759 
z
M 3341 1997 
L 3341 0 
L 2766 0 
L 2766 531 
Q 2569 213 2275 61 
Q 1981 -91 1556 -91 
Q 1019 -91 701 211 
Q 384 513 384 1019 
Q 384 1609 779 1909 
Q 1175 2209 1959 2209 
L 2766 2209 
L 2766 2266 
Q 2766 2663 2505 2880 
Q 2244 3097 1772 3097 
Q 1472 3097 1187 3025 
Q 903 2953 641 2809 
L 641 3341 
Q 956 3463 1253 3523 
Q 1550 3584 1831 3584 
Q 2591 3584 2966 3190 
Q 3341 2797 3341 1997 
z
" transform="scale(0.015625)"/>
       <path id="DejaVuSans-69" d="M 603 3500 
L 1178 3500 
L 1178 0 
L 603 0 
L 603 3500 
z
M 603 4863 
L 1178 4863 
L 1178 4134 
L 603 4134 
L 603 4863 
z
" transform="scale(0.015625)"/>
       <path id="DejaVuSans-6e" d="M 3513 2113 
L 3513 0 
L 2938 0 
L 2938 2094 
Q 2938 2591 2744 2837 
Q 2550 3084 2163 3084 
Q 1697 3084 1428 2787 
Q 1159 2491 1159 1978 
L 1159 0 
L 581 0 
L 581 3500 
L 1159 3500 
L 1159 2956 
Q 1366 3272 1645 3428 
Q 1925 3584 2291 3584 
Q 2894 3584 3203 3211 
Q 3513 2838 3513 2113 
z
" transform="scale(0.015625)"/>
       <path id="DejaVuSans-20" transform="scale(0.015625)"/>
       <path id="DejaVuSans-5b" d="M 550 4863 
L 1875 4863 
L 1875 4416 
L 1125 4416 
L 1125 -397 
L 1875 -397 
L 1875 -844 
L 550 -844 
L 550 4863 
z
" transform="scale(0.015625)"/>
       <path id="DejaVuSans-2d" d="M 313 2009 
L 1997 2009 
L 1997 1497 
L 313 1497 
L 313 2009 
z
" transform="scale(0.015625)"/>
       <path id="DejaVuSans-5d" d="M 1947 4863 
L 1947 -844 
L 622 -844 
L 622 -397 
L 1369 -397 
L 1369 4416 
L 622 4416 
L 622 4863 
L 1947 4863 
z
" transform="scale(0.015625)"/>
      </defs>
      <use xlink:href="#DejaVuSans-53"/>
      <use xlink:href="#DejaVuSans-74" transform="translate(63.476562 0)"/>
      <use xlink:href="#DejaVuSans-72" transform="translate(102.685547 0)"/>
      <use xlink:href="#DejaVuSans-61" transform="translate(143.798828 0)"/>
      <use xlink:href="#DejaVuSans-69" transform="translate(205.078125 0)"/>
      <use xlink:href="#DejaVuSans-6e" transform="translate(232.861328 0)"/>
      <use xlink:href="#DejaVuSans-20" transform="translate(296.240234 0)"/>
      <use xlink:href="#DejaVuSans-5b" transform="translate(328.027344 0)"/>
      <use xlink:href="#DejaVuSans-2d" transform="translate(367.041016 0)"/>
      <use xlink:href="#DejaVuSans-5d" transform="translate(403.125 0)"/>
     </g>
    </g>
   </g>
   <g id="matplotlib.axis_2">
    <g id="ytick_1">
     <g id="line2d_13">
      <path d="M 50.87 264.608798 
L 450 264.608798 
" clip-path="url(#p164a75fb52)" style="fill: none; stroke: #b0b0b0; stroke-opacity: 0.3; stroke-width: 0.8; stroke-linecap: square"/>
     </g>
     <g id="line2d_14">
      <defs>
       <path id="m8caf9ea3ba" d="M 0 0 
L -3.5 0 
" style="stroke: #000000; stroke-width: 0.8"/>
      </defs>
      <g>
       <use xlink:href="#m8caf9ea3ba" x="50.87" y="264.608798" style="stroke: #000000; stroke-width: 0.8"/>
      </g>
     </g>
     <g id="text_8">
      <!-- 0 -->
      <g transform="translate(37.5075 268.408016) scale(0.1 -0.1)">
       <use xlink:href="#DejaVuSans-30"/>
      </g>
     </g>
    </g>
    <g id="ytick_2">
     <g id="line2d_15">
      <path d="M 50.87 210.732029 
L 450 210.732029 
" clip-path="url(#p164a75fb52)" style="fill: none; stroke: #b0b0b0; stroke-opacity: 0.3; stroke-width: 0.8; stroke-linecap: square"/>
     </g>
     <g id="line2d_16">
      <g>
       <use xlink:href="#m8caf9ea3ba" x="50.87" y="210.732029" style="stroke: #000000; stroke-width: 0.8"/>
      </g>
     </g>
     <g id="text_9">
      <!-- 200 -->
      <g transform="translate(24.7825 214.531248) scale(0.1 -0.1)">
       <use xlink:href="#DejaVuSans-32"/>
       <use xlink:href="#DejaVuSans-30" transform="translate(63.623047 0)"/>
       <use xlink:href="#DejaVuSans-30" transform="translate(127.246094 0)"/>
      </g>
     </g>
    </g>
    <g id="ytick_3">
     <g id="line2d_17">
      <path d="M 50.87 156.85526 
L 450 156.85526 
" clip-path="url(#p164a75fb52)" style="fill: none; stroke: #b0b0b0; stroke-opacity: 0.3; stroke-width: 0.8; stroke-linecap: square"/>
     </g>
     <g id="line2d_18">
      <g>
       <use xlink:href="#m8caf9ea3ba" x="50.87" y="156.85526" style="stroke: #000000; stroke-width: 0.8"/>
      </g>
     </g>
     <g id="text_10">
      <!-- 400 -->
      <g transform="translate(24.7825 160.654479) scale(0.1 -0.1)">
       <use xlink:href="#DejaVuSans-34"/>
       <use xlink:href="#DejaVuSans-30" transform="translate(63.623047 0)"/>
       <use xlink:href="#DejaVuSans-30" transform="translate(127.246094 0)"/>
      </g>
     </g>
    </g>
    <g id="ytick_4">
     <g id="line2d_19">
      <path d="M 50.87 102.978492 
L 450 102.978492 
" clip-path="url(#p164a75fb52)" style="fill: none; stroke: #b0b0b0; stroke-opacity: 0.3; stroke-width: 0.8; stroke-linecap: square"/>
     </g>
     <g id="line2d_20">
      <g>
       <use xlink:href="#m8caf9ea3ba" x="50.87" y="102.978492" style="stroke: #000000; stroke-width: 0.8"/>
      </g>
     </g>
     <g id="text_11">
      <!-- 600 -->
      <g transform="translate(24.7825 106.777711) scale(0.1 -0.1)">
       <use xlink:href="#DejaVuSans-36"/>
       <use xlink:href="#DejaVuSans-30" transform="translate(63.623047 0)"/>
       <use xlink:href="#DejaVuSans-30" transform="translate(127.246094 0)"/>
      </g>
     </g>
    </g>
    <g id="ytick_5">
     <g id="line2d_21">
      <path d="M 50.87 49.101723 
L 450 49.101723 
" clip-path="url(#p164a75fb52)" style="fill: none; stroke: #b0b0b0; stroke-opacity: 0.3; stroke-width: 0.8; stroke-linecap: square"/>
     </g>
     <g id="line2d_22">
      <g>
       <use xlink:href="#m8caf9ea3ba" x="50.87" y="49.101723" style="stroke: #000000; stroke-width: 0.8"/>
      </g>
     </g>
     <g id="text_12">
      <!-- 800 -->
      <g transform="translate(24.7825 52.900942) scale(0.1 -0.1)">
       <use xlink:href="#DejaVuSans-38"/>
       <use xlink:href="#DejaVuSans-30" transform="translate(63.623047 0)"/>
       <use xlink:href="#DejaVuSans-30" transform="translate(127.246094 0)"/>
      </g>
     </g>
    </g>
    <g id="text_13">
     <!-- Stress [Pa] -->
     <g transform="translate(18.702813 191.967812) rotate(-90) scale(0.1 -0.1)">
      <defs>
       <path id="DejaVuSans-65" d="M 3597 1894 
L 3597 1613 
L 953 1613 
Q 991 1019 1311 708 
Q 1631 397 2203 397 
Q 2534 397 2845 478 
Q 3156 559 3463 722 
L 3463 178 
Q 3153 47 2828 -22 
Q 2503 -91 2169 -91 
Q 1331 -91 842 396 
Q 353 884 353 1716 
Q 353 2575 817 3079 
Q 1281 3584 2069 3584 
Q 2775 3584 3186 3129 
Q 3597 2675 3597 1894 
z
M 3022 2063 
Q 3016 2534 2758 2815 
Q 2500 3097 2075 3097 
Q 1594 3097 1305 2825 
Q 1016 2553 972 2059 
L 3022 2063 
z
" transform="scale(0.015625)"/>
       <path id="DejaVuSans-73" d="M 2834 3397 
L 2834 2853 
Q 2591 2978 2328 3040 
Q 2066 3103 1784 3103 
Q 1356 3103 1142 2972 
Q 928 2841 928 2578 
Q 928 2378 1081 2264 
Q 1234 2150 1697 2047 
L 1894 2003 
Q 2506 1872 2764 1633 
Q 3022 1394 3022 966 
Q 3022 478 2636 193 
Q 2250 -91 1575 -91 
Q 1294 -91 989 -36 
Q 684 19 347 128 
L 347 722 
Q 666 556 975 473 
Q 1284 391 1588 391 
Q 1994 391 2212 530 
Q 2431 669 2431 922 
Q 2431 1156 2273 1281 
Q 2116 1406 1581 1522 
L 1381 1569 
Q 847 1681 609 1914 
Q 372 2147 372 2553 
Q 372 3047 722 3315 
Q 1072 3584 1716 3584 
Q 2034 3584 2315 3537 
Q 2597 3491 2834 3397 
z
" transform="scale(0.015625)"/>
       <path id="DejaVuSans-50" d="M 1259 4147 
L 1259 2394 
L 2053 2394 
Q 2494 2394 2734 2622 
Q 2975 2850 2975 3272 
Q 2975 3691 2734 3919 
Q 2494 4147 2053 4147 
L 1259 4147 
z
M 628 4666 
L 2053 4666 
Q 2838 4666 3239 4311 
Q 3641 3956 3641 3272 
Q 3641 2581 3239 2228 
Q 2838 1875 2053 1875 
L 1259 1875 
L 1259 0 
L 628 0 
L 628 4666 
z
" transform="scale(0.015625)"/>
      </defs>
      <use xlink:href="#DejaVuSans-53"/>
      <use xlink:href="#DejaVuSans-74" transform="translate(63.476562 0)"/>
      <use xlink:href="#DejaVuSans-72" transform="translate(102.685547 0)"/>
      <use xlink:href="#DejaVuSans-65" transform="translate(141.548828 0)"/>
      <use xlink:href="#DejaVuSans-73" transform="translate(203.072266 0)"/>
      <use xlink:href="#DejaVuSans-73" transform="translate(255.171875 0)"/>
      <use xlink:href="#DejaVuSans-20" transform="translate(307.271484 0)"/>
      <use xlink:href="#DejaVuSans-5b" transform="translate(339.058594 0)"/>
      <use xlink:href="#DejaVuSans-50" transform="translate(378.072266 0)"/>
      <use xlink:href="#DejaVuSans-61" transform="translate(433.875 0)"/>
      <use xlink:href="#DejaVuSans-5d" transform="translate(495.154297 0)"/>
     </g>
    </g>
   </g>
   <g id="line2d_23">
    <path d="M 69.289691 266.19819 
L 69.289691 266.210506 
L 69.28963 265.798291 
L 70.508328 260.664353 
L 71.775644 257.311427 
L 73.057701 258.075585 
L 74.343905 258.180706 
L 75.64485 257.342936 
L 76.919998 256.133344 
L 79.444495 254.418336 
L 80.851395 253.920302 
L 82.129306 253.972752 
L 83.462499 254.817762 
L 84.829781 256.197719 
L 87.585537 257.950207 
L 88.942684 258.14201 
L 90.275877 256.859161 
L 91.598013 255.162326 
L 92.920149 253.795998 
L 94.245971 252.86978 
L 95.580084 252.319217 
L 96.918805 252.128266 
L 98.256604 252.118192 
L 100.891661 251.930258 
L 102.178786 252.111342 
L 103.435506 251.574124 
L 104.661822 250.454258 
L 107.448904 247.161669 
L 108.827242 246.027038 
L 110.202291 245.610445 
L 111.566809 245.586576 
L 112.912901 245.111116 
L 114.238722 244.255883 
L 115.549802 243.219496 
L 118.136951 241.488587 
L 120.701987 239.703729 
L 125.800734 237.277731 
L 135.899643 231.577316 
L 138.43059 230.405488 
L 140.961536 228.731367 
L 143.494325 227.454197 
L 147.295812 224.996398 
L 149.83413 223.719228 
L 152.369683 222.080884 
L 153.638381 221.149555 
L 156.180383 219.662836 
L 159.997533 217.797622 
L 173.912671 210.302695 
L 182.719849 205.035576 
L 183.976569 204.413175 
L 194.006377 198.084682 
L 195.267704 197.403221 
L 196.529953 196.593987 
L 199.057214 195.281608 
L 201.579191 193.559985 
L 202.840519 192.889883 
L 205.36133 191.231095 
L 206.618972 190.526919 
L 207.876614 189.952221 
L 211.630191 187.69602 
L 217.876017 183.515262 
L 219.133659 182.778717 
L 220.394986 181.89225 
L 226.742161 178.434976 
L 233.113291 174.657982 
L 239.476129 171.102464 
L 241.994177 169.234695 
L 248.275015 165.154452 
L 252.026749 162.696084 
L 255.770191 160.523361 
L 263.257075 155.497592 
L 265.762224 153.925691 
L 270.78542 150.775073 
L 272.043062 149.605233 
L 273.307153 148.706273 
L 277.121539 146.718681 
L 280.927632 144.358557 
L 287.254538 140.316362 
L 288.520472 139.387305 
L 292.321988 137.092833 
L 294.857541 135.342049 
L 297.395858 133.680421 
L 305.051349 128.348563 
L 308.913645 125.96402 
L 320.514368 118.061921 
L 323.070191 116.302618 
L 325.611272 114.437679 
L 329.402624 111.915709 
L 334.449775 108.289205 
L 338.255869 105.980758 
L 342.078547 103.309434 
L 344.641741 101.610894 
L 347.215069 99.922009 
L 349.787477 98.313763 
L 351.069995 97.478406 
L 353.630424 95.524887 
L 362.568434 89.495099 
L 367.640461 85.541494 
L 370.176014 83.823079 
L 372.714332 81.997333 
L 375.258177 80.043246 
L 379.074406 77.178842 
L 381.6247 75.369565 
L 390.619401 69.103893 
L 391.901919 68.306017 
L 395.737496 65.128708 
L 397.015408 64.259847 
L 399.562939 62.207516 
L 402.105862 60.490804 
L 408.415262 55.648461 
L 409.673825 54.597876 
L 414.70255 51.204204 
L 415.950978 50.634333 
L 417.18835 50.218927 
L 418.409138 49.657858 
L 422.359883 48.343775 
L 424.946111 47.668562 
L 427.484889 46.665679 
L 428.702452 46.013465 
L 429.918863 44.285963 
L 431.297892 40.559654 
L 431.857727 41.273998 
L 431.673947 44.784441 
L 431.578962 50.464554 
L 431.575478 71.461497 
L 431.570698 70.838493 
L 430.356417 71.56762 
L 427.851499 77.174192 
L 426.598464 76.355659 
L 425.369384 76.166767 
L 424.066596 76.394506 
L 422.82646 76.765511 
L 419.123097 77.004306 
L 417.863612 77.601507 
L 416.619791 80.775976 
L 415.404992 83.012301 
L 412.948214 86.391208 
L 410.381796 85.683572 
L 409.135671 86.092217 
L 407.884018 86.63121 
L 406.608324 86.903918 
L 405.365193 87.416326 
L 404.13381 91.418911 
L 402.924539 93.984041 
L 401.667588 94.779575 
L 400.438048 94.866035 
L 397.990023 95.401124 
L 396.778448 96.230943 
L 395.558812 97.681318 
L 394.339867 99.373043 
L 393.084068 100.403893 
L 391.830572 101.035806 
L 388.14149 103.901062 
L 386.899511 105.211737 
L 385.659836 106.351622 
L 384.431677 106.609086 
L 383.220564 107.004901 
L 382.004383 107.788296 
L 379.492554 110.007869 
L 378.269463 111.505377 
L 377.047984 112.598766 
L 374.575083 113.783371 
L 372.119687 115.568513 
L 369.614078 117.901946 
L 367.126895 119.529359 
L 364.68532 121.019485 
L 362.258025 122.877884 
L 360.994395 123.730419 
L 358.500763 125.870204 
L 353.567398 129.572805 
L 351.098643 131.193402 
L 348.596258 133.194198 
L 343.565375 136.509892 
L 342.301284 137.249135 
L 338.549549 140.173877 
L 337.28684 141.202598 
L 336.055457 141.955611 
L 333.563668 143.173721 
L 332.34288 143.976709 
L 327.390167 147.686976 
L 324.953659 149.023348 
L 321.164149 151.794903 
L 319.951193 152.58994 
L 318.734091 153.216457 
L 317.468157 154.018167 
L 316.207319 155.154937 
L 311.299752 158.532424 
L 310.075754 159.071416 
L 307.5941 160.718137 
L 302.587949 164.295519 
L 301.376835 164.934317 
L 300.166643 165.721119 
L 298.901631 166.373192 
L 297.657118 167.228708 
L 296.430111 168.227473 
L 291.468415 171.648546 
L 290.242099 172.229349 
L 289.02039 173.065983 
L 286.583234 174.464325 
L 282.917646 176.903243 
L 280.479756 178.427868 
L 279.223957 179.097545 
L 276.744145 181.188208 
L 275.533032 182.017602 
L 270.617173 184.482571 
L 269.377497 185.322329 
L 266.910585 187.281243 
L 265.69164 188.009838 
L 264.463942 188.506239 
L 263.250064 189.191532 
L 261.989198 190.093899 
L 260.73432 190.674414 
L 259.481285 191.608156 
L 258.265565 192.05831 
L 257.034181 192.83844 
L 255.80395 193.334158 
L 253.344178 194.735553 
L 252.103581 195.829581 
L 250.838108 196.683535 
L 249.609949 197.365422 
L 248.370274 198.230592 
L 245.888159 199.26989 
L 244.622685 200.008138 
L 239.641411 203.89019 
L 237.197532 205.012896 
L 234.679484 206.212408 
L 230.952166 208.653455 
L 229.714333 209.489238 
L 228.475579 209.975843 
L 227.249724 210.631039 
L 225.982725 211.151743 
L 224.740976 211.897942 
L 223.510745 212.898269 
L 219.773752 215.193512 
L 218.552043 215.635539 
L 217.287491 216.286901 
L 216.037681 217.121264 
L 214.785567 217.759423 
L 212.299306 219.229816 
L 209.85036 220.353728 
L 206.052558 222.685103 
L 204.842366 223.710133 
L 199.940327 226.436967 
L 198.731978 226.978302 
L 197.466044 227.809826 
L 196.251374 228.440074 
L 195.02598 229.247605 
L 192.580258 230.184116 
L 188.828286 232.489723 
L 186.390857 233.776689 
L 182.709376 235.8276 
L 180.229334 237.472049 
L 179.007625 238.069746 
L 177.767028 238.487779 
L 174.081631 240.378406 
L 172.870517 240.714468 
L 170.354312 242.345572 
L 169.090682 243.201798 
L 167.881872 243.71481 
L 165.402974 245.070818 
L 164.184029 245.468692 
L 162.963702 246.060782 
L 161.741532 246.80329 
L 160.523969 247.321129 
L 159.266788 247.985836 
L 158.024809 248.946979 
L 156.774538 249.315536 
L 154.26294 250.605767 
L 151.814455 251.438249 
L 148.10349 253.651859 
L 145.622527 255.34401 
L 143.173581 256.720417 
L 138.223862 258.930407 
L 135.748657 260.429081 
L 134.53478 261.137657 
L 133.3057 261.5542 
L 130.862281 262.728441 
L 129.602793 263.37093 
L 128.349758 264.199189 
L 127.094881 264.77488 
L 125.828947 265.483173 
L 124.607238 266.020746 
L 122.121437 266.805756 
L 120.876234 267.666526 
L 117.141314 269.73788 
L 115.92283 270.549386 
L 113.496457 271.600538 
L 110.97196 272.900282 
L 108.521631 273.754237 
L 104.753036 275.649207 
L 102.257561 277.358679 
L 100.989324 277.941043 
L 97.346772 279.266838 
L 96.086366 279.798448 
L 92.341772 281.851702 
L 91.074917 282.105422 
L 89.817275 282.509404 
L 88.581285 283.16169 
L 86.083968 284.79833 
L 83.582504 285.801283 
L 81.08104 286.366394 
L 79.844359 287.104642 
L 78.58119 288.137339 
L 77.354413 288.853866 
L 76.093547 289.143167 
L 74.878914 289.546491 
L 73.629794 289.649626 
L 72.373304 289.509394 
L 69.945779 290.317847 
L 69.328015 291.06 
L 69.012273 289.616245 
L 69.012577 289.631933 
" clip-path="url(#p164a75fb52)" style="fill: none; stroke: #ff0000; stroke-width: 2; stroke-linecap: square"/>
   </g>
   <g id="line2d_24">
    <path d="M 69.289691 266.19819 
L 69.289691 266.210506 
L 69.28963 265.798291 
L 70.508328 260.664353 
L 71.775644 257.311427 
L 73.057701 258.075585 
L 74.343905 258.180706 
L 75.64485 257.342936 
L 76.919998 272.456569 
L 78.135257 271.118636 
L 80.851395 267.869774 
L 82.129306 266.670608 
L 83.462499 266.259461 
L 84.829781 266.491157 
L 86.209041 266.42869 
L 87.585537 266.132254 
L 88.942684 264.702182 
L 92.920149 255.999367 
L 94.245971 253.776103 
L 95.580084 252.319217 
L 96.918805 252.128266 
L 98.256604 252.118192 
L 100.891661 251.930258 
L 102.178786 252.111342 
L 103.435506 251.574124 
L 104.661822 250.454258 
L 107.448904 247.161669 
L 108.827242 246.027038 
L 110.202291 245.610445 
L 111.566809 245.586576 
L 112.912901 245.111116 
L 114.238722 244.255883 
L 115.549802 243.219496 
L 118.136951 241.488587 
L 120.701987 239.703729 
L 125.800734 237.277731 
L 135.899643 231.577316 
L 138.43059 230.405488 
L 140.961536 228.731367 
L 143.494325 227.454197 
L 147.295812 224.996398 
L 149.83413 223.719228 
L 152.369683 222.080884 
L 153.638381 221.149555 
L 156.180383 219.662836 
L 159.997533 217.797622 
L 173.912671 210.302695 
L 182.719849 205.035576 
L 183.976569 204.413175 
L 194.006377 198.084682 
L 195.267704 197.403221 
L 196.529953 196.593987 
L 199.057214 195.281608 
L 201.579191 193.559985 
L 202.840519 192.889883 
L 205.36133 191.231095 
L 206.618972 190.526919 
L 207.876614 189.952221 
L 211.630191 187.69602 
L 217.876017 183.515262 
L 219.133659 182.778717 
L 220.394986 181.89225 
L 226.742161 178.434976 
L 233.113291 174.657982 
L 239.476129 171.102464 
L 241.994177 169.234695 
L 248.275015 165.154452 
L 252.026749 162.696084 
L 255.770191 160.523361 
L 263.257075 155.497592 
L 265.762224 153.925691 
L 270.78542 150.775073 
L 272.043062 149.605233 
L 273.307153 148.706273 
L 277.121539 146.718681 
L 280.927632 144.358557 
L 287.254538 140.316362 
L 288.520472 139.387305 
L 292.321988 137.092833 
L 294.857541 135.342049 
L 297.395858 133.680421 
L 305.051349 128.348563 
L 308.913645 125.96402 
L 320.514368 118.061921 
L 323.070191 116.302618 
L 325.611272 114.437679 
L 329.402624 111.915709 
L 334.449775 108.289205 
L 338.255869 105.980758 
L 342.078547 103.309434 
L 344.641741 101.610894 
L 347.215069 99.922009 
L 349.787477 98.313763 
L 351.069995 97.478406 
L 353.630424 95.524887 
L 362.568434 89.495099 
L 367.640461 85.541494 
L 370.176014 83.823079 
L 372.714332 81.997333 
L 375.258177 80.043246 
L 379.074406 77.178842 
L 381.6247 75.369565 
L 390.619401 69.103893 
L 391.901919 68.265144 
L 395.737496 64.946752 
L 397.015408 64.100206 
L 402.105862 60.053282 
L 408.415262 53.982465 
L 410.93331 51.166331 
L 413.449515 48.412096 
L 414.70255 46.894711 
L 415.950978 45.679724 
L 417.18835 44.776506 
L 419.774577 42.645523 
L 421.094871 41.622197 
L 422.359883 40.787408 
L 423.704132 40.198513 
L 424.946111 39.785184 
L 426.191775 39.549442 
L 427.484889 39.46 
L 428.702452 39.964281 
L 429.918863 40.78544 
L 431.129458 40.576601 
L 431.297892 40.224744 
L 431.857727 41.112985 
L 431.637698 45.790234 
L 431.581294 47.972379 
L 431.575478 71.461497 
L 431.570698 70.838493 
L 430.356417 71.56762 
L 427.851499 77.174192 
L 426.598464 76.355659 
L 425.369384 76.166767 
L 424.066596 76.394506 
L 422.82646 76.765511 
L 419.123097 77.004306 
L 417.863612 77.601507 
L 416.619791 80.775976 
L 415.404992 83.012301 
L 412.948214 86.391208 
L 410.381796 85.683572 
L 409.135671 86.092217 
L 407.884018 86.63121 
L 406.608324 86.903918 
L 405.365193 87.416326 
L 404.13381 91.418911 
L 402.924539 93.984041 
L 401.667588 94.779575 
L 400.438048 94.866035 
L 397.990023 95.401124 
L 396.778448 96.230943 
L 395.558812 97.681318 
L 394.339867 99.373043 
L 393.084068 100.403893 
L 391.830572 101.035806 
L 388.14149 103.901062 
L 386.899511 105.211737 
L 385.659836 106.351622 
L 384.431677 106.609086 
L 383.220564 107.004901 
L 382.004383 107.788296 
L 379.492554 110.007869 
L 378.269463 111.505377 
L 377.047984 112.598766 
L 374.575083 113.783371 
L 372.119687 115.568513 
L 369.614078 117.901946 
L 367.126895 119.529359 
L 364.68532 121.019485 
L 362.258025 122.877884 
L 360.994395 123.730419 
L 358.500763 125.870204 
L 353.567398 129.572805 
L 351.098643 131.193402 
L 348.596258 133.194198 
L 343.565375 136.509892 
L 342.301284 137.249135 
L 338.549549 140.173877 
L 337.28684 141.202598 
L 336.055457 141.955611 
L 333.563668 143.173721 
L 332.34288 143.976709 
L 327.390167 147.686976 
L 324.953659 149.023348 
L 321.164149 151.794903 
L 319.951193 152.58994 
L 318.734091 153.216457 
L 317.468157 154.018167 
L 316.207319 155.154937 
L 311.299752 158.532424 
L 310.075754 159.071416 
L 307.5941 160.718137 
L 302.587949 164.295519 
L 301.376835 164.934317 
L 300.166643 165.721119 
L 298.901631 166.373192 
L 297.657118 167.228708 
L 296.430111 168.227473 
L 291.468415 171.648546 
L 290.242099 172.229349 
L 289.02039 173.065983 
L 286.583234 174.464325 
L 282.917646 176.903243 
L 280.479756 178.427868 
L 279.223957 179.097545 
L 276.744145 181.188208 
L 275.533032 182.017602 
L 270.617173 184.482571 
L 269.377497 185.322329 
L 266.910585 187.281243 
L 265.69164 188.009838 
L 264.463942 188.506239 
L 263.250064 189.191532 
L 261.989198 190.093899 
L 260.73432 190.674414 
L 259.481285 191.608156 
L 258.265565 192.05831 
L 257.034181 192.83844 
L 255.80395 193.334158 
L 253.344178 194.735553 
L 252.103581 195.829581 
L 250.838108 196.683535 
L 249.609949 197.365422 
L 248.370274 198.230592 
L 245.888159 199.26989 
L 244.622685 200.008138 
L 239.641411 203.89019 
L 237.197532 205.012896 
L 234.679484 206.212408 
L 230.952166 208.653455 
L 229.714333 209.489238 
L 228.475579 209.975843 
L 227.249724 210.631039 
L 225.982725 211.151743 
L 224.740976 211.897942 
L 223.510745 212.898269 
L 219.773752 215.193512 
L 218.552043 215.635539 
L 217.287491 216.286901 
L 216.037681 217.121264 
L 214.785567 217.759423 
L 212.299306 219.229816 
L 209.85036 220.353728 
L 206.052558 222.685103 
L 204.842366 223.710133 
L 199.940327 226.436967 
L 198.731978 226.978302 
L 197.466044 227.809826 
L 196.251374 228.440074 
L 195.02598 229.247605 
L 192.580258 230.184116 
L 188.828286 232.489723 
L 186.390857 233.776689 
L 182.709376 235.8276 
L 180.229334 237.472049 
L 179.007625 238.069746 
L 177.767028 238.487779 
L 174.081631 240.378406 
L 172.870517 240.714468 
L 170.354312 242.345572 
L 169.090682 243.201798 
L 167.881872 243.71481 
L 165.402974 245.070818 
L 164.184029 245.468692 
L 162.963702 246.060782 
L 161.741532 246.80329 
L 160.523969 247.321129 
L 159.266788 247.985836 
L 158.024809 248.946979 
L 156.774538 249.315536 
L 154.26294 250.605767 
L 151.814455 251.438249 
L 148.10349 253.651859 
L 145.622527 255.34401 
L 143.173581 256.720417 
L 138.223862 258.930407 
L 135.748657 260.429081 
L 134.53478 261.137657 
L 133.3057 261.5542 
L 130.862281 262.728441 
L 129.602793 263.37093 
L 128.349758 264.199189 
L 127.094881 264.77488 
L 125.828947 265.483173 
L 124.607238 266.020746 
L 122.121437 266.805756 
L 120.876234 267.666526 
L 117.141314 269.73788 
L 115.92283 270.549386 
L 113.496457 271.600538 
L 110.97196 272.900282 
L 108.521631 273.754237 
L 104.753036 275.649207 
L 102.257561 277.358679 
L 100.989324 277.941043 
L 97.346772 279.266838 
L 96.086366 279.798448 
L 92.341772 281.851702 
L 91.074917 282.105422 
L 89.817275 282.509404 
L 88.581285 283.16169 
L 86.083968 284.79833 
L 83.582504 285.801283 
L 81.08104 286.366394 
L 79.844359 287.104642 
L 78.58119 288.137339 
L 77.354413 288.853866 
L 76.093547 289.143167 
L 74.878914 289.546491 
L 73.629794 289.649626 
L 72.373304 289.509394 
L 69.945779 290.317847 
L 69.328015 291.06 
L 69.012273 289.616245 
L 69.012577 289.631933 
" clip-path="url(#p164a75fb52)" style="fill: none; stroke: #000000; stroke-width: 2; stroke-linecap: square"/>
   </g>
   <g id="patch_3">
    <path d="M 50.87 303.64 
L 50.87 26.88 
" style="fill: none; stroke: #000000; stroke-width: 0.8; stroke-linejoin: miter; stroke-linecap: square"/>
   </g>
   <g id="patch_4">
    <path d="M 450 303.64 
L 450 26.88 
" style="fill: none; stroke: #000000; stroke-width: 0.8; stroke-linejoin: miter; stroke-linecap: square"/>
   </g>
   <g id="patch_5">
    <path d="M 50.87 303.64 
L 450 303.64 
" style="fill: none; stroke: #000000; stroke-width: 0.8; stroke-linejoin: miter; stroke-linecap: square"/>
   </g>
   <g id="patch_6">
    <path d="M 50.87 26.88 
L 450 26.88 
" style="fill: none; stroke: #000000; stroke-width: 0.8; stroke-linejoin: miter; stroke-linecap: square"/>
   </g>
   <g id="text_14">
    <!-- 2025-07-02 Trial 12 - Stress vs Strain -->
    <g transform="translate(139.180938 20.88) scale(0.12 -0.12)">
     <defs>
      <path id="DejaVuSans-35" d="M 691 4666 
L 3169 4666 
L 3169 4134 
L 1269 4134 
L 1269 2991 
Q 1406 3038 1543 3061 
Q 1681 3084 1819 3084 
Q 2600 3084 3056 2656 
Q 3513 2228 3513 1497 
Q 3513 744 3044 326 
Q 2575 -91 1722 -91 
Q 1428 -91 1123 -41 
Q 819 9 494 109 
L 494 744 
Q 775 591 1075 516 
Q 1375 441 1709 441 
Q 2250 441 2565 725 
Q 2881 1009 2881 1497 
Q 2881 1984 2565 2268 
Q 2250 2553 1709 2553 
Q 1456 2553 1204 2497 
Q 953 2441 691 2322 
L 691 4666 
z
" transform="scale(0.015625)"/>
      <path id="DejaVuSans-37" d="M 525 4666 
L 3525 4666 
L 3525 4397 
L 1831 0 
L 1172 0 
L 2766 4134 
L 525 4134 
L 525 4666 
z
" transform="scale(0.015625)"/>
      <path id="DejaVuSans-54" d="M -19 4666 
L 3928 4666 
L 3928 4134 
L 2272 4134 
L 2272 0 
L 1638 0 
L 1638 4134 
L -19 4134 
L -19 4666 
z
" transform="scale(0.015625)"/>
      <path id="DejaVuSans-6c" d="M 603 4863 
L 1178 4863 
L 1178 0 
L 603 0 
L 603 4863 
z
" transform="scale(0.015625)"/>
      <path id="DejaVuSans-76" d="M 191 3500 
L 800 3500 
L 1894 563 
L 2988 3500 
L 3597 3500 
L 2284 0 
L 1503 0 
L 191 3500 
z
" transform="scale(0.015625)"/>
     </defs>
     <use xlink:href="#DejaVuSans-32"/>
     <use xlink:href="#DejaVuSans-30" transform="translate(63.623047 0)"/>
     <use xlink:href="#DejaVuSans-32" transform="translate(127.246094 0)"/>
     <use xlink:href="#DejaVuSans-35" transform="translate(190.869141 0)"/>
     <use xlink:href="#DejaVuSans-2d" transform="translate(254.492188 0)"/>
     <use xlink:href="#DejaVuSans-30" transform="translate(290.576172 0)"/>
     <use xlink:href="#DejaVuSans-37" transform="translate(354.199219 0)"/>
     <use xlink:href="#DejaVuSans-2d" transform="translate(417.822266 0)"/>
     <use xlink:href="#DejaVuSans-30" transform="translate(453.90625 0)"/>
     <use xlink:href="#DejaVuSans-32" transform="translate(517.529297 0)"/>
     <use xlink:href="#DejaVuSans-20" transform="translate(581.152344 0)"/>
     <use xlink:href="#DejaVuSans-54" transform="translate(612.939453 0)"/>
     <use xlink:href="#DejaVuSans-72" transform="translate(659.273438 0)"/>
     <use xlink:href="#DejaVuSans-69" transform="translate(700.386719 0)"/>
     <use xlink:href="#DejaVuSans-61" transform="translate(728.169922 0)"/>
     <use xlink:href="#DejaVuSans-6c" transform="translate(789.449219 0)"/>
     <use xlink:href="#DejaVuSans-20" transform="translate(817.232422 0)"/>
     <use xlink:href="#DejaVuSans-31" transform="translate(849.019531 0)"/>
     <use xlink:href="#DejaVuSans-32" transform="translate(912.642578 0)"/>
     <use xlink:href="#DejaVuSans-20" transform="translate(976.265625 0)"/>
     <use xlink:href="#DejaVuSans-2d" transform="translate(1008.052734 0)"/>
     <use xlink:href="#DejaVuSans-20" transform="translate(1044.136719 0)"/>
     <use xlink:href="#DejaVuSans-53" transform="translate(1075.923828 0)"/>
     <use xlink:href="#DejaVuSans-74" transform="translate(1139.400391 0)"/>
     <use xlink:href="#DejaVuSans-72" transform="translate(1178.609375 0)"/>
     <use xlink:href="#DejaVuSans-65" transform="translate(1217.472656 0)"/>
     <use xlink:href="#DejaVuSans-73" transform="translate(1278.996094 0)"/>
     <use xlink:href="#DejaVuSans-73" transform="translate(1331.095703 0)"/>
     <use xlink:href="#DejaVuSans-20" transform="translate(1383.195312 0)"/>
     <use xlink:href="#DejaVuSans-76" transform="translate(1414.982422 0)"/>
     <use xlink:href="#DejaVuSans-73" transform="translate(1474.162109 0)"/>
     <use xlink:href="#DejaVuSans-20" transform="translate(1526.261719 0)"/>
     <use xlink:href="#DejaVuSans-53" transform="translate(1558.048828 0)"/>
     <use xlink:href="#DejaVuSans-74" transform="translate(1621.525391 0)"/>
     <use xlink:href="#DejaVuSans-72" transform="translate(1660.734375 0)"/>
     <use xlink:href="#DejaVuSans-61" transform="translate(1701.847656 0)"/>
     <use xlink:href="#DejaVuSans-69" transform="translate(1763.126953 0)"/>
     <use xlink:href="#DejaVuSans-6e" transform="translate(1790.910156 0)"/>
    </g>
   </g>
   <g id="legend_1">
    <g id="patch_7">
     <path d="M 57.87 64.23625 
L 163.854375 64.23625 
Q 165.854375 64.23625 165.854375 62.23625 
L 165.854375 33.88 
Q 165.854375 31.88 163.854375 31.88 
L 57.87 31.88 
Q 55.87 31.88 55.87 33.88 
L 55.87 62.23625 
Q 55.87 64.23625 57.87 64.23625 
z
" style="fill: #ffffff; opacity: 0.8; stroke: #cccccc; stroke-linejoin: miter"/>
    </g>
    <g id="line2d_25">
     <path d="M 59.87 39.978437 
L 69.87 39.978437 
L 79.87 39.978437 
" style="fill: none; stroke: #ff0000; stroke-width: 2; stroke-linecap: square"/>
    </g>
    <g id="text_15">
     <!-- Raw Force -->
     <g transform="translate(87.87 43.478437) scale(0.1 -0.1)">
      <defs>
       <path id="DejaVuSans-52" d="M 2841 2188 
Q 3044 2119 3236 1894 
Q 3428 1669 3622 1275 
L 4263 0 
L 3584 0 
L 2988 1197 
Q 2756 1666 2539 1819 
Q 2322 1972 1947 1972 
L 1259 1972 
L 1259 0 
L 628 0 
L 628 4666 
L 2053 4666 
Q 2853 4666 3247 4331 
Q 3641 3997 3641 3322 
Q 3641 2881 3436 2590 
Q 3231 2300 2841 2188 
z
M 1259 4147 
L 1259 2491 
L 2053 2491 
Q 2509 2491 2742 2702 
Q 2975 2913 2975 3322 
Q 2975 3731 2742 3939 
Q 2509 4147 2053 4147 
L 1259 4147 
z
" transform="scale(0.015625)"/>
       <path id="DejaVuSans-77" d="M 269 3500 
L 844 3500 
L 1563 769 
L 2278 3500 
L 2956 3500 
L 3675 769 
L 4391 3500 
L 4966 3500 
L 4050 0 
L 3372 0 
L 2619 2869 
L 1863 0 
L 1184 0 
L 269 3500 
z
" transform="scale(0.015625)"/>
       <path id="DejaVuSans-46" d="M 628 4666 
L 3309 4666 
L 3309 4134 
L 1259 4134 
L 1259 2759 
L 3109 2759 
L 3109 2228 
L 1259 2228 
L 1259 0 
L 628 0 
L 628 4666 
z
" transform="scale(0.015625)"/>
       <path id="DejaVuSans-6f" d="M 1959 3097 
Q 1497 3097 1228 2736 
Q 959 2375 959 1747 
Q 959 1119 1226 758 
Q 1494 397 1959 397 
Q 2419 397 2687 759 
Q 2956 1122 2956 1747 
Q 2956 2369 2687 2733 
Q 2419 3097 1959 3097 
z
M 1959 3584 
Q 2709 3584 3137 3096 
Q 3566 2609 3566 1747 
Q 3566 888 3137 398 
Q 2709 -91 1959 -91 
Q 1206 -91 779 398 
Q 353 888 353 1747 
Q 353 2609 779 3096 
Q 1206 3584 1959 3584 
z
" transform="scale(0.015625)"/>
       <path id="DejaVuSans-63" d="M 3122 3366 
L 3122 2828 
Q 2878 2963 2633 3030 
Q 2388 3097 2138 3097 
Q 1578 3097 1268 2742 
Q 959 2388 959 1747 
Q 959 1106 1268 751 
Q 1578 397 2138 397 
Q 2388 397 2633 464 
Q 2878 531 3122 666 
L 3122 134 
Q 2881 22 2623 -34 
Q 2366 -91 2075 -91 
Q 1284 -91 818 406 
Q 353 903 353 1747 
Q 353 2603 823 3093 
Q 1294 3584 2113 3584 
Q 2378 3584 2631 3529 
Q 2884 3475 3122 3366 
z
" transform="scale(0.015625)"/>
      </defs>
      <use xlink:href="#DejaVuSans-52"/>
      <use xlink:href="#DejaVuSans-61" transform="translate(67.232422 0)"/>
      <use xlink:href="#DejaVuSans-77" transform="translate(128.511719 0)"/>
      <use xlink:href="#DejaVuSans-20" transform="translate(210.298828 0)"/>
      <use xlink:href="#DejaVuSans-46" transform="translate(242.085938 0)"/>
      <use xlink:href="#DejaVuSans-6f" transform="translate(295.980469 0)"/>
      <use xlink:href="#DejaVuSans-72" transform="translate(357.162109 0)"/>
      <use xlink:href="#DejaVuSans-63" transform="translate(396.025391 0)"/>
      <use xlink:href="#DejaVuSans-65" transform="translate(451.005859 0)"/>
     </g>
    </g>
    <g id="line2d_26">
     <path d="M 59.87 54.656563 
L 69.87 54.656563 
L 79.87 54.656563 
" style="fill: none; stroke: #000000; stroke-width: 2; stroke-linecap: square"/>
    </g>
    <g id="text_16">
     <!-- Adjusted Force -->
     <g transform="translate(87.87 58.156563) scale(0.1 -0.1)">
      <defs>
       <path id="DejaVuSans-41" d="M 2188 4044 
L 1331 1722 
L 3047 1722 
L 2188 4044 
z
M 1831 4666 
L 2547 4666 
L 4325 0 
L 3669 0 
L 3244 1197 
L 1141 1197 
L 716 0 
L 50 0 
L 1831 4666 
z
" transform="scale(0.015625)"/>
       <path id="DejaVuSans-64" d="M 2906 2969 
L 2906 4863 
L 3481 4863 
L 3481 0 
L 2906 0 
L 2906 525 
Q 2725 213 2448 61 
Q 2172 -91 1784 -91 
Q 1150 -91 751 415 
Q 353 922 353 1747 
Q 353 2572 751 3078 
Q 1150 3584 1784 3584 
Q 2172 3584 2448 3432 
Q 2725 3281 2906 2969 
z
M 947 1747 
Q 947 1113 1208 752 
Q 1469 391 1925 391 
Q 2381 391 2643 752 
Q 2906 1113 2906 1747 
Q 2906 2381 2643 2742 
Q 2381 3103 1925 3103 
Q 1469 3103 1208 2742 
Q 947 2381 947 1747 
z
" transform="scale(0.015625)"/>
       <path id="DejaVuSans-6a" d="M 603 3500 
L 1178 3500 
L 1178 -63 
Q 1178 -731 923 -1031 
Q 669 -1331 103 -1331 
L -116 -1331 
L -116 -844 
L 38 -844 
Q 366 -844 484 -692 
Q 603 -541 603 -63 
L 603 3500 
z
M 603 4863 
L 1178 4863 
L 1178 4134 
L 603 4134 
L 603 4863 
z
" transform="scale(0.015625)"/>
       <path id="DejaVuSans-75" d="M 544 1381 
L 544 3500 
L 1119 3500 
L 1119 1403 
Q 1119 906 1312 657 
Q 1506 409 1894 409 
Q 2359 409 2629 706 
Q 2900 1003 2900 1516 
L 2900 3500 
L 3475 3500 
L 3475 0 
L 2900 0 
L 2900 538 
Q 2691 219 2414 64 
Q 2138 -91 1772 -91 
Q 1169 -91 856 284 
Q 544 659 544 1381 
z
M 1991 3584 
L 1991 3584 
z
" transform="scale(0.015625)"/>
      </defs>
      <use xlink:href="#DejaVuSans-41"/>
      <use xlink:href="#DejaVuSans-64" transform="translate(66.658203 0)"/>
      <use xlink:href="#DejaVuSans-6a" transform="translate(130.134766 0)"/>
      <use xlink:href="#DejaVuSans-75" transform="translate(157.917969 0)"/>
      <use xlink:href="#DejaVuSans-73" transform="translate(221.296875 0)"/>
      <use xlink:href="#DejaVuSans-74" transform="translate(273.396484 0)"/>
      <use xlink:href="#DejaVuSans-65" transform="translate(312.605469 0)"/>
      <use xlink:href="#DejaVuSans-64" transform="translate(374.128906 0)"/>
      <use xlink:href="#DejaVuSans-20" transform="translate(437.605469 0)"/>
      <use xlink:href="#DejaVuSans-46" transform="translate(469.392578 0)"/>
      <use xlink:href="#DejaVuSans-6f" transform="translate(523.287109 0)"/>
      <use xlink:href="#DejaVuSans-72" transform="translate(584.46875 0)"/>
      <use xlink:href="#DejaVuSans-63" transform="translate(623.332031 0)"/>
      <use xlink:href="#DejaVuSans-65" transform="translate(678.3125 0)"/>
     </g>
    </g>
   </g>
  </g>
 </g>
 <defs>
  <clipPath id="p164a75fb52">
   <rect x="50.87" y="26.88" width="399.13" height="276.76"/>
  </clipPath>
 </defs>
</svg>
