<?xml version="1.0" encoding="utf-8" standalone="no"?>
<!DOCTYPE svg PUBLIC "-//W3C//DTD SVG 1.1//EN"
  "http://www.w3.org/Graphics/SVG/1.1/DTD/svg11.dtd">
<svg xmlns:xlink="http://www.w3.org/1999/xlink" width="460.8pt" height="345.6pt" viewBox="0 0 460.8 345.6" xmlns="http://www.w3.org/2000/svg" version="1.1">
 <metadata>
  <rdf:RDF xmlns:dc="http://purl.org/dc/elements/1.1/" xmlns:cc="http://creativecommons.org/ns#" xmlns:rdf="http://www.w3.org/1999/02/22-rdf-syntax-ns#">
   <cc:Work>
    <dc:type rdf:resource="http://purl.org/dc/dcmitype/StillImage"/>
    <dc:date>2025-07-28T21:14:52.767398</dc:date>
    <dc:format>image/svg+xml</dc:format>
    <dc:creator>
     <cc:Agent>
      <dc:title>Matplotlib v3.10.3, https://matplotlib.org/</dc:title>
     </cc:Agent>
    </dc:creator>
   </cc:Work>
  </rdf:RDF>
 </metadata>
 <defs>
  <style type="text/css">*{stroke-linejoin: round; stroke-linecap: butt}</style>
 </defs>
 <g id="figure_1">
  <g id="patch_1">
   <path d="M 0 345.6 
L 460.8 345.6 
L 460.8 0 
L 0 0 
z
" style="fill: #ffffff"/>
  </g>
  <g id="axes_1">
   <g id="patch_2">
    <path d="M 57.17 303.64 
L 450 303.64 
L 450 26.88 
L 57.17 26.88 
z
" style="fill: #ffffff"/>
   </g>
   <g id="matplotlib.axis_1">
    <g id="xtick_1">
     <g id="line2d_1">
      <path d="M 75.178753 303.64 
L 75.178753 26.88 
" clip-path="url(#pd07cb0cb6f)" style="fill: none; stroke: #b0b0b0; stroke-opacity: 0.3; stroke-width: 0.8; stroke-linecap: square"/>
     </g>
     <g id="line2d_2">
      <defs>
       <path id="mb75f1af360" d="M 0 0 
L 0 3.5 
" style="stroke: #000000; stroke-width: 0.8"/>
      </defs>
      <g>
       <use xlink:href="#mb75f1af360" x="75.178753" y="303.64" style="stroke: #000000; stroke-width: 0.8"/>
      </g>
     </g>
     <g id="text_1">
      <!-- 0.000 -->
      <g transform="translate(60.86469 318.238437) scale(0.1 -0.1)">
       <defs>
        <path id="DejaVuSans-30" d="M 2034 4250 
Q 1547 4250 1301 3770 
Q 1056 3291 1056 2328 
Q 1056 1369 1301 889 
Q 1547 409 2034 409 
Q 2525 409 2770 889 
Q 3016 1369 3016 2328 
Q 3016 3291 2770 3770 
Q 2525 4250 2034 4250 
z
M 2034 4750 
Q 2819 4750 3233 4129 
Q 3647 3509 3647 2328 
Q 3647 1150 3233 529 
Q 2819 -91 2034 -91 
Q 1250 -91 836 529 
Q 422 1150 422 2328 
Q 422 3509 836 4129 
Q 1250 4750 2034 4750 
z
" transform="scale(0.015625)"/>
        <path id="DejaVuSans-2e" d="M 684 794 
L 1344 794 
L 1344 0 
L 684 0 
L 684 794 
z
" transform="scale(0.015625)"/>
       </defs>
       <use xlink:href="#DejaVuSans-30"/>
       <use xlink:href="#DejaVuSans-2e" transform="translate(63.623047 0)"/>
       <use xlink:href="#DejaVuSans-30" transform="translate(95.410156 0)"/>
       <use xlink:href="#DejaVuSans-30" transform="translate(159.033203 0)"/>
       <use xlink:href="#DejaVuSans-30" transform="translate(222.65625 0)"/>
      </g>
     </g>
    </g>
    <g id="xtick_2">
     <g id="line2d_3">
      <path d="M 125.123569 303.64 
L 125.123569 26.88 
" clip-path="url(#pd07cb0cb6f)" style="fill: none; stroke: #b0b0b0; stroke-opacity: 0.3; stroke-width: 0.8; stroke-linecap: square"/>
     </g>
     <g id="line2d_4">
      <g>
       <use xlink:href="#mb75f1af360" x="125.123569" y="303.64" style="stroke: #000000; stroke-width: 0.8"/>
      </g>
     </g>
     <g id="text_2">
      <!-- 0.025 -->
      <g transform="translate(110.809506 318.238437) scale(0.1 -0.1)">
       <defs>
        <path id="DejaVuSans-32" d="M 1228 531 
L 3431 531 
L 3431 0 
L 469 0 
L 469 531 
Q 828 903 1448 1529 
Q 2069 2156 2228 2338 
Q 2531 2678 2651 2914 
Q 2772 3150 2772 3378 
Q 2772 3750 2511 3984 
Q 2250 4219 1831 4219 
Q 1534 4219 1204 4116 
Q 875 4013 500 3803 
L 500 4441 
Q 881 4594 1212 4672 
Q 1544 4750 1819 4750 
Q 2544 4750 2975 4387 
Q 3406 4025 3406 3419 
Q 3406 3131 3298 2873 
Q 3191 2616 2906 2266 
Q 2828 2175 2409 1742 
Q 1991 1309 1228 531 
z
" transform="scale(0.015625)"/>
        <path id="DejaVuSans-35" d="M 691 4666 
L 3169 4666 
L 3169 4134 
L 1269 4134 
L 1269 2991 
Q 1406 3038 1543 3061 
Q 1681 3084 1819 3084 
Q 2600 3084 3056 2656 
Q 3513 2228 3513 1497 
Q 3513 744 3044 326 
Q 2575 -91 1722 -91 
Q 1428 -91 1123 -41 
Q 819 9 494 109 
L 494 744 
Q 775 591 1075 516 
Q 1375 441 1709 441 
Q 2250 441 2565 725 
Q 2881 1009 2881 1497 
Q 2881 1984 2565 2268 
Q 2250 2553 1709 2553 
Q 1456 2553 1204 2497 
Q 953 2441 691 2322 
L 691 4666 
z
" transform="scale(0.015625)"/>
       </defs>
       <use xlink:href="#DejaVuSans-30"/>
       <use xlink:href="#DejaVuSans-2e" transform="translate(63.623047 0)"/>
       <use xlink:href="#DejaVuSans-30" transform="translate(95.410156 0)"/>
       <use xlink:href="#DejaVuSans-32" transform="translate(159.033203 0)"/>
       <use xlink:href="#DejaVuSans-35" transform="translate(222.65625 0)"/>
      </g>
     </g>
    </g>
    <g id="xtick_3">
     <g id="line2d_5">
      <path d="M 175.068385 303.64 
L 175.068385 26.88 
" clip-path="url(#pd07cb0cb6f)" style="fill: none; stroke: #b0b0b0; stroke-opacity: 0.3; stroke-width: 0.8; stroke-linecap: square"/>
     </g>
     <g id="line2d_6">
      <g>
       <use xlink:href="#mb75f1af360" x="175.068385" y="303.64" style="stroke: #000000; stroke-width: 0.8"/>
      </g>
     </g>
     <g id="text_3">
      <!-- 0.050 -->
      <g transform="translate(160.754322 318.238437) scale(0.1 -0.1)">
       <use xlink:href="#DejaVuSans-30"/>
       <use xlink:href="#DejaVuSans-2e" transform="translate(63.623047 0)"/>
       <use xlink:href="#DejaVuSans-30" transform="translate(95.410156 0)"/>
       <use xlink:href="#DejaVuSans-35" transform="translate(159.033203 0)"/>
       <use xlink:href="#DejaVuSans-30" transform="translate(222.65625 0)"/>
      </g>
     </g>
    </g>
    <g id="xtick_4">
     <g id="line2d_7">
      <path d="M 225.0132 303.64 
L 225.0132 26.88 
" clip-path="url(#pd07cb0cb6f)" style="fill: none; stroke: #b0b0b0; stroke-opacity: 0.3; stroke-width: 0.8; stroke-linecap: square"/>
     </g>
     <g id="line2d_8">
      <g>
       <use xlink:href="#mb75f1af360" x="225.0132" y="303.64" style="stroke: #000000; stroke-width: 0.8"/>
      </g>
     </g>
     <g id="text_4">
      <!-- 0.075 -->
      <g transform="translate(210.699138 318.238437) scale(0.1 -0.1)">
       <defs>
        <path id="DejaVuSans-37" d="M 525 4666 
L 3525 4666 
L 3525 4397 
L 1831 0 
L 1172 0 
L 2766 4134 
L 525 4134 
L 525 4666 
z
" transform="scale(0.015625)"/>
       </defs>
       <use xlink:href="#DejaVuSans-30"/>
       <use xlink:href="#DejaVuSans-2e" transform="translate(63.623047 0)"/>
       <use xlink:href="#DejaVuSans-30" transform="translate(95.410156 0)"/>
       <use xlink:href="#DejaVuSans-37" transform="translate(159.033203 0)"/>
       <use xlink:href="#DejaVuSans-35" transform="translate(222.65625 0)"/>
      </g>
     </g>
    </g>
    <g id="xtick_5">
     <g id="line2d_9">
      <path d="M 274.958016 303.64 
L 274.958016 26.88 
" clip-path="url(#pd07cb0cb6f)" style="fill: none; stroke: #b0b0b0; stroke-opacity: 0.3; stroke-width: 0.8; stroke-linecap: square"/>
     </g>
     <g id="line2d_10">
      <g>
       <use xlink:href="#mb75f1af360" x="274.958016" y="303.64" style="stroke: #000000; stroke-width: 0.8"/>
      </g>
     </g>
     <g id="text_5">
      <!-- 0.100 -->
      <g transform="translate(260.643954 318.238437) scale(0.1 -0.1)">
       <defs>
        <path id="DejaVuSans-31" d="M 794 531 
L 1825 531 
L 1825 4091 
L 703 3866 
L 703 4441 
L 1819 4666 
L 2450 4666 
L 2450 531 
L 3481 531 
L 3481 0 
L 794 0 
L 794 531 
z
" transform="scale(0.015625)"/>
       </defs>
       <use xlink:href="#DejaVuSans-30"/>
       <use xlink:href="#DejaVuSans-2e" transform="translate(63.623047 0)"/>
       <use xlink:href="#DejaVuSans-31" transform="translate(95.410156 0)"/>
       <use xlink:href="#DejaVuSans-30" transform="translate(159.033203 0)"/>
       <use xlink:href="#DejaVuSans-30" transform="translate(222.65625 0)"/>
      </g>
     </g>
    </g>
    <g id="xtick_6">
     <g id="line2d_11">
      <path d="M 324.902832 303.64 
L 324.902832 26.88 
" clip-path="url(#pd07cb0cb6f)" style="fill: none; stroke: #b0b0b0; stroke-opacity: 0.3; stroke-width: 0.8; stroke-linecap: square"/>
     </g>
     <g id="line2d_12">
      <g>
       <use xlink:href="#mb75f1af360" x="324.902832" y="303.64" style="stroke: #000000; stroke-width: 0.8"/>
      </g>
     </g>
     <g id="text_6">
      <!-- 0.125 -->
      <g transform="translate(310.58877 318.238437) scale(0.1 -0.1)">
       <use xlink:href="#DejaVuSans-30"/>
       <use xlink:href="#DejaVuSans-2e" transform="translate(63.623047 0)"/>
       <use xlink:href="#DejaVuSans-31" transform="translate(95.410156 0)"/>
       <use xlink:href="#DejaVuSans-32" transform="translate(159.033203 0)"/>
       <use xlink:href="#DejaVuSans-35" transform="translate(222.65625 0)"/>
      </g>
     </g>
    </g>
    <g id="xtick_7">
     <g id="line2d_13">
      <path d="M 374.847648 303.64 
L 374.847648 26.88 
" clip-path="url(#pd07cb0cb6f)" style="fill: none; stroke: #b0b0b0; stroke-opacity: 0.3; stroke-width: 0.8; stroke-linecap: square"/>
     </g>
     <g id="line2d_14">
      <g>
       <use xlink:href="#mb75f1af360" x="374.847648" y="303.64" style="stroke: #000000; stroke-width: 0.8"/>
      </g>
     </g>
     <g id="text_7">
      <!-- 0.150 -->
      <g transform="translate(360.533585 318.238437) scale(0.1 -0.1)">
       <use xlink:href="#DejaVuSans-30"/>
       <use xlink:href="#DejaVuSans-2e" transform="translate(63.623047 0)"/>
       <use xlink:href="#DejaVuSans-31" transform="translate(95.410156 0)"/>
       <use xlink:href="#DejaVuSans-35" transform="translate(159.033203 0)"/>
       <use xlink:href="#DejaVuSans-30" transform="translate(222.65625 0)"/>
      </g>
     </g>
    </g>
    <g id="xtick_8">
     <g id="line2d_15">
      <path d="M 424.792464 303.64 
L 424.792464 26.88 
" clip-path="url(#pd07cb0cb6f)" style="fill: none; stroke: #b0b0b0; stroke-opacity: 0.3; stroke-width: 0.8; stroke-linecap: square"/>
     </g>
     <g id="line2d_16">
      <g>
       <use xlink:href="#mb75f1af360" x="424.792464" y="303.64" style="stroke: #000000; stroke-width: 0.8"/>
      </g>
     </g>
     <g id="text_8">
      <!-- 0.175 -->
      <g transform="translate(410.478401 318.238437) scale(0.1 -0.1)">
       <use xlink:href="#DejaVuSans-30"/>
       <use xlink:href="#DejaVuSans-2e" transform="translate(63.623047 0)"/>
       <use xlink:href="#DejaVuSans-31" transform="translate(95.410156 0)"/>
       <use xlink:href="#DejaVuSans-37" transform="translate(159.033203 0)"/>
       <use xlink:href="#DejaVuSans-35" transform="translate(222.65625 0)"/>
      </g>
     </g>
    </g>
    <g id="text_9">
     <!-- Strain [-] -->
     <g transform="translate(231.47875 331.916562) scale(0.1 -0.1)">
      <defs>
       <path id="DejaVuSans-53" d="M 3425 4513 
L 3425 3897 
Q 3066 4069 2747 4153 
Q 2428 4238 2131 4238 
Q 1616 4238 1336 4038 
Q 1056 3838 1056 3469 
Q 1056 3159 1242 3001 
Q 1428 2844 1947 2747 
L 2328 2669 
Q 3034 2534 3370 2195 
Q 3706 1856 3706 1288 
Q 3706 609 3251 259 
Q 2797 -91 1919 -91 
Q 1588 -91 1214 -16 
Q 841 59 441 206 
L 441 856 
Q 825 641 1194 531 
Q 1563 422 1919 422 
Q 2459 422 2753 634 
Q 3047 847 3047 1241 
Q 3047 1584 2836 1778 
Q 2625 1972 2144 2069 
L 1759 2144 
Q 1053 2284 737 2584 
Q 422 2884 422 3419 
Q 422 4038 858 4394 
Q 1294 4750 2059 4750 
Q 2388 4750 2728 4690 
Q 3069 4631 3425 4513 
z
" transform="scale(0.015625)"/>
       <path id="DejaVuSans-74" d="M 1172 4494 
L 1172 3500 
L 2356 3500 
L 2356 3053 
L 1172 3053 
L 1172 1153 
Q 1172 725 1289 603 
Q 1406 481 1766 481 
L 2356 481 
L 2356 0 
L 1766 0 
Q 1100 0 847 248 
Q 594 497 594 1153 
L 594 3053 
L 172 3053 
L 172 3500 
L 594 3500 
L 594 4494 
L 1172 4494 
z
" transform="scale(0.015625)"/>
       <path id="DejaVuSans-72" d="M 2631 2963 
Q 2534 3019 2420 3045 
Q 2306 3072 2169 3072 
Q 1681 3072 1420 2755 
Q 1159 2438 1159 1844 
L 1159 0 
L 581 0 
L 581 3500 
L 1159 3500 
L 1159 2956 
Q 1341 3275 1631 3429 
Q 1922 3584 2338 3584 
Q 2397 3584 2469 3576 
Q 2541 3569 2628 3553 
L 2631 2963 
z
" transform="scale(0.015625)"/>
       <path id="DejaVuSans-61" d="M 2194 1759 
Q 1497 1759 1228 1600 
Q 959 1441 959 1056 
Q 959 750 1161 570 
Q 1363 391 1709 391 
Q 2188 391 2477 730 
Q 2766 1069 2766 1631 
L 2766 1759 
L 2194 1759 
z
M 3341 1997 
L 3341 0 
L 2766 0 
L 2766 531 
Q 2569 213 2275 61 
Q 1981 -91 1556 -91 
Q 1019 -91 701 211 
Q 384 513 384 1019 
Q 384 1609 779 1909 
Q 1175 2209 1959 2209 
L 2766 2209 
L 2766 2266 
Q 2766 2663 2505 2880 
Q 2244 3097 1772 3097 
Q 1472 3097 1187 3025 
Q 903 2953 641 2809 
L 641 3341 
Q 956 3463 1253 3523 
Q 1550 3584 1831 3584 
Q 2591 3584 2966 3190 
Q 3341 2797 3341 1997 
z
" transform="scale(0.015625)"/>
       <path id="DejaVuSans-69" d="M 603 3500 
L 1178 3500 
L 1178 0 
L 603 0 
L 603 3500 
z
M 603 4863 
L 1178 4863 
L 1178 4134 
L 603 4134 
L 603 4863 
z
" transform="scale(0.015625)"/>
       <path id="DejaVuSans-6e" d="M 3513 2113 
L 3513 0 
L 2938 0 
L 2938 2094 
Q 2938 2591 2744 2837 
Q 2550 3084 2163 3084 
Q 1697 3084 1428 2787 
Q 1159 2491 1159 1978 
L 1159 0 
L 581 0 
L 581 3500 
L 1159 3500 
L 1159 2956 
Q 1366 3272 1645 3428 
Q 1925 3584 2291 3584 
Q 2894 3584 3203 3211 
Q 3513 2838 3513 2113 
z
" transform="scale(0.015625)"/>
       <path id="DejaVuSans-20" transform="scale(0.015625)"/>
       <path id="DejaVuSans-5b" d="M 550 4863 
L 1875 4863 
L 1875 4416 
L 1125 4416 
L 1125 -397 
L 1875 -397 
L 1875 -844 
L 550 -844 
L 550 4863 
z
" transform="scale(0.015625)"/>
       <path id="DejaVuSans-2d" d="M 313 2009 
L 1997 2009 
L 1997 1497 
L 313 1497 
L 313 2009 
z
" transform="scale(0.015625)"/>
       <path id="DejaVuSans-5d" d="M 1947 4863 
L 1947 -844 
L 622 -844 
L 622 -397 
L 1369 -397 
L 1369 4416 
L 622 4416 
L 622 4863 
L 1947 4863 
z
" transform="scale(0.015625)"/>
      </defs>
      <use xlink:href="#DejaVuSans-53"/>
      <use xlink:href="#DejaVuSans-74" transform="translate(63.476562 0)"/>
      <use xlink:href="#DejaVuSans-72" transform="translate(102.685547 0)"/>
      <use xlink:href="#DejaVuSans-61" transform="translate(143.798828 0)"/>
      <use xlink:href="#DejaVuSans-69" transform="translate(205.078125 0)"/>
      <use xlink:href="#DejaVuSans-6e" transform="translate(232.861328 0)"/>
      <use xlink:href="#DejaVuSans-20" transform="translate(296.240234 0)"/>
      <use xlink:href="#DejaVuSans-5b" transform="translate(328.027344 0)"/>
      <use xlink:href="#DejaVuSans-2d" transform="translate(367.041016 0)"/>
      <use xlink:href="#DejaVuSans-5d" transform="translate(403.125 0)"/>
     </g>
    </g>
   </g>
   <g id="matplotlib.axis_2">
    <g id="ytick_1">
     <g id="line2d_17">
      <path d="M 57.17 270.24813 
L 450 270.24813 
" clip-path="url(#pd07cb0cb6f)" style="fill: none; stroke: #b0b0b0; stroke-opacity: 0.3; stroke-width: 0.8; stroke-linecap: square"/>
     </g>
     <g id="line2d_18">
      <defs>
       <path id="m1bad6a4e50" d="M 0 0 
L -3.5 0 
" style="stroke: #000000; stroke-width: 0.8"/>
      </defs>
      <g>
       <use xlink:href="#m1bad6a4e50" x="57.17" y="270.24813" style="stroke: #000000; stroke-width: 0.8"/>
      </g>
     </g>
     <g id="text_10">
      <!-- 0 -->
      <g transform="translate(43.8075 274.047349) scale(0.1 -0.1)">
       <use xlink:href="#DejaVuSans-30"/>
      </g>
     </g>
    </g>
    <g id="ytick_2">
     <g id="line2d_19">
      <path d="M 57.17 233.583551 
L 450 233.583551 
" clip-path="url(#pd07cb0cb6f)" style="fill: none; stroke: #b0b0b0; stroke-opacity: 0.3; stroke-width: 0.8; stroke-linecap: square"/>
     </g>
     <g id="line2d_20">
      <g>
       <use xlink:href="#m1bad6a4e50" x="57.17" y="233.583551" style="stroke: #000000; stroke-width: 0.8"/>
      </g>
     </g>
     <g id="text_11">
      <!-- 250 -->
      <g transform="translate(31.0825 237.382769) scale(0.1 -0.1)">
       <use xlink:href="#DejaVuSans-32"/>
       <use xlink:href="#DejaVuSans-35" transform="translate(63.623047 0)"/>
       <use xlink:href="#DejaVuSans-30" transform="translate(127.246094 0)"/>
      </g>
     </g>
    </g>
    <g id="ytick_3">
     <g id="line2d_21">
      <path d="M 57.17 196.918971 
L 450 196.918971 
" clip-path="url(#pd07cb0cb6f)" style="fill: none; stroke: #b0b0b0; stroke-opacity: 0.3; stroke-width: 0.8; stroke-linecap: square"/>
     </g>
     <g id="line2d_22">
      <g>
       <use xlink:href="#m1bad6a4e50" x="57.17" y="196.918971" style="stroke: #000000; stroke-width: 0.8"/>
      </g>
     </g>
     <g id="text_12">
      <!-- 500 -->
      <g transform="translate(31.0825 200.71819) scale(0.1 -0.1)">
       <use xlink:href="#DejaVuSans-35"/>
       <use xlink:href="#DejaVuSans-30" transform="translate(63.623047 0)"/>
       <use xlink:href="#DejaVuSans-30" transform="translate(127.246094 0)"/>
      </g>
     </g>
    </g>
    <g id="ytick_4">
     <g id="line2d_23">
      <path d="M 57.17 160.254392 
L 450 160.254392 
" clip-path="url(#pd07cb0cb6f)" style="fill: none; stroke: #b0b0b0; stroke-opacity: 0.3; stroke-width: 0.8; stroke-linecap: square"/>
     </g>
     <g id="line2d_24">
      <g>
       <use xlink:href="#m1bad6a4e50" x="57.17" y="160.254392" style="stroke: #000000; stroke-width: 0.8"/>
      </g>
     </g>
     <g id="text_13">
      <!-- 750 -->
      <g transform="translate(31.0825 164.053611) scale(0.1 -0.1)">
       <use xlink:href="#DejaVuSans-37"/>
       <use xlink:href="#DejaVuSans-35" transform="translate(63.623047 0)"/>
       <use xlink:href="#DejaVuSans-30" transform="translate(127.246094 0)"/>
      </g>
     </g>
    </g>
    <g id="ytick_5">
     <g id="line2d_25">
      <path d="M 57.17 123.589813 
L 450 123.589813 
" clip-path="url(#pd07cb0cb6f)" style="fill: none; stroke: #b0b0b0; stroke-opacity: 0.3; stroke-width: 0.8; stroke-linecap: square"/>
     </g>
     <g id="line2d_26">
      <g>
       <use xlink:href="#m1bad6a4e50" x="57.17" y="123.589813" style="stroke: #000000; stroke-width: 0.8"/>
      </g>
     </g>
     <g id="text_14">
      <!-- 1000 -->
      <g transform="translate(24.72 127.389032) scale(0.1 -0.1)">
       <use xlink:href="#DejaVuSans-31"/>
       <use xlink:href="#DejaVuSans-30" transform="translate(63.623047 0)"/>
       <use xlink:href="#DejaVuSans-30" transform="translate(127.246094 0)"/>
       <use xlink:href="#DejaVuSans-30" transform="translate(190.869141 0)"/>
      </g>
     </g>
    </g>
    <g id="ytick_6">
     <g id="line2d_27">
      <path d="M 57.17 86.925234 
L 450 86.925234 
" clip-path="url(#pd07cb0cb6f)" style="fill: none; stroke: #b0b0b0; stroke-opacity: 0.3; stroke-width: 0.8; stroke-linecap: square"/>
     </g>
     <g id="line2d_28">
      <g>
       <use xlink:href="#m1bad6a4e50" x="57.17" y="86.925234" style="stroke: #000000; stroke-width: 0.8"/>
      </g>
     </g>
     <g id="text_15">
      <!-- 1250 -->
      <g transform="translate(24.72 90.724452) scale(0.1 -0.1)">
       <use xlink:href="#DejaVuSans-31"/>
       <use xlink:href="#DejaVuSans-32" transform="translate(63.623047 0)"/>
       <use xlink:href="#DejaVuSans-35" transform="translate(127.246094 0)"/>
       <use xlink:href="#DejaVuSans-30" transform="translate(190.869141 0)"/>
      </g>
     </g>
    </g>
    <g id="ytick_7">
     <g id="line2d_29">
      <path d="M 57.17 50.260654 
L 450 50.260654 
" clip-path="url(#pd07cb0cb6f)" style="fill: none; stroke: #b0b0b0; stroke-opacity: 0.3; stroke-width: 0.8; stroke-linecap: square"/>
     </g>
     <g id="line2d_30">
      <g>
       <use xlink:href="#m1bad6a4e50" x="57.17" y="50.260654" style="stroke: #000000; stroke-width: 0.8"/>
      </g>
     </g>
     <g id="text_16">
      <!-- 1500 -->
      <g transform="translate(24.72 54.059873) scale(0.1 -0.1)">
       <use xlink:href="#DejaVuSans-31"/>
       <use xlink:href="#DejaVuSans-35" transform="translate(63.623047 0)"/>
       <use xlink:href="#DejaVuSans-30" transform="translate(127.246094 0)"/>
       <use xlink:href="#DejaVuSans-30" transform="translate(190.869141 0)"/>
      </g>
     </g>
    </g>
    <g id="text_17">
     <!-- Stress [Pa] -->
     <g transform="translate(18.640312 191.967812) rotate(-90) scale(0.1 -0.1)">
      <defs>
       <path id="DejaVuSans-65" d="M 3597 1894 
L 3597 1613 
L 953 1613 
Q 991 1019 1311 708 
Q 1631 397 2203 397 
Q 2534 397 2845 478 
Q 3156 559 3463 722 
L 3463 178 
Q 3153 47 2828 -22 
Q 2503 -91 2169 -91 
Q 1331 -91 842 396 
Q 353 884 353 1716 
Q 353 2575 817 3079 
Q 1281 3584 2069 3584 
Q 2775 3584 3186 3129 
Q 3597 2675 3597 1894 
z
M 3022 2063 
Q 3016 2534 2758 2815 
Q 2500 3097 2075 3097 
Q 1594 3097 1305 2825 
Q 1016 2553 972 2059 
L 3022 2063 
z
" transform="scale(0.015625)"/>
       <path id="DejaVuSans-73" d="M 2834 3397 
L 2834 2853 
Q 2591 2978 2328 3040 
Q 2066 3103 1784 3103 
Q 1356 3103 1142 2972 
Q 928 2841 928 2578 
Q 928 2378 1081 2264 
Q 1234 2150 1697 2047 
L 1894 2003 
Q 2506 1872 2764 1633 
Q 3022 1394 3022 966 
Q 3022 478 2636 193 
Q 2250 -91 1575 -91 
Q 1294 -91 989 -36 
Q 684 19 347 128 
L 347 722 
Q 666 556 975 473 
Q 1284 391 1588 391 
Q 1994 391 2212 530 
Q 2431 669 2431 922 
Q 2431 1156 2273 1281 
Q 2116 1406 1581 1522 
L 1381 1569 
Q 847 1681 609 1914 
Q 372 2147 372 2553 
Q 372 3047 722 3315 
Q 1072 3584 1716 3584 
Q 2034 3584 2315 3537 
Q 2597 3491 2834 3397 
z
" transform="scale(0.015625)"/>
       <path id="DejaVuSans-50" d="M 1259 4147 
L 1259 2394 
L 2053 2394 
Q 2494 2394 2734 2622 
Q 2975 2850 2975 3272 
Q 2975 3691 2734 3919 
Q 2494 4147 2053 4147 
L 1259 4147 
z
M 628 4666 
L 2053 4666 
Q 2838 4666 3239 4311 
Q 3641 3956 3641 3272 
Q 3641 2581 3239 2228 
Q 2838 1875 2053 1875 
L 1259 1875 
L 1259 0 
L 628 0 
L 628 4666 
z
" transform="scale(0.015625)"/>
      </defs>
      <use xlink:href="#DejaVuSans-53"/>
      <use xlink:href="#DejaVuSans-74" transform="translate(63.476562 0)"/>
      <use xlink:href="#DejaVuSans-72" transform="translate(102.685547 0)"/>
      <use xlink:href="#DejaVuSans-65" transform="translate(141.548828 0)"/>
      <use xlink:href="#DejaVuSans-73" transform="translate(203.072266 0)"/>
      <use xlink:href="#DejaVuSans-73" transform="translate(255.171875 0)"/>
      <use xlink:href="#DejaVuSans-20" transform="translate(307.271484 0)"/>
      <use xlink:href="#DejaVuSans-5b" transform="translate(339.058594 0)"/>
      <use xlink:href="#DejaVuSans-50" transform="translate(378.072266 0)"/>
      <use xlink:href="#DejaVuSans-61" transform="translate(433.875 0)"/>
      <use xlink:href="#DejaVuSans-5d" transform="translate(495.154297 0)"/>
     </g>
    </g>
   </g>
   <g id="line2d_31">
    <path d="M 75.178753 271.043928 
L 75.179613 271.150017 
L 75.17936 270.943253 
L 75.243505 271.02986 
L 75.969054 270.503374 
L 77.44555 268.027325 
L 78.19921 268.555734 
L 78.956952 268.872322 
L 79.707618 269.051591 
L 80.475704 268.883558 
L 81.244878 269.015549 
L 81.9901 268.915572 
L 82.747298 269.46591 
L 83.46367 268.750225 
L 84.209164 267.4477 
L 85.682222 265.91935 
L 87.126125 266.332526 
L 87.878424 266.305345 
L 88.629634 266.021297 
L 90.099665 265.827209 
L 90.839172 264.374236 
L 91.558402 263.476721 
L 93.042995 263.161061 
L 94.516564 262.795101 
L 95.983874 261.627838 
L 96.725422 261.242692 
L 98.912642 260.744096 
L 100.396826 259.980837 
L 101.856787 258.916295 
L 104.090464 257.852287 
L 104.831059 257.633976 
L 127.539289 246.462434 
L 130.463838 245.009808 
L 131.894404 244.322258 
L 132.639354 244.007911 
L 134.118912 243.180616 
L 136.325184 242.076462 
L 139.979462 240.233546 
L 140.715158 239.647441 
L 143.627187 238.122083 
L 144.344647 237.948969 
L 145.829376 237.081096 
L 146.571604 236.877702 
L 147.315466 236.498044 
L 148.063954 235.959396 
L 149.495881 235.344809 
L 151.723927 233.973108 
L 153.933738 232.890267 
L 154.67896 232.671712 
L 158.312472 230.472702 
L 159.76454 229.847564 
L 162.699704 228.127199 
L 164.161297 227.584725 
L 165.642216 226.576452 
L 166.379681 225.942194 
L 168.551115 224.713251 
L 169.27048 224.40617 
L 170.01162 224.233852 
L 173.654582 222.018664 
L 175.121628 221.449486 
L 181.733639 217.425047 
L 183.197683 216.639606 
L 186.121415 215.042368 
L 186.854934 214.773971 
L 188.331361 213.939991 
L 189.0461 213.650571 
L 190.493541 212.64593 
L 193.435415 211.100361 
L 194.916062 210.157244 
L 197.891508 208.437729 
L 199.379503 207.466633 
L 201.555563 206.505256 
L 208.133008 202.456316 
L 209.580449 201.781789 
L 211.786347 200.205351 
L 212.501902 199.657196 
L 215.447408 198.315408 
L 216.187459 197.906147 
L 217.660076 196.698691 
L 220.571561 195.102844 
L 222.045947 194.075711 
L 223.53993 193.335563 
L 226.405416 191.559857 
L 230.786116 188.932601 
L 231.523445 188.634138 
L 234.447177 186.746281 
L 235.896659 185.728346 
L 237.358525 184.973126 
L 239.546834 183.725479 
L 241.031835 182.58519 
L 243.183399 181.30338 
L 245.365992 179.996914 
L 248.324971 178.039746 
L 249.041887 177.608225 
L 251.226929 176.650268 
L 251.970518 176.085495 
L 253.449804 174.716036 
L 254.912486 173.973878 
L 256.355572 173.229943 
L 257.089227 172.649017 
L 257.815261 171.922936 
L 258.561436 171.342782 
L 260.033645 170.633396 
L 261.513203 169.849115 
L 264.420315 167.441431 
L 266.598825 166.357565 
L 268.038373 165.54971 
L 270.249544 163.676307 
L 273.900807 161.591974 
L 274.625072 161.005946 
L 276.801948 159.586402 
L 279.011487 157.919987 
L 280.463282 157.100382 
L 281.951005 156.024169 
L 284.169797 154.483382 
L 284.885897 154.159838 
L 287.841746 152.085476 
L 292.222173 149.071166 
L 293.693021 148.058177 
L 295.879968 146.504531 
L 297.32251 145.708578 
L 300.288566 143.603783 
L 302.487217 142.177514 
L 314.204192 133.735684 
L 315.670958 132.916234 
L 317.157048 131.521423 
L 320.832807 128.746805 
L 322.299572 127.428281 
L 323.754362 126.453552 
L 325.2165 125.613543 
L 326.682721 124.57072 
L 328.163367 123.210845 
L 329.595294 122.372922 
L 331.750124 120.893245 
L 333.244107 119.538007 
L 336.857232 116.985584 
L 339.07303 115.219849 
L 339.790218 114.846529 
L 341.977165 113.206548 
L 343.437126 111.786385 
L 344.153089 111.164184 
L 346.344664 109.680333 
L 347.063213 108.983469 
L 351.391926 105.846892 
L 352.854609 104.44698 
L 354.295806 103.71889 
L 355.010273 103.235351 
L 357.960951 100.491486 
L 359.427988 99.712846 
L 360.163684 99.290214 
L 361.625006 97.955227 
L 363.092044 96.509094 
L 366.002711 94.367951 
L 367.465122 93.095107 
L 369.65343 91.435803 
L 379.091836 83.741425 
L 381.248572 81.666754 
L 383.416195 80.469346 
L 384.909634 78.87605 
L 386.404433 77.679879 
L 388.63003 76.078003 
L 390.089242 74.475779 
L 390.811874 73.899335 
L 392.251966 73.040003 
L 392.995555 72.471907 
L 395.920376 69.649049 
L 397.356658 68.919876 
L 398.10188 68.296749 
L 399.558303 66.670525 
L 400.278757 65.805319 
L 401.005743 65.150501 
L 401.733274 64.743095 
L 403.890282 63.035561 
L 406.041846 60.840314 
L 407.480203 59.970393 
L 408.219165 59.384056 
L 409.686611 57.853984 
L 410.424757 56.972855 
L 411.892883 55.937838 
L 412.610888 55.517525 
L 414.041998 54.292679 
L 415.499237 52.867569 
L 426.503039 43.277509 
L 427.948711 41.864921 
L 429.392613 40.812358 
L 430.835699 40.163086 
L 431.557514 39.935462 
L 431.744296 39.70003 
L 432.144091 39.46 
L 431.926349 46.119728 
L 431.929513 57.564023 
L 431.925975 57.332089 
L 431.927948 71.500791 
L 431.923423 71.48483 
L 431.209365 71.537852 
L 429.744573 74.842548 
L 428.261477 74.604837 
L 424.546524 76.109634 
L 423.818449 76.096688 
L 423.103166 77.803295 
L 422.348962 79.136118 
L 420.850079 81.144782 
L 420.09642 82.402477 
L 419.362901 83.099689 
L 418.637003 82.866345 
L 417.920359 83.111051 
L 416.463392 83.985996 
L 414.978935 84.893771 
L 414.257256 87.651549 
L 413.529283 88.69273 
L 412.815634 89.305655 
L 411.360027 89.766257 
L 409.872849 90.857852 
L 409.131029 91.553635 
L 408.415882 92.630776 
L 406.187291 95.195169 
L 405.457311 95.613628 
L 403.987552 97.152356 
L 401.783729 97.998916 
L 400.320774 99.774467 
L 399.599231 101.082866 
L 398.857683 101.82827 
L 396.675091 103.096013 
L 394.459088 105.682376 
L 393.726114 106.174958 
L 392.990146 106.505768 
L 392.244515 107.015277 
L 391.49902 108.033367 
L 390.033072 109.536551 
L 387.826527 111.101559 
L 383.451952 115.156296 
L 380.565508 117.382769 
L 379.105275 118.841423 
L 377.66879 119.959616 
L 373.318983 123.693282 
L 372.579476 124.369741 
L 370.420291 125.968912 
L 367.465258 128.53176 
L 359.387366 135.124389 
L 357.92686 136.31399 
L 357.204229 136.706015 
L 355.74209 137.816159 
L 354.281177 138.946632 
L 352.82979 140.256267 
L 351.351865 141.35389 
L 349.897348 142.229377 
L 349.151581 142.761455 
L 348.410169 143.461256 
L 344.779455 145.981129 
L 343.332015 147.531606 
L 335.346884 153.287115 
L 334.6184 153.9948 
L 332.449961 155.170798 
L 331.736039 155.811703 
L 330.25131 156.858082 
L 328.777196 157.96328 
L 328.054292 158.378183 
L 326.576776 159.635646 
L 325.102253 160.585642 
L 323.667656 161.43596 
L 322.198441 162.504831 
L 320.723783 163.822659 
L 320.004145 164.261446 
L 319.27362 164.526712 
L 317.830534 165.38929 
L 315.614872 167.433508 
L 312.675626 169.300264 
L 311.936663 169.987081 
L 311.21757 170.457634 
L 309.011026 171.56975 
L 306.809109 173.426767 
L 305.347872 174.098637 
L 301.682456 176.911833 
L 300.947576 177.132695 
L 298.739126 178.567157 
L 296.537481 180.062061 
L 294.33257 181.402227 
L 291.388697 183.547775 
L 289.181881 184.938721 
L 284.108846 188.275658 
L 280.478813 190.448413 
L 279.755909 191.196444 
L 279.041715 191.5836 
L 278.31119 191.845967 
L 277.579033 192.276793 
L 276.854768 192.473153 
L 276.116078 192.819344 
L 275.39644 193.60463 
L 274.655164 194.182929 
L 273.198742 194.89645 
L 271.740278 195.824417 
L 270.297651 197.083692 
L 268.098728 197.870138 
L 265.903207 199.697166 
L 263.697479 200.483196 
L 262.98383 201.207731 
L 262.248542 202.191195 
L 261.53462 202.662135 
L 259.3112 203.325532 
L 258.587616 203.767796 
L 257.854914 204.57086 
L 257.126022 205.095131 
L 255.646192 205.592235 
L 254.910768 205.771514 
L 253.443186 207.311131 
L 252.707354 207.695504 
L 250.526786 208.356694 
L 249.799119 208.807151 
L 249.085333 209.543898 
L 246.907776 210.92271 
L 245.442371 211.605198 
L 243.955737 212.588043 
L 243.20861 212.806161 
L 238.108545 215.833997 
L 237.367133 216.352162 
L 234.418683 217.822855 
L 229.998382 220.36066 
L 229.271532 221.027535 
L 228.556521 221.348606 
L 227.092478 221.840878 
L 226.362497 222.239087 
L 225.639866 222.474673 
L 223.433866 223.980552 
L 221.263385 225.103373 
L 220.534493 225.606544 
L 217.615244 227.170856 
L 214.687854 228.865236 
L 212.513427 229.851714 
L 211.033052 230.86478 
L 208.85046 231.492333 
L 207.37934 232.553938 
L 206.655347 233.142439 
L 205.193481 233.755133 
L 202.318469 235.443189 
L 201.60373 235.968466 
L 195.065309 239.381315 
L 194.330701 239.453018 
L 193.611608 239.651656 
L 192.885574 240.157609 
L 191.425749 241.425043 
L 190.682296 241.801841 
L 188.479018 242.29387 
L 186.259409 243.745915 
L 184.79836 244.385275 
L 184.081171 244.616571 
L 179.712924 246.947439 
L 176.779121 248.419464 
L 176.045875 248.614627 
L 174.563051 249.289927 
L 172.367122 250.513651 
L 169.430325 251.818146 
L 168.689457 252.073712 
L 164.993285 254.14792 
L 163.532508 254.634337 
L 162.783917 255.007136 
L 162.037878 255.556836 
L 160.605407 256.247827 
L 159.160144 256.660179 
L 157.67977 257.532729 
L 156.209194 258.565504 
L 153.255114 259.47324 
L 150.343085 261.126941 
L 148.869515 261.426148 
L 145.2239 263.384007 
L 143.790068 263.903138 
L 142.356781 264.595017 
L 140.875318 265.532028 
L 135.760555 267.42603 
L 134.305766 267.939751 
L 131.3804 269.632059 
L 129.944935 270.180484 
L 124.801488 272.39314 
L 124.059532 272.621325 
L 122.604742 273.434669 
L 120.410991 274.208787 
L 118.954568 274.843199 
L 116.783815 275.858777 
L 116.053563 276.097996 
L 115.334741 276.197951 
L 113.879952 277.056356 
L 110.244749 278.410424 
L 108.77213 279.255984 
L 105.812743 280.088187 
L 104.372242 280.948523 
L 102.92589 281.49977 
L 100.753368 282.203339 
L 100.015223 282.714548 
L 98.556895 283.364187 
L 97.103194 283.778627 
L 96.378113 283.89456 
L 94.926317 284.589183 
L 93.442268 285.341311 
L 92.717731 285.571294 
L 91.995099 285.672884 
L 90.512167 286.164656 
L 89.055336 286.919489 
L 85.429113 288.200836 
L 84.70376 288.767077 
L 83.968608 289.12347 
L 78.135569 290.727154 
L 75.952976 290.725632 
L 75.186106 291.06 
L 75.026195 289.881733 
L 75.026195 289.881733 
" clip-path="url(#pd07cb0cb6f)" style="fill: none; stroke: #ff0000; stroke-width: 2; stroke-linecap: square"/>
   </g>
   <g id="line2d_32">
    <path d="M 75.178753 271.043928 
L 75.179613 271.150017 
L 75.17936 270.943253 
L 75.243505 271.02986 
L 75.969054 270.503374 
L 77.44555 268.027325 
L 78.19921 271.440135 
L 79.707618 270.440412 
L 81.244878 269.370512 
L 81.9901 268.918161 
L 82.747298 269.46591 
L 83.46367 268.750225 
L 84.209164 267.4477 
L 85.682222 265.91935 
L 87.126125 266.332526 
L 87.878424 266.305345 
L 88.629634 266.021297 
L 90.099665 265.827209 
L 90.839172 264.374236 
L 91.558402 263.476721 
L 93.042995 263.161061 
L 94.516564 262.795101 
L 95.983874 261.627838 
L 96.725422 261.242692 
L 98.912642 260.744096 
L 100.396826 259.980837 
L 101.856787 258.916295 
L 104.090464 257.852287 
L 104.831059 257.633976 
L 127.539289 246.462434 
L 130.463838 245.009808 
L 131.894404 244.322258 
L 132.639354 244.007911 
L 134.118912 243.180616 
L 136.325184 242.076462 
L 139.979462 240.233546 
L 140.715158 239.647441 
L 143.627187 238.122083 
L 144.344647 237.948969 
L 145.829376 237.081096 
L 146.571604 236.877702 
L 147.315466 236.498044 
L 148.063954 235.959396 
L 149.495881 235.344809 
L 151.723927 233.973108 
L 153.933738 232.890267 
L 154.67896 232.671712 
L 158.312472 230.472702 
L 159.76454 229.847564 
L 162.699704 228.127199 
L 164.161297 227.584725 
L 165.642216 226.576452 
L 166.379681 225.942194 
L 168.551115 224.713251 
L 169.27048 224.40617 
L 170.01162 224.233852 
L 173.654582 222.018664 
L 175.121628 221.449486 
L 181.733639 217.425047 
L 183.197683 216.639606 
L 186.121415 215.042368 
L 186.854934 214.773971 
L 188.331361 213.939991 
L 189.0461 213.650571 
L 190.493541 212.64593 
L 193.435415 211.100361 
L 194.916062 210.157244 
L 197.891508 208.437729 
L 199.379503 207.466633 
L 201.555563 206.505256 
L 208.133008 202.456316 
L 209.580449 201.781789 
L 211.786347 200.205351 
L 212.501902 199.657196 
L 215.447408 198.315408 
L 216.187459 197.906147 
L 217.660076 196.698691 
L 220.571561 195.102844 
L 222.045947 194.075711 
L 223.53993 193.335563 
L 226.405416 191.559857 
L 230.786116 188.932601 
L 231.523445 188.634138 
L 234.447177 186.746281 
L 235.896659 185.728346 
L 237.358525 184.973126 
L 239.546834 183.725479 
L 241.031835 182.58519 
L 243.183399 181.30338 
L 245.365992 179.996914 
L 248.324971 178.039746 
L 249.041887 177.608225 
L 251.226929 176.650268 
L 251.970518 176.085495 
L 253.449804 174.716036 
L 254.912486 173.973878 
L 256.355572 173.229943 
L 257.089227 172.649017 
L 257.815261 171.922936 
L 258.561436 171.342782 
L 260.033645 170.633396 
L 261.513203 169.849115 
L 264.420315 167.441431 
L 266.598825 166.357565 
L 268.038373 165.54971 
L 270.249544 163.676307 
L 273.900807 161.591974 
L 274.625072 161.005946 
L 276.801948 159.586402 
L 279.011487 157.919987 
L 280.463282 157.100382 
L 281.951005 156.024169 
L 284.169797 154.483382 
L 284.885897 154.159838 
L 287.841746 152.085476 
L 292.222173 149.071166 
L 293.693021 148.058177 
L 295.879968 146.504531 
L 297.32251 145.708578 
L 300.288566 143.603783 
L 302.487217 142.177514 
L 314.204192 133.735684 
L 315.670958 132.916234 
L 317.157048 131.521423 
L 320.832807 128.746805 
L 322.299572 127.428281 
L 323.754362 126.453552 
L 325.2165 125.613543 
L 326.682721 124.57072 
L 328.163367 123.210845 
L 329.595294 122.372922 
L 331.750124 120.893245 
L 333.244107 119.538007 
L 336.857232 116.985584 
L 339.07303 115.219849 
L 339.790218 114.846529 
L 341.977165 113.206548 
L 343.437126 111.786385 
L 344.153089 111.164184 
L 346.344664 109.680333 
L 347.063213 108.983469 
L 351.391926 105.846892 
L 352.854609 104.44698 
L 354.295806 103.71889 
L 355.010273 103.235351 
L 357.960951 100.491486 
L 359.427988 99.712846 
L 360.163684 99.290214 
L 361.625006 97.955227 
L 363.092044 96.509094 
L 366.002711 94.367951 
L 367.465122 93.095107 
L 369.65343 91.435803 
L 379.091836 83.741425 
L 381.248572 81.666754 
L 383.416195 80.469346 
L 384.909634 78.87605 
L 386.404433 77.679879 
L 388.63003 76.078003 
L 390.089242 74.475779 
L 390.811874 73.899335 
L 392.251966 73.040003 
L 392.995555 72.471907 
L 395.920376 69.649049 
L 397.356658 68.919876 
L 398.10188 68.296749 
L 399.558303 66.670525 
L 400.278757 65.805319 
L 401.005743 65.150501 
L 401.733274 64.743095 
L 403.890282 63.035561 
L 406.041846 60.840314 
L 407.480203 59.970393 
L 408.219165 59.384056 
L 409.686611 57.853984 
L 410.424757 56.972855 
L 411.892883 55.937838 
L 412.610888 55.517525 
L 414.041998 54.292679 
L 415.499237 52.867569 
L 426.503039 43.277509 
L 427.948711 41.864921 
L 429.392613 40.812358 
L 430.835699 40.163086 
L 431.557514 39.935462 
L 431.744296 39.70003 
L 432.144091 39.46 
L 432.003511 40.719729 
L 431.973504 40.55928 
L 431.928526 53.034694 
L 431.927948 71.500791 
L 431.923423 71.48483 
L 431.209365 71.537852 
L 429.744573 74.842548 
L 428.261477 74.604837 
L 424.546524 76.109634 
L 423.818449 76.096688 
L 423.103166 77.803295 
L 422.348962 79.136118 
L 420.850079 81.144782 
L 420.09642 82.402477 
L 419.362901 83.099689 
L 418.637003 82.866345 
L 417.920359 83.111051 
L 416.463392 83.985996 
L 414.978935 84.893771 
L 414.257256 87.651549 
L 413.529283 88.69273 
L 412.815634 89.305655 
L 411.360027 89.766257 
L 409.872849 90.857852 
L 409.131029 91.553635 
L 408.415882 92.630776 
L 406.187291 95.195169 
L 405.457311 95.613628 
L 403.987552 97.152356 
L 401.783729 97.998916 
L 400.320774 99.774467 
L 399.599231 101.082866 
L 398.857683 101.82827 
L 396.675091 103.096013 
L 394.459088 105.682376 
L 393.726114 106.174958 
L 392.990146 106.505768 
L 392.244515 107.015277 
L 391.49902 108.033367 
L 390.033072 109.536551 
L 387.826527 111.101559 
L 383.451952 115.156296 
L 380.565508 117.382769 
L 379.105275 118.841423 
L 377.66879 119.959616 
L 373.318983 123.693282 
L 372.579476 124.369741 
L 370.420291 125.968912 
L 367.465258 128.53176 
L 359.387366 135.124389 
L 357.92686 136.31399 
L 357.204229 136.706015 
L 355.74209 137.816159 
L 354.281177 138.946632 
L 352.82979 140.256267 
L 351.351865 141.35389 
L 349.897348 142.229377 
L 349.151581 142.761455 
L 348.410169 143.461256 
L 344.779455 145.981129 
L 343.332015 147.531606 
L 335.346884 153.287115 
L 334.6184 153.9948 
L 332.449961 155.170798 
L 331.736039 155.811703 
L 330.25131 156.858082 
L 328.777196 157.96328 
L 328.054292 158.378183 
L 326.576776 159.635646 
L 325.102253 160.585642 
L 323.667656 161.43596 
L 322.198441 162.504831 
L 320.723783 163.822659 
L 320.004145 164.261446 
L 319.27362 164.526712 
L 317.830534 165.38929 
L 315.614872 167.433508 
L 312.675626 169.300264 
L 311.936663 169.987081 
L 311.21757 170.457634 
L 309.011026 171.56975 
L 306.809109 173.426767 
L 305.347872 174.098637 
L 301.682456 176.911833 
L 300.947576 177.132695 
L 298.739126 178.567157 
L 296.537481 180.062061 
L 294.33257 181.402227 
L 291.388697 183.547775 
L 289.181881 184.938721 
L 284.108846 188.275658 
L 280.478813 190.448413 
L 279.755909 191.196444 
L 279.041715 191.5836 
L 278.31119 191.845967 
L 277.579033 192.276793 
L 276.854768 192.473153 
L 276.116078 192.819344 
L 275.39644 193.60463 
L 274.655164 194.182929 
L 273.198742 194.89645 
L 271.740278 195.824417 
L 270.297651 197.083692 
L 268.098728 197.870138 
L 265.903207 199.697166 
L 263.697479 200.483196 
L 262.98383 201.207731 
L 262.248542 202.191195 
L 261.53462 202.662135 
L 259.3112 203.325532 
L 258.587616 203.767796 
L 257.854914 204.57086 
L 257.126022 205.095131 
L 255.646192 205.592235 
L 254.910768 205.771514 
L 253.443186 207.311131 
L 252.707354 207.695504 
L 250.526786 208.356694 
L 249.799119 208.807151 
L 249.085333 209.543898 
L 246.907776 210.92271 
L 245.442371 211.605198 
L 243.955737 212.588043 
L 243.20861 212.806161 
L 238.108545 215.833997 
L 237.367133 216.352162 
L 234.418683 217.822855 
L 229.998382 220.36066 
L 229.271532 221.027535 
L 228.556521 221.348606 
L 227.092478 221.840878 
L 226.362497 222.239087 
L 225.639866 222.474673 
L 223.433866 223.980552 
L 221.263385 225.103373 
L 220.534493 225.606544 
L 217.615244 227.170856 
L 214.687854 228.865236 
L 212.513427 229.851714 
L 211.033052 230.86478 
L 208.85046 231.492333 
L 207.37934 232.553938 
L 206.655347 233.142439 
L 205.193481 233.755133 
L 202.318469 235.443189 
L 201.60373 235.968466 
L 195.065309 239.381315 
L 194.330701 239.453018 
L 193.611608 239.651656 
L 192.885574 240.157609 
L 191.425749 241.425043 
L 190.682296 241.801841 
L 188.479018 242.29387 
L 186.259409 243.745915 
L 184.79836 244.385275 
L 184.081171 244.616571 
L 179.712924 246.947439 
L 176.779121 248.419464 
L 176.045875 248.614627 
L 174.563051 249.289927 
L 172.367122 250.513651 
L 169.430325 251.818146 
L 168.689457 252.073712 
L 164.993285 254.14792 
L 163.532508 254.634337 
L 162.783917 255.007136 
L 162.037878 255.556836 
L 160.605407 256.247827 
L 159.160144 256.660179 
L 157.67977 257.532729 
L 156.209194 258.565504 
L 153.255114 259.47324 
L 150.343085 261.126941 
L 148.869515 261.426148 
L 145.2239 263.384007 
L 143.790068 263.903138 
L 142.356781 264.595017 
L 140.875318 265.532028 
L 135.760555 267.42603 
L 134.305766 267.939751 
L 131.3804 269.632059 
L 129.944935 270.180484 
L 124.801488 272.39314 
L 124.059532 272.621325 
L 122.604742 273.434669 
L 120.410991 274.208787 
L 118.954568 274.843199 
L 116.783815 275.858777 
L 116.053563 276.097996 
L 115.334741 276.197951 
L 113.879952 277.056356 
L 110.244749 278.410424 
L 108.77213 279.255984 
L 105.812743 280.088187 
L 104.372242 280.948523 
L 102.92589 281.49977 
L 100.753368 282.203339 
L 100.015223 282.714548 
L 98.556895 283.364187 
L 97.103194 283.778627 
L 96.378113 283.89456 
L 94.926317 284.589183 
L 93.442268 285.341311 
L 92.717731 285.571294 
L 91.995099 285.672884 
L 90.512167 286.164656 
L 89.055336 286.919489 
L 85.429113 288.200836 
L 84.70376 288.767077 
L 83.968608 289.12347 
L 78.135569 290.727154 
L 75.952976 290.725632 
L 75.186106 291.06 
L 75.026195 289.881733 
L 75.026195 289.881733 
" clip-path="url(#pd07cb0cb6f)" style="fill: none; stroke: #000000; stroke-width: 2; stroke-linecap: square"/>
   </g>
   <g id="patch_3">
    <path d="M 57.17 303.64 
L 57.17 26.88 
" style="fill: none; stroke: #000000; stroke-width: 0.8; stroke-linejoin: miter; stroke-linecap: square"/>
   </g>
   <g id="patch_4">
    <path d="M 450 303.64 
L 450 26.88 
" style="fill: none; stroke: #000000; stroke-width: 0.8; stroke-linejoin: miter; stroke-linecap: square"/>
   </g>
   <g id="patch_5">
    <path d="M 57.17 303.64 
L 450 303.64 
" style="fill: none; stroke: #000000; stroke-width: 0.8; stroke-linejoin: miter; stroke-linecap: square"/>
   </g>
   <g id="patch_6">
    <path d="M 57.17 26.88 
L 450 26.88 
" style="fill: none; stroke: #000000; stroke-width: 0.8; stroke-linejoin: miter; stroke-linecap: square"/>
   </g>
   <g id="text_18">
    <!-- 2025-07-02 Trial 13 - Stress vs Strain -->
    <g transform="translate(142.330938 20.88) scale(0.12 -0.12)">
     <defs>
      <path id="DejaVuSans-54" d="M -19 4666 
L 3928 4666 
L 3928 4134 
L 2272 4134 
L 2272 0 
L 1638 0 
L 1638 4134 
L -19 4134 
L -19 4666 
z
" transform="scale(0.015625)"/>
      <path id="DejaVuSans-6c" d="M 603 4863 
L 1178 4863 
L 1178 0 
L 603 0 
L 603 4863 
z
" transform="scale(0.015625)"/>
      <path id="DejaVuSans-33" d="M 2597 2516 
Q 3050 2419 3304 2112 
Q 3559 1806 3559 1356 
Q 3559 666 3084 287 
Q 2609 -91 1734 -91 
Q 1441 -91 1130 -33 
Q 819 25 488 141 
L 488 750 
Q 750 597 1062 519 
Q 1375 441 1716 441 
Q 2309 441 2620 675 
Q 2931 909 2931 1356 
Q 2931 1769 2642 2001 
Q 2353 2234 1838 2234 
L 1294 2234 
L 1294 2753 
L 1863 2753 
Q 2328 2753 2575 2939 
Q 2822 3125 2822 3475 
Q 2822 3834 2567 4026 
Q 2313 4219 1838 4219 
Q 1578 4219 1281 4162 
Q 984 4106 628 3988 
L 628 4550 
Q 988 4650 1302 4700 
Q 1616 4750 1894 4750 
Q 2613 4750 3031 4423 
Q 3450 4097 3450 3541 
Q 3450 3153 3228 2886 
Q 3006 2619 2597 2516 
z
" transform="scale(0.015625)"/>
      <path id="DejaVuSans-76" d="M 191 3500 
L 800 3500 
L 1894 563 
L 2988 3500 
L 3597 3500 
L 2284 0 
L 1503 0 
L 191 3500 
z
" transform="scale(0.015625)"/>
     </defs>
     <use xlink:href="#DejaVuSans-32"/>
     <use xlink:href="#DejaVuSans-30" transform="translate(63.623047 0)"/>
     <use xlink:href="#DejaVuSans-32" transform="translate(127.246094 0)"/>
     <use xlink:href="#DejaVuSans-35" transform="translate(190.869141 0)"/>
     <use xlink:href="#DejaVuSans-2d" transform="translate(254.492188 0)"/>
     <use xlink:href="#DejaVuSans-30" transform="translate(290.576172 0)"/>
     <use xlink:href="#DejaVuSans-37" transform="translate(354.199219 0)"/>
     <use xlink:href="#DejaVuSans-2d" transform="translate(417.822266 0)"/>
     <use xlink:href="#DejaVuSans-30" transform="translate(453.90625 0)"/>
     <use xlink:href="#DejaVuSans-32" transform="translate(517.529297 0)"/>
     <use xlink:href="#DejaVuSans-20" transform="translate(581.152344 0)"/>
     <use xlink:href="#DejaVuSans-54" transform="translate(612.939453 0)"/>
     <use xlink:href="#DejaVuSans-72" transform="translate(659.273438 0)"/>
     <use xlink:href="#DejaVuSans-69" transform="translate(700.386719 0)"/>
     <use xlink:href="#DejaVuSans-61" transform="translate(728.169922 0)"/>
     <use xlink:href="#DejaVuSans-6c" transform="translate(789.449219 0)"/>
     <use xlink:href="#DejaVuSans-20" transform="translate(817.232422 0)"/>
     <use xlink:href="#DejaVuSans-31" transform="translate(849.019531 0)"/>
     <use xlink:href="#DejaVuSans-33" transform="translate(912.642578 0)"/>
     <use xlink:href="#DejaVuSans-20" transform="translate(976.265625 0)"/>
     <use xlink:href="#DejaVuSans-2d" transform="translate(1008.052734 0)"/>
     <use xlink:href="#DejaVuSans-20" transform="translate(1044.136719 0)"/>
     <use xlink:href="#DejaVuSans-53" transform="translate(1075.923828 0)"/>
     <use xlink:href="#DejaVuSans-74" transform="translate(1139.400391 0)"/>
     <use xlink:href="#DejaVuSans-72" transform="translate(1178.609375 0)"/>
     <use xlink:href="#DejaVuSans-65" transform="translate(1217.472656 0)"/>
     <use xlink:href="#DejaVuSans-73" transform="translate(1278.996094 0)"/>
     <use xlink:href="#DejaVuSans-73" transform="translate(1331.095703 0)"/>
     <use xlink:href="#DejaVuSans-20" transform="translate(1383.195312 0)"/>
     <use xlink:href="#DejaVuSans-76" transform="translate(1414.982422 0)"/>
     <use xlink:href="#DejaVuSans-73" transform="translate(1474.162109 0)"/>
     <use xlink:href="#DejaVuSans-20" transform="translate(1526.261719 0)"/>
     <use xlink:href="#DejaVuSans-53" transform="translate(1558.048828 0)"/>
     <use xlink:href="#DejaVuSans-74" transform="translate(1621.525391 0)"/>
     <use xlink:href="#DejaVuSans-72" transform="translate(1660.734375 0)"/>
     <use xlink:href="#DejaVuSans-61" transform="translate(1701.847656 0)"/>
     <use xlink:href="#DejaVuSans-69" transform="translate(1763.126953 0)"/>
     <use xlink:href="#DejaVuSans-6e" transform="translate(1790.910156 0)"/>
    </g>
   </g>
   <g id="legend_1">
    <g id="patch_7">
     <path d="M 64.17 64.23625 
L 170.154375 64.23625 
Q 172.154375 64.23625 172.154375 62.23625 
L 172.154375 33.88 
Q 172.154375 31.88 170.154375 31.88 
L 64.17 31.88 
Q 62.17 31.88 62.17 33.88 
L 62.17 62.23625 
Q 62.17 64.23625 64.17 64.23625 
z
" style="fill: #ffffff; opacity: 0.8; stroke: #cccccc; stroke-linejoin: miter"/>
    </g>
    <g id="line2d_33">
     <path d="M 66.17 39.978437 
L 76.17 39.978437 
L 86.17 39.978437 
" style="fill: none; stroke: #ff0000; stroke-width: 2; stroke-linecap: square"/>
    </g>
    <g id="text_19">
     <!-- Raw Force -->
     <g transform="translate(94.17 43.478437) scale(0.1 -0.1)">
      <defs>
       <path id="DejaVuSans-52" d="M 2841 2188 
Q 3044 2119 3236 1894 
Q 3428 1669 3622 1275 
L 4263 0 
L 3584 0 
L 2988 1197 
Q 2756 1666 2539 1819 
Q 2322 1972 1947 1972 
L 1259 1972 
L 1259 0 
L 628 0 
L 628 4666 
L 2053 4666 
Q 2853 4666 3247 4331 
Q 3641 3997 3641 3322 
Q 3641 2881 3436 2590 
Q 3231 2300 2841 2188 
z
M 1259 4147 
L 1259 2491 
L 2053 2491 
Q 2509 2491 2742 2702 
Q 2975 2913 2975 3322 
Q 2975 3731 2742 3939 
Q 2509 4147 2053 4147 
L 1259 4147 
z
" transform="scale(0.015625)"/>
       <path id="DejaVuSans-77" d="M 269 3500 
L 844 3500 
L 1563 769 
L 2278 3500 
L 2956 3500 
L 3675 769 
L 4391 3500 
L 4966 3500 
L 4050 0 
L 3372 0 
L 2619 2869 
L 1863 0 
L 1184 0 
L 269 3500 
z
" transform="scale(0.015625)"/>
       <path id="DejaVuSans-46" d="M 628 4666 
L 3309 4666 
L 3309 4134 
L 1259 4134 
L 1259 2759 
L 3109 2759 
L 3109 2228 
L 1259 2228 
L 1259 0 
L 628 0 
L 628 4666 
z
" transform="scale(0.015625)"/>
       <path id="DejaVuSans-6f" d="M 1959 3097 
Q 1497 3097 1228 2736 
Q 959 2375 959 1747 
Q 959 1119 1226 758 
Q 1494 397 1959 397 
Q 2419 397 2687 759 
Q 2956 1122 2956 1747 
Q 2956 2369 2687 2733 
Q 2419 3097 1959 3097 
z
M 1959 3584 
Q 2709 3584 3137 3096 
Q 3566 2609 3566 1747 
Q 3566 888 3137 398 
Q 2709 -91 1959 -91 
Q 1206 -91 779 398 
Q 353 888 353 1747 
Q 353 2609 779 3096 
Q 1206 3584 1959 3584 
z
" transform="scale(0.015625)"/>
       <path id="DejaVuSans-63" d="M 3122 3366 
L 3122 2828 
Q 2878 2963 2633 3030 
Q 2388 3097 2138 3097 
Q 1578 3097 1268 2742 
Q 959 2388 959 1747 
Q 959 1106 1268 751 
Q 1578 397 2138 397 
Q 2388 397 2633 464 
Q 2878 531 3122 666 
L 3122 134 
Q 2881 22 2623 -34 
Q 2366 -91 2075 -91 
Q 1284 -91 818 406 
Q 353 903 353 1747 
Q 353 2603 823 3093 
Q 1294 3584 2113 3584 
Q 2378 3584 2631 3529 
Q 2884 3475 3122 3366 
z
" transform="scale(0.015625)"/>
      </defs>
      <use xlink:href="#DejaVuSans-52"/>
      <use xlink:href="#DejaVuSans-61" transform="translate(67.232422 0)"/>
      <use xlink:href="#DejaVuSans-77" transform="translate(128.511719 0)"/>
      <use xlink:href="#DejaVuSans-20" transform="translate(210.298828 0)"/>
      <use xlink:href="#DejaVuSans-46" transform="translate(242.085938 0)"/>
      <use xlink:href="#DejaVuSans-6f" transform="translate(295.980469 0)"/>
      <use xlink:href="#DejaVuSans-72" transform="translate(357.162109 0)"/>
      <use xlink:href="#DejaVuSans-63" transform="translate(396.025391 0)"/>
      <use xlink:href="#DejaVuSans-65" transform="translate(451.005859 0)"/>
     </g>
    </g>
    <g id="line2d_34">
     <path d="M 66.17 54.656563 
L 76.17 54.656563 
L 86.17 54.656563 
" style="fill: none; stroke: #000000; stroke-width: 2; stroke-linecap: square"/>
    </g>
    <g id="text_20">
     <!-- Adjusted Force -->
     <g transform="translate(94.17 58.156563) scale(0.1 -0.1)">
      <defs>
       <path id="DejaVuSans-41" d="M 2188 4044 
L 1331 1722 
L 3047 1722 
L 2188 4044 
z
M 1831 4666 
L 2547 4666 
L 4325 0 
L 3669 0 
L 3244 1197 
L 1141 1197 
L 716 0 
L 50 0 
L 1831 4666 
z
" transform="scale(0.015625)"/>
       <path id="DejaVuSans-64" d="M 2906 2969 
L 2906 4863 
L 3481 4863 
L 3481 0 
L 2906 0 
L 2906 525 
Q 2725 213 2448 61 
Q 2172 -91 1784 -91 
Q 1150 -91 751 415 
Q 353 922 353 1747 
Q 353 2572 751 3078 
Q 1150 3584 1784 3584 
Q 2172 3584 2448 3432 
Q 2725 3281 2906 2969 
z
M 947 1747 
Q 947 1113 1208 752 
Q 1469 391 1925 391 
Q 2381 391 2643 752 
Q 2906 1113 2906 1747 
Q 2906 2381 2643 2742 
Q 2381 3103 1925 3103 
Q 1469 3103 1208 2742 
Q 947 2381 947 1747 
z
" transform="scale(0.015625)"/>
       <path id="DejaVuSans-6a" d="M 603 3500 
L 1178 3500 
L 1178 -63 
Q 1178 -731 923 -1031 
Q 669 -1331 103 -1331 
L -116 -1331 
L -116 -844 
L 38 -844 
Q 366 -844 484 -692 
Q 603 -541 603 -63 
L 603 3500 
z
M 603 4863 
L 1178 4863 
L 1178 4134 
L 603 4134 
L 603 4863 
z
" transform="scale(0.015625)"/>
       <path id="DejaVuSans-75" d="M 544 1381 
L 544 3500 
L 1119 3500 
L 1119 1403 
Q 1119 906 1312 657 
Q 1506 409 1894 409 
Q 2359 409 2629 706 
Q 2900 1003 2900 1516 
L 2900 3500 
L 3475 3500 
L 3475 0 
L 2900 0 
L 2900 538 
Q 2691 219 2414 64 
Q 2138 -91 1772 -91 
Q 1169 -91 856 284 
Q 544 659 544 1381 
z
M 1991 3584 
L 1991 3584 
z
" transform="scale(0.015625)"/>
      </defs>
      <use xlink:href="#DejaVuSans-41"/>
      <use xlink:href="#DejaVuSans-64" transform="translate(66.658203 0)"/>
      <use xlink:href="#DejaVuSans-6a" transform="translate(130.134766 0)"/>
      <use xlink:href="#DejaVuSans-75" transform="translate(157.917969 0)"/>
      <use xlink:href="#DejaVuSans-73" transform="translate(221.296875 0)"/>
      <use xlink:href="#DejaVuSans-74" transform="translate(273.396484 0)"/>
      <use xlink:href="#DejaVuSans-65" transform="translate(312.605469 0)"/>
      <use xlink:href="#DejaVuSans-64" transform="translate(374.128906 0)"/>
      <use xlink:href="#DejaVuSans-20" transform="translate(437.605469 0)"/>
      <use xlink:href="#DejaVuSans-46" transform="translate(469.392578 0)"/>
      <use xlink:href="#DejaVuSans-6f" transform="translate(523.287109 0)"/>
      <use xlink:href="#DejaVuSans-72" transform="translate(584.46875 0)"/>
      <use xlink:href="#DejaVuSans-63" transform="translate(623.332031 0)"/>
      <use xlink:href="#DejaVuSans-65" transform="translate(678.3125 0)"/>
     </g>
    </g>
   </g>
  </g>
 </g>
 <defs>
  <clipPath id="pd07cb0cb6f">
   <rect x="57.17" y="26.88" width="392.83" height="276.76"/>
  </clipPath>
 </defs>
</svg>
