<?xml version="1.0" encoding="utf-8" standalone="no"?>
<!DOCTYPE svg PUBLIC "-//W3C//DTD SVG 1.1//EN"
  "http://www.w3.org/Graphics/SVG/1.1/DTD/svg11.dtd">
<svg xmlns:xlink="http://www.w3.org/1999/xlink" width="460.8pt" height="345.6pt" viewBox="0 0 460.8 345.6" xmlns="http://www.w3.org/2000/svg" version="1.1">
 <metadata>
  <rdf:RDF xmlns:dc="http://purl.org/dc/elements/1.1/" xmlns:cc="http://creativecommons.org/ns#" xmlns:rdf="http://www.w3.org/1999/02/22-rdf-syntax-ns#">
   <cc:Work>
    <dc:type rdf:resource="http://purl.org/dc/dcmitype/StillImage"/>
    <dc:date>2025-07-28T21:14:54.245193</dc:date>
    <dc:format>image/svg+xml</dc:format>
    <dc:creator>
     <cc:Agent>
      <dc:title>Matplotlib v3.10.3, https://matplotlib.org/</dc:title>
     </cc:Agent>
    </dc:creator>
   </cc:Work>
  </rdf:RDF>
 </metadata>
 <defs>
  <style type="text/css">*{stroke-linejoin: round; stroke-linecap: butt}</style>
 </defs>
 <g id="figure_1">
  <g id="patch_1">
   <path d="M 0 345.6 
L 460.8 345.6 
L 460.8 0 
L 0 0 
z
" style="fill: #ffffff"/>
  </g>
  <g id="axes_1">
   <g id="patch_2">
    <path d="M 57.17 303.64 
L 450 303.64 
L 450 26.88 
L 57.17 26.88 
z
" style="fill: #ffffff"/>
   </g>
   <g id="matplotlib.axis_1">
    <g id="xtick_1">
     <g id="line2d_1">
      <path d="M 75.181552 303.64 
L 75.181552 26.88 
" clip-path="url(#p4d994073ca)" style="fill: none; stroke: #b0b0b0; stroke-opacity: 0.3; stroke-width: 0.8; stroke-linecap: square"/>
     </g>
     <g id="line2d_2">
      <defs>
       <path id="mdcbeb7a662" d="M 0 0 
L 0 3.5 
" style="stroke: #000000; stroke-width: 0.8"/>
      </defs>
      <g>
       <use xlink:href="#mdcbeb7a662" x="75.181552" y="303.64" style="stroke: #000000; stroke-width: 0.8"/>
      </g>
     </g>
     <g id="text_1">
      <!-- 0.000 -->
      <g transform="translate(60.86749 318.238437) scale(0.1 -0.1)">
       <defs>
        <path id="DejaVuSans-30" d="M 2034 4250 
Q 1547 4250 1301 3770 
Q 1056 3291 1056 2328 
Q 1056 1369 1301 889 
Q 1547 409 2034 409 
Q 2525 409 2770 889 
Q 3016 1369 3016 2328 
Q 3016 3291 2770 3770 
Q 2525 4250 2034 4250 
z
M 2034 4750 
Q 2819 4750 3233 4129 
Q 3647 3509 3647 2328 
Q 3647 1150 3233 529 
Q 2819 -91 2034 -91 
Q 1250 -91 836 529 
Q 422 1150 422 2328 
Q 422 3509 836 4129 
Q 1250 4750 2034 4750 
z
" transform="scale(0.015625)"/>
        <path id="DejaVuSans-2e" d="M 684 794 
L 1344 794 
L 1344 0 
L 684 0 
L 684 794 
z
" transform="scale(0.015625)"/>
       </defs>
       <use xlink:href="#DejaVuSans-30"/>
       <use xlink:href="#DejaVuSans-2e" transform="translate(63.623047 0)"/>
       <use xlink:href="#DejaVuSans-30" transform="translate(95.410156 0)"/>
       <use xlink:href="#DejaVuSans-30" transform="translate(159.033203 0)"/>
       <use xlink:href="#DejaVuSans-30" transform="translate(222.65625 0)"/>
      </g>
     </g>
    </g>
    <g id="xtick_2">
     <g id="line2d_3">
      <path d="M 125.12531 303.64 
L 125.12531 26.88 
" clip-path="url(#p4d994073ca)" style="fill: none; stroke: #b0b0b0; stroke-opacity: 0.3; stroke-width: 0.8; stroke-linecap: square"/>
     </g>
     <g id="line2d_4">
      <g>
       <use xlink:href="#mdcbeb7a662" x="125.12531" y="303.64" style="stroke: #000000; stroke-width: 0.8"/>
      </g>
     </g>
     <g id="text_2">
      <!-- 0.025 -->
      <g transform="translate(110.811247 318.238437) scale(0.1 -0.1)">
       <defs>
        <path id="DejaVuSans-32" d="M 1228 531 
L 3431 531 
L 3431 0 
L 469 0 
L 469 531 
Q 828 903 1448 1529 
Q 2069 2156 2228 2338 
Q 2531 2678 2651 2914 
Q 2772 3150 2772 3378 
Q 2772 3750 2511 3984 
Q 2250 4219 1831 4219 
Q 1534 4219 1204 4116 
Q 875 4013 500 3803 
L 500 4441 
Q 881 4594 1212 4672 
Q 1544 4750 1819 4750 
Q 2544 4750 2975 4387 
Q 3406 4025 3406 3419 
Q 3406 3131 3298 2873 
Q 3191 2616 2906 2266 
Q 2828 2175 2409 1742 
Q 1991 1309 1228 531 
z
" transform="scale(0.015625)"/>
        <path id="DejaVuSans-35" d="M 691 4666 
L 3169 4666 
L 3169 4134 
L 1269 4134 
L 1269 2991 
Q 1406 3038 1543 3061 
Q 1681 3084 1819 3084 
Q 2600 3084 3056 2656 
Q 3513 2228 3513 1497 
Q 3513 744 3044 326 
Q 2575 -91 1722 -91 
Q 1428 -91 1123 -41 
Q 819 9 494 109 
L 494 744 
Q 775 591 1075 516 
Q 1375 441 1709 441 
Q 2250 441 2565 725 
Q 2881 1009 2881 1497 
Q 2881 1984 2565 2268 
Q 2250 2553 1709 2553 
Q 1456 2553 1204 2497 
Q 953 2441 691 2322 
L 691 4666 
z
" transform="scale(0.015625)"/>
       </defs>
       <use xlink:href="#DejaVuSans-30"/>
       <use xlink:href="#DejaVuSans-2e" transform="translate(63.623047 0)"/>
       <use xlink:href="#DejaVuSans-30" transform="translate(95.410156 0)"/>
       <use xlink:href="#DejaVuSans-32" transform="translate(159.033203 0)"/>
       <use xlink:href="#DejaVuSans-35" transform="translate(222.65625 0)"/>
      </g>
     </g>
    </g>
    <g id="xtick_3">
     <g id="line2d_5">
      <path d="M 175.069068 303.64 
L 175.069068 26.88 
" clip-path="url(#p4d994073ca)" style="fill: none; stroke: #b0b0b0; stroke-opacity: 0.3; stroke-width: 0.8; stroke-linecap: square"/>
     </g>
     <g id="line2d_6">
      <g>
       <use xlink:href="#mdcbeb7a662" x="175.069068" y="303.64" style="stroke: #000000; stroke-width: 0.8"/>
      </g>
     </g>
     <g id="text_3">
      <!-- 0.050 -->
      <g transform="translate(160.755005 318.238437) scale(0.1 -0.1)">
       <use xlink:href="#DejaVuSans-30"/>
       <use xlink:href="#DejaVuSans-2e" transform="translate(63.623047 0)"/>
       <use xlink:href="#DejaVuSans-30" transform="translate(95.410156 0)"/>
       <use xlink:href="#DejaVuSans-35" transform="translate(159.033203 0)"/>
       <use xlink:href="#DejaVuSans-30" transform="translate(222.65625 0)"/>
      </g>
     </g>
    </g>
    <g id="xtick_4">
     <g id="line2d_7">
      <path d="M 225.012825 303.64 
L 225.012825 26.88 
" clip-path="url(#p4d994073ca)" style="fill: none; stroke: #b0b0b0; stroke-opacity: 0.3; stroke-width: 0.8; stroke-linecap: square"/>
     </g>
     <g id="line2d_8">
      <g>
       <use xlink:href="#mdcbeb7a662" x="225.012825" y="303.64" style="stroke: #000000; stroke-width: 0.8"/>
      </g>
     </g>
     <g id="text_4">
      <!-- 0.075 -->
      <g transform="translate(210.698763 318.238437) scale(0.1 -0.1)">
       <defs>
        <path id="DejaVuSans-37" d="M 525 4666 
L 3525 4666 
L 3525 4397 
L 1831 0 
L 1172 0 
L 2766 4134 
L 525 4134 
L 525 4666 
z
" transform="scale(0.015625)"/>
       </defs>
       <use xlink:href="#DejaVuSans-30"/>
       <use xlink:href="#DejaVuSans-2e" transform="translate(63.623047 0)"/>
       <use xlink:href="#DejaVuSans-30" transform="translate(95.410156 0)"/>
       <use xlink:href="#DejaVuSans-37" transform="translate(159.033203 0)"/>
       <use xlink:href="#DejaVuSans-35" transform="translate(222.65625 0)"/>
      </g>
     </g>
    </g>
    <g id="xtick_5">
     <g id="line2d_9">
      <path d="M 274.956583 303.64 
L 274.956583 26.88 
" clip-path="url(#p4d994073ca)" style="fill: none; stroke: #b0b0b0; stroke-opacity: 0.3; stroke-width: 0.8; stroke-linecap: square"/>
     </g>
     <g id="line2d_10">
      <g>
       <use xlink:href="#mdcbeb7a662" x="274.956583" y="303.64" style="stroke: #000000; stroke-width: 0.8"/>
      </g>
     </g>
     <g id="text_5">
      <!-- 0.100 -->
      <g transform="translate(260.642521 318.238437) scale(0.1 -0.1)">
       <defs>
        <path id="DejaVuSans-31" d="M 794 531 
L 1825 531 
L 1825 4091 
L 703 3866 
L 703 4441 
L 1819 4666 
L 2450 4666 
L 2450 531 
L 3481 531 
L 3481 0 
L 794 0 
L 794 531 
z
" transform="scale(0.015625)"/>
       </defs>
       <use xlink:href="#DejaVuSans-30"/>
       <use xlink:href="#DejaVuSans-2e" transform="translate(63.623047 0)"/>
       <use xlink:href="#DejaVuSans-31" transform="translate(95.410156 0)"/>
       <use xlink:href="#DejaVuSans-30" transform="translate(159.033203 0)"/>
       <use xlink:href="#DejaVuSans-30" transform="translate(222.65625 0)"/>
      </g>
     </g>
    </g>
    <g id="xtick_6">
     <g id="line2d_11">
      <path d="M 324.900341 303.64 
L 324.900341 26.88 
" clip-path="url(#p4d994073ca)" style="fill: none; stroke: #b0b0b0; stroke-opacity: 0.3; stroke-width: 0.8; stroke-linecap: square"/>
     </g>
     <g id="line2d_12">
      <g>
       <use xlink:href="#mdcbeb7a662" x="324.900341" y="303.64" style="stroke: #000000; stroke-width: 0.8"/>
      </g>
     </g>
     <g id="text_6">
      <!-- 0.125 -->
      <g transform="translate(310.586279 318.238437) scale(0.1 -0.1)">
       <use xlink:href="#DejaVuSans-30"/>
       <use xlink:href="#DejaVuSans-2e" transform="translate(63.623047 0)"/>
       <use xlink:href="#DejaVuSans-31" transform="translate(95.410156 0)"/>
       <use xlink:href="#DejaVuSans-32" transform="translate(159.033203 0)"/>
       <use xlink:href="#DejaVuSans-35" transform="translate(222.65625 0)"/>
      </g>
     </g>
    </g>
    <g id="xtick_7">
     <g id="line2d_13">
      <path d="M 374.844099 303.64 
L 374.844099 26.88 
" clip-path="url(#p4d994073ca)" style="fill: none; stroke: #b0b0b0; stroke-opacity: 0.3; stroke-width: 0.8; stroke-linecap: square"/>
     </g>
     <g id="line2d_14">
      <g>
       <use xlink:href="#mdcbeb7a662" x="374.844099" y="303.64" style="stroke: #000000; stroke-width: 0.8"/>
      </g>
     </g>
     <g id="text_7">
      <!-- 0.150 -->
      <g transform="translate(360.530036 318.238437) scale(0.1 -0.1)">
       <use xlink:href="#DejaVuSans-30"/>
       <use xlink:href="#DejaVuSans-2e" transform="translate(63.623047 0)"/>
       <use xlink:href="#DejaVuSans-31" transform="translate(95.410156 0)"/>
       <use xlink:href="#DejaVuSans-35" transform="translate(159.033203 0)"/>
       <use xlink:href="#DejaVuSans-30" transform="translate(222.65625 0)"/>
      </g>
     </g>
    </g>
    <g id="xtick_8">
     <g id="line2d_15">
      <path d="M 424.787857 303.64 
L 424.787857 26.88 
" clip-path="url(#p4d994073ca)" style="fill: none; stroke: #b0b0b0; stroke-opacity: 0.3; stroke-width: 0.8; stroke-linecap: square"/>
     </g>
     <g id="line2d_16">
      <g>
       <use xlink:href="#mdcbeb7a662" x="424.787857" y="303.64" style="stroke: #000000; stroke-width: 0.8"/>
      </g>
     </g>
     <g id="text_8">
      <!-- 0.175 -->
      <g transform="translate(410.473794 318.238437) scale(0.1 -0.1)">
       <use xlink:href="#DejaVuSans-30"/>
       <use xlink:href="#DejaVuSans-2e" transform="translate(63.623047 0)"/>
       <use xlink:href="#DejaVuSans-31" transform="translate(95.410156 0)"/>
       <use xlink:href="#DejaVuSans-37" transform="translate(159.033203 0)"/>
       <use xlink:href="#DejaVuSans-35" transform="translate(222.65625 0)"/>
      </g>
     </g>
    </g>
    <g id="text_9">
     <!-- Strain [-] -->
     <g transform="translate(231.47875 331.916562) scale(0.1 -0.1)">
      <defs>
       <path id="DejaVuSans-53" d="M 3425 4513 
L 3425 3897 
Q 3066 4069 2747 4153 
Q 2428 4238 2131 4238 
Q 1616 4238 1336 4038 
Q 1056 3838 1056 3469 
Q 1056 3159 1242 3001 
Q 1428 2844 1947 2747 
L 2328 2669 
Q 3034 2534 3370 2195 
Q 3706 1856 3706 1288 
Q 3706 609 3251 259 
Q 2797 -91 1919 -91 
Q 1588 -91 1214 -16 
Q 841 59 441 206 
L 441 856 
Q 825 641 1194 531 
Q 1563 422 1919 422 
Q 2459 422 2753 634 
Q 3047 847 3047 1241 
Q 3047 1584 2836 1778 
Q 2625 1972 2144 2069 
L 1759 2144 
Q 1053 2284 737 2584 
Q 422 2884 422 3419 
Q 422 4038 858 4394 
Q 1294 4750 2059 4750 
Q 2388 4750 2728 4690 
Q 3069 4631 3425 4513 
z
" transform="scale(0.015625)"/>
       <path id="DejaVuSans-74" d="M 1172 4494 
L 1172 3500 
L 2356 3500 
L 2356 3053 
L 1172 3053 
L 1172 1153 
Q 1172 725 1289 603 
Q 1406 481 1766 481 
L 2356 481 
L 2356 0 
L 1766 0 
Q 1100 0 847 248 
Q 594 497 594 1153 
L 594 3053 
L 172 3053 
L 172 3500 
L 594 3500 
L 594 4494 
L 1172 4494 
z
" transform="scale(0.015625)"/>
       <path id="DejaVuSans-72" d="M 2631 2963 
Q 2534 3019 2420 3045 
Q 2306 3072 2169 3072 
Q 1681 3072 1420 2755 
Q 1159 2438 1159 1844 
L 1159 0 
L 581 0 
L 581 3500 
L 1159 3500 
L 1159 2956 
Q 1341 3275 1631 3429 
Q 1922 3584 2338 3584 
Q 2397 3584 2469 3576 
Q 2541 3569 2628 3553 
L 2631 2963 
z
" transform="scale(0.015625)"/>
       <path id="DejaVuSans-61" d="M 2194 1759 
Q 1497 1759 1228 1600 
Q 959 1441 959 1056 
Q 959 750 1161 570 
Q 1363 391 1709 391 
Q 2188 391 2477 730 
Q 2766 1069 2766 1631 
L 2766 1759 
L 2194 1759 
z
M 3341 1997 
L 3341 0 
L 2766 0 
L 2766 531 
Q 2569 213 2275 61 
Q 1981 -91 1556 -91 
Q 1019 -91 701 211 
Q 384 513 384 1019 
Q 384 1609 779 1909 
Q 1175 2209 1959 2209 
L 2766 2209 
L 2766 2266 
Q 2766 2663 2505 2880 
Q 2244 3097 1772 3097 
Q 1472 3097 1187 3025 
Q 903 2953 641 2809 
L 641 3341 
Q 956 3463 1253 3523 
Q 1550 3584 1831 3584 
Q 2591 3584 2966 3190 
Q 3341 2797 3341 1997 
z
" transform="scale(0.015625)"/>
       <path id="DejaVuSans-69" d="M 603 3500 
L 1178 3500 
L 1178 0 
L 603 0 
L 603 3500 
z
M 603 4863 
L 1178 4863 
L 1178 4134 
L 603 4134 
L 603 4863 
z
" transform="scale(0.015625)"/>
       <path id="DejaVuSans-6e" d="M 3513 2113 
L 3513 0 
L 2938 0 
L 2938 2094 
Q 2938 2591 2744 2837 
Q 2550 3084 2163 3084 
Q 1697 3084 1428 2787 
Q 1159 2491 1159 1978 
L 1159 0 
L 581 0 
L 581 3500 
L 1159 3500 
L 1159 2956 
Q 1366 3272 1645 3428 
Q 1925 3584 2291 3584 
Q 2894 3584 3203 3211 
Q 3513 2838 3513 2113 
z
" transform="scale(0.015625)"/>
       <path id="DejaVuSans-20" transform="scale(0.015625)"/>
       <path id="DejaVuSans-5b" d="M 550 4863 
L 1875 4863 
L 1875 4416 
L 1125 4416 
L 1125 -397 
L 1875 -397 
L 1875 -844 
L 550 -844 
L 550 4863 
z
" transform="scale(0.015625)"/>
       <path id="DejaVuSans-2d" d="M 313 2009 
L 1997 2009 
L 1997 1497 
L 313 1497 
L 313 2009 
z
" transform="scale(0.015625)"/>
       <path id="DejaVuSans-5d" d="M 1947 4863 
L 1947 -844 
L 622 -844 
L 622 -397 
L 1369 -397 
L 1369 4416 
L 622 4416 
L 622 4863 
L 1947 4863 
z
" transform="scale(0.015625)"/>
      </defs>
      <use xlink:href="#DejaVuSans-53"/>
      <use xlink:href="#DejaVuSans-74" transform="translate(63.476562 0)"/>
      <use xlink:href="#DejaVuSans-72" transform="translate(102.685547 0)"/>
      <use xlink:href="#DejaVuSans-61" transform="translate(143.798828 0)"/>
      <use xlink:href="#DejaVuSans-69" transform="translate(205.078125 0)"/>
      <use xlink:href="#DejaVuSans-6e" transform="translate(232.861328 0)"/>
      <use xlink:href="#DejaVuSans-20" transform="translate(296.240234 0)"/>
      <use xlink:href="#DejaVuSans-5b" transform="translate(328.027344 0)"/>
      <use xlink:href="#DejaVuSans-2d" transform="translate(367.041016 0)"/>
      <use xlink:href="#DejaVuSans-5d" transform="translate(403.125 0)"/>
     </g>
    </g>
   </g>
   <g id="matplotlib.axis_2">
    <g id="ytick_1">
     <g id="line2d_17">
      <path d="M 57.17 271.3625 
L 450 271.3625 
" clip-path="url(#p4d994073ca)" style="fill: none; stroke: #b0b0b0; stroke-opacity: 0.3; stroke-width: 0.8; stroke-linecap: square"/>
     </g>
     <g id="line2d_18">
      <defs>
       <path id="me0ac814232" d="M 0 0 
L -3.5 0 
" style="stroke: #000000; stroke-width: 0.8"/>
      </defs>
      <g>
       <use xlink:href="#me0ac814232" x="57.17" y="271.3625" style="stroke: #000000; stroke-width: 0.8"/>
      </g>
     </g>
     <g id="text_10">
      <!-- 0 -->
      <g transform="translate(43.8075 275.161719) scale(0.1 -0.1)">
       <use xlink:href="#DejaVuSans-30"/>
      </g>
     </g>
    </g>
    <g id="ytick_2">
     <g id="line2d_19">
      <path d="M 57.17 233.824353 
L 450 233.824353 
" clip-path="url(#p4d994073ca)" style="fill: none; stroke: #b0b0b0; stroke-opacity: 0.3; stroke-width: 0.8; stroke-linecap: square"/>
     </g>
     <g id="line2d_20">
      <g>
       <use xlink:href="#me0ac814232" x="57.17" y="233.824353" style="stroke: #000000; stroke-width: 0.8"/>
      </g>
     </g>
     <g id="text_11">
      <!-- 250 -->
      <g transform="translate(31.0825 237.623572) scale(0.1 -0.1)">
       <use xlink:href="#DejaVuSans-32"/>
       <use xlink:href="#DejaVuSans-35" transform="translate(63.623047 0)"/>
       <use xlink:href="#DejaVuSans-30" transform="translate(127.246094 0)"/>
      </g>
     </g>
    </g>
    <g id="ytick_3">
     <g id="line2d_21">
      <path d="M 57.17 196.286206 
L 450 196.286206 
" clip-path="url(#p4d994073ca)" style="fill: none; stroke: #b0b0b0; stroke-opacity: 0.3; stroke-width: 0.8; stroke-linecap: square"/>
     </g>
     <g id="line2d_22">
      <g>
       <use xlink:href="#me0ac814232" x="57.17" y="196.286206" style="stroke: #000000; stroke-width: 0.8"/>
      </g>
     </g>
     <g id="text_12">
      <!-- 500 -->
      <g transform="translate(31.0825 200.085424) scale(0.1 -0.1)">
       <use xlink:href="#DejaVuSans-35"/>
       <use xlink:href="#DejaVuSans-30" transform="translate(63.623047 0)"/>
       <use xlink:href="#DejaVuSans-30" transform="translate(127.246094 0)"/>
      </g>
     </g>
    </g>
    <g id="ytick_4">
     <g id="line2d_23">
      <path d="M 57.17 158.748058 
L 450 158.748058 
" clip-path="url(#p4d994073ca)" style="fill: none; stroke: #b0b0b0; stroke-opacity: 0.3; stroke-width: 0.8; stroke-linecap: square"/>
     </g>
     <g id="line2d_24">
      <g>
       <use xlink:href="#me0ac814232" x="57.17" y="158.748058" style="stroke: #000000; stroke-width: 0.8"/>
      </g>
     </g>
     <g id="text_13">
      <!-- 750 -->
      <g transform="translate(31.0825 162.547277) scale(0.1 -0.1)">
       <use xlink:href="#DejaVuSans-37"/>
       <use xlink:href="#DejaVuSans-35" transform="translate(63.623047 0)"/>
       <use xlink:href="#DejaVuSans-30" transform="translate(127.246094 0)"/>
      </g>
     </g>
    </g>
    <g id="ytick_5">
     <g id="line2d_25">
      <path d="M 57.17 121.209911 
L 450 121.209911 
" clip-path="url(#p4d994073ca)" style="fill: none; stroke: #b0b0b0; stroke-opacity: 0.3; stroke-width: 0.8; stroke-linecap: square"/>
     </g>
     <g id="line2d_26">
      <g>
       <use xlink:href="#me0ac814232" x="57.17" y="121.209911" style="stroke: #000000; stroke-width: 0.8"/>
      </g>
     </g>
     <g id="text_14">
      <!-- 1000 -->
      <g transform="translate(24.72 125.00913) scale(0.1 -0.1)">
       <use xlink:href="#DejaVuSans-31"/>
       <use xlink:href="#DejaVuSans-30" transform="translate(63.623047 0)"/>
       <use xlink:href="#DejaVuSans-30" transform="translate(127.246094 0)"/>
       <use xlink:href="#DejaVuSans-30" transform="translate(190.869141 0)"/>
      </g>
     </g>
    </g>
    <g id="ytick_6">
     <g id="line2d_27">
      <path d="M 57.17 83.671764 
L 450 83.671764 
" clip-path="url(#p4d994073ca)" style="fill: none; stroke: #b0b0b0; stroke-opacity: 0.3; stroke-width: 0.8; stroke-linecap: square"/>
     </g>
     <g id="line2d_28">
      <g>
       <use xlink:href="#me0ac814232" x="57.17" y="83.671764" style="stroke: #000000; stroke-width: 0.8"/>
      </g>
     </g>
     <g id="text_15">
      <!-- 1250 -->
      <g transform="translate(24.72 87.470982) scale(0.1 -0.1)">
       <use xlink:href="#DejaVuSans-31"/>
       <use xlink:href="#DejaVuSans-32" transform="translate(63.623047 0)"/>
       <use xlink:href="#DejaVuSans-35" transform="translate(127.246094 0)"/>
       <use xlink:href="#DejaVuSans-30" transform="translate(190.869141 0)"/>
      </g>
     </g>
    </g>
    <g id="ytick_7">
     <g id="line2d_29">
      <path d="M 57.17 46.133616 
L 450 46.133616 
" clip-path="url(#p4d994073ca)" style="fill: none; stroke: #b0b0b0; stroke-opacity: 0.3; stroke-width: 0.8; stroke-linecap: square"/>
     </g>
     <g id="line2d_30">
      <g>
       <use xlink:href="#me0ac814232" x="57.17" y="46.133616" style="stroke: #000000; stroke-width: 0.8"/>
      </g>
     </g>
     <g id="text_16">
      <!-- 1500 -->
      <g transform="translate(24.72 49.932835) scale(0.1 -0.1)">
       <use xlink:href="#DejaVuSans-31"/>
       <use xlink:href="#DejaVuSans-35" transform="translate(63.623047 0)"/>
       <use xlink:href="#DejaVuSans-30" transform="translate(127.246094 0)"/>
       <use xlink:href="#DejaVuSans-30" transform="translate(190.869141 0)"/>
      </g>
     </g>
    </g>
    <g id="text_17">
     <!-- Stress [Pa] -->
     <g transform="translate(18.640312 191.967812) rotate(-90) scale(0.1 -0.1)">
      <defs>
       <path id="DejaVuSans-65" d="M 3597 1894 
L 3597 1613 
L 953 1613 
Q 991 1019 1311 708 
Q 1631 397 2203 397 
Q 2534 397 2845 478 
Q 3156 559 3463 722 
L 3463 178 
Q 3153 47 2828 -22 
Q 2503 -91 2169 -91 
Q 1331 -91 842 396 
Q 353 884 353 1716 
Q 353 2575 817 3079 
Q 1281 3584 2069 3584 
Q 2775 3584 3186 3129 
Q 3597 2675 3597 1894 
z
M 3022 2063 
Q 3016 2534 2758 2815 
Q 2500 3097 2075 3097 
Q 1594 3097 1305 2825 
Q 1016 2553 972 2059 
L 3022 2063 
z
" transform="scale(0.015625)"/>
       <path id="DejaVuSans-73" d="M 2834 3397 
L 2834 2853 
Q 2591 2978 2328 3040 
Q 2066 3103 1784 3103 
Q 1356 3103 1142 2972 
Q 928 2841 928 2578 
Q 928 2378 1081 2264 
Q 1234 2150 1697 2047 
L 1894 2003 
Q 2506 1872 2764 1633 
Q 3022 1394 3022 966 
Q 3022 478 2636 193 
Q 2250 -91 1575 -91 
Q 1294 -91 989 -36 
Q 684 19 347 128 
L 347 722 
Q 666 556 975 473 
Q 1284 391 1588 391 
Q 1994 391 2212 530 
Q 2431 669 2431 922 
Q 2431 1156 2273 1281 
Q 2116 1406 1581 1522 
L 1381 1569 
Q 847 1681 609 1914 
Q 372 2147 372 2553 
Q 372 3047 722 3315 
Q 1072 3584 1716 3584 
Q 2034 3584 2315 3537 
Q 2597 3491 2834 3397 
z
" transform="scale(0.015625)"/>
       <path id="DejaVuSans-50" d="M 1259 4147 
L 1259 2394 
L 2053 2394 
Q 2494 2394 2734 2622 
Q 2975 2850 2975 3272 
Q 2975 3691 2734 3919 
Q 2494 4147 2053 4147 
L 1259 4147 
z
M 628 4666 
L 2053 4666 
Q 2838 4666 3239 4311 
Q 3641 3956 3641 3272 
Q 3641 2581 3239 2228 
Q 2838 1875 2053 1875 
L 1259 1875 
L 1259 0 
L 628 0 
L 628 4666 
z
" transform="scale(0.015625)"/>
      </defs>
      <use xlink:href="#DejaVuSans-53"/>
      <use xlink:href="#DejaVuSans-74" transform="translate(63.476562 0)"/>
      <use xlink:href="#DejaVuSans-72" transform="translate(102.685547 0)"/>
      <use xlink:href="#DejaVuSans-65" transform="translate(141.548828 0)"/>
      <use xlink:href="#DejaVuSans-73" transform="translate(203.072266 0)"/>
      <use xlink:href="#DejaVuSans-73" transform="translate(255.171875 0)"/>
      <use xlink:href="#DejaVuSans-20" transform="translate(307.271484 0)"/>
      <use xlink:href="#DejaVuSans-5b" transform="translate(339.058594 0)"/>
      <use xlink:href="#DejaVuSans-50" transform="translate(378.072266 0)"/>
      <use xlink:href="#DejaVuSans-61" transform="translate(433.875 0)"/>
      <use xlink:href="#DejaVuSans-5d" transform="translate(495.154297 0)"/>
     </g>
    </g>
   </g>
   <g id="line2d_31">
    <path d="M 75.181552 270.728286 
L 75.181552 270.912153 
L 75.178701 270.566193 
L 75.177622 270.79262 
L 75.849526 270.5181 
L 76.576906 268.813406 
L 77.296256 267.88328 
L 78.031665 268.460559 
L 78.777416 268.74093 
L 79.526977 268.578918 
L 80.270822 267.608741 
L 81.021745 266.998701 
L 82.523589 268.592134 
L 83.26187 269.869641 
L 84.002449 269.853774 
L 84.72806 269.146321 
L 85.447954 268.669937 
L 86.206497 268.924658 
L 86.920676 270.008154 
L 87.645334 267.099918 
L 88.366861 265.176389 
L 90.61296 266.268412 
L 91.327683 266.335813 
L 92.071529 266.641031 
L 92.813878 264.529748 
L 93.542618 263.829416 
L 95.721082 264.205449 
L 96.457443 264.593876 
L 97.195845 263.289083 
L 97.943229 262.290734 
L 98.668839 261.992094 
L 99.398804 262.074694 
L 100.129314 262.003215 
L 100.872615 262.377778 
L 102.34579 260.844672 
L 103.078477 260.330066 
L 105.286879 260.184811 
L 106.009496 259.690088 
L 106.756607 259.037553 
L 107.497051 258.57019 
L 108.224294 258.280561 
L 109.680142 257.91534 
L 110.410787 257.703312 
L 111.85915 256.710107 
L 115.51782 255.09602 
L 116.244111 254.532273 
L 119.168598 253.373422 
L 119.911899 253.123399 
L 121.37669 252.140415 
L 129.346155 248.142073 
L 130.072173 247.65192 
L 130.816019 247.289567 
L 132.25472 246.806655 
L 133.708117 246.169195 
L 138.077352 243.966085 
L 138.822559 243.425445 
L 142.455509 241.800557 
L 143.195544 241.172395 
L 146.11731 239.699719 
L 146.864421 239.346467 
L 148.34422 238.343846 
L 149.838444 237.89593 
L 151.315929 237.1461 
L 152.801171 236.2712 
L 154.237149 235.675878 
L 154.978546 235.344071 
L 157.175253 233.927502 
L 159.336842 233.004864 
L 160.810245 232.08921 
L 162.263915 231.262977 
L 166.623836 228.637841 
L 168.786242 227.714669 
L 170.262638 226.844833 
L 171.749785 225.817996 
L 173.933965 224.719702 
L 176.845387 223.004562 
L 177.576713 222.793542 
L 179.049163 222.015264 
L 179.787021 221.412662 
L 181.976916 220.212127 
L 183.442017 219.493872 
L 184.913787 218.38893 
L 185.637764 217.88849 
L 187.841812 216.933111 
L 189.323788 215.929698 
L 190.792019 214.845806 
L 192.255351 214.374758 
L 193.710654 213.645147 
L 194.442116 213.173195 
L 195.168951 212.556586 
L 197.381436 211.343034 
L 198.839189 210.523844 
L 201.038201 209.054255 
L 202.521538 208.2757 
L 204.700546 207.170679 
L 212.006192 202.796444 
L 213.466667 202.062956 
L 214.191188 201.670532 
L 217.86823 199.111037 
L 220.749705 197.473606 
L 223.707397 195.655513 
L 224.45587 195.301668 
L 225.943017 194.200287 
L 228.152883 192.593006 
L 228.873866 192.219971 
L 229.600021 191.973944 
L 231.068116 191.043888 
L 234.02363 189.116987 
L 235.497713 188.449416 
L 237.683798 187.055484 
L 239.132024 185.824483 
L 239.847836 185.428419 
L 240.580251 185.1936 
L 242.026028 184.39538 
L 244.226401 182.727483 
L 245.67689 182.138403 
L 246.406583 181.778504 
L 251.557708 178.248119 
L 253.0454 177.171508 
L 255.942397 175.496567 
L 258.17965 173.801685 
L 259.606919 172.930267 
L 261.098966 172.192901 
L 261.836824 171.674497 
L 262.576042 170.956439 
L 264.743398 169.745835 
L 265.459754 169.16721 
L 266.204689 168.717653 
L 268.414588 166.852633 
L 269.852473 166.171927 
L 271.315396 165.221929 
L 273.554827 163.584972 
L 280.147102 159.345631 
L 281.594784 158.169093 
L 285.983828 155.259986 
L 288.163924 153.643446 
L 291.08705 152.004472 
L 292.56821 150.698611 
L 294.771986 149.165478 
L 295.488886 148.810089 
L 297.6962 147.028398 
L 299.188876 146.084364 
L 299.932177 145.768226 
L 302.170247 143.960658 
L 303.624189 142.881593 
L 304.353609 142.553742 
L 305.072143 142.108695 
L 307.310757 140.275171 
L 308.747824 139.364424 
L 310.235244 138.416641 
L 311.721574 137.047631 
L 313.912286 135.602415 
L 314.63708 135.250825 
L 319.023249 131.970364 
L 321.216137 130.4931 
L 324.860247 127.532872 
L 327.758605 125.575821 
L 335.020848 119.896308 
L 335.739926 119.482361 
L 337.188425 118.316249 
L 339.39329 116.620576 
L 347.457742 110.55135 
L 348.204582 110.0737 
L 349.685333 108.771083 
L 351.83658 107.009729 
L 352.561577 106.504837 
L 353.997012 105.349963 
L 363.401367 97.965933 
L 364.858847 96.66118 
L 366.310884 95.618833 
L 369.238365 93.064877 
L 371.4154 91.714998 
L 372.878596 90.268753 
L 374.31403 88.911771 
L 375.750009 87.915559 
L 377.187077 86.711463 
L 379.379149 84.894874 
L 380.861533 83.711511 
L 382.342284 82.355162 
L 383.805753 81.209625 
L 384.534629 80.763233 
L 386.753646 78.874632 
L 388.994233 76.623679 
L 389.709773 75.954684 
L 391.951653 74.317253 
L 394.910161 71.61057 
L 396.385605 70.593783 
L 398.595641 68.440243 
L 401.539996 66.100502 
L 403.033131 64.547744 
L 403.781604 63.85944 
L 405.2712 62.856502 
L 406.00797 62.207547 
L 407.466539 60.584044 
L 410.36272 58.46279 
L 412.60215 55.887627 
L 414.091747 54.744622 
L 414.833143 54.273461 
L 418.541621 50.734609 
L 420.033123 49.607036 
L 421.471551 48.25227 
L 423.659541 46.147792 
L 425.154989 45.046095 
L 428.075938 41.900854 
L 428.824683 41.372479 
L 430.298221 40.888934 
L 431.029955 40.403212 
L 431.742842 39.511694 
L 432.144091 39.46 
L 431.920264 43.60359 
L 431.921999 66.583375 
L 431.915296 66.523312 
L 431.197885 66.65503 
L 429.731559 69.926331 
L 428.991524 70.224882 
L 428.226993 70.015435 
L 427.470083 70.249888 
L 426.015597 71.131357 
L 425.292164 71.157787 
L 424.549407 71.745077 
L 423.823524 71.566611 
L 423.070697 73.378769 
L 422.324402 74.715809 
L 421.580284 75.571401 
L 420.150837 77.989405 
L 419.404814 79.29954 
L 418.691179 79.125525 
L 417.964208 79.140066 
L 417.210564 79.497829 
L 415.74002 80.388635 
L 414.998351 80.521322 
L 414.281484 82.75813 
L 413.544035 84.563641 
L 412.827134 85.208184 
L 412.089684 85.637879 
L 411.340123 85.832824 
L 410.599271 86.160833 
L 409.863863 86.775225 
L 408.389916 88.781102 
L 406.918555 90.803439 
L 404.710696 91.954278 
L 403.993523 92.864788 
L 403.259748 93.224806 
L 402.509642 93.758799 
L 401.769335 94.578781 
L 401.030796 95.622394 
L 399.583386 97.135744 
L 397.413088 99.1307 
L 396.696119 99.65767 
L 394.510987 101.848244 
L 391.582145 104.397927 
L 390.101394 105.897824 
L 388.638743 107.157313 
L 387.189427 108.653728 
L 373.269809 120.741227 
L 371.787561 122.155976 
L 368.062617 125.156087 
L 366.610852 126.53032 
L 364.430211 128.156039 
L 361.47075 130.861773 
L 359.317853 132.327563 
L 357.825263 133.742313 
L 356.33866 135.059569 
L 353.354839 137.240964 
L 351.155418 139.150931 
L 340.997011 146.754348 
L 339.513675 148.038685 
L 337.339293 149.589465 
L 335.868068 150.891528 
L 333.649595 152.511392 
L 332.934055 152.783018 
L 331.446908 153.988538 
L 325.600112 158.427296 
L 322.684369 160.200065 
L 321.221036 161.363803 
L 320.494882 162.181727 
L 319.77907 162.675204 
L 318.30036 163.357434 
L 317.569306 164.004509 
L 316.851317 164.489676 
L 314.632027 166.320589 
L 313.918393 166.677244 
L 312.438594 167.815105 
L 310.959612 169.015402 
L 309.494239 169.919266 
L 308.030226 170.830567 
L 307.285394 171.444614 
L 305.848054 172.227719 
L 304.363084 173.197422 
L 302.151144 175.039334 
L 300.691758 175.844438 
L 299.962882 176.174979 
L 296.279852 178.946868 
L 295.546621 179.202707 
L 294.832714 179.642531 
L 292.642547 181.438546 
L 290.479597 182.660368 
L 289.762424 183.052316 
L 286.824924 185.257105 
L 281.711086 188.242418 
L 279.513843 190.093514 
L 277.334835 191.396527 
L 275.135958 192.906316 
L 273.664597 193.645779 
L 272.186159 194.461012 
L 270.700747 195.584862 
L 269.257964 196.295639 
L 265.592081 198.552033 
L 262.664872 200.43644 
L 261.206031 201.356684 
L 259.764337 202.045066 
L 256.183099 204.536348 
L 255.464565 205.045414 
L 253.284043 206.195022 
L 250.324718 207.872297 
L 245.26341 211.006064 
L 242.340829 212.741699 
L 240.168353 213.884704 
L 239.453629 214.162225 
L 237.221275 215.561623 
L 235.755647 216.532512 
L 232.858105 218.062322 
L 230.649839 219.545442 
L 228.471103 220.418325 
L 226.989399 221.294649 
L 225.513003 222.467725 
L 223.332361 223.367908 
L 222.604029 223.699795 
L 218.918278 225.929065 
L 217.430178 226.66706 
L 215.970248 227.570369 
L 206.43389 232.548739 
L 204.218547 233.98161 
L 202.759161 234.397219 
L 199.856508 236.133149 
L 199.113206 236.631136 
L 198.395761 236.937897 
L 197.674778 237.111239 
L 196.929027 237.439347 
L 193.996375 239.299697 
L 192.537261 239.872268 
L 191.798315 240.155724 
L 191.08155 240.572956 
L 190.335935 241.203017 
L 188.890294 242.013977 
L 187.423288 242.495149 
L 186.704482 242.750275 
L 185.249451 243.656275 
L 183.067993 244.938159 
L 181.619316 245.415532 
L 179.379614 246.699592 
L 177.933837 247.462044 
L 175.74122 248.533037 
L 175.026497 248.979429 
L 173.570921 249.57483 
L 172.822721 249.781745 
L 169.924499 251.487072 
L 169.192084 251.844123 
L 167.738142 252.273996 
L 166.270999 253.16227 
L 164.093786 254.224751 
L 163.377702 254.498118 
L 161.908382 255.403762 
L 161.172429 255.77743 
L 159.733456 256.276486 
L 158.29149 256.959487 
L 156.840814 257.774879 
L 155.380067 258.370537 
L 153.193983 259.472946 
L 152.449865 259.953366 
L 150.291814 260.765395 
L 149.570286 261.200471 
L 148.123148 261.764139 
L 140.069455 265.640885 
L 137.870306 266.392555 
L 135.676873 267.544423 
L 134.22157 268.128151 
L 133.49977 268.591399 
L 130.626724 269.805743 
L 129.911456 270.021935 
L 128.419865 270.866609 
L 127.70623 271.269161 
L 124.822841 272.273504 
L 123.381691 272.904673 
L 120.465641 274.126495 
L 118.991831 274.797627 
L 118.247985 275.250745 
L 116.809829 275.711441 
L 116.086396 276.046888 
L 114.646607 276.506505 
L 113.182866 277.31525 
L 110.992699 277.983196 
L 110.271595 278.14155 
L 108.060062 279.476216 
L 106.613741 279.924824 
L 105.144557 280.304131 
L 103.679592 281.215907 
L 102.238986 281.698266 
L 100.768169 282.048806 
L 97.854705 283.357338 
L 96.381983 283.749652 
L 94.173717 284.748871 
L 93.457088 285.013652 
L 92.736794 285.128378 
L 91.259581 285.680112 
L 90.529071 286.136475 
L 89.059071 286.632879 
L 88.336183 286.767941 
L 86.858698 287.371905 
L 86.130366 287.801838 
L 83.9304 288.599761 
L 82.470198 289.131439 
L 80.997612 289.842375 
L 79.548569 290.251001 
L 78.818876 290.491131 
L 77.360171 290.622285 
L 76.629526 290.669564 
L 75.904051 290.56393 
L 75.350095 290.829504 
L 75.189921 291.06 
L 75.025909 289.40524 
L 75.0265 289.410324 
" clip-path="url(#p4d994073ca)" style="fill: none; stroke: #ff0000; stroke-width: 2; stroke-linecap: square"/>
   </g>
   <g id="line2d_32">
    <path d="M 75.181552 270.728286 
L 75.181552 270.912153 
L 75.178701 270.566193 
L 75.177622 270.79262 
L 75.849526 270.5181 
L 76.576906 268.813406 
L 77.296256 267.88328 
L 78.031665 268.460559 
L 78.777416 268.74093 
L 79.526977 271.532043 
L 80.270822 269.76058 
L 81.021745 268.420611 
L 81.764774 268.85822 
L 82.523589 268.955554 
L 83.26187 269.872292 
L 84.002449 269.853774 
L 84.72806 269.146321 
L 85.447954 268.669937 
L 86.206497 268.924658 
L 86.920676 270.008154 
L 87.645334 267.099918 
L 88.366861 265.176389 
L 90.61296 266.268412 
L 91.327683 266.335813 
L 92.071529 266.641031 
L 92.813878 264.529748 
L 93.542618 263.829416 
L 95.721082 264.205449 
L 96.457443 264.593876 
L 97.195845 263.289083 
L 97.943229 262.290734 
L 98.668839 261.992094 
L 99.398804 262.074694 
L 100.129314 262.003215 
L 100.872615 262.377778 
L 102.34579 260.844672 
L 103.078477 260.330066 
L 105.286879 260.184811 
L 106.009496 259.690088 
L 106.756607 259.037553 
L 107.497051 258.57019 
L 108.224294 258.280561 
L 109.680142 257.91534 
L 110.410787 257.703312 
L 111.85915 256.710107 
L 115.51782 255.09602 
L 116.244111 254.532273 
L 119.168598 253.373422 
L 119.911899 253.123399 
L 121.37669 252.140415 
L 129.346155 248.142073 
L 130.072173 247.65192 
L 130.816019 247.289567 
L 132.25472 246.806655 
L 133.708117 246.169195 
L 138.077352 243.966085 
L 138.822559 243.425445 
L 142.455509 241.800557 
L 143.195544 241.172395 
L 146.11731 239.699719 
L 146.864421 239.346467 
L 148.34422 238.343846 
L 149.838444 237.89593 
L 151.315929 237.1461 
L 152.801171 236.2712 
L 154.237149 235.675878 
L 154.978546 235.344071 
L 157.175253 233.927502 
L 159.336842 233.004864 
L 160.810245 232.08921 
L 162.263915 231.262977 
L 166.623836 228.637841 
L 168.786242 227.714669 
L 170.262638 226.844833 
L 171.749785 225.817996 
L 173.933965 224.719702 
L 176.845387 223.004562 
L 177.576713 222.793542 
L 179.049163 222.015264 
L 179.787021 221.412662 
L 181.976916 220.212127 
L 183.442017 219.493872 
L 184.913787 218.38893 
L 185.637764 217.88849 
L 187.841812 216.933111 
L 189.323788 215.929698 
L 190.792019 214.845806 
L 192.255351 214.374758 
L 193.710654 213.645147 
L 194.442116 213.173195 
L 195.168951 212.556586 
L 197.381436 211.343034 
L 198.839189 210.523844 
L 201.038201 209.054255 
L 202.521538 208.2757 
L 204.700546 207.170679 
L 212.006192 202.796444 
L 213.466667 202.062956 
L 214.191188 201.670532 
L 217.86823 199.111037 
L 220.749705 197.473606 
L 223.707397 195.655513 
L 224.45587 195.301668 
L 225.943017 194.200287 
L 228.152883 192.593006 
L 228.873866 192.219971 
L 229.600021 191.973944 
L 231.068116 191.043888 
L 234.02363 189.116987 
L 235.497713 188.449416 
L 237.683798 187.055484 
L 239.132024 185.824483 
L 239.847836 185.428419 
L 240.580251 185.1936 
L 242.026028 184.39538 
L 244.226401 182.727483 
L 245.67689 182.138403 
L 246.406583 181.778504 
L 251.557708 178.248119 
L 253.0454 177.171508 
L 255.942397 175.496567 
L 258.17965 173.801685 
L 259.606919 172.930267 
L 261.098966 172.192901 
L 261.836824 171.674497 
L 262.576042 170.956439 
L 264.743398 169.745835 
L 265.459754 169.16721 
L 266.204689 168.717653 
L 268.414588 166.852633 
L 269.852473 166.171927 
L 271.315396 165.221929 
L 273.554827 163.584972 
L 280.147102 159.345631 
L 281.594784 158.169093 
L 285.983828 155.259986 
L 288.163924 153.643446 
L 291.08705 152.004472 
L 292.56821 150.698611 
L 294.771986 149.165478 
L 295.488886 148.810089 
L 297.6962 147.028398 
L 299.188876 146.084364 
L 299.932177 145.768226 
L 302.170247 143.960658 
L 303.624189 142.881593 
L 304.353609 142.553742 
L 305.072143 142.108695 
L 307.310757 140.275171 
L 308.747824 139.364424 
L 310.235244 138.416641 
L 311.721574 137.047631 
L 313.912286 135.602415 
L 314.63708 135.250825 
L 319.023249 131.970364 
L 321.216137 130.4931 
L 324.860247 127.532872 
L 327.758605 125.575821 
L 335.020848 119.896308 
L 335.739926 119.482361 
L 337.188425 118.316249 
L 339.39329 116.620576 
L 347.457742 110.55135 
L 348.204582 110.0737 
L 349.685333 108.771083 
L 351.83658 107.009729 
L 352.561577 106.504837 
L 353.997012 105.349963 
L 363.401367 97.965933 
L 364.858847 96.66118 
L 366.310884 95.618833 
L 369.238365 93.064877 
L 371.4154 91.714998 
L 372.878596 90.268753 
L 374.31403 88.911771 
L 375.750009 87.915559 
L 377.187077 86.711463 
L 379.379149 84.894874 
L 380.861533 83.711511 
L 382.342284 82.355162 
L 383.805753 81.209625 
L 384.534629 80.763233 
L 386.753646 78.874632 
L 388.994233 76.623679 
L 389.709773 75.954684 
L 391.951653 74.317253 
L 394.910161 71.61057 
L 396.385605 70.593783 
L 398.595641 68.440243 
L 401.539996 66.100502 
L 403.033131 64.547744 
L 403.781604 63.85944 
L 405.2712 62.856502 
L 406.00797 62.207547 
L 407.466539 60.584044 
L 410.36272 58.46279 
L 412.60215 55.887627 
L 414.091747 54.744622 
L 414.833143 54.273461 
L 418.541621 50.734609 
L 420.033123 49.607036 
L 421.471551 48.25227 
L 423.659541 46.147792 
L 425.154989 45.046095 
L 428.075938 41.900854 
L 428.824683 41.372479 
L 430.298221 40.888934 
L 431.029955 40.403212 
L 431.742842 39.511694 
L 432.144091 39.46 
L 431.920264 43.60359 
L 431.921999 66.583375 
L 431.915296 66.523312 
L 431.197885 66.65503 
L 429.731559 69.926331 
L 428.991524 70.224882 
L 428.226993 70.015435 
L 427.470083 70.249888 
L 426.015597 71.131357 
L 425.292164 71.157787 
L 424.549407 71.745077 
L 423.823524 71.566611 
L 423.070697 73.378769 
L 422.324402 74.715809 
L 421.580284 75.571401 
L 420.150837 77.989405 
L 419.404814 79.29954 
L 418.691179 79.125525 
L 417.964208 79.140066 
L 417.210564 79.497829 
L 415.74002 80.388635 
L 414.998351 80.521322 
L 414.281484 82.75813 
L 413.544035 84.563641 
L 412.827134 85.208184 
L 412.089684 85.637879 
L 411.340123 85.832824 
L 410.599271 86.160833 
L 409.863863 86.775225 
L 408.389916 88.781102 
L 406.918555 90.803439 
L 404.710696 91.954278 
L 403.993523 92.864788 
L 403.259748 93.224806 
L 402.509642 93.758799 
L 401.769335 94.578781 
L 401.030796 95.622394 
L 399.583386 97.135744 
L 397.413088 99.1307 
L 396.696119 99.65767 
L 394.510987 101.848244 
L 391.582145 104.397927 
L 390.101394 105.897824 
L 388.638743 107.157313 
L 387.189427 108.653728 
L 373.269809 120.741227 
L 371.787561 122.155976 
L 368.062617 125.156087 
L 366.610852 126.53032 
L 364.430211 128.156039 
L 361.47075 130.861773 
L 359.317853 132.327563 
L 357.825263 133.742313 
L 356.33866 135.059569 
L 353.354839 137.240964 
L 351.155418 139.150931 
L 340.997011 146.754348 
L 339.513675 148.038685 
L 337.339293 149.589465 
L 335.868068 150.891528 
L 333.649595 152.511392 
L 332.934055 152.783018 
L 331.446908 153.988538 
L 325.600112 158.427296 
L 322.684369 160.200065 
L 321.221036 161.363803 
L 320.494882 162.181727 
L 319.77907 162.675204 
L 318.30036 163.357434 
L 317.569306 164.004509 
L 316.851317 164.489676 
L 314.632027 166.320589 
L 313.918393 166.677244 
L 312.438594 167.815105 
L 310.959612 169.015402 
L 309.494239 169.919266 
L 308.030226 170.830567 
L 307.285394 171.444614 
L 305.848054 172.227719 
L 304.363084 173.197422 
L 302.151144 175.039334 
L 300.691758 175.844438 
L 299.962882 176.174979 
L 296.279852 178.946868 
L 295.546621 179.202707 
L 294.832714 179.642531 
L 292.642547 181.438546 
L 290.479597 182.660368 
L 289.762424 183.052316 
L 286.824924 185.257105 
L 281.711086 188.242418 
L 279.513843 190.093514 
L 277.334835 191.396527 
L 275.135958 192.906316 
L 273.664597 193.645779 
L 272.186159 194.461012 
L 270.700747 195.584862 
L 269.257964 196.295639 
L 265.592081 198.552033 
L 262.664872 200.43644 
L 261.206031 201.356684 
L 259.764337 202.045066 
L 256.183099 204.536348 
L 255.464565 205.045414 
L 253.284043 206.195022 
L 250.324718 207.872297 
L 245.26341 211.006064 
L 242.340829 212.741699 
L 240.168353 213.884704 
L 239.453629 214.162225 
L 237.221275 215.561623 
L 235.755647 216.532512 
L 232.858105 218.062322 
L 230.649839 219.545442 
L 228.471103 220.418325 
L 226.989399 221.294649 
L 225.513003 222.467725 
L 223.332361 223.367908 
L 222.604029 223.699795 
L 218.918278 225.929065 
L 217.430178 226.66706 
L 215.970248 227.570369 
L 206.43389 232.548739 
L 204.218547 233.98161 
L 202.759161 234.397219 
L 199.856508 236.133149 
L 199.113206 236.631136 
L 198.395761 236.937897 
L 197.674778 237.111239 
L 196.929027 237.439347 
L 193.996375 239.299697 
L 192.537261 239.872268 
L 191.798315 240.155724 
L 191.08155 240.572956 
L 190.335935 241.203017 
L 188.890294 242.013977 
L 187.423288 242.495149 
L 186.704482 242.750275 
L 185.249451 243.656275 
L 183.067993 244.938159 
L 181.619316 245.415532 
L 179.379614 246.699592 
L 177.933837 247.462044 
L 175.74122 248.533037 
L 175.026497 248.979429 
L 173.570921 249.57483 
L 172.822721 249.781745 
L 169.924499 251.487072 
L 169.192084 251.844123 
L 167.738142 252.273996 
L 166.270999 253.16227 
L 164.093786 254.224751 
L 163.377702 254.498118 
L 161.908382 255.403762 
L 161.172429 255.77743 
L 159.733456 256.276486 
L 158.29149 256.959487 
L 156.840814 257.774879 
L 155.380067 258.370537 
L 153.193983 259.472946 
L 152.449865 259.953366 
L 150.291814 260.765395 
L 149.570286 261.200471 
L 148.123148 261.764139 
L 140.069455 265.640885 
L 137.870306 266.392555 
L 135.676873 267.544423 
L 134.22157 268.128151 
L 133.49977 268.591399 
L 130.626724 269.805743 
L 129.911456 270.021935 
L 128.419865 270.866609 
L 127.70623 271.269161 
L 124.822841 272.273504 
L 123.381691 272.904673 
L 120.465641 274.126495 
L 118.991831 274.797627 
L 118.247985 275.250745 
L 116.809829 275.711441 
L 116.086396 276.046888 
L 114.646607 276.506505 
L 113.182866 277.31525 
L 110.992699 277.983196 
L 110.271595 278.14155 
L 108.060062 279.476216 
L 106.613741 279.924824 
L 105.144557 280.304131 
L 103.679592 281.215907 
L 102.238986 281.698266 
L 100.768169 282.048806 
L 97.854705 283.357338 
L 96.381983 283.749652 
L 94.173717 284.748871 
L 93.457088 285.013652 
L 92.736794 285.128378 
L 91.259581 285.680112 
L 90.529071 286.136475 
L 89.059071 286.632879 
L 88.336183 286.767941 
L 86.858698 287.371905 
L 86.130366 287.801838 
L 83.9304 288.599761 
L 82.470198 289.131439 
L 80.997612 289.842375 
L 79.548569 290.251001 
L 78.818876 290.491131 
L 77.360171 290.622285 
L 76.629526 290.669564 
L 75.904051 290.56393 
L 75.350095 290.829504 
L 75.189921 291.06 
L 75.025909 289.40524 
L 75.0265 289.410324 
" clip-path="url(#p4d994073ca)" style="fill: none; stroke: #000000; stroke-width: 2; stroke-linecap: square"/>
   </g>
   <g id="patch_3">
    <path d="M 57.17 303.64 
L 57.17 26.88 
" style="fill: none; stroke: #000000; stroke-width: 0.8; stroke-linejoin: miter; stroke-linecap: square"/>
   </g>
   <g id="patch_4">
    <path d="M 450 303.64 
L 450 26.88 
" style="fill: none; stroke: #000000; stroke-width: 0.8; stroke-linejoin: miter; stroke-linecap: square"/>
   </g>
   <g id="patch_5">
    <path d="M 57.17 303.64 
L 450 303.64 
" style="fill: none; stroke: #000000; stroke-width: 0.8; stroke-linejoin: miter; stroke-linecap: square"/>
   </g>
   <g id="patch_6">
    <path d="M 57.17 26.88 
L 450 26.88 
" style="fill: none; stroke: #000000; stroke-width: 0.8; stroke-linejoin: miter; stroke-linecap: square"/>
   </g>
   <g id="text_18">
    <!-- 2025-07-02 Trial 15 - Stress vs Strain -->
    <g transform="translate(142.330938 20.88) scale(0.12 -0.12)">
     <defs>
      <path id="DejaVuSans-54" d="M -19 4666 
L 3928 4666 
L 3928 4134 
L 2272 4134 
L 2272 0 
L 1638 0 
L 1638 4134 
L -19 4134 
L -19 4666 
z
" transform="scale(0.015625)"/>
      <path id="DejaVuSans-6c" d="M 603 4863 
L 1178 4863 
L 1178 0 
L 603 0 
L 603 4863 
z
" transform="scale(0.015625)"/>
      <path id="DejaVuSans-76" d="M 191 3500 
L 800 3500 
L 1894 563 
L 2988 3500 
L 3597 3500 
L 2284 0 
L 1503 0 
L 191 3500 
z
" transform="scale(0.015625)"/>
     </defs>
     <use xlink:href="#DejaVuSans-32"/>
     <use xlink:href="#DejaVuSans-30" transform="translate(63.623047 0)"/>
     <use xlink:href="#DejaVuSans-32" transform="translate(127.246094 0)"/>
     <use xlink:href="#DejaVuSans-35" transform="translate(190.869141 0)"/>
     <use xlink:href="#DejaVuSans-2d" transform="translate(254.492188 0)"/>
     <use xlink:href="#DejaVuSans-30" transform="translate(290.576172 0)"/>
     <use xlink:href="#DejaVuSans-37" transform="translate(354.199219 0)"/>
     <use xlink:href="#DejaVuSans-2d" transform="translate(417.822266 0)"/>
     <use xlink:href="#DejaVuSans-30" transform="translate(453.90625 0)"/>
     <use xlink:href="#DejaVuSans-32" transform="translate(517.529297 0)"/>
     <use xlink:href="#DejaVuSans-20" transform="translate(581.152344 0)"/>
     <use xlink:href="#DejaVuSans-54" transform="translate(612.939453 0)"/>
     <use xlink:href="#DejaVuSans-72" transform="translate(659.273438 0)"/>
     <use xlink:href="#DejaVuSans-69" transform="translate(700.386719 0)"/>
     <use xlink:href="#DejaVuSans-61" transform="translate(728.169922 0)"/>
     <use xlink:href="#DejaVuSans-6c" transform="translate(789.449219 0)"/>
     <use xlink:href="#DejaVuSans-20" transform="translate(817.232422 0)"/>
     <use xlink:href="#DejaVuSans-31" transform="translate(849.019531 0)"/>
     <use xlink:href="#DejaVuSans-35" transform="translate(912.642578 0)"/>
     <use xlink:href="#DejaVuSans-20" transform="translate(976.265625 0)"/>
     <use xlink:href="#DejaVuSans-2d" transform="translate(1008.052734 0)"/>
     <use xlink:href="#DejaVuSans-20" transform="translate(1044.136719 0)"/>
     <use xlink:href="#DejaVuSans-53" transform="translate(1075.923828 0)"/>
     <use xlink:href="#DejaVuSans-74" transform="translate(1139.400391 0)"/>
     <use xlink:href="#DejaVuSans-72" transform="translate(1178.609375 0)"/>
     <use xlink:href="#DejaVuSans-65" transform="translate(1217.472656 0)"/>
     <use xlink:href="#DejaVuSans-73" transform="translate(1278.996094 0)"/>
     <use xlink:href="#DejaVuSans-73" transform="translate(1331.095703 0)"/>
     <use xlink:href="#DejaVuSans-20" transform="translate(1383.195312 0)"/>
     <use xlink:href="#DejaVuSans-76" transform="translate(1414.982422 0)"/>
     <use xlink:href="#DejaVuSans-73" transform="translate(1474.162109 0)"/>
     <use xlink:href="#DejaVuSans-20" transform="translate(1526.261719 0)"/>
     <use xlink:href="#DejaVuSans-53" transform="translate(1558.048828 0)"/>
     <use xlink:href="#DejaVuSans-74" transform="translate(1621.525391 0)"/>
     <use xlink:href="#DejaVuSans-72" transform="translate(1660.734375 0)"/>
     <use xlink:href="#DejaVuSans-61" transform="translate(1701.847656 0)"/>
     <use xlink:href="#DejaVuSans-69" transform="translate(1763.126953 0)"/>
     <use xlink:href="#DejaVuSans-6e" transform="translate(1790.910156 0)"/>
    </g>
   </g>
   <g id="legend_1">
    <g id="patch_7">
     <path d="M 64.17 64.23625 
L 170.154375 64.23625 
Q 172.154375 64.23625 172.154375 62.23625 
L 172.154375 33.88 
Q 172.154375 31.88 170.154375 31.88 
L 64.17 31.88 
Q 62.17 31.88 62.17 33.88 
L 62.17 62.23625 
Q 62.17 64.23625 64.17 64.23625 
z
" style="fill: #ffffff; opacity: 0.8; stroke: #cccccc; stroke-linejoin: miter"/>
    </g>
    <g id="line2d_33">
     <path d="M 66.17 39.978437 
L 76.17 39.978437 
L 86.17 39.978437 
" style="fill: none; stroke: #ff0000; stroke-width: 2; stroke-linecap: square"/>
    </g>
    <g id="text_19">
     <!-- Raw Force -->
     <g transform="translate(94.17 43.478437) scale(0.1 -0.1)">
      <defs>
       <path id="DejaVuSans-52" d="M 2841 2188 
Q 3044 2119 3236 1894 
Q 3428 1669 3622 1275 
L 4263 0 
L 3584 0 
L 2988 1197 
Q 2756 1666 2539 1819 
Q 2322 1972 1947 1972 
L 1259 1972 
L 1259 0 
L 628 0 
L 628 4666 
L 2053 4666 
Q 2853 4666 3247 4331 
Q 3641 3997 3641 3322 
Q 3641 2881 3436 2590 
Q 3231 2300 2841 2188 
z
M 1259 4147 
L 1259 2491 
L 2053 2491 
Q 2509 2491 2742 2702 
Q 2975 2913 2975 3322 
Q 2975 3731 2742 3939 
Q 2509 4147 2053 4147 
L 1259 4147 
z
" transform="scale(0.015625)"/>
       <path id="DejaVuSans-77" d="M 269 3500 
L 844 3500 
L 1563 769 
L 2278 3500 
L 2956 3500 
L 3675 769 
L 4391 3500 
L 4966 3500 
L 4050 0 
L 3372 0 
L 2619 2869 
L 1863 0 
L 1184 0 
L 269 3500 
z
" transform="scale(0.015625)"/>
       <path id="DejaVuSans-46" d="M 628 4666 
L 3309 4666 
L 3309 4134 
L 1259 4134 
L 1259 2759 
L 3109 2759 
L 3109 2228 
L 1259 2228 
L 1259 0 
L 628 0 
L 628 4666 
z
" transform="scale(0.015625)"/>
       <path id="DejaVuSans-6f" d="M 1959 3097 
Q 1497 3097 1228 2736 
Q 959 2375 959 1747 
Q 959 1119 1226 758 
Q 1494 397 1959 397 
Q 2419 397 2687 759 
Q 2956 1122 2956 1747 
Q 2956 2369 2687 2733 
Q 2419 3097 1959 3097 
z
M 1959 3584 
Q 2709 3584 3137 3096 
Q 3566 2609 3566 1747 
Q 3566 888 3137 398 
Q 2709 -91 1959 -91 
Q 1206 -91 779 398 
Q 353 888 353 1747 
Q 353 2609 779 3096 
Q 1206 3584 1959 3584 
z
" transform="scale(0.015625)"/>
       <path id="DejaVuSans-63" d="M 3122 3366 
L 3122 2828 
Q 2878 2963 2633 3030 
Q 2388 3097 2138 3097 
Q 1578 3097 1268 2742 
Q 959 2388 959 1747 
Q 959 1106 1268 751 
Q 1578 397 2138 397 
Q 2388 397 2633 464 
Q 2878 531 3122 666 
L 3122 134 
Q 2881 22 2623 -34 
Q 2366 -91 2075 -91 
Q 1284 -91 818 406 
Q 353 903 353 1747 
Q 353 2603 823 3093 
Q 1294 3584 2113 3584 
Q 2378 3584 2631 3529 
Q 2884 3475 3122 3366 
z
" transform="scale(0.015625)"/>
      </defs>
      <use xlink:href="#DejaVuSans-52"/>
      <use xlink:href="#DejaVuSans-61" transform="translate(67.232422 0)"/>
      <use xlink:href="#DejaVuSans-77" transform="translate(128.511719 0)"/>
      <use xlink:href="#DejaVuSans-20" transform="translate(210.298828 0)"/>
      <use xlink:href="#DejaVuSans-46" transform="translate(242.085938 0)"/>
      <use xlink:href="#DejaVuSans-6f" transform="translate(295.980469 0)"/>
      <use xlink:href="#DejaVuSans-72" transform="translate(357.162109 0)"/>
      <use xlink:href="#DejaVuSans-63" transform="translate(396.025391 0)"/>
      <use xlink:href="#DejaVuSans-65" transform="translate(451.005859 0)"/>
     </g>
    </g>
    <g id="line2d_34">
     <path d="M 66.17 54.656563 
L 76.17 54.656563 
L 86.17 54.656563 
" style="fill: none; stroke: #000000; stroke-width: 2; stroke-linecap: square"/>
    </g>
    <g id="text_20">
     <!-- Adjusted Force -->
     <g transform="translate(94.17 58.156563) scale(0.1 -0.1)">
      <defs>
       <path id="DejaVuSans-41" d="M 2188 4044 
L 1331 1722 
L 3047 1722 
L 2188 4044 
z
M 1831 4666 
L 2547 4666 
L 4325 0 
L 3669 0 
L 3244 1197 
L 1141 1197 
L 716 0 
L 50 0 
L 1831 4666 
z
" transform="scale(0.015625)"/>
       <path id="DejaVuSans-64" d="M 2906 2969 
L 2906 4863 
L 3481 4863 
L 3481 0 
L 2906 0 
L 2906 525 
Q 2725 213 2448 61 
Q 2172 -91 1784 -91 
Q 1150 -91 751 415 
Q 353 922 353 1747 
Q 353 2572 751 3078 
Q 1150 3584 1784 3584 
Q 2172 3584 2448 3432 
Q 2725 3281 2906 2969 
z
M 947 1747 
Q 947 1113 1208 752 
Q 1469 391 1925 391 
Q 2381 391 2643 752 
Q 2906 1113 2906 1747 
Q 2906 2381 2643 2742 
Q 2381 3103 1925 3103 
Q 1469 3103 1208 2742 
Q 947 2381 947 1747 
z
" transform="scale(0.015625)"/>
       <path id="DejaVuSans-6a" d="M 603 3500 
L 1178 3500 
L 1178 -63 
Q 1178 -731 923 -1031 
Q 669 -1331 103 -1331 
L -116 -1331 
L -116 -844 
L 38 -844 
Q 366 -844 484 -692 
Q 603 -541 603 -63 
L 603 3500 
z
M 603 4863 
L 1178 4863 
L 1178 4134 
L 603 4134 
L 603 4863 
z
" transform="scale(0.015625)"/>
       <path id="DejaVuSans-75" d="M 544 1381 
L 544 3500 
L 1119 3500 
L 1119 1403 
Q 1119 906 1312 657 
Q 1506 409 1894 409 
Q 2359 409 2629 706 
Q 2900 1003 2900 1516 
L 2900 3500 
L 3475 3500 
L 3475 0 
L 2900 0 
L 2900 538 
Q 2691 219 2414 64 
Q 2138 -91 1772 -91 
Q 1169 -91 856 284 
Q 544 659 544 1381 
z
M 1991 3584 
L 1991 3584 
z
" transform="scale(0.015625)"/>
      </defs>
      <use xlink:href="#DejaVuSans-41"/>
      <use xlink:href="#DejaVuSans-64" transform="translate(66.658203 0)"/>
      <use xlink:href="#DejaVuSans-6a" transform="translate(130.134766 0)"/>
      <use xlink:href="#DejaVuSans-75" transform="translate(157.917969 0)"/>
      <use xlink:href="#DejaVuSans-73" transform="translate(221.296875 0)"/>
      <use xlink:href="#DejaVuSans-74" transform="translate(273.396484 0)"/>
      <use xlink:href="#DejaVuSans-65" transform="translate(312.605469 0)"/>
      <use xlink:href="#DejaVuSans-64" transform="translate(374.128906 0)"/>
      <use xlink:href="#DejaVuSans-20" transform="translate(437.605469 0)"/>
      <use xlink:href="#DejaVuSans-46" transform="translate(469.392578 0)"/>
      <use xlink:href="#DejaVuSans-6f" transform="translate(523.287109 0)"/>
      <use xlink:href="#DejaVuSans-72" transform="translate(584.46875 0)"/>
      <use xlink:href="#DejaVuSans-63" transform="translate(623.332031 0)"/>
      <use xlink:href="#DejaVuSans-65" transform="translate(678.3125 0)"/>
     </g>
    </g>
   </g>
  </g>
 </g>
 <defs>
  <clipPath id="p4d994073ca">
   <rect x="57.17" y="26.88" width="392.83" height="276.76"/>
  </clipPath>
 </defs>
</svg>
