<?xml version="1.0" encoding="utf-8" standalone="no"?>
<!DOCTYPE svg PUBLIC "-//W3C//DTD SVG 1.1//EN"
  "http://www.w3.org/Graphics/SVG/1.1/DTD/svg11.dtd">
<svg xmlns:xlink="http://www.w3.org/1999/xlink" width="460.8pt" height="345.6pt" viewBox="0 0 460.8 345.6" xmlns="http://www.w3.org/2000/svg" version="1.1">
 <metadata>
  <rdf:RDF xmlns:dc="http://purl.org/dc/elements/1.1/" xmlns:cc="http://creativecommons.org/ns#" xmlns:rdf="http://www.w3.org/1999/02/22-rdf-syntax-ns#">
   <cc:Work>
    <dc:type rdf:resource="http://purl.org/dc/dcmitype/StillImage"/>
    <dc:date>2025-07-28T21:14:57.856897</dc:date>
    <dc:format>image/svg+xml</dc:format>
    <dc:creator>
     <cc:Agent>
      <dc:title>Matplotlib v3.10.3, https://matplotlib.org/</dc:title>
     </cc:Agent>
    </dc:creator>
   </cc:Work>
  </rdf:RDF>
 </metadata>
 <defs>
  <style type="text/css">*{stroke-linejoin: round; stroke-linecap: butt}</style>
 </defs>
 <g id="figure_1">
  <g id="patch_1">
   <path d="M 0 345.6 
L 460.8 345.6 
L 460.8 0 
L 0 0 
z
" style="fill: #ffffff"/>
  </g>
  <g id="axes_1">
   <g id="patch_2">
    <path d="M 57.17 303.64 
L 450 303.64 
L 450 26.88 
L 57.17 26.88 
z
" style="fill: #ffffff"/>
   </g>
   <g id="matplotlib.axis_1">
    <g id="xtick_1">
     <g id="line2d_1">
      <path d="M 75.19168 303.64 
L 75.19168 26.88 
" clip-path="url(#p50be7fa4d9)" style="fill: none; stroke: #b0b0b0; stroke-opacity: 0.3; stroke-width: 0.8; stroke-linecap: square"/>
     </g>
     <g id="line2d_2">
      <defs>
       <path id="mf28c02e74f" d="M 0 0 
L 0 3.5 
" style="stroke: #000000; stroke-width: 0.8"/>
      </defs>
      <g>
       <use xlink:href="#mf28c02e74f" x="75.19168" y="303.64" style="stroke: #000000; stroke-width: 0.8"/>
      </g>
     </g>
     <g id="text_1">
      <!-- 0.000 -->
      <g transform="translate(60.877618 318.238437) scale(0.1 -0.1)">
       <defs>
        <path id="DejaVuSans-30" d="M 2034 4250 
Q 1547 4250 1301 3770 
Q 1056 3291 1056 2328 
Q 1056 1369 1301 889 
Q 1547 409 2034 409 
Q 2525 409 2770 889 
Q 3016 1369 3016 2328 
Q 3016 3291 2770 3770 
Q 2525 4250 2034 4250 
z
M 2034 4750 
Q 2819 4750 3233 4129 
Q 3647 3509 3647 2328 
Q 3647 1150 3233 529 
Q 2819 -91 2034 -91 
Q 1250 -91 836 529 
Q 422 1150 422 2328 
Q 422 3509 836 4129 
Q 1250 4750 2034 4750 
z
" transform="scale(0.015625)"/>
        <path id="DejaVuSans-2e" d="M 684 794 
L 1344 794 
L 1344 0 
L 684 0 
L 684 794 
z
" transform="scale(0.015625)"/>
       </defs>
       <use xlink:href="#DejaVuSans-30"/>
       <use xlink:href="#DejaVuSans-2e" transform="translate(63.623047 0)"/>
       <use xlink:href="#DejaVuSans-30" transform="translate(95.410156 0)"/>
       <use xlink:href="#DejaVuSans-30" transform="translate(159.033203 0)"/>
       <use xlink:href="#DejaVuSans-30" transform="translate(222.65625 0)"/>
      </g>
     </g>
    </g>
    <g id="xtick_2">
     <g id="line2d_3">
      <path d="M 125.141838 303.64 
L 125.141838 26.88 
" clip-path="url(#p50be7fa4d9)" style="fill: none; stroke: #b0b0b0; stroke-opacity: 0.3; stroke-width: 0.8; stroke-linecap: square"/>
     </g>
     <g id="line2d_4">
      <g>
       <use xlink:href="#mf28c02e74f" x="125.141838" y="303.64" style="stroke: #000000; stroke-width: 0.8"/>
      </g>
     </g>
     <g id="text_2">
      <!-- 0.025 -->
      <g transform="translate(110.827776 318.238437) scale(0.1 -0.1)">
       <defs>
        <path id="DejaVuSans-32" d="M 1228 531 
L 3431 531 
L 3431 0 
L 469 0 
L 469 531 
Q 828 903 1448 1529 
Q 2069 2156 2228 2338 
Q 2531 2678 2651 2914 
Q 2772 3150 2772 3378 
Q 2772 3750 2511 3984 
Q 2250 4219 1831 4219 
Q 1534 4219 1204 4116 
Q 875 4013 500 3803 
L 500 4441 
Q 881 4594 1212 4672 
Q 1544 4750 1819 4750 
Q 2544 4750 2975 4387 
Q 3406 4025 3406 3419 
Q 3406 3131 3298 2873 
Q 3191 2616 2906 2266 
Q 2828 2175 2409 1742 
Q 1991 1309 1228 531 
z
" transform="scale(0.015625)"/>
        <path id="DejaVuSans-35" d="M 691 4666 
L 3169 4666 
L 3169 4134 
L 1269 4134 
L 1269 2991 
Q 1406 3038 1543 3061 
Q 1681 3084 1819 3084 
Q 2600 3084 3056 2656 
Q 3513 2228 3513 1497 
Q 3513 744 3044 326 
Q 2575 -91 1722 -91 
Q 1428 -91 1123 -41 
Q 819 9 494 109 
L 494 744 
Q 775 591 1075 516 
Q 1375 441 1709 441 
Q 2250 441 2565 725 
Q 2881 1009 2881 1497 
Q 2881 1984 2565 2268 
Q 2250 2553 1709 2553 
Q 1456 2553 1204 2497 
Q 953 2441 691 2322 
L 691 4666 
z
" transform="scale(0.015625)"/>
       </defs>
       <use xlink:href="#DejaVuSans-30"/>
       <use xlink:href="#DejaVuSans-2e" transform="translate(63.623047 0)"/>
       <use xlink:href="#DejaVuSans-30" transform="translate(95.410156 0)"/>
       <use xlink:href="#DejaVuSans-32" transform="translate(159.033203 0)"/>
       <use xlink:href="#DejaVuSans-35" transform="translate(222.65625 0)"/>
      </g>
     </g>
    </g>
    <g id="xtick_3">
     <g id="line2d_5">
      <path d="M 175.091996 303.64 
L 175.091996 26.88 
" clip-path="url(#p50be7fa4d9)" style="fill: none; stroke: #b0b0b0; stroke-opacity: 0.3; stroke-width: 0.8; stroke-linecap: square"/>
     </g>
     <g id="line2d_6">
      <g>
       <use xlink:href="#mf28c02e74f" x="175.091996" y="303.64" style="stroke: #000000; stroke-width: 0.8"/>
      </g>
     </g>
     <g id="text_3">
      <!-- 0.050 -->
      <g transform="translate(160.777933 318.238437) scale(0.1 -0.1)">
       <use xlink:href="#DejaVuSans-30"/>
       <use xlink:href="#DejaVuSans-2e" transform="translate(63.623047 0)"/>
       <use xlink:href="#DejaVuSans-30" transform="translate(95.410156 0)"/>
       <use xlink:href="#DejaVuSans-35" transform="translate(159.033203 0)"/>
       <use xlink:href="#DejaVuSans-30" transform="translate(222.65625 0)"/>
      </g>
     </g>
    </g>
    <g id="xtick_4">
     <g id="line2d_7">
      <path d="M 225.042153 303.64 
L 225.042153 26.88 
" clip-path="url(#p50be7fa4d9)" style="fill: none; stroke: #b0b0b0; stroke-opacity: 0.3; stroke-width: 0.8; stroke-linecap: square"/>
     </g>
     <g id="line2d_8">
      <g>
       <use xlink:href="#mf28c02e74f" x="225.042153" y="303.64" style="stroke: #000000; stroke-width: 0.8"/>
      </g>
     </g>
     <g id="text_4">
      <!-- 0.075 -->
      <g transform="translate(210.728091 318.238437) scale(0.1 -0.1)">
       <defs>
        <path id="DejaVuSans-37" d="M 525 4666 
L 3525 4666 
L 3525 4397 
L 1831 0 
L 1172 0 
L 2766 4134 
L 525 4134 
L 525 4666 
z
" transform="scale(0.015625)"/>
       </defs>
       <use xlink:href="#DejaVuSans-30"/>
       <use xlink:href="#DejaVuSans-2e" transform="translate(63.623047 0)"/>
       <use xlink:href="#DejaVuSans-30" transform="translate(95.410156 0)"/>
       <use xlink:href="#DejaVuSans-37" transform="translate(159.033203 0)"/>
       <use xlink:href="#DejaVuSans-35" transform="translate(222.65625 0)"/>
      </g>
     </g>
    </g>
    <g id="xtick_5">
     <g id="line2d_9">
      <path d="M 274.992311 303.64 
L 274.992311 26.88 
" clip-path="url(#p50be7fa4d9)" style="fill: none; stroke: #b0b0b0; stroke-opacity: 0.3; stroke-width: 0.8; stroke-linecap: square"/>
     </g>
     <g id="line2d_10">
      <g>
       <use xlink:href="#mf28c02e74f" x="274.992311" y="303.64" style="stroke: #000000; stroke-width: 0.8"/>
      </g>
     </g>
     <g id="text_5">
      <!-- 0.100 -->
      <g transform="translate(260.678249 318.238437) scale(0.1 -0.1)">
       <defs>
        <path id="DejaVuSans-31" d="M 794 531 
L 1825 531 
L 1825 4091 
L 703 3866 
L 703 4441 
L 1819 4666 
L 2450 4666 
L 2450 531 
L 3481 531 
L 3481 0 
L 794 0 
L 794 531 
z
" transform="scale(0.015625)"/>
       </defs>
       <use xlink:href="#DejaVuSans-30"/>
       <use xlink:href="#DejaVuSans-2e" transform="translate(63.623047 0)"/>
       <use xlink:href="#DejaVuSans-31" transform="translate(95.410156 0)"/>
       <use xlink:href="#DejaVuSans-30" transform="translate(159.033203 0)"/>
       <use xlink:href="#DejaVuSans-30" transform="translate(222.65625 0)"/>
      </g>
     </g>
    </g>
    <g id="xtick_6">
     <g id="line2d_11">
      <path d="M 324.942469 303.64 
L 324.942469 26.88 
" clip-path="url(#p50be7fa4d9)" style="fill: none; stroke: #b0b0b0; stroke-opacity: 0.3; stroke-width: 0.8; stroke-linecap: square"/>
     </g>
     <g id="line2d_12">
      <g>
       <use xlink:href="#mf28c02e74f" x="324.942469" y="303.64" style="stroke: #000000; stroke-width: 0.8"/>
      </g>
     </g>
     <g id="text_6">
      <!-- 0.125 -->
      <g transform="translate(310.628406 318.238437) scale(0.1 -0.1)">
       <use xlink:href="#DejaVuSans-30"/>
       <use xlink:href="#DejaVuSans-2e" transform="translate(63.623047 0)"/>
       <use xlink:href="#DejaVuSans-31" transform="translate(95.410156 0)"/>
       <use xlink:href="#DejaVuSans-32" transform="translate(159.033203 0)"/>
       <use xlink:href="#DejaVuSans-35" transform="translate(222.65625 0)"/>
      </g>
     </g>
    </g>
    <g id="xtick_7">
     <g id="line2d_13">
      <path d="M 374.892627 303.64 
L 374.892627 26.88 
" clip-path="url(#p50be7fa4d9)" style="fill: none; stroke: #b0b0b0; stroke-opacity: 0.3; stroke-width: 0.8; stroke-linecap: square"/>
     </g>
     <g id="line2d_14">
      <g>
       <use xlink:href="#mf28c02e74f" x="374.892627" y="303.64" style="stroke: #000000; stroke-width: 0.8"/>
      </g>
     </g>
     <g id="text_7">
      <!-- 0.150 -->
      <g transform="translate(360.578564 318.238437) scale(0.1 -0.1)">
       <use xlink:href="#DejaVuSans-30"/>
       <use xlink:href="#DejaVuSans-2e" transform="translate(63.623047 0)"/>
       <use xlink:href="#DejaVuSans-31" transform="translate(95.410156 0)"/>
       <use xlink:href="#DejaVuSans-35" transform="translate(159.033203 0)"/>
       <use xlink:href="#DejaVuSans-30" transform="translate(222.65625 0)"/>
      </g>
     </g>
    </g>
    <g id="xtick_8">
     <g id="line2d_15">
      <path d="M 424.842784 303.64 
L 424.842784 26.88 
" clip-path="url(#p50be7fa4d9)" style="fill: none; stroke: #b0b0b0; stroke-opacity: 0.3; stroke-width: 0.8; stroke-linecap: square"/>
     </g>
     <g id="line2d_16">
      <g>
       <use xlink:href="#mf28c02e74f" x="424.842784" y="303.64" style="stroke: #000000; stroke-width: 0.8"/>
      </g>
     </g>
     <g id="text_8">
      <!-- 0.175 -->
      <g transform="translate(410.528722 318.238437) scale(0.1 -0.1)">
       <use xlink:href="#DejaVuSans-30"/>
       <use xlink:href="#DejaVuSans-2e" transform="translate(63.623047 0)"/>
       <use xlink:href="#DejaVuSans-31" transform="translate(95.410156 0)"/>
       <use xlink:href="#DejaVuSans-37" transform="translate(159.033203 0)"/>
       <use xlink:href="#DejaVuSans-35" transform="translate(222.65625 0)"/>
      </g>
     </g>
    </g>
    <g id="text_9">
     <!-- Strain [-] -->
     <g transform="translate(231.47875 331.916562) scale(0.1 -0.1)">
      <defs>
       <path id="DejaVuSans-53" d="M 3425 4513 
L 3425 3897 
Q 3066 4069 2747 4153 
Q 2428 4238 2131 4238 
Q 1616 4238 1336 4038 
Q 1056 3838 1056 3469 
Q 1056 3159 1242 3001 
Q 1428 2844 1947 2747 
L 2328 2669 
Q 3034 2534 3370 2195 
Q 3706 1856 3706 1288 
Q 3706 609 3251 259 
Q 2797 -91 1919 -91 
Q 1588 -91 1214 -16 
Q 841 59 441 206 
L 441 856 
Q 825 641 1194 531 
Q 1563 422 1919 422 
Q 2459 422 2753 634 
Q 3047 847 3047 1241 
Q 3047 1584 2836 1778 
Q 2625 1972 2144 2069 
L 1759 2144 
Q 1053 2284 737 2584 
Q 422 2884 422 3419 
Q 422 4038 858 4394 
Q 1294 4750 2059 4750 
Q 2388 4750 2728 4690 
Q 3069 4631 3425 4513 
z
" transform="scale(0.015625)"/>
       <path id="DejaVuSans-74" d="M 1172 4494 
L 1172 3500 
L 2356 3500 
L 2356 3053 
L 1172 3053 
L 1172 1153 
Q 1172 725 1289 603 
Q 1406 481 1766 481 
L 2356 481 
L 2356 0 
L 1766 0 
Q 1100 0 847 248 
Q 594 497 594 1153 
L 594 3053 
L 172 3053 
L 172 3500 
L 594 3500 
L 594 4494 
L 1172 4494 
z
" transform="scale(0.015625)"/>
       <path id="DejaVuSans-72" d="M 2631 2963 
Q 2534 3019 2420 3045 
Q 2306 3072 2169 3072 
Q 1681 3072 1420 2755 
Q 1159 2438 1159 1844 
L 1159 0 
L 581 0 
L 581 3500 
L 1159 3500 
L 1159 2956 
Q 1341 3275 1631 3429 
Q 1922 3584 2338 3584 
Q 2397 3584 2469 3576 
Q 2541 3569 2628 3553 
L 2631 2963 
z
" transform="scale(0.015625)"/>
       <path id="DejaVuSans-61" d="M 2194 1759 
Q 1497 1759 1228 1600 
Q 959 1441 959 1056 
Q 959 750 1161 570 
Q 1363 391 1709 391 
Q 2188 391 2477 730 
Q 2766 1069 2766 1631 
L 2766 1759 
L 2194 1759 
z
M 3341 1997 
L 3341 0 
L 2766 0 
L 2766 531 
Q 2569 213 2275 61 
Q 1981 -91 1556 -91 
Q 1019 -91 701 211 
Q 384 513 384 1019 
Q 384 1609 779 1909 
Q 1175 2209 1959 2209 
L 2766 2209 
L 2766 2266 
Q 2766 2663 2505 2880 
Q 2244 3097 1772 3097 
Q 1472 3097 1187 3025 
Q 903 2953 641 2809 
L 641 3341 
Q 956 3463 1253 3523 
Q 1550 3584 1831 3584 
Q 2591 3584 2966 3190 
Q 3341 2797 3341 1997 
z
" transform="scale(0.015625)"/>
       <path id="DejaVuSans-69" d="M 603 3500 
L 1178 3500 
L 1178 0 
L 603 0 
L 603 3500 
z
M 603 4863 
L 1178 4863 
L 1178 4134 
L 603 4134 
L 603 4863 
z
" transform="scale(0.015625)"/>
       <path id="DejaVuSans-6e" d="M 3513 2113 
L 3513 0 
L 2938 0 
L 2938 2094 
Q 2938 2591 2744 2837 
Q 2550 3084 2163 3084 
Q 1697 3084 1428 2787 
Q 1159 2491 1159 1978 
L 1159 0 
L 581 0 
L 581 3500 
L 1159 3500 
L 1159 2956 
Q 1366 3272 1645 3428 
Q 1925 3584 2291 3584 
Q 2894 3584 3203 3211 
Q 3513 2838 3513 2113 
z
" transform="scale(0.015625)"/>
       <path id="DejaVuSans-20" transform="scale(0.015625)"/>
       <path id="DejaVuSans-5b" d="M 550 4863 
L 1875 4863 
L 1875 4416 
L 1125 4416 
L 1125 -397 
L 1875 -397 
L 1875 -844 
L 550 -844 
L 550 4863 
z
" transform="scale(0.015625)"/>
       <path id="DejaVuSans-2d" d="M 313 2009 
L 1997 2009 
L 1997 1497 
L 313 1497 
L 313 2009 
z
" transform="scale(0.015625)"/>
       <path id="DejaVuSans-5d" d="M 1947 4863 
L 1947 -844 
L 622 -844 
L 622 -397 
L 1369 -397 
L 1369 4416 
L 622 4416 
L 622 4863 
L 1947 4863 
z
" transform="scale(0.015625)"/>
      </defs>
      <use xlink:href="#DejaVuSans-53"/>
      <use xlink:href="#DejaVuSans-74" transform="translate(63.476562 0)"/>
      <use xlink:href="#DejaVuSans-72" transform="translate(102.685547 0)"/>
      <use xlink:href="#DejaVuSans-61" transform="translate(143.798828 0)"/>
      <use xlink:href="#DejaVuSans-69" transform="translate(205.078125 0)"/>
      <use xlink:href="#DejaVuSans-6e" transform="translate(232.861328 0)"/>
      <use xlink:href="#DejaVuSans-20" transform="translate(296.240234 0)"/>
      <use xlink:href="#DejaVuSans-5b" transform="translate(328.027344 0)"/>
      <use xlink:href="#DejaVuSans-2d" transform="translate(367.041016 0)"/>
      <use xlink:href="#DejaVuSans-5d" transform="translate(403.125 0)"/>
     </g>
    </g>
   </g>
   <g id="matplotlib.axis_2">
    <g id="ytick_1">
     <g id="line2d_17">
      <path d="M 57.17 272.90456 
L 450 272.90456 
" clip-path="url(#p50be7fa4d9)" style="fill: none; stroke: #b0b0b0; stroke-opacity: 0.3; stroke-width: 0.8; stroke-linecap: square"/>
     </g>
     <g id="line2d_18">
      <defs>
       <path id="m7cd5814096" d="M 0 0 
L -3.5 0 
" style="stroke: #000000; stroke-width: 0.8"/>
      </defs>
      <g>
       <use xlink:href="#m7cd5814096" x="57.17" y="272.90456" style="stroke: #000000; stroke-width: 0.8"/>
      </g>
     </g>
     <g id="text_10">
      <!-- 0 -->
      <g transform="translate(43.8075 276.703779) scale(0.1 -0.1)">
       <use xlink:href="#DejaVuSans-30"/>
      </g>
     </g>
    </g>
    <g id="ytick_2">
     <g id="line2d_19">
      <path d="M 57.17 235.465314 
L 450 235.465314 
" clip-path="url(#p50be7fa4d9)" style="fill: none; stroke: #b0b0b0; stroke-opacity: 0.3; stroke-width: 0.8; stroke-linecap: square"/>
     </g>
     <g id="line2d_20">
      <g>
       <use xlink:href="#m7cd5814096" x="57.17" y="235.465314" style="stroke: #000000; stroke-width: 0.8"/>
      </g>
     </g>
     <g id="text_11">
      <!-- 250 -->
      <g transform="translate(31.0825 239.264532) scale(0.1 -0.1)">
       <use xlink:href="#DejaVuSans-32"/>
       <use xlink:href="#DejaVuSans-35" transform="translate(63.623047 0)"/>
       <use xlink:href="#DejaVuSans-30" transform="translate(127.246094 0)"/>
      </g>
     </g>
    </g>
    <g id="ytick_3">
     <g id="line2d_21">
      <path d="M 57.17 198.026067 
L 450 198.026067 
" clip-path="url(#p50be7fa4d9)" style="fill: none; stroke: #b0b0b0; stroke-opacity: 0.3; stroke-width: 0.8; stroke-linecap: square"/>
     </g>
     <g id="line2d_22">
      <g>
       <use xlink:href="#m7cd5814096" x="57.17" y="198.026067" style="stroke: #000000; stroke-width: 0.8"/>
      </g>
     </g>
     <g id="text_12">
      <!-- 500 -->
      <g transform="translate(31.0825 201.825286) scale(0.1 -0.1)">
       <use xlink:href="#DejaVuSans-35"/>
       <use xlink:href="#DejaVuSans-30" transform="translate(63.623047 0)"/>
       <use xlink:href="#DejaVuSans-30" transform="translate(127.246094 0)"/>
      </g>
     </g>
    </g>
    <g id="ytick_4">
     <g id="line2d_23">
      <path d="M 57.17 160.58682 
L 450 160.58682 
" clip-path="url(#p50be7fa4d9)" style="fill: none; stroke: #b0b0b0; stroke-opacity: 0.3; stroke-width: 0.8; stroke-linecap: square"/>
     </g>
     <g id="line2d_24">
      <g>
       <use xlink:href="#m7cd5814096" x="57.17" y="160.58682" style="stroke: #000000; stroke-width: 0.8"/>
      </g>
     </g>
     <g id="text_13">
      <!-- 750 -->
      <g transform="translate(31.0825 164.386039) scale(0.1 -0.1)">
       <use xlink:href="#DejaVuSans-37"/>
       <use xlink:href="#DejaVuSans-35" transform="translate(63.623047 0)"/>
       <use xlink:href="#DejaVuSans-30" transform="translate(127.246094 0)"/>
      </g>
     </g>
    </g>
    <g id="ytick_5">
     <g id="line2d_25">
      <path d="M 57.17 123.147573 
L 450 123.147573 
" clip-path="url(#p50be7fa4d9)" style="fill: none; stroke: #b0b0b0; stroke-opacity: 0.3; stroke-width: 0.8; stroke-linecap: square"/>
     </g>
     <g id="line2d_26">
      <g>
       <use xlink:href="#m7cd5814096" x="57.17" y="123.147573" style="stroke: #000000; stroke-width: 0.8"/>
      </g>
     </g>
     <g id="text_14">
      <!-- 1000 -->
      <g transform="translate(24.72 126.946792) scale(0.1 -0.1)">
       <use xlink:href="#DejaVuSans-31"/>
       <use xlink:href="#DejaVuSans-30" transform="translate(63.623047 0)"/>
       <use xlink:href="#DejaVuSans-30" transform="translate(127.246094 0)"/>
       <use xlink:href="#DejaVuSans-30" transform="translate(190.869141 0)"/>
      </g>
     </g>
    </g>
    <g id="ytick_6">
     <g id="line2d_27">
      <path d="M 57.17 85.708326 
L 450 85.708326 
" clip-path="url(#p50be7fa4d9)" style="fill: none; stroke: #b0b0b0; stroke-opacity: 0.3; stroke-width: 0.8; stroke-linecap: square"/>
     </g>
     <g id="line2d_28">
      <g>
       <use xlink:href="#m7cd5814096" x="57.17" y="85.708326" style="stroke: #000000; stroke-width: 0.8"/>
      </g>
     </g>
     <g id="text_15">
      <!-- 1250 -->
      <g transform="translate(24.72 89.507545) scale(0.1 -0.1)">
       <use xlink:href="#DejaVuSans-31"/>
       <use xlink:href="#DejaVuSans-32" transform="translate(63.623047 0)"/>
       <use xlink:href="#DejaVuSans-35" transform="translate(127.246094 0)"/>
       <use xlink:href="#DejaVuSans-30" transform="translate(190.869141 0)"/>
      </g>
     </g>
    </g>
    <g id="ytick_7">
     <g id="line2d_29">
      <path d="M 57.17 48.26908 
L 450 48.26908 
" clip-path="url(#p50be7fa4d9)" style="fill: none; stroke: #b0b0b0; stroke-opacity: 0.3; stroke-width: 0.8; stroke-linecap: square"/>
     </g>
     <g id="line2d_30">
      <g>
       <use xlink:href="#m7cd5814096" x="57.17" y="48.26908" style="stroke: #000000; stroke-width: 0.8"/>
      </g>
     </g>
     <g id="text_16">
      <!-- 1500 -->
      <g transform="translate(24.72 52.068298) scale(0.1 -0.1)">
       <use xlink:href="#DejaVuSans-31"/>
       <use xlink:href="#DejaVuSans-35" transform="translate(63.623047 0)"/>
       <use xlink:href="#DejaVuSans-30" transform="translate(127.246094 0)"/>
       <use xlink:href="#DejaVuSans-30" transform="translate(190.869141 0)"/>
      </g>
     </g>
    </g>
    <g id="text_17">
     <!-- Stress [Pa] -->
     <g transform="translate(18.640312 191.967812) rotate(-90) scale(0.1 -0.1)">
      <defs>
       <path id="DejaVuSans-65" d="M 3597 1894 
L 3597 1613 
L 953 1613 
Q 991 1019 1311 708 
Q 1631 397 2203 397 
Q 2534 397 2845 478 
Q 3156 559 3463 722 
L 3463 178 
Q 3153 47 2828 -22 
Q 2503 -91 2169 -91 
Q 1331 -91 842 396 
Q 353 884 353 1716 
Q 353 2575 817 3079 
Q 1281 3584 2069 3584 
Q 2775 3584 3186 3129 
Q 3597 2675 3597 1894 
z
M 3022 2063 
Q 3016 2534 2758 2815 
Q 2500 3097 2075 3097 
Q 1594 3097 1305 2825 
Q 1016 2553 972 2059 
L 3022 2063 
z
" transform="scale(0.015625)"/>
       <path id="DejaVuSans-73" d="M 2834 3397 
L 2834 2853 
Q 2591 2978 2328 3040 
Q 2066 3103 1784 3103 
Q 1356 3103 1142 2972 
Q 928 2841 928 2578 
Q 928 2378 1081 2264 
Q 1234 2150 1697 2047 
L 1894 2003 
Q 2506 1872 2764 1633 
Q 3022 1394 3022 966 
Q 3022 478 2636 193 
Q 2250 -91 1575 -91 
Q 1294 -91 989 -36 
Q 684 19 347 128 
L 347 722 
Q 666 556 975 473 
Q 1284 391 1588 391 
Q 1994 391 2212 530 
Q 2431 669 2431 922 
Q 2431 1156 2273 1281 
Q 2116 1406 1581 1522 
L 1381 1569 
Q 847 1681 609 1914 
Q 372 2147 372 2553 
Q 372 3047 722 3315 
Q 1072 3584 1716 3584 
Q 2034 3584 2315 3537 
Q 2597 3491 2834 3397 
z
" transform="scale(0.015625)"/>
       <path id="DejaVuSans-50" d="M 1259 4147 
L 1259 2394 
L 2053 2394 
Q 2494 2394 2734 2622 
Q 2975 2850 2975 3272 
Q 2975 3691 2734 3919 
Q 2494 4147 2053 4147 
L 1259 4147 
z
M 628 4666 
L 2053 4666 
Q 2838 4666 3239 4311 
Q 3641 3956 3641 3272 
Q 3641 2581 3239 2228 
Q 2838 1875 2053 1875 
L 1259 1875 
L 1259 0 
L 628 0 
L 628 4666 
z
" transform="scale(0.015625)"/>
      </defs>
      <use xlink:href="#DejaVuSans-53"/>
      <use xlink:href="#DejaVuSans-74" transform="translate(63.476562 0)"/>
      <use xlink:href="#DejaVuSans-72" transform="translate(102.685547 0)"/>
      <use xlink:href="#DejaVuSans-65" transform="translate(141.548828 0)"/>
      <use xlink:href="#DejaVuSans-73" transform="translate(203.072266 0)"/>
      <use xlink:href="#DejaVuSans-73" transform="translate(255.171875 0)"/>
      <use xlink:href="#DejaVuSans-20" transform="translate(307.271484 0)"/>
      <use xlink:href="#DejaVuSans-5b" transform="translate(339.058594 0)"/>
      <use xlink:href="#DejaVuSans-50" transform="translate(378.072266 0)"/>
      <use xlink:href="#DejaVuSans-61" transform="translate(433.875 0)"/>
      <use xlink:href="#DejaVuSans-5d" transform="translate(495.154297 0)"/>
     </g>
    </g>
   </g>
   <g id="line2d_31">
    <path d="M 75.19168 273.330796 
L 75.19168 273.482874 
L 75.191686 273.228063 
L 75.191928 273.415898 
L 75.906926 271.7354 
L 76.658897 268.62891 
L 77.380517 267.842186 
L 78.168283 266.452158 
L 78.94135 265.429289 
L 79.729117 265.094154 
L 80.484219 265.335664 
L 83.558522 266.884489 
L 84.360987 267.405395 
L 87.647067 268.796685 
L 88.460421 269.065346 
L 89.260709 269.461234 
L 90.041398 269.549867 
L 90.801399 269.105361 
L 91.54289 268.83161 
L 93.103723 269.312737 
L 93.900744 269.369563 
L 94.654213 268.977937 
L 95.481177 267.924761 
L 97.763903 264.597281 
L 98.496683 263.851597 
L 99.962244 262.827466 
L 101.437605 262.080678 
L 102.922221 261.652194 
L 108.104493 259.379942 
L 110.327878 258.142081 
L 112.57195 257.23981 
L 115.578746 255.960277 
L 117.833162 254.893842 
L 126.035437 251.06263 
L 128.251744 249.981672 
L 130.466963 248.938915 
L 131.948856 248.151243 
L 134.923532 246.948109 
L 137.149094 245.790752 
L 138.626088 245.078533 
L 140.831507 243.629153 
L 146.042089 241.069456 
L 147.550659 240.481149 
L 149.825763 239.373673 
L 151.349032 238.852925 
L 155.885085 236.295123 
L 158.13678 234.796494 
L 160.387929 233.560212 
L 165.670374 230.518443 
L 169.48399 228.634661 
L 172.525084 227.061211 
L 174.035287 226.259332 
L 178.512153 223.675988 
L 179.994046 222.802761 
L 191.354323 216.424986 
L 192.878681 215.751913 
L 200.389954 211.331479 
L 201.886003 210.474354 
L 204.131164 209.026868 
L 206.386669 207.630526 
L 207.143404 207.161712 
L 208.659051 206.452333 
L 215.476197 202.426525 
L 217.732791 201.236651 
L 219.970322 199.660044 
L 222.202962 198.314846 
L 224.430702 196.852523 
L 227.398845 194.961479 
L 228.887577 194.080532 
L 230.37546 193.260659 
L 235.611084 190.027889 
L 241.600177 186.390707 
L 251.127958 179.955791 
L 253.365498 178.496624 
L 255.61937 177.112911 
L 256.371749 176.562961 
L 257.875419 175.754137 
L 260.864794 173.741549 
L 263.097434 172.361939 
L 266.801623 169.817711 
L 269.761055 167.627699 
L 271.990429 166.112023 
L 276.467141 163.118869 
L 281.739241 159.939768 
L 286.267282 156.551891 
L 288.540753 155.061155 
L 290.049322 154.001665 
L 292.305916 152.338557 
L 293.810131 151.426815 
L 298.290654 148.284335 
L 301.272407 145.90364 
L 303.527912 144.37502 
L 305.035393 143.202825 
L 309.573624 139.907231 
L 313.383975 137.458029 
L 314.143976 136.904291 
L 314.901255 136.538395 
L 315.653634 136.036747 
L 317.899885 134.143493 
L 318.650086 133.56513 
L 320.15049 132.679591 
L 321.643816 131.534231 
L 323.884078 129.623614 
L 325.387204 128.449525 
L 326.903395 127.31995 
L 328.425576 126.276245 
L 338.245366 118.697517 
L 347.232 111.533964 
L 357.860041 103.393636 
L 359.366977 102.113156 
L 363.105482 99.157255 
L 377.130663 87.556537 
L 378.623445 86.44906 
L 383.064226 82.678969 
L 384.533598 81.301885 
L 386.736839 79.446515 
L 388.950425 77.32059 
L 391.181329 75.521691 
L 392.6752 74.126928 
L 400.215327 67.810083 
L 401.721175 66.454466 
L 404.717082 63.815844 
L 406.944823 61.662769 
L 409.163308 59.596196 
L 412.121106 56.825611 
L 415.836184 53.392056 
L 419.594271 49.959132 
L 421.853587 48.134385 
L 425.628006 45.787155 
L 429.353155 43.586882 
L 430.108801 42.822888 
L 431.838743 40.23387 
L 432.144091 41.243657 
L 431.977671 64.875373 
L 431.975799 64.715511 
L 431.980563 69.62307 
L 431.979746 69.614329 
L 431.977807 69.483688 
L 431.976173 70.500282 
L 431.973077 72.266783 
L 431.254757 72.60912 
L 430.527285 74.409242 
L 429.805256 75.857675 
L 429.082275 75.636369 
L 428.368277 75.721569 
L 427.609637 75.981942 
L 426.883389 76.416977 
L 426.148363 76.705409 
L 425.427559 76.777112 
L 423.935322 77.50782 
L 423.19247 79.475895 
L 422.463228 80.756375 
L 421.705676 81.51958 
L 420.95493 82.959804 
L 420.233854 83.410249 
L 419.475759 83.368498 
L 418.731545 83.57246 
L 417.981616 83.947906 
L 416.519049 85.376055 
L 415.785724 86.652805 
L 415.051174 88.837135 
L 414.311452 89.568691 
L 413.574044 89.900176 
L 412.826836 90.103211 
L 411.350659 91.218737 
L 406.240828 96.784591 
L 404.051469 98.461432 
L 400.347552 102.294348 
L 398.912478 103.369307 
L 397.427181 104.955385 
L 395.960531 106.628911 
L 394.506675 107.738607 
L 393.775255 108.117585 
L 392.324393 109.647153 
L 390.853524 111.137415 
L 387.97225 113.635985 
L 386.483279 115.277626 
L 382.813387 118.118691 
L 381.330677 119.609427 
L 379.840073 120.807983 
L 374.747357 125.237414 
L 373.31201 126.33242 
L 371.158583 128.137751 
L 368.958846 130.151405 
L 368.230693 130.615011 
L 362.383964 135.772447 
L 361.655811 136.180174 
L 358.743079 138.465685 
L 358.00853 139.280034 
L 356.564745 140.426814 
L 355.086662 141.323245 
L 354.360415 141.850938 
L 352.138187 143.943399 
L 350.674803 144.858298 
L 349.219586 145.814633 
L 341.153011 152.194538 
L 336.714135 155.430781 
L 335.993059 155.801492 
L 330.907472 159.593426 
L 330.188846 160.04172 
L 327.262623 162.432359 
L 326.516504 162.942768 
L 325.799784 163.251365 
L 324.346744 164.286703 
L 321.410858 166.716174 
L 319.958635 167.616709 
L 318.508046 168.47494 
L 314.096425 171.768156 
L 312.64529 172.675873 
L 311.181907 173.758961 
L 308.277461 175.422701 
L 306.810539 176.567746 
L 303.887855 178.550974 
L 303.158885 179.305813 
L 300.955643 180.765058 
L 299.508592 181.385567 
L 295.872965 184.037932 
L 292.952459 185.917927 
L 291.490981 187.027455 
L 289.276306 188.092627 
L 285.609954 190.544749 
L 284.894594 190.884601 
L 281.990012 193.048962 
L 273.923301 197.667631 
L 272.481694 198.592396 
L 270.264842 200.228354 
L 267.375912 201.853026 
L 264.509847 203.704726 
L 263.074279 204.419412 
L 262.336599 205.006614 
L 254.99355 209.226105 
L 253.523905 209.892824 
L 249.876471 212.411953 
L 248.41717 213.092603 
L 245.501564 215.046392 
L 244.038759 215.445324 
L 242.56857 216.348621 
L 241.080007 217.586245 
L 239.62969 218.186864 
L 238.913242 218.439355 
L 238.182094 218.854067 
L 236.73899 220.120183 
L 235.277784 220.666857 
L 234.53956 220.896213 
L 233.071004 221.705431 
L 231.594282 222.848897 
L 230.876473 223.255756 
L 229.423706 223.74963 
L 227.944943 224.537341 
L 226.483924 225.569503 
L 223.560151 226.863361 
L 222.829956 227.326256 
L 222.093365 227.942661 
L 220.636787 228.638622 
L 219.907817 228.860598 
L 218.461174 229.687891 
L 216.995757 230.607288 
L 216.247733 231.047217 
L 214.813476 231.59081 
L 204.631123 236.989545 
L 203.900656 237.534443 
L 200.250772 239.321543 
L 199.510641 239.641268 
L 198.040044 240.57803 
L 196.602248 240.973977 
L 194.389752 242.151183 
L 192.919155 243.188969 
L 189.300175 244.608418 
L 187.810387 245.56499 
L 181.982576 248.183762 
L 181.248026 248.639396 
L 179.06765 249.505796 
L 177.593651 250.199153 
L 176.130539 251.113578 
L 175.416541 251.508835 
L 173.973301 251.938404 
L 171.032592 253.368512 
L 169.551243 253.871462 
L 165.87999 255.890286 
L 165.159731 256.060715 
L 161.509438 258.139916 
L 160.781285 258.301771 
L 158.589204 259.181943 
L 151.225637 262.675877 
L 149.781036 263.322786 
L 147.603382 264.42533 
L 146.885028 264.574577 
L 144.728066 265.491726 
L 140.358467 267.229875 
L 138.893314 267.975164 
L 135.996086 269.163102 
L 134.523447 269.995603 
L 130.885676 271.195204 
L 128.689104 272.317913 
L 125.004513 273.740498 
L 123.518809 274.677969 
L 121.324822 275.457788 
L 119.862617 275.739845 
L 118.381812 276.560035 
L 116.897741 277.168073 
L 114.71682 277.932857 
L 113.261603 278.662519 
L 111.789781 279.207694 
L 111.042301 279.31775 
L 109.552786 279.947552 
L 108.095119 280.583412 
L 105.927536 281.343105 
L 104.486474 282.047234 
L 103.031801 282.490083 
L 101.587334 282.839092 
L 100.097274 283.615636 
L 99.379737 283.975692 
L 97.211338 284.744659 
L 95.001835 285.632388 
L 92.07357 286.363944 
L 81.992842 289.706896 
L 79.072064 290.495379 
L 77.619705 290.722086 
L 76.899718 290.643203 
L 75.372094 290.855624 
L 75.187503 291.06 
L 75.026015 289.887085 
L 75.026015 289.887085 
" clip-path="url(#p50be7fa4d9)" style="fill: none; stroke: #ff0000; stroke-width: 2; stroke-linecap: square"/>
   </g>
   <g id="line2d_32">
    <path d="M 75.19168 273.330796 
L 75.19168 273.482874 
L 75.191686 273.228063 
L 75.191928 273.415898 
L 75.906926 271.7354 
L 76.658897 268.62891 
L 77.380517 267.842186 
L 78.168283 266.452158 
L 78.94135 265.429289 
L 79.729117 265.094154 
L 80.484219 274.410139 
L 81.301383 274.56136 
L 82.023276 274.486223 
L 86.825003 272.973072 
L 90.041398 270.774773 
L 90.801399 269.609208 
L 91.54289 268.83161 
L 93.103723 269.312737 
L 93.900744 269.369563 
L 94.654213 268.977937 
L 95.481177 267.924761 
L 97.763903 264.597281 
L 98.496683 263.851597 
L 99.962244 262.827466 
L 101.437605 262.080678 
L 102.922221 261.652194 
L 108.104493 259.379942 
L 110.327878 258.142081 
L 112.57195 257.23981 
L 115.578746 255.960277 
L 117.833162 254.893842 
L 126.035437 251.06263 
L 128.251744 249.981672 
L 130.466963 248.938915 
L 131.948856 248.151243 
L 134.923532 246.948109 
L 137.149094 245.790752 
L 138.626088 245.078533 
L 140.831507 243.629153 
L 146.042089 241.069456 
L 147.550659 240.481149 
L 149.825763 239.373673 
L 151.349032 238.852925 
L 155.885085 236.295123 
L 158.13678 234.796494 
L 160.387929 233.560212 
L 165.670374 230.518443 
L 169.48399 228.634661 
L 172.525084 227.061211 
L 174.035287 226.259332 
L 178.512153 223.675988 
L 179.994046 222.802761 
L 191.354323 216.424986 
L 192.878681 215.751913 
L 200.389954 211.331479 
L 201.886003 210.474354 
L 204.131164 209.026868 
L 206.386669 207.630526 
L 207.143404 207.161712 
L 208.659051 206.452333 
L 215.476197 202.426525 
L 217.732791 201.236651 
L 219.970322 199.660044 
L 222.202962 198.314846 
L 224.430702 196.852523 
L 227.398845 194.961479 
L 228.887577 194.080532 
L 230.37546 193.260659 
L 235.611084 190.027889 
L 241.600177 186.390707 
L 251.127958 179.955791 
L 253.365498 178.496624 
L 255.61937 177.112911 
L 256.371749 176.562961 
L 257.875419 175.754137 
L 260.864794 173.741549 
L 263.097434 172.361939 
L 266.801623 169.817711 
L 269.761055 167.627699 
L 271.990429 166.112023 
L 276.467141 163.118869 
L 281.739241 159.939768 
L 286.267282 156.551891 
L 288.540753 155.061155 
L 290.049322 154.001665 
L 292.305916 152.338557 
L 293.810131 151.426815 
L 298.290654 148.284335 
L 301.272407 145.90364 
L 303.527912 144.37502 
L 305.035393 143.202825 
L 309.573624 139.907231 
L 313.383975 137.458029 
L 314.143976 136.904291 
L 314.901255 136.538395 
L 315.653634 136.036747 
L 317.899885 134.143493 
L 318.650086 133.56513 
L 320.15049 132.679591 
L 321.643816 131.534231 
L 323.884078 129.623614 
L 325.387204 128.449525 
L 326.903395 127.31995 
L 328.425576 126.276245 
L 338.245366 118.697517 
L 347.232 111.533964 
L 357.860041 103.393636 
L 359.366977 102.113156 
L 363.105482 99.157255 
L 377.130663 87.556537 
L 378.623445 86.44906 
L 383.064226 82.678969 
L 384.533598 81.301885 
L 386.736839 79.446515 
L 388.950425 77.32059 
L 391.181329 75.521691 
L 392.6752 74.126928 
L 400.215327 67.810083 
L 401.721175 66.454466 
L 404.717082 63.815844 
L 406.944823 61.662769 
L 408.425083 60.318526 
L 410.640846 58.108487 
L 414.346669 54.585894 
L 415.836184 52.84102 
L 418.839713 49.47905 
L 421.853587 45.738634 
L 424.051384 43.395507 
L 425.628006 41.857416 
L 427.150186 40.566992 
L 427.873711 40.120011 
L 429.353155 39.581071 
L 430.108801 39.46 
L 430.82661 39.78675 
L 431.541221 40.285082 
L 431.838743 40.047686 
L 432.144091 41.154146 
L 431.977671 64.875373 
L 431.975799 64.715511 
L 431.980563 69.62307 
L 431.979746 69.614329 
L 431.977807 69.483688 
L 431.976173 70.500282 
L 431.973077 72.266783 
L 431.254757 72.60912 
L 430.527285 74.409242 
L 429.805256 75.857675 
L 429.082275 75.636369 
L 428.368277 75.721569 
L 427.609637 75.981942 
L 426.883389 76.416977 
L 426.148363 76.705409 
L 425.427559 76.777112 
L 423.935322 77.50782 
L 423.19247 79.475895 
L 422.463228 80.756375 
L 421.705676 81.51958 
L 420.95493 82.959804 
L 420.233854 83.410249 
L 419.475759 83.368498 
L 418.731545 83.57246 
L 417.981616 83.947906 
L 416.519049 85.376055 
L 415.785724 86.652805 
L 415.051174 88.837135 
L 414.311452 89.568691 
L 413.574044 89.900176 
L 412.826836 90.103211 
L 411.350659 91.218737 
L 406.240828 96.784591 
L 404.051469 98.461432 
L 400.347552 102.294348 
L 398.912478 103.369307 
L 397.427181 104.955385 
L 395.960531 106.628911 
L 394.506675 107.738607 
L 393.775255 108.117585 
L 392.324393 109.647153 
L 390.853524 111.137415 
L 387.97225 113.635985 
L 386.483279 115.277626 
L 382.813387 118.118691 
L 381.330677 119.609427 
L 379.840073 120.807983 
L 374.747357 125.237414 
L 373.31201 126.33242 
L 371.158583 128.137751 
L 368.958846 130.151405 
L 368.230693 130.615011 
L 362.383964 135.772447 
L 361.655811 136.180174 
L 358.743079 138.465685 
L 358.00853 139.280034 
L 356.564745 140.426814 
L 355.086662 141.323245 
L 354.360415 141.850938 
L 352.138187 143.943399 
L 350.674803 144.858298 
L 349.219586 145.814633 
L 341.153011 152.194538 
L 336.714135 155.430781 
L 335.993059 155.801492 
L 330.907472 159.593426 
L 330.188846 160.04172 
L 327.262623 162.432359 
L 326.516504 162.942768 
L 325.799784 163.251365 
L 324.346744 164.286703 
L 321.410858 166.716174 
L 319.958635 167.616709 
L 318.508046 168.47494 
L 314.096425 171.768156 
L 312.64529 172.675873 
L 311.181907 173.758961 
L 308.277461 175.422701 
L 306.810539 176.567746 
L 303.887855 178.550974 
L 303.158885 179.305813 
L 300.955643 180.765058 
L 299.508592 181.385567 
L 295.872965 184.037932 
L 292.952459 185.917927 
L 291.490981 187.027455 
L 289.276306 188.092627 
L 285.609954 190.544749 
L 284.894594 190.884601 
L 281.990012 193.048962 
L 273.923301 197.667631 
L 272.481694 198.592396 
L 270.264842 200.228354 
L 267.375912 201.853026 
L 264.509847 203.704726 
L 263.074279 204.419412 
L 262.336599 205.006614 
L 254.99355 209.226105 
L 253.523905 209.892824 
L 249.876471 212.411953 
L 248.41717 213.092603 
L 245.501564 215.046392 
L 244.038759 215.445324 
L 242.56857 216.348621 
L 241.080007 217.586245 
L 239.62969 218.186864 
L 238.913242 218.439355 
L 238.182094 218.854067 
L 236.73899 220.120183 
L 235.277784 220.666857 
L 234.53956 220.896213 
L 233.071004 221.705431 
L 231.594282 222.848897 
L 230.876473 223.255756 
L 229.423706 223.74963 
L 227.944943 224.537341 
L 226.483924 225.569503 
L 223.560151 226.863361 
L 222.829956 227.326256 
L 222.093365 227.942661 
L 220.636787 228.638622 
L 219.907817 228.860598 
L 218.461174 229.687891 
L 216.995757 230.607288 
L 216.247733 231.047217 
L 214.813476 231.59081 
L 204.631123 236.989545 
L 203.900656 237.534443 
L 200.250772 239.321543 
L 199.510641 239.641268 
L 198.040044 240.57803 
L 196.602248 240.973977 
L 194.389752 242.151183 
L 192.919155 243.188969 
L 189.300175 244.608418 
L 187.810387 245.56499 
L 181.982576 248.183762 
L 181.248026 248.639396 
L 179.06765 249.505796 
L 177.593651 250.199153 
L 176.130539 251.113578 
L 175.416541 251.508835 
L 173.973301 251.938404 
L 171.032592 253.368512 
L 169.551243 253.871462 
L 165.87999 255.890286 
L 165.159731 256.060715 
L 161.509438 258.139916 
L 160.781285 258.301771 
L 158.589204 259.181943 
L 151.225637 262.675877 
L 149.781036 263.322786 
L 147.603382 264.42533 
L 146.885028 264.574577 
L 144.728066 265.491726 
L 140.358467 267.229875 
L 138.893314 267.975164 
L 135.996086 269.163102 
L 134.523447 269.995603 
L 130.885676 271.195204 
L 128.689104 272.317913 
L 125.004513 273.740498 
L 123.518809 274.677969 
L 121.324822 275.457788 
L 119.862617 275.739845 
L 118.381812 276.560035 
L 116.897741 277.168073 
L 114.71682 277.932857 
L 113.261603 278.662519 
L 111.789781 279.207694 
L 111.042301 279.31775 
L 109.552786 279.947552 
L 108.095119 280.583412 
L 105.927536 281.343105 
L 104.486474 282.047234 
L 103.031801 282.490083 
L 101.587334 282.839092 
L 100.097274 283.615636 
L 99.379737 283.975692 
L 97.211338 284.744659 
L 95.001835 285.632388 
L 92.07357 286.363944 
L 81.992842 289.706896 
L 79.072064 290.495379 
L 77.619705 290.722086 
L 76.899718 290.643203 
L 75.372094 290.855624 
L 75.187503 291.06 
L 75.026015 289.887085 
L 75.026015 289.887085 
" clip-path="url(#p50be7fa4d9)" style="fill: none; stroke: #000000; stroke-width: 2; stroke-linecap: square"/>
   </g>
   <g id="patch_3">
    <path d="M 57.17 303.64 
L 57.17 26.88 
" style="fill: none; stroke: #000000; stroke-width: 0.8; stroke-linejoin: miter; stroke-linecap: square"/>
   </g>
   <g id="patch_4">
    <path d="M 450 303.64 
L 450 26.88 
" style="fill: none; stroke: #000000; stroke-width: 0.8; stroke-linejoin: miter; stroke-linecap: square"/>
   </g>
   <g id="patch_5">
    <path d="M 57.17 303.64 
L 450 303.64 
" style="fill: none; stroke: #000000; stroke-width: 0.8; stroke-linejoin: miter; stroke-linecap: square"/>
   </g>
   <g id="patch_6">
    <path d="M 57.17 26.88 
L 450 26.88 
" style="fill: none; stroke: #000000; stroke-width: 0.8; stroke-linejoin: miter; stroke-linecap: square"/>
   </g>
   <g id="text_18">
    <!-- 2025-07-02 Trial 20 - Stress vs Strain -->
    <g transform="translate(142.330938 20.88) scale(0.12 -0.12)">
     <defs>
      <path id="DejaVuSans-54" d="M -19 4666 
L 3928 4666 
L 3928 4134 
L 2272 4134 
L 2272 0 
L 1638 0 
L 1638 4134 
L -19 4134 
L -19 4666 
z
" transform="scale(0.015625)"/>
      <path id="DejaVuSans-6c" d="M 603 4863 
L 1178 4863 
L 1178 0 
L 603 0 
L 603 4863 
z
" transform="scale(0.015625)"/>
      <path id="DejaVuSans-76" d="M 191 3500 
L 800 3500 
L 1894 563 
L 2988 3500 
L 3597 3500 
L 2284 0 
L 1503 0 
L 191 3500 
z
" transform="scale(0.015625)"/>
     </defs>
     <use xlink:href="#DejaVuSans-32"/>
     <use xlink:href="#DejaVuSans-30" transform="translate(63.623047 0)"/>
     <use xlink:href="#DejaVuSans-32" transform="translate(127.246094 0)"/>
     <use xlink:href="#DejaVuSans-35" transform="translate(190.869141 0)"/>
     <use xlink:href="#DejaVuSans-2d" transform="translate(254.492188 0)"/>
     <use xlink:href="#DejaVuSans-30" transform="translate(290.576172 0)"/>
     <use xlink:href="#DejaVuSans-37" transform="translate(354.199219 0)"/>
     <use xlink:href="#DejaVuSans-2d" transform="translate(417.822266 0)"/>
     <use xlink:href="#DejaVuSans-30" transform="translate(453.90625 0)"/>
     <use xlink:href="#DejaVuSans-32" transform="translate(517.529297 0)"/>
     <use xlink:href="#DejaVuSans-20" transform="translate(581.152344 0)"/>
     <use xlink:href="#DejaVuSans-54" transform="translate(612.939453 0)"/>
     <use xlink:href="#DejaVuSans-72" transform="translate(659.273438 0)"/>
     <use xlink:href="#DejaVuSans-69" transform="translate(700.386719 0)"/>
     <use xlink:href="#DejaVuSans-61" transform="translate(728.169922 0)"/>
     <use xlink:href="#DejaVuSans-6c" transform="translate(789.449219 0)"/>
     <use xlink:href="#DejaVuSans-20" transform="translate(817.232422 0)"/>
     <use xlink:href="#DejaVuSans-32" transform="translate(849.019531 0)"/>
     <use xlink:href="#DejaVuSans-30" transform="translate(912.642578 0)"/>
     <use xlink:href="#DejaVuSans-20" transform="translate(976.265625 0)"/>
     <use xlink:href="#DejaVuSans-2d" transform="translate(1008.052734 0)"/>
     <use xlink:href="#DejaVuSans-20" transform="translate(1044.136719 0)"/>
     <use xlink:href="#DejaVuSans-53" transform="translate(1075.923828 0)"/>
     <use xlink:href="#DejaVuSans-74" transform="translate(1139.400391 0)"/>
     <use xlink:href="#DejaVuSans-72" transform="translate(1178.609375 0)"/>
     <use xlink:href="#DejaVuSans-65" transform="translate(1217.472656 0)"/>
     <use xlink:href="#DejaVuSans-73" transform="translate(1278.996094 0)"/>
     <use xlink:href="#DejaVuSans-73" transform="translate(1331.095703 0)"/>
     <use xlink:href="#DejaVuSans-20" transform="translate(1383.195312 0)"/>
     <use xlink:href="#DejaVuSans-76" transform="translate(1414.982422 0)"/>
     <use xlink:href="#DejaVuSans-73" transform="translate(1474.162109 0)"/>
     <use xlink:href="#DejaVuSans-20" transform="translate(1526.261719 0)"/>
     <use xlink:href="#DejaVuSans-53" transform="translate(1558.048828 0)"/>
     <use xlink:href="#DejaVuSans-74" transform="translate(1621.525391 0)"/>
     <use xlink:href="#DejaVuSans-72" transform="translate(1660.734375 0)"/>
     <use xlink:href="#DejaVuSans-61" transform="translate(1701.847656 0)"/>
     <use xlink:href="#DejaVuSans-69" transform="translate(1763.126953 0)"/>
     <use xlink:href="#DejaVuSans-6e" transform="translate(1790.910156 0)"/>
    </g>
   </g>
   <g id="legend_1">
    <g id="patch_7">
     <path d="M 64.17 64.23625 
L 170.154375 64.23625 
Q 172.154375 64.23625 172.154375 62.23625 
L 172.154375 33.88 
Q 172.154375 31.88 170.154375 31.88 
L 64.17 31.88 
Q 62.17 31.88 62.17 33.88 
L 62.17 62.23625 
Q 62.17 64.23625 64.17 64.23625 
z
" style="fill: #ffffff; opacity: 0.8; stroke: #cccccc; stroke-linejoin: miter"/>
    </g>
    <g id="line2d_33">
     <path d="M 66.17 39.978437 
L 76.17 39.978437 
L 86.17 39.978437 
" style="fill: none; stroke: #ff0000; stroke-width: 2; stroke-linecap: square"/>
    </g>
    <g id="text_19">
     <!-- Raw Force -->
     <g transform="translate(94.17 43.478437) scale(0.1 -0.1)">
      <defs>
       <path id="DejaVuSans-52" d="M 2841 2188 
Q 3044 2119 3236 1894 
Q 3428 1669 3622 1275 
L 4263 0 
L 3584 0 
L 2988 1197 
Q 2756 1666 2539 1819 
Q 2322 1972 1947 1972 
L 1259 1972 
L 1259 0 
L 628 0 
L 628 4666 
L 2053 4666 
Q 2853 4666 3247 4331 
Q 3641 3997 3641 3322 
Q 3641 2881 3436 2590 
Q 3231 2300 2841 2188 
z
M 1259 4147 
L 1259 2491 
L 2053 2491 
Q 2509 2491 2742 2702 
Q 2975 2913 2975 3322 
Q 2975 3731 2742 3939 
Q 2509 4147 2053 4147 
L 1259 4147 
z
" transform="scale(0.015625)"/>
       <path id="DejaVuSans-77" d="M 269 3500 
L 844 3500 
L 1563 769 
L 2278 3500 
L 2956 3500 
L 3675 769 
L 4391 3500 
L 4966 3500 
L 4050 0 
L 3372 0 
L 2619 2869 
L 1863 0 
L 1184 0 
L 269 3500 
z
" transform="scale(0.015625)"/>
       <path id="DejaVuSans-46" d="M 628 4666 
L 3309 4666 
L 3309 4134 
L 1259 4134 
L 1259 2759 
L 3109 2759 
L 3109 2228 
L 1259 2228 
L 1259 0 
L 628 0 
L 628 4666 
z
" transform="scale(0.015625)"/>
       <path id="DejaVuSans-6f" d="M 1959 3097 
Q 1497 3097 1228 2736 
Q 959 2375 959 1747 
Q 959 1119 1226 758 
Q 1494 397 1959 397 
Q 2419 397 2687 759 
Q 2956 1122 2956 1747 
Q 2956 2369 2687 2733 
Q 2419 3097 1959 3097 
z
M 1959 3584 
Q 2709 3584 3137 3096 
Q 3566 2609 3566 1747 
Q 3566 888 3137 398 
Q 2709 -91 1959 -91 
Q 1206 -91 779 398 
Q 353 888 353 1747 
Q 353 2609 779 3096 
Q 1206 3584 1959 3584 
z
" transform="scale(0.015625)"/>
       <path id="DejaVuSans-63" d="M 3122 3366 
L 3122 2828 
Q 2878 2963 2633 3030 
Q 2388 3097 2138 3097 
Q 1578 3097 1268 2742 
Q 959 2388 959 1747 
Q 959 1106 1268 751 
Q 1578 397 2138 397 
Q 2388 397 2633 464 
Q 2878 531 3122 666 
L 3122 134 
Q 2881 22 2623 -34 
Q 2366 -91 2075 -91 
Q 1284 -91 818 406 
Q 353 903 353 1747 
Q 353 2603 823 3093 
Q 1294 3584 2113 3584 
Q 2378 3584 2631 3529 
Q 2884 3475 3122 3366 
z
" transform="scale(0.015625)"/>
      </defs>
      <use xlink:href="#DejaVuSans-52"/>
      <use xlink:href="#DejaVuSans-61" transform="translate(67.232422 0)"/>
      <use xlink:href="#DejaVuSans-77" transform="translate(128.511719 0)"/>
      <use xlink:href="#DejaVuSans-20" transform="translate(210.298828 0)"/>
      <use xlink:href="#DejaVuSans-46" transform="translate(242.085938 0)"/>
      <use xlink:href="#DejaVuSans-6f" transform="translate(295.980469 0)"/>
      <use xlink:href="#DejaVuSans-72" transform="translate(357.162109 0)"/>
      <use xlink:href="#DejaVuSans-63" transform="translate(396.025391 0)"/>
      <use xlink:href="#DejaVuSans-65" transform="translate(451.005859 0)"/>
     </g>
    </g>
    <g id="line2d_34">
     <path d="M 66.17 54.656563 
L 76.17 54.656563 
L 86.17 54.656563 
" style="fill: none; stroke: #000000; stroke-width: 2; stroke-linecap: square"/>
    </g>
    <g id="text_20">
     <!-- Adjusted Force -->
     <g transform="translate(94.17 58.156563) scale(0.1 -0.1)">
      <defs>
       <path id="DejaVuSans-41" d="M 2188 4044 
L 1331 1722 
L 3047 1722 
L 2188 4044 
z
M 1831 4666 
L 2547 4666 
L 4325 0 
L 3669 0 
L 3244 1197 
L 1141 1197 
L 716 0 
L 50 0 
L 1831 4666 
z
" transform="scale(0.015625)"/>
       <path id="DejaVuSans-64" d="M 2906 2969 
L 2906 4863 
L 3481 4863 
L 3481 0 
L 2906 0 
L 2906 525 
Q 2725 213 2448 61 
Q 2172 -91 1784 -91 
Q 1150 -91 751 415 
Q 353 922 353 1747 
Q 353 2572 751 3078 
Q 1150 3584 1784 3584 
Q 2172 3584 2448 3432 
Q 2725 3281 2906 2969 
z
M 947 1747 
Q 947 1113 1208 752 
Q 1469 391 1925 391 
Q 2381 391 2643 752 
Q 2906 1113 2906 1747 
Q 2906 2381 2643 2742 
Q 2381 3103 1925 3103 
Q 1469 3103 1208 2742 
Q 947 2381 947 1747 
z
" transform="scale(0.015625)"/>
       <path id="DejaVuSans-6a" d="M 603 3500 
L 1178 3500 
L 1178 -63 
Q 1178 -731 923 -1031 
Q 669 -1331 103 -1331 
L -116 -1331 
L -116 -844 
L 38 -844 
Q 366 -844 484 -692 
Q 603 -541 603 -63 
L 603 3500 
z
M 603 4863 
L 1178 4863 
L 1178 4134 
L 603 4134 
L 603 4863 
z
" transform="scale(0.015625)"/>
       <path id="DejaVuSans-75" d="M 544 1381 
L 544 3500 
L 1119 3500 
L 1119 1403 
Q 1119 906 1312 657 
Q 1506 409 1894 409 
Q 2359 409 2629 706 
Q 2900 1003 2900 1516 
L 2900 3500 
L 3475 3500 
L 3475 0 
L 2900 0 
L 2900 538 
Q 2691 219 2414 64 
Q 2138 -91 1772 -91 
Q 1169 -91 856 284 
Q 544 659 544 1381 
z
M 1991 3584 
L 1991 3584 
z
" transform="scale(0.015625)"/>
      </defs>
      <use xlink:href="#DejaVuSans-41"/>
      <use xlink:href="#DejaVuSans-64" transform="translate(66.658203 0)"/>
      <use xlink:href="#DejaVuSans-6a" transform="translate(130.134766 0)"/>
      <use xlink:href="#DejaVuSans-75" transform="translate(157.917969 0)"/>
      <use xlink:href="#DejaVuSans-73" transform="translate(221.296875 0)"/>
      <use xlink:href="#DejaVuSans-74" transform="translate(273.396484 0)"/>
      <use xlink:href="#DejaVuSans-65" transform="translate(312.605469 0)"/>
      <use xlink:href="#DejaVuSans-64" transform="translate(374.128906 0)"/>
      <use xlink:href="#DejaVuSans-20" transform="translate(437.605469 0)"/>
      <use xlink:href="#DejaVuSans-46" transform="translate(469.392578 0)"/>
      <use xlink:href="#DejaVuSans-6f" transform="translate(523.287109 0)"/>
      <use xlink:href="#DejaVuSans-72" transform="translate(584.46875 0)"/>
      <use xlink:href="#DejaVuSans-63" transform="translate(623.332031 0)"/>
      <use xlink:href="#DejaVuSans-65" transform="translate(678.3125 0)"/>
     </g>
    </g>
   </g>
  </g>
 </g>
 <defs>
  <clipPath id="p50be7fa4d9">
   <rect x="57.17" y="26.88" width="392.83" height="276.76"/>
  </clipPath>
 </defs>
</svg>
