<?xml version="1.0" encoding="utf-8" standalone="no"?>
<!DOCTYPE svg PUBLIC "-//W3C//DTD SVG 1.1//EN"
  "http://www.w3.org/Graphics/SVG/1.1/DTD/svg11.dtd">
<svg xmlns:xlink="http://www.w3.org/1999/xlink" width="460.8pt" height="345.6pt" viewBox="0 0 460.8 345.6" xmlns="http://www.w3.org/2000/svg" version="1.1">
 <metadata>
  <rdf:RDF xmlns:dc="http://purl.org/dc/elements/1.1/" xmlns:cc="http://creativecommons.org/ns#" xmlns:rdf="http://www.w3.org/1999/02/22-rdf-syntax-ns#">
   <cc:Work>
    <dc:type rdf:resource="http://purl.org/dc/dcmitype/StillImage"/>
    <dc:date>2025-07-28T21:14:59.987574</dc:date>
    <dc:format>image/svg+xml</dc:format>
    <dc:creator>
     <cc:Agent>
      <dc:title>Matplotlib v3.10.3, https://matplotlib.org/</dc:title>
     </cc:Agent>
    </dc:creator>
   </cc:Work>
  </rdf:RDF>
 </metadata>
 <defs>
  <style type="text/css">*{stroke-linejoin: round; stroke-linecap: butt}</style>
 </defs>
 <g id="figure_1">
  <g id="patch_1">
   <path d="M 0 345.6 
L 460.8 345.6 
L 460.8 0 
L 0 0 
z
" style="fill: #ffffff"/>
  </g>
  <g id="axes_1">
   <g id="patch_2">
    <path d="M 57.17 303.64 
L 450 303.64 
L 450 26.88 
L 57.17 26.88 
z
" style="fill: #ffffff"/>
   </g>
   <g id="matplotlib.axis_1">
    <g id="xtick_1">
     <g id="line2d_1">
      <path d="M 75.180398 303.64 
L 75.180398 26.88 
" clip-path="url(#pdc93de50bc)" style="fill: none; stroke: #b0b0b0; stroke-opacity: 0.3; stroke-width: 0.8; stroke-linecap: square"/>
     </g>
     <g id="line2d_2">
      <defs>
       <path id="mbf6a6ca4f3" d="M 0 0 
L 0 3.5 
" style="stroke: #000000; stroke-width: 0.8"/>
      </defs>
      <g>
       <use xlink:href="#mbf6a6ca4f3" x="75.180398" y="303.64" style="stroke: #000000; stroke-width: 0.8"/>
      </g>
     </g>
     <g id="text_1">
      <!-- 0.000 -->
      <g transform="translate(60.866336 318.238437) scale(0.1 -0.1)">
       <defs>
        <path id="DejaVuSans-30" d="M 2034 4250 
Q 1547 4250 1301 3770 
Q 1056 3291 1056 2328 
Q 1056 1369 1301 889 
Q 1547 409 2034 409 
Q 2525 409 2770 889 
Q 3016 1369 3016 2328 
Q 3016 3291 2770 3770 
Q 2525 4250 2034 4250 
z
M 2034 4750 
Q 2819 4750 3233 4129 
Q 3647 3509 3647 2328 
Q 3647 1150 3233 529 
Q 2819 -91 2034 -91 
Q 1250 -91 836 529 
Q 422 1150 422 2328 
Q 422 3509 836 4129 
Q 1250 4750 2034 4750 
z
" transform="scale(0.015625)"/>
        <path id="DejaVuSans-2e" d="M 684 794 
L 1344 794 
L 1344 0 
L 684 0 
L 684 794 
z
" transform="scale(0.015625)"/>
       </defs>
       <use xlink:href="#DejaVuSans-30"/>
       <use xlink:href="#DejaVuSans-2e" transform="translate(63.623047 0)"/>
       <use xlink:href="#DejaVuSans-30" transform="translate(95.410156 0)"/>
       <use xlink:href="#DejaVuSans-30" transform="translate(159.033203 0)"/>
       <use xlink:href="#DejaVuSans-30" transform="translate(222.65625 0)"/>
      </g>
     </g>
    </g>
    <g id="xtick_2">
     <g id="line2d_3">
      <path d="M 125.132268 303.64 
L 125.132268 26.88 
" clip-path="url(#pdc93de50bc)" style="fill: none; stroke: #b0b0b0; stroke-opacity: 0.3; stroke-width: 0.8; stroke-linecap: square"/>
     </g>
     <g id="line2d_4">
      <g>
       <use xlink:href="#mbf6a6ca4f3" x="125.132268" y="303.64" style="stroke: #000000; stroke-width: 0.8"/>
      </g>
     </g>
     <g id="text_2">
      <!-- 0.025 -->
      <g transform="translate(110.818205 318.238437) scale(0.1 -0.1)">
       <defs>
        <path id="DejaVuSans-32" d="M 1228 531 
L 3431 531 
L 3431 0 
L 469 0 
L 469 531 
Q 828 903 1448 1529 
Q 2069 2156 2228 2338 
Q 2531 2678 2651 2914 
Q 2772 3150 2772 3378 
Q 2772 3750 2511 3984 
Q 2250 4219 1831 4219 
Q 1534 4219 1204 4116 
Q 875 4013 500 3803 
L 500 4441 
Q 881 4594 1212 4672 
Q 1544 4750 1819 4750 
Q 2544 4750 2975 4387 
Q 3406 4025 3406 3419 
Q 3406 3131 3298 2873 
Q 3191 2616 2906 2266 
Q 2828 2175 2409 1742 
Q 1991 1309 1228 531 
z
" transform="scale(0.015625)"/>
        <path id="DejaVuSans-35" d="M 691 4666 
L 3169 4666 
L 3169 4134 
L 1269 4134 
L 1269 2991 
Q 1406 3038 1543 3061 
Q 1681 3084 1819 3084 
Q 2600 3084 3056 2656 
Q 3513 2228 3513 1497 
Q 3513 744 3044 326 
Q 2575 -91 1722 -91 
Q 1428 -91 1123 -41 
Q 819 9 494 109 
L 494 744 
Q 775 591 1075 516 
Q 1375 441 1709 441 
Q 2250 441 2565 725 
Q 2881 1009 2881 1497 
Q 2881 1984 2565 2268 
Q 2250 2553 1709 2553 
Q 1456 2553 1204 2497 
Q 953 2441 691 2322 
L 691 4666 
z
" transform="scale(0.015625)"/>
       </defs>
       <use xlink:href="#DejaVuSans-30"/>
       <use xlink:href="#DejaVuSans-2e" transform="translate(63.623047 0)"/>
       <use xlink:href="#DejaVuSans-30" transform="translate(95.410156 0)"/>
       <use xlink:href="#DejaVuSans-32" transform="translate(159.033203 0)"/>
       <use xlink:href="#DejaVuSans-35" transform="translate(222.65625 0)"/>
      </g>
     </g>
    </g>
    <g id="xtick_3">
     <g id="line2d_5">
      <path d="M 175.084138 303.64 
L 175.084138 26.88 
" clip-path="url(#pdc93de50bc)" style="fill: none; stroke: #b0b0b0; stroke-opacity: 0.3; stroke-width: 0.8; stroke-linecap: square"/>
     </g>
     <g id="line2d_6">
      <g>
       <use xlink:href="#mbf6a6ca4f3" x="175.084138" y="303.64" style="stroke: #000000; stroke-width: 0.8"/>
      </g>
     </g>
     <g id="text_3">
      <!-- 0.050 -->
      <g transform="translate(160.770075 318.238437) scale(0.1 -0.1)">
       <use xlink:href="#DejaVuSans-30"/>
       <use xlink:href="#DejaVuSans-2e" transform="translate(63.623047 0)"/>
       <use xlink:href="#DejaVuSans-30" transform="translate(95.410156 0)"/>
       <use xlink:href="#DejaVuSans-35" transform="translate(159.033203 0)"/>
       <use xlink:href="#DejaVuSans-30" transform="translate(222.65625 0)"/>
      </g>
     </g>
    </g>
    <g id="xtick_4">
     <g id="line2d_7">
      <path d="M 225.036008 303.64 
L 225.036008 26.88 
" clip-path="url(#pdc93de50bc)" style="fill: none; stroke: #b0b0b0; stroke-opacity: 0.3; stroke-width: 0.8; stroke-linecap: square"/>
     </g>
     <g id="line2d_8">
      <g>
       <use xlink:href="#mbf6a6ca4f3" x="225.036008" y="303.64" style="stroke: #000000; stroke-width: 0.8"/>
      </g>
     </g>
     <g id="text_4">
      <!-- 0.075 -->
      <g transform="translate(210.721945 318.238437) scale(0.1 -0.1)">
       <defs>
        <path id="DejaVuSans-37" d="M 525 4666 
L 3525 4666 
L 3525 4397 
L 1831 0 
L 1172 0 
L 2766 4134 
L 525 4134 
L 525 4666 
z
" transform="scale(0.015625)"/>
       </defs>
       <use xlink:href="#DejaVuSans-30"/>
       <use xlink:href="#DejaVuSans-2e" transform="translate(63.623047 0)"/>
       <use xlink:href="#DejaVuSans-30" transform="translate(95.410156 0)"/>
       <use xlink:href="#DejaVuSans-37" transform="translate(159.033203 0)"/>
       <use xlink:href="#DejaVuSans-35" transform="translate(222.65625 0)"/>
      </g>
     </g>
    </g>
    <g id="xtick_5">
     <g id="line2d_9">
      <path d="M 274.987877 303.64 
L 274.987877 26.88 
" clip-path="url(#pdc93de50bc)" style="fill: none; stroke: #b0b0b0; stroke-opacity: 0.3; stroke-width: 0.8; stroke-linecap: square"/>
     </g>
     <g id="line2d_10">
      <g>
       <use xlink:href="#mbf6a6ca4f3" x="274.987877" y="303.64" style="stroke: #000000; stroke-width: 0.8"/>
      </g>
     </g>
     <g id="text_5">
      <!-- 0.100 -->
      <g transform="translate(260.673815 318.238437) scale(0.1 -0.1)">
       <defs>
        <path id="DejaVuSans-31" d="M 794 531 
L 1825 531 
L 1825 4091 
L 703 3866 
L 703 4441 
L 1819 4666 
L 2450 4666 
L 2450 531 
L 3481 531 
L 3481 0 
L 794 0 
L 794 531 
z
" transform="scale(0.015625)"/>
       </defs>
       <use xlink:href="#DejaVuSans-30"/>
       <use xlink:href="#DejaVuSans-2e" transform="translate(63.623047 0)"/>
       <use xlink:href="#DejaVuSans-31" transform="translate(95.410156 0)"/>
       <use xlink:href="#DejaVuSans-30" transform="translate(159.033203 0)"/>
       <use xlink:href="#DejaVuSans-30" transform="translate(222.65625 0)"/>
      </g>
     </g>
    </g>
    <g id="xtick_6">
     <g id="line2d_11">
      <path d="M 324.939747 303.64 
L 324.939747 26.88 
" clip-path="url(#pdc93de50bc)" style="fill: none; stroke: #b0b0b0; stroke-opacity: 0.3; stroke-width: 0.8; stroke-linecap: square"/>
     </g>
     <g id="line2d_12">
      <g>
       <use xlink:href="#mbf6a6ca4f3" x="324.939747" y="303.64" style="stroke: #000000; stroke-width: 0.8"/>
      </g>
     </g>
     <g id="text_6">
      <!-- 0.125 -->
      <g transform="translate(310.625685 318.238437) scale(0.1 -0.1)">
       <use xlink:href="#DejaVuSans-30"/>
       <use xlink:href="#DejaVuSans-2e" transform="translate(63.623047 0)"/>
       <use xlink:href="#DejaVuSans-31" transform="translate(95.410156 0)"/>
       <use xlink:href="#DejaVuSans-32" transform="translate(159.033203 0)"/>
       <use xlink:href="#DejaVuSans-35" transform="translate(222.65625 0)"/>
      </g>
     </g>
    </g>
    <g id="xtick_7">
     <g id="line2d_13">
      <path d="M 374.891617 303.64 
L 374.891617 26.88 
" clip-path="url(#pdc93de50bc)" style="fill: none; stroke: #b0b0b0; stroke-opacity: 0.3; stroke-width: 0.8; stroke-linecap: square"/>
     </g>
     <g id="line2d_14">
      <g>
       <use xlink:href="#mbf6a6ca4f3" x="374.891617" y="303.64" style="stroke: #000000; stroke-width: 0.8"/>
      </g>
     </g>
     <g id="text_7">
      <!-- 0.150 -->
      <g transform="translate(360.577555 318.238437) scale(0.1 -0.1)">
       <use xlink:href="#DejaVuSans-30"/>
       <use xlink:href="#DejaVuSans-2e" transform="translate(63.623047 0)"/>
       <use xlink:href="#DejaVuSans-31" transform="translate(95.410156 0)"/>
       <use xlink:href="#DejaVuSans-35" transform="translate(159.033203 0)"/>
       <use xlink:href="#DejaVuSans-30" transform="translate(222.65625 0)"/>
      </g>
     </g>
    </g>
    <g id="xtick_8">
     <g id="line2d_15">
      <path d="M 424.843487 303.64 
L 424.843487 26.88 
" clip-path="url(#pdc93de50bc)" style="fill: none; stroke: #b0b0b0; stroke-opacity: 0.3; stroke-width: 0.8; stroke-linecap: square"/>
     </g>
     <g id="line2d_16">
      <g>
       <use xlink:href="#mbf6a6ca4f3" x="424.843487" y="303.64" style="stroke: #000000; stroke-width: 0.8"/>
      </g>
     </g>
     <g id="text_8">
      <!-- 0.175 -->
      <g transform="translate(410.529424 318.238437) scale(0.1 -0.1)">
       <use xlink:href="#DejaVuSans-30"/>
       <use xlink:href="#DejaVuSans-2e" transform="translate(63.623047 0)"/>
       <use xlink:href="#DejaVuSans-31" transform="translate(95.410156 0)"/>
       <use xlink:href="#DejaVuSans-37" transform="translate(159.033203 0)"/>
       <use xlink:href="#DejaVuSans-35" transform="translate(222.65625 0)"/>
      </g>
     </g>
    </g>
    <g id="text_9">
     <!-- Strain [-] -->
     <g transform="translate(231.47875 331.916562) scale(0.1 -0.1)">
      <defs>
       <path id="DejaVuSans-53" d="M 3425 4513 
L 3425 3897 
Q 3066 4069 2747 4153 
Q 2428 4238 2131 4238 
Q 1616 4238 1336 4038 
Q 1056 3838 1056 3469 
Q 1056 3159 1242 3001 
Q 1428 2844 1947 2747 
L 2328 2669 
Q 3034 2534 3370 2195 
Q 3706 1856 3706 1288 
Q 3706 609 3251 259 
Q 2797 -91 1919 -91 
Q 1588 -91 1214 -16 
Q 841 59 441 206 
L 441 856 
Q 825 641 1194 531 
Q 1563 422 1919 422 
Q 2459 422 2753 634 
Q 3047 847 3047 1241 
Q 3047 1584 2836 1778 
Q 2625 1972 2144 2069 
L 1759 2144 
Q 1053 2284 737 2584 
Q 422 2884 422 3419 
Q 422 4038 858 4394 
Q 1294 4750 2059 4750 
Q 2388 4750 2728 4690 
Q 3069 4631 3425 4513 
z
" transform="scale(0.015625)"/>
       <path id="DejaVuSans-74" d="M 1172 4494 
L 1172 3500 
L 2356 3500 
L 2356 3053 
L 1172 3053 
L 1172 1153 
Q 1172 725 1289 603 
Q 1406 481 1766 481 
L 2356 481 
L 2356 0 
L 1766 0 
Q 1100 0 847 248 
Q 594 497 594 1153 
L 594 3053 
L 172 3053 
L 172 3500 
L 594 3500 
L 594 4494 
L 1172 4494 
z
" transform="scale(0.015625)"/>
       <path id="DejaVuSans-72" d="M 2631 2963 
Q 2534 3019 2420 3045 
Q 2306 3072 2169 3072 
Q 1681 3072 1420 2755 
Q 1159 2438 1159 1844 
L 1159 0 
L 581 0 
L 581 3500 
L 1159 3500 
L 1159 2956 
Q 1341 3275 1631 3429 
Q 1922 3584 2338 3584 
Q 2397 3584 2469 3576 
Q 2541 3569 2628 3553 
L 2631 2963 
z
" transform="scale(0.015625)"/>
       <path id="DejaVuSans-61" d="M 2194 1759 
Q 1497 1759 1228 1600 
Q 959 1441 959 1056 
Q 959 750 1161 570 
Q 1363 391 1709 391 
Q 2188 391 2477 730 
Q 2766 1069 2766 1631 
L 2766 1759 
L 2194 1759 
z
M 3341 1997 
L 3341 0 
L 2766 0 
L 2766 531 
Q 2569 213 2275 61 
Q 1981 -91 1556 -91 
Q 1019 -91 701 211 
Q 384 513 384 1019 
Q 384 1609 779 1909 
Q 1175 2209 1959 2209 
L 2766 2209 
L 2766 2266 
Q 2766 2663 2505 2880 
Q 2244 3097 1772 3097 
Q 1472 3097 1187 3025 
Q 903 2953 641 2809 
L 641 3341 
Q 956 3463 1253 3523 
Q 1550 3584 1831 3584 
Q 2591 3584 2966 3190 
Q 3341 2797 3341 1997 
z
" transform="scale(0.015625)"/>
       <path id="DejaVuSans-69" d="M 603 3500 
L 1178 3500 
L 1178 0 
L 603 0 
L 603 3500 
z
M 603 4863 
L 1178 4863 
L 1178 4134 
L 603 4134 
L 603 4863 
z
" transform="scale(0.015625)"/>
       <path id="DejaVuSans-6e" d="M 3513 2113 
L 3513 0 
L 2938 0 
L 2938 2094 
Q 2938 2591 2744 2837 
Q 2550 3084 2163 3084 
Q 1697 3084 1428 2787 
Q 1159 2491 1159 1978 
L 1159 0 
L 581 0 
L 581 3500 
L 1159 3500 
L 1159 2956 
Q 1366 3272 1645 3428 
Q 1925 3584 2291 3584 
Q 2894 3584 3203 3211 
Q 3513 2838 3513 2113 
z
" transform="scale(0.015625)"/>
       <path id="DejaVuSans-20" transform="scale(0.015625)"/>
       <path id="DejaVuSans-5b" d="M 550 4863 
L 1875 4863 
L 1875 4416 
L 1125 4416 
L 1125 -397 
L 1875 -397 
L 1875 -844 
L 550 -844 
L 550 4863 
z
" transform="scale(0.015625)"/>
       <path id="DejaVuSans-2d" d="M 313 2009 
L 1997 2009 
L 1997 1497 
L 313 1497 
L 313 2009 
z
" transform="scale(0.015625)"/>
       <path id="DejaVuSans-5d" d="M 1947 4863 
L 1947 -844 
L 622 -844 
L 622 -397 
L 1369 -397 
L 1369 4416 
L 622 4416 
L 622 4863 
L 1947 4863 
z
" transform="scale(0.015625)"/>
      </defs>
      <use xlink:href="#DejaVuSans-53"/>
      <use xlink:href="#DejaVuSans-74" transform="translate(63.476562 0)"/>
      <use xlink:href="#DejaVuSans-72" transform="translate(102.685547 0)"/>
      <use xlink:href="#DejaVuSans-61" transform="translate(143.798828 0)"/>
      <use xlink:href="#DejaVuSans-69" transform="translate(205.078125 0)"/>
      <use xlink:href="#DejaVuSans-6e" transform="translate(232.861328 0)"/>
      <use xlink:href="#DejaVuSans-20" transform="translate(296.240234 0)"/>
      <use xlink:href="#DejaVuSans-5b" transform="translate(328.027344 0)"/>
      <use xlink:href="#DejaVuSans-2d" transform="translate(367.041016 0)"/>
      <use xlink:href="#DejaVuSans-5d" transform="translate(403.125 0)"/>
     </g>
    </g>
   </g>
   <g id="matplotlib.axis_2">
    <g id="ytick_1">
     <g id="line2d_17">
      <path d="M 57.17 274.511142 
L 450 274.511142 
" clip-path="url(#pdc93de50bc)" style="fill: none; stroke: #b0b0b0; stroke-opacity: 0.3; stroke-width: 0.8; stroke-linecap: square"/>
     </g>
     <g id="line2d_18">
      <defs>
       <path id="m38697eeb16" d="M 0 0 
L -3.5 0 
" style="stroke: #000000; stroke-width: 0.8"/>
      </defs>
      <g>
       <use xlink:href="#m38697eeb16" x="57.17" y="274.511142" style="stroke: #000000; stroke-width: 0.8"/>
      </g>
     </g>
     <g id="text_10">
      <!-- 0 -->
      <g transform="translate(43.8075 278.31036) scale(0.1 -0.1)">
       <use xlink:href="#DejaVuSans-30"/>
      </g>
     </g>
    </g>
    <g id="ytick_2">
     <g id="line2d_19">
      <path d="M 57.17 237.314998 
L 450 237.314998 
" clip-path="url(#pdc93de50bc)" style="fill: none; stroke: #b0b0b0; stroke-opacity: 0.3; stroke-width: 0.8; stroke-linecap: square"/>
     </g>
     <g id="line2d_20">
      <g>
       <use xlink:href="#m38697eeb16" x="57.17" y="237.314998" style="stroke: #000000; stroke-width: 0.8"/>
      </g>
     </g>
     <g id="text_11">
      <!-- 250 -->
      <g transform="translate(31.0825 241.114216) scale(0.1 -0.1)">
       <use xlink:href="#DejaVuSans-32"/>
       <use xlink:href="#DejaVuSans-35" transform="translate(63.623047 0)"/>
       <use xlink:href="#DejaVuSans-30" transform="translate(127.246094 0)"/>
      </g>
     </g>
    </g>
    <g id="ytick_3">
     <g id="line2d_21">
      <path d="M 57.17 200.118854 
L 450 200.118854 
" clip-path="url(#pdc93de50bc)" style="fill: none; stroke: #b0b0b0; stroke-opacity: 0.3; stroke-width: 0.8; stroke-linecap: square"/>
     </g>
     <g id="line2d_22">
      <g>
       <use xlink:href="#m38697eeb16" x="57.17" y="200.118854" style="stroke: #000000; stroke-width: 0.8"/>
      </g>
     </g>
     <g id="text_12">
      <!-- 500 -->
      <g transform="translate(31.0825 203.918072) scale(0.1 -0.1)">
       <use xlink:href="#DejaVuSans-35"/>
       <use xlink:href="#DejaVuSans-30" transform="translate(63.623047 0)"/>
       <use xlink:href="#DejaVuSans-30" transform="translate(127.246094 0)"/>
      </g>
     </g>
    </g>
    <g id="ytick_4">
     <g id="line2d_23">
      <path d="M 57.17 162.92271 
L 450 162.92271 
" clip-path="url(#pdc93de50bc)" style="fill: none; stroke: #b0b0b0; stroke-opacity: 0.3; stroke-width: 0.8; stroke-linecap: square"/>
     </g>
     <g id="line2d_24">
      <g>
       <use xlink:href="#m38697eeb16" x="57.17" y="162.92271" style="stroke: #000000; stroke-width: 0.8"/>
      </g>
     </g>
     <g id="text_13">
      <!-- 750 -->
      <g transform="translate(31.0825 166.721928) scale(0.1 -0.1)">
       <use xlink:href="#DejaVuSans-37"/>
       <use xlink:href="#DejaVuSans-35" transform="translate(63.623047 0)"/>
       <use xlink:href="#DejaVuSans-30" transform="translate(127.246094 0)"/>
      </g>
     </g>
    </g>
    <g id="ytick_5">
     <g id="line2d_25">
      <path d="M 57.17 125.726566 
L 450 125.726566 
" clip-path="url(#pdc93de50bc)" style="fill: none; stroke: #b0b0b0; stroke-opacity: 0.3; stroke-width: 0.8; stroke-linecap: square"/>
     </g>
     <g id="line2d_26">
      <g>
       <use xlink:href="#m38697eeb16" x="57.17" y="125.726566" style="stroke: #000000; stroke-width: 0.8"/>
      </g>
     </g>
     <g id="text_14">
      <!-- 1000 -->
      <g transform="translate(24.72 129.525785) scale(0.1 -0.1)">
       <use xlink:href="#DejaVuSans-31"/>
       <use xlink:href="#DejaVuSans-30" transform="translate(63.623047 0)"/>
       <use xlink:href="#DejaVuSans-30" transform="translate(127.246094 0)"/>
       <use xlink:href="#DejaVuSans-30" transform="translate(190.869141 0)"/>
      </g>
     </g>
    </g>
    <g id="ytick_6">
     <g id="line2d_27">
      <path d="M 57.17 88.530422 
L 450 88.530422 
" clip-path="url(#pdc93de50bc)" style="fill: none; stroke: #b0b0b0; stroke-opacity: 0.3; stroke-width: 0.8; stroke-linecap: square"/>
     </g>
     <g id="line2d_28">
      <g>
       <use xlink:href="#m38697eeb16" x="57.17" y="88.530422" style="stroke: #000000; stroke-width: 0.8"/>
      </g>
     </g>
     <g id="text_15">
      <!-- 1250 -->
      <g transform="translate(24.72 92.329641) scale(0.1 -0.1)">
       <use xlink:href="#DejaVuSans-31"/>
       <use xlink:href="#DejaVuSans-32" transform="translate(63.623047 0)"/>
       <use xlink:href="#DejaVuSans-35" transform="translate(127.246094 0)"/>
       <use xlink:href="#DejaVuSans-30" transform="translate(190.869141 0)"/>
      </g>
     </g>
    </g>
    <g id="ytick_7">
     <g id="line2d_29">
      <path d="M 57.17 51.334278 
L 450 51.334278 
" clip-path="url(#pdc93de50bc)" style="fill: none; stroke: #b0b0b0; stroke-opacity: 0.3; stroke-width: 0.8; stroke-linecap: square"/>
     </g>
     <g id="line2d_30">
      <g>
       <use xlink:href="#m38697eeb16" x="57.17" y="51.334278" style="stroke: #000000; stroke-width: 0.8"/>
      </g>
     </g>
     <g id="text_16">
      <!-- 1500 -->
      <g transform="translate(24.72 55.133497) scale(0.1 -0.1)">
       <use xlink:href="#DejaVuSans-31"/>
       <use xlink:href="#DejaVuSans-35" transform="translate(63.623047 0)"/>
       <use xlink:href="#DejaVuSans-30" transform="translate(127.246094 0)"/>
       <use xlink:href="#DejaVuSans-30" transform="translate(190.869141 0)"/>
      </g>
     </g>
    </g>
    <g id="text_17">
     <!-- Stress [Pa] -->
     <g transform="translate(18.640312 191.967812) rotate(-90) scale(0.1 -0.1)">
      <defs>
       <path id="DejaVuSans-65" d="M 3597 1894 
L 3597 1613 
L 953 1613 
Q 991 1019 1311 708 
Q 1631 397 2203 397 
Q 2534 397 2845 478 
Q 3156 559 3463 722 
L 3463 178 
Q 3153 47 2828 -22 
Q 2503 -91 2169 -91 
Q 1331 -91 842 396 
Q 353 884 353 1716 
Q 353 2575 817 3079 
Q 1281 3584 2069 3584 
Q 2775 3584 3186 3129 
Q 3597 2675 3597 1894 
z
M 3022 2063 
Q 3016 2534 2758 2815 
Q 2500 3097 2075 3097 
Q 1594 3097 1305 2825 
Q 1016 2553 972 2059 
L 3022 2063 
z
" transform="scale(0.015625)"/>
       <path id="DejaVuSans-73" d="M 2834 3397 
L 2834 2853 
Q 2591 2978 2328 3040 
Q 2066 3103 1784 3103 
Q 1356 3103 1142 2972 
Q 928 2841 928 2578 
Q 928 2378 1081 2264 
Q 1234 2150 1697 2047 
L 1894 2003 
Q 2506 1872 2764 1633 
Q 3022 1394 3022 966 
Q 3022 478 2636 193 
Q 2250 -91 1575 -91 
Q 1294 -91 989 -36 
Q 684 19 347 128 
L 347 722 
Q 666 556 975 473 
Q 1284 391 1588 391 
Q 1994 391 2212 530 
Q 2431 669 2431 922 
Q 2431 1156 2273 1281 
Q 2116 1406 1581 1522 
L 1381 1569 
Q 847 1681 609 1914 
Q 372 2147 372 2553 
Q 372 3047 722 3315 
Q 1072 3584 1716 3584 
Q 2034 3584 2315 3537 
Q 2597 3491 2834 3397 
z
" transform="scale(0.015625)"/>
       <path id="DejaVuSans-50" d="M 1259 4147 
L 1259 2394 
L 2053 2394 
Q 2494 2394 2734 2622 
Q 2975 2850 2975 3272 
Q 2975 3691 2734 3919 
Q 2494 4147 2053 4147 
L 1259 4147 
z
M 628 4666 
L 2053 4666 
Q 2838 4666 3239 4311 
Q 3641 3956 3641 3272 
Q 3641 2581 3239 2228 
Q 2838 1875 2053 1875 
L 1259 1875 
L 1259 0 
L 628 0 
L 628 4666 
z
" transform="scale(0.015625)"/>
      </defs>
      <use xlink:href="#DejaVuSans-53"/>
      <use xlink:href="#DejaVuSans-74" transform="translate(63.476562 0)"/>
      <use xlink:href="#DejaVuSans-72" transform="translate(102.685547 0)"/>
      <use xlink:href="#DejaVuSans-65" transform="translate(141.548828 0)"/>
      <use xlink:href="#DejaVuSans-73" transform="translate(203.072266 0)"/>
      <use xlink:href="#DejaVuSans-73" transform="translate(255.171875 0)"/>
      <use xlink:href="#DejaVuSans-20" transform="translate(307.271484 0)"/>
      <use xlink:href="#DejaVuSans-5b" transform="translate(339.058594 0)"/>
      <use xlink:href="#DejaVuSans-50" transform="translate(378.072266 0)"/>
      <use xlink:href="#DejaVuSans-61" transform="translate(433.875 0)"/>
      <use xlink:href="#DejaVuSans-5d" transform="translate(495.154297 0)"/>
     </g>
    </g>
   </g>
   <g id="line2d_31">
    <path d="M 75.180398 274.854866 
L 75.180682 274.996382 
L 75.180352 274.733832 
L 75.222475 274.790323 
L 76.674628 268.870583 
L 77.461332 268.915905 
L 78.269269 269.093118 
L 78.986831 268.391169 
L 80.558607 266.051965 
L 81.406288 265.208246 
L 82.176115 265.05812 
L 82.998208 265.190402 
L 83.86821 265.563332 
L 86.109093 267.069481 
L 86.887631 267.57383 
L 89.248288 269.442559 
L 90.025738 270.003992 
L 90.791209 270.356535 
L 91.542526 270.281749 
L 92.280776 269.743526 
L 94.61748 267.219268 
L 95.503815 266.71931 
L 96.384706 266.736678 
L 97.255798 266.911538 
L 98.947893 267.650969 
L 99.756919 267.493948 
L 100.539813 266.847828 
L 102.043534 265.118988 
L 104.206019 262.646797 
L 105.77725 261.061608 
L 106.49699 260.580782 
L 107.948446 260.174292 
L 110.860069 259.748943 
L 113.153215 258.81301 
L 114.850755 257.865787 
L 116.541761 256.805022 
L 118.232768 255.93621 
L 121.635469 254.047095 
L 124.780109 252.591131 
L 129.087656 250.506297 
L 130.528224 249.910676 
L 131.968791 249.233191 
L 134.842304 248.06453 
L 137.707106 246.483106 
L 141.296003 244.727919 
L 143.45631 243.446971 
L 147.796523 241.082362 
L 149.249137 240.462744 
L 151.418154 239.59801 
L 161.241889 234.022877 
L 162.953583 233.061536 
L 165.833629 231.322346 
L 174.581566 227.130096 
L 178.893468 224.643791 
L 188.916465 218.536707 
L 194.699423 215.524724 
L 205.091545 209.202162 
L 211.904569 205.071388 
L 214.763927 203.733356 
L 219.030097 201.336441 
L 223.243339 198.699794 
L 226.576353 196.383801 
L 228.239048 195.124809 
L 229.908822 193.947366 
L 232.431721 192.423966 
L 242.240211 186.636487 
L 243.94755 185.731293 
L 248.188677 182.781098 
L 253.272584 179.699798 
L 254.964679 178.70145 
L 255.808549 178.091714 
L 257.498467 176.610657 
L 259.202539 175.450778 
L 261.491332 174.038725 
L 270.89912 167.925368 
L 276.079937 164.637686 
L 282.025136 160.188244 
L 285.164332 157.818303 
L 286.602722 156.988698 
L 291.669208 153.603157 
L 293.122791 152.751165 
L 297.449938 149.770861 
L 300.589133 147.452358 
L 303.733774 144.908654 
L 308.06201 141.920822 
L 310.235383 140.269767 
L 313.866745 137.857797 
L 317.475242 135.278337 
L 318.903832 134.161115 
L 322.314155 131.257341 
L 329.906806 125.435993 
L 337.877293 119.75265 
L 339.316772 118.640446 
L 340.746451 117.590345 
L 344.9756 114.09189 
L 348.323858 111.162397 
L 353.374011 107.161465 
L 355.917598 105.277054 
L 361.008039 101.455539 
L 366.060641 97.182408 
L 371.11515 92.802596 
L 379.549493 85.822623 
L 385.556757 80.678759 
L 387.257564 79.079143 
L 389.79244 76.842817 
L 391.476913 75.108331 
L 394.016145 72.900233 
L 395.713684 71.5346 
L 401.534753 66.208191 
L 404.104473 63.967474 
L 407.524596 60.782042 
L 410.088871 58.218265 
L 417.37664 51.412055 
L 418.946783 50.122325 
L 424.574034 46.734902 
L 427.661509 44.88217 
L 429.156519 43.74707 
L 429.873264 43.088404 
L 430.617775 41.906257 
L 431.835296 39.644976 
L 432.144091 41.327709 
L 431.976542 64.479449 
L 431.978073 64.421404 
L 431.981136 72.397177 
L 431.969668 71.943796 
L 431.253162 72.264366 
L 430.524099 74.133878 
L 429.802862 75.592038 
L 428.32854 75.449661 
L 426.846426 76.119794 
L 426.115525 76.480178 
L 425.397964 76.614205 
L 423.942424 77.567996 
L 423.210163 79.442369 
L 422.489063 80.775069 
L 421.010657 82.888601 
L 419.573084 82.99983 
L 418.837012 83.283605 
L 417.401888 84.741294 
L 416.660508 85.056532 
L 415.944852 87.281881 
L 415.201157 88.684525 
L 414.465085 89.317314 
L 411.548018 91.237951 
L 410.833995 92.0249 
L 409.374236 94.019245 
L 407.186027 96.237458 
L 406.462783 96.499376 
L 405.73651 97.116012 
L 404.27961 98.613535 
L 403.530199 99.154268 
L 402.786777 100.091769 
L 400.623612 101.996645 
L 399.897747 102.949985 
L 398.424378 104.403597 
L 396.254543 106.078019 
L 391.115104 110.953869 
L 390.389103 111.445751 
L 386.727117 115.095689 
L 384.55456 116.677349 
L 383.071527 118.232113 
L 377.218064 123.289096 
L 376.4775 123.827163 
L 375.011344 125.280304 
L 373.56996 126.530985 
L 372.82436 127.3275 
L 371.385698 128.435704 
L 369.943702 129.633878 
L 369.197557 130.231068 
L 368.459035 131.010489 
L 364.853805 133.655266 
L 363.3754 135.04505 
L 361.929116 136.086369 
L 361.21101 136.587582 
L 360.477677 137.264439 
L 359.010704 138.855901 
L 358.296953 139.488376 
L 356.08792 140.883022 
L 354.617409 141.959627 
L 353.889094 142.733088 
L 351.68804 144.450627 
L 350.966395 145.11039 
L 348.073555 147.220864 
L 345.137705 149.87262 
L 342.161566 151.913778 
L 340.665739 153.122586 
L 337.74976 155.095368 
L 335.553793 156.908893 
L 334.065962 158.10194 
L 331.881972 159.39465 
L 329.699752 161.104671 
L 328.967082 161.735108 
L 326.028782 163.769757 
L 323.824648 165.378312 
L 317.930898 169.650778 
L 315.765129 170.910975 
L 312.097834 173.695249 
L 309.914389 175.0768 
L 306.263971 177.745414 
L 304.76896 178.539969 
L 304.028533 178.973277 
L 303.289466 179.543336 
L 299.655109 181.750179 
L 298.197256 182.909773 
L 296.714903 183.939958 
L 295.260453 184.702677 
L 293.041619 186.3444 
L 291.60949 187.304327 
L 290.892201 187.589357 
L 290.147146 188.011295 
L 287.201495 190.187008 
L 285.734523 190.879156 
L 284.99219 191.346181 
L 282.822627 193.140961 
L 279.875089 194.551064 
L 279.142555 195.175698 
L 276.94441 196.541175 
L 275.497037 197.28825 
L 274.054564 198.346977 
L 272.590858 199.227001 
L 271.101564 200.027436 
L 266.7736 203.035107 
L 261.678447 205.892005 
L 260.241146 206.512366 
L 255.873303 209.208896 
L 254.431646 210.066337 
L 253.687408 210.650824 
L 252.939358 211.031204 
L 252.191308 211.275498 
L 251.451697 211.646938 
L 249.984316 212.672575 
L 248.51081 213.492221 
L 246.325732 214.47622 
L 242.676862 216.801403 
L 241.188657 217.553771 
L 239.727401 218.250545 
L 238.981529 218.655938 
L 236.752896 220.224895 
L 233.146577 221.966085 
L 231.688043 222.959102 
L 230.965037 223.2793 
L 230.236859 223.470038 
L 228.799558 224.272865 
L 228.061036 224.638042 
L 226.607674 225.827953 
L 222.938746 227.469834 
L 220.794228 228.844563 
L 219.334605 229.490368 
L 214.936401 231.902221 
L 213.449421 232.51231 
L 211.29238 233.90727 
L 207.61287 235.768723 
L 206.163863 236.497254 
L 203.228285 237.883313 
L 201.774107 238.909342 
L 201.049195 239.33371 
L 200.318295 239.570526 
L 196.619151 241.478147 
L 195.158984 241.871523 
L 192.949542 242.990314 
L 192.224188 243.224532 
L 191.495193 243.581858 
L 190.775726 243.789063 
L 190.035707 244.196416 
L 188.576492 245.295212 
L 187.119048 245.967678 
L 184.915458 246.928624 
L 183.44413 247.767717 
L 182.000568 248.502952 
L 181.272663 248.649733 
L 179.065943 249.642671 
L 176.870248 250.981213 
L 174.662303 251.910304 
L 170.982274 253.6476 
L 169.522106 254.445291 
L 165.871961 256.054121 
L 163.659389 257.300724 
L 162.187788 257.59928 
L 160.739599 258.298484 
L 160.016321 258.632914 
L 159.293995 259.089746 
L 157.076523 259.848348 
L 153.394188 261.729049 
L 152.669276 261.932519 
L 148.256654 263.947017 
L 147.522759 264.116427 
L 146.803564 264.420197 
L 143.862818 266.114457 
L 141.686042 266.638557 
L 137.289242 268.451209 
L 135.835608 269.180211 
L 135.098175 269.651157 
L 132.904113 270.183716 
L 130.719987 271.502772 
L 129.267442 272.069185 
L 128.539809 272.247025 
L 127.081275 272.968616 
L 125.619474 273.87287 
L 124.89048 274.181972 
L 123.446101 274.612633 
L 121.982395 275.250363 
L 120.521433 275.683647 
L 118.32601 276.490804 
L 117.604774 276.874555 
L 114.703494 277.808605 
L 111.770502 279.164437 
L 107.390543 280.646719 
L 103.745298 282.174352 
L 102.279744 282.671863 
L 98.622793 284.076193 
L 97.177325 284.512441 
L 95.688031 285.073855 
L 94.214389 285.515102 
L 92.754631 286.126955 
L 84.749638 288.920612 
L 84.030443 289.082985 
L 82.584975 289.588031 
L 81.136513 289.975261 
L 79.705473 290.467065 
L 78.244762 290.801338 
L 77.513454 290.820594 
L 76.797525 290.640363 
L 75.34743 290.688717 
L 75.188388 291.06 
L 75.026022 289.724731 
L 75.026022 289.724731 
" clip-path="url(#pdc93de50bc)" style="fill: none; stroke: #ff0000; stroke-width: 2; stroke-linecap: square"/>
   </g>
   <g id="line2d_32">
    <path d="M 75.180398 274.854866 
L 75.180682 274.996382 
L 75.180352 274.733832 
L 75.222475 274.790323 
L 76.674628 268.870583 
L 77.461332 268.915905 
L 78.269269 269.093118 
L 78.986831 268.391169 
L 80.558607 266.051965 
L 81.406288 274.223798 
L 82.998208 273.502751 
L 86.109093 272.754695 
L 87.674879 272.762222 
L 88.462128 272.520712 
L 89.248288 272.154995 
L 90.025738 271.979978 
L 90.791209 271.573488 
L 91.542526 270.782325 
L 92.280776 269.743526 
L 94.61748 267.219268 
L 95.503815 266.71931 
L 96.384706 266.736678 
L 97.255798 266.911538 
L 98.947893 267.650969 
L 99.756919 267.493948 
L 100.539813 266.847828 
L 102.043534 265.118988 
L 104.206019 262.646797 
L 105.77725 261.061608 
L 106.49699 260.580782 
L 107.948446 260.174292 
L 110.860069 259.748943 
L 113.153215 258.81301 
L 114.850755 257.865787 
L 116.541761 256.805022 
L 118.232768 255.93621 
L 121.635469 254.047095 
L 124.780109 252.591131 
L 129.087656 250.506297 
L 130.528224 249.910676 
L 131.968791 249.233191 
L 134.842304 248.06453 
L 137.707106 246.483106 
L 141.296003 244.727919 
L 143.45631 243.446971 
L 147.796523 241.082362 
L 149.249137 240.462744 
L 151.418154 239.59801 
L 161.241889 234.022877 
L 162.953583 233.061536 
L 165.833629 231.322346 
L 174.581566 227.130096 
L 178.893468 224.643791 
L 188.916465 218.536707 
L 194.699423 215.524724 
L 205.091545 209.202162 
L 211.904569 205.071388 
L 214.763927 203.733356 
L 219.030097 201.336441 
L 223.243339 198.699794 
L 226.576353 196.383801 
L 228.239048 195.124809 
L 229.908822 193.947366 
L 232.431721 192.423966 
L 242.240211 186.636487 
L 243.94755 185.731293 
L 248.188677 182.781098 
L 253.272584 179.699798 
L 254.964679 178.70145 
L 255.808549 178.091714 
L 257.498467 176.610657 
L 259.202539 175.450778 
L 261.491332 174.038725 
L 270.89912 167.925368 
L 276.079937 164.637686 
L 282.025136 160.188244 
L 285.164332 157.818303 
L 286.602722 156.988698 
L 291.669208 153.603157 
L 293.122791 152.751165 
L 297.449938 149.770861 
L 300.589133 147.452358 
L 303.733774 144.908654 
L 308.06201 141.920822 
L 310.235383 140.269767 
L 313.866745 137.857797 
L 317.475242 135.278337 
L 318.903832 134.161115 
L 322.314155 131.257341 
L 329.906806 125.435993 
L 337.877293 119.75265 
L 339.316772 118.640446 
L 340.746451 117.590345 
L 344.9756 114.09189 
L 348.323858 111.162397 
L 353.374011 107.161465 
L 355.917598 105.277054 
L 361.008039 101.455539 
L 366.060641 97.182408 
L 371.11515 92.802596 
L 379.549493 85.822623 
L 385.556757 80.678759 
L 387.257564 79.079143 
L 389.79244 76.842817 
L 391.476913 75.108331 
L 394.016145 72.900233 
L 395.713684 71.5346 
L 401.534753 66.208191 
L 404.104473 63.967474 
L 407.524596 60.759468 
L 410.088871 58.117768 
L 413.801899 54.549046 
L 416.661257 51.304412 
L 419.797186 47.862885 
L 421.465326 46.25135 
L 423.833062 43.841575 
L 426.175753 41.669077 
L 427.661509 40.528067 
L 429.156519 39.767269 
L 429.873264 39.747353 
L 431.337106 40.2775 
L 431.835296 39.46 
L 432.144091 41.238779 
L 431.97889 64.223236 
L 431.978243 64.18601 
L 431.981136 72.397177 
L 431.969668 71.943796 
L 431.253162 72.264366 
L 430.524099 74.133878 
L 429.802862 75.592038 
L 428.32854 75.449661 
L 426.846426 76.119794 
L 426.115525 76.480178 
L 425.397964 76.614205 
L 423.942424 77.567996 
L 423.210163 79.442369 
L 422.489063 80.775069 
L 421.010657 82.888601 
L 419.573084 82.99983 
L 418.837012 83.283605 
L 417.401888 84.741294 
L 416.660508 85.056532 
L 415.944852 87.281881 
L 415.201157 88.684525 
L 414.465085 89.317314 
L 411.548018 91.237951 
L 410.833995 92.0249 
L 409.374236 94.019245 
L 407.186027 96.237458 
L 406.462783 96.499376 
L 405.73651 97.116012 
L 404.27961 98.613535 
L 403.530199 99.154268 
L 402.786777 100.091769 
L 400.623612 101.996645 
L 399.897747 102.949985 
L 398.424378 104.403597 
L 396.254543 106.078019 
L 391.115104 110.953869 
L 390.389103 111.445751 
L 386.727117 115.095689 
L 384.55456 116.677349 
L 383.071527 118.232113 
L 377.218064 123.289096 
L 376.4775 123.827163 
L 375.011344 125.280304 
L 373.56996 126.530985 
L 372.82436 127.3275 
L 371.385698 128.435704 
L 369.943702 129.633878 
L 369.197557 130.231068 
L 368.459035 131.010489 
L 364.853805 133.655266 
L 363.3754 135.04505 
L 361.929116 136.086369 
L 361.21101 136.587582 
L 360.477677 137.264439 
L 359.010704 138.855901 
L 358.296953 139.488376 
L 356.08792 140.883022 
L 354.617409 141.959627 
L 353.889094 142.733088 
L 351.68804 144.450627 
L 350.966395 145.11039 
L 348.073555 147.220864 
L 345.137705 149.87262 
L 342.161566 151.913778 
L 340.665739 153.122586 
L 337.74976 155.095368 
L 335.553793 156.908893 
L 334.065962 158.10194 
L 331.881972 159.39465 
L 329.699752 161.104671 
L 328.967082 161.735108 
L 326.028782 163.769757 
L 323.824648 165.378312 
L 317.930898 169.650778 
L 315.765129 170.910975 
L 312.097834 173.695249 
L 309.914389 175.0768 
L 306.263971 177.745414 
L 304.76896 178.539969 
L 304.028533 178.973277 
L 303.289466 179.543336 
L 299.655109 181.750179 
L 298.197256 182.909773 
L 296.714903 183.939958 
L 295.260453 184.702677 
L 293.041619 186.3444 
L 291.60949 187.304327 
L 290.892201 187.589357 
L 290.147146 188.011295 
L 287.201495 190.187008 
L 285.734523 190.879156 
L 284.99219 191.346181 
L 282.822627 193.140961 
L 279.875089 194.551064 
L 279.142555 195.175698 
L 276.94441 196.541175 
L 275.497037 197.28825 
L 274.054564 198.346977 
L 272.590858 199.227001 
L 271.101564 200.027436 
L 266.7736 203.035107 
L 261.678447 205.892005 
L 260.241146 206.512366 
L 255.873303 209.208896 
L 254.431646 210.066337 
L 253.687408 210.650824 
L 252.939358 211.031204 
L 252.191308 211.275498 
L 251.451697 211.646938 
L 249.984316 212.672575 
L 248.51081 213.492221 
L 246.325732 214.47622 
L 242.676862 216.801403 
L 241.188657 217.553771 
L 239.727401 218.250545 
L 238.981529 218.655938 
L 236.752896 220.224895 
L 233.146577 221.966085 
L 231.688043 222.959102 
L 230.965037 223.2793 
L 230.236859 223.470038 
L 228.799558 224.272865 
L 228.061036 224.638042 
L 226.607674 225.827953 
L 222.938746 227.469834 
L 220.794228 228.844563 
L 219.334605 229.490368 
L 214.936401 231.902221 
L 213.449421 232.51231 
L 211.29238 233.90727 
L 207.61287 235.768723 
L 206.163863 236.497254 
L 203.228285 237.883313 
L 201.774107 238.909342 
L 201.049195 239.33371 
L 200.318295 239.570526 
L 196.619151 241.478147 
L 195.158984 241.871523 
L 192.949542 242.990314 
L 192.224188 243.224532 
L 191.495193 243.581858 
L 190.775726 243.789063 
L 190.035707 244.196416 
L 188.576492 245.295212 
L 187.119048 245.967678 
L 184.915458 246.928624 
L 183.44413 247.767717 
L 182.000568 248.502952 
L 181.272663 248.649733 
L 179.065943 249.642671 
L 176.870248 250.981213 
L 174.662303 251.910304 
L 170.982274 253.6476 
L 169.522106 254.445291 
L 165.871961 256.054121 
L 163.659389 257.300724 
L 162.187788 257.59928 
L 160.739599 258.298484 
L 160.016321 258.632914 
L 159.293995 259.089746 
L 157.076523 259.848348 
L 153.394188 261.729049 
L 152.669276 261.932519 
L 148.256654 263.947017 
L 147.522759 264.116427 
L 146.803564 264.420197 
L 143.862818 266.114457 
L 141.686042 266.638557 
L 137.289242 268.451209 
L 135.835608 269.180211 
L 135.098175 269.651157 
L 132.904113 270.183716 
L 130.719987 271.502772 
L 129.267442 272.069185 
L 128.539809 272.247025 
L 127.081275 272.968616 
L 125.619474 273.87287 
L 124.89048 274.181972 
L 123.446101 274.612633 
L 121.982395 275.250363 
L 120.521433 275.683647 
L 118.32601 276.490804 
L 117.604774 276.874555 
L 114.703494 277.808605 
L 111.770502 279.164437 
L 107.390543 280.646719 
L 103.745298 282.174352 
L 102.279744 282.671863 
L 98.622793 284.076193 
L 97.177325 284.512441 
L 95.688031 285.073855 
L 94.214389 285.515102 
L 92.754631 286.126955 
L 84.749638 288.920612 
L 84.030443 289.082985 
L 82.584975 289.588031 
L 81.136513 289.975261 
L 79.705473 290.467065 
L 78.244762 290.801338 
L 77.513454 290.820594 
L 76.797525 290.640363 
L 75.34743 290.688717 
L 75.188388 291.06 
L 75.026022 289.724731 
L 75.026022 289.724731 
" clip-path="url(#pdc93de50bc)" style="fill: none; stroke: #000000; stroke-width: 2; stroke-linecap: square"/>
   </g>
   <g id="patch_3">
    <path d="M 57.17 303.64 
L 57.17 26.88 
" style="fill: none; stroke: #000000; stroke-width: 0.8; stroke-linejoin: miter; stroke-linecap: square"/>
   </g>
   <g id="patch_4">
    <path d="M 450 303.64 
L 450 26.88 
" style="fill: none; stroke: #000000; stroke-width: 0.8; stroke-linejoin: miter; stroke-linecap: square"/>
   </g>
   <g id="patch_5">
    <path d="M 57.17 303.64 
L 450 303.64 
" style="fill: none; stroke: #000000; stroke-width: 0.8; stroke-linejoin: miter; stroke-linecap: square"/>
   </g>
   <g id="patch_6">
    <path d="M 57.17 26.88 
L 450 26.88 
" style="fill: none; stroke: #000000; stroke-width: 0.8; stroke-linejoin: miter; stroke-linecap: square"/>
   </g>
   <g id="text_18">
    <!-- 2025-07-02 Trial 23 - Stress vs Strain -->
    <g transform="translate(142.330938 20.88) scale(0.12 -0.12)">
     <defs>
      <path id="DejaVuSans-54" d="M -19 4666 
L 3928 4666 
L 3928 4134 
L 2272 4134 
L 2272 0 
L 1638 0 
L 1638 4134 
L -19 4134 
L -19 4666 
z
" transform="scale(0.015625)"/>
      <path id="DejaVuSans-6c" d="M 603 4863 
L 1178 4863 
L 1178 0 
L 603 0 
L 603 4863 
z
" transform="scale(0.015625)"/>
      <path id="DejaVuSans-33" d="M 2597 2516 
Q 3050 2419 3304 2112 
Q 3559 1806 3559 1356 
Q 3559 666 3084 287 
Q 2609 -91 1734 -91 
Q 1441 -91 1130 -33 
Q 819 25 488 141 
L 488 750 
Q 750 597 1062 519 
Q 1375 441 1716 441 
Q 2309 441 2620 675 
Q 2931 909 2931 1356 
Q 2931 1769 2642 2001 
Q 2353 2234 1838 2234 
L 1294 2234 
L 1294 2753 
L 1863 2753 
Q 2328 2753 2575 2939 
Q 2822 3125 2822 3475 
Q 2822 3834 2567 4026 
Q 2313 4219 1838 4219 
Q 1578 4219 1281 4162 
Q 984 4106 628 3988 
L 628 4550 
Q 988 4650 1302 4700 
Q 1616 4750 1894 4750 
Q 2613 4750 3031 4423 
Q 3450 4097 3450 3541 
Q 3450 3153 3228 2886 
Q 3006 2619 2597 2516 
z
" transform="scale(0.015625)"/>
      <path id="DejaVuSans-76" d="M 191 3500 
L 800 3500 
L 1894 563 
L 2988 3500 
L 3597 3500 
L 2284 0 
L 1503 0 
L 191 3500 
z
" transform="scale(0.015625)"/>
     </defs>
     <use xlink:href="#DejaVuSans-32"/>
     <use xlink:href="#DejaVuSans-30" transform="translate(63.623047 0)"/>
     <use xlink:href="#DejaVuSans-32" transform="translate(127.246094 0)"/>
     <use xlink:href="#DejaVuSans-35" transform="translate(190.869141 0)"/>
     <use xlink:href="#DejaVuSans-2d" transform="translate(254.492188 0)"/>
     <use xlink:href="#DejaVuSans-30" transform="translate(290.576172 0)"/>
     <use xlink:href="#DejaVuSans-37" transform="translate(354.199219 0)"/>
     <use xlink:href="#DejaVuSans-2d" transform="translate(417.822266 0)"/>
     <use xlink:href="#DejaVuSans-30" transform="translate(453.90625 0)"/>
     <use xlink:href="#DejaVuSans-32" transform="translate(517.529297 0)"/>
     <use xlink:href="#DejaVuSans-20" transform="translate(581.152344 0)"/>
     <use xlink:href="#DejaVuSans-54" transform="translate(612.939453 0)"/>
     <use xlink:href="#DejaVuSans-72" transform="translate(659.273438 0)"/>
     <use xlink:href="#DejaVuSans-69" transform="translate(700.386719 0)"/>
     <use xlink:href="#DejaVuSans-61" transform="translate(728.169922 0)"/>
     <use xlink:href="#DejaVuSans-6c" transform="translate(789.449219 0)"/>
     <use xlink:href="#DejaVuSans-20" transform="translate(817.232422 0)"/>
     <use xlink:href="#DejaVuSans-32" transform="translate(849.019531 0)"/>
     <use xlink:href="#DejaVuSans-33" transform="translate(912.642578 0)"/>
     <use xlink:href="#DejaVuSans-20" transform="translate(976.265625 0)"/>
     <use xlink:href="#DejaVuSans-2d" transform="translate(1008.052734 0)"/>
     <use xlink:href="#DejaVuSans-20" transform="translate(1044.136719 0)"/>
     <use xlink:href="#DejaVuSans-53" transform="translate(1075.923828 0)"/>
     <use xlink:href="#DejaVuSans-74" transform="translate(1139.400391 0)"/>
     <use xlink:href="#DejaVuSans-72" transform="translate(1178.609375 0)"/>
     <use xlink:href="#DejaVuSans-65" transform="translate(1217.472656 0)"/>
     <use xlink:href="#DejaVuSans-73" transform="translate(1278.996094 0)"/>
     <use xlink:href="#DejaVuSans-73" transform="translate(1331.095703 0)"/>
     <use xlink:href="#DejaVuSans-20" transform="translate(1383.195312 0)"/>
     <use xlink:href="#DejaVuSans-76" transform="translate(1414.982422 0)"/>
     <use xlink:href="#DejaVuSans-73" transform="translate(1474.162109 0)"/>
     <use xlink:href="#DejaVuSans-20" transform="translate(1526.261719 0)"/>
     <use xlink:href="#DejaVuSans-53" transform="translate(1558.048828 0)"/>
     <use xlink:href="#DejaVuSans-74" transform="translate(1621.525391 0)"/>
     <use xlink:href="#DejaVuSans-72" transform="translate(1660.734375 0)"/>
     <use xlink:href="#DejaVuSans-61" transform="translate(1701.847656 0)"/>
     <use xlink:href="#DejaVuSans-69" transform="translate(1763.126953 0)"/>
     <use xlink:href="#DejaVuSans-6e" transform="translate(1790.910156 0)"/>
    </g>
   </g>
   <g id="legend_1">
    <g id="patch_7">
     <path d="M 64.17 64.23625 
L 170.154375 64.23625 
Q 172.154375 64.23625 172.154375 62.23625 
L 172.154375 33.88 
Q 172.154375 31.88 170.154375 31.88 
L 64.17 31.88 
Q 62.17 31.88 62.17 33.88 
L 62.17 62.23625 
Q 62.17 64.23625 64.17 64.23625 
z
" style="fill: #ffffff; opacity: 0.8; stroke: #cccccc; stroke-linejoin: miter"/>
    </g>
    <g id="line2d_33">
     <path d="M 66.17 39.978437 
L 76.17 39.978437 
L 86.17 39.978437 
" style="fill: none; stroke: #ff0000; stroke-width: 2; stroke-linecap: square"/>
    </g>
    <g id="text_19">
     <!-- Raw Force -->
     <g transform="translate(94.17 43.478437) scale(0.1 -0.1)">
      <defs>
       <path id="DejaVuSans-52" d="M 2841 2188 
Q 3044 2119 3236 1894 
Q 3428 1669 3622 1275 
L 4263 0 
L 3584 0 
L 2988 1197 
Q 2756 1666 2539 1819 
Q 2322 1972 1947 1972 
L 1259 1972 
L 1259 0 
L 628 0 
L 628 4666 
L 2053 4666 
Q 2853 4666 3247 4331 
Q 3641 3997 3641 3322 
Q 3641 2881 3436 2590 
Q 3231 2300 2841 2188 
z
M 1259 4147 
L 1259 2491 
L 2053 2491 
Q 2509 2491 2742 2702 
Q 2975 2913 2975 3322 
Q 2975 3731 2742 3939 
Q 2509 4147 2053 4147 
L 1259 4147 
z
" transform="scale(0.015625)"/>
       <path id="DejaVuSans-77" d="M 269 3500 
L 844 3500 
L 1563 769 
L 2278 3500 
L 2956 3500 
L 3675 769 
L 4391 3500 
L 4966 3500 
L 4050 0 
L 3372 0 
L 2619 2869 
L 1863 0 
L 1184 0 
L 269 3500 
z
" transform="scale(0.015625)"/>
       <path id="DejaVuSans-46" d="M 628 4666 
L 3309 4666 
L 3309 4134 
L 1259 4134 
L 1259 2759 
L 3109 2759 
L 3109 2228 
L 1259 2228 
L 1259 0 
L 628 0 
L 628 4666 
z
" transform="scale(0.015625)"/>
       <path id="DejaVuSans-6f" d="M 1959 3097 
Q 1497 3097 1228 2736 
Q 959 2375 959 1747 
Q 959 1119 1226 758 
Q 1494 397 1959 397 
Q 2419 397 2687 759 
Q 2956 1122 2956 1747 
Q 2956 2369 2687 2733 
Q 2419 3097 1959 3097 
z
M 1959 3584 
Q 2709 3584 3137 3096 
Q 3566 2609 3566 1747 
Q 3566 888 3137 398 
Q 2709 -91 1959 -91 
Q 1206 -91 779 398 
Q 353 888 353 1747 
Q 353 2609 779 3096 
Q 1206 3584 1959 3584 
z
" transform="scale(0.015625)"/>
       <path id="DejaVuSans-63" d="M 3122 3366 
L 3122 2828 
Q 2878 2963 2633 3030 
Q 2388 3097 2138 3097 
Q 1578 3097 1268 2742 
Q 959 2388 959 1747 
Q 959 1106 1268 751 
Q 1578 397 2138 397 
Q 2388 397 2633 464 
Q 2878 531 3122 666 
L 3122 134 
Q 2881 22 2623 -34 
Q 2366 -91 2075 -91 
Q 1284 -91 818 406 
Q 353 903 353 1747 
Q 353 2603 823 3093 
Q 1294 3584 2113 3584 
Q 2378 3584 2631 3529 
Q 2884 3475 3122 3366 
z
" transform="scale(0.015625)"/>
      </defs>
      <use xlink:href="#DejaVuSans-52"/>
      <use xlink:href="#DejaVuSans-61" transform="translate(67.232422 0)"/>
      <use xlink:href="#DejaVuSans-77" transform="translate(128.511719 0)"/>
      <use xlink:href="#DejaVuSans-20" transform="translate(210.298828 0)"/>
      <use xlink:href="#DejaVuSans-46" transform="translate(242.085938 0)"/>
      <use xlink:href="#DejaVuSans-6f" transform="translate(295.980469 0)"/>
      <use xlink:href="#DejaVuSans-72" transform="translate(357.162109 0)"/>
      <use xlink:href="#DejaVuSans-63" transform="translate(396.025391 0)"/>
      <use xlink:href="#DejaVuSans-65" transform="translate(451.005859 0)"/>
     </g>
    </g>
    <g id="line2d_34">
     <path d="M 66.17 54.656563 
L 76.17 54.656563 
L 86.17 54.656563 
" style="fill: none; stroke: #000000; stroke-width: 2; stroke-linecap: square"/>
    </g>
    <g id="text_20">
     <!-- Adjusted Force -->
     <g transform="translate(94.17 58.156563) scale(0.1 -0.1)">
      <defs>
       <path id="DejaVuSans-41" d="M 2188 4044 
L 1331 1722 
L 3047 1722 
L 2188 4044 
z
M 1831 4666 
L 2547 4666 
L 4325 0 
L 3669 0 
L 3244 1197 
L 1141 1197 
L 716 0 
L 50 0 
L 1831 4666 
z
" transform="scale(0.015625)"/>
       <path id="DejaVuSans-64" d="M 2906 2969 
L 2906 4863 
L 3481 4863 
L 3481 0 
L 2906 0 
L 2906 525 
Q 2725 213 2448 61 
Q 2172 -91 1784 -91 
Q 1150 -91 751 415 
Q 353 922 353 1747 
Q 353 2572 751 3078 
Q 1150 3584 1784 3584 
Q 2172 3584 2448 3432 
Q 2725 3281 2906 2969 
z
M 947 1747 
Q 947 1113 1208 752 
Q 1469 391 1925 391 
Q 2381 391 2643 752 
Q 2906 1113 2906 1747 
Q 2906 2381 2643 2742 
Q 2381 3103 1925 3103 
Q 1469 3103 1208 2742 
Q 947 2381 947 1747 
z
" transform="scale(0.015625)"/>
       <path id="DejaVuSans-6a" d="M 603 3500 
L 1178 3500 
L 1178 -63 
Q 1178 -731 923 -1031 
Q 669 -1331 103 -1331 
L -116 -1331 
L -116 -844 
L 38 -844 
Q 366 -844 484 -692 
Q 603 -541 603 -63 
L 603 3500 
z
M 603 4863 
L 1178 4863 
L 1178 4134 
L 603 4134 
L 603 4863 
z
" transform="scale(0.015625)"/>
       <path id="DejaVuSans-75" d="M 544 1381 
L 544 3500 
L 1119 3500 
L 1119 1403 
Q 1119 906 1312 657 
Q 1506 409 1894 409 
Q 2359 409 2629 706 
Q 2900 1003 2900 1516 
L 2900 3500 
L 3475 3500 
L 3475 0 
L 2900 0 
L 2900 538 
Q 2691 219 2414 64 
Q 2138 -91 1772 -91 
Q 1169 -91 856 284 
Q 544 659 544 1381 
z
M 1991 3584 
L 1991 3584 
z
" transform="scale(0.015625)"/>
      </defs>
      <use xlink:href="#DejaVuSans-41"/>
      <use xlink:href="#DejaVuSans-64" transform="translate(66.658203 0)"/>
      <use xlink:href="#DejaVuSans-6a" transform="translate(130.134766 0)"/>
      <use xlink:href="#DejaVuSans-75" transform="translate(157.917969 0)"/>
      <use xlink:href="#DejaVuSans-73" transform="translate(221.296875 0)"/>
      <use xlink:href="#DejaVuSans-74" transform="translate(273.396484 0)"/>
      <use xlink:href="#DejaVuSans-65" transform="translate(312.605469 0)"/>
      <use xlink:href="#DejaVuSans-64" transform="translate(374.128906 0)"/>
      <use xlink:href="#DejaVuSans-20" transform="translate(437.605469 0)"/>
      <use xlink:href="#DejaVuSans-46" transform="translate(469.392578 0)"/>
      <use xlink:href="#DejaVuSans-6f" transform="translate(523.287109 0)"/>
      <use xlink:href="#DejaVuSans-72" transform="translate(584.46875 0)"/>
      <use xlink:href="#DejaVuSans-63" transform="translate(623.332031 0)"/>
      <use xlink:href="#DejaVuSans-65" transform="translate(678.3125 0)"/>
     </g>
    </g>
   </g>
  </g>
 </g>
 <defs>
  <clipPath id="pdc93de50bc">
   <rect x="57.17" y="26.88" width="392.83" height="276.76"/>
  </clipPath>
 </defs>
</svg>
