<?xml version="1.0" encoding="utf-8" standalone="no"?>
<!DOCTYPE svg PUBLIC "-//W3C//DTD SVG 1.1//EN"
  "http://www.w3.org/Graphics/SVG/1.1/DTD/svg11.dtd">
<svg xmlns:xlink="http://www.w3.org/1999/xlink" width="460.8pt" height="345.6pt" viewBox="0 0 460.8 345.6" xmlns="http://www.w3.org/2000/svg" version="1.1">
 <metadata>
  <rdf:RDF xmlns:dc="http://purl.org/dc/elements/1.1/" xmlns:cc="http://creativecommons.org/ns#" xmlns:rdf="http://www.w3.org/1999/02/22-rdf-syntax-ns#">
   <cc:Work>
    <dc:type rdf:resource="http://purl.org/dc/dcmitype/StillImage"/>
    <dc:date>2025-07-28T21:14:53.482410</dc:date>
    <dc:format>image/svg+xml</dc:format>
    <dc:creator>
     <cc:Agent>
      <dc:title>Matplotlib v3.10.3, https://matplotlib.org/</dc:title>
     </cc:Agent>
    </dc:creator>
   </cc:Work>
  </rdf:RDF>
 </metadata>
 <defs>
  <style type="text/css">*{stroke-linejoin: round; stroke-linecap: butt}</style>
 </defs>
 <g id="figure_1">
  <g id="patch_1">
   <path d="M 0 345.6 
L 460.8 345.6 
L 460.8 0 
L 0 0 
z
" style="fill: #ffffff"/>
  </g>
  <g id="axes_1">
   <g id="patch_2">
    <path d="M 57.17 303.64 
L 450 303.64 
L 450 26.88 
L 57.17 26.88 
z
" style="fill: #ffffff"/>
   </g>
   <g id="matplotlib.axis_1">
    <g id="xtick_1">
     <g id="line2d_1">
      <path d="M 75.182789 303.64 
L 75.182789 26.88 
" clip-path="url(#pc903ccd197)" style="fill: none; stroke: #b0b0b0; stroke-opacity: 0.3; stroke-width: 0.8; stroke-linecap: square"/>
     </g>
     <g id="line2d_2">
      <defs>
       <path id="m0bef984295" d="M 0 0 
L 0 3.5 
" style="stroke: #000000; stroke-width: 0.8"/>
      </defs>
      <g>
       <use xlink:href="#m0bef984295" x="75.182789" y="303.64" style="stroke: #000000; stroke-width: 0.8"/>
      </g>
     </g>
     <g id="text_1">
      <!-- 0.000 -->
      <g transform="translate(60.868726 318.238437) scale(0.1 -0.1)">
       <defs>
        <path id="DejaVuSans-30" d="M 2034 4250 
Q 1547 4250 1301 3770 
Q 1056 3291 1056 2328 
Q 1056 1369 1301 889 
Q 1547 409 2034 409 
Q 2525 409 2770 889 
Q 3016 1369 3016 2328 
Q 3016 3291 2770 3770 
Q 2525 4250 2034 4250 
z
M 2034 4750 
Q 2819 4750 3233 4129 
Q 3647 3509 3647 2328 
Q 3647 1150 3233 529 
Q 2819 -91 2034 -91 
Q 1250 -91 836 529 
Q 422 1150 422 2328 
Q 422 3509 836 4129 
Q 1250 4750 2034 4750 
z
" transform="scale(0.015625)"/>
        <path id="DejaVuSans-2e" d="M 684 794 
L 1344 794 
L 1344 0 
L 684 0 
L 684 794 
z
" transform="scale(0.015625)"/>
       </defs>
       <use xlink:href="#DejaVuSans-30"/>
       <use xlink:href="#DejaVuSans-2e" transform="translate(63.623047 0)"/>
       <use xlink:href="#DejaVuSans-30" transform="translate(95.410156 0)"/>
       <use xlink:href="#DejaVuSans-30" transform="translate(159.033203 0)"/>
       <use xlink:href="#DejaVuSans-30" transform="translate(222.65625 0)"/>
      </g>
     </g>
    </g>
    <g id="xtick_2">
     <g id="line2d_3">
      <path d="M 125.12882 303.64 
L 125.12882 26.88 
" clip-path="url(#pc903ccd197)" style="fill: none; stroke: #b0b0b0; stroke-opacity: 0.3; stroke-width: 0.8; stroke-linecap: square"/>
     </g>
     <g id="line2d_4">
      <g>
       <use xlink:href="#m0bef984295" x="125.12882" y="303.64" style="stroke: #000000; stroke-width: 0.8"/>
      </g>
     </g>
     <g id="text_2">
      <!-- 0.025 -->
      <g transform="translate(110.814758 318.238437) scale(0.1 -0.1)">
       <defs>
        <path id="DejaVuSans-32" d="M 1228 531 
L 3431 531 
L 3431 0 
L 469 0 
L 469 531 
Q 828 903 1448 1529 
Q 2069 2156 2228 2338 
Q 2531 2678 2651 2914 
Q 2772 3150 2772 3378 
Q 2772 3750 2511 3984 
Q 2250 4219 1831 4219 
Q 1534 4219 1204 4116 
Q 875 4013 500 3803 
L 500 4441 
Q 881 4594 1212 4672 
Q 1544 4750 1819 4750 
Q 2544 4750 2975 4387 
Q 3406 4025 3406 3419 
Q 3406 3131 3298 2873 
Q 3191 2616 2906 2266 
Q 2828 2175 2409 1742 
Q 1991 1309 1228 531 
z
" transform="scale(0.015625)"/>
        <path id="DejaVuSans-35" d="M 691 4666 
L 3169 4666 
L 3169 4134 
L 1269 4134 
L 1269 2991 
Q 1406 3038 1543 3061 
Q 1681 3084 1819 3084 
Q 2600 3084 3056 2656 
Q 3513 2228 3513 1497 
Q 3513 744 3044 326 
Q 2575 -91 1722 -91 
Q 1428 -91 1123 -41 
Q 819 9 494 109 
L 494 744 
Q 775 591 1075 516 
Q 1375 441 1709 441 
Q 2250 441 2565 725 
Q 2881 1009 2881 1497 
Q 2881 1984 2565 2268 
Q 2250 2553 1709 2553 
Q 1456 2553 1204 2497 
Q 953 2441 691 2322 
L 691 4666 
z
" transform="scale(0.015625)"/>
       </defs>
       <use xlink:href="#DejaVuSans-30"/>
       <use xlink:href="#DejaVuSans-2e" transform="translate(63.623047 0)"/>
       <use xlink:href="#DejaVuSans-30" transform="translate(95.410156 0)"/>
       <use xlink:href="#DejaVuSans-32" transform="translate(159.033203 0)"/>
       <use xlink:href="#DejaVuSans-35" transform="translate(222.65625 0)"/>
      </g>
     </g>
    </g>
    <g id="xtick_3">
     <g id="line2d_5">
      <path d="M 175.074852 303.64 
L 175.074852 26.88 
" clip-path="url(#pc903ccd197)" style="fill: none; stroke: #b0b0b0; stroke-opacity: 0.3; stroke-width: 0.8; stroke-linecap: square"/>
     </g>
     <g id="line2d_6">
      <g>
       <use xlink:href="#m0bef984295" x="175.074852" y="303.64" style="stroke: #000000; stroke-width: 0.8"/>
      </g>
     </g>
     <g id="text_3">
      <!-- 0.050 -->
      <g transform="translate(160.760789 318.238437) scale(0.1 -0.1)">
       <use xlink:href="#DejaVuSans-30"/>
       <use xlink:href="#DejaVuSans-2e" transform="translate(63.623047 0)"/>
       <use xlink:href="#DejaVuSans-30" transform="translate(95.410156 0)"/>
       <use xlink:href="#DejaVuSans-35" transform="translate(159.033203 0)"/>
       <use xlink:href="#DejaVuSans-30" transform="translate(222.65625 0)"/>
      </g>
     </g>
    </g>
    <g id="xtick_4">
     <g id="line2d_7">
      <path d="M 225.020883 303.64 
L 225.020883 26.88 
" clip-path="url(#pc903ccd197)" style="fill: none; stroke: #b0b0b0; stroke-opacity: 0.3; stroke-width: 0.8; stroke-linecap: square"/>
     </g>
     <g id="line2d_8">
      <g>
       <use xlink:href="#m0bef984295" x="225.020883" y="303.64" style="stroke: #000000; stroke-width: 0.8"/>
      </g>
     </g>
     <g id="text_4">
      <!-- 0.075 -->
      <g transform="translate(210.706821 318.238437) scale(0.1 -0.1)">
       <defs>
        <path id="DejaVuSans-37" d="M 525 4666 
L 3525 4666 
L 3525 4397 
L 1831 0 
L 1172 0 
L 2766 4134 
L 525 4134 
L 525 4666 
z
" transform="scale(0.015625)"/>
       </defs>
       <use xlink:href="#DejaVuSans-30"/>
       <use xlink:href="#DejaVuSans-2e" transform="translate(63.623047 0)"/>
       <use xlink:href="#DejaVuSans-30" transform="translate(95.410156 0)"/>
       <use xlink:href="#DejaVuSans-37" transform="translate(159.033203 0)"/>
       <use xlink:href="#DejaVuSans-35" transform="translate(222.65625 0)"/>
      </g>
     </g>
    </g>
    <g id="xtick_5">
     <g id="line2d_9">
      <path d="M 274.966915 303.64 
L 274.966915 26.88 
" clip-path="url(#pc903ccd197)" style="fill: none; stroke: #b0b0b0; stroke-opacity: 0.3; stroke-width: 0.8; stroke-linecap: square"/>
     </g>
     <g id="line2d_10">
      <g>
       <use xlink:href="#m0bef984295" x="274.966915" y="303.64" style="stroke: #000000; stroke-width: 0.8"/>
      </g>
     </g>
     <g id="text_5">
      <!-- 0.100 -->
      <g transform="translate(260.652852 318.238437) scale(0.1 -0.1)">
       <defs>
        <path id="DejaVuSans-31" d="M 794 531 
L 1825 531 
L 1825 4091 
L 703 3866 
L 703 4441 
L 1819 4666 
L 2450 4666 
L 2450 531 
L 3481 531 
L 3481 0 
L 794 0 
L 794 531 
z
" transform="scale(0.015625)"/>
       </defs>
       <use xlink:href="#DejaVuSans-30"/>
       <use xlink:href="#DejaVuSans-2e" transform="translate(63.623047 0)"/>
       <use xlink:href="#DejaVuSans-31" transform="translate(95.410156 0)"/>
       <use xlink:href="#DejaVuSans-30" transform="translate(159.033203 0)"/>
       <use xlink:href="#DejaVuSans-30" transform="translate(222.65625 0)"/>
      </g>
     </g>
    </g>
    <g id="xtick_6">
     <g id="line2d_11">
      <path d="M 324.912946 303.64 
L 324.912946 26.88 
" clip-path="url(#pc903ccd197)" style="fill: none; stroke: #b0b0b0; stroke-opacity: 0.3; stroke-width: 0.8; stroke-linecap: square"/>
     </g>
     <g id="line2d_12">
      <g>
       <use xlink:href="#m0bef984295" x="324.912946" y="303.64" style="stroke: #000000; stroke-width: 0.8"/>
      </g>
     </g>
     <g id="text_6">
      <!-- 0.125 -->
      <g transform="translate(310.598884 318.238437) scale(0.1 -0.1)">
       <use xlink:href="#DejaVuSans-30"/>
       <use xlink:href="#DejaVuSans-2e" transform="translate(63.623047 0)"/>
       <use xlink:href="#DejaVuSans-31" transform="translate(95.410156 0)"/>
       <use xlink:href="#DejaVuSans-32" transform="translate(159.033203 0)"/>
       <use xlink:href="#DejaVuSans-35" transform="translate(222.65625 0)"/>
      </g>
     </g>
    </g>
    <g id="xtick_7">
     <g id="line2d_13">
      <path d="M 374.858978 303.64 
L 374.858978 26.88 
" clip-path="url(#pc903ccd197)" style="fill: none; stroke: #b0b0b0; stroke-opacity: 0.3; stroke-width: 0.8; stroke-linecap: square"/>
     </g>
     <g id="line2d_14">
      <g>
       <use xlink:href="#m0bef984295" x="374.858978" y="303.64" style="stroke: #000000; stroke-width: 0.8"/>
      </g>
     </g>
     <g id="text_7">
      <!-- 0.150 -->
      <g transform="translate(360.544915 318.238437) scale(0.1 -0.1)">
       <use xlink:href="#DejaVuSans-30"/>
       <use xlink:href="#DejaVuSans-2e" transform="translate(63.623047 0)"/>
       <use xlink:href="#DejaVuSans-31" transform="translate(95.410156 0)"/>
       <use xlink:href="#DejaVuSans-35" transform="translate(159.033203 0)"/>
       <use xlink:href="#DejaVuSans-30" transform="translate(222.65625 0)"/>
      </g>
     </g>
    </g>
    <g id="xtick_8">
     <g id="line2d_15">
      <path d="M 424.805009 303.64 
L 424.805009 26.88 
" clip-path="url(#pc903ccd197)" style="fill: none; stroke: #b0b0b0; stroke-opacity: 0.3; stroke-width: 0.8; stroke-linecap: square"/>
     </g>
     <g id="line2d_16">
      <g>
       <use xlink:href="#m0bef984295" x="424.805009" y="303.64" style="stroke: #000000; stroke-width: 0.8"/>
      </g>
     </g>
     <g id="text_8">
      <!-- 0.175 -->
      <g transform="translate(410.490947 318.238437) scale(0.1 -0.1)">
       <use xlink:href="#DejaVuSans-30"/>
       <use xlink:href="#DejaVuSans-2e" transform="translate(63.623047 0)"/>
       <use xlink:href="#DejaVuSans-31" transform="translate(95.410156 0)"/>
       <use xlink:href="#DejaVuSans-37" transform="translate(159.033203 0)"/>
       <use xlink:href="#DejaVuSans-35" transform="translate(222.65625 0)"/>
      </g>
     </g>
    </g>
    <g id="text_9">
     <!-- Strain [-] -->
     <g transform="translate(231.47875 331.916562) scale(0.1 -0.1)">
      <defs>
       <path id="DejaVuSans-53" d="M 3425 4513 
L 3425 3897 
Q 3066 4069 2747 4153 
Q 2428 4238 2131 4238 
Q 1616 4238 1336 4038 
Q 1056 3838 1056 3469 
Q 1056 3159 1242 3001 
Q 1428 2844 1947 2747 
L 2328 2669 
Q 3034 2534 3370 2195 
Q 3706 1856 3706 1288 
Q 3706 609 3251 259 
Q 2797 -91 1919 -91 
Q 1588 -91 1214 -16 
Q 841 59 441 206 
L 441 856 
Q 825 641 1194 531 
Q 1563 422 1919 422 
Q 2459 422 2753 634 
Q 3047 847 3047 1241 
Q 3047 1584 2836 1778 
Q 2625 1972 2144 2069 
L 1759 2144 
Q 1053 2284 737 2584 
Q 422 2884 422 3419 
Q 422 4038 858 4394 
Q 1294 4750 2059 4750 
Q 2388 4750 2728 4690 
Q 3069 4631 3425 4513 
z
" transform="scale(0.015625)"/>
       <path id="DejaVuSans-74" d="M 1172 4494 
L 1172 3500 
L 2356 3500 
L 2356 3053 
L 1172 3053 
L 1172 1153 
Q 1172 725 1289 603 
Q 1406 481 1766 481 
L 2356 481 
L 2356 0 
L 1766 0 
Q 1100 0 847 248 
Q 594 497 594 1153 
L 594 3053 
L 172 3053 
L 172 3500 
L 594 3500 
L 594 4494 
L 1172 4494 
z
" transform="scale(0.015625)"/>
       <path id="DejaVuSans-72" d="M 2631 2963 
Q 2534 3019 2420 3045 
Q 2306 3072 2169 3072 
Q 1681 3072 1420 2755 
Q 1159 2438 1159 1844 
L 1159 0 
L 581 0 
L 581 3500 
L 1159 3500 
L 1159 2956 
Q 1341 3275 1631 3429 
Q 1922 3584 2338 3584 
Q 2397 3584 2469 3576 
Q 2541 3569 2628 3553 
L 2631 2963 
z
" transform="scale(0.015625)"/>
       <path id="DejaVuSans-61" d="M 2194 1759 
Q 1497 1759 1228 1600 
Q 959 1441 959 1056 
Q 959 750 1161 570 
Q 1363 391 1709 391 
Q 2188 391 2477 730 
Q 2766 1069 2766 1631 
L 2766 1759 
L 2194 1759 
z
M 3341 1997 
L 3341 0 
L 2766 0 
L 2766 531 
Q 2569 213 2275 61 
Q 1981 -91 1556 -91 
Q 1019 -91 701 211 
Q 384 513 384 1019 
Q 384 1609 779 1909 
Q 1175 2209 1959 2209 
L 2766 2209 
L 2766 2266 
Q 2766 2663 2505 2880 
Q 2244 3097 1772 3097 
Q 1472 3097 1187 3025 
Q 903 2953 641 2809 
L 641 3341 
Q 956 3463 1253 3523 
Q 1550 3584 1831 3584 
Q 2591 3584 2966 3190 
Q 3341 2797 3341 1997 
z
" transform="scale(0.015625)"/>
       <path id="DejaVuSans-69" d="M 603 3500 
L 1178 3500 
L 1178 0 
L 603 0 
L 603 3500 
z
M 603 4863 
L 1178 4863 
L 1178 4134 
L 603 4134 
L 603 4863 
z
" transform="scale(0.015625)"/>
       <path id="DejaVuSans-6e" d="M 3513 2113 
L 3513 0 
L 2938 0 
L 2938 2094 
Q 2938 2591 2744 2837 
Q 2550 3084 2163 3084 
Q 1697 3084 1428 2787 
Q 1159 2491 1159 1978 
L 1159 0 
L 581 0 
L 581 3500 
L 1159 3500 
L 1159 2956 
Q 1366 3272 1645 3428 
Q 1925 3584 2291 3584 
Q 2894 3584 3203 3211 
Q 3513 2838 3513 2113 
z
" transform="scale(0.015625)"/>
       <path id="DejaVuSans-20" transform="scale(0.015625)"/>
       <path id="DejaVuSans-5b" d="M 550 4863 
L 1875 4863 
L 1875 4416 
L 1125 4416 
L 1125 -397 
L 1875 -397 
L 1875 -844 
L 550 -844 
L 550 4863 
z
" transform="scale(0.015625)"/>
       <path id="DejaVuSans-2d" d="M 313 2009 
L 1997 2009 
L 1997 1497 
L 313 1497 
L 313 2009 
z
" transform="scale(0.015625)"/>
       <path id="DejaVuSans-5d" d="M 1947 4863 
L 1947 -844 
L 622 -844 
L 622 -397 
L 1369 -397 
L 1369 4416 
L 622 4416 
L 622 4863 
L 1947 4863 
z
" transform="scale(0.015625)"/>
      </defs>
      <use xlink:href="#DejaVuSans-53"/>
      <use xlink:href="#DejaVuSans-74" transform="translate(63.476562 0)"/>
      <use xlink:href="#DejaVuSans-72" transform="translate(102.685547 0)"/>
      <use xlink:href="#DejaVuSans-61" transform="translate(143.798828 0)"/>
      <use xlink:href="#DejaVuSans-69" transform="translate(205.078125 0)"/>
      <use xlink:href="#DejaVuSans-6e" transform="translate(232.861328 0)"/>
      <use xlink:href="#DejaVuSans-20" transform="translate(296.240234 0)"/>
      <use xlink:href="#DejaVuSans-5b" transform="translate(328.027344 0)"/>
      <use xlink:href="#DejaVuSans-2d" transform="translate(367.041016 0)"/>
      <use xlink:href="#DejaVuSans-5d" transform="translate(403.125 0)"/>
     </g>
    </g>
   </g>
   <g id="matplotlib.axis_2">
    <g id="ytick_1">
     <g id="line2d_17">
      <path d="M 57.17 270.593539 
L 450 270.593539 
" clip-path="url(#pc903ccd197)" style="fill: none; stroke: #b0b0b0; stroke-opacity: 0.3; stroke-width: 0.8; stroke-linecap: square"/>
     </g>
     <g id="line2d_18">
      <defs>
       <path id="m7d2631839f" d="M 0 0 
L -3.5 0 
" style="stroke: #000000; stroke-width: 0.8"/>
      </defs>
      <g>
       <use xlink:href="#m7d2631839f" x="57.17" y="270.593539" style="stroke: #000000; stroke-width: 0.8"/>
      </g>
     </g>
     <g id="text_10">
      <!-- 0 -->
      <g transform="translate(43.8075 274.392757) scale(0.1 -0.1)">
       <use xlink:href="#DejaVuSans-30"/>
      </g>
     </g>
    </g>
    <g id="ytick_2">
     <g id="line2d_19">
      <path d="M 57.17 233.171563 
L 450 233.171563 
" clip-path="url(#pc903ccd197)" style="fill: none; stroke: #b0b0b0; stroke-opacity: 0.3; stroke-width: 0.8; stroke-linecap: square"/>
     </g>
     <g id="line2d_20">
      <g>
       <use xlink:href="#m7d2631839f" x="57.17" y="233.171563" style="stroke: #000000; stroke-width: 0.8"/>
      </g>
     </g>
     <g id="text_11">
      <!-- 250 -->
      <g transform="translate(31.0825 236.970782) scale(0.1 -0.1)">
       <use xlink:href="#DejaVuSans-32"/>
       <use xlink:href="#DejaVuSans-35" transform="translate(63.623047 0)"/>
       <use xlink:href="#DejaVuSans-30" transform="translate(127.246094 0)"/>
      </g>
     </g>
    </g>
    <g id="ytick_3">
     <g id="line2d_21">
      <path d="M 57.17 195.749588 
L 450 195.749588 
" clip-path="url(#pc903ccd197)" style="fill: none; stroke: #b0b0b0; stroke-opacity: 0.3; stroke-width: 0.8; stroke-linecap: square"/>
     </g>
     <g id="line2d_22">
      <g>
       <use xlink:href="#m7d2631839f" x="57.17" y="195.749588" style="stroke: #000000; stroke-width: 0.8"/>
      </g>
     </g>
     <g id="text_12">
      <!-- 500 -->
      <g transform="translate(31.0825 199.548806) scale(0.1 -0.1)">
       <use xlink:href="#DejaVuSans-35"/>
       <use xlink:href="#DejaVuSans-30" transform="translate(63.623047 0)"/>
       <use xlink:href="#DejaVuSans-30" transform="translate(127.246094 0)"/>
      </g>
     </g>
    </g>
    <g id="ytick_4">
     <g id="line2d_23">
      <path d="M 57.17 158.327612 
L 450 158.327612 
" clip-path="url(#pc903ccd197)" style="fill: none; stroke: #b0b0b0; stroke-opacity: 0.3; stroke-width: 0.8; stroke-linecap: square"/>
     </g>
     <g id="line2d_24">
      <g>
       <use xlink:href="#m7d2631839f" x="57.17" y="158.327612" style="stroke: #000000; stroke-width: 0.8"/>
      </g>
     </g>
     <g id="text_13">
      <!-- 750 -->
      <g transform="translate(31.0825 162.126831) scale(0.1 -0.1)">
       <use xlink:href="#DejaVuSans-37"/>
       <use xlink:href="#DejaVuSans-35" transform="translate(63.623047 0)"/>
       <use xlink:href="#DejaVuSans-30" transform="translate(127.246094 0)"/>
      </g>
     </g>
    </g>
    <g id="ytick_5">
     <g id="line2d_25">
      <path d="M 57.17 120.905637 
L 450 120.905637 
" clip-path="url(#pc903ccd197)" style="fill: none; stroke: #b0b0b0; stroke-opacity: 0.3; stroke-width: 0.8; stroke-linecap: square"/>
     </g>
     <g id="line2d_26">
      <g>
       <use xlink:href="#m7d2631839f" x="57.17" y="120.905637" style="stroke: #000000; stroke-width: 0.8"/>
      </g>
     </g>
     <g id="text_14">
      <!-- 1000 -->
      <g transform="translate(24.72 124.704855) scale(0.1 -0.1)">
       <use xlink:href="#DejaVuSans-31"/>
       <use xlink:href="#DejaVuSans-30" transform="translate(63.623047 0)"/>
       <use xlink:href="#DejaVuSans-30" transform="translate(127.246094 0)"/>
       <use xlink:href="#DejaVuSans-30" transform="translate(190.869141 0)"/>
      </g>
     </g>
    </g>
    <g id="ytick_6">
     <g id="line2d_27">
      <path d="M 57.17 83.483661 
L 450 83.483661 
" clip-path="url(#pc903ccd197)" style="fill: none; stroke: #b0b0b0; stroke-opacity: 0.3; stroke-width: 0.8; stroke-linecap: square"/>
     </g>
     <g id="line2d_28">
      <g>
       <use xlink:href="#m7d2631839f" x="57.17" y="83.483661" style="stroke: #000000; stroke-width: 0.8"/>
      </g>
     </g>
     <g id="text_15">
      <!-- 1250 -->
      <g transform="translate(24.72 87.28288) scale(0.1 -0.1)">
       <use xlink:href="#DejaVuSans-31"/>
       <use xlink:href="#DejaVuSans-32" transform="translate(63.623047 0)"/>
       <use xlink:href="#DejaVuSans-35" transform="translate(127.246094 0)"/>
       <use xlink:href="#DejaVuSans-30" transform="translate(190.869141 0)"/>
      </g>
     </g>
    </g>
    <g id="ytick_7">
     <g id="line2d_29">
      <path d="M 57.17 46.061686 
L 450 46.061686 
" clip-path="url(#pc903ccd197)" style="fill: none; stroke: #b0b0b0; stroke-opacity: 0.3; stroke-width: 0.8; stroke-linecap: square"/>
     </g>
     <g id="line2d_30">
      <g>
       <use xlink:href="#m7d2631839f" x="57.17" y="46.061686" style="stroke: #000000; stroke-width: 0.8"/>
      </g>
     </g>
     <g id="text_16">
      <!-- 1500 -->
      <g transform="translate(24.72 49.860904) scale(0.1 -0.1)">
       <use xlink:href="#DejaVuSans-31"/>
       <use xlink:href="#DejaVuSans-35" transform="translate(63.623047 0)"/>
       <use xlink:href="#DejaVuSans-30" transform="translate(127.246094 0)"/>
       <use xlink:href="#DejaVuSans-30" transform="translate(190.869141 0)"/>
      </g>
     </g>
    </g>
    <g id="text_17">
     <!-- Stress [Pa] -->
     <g transform="translate(18.640312 191.967812) rotate(-90) scale(0.1 -0.1)">
      <defs>
       <path id="DejaVuSans-65" d="M 3597 1894 
L 3597 1613 
L 953 1613 
Q 991 1019 1311 708 
Q 1631 397 2203 397 
Q 2534 397 2845 478 
Q 3156 559 3463 722 
L 3463 178 
Q 3153 47 2828 -22 
Q 2503 -91 2169 -91 
Q 1331 -91 842 396 
Q 353 884 353 1716 
Q 353 2575 817 3079 
Q 1281 3584 2069 3584 
Q 2775 3584 3186 3129 
Q 3597 2675 3597 1894 
z
M 3022 2063 
Q 3016 2534 2758 2815 
Q 2500 3097 2075 3097 
Q 1594 3097 1305 2825 
Q 1016 2553 972 2059 
L 3022 2063 
z
" transform="scale(0.015625)"/>
       <path id="DejaVuSans-73" d="M 2834 3397 
L 2834 2853 
Q 2591 2978 2328 3040 
Q 2066 3103 1784 3103 
Q 1356 3103 1142 2972 
Q 928 2841 928 2578 
Q 928 2378 1081 2264 
Q 1234 2150 1697 2047 
L 1894 2003 
Q 2506 1872 2764 1633 
Q 3022 1394 3022 966 
Q 3022 478 2636 193 
Q 2250 -91 1575 -91 
Q 1294 -91 989 -36 
Q 684 19 347 128 
L 347 722 
Q 666 556 975 473 
Q 1284 391 1588 391 
Q 1994 391 2212 530 
Q 2431 669 2431 922 
Q 2431 1156 2273 1281 
Q 2116 1406 1581 1522 
L 1381 1569 
Q 847 1681 609 1914 
Q 372 2147 372 2553 
Q 372 3047 722 3315 
Q 1072 3584 1716 3584 
Q 2034 3584 2315 3537 
Q 2597 3491 2834 3397 
z
" transform="scale(0.015625)"/>
       <path id="DejaVuSans-50" d="M 1259 4147 
L 1259 2394 
L 2053 2394 
Q 2494 2394 2734 2622 
Q 2975 2850 2975 3272 
Q 2975 3691 2734 3919 
Q 2494 4147 2053 4147 
L 1259 4147 
z
M 628 4666 
L 2053 4666 
Q 2838 4666 3239 4311 
Q 3641 3956 3641 3272 
Q 3641 2581 3239 2228 
Q 2838 1875 2053 1875 
L 1259 1875 
L 1259 0 
L 628 0 
L 628 4666 
z
" transform="scale(0.015625)"/>
      </defs>
      <use xlink:href="#DejaVuSans-53"/>
      <use xlink:href="#DejaVuSans-74" transform="translate(63.476562 0)"/>
      <use xlink:href="#DejaVuSans-72" transform="translate(102.685547 0)"/>
      <use xlink:href="#DejaVuSans-65" transform="translate(141.548828 0)"/>
      <use xlink:href="#DejaVuSans-73" transform="translate(203.072266 0)"/>
      <use xlink:href="#DejaVuSans-73" transform="translate(255.171875 0)"/>
      <use xlink:href="#DejaVuSans-20" transform="translate(307.271484 0)"/>
      <use xlink:href="#DejaVuSans-5b" transform="translate(339.058594 0)"/>
      <use xlink:href="#DejaVuSans-50" transform="translate(378.072266 0)"/>
      <use xlink:href="#DejaVuSans-61" transform="translate(433.875 0)"/>
      <use xlink:href="#DejaVuSans-5d" transform="translate(495.154297 0)"/>
     </g>
    </g>
   </g>
   <g id="line2d_31">
    <path d="M 75.182789 270.724551 
L 75.185026 270.459931 
L 75.182789 270.751247 
L 75.185048 270.543779 
L 75.323958 270.598621 
L 76.041146 269.949854 
L 76.78557 267.131795 
L 78.276868 265.78276 
L 79.786402 267.697229 
L 81.263818 268.769641 
L 81.992728 268.996209 
L 82.77063 269.543065 
L 83.486203 270.579346 
L 84.218379 270.318501 
L 84.949738 271.130709 
L 85.663949 268.101148 
L 86.40674 266.036002 
L 87.872044 266.236276 
L 89.313532 266.520994 
L 90.059589 266.421581 
L 91.532498 264.887598 
L 92.268621 264.572635 
L 93.737871 264.54934 
L 95.204672 264.085094 
L 97.415081 262.89285 
L 98.857658 262.351083 
L 100.297784 261.658756 
L 101.733284 260.995342 
L 103.215872 260.387742 
L 103.955125 259.941311 
L 107.583341 258.594643 
L 109.781082 257.44636 
L 111.971891 256.426803 
L 113.444408 255.665094 
L 116.359502 254.226165 
L 117.075346 253.994272 
L 118.551129 253.231971 
L 120.036439 252.551162 
L 121.528009 251.761802 
L 124.406357 250.523882 
L 125.121113 250.157839 
L 125.863632 249.652479 
L 131.692309 246.892792 
L 133.159927 246.359416 
L 133.897819 245.965841 
L 135.370199 244.975394 
L 138.265968 243.54321 
L 139.006037 243.015445 
L 142.660519 241.463193 
L 144.100102 240.262035 
L 145.570322 239.376367 
L 147.043383 238.854598 
L 148.510184 237.992345 
L 149.24481 237.374016 
L 150.721954 236.606705 
L 151.459029 236.341866 
L 152.196376 236.271863 
L 152.914398 236.045916 
L 154.370312 234.589947 
L 155.827042 233.929334 
L 157.273701 233.55128 
L 158.001522 233.189615 
L 160.215605 231.537766 
L 161.669613 231.079935 
L 166.072407 228.39839 
L 167.541657 227.708667 
L 168.999204 226.911497 
L 170.460561 226.239603 
L 174.805847 223.728656 
L 176.271832 222.985999 
L 179.185292 221.345983 
L 179.905492 221.102572 
L 181.35899 220.116878 
L 182.081231 219.496104 
L 183.552114 218.61547 
L 185.024904 218.23358 
L 185.765109 217.781706 
L 187.217212 216.682787 
L 188.666321 215.820455 
L 190.137477 215.306461 
L 190.876185 214.804256 
L 191.606864 214.139699 
L 195.268559 212.272128 
L 196.747064 211.120433 
L 198.942442 210.098303 
L 200.420811 208.808632 
L 202.642107 207.800593 
L 203.366934 207.64248 
L 204.098429 207.104617 
L 204.818492 206.329458 
L 206.291418 205.603998 
L 208.504548 204.706837 
L 209.946716 203.298044 
L 210.691957 202.829761 
L 213.595619 201.489167 
L 215.777992 200.074615 
L 217.21538 199.351383 
L 218.693613 198.449371 
L 220.889051 196.912147 
L 223.06707 195.767394 
L 225.996045 193.712108 
L 228.203731 192.638789 
L 228.939309 192.23764 
L 230.399578 191.163493 
L 231.128488 190.824745 
L 233.292897 189.539491 
L 234.767642 188.549394 
L 235.506623 187.929488 
L 239.153892 185.815425 
L 240.598646 184.777014 
L 241.320206 184.22716 
L 242.784558 183.450186 
L 244.245643 182.514251 
L 247.124808 180.48066 
L 248.563574 179.730429 
L 251.517862 177.867395 
L 253.008956 177.07486 
L 255.213104 175.424195 
L 256.710662 174.489206 
L 258.167392 173.594373 
L 261.090923 171.576717 
L 263.277107 170.242789 
L 264.740506 169.125963 
L 266.197236 168.191527 
L 267.658866 167.54961 
L 270.603934 165.126339 
L 271.323045 164.832084 
L 273.515081 163.407513 
L 274.983923 162.160442 
L 277.158948 161.089528 
L 280.12494 158.700781 
L 282.309218 157.325831 
L 283.04711 156.618042 
L 285.255341 155.263366 
L 286.685669 154.595258 
L 288.169091 153.483441 
L 289.626365 152.394778 
L 291.115757 151.588142 
L 291.854193 151.066215 
L 293.342497 149.754928 
L 294.796233 148.745627 
L 296.235544 147.900256 
L 304.376575 141.820861 
L 305.117189 141.310925 
L 306.558625 140.545301 
L 308.770395 138.910886 
L 310.24645 137.661764 
L 313.136231 135.947198 
L 323.357022 128.385486 
L 324.806676 127.479973 
L 327.774028 125.045706 
L 329.932994 123.66555 
L 332.147757 121.534925 
L 333.637966 120.549291 
L 337.284963 117.994798 
L 338.759113 116.886097 
L 345.353441 111.726051 
L 346.815887 110.698447 
L 348.278877 109.593691 
L 350.476493 107.872262 
L 351.911993 106.839452 
L 354.119135 105.018071 
L 357.030827 103.00081 
L 359.973819 100.4319 
L 365.077274 96.379549 
L 366.519034 95.165295 
L 367.979847 94.18471 
L 369.424057 92.959885 
L 371.60643 91.263621 
L 372.35276 90.88748 
L 373.808673 89.677486 
L 375.99894 87.542918 
L 377.437026 86.502475 
L 378.925602 85.159633 
L 380.391586 83.75652 
L 381.116685 83.097011 
L 382.564433 82.1296 
L 386.246814 78.880729 
L 386.977084 78.444948 
L 389.182866 76.61702 
L 390.639324 74.975189 
L 391.367961 74.607174 
L 394.292173 72.289899 
L 395.024893 71.414393 
L 397.931549 69.160387 
L 399.366232 67.809971 
L 400.800643 66.507362 
L 409.636425 59.074949 
L 412.54417 56.260676 
L 414.733246 54.130525 
L 415.454806 53.662242 
L 418.402017 50.981922 
L 419.85902 49.658644 
L 421.30949 48.574004 
L 425.684444 44.276309 
L 427.896757 42.387084 
L 429.353215 41.14159 
L 430.096823 40.681393 
L 430.81379 40.396211 
L 431.532833 39.923195 
L 431.776098 39.553444 
L 432.144091 39.46 
L 431.940327 47.318728 
L 431.940565 47.249641 
L 431.938422 61.149838 
L 431.940599 61.104793 
L 431.942504 66.780889 
L 431.93587 66.432103 
L 431.22142 66.794044 
L 430.489857 68.694471 
L 429.772413 70.131368 
L 429.022546 69.979784 
L 428.262063 70.005462 
L 427.505935 70.26114 
L 426.048388 71.062727 
L 425.329277 71.248727 
L 424.590569 71.791836 
L 423.872547 71.929102 
L 423.155614 73.710092 
L 422.431059 74.667169 
L 421.71086 75.405409 
L 420.235076 77.722841 
L 419.518143 78.656725 
L 418.800121 78.596671 
L 418.079377 78.737724 
L 416.602505 79.984322 
L 415.124 80.462525 
L 414.409789 82.856085 
L 413.687548 84.322782 
L 412.951697 85.020947 
L 412.21435 85.272325 
L 411.478092 85.766405 
L 410.728769 85.946665 
L 410.005031 86.466542 
L 409.284014 87.163286 
L 407.824324 89.064226 
L 407.110793 89.913225 
L 404.915083 91.674493 
L 404.164398 92.334633 
L 403.428684 93.238697 
L 402.676639 93.718498 
L 400.474124 95.711067 
L 399.752972 96.401894 
L 398.271473 98.281968 
L 396.071135 99.85485 
L 390.240948 105.411223 
L 388.789798 106.707836 
L 387.310476 108.215398 
L 384.420968 110.556971 
L 382.230565 112.76033 
L 379.313294 115.102534 
L 374.193236 119.580095 
L 373.474669 120.099813 
L 370.549539 122.779551 
L 368.385402 124.59825 
L 366.904719 125.950717 
L 363.23377 128.828732 
L 361.751182 130.134023 
L 361.0269 130.560101 
L 358.106635 132.945772 
L 356.650721 134.111036 
L 351.570351 138.203236 
L 350.119336 139.181297 
L 348.652535 140.550961 
L 346.466896 142.184745 
L 344.267238 143.824524 
L 342.815272 145.05282 
L 339.912154 147.308641 
L 338.483187 148.520686 
L 334.751234 151.207356 
L 334.008171 151.841463 
L 332.543547 152.899202 
L 331.823076 153.470829 
L 330.353825 154.316673 
L 327.41233 156.670552 
L 323.012879 159.697509 
L 320.828873 160.989784 
L 320.085537 161.572297 
L 318.635646 162.947218 
L 317.178371 163.857514 
L 314.998719 165.091095 
L 313.53777 166.428573 
L 311.33335 167.929666 
L 310.605529 168.287347 
L 306.950367 171.086631 
L 306.234794 171.464429 
L 304.796845 172.46237 
L 301.882023 174.393169 
L 301.145952 175.114931 
L 290.851126 182.06644 
L 290.108608 182.431694 
L 288.640446 183.475549 
L 285.720589 185.257012 
L 284.268894 186.369342 
L 283.522854 186.795577 
L 282.056325 187.296677 
L 281.309315 187.736324 
L 279.859254 189.070488 
L 276.97029 190.738825 
L 275.487702 191.886339 
L 272.566484 193.57495 
L 271.843291 194.333859 
L 271.104991 194.863044 
L 268.188264 196.339011 
L 267.468201 197.09082 
L 266.733167 197.642172 
L 264.512994 198.592899 
L 263.790345 198.922022 
L 261.615593 200.818347 
L 259.433491 201.719551 
L 257.946276 202.949977 
L 256.502611 203.734209 
L 255.055952 204.349698 
L 252.15229 206.257856 
L 250.701276 206.92699 
L 248.504612 208.696541 
L 246.316914 209.576085 
L 245.590318 209.968871 
L 244.129505 211.217205 
L 243.403318 211.560726 
L 242.655628 211.745818 
L 241.198081 212.460076 
L 240.478289 213.076985 
L 239.732913 213.892062 
L 238.992708 214.366498 
L 237.521824 214.775792 
L 236.059922 215.398135 
L 234.571619 216.828228 
L 233.112575 217.501641 
L 231.64278 218.02065 
L 230.904616 218.470867 
L 229.447529 219.567439 
L 227.998964 220.271283 
L 226.543322 220.863855 
L 223.614756 222.725706 
L 220.657746 224.242497 
L 218.459313 225.544633 
L 217.744013 225.838138 
L 212.565435 228.811372 
L 211.111376 229.394524 
L 209.63151 230.497151 
L 205.940691 232.461083 
L 204.460009 233.420921 
L 202.236808 234.089976 
L 201.502318 234.40054 
L 199.325933 235.981626 
L 197.882812 236.808932 
L 197.163701 237.005285 
L 193.49737 239.045429 
L 192.060237 239.640486 
L 189.118334 241.470269 
L 187.667047 242.102127 
L 186.920718 242.414644 
L 185.443846 243.331646 
L 178.869779 246.362508 
L 178.142095 246.939973 
L 177.408966 247.357136 
L 175.223174 248.030199 
L 174.476844 248.406458 
L 173.046652 249.65069 
L 172.305086 249.99141 
L 170.843184 250.49534 
L 170.123257 250.776499 
L 169.391762 251.293693 
L 168.67197 251.946891 
L 167.932854 252.366973 
L 165.718091 252.915759 
L 162.115187 254.835475 
L 160.679688 255.539398 
L 159.243916 256.368123 
L 158.518272 256.695511 
L 157.055741 257.132824 
L 155.578053 257.82093 
L 153.363834 258.786251 
L 150.427918 260.470681 
L 148.259154 261.212786 
L 144.601274 263.159285 
L 142.419989 264.006785 
L 140.964892 264.342003 
L 139.484243 265.139991 
L 138.009685 266.08768 
L 135.07445 267.140015 
L 132.844172 268.456508 
L 129.229837 269.744523 
L 125.530444 271.641361 
L 124.801807 271.938929 
L 124.060922 272.103688 
L 118.928037 274.419685 
L 116.016754 275.494089 
L 113.806073 276.721123 
L 113.06927 276.996602 
L 110.868116 277.519622 
L 108.650629 278.859151 
L 105.701376 279.696484 
L 103.496469 281.069811 
L 102.035383 281.43898 
L 100.563411 281.783753 
L 98.385528 283.110581 
L 96.926212 283.609137 
L 96.201658 283.688248 
L 95.477648 283.881407 
L 94.039698 284.568803 
L 93.297996 285.109269 
L 92.552757 285.497795 
L 90.36875 285.913198 
L 88.894872 286.542769 
L 88.154531 287.023122 
L 86.700688 287.506178 
L 85.968513 287.598872 
L 84.503889 288.194639 
L 83.034638 288.982421 
L 82.315799 289.227039 
L 80.875672 289.366467 
L 79.402611 289.903265 
L 78.669483 290.28335 
L 77.932136 290.535034 
L 76.49405 290.463819 
L 75.771673 290.374882 
L 75.22016 290.992432 
L 75.19107 291.06 
L 75.025909 289.725149 
L 75.026385 289.730641 
" clip-path="url(#pc903ccd197)" style="fill: none; stroke: #ff0000; stroke-width: 2; stroke-linecap: square"/>
   </g>
   <g id="line2d_32">
    <path d="M 75.182789 270.724551 
L 75.185026 270.459931 
L 75.182789 270.751247 
L 75.185048 270.543779 
L 75.323958 270.598621 
L 76.041146 269.949854 
L 76.78557 267.131795 
L 78.276868 265.78276 
L 78.997612 269.692342 
L 79.786402 269.842408 
L 80.522388 269.717448 
L 81.263818 269.771724 
L 81.992728 269.358505 
L 82.77063 269.545708 
L 83.486203 270.579346 
L 84.218379 270.318501 
L 84.949738 271.130709 
L 85.663949 268.101148 
L 86.40674 266.036002 
L 87.872044 266.236276 
L 89.313532 266.520994 
L 90.059589 266.421581 
L 91.532498 264.887598 
L 92.268621 264.572635 
L 93.737871 264.54934 
L 95.204672 264.085094 
L 97.415081 262.89285 
L 98.857658 262.351083 
L 100.297784 261.658756 
L 101.733284 260.995342 
L 103.215872 260.387742 
L 103.955125 259.941311 
L 107.583341 258.594643 
L 109.781082 257.44636 
L 111.971891 256.426803 
L 113.444408 255.665094 
L 116.359502 254.226165 
L 117.075346 253.994272 
L 118.551129 253.231971 
L 120.036439 252.551162 
L 121.528009 251.761802 
L 124.406357 250.523882 
L 125.121113 250.157839 
L 125.863632 249.652479 
L 131.692309 246.892792 
L 133.159927 246.359416 
L 133.897819 245.965841 
L 135.370199 244.975394 
L 138.265968 243.54321 
L 139.006037 243.015445 
L 142.660519 241.463193 
L 144.100102 240.262035 
L 145.570322 239.376367 
L 147.043383 238.854598 
L 148.510184 237.992345 
L 149.24481 237.374016 
L 150.721954 236.606705 
L 151.459029 236.341866 
L 152.196376 236.271863 
L 152.914398 236.045916 
L 154.370312 234.589947 
L 155.827042 233.929334 
L 157.273701 233.55128 
L 158.001522 233.189615 
L 160.215605 231.537766 
L 161.669613 231.079935 
L 166.072407 228.39839 
L 167.541657 227.708667 
L 168.999204 226.911497 
L 170.460561 226.239603 
L 174.805847 223.728656 
L 176.271832 222.985999 
L 179.185292 221.345983 
L 179.905492 221.102572 
L 181.35899 220.116878 
L 182.081231 219.496104 
L 183.552114 218.61547 
L 185.024904 218.23358 
L 185.765109 217.781706 
L 187.217212 216.682787 
L 188.666321 215.820455 
L 190.137477 215.306461 
L 190.876185 214.804256 
L 191.606864 214.139699 
L 195.268559 212.272128 
L 196.747064 211.120433 
L 198.942442 210.098303 
L 200.420811 208.808632 
L 202.642107 207.800593 
L 203.366934 207.64248 
L 204.098429 207.104617 
L 204.818492 206.329458 
L 206.291418 205.603998 
L 208.504548 204.706837 
L 209.946716 203.298044 
L 210.691957 202.829761 
L 213.595619 201.489167 
L 215.777992 200.074615 
L 217.21538 199.351383 
L 218.693613 198.449371 
L 220.889051 196.912147 
L 223.06707 195.767394 
L 225.996045 193.712108 
L 228.203731 192.638789 
L 228.939309 192.23764 
L 230.399578 191.163493 
L 231.128488 190.824745 
L 233.292897 189.539491 
L 234.767642 188.549394 
L 235.506623 187.929488 
L 239.153892 185.815425 
L 240.598646 184.777014 
L 241.320206 184.22716 
L 242.784558 183.450186 
L 244.245643 182.514251 
L 247.124808 180.48066 
L 248.563574 179.730429 
L 251.517862 177.867395 
L 253.008956 177.07486 
L 255.213104 175.424195 
L 256.710662 174.489206 
L 258.167392 173.594373 
L 261.090923 171.576717 
L 263.277107 170.242789 
L 264.740506 169.125963 
L 266.197236 168.191527 
L 267.658866 167.54961 
L 270.603934 165.126339 
L 271.323045 164.832084 
L 273.515081 163.407513 
L 274.983923 162.160442 
L 277.158948 161.089528 
L 280.12494 158.700781 
L 282.309218 157.325831 
L 283.04711 156.618042 
L 285.255341 155.263366 
L 286.685669 154.595258 
L 288.169091 153.483441 
L 289.626365 152.394778 
L 291.115757 151.588142 
L 291.854193 151.066215 
L 293.342497 149.754928 
L 294.796233 148.745627 
L 296.235544 147.900256 
L 304.376575 141.820861 
L 305.117189 141.310925 
L 306.558625 140.545301 
L 308.770395 138.910886 
L 310.24645 137.661764 
L 313.136231 135.947198 
L 323.357022 128.385486 
L 324.806676 127.479973 
L 327.774028 125.045706 
L 329.932994 123.66555 
L 332.147757 121.534925 
L 333.637966 120.549291 
L 337.284963 117.994798 
L 338.759113 116.886097 
L 345.353441 111.726051 
L 346.815887 110.698447 
L 348.278877 109.593691 
L 350.476493 107.872262 
L 351.911993 106.839452 
L 354.119135 105.018071 
L 357.030827 103.00081 
L 359.973819 100.4319 
L 365.077274 96.379549 
L 366.519034 95.165295 
L 367.979847 94.18471 
L 369.424057 92.959885 
L 371.60643 91.263621 
L 372.35276 90.88748 
L 373.808673 89.677486 
L 375.99894 87.542918 
L 377.437026 86.502475 
L 378.925602 85.159633 
L 380.391586 83.75652 
L 381.116685 83.097011 
L 382.564433 82.1296 
L 386.246814 78.880729 
L 386.977084 78.444948 
L 389.182866 76.61702 
L 390.639324 74.975189 
L 391.367961 74.607174 
L 394.292173 72.289899 
L 395.024893 71.414393 
L 397.931549 69.160387 
L 399.366232 67.809971 
L 400.800643 66.507362 
L 409.636425 59.074949 
L 412.54417 56.260676 
L 414.733246 54.130525 
L 415.454806 53.662242 
L 418.402017 50.981922 
L 419.85902 49.658644 
L 421.30949 48.574004 
L 425.684444 44.276309 
L 427.896757 42.387084 
L 429.353215 41.14159 
L 430.096823 40.681393 
L 430.81379 40.396211 
L 431.532833 39.923195 
L 431.776098 39.553444 
L 432.144091 39.46 
L 432.020723 40.519775 
L 431.993879 40.209023 
L 431.941416 53.373115 
L 431.941824 53.32097 
L 431.942504 66.780889 
L 431.93587 66.432103 
L 431.22142 66.794044 
L 430.489857 68.694471 
L 429.772413 70.131368 
L 429.022546 69.979784 
L 428.262063 70.005462 
L 427.505935 70.26114 
L 426.048388 71.062727 
L 425.329277 71.248727 
L 424.590569 71.791836 
L 423.872547 71.929102 
L 423.155614 73.710092 
L 422.431059 74.667169 
L 421.71086 75.405409 
L 420.235076 77.722841 
L 419.518143 78.656725 
L 418.800121 78.596671 
L 418.079377 78.737724 
L 416.602505 79.984322 
L 415.124 80.462525 
L 414.409789 82.856085 
L 413.687548 84.322782 
L 412.951697 85.020947 
L 412.21435 85.272325 
L 411.478092 85.766405 
L 410.728769 85.946665 
L 410.005031 86.466542 
L 409.284014 87.163286 
L 407.824324 89.064226 
L 407.110793 89.913225 
L 404.915083 91.674493 
L 404.164398 92.334633 
L 403.428684 93.238697 
L 402.676639 93.718498 
L 400.474124 95.711067 
L 399.752972 96.401894 
L 398.271473 98.281968 
L 396.071135 99.85485 
L 390.240948 105.411223 
L 388.789798 106.707836 
L 387.310476 108.215398 
L 384.420968 110.556971 
L 382.230565 112.76033 
L 379.313294 115.102534 
L 374.193236 119.580095 
L 373.474669 120.099813 
L 370.549539 122.779551 
L 368.385402 124.59825 
L 366.904719 125.950717 
L 363.23377 128.828732 
L 361.751182 130.134023 
L 361.0269 130.560101 
L 358.106635 132.945772 
L 356.650721 134.111036 
L 351.570351 138.203236 
L 350.119336 139.181297 
L 348.652535 140.550961 
L 346.466896 142.184745 
L 344.267238 143.824524 
L 342.815272 145.05282 
L 339.912154 147.308641 
L 338.483187 148.520686 
L 334.751234 151.207356 
L 334.008171 151.841463 
L 332.543547 152.899202 
L 331.823076 153.470829 
L 330.353825 154.316673 
L 327.41233 156.670552 
L 323.012879 159.697509 
L 320.828873 160.989784 
L 320.085537 161.572297 
L 318.635646 162.947218 
L 317.178371 163.857514 
L 314.998719 165.091095 
L 313.53777 166.428573 
L 311.33335 167.929666 
L 310.605529 168.287347 
L 306.950367 171.086631 
L 306.234794 171.464429 
L 304.796845 172.46237 
L 301.882023 174.393169 
L 301.145952 175.114931 
L 290.851126 182.06644 
L 290.108608 182.431694 
L 288.640446 183.475549 
L 285.720589 185.257012 
L 284.268894 186.369342 
L 283.522854 186.795577 
L 282.056325 187.296677 
L 281.309315 187.736324 
L 279.859254 189.070488 
L 276.97029 190.738825 
L 275.487702 191.886339 
L 272.566484 193.57495 
L 271.843291 194.333859 
L 271.104991 194.863044 
L 268.188264 196.339011 
L 267.468201 197.09082 
L 266.733167 197.642172 
L 264.512994 198.592899 
L 263.790345 198.922022 
L 261.615593 200.818347 
L 259.433491 201.719551 
L 257.946276 202.949977 
L 256.502611 203.734209 
L 255.055952 204.349698 
L 252.15229 206.257856 
L 250.701276 206.92699 
L 248.504612 208.696541 
L 246.316914 209.576085 
L 245.590318 209.968871 
L 244.129505 211.217205 
L 243.403318 211.560726 
L 242.655628 211.745818 
L 241.198081 212.460076 
L 240.478289 213.076985 
L 239.732913 213.892062 
L 238.992708 214.366498 
L 237.521824 214.775792 
L 236.059922 215.398135 
L 234.571619 216.828228 
L 233.112575 217.501641 
L 231.64278 218.02065 
L 230.904616 218.470867 
L 229.447529 219.567439 
L 227.998964 220.271283 
L 226.543322 220.863855 
L 223.614756 222.725706 
L 220.657746 224.242497 
L 218.459313 225.544633 
L 217.744013 225.838138 
L 212.565435 228.811372 
L 211.111376 229.394524 
L 209.63151 230.497151 
L 205.940691 232.461083 
L 204.460009 233.420921 
L 202.236808 234.089976 
L 201.502318 234.40054 
L 199.325933 235.981626 
L 197.882812 236.808932 
L 197.163701 237.005285 
L 193.49737 239.045429 
L 192.060237 239.640486 
L 189.118334 241.470269 
L 187.667047 242.102127 
L 186.920718 242.414644 
L 185.443846 243.331646 
L 178.869779 246.362508 
L 178.142095 246.939973 
L 177.408966 247.357136 
L 175.223174 248.030199 
L 174.476844 248.406458 
L 173.046652 249.65069 
L 172.305086 249.99141 
L 170.843184 250.49534 
L 170.123257 250.776499 
L 169.391762 251.293693 
L 168.67197 251.946891 
L 167.932854 252.366973 
L 165.718091 252.915759 
L 162.115187 254.835475 
L 160.679688 255.539398 
L 159.243916 256.368123 
L 158.518272 256.695511 
L 157.055741 257.132824 
L 155.578053 257.82093 
L 153.363834 258.786251 
L 150.427918 260.470681 
L 148.259154 261.212786 
L 144.601274 263.159285 
L 142.419989 264.006785 
L 140.964892 264.342003 
L 139.484243 265.139991 
L 138.009685 266.08768 
L 135.07445 267.140015 
L 132.844172 268.456508 
L 129.229837 269.744523 
L 125.530444 271.641361 
L 124.801807 271.938929 
L 124.060922 272.103688 
L 118.928037 274.419685 
L 116.016754 275.494089 
L 113.806073 276.721123 
L 113.06927 276.996602 
L 110.868116 277.519622 
L 108.650629 278.859151 
L 105.701376 279.696484 
L 103.496469 281.069811 
L 102.035383 281.43898 
L 100.563411 281.783753 
L 98.385528 283.110581 
L 96.926212 283.609137 
L 96.201658 283.688248 
L 95.477648 283.881407 
L 94.039698 284.568803 
L 93.297996 285.109269 
L 92.552757 285.497795 
L 90.36875 285.913198 
L 88.894872 286.542769 
L 88.154531 287.023122 
L 86.700688 287.506178 
L 85.968513 287.598872 
L 84.503889 288.194639 
L 83.034638 288.982421 
L 82.315799 289.227039 
L 80.875672 289.366467 
L 79.402611 289.903265 
L 78.669483 290.28335 
L 77.932136 290.535034 
L 76.49405 290.463819 
L 75.771673 290.374882 
L 75.22016 290.992432 
L 75.19107 291.06 
L 75.025909 289.725149 
L 75.026385 289.730641 
" clip-path="url(#pc903ccd197)" style="fill: none; stroke: #000000; stroke-width: 2; stroke-linecap: square"/>
   </g>
   <g id="patch_3">
    <path d="M 57.17 303.64 
L 57.17 26.88 
" style="fill: none; stroke: #000000; stroke-width: 0.8; stroke-linejoin: miter; stroke-linecap: square"/>
   </g>
   <g id="patch_4">
    <path d="M 450 303.64 
L 450 26.88 
" style="fill: none; stroke: #000000; stroke-width: 0.8; stroke-linejoin: miter; stroke-linecap: square"/>
   </g>
   <g id="patch_5">
    <path d="M 57.17 303.64 
L 450 303.64 
" style="fill: none; stroke: #000000; stroke-width: 0.8; stroke-linejoin: miter; stroke-linecap: square"/>
   </g>
   <g id="patch_6">
    <path d="M 57.17 26.88 
L 450 26.88 
" style="fill: none; stroke: #000000; stroke-width: 0.8; stroke-linejoin: miter; stroke-linecap: square"/>
   </g>
   <g id="text_18">
    <!-- 2025-07-02 Trial 14 - Stress vs Strain -->
    <g transform="translate(142.330938 20.88) scale(0.12 -0.12)">
     <defs>
      <path id="DejaVuSans-54" d="M -19 4666 
L 3928 4666 
L 3928 4134 
L 2272 4134 
L 2272 0 
L 1638 0 
L 1638 4134 
L -19 4134 
L -19 4666 
z
" transform="scale(0.015625)"/>
      <path id="DejaVuSans-6c" d="M 603 4863 
L 1178 4863 
L 1178 0 
L 603 0 
L 603 4863 
z
" transform="scale(0.015625)"/>
      <path id="DejaVuSans-34" d="M 2419 4116 
L 825 1625 
L 2419 1625 
L 2419 4116 
z
M 2253 4666 
L 3047 4666 
L 3047 1625 
L 3713 1625 
L 3713 1100 
L 3047 1100 
L 3047 0 
L 2419 0 
L 2419 1100 
L 313 1100 
L 313 1709 
L 2253 4666 
z
" transform="scale(0.015625)"/>
      <path id="DejaVuSans-76" d="M 191 3500 
L 800 3500 
L 1894 563 
L 2988 3500 
L 3597 3500 
L 2284 0 
L 1503 0 
L 191 3500 
z
" transform="scale(0.015625)"/>
     </defs>
     <use xlink:href="#DejaVuSans-32"/>
     <use xlink:href="#DejaVuSans-30" transform="translate(63.623047 0)"/>
     <use xlink:href="#DejaVuSans-32" transform="translate(127.246094 0)"/>
     <use xlink:href="#DejaVuSans-35" transform="translate(190.869141 0)"/>
     <use xlink:href="#DejaVuSans-2d" transform="translate(254.492188 0)"/>
     <use xlink:href="#DejaVuSans-30" transform="translate(290.576172 0)"/>
     <use xlink:href="#DejaVuSans-37" transform="translate(354.199219 0)"/>
     <use xlink:href="#DejaVuSans-2d" transform="translate(417.822266 0)"/>
     <use xlink:href="#DejaVuSans-30" transform="translate(453.90625 0)"/>
     <use xlink:href="#DejaVuSans-32" transform="translate(517.529297 0)"/>
     <use xlink:href="#DejaVuSans-20" transform="translate(581.152344 0)"/>
     <use xlink:href="#DejaVuSans-54" transform="translate(612.939453 0)"/>
     <use xlink:href="#DejaVuSans-72" transform="translate(659.273438 0)"/>
     <use xlink:href="#DejaVuSans-69" transform="translate(700.386719 0)"/>
     <use xlink:href="#DejaVuSans-61" transform="translate(728.169922 0)"/>
     <use xlink:href="#DejaVuSans-6c" transform="translate(789.449219 0)"/>
     <use xlink:href="#DejaVuSans-20" transform="translate(817.232422 0)"/>
     <use xlink:href="#DejaVuSans-31" transform="translate(849.019531 0)"/>
     <use xlink:href="#DejaVuSans-34" transform="translate(912.642578 0)"/>
     <use xlink:href="#DejaVuSans-20" transform="translate(976.265625 0)"/>
     <use xlink:href="#DejaVuSans-2d" transform="translate(1008.052734 0)"/>
     <use xlink:href="#DejaVuSans-20" transform="translate(1044.136719 0)"/>
     <use xlink:href="#DejaVuSans-53" transform="translate(1075.923828 0)"/>
     <use xlink:href="#DejaVuSans-74" transform="translate(1139.400391 0)"/>
     <use xlink:href="#DejaVuSans-72" transform="translate(1178.609375 0)"/>
     <use xlink:href="#DejaVuSans-65" transform="translate(1217.472656 0)"/>
     <use xlink:href="#DejaVuSans-73" transform="translate(1278.996094 0)"/>
     <use xlink:href="#DejaVuSans-73" transform="translate(1331.095703 0)"/>
     <use xlink:href="#DejaVuSans-20" transform="translate(1383.195312 0)"/>
     <use xlink:href="#DejaVuSans-76" transform="translate(1414.982422 0)"/>
     <use xlink:href="#DejaVuSans-73" transform="translate(1474.162109 0)"/>
     <use xlink:href="#DejaVuSans-20" transform="translate(1526.261719 0)"/>
     <use xlink:href="#DejaVuSans-53" transform="translate(1558.048828 0)"/>
     <use xlink:href="#DejaVuSans-74" transform="translate(1621.525391 0)"/>
     <use xlink:href="#DejaVuSans-72" transform="translate(1660.734375 0)"/>
     <use xlink:href="#DejaVuSans-61" transform="translate(1701.847656 0)"/>
     <use xlink:href="#DejaVuSans-69" transform="translate(1763.126953 0)"/>
     <use xlink:href="#DejaVuSans-6e" transform="translate(1790.910156 0)"/>
    </g>
   </g>
   <g id="legend_1">
    <g id="patch_7">
     <path d="M 64.17 64.23625 
L 170.154375 64.23625 
Q 172.154375 64.23625 172.154375 62.23625 
L 172.154375 33.88 
Q 172.154375 31.88 170.154375 31.88 
L 64.17 31.88 
Q 62.17 31.88 62.17 33.88 
L 62.17 62.23625 
Q 62.17 64.23625 64.17 64.23625 
z
" style="fill: #ffffff; opacity: 0.8; stroke: #cccccc; stroke-linejoin: miter"/>
    </g>
    <g id="line2d_33">
     <path d="M 66.17 39.978437 
L 76.17 39.978437 
L 86.17 39.978437 
" style="fill: none; stroke: #ff0000; stroke-width: 2; stroke-linecap: square"/>
    </g>
    <g id="text_19">
     <!-- Raw Force -->
     <g transform="translate(94.17 43.478437) scale(0.1 -0.1)">
      <defs>
       <path id="DejaVuSans-52" d="M 2841 2188 
Q 3044 2119 3236 1894 
Q 3428 1669 3622 1275 
L 4263 0 
L 3584 0 
L 2988 1197 
Q 2756 1666 2539 1819 
Q 2322 1972 1947 1972 
L 1259 1972 
L 1259 0 
L 628 0 
L 628 4666 
L 2053 4666 
Q 2853 4666 3247 4331 
Q 3641 3997 3641 3322 
Q 3641 2881 3436 2590 
Q 3231 2300 2841 2188 
z
M 1259 4147 
L 1259 2491 
L 2053 2491 
Q 2509 2491 2742 2702 
Q 2975 2913 2975 3322 
Q 2975 3731 2742 3939 
Q 2509 4147 2053 4147 
L 1259 4147 
z
" transform="scale(0.015625)"/>
       <path id="DejaVuSans-77" d="M 269 3500 
L 844 3500 
L 1563 769 
L 2278 3500 
L 2956 3500 
L 3675 769 
L 4391 3500 
L 4966 3500 
L 4050 0 
L 3372 0 
L 2619 2869 
L 1863 0 
L 1184 0 
L 269 3500 
z
" transform="scale(0.015625)"/>
       <path id="DejaVuSans-46" d="M 628 4666 
L 3309 4666 
L 3309 4134 
L 1259 4134 
L 1259 2759 
L 3109 2759 
L 3109 2228 
L 1259 2228 
L 1259 0 
L 628 0 
L 628 4666 
z
" transform="scale(0.015625)"/>
       <path id="DejaVuSans-6f" d="M 1959 3097 
Q 1497 3097 1228 2736 
Q 959 2375 959 1747 
Q 959 1119 1226 758 
Q 1494 397 1959 397 
Q 2419 397 2687 759 
Q 2956 1122 2956 1747 
Q 2956 2369 2687 2733 
Q 2419 3097 1959 3097 
z
M 1959 3584 
Q 2709 3584 3137 3096 
Q 3566 2609 3566 1747 
Q 3566 888 3137 398 
Q 2709 -91 1959 -91 
Q 1206 -91 779 398 
Q 353 888 353 1747 
Q 353 2609 779 3096 
Q 1206 3584 1959 3584 
z
" transform="scale(0.015625)"/>
       <path id="DejaVuSans-63" d="M 3122 3366 
L 3122 2828 
Q 2878 2963 2633 3030 
Q 2388 3097 2138 3097 
Q 1578 3097 1268 2742 
Q 959 2388 959 1747 
Q 959 1106 1268 751 
Q 1578 397 2138 397 
Q 2388 397 2633 464 
Q 2878 531 3122 666 
L 3122 134 
Q 2881 22 2623 -34 
Q 2366 -91 2075 -91 
Q 1284 -91 818 406 
Q 353 903 353 1747 
Q 353 2603 823 3093 
Q 1294 3584 2113 3584 
Q 2378 3584 2631 3529 
Q 2884 3475 3122 3366 
z
" transform="scale(0.015625)"/>
      </defs>
      <use xlink:href="#DejaVuSans-52"/>
      <use xlink:href="#DejaVuSans-61" transform="translate(67.232422 0)"/>
      <use xlink:href="#DejaVuSans-77" transform="translate(128.511719 0)"/>
      <use xlink:href="#DejaVuSans-20" transform="translate(210.298828 0)"/>
      <use xlink:href="#DejaVuSans-46" transform="translate(242.085938 0)"/>
      <use xlink:href="#DejaVuSans-6f" transform="translate(295.980469 0)"/>
      <use xlink:href="#DejaVuSans-72" transform="translate(357.162109 0)"/>
      <use xlink:href="#DejaVuSans-63" transform="translate(396.025391 0)"/>
      <use xlink:href="#DejaVuSans-65" transform="translate(451.005859 0)"/>
     </g>
    </g>
    <g id="line2d_34">
     <path d="M 66.17 54.656563 
L 76.17 54.656563 
L 86.17 54.656563 
" style="fill: none; stroke: #000000; stroke-width: 2; stroke-linecap: square"/>
    </g>
    <g id="text_20">
     <!-- Adjusted Force -->
     <g transform="translate(94.17 58.156563) scale(0.1 -0.1)">
      <defs>
       <path id="DejaVuSans-41" d="M 2188 4044 
L 1331 1722 
L 3047 1722 
L 2188 4044 
z
M 1831 4666 
L 2547 4666 
L 4325 0 
L 3669 0 
L 3244 1197 
L 1141 1197 
L 716 0 
L 50 0 
L 1831 4666 
z
" transform="scale(0.015625)"/>
       <path id="DejaVuSans-64" d="M 2906 2969 
L 2906 4863 
L 3481 4863 
L 3481 0 
L 2906 0 
L 2906 525 
Q 2725 213 2448 61 
Q 2172 -91 1784 -91 
Q 1150 -91 751 415 
Q 353 922 353 1747 
Q 353 2572 751 3078 
Q 1150 3584 1784 3584 
Q 2172 3584 2448 3432 
Q 2725 3281 2906 2969 
z
M 947 1747 
Q 947 1113 1208 752 
Q 1469 391 1925 391 
Q 2381 391 2643 752 
Q 2906 1113 2906 1747 
Q 2906 2381 2643 2742 
Q 2381 3103 1925 3103 
Q 1469 3103 1208 2742 
Q 947 2381 947 1747 
z
" transform="scale(0.015625)"/>
       <path id="DejaVuSans-6a" d="M 603 3500 
L 1178 3500 
L 1178 -63 
Q 1178 -731 923 -1031 
Q 669 -1331 103 -1331 
L -116 -1331 
L -116 -844 
L 38 -844 
Q 366 -844 484 -692 
Q 603 -541 603 -63 
L 603 3500 
z
M 603 4863 
L 1178 4863 
L 1178 4134 
L 603 4134 
L 603 4863 
z
" transform="scale(0.015625)"/>
       <path id="DejaVuSans-75" d="M 544 1381 
L 544 3500 
L 1119 3500 
L 1119 1403 
Q 1119 906 1312 657 
Q 1506 409 1894 409 
Q 2359 409 2629 706 
Q 2900 1003 2900 1516 
L 2900 3500 
L 3475 3500 
L 3475 0 
L 2900 0 
L 2900 538 
Q 2691 219 2414 64 
Q 2138 -91 1772 -91 
Q 1169 -91 856 284 
Q 544 659 544 1381 
z
M 1991 3584 
L 1991 3584 
z
" transform="scale(0.015625)"/>
      </defs>
      <use xlink:href="#DejaVuSans-41"/>
      <use xlink:href="#DejaVuSans-64" transform="translate(66.658203 0)"/>
      <use xlink:href="#DejaVuSans-6a" transform="translate(130.134766 0)"/>
      <use xlink:href="#DejaVuSans-75" transform="translate(157.917969 0)"/>
      <use xlink:href="#DejaVuSans-73" transform="translate(221.296875 0)"/>
      <use xlink:href="#DejaVuSans-74" transform="translate(273.396484 0)"/>
      <use xlink:href="#DejaVuSans-65" transform="translate(312.605469 0)"/>
      <use xlink:href="#DejaVuSans-64" transform="translate(374.128906 0)"/>
      <use xlink:href="#DejaVuSans-20" transform="translate(437.605469 0)"/>
      <use xlink:href="#DejaVuSans-46" transform="translate(469.392578 0)"/>
      <use xlink:href="#DejaVuSans-6f" transform="translate(523.287109 0)"/>
      <use xlink:href="#DejaVuSans-72" transform="translate(584.46875 0)"/>
      <use xlink:href="#DejaVuSans-63" transform="translate(623.332031 0)"/>
      <use xlink:href="#DejaVuSans-65" transform="translate(678.3125 0)"/>
     </g>
    </g>
   </g>
  </g>
 </g>
 <defs>
  <clipPath id="pc903ccd197">
   <rect x="57.17" y="26.88" width="392.83" height="276.76"/>
  </clipPath>
 </defs>
</svg>
