<?xml version="1.0" encoding="utf-8" standalone="no"?>
<!DOCTYPE svg PUBLIC "-//W3C//DTD SVG 1.1//EN"
  "http://www.w3.org/Graphics/SVG/1.1/DTD/svg11.dtd">
<svg xmlns:xlink="http://www.w3.org/1999/xlink" width="460.8pt" height="345.6pt" viewBox="0 0 460.8 345.6" xmlns="http://www.w3.org/2000/svg" version="1.1">
 <metadata>
  <rdf:RDF xmlns:dc="http://purl.org/dc/elements/1.1/" xmlns:cc="http://creativecommons.org/ns#" xmlns:rdf="http://www.w3.org/1999/02/22-rdf-syntax-ns#">
   <cc:Work>
    <dc:type rdf:resource="http://purl.org/dc/dcmitype/StillImage"/>
    <dc:date>2025-07-28T21:14:49.950755</dc:date>
    <dc:format>image/svg+xml</dc:format>
    <dc:creator>
     <cc:Agent>
      <dc:title>Matplotlib v3.10.3, https://matplotlib.org/</dc:title>
     </cc:Agent>
    </dc:creator>
   </cc:Work>
  </rdf:RDF>
 </metadata>
 <defs>
  <style type="text/css">*{stroke-linejoin: round; stroke-linecap: butt}</style>
 </defs>
 <g id="figure_1">
  <g id="patch_1">
   <path d="M 0 345.6 
L 460.8 345.6 
L 460.8 0 
L 0 0 
z
" style="fill: #ffffff"/>
  </g>
  <g id="axes_1">
   <g id="patch_2">
    <path d="M 50.87 303.64 
L 450 303.64 
L 450 26.88 
L 50.87 26.88 
z
" style="fill: #ffffff"/>
   </g>
   <g id="matplotlib.axis_1">
    <g id="xtick_1">
     <g id="line2d_1">
      <path d="M 69.284341 303.64 
L 69.284341 26.88 
" clip-path="url(#p9da69886e4)" style="fill: none; stroke: #b0b0b0; stroke-opacity: 0.3; stroke-width: 0.8; stroke-linecap: square"/>
     </g>
     <g id="line2d_2">
      <defs>
       <path id="ma149e7fd7b" d="M 0 0 
L 0 3.5 
" style="stroke: #000000; stroke-width: 0.8"/>
      </defs>
      <g>
       <use xlink:href="#ma149e7fd7b" x="69.284341" y="303.64" style="stroke: #000000; stroke-width: 0.8"/>
      </g>
     </g>
     <g id="text_1">
      <!-- 0.00 -->
      <g transform="translate(58.151528 318.238437) scale(0.1 -0.1)">
       <defs>
        <path id="DejaVuSans-30" d="M 2034 4250 
Q 1547 4250 1301 3770 
Q 1056 3291 1056 2328 
Q 1056 1369 1301 889 
Q 1547 409 2034 409 
Q 2525 409 2770 889 
Q 3016 1369 3016 2328 
Q 3016 3291 2770 3770 
Q 2525 4250 2034 4250 
z
M 2034 4750 
Q 2819 4750 3233 4129 
Q 3647 3509 3647 2328 
Q 3647 1150 3233 529 
Q 2819 -91 2034 -91 
Q 1250 -91 836 529 
Q 422 1150 422 2328 
Q 422 3509 836 4129 
Q 1250 4750 2034 4750 
z
" transform="scale(0.015625)"/>
        <path id="DejaVuSans-2e" d="M 684 794 
L 1344 794 
L 1344 0 
L 684 0 
L 684 794 
z
" transform="scale(0.015625)"/>
       </defs>
       <use xlink:href="#DejaVuSans-30"/>
       <use xlink:href="#DejaVuSans-2e" transform="translate(63.623047 0)"/>
       <use xlink:href="#DejaVuSans-30" transform="translate(95.410156 0)"/>
       <use xlink:href="#DejaVuSans-30" transform="translate(159.033203 0)"/>
      </g>
     </g>
    </g>
    <g id="xtick_2">
     <g id="line2d_3">
      <path d="M 136.908792 303.64 
L 136.908792 26.88 
" clip-path="url(#p9da69886e4)" style="fill: none; stroke: #b0b0b0; stroke-opacity: 0.3; stroke-width: 0.8; stroke-linecap: square"/>
     </g>
     <g id="line2d_4">
      <g>
       <use xlink:href="#ma149e7fd7b" x="136.908792" y="303.64" style="stroke: #000000; stroke-width: 0.8"/>
      </g>
     </g>
     <g id="text_2">
      <!-- 0.02 -->
      <g transform="translate(125.77598 318.238437) scale(0.1 -0.1)">
       <defs>
        <path id="DejaVuSans-32" d="M 1228 531 
L 3431 531 
L 3431 0 
L 469 0 
L 469 531 
Q 828 903 1448 1529 
Q 2069 2156 2228 2338 
Q 2531 2678 2651 2914 
Q 2772 3150 2772 3378 
Q 2772 3750 2511 3984 
Q 2250 4219 1831 4219 
Q 1534 4219 1204 4116 
Q 875 4013 500 3803 
L 500 4441 
Q 881 4594 1212 4672 
Q 1544 4750 1819 4750 
Q 2544 4750 2975 4387 
Q 3406 4025 3406 3419 
Q 3406 3131 3298 2873 
Q 3191 2616 2906 2266 
Q 2828 2175 2409 1742 
Q 1991 1309 1228 531 
z
" transform="scale(0.015625)"/>
       </defs>
       <use xlink:href="#DejaVuSans-30"/>
       <use xlink:href="#DejaVuSans-2e" transform="translate(63.623047 0)"/>
       <use xlink:href="#DejaVuSans-30" transform="translate(95.410156 0)"/>
       <use xlink:href="#DejaVuSans-32" transform="translate(159.033203 0)"/>
      </g>
     </g>
    </g>
    <g id="xtick_3">
     <g id="line2d_5">
      <path d="M 204.533243 303.64 
L 204.533243 26.88 
" clip-path="url(#p9da69886e4)" style="fill: none; stroke: #b0b0b0; stroke-opacity: 0.3; stroke-width: 0.8; stroke-linecap: square"/>
     </g>
     <g id="line2d_6">
      <g>
       <use xlink:href="#ma149e7fd7b" x="204.533243" y="303.64" style="stroke: #000000; stroke-width: 0.8"/>
      </g>
     </g>
     <g id="text_3">
      <!-- 0.04 -->
      <g transform="translate(193.400431 318.238437) scale(0.1 -0.1)">
       <defs>
        <path id="DejaVuSans-34" d="M 2419 4116 
L 825 1625 
L 2419 1625 
L 2419 4116 
z
M 2253 4666 
L 3047 4666 
L 3047 1625 
L 3713 1625 
L 3713 1100 
L 3047 1100 
L 3047 0 
L 2419 0 
L 2419 1100 
L 313 1100 
L 313 1709 
L 2253 4666 
z
" transform="scale(0.015625)"/>
       </defs>
       <use xlink:href="#DejaVuSans-30"/>
       <use xlink:href="#DejaVuSans-2e" transform="translate(63.623047 0)"/>
       <use xlink:href="#DejaVuSans-30" transform="translate(95.410156 0)"/>
       <use xlink:href="#DejaVuSans-34" transform="translate(159.033203 0)"/>
      </g>
     </g>
    </g>
    <g id="xtick_4">
     <g id="line2d_7">
      <path d="M 272.157694 303.64 
L 272.157694 26.88 
" clip-path="url(#p9da69886e4)" style="fill: none; stroke: #b0b0b0; stroke-opacity: 0.3; stroke-width: 0.8; stroke-linecap: square"/>
     </g>
     <g id="line2d_8">
      <g>
       <use xlink:href="#ma149e7fd7b" x="272.157694" y="303.64" style="stroke: #000000; stroke-width: 0.8"/>
      </g>
     </g>
     <g id="text_4">
      <!-- 0.06 -->
      <g transform="translate(261.024882 318.238437) scale(0.1 -0.1)">
       <defs>
        <path id="DejaVuSans-36" d="M 2113 2584 
Q 1688 2584 1439 2293 
Q 1191 2003 1191 1497 
Q 1191 994 1439 701 
Q 1688 409 2113 409 
Q 2538 409 2786 701 
Q 3034 994 3034 1497 
Q 3034 2003 2786 2293 
Q 2538 2584 2113 2584 
z
M 3366 4563 
L 3366 3988 
Q 3128 4100 2886 4159 
Q 2644 4219 2406 4219 
Q 1781 4219 1451 3797 
Q 1122 3375 1075 2522 
Q 1259 2794 1537 2939 
Q 1816 3084 2150 3084 
Q 2853 3084 3261 2657 
Q 3669 2231 3669 1497 
Q 3669 778 3244 343 
Q 2819 -91 2113 -91 
Q 1303 -91 875 529 
Q 447 1150 447 2328 
Q 447 3434 972 4092 
Q 1497 4750 2381 4750 
Q 2619 4750 2861 4703 
Q 3103 4656 3366 4563 
z
" transform="scale(0.015625)"/>
       </defs>
       <use xlink:href="#DejaVuSans-30"/>
       <use xlink:href="#DejaVuSans-2e" transform="translate(63.623047 0)"/>
       <use xlink:href="#DejaVuSans-30" transform="translate(95.410156 0)"/>
       <use xlink:href="#DejaVuSans-36" transform="translate(159.033203 0)"/>
      </g>
     </g>
    </g>
    <g id="xtick_5">
     <g id="line2d_9">
      <path d="M 339.782146 303.64 
L 339.782146 26.88 
" clip-path="url(#p9da69886e4)" style="fill: none; stroke: #b0b0b0; stroke-opacity: 0.3; stroke-width: 0.8; stroke-linecap: square"/>
     </g>
     <g id="line2d_10">
      <g>
       <use xlink:href="#ma149e7fd7b" x="339.782146" y="303.64" style="stroke: #000000; stroke-width: 0.8"/>
      </g>
     </g>
     <g id="text_5">
      <!-- 0.08 -->
      <g transform="translate(328.649333 318.238437) scale(0.1 -0.1)">
       <defs>
        <path id="DejaVuSans-38" d="M 2034 2216 
Q 1584 2216 1326 1975 
Q 1069 1734 1069 1313 
Q 1069 891 1326 650 
Q 1584 409 2034 409 
Q 2484 409 2743 651 
Q 3003 894 3003 1313 
Q 3003 1734 2745 1975 
Q 2488 2216 2034 2216 
z
M 1403 2484 
Q 997 2584 770 2862 
Q 544 3141 544 3541 
Q 544 4100 942 4425 
Q 1341 4750 2034 4750 
Q 2731 4750 3128 4425 
Q 3525 4100 3525 3541 
Q 3525 3141 3298 2862 
Q 3072 2584 2669 2484 
Q 3125 2378 3379 2068 
Q 3634 1759 3634 1313 
Q 3634 634 3220 271 
Q 2806 -91 2034 -91 
Q 1263 -91 848 271 
Q 434 634 434 1313 
Q 434 1759 690 2068 
Q 947 2378 1403 2484 
z
M 1172 3481 
Q 1172 3119 1398 2916 
Q 1625 2713 2034 2713 
Q 2441 2713 2670 2916 
Q 2900 3119 2900 3481 
Q 2900 3844 2670 4047 
Q 2441 4250 2034 4250 
Q 1625 4250 1398 4047 
Q 1172 3844 1172 3481 
z
" transform="scale(0.015625)"/>
       </defs>
       <use xlink:href="#DejaVuSans-30"/>
       <use xlink:href="#DejaVuSans-2e" transform="translate(63.623047 0)"/>
       <use xlink:href="#DejaVuSans-30" transform="translate(95.410156 0)"/>
       <use xlink:href="#DejaVuSans-38" transform="translate(159.033203 0)"/>
      </g>
     </g>
    </g>
    <g id="xtick_6">
     <g id="line2d_11">
      <path d="M 407.406597 303.64 
L 407.406597 26.88 
" clip-path="url(#p9da69886e4)" style="fill: none; stroke: #b0b0b0; stroke-opacity: 0.3; stroke-width: 0.8; stroke-linecap: square"/>
     </g>
     <g id="line2d_12">
      <g>
       <use xlink:href="#ma149e7fd7b" x="407.406597" y="303.64" style="stroke: #000000; stroke-width: 0.8"/>
      </g>
     </g>
     <g id="text_6">
      <!-- 0.10 -->
      <g transform="translate(396.273784 318.238437) scale(0.1 -0.1)">
       <defs>
        <path id="DejaVuSans-31" d="M 794 531 
L 1825 531 
L 1825 4091 
L 703 3866 
L 703 4441 
L 1819 4666 
L 2450 4666 
L 2450 531 
L 3481 531 
L 3481 0 
L 794 0 
L 794 531 
z
" transform="scale(0.015625)"/>
       </defs>
       <use xlink:href="#DejaVuSans-30"/>
       <use xlink:href="#DejaVuSans-2e" transform="translate(63.623047 0)"/>
       <use xlink:href="#DejaVuSans-31" transform="translate(95.410156 0)"/>
       <use xlink:href="#DejaVuSans-30" transform="translate(159.033203 0)"/>
      </g>
     </g>
    </g>
    <g id="text_7">
     <!-- Strain [-] -->
     <g transform="translate(228.32875 331.916562) scale(0.1 -0.1)">
      <defs>
       <path id="DejaVuSans-53" d="M 3425 4513 
L 3425 3897 
Q 3066 4069 2747 4153 
Q 2428 4238 2131 4238 
Q 1616 4238 1336 4038 
Q 1056 3838 1056 3469 
Q 1056 3159 1242 3001 
Q 1428 2844 1947 2747 
L 2328 2669 
Q 3034 2534 3370 2195 
Q 3706 1856 3706 1288 
Q 3706 609 3251 259 
Q 2797 -91 1919 -91 
Q 1588 -91 1214 -16 
Q 841 59 441 206 
L 441 856 
Q 825 641 1194 531 
Q 1563 422 1919 422 
Q 2459 422 2753 634 
Q 3047 847 3047 1241 
Q 3047 1584 2836 1778 
Q 2625 1972 2144 2069 
L 1759 2144 
Q 1053 2284 737 2584 
Q 422 2884 422 3419 
Q 422 4038 858 4394 
Q 1294 4750 2059 4750 
Q 2388 4750 2728 4690 
Q 3069 4631 3425 4513 
z
" transform="scale(0.015625)"/>
       <path id="DejaVuSans-74" d="M 1172 4494 
L 1172 3500 
L 2356 3500 
L 2356 3053 
L 1172 3053 
L 1172 1153 
Q 1172 725 1289 603 
Q 1406 481 1766 481 
L 2356 481 
L 2356 0 
L 1766 0 
Q 1100 0 847 248 
Q 594 497 594 1153 
L 594 3053 
L 172 3053 
L 172 3500 
L 594 3500 
L 594 4494 
L 1172 4494 
z
" transform="scale(0.015625)"/>
       <path id="DejaVuSans-72" d="M 2631 2963 
Q 2534 3019 2420 3045 
Q 2306 3072 2169 3072 
Q 1681 3072 1420 2755 
Q 1159 2438 1159 1844 
L 1159 0 
L 581 0 
L 581 3500 
L 1159 3500 
L 1159 2956 
Q 1341 3275 1631 3429 
Q 1922 3584 2338 3584 
Q 2397 3584 2469 3576 
Q 2541 3569 2628 3553 
L 2631 2963 
z
" transform="scale(0.015625)"/>
       <path id="DejaVuSans-61" d="M 2194 1759 
Q 1497 1759 1228 1600 
Q 959 1441 959 1056 
Q 959 750 1161 570 
Q 1363 391 1709 391 
Q 2188 391 2477 730 
Q 2766 1069 2766 1631 
L 2766 1759 
L 2194 1759 
z
M 3341 1997 
L 3341 0 
L 2766 0 
L 2766 531 
Q 2569 213 2275 61 
Q 1981 -91 1556 -91 
Q 1019 -91 701 211 
Q 384 513 384 1019 
Q 384 1609 779 1909 
Q 1175 2209 1959 2209 
L 2766 2209 
L 2766 2266 
Q 2766 2663 2505 2880 
Q 2244 3097 1772 3097 
Q 1472 3097 1187 3025 
Q 903 2953 641 2809 
L 641 3341 
Q 956 3463 1253 3523 
Q 1550 3584 1831 3584 
Q 2591 3584 2966 3190 
Q 3341 2797 3341 1997 
z
" transform="scale(0.015625)"/>
       <path id="DejaVuSans-69" d="M 603 3500 
L 1178 3500 
L 1178 0 
L 603 0 
L 603 3500 
z
M 603 4863 
L 1178 4863 
L 1178 4134 
L 603 4134 
L 603 4863 
z
" transform="scale(0.015625)"/>
       <path id="DejaVuSans-6e" d="M 3513 2113 
L 3513 0 
L 2938 0 
L 2938 2094 
Q 2938 2591 2744 2837 
Q 2550 3084 2163 3084 
Q 1697 3084 1428 2787 
Q 1159 2491 1159 1978 
L 1159 0 
L 581 0 
L 581 3500 
L 1159 3500 
L 1159 2956 
Q 1366 3272 1645 3428 
Q 1925 3584 2291 3584 
Q 2894 3584 3203 3211 
Q 3513 2838 3513 2113 
z
" transform="scale(0.015625)"/>
       <path id="DejaVuSans-20" transform="scale(0.015625)"/>
       <path id="DejaVuSans-5b" d="M 550 4863 
L 1875 4863 
L 1875 4416 
L 1125 4416 
L 1125 -397 
L 1875 -397 
L 1875 -844 
L 550 -844 
L 550 4863 
z
" transform="scale(0.015625)"/>
       <path id="DejaVuSans-2d" d="M 313 2009 
L 1997 2009 
L 1997 1497 
L 313 1497 
L 313 2009 
z
" transform="scale(0.015625)"/>
       <path id="DejaVuSans-5d" d="M 1947 4863 
L 1947 -844 
L 622 -844 
L 622 -397 
L 1369 -397 
L 1369 4416 
L 622 4416 
L 622 4863 
L 1947 4863 
z
" transform="scale(0.015625)"/>
      </defs>
      <use xlink:href="#DejaVuSans-53"/>
      <use xlink:href="#DejaVuSans-74" transform="translate(63.476562 0)"/>
      <use xlink:href="#DejaVuSans-72" transform="translate(102.685547 0)"/>
      <use xlink:href="#DejaVuSans-61" transform="translate(143.798828 0)"/>
      <use xlink:href="#DejaVuSans-69" transform="translate(205.078125 0)"/>
      <use xlink:href="#DejaVuSans-6e" transform="translate(232.861328 0)"/>
      <use xlink:href="#DejaVuSans-20" transform="translate(296.240234 0)"/>
      <use xlink:href="#DejaVuSans-5b" transform="translate(328.027344 0)"/>
      <use xlink:href="#DejaVuSans-2d" transform="translate(367.041016 0)"/>
      <use xlink:href="#DejaVuSans-5d" transform="translate(403.125 0)"/>
     </g>
    </g>
   </g>
   <g id="matplotlib.axis_2">
    <g id="ytick_1">
     <g id="line2d_13">
      <path d="M 50.87 259.28882 
L 450 259.28882 
" clip-path="url(#p9da69886e4)" style="fill: none; stroke: #b0b0b0; stroke-opacity: 0.3; stroke-width: 0.8; stroke-linecap: square"/>
     </g>
     <g id="line2d_14">
      <defs>
       <path id="mc30909ce97" d="M 0 0 
L -3.5 0 
" style="stroke: #000000; stroke-width: 0.8"/>
      </defs>
      <g>
       <use xlink:href="#mc30909ce97" x="50.87" y="259.28882" style="stroke: #000000; stroke-width: 0.8"/>
      </g>
     </g>
     <g id="text_8">
      <!-- 0 -->
      <g transform="translate(37.5075 263.088039) scale(0.1 -0.1)">
       <use xlink:href="#DejaVuSans-30"/>
      </g>
     </g>
    </g>
    <g id="ytick_2">
     <g id="line2d_15">
      <path d="M 50.87 205.949437 
L 450 205.949437 
" clip-path="url(#p9da69886e4)" style="fill: none; stroke: #b0b0b0; stroke-opacity: 0.3; stroke-width: 0.8; stroke-linecap: square"/>
     </g>
     <g id="line2d_16">
      <g>
       <use xlink:href="#mc30909ce97" x="50.87" y="205.949437" style="stroke: #000000; stroke-width: 0.8"/>
      </g>
     </g>
     <g id="text_9">
      <!-- 200 -->
      <g transform="translate(24.7825 209.748655) scale(0.1 -0.1)">
       <use xlink:href="#DejaVuSans-32"/>
       <use xlink:href="#DejaVuSans-30" transform="translate(63.623047 0)"/>
       <use xlink:href="#DejaVuSans-30" transform="translate(127.246094 0)"/>
      </g>
     </g>
    </g>
    <g id="ytick_3">
     <g id="line2d_17">
      <path d="M 50.87 152.610053 
L 450 152.610053 
" clip-path="url(#p9da69886e4)" style="fill: none; stroke: #b0b0b0; stroke-opacity: 0.3; stroke-width: 0.8; stroke-linecap: square"/>
     </g>
     <g id="line2d_18">
      <g>
       <use xlink:href="#mc30909ce97" x="50.87" y="152.610053" style="stroke: #000000; stroke-width: 0.8"/>
      </g>
     </g>
     <g id="text_10">
      <!-- 400 -->
      <g transform="translate(24.7825 156.409272) scale(0.1 -0.1)">
       <use xlink:href="#DejaVuSans-34"/>
       <use xlink:href="#DejaVuSans-30" transform="translate(63.623047 0)"/>
       <use xlink:href="#DejaVuSans-30" transform="translate(127.246094 0)"/>
      </g>
     </g>
    </g>
    <g id="ytick_4">
     <g id="line2d_19">
      <path d="M 50.87 99.270669 
L 450 99.270669 
" clip-path="url(#p9da69886e4)" style="fill: none; stroke: #b0b0b0; stroke-opacity: 0.3; stroke-width: 0.8; stroke-linecap: square"/>
     </g>
     <g id="line2d_20">
      <g>
       <use xlink:href="#mc30909ce97" x="50.87" y="99.270669" style="stroke: #000000; stroke-width: 0.8"/>
      </g>
     </g>
     <g id="text_11">
      <!-- 600 -->
      <g transform="translate(24.7825 103.069888) scale(0.1 -0.1)">
       <use xlink:href="#DejaVuSans-36"/>
       <use xlink:href="#DejaVuSans-30" transform="translate(63.623047 0)"/>
       <use xlink:href="#DejaVuSans-30" transform="translate(127.246094 0)"/>
      </g>
     </g>
    </g>
    <g id="ytick_5">
     <g id="line2d_21">
      <path d="M 50.87 45.931285 
L 450 45.931285 
" clip-path="url(#p9da69886e4)" style="fill: none; stroke: #b0b0b0; stroke-opacity: 0.3; stroke-width: 0.8; stroke-linecap: square"/>
     </g>
     <g id="line2d_22">
      <g>
       <use xlink:href="#mc30909ce97" x="50.87" y="45.931285" style="stroke: #000000; stroke-width: 0.8"/>
      </g>
     </g>
     <g id="text_12">
      <!-- 800 -->
      <g transform="translate(24.7825 49.730504) scale(0.1 -0.1)">
       <use xlink:href="#DejaVuSans-38"/>
       <use xlink:href="#DejaVuSans-30" transform="translate(63.623047 0)"/>
       <use xlink:href="#DejaVuSans-30" transform="translate(127.246094 0)"/>
      </g>
     </g>
    </g>
    <g id="text_13">
     <!-- Stress [Pa] -->
     <g transform="translate(18.702813 191.967812) rotate(-90) scale(0.1 -0.1)">
      <defs>
       <path id="DejaVuSans-65" d="M 3597 1894 
L 3597 1613 
L 953 1613 
Q 991 1019 1311 708 
Q 1631 397 2203 397 
Q 2534 397 2845 478 
Q 3156 559 3463 722 
L 3463 178 
Q 3153 47 2828 -22 
Q 2503 -91 2169 -91 
Q 1331 -91 842 396 
Q 353 884 353 1716 
Q 353 2575 817 3079 
Q 1281 3584 2069 3584 
Q 2775 3584 3186 3129 
Q 3597 2675 3597 1894 
z
M 3022 2063 
Q 3016 2534 2758 2815 
Q 2500 3097 2075 3097 
Q 1594 3097 1305 2825 
Q 1016 2553 972 2059 
L 3022 2063 
z
" transform="scale(0.015625)"/>
       <path id="DejaVuSans-73" d="M 2834 3397 
L 2834 2853 
Q 2591 2978 2328 3040 
Q 2066 3103 1784 3103 
Q 1356 3103 1142 2972 
Q 928 2841 928 2578 
Q 928 2378 1081 2264 
Q 1234 2150 1697 2047 
L 1894 2003 
Q 2506 1872 2764 1633 
Q 3022 1394 3022 966 
Q 3022 478 2636 193 
Q 2250 -91 1575 -91 
Q 1294 -91 989 -36 
Q 684 19 347 128 
L 347 722 
Q 666 556 975 473 
Q 1284 391 1588 391 
Q 1994 391 2212 530 
Q 2431 669 2431 922 
Q 2431 1156 2273 1281 
Q 2116 1406 1581 1522 
L 1381 1569 
Q 847 1681 609 1914 
Q 372 2147 372 2553 
Q 372 3047 722 3315 
Q 1072 3584 1716 3584 
Q 2034 3584 2315 3537 
Q 2597 3491 2834 3397 
z
" transform="scale(0.015625)"/>
       <path id="DejaVuSans-50" d="M 1259 4147 
L 1259 2394 
L 2053 2394 
Q 2494 2394 2734 2622 
Q 2975 2850 2975 3272 
Q 2975 3691 2734 3919 
Q 2494 4147 2053 4147 
L 1259 4147 
z
M 628 4666 
L 2053 4666 
Q 2838 4666 3239 4311 
Q 3641 3956 3641 3272 
Q 3641 2581 3239 2228 
Q 2838 1875 2053 1875 
L 1259 1875 
L 1259 0 
L 628 0 
L 628 4666 
z
" transform="scale(0.015625)"/>
      </defs>
      <use xlink:href="#DejaVuSans-53"/>
      <use xlink:href="#DejaVuSans-74" transform="translate(63.476562 0)"/>
      <use xlink:href="#DejaVuSans-72" transform="translate(102.685547 0)"/>
      <use xlink:href="#DejaVuSans-65" transform="translate(141.548828 0)"/>
      <use xlink:href="#DejaVuSans-73" transform="translate(203.072266 0)"/>
      <use xlink:href="#DejaVuSans-73" transform="translate(255.171875 0)"/>
      <use xlink:href="#DejaVuSans-20" transform="translate(307.271484 0)"/>
      <use xlink:href="#DejaVuSans-5b" transform="translate(339.058594 0)"/>
      <use xlink:href="#DejaVuSans-50" transform="translate(378.072266 0)"/>
      <use xlink:href="#DejaVuSans-61" transform="translate(433.875 0)"/>
      <use xlink:href="#DejaVuSans-5d" transform="translate(495.154297 0)"/>
     </g>
    </g>
   </g>
   <g id="line2d_23">
    <path d="M 69.284341 260.534821 
L 69.284341 260.195968 
L 69.286912 260.632356 
L 69.27954 260.60862 
L 69.540658 260.445691 
L 70.787939 253.586265 
L 72.037696 255.755868 
L 73.279622 255.821947 
L 74.584197 254.152718 
L 75.824741 251.891472 
L 77.103519 250.57363 
L 78.382297 251.550486 
L 79.755971 253.211282 
L 80.995133 255.091343 
L 82.226924 257.668556 
L 83.569273 258.57907 
L 84.836074 257.128544 
L 86.052203 255.40478 
L 87.392709 254.063325 
L 88.715711 253.404123 
L 90.02305 253.334551 
L 91.30367 253.94224 
L 92.526249 254.752538 
L 93.784758 253.625851 
L 95.090715 251.489418 
L 96.36719 250.036644 
L 97.64689 248.948187 
L 100.171278 247.288235 
L 101.414125 247.298074 
L 102.667107 247.446535 
L 103.909033 247.143499 
L 106.345898 246.031148 
L 108.988215 244.143497 
L 110.196052 243.66561 
L 112.622984 243.022849 
L 113.830822 242.294775 
L 116.363503 241.372173 
L 117.68374 240.545148 
L 118.99845 239.918555 
L 121.619577 238.160495 
L 124.255445 236.64672 
L 125.466046 235.957158 
L 130.329645 233.663866 
L 131.54946 232.949285 
L 132.774802 232.419393 
L 136.46557 230.471023 
L 138.924547 229.193098 
L 141.383523 227.789799 
L 142.609787 227.454295 
L 143.826837 226.916532 
L 152.970839 221.62689 
L 155.617763 219.85365 
L 160.89042 216.805016 
L 163.515233 214.978928 
L 166.16492 213.408369 
L 169.823443 211.632599 
L 171.048785 210.890189 
L 172.273206 210.334716 
L 175.93419 208.249304 
L 178.362763 207.061335 
L 188.041125 201.196826 
L 190.461413 199.462098 
L 192.882616 198.395006 
L 195.523091 196.777501 
L 198.15988 195.152688 
L 202.127962 192.777592 
L 204.778571 190.923112 
L 205.990094 190.417396 
L 211.174306 187.001352 
L 215.130411 184.679953 
L 216.442356 183.782088 
L 217.757987 182.712185 
L 222.71832 180.094773 
L 227.674047 177.055135 
L 230.3136 175.578747 
L 231.622782 174.77899 
L 234.234307 173.015379 
L 236.85267 171.368357 
L 239.482089 169.831531 
L 242.107823 168.144592 
L 243.427139 167.157897 
L 247.28927 164.955122 
L 249.939879 162.946313 
L 254.794262 160.128189 
L 257.22652 158.665294 
L 262.085509 155.553411 
L 264.514083 154.050036 
L 268.492299 151.03373 
L 269.818064 150.190963 
L 271.140144 149.496623 
L 275.073217 146.951737 
L 277.684209 145.152917 
L 278.988784 144.521263 
L 281.589643 142.857375 
L 286.792741 138.964007 
L 288.110214 138.168467 
L 289.43598 137.507578 
L 290.650266 136.662562 
L 294.31852 134.797514 
L 299.180273 131.588929 
L 302.920791 128.894212 
L 305.553895 126.682441 
L 308.191606 124.799007 
L 309.514607 124.099325 
L 326.480532 112.780727 
L 328.904498 111.078336 
L 331.350576 109.752342 
L 336.286956 106.533074 
L 337.528881 105.932343 
L 341.2132 103.092011 
L 347.300296 98.86862 
L 348.626982 97.685148 
L 349.950905 96.666407 
L 351.278512 96.061178 
L 352.602435 95.263951 
L 353.927279 94.304805 
L 356.567235 92.583606 
L 357.881944 91.689677 
L 361.838971 88.553618 
L 365.487359 85.971908 
L 366.700724 84.972844 
L 370.338056 82.344469 
L 371.556028 81.729963 
L 373.988286 80.142818 
L 377.632989 77.452599 
L 380.077224 75.733895 
L 382.514089 73.779058 
L 383.727455 72.584905 
L 386.153264 70.885316 
L 388.687788 69.168298 
L 392.644815 65.993446 
L 395.293581 64.32253 
L 397.936819 62.314283 
L 400.471343 60.002438 
L 404.127101 57.664168 
L 405.345995 56.716266 
L 412.682386 51.90648 
L 418.757764 46.932632 
L 421.18818 45.552665 
L 423.765545 44.611791 
L 427.472435 43.871032 
L 428.694553 43.292649 
L 429.928648 42.351213 
L 431.28735 39.46 
L 431.857727 39.8444 
L 431.686277 42.059069 
L 431.556459 45.073004 
L 431.554616 69.124972 
L 431.552515 68.744385 
L 430.341424 69.130296 
L 427.893848 74.629081 
L 425.374066 73.571617 
L 424.079164 73.866765 
L 421.602683 74.660759 
L 420.380133 74.415947 
L 419.130376 74.980205 
L 417.849755 74.743792 
L 416.619346 77.946192 
L 415.389857 79.919301 
L 412.91614 82.894003 
L 411.658552 84.768442 
L 410.428603 84.974917 
L 409.130938 84.311358 
L 407.861833 84.533979 
L 406.584437 85.048691 
L 405.354949 85.728273 
L 404.110028 86.132474 
L 402.875934 88.375254 
L 401.645524 91.963338 
L 400.38356 92.991883 
L 399.136336 93.125814 
L 396.617935 93.620584 
L 395.385222 94.634266 
L 394.130859 95.885204 
L 392.892618 97.737997 
L 391.683859 98.655539 
L 390.429265 99.776323 
L 389.171677 100.214819 
L 386.668967 102.368171 
L 385.414143 103.471246 
L 384.191104 103.84723 
L 382.924303 104.602571 
L 381.712319 105.639585 
L 380.499184 106.479821 
L 379.245281 107.839549 
L 378.009344 109.347421 
L 376.784693 110.15041 
L 375.518352 110.728372 
L 374.296695 111.065053 
L 371.787277 113.056574 
L 370.547193 114.414896 
L 368.063802 116.144423 
L 366.850437 116.818384 
L 363.081358 119.819229 
L 361.862464 120.90375 
L 360.617775 121.796273 
L 358.141754 123.361491 
L 354.428788 126.150907 
L 353.163829 127.183985 
L 350.73065 128.702117 
L 347.030438 131.470204 
L 345.778148 132.82206 
L 344.548199 133.648663 
L 343.30443 134.152693 
L 340.85006 135.650866 
L 339.600764 136.528631 
L 338.3745 137.862778 
L 337.121518 138.981313 
L 333.411864 141.06061 
L 332.182145 142.07893 
L 329.719714 144.463864 
L 328.50082 145.209367 
L 326.048466 146.345823 
L 322.349867 149.095918 
L 321.103104 150.140522 
L 319.878683 150.818699 
L 318.643206 151.304035 
L 314.904991 153.796001 
L 312.431273 155.813384 
L 308.74694 158.237393 
L 303.893479 161.515342 
L 302.68472 162.137929 
L 295.141624 167.108976 
L 292.629211 168.60729 
L 291.367938 169.604105 
L 287.690529 171.99438 
L 286.429255 172.961116 
L 285.170285 173.744568 
L 281.458788 175.643675 
L 280.239895 176.415461 
L 275.390119 180.141288 
L 270.436695 182.950909 
L 269.228858 183.723257 
L 266.789229 185.018189 
L 265.523191 185.746263 
L 263.007093 187.656403 
L 261.73891 188.394597 
L 260.527387 188.929548 
L 259.310336 189.637945 
L 258.09605 190.214501 
L 251.843119 194.134855 
L 249.357424 195.536609 
L 246.913649 197.118694 
L 243.177737 199.273399 
L 240.748703 200.380479 
L 239.534877 201.130761 
L 238.270379 202.10846 
L 234.528378 204.463364 
L 230.879529 206.737962 
L 229.653726 207.597876 
L 228.415946 208.243585 
L 227.183233 208.652951 
L 224.755582 210.029686 
L 223.499836 210.720513 
L 221.022894 212.602963 
L 218.55148 213.535369 
L 216.095498 214.876121 
L 213.610494 216.686326 
L 212.342771 217.626076 
L 209.920647 218.987068 
L 207.402707 220.110945 
L 204.926931 221.52931 
L 202.488684 222.898032 
L 198.847667 224.920616 
L 197.638447 225.536106 
L 195.116361 227.211519 
L 192.640801 228.422891 
L 191.416841 229.013853 
L 190.187813 229.400485 
L 188.967538 230.087235 
L 185.242682 232.552145 
L 182.725202 234.089393 
L 181.504005 234.713492 
L 180.270832 235.142852 
L 175.358824 237.797532 
L 174.134634 238.854083 
L 172.893629 239.332953 
L 171.639726 240.197928 
L 167.897825 242.116536 
L 166.640237 243.003999 
L 165.372515 243.665028 
L 162.952694 245.194827 
L 157.996967 247.491774 
L 155.526935 248.9222 
L 154.303435 249.612605 
L 151.857357 250.578217 
L 148.084132 252.518014 
L 145.602583 253.841197 
L 144.382107 254.417613 
L 139.484883 257.376151 
L 136.9651 258.65014 
L 135.704748 259.137163 
L 133.184505 260.481429 
L 130.763762 261.556041 
L 122.113349 265.980003 
L 120.900905 266.469204 
L 115.898191 269.397524 
L 114.638973 270.138725 
L 110.97308 271.55109 
L 107.204001 273.848459 
L 103.566669 275.211419 
L 102.306777 276.060229 
L 101.053335 276.620551 
L 98.542767 278.102561 
L 97.315582 278.497169 
L 96.086094 278.763591 
L 91.102497 281.67441 
L 88.641678 282.637106 
L 86.146771 283.523514 
L 84.883516 284.223166 
L 83.64919 285.210423 
L 79.899919 287.197165 
L 77.447852 287.868543 
L 76.237712 288.725505 
L 75.029875 289.349006 
L 73.782421 289.652271 
L 72.551781 289.800585 
L 71.330124 289.818576 
L 70.100751 289.982858 
L 69.565873 290.58113 
L 69.326274 291.06 
L 69.013424 289.779759 
L 69.013424 289.779759 
" clip-path="url(#p9da69886e4)" style="fill: none; stroke: #ff0000; stroke-width: 2; stroke-linecap: square"/>
   </g>
   <g id="line2d_24">
    <path d="M 69.284341 260.534821 
L 69.284341 260.195968 
L 69.286912 260.632356 
L 69.27954 260.60862 
L 69.540658 260.445691 
L 70.787939 253.586265 
L 72.037696 255.755868 
L 73.279622 255.821947 
L 74.584197 254.152718 
L 75.824741 257.136731 
L 77.103519 254.395666 
L 78.382297 254.076045 
L 80.995133 255.73684 
L 82.226924 257.673264 
L 83.569273 258.57907 
L 84.836074 257.128544 
L 86.052203 255.40478 
L 87.392709 254.063325 
L 88.715711 253.404123 
L 90.02305 253.334551 
L 91.30367 253.94224 
L 92.526249 254.752538 
L 93.784758 253.625851 
L 95.090715 251.489418 
L 96.36719 250.036644 
L 97.64689 248.948187 
L 100.171278 247.288235 
L 101.414125 247.298074 
L 102.667107 247.446535 
L 103.909033 247.143499 
L 106.345898 246.031148 
L 108.988215 244.143497 
L 110.196052 243.66561 
L 112.622984 243.022849 
L 113.830822 242.294775 
L 116.363503 241.372173 
L 117.68374 240.545148 
L 118.99845 239.918555 
L 121.619577 238.160495 
L 124.255445 236.64672 
L 125.466046 235.957158 
L 130.329645 233.663866 
L 131.54946 232.949285 
L 132.774802 232.419393 
L 136.46557 230.471023 
L 138.924547 229.193098 
L 141.383523 227.789799 
L 142.609787 227.454295 
L 143.826837 226.916532 
L 152.970839 221.62689 
L 155.617763 219.85365 
L 160.89042 216.805016 
L 163.515233 214.978928 
L 166.16492 213.408369 
L 169.823443 211.632599 
L 171.048785 210.890189 
L 172.273206 210.334716 
L 175.93419 208.249304 
L 178.362763 207.061335 
L 188.041125 201.196826 
L 190.461413 199.462098 
L 192.882616 198.395006 
L 195.523091 196.777501 
L 198.15988 195.152688 
L 202.127962 192.777592 
L 204.778571 190.923112 
L 205.990094 190.417396 
L 211.174306 187.001352 
L 215.130411 184.679953 
L 216.442356 183.782088 
L 217.757987 182.712185 
L 222.71832 180.094773 
L 227.674047 177.055135 
L 230.3136 175.578747 
L 231.622782 174.77899 
L 234.234307 173.015379 
L 236.85267 171.368357 
L 239.482089 169.831531 
L 242.107823 168.144592 
L 243.427139 167.157897 
L 247.28927 164.955122 
L 249.939879 162.946313 
L 254.794262 160.128189 
L 257.22652 158.665294 
L 262.085509 155.553411 
L 264.514083 154.050036 
L 268.492299 151.03373 
L 269.818064 150.190963 
L 271.140144 149.496623 
L 275.073217 146.951737 
L 277.684209 145.152917 
L 278.988784 144.521263 
L 281.589643 142.857375 
L 286.792741 138.964007 
L 288.110214 138.168467 
L 289.43598 137.507578 
L 290.650266 136.662562 
L 294.31852 134.797514 
L 299.180273 131.588929 
L 302.920791 128.894212 
L 305.553895 126.682441 
L 308.191606 124.799007 
L 309.514607 124.099325 
L 326.480532 112.780727 
L 328.904498 111.078336 
L 331.350576 109.752342 
L 336.286956 106.533074 
L 337.528881 105.932343 
L 341.2132 103.092011 
L 347.300296 98.86862 
L 348.626982 97.685148 
L 349.950905 96.666407 
L 351.278512 96.061178 
L 352.602435 95.263951 
L 353.927279 94.304805 
L 356.567235 92.583606 
L 357.881944 91.689677 
L 361.838971 88.553618 
L 365.487359 85.971908 
L 366.700724 84.972844 
L 370.338056 82.344469 
L 371.556028 81.729963 
L 373.988286 80.142818 
L 377.632989 77.452599 
L 380.077224 75.733895 
L 382.514089 73.779058 
L 383.727455 72.584905 
L 386.153264 70.885316 
L 388.687788 69.168298 
L 392.644815 65.993446 
L 395.293581 64.32253 
L 397.936819 62.314283 
L 400.471343 60.002438 
L 404.127101 57.664168 
L 405.345995 56.716266 
L 412.682386 51.90648 
L 418.757764 46.932632 
L 421.18818 45.552665 
L 423.765545 44.611791 
L 427.472435 43.871032 
L 428.694553 43.292649 
L 429.928648 42.351213 
L 431.28735 39.46 
L 431.857727 39.8444 
L 431.818687 40.946666 
L 431.74645 40.333144 
L 431.686277 40.716568 
L 431.638772 40.193423 
L 431.553349 59.442871 
L 431.558561 67.524703 
L 431.559079 59.091273 
L 431.558964 67.322568 
L 431.554616 69.124972 
L 431.55954 67.024117 
L 431.552515 68.744385 
L 430.341424 69.130296 
L 427.893848 74.629081 
L 425.374066 73.571617 
L 424.079164 73.866765 
L 421.602683 74.660759 
L 420.380133 74.415947 
L 419.130376 74.980205 
L 417.849755 74.743792 
L 416.619346 77.946192 
L 415.389857 79.919301 
L 412.91614 82.894003 
L 411.658552 84.768442 
L 410.428603 84.974917 
L 409.130938 84.311358 
L 407.861833 84.533979 
L 406.584437 85.048691 
L 405.354949 85.728273 
L 404.110028 86.132474 
L 402.875934 88.375254 
L 401.645524 91.963338 
L 400.38356 92.991883 
L 399.136336 93.125814 
L 396.617935 93.620584 
L 395.385222 94.634266 
L 394.130859 95.885204 
L 392.892618 97.737997 
L 391.683859 98.655539 
L 390.429265 99.776323 
L 389.171677 100.214819 
L 386.668967 102.368171 
L 385.414143 103.471246 
L 384.191104 103.84723 
L 382.924303 104.602571 
L 381.712319 105.639585 
L 380.499184 106.479821 
L 379.245281 107.839549 
L 378.009344 109.347421 
L 376.784693 110.15041 
L 375.518352 110.728372 
L 374.296695 111.065053 
L 371.787277 113.056574 
L 370.547193 114.414896 
L 368.063802 116.144423 
L 366.850437 116.818384 
L 363.081358 119.819229 
L 361.862464 120.90375 
L 360.617775 121.796273 
L 358.141754 123.361491 
L 354.428788 126.150907 
L 353.163829 127.183985 
L 350.73065 128.702117 
L 347.030438 131.470204 
L 345.778148 132.82206 
L 344.548199 133.648663 
L 343.30443 134.152693 
L 340.85006 135.650866 
L 339.600764 136.528631 
L 338.3745 137.862778 
L 337.121518 138.981313 
L 333.411864 141.06061 
L 332.182145 142.07893 
L 329.719714 144.463864 
L 328.50082 145.209367 
L 326.048466 146.345823 
L 322.349867 149.095918 
L 321.103104 150.140522 
L 319.878683 150.818699 
L 318.643206 151.304035 
L 314.904991 153.796001 
L 312.431273 155.813384 
L 308.74694 158.237393 
L 303.893479 161.515342 
L 302.68472 162.137929 
L 295.141624 167.108976 
L 292.629211 168.60729 
L 291.367938 169.604105 
L 287.690529 171.99438 
L 286.429255 172.961116 
L 285.170285 173.744568 
L 281.458788 175.643675 
L 280.239895 176.415461 
L 275.390119 180.141288 
L 270.436695 182.950909 
L 269.228858 183.723257 
L 266.789229 185.018189 
L 265.523191 185.746263 
L 263.007093 187.656403 
L 261.73891 188.394597 
L 260.527387 188.929548 
L 259.310336 189.637945 
L 258.09605 190.214501 
L 251.843119 194.134855 
L 249.357424 195.536609 
L 246.913649 197.118694 
L 243.177737 199.273399 
L 240.748703 200.380479 
L 239.534877 201.130761 
L 238.270379 202.10846 
L 234.528378 204.463364 
L 230.879529 206.737962 
L 229.653726 207.597876 
L 228.415946 208.243585 
L 227.183233 208.652951 
L 224.755582 210.029686 
L 223.499836 210.720513 
L 221.022894 212.602963 
L 218.55148 213.535369 
L 216.095498 214.876121 
L 213.610494 216.686326 
L 212.342771 217.626076 
L 209.920647 218.987068 
L 207.402707 220.110945 
L 204.926931 221.52931 
L 202.488684 222.898032 
L 198.847667 224.920616 
L 197.638447 225.536106 
L 195.116361 227.305168 
L 191.416841 229.013853 
L 190.187813 229.400485 
L 188.967538 230.087235 
L 185.242682 232.552145 
L 182.725202 234.089393 
L 181.504005 234.713492 
L 180.270832 235.142852 
L 175.358824 237.797532 
L 174.134634 238.854083 
L 172.893629 239.332953 
L 171.639726 240.197928 
L 167.897825 242.116536 
L 166.640237 243.003999 
L 165.372515 243.665028 
L 162.952694 245.194827 
L 157.996967 247.491774 
L 155.526935 248.9222 
L 154.303435 249.612605 
L 151.857357 250.578217 
L 148.084132 252.518014 
L 145.602583 253.841197 
L 144.382107 254.417613 
L 139.484883 257.376151 
L 136.9651 258.65014 
L 135.704748 259.137163 
L 133.184505 260.481429 
L 130.763762 261.556041 
L 122.113349 265.980003 
L 120.900905 266.469204 
L 115.898191 269.397524 
L 114.638973 270.138725 
L 110.97308 271.55109 
L 107.204001 273.848459 
L 103.566669 275.211419 
L 102.306777 276.060229 
L 101.053335 276.620551 
L 98.542767 278.102561 
L 97.315582 278.497169 
L 96.086094 278.763591 
L 91.102497 281.67441 
L 88.641678 282.637106 
L 86.146771 283.523514 
L 84.883516 284.223166 
L 83.64919 285.210423 
L 79.899919 287.197165 
L 77.447852 287.868543 
L 76.237712 288.725505 
L 75.029875 289.349006 
L 73.782421 289.652271 
L 72.551781 289.800585 
L 71.330124 289.818576 
L 70.100751 289.982858 
L 69.565873 290.58113 
L 69.326274 291.06 
L 69.013424 289.779759 
L 69.013424 289.779759 
" clip-path="url(#p9da69886e4)" style="fill: none; stroke: #000000; stroke-width: 2; stroke-linecap: square"/>
   </g>
   <g id="patch_3">
    <path d="M 50.87 303.64 
L 50.87 26.88 
" style="fill: none; stroke: #000000; stroke-width: 0.8; stroke-linejoin: miter; stroke-linecap: square"/>
   </g>
   <g id="patch_4">
    <path d="M 450 303.64 
L 450 26.88 
" style="fill: none; stroke: #000000; stroke-width: 0.8; stroke-linejoin: miter; stroke-linecap: square"/>
   </g>
   <g id="patch_5">
    <path d="M 50.87 303.64 
L 450 303.64 
" style="fill: none; stroke: #000000; stroke-width: 0.8; stroke-linejoin: miter; stroke-linecap: square"/>
   </g>
   <g id="patch_6">
    <path d="M 50.87 26.88 
L 450 26.88 
" style="fill: none; stroke: #000000; stroke-width: 0.8; stroke-linejoin: miter; stroke-linecap: square"/>
   </g>
   <g id="text_14">
    <!-- 2025-07-02 Trial 9 - Stress vs Strain -->
    <g transform="translate(142.998438 20.88) scale(0.12 -0.12)">
     <defs>
      <path id="DejaVuSans-35" d="M 691 4666 
L 3169 4666 
L 3169 4134 
L 1269 4134 
L 1269 2991 
Q 1406 3038 1543 3061 
Q 1681 3084 1819 3084 
Q 2600 3084 3056 2656 
Q 3513 2228 3513 1497 
Q 3513 744 3044 326 
Q 2575 -91 1722 -91 
Q 1428 -91 1123 -41 
Q 819 9 494 109 
L 494 744 
Q 775 591 1075 516 
Q 1375 441 1709 441 
Q 2250 441 2565 725 
Q 2881 1009 2881 1497 
Q 2881 1984 2565 2268 
Q 2250 2553 1709 2553 
Q 1456 2553 1204 2497 
Q 953 2441 691 2322 
L 691 4666 
z
" transform="scale(0.015625)"/>
      <path id="DejaVuSans-37" d="M 525 4666 
L 3525 4666 
L 3525 4397 
L 1831 0 
L 1172 0 
L 2766 4134 
L 525 4134 
L 525 4666 
z
" transform="scale(0.015625)"/>
      <path id="DejaVuSans-54" d="M -19 4666 
L 3928 4666 
L 3928 4134 
L 2272 4134 
L 2272 0 
L 1638 0 
L 1638 4134 
L -19 4134 
L -19 4666 
z
" transform="scale(0.015625)"/>
      <path id="DejaVuSans-6c" d="M 603 4863 
L 1178 4863 
L 1178 0 
L 603 0 
L 603 4863 
z
" transform="scale(0.015625)"/>
      <path id="DejaVuSans-39" d="M 703 97 
L 703 672 
Q 941 559 1184 500 
Q 1428 441 1663 441 
Q 2288 441 2617 861 
Q 2947 1281 2994 2138 
Q 2813 1869 2534 1725 
Q 2256 1581 1919 1581 
Q 1219 1581 811 2004 
Q 403 2428 403 3163 
Q 403 3881 828 4315 
Q 1253 4750 1959 4750 
Q 2769 4750 3195 4129 
Q 3622 3509 3622 2328 
Q 3622 1225 3098 567 
Q 2575 -91 1691 -91 
Q 1453 -91 1209 -44 
Q 966 3 703 97 
z
M 1959 2075 
Q 2384 2075 2632 2365 
Q 2881 2656 2881 3163 
Q 2881 3666 2632 3958 
Q 2384 4250 1959 4250 
Q 1534 4250 1286 3958 
Q 1038 3666 1038 3163 
Q 1038 2656 1286 2365 
Q 1534 2075 1959 2075 
z
" transform="scale(0.015625)"/>
      <path id="DejaVuSans-76" d="M 191 3500 
L 800 3500 
L 1894 563 
L 2988 3500 
L 3597 3500 
L 2284 0 
L 1503 0 
L 191 3500 
z
" transform="scale(0.015625)"/>
     </defs>
     <use xlink:href="#DejaVuSans-32"/>
     <use xlink:href="#DejaVuSans-30" transform="translate(63.623047 0)"/>
     <use xlink:href="#DejaVuSans-32" transform="translate(127.246094 0)"/>
     <use xlink:href="#DejaVuSans-35" transform="translate(190.869141 0)"/>
     <use xlink:href="#DejaVuSans-2d" transform="translate(254.492188 0)"/>
     <use xlink:href="#DejaVuSans-30" transform="translate(290.576172 0)"/>
     <use xlink:href="#DejaVuSans-37" transform="translate(354.199219 0)"/>
     <use xlink:href="#DejaVuSans-2d" transform="translate(417.822266 0)"/>
     <use xlink:href="#DejaVuSans-30" transform="translate(453.90625 0)"/>
     <use xlink:href="#DejaVuSans-32" transform="translate(517.529297 0)"/>
     <use xlink:href="#DejaVuSans-20" transform="translate(581.152344 0)"/>
     <use xlink:href="#DejaVuSans-54" transform="translate(612.939453 0)"/>
     <use xlink:href="#DejaVuSans-72" transform="translate(659.273438 0)"/>
     <use xlink:href="#DejaVuSans-69" transform="translate(700.386719 0)"/>
     <use xlink:href="#DejaVuSans-61" transform="translate(728.169922 0)"/>
     <use xlink:href="#DejaVuSans-6c" transform="translate(789.449219 0)"/>
     <use xlink:href="#DejaVuSans-20" transform="translate(817.232422 0)"/>
     <use xlink:href="#DejaVuSans-39" transform="translate(849.019531 0)"/>
     <use xlink:href="#DejaVuSans-20" transform="translate(912.642578 0)"/>
     <use xlink:href="#DejaVuSans-2d" transform="translate(944.429688 0)"/>
     <use xlink:href="#DejaVuSans-20" transform="translate(980.513672 0)"/>
     <use xlink:href="#DejaVuSans-53" transform="translate(1012.300781 0)"/>
     <use xlink:href="#DejaVuSans-74" transform="translate(1075.777344 0)"/>
     <use xlink:href="#DejaVuSans-72" transform="translate(1114.986328 0)"/>
     <use xlink:href="#DejaVuSans-65" transform="translate(1153.849609 0)"/>
     <use xlink:href="#DejaVuSans-73" transform="translate(1215.373047 0)"/>
     <use xlink:href="#DejaVuSans-73" transform="translate(1267.472656 0)"/>
     <use xlink:href="#DejaVuSans-20" transform="translate(1319.572266 0)"/>
     <use xlink:href="#DejaVuSans-76" transform="translate(1351.359375 0)"/>
     <use xlink:href="#DejaVuSans-73" transform="translate(1410.539062 0)"/>
     <use xlink:href="#DejaVuSans-20" transform="translate(1462.638672 0)"/>
     <use xlink:href="#DejaVuSans-53" transform="translate(1494.425781 0)"/>
     <use xlink:href="#DejaVuSans-74" transform="translate(1557.902344 0)"/>
     <use xlink:href="#DejaVuSans-72" transform="translate(1597.111328 0)"/>
     <use xlink:href="#DejaVuSans-61" transform="translate(1638.224609 0)"/>
     <use xlink:href="#DejaVuSans-69" transform="translate(1699.503906 0)"/>
     <use xlink:href="#DejaVuSans-6e" transform="translate(1727.287109 0)"/>
    </g>
   </g>
   <g id="legend_1">
    <g id="patch_7">
     <path d="M 57.87 64.23625 
L 163.854375 64.23625 
Q 165.854375 64.23625 165.854375 62.23625 
L 165.854375 33.88 
Q 165.854375 31.88 163.854375 31.88 
L 57.87 31.88 
Q 55.87 31.88 55.87 33.88 
L 55.87 62.23625 
Q 55.87 64.23625 57.87 64.23625 
z
" style="fill: #ffffff; opacity: 0.8; stroke: #cccccc; stroke-linejoin: miter"/>
    </g>
    <g id="line2d_25">
     <path d="M 59.87 39.978437 
L 69.87 39.978437 
L 79.87 39.978437 
" style="fill: none; stroke: #ff0000; stroke-width: 2; stroke-linecap: square"/>
    </g>
    <g id="text_15">
     <!-- Raw Force -->
     <g transform="translate(87.87 43.478437) scale(0.1 -0.1)">
      <defs>
       <path id="DejaVuSans-52" d="M 2841 2188 
Q 3044 2119 3236 1894 
Q 3428 1669 3622 1275 
L 4263 0 
L 3584 0 
L 2988 1197 
Q 2756 1666 2539 1819 
Q 2322 1972 1947 1972 
L 1259 1972 
L 1259 0 
L 628 0 
L 628 4666 
L 2053 4666 
Q 2853 4666 3247 4331 
Q 3641 3997 3641 3322 
Q 3641 2881 3436 2590 
Q 3231 2300 2841 2188 
z
M 1259 4147 
L 1259 2491 
L 2053 2491 
Q 2509 2491 2742 2702 
Q 2975 2913 2975 3322 
Q 2975 3731 2742 3939 
Q 2509 4147 2053 4147 
L 1259 4147 
z
" transform="scale(0.015625)"/>
       <path id="DejaVuSans-77" d="M 269 3500 
L 844 3500 
L 1563 769 
L 2278 3500 
L 2956 3500 
L 3675 769 
L 4391 3500 
L 4966 3500 
L 4050 0 
L 3372 0 
L 2619 2869 
L 1863 0 
L 1184 0 
L 269 3500 
z
" transform="scale(0.015625)"/>
       <path id="DejaVuSans-46" d="M 628 4666 
L 3309 4666 
L 3309 4134 
L 1259 4134 
L 1259 2759 
L 3109 2759 
L 3109 2228 
L 1259 2228 
L 1259 0 
L 628 0 
L 628 4666 
z
" transform="scale(0.015625)"/>
       <path id="DejaVuSans-6f" d="M 1959 3097 
Q 1497 3097 1228 2736 
Q 959 2375 959 1747 
Q 959 1119 1226 758 
Q 1494 397 1959 397 
Q 2419 397 2687 759 
Q 2956 1122 2956 1747 
Q 2956 2369 2687 2733 
Q 2419 3097 1959 3097 
z
M 1959 3584 
Q 2709 3584 3137 3096 
Q 3566 2609 3566 1747 
Q 3566 888 3137 398 
Q 2709 -91 1959 -91 
Q 1206 -91 779 398 
Q 353 888 353 1747 
Q 353 2609 779 3096 
Q 1206 3584 1959 3584 
z
" transform="scale(0.015625)"/>
       <path id="DejaVuSans-63" d="M 3122 3366 
L 3122 2828 
Q 2878 2963 2633 3030 
Q 2388 3097 2138 3097 
Q 1578 3097 1268 2742 
Q 959 2388 959 1747 
Q 959 1106 1268 751 
Q 1578 397 2138 397 
Q 2388 397 2633 464 
Q 2878 531 3122 666 
L 3122 134 
Q 2881 22 2623 -34 
Q 2366 -91 2075 -91 
Q 1284 -91 818 406 
Q 353 903 353 1747 
Q 353 2603 823 3093 
Q 1294 3584 2113 3584 
Q 2378 3584 2631 3529 
Q 2884 3475 3122 3366 
z
" transform="scale(0.015625)"/>
      </defs>
      <use xlink:href="#DejaVuSans-52"/>
      <use xlink:href="#DejaVuSans-61" transform="translate(67.232422 0)"/>
      <use xlink:href="#DejaVuSans-77" transform="translate(128.511719 0)"/>
      <use xlink:href="#DejaVuSans-20" transform="translate(210.298828 0)"/>
      <use xlink:href="#DejaVuSans-46" transform="translate(242.085938 0)"/>
      <use xlink:href="#DejaVuSans-6f" transform="translate(295.980469 0)"/>
      <use xlink:href="#DejaVuSans-72" transform="translate(357.162109 0)"/>
      <use xlink:href="#DejaVuSans-63" transform="translate(396.025391 0)"/>
      <use xlink:href="#DejaVuSans-65" transform="translate(451.005859 0)"/>
     </g>
    </g>
    <g id="line2d_26">
     <path d="M 59.87 54.656563 
L 69.87 54.656563 
L 79.87 54.656563 
" style="fill: none; stroke: #000000; stroke-width: 2; stroke-linecap: square"/>
    </g>
    <g id="text_16">
     <!-- Adjusted Force -->
     <g transform="translate(87.87 58.156563) scale(0.1 -0.1)">
      <defs>
       <path id="DejaVuSans-41" d="M 2188 4044 
L 1331 1722 
L 3047 1722 
L 2188 4044 
z
M 1831 4666 
L 2547 4666 
L 4325 0 
L 3669 0 
L 3244 1197 
L 1141 1197 
L 716 0 
L 50 0 
L 1831 4666 
z
" transform="scale(0.015625)"/>
       <path id="DejaVuSans-64" d="M 2906 2969 
L 2906 4863 
L 3481 4863 
L 3481 0 
L 2906 0 
L 2906 525 
Q 2725 213 2448 61 
Q 2172 -91 1784 -91 
Q 1150 -91 751 415 
Q 353 922 353 1747 
Q 353 2572 751 3078 
Q 1150 3584 1784 3584 
Q 2172 3584 2448 3432 
Q 2725 3281 2906 2969 
z
M 947 1747 
Q 947 1113 1208 752 
Q 1469 391 1925 391 
Q 2381 391 2643 752 
Q 2906 1113 2906 1747 
Q 2906 2381 2643 2742 
Q 2381 3103 1925 3103 
Q 1469 3103 1208 2742 
Q 947 2381 947 1747 
z
" transform="scale(0.015625)"/>
       <path id="DejaVuSans-6a" d="M 603 3500 
L 1178 3500 
L 1178 -63 
Q 1178 -731 923 -1031 
Q 669 -1331 103 -1331 
L -116 -1331 
L -116 -844 
L 38 -844 
Q 366 -844 484 -692 
Q 603 -541 603 -63 
L 603 3500 
z
M 603 4863 
L 1178 4863 
L 1178 4134 
L 603 4134 
L 603 4863 
z
" transform="scale(0.015625)"/>
       <path id="DejaVuSans-75" d="M 544 1381 
L 544 3500 
L 1119 3500 
L 1119 1403 
Q 1119 906 1312 657 
Q 1506 409 1894 409 
Q 2359 409 2629 706 
Q 2900 1003 2900 1516 
L 2900 3500 
L 3475 3500 
L 3475 0 
L 2900 0 
L 2900 538 
Q 2691 219 2414 64 
Q 2138 -91 1772 -91 
Q 1169 -91 856 284 
Q 544 659 544 1381 
z
M 1991 3584 
L 1991 3584 
z
" transform="scale(0.015625)"/>
      </defs>
      <use xlink:href="#DejaVuSans-41"/>
      <use xlink:href="#DejaVuSans-64" transform="translate(66.658203 0)"/>
      <use xlink:href="#DejaVuSans-6a" transform="translate(130.134766 0)"/>
      <use xlink:href="#DejaVuSans-75" transform="translate(157.917969 0)"/>
      <use xlink:href="#DejaVuSans-73" transform="translate(221.296875 0)"/>
      <use xlink:href="#DejaVuSans-74" transform="translate(273.396484 0)"/>
      <use xlink:href="#DejaVuSans-65" transform="translate(312.605469 0)"/>
      <use xlink:href="#DejaVuSans-64" transform="translate(374.128906 0)"/>
      <use xlink:href="#DejaVuSans-20" transform="translate(437.605469 0)"/>
      <use xlink:href="#DejaVuSans-46" transform="translate(469.392578 0)"/>
      <use xlink:href="#DejaVuSans-6f" transform="translate(523.287109 0)"/>
      <use xlink:href="#DejaVuSans-72" transform="translate(584.46875 0)"/>
      <use xlink:href="#DejaVuSans-63" transform="translate(623.332031 0)"/>
      <use xlink:href="#DejaVuSans-65" transform="translate(678.3125 0)"/>
     </g>
    </g>
   </g>
  </g>
 </g>
 <defs>
  <clipPath id="p9da69886e4">
   <rect x="50.87" y="26.88" width="399.13" height="276.76"/>
  </clipPath>
 </defs>
</svg>
