<?xml version="1.0" encoding="utf-8" standalone="no"?>
<!DOCTYPE svg PUBLIC "-//W3C//DTD SVG 1.1//EN"
  "http://www.w3.org/Graphics/SVG/1.1/DTD/svg11.dtd">
<svg xmlns:xlink="http://www.w3.org/1999/xlink" width="460.8pt" height="345.6pt" viewBox="0 0 460.8 345.6" xmlns="http://www.w3.org/2000/svg" version="1.1">
 <metadata>
  <rdf:RDF xmlns:dc="http://purl.org/dc/elements/1.1/" xmlns:cc="http://creativecommons.org/ns#" xmlns:rdf="http://www.w3.org/1999/02/22-rdf-syntax-ns#">
   <cc:Work>
    <dc:type rdf:resource="http://purl.org/dc/dcmitype/StillImage"/>
    <dc:date>2025-07-28T21:15:00.624247</dc:date>
    <dc:format>image/svg+xml</dc:format>
    <dc:creator>
     <cc:Agent>
      <dc:title>Matplotlib v3.10.3, https://matplotlib.org/</dc:title>
     </cc:Agent>
    </dc:creator>
   </cc:Work>
  </rdf:RDF>
 </metadata>
 <defs>
  <style type="text/css">*{stroke-linejoin: round; stroke-linecap: butt}</style>
 </defs>
 <g id="figure_1">
  <g id="patch_1">
   <path d="M 0 345.6 
L 460.8 345.6 
L 460.8 0 
L 0 0 
z
" style="fill: #ffffff"/>
  </g>
  <g id="axes_1">
   <g id="patch_2">
    <path d="M 57.17 303.64 
L 450 303.64 
L 450 26.88 
L 57.17 26.88 
z
" style="fill: #ffffff"/>
   </g>
   <g id="matplotlib.axis_1">
    <g id="xtick_1">
     <g id="line2d_1">
      <path d="M 75.175043 303.64 
L 75.175043 26.88 
" clip-path="url(#p096d110d8b)" style="fill: none; stroke: #b0b0b0; stroke-opacity: 0.3; stroke-width: 0.8; stroke-linecap: square"/>
     </g>
     <g id="line2d_2">
      <defs>
       <path id="m4f4f4a371c" d="M 0 0 
L 0 3.5 
" style="stroke: #000000; stroke-width: 0.8"/>
      </defs>
      <g>
       <use xlink:href="#m4f4f4a371c" x="75.175043" y="303.64" style="stroke: #000000; stroke-width: 0.8"/>
      </g>
     </g>
     <g id="text_1">
      <!-- 0.000 -->
      <g transform="translate(60.860981 318.238437) scale(0.1 -0.1)">
       <defs>
        <path id="DejaVuSans-30" d="M 2034 4250 
Q 1547 4250 1301 3770 
Q 1056 3291 1056 2328 
Q 1056 1369 1301 889 
Q 1547 409 2034 409 
Q 2525 409 2770 889 
Q 3016 1369 3016 2328 
Q 3016 3291 2770 3770 
Q 2525 4250 2034 4250 
z
M 2034 4750 
Q 2819 4750 3233 4129 
Q 3647 3509 3647 2328 
Q 3647 1150 3233 529 
Q 2819 -91 2034 -91 
Q 1250 -91 836 529 
Q 422 1150 422 2328 
Q 422 3509 836 4129 
Q 1250 4750 2034 4750 
z
" transform="scale(0.015625)"/>
        <path id="DejaVuSans-2e" d="M 684 794 
L 1344 794 
L 1344 0 
L 684 0 
L 684 794 
z
" transform="scale(0.015625)"/>
       </defs>
       <use xlink:href="#DejaVuSans-30"/>
       <use xlink:href="#DejaVuSans-2e" transform="translate(63.623047 0)"/>
       <use xlink:href="#DejaVuSans-30" transform="translate(95.410156 0)"/>
       <use xlink:href="#DejaVuSans-30" transform="translate(159.033203 0)"/>
       <use xlink:href="#DejaVuSans-30" transform="translate(222.65625 0)"/>
      </g>
     </g>
    </g>
    <g id="xtick_2">
     <g id="line2d_3">
      <path d="M 125.126405 303.64 
L 125.126405 26.88 
" clip-path="url(#p096d110d8b)" style="fill: none; stroke: #b0b0b0; stroke-opacity: 0.3; stroke-width: 0.8; stroke-linecap: square"/>
     </g>
     <g id="line2d_4">
      <g>
       <use xlink:href="#m4f4f4a371c" x="125.126405" y="303.64" style="stroke: #000000; stroke-width: 0.8"/>
      </g>
     </g>
     <g id="text_2">
      <!-- 0.025 -->
      <g transform="translate(110.812343 318.238437) scale(0.1 -0.1)">
       <defs>
        <path id="DejaVuSans-32" d="M 1228 531 
L 3431 531 
L 3431 0 
L 469 0 
L 469 531 
Q 828 903 1448 1529 
Q 2069 2156 2228 2338 
Q 2531 2678 2651 2914 
Q 2772 3150 2772 3378 
Q 2772 3750 2511 3984 
Q 2250 4219 1831 4219 
Q 1534 4219 1204 4116 
Q 875 4013 500 3803 
L 500 4441 
Q 881 4594 1212 4672 
Q 1544 4750 1819 4750 
Q 2544 4750 2975 4387 
Q 3406 4025 3406 3419 
Q 3406 3131 3298 2873 
Q 3191 2616 2906 2266 
Q 2828 2175 2409 1742 
Q 1991 1309 1228 531 
z
" transform="scale(0.015625)"/>
        <path id="DejaVuSans-35" d="M 691 4666 
L 3169 4666 
L 3169 4134 
L 1269 4134 
L 1269 2991 
Q 1406 3038 1543 3061 
Q 1681 3084 1819 3084 
Q 2600 3084 3056 2656 
Q 3513 2228 3513 1497 
Q 3513 744 3044 326 
Q 2575 -91 1722 -91 
Q 1428 -91 1123 -41 
Q 819 9 494 109 
L 494 744 
Q 775 591 1075 516 
Q 1375 441 1709 441 
Q 2250 441 2565 725 
Q 2881 1009 2881 1497 
Q 2881 1984 2565 2268 
Q 2250 2553 1709 2553 
Q 1456 2553 1204 2497 
Q 953 2441 691 2322 
L 691 4666 
z
" transform="scale(0.015625)"/>
       </defs>
       <use xlink:href="#DejaVuSans-30"/>
       <use xlink:href="#DejaVuSans-2e" transform="translate(63.623047 0)"/>
       <use xlink:href="#DejaVuSans-30" transform="translate(95.410156 0)"/>
       <use xlink:href="#DejaVuSans-32" transform="translate(159.033203 0)"/>
       <use xlink:href="#DejaVuSans-35" transform="translate(222.65625 0)"/>
      </g>
     </g>
    </g>
    <g id="xtick_3">
     <g id="line2d_5">
      <path d="M 175.077767 303.64 
L 175.077767 26.88 
" clip-path="url(#p096d110d8b)" style="fill: none; stroke: #b0b0b0; stroke-opacity: 0.3; stroke-width: 0.8; stroke-linecap: square"/>
     </g>
     <g id="line2d_6">
      <g>
       <use xlink:href="#m4f4f4a371c" x="175.077767" y="303.64" style="stroke: #000000; stroke-width: 0.8"/>
      </g>
     </g>
     <g id="text_3">
      <!-- 0.050 -->
      <g transform="translate(160.763705 318.238437) scale(0.1 -0.1)">
       <use xlink:href="#DejaVuSans-30"/>
       <use xlink:href="#DejaVuSans-2e" transform="translate(63.623047 0)"/>
       <use xlink:href="#DejaVuSans-30" transform="translate(95.410156 0)"/>
       <use xlink:href="#DejaVuSans-35" transform="translate(159.033203 0)"/>
       <use xlink:href="#DejaVuSans-30" transform="translate(222.65625 0)"/>
      </g>
     </g>
    </g>
    <g id="xtick_4">
     <g id="line2d_7">
      <path d="M 225.029129 303.64 
L 225.029129 26.88 
" clip-path="url(#p096d110d8b)" style="fill: none; stroke: #b0b0b0; stroke-opacity: 0.3; stroke-width: 0.8; stroke-linecap: square"/>
     </g>
     <g id="line2d_8">
      <g>
       <use xlink:href="#m4f4f4a371c" x="225.029129" y="303.64" style="stroke: #000000; stroke-width: 0.8"/>
      </g>
     </g>
     <g id="text_4">
      <!-- 0.075 -->
      <g transform="translate(210.715067 318.238437) scale(0.1 -0.1)">
       <defs>
        <path id="DejaVuSans-37" d="M 525 4666 
L 3525 4666 
L 3525 4397 
L 1831 0 
L 1172 0 
L 2766 4134 
L 525 4134 
L 525 4666 
z
" transform="scale(0.015625)"/>
       </defs>
       <use xlink:href="#DejaVuSans-30"/>
       <use xlink:href="#DejaVuSans-2e" transform="translate(63.623047 0)"/>
       <use xlink:href="#DejaVuSans-30" transform="translate(95.410156 0)"/>
       <use xlink:href="#DejaVuSans-37" transform="translate(159.033203 0)"/>
       <use xlink:href="#DejaVuSans-35" transform="translate(222.65625 0)"/>
      </g>
     </g>
    </g>
    <g id="xtick_5">
     <g id="line2d_9">
      <path d="M 274.980492 303.64 
L 274.980492 26.88 
" clip-path="url(#p096d110d8b)" style="fill: none; stroke: #b0b0b0; stroke-opacity: 0.3; stroke-width: 0.8; stroke-linecap: square"/>
     </g>
     <g id="line2d_10">
      <g>
       <use xlink:href="#m4f4f4a371c" x="274.980492" y="303.64" style="stroke: #000000; stroke-width: 0.8"/>
      </g>
     </g>
     <g id="text_5">
      <!-- 0.100 -->
      <g transform="translate(260.666429 318.238437) scale(0.1 -0.1)">
       <defs>
        <path id="DejaVuSans-31" d="M 794 531 
L 1825 531 
L 1825 4091 
L 703 3866 
L 703 4441 
L 1819 4666 
L 2450 4666 
L 2450 531 
L 3481 531 
L 3481 0 
L 794 0 
L 794 531 
z
" transform="scale(0.015625)"/>
       </defs>
       <use xlink:href="#DejaVuSans-30"/>
       <use xlink:href="#DejaVuSans-2e" transform="translate(63.623047 0)"/>
       <use xlink:href="#DejaVuSans-31" transform="translate(95.410156 0)"/>
       <use xlink:href="#DejaVuSans-30" transform="translate(159.033203 0)"/>
       <use xlink:href="#DejaVuSans-30" transform="translate(222.65625 0)"/>
      </g>
     </g>
    </g>
    <g id="xtick_6">
     <g id="line2d_11">
      <path d="M 324.931854 303.64 
L 324.931854 26.88 
" clip-path="url(#p096d110d8b)" style="fill: none; stroke: #b0b0b0; stroke-opacity: 0.3; stroke-width: 0.8; stroke-linecap: square"/>
     </g>
     <g id="line2d_12">
      <g>
       <use xlink:href="#m4f4f4a371c" x="324.931854" y="303.64" style="stroke: #000000; stroke-width: 0.8"/>
      </g>
     </g>
     <g id="text_6">
      <!-- 0.125 -->
      <g transform="translate(310.617791 318.238437) scale(0.1 -0.1)">
       <use xlink:href="#DejaVuSans-30"/>
       <use xlink:href="#DejaVuSans-2e" transform="translate(63.623047 0)"/>
       <use xlink:href="#DejaVuSans-31" transform="translate(95.410156 0)"/>
       <use xlink:href="#DejaVuSans-32" transform="translate(159.033203 0)"/>
       <use xlink:href="#DejaVuSans-35" transform="translate(222.65625 0)"/>
      </g>
     </g>
    </g>
    <g id="xtick_7">
     <g id="line2d_13">
      <path d="M 374.883216 303.64 
L 374.883216 26.88 
" clip-path="url(#p096d110d8b)" style="fill: none; stroke: #b0b0b0; stroke-opacity: 0.3; stroke-width: 0.8; stroke-linecap: square"/>
     </g>
     <g id="line2d_14">
      <g>
       <use xlink:href="#m4f4f4a371c" x="374.883216" y="303.64" style="stroke: #000000; stroke-width: 0.8"/>
      </g>
     </g>
     <g id="text_7">
      <!-- 0.150 -->
      <g transform="translate(360.569153 318.238437) scale(0.1 -0.1)">
       <use xlink:href="#DejaVuSans-30"/>
       <use xlink:href="#DejaVuSans-2e" transform="translate(63.623047 0)"/>
       <use xlink:href="#DejaVuSans-31" transform="translate(95.410156 0)"/>
       <use xlink:href="#DejaVuSans-35" transform="translate(159.033203 0)"/>
       <use xlink:href="#DejaVuSans-30" transform="translate(222.65625 0)"/>
      </g>
     </g>
    </g>
    <g id="xtick_8">
     <g id="line2d_15">
      <path d="M 424.834578 303.64 
L 424.834578 26.88 
" clip-path="url(#p096d110d8b)" style="fill: none; stroke: #b0b0b0; stroke-opacity: 0.3; stroke-width: 0.8; stroke-linecap: square"/>
     </g>
     <g id="line2d_16">
      <g>
       <use xlink:href="#m4f4f4a371c" x="424.834578" y="303.64" style="stroke: #000000; stroke-width: 0.8"/>
      </g>
     </g>
     <g id="text_8">
      <!-- 0.175 -->
      <g transform="translate(410.520515 318.238437) scale(0.1 -0.1)">
       <use xlink:href="#DejaVuSans-30"/>
       <use xlink:href="#DejaVuSans-2e" transform="translate(63.623047 0)"/>
       <use xlink:href="#DejaVuSans-31" transform="translate(95.410156 0)"/>
       <use xlink:href="#DejaVuSans-37" transform="translate(159.033203 0)"/>
       <use xlink:href="#DejaVuSans-35" transform="translate(222.65625 0)"/>
      </g>
     </g>
    </g>
    <g id="text_9">
     <!-- Strain [-] -->
     <g transform="translate(231.47875 331.916562) scale(0.1 -0.1)">
      <defs>
       <path id="DejaVuSans-53" d="M 3425 4513 
L 3425 3897 
Q 3066 4069 2747 4153 
Q 2428 4238 2131 4238 
Q 1616 4238 1336 4038 
Q 1056 3838 1056 3469 
Q 1056 3159 1242 3001 
Q 1428 2844 1947 2747 
L 2328 2669 
Q 3034 2534 3370 2195 
Q 3706 1856 3706 1288 
Q 3706 609 3251 259 
Q 2797 -91 1919 -91 
Q 1588 -91 1214 -16 
Q 841 59 441 206 
L 441 856 
Q 825 641 1194 531 
Q 1563 422 1919 422 
Q 2459 422 2753 634 
Q 3047 847 3047 1241 
Q 3047 1584 2836 1778 
Q 2625 1972 2144 2069 
L 1759 2144 
Q 1053 2284 737 2584 
Q 422 2884 422 3419 
Q 422 4038 858 4394 
Q 1294 4750 2059 4750 
Q 2388 4750 2728 4690 
Q 3069 4631 3425 4513 
z
" transform="scale(0.015625)"/>
       <path id="DejaVuSans-74" d="M 1172 4494 
L 1172 3500 
L 2356 3500 
L 2356 3053 
L 1172 3053 
L 1172 1153 
Q 1172 725 1289 603 
Q 1406 481 1766 481 
L 2356 481 
L 2356 0 
L 1766 0 
Q 1100 0 847 248 
Q 594 497 594 1153 
L 594 3053 
L 172 3053 
L 172 3500 
L 594 3500 
L 594 4494 
L 1172 4494 
z
" transform="scale(0.015625)"/>
       <path id="DejaVuSans-72" d="M 2631 2963 
Q 2534 3019 2420 3045 
Q 2306 3072 2169 3072 
Q 1681 3072 1420 2755 
Q 1159 2438 1159 1844 
L 1159 0 
L 581 0 
L 581 3500 
L 1159 3500 
L 1159 2956 
Q 1341 3275 1631 3429 
Q 1922 3584 2338 3584 
Q 2397 3584 2469 3576 
Q 2541 3569 2628 3553 
L 2631 2963 
z
" transform="scale(0.015625)"/>
       <path id="DejaVuSans-61" d="M 2194 1759 
Q 1497 1759 1228 1600 
Q 959 1441 959 1056 
Q 959 750 1161 570 
Q 1363 391 1709 391 
Q 2188 391 2477 730 
Q 2766 1069 2766 1631 
L 2766 1759 
L 2194 1759 
z
M 3341 1997 
L 3341 0 
L 2766 0 
L 2766 531 
Q 2569 213 2275 61 
Q 1981 -91 1556 -91 
Q 1019 -91 701 211 
Q 384 513 384 1019 
Q 384 1609 779 1909 
Q 1175 2209 1959 2209 
L 2766 2209 
L 2766 2266 
Q 2766 2663 2505 2880 
Q 2244 3097 1772 3097 
Q 1472 3097 1187 3025 
Q 903 2953 641 2809 
L 641 3341 
Q 956 3463 1253 3523 
Q 1550 3584 1831 3584 
Q 2591 3584 2966 3190 
Q 3341 2797 3341 1997 
z
" transform="scale(0.015625)"/>
       <path id="DejaVuSans-69" d="M 603 3500 
L 1178 3500 
L 1178 0 
L 603 0 
L 603 3500 
z
M 603 4863 
L 1178 4863 
L 1178 4134 
L 603 4134 
L 603 4863 
z
" transform="scale(0.015625)"/>
       <path id="DejaVuSans-6e" d="M 3513 2113 
L 3513 0 
L 2938 0 
L 2938 2094 
Q 2938 2591 2744 2837 
Q 2550 3084 2163 3084 
Q 1697 3084 1428 2787 
Q 1159 2491 1159 1978 
L 1159 0 
L 581 0 
L 581 3500 
L 1159 3500 
L 1159 2956 
Q 1366 3272 1645 3428 
Q 1925 3584 2291 3584 
Q 2894 3584 3203 3211 
Q 3513 2838 3513 2113 
z
" transform="scale(0.015625)"/>
       <path id="DejaVuSans-20" transform="scale(0.015625)"/>
       <path id="DejaVuSans-5b" d="M 550 4863 
L 1875 4863 
L 1875 4416 
L 1125 4416 
L 1125 -397 
L 1875 -397 
L 1875 -844 
L 550 -844 
L 550 4863 
z
" transform="scale(0.015625)"/>
       <path id="DejaVuSans-2d" d="M 313 2009 
L 1997 2009 
L 1997 1497 
L 313 1497 
L 313 2009 
z
" transform="scale(0.015625)"/>
       <path id="DejaVuSans-5d" d="M 1947 4863 
L 1947 -844 
L 622 -844 
L 622 -397 
L 1369 -397 
L 1369 4416 
L 622 4416 
L 622 4863 
L 1947 4863 
z
" transform="scale(0.015625)"/>
      </defs>
      <use xlink:href="#DejaVuSans-53"/>
      <use xlink:href="#DejaVuSans-74" transform="translate(63.476562 0)"/>
      <use xlink:href="#DejaVuSans-72" transform="translate(102.685547 0)"/>
      <use xlink:href="#DejaVuSans-61" transform="translate(143.798828 0)"/>
      <use xlink:href="#DejaVuSans-69" transform="translate(205.078125 0)"/>
      <use xlink:href="#DejaVuSans-6e" transform="translate(232.861328 0)"/>
      <use xlink:href="#DejaVuSans-20" transform="translate(296.240234 0)"/>
      <use xlink:href="#DejaVuSans-5b" transform="translate(328.027344 0)"/>
      <use xlink:href="#DejaVuSans-2d" transform="translate(367.041016 0)"/>
      <use xlink:href="#DejaVuSans-5d" transform="translate(403.125 0)"/>
     </g>
    </g>
   </g>
   <g id="matplotlib.axis_2">
    <g id="ytick_1">
     <g id="line2d_17">
      <path d="M 57.17 273.747106 
L 450 273.747106 
" clip-path="url(#p096d110d8b)" style="fill: none; stroke: #b0b0b0; stroke-opacity: 0.3; stroke-width: 0.8; stroke-linecap: square"/>
     </g>
     <g id="line2d_18">
      <defs>
       <path id="m8514c04224" d="M 0 0 
L -3.5 0 
" style="stroke: #000000; stroke-width: 0.8"/>
      </defs>
      <g>
       <use xlink:href="#m8514c04224" x="57.17" y="273.747106" style="stroke: #000000; stroke-width: 0.8"/>
      </g>
     </g>
     <g id="text_10">
      <!-- 0 -->
      <g transform="translate(43.8075 277.546325) scale(0.1 -0.1)">
       <use xlink:href="#DejaVuSans-30"/>
      </g>
     </g>
    </g>
    <g id="ytick_2">
     <g id="line2d_19">
      <path d="M 57.17 236.165551 
L 450 236.165551 
" clip-path="url(#p096d110d8b)" style="fill: none; stroke: #b0b0b0; stroke-opacity: 0.3; stroke-width: 0.8; stroke-linecap: square"/>
     </g>
     <g id="line2d_20">
      <g>
       <use xlink:href="#m8514c04224" x="57.17" y="236.165551" style="stroke: #000000; stroke-width: 0.8"/>
      </g>
     </g>
     <g id="text_11">
      <!-- 250 -->
      <g transform="translate(31.0825 239.964769) scale(0.1 -0.1)">
       <use xlink:href="#DejaVuSans-32"/>
       <use xlink:href="#DejaVuSans-35" transform="translate(63.623047 0)"/>
       <use xlink:href="#DejaVuSans-30" transform="translate(127.246094 0)"/>
      </g>
     </g>
    </g>
    <g id="ytick_3">
     <g id="line2d_21">
      <path d="M 57.17 198.583995 
L 450 198.583995 
" clip-path="url(#p096d110d8b)" style="fill: none; stroke: #b0b0b0; stroke-opacity: 0.3; stroke-width: 0.8; stroke-linecap: square"/>
     </g>
     <g id="line2d_22">
      <g>
       <use xlink:href="#m8514c04224" x="57.17" y="198.583995" style="stroke: #000000; stroke-width: 0.8"/>
      </g>
     </g>
     <g id="text_12">
      <!-- 500 -->
      <g transform="translate(31.0825 202.383214) scale(0.1 -0.1)">
       <use xlink:href="#DejaVuSans-35"/>
       <use xlink:href="#DejaVuSans-30" transform="translate(63.623047 0)"/>
       <use xlink:href="#DejaVuSans-30" transform="translate(127.246094 0)"/>
      </g>
     </g>
    </g>
    <g id="ytick_4">
     <g id="line2d_23">
      <path d="M 57.17 161.002439 
L 450 161.002439 
" clip-path="url(#p096d110d8b)" style="fill: none; stroke: #b0b0b0; stroke-opacity: 0.3; stroke-width: 0.8; stroke-linecap: square"/>
     </g>
     <g id="line2d_24">
      <g>
       <use xlink:href="#m8514c04224" x="57.17" y="161.002439" style="stroke: #000000; stroke-width: 0.8"/>
      </g>
     </g>
     <g id="text_13">
      <!-- 750 -->
      <g transform="translate(31.0825 164.801658) scale(0.1 -0.1)">
       <use xlink:href="#DejaVuSans-37"/>
       <use xlink:href="#DejaVuSans-35" transform="translate(63.623047 0)"/>
       <use xlink:href="#DejaVuSans-30" transform="translate(127.246094 0)"/>
      </g>
     </g>
    </g>
    <g id="ytick_5">
     <g id="line2d_25">
      <path d="M 57.17 123.420883 
L 450 123.420883 
" clip-path="url(#p096d110d8b)" style="fill: none; stroke: #b0b0b0; stroke-opacity: 0.3; stroke-width: 0.8; stroke-linecap: square"/>
     </g>
     <g id="line2d_26">
      <g>
       <use xlink:href="#m8514c04224" x="57.17" y="123.420883" style="stroke: #000000; stroke-width: 0.8"/>
      </g>
     </g>
     <g id="text_14">
      <!-- 1000 -->
      <g transform="translate(24.72 127.220102) scale(0.1 -0.1)">
       <use xlink:href="#DejaVuSans-31"/>
       <use xlink:href="#DejaVuSans-30" transform="translate(63.623047 0)"/>
       <use xlink:href="#DejaVuSans-30" transform="translate(127.246094 0)"/>
       <use xlink:href="#DejaVuSans-30" transform="translate(190.869141 0)"/>
      </g>
     </g>
    </g>
    <g id="ytick_6">
     <g id="line2d_27">
      <path d="M 57.17 85.839327 
L 450 85.839327 
" clip-path="url(#p096d110d8b)" style="fill: none; stroke: #b0b0b0; stroke-opacity: 0.3; stroke-width: 0.8; stroke-linecap: square"/>
     </g>
     <g id="line2d_28">
      <g>
       <use xlink:href="#m8514c04224" x="57.17" y="85.839327" style="stroke: #000000; stroke-width: 0.8"/>
      </g>
     </g>
     <g id="text_15">
      <!-- 1250 -->
      <g transform="translate(24.72 89.638546) scale(0.1 -0.1)">
       <use xlink:href="#DejaVuSans-31"/>
       <use xlink:href="#DejaVuSans-32" transform="translate(63.623047 0)"/>
       <use xlink:href="#DejaVuSans-35" transform="translate(127.246094 0)"/>
       <use xlink:href="#DejaVuSans-30" transform="translate(190.869141 0)"/>
      </g>
     </g>
    </g>
    <g id="ytick_7">
     <g id="line2d_29">
      <path d="M 57.17 48.257772 
L 450 48.257772 
" clip-path="url(#p096d110d8b)" style="fill: none; stroke: #b0b0b0; stroke-opacity: 0.3; stroke-width: 0.8; stroke-linecap: square"/>
     </g>
     <g id="line2d_30">
      <g>
       <use xlink:href="#m8514c04224" x="57.17" y="48.257772" style="stroke: #000000; stroke-width: 0.8"/>
      </g>
     </g>
     <g id="text_16">
      <!-- 1500 -->
      <g transform="translate(24.72 52.05699) scale(0.1 -0.1)">
       <use xlink:href="#DejaVuSans-31"/>
       <use xlink:href="#DejaVuSans-35" transform="translate(63.623047 0)"/>
       <use xlink:href="#DejaVuSans-30" transform="translate(127.246094 0)"/>
       <use xlink:href="#DejaVuSans-30" transform="translate(190.869141 0)"/>
      </g>
     </g>
    </g>
    <g id="text_17">
     <!-- Stress [Pa] -->
     <g transform="translate(18.640312 191.967812) rotate(-90) scale(0.1 -0.1)">
      <defs>
       <path id="DejaVuSans-65" d="M 3597 1894 
L 3597 1613 
L 953 1613 
Q 991 1019 1311 708 
Q 1631 397 2203 397 
Q 2534 397 2845 478 
Q 3156 559 3463 722 
L 3463 178 
Q 3153 47 2828 -22 
Q 2503 -91 2169 -91 
Q 1331 -91 842 396 
Q 353 884 353 1716 
Q 353 2575 817 3079 
Q 1281 3584 2069 3584 
Q 2775 3584 3186 3129 
Q 3597 2675 3597 1894 
z
M 3022 2063 
Q 3016 2534 2758 2815 
Q 2500 3097 2075 3097 
Q 1594 3097 1305 2825 
Q 1016 2553 972 2059 
L 3022 2063 
z
" transform="scale(0.015625)"/>
       <path id="DejaVuSans-73" d="M 2834 3397 
L 2834 2853 
Q 2591 2978 2328 3040 
Q 2066 3103 1784 3103 
Q 1356 3103 1142 2972 
Q 928 2841 928 2578 
Q 928 2378 1081 2264 
Q 1234 2150 1697 2047 
L 1894 2003 
Q 2506 1872 2764 1633 
Q 3022 1394 3022 966 
Q 3022 478 2636 193 
Q 2250 -91 1575 -91 
Q 1294 -91 989 -36 
Q 684 19 347 128 
L 347 722 
Q 666 556 975 473 
Q 1284 391 1588 391 
Q 1994 391 2212 530 
Q 2431 669 2431 922 
Q 2431 1156 2273 1281 
Q 2116 1406 1581 1522 
L 1381 1569 
Q 847 1681 609 1914 
Q 372 2147 372 2553 
Q 372 3047 722 3315 
Q 1072 3584 1716 3584 
Q 2034 3584 2315 3537 
Q 2597 3491 2834 3397 
z
" transform="scale(0.015625)"/>
       <path id="DejaVuSans-50" d="M 1259 4147 
L 1259 2394 
L 2053 2394 
Q 2494 2394 2734 2622 
Q 2975 2850 2975 3272 
Q 2975 3691 2734 3919 
Q 2494 4147 2053 4147 
L 1259 4147 
z
M 628 4666 
L 2053 4666 
Q 2838 4666 3239 4311 
Q 3641 3956 3641 3272 
Q 3641 2581 3239 2228 
Q 2838 1875 2053 1875 
L 1259 1875 
L 1259 0 
L 628 0 
L 628 4666 
z
" transform="scale(0.015625)"/>
      </defs>
      <use xlink:href="#DejaVuSans-53"/>
      <use xlink:href="#DejaVuSans-74" transform="translate(63.476562 0)"/>
      <use xlink:href="#DejaVuSans-72" transform="translate(102.685547 0)"/>
      <use xlink:href="#DejaVuSans-65" transform="translate(141.548828 0)"/>
      <use xlink:href="#DejaVuSans-73" transform="translate(203.072266 0)"/>
      <use xlink:href="#DejaVuSans-73" transform="translate(255.171875 0)"/>
      <use xlink:href="#DejaVuSans-20" transform="translate(307.271484 0)"/>
      <use xlink:href="#DejaVuSans-5b" transform="translate(339.058594 0)"/>
      <use xlink:href="#DejaVuSans-50" transform="translate(378.072266 0)"/>
      <use xlink:href="#DejaVuSans-61" transform="translate(433.875 0)"/>
      <use xlink:href="#DejaVuSans-5d" transform="translate(495.154297 0)"/>
     </g>
    </g>
   </g>
   <g id="line2d_31">
    <path d="M 75.175043 273.614311 
L 75.175043 273.60001 
L 75.17438 273.893857 
L 75.173552 273.723152 
L 75.466448 273.401538 
L 76.206869 269.236836 
L 76.9315 267.639838 
L 77.717108 267.996826 
L 78.470594 267.913234 
L 79.21537 266.963801 
L 80.052154 265.675918 
L 80.851917 265.109618 
L 84.908984 265.737724 
L 86.397447 266.279306 
L 88.717793 267.61916 
L 91.039228 269.096865 
L 91.79707 269.016214 
L 93.283354 268.007838 
L 94.016152 267.451362 
L 94.743506 267.073617 
L 95.464327 266.989361 
L 96.181881 267.158744 
L 97.928402 267.819956 
L 98.767908 267.578597 
L 101.166664 265.248425 
L 104.923208 262.855829 
L 107.093293 261.403793 
L 115.317402 257.480252 
L 117.006213 256.666135 
L 122.93393 253.657802 
L 126.074183 252.152526 
L 127.509292 251.543444 
L 128.945489 250.934996 
L 131.101419 249.86419 
L 133.97708 248.603244 
L 135.410011 247.944092 
L 137.55723 246.804519 
L 143.321619 243.926749 
L 144.770883 243.247632 
L 146.221235 242.555205 
L 148.390227 241.582004 
L 151.2648 240.052327 
L 152.834926 239.062331 
L 156.246303 237.127972 
L 157.953625 236.019456 
L 165.316451 232.02461 
L 169.69473 230.004688 
L 171.147261 229.281205 
L 172.592416 228.717682 
L 187.662145 219.682225 
L 189.835496 218.609201 
L 194.861643 215.808437 
L 199.968365 212.806125 
L 201.661532 211.799967 
L 203.354698 210.713316 
L 222.88056 199.184805 
L 227.056312 196.27376 
L 230.428491 194.397077 
L 242.34599 186.962916 
L 245.739248 184.704042 
L 249.975976 182.070285 
L 252.519538 180.422404 
L 254.219238 179.347478 
L 256.640847 177.630513 
L 262.404148 173.913274 
L 264.57641 172.416872 
L 275.058801 165.495138 
L 278.445134 162.762191 
L 283.748939 159.312733 
L 285.924467 157.972562 
L 289.557971 155.576163 
L 292.455409 153.769832 
L 302.146204 146.022257 
L 307.939992 142.11868 
L 310.859208 140.350378 
L 313.757735 138.336794 
L 315.195021 137.214967 
L 316.765012 135.982473 
L 319.323817 133.919453 
L 321.028961 132.660092 
L 323.452749 130.732705 
L 330.67729 125.275684 
L 332.859352 123.760901 
L 335.751346 121.523586 
L 337.185366 120.555139 
L 349.799732 110.137363 
L 351.49181 108.652369 
L 359.972888 102.209165 
L 369.223785 94.400745 
L 375.237522 89.318933 
L 380.9932 84.926697 
L 382.698345 83.442337 
L 387.769475 78.873944 
L 389.45502 77.372471 
L 391.146009 75.720153 
L 407.3721 61.042605 
L 412.353604 55.905653 
L 415.227088 53.474395 
L 416.666552 52.102851 
L 418.817037 50.579829 
L 422.148384 48.173289 
L 425.177029 46.464564 
L 426.712312 45.602912 
L 428.280261 44.621789 
L 429.03647 43.90813 
L 430.521665 42.050144 
L 431.827643 39.646892 
L 432.144091 40.952224 
L 431.970045 64.364848 
L 431.972426 64.071933 
L 431.968752 71.597916 
L 431.24674 71.777281 
L 429.791964 74.896371 
L 428.326639 74.96599 
L 426.835999 75.687096 
L 426.097757 76.100651 
L 425.370403 76.116259 
L 424.62481 76.58026 
L 423.900995 76.642095 
L 423.17718 78.70258 
L 422.41961 80.252539 
L 421.705697 81.458502 
L 420.977526 82.256774 
L 420.261333 82.246534 
L 418.763343 82.934286 
L 417.302102 84.012618 
L 416.576517 84.714632 
L 415.846033 87.222579 
L 415.113235 88.452944 
L 414.387378 89.021622 
L 413.66819 89.403724 
L 412.935392 89.624643 
L 411.456185 90.866892 
L 409.984463 92.76243 
L 406.333402 96.288103 
L 405.591621 97.352254 
L 404.847662 97.989223 
L 403.38016 98.873771 
L 401.888839 100.139628 
L 400.413035 102.245747 
L 398.951249 103.610161 
L 397.497358 104.714399 
L 396.037206 106.201929 
L 394.573106 107.643191 
L 391.639463 110.296596 
L 382.169842 118.828588 
L 380.733917 120.113143 
L 377.805174 122.868114 
L 377.057949 123.391396 
L 371.901139 128.002452 
L 370.44997 129.156761 
L 368.238237 131.206154 
L 367.523745 131.910336 
L 364.624673 134.076111 
L 362.427367 136.085099 
L 360.953332 137.108925 
L 360.21919 137.545058 
L 356.57752 140.631666 
L 354.412063 142.222663 
L 353.696142 142.824932 
L 352.98131 143.584859 
L 348.673041 146.925769 
L 347.227588 148.105113 
L 346.507039 148.497118 
L 340.679769 153.139943 
L 339.932543 153.708938 
L 338.499612 154.581285 
L 334.921368 157.17432 
L 318.84758 168.936674 
L 318.106343 169.40022 
L 315.922239 171.263038 
L 314.443304 172.116926 
L 313.70889 172.49062 
L 312.261804 173.50074 
L 310.77198 174.765963 
L 308.59509 175.851782 
L 307.148004 176.802958 
L 306.426639 177.480649 
L 304.973837 178.474923 
L 303.507287 179.635412 
L 302.060746 180.422196 
L 299.8795 181.747076 
L 298.416354 182.838243 
L 296.236742 184.143237 
L 294.008284 185.694008 
L 291.848816 186.892327 
L 289.625106 188.552804 
L 288.192991 189.395165 
L 285.311613 191.498352 
L 283.832678 192.082597 
L 283.113218 192.400448 
L 282.380284 192.899724 
L 280.934559 194.213909 
L 279.448002 195.102022 
L 278.703771 195.422012 
L 277.246222 196.378901 
L 276.509204 196.94845 
L 274.348103 198.113455 
L 272.893667 198.977324 
L 271.435965 200.029671 
L 269.986701 200.724474 
L 267.791845 202.135155 
L 267.071841 202.715558 
L 261.264986 206.143942 
L 257.616511 208.108387 
L 256.882896 208.721747 
L 253.993352 210.417955 
L 253.248304 210.738896 
L 251.025682 212.211452 
L 249.541303 213.005802 
L 248.090406 214.019882 
L 244.442475 215.979672 
L 242.984364 217.108708 
L 241.502418 217.600428 
L 240.043355 218.303154 
L 237.869051 219.857708 
L 234.935136 220.937506 
L 233.46042 222.163117 
L 232.019323 222.964875 
L 229.827189 223.980698 
L 227.621444 225.24608 
L 226.893818 225.482825 
L 224.728633 226.652741 
L 221.802527 228.359436 
L 220.35095 229.362109 
L 217.43392 230.527707 
L 215.960566 231.698653 
L 214.492111 232.336417 
L 212.278608 233.288514 
L 211.553976 233.893952 
L 209.363884 235.141112 
L 205.717723 237.054521 
L 204.992274 237.273222 
L 202.117429 238.740232 
L 201.402325 239.23214 
L 199.964766 239.862969 
L 198.528841 240.605229 
L 197.812376 240.840408 
L 195.63358 241.99444 
L 194.917387 242.207001 
L 191.945362 243.909388 
L 190.459077 244.707541 
L 188.968982 245.254194 
L 186.041514 246.801276 
L 180.914649 249.255945 
L 178.733676 250.484408 
L 177.269712 250.938868 
L 175.824668 251.661083 
L 174.358799 252.725947 
L 173.612118 253.012068 
L 172.145433 253.382026 
L 171.430601 253.622989 
L 169.230241 254.871295 
L 167.770088 255.299528 
L 166.297142 256.173529 
L 164.814124 257.025911 
L 164.09412 257.39613 
L 161.905252 258.024097 
L 159.693655 259.113798 
L 158.978823 259.39881 
L 158.258002 259.544188 
L 156.808875 260.145031 
L 156.086421 260.685662 
L 153.897553 261.72256 
L 152.441467 262.311228 
L 151.708533 262.871824 
L 150.965254 263.260581 
L 148.036511 264.19712 
L 145.833629 265.292485 
L 144.360955 265.719914 
L 143.631151 265.90646 
L 142.155211 266.7979 
L 141.424454 267.318567 
L 139.947969 267.977798 
L 137.742224 268.506589 
L 136.27377 269.380204 
L 134.067447 270.318903 
L 130.414072 271.79641 
L 126.771585 273.386655 
L 125.301633 273.98924 
L 123.835764 274.674775 
L 123.106777 274.880443 
L 121.651253 275.48699 
L 120.934243 275.695886 
L 119.472457 276.452882 
L 118.74347 276.507696 
L 118.019927 276.691577 
L 114.361788 278.409375 
L 112.177548 279.238703 
L 108.465239 280.628884 
L 101.939197 282.9275 
L 99.762579 283.910841 
L 96.8561 284.665463 
L 93.192654 286.219007 
L 92.469655 286.394807 
L 90.990856 286.878853 
L 88.816961 287.511207 
L 88.072729 287.579399 
L 85.094716 288.783818 
L 84.353751 289.201017 
L 82.913197 289.439833 
L 78.593605 290.989614 
L 77.847741 291.06 
L 75.678336 290.72991 
L 75.155755 290.921449 
L 75.026442 289.4376 
L 75.026442 289.4376 
" clip-path="url(#p096d110d8b)" style="fill: none; stroke: #ff0000; stroke-width: 2; stroke-linecap: square"/>
   </g>
   <g id="line2d_32">
    <path d="M 75.175043 273.614311 
L 75.175043 273.60001 
L 75.17438 273.893857 
L 75.173552 273.723152 
L 75.466448 273.401538 
L 76.206869 269.236836 
L 76.9315 267.639838 
L 77.717108 267.996826 
L 78.470594 267.913234 
L 79.21537 266.963801 
L 80.052154 274.784886 
L 80.851917 273.963798 
L 82.34909 273.198999 
L 84.017213 271.870682 
L 86.397447 270.845193 
L 87.939263 269.937591 
L 89.497412 269.346889 
L 91.79707 269.016214 
L 93.283354 268.007838 
L 94.016152 267.451362 
L 94.743506 267.073617 
L 95.464327 266.989361 
L 96.181881 267.158744 
L 97.928402 267.819956 
L 98.767908 267.578597 
L 101.166664 265.248425 
L 104.923208 262.855829 
L 107.093293 261.403793 
L 115.317402 257.480252 
L 117.006213 256.666135 
L 122.93393 253.657802 
L 126.074183 252.152526 
L 127.509292 251.543444 
L 128.945489 250.934996 
L 131.101419 249.86419 
L 133.97708 248.603244 
L 135.410011 247.944092 
L 137.55723 246.804519 
L 143.321619 243.926749 
L 144.770883 243.247632 
L 146.221235 242.555205 
L 148.390227 241.582004 
L 151.2648 240.052327 
L 152.834926 239.062331 
L 156.246303 237.127972 
L 157.953625 236.019456 
L 165.316451 232.02461 
L 169.69473 230.004688 
L 171.147261 229.281205 
L 172.592416 228.717682 
L 187.662145 219.682225 
L 189.835496 218.609201 
L 194.861643 215.808437 
L 199.968365 212.806125 
L 201.661532 211.799967 
L 203.354698 210.713316 
L 222.88056 199.184805 
L 227.056312 196.27376 
L 230.428491 194.397077 
L 242.34599 186.962916 
L 245.739248 184.704042 
L 249.975976 182.070285 
L 252.519538 180.422404 
L 254.219238 179.347478 
L 256.640847 177.630513 
L 262.404148 173.913274 
L 264.57641 172.416872 
L 275.058801 165.495138 
L 278.445134 162.762191 
L 283.748939 159.312733 
L 285.924467 157.972562 
L 289.557971 155.576163 
L 292.455409 153.769832 
L 302.146204 146.022257 
L 307.939992 142.11868 
L 310.859208 140.350378 
L 313.757735 138.336794 
L 315.195021 137.214967 
L 316.765012 135.982473 
L 319.323817 133.919453 
L 321.028961 132.660092 
L 323.452749 130.732705 
L 330.67729 125.275684 
L 332.859352 123.760901 
L 335.751346 121.523586 
L 337.185366 120.555139 
L 349.799732 110.137363 
L 351.49181 108.652369 
L 359.972888 102.209165 
L 369.223785 94.400745 
L 375.237522 89.318933 
L 380.9932 84.926697 
L 382.698345 83.442337 
L 387.769475 78.873944 
L 389.45502 77.372471 
L 391.146009 75.720153 
L 407.3721 61.019797 
L 409.928728 58.298119 
L 411.638227 56.582927 
L 412.353604 55.781447 
L 414.508445 53.747423 
L 416.666552 51.350152 
L 419.666343 48.182894 
L 421.335555 46.253922 
L 422.942702 44.659915 
L 426.712312 41.233431 
L 428.280261 40.347073 
L 429.03647 39.887092 
L 429.780973 39.669857 
L 431.25215 40.407522 
L 431.827643 39.46 
L 432.144091 40.862373 
L 431.970725 64.1244 
L 431.969908 64.072963 
L 431.96967 64.033152 
L 431.968752 71.597916 
L 431.24674 71.777281 
L 429.791964 74.896371 
L 428.326639 74.96599 
L 426.835999 75.687096 
L 426.097757 76.100651 
L 425.370403 76.116259 
L 424.62481 76.58026 
L 423.900995 76.642095 
L 423.17718 78.70258 
L 422.41961 80.252539 
L 421.705697 81.458502 
L 420.977526 82.256774 
L 420.261333 82.246534 
L 418.763343 82.934286 
L 417.302102 84.012618 
L 416.576517 84.714632 
L 415.846033 87.222579 
L 415.113235 88.452944 
L 414.387378 89.021622 
L 413.66819 89.403724 
L 412.935392 89.624643 
L 411.456185 90.866892 
L 409.984463 92.76243 
L 406.333402 96.288103 
L 405.591621 97.352254 
L 404.847662 97.989223 
L 403.38016 98.873771 
L 401.888839 100.139628 
L 400.413035 102.245747 
L 398.951249 103.610161 
L 397.497358 104.714399 
L 396.037206 106.201929 
L 394.573106 107.643191 
L 391.639463 110.296596 
L 382.169842 118.828588 
L 380.733917 120.113143 
L 377.805174 122.868114 
L 377.057949 123.391396 
L 371.901139 128.002452 
L 370.44997 129.156761 
L 368.238237 131.206154 
L 367.523745 131.910336 
L 364.624673 134.076111 
L 362.427367 136.085099 
L 360.953332 137.108925 
L 360.21919 137.545058 
L 356.57752 140.631666 
L 354.412063 142.222663 
L 353.696142 142.824932 
L 352.98131 143.584859 
L 348.673041 146.925769 
L 347.227588 148.105113 
L 346.507039 148.497118 
L 340.679769 153.139943 
L 339.932543 153.708938 
L 338.499612 154.581285 
L 334.921368 157.17432 
L 318.84758 168.936674 
L 318.106343 169.40022 
L 315.922239 171.263038 
L 314.443304 172.116926 
L 313.70889 172.49062 
L 312.261804 173.50074 
L 310.77198 174.765963 
L 308.59509 175.851782 
L 307.148004 176.802958 
L 306.426639 177.480649 
L 304.973837 178.474923 
L 303.507287 179.635412 
L 302.060746 180.422196 
L 299.8795 181.747076 
L 298.416354 182.838243 
L 296.236742 184.143237 
L 294.008284 185.694008 
L 291.848816 186.892327 
L 289.625106 188.552804 
L 288.192991 189.395165 
L 285.311613 191.498352 
L 283.832678 192.082597 
L 283.113218 192.400448 
L 282.380284 192.899724 
L 280.934559 194.213909 
L 279.448002 195.102022 
L 278.703771 195.422012 
L 277.246222 196.378901 
L 276.509204 196.94845 
L 274.348103 198.113455 
L 272.893667 198.977324 
L 271.435965 200.029671 
L 269.986701 200.724474 
L 267.791845 202.135155 
L 267.071841 202.715558 
L 261.264986 206.143942 
L 257.616511 208.108387 
L 256.882896 208.721747 
L 253.993352 210.417955 
L 253.248304 210.738896 
L 251.025682 212.211452 
L 249.541303 213.005802 
L 248.090406 214.019882 
L 244.442475 215.979672 
L 242.984364 217.108708 
L 241.502418 217.600428 
L 240.043355 218.303154 
L 237.869051 219.857708 
L 234.935136 220.937506 
L 233.46042 222.163117 
L 232.019323 222.964875 
L 229.827189 223.980698 
L 227.621444 225.24608 
L 226.893818 225.482825 
L 224.728633 226.652741 
L 221.802527 228.359436 
L 220.35095 229.362109 
L 217.43392 230.527707 
L 215.960566 231.698653 
L 214.492111 232.336417 
L 212.278608 233.288514 
L 211.553976 233.893952 
L 209.363884 235.141112 
L 205.717723 237.054521 
L 204.992274 237.273222 
L 202.117429 238.740232 
L 201.402325 239.23214 
L 199.964766 239.862969 
L 198.528841 240.605229 
L 197.812376 240.840408 
L 195.63358 241.99444 
L 194.917387 242.207001 
L 191.945362 243.909388 
L 190.459077 244.707541 
L 188.968982 245.254194 
L 186.041514 246.801276 
L 180.914649 249.255945 
L 178.733676 250.484408 
L 177.269712 250.938868 
L 175.824668 251.661083 
L 174.358799 252.725947 
L 173.612118 253.012068 
L 172.145433 253.382026 
L 171.430601 253.622989 
L 169.230241 254.871295 
L 167.770088 255.299528 
L 166.297142 256.173529 
L 164.814124 257.025911 
L 164.09412 257.39613 
L 161.905252 258.024097 
L 159.693655 259.113798 
L 158.978823 259.39881 
L 158.258002 259.544188 
L 156.808875 260.145031 
L 156.086421 260.685662 
L 153.897553 261.72256 
L 152.441467 262.311228 
L 151.708533 262.871824 
L 150.965254 263.260581 
L 148.036511 264.19712 
L 145.833629 265.292485 
L 144.360955 265.719914 
L 143.631151 265.90646 
L 142.155211 266.7979 
L 141.424454 267.318567 
L 139.947969 267.977798 
L 137.742224 268.506589 
L 136.27377 269.380204 
L 134.067447 270.318903 
L 130.414072 271.79641 
L 126.771585 273.386655 
L 125.301633 273.98924 
L 123.835764 274.674775 
L 123.106777 274.880443 
L 121.651253 275.48699 
L 120.934243 275.695886 
L 119.472457 276.452882 
L 118.74347 276.507696 
L 118.019927 276.691577 
L 114.361788 278.409375 
L 112.177548 279.238703 
L 108.465239 280.628884 
L 101.939197 282.9275 
L 99.762579 283.910841 
L 96.8561 284.665463 
L 93.192654 286.219007 
L 92.469655 286.394807 
L 90.990856 286.878853 
L 88.816961 287.511207 
L 88.072729 287.579399 
L 85.094716 288.783818 
L 84.353751 289.201017 
L 82.913197 289.439833 
L 78.593605 290.989614 
L 77.847741 291.06 
L 75.678336 290.72991 
L 75.155755 290.921449 
L 75.026442 289.4376 
L 75.026442 289.4376 
" clip-path="url(#p096d110d8b)" style="fill: none; stroke: #000000; stroke-width: 2; stroke-linecap: square"/>
   </g>
   <g id="patch_3">
    <path d="M 57.17 303.64 
L 57.17 26.88 
" style="fill: none; stroke: #000000; stroke-width: 0.8; stroke-linejoin: miter; stroke-linecap: square"/>
   </g>
   <g id="patch_4">
    <path d="M 450 303.64 
L 450 26.88 
" style="fill: none; stroke: #000000; stroke-width: 0.8; stroke-linejoin: miter; stroke-linecap: square"/>
   </g>
   <g id="patch_5">
    <path d="M 57.17 303.64 
L 450 303.64 
" style="fill: none; stroke: #000000; stroke-width: 0.8; stroke-linejoin: miter; stroke-linecap: square"/>
   </g>
   <g id="patch_6">
    <path d="M 57.17 26.88 
L 450 26.88 
" style="fill: none; stroke: #000000; stroke-width: 0.8; stroke-linejoin: miter; stroke-linecap: square"/>
   </g>
   <g id="text_18">
    <!-- 2025-07-02 Trial 24 - Stress vs Strain -->
    <g transform="translate(142.330937 20.88) scale(0.12 -0.12)">
     <defs>
      <path id="DejaVuSans-54" d="M -19 4666 
L 3928 4666 
L 3928 4134 
L 2272 4134 
L 2272 0 
L 1638 0 
L 1638 4134 
L -19 4134 
L -19 4666 
z
" transform="scale(0.015625)"/>
      <path id="DejaVuSans-6c" d="M 603 4863 
L 1178 4863 
L 1178 0 
L 603 0 
L 603 4863 
z
" transform="scale(0.015625)"/>
      <path id="DejaVuSans-34" d="M 2419 4116 
L 825 1625 
L 2419 1625 
L 2419 4116 
z
M 2253 4666 
L 3047 4666 
L 3047 1625 
L 3713 1625 
L 3713 1100 
L 3047 1100 
L 3047 0 
L 2419 0 
L 2419 1100 
L 313 1100 
L 313 1709 
L 2253 4666 
z
" transform="scale(0.015625)"/>
      <path id="DejaVuSans-76" d="M 191 3500 
L 800 3500 
L 1894 563 
L 2988 3500 
L 3597 3500 
L 2284 0 
L 1503 0 
L 191 3500 
z
" transform="scale(0.015625)"/>
     </defs>
     <use xlink:href="#DejaVuSans-32"/>
     <use xlink:href="#DejaVuSans-30" transform="translate(63.623047 0)"/>
     <use xlink:href="#DejaVuSans-32" transform="translate(127.246094 0)"/>
     <use xlink:href="#DejaVuSans-35" transform="translate(190.869141 0)"/>
     <use xlink:href="#DejaVuSans-2d" transform="translate(254.492188 0)"/>
     <use xlink:href="#DejaVuSans-30" transform="translate(290.576172 0)"/>
     <use xlink:href="#DejaVuSans-37" transform="translate(354.199219 0)"/>
     <use xlink:href="#DejaVuSans-2d" transform="translate(417.822266 0)"/>
     <use xlink:href="#DejaVuSans-30" transform="translate(453.90625 0)"/>
     <use xlink:href="#DejaVuSans-32" transform="translate(517.529297 0)"/>
     <use xlink:href="#DejaVuSans-20" transform="translate(581.152344 0)"/>
     <use xlink:href="#DejaVuSans-54" transform="translate(612.939453 0)"/>
     <use xlink:href="#DejaVuSans-72" transform="translate(659.273438 0)"/>
     <use xlink:href="#DejaVuSans-69" transform="translate(700.386719 0)"/>
     <use xlink:href="#DejaVuSans-61" transform="translate(728.169922 0)"/>
     <use xlink:href="#DejaVuSans-6c" transform="translate(789.449219 0)"/>
     <use xlink:href="#DejaVuSans-20" transform="translate(817.232422 0)"/>
     <use xlink:href="#DejaVuSans-32" transform="translate(849.019531 0)"/>
     <use xlink:href="#DejaVuSans-34" transform="translate(912.642578 0)"/>
     <use xlink:href="#DejaVuSans-20" transform="translate(976.265625 0)"/>
     <use xlink:href="#DejaVuSans-2d" transform="translate(1008.052734 0)"/>
     <use xlink:href="#DejaVuSans-20" transform="translate(1044.136719 0)"/>
     <use xlink:href="#DejaVuSans-53" transform="translate(1075.923828 0)"/>
     <use xlink:href="#DejaVuSans-74" transform="translate(1139.400391 0)"/>
     <use xlink:href="#DejaVuSans-72" transform="translate(1178.609375 0)"/>
     <use xlink:href="#DejaVuSans-65" transform="translate(1217.472656 0)"/>
     <use xlink:href="#DejaVuSans-73" transform="translate(1278.996094 0)"/>
     <use xlink:href="#DejaVuSans-73" transform="translate(1331.095703 0)"/>
     <use xlink:href="#DejaVuSans-20" transform="translate(1383.195312 0)"/>
     <use xlink:href="#DejaVuSans-76" transform="translate(1414.982422 0)"/>
     <use xlink:href="#DejaVuSans-73" transform="translate(1474.162109 0)"/>
     <use xlink:href="#DejaVuSans-20" transform="translate(1526.261719 0)"/>
     <use xlink:href="#DejaVuSans-53" transform="translate(1558.048828 0)"/>
     <use xlink:href="#DejaVuSans-74" transform="translate(1621.525391 0)"/>
     <use xlink:href="#DejaVuSans-72" transform="translate(1660.734375 0)"/>
     <use xlink:href="#DejaVuSans-61" transform="translate(1701.847656 0)"/>
     <use xlink:href="#DejaVuSans-69" transform="translate(1763.126953 0)"/>
     <use xlink:href="#DejaVuSans-6e" transform="translate(1790.910156 0)"/>
    </g>
   </g>
   <g id="legend_1">
    <g id="patch_7">
     <path d="M 64.17 64.23625 
L 170.154375 64.23625 
Q 172.154375 64.23625 172.154375 62.23625 
L 172.154375 33.88 
Q 172.154375 31.88 170.154375 31.88 
L 64.17 31.88 
Q 62.17 31.88 62.17 33.88 
L 62.17 62.23625 
Q 62.17 64.23625 64.17 64.23625 
z
" style="fill: #ffffff; opacity: 0.8; stroke: #cccccc; stroke-linejoin: miter"/>
    </g>
    <g id="line2d_33">
     <path d="M 66.17 39.978437 
L 76.17 39.978437 
L 86.17 39.978437 
" style="fill: none; stroke: #ff0000; stroke-width: 2; stroke-linecap: square"/>
    </g>
    <g id="text_19">
     <!-- Raw Force -->
     <g transform="translate(94.17 43.478437) scale(0.1 -0.1)">
      <defs>
       <path id="DejaVuSans-52" d="M 2841 2188 
Q 3044 2119 3236 1894 
Q 3428 1669 3622 1275 
L 4263 0 
L 3584 0 
L 2988 1197 
Q 2756 1666 2539 1819 
Q 2322 1972 1947 1972 
L 1259 1972 
L 1259 0 
L 628 0 
L 628 4666 
L 2053 4666 
Q 2853 4666 3247 4331 
Q 3641 3997 3641 3322 
Q 3641 2881 3436 2590 
Q 3231 2300 2841 2188 
z
M 1259 4147 
L 1259 2491 
L 2053 2491 
Q 2509 2491 2742 2702 
Q 2975 2913 2975 3322 
Q 2975 3731 2742 3939 
Q 2509 4147 2053 4147 
L 1259 4147 
z
" transform="scale(0.015625)"/>
       <path id="DejaVuSans-77" d="M 269 3500 
L 844 3500 
L 1563 769 
L 2278 3500 
L 2956 3500 
L 3675 769 
L 4391 3500 
L 4966 3500 
L 4050 0 
L 3372 0 
L 2619 2869 
L 1863 0 
L 1184 0 
L 269 3500 
z
" transform="scale(0.015625)"/>
       <path id="DejaVuSans-46" d="M 628 4666 
L 3309 4666 
L 3309 4134 
L 1259 4134 
L 1259 2759 
L 3109 2759 
L 3109 2228 
L 1259 2228 
L 1259 0 
L 628 0 
L 628 4666 
z
" transform="scale(0.015625)"/>
       <path id="DejaVuSans-6f" d="M 1959 3097 
Q 1497 3097 1228 2736 
Q 959 2375 959 1747 
Q 959 1119 1226 758 
Q 1494 397 1959 397 
Q 2419 397 2687 759 
Q 2956 1122 2956 1747 
Q 2956 2369 2687 2733 
Q 2419 3097 1959 3097 
z
M 1959 3584 
Q 2709 3584 3137 3096 
Q 3566 2609 3566 1747 
Q 3566 888 3137 398 
Q 2709 -91 1959 -91 
Q 1206 -91 779 398 
Q 353 888 353 1747 
Q 353 2609 779 3096 
Q 1206 3584 1959 3584 
z
" transform="scale(0.015625)"/>
       <path id="DejaVuSans-63" d="M 3122 3366 
L 3122 2828 
Q 2878 2963 2633 3030 
Q 2388 3097 2138 3097 
Q 1578 3097 1268 2742 
Q 959 2388 959 1747 
Q 959 1106 1268 751 
Q 1578 397 2138 397 
Q 2388 397 2633 464 
Q 2878 531 3122 666 
L 3122 134 
Q 2881 22 2623 -34 
Q 2366 -91 2075 -91 
Q 1284 -91 818 406 
Q 353 903 353 1747 
Q 353 2603 823 3093 
Q 1294 3584 2113 3584 
Q 2378 3584 2631 3529 
Q 2884 3475 3122 3366 
z
" transform="scale(0.015625)"/>
      </defs>
      <use xlink:href="#DejaVuSans-52"/>
      <use xlink:href="#DejaVuSans-61" transform="translate(67.232422 0)"/>
      <use xlink:href="#DejaVuSans-77" transform="translate(128.511719 0)"/>
      <use xlink:href="#DejaVuSans-20" transform="translate(210.298828 0)"/>
      <use xlink:href="#DejaVuSans-46" transform="translate(242.085938 0)"/>
      <use xlink:href="#DejaVuSans-6f" transform="translate(295.980469 0)"/>
      <use xlink:href="#DejaVuSans-72" transform="translate(357.162109 0)"/>
      <use xlink:href="#DejaVuSans-63" transform="translate(396.025391 0)"/>
      <use xlink:href="#DejaVuSans-65" transform="translate(451.005859 0)"/>
     </g>
    </g>
    <g id="line2d_34">
     <path d="M 66.17 54.656563 
L 76.17 54.656563 
L 86.17 54.656563 
" style="fill: none; stroke: #000000; stroke-width: 2; stroke-linecap: square"/>
    </g>
    <g id="text_20">
     <!-- Adjusted Force -->
     <g transform="translate(94.17 58.156563) scale(0.1 -0.1)">
      <defs>
       <path id="DejaVuSans-41" d="M 2188 4044 
L 1331 1722 
L 3047 1722 
L 2188 4044 
z
M 1831 4666 
L 2547 4666 
L 4325 0 
L 3669 0 
L 3244 1197 
L 1141 1197 
L 716 0 
L 50 0 
L 1831 4666 
z
" transform="scale(0.015625)"/>
       <path id="DejaVuSans-64" d="M 2906 2969 
L 2906 4863 
L 3481 4863 
L 3481 0 
L 2906 0 
L 2906 525 
Q 2725 213 2448 61 
Q 2172 -91 1784 -91 
Q 1150 -91 751 415 
Q 353 922 353 1747 
Q 353 2572 751 3078 
Q 1150 3584 1784 3584 
Q 2172 3584 2448 3432 
Q 2725 3281 2906 2969 
z
M 947 1747 
Q 947 1113 1208 752 
Q 1469 391 1925 391 
Q 2381 391 2643 752 
Q 2906 1113 2906 1747 
Q 2906 2381 2643 2742 
Q 2381 3103 1925 3103 
Q 1469 3103 1208 2742 
Q 947 2381 947 1747 
z
" transform="scale(0.015625)"/>
       <path id="DejaVuSans-6a" d="M 603 3500 
L 1178 3500 
L 1178 -63 
Q 1178 -731 923 -1031 
Q 669 -1331 103 -1331 
L -116 -1331 
L -116 -844 
L 38 -844 
Q 366 -844 484 -692 
Q 603 -541 603 -63 
L 603 3500 
z
M 603 4863 
L 1178 4863 
L 1178 4134 
L 603 4134 
L 603 4863 
z
" transform="scale(0.015625)"/>
       <path id="DejaVuSans-75" d="M 544 1381 
L 544 3500 
L 1119 3500 
L 1119 1403 
Q 1119 906 1312 657 
Q 1506 409 1894 409 
Q 2359 409 2629 706 
Q 2900 1003 2900 1516 
L 2900 3500 
L 3475 3500 
L 3475 0 
L 2900 0 
L 2900 538 
Q 2691 219 2414 64 
Q 2138 -91 1772 -91 
Q 1169 -91 856 284 
Q 544 659 544 1381 
z
M 1991 3584 
L 1991 3584 
z
" transform="scale(0.015625)"/>
      </defs>
      <use xlink:href="#DejaVuSans-41"/>
      <use xlink:href="#DejaVuSans-64" transform="translate(66.658203 0)"/>
      <use xlink:href="#DejaVuSans-6a" transform="translate(130.134766 0)"/>
      <use xlink:href="#DejaVuSans-75" transform="translate(157.917969 0)"/>
      <use xlink:href="#DejaVuSans-73" transform="translate(221.296875 0)"/>
      <use xlink:href="#DejaVuSans-74" transform="translate(273.396484 0)"/>
      <use xlink:href="#DejaVuSans-65" transform="translate(312.605469 0)"/>
      <use xlink:href="#DejaVuSans-64" transform="translate(374.128906 0)"/>
      <use xlink:href="#DejaVuSans-20" transform="translate(437.605469 0)"/>
      <use xlink:href="#DejaVuSans-46" transform="translate(469.392578 0)"/>
      <use xlink:href="#DejaVuSans-6f" transform="translate(523.287109 0)"/>
      <use xlink:href="#DejaVuSans-72" transform="translate(584.46875 0)"/>
      <use xlink:href="#DejaVuSans-63" transform="translate(623.332031 0)"/>
      <use xlink:href="#DejaVuSans-65" transform="translate(678.3125 0)"/>
     </g>
    </g>
   </g>
  </g>
 </g>
 <defs>
  <clipPath id="p096d110d8b">
   <rect x="57.17" y="26.88" width="392.83" height="276.76"/>
  </clipPath>
 </defs>
</svg>
