<?xml version="1.0" encoding="utf-8" standalone="no"?>
<!DOCTYPE svg PUBLIC "-//W3C//DTD SVG 1.1//EN"
  "http://www.w3.org/Graphics/SVG/1.1/DTD/svg11.dtd">
<svg xmlns:xlink="http://www.w3.org/1999/xlink" width="460.8pt" height="345.6pt" viewBox="0 0 460.8 345.6" xmlns="http://www.w3.org/2000/svg" version="1.1">
 <metadata>
  <rdf:RDF xmlns:dc="http://purl.org/dc/elements/1.1/" xmlns:cc="http://creativecommons.org/ns#" xmlns:rdf="http://www.w3.org/1999/02/22-rdf-syntax-ns#">
   <cc:Work>
    <dc:type rdf:resource="http://purl.org/dc/dcmitype/StillImage"/>
    <dc:date>2025-07-28T21:14:47.711138</dc:date>
    <dc:format>image/svg+xml</dc:format>
    <dc:creator>
     <cc:Agent>
      <dc:title>Matplotlib v3.10.3, https://matplotlib.org/</dc:title>
     </cc:Agent>
    </dc:creator>
   </cc:Work>
  </rdf:RDF>
 </metadata>
 <defs>
  <style type="text/css">*{stroke-linejoin: round; stroke-linecap: butt}</style>
 </defs>
 <g id="figure_1">
  <g id="patch_1">
   <path d="M 0 345.6 
L 460.8 345.6 
L 460.8 0 
L 0 0 
z
" style="fill: #ffffff"/>
  </g>
  <g id="axes_1">
   <g id="patch_2">
    <path d="M 50.87 303.64 
L 450 303.64 
L 450 26.88 
L 50.87 26.88 
z
" style="fill: #ffffff"/>
   </g>
   <g id="matplotlib.axis_1">
    <g id="xtick_1">
     <g id="line2d_1">
      <path d="M 69.275032 303.64 
L 69.275032 26.88 
" clip-path="url(#p242018cd95)" style="fill: none; stroke: #b0b0b0; stroke-opacity: 0.3; stroke-width: 0.8; stroke-linecap: square"/>
     </g>
     <g id="line2d_2">
      <defs>
       <path id="m94cb49d91d" d="M 0 0 
L 0 3.5 
" style="stroke: #000000; stroke-width: 0.8"/>
      </defs>
      <g>
       <use xlink:href="#m94cb49d91d" x="69.275032" y="303.64" style="stroke: #000000; stroke-width: 0.8"/>
      </g>
     </g>
     <g id="text_1">
      <!-- 0.00 -->
      <g transform="translate(58.14222 318.238437) scale(0.1 -0.1)">
       <defs>
        <path id="DejaVuSans-30" d="M 2034 4250 
Q 1547 4250 1301 3770 
Q 1056 3291 1056 2328 
Q 1056 1369 1301 889 
Q 1547 409 2034 409 
Q 2525 409 2770 889 
Q 3016 1369 3016 2328 
Q 3016 3291 2770 3770 
Q 2525 4250 2034 4250 
z
M 2034 4750 
Q 2819 4750 3233 4129 
Q 3647 3509 3647 2328 
Q 3647 1150 3233 529 
Q 2819 -91 2034 -91 
Q 1250 -91 836 529 
Q 422 1150 422 2328 
Q 422 3509 836 4129 
Q 1250 4750 2034 4750 
z
" transform="scale(0.015625)"/>
        <path id="DejaVuSans-2e" d="M 684 794 
L 1344 794 
L 1344 0 
L 684 0 
L 684 794 
z
" transform="scale(0.015625)"/>
       </defs>
       <use xlink:href="#DejaVuSans-30"/>
       <use xlink:href="#DejaVuSans-2e" transform="translate(63.623047 0)"/>
       <use xlink:href="#DejaVuSans-30" transform="translate(95.410156 0)"/>
       <use xlink:href="#DejaVuSans-30" transform="translate(159.033203 0)"/>
      </g>
     </g>
    </g>
    <g id="xtick_2">
     <g id="line2d_3">
      <path d="M 136.891614 303.64 
L 136.891614 26.88 
" clip-path="url(#p242018cd95)" style="fill: none; stroke: #b0b0b0; stroke-opacity: 0.3; stroke-width: 0.8; stroke-linecap: square"/>
     </g>
     <g id="line2d_4">
      <g>
       <use xlink:href="#m94cb49d91d" x="136.891614" y="303.64" style="stroke: #000000; stroke-width: 0.8"/>
      </g>
     </g>
     <g id="text_2">
      <!-- 0.02 -->
      <g transform="translate(125.758801 318.238437) scale(0.1 -0.1)">
       <defs>
        <path id="DejaVuSans-32" d="M 1228 531 
L 3431 531 
L 3431 0 
L 469 0 
L 469 531 
Q 828 903 1448 1529 
Q 2069 2156 2228 2338 
Q 2531 2678 2651 2914 
Q 2772 3150 2772 3378 
Q 2772 3750 2511 3984 
Q 2250 4219 1831 4219 
Q 1534 4219 1204 4116 
Q 875 4013 500 3803 
L 500 4441 
Q 881 4594 1212 4672 
Q 1544 4750 1819 4750 
Q 2544 4750 2975 4387 
Q 3406 4025 3406 3419 
Q 3406 3131 3298 2873 
Q 3191 2616 2906 2266 
Q 2828 2175 2409 1742 
Q 1991 1309 1228 531 
z
" transform="scale(0.015625)"/>
       </defs>
       <use xlink:href="#DejaVuSans-30"/>
       <use xlink:href="#DejaVuSans-2e" transform="translate(63.623047 0)"/>
       <use xlink:href="#DejaVuSans-30" transform="translate(95.410156 0)"/>
       <use xlink:href="#DejaVuSans-32" transform="translate(159.033203 0)"/>
      </g>
     </g>
    </g>
    <g id="xtick_3">
     <g id="line2d_5">
      <path d="M 204.508196 303.64 
L 204.508196 26.88 
" clip-path="url(#p242018cd95)" style="fill: none; stroke: #b0b0b0; stroke-opacity: 0.3; stroke-width: 0.8; stroke-linecap: square"/>
     </g>
     <g id="line2d_6">
      <g>
       <use xlink:href="#m94cb49d91d" x="204.508196" y="303.64" style="stroke: #000000; stroke-width: 0.8"/>
      </g>
     </g>
     <g id="text_3">
      <!-- 0.04 -->
      <g transform="translate(193.375383 318.238437) scale(0.1 -0.1)">
       <defs>
        <path id="DejaVuSans-34" d="M 2419 4116 
L 825 1625 
L 2419 1625 
L 2419 4116 
z
M 2253 4666 
L 3047 4666 
L 3047 1625 
L 3713 1625 
L 3713 1100 
L 3047 1100 
L 3047 0 
L 2419 0 
L 2419 1100 
L 313 1100 
L 313 1709 
L 2253 4666 
z
" transform="scale(0.015625)"/>
       </defs>
       <use xlink:href="#DejaVuSans-30"/>
       <use xlink:href="#DejaVuSans-2e" transform="translate(63.623047 0)"/>
       <use xlink:href="#DejaVuSans-30" transform="translate(95.410156 0)"/>
       <use xlink:href="#DejaVuSans-34" transform="translate(159.033203 0)"/>
      </g>
     </g>
    </g>
    <g id="xtick_4">
     <g id="line2d_7">
      <path d="M 272.124777 303.64 
L 272.124777 26.88 
" clip-path="url(#p242018cd95)" style="fill: none; stroke: #b0b0b0; stroke-opacity: 0.3; stroke-width: 0.8; stroke-linecap: square"/>
     </g>
     <g id="line2d_8">
      <g>
       <use xlink:href="#m94cb49d91d" x="272.124777" y="303.64" style="stroke: #000000; stroke-width: 0.8"/>
      </g>
     </g>
     <g id="text_4">
      <!-- 0.06 -->
      <g transform="translate(260.991965 318.238437) scale(0.1 -0.1)">
       <defs>
        <path id="DejaVuSans-36" d="M 2113 2584 
Q 1688 2584 1439 2293 
Q 1191 2003 1191 1497 
Q 1191 994 1439 701 
Q 1688 409 2113 409 
Q 2538 409 2786 701 
Q 3034 994 3034 1497 
Q 3034 2003 2786 2293 
Q 2538 2584 2113 2584 
z
M 3366 4563 
L 3366 3988 
Q 3128 4100 2886 4159 
Q 2644 4219 2406 4219 
Q 1781 4219 1451 3797 
Q 1122 3375 1075 2522 
Q 1259 2794 1537 2939 
Q 1816 3084 2150 3084 
Q 2853 3084 3261 2657 
Q 3669 2231 3669 1497 
Q 3669 778 3244 343 
Q 2819 -91 2113 -91 
Q 1303 -91 875 529 
Q 447 1150 447 2328 
Q 447 3434 972 4092 
Q 1497 4750 2381 4750 
Q 2619 4750 2861 4703 
Q 3103 4656 3366 4563 
z
" transform="scale(0.015625)"/>
       </defs>
       <use xlink:href="#DejaVuSans-30"/>
       <use xlink:href="#DejaVuSans-2e" transform="translate(63.623047 0)"/>
       <use xlink:href="#DejaVuSans-30" transform="translate(95.410156 0)"/>
       <use xlink:href="#DejaVuSans-36" transform="translate(159.033203 0)"/>
      </g>
     </g>
    </g>
    <g id="xtick_5">
     <g id="line2d_9">
      <path d="M 339.741359 303.64 
L 339.741359 26.88 
" clip-path="url(#p242018cd95)" style="fill: none; stroke: #b0b0b0; stroke-opacity: 0.3; stroke-width: 0.8; stroke-linecap: square"/>
     </g>
     <g id="line2d_10">
      <g>
       <use xlink:href="#m94cb49d91d" x="339.741359" y="303.64" style="stroke: #000000; stroke-width: 0.8"/>
      </g>
     </g>
     <g id="text_5">
      <!-- 0.08 -->
      <g transform="translate(328.608547 318.238437) scale(0.1 -0.1)">
       <defs>
        <path id="DejaVuSans-38" d="M 2034 2216 
Q 1584 2216 1326 1975 
Q 1069 1734 1069 1313 
Q 1069 891 1326 650 
Q 1584 409 2034 409 
Q 2484 409 2743 651 
Q 3003 894 3003 1313 
Q 3003 1734 2745 1975 
Q 2488 2216 2034 2216 
z
M 1403 2484 
Q 997 2584 770 2862 
Q 544 3141 544 3541 
Q 544 4100 942 4425 
Q 1341 4750 2034 4750 
Q 2731 4750 3128 4425 
Q 3525 4100 3525 3541 
Q 3525 3141 3298 2862 
Q 3072 2584 2669 2484 
Q 3125 2378 3379 2068 
Q 3634 1759 3634 1313 
Q 3634 634 3220 271 
Q 2806 -91 2034 -91 
Q 1263 -91 848 271 
Q 434 634 434 1313 
Q 434 1759 690 2068 
Q 947 2378 1403 2484 
z
M 1172 3481 
Q 1172 3119 1398 2916 
Q 1625 2713 2034 2713 
Q 2441 2713 2670 2916 
Q 2900 3119 2900 3481 
Q 2900 3844 2670 4047 
Q 2441 4250 2034 4250 
Q 1625 4250 1398 4047 
Q 1172 3844 1172 3481 
z
" transform="scale(0.015625)"/>
       </defs>
       <use xlink:href="#DejaVuSans-30"/>
       <use xlink:href="#DejaVuSans-2e" transform="translate(63.623047 0)"/>
       <use xlink:href="#DejaVuSans-30" transform="translate(95.410156 0)"/>
       <use xlink:href="#DejaVuSans-38" transform="translate(159.033203 0)"/>
      </g>
     </g>
    </g>
    <g id="xtick_6">
     <g id="line2d_11">
      <path d="M 407.357941 303.64 
L 407.357941 26.88 
" clip-path="url(#p242018cd95)" style="fill: none; stroke: #b0b0b0; stroke-opacity: 0.3; stroke-width: 0.8; stroke-linecap: square"/>
     </g>
     <g id="line2d_12">
      <g>
       <use xlink:href="#m94cb49d91d" x="407.357941" y="303.64" style="stroke: #000000; stroke-width: 0.8"/>
      </g>
     </g>
     <g id="text_6">
      <!-- 0.10 -->
      <g transform="translate(396.225129 318.238437) scale(0.1 -0.1)">
       <defs>
        <path id="DejaVuSans-31" d="M 794 531 
L 1825 531 
L 1825 4091 
L 703 3866 
L 703 4441 
L 1819 4666 
L 2450 4666 
L 2450 531 
L 3481 531 
L 3481 0 
L 794 0 
L 794 531 
z
" transform="scale(0.015625)"/>
       </defs>
       <use xlink:href="#DejaVuSans-30"/>
       <use xlink:href="#DejaVuSans-2e" transform="translate(63.623047 0)"/>
       <use xlink:href="#DejaVuSans-31" transform="translate(95.410156 0)"/>
       <use xlink:href="#DejaVuSans-30" transform="translate(159.033203 0)"/>
      </g>
     </g>
    </g>
    <g id="text_7">
     <!-- Strain [-] -->
     <g transform="translate(228.32875 331.916562) scale(0.1 -0.1)">
      <defs>
       <path id="DejaVuSans-53" d="M 3425 4513 
L 3425 3897 
Q 3066 4069 2747 4153 
Q 2428 4238 2131 4238 
Q 1616 4238 1336 4038 
Q 1056 3838 1056 3469 
Q 1056 3159 1242 3001 
Q 1428 2844 1947 2747 
L 2328 2669 
Q 3034 2534 3370 2195 
Q 3706 1856 3706 1288 
Q 3706 609 3251 259 
Q 2797 -91 1919 -91 
Q 1588 -91 1214 -16 
Q 841 59 441 206 
L 441 856 
Q 825 641 1194 531 
Q 1563 422 1919 422 
Q 2459 422 2753 634 
Q 3047 847 3047 1241 
Q 3047 1584 2836 1778 
Q 2625 1972 2144 2069 
L 1759 2144 
Q 1053 2284 737 2584 
Q 422 2884 422 3419 
Q 422 4038 858 4394 
Q 1294 4750 2059 4750 
Q 2388 4750 2728 4690 
Q 3069 4631 3425 4513 
z
" transform="scale(0.015625)"/>
       <path id="DejaVuSans-74" d="M 1172 4494 
L 1172 3500 
L 2356 3500 
L 2356 3053 
L 1172 3053 
L 1172 1153 
Q 1172 725 1289 603 
Q 1406 481 1766 481 
L 2356 481 
L 2356 0 
L 1766 0 
Q 1100 0 847 248 
Q 594 497 594 1153 
L 594 3053 
L 172 3053 
L 172 3500 
L 594 3500 
L 594 4494 
L 1172 4494 
z
" transform="scale(0.015625)"/>
       <path id="DejaVuSans-72" d="M 2631 2963 
Q 2534 3019 2420 3045 
Q 2306 3072 2169 3072 
Q 1681 3072 1420 2755 
Q 1159 2438 1159 1844 
L 1159 0 
L 581 0 
L 581 3500 
L 1159 3500 
L 1159 2956 
Q 1341 3275 1631 3429 
Q 1922 3584 2338 3584 
Q 2397 3584 2469 3576 
Q 2541 3569 2628 3553 
L 2631 2963 
z
" transform="scale(0.015625)"/>
       <path id="DejaVuSans-61" d="M 2194 1759 
Q 1497 1759 1228 1600 
Q 959 1441 959 1056 
Q 959 750 1161 570 
Q 1363 391 1709 391 
Q 2188 391 2477 730 
Q 2766 1069 2766 1631 
L 2766 1759 
L 2194 1759 
z
M 3341 1997 
L 3341 0 
L 2766 0 
L 2766 531 
Q 2569 213 2275 61 
Q 1981 -91 1556 -91 
Q 1019 -91 701 211 
Q 384 513 384 1019 
Q 384 1609 779 1909 
Q 1175 2209 1959 2209 
L 2766 2209 
L 2766 2266 
Q 2766 2663 2505 2880 
Q 2244 3097 1772 3097 
Q 1472 3097 1187 3025 
Q 903 2953 641 2809 
L 641 3341 
Q 956 3463 1253 3523 
Q 1550 3584 1831 3584 
Q 2591 3584 2966 3190 
Q 3341 2797 3341 1997 
z
" transform="scale(0.015625)"/>
       <path id="DejaVuSans-69" d="M 603 3500 
L 1178 3500 
L 1178 0 
L 603 0 
L 603 3500 
z
M 603 4863 
L 1178 4863 
L 1178 4134 
L 603 4134 
L 603 4863 
z
" transform="scale(0.015625)"/>
       <path id="DejaVuSans-6e" d="M 3513 2113 
L 3513 0 
L 2938 0 
L 2938 2094 
Q 2938 2591 2744 2837 
Q 2550 3084 2163 3084 
Q 1697 3084 1428 2787 
Q 1159 2491 1159 1978 
L 1159 0 
L 581 0 
L 581 3500 
L 1159 3500 
L 1159 2956 
Q 1366 3272 1645 3428 
Q 1925 3584 2291 3584 
Q 2894 3584 3203 3211 
Q 3513 2838 3513 2113 
z
" transform="scale(0.015625)"/>
       <path id="DejaVuSans-20" transform="scale(0.015625)"/>
       <path id="DejaVuSans-5b" d="M 550 4863 
L 1875 4863 
L 1875 4416 
L 1125 4416 
L 1125 -397 
L 1875 -397 
L 1875 -844 
L 550 -844 
L 550 4863 
z
" transform="scale(0.015625)"/>
       <path id="DejaVuSans-2d" d="M 313 2009 
L 1997 2009 
L 1997 1497 
L 313 1497 
L 313 2009 
z
" transform="scale(0.015625)"/>
       <path id="DejaVuSans-5d" d="M 1947 4863 
L 1947 -844 
L 622 -844 
L 622 -397 
L 1369 -397 
L 1369 4416 
L 622 4416 
L 622 4863 
L 1947 4863 
z
" transform="scale(0.015625)"/>
      </defs>
      <use xlink:href="#DejaVuSans-53"/>
      <use xlink:href="#DejaVuSans-74" transform="translate(63.476562 0)"/>
      <use xlink:href="#DejaVuSans-72" transform="translate(102.685547 0)"/>
      <use xlink:href="#DejaVuSans-61" transform="translate(143.798828 0)"/>
      <use xlink:href="#DejaVuSans-69" transform="translate(205.078125 0)"/>
      <use xlink:href="#DejaVuSans-6e" transform="translate(232.861328 0)"/>
      <use xlink:href="#DejaVuSans-20" transform="translate(296.240234 0)"/>
      <use xlink:href="#DejaVuSans-5b" transform="translate(328.027344 0)"/>
      <use xlink:href="#DejaVuSans-2d" transform="translate(367.041016 0)"/>
      <use xlink:href="#DejaVuSans-5d" transform="translate(403.125 0)"/>
     </g>
    </g>
   </g>
   <g id="matplotlib.axis_2">
    <g id="ytick_1">
     <g id="line2d_13">
      <path d="M 50.87 256.287967 
L 450 256.287967 
" clip-path="url(#p242018cd95)" style="fill: none; stroke: #b0b0b0; stroke-opacity: 0.3; stroke-width: 0.8; stroke-linecap: square"/>
     </g>
     <g id="line2d_14">
      <defs>
       <path id="m0f35e9d531" d="M 0 0 
L -3.5 0 
" style="stroke: #000000; stroke-width: 0.8"/>
      </defs>
      <g>
       <use xlink:href="#m0f35e9d531" x="50.87" y="256.287967" style="stroke: #000000; stroke-width: 0.8"/>
      </g>
     </g>
     <g id="text_8">
      <!-- 0 -->
      <g transform="translate(37.5075 260.087186) scale(0.1 -0.1)">
       <use xlink:href="#DejaVuSans-30"/>
      </g>
     </g>
    </g>
    <g id="ytick_2">
     <g id="line2d_15">
      <path d="M 50.87 205.131794 
L 450 205.131794 
" clip-path="url(#p242018cd95)" style="fill: none; stroke: #b0b0b0; stroke-opacity: 0.3; stroke-width: 0.8; stroke-linecap: square"/>
     </g>
     <g id="line2d_16">
      <g>
       <use xlink:href="#m0f35e9d531" x="50.87" y="205.131794" style="stroke: #000000; stroke-width: 0.8"/>
      </g>
     </g>
     <g id="text_9">
      <!-- 200 -->
      <g transform="translate(24.7825 208.931013) scale(0.1 -0.1)">
       <use xlink:href="#DejaVuSans-32"/>
       <use xlink:href="#DejaVuSans-30" transform="translate(63.623047 0)"/>
       <use xlink:href="#DejaVuSans-30" transform="translate(127.246094 0)"/>
      </g>
     </g>
    </g>
    <g id="ytick_3">
     <g id="line2d_17">
      <path d="M 50.87 153.97562 
L 450 153.97562 
" clip-path="url(#p242018cd95)" style="fill: none; stroke: #b0b0b0; stroke-opacity: 0.3; stroke-width: 0.8; stroke-linecap: square"/>
     </g>
     <g id="line2d_18">
      <g>
       <use xlink:href="#m0f35e9d531" x="50.87" y="153.97562" style="stroke: #000000; stroke-width: 0.8"/>
      </g>
     </g>
     <g id="text_10">
      <!-- 400 -->
      <g transform="translate(24.7825 157.774839) scale(0.1 -0.1)">
       <use xlink:href="#DejaVuSans-34"/>
       <use xlink:href="#DejaVuSans-30" transform="translate(63.623047 0)"/>
       <use xlink:href="#DejaVuSans-30" transform="translate(127.246094 0)"/>
      </g>
     </g>
    </g>
    <g id="ytick_4">
     <g id="line2d_19">
      <path d="M 50.87 102.819447 
L 450 102.819447 
" clip-path="url(#p242018cd95)" style="fill: none; stroke: #b0b0b0; stroke-opacity: 0.3; stroke-width: 0.8; stroke-linecap: square"/>
     </g>
     <g id="line2d_20">
      <g>
       <use xlink:href="#m0f35e9d531" x="50.87" y="102.819447" style="stroke: #000000; stroke-width: 0.8"/>
      </g>
     </g>
     <g id="text_11">
      <!-- 600 -->
      <g transform="translate(24.7825 106.618666) scale(0.1 -0.1)">
       <use xlink:href="#DejaVuSans-36"/>
       <use xlink:href="#DejaVuSans-30" transform="translate(63.623047 0)"/>
       <use xlink:href="#DejaVuSans-30" transform="translate(127.246094 0)"/>
      </g>
     </g>
    </g>
    <g id="ytick_5">
     <g id="line2d_21">
      <path d="M 50.87 51.663274 
L 450 51.663274 
" clip-path="url(#p242018cd95)" style="fill: none; stroke: #b0b0b0; stroke-opacity: 0.3; stroke-width: 0.8; stroke-linecap: square"/>
     </g>
     <g id="line2d_22">
      <g>
       <use xlink:href="#m0f35e9d531" x="50.87" y="51.663274" style="stroke: #000000; stroke-width: 0.8"/>
      </g>
     </g>
     <g id="text_12">
      <!-- 800 -->
      <g transform="translate(24.7825 55.462492) scale(0.1 -0.1)">
       <use xlink:href="#DejaVuSans-38"/>
       <use xlink:href="#DejaVuSans-30" transform="translate(63.623047 0)"/>
       <use xlink:href="#DejaVuSans-30" transform="translate(127.246094 0)"/>
      </g>
     </g>
    </g>
    <g id="text_13">
     <!-- Stress [Pa] -->
     <g transform="translate(18.702813 191.967812) rotate(-90) scale(0.1 -0.1)">
      <defs>
       <path id="DejaVuSans-65" d="M 3597 1894 
L 3597 1613 
L 953 1613 
Q 991 1019 1311 708 
Q 1631 397 2203 397 
Q 2534 397 2845 478 
Q 3156 559 3463 722 
L 3463 178 
Q 3153 47 2828 -22 
Q 2503 -91 2169 -91 
Q 1331 -91 842 396 
Q 353 884 353 1716 
Q 353 2575 817 3079 
Q 1281 3584 2069 3584 
Q 2775 3584 3186 3129 
Q 3597 2675 3597 1894 
z
M 3022 2063 
Q 3016 2534 2758 2815 
Q 2500 3097 2075 3097 
Q 1594 3097 1305 2825 
Q 1016 2553 972 2059 
L 3022 2063 
z
" transform="scale(0.015625)"/>
       <path id="DejaVuSans-73" d="M 2834 3397 
L 2834 2853 
Q 2591 2978 2328 3040 
Q 2066 3103 1784 3103 
Q 1356 3103 1142 2972 
Q 928 2841 928 2578 
Q 928 2378 1081 2264 
Q 1234 2150 1697 2047 
L 1894 2003 
Q 2506 1872 2764 1633 
Q 3022 1394 3022 966 
Q 3022 478 2636 193 
Q 2250 -91 1575 -91 
Q 1294 -91 989 -36 
Q 684 19 347 128 
L 347 722 
Q 666 556 975 473 
Q 1284 391 1588 391 
Q 1994 391 2212 530 
Q 2431 669 2431 922 
Q 2431 1156 2273 1281 
Q 2116 1406 1581 1522 
L 1381 1569 
Q 847 1681 609 1914 
Q 372 2147 372 2553 
Q 372 3047 722 3315 
Q 1072 3584 1716 3584 
Q 2034 3584 2315 3537 
Q 2597 3491 2834 3397 
z
" transform="scale(0.015625)"/>
       <path id="DejaVuSans-50" d="M 1259 4147 
L 1259 2394 
L 2053 2394 
Q 2494 2394 2734 2622 
Q 2975 2850 2975 3272 
Q 2975 3691 2734 3919 
Q 2494 4147 2053 4147 
L 1259 4147 
z
M 628 4666 
L 2053 4666 
Q 2838 4666 3239 4311 
Q 3641 3956 3641 3272 
Q 3641 2581 3239 2228 
Q 2838 1875 2053 1875 
L 1259 1875 
L 1259 0 
L 628 0 
L 628 4666 
z
" transform="scale(0.015625)"/>
      </defs>
      <use xlink:href="#DejaVuSans-53"/>
      <use xlink:href="#DejaVuSans-74" transform="translate(63.476562 0)"/>
      <use xlink:href="#DejaVuSans-72" transform="translate(102.685547 0)"/>
      <use xlink:href="#DejaVuSans-65" transform="translate(141.548828 0)"/>
      <use xlink:href="#DejaVuSans-73" transform="translate(203.072266 0)"/>
      <use xlink:href="#DejaVuSans-73" transform="translate(255.171875 0)"/>
      <use xlink:href="#DejaVuSans-20" transform="translate(307.271484 0)"/>
      <use xlink:href="#DejaVuSans-5b" transform="translate(339.058594 0)"/>
      <use xlink:href="#DejaVuSans-50" transform="translate(378.072266 0)"/>
      <use xlink:href="#DejaVuSans-61" transform="translate(433.875 0)"/>
      <use xlink:href="#DejaVuSans-5d" transform="translate(495.154297 0)"/>
     </g>
    </g>
   </g>
   <g id="line2d_23">
    <path d="M 69.275032 258.563696 
L 69.275032 258.47847 
L 69.277547 258.857562 
L 69.546783 258.61278 
L 70.769094 257.847188 
L 72.005234 255.565128 
L 73.246324 254.014907 
L 74.505608 254.969304 
L 76.948178 255.5871 
L 78.192723 255.440444 
L 79.463522 254.300021 
L 80.690564 252.320591 
L 81.903328 253.753602 
L 83.123 254.611211 
L 84.412685 254.603637 
L 86.902236 253.624437 
L 88.17672 253.237623 
L 89.429555 254.376968 
L 90.672258 255.097281 
L 91.907821 249.018258 
L 93.120585 247.923448 
L 94.345785 248.444305 
L 96.797566 248.797806 
L 98.024608 249.303785 
L 99.264317 248.224073 
L 100.488133 245.917884 
L 101.733632 245.270279 
L 105.404625 245.04091 
L 106.66437 244.710258 
L 107.913521 243.202635 
L 109.129508 242.463516 
L 111.582211 242.101858 
L 112.840113 241.762561 
L 114.100319 241.031598 
L 116.566839 239.019277 
L 120.329032 237.842458 
L 121.59131 237.121133 
L 122.804995 235.933799 
L 124.047006 235.309599 
L 125.270364 234.957699 
L 127.761757 233.850099 
L 128.995708 233.215048 
L 130.254535 232.096193 
L 131.501844 231.212127 
L 133.928292 230.716833 
L 135.189879 230.179243 
L 138.946775 227.487655 
L 141.383817 226.628058 
L 142.644483 225.814798 
L 146.328603 222.790115 
L 148.780384 222.44204 
L 149.994069 222.042841 
L 151.248747 221.349151 
L 153.717571 218.815957 
L 154.968104 218.331209 
L 157.457654 217.608537 
L 158.666272 217.12662 
L 159.918648 216.321045 
L 161.177889 215.042285 
L 162.403088 214.140461 
L 166.098494 212.841578 
L 167.361463 212.20774 
L 168.570541 211.381135 
L 169.792517 210.322671 
L 171.026007 209.519454 
L 175.967339 207.235372 
L 177.23169 206.201981 
L 180.996876 203.743465 
L 182.237967 203.055167 
L 183.498172 202.694774 
L 185.962851 201.15399 
L 187.184826 200.462321 
L 189.66194 198.650989 
L 190.900735 197.930473 
L 192.124827 197.386257 
L 195.852474 195.09894 
L 198.336958 193.457997 
L 200.810848 192.222943 
L 205.777974 188.920028 
L 207.036337 188.244536 
L 208.244494 187.748601 
L 209.458639 187.002607 
L 210.673706 186.10267 
L 214.431753 183.816566 
L 215.689195 183.437301 
L 216.955388 182.759922 
L 220.596903 180.210684 
L 221.808558 179.408858 
L 223.017176 178.800902 
L 224.283369 178.323838 
L 225.548181 177.504984 
L 228.067671 175.470016 
L 233.126456 172.817655 
L 234.335535 171.97447 
L 235.552443 170.849144 
L 236.775801 169.958508 
L 237.997776 169.329388 
L 239.263048 168.820916 
L 241.747993 167.314775 
L 245.455604 164.335924 
L 247.944694 163.36744 
L 250.428717 162.082105 
L 252.874698 159.725541 
L 254.125231 158.857283 
L 256.581618 157.99017 
L 257.799448 157.399064 
L 259.06426 156.528783 
L 261.548744 154.529133 
L 262.796513 153.700776 
L 264.0581 153.148965 
L 266.566075 151.527973 
L 269.03582 149.452024 
L 270.258256 148.625959 
L 273.953661 147.039948 
L 276.438145 145.047577 
L 278.918484 143.207667 
L 280.14875 142.591892 
L 281.376713 142.17131 
L 282.58798 141.571299 
L 285.111154 139.668167 
L 287.544512 137.951465 
L 289.970039 136.552896 
L 291.236693 135.669809 
L 292.445311 134.979489 
L 294.898474 133.174358 
L 297.341043 131.880227 
L 304.712738 126.513227 
L 305.925041 125.937893 
L 307.174192 125.141483 
L 310.87167 122.48063 
L 312.134179 121.753105 
L 318.405699 117.478429 
L 320.845504 116.138903 
L 322.063795 115.413535 
L 324.597563 113.482633 
L 329.519089 110.67916 
L 333.21841 107.265168 
L 334.429331 106.518636 
L 336.89493 105.607578 
L 338.153293 104.763583 
L 339.37642 103.452231 
L 340.610832 102.35481 
L 343.057431 100.777477 
L 345.528097 99.629706 
L 346.768727 98.587553 
L 347.98886 97.301005 
L 349.230181 96.454854 
L 350.444787 95.788528 
L 351.681041 95.402237 
L 352.909926 94.829464 
L 354.17658 94.019035 
L 355.41744 92.934959 
L 356.6659 91.564833 
L 357.892482 90.497742 
L 359.156372 89.905288 
L 364.142612 86.700239 
L 366.594164 84.42128 
L 367.8166 83.665176 
L 369.066211 83.255918 
L 372.761616 80.595469 
L 375.239825 78.204 
L 376.452588 77.486585 
L 378.943981 76.368134 
L 380.173326 75.697495 
L 383.871035 72.426124 
L 386.316137 70.808098 
L 388.783118 69.521145 
L 389.995421 68.641024 
L 391.253784 67.476336 
L 393.748632 65.686168 
L 396.211007 64.083913 
L 397.42331 63.296131 
L 398.640679 62.301833 
L 405.987157 57.275494 
L 408.430647 55.285415 
L 409.65815 54.587815 
L 412.100259 52.670124 
L 414.581518 50.826035 
L 415.849093 49.719312 
L 425.732218 42.581421 
L 426.97423 41.973397 
L 430.676659 40.629878 
L 431.168581 40.047264 
L 431.857727 39.46 
L 431.629384 41.037603 
L 431.505166 45.966817 
L 431.504791 45.69841 
L 431.506979 68.767906 
L 431.501135 68.368825 
L 430.282211 68.595646 
L 429.074745 71.773464 
L 427.834806 74.334025 
L 425.397764 73.443052 
L 421.621753 74.337581 
L 420.391026 74.176341 
L 419.130936 74.568328 
L 417.918173 74.217438 
L 416.657967 77.3319 
L 415.397301 79.300276 
L 412.857084 82.300695 
L 411.578455 84.368016 
L 410.324237 85.063526 
L 409.087983 84.159815 
L 407.872456 84.158281 
L 405.363099 85.302479 
L 404.119015 85.650032 
L 402.898421 86.582237 
L 401.66424 91.168196 
L 400.417392 92.749421 
L 399.185744 93.378693 
L 397.929223 93.43172 
L 396.711393 93.814153 
L 394.23566 95.192772 
L 393.001248 96.184913 
L 391.791479 97.661532 
L 388.060838 101.507833 
L 386.819977 102.113632 
L 385.586631 102.955706 
L 384.318595 103.547351 
L 381.831348 104.197247 
L 380.578051 105.30397 
L 376.888173 109.415426 
L 375.62198 110.271687 
L 373.133811 111.596115 
L 371.893872 112.410858 
L 369.42597 114.495703 
L 361.975281 119.947089 
L 359.505537 121.371944 
L 358.266288 122.471927 
L 357.025889 123.285995 
L 353.29093 126.5391 
L 349.612106 128.571373 
L 348.370325 129.492339 
L 345.878932 131.576779 
L 344.669853 132.492353 
L 343.446496 133.27663 
L 341.007611 134.602811 
L 339.798072 135.753479 
L 337.364254 137.621293 
L 334.934582 139.320336 
L 332.406341 140.915581 
L 327.518899 144.142602 
L 326.303832 144.81351 
L 325.044375 145.790141 
L 322.527649 147.294125 
L 320.026123 149.488699 
L 318.774208 150.503757 
L 314.99175 152.907678 
L 313.777604 153.758547 
L 311.324441 155.138244 
L 308.854711 156.94998 
L 307.594966 157.616643 
L 306.340288 158.778904 
L 305.122918 159.559272 
L 303.882519 160.138515 
L 302.643501 160.87332 
L 298.984944 163.636623 
L 297.774023 164.363205 
L 296.565865 165.377723 
L 295.350165 166.246681 
L 294.138784 166.770656 
L 292.876736 167.828041 
L 291.663051 168.555432 
L 290.441076 169.139528 
L 289.224627 169.857752 
L 287.957973 170.745288 
L 286.703756 171.470521 
L 282.981405 174.050628 
L 281.769103 174.850947 
L 280.536073 175.507432 
L 274.359408 179.478491 
L 273.146644 180.057061 
L 264.552642 185.369205 
L 263.336194 186.003987 
L 259.594268 188.601214 
L 257.117614 189.905421 
L 255.897942 190.694012 
L 254.631749 191.729829 
L 253.42313 192.540797 
L 250.973652 193.859024 
L 249.73924 194.281156 
L 248.523253 194.854468 
L 247.271799 195.682421 
L 243.548757 198.58767 
L 239.819728 200.620751 
L 238.575414 201.468116 
L 237.317051 202.098045 
L 233.639479 204.296469 
L 232.396777 204.824622 
L 227.403397 207.852541 
L 226.139046 208.709611 
L 220.037459 212.061189 
L 218.813641 212.846005 
L 217.591666 213.483213 
L 215.172587 215.037748 
L 212.652176 216.550494 
L 211.400262 217.428324 
L 210.148347 218.047873 
L 206.404118 220.161161 
L 203.893826 221.546488 
L 201.473366 223.0041 
L 200.206251 223.57876 
L 196.459719 226.006272 
L 191.460352 228.621697 
L 189.036206 229.947742 
L 185.34771 231.954807 
L 182.90468 233.547895 
L 181.684547 234.105772 
L 180.47639 234.510852 
L 177.989833 235.963611 
L 175.501894 237.816462 
L 174.289807 238.543788 
L 171.826972 239.538827 
L 170.616972 239.962577 
L 168.120282 241.567393 
L 161.97632 244.529595 
L 160.710587 245.289069 
L 158.179582 246.381975 
L 156.934807 247.137135 
L 155.690723 248.105146 
L 153.204857 249.808502 
L 149.482737 251.510241 
L 146.981671 252.874772 
L 143.2794 254.650846 
L 140.806431 256.145934 
L 139.547607 257.025111 
L 137.030881 258.174162 
L 135.778046 259.04269 
L 134.521985 259.650242 
L 133.262701 260.550718 
L 132.052701 261.240364 
L 128.399672 262.80265 
L 124.631952 264.864579 
L 122.200437 266.015449 
L 120.981225 266.433874 
L 118.464499 267.92977 
L 117.206136 268.616451 
L 115.939022 269.106523 
L 112.294369 270.970098 
L 111.030018 271.910206 
L 109.820939 272.567769 
L 107.384819 273.514752 
L 106.118165 274.077685 
L 102.366566 276.247859 
L 99.898664 277.104356 
L 98.640303 277.511256 
L 94.921407 279.887677 
L 93.691601 280.491724 
L 92.448898 280.952814 
L 91.218632 281.233924 
L 87.494209 283.365208 
L 85.023543 284.744871 
L 83.805045 285.017837 
L 82.594123 285.482296 
L 81.333918 286.212383 
L 77.621471 287.917694 
L 76.396732 288.517966 
L 75.182587 288.807453 
L 73.951169 289.234962 
L 71.462769 289.450399 
L 70.246897 289.914454 
L 69.348494 290.97339 
L 69.299325 291.06 
L 69.013349 289.63719 
L 69.013349 289.63719 
" clip-path="url(#p242018cd95)" style="fill: none; stroke: #ff0000; stroke-width: 2; stroke-linecap: square"/>
   </g>
   <g id="line2d_24">
    <path d="M 69.275032 258.563696 
L 69.275032 258.47847 
L 69.277547 258.857562 
L 69.546783 258.61278 
L 70.769094 257.847188 
L 72.005234 255.565128 
L 73.246324 254.014907 
L 74.505608 254.969304 
L 75.735875 260.261724 
L 76.948178 259.252699 
L 78.192723 257.862631 
L 79.463522 256.012341 
L 80.690564 252.939668 
L 83.123 254.611211 
L 84.412685 254.603637 
L 86.902236 253.624437 
L 88.17672 253.237623 
L 89.429555 254.376968 
L 90.672258 255.097281 
L 91.907821 249.018258 
L 93.120585 247.923448 
L 94.345785 248.444305 
L 96.797566 248.797806 
L 98.024608 249.303785 
L 99.264317 248.224073 
L 100.488133 245.917884 
L 101.733632 245.270279 
L 105.404625 245.04091 
L 106.66437 244.710258 
L 107.913521 243.202635 
L 109.129508 242.463516 
L 111.582211 242.101858 
L 112.840113 241.762561 
L 114.100319 241.031598 
L 116.566839 239.019277 
L 120.329032 237.842458 
L 121.59131 237.121133 
L 122.804995 235.933799 
L 124.047006 235.309599 
L 125.270364 234.957699 
L 127.761757 233.850099 
L 128.995708 233.215048 
L 130.254535 232.096193 
L 131.501844 231.212127 
L 133.928292 230.716833 
L 135.189879 230.179243 
L 138.946775 227.487655 
L 141.383817 226.628058 
L 142.644483 225.814798 
L 146.328603 222.790115 
L 148.780384 222.44204 
L 149.994069 222.042841 
L 151.248747 221.349151 
L 153.717571 218.815957 
L 154.968104 218.331209 
L 157.457654 217.608537 
L 158.666272 217.12662 
L 159.918648 216.321045 
L 161.177889 215.042285 
L 162.403088 214.140461 
L 166.098494 212.841578 
L 167.361463 212.20774 
L 168.570541 211.381135 
L 169.792517 210.322671 
L 171.026007 209.519454 
L 175.967339 207.235372 
L 177.23169 206.201981 
L 180.996876 203.743465 
L 182.237967 203.055167 
L 183.498172 202.694774 
L 185.962851 201.15399 
L 187.184826 200.462321 
L 189.66194 198.650989 
L 190.900735 197.930473 
L 192.124827 197.386257 
L 195.852474 195.09894 
L 198.336958 193.457997 
L 200.810848 192.222943 
L 205.777974 188.920028 
L 207.036337 188.244536 
L 208.244494 187.748601 
L 209.458639 187.002607 
L 210.673706 186.10267 
L 214.431753 183.816566 
L 215.689195 183.437301 
L 216.955388 182.759922 
L 220.596903 180.210684 
L 221.808558 179.408858 
L 223.017176 178.800902 
L 224.283369 178.323838 
L 225.548181 177.504984 
L 228.067671 175.470016 
L 233.126456 172.817655 
L 234.335535 171.97447 
L 235.552443 170.849144 
L 236.775801 169.958508 
L 237.997776 169.329388 
L 239.263048 168.820916 
L 241.747993 167.314775 
L 245.455604 164.335924 
L 247.944694 163.36744 
L 250.428717 162.082105 
L 252.874698 159.725541 
L 254.125231 158.857283 
L 256.581618 157.99017 
L 257.799448 157.399064 
L 259.06426 156.528783 
L 261.548744 154.529133 
L 262.796513 153.700776 
L 264.0581 153.148965 
L 266.566075 151.527973 
L 269.03582 149.452024 
L 270.258256 148.625959 
L 273.953661 147.039948 
L 276.438145 145.047577 
L 278.918484 143.207667 
L 280.14875 142.591892 
L 281.376713 142.17131 
L 282.58798 141.571299 
L 285.111154 139.668167 
L 287.544512 137.951465 
L 289.970039 136.552896 
L 291.236693 135.669809 
L 292.445311 134.979489 
L 294.898474 133.174358 
L 297.341043 131.880227 
L 304.712738 126.513227 
L 305.925041 125.937893 
L 307.174192 125.141483 
L 310.87167 122.48063 
L 312.134179 121.753105 
L 318.405699 117.478429 
L 320.845504 116.138903 
L 322.063795 115.413535 
L 324.597563 113.482633 
L 329.519089 110.67916 
L 333.21841 107.265168 
L 334.429331 106.518636 
L 336.89493 105.607578 
L 338.153293 104.763583 
L 339.37642 103.452231 
L 340.610832 102.35481 
L 343.057431 100.777477 
L 345.528097 99.629706 
L 346.768727 98.587553 
L 347.98886 97.301005 
L 349.230181 96.454854 
L 350.444787 95.788528 
L 351.681041 95.402237 
L 352.909926 94.829464 
L 354.17658 94.019035 
L 355.41744 92.934959 
L 356.6659 91.564833 
L 357.892482 90.497742 
L 359.156372 89.905288 
L 364.142612 86.700239 
L 366.594164 84.42128 
L 367.8166 83.665176 
L 369.066211 83.255918 
L 372.761616 80.595469 
L 375.239825 78.204 
L 376.452588 77.486585 
L 378.943981 76.368134 
L 380.173326 75.697495 
L 383.871035 72.426124 
L 386.316137 70.808098 
L 388.783118 69.521145 
L 389.995421 68.641024 
L 391.253784 67.476336 
L 393.748632 65.686168 
L 396.211007 64.083913 
L 397.42331 63.296131 
L 398.640679 62.301833 
L 405.987157 57.275494 
L 408.430647 55.285415 
L 409.65815 54.587815 
L 412.100259 52.670124 
L 414.581518 50.826035 
L 415.849093 49.719312 
L 425.732218 42.581421 
L 426.97423 41.973397 
L 430.676659 40.629878 
L 431.168581 40.047264 
L 431.857727 39.46 
L 431.789616 39.865989 
L 431.70167 39.57566 
L 431.629384 39.750051 
L 431.578085 39.686273 
L 431.505367 54.610293 
L 431.507641 57.832276 
L 431.50816 54.424755 
L 431.50911 57.568519 
L 431.506979 68.767906 
L 431.501135 68.368825 
L 430.282211 68.595646 
L 429.074745 71.773464 
L 427.834806 74.334025 
L 425.397764 73.443052 
L 421.621753 74.337581 
L 420.391026 74.176341 
L 419.130936 74.568328 
L 417.918173 74.217438 
L 416.657967 77.3319 
L 415.397301 79.300276 
L 412.857084 82.300695 
L 411.578455 84.368016 
L 410.324237 85.063526 
L 409.087983 84.159815 
L 407.872456 84.158281 
L 405.363099 85.302479 
L 404.119015 85.650032 
L 402.898421 86.582237 
L 401.66424 91.168196 
L 400.417392 92.749421 
L 399.185744 93.378693 
L 397.929223 93.43172 
L 396.711393 93.814153 
L 394.23566 95.192772 
L 393.001248 96.184913 
L 391.791479 97.661532 
L 388.060838 101.507833 
L 386.819977 102.113632 
L 385.586631 102.955706 
L 384.318595 103.547351 
L 381.831348 104.197247 
L 380.578051 105.30397 
L 376.888173 109.415426 
L 375.62198 110.271687 
L 373.133811 111.596115 
L 371.893872 112.410858 
L 369.42597 114.495703 
L 361.975281 119.947089 
L 359.505537 121.371944 
L 358.266288 122.471927 
L 357.025889 123.285995 
L 353.29093 126.5391 
L 349.612106 128.571373 
L 348.370325 129.492339 
L 345.878932 131.576779 
L 344.669853 132.492353 
L 343.446496 133.27663 
L 341.007611 134.602811 
L 339.798072 135.753479 
L 337.364254 137.621293 
L 334.934582 139.320336 
L 332.406341 140.915581 
L 327.518899 144.142602 
L 326.303832 144.81351 
L 325.044375 145.790141 
L 322.527649 147.294125 
L 320.026123 149.488699 
L 318.774208 150.503757 
L 314.99175 152.907678 
L 313.777604 153.758547 
L 311.324441 155.138244 
L 308.854711 156.94998 
L 307.594966 157.616643 
L 306.340288 158.778904 
L 305.122918 159.559272 
L 303.882519 160.138515 
L 302.643501 160.87332 
L 298.984944 163.636623 
L 297.774023 164.363205 
L 296.565865 165.377723 
L 295.350165 166.246681 
L 294.138784 166.770656 
L 292.876736 167.828041 
L 291.663051 168.555432 
L 290.441076 169.139528 
L 289.224627 169.857752 
L 287.957973 170.745288 
L 286.703756 171.470521 
L 282.981405 174.050628 
L 281.769103 174.850947 
L 280.536073 175.507432 
L 274.359408 179.478491 
L 273.146644 180.057061 
L 264.552642 185.369205 
L 263.336194 186.003987 
L 259.594268 188.601214 
L 257.117614 189.905421 
L 255.897942 190.694012 
L 254.631749 191.729829 
L 253.42313 192.540797 
L 250.973652 193.859024 
L 249.73924 194.281156 
L 248.523253 194.854468 
L 247.271799 195.682421 
L 243.548757 198.58767 
L 239.819728 200.620751 
L 238.575414 201.468116 
L 237.317051 202.098045 
L 233.639479 204.296469 
L 232.396777 204.824622 
L 227.403397 207.852541 
L 226.139046 208.709611 
L 220.037459 212.061189 
L 218.813641 212.846005 
L 217.591666 213.483213 
L 215.172587 215.037748 
L 212.652176 216.550494 
L 211.400262 217.428324 
L 210.148347 218.047873 
L 206.404118 220.161161 
L 203.893826 221.546488 
L 202.686129 222.368548 
L 198.951573 224.436774 
L 197.707719 225.342642 
L 185.34771 231.954807 
L 182.90468 233.547895 
L 181.684547 234.105772 
L 180.47639 234.510852 
L 177.989833 235.963611 
L 175.501894 237.816462 
L 174.289807 238.543788 
L 171.826972 239.538827 
L 170.616972 239.962577 
L 168.120282 241.567393 
L 161.97632 244.529595 
L 160.710587 245.289069 
L 158.179582 246.381975 
L 156.934807 247.137135 
L 155.690723 248.105146 
L 153.204857 249.808502 
L 149.482737 251.510241 
L 146.981671 252.874772 
L 143.2794 254.650846 
L 140.806431 256.145934 
L 139.547607 257.025111 
L 137.030881 258.174162 
L 135.778046 259.04269 
L 134.521985 259.650242 
L 133.262701 260.550718 
L 132.052701 261.240364 
L 128.399672 262.80265 
L 124.631952 264.864579 
L 122.200437 266.015449 
L 120.981225 266.433874 
L 118.464499 267.92977 
L 117.206136 268.616451 
L 115.939022 269.106523 
L 112.294369 270.970098 
L 111.030018 271.910206 
L 109.820939 272.567769 
L 107.384819 273.514752 
L 106.118165 274.077685 
L 102.366566 276.247859 
L 99.898664 277.104356 
L 98.640303 277.511256 
L 94.921407 279.887677 
L 93.691601 280.491724 
L 92.448898 280.952814 
L 91.218632 281.233924 
L 87.494209 283.365208 
L 85.023543 284.744871 
L 83.805045 285.017837 
L 82.594123 285.482296 
L 81.333918 286.212383 
L 77.621471 287.917694 
L 76.396732 288.517966 
L 75.182587 288.807453 
L 73.951169 289.234962 
L 71.462769 289.450399 
L 70.246897 289.914454 
L 69.348494 290.97339 
L 69.299325 291.06 
L 69.013349 289.63719 
L 69.013349 289.63719 
" clip-path="url(#p242018cd95)" style="fill: none; stroke: #000000; stroke-width: 2; stroke-linecap: square"/>
   </g>
   <g id="patch_3">
    <path d="M 50.87 303.64 
L 50.87 26.88 
" style="fill: none; stroke: #000000; stroke-width: 0.8; stroke-linejoin: miter; stroke-linecap: square"/>
   </g>
   <g id="patch_4">
    <path d="M 450 303.64 
L 450 26.88 
" style="fill: none; stroke: #000000; stroke-width: 0.8; stroke-linejoin: miter; stroke-linecap: square"/>
   </g>
   <g id="patch_5">
    <path d="M 50.87 303.64 
L 450 303.64 
" style="fill: none; stroke: #000000; stroke-width: 0.8; stroke-linejoin: miter; stroke-linecap: square"/>
   </g>
   <g id="patch_6">
    <path d="M 50.87 26.88 
L 450 26.88 
" style="fill: none; stroke: #000000; stroke-width: 0.8; stroke-linejoin: miter; stroke-linecap: square"/>
   </g>
   <g id="text_14">
    <!-- 2025-07-02 Trial 6 - Stress vs Strain -->
    <g transform="translate(142.998438 20.88) scale(0.12 -0.12)">
     <defs>
      <path id="DejaVuSans-35" d="M 691 4666 
L 3169 4666 
L 3169 4134 
L 1269 4134 
L 1269 2991 
Q 1406 3038 1543 3061 
Q 1681 3084 1819 3084 
Q 2600 3084 3056 2656 
Q 3513 2228 3513 1497 
Q 3513 744 3044 326 
Q 2575 -91 1722 -91 
Q 1428 -91 1123 -41 
Q 819 9 494 109 
L 494 744 
Q 775 591 1075 516 
Q 1375 441 1709 441 
Q 2250 441 2565 725 
Q 2881 1009 2881 1497 
Q 2881 1984 2565 2268 
Q 2250 2553 1709 2553 
Q 1456 2553 1204 2497 
Q 953 2441 691 2322 
L 691 4666 
z
" transform="scale(0.015625)"/>
      <path id="DejaVuSans-37" d="M 525 4666 
L 3525 4666 
L 3525 4397 
L 1831 0 
L 1172 0 
L 2766 4134 
L 525 4134 
L 525 4666 
z
" transform="scale(0.015625)"/>
      <path id="DejaVuSans-54" d="M -19 4666 
L 3928 4666 
L 3928 4134 
L 2272 4134 
L 2272 0 
L 1638 0 
L 1638 4134 
L -19 4134 
L -19 4666 
z
" transform="scale(0.015625)"/>
      <path id="DejaVuSans-6c" d="M 603 4863 
L 1178 4863 
L 1178 0 
L 603 0 
L 603 4863 
z
" transform="scale(0.015625)"/>
      <path id="DejaVuSans-76" d="M 191 3500 
L 800 3500 
L 1894 563 
L 2988 3500 
L 3597 3500 
L 2284 0 
L 1503 0 
L 191 3500 
z
" transform="scale(0.015625)"/>
     </defs>
     <use xlink:href="#DejaVuSans-32"/>
     <use xlink:href="#DejaVuSans-30" transform="translate(63.623047 0)"/>
     <use xlink:href="#DejaVuSans-32" transform="translate(127.246094 0)"/>
     <use xlink:href="#DejaVuSans-35" transform="translate(190.869141 0)"/>
     <use xlink:href="#DejaVuSans-2d" transform="translate(254.492188 0)"/>
     <use xlink:href="#DejaVuSans-30" transform="translate(290.576172 0)"/>
     <use xlink:href="#DejaVuSans-37" transform="translate(354.199219 0)"/>
     <use xlink:href="#DejaVuSans-2d" transform="translate(417.822266 0)"/>
     <use xlink:href="#DejaVuSans-30" transform="translate(453.90625 0)"/>
     <use xlink:href="#DejaVuSans-32" transform="translate(517.529297 0)"/>
     <use xlink:href="#DejaVuSans-20" transform="translate(581.152344 0)"/>
     <use xlink:href="#DejaVuSans-54" transform="translate(612.939453 0)"/>
     <use xlink:href="#DejaVuSans-72" transform="translate(659.273438 0)"/>
     <use xlink:href="#DejaVuSans-69" transform="translate(700.386719 0)"/>
     <use xlink:href="#DejaVuSans-61" transform="translate(728.169922 0)"/>
     <use xlink:href="#DejaVuSans-6c" transform="translate(789.449219 0)"/>
     <use xlink:href="#DejaVuSans-20" transform="translate(817.232422 0)"/>
     <use xlink:href="#DejaVuSans-36" transform="translate(849.019531 0)"/>
     <use xlink:href="#DejaVuSans-20" transform="translate(912.642578 0)"/>
     <use xlink:href="#DejaVuSans-2d" transform="translate(944.429688 0)"/>
     <use xlink:href="#DejaVuSans-20" transform="translate(980.513672 0)"/>
     <use xlink:href="#DejaVuSans-53" transform="translate(1012.300781 0)"/>
     <use xlink:href="#DejaVuSans-74" transform="translate(1075.777344 0)"/>
     <use xlink:href="#DejaVuSans-72" transform="translate(1114.986328 0)"/>
     <use xlink:href="#DejaVuSans-65" transform="translate(1153.849609 0)"/>
     <use xlink:href="#DejaVuSans-73" transform="translate(1215.373047 0)"/>
     <use xlink:href="#DejaVuSans-73" transform="translate(1267.472656 0)"/>
     <use xlink:href="#DejaVuSans-20" transform="translate(1319.572266 0)"/>
     <use xlink:href="#DejaVuSans-76" transform="translate(1351.359375 0)"/>
     <use xlink:href="#DejaVuSans-73" transform="translate(1410.539062 0)"/>
     <use xlink:href="#DejaVuSans-20" transform="translate(1462.638672 0)"/>
     <use xlink:href="#DejaVuSans-53" transform="translate(1494.425781 0)"/>
     <use xlink:href="#DejaVuSans-74" transform="translate(1557.902344 0)"/>
     <use xlink:href="#DejaVuSans-72" transform="translate(1597.111328 0)"/>
     <use xlink:href="#DejaVuSans-61" transform="translate(1638.224609 0)"/>
     <use xlink:href="#DejaVuSans-69" transform="translate(1699.503906 0)"/>
     <use xlink:href="#DejaVuSans-6e" transform="translate(1727.287109 0)"/>
    </g>
   </g>
   <g id="legend_1">
    <g id="patch_7">
     <path d="M 57.87 64.23625 
L 163.854375 64.23625 
Q 165.854375 64.23625 165.854375 62.23625 
L 165.854375 33.88 
Q 165.854375 31.88 163.854375 31.88 
L 57.87 31.88 
Q 55.87 31.88 55.87 33.88 
L 55.87 62.23625 
Q 55.87 64.23625 57.87 64.23625 
z
" style="fill: #ffffff; opacity: 0.8; stroke: #cccccc; stroke-linejoin: miter"/>
    </g>
    <g id="line2d_25">
     <path d="M 59.87 39.978437 
L 69.87 39.978437 
L 79.87 39.978437 
" style="fill: none; stroke: #ff0000; stroke-width: 2; stroke-linecap: square"/>
    </g>
    <g id="text_15">
     <!-- Raw Force -->
     <g transform="translate(87.87 43.478437) scale(0.1 -0.1)">
      <defs>
       <path id="DejaVuSans-52" d="M 2841 2188 
Q 3044 2119 3236 1894 
Q 3428 1669 3622 1275 
L 4263 0 
L 3584 0 
L 2988 1197 
Q 2756 1666 2539 1819 
Q 2322 1972 1947 1972 
L 1259 1972 
L 1259 0 
L 628 0 
L 628 4666 
L 2053 4666 
Q 2853 4666 3247 4331 
Q 3641 3997 3641 3322 
Q 3641 2881 3436 2590 
Q 3231 2300 2841 2188 
z
M 1259 4147 
L 1259 2491 
L 2053 2491 
Q 2509 2491 2742 2702 
Q 2975 2913 2975 3322 
Q 2975 3731 2742 3939 
Q 2509 4147 2053 4147 
L 1259 4147 
z
" transform="scale(0.015625)"/>
       <path id="DejaVuSans-77" d="M 269 3500 
L 844 3500 
L 1563 769 
L 2278 3500 
L 2956 3500 
L 3675 769 
L 4391 3500 
L 4966 3500 
L 4050 0 
L 3372 0 
L 2619 2869 
L 1863 0 
L 1184 0 
L 269 3500 
z
" transform="scale(0.015625)"/>
       <path id="DejaVuSans-46" d="M 628 4666 
L 3309 4666 
L 3309 4134 
L 1259 4134 
L 1259 2759 
L 3109 2759 
L 3109 2228 
L 1259 2228 
L 1259 0 
L 628 0 
L 628 4666 
z
" transform="scale(0.015625)"/>
       <path id="DejaVuSans-6f" d="M 1959 3097 
Q 1497 3097 1228 2736 
Q 959 2375 959 1747 
Q 959 1119 1226 758 
Q 1494 397 1959 397 
Q 2419 397 2687 759 
Q 2956 1122 2956 1747 
Q 2956 2369 2687 2733 
Q 2419 3097 1959 3097 
z
M 1959 3584 
Q 2709 3584 3137 3096 
Q 3566 2609 3566 1747 
Q 3566 888 3137 398 
Q 2709 -91 1959 -91 
Q 1206 -91 779 398 
Q 353 888 353 1747 
Q 353 2609 779 3096 
Q 1206 3584 1959 3584 
z
" transform="scale(0.015625)"/>
       <path id="DejaVuSans-63" d="M 3122 3366 
L 3122 2828 
Q 2878 2963 2633 3030 
Q 2388 3097 2138 3097 
Q 1578 3097 1268 2742 
Q 959 2388 959 1747 
Q 959 1106 1268 751 
Q 1578 397 2138 397 
Q 2388 397 2633 464 
Q 2878 531 3122 666 
L 3122 134 
Q 2881 22 2623 -34 
Q 2366 -91 2075 -91 
Q 1284 -91 818 406 
Q 353 903 353 1747 
Q 353 2603 823 3093 
Q 1294 3584 2113 3584 
Q 2378 3584 2631 3529 
Q 2884 3475 3122 3366 
z
" transform="scale(0.015625)"/>
      </defs>
      <use xlink:href="#DejaVuSans-52"/>
      <use xlink:href="#DejaVuSans-61" transform="translate(67.232422 0)"/>
      <use xlink:href="#DejaVuSans-77" transform="translate(128.511719 0)"/>
      <use xlink:href="#DejaVuSans-20" transform="translate(210.298828 0)"/>
      <use xlink:href="#DejaVuSans-46" transform="translate(242.085938 0)"/>
      <use xlink:href="#DejaVuSans-6f" transform="translate(295.980469 0)"/>
      <use xlink:href="#DejaVuSans-72" transform="translate(357.162109 0)"/>
      <use xlink:href="#DejaVuSans-63" transform="translate(396.025391 0)"/>
      <use xlink:href="#DejaVuSans-65" transform="translate(451.005859 0)"/>
     </g>
    </g>
    <g id="line2d_26">
     <path d="M 59.87 54.656563 
L 69.87 54.656563 
L 79.87 54.656563 
" style="fill: none; stroke: #000000; stroke-width: 2; stroke-linecap: square"/>
    </g>
    <g id="text_16">
     <!-- Adjusted Force -->
     <g transform="translate(87.87 58.156563) scale(0.1 -0.1)">
      <defs>
       <path id="DejaVuSans-41" d="M 2188 4044 
L 1331 1722 
L 3047 1722 
L 2188 4044 
z
M 1831 4666 
L 2547 4666 
L 4325 0 
L 3669 0 
L 3244 1197 
L 1141 1197 
L 716 0 
L 50 0 
L 1831 4666 
z
" transform="scale(0.015625)"/>
       <path id="DejaVuSans-64" d="M 2906 2969 
L 2906 4863 
L 3481 4863 
L 3481 0 
L 2906 0 
L 2906 525 
Q 2725 213 2448 61 
Q 2172 -91 1784 -91 
Q 1150 -91 751 415 
Q 353 922 353 1747 
Q 353 2572 751 3078 
Q 1150 3584 1784 3584 
Q 2172 3584 2448 3432 
Q 2725 3281 2906 2969 
z
M 947 1747 
Q 947 1113 1208 752 
Q 1469 391 1925 391 
Q 2381 391 2643 752 
Q 2906 1113 2906 1747 
Q 2906 2381 2643 2742 
Q 2381 3103 1925 3103 
Q 1469 3103 1208 2742 
Q 947 2381 947 1747 
z
" transform="scale(0.015625)"/>
       <path id="DejaVuSans-6a" d="M 603 3500 
L 1178 3500 
L 1178 -63 
Q 1178 -731 923 -1031 
Q 669 -1331 103 -1331 
L -116 -1331 
L -116 -844 
L 38 -844 
Q 366 -844 484 -692 
Q 603 -541 603 -63 
L 603 3500 
z
M 603 4863 
L 1178 4863 
L 1178 4134 
L 603 4134 
L 603 4863 
z
" transform="scale(0.015625)"/>
       <path id="DejaVuSans-75" d="M 544 1381 
L 544 3500 
L 1119 3500 
L 1119 1403 
Q 1119 906 1312 657 
Q 1506 409 1894 409 
Q 2359 409 2629 706 
Q 2900 1003 2900 1516 
L 2900 3500 
L 3475 3500 
L 3475 0 
L 2900 0 
L 2900 538 
Q 2691 219 2414 64 
Q 2138 -91 1772 -91 
Q 1169 -91 856 284 
Q 544 659 544 1381 
z
M 1991 3584 
L 1991 3584 
z
" transform="scale(0.015625)"/>
      </defs>
      <use xlink:href="#DejaVuSans-41"/>
      <use xlink:href="#DejaVuSans-64" transform="translate(66.658203 0)"/>
      <use xlink:href="#DejaVuSans-6a" transform="translate(130.134766 0)"/>
      <use xlink:href="#DejaVuSans-75" transform="translate(157.917969 0)"/>
      <use xlink:href="#DejaVuSans-73" transform="translate(221.296875 0)"/>
      <use xlink:href="#DejaVuSans-74" transform="translate(273.396484 0)"/>
      <use xlink:href="#DejaVuSans-65" transform="translate(312.605469 0)"/>
      <use xlink:href="#DejaVuSans-64" transform="translate(374.128906 0)"/>
      <use xlink:href="#DejaVuSans-20" transform="translate(437.605469 0)"/>
      <use xlink:href="#DejaVuSans-46" transform="translate(469.392578 0)"/>
      <use xlink:href="#DejaVuSans-6f" transform="translate(523.287109 0)"/>
      <use xlink:href="#DejaVuSans-72" transform="translate(584.46875 0)"/>
      <use xlink:href="#DejaVuSans-63" transform="translate(623.332031 0)"/>
      <use xlink:href="#DejaVuSans-65" transform="translate(678.3125 0)"/>
     </g>
    </g>
   </g>
  </g>
 </g>
 <defs>
  <clipPath id="p242018cd95">
   <rect x="50.87" y="26.88" width="399.13" height="276.76"/>
  </clipPath>
 </defs>
</svg>
