<?xml version="1.0" encoding="utf-8" standalone="no"?>
<!DOCTYPE svg PUBLIC "-//W3C//DTD SVG 1.1//EN"
  "http://www.w3.org/Graphics/SVG/1.1/DTD/svg11.dtd">
<svg xmlns:xlink="http://www.w3.org/1999/xlink" width="460.8pt" height="345.6pt" viewBox="0 0 460.8 345.6" xmlns="http://www.w3.org/2000/svg" version="1.1">
 <metadata>
  <rdf:RDF xmlns:dc="http://purl.org/dc/elements/1.1/" xmlns:cc="http://creativecommons.org/ns#" xmlns:rdf="http://www.w3.org/1999/02/22-rdf-syntax-ns#">
   <cc:Work>
    <dc:type rdf:resource="http://purl.org/dc/dcmitype/StillImage"/>
    <dc:date>2025-07-28T21:15:01.970386</dc:date>
    <dc:format>image/svg+xml</dc:format>
    <dc:creator>
     <cc:Agent>
      <dc:title>Matplotlib v3.10.3, https://matplotlib.org/</dc:title>
     </cc:Agent>
    </dc:creator>
   </cc:Work>
  </rdf:RDF>
 </metadata>
 <defs>
  <style type="text/css">*{stroke-linejoin: round; stroke-linecap: butt}</style>
 </defs>
 <g id="figure_1">
  <g id="patch_1">
   <path d="M 0 345.6 
L 460.8 345.6 
L 460.8 0 
L 0 0 
z
" style="fill: #ffffff"/>
  </g>
  <g id="axes_1">
   <g id="patch_2">
    <path d="M 57.17 303.64 
L 450 303.64 
L 450 26.88 
L 57.17 26.88 
z
" style="fill: #ffffff"/>
   </g>
   <g id="matplotlib.axis_1">
    <g id="xtick_1">
     <g id="line2d_1">
      <path d="M 75.18682 303.64 
L 75.18682 26.88 
" clip-path="url(#p2e4988f980)" style="fill: none; stroke: #b0b0b0; stroke-opacity: 0.3; stroke-width: 0.8; stroke-linecap: square"/>
     </g>
     <g id="line2d_2">
      <defs>
       <path id="m0a110492f1" d="M 0 0 
L 0 3.5 
" style="stroke: #000000; stroke-width: 0.8"/>
      </defs>
      <g>
       <use xlink:href="#m0a110492f1" x="75.18682" y="303.64" style="stroke: #000000; stroke-width: 0.8"/>
      </g>
     </g>
     <g id="text_1">
      <!-- 0.000 -->
      <g transform="translate(60.872758 318.238437) scale(0.1 -0.1)">
       <defs>
        <path id="DejaVuSans-30" d="M 2034 4250 
Q 1547 4250 1301 3770 
Q 1056 3291 1056 2328 
Q 1056 1369 1301 889 
Q 1547 409 2034 409 
Q 2525 409 2770 889 
Q 3016 1369 3016 2328 
Q 3016 3291 2770 3770 
Q 2525 4250 2034 4250 
z
M 2034 4750 
Q 2819 4750 3233 4129 
Q 3647 3509 3647 2328 
Q 3647 1150 3233 529 
Q 2819 -91 2034 -91 
Q 1250 -91 836 529 
Q 422 1150 422 2328 
Q 422 3509 836 4129 
Q 1250 4750 2034 4750 
z
" transform="scale(0.015625)"/>
        <path id="DejaVuSans-2e" d="M 684 794 
L 1344 794 
L 1344 0 
L 684 0 
L 684 794 
z
" transform="scale(0.015625)"/>
       </defs>
       <use xlink:href="#DejaVuSans-30"/>
       <use xlink:href="#DejaVuSans-2e" transform="translate(63.623047 0)"/>
       <use xlink:href="#DejaVuSans-30" transform="translate(95.410156 0)"/>
       <use xlink:href="#DejaVuSans-30" transform="translate(159.033203 0)"/>
       <use xlink:href="#DejaVuSans-30" transform="translate(222.65625 0)"/>
      </g>
     </g>
    </g>
    <g id="xtick_2">
     <g id="line2d_3">
      <path d="M 125.138049 303.64 
L 125.138049 26.88 
" clip-path="url(#p2e4988f980)" style="fill: none; stroke: #b0b0b0; stroke-opacity: 0.3; stroke-width: 0.8; stroke-linecap: square"/>
     </g>
     <g id="line2d_4">
      <g>
       <use xlink:href="#m0a110492f1" x="125.138049" y="303.64" style="stroke: #000000; stroke-width: 0.8"/>
      </g>
     </g>
     <g id="text_2">
      <!-- 0.025 -->
      <g transform="translate(110.823986 318.238437) scale(0.1 -0.1)">
       <defs>
        <path id="DejaVuSans-32" d="M 1228 531 
L 3431 531 
L 3431 0 
L 469 0 
L 469 531 
Q 828 903 1448 1529 
Q 2069 2156 2228 2338 
Q 2531 2678 2651 2914 
Q 2772 3150 2772 3378 
Q 2772 3750 2511 3984 
Q 2250 4219 1831 4219 
Q 1534 4219 1204 4116 
Q 875 4013 500 3803 
L 500 4441 
Q 881 4594 1212 4672 
Q 1544 4750 1819 4750 
Q 2544 4750 2975 4387 
Q 3406 4025 3406 3419 
Q 3406 3131 3298 2873 
Q 3191 2616 2906 2266 
Q 2828 2175 2409 1742 
Q 1991 1309 1228 531 
z
" transform="scale(0.015625)"/>
        <path id="DejaVuSans-35" d="M 691 4666 
L 3169 4666 
L 3169 4134 
L 1269 4134 
L 1269 2991 
Q 1406 3038 1543 3061 
Q 1681 3084 1819 3084 
Q 2600 3084 3056 2656 
Q 3513 2228 3513 1497 
Q 3513 744 3044 326 
Q 2575 -91 1722 -91 
Q 1428 -91 1123 -41 
Q 819 9 494 109 
L 494 744 
Q 775 591 1075 516 
Q 1375 441 1709 441 
Q 2250 441 2565 725 
Q 2881 1009 2881 1497 
Q 2881 1984 2565 2268 
Q 2250 2553 1709 2553 
Q 1456 2553 1204 2497 
Q 953 2441 691 2322 
L 691 4666 
z
" transform="scale(0.015625)"/>
       </defs>
       <use xlink:href="#DejaVuSans-30"/>
       <use xlink:href="#DejaVuSans-2e" transform="translate(63.623047 0)"/>
       <use xlink:href="#DejaVuSans-30" transform="translate(95.410156 0)"/>
       <use xlink:href="#DejaVuSans-32" transform="translate(159.033203 0)"/>
       <use xlink:href="#DejaVuSans-35" transform="translate(222.65625 0)"/>
      </g>
     </g>
    </g>
    <g id="xtick_3">
     <g id="line2d_5">
      <path d="M 175.089277 303.64 
L 175.089277 26.88 
" clip-path="url(#p2e4988f980)" style="fill: none; stroke: #b0b0b0; stroke-opacity: 0.3; stroke-width: 0.8; stroke-linecap: square"/>
     </g>
     <g id="line2d_6">
      <g>
       <use xlink:href="#m0a110492f1" x="175.089277" y="303.64" style="stroke: #000000; stroke-width: 0.8"/>
      </g>
     </g>
     <g id="text_3">
      <!-- 0.050 -->
      <g transform="translate(160.775214 318.238437) scale(0.1 -0.1)">
       <use xlink:href="#DejaVuSans-30"/>
       <use xlink:href="#DejaVuSans-2e" transform="translate(63.623047 0)"/>
       <use xlink:href="#DejaVuSans-30" transform="translate(95.410156 0)"/>
       <use xlink:href="#DejaVuSans-35" transform="translate(159.033203 0)"/>
       <use xlink:href="#DejaVuSans-30" transform="translate(222.65625 0)"/>
      </g>
     </g>
    </g>
    <g id="xtick_4">
     <g id="line2d_7">
      <path d="M 225.040505 303.64 
L 225.040505 26.88 
" clip-path="url(#p2e4988f980)" style="fill: none; stroke: #b0b0b0; stroke-opacity: 0.3; stroke-width: 0.8; stroke-linecap: square"/>
     </g>
     <g id="line2d_8">
      <g>
       <use xlink:href="#m0a110492f1" x="225.040505" y="303.64" style="stroke: #000000; stroke-width: 0.8"/>
      </g>
     </g>
     <g id="text_4">
      <!-- 0.075 -->
      <g transform="translate(210.726443 318.238437) scale(0.1 -0.1)">
       <defs>
        <path id="DejaVuSans-37" d="M 525 4666 
L 3525 4666 
L 3525 4397 
L 1831 0 
L 1172 0 
L 2766 4134 
L 525 4134 
L 525 4666 
z
" transform="scale(0.015625)"/>
       </defs>
       <use xlink:href="#DejaVuSans-30"/>
       <use xlink:href="#DejaVuSans-2e" transform="translate(63.623047 0)"/>
       <use xlink:href="#DejaVuSans-30" transform="translate(95.410156 0)"/>
       <use xlink:href="#DejaVuSans-37" transform="translate(159.033203 0)"/>
       <use xlink:href="#DejaVuSans-35" transform="translate(222.65625 0)"/>
      </g>
     </g>
    </g>
    <g id="xtick_5">
     <g id="line2d_9">
      <path d="M 274.991733 303.64 
L 274.991733 26.88 
" clip-path="url(#p2e4988f980)" style="fill: none; stroke: #b0b0b0; stroke-opacity: 0.3; stroke-width: 0.8; stroke-linecap: square"/>
     </g>
     <g id="line2d_10">
      <g>
       <use xlink:href="#m0a110492f1" x="274.991733" y="303.64" style="stroke: #000000; stroke-width: 0.8"/>
      </g>
     </g>
     <g id="text_5">
      <!-- 0.100 -->
      <g transform="translate(260.677671 318.238437) scale(0.1 -0.1)">
       <defs>
        <path id="DejaVuSans-31" d="M 794 531 
L 1825 531 
L 1825 4091 
L 703 3866 
L 703 4441 
L 1819 4666 
L 2450 4666 
L 2450 531 
L 3481 531 
L 3481 0 
L 794 0 
L 794 531 
z
" transform="scale(0.015625)"/>
       </defs>
       <use xlink:href="#DejaVuSans-30"/>
       <use xlink:href="#DejaVuSans-2e" transform="translate(63.623047 0)"/>
       <use xlink:href="#DejaVuSans-31" transform="translate(95.410156 0)"/>
       <use xlink:href="#DejaVuSans-30" transform="translate(159.033203 0)"/>
       <use xlink:href="#DejaVuSans-30" transform="translate(222.65625 0)"/>
      </g>
     </g>
    </g>
    <g id="xtick_6">
     <g id="line2d_11">
      <path d="M 324.942962 303.64 
L 324.942962 26.88 
" clip-path="url(#p2e4988f980)" style="fill: none; stroke: #b0b0b0; stroke-opacity: 0.3; stroke-width: 0.8; stroke-linecap: square"/>
     </g>
     <g id="line2d_12">
      <g>
       <use xlink:href="#m0a110492f1" x="324.942962" y="303.64" style="stroke: #000000; stroke-width: 0.8"/>
      </g>
     </g>
     <g id="text_6">
      <!-- 0.125 -->
      <g transform="translate(310.628899 318.238437) scale(0.1 -0.1)">
       <use xlink:href="#DejaVuSans-30"/>
       <use xlink:href="#DejaVuSans-2e" transform="translate(63.623047 0)"/>
       <use xlink:href="#DejaVuSans-31" transform="translate(95.410156 0)"/>
       <use xlink:href="#DejaVuSans-32" transform="translate(159.033203 0)"/>
       <use xlink:href="#DejaVuSans-35" transform="translate(222.65625 0)"/>
      </g>
     </g>
    </g>
    <g id="xtick_7">
     <g id="line2d_13">
      <path d="M 374.89419 303.64 
L 374.89419 26.88 
" clip-path="url(#p2e4988f980)" style="fill: none; stroke: #b0b0b0; stroke-opacity: 0.3; stroke-width: 0.8; stroke-linecap: square"/>
     </g>
     <g id="line2d_14">
      <g>
       <use xlink:href="#m0a110492f1" x="374.89419" y="303.64" style="stroke: #000000; stroke-width: 0.8"/>
      </g>
     </g>
     <g id="text_7">
      <!-- 0.150 -->
      <g transform="translate(360.580127 318.238437) scale(0.1 -0.1)">
       <use xlink:href="#DejaVuSans-30"/>
       <use xlink:href="#DejaVuSans-2e" transform="translate(63.623047 0)"/>
       <use xlink:href="#DejaVuSans-31" transform="translate(95.410156 0)"/>
       <use xlink:href="#DejaVuSans-35" transform="translate(159.033203 0)"/>
       <use xlink:href="#DejaVuSans-30" transform="translate(222.65625 0)"/>
      </g>
     </g>
    </g>
    <g id="xtick_8">
     <g id="line2d_15">
      <path d="M 424.845418 303.64 
L 424.845418 26.88 
" clip-path="url(#p2e4988f980)" style="fill: none; stroke: #b0b0b0; stroke-opacity: 0.3; stroke-width: 0.8; stroke-linecap: square"/>
     </g>
     <g id="line2d_16">
      <g>
       <use xlink:href="#m0a110492f1" x="424.845418" y="303.64" style="stroke: #000000; stroke-width: 0.8"/>
      </g>
     </g>
     <g id="text_8">
      <!-- 0.175 -->
      <g transform="translate(410.531356 318.238437) scale(0.1 -0.1)">
       <use xlink:href="#DejaVuSans-30"/>
       <use xlink:href="#DejaVuSans-2e" transform="translate(63.623047 0)"/>
       <use xlink:href="#DejaVuSans-31" transform="translate(95.410156 0)"/>
       <use xlink:href="#DejaVuSans-37" transform="translate(159.033203 0)"/>
       <use xlink:href="#DejaVuSans-35" transform="translate(222.65625 0)"/>
      </g>
     </g>
    </g>
    <g id="text_9">
     <!-- Strain [-] -->
     <g transform="translate(231.47875 331.916562) scale(0.1 -0.1)">
      <defs>
       <path id="DejaVuSans-53" d="M 3425 4513 
L 3425 3897 
Q 3066 4069 2747 4153 
Q 2428 4238 2131 4238 
Q 1616 4238 1336 4038 
Q 1056 3838 1056 3469 
Q 1056 3159 1242 3001 
Q 1428 2844 1947 2747 
L 2328 2669 
Q 3034 2534 3370 2195 
Q 3706 1856 3706 1288 
Q 3706 609 3251 259 
Q 2797 -91 1919 -91 
Q 1588 -91 1214 -16 
Q 841 59 441 206 
L 441 856 
Q 825 641 1194 531 
Q 1563 422 1919 422 
Q 2459 422 2753 634 
Q 3047 847 3047 1241 
Q 3047 1584 2836 1778 
Q 2625 1972 2144 2069 
L 1759 2144 
Q 1053 2284 737 2584 
Q 422 2884 422 3419 
Q 422 4038 858 4394 
Q 1294 4750 2059 4750 
Q 2388 4750 2728 4690 
Q 3069 4631 3425 4513 
z
" transform="scale(0.015625)"/>
       <path id="DejaVuSans-74" d="M 1172 4494 
L 1172 3500 
L 2356 3500 
L 2356 3053 
L 1172 3053 
L 1172 1153 
Q 1172 725 1289 603 
Q 1406 481 1766 481 
L 2356 481 
L 2356 0 
L 1766 0 
Q 1100 0 847 248 
Q 594 497 594 1153 
L 594 3053 
L 172 3053 
L 172 3500 
L 594 3500 
L 594 4494 
L 1172 4494 
z
" transform="scale(0.015625)"/>
       <path id="DejaVuSans-72" d="M 2631 2963 
Q 2534 3019 2420 3045 
Q 2306 3072 2169 3072 
Q 1681 3072 1420 2755 
Q 1159 2438 1159 1844 
L 1159 0 
L 581 0 
L 581 3500 
L 1159 3500 
L 1159 2956 
Q 1341 3275 1631 3429 
Q 1922 3584 2338 3584 
Q 2397 3584 2469 3576 
Q 2541 3569 2628 3553 
L 2631 2963 
z
" transform="scale(0.015625)"/>
       <path id="DejaVuSans-61" d="M 2194 1759 
Q 1497 1759 1228 1600 
Q 959 1441 959 1056 
Q 959 750 1161 570 
Q 1363 391 1709 391 
Q 2188 391 2477 730 
Q 2766 1069 2766 1631 
L 2766 1759 
L 2194 1759 
z
M 3341 1997 
L 3341 0 
L 2766 0 
L 2766 531 
Q 2569 213 2275 61 
Q 1981 -91 1556 -91 
Q 1019 -91 701 211 
Q 384 513 384 1019 
Q 384 1609 779 1909 
Q 1175 2209 1959 2209 
L 2766 2209 
L 2766 2266 
Q 2766 2663 2505 2880 
Q 2244 3097 1772 3097 
Q 1472 3097 1187 3025 
Q 903 2953 641 2809 
L 641 3341 
Q 956 3463 1253 3523 
Q 1550 3584 1831 3584 
Q 2591 3584 2966 3190 
Q 3341 2797 3341 1997 
z
" transform="scale(0.015625)"/>
       <path id="DejaVuSans-69" d="M 603 3500 
L 1178 3500 
L 1178 0 
L 603 0 
L 603 3500 
z
M 603 4863 
L 1178 4863 
L 1178 4134 
L 603 4134 
L 603 4863 
z
" transform="scale(0.015625)"/>
       <path id="DejaVuSans-6e" d="M 3513 2113 
L 3513 0 
L 2938 0 
L 2938 2094 
Q 2938 2591 2744 2837 
Q 2550 3084 2163 3084 
Q 1697 3084 1428 2787 
Q 1159 2491 1159 1978 
L 1159 0 
L 581 0 
L 581 3500 
L 1159 3500 
L 1159 2956 
Q 1366 3272 1645 3428 
Q 1925 3584 2291 3584 
Q 2894 3584 3203 3211 
Q 3513 2838 3513 2113 
z
" transform="scale(0.015625)"/>
       <path id="DejaVuSans-20" transform="scale(0.015625)"/>
       <path id="DejaVuSans-5b" d="M 550 4863 
L 1875 4863 
L 1875 4416 
L 1125 4416 
L 1125 -397 
L 1875 -397 
L 1875 -844 
L 550 -844 
L 550 4863 
z
" transform="scale(0.015625)"/>
       <path id="DejaVuSans-2d" d="M 313 2009 
L 1997 2009 
L 1997 1497 
L 313 1497 
L 313 2009 
z
" transform="scale(0.015625)"/>
       <path id="DejaVuSans-5d" d="M 1947 4863 
L 1947 -844 
L 622 -844 
L 622 -397 
L 1369 -397 
L 1369 4416 
L 622 4416 
L 622 4863 
L 1947 4863 
z
" transform="scale(0.015625)"/>
      </defs>
      <use xlink:href="#DejaVuSans-53"/>
      <use xlink:href="#DejaVuSans-74" transform="translate(63.476562 0)"/>
      <use xlink:href="#DejaVuSans-72" transform="translate(102.685547 0)"/>
      <use xlink:href="#DejaVuSans-61" transform="translate(143.798828 0)"/>
      <use xlink:href="#DejaVuSans-69" transform="translate(205.078125 0)"/>
      <use xlink:href="#DejaVuSans-6e" transform="translate(232.861328 0)"/>
      <use xlink:href="#DejaVuSans-20" transform="translate(296.240234 0)"/>
      <use xlink:href="#DejaVuSans-5b" transform="translate(328.027344 0)"/>
      <use xlink:href="#DejaVuSans-2d" transform="translate(367.041016 0)"/>
      <use xlink:href="#DejaVuSans-5d" transform="translate(403.125 0)"/>
     </g>
    </g>
   </g>
   <g id="matplotlib.axis_2">
    <g id="ytick_1">
     <g id="line2d_17">
      <path d="M 57.17 272.78194 
L 450 272.78194 
" clip-path="url(#p2e4988f980)" style="fill: none; stroke: #b0b0b0; stroke-opacity: 0.3; stroke-width: 0.8; stroke-linecap: square"/>
     </g>
     <g id="line2d_18">
      <defs>
       <path id="mc146176a37" d="M 0 0 
L -3.5 0 
" style="stroke: #000000; stroke-width: 0.8"/>
      </defs>
      <g>
       <use xlink:href="#mc146176a37" x="57.17" y="272.78194" style="stroke: #000000; stroke-width: 0.8"/>
      </g>
     </g>
     <g id="text_10">
      <!-- 0 -->
      <g transform="translate(43.8075 276.581159) scale(0.1 -0.1)">
       <use xlink:href="#DejaVuSans-30"/>
      </g>
     </g>
    </g>
    <g id="ytick_2">
     <g id="line2d_19">
      <path d="M 57.17 234.776316 
L 450 234.776316 
" clip-path="url(#p2e4988f980)" style="fill: none; stroke: #b0b0b0; stroke-opacity: 0.3; stroke-width: 0.8; stroke-linecap: square"/>
     </g>
     <g id="line2d_20">
      <g>
       <use xlink:href="#mc146176a37" x="57.17" y="234.776316" style="stroke: #000000; stroke-width: 0.8"/>
      </g>
     </g>
     <g id="text_11">
      <!-- 250 -->
      <g transform="translate(31.0825 238.575534) scale(0.1 -0.1)">
       <use xlink:href="#DejaVuSans-32"/>
       <use xlink:href="#DejaVuSans-35" transform="translate(63.623047 0)"/>
       <use xlink:href="#DejaVuSans-30" transform="translate(127.246094 0)"/>
      </g>
     </g>
    </g>
    <g id="ytick_3">
     <g id="line2d_21">
      <path d="M 57.17 196.770691 
L 450 196.770691 
" clip-path="url(#p2e4988f980)" style="fill: none; stroke: #b0b0b0; stroke-opacity: 0.3; stroke-width: 0.8; stroke-linecap: square"/>
     </g>
     <g id="line2d_22">
      <g>
       <use xlink:href="#mc146176a37" x="57.17" y="196.770691" style="stroke: #000000; stroke-width: 0.8"/>
      </g>
     </g>
     <g id="text_12">
      <!-- 500 -->
      <g transform="translate(31.0825 200.56991) scale(0.1 -0.1)">
       <use xlink:href="#DejaVuSans-35"/>
       <use xlink:href="#DejaVuSans-30" transform="translate(63.623047 0)"/>
       <use xlink:href="#DejaVuSans-30" transform="translate(127.246094 0)"/>
      </g>
     </g>
    </g>
    <g id="ytick_4">
     <g id="line2d_23">
      <path d="M 57.17 158.765067 
L 450 158.765067 
" clip-path="url(#p2e4988f980)" style="fill: none; stroke: #b0b0b0; stroke-opacity: 0.3; stroke-width: 0.8; stroke-linecap: square"/>
     </g>
     <g id="line2d_24">
      <g>
       <use xlink:href="#mc146176a37" x="57.17" y="158.765067" style="stroke: #000000; stroke-width: 0.8"/>
      </g>
     </g>
     <g id="text_13">
      <!-- 750 -->
      <g transform="translate(31.0825 162.564286) scale(0.1 -0.1)">
       <use xlink:href="#DejaVuSans-37"/>
       <use xlink:href="#DejaVuSans-35" transform="translate(63.623047 0)"/>
       <use xlink:href="#DejaVuSans-30" transform="translate(127.246094 0)"/>
      </g>
     </g>
    </g>
    <g id="ytick_5">
     <g id="line2d_25">
      <path d="M 57.17 120.759443 
L 450 120.759443 
" clip-path="url(#p2e4988f980)" style="fill: none; stroke: #b0b0b0; stroke-opacity: 0.3; stroke-width: 0.8; stroke-linecap: square"/>
     </g>
     <g id="line2d_26">
      <g>
       <use xlink:href="#mc146176a37" x="57.17" y="120.759443" style="stroke: #000000; stroke-width: 0.8"/>
      </g>
     </g>
     <g id="text_14">
      <!-- 1000 -->
      <g transform="translate(24.72 124.558662) scale(0.1 -0.1)">
       <use xlink:href="#DejaVuSans-31"/>
       <use xlink:href="#DejaVuSans-30" transform="translate(63.623047 0)"/>
       <use xlink:href="#DejaVuSans-30" transform="translate(127.246094 0)"/>
       <use xlink:href="#DejaVuSans-30" transform="translate(190.869141 0)"/>
      </g>
     </g>
    </g>
    <g id="ytick_6">
     <g id="line2d_27">
      <path d="M 57.17 82.753818 
L 450 82.753818 
" clip-path="url(#p2e4988f980)" style="fill: none; stroke: #b0b0b0; stroke-opacity: 0.3; stroke-width: 0.8; stroke-linecap: square"/>
     </g>
     <g id="line2d_28">
      <g>
       <use xlink:href="#mc146176a37" x="57.17" y="82.753818" style="stroke: #000000; stroke-width: 0.8"/>
      </g>
     </g>
     <g id="text_15">
      <!-- 1250 -->
      <g transform="translate(24.72 86.553037) scale(0.1 -0.1)">
       <use xlink:href="#DejaVuSans-31"/>
       <use xlink:href="#DejaVuSans-32" transform="translate(63.623047 0)"/>
       <use xlink:href="#DejaVuSans-35" transform="translate(127.246094 0)"/>
       <use xlink:href="#DejaVuSans-30" transform="translate(190.869141 0)"/>
      </g>
     </g>
    </g>
    <g id="ytick_7">
     <g id="line2d_29">
      <path d="M 57.17 44.748194 
L 450 44.748194 
" clip-path="url(#p2e4988f980)" style="fill: none; stroke: #b0b0b0; stroke-opacity: 0.3; stroke-width: 0.8; stroke-linecap: square"/>
     </g>
     <g id="line2d_30">
      <g>
       <use xlink:href="#mc146176a37" x="57.17" y="44.748194" style="stroke: #000000; stroke-width: 0.8"/>
      </g>
     </g>
     <g id="text_16">
      <!-- 1500 -->
      <g transform="translate(24.72 48.547413) scale(0.1 -0.1)">
       <use xlink:href="#DejaVuSans-31"/>
       <use xlink:href="#DejaVuSans-35" transform="translate(63.623047 0)"/>
       <use xlink:href="#DejaVuSans-30" transform="translate(127.246094 0)"/>
       <use xlink:href="#DejaVuSans-30" transform="translate(190.869141 0)"/>
      </g>
     </g>
    </g>
    <g id="text_17">
     <!-- Stress [Pa] -->
     <g transform="translate(18.640312 191.967812) rotate(-90) scale(0.1 -0.1)">
      <defs>
       <path id="DejaVuSans-65" d="M 3597 1894 
L 3597 1613 
L 953 1613 
Q 991 1019 1311 708 
Q 1631 397 2203 397 
Q 2534 397 2845 478 
Q 3156 559 3463 722 
L 3463 178 
Q 3153 47 2828 -22 
Q 2503 -91 2169 -91 
Q 1331 -91 842 396 
Q 353 884 353 1716 
Q 353 2575 817 3079 
Q 1281 3584 2069 3584 
Q 2775 3584 3186 3129 
Q 3597 2675 3597 1894 
z
M 3022 2063 
Q 3016 2534 2758 2815 
Q 2500 3097 2075 3097 
Q 1594 3097 1305 2825 
Q 1016 2553 972 2059 
L 3022 2063 
z
" transform="scale(0.015625)"/>
       <path id="DejaVuSans-73" d="M 2834 3397 
L 2834 2853 
Q 2591 2978 2328 3040 
Q 2066 3103 1784 3103 
Q 1356 3103 1142 2972 
Q 928 2841 928 2578 
Q 928 2378 1081 2264 
Q 1234 2150 1697 2047 
L 1894 2003 
Q 2506 1872 2764 1633 
Q 3022 1394 3022 966 
Q 3022 478 2636 193 
Q 2250 -91 1575 -91 
Q 1294 -91 989 -36 
Q 684 19 347 128 
L 347 722 
Q 666 556 975 473 
Q 1284 391 1588 391 
Q 1994 391 2212 530 
Q 2431 669 2431 922 
Q 2431 1156 2273 1281 
Q 2116 1406 1581 1522 
L 1381 1569 
Q 847 1681 609 1914 
Q 372 2147 372 2553 
Q 372 3047 722 3315 
Q 1072 3584 1716 3584 
Q 2034 3584 2315 3537 
Q 2597 3491 2834 3397 
z
" transform="scale(0.015625)"/>
       <path id="DejaVuSans-50" d="M 1259 4147 
L 1259 2394 
L 2053 2394 
Q 2494 2394 2734 2622 
Q 2975 2850 2975 3272 
Q 2975 3691 2734 3919 
Q 2494 4147 2053 4147 
L 1259 4147 
z
M 628 4666 
L 2053 4666 
Q 2838 4666 3239 4311 
Q 3641 3956 3641 3272 
Q 3641 2581 3239 2228 
Q 2838 1875 2053 1875 
L 1259 1875 
L 1259 0 
L 628 0 
L 628 4666 
z
" transform="scale(0.015625)"/>
      </defs>
      <use xlink:href="#DejaVuSans-53"/>
      <use xlink:href="#DejaVuSans-74" transform="translate(63.476562 0)"/>
      <use xlink:href="#DejaVuSans-72" transform="translate(102.685547 0)"/>
      <use xlink:href="#DejaVuSans-65" transform="translate(141.548828 0)"/>
      <use xlink:href="#DejaVuSans-73" transform="translate(203.072266 0)"/>
      <use xlink:href="#DejaVuSans-73" transform="translate(255.171875 0)"/>
      <use xlink:href="#DejaVuSans-20" transform="translate(307.271484 0)"/>
      <use xlink:href="#DejaVuSans-5b" transform="translate(339.058594 0)"/>
      <use xlink:href="#DejaVuSans-50" transform="translate(378.072266 0)"/>
      <use xlink:href="#DejaVuSans-61" transform="translate(433.875 0)"/>
      <use xlink:href="#DejaVuSans-5d" transform="translate(495.154297 0)"/>
     </g>
    </g>
   </g>
   <g id="line2d_31">
    <path d="M 75.18682 273.088545 
L 75.18682 273.143 
L 75.186867 273.013796 
L 75.187177 273.036957 
L 77.398294 263.102428 
L 78.125101 261.923077 
L 78.879675 262.115843 
L 80.378477 263.309937 
L 81.940978 264.16048 
L 83.465368 264.555146 
L 86.827738 264.866489 
L 89.559663 265.976618 
L 92.376519 267.312362 
L 94.246076 268.089196 
L 95.17051 268.706433 
L 96.972558 270.660055 
L 97.836016 271.108721 
L 98.672253 270.903777 
L 99.481269 270.21924 
L 101.031792 268.311767 
L 103.242158 265.555673 
L 104.849301 263.981494 
L 107.494119 261.702269 
L 109.256967 260.620983 
L 111.024169 259.862416 
L 114.574451 258.473435 
L 120.785254 255.855787 
L 122.561168 255.021908 
L 125.235385 253.843518 
L 128.820969 251.945338 
L 130.984515 250.954747 
L 134.600587 249.169054 
L 141.828376 245.875842 
L 143.266747 245.282961 
L 153.311392 240.062406 
L 160.565313 236.075043 
L 166.381951 233.232421 
L 168.550941 231.963336 
L 172.88021 229.687956 
L 188.719717 220.736419 
L 190.324682 219.741661 
L 192.990188 218.309774 
L 206.292111 210.576952 
L 208.063671 209.653981 
L 227.324345 197.670099 
L 232.635757 194.410217 
L 239.702396 190.008799 
L 248.518817 184.113967 
L 250.297999 182.853856 
L 260.386197 176.62957 
L 262.550832 175.380354 
L 270.418865 169.96495 
L 275.239205 166.180768 
L 276.680843 165.221263 
L 278.8531 163.944487 
L 281.027534 162.500421 
L 283.197612 161.160832 
L 288.233545 157.558681 
L 292.537056 154.34017 
L 293.971072 153.39797 
L 297.562101 150.479074 
L 299.727824 149.041419 
L 301.903347 147.489674 
L 310.598906 141.472415 
L 313.469116 139.230365 
L 321.379614 133.142602 
L 330.047951 126.980488 
L 343.067335 116.149038 
L 345.69582 113.902501 
L 355.325613 106.192488 
L 359.691903 102.387146 
L 363.214351 99.609259 
L 364.98591 98.140838 
L 367.478289 95.879559 
L 370.345232 93.613793 
L 377.30843 87.92342 
L 381.715892 83.784592 
L 383.47874 82.289892 
L 386.129002 80.121551 
L 398.213064 69.174089 
L 407.503135 60.448808 
L 411.793205 56.560793 
L 413.223955 55.122496 
L 414.831098 53.938657 
L 423.181491 48.388012 
L 427.791684 45.892465 
L 428.51958 45.280035 
L 430.021105 43.403648 
L 430.747913 42.124949 
L 431.466962 39.985451 
L 431.834109 39.550865 
L 432.144091 41.18343 
L 431.984234 58.677517 
L 431.982022 70.450665 
L 431.981886 71.416059 
L 431.978518 70.266051 
L 431.977054 71.390902 
L 431.253003 71.38269 
L 430.527284 73.124317 
L 429.774616 74.585447 
L 428.259481 74.68161 
L 427.505724 74.936148 
L 426.786267 75.477753 
L 424.555484 76.453823 
L 423.79955 76.855219 
L 423.080637 78.898574 
L 422.36254 80.132087 
L 421.6096 81.086144 
L 420.856047 82.254299 
L 417.90118 83.336687 
L 417.162939 83.953283 
L 416.441576 84.800301 
L 415.001027 88.176757 
L 414.257886 89.024256 
L 412.067119 90.182376 
L 410.597307 91.795172 
L 409.860156 92.820375 
L 406.947209 95.858968 
L 404.746642 97.944306 
L 403.28731 98.978002 
L 401.792727 100.696454 
L 400.328496 102.358603 
L 398.856098 103.683932 
L 398.133373 104.229062 
L 395.19688 107.189309 
L 391.566381 110.445506 
L 390.829229 111.186927 
L 389.363092 112.29249 
L 387.920638 113.673421 
L 386.453956 114.892031 
L 382.043091 119.168333 
L 375.565248 124.714652 
L 374.826735 125.558145 
L 371.19052 128.558442 
L 370.471878 129.092275 
L 369.00683 130.611972 
L 366.797689 132.450704 
L 366.05135 132.882896 
L 356.53097 140.781269 
L 355.081438 141.868163 
L 352.095538 144.26909 
L 350.663428 145.232601 
L 349.174425 146.630517 
L 347.745734 147.821787 
L 347.03172 148.210524 
L 344.104346 150.548557 
L 343.369644 151.139195 
L 341.918479 151.946634 
L 338.998318 154.357255 
L 336.813268 155.886006 
L 333.893788 158.010842 
L 333.170247 158.449093 
L 331.680972 159.816244 
L 327.318969 162.853796 
L 325.854601 164.149161 
L 321.480145 167.253852 
L 320.029524 168.462047 
L 319.28897 169.175587 
L 317.101197 170.285636 
L 316.386367 170.703296 
L 315.655476 171.262607 
L 314.199003 172.68456 
L 312.756344 173.47899 
L 312.042058 173.864843 
L 310.584088 175.17559 
L 309.133194 176.312078 
L 306.210176 177.837063 
L 304.737642 179.178256 
L 303.289743 180.117331 
L 301.104965 181.330613 
L 299.625081 182.590965 
L 297.446019 183.877276 
L 296.718667 184.251992 
L 290.860261 188.230052 
L 290.112221 188.613341 
L 287.892055 190.051713 
L 282.819509 193.264165 
L 279.951205 194.993373 
L 277.053111 197.001626 
L 272.684507 199.720866 
L 271.242189 200.716585 
L 269.779999 201.736099 
L 266.868141 203.253594 
L 263.218042 205.495884 
L 261.771776 206.107954 
L 259.584684 207.772506 
L 258.853351 208.232685 
L 257.371426 208.750654 
L 253.720511 211.201335 
L 252.286767 211.889837 
L 245.64301 215.792515 
L 242.735099 217.24331 
L 238.35086 219.881063 
L 236.902417 220.45103 
L 233.248507 222.909161 
L 231.804964 223.30535 
L 223.772651 228.120903 
L 223.056902 228.35098 
L 217.928689 231.107354 
L 217.181466 231.262965 
L 214.253547 233.066364 
L 212.789315 233.682119 
L 212.074757 233.946537 
L 208.424114 236.140956 
L 205.503809 237.42434 
L 204.755497 237.84136 
L 203.269216 238.930177 
L 201.801718 239.654773 
L 201.080627 239.825267 
L 200.335036 240.135367 
L 197.421545 241.993728 
L 196.685482 242.31156 
L 195.195118 242.685603 
L 191.549919 244.659535 
L 190.830189 244.895676 
L 188.63425 246.039976 
L 185.699484 247.228221 
L 181.330472 249.694444 
L 179.861885 250.103031 
L 178.407997 250.810122 
L 177.678468 251.343714 
L 176.222403 252.079287 
L 174.761165 252.596936 
L 173.303195 253.272299 
L 171.818819 253.964327 
L 170.381809 254.654713 
L 166.72562 256.374937 
L 165.246689 256.961248 
L 161.583524 259.010973 
L 160.838478 259.100029 
L 158.637639 260.276296 
L 157.187291 260.981343 
L 155.728231 261.338414 
L 155.009045 261.518721 
L 153.545903 262.326061 
L 152.810793 262.757341 
L 151.374591 263.373853 
L 149.909815 264.094724 
L 148.424623 264.77866 
L 144.741038 266.463843 
L 143.304027 266.905219 
L 137.455404 269.236102 
L 136.012405 269.882422 
L 133.031171 271.187779 
L 131.581639 271.69972 
L 129.414554 272.598775 
L 125.723624 274.186193 
L 125.008793 274.380241 
L 123.535851 274.923969 
L 121.352978 275.915402 
L 120.638693 276.334504 
L 118.443026 276.965001 
L 117.727651 277.283113 
L 116.983422 277.471874 
L 114.779967 278.580845 
L 114.044449 278.708765 
L 103.814019 282.436702 
L 102.320661 282.804624 
L 100.083346 283.886872 
L 98.592437 284.415257 
L 97.152594 284.560699 
L 95.714495 285.252126 
L 94.266324 285.996392 
L 91.328334 286.610104 
L 89.84287 287.414899 
L 89.11824 287.68466 
L 86.931011 287.942916 
L 85.451672 288.48412 
L 83.994109 289.203909 
L 83.255052 289.454281 
L 81.773127 289.801276 
L 78.82755 290.852037 
L 78.091487 290.853586 
L 76.621947 290.515874 
L 75.894731 290.535271 
L 75.211954 291.06 
L 75.026101 289.016727 
L 75.026101 289.016727 
" clip-path="url(#p2e4988f980)" style="fill: none; stroke: #ff0000; stroke-width: 2; stroke-linecap: square"/>
   </g>
   <g id="line2d_32">
    <path d="M 75.18682 273.088545 
L 75.18682 273.143 
L 75.186867 273.013796 
L 75.187177 273.036957 
L 77.398294 263.102428 
L 78.125101 261.923077 
L 78.879675 262.115843 
L 80.378477 263.309937 
L 81.225603 273.044066 
L 81.940978 273.11457 
L 82.689018 272.896326 
L 83.465368 272.427309 
L 85.952302 270.504934 
L 88.635229 269.304431 
L 89.559663 268.748084 
L 93.315109 267.727058 
L 94.246076 268.089196 
L 95.17051 268.706433 
L 96.972558 270.660055 
L 97.836016 271.108721 
L 98.672253 270.903777 
L 99.481269 270.21924 
L 101.031792 268.311767 
L 103.242158 265.555673 
L 104.849301 263.981494 
L 107.494119 261.702269 
L 109.256967 260.620983 
L 111.024169 259.862416 
L 114.574451 258.473435 
L 120.785254 255.855787 
L 122.561168 255.021908 
L 125.235385 253.843518 
L 128.820969 251.945338 
L 130.984515 250.954747 
L 134.600587 249.169054 
L 141.828376 245.875842 
L 143.266747 245.282961 
L 153.311392 240.062406 
L 160.565313 236.075043 
L 166.381951 233.232421 
L 168.550941 231.963336 
L 172.88021 229.687956 
L 188.719717 220.736419 
L 190.324682 219.741661 
L 192.990188 218.309774 
L 206.292111 210.576952 
L 208.063671 209.653981 
L 227.324345 197.670099 
L 232.635757 194.410217 
L 239.702396 190.008799 
L 248.518817 184.113967 
L 250.297999 182.853856 
L 260.386197 176.62957 
L 262.550832 175.380354 
L 270.418865 169.96495 
L 275.239205 166.180768 
L 276.680843 165.221263 
L 278.8531 163.944487 
L 281.027534 162.500421 
L 283.197612 161.160832 
L 288.233545 157.558681 
L 292.537056 154.34017 
L 293.971072 153.39797 
L 297.562101 150.479074 
L 299.727824 149.041419 
L 301.903347 147.489674 
L 310.598906 141.472415 
L 313.469116 139.230365 
L 321.379614 133.142602 
L 330.047951 126.980488 
L 343.067335 116.149038 
L 345.69582 113.902501 
L 355.325613 106.192488 
L 359.691903 102.387146 
L 363.214351 99.609259 
L 364.98591 98.140838 
L 367.478289 95.879559 
L 370.345232 93.613793 
L 377.30843 87.92342 
L 381.715892 83.784592 
L 383.47874 82.289892 
L 386.129002 80.121551 
L 398.213064 69.174089 
L 408.932795 59.107804 
L 411.077831 57.136386 
L 412.50858 55.587045 
L 413.939329 53.994599 
L 416.601569 51.782593 
L 418.340463 50.06388 
L 420.848085 47.356498 
L 423.909932 44.309092 
L 425.535041 42.815192 
L 426.27546 42.276793 
L 428.51958 41.213625 
L 429.289397 40.967018 
L 430.747913 41.925803 
L 431.466962 39.79645 
L 431.834109 39.46 
L 432.144091 41.085133 
L 431.981818 57.829958 
L 431.981886 71.416059 
L 431.977054 71.390902 
L 431.253003 71.38269 
L 430.527284 73.124317 
L 429.774616 74.585447 
L 428.259481 74.68161 
L 427.505724 74.936148 
L 426.786267 75.477753 
L 424.555484 76.453823 
L 423.79955 76.855219 
L 423.080637 78.898574 
L 422.36254 80.132087 
L 421.6096 81.086144 
L 420.856047 82.254299 
L 417.90118 83.336687 
L 417.162939 83.953283 
L 416.441576 84.800301 
L 415.001027 88.176757 
L 414.257886 89.024256 
L 412.067119 90.182376 
L 410.597307 91.795172 
L 409.860156 92.820375 
L 406.947209 95.858968 
L 404.746642 97.944306 
L 403.28731 98.978002 
L 401.792727 100.696454 
L 400.328496 102.358603 
L 398.856098 103.683932 
L 398.133373 104.229062 
L 395.19688 107.189309 
L 391.566381 110.445506 
L 390.829229 111.186927 
L 389.363092 112.29249 
L 387.920638 113.673421 
L 386.453956 114.892031 
L 382.043091 119.168333 
L 375.565248 124.714652 
L 374.826735 125.558145 
L 371.19052 128.558442 
L 370.471878 129.092275 
L 369.00683 130.611972 
L 366.797689 132.450704 
L 366.05135 132.882896 
L 356.53097 140.781269 
L 355.081438 141.868163 
L 352.095538 144.26909 
L 350.663428 145.232601 
L 349.174425 146.630517 
L 347.745734 147.821787 
L 347.03172 148.210524 
L 344.104346 150.548557 
L 343.369644 151.139195 
L 341.918479 151.946634 
L 338.998318 154.357255 
L 336.813268 155.886006 
L 333.893788 158.010842 
L 333.170247 158.449093 
L 331.680972 159.816244 
L 327.318969 162.853796 
L 325.854601 164.149161 
L 321.480145 167.253852 
L 320.029524 168.462047 
L 319.28897 169.175587 
L 317.101197 170.285636 
L 316.386367 170.703296 
L 315.655476 171.262607 
L 314.199003 172.68456 
L 312.756344 173.47899 
L 312.042058 173.864843 
L 310.584088 175.17559 
L 309.133194 176.312078 
L 306.210176 177.837063 
L 304.737642 179.178256 
L 303.289743 180.117331 
L 301.104965 181.330613 
L 299.625081 182.590965 
L 297.446019 183.877276 
L 296.718667 184.251992 
L 290.860261 188.230052 
L 290.112221 188.613341 
L 287.892055 190.051713 
L 282.819509 193.264165 
L 279.951205 194.993373 
L 277.053111 197.001626 
L 272.684507 199.720866 
L 271.242189 200.716585 
L 269.779999 201.736099 
L 266.868141 203.253594 
L 263.218042 205.495884 
L 261.771776 206.107954 
L 259.584684 207.772506 
L 258.853351 208.232685 
L 257.371426 208.750654 
L 253.720511 211.201335 
L 252.286767 211.889837 
L 245.64301 215.792515 
L 242.735099 217.24331 
L 238.35086 219.881063 
L 236.902417 220.45103 
L 233.248507 222.909161 
L 231.804964 223.30535 
L 223.772651 228.120903 
L 223.056902 228.35098 
L 217.928689 231.107354 
L 217.181466 231.262965 
L 214.253547 233.066364 
L 212.789315 233.682119 
L 212.074757 233.946537 
L 208.424114 236.140956 
L 205.503809 237.42434 
L 204.755497 237.84136 
L 203.269216 238.930177 
L 201.801718 239.654773 
L 201.080627 239.825267 
L 200.335036 240.135367 
L 197.421545 241.993728 
L 196.685482 242.31156 
L 195.195118 242.685603 
L 191.549919 244.659535 
L 190.830189 244.895676 
L 188.63425 246.039976 
L 185.699484 247.228221 
L 181.330472 249.694444 
L 179.861885 250.103031 
L 178.407997 250.810122 
L 177.678468 251.343714 
L 176.222403 252.079287 
L 174.761165 252.596936 
L 173.303195 253.272299 
L 171.818819 253.964327 
L 170.381809 254.654713 
L 166.72562 256.374937 
L 165.246689 256.961248 
L 161.583524 259.010973 
L 160.838478 259.100029 
L 158.637639 260.276296 
L 157.187291 260.981343 
L 155.728231 261.338414 
L 155.009045 261.518721 
L 153.545903 262.326061 
L 152.810793 262.757341 
L 151.374591 263.373853 
L 149.909815 264.094724 
L 148.424623 264.77866 
L 144.741038 266.463843 
L 143.304027 266.905219 
L 137.455404 269.236102 
L 136.012405 269.882422 
L 133.031171 271.187779 
L 131.581639 271.69972 
L 129.414554 272.598775 
L 125.723624 274.186193 
L 125.008793 274.380241 
L 123.535851 274.923969 
L 121.352978 275.915402 
L 120.638693 276.334504 
L 118.443026 276.965001 
L 117.727651 277.283113 
L 116.983422 277.471874 
L 114.779967 278.580845 
L 114.044449 278.708765 
L 103.814019 282.436702 
L 102.320661 282.804624 
L 100.083346 283.886872 
L 98.592437 284.415257 
L 97.152594 284.560699 
L 95.714495 285.252126 
L 94.266324 285.996392 
L 91.328334 286.610104 
L 89.84287 287.414899 
L 89.11824 287.68466 
L 86.931011 287.942916 
L 85.451672 288.48412 
L 83.994109 289.203909 
L 83.255052 289.454281 
L 81.773127 289.801276 
L 78.82755 290.852037 
L 78.091487 290.853586 
L 76.621947 290.515874 
L 75.894731 290.535271 
L 75.211954 291.06 
L 75.026101 289.016727 
L 75.026101 289.016727 
" clip-path="url(#p2e4988f980)" style="fill: none; stroke: #000000; stroke-width: 2; stroke-linecap: square"/>
   </g>
   <g id="patch_3">
    <path d="M 57.17 303.64 
L 57.17 26.88 
" style="fill: none; stroke: #000000; stroke-width: 0.8; stroke-linejoin: miter; stroke-linecap: square"/>
   </g>
   <g id="patch_4">
    <path d="M 450 303.64 
L 450 26.88 
" style="fill: none; stroke: #000000; stroke-width: 0.8; stroke-linejoin: miter; stroke-linecap: square"/>
   </g>
   <g id="patch_5">
    <path d="M 57.17 303.64 
L 450 303.64 
" style="fill: none; stroke: #000000; stroke-width: 0.8; stroke-linejoin: miter; stroke-linecap: square"/>
   </g>
   <g id="patch_6">
    <path d="M 57.17 26.88 
L 450 26.88 
" style="fill: none; stroke: #000000; stroke-width: 0.8; stroke-linejoin: miter; stroke-linecap: square"/>
   </g>
   <g id="text_18">
    <!-- 2025-07-02 Trial 26 - Stress vs Strain -->
    <g transform="translate(142.330938 20.88) scale(0.12 -0.12)">
     <defs>
      <path id="DejaVuSans-54" d="M -19 4666 
L 3928 4666 
L 3928 4134 
L 2272 4134 
L 2272 0 
L 1638 0 
L 1638 4134 
L -19 4134 
L -19 4666 
z
" transform="scale(0.015625)"/>
      <path id="DejaVuSans-6c" d="M 603 4863 
L 1178 4863 
L 1178 0 
L 603 0 
L 603 4863 
z
" transform="scale(0.015625)"/>
      <path id="DejaVuSans-36" d="M 2113 2584 
Q 1688 2584 1439 2293 
Q 1191 2003 1191 1497 
Q 1191 994 1439 701 
Q 1688 409 2113 409 
Q 2538 409 2786 701 
Q 3034 994 3034 1497 
Q 3034 2003 2786 2293 
Q 2538 2584 2113 2584 
z
M 3366 4563 
L 3366 3988 
Q 3128 4100 2886 4159 
Q 2644 4219 2406 4219 
Q 1781 4219 1451 3797 
Q 1122 3375 1075 2522 
Q 1259 2794 1537 2939 
Q 1816 3084 2150 3084 
Q 2853 3084 3261 2657 
Q 3669 2231 3669 1497 
Q 3669 778 3244 343 
Q 2819 -91 2113 -91 
Q 1303 -91 875 529 
Q 447 1150 447 2328 
Q 447 3434 972 4092 
Q 1497 4750 2381 4750 
Q 2619 4750 2861 4703 
Q 3103 4656 3366 4563 
z
" transform="scale(0.015625)"/>
      <path id="DejaVuSans-76" d="M 191 3500 
L 800 3500 
L 1894 563 
L 2988 3500 
L 3597 3500 
L 2284 0 
L 1503 0 
L 191 3500 
z
" transform="scale(0.015625)"/>
     </defs>
     <use xlink:href="#DejaVuSans-32"/>
     <use xlink:href="#DejaVuSans-30" transform="translate(63.623047 0)"/>
     <use xlink:href="#DejaVuSans-32" transform="translate(127.246094 0)"/>
     <use xlink:href="#DejaVuSans-35" transform="translate(190.869141 0)"/>
     <use xlink:href="#DejaVuSans-2d" transform="translate(254.492188 0)"/>
     <use xlink:href="#DejaVuSans-30" transform="translate(290.576172 0)"/>
     <use xlink:href="#DejaVuSans-37" transform="translate(354.199219 0)"/>
     <use xlink:href="#DejaVuSans-2d" transform="translate(417.822266 0)"/>
     <use xlink:href="#DejaVuSans-30" transform="translate(453.90625 0)"/>
     <use xlink:href="#DejaVuSans-32" transform="translate(517.529297 0)"/>
     <use xlink:href="#DejaVuSans-20" transform="translate(581.152344 0)"/>
     <use xlink:href="#DejaVuSans-54" transform="translate(612.939453 0)"/>
     <use xlink:href="#DejaVuSans-72" transform="translate(659.273438 0)"/>
     <use xlink:href="#DejaVuSans-69" transform="translate(700.386719 0)"/>
     <use xlink:href="#DejaVuSans-61" transform="translate(728.169922 0)"/>
     <use xlink:href="#DejaVuSans-6c" transform="translate(789.449219 0)"/>
     <use xlink:href="#DejaVuSans-20" transform="translate(817.232422 0)"/>
     <use xlink:href="#DejaVuSans-32" transform="translate(849.019531 0)"/>
     <use xlink:href="#DejaVuSans-36" transform="translate(912.642578 0)"/>
     <use xlink:href="#DejaVuSans-20" transform="translate(976.265625 0)"/>
     <use xlink:href="#DejaVuSans-2d" transform="translate(1008.052734 0)"/>
     <use xlink:href="#DejaVuSans-20" transform="translate(1044.136719 0)"/>
     <use xlink:href="#DejaVuSans-53" transform="translate(1075.923828 0)"/>
     <use xlink:href="#DejaVuSans-74" transform="translate(1139.400391 0)"/>
     <use xlink:href="#DejaVuSans-72" transform="translate(1178.609375 0)"/>
     <use xlink:href="#DejaVuSans-65" transform="translate(1217.472656 0)"/>
     <use xlink:href="#DejaVuSans-73" transform="translate(1278.996094 0)"/>
     <use xlink:href="#DejaVuSans-73" transform="translate(1331.095703 0)"/>
     <use xlink:href="#DejaVuSans-20" transform="translate(1383.195312 0)"/>
     <use xlink:href="#DejaVuSans-76" transform="translate(1414.982422 0)"/>
     <use xlink:href="#DejaVuSans-73" transform="translate(1474.162109 0)"/>
     <use xlink:href="#DejaVuSans-20" transform="translate(1526.261719 0)"/>
     <use xlink:href="#DejaVuSans-53" transform="translate(1558.048828 0)"/>
     <use xlink:href="#DejaVuSans-74" transform="translate(1621.525391 0)"/>
     <use xlink:href="#DejaVuSans-72" transform="translate(1660.734375 0)"/>
     <use xlink:href="#DejaVuSans-61" transform="translate(1701.847656 0)"/>
     <use xlink:href="#DejaVuSans-69" transform="translate(1763.126953 0)"/>
     <use xlink:href="#DejaVuSans-6e" transform="translate(1790.910156 0)"/>
    </g>
   </g>
   <g id="legend_1">
    <g id="patch_7">
     <path d="M 64.17 64.23625 
L 170.154375 64.23625 
Q 172.154375 64.23625 172.154375 62.23625 
L 172.154375 33.88 
Q 172.154375 31.88 170.154375 31.88 
L 64.17 31.88 
Q 62.17 31.88 62.17 33.88 
L 62.17 62.23625 
Q 62.17 64.23625 64.17 64.23625 
z
" style="fill: #ffffff; opacity: 0.8; stroke: #cccccc; stroke-linejoin: miter"/>
    </g>
    <g id="line2d_33">
     <path d="M 66.17 39.978437 
L 76.17 39.978437 
L 86.17 39.978437 
" style="fill: none; stroke: #ff0000; stroke-width: 2; stroke-linecap: square"/>
    </g>
    <g id="text_19">
     <!-- Raw Force -->
     <g transform="translate(94.17 43.478437) scale(0.1 -0.1)">
      <defs>
       <path id="DejaVuSans-52" d="M 2841 2188 
Q 3044 2119 3236 1894 
Q 3428 1669 3622 1275 
L 4263 0 
L 3584 0 
L 2988 1197 
Q 2756 1666 2539 1819 
Q 2322 1972 1947 1972 
L 1259 1972 
L 1259 0 
L 628 0 
L 628 4666 
L 2053 4666 
Q 2853 4666 3247 4331 
Q 3641 3997 3641 3322 
Q 3641 2881 3436 2590 
Q 3231 2300 2841 2188 
z
M 1259 4147 
L 1259 2491 
L 2053 2491 
Q 2509 2491 2742 2702 
Q 2975 2913 2975 3322 
Q 2975 3731 2742 3939 
Q 2509 4147 2053 4147 
L 1259 4147 
z
" transform="scale(0.015625)"/>
       <path id="DejaVuSans-77" d="M 269 3500 
L 844 3500 
L 1563 769 
L 2278 3500 
L 2956 3500 
L 3675 769 
L 4391 3500 
L 4966 3500 
L 4050 0 
L 3372 0 
L 2619 2869 
L 1863 0 
L 1184 0 
L 269 3500 
z
" transform="scale(0.015625)"/>
       <path id="DejaVuSans-46" d="M 628 4666 
L 3309 4666 
L 3309 4134 
L 1259 4134 
L 1259 2759 
L 3109 2759 
L 3109 2228 
L 1259 2228 
L 1259 0 
L 628 0 
L 628 4666 
z
" transform="scale(0.015625)"/>
       <path id="DejaVuSans-6f" d="M 1959 3097 
Q 1497 3097 1228 2736 
Q 959 2375 959 1747 
Q 959 1119 1226 758 
Q 1494 397 1959 397 
Q 2419 397 2687 759 
Q 2956 1122 2956 1747 
Q 2956 2369 2687 2733 
Q 2419 3097 1959 3097 
z
M 1959 3584 
Q 2709 3584 3137 3096 
Q 3566 2609 3566 1747 
Q 3566 888 3137 398 
Q 2709 -91 1959 -91 
Q 1206 -91 779 398 
Q 353 888 353 1747 
Q 353 2609 779 3096 
Q 1206 3584 1959 3584 
z
" transform="scale(0.015625)"/>
       <path id="DejaVuSans-63" d="M 3122 3366 
L 3122 2828 
Q 2878 2963 2633 3030 
Q 2388 3097 2138 3097 
Q 1578 3097 1268 2742 
Q 959 2388 959 1747 
Q 959 1106 1268 751 
Q 1578 397 2138 397 
Q 2388 397 2633 464 
Q 2878 531 3122 666 
L 3122 134 
Q 2881 22 2623 -34 
Q 2366 -91 2075 -91 
Q 1284 -91 818 406 
Q 353 903 353 1747 
Q 353 2603 823 3093 
Q 1294 3584 2113 3584 
Q 2378 3584 2631 3529 
Q 2884 3475 3122 3366 
z
" transform="scale(0.015625)"/>
      </defs>
      <use xlink:href="#DejaVuSans-52"/>
      <use xlink:href="#DejaVuSans-61" transform="translate(67.232422 0)"/>
      <use xlink:href="#DejaVuSans-77" transform="translate(128.511719 0)"/>
      <use xlink:href="#DejaVuSans-20" transform="translate(210.298828 0)"/>
      <use xlink:href="#DejaVuSans-46" transform="translate(242.085938 0)"/>
      <use xlink:href="#DejaVuSans-6f" transform="translate(295.980469 0)"/>
      <use xlink:href="#DejaVuSans-72" transform="translate(357.162109 0)"/>
      <use xlink:href="#DejaVuSans-63" transform="translate(396.025391 0)"/>
      <use xlink:href="#DejaVuSans-65" transform="translate(451.005859 0)"/>
     </g>
    </g>
    <g id="line2d_34">
     <path d="M 66.17 54.656563 
L 76.17 54.656563 
L 86.17 54.656563 
" style="fill: none; stroke: #000000; stroke-width: 2; stroke-linecap: square"/>
    </g>
    <g id="text_20">
     <!-- Adjusted Force -->
     <g transform="translate(94.17 58.156563) scale(0.1 -0.1)">
      <defs>
       <path id="DejaVuSans-41" d="M 2188 4044 
L 1331 1722 
L 3047 1722 
L 2188 4044 
z
M 1831 4666 
L 2547 4666 
L 4325 0 
L 3669 0 
L 3244 1197 
L 1141 1197 
L 716 0 
L 50 0 
L 1831 4666 
z
" transform="scale(0.015625)"/>
       <path id="DejaVuSans-64" d="M 2906 2969 
L 2906 4863 
L 3481 4863 
L 3481 0 
L 2906 0 
L 2906 525 
Q 2725 213 2448 61 
Q 2172 -91 1784 -91 
Q 1150 -91 751 415 
Q 353 922 353 1747 
Q 353 2572 751 3078 
Q 1150 3584 1784 3584 
Q 2172 3584 2448 3432 
Q 2725 3281 2906 2969 
z
M 947 1747 
Q 947 1113 1208 752 
Q 1469 391 1925 391 
Q 2381 391 2643 752 
Q 2906 1113 2906 1747 
Q 2906 2381 2643 2742 
Q 2381 3103 1925 3103 
Q 1469 3103 1208 2742 
Q 947 2381 947 1747 
z
" transform="scale(0.015625)"/>
       <path id="DejaVuSans-6a" d="M 603 3500 
L 1178 3500 
L 1178 -63 
Q 1178 -731 923 -1031 
Q 669 -1331 103 -1331 
L -116 -1331 
L -116 -844 
L 38 -844 
Q 366 -844 484 -692 
Q 603 -541 603 -63 
L 603 3500 
z
M 603 4863 
L 1178 4863 
L 1178 4134 
L 603 4134 
L 603 4863 
z
" transform="scale(0.015625)"/>
       <path id="DejaVuSans-75" d="M 544 1381 
L 544 3500 
L 1119 3500 
L 1119 1403 
Q 1119 906 1312 657 
Q 1506 409 1894 409 
Q 2359 409 2629 706 
Q 2900 1003 2900 1516 
L 2900 3500 
L 3475 3500 
L 3475 0 
L 2900 0 
L 2900 538 
Q 2691 219 2414 64 
Q 2138 -91 1772 -91 
Q 1169 -91 856 284 
Q 544 659 544 1381 
z
M 1991 3584 
L 1991 3584 
z
" transform="scale(0.015625)"/>
      </defs>
      <use xlink:href="#DejaVuSans-41"/>
      <use xlink:href="#DejaVuSans-64" transform="translate(66.658203 0)"/>
      <use xlink:href="#DejaVuSans-6a" transform="translate(130.134766 0)"/>
      <use xlink:href="#DejaVuSans-75" transform="translate(157.917969 0)"/>
      <use xlink:href="#DejaVuSans-73" transform="translate(221.296875 0)"/>
      <use xlink:href="#DejaVuSans-74" transform="translate(273.396484 0)"/>
      <use xlink:href="#DejaVuSans-65" transform="translate(312.605469 0)"/>
      <use xlink:href="#DejaVuSans-64" transform="translate(374.128906 0)"/>
      <use xlink:href="#DejaVuSans-20" transform="translate(437.605469 0)"/>
      <use xlink:href="#DejaVuSans-46" transform="translate(469.392578 0)"/>
      <use xlink:href="#DejaVuSans-6f" transform="translate(523.287109 0)"/>
      <use xlink:href="#DejaVuSans-72" transform="translate(584.46875 0)"/>
      <use xlink:href="#DejaVuSans-63" transform="translate(623.332031 0)"/>
      <use xlink:href="#DejaVuSans-65" transform="translate(678.3125 0)"/>
     </g>
    </g>
   </g>
  </g>
 </g>
 <defs>
  <clipPath id="p2e4988f980">
   <rect x="57.17" y="26.88" width="392.83" height="276.76"/>
  </clipPath>
 </defs>
</svg>
