<?xml version="1.0" encoding="utf-8" standalone="no"?>
<!DOCTYPE svg PUBLIC "-//W3C//DTD SVG 1.1//EN"
  "http://www.w3.org/Graphics/SVG/1.1/DTD/svg11.dtd">
<svg xmlns:xlink="http://www.w3.org/1999/xlink" width="460.8pt" height="345.6pt" viewBox="0 0 460.8 345.6" xmlns="http://www.w3.org/2000/svg" version="1.1">
 <metadata>
  <rdf:RDF xmlns:dc="http://purl.org/dc/elements/1.1/" xmlns:cc="http://creativecommons.org/ns#" xmlns:rdf="http://www.w3.org/1999/02/22-rdf-syntax-ns#">
   <cc:Work>
    <dc:type rdf:resource="http://purl.org/dc/dcmitype/StillImage"/>
    <dc:date>2025-07-28T21:14:57.156233</dc:date>
    <dc:format>image/svg+xml</dc:format>
    <dc:creator>
     <cc:Agent>
      <dc:title>Matplotlib v3.10.3, https://matplotlib.org/</dc:title>
     </cc:Agent>
    </dc:creator>
   </cc:Work>
  </rdf:RDF>
 </metadata>
 <defs>
  <style type="text/css">*{stroke-linejoin: round; stroke-linecap: butt}</style>
 </defs>
 <g id="figure_1">
  <g id="patch_1">
   <path d="M 0 345.6 
L 460.8 345.6 
L 460.8 0 
L 0 0 
z
" style="fill: #ffffff"/>
  </g>
  <g id="axes_1">
   <g id="patch_2">
    <path d="M 57.17 303.64 
L 450 303.64 
L 450 26.88 
L 57.17 26.88 
z
" style="fill: #ffffff"/>
   </g>
   <g id="matplotlib.axis_1">
    <g id="xtick_1">
     <g id="line2d_1">
      <path d="M 75.180653 303.64 
L 75.180653 26.88 
" clip-path="url(#p579900d72e)" style="fill: none; stroke: #b0b0b0; stroke-opacity: 0.3; stroke-width: 0.8; stroke-linecap: square"/>
     </g>
     <g id="line2d_2">
      <defs>
       <path id="me78403ec51" d="M 0 0 
L 0 3.5 
" style="stroke: #000000; stroke-width: 0.8"/>
      </defs>
      <g>
       <use xlink:href="#me78403ec51" x="75.180653" y="303.64" style="stroke: #000000; stroke-width: 0.8"/>
      </g>
     </g>
     <g id="text_1">
      <!-- 0.000 -->
      <g transform="translate(60.86659 318.238437) scale(0.1 -0.1)">
       <defs>
        <path id="DejaVuSans-30" d="M 2034 4250 
Q 1547 4250 1301 3770 
Q 1056 3291 1056 2328 
Q 1056 1369 1301 889 
Q 1547 409 2034 409 
Q 2525 409 2770 889 
Q 3016 1369 3016 2328 
Q 3016 3291 2770 3770 
Q 2525 4250 2034 4250 
z
M 2034 4750 
Q 2819 4750 3233 4129 
Q 3647 3509 3647 2328 
Q 3647 1150 3233 529 
Q 2819 -91 2034 -91 
Q 1250 -91 836 529 
Q 422 1150 422 2328 
Q 422 3509 836 4129 
Q 1250 4750 2034 4750 
z
" transform="scale(0.015625)"/>
        <path id="DejaVuSans-2e" d="M 684 794 
L 1344 794 
L 1344 0 
L 684 0 
L 684 794 
z
" transform="scale(0.015625)"/>
       </defs>
       <use xlink:href="#DejaVuSans-30"/>
       <use xlink:href="#DejaVuSans-2e" transform="translate(63.623047 0)"/>
       <use xlink:href="#DejaVuSans-30" transform="translate(95.410156 0)"/>
       <use xlink:href="#DejaVuSans-30" transform="translate(159.033203 0)"/>
       <use xlink:href="#DejaVuSans-30" transform="translate(222.65625 0)"/>
      </g>
     </g>
    </g>
    <g id="xtick_2">
     <g id="line2d_3">
      <path d="M 125.13252 303.64 
L 125.13252 26.88 
" clip-path="url(#p579900d72e)" style="fill: none; stroke: #b0b0b0; stroke-opacity: 0.3; stroke-width: 0.8; stroke-linecap: square"/>
     </g>
     <g id="line2d_4">
      <g>
       <use xlink:href="#me78403ec51" x="125.13252" y="303.64" style="stroke: #000000; stroke-width: 0.8"/>
      </g>
     </g>
     <g id="text_2">
      <!-- 0.025 -->
      <g transform="translate(110.818458 318.238437) scale(0.1 -0.1)">
       <defs>
        <path id="DejaVuSans-32" d="M 1228 531 
L 3431 531 
L 3431 0 
L 469 0 
L 469 531 
Q 828 903 1448 1529 
Q 2069 2156 2228 2338 
Q 2531 2678 2651 2914 
Q 2772 3150 2772 3378 
Q 2772 3750 2511 3984 
Q 2250 4219 1831 4219 
Q 1534 4219 1204 4116 
Q 875 4013 500 3803 
L 500 4441 
Q 881 4594 1212 4672 
Q 1544 4750 1819 4750 
Q 2544 4750 2975 4387 
Q 3406 4025 3406 3419 
Q 3406 3131 3298 2873 
Q 3191 2616 2906 2266 
Q 2828 2175 2409 1742 
Q 1991 1309 1228 531 
z
" transform="scale(0.015625)"/>
        <path id="DejaVuSans-35" d="M 691 4666 
L 3169 4666 
L 3169 4134 
L 1269 4134 
L 1269 2991 
Q 1406 3038 1543 3061 
Q 1681 3084 1819 3084 
Q 2600 3084 3056 2656 
Q 3513 2228 3513 1497 
Q 3513 744 3044 326 
Q 2575 -91 1722 -91 
Q 1428 -91 1123 -41 
Q 819 9 494 109 
L 494 744 
Q 775 591 1075 516 
Q 1375 441 1709 441 
Q 2250 441 2565 725 
Q 2881 1009 2881 1497 
Q 2881 1984 2565 2268 
Q 2250 2553 1709 2553 
Q 1456 2553 1204 2497 
Q 953 2441 691 2322 
L 691 4666 
z
" transform="scale(0.015625)"/>
       </defs>
       <use xlink:href="#DejaVuSans-30"/>
       <use xlink:href="#DejaVuSans-2e" transform="translate(63.623047 0)"/>
       <use xlink:href="#DejaVuSans-30" transform="translate(95.410156 0)"/>
       <use xlink:href="#DejaVuSans-32" transform="translate(159.033203 0)"/>
       <use xlink:href="#DejaVuSans-35" transform="translate(222.65625 0)"/>
      </g>
     </g>
    </g>
    <g id="xtick_3">
     <g id="line2d_5">
      <path d="M 175.084388 303.64 
L 175.084388 26.88 
" clip-path="url(#p579900d72e)" style="fill: none; stroke: #b0b0b0; stroke-opacity: 0.3; stroke-width: 0.8; stroke-linecap: square"/>
     </g>
     <g id="line2d_6">
      <g>
       <use xlink:href="#me78403ec51" x="175.084388" y="303.64" style="stroke: #000000; stroke-width: 0.8"/>
      </g>
     </g>
     <g id="text_3">
      <!-- 0.050 -->
      <g transform="translate(160.770325 318.238437) scale(0.1 -0.1)">
       <use xlink:href="#DejaVuSans-30"/>
       <use xlink:href="#DejaVuSans-2e" transform="translate(63.623047 0)"/>
       <use xlink:href="#DejaVuSans-30" transform="translate(95.410156 0)"/>
       <use xlink:href="#DejaVuSans-35" transform="translate(159.033203 0)"/>
       <use xlink:href="#DejaVuSans-30" transform="translate(222.65625 0)"/>
      </g>
     </g>
    </g>
    <g id="xtick_4">
     <g id="line2d_7">
      <path d="M 225.036255 303.64 
L 225.036255 26.88 
" clip-path="url(#p579900d72e)" style="fill: none; stroke: #b0b0b0; stroke-opacity: 0.3; stroke-width: 0.8; stroke-linecap: square"/>
     </g>
     <g id="line2d_8">
      <g>
       <use xlink:href="#me78403ec51" x="225.036255" y="303.64" style="stroke: #000000; stroke-width: 0.8"/>
      </g>
     </g>
     <g id="text_4">
      <!-- 0.075 -->
      <g transform="translate(210.722193 318.238437) scale(0.1 -0.1)">
       <defs>
        <path id="DejaVuSans-37" d="M 525 4666 
L 3525 4666 
L 3525 4397 
L 1831 0 
L 1172 0 
L 2766 4134 
L 525 4134 
L 525 4666 
z
" transform="scale(0.015625)"/>
       </defs>
       <use xlink:href="#DejaVuSans-30"/>
       <use xlink:href="#DejaVuSans-2e" transform="translate(63.623047 0)"/>
       <use xlink:href="#DejaVuSans-30" transform="translate(95.410156 0)"/>
       <use xlink:href="#DejaVuSans-37" transform="translate(159.033203 0)"/>
       <use xlink:href="#DejaVuSans-35" transform="translate(222.65625 0)"/>
      </g>
     </g>
    </g>
    <g id="xtick_5">
     <g id="line2d_9">
      <path d="M 274.988123 303.64 
L 274.988123 26.88 
" clip-path="url(#p579900d72e)" style="fill: none; stroke: #b0b0b0; stroke-opacity: 0.3; stroke-width: 0.8; stroke-linecap: square"/>
     </g>
     <g id="line2d_10">
      <g>
       <use xlink:href="#me78403ec51" x="274.988123" y="303.64" style="stroke: #000000; stroke-width: 0.8"/>
      </g>
     </g>
     <g id="text_5">
      <!-- 0.100 -->
      <g transform="translate(260.67406 318.238437) scale(0.1 -0.1)">
       <defs>
        <path id="DejaVuSans-31" d="M 794 531 
L 1825 531 
L 1825 4091 
L 703 3866 
L 703 4441 
L 1819 4666 
L 2450 4666 
L 2450 531 
L 3481 531 
L 3481 0 
L 794 0 
L 794 531 
z
" transform="scale(0.015625)"/>
       </defs>
       <use xlink:href="#DejaVuSans-30"/>
       <use xlink:href="#DejaVuSans-2e" transform="translate(63.623047 0)"/>
       <use xlink:href="#DejaVuSans-31" transform="translate(95.410156 0)"/>
       <use xlink:href="#DejaVuSans-30" transform="translate(159.033203 0)"/>
       <use xlink:href="#DejaVuSans-30" transform="translate(222.65625 0)"/>
      </g>
     </g>
    </g>
    <g id="xtick_6">
     <g id="line2d_11">
      <path d="M 324.93999 303.64 
L 324.93999 26.88 
" clip-path="url(#p579900d72e)" style="fill: none; stroke: #b0b0b0; stroke-opacity: 0.3; stroke-width: 0.8; stroke-linecap: square"/>
     </g>
     <g id="line2d_12">
      <g>
       <use xlink:href="#me78403ec51" x="324.93999" y="303.64" style="stroke: #000000; stroke-width: 0.8"/>
      </g>
     </g>
     <g id="text_6">
      <!-- 0.125 -->
      <g transform="translate(310.625928 318.238437) scale(0.1 -0.1)">
       <use xlink:href="#DejaVuSans-30"/>
       <use xlink:href="#DejaVuSans-2e" transform="translate(63.623047 0)"/>
       <use xlink:href="#DejaVuSans-31" transform="translate(95.410156 0)"/>
       <use xlink:href="#DejaVuSans-32" transform="translate(159.033203 0)"/>
       <use xlink:href="#DejaVuSans-35" transform="translate(222.65625 0)"/>
      </g>
     </g>
    </g>
    <g id="xtick_7">
     <g id="line2d_13">
      <path d="M 374.891858 303.64 
L 374.891858 26.88 
" clip-path="url(#p579900d72e)" style="fill: none; stroke: #b0b0b0; stroke-opacity: 0.3; stroke-width: 0.8; stroke-linecap: square"/>
     </g>
     <g id="line2d_14">
      <g>
       <use xlink:href="#me78403ec51" x="374.891858" y="303.64" style="stroke: #000000; stroke-width: 0.8"/>
      </g>
     </g>
     <g id="text_7">
      <!-- 0.150 -->
      <g transform="translate(360.577795 318.238437) scale(0.1 -0.1)">
       <use xlink:href="#DejaVuSans-30"/>
       <use xlink:href="#DejaVuSans-2e" transform="translate(63.623047 0)"/>
       <use xlink:href="#DejaVuSans-31" transform="translate(95.410156 0)"/>
       <use xlink:href="#DejaVuSans-35" transform="translate(159.033203 0)"/>
       <use xlink:href="#DejaVuSans-30" transform="translate(222.65625 0)"/>
      </g>
     </g>
    </g>
    <g id="xtick_8">
     <g id="line2d_15">
      <path d="M 424.843725 303.64 
L 424.843725 26.88 
" clip-path="url(#p579900d72e)" style="fill: none; stroke: #b0b0b0; stroke-opacity: 0.3; stroke-width: 0.8; stroke-linecap: square"/>
     </g>
     <g id="line2d_16">
      <g>
       <use xlink:href="#me78403ec51" x="424.843725" y="303.64" style="stroke: #000000; stroke-width: 0.8"/>
      </g>
     </g>
     <g id="text_8">
      <!-- 0.175 -->
      <g transform="translate(410.529663 318.238437) scale(0.1 -0.1)">
       <use xlink:href="#DejaVuSans-30"/>
       <use xlink:href="#DejaVuSans-2e" transform="translate(63.623047 0)"/>
       <use xlink:href="#DejaVuSans-31" transform="translate(95.410156 0)"/>
       <use xlink:href="#DejaVuSans-37" transform="translate(159.033203 0)"/>
       <use xlink:href="#DejaVuSans-35" transform="translate(222.65625 0)"/>
      </g>
     </g>
    </g>
    <g id="text_9">
     <!-- Strain [-] -->
     <g transform="translate(231.47875 331.916562) scale(0.1 -0.1)">
      <defs>
       <path id="DejaVuSans-53" d="M 3425 4513 
L 3425 3897 
Q 3066 4069 2747 4153 
Q 2428 4238 2131 4238 
Q 1616 4238 1336 4038 
Q 1056 3838 1056 3469 
Q 1056 3159 1242 3001 
Q 1428 2844 1947 2747 
L 2328 2669 
Q 3034 2534 3370 2195 
Q 3706 1856 3706 1288 
Q 3706 609 3251 259 
Q 2797 -91 1919 -91 
Q 1588 -91 1214 -16 
Q 841 59 441 206 
L 441 856 
Q 825 641 1194 531 
Q 1563 422 1919 422 
Q 2459 422 2753 634 
Q 3047 847 3047 1241 
Q 3047 1584 2836 1778 
Q 2625 1972 2144 2069 
L 1759 2144 
Q 1053 2284 737 2584 
Q 422 2884 422 3419 
Q 422 4038 858 4394 
Q 1294 4750 2059 4750 
Q 2388 4750 2728 4690 
Q 3069 4631 3425 4513 
z
" transform="scale(0.015625)"/>
       <path id="DejaVuSans-74" d="M 1172 4494 
L 1172 3500 
L 2356 3500 
L 2356 3053 
L 1172 3053 
L 1172 1153 
Q 1172 725 1289 603 
Q 1406 481 1766 481 
L 2356 481 
L 2356 0 
L 1766 0 
Q 1100 0 847 248 
Q 594 497 594 1153 
L 594 3053 
L 172 3053 
L 172 3500 
L 594 3500 
L 594 4494 
L 1172 4494 
z
" transform="scale(0.015625)"/>
       <path id="DejaVuSans-72" d="M 2631 2963 
Q 2534 3019 2420 3045 
Q 2306 3072 2169 3072 
Q 1681 3072 1420 2755 
Q 1159 2438 1159 1844 
L 1159 0 
L 581 0 
L 581 3500 
L 1159 3500 
L 1159 2956 
Q 1341 3275 1631 3429 
Q 1922 3584 2338 3584 
Q 2397 3584 2469 3576 
Q 2541 3569 2628 3553 
L 2631 2963 
z
" transform="scale(0.015625)"/>
       <path id="DejaVuSans-61" d="M 2194 1759 
Q 1497 1759 1228 1600 
Q 959 1441 959 1056 
Q 959 750 1161 570 
Q 1363 391 1709 391 
Q 2188 391 2477 730 
Q 2766 1069 2766 1631 
L 2766 1759 
L 2194 1759 
z
M 3341 1997 
L 3341 0 
L 2766 0 
L 2766 531 
Q 2569 213 2275 61 
Q 1981 -91 1556 -91 
Q 1019 -91 701 211 
Q 384 513 384 1019 
Q 384 1609 779 1909 
Q 1175 2209 1959 2209 
L 2766 2209 
L 2766 2266 
Q 2766 2663 2505 2880 
Q 2244 3097 1772 3097 
Q 1472 3097 1187 3025 
Q 903 2953 641 2809 
L 641 3341 
Q 956 3463 1253 3523 
Q 1550 3584 1831 3584 
Q 2591 3584 2966 3190 
Q 3341 2797 3341 1997 
z
" transform="scale(0.015625)"/>
       <path id="DejaVuSans-69" d="M 603 3500 
L 1178 3500 
L 1178 0 
L 603 0 
L 603 3500 
z
M 603 4863 
L 1178 4863 
L 1178 4134 
L 603 4134 
L 603 4863 
z
" transform="scale(0.015625)"/>
       <path id="DejaVuSans-6e" d="M 3513 2113 
L 3513 0 
L 2938 0 
L 2938 2094 
Q 2938 2591 2744 2837 
Q 2550 3084 2163 3084 
Q 1697 3084 1428 2787 
Q 1159 2491 1159 1978 
L 1159 0 
L 581 0 
L 581 3500 
L 1159 3500 
L 1159 2956 
Q 1366 3272 1645 3428 
Q 1925 3584 2291 3584 
Q 2894 3584 3203 3211 
Q 3513 2838 3513 2113 
z
" transform="scale(0.015625)"/>
       <path id="DejaVuSans-20" transform="scale(0.015625)"/>
       <path id="DejaVuSans-5b" d="M 550 4863 
L 1875 4863 
L 1875 4416 
L 1125 4416 
L 1125 -397 
L 1875 -397 
L 1875 -844 
L 550 -844 
L 550 4863 
z
" transform="scale(0.015625)"/>
       <path id="DejaVuSans-2d" d="M 313 2009 
L 1997 2009 
L 1997 1497 
L 313 1497 
L 313 2009 
z
" transform="scale(0.015625)"/>
       <path id="DejaVuSans-5d" d="M 1947 4863 
L 1947 -844 
L 622 -844 
L 622 -397 
L 1369 -397 
L 1369 4416 
L 622 4416 
L 622 4863 
L 1947 4863 
z
" transform="scale(0.015625)"/>
      </defs>
      <use xlink:href="#DejaVuSans-53"/>
      <use xlink:href="#DejaVuSans-74" transform="translate(63.476562 0)"/>
      <use xlink:href="#DejaVuSans-72" transform="translate(102.685547 0)"/>
      <use xlink:href="#DejaVuSans-61" transform="translate(143.798828 0)"/>
      <use xlink:href="#DejaVuSans-69" transform="translate(205.078125 0)"/>
      <use xlink:href="#DejaVuSans-6e" transform="translate(232.861328 0)"/>
      <use xlink:href="#DejaVuSans-20" transform="translate(296.240234 0)"/>
      <use xlink:href="#DejaVuSans-5b" transform="translate(328.027344 0)"/>
      <use xlink:href="#DejaVuSans-2d" transform="translate(367.041016 0)"/>
      <use xlink:href="#DejaVuSans-5d" transform="translate(403.125 0)"/>
     </g>
    </g>
   </g>
   <g id="matplotlib.axis_2">
    <g id="ytick_1">
     <g id="line2d_17">
      <path d="M 57.17 273.440932 
L 450 273.440932 
" clip-path="url(#p579900d72e)" style="fill: none; stroke: #b0b0b0; stroke-opacity: 0.3; stroke-width: 0.8; stroke-linecap: square"/>
     </g>
     <g id="line2d_18">
      <defs>
       <path id="m204be88e50" d="M 0 0 
L -3.5 0 
" style="stroke: #000000; stroke-width: 0.8"/>
      </defs>
      <g>
       <use xlink:href="#m204be88e50" x="57.17" y="273.440932" style="stroke: #000000; stroke-width: 0.8"/>
      </g>
     </g>
     <g id="text_10">
      <!-- 0 -->
      <g transform="translate(43.8075 277.240151) scale(0.1 -0.1)">
       <use xlink:href="#DejaVuSans-30"/>
      </g>
     </g>
    </g>
    <g id="ytick_2">
     <g id="line2d_19">
      <path d="M 57.17 236.36786 
L 450 236.36786 
" clip-path="url(#p579900d72e)" style="fill: none; stroke: #b0b0b0; stroke-opacity: 0.3; stroke-width: 0.8; stroke-linecap: square"/>
     </g>
     <g id="line2d_20">
      <g>
       <use xlink:href="#m204be88e50" x="57.17" y="236.36786" style="stroke: #000000; stroke-width: 0.8"/>
      </g>
     </g>
     <g id="text_11">
      <!-- 250 -->
      <g transform="translate(31.0825 240.167079) scale(0.1 -0.1)">
       <use xlink:href="#DejaVuSans-32"/>
       <use xlink:href="#DejaVuSans-35" transform="translate(63.623047 0)"/>
       <use xlink:href="#DejaVuSans-30" transform="translate(127.246094 0)"/>
      </g>
     </g>
    </g>
    <g id="ytick_3">
     <g id="line2d_21">
      <path d="M 57.17 199.294788 
L 450 199.294788 
" clip-path="url(#p579900d72e)" style="fill: none; stroke: #b0b0b0; stroke-opacity: 0.3; stroke-width: 0.8; stroke-linecap: square"/>
     </g>
     <g id="line2d_22">
      <g>
       <use xlink:href="#m204be88e50" x="57.17" y="199.294788" style="stroke: #000000; stroke-width: 0.8"/>
      </g>
     </g>
     <g id="text_12">
      <!-- 500 -->
      <g transform="translate(31.0825 203.094007) scale(0.1 -0.1)">
       <use xlink:href="#DejaVuSans-35"/>
       <use xlink:href="#DejaVuSans-30" transform="translate(63.623047 0)"/>
       <use xlink:href="#DejaVuSans-30" transform="translate(127.246094 0)"/>
      </g>
     </g>
    </g>
    <g id="ytick_4">
     <g id="line2d_23">
      <path d="M 57.17 162.221717 
L 450 162.221717 
" clip-path="url(#p579900d72e)" style="fill: none; stroke: #b0b0b0; stroke-opacity: 0.3; stroke-width: 0.8; stroke-linecap: square"/>
     </g>
     <g id="line2d_24">
      <g>
       <use xlink:href="#m204be88e50" x="57.17" y="162.221717" style="stroke: #000000; stroke-width: 0.8"/>
      </g>
     </g>
     <g id="text_13">
      <!-- 750 -->
      <g transform="translate(31.0825 166.020935) scale(0.1 -0.1)">
       <use xlink:href="#DejaVuSans-37"/>
       <use xlink:href="#DejaVuSans-35" transform="translate(63.623047 0)"/>
       <use xlink:href="#DejaVuSans-30" transform="translate(127.246094 0)"/>
      </g>
     </g>
    </g>
    <g id="ytick_5">
     <g id="line2d_25">
      <path d="M 57.17 125.148645 
L 450 125.148645 
" clip-path="url(#p579900d72e)" style="fill: none; stroke: #b0b0b0; stroke-opacity: 0.3; stroke-width: 0.8; stroke-linecap: square"/>
     </g>
     <g id="line2d_26">
      <g>
       <use xlink:href="#m204be88e50" x="57.17" y="125.148645" style="stroke: #000000; stroke-width: 0.8"/>
      </g>
     </g>
     <g id="text_14">
      <!-- 1000 -->
      <g transform="translate(24.72 128.947863) scale(0.1 -0.1)">
       <use xlink:href="#DejaVuSans-31"/>
       <use xlink:href="#DejaVuSans-30" transform="translate(63.623047 0)"/>
       <use xlink:href="#DejaVuSans-30" transform="translate(127.246094 0)"/>
       <use xlink:href="#DejaVuSans-30" transform="translate(190.869141 0)"/>
      </g>
     </g>
    </g>
    <g id="ytick_6">
     <g id="line2d_27">
      <path d="M 57.17 88.075573 
L 450 88.075573 
" clip-path="url(#p579900d72e)" style="fill: none; stroke: #b0b0b0; stroke-opacity: 0.3; stroke-width: 0.8; stroke-linecap: square"/>
     </g>
     <g id="line2d_28">
      <g>
       <use xlink:href="#m204be88e50" x="57.17" y="88.075573" style="stroke: #000000; stroke-width: 0.8"/>
      </g>
     </g>
     <g id="text_15">
      <!-- 1250 -->
      <g transform="translate(24.72 91.874792) scale(0.1 -0.1)">
       <use xlink:href="#DejaVuSans-31"/>
       <use xlink:href="#DejaVuSans-32" transform="translate(63.623047 0)"/>
       <use xlink:href="#DejaVuSans-35" transform="translate(127.246094 0)"/>
       <use xlink:href="#DejaVuSans-30" transform="translate(190.869141 0)"/>
      </g>
     </g>
    </g>
    <g id="ytick_7">
     <g id="line2d_29">
      <path d="M 57.17 51.002501 
L 450 51.002501 
" clip-path="url(#p579900d72e)" style="fill: none; stroke: #b0b0b0; stroke-opacity: 0.3; stroke-width: 0.8; stroke-linecap: square"/>
     </g>
     <g id="line2d_30">
      <g>
       <use xlink:href="#m204be88e50" x="57.17" y="51.002501" style="stroke: #000000; stroke-width: 0.8"/>
      </g>
     </g>
     <g id="text_16">
      <!-- 1500 -->
      <g transform="translate(24.72 54.80172) scale(0.1 -0.1)">
       <use xlink:href="#DejaVuSans-31"/>
       <use xlink:href="#DejaVuSans-35" transform="translate(63.623047 0)"/>
       <use xlink:href="#DejaVuSans-30" transform="translate(127.246094 0)"/>
       <use xlink:href="#DejaVuSans-30" transform="translate(190.869141 0)"/>
      </g>
     </g>
    </g>
    <g id="text_17">
     <!-- Stress [Pa] -->
     <g transform="translate(18.640312 191.967812) rotate(-90) scale(0.1 -0.1)">
      <defs>
       <path id="DejaVuSans-65" d="M 3597 1894 
L 3597 1613 
L 953 1613 
Q 991 1019 1311 708 
Q 1631 397 2203 397 
Q 2534 397 2845 478 
Q 3156 559 3463 722 
L 3463 178 
Q 3153 47 2828 -22 
Q 2503 -91 2169 -91 
Q 1331 -91 842 396 
Q 353 884 353 1716 
Q 353 2575 817 3079 
Q 1281 3584 2069 3584 
Q 2775 3584 3186 3129 
Q 3597 2675 3597 1894 
z
M 3022 2063 
Q 3016 2534 2758 2815 
Q 2500 3097 2075 3097 
Q 1594 3097 1305 2825 
Q 1016 2553 972 2059 
L 3022 2063 
z
" transform="scale(0.015625)"/>
       <path id="DejaVuSans-73" d="M 2834 3397 
L 2834 2853 
Q 2591 2978 2328 3040 
Q 2066 3103 1784 3103 
Q 1356 3103 1142 2972 
Q 928 2841 928 2578 
Q 928 2378 1081 2264 
Q 1234 2150 1697 2047 
L 1894 2003 
Q 2506 1872 2764 1633 
Q 3022 1394 3022 966 
Q 3022 478 2636 193 
Q 2250 -91 1575 -91 
Q 1294 -91 989 -36 
Q 684 19 347 128 
L 347 722 
Q 666 556 975 473 
Q 1284 391 1588 391 
Q 1994 391 2212 530 
Q 2431 669 2431 922 
Q 2431 1156 2273 1281 
Q 2116 1406 1581 1522 
L 1381 1569 
Q 847 1681 609 1914 
Q 372 2147 372 2553 
Q 372 3047 722 3315 
Q 1072 3584 1716 3584 
Q 2034 3584 2315 3537 
Q 2597 3491 2834 3397 
z
" transform="scale(0.015625)"/>
       <path id="DejaVuSans-50" d="M 1259 4147 
L 1259 2394 
L 2053 2394 
Q 2494 2394 2734 2622 
Q 2975 2850 2975 3272 
Q 2975 3691 2734 3919 
Q 2494 4147 2053 4147 
L 1259 4147 
z
M 628 4666 
L 2053 4666 
Q 2838 4666 3239 4311 
Q 3641 3956 3641 3272 
Q 3641 2581 3239 2228 
Q 2838 1875 2053 1875 
L 1259 1875 
L 1259 0 
L 628 0 
L 628 4666 
z
" transform="scale(0.015625)"/>
      </defs>
      <use xlink:href="#DejaVuSans-53"/>
      <use xlink:href="#DejaVuSans-74" transform="translate(63.476562 0)"/>
      <use xlink:href="#DejaVuSans-72" transform="translate(102.685547 0)"/>
      <use xlink:href="#DejaVuSans-65" transform="translate(141.548828 0)"/>
      <use xlink:href="#DejaVuSans-73" transform="translate(203.072266 0)"/>
      <use xlink:href="#DejaVuSans-73" transform="translate(255.171875 0)"/>
      <use xlink:href="#DejaVuSans-20" transform="translate(307.271484 0)"/>
      <use xlink:href="#DejaVuSans-5b" transform="translate(339.058594 0)"/>
      <use xlink:href="#DejaVuSans-50" transform="translate(378.072266 0)"/>
      <use xlink:href="#DejaVuSans-61" transform="translate(433.875 0)"/>
      <use xlink:href="#DejaVuSans-5d" transform="translate(495.154297 0)"/>
     </g>
    </g>
   </g>
   <g id="line2d_31">
    <path d="M 75.180653 272.334558 
L 75.180653 272.243036 
L 75.182757 272.441828 
L 75.186707 272.352878 
L 75.907489 270.522192 
L 76.663841 267.86311 
L 77.392836 267.616889 
L 78.168652 265.438605 
L 78.940112 264.04873 
L 79.736072 264.13632 
L 82.050997 265.676562 
L 83.585207 266.645035 
L 84.383345 267.231496 
L 86.002486 267.932998 
L 86.814779 268.501328 
L 87.619449 268.845827 
L 89.195036 269.136869 
L 89.957241 268.932536 
L 90.704202 268.332946 
L 91.440274 268.118337 
L 92.162191 268.841097 
L 92.999528 269.883347 
L 93.787321 270.021795 
L 94.526116 269.25527 
L 97.590724 264.745522 
L 98.321352 263.965241 
L 99.054158 263.389096 
L 100.532291 262.578493 
L 102.768274 262.073624 
L 107.909347 259.65666 
L 110.119741 258.409024 
L 112.362259 257.509013 
L 115.379502 256.33484 
L 116.88268 255.655846 
L 118.383135 254.702378 
L 119.886312 254.048393 
L 121.387311 253.549463 
L 122.875244 252.809509 
L 124.351744 251.904808 
L 127.305859 250.410235 
L 128.790525 249.844094 
L 133.986585 247.262852 
L 135.476152 246.68577 
L 140.655879 243.860691 
L 142.865185 242.566163 
L 158.663513 234.418857 
L 160.160701 233.555109 
L 161.655168 232.693236 
L 163.150178 231.866689 
L 166.924726 229.673087 
L 179.036164 223.216702 
L 183.496858 220.393982 
L 185.754074 218.989102 
L 192.61283 215.519416 
L 194.889101 214.188312 
L 196.399356 213.330504 
L 198.650583 211.793388 
L 202.408798 209.65887 
L 206.163202 207.501844 
L 208.42804 206.151046 
L 209.944283 205.306992 
L 212.212387 203.877416 
L 215.997824 201.447166 
L 219.0167 199.746242 
L 221.9991 197.916521 
L 225.712127 195.711353 
L 230.919076 192.404538 
L 233.904895 190.609884 
L 237.649499 188.446918 
L 239.143966 187.557536 
L 245.083176 183.537965 
L 246.556954 182.664838 
L 248.757004 181.295908 
L 251.695849 179.445868 
L 256.14386 176.510124 
L 259.887375 173.978276 
L 265.12209 170.593933 
L 270.31434 167.049533 
L 271.054767 166.438688 
L 273.277684 164.975037 
L 275.506045 163.333509 
L 278.495521 161.419383 
L 280.752193 159.968236 
L 281.504598 159.566216 
L 289.057437 154.194039 
L 291.322275 152.755709 
L 292.827085 151.703143 
L 296.578223 149.42076 
L 298.813117 147.789235 
L 304.050554 143.673379 
L 316.926919 134.591675 
L 319.920751 132.115159 
L 322.164901 130.364216 
L 324.411228 128.660479 
L 328.933825 125.253003 
L 330.456058 124.257332 
L 344.759975 113.381203 
L 347.004668 111.392362 
L 349.259706 109.708006 
L 351.530533 107.779813 
L 353.051132 106.832909 
L 357.61674 103.293198 
L 362.909709 99.156085 
L 365.140792 97.156928 
L 366.620014 96.075602 
L 370.287309 92.923218 
L 372.484093 90.992523 
L 376.913049 87.230545 
L 378.402615 86.183606 
L 379.895448 84.905021 
L 382.874036 82.523852 
L 390.267425 76.093101 
L 393.230225 73.313976 
L 399.244362 68.139263 
L 407.498498 60.873524 
L 408.975543 59.317964 
L 410.45422 57.933091 
L 411.932898 56.544467 
L 415.63667 53.166376 
L 418.626147 50.289717 
L 420.135857 49.123672 
L 421.640123 48.083923 
L 423.125879 47.002909 
L 427.585867 44.487317 
L 428.346983 44.122967 
L 429.082511 43.590275 
L 430.532878 42.135377 
L 431.817806 39.644363 
L 432.144091 40.830103 
L 431.992364 46.129138 
L 431.980523 51.481942 
L 431.980285 71.78788 
L 431.97154 71.739425 
L 431.252719 71.992016 
L 430.538356 73.805012 
L 429.799426 75.297502 
L 428.31612 75.2155 
L 426.835537 75.98734 
L 426.105726 76.397644 
L 425.391975 76.469897 
L 423.914659 77.217724 
L 423.178042 79.12341 
L 422.453675 80.319465 
L 421.702086 81.317324 
L 420.95567 82.115541 
L 420.209798 83.301905 
L 417.98552 83.794211 
L 415.761107 85.449904 
L 415.040687 87.737133 
L 414.313462 89.011654 
L 412.839275 89.901193 
L 412.108103 90.152221 
L 410.6331 91.440341 
L 409.182053 93.343682 
L 405.540618 96.87886 
L 404.821695 97.723695 
L 404.102773 98.386121 
L 403.371873 98.717646 
L 401.872847 99.747489 
L 400.411319 101.429657 
L 399.67688 102.510671 
L 398.934955 103.252657 
L 396.719933 104.843541 
L 395.258541 106.461936 
L 393.032766 108.675858 
L 385.78093 115.019077 
L 385.034513 115.84031 
L 381.38202 118.742702 
L 379.190817 121.150287 
L 376.984778 122.716709 
L 375.509366 123.972317 
L 374.037222 125.432374 
L 373.322655 125.935367 
L 371.876915 126.716351 
L 371.162076 127.294684 
L 369.680948 128.826329 
L 367.498864 130.671212 
L 366.044788 131.751268 
L 365.322054 132.463087 
L 364.604765 132.937945 
L 360.93992 136.097285 
L 358.761936 137.469028 
L 355.803628 140.358505 
L 355.086883 140.940902 
L 352.933109 142.211398 
L 350.747214 144.09442 
L 345.552396 148.311962 
L 343.316413 149.856346 
L 339.617541 152.67611 
L 338.163635 153.843718 
L 337.431646 154.325766 
L 336.713812 154.98319 
L 334.487357 156.588963 
L 333.768978 157.192305 
L 330.107383 159.621978 
L 328.665591 160.781614 
L 327.183782 161.993613 
L 322.726652 164.93428 
L 322.010724 165.55294 
L 319.844429 166.98533 
L 317.636212 168.641238 
L 316.202994 169.528198 
L 314.742011 170.368813 
L 311.838554 172.722765 
L 310.357971 173.663104 
L 309.613732 174.111703 
L 307.407148 175.849359 
L 305.176202 177.11118 
L 302.20333 179.327915 
L 298.552368 181.560984 
L 292.698344 185.431624 
L 289.091753 187.577318 
L 286.867476 189.218065 
L 284.661437 190.56011 
L 283.942786 190.910314 
L 281.746003 192.287294 
L 280.292505 193.0428 
L 277.392043 194.925274 
L 276.658182 195.479272 
L 275.168888 196.300349 
L 270.790837 199.042273 
L 269.329581 199.92384 
L 266.421224 201.765049 
L 264.971402 202.605508 
L 264.239276 203.206036 
L 260.595528 205.131182 
L 259.13565 206.21816 
L 258.393862 206.770155 
L 251.796433 210.448197 
L 250.347154 211.328592 
L 247.443425 212.753441 
L 245.956037 213.883847 
L 244.50077 214.670693 
L 243.762792 215.044734 
L 243.033253 215.25055 
L 242.290784 215.633891 
L 240.834325 216.624663 
L 240.093625 216.894721 
L 239.374975 217.299085 
L 238.64843 217.54048 
L 237.189624 218.438694 
L 236.44593 218.989595 
L 232.081218 221.375219 
L 228.435972 223.607819 
L 225.512371 224.883786 
L 222.575875 226.650125 
L 219.661529 228.074074 
L 218.199185 229.117731 
L 217.479717 229.455196 
L 216.0171 229.965614 
L 213.086286 231.880913 
L 210.887597 232.586713 
L 209.41028 233.539791 
L 208.670669 234.055289 
L 207.21513 234.641554 
L 206.488857 234.925484 
L 205.017538 235.881671 
L 202.808913 237.203005 
L 200.646973 238.122203 
L 196.972736 240.175676 
L 195.50032 240.745803 
L 192.574813 242.460717 
L 191.855618 242.825692 
L 191.12989 243.040955 
L 182.381402 247.105074 
L 180.919737 247.730875 
L 179.472365 248.683249 
L 178.728943 249.141695 
L 175.816231 250.358617 
L 173.619447 251.609692 
L 172.899435 251.94028 
L 171.458051 252.382099 
L 168.574977 253.945254 
L 159.774639 258.06408 
L 158.306034 258.505596 
L 156.831711 259.254303 
L 156.087473 259.589267 
L 155.341873 260.06225 
L 153.868367 260.830416 
L 153.126578 261.222901 
L 150.936728 261.9408 
L 149.481188 262.552036 
L 148.001694 263.462206 
L 145.122469 264.575224 
L 142.907447 265.717197 
L 142.162391 266.074904 
L 140.716107 266.50035 
L 137.766646 267.967362 
L 136.282524 268.425613 
L 135.54686 268.838652 
L 134.810107 269.078504 
L 133.322897 269.892718 
L 131.13183 270.684507 
L 128.950018 271.690885 
L 126.04275 272.790147 
L 125.294428 273.097602 
L 124.548556 273.540652 
L 123.109894 273.988508 
L 122.387977 274.164968 
L 120.92781 274.913558 
L 119.432528 275.605721 
L 118.715783 275.942248 
L 117.271676 276.39368 
L 112.915636 278.2892 
L 109.270391 279.422733 
L 107.783819 280.153973 
L 106.34189 280.681506 
L 102.738838 282.257522 
L 100.570093 282.974694 
L 99.124626 283.568893 
L 95.441778 284.936077 
L 93.235059 285.504173 
L 92.508377 285.940268 
L 91.036232 286.455805 
L 89.571165 287.127413 
L 86.692752 287.997336 
L 85.25654 288.273468 
L 83.774324 288.999901 
L 82.312524 289.411846 
L 80.843646 289.663587 
L 80.109988 290.066068 
L 79.392563 290.669176 
L 78.659757 290.965064 
L 77.914157 291.00577 
L 77.191287 290.928849 
L 75.757797 290.370025 
L 75.193255 291.06 
L 75.026331 289.493062 
L 75.026331 289.493062 
" clip-path="url(#p579900d72e)" style="fill: none; stroke: #ff0000; stroke-width: 2; stroke-linecap: square"/>
   </g>
   <g id="line2d_32">
    <path d="M 75.180653 272.334558 
L 75.180653 272.243036 
L 75.182757 272.441828 
L 75.186707 272.352878 
L 75.907489 270.522192 
L 76.663841 267.86311 
L 77.392836 267.616889 
L 78.168652 265.438605 
L 78.940112 264.04873 
L 79.736072 264.13632 
L 80.499366 264.673701 
L 81.323636 274.197742 
L 82.050997 274.410944 
L 83.585207 274.324037 
L 84.383345 274.2215 
L 86.002486 273.599402 
L 86.814779 273.636915 
L 87.619449 273.349937 
L 89.195036 271.840332 
L 89.957241 270.901984 
L 90.704202 269.545871 
L 91.440274 268.617256 
L 92.162191 268.841097 
L 92.999528 269.883347 
L 93.787321 270.021795 
L 94.526116 269.25527 
L 97.590724 264.745522 
L 98.321352 263.965241 
L 99.054158 263.389096 
L 100.532291 262.578493 
L 102.768274 262.073624 
L 107.909347 259.65666 
L 110.119741 258.409024 
L 112.362259 257.509013 
L 115.379502 256.33484 
L 116.88268 255.655846 
L 118.383135 254.702378 
L 119.886312 254.048393 
L 121.387311 253.549463 
L 122.875244 252.809509 
L 124.351744 251.904808 
L 127.305859 250.410235 
L 128.790525 249.844094 
L 133.986585 247.262852 
L 135.476152 246.68577 
L 140.655879 243.860691 
L 142.865185 242.566163 
L 158.663513 234.418857 
L 160.160701 233.555109 
L 161.655168 232.693236 
L 163.150178 231.866689 
L 166.924726 229.673087 
L 179.036164 223.216702 
L 183.496858 220.393982 
L 185.754074 218.989102 
L 192.61283 215.519416 
L 194.889101 214.188312 
L 196.399356 213.330504 
L 198.650583 211.793388 
L 202.408798 209.65887 
L 206.163202 207.501844 
L 208.42804 206.151046 
L 209.944283 205.306992 
L 212.212387 203.877416 
L 215.997824 201.447166 
L 219.0167 199.746242 
L 221.9991 197.916521 
L 225.712127 195.711353 
L 230.919076 192.404538 
L 233.904895 190.609884 
L 237.649499 188.446918 
L 239.143966 187.557536 
L 245.083176 183.537965 
L 246.556954 182.664838 
L 248.757004 181.295908 
L 251.695849 179.445868 
L 256.14386 176.510124 
L 259.887375 173.978276 
L 265.12209 170.593933 
L 270.31434 167.049533 
L 271.054767 166.438688 
L 273.277684 164.975037 
L 275.506045 163.333509 
L 278.495521 161.419383 
L 280.752193 159.968236 
L 281.504598 159.566216 
L 289.057437 154.194039 
L 291.322275 152.755709 
L 292.827085 151.703143 
L 296.578223 149.42076 
L 298.813117 147.789235 
L 304.050554 143.673379 
L 316.926919 134.591675 
L 319.920751 132.115159 
L 322.164901 130.364216 
L 324.411228 128.660479 
L 328.933825 125.253003 
L 330.456058 124.257332 
L 344.759975 113.381203 
L 347.004668 111.392362 
L 349.259706 109.708006 
L 351.530533 107.779813 
L 353.051132 106.832909 
L 357.61674 103.293198 
L 362.909709 99.156085 
L 365.140792 97.156928 
L 366.620014 96.075602 
L 370.287309 92.923218 
L 372.484093 90.992523 
L 376.913049 87.230545 
L 378.402615 86.183606 
L 379.895448 84.905021 
L 382.874036 82.523852 
L 390.267425 76.093101 
L 393.230225 73.313976 
L 399.244362 68.139263 
L 407.498498 60.873524 
L 408.975543 59.263598 
L 410.45422 57.832927 
L 415.63667 52.620729 
L 419.38073 48.270649 
L 423.125879 44.006927 
L 426.831828 40.551622 
L 427.585867 40.14762 
L 429.082511 39.623643 
L 429.8096 39.586286 
L 430.532878 40.208384 
L 431.25289 40.662532 
L 431.817806 39.46 
L 432.144091 40.741467 
L 431.992364 46.129138 
L 431.980523 51.481942 
L 431.980285 71.78788 
L 431.97154 71.739425 
L 431.252719 71.992016 
L 430.538356 73.805012 
L 429.799426 75.297502 
L 428.31612 75.2155 
L 426.835537 75.98734 
L 426.105726 76.397644 
L 425.391975 76.469897 
L 423.914659 77.217724 
L 423.178042 79.12341 
L 422.453675 80.319465 
L 421.702086 81.317324 
L 420.95567 82.115541 
L 420.209798 83.301905 
L 417.98552 83.794211 
L 415.761107 85.449904 
L 415.040687 87.737133 
L 414.313462 89.011654 
L 412.839275 89.901193 
L 412.108103 90.152221 
L 410.6331 91.440341 
L 409.182053 93.343682 
L 405.540618 96.87886 
L 404.821695 97.723695 
L 404.102773 98.386121 
L 403.371873 98.717646 
L 401.872847 99.747489 
L 400.411319 101.429657 
L 399.67688 102.510671 
L 398.934955 103.252657 
L 396.719933 104.843541 
L 395.258541 106.461936 
L 393.032766 108.675858 
L 385.78093 115.019077 
L 385.034513 115.84031 
L 381.38202 118.742702 
L 379.190817 121.150287 
L 376.984778 122.716709 
L 375.509366 123.972317 
L 374.037222 125.432374 
L 373.322655 125.935367 
L 371.876915 126.716351 
L 371.162076 127.294684 
L 369.680948 128.826329 
L 367.498864 130.671212 
L 366.044788 131.751268 
L 365.322054 132.463087 
L 364.604765 132.937945 
L 360.93992 136.097285 
L 358.761936 137.469028 
L 355.803628 140.358505 
L 355.086883 140.940902 
L 352.933109 142.211398 
L 350.747214 144.09442 
L 345.552396 148.311962 
L 343.316413 149.856346 
L 339.617541 152.67611 
L 338.163635 153.843718 
L 337.431646 154.325766 
L 336.713812 154.98319 
L 334.487357 156.588963 
L 333.768978 157.192305 
L 330.107383 159.621978 
L 328.665591 160.781614 
L 327.183782 161.993613 
L 322.726652 164.93428 
L 322.010724 165.55294 
L 319.844429 166.98533 
L 317.636212 168.641238 
L 316.202994 169.528198 
L 314.742011 170.368813 
L 311.838554 172.722765 
L 310.357971 173.663104 
L 309.613732 174.111703 
L 307.407148 175.849359 
L 305.176202 177.11118 
L 302.20333 179.327915 
L 298.552368 181.560984 
L 292.698344 185.431624 
L 289.091753 187.577318 
L 286.867476 189.218065 
L 284.661437 190.56011 
L 283.942786 190.910314 
L 281.746003 192.287294 
L 280.292505 193.0428 
L 277.392043 194.925274 
L 276.658182 195.479272 
L 275.168888 196.300349 
L 270.790837 199.042273 
L 269.329581 199.92384 
L 266.421224 201.765049 
L 264.971402 202.605508 
L 264.239276 203.206036 
L 260.595528 205.131182 
L 259.13565 206.21816 
L 258.393862 206.770155 
L 251.796433 210.448197 
L 250.347154 211.328592 
L 247.443425 212.753441 
L 245.956037 213.883847 
L 244.50077 214.670693 
L 243.762792 215.044734 
L 243.033253 215.25055 
L 242.290784 215.633891 
L 240.834325 216.624663 
L 240.093625 216.894721 
L 239.374975 217.299085 
L 238.64843 217.54048 
L 237.189624 218.438694 
L 236.44593 218.989595 
L 232.081218 221.375219 
L 228.435972 223.607819 
L 225.512371 224.883786 
L 222.575875 226.650125 
L 219.661529 228.074074 
L 218.199185 229.117731 
L 217.479717 229.455196 
L 216.0171 229.965614 
L 213.086286 231.880913 
L 210.887597 232.586713 
L 209.41028 233.539791 
L 208.670669 234.055289 
L 207.21513 234.641554 
L 206.488857 234.925484 
L 205.017538 235.881671 
L 202.808913 237.203005 
L 200.646973 238.122203 
L 196.972736 240.175676 
L 195.50032 240.745803 
L 192.574813 242.460717 
L 191.855618 242.825692 
L 191.12989 243.040955 
L 182.381402 247.105074 
L 180.919737 247.730875 
L 179.472365 248.683249 
L 178.728943 249.141695 
L 175.816231 250.358617 
L 173.619447 251.609692 
L 172.899435 251.94028 
L 171.458051 252.382099 
L 168.574977 253.945254 
L 159.774639 258.06408 
L 158.306034 258.505596 
L 156.831711 259.254303 
L 156.087473 259.589267 
L 155.341873 260.06225 
L 153.868367 260.830416 
L 153.126578 261.222901 
L 150.936728 261.9408 
L 149.481188 262.552036 
L 148.001694 263.462206 
L 145.122469 264.575224 
L 142.907447 265.717197 
L 142.162391 266.074904 
L 140.716107 266.50035 
L 137.766646 267.967362 
L 136.282524 268.425613 
L 135.54686 268.838652 
L 134.810107 269.078504 
L 133.322897 269.892718 
L 131.13183 270.684507 
L 128.950018 271.690885 
L 126.04275 272.790147 
L 125.294428 273.097602 
L 124.548556 273.540652 
L 123.109894 273.988508 
L 122.387977 274.164968 
L 120.92781 274.913558 
L 119.432528 275.605721 
L 118.715783 275.942248 
L 117.271676 276.39368 
L 112.915636 278.2892 
L 109.270391 279.422733 
L 107.783819 280.153973 
L 106.34189 280.681506 
L 102.738838 282.257522 
L 100.570093 282.974694 
L 99.124626 283.568893 
L 95.441778 284.936077 
L 93.235059 285.504173 
L 92.508377 285.940268 
L 91.036232 286.455805 
L 89.571165 287.127413 
L 86.692752 287.997336 
L 85.25654 288.273468 
L 83.774324 288.999901 
L 82.312524 289.411846 
L 80.843646 289.663587 
L 80.109988 290.066068 
L 79.392563 290.669176 
L 78.659757 290.965064 
L 77.914157 291.00577 
L 77.191287 290.928849 
L 75.757797 290.370025 
L 75.193255 291.06 
L 75.026331 289.493062 
L 75.026331 289.493062 
" clip-path="url(#p579900d72e)" style="fill: none; stroke: #000000; stroke-width: 2; stroke-linecap: square"/>
   </g>
   <g id="patch_3">
    <path d="M 57.17 303.64 
L 57.17 26.88 
" style="fill: none; stroke: #000000; stroke-width: 0.8; stroke-linejoin: miter; stroke-linecap: square"/>
   </g>
   <g id="patch_4">
    <path d="M 450 303.64 
L 450 26.88 
" style="fill: none; stroke: #000000; stroke-width: 0.8; stroke-linejoin: miter; stroke-linecap: square"/>
   </g>
   <g id="patch_5">
    <path d="M 57.17 303.64 
L 450 303.64 
" style="fill: none; stroke: #000000; stroke-width: 0.8; stroke-linejoin: miter; stroke-linecap: square"/>
   </g>
   <g id="patch_6">
    <path d="M 57.17 26.88 
L 450 26.88 
" style="fill: none; stroke: #000000; stroke-width: 0.8; stroke-linejoin: miter; stroke-linecap: square"/>
   </g>
   <g id="text_18">
    <!-- 2025-07-02 Trial 19 - Stress vs Strain -->
    <g transform="translate(142.330938 20.88) scale(0.12 -0.12)">
     <defs>
      <path id="DejaVuSans-54" d="M -19 4666 
L 3928 4666 
L 3928 4134 
L 2272 4134 
L 2272 0 
L 1638 0 
L 1638 4134 
L -19 4134 
L -19 4666 
z
" transform="scale(0.015625)"/>
      <path id="DejaVuSans-6c" d="M 603 4863 
L 1178 4863 
L 1178 0 
L 603 0 
L 603 4863 
z
" transform="scale(0.015625)"/>
      <path id="DejaVuSans-39" d="M 703 97 
L 703 672 
Q 941 559 1184 500 
Q 1428 441 1663 441 
Q 2288 441 2617 861 
Q 2947 1281 2994 2138 
Q 2813 1869 2534 1725 
Q 2256 1581 1919 1581 
Q 1219 1581 811 2004 
Q 403 2428 403 3163 
Q 403 3881 828 4315 
Q 1253 4750 1959 4750 
Q 2769 4750 3195 4129 
Q 3622 3509 3622 2328 
Q 3622 1225 3098 567 
Q 2575 -91 1691 -91 
Q 1453 -91 1209 -44 
Q 966 3 703 97 
z
M 1959 2075 
Q 2384 2075 2632 2365 
Q 2881 2656 2881 3163 
Q 2881 3666 2632 3958 
Q 2384 4250 1959 4250 
Q 1534 4250 1286 3958 
Q 1038 3666 1038 3163 
Q 1038 2656 1286 2365 
Q 1534 2075 1959 2075 
z
" transform="scale(0.015625)"/>
      <path id="DejaVuSans-76" d="M 191 3500 
L 800 3500 
L 1894 563 
L 2988 3500 
L 3597 3500 
L 2284 0 
L 1503 0 
L 191 3500 
z
" transform="scale(0.015625)"/>
     </defs>
     <use xlink:href="#DejaVuSans-32"/>
     <use xlink:href="#DejaVuSans-30" transform="translate(63.623047 0)"/>
     <use xlink:href="#DejaVuSans-32" transform="translate(127.246094 0)"/>
     <use xlink:href="#DejaVuSans-35" transform="translate(190.869141 0)"/>
     <use xlink:href="#DejaVuSans-2d" transform="translate(254.492188 0)"/>
     <use xlink:href="#DejaVuSans-30" transform="translate(290.576172 0)"/>
     <use xlink:href="#DejaVuSans-37" transform="translate(354.199219 0)"/>
     <use xlink:href="#DejaVuSans-2d" transform="translate(417.822266 0)"/>
     <use xlink:href="#DejaVuSans-30" transform="translate(453.90625 0)"/>
     <use xlink:href="#DejaVuSans-32" transform="translate(517.529297 0)"/>
     <use xlink:href="#DejaVuSans-20" transform="translate(581.152344 0)"/>
     <use xlink:href="#DejaVuSans-54" transform="translate(612.939453 0)"/>
     <use xlink:href="#DejaVuSans-72" transform="translate(659.273438 0)"/>
     <use xlink:href="#DejaVuSans-69" transform="translate(700.386719 0)"/>
     <use xlink:href="#DejaVuSans-61" transform="translate(728.169922 0)"/>
     <use xlink:href="#DejaVuSans-6c" transform="translate(789.449219 0)"/>
     <use xlink:href="#DejaVuSans-20" transform="translate(817.232422 0)"/>
     <use xlink:href="#DejaVuSans-31" transform="translate(849.019531 0)"/>
     <use xlink:href="#DejaVuSans-39" transform="translate(912.642578 0)"/>
     <use xlink:href="#DejaVuSans-20" transform="translate(976.265625 0)"/>
     <use xlink:href="#DejaVuSans-2d" transform="translate(1008.052734 0)"/>
     <use xlink:href="#DejaVuSans-20" transform="translate(1044.136719 0)"/>
     <use xlink:href="#DejaVuSans-53" transform="translate(1075.923828 0)"/>
     <use xlink:href="#DejaVuSans-74" transform="translate(1139.400391 0)"/>
     <use xlink:href="#DejaVuSans-72" transform="translate(1178.609375 0)"/>
     <use xlink:href="#DejaVuSans-65" transform="translate(1217.472656 0)"/>
     <use xlink:href="#DejaVuSans-73" transform="translate(1278.996094 0)"/>
     <use xlink:href="#DejaVuSans-73" transform="translate(1331.095703 0)"/>
     <use xlink:href="#DejaVuSans-20" transform="translate(1383.195312 0)"/>
     <use xlink:href="#DejaVuSans-76" transform="translate(1414.982422 0)"/>
     <use xlink:href="#DejaVuSans-73" transform="translate(1474.162109 0)"/>
     <use xlink:href="#DejaVuSans-20" transform="translate(1526.261719 0)"/>
     <use xlink:href="#DejaVuSans-53" transform="translate(1558.048828 0)"/>
     <use xlink:href="#DejaVuSans-74" transform="translate(1621.525391 0)"/>
     <use xlink:href="#DejaVuSans-72" transform="translate(1660.734375 0)"/>
     <use xlink:href="#DejaVuSans-61" transform="translate(1701.847656 0)"/>
     <use xlink:href="#DejaVuSans-69" transform="translate(1763.126953 0)"/>
     <use xlink:href="#DejaVuSans-6e" transform="translate(1790.910156 0)"/>
    </g>
   </g>
   <g id="legend_1">
    <g id="patch_7">
     <path d="M 64.17 64.23625 
L 170.154375 64.23625 
Q 172.154375 64.23625 172.154375 62.23625 
L 172.154375 33.88 
Q 172.154375 31.88 170.154375 31.88 
L 64.17 31.88 
Q 62.17 31.88 62.17 33.88 
L 62.17 62.23625 
Q 62.17 64.23625 64.17 64.23625 
z
" style="fill: #ffffff; opacity: 0.8; stroke: #cccccc; stroke-linejoin: miter"/>
    </g>
    <g id="line2d_33">
     <path d="M 66.17 39.978437 
L 76.17 39.978437 
L 86.17 39.978437 
" style="fill: none; stroke: #ff0000; stroke-width: 2; stroke-linecap: square"/>
    </g>
    <g id="text_19">
     <!-- Raw Force -->
     <g transform="translate(94.17 43.478437) scale(0.1 -0.1)">
      <defs>
       <path id="DejaVuSans-52" d="M 2841 2188 
Q 3044 2119 3236 1894 
Q 3428 1669 3622 1275 
L 4263 0 
L 3584 0 
L 2988 1197 
Q 2756 1666 2539 1819 
Q 2322 1972 1947 1972 
L 1259 1972 
L 1259 0 
L 628 0 
L 628 4666 
L 2053 4666 
Q 2853 4666 3247 4331 
Q 3641 3997 3641 3322 
Q 3641 2881 3436 2590 
Q 3231 2300 2841 2188 
z
M 1259 4147 
L 1259 2491 
L 2053 2491 
Q 2509 2491 2742 2702 
Q 2975 2913 2975 3322 
Q 2975 3731 2742 3939 
Q 2509 4147 2053 4147 
L 1259 4147 
z
" transform="scale(0.015625)"/>
       <path id="DejaVuSans-77" d="M 269 3500 
L 844 3500 
L 1563 769 
L 2278 3500 
L 2956 3500 
L 3675 769 
L 4391 3500 
L 4966 3500 
L 4050 0 
L 3372 0 
L 2619 2869 
L 1863 0 
L 1184 0 
L 269 3500 
z
" transform="scale(0.015625)"/>
       <path id="DejaVuSans-46" d="M 628 4666 
L 3309 4666 
L 3309 4134 
L 1259 4134 
L 1259 2759 
L 3109 2759 
L 3109 2228 
L 1259 2228 
L 1259 0 
L 628 0 
L 628 4666 
z
" transform="scale(0.015625)"/>
       <path id="DejaVuSans-6f" d="M 1959 3097 
Q 1497 3097 1228 2736 
Q 959 2375 959 1747 
Q 959 1119 1226 758 
Q 1494 397 1959 397 
Q 2419 397 2687 759 
Q 2956 1122 2956 1747 
Q 2956 2369 2687 2733 
Q 2419 3097 1959 3097 
z
M 1959 3584 
Q 2709 3584 3137 3096 
Q 3566 2609 3566 1747 
Q 3566 888 3137 398 
Q 2709 -91 1959 -91 
Q 1206 -91 779 398 
Q 353 888 353 1747 
Q 353 2609 779 3096 
Q 1206 3584 1959 3584 
z
" transform="scale(0.015625)"/>
       <path id="DejaVuSans-63" d="M 3122 3366 
L 3122 2828 
Q 2878 2963 2633 3030 
Q 2388 3097 2138 3097 
Q 1578 3097 1268 2742 
Q 959 2388 959 1747 
Q 959 1106 1268 751 
Q 1578 397 2138 397 
Q 2388 397 2633 464 
Q 2878 531 3122 666 
L 3122 134 
Q 2881 22 2623 -34 
Q 2366 -91 2075 -91 
Q 1284 -91 818 406 
Q 353 903 353 1747 
Q 353 2603 823 3093 
Q 1294 3584 2113 3584 
Q 2378 3584 2631 3529 
Q 2884 3475 3122 3366 
z
" transform="scale(0.015625)"/>
      </defs>
      <use xlink:href="#DejaVuSans-52"/>
      <use xlink:href="#DejaVuSans-61" transform="translate(67.232422 0)"/>
      <use xlink:href="#DejaVuSans-77" transform="translate(128.511719 0)"/>
      <use xlink:href="#DejaVuSans-20" transform="translate(210.298828 0)"/>
      <use xlink:href="#DejaVuSans-46" transform="translate(242.085938 0)"/>
      <use xlink:href="#DejaVuSans-6f" transform="translate(295.980469 0)"/>
      <use xlink:href="#DejaVuSans-72" transform="translate(357.162109 0)"/>
      <use xlink:href="#DejaVuSans-63" transform="translate(396.025391 0)"/>
      <use xlink:href="#DejaVuSans-65" transform="translate(451.005859 0)"/>
     </g>
    </g>
    <g id="line2d_34">
     <path d="M 66.17 54.656563 
L 76.17 54.656563 
L 86.17 54.656563 
" style="fill: none; stroke: #000000; stroke-width: 2; stroke-linecap: square"/>
    </g>
    <g id="text_20">
     <!-- Adjusted Force -->
     <g transform="translate(94.17 58.156563) scale(0.1 -0.1)">
      <defs>
       <path id="DejaVuSans-41" d="M 2188 4044 
L 1331 1722 
L 3047 1722 
L 2188 4044 
z
M 1831 4666 
L 2547 4666 
L 4325 0 
L 3669 0 
L 3244 1197 
L 1141 1197 
L 716 0 
L 50 0 
L 1831 4666 
z
" transform="scale(0.015625)"/>
       <path id="DejaVuSans-64" d="M 2906 2969 
L 2906 4863 
L 3481 4863 
L 3481 0 
L 2906 0 
L 2906 525 
Q 2725 213 2448 61 
Q 2172 -91 1784 -91 
Q 1150 -91 751 415 
Q 353 922 353 1747 
Q 353 2572 751 3078 
Q 1150 3584 1784 3584 
Q 2172 3584 2448 3432 
Q 2725 3281 2906 2969 
z
M 947 1747 
Q 947 1113 1208 752 
Q 1469 391 1925 391 
Q 2381 391 2643 752 
Q 2906 1113 2906 1747 
Q 2906 2381 2643 2742 
Q 2381 3103 1925 3103 
Q 1469 3103 1208 2742 
Q 947 2381 947 1747 
z
" transform="scale(0.015625)"/>
       <path id="DejaVuSans-6a" d="M 603 3500 
L 1178 3500 
L 1178 -63 
Q 1178 -731 923 -1031 
Q 669 -1331 103 -1331 
L -116 -1331 
L -116 -844 
L 38 -844 
Q 366 -844 484 -692 
Q 603 -541 603 -63 
L 603 3500 
z
M 603 4863 
L 1178 4863 
L 1178 4134 
L 603 4134 
L 603 4863 
z
" transform="scale(0.015625)"/>
       <path id="DejaVuSans-75" d="M 544 1381 
L 544 3500 
L 1119 3500 
L 1119 1403 
Q 1119 906 1312 657 
Q 1506 409 1894 409 
Q 2359 409 2629 706 
Q 2900 1003 2900 1516 
L 2900 3500 
L 3475 3500 
L 3475 0 
L 2900 0 
L 2900 538 
Q 2691 219 2414 64 
Q 2138 -91 1772 -91 
Q 1169 -91 856 284 
Q 544 659 544 1381 
z
M 1991 3584 
L 1991 3584 
z
" transform="scale(0.015625)"/>
      </defs>
      <use xlink:href="#DejaVuSans-41"/>
      <use xlink:href="#DejaVuSans-64" transform="translate(66.658203 0)"/>
      <use xlink:href="#DejaVuSans-6a" transform="translate(130.134766 0)"/>
      <use xlink:href="#DejaVuSans-75" transform="translate(157.917969 0)"/>
      <use xlink:href="#DejaVuSans-73" transform="translate(221.296875 0)"/>
      <use xlink:href="#DejaVuSans-74" transform="translate(273.396484 0)"/>
      <use xlink:href="#DejaVuSans-65" transform="translate(312.605469 0)"/>
      <use xlink:href="#DejaVuSans-64" transform="translate(374.128906 0)"/>
      <use xlink:href="#DejaVuSans-20" transform="translate(437.605469 0)"/>
      <use xlink:href="#DejaVuSans-46" transform="translate(469.392578 0)"/>
      <use xlink:href="#DejaVuSans-6f" transform="translate(523.287109 0)"/>
      <use xlink:href="#DejaVuSans-72" transform="translate(584.46875 0)"/>
      <use xlink:href="#DejaVuSans-63" transform="translate(623.332031 0)"/>
      <use xlink:href="#DejaVuSans-65" transform="translate(678.3125 0)"/>
     </g>
    </g>
   </g>
  </g>
 </g>
 <defs>
  <clipPath id="p579900d72e">
   <rect x="57.17" y="26.88" width="392.83" height="276.76"/>
  </clipPath>
 </defs>
</svg>
