<?xml version="1.0" encoding="utf-8" standalone="no"?>
<!DOCTYPE svg PUBLIC "-//W3C//DTD SVG 1.1//EN"
  "http://www.w3.org/Graphics/SVG/1.1/DTD/svg11.dtd">
<svg xmlns:xlink="http://www.w3.org/1999/xlink" width="460.8pt" height="345.6pt" viewBox="0 0 460.8 345.6" xmlns="http://www.w3.org/2000/svg" version="1.1">
 <metadata>
  <rdf:RDF xmlns:dc="http://purl.org/dc/elements/1.1/" xmlns:cc="http://creativecommons.org/ns#" xmlns:rdf="http://www.w3.org/1999/02/22-rdf-syntax-ns#">
   <cc:Work>
    <dc:type rdf:resource="http://purl.org/dc/dcmitype/StillImage"/>
    <dc:date>2025-07-28T21:15:04.482174</dc:date>
    <dc:format>image/svg+xml</dc:format>
    <dc:creator>
     <cc:Agent>
      <dc:title>Matplotlib v3.10.3, https://matplotlib.org/</dc:title>
     </cc:Agent>
    </dc:creator>
   </cc:Work>
  </rdf:RDF>
 </metadata>
 <defs>
  <style type="text/css">*{stroke-linejoin: round; stroke-linecap: butt}</style>
 </defs>
 <g id="figure_1">
  <g id="patch_1">
   <path d="M 0 345.6 
L 460.8 345.6 
L 460.8 0 
L 0 0 
z
" style="fill: #ffffff"/>
  </g>
  <g id="axes_1">
   <g id="patch_2">
    <path d="M 57.17 303.64 
L 450 303.64 
L 450 26.88 
L 57.17 26.88 
z
" style="fill: #ffffff"/>
   </g>
   <g id="matplotlib.axis_1">
    <g id="xtick_1">
     <g id="line2d_1">
      <path d="M 75.136252 303.64 
L 75.136252 26.88 
" clip-path="url(#pf15e9f697b)" style="fill: none; stroke: #b0b0b0; stroke-opacity: 0.3; stroke-width: 0.8; stroke-linecap: square"/>
     </g>
     <g id="line2d_2">
      <defs>
       <path id="m7e5ecd4a17" d="M 0 0 
L 0 3.5 
" style="stroke: #000000; stroke-width: 0.8"/>
      </defs>
      <g>
       <use xlink:href="#m7e5ecd4a17" x="75.136252" y="303.64" style="stroke: #000000; stroke-width: 0.8"/>
      </g>
     </g>
     <g id="text_1">
      <!-- 0.00 -->
      <g transform="translate(64.003439 318.238437) scale(0.1 -0.1)">
       <defs>
        <path id="DejaVuSans-30" d="M 2034 4250 
Q 1547 4250 1301 3770 
Q 1056 3291 1056 2328 
Q 1056 1369 1301 889 
Q 1547 409 2034 409 
Q 2525 409 2770 889 
Q 3016 1369 3016 2328 
Q 3016 3291 2770 3770 
Q 2525 4250 2034 4250 
z
M 2034 4750 
Q 2819 4750 3233 4129 
Q 3647 3509 3647 2328 
Q 3647 1150 3233 529 
Q 2819 -91 2034 -91 
Q 1250 -91 836 529 
Q 422 1150 422 2328 
Q 422 3509 836 4129 
Q 1250 4750 2034 4750 
z
" transform="scale(0.015625)"/>
        <path id="DejaVuSans-2e" d="M 684 794 
L 1344 794 
L 1344 0 
L 684 0 
L 684 794 
z
" transform="scale(0.015625)"/>
       </defs>
       <use xlink:href="#DejaVuSans-30"/>
       <use xlink:href="#DejaVuSans-2e" transform="translate(63.623047 0)"/>
       <use xlink:href="#DejaVuSans-30" transform="translate(95.410156 0)"/>
       <use xlink:href="#DejaVuSans-30" transform="translate(159.033203 0)"/>
      </g>
     </g>
    </g>
    <g id="xtick_2">
     <g id="line2d_3">
      <path d="M 146.503187 303.64 
L 146.503187 26.88 
" clip-path="url(#pf15e9f697b)" style="fill: none; stroke: #b0b0b0; stroke-opacity: 0.3; stroke-width: 0.8; stroke-linecap: square"/>
     </g>
     <g id="line2d_4">
      <g>
       <use xlink:href="#m7e5ecd4a17" x="146.503187" y="303.64" style="stroke: #000000; stroke-width: 0.8"/>
      </g>
     </g>
     <g id="text_2">
      <!-- 0.05 -->
      <g transform="translate(135.370374 318.238437) scale(0.1 -0.1)">
       <defs>
        <path id="DejaVuSans-35" d="M 691 4666 
L 3169 4666 
L 3169 4134 
L 1269 4134 
L 1269 2991 
Q 1406 3038 1543 3061 
Q 1681 3084 1819 3084 
Q 2600 3084 3056 2656 
Q 3513 2228 3513 1497 
Q 3513 744 3044 326 
Q 2575 -91 1722 -91 
Q 1428 -91 1123 -41 
Q 819 9 494 109 
L 494 744 
Q 775 591 1075 516 
Q 1375 441 1709 441 
Q 2250 441 2565 725 
Q 2881 1009 2881 1497 
Q 2881 1984 2565 2268 
Q 2250 2553 1709 2553 
Q 1456 2553 1204 2497 
Q 953 2441 691 2322 
L 691 4666 
z
" transform="scale(0.015625)"/>
       </defs>
       <use xlink:href="#DejaVuSans-30"/>
       <use xlink:href="#DejaVuSans-2e" transform="translate(63.623047 0)"/>
       <use xlink:href="#DejaVuSans-30" transform="translate(95.410156 0)"/>
       <use xlink:href="#DejaVuSans-35" transform="translate(159.033203 0)"/>
      </g>
     </g>
    </g>
    <g id="xtick_3">
     <g id="line2d_5">
      <path d="M 217.870121 303.64 
L 217.870121 26.88 
" clip-path="url(#pf15e9f697b)" style="fill: none; stroke: #b0b0b0; stroke-opacity: 0.3; stroke-width: 0.8; stroke-linecap: square"/>
     </g>
     <g id="line2d_6">
      <g>
       <use xlink:href="#m7e5ecd4a17" x="217.870121" y="303.64" style="stroke: #000000; stroke-width: 0.8"/>
      </g>
     </g>
     <g id="text_3">
      <!-- 0.10 -->
      <g transform="translate(206.737309 318.238437) scale(0.1 -0.1)">
       <defs>
        <path id="DejaVuSans-31" d="M 794 531 
L 1825 531 
L 1825 4091 
L 703 3866 
L 703 4441 
L 1819 4666 
L 2450 4666 
L 2450 531 
L 3481 531 
L 3481 0 
L 794 0 
L 794 531 
z
" transform="scale(0.015625)"/>
       </defs>
       <use xlink:href="#DejaVuSans-30"/>
       <use xlink:href="#DejaVuSans-2e" transform="translate(63.623047 0)"/>
       <use xlink:href="#DejaVuSans-31" transform="translate(95.410156 0)"/>
       <use xlink:href="#DejaVuSans-30" transform="translate(159.033203 0)"/>
      </g>
     </g>
    </g>
    <g id="xtick_4">
     <g id="line2d_7">
      <path d="M 289.237056 303.64 
L 289.237056 26.88 
" clip-path="url(#pf15e9f697b)" style="fill: none; stroke: #b0b0b0; stroke-opacity: 0.3; stroke-width: 0.8; stroke-linecap: square"/>
     </g>
     <g id="line2d_8">
      <g>
       <use xlink:href="#m7e5ecd4a17" x="289.237056" y="303.64" style="stroke: #000000; stroke-width: 0.8"/>
      </g>
     </g>
     <g id="text_4">
      <!-- 0.15 -->
      <g transform="translate(278.104243 318.238437) scale(0.1 -0.1)">
       <use xlink:href="#DejaVuSans-30"/>
       <use xlink:href="#DejaVuSans-2e" transform="translate(63.623047 0)"/>
       <use xlink:href="#DejaVuSans-31" transform="translate(95.410156 0)"/>
       <use xlink:href="#DejaVuSans-35" transform="translate(159.033203 0)"/>
      </g>
     </g>
    </g>
    <g id="xtick_5">
     <g id="line2d_9">
      <path d="M 360.60399 303.64 
L 360.60399 26.88 
" clip-path="url(#pf15e9f697b)" style="fill: none; stroke: #b0b0b0; stroke-opacity: 0.3; stroke-width: 0.8; stroke-linecap: square"/>
     </g>
     <g id="line2d_10">
      <g>
       <use xlink:href="#m7e5ecd4a17" x="360.60399" y="303.64" style="stroke: #000000; stroke-width: 0.8"/>
      </g>
     </g>
     <g id="text_5">
      <!-- 0.20 -->
      <g transform="translate(349.471178 318.238437) scale(0.1 -0.1)">
       <defs>
        <path id="DejaVuSans-32" d="M 1228 531 
L 3431 531 
L 3431 0 
L 469 0 
L 469 531 
Q 828 903 1448 1529 
Q 2069 2156 2228 2338 
Q 2531 2678 2651 2914 
Q 2772 3150 2772 3378 
Q 2772 3750 2511 3984 
Q 2250 4219 1831 4219 
Q 1534 4219 1204 4116 
Q 875 4013 500 3803 
L 500 4441 
Q 881 4594 1212 4672 
Q 1544 4750 1819 4750 
Q 2544 4750 2975 4387 
Q 3406 4025 3406 3419 
Q 3406 3131 3298 2873 
Q 3191 2616 2906 2266 
Q 2828 2175 2409 1742 
Q 1991 1309 1228 531 
z
" transform="scale(0.015625)"/>
       </defs>
       <use xlink:href="#DejaVuSans-30"/>
       <use xlink:href="#DejaVuSans-2e" transform="translate(63.623047 0)"/>
       <use xlink:href="#DejaVuSans-32" transform="translate(95.410156 0)"/>
       <use xlink:href="#DejaVuSans-30" transform="translate(159.033203 0)"/>
      </g>
     </g>
    </g>
    <g id="xtick_6">
     <g id="line2d_11">
      <path d="M 431.970925 303.64 
L 431.970925 26.88 
" clip-path="url(#pf15e9f697b)" style="fill: none; stroke: #b0b0b0; stroke-opacity: 0.3; stroke-width: 0.8; stroke-linecap: square"/>
     </g>
     <g id="line2d_12">
      <g>
       <use xlink:href="#m7e5ecd4a17" x="431.970925" y="303.64" style="stroke: #000000; stroke-width: 0.8"/>
      </g>
     </g>
     <g id="text_6">
      <!-- 0.25 -->
      <g transform="translate(420.838112 318.238437) scale(0.1 -0.1)">
       <use xlink:href="#DejaVuSans-30"/>
       <use xlink:href="#DejaVuSans-2e" transform="translate(63.623047 0)"/>
       <use xlink:href="#DejaVuSans-32" transform="translate(95.410156 0)"/>
       <use xlink:href="#DejaVuSans-35" transform="translate(159.033203 0)"/>
      </g>
     </g>
    </g>
    <g id="text_7">
     <!-- Strain [-] -->
     <g transform="translate(231.47875 331.916562) scale(0.1 -0.1)">
      <defs>
       <path id="DejaVuSans-53" d="M 3425 4513 
L 3425 3897 
Q 3066 4069 2747 4153 
Q 2428 4238 2131 4238 
Q 1616 4238 1336 4038 
Q 1056 3838 1056 3469 
Q 1056 3159 1242 3001 
Q 1428 2844 1947 2747 
L 2328 2669 
Q 3034 2534 3370 2195 
Q 3706 1856 3706 1288 
Q 3706 609 3251 259 
Q 2797 -91 1919 -91 
Q 1588 -91 1214 -16 
Q 841 59 441 206 
L 441 856 
Q 825 641 1194 531 
Q 1563 422 1919 422 
Q 2459 422 2753 634 
Q 3047 847 3047 1241 
Q 3047 1584 2836 1778 
Q 2625 1972 2144 2069 
L 1759 2144 
Q 1053 2284 737 2584 
Q 422 2884 422 3419 
Q 422 4038 858 4394 
Q 1294 4750 2059 4750 
Q 2388 4750 2728 4690 
Q 3069 4631 3425 4513 
z
" transform="scale(0.015625)"/>
       <path id="DejaVuSans-74" d="M 1172 4494 
L 1172 3500 
L 2356 3500 
L 2356 3053 
L 1172 3053 
L 1172 1153 
Q 1172 725 1289 603 
Q 1406 481 1766 481 
L 2356 481 
L 2356 0 
L 1766 0 
Q 1100 0 847 248 
Q 594 497 594 1153 
L 594 3053 
L 172 3053 
L 172 3500 
L 594 3500 
L 594 4494 
L 1172 4494 
z
" transform="scale(0.015625)"/>
       <path id="DejaVuSans-72" d="M 2631 2963 
Q 2534 3019 2420 3045 
Q 2306 3072 2169 3072 
Q 1681 3072 1420 2755 
Q 1159 2438 1159 1844 
L 1159 0 
L 581 0 
L 581 3500 
L 1159 3500 
L 1159 2956 
Q 1341 3275 1631 3429 
Q 1922 3584 2338 3584 
Q 2397 3584 2469 3576 
Q 2541 3569 2628 3553 
L 2631 2963 
z
" transform="scale(0.015625)"/>
       <path id="DejaVuSans-61" d="M 2194 1759 
Q 1497 1759 1228 1600 
Q 959 1441 959 1056 
Q 959 750 1161 570 
Q 1363 391 1709 391 
Q 2188 391 2477 730 
Q 2766 1069 2766 1631 
L 2766 1759 
L 2194 1759 
z
M 3341 1997 
L 3341 0 
L 2766 0 
L 2766 531 
Q 2569 213 2275 61 
Q 1981 -91 1556 -91 
Q 1019 -91 701 211 
Q 384 513 384 1019 
Q 384 1609 779 1909 
Q 1175 2209 1959 2209 
L 2766 2209 
L 2766 2266 
Q 2766 2663 2505 2880 
Q 2244 3097 1772 3097 
Q 1472 3097 1187 3025 
Q 903 2953 641 2809 
L 641 3341 
Q 956 3463 1253 3523 
Q 1550 3584 1831 3584 
Q 2591 3584 2966 3190 
Q 3341 2797 3341 1997 
z
" transform="scale(0.015625)"/>
       <path id="DejaVuSans-69" d="M 603 3500 
L 1178 3500 
L 1178 0 
L 603 0 
L 603 3500 
z
M 603 4863 
L 1178 4863 
L 1178 4134 
L 603 4134 
L 603 4863 
z
" transform="scale(0.015625)"/>
       <path id="DejaVuSans-6e" d="M 3513 2113 
L 3513 0 
L 2938 0 
L 2938 2094 
Q 2938 2591 2744 2837 
Q 2550 3084 2163 3084 
Q 1697 3084 1428 2787 
Q 1159 2491 1159 1978 
L 1159 0 
L 581 0 
L 581 3500 
L 1159 3500 
L 1159 2956 
Q 1366 3272 1645 3428 
Q 1925 3584 2291 3584 
Q 2894 3584 3203 3211 
Q 3513 2838 3513 2113 
z
" transform="scale(0.015625)"/>
       <path id="DejaVuSans-20" transform="scale(0.015625)"/>
       <path id="DejaVuSans-5b" d="M 550 4863 
L 1875 4863 
L 1875 4416 
L 1125 4416 
L 1125 -397 
L 1875 -397 
L 1875 -844 
L 550 -844 
L 550 4863 
z
" transform="scale(0.015625)"/>
       <path id="DejaVuSans-2d" d="M 313 2009 
L 1997 2009 
L 1997 1497 
L 313 1497 
L 313 2009 
z
" transform="scale(0.015625)"/>
       <path id="DejaVuSans-5d" d="M 1947 4863 
L 1947 -844 
L 622 -844 
L 622 -397 
L 1369 -397 
L 1369 4416 
L 622 4416 
L 622 4863 
L 1947 4863 
z
" transform="scale(0.015625)"/>
      </defs>
      <use xlink:href="#DejaVuSans-53"/>
      <use xlink:href="#DejaVuSans-74" transform="translate(63.476562 0)"/>
      <use xlink:href="#DejaVuSans-72" transform="translate(102.685547 0)"/>
      <use xlink:href="#DejaVuSans-61" transform="translate(143.798828 0)"/>
      <use xlink:href="#DejaVuSans-69" transform="translate(205.078125 0)"/>
      <use xlink:href="#DejaVuSans-6e" transform="translate(232.861328 0)"/>
      <use xlink:href="#DejaVuSans-20" transform="translate(296.240234 0)"/>
      <use xlink:href="#DejaVuSans-5b" transform="translate(328.027344 0)"/>
      <use xlink:href="#DejaVuSans-2d" transform="translate(367.041016 0)"/>
      <use xlink:href="#DejaVuSans-5d" transform="translate(403.125 0)"/>
     </g>
    </g>
   </g>
   <g id="matplotlib.axis_2">
    <g id="ytick_1">
     <g id="line2d_13">
      <path d="M 57.17 278.760957 
L 450 278.760957 
" clip-path="url(#pf15e9f697b)" style="fill: none; stroke: #b0b0b0; stroke-opacity: 0.3; stroke-width: 0.8; stroke-linecap: square"/>
     </g>
     <g id="line2d_14">
      <defs>
       <path id="mda8827d7e5" d="M 0 0 
L -3.5 0 
" style="stroke: #000000; stroke-width: 0.8"/>
      </defs>
      <g>
       <use xlink:href="#mda8827d7e5" x="57.17" y="278.760957" style="stroke: #000000; stroke-width: 0.8"/>
      </g>
     </g>
     <g id="text_8">
      <!-- 0 -->
      <g transform="translate(43.8075 282.560175) scale(0.1 -0.1)">
       <use xlink:href="#DejaVuSans-30"/>
      </g>
     </g>
    </g>
    <g id="ytick_2">
     <g id="line2d_15">
      <path d="M 57.17 232.545158 
L 450 232.545158 
" clip-path="url(#pf15e9f697b)" style="fill: none; stroke: #b0b0b0; stroke-opacity: 0.3; stroke-width: 0.8; stroke-linecap: square"/>
     </g>
     <g id="line2d_16">
      <g>
       <use xlink:href="#mda8827d7e5" x="57.17" y="232.545158" style="stroke: #000000; stroke-width: 0.8"/>
      </g>
     </g>
     <g id="text_9">
      <!-- 500 -->
      <g transform="translate(31.0825 236.344376) scale(0.1 -0.1)">
       <use xlink:href="#DejaVuSans-35"/>
       <use xlink:href="#DejaVuSans-30" transform="translate(63.623047 0)"/>
       <use xlink:href="#DejaVuSans-30" transform="translate(127.246094 0)"/>
      </g>
     </g>
    </g>
    <g id="ytick_3">
     <g id="line2d_17">
      <path d="M 57.17 186.329359 
L 450 186.329359 
" clip-path="url(#pf15e9f697b)" style="fill: none; stroke: #b0b0b0; stroke-opacity: 0.3; stroke-width: 0.8; stroke-linecap: square"/>
     </g>
     <g id="line2d_18">
      <g>
       <use xlink:href="#mda8827d7e5" x="57.17" y="186.329359" style="stroke: #000000; stroke-width: 0.8"/>
      </g>
     </g>
     <g id="text_10">
      <!-- 1000 -->
      <g transform="translate(24.72 190.128577) scale(0.1 -0.1)">
       <use xlink:href="#DejaVuSans-31"/>
       <use xlink:href="#DejaVuSans-30" transform="translate(63.623047 0)"/>
       <use xlink:href="#DejaVuSans-30" transform="translate(127.246094 0)"/>
       <use xlink:href="#DejaVuSans-30" transform="translate(190.869141 0)"/>
      </g>
     </g>
    </g>
    <g id="ytick_4">
     <g id="line2d_19">
      <path d="M 57.17 140.11356 
L 450 140.11356 
" clip-path="url(#pf15e9f697b)" style="fill: none; stroke: #b0b0b0; stroke-opacity: 0.3; stroke-width: 0.8; stroke-linecap: square"/>
     </g>
     <g id="line2d_20">
      <g>
       <use xlink:href="#mda8827d7e5" x="57.17" y="140.11356" style="stroke: #000000; stroke-width: 0.8"/>
      </g>
     </g>
     <g id="text_11">
      <!-- 1500 -->
      <g transform="translate(24.72 143.912778) scale(0.1 -0.1)">
       <use xlink:href="#DejaVuSans-31"/>
       <use xlink:href="#DejaVuSans-35" transform="translate(63.623047 0)"/>
       <use xlink:href="#DejaVuSans-30" transform="translate(127.246094 0)"/>
       <use xlink:href="#DejaVuSans-30" transform="translate(190.869141 0)"/>
      </g>
     </g>
    </g>
    <g id="ytick_5">
     <g id="line2d_21">
      <path d="M 57.17 93.89776 
L 450 93.89776 
" clip-path="url(#pf15e9f697b)" style="fill: none; stroke: #b0b0b0; stroke-opacity: 0.3; stroke-width: 0.8; stroke-linecap: square"/>
     </g>
     <g id="line2d_22">
      <g>
       <use xlink:href="#mda8827d7e5" x="57.17" y="93.89776" style="stroke: #000000; stroke-width: 0.8"/>
      </g>
     </g>
     <g id="text_12">
      <!-- 2000 -->
      <g transform="translate(24.72 97.696979) scale(0.1 -0.1)">
       <use xlink:href="#DejaVuSans-32"/>
       <use xlink:href="#DejaVuSans-30" transform="translate(63.623047 0)"/>
       <use xlink:href="#DejaVuSans-30" transform="translate(127.246094 0)"/>
       <use xlink:href="#DejaVuSans-30" transform="translate(190.869141 0)"/>
      </g>
     </g>
    </g>
    <g id="ytick_6">
     <g id="line2d_23">
      <path d="M 57.17 47.681961 
L 450 47.681961 
" clip-path="url(#pf15e9f697b)" style="fill: none; stroke: #b0b0b0; stroke-opacity: 0.3; stroke-width: 0.8; stroke-linecap: square"/>
     </g>
     <g id="line2d_24">
      <g>
       <use xlink:href="#mda8827d7e5" x="57.17" y="47.681961" style="stroke: #000000; stroke-width: 0.8"/>
      </g>
     </g>
     <g id="text_13">
      <!-- 2500 -->
      <g transform="translate(24.72 51.48118) scale(0.1 -0.1)">
       <use xlink:href="#DejaVuSans-32"/>
       <use xlink:href="#DejaVuSans-35" transform="translate(63.623047 0)"/>
       <use xlink:href="#DejaVuSans-30" transform="translate(127.246094 0)"/>
       <use xlink:href="#DejaVuSans-30" transform="translate(190.869141 0)"/>
      </g>
     </g>
    </g>
    <g id="text_14">
     <!-- Stress [Pa] -->
     <g transform="translate(18.640312 191.967812) rotate(-90) scale(0.1 -0.1)">
      <defs>
       <path id="DejaVuSans-65" d="M 3597 1894 
L 3597 1613 
L 953 1613 
Q 991 1019 1311 708 
Q 1631 397 2203 397 
Q 2534 397 2845 478 
Q 3156 559 3463 722 
L 3463 178 
Q 3153 47 2828 -22 
Q 2503 -91 2169 -91 
Q 1331 -91 842 396 
Q 353 884 353 1716 
Q 353 2575 817 3079 
Q 1281 3584 2069 3584 
Q 2775 3584 3186 3129 
Q 3597 2675 3597 1894 
z
M 3022 2063 
Q 3016 2534 2758 2815 
Q 2500 3097 2075 3097 
Q 1594 3097 1305 2825 
Q 1016 2553 972 2059 
L 3022 2063 
z
" transform="scale(0.015625)"/>
       <path id="DejaVuSans-73" d="M 2834 3397 
L 2834 2853 
Q 2591 2978 2328 3040 
Q 2066 3103 1784 3103 
Q 1356 3103 1142 2972 
Q 928 2841 928 2578 
Q 928 2378 1081 2264 
Q 1234 2150 1697 2047 
L 1894 2003 
Q 2506 1872 2764 1633 
Q 3022 1394 3022 966 
Q 3022 478 2636 193 
Q 2250 -91 1575 -91 
Q 1294 -91 989 -36 
Q 684 19 347 128 
L 347 722 
Q 666 556 975 473 
Q 1284 391 1588 391 
Q 1994 391 2212 530 
Q 2431 669 2431 922 
Q 2431 1156 2273 1281 
Q 2116 1406 1581 1522 
L 1381 1569 
Q 847 1681 609 1914 
Q 372 2147 372 2553 
Q 372 3047 722 3315 
Q 1072 3584 1716 3584 
Q 2034 3584 2315 3537 
Q 2597 3491 2834 3397 
z
" transform="scale(0.015625)"/>
       <path id="DejaVuSans-50" d="M 1259 4147 
L 1259 2394 
L 2053 2394 
Q 2494 2394 2734 2622 
Q 2975 2850 2975 3272 
Q 2975 3691 2734 3919 
Q 2494 4147 2053 4147 
L 1259 4147 
z
M 628 4666 
L 2053 4666 
Q 2838 4666 3239 4311 
Q 3641 3956 3641 3272 
Q 3641 2581 3239 2228 
Q 2838 1875 2053 1875 
L 1259 1875 
L 1259 0 
L 628 0 
L 628 4666 
z
" transform="scale(0.015625)"/>
      </defs>
      <use xlink:href="#DejaVuSans-53"/>
      <use xlink:href="#DejaVuSans-74" transform="translate(63.476562 0)"/>
      <use xlink:href="#DejaVuSans-72" transform="translate(102.685547 0)"/>
      <use xlink:href="#DejaVuSans-65" transform="translate(141.548828 0)"/>
      <use xlink:href="#DejaVuSans-73" transform="translate(203.072266 0)"/>
      <use xlink:href="#DejaVuSans-73" transform="translate(255.171875 0)"/>
      <use xlink:href="#DejaVuSans-20" transform="translate(307.271484 0)"/>
      <use xlink:href="#DejaVuSans-5b" transform="translate(339.058594 0)"/>
      <use xlink:href="#DejaVuSans-50" transform="translate(378.072266 0)"/>
      <use xlink:href="#DejaVuSans-61" transform="translate(433.875 0)"/>
      <use xlink:href="#DejaVuSans-5d" transform="translate(495.154297 0)"/>
     </g>
    </g>
   </g>
   <g id="line2d_25">
    <path d="M 75.136252 279.268698 
L 75.137061 279.150306 
L 75.136252 279.29307 
L 75.144578 279.187423 
L 75.654401 278.988947 
L 76.166113 278.019272 
L 76.686195 277.395205 
L 77.765056 277.959452 
L 78.830111 278.156136 
L 80.403676 278.427937 
L 80.923856 278.304437 
L 81.46173 277.677983 
L 81.980937 277.324908 
L 84.072543 276.740505 
L 84.590389 276.53016 
L 85.106873 276.01526 
L 85.623552 275.887777 
L 87.21073 276.218078 
L 87.733243 276.051758 
L 88.250506 275.750034 
L 88.767087 275.059376 
L 89.285419 274.683162 
L 90.339389 274.742594 
L 90.872986 274.872398 
L 92.962526 273.920823 
L 94.546981 273.554236 
L 95.075133 273.368589 
L 96.118992 272.8684 
L 97.155655 272.712129 
L 98.727665 272.120383 
L 100.29637 271.353586 
L 102.385255 270.869918 
L 104.484348 269.777849 
L 105.522567 269.593475 
L 107.08641 269.015807 
L 108.132407 268.469389 
L 112.323981 266.85968 
L 116.485684 265.223319 
L 118.043985 264.623121 
L 121.166421 263.455632 
L 126.909006 261.082244 
L 128.478294 260.529639 
L 130.592396 259.510845 
L 134.263791 257.843855 
L 136.877132 256.740473 
L 138.472672 255.90913 
L 143.72363 253.655537 
L 145.287668 252.888399 
L 146.331915 252.504014 
L 154.166881 248.766821 
L 154.68706 248.398159 
L 155.738886 248.026049 
L 157.307007 247.366592 
L 158.359519 246.674619 
L 159.384514 246.292803 
L 160.967317 245.583877 
L 162.007092 245.006332 
L 163.584158 244.430053 
L 165.672361 243.40069 
L 167.266345 242.585423 
L 172.472384 240.020707 
L 176.645678 238.085081 
L 178.738737 236.727926 
L 180.306542 236.02657 
L 181.352928 235.548886 
L 183.947212 234.360865 
L 192.836829 229.593019 
L 193.88183 229.16724 
L 195.427783 228.353532 
L 196.463085 227.703646 
L 198.562275 226.63458 
L 200.137008 225.689394 
L 201.703573 225.090926 
L 203.811903 223.777955 
L 205.373801 223.140443 
L 206.419713 222.457926 
L 209.560525 220.6889 
L 214.24836 217.984796 
L 215.306219 217.299789 
L 217.43944 216.217231 
L 218.496813 215.591654 
L 220.552942 214.519716 
L 223.168519 212.907109 
L 224.205766 212.392598 
L 231.480385 208.01642 
L 232.012037 207.625934 
L 234.614294 206.341216 
L 235.658736 205.700928 
L 237.220829 204.791644 
L 238.786713 203.756192 
L 239.822793 203.252253 
L 240.876666 202.51707 
L 242.453247 201.522392 
L 243.49905 200.968667 
L 246.129722 199.379241 
L 247.173385 198.835454 
L 249.78731 197.024388 
L 251.86647 195.81995 
L 252.900606 195.083258 
L 257.577587 192.135855 
L 258.092321 191.73397 
L 259.120428 191.19369 
L 266.449216 186.383707 
L 267.504159 185.802118 
L 269.584681 184.312755 
L 270.62747 183.750353 
L 271.663258 183.107239 
L 272.704297 182.203655 
L 277.4213 179.078936 
L 278.448824 178.438404 
L 281.068193 176.607658 
L 282.643387 175.532134 
L 284.70388 173.963076 
L 287.317998 172.208615 
L 288.914316 171.044268 
L 289.446746 170.672975 
L 290.511995 169.75463 
L 292.601268 168.391776 
L 294.163166 167.255683 
L 295.200777 166.563649 
L 297.284119 164.832375 
L 299.912239 163.006306 
L 303.05237 160.738991 
L 304.588794 159.716302 
L 305.630514 158.997098 
L 307.197857 157.664495 
L 308.741087 156.565119 
L 311.358706 154.427284 
L 312.396536 153.775158 
L 313.456535 152.858178 
L 314.505643 151.899791 
L 316.607945 150.494751 
L 318.176844 149.09658 
L 321.32434 146.757717 
L 322.388811 145.815016 
L 337.068751 133.801056 
L 338.103956 132.998844 
L 339.657784 131.407573 
L 341.749585 129.806949 
L 346.463112 125.614945 
L 348.030066 124.191442 
L 350.671798 122.102223 
L 355.368577 117.759134 
L 356.412241 116.952538 
L 368.93633 105.492352 
L 369.987384 104.64396 
L 371.037465 103.530372 
L 374.687591 99.978035 
L 377.26904 97.51762 
L 379.333227 95.50566 
L 385.112271 89.681855 
L 386.139406 88.825181 
L 390.329229 84.575329 
L 391.897739 82.934468 
L 396.594324 78.079401 
L 398.670689 75.827114 
L 403.375831 70.893619 
L 410.676665 62.911592 
L 412.248676 61.178857 
L 414.323558 58.906183 
L 421.121083 51.309333 
L 422.147246 50.149662 
L 424.218093 47.824597 
L 425.277897 46.61787 
L 427.401784 44.099681 
L 429.998498 41.190323 
L 431.832154 39.46 
L 432.144091 39.854822 
L 431.968518 46.441211 
L 431.966744 76.441889 
L 431.456215 76.588139 
L 429.892032 79.169436 
L 429.352601 79.264354 
L 428.814143 79.547573 
L 427.777674 80.539378 
L 427.258856 80.778365 
L 426.720203 81.327073 
L 426.185829 81.364083 
L 425.128941 83.73506 
L 424.07886 85.497315 
L 423.548253 86.727535 
L 423.007656 87.287044 
L 422.464336 87.236163 
L 421.926656 87.495075 
L 420.839433 88.601161 
L 420.301364 89.037827 
L 419.77574 89.265416 
L 419.25663 91.58768 
L 418.738979 92.399147 
L 418.219092 92.92116 
L 417.699691 93.15323 
L 416.646498 94.077128 
L 415.601376 95.320488 
L 414.555184 96.854765 
L 412.985896 98.595001 
L 412.464356 99.526985 
L 411.935231 100.23294 
L 410.890012 100.89627 
L 409.325148 102.250136 
L 408.284401 104.408918 
L 407.758582 104.754344 
L 406.717252 105.691005 
L 406.192211 106.010516 
L 404.621271 108.269063 
L 403.073373 109.574338 
L 402.028154 111.146805 
L 400.45556 112.65653 
L 399.926047 113.07264 
L 398.883355 114.520986 
L 397.326464 116.073201 
L 396.266563 117.16136 
L 394.70729 118.808262 
L 393.138196 120.554441 
L 389.965201 123.874647 
L 387.907042 125.760244 
L 385.260838 128.636282 
L 383.678886 130.051564 
L 382.086457 131.469512 
L 377.889633 135.626906 
L 376.313733 136.984743 
L 372.120288 141.183702 
L 371.591456 141.766703 
L 370.012056 142.746086 
L 367.923853 144.73174 
L 366.884467 145.474814 
L 364.803556 147.530323 
L 363.237282 148.733544 
L 362.192646 149.990836 
L 360.618108 151.030671 
L 360.088011 151.482926 
L 359.043108 152.719004 
L 356.974448 154.352071 
L 355.415078 155.687012 
L 351.762157 158.572208 
L 350.19773 160.172588 
L 348.614247 161.018398 
L 348.085803 161.482539 
L 347.055849 162.628181 
L 345.497062 163.579857 
L 344.974257 164.080825 
L 344.460884 164.807239 
L 343.925537 165.241081 
L 342.350027 165.970125 
L 341.834029 166.482638 
L 341.301599 167.31856 
L 340.784531 167.770522 
L 338.708676 168.773592 
L 338.197248 169.666215 
L 337.668124 170.101177 
L 335.590616 171.009231 
L 335.077826 172.079366 
L 334.557064 172.595728 
L 332.461253 173.526324 
L 331.93592 174.386018 
L 331.407477 174.97428 
L 329.847717 175.763583 
L 329.315482 176.040811 
L 328.271623 177.329474 
L 326.685612 178.159477 
L 326.152404 178.527848 
L 325.642143 179.13657 
L 325.120699 179.585123 
L 323.035025 180.889667 
L 322.508623 181.626992 
L 321.978623 182.00228 
L 320.401703 182.574291 
L 319.876857 182.940128 
L 318.844083 184.170725 
L 318.320209 184.501392 
L 317.287824 184.885351 
L 316.770756 185.224347 
L 315.182605 186.664022 
L 313.083124 187.800067 
L 312.558861 188.485269 
L 312.043252 188.933529 
L 309.957091 190.136798 
L 309.430689 190.63689 
L 307.870857 191.544456 
L 307.339691 191.777209 
L 306.829429 192.18757 
L 306.296999 192.767454 
L 305.251002 193.35372 
L 304.216866 193.760951 
L 303.696784 194.123476 
L 302.641161 195.19556 
L 301.068178 195.829613 
L 300.543721 196.111999 
L 299.489654 197.119635 
L 297.903837 197.983408 
L 295.826815 199.460891 
L 295.304667 199.69754 
L 294.277435 200.503795 
L 293.76766 201.005348 
L 292.705328 201.494772 
L 292.17562 201.618601 
L 291.665164 201.880387 
L 291.13672 202.331278 
L 290.615764 202.997676 
L 290.082945 203.359763 
L 289.048809 203.738132 
L 287.980838 204.25805 
L 286.938049 205.298519 
L 285.373234 205.96331 
L 284.838859 206.216132 
L 283.817947 207.214269 
L 281.732466 208.196587 
L 280.675871 209.12029 
L 279.640569 209.656575 
L 278.598448 210.193932 
L 277.551478 210.928579 
L 275.460067 212.003439 
L 273.354363 213.497819 
L 271.808799 214.174546 
L 271.297176 214.410952 
L 270.253512 215.123823 
L 269.208438 215.829649 
L 266.066946 217.526239 
L 265.537432 217.967679 
L 265.005002 218.178633 
L 263.959783 218.895572 
L 261.351595 220.175869 
L 259.780363 221.212246 
L 259.268351 221.435694 
L 258.243744 222.148273 
L 255.658673 223.4866 
L 254.607425 224.267768 
L 251.972208 225.468114 
L 250.940503 226.254153 
L 250.406128 226.398442 
L 249.36752 226.95811 
L 248.851036 227.155983 
L 247.272997 228.169413 
L 246.760402 228.329607 
L 244.668018 229.441052 
L 242.570481 230.392591 
L 240.482376 231.547585 
L 236.829455 233.382569 
L 235.794541 234.142985 
L 233.153587 235.295251 
L 232.113618 235.979576 
L 231.602044 236.134585 
L 230.566158 236.280808 
L 228.468427 237.552032 
L 226.903612 238.232022 
L 225.339866 239.305811 
L 223.265372 240.102932 
L 221.200699 241.257561 
L 220.154312 241.550352 
L 219.119107 242.142415 
L 218.067665 242.925613 
L 215.991033 243.606382 
L 213.376914 244.946159 
L 212.313026 245.351734 
L 211.286961 245.990707 
L 210.776213 246.391326 
L 210.246214 246.651748 
L 208.683149 246.933953 
L 206.595432 248.050513 
L 205.016786 248.624527 
L 203.958148 249.264084 
L 202.400722 249.851032 
L 201.369893 250.267093 
L 195.593474 252.851727 
L 193.5091 253.850564 
L 192.982504 254.167152 
L 190.916566 254.888951 
L 188.323158 255.970168 
L 180.463045 259.318302 
L 178.876645 259.941176 
L 175.22655 261.570638 
L 173.664262 262.008181 
L 171.069201 263.175135 
L 168.970011 263.928109 
L 167.927678 264.456025 
L 167.401082 264.710017 
L 166.350028 265.003466 
L 163.199688 266.286285 
L 162.673286 266.39006 
L 160.598889 267.363695 
L 160.069765 267.659287 
L 159.027657 267.914375 
L 158.506311 267.957925 
L 156.400899 268.841001 
L 155.349067 269.175077 
L 154.312556 269.517985 
L 153.252946 270.129435 
L 151.671991 270.630184 
L 150.619965 271.04398 
L 149.082957 271.74421 
L 147.544005 272.168559 
L 146.507342 272.625636 
L 145.44958 273.132694 
L 144.401832 273.318977 
L 143.367891 273.599566 
L 141.286689 274.579331 
L 140.245942 274.695051 
L 138.687155 275.420393 
L 137.653408 275.834116 
L 136.607605 276.167266 
L 135.561705 276.607246 
L 134.528736 276.881903 
L 133.474766 277.065248 
L 130.853841 278.223634 
L 129.817956 278.29962 
L 128.2552 278.895689 
L 127.202008 279.21425 
L 126.178762 279.374767 
L 125.124503 279.883091 
L 124.078311 280.276719 
L 113.701006 283.268378 
L 112.162832 283.620138 
L 109.538018 284.53109 
L 108.513995 284.71905 
L 106.941012 285.218302 
L 105.900459 285.445964 
L 104.844933 285.557721 
L 102.247891 286.403372 
L 101.208116 286.515193 
L 99.091912 287.205985 
L 97.020141 287.528434 
L 94.916284 288.189377 
L 93.330856 288.428251 
L 92.297596 288.830039 
L 91.247162 288.950217 
L 90.196498 288.953359 
L 89.665137 289.012004 
L 88.119962 289.708276 
L 86.04508 289.793714 
L 85.006764 290.113274 
L 84.475306 290.339462 
L 81.886078 290.539992 
L 80.835219 290.817439 
L 79.795639 290.855395 
L 78.738363 290.814657 
L 76.654129 291.06 
L 75.608034 290.716193 
L 75.132386 290.787699 
L 75.026234 289.156176 
L 75.026234 289.156176 
" clip-path="url(#pf15e9f697b)" style="fill: none; stroke: #ff0000; stroke-width: 2; stroke-linecap: square"/>
   </g>
   <g id="line2d_26">
    <path d="M 75.136252 279.268698 
L 75.137061 279.150306 
L 75.136252 279.29307 
L 75.144578 279.187423 
L 75.654401 278.988947 
L 76.166113 278.019272 
L 76.686195 277.395205 
L 77.220959 279.529057 
L 79.872219 278.354891 
L 80.403676 278.427937 
L 80.923856 278.304437 
L 81.46173 277.677983 
L 81.980937 277.324908 
L 84.072543 276.740505 
L 84.590389 276.53016 
L 85.106873 276.01526 
L 85.623552 275.887777 
L 87.21073 276.218078 
L 87.733243 276.051758 
L 88.250506 275.750034 
L 88.767087 275.059376 
L 89.285419 274.683162 
L 90.339389 274.742594 
L 90.872986 274.872398 
L 92.962526 273.920823 
L 94.546981 273.554236 
L 95.075133 273.368589 
L 96.118992 272.8684 
L 97.155655 272.712129 
L 98.727665 272.120383 
L 100.29637 271.353586 
L 102.385255 270.869918 
L 104.484348 269.777849 
L 105.522567 269.593475 
L 107.08641 269.015807 
L 108.132407 268.469389 
L 112.323981 266.85968 
L 116.485684 265.223319 
L 118.043985 264.623121 
L 121.166421 263.455632 
L 126.909006 261.082244 
L 128.478294 260.529639 
L 130.592396 259.510845 
L 134.263791 257.843855 
L 136.877132 256.740473 
L 138.472672 255.90913 
L 143.72363 253.655537 
L 145.287668 252.888399 
L 146.331915 252.504014 
L 154.166881 248.766821 
L 154.68706 248.398159 
L 155.738886 248.026049 
L 157.307007 247.366592 
L 158.359519 246.674619 
L 159.384514 246.292803 
L 160.967317 245.583877 
L 162.007092 245.006332 
L 163.584158 244.430053 
L 165.672361 243.40069 
L 167.266345 242.585423 
L 172.472384 240.020707 
L 176.645678 238.085081 
L 178.738737 236.727926 
L 180.306542 236.02657 
L 181.352928 235.548886 
L 183.947212 234.360865 
L 192.836829 229.593019 
L 193.88183 229.16724 
L 195.427783 228.353532 
L 196.463085 227.703646 
L 198.562275 226.63458 
L 200.137008 225.689394 
L 201.703573 225.090926 
L 203.811903 223.777955 
L 205.373801 223.140443 
L 206.419713 222.457926 
L 209.560525 220.6889 
L 214.24836 217.984796 
L 215.306219 217.299789 
L 217.43944 216.217231 
L 218.496813 215.591654 
L 220.552942 214.519716 
L 223.168519 212.907109 
L 224.205766 212.392598 
L 231.480385 208.01642 
L 232.012037 207.625934 
L 234.614294 206.341216 
L 235.658736 205.700928 
L 237.220829 204.791644 
L 238.786713 203.756192 
L 239.822793 203.252253 
L 240.876666 202.51707 
L 242.453247 201.522392 
L 243.49905 200.968667 
L 246.129722 199.379241 
L 247.173385 198.835454 
L 249.78731 197.024388 
L 251.86647 195.81995 
L 252.900606 195.083258 
L 257.577587 192.135855 
L 258.092321 191.73397 
L 259.120428 191.19369 
L 266.449216 186.383707 
L 267.504159 185.802118 
L 269.584681 184.312755 
L 270.62747 183.750353 
L 271.663258 183.107239 
L 272.704297 182.203655 
L 277.4213 179.078936 
L 278.448824 178.438404 
L 281.068193 176.607658 
L 282.643387 175.532134 
L 284.70388 173.963076 
L 287.317998 172.208615 
L 288.914316 171.044268 
L 289.446746 170.672975 
L 290.511995 169.75463 
L 292.601268 168.391776 
L 294.163166 167.255683 
L 295.200777 166.563649 
L 297.284119 164.832375 
L 299.912239 163.006306 
L 303.05237 160.738991 
L 304.588794 159.716302 
L 305.630514 158.997098 
L 307.197857 157.664495 
L 308.741087 156.565119 
L 311.358706 154.427284 
L 312.396536 153.775158 
L 313.456535 152.858178 
L 314.505643 151.899791 
L 316.607945 150.494751 
L 318.176844 149.09658 
L 321.32434 146.757717 
L 322.388811 145.815016 
L 337.068751 133.801056 
L 338.103956 132.998844 
L 339.657784 131.407573 
L 341.749585 129.806949 
L 346.463112 125.614945 
L 348.030066 124.191442 
L 350.671798 122.102223 
L 355.368577 117.759134 
L 356.412241 116.952538 
L 368.93633 105.492352 
L 369.987384 104.64396 
L 371.037465 103.530372 
L 374.687591 99.978035 
L 377.26904 97.51762 
L 379.333227 95.50566 
L 385.112271 89.681855 
L 386.139406 88.825181 
L 390.329229 84.575329 
L 391.897739 82.934468 
L 396.594324 78.079401 
L 398.670689 75.827114 
L 403.375831 70.893619 
L 410.676665 62.911592 
L 412.248676 61.178857 
L 414.323558 58.906183 
L 421.121083 51.309333 
L 422.147246 50.149662 
L 424.218093 47.824597 
L 425.277897 46.61787 
L 427.401784 44.099681 
L 429.998498 41.190323 
L 431.832154 39.46 
L 432.144091 39.854822 
L 431.968518 46.441211 
L 431.966744 76.441889 
L 431.456215 76.588139 
L 429.892032 79.169436 
L 429.352601 79.264354 
L 428.814143 79.547573 
L 427.777674 80.539378 
L 427.258856 80.778365 
L 426.720203 81.327073 
L 426.185829 81.364083 
L 425.128941 83.73506 
L 424.07886 85.497315 
L 423.548253 86.727535 
L 423.007656 87.287044 
L 422.464336 87.236163 
L 421.926656 87.495075 
L 420.839433 88.601161 
L 420.301364 89.037827 
L 419.77574 89.265416 
L 419.25663 91.58768 
L 418.738979 92.399147 
L 418.219092 92.92116 
L 417.699691 93.15323 
L 416.646498 94.077128 
L 415.601376 95.320488 
L 414.555184 96.854765 
L 412.985896 98.595001 
L 412.464356 99.526985 
L 411.935231 100.23294 
L 410.890012 100.89627 
L 409.325148 102.250136 
L 408.284401 104.408918 
L 407.758582 104.754344 
L 406.717252 105.691005 
L 406.192211 106.010516 
L 404.621271 108.269063 
L 403.073373 109.574338 
L 402.028154 111.146805 
L 400.45556 112.65653 
L 399.926047 113.07264 
L 398.883355 114.520986 
L 397.326464 116.073201 
L 396.266563 117.16136 
L 394.70729 118.808262 
L 393.138196 120.554441 
L 389.965201 123.874647 
L 387.907042 125.760244 
L 385.260838 128.636282 
L 383.678886 130.051564 
L 382.086457 131.469512 
L 377.889633 135.626906 
L 376.313733 136.984743 
L 372.120288 141.183702 
L 371.591456 141.766703 
L 370.012056 142.746086 
L 367.923853 144.73174 
L 366.884467 145.474814 
L 364.803556 147.530323 
L 363.237282 148.733544 
L 362.192646 149.990836 
L 360.618108 151.030671 
L 360.088011 151.482926 
L 359.043108 152.719004 
L 356.974448 154.352071 
L 355.415078 155.687012 
L 351.762157 158.572208 
L 350.19773 160.172588 
L 348.614247 161.018398 
L 348.085803 161.482539 
L 347.055849 162.628181 
L 345.497062 163.579857 
L 344.974257 164.080825 
L 344.460884 164.807239 
L 343.925537 165.241081 
L 342.350027 165.970125 
L 341.834029 166.482638 
L 341.301599 167.31856 
L 340.784531 167.770522 
L 338.708676 168.773592 
L 338.197248 169.666215 
L 337.668124 170.101177 
L 335.590616 171.009231 
L 335.077826 172.079366 
L 334.557064 172.595728 
L 332.461253 173.526324 
L 331.93592 174.386018 
L 331.407477 174.97428 
L 329.847717 175.763583 
L 329.315482 176.040811 
L 328.271623 177.329474 
L 326.685612 178.159477 
L 326.152404 178.527848 
L 325.642143 179.13657 
L 325.120699 179.585123 
L 323.035025 180.889667 
L 322.508623 181.626992 
L 321.978623 182.00228 
L 320.401703 182.574291 
L 319.876857 182.940128 
L 318.844083 184.170725 
L 318.320209 184.501392 
L 317.287824 184.885351 
L 316.770756 185.224347 
L 315.182605 186.664022 
L 313.083124 187.800067 
L 312.558861 188.485269 
L 312.043252 188.933529 
L 309.957091 190.136798 
L 309.430689 190.63689 
L 307.870857 191.544456 
L 307.339691 191.777209 
L 306.829429 192.18757 
L 306.296999 192.767454 
L 305.251002 193.35372 
L 304.216866 193.760951 
L 303.696784 194.123476 
L 302.641161 195.19556 
L 301.068178 195.829613 
L 300.543721 196.111999 
L 299.489654 197.119635 
L 297.903837 197.983408 
L 295.826815 199.460891 
L 295.304667 199.69754 
L 294.277435 200.503795 
L 293.76766 201.005348 
L 292.705328 201.494772 
L 292.17562 201.618601 
L 291.665164 201.880387 
L 291.13672 202.331278 
L 290.615764 202.997676 
L 290.082945 203.359763 
L 289.048809 203.738132 
L 287.980838 204.25805 
L 286.938049 205.298519 
L 285.373234 205.96331 
L 284.838859 206.216132 
L 283.817947 207.214269 
L 281.732466 208.196587 
L 280.675871 209.12029 
L 279.640569 209.656575 
L 278.598448 210.193932 
L 277.551478 210.928579 
L 275.460067 212.003439 
L 273.354363 213.497819 
L 271.808799 214.174546 
L 271.297176 214.410952 
L 270.253512 215.123823 
L 269.208438 215.829649 
L 266.066946 217.526239 
L 265.537432 217.967679 
L 265.005002 218.178633 
L 263.959783 218.895572 
L 261.351595 220.175869 
L 259.780363 221.212246 
L 259.268351 221.435694 
L 258.243744 222.148273 
L 255.658673 223.4866 
L 254.607425 224.267768 
L 251.972208 225.468114 
L 250.940503 226.254153 
L 250.406128 226.398442 
L 249.36752 226.95811 
L 248.851036 227.155983 
L 247.272997 228.169413 
L 246.760402 228.329607 
L 244.668018 229.441052 
L 242.570481 230.392591 
L 240.482376 231.547585 
L 236.829455 233.382569 
L 235.794541 234.142985 
L 233.153587 235.295251 
L 232.113618 235.979576 
L 231.602044 236.134585 
L 230.566158 236.280808 
L 228.468427 237.552032 
L 226.903612 238.232022 
L 225.339866 239.305811 
L 223.265372 240.102932 
L 221.200699 241.257561 
L 220.154312 241.550352 
L 219.119107 242.142415 
L 218.067665 242.925613 
L 215.991033 243.606382 
L 213.376914 244.946159 
L 212.313026 245.351734 
L 211.286961 245.990707 
L 210.776213 246.391326 
L 210.246214 246.651748 
L 208.683149 246.933953 
L 206.595432 248.050513 
L 205.016786 248.624527 
L 203.958148 249.264084 
L 202.400722 249.851032 
L 201.369893 250.267093 
L 195.593474 252.851727 
L 193.5091 253.850564 
L 192.982504 254.167152 
L 190.916566 254.888951 
L 188.323158 255.970168 
L 180.463045 259.318302 
L 178.876645 259.941176 
L 175.22655 261.570638 
L 173.664262 262.008181 
L 171.069201 263.175135 
L 168.970011 263.928109 
L 167.927678 264.456025 
L 167.401082 264.710017 
L 166.350028 265.003466 
L 163.199688 266.286285 
L 162.673286 266.39006 
L 160.598889 267.363695 
L 160.069765 267.659287 
L 159.027657 267.914375 
L 158.506311 267.957925 
L 156.400899 268.841001 
L 155.349067 269.175077 
L 154.312556 269.517985 
L 153.252946 270.129435 
L 151.671991 270.630184 
L 150.619965 271.04398 
L 149.082957 271.74421 
L 147.544005 272.168559 
L 146.507342 272.625636 
L 145.44958 273.132694 
L 144.401832 273.318977 
L 143.367891 273.599566 
L 141.286689 274.579331 
L 140.245942 274.695051 
L 138.687155 275.420393 
L 137.653408 275.834116 
L 136.607605 276.167266 
L 135.561705 276.607246 
L 134.528736 276.881903 
L 133.474766 277.065248 
L 130.853841 278.223634 
L 129.817956 278.29962 
L 128.2552 278.895689 
L 127.202008 279.21425 
L 126.178762 279.374767 
L 125.124503 279.883091 
L 124.078311 280.276719 
L 113.701006 283.268378 
L 112.162832 283.620138 
L 109.538018 284.53109 
L 108.513995 284.71905 
L 106.941012 285.218302 
L 105.900459 285.445964 
L 104.844933 285.557721 
L 102.247891 286.403372 
L 101.208116 286.515193 
L 99.091912 287.205985 
L 97.020141 287.528434 
L 94.916284 288.189377 
L 93.330856 288.428251 
L 92.297596 288.830039 
L 91.247162 288.950217 
L 90.196498 288.953359 
L 89.665137 289.012004 
L 88.119962 289.708276 
L 86.04508 289.793714 
L 85.006764 290.113274 
L 84.475306 290.339462 
L 81.886078 290.539992 
L 80.835219 290.817439 
L 79.795639 290.855395 
L 78.738363 290.814657 
L 76.654129 291.06 
L 75.608034 290.716193 
L 75.132386 290.787699 
L 75.026234 289.156176 
L 75.026234 289.156176 
" clip-path="url(#pf15e9f697b)" style="fill: none; stroke: #000000; stroke-width: 2; stroke-linecap: square"/>
   </g>
   <g id="patch_3">
    <path d="M 57.17 303.64 
L 57.17 26.88 
" style="fill: none; stroke: #000000; stroke-width: 0.8; stroke-linejoin: miter; stroke-linecap: square"/>
   </g>
   <g id="patch_4">
    <path d="M 450 303.64 
L 450 26.88 
" style="fill: none; stroke: #000000; stroke-width: 0.8; stroke-linejoin: miter; stroke-linecap: square"/>
   </g>
   <g id="patch_5">
    <path d="M 57.17 303.64 
L 450 303.64 
" style="fill: none; stroke: #000000; stroke-width: 0.8; stroke-linejoin: miter; stroke-linecap: square"/>
   </g>
   <g id="patch_6">
    <path d="M 57.17 26.88 
L 450 26.88 
" style="fill: none; stroke: #000000; stroke-width: 0.8; stroke-linejoin: miter; stroke-linecap: square"/>
   </g>
   <g id="text_15">
    <!-- 2025-07-02 Trial 30 - Stress vs Strain -->
    <g transform="translate(142.330938 20.88) scale(0.12 -0.12)">
     <defs>
      <path id="DejaVuSans-37" d="M 525 4666 
L 3525 4666 
L 3525 4397 
L 1831 0 
L 1172 0 
L 2766 4134 
L 525 4134 
L 525 4666 
z
" transform="scale(0.015625)"/>
      <path id="DejaVuSans-54" d="M -19 4666 
L 3928 4666 
L 3928 4134 
L 2272 4134 
L 2272 0 
L 1638 0 
L 1638 4134 
L -19 4134 
L -19 4666 
z
" transform="scale(0.015625)"/>
      <path id="DejaVuSans-6c" d="M 603 4863 
L 1178 4863 
L 1178 0 
L 603 0 
L 603 4863 
z
" transform="scale(0.015625)"/>
      <path id="DejaVuSans-33" d="M 2597 2516 
Q 3050 2419 3304 2112 
Q 3559 1806 3559 1356 
Q 3559 666 3084 287 
Q 2609 -91 1734 -91 
Q 1441 -91 1130 -33 
Q 819 25 488 141 
L 488 750 
Q 750 597 1062 519 
Q 1375 441 1716 441 
Q 2309 441 2620 675 
Q 2931 909 2931 1356 
Q 2931 1769 2642 2001 
Q 2353 2234 1838 2234 
L 1294 2234 
L 1294 2753 
L 1863 2753 
Q 2328 2753 2575 2939 
Q 2822 3125 2822 3475 
Q 2822 3834 2567 4026 
Q 2313 4219 1838 4219 
Q 1578 4219 1281 4162 
Q 984 4106 628 3988 
L 628 4550 
Q 988 4650 1302 4700 
Q 1616 4750 1894 4750 
Q 2613 4750 3031 4423 
Q 3450 4097 3450 3541 
Q 3450 3153 3228 2886 
Q 3006 2619 2597 2516 
z
" transform="scale(0.015625)"/>
      <path id="DejaVuSans-76" d="M 191 3500 
L 800 3500 
L 1894 563 
L 2988 3500 
L 3597 3500 
L 2284 0 
L 1503 0 
L 191 3500 
z
" transform="scale(0.015625)"/>
     </defs>
     <use xlink:href="#DejaVuSans-32"/>
     <use xlink:href="#DejaVuSans-30" transform="translate(63.623047 0)"/>
     <use xlink:href="#DejaVuSans-32" transform="translate(127.246094 0)"/>
     <use xlink:href="#DejaVuSans-35" transform="translate(190.869141 0)"/>
     <use xlink:href="#DejaVuSans-2d" transform="translate(254.492188 0)"/>
     <use xlink:href="#DejaVuSans-30" transform="translate(290.576172 0)"/>
     <use xlink:href="#DejaVuSans-37" transform="translate(354.199219 0)"/>
     <use xlink:href="#DejaVuSans-2d" transform="translate(417.822266 0)"/>
     <use xlink:href="#DejaVuSans-30" transform="translate(453.90625 0)"/>
     <use xlink:href="#DejaVuSans-32" transform="translate(517.529297 0)"/>
     <use xlink:href="#DejaVuSans-20" transform="translate(581.152344 0)"/>
     <use xlink:href="#DejaVuSans-54" transform="translate(612.939453 0)"/>
     <use xlink:href="#DejaVuSans-72" transform="translate(659.273438 0)"/>
     <use xlink:href="#DejaVuSans-69" transform="translate(700.386719 0)"/>
     <use xlink:href="#DejaVuSans-61" transform="translate(728.169922 0)"/>
     <use xlink:href="#DejaVuSans-6c" transform="translate(789.449219 0)"/>
     <use xlink:href="#DejaVuSans-20" transform="translate(817.232422 0)"/>
     <use xlink:href="#DejaVuSans-33" transform="translate(849.019531 0)"/>
     <use xlink:href="#DejaVuSans-30" transform="translate(912.642578 0)"/>
     <use xlink:href="#DejaVuSans-20" transform="translate(976.265625 0)"/>
     <use xlink:href="#DejaVuSans-2d" transform="translate(1008.052734 0)"/>
     <use xlink:href="#DejaVuSans-20" transform="translate(1044.136719 0)"/>
     <use xlink:href="#DejaVuSans-53" transform="translate(1075.923828 0)"/>
     <use xlink:href="#DejaVuSans-74" transform="translate(1139.400391 0)"/>
     <use xlink:href="#DejaVuSans-72" transform="translate(1178.609375 0)"/>
     <use xlink:href="#DejaVuSans-65" transform="translate(1217.472656 0)"/>
     <use xlink:href="#DejaVuSans-73" transform="translate(1278.996094 0)"/>
     <use xlink:href="#DejaVuSans-73" transform="translate(1331.095703 0)"/>
     <use xlink:href="#DejaVuSans-20" transform="translate(1383.195312 0)"/>
     <use xlink:href="#DejaVuSans-76" transform="translate(1414.982422 0)"/>
     <use xlink:href="#DejaVuSans-73" transform="translate(1474.162109 0)"/>
     <use xlink:href="#DejaVuSans-20" transform="translate(1526.261719 0)"/>
     <use xlink:href="#DejaVuSans-53" transform="translate(1558.048828 0)"/>
     <use xlink:href="#DejaVuSans-74" transform="translate(1621.525391 0)"/>
     <use xlink:href="#DejaVuSans-72" transform="translate(1660.734375 0)"/>
     <use xlink:href="#DejaVuSans-61" transform="translate(1701.847656 0)"/>
     <use xlink:href="#DejaVuSans-69" transform="translate(1763.126953 0)"/>
     <use xlink:href="#DejaVuSans-6e" transform="translate(1790.910156 0)"/>
    </g>
   </g>
   <g id="legend_1">
    <g id="patch_7">
     <path d="M 64.17 64.23625 
L 170.154375 64.23625 
Q 172.154375 64.23625 172.154375 62.23625 
L 172.154375 33.88 
Q 172.154375 31.88 170.154375 31.88 
L 64.17 31.88 
Q 62.17 31.88 62.17 33.88 
L 62.17 62.23625 
Q 62.17 64.23625 64.17 64.23625 
z
" style="fill: #ffffff; opacity: 0.8; stroke: #cccccc; stroke-linejoin: miter"/>
    </g>
    <g id="line2d_27">
     <path d="M 66.17 39.978437 
L 76.17 39.978437 
L 86.17 39.978437 
" style="fill: none; stroke: #ff0000; stroke-width: 2; stroke-linecap: square"/>
    </g>
    <g id="text_16">
     <!-- Raw Force -->
     <g transform="translate(94.17 43.478437) scale(0.1 -0.1)">
      <defs>
       <path id="DejaVuSans-52" d="M 2841 2188 
Q 3044 2119 3236 1894 
Q 3428 1669 3622 1275 
L 4263 0 
L 3584 0 
L 2988 1197 
Q 2756 1666 2539 1819 
Q 2322 1972 1947 1972 
L 1259 1972 
L 1259 0 
L 628 0 
L 628 4666 
L 2053 4666 
Q 2853 4666 3247 4331 
Q 3641 3997 3641 3322 
Q 3641 2881 3436 2590 
Q 3231 2300 2841 2188 
z
M 1259 4147 
L 1259 2491 
L 2053 2491 
Q 2509 2491 2742 2702 
Q 2975 2913 2975 3322 
Q 2975 3731 2742 3939 
Q 2509 4147 2053 4147 
L 1259 4147 
z
" transform="scale(0.015625)"/>
       <path id="DejaVuSans-77" d="M 269 3500 
L 844 3500 
L 1563 769 
L 2278 3500 
L 2956 3500 
L 3675 769 
L 4391 3500 
L 4966 3500 
L 4050 0 
L 3372 0 
L 2619 2869 
L 1863 0 
L 1184 0 
L 269 3500 
z
" transform="scale(0.015625)"/>
       <path id="DejaVuSans-46" d="M 628 4666 
L 3309 4666 
L 3309 4134 
L 1259 4134 
L 1259 2759 
L 3109 2759 
L 3109 2228 
L 1259 2228 
L 1259 0 
L 628 0 
L 628 4666 
z
" transform="scale(0.015625)"/>
       <path id="DejaVuSans-6f" d="M 1959 3097 
Q 1497 3097 1228 2736 
Q 959 2375 959 1747 
Q 959 1119 1226 758 
Q 1494 397 1959 397 
Q 2419 397 2687 759 
Q 2956 1122 2956 1747 
Q 2956 2369 2687 2733 
Q 2419 3097 1959 3097 
z
M 1959 3584 
Q 2709 3584 3137 3096 
Q 3566 2609 3566 1747 
Q 3566 888 3137 398 
Q 2709 -91 1959 -91 
Q 1206 -91 779 398 
Q 353 888 353 1747 
Q 353 2609 779 3096 
Q 1206 3584 1959 3584 
z
" transform="scale(0.015625)"/>
       <path id="DejaVuSans-63" d="M 3122 3366 
L 3122 2828 
Q 2878 2963 2633 3030 
Q 2388 3097 2138 3097 
Q 1578 3097 1268 2742 
Q 959 2388 959 1747 
Q 959 1106 1268 751 
Q 1578 397 2138 397 
Q 2388 397 2633 464 
Q 2878 531 3122 666 
L 3122 134 
Q 2881 22 2623 -34 
Q 2366 -91 2075 -91 
Q 1284 -91 818 406 
Q 353 903 353 1747 
Q 353 2603 823 3093 
Q 1294 3584 2113 3584 
Q 2378 3584 2631 3529 
Q 2884 3475 3122 3366 
z
" transform="scale(0.015625)"/>
      </defs>
      <use xlink:href="#DejaVuSans-52"/>
      <use xlink:href="#DejaVuSans-61" transform="translate(67.232422 0)"/>
      <use xlink:href="#DejaVuSans-77" transform="translate(128.511719 0)"/>
      <use xlink:href="#DejaVuSans-20" transform="translate(210.298828 0)"/>
      <use xlink:href="#DejaVuSans-46" transform="translate(242.085938 0)"/>
      <use xlink:href="#DejaVuSans-6f" transform="translate(295.980469 0)"/>
      <use xlink:href="#DejaVuSans-72" transform="translate(357.162109 0)"/>
      <use xlink:href="#DejaVuSans-63" transform="translate(396.025391 0)"/>
      <use xlink:href="#DejaVuSans-65" transform="translate(451.005859 0)"/>
     </g>
    </g>
    <g id="line2d_28">
     <path d="M 66.17 54.656563 
L 76.17 54.656563 
L 86.17 54.656563 
" style="fill: none; stroke: #000000; stroke-width: 2; stroke-linecap: square"/>
    </g>
    <g id="text_17">
     <!-- Adjusted Force -->
     <g transform="translate(94.17 58.156563) scale(0.1 -0.1)">
      <defs>
       <path id="DejaVuSans-41" d="M 2188 4044 
L 1331 1722 
L 3047 1722 
L 2188 4044 
z
M 1831 4666 
L 2547 4666 
L 4325 0 
L 3669 0 
L 3244 1197 
L 1141 1197 
L 716 0 
L 50 0 
L 1831 4666 
z
" transform="scale(0.015625)"/>
       <path id="DejaVuSans-64" d="M 2906 2969 
L 2906 4863 
L 3481 4863 
L 3481 0 
L 2906 0 
L 2906 525 
Q 2725 213 2448 61 
Q 2172 -91 1784 -91 
Q 1150 -91 751 415 
Q 353 922 353 1747 
Q 353 2572 751 3078 
Q 1150 3584 1784 3584 
Q 2172 3584 2448 3432 
Q 2725 3281 2906 2969 
z
M 947 1747 
Q 947 1113 1208 752 
Q 1469 391 1925 391 
Q 2381 391 2643 752 
Q 2906 1113 2906 1747 
Q 2906 2381 2643 2742 
Q 2381 3103 1925 3103 
Q 1469 3103 1208 2742 
Q 947 2381 947 1747 
z
" transform="scale(0.015625)"/>
       <path id="DejaVuSans-6a" d="M 603 3500 
L 1178 3500 
L 1178 -63 
Q 1178 -731 923 -1031 
Q 669 -1331 103 -1331 
L -116 -1331 
L -116 -844 
L 38 -844 
Q 366 -844 484 -692 
Q 603 -541 603 -63 
L 603 3500 
z
M 603 4863 
L 1178 4863 
L 1178 4134 
L 603 4134 
L 603 4863 
z
" transform="scale(0.015625)"/>
       <path id="DejaVuSans-75" d="M 544 1381 
L 544 3500 
L 1119 3500 
L 1119 1403 
Q 1119 906 1312 657 
Q 1506 409 1894 409 
Q 2359 409 2629 706 
Q 2900 1003 2900 1516 
L 2900 3500 
L 3475 3500 
L 3475 0 
L 2900 0 
L 2900 538 
Q 2691 219 2414 64 
Q 2138 -91 1772 -91 
Q 1169 -91 856 284 
Q 544 659 544 1381 
z
M 1991 3584 
L 1991 3584 
z
" transform="scale(0.015625)"/>
      </defs>
      <use xlink:href="#DejaVuSans-41"/>
      <use xlink:href="#DejaVuSans-64" transform="translate(66.658203 0)"/>
      <use xlink:href="#DejaVuSans-6a" transform="translate(130.134766 0)"/>
      <use xlink:href="#DejaVuSans-75" transform="translate(157.917969 0)"/>
      <use xlink:href="#DejaVuSans-73" transform="translate(221.296875 0)"/>
      <use xlink:href="#DejaVuSans-74" transform="translate(273.396484 0)"/>
      <use xlink:href="#DejaVuSans-65" transform="translate(312.605469 0)"/>
      <use xlink:href="#DejaVuSans-64" transform="translate(374.128906 0)"/>
      <use xlink:href="#DejaVuSans-20" transform="translate(437.605469 0)"/>
      <use xlink:href="#DejaVuSans-46" transform="translate(469.392578 0)"/>
      <use xlink:href="#DejaVuSans-6f" transform="translate(523.287109 0)"/>
      <use xlink:href="#DejaVuSans-72" transform="translate(584.46875 0)"/>
      <use xlink:href="#DejaVuSans-63" transform="translate(623.332031 0)"/>
      <use xlink:href="#DejaVuSans-65" transform="translate(678.3125 0)"/>
     </g>
    </g>
   </g>
  </g>
 </g>
 <defs>
  <clipPath id="pf15e9f697b">
   <rect x="57.17" y="26.88" width="392.83" height="276.76"/>
  </clipPath>
 </defs>
</svg>
