<?xml version="1.0" encoding="utf-8" standalone="no"?>
<!DOCTYPE svg PUBLIC "-//W3C//DTD SVG 1.1//EN"
  "http://www.w3.org/Graphics/SVG/1.1/DTD/svg11.dtd">
<svg xmlns:xlink="http://www.w3.org/1999/xlink" width="460.8pt" height="345.6pt" viewBox="0 0 460.8 345.6" xmlns="http://www.w3.org/2000/svg" version="1.1">
 <metadata>
  <rdf:RDF xmlns:dc="http://purl.org/dc/elements/1.1/" xmlns:cc="http://creativecommons.org/ns#" xmlns:rdf="http://www.w3.org/1999/02/22-rdf-syntax-ns#">
   <cc:Work>
    <dc:type rdf:resource="http://purl.org/dc/dcmitype/StillImage"/>
    <dc:date>2025-07-28T21:14:56.398484</dc:date>
    <dc:format>image/svg+xml</dc:format>
    <dc:creator>
     <cc:Agent>
      <dc:title>Matplotlib v3.10.3, https://matplotlib.org/</dc:title>
     </cc:Agent>
    </dc:creator>
   </cc:Work>
  </rdf:RDF>
 </metadata>
 <defs>
  <style type="text/css">*{stroke-linejoin: round; stroke-linecap: butt}</style>
 </defs>
 <g id="figure_1">
  <g id="patch_1">
   <path d="M 0 345.6 
L 460.8 345.6 
L 460.8 0 
L 0 0 
z
" style="fill: #ffffff"/>
  </g>
  <g id="axes_1">
   <g id="patch_2">
    <path d="M 57.17 303.64 
L 450 303.64 
L 450 26.88 
L 57.17 26.88 
z
" style="fill: #ffffff"/>
   </g>
   <g id="matplotlib.axis_1">
    <g id="xtick_1">
     <g id="line2d_1">
      <path d="M 75.184889 303.64 
L 75.184889 26.88 
" clip-path="url(#p915aa2b0c4)" style="fill: none; stroke: #b0b0b0; stroke-opacity: 0.3; stroke-width: 0.8; stroke-linecap: square"/>
     </g>
     <g id="line2d_2">
      <defs>
       <path id="m06691e9a18" d="M 0 0 
L 0 3.5 
" style="stroke: #000000; stroke-width: 0.8"/>
      </defs>
      <g>
       <use xlink:href="#m06691e9a18" x="75.184889" y="303.64" style="stroke: #000000; stroke-width: 0.8"/>
      </g>
     </g>
     <g id="text_1">
      <!-- 0.000 -->
      <g transform="translate(60.870826 318.238437) scale(0.1 -0.1)">
       <defs>
        <path id="DejaVuSans-30" d="M 2034 4250 
Q 1547 4250 1301 3770 
Q 1056 3291 1056 2328 
Q 1056 1369 1301 889 
Q 1547 409 2034 409 
Q 2525 409 2770 889 
Q 3016 1369 3016 2328 
Q 3016 3291 2770 3770 
Q 2525 4250 2034 4250 
z
M 2034 4750 
Q 2819 4750 3233 4129 
Q 3647 3509 3647 2328 
Q 3647 1150 3233 529 
Q 2819 -91 2034 -91 
Q 1250 -91 836 529 
Q 422 1150 422 2328 
Q 422 3509 836 4129 
Q 1250 4750 2034 4750 
z
" transform="scale(0.015625)"/>
        <path id="DejaVuSans-2e" d="M 684 794 
L 1344 794 
L 1344 0 
L 684 0 
L 684 794 
z
" transform="scale(0.015625)"/>
       </defs>
       <use xlink:href="#DejaVuSans-30"/>
       <use xlink:href="#DejaVuSans-2e" transform="translate(63.623047 0)"/>
       <use xlink:href="#DejaVuSans-30" transform="translate(95.410156 0)"/>
       <use xlink:href="#DejaVuSans-30" transform="translate(159.033203 0)"/>
       <use xlink:href="#DejaVuSans-30" transform="translate(222.65625 0)"/>
      </g>
     </g>
    </g>
    <g id="xtick_2">
     <g id="line2d_3">
      <path d="M 125.135107 303.64 
L 125.135107 26.88 
" clip-path="url(#p915aa2b0c4)" style="fill: none; stroke: #b0b0b0; stroke-opacity: 0.3; stroke-width: 0.8; stroke-linecap: square"/>
     </g>
     <g id="line2d_4">
      <g>
       <use xlink:href="#m06691e9a18" x="125.135107" y="303.64" style="stroke: #000000; stroke-width: 0.8"/>
      </g>
     </g>
     <g id="text_2">
      <!-- 0.025 -->
      <g transform="translate(110.821044 318.238437) scale(0.1 -0.1)">
       <defs>
        <path id="DejaVuSans-32" d="M 1228 531 
L 3431 531 
L 3431 0 
L 469 0 
L 469 531 
Q 828 903 1448 1529 
Q 2069 2156 2228 2338 
Q 2531 2678 2651 2914 
Q 2772 3150 2772 3378 
Q 2772 3750 2511 3984 
Q 2250 4219 1831 4219 
Q 1534 4219 1204 4116 
Q 875 4013 500 3803 
L 500 4441 
Q 881 4594 1212 4672 
Q 1544 4750 1819 4750 
Q 2544 4750 2975 4387 
Q 3406 4025 3406 3419 
Q 3406 3131 3298 2873 
Q 3191 2616 2906 2266 
Q 2828 2175 2409 1742 
Q 1991 1309 1228 531 
z
" transform="scale(0.015625)"/>
        <path id="DejaVuSans-35" d="M 691 4666 
L 3169 4666 
L 3169 4134 
L 1269 4134 
L 1269 2991 
Q 1406 3038 1543 3061 
Q 1681 3084 1819 3084 
Q 2600 3084 3056 2656 
Q 3513 2228 3513 1497 
Q 3513 744 3044 326 
Q 2575 -91 1722 -91 
Q 1428 -91 1123 -41 
Q 819 9 494 109 
L 494 744 
Q 775 591 1075 516 
Q 1375 441 1709 441 
Q 2250 441 2565 725 
Q 2881 1009 2881 1497 
Q 2881 1984 2565 2268 
Q 2250 2553 1709 2553 
Q 1456 2553 1204 2497 
Q 953 2441 691 2322 
L 691 4666 
z
" transform="scale(0.015625)"/>
       </defs>
       <use xlink:href="#DejaVuSans-30"/>
       <use xlink:href="#DejaVuSans-2e" transform="translate(63.623047 0)"/>
       <use xlink:href="#DejaVuSans-30" transform="translate(95.410156 0)"/>
       <use xlink:href="#DejaVuSans-32" transform="translate(159.033203 0)"/>
       <use xlink:href="#DejaVuSans-35" transform="translate(222.65625 0)"/>
      </g>
     </g>
    </g>
    <g id="xtick_3">
     <g id="line2d_5">
      <path d="M 175.085324 303.64 
L 175.085324 26.88 
" clip-path="url(#p915aa2b0c4)" style="fill: none; stroke: #b0b0b0; stroke-opacity: 0.3; stroke-width: 0.8; stroke-linecap: square"/>
     </g>
     <g id="line2d_6">
      <g>
       <use xlink:href="#m06691e9a18" x="175.085324" y="303.64" style="stroke: #000000; stroke-width: 0.8"/>
      </g>
     </g>
     <g id="text_3">
      <!-- 0.050 -->
      <g transform="translate(160.771262 318.238437) scale(0.1 -0.1)">
       <use xlink:href="#DejaVuSans-30"/>
       <use xlink:href="#DejaVuSans-2e" transform="translate(63.623047 0)"/>
       <use xlink:href="#DejaVuSans-30" transform="translate(95.410156 0)"/>
       <use xlink:href="#DejaVuSans-35" transform="translate(159.033203 0)"/>
       <use xlink:href="#DejaVuSans-30" transform="translate(222.65625 0)"/>
      </g>
     </g>
    </g>
    <g id="xtick_4">
     <g id="line2d_7">
      <path d="M 225.035542 303.64 
L 225.035542 26.88 
" clip-path="url(#p915aa2b0c4)" style="fill: none; stroke: #b0b0b0; stroke-opacity: 0.3; stroke-width: 0.8; stroke-linecap: square"/>
     </g>
     <g id="line2d_8">
      <g>
       <use xlink:href="#m06691e9a18" x="225.035542" y="303.64" style="stroke: #000000; stroke-width: 0.8"/>
      </g>
     </g>
     <g id="text_4">
      <!-- 0.075 -->
      <g transform="translate(210.721479 318.238437) scale(0.1 -0.1)">
       <defs>
        <path id="DejaVuSans-37" d="M 525 4666 
L 3525 4666 
L 3525 4397 
L 1831 0 
L 1172 0 
L 2766 4134 
L 525 4134 
L 525 4666 
z
" transform="scale(0.015625)"/>
       </defs>
       <use xlink:href="#DejaVuSans-30"/>
       <use xlink:href="#DejaVuSans-2e" transform="translate(63.623047 0)"/>
       <use xlink:href="#DejaVuSans-30" transform="translate(95.410156 0)"/>
       <use xlink:href="#DejaVuSans-37" transform="translate(159.033203 0)"/>
       <use xlink:href="#DejaVuSans-35" transform="translate(222.65625 0)"/>
      </g>
     </g>
    </g>
    <g id="xtick_5">
     <g id="line2d_9">
      <path d="M 274.98576 303.64 
L 274.98576 26.88 
" clip-path="url(#p915aa2b0c4)" style="fill: none; stroke: #b0b0b0; stroke-opacity: 0.3; stroke-width: 0.8; stroke-linecap: square"/>
     </g>
     <g id="line2d_10">
      <g>
       <use xlink:href="#m06691e9a18" x="274.98576" y="303.64" style="stroke: #000000; stroke-width: 0.8"/>
      </g>
     </g>
     <g id="text_5">
      <!-- 0.100 -->
      <g transform="translate(260.671697 318.238437) scale(0.1 -0.1)">
       <defs>
        <path id="DejaVuSans-31" d="M 794 531 
L 1825 531 
L 1825 4091 
L 703 3866 
L 703 4441 
L 1819 4666 
L 2450 4666 
L 2450 531 
L 3481 531 
L 3481 0 
L 794 0 
L 794 531 
z
" transform="scale(0.015625)"/>
       </defs>
       <use xlink:href="#DejaVuSans-30"/>
       <use xlink:href="#DejaVuSans-2e" transform="translate(63.623047 0)"/>
       <use xlink:href="#DejaVuSans-31" transform="translate(95.410156 0)"/>
       <use xlink:href="#DejaVuSans-30" transform="translate(159.033203 0)"/>
       <use xlink:href="#DejaVuSans-30" transform="translate(222.65625 0)"/>
      </g>
     </g>
    </g>
    <g id="xtick_6">
     <g id="line2d_11">
      <path d="M 324.935977 303.64 
L 324.935977 26.88 
" clip-path="url(#p915aa2b0c4)" style="fill: none; stroke: #b0b0b0; stroke-opacity: 0.3; stroke-width: 0.8; stroke-linecap: square"/>
     </g>
     <g id="line2d_12">
      <g>
       <use xlink:href="#m06691e9a18" x="324.935977" y="303.64" style="stroke: #000000; stroke-width: 0.8"/>
      </g>
     </g>
     <g id="text_6">
      <!-- 0.125 -->
      <g transform="translate(310.621915 318.238437) scale(0.1 -0.1)">
       <use xlink:href="#DejaVuSans-30"/>
       <use xlink:href="#DejaVuSans-2e" transform="translate(63.623047 0)"/>
       <use xlink:href="#DejaVuSans-31" transform="translate(95.410156 0)"/>
       <use xlink:href="#DejaVuSans-32" transform="translate(159.033203 0)"/>
       <use xlink:href="#DejaVuSans-35" transform="translate(222.65625 0)"/>
      </g>
     </g>
    </g>
    <g id="xtick_7">
     <g id="line2d_13">
      <path d="M 374.886195 303.64 
L 374.886195 26.88 
" clip-path="url(#p915aa2b0c4)" style="fill: none; stroke: #b0b0b0; stroke-opacity: 0.3; stroke-width: 0.8; stroke-linecap: square"/>
     </g>
     <g id="line2d_14">
      <g>
       <use xlink:href="#m06691e9a18" x="374.886195" y="303.64" style="stroke: #000000; stroke-width: 0.8"/>
      </g>
     </g>
     <g id="text_7">
      <!-- 0.150 -->
      <g transform="translate(360.572133 318.238437) scale(0.1 -0.1)">
       <use xlink:href="#DejaVuSans-30"/>
       <use xlink:href="#DejaVuSans-2e" transform="translate(63.623047 0)"/>
       <use xlink:href="#DejaVuSans-31" transform="translate(95.410156 0)"/>
       <use xlink:href="#DejaVuSans-35" transform="translate(159.033203 0)"/>
       <use xlink:href="#DejaVuSans-30" transform="translate(222.65625 0)"/>
      </g>
     </g>
    </g>
    <g id="xtick_8">
     <g id="line2d_15">
      <path d="M 424.836413 303.64 
L 424.836413 26.88 
" clip-path="url(#p915aa2b0c4)" style="fill: none; stroke: #b0b0b0; stroke-opacity: 0.3; stroke-width: 0.8; stroke-linecap: square"/>
     </g>
     <g id="line2d_16">
      <g>
       <use xlink:href="#m06691e9a18" x="424.836413" y="303.64" style="stroke: #000000; stroke-width: 0.8"/>
      </g>
     </g>
     <g id="text_8">
      <!-- 0.175 -->
      <g transform="translate(410.52235 318.238437) scale(0.1 -0.1)">
       <use xlink:href="#DejaVuSans-30"/>
       <use xlink:href="#DejaVuSans-2e" transform="translate(63.623047 0)"/>
       <use xlink:href="#DejaVuSans-31" transform="translate(95.410156 0)"/>
       <use xlink:href="#DejaVuSans-37" transform="translate(159.033203 0)"/>
       <use xlink:href="#DejaVuSans-35" transform="translate(222.65625 0)"/>
      </g>
     </g>
    </g>
    <g id="text_9">
     <!-- Strain [-] -->
     <g transform="translate(231.47875 331.916562) scale(0.1 -0.1)">
      <defs>
       <path id="DejaVuSans-53" d="M 3425 4513 
L 3425 3897 
Q 3066 4069 2747 4153 
Q 2428 4238 2131 4238 
Q 1616 4238 1336 4038 
Q 1056 3838 1056 3469 
Q 1056 3159 1242 3001 
Q 1428 2844 1947 2747 
L 2328 2669 
Q 3034 2534 3370 2195 
Q 3706 1856 3706 1288 
Q 3706 609 3251 259 
Q 2797 -91 1919 -91 
Q 1588 -91 1214 -16 
Q 841 59 441 206 
L 441 856 
Q 825 641 1194 531 
Q 1563 422 1919 422 
Q 2459 422 2753 634 
Q 3047 847 3047 1241 
Q 3047 1584 2836 1778 
Q 2625 1972 2144 2069 
L 1759 2144 
Q 1053 2284 737 2584 
Q 422 2884 422 3419 
Q 422 4038 858 4394 
Q 1294 4750 2059 4750 
Q 2388 4750 2728 4690 
Q 3069 4631 3425 4513 
z
" transform="scale(0.015625)"/>
       <path id="DejaVuSans-74" d="M 1172 4494 
L 1172 3500 
L 2356 3500 
L 2356 3053 
L 1172 3053 
L 1172 1153 
Q 1172 725 1289 603 
Q 1406 481 1766 481 
L 2356 481 
L 2356 0 
L 1766 0 
Q 1100 0 847 248 
Q 594 497 594 1153 
L 594 3053 
L 172 3053 
L 172 3500 
L 594 3500 
L 594 4494 
L 1172 4494 
z
" transform="scale(0.015625)"/>
       <path id="DejaVuSans-72" d="M 2631 2963 
Q 2534 3019 2420 3045 
Q 2306 3072 2169 3072 
Q 1681 3072 1420 2755 
Q 1159 2438 1159 1844 
L 1159 0 
L 581 0 
L 581 3500 
L 1159 3500 
L 1159 2956 
Q 1341 3275 1631 3429 
Q 1922 3584 2338 3584 
Q 2397 3584 2469 3576 
Q 2541 3569 2628 3553 
L 2631 2963 
z
" transform="scale(0.015625)"/>
       <path id="DejaVuSans-61" d="M 2194 1759 
Q 1497 1759 1228 1600 
Q 959 1441 959 1056 
Q 959 750 1161 570 
Q 1363 391 1709 391 
Q 2188 391 2477 730 
Q 2766 1069 2766 1631 
L 2766 1759 
L 2194 1759 
z
M 3341 1997 
L 3341 0 
L 2766 0 
L 2766 531 
Q 2569 213 2275 61 
Q 1981 -91 1556 -91 
Q 1019 -91 701 211 
Q 384 513 384 1019 
Q 384 1609 779 1909 
Q 1175 2209 1959 2209 
L 2766 2209 
L 2766 2266 
Q 2766 2663 2505 2880 
Q 2244 3097 1772 3097 
Q 1472 3097 1187 3025 
Q 903 2953 641 2809 
L 641 3341 
Q 956 3463 1253 3523 
Q 1550 3584 1831 3584 
Q 2591 3584 2966 3190 
Q 3341 2797 3341 1997 
z
" transform="scale(0.015625)"/>
       <path id="DejaVuSans-69" d="M 603 3500 
L 1178 3500 
L 1178 0 
L 603 0 
L 603 3500 
z
M 603 4863 
L 1178 4863 
L 1178 4134 
L 603 4134 
L 603 4863 
z
" transform="scale(0.015625)"/>
       <path id="DejaVuSans-6e" d="M 3513 2113 
L 3513 0 
L 2938 0 
L 2938 2094 
Q 2938 2591 2744 2837 
Q 2550 3084 2163 3084 
Q 1697 3084 1428 2787 
Q 1159 2491 1159 1978 
L 1159 0 
L 581 0 
L 581 3500 
L 1159 3500 
L 1159 2956 
Q 1366 3272 1645 3428 
Q 1925 3584 2291 3584 
Q 2894 3584 3203 3211 
Q 3513 2838 3513 2113 
z
" transform="scale(0.015625)"/>
       <path id="DejaVuSans-20" transform="scale(0.015625)"/>
       <path id="DejaVuSans-5b" d="M 550 4863 
L 1875 4863 
L 1875 4416 
L 1125 4416 
L 1125 -397 
L 1875 -397 
L 1875 -844 
L 550 -844 
L 550 4863 
z
" transform="scale(0.015625)"/>
       <path id="DejaVuSans-2d" d="M 313 2009 
L 1997 2009 
L 1997 1497 
L 313 1497 
L 313 2009 
z
" transform="scale(0.015625)"/>
       <path id="DejaVuSans-5d" d="M 1947 4863 
L 1947 -844 
L 622 -844 
L 622 -397 
L 1369 -397 
L 1369 4416 
L 622 4416 
L 622 4863 
L 1947 4863 
z
" transform="scale(0.015625)"/>
      </defs>
      <use xlink:href="#DejaVuSans-53"/>
      <use xlink:href="#DejaVuSans-74" transform="translate(63.476562 0)"/>
      <use xlink:href="#DejaVuSans-72" transform="translate(102.685547 0)"/>
      <use xlink:href="#DejaVuSans-61" transform="translate(143.798828 0)"/>
      <use xlink:href="#DejaVuSans-69" transform="translate(205.078125 0)"/>
      <use xlink:href="#DejaVuSans-6e" transform="translate(232.861328 0)"/>
      <use xlink:href="#DejaVuSans-20" transform="translate(296.240234 0)"/>
      <use xlink:href="#DejaVuSans-5b" transform="translate(328.027344 0)"/>
      <use xlink:href="#DejaVuSans-2d" transform="translate(367.041016 0)"/>
      <use xlink:href="#DejaVuSans-5d" transform="translate(403.125 0)"/>
     </g>
    </g>
   </g>
   <g id="matplotlib.axis_2">
    <g id="ytick_1">
     <g id="line2d_17">
      <path d="M 57.17 273.297562 
L 450 273.297562 
" clip-path="url(#p915aa2b0c4)" style="fill: none; stroke: #b0b0b0; stroke-opacity: 0.3; stroke-width: 0.8; stroke-linecap: square"/>
     </g>
     <g id="line2d_18">
      <defs>
       <path id="m2c31f793da" d="M 0 0 
L -3.5 0 
" style="stroke: #000000; stroke-width: 0.8"/>
      </defs>
      <g>
       <use xlink:href="#m2c31f793da" x="57.17" y="273.297562" style="stroke: #000000; stroke-width: 0.8"/>
      </g>
     </g>
     <g id="text_10">
      <!-- 0 -->
      <g transform="translate(43.8075 277.096781) scale(0.1 -0.1)">
       <use xlink:href="#DejaVuSans-30"/>
      </g>
     </g>
    </g>
    <g id="ytick_2">
     <g id="line2d_19">
      <path d="M 57.17 235.997072 
L 450 235.997072 
" clip-path="url(#p915aa2b0c4)" style="fill: none; stroke: #b0b0b0; stroke-opacity: 0.3; stroke-width: 0.8; stroke-linecap: square"/>
     </g>
     <g id="line2d_20">
      <g>
       <use xlink:href="#m2c31f793da" x="57.17" y="235.997072" style="stroke: #000000; stroke-width: 0.8"/>
      </g>
     </g>
     <g id="text_11">
      <!-- 250 -->
      <g transform="translate(31.0825 239.796291) scale(0.1 -0.1)">
       <use xlink:href="#DejaVuSans-32"/>
       <use xlink:href="#DejaVuSans-35" transform="translate(63.623047 0)"/>
       <use xlink:href="#DejaVuSans-30" transform="translate(127.246094 0)"/>
      </g>
     </g>
    </g>
    <g id="ytick_3">
     <g id="line2d_21">
      <path d="M 57.17 198.696582 
L 450 198.696582 
" clip-path="url(#p915aa2b0c4)" style="fill: none; stroke: #b0b0b0; stroke-opacity: 0.3; stroke-width: 0.8; stroke-linecap: square"/>
     </g>
     <g id="line2d_22">
      <g>
       <use xlink:href="#m2c31f793da" x="57.17" y="198.696582" style="stroke: #000000; stroke-width: 0.8"/>
      </g>
     </g>
     <g id="text_12">
      <!-- 500 -->
      <g transform="translate(31.0825 202.4958) scale(0.1 -0.1)">
       <use xlink:href="#DejaVuSans-35"/>
       <use xlink:href="#DejaVuSans-30" transform="translate(63.623047 0)"/>
       <use xlink:href="#DejaVuSans-30" transform="translate(127.246094 0)"/>
      </g>
     </g>
    </g>
    <g id="ytick_4">
     <g id="line2d_23">
      <path d="M 57.17 161.396091 
L 450 161.396091 
" clip-path="url(#p915aa2b0c4)" style="fill: none; stroke: #b0b0b0; stroke-opacity: 0.3; stroke-width: 0.8; stroke-linecap: square"/>
     </g>
     <g id="line2d_24">
      <g>
       <use xlink:href="#m2c31f793da" x="57.17" y="161.396091" style="stroke: #000000; stroke-width: 0.8"/>
      </g>
     </g>
     <g id="text_13">
      <!-- 750 -->
      <g transform="translate(31.0825 165.19531) scale(0.1 -0.1)">
       <use xlink:href="#DejaVuSans-37"/>
       <use xlink:href="#DejaVuSans-35" transform="translate(63.623047 0)"/>
       <use xlink:href="#DejaVuSans-30" transform="translate(127.246094 0)"/>
      </g>
     </g>
    </g>
    <g id="ytick_5">
     <g id="line2d_25">
      <path d="M 57.17 124.095601 
L 450 124.095601 
" clip-path="url(#p915aa2b0c4)" style="fill: none; stroke: #b0b0b0; stroke-opacity: 0.3; stroke-width: 0.8; stroke-linecap: square"/>
     </g>
     <g id="line2d_26">
      <g>
       <use xlink:href="#m2c31f793da" x="57.17" y="124.095601" style="stroke: #000000; stroke-width: 0.8"/>
      </g>
     </g>
     <g id="text_14">
      <!-- 1000 -->
      <g transform="translate(24.72 127.89482) scale(0.1 -0.1)">
       <use xlink:href="#DejaVuSans-31"/>
       <use xlink:href="#DejaVuSans-30" transform="translate(63.623047 0)"/>
       <use xlink:href="#DejaVuSans-30" transform="translate(127.246094 0)"/>
       <use xlink:href="#DejaVuSans-30" transform="translate(190.869141 0)"/>
      </g>
     </g>
    </g>
    <g id="ytick_6">
     <g id="line2d_27">
      <path d="M 57.17 86.795111 
L 450 86.795111 
" clip-path="url(#p915aa2b0c4)" style="fill: none; stroke: #b0b0b0; stroke-opacity: 0.3; stroke-width: 0.8; stroke-linecap: square"/>
     </g>
     <g id="line2d_28">
      <g>
       <use xlink:href="#m2c31f793da" x="57.17" y="86.795111" style="stroke: #000000; stroke-width: 0.8"/>
      </g>
     </g>
     <g id="text_15">
      <!-- 1250 -->
      <g transform="translate(24.72 90.59433) scale(0.1 -0.1)">
       <use xlink:href="#DejaVuSans-31"/>
       <use xlink:href="#DejaVuSans-32" transform="translate(63.623047 0)"/>
       <use xlink:href="#DejaVuSans-35" transform="translate(127.246094 0)"/>
       <use xlink:href="#DejaVuSans-30" transform="translate(190.869141 0)"/>
      </g>
     </g>
    </g>
    <g id="ytick_7">
     <g id="line2d_29">
      <path d="M 57.17 49.494621 
L 450 49.494621 
" clip-path="url(#p915aa2b0c4)" style="fill: none; stroke: #b0b0b0; stroke-opacity: 0.3; stroke-width: 0.8; stroke-linecap: square"/>
     </g>
     <g id="line2d_30">
      <g>
       <use xlink:href="#m2c31f793da" x="57.17" y="49.494621" style="stroke: #000000; stroke-width: 0.8"/>
      </g>
     </g>
     <g id="text_16">
      <!-- 1500 -->
      <g transform="translate(24.72 53.293839) scale(0.1 -0.1)">
       <use xlink:href="#DejaVuSans-31"/>
       <use xlink:href="#DejaVuSans-35" transform="translate(63.623047 0)"/>
       <use xlink:href="#DejaVuSans-30" transform="translate(127.246094 0)"/>
       <use xlink:href="#DejaVuSans-30" transform="translate(190.869141 0)"/>
      </g>
     </g>
    </g>
    <g id="text_17">
     <!-- Stress [Pa] -->
     <g transform="translate(18.640312 191.967812) rotate(-90) scale(0.1 -0.1)">
      <defs>
       <path id="DejaVuSans-65" d="M 3597 1894 
L 3597 1613 
L 953 1613 
Q 991 1019 1311 708 
Q 1631 397 2203 397 
Q 2534 397 2845 478 
Q 3156 559 3463 722 
L 3463 178 
Q 3153 47 2828 -22 
Q 2503 -91 2169 -91 
Q 1331 -91 842 396 
Q 353 884 353 1716 
Q 353 2575 817 3079 
Q 1281 3584 2069 3584 
Q 2775 3584 3186 3129 
Q 3597 2675 3597 1894 
z
M 3022 2063 
Q 3016 2534 2758 2815 
Q 2500 3097 2075 3097 
Q 1594 3097 1305 2825 
Q 1016 2553 972 2059 
L 3022 2063 
z
" transform="scale(0.015625)"/>
       <path id="DejaVuSans-73" d="M 2834 3397 
L 2834 2853 
Q 2591 2978 2328 3040 
Q 2066 3103 1784 3103 
Q 1356 3103 1142 2972 
Q 928 2841 928 2578 
Q 928 2378 1081 2264 
Q 1234 2150 1697 2047 
L 1894 2003 
Q 2506 1872 2764 1633 
Q 3022 1394 3022 966 
Q 3022 478 2636 193 
Q 2250 -91 1575 -91 
Q 1294 -91 989 -36 
Q 684 19 347 128 
L 347 722 
Q 666 556 975 473 
Q 1284 391 1588 391 
Q 1994 391 2212 530 
Q 2431 669 2431 922 
Q 2431 1156 2273 1281 
Q 2116 1406 1581 1522 
L 1381 1569 
Q 847 1681 609 1914 
Q 372 2147 372 2553 
Q 372 3047 722 3315 
Q 1072 3584 1716 3584 
Q 2034 3584 2315 3537 
Q 2597 3491 2834 3397 
z
" transform="scale(0.015625)"/>
       <path id="DejaVuSans-50" d="M 1259 4147 
L 1259 2394 
L 2053 2394 
Q 2494 2394 2734 2622 
Q 2975 2850 2975 3272 
Q 2975 3691 2734 3919 
Q 2494 4147 2053 4147 
L 1259 4147 
z
M 628 4666 
L 2053 4666 
Q 2838 4666 3239 4311 
Q 3641 3956 3641 3272 
Q 3641 2581 3239 2228 
Q 2838 1875 2053 1875 
L 1259 1875 
L 1259 0 
L 628 0 
L 628 4666 
z
" transform="scale(0.015625)"/>
      </defs>
      <use xlink:href="#DejaVuSans-53"/>
      <use xlink:href="#DejaVuSans-74" transform="translate(63.476562 0)"/>
      <use xlink:href="#DejaVuSans-72" transform="translate(102.685547 0)"/>
      <use xlink:href="#DejaVuSans-65" transform="translate(141.548828 0)"/>
      <use xlink:href="#DejaVuSans-73" transform="translate(203.072266 0)"/>
      <use xlink:href="#DejaVuSans-73" transform="translate(255.171875 0)"/>
      <use xlink:href="#DejaVuSans-20" transform="translate(307.271484 0)"/>
      <use xlink:href="#DejaVuSans-5b" transform="translate(339.058594 0)"/>
      <use xlink:href="#DejaVuSans-50" transform="translate(378.072266 0)"/>
      <use xlink:href="#DejaVuSans-61" transform="translate(433.875 0)"/>
      <use xlink:href="#DejaVuSans-5d" transform="translate(495.154297 0)"/>
     </g>
    </g>
   </g>
   <g id="line2d_31">
    <path d="M 75.184889 273.746482 
L 75.184889 273.532277 
L 75.181222 273.83148 
L 75.215118 273.668028 
L 76.671341 269.888431 
L 77.422633 269.801754 
L 78.152022 270.293139 
L 78.893515 270.32316 
L 80.385209 270.039867 
L 81.873093 269.037145 
L 82.680459 268.78442 
L 83.416507 268.806368 
L 84.174332 269.168864 
L 84.941412 270.335142 
L 85.690526 271.186889 
L 86.408608 271.045547 
L 88.685892 269.092001 
L 89.401253 268.522387 
L 90.190109 268.169091 
L 92.463582 268.354752 
L 93.243456 267.473674 
L 93.977326 266.029981 
L 94.708746 264.978821 
L 95.46766 264.414554 
L 96.185742 264.217187 
L 98.435806 264.034773 
L 100.659738 263.324485 
L 102.163954 262.41565 
L 108.299229 259.467323 
L 109.07012 259.178113 
L 112.15341 257.47163 
L 116.708038 255.850285 
L 120.430198 253.748594 
L 121.875073 253.119377 
L 124.746858 251.682762 
L 126.178123 251.160799 
L 127.730247 250.417722 
L 129.27475 249.495676 
L 130.821975 248.801823 
L 140.717792 244.086702 
L 142.279716 243.168746 
L 145.396487 241.533032 
L 147.732024 240.2054 
L 149.87756 239.232087 
L 151.307736 238.348729 
L 152.746538 237.545048 
L 160.09504 233.872751 
L 163.934249 231.454961 
L 166.802767 229.981387 
L 172.561036 226.559928 
L 174.739237 225.604857 
L 180.793667 222.088411 
L 181.576534 221.539555 
L 186.002077 219.214706 
L 188.936895 217.556272 
L 190.38177 216.859116 
L 199.739161 211.429068 
L 201.954382 210.077532 
L 203.450977 209.195904 
L 205.015078 208.025852 
L 208.59188 205.864086 
L 210.751571 204.663682 
L 212.192635 203.964167 
L 212.910173 203.444249 
L 214.343615 202.597376 
L 217.217033 200.880986 
L 226.917779 195.105628 
L 230.831028 192.618952 
L 233.164932 191.203567 
L 237.775031 188.260823 
L 241.489569 185.977963 
L 247.59844 181.854945 
L 249.811484 180.751102 
L 251.358709 179.711108 
L 258.310878 174.991111 
L 259.740186 174.171013 
L 269.246202 167.909977 
L 270.025259 167.262674 
L 273.900126 164.799903 
L 276.992399 162.553528 
L 278.560856 161.62189 
L 280.776077 160.014012 
L 284.378466 157.756315 
L 286.658472 155.849948 
L 288.102259 154.960299 
L 290.270116 153.657358 
L 293.143534 151.636817 
L 294.577521 150.761794 
L 295.359215 150.194175 
L 296.917328 148.836034 
L 301.617255 145.547307 
L 303.182446 144.479634 
L 303.96368 143.974027 
L 307.74137 140.988822 
L 310.631121 138.979918 
L 312.071096 137.877804 
L 315.666952 135.633475 
L 317.814666 133.894752 
L 320.694617 131.835838 
L 323.695428 129.289087 
L 325.973801 127.795384 
L 326.749591 127.205954 
L 328.302805 125.744647 
L 329.016532 125.182267 
L 330.453241 124.340899 
L 334.059576 121.489566 
L 334.79018 121.163241 
L 336.967837 119.7142 
L 340.624122 116.879655 
L 342.186047 115.531579 
L 346.085685 112.386278 
L 346.865831 111.695884 
L 348.43211 110.739083 
L 349.997301 109.390693 
L 352.928971 106.942714 
L 355.096284 105.21846 
L 360.167502 101.161022 
L 362.321205 99.384241 
L 366.17239 96.384567 
L 368.51133 94.564479 
L 370.065088 93.230557 
L 373.15736 90.752689 
L 376.247727 88.073207 
L 379.369942 85.509472 
L 380.930234 84.039358 
L 384.82715 80.966084 
L 394.954342 72.069599 
L 396.508645 70.623075 
L 398.855614 68.59467 
L 401.070291 66.450518 
L 403.957183 64.199289 
L 405.391715 62.813154 
L 409.821613 58.821767 
L 415.272832 53.897483 
L 416.815157 52.218522 
L 419.153416 50.300202 
L 420.708263 48.660871 
L 422.140617 47.477923 
L 423.57787 46.386189 
L 425.849166 44.172841 
L 426.613523 43.612348 
L 428.125362 42.785448 
L 430.364809 41.424634 
L 431.084117 40.820186 
L 431.803526 39.46 
L 432.144091 39.957803 
L 431.971376 61.041819 
L 431.972873 61.042881 
L 431.971988 60.905824 
L 431.972737 69.240735 
L 431.973621 68.917005 
L 431.519784 69.219642 
L 430.801906 70.281338 
L 430.057011 71.794346 
L 429.302453 72.708017 
L 428.572122 72.459381 
L 427.836074 72.669467 
L 426.341759 73.499669 
L 425.620682 73.607514 
L 424.872113 74.289651 
L 424.122999 74.005552 
L 422.654986 77.232002 
L 421.180168 79.120755 
L 420.455553 80.351197 
L 419.723588 80.94558 
L 418.960319 80.866653 
L 418.214472 81.173634 
L 416.714883 82.096387 
L 415.993262 82.640092 
L 415.257214 84.202678 
L 414.520349 86.19554 
L 413.799817 86.960792 
L 413.082552 87.439507 
L 412.35712 87.572101 
L 410.919866 88.615751 
L 410.176197 89.754351 
L 407.994457 92.048219 
L 407.257728 92.808595 
L 406.525593 93.312394 
L 405.033899 94.981605 
L 404.310917 95.67829 
L 402.126999 97.21988 
L 399.933827 99.580272 
L 398.491537 101.178714 
L 397.775088 101.595859 
L 396.329397 102.89943 
L 393.364517 105.983869 
L 386.780916 111.686458 
L 385.314537 113.36542 
L 383.116192 115.216587 
L 381.663968 116.380191 
L 378.767957 118.81717 
L 377.286606 120.386047 
L 375.109766 122.131374 
L 373.658357 123.132445 
L 369.267453 127.083573 
L 367.80434 128.048551 
L 366.349393 129.326959 
L 363.404657 131.715343 
L 361.926844 132.933833 
L 360.474892 134.49752 
L 359.02185 135.534997 
L 357.559282 136.494707 
L 355.38217 138.604418 
L 353.209685 139.991889 
L 351.019541 142.014416 
L 349.536148 143.143501 
L 348.787306 143.614981 
L 347.296428 144.951892 
L 345.059975 146.528317 
L 342.865169 148.289214 
L 341.406139 149.316823 
L 340.681524 149.697483 
L 336.259656 153.350514 
L 335.522519 153.757202 
L 331.8695 156.730475 
L 331.129369 157.038636 
L 330.384338 157.471115 
L 326.692121 160.194081 
L 325.965873 160.431806 
L 325.240441 160.831102 
L 322.311765 163.476144 
L 320.84838 164.139055 
L 320.133019 164.634519 
L 317.20829 167.181426 
L 315.733932 167.708746 
L 314.997067 168.272148 
L 313.543481 169.82231 
L 312.075196 170.835176 
L 310.610178 171.381908 
L 307.683952 173.701489 
L 306.207909 174.580129 
L 304.758678 175.725018 
L 303.303187 176.607039 
L 301.84756 177.509348 
L 300.374919 178.713998 
L 297.431527 180.596166 
L 295.247882 182.348099 
L 293.754826 183.016868 
L 287.125903 187.556875 
L 284.981456 188.533452 
L 282.747996 190.209426 
L 276.917338 193.622613 
L 275.446058 194.964399 
L 273.969063 195.581467 
L 272.485262 196.227748 
L 271.767996 196.687906 
L 269.533721 198.481357 
L 268.046925 199.170413 
L 265.860286 200.578801 
L 263.694879 201.907061 
L 262.231902 202.858083 
L 261.492179 203.381775 
L 258.564047 204.883381 
L 256.354815 206.480487 
L 254.164364 207.486236 
L 252.700979 208.690493 
L 249.024414 210.642703 
L 248.290952 211.344106 
L 246.848527 212.09827 
L 243.917231 213.810892 
L 243.168661 214.365094 
L 241.695204 214.86441 
L 240.977939 215.159361 
L 240.249785 215.8621 
L 238.778233 216.736887 
L 235.837988 218.017339 
L 235.116912 218.798003 
L 234.382905 219.371155 
L 232.917887 220.053175 
L 230.731519 221.006319 
L 226.282108 223.584394 
L 223.304979 225.085961 
L 215.944771 229.38551 
L 213.010379 230.64131 
L 209.33156 232.863854 
L 207.874435 233.639092 
L 205.669422 234.771951 
L 202.716519 236.449026 
L 202.00252 236.880168 
L 200.554378 237.276122 
L 199.07643 238.179531 
L 197.599571 239.078301 
L 193.976494 240.60047 
L 193.22983 241.172128 
L 191.78276 241.873179 
L 189.612998 242.910932 
L 188.876814 243.338929 
L 187.414653 244.341179 
L 186.672617 244.732376 
L 185.238358 245.211405 
L 174.990169 250.159269 
L 174.246227 250.726838 
L 170.623032 252.309225 
L 166.951639 253.991371 
L 165.471921 254.874414 
L 164.043923 255.547509 
L 162.576182 255.880301 
L 161.115247 256.646261 
L 158.928743 257.838487 
L 157.474341 258.220543 
L 156.759253 258.562673 
L 154.563146 260.197399 
L 153.098672 260.650913 
L 151.649713 260.786073 
L 149.443475 262.360611 
L 147.975734 263.048449 
L 146.531676 263.512932 
L 143.608716 264.845203 
L 142.146964 265.28464 
L 138.48469 267.237361 
L 137.019667 267.421636 
L 136.304851 267.767344 
L 134.834389 268.812528 
L 132.649927 269.546838 
L 131.91279 269.670235 
L 131.190625 270.071575 
L 130.445866 270.739323 
L 129.731595 271.184776 
L 127.536244 271.812382 
L 126.81789 272.001021 
L 123.864988 273.472255 
L 121.689236 274.10594 
L 120.209548 274.858011 
L 118.770934 275.789492 
L 110.020567 279.075133 
L 107.813784 279.959788 
L 105.627145 280.703095 
L 104.170292 281.592508 
L 101.977732 282.615542 
L 100.532313 282.93599 
L 99.067294 283.546532 
L 97.606631 284.069202 
L 96.142157 284.396261 
L 95.407606 284.681069 
L 93.198646 285.823245 
L 90.989412 286.409765 
L 89.515955 287.078181 
L 88.02671 287.663797 
L 85.154653 288.521147 
L 80.056149 290.251514 
L 79.325817 290.388511 
L 76.399455 290.483675 
L 75.672866 290.690938 
L 75.170951 291.06 
L 75.02629 289.63494 
L 75.02629 289.63494 
" clip-path="url(#p915aa2b0c4)" style="fill: none; stroke: #ff0000; stroke-width: 2; stroke-linecap: square"/>
   </g>
   <g id="line2d_32">
    <path d="M 75.184889 273.746482 
L 75.184889 273.532277 
L 75.181222 273.83148 
L 75.215118 273.668028 
L 76.671341 269.888431 
L 77.422633 269.801754 
L 78.152022 270.293139 
L 78.893515 273.257588 
L 81.108736 270.600556 
L 81.873093 269.398264 
L 82.680459 268.787054 
L 83.416507 268.806368 
L 84.174332 269.168864 
L 84.941412 270.335142 
L 85.690526 271.186889 
L 86.408608 271.045547 
L 88.685892 269.092001 
L 89.401253 268.522387 
L 90.190109 268.169091 
L 92.463582 268.354752 
L 93.243456 267.473674 
L 93.977326 266.029981 
L 94.708746 264.978821 
L 95.46766 264.414554 
L 96.185742 264.217187 
L 98.435806 264.034773 
L 100.659738 263.324485 
L 102.163954 262.41565 
L 108.299229 259.467323 
L 109.07012 259.178113 
L 112.15341 257.47163 
L 116.708038 255.850285 
L 120.430198 253.748594 
L 121.875073 253.119377 
L 124.746858 251.682762 
L 126.178123 251.160799 
L 127.730247 250.417722 
L 129.27475 249.495676 
L 130.821975 248.801823 
L 140.717792 244.086702 
L 142.279716 243.168746 
L 145.396487 241.533032 
L 147.732024 240.2054 
L 149.87756 239.232087 
L 151.307736 238.348729 
L 152.746538 237.545048 
L 160.09504 233.872751 
L 163.934249 231.454961 
L 166.802767 229.981387 
L 172.561036 226.559928 
L 174.739237 225.604857 
L 180.793667 222.088411 
L 181.576534 221.539555 
L 186.002077 219.214706 
L 188.936895 217.556272 
L 190.38177 216.859116 
L 199.739161 211.429068 
L 201.954382 210.077532 
L 203.450977 209.195904 
L 205.015078 208.025852 
L 208.59188 205.864086 
L 210.751571 204.663682 
L 212.192635 203.964167 
L 212.910173 203.444249 
L 214.343615 202.597376 
L 217.217033 200.880986 
L 226.917779 195.105628 
L 230.831028 192.618952 
L 233.164932 191.203567 
L 237.775031 188.260823 
L 241.489569 185.977963 
L 247.59844 181.854945 
L 249.811484 180.751102 
L 251.358709 179.711108 
L 258.310878 174.991111 
L 259.740186 174.171013 
L 269.246202 167.909977 
L 270.025259 167.262674 
L 273.900126 164.799903 
L 276.992399 162.553528 
L 278.560856 161.62189 
L 280.776077 160.014012 
L 284.378466 157.756315 
L 286.658472 155.849948 
L 288.102259 154.960299 
L 290.270116 153.657358 
L 293.143534 151.636817 
L 294.577521 150.761794 
L 295.359215 150.194175 
L 296.917328 148.836034 
L 301.617255 145.547307 
L 303.182446 144.479634 
L 303.96368 143.974027 
L 307.74137 140.988822 
L 310.631121 138.979918 
L 312.071096 137.877804 
L 315.666952 135.633475 
L 317.814666 133.894752 
L 320.694617 131.835838 
L 323.695428 129.289087 
L 325.973801 127.795384 
L 326.749591 127.205954 
L 328.302805 125.744647 
L 329.016532 125.182267 
L 330.453241 124.340899 
L 334.059576 121.489566 
L 334.79018 121.163241 
L 336.967837 119.7142 
L 340.624122 116.879655 
L 342.186047 115.531579 
L 346.085685 112.386278 
L 346.865831 111.695884 
L 348.43211 110.739083 
L 349.997301 109.390693 
L 352.928971 106.942714 
L 355.096284 105.21846 
L 360.167502 101.161022 
L 362.321205 99.384241 
L 366.17239 96.384567 
L 368.51133 94.564479 
L 370.065088 93.230557 
L 373.15736 90.752689 
L 376.247727 88.073207 
L 379.369942 85.509472 
L 380.930234 84.039358 
L 384.82715 80.966084 
L 394.954342 72.069599 
L 396.508645 70.623075 
L 398.855614 68.59467 
L 401.070291 66.450518 
L 403.957183 64.199289 
L 405.391715 62.813154 
L 409.821613 58.821767 
L 415.272832 53.897483 
L 416.815157 52.218522 
L 419.153416 50.300202 
L 420.708263 48.660871 
L 422.140617 47.477923 
L 423.57787 46.386189 
L 425.849166 44.172841 
L 426.613523 43.612348 
L 428.125362 42.785448 
L 430.364809 41.424634 
L 431.084117 40.820186 
L 431.803526 39.46 
L 432.144091 39.957803 
L 431.971376 61.041819 
L 431.972873 61.042881 
L 431.971988 60.905824 
L 431.972737 69.240735 
L 431.973621 68.917005 
L 431.519784 69.219642 
L 430.801906 70.33373 
L 430.057011 71.794346 
L 429.302453 72.708017 
L 428.572122 72.459381 
L 427.836074 72.669467 
L 426.341759 73.499669 
L 425.620682 73.607514 
L 424.872113 74.289651 
L 424.122999 74.005552 
L 422.654986 77.232002 
L 421.180168 79.120755 
L 420.455553 80.351197 
L 419.723588 80.94558 
L 418.960319 80.866653 
L 418.214472 81.173634 
L 416.714883 82.096387 
L 415.993262 82.640092 
L 415.257214 84.202678 
L 414.520349 86.19554 
L 413.799817 86.960792 
L 413.082552 87.439507 
L 412.35712 87.572101 
L 410.919866 88.615751 
L 410.176197 89.754351 
L 407.994457 92.048219 
L 407.257728 92.808595 
L 406.525593 93.312394 
L 405.033899 94.981605 
L 404.310917 95.67829 
L 402.126999 97.21988 
L 399.933827 99.580272 
L 398.491537 101.178714 
L 397.775088 101.595859 
L 396.329397 102.89943 
L 393.364517 105.983869 
L 386.780916 111.686458 
L 385.314537 113.36542 
L 383.116192 115.216587 
L 381.663968 116.380191 
L 378.767957 118.81717 
L 377.286606 120.386047 
L 375.109766 122.131374 
L 373.658357 123.132445 
L 369.267453 127.083573 
L 367.80434 128.048551 
L 366.349393 129.326959 
L 363.404657 131.715343 
L 361.926844 132.933833 
L 360.474892 134.49752 
L 359.02185 135.534997 
L 357.559282 136.494707 
L 355.38217 138.604418 
L 353.209685 139.991889 
L 351.019541 142.014416 
L 349.536148 143.143501 
L 348.787306 143.614981 
L 347.296428 144.951892 
L 345.059975 146.528317 
L 342.865169 148.289214 
L 341.406139 149.316823 
L 340.681524 149.697483 
L 336.259656 153.350514 
L 335.522519 153.757202 
L 331.8695 156.730475 
L 331.129369 157.038636 
L 330.384338 157.471115 
L 326.692121 160.194081 
L 325.965873 160.431806 
L 325.240441 160.831102 
L 322.311765 163.476144 
L 320.84838 164.139055 
L 320.133019 164.634519 
L 317.20829 167.181426 
L 315.733932 167.708746 
L 314.997067 168.272148 
L 313.543481 169.82231 
L 312.075196 170.835176 
L 310.610178 171.381908 
L 307.683952 173.701489 
L 306.207909 174.580129 
L 304.758678 175.725018 
L 303.303187 176.607039 
L 301.84756 177.509348 
L 300.374919 178.713998 
L 297.431527 180.596166 
L 295.247882 182.348099 
L 293.754826 183.016868 
L 287.125903 187.556875 
L 284.981456 188.533452 
L 282.747996 190.209426 
L 276.917338 193.622613 
L 275.446058 194.964399 
L 273.969063 195.581467 
L 272.485262 196.227748 
L 271.767996 196.687906 
L 269.533721 198.481357 
L 268.046925 199.170413 
L 265.860286 200.578801 
L 263.694879 201.907061 
L 262.231902 202.858083 
L 261.492179 203.381775 
L 258.564047 204.883381 
L 256.354815 206.480487 
L 254.164364 207.486236 
L 252.700979 208.690493 
L 249.024414 210.642703 
L 248.290952 211.344106 
L 246.848527 212.09827 
L 243.917231 213.810892 
L 243.168661 214.365094 
L 241.695204 214.86441 
L 240.977939 215.159361 
L 240.249785 215.8621 
L 238.778233 216.736887 
L 235.837988 218.017339 
L 235.116912 218.798003 
L 234.382905 219.371155 
L 232.917887 220.053175 
L 230.731519 221.006319 
L 226.282108 223.584394 
L 223.304979 225.085961 
L 215.944771 229.38551 
L 213.010379 230.64131 
L 209.33156 232.863854 
L 207.874435 233.639092 
L 205.669422 234.771951 
L 202.716519 236.449026 
L 202.00252 236.880168 
L 200.554378 237.276122 
L 199.07643 238.179531 
L 197.599571 239.078301 
L 193.976494 240.60047 
L 193.22983 241.172128 
L 191.78276 241.873179 
L 189.612998 242.910932 
L 188.876814 243.338929 
L 187.414653 244.341179 
L 186.672617 244.732376 
L 185.238358 245.211405 
L 174.990169 250.159269 
L 174.246227 250.726838 
L 170.623032 252.309225 
L 166.951639 253.991371 
L 165.471921 254.874414 
L 164.043923 255.547509 
L 162.576182 255.880301 
L 161.115247 256.646261 
L 158.928743 257.838487 
L 157.474341 258.220543 
L 156.759253 258.562673 
L 154.563146 260.197399 
L 153.098672 260.650913 
L 151.649713 260.786073 
L 149.443475 262.360611 
L 147.975734 263.048449 
L 146.531676 263.512932 
L 143.608716 264.845203 
L 142.146964 265.28464 
L 138.48469 267.237361 
L 137.019667 267.421636 
L 136.304851 267.767344 
L 134.834389 268.812528 
L 132.649927 269.546838 
L 131.91279 269.670235 
L 131.190625 270.071575 
L 130.445866 270.739323 
L 129.731595 271.184776 
L 127.536244 271.812382 
L 126.81789 272.001021 
L 123.864988 273.472255 
L 121.689236 274.10594 
L 120.209548 274.858011 
L 118.770934 275.789492 
L 110.020567 279.075133 
L 107.813784 279.959788 
L 105.627145 280.703095 
L 104.170292 281.592508 
L 101.977732 282.615542 
L 100.532313 282.93599 
L 99.067294 283.546532 
L 97.606631 284.069202 
L 96.142157 284.396261 
L 95.407606 284.681069 
L 93.198646 285.823245 
L 90.989412 286.409765 
L 89.515955 287.078181 
L 88.02671 287.663797 
L 85.154653 288.521147 
L 80.056149 290.251514 
L 79.325817 290.388511 
L 76.399455 290.483675 
L 75.672866 290.690938 
L 75.170951 291.06 
L 75.02629 289.63494 
L 75.02629 289.63494 
" clip-path="url(#p915aa2b0c4)" style="fill: none; stroke: #000000; stroke-width: 2; stroke-linecap: square"/>
   </g>
   <g id="patch_3">
    <path d="M 57.17 303.64 
L 57.17 26.88 
" style="fill: none; stroke: #000000; stroke-width: 0.8; stroke-linejoin: miter; stroke-linecap: square"/>
   </g>
   <g id="patch_4">
    <path d="M 450 303.64 
L 450 26.88 
" style="fill: none; stroke: #000000; stroke-width: 0.8; stroke-linejoin: miter; stroke-linecap: square"/>
   </g>
   <g id="patch_5">
    <path d="M 57.17 303.64 
L 450 303.64 
" style="fill: none; stroke: #000000; stroke-width: 0.8; stroke-linejoin: miter; stroke-linecap: square"/>
   </g>
   <g id="patch_6">
    <path d="M 57.17 26.88 
L 450 26.88 
" style="fill: none; stroke: #000000; stroke-width: 0.8; stroke-linejoin: miter; stroke-linecap: square"/>
   </g>
   <g id="text_18">
    <!-- 2025-07-02 Trial 18 - Stress vs Strain -->
    <g transform="translate(142.330938 20.88) scale(0.12 -0.12)">
     <defs>
      <path id="DejaVuSans-54" d="M -19 4666 
L 3928 4666 
L 3928 4134 
L 2272 4134 
L 2272 0 
L 1638 0 
L 1638 4134 
L -19 4134 
L -19 4666 
z
" transform="scale(0.015625)"/>
      <path id="DejaVuSans-6c" d="M 603 4863 
L 1178 4863 
L 1178 0 
L 603 0 
L 603 4863 
z
" transform="scale(0.015625)"/>
      <path id="DejaVuSans-38" d="M 2034 2216 
Q 1584 2216 1326 1975 
Q 1069 1734 1069 1313 
Q 1069 891 1326 650 
Q 1584 409 2034 409 
Q 2484 409 2743 651 
Q 3003 894 3003 1313 
Q 3003 1734 2745 1975 
Q 2488 2216 2034 2216 
z
M 1403 2484 
Q 997 2584 770 2862 
Q 544 3141 544 3541 
Q 544 4100 942 4425 
Q 1341 4750 2034 4750 
Q 2731 4750 3128 4425 
Q 3525 4100 3525 3541 
Q 3525 3141 3298 2862 
Q 3072 2584 2669 2484 
Q 3125 2378 3379 2068 
Q 3634 1759 3634 1313 
Q 3634 634 3220 271 
Q 2806 -91 2034 -91 
Q 1263 -91 848 271 
Q 434 634 434 1313 
Q 434 1759 690 2068 
Q 947 2378 1403 2484 
z
M 1172 3481 
Q 1172 3119 1398 2916 
Q 1625 2713 2034 2713 
Q 2441 2713 2670 2916 
Q 2900 3119 2900 3481 
Q 2900 3844 2670 4047 
Q 2441 4250 2034 4250 
Q 1625 4250 1398 4047 
Q 1172 3844 1172 3481 
z
" transform="scale(0.015625)"/>
      <path id="DejaVuSans-76" d="M 191 3500 
L 800 3500 
L 1894 563 
L 2988 3500 
L 3597 3500 
L 2284 0 
L 1503 0 
L 191 3500 
z
" transform="scale(0.015625)"/>
     </defs>
     <use xlink:href="#DejaVuSans-32"/>
     <use xlink:href="#DejaVuSans-30" transform="translate(63.623047 0)"/>
     <use xlink:href="#DejaVuSans-32" transform="translate(127.246094 0)"/>
     <use xlink:href="#DejaVuSans-35" transform="translate(190.869141 0)"/>
     <use xlink:href="#DejaVuSans-2d" transform="translate(254.492188 0)"/>
     <use xlink:href="#DejaVuSans-30" transform="translate(290.576172 0)"/>
     <use xlink:href="#DejaVuSans-37" transform="translate(354.199219 0)"/>
     <use xlink:href="#DejaVuSans-2d" transform="translate(417.822266 0)"/>
     <use xlink:href="#DejaVuSans-30" transform="translate(453.90625 0)"/>
     <use xlink:href="#DejaVuSans-32" transform="translate(517.529297 0)"/>
     <use xlink:href="#DejaVuSans-20" transform="translate(581.152344 0)"/>
     <use xlink:href="#DejaVuSans-54" transform="translate(612.939453 0)"/>
     <use xlink:href="#DejaVuSans-72" transform="translate(659.273438 0)"/>
     <use xlink:href="#DejaVuSans-69" transform="translate(700.386719 0)"/>
     <use xlink:href="#DejaVuSans-61" transform="translate(728.169922 0)"/>
     <use xlink:href="#DejaVuSans-6c" transform="translate(789.449219 0)"/>
     <use xlink:href="#DejaVuSans-20" transform="translate(817.232422 0)"/>
     <use xlink:href="#DejaVuSans-31" transform="translate(849.019531 0)"/>
     <use xlink:href="#DejaVuSans-38" transform="translate(912.642578 0)"/>
     <use xlink:href="#DejaVuSans-20" transform="translate(976.265625 0)"/>
     <use xlink:href="#DejaVuSans-2d" transform="translate(1008.052734 0)"/>
     <use xlink:href="#DejaVuSans-20" transform="translate(1044.136719 0)"/>
     <use xlink:href="#DejaVuSans-53" transform="translate(1075.923828 0)"/>
     <use xlink:href="#DejaVuSans-74" transform="translate(1139.400391 0)"/>
     <use xlink:href="#DejaVuSans-72" transform="translate(1178.609375 0)"/>
     <use xlink:href="#DejaVuSans-65" transform="translate(1217.472656 0)"/>
     <use xlink:href="#DejaVuSans-73" transform="translate(1278.996094 0)"/>
     <use xlink:href="#DejaVuSans-73" transform="translate(1331.095703 0)"/>
     <use xlink:href="#DejaVuSans-20" transform="translate(1383.195312 0)"/>
     <use xlink:href="#DejaVuSans-76" transform="translate(1414.982422 0)"/>
     <use xlink:href="#DejaVuSans-73" transform="translate(1474.162109 0)"/>
     <use xlink:href="#DejaVuSans-20" transform="translate(1526.261719 0)"/>
     <use xlink:href="#DejaVuSans-53" transform="translate(1558.048828 0)"/>
     <use xlink:href="#DejaVuSans-74" transform="translate(1621.525391 0)"/>
     <use xlink:href="#DejaVuSans-72" transform="translate(1660.734375 0)"/>
     <use xlink:href="#DejaVuSans-61" transform="translate(1701.847656 0)"/>
     <use xlink:href="#DejaVuSans-69" transform="translate(1763.126953 0)"/>
     <use xlink:href="#DejaVuSans-6e" transform="translate(1790.910156 0)"/>
    </g>
   </g>
   <g id="legend_1">
    <g id="patch_7">
     <path d="M 64.17 64.23625 
L 170.154375 64.23625 
Q 172.154375 64.23625 172.154375 62.23625 
L 172.154375 33.88 
Q 172.154375 31.88 170.154375 31.88 
L 64.17 31.88 
Q 62.17 31.88 62.17 33.88 
L 62.17 62.23625 
Q 62.17 64.23625 64.17 64.23625 
z
" style="fill: #ffffff; opacity: 0.8; stroke: #cccccc; stroke-linejoin: miter"/>
    </g>
    <g id="line2d_33">
     <path d="M 66.17 39.978437 
L 76.17 39.978437 
L 86.17 39.978437 
" style="fill: none; stroke: #ff0000; stroke-width: 2; stroke-linecap: square"/>
    </g>
    <g id="text_19">
     <!-- Raw Force -->
     <g transform="translate(94.17 43.478437) scale(0.1 -0.1)">
      <defs>
       <path id="DejaVuSans-52" d="M 2841 2188 
Q 3044 2119 3236 1894 
Q 3428 1669 3622 1275 
L 4263 0 
L 3584 0 
L 2988 1197 
Q 2756 1666 2539 1819 
Q 2322 1972 1947 1972 
L 1259 1972 
L 1259 0 
L 628 0 
L 628 4666 
L 2053 4666 
Q 2853 4666 3247 4331 
Q 3641 3997 3641 3322 
Q 3641 2881 3436 2590 
Q 3231 2300 2841 2188 
z
M 1259 4147 
L 1259 2491 
L 2053 2491 
Q 2509 2491 2742 2702 
Q 2975 2913 2975 3322 
Q 2975 3731 2742 3939 
Q 2509 4147 2053 4147 
L 1259 4147 
z
" transform="scale(0.015625)"/>
       <path id="DejaVuSans-77" d="M 269 3500 
L 844 3500 
L 1563 769 
L 2278 3500 
L 2956 3500 
L 3675 769 
L 4391 3500 
L 4966 3500 
L 4050 0 
L 3372 0 
L 2619 2869 
L 1863 0 
L 1184 0 
L 269 3500 
z
" transform="scale(0.015625)"/>
       <path id="DejaVuSans-46" d="M 628 4666 
L 3309 4666 
L 3309 4134 
L 1259 4134 
L 1259 2759 
L 3109 2759 
L 3109 2228 
L 1259 2228 
L 1259 0 
L 628 0 
L 628 4666 
z
" transform="scale(0.015625)"/>
       <path id="DejaVuSans-6f" d="M 1959 3097 
Q 1497 3097 1228 2736 
Q 959 2375 959 1747 
Q 959 1119 1226 758 
Q 1494 397 1959 397 
Q 2419 397 2687 759 
Q 2956 1122 2956 1747 
Q 2956 2369 2687 2733 
Q 2419 3097 1959 3097 
z
M 1959 3584 
Q 2709 3584 3137 3096 
Q 3566 2609 3566 1747 
Q 3566 888 3137 398 
Q 2709 -91 1959 -91 
Q 1206 -91 779 398 
Q 353 888 353 1747 
Q 353 2609 779 3096 
Q 1206 3584 1959 3584 
z
" transform="scale(0.015625)"/>
       <path id="DejaVuSans-63" d="M 3122 3366 
L 3122 2828 
Q 2878 2963 2633 3030 
Q 2388 3097 2138 3097 
Q 1578 3097 1268 2742 
Q 959 2388 959 1747 
Q 959 1106 1268 751 
Q 1578 397 2138 397 
Q 2388 397 2633 464 
Q 2878 531 3122 666 
L 3122 134 
Q 2881 22 2623 -34 
Q 2366 -91 2075 -91 
Q 1284 -91 818 406 
Q 353 903 353 1747 
Q 353 2603 823 3093 
Q 1294 3584 2113 3584 
Q 2378 3584 2631 3529 
Q 2884 3475 3122 3366 
z
" transform="scale(0.015625)"/>
      </defs>
      <use xlink:href="#DejaVuSans-52"/>
      <use xlink:href="#DejaVuSans-61" transform="translate(67.232422 0)"/>
      <use xlink:href="#DejaVuSans-77" transform="translate(128.511719 0)"/>
      <use xlink:href="#DejaVuSans-20" transform="translate(210.298828 0)"/>
      <use xlink:href="#DejaVuSans-46" transform="translate(242.085938 0)"/>
      <use xlink:href="#DejaVuSans-6f" transform="translate(295.980469 0)"/>
      <use xlink:href="#DejaVuSans-72" transform="translate(357.162109 0)"/>
      <use xlink:href="#DejaVuSans-63" transform="translate(396.025391 0)"/>
      <use xlink:href="#DejaVuSans-65" transform="translate(451.005859 0)"/>
     </g>
    </g>
    <g id="line2d_34">
     <path d="M 66.17 54.656563 
L 76.17 54.656563 
L 86.17 54.656563 
" style="fill: none; stroke: #000000; stroke-width: 2; stroke-linecap: square"/>
    </g>
    <g id="text_20">
     <!-- Adjusted Force -->
     <g transform="translate(94.17 58.156563) scale(0.1 -0.1)">
      <defs>
       <path id="DejaVuSans-41" d="M 2188 4044 
L 1331 1722 
L 3047 1722 
L 2188 4044 
z
M 1831 4666 
L 2547 4666 
L 4325 0 
L 3669 0 
L 3244 1197 
L 1141 1197 
L 716 0 
L 50 0 
L 1831 4666 
z
" transform="scale(0.015625)"/>
       <path id="DejaVuSans-64" d="M 2906 2969 
L 2906 4863 
L 3481 4863 
L 3481 0 
L 2906 0 
L 2906 525 
Q 2725 213 2448 61 
Q 2172 -91 1784 -91 
Q 1150 -91 751 415 
Q 353 922 353 1747 
Q 353 2572 751 3078 
Q 1150 3584 1784 3584 
Q 2172 3584 2448 3432 
Q 2725 3281 2906 2969 
z
M 947 1747 
Q 947 1113 1208 752 
Q 1469 391 1925 391 
Q 2381 391 2643 752 
Q 2906 1113 2906 1747 
Q 2906 2381 2643 2742 
Q 2381 3103 1925 3103 
Q 1469 3103 1208 2742 
Q 947 2381 947 1747 
z
" transform="scale(0.015625)"/>
       <path id="DejaVuSans-6a" d="M 603 3500 
L 1178 3500 
L 1178 -63 
Q 1178 -731 923 -1031 
Q 669 -1331 103 -1331 
L -116 -1331 
L -116 -844 
L 38 -844 
Q 366 -844 484 -692 
Q 603 -541 603 -63 
L 603 3500 
z
M 603 4863 
L 1178 4863 
L 1178 4134 
L 603 4134 
L 603 4863 
z
" transform="scale(0.015625)"/>
       <path id="DejaVuSans-75" d="M 544 1381 
L 544 3500 
L 1119 3500 
L 1119 1403 
Q 1119 906 1312 657 
Q 1506 409 1894 409 
Q 2359 409 2629 706 
Q 2900 1003 2900 1516 
L 2900 3500 
L 3475 3500 
L 3475 0 
L 2900 0 
L 2900 538 
Q 2691 219 2414 64 
Q 2138 -91 1772 -91 
Q 1169 -91 856 284 
Q 544 659 544 1381 
z
M 1991 3584 
L 1991 3584 
z
" transform="scale(0.015625)"/>
      </defs>
      <use xlink:href="#DejaVuSans-41"/>
      <use xlink:href="#DejaVuSans-64" transform="translate(66.658203 0)"/>
      <use xlink:href="#DejaVuSans-6a" transform="translate(130.134766 0)"/>
      <use xlink:href="#DejaVuSans-75" transform="translate(157.917969 0)"/>
      <use xlink:href="#DejaVuSans-73" transform="translate(221.296875 0)"/>
      <use xlink:href="#DejaVuSans-74" transform="translate(273.396484 0)"/>
      <use xlink:href="#DejaVuSans-65" transform="translate(312.605469 0)"/>
      <use xlink:href="#DejaVuSans-64" transform="translate(374.128906 0)"/>
      <use xlink:href="#DejaVuSans-20" transform="translate(437.605469 0)"/>
      <use xlink:href="#DejaVuSans-46" transform="translate(469.392578 0)"/>
      <use xlink:href="#DejaVuSans-6f" transform="translate(523.287109 0)"/>
      <use xlink:href="#DejaVuSans-72" transform="translate(584.46875 0)"/>
      <use xlink:href="#DejaVuSans-63" transform="translate(623.332031 0)"/>
      <use xlink:href="#DejaVuSans-65" transform="translate(678.3125 0)"/>
     </g>
    </g>
   </g>
  </g>
 </g>
 <defs>
  <clipPath id="p915aa2b0c4">
   <rect x="57.17" y="26.88" width="392.83" height="276.76"/>
  </clipPath>
 </defs>
</svg>
