<?xml version="1.0" encoding="utf-8" standalone="no"?>
<!DOCTYPE svg PUBLIC "-//W3C//DTD SVG 1.1//EN"
  "http://www.w3.org/Graphics/SVG/1.1/DTD/svg11.dtd">
<svg xmlns:xlink="http://www.w3.org/1999/xlink" width="460.8pt" height="345.6pt" viewBox="0 0 460.8 345.6" xmlns="http://www.w3.org/2000/svg" version="1.1">
 <metadata>
  <rdf:RDF xmlns:dc="http://purl.org/dc/elements/1.1/" xmlns:cc="http://creativecommons.org/ns#" xmlns:rdf="http://www.w3.org/1999/02/22-rdf-syntax-ns#">
   <cc:Work>
    <dc:type rdf:resource="http://purl.org/dc/dcmitype/StillImage"/>
    <dc:date>2025-07-28T21:15:02.583560</dc:date>
    <dc:format>image/svg+xml</dc:format>
    <dc:creator>
     <cc:Agent>
      <dc:title>Matplotlib v3.10.3, https://matplotlib.org/</dc:title>
     </cc:Agent>
    </dc:creator>
   </cc:Work>
  </rdf:RDF>
 </metadata>
 <defs>
  <style type="text/css">*{stroke-linejoin: round; stroke-linecap: butt}</style>
 </defs>
 <g id="figure_1">
  <g id="patch_1">
   <path d="M 0 345.6 
L 460.8 345.6 
L 460.8 0 
L 0 0 
z
" style="fill: #ffffff"/>
  </g>
  <g id="axes_1">
   <g id="patch_2">
    <path d="M 57.17 303.64 
L 450 303.64 
L 450 26.88 
L 57.17 26.88 
z
" style="fill: #ffffff"/>
   </g>
   <g id="matplotlib.axis_1">
    <g id="xtick_1">
     <g id="line2d_1">
      <path d="M 75.185918 303.64 
L 75.185918 26.88 
" clip-path="url(#pb17b3627a9)" style="fill: none; stroke: #b0b0b0; stroke-opacity: 0.3; stroke-width: 0.8; stroke-linecap: square"/>
     </g>
     <g id="line2d_2">
      <defs>
       <path id="m2d7516fcc2" d="M 0 0 
L 0 3.5 
" style="stroke: #000000; stroke-width: 0.8"/>
      </defs>
      <g>
       <use xlink:href="#m2d7516fcc2" x="75.185918" y="303.64" style="stroke: #000000; stroke-width: 0.8"/>
      </g>
     </g>
     <g id="text_1">
      <!-- 0.000 -->
      <g transform="translate(60.871855 318.238437) scale(0.1 -0.1)">
       <defs>
        <path id="DejaVuSans-30" d="M 2034 4250 
Q 1547 4250 1301 3770 
Q 1056 3291 1056 2328 
Q 1056 1369 1301 889 
Q 1547 409 2034 409 
Q 2525 409 2770 889 
Q 3016 1369 3016 2328 
Q 3016 3291 2770 3770 
Q 2525 4250 2034 4250 
z
M 2034 4750 
Q 2819 4750 3233 4129 
Q 3647 3509 3647 2328 
Q 3647 1150 3233 529 
Q 2819 -91 2034 -91 
Q 1250 -91 836 529 
Q 422 1150 422 2328 
Q 422 3509 836 4129 
Q 1250 4750 2034 4750 
z
" transform="scale(0.015625)"/>
        <path id="DejaVuSans-2e" d="M 684 794 
L 1344 794 
L 1344 0 
L 684 0 
L 684 794 
z
" transform="scale(0.015625)"/>
       </defs>
       <use xlink:href="#DejaVuSans-30"/>
       <use xlink:href="#DejaVuSans-2e" transform="translate(63.623047 0)"/>
       <use xlink:href="#DejaVuSans-30" transform="translate(95.410156 0)"/>
       <use xlink:href="#DejaVuSans-30" transform="translate(159.033203 0)"/>
       <use xlink:href="#DejaVuSans-30" transform="translate(222.65625 0)"/>
      </g>
     </g>
    </g>
    <g id="xtick_2">
     <g id="line2d_3">
      <path d="M 125.137339 303.64 
L 125.137339 26.88 
" clip-path="url(#pb17b3627a9)" style="fill: none; stroke: #b0b0b0; stroke-opacity: 0.3; stroke-width: 0.8; stroke-linecap: square"/>
     </g>
     <g id="line2d_4">
      <g>
       <use xlink:href="#m2d7516fcc2" x="125.137339" y="303.64" style="stroke: #000000; stroke-width: 0.8"/>
      </g>
     </g>
     <g id="text_2">
      <!-- 0.025 -->
      <g transform="translate(110.823276 318.238437) scale(0.1 -0.1)">
       <defs>
        <path id="DejaVuSans-32" d="M 1228 531 
L 3431 531 
L 3431 0 
L 469 0 
L 469 531 
Q 828 903 1448 1529 
Q 2069 2156 2228 2338 
Q 2531 2678 2651 2914 
Q 2772 3150 2772 3378 
Q 2772 3750 2511 3984 
Q 2250 4219 1831 4219 
Q 1534 4219 1204 4116 
Q 875 4013 500 3803 
L 500 4441 
Q 881 4594 1212 4672 
Q 1544 4750 1819 4750 
Q 2544 4750 2975 4387 
Q 3406 4025 3406 3419 
Q 3406 3131 3298 2873 
Q 3191 2616 2906 2266 
Q 2828 2175 2409 1742 
Q 1991 1309 1228 531 
z
" transform="scale(0.015625)"/>
        <path id="DejaVuSans-35" d="M 691 4666 
L 3169 4666 
L 3169 4134 
L 1269 4134 
L 1269 2991 
Q 1406 3038 1543 3061 
Q 1681 3084 1819 3084 
Q 2600 3084 3056 2656 
Q 3513 2228 3513 1497 
Q 3513 744 3044 326 
Q 2575 -91 1722 -91 
Q 1428 -91 1123 -41 
Q 819 9 494 109 
L 494 744 
Q 775 591 1075 516 
Q 1375 441 1709 441 
Q 2250 441 2565 725 
Q 2881 1009 2881 1497 
Q 2881 1984 2565 2268 
Q 2250 2553 1709 2553 
Q 1456 2553 1204 2497 
Q 953 2441 691 2322 
L 691 4666 
z
" transform="scale(0.015625)"/>
       </defs>
       <use xlink:href="#DejaVuSans-30"/>
       <use xlink:href="#DejaVuSans-2e" transform="translate(63.623047 0)"/>
       <use xlink:href="#DejaVuSans-30" transform="translate(95.410156 0)"/>
       <use xlink:href="#DejaVuSans-32" transform="translate(159.033203 0)"/>
       <use xlink:href="#DejaVuSans-35" transform="translate(222.65625 0)"/>
      </g>
     </g>
    </g>
    <g id="xtick_3">
     <g id="line2d_5">
      <path d="M 175.08876 303.64 
L 175.08876 26.88 
" clip-path="url(#pb17b3627a9)" style="fill: none; stroke: #b0b0b0; stroke-opacity: 0.3; stroke-width: 0.8; stroke-linecap: square"/>
     </g>
     <g id="line2d_6">
      <g>
       <use xlink:href="#m2d7516fcc2" x="175.08876" y="303.64" style="stroke: #000000; stroke-width: 0.8"/>
      </g>
     </g>
     <g id="text_3">
      <!-- 0.050 -->
      <g transform="translate(160.774698 318.238437) scale(0.1 -0.1)">
       <use xlink:href="#DejaVuSans-30"/>
       <use xlink:href="#DejaVuSans-2e" transform="translate(63.623047 0)"/>
       <use xlink:href="#DejaVuSans-30" transform="translate(95.410156 0)"/>
       <use xlink:href="#DejaVuSans-35" transform="translate(159.033203 0)"/>
       <use xlink:href="#DejaVuSans-30" transform="translate(222.65625 0)"/>
      </g>
     </g>
    </g>
    <g id="xtick_4">
     <g id="line2d_7">
      <path d="M 225.040181 303.64 
L 225.040181 26.88 
" clip-path="url(#pb17b3627a9)" style="fill: none; stroke: #b0b0b0; stroke-opacity: 0.3; stroke-width: 0.8; stroke-linecap: square"/>
     </g>
     <g id="line2d_8">
      <g>
       <use xlink:href="#m2d7516fcc2" x="225.040181" y="303.64" style="stroke: #000000; stroke-width: 0.8"/>
      </g>
     </g>
     <g id="text_4">
      <!-- 0.075 -->
      <g transform="translate(210.726119 318.238437) scale(0.1 -0.1)">
       <defs>
        <path id="DejaVuSans-37" d="M 525 4666 
L 3525 4666 
L 3525 4397 
L 1831 0 
L 1172 0 
L 2766 4134 
L 525 4134 
L 525 4666 
z
" transform="scale(0.015625)"/>
       </defs>
       <use xlink:href="#DejaVuSans-30"/>
       <use xlink:href="#DejaVuSans-2e" transform="translate(63.623047 0)"/>
       <use xlink:href="#DejaVuSans-30" transform="translate(95.410156 0)"/>
       <use xlink:href="#DejaVuSans-37" transform="translate(159.033203 0)"/>
       <use xlink:href="#DejaVuSans-35" transform="translate(222.65625 0)"/>
      </g>
     </g>
    </g>
    <g id="xtick_5">
     <g id="line2d_9">
      <path d="M 274.991603 303.64 
L 274.991603 26.88 
" clip-path="url(#pb17b3627a9)" style="fill: none; stroke: #b0b0b0; stroke-opacity: 0.3; stroke-width: 0.8; stroke-linecap: square"/>
     </g>
     <g id="line2d_10">
      <g>
       <use xlink:href="#m2d7516fcc2" x="274.991603" y="303.64" style="stroke: #000000; stroke-width: 0.8"/>
      </g>
     </g>
     <g id="text_5">
      <!-- 0.100 -->
      <g transform="translate(260.67754 318.238437) scale(0.1 -0.1)">
       <defs>
        <path id="DejaVuSans-31" d="M 794 531 
L 1825 531 
L 1825 4091 
L 703 3866 
L 703 4441 
L 1819 4666 
L 2450 4666 
L 2450 531 
L 3481 531 
L 3481 0 
L 794 0 
L 794 531 
z
" transform="scale(0.015625)"/>
       </defs>
       <use xlink:href="#DejaVuSans-30"/>
       <use xlink:href="#DejaVuSans-2e" transform="translate(63.623047 0)"/>
       <use xlink:href="#DejaVuSans-31" transform="translate(95.410156 0)"/>
       <use xlink:href="#DejaVuSans-30" transform="translate(159.033203 0)"/>
       <use xlink:href="#DejaVuSans-30" transform="translate(222.65625 0)"/>
      </g>
     </g>
    </g>
    <g id="xtick_6">
     <g id="line2d_11">
      <path d="M 324.943024 303.64 
L 324.943024 26.88 
" clip-path="url(#pb17b3627a9)" style="fill: none; stroke: #b0b0b0; stroke-opacity: 0.3; stroke-width: 0.8; stroke-linecap: square"/>
     </g>
     <g id="line2d_12">
      <g>
       <use xlink:href="#m2d7516fcc2" x="324.943024" y="303.64" style="stroke: #000000; stroke-width: 0.8"/>
      </g>
     </g>
     <g id="text_6">
      <!-- 0.125 -->
      <g transform="translate(310.628961 318.238437) scale(0.1 -0.1)">
       <use xlink:href="#DejaVuSans-30"/>
       <use xlink:href="#DejaVuSans-2e" transform="translate(63.623047 0)"/>
       <use xlink:href="#DejaVuSans-31" transform="translate(95.410156 0)"/>
       <use xlink:href="#DejaVuSans-32" transform="translate(159.033203 0)"/>
       <use xlink:href="#DejaVuSans-35" transform="translate(222.65625 0)"/>
      </g>
     </g>
    </g>
    <g id="xtick_7">
     <g id="line2d_13">
      <path d="M 374.894445 303.64 
L 374.894445 26.88 
" clip-path="url(#pb17b3627a9)" style="fill: none; stroke: #b0b0b0; stroke-opacity: 0.3; stroke-width: 0.8; stroke-linecap: square"/>
     </g>
     <g id="line2d_14">
      <g>
       <use xlink:href="#m2d7516fcc2" x="374.894445" y="303.64" style="stroke: #000000; stroke-width: 0.8"/>
      </g>
     </g>
     <g id="text_7">
      <!-- 0.150 -->
      <g transform="translate(360.580382 318.238437) scale(0.1 -0.1)">
       <use xlink:href="#DejaVuSans-30"/>
       <use xlink:href="#DejaVuSans-2e" transform="translate(63.623047 0)"/>
       <use xlink:href="#DejaVuSans-31" transform="translate(95.410156 0)"/>
       <use xlink:href="#DejaVuSans-35" transform="translate(159.033203 0)"/>
       <use xlink:href="#DejaVuSans-30" transform="translate(222.65625 0)"/>
      </g>
     </g>
    </g>
    <g id="xtick_8">
     <g id="line2d_15">
      <path d="M 424.845866 303.64 
L 424.845866 26.88 
" clip-path="url(#pb17b3627a9)" style="fill: none; stroke: #b0b0b0; stroke-opacity: 0.3; stroke-width: 0.8; stroke-linecap: square"/>
     </g>
     <g id="line2d_16">
      <g>
       <use xlink:href="#m2d7516fcc2" x="424.845866" y="303.64" style="stroke: #000000; stroke-width: 0.8"/>
      </g>
     </g>
     <g id="text_8">
      <!-- 0.175 -->
      <g transform="translate(410.531804 318.238437) scale(0.1 -0.1)">
       <use xlink:href="#DejaVuSans-30"/>
       <use xlink:href="#DejaVuSans-2e" transform="translate(63.623047 0)"/>
       <use xlink:href="#DejaVuSans-31" transform="translate(95.410156 0)"/>
       <use xlink:href="#DejaVuSans-37" transform="translate(159.033203 0)"/>
       <use xlink:href="#DejaVuSans-35" transform="translate(222.65625 0)"/>
      </g>
     </g>
    </g>
    <g id="text_9">
     <!-- Strain [-] -->
     <g transform="translate(231.47875 331.916562) scale(0.1 -0.1)">
      <defs>
       <path id="DejaVuSans-53" d="M 3425 4513 
L 3425 3897 
Q 3066 4069 2747 4153 
Q 2428 4238 2131 4238 
Q 1616 4238 1336 4038 
Q 1056 3838 1056 3469 
Q 1056 3159 1242 3001 
Q 1428 2844 1947 2747 
L 2328 2669 
Q 3034 2534 3370 2195 
Q 3706 1856 3706 1288 
Q 3706 609 3251 259 
Q 2797 -91 1919 -91 
Q 1588 -91 1214 -16 
Q 841 59 441 206 
L 441 856 
Q 825 641 1194 531 
Q 1563 422 1919 422 
Q 2459 422 2753 634 
Q 3047 847 3047 1241 
Q 3047 1584 2836 1778 
Q 2625 1972 2144 2069 
L 1759 2144 
Q 1053 2284 737 2584 
Q 422 2884 422 3419 
Q 422 4038 858 4394 
Q 1294 4750 2059 4750 
Q 2388 4750 2728 4690 
Q 3069 4631 3425 4513 
z
" transform="scale(0.015625)"/>
       <path id="DejaVuSans-74" d="M 1172 4494 
L 1172 3500 
L 2356 3500 
L 2356 3053 
L 1172 3053 
L 1172 1153 
Q 1172 725 1289 603 
Q 1406 481 1766 481 
L 2356 481 
L 2356 0 
L 1766 0 
Q 1100 0 847 248 
Q 594 497 594 1153 
L 594 3053 
L 172 3053 
L 172 3500 
L 594 3500 
L 594 4494 
L 1172 4494 
z
" transform="scale(0.015625)"/>
       <path id="DejaVuSans-72" d="M 2631 2963 
Q 2534 3019 2420 3045 
Q 2306 3072 2169 3072 
Q 1681 3072 1420 2755 
Q 1159 2438 1159 1844 
L 1159 0 
L 581 0 
L 581 3500 
L 1159 3500 
L 1159 2956 
Q 1341 3275 1631 3429 
Q 1922 3584 2338 3584 
Q 2397 3584 2469 3576 
Q 2541 3569 2628 3553 
L 2631 2963 
z
" transform="scale(0.015625)"/>
       <path id="DejaVuSans-61" d="M 2194 1759 
Q 1497 1759 1228 1600 
Q 959 1441 959 1056 
Q 959 750 1161 570 
Q 1363 391 1709 391 
Q 2188 391 2477 730 
Q 2766 1069 2766 1631 
L 2766 1759 
L 2194 1759 
z
M 3341 1997 
L 3341 0 
L 2766 0 
L 2766 531 
Q 2569 213 2275 61 
Q 1981 -91 1556 -91 
Q 1019 -91 701 211 
Q 384 513 384 1019 
Q 384 1609 779 1909 
Q 1175 2209 1959 2209 
L 2766 2209 
L 2766 2266 
Q 2766 2663 2505 2880 
Q 2244 3097 1772 3097 
Q 1472 3097 1187 3025 
Q 903 2953 641 2809 
L 641 3341 
Q 956 3463 1253 3523 
Q 1550 3584 1831 3584 
Q 2591 3584 2966 3190 
Q 3341 2797 3341 1997 
z
" transform="scale(0.015625)"/>
       <path id="DejaVuSans-69" d="M 603 3500 
L 1178 3500 
L 1178 0 
L 603 0 
L 603 3500 
z
M 603 4863 
L 1178 4863 
L 1178 4134 
L 603 4134 
L 603 4863 
z
" transform="scale(0.015625)"/>
       <path id="DejaVuSans-6e" d="M 3513 2113 
L 3513 0 
L 2938 0 
L 2938 2094 
Q 2938 2591 2744 2837 
Q 2550 3084 2163 3084 
Q 1697 3084 1428 2787 
Q 1159 2491 1159 1978 
L 1159 0 
L 581 0 
L 581 3500 
L 1159 3500 
L 1159 2956 
Q 1366 3272 1645 3428 
Q 1925 3584 2291 3584 
Q 2894 3584 3203 3211 
Q 3513 2838 3513 2113 
z
" transform="scale(0.015625)"/>
       <path id="DejaVuSans-20" transform="scale(0.015625)"/>
       <path id="DejaVuSans-5b" d="M 550 4863 
L 1875 4863 
L 1875 4416 
L 1125 4416 
L 1125 -397 
L 1875 -397 
L 1875 -844 
L 550 -844 
L 550 4863 
z
" transform="scale(0.015625)"/>
       <path id="DejaVuSans-2d" d="M 313 2009 
L 1997 2009 
L 1997 1497 
L 313 1497 
L 313 2009 
z
" transform="scale(0.015625)"/>
       <path id="DejaVuSans-5d" d="M 1947 4863 
L 1947 -844 
L 622 -844 
L 622 -397 
L 1369 -397 
L 1369 4416 
L 622 4416 
L 622 4863 
L 1947 4863 
z
" transform="scale(0.015625)"/>
      </defs>
      <use xlink:href="#DejaVuSans-53"/>
      <use xlink:href="#DejaVuSans-74" transform="translate(63.476562 0)"/>
      <use xlink:href="#DejaVuSans-72" transform="translate(102.685547 0)"/>
      <use xlink:href="#DejaVuSans-61" transform="translate(143.798828 0)"/>
      <use xlink:href="#DejaVuSans-69" transform="translate(205.078125 0)"/>
      <use xlink:href="#DejaVuSans-6e" transform="translate(232.861328 0)"/>
      <use xlink:href="#DejaVuSans-20" transform="translate(296.240234 0)"/>
      <use xlink:href="#DejaVuSans-5b" transform="translate(328.027344 0)"/>
      <use xlink:href="#DejaVuSans-2d" transform="translate(367.041016 0)"/>
      <use xlink:href="#DejaVuSans-5d" transform="translate(403.125 0)"/>
     </g>
    </g>
   </g>
   <g id="matplotlib.axis_2">
    <g id="ytick_1">
     <g id="line2d_17">
      <path d="M 57.17 273.181794 
L 450 273.181794 
" clip-path="url(#pb17b3627a9)" style="fill: none; stroke: #b0b0b0; stroke-opacity: 0.3; stroke-width: 0.8; stroke-linecap: square"/>
     </g>
     <g id="line2d_18">
      <defs>
       <path id="m229d0d7b2c" d="M 0 0 
L -3.5 0 
" style="stroke: #000000; stroke-width: 0.8"/>
      </defs>
      <g>
       <use xlink:href="#m229d0d7b2c" x="57.17" y="273.181794" style="stroke: #000000; stroke-width: 0.8"/>
      </g>
     </g>
     <g id="text_10">
      <!-- 0 -->
      <g transform="translate(43.8075 276.981013) scale(0.1 -0.1)">
       <use xlink:href="#DejaVuSans-30"/>
      </g>
     </g>
    </g>
    <g id="ytick_2">
     <g id="line2d_19">
      <path d="M 57.17 235.211619 
L 450 235.211619 
" clip-path="url(#pb17b3627a9)" style="fill: none; stroke: #b0b0b0; stroke-opacity: 0.3; stroke-width: 0.8; stroke-linecap: square"/>
     </g>
     <g id="line2d_20">
      <g>
       <use xlink:href="#m229d0d7b2c" x="57.17" y="235.211619" style="stroke: #000000; stroke-width: 0.8"/>
      </g>
     </g>
     <g id="text_11">
      <!-- 250 -->
      <g transform="translate(31.0825 239.010838) scale(0.1 -0.1)">
       <use xlink:href="#DejaVuSans-32"/>
       <use xlink:href="#DejaVuSans-35" transform="translate(63.623047 0)"/>
       <use xlink:href="#DejaVuSans-30" transform="translate(127.246094 0)"/>
      </g>
     </g>
    </g>
    <g id="ytick_3">
     <g id="line2d_21">
      <path d="M 57.17 197.241444 
L 450 197.241444 
" clip-path="url(#pb17b3627a9)" style="fill: none; stroke: #b0b0b0; stroke-opacity: 0.3; stroke-width: 0.8; stroke-linecap: square"/>
     </g>
     <g id="line2d_22">
      <g>
       <use xlink:href="#m229d0d7b2c" x="57.17" y="197.241444" style="stroke: #000000; stroke-width: 0.8"/>
      </g>
     </g>
     <g id="text_12">
      <!-- 500 -->
      <g transform="translate(31.0825 201.040663) scale(0.1 -0.1)">
       <use xlink:href="#DejaVuSans-35"/>
       <use xlink:href="#DejaVuSans-30" transform="translate(63.623047 0)"/>
       <use xlink:href="#DejaVuSans-30" transform="translate(127.246094 0)"/>
      </g>
     </g>
    </g>
    <g id="ytick_4">
     <g id="line2d_23">
      <path d="M 57.17 159.271269 
L 450 159.271269 
" clip-path="url(#pb17b3627a9)" style="fill: none; stroke: #b0b0b0; stroke-opacity: 0.3; stroke-width: 0.8; stroke-linecap: square"/>
     </g>
     <g id="line2d_24">
      <g>
       <use xlink:href="#m229d0d7b2c" x="57.17" y="159.271269" style="stroke: #000000; stroke-width: 0.8"/>
      </g>
     </g>
     <g id="text_13">
      <!-- 750 -->
      <g transform="translate(31.0825 163.070488) scale(0.1 -0.1)">
       <use xlink:href="#DejaVuSans-37"/>
       <use xlink:href="#DejaVuSans-35" transform="translate(63.623047 0)"/>
       <use xlink:href="#DejaVuSans-30" transform="translate(127.246094 0)"/>
      </g>
     </g>
    </g>
    <g id="ytick_5">
     <g id="line2d_25">
      <path d="M 57.17 121.301094 
L 450 121.301094 
" clip-path="url(#pb17b3627a9)" style="fill: none; stroke: #b0b0b0; stroke-opacity: 0.3; stroke-width: 0.8; stroke-linecap: square"/>
     </g>
     <g id="line2d_26">
      <g>
       <use xlink:href="#m229d0d7b2c" x="57.17" y="121.301094" style="stroke: #000000; stroke-width: 0.8"/>
      </g>
     </g>
     <g id="text_14">
      <!-- 1000 -->
      <g transform="translate(24.72 125.100312) scale(0.1 -0.1)">
       <use xlink:href="#DejaVuSans-31"/>
       <use xlink:href="#DejaVuSans-30" transform="translate(63.623047 0)"/>
       <use xlink:href="#DejaVuSans-30" transform="translate(127.246094 0)"/>
       <use xlink:href="#DejaVuSans-30" transform="translate(190.869141 0)"/>
      </g>
     </g>
    </g>
    <g id="ytick_6">
     <g id="line2d_27">
      <path d="M 57.17 83.330919 
L 450 83.330919 
" clip-path="url(#pb17b3627a9)" style="fill: none; stroke: #b0b0b0; stroke-opacity: 0.3; stroke-width: 0.8; stroke-linecap: square"/>
     </g>
     <g id="line2d_28">
      <g>
       <use xlink:href="#m229d0d7b2c" x="57.17" y="83.330919" style="stroke: #000000; stroke-width: 0.8"/>
      </g>
     </g>
     <g id="text_15">
      <!-- 1250 -->
      <g transform="translate(24.72 87.130137) scale(0.1 -0.1)">
       <use xlink:href="#DejaVuSans-31"/>
       <use xlink:href="#DejaVuSans-32" transform="translate(63.623047 0)"/>
       <use xlink:href="#DejaVuSans-35" transform="translate(127.246094 0)"/>
       <use xlink:href="#DejaVuSans-30" transform="translate(190.869141 0)"/>
      </g>
     </g>
    </g>
    <g id="ytick_7">
     <g id="line2d_29">
      <path d="M 57.17 45.360744 
L 450 45.360744 
" clip-path="url(#pb17b3627a9)" style="fill: none; stroke: #b0b0b0; stroke-opacity: 0.3; stroke-width: 0.8; stroke-linecap: square"/>
     </g>
     <g id="line2d_30">
      <g>
       <use xlink:href="#m229d0d7b2c" x="57.17" y="45.360744" style="stroke: #000000; stroke-width: 0.8"/>
      </g>
     </g>
     <g id="text_16">
      <!-- 1500 -->
      <g transform="translate(24.72 49.159962) scale(0.1 -0.1)">
       <use xlink:href="#DejaVuSans-31"/>
       <use xlink:href="#DejaVuSans-35" transform="translate(63.623047 0)"/>
       <use xlink:href="#DejaVuSans-30" transform="translate(127.246094 0)"/>
       <use xlink:href="#DejaVuSans-30" transform="translate(190.869141 0)"/>
      </g>
     </g>
    </g>
    <g id="text_17">
     <!-- Stress [Pa] -->
     <g transform="translate(18.640312 191.967812) rotate(-90) scale(0.1 -0.1)">
      <defs>
       <path id="DejaVuSans-65" d="M 3597 1894 
L 3597 1613 
L 953 1613 
Q 991 1019 1311 708 
Q 1631 397 2203 397 
Q 2534 397 2845 478 
Q 3156 559 3463 722 
L 3463 178 
Q 3153 47 2828 -22 
Q 2503 -91 2169 -91 
Q 1331 -91 842 396 
Q 353 884 353 1716 
Q 353 2575 817 3079 
Q 1281 3584 2069 3584 
Q 2775 3584 3186 3129 
Q 3597 2675 3597 1894 
z
M 3022 2063 
Q 3016 2534 2758 2815 
Q 2500 3097 2075 3097 
Q 1594 3097 1305 2825 
Q 1016 2553 972 2059 
L 3022 2063 
z
" transform="scale(0.015625)"/>
       <path id="DejaVuSans-73" d="M 2834 3397 
L 2834 2853 
Q 2591 2978 2328 3040 
Q 2066 3103 1784 3103 
Q 1356 3103 1142 2972 
Q 928 2841 928 2578 
Q 928 2378 1081 2264 
Q 1234 2150 1697 2047 
L 1894 2003 
Q 2506 1872 2764 1633 
Q 3022 1394 3022 966 
Q 3022 478 2636 193 
Q 2250 -91 1575 -91 
Q 1294 -91 989 -36 
Q 684 19 347 128 
L 347 722 
Q 666 556 975 473 
Q 1284 391 1588 391 
Q 1994 391 2212 530 
Q 2431 669 2431 922 
Q 2431 1156 2273 1281 
Q 2116 1406 1581 1522 
L 1381 1569 
Q 847 1681 609 1914 
Q 372 2147 372 2553 
Q 372 3047 722 3315 
Q 1072 3584 1716 3584 
Q 2034 3584 2315 3537 
Q 2597 3491 2834 3397 
z
" transform="scale(0.015625)"/>
       <path id="DejaVuSans-50" d="M 1259 4147 
L 1259 2394 
L 2053 2394 
Q 2494 2394 2734 2622 
Q 2975 2850 2975 3272 
Q 2975 3691 2734 3919 
Q 2494 4147 2053 4147 
L 1259 4147 
z
M 628 4666 
L 2053 4666 
Q 2838 4666 3239 4311 
Q 3641 3956 3641 3272 
Q 3641 2581 3239 2228 
Q 2838 1875 2053 1875 
L 1259 1875 
L 1259 0 
L 628 0 
L 628 4666 
z
" transform="scale(0.015625)"/>
      </defs>
      <use xlink:href="#DejaVuSans-53"/>
      <use xlink:href="#DejaVuSans-74" transform="translate(63.476562 0)"/>
      <use xlink:href="#DejaVuSans-72" transform="translate(102.685547 0)"/>
      <use xlink:href="#DejaVuSans-65" transform="translate(141.548828 0)"/>
      <use xlink:href="#DejaVuSans-73" transform="translate(203.072266 0)"/>
      <use xlink:href="#DejaVuSans-73" transform="translate(255.171875 0)"/>
      <use xlink:href="#DejaVuSans-20" transform="translate(307.271484 0)"/>
      <use xlink:href="#DejaVuSans-5b" transform="translate(339.058594 0)"/>
      <use xlink:href="#DejaVuSans-50" transform="translate(378.072266 0)"/>
      <use xlink:href="#DejaVuSans-61" transform="translate(433.875 0)"/>
      <use xlink:href="#DejaVuSans-5d" transform="translate(495.154297 0)"/>
     </g>
    </g>
   </g>
   <g id="line2d_31">
    <path d="M 75.185918 273.640011 
L 75.185918 273.638427 
L 75.185918 273.823017 
L 75.192637 273.643116 
L 75.912085 269.93596 
L 77.418379 264.265623 
L 78.236109 262.550434 
L 78.985241 262.691312 
L 80.626144 264.109697 
L 81.470007 264.58548 
L 83.113088 265.170444 
L 84.691927 265.301206 
L 85.517279 265.319426 
L 87.234403 265.738378 
L 89.016858 266.326864 
L 90.841778 267.190701 
L 93.587868 268.042372 
L 94.491617 268.230797 
L 95.391011 268.883958 
L 96.277339 269.89956 
L 97.14189 270.662862 
L 97.982485 270.869497 
L 98.796948 270.471516 
L 99.589635 269.717179 
L 102.583985 266.105581 
L 104.914133 263.891876 
L 107.577472 261.779987 
L 108.467066 261.244011 
L 109.357749 260.907185 
L 111.6781 260.254984 
L 114.888664 258.737723 
L 117.386497 257.712516 
L 119.53154 256.565641 
L 126.734313 253.341458 
L 129.630666 252.050183 
L 131.801842 251.156249 
L 141.143126 246.515922 
L 142.573881 245.811532 
L 147.593505 242.993333 
L 151.930412 240.825093 
L 157.757962 237.987043 
L 159.212672 237.286175 
L 169.332486 231.526829 
L 171.494951 230.285182 
L 175.100149 228.298163 
L 177.265881 227.167297 
L 179.427257 226.245507 
L 180.863456 225.409845 
L 183.724966 223.632221 
L 197.043835 215.89418 
L 202.366156 213.03756 
L 205.892582 211.013945 
L 212.876495 206.821546 
L 218.101908 203.254132 
L 221.619997 201.338833 
L 225.150064 198.979127 
L 230.465852 195.91183 
L 233.999185 193.749354 
L 235.763129 192.799709 
L 241.927135 188.611146 
L 243.694346 187.468114 
L 246.360951 185.596999 
L 249.951993 183.328864 
L 252.120991 182.042392 
L 255.016256 180.2494 
L 257.904987 178.480742 
L 264.35645 174.197412 
L 267.746055 171.650083 
L 275.663116 166.22244 
L 278.557292 164.416641 
L 281.436223 162.364306 
L 283.589977 160.826815 
L 285.740465 159.297649 
L 292.924319 154.036438 
L 296.54585 151.555066 
L 303.81722 146.852944 
L 307.413707 144.110307 
L 310.991683 141.124975 
L 318.916367 135.20426 
L 326.114784 130.239593 
L 331.413151 125.956263 
L 342.796036 116.715311 
L 347.186298 113.493048 
L 364.103815 98.929471 
L 369.116901 95.128968 
L 376.210788 88.982848 
L 379.734322 85.838709 
L 385.907889 80.099854 
L 389.464088 77.11004 
L 392.498726 74.467298 
L 401.816054 66.151657 
L 405.396208 62.764183 
L 410.415828 57.916061 
L 415.776259 53.169755 
L 417.53367 51.819888 
L 419.256238 50.691584 
L 423.270845 48.601148 
L 426.349581 46.917016 
L 428.722195 45.09841 
L 429.444923 44.21344 
L 430.17255 43.090259 
L 430.90494 41.532277 
L 431.620556 39.65896 
L 431.851019 39.76724 
L 432.144091 41.442527 
L 431.981307 62.565913 
L 431.981273 62.546102 
L 431.973107 71.657743 
L 431.256164 71.972257 
L 429.795261 75.14021 
L 429.035513 74.991468 
L 428.269504 75.007717 
L 427.514656 75.252492 
L 426.797917 75.746365 
L 424.583459 76.614626 
L 423.840588 77.23653 
L 423.087917 79.393883 
L 422.367912 80.560609 
L 421.654168 81.260996 
L 420.903403 82.379375 
L 420.157537 82.89406 
L 418.645629 83.235529 
L 417.909291 83.614058 
L 416.464381 85.182766 
L 415.011168 88.591051 
L 414.271836 89.291679 
L 412.067994 90.542291 
L 411.330568 91.160553 
L 408.427409 94.593332 
L 407.683449 95.450446 
L 405.498118 97.350377 
L 404.774847 98.125206 
L 404.048853 98.606112 
L 403.307615 99.313383 
L 401.076314 101.900535 
L 400.357942 102.666078 
L 398.174516 104.605231 
L 395.968769 106.922183 
L 393.764111 108.611918 
L 392.30736 110.295249 
L 388.639553 113.128657 
L 387.209479 114.868179 
L 385.01952 116.921795 
L 384.295432 117.34595 
L 381.359505 119.937173 
L 379.868319 121.360201 
L 378.421504 122.513879 
L 374.800518 125.771521 
L 373.342269 127.062155 
L 371.132439 129.053977 
L 368.255141 131.42793 
L 366.794714 132.832227 
L 365.361748 133.892274 
L 363.874372 134.815104 
L 361.658145 136.896256 
L 358.761792 139.251479 
L 357.325321 140.623438 
L 355.136178 142.429797 
L 354.398479 142.92367 
L 353.659692 143.601645 
L 351.467555 145.263125 
L 346.298082 149.344483 
L 343.40309 151.440682 
L 341.916531 152.876196 
L 339.732017 154.477242 
L 339.007384 154.945901 
L 335.327055 157.891451 
L 333.882418 158.72175 
L 332.441046 159.858699 
L 328.071694 162.98703 
L 326.588402 164.21659 
L 325.126887 165.108444 
L 324.403615 165.488254 
L 322.969594 166.80026 
L 322.254489 167.481437 
L 320.808762 168.403747 
L 319.346703 169.183618 
L 318.618939 169.821411 
L 317.162732 171.431422 
L 315.685429 172.134291 
L 314.225003 172.843443 
L 313.494926 173.454021 
L 312.772471 174.322181 
L 312.036865 174.948638 
L 310.597671 175.744358 
L 309.136564 176.424214 
L 306.946606 178.324545 
L 304.771891 179.449968 
L 300.363663 182.415449 
L 299.644202 182.827437 
L 297.460504 184.464983 
L 295.252035 185.796079 
L 293.037407 187.330258 
L 291.576164 188.511952 
L 290.12826 189.12317 
L 287.946876 190.541234 
L 286.487811 191.570043 
L 285.02439 192.368565 
L 284.310374 192.825698 
L 283.568047 193.530248 
L 281.384894 194.950794 
L 278.442537 196.612433 
L 274.815834 198.860006 
L 272.660174 200.365159 
L 269.750619 201.941391 
L 267.570188 203.563329 
L 266.127727 204.366013 
L 264.684723 204.998963 
L 263.942669 205.451853 
L 262.48197 206.569272 
L 261.002489 207.509232 
L 258.833763 208.494337 
L 256.679107 209.867481 
L 255.236102 210.770221 
L 253.033077 212.07094 
L 251.557407 213.170268 
L 250.10297 213.894349 
L 248.634105 214.394546 
L 247.894909 214.747301 
L 246.462657 215.806767 
L 244.294339 217.002729 
L 242.854329 217.748261 
L 241.38628 218.618983 
L 234.782888 222.257501 
L 233.339883 223.165363 
L 230.407326 224.539523 
L 228.947172 225.453229 
L 227.513967 226.102228 
L 226.038977 227.038186 
L 225.293112 227.58801 
L 223.109959 228.683976 
L 221.660234 229.470681 
L 220.201305 230.489005 
L 218.764561 231.042631 
L 218.045917 231.214926 
L 216.563986 232.068041 
L 214.365861 233.456569 
L 212.913873 234.134144 
L 211.428403 235.024396 
L 209.953278 235.827561 
L 206.298537 237.531503 
L 205.583704 237.835672 
L 204.862968 238.263346 
L 204.13398 238.532875 
L 201.940482 239.703603 
L 201.200333 239.990241 
L 200.468351 240.485235 
L 199.732965 240.727809 
L 198.985467 240.837225 
L 197.541918 242.336294 
L 196.814019 242.655891 
L 193.906369 243.47664 
L 193.18963 243.85549 
L 191.724848 244.866289 
L 190.996405 245.033201 
L 190.255575 245.430861 
L 189.535842 246.064972 
L 188.075688 246.714011 
L 187.329006 246.966971 
L 186.58161 246.998273 
L 185.846905 247.196983 
L 182.907542 249.276614 
L 179.289006 250.67885 
L 177.803264 251.488578 
L 177.064476 252.008225 
L 170.476634 255.176358 
L 169.019466 255.681056 
L 167.563667 256.400094 
L 166.839579 256.749247 
L 165.385822 257.195494 
L 163.903619 257.873869 
L 162.441015 258.317754 
L 161.693788 258.94306 
L 160.954184 259.190437 
L 160.219888 259.695837 
L 158.736051 260.481984 
L 158.016046 260.394432 
L 155.863925 261.575165 
L 155.148003 261.979389 
L 153.001871 262.827938 
L 150.099639 264.226275 
L 149.373646 264.313248 
L 147.17729 265.158836 
L 144.959561 266.279816 
L 143.526629 266.841807 
L 142.786616 267.033853 
L 141.328095 267.751771 
L 139.125887 268.466041 
L 138.396626 269.011863 
L 135.440931 270.500717 
L 134.692071 270.606677 
L 133.243069 271.064549 
L 132.494482 271.281869 
L 128.112386 273.32633 
L 127.381221 273.520396 
L 126.648966 273.846976 
L 125.206778 274.213899 
L 124.457918 274.469761 
L 123.721308 274.970038 
L 122.991776 275.166486 
L 122.259385 275.777144 
L 120.037577 276.386781 
L 119.291984 276.6755 
L 118.54503 277.10774 
L 117.060649 277.592168 
L 114.135726 278.896114 
L 113.398027 279.121348 
L 112.6606 279.195492 
L 107.542031 281.184052 
L 106.809232 281.547623 
L 105.34935 282.007951 
L 103.864697 282.539885 
L 103.120192 282.675152 
L 101.68481 283.175909 
L 100.969977 283.368936 
L 97.299001 285.001343 
L 95.862258 285.188645 
L 95.120612 285.397641 
L 92.173084 286.583217 
L 90.711296 286.926297 
L 87.823109 287.951644 
L 87.092216 288.000981 
L 85.658194 288.510627 
L 84.197496 288.85935 
L 83.452991 289.198097 
L 80.545205 289.892562 
L 78.337147 290.566732 
L 77.609928 290.630562 
L 76.163929 290.433163 
L 75.344804 290.884603 
L 75.217102 291.06 
L 75.026013 289.025698 
L 75.026013 289.025698 
" clip-path="url(#pb17b3627a9)" style="fill: none; stroke: #ff0000; stroke-width: 2; stroke-linecap: square"/>
   </g>
   <g id="line2d_32">
    <path d="M 75.185918 273.640011 
L 75.185918 273.638427 
L 75.185918 273.823017 
L 75.192637 273.643116 
L 75.912085 269.93596 
L 77.418379 264.265623 
L 78.236109 262.550434 
L 78.985241 262.691312 
L 80.626144 264.109697 
L 81.470007 273.788641 
L 82.365045 273.893659 
L 83.113088 273.655768 
L 83.889442 273.150608 
L 85.517279 271.770344 
L 86.365497 271.299204 
L 88.117464 270.606341 
L 89.926051 269.564484 
L 90.841778 269.207807 
L 92.676498 268.345249 
L 93.587868 268.042372 
L 94.491617 268.230797 
L 95.391011 268.883958 
L 96.277339 269.89956 
L 97.14189 270.662862 
L 97.982485 270.869497 
L 98.796948 270.471516 
L 99.589635 269.717179 
L 102.583985 266.105581 
L 104.914133 263.891876 
L 107.577472 261.779987 
L 108.467066 261.244011 
L 109.357749 260.907185 
L 111.6781 260.254984 
L 114.888664 258.737723 
L 117.386497 257.712516 
L 119.53154 256.565641 
L 126.734313 253.341458 
L 129.630666 252.050183 
L 131.801842 251.156249 
L 141.143126 246.515922 
L 142.573881 245.811532 
L 147.593505 242.993333 
L 151.930412 240.825093 
L 157.757962 237.987043 
L 159.212672 237.286175 
L 169.332486 231.526829 
L 171.494951 230.285182 
L 175.100149 228.298163 
L 177.265881 227.167297 
L 179.427257 226.245507 
L 180.863456 225.409845 
L 183.724966 223.632221 
L 197.043835 215.89418 
L 202.366156 213.03756 
L 205.892582 211.013945 
L 212.876495 206.821546 
L 218.101908 203.254132 
L 221.619997 201.338833 
L 225.150064 198.979127 
L 230.465852 195.91183 
L 233.999185 193.749354 
L 235.763129 192.799709 
L 241.927135 188.611146 
L 243.694346 187.468114 
L 246.360951 185.596999 
L 249.951993 183.328864 
L 252.120991 182.042392 
L 255.016256 180.2494 
L 257.904987 178.480742 
L 264.35645 174.197412 
L 267.746055 171.650083 
L 275.663116 166.22244 
L 278.557292 164.416641 
L 281.436223 162.364306 
L 283.589977 160.826815 
L 285.740465 159.297649 
L 292.924319 154.036438 
L 296.54585 151.555066 
L 303.81722 146.852944 
L 307.413707 144.110307 
L 310.991683 141.124975 
L 318.916367 135.20426 
L 326.114784 130.239593 
L 331.413151 125.956263 
L 342.796036 116.715311 
L 347.186298 113.493048 
L 364.103815 98.929471 
L 369.116901 95.128968 
L 376.210788 88.982848 
L 379.734322 85.838709 
L 385.907889 80.099854 
L 389.464088 77.11004 
L 392.498726 74.467298 
L 401.816054 66.151657 
L 405.396208 62.764183 
L 417.53367 50.880587 
L 422.514091 46.214966 
L 427.939853 41.310704 
L 428.722195 40.77949 
L 429.444923 40.150822 
L 430.17255 39.679681 
L 431.620556 39.46 
L 431.851019 39.578416 
L 432.144091 41.351747 
L 431.981852 62.276633 
L 431.982396 62.102677 
L 431.973107 71.657743 
L 431.256164 71.972257 
L 429.795261 75.14021 
L 429.035513 74.991468 
L 428.269504 75.007717 
L 427.514656 75.252492 
L 426.797917 75.746365 
L 424.583459 76.614626 
L 423.840588 77.23653 
L 423.087917 79.393883 
L 422.367912 80.560609 
L 421.654168 81.260996 
L 420.903403 82.379375 
L 420.157537 82.89406 
L 418.645629 83.235529 
L 417.909291 83.614058 
L 416.464381 85.182766 
L 415.011168 88.591051 
L 414.271836 89.291679 
L 412.067994 90.542291 
L 411.330568 91.160553 
L 408.427409 94.593332 
L 407.683449 95.450446 
L 405.498118 97.350377 
L 404.774847 98.125206 
L 404.048853 98.606112 
L 403.307615 99.313383 
L 401.076314 101.900535 
L 400.357942 102.666078 
L 398.174516 104.605231 
L 395.968769 106.922183 
L 393.764111 108.611918 
L 392.30736 110.295249 
L 388.639553 113.128657 
L 387.209479 114.868179 
L 385.01952 116.921795 
L 384.295432 117.34595 
L 381.359505 119.937173 
L 379.868319 121.360201 
L 378.421504 122.513879 
L 374.800518 125.771521 
L 373.342269 127.062155 
L 371.132439 129.053977 
L 368.255141 131.42793 
L 366.794714 132.832227 
L 365.361748 133.892274 
L 363.874372 134.815104 
L 361.658145 136.896256 
L 358.761792 139.251479 
L 357.325321 140.623438 
L 355.136178 142.429797 
L 354.398479 142.92367 
L 353.659692 143.601645 
L 351.467555 145.263125 
L 346.298082 149.344483 
L 343.40309 151.440682 
L 341.916531 152.876196 
L 339.732017 154.477242 
L 339.007384 154.945901 
L 335.327055 157.891451 
L 333.882418 158.72175 
L 332.441046 159.858699 
L 328.071694 162.98703 
L 326.588402 164.21659 
L 325.126887 165.108444 
L 324.403615 165.488254 
L 322.969594 166.80026 
L 322.254489 167.481437 
L 320.808762 168.403747 
L 319.346703 169.183618 
L 318.618939 169.821411 
L 317.162732 171.431422 
L 315.685429 172.134291 
L 314.225003 172.843443 
L 313.494926 173.454021 
L 312.772471 174.322181 
L 312.036865 174.948638 
L 310.597671 175.744358 
L 309.136564 176.424214 
L 306.946606 178.324545 
L 304.771891 179.449968 
L 300.363663 182.415449 
L 299.644202 182.827437 
L 297.460504 184.464983 
L 295.252035 185.796079 
L 293.037407 187.330258 
L 291.576164 188.511952 
L 290.12826 189.12317 
L 287.946876 190.541234 
L 286.487811 191.570043 
L 285.02439 192.368565 
L 284.310374 192.825698 
L 283.568047 193.530248 
L 281.384894 194.950794 
L 278.442537 196.612433 
L 274.815834 198.860006 
L 272.660174 200.365159 
L 269.750619 201.941391 
L 267.570188 203.563329 
L 266.127727 204.366013 
L 264.684723 204.998963 
L 263.942669 205.451853 
L 262.48197 206.569272 
L 261.002489 207.509232 
L 258.833763 208.494337 
L 256.679107 209.867481 
L 255.236102 210.770221 
L 253.033077 212.07094 
L 251.557407 213.170268 
L 250.10297 213.894349 
L 248.634105 214.394546 
L 247.894909 214.747301 
L 246.462657 215.806767 
L 244.294339 217.002729 
L 242.854329 217.748261 
L 241.38628 218.618983 
L 234.782888 222.257501 
L 233.339883 223.165363 
L 230.407326 224.539523 
L 228.947172 225.453229 
L 227.513967 226.102228 
L 226.038977 227.038186 
L 225.293112 227.58801 
L 223.109959 228.683976 
L 221.660234 229.470681 
L 220.201305 230.489005 
L 218.764561 231.042631 
L 218.045917 231.214926 
L 216.563986 232.068041 
L 214.365861 233.456569 
L 212.913873 234.134144 
L 211.428403 235.024396 
L 209.953278 235.827561 
L 206.298537 237.531503 
L 205.583704 237.835672 
L 204.862968 238.263346 
L 204.13398 238.532875 
L 201.940482 239.703603 
L 201.200333 239.990241 
L 200.468351 240.485235 
L 199.732965 240.727809 
L 198.985467 240.837225 
L 197.541918 242.336294 
L 196.814019 242.655891 
L 193.906369 243.47664 
L 193.18963 243.85549 
L 191.724848 244.866289 
L 190.996405 245.033201 
L 190.255575 245.430861 
L 189.535842 246.064972 
L 188.075688 246.714011 
L 187.329006 246.966971 
L 186.58161 246.998273 
L 185.846905 247.196983 
L 182.907542 249.276614 
L 179.289006 250.67885 
L 177.803264 251.488578 
L 177.064476 252.008225 
L 170.476634 255.176358 
L 169.019466 255.681056 
L 167.563667 256.400094 
L 166.839579 256.749247 
L 165.385822 257.195494 
L 163.903619 257.873869 
L 162.441015 258.317754 
L 161.693788 258.94306 
L 160.954184 259.190437 
L 160.219888 259.695837 
L 158.736051 260.481984 
L 158.016046 260.394432 
L 155.863925 261.575165 
L 155.148003 261.979389 
L 153.001871 262.827938 
L 150.099639 264.226275 
L 149.373646 264.313248 
L 147.17729 265.158836 
L 144.959561 266.279816 
L 143.526629 266.841807 
L 142.786616 267.033853 
L 141.328095 267.751771 
L 139.125887 268.466041 
L 138.396626 269.011863 
L 135.440931 270.500717 
L 134.692071 270.606677 
L 133.243069 271.064549 
L 132.494482 271.281869 
L 128.112386 273.32633 
L 127.381221 273.520396 
L 126.648966 273.846976 
L 125.206778 274.213899 
L 124.457918 274.469761 
L 123.721308 274.970038 
L 122.991776 275.166486 
L 122.259385 275.777144 
L 120.037577 276.386781 
L 119.291984 276.6755 
L 118.54503 277.10774 
L 117.060649 277.592168 
L 114.135726 278.896114 
L 113.398027 279.121348 
L 112.6606 279.195492 
L 107.542031 281.184052 
L 106.809232 281.547623 
L 105.34935 282.007951 
L 103.864697 282.539885 
L 103.120192 282.675152 
L 101.68481 283.175909 
L 100.969977 283.368936 
L 97.299001 285.001343 
L 95.862258 285.188645 
L 95.120612 285.397641 
L 92.173084 286.583217 
L 90.711296 286.926297 
L 87.823109 287.951644 
L 87.092216 288.000981 
L 85.658194 288.510627 
L 84.197496 288.85935 
L 83.452991 289.198097 
L 80.545205 289.892562 
L 78.337147 290.566732 
L 77.609928 290.630562 
L 76.163929 290.433163 
L 75.344804 290.884603 
L 75.217102 291.06 
L 75.026013 289.025698 
L 75.026013 289.025698 
" clip-path="url(#pb17b3627a9)" style="fill: none; stroke: #000000; stroke-width: 2; stroke-linecap: square"/>
   </g>
   <g id="patch_3">
    <path d="M 57.17 303.64 
L 57.17 26.88 
" style="fill: none; stroke: #000000; stroke-width: 0.8; stroke-linejoin: miter; stroke-linecap: square"/>
   </g>
   <g id="patch_4">
    <path d="M 450 303.64 
L 450 26.88 
" style="fill: none; stroke: #000000; stroke-width: 0.8; stroke-linejoin: miter; stroke-linecap: square"/>
   </g>
   <g id="patch_5">
    <path d="M 57.17 303.64 
L 450 303.64 
" style="fill: none; stroke: #000000; stroke-width: 0.8; stroke-linejoin: miter; stroke-linecap: square"/>
   </g>
   <g id="patch_6">
    <path d="M 57.17 26.88 
L 450 26.88 
" style="fill: none; stroke: #000000; stroke-width: 0.8; stroke-linejoin: miter; stroke-linecap: square"/>
   </g>
   <g id="text_18">
    <!-- 2025-07-02 Trial 27 - Stress vs Strain -->
    <g transform="translate(142.330938 20.88) scale(0.12 -0.12)">
     <defs>
      <path id="DejaVuSans-54" d="M -19 4666 
L 3928 4666 
L 3928 4134 
L 2272 4134 
L 2272 0 
L 1638 0 
L 1638 4134 
L -19 4134 
L -19 4666 
z
" transform="scale(0.015625)"/>
      <path id="DejaVuSans-6c" d="M 603 4863 
L 1178 4863 
L 1178 0 
L 603 0 
L 603 4863 
z
" transform="scale(0.015625)"/>
      <path id="DejaVuSans-76" d="M 191 3500 
L 800 3500 
L 1894 563 
L 2988 3500 
L 3597 3500 
L 2284 0 
L 1503 0 
L 191 3500 
z
" transform="scale(0.015625)"/>
     </defs>
     <use xlink:href="#DejaVuSans-32"/>
     <use xlink:href="#DejaVuSans-30" transform="translate(63.623047 0)"/>
     <use xlink:href="#DejaVuSans-32" transform="translate(127.246094 0)"/>
     <use xlink:href="#DejaVuSans-35" transform="translate(190.869141 0)"/>
     <use xlink:href="#DejaVuSans-2d" transform="translate(254.492188 0)"/>
     <use xlink:href="#DejaVuSans-30" transform="translate(290.576172 0)"/>
     <use xlink:href="#DejaVuSans-37" transform="translate(354.199219 0)"/>
     <use xlink:href="#DejaVuSans-2d" transform="translate(417.822266 0)"/>
     <use xlink:href="#DejaVuSans-30" transform="translate(453.90625 0)"/>
     <use xlink:href="#DejaVuSans-32" transform="translate(517.529297 0)"/>
     <use xlink:href="#DejaVuSans-20" transform="translate(581.152344 0)"/>
     <use xlink:href="#DejaVuSans-54" transform="translate(612.939453 0)"/>
     <use xlink:href="#DejaVuSans-72" transform="translate(659.273438 0)"/>
     <use xlink:href="#DejaVuSans-69" transform="translate(700.386719 0)"/>
     <use xlink:href="#DejaVuSans-61" transform="translate(728.169922 0)"/>
     <use xlink:href="#DejaVuSans-6c" transform="translate(789.449219 0)"/>
     <use xlink:href="#DejaVuSans-20" transform="translate(817.232422 0)"/>
     <use xlink:href="#DejaVuSans-32" transform="translate(849.019531 0)"/>
     <use xlink:href="#DejaVuSans-37" transform="translate(912.642578 0)"/>
     <use xlink:href="#DejaVuSans-20" transform="translate(976.265625 0)"/>
     <use xlink:href="#DejaVuSans-2d" transform="translate(1008.052734 0)"/>
     <use xlink:href="#DejaVuSans-20" transform="translate(1044.136719 0)"/>
     <use xlink:href="#DejaVuSans-53" transform="translate(1075.923828 0)"/>
     <use xlink:href="#DejaVuSans-74" transform="translate(1139.400391 0)"/>
     <use xlink:href="#DejaVuSans-72" transform="translate(1178.609375 0)"/>
     <use xlink:href="#DejaVuSans-65" transform="translate(1217.472656 0)"/>
     <use xlink:href="#DejaVuSans-73" transform="translate(1278.996094 0)"/>
     <use xlink:href="#DejaVuSans-73" transform="translate(1331.095703 0)"/>
     <use xlink:href="#DejaVuSans-20" transform="translate(1383.195312 0)"/>
     <use xlink:href="#DejaVuSans-76" transform="translate(1414.982422 0)"/>
     <use xlink:href="#DejaVuSans-73" transform="translate(1474.162109 0)"/>
     <use xlink:href="#DejaVuSans-20" transform="translate(1526.261719 0)"/>
     <use xlink:href="#DejaVuSans-53" transform="translate(1558.048828 0)"/>
     <use xlink:href="#DejaVuSans-74" transform="translate(1621.525391 0)"/>
     <use xlink:href="#DejaVuSans-72" transform="translate(1660.734375 0)"/>
     <use xlink:href="#DejaVuSans-61" transform="translate(1701.847656 0)"/>
     <use xlink:href="#DejaVuSans-69" transform="translate(1763.126953 0)"/>
     <use xlink:href="#DejaVuSans-6e" transform="translate(1790.910156 0)"/>
    </g>
   </g>
   <g id="legend_1">
    <g id="patch_7">
     <path d="M 64.17 64.23625 
L 170.154375 64.23625 
Q 172.154375 64.23625 172.154375 62.23625 
L 172.154375 33.88 
Q 172.154375 31.88 170.154375 31.88 
L 64.17 31.88 
Q 62.17 31.88 62.17 33.88 
L 62.17 62.23625 
Q 62.17 64.23625 64.17 64.23625 
z
" style="fill: #ffffff; opacity: 0.8; stroke: #cccccc; stroke-linejoin: miter"/>
    </g>
    <g id="line2d_33">
     <path d="M 66.17 39.978437 
L 76.17 39.978437 
L 86.17 39.978437 
" style="fill: none; stroke: #ff0000; stroke-width: 2; stroke-linecap: square"/>
    </g>
    <g id="text_19">
     <!-- Raw Force -->
     <g transform="translate(94.17 43.478437) scale(0.1 -0.1)">
      <defs>
       <path id="DejaVuSans-52" d="M 2841 2188 
Q 3044 2119 3236 1894 
Q 3428 1669 3622 1275 
L 4263 0 
L 3584 0 
L 2988 1197 
Q 2756 1666 2539 1819 
Q 2322 1972 1947 1972 
L 1259 1972 
L 1259 0 
L 628 0 
L 628 4666 
L 2053 4666 
Q 2853 4666 3247 4331 
Q 3641 3997 3641 3322 
Q 3641 2881 3436 2590 
Q 3231 2300 2841 2188 
z
M 1259 4147 
L 1259 2491 
L 2053 2491 
Q 2509 2491 2742 2702 
Q 2975 2913 2975 3322 
Q 2975 3731 2742 3939 
Q 2509 4147 2053 4147 
L 1259 4147 
z
" transform="scale(0.015625)"/>
       <path id="DejaVuSans-77" d="M 269 3500 
L 844 3500 
L 1563 769 
L 2278 3500 
L 2956 3500 
L 3675 769 
L 4391 3500 
L 4966 3500 
L 4050 0 
L 3372 0 
L 2619 2869 
L 1863 0 
L 1184 0 
L 269 3500 
z
" transform="scale(0.015625)"/>
       <path id="DejaVuSans-46" d="M 628 4666 
L 3309 4666 
L 3309 4134 
L 1259 4134 
L 1259 2759 
L 3109 2759 
L 3109 2228 
L 1259 2228 
L 1259 0 
L 628 0 
L 628 4666 
z
" transform="scale(0.015625)"/>
       <path id="DejaVuSans-6f" d="M 1959 3097 
Q 1497 3097 1228 2736 
Q 959 2375 959 1747 
Q 959 1119 1226 758 
Q 1494 397 1959 397 
Q 2419 397 2687 759 
Q 2956 1122 2956 1747 
Q 2956 2369 2687 2733 
Q 2419 3097 1959 3097 
z
M 1959 3584 
Q 2709 3584 3137 3096 
Q 3566 2609 3566 1747 
Q 3566 888 3137 398 
Q 2709 -91 1959 -91 
Q 1206 -91 779 398 
Q 353 888 353 1747 
Q 353 2609 779 3096 
Q 1206 3584 1959 3584 
z
" transform="scale(0.015625)"/>
       <path id="DejaVuSans-63" d="M 3122 3366 
L 3122 2828 
Q 2878 2963 2633 3030 
Q 2388 3097 2138 3097 
Q 1578 3097 1268 2742 
Q 959 2388 959 1747 
Q 959 1106 1268 751 
Q 1578 397 2138 397 
Q 2388 397 2633 464 
Q 2878 531 3122 666 
L 3122 134 
Q 2881 22 2623 -34 
Q 2366 -91 2075 -91 
Q 1284 -91 818 406 
Q 353 903 353 1747 
Q 353 2603 823 3093 
Q 1294 3584 2113 3584 
Q 2378 3584 2631 3529 
Q 2884 3475 3122 3366 
z
" transform="scale(0.015625)"/>
      </defs>
      <use xlink:href="#DejaVuSans-52"/>
      <use xlink:href="#DejaVuSans-61" transform="translate(67.232422 0)"/>
      <use xlink:href="#DejaVuSans-77" transform="translate(128.511719 0)"/>
      <use xlink:href="#DejaVuSans-20" transform="translate(210.298828 0)"/>
      <use xlink:href="#DejaVuSans-46" transform="translate(242.085938 0)"/>
      <use xlink:href="#DejaVuSans-6f" transform="translate(295.980469 0)"/>
      <use xlink:href="#DejaVuSans-72" transform="translate(357.162109 0)"/>
      <use xlink:href="#DejaVuSans-63" transform="translate(396.025391 0)"/>
      <use xlink:href="#DejaVuSans-65" transform="translate(451.005859 0)"/>
     </g>
    </g>
    <g id="line2d_34">
     <path d="M 66.17 54.656563 
L 76.17 54.656563 
L 86.17 54.656563 
" style="fill: none; stroke: #000000; stroke-width: 2; stroke-linecap: square"/>
    </g>
    <g id="text_20">
     <!-- Adjusted Force -->
     <g transform="translate(94.17 58.156563) scale(0.1 -0.1)">
      <defs>
       <path id="DejaVuSans-41" d="M 2188 4044 
L 1331 1722 
L 3047 1722 
L 2188 4044 
z
M 1831 4666 
L 2547 4666 
L 4325 0 
L 3669 0 
L 3244 1197 
L 1141 1197 
L 716 0 
L 50 0 
L 1831 4666 
z
" transform="scale(0.015625)"/>
       <path id="DejaVuSans-64" d="M 2906 2969 
L 2906 4863 
L 3481 4863 
L 3481 0 
L 2906 0 
L 2906 525 
Q 2725 213 2448 61 
Q 2172 -91 1784 -91 
Q 1150 -91 751 415 
Q 353 922 353 1747 
Q 353 2572 751 3078 
Q 1150 3584 1784 3584 
Q 2172 3584 2448 3432 
Q 2725 3281 2906 2969 
z
M 947 1747 
Q 947 1113 1208 752 
Q 1469 391 1925 391 
Q 2381 391 2643 752 
Q 2906 1113 2906 1747 
Q 2906 2381 2643 2742 
Q 2381 3103 1925 3103 
Q 1469 3103 1208 2742 
Q 947 2381 947 1747 
z
" transform="scale(0.015625)"/>
       <path id="DejaVuSans-6a" d="M 603 3500 
L 1178 3500 
L 1178 -63 
Q 1178 -731 923 -1031 
Q 669 -1331 103 -1331 
L -116 -1331 
L -116 -844 
L 38 -844 
Q 366 -844 484 -692 
Q 603 -541 603 -63 
L 603 3500 
z
M 603 4863 
L 1178 4863 
L 1178 4134 
L 603 4134 
L 603 4863 
z
" transform="scale(0.015625)"/>
       <path id="DejaVuSans-75" d="M 544 1381 
L 544 3500 
L 1119 3500 
L 1119 1403 
Q 1119 906 1312 657 
Q 1506 409 1894 409 
Q 2359 409 2629 706 
Q 2900 1003 2900 1516 
L 2900 3500 
L 3475 3500 
L 3475 0 
L 2900 0 
L 2900 538 
Q 2691 219 2414 64 
Q 2138 -91 1772 -91 
Q 1169 -91 856 284 
Q 544 659 544 1381 
z
M 1991 3584 
L 1991 3584 
z
" transform="scale(0.015625)"/>
      </defs>
      <use xlink:href="#DejaVuSans-41"/>
      <use xlink:href="#DejaVuSans-64" transform="translate(66.658203 0)"/>
      <use xlink:href="#DejaVuSans-6a" transform="translate(130.134766 0)"/>
      <use xlink:href="#DejaVuSans-75" transform="translate(157.917969 0)"/>
      <use xlink:href="#DejaVuSans-73" transform="translate(221.296875 0)"/>
      <use xlink:href="#DejaVuSans-74" transform="translate(273.396484 0)"/>
      <use xlink:href="#DejaVuSans-65" transform="translate(312.605469 0)"/>
      <use xlink:href="#DejaVuSans-64" transform="translate(374.128906 0)"/>
      <use xlink:href="#DejaVuSans-20" transform="translate(437.605469 0)"/>
      <use xlink:href="#DejaVuSans-46" transform="translate(469.392578 0)"/>
      <use xlink:href="#DejaVuSans-6f" transform="translate(523.287109 0)"/>
      <use xlink:href="#DejaVuSans-72" transform="translate(584.46875 0)"/>
      <use xlink:href="#DejaVuSans-63" transform="translate(623.332031 0)"/>
      <use xlink:href="#DejaVuSans-65" transform="translate(678.3125 0)"/>
     </g>
    </g>
   </g>
  </g>
 </g>
 <defs>
  <clipPath id="pb17b3627a9">
   <rect x="57.17" y="26.88" width="392.83" height="276.76"/>
  </clipPath>
 </defs>
</svg>
