<?xml version="1.0" encoding="utf-8" standalone="no"?>
<!DOCTYPE svg PUBLIC "-//W3C//DTD SVG 1.1//EN"
  "http://www.w3.org/Graphics/SVG/1.1/DTD/svg11.dtd">
<svg xmlns:xlink="http://www.w3.org/1999/xlink" width="460.8pt" height="345.6pt" viewBox="0 0 460.8 345.6" xmlns="http://www.w3.org/2000/svg" version="1.1">
 <metadata>
  <rdf:RDF xmlns:dc="http://purl.org/dc/elements/1.1/" xmlns:cc="http://creativecommons.org/ns#" xmlns:rdf="http://www.w3.org/1999/02/22-rdf-syntax-ns#">
   <cc:Work>
    <dc:type rdf:resource="http://purl.org/dc/dcmitype/StillImage"/>
    <dc:date>2025-07-28T21:14:55.647654</dc:date>
    <dc:format>image/svg+xml</dc:format>
    <dc:creator>
     <cc:Agent>
      <dc:title>Matplotlib v3.10.3, https://matplotlib.org/</dc:title>
     </cc:Agent>
    </dc:creator>
   </cc:Work>
  </rdf:RDF>
 </metadata>
 <defs>
  <style type="text/css">*{stroke-linejoin: round; stroke-linecap: butt}</style>
 </defs>
 <g id="figure_1">
  <g id="patch_1">
   <path d="M 0 345.6 
L 460.8 345.6 
L 460.8 0 
L 0 0 
z
" style="fill: #ffffff"/>
  </g>
  <g id="axes_1">
   <g id="patch_2">
    <path d="M 57.17 303.64 
L 450 303.64 
L 450 26.88 
L 57.17 26.88 
z
" style="fill: #ffffff"/>
   </g>
   <g id="matplotlib.axis_1">
    <g id="xtick_1">
     <g id="line2d_1">
      <path d="M 75.186483 303.64 
L 75.186483 26.88 
" clip-path="url(#pe30883fcf2)" style="fill: none; stroke: #b0b0b0; stroke-opacity: 0.3; stroke-width: 0.8; stroke-linecap: square"/>
     </g>
     <g id="line2d_2">
      <defs>
       <path id="m7619961ce0" d="M 0 0 
L 0 3.5 
" style="stroke: #000000; stroke-width: 0.8"/>
      </defs>
      <g>
       <use xlink:href="#m7619961ce0" x="75.186483" y="303.64" style="stroke: #000000; stroke-width: 0.8"/>
      </g>
     </g>
     <g id="text_1">
      <!-- 0.000 -->
      <g transform="translate(60.872421 318.238437) scale(0.1 -0.1)">
       <defs>
        <path id="DejaVuSans-30" d="M 2034 4250 
Q 1547 4250 1301 3770 
Q 1056 3291 1056 2328 
Q 1056 1369 1301 889 
Q 1547 409 2034 409 
Q 2525 409 2770 889 
Q 3016 1369 3016 2328 
Q 3016 3291 2770 3770 
Q 2525 4250 2034 4250 
z
M 2034 4750 
Q 2819 4750 3233 4129 
Q 3647 3509 3647 2328 
Q 3647 1150 3233 529 
Q 2819 -91 2034 -91 
Q 1250 -91 836 529 
Q 422 1150 422 2328 
Q 422 3509 836 4129 
Q 1250 4750 2034 4750 
z
" transform="scale(0.015625)"/>
        <path id="DejaVuSans-2e" d="M 684 794 
L 1344 794 
L 1344 0 
L 684 0 
L 684 794 
z
" transform="scale(0.015625)"/>
       </defs>
       <use xlink:href="#DejaVuSans-30"/>
       <use xlink:href="#DejaVuSans-2e" transform="translate(63.623047 0)"/>
       <use xlink:href="#DejaVuSans-30" transform="translate(95.410156 0)"/>
       <use xlink:href="#DejaVuSans-30" transform="translate(159.033203 0)"/>
       <use xlink:href="#DejaVuSans-30" transform="translate(222.65625 0)"/>
      </g>
     </g>
    </g>
    <g id="xtick_2">
     <g id="line2d_3">
      <path d="M 125.138154 303.64 
L 125.138154 26.88 
" clip-path="url(#pe30883fcf2)" style="fill: none; stroke: #b0b0b0; stroke-opacity: 0.3; stroke-width: 0.8; stroke-linecap: square"/>
     </g>
     <g id="line2d_4">
      <g>
       <use xlink:href="#m7619961ce0" x="125.138154" y="303.64" style="stroke: #000000; stroke-width: 0.8"/>
      </g>
     </g>
     <g id="text_2">
      <!-- 0.025 -->
      <g transform="translate(110.824091 318.238437) scale(0.1 -0.1)">
       <defs>
        <path id="DejaVuSans-32" d="M 1228 531 
L 3431 531 
L 3431 0 
L 469 0 
L 469 531 
Q 828 903 1448 1529 
Q 2069 2156 2228 2338 
Q 2531 2678 2651 2914 
Q 2772 3150 2772 3378 
Q 2772 3750 2511 3984 
Q 2250 4219 1831 4219 
Q 1534 4219 1204 4116 
Q 875 4013 500 3803 
L 500 4441 
Q 881 4594 1212 4672 
Q 1544 4750 1819 4750 
Q 2544 4750 2975 4387 
Q 3406 4025 3406 3419 
Q 3406 3131 3298 2873 
Q 3191 2616 2906 2266 
Q 2828 2175 2409 1742 
Q 1991 1309 1228 531 
z
" transform="scale(0.015625)"/>
        <path id="DejaVuSans-35" d="M 691 4666 
L 3169 4666 
L 3169 4134 
L 1269 4134 
L 1269 2991 
Q 1406 3038 1543 3061 
Q 1681 3084 1819 3084 
Q 2600 3084 3056 2656 
Q 3513 2228 3513 1497 
Q 3513 744 3044 326 
Q 2575 -91 1722 -91 
Q 1428 -91 1123 -41 
Q 819 9 494 109 
L 494 744 
Q 775 591 1075 516 
Q 1375 441 1709 441 
Q 2250 441 2565 725 
Q 2881 1009 2881 1497 
Q 2881 1984 2565 2268 
Q 2250 2553 1709 2553 
Q 1456 2553 1204 2497 
Q 953 2441 691 2322 
L 691 4666 
z
" transform="scale(0.015625)"/>
       </defs>
       <use xlink:href="#DejaVuSans-30"/>
       <use xlink:href="#DejaVuSans-2e" transform="translate(63.623047 0)"/>
       <use xlink:href="#DejaVuSans-30" transform="translate(95.410156 0)"/>
       <use xlink:href="#DejaVuSans-32" transform="translate(159.033203 0)"/>
       <use xlink:href="#DejaVuSans-35" transform="translate(222.65625 0)"/>
      </g>
     </g>
    </g>
    <g id="xtick_3">
     <g id="line2d_5">
      <path d="M 175.089825 303.64 
L 175.089825 26.88 
" clip-path="url(#pe30883fcf2)" style="fill: none; stroke: #b0b0b0; stroke-opacity: 0.3; stroke-width: 0.8; stroke-linecap: square"/>
     </g>
     <g id="line2d_6">
      <g>
       <use xlink:href="#m7619961ce0" x="175.089825" y="303.64" style="stroke: #000000; stroke-width: 0.8"/>
      </g>
     </g>
     <g id="text_3">
      <!-- 0.050 -->
      <g transform="translate(160.775762 318.238437) scale(0.1 -0.1)">
       <use xlink:href="#DejaVuSans-30"/>
       <use xlink:href="#DejaVuSans-2e" transform="translate(63.623047 0)"/>
       <use xlink:href="#DejaVuSans-30" transform="translate(95.410156 0)"/>
       <use xlink:href="#DejaVuSans-35" transform="translate(159.033203 0)"/>
       <use xlink:href="#DejaVuSans-30" transform="translate(222.65625 0)"/>
      </g>
     </g>
    </g>
    <g id="xtick_4">
     <g id="line2d_7">
      <path d="M 225.041495 303.64 
L 225.041495 26.88 
" clip-path="url(#pe30883fcf2)" style="fill: none; stroke: #b0b0b0; stroke-opacity: 0.3; stroke-width: 0.8; stroke-linecap: square"/>
     </g>
     <g id="line2d_8">
      <g>
       <use xlink:href="#m7619961ce0" x="225.041495" y="303.64" style="stroke: #000000; stroke-width: 0.8"/>
      </g>
     </g>
     <g id="text_4">
      <!-- 0.075 -->
      <g transform="translate(210.727433 318.238437) scale(0.1 -0.1)">
       <defs>
        <path id="DejaVuSans-37" d="M 525 4666 
L 3525 4666 
L 3525 4397 
L 1831 0 
L 1172 0 
L 2766 4134 
L 525 4134 
L 525 4666 
z
" transform="scale(0.015625)"/>
       </defs>
       <use xlink:href="#DejaVuSans-30"/>
       <use xlink:href="#DejaVuSans-2e" transform="translate(63.623047 0)"/>
       <use xlink:href="#DejaVuSans-30" transform="translate(95.410156 0)"/>
       <use xlink:href="#DejaVuSans-37" transform="translate(159.033203 0)"/>
       <use xlink:href="#DejaVuSans-35" transform="translate(222.65625 0)"/>
      </g>
     </g>
    </g>
    <g id="xtick_5">
     <g id="line2d_9">
      <path d="M 274.993166 303.64 
L 274.993166 26.88 
" clip-path="url(#pe30883fcf2)" style="fill: none; stroke: #b0b0b0; stroke-opacity: 0.3; stroke-width: 0.8; stroke-linecap: square"/>
     </g>
     <g id="line2d_10">
      <g>
       <use xlink:href="#m7619961ce0" x="274.993166" y="303.64" style="stroke: #000000; stroke-width: 0.8"/>
      </g>
     </g>
     <g id="text_5">
      <!-- 0.100 -->
      <g transform="translate(260.679103 318.238437) scale(0.1 -0.1)">
       <defs>
        <path id="DejaVuSans-31" d="M 794 531 
L 1825 531 
L 1825 4091 
L 703 3866 
L 703 4441 
L 1819 4666 
L 2450 4666 
L 2450 531 
L 3481 531 
L 3481 0 
L 794 0 
L 794 531 
z
" transform="scale(0.015625)"/>
       </defs>
       <use xlink:href="#DejaVuSans-30"/>
       <use xlink:href="#DejaVuSans-2e" transform="translate(63.623047 0)"/>
       <use xlink:href="#DejaVuSans-31" transform="translate(95.410156 0)"/>
       <use xlink:href="#DejaVuSans-30" transform="translate(159.033203 0)"/>
       <use xlink:href="#DejaVuSans-30" transform="translate(222.65625 0)"/>
      </g>
     </g>
    </g>
    <g id="xtick_6">
     <g id="line2d_11">
      <path d="M 324.944836 303.64 
L 324.944836 26.88 
" clip-path="url(#pe30883fcf2)" style="fill: none; stroke: #b0b0b0; stroke-opacity: 0.3; stroke-width: 0.8; stroke-linecap: square"/>
     </g>
     <g id="line2d_12">
      <g>
       <use xlink:href="#m7619961ce0" x="324.944836" y="303.64" style="stroke: #000000; stroke-width: 0.8"/>
      </g>
     </g>
     <g id="text_6">
      <!-- 0.125 -->
      <g transform="translate(310.630774 318.238437) scale(0.1 -0.1)">
       <use xlink:href="#DejaVuSans-30"/>
       <use xlink:href="#DejaVuSans-2e" transform="translate(63.623047 0)"/>
       <use xlink:href="#DejaVuSans-31" transform="translate(95.410156 0)"/>
       <use xlink:href="#DejaVuSans-32" transform="translate(159.033203 0)"/>
       <use xlink:href="#DejaVuSans-35" transform="translate(222.65625 0)"/>
      </g>
     </g>
    </g>
    <g id="xtick_7">
     <g id="line2d_13">
      <path d="M 374.896507 303.64 
L 374.896507 26.88 
" clip-path="url(#pe30883fcf2)" style="fill: none; stroke: #b0b0b0; stroke-opacity: 0.3; stroke-width: 0.8; stroke-linecap: square"/>
     </g>
     <g id="line2d_14">
      <g>
       <use xlink:href="#m7619961ce0" x="374.896507" y="303.64" style="stroke: #000000; stroke-width: 0.8"/>
      </g>
     </g>
     <g id="text_7">
      <!-- 0.150 -->
      <g transform="translate(360.582445 318.238437) scale(0.1 -0.1)">
       <use xlink:href="#DejaVuSans-30"/>
       <use xlink:href="#DejaVuSans-2e" transform="translate(63.623047 0)"/>
       <use xlink:href="#DejaVuSans-31" transform="translate(95.410156 0)"/>
       <use xlink:href="#DejaVuSans-35" transform="translate(159.033203 0)"/>
       <use xlink:href="#DejaVuSans-30" transform="translate(222.65625 0)"/>
      </g>
     </g>
    </g>
    <g id="xtick_8">
     <g id="line2d_15">
      <path d="M 424.848178 303.64 
L 424.848178 26.88 
" clip-path="url(#pe30883fcf2)" style="fill: none; stroke: #b0b0b0; stroke-opacity: 0.3; stroke-width: 0.8; stroke-linecap: square"/>
     </g>
     <g id="line2d_16">
      <g>
       <use xlink:href="#m7619961ce0" x="424.848178" y="303.64" style="stroke: #000000; stroke-width: 0.8"/>
      </g>
     </g>
     <g id="text_8">
      <!-- 0.175 -->
      <g transform="translate(410.534115 318.238437) scale(0.1 -0.1)">
       <use xlink:href="#DejaVuSans-30"/>
       <use xlink:href="#DejaVuSans-2e" transform="translate(63.623047 0)"/>
       <use xlink:href="#DejaVuSans-31" transform="translate(95.410156 0)"/>
       <use xlink:href="#DejaVuSans-37" transform="translate(159.033203 0)"/>
       <use xlink:href="#DejaVuSans-35" transform="translate(222.65625 0)"/>
      </g>
     </g>
    </g>
    <g id="text_9">
     <!-- Strain [-] -->
     <g transform="translate(231.47875 331.916562) scale(0.1 -0.1)">
      <defs>
       <path id="DejaVuSans-53" d="M 3425 4513 
L 3425 3897 
Q 3066 4069 2747 4153 
Q 2428 4238 2131 4238 
Q 1616 4238 1336 4038 
Q 1056 3838 1056 3469 
Q 1056 3159 1242 3001 
Q 1428 2844 1947 2747 
L 2328 2669 
Q 3034 2534 3370 2195 
Q 3706 1856 3706 1288 
Q 3706 609 3251 259 
Q 2797 -91 1919 -91 
Q 1588 -91 1214 -16 
Q 841 59 441 206 
L 441 856 
Q 825 641 1194 531 
Q 1563 422 1919 422 
Q 2459 422 2753 634 
Q 3047 847 3047 1241 
Q 3047 1584 2836 1778 
Q 2625 1972 2144 2069 
L 1759 2144 
Q 1053 2284 737 2584 
Q 422 2884 422 3419 
Q 422 4038 858 4394 
Q 1294 4750 2059 4750 
Q 2388 4750 2728 4690 
Q 3069 4631 3425 4513 
z
" transform="scale(0.015625)"/>
       <path id="DejaVuSans-74" d="M 1172 4494 
L 1172 3500 
L 2356 3500 
L 2356 3053 
L 1172 3053 
L 1172 1153 
Q 1172 725 1289 603 
Q 1406 481 1766 481 
L 2356 481 
L 2356 0 
L 1766 0 
Q 1100 0 847 248 
Q 594 497 594 1153 
L 594 3053 
L 172 3053 
L 172 3500 
L 594 3500 
L 594 4494 
L 1172 4494 
z
" transform="scale(0.015625)"/>
       <path id="DejaVuSans-72" d="M 2631 2963 
Q 2534 3019 2420 3045 
Q 2306 3072 2169 3072 
Q 1681 3072 1420 2755 
Q 1159 2438 1159 1844 
L 1159 0 
L 581 0 
L 581 3500 
L 1159 3500 
L 1159 2956 
Q 1341 3275 1631 3429 
Q 1922 3584 2338 3584 
Q 2397 3584 2469 3576 
Q 2541 3569 2628 3553 
L 2631 2963 
z
" transform="scale(0.015625)"/>
       <path id="DejaVuSans-61" d="M 2194 1759 
Q 1497 1759 1228 1600 
Q 959 1441 959 1056 
Q 959 750 1161 570 
Q 1363 391 1709 391 
Q 2188 391 2477 730 
Q 2766 1069 2766 1631 
L 2766 1759 
L 2194 1759 
z
M 3341 1997 
L 3341 0 
L 2766 0 
L 2766 531 
Q 2569 213 2275 61 
Q 1981 -91 1556 -91 
Q 1019 -91 701 211 
Q 384 513 384 1019 
Q 384 1609 779 1909 
Q 1175 2209 1959 2209 
L 2766 2209 
L 2766 2266 
Q 2766 2663 2505 2880 
Q 2244 3097 1772 3097 
Q 1472 3097 1187 3025 
Q 903 2953 641 2809 
L 641 3341 
Q 956 3463 1253 3523 
Q 1550 3584 1831 3584 
Q 2591 3584 2966 3190 
Q 3341 2797 3341 1997 
z
" transform="scale(0.015625)"/>
       <path id="DejaVuSans-69" d="M 603 3500 
L 1178 3500 
L 1178 0 
L 603 0 
L 603 3500 
z
M 603 4863 
L 1178 4863 
L 1178 4134 
L 603 4134 
L 603 4863 
z
" transform="scale(0.015625)"/>
       <path id="DejaVuSans-6e" d="M 3513 2113 
L 3513 0 
L 2938 0 
L 2938 2094 
Q 2938 2591 2744 2837 
Q 2550 3084 2163 3084 
Q 1697 3084 1428 2787 
Q 1159 2491 1159 1978 
L 1159 0 
L 581 0 
L 581 3500 
L 1159 3500 
L 1159 2956 
Q 1366 3272 1645 3428 
Q 1925 3584 2291 3584 
Q 2894 3584 3203 3211 
Q 3513 2838 3513 2113 
z
" transform="scale(0.015625)"/>
       <path id="DejaVuSans-20" transform="scale(0.015625)"/>
       <path id="DejaVuSans-5b" d="M 550 4863 
L 1875 4863 
L 1875 4416 
L 1125 4416 
L 1125 -397 
L 1875 -397 
L 1875 -844 
L 550 -844 
L 550 4863 
z
" transform="scale(0.015625)"/>
       <path id="DejaVuSans-2d" d="M 313 2009 
L 1997 2009 
L 1997 1497 
L 313 1497 
L 313 2009 
z
" transform="scale(0.015625)"/>
       <path id="DejaVuSans-5d" d="M 1947 4863 
L 1947 -844 
L 622 -844 
L 622 -397 
L 1369 -397 
L 1369 4416 
L 622 4416 
L 622 4863 
L 1947 4863 
z
" transform="scale(0.015625)"/>
      </defs>
      <use xlink:href="#DejaVuSans-53"/>
      <use xlink:href="#DejaVuSans-74" transform="translate(63.476562 0)"/>
      <use xlink:href="#DejaVuSans-72" transform="translate(102.685547 0)"/>
      <use xlink:href="#DejaVuSans-61" transform="translate(143.798828 0)"/>
      <use xlink:href="#DejaVuSans-69" transform="translate(205.078125 0)"/>
      <use xlink:href="#DejaVuSans-6e" transform="translate(232.861328 0)"/>
      <use xlink:href="#DejaVuSans-20" transform="translate(296.240234 0)"/>
      <use xlink:href="#DejaVuSans-5b" transform="translate(328.027344 0)"/>
      <use xlink:href="#DejaVuSans-2d" transform="translate(367.041016 0)"/>
      <use xlink:href="#DejaVuSans-5d" transform="translate(403.125 0)"/>
     </g>
    </g>
   </g>
   <g id="matplotlib.axis_2">
    <g id="ytick_1">
     <g id="line2d_17">
      <path d="M 57.17 272.095169 
L 450 272.095169 
" clip-path="url(#pe30883fcf2)" style="fill: none; stroke: #b0b0b0; stroke-opacity: 0.3; stroke-width: 0.8; stroke-linecap: square"/>
     </g>
     <g id="line2d_18">
      <defs>
       <path id="m68aaab4cbc" d="M 0 0 
L -3.5 0 
" style="stroke: #000000; stroke-width: 0.8"/>
      </defs>
      <g>
       <use xlink:href="#m68aaab4cbc" x="57.17" y="272.095169" style="stroke: #000000; stroke-width: 0.8"/>
      </g>
     </g>
     <g id="text_10">
      <!-- 0 -->
      <g transform="translate(43.8075 275.894388) scale(0.1 -0.1)">
       <use xlink:href="#DejaVuSans-30"/>
      </g>
     </g>
    </g>
    <g id="ytick_2">
     <g id="line2d_19">
      <path d="M 57.17 234.740377 
L 450 234.740377 
" clip-path="url(#pe30883fcf2)" style="fill: none; stroke: #b0b0b0; stroke-opacity: 0.3; stroke-width: 0.8; stroke-linecap: square"/>
     </g>
     <g id="line2d_20">
      <g>
       <use xlink:href="#m68aaab4cbc" x="57.17" y="234.740377" style="stroke: #000000; stroke-width: 0.8"/>
      </g>
     </g>
     <g id="text_11">
      <!-- 250 -->
      <g transform="translate(31.0825 238.539596) scale(0.1 -0.1)">
       <use xlink:href="#DejaVuSans-32"/>
       <use xlink:href="#DejaVuSans-35" transform="translate(63.623047 0)"/>
       <use xlink:href="#DejaVuSans-30" transform="translate(127.246094 0)"/>
      </g>
     </g>
    </g>
    <g id="ytick_3">
     <g id="line2d_21">
      <path d="M 57.17 197.385585 
L 450 197.385585 
" clip-path="url(#pe30883fcf2)" style="fill: none; stroke: #b0b0b0; stroke-opacity: 0.3; stroke-width: 0.8; stroke-linecap: square"/>
     </g>
     <g id="line2d_22">
      <g>
       <use xlink:href="#m68aaab4cbc" x="57.17" y="197.385585" style="stroke: #000000; stroke-width: 0.8"/>
      </g>
     </g>
     <g id="text_12">
      <!-- 500 -->
      <g transform="translate(31.0825 201.184804) scale(0.1 -0.1)">
       <use xlink:href="#DejaVuSans-35"/>
       <use xlink:href="#DejaVuSans-30" transform="translate(63.623047 0)"/>
       <use xlink:href="#DejaVuSans-30" transform="translate(127.246094 0)"/>
      </g>
     </g>
    </g>
    <g id="ytick_4">
     <g id="line2d_23">
      <path d="M 57.17 160.030793 
L 450 160.030793 
" clip-path="url(#pe30883fcf2)" style="fill: none; stroke: #b0b0b0; stroke-opacity: 0.3; stroke-width: 0.8; stroke-linecap: square"/>
     </g>
     <g id="line2d_24">
      <g>
       <use xlink:href="#m68aaab4cbc" x="57.17" y="160.030793" style="stroke: #000000; stroke-width: 0.8"/>
      </g>
     </g>
     <g id="text_13">
      <!-- 750 -->
      <g transform="translate(31.0825 163.830012) scale(0.1 -0.1)">
       <use xlink:href="#DejaVuSans-37"/>
       <use xlink:href="#DejaVuSans-35" transform="translate(63.623047 0)"/>
       <use xlink:href="#DejaVuSans-30" transform="translate(127.246094 0)"/>
      </g>
     </g>
    </g>
    <g id="ytick_5">
     <g id="line2d_25">
      <path d="M 57.17 122.676001 
L 450 122.676001 
" clip-path="url(#pe30883fcf2)" style="fill: none; stroke: #b0b0b0; stroke-opacity: 0.3; stroke-width: 0.8; stroke-linecap: square"/>
     </g>
     <g id="line2d_26">
      <g>
       <use xlink:href="#m68aaab4cbc" x="57.17" y="122.676001" style="stroke: #000000; stroke-width: 0.8"/>
      </g>
     </g>
     <g id="text_14">
      <!-- 1000 -->
      <g transform="translate(24.72 126.47522) scale(0.1 -0.1)">
       <use xlink:href="#DejaVuSans-31"/>
       <use xlink:href="#DejaVuSans-30" transform="translate(63.623047 0)"/>
       <use xlink:href="#DejaVuSans-30" transform="translate(127.246094 0)"/>
       <use xlink:href="#DejaVuSans-30" transform="translate(190.869141 0)"/>
      </g>
     </g>
    </g>
    <g id="ytick_6">
     <g id="line2d_27">
      <path d="M 57.17 85.32121 
L 450 85.32121 
" clip-path="url(#pe30883fcf2)" style="fill: none; stroke: #b0b0b0; stroke-opacity: 0.3; stroke-width: 0.8; stroke-linecap: square"/>
     </g>
     <g id="line2d_28">
      <g>
       <use xlink:href="#m68aaab4cbc" x="57.17" y="85.32121" style="stroke: #000000; stroke-width: 0.8"/>
      </g>
     </g>
     <g id="text_15">
      <!-- 1250 -->
      <g transform="translate(24.72 89.120428) scale(0.1 -0.1)">
       <use xlink:href="#DejaVuSans-31"/>
       <use xlink:href="#DejaVuSans-32" transform="translate(63.623047 0)"/>
       <use xlink:href="#DejaVuSans-35" transform="translate(127.246094 0)"/>
       <use xlink:href="#DejaVuSans-30" transform="translate(190.869141 0)"/>
      </g>
     </g>
    </g>
    <g id="ytick_7">
     <g id="line2d_29">
      <path d="M 57.17 47.966418 
L 450 47.966418 
" clip-path="url(#pe30883fcf2)" style="fill: none; stroke: #b0b0b0; stroke-opacity: 0.3; stroke-width: 0.8; stroke-linecap: square"/>
     </g>
     <g id="line2d_30">
      <g>
       <use xlink:href="#m68aaab4cbc" x="57.17" y="47.966418" style="stroke: #000000; stroke-width: 0.8"/>
      </g>
     </g>
     <g id="text_16">
      <!-- 1500 -->
      <g transform="translate(24.72 51.765636) scale(0.1 -0.1)">
       <use xlink:href="#DejaVuSans-31"/>
       <use xlink:href="#DejaVuSans-35" transform="translate(63.623047 0)"/>
       <use xlink:href="#DejaVuSans-30" transform="translate(127.246094 0)"/>
       <use xlink:href="#DejaVuSans-30" transform="translate(190.869141 0)"/>
      </g>
     </g>
    </g>
    <g id="text_17">
     <!-- Stress [Pa] -->
     <g transform="translate(18.640312 191.967812) rotate(-90) scale(0.1 -0.1)">
      <defs>
       <path id="DejaVuSans-65" d="M 3597 1894 
L 3597 1613 
L 953 1613 
Q 991 1019 1311 708 
Q 1631 397 2203 397 
Q 2534 397 2845 478 
Q 3156 559 3463 722 
L 3463 178 
Q 3153 47 2828 -22 
Q 2503 -91 2169 -91 
Q 1331 -91 842 396 
Q 353 884 353 1716 
Q 353 2575 817 3079 
Q 1281 3584 2069 3584 
Q 2775 3584 3186 3129 
Q 3597 2675 3597 1894 
z
M 3022 2063 
Q 3016 2534 2758 2815 
Q 2500 3097 2075 3097 
Q 1594 3097 1305 2825 
Q 1016 2553 972 2059 
L 3022 2063 
z
" transform="scale(0.015625)"/>
       <path id="DejaVuSans-73" d="M 2834 3397 
L 2834 2853 
Q 2591 2978 2328 3040 
Q 2066 3103 1784 3103 
Q 1356 3103 1142 2972 
Q 928 2841 928 2578 
Q 928 2378 1081 2264 
Q 1234 2150 1697 2047 
L 1894 2003 
Q 2506 1872 2764 1633 
Q 3022 1394 3022 966 
Q 3022 478 2636 193 
Q 2250 -91 1575 -91 
Q 1294 -91 989 -36 
Q 684 19 347 128 
L 347 722 
Q 666 556 975 473 
Q 1284 391 1588 391 
Q 1994 391 2212 530 
Q 2431 669 2431 922 
Q 2431 1156 2273 1281 
Q 2116 1406 1581 1522 
L 1381 1569 
Q 847 1681 609 1914 
Q 372 2147 372 2553 
Q 372 3047 722 3315 
Q 1072 3584 1716 3584 
Q 2034 3584 2315 3537 
Q 2597 3491 2834 3397 
z
" transform="scale(0.015625)"/>
       <path id="DejaVuSans-50" d="M 1259 4147 
L 1259 2394 
L 2053 2394 
Q 2494 2394 2734 2622 
Q 2975 2850 2975 3272 
Q 2975 3691 2734 3919 
Q 2494 4147 2053 4147 
L 1259 4147 
z
M 628 4666 
L 2053 4666 
Q 2838 4666 3239 4311 
Q 3641 3956 3641 3272 
Q 3641 2581 3239 2228 
Q 2838 1875 2053 1875 
L 1259 1875 
L 1259 0 
L 628 0 
L 628 4666 
z
" transform="scale(0.015625)"/>
      </defs>
      <use xlink:href="#DejaVuSans-53"/>
      <use xlink:href="#DejaVuSans-74" transform="translate(63.476562 0)"/>
      <use xlink:href="#DejaVuSans-72" transform="translate(102.685547 0)"/>
      <use xlink:href="#DejaVuSans-65" transform="translate(141.548828 0)"/>
      <use xlink:href="#DejaVuSans-73" transform="translate(203.072266 0)"/>
      <use xlink:href="#DejaVuSans-73" transform="translate(255.171875 0)"/>
      <use xlink:href="#DejaVuSans-20" transform="translate(307.271484 0)"/>
      <use xlink:href="#DejaVuSans-5b" transform="translate(339.058594 0)"/>
      <use xlink:href="#DejaVuSans-50" transform="translate(378.072266 0)"/>
      <use xlink:href="#DejaVuSans-61" transform="translate(433.875 0)"/>
      <use xlink:href="#DejaVuSans-5d" transform="translate(495.154297 0)"/>
     </g>
    </g>
   </g>
   <g id="line2d_31">
    <path d="M 75.186483 273.106478 
L 75.186483 273.209563 
L 75.186483 272.818899 
L 75.186264 272.945211 
L 75.915304 271.885491 
L 76.637762 269.53757 
L 77.395609 268.836997 
L 78.118612 269.18376 
L 78.871014 268.330585 
L 79.644649 266.795334 
L 80.432984 266.372305 
L 81.196819 266.892822 
L 82.011831 267.726911 
L 84.21895 269.363588 
L 86.486501 270.600231 
L 87.255781 270.460258 
L 88.780185 268.507963 
L 89.549465 268.275679 
L 90.284989 268.925814 
L 91.046647 269.04047 
L 91.809393 267.85013 
L 92.58194 266.404335 
L 93.32808 265.369284 
L 94.076127 264.599454 
L 94.83724 264.110907 
L 98.501798 263.206179 
L 101.599061 261.120958 
L 102.379229 260.662966 
L 103.812713 260.346245 
L 104.529727 259.992356 
L 106.030176 259.494282 
L 107.526814 258.514354 
L 108.958665 258.067071 
L 110.388883 257.324644 
L 111.957932 256.567413 
L 112.743226 256.075683 
L 113.460785 255.820937 
L 114.177254 255.727464 
L 114.957967 255.493901 
L 118.03318 253.753277 
L 121.107032 252.273935 
L 121.8774 251.746331 
L 125.598035 250.135639 
L 126.318316 249.912549 
L 129.199439 248.403756 
L 132.805744 246.690537 
L 133.521125 246.19695 
L 135.668357 245.236001 
L 137.225971 244.574762 
L 138.770519 243.585857 
L 139.546876 243.167711 
L 141.889014 242.227786 
L 143.439551 241.322983 
L 144.215363 240.814908 
L 149.670463 238.091757 
L 150.450631 237.661326 
L 152.789502 236.709905 
L 160.387567 232.405594 
L 163.387377 230.679299 
L 164.833927 230.003965 
L 165.558563 229.742683 
L 169.890048 227.46965 
L 170.604341 226.945825 
L 172.17121 226.049212 
L 173.738624 225.052905 
L 175.306583 224.188893 
L 176.091651 223.633884 
L 177.522957 223.011625 
L 178.237794 222.682305 
L 180.518411 221.22895 
L 181.958428 220.31769 
L 183.410423 219.651175 
L 184.867905 218.834549 
L 186.323166 218.206463 
L 187.761006 217.429702 
L 189.321342 216.417646 
L 190.102599 215.865314 
L 190.884945 215.473942 
L 194.007251 213.49062 
L 195.574121 212.651177 
L 200.79466 209.430267 
L 202.25101 208.663271 
L 204.434175 207.712637 
L 206.59284 206.280072 
L 208.030135 205.577176 
L 210.311841 203.953727 
L 213.238697 202.280511 
L 215.581379 200.764631 
L 217.07965 199.977634 
L 219.230702 198.677836 
L 220.674837 197.919408 
L 222.11812 196.9609 
L 227.859679 193.253648 
L 229.300785 192.539256 
L 231.518793 191.068104 
L 233.081307 190.009744 
L 236.198714 188.005633 
L 236.979426 187.634735 
L 239.189268 186.243905 
L 242.836949 184.226407 
L 244.386396 182.956375 
L 256.476724 175.454138 
L 259.58433 173.321512 
L 261.143033 172.485219 
L 265.78321 169.138786 
L 270.329201 166.225304 
L 271.042948 165.802748 
L 274.109723 163.463332 
L 278.737378 160.420705 
L 280.303158 159.537479 
L 281.855873 158.475181 
L 283.404776 157.20326 
L 286.50966 155.055986 
L 288.070541 154.105668 
L 290.351159 152.711846 
L 299.692608 146.224638 
L 300.412889 145.77011 
L 302.567742 144.015312 
L 304.722052 142.470296 
L 308.634326 139.685487 
L 310.968297 138.076213 
L 312.518834 136.678296 
L 315.648762 134.53559 
L 318.600662 132.545181 
L 320.053201 131.666522 
L 324.375431 128.094872 
L 327.252522 126.108922 
L 330.123301 124.133317 
L 332.403919 122.376629 
L 333.968066 121.071949 
L 340.093448 116.30996 
L 342.248302 114.60052 
L 343.689408 113.468453 
L 345.13487 112.205351 
L 348.759685 109.679462 
L 357.086197 102.819033 
L 361.447643 99.576231 
L 363.592391 97.58468 
L 370.794111 91.901351 
L 372.951687 89.96575 
L 374.39116 88.740132 
L 375.825189 87.671377 
L 377.322371 86.531751 
L 379.658521 84.810341 
L 381.966632 82.74087 
L 384.288626 80.606511 
L 386.630763 78.856752 
L 391.288362 75.055162 
L 393.6158 72.738425 
L 395.183214 71.459259 
L 396.679852 70.230491 
L 425.510415 44.357178 
L 427.007054 43.220859 
L 430.746607 41.002713 
L 431.465051 40.237686 
L 431.832133 39.46 
L 432.144091 40.230382 
L 432.003696 44.159798 
L 431.98539 53.971478 
L 431.982021 53.915903 
L 431.98362 65.044213 
L 431.984777 70.215706 
L 431.980728 70.022559 
L 431.26453 70.306737 
L 429.810834 73.544105 
L 429.078303 73.806097 
L 428.316374 73.573636 
L 426.825452 74.059386 
L 426.08649 74.412429 
L 425.35396 74.485683 
L 424.601558 75.023683 
L 423.862766 74.819098 
L 422.390355 78.215614 
L 420.912772 80.15405 
L 420.159009 81.48141 
L 419.43165 82.023583 
L 418.671082 81.795256 
L 417.191049 82.478583 
L 416.449807 83.200536 
L 415.735515 83.49692 
L 414.276307 87.080775 
L 413.542959 87.774693 
L 412.821453 88.204967 
L 412.101173 88.480621 
L 411.362653 88.92501 
L 409.884934 90.627205 
L 408.409801 92.268923 
L 406.961889 93.368152 
L 404.784782 95.757986 
L 404.066134 96.471749 
L 402.620673 97.521053 
L 399.688373 100.585886 
L 396.767097 103.028776 
L 396.04178 103.912317 
L 394.584886 105.207863 
L 393.85045 105.736964 
L 389.480582 109.824091 
L 388.038489 111.002008 
L 379.300252 118.688346 
L 377.120354 120.645681 
L 374.933651 122.243301 
L 373.445724 123.734769 
L 372.700127 124.251664 
L 371.234793 125.756992 
L 369.762995 126.71305 
L 366.123072 130.011604 
L 365.400613 130.598584 
L 363.944535 131.463935 
L 361.013324 134.097707 
L 359.555204 135.312931 
L 358.10144 136.553905 
L 357.375987 137.039617 
L 356.64754 137.688965 
L 355.920726 138.124908 
L 355.172135 138.713621 
L 353.693463 140.234698 
L 350.054612 142.78866 
L 349.33297 143.631568 
L 348.589959 144.304067 
L 347.11047 145.136108 
L 346.371679 145.508582 
L 345.626218 146.039179 
L 344.139516 147.685149 
L 343.402494 148.326858 
L 341.229129 149.601457 
L 339.760257 150.862669 
L 338.29084 152.074034 
L 334.667318 154.34561 
L 333.235468 155.489331 
L 330.299357 157.951986 
L 325.912203 160.852475 
L 323.697598 162.5616 
L 320.794698 164.572011 
L 318.587442 166.240817 
L 317.102782 167.180348 
L 314.952964 168.574859 
L 310.532192 171.935072 
L 306.941948 174.308901 
L 305.499753 175.316547 
L 302.593314 177.206239 
L 301.118453 178.328384 
L 297.423951 180.64458 
L 295.988289 181.360154 
L 294.507303 182.412529 
L 293.046325 183.580504 
L 290.116747 185.387748 
L 288.661486 186.413506 
L 287.192069 187.101952 
L 284.276102 189.288599 
L 282.080688 190.329437 
L 280.596402 191.291431 
L 279.124672 192.363099 
L 277.643005 193.239317 
L 276.900947 193.894807 
L 274.735205 195.098376 
L 273.248911 196.123347 
L 272.509575 196.681269 
L 268.895785 198.761529 
L 268.161076 199.372763 
L 267.444062 199.817526 
L 265.965934 200.426831 
L 262.30614 202.902253 
L 261.583954 203.176293 
L 260.86095 203.602314 
L 259.417394 204.613898 
L 257.237769 205.945274 
L 255.753925 206.66825 
L 254.294308 207.589275 
L 252.841497 208.207715 
L 249.89123 210.183241 
L 247.706433 211.418702 
L 245.548857 212.537697 
L 243.314975 214.021891 
L 241.860258 214.691083 
L 240.382403 215.281489 
L 238.933266 216.423084 
L 238.191208 216.927065 
L 236.02356 217.993418 
L 233.104599 219.976976 
L 231.669481 220.641207 
L 226.504712 223.534717 
L 225.762654 223.769422 
L 222.832532 225.604463 
L 222.112795 226.09427 
L 219.167293 227.389658 
L 216.979229 228.677329 
L 215.540845 229.250529 
L 214.055912 230.079183 
L 211.091763 231.862015 
L 209.649023 232.604678 
L 208.184455 233.12776 
L 205.992036 234.386531 
L 205.246847 235.169906 
L 204.499345 235.520606 
L 203.007062 235.944462 
L 200.067412 237.533498 
L 198.619501 237.897225 
L 197.875537 238.197556 
L 195.702853 239.642013 
L 194.23507 240.26313 
L 193.512067 240.498071 
L 191.361007 241.755573 
L 190.642904 241.99327 
L 188.430476 243.280705 
L 186.956432 244.132433 
L 185.485382 244.653029 
L 181.799319 246.704586 
L 181.078493 246.969097 
L 179.638748 247.722942 
L 178.150277 248.364336 
L 173.78536 250.420499 
L 172.291716 251.141507 
L 170.087455 252.254634 
L 167.166588 253.582072 
L 165.698261 254.167399 
L 163.511013 255.351242 
L 160.596679 256.757821 
L 159.865646 257.255659 
L 155.479301 259.070662 
L 154.012198 259.961921 
L 153.267418 260.313684 
L 151.109025 260.918244 
L 150.37105 261.291308 
L 148.917967 262.26722 
L 147.475499 262.822013 
L 146.015883 263.391078 
L 143.807402 264.598978 
L 140.902596 265.890075 
L 134.331509 268.729135 
L 132.865359 269.537474 
L 130.679745 270.167784 
L 129.936598 270.487182 
L 127.73152 271.800367 
L 125.550806 272.466646 
L 124.81147 272.915818 
L 122.608978 273.714372 
L 121.880258 273.893915 
L 121.166511 274.196068 
L 119.678141 275.177765 
L 118.953233 275.576934 
L 118.216619 275.80404 
L 116.758908 275.974104 
L 113.82198 277.445728 
L 111.604244 277.906698 
L 109.404609 279.337768 
L 107.944175 279.728299 
L 107.210828 279.872169 
L 106.465912 280.164163 
L 105.025486 280.969588 
L 104.284517 281.279693 
L 101.36012 282.052851 
L 99.14184 283.206623 
L 98.412848 283.343131 
L 96.22805 284.088235 
L 95.49307 284.330077 
L 94.758634 284.792322 
L 91.846205 285.879102 
L 91.121841 286.03508 
L 87.412367 287.569941 
L 81.528086 289.517757 
L 78.554001 290.596237 
L 77.09384 290.571092 
L 76.360356 290.383034 
L 75.636128 290.436767 
L 75.225254 290.961724 
L 75.189491 291.06 
L 75.026414 289.446393 
L 75.026414 289.446393 
" clip-path="url(#pe30883fcf2)" style="fill: none; stroke: #ff0000; stroke-width: 2; stroke-linecap: square"/>
   </g>
   <g id="line2d_32">
    <path d="M 75.186483 273.106478 
L 75.186483 273.209563 
L 75.186483 272.818899 
L 75.186264 272.945211 
L 75.915304 271.885491 
L 76.637762 269.53757 
L 77.395609 268.836997 
L 78.118612 269.18376 
L 78.871014 271.269285 
L 79.644649 268.936661 
L 80.432984 267.78727 
L 82.011831 268.088556 
L 82.737556 268.292747 
L 84.953931 269.726455 
L 85.674756 270.002384 
L 86.486501 270.600231 
L 87.255781 270.460258 
L 88.780185 268.507963 
L 89.549465 268.275679 
L 90.284989 268.925814 
L 91.046647 269.04047 
L 91.809393 267.85013 
L 92.58194 266.404335 
L 93.32808 265.369284 
L 94.076127 264.599454 
L 94.83724 264.110907 
L 98.501798 263.206179 
L 101.599061 261.120958 
L 102.379229 260.662966 
L 103.812713 260.346245 
L 104.529727 259.992356 
L 106.030176 259.494282 
L 107.526814 258.514354 
L 108.958665 258.067071 
L 110.388883 257.324644 
L 111.957932 256.567413 
L 112.743226 256.075683 
L 113.460785 255.820937 
L 114.177254 255.727464 
L 114.957967 255.493901 
L 118.03318 253.753277 
L 121.107032 252.273935 
L 121.8774 251.746331 
L 125.598035 250.135639 
L 126.318316 249.912549 
L 129.199439 248.403756 
L 132.805744 246.690537 
L 133.521125 246.19695 
L 135.668357 245.236001 
L 137.225971 244.574762 
L 138.770519 243.585857 
L 139.546876 243.167711 
L 141.889014 242.227786 
L 143.439551 241.322983 
L 144.215363 240.814908 
L 149.670463 238.091757 
L 150.450631 237.661326 
L 152.789502 236.709905 
L 160.387567 232.405594 
L 163.387377 230.679299 
L 164.833927 230.003965 
L 165.558563 229.742683 
L 169.890048 227.46965 
L 170.604341 226.945825 
L 172.17121 226.049212 
L 173.738624 225.052905 
L 175.306583 224.188893 
L 176.091651 223.633884 
L 177.522957 223.011625 
L 178.237794 222.682305 
L 180.518411 221.22895 
L 181.958428 220.31769 
L 183.410423 219.651175 
L 184.867905 218.834549 
L 186.323166 218.206463 
L 187.761006 217.429702 
L 189.321342 216.417646 
L 190.102599 215.865314 
L 190.884945 215.473942 
L 194.007251 213.49062 
L 195.574121 212.651177 
L 200.79466 209.430267 
L 202.25101 208.663271 
L 204.434175 207.712637 
L 206.59284 206.280072 
L 208.030135 205.577176 
L 210.311841 203.953727 
L 213.238697 202.280511 
L 215.581379 200.764631 
L 217.07965 199.977634 
L 219.230702 198.677836 
L 220.674837 197.919408 
L 222.11812 196.9609 
L 227.859679 193.253648 
L 229.300785 192.539256 
L 231.518793 191.068104 
L 233.081307 190.009744 
L 236.198714 188.005633 
L 236.979426 187.634735 
L 239.189268 186.243905 
L 242.836949 184.226407 
L 244.386396 182.956375 
L 256.476724 175.454138 
L 259.58433 173.321512 
L 261.143033 172.485219 
L 265.78321 169.138786 
L 270.329201 166.225304 
L 271.042948 165.802748 
L 274.109723 163.463332 
L 278.737378 160.420705 
L 280.303158 159.537479 
L 281.855873 158.475181 
L 283.404776 157.20326 
L 286.50966 155.055986 
L 288.070541 154.105668 
L 290.351159 152.711846 
L 299.692608 146.224638 
L 300.412889 145.77011 
L 302.567742 144.015312 
L 304.722052 142.470296 
L 308.634326 139.685487 
L 310.968297 138.076213 
L 312.518834 136.678296 
L 315.648762 134.53559 
L 318.600662 132.545181 
L 320.053201 131.666522 
L 324.375431 128.094872 
L 327.252522 126.108922 
L 330.123301 124.133317 
L 332.403919 122.376629 
L 333.968066 121.071949 
L 340.093448 116.30996 
L 342.248302 114.60052 
L 343.689408 113.468453 
L 345.13487 112.205351 
L 348.759685 109.679462 
L 357.086197 102.819033 
L 361.447643 99.576231 
L 363.592391 97.58468 
L 370.794111 91.901351 
L 372.951687 89.96575 
L 374.39116 88.740132 
L 375.825189 87.671377 
L 377.322371 86.531751 
L 379.658521 84.810341 
L 381.966632 82.74087 
L 384.288626 80.606511 
L 386.630763 78.856752 
L 391.288362 75.055162 
L 393.6158 72.738425 
L 395.183214 71.459259 
L 396.679852 70.230491 
L 425.510415 44.357178 
L 427.007054 43.220859 
L 430.746607 41.002713 
L 431.465051 40.237686 
L 431.832133 39.46 
L 432.144091 40.230382 
L 432.003696 44.159798 
L 431.98539 53.971478 
L 431.982021 53.915903 
L 431.98362 65.044213 
L 431.984777 70.215706 
L 431.980728 70.022559 
L 431.26453 70.306737 
L 430.53234 72.133533 
L 429.810834 73.544105 
L 429.078303 73.806097 
L 428.316374 73.573636 
L 426.825452 74.059386 
L 426.08649 74.412429 
L 425.35396 74.485683 
L 424.601558 75.023683 
L 423.862766 74.819098 
L 422.390355 78.215614 
L 420.912772 80.15405 
L 420.159009 81.48141 
L 419.43165 82.023583 
L 418.671082 81.795256 
L 417.191049 82.478583 
L 416.449807 83.200536 
L 415.735515 83.49692 
L 414.276307 87.080775 
L 413.542959 87.774693 
L 412.821453 88.204967 
L 412.101173 88.480621 
L 411.362653 88.92501 
L 409.884934 90.627205 
L 408.409801 92.268923 
L 406.961889 93.368152 
L 404.784782 95.757986 
L 404.066134 96.471749 
L 402.620673 97.521053 
L 399.688373 100.585886 
L 396.767097 103.028776 
L 396.04178 103.912317 
L 394.584886 105.207863 
L 393.85045 105.736964 
L 389.480582 109.824091 
L 388.038489 111.002008 
L 379.300252 118.688346 
L 377.120354 120.645681 
L 374.933651 122.243301 
L 373.445724 123.734769 
L 372.700127 124.251664 
L 371.234793 125.756992 
L 369.762995 126.71305 
L 366.123072 130.011604 
L 365.400613 130.598584 
L 363.944535 131.463935 
L 361.013324 134.097707 
L 359.555204 135.312931 
L 358.10144 136.553905 
L 357.375987 137.039617 
L 356.64754 137.688965 
L 355.920726 138.124908 
L 355.172135 138.713621 
L 353.693463 140.234698 
L 350.054612 142.78866 
L 349.33297 143.631568 
L 348.589959 144.304067 
L 347.11047 145.136108 
L 346.371679 145.508582 
L 345.626218 146.039179 
L 344.139516 147.685149 
L 343.402494 148.326858 
L 341.229129 149.601457 
L 339.760257 150.862669 
L 338.29084 152.074034 
L 334.667318 154.34561 
L 333.235468 155.489331 
L 330.299357 157.951986 
L 325.912203 160.852475 
L 323.697598 162.5616 
L 320.794698 164.572011 
L 318.587442 166.240817 
L 317.102782 167.180348 
L 314.952964 168.574859 
L 310.532192 171.935072 
L 306.941948 174.308901 
L 305.499753 175.316547 
L 302.593314 177.206239 
L 301.118453 178.328384 
L 297.423951 180.64458 
L 295.988289 181.360154 
L 294.507303 182.412529 
L 293.046325 183.580504 
L 290.116747 185.387748 
L 288.661486 186.413506 
L 287.192069 187.101952 
L 284.276102 189.288599 
L 282.080688 190.329437 
L 280.596402 191.291431 
L 279.124672 192.363099 
L 277.643005 193.239317 
L 276.900947 193.894807 
L 274.735205 195.098376 
L 273.248911 196.123347 
L 272.509575 196.681269 
L 268.895785 198.761529 
L 268.161076 199.372763 
L 267.444062 199.817526 
L 265.965934 200.426831 
L 262.30614 202.902253 
L 261.583954 203.176293 
L 260.86095 203.602314 
L 259.417394 204.613898 
L 257.237769 205.945274 
L 255.753925 206.66825 
L 254.294308 207.589275 
L 252.841497 208.207715 
L 249.89123 210.183241 
L 247.706433 211.418702 
L 245.548857 212.537697 
L 243.314975 214.021891 
L 241.860258 214.691083 
L 240.382403 215.281489 
L 238.933266 216.423084 
L 238.191208 216.927065 
L 236.02356 217.993418 
L 233.104599 219.976976 
L 231.669481 220.641207 
L 226.504712 223.534717 
L 225.762654 223.769422 
L 222.832532 225.604463 
L 222.112795 226.09427 
L 219.167293 227.389658 
L 216.979229 228.677329 
L 215.540845 229.250529 
L 214.055912 230.079183 
L 211.091763 231.862015 
L 209.649023 232.604678 
L 208.184455 233.12776 
L 205.992036 234.386531 
L 205.246847 235.169906 
L 204.499345 235.520606 
L 203.007062 235.944462 
L 200.067412 237.533498 
L 198.619501 237.897225 
L 197.875537 238.197556 
L 195.702853 239.642013 
L 194.23507 240.26313 
L 193.512067 240.498071 
L 191.361007 241.755573 
L 190.642904 241.99327 
L 188.430476 243.280705 
L 186.956432 244.132433 
L 185.485382 244.653029 
L 181.799319 246.704586 
L 181.078493 246.969097 
L 179.638748 247.722942 
L 178.150277 248.364336 
L 173.78536 250.420499 
L 172.291716 251.141507 
L 170.087455 252.254634 
L 167.166588 253.582072 
L 165.698261 254.167399 
L 163.511013 255.351242 
L 160.596679 256.757821 
L 159.865646 257.255659 
L 155.479301 259.070662 
L 154.012198 259.961921 
L 153.267418 260.313684 
L 151.109025 260.918244 
L 150.37105 261.291308 
L 148.917967 262.26722 
L 147.475499 262.822013 
L 146.015883 263.391078 
L 143.807402 264.598978 
L 140.902596 265.890075 
L 134.331509 268.729135 
L 132.865359 269.537474 
L 130.679745 270.167784 
L 129.936598 270.487182 
L 127.73152 271.800367 
L 125.550806 272.466646 
L 124.81147 272.915818 
L 122.608978 273.714372 
L 121.880258 273.893915 
L 121.166511 274.196068 
L 119.678141 275.177765 
L 118.953233 275.576934 
L 118.216619 275.80404 
L 116.758908 275.974104 
L 113.82198 277.445728 
L 111.604244 277.906698 
L 109.404609 279.337768 
L 107.944175 279.728299 
L 107.210828 279.872169 
L 106.465912 280.164163 
L 105.025486 280.969588 
L 104.284517 281.279693 
L 101.36012 282.052851 
L 99.14184 283.206623 
L 98.412848 283.343131 
L 96.22805 284.088235 
L 95.49307 284.330077 
L 94.758634 284.792322 
L 91.846205 285.879102 
L 91.121841 286.03508 
L 87.412367 287.569941 
L 81.528086 289.517757 
L 78.554001 290.596237 
L 77.09384 290.571092 
L 76.360356 290.383034 
L 75.636128 290.436767 
L 75.225254 290.961724 
L 75.189491 291.06 
L 75.026414 289.446393 
L 75.026414 289.446393 
" clip-path="url(#pe30883fcf2)" style="fill: none; stroke: #000000; stroke-width: 2; stroke-linecap: square"/>
   </g>
   <g id="patch_3">
    <path d="M 57.17 303.64 
L 57.17 26.88 
" style="fill: none; stroke: #000000; stroke-width: 0.8; stroke-linejoin: miter; stroke-linecap: square"/>
   </g>
   <g id="patch_4">
    <path d="M 450 303.64 
L 450 26.88 
" style="fill: none; stroke: #000000; stroke-width: 0.8; stroke-linejoin: miter; stroke-linecap: square"/>
   </g>
   <g id="patch_5">
    <path d="M 57.17 303.64 
L 450 303.64 
" style="fill: none; stroke: #000000; stroke-width: 0.8; stroke-linejoin: miter; stroke-linecap: square"/>
   </g>
   <g id="patch_6">
    <path d="M 57.17 26.88 
L 450 26.88 
" style="fill: none; stroke: #000000; stroke-width: 0.8; stroke-linejoin: miter; stroke-linecap: square"/>
   </g>
   <g id="text_18">
    <!-- 2025-07-02 Trial 17 - Stress vs Strain -->
    <g transform="translate(142.330938 20.88) scale(0.12 -0.12)">
     <defs>
      <path id="DejaVuSans-54" d="M -19 4666 
L 3928 4666 
L 3928 4134 
L 2272 4134 
L 2272 0 
L 1638 0 
L 1638 4134 
L -19 4134 
L -19 4666 
z
" transform="scale(0.015625)"/>
      <path id="DejaVuSans-6c" d="M 603 4863 
L 1178 4863 
L 1178 0 
L 603 0 
L 603 4863 
z
" transform="scale(0.015625)"/>
      <path id="DejaVuSans-76" d="M 191 3500 
L 800 3500 
L 1894 563 
L 2988 3500 
L 3597 3500 
L 2284 0 
L 1503 0 
L 191 3500 
z
" transform="scale(0.015625)"/>
     </defs>
     <use xlink:href="#DejaVuSans-32"/>
     <use xlink:href="#DejaVuSans-30" transform="translate(63.623047 0)"/>
     <use xlink:href="#DejaVuSans-32" transform="translate(127.246094 0)"/>
     <use xlink:href="#DejaVuSans-35" transform="translate(190.869141 0)"/>
     <use xlink:href="#DejaVuSans-2d" transform="translate(254.492188 0)"/>
     <use xlink:href="#DejaVuSans-30" transform="translate(290.576172 0)"/>
     <use xlink:href="#DejaVuSans-37" transform="translate(354.199219 0)"/>
     <use xlink:href="#DejaVuSans-2d" transform="translate(417.822266 0)"/>
     <use xlink:href="#DejaVuSans-30" transform="translate(453.90625 0)"/>
     <use xlink:href="#DejaVuSans-32" transform="translate(517.529297 0)"/>
     <use xlink:href="#DejaVuSans-20" transform="translate(581.152344 0)"/>
     <use xlink:href="#DejaVuSans-54" transform="translate(612.939453 0)"/>
     <use xlink:href="#DejaVuSans-72" transform="translate(659.273438 0)"/>
     <use xlink:href="#DejaVuSans-69" transform="translate(700.386719 0)"/>
     <use xlink:href="#DejaVuSans-61" transform="translate(728.169922 0)"/>
     <use xlink:href="#DejaVuSans-6c" transform="translate(789.449219 0)"/>
     <use xlink:href="#DejaVuSans-20" transform="translate(817.232422 0)"/>
     <use xlink:href="#DejaVuSans-31" transform="translate(849.019531 0)"/>
     <use xlink:href="#DejaVuSans-37" transform="translate(912.642578 0)"/>
     <use xlink:href="#DejaVuSans-20" transform="translate(976.265625 0)"/>
     <use xlink:href="#DejaVuSans-2d" transform="translate(1008.052734 0)"/>
     <use xlink:href="#DejaVuSans-20" transform="translate(1044.136719 0)"/>
     <use xlink:href="#DejaVuSans-53" transform="translate(1075.923828 0)"/>
     <use xlink:href="#DejaVuSans-74" transform="translate(1139.400391 0)"/>
     <use xlink:href="#DejaVuSans-72" transform="translate(1178.609375 0)"/>
     <use xlink:href="#DejaVuSans-65" transform="translate(1217.472656 0)"/>
     <use xlink:href="#DejaVuSans-73" transform="translate(1278.996094 0)"/>
     <use xlink:href="#DejaVuSans-73" transform="translate(1331.095703 0)"/>
     <use xlink:href="#DejaVuSans-20" transform="translate(1383.195312 0)"/>
     <use xlink:href="#DejaVuSans-76" transform="translate(1414.982422 0)"/>
     <use xlink:href="#DejaVuSans-73" transform="translate(1474.162109 0)"/>
     <use xlink:href="#DejaVuSans-20" transform="translate(1526.261719 0)"/>
     <use xlink:href="#DejaVuSans-53" transform="translate(1558.048828 0)"/>
     <use xlink:href="#DejaVuSans-74" transform="translate(1621.525391 0)"/>
     <use xlink:href="#DejaVuSans-72" transform="translate(1660.734375 0)"/>
     <use xlink:href="#DejaVuSans-61" transform="translate(1701.847656 0)"/>
     <use xlink:href="#DejaVuSans-69" transform="translate(1763.126953 0)"/>
     <use xlink:href="#DejaVuSans-6e" transform="translate(1790.910156 0)"/>
    </g>
   </g>
   <g id="legend_1">
    <g id="patch_7">
     <path d="M 64.17 64.23625 
L 170.154375 64.23625 
Q 172.154375 64.23625 172.154375 62.23625 
L 172.154375 33.88 
Q 172.154375 31.88 170.154375 31.88 
L 64.17 31.88 
Q 62.17 31.88 62.17 33.88 
L 62.17 62.23625 
Q 62.17 64.23625 64.17 64.23625 
z
" style="fill: #ffffff; opacity: 0.8; stroke: #cccccc; stroke-linejoin: miter"/>
    </g>
    <g id="line2d_33">
     <path d="M 66.17 39.978437 
L 76.17 39.978437 
L 86.17 39.978437 
" style="fill: none; stroke: #ff0000; stroke-width: 2; stroke-linecap: square"/>
    </g>
    <g id="text_19">
     <!-- Raw Force -->
     <g transform="translate(94.17 43.478437) scale(0.1 -0.1)">
      <defs>
       <path id="DejaVuSans-52" d="M 2841 2188 
Q 3044 2119 3236 1894 
Q 3428 1669 3622 1275 
L 4263 0 
L 3584 0 
L 2988 1197 
Q 2756 1666 2539 1819 
Q 2322 1972 1947 1972 
L 1259 1972 
L 1259 0 
L 628 0 
L 628 4666 
L 2053 4666 
Q 2853 4666 3247 4331 
Q 3641 3997 3641 3322 
Q 3641 2881 3436 2590 
Q 3231 2300 2841 2188 
z
M 1259 4147 
L 1259 2491 
L 2053 2491 
Q 2509 2491 2742 2702 
Q 2975 2913 2975 3322 
Q 2975 3731 2742 3939 
Q 2509 4147 2053 4147 
L 1259 4147 
z
" transform="scale(0.015625)"/>
       <path id="DejaVuSans-77" d="M 269 3500 
L 844 3500 
L 1563 769 
L 2278 3500 
L 2956 3500 
L 3675 769 
L 4391 3500 
L 4966 3500 
L 4050 0 
L 3372 0 
L 2619 2869 
L 1863 0 
L 1184 0 
L 269 3500 
z
" transform="scale(0.015625)"/>
       <path id="DejaVuSans-46" d="M 628 4666 
L 3309 4666 
L 3309 4134 
L 1259 4134 
L 1259 2759 
L 3109 2759 
L 3109 2228 
L 1259 2228 
L 1259 0 
L 628 0 
L 628 4666 
z
" transform="scale(0.015625)"/>
       <path id="DejaVuSans-6f" d="M 1959 3097 
Q 1497 3097 1228 2736 
Q 959 2375 959 1747 
Q 959 1119 1226 758 
Q 1494 397 1959 397 
Q 2419 397 2687 759 
Q 2956 1122 2956 1747 
Q 2956 2369 2687 2733 
Q 2419 3097 1959 3097 
z
M 1959 3584 
Q 2709 3584 3137 3096 
Q 3566 2609 3566 1747 
Q 3566 888 3137 398 
Q 2709 -91 1959 -91 
Q 1206 -91 779 398 
Q 353 888 353 1747 
Q 353 2609 779 3096 
Q 1206 3584 1959 3584 
z
" transform="scale(0.015625)"/>
       <path id="DejaVuSans-63" d="M 3122 3366 
L 3122 2828 
Q 2878 2963 2633 3030 
Q 2388 3097 2138 3097 
Q 1578 3097 1268 2742 
Q 959 2388 959 1747 
Q 959 1106 1268 751 
Q 1578 397 2138 397 
Q 2388 397 2633 464 
Q 2878 531 3122 666 
L 3122 134 
Q 2881 22 2623 -34 
Q 2366 -91 2075 -91 
Q 1284 -91 818 406 
Q 353 903 353 1747 
Q 353 2603 823 3093 
Q 1294 3584 2113 3584 
Q 2378 3584 2631 3529 
Q 2884 3475 3122 3366 
z
" transform="scale(0.015625)"/>
      </defs>
      <use xlink:href="#DejaVuSans-52"/>
      <use xlink:href="#DejaVuSans-61" transform="translate(67.232422 0)"/>
      <use xlink:href="#DejaVuSans-77" transform="translate(128.511719 0)"/>
      <use xlink:href="#DejaVuSans-20" transform="translate(210.298828 0)"/>
      <use xlink:href="#DejaVuSans-46" transform="translate(242.085938 0)"/>
      <use xlink:href="#DejaVuSans-6f" transform="translate(295.980469 0)"/>
      <use xlink:href="#DejaVuSans-72" transform="translate(357.162109 0)"/>
      <use xlink:href="#DejaVuSans-63" transform="translate(396.025391 0)"/>
      <use xlink:href="#DejaVuSans-65" transform="translate(451.005859 0)"/>
     </g>
    </g>
    <g id="line2d_34">
     <path d="M 66.17 54.656563 
L 76.17 54.656563 
L 86.17 54.656563 
" style="fill: none; stroke: #000000; stroke-width: 2; stroke-linecap: square"/>
    </g>
    <g id="text_20">
     <!-- Adjusted Force -->
     <g transform="translate(94.17 58.156563) scale(0.1 -0.1)">
      <defs>
       <path id="DejaVuSans-41" d="M 2188 4044 
L 1331 1722 
L 3047 1722 
L 2188 4044 
z
M 1831 4666 
L 2547 4666 
L 4325 0 
L 3669 0 
L 3244 1197 
L 1141 1197 
L 716 0 
L 50 0 
L 1831 4666 
z
" transform="scale(0.015625)"/>
       <path id="DejaVuSans-64" d="M 2906 2969 
L 2906 4863 
L 3481 4863 
L 3481 0 
L 2906 0 
L 2906 525 
Q 2725 213 2448 61 
Q 2172 -91 1784 -91 
Q 1150 -91 751 415 
Q 353 922 353 1747 
Q 353 2572 751 3078 
Q 1150 3584 1784 3584 
Q 2172 3584 2448 3432 
Q 2725 3281 2906 2969 
z
M 947 1747 
Q 947 1113 1208 752 
Q 1469 391 1925 391 
Q 2381 391 2643 752 
Q 2906 1113 2906 1747 
Q 2906 2381 2643 2742 
Q 2381 3103 1925 3103 
Q 1469 3103 1208 2742 
Q 947 2381 947 1747 
z
" transform="scale(0.015625)"/>
       <path id="DejaVuSans-6a" d="M 603 3500 
L 1178 3500 
L 1178 -63 
Q 1178 -731 923 -1031 
Q 669 -1331 103 -1331 
L -116 -1331 
L -116 -844 
L 38 -844 
Q 366 -844 484 -692 
Q 603 -541 603 -63 
L 603 3500 
z
M 603 4863 
L 1178 4863 
L 1178 4134 
L 603 4134 
L 603 4863 
z
" transform="scale(0.015625)"/>
       <path id="DejaVuSans-75" d="M 544 1381 
L 544 3500 
L 1119 3500 
L 1119 1403 
Q 1119 906 1312 657 
Q 1506 409 1894 409 
Q 2359 409 2629 706 
Q 2900 1003 2900 1516 
L 2900 3500 
L 3475 3500 
L 3475 0 
L 2900 0 
L 2900 538 
Q 2691 219 2414 64 
Q 2138 -91 1772 -91 
Q 1169 -91 856 284 
Q 544 659 544 1381 
z
M 1991 3584 
L 1991 3584 
z
" transform="scale(0.015625)"/>
      </defs>
      <use xlink:href="#DejaVuSans-41"/>
      <use xlink:href="#DejaVuSans-64" transform="translate(66.658203 0)"/>
      <use xlink:href="#DejaVuSans-6a" transform="translate(130.134766 0)"/>
      <use xlink:href="#DejaVuSans-75" transform="translate(157.917969 0)"/>
      <use xlink:href="#DejaVuSans-73" transform="translate(221.296875 0)"/>
      <use xlink:href="#DejaVuSans-74" transform="translate(273.396484 0)"/>
      <use xlink:href="#DejaVuSans-65" transform="translate(312.605469 0)"/>
      <use xlink:href="#DejaVuSans-64" transform="translate(374.128906 0)"/>
      <use xlink:href="#DejaVuSans-20" transform="translate(437.605469 0)"/>
      <use xlink:href="#DejaVuSans-46" transform="translate(469.392578 0)"/>
      <use xlink:href="#DejaVuSans-6f" transform="translate(523.287109 0)"/>
      <use xlink:href="#DejaVuSans-72" transform="translate(584.46875 0)"/>
      <use xlink:href="#DejaVuSans-63" transform="translate(623.332031 0)"/>
      <use xlink:href="#DejaVuSans-65" transform="translate(678.3125 0)"/>
     </g>
    </g>
   </g>
  </g>
 </g>
 <defs>
  <clipPath id="pe30883fcf2">
   <rect x="57.17" y="26.88" width="392.83" height="276.76"/>
  </clipPath>
 </defs>
</svg>
