<?xml version="1.0" encoding="utf-8" standalone="no"?>
<!DOCTYPE svg PUBLIC "-//W3C//DTD SVG 1.1//EN"
  "http://www.w3.org/Graphics/SVG/1.1/DTD/svg11.dtd">
<svg xmlns:xlink="http://www.w3.org/1999/xlink" width="460.8pt" height="345.6pt" viewBox="0 0 460.8 345.6" xmlns="http://www.w3.org/2000/svg" version="1.1">
 <metadata>
  <rdf:RDF xmlns:dc="http://purl.org/dc/elements/1.1/" xmlns:cc="http://creativecommons.org/ns#" xmlns:rdf="http://www.w3.org/1999/02/22-rdf-syntax-ns#">
   <cc:Work>
    <dc:type rdf:resource="http://purl.org/dc/dcmitype/StillImage"/>
    <dc:date>2025-07-28T21:16:58.529595</dc:date>
    <dc:format>image/svg+xml</dc:format>
    <dc:creator>
     <cc:Agent>
      <dc:title>Matplotlib v3.10.3, https://matplotlib.org/</dc:title>
     </cc:Agent>
    </dc:creator>
   </cc:Work>
  </rdf:RDF>
 </metadata>
 <defs>
  <style type="text/css">*{stroke-linejoin: round; stroke-linecap: butt}</style>
 </defs>
 <g id="figure_1">
  <g id="patch_1">
   <path d="M 0 345.6 
L 460.8 345.6 
L 460.8 0 
L 0 0 
z
" style="fill: #ffffff"/>
  </g>
  <g id="axes_1">
   <g id="patch_2">
    <path d="M 63.47 303.64 
L 450 303.64 
L 450 26.88 
L 63.47 26.88 
z
" style="fill: #ffffff"/>
   </g>
   <g id="FillBetweenPolyCollection_1">
    <defs>
     <path id="md3c4d5ca12" d="M 81.0495 -54.634522 
L 81.0495 -54.586658 
L 81.558147 -54.646259 
L 82.066793 -54.729518 
L 82.57544 -54.721922 
L 83.084086 -54.615018 
L 83.592733 -54.54 
L 84.101379 -54.585397 
L 84.610026 -54.638582 
L 85.118672 -54.672326 
L 85.627319 -54.705321 
L 86.135966 -54.713126 
L 86.644612 -54.777244 
L 87.153259 -54.859838 
L 87.661905 -54.922287 
L 88.170552 -54.954927 
L 88.679198 -55.005219 
L 89.187845 -55.061745 
L 89.696491 -55.111212 
L 90.205138 -55.163595 
L 90.713785 -55.227866 
L 91.222431 -55.310984 
L 91.731078 -55.403383 
L 92.239724 -55.501897 
L 92.748371 -55.612442 
L 93.257017 -55.723981 
L 93.765664 -55.830174 
L 94.27431 -55.938688 
L 94.782957 -56.049883 
L 95.291604 -56.164893 
L 95.80025 -56.288555 
L 96.308897 -56.419954 
L 96.817543 -56.554912 
L 97.32619 -56.693477 
L 97.834836 -56.832237 
L 98.343483 -56.971851 
L 98.852129 -57.118244 
L 99.360776 -57.267128 
L 99.869423 -57.415475 
L 100.378069 -57.569766 
L 100.886716 -57.726337 
L 101.395362 -57.883507 
L 101.904009 -58.042895 
L 102.412655 -58.205683 
L 102.921302 -58.36565 
L 103.429948 -58.527407 
L 103.938595 -58.687955 
L 104.447241 -58.852087 
L 104.955888 -59.016708 
L 105.464535 -59.183515 
L 105.973181 -59.351636 
L 106.481828 -59.520247 
L 106.990474 -59.691427 
L 107.499121 -59.866858 
L 108.007767 -60.043542 
L 108.516414 -60.219094 
L 109.02506 -60.397351 
L 109.533707 -60.573347 
L 110.042354 -60.748304 
L 110.551 -60.926069 
L 111.059647 -61.107876 
L 111.568293 -61.290405 
L 112.07694 -61.475189 
L 112.585586 -61.6627 
L 113.094233 -61.852788 
L 113.602879 -62.042165 
L 114.111526 -62.229138 
L 114.620173 -62.413802 
L 115.128819 -62.600708 
L 115.637466 -62.788982 
L 116.146112 -62.977001 
L 116.654759 -63.167442 
L 117.163405 -63.360143 
L 117.672052 -63.553118 
L 118.180698 -63.742726 
L 118.689345 -63.938196 
L 119.197992 -64.134941 
L 119.706638 -64.331327 
L 120.215285 -64.528524 
L 120.723931 -64.723822 
L 121.232578 -64.916198 
L 121.741224 -65.105072 
L 122.249871 -65.298394 
L 122.758517 -65.490801 
L 123.267164 -65.688305 
L 123.775811 -65.88835 
L 124.284457 -66.090087 
L 124.793104 -66.2899 
L 125.30175 -66.483603 
L 125.810397 -66.677956 
L 126.319043 -66.874914 
L 126.82769 -67.076329 
L 127.336336 -67.273018 
L 127.844983 -67.474256 
L 128.353629 -67.67364 
L 128.862276 -67.87171 
L 129.370923 -68.065162 
L 129.879569 -68.262668 
L 130.388216 -68.460625 
L 130.896862 -68.660658 
L 131.405509 -67.263047 
L 131.405509 -71.547945 
L 131.405509 -71.547945 
L 130.896862 -71.675495 
L 130.388216 -71.453045 
L 129.879569 -71.232617 
L 129.370923 -71.009673 
L 128.862276 -70.785067 
L 128.353629 -70.559705 
L 127.844983 -70.334323 
L 127.336336 -70.11045 
L 126.82769 -69.885619 
L 126.319043 -69.662676 
L 125.810397 -69.440832 
L 125.30175 -69.218704 
L 124.793104 -68.995159 
L 124.284457 -68.773759 
L 123.775811 -68.552008 
L 123.267164 -68.32949 
L 122.758517 -68.108649 
L 122.249871 -67.892067 
L 121.741224 -67.671847 
L 121.232578 -67.44777 
L 120.723931 -67.229192 
L 120.215285 -67.014351 
L 119.706638 -66.796923 
L 119.197992 -66.579882 
L 118.689345 -66.367416 
L 118.180698 -66.150287 
L 117.672052 -65.931911 
L 117.163405 -65.719882 
L 116.654759 -65.510452 
L 116.146112 -65.296232 
L 115.637466 -65.085418 
L 115.128819 -64.873556 
L 114.620173 -64.656516 
L 114.111526 -64.445652 
L 113.602879 -64.235414 
L 113.094233 -64.025377 
L 112.585586 -63.821101 
L 112.07694 -63.616737 
L 111.568293 -63.406994 
L 111.059647 -63.199862 
L 110.551 -62.99521 
L 110.042354 -62.781629 
L 109.533707 -62.575379 
L 109.02506 -62.375946 
L 108.516414 -62.17697 
L 108.007767 -61.973212 
L 107.499121 -61.77289 
L 106.990474 -61.568773 
L 106.481828 -61.366987 
L 105.973181 -61.170286 
L 105.464535 -60.976518 
L 104.955888 -60.783908 
L 104.447241 -60.591296 
L 103.938595 -60.398044 
L 103.429948 -60.207062 
L 102.921302 -60.018181 
L 102.412655 -59.835193 
L 101.904009 -59.651816 
L 101.395362 -59.469973 
L 100.886716 -59.292943 
L 100.378069 -59.122148 
L 99.869423 -58.948078 
L 99.360776 -58.772906 
L 98.852129 -58.598539 
L 98.343483 -58.423827 
L 97.834836 -58.26141 
L 97.32619 -58.105749 
L 96.817543 -57.951417 
L 96.308897 -57.788711 
L 95.80025 -57.618905 
L 95.291604 -57.447082 
L 94.782957 -57.293371 
L 94.27431 -57.156351 
L 93.765664 -57.024668 
L 93.257017 -56.89284 
L 92.748371 -56.73923 
L 92.239724 -56.555343 
L 91.731078 -56.392987 
L 91.222431 -56.269519 
L 90.713785 -56.154729 
L 90.205138 -56.046082 
L 89.696491 -55.950893 
L 89.187845 -55.832584 
L 88.679198 -55.65707 
L 88.170552 -55.507662 
L 87.661905 -55.402636 
L 87.153259 -55.294525 
L 86.644612 -55.174526 
L 86.135966 -55.072511 
L 85.627319 -55.001776 
L 85.118672 -54.92139 
L 84.610026 -54.874901 
L 84.101379 -54.805527 
L 83.592733 -54.766487 
L 83.084086 -54.861544 
L 82.57544 -54.883784 
L 82.066793 -54.799363 
L 81.558147 -54.695641 
L 81.0495 -54.634522 
z
" style="stroke: #000000; stroke-opacity: 0.3"/>
    </defs>
    <g clip-path="url(#pc45e8bdc5a)">
     <use xlink:href="#md3c4d5ca12" x="0" y="345.6" style="fill-opacity: 0.3; stroke: #000000; stroke-opacity: 0.3"/>
    </g>
   </g>
   <g id="FillBetweenPolyCollection_2">
    <defs>
     <path id="m09adc80cd7" d="M 81.040013 -54.682607 
L 81.040013 -54.600919 
L 82.561924 -55.04673 
L 84.083836 -55.174592 
L 85.605748 -54.854938 
L 87.12766 -55.109655 
L 88.649572 -55.359508 
L 90.171484 -55.699093 
L 91.693395 -56.171842 
L 93.215307 -56.645295 
L 94.737219 -56.978071 
L 96.259131 -57.446815 
L 97.781043 -57.951921 
L 99.302954 -58.405509 
L 100.824866 -58.850056 
L 102.346778 -59.340707 
L 103.86869 -59.830451 
L 105.390602 -60.325158 
L 106.912514 -60.810927 
L 108.434425 -61.300362 
L 109.956337 -61.786968 
L 111.478249 -62.285515 
L 113.000161 -62.785883 
L 114.522073 -63.291196 
L 116.043984 -63.789139 
L 117.565896 -64.292343 
L 119.087808 -64.796333 
L 120.60972 -65.313939 
L 122.131632 -65.825533 
L 123.653544 -66.349712 
L 125.175455 -66.873887 
L 126.697367 -67.399104 
L 128.219279 -67.927372 
L 129.741191 -68.46665 
L 131.263103 -69.015624 
L 132.785014 -69.567333 
L 134.306926 -70.125101 
L 135.828838 -70.674935 
L 137.35075 -71.234907 
L 138.872662 -71.79812 
L 140.394574 -72.362951 
L 141.916485 -72.926666 
L 143.438397 -73.500211 
L 144.960309 -74.070578 
L 146.482221 -74.640293 
L 148.004133 -75.22066 
L 149.526044 -75.803456 
L 151.047956 -76.395409 
L 152.569868 -76.986523 
L 154.09178 -77.585086 
L 155.613692 -78.18924 
L 157.135604 -78.799104 
L 158.657515 -79.410789 
L 160.179427 -80.022057 
L 161.701339 -80.641496 
L 163.223251 -81.265516 
L 164.745163 -81.885165 
L 166.267074 -82.517844 
L 167.788986 -83.160955 
L 169.310898 -83.803578 
L 170.83281 -84.452566 
L 172.354722 -85.115689 
L 173.876634 -85.769485 
L 175.398545 -86.419809 
L 176.920457 -87.077023 
L 178.442369 -87.74266 
L 179.964281 -88.403775 
L 181.486193 -89.07357 
L 183.008104 -89.749393 
L 184.530016 -90.423732 
L 186.051928 -91.108803 
L 187.57384 -91.807522 
L 189.095752 -92.504642 
L 190.617664 -93.202222 
L 192.139575 -93.903332 
L 193.661487 -94.611667 
L 195.183399 -95.319303 
L 196.705311 -96.027293 
L 198.227223 -96.743309 
L 199.749134 -97.467499 
L 201.271046 -98.191601 
L 202.792958 -98.931752 
L 204.31487 -99.670809 
L 205.836782 -100.414323 
L 207.358694 -101.159127 
L 208.880605 -101.91054 
L 210.402517 -102.661039 
L 211.924429 -103.421653 
L 213.446341 -104.179949 
L 214.968253 -104.944748 
L 216.490164 -105.716169 
L 218.012076 -106.493711 
L 219.533988 -107.265468 
L 221.0559 -108.047676 
L 222.577812 -108.834546 
L 224.099724 -109.620251 
L 225.621635 -110.40532 
L 227.143547 -111.201286 
L 228.665459 -112.00325 
L 230.187371 -112.81424 
L 231.709283 -108.00042 
L 231.709283 -117.132151 
L 231.709283 -117.132151 
L 230.187371 -120.457716 
L 228.665459 -119.731099 
L 227.143547 -118.904527 
L 225.621635 -118.049108 
L 224.099724 -117.168079 
L 222.577812 -116.273841 
L 221.0559 -115.40927 
L 219.533988 -114.554097 
L 218.012076 -113.694899 
L 216.490164 -112.866447 
L 214.968253 -112.057309 
L 213.446341 -111.220279 
L 211.924429 -110.402547 
L 210.402517 -109.593356 
L 208.880605 -108.779427 
L 207.358694 -107.959737 
L 205.836782 -107.158885 
L 204.31487 -106.353954 
L 202.792958 -105.55298 
L 201.271046 -104.755455 
L 199.749134 -103.95863 
L 198.227223 -103.163258 
L 196.705311 -102.376131 
L 195.183399 -101.597928 
L 193.661487 -100.826863 
L 192.139575 -100.048493 
L 190.617664 -99.280174 
L 189.095752 -98.516465 
L 187.57384 -97.752465 
L 186.051928 -96.990854 
L 184.530016 -96.235665 
L 183.008104 -95.481807 
L 181.486193 -94.733714 
L 179.964281 -93.988315 
L 178.442369 -93.253377 
L 176.920457 -92.518144 
L 175.398545 -91.787037 
L 173.876634 -91.049961 
L 172.354722 -90.318774 
L 170.83281 -89.582185 
L 169.310898 -88.850769 
L 167.788986 -88.122643 
L 166.267074 -87.401705 
L 164.745163 -86.682608 
L 163.223251 -85.969174 
L 161.701339 -85.264987 
L 160.179427 -84.563535 
L 158.657515 -83.858886 
L 157.135604 -83.163782 
L 155.613692 -82.469064 
L 154.09178 -81.777786 
L 152.569868 -81.089709 
L 151.047956 -80.405635 
L 149.526044 -79.728806 
L 148.004133 -79.054898 
L 146.482221 -78.385188 
L 144.960309 -77.71491 
L 143.438397 -77.051536 
L 141.916485 -76.39489 
L 140.394574 -75.746648 
L 138.872662 -75.096332 
L 137.35075 -74.452116 
L 135.828838 -73.814537 
L 134.306926 -73.163475 
L 132.785014 -72.517532 
L 131.263103 -71.874108 
L 129.741191 -71.226816 
L 128.219279 -70.585061 
L 126.697367 -69.949955 
L 125.175455 -69.314927 
L 123.653544 -68.693287 
L 122.131632 -68.079913 
L 120.60972 -67.46183 
L 119.087808 -66.848491 
L 117.565896 -66.238729 
L 116.043984 -65.622978 
L 114.522073 -65.020244 
L 113.000161 -64.422594 
L 111.478249 -63.829989 
L 109.956337 -63.245914 
L 108.434425 -62.661251 
L 106.912514 -62.085099 
L 105.390602 -61.50758 
L 103.86869 -60.944446 
L 102.346778 -60.394725 
L 100.824866 -59.870261 
L 99.302954 -59.350764 
L 97.781043 -58.806546 
L 96.259131 -58.223995 
L 94.737219 -57.638056 
L 93.215307 -57.21055 
L 91.693395 -56.71906 
L 90.171484 -56.17806 
L 88.649572 -55.784166 
L 87.12766 -55.446602 
L 85.605748 -55.115867 
L 84.083836 -55.565546 
L 82.561924 -55.219468 
L 81.040013 -54.682607 
z
" style="stroke: #ff0000; stroke-opacity: 0.3"/>
    </defs>
    <g clip-path="url(#pc45e8bdc5a)">
     <use xlink:href="#m09adc80cd7" x="0" y="345.6" style="fill: #ff0000; fill-opacity: 0.3; stroke: #ff0000; stroke-opacity: 0.3"/>
    </g>
   </g>
   <g id="FillBetweenPolyCollection_3">
    <defs>
     <path id="m0d495405f8" d="M 81.040713 -54.650929 
L 81.040713 -54.600443 
L 83.576402 -55.283508 
L 86.112092 -54.909602 
L 88.647781 -55.215374 
L 91.183471 -55.534219 
L 93.71916 -55.875487 
L 96.25485 -56.348802 
L 98.790539 -56.819563 
L 101.326228 -57.331593 
L 103.861918 -58.125286 
L 106.397607 -58.93929 
L 108.933297 -59.643722 
L 111.468986 -60.369542 
L 114.004676 -61.16035 
L 116.540365 -61.965995 
L 119.076054 -62.765386 
L 121.611744 -63.578245 
L 124.147433 -64.393519 
L 126.683123 -65.238556 
L 129.218812 -66.091162 
L 131.754502 -66.954788 
L 134.290191 -67.829972 
L 136.82588 -68.724651 
L 139.36157 -69.616024 
L 141.897259 -70.529281 
L 144.432949 -71.455649 
L 146.968638 -72.379693 
L 149.504328 -73.313991 
L 152.040017 -74.260908 
L 154.575706 -75.213114 
L 157.111396 -76.175765 
L 159.647085 -77.149319 
L 162.182775 -78.132531 
L 164.718464 -79.13138 
L 167.254154 -80.150237 
L 169.789843 -81.188041 
L 172.325532 -82.228317 
L 174.861222 -83.286499 
L 177.396911 -84.341917 
L 179.932601 -85.422912 
L 182.46829 -86.513471 
L 185.00398 -87.625093 
L 187.539669 -88.733038 
L 190.075358 -89.853403 
L 192.611048 -90.980268 
L 195.146737 -92.127993 
L 197.682427 -93.29362 
L 200.218116 -94.471086 
L 202.753806 -95.660413 
L 205.289495 -96.853325 
L 207.825184 -98.05781 
L 210.360874 -99.281521 
L 212.896563 -100.530141 
L 215.432253 -101.783017 
L 217.967942 -103.051161 
L 220.503632 -104.324282 
L 223.039321 -105.596333 
L 225.57501 -106.875331 
L 228.1107 -108.172777 
L 230.646389 -109.500566 
L 233.182079 -110.836737 
L 235.717768 -112.187787 
L 238.253458 -113.552042 
L 240.789147 -114.931615 
L 243.324836 -116.320893 
L 245.860526 -117.730724 
L 248.396215 -119.153125 
L 250.931905 -120.589666 
L 253.467594 -122.03372 
L 256.003284 -123.485612 
L 258.538973 -124.958381 
L 261.074662 -126.457988 
L 263.610352 -127.975549 
L 266.146041 -129.507986 
L 268.681731 -131.059611 
L 271.21742 -132.626325 
L 273.753109 -134.206404 
L 276.288799 -135.800867 
L 278.824488 -137.422107 
L 281.360178 -139.058491 
L 283.895867 -140.712006 
L 286.431557 -142.387053 
L 288.967246 -144.079439 
L 291.502935 -145.788699 
L 294.038625 -147.522276 
L 296.574314 -149.287735 
L 299.110004 -151.094256 
L 301.645693 -152.923777 
L 304.181383 -154.767297 
L 306.717072 -156.638196 
L 309.252761 -158.533487 
L 311.788451 -160.45414 
L 314.32414 -162.397016 
L 316.85983 -164.373853 
L 319.395519 -166.362842 
L 321.931209 -168.381799 
L 324.466898 -170.430484 
L 327.002587 -172.506772 
L 329.538277 -174.591121 
L 332.073966 -155.355687 
L 332.073966 -177.454116 
L 332.073966 -177.454116 
L 329.538277 -183.394206 
L 327.002587 -181.446722 
L 324.466898 -179.34611 
L 321.931209 -177.233602 
L 319.395519 -175.160111 
L 316.85983 -173.084717 
L 314.32414 -171.046528 
L 311.788451 -169.037309 
L 309.252761 -167.054919 
L 306.717072 -165.094206 
L 304.181383 -163.165255 
L 301.645693 -161.25212 
L 299.110004 -159.353036 
L 296.574314 -157.480396 
L 294.038625 -155.628745 
L 291.502935 -153.796391 
L 288.967246 -151.995331 
L 286.431557 -150.209996 
L 283.895867 -148.448166 
L 281.360178 -146.713208 
L 278.824488 -144.996498 
L 276.288799 -143.302709 
L 273.753109 -141.633387 
L 271.21742 -139.975857 
L 268.681731 -138.332271 
L 266.146041 -136.70741 
L 263.610352 -135.096733 
L 261.074662 -133.50289 
L 258.538973 -131.927334 
L 256.003284 -130.378873 
L 253.467594 -128.842245 
L 250.931905 -127.320711 
L 248.396215 -125.822562 
L 245.860526 -124.327333 
L 243.324836 -122.848829 
L 240.789147 -121.39072 
L 238.253458 -119.950346 
L 235.717768 -118.515255 
L 233.182079 -117.096944 
L 230.646389 -115.696149 
L 228.1107 -114.292841 
L 225.57501 -112.915406 
L 223.039321 -111.548675 
L 220.503632 -110.210042 
L 217.967942 -108.865767 
L 215.432253 -107.544175 
L 212.896563 -106.226673 
L 210.360874 -104.925735 
L 207.825184 -103.631027 
L 205.289495 -102.350218 
L 202.753806 -101.084768 
L 200.218116 -99.817949 
L 197.682427 -98.568418 
L 195.146737 -97.329854 
L 192.611048 -96.113623 
L 190.075358 -94.909911 
L 187.539669 -93.719633 
L 185.00398 -92.534668 
L 182.46829 -91.348197 
L 179.932601 -90.164732 
L 177.396911 -88.997458 
L 174.861222 -87.831731 
L 172.325532 -86.68423 
L 169.789843 -85.552652 
L 167.254154 -84.41863 
L 164.718464 -83.300769 
L 162.182775 -82.208466 
L 159.647085 -81.121394 
L 157.111396 -80.056102 
L 154.575706 -79.005221 
L 152.040017 -77.958118 
L 149.504328 -76.928092 
L 146.968638 -75.909817 
L 144.432949 -74.904601 
L 141.897259 -73.918529 
L 139.36157 -72.942993 
L 136.82588 -71.975175 
L 134.290191 -71.018234 
L 131.754502 -70.064188 
L 129.218812 -69.118339 
L 126.683123 -68.195784 
L 124.147433 -67.289901 
L 121.611744 -66.399305 
L 119.076054 -65.518286 
L 116.540365 -64.662632 
L 114.004676 -63.813084 
L 111.468986 -62.981456 
L 108.933297 -62.147178 
L 106.397607 -61.325078 
L 103.861918 -60.536665 
L 101.326228 -59.683406 
L 98.790539 -58.774146 
L 96.25485 -58.098924 
L 93.71916 -57.45759 
L 91.183471 -56.792668 
L 88.647781 -56.088928 
L 86.112092 -55.417831 
L 83.576402 -55.648958 
L 81.040713 -54.650929 
z
" style="stroke: #0000ff; stroke-opacity: 0.3"/>
    </defs>
    <g clip-path="url(#pc45e8bdc5a)">
     <use xlink:href="#m0d495405f8" x="0" y="345.6" style="fill: #0000ff; fill-opacity: 0.3; stroke: #0000ff; stroke-opacity: 0.3"/>
    </g>
   </g>
   <g id="FillBetweenPolyCollection_4">
    <defs>
     <path id="m8d90b2c6b2" d="M 81.039545 -54.629941 
L 81.039545 -54.585443 
L 84.588949 -55.36311 
L 88.138352 -54.960493 
L 91.687755 -55.277718 
L 95.237158 -55.296053 
L 98.786561 -55.338174 
L 102.335964 -55.599902 
L 105.885367 -56.028887 
L 109.43477 -56.880933 
L 112.984174 -57.712429 
L 116.533577 -58.567991 
L 120.08298 -59.464209 
L 123.632383 -60.397461 
L 127.181786 -61.396497 
L 130.731189 -62.407022 
L 134.280592 -63.447347 
L 137.829995 -64.514634 
L 141.379399 -65.633935 
L 144.928802 -66.753807 
L 148.478205 -67.903189 
L 152.027608 -69.08212 
L 155.577011 -70.28563 
L 159.126414 -71.526952 
L 162.675817 -72.789201 
L 166.22522 -74.1011 
L 169.774624 -75.433439 
L 173.324027 -76.793463 
L 176.87343 -78.174478 
L 180.422833 -79.574428 
L 183.972236 -81.028757 
L 187.521639 -82.510833 
L 191.071042 -84.031486 
L 194.620445 -85.544457 
L 198.169848 -87.096294 
L 201.719252 -88.658138 
L 205.268655 -90.282476 
L 208.818058 -91.899271 
L 212.367461 -93.554069 
L 215.916864 -95.259659 
L 219.466267 -96.996308 
L 223.01567 -98.702895 
L 226.565073 -100.457202 
L 230.114477 -102.258579 
L 233.66388 -104.076623 
L 237.213283 -105.913496 
L 240.762686 -107.803697 
L 244.312089 -109.724375 
L 247.861492 -111.637233 
L 251.410895 -113.601766 
L 254.960298 -115.608552 
L 258.509702 -117.629067 
L 262.059105 -119.67049 
L 265.608508 -121.781844 
L 269.157911 -123.903644 
L 272.707314 -126.050461 
L 276.256717 -128.253953 
L 279.80612 -130.497071 
L 283.355523 -132.762781 
L 286.904927 -135.07468 
L 290.45433 -137.440287 
L 294.003733 -139.820766 
L 297.553136 -142.251534 
L 301.102539 -144.743094 
L 304.651942 -147.290273 
L 308.201345 -149.891881 
L 311.750748 -152.557776 
L 315.300152 -155.281373 
L 318.849555 -158.071716 
L 322.398958 -160.900469 
L 325.948361 -163.780446 
L 329.497764 -166.714296 
L 333.047167 -169.71026 
L 336.59657 -172.762125 
L 340.145973 -175.861104 
L 343.695376 -179.020714 
L 347.24478 -182.251583 
L 350.794183 -185.550926 
L 354.343586 -188.900243 
L 357.892989 -192.342553 
L 361.442392 -195.851955 
L 364.991795 -199.43924 
L 368.541198 -203.106597 
L 372.090601 -206.858238 
L 375.640005 -210.682565 
L 379.189408 -214.606088 
L 382.738811 -218.612983 
L 386.288214 -222.719459 
L 389.837617 -226.934933 
L 393.38702 -231.259246 
L 396.936423 -235.685006 
L 400.485826 -240.233541 
L 404.03523 -244.902836 
L 407.584633 -249.678059 
L 411.134036 -254.558699 
L 414.683439 -259.546646 
L 418.232842 -264.591278 
L 421.782245 -269.727326 
L 425.331648 -274.885253 
L 428.881051 -279.789857 
L 432.430455 -227.16375 
L 432.430455 -245.557144 
L 432.430455 -245.557144 
L 428.881051 -306.14 
L 425.331648 -300.634368 
L 421.782245 -294.82267 
L 418.232842 -289.046464 
L 414.683439 -283.356313 
L 411.134036 -277.731918 
L 407.584633 -272.265696 
L 404.03523 -266.959602 
L 400.485826 -261.787264 
L 396.936423 -256.741634 
L 393.38702 -251.831464 
L 389.837617 -247.037878 
L 386.288214 -242.324981 
L 382.738811 -237.731695 
L 379.189408 -233.238061 
L 375.640005 -228.860753 
L 372.090601 -224.559076 
L 368.541198 -220.382665 
L 364.991795 -216.294777 
L 361.442392 -212.325609 
L 357.892989 -208.435283 
L 354.343586 -204.671111 
L 350.794183 -200.97645 
L 347.24478 -197.363302 
L 343.695376 -193.818853 
L 340.145973 -190.356248 
L 336.59657 -186.951152 
L 333.047167 -183.612249 
L 329.497764 -180.331016 
L 325.948361 -177.107875 
L 322.398958 -173.94641 
L 318.849555 -170.852069 
L 315.300152 -167.820128 
L 311.750748 -164.847976 
L 308.201345 -161.941783 
L 304.651942 -159.111125 
L 301.102539 -156.324982 
L 297.553136 -153.605711 
L 294.003733 -150.924497 
L 290.45433 -148.300811 
L 286.904927 -145.734501 
L 283.355523 -143.216886 
L 279.80612 -140.732088 
L 276.256717 -138.324999 
L 272.707314 -135.967453 
L 269.157911 -133.628355 
L 265.608508 -131.344714 
L 262.059105 -129.119273 
L 258.509702 -126.906639 
L 254.960298 -124.731031 
L 251.410895 -122.603065 
L 247.861492 -120.502177 
L 244.312089 -118.403058 
L 240.762686 -116.353442 
L 237.213283 -114.346953 
L 233.66388 -112.338995 
L 230.114477 -110.377814 
L 226.565073 -108.46514 
L 223.01567 -106.5782 
L 219.466267 -104.691733 
L 215.916864 -102.876656 
L 212.367461 -101.066769 
L 208.818058 -99.27789 
L 205.268655 -97.51885 
L 201.719252 -95.831065 
L 198.169848 -94.105667 
L 194.620445 -92.410476 
L 191.071042 -90.760902 
L 187.521639 -89.156587 
L 183.972236 -87.554426 
L 180.422833 -85.98891 
L 176.87343 -84.473015 
L 173.324027 -82.990187 
L 169.774624 -81.512904 
L 166.22522 -80.048297 
L 162.675817 -78.632325 
L 159.126414 -77.248628 
L 155.577011 -75.879707 
L 152.027608 -74.553404 
L 148.478205 -73.228872 
L 144.928802 -71.963974 
L 141.379399 -70.722105 
L 137.829995 -69.501758 
L 134.280592 -68.322753 
L 130.731189 -67.202948 
L 127.181786 -66.09313 
L 123.632383 -65.005769 
L 120.08298 -63.937471 
L 116.533577 -62.861697 
L 112.984174 -61.790411 
L 109.43477 -60.688577 
L 105.885367 -59.644563 
L 102.335964 -58.723926 
L 98.786561 -57.974522 
L 95.237158 -57.309962 
L 91.687755 -56.80505 
L 88.138352 -55.938167 
L 84.588949 -55.54961 
L 81.039545 -54.629941 
z
" style="stroke: #008000; stroke-opacity: 0.3"/>
    </defs>
    <g clip-path="url(#pc45e8bdc5a)">
     <use xlink:href="#m8d90b2c6b2" x="0" y="345.6" style="fill: #008000; fill-opacity: 0.3; stroke: #008000; stroke-opacity: 0.3"/>
    </g>
   </g>
   <g id="matplotlib.axis_1">
    <g id="xtick_1">
     <g id="line2d_1">
      <path d="M 81.039439 303.64 
L 81.039439 26.88 
" clip-path="url(#pc45e8bdc5a)" style="fill: none; stroke: #b0b0b0; stroke-opacity: 0.3; stroke-width: 0.8; stroke-linecap: square"/>
     </g>
     <g id="line2d_2">
      <defs>
       <path id="m8ac614853e" d="M 0 0 
L 0 3.5 
" style="stroke: #000000; stroke-width: 0.8"/>
      </defs>
      <g>
       <use xlink:href="#m8ac614853e" x="81.039439" y="303.64" style="stroke: #000000; stroke-width: 0.8"/>
      </g>
     </g>
     <g id="text_1">
      <!-- 0.00 -->
      <g transform="translate(69.906626 318.238437) scale(0.1 -0.1)">
       <defs>
        <path id="DejaVuSans-30" d="M 2034 4250 
Q 1547 4250 1301 3770 
Q 1056 3291 1056 2328 
Q 1056 1369 1301 889 
Q 1547 409 2034 409 
Q 2525 409 2770 889 
Q 3016 1369 3016 2328 
Q 3016 3291 2770 3770 
Q 2525 4250 2034 4250 
z
M 2034 4750 
Q 2819 4750 3233 4129 
Q 3647 3509 3647 2328 
Q 3647 1150 3233 529 
Q 2819 -91 2034 -91 
Q 1250 -91 836 529 
Q 422 1150 422 2328 
Q 422 3509 836 4129 
Q 1250 4750 2034 4750 
z
" transform="scale(0.015625)"/>
        <path id="DejaVuSans-2e" d="M 684 794 
L 1344 794 
L 1344 0 
L 684 0 
L 684 794 
z
" transform="scale(0.015625)"/>
       </defs>
       <use xlink:href="#DejaVuSans-30"/>
       <use xlink:href="#DejaVuSans-2e" transform="translate(63.623047 0)"/>
       <use xlink:href="#DejaVuSans-30" transform="translate(95.410156 0)"/>
       <use xlink:href="#DejaVuSans-30" transform="translate(159.033203 0)"/>
      </g>
     </g>
    </g>
    <g id="xtick_2">
     <g id="line2d_3">
      <path d="M 136.239139 303.64 
L 136.239139 26.88 
" clip-path="url(#pc45e8bdc5a)" style="fill: none; stroke: #b0b0b0; stroke-opacity: 0.3; stroke-width: 0.8; stroke-linecap: square"/>
     </g>
     <g id="line2d_4">
      <g>
       <use xlink:href="#m8ac614853e" x="136.239139" y="303.64" style="stroke: #000000; stroke-width: 0.8"/>
      </g>
     </g>
     <g id="text_2">
      <!-- 0.05 -->
      <g transform="translate(125.106327 318.238437) scale(0.1 -0.1)">
       <defs>
        <path id="DejaVuSans-35" d="M 691 4666 
L 3169 4666 
L 3169 4134 
L 1269 4134 
L 1269 2991 
Q 1406 3038 1543 3061 
Q 1681 3084 1819 3084 
Q 2600 3084 3056 2656 
Q 3513 2228 3513 1497 
Q 3513 744 3044 326 
Q 2575 -91 1722 -91 
Q 1428 -91 1123 -41 
Q 819 9 494 109 
L 494 744 
Q 775 591 1075 516 
Q 1375 441 1709 441 
Q 2250 441 2565 725 
Q 2881 1009 2881 1497 
Q 2881 1984 2565 2268 
Q 2250 2553 1709 2553 
Q 1456 2553 1204 2497 
Q 953 2441 691 2322 
L 691 4666 
z
" transform="scale(0.015625)"/>
       </defs>
       <use xlink:href="#DejaVuSans-30"/>
       <use xlink:href="#DejaVuSans-2e" transform="translate(63.623047 0)"/>
       <use xlink:href="#DejaVuSans-30" transform="translate(95.410156 0)"/>
       <use xlink:href="#DejaVuSans-35" transform="translate(159.033203 0)"/>
      </g>
     </g>
    </g>
    <g id="xtick_3">
     <g id="line2d_5">
      <path d="M 191.43884 303.64 
L 191.43884 26.88 
" clip-path="url(#pc45e8bdc5a)" style="fill: none; stroke: #b0b0b0; stroke-opacity: 0.3; stroke-width: 0.8; stroke-linecap: square"/>
     </g>
     <g id="line2d_6">
      <g>
       <use xlink:href="#m8ac614853e" x="191.43884" y="303.64" style="stroke: #000000; stroke-width: 0.8"/>
      </g>
     </g>
     <g id="text_3">
      <!-- 0.10 -->
      <g transform="translate(180.306028 318.238437) scale(0.1 -0.1)">
       <defs>
        <path id="DejaVuSans-31" d="M 794 531 
L 1825 531 
L 1825 4091 
L 703 3866 
L 703 4441 
L 1819 4666 
L 2450 4666 
L 2450 531 
L 3481 531 
L 3481 0 
L 794 0 
L 794 531 
z
" transform="scale(0.015625)"/>
       </defs>
       <use xlink:href="#DejaVuSans-30"/>
       <use xlink:href="#DejaVuSans-2e" transform="translate(63.623047 0)"/>
       <use xlink:href="#DejaVuSans-31" transform="translate(95.410156 0)"/>
       <use xlink:href="#DejaVuSans-30" transform="translate(159.033203 0)"/>
      </g>
     </g>
    </g>
    <g id="xtick_4">
     <g id="line2d_7">
      <path d="M 246.638541 303.64 
L 246.638541 26.88 
" clip-path="url(#pc45e8bdc5a)" style="fill: none; stroke: #b0b0b0; stroke-opacity: 0.3; stroke-width: 0.8; stroke-linecap: square"/>
     </g>
     <g id="line2d_8">
      <g>
       <use xlink:href="#m8ac614853e" x="246.638541" y="303.64" style="stroke: #000000; stroke-width: 0.8"/>
      </g>
     </g>
     <g id="text_4">
      <!-- 0.15 -->
      <g transform="translate(235.505729 318.238437) scale(0.1 -0.1)">
       <use xlink:href="#DejaVuSans-30"/>
       <use xlink:href="#DejaVuSans-2e" transform="translate(63.623047 0)"/>
       <use xlink:href="#DejaVuSans-31" transform="translate(95.410156 0)"/>
       <use xlink:href="#DejaVuSans-35" transform="translate(159.033203 0)"/>
      </g>
     </g>
    </g>
    <g id="xtick_5">
     <g id="line2d_9">
      <path d="M 301.838242 303.64 
L 301.838242 26.88 
" clip-path="url(#pc45e8bdc5a)" style="fill: none; stroke: #b0b0b0; stroke-opacity: 0.3; stroke-width: 0.8; stroke-linecap: square"/>
     </g>
     <g id="line2d_10">
      <g>
       <use xlink:href="#m8ac614853e" x="301.838242" y="303.64" style="stroke: #000000; stroke-width: 0.8"/>
      </g>
     </g>
     <g id="text_5">
      <!-- 0.20 -->
      <g transform="translate(290.705429 318.238437) scale(0.1 -0.1)">
       <defs>
        <path id="DejaVuSans-32" d="M 1228 531 
L 3431 531 
L 3431 0 
L 469 0 
L 469 531 
Q 828 903 1448 1529 
Q 2069 2156 2228 2338 
Q 2531 2678 2651 2914 
Q 2772 3150 2772 3378 
Q 2772 3750 2511 3984 
Q 2250 4219 1831 4219 
Q 1534 4219 1204 4116 
Q 875 4013 500 3803 
L 500 4441 
Q 881 4594 1212 4672 
Q 1544 4750 1819 4750 
Q 2544 4750 2975 4387 
Q 3406 4025 3406 3419 
Q 3406 3131 3298 2873 
Q 3191 2616 2906 2266 
Q 2828 2175 2409 1742 
Q 1991 1309 1228 531 
z
" transform="scale(0.015625)"/>
       </defs>
       <use xlink:href="#DejaVuSans-30"/>
       <use xlink:href="#DejaVuSans-2e" transform="translate(63.623047 0)"/>
       <use xlink:href="#DejaVuSans-32" transform="translate(95.410156 0)"/>
       <use xlink:href="#DejaVuSans-30" transform="translate(159.033203 0)"/>
      </g>
     </g>
    </g>
    <g id="xtick_6">
     <g id="line2d_11">
      <path d="M 357.037943 303.64 
L 357.037943 26.88 
" clip-path="url(#pc45e8bdc5a)" style="fill: none; stroke: #b0b0b0; stroke-opacity: 0.3; stroke-width: 0.8; stroke-linecap: square"/>
     </g>
     <g id="line2d_12">
      <g>
       <use xlink:href="#m8ac614853e" x="357.037943" y="303.64" style="stroke: #000000; stroke-width: 0.8"/>
      </g>
     </g>
     <g id="text_6">
      <!-- 0.25 -->
      <g transform="translate(345.90513 318.238437) scale(0.1 -0.1)">
       <use xlink:href="#DejaVuSans-30"/>
       <use xlink:href="#DejaVuSans-2e" transform="translate(63.623047 0)"/>
       <use xlink:href="#DejaVuSans-32" transform="translate(95.410156 0)"/>
       <use xlink:href="#DejaVuSans-35" transform="translate(159.033203 0)"/>
      </g>
     </g>
    </g>
    <g id="xtick_7">
     <g id="line2d_13">
      <path d="M 412.237644 303.64 
L 412.237644 26.88 
" clip-path="url(#pc45e8bdc5a)" style="fill: none; stroke: #b0b0b0; stroke-opacity: 0.3; stroke-width: 0.8; stroke-linecap: square"/>
     </g>
     <g id="line2d_14">
      <g>
       <use xlink:href="#m8ac614853e" x="412.237644" y="303.64" style="stroke: #000000; stroke-width: 0.8"/>
      </g>
     </g>
     <g id="text_7">
      <!-- 0.30 -->
      <g transform="translate(401.104831 318.238437) scale(0.1 -0.1)">
       <defs>
        <path id="DejaVuSans-33" d="M 2597 2516 
Q 3050 2419 3304 2112 
Q 3559 1806 3559 1356 
Q 3559 666 3084 287 
Q 2609 -91 1734 -91 
Q 1441 -91 1130 -33 
Q 819 25 488 141 
L 488 750 
Q 750 597 1062 519 
Q 1375 441 1716 441 
Q 2309 441 2620 675 
Q 2931 909 2931 1356 
Q 2931 1769 2642 2001 
Q 2353 2234 1838 2234 
L 1294 2234 
L 1294 2753 
L 1863 2753 
Q 2328 2753 2575 2939 
Q 2822 3125 2822 3475 
Q 2822 3834 2567 4026 
Q 2313 4219 1838 4219 
Q 1578 4219 1281 4162 
Q 984 4106 628 3988 
L 628 4550 
Q 988 4650 1302 4700 
Q 1616 4750 1894 4750 
Q 2613 4750 3031 4423 
Q 3450 4097 3450 3541 
Q 3450 3153 3228 2886 
Q 3006 2619 2597 2516 
z
" transform="scale(0.015625)"/>
       </defs>
       <use xlink:href="#DejaVuSans-30"/>
       <use xlink:href="#DejaVuSans-2e" transform="translate(63.623047 0)"/>
       <use xlink:href="#DejaVuSans-33" transform="translate(95.410156 0)"/>
       <use xlink:href="#DejaVuSans-30" transform="translate(159.033203 0)"/>
      </g>
     </g>
    </g>
    <g id="text_8">
     <!-- Strain [-] -->
     <g transform="translate(234.62875 331.916562) scale(0.1 -0.1)">
      <defs>
       <path id="DejaVuSans-53" d="M 3425 4513 
L 3425 3897 
Q 3066 4069 2747 4153 
Q 2428 4238 2131 4238 
Q 1616 4238 1336 4038 
Q 1056 3838 1056 3469 
Q 1056 3159 1242 3001 
Q 1428 2844 1947 2747 
L 2328 2669 
Q 3034 2534 3370 2195 
Q 3706 1856 3706 1288 
Q 3706 609 3251 259 
Q 2797 -91 1919 -91 
Q 1588 -91 1214 -16 
Q 841 59 441 206 
L 441 856 
Q 825 641 1194 531 
Q 1563 422 1919 422 
Q 2459 422 2753 634 
Q 3047 847 3047 1241 
Q 3047 1584 2836 1778 
Q 2625 1972 2144 2069 
L 1759 2144 
Q 1053 2284 737 2584 
Q 422 2884 422 3419 
Q 422 4038 858 4394 
Q 1294 4750 2059 4750 
Q 2388 4750 2728 4690 
Q 3069 4631 3425 4513 
z
" transform="scale(0.015625)"/>
       <path id="DejaVuSans-74" d="M 1172 4494 
L 1172 3500 
L 2356 3500 
L 2356 3053 
L 1172 3053 
L 1172 1153 
Q 1172 725 1289 603 
Q 1406 481 1766 481 
L 2356 481 
L 2356 0 
L 1766 0 
Q 1100 0 847 248 
Q 594 497 594 1153 
L 594 3053 
L 172 3053 
L 172 3500 
L 594 3500 
L 594 4494 
L 1172 4494 
z
" transform="scale(0.015625)"/>
       <path id="DejaVuSans-72" d="M 2631 2963 
Q 2534 3019 2420 3045 
Q 2306 3072 2169 3072 
Q 1681 3072 1420 2755 
Q 1159 2438 1159 1844 
L 1159 0 
L 581 0 
L 581 3500 
L 1159 3500 
L 1159 2956 
Q 1341 3275 1631 3429 
Q 1922 3584 2338 3584 
Q 2397 3584 2469 3576 
Q 2541 3569 2628 3553 
L 2631 2963 
z
" transform="scale(0.015625)"/>
       <path id="DejaVuSans-61" d="M 2194 1759 
Q 1497 1759 1228 1600 
Q 959 1441 959 1056 
Q 959 750 1161 570 
Q 1363 391 1709 391 
Q 2188 391 2477 730 
Q 2766 1069 2766 1631 
L 2766 1759 
L 2194 1759 
z
M 3341 1997 
L 3341 0 
L 2766 0 
L 2766 531 
Q 2569 213 2275 61 
Q 1981 -91 1556 -91 
Q 1019 -91 701 211 
Q 384 513 384 1019 
Q 384 1609 779 1909 
Q 1175 2209 1959 2209 
L 2766 2209 
L 2766 2266 
Q 2766 2663 2505 2880 
Q 2244 3097 1772 3097 
Q 1472 3097 1187 3025 
Q 903 2953 641 2809 
L 641 3341 
Q 956 3463 1253 3523 
Q 1550 3584 1831 3584 
Q 2591 3584 2966 3190 
Q 3341 2797 3341 1997 
z
" transform="scale(0.015625)"/>
       <path id="DejaVuSans-69" d="M 603 3500 
L 1178 3500 
L 1178 0 
L 603 0 
L 603 3500 
z
M 603 4863 
L 1178 4863 
L 1178 4134 
L 603 4134 
L 603 4863 
z
" transform="scale(0.015625)"/>
       <path id="DejaVuSans-6e" d="M 3513 2113 
L 3513 0 
L 2938 0 
L 2938 2094 
Q 2938 2591 2744 2837 
Q 2550 3084 2163 3084 
Q 1697 3084 1428 2787 
Q 1159 2491 1159 1978 
L 1159 0 
L 581 0 
L 581 3500 
L 1159 3500 
L 1159 2956 
Q 1366 3272 1645 3428 
Q 1925 3584 2291 3584 
Q 2894 3584 3203 3211 
Q 3513 2838 3513 2113 
z
" transform="scale(0.015625)"/>
       <path id="DejaVuSans-20" transform="scale(0.015625)"/>
       <path id="DejaVuSans-5b" d="M 550 4863 
L 1875 4863 
L 1875 4416 
L 1125 4416 
L 1125 -397 
L 1875 -397 
L 1875 -844 
L 550 -844 
L 550 4863 
z
" transform="scale(0.015625)"/>
       <path id="DejaVuSans-2d" d="M 313 2009 
L 1997 2009 
L 1997 1497 
L 313 1497 
L 313 2009 
z
" transform="scale(0.015625)"/>
       <path id="DejaVuSans-5d" d="M 1947 4863 
L 1947 -844 
L 622 -844 
L 622 -397 
L 1369 -397 
L 1369 4416 
L 622 4416 
L 622 4863 
L 1947 4863 
z
" transform="scale(0.015625)"/>
      </defs>
      <use xlink:href="#DejaVuSans-53"/>
      <use xlink:href="#DejaVuSans-74" transform="translate(63.476562 0)"/>
      <use xlink:href="#DejaVuSans-72" transform="translate(102.685547 0)"/>
      <use xlink:href="#DejaVuSans-61" transform="translate(143.798828 0)"/>
      <use xlink:href="#DejaVuSans-69" transform="translate(205.078125 0)"/>
      <use xlink:href="#DejaVuSans-6e" transform="translate(232.861328 0)"/>
      <use xlink:href="#DejaVuSans-20" transform="translate(296.240234 0)"/>
      <use xlink:href="#DejaVuSans-5b" transform="translate(328.027344 0)"/>
      <use xlink:href="#DejaVuSans-2d" transform="translate(367.041016 0)"/>
      <use xlink:href="#DejaVuSans-5d" transform="translate(403.125 0)"/>
     </g>
    </g>
   </g>
   <g id="matplotlib.axis_2">
    <g id="ytick_1">
     <g id="line2d_15">
      <path d="M 63.47 290.912386 
L 450 290.912386 
" clip-path="url(#pc45e8bdc5a)" style="fill: none; stroke: #b0b0b0; stroke-opacity: 0.3; stroke-width: 0.8; stroke-linecap: square"/>
     </g>
     <g id="line2d_16">
      <defs>
       <path id="mab0041725f" d="M 0 0 
L -3.5 0 
" style="stroke: #000000; stroke-width: 0.8"/>
      </defs>
      <g>
       <use xlink:href="#mab0041725f" x="63.47" y="290.912386" style="stroke: #000000; stroke-width: 0.8"/>
      </g>
     </g>
     <g id="text_9">
      <!-- 0 -->
      <g transform="translate(50.1075 294.711604) scale(0.1 -0.1)">
       <use xlink:href="#DejaVuSans-30"/>
      </g>
     </g>
    </g>
    <g id="ytick_2">
     <g id="line2d_17">
      <path d="M 63.47 232.47089 
L 450 232.47089 
" clip-path="url(#pc45e8bdc5a)" style="fill: none; stroke: #b0b0b0; stroke-opacity: 0.3; stroke-width: 0.8; stroke-linecap: square"/>
     </g>
     <g id="line2d_18">
      <g>
       <use xlink:href="#mab0041725f" x="63.47" y="232.47089" style="stroke: #000000; stroke-width: 0.8"/>
      </g>
     </g>
     <g id="text_10">
      <!-- 5000 -->
      <g transform="translate(31.02 236.270109) scale(0.1 -0.1)">
       <use xlink:href="#DejaVuSans-35"/>
       <use xlink:href="#DejaVuSans-30" transform="translate(63.623047 0)"/>
       <use xlink:href="#DejaVuSans-30" transform="translate(127.246094 0)"/>
       <use xlink:href="#DejaVuSans-30" transform="translate(190.869141 0)"/>
      </g>
     </g>
    </g>
    <g id="ytick_3">
     <g id="line2d_19">
      <path d="M 63.47 174.029395 
L 450 174.029395 
" clip-path="url(#pc45e8bdc5a)" style="fill: none; stroke: #b0b0b0; stroke-opacity: 0.3; stroke-width: 0.8; stroke-linecap: square"/>
     </g>
     <g id="line2d_20">
      <g>
       <use xlink:href="#mab0041725f" x="63.47" y="174.029395" style="stroke: #000000; stroke-width: 0.8"/>
      </g>
     </g>
     <g id="text_11">
      <!-- 10000 -->
      <g transform="translate(24.6575 177.828613) scale(0.1 -0.1)">
       <use xlink:href="#DejaVuSans-31"/>
       <use xlink:href="#DejaVuSans-30" transform="translate(63.623047 0)"/>
       <use xlink:href="#DejaVuSans-30" transform="translate(127.246094 0)"/>
       <use xlink:href="#DejaVuSans-30" transform="translate(190.869141 0)"/>
       <use xlink:href="#DejaVuSans-30" transform="translate(254.492188 0)"/>
      </g>
     </g>
    </g>
    <g id="ytick_4">
     <g id="line2d_21">
      <path d="M 63.47 115.587899 
L 450 115.587899 
" clip-path="url(#pc45e8bdc5a)" style="fill: none; stroke: #b0b0b0; stroke-opacity: 0.3; stroke-width: 0.8; stroke-linecap: square"/>
     </g>
     <g id="line2d_22">
      <g>
       <use xlink:href="#mab0041725f" x="63.47" y="115.587899" style="stroke: #000000; stroke-width: 0.8"/>
      </g>
     </g>
     <g id="text_12">
      <!-- 15000 -->
      <g transform="translate(24.6575 119.387118) scale(0.1 -0.1)">
       <use xlink:href="#DejaVuSans-31"/>
       <use xlink:href="#DejaVuSans-35" transform="translate(63.623047 0)"/>
       <use xlink:href="#DejaVuSans-30" transform="translate(127.246094 0)"/>
       <use xlink:href="#DejaVuSans-30" transform="translate(190.869141 0)"/>
       <use xlink:href="#DejaVuSans-30" transform="translate(254.492188 0)"/>
      </g>
     </g>
    </g>
    <g id="ytick_5">
     <g id="line2d_23">
      <path d="M 63.47 57.146404 
L 450 57.146404 
" clip-path="url(#pc45e8bdc5a)" style="fill: none; stroke: #b0b0b0; stroke-opacity: 0.3; stroke-width: 0.8; stroke-linecap: square"/>
     </g>
     <g id="line2d_24">
      <g>
       <use xlink:href="#mab0041725f" x="63.47" y="57.146404" style="stroke: #000000; stroke-width: 0.8"/>
      </g>
     </g>
     <g id="text_13">
      <!-- 20000 -->
      <g transform="translate(24.6575 60.945622) scale(0.1 -0.1)">
       <use xlink:href="#DejaVuSans-32"/>
       <use xlink:href="#DejaVuSans-30" transform="translate(63.623047 0)"/>
       <use xlink:href="#DejaVuSans-30" transform="translate(127.246094 0)"/>
       <use xlink:href="#DejaVuSans-30" transform="translate(190.869141 0)"/>
       <use xlink:href="#DejaVuSans-30" transform="translate(254.492188 0)"/>
      </g>
     </g>
    </g>
    <g id="text_14">
     <!-- Stress [Pa] -->
     <g transform="translate(18.577813 191.967812) rotate(-90) scale(0.1 -0.1)">
      <defs>
       <path id="DejaVuSans-65" d="M 3597 1894 
L 3597 1613 
L 953 1613 
Q 991 1019 1311 708 
Q 1631 397 2203 397 
Q 2534 397 2845 478 
Q 3156 559 3463 722 
L 3463 178 
Q 3153 47 2828 -22 
Q 2503 -91 2169 -91 
Q 1331 -91 842 396 
Q 353 884 353 1716 
Q 353 2575 817 3079 
Q 1281 3584 2069 3584 
Q 2775 3584 3186 3129 
Q 3597 2675 3597 1894 
z
M 3022 2063 
Q 3016 2534 2758 2815 
Q 2500 3097 2075 3097 
Q 1594 3097 1305 2825 
Q 1016 2553 972 2059 
L 3022 2063 
z
" transform="scale(0.015625)"/>
       <path id="DejaVuSans-73" d="M 2834 3397 
L 2834 2853 
Q 2591 2978 2328 3040 
Q 2066 3103 1784 3103 
Q 1356 3103 1142 2972 
Q 928 2841 928 2578 
Q 928 2378 1081 2264 
Q 1234 2150 1697 2047 
L 1894 2003 
Q 2506 1872 2764 1633 
Q 3022 1394 3022 966 
Q 3022 478 2636 193 
Q 2250 -91 1575 -91 
Q 1294 -91 989 -36 
Q 684 19 347 128 
L 347 722 
Q 666 556 975 473 
Q 1284 391 1588 391 
Q 1994 391 2212 530 
Q 2431 669 2431 922 
Q 2431 1156 2273 1281 
Q 2116 1406 1581 1522 
L 1381 1569 
Q 847 1681 609 1914 
Q 372 2147 372 2553 
Q 372 3047 722 3315 
Q 1072 3584 1716 3584 
Q 2034 3584 2315 3537 
Q 2597 3491 2834 3397 
z
" transform="scale(0.015625)"/>
       <path id="DejaVuSans-50" d="M 1259 4147 
L 1259 2394 
L 2053 2394 
Q 2494 2394 2734 2622 
Q 2975 2850 2975 3272 
Q 2975 3691 2734 3919 
Q 2494 4147 2053 4147 
L 1259 4147 
z
M 628 4666 
L 2053 4666 
Q 2838 4666 3239 4311 
Q 3641 3956 3641 3272 
Q 3641 2581 3239 2228 
Q 2838 1875 2053 1875 
L 1259 1875 
L 1259 0 
L 628 0 
L 628 4666 
z
" transform="scale(0.015625)"/>
      </defs>
      <use xlink:href="#DejaVuSans-53"/>
      <use xlink:href="#DejaVuSans-74" transform="translate(63.476562 0)"/>
      <use xlink:href="#DejaVuSans-72" transform="translate(102.685547 0)"/>
      <use xlink:href="#DejaVuSans-65" transform="translate(141.548828 0)"/>
      <use xlink:href="#DejaVuSans-73" transform="translate(203.072266 0)"/>
      <use xlink:href="#DejaVuSans-73" transform="translate(255.171875 0)"/>
      <use xlink:href="#DejaVuSans-20" transform="translate(307.271484 0)"/>
      <use xlink:href="#DejaVuSans-5b" transform="translate(339.058594 0)"/>
      <use xlink:href="#DejaVuSans-50" transform="translate(378.072266 0)"/>
      <use xlink:href="#DejaVuSans-61" transform="translate(433.875 0)"/>
      <use xlink:href="#DejaVuSans-5d" transform="translate(495.154297 0)"/>
     </g>
    </g>
   </g>
   <g id="line2d_25">
    <path d="M 81.0495 290.98941 
L 81.558147 290.92905 
L 82.066793 290.83556 
L 82.57544 290.797147 
L 83.084086 290.861719 
L 83.592733 290.946756 
L 84.101379 290.904538 
L 84.610026 290.843258 
L 85.118672 290.803142 
L 85.627319 290.746451 
L 86.135966 290.707181 
L 86.644612 290.624115 
L 87.153259 290.522818 
L 87.661905 290.437539 
L 88.170552 290.368705 
L 88.679198 290.268856 
L 89.187845 290.152836 
L 89.696491 290.068947 
L 90.205138 289.995161 
L 90.713785 289.908702 
L 91.222431 289.809748 
L 91.731078 289.701815 
L 92.239724 289.57138 
L 92.748371 289.424164 
L 93.257017 289.29159 
L 93.765664 289.172579 
L 94.27431 289.05248 
L 94.782957 288.928373 
L 95.291604 288.794013 
L 95.80025 288.64627 
L 96.308897 288.495668 
L 96.817543 288.346836 
L 97.32619 288.200387 
L 97.834836 288.053177 
L 98.343483 287.902161 
L 98.852129 287.741609 
L 99.360776 287.579983 
L 99.869423 287.418224 
L 100.378069 287.254043 
L 100.886716 287.09036 
L 101.395362 286.92326 
L 101.904009 286.752645 
L 102.412655 286.579562 
L 102.921302 286.408085 
L 103.429948 286.232765 
L 103.938595 286.057001 
L 104.447241 285.878309 
L 104.955888 285.699692 
L 105.464535 285.519984 
L 105.973181 285.339039 
L 106.481828 285.156383 
L 106.990474 284.9699 
L 107.499121 284.780126 
L 108.007767 284.591623 
L 108.516414 284.401968 
L 109.02506 284.213351 
L 109.533707 284.025637 
L 110.042354 283.835034 
L 110.551 283.63936 
L 111.059647 283.446131 
L 111.568293 283.2513 
L 112.07694 283.054037 
L 112.585586 282.8581 
L 113.094233 282.660917 
L 113.602879 282.461211 
L 114.111526 282.262605 
L 114.620173 282.064841 
L 115.128819 281.862868 
L 115.637466 281.6628 
L 116.146112 281.463383 
L 116.654759 281.261053 
L 117.163405 281.059987 
L 117.672052 280.857485 
L 118.180698 280.653494 
L 118.689345 280.447194 
L 119.197992 280.242588 
L 119.706638 280.035875 
L 120.215285 279.828563 
L 120.723931 279.623493 
L 121.232578 279.418016 
L 121.741224 279.21154 
L 122.249871 279.004769 
L 122.758517 278.800275 
L 123.267164 278.591103 
L 123.775811 278.379821 
L 124.284457 278.168077 
L 124.793104 277.95747 
L 125.30175 277.748846 
L 125.810397 277.540606 
L 126.319043 277.331205 
L 126.82769 277.119026 
L 127.336336 276.908266 
L 127.844983 276.695711 
L 128.353629 276.483327 
L 128.862276 276.271611 
L 129.370923 276.062582 
L 129.879569 275.852358 
L 130.388216 275.643165 
L 130.896862 275.431924 
L 131.405509 276.194504 
" clip-path="url(#pc45e8bdc5a)" style="fill: none; stroke: #000000; stroke-width: 2; stroke-linecap: square"/>
   </g>
   <g id="line2d_26">
    <path d="M 81.040013 290.958237 
L 82.561924 290.466901 
L 84.083836 290.229931 
L 85.605748 290.614597 
L 87.12766 290.321872 
L 88.649572 290.028163 
L 90.171484 289.661424 
L 91.693395 289.154549 
L 93.215307 288.672078 
L 94.737219 288.291936 
L 96.259131 287.764595 
L 97.781043 287.220766 
L 99.302954 286.721863 
L 100.824866 286.239841 
L 102.346778 285.732284 
L 103.86869 285.212552 
L 105.390602 284.683631 
L 106.912514 284.151987 
L 108.434425 283.619194 
L 109.956337 283.083559 
L 111.478249 282.542248 
L 113.000161 281.995762 
L 114.522073 281.44428 
L 116.043984 280.893942 
L 117.565896 280.334464 
L 119.087808 279.777588 
L 120.60972 279.212115 
L 122.131632 278.647277 
L 123.653544 278.078501 
L 125.175455 277.505593 
L 126.697367 276.92547 
L 128.219279 276.343783 
L 129.741191 275.753267 
L 131.263103 275.155134 
L 132.785014 274.557568 
L 134.306926 273.955712 
L 135.828838 273.355264 
L 137.35075 272.756489 
L 138.872662 272.152774 
L 140.394574 271.5452 
L 141.916485 270.939222 
L 143.438397 270.324126 
L 144.960309 269.707256 
L 146.482221 269.08726 
L 148.004133 268.462221 
L 149.526044 267.833869 
L 151.047956 267.199478 
L 152.569868 266.561884 
L 154.09178 265.918564 
L 155.613692 265.270848 
L 157.135604 264.618557 
L 158.657515 263.965163 
L 160.179427 263.307204 
L 161.701339 262.646758 
L 163.223251 261.982655 
L 164.745163 261.316113 
L 166.267074 260.640226 
L 167.788986 259.958201 
L 169.310898 259.272826 
L 170.83281 258.582625 
L 172.354722 257.882768 
L 173.876634 257.190277 
L 175.398545 256.496577 
L 176.920457 255.802416 
L 178.442369 255.101981 
L 179.964281 254.403955 
L 181.486193 253.696358 
L 183.008104 252.9844 
L 184.530016 252.270302 
L 186.051928 251.550171 
L 187.57384 250.820006 
L 189.095752 250.089447 
L 190.617664 249.358802 
L 192.139575 248.624087 
L 193.661487 247.880735 
L 195.183399 247.141384 
L 196.705311 246.398288 
L 198.227223 245.646716 
L 199.749134 244.886935 
L 201.271046 244.126472 
L 202.792958 243.357634 
L 204.31487 242.587618 
L 205.836782 241.813396 
L 207.358694 241.040568 
L 208.880605 240.255016 
L 210.402517 239.472803 
L 211.924429 238.6879 
L 213.446341 237.899886 
L 214.968253 237.098972 
L 216.490164 236.308692 
L 218.012076 235.505695 
L 219.533988 234.690217 
L 221.0559 233.871527 
L 222.577812 233.045806 
L 224.099724 232.205835 
L 225.621635 231.372786 
L 227.143547 230.547094 
L 228.665459 229.732826 
L 230.187371 228.964022 
L 231.709283 233.033714 
" clip-path="url(#pc45e8bdc5a)" style="fill: none; stroke: #ff0000; stroke-width: 2; stroke-linecap: square"/>
   </g>
   <g id="line2d_27">
    <path d="M 81.040713 290.974314 
L 83.576402 290.133767 
L 86.112092 290.436284 
L 88.647781 289.947849 
L 91.183471 289.436557 
L 93.71916 288.933461 
L 96.25485 288.376137 
L 98.790539 287.803145 
L 101.326228 287.092501 
L 103.861918 286.269025 
L 106.397607 285.467816 
L 108.933297 284.70455 
L 111.468986 283.924501 
L 114.004676 283.113283 
L 116.540365 282.285687 
L 119.076054 281.458164 
L 121.611744 280.611225 
L 124.147433 279.75829 
L 126.683123 278.88283 
L 129.218812 277.99525 
L 131.754502 277.090512 
L 134.290191 276.175897 
L 136.82588 275.250087 
L 139.36157 274.320491 
L 141.897259 273.376095 
L 144.432949 272.419875 
L 146.968638 271.455245 
L 149.504328 270.478959 
L 152.040017 269.490487 
L 154.575706 268.490832 
L 157.111396 267.484067 
L 159.647085 266.464643 
L 162.182775 265.429501 
L 164.718464 264.383925 
L 167.254154 263.315566 
L 169.789843 262.229653 
L 172.325532 261.143726 
L 174.861222 260.040885 
L 177.396911 258.930312 
L 179.932601 257.806178 
L 182.46829 256.669166 
L 185.00398 255.520119 
L 187.539669 254.373664 
L 190.075358 253.218343 
L 192.611048 252.053055 
L 195.146737 250.871076 
L 197.682427 249.668981 
L 200.218116 248.455483 
L 202.753806 247.22741 
L 205.289495 245.998228 
L 207.825184 244.755581 
L 210.360874 243.496372 
L 212.896563 242.221593 
L 215.432253 240.936404 
L 217.967942 239.641536 
L 220.503632 238.332838 
L 223.039321 237.027496 
L 225.57501 235.704632 
L 228.1107 234.367191 
L 230.646389 233.001642 
L 233.182079 231.633159 
L 235.717768 230.248479 
L 238.253458 228.848806 
L 240.789147 227.438832 
L 243.324836 226.015139 
L 245.860526 224.570972 
L 248.396215 223.112157 
L 250.931905 221.644812 
L 253.467594 220.162018 
L 256.003284 218.667758 
L 258.538973 217.157143 
L 261.074662 215.619561 
L 263.610352 214.063859 
L 266.146041 212.492302 
L 268.681731 210.904059 
L 271.21742 209.298909 
L 273.753109 207.680105 
L 276.288799 206.048212 
L 278.824488 204.390697 
L 281.360178 202.71415 
L 283.895867 201.019914 
L 286.431557 199.301475 
L 288.967246 197.562615 
L 291.502935 195.807455 
L 294.038625 194.02449 
L 296.574314 192.215934 
L 299.110004 190.376354 
L 301.645693 188.512051 
L 304.181383 186.633724 
L 306.717072 184.733799 
L 309.252761 182.805797 
L 311.788451 180.854275 
L 314.32414 178.878228 
L 316.85983 176.870715 
L 319.395519 174.838523 
L 321.931209 172.7923 
L 324.466898 170.711703 
L 327.002587 168.623253 
L 329.538277 166.607337 
L 332.073966 179.195098 
" clip-path="url(#pc45e8bdc5a)" style="fill: none; stroke: #0000ff; stroke-width: 2; stroke-linecap: square"/>
   </g>
   <g id="line2d_28">
    <path d="M 81.039545 290.992308 
L 84.588949 290.14364 
L 88.138352 290.15067 
L 91.687755 289.558616 
L 95.237158 289.296992 
L 98.786561 288.943652 
L 102.335964 288.438086 
L 105.885367 287.763275 
L 109.43477 286.815245 
L 112.984174 285.84858 
L 116.533577 284.885156 
L 120.08298 283.89916 
L 123.632383 282.898385 
L 127.181786 281.855186 
L 130.731189 280.795015 
L 134.280592 279.71495 
L 137.829995 278.591804 
L 141.379399 277.42198 
L 144.928802 276.24111 
L 148.478205 275.03397 
L 152.027608 273.782238 
L 155.577011 272.517331 
L 159.126414 271.21221 
L 162.675817 269.889237 
L 166.22522 268.525301 
L 169.774624 267.126829 
L 173.324027 265.708175 
L 176.87343 264.276254 
L 180.422833 262.818331 
L 183.972236 261.308409 
L 187.521639 259.76629 
L 191.071042 258.203806 
L 194.620445 256.622533 
L 198.169848 254.999019 
L 201.719252 253.355398 
L 205.268655 251.699337 
L 208.818058 250.011419 
L 212.367461 248.289581 
L 215.916864 246.531842 
L 219.466267 244.755979 
L 223.01567 242.959452 
L 226.565073 241.138829 
L 230.114477 239.281804 
L 233.66388 237.392191 
L 237.213283 235.469776 
L 240.762686 233.52143 
L 244.312089 231.536283 
L 247.861492 229.530295 
L 251.410895 227.497585 
L 254.960298 225.430208 
L 258.509702 223.332147 
L 262.059105 221.205119 
L 265.608508 219.036721 
L 269.157911 216.834 
L 272.707314 214.591043 
L 276.256717 212.310524 
L 279.80612 209.985421 
L 283.355523 207.610166 
L 286.904927 205.195409 
L 290.45433 202.729451 
L 294.003733 200.227369 
L 297.553136 197.671377 
L 301.102539 195.065962 
L 304.651942 192.399301 
L 308.201345 189.683168 
L 311.750748 186.897124 
L 315.300152 184.049249 
L 318.849555 181.138108 
L 322.398958 178.176561 
L 325.948361 175.155839 
L 329.497764 172.077344 
L 333.047167 168.938745 
L 336.59657 165.743361 
L 340.145973 162.491324 
L 343.695376 159.180216 
L 347.24478 155.792558 
L 350.794183 152.336312 
L 354.343586 148.814323 
L 357.892989 145.211082 
L 361.442392 141.511218 
L 364.991795 137.732992 
L 368.541198 133.855369 
L 372.090601 129.891343 
L 375.640005 125.828341 
L 379.189408 121.677925 
L 382.738811 117.427661 
L 386.288214 113.07778 
L 389.837617 108.613595 
L 393.38702 104.054645 
L 396.936423 99.38668 
L 400.485826 94.589598 
L 404.03523 89.668781 
L 407.584633 84.628123 
L 411.134036 79.454691 
L 414.683439 74.14852 
L 418.232842 68.781129 
L 421.782245 63.325002 
L 425.331648 57.840189 
L 428.881051 52.635072 
L 432.430455 109.239553 
" clip-path="url(#pc45e8bdc5a)" style="fill: none; stroke: #008000; stroke-width: 2; stroke-linecap: square"/>
   </g>
   <g id="patch_3">
    <path d="M 63.47 303.64 
L 63.47 26.88 
" style="fill: none; stroke: #000000; stroke-width: 0.8; stroke-linejoin: miter; stroke-linecap: square"/>
   </g>
   <g id="patch_4">
    <path d="M 450 303.64 
L 450 26.88 
" style="fill: none; stroke: #000000; stroke-width: 0.8; stroke-linejoin: miter; stroke-linecap: square"/>
   </g>
   <g id="patch_5">
    <path d="M 63.47 303.64 
L 450 303.64 
" style="fill: none; stroke: #000000; stroke-width: 0.8; stroke-linejoin: miter; stroke-linecap: square"/>
   </g>
   <g id="patch_6">
    <path d="M 63.47 26.88 
L 450 26.88 
" style="fill: none; stroke: #000000; stroke-width: 0.8; stroke-linejoin: miter; stroke-linecap: square"/>
   </g>
   <g id="text_15">
    <!-- 2025-07-21 - Stress vs Strain by Impact Velocity (with Error Bands) -->
    <g transform="translate(55.531563 20.88) scale(0.12 -0.12)">
     <defs>
      <path id="DejaVuSans-37" d="M 525 4666 
L 3525 4666 
L 3525 4397 
L 1831 0 
L 1172 0 
L 2766 4134 
L 525 4134 
L 525 4666 
z
" transform="scale(0.015625)"/>
      <path id="DejaVuSans-76" d="M 191 3500 
L 800 3500 
L 1894 563 
L 2988 3500 
L 3597 3500 
L 2284 0 
L 1503 0 
L 191 3500 
z
" transform="scale(0.015625)"/>
      <path id="DejaVuSans-62" d="M 3116 1747 
Q 3116 2381 2855 2742 
Q 2594 3103 2138 3103 
Q 1681 3103 1420 2742 
Q 1159 2381 1159 1747 
Q 1159 1113 1420 752 
Q 1681 391 2138 391 
Q 2594 391 2855 752 
Q 3116 1113 3116 1747 
z
M 1159 2969 
Q 1341 3281 1617 3432 
Q 1894 3584 2278 3584 
Q 2916 3584 3314 3078 
Q 3713 2572 3713 1747 
Q 3713 922 3314 415 
Q 2916 -91 2278 -91 
Q 1894 -91 1617 61 
Q 1341 213 1159 525 
L 1159 0 
L 581 0 
L 581 4863 
L 1159 4863 
L 1159 2969 
z
" transform="scale(0.015625)"/>
      <path id="DejaVuSans-79" d="M 2059 -325 
Q 1816 -950 1584 -1140 
Q 1353 -1331 966 -1331 
L 506 -1331 
L 506 -850 
L 844 -850 
Q 1081 -850 1212 -737 
Q 1344 -625 1503 -206 
L 1606 56 
L 191 3500 
L 800 3500 
L 1894 763 
L 2988 3500 
L 3597 3500 
L 2059 -325 
z
" transform="scale(0.015625)"/>
      <path id="DejaVuSans-49" d="M 628 4666 
L 1259 4666 
L 1259 0 
L 628 0 
L 628 4666 
z
" transform="scale(0.015625)"/>
      <path id="DejaVuSans-6d" d="M 3328 2828 
Q 3544 3216 3844 3400 
Q 4144 3584 4550 3584 
Q 5097 3584 5394 3201 
Q 5691 2819 5691 2113 
L 5691 0 
L 5113 0 
L 5113 2094 
Q 5113 2597 4934 2840 
Q 4756 3084 4391 3084 
Q 3944 3084 3684 2787 
Q 3425 2491 3425 1978 
L 3425 0 
L 2847 0 
L 2847 2094 
Q 2847 2600 2669 2842 
Q 2491 3084 2119 3084 
Q 1678 3084 1418 2786 
Q 1159 2488 1159 1978 
L 1159 0 
L 581 0 
L 581 3500 
L 1159 3500 
L 1159 2956 
Q 1356 3278 1631 3431 
Q 1906 3584 2284 3584 
Q 2666 3584 2933 3390 
Q 3200 3197 3328 2828 
z
" transform="scale(0.015625)"/>
      <path id="DejaVuSans-70" d="M 1159 525 
L 1159 -1331 
L 581 -1331 
L 581 3500 
L 1159 3500 
L 1159 2969 
Q 1341 3281 1617 3432 
Q 1894 3584 2278 3584 
Q 2916 3584 3314 3078 
Q 3713 2572 3713 1747 
Q 3713 922 3314 415 
Q 2916 -91 2278 -91 
Q 1894 -91 1617 61 
Q 1341 213 1159 525 
z
M 3116 1747 
Q 3116 2381 2855 2742 
Q 2594 3103 2138 3103 
Q 1681 3103 1420 2742 
Q 1159 2381 1159 1747 
Q 1159 1113 1420 752 
Q 1681 391 2138 391 
Q 2594 391 2855 752 
Q 3116 1113 3116 1747 
z
" transform="scale(0.015625)"/>
      <path id="DejaVuSans-63" d="M 3122 3366 
L 3122 2828 
Q 2878 2963 2633 3030 
Q 2388 3097 2138 3097 
Q 1578 3097 1268 2742 
Q 959 2388 959 1747 
Q 959 1106 1268 751 
Q 1578 397 2138 397 
Q 2388 397 2633 464 
Q 2878 531 3122 666 
L 3122 134 
Q 2881 22 2623 -34 
Q 2366 -91 2075 -91 
Q 1284 -91 818 406 
Q 353 903 353 1747 
Q 353 2603 823 3093 
Q 1294 3584 2113 3584 
Q 2378 3584 2631 3529 
Q 2884 3475 3122 3366 
z
" transform="scale(0.015625)"/>
      <path id="DejaVuSans-56" d="M 1831 0 
L 50 4666 
L 709 4666 
L 2188 738 
L 3669 4666 
L 4325 4666 
L 2547 0 
L 1831 0 
z
" transform="scale(0.015625)"/>
      <path id="DejaVuSans-6c" d="M 603 4863 
L 1178 4863 
L 1178 0 
L 603 0 
L 603 4863 
z
" transform="scale(0.015625)"/>
      <path id="DejaVuSans-6f" d="M 1959 3097 
Q 1497 3097 1228 2736 
Q 959 2375 959 1747 
Q 959 1119 1226 758 
Q 1494 397 1959 397 
Q 2419 397 2687 759 
Q 2956 1122 2956 1747 
Q 2956 2369 2687 2733 
Q 2419 3097 1959 3097 
z
M 1959 3584 
Q 2709 3584 3137 3096 
Q 3566 2609 3566 1747 
Q 3566 888 3137 398 
Q 2709 -91 1959 -91 
Q 1206 -91 779 398 
Q 353 888 353 1747 
Q 353 2609 779 3096 
Q 1206 3584 1959 3584 
z
" transform="scale(0.015625)"/>
      <path id="DejaVuSans-28" d="M 1984 4856 
Q 1566 4138 1362 3434 
Q 1159 2731 1159 2009 
Q 1159 1288 1364 580 
Q 1569 -128 1984 -844 
L 1484 -844 
Q 1016 -109 783 600 
Q 550 1309 550 2009 
Q 550 2706 781 3412 
Q 1013 4119 1484 4856 
L 1984 4856 
z
" transform="scale(0.015625)"/>
      <path id="DejaVuSans-77" d="M 269 3500 
L 844 3500 
L 1563 769 
L 2278 3500 
L 2956 3500 
L 3675 769 
L 4391 3500 
L 4966 3500 
L 4050 0 
L 3372 0 
L 2619 2869 
L 1863 0 
L 1184 0 
L 269 3500 
z
" transform="scale(0.015625)"/>
      <path id="DejaVuSans-68" d="M 3513 2113 
L 3513 0 
L 2938 0 
L 2938 2094 
Q 2938 2591 2744 2837 
Q 2550 3084 2163 3084 
Q 1697 3084 1428 2787 
Q 1159 2491 1159 1978 
L 1159 0 
L 581 0 
L 581 4863 
L 1159 4863 
L 1159 2956 
Q 1366 3272 1645 3428 
Q 1925 3584 2291 3584 
Q 2894 3584 3203 3211 
Q 3513 2838 3513 2113 
z
" transform="scale(0.015625)"/>
      <path id="DejaVuSans-45" d="M 628 4666 
L 3578 4666 
L 3578 4134 
L 1259 4134 
L 1259 2753 
L 3481 2753 
L 3481 2222 
L 1259 2222 
L 1259 531 
L 3634 531 
L 3634 0 
L 628 0 
L 628 4666 
z
" transform="scale(0.015625)"/>
      <path id="DejaVuSans-42" d="M 1259 2228 
L 1259 519 
L 2272 519 
Q 2781 519 3026 730 
Q 3272 941 3272 1375 
Q 3272 1813 3026 2020 
Q 2781 2228 2272 2228 
L 1259 2228 
z
M 1259 4147 
L 1259 2741 
L 2194 2741 
Q 2656 2741 2882 2914 
Q 3109 3088 3109 3444 
Q 3109 3797 2882 3972 
Q 2656 4147 2194 4147 
L 1259 4147 
z
M 628 4666 
L 2241 4666 
Q 2963 4666 3353 4366 
Q 3744 4066 3744 3513 
Q 3744 3084 3544 2831 
Q 3344 2578 2956 2516 
Q 3422 2416 3680 2098 
Q 3938 1781 3938 1306 
Q 3938 681 3513 340 
Q 3088 0 2303 0 
L 628 0 
L 628 4666 
z
" transform="scale(0.015625)"/>
      <path id="DejaVuSans-64" d="M 2906 2969 
L 2906 4863 
L 3481 4863 
L 3481 0 
L 2906 0 
L 2906 525 
Q 2725 213 2448 61 
Q 2172 -91 1784 -91 
Q 1150 -91 751 415 
Q 353 922 353 1747 
Q 353 2572 751 3078 
Q 1150 3584 1784 3584 
Q 2172 3584 2448 3432 
Q 2725 3281 2906 2969 
z
M 947 1747 
Q 947 1113 1208 752 
Q 1469 391 1925 391 
Q 2381 391 2643 752 
Q 2906 1113 2906 1747 
Q 2906 2381 2643 2742 
Q 2381 3103 1925 3103 
Q 1469 3103 1208 2742 
Q 947 2381 947 1747 
z
" transform="scale(0.015625)"/>
      <path id="DejaVuSans-29" d="M 513 4856 
L 1013 4856 
Q 1481 4119 1714 3412 
Q 1947 2706 1947 2009 
Q 1947 1309 1714 600 
Q 1481 -109 1013 -844 
L 513 -844 
Q 928 -128 1133 580 
Q 1338 1288 1338 2009 
Q 1338 2731 1133 3434 
Q 928 4138 513 4856 
z
" transform="scale(0.015625)"/>
     </defs>
     <use xlink:href="#DejaVuSans-32"/>
     <use xlink:href="#DejaVuSans-30" transform="translate(63.623047 0)"/>
     <use xlink:href="#DejaVuSans-32" transform="translate(127.246094 0)"/>
     <use xlink:href="#DejaVuSans-35" transform="translate(190.869141 0)"/>
     <use xlink:href="#DejaVuSans-2d" transform="translate(254.492188 0)"/>
     <use xlink:href="#DejaVuSans-30" transform="translate(290.576172 0)"/>
     <use xlink:href="#DejaVuSans-37" transform="translate(354.199219 0)"/>
     <use xlink:href="#DejaVuSans-2d" transform="translate(417.822266 0)"/>
     <use xlink:href="#DejaVuSans-32" transform="translate(453.90625 0)"/>
     <use xlink:href="#DejaVuSans-31" transform="translate(517.529297 0)"/>
     <use xlink:href="#DejaVuSans-20" transform="translate(581.152344 0)"/>
     <use xlink:href="#DejaVuSans-2d" transform="translate(612.939453 0)"/>
     <use xlink:href="#DejaVuSans-20" transform="translate(649.023438 0)"/>
     <use xlink:href="#DejaVuSans-53" transform="translate(680.810547 0)"/>
     <use xlink:href="#DejaVuSans-74" transform="translate(744.287109 0)"/>
     <use xlink:href="#DejaVuSans-72" transform="translate(783.496094 0)"/>
     <use xlink:href="#DejaVuSans-65" transform="translate(822.359375 0)"/>
     <use xlink:href="#DejaVuSans-73" transform="translate(883.882812 0)"/>
     <use xlink:href="#DejaVuSans-73" transform="translate(935.982422 0)"/>
     <use xlink:href="#DejaVuSans-20" transform="translate(988.082031 0)"/>
     <use xlink:href="#DejaVuSans-76" transform="translate(1019.869141 0)"/>
     <use xlink:href="#DejaVuSans-73" transform="translate(1079.048828 0)"/>
     <use xlink:href="#DejaVuSans-20" transform="translate(1131.148438 0)"/>
     <use xlink:href="#DejaVuSans-53" transform="translate(1162.935547 0)"/>
     <use xlink:href="#DejaVuSans-74" transform="translate(1226.412109 0)"/>
     <use xlink:href="#DejaVuSans-72" transform="translate(1265.621094 0)"/>
     <use xlink:href="#DejaVuSans-61" transform="translate(1306.734375 0)"/>
     <use xlink:href="#DejaVuSans-69" transform="translate(1368.013672 0)"/>
     <use xlink:href="#DejaVuSans-6e" transform="translate(1395.796875 0)"/>
     <use xlink:href="#DejaVuSans-20" transform="translate(1459.175781 0)"/>
     <use xlink:href="#DejaVuSans-62" transform="translate(1490.962891 0)"/>
     <use xlink:href="#DejaVuSans-79" transform="translate(1554.439453 0)"/>
     <use xlink:href="#DejaVuSans-20" transform="translate(1613.619141 0)"/>
     <use xlink:href="#DejaVuSans-49" transform="translate(1645.40625 0)"/>
     <use xlink:href="#DejaVuSans-6d" transform="translate(1674.898438 0)"/>
     <use xlink:href="#DejaVuSans-70" transform="translate(1772.310547 0)"/>
     <use xlink:href="#DejaVuSans-61" transform="translate(1835.787109 0)"/>
     <use xlink:href="#DejaVuSans-63" transform="translate(1897.066406 0)"/>
     <use xlink:href="#DejaVuSans-74" transform="translate(1952.046875 0)"/>
     <use xlink:href="#DejaVuSans-20" transform="translate(1991.255859 0)"/>
     <use xlink:href="#DejaVuSans-56" transform="translate(2023.042969 0)"/>
     <use xlink:href="#DejaVuSans-65" transform="translate(2083.701172 0)"/>
     <use xlink:href="#DejaVuSans-6c" transform="translate(2145.224609 0)"/>
     <use xlink:href="#DejaVuSans-6f" transform="translate(2173.007812 0)"/>
     <use xlink:href="#DejaVuSans-63" transform="translate(2234.189453 0)"/>
     <use xlink:href="#DejaVuSans-69" transform="translate(2289.169922 0)"/>
     <use xlink:href="#DejaVuSans-74" transform="translate(2316.953125 0)"/>
     <use xlink:href="#DejaVuSans-79" transform="translate(2356.162109 0)"/>
     <use xlink:href="#DejaVuSans-20" transform="translate(2415.341797 0)"/>
     <use xlink:href="#DejaVuSans-28" transform="translate(2447.128906 0)"/>
     <use xlink:href="#DejaVuSans-77" transform="translate(2486.142578 0)"/>
     <use xlink:href="#DejaVuSans-69" transform="translate(2567.929688 0)"/>
     <use xlink:href="#DejaVuSans-74" transform="translate(2595.712891 0)"/>
     <use xlink:href="#DejaVuSans-68" transform="translate(2634.921875 0)"/>
     <use xlink:href="#DejaVuSans-20" transform="translate(2698.300781 0)"/>
     <use xlink:href="#DejaVuSans-45" transform="translate(2730.087891 0)"/>
     <use xlink:href="#DejaVuSans-72" transform="translate(2793.271484 0)"/>
     <use xlink:href="#DejaVuSans-72" transform="translate(2832.634766 0)"/>
     <use xlink:href="#DejaVuSans-6f" transform="translate(2871.498047 0)"/>
     <use xlink:href="#DejaVuSans-72" transform="translate(2932.679688 0)"/>
     <use xlink:href="#DejaVuSans-20" transform="translate(2973.792969 0)"/>
     <use xlink:href="#DejaVuSans-42" transform="translate(3005.580078 0)"/>
     <use xlink:href="#DejaVuSans-61" transform="translate(3074.183594 0)"/>
     <use xlink:href="#DejaVuSans-6e" transform="translate(3135.462891 0)"/>
     <use xlink:href="#DejaVuSans-64" transform="translate(3198.841797 0)"/>
     <use xlink:href="#DejaVuSans-73" transform="translate(3262.318359 0)"/>
     <use xlink:href="#DejaVuSans-29" transform="translate(3314.417969 0)"/>
    </g>
   </g>
   <g id="legend_1">
    <g id="patch_7">
     <path d="M 70.47 108.270625 
L 178.493437 108.270625 
Q 180.493437 108.270625 180.493437 106.270625 
L 180.493437 33.88 
Q 180.493437 31.88 178.493437 31.88 
L 70.47 31.88 
Q 68.47 31.88 68.47 33.88 
L 68.47 106.270625 
Q 68.47 108.270625 70.47 108.270625 
z
" style="fill: #ffffff; opacity: 0.8; stroke: #cccccc; stroke-linejoin: miter"/>
    </g>
    <g id="text_16">
     <!-- Impact Velocity -->
     <g transform="translate(85.984062 43.478437) scale(0.1 -0.1)">
      <use xlink:href="#DejaVuSans-49"/>
      <use xlink:href="#DejaVuSans-6d" transform="translate(29.492188 0)"/>
      <use xlink:href="#DejaVuSans-70" transform="translate(126.904297 0)"/>
      <use xlink:href="#DejaVuSans-61" transform="translate(190.380859 0)"/>
      <use xlink:href="#DejaVuSans-63" transform="translate(251.660156 0)"/>
      <use xlink:href="#DejaVuSans-74" transform="translate(306.640625 0)"/>
      <use xlink:href="#DejaVuSans-20" transform="translate(345.849609 0)"/>
      <use xlink:href="#DejaVuSans-56" transform="translate(377.636719 0)"/>
      <use xlink:href="#DejaVuSans-65" transform="translate(438.294922 0)"/>
      <use xlink:href="#DejaVuSans-6c" transform="translate(499.818359 0)"/>
      <use xlink:href="#DejaVuSans-6f" transform="translate(527.601562 0)"/>
      <use xlink:href="#DejaVuSans-63" transform="translate(588.783203 0)"/>
      <use xlink:href="#DejaVuSans-69" transform="translate(643.763672 0)"/>
      <use xlink:href="#DejaVuSans-74" transform="translate(671.546875 0)"/>
      <use xlink:href="#DejaVuSans-79" transform="translate(710.755859 0)"/>
     </g>
    </g>
    <g id="line2d_29">
     <path d="M 72.47 54.656563 
L 82.47 54.656563 
L 92.47 54.656563 
" style="fill: none; stroke: #000000; stroke-width: 2; stroke-linecap: square"/>
    </g>
    <g id="text_17">
     <!-- 1 mm/s (n=11) -->
     <g transform="translate(100.47 58.156563) scale(0.1 -0.1)">
      <defs>
       <path id="DejaVuSans-2f" d="M 1625 4666 
L 2156 4666 
L 531 -594 
L 0 -594 
L 1625 4666 
z
" transform="scale(0.015625)"/>
       <path id="DejaVuSans-3d" d="M 678 2906 
L 4684 2906 
L 4684 2381 
L 678 2381 
L 678 2906 
z
M 678 1631 
L 4684 1631 
L 4684 1100 
L 678 1100 
L 678 1631 
z
" transform="scale(0.015625)"/>
      </defs>
      <use xlink:href="#DejaVuSans-31"/>
      <use xlink:href="#DejaVuSans-20" transform="translate(63.623047 0)"/>
      <use xlink:href="#DejaVuSans-6d" transform="translate(95.410156 0)"/>
      <use xlink:href="#DejaVuSans-6d" transform="translate(192.822266 0)"/>
      <use xlink:href="#DejaVuSans-2f" transform="translate(290.234375 0)"/>
      <use xlink:href="#DejaVuSans-73" transform="translate(323.925781 0)"/>
      <use xlink:href="#DejaVuSans-20" transform="translate(376.025391 0)"/>
      <use xlink:href="#DejaVuSans-28" transform="translate(407.8125 0)"/>
      <use xlink:href="#DejaVuSans-6e" transform="translate(446.826172 0)"/>
      <use xlink:href="#DejaVuSans-3d" transform="translate(510.205078 0)"/>
      <use xlink:href="#DejaVuSans-31" transform="translate(593.994141 0)"/>
      <use xlink:href="#DejaVuSans-31" transform="translate(657.617188 0)"/>
      <use xlink:href="#DejaVuSans-29" transform="translate(721.240234 0)"/>
     </g>
    </g>
    <g id="line2d_30">
     <path d="M 72.47 69.334688 
L 82.47 69.334688 
L 92.47 69.334688 
" style="fill: none; stroke: #ff0000; stroke-width: 2; stroke-linecap: square"/>
    </g>
    <g id="text_18">
     <!-- 3 mm/s (n=9) -->
     <g transform="translate(100.47 72.834688) scale(0.1 -0.1)">
      <defs>
       <path id="DejaVuSans-39" d="M 703 97 
L 703 672 
Q 941 559 1184 500 
Q 1428 441 1663 441 
Q 2288 441 2617 861 
Q 2947 1281 2994 2138 
Q 2813 1869 2534 1725 
Q 2256 1581 1919 1581 
Q 1219 1581 811 2004 
Q 403 2428 403 3163 
Q 403 3881 828 4315 
Q 1253 4750 1959 4750 
Q 2769 4750 3195 4129 
Q 3622 3509 3622 2328 
Q 3622 1225 3098 567 
Q 2575 -91 1691 -91 
Q 1453 -91 1209 -44 
Q 966 3 703 97 
z
M 1959 2075 
Q 2384 2075 2632 2365 
Q 2881 2656 2881 3163 
Q 2881 3666 2632 3958 
Q 2384 4250 1959 4250 
Q 1534 4250 1286 3958 
Q 1038 3666 1038 3163 
Q 1038 2656 1286 2365 
Q 1534 2075 1959 2075 
z
" transform="scale(0.015625)"/>
      </defs>
      <use xlink:href="#DejaVuSans-33"/>
      <use xlink:href="#DejaVuSans-20" transform="translate(63.623047 0)"/>
      <use xlink:href="#DejaVuSans-6d" transform="translate(95.410156 0)"/>
      <use xlink:href="#DejaVuSans-6d" transform="translate(192.822266 0)"/>
      <use xlink:href="#DejaVuSans-2f" transform="translate(290.234375 0)"/>
      <use xlink:href="#DejaVuSans-73" transform="translate(323.925781 0)"/>
      <use xlink:href="#DejaVuSans-20" transform="translate(376.025391 0)"/>
      <use xlink:href="#DejaVuSans-28" transform="translate(407.8125 0)"/>
      <use xlink:href="#DejaVuSans-6e" transform="translate(446.826172 0)"/>
      <use xlink:href="#DejaVuSans-3d" transform="translate(510.205078 0)"/>
      <use xlink:href="#DejaVuSans-39" transform="translate(593.994141 0)"/>
      <use xlink:href="#DejaVuSans-29" transform="translate(657.617188 0)"/>
     </g>
    </g>
    <g id="line2d_31">
     <path d="M 72.47 84.012812 
L 82.47 84.012812 
L 92.47 84.012812 
" style="fill: none; stroke: #0000ff; stroke-width: 2; stroke-linecap: square"/>
    </g>
    <g id="text_19">
     <!-- 5 mm/s (n=6) -->
     <g transform="translate(100.47 87.512812) scale(0.1 -0.1)">
      <defs>
       <path id="DejaVuSans-36" d="M 2113 2584 
Q 1688 2584 1439 2293 
Q 1191 2003 1191 1497 
Q 1191 994 1439 701 
Q 1688 409 2113 409 
Q 2538 409 2786 701 
Q 3034 994 3034 1497 
Q 3034 2003 2786 2293 
Q 2538 2584 2113 2584 
z
M 3366 4563 
L 3366 3988 
Q 3128 4100 2886 4159 
Q 2644 4219 2406 4219 
Q 1781 4219 1451 3797 
Q 1122 3375 1075 2522 
Q 1259 2794 1537 2939 
Q 1816 3084 2150 3084 
Q 2853 3084 3261 2657 
Q 3669 2231 3669 1497 
Q 3669 778 3244 343 
Q 2819 -91 2113 -91 
Q 1303 -91 875 529 
Q 447 1150 447 2328 
Q 447 3434 972 4092 
Q 1497 4750 2381 4750 
Q 2619 4750 2861 4703 
Q 3103 4656 3366 4563 
z
" transform="scale(0.015625)"/>
      </defs>
      <use xlink:href="#DejaVuSans-35"/>
      <use xlink:href="#DejaVuSans-20" transform="translate(63.623047 0)"/>
      <use xlink:href="#DejaVuSans-6d" transform="translate(95.410156 0)"/>
      <use xlink:href="#DejaVuSans-6d" transform="translate(192.822266 0)"/>
      <use xlink:href="#DejaVuSans-2f" transform="translate(290.234375 0)"/>
      <use xlink:href="#DejaVuSans-73" transform="translate(323.925781 0)"/>
      <use xlink:href="#DejaVuSans-20" transform="translate(376.025391 0)"/>
      <use xlink:href="#DejaVuSans-28" transform="translate(407.8125 0)"/>
      <use xlink:href="#DejaVuSans-6e" transform="translate(446.826172 0)"/>
      <use xlink:href="#DejaVuSans-3d" transform="translate(510.205078 0)"/>
      <use xlink:href="#DejaVuSans-36" transform="translate(593.994141 0)"/>
      <use xlink:href="#DejaVuSans-29" transform="translate(657.617188 0)"/>
     </g>
    </g>
    <g id="line2d_32">
     <path d="M 72.47 98.690938 
L 82.47 98.690938 
L 92.47 98.690938 
" style="fill: none; stroke: #008000; stroke-width: 2; stroke-linecap: square"/>
    </g>
    <g id="text_20">
     <!-- 7 mm/s (n=2) -->
     <g transform="translate(100.47 102.190938) scale(0.1 -0.1)">
      <use xlink:href="#DejaVuSans-37"/>
      <use xlink:href="#DejaVuSans-20" transform="translate(63.623047 0)"/>
      <use xlink:href="#DejaVuSans-6d" transform="translate(95.410156 0)"/>
      <use xlink:href="#DejaVuSans-6d" transform="translate(192.822266 0)"/>
      <use xlink:href="#DejaVuSans-2f" transform="translate(290.234375 0)"/>
      <use xlink:href="#DejaVuSans-73" transform="translate(323.925781 0)"/>
      <use xlink:href="#DejaVuSans-20" transform="translate(376.025391 0)"/>
      <use xlink:href="#DejaVuSans-28" transform="translate(407.8125 0)"/>
      <use xlink:href="#DejaVuSans-6e" transform="translate(446.826172 0)"/>
      <use xlink:href="#DejaVuSans-3d" transform="translate(510.205078 0)"/>
      <use xlink:href="#DejaVuSans-32" transform="translate(593.994141 0)"/>
      <use xlink:href="#DejaVuSans-29" transform="translate(657.617188 0)"/>
     </g>
    </g>
   </g>
  </g>
 </g>
 <defs>
  <clipPath id="pc45e8bdc5a">
   <rect x="63.47" y="26.88" width="386.53" height="276.76"/>
  </clipPath>
 </defs>
</svg>
