<?xml version="1.0" encoding="utf-8" standalone="no"?>
<!DOCTYPE svg PUBLIC "-//W3C//DTD SVG 1.1//EN"
  "http://www.w3.org/Graphics/SVG/1.1/DTD/svg11.dtd">
<svg xmlns:xlink="http://www.w3.org/1999/xlink" width="460.8pt" height="345.6pt" viewBox="0 0 460.8 345.6" xmlns="http://www.w3.org/2000/svg" version="1.1">
 <metadata>
  <rdf:RDF xmlns:dc="http://purl.org/dc/elements/1.1/" xmlns:cc="http://creativecommons.org/ns#" xmlns:rdf="http://www.w3.org/1999/02/22-rdf-syntax-ns#">
   <cc:Work>
    <dc:type rdf:resource="http://purl.org/dc/dcmitype/StillImage"/>
    <dc:date>2025-07-28T21:16:55.288020</dc:date>
    <dc:format>image/svg+xml</dc:format>
    <dc:creator>
     <cc:Agent>
      <dc:title>Matplotlib v3.10.3, https://matplotlib.org/</dc:title>
     </cc:Agent>
    </dc:creator>
   </cc:Work>
  </rdf:RDF>
 </metadata>
 <defs>
  <style type="text/css">*{stroke-linejoin: round; stroke-linecap: butt}</style>
 </defs>
 <g id="figure_1">
  <g id="patch_1">
   <path d="M 0 345.6 
L 460.8 345.6 
L 460.8 0 
L 0 0 
z
" style="fill: #ffffff"/>
  </g>
  <g id="axes_1">
   <g id="patch_2">
    <path d="M 57.17 303.64 
L 442.304182 303.64 
L 442.304182 26.88 
L 57.17 26.88 
z
" style="fill: #ffffff"/>
   </g>
   <g id="FillBetweenPolyCollection_1">
    <defs>
     <path id="mad99f8f969" d="M 74.676417 -58.468754 
L 74.676417 -55.294605 
L 76.445414 -54.810317 
L 78.214412 -55.576678 
L 79.983409 -56.995892 
L 81.752407 -57.265372 
L 83.521404 -57.816854 
L 85.290401 -58.625601 
L 87.059399 -59.518642 
L 88.828396 -60.481871 
L 90.597394 -60.144844 
L 92.366391 -61.371065 
L 94.135388 -61.924453 
L 95.904386 -62.472542 
L 97.673383 -63.073212 
L 99.442381 -63.683045 
L 101.211378 -64.387262 
L 102.980375 -64.919302 
L 104.749373 -65.463019 
L 106.51837 -66.185886 
L 108.287368 -66.839916 
L 110.056365 -67.517329 
L 111.825362 -68.070146 
L 113.59436 -68.888169 
L 115.363357 -69.486696 
L 117.132355 -70.169422 
L 118.901352 -70.808699 
L 120.670349 -71.490267 
L 122.439347 -72.235292 
L 124.208344 -72.741607 
L 125.977342 -73.421183 
L 127.746339 -74.136332 
L 129.515336 -74.752974 
L 131.284334 -75.37608 
L 133.053331 -76.23356 
L 134.822329 -76.769224 
L 136.591326 -77.499314 
L 138.360323 -78.063063 
L 140.129321 -78.852355 
L 141.898318 -79.471986 
L 143.667316 -80.158404 
L 145.436313 -80.889715 
L 147.20531 -81.717339 
L 148.974308 -82.433151 
L 150.743305 -83.172768 
L 152.512303 -83.863803 
L 154.2813 -84.463298 
L 156.050297 -85.322041 
L 157.819295 -85.969708 
L 159.588292 -86.722879 
L 161.35729 -87.277422 
L 163.126287 -88.202206 
L 164.895284 -88.881765 
L 166.664282 -89.687508 
L 168.433279 -90.465975 
L 170.202277 -91.238425 
L 171.971274 -91.824981 
L 173.740271 -92.765509 
L 175.509269 -93.659695 
L 177.278266 -94.18118 
L 179.047264 -95.095228 
L 180.816261 -95.98008 
L 182.585258 -96.661007 
L 184.354256 -97.610796 
L 186.123253 -98.400516 
L 187.892251 -99.102539 
L 189.661248 -99.915759 
L 191.430245 -100.643026 
L 193.199243 -101.522973 
L 194.96824 -102.347091 
L 196.737238 -103.079494 
L 198.506235 -103.958922 
L 200.275232 -104.844918 
L 202.04423 -105.700697 
L 203.813227 -106.377015 
L 205.582225 -107.279453 
L 207.351222 -108.169075 
L 209.120219 -109.035731 
L 210.889217 -109.855914 
L 212.658214 -110.73113 
L 214.427212 -111.533569 
L 216.196209 -112.397985 
L 217.965206 -113.245667 
L 219.734204 -114.085665 
L 221.503201 -115.144676 
L 223.272199 -116.146399 
L 225.041196 -116.960633 
L 226.810193 -117.931853 
L 228.579191 -118.84465 
L 230.348188 -119.722302 
L 232.117186 -120.641533 
L 233.886183 -121.6043 
L 235.65518 -122.653285 
L 237.424178 -123.613921 
L 239.193175 -124.505392 
L 240.962173 -125.618788 
L 242.73117 -126.526748 
L 244.500167 -127.448417 
L 246.269165 -128.401215 
L 248.038162 -129.271575 
L 249.80716 -126.877837 
L 249.80716 -131.470681 
L 249.80716 -131.470681 
L 248.038162 -134.325639 
L 246.269165 -133.335354 
L 244.500167 -132.454985 
L 242.73117 -131.375877 
L 240.962173 -130.365034 
L 239.193175 -129.499218 
L 237.424178 -128.413783 
L 235.65518 -127.313081 
L 233.886183 -126.4227 
L 232.117186 -125.457032 
L 230.348188 -124.3882 
L 228.579191 -123.463948 
L 226.810193 -122.613101 
L 225.041196 -121.551666 
L 223.272199 -120.750223 
L 221.503201 -119.67576 
L 219.734204 -118.798017 
L 217.965206 -118.041027 
L 216.196209 -116.992671 
L 214.427212 -116.037173 
L 212.658214 -115.193005 
L 210.889217 -114.234157 
L 209.120219 -113.2914 
L 207.351222 -112.51512 
L 205.582225 -111.510281 
L 203.813227 -110.652711 
L 202.04423 -109.734914 
L 200.275232 -108.984109 
L 198.506235 -108.184565 
L 196.737238 -107.203584 
L 194.96824 -106.436702 
L 193.199243 -105.482896 
L 191.430245 -104.55302 
L 189.661248 -103.926358 
L 187.892251 -103.062302 
L 186.123253 -102.173954 
L 184.354256 -101.330106 
L 182.585258 -100.550324 
L 180.816261 -99.751032 
L 179.047264 -98.821361 
L 177.278266 -97.993688 
L 175.509269 -97.308554 
L 173.740271 -96.573505 
L 171.971274 -95.548183 
L 170.202277 -94.922929 
L 168.433279 -94.056092 
L 166.664282 -93.337241 
L 164.895284 -92.695716 
L 163.126287 -91.719224 
L 161.35729 -91.053429 
L 159.588292 -90.319088 
L 157.819295 -89.519433 
L 156.050297 -88.794423 
L 154.2813 -87.954338 
L 152.512303 -87.474907 
L 150.743305 -86.680742 
L 148.974308 -85.905282 
L 147.20531 -85.20834 
L 145.436313 -84.476705 
L 143.667316 -83.751315 
L 141.898318 -82.965814 
L 140.129321 -82.188618 
L 138.360323 -81.523144 
L 136.591326 -80.761634 
L 134.822329 -79.930479 
L 133.053331 -79.399905 
L 131.284334 -78.640925 
L 129.515336 -77.857649 
L 127.746339 -77.304595 
L 125.977342 -76.474199 
L 124.208344 -75.816804 
L 122.439347 -75.031054 
L 120.670349 -74.43814 
L 118.901352 -73.696268 
L 117.132355 -73.144077 
L 115.363357 -72.394626 
L 113.59436 -71.59234 
L 111.825362 -70.963807 
L 110.056365 -70.38955 
L 108.287368 -69.7102 
L 106.51837 -68.999073 
L 104.749373 -68.270427 
L 102.980375 -67.699317 
L 101.211378 -66.981828 
L 99.442381 -66.223861 
L 97.673383 -65.630801 
L 95.904386 -65.045959 
L 94.135388 -64.516262 
L 92.366391 -63.751067 
L 90.597394 -63.019714 
L 88.828396 -62.474771 
L 87.059399 -61.847249 
L 85.290401 -61.047692 
L 83.521404 -60.7198 
L 81.752407 -60.132285 
L 79.983409 -59.434537 
L 78.214412 -57.384274 
L 76.445414 -58.886956 
L 74.676417 -58.468754 
z
" style="stroke: #000000; stroke-opacity: 0.3"/>
    </defs>
    <g clip-path="url(#p35e50b95d3)">
     <use xlink:href="#mad99f8f969" x="0" y="345.6" style="fill-opacity: 0.3; stroke: #000000; stroke-opacity: 0.3"/>
    </g>
   </g>
   <g id="FillBetweenPolyCollection_2">
    <defs>
     <path id="m9973d91781" d="M 74.676529 -59.423814 
L 74.676529 -54.54 
L 76.445227 -64.792152 
L 78.213924 -56.797051 
L 79.982622 -55.832319 
L 81.751319 -56.933746 
L 83.520017 -58.350044 
L 85.288714 -59.183037 
L 87.057412 -60.067625 
L 88.826109 -61.011191 
L 90.594807 -61.632862 
L 92.363504 -61.661634 
L 94.132202 -58.389474 
L 95.900899 -56.083047 
L 97.669597 -57.517158 
L 99.438294 -59.492437 
L 101.206992 -60.070546 
L 102.975689 -60.329447 
L 104.744387 -60.862725 
L 106.513084 -61.767882 
L 108.281782 -62.439662 
L 110.050479 -62.938553 
L 111.819177 -63.936931 
L 113.587874 -64.927294 
L 115.356572 -65.504702 
L 117.125269 -66.179558 
L 118.893967 -66.933505 
L 120.662665 -67.522229 
L 122.431362 -68.155831 
L 124.20006 -69.043218 
L 125.968757 -69.947432 
L 127.737455 -70.643304 
L 129.506152 -71.229569 
L 131.27485 -71.810956 
L 133.043547 -72.532994 
L 134.812245 -73.297425 
L 136.580942 -74.203482 
L 138.34964 -75.116216 
L 140.118337 -75.763857 
L 141.887035 -76.21937 
L 143.655732 -76.708247 
L 145.42443 -77.450635 
L 147.193127 -78.28292 
L 148.961825 -79.045874 
L 150.730522 -79.707399 
L 152.49922 -80.304474 
L 154.267917 -80.959837 
L 156.036615 -81.703103 
L 157.805312 -82.542929 
L 159.57401 -83.440905 
L 161.342707 -84.338903 
L 163.111405 -84.94971 
L 164.880102 -85.48974 
L 166.6488 -86.063163 
L 168.417497 -86.746278 
L 170.186195 -87.557029 
L 171.954892 -88.417455 
L 173.72359 -89.143865 
L 175.492287 -89.792946 
L 177.260985 -90.472763 
L 179.029682 -91.154296 
L 180.79838 -91.980914 
L 182.567078 -92.945604 
L 184.335775 -94.015719 
L 186.104473 -94.969214 
L 187.87317 -95.72022 
L 189.641868 -96.403922 
L 191.410565 -97.303368 
L 193.179263 -98.305197 
L 194.94796 -99.451933 
L 196.716658 -100.457295 
L 198.485355 -101.210713 
L 200.254053 -101.838813 
L 202.02275 -102.508894 
L 203.791448 -103.381033 
L 205.560145 -104.466792 
L 207.328843 -105.52693 
L 209.09754 -106.383074 
L 210.866238 -106.97858 
L 212.634935 -107.550011 
L 214.403633 -108.456376 
L 216.17233 -109.622151 
L 217.941028 -110.730446 
L 219.709725 -111.678521 
L 221.478423 -112.378566 
L 223.24712 -113.053233 
L 225.015818 -113.907265 
L 226.784515 -114.947171 
L 228.553213 -116.123227 
L 230.32191 -117.245517 
L 232.090608 -118.057129 
L 233.859305 -118.630742 
L 235.628003 -119.167844 
L 237.3967 -119.913327 
L 239.165398 -120.793452 
L 240.934095 -121.560116 
L 242.702793 -122.269651 
L 244.47149 -123.127866 
L 246.240188 -124.298057 
L 248.008886 -126.024917 
L 249.777583 -124.991922 
L 249.777583 -129.681536 
L 249.777583 -129.681536 
L 248.008886 -132.164462 
L 246.240188 -128.843978 
L 244.47149 -127.538446 
L 242.702793 -126.540576 
L 240.934095 -125.843531 
L 239.165398 -125.389406 
L 237.3967 -124.93292 
L 235.628003 -124.590432 
L 233.859305 -124.430759 
L 232.090608 -124.132209 
L 230.32191 -123.493646 
L 228.553213 -122.428753 
L 226.784515 -121.23842 
L 225.015818 -120.160216 
L 223.24712 -119.309935 
L 221.478423 -118.507873 
L 219.709725 -117.74961 
L 217.941028 -116.798332 
L 216.17233 -115.69824 
L 214.403633 -114.5285 
L 212.634935 -113.609408 
L 210.866238 -112.924965 
L 209.09754 -112.227114 
L 207.328843 -111.369916 
L 205.560145 -110.253541 
L 203.791448 -109.161953 
L 202.02275 -108.244772 
L 200.254053 -107.504991 
L 198.485355 -106.877009 
L 196.716658 -106.103736 
L 194.94796 -105.099252 
L 193.179263 -104.051228 
L 191.410565 -103.131464 
L 189.641868 -102.246932 
L 187.87317 -101.508237 
L 186.104473 -100.742751 
L 184.335775 -99.79552 
L 182.567078 -98.729196 
L 180.79838 -97.700525 
L 179.029682 -96.894801 
L 177.260985 -96.130313 
L 175.492287 -95.384779 
L 173.72359 -94.732472 
L 171.954892 -94.017076 
L 170.186195 -93.174595 
L 168.417497 -92.36302 
L 166.6488 -91.699423 
L 164.880102 -91.091887 
L 163.111405 -90.453086 
L 161.342707 -89.792479 
L 159.57401 -88.979834 
L 157.805312 -88.094944 
L 156.036615 -87.269009 
L 154.267917 -86.492342 
L 152.49922 -85.802979 
L 150.730522 -85.146783 
L 148.961825 -84.411574 
L 147.193127 -83.620587 
L 145.42443 -82.879535 
L 143.655732 -82.170372 
L 141.887035 -81.669076 
L 140.118337 -81.230483 
L 138.34964 -80.509758 
L 136.580942 -79.562748 
L 134.812245 -78.632744 
L 133.043547 -77.906825 
L 131.27485 -77.207076 
L 129.506152 -76.557183 
L 127.737455 -75.918182 
L 125.968757 -75.112388 
L 124.20006 -74.102845 
L 122.431362 -73.20315 
L 120.662665 -72.674547 
L 118.893967 -72.068645 
L 117.125269 -71.258195 
L 115.356572 -70.509047 
L 113.587874 -69.849572 
L 111.819177 -68.676053 
L 110.050479 -67.477104 
L 108.281782 -66.73428 
L 106.513084 -65.840489 
L 104.744387 -64.836505 
L 102.975689 -64.243571 
L 101.206992 -63.981658 
L 99.438294 -62.723696 
L 97.669597 -59.642236 
L 95.900899 -58.310255 
L 94.132202 -61.825107 
L 92.363504 -63.615458 
L 90.594807 -62.486871 
L 88.826109 -61.587369 
L 87.057412 -61.379612 
L 85.288714 -61.013254 
L 83.520017 -60.815887 
L 81.751319 -60.449128 
L 79.982622 -59.734999 
L 78.213924 -60.694793 
L 76.445227 -70.125131 
L 74.676529 -59.423814 
z
" style="stroke: #ff0000; stroke-opacity: 0.3"/>
    </defs>
    <g clip-path="url(#p35e50b95d3)">
     <use xlink:href="#m9973d91781" x="0" y="345.6" style="fill: #ff0000; fill-opacity: 0.3; stroke: #ff0000; stroke-opacity: 0.3"/>
    </g>
   </g>
   <g id="FillBetweenPolyCollection_3">
    <defs>
     <path id="mafd2188df1" d="M 74.676233 -60.617091 
L 74.676233 -60.200781 
L 78.212817 -61.551143 
L 81.749402 -62.087934 
L 85.285986 -61.272996 
L 88.82257 -61.137503 
L 92.359155 -62.758308 
L 95.895739 -63.478889 
L 99.432323 -63.188768 
L 102.968908 -60.806746 
L 106.505492 -57.404718 
L 110.042076 -57.327092 
L 113.578661 -59.816982 
L 117.115245 -59.204754 
L 120.651829 -60.662027 
L 124.188414 -62.315943 
L 127.724998 -64.34435 
L 131.261582 -66.261983 
L 134.798167 -68.119664 
L 138.334751 -69.808283 
L 141.871336 -71.155336 
L 145.40792 -72.494153 
L 148.944504 -74.095255 
L 152.481089 -75.589584 
L 156.017673 -76.976415 
L 159.554257 -78.16578 
L 163.090842 -79.230822 
L 166.627426 -80.335199 
L 170.16401 -81.240665 
L 173.700595 -82.466854 
L 177.237179 -83.979581 
L 180.773763 -85.60516 
L 184.310348 -86.981903 
L 187.846932 -88.650629 
L 191.383516 -90.412622 
L 194.920101 -92.152803 
L 198.456685 -94.202462 
L 201.993269 -96.306604 
L 205.529854 -98.562328 
L 209.066438 -100.679297 
L 212.603022 -102.46687 
L 216.139607 -104.117557 
L 219.676191 -105.922134 
L 223.212775 -107.678514 
L 226.74936 -109.344485 
L 230.285944 -110.871761 
L 233.822529 -112.284524 
L 237.359113 -113.707823 
L 240.895697 -115.377017 
L 244.432282 -117.18447 
L 247.968866 -119.052429 
L 251.50545 -121.144353 
L 255.042035 -123.177737 
L 258.578619 -125.255637 
L 262.115203 -127.495343 
L 265.651788 -130.068495 
L 269.188372 -132.72782 
L 272.724956 -135.32213 
L 276.261541 -137.755599 
L 279.798125 -140.179574 
L 283.334709 -142.682676 
L 286.871294 -144.938507 
L 290.407878 -147.225929 
L 293.944462 -149.60165 
L 297.481047 -152.104784 
L 301.017631 -154.390013 
L 304.554215 -156.557928 
L 308.0908 -158.899675 
L 311.627384 -161.318678 
L 315.163968 -163.7756 
L 318.700553 -166.477922 
L 322.237137 -169.424836 
L 325.773722 -172.468672 
L 329.310306 -175.548059 
L 332.84689 -178.570336 
L 336.383475 -181.852806 
L 339.920059 -185.605924 
L 343.456643 -189.236537 
L 346.993228 -192.663966 
L 350.529812 -195.960372 
L 354.066396 -199.296987 
L 357.602981 -202.94442 
L 361.139565 -206.727827 
L 364.676149 -210.488577 
L 368.212734 -214.340732 
L 371.749318 -217.844931 
L 375.285902 -221.18636 
L 378.822487 -224.941425 
L 382.359071 -228.793616 
L 385.895655 -232.330587 
L 389.43224 -237.3571 
L 392.968824 -240.511664 
L 396.505408 -243.268183 
L 400.041993 -246.004867 
L 403.578577 -248.931872 
L 407.115161 -252.16666 
L 410.651746 -256.939478 
L 414.18833 -263.486327 
L 417.724915 -271.832239 
L 421.261499 -283.990347 
L 424.798083 -264.956022 
L 424.798083 -270.137756 
L 424.798083 -270.137756 
L 421.261499 -291.258873 
L 417.724915 -279.072499 
L 414.18833 -270.723487 
L 410.651746 -264.208496 
L 407.115161 -259.228708 
L 403.578577 -255.817154 
L 400.041993 -252.848186 
L 396.505408 -250.036275 
L 392.968824 -247.273019 
L 389.43224 -243.88397 
L 385.895655 -239.00175 
L 382.359071 -235.708266 
L 378.822487 -231.410782 
L 375.285902 -227.577888 
L 371.749318 -224.297407 
L 368.212734 -220.610411 
L 364.676149 -216.804995 
L 361.139565 -212.902905 
L 357.602981 -208.734666 
L 354.066396 -205.062206 
L 350.529812 -201.511568 
L 346.993228 -198.22168 
L 343.456643 -194.836453 
L 339.920059 -191.0891 
L 336.383475 -187.282648 
L 332.84689 -183.984105 
L 329.310306 -180.807107 
L 325.773722 -177.771597 
L 322.237137 -174.933344 
L 318.700553 -171.880838 
L 315.163968 -169.069564 
L 311.627384 -166.580516 
L 308.0908 -164.079941 
L 304.554215 -161.700695 
L 301.017631 -159.484982 
L 297.481047 -157.160243 
L 293.944462 -154.582528 
L 290.407878 -152.124082 
L 286.871294 -149.719057 
L 283.334709 -147.372766 
L 279.798125 -144.946736 
L 276.261541 -142.330179 
L 272.724956 -139.80573 
L 269.188372 -137.19402 
L 265.651788 -134.401912 
L 262.115203 -131.735011 
L 258.578619 -129.524786 
L 255.042035 -127.47367 
L 251.50545 -125.333044 
L 247.968866 -123.181829 
L 244.432282 -121.299108 
L 240.895697 -119.598281 
L 237.359113 -117.959609 
L 233.822529 -116.470311 
L 230.285944 -115.102454 
L 226.74936 -113.613741 
L 223.212775 -111.867938 
L 219.676191 -110.093617 
L 216.139607 -108.330469 
L 212.603022 -106.585453 
L 209.066438 -104.647268 
L 205.529854 -102.436828 
L 201.993269 -100.191007 
L 198.456685 -97.989903 
L 194.920101 -95.998082 
L 191.383516 -94.237969 
L 187.846932 -92.508728 
L 184.310348 -90.819072 
L 180.773763 -89.36942 
L 177.237179 -87.767989 
L 173.700595 -86.345589 
L 170.16401 -85.144665 
L 166.627426 -84.161553 
L 163.090842 -83.056368 
L 159.554257 -81.876694 
L 156.017673 -80.66117 
L 152.481089 -79.251321 
L 148.944504 -77.755533 
L 145.40792 -76.110182 
L 141.871336 -74.807613 
L 138.334751 -73.310854 
L 134.798167 -71.515842 
L 131.261582 -69.608332 
L 127.724998 -67.540785 
L 124.188414 -65.268998 
L 120.651829 -63.251829 
L 117.115245 -61.17426 
L 113.578661 -61.158789 
L 110.042076 -58.155523 
L 106.505492 -58.168944 
L 102.968908 -61.581661 
L 99.432323 -63.3652 
L 95.895739 -63.571342 
L 92.359155 -63.351765 
L 88.82257 -61.808435 
L 85.285986 -61.765415 
L 81.749402 -62.443979 
L 78.212817 -61.709532 
L 74.676233 -60.617091 
z
" style="stroke: #0000ff; stroke-opacity: 0.3"/>
    </defs>
    <g clip-path="url(#p35e50b95d3)">
     <use xlink:href="#mafd2188df1" x="0" y="345.6" style="fill: #0000ff; fill-opacity: 0.3; stroke: #0000ff; stroke-opacity: 0.3"/>
    </g>
   </g>
   <g id="FillBetweenPolyCollection_4">
    <defs>
     <path id="mb178b5da3d" d="M 74.676099 -60.642985 
L 74.676099 -60.423605 
L 78.212669 -61.562251 
L 81.749239 -63.175513 
L 85.285809 -62.582018 
L 88.822379 -61.601659 
L 92.358948 -60.44868 
L 95.895518 -59.476902 
L 99.432088 -59.074479 
L 102.968658 -59.450222 
L 106.505228 -60.625173 
L 110.041798 -62.569321 
L 113.578368 -64.53367 
L 117.114937 -66.283695 
L 120.651507 -67.838771 
L 124.188077 -68.905304 
L 127.724647 -69.640341 
L 131.261217 -70.071114 
L 134.797787 -70.282091 
L 138.334356 -70.270582 
L 141.870926 -70.355415 
L 145.407496 -70.649291 
L 148.944066 -71.216574 
L 152.480636 -71.999771 
L 156.017206 -72.82381 
L 159.553776 -73.779929 
L 163.090345 -75.236773 
L 166.626915 -77.284381 
L 170.163485 -79.811805 
L 173.700055 -82.667652 
L 177.236625 -85.466925 
L 180.773195 -87.761986 
L 184.309765 -89.97504 
L 187.846334 -92.078334 
L 191.382904 -94.021273 
L 194.919474 -95.854699 
L 198.456044 -97.691812 
L 201.992614 -99.453073 
L 205.529184 -101.121536 
L 209.065753 -102.504578 
L 212.602323 -103.565073 
L 216.138893 -104.390678 
L 219.675463 -105.240343 
L 223.212033 -106.283841 
L 226.748603 -107.615987 
L 230.285173 -109.338113 
L 233.821742 -111.30881 
L 237.358312 -113.417863 
L 240.894882 -115.577271 
L 244.431452 -117.898383 
L 247.968022 -120.309024 
L 251.504592 -122.827778 
L 255.041161 -125.387468 
L 258.577731 -127.951558 
L 262.114301 -130.397205 
L 265.650871 -132.714396 
L 269.187441 -135.04055 
L 272.724011 -137.435089 
L 276.260581 -139.748621 
L 279.79715 -141.801938 
L 283.33372 -143.61759 
L 286.87029 -145.231574 
L 290.40686 -146.955957 
L 293.94343 -149.009752 
L 297.48 -151.462383 
L 301.01657 -153.117394 
L 304.553139 -155.197531 
L 308.089709 -158.538587 
L 311.626279 -162.200027 
L 315.162849 -165.897127 
L 318.699419 -169.215687 
L 322.235989 -172.618323 
L 325.772558 -175.859552 
L 329.309128 -178.931716 
L 332.845698 -181.808549 
L 336.382268 -184.599245 
L 339.918838 -187.1832 
L 343.455408 -189.457352 
L 346.991978 -191.207704 
L 350.528547 -192.552046 
L 354.065117 -193.687534 
L 357.601687 -194.804658 
L 361.138257 -196.418977 
L 364.674827 -198.031972 
L 368.211397 -199.793055 
L 371.747967 -201.769597 
L 375.284536 -204.10758 
L 378.821106 -206.691944 
L 382.357676 -209.316216 
L 385.894246 -212.206181 
L 389.430816 -215.53297 
L 392.967386 -219.316172 
L 396.503955 -223.615287 
L 400.040525 -228.332202 
L 403.577095 -234.086461 
L 407.113665 -241.925985 
L 410.650235 -252.539474 
L 414.186805 -264.779124 
L 417.723375 -280.585367 
L 421.259944 -302.212575 
L 424.796514 -259.432263 
L 424.796514 -263.399718 
L 424.796514 -263.399718 
L 421.259944 -306.14 
L 417.723375 -284.11011 
L 414.186805 -268.219975 
L 410.650235 -256.073284 
L 407.113665 -245.554375 
L 403.577095 -237.727802 
L 400.040525 -231.856359 
L 396.503955 -227.090367 
L 392.967386 -222.734173 
L 389.430816 -218.929561 
L 385.894246 -215.531173 
L 382.357676 -212.58013 
L 378.821106 -209.936538 
L 375.284536 -207.341624 
L 371.747967 -205.021789 
L 368.211397 -203.112608 
L 364.674827 -201.456043 
L 361.138257 -199.951785 
L 357.601687 -198.43048 
L 354.065117 -197.161043 
L 350.528547 -196.006344 
L 346.991978 -194.603088 
L 343.455408 -192.75907 
L 339.918838 -190.368799 
L 336.382268 -187.651151 
L 332.845698 -184.726689 
L 329.309128 -181.715352 
L 325.772558 -178.552135 
L 322.235989 -175.272261 
L 318.699419 -171.851589 
L 315.162849 -168.512387 
L 311.626279 -164.815185 
L 308.089709 -160.997491 
L 304.553139 -157.568449 
L 301.01657 -155.565732 
L 297.48 -153.864051 
L 293.94343 -151.444045 
L 290.40686 -149.355512 
L 286.87029 -147.589633 
L 283.33372 -145.922809 
L 279.79715 -144.046263 
L 276.260581 -141.921391 
L 272.724011 -139.565028 
L 269.187441 -137.143761 
L 265.650871 -134.780791 
L 262.114301 -132.425268 
L 258.577731 -129.963297 
L 255.041161 -127.397446 
L 251.504592 -124.806134 
L 247.968022 -122.239475 
L 244.431452 -119.787347 
L 240.894882 -117.437439 
L 237.358312 -115.271765 
L 233.821742 -113.196321 
L 230.285173 -111.219361 
L 226.748603 -109.477712 
L 223.212033 -108.199246 
L 219.675463 -107.228628 
L 216.138893 -106.387491 
L 212.602323 -105.496546 
L 209.065753 -104.336908 
L 205.529184 -102.933016 
L 201.992614 -101.335951 
L 198.456044 -99.585818 
L 194.919474 -97.717095 
L 191.382904 -95.843129 
L 187.846334 -93.879203 
L 184.309765 -91.745079 
L 180.773195 -89.48306 
L 177.236625 -87.155831 
L 173.700055 -84.400357 
L 170.163485 -81.559014 
L 166.626915 -78.996492 
L 163.090345 -76.83413 
L 159.553776 -75.246044 
L 156.017206 -74.264273 
L 152.480636 -73.479938 
L 148.944066 -72.723421 
L 145.407496 -72.099234 
L 141.870926 -71.750046 
L 138.334356 -71.626974 
L 134.797787 -71.706544 
L 131.261217 -71.764167 
L 127.724647 -71.676054 
L 124.188077 -71.283806 
L 120.651507 -70.433171 
L 117.114937 -68.929724 
L 113.578368 -67.162334 
L 110.041798 -65.315079 
L 106.505228 -62.95135 
L 102.968658 -60.842497 
L 99.432088 -59.646841 
L 95.895518 -59.778955 
L 92.358948 -60.657166 
L 88.822379 -61.780226 
L 85.285809 -62.705597 
L 81.749239 -63.86781 
L 78.212669 -62.735295 
L 74.676099 -60.642985 
z
" style="stroke: #008000; stroke-opacity: 0.3"/>
    </defs>
    <g clip-path="url(#p35e50b95d3)">
     <use xlink:href="#mb178b5da3d" x="0" y="345.6" style="fill: #008000; fill-opacity: 0.3; stroke: #008000; stroke-opacity: 0.3"/>
    </g>
   </g>
   <g id="matplotlib.axis_1">
    <g id="xtick_1">
     <g id="line2d_1">
      <path d="M 74.676098 303.64 
L 74.676098 26.88 
" clip-path="url(#p35e50b95d3)" style="fill: none; stroke: #b0b0b0; stroke-opacity: 0.3; stroke-width: 0.8; stroke-linecap: square"/>
     </g>
     <g id="line2d_2">
      <defs>
       <path id="mc594dd28d4" d="M 0 0 
L 0 3.5 
" style="stroke: #000000; stroke-width: 0.8"/>
      </defs>
      <g>
       <use xlink:href="#mc594dd28d4" x="74.676098" y="303.64" style="stroke: #000000; stroke-width: 0.8"/>
      </g>
     </g>
     <g id="text_1">
      <!-- 0.00 -->
      <g transform="translate(63.543285 318.238437) scale(0.1 -0.1)">
       <defs>
        <path id="DejaVuSans-30" d="M 2034 4250 
Q 1547 4250 1301 3770 
Q 1056 3291 1056 2328 
Q 1056 1369 1301 889 
Q 1547 409 2034 409 
Q 2525 409 2770 889 
Q 3016 1369 3016 2328 
Q 3016 3291 2770 3770 
Q 2525 4250 2034 4250 
z
M 2034 4750 
Q 2819 4750 3233 4129 
Q 3647 3509 3647 2328 
Q 3647 1150 3233 529 
Q 2819 -91 2034 -91 
Q 1250 -91 836 529 
Q 422 1150 422 2328 
Q 422 3509 836 4129 
Q 1250 4750 2034 4750 
z
" transform="scale(0.015625)"/>
        <path id="DejaVuSans-2e" d="M 684 794 
L 1344 794 
L 1344 0 
L 684 0 
L 684 794 
z
" transform="scale(0.015625)"/>
       </defs>
       <use xlink:href="#DejaVuSans-30"/>
       <use xlink:href="#DejaVuSans-2e" transform="translate(63.623047 0)"/>
       <use xlink:href="#DejaVuSans-30" transform="translate(95.410156 0)"/>
       <use xlink:href="#DejaVuSans-30" transform="translate(159.033203 0)"/>
      </g>
     </g>
    </g>
    <g id="xtick_2">
     <g id="line2d_3">
      <path d="M 120.180816 303.64 
L 120.180816 26.88 
" clip-path="url(#p35e50b95d3)" style="fill: none; stroke: #b0b0b0; stroke-opacity: 0.3; stroke-width: 0.8; stroke-linecap: square"/>
     </g>
     <g id="line2d_4">
      <g>
       <use xlink:href="#mc594dd28d4" x="120.180816" y="303.64" style="stroke: #000000; stroke-width: 0.8"/>
      </g>
     </g>
     <g id="text_2">
      <!-- 0.05 -->
      <g transform="translate(109.048004 318.238437) scale(0.1 -0.1)">
       <defs>
        <path id="DejaVuSans-35" d="M 691 4666 
L 3169 4666 
L 3169 4134 
L 1269 4134 
L 1269 2991 
Q 1406 3038 1543 3061 
Q 1681 3084 1819 3084 
Q 2600 3084 3056 2656 
Q 3513 2228 3513 1497 
Q 3513 744 3044 326 
Q 2575 -91 1722 -91 
Q 1428 -91 1123 -41 
Q 819 9 494 109 
L 494 744 
Q 775 591 1075 516 
Q 1375 441 1709 441 
Q 2250 441 2565 725 
Q 2881 1009 2881 1497 
Q 2881 1984 2565 2268 
Q 2250 2553 1709 2553 
Q 1456 2553 1204 2497 
Q 953 2441 691 2322 
L 691 4666 
z
" transform="scale(0.015625)"/>
       </defs>
       <use xlink:href="#DejaVuSans-30"/>
       <use xlink:href="#DejaVuSans-2e" transform="translate(63.623047 0)"/>
       <use xlink:href="#DejaVuSans-30" transform="translate(95.410156 0)"/>
       <use xlink:href="#DejaVuSans-35" transform="translate(159.033203 0)"/>
      </g>
     </g>
    </g>
    <g id="xtick_3">
     <g id="line2d_5">
      <path d="M 165.685534 303.64 
L 165.685534 26.88 
" clip-path="url(#p35e50b95d3)" style="fill: none; stroke: #b0b0b0; stroke-opacity: 0.3; stroke-width: 0.8; stroke-linecap: square"/>
     </g>
     <g id="line2d_6">
      <g>
       <use xlink:href="#mc594dd28d4" x="165.685534" y="303.64" style="stroke: #000000; stroke-width: 0.8"/>
      </g>
     </g>
     <g id="text_3">
      <!-- 0.10 -->
      <g transform="translate(154.552722 318.238437) scale(0.1 -0.1)">
       <defs>
        <path id="DejaVuSans-31" d="M 794 531 
L 1825 531 
L 1825 4091 
L 703 3866 
L 703 4441 
L 1819 4666 
L 2450 4666 
L 2450 531 
L 3481 531 
L 3481 0 
L 794 0 
L 794 531 
z
" transform="scale(0.015625)"/>
       </defs>
       <use xlink:href="#DejaVuSans-30"/>
       <use xlink:href="#DejaVuSans-2e" transform="translate(63.623047 0)"/>
       <use xlink:href="#DejaVuSans-31" transform="translate(95.410156 0)"/>
       <use xlink:href="#DejaVuSans-30" transform="translate(159.033203 0)"/>
      </g>
     </g>
    </g>
    <g id="xtick_4">
     <g id="line2d_7">
      <path d="M 211.190252 303.64 
L 211.190252 26.88 
" clip-path="url(#p35e50b95d3)" style="fill: none; stroke: #b0b0b0; stroke-opacity: 0.3; stroke-width: 0.8; stroke-linecap: square"/>
     </g>
     <g id="line2d_8">
      <g>
       <use xlink:href="#mc594dd28d4" x="211.190252" y="303.64" style="stroke: #000000; stroke-width: 0.8"/>
      </g>
     </g>
     <g id="text_4">
      <!-- 0.15 -->
      <g transform="translate(200.05744 318.238437) scale(0.1 -0.1)">
       <use xlink:href="#DejaVuSans-30"/>
       <use xlink:href="#DejaVuSans-2e" transform="translate(63.623047 0)"/>
       <use xlink:href="#DejaVuSans-31" transform="translate(95.410156 0)"/>
       <use xlink:href="#DejaVuSans-35" transform="translate(159.033203 0)"/>
      </g>
     </g>
    </g>
    <g id="xtick_5">
     <g id="line2d_9">
      <path d="M 256.694971 303.64 
L 256.694971 26.88 
" clip-path="url(#p35e50b95d3)" style="fill: none; stroke: #b0b0b0; stroke-opacity: 0.3; stroke-width: 0.8; stroke-linecap: square"/>
     </g>
     <g id="line2d_10">
      <g>
       <use xlink:href="#mc594dd28d4" x="256.694971" y="303.64" style="stroke: #000000; stroke-width: 0.8"/>
      </g>
     </g>
     <g id="text_5">
      <!-- 0.20 -->
      <g transform="translate(245.562158 318.238437) scale(0.1 -0.1)">
       <defs>
        <path id="DejaVuSans-32" d="M 1228 531 
L 3431 531 
L 3431 0 
L 469 0 
L 469 531 
Q 828 903 1448 1529 
Q 2069 2156 2228 2338 
Q 2531 2678 2651 2914 
Q 2772 3150 2772 3378 
Q 2772 3750 2511 3984 
Q 2250 4219 1831 4219 
Q 1534 4219 1204 4116 
Q 875 4013 500 3803 
L 500 4441 
Q 881 4594 1212 4672 
Q 1544 4750 1819 4750 
Q 2544 4750 2975 4387 
Q 3406 4025 3406 3419 
Q 3406 3131 3298 2873 
Q 3191 2616 2906 2266 
Q 2828 2175 2409 1742 
Q 1991 1309 1228 531 
z
" transform="scale(0.015625)"/>
       </defs>
       <use xlink:href="#DejaVuSans-30"/>
       <use xlink:href="#DejaVuSans-2e" transform="translate(63.623047 0)"/>
       <use xlink:href="#DejaVuSans-32" transform="translate(95.410156 0)"/>
       <use xlink:href="#DejaVuSans-30" transform="translate(159.033203 0)"/>
      </g>
     </g>
    </g>
    <g id="xtick_6">
     <g id="line2d_11">
      <path d="M 302.199689 303.64 
L 302.199689 26.88 
" clip-path="url(#p35e50b95d3)" style="fill: none; stroke: #b0b0b0; stroke-opacity: 0.3; stroke-width: 0.8; stroke-linecap: square"/>
     </g>
     <g id="line2d_12">
      <g>
       <use xlink:href="#mc594dd28d4" x="302.199689" y="303.64" style="stroke: #000000; stroke-width: 0.8"/>
      </g>
     </g>
     <g id="text_6">
      <!-- 0.25 -->
      <g transform="translate(291.066876 318.238437) scale(0.1 -0.1)">
       <use xlink:href="#DejaVuSans-30"/>
       <use xlink:href="#DejaVuSans-2e" transform="translate(63.623047 0)"/>
       <use xlink:href="#DejaVuSans-32" transform="translate(95.410156 0)"/>
       <use xlink:href="#DejaVuSans-35" transform="translate(159.033203 0)"/>
      </g>
     </g>
    </g>
    <g id="xtick_7">
     <g id="line2d_13">
      <path d="M 347.704407 303.64 
L 347.704407 26.88 
" clip-path="url(#p35e50b95d3)" style="fill: none; stroke: #b0b0b0; stroke-opacity: 0.3; stroke-width: 0.8; stroke-linecap: square"/>
     </g>
     <g id="line2d_14">
      <g>
       <use xlink:href="#mc594dd28d4" x="347.704407" y="303.64" style="stroke: #000000; stroke-width: 0.8"/>
      </g>
     </g>
     <g id="text_7">
      <!-- 0.30 -->
      <g transform="translate(336.571594 318.238437) scale(0.1 -0.1)">
       <defs>
        <path id="DejaVuSans-33" d="M 2597 2516 
Q 3050 2419 3304 2112 
Q 3559 1806 3559 1356 
Q 3559 666 3084 287 
Q 2609 -91 1734 -91 
Q 1441 -91 1130 -33 
Q 819 25 488 141 
L 488 750 
Q 750 597 1062 519 
Q 1375 441 1716 441 
Q 2309 441 2620 675 
Q 2931 909 2931 1356 
Q 2931 1769 2642 2001 
Q 2353 2234 1838 2234 
L 1294 2234 
L 1294 2753 
L 1863 2753 
Q 2328 2753 2575 2939 
Q 2822 3125 2822 3475 
Q 2822 3834 2567 4026 
Q 2313 4219 1838 4219 
Q 1578 4219 1281 4162 
Q 984 4106 628 3988 
L 628 4550 
Q 988 4650 1302 4700 
Q 1616 4750 1894 4750 
Q 2613 4750 3031 4423 
Q 3450 4097 3450 3541 
Q 3450 3153 3228 2886 
Q 3006 2619 2597 2516 
z
" transform="scale(0.015625)"/>
       </defs>
       <use xlink:href="#DejaVuSans-30"/>
       <use xlink:href="#DejaVuSans-2e" transform="translate(63.623047 0)"/>
       <use xlink:href="#DejaVuSans-33" transform="translate(95.410156 0)"/>
       <use xlink:href="#DejaVuSans-30" transform="translate(159.033203 0)"/>
      </g>
     </g>
    </g>
    <g id="xtick_8">
     <g id="line2d_15">
      <path d="M 393.209125 303.64 
L 393.209125 26.88 
" clip-path="url(#p35e50b95d3)" style="fill: none; stroke: #b0b0b0; stroke-opacity: 0.3; stroke-width: 0.8; stroke-linecap: square"/>
     </g>
     <g id="line2d_16">
      <g>
       <use xlink:href="#mc594dd28d4" x="393.209125" y="303.64" style="stroke: #000000; stroke-width: 0.8"/>
      </g>
     </g>
     <g id="text_8">
      <!-- 0.35 -->
      <g transform="translate(382.076313 318.238437) scale(0.1 -0.1)">
       <use xlink:href="#DejaVuSans-30"/>
       <use xlink:href="#DejaVuSans-2e" transform="translate(63.623047 0)"/>
       <use xlink:href="#DejaVuSans-33" transform="translate(95.410156 0)"/>
       <use xlink:href="#DejaVuSans-35" transform="translate(159.033203 0)"/>
      </g>
     </g>
    </g>
    <g id="xtick_9">
     <g id="line2d_17">
      <path d="M 438.713843 303.64 
L 438.713843 26.88 
" clip-path="url(#p35e50b95d3)" style="fill: none; stroke: #b0b0b0; stroke-opacity: 0.3; stroke-width: 0.8; stroke-linecap: square"/>
     </g>
     <g id="line2d_18">
      <g>
       <use xlink:href="#mc594dd28d4" x="438.713843" y="303.64" style="stroke: #000000; stroke-width: 0.8"/>
      </g>
     </g>
     <g id="text_9">
      <!-- 0.40 -->
      <g transform="translate(427.581031 318.238437) scale(0.1 -0.1)">
       <defs>
        <path id="DejaVuSans-34" d="M 2419 4116 
L 825 1625 
L 2419 1625 
L 2419 4116 
z
M 2253 4666 
L 3047 4666 
L 3047 1625 
L 3713 1625 
L 3713 1100 
L 3047 1100 
L 3047 0 
L 2419 0 
L 2419 1100 
L 313 1100 
L 313 1709 
L 2253 4666 
z
" transform="scale(0.015625)"/>
       </defs>
       <use xlink:href="#DejaVuSans-30"/>
       <use xlink:href="#DejaVuSans-2e" transform="translate(63.623047 0)"/>
       <use xlink:href="#DejaVuSans-34" transform="translate(95.410156 0)"/>
       <use xlink:href="#DejaVuSans-30" transform="translate(159.033203 0)"/>
      </g>
     </g>
    </g>
    <g id="text_10">
     <!-- Strain [-] -->
     <g transform="translate(227.630841 331.916562) scale(0.1 -0.1)">
      <defs>
       <path id="DejaVuSans-53" d="M 3425 4513 
L 3425 3897 
Q 3066 4069 2747 4153 
Q 2428 4238 2131 4238 
Q 1616 4238 1336 4038 
Q 1056 3838 1056 3469 
Q 1056 3159 1242 3001 
Q 1428 2844 1947 2747 
L 2328 2669 
Q 3034 2534 3370 2195 
Q 3706 1856 3706 1288 
Q 3706 609 3251 259 
Q 2797 -91 1919 -91 
Q 1588 -91 1214 -16 
Q 841 59 441 206 
L 441 856 
Q 825 641 1194 531 
Q 1563 422 1919 422 
Q 2459 422 2753 634 
Q 3047 847 3047 1241 
Q 3047 1584 2836 1778 
Q 2625 1972 2144 2069 
L 1759 2144 
Q 1053 2284 737 2584 
Q 422 2884 422 3419 
Q 422 4038 858 4394 
Q 1294 4750 2059 4750 
Q 2388 4750 2728 4690 
Q 3069 4631 3425 4513 
z
" transform="scale(0.015625)"/>
       <path id="DejaVuSans-74" d="M 1172 4494 
L 1172 3500 
L 2356 3500 
L 2356 3053 
L 1172 3053 
L 1172 1153 
Q 1172 725 1289 603 
Q 1406 481 1766 481 
L 2356 481 
L 2356 0 
L 1766 0 
Q 1100 0 847 248 
Q 594 497 594 1153 
L 594 3053 
L 172 3053 
L 172 3500 
L 594 3500 
L 594 4494 
L 1172 4494 
z
" transform="scale(0.015625)"/>
       <path id="DejaVuSans-72" d="M 2631 2963 
Q 2534 3019 2420 3045 
Q 2306 3072 2169 3072 
Q 1681 3072 1420 2755 
Q 1159 2438 1159 1844 
L 1159 0 
L 581 0 
L 581 3500 
L 1159 3500 
L 1159 2956 
Q 1341 3275 1631 3429 
Q 1922 3584 2338 3584 
Q 2397 3584 2469 3576 
Q 2541 3569 2628 3553 
L 2631 2963 
z
" transform="scale(0.015625)"/>
       <path id="DejaVuSans-61" d="M 2194 1759 
Q 1497 1759 1228 1600 
Q 959 1441 959 1056 
Q 959 750 1161 570 
Q 1363 391 1709 391 
Q 2188 391 2477 730 
Q 2766 1069 2766 1631 
L 2766 1759 
L 2194 1759 
z
M 3341 1997 
L 3341 0 
L 2766 0 
L 2766 531 
Q 2569 213 2275 61 
Q 1981 -91 1556 -91 
Q 1019 -91 701 211 
Q 384 513 384 1019 
Q 384 1609 779 1909 
Q 1175 2209 1959 2209 
L 2766 2209 
L 2766 2266 
Q 2766 2663 2505 2880 
Q 2244 3097 1772 3097 
Q 1472 3097 1187 3025 
Q 903 2953 641 2809 
L 641 3341 
Q 956 3463 1253 3523 
Q 1550 3584 1831 3584 
Q 2591 3584 2966 3190 
Q 3341 2797 3341 1997 
z
" transform="scale(0.015625)"/>
       <path id="DejaVuSans-69" d="M 603 3500 
L 1178 3500 
L 1178 0 
L 603 0 
L 603 3500 
z
M 603 4863 
L 1178 4863 
L 1178 4134 
L 603 4134 
L 603 4863 
z
" transform="scale(0.015625)"/>
       <path id="DejaVuSans-6e" d="M 3513 2113 
L 3513 0 
L 2938 0 
L 2938 2094 
Q 2938 2591 2744 2837 
Q 2550 3084 2163 3084 
Q 1697 3084 1428 2787 
Q 1159 2491 1159 1978 
L 1159 0 
L 581 0 
L 581 3500 
L 1159 3500 
L 1159 2956 
Q 1366 3272 1645 3428 
Q 1925 3584 2291 3584 
Q 2894 3584 3203 3211 
Q 3513 2838 3513 2113 
z
" transform="scale(0.015625)"/>
       <path id="DejaVuSans-20" transform="scale(0.015625)"/>
       <path id="DejaVuSans-5b" d="M 550 4863 
L 1875 4863 
L 1875 4416 
L 1125 4416 
L 1125 -397 
L 1875 -397 
L 1875 -844 
L 550 -844 
L 550 4863 
z
" transform="scale(0.015625)"/>
       <path id="DejaVuSans-2d" d="M 313 2009 
L 1997 2009 
L 1997 1497 
L 313 1497 
L 313 2009 
z
" transform="scale(0.015625)"/>
       <path id="DejaVuSans-5d" d="M 1947 4863 
L 1947 -844 
L 622 -844 
L 622 -397 
L 1369 -397 
L 1369 4416 
L 622 4416 
L 622 4863 
L 1947 4863 
z
" transform="scale(0.015625)"/>
      </defs>
      <use xlink:href="#DejaVuSans-53"/>
      <use xlink:href="#DejaVuSans-74" transform="translate(63.476562 0)"/>
      <use xlink:href="#DejaVuSans-72" transform="translate(102.685547 0)"/>
      <use xlink:href="#DejaVuSans-61" transform="translate(143.798828 0)"/>
      <use xlink:href="#DejaVuSans-69" transform="translate(205.078125 0)"/>
      <use xlink:href="#DejaVuSans-6e" transform="translate(232.861328 0)"/>
      <use xlink:href="#DejaVuSans-20" transform="translate(296.240234 0)"/>
      <use xlink:href="#DejaVuSans-5b" transform="translate(328.027344 0)"/>
      <use xlink:href="#DejaVuSans-2d" transform="translate(367.041016 0)"/>
      <use xlink:href="#DejaVuSans-5d" transform="translate(403.125 0)"/>
     </g>
    </g>
   </g>
   <g id="matplotlib.axis_2">
    <g id="ytick_1">
     <g id="line2d_19">
      <path d="M 57.17 285.302769 
L 442.304182 285.302769 
" clip-path="url(#p35e50b95d3)" style="fill: none; stroke: #b0b0b0; stroke-opacity: 0.3; stroke-width: 0.8; stroke-linecap: square"/>
     </g>
     <g id="line2d_20">
      <defs>
       <path id="me6929a3966" d="M 0 0 
L -3.5 0 
" style="stroke: #000000; stroke-width: 0.8"/>
      </defs>
      <g>
       <use xlink:href="#me6929a3966" x="57.17" y="285.302769" style="stroke: #000000; stroke-width: 0.8"/>
      </g>
     </g>
     <g id="text_11">
      <!-- 0 -->
      <g transform="translate(43.8075 289.101987) scale(0.1 -0.1)">
       <use xlink:href="#DejaVuSans-30"/>
      </g>
     </g>
    </g>
    <g id="ytick_2">
     <g id="line2d_21">
      <path d="M 57.17 249.062163 
L 442.304182 249.062163 
" clip-path="url(#p35e50b95d3)" style="fill: none; stroke: #b0b0b0; stroke-opacity: 0.3; stroke-width: 0.8; stroke-linecap: square"/>
     </g>
     <g id="line2d_22">
      <g>
       <use xlink:href="#me6929a3966" x="57.17" y="249.062163" style="stroke: #000000; stroke-width: 0.8"/>
      </g>
     </g>
     <g id="text_12">
      <!-- 250 -->
      <g transform="translate(31.0825 252.861382) scale(0.1 -0.1)">
       <use xlink:href="#DejaVuSans-32"/>
       <use xlink:href="#DejaVuSans-35" transform="translate(63.623047 0)"/>
       <use xlink:href="#DejaVuSans-30" transform="translate(127.246094 0)"/>
      </g>
     </g>
    </g>
    <g id="ytick_3">
     <g id="line2d_23">
      <path d="M 57.17 212.821557 
L 442.304182 212.821557 
" clip-path="url(#p35e50b95d3)" style="fill: none; stroke: #b0b0b0; stroke-opacity: 0.3; stroke-width: 0.8; stroke-linecap: square"/>
     </g>
     <g id="line2d_24">
      <g>
       <use xlink:href="#me6929a3966" x="57.17" y="212.821557" style="stroke: #000000; stroke-width: 0.8"/>
      </g>
     </g>
     <g id="text_13">
      <!-- 500 -->
      <g transform="translate(31.0825 216.620776) scale(0.1 -0.1)">
       <use xlink:href="#DejaVuSans-35"/>
       <use xlink:href="#DejaVuSans-30" transform="translate(63.623047 0)"/>
       <use xlink:href="#DejaVuSans-30" transform="translate(127.246094 0)"/>
      </g>
     </g>
    </g>
    <g id="ytick_4">
     <g id="line2d_25">
      <path d="M 57.17 176.580951 
L 442.304182 176.580951 
" clip-path="url(#p35e50b95d3)" style="fill: none; stroke: #b0b0b0; stroke-opacity: 0.3; stroke-width: 0.8; stroke-linecap: square"/>
     </g>
     <g id="line2d_26">
      <g>
       <use xlink:href="#me6929a3966" x="57.17" y="176.580951" style="stroke: #000000; stroke-width: 0.8"/>
      </g>
     </g>
     <g id="text_14">
      <!-- 750 -->
      <g transform="translate(31.0825 180.38017) scale(0.1 -0.1)">
       <defs>
        <path id="DejaVuSans-37" d="M 525 4666 
L 3525 4666 
L 3525 4397 
L 1831 0 
L 1172 0 
L 2766 4134 
L 525 4134 
L 525 4666 
z
" transform="scale(0.015625)"/>
       </defs>
       <use xlink:href="#DejaVuSans-37"/>
       <use xlink:href="#DejaVuSans-35" transform="translate(63.623047 0)"/>
       <use xlink:href="#DejaVuSans-30" transform="translate(127.246094 0)"/>
      </g>
     </g>
    </g>
    <g id="ytick_5">
     <g id="line2d_27">
      <path d="M 57.17 140.340345 
L 442.304182 140.340345 
" clip-path="url(#p35e50b95d3)" style="fill: none; stroke: #b0b0b0; stroke-opacity: 0.3; stroke-width: 0.8; stroke-linecap: square"/>
     </g>
     <g id="line2d_28">
      <g>
       <use xlink:href="#me6929a3966" x="57.17" y="140.340345" style="stroke: #000000; stroke-width: 0.8"/>
      </g>
     </g>
     <g id="text_15">
      <!-- 1000 -->
      <g transform="translate(24.72 144.139564) scale(0.1 -0.1)">
       <use xlink:href="#DejaVuSans-31"/>
       <use xlink:href="#DejaVuSans-30" transform="translate(63.623047 0)"/>
       <use xlink:href="#DejaVuSans-30" transform="translate(127.246094 0)"/>
       <use xlink:href="#DejaVuSans-30" transform="translate(190.869141 0)"/>
      </g>
     </g>
    </g>
    <g id="ytick_6">
     <g id="line2d_29">
      <path d="M 57.17 104.099739 
L 442.304182 104.099739 
" clip-path="url(#p35e50b95d3)" style="fill: none; stroke: #b0b0b0; stroke-opacity: 0.3; stroke-width: 0.8; stroke-linecap: square"/>
     </g>
     <g id="line2d_30">
      <g>
       <use xlink:href="#me6929a3966" x="57.17" y="104.099739" style="stroke: #000000; stroke-width: 0.8"/>
      </g>
     </g>
     <g id="text_16">
      <!-- 1250 -->
      <g transform="translate(24.72 107.898958) scale(0.1 -0.1)">
       <use xlink:href="#DejaVuSans-31"/>
       <use xlink:href="#DejaVuSans-32" transform="translate(63.623047 0)"/>
       <use xlink:href="#DejaVuSans-35" transform="translate(127.246094 0)"/>
       <use xlink:href="#DejaVuSans-30" transform="translate(190.869141 0)"/>
      </g>
     </g>
    </g>
    <g id="ytick_7">
     <g id="line2d_31">
      <path d="M 57.17 67.859133 
L 442.304182 67.859133 
" clip-path="url(#p35e50b95d3)" style="fill: none; stroke: #b0b0b0; stroke-opacity: 0.3; stroke-width: 0.8; stroke-linecap: square"/>
     </g>
     <g id="line2d_32">
      <g>
       <use xlink:href="#me6929a3966" x="57.17" y="67.859133" style="stroke: #000000; stroke-width: 0.8"/>
      </g>
     </g>
     <g id="text_17">
      <!-- 1500 -->
      <g transform="translate(24.72 71.658352) scale(0.1 -0.1)">
       <use xlink:href="#DejaVuSans-31"/>
       <use xlink:href="#DejaVuSans-35" transform="translate(63.623047 0)"/>
       <use xlink:href="#DejaVuSans-30" transform="translate(127.246094 0)"/>
       <use xlink:href="#DejaVuSans-30" transform="translate(190.869141 0)"/>
      </g>
     </g>
    </g>
    <g id="ytick_8">
     <g id="line2d_33">
      <path d="M 57.17 31.618527 
L 442.304182 31.618527 
" clip-path="url(#p35e50b95d3)" style="fill: none; stroke: #b0b0b0; stroke-opacity: 0.3; stroke-width: 0.8; stroke-linecap: square"/>
     </g>
     <g id="line2d_34">
      <g>
       <use xlink:href="#me6929a3966" x="57.17" y="31.618527" style="stroke: #000000; stroke-width: 0.8"/>
      </g>
     </g>
     <g id="text_18">
      <!-- 1750 -->
      <g transform="translate(24.72 35.417746) scale(0.1 -0.1)">
       <use xlink:href="#DejaVuSans-31"/>
       <use xlink:href="#DejaVuSans-37" transform="translate(63.623047 0)"/>
       <use xlink:href="#DejaVuSans-35" transform="translate(127.246094 0)"/>
       <use xlink:href="#DejaVuSans-30" transform="translate(190.869141 0)"/>
      </g>
     </g>
    </g>
    <g id="text_19">
     <!-- Stress [Pa] -->
     <g transform="translate(18.640312 191.967812) rotate(-90) scale(0.1 -0.1)">
      <defs>
       <path id="DejaVuSans-65" d="M 3597 1894 
L 3597 1613 
L 953 1613 
Q 991 1019 1311 708 
Q 1631 397 2203 397 
Q 2534 397 2845 478 
Q 3156 559 3463 722 
L 3463 178 
Q 3153 47 2828 -22 
Q 2503 -91 2169 -91 
Q 1331 -91 842 396 
Q 353 884 353 1716 
Q 353 2575 817 3079 
Q 1281 3584 2069 3584 
Q 2775 3584 3186 3129 
Q 3597 2675 3597 1894 
z
M 3022 2063 
Q 3016 2534 2758 2815 
Q 2500 3097 2075 3097 
Q 1594 3097 1305 2825 
Q 1016 2553 972 2059 
L 3022 2063 
z
" transform="scale(0.015625)"/>
       <path id="DejaVuSans-73" d="M 2834 3397 
L 2834 2853 
Q 2591 2978 2328 3040 
Q 2066 3103 1784 3103 
Q 1356 3103 1142 2972 
Q 928 2841 928 2578 
Q 928 2378 1081 2264 
Q 1234 2150 1697 2047 
L 1894 2003 
Q 2506 1872 2764 1633 
Q 3022 1394 3022 966 
Q 3022 478 2636 193 
Q 2250 -91 1575 -91 
Q 1294 -91 989 -36 
Q 684 19 347 128 
L 347 722 
Q 666 556 975 473 
Q 1284 391 1588 391 
Q 1994 391 2212 530 
Q 2431 669 2431 922 
Q 2431 1156 2273 1281 
Q 2116 1406 1581 1522 
L 1381 1569 
Q 847 1681 609 1914 
Q 372 2147 372 2553 
Q 372 3047 722 3315 
Q 1072 3584 1716 3584 
Q 2034 3584 2315 3537 
Q 2597 3491 2834 3397 
z
" transform="scale(0.015625)"/>
       <path id="DejaVuSans-50" d="M 1259 4147 
L 1259 2394 
L 2053 2394 
Q 2494 2394 2734 2622 
Q 2975 2850 2975 3272 
Q 2975 3691 2734 3919 
Q 2494 4147 2053 4147 
L 1259 4147 
z
M 628 4666 
L 2053 4666 
Q 2838 4666 3239 4311 
Q 3641 3956 3641 3272 
Q 3641 2581 3239 2228 
Q 2838 1875 2053 1875 
L 1259 1875 
L 1259 0 
L 628 0 
L 628 4666 
z
" transform="scale(0.015625)"/>
      </defs>
      <use xlink:href="#DejaVuSans-53"/>
      <use xlink:href="#DejaVuSans-74" transform="translate(63.476562 0)"/>
      <use xlink:href="#DejaVuSans-72" transform="translate(102.685547 0)"/>
      <use xlink:href="#DejaVuSans-65" transform="translate(141.548828 0)"/>
      <use xlink:href="#DejaVuSans-73" transform="translate(203.072266 0)"/>
      <use xlink:href="#DejaVuSans-73" transform="translate(255.171875 0)"/>
      <use xlink:href="#DejaVuSans-20" transform="translate(307.271484 0)"/>
      <use xlink:href="#DejaVuSans-5b" transform="translate(339.058594 0)"/>
      <use xlink:href="#DejaVuSans-50" transform="translate(378.072266 0)"/>
      <use xlink:href="#DejaVuSans-61" transform="translate(433.875 0)"/>
      <use xlink:href="#DejaVuSans-5d" transform="translate(495.154297 0)"/>
     </g>
    </g>
   </g>
   <g id="line2d_35">
    <path d="M 74.676417 288.718321 
L 76.445414 288.751364 
L 78.214412 289.119524 
L 79.983409 287.384785 
L 81.752407 286.901171 
L 83.521404 286.331673 
L 85.290401 285.763354 
L 87.059399 284.917054 
L 88.828396 284.121679 
L 90.597394 284.017721 
L 92.366391 283.038934 
L 94.135388 282.379643 
L 95.904386 281.840749 
L 97.673383 281.247993 
L 99.442381 280.646547 
L 101.211378 279.915455 
L 102.980375 279.29069 
L 104.749373 278.733277 
L 106.51837 278.007521 
L 108.287368 277.324942 
L 110.056365 276.646561 
L 111.825362 276.083024 
L 113.59436 275.359746 
L 115.363357 274.659339 
L 117.132355 273.94325 
L 118.901352 273.347517 
L 120.670349 272.635797 
L 122.439347 271.966827 
L 124.208344 271.320795 
L 125.977342 270.652309 
L 127.746339 269.879537 
L 129.515336 269.294688 
L 131.284334 268.591498 
L 133.053331 267.783267 
L 134.822329 267.250148 
L 136.591326 266.469526 
L 138.360323 265.806896 
L 140.129321 265.079514 
L 141.898318 264.3811 
L 143.667316 263.64514 
L 145.436313 262.91679 
L 147.20531 262.137161 
L 148.974308 261.430783 
L 150.743305 260.673245 
L 152.512303 259.930645 
L 154.2813 259.391182 
L 156.050297 258.541768 
L 157.819295 257.855429 
L 159.588292 257.079016 
L 161.35729 256.434575 
L 163.126287 255.639285 
L 164.895284 254.811259 
L 166.664282 254.087626 
L 168.433279 253.338966 
L 170.202277 252.519323 
L 171.971274 251.913418 
L 173.740271 250.930493 
L 175.509269 250.115876 
L 177.278266 249.512566 
L 179.047264 248.641705 
L 180.816261 247.734444 
L 182.585258 246.994334 
L 184.354256 246.129549 
L 186.123253 245.312765 
L 187.892251 244.51758 
L 189.661248 243.678941 
L 191.430245 243.001977 
L 193.199243 242.097065 
L 194.96824 241.208104 
L 196.737238 240.458461 
L 198.506235 239.528257 
L 200.275232 238.685487 
L 202.04423 237.882195 
L 203.813227 237.085137 
L 205.582225 236.205133 
L 207.351222 235.257903 
L 209.120219 234.436435 
L 210.889217 233.554964 
L 212.658214 232.637932 
L 214.427212 231.814629 
L 216.196209 230.904672 
L 217.965206 229.956653 
L 219.734204 229.158159 
L 221.503201 228.189782 
L 223.272199 227.151689 
L 225.041196 226.34385 
L 226.810193 225.327523 
L 228.579191 224.445701 
L 230.348188 223.544749 
L 232.117186 222.550718 
L 233.886183 221.5865 
L 235.65518 220.616817 
L 237.424178 219.586148 
L 239.193175 218.597695 
L 240.962173 217.608089 
L 242.73117 216.648687 
L 244.500167 215.648299 
L 246.269165 214.731716 
L 248.038162 213.801393 
L 249.80716 216.425741 
" clip-path="url(#p35e50b95d3)" style="fill: none; stroke: #000000; stroke-width: 2; stroke-linecap: square"/>
   </g>
   <g id="line2d_36">
    <path d="M 74.676529 288.618093 
L 76.445227 278.141359 
L 78.213924 286.854078 
L 79.982622 287.816341 
L 81.751319 286.908563 
L 83.520017 286.017035 
L 85.288714 285.501855 
L 87.057412 284.876382 
L 88.826109 284.30072 
L 90.594807 283.540133 
L 92.363504 282.961454 
L 94.132202 285.49271 
L 95.900899 288.403349 
L 97.669597 287.020303 
L 99.438294 284.491934 
L 101.206992 283.573898 
L 102.975689 283.313491 
L 104.744387 282.750385 
L 106.513084 281.795815 
L 108.281782 281.013029 
L 110.050479 280.392171 
L 111.819177 279.293508 
L 113.587874 278.211567 
L 115.356572 277.593126 
L 117.125269 276.881123 
L 118.893967 276.098925 
L 120.662665 275.501612 
L 122.431362 274.920509 
L 124.20006 274.026969 
L 125.968757 273.07009 
L 127.737455 272.319257 
L 129.506152 271.706624 
L 131.27485 271.090984 
L 133.043547 270.38009 
L 134.812245 269.634915 
L 136.580942 268.716885 
L 138.34964 267.787013 
L 140.118337 267.10283 
L 141.887035 266.655777 
L 143.655732 266.160691 
L 145.42443 265.434915 
L 147.193127 264.648246 
L 148.961825 263.871276 
L 150.730522 263.172909 
L 152.49922 262.546274 
L 154.267917 261.87391 
L 156.036615 261.113944 
L 157.805312 260.281063 
L 159.57401 259.38963 
L 161.342707 258.534309 
L 163.111405 257.898602 
L 164.880102 257.309186 
L 166.6488 256.718707 
L 168.417497 256.045351 
L 170.186195 255.234188 
L 171.954892 254.382734 
L 173.72359 253.661832 
L 175.492287 253.011137 
L 177.260985 252.298462 
L 179.029682 251.575452 
L 180.79838 250.759281 
L 182.567078 249.7626 
L 184.335775 248.694381 
L 186.104473 247.744018 
L 187.87317 246.985772 
L 189.641868 246.274573 
L 191.410565 245.382584 
L 193.179263 244.421787 
L 194.94796 243.324407 
L 196.716658 242.319484 
L 198.485355 241.556139 
L 200.254053 240.928098 
L 202.02275 240.223167 
L 203.791448 239.328507 
L 205.560145 238.239834 
L 207.328843 237.151577 
L 209.09754 236.294906 
L 210.866238 235.648227 
L 212.634935 235.02029 
L 214.403633 234.107562 
L 216.17233 232.939804 
L 217.941028 231.835611 
L 219.709725 230.885935 
L 221.478423 230.156781 
L 223.24712 229.418416 
L 225.015818 228.56626 
L 226.784515 227.507204 
L 228.553213 226.32401 
L 230.32191 225.230419 
L 232.090608 224.505331 
L 233.859305 224.069249 
L 235.628003 223.720862 
L 237.3967 223.176877 
L 239.165398 222.508571 
L 240.934095 221.898176 
L 242.702793 221.194887 
L 244.47149 220.266844 
L 246.240188 219.028982 
L 248.008886 216.50531 
L 249.777583 218.263271 
" clip-path="url(#p35e50b95d3)" style="fill: none; stroke: #ff0000; stroke-width: 2; stroke-linecap: square"/>
   </g>
   <g id="line2d_37">
    <path d="M 74.676233 285.191064 
L 78.212817 283.969662 
L 81.749402 283.334044 
L 85.285986 284.080795 
L 88.82257 284.127031 
L 92.359155 282.544964 
L 95.895739 282.074885 
L 99.432323 282.323016 
L 102.968908 284.405797 
L 106.505492 287.813169 
L 110.042076 287.858692 
L 113.578661 285.112115 
L 117.115245 285.410493 
L 120.651829 283.643072 
L 124.188414 281.80753 
L 127.724998 279.657432 
L 131.261582 277.664842 
L 134.798167 275.782247 
L 138.334751 274.040432 
L 141.871336 272.618525 
L 145.40792 271.297833 
L 148.944504 269.674606 
L 152.481089 268.179548 
L 156.017673 266.781208 
L 159.554257 265.578763 
L 163.090842 264.456405 
L 166.627426 263.351624 
L 170.16401 262.407335 
L 173.700595 261.193778 
L 177.237179 259.726215 
L 180.773763 258.11271 
L 184.310348 256.699512 
L 187.846932 255.020321 
L 191.383516 253.274705 
L 194.920101 251.524558 
L 198.456685 249.503818 
L 201.993269 247.351194 
L 205.529854 245.100422 
L 209.066438 242.936718 
L 212.603022 241.073838 
L 216.139607 239.375987 
L 219.676191 237.592124 
L 223.212775 235.826774 
L 226.74936 234.120887 
L 230.285944 232.612893 
L 233.822529 231.222583 
L 237.359113 229.766284 
L 240.895697 228.112351 
L 244.432282 226.358211 
L 247.968866 224.482871 
L 251.50545 222.361301 
L 255.042035 220.274296 
L 258.578619 218.209788 
L 262.115203 215.984823 
L 265.651788 213.364797 
L 269.188372 210.63908 
L 272.724956 208.03607 
L 276.261541 205.557111 
L 279.798125 203.036845 
L 283.334709 200.572279 
L 286.871294 198.271218 
L 290.407878 195.924995 
L 293.944462 193.507911 
L 297.481047 190.967487 
L 301.017631 188.662503 
L 304.554215 186.470689 
L 308.0908 184.110192 
L 311.627384 181.650403 
L 315.163968 179.177418 
L 318.700553 176.42062 
L 322.237137 173.42091 
L 325.773722 170.479866 
L 329.310306 167.422417 
L 332.84689 164.322779 
L 336.383475 161.032273 
L 339.920059 157.252488 
L 343.456643 153.563505 
L 346.993228 150.157177 
L 350.529812 146.86403 
L 354.066396 143.420403 
L 357.602981 139.760457 
L 361.139565 135.784634 
L 364.676149 131.953214 
L 368.212734 128.124429 
L 371.749318 124.528831 
L 375.285902 121.217876 
L 378.822487 117.423896 
L 382.359071 113.349059 
L 385.895655 109.933832 
L 389.43224 104.979465 
L 392.968824 101.707658 
L 396.505408 98.947771 
L 400.041993 96.173474 
L 403.578577 93.225487 
L 407.115161 89.902316 
L 410.651746 85.026013 
L 414.18833 78.495093 
L 417.724915 70.147631 
L 421.261499 57.97539 
L 424.798083 78.053111 
" clip-path="url(#p35e50b95d3)" style="fill: none; stroke: #0000ff; stroke-width: 2; stroke-linecap: square"/>
   </g>
   <g id="line2d_38">
    <path d="M 74.676099 285.066705 
L 78.212669 283.451227 
L 81.749239 282.078338 
L 85.285809 282.956192 
L 88.822379 283.909058 
L 92.358948 285.047077 
L 95.895518 285.972071 
L 99.432088 286.23934 
L 102.968658 285.45364 
L 106.505228 283.811738 
L 110.041798 281.6578 
L 113.578368 279.751998 
L 117.114937 277.993291 
L 120.651507 276.464029 
L 124.188077 275.505445 
L 127.724647 274.941802 
L 131.261217 274.682359 
L 134.797787 274.605683 
L 138.334356 274.651222 
L 141.870926 274.547269 
L 145.407496 274.225738 
L 148.944066 273.630002 
L 152.480636 272.860146 
L 156.017206 272.055959 
L 159.553776 271.087013 
L 163.090345 269.564549 
L 166.626915 267.459563 
L 170.163485 264.914591 
L 173.700055 262.065996 
L 177.236625 259.288622 
L 180.773195 256.977477 
L 184.309765 254.739941 
L 187.846334 252.621231 
L 191.382904 250.667799 
L 194.919474 248.814103 
L 198.456044 246.961185 
L 201.992614 245.205488 
L 205.529184 243.572724 
L 209.065753 242.179257 
L 212.602323 241.06919 
L 216.138893 240.210916 
L 219.675463 239.365515 
L 223.212033 238.358456 
L 226.748603 237.053151 
L 230.285173 235.321263 
L 233.821742 233.347435 
L 237.358312 231.255186 
L 240.894882 229.092645 
L 244.431452 226.757135 
L 247.968022 224.325751 
L 251.504592 221.783044 
L 255.041161 219.207543 
L 258.577731 216.642572 
L 262.114301 214.188763 
L 265.650871 211.852406 
L 269.187441 209.507844 
L 272.724011 207.099942 
L 276.260581 204.764994 
L 279.79715 202.675899 
L 283.33372 200.829801 
L 286.87029 199.189396 
L 290.40686 197.444266 
L 293.94343 195.373102 
L 297.48 192.936783 
L 301.01657 191.258437 
L 304.553139 189.21701 
L 308.089709 185.831961 
L 311.626279 182.092394 
L 315.162849 178.395243 
L 318.699419 175.066362 
L 322.235989 171.654708 
L 325.772558 168.394157 
L 329.309128 165.276466 
L 332.845698 162.332381 
L 336.382268 159.474802 
L 339.918838 156.824001 
L 343.455408 154.491789 
L 346.991978 152.694604 
L 350.528547 151.320805 
L 354.065117 150.175712 
L 357.601687 148.982431 
L 361.138257 147.414619 
L 364.674827 145.855993 
L 368.211397 144.147169 
L 371.747967 142.204307 
L 375.284536 139.875398 
L 378.821106 137.285759 
L 382.357676 134.651827 
L 385.894246 131.731323 
L 389.430816 128.368734 
L 392.967386 124.574827 
L 396.503955 120.247173 
L 400.040525 115.505719 
L 403.577095 109.692868 
L 407.113665 101.85982 
L 410.650235 91.293621 
L 414.186805 79.100451 
L 417.723375 63.252262 
L 421.259944 41.423713 
L 424.796514 84.184009 
" clip-path="url(#p35e50b95d3)" style="fill: none; stroke: #008000; stroke-width: 2; stroke-linecap: square"/>
   </g>
   <g id="patch_3">
    <path d="M 57.17 303.64 
L 57.17 26.88 
" style="fill: none; stroke: #000000; stroke-width: 0.8; stroke-linejoin: miter; stroke-linecap: square"/>
   </g>
   <g id="patch_4">
    <path d="M 442.304182 303.64 
L 442.304182 26.88 
" style="fill: none; stroke: #000000; stroke-width: 0.8; stroke-linejoin: miter; stroke-linecap: square"/>
   </g>
   <g id="patch_5">
    <path d="M 57.17 303.64 
L 442.304182 303.64 
" style="fill: none; stroke: #000000; stroke-width: 0.8; stroke-linejoin: miter; stroke-linecap: square"/>
   </g>
   <g id="patch_6">
    <path d="M 57.17 26.88 
L 442.304182 26.88 
" style="fill: none; stroke: #000000; stroke-width: 0.8; stroke-linejoin: miter; stroke-linecap: square"/>
   </g>
   <g id="text_20">
    <!-- 2025-06-18 - Stress vs Strain by Impact Velocity (with Error Bands) -->
    <g transform="translate(48.533654 20.88) scale(0.12 -0.12)">
     <defs>
      <path id="DejaVuSans-36" d="M 2113 2584 
Q 1688 2584 1439 2293 
Q 1191 2003 1191 1497 
Q 1191 994 1439 701 
Q 1688 409 2113 409 
Q 2538 409 2786 701 
Q 3034 994 3034 1497 
Q 3034 2003 2786 2293 
Q 2538 2584 2113 2584 
z
M 3366 4563 
L 3366 3988 
Q 3128 4100 2886 4159 
Q 2644 4219 2406 4219 
Q 1781 4219 1451 3797 
Q 1122 3375 1075 2522 
Q 1259 2794 1537 2939 
Q 1816 3084 2150 3084 
Q 2853 3084 3261 2657 
Q 3669 2231 3669 1497 
Q 3669 778 3244 343 
Q 2819 -91 2113 -91 
Q 1303 -91 875 529 
Q 447 1150 447 2328 
Q 447 3434 972 4092 
Q 1497 4750 2381 4750 
Q 2619 4750 2861 4703 
Q 3103 4656 3366 4563 
z
" transform="scale(0.015625)"/>
      <path id="DejaVuSans-38" d="M 2034 2216 
Q 1584 2216 1326 1975 
Q 1069 1734 1069 1313 
Q 1069 891 1326 650 
Q 1584 409 2034 409 
Q 2484 409 2743 651 
Q 3003 894 3003 1313 
Q 3003 1734 2745 1975 
Q 2488 2216 2034 2216 
z
M 1403 2484 
Q 997 2584 770 2862 
Q 544 3141 544 3541 
Q 544 4100 942 4425 
Q 1341 4750 2034 4750 
Q 2731 4750 3128 4425 
Q 3525 4100 3525 3541 
Q 3525 3141 3298 2862 
Q 3072 2584 2669 2484 
Q 3125 2378 3379 2068 
Q 3634 1759 3634 1313 
Q 3634 634 3220 271 
Q 2806 -91 2034 -91 
Q 1263 -91 848 271 
Q 434 634 434 1313 
Q 434 1759 690 2068 
Q 947 2378 1403 2484 
z
M 1172 3481 
Q 1172 3119 1398 2916 
Q 1625 2713 2034 2713 
Q 2441 2713 2670 2916 
Q 2900 3119 2900 3481 
Q 2900 3844 2670 4047 
Q 2441 4250 2034 4250 
Q 1625 4250 1398 4047 
Q 1172 3844 1172 3481 
z
" transform="scale(0.015625)"/>
      <path id="DejaVuSans-76" d="M 191 3500 
L 800 3500 
L 1894 563 
L 2988 3500 
L 3597 3500 
L 2284 0 
L 1503 0 
L 191 3500 
z
" transform="scale(0.015625)"/>
      <path id="DejaVuSans-62" d="M 3116 1747 
Q 3116 2381 2855 2742 
Q 2594 3103 2138 3103 
Q 1681 3103 1420 2742 
Q 1159 2381 1159 1747 
Q 1159 1113 1420 752 
Q 1681 391 2138 391 
Q 2594 391 2855 752 
Q 3116 1113 3116 1747 
z
M 1159 2969 
Q 1341 3281 1617 3432 
Q 1894 3584 2278 3584 
Q 2916 3584 3314 3078 
Q 3713 2572 3713 1747 
Q 3713 922 3314 415 
Q 2916 -91 2278 -91 
Q 1894 -91 1617 61 
Q 1341 213 1159 525 
L 1159 0 
L 581 0 
L 581 4863 
L 1159 4863 
L 1159 2969 
z
" transform="scale(0.015625)"/>
      <path id="DejaVuSans-79" d="M 2059 -325 
Q 1816 -950 1584 -1140 
Q 1353 -1331 966 -1331 
L 506 -1331 
L 506 -850 
L 844 -850 
Q 1081 -850 1212 -737 
Q 1344 -625 1503 -206 
L 1606 56 
L 191 3500 
L 800 3500 
L 1894 763 
L 2988 3500 
L 3597 3500 
L 2059 -325 
z
" transform="scale(0.015625)"/>
      <path id="DejaVuSans-49" d="M 628 4666 
L 1259 4666 
L 1259 0 
L 628 0 
L 628 4666 
z
" transform="scale(0.015625)"/>
      <path id="DejaVuSans-6d" d="M 3328 2828 
Q 3544 3216 3844 3400 
Q 4144 3584 4550 3584 
Q 5097 3584 5394 3201 
Q 5691 2819 5691 2113 
L 5691 0 
L 5113 0 
L 5113 2094 
Q 5113 2597 4934 2840 
Q 4756 3084 4391 3084 
Q 3944 3084 3684 2787 
Q 3425 2491 3425 1978 
L 3425 0 
L 2847 0 
L 2847 2094 
Q 2847 2600 2669 2842 
Q 2491 3084 2119 3084 
Q 1678 3084 1418 2786 
Q 1159 2488 1159 1978 
L 1159 0 
L 581 0 
L 581 3500 
L 1159 3500 
L 1159 2956 
Q 1356 3278 1631 3431 
Q 1906 3584 2284 3584 
Q 2666 3584 2933 3390 
Q 3200 3197 3328 2828 
z
" transform="scale(0.015625)"/>
      <path id="DejaVuSans-70" d="M 1159 525 
L 1159 -1331 
L 581 -1331 
L 581 3500 
L 1159 3500 
L 1159 2969 
Q 1341 3281 1617 3432 
Q 1894 3584 2278 3584 
Q 2916 3584 3314 3078 
Q 3713 2572 3713 1747 
Q 3713 922 3314 415 
Q 2916 -91 2278 -91 
Q 1894 -91 1617 61 
Q 1341 213 1159 525 
z
M 3116 1747 
Q 3116 2381 2855 2742 
Q 2594 3103 2138 3103 
Q 1681 3103 1420 2742 
Q 1159 2381 1159 1747 
Q 1159 1113 1420 752 
Q 1681 391 2138 391 
Q 2594 391 2855 752 
Q 3116 1113 3116 1747 
z
" transform="scale(0.015625)"/>
      <path id="DejaVuSans-63" d="M 3122 3366 
L 3122 2828 
Q 2878 2963 2633 3030 
Q 2388 3097 2138 3097 
Q 1578 3097 1268 2742 
Q 959 2388 959 1747 
Q 959 1106 1268 751 
Q 1578 397 2138 397 
Q 2388 397 2633 464 
Q 2878 531 3122 666 
L 3122 134 
Q 2881 22 2623 -34 
Q 2366 -91 2075 -91 
Q 1284 -91 818 406 
Q 353 903 353 1747 
Q 353 2603 823 3093 
Q 1294 3584 2113 3584 
Q 2378 3584 2631 3529 
Q 2884 3475 3122 3366 
z
" transform="scale(0.015625)"/>
      <path id="DejaVuSans-56" d="M 1831 0 
L 50 4666 
L 709 4666 
L 2188 738 
L 3669 4666 
L 4325 4666 
L 2547 0 
L 1831 0 
z
" transform="scale(0.015625)"/>
      <path id="DejaVuSans-6c" d="M 603 4863 
L 1178 4863 
L 1178 0 
L 603 0 
L 603 4863 
z
" transform="scale(0.015625)"/>
      <path id="DejaVuSans-6f" d="M 1959 3097 
Q 1497 3097 1228 2736 
Q 959 2375 959 1747 
Q 959 1119 1226 758 
Q 1494 397 1959 397 
Q 2419 397 2687 759 
Q 2956 1122 2956 1747 
Q 2956 2369 2687 2733 
Q 2419 3097 1959 3097 
z
M 1959 3584 
Q 2709 3584 3137 3096 
Q 3566 2609 3566 1747 
Q 3566 888 3137 398 
Q 2709 -91 1959 -91 
Q 1206 -91 779 398 
Q 353 888 353 1747 
Q 353 2609 779 3096 
Q 1206 3584 1959 3584 
z
" transform="scale(0.015625)"/>
      <path id="DejaVuSans-28" d="M 1984 4856 
Q 1566 4138 1362 3434 
Q 1159 2731 1159 2009 
Q 1159 1288 1364 580 
Q 1569 -128 1984 -844 
L 1484 -844 
Q 1016 -109 783 600 
Q 550 1309 550 2009 
Q 550 2706 781 3412 
Q 1013 4119 1484 4856 
L 1984 4856 
z
" transform="scale(0.015625)"/>
      <path id="DejaVuSans-77" d="M 269 3500 
L 844 3500 
L 1563 769 
L 2278 3500 
L 2956 3500 
L 3675 769 
L 4391 3500 
L 4966 3500 
L 4050 0 
L 3372 0 
L 2619 2869 
L 1863 0 
L 1184 0 
L 269 3500 
z
" transform="scale(0.015625)"/>
      <path id="DejaVuSans-68" d="M 3513 2113 
L 3513 0 
L 2938 0 
L 2938 2094 
Q 2938 2591 2744 2837 
Q 2550 3084 2163 3084 
Q 1697 3084 1428 2787 
Q 1159 2491 1159 1978 
L 1159 0 
L 581 0 
L 581 4863 
L 1159 4863 
L 1159 2956 
Q 1366 3272 1645 3428 
Q 1925 3584 2291 3584 
Q 2894 3584 3203 3211 
Q 3513 2838 3513 2113 
z
" transform="scale(0.015625)"/>
      <path id="DejaVuSans-45" d="M 628 4666 
L 3578 4666 
L 3578 4134 
L 1259 4134 
L 1259 2753 
L 3481 2753 
L 3481 2222 
L 1259 2222 
L 1259 531 
L 3634 531 
L 3634 0 
L 628 0 
L 628 4666 
z
" transform="scale(0.015625)"/>
      <path id="DejaVuSans-42" d="M 1259 2228 
L 1259 519 
L 2272 519 
Q 2781 519 3026 730 
Q 3272 941 3272 1375 
Q 3272 1813 3026 2020 
Q 2781 2228 2272 2228 
L 1259 2228 
z
M 1259 4147 
L 1259 2741 
L 2194 2741 
Q 2656 2741 2882 2914 
Q 3109 3088 3109 3444 
Q 3109 3797 2882 3972 
Q 2656 4147 2194 4147 
L 1259 4147 
z
M 628 4666 
L 2241 4666 
Q 2963 4666 3353 4366 
Q 3744 4066 3744 3513 
Q 3744 3084 3544 2831 
Q 3344 2578 2956 2516 
Q 3422 2416 3680 2098 
Q 3938 1781 3938 1306 
Q 3938 681 3513 340 
Q 3088 0 2303 0 
L 628 0 
L 628 4666 
z
" transform="scale(0.015625)"/>
      <path id="DejaVuSans-64" d="M 2906 2969 
L 2906 4863 
L 3481 4863 
L 3481 0 
L 2906 0 
L 2906 525 
Q 2725 213 2448 61 
Q 2172 -91 1784 -91 
Q 1150 -91 751 415 
Q 353 922 353 1747 
Q 353 2572 751 3078 
Q 1150 3584 1784 3584 
Q 2172 3584 2448 3432 
Q 2725 3281 2906 2969 
z
M 947 1747 
Q 947 1113 1208 752 
Q 1469 391 1925 391 
Q 2381 391 2643 752 
Q 2906 1113 2906 1747 
Q 2906 2381 2643 2742 
Q 2381 3103 1925 3103 
Q 1469 3103 1208 2742 
Q 947 2381 947 1747 
z
" transform="scale(0.015625)"/>
      <path id="DejaVuSans-29" d="M 513 4856 
L 1013 4856 
Q 1481 4119 1714 3412 
Q 1947 2706 1947 2009 
Q 1947 1309 1714 600 
Q 1481 -109 1013 -844 
L 513 -844 
Q 928 -128 1133 580 
Q 1338 1288 1338 2009 
Q 1338 2731 1133 3434 
Q 928 4138 513 4856 
z
" transform="scale(0.015625)"/>
     </defs>
     <use xlink:href="#DejaVuSans-32"/>
     <use xlink:href="#DejaVuSans-30" transform="translate(63.623047 0)"/>
     <use xlink:href="#DejaVuSans-32" transform="translate(127.246094 0)"/>
     <use xlink:href="#DejaVuSans-35" transform="translate(190.869141 0)"/>
     <use xlink:href="#DejaVuSans-2d" transform="translate(254.492188 0)"/>
     <use xlink:href="#DejaVuSans-30" transform="translate(290.576172 0)"/>
     <use xlink:href="#DejaVuSans-36" transform="translate(354.199219 0)"/>
     <use xlink:href="#DejaVuSans-2d" transform="translate(417.822266 0)"/>
     <use xlink:href="#DejaVuSans-31" transform="translate(453.90625 0)"/>
     <use xlink:href="#DejaVuSans-38" transform="translate(517.529297 0)"/>
     <use xlink:href="#DejaVuSans-20" transform="translate(581.152344 0)"/>
     <use xlink:href="#DejaVuSans-2d" transform="translate(612.939453 0)"/>
     <use xlink:href="#DejaVuSans-20" transform="translate(649.023438 0)"/>
     <use xlink:href="#DejaVuSans-53" transform="translate(680.810547 0)"/>
     <use xlink:href="#DejaVuSans-74" transform="translate(744.287109 0)"/>
     <use xlink:href="#DejaVuSans-72" transform="translate(783.496094 0)"/>
     <use xlink:href="#DejaVuSans-65" transform="translate(822.359375 0)"/>
     <use xlink:href="#DejaVuSans-73" transform="translate(883.882812 0)"/>
     <use xlink:href="#DejaVuSans-73" transform="translate(935.982422 0)"/>
     <use xlink:href="#DejaVuSans-20" transform="translate(988.082031 0)"/>
     <use xlink:href="#DejaVuSans-76" transform="translate(1019.869141 0)"/>
     <use xlink:href="#DejaVuSans-73" transform="translate(1079.048828 0)"/>
     <use xlink:href="#DejaVuSans-20" transform="translate(1131.148438 0)"/>
     <use xlink:href="#DejaVuSans-53" transform="translate(1162.935547 0)"/>
     <use xlink:href="#DejaVuSans-74" transform="translate(1226.412109 0)"/>
     <use xlink:href="#DejaVuSans-72" transform="translate(1265.621094 0)"/>
     <use xlink:href="#DejaVuSans-61" transform="translate(1306.734375 0)"/>
     <use xlink:href="#DejaVuSans-69" transform="translate(1368.013672 0)"/>
     <use xlink:href="#DejaVuSans-6e" transform="translate(1395.796875 0)"/>
     <use xlink:href="#DejaVuSans-20" transform="translate(1459.175781 0)"/>
     <use xlink:href="#DejaVuSans-62" transform="translate(1490.962891 0)"/>
     <use xlink:href="#DejaVuSans-79" transform="translate(1554.439453 0)"/>
     <use xlink:href="#DejaVuSans-20" transform="translate(1613.619141 0)"/>
     <use xlink:href="#DejaVuSans-49" transform="translate(1645.40625 0)"/>
     <use xlink:href="#DejaVuSans-6d" transform="translate(1674.898438 0)"/>
     <use xlink:href="#DejaVuSans-70" transform="translate(1772.310547 0)"/>
     <use xlink:href="#DejaVuSans-61" transform="translate(1835.787109 0)"/>
     <use xlink:href="#DejaVuSans-63" transform="translate(1897.066406 0)"/>
     <use xlink:href="#DejaVuSans-74" transform="translate(1952.046875 0)"/>
     <use xlink:href="#DejaVuSans-20" transform="translate(1991.255859 0)"/>
     <use xlink:href="#DejaVuSans-56" transform="translate(2023.042969 0)"/>
     <use xlink:href="#DejaVuSans-65" transform="translate(2083.701172 0)"/>
     <use xlink:href="#DejaVuSans-6c" transform="translate(2145.224609 0)"/>
     <use xlink:href="#DejaVuSans-6f" transform="translate(2173.007812 0)"/>
     <use xlink:href="#DejaVuSans-63" transform="translate(2234.189453 0)"/>
     <use xlink:href="#DejaVuSans-69" transform="translate(2289.169922 0)"/>
     <use xlink:href="#DejaVuSans-74" transform="translate(2316.953125 0)"/>
     <use xlink:href="#DejaVuSans-79" transform="translate(2356.162109 0)"/>
     <use xlink:href="#DejaVuSans-20" transform="translate(2415.341797 0)"/>
     <use xlink:href="#DejaVuSans-28" transform="translate(2447.128906 0)"/>
     <use xlink:href="#DejaVuSans-77" transform="translate(2486.142578 0)"/>
     <use xlink:href="#DejaVuSans-69" transform="translate(2567.929688 0)"/>
     <use xlink:href="#DejaVuSans-74" transform="translate(2595.712891 0)"/>
     <use xlink:href="#DejaVuSans-68" transform="translate(2634.921875 0)"/>
     <use xlink:href="#DejaVuSans-20" transform="translate(2698.300781 0)"/>
     <use xlink:href="#DejaVuSans-45" transform="translate(2730.087891 0)"/>
     <use xlink:href="#DejaVuSans-72" transform="translate(2793.271484 0)"/>
     <use xlink:href="#DejaVuSans-72" transform="translate(2832.634766 0)"/>
     <use xlink:href="#DejaVuSans-6f" transform="translate(2871.498047 0)"/>
     <use xlink:href="#DejaVuSans-72" transform="translate(2932.679688 0)"/>
     <use xlink:href="#DejaVuSans-20" transform="translate(2973.792969 0)"/>
     <use xlink:href="#DejaVuSans-42" transform="translate(3005.580078 0)"/>
     <use xlink:href="#DejaVuSans-61" transform="translate(3074.183594 0)"/>
     <use xlink:href="#DejaVuSans-6e" transform="translate(3135.462891 0)"/>
     <use xlink:href="#DejaVuSans-64" transform="translate(3198.841797 0)"/>
     <use xlink:href="#DejaVuSans-73" transform="translate(3262.318359 0)"/>
     <use xlink:href="#DejaVuSans-29" transform="translate(3314.417969 0)"/>
    </g>
   </g>
   <g id="legend_1">
    <g id="patch_7">
     <path d="M 64.17 108.270625 
L 172.193438 108.270625 
Q 174.193438 108.270625 174.193438 106.270625 
L 174.193438 33.88 
Q 174.193438 31.88 172.193438 31.88 
L 64.17 31.88 
Q 62.17 31.88 62.17 33.88 
L 62.17 106.270625 
Q 62.17 108.270625 64.17 108.270625 
z
" style="fill: #ffffff; opacity: 0.8; stroke: #cccccc; stroke-linejoin: miter"/>
    </g>
    <g id="text_21">
     <!-- Impact Velocity -->
     <g transform="translate(79.684062 43.478437) scale(0.1 -0.1)">
      <use xlink:href="#DejaVuSans-49"/>
      <use xlink:href="#DejaVuSans-6d" transform="translate(29.492188 0)"/>
      <use xlink:href="#DejaVuSans-70" transform="translate(126.904297 0)"/>
      <use xlink:href="#DejaVuSans-61" transform="translate(190.380859 0)"/>
      <use xlink:href="#DejaVuSans-63" transform="translate(251.660156 0)"/>
      <use xlink:href="#DejaVuSans-74" transform="translate(306.640625 0)"/>
      <use xlink:href="#DejaVuSans-20" transform="translate(345.849609 0)"/>
      <use xlink:href="#DejaVuSans-56" transform="translate(377.636719 0)"/>
      <use xlink:href="#DejaVuSans-65" transform="translate(438.294922 0)"/>
      <use xlink:href="#DejaVuSans-6c" transform="translate(499.818359 0)"/>
      <use xlink:href="#DejaVuSans-6f" transform="translate(527.601562 0)"/>
      <use xlink:href="#DejaVuSans-63" transform="translate(588.783203 0)"/>
      <use xlink:href="#DejaVuSans-69" transform="translate(643.763672 0)"/>
      <use xlink:href="#DejaVuSans-74" transform="translate(671.546875 0)"/>
      <use xlink:href="#DejaVuSans-79" transform="translate(710.755859 0)"/>
     </g>
    </g>
    <g id="line2d_39">
     <path d="M 66.17 54.656563 
L 76.17 54.656563 
L 86.17 54.656563 
" style="fill: none; stroke: #000000; stroke-width: 2; stroke-linecap: square"/>
    </g>
    <g id="text_22">
     <!-- 1 mm/s (n=4) -->
     <g transform="translate(94.17 58.156563) scale(0.1 -0.1)">
      <defs>
       <path id="DejaVuSans-2f" d="M 1625 4666 
L 2156 4666 
L 531 -594 
L 0 -594 
L 1625 4666 
z
" transform="scale(0.015625)"/>
       <path id="DejaVuSans-3d" d="M 678 2906 
L 4684 2906 
L 4684 2381 
L 678 2381 
L 678 2906 
z
M 678 1631 
L 4684 1631 
L 4684 1100 
L 678 1100 
L 678 1631 
z
" transform="scale(0.015625)"/>
      </defs>
      <use xlink:href="#DejaVuSans-31"/>
      <use xlink:href="#DejaVuSans-20" transform="translate(63.623047 0)"/>
      <use xlink:href="#DejaVuSans-6d" transform="translate(95.410156 0)"/>
      <use xlink:href="#DejaVuSans-6d" transform="translate(192.822266 0)"/>
      <use xlink:href="#DejaVuSans-2f" transform="translate(290.234375 0)"/>
      <use xlink:href="#DejaVuSans-73" transform="translate(323.925781 0)"/>
      <use xlink:href="#DejaVuSans-20" transform="translate(376.025391 0)"/>
      <use xlink:href="#DejaVuSans-28" transform="translate(407.8125 0)"/>
      <use xlink:href="#DejaVuSans-6e" transform="translate(446.826172 0)"/>
      <use xlink:href="#DejaVuSans-3d" transform="translate(510.205078 0)"/>
      <use xlink:href="#DejaVuSans-34" transform="translate(593.994141 0)"/>
      <use xlink:href="#DejaVuSans-29" transform="translate(657.617188 0)"/>
     </g>
    </g>
    <g id="line2d_40">
     <path d="M 66.17 69.334688 
L 76.17 69.334688 
L 86.17 69.334688 
" style="fill: none; stroke: #ff0000; stroke-width: 2; stroke-linecap: square"/>
    </g>
    <g id="text_23">
     <!-- 10 mm/s (n=6) -->
     <g transform="translate(94.17 72.834688) scale(0.1 -0.1)">
      <use xlink:href="#DejaVuSans-31"/>
      <use xlink:href="#DejaVuSans-30" transform="translate(63.623047 0)"/>
      <use xlink:href="#DejaVuSans-20" transform="translate(127.246094 0)"/>
      <use xlink:href="#DejaVuSans-6d" transform="translate(159.033203 0)"/>
      <use xlink:href="#DejaVuSans-6d" transform="translate(256.445312 0)"/>
      <use xlink:href="#DejaVuSans-2f" transform="translate(353.857422 0)"/>
      <use xlink:href="#DejaVuSans-73" transform="translate(387.548828 0)"/>
      <use xlink:href="#DejaVuSans-20" transform="translate(439.648438 0)"/>
      <use xlink:href="#DejaVuSans-28" transform="translate(471.435547 0)"/>
      <use xlink:href="#DejaVuSans-6e" transform="translate(510.449219 0)"/>
      <use xlink:href="#DejaVuSans-3d" transform="translate(573.828125 0)"/>
      <use xlink:href="#DejaVuSans-36" transform="translate(657.617188 0)"/>
      <use xlink:href="#DejaVuSans-29" transform="translate(721.240234 0)"/>
     </g>
    </g>
    <g id="line2d_41">
     <path d="M 66.17 84.012812 
L 76.17 84.012812 
L 86.17 84.012812 
" style="fill: none; stroke: #0000ff; stroke-width: 2; stroke-linecap: square"/>
    </g>
    <g id="text_24">
     <!-- 20 mm/s (n=3) -->
     <g transform="translate(94.17 87.512812) scale(0.1 -0.1)">
      <use xlink:href="#DejaVuSans-32"/>
      <use xlink:href="#DejaVuSans-30" transform="translate(63.623047 0)"/>
      <use xlink:href="#DejaVuSans-20" transform="translate(127.246094 0)"/>
      <use xlink:href="#DejaVuSans-6d" transform="translate(159.033203 0)"/>
      <use xlink:href="#DejaVuSans-6d" transform="translate(256.445312 0)"/>
      <use xlink:href="#DejaVuSans-2f" transform="translate(353.857422 0)"/>
      <use xlink:href="#DejaVuSans-73" transform="translate(387.548828 0)"/>
      <use xlink:href="#DejaVuSans-20" transform="translate(439.648438 0)"/>
      <use xlink:href="#DejaVuSans-28" transform="translate(471.435547 0)"/>
      <use xlink:href="#DejaVuSans-6e" transform="translate(510.449219 0)"/>
      <use xlink:href="#DejaVuSans-3d" transform="translate(573.828125 0)"/>
      <use xlink:href="#DejaVuSans-33" transform="translate(657.617188 0)"/>
      <use xlink:href="#DejaVuSans-29" transform="translate(721.240234 0)"/>
     </g>
    </g>
    <g id="line2d_42">
     <path d="M 66.17 98.690938 
L 76.17 98.690938 
L 86.17 98.690938 
" style="fill: none; stroke: #008000; stroke-width: 2; stroke-linecap: square"/>
    </g>
    <g id="text_25">
     <!-- 50 mm/s (n=3) -->
     <g transform="translate(94.17 102.190938) scale(0.1 -0.1)">
      <use xlink:href="#DejaVuSans-35"/>
      <use xlink:href="#DejaVuSans-30" transform="translate(63.623047 0)"/>
      <use xlink:href="#DejaVuSans-20" transform="translate(127.246094 0)"/>
      <use xlink:href="#DejaVuSans-6d" transform="translate(159.033203 0)"/>
      <use xlink:href="#DejaVuSans-6d" transform="translate(256.445312 0)"/>
      <use xlink:href="#DejaVuSans-2f" transform="translate(353.857422 0)"/>
      <use xlink:href="#DejaVuSans-73" transform="translate(387.548828 0)"/>
      <use xlink:href="#DejaVuSans-20" transform="translate(439.648438 0)"/>
      <use xlink:href="#DejaVuSans-28" transform="translate(471.435547 0)"/>
      <use xlink:href="#DejaVuSans-6e" transform="translate(510.449219 0)"/>
      <use xlink:href="#DejaVuSans-3d" transform="translate(573.828125 0)"/>
      <use xlink:href="#DejaVuSans-33" transform="translate(657.617188 0)"/>
      <use xlink:href="#DejaVuSans-29" transform="translate(721.240234 0)"/>
     </g>
    </g>
   </g>
  </g>
 </g>
 <defs>
  <clipPath id="p35e50b95d3">
   <rect x="57.17" y="26.88" width="385.134182" height="276.76"/>
  </clipPath>
 </defs>
</svg>
