<?xml version="1.0" encoding="utf-8" standalone="no"?>
<!DOCTYPE svg PUBLIC "-//W3C//DTD SVG 1.1//EN"
  "http://www.w3.org/Graphics/SVG/1.1/DTD/svg11.dtd">
<svg xmlns:xlink="http://www.w3.org/1999/xlink" width="460.8pt" height="345.6pt" viewBox="0 0 460.8 345.6" xmlns="http://www.w3.org/2000/svg" version="1.1">
 <metadata>
  <rdf:RDF xmlns:dc="http://purl.org/dc/elements/1.1/" xmlns:cc="http://creativecommons.org/ns#" xmlns:rdf="http://www.w3.org/1999/02/22-rdf-syntax-ns#">
   <cc:Work>
    <dc:type rdf:resource="http://purl.org/dc/dcmitype/StillImage"/>
    <dc:date>2025-07-28T21:16:57.991248</dc:date>
    <dc:format>image/svg+xml</dc:format>
    <dc:creator>
     <cc:Agent>
      <dc:title>Matplotlib v3.10.3, https://matplotlib.org/</dc:title>
     </cc:Agent>
    </dc:creator>
   </cc:Work>
  </rdf:RDF>
 </metadata>
 <defs>
  <style type="text/css">*{stroke-linejoin: round; stroke-linecap: butt}</style>
 </defs>
 <g id="figure_1">
  <g id="patch_1">
   <path d="M 0 345.6 
L 460.8 345.6 
L 460.8 0 
L 0 0 
z
" style="fill: #ffffff"/>
  </g>
  <g id="axes_1">
   <g id="patch_2">
    <path d="M 63.47 303.64 
L 450 303.64 
L 450 26.88 
L 63.47 26.88 
z
" style="fill: #ffffff"/>
   </g>
   <g id="FillBetweenPolyCollection_1">
    <defs>
     <path id="m82b724ace3" d="M 81.040639 -54.749424 
L 81.040639 -54.704522 
L 81.752618 -54.679858 
L 82.464598 -54.735331 
L 83.176577 -54.810177 
L 83.888556 -54.647159 
L 84.600536 -54.567801 
L 85.312515 -54.565961 
L 86.024494 -54.580863 
L 86.736474 -54.600183 
L 87.448453 -54.624356 
L 88.160432 -54.622487 
L 88.872412 -54.631374 
L 89.584391 -54.71234 
L 90.29637 -54.783384 
L 91.00835 -54.835858 
L 91.720329 -54.860737 
L 92.432308 -54.882742 
L 93.144288 -54.896292 
L 93.856267 -54.897625 
L 94.568246 -54.90331 
L 95.280226 -54.912944 
L 95.992205 -54.957775 
L 96.704184 -55.014715 
L 97.416164 -55.080388 
L 98.128143 -55.146826 
L 98.840122 -55.190858 
L 99.552102 -55.223022 
L 100.264081 -55.258907 
L 100.97606 -55.29439 
L 101.68804 -55.336427 
L 102.400019 -55.390166 
L 103.111998 -55.446492 
L 103.823978 -55.502151 
L 104.535957 -55.555123 
L 105.247937 -55.610704 
L 105.959916 -55.667478 
L 106.671895 -55.721027 
L 107.383875 -55.768354 
L 108.095854 -55.814129 
L 108.807833 -55.863287 
L 109.519813 -55.909837 
L 110.231792 -55.962973 
L 110.943771 -56.024638 
L 111.655751 -56.091493 
L 112.36773 -56.155369 
L 113.079709 -56.215834 
L 113.791689 -56.276126 
L 114.503668 -56.340264 
L 115.215647 -56.404128 
L 115.927627 -56.470505 
L 116.639606 -56.538931 
L 117.351585 -56.609451 
L 118.063565 -56.682136 
L 118.775544 -56.759772 
L 119.487523 -56.836551 
L 120.199503 -56.916286 
L 120.911482 -57.000067 
L 121.623461 -57.086829 
L 122.335441 -57.174729 
L 123.04742 -57.266874 
L 123.759399 -57.362328 
L 124.471379 -57.459602 
L 125.183358 -57.559755 
L 125.895337 -57.661998 
L 126.607317 -57.763809 
L 127.319296 -57.8674 
L 128.031275 -57.975981 
L 128.743255 -58.087895 
L 129.455234 -58.203136 
L 130.167213 -58.321665 
L 130.879193 -58.441801 
L 131.591172 -58.56067 
L 132.303151 -58.685604 
L 133.015131 -58.813228 
L 133.72711 -58.940216 
L 134.439089 -59.071134 
L 135.151069 -59.205265 
L 135.863048 -59.33826 
L 136.575027 -59.471917 
L 137.287007 -59.611934 
L 137.998986 -59.752607 
L 138.710966 -59.897305 
L 139.422945 -60.040407 
L 140.134924 -60.184261 
L 140.846904 -60.328713 
L 141.558883 -60.47708 
L 142.270862 -60.627858 
L 142.982842 -60.784241 
L 143.694821 -60.944511 
L 144.4068 -61.102144 
L 145.11878 -61.259658 
L 145.830759 -61.419387 
L 146.542738 -61.580793 
L 147.254718 -61.743552 
L 147.966697 -61.913821 
L 148.678676 -62.084071 
L 149.390656 -62.252936 
L 150.102635 -62.423673 
L 150.814614 -62.593929 
L 151.526594 -62.636802 
L 151.526594 -64.53498 
L 151.526594 -64.53498 
L 150.814614 -65.143928 
L 150.102635 -64.933859 
L 149.390656 -64.729293 
L 148.678676 -64.525887 
L 147.966697 -64.318467 
L 147.254718 -64.113746 
L 146.542738 -63.906044 
L 145.830759 -63.698816 
L 145.11878 -63.4946 
L 144.4068 -63.292007 
L 143.694821 -63.087688 
L 142.982842 -62.887167 
L 142.270862 -62.692152 
L 141.558883 -62.498395 
L 140.846904 -62.304547 
L 140.134924 -62.111321 
L 139.422945 -61.920617 
L 138.710966 -61.729086 
L 137.998986 -61.539 
L 137.287007 -61.354497 
L 136.575027 -61.17364 
L 135.863048 -60.993549 
L 135.151069 -60.815516 
L 134.439089 -60.640854 
L 133.72711 -60.468231 
L 133.015131 -60.299224 
L 132.303151 -60.133287 
L 131.591172 -59.970463 
L 130.879193 -59.807046 
L 130.167213 -59.64345 
L 129.455234 -59.483418 
L 128.743255 -59.324532 
L 128.031275 -59.166603 
L 127.319296 -59.018106 
L 126.607317 -58.874752 
L 125.895337 -58.73235 
L 125.183358 -58.592656 
L 124.471379 -58.457882 
L 123.759399 -58.324562 
L 123.04742 -58.193557 
L 122.335441 -58.066665 
L 121.623461 -57.945037 
L 120.911482 -57.824103 
L 120.199503 -57.702526 
L 119.487523 -57.584683 
L 118.775544 -57.468893 
L 118.063565 -57.361493 
L 117.351585 -57.26051 
L 116.639606 -57.163287 
L 115.927627 -57.06752 
L 115.215647 -56.973035 
L 114.503668 -56.87921 
L 113.791689 -56.791315 
L 113.079709 -56.709343 
L 112.36773 -56.63153 
L 111.655751 -56.55628 
L 110.943771 -56.479492 
L 110.231792 -56.407621 
L 109.519813 -56.337042 
L 108.807833 -56.268129 
L 108.095854 -56.201633 
L 107.383875 -56.145449 
L 106.671895 -56.091893 
L 105.959916 -56.041617 
L 105.247937 -55.994314 
L 104.535957 -55.950112 
L 103.823978 -55.906214 
L 103.111998 -55.863187 
L 102.400019 -55.824481 
L 101.68804 -55.791111 
L 100.97606 -55.76126 
L 100.264081 -55.731544 
L 99.552102 -55.700793 
L 98.840122 -55.674694 
L 98.128143 -55.642223 
L 97.416164 -55.602477 
L 96.704184 -55.5495 
L 95.992205 -55.503632 
L 95.280226 -55.474404 
L 94.568246 -55.454218 
L 93.856267 -55.437146 
L 93.144288 -55.42511 
L 92.432308 -55.410742 
L 91.720329 -55.39218 
L 91.00835 -55.370053 
L 90.29637 -55.335674 
L 89.584391 -55.290942 
L 88.872412 -55.240376 
L 88.160432 -55.215857 
L 87.448453 -55.191908 
L 86.736474 -55.149954 
L 86.024494 -55.103688 
L 85.312515 -55.04134 
L 84.600536 -54.997951 
L 83.888556 -55.068808 
L 83.176577 -55.096775 
L 82.464598 -55.030637 
L 81.752618 -54.90136 
L 81.040639 -54.749424 
z
" style="stroke: #000000; stroke-opacity: 0.3"/>
    </defs>
    <g clip-path="url(#pa66ded3439)">
     <use xlink:href="#m82b724ace3" x="0" y="345.6" style="fill-opacity: 0.3; stroke: #000000; stroke-opacity: 0.3"/>
    </g>
   </g>
   <g id="FillBetweenPolyCollection_2">
    <defs>
     <path id="m42582793a5" d="M 81.039566 -54.745382 
L 81.039566 -54.678281 
L 83.170031 -54.984825 
L 85.300495 -55.025539 
L 87.430959 -54.54 
L 89.561424 -54.634766 
L 91.691888 -54.649459 
L 93.822353 -54.724415 
L 95.952817 -54.968701 
L 98.083281 -55.089664 
L 100.213746 -55.074562 
L 102.34421 -55.235006 
L 104.474674 -55.461554 
L 106.605139 -55.601886 
L 108.735603 -55.732185 
L 110.866068 -55.86366 
L 112.996532 -56.005426 
L 115.126996 -56.15051 
L 117.257461 -56.351804 
L 119.387925 -56.557159 
L 121.518389 -56.775113 
L 123.648854 -56.999946 
L 125.779318 -57.24199 
L 127.909783 -57.504088 
L 130.040247 -57.788494 
L 132.170711 -58.089489 
L 134.301176 -58.417466 
L 136.43164 -58.768905 
L 138.562104 -59.147634 
L 140.692569 -59.552552 
L 142.823033 -59.972429 
L 144.953498 -60.415085 
L 147.083962 -60.86246 
L 149.214426 -61.329048 
L 151.344891 -61.805404 
L 153.475355 -62.293445 
L 155.605819 -62.782858 
L 157.736284 -63.289223 
L 159.866748 -63.801392 
L 161.997213 -64.30992 
L 164.127677 -64.835543 
L 166.258141 -65.370667 
L 168.388606 -65.910185 
L 170.51907 -66.450307 
L 172.649534 -67.008826 
L 174.779999 -67.569239 
L 176.910463 -68.133158 
L 179.040928 -68.705346 
L 181.171392 -69.287303 
L 183.301856 -69.869609 
L 185.432321 -70.459337 
L 187.562785 -71.060162 
L 189.693249 -71.671694 
L 191.823714 -72.289312 
L 193.954178 -72.921087 
L 196.084643 -73.561931 
L 198.215107 -74.215249 
L 200.345571 -74.872664 
L 202.476036 -75.543929 
L 204.6065 -76.219653 
L 206.736964 -76.90684 
L 208.867429 -77.602 
L 210.997893 -78.312227 
L 213.128358 -79.023458 
L 215.258822 -79.748191 
L 217.389286 -80.483524 
L 219.519751 -81.217625 
L 221.650215 -81.968563 
L 223.780679 -82.731621 
L 225.911144 -83.495325 
L 228.041608 -84.271852 
L 230.172073 -85.061387 
L 232.302537 -85.852382 
L 234.433001 -86.662682 
L 236.563466 -87.484241 
L 238.69393 -88.309359 
L 240.824394 -89.147417 
L 242.954859 -89.992247 
L 245.085323 -90.847348 
L 247.215788 -91.716742 
L 249.346252 -92.591325 
L 251.476716 -93.483927 
L 253.607181 -94.392735 
L 255.737645 -95.312935 
L 257.868109 -96.239828 
L 259.998574 -97.186323 
L 262.129038 -98.139268 
L 264.259503 -99.105032 
L 266.389967 -100.078963 
L 268.520431 -101.070022 
L 270.650896 -102.072441 
L 272.78136 -103.09144 
L 274.911824 -104.117595 
L 277.042289 -105.166586 
L 279.172753 -106.232767 
L 281.303218 -107.314706 
L 283.433682 -108.414421 
L 285.564146 -109.536112 
L 287.694611 -110.662619 
L 289.825075 -111.80507 
L 291.955539 -110.356539 
L 291.955539 -114.307448 
L 291.955539 -114.307448 
L 289.825075 -120.617113 
L 287.694611 -119.469508 
L 285.564146 -118.249245 
L 283.433682 -117.011267 
L 281.303218 -115.766209 
L 279.172753 -114.521811 
L 277.042289 -113.300385 
L 274.911824 -112.123498 
L 272.78136 -110.967394 
L 270.650896 -109.845253 
L 268.520431 -108.728362 
L 266.389967 -107.636065 
L 264.259503 -106.552624 
L 262.129038 -105.481785 
L 259.998574 -104.419462 
L 257.868109 -103.373988 
L 255.737645 -102.3417 
L 253.607181 -101.328409 
L 251.476716 -100.332154 
L 249.346252 -99.355862 
L 247.215788 -98.38593 
L 245.085323 -97.429024 
L 242.954859 -96.476035 
L 240.824394 -95.537161 
L 238.69393 -94.599508 
L 236.563466 -93.688315 
L 234.433001 -92.78505 
L 232.302537 -91.89393 
L 230.172073 -91.015347 
L 228.041608 -90.150701 
L 225.911144 -89.291715 
L 223.780679 -88.448799 
L 221.650215 -87.617625 
L 219.519751 -86.790378 
L 217.389286 -85.975194 
L 215.258822 -85.168118 
L 213.128358 -84.358527 
L 210.997893 -83.562351 
L 208.867429 -82.779481 
L 206.736964 -82.006084 
L 204.6065 -81.23259 
L 202.476036 -80.479671 
L 200.345571 -79.730223 
L 198.215107 -78.986838 
L 196.084643 -78.24223 
L 193.954178 -77.524221 
L 191.823714 -76.811855 
L 189.693249 -76.105799 
L 187.562785 -75.404758 
L 185.432321 -74.71775 
L 183.301856 -74.023926 
L 181.171392 -73.336568 
L 179.040928 -72.665661 
L 176.910463 -72.000899 
L 174.779999 -71.346009 
L 172.649534 -70.714599 
L 170.51907 -70.086736 
L 168.388606 -69.457534 
L 166.258141 -68.848583 
L 164.127677 -68.243426 
L 161.997213 -67.632428 
L 159.866748 -67.031941 
L 157.736284 -66.441134 
L 155.605819 -65.845919 
L 153.475355 -65.257502 
L 151.344891 -64.675636 
L 149.214426 -64.103554 
L 147.083962 -63.539941 
L 144.953498 -62.98592 
L 142.823033 -62.439236 
L 140.692569 -61.908944 
L 138.562104 -61.387836 
L 136.43164 -60.877692 
L 134.301176 -60.390495 
L 132.170711 -59.927567 
L 130.040247 -59.478994 
L 127.909783 -59.045036 
L 125.779318 -58.640079 
L 123.648854 -58.240926 
L 121.518389 -57.864595 
L 119.387925 -57.50507 
L 117.257461 -57.19856 
L 115.126996 -56.921652 
L 112.996532 -56.683544 
L 110.866068 -56.455504 
L 108.735603 -56.238194 
L 106.605139 -55.977042 
L 104.474674 -55.759752 
L 102.34421 -55.537705 
L 100.213746 -55.368283 
L 98.083281 -55.275237 
L 95.952817 -55.09324 
L 93.822353 -54.946848 
L 91.691888 -54.88216 
L 89.561424 -54.764136 
L 87.430959 -54.688163 
L 85.300495 -55.236847 
L 83.170031 -55.082728 
L 81.039566 -54.745382 
z
" style="stroke: #ff0000; stroke-opacity: 0.3"/>
    </defs>
    <g clip-path="url(#pa66ded3439)">
     <use xlink:href="#m42582793a5" x="0" y="345.6" style="fill: #ff0000; fill-opacity: 0.3; stroke: #ff0000; stroke-opacity: 0.3"/>
    </g>
   </g>
   <g id="FillBetweenPolyCollection_3">
    <defs>
     <path id="m67d52d501f" d="M 81.039647 -54.716534 
L 81.039647 -54.691976 
L 84.589049 -55.122476 
L 88.138451 -54.78634 
L 91.687853 -54.924412 
L 95.237256 -54.948714 
L 98.786658 -54.981192 
L 102.33606 -55.089832 
L 105.885462 -55.260003 
L 109.434864 -55.26571 
L 112.984266 -55.548757 
L 116.533668 -55.960656 
L 120.08307 -56.285039 
L 123.632472 -56.548161 
L 127.181874 -56.904203 
L 130.731276 -57.313638 
L 134.280679 -57.781086 
L 137.830081 -58.303579 
L 141.379483 -58.904294 
L 144.928885 -59.573451 
L 148.478287 -60.290154 
L 152.027689 -61.035577 
L 155.577091 -61.813168 
L 159.126493 -62.630076 
L 162.675895 -63.487071 
L 166.225297 -64.381349 
L 169.7747 -65.296385 
L 173.324102 -66.243669 
L 176.873504 -67.188416 
L 180.422906 -68.156691 
L 183.972308 -69.134703 
L 187.52171 -70.136568 
L 191.071112 -71.158352 
L 194.620514 -72.231498 
L 198.169916 -73.308606 
L 201.719318 -74.41466 
L 205.26872 -75.552213 
L 208.818123 -76.731567 
L 212.367525 -77.933089 
L 215.916927 -79.15911 
L 219.466329 -80.414966 
L 223.015731 -81.697966 
L 226.565133 -82.98596 
L 230.114535 -84.303455 
L 233.663937 -85.672031 
L 237.213339 -87.071468 
L 240.762741 -88.514249 
L 244.312144 -89.975821 
L 247.861546 -91.464194 
L 251.410948 -92.975423 
L 254.96035 -94.548679 
L 258.509752 -96.155351 
L 262.059154 -97.822937 
L 265.608556 -99.542421 
L 269.157958 -101.280719 
L 272.70736 -103.05421 
L 276.256762 -104.867787 
L 279.806164 -106.757177 
L 283.355567 -108.690621 
L 286.904969 -110.679361 
L 290.454371 -112.726788 
L 294.003773 -114.833995 
L 297.553175 -116.980549 
L 301.102577 -119.19215 
L 304.651979 -121.494499 
L 308.201381 -123.845324 
L 311.750783 -126.26375 
L 315.300185 -128.757853 
L 318.849588 -131.327845 
L 322.39899 -133.973882 
L 325.948392 -136.698439 
L 329.497794 -139.530988 
L 333.047196 -142.430599 
L 336.596598 -145.412257 
L 340.146 -148.487675 
L 343.695402 -151.671724 
L 347.244804 -154.9451 
L 350.794206 -158.343524 
L 354.343608 -161.858519 
L 357.893011 -165.50241 
L 361.442413 -169.264078 
L 364.991815 -173.147545 
L 368.541217 -177.176198 
L 372.090619 -181.323877 
L 375.640021 -185.607025 
L 379.189423 -190.033912 
L 382.738825 -194.615006 
L 386.288227 -199.353813 
L 389.837629 -204.275331 
L 393.387032 -209.361282 
L 396.936434 -214.640411 
L 400.485836 -220.107782 
L 404.035238 -225.774938 
L 407.58464 -231.654589 
L 411.134042 -237.758554 
L 414.683444 -244.079402 
L 418.232846 -250.617649 
L 421.782248 -257.343965 
L 425.33165 -264.145362 
L 428.881052 -270.765795 
L 432.430455 -222.474611 
L 432.430455 -226.395439 
L 432.430455 -226.395439 
L 428.881052 -277.908033 
L 425.33165 -271.178269 
L 421.782248 -264.196909 
L 418.232846 -257.305343 
L 414.683444 -250.617279 
L 411.134042 -244.130418 
L 407.58464 -237.868173 
L 404.035238 -231.835838 
L 400.485836 -226.008186 
L 396.936434 -220.384935 
L 393.387032 -214.974319 
L 389.837629 -209.743713 
L 386.288227 -204.70303 
L 382.738825 -199.830377 
L 379.189423 -195.132218 
L 375.640021 -190.589662 
L 372.090619 -186.204076 
L 368.541217 -181.944712 
L 364.991815 -177.827811 
L 361.442413 -173.832571 
L 357.893011 -169.96316 
L 354.343608 -166.214312 
L 350.794206 -162.589985 
L 347.244804 -159.085522 
L 343.695402 -155.713477 
L 340.146 -152.435855 
L 336.596598 -149.27442 
L 333.047196 -146.201709 
L 329.497794 -143.217962 
L 325.948392 -140.315233 
L 322.39899 -137.512552 
L 318.849588 -134.796449 
L 315.300185 -132.162326 
L 311.750783 -129.605465 
L 308.201381 -127.11626 
L 304.651979 -124.693844 
L 301.102577 -122.319826 
L 297.553175 -120.032848 
L 294.003773 -117.820159 
L 290.454371 -115.654761 
L 286.904969 -113.54391 
L 283.355567 -111.49229 
L 279.806164 -109.507237 
L 276.256762 -107.574002 
L 272.70736 -105.711296 
L 269.157958 -103.893419 
L 265.608556 -102.117202 
L 262.059154 -100.362932 
L 258.509752 -98.644647 
L 254.96035 -96.976334 
L 251.410948 -95.36116 
L 247.861546 -93.792115 
L 244.312144 -92.252215 
L 240.762741 -90.757069 
L 237.213339 -89.290023 
L 233.663937 -87.849493 
L 230.114535 -86.454359 
L 226.565133 -85.104137 
L 223.015731 -83.767003 
L 219.466329 -82.446952 
L 215.916927 -81.163813 
L 212.367525 -79.897535 
L 208.818123 -78.659577 
L 205.26872 -77.459004 
L 201.719318 -76.287411 
L 198.169916 -75.127803 
L 194.620514 -74.007699 
L 191.071112 -72.89605 
L 187.52171 -71.809719 
L 183.972308 -70.766732 
L 180.422906 -69.757664 
L 176.873504 -68.771651 
L 173.324102 -67.79974 
L 169.7747 -66.855104 
L 166.225297 -65.902708 
L 162.675895 -64.993307 
L 159.126493 -64.085885 
L 155.577091 -63.222481 
L 152.027689 -62.389566 
L 148.478287 -61.588608 
L 144.928885 -60.787236 
L 141.379483 -60.029282 
L 137.830081 -59.316528 
L 134.280679 -58.66848 
L 130.731276 -58.10218 
L 127.181874 -57.608413 
L 123.632472 -57.177577 
L 120.08307 -56.798737 
L 116.533668 -56.449795 
L 112.984266 -56.120521 
L 109.434864 -55.744737 
L 105.885462 -55.429657 
L 102.33606 -55.410617 
L 98.786658 -55.239424 
L 95.237256 -55.172517 
L 91.687853 -54.974864 
L 88.138451 -54.848757 
L 84.589049 -55.276094 
L 81.039647 -54.716534 
z
" style="stroke: #0000ff; stroke-opacity: 0.3"/>
    </defs>
    <g clip-path="url(#pa66ded3439)">
     <use xlink:href="#m67d52d501f" x="0" y="345.6" style="fill: #0000ff; fill-opacity: 0.3; stroke: #0000ff; stroke-opacity: 0.3"/>
    </g>
   </g>
   <g id="FillBetweenPolyCollection_4">
    <defs>
     <path id="m61680e601f" d="M 81.039545 -54.748176 
L 81.039545 -54.688437 
L 84.588759 -55.464329 
L 88.137972 -54.795947 
L 91.687185 -54.83623 
L 95.236399 -54.880342 
L 98.785612 -54.976981 
L 102.334825 -55.138167 
L 105.884039 -55.308161 
L 109.433252 -55.430635 
L 112.982465 -55.523775 
L 116.531679 -55.658073 
L 120.080892 -55.697584 
L 123.630105 -55.830933 
L 127.179319 -56.174847 
L 130.728532 -56.63586 
L 134.277745 -57.091123 
L 137.826959 -57.55828 
L 141.376172 -58.078006 
L 144.925385 -58.629814 
L 148.474599 -59.204747 
L 152.023812 -59.852611 
L 155.573025 -60.570644 
L 159.122239 -61.340188 
L 162.671452 -62.134278 
L 166.220665 -62.953097 
L 169.769879 -63.815614 
L 173.319092 -64.695411 
L 176.868305 -65.603786 
L 180.417519 -66.577198 
L 183.966732 -67.573551 
L 187.515945 -68.573124 
L 191.065159 -69.585693 
L 194.614372 -70.61868 
L 198.163585 -71.671992 
L 201.712799 -72.755284 
L 205.262012 -73.881119 
L 208.811225 -75.038095 
L 212.360439 -76.206732 
L 215.909652 -77.38797 
L 219.458865 -78.61445 
L 223.008079 -79.866418 
L 226.557292 -81.160739 
L 230.106505 -82.493415 
L 233.655719 -83.866959 
L 237.204932 -85.246104 
L 240.754145 -86.633008 
L 244.303359 -88.058819 
L 247.852572 -89.536312 
L 251.401785 -91.057792 
L 254.950999 -92.621799 
L 258.500212 -94.22744 
L 262.049425 -95.850802 
L 265.598638 -97.496573 
L 269.147852 -99.189863 
L 272.697065 -100.96333 
L 276.246278 -102.797691 
L 279.795492 -104.671362 
L 283.344705 -106.578917 
L 286.893918 -108.528982 
L 290.443132 -110.52947 
L 293.992345 -112.593826 
L 297.541558 -114.752617 
L 301.090772 -116.971582 
L 304.639985 -119.24568 
L 308.189198 -121.56824 
L 311.738412 -123.960888 
L 315.287625 -126.444019 
L 318.836838 -129.001688 
L 322.386052 -131.65116 
L 325.935265 -134.37032 
L 329.484478 -137.159255 
L 333.033692 -140.029383 
L 336.582905 -143.011661 
L 340.132118 -146.095733 
L 343.681332 -149.282659 
L 347.230545 -152.576036 
L 350.779758 -155.97748 
L 354.328972 -159.493765 
L 357.878185 -163.127262 
L 361.427398 -166.895499 
L 364.976612 -170.803345 
L 368.525825 -174.839457 
L 372.075038 -179.007922 
L 375.624252 -183.330257 
L 379.173465 -187.803897 
L 382.722678 -192.43727 
L 386.271892 -197.229685 
L 389.821105 -202.214738 
L 393.370318 -207.390887 
L 396.919532 -212.745489 
L 400.468745 -218.28688 
L 404.017958 -224.001802 
L 407.567172 -229.905811 
L 411.116385 -235.984617 
L 414.665598 -242.250455 
L 418.214812 -248.715502 
L 421.764025 -255.305742 
L 425.313238 -261.906495 
L 428.862452 -268.348665 
L 432.411665 -218.999046 
L 432.411665 -240.642714 
L 432.411665 -240.642714 
L 428.862452 -306.14 
L 425.313238 -298.751375 
L 421.764025 -291.04591 
L 418.214812 -283.340684 
L 414.665598 -275.788139 
L 411.116385 -268.422905 
L 407.567172 -261.255477 
L 404.017958 -254.259755 
L 400.468745 -247.461556 
L 396.919532 -240.879307 
L 393.370318 -234.535208 
L 389.821105 -228.407706 
L 386.271892 -222.50167 
L 382.722678 -216.80157 
L 379.173465 -211.295969 
L 375.624252 -205.993245 
L 372.075038 -200.878182 
L 368.525825 -195.968104 
L 364.976612 -191.234705 
L 361.427398 -186.65644 
L 357.878185 -182.238537 
L 354.328972 -177.96846 
L 350.779758 -173.847608 
L 347.230545 -169.852443 
L 343.681332 -165.997088 
L 340.132118 -162.281071 
L 336.582905 -158.687975 
L 333.033692 -155.208665 
L 329.484478 -151.848603 
L 325.935265 -148.595102 
L 322.386052 -145.431411 
L 318.836838 -142.36861 
L 315.287625 -139.424197 
L 311.738412 -136.571595 
L 308.189198 -133.800696 
L 304.639985 -131.092977 
L 301.090772 -128.471905 
L 297.541558 -125.931493 
L 293.992345 -123.468467 
L 290.443132 -121.095721 
L 286.893918 -118.788396 
L 283.344705 -116.534645 
L 279.795492 -114.327649 
L 276.246278 -112.204425 
L 272.697065 -110.16531 
L 269.147852 -108.186659 
L 265.598638 -106.251601 
L 262.049425 -104.351813 
L 258.500212 -102.485012 
L 254.950999 -100.666523 
L 251.401785 -98.921481 
L 247.852572 -97.233932 
L 244.303359 -95.594636 
L 240.754145 -93.973972 
L 237.204932 -92.363505 
L 233.655719 -90.805391 
L 230.106505 -89.285981 
L 226.557292 -87.822371 
L 223.008079 -86.409464 
L 219.458865 -85.016416 
L 215.909652 -83.629871 
L 212.360439 -82.263407 
L 208.811225 -80.931211 
L 205.262012 -79.647763 
L 201.712799 -78.40326 
L 198.163585 -77.18288 
L 194.614372 -75.992821 
L 191.065159 -74.832568 
L 187.515945 -73.680157 
L 183.966732 -72.556906 
L 180.417519 -71.466072 
L 176.868305 -70.411067 
L 173.319092 -69.376292 
L 169.769879 -68.355234 
L 166.220665 -67.350084 
L 162.671452 -66.364154 
L 159.122239 -65.424658 
L 155.573025 -64.513357 
L 152.023812 -63.643722 
L 148.474599 -62.797282 
L 144.925385 -61.977593 
L 141.376172 -61.173728 
L 137.826959 -60.381398 
L 134.277745 -59.65328 
L 130.728532 -58.967353 
L 127.179319 -58.329964 
L 123.630105 -57.719565 
L 120.080892 -57.215443 
L 116.531679 -56.908692 
L 112.982465 -56.70426 
L 109.433252 -56.361221 
L 105.884039 -55.976434 
L 102.334825 -55.679213 
L 98.785612 -55.50438 
L 95.236399 -55.340676 
L 91.687185 -55.122672 
L 88.137972 -54.939776 
L 84.588759 -55.733697 
L 81.039545 -54.748176 
z
" style="stroke: #008000; stroke-opacity: 0.3"/>
    </defs>
    <g clip-path="url(#pa66ded3439)">
     <use xlink:href="#m61680e601f" x="0" y="345.6" style="fill: #008000; fill-opacity: 0.3; stroke: #008000; stroke-opacity: 0.3"/>
    </g>
   </g>
   <g id="matplotlib.axis_1">
    <g id="xtick_1">
     <g id="line2d_1">
      <path d="M 81.039336 303.64 
L 81.039336 26.88 
" clip-path="url(#pa66ded3439)" style="fill: none; stroke: #b0b0b0; stroke-opacity: 0.3; stroke-width: 0.8; stroke-linecap: square"/>
     </g>
     <g id="line2d_2">
      <defs>
       <path id="mc8f011dcf1" d="M 0 0 
L 0 3.5 
" style="stroke: #000000; stroke-width: 0.8"/>
      </defs>
      <g>
       <use xlink:href="#mc8f011dcf1" x="81.039336" y="303.64" style="stroke: #000000; stroke-width: 0.8"/>
      </g>
     </g>
     <g id="text_1">
      <!-- 0.0 -->
      <g transform="translate(73.087773 318.238437) scale(0.1 -0.1)">
       <defs>
        <path id="DejaVuSans-30" d="M 2034 4250 
Q 1547 4250 1301 3770 
Q 1056 3291 1056 2328 
Q 1056 1369 1301 889 
Q 1547 409 2034 409 
Q 2525 409 2770 889 
Q 3016 1369 3016 2328 
Q 3016 3291 2770 3770 
Q 2525 4250 2034 4250 
z
M 2034 4750 
Q 2819 4750 3233 4129 
Q 3647 3509 3647 2328 
Q 3647 1150 3233 529 
Q 2819 -91 2034 -91 
Q 1250 -91 836 529 
Q 422 1150 422 2328 
Q 422 3509 836 4129 
Q 1250 4750 2034 4750 
z
" transform="scale(0.015625)"/>
        <path id="DejaVuSans-2e" d="M 684 794 
L 1344 794 
L 1344 0 
L 684 0 
L 684 794 
z
" transform="scale(0.015625)"/>
       </defs>
       <use xlink:href="#DejaVuSans-30"/>
       <use xlink:href="#DejaVuSans-2e" transform="translate(63.623047 0)"/>
       <use xlink:href="#DejaVuSans-30" transform="translate(95.410156 0)"/>
      </g>
     </g>
    </g>
    <g id="xtick_2">
     <g id="line2d_3">
      <path d="M 158.303588 303.64 
L 158.303588 26.88 
" clip-path="url(#pa66ded3439)" style="fill: none; stroke: #b0b0b0; stroke-opacity: 0.3; stroke-width: 0.8; stroke-linecap: square"/>
     </g>
     <g id="line2d_4">
      <g>
       <use xlink:href="#mc8f011dcf1" x="158.303588" y="303.64" style="stroke: #000000; stroke-width: 0.8"/>
      </g>
     </g>
     <g id="text_2">
      <!-- 0.1 -->
      <g transform="translate(150.352025 318.238437) scale(0.1 -0.1)">
       <defs>
        <path id="DejaVuSans-31" d="M 794 531 
L 1825 531 
L 1825 4091 
L 703 3866 
L 703 4441 
L 1819 4666 
L 2450 4666 
L 2450 531 
L 3481 531 
L 3481 0 
L 794 0 
L 794 531 
z
" transform="scale(0.015625)"/>
       </defs>
       <use xlink:href="#DejaVuSans-30"/>
       <use xlink:href="#DejaVuSans-2e" transform="translate(63.623047 0)"/>
       <use xlink:href="#DejaVuSans-31" transform="translate(95.410156 0)"/>
      </g>
     </g>
    </g>
    <g id="xtick_3">
     <g id="line2d_5">
      <path d="M 235.56784 303.64 
L 235.56784 26.88 
" clip-path="url(#pa66ded3439)" style="fill: none; stroke: #b0b0b0; stroke-opacity: 0.3; stroke-width: 0.8; stroke-linecap: square"/>
     </g>
     <g id="line2d_6">
      <g>
       <use xlink:href="#mc8f011dcf1" x="235.56784" y="303.64" style="stroke: #000000; stroke-width: 0.8"/>
      </g>
     </g>
     <g id="text_3">
      <!-- 0.2 -->
      <g transform="translate(227.616277 318.238437) scale(0.1 -0.1)">
       <defs>
        <path id="DejaVuSans-32" d="M 1228 531 
L 3431 531 
L 3431 0 
L 469 0 
L 469 531 
Q 828 903 1448 1529 
Q 2069 2156 2228 2338 
Q 2531 2678 2651 2914 
Q 2772 3150 2772 3378 
Q 2772 3750 2511 3984 
Q 2250 4219 1831 4219 
Q 1534 4219 1204 4116 
Q 875 4013 500 3803 
L 500 4441 
Q 881 4594 1212 4672 
Q 1544 4750 1819 4750 
Q 2544 4750 2975 4387 
Q 3406 4025 3406 3419 
Q 3406 3131 3298 2873 
Q 3191 2616 2906 2266 
Q 2828 2175 2409 1742 
Q 1991 1309 1228 531 
z
" transform="scale(0.015625)"/>
       </defs>
       <use xlink:href="#DejaVuSans-30"/>
       <use xlink:href="#DejaVuSans-2e" transform="translate(63.623047 0)"/>
       <use xlink:href="#DejaVuSans-32" transform="translate(95.410156 0)"/>
      </g>
     </g>
    </g>
    <g id="xtick_4">
     <g id="line2d_7">
      <path d="M 312.832092 303.64 
L 312.832092 26.88 
" clip-path="url(#pa66ded3439)" style="fill: none; stroke: #b0b0b0; stroke-opacity: 0.3; stroke-width: 0.8; stroke-linecap: square"/>
     </g>
     <g id="line2d_8">
      <g>
       <use xlink:href="#mc8f011dcf1" x="312.832092" y="303.64" style="stroke: #000000; stroke-width: 0.8"/>
      </g>
     </g>
     <g id="text_4">
      <!-- 0.3 -->
      <g transform="translate(304.880529 318.238437) scale(0.1 -0.1)">
       <defs>
        <path id="DejaVuSans-33" d="M 2597 2516 
Q 3050 2419 3304 2112 
Q 3559 1806 3559 1356 
Q 3559 666 3084 287 
Q 2609 -91 1734 -91 
Q 1441 -91 1130 -33 
Q 819 25 488 141 
L 488 750 
Q 750 597 1062 519 
Q 1375 441 1716 441 
Q 2309 441 2620 675 
Q 2931 909 2931 1356 
Q 2931 1769 2642 2001 
Q 2353 2234 1838 2234 
L 1294 2234 
L 1294 2753 
L 1863 2753 
Q 2328 2753 2575 2939 
Q 2822 3125 2822 3475 
Q 2822 3834 2567 4026 
Q 2313 4219 1838 4219 
Q 1578 4219 1281 4162 
Q 984 4106 628 3988 
L 628 4550 
Q 988 4650 1302 4700 
Q 1616 4750 1894 4750 
Q 2613 4750 3031 4423 
Q 3450 4097 3450 3541 
Q 3450 3153 3228 2886 
Q 3006 2619 2597 2516 
z
" transform="scale(0.015625)"/>
       </defs>
       <use xlink:href="#DejaVuSans-30"/>
       <use xlink:href="#DejaVuSans-2e" transform="translate(63.623047 0)"/>
       <use xlink:href="#DejaVuSans-33" transform="translate(95.410156 0)"/>
      </g>
     </g>
    </g>
    <g id="xtick_5">
     <g id="line2d_9">
      <path d="M 390.096344 303.64 
L 390.096344 26.88 
" clip-path="url(#pa66ded3439)" style="fill: none; stroke: #b0b0b0; stroke-opacity: 0.3; stroke-width: 0.8; stroke-linecap: square"/>
     </g>
     <g id="line2d_10">
      <g>
       <use xlink:href="#mc8f011dcf1" x="390.096344" y="303.64" style="stroke: #000000; stroke-width: 0.8"/>
      </g>
     </g>
     <g id="text_5">
      <!-- 0.4 -->
      <g transform="translate(382.144781 318.238437) scale(0.1 -0.1)">
       <defs>
        <path id="DejaVuSans-34" d="M 2419 4116 
L 825 1625 
L 2419 1625 
L 2419 4116 
z
M 2253 4666 
L 3047 4666 
L 3047 1625 
L 3713 1625 
L 3713 1100 
L 3047 1100 
L 3047 0 
L 2419 0 
L 2419 1100 
L 313 1100 
L 313 1709 
L 2253 4666 
z
" transform="scale(0.015625)"/>
       </defs>
       <use xlink:href="#DejaVuSans-30"/>
       <use xlink:href="#DejaVuSans-2e" transform="translate(63.623047 0)"/>
       <use xlink:href="#DejaVuSans-34" transform="translate(95.410156 0)"/>
      </g>
     </g>
    </g>
    <g id="text_6">
     <!-- Strain [-] -->
     <g transform="translate(234.62875 331.916562) scale(0.1 -0.1)">
      <defs>
       <path id="DejaVuSans-53" d="M 3425 4513 
L 3425 3897 
Q 3066 4069 2747 4153 
Q 2428 4238 2131 4238 
Q 1616 4238 1336 4038 
Q 1056 3838 1056 3469 
Q 1056 3159 1242 3001 
Q 1428 2844 1947 2747 
L 2328 2669 
Q 3034 2534 3370 2195 
Q 3706 1856 3706 1288 
Q 3706 609 3251 259 
Q 2797 -91 1919 -91 
Q 1588 -91 1214 -16 
Q 841 59 441 206 
L 441 856 
Q 825 641 1194 531 
Q 1563 422 1919 422 
Q 2459 422 2753 634 
Q 3047 847 3047 1241 
Q 3047 1584 2836 1778 
Q 2625 1972 2144 2069 
L 1759 2144 
Q 1053 2284 737 2584 
Q 422 2884 422 3419 
Q 422 4038 858 4394 
Q 1294 4750 2059 4750 
Q 2388 4750 2728 4690 
Q 3069 4631 3425 4513 
z
" transform="scale(0.015625)"/>
       <path id="DejaVuSans-74" d="M 1172 4494 
L 1172 3500 
L 2356 3500 
L 2356 3053 
L 1172 3053 
L 1172 1153 
Q 1172 725 1289 603 
Q 1406 481 1766 481 
L 2356 481 
L 2356 0 
L 1766 0 
Q 1100 0 847 248 
Q 594 497 594 1153 
L 594 3053 
L 172 3053 
L 172 3500 
L 594 3500 
L 594 4494 
L 1172 4494 
z
" transform="scale(0.015625)"/>
       <path id="DejaVuSans-72" d="M 2631 2963 
Q 2534 3019 2420 3045 
Q 2306 3072 2169 3072 
Q 1681 3072 1420 2755 
Q 1159 2438 1159 1844 
L 1159 0 
L 581 0 
L 581 3500 
L 1159 3500 
L 1159 2956 
Q 1341 3275 1631 3429 
Q 1922 3584 2338 3584 
Q 2397 3584 2469 3576 
Q 2541 3569 2628 3553 
L 2631 2963 
z
" transform="scale(0.015625)"/>
       <path id="DejaVuSans-61" d="M 2194 1759 
Q 1497 1759 1228 1600 
Q 959 1441 959 1056 
Q 959 750 1161 570 
Q 1363 391 1709 391 
Q 2188 391 2477 730 
Q 2766 1069 2766 1631 
L 2766 1759 
L 2194 1759 
z
M 3341 1997 
L 3341 0 
L 2766 0 
L 2766 531 
Q 2569 213 2275 61 
Q 1981 -91 1556 -91 
Q 1019 -91 701 211 
Q 384 513 384 1019 
Q 384 1609 779 1909 
Q 1175 2209 1959 2209 
L 2766 2209 
L 2766 2266 
Q 2766 2663 2505 2880 
Q 2244 3097 1772 3097 
Q 1472 3097 1187 3025 
Q 903 2953 641 2809 
L 641 3341 
Q 956 3463 1253 3523 
Q 1550 3584 1831 3584 
Q 2591 3584 2966 3190 
Q 3341 2797 3341 1997 
z
" transform="scale(0.015625)"/>
       <path id="DejaVuSans-69" d="M 603 3500 
L 1178 3500 
L 1178 0 
L 603 0 
L 603 3500 
z
M 603 4863 
L 1178 4863 
L 1178 4134 
L 603 4134 
L 603 4863 
z
" transform="scale(0.015625)"/>
       <path id="DejaVuSans-6e" d="M 3513 2113 
L 3513 0 
L 2938 0 
L 2938 2094 
Q 2938 2591 2744 2837 
Q 2550 3084 2163 3084 
Q 1697 3084 1428 2787 
Q 1159 2491 1159 1978 
L 1159 0 
L 581 0 
L 581 3500 
L 1159 3500 
L 1159 2956 
Q 1366 3272 1645 3428 
Q 1925 3584 2291 3584 
Q 2894 3584 3203 3211 
Q 3513 2838 3513 2113 
z
" transform="scale(0.015625)"/>
       <path id="DejaVuSans-20" transform="scale(0.015625)"/>
       <path id="DejaVuSans-5b" d="M 550 4863 
L 1875 4863 
L 1875 4416 
L 1125 4416 
L 1125 -397 
L 1875 -397 
L 1875 -844 
L 550 -844 
L 550 4863 
z
" transform="scale(0.015625)"/>
       <path id="DejaVuSans-2d" d="M 313 2009 
L 1997 2009 
L 1997 1497 
L 313 1497 
L 313 2009 
z
" transform="scale(0.015625)"/>
       <path id="DejaVuSans-5d" d="M 1947 4863 
L 1947 -844 
L 622 -844 
L 622 -397 
L 1369 -397 
L 1369 4416 
L 622 4416 
L 622 4863 
L 1947 4863 
z
" transform="scale(0.015625)"/>
      </defs>
      <use xlink:href="#DejaVuSans-53"/>
      <use xlink:href="#DejaVuSans-74" transform="translate(63.476562 0)"/>
      <use xlink:href="#DejaVuSans-72" transform="translate(102.685547 0)"/>
      <use xlink:href="#DejaVuSans-61" transform="translate(143.798828 0)"/>
      <use xlink:href="#DejaVuSans-69" transform="translate(205.078125 0)"/>
      <use xlink:href="#DejaVuSans-6e" transform="translate(232.861328 0)"/>
      <use xlink:href="#DejaVuSans-20" transform="translate(296.240234 0)"/>
      <use xlink:href="#DejaVuSans-5b" transform="translate(328.027344 0)"/>
      <use xlink:href="#DejaVuSans-2d" transform="translate(367.041016 0)"/>
      <use xlink:href="#DejaVuSans-5d" transform="translate(403.125 0)"/>
     </g>
    </g>
   </g>
   <g id="matplotlib.axis_2">
    <g id="ytick_1">
     <g id="line2d_11">
      <path d="M 63.47 290.814689 
L 450 290.814689 
" clip-path="url(#pa66ded3439)" style="fill: none; stroke: #b0b0b0; stroke-opacity: 0.3; stroke-width: 0.8; stroke-linecap: square"/>
     </g>
     <g id="line2d_12">
      <defs>
       <path id="m46e0620923" d="M 0 0 
L -3.5 0 
" style="stroke: #000000; stroke-width: 0.8"/>
      </defs>
      <g>
       <use xlink:href="#m46e0620923" x="63.47" y="290.814689" style="stroke: #000000; stroke-width: 0.8"/>
      </g>
     </g>
     <g id="text_7">
      <!-- 0 -->
      <g transform="translate(50.1075 294.613907) scale(0.1 -0.1)">
       <use xlink:href="#DejaVuSans-30"/>
      </g>
     </g>
    </g>
    <g id="ytick_2">
     <g id="line2d_13">
      <path d="M 63.47 244.293815 
L 450 244.293815 
" clip-path="url(#pa66ded3439)" style="fill: none; stroke: #b0b0b0; stroke-opacity: 0.3; stroke-width: 0.8; stroke-linecap: square"/>
     </g>
     <g id="line2d_14">
      <g>
       <use xlink:href="#m46e0620923" x="63.47" y="244.293815" style="stroke: #000000; stroke-width: 0.8"/>
      </g>
     </g>
     <g id="text_8">
      <!-- 5000 -->
      <g transform="translate(31.02 248.093034) scale(0.1 -0.1)">
       <defs>
        <path id="DejaVuSans-35" d="M 691 4666 
L 3169 4666 
L 3169 4134 
L 1269 4134 
L 1269 2991 
Q 1406 3038 1543 3061 
Q 1681 3084 1819 3084 
Q 2600 3084 3056 2656 
Q 3513 2228 3513 1497 
Q 3513 744 3044 326 
Q 2575 -91 1722 -91 
Q 1428 -91 1123 -41 
Q 819 9 494 109 
L 494 744 
Q 775 591 1075 516 
Q 1375 441 1709 441 
Q 2250 441 2565 725 
Q 2881 1009 2881 1497 
Q 2881 1984 2565 2268 
Q 2250 2553 1709 2553 
Q 1456 2553 1204 2497 
Q 953 2441 691 2322 
L 691 4666 
z
" transform="scale(0.015625)"/>
       </defs>
       <use xlink:href="#DejaVuSans-35"/>
       <use xlink:href="#DejaVuSans-30" transform="translate(63.623047 0)"/>
       <use xlink:href="#DejaVuSans-30" transform="translate(127.246094 0)"/>
       <use xlink:href="#DejaVuSans-30" transform="translate(190.869141 0)"/>
      </g>
     </g>
    </g>
    <g id="ytick_3">
     <g id="line2d_15">
      <path d="M 63.47 197.772942 
L 450 197.772942 
" clip-path="url(#pa66ded3439)" style="fill: none; stroke: #b0b0b0; stroke-opacity: 0.3; stroke-width: 0.8; stroke-linecap: square"/>
     </g>
     <g id="line2d_16">
      <g>
       <use xlink:href="#m46e0620923" x="63.47" y="197.772942" style="stroke: #000000; stroke-width: 0.8"/>
      </g>
     </g>
     <g id="text_9">
      <!-- 10000 -->
      <g transform="translate(24.6575 201.572161) scale(0.1 -0.1)">
       <use xlink:href="#DejaVuSans-31"/>
       <use xlink:href="#DejaVuSans-30" transform="translate(63.623047 0)"/>
       <use xlink:href="#DejaVuSans-30" transform="translate(127.246094 0)"/>
       <use xlink:href="#DejaVuSans-30" transform="translate(190.869141 0)"/>
       <use xlink:href="#DejaVuSans-30" transform="translate(254.492188 0)"/>
      </g>
     </g>
    </g>
    <g id="ytick_4">
     <g id="line2d_17">
      <path d="M 63.47 151.252069 
L 450 151.252069 
" clip-path="url(#pa66ded3439)" style="fill: none; stroke: #b0b0b0; stroke-opacity: 0.3; stroke-width: 0.8; stroke-linecap: square"/>
     </g>
     <g id="line2d_18">
      <g>
       <use xlink:href="#m46e0620923" x="63.47" y="151.252069" style="stroke: #000000; stroke-width: 0.8"/>
      </g>
     </g>
     <g id="text_10">
      <!-- 15000 -->
      <g transform="translate(24.6575 155.051287) scale(0.1 -0.1)">
       <use xlink:href="#DejaVuSans-31"/>
       <use xlink:href="#DejaVuSans-35" transform="translate(63.623047 0)"/>
       <use xlink:href="#DejaVuSans-30" transform="translate(127.246094 0)"/>
       <use xlink:href="#DejaVuSans-30" transform="translate(190.869141 0)"/>
       <use xlink:href="#DejaVuSans-30" transform="translate(254.492188 0)"/>
      </g>
     </g>
    </g>
    <g id="ytick_5">
     <g id="line2d_19">
      <path d="M 63.47 104.731195 
L 450 104.731195 
" clip-path="url(#pa66ded3439)" style="fill: none; stroke: #b0b0b0; stroke-opacity: 0.3; stroke-width: 0.8; stroke-linecap: square"/>
     </g>
     <g id="line2d_20">
      <g>
       <use xlink:href="#m46e0620923" x="63.47" y="104.731195" style="stroke: #000000; stroke-width: 0.8"/>
      </g>
     </g>
     <g id="text_11">
      <!-- 20000 -->
      <g transform="translate(24.6575 108.530414) scale(0.1 -0.1)">
       <use xlink:href="#DejaVuSans-32"/>
       <use xlink:href="#DejaVuSans-30" transform="translate(63.623047 0)"/>
       <use xlink:href="#DejaVuSans-30" transform="translate(127.246094 0)"/>
       <use xlink:href="#DejaVuSans-30" transform="translate(190.869141 0)"/>
       <use xlink:href="#DejaVuSans-30" transform="translate(254.492188 0)"/>
      </g>
     </g>
    </g>
    <g id="ytick_6">
     <g id="line2d_21">
      <path d="M 63.47 58.210322 
L 450 58.210322 
" clip-path="url(#pa66ded3439)" style="fill: none; stroke: #b0b0b0; stroke-opacity: 0.3; stroke-width: 0.8; stroke-linecap: square"/>
     </g>
     <g id="line2d_22">
      <g>
       <use xlink:href="#m46e0620923" x="63.47" y="58.210322" style="stroke: #000000; stroke-width: 0.8"/>
      </g>
     </g>
     <g id="text_12">
      <!-- 25000 -->
      <g transform="translate(24.6575 62.009541) scale(0.1 -0.1)">
       <use xlink:href="#DejaVuSans-32"/>
       <use xlink:href="#DejaVuSans-35" transform="translate(63.623047 0)"/>
       <use xlink:href="#DejaVuSans-30" transform="translate(127.246094 0)"/>
       <use xlink:href="#DejaVuSans-30" transform="translate(190.869141 0)"/>
       <use xlink:href="#DejaVuSans-30" transform="translate(254.492188 0)"/>
      </g>
     </g>
    </g>
    <g id="text_13">
     <!-- Stress [Pa] -->
     <g transform="translate(18.577813 191.967812) rotate(-90) scale(0.1 -0.1)">
      <defs>
       <path id="DejaVuSans-65" d="M 3597 1894 
L 3597 1613 
L 953 1613 
Q 991 1019 1311 708 
Q 1631 397 2203 397 
Q 2534 397 2845 478 
Q 3156 559 3463 722 
L 3463 178 
Q 3153 47 2828 -22 
Q 2503 -91 2169 -91 
Q 1331 -91 842 396 
Q 353 884 353 1716 
Q 353 2575 817 3079 
Q 1281 3584 2069 3584 
Q 2775 3584 3186 3129 
Q 3597 2675 3597 1894 
z
M 3022 2063 
Q 3016 2534 2758 2815 
Q 2500 3097 2075 3097 
Q 1594 3097 1305 2825 
Q 1016 2553 972 2059 
L 3022 2063 
z
" transform="scale(0.015625)"/>
       <path id="DejaVuSans-73" d="M 2834 3397 
L 2834 2853 
Q 2591 2978 2328 3040 
Q 2066 3103 1784 3103 
Q 1356 3103 1142 2972 
Q 928 2841 928 2578 
Q 928 2378 1081 2264 
Q 1234 2150 1697 2047 
L 1894 2003 
Q 2506 1872 2764 1633 
Q 3022 1394 3022 966 
Q 3022 478 2636 193 
Q 2250 -91 1575 -91 
Q 1294 -91 989 -36 
Q 684 19 347 128 
L 347 722 
Q 666 556 975 473 
Q 1284 391 1588 391 
Q 1994 391 2212 530 
Q 2431 669 2431 922 
Q 2431 1156 2273 1281 
Q 2116 1406 1581 1522 
L 1381 1569 
Q 847 1681 609 1914 
Q 372 2147 372 2553 
Q 372 3047 722 3315 
Q 1072 3584 1716 3584 
Q 2034 3584 2315 3537 
Q 2597 3491 2834 3397 
z
" transform="scale(0.015625)"/>
       <path id="DejaVuSans-50" d="M 1259 4147 
L 1259 2394 
L 2053 2394 
Q 2494 2394 2734 2622 
Q 2975 2850 2975 3272 
Q 2975 3691 2734 3919 
Q 2494 4147 2053 4147 
L 1259 4147 
z
M 628 4666 
L 2053 4666 
Q 2838 4666 3239 4311 
Q 3641 3956 3641 3272 
Q 3641 2581 3239 2228 
Q 2838 1875 2053 1875 
L 1259 1875 
L 1259 0 
L 628 0 
L 628 4666 
z
" transform="scale(0.015625)"/>
      </defs>
      <use xlink:href="#DejaVuSans-53"/>
      <use xlink:href="#DejaVuSans-74" transform="translate(63.476562 0)"/>
      <use xlink:href="#DejaVuSans-72" transform="translate(102.685547 0)"/>
      <use xlink:href="#DejaVuSans-65" transform="translate(141.548828 0)"/>
      <use xlink:href="#DejaVuSans-73" transform="translate(203.072266 0)"/>
      <use xlink:href="#DejaVuSans-73" transform="translate(255.171875 0)"/>
      <use xlink:href="#DejaVuSans-20" transform="translate(307.271484 0)"/>
      <use xlink:href="#DejaVuSans-5b" transform="translate(339.058594 0)"/>
      <use xlink:href="#DejaVuSans-50" transform="translate(378.072266 0)"/>
      <use xlink:href="#DejaVuSans-61" transform="translate(433.875 0)"/>
      <use xlink:href="#DejaVuSans-5d" transform="translate(495.154297 0)"/>
     </g>
    </g>
   </g>
   <g id="line2d_23">
    <path d="M 81.040639 290.873027 
L 81.752618 290.809391 
L 82.464598 290.717016 
L 83.176577 290.646524 
L 83.888556 290.742017 
L 84.600536 290.817124 
L 85.312515 290.796349 
L 86.024494 290.757724 
L 86.736474 290.724931 
L 87.448453 290.691868 
L 88.160432 290.680828 
L 88.872412 290.664125 
L 89.584391 290.598359 
L 90.29637 290.540471 
L 91.00835 290.497044 
L 91.720329 290.473542 
L 92.432308 290.453258 
L 93.144288 290.439299 
L 93.856267 290.432614 
L 94.568246 290.421236 
L 95.280226 290.406326 
L 95.992205 290.369297 
L 96.704184 290.317892 
L 97.416164 290.258568 
L 98.128143 290.205476 
L 98.840122 290.167224 
L 99.552102 290.138093 
L 100.264081 290.104775 
L 100.97606 290.072175 
L 101.68804 290.036231 
L 102.400019 289.992677 
L 103.111998 289.94516 
L 103.823978 289.895817 
L 104.535957 289.847382 
L 105.247937 289.797491 
L 105.959916 289.745452 
L 106.671895 289.69354 
L 107.383875 289.643099 
L 108.095854 289.592119 
L 108.807833 289.534292 
L 109.519813 289.476561 
L 110.231792 289.414703 
L 110.943771 289.347935 
L 111.655751 289.276113 
L 112.36773 289.20655 
L 113.079709 289.137412 
L 113.791689 289.06628 
L 114.503668 288.990263 
L 115.215647 288.911418 
L 115.927627 288.830987 
L 116.639606 288.748891 
L 117.351585 288.66502 
L 118.063565 288.578185 
L 118.775544 288.485667 
L 119.487523 288.389383 
L 120.199503 288.290594 
L 120.911482 288.187915 
L 121.623461 288.084067 
L 122.335441 287.979303 
L 123.04742 287.869784 
L 123.759399 287.756555 
L 124.471379 287.641258 
L 125.183358 287.523794 
L 125.895337 287.402826 
L 126.607317 287.280719 
L 127.319296 287.157247 
L 128.031275 287.028708 
L 128.743255 286.893786 
L 129.455234 286.756723 
L 130.167213 286.617442 
L 130.879193 286.475576 
L 131.591172 286.334433 
L 132.303151 286.190554 
L 133.015131 286.043774 
L 133.72711 285.895776 
L 134.439089 285.744006 
L 135.151069 285.589609 
L 135.863048 285.434095 
L 136.575027 285.277222 
L 137.287007 285.116785 
L 137.998986 284.954196 
L 138.710966 284.786804 
L 139.422945 284.619488 
L 140.134924 284.452209 
L 140.846904 284.28337 
L 141.558883 284.112262 
L 142.270862 283.939995 
L 142.982842 283.764296 
L 143.694821 283.583901 
L 144.4068 283.402925 
L 145.11878 283.222871 
L 145.830759 283.040898 
L 146.542738 282.856582 
L 147.254718 282.671351 
L 147.966697 282.483856 
L 148.678676 282.295021 
L 149.390656 282.108885 
L 150.102635 281.921234 
L 150.814614 281.731071 
L 151.526594 282.014109 
" clip-path="url(#pa66ded3439)" style="fill: none; stroke: #000000; stroke-width: 2; stroke-linecap: square"/>
   </g>
   <g id="line2d_24">
    <path d="M 81.039566 290.888168 
L 83.170031 290.566223 
L 85.300495 290.468807 
L 87.430959 290.985918 
L 89.561424 290.900549 
L 91.691888 290.83419 
L 93.822353 290.764369 
L 95.952817 290.56903 
L 98.083281 290.417549 
L 100.213746 290.378578 
L 102.34421 290.213645 
L 104.474674 289.989347 
L 106.605139 289.810536 
L 108.735603 289.614811 
L 110.866068 289.440418 
L 112.996532 289.255515 
L 115.126996 289.063919 
L 117.257461 288.824818 
L 119.387925 288.568885 
L 121.518389 288.280146 
L 123.648854 287.979564 
L 125.779318 287.658966 
L 127.909783 287.325438 
L 130.040247 286.966256 
L 132.170711 286.591472 
L 134.301176 286.19602 
L 136.43164 285.776702 
L 138.562104 285.332265 
L 140.692569 284.869252 
L 142.823033 284.394168 
L 144.953498 283.899498 
L 147.083962 283.3988 
L 149.214426 282.883699 
L 151.344891 282.35948 
L 153.475355 281.824526 
L 155.605819 281.285611 
L 157.736284 280.734821 
L 159.866748 280.183334 
L 161.997213 279.628826 
L 164.127677 279.060515 
L 166.258141 278.490375 
L 168.388606 277.91614 
L 170.51907 277.331479 
L 172.649534 276.738287 
L 174.779999 276.142376 
L 176.910463 275.532972 
L 179.040928 274.914497 
L 181.171392 274.288064 
L 183.301856 273.653233 
L 185.432321 273.011456 
L 187.562785 272.36754 
L 189.693249 271.711253 
L 191.823714 271.049416 
L 193.954178 270.377346 
L 196.084643 269.69792 
L 198.215107 268.998957 
L 200.345571 268.298557 
L 202.476036 267.5882 
L 204.6065 266.873878 
L 206.736964 266.143538 
L 208.867429 265.409259 
L 210.997893 264.662711 
L 213.128358 263.909008 
L 215.258822 263.141845 
L 217.389286 262.370641 
L 219.519751 261.595999 
L 221.650215 260.806906 
L 223.780679 260.00979 
L 225.911144 259.20648 
L 228.041608 258.388723 
L 230.172073 257.561633 
L 232.302537 256.726844 
L 234.433001 255.876134 
L 236.563466 255.013722 
L 238.69393 254.145567 
L 240.824394 253.257711 
L 242.954859 252.365859 
L 245.085323 251.461814 
L 247.215788 250.548664 
L 249.346252 249.626406 
L 251.476716 248.69196 
L 253.607181 247.739428 
L 255.737645 246.772683 
L 257.868109 245.793092 
L 259.998574 244.797107 
L 262.129038 243.789473 
L 264.259503 242.771172 
L 266.389967 241.742486 
L 268.520431 240.700808 
L 270.650896 239.641153 
L 272.78136 238.570583 
L 274.911824 237.479454 
L 277.042289 236.366515 
L 279.172753 235.222711 
L 281.303218 234.059543 
L 283.433682 232.887156 
L 285.564146 231.707322 
L 287.694611 230.533937 
L 289.825075 229.388909 
L 291.955539 233.268006 
" clip-path="url(#pa66ded3439)" style="fill: none; stroke: #ff0000; stroke-width: 2; stroke-linecap: square"/>
   </g>
   <g id="line2d_25">
    <path d="M 81.039647 290.895745 
L 84.589049 290.400715 
L 88.138451 290.782451 
L 91.687853 290.650362 
L 95.237256 290.539384 
L 98.786658 290.489692 
L 102.33606 290.349776 
L 105.885462 290.25517 
L 109.434864 290.094776 
L 112.984266 289.765361 
L 116.533668 289.394774 
L 120.08307 289.058112 
L 123.632472 288.737131 
L 127.181874 288.343692 
L 130.731276 287.892091 
L 134.280679 287.375217 
L 137.830081 286.789946 
L 141.379483 286.133212 
L 144.928885 285.419656 
L 148.478287 284.660619 
L 152.027689 283.887429 
L 155.577091 283.082176 
L 159.126493 282.24202 
L 162.675895 281.359811 
L 166.225297 280.457971 
L 169.7747 279.524256 
L 173.324102 278.578296 
L 176.873504 277.619967 
L 180.422906 276.642822 
L 183.972308 275.649282 
L 187.52171 274.626856 
L 191.071112 273.572799 
L 194.620514 272.480402 
L 198.169916 271.381795 
L 201.719318 270.248965 
L 205.26872 269.094392 
L 208.818123 267.904428 
L 212.367525 266.684688 
L 215.916927 265.438538 
L 219.466329 264.169041 
L 223.015731 262.867515 
L 226.565133 261.554951 
L 230.114535 260.221093 
L 233.663937 258.839238 
L 237.213339 257.419254 
L 240.762741 255.964341 
L 244.312144 254.485982 
L 247.861546 252.971845 
L 251.410948 251.431708 
L 254.96035 249.837493 
L 258.509752 248.200001 
L 262.059154 246.507066 
L 265.608556 244.770189 
L 269.157958 243.012931 
L 272.70736 241.217247 
L 276.256762 239.379105 
L 279.806164 237.467793 
L 283.355567 235.508544 
L 286.904969 233.488364 
L 290.454371 231.409226 
L 294.003773 229.272923 
L 297.553175 227.093301 
L 301.102577 224.844012 
L 304.651979 222.505829 
L 308.201381 220.119208 
L 311.750783 217.665392 
L 315.300185 215.139911 
L 318.849588 212.537853 
L 322.39899 209.856783 
L 325.948392 207.093164 
L 329.497794 204.225525 
L 333.047196 201.283846 
L 336.596598 198.256661 
L 340.146 195.138235 
L 343.695402 191.9074 
L 347.244804 188.584689 
L 350.794206 185.133246 
L 354.343608 181.563584 
L 357.893011 177.867215 
L 361.442413 174.051675 
L 364.991815 170.112322 
L 368.541217 166.039545 
L 372.090619 161.836024 
L 375.640021 157.501656 
L 379.189423 153.016935 
L 382.738825 148.377308 
L 386.288227 143.571579 
L 389.837629 138.590478 
L 393.387032 133.432199 
L 396.936434 128.087327 
L 400.485836 122.542016 
L 404.035238 116.794612 
L 407.58464 110.838619 
L 411.134042 104.655514 
L 414.683444 98.25166 
L 418.232846 91.638504 
L 421.782248 84.829563 
L 425.33165 77.938184 
L 428.881052 71.263086 
L 432.430455 121.164975 
" clip-path="url(#pa66ded3439)" style="fill: none; stroke: #0000ff; stroke-width: 2; stroke-linecap: square"/>
   </g>
   <g id="line2d_26">
    <path d="M 81.039545 290.881694 
L 84.588759 290.000987 
L 88.137972 290.732139 
L 91.687185 290.620549 
L 95.236399 290.489491 
L 98.785612 290.359319 
L 102.334825 290.19131 
L 105.884039 289.957702 
L 109.433252 289.704072 
L 112.982465 289.485982 
L 116.531679 289.316617 
L 120.080892 289.143487 
L 123.630105 288.824751 
L 127.179319 288.347594 
L 130.728532 287.798393 
L 134.277745 287.227799 
L 137.826959 286.630161 
L 141.376172 285.974133 
L 144.925385 285.296297 
L 148.474599 284.598986 
L 152.023812 283.851833 
L 155.573025 283.058 
L 159.122239 282.217577 
L 162.671452 281.350784 
L 166.220665 280.448409 
L 169.769879 279.514576 
L 173.319092 278.564149 
L 176.868305 277.592573 
L 180.417519 276.578365 
L 183.966732 275.534772 
L 187.515945 274.473359 
L 191.065159 273.390869 
L 194.614372 272.294249 
L 198.163585 271.172564 
L 201.712799 270.020728 
L 205.262012 268.835559 
L 208.811225 267.615347 
L 212.360439 266.364931 
L 215.909652 265.091079 
L 219.458865 263.784567 
L 223.008079 262.462059 
L 226.557292 261.108445 
L 230.106505 259.710302 
L 233.655719 258.263825 
L 237.204932 256.795195 
L 240.754145 255.29651 
L 244.303359 253.773272 
L 247.852572 252.214878 
L 251.401785 250.610364 
L 254.950999 248.955839 
L 258.500212 247.243774 
L 262.049425 245.498692 
L 265.598638 243.725913 
L 269.147852 241.911739 
L 272.697065 240.03568 
L 276.246278 238.098942 
L 279.795492 236.100495 
L 283.344705 234.043219 
L 286.893918 231.941311 
L 290.443132 229.787404 
L 293.992345 227.568853 
L 297.541558 225.257945 
L 301.090772 222.878257 
L 304.639985 220.430672 
L 308.189198 217.915532 
L 311.738412 215.333758 
L 315.287625 212.665892 
L 318.836838 209.914851 
L 322.386052 207.058714 
L 325.935265 204.117289 
L 329.484478 201.096071 
L 333.033692 197.980976 
L 336.582905 194.750182 
L 340.132118 191.411598 
L 343.681332 187.960127 
L 347.230545 184.38576 
L 350.779758 180.687456 
L 354.328972 176.868888 
L 357.878185 172.917101 
L 361.427398 168.824031 
L 364.976612 164.580975 
L 368.525825 160.19622 
L 372.075038 155.656948 
L 375.624252 150.938249 
L 379.173465 146.050067 
L 382.722678 140.98058 
L 386.271892 135.734322 
L 389.821105 130.288778 
L 393.370318 124.636952 
L 396.919532 118.787602 
L 400.468745 112.725782 
L 404.017958 106.469222 
L 407.567172 100.019356 
L 411.116385 93.396239 
L 414.665598 86.580703 
L 418.214812 79.571907 
L 421.764025 72.424174 
L 425.313238 65.271065 
L 428.862452 58.355667 
L 432.411665 115.77912 
" clip-path="url(#pa66ded3439)" style="fill: none; stroke: #008000; stroke-width: 2; stroke-linecap: square"/>
   </g>
   <g id="patch_3">
    <path d="M 63.47 303.64 
L 63.47 26.88 
" style="fill: none; stroke: #000000; stroke-width: 0.8; stroke-linejoin: miter; stroke-linecap: square"/>
   </g>
   <g id="patch_4">
    <path d="M 450 303.64 
L 450 26.88 
" style="fill: none; stroke: #000000; stroke-width: 0.8; stroke-linejoin: miter; stroke-linecap: square"/>
   </g>
   <g id="patch_5">
    <path d="M 63.47 303.64 
L 450 303.64 
" style="fill: none; stroke: #000000; stroke-width: 0.8; stroke-linejoin: miter; stroke-linecap: square"/>
   </g>
   <g id="patch_6">
    <path d="M 63.47 26.88 
L 450 26.88 
" style="fill: none; stroke: #000000; stroke-width: 0.8; stroke-linejoin: miter; stroke-linecap: square"/>
   </g>
   <g id="text_14">
    <!-- 2025-07-17 - Stress vs Strain by Impact Velocity (with Error Bands) -->
    <g transform="translate(55.531563 20.88) scale(0.12 -0.12)">
     <defs>
      <path id="DejaVuSans-37" d="M 525 4666 
L 3525 4666 
L 3525 4397 
L 1831 0 
L 1172 0 
L 2766 4134 
L 525 4134 
L 525 4666 
z
" transform="scale(0.015625)"/>
      <path id="DejaVuSans-76" d="M 191 3500 
L 800 3500 
L 1894 563 
L 2988 3500 
L 3597 3500 
L 2284 0 
L 1503 0 
L 191 3500 
z
" transform="scale(0.015625)"/>
      <path id="DejaVuSans-62" d="M 3116 1747 
Q 3116 2381 2855 2742 
Q 2594 3103 2138 3103 
Q 1681 3103 1420 2742 
Q 1159 2381 1159 1747 
Q 1159 1113 1420 752 
Q 1681 391 2138 391 
Q 2594 391 2855 752 
Q 3116 1113 3116 1747 
z
M 1159 2969 
Q 1341 3281 1617 3432 
Q 1894 3584 2278 3584 
Q 2916 3584 3314 3078 
Q 3713 2572 3713 1747 
Q 3713 922 3314 415 
Q 2916 -91 2278 -91 
Q 1894 -91 1617 61 
Q 1341 213 1159 525 
L 1159 0 
L 581 0 
L 581 4863 
L 1159 4863 
L 1159 2969 
z
" transform="scale(0.015625)"/>
      <path id="DejaVuSans-79" d="M 2059 -325 
Q 1816 -950 1584 -1140 
Q 1353 -1331 966 -1331 
L 506 -1331 
L 506 -850 
L 844 -850 
Q 1081 -850 1212 -737 
Q 1344 -625 1503 -206 
L 1606 56 
L 191 3500 
L 800 3500 
L 1894 763 
L 2988 3500 
L 3597 3500 
L 2059 -325 
z
" transform="scale(0.015625)"/>
      <path id="DejaVuSans-49" d="M 628 4666 
L 1259 4666 
L 1259 0 
L 628 0 
L 628 4666 
z
" transform="scale(0.015625)"/>
      <path id="DejaVuSans-6d" d="M 3328 2828 
Q 3544 3216 3844 3400 
Q 4144 3584 4550 3584 
Q 5097 3584 5394 3201 
Q 5691 2819 5691 2113 
L 5691 0 
L 5113 0 
L 5113 2094 
Q 5113 2597 4934 2840 
Q 4756 3084 4391 3084 
Q 3944 3084 3684 2787 
Q 3425 2491 3425 1978 
L 3425 0 
L 2847 0 
L 2847 2094 
Q 2847 2600 2669 2842 
Q 2491 3084 2119 3084 
Q 1678 3084 1418 2786 
Q 1159 2488 1159 1978 
L 1159 0 
L 581 0 
L 581 3500 
L 1159 3500 
L 1159 2956 
Q 1356 3278 1631 3431 
Q 1906 3584 2284 3584 
Q 2666 3584 2933 3390 
Q 3200 3197 3328 2828 
z
" transform="scale(0.015625)"/>
      <path id="DejaVuSans-70" d="M 1159 525 
L 1159 -1331 
L 581 -1331 
L 581 3500 
L 1159 3500 
L 1159 2969 
Q 1341 3281 1617 3432 
Q 1894 3584 2278 3584 
Q 2916 3584 3314 3078 
Q 3713 2572 3713 1747 
Q 3713 922 3314 415 
Q 2916 -91 2278 -91 
Q 1894 -91 1617 61 
Q 1341 213 1159 525 
z
M 3116 1747 
Q 3116 2381 2855 2742 
Q 2594 3103 2138 3103 
Q 1681 3103 1420 2742 
Q 1159 2381 1159 1747 
Q 1159 1113 1420 752 
Q 1681 391 2138 391 
Q 2594 391 2855 752 
Q 3116 1113 3116 1747 
z
" transform="scale(0.015625)"/>
      <path id="DejaVuSans-63" d="M 3122 3366 
L 3122 2828 
Q 2878 2963 2633 3030 
Q 2388 3097 2138 3097 
Q 1578 3097 1268 2742 
Q 959 2388 959 1747 
Q 959 1106 1268 751 
Q 1578 397 2138 397 
Q 2388 397 2633 464 
Q 2878 531 3122 666 
L 3122 134 
Q 2881 22 2623 -34 
Q 2366 -91 2075 -91 
Q 1284 -91 818 406 
Q 353 903 353 1747 
Q 353 2603 823 3093 
Q 1294 3584 2113 3584 
Q 2378 3584 2631 3529 
Q 2884 3475 3122 3366 
z
" transform="scale(0.015625)"/>
      <path id="DejaVuSans-56" d="M 1831 0 
L 50 4666 
L 709 4666 
L 2188 738 
L 3669 4666 
L 4325 4666 
L 2547 0 
L 1831 0 
z
" transform="scale(0.015625)"/>
      <path id="DejaVuSans-6c" d="M 603 4863 
L 1178 4863 
L 1178 0 
L 603 0 
L 603 4863 
z
" transform="scale(0.015625)"/>
      <path id="DejaVuSans-6f" d="M 1959 3097 
Q 1497 3097 1228 2736 
Q 959 2375 959 1747 
Q 959 1119 1226 758 
Q 1494 397 1959 397 
Q 2419 397 2687 759 
Q 2956 1122 2956 1747 
Q 2956 2369 2687 2733 
Q 2419 3097 1959 3097 
z
M 1959 3584 
Q 2709 3584 3137 3096 
Q 3566 2609 3566 1747 
Q 3566 888 3137 398 
Q 2709 -91 1959 -91 
Q 1206 -91 779 398 
Q 353 888 353 1747 
Q 353 2609 779 3096 
Q 1206 3584 1959 3584 
z
" transform="scale(0.015625)"/>
      <path id="DejaVuSans-28" d="M 1984 4856 
Q 1566 4138 1362 3434 
Q 1159 2731 1159 2009 
Q 1159 1288 1364 580 
Q 1569 -128 1984 -844 
L 1484 -844 
Q 1016 -109 783 600 
Q 550 1309 550 2009 
Q 550 2706 781 3412 
Q 1013 4119 1484 4856 
L 1984 4856 
z
" transform="scale(0.015625)"/>
      <path id="DejaVuSans-77" d="M 269 3500 
L 844 3500 
L 1563 769 
L 2278 3500 
L 2956 3500 
L 3675 769 
L 4391 3500 
L 4966 3500 
L 4050 0 
L 3372 0 
L 2619 2869 
L 1863 0 
L 1184 0 
L 269 3500 
z
" transform="scale(0.015625)"/>
      <path id="DejaVuSans-68" d="M 3513 2113 
L 3513 0 
L 2938 0 
L 2938 2094 
Q 2938 2591 2744 2837 
Q 2550 3084 2163 3084 
Q 1697 3084 1428 2787 
Q 1159 2491 1159 1978 
L 1159 0 
L 581 0 
L 581 4863 
L 1159 4863 
L 1159 2956 
Q 1366 3272 1645 3428 
Q 1925 3584 2291 3584 
Q 2894 3584 3203 3211 
Q 3513 2838 3513 2113 
z
" transform="scale(0.015625)"/>
      <path id="DejaVuSans-45" d="M 628 4666 
L 3578 4666 
L 3578 4134 
L 1259 4134 
L 1259 2753 
L 3481 2753 
L 3481 2222 
L 1259 2222 
L 1259 531 
L 3634 531 
L 3634 0 
L 628 0 
L 628 4666 
z
" transform="scale(0.015625)"/>
      <path id="DejaVuSans-42" d="M 1259 2228 
L 1259 519 
L 2272 519 
Q 2781 519 3026 730 
Q 3272 941 3272 1375 
Q 3272 1813 3026 2020 
Q 2781 2228 2272 2228 
L 1259 2228 
z
M 1259 4147 
L 1259 2741 
L 2194 2741 
Q 2656 2741 2882 2914 
Q 3109 3088 3109 3444 
Q 3109 3797 2882 3972 
Q 2656 4147 2194 4147 
L 1259 4147 
z
M 628 4666 
L 2241 4666 
Q 2963 4666 3353 4366 
Q 3744 4066 3744 3513 
Q 3744 3084 3544 2831 
Q 3344 2578 2956 2516 
Q 3422 2416 3680 2098 
Q 3938 1781 3938 1306 
Q 3938 681 3513 340 
Q 3088 0 2303 0 
L 628 0 
L 628 4666 
z
" transform="scale(0.015625)"/>
      <path id="DejaVuSans-64" d="M 2906 2969 
L 2906 4863 
L 3481 4863 
L 3481 0 
L 2906 0 
L 2906 525 
Q 2725 213 2448 61 
Q 2172 -91 1784 -91 
Q 1150 -91 751 415 
Q 353 922 353 1747 
Q 353 2572 751 3078 
Q 1150 3584 1784 3584 
Q 2172 3584 2448 3432 
Q 2725 3281 2906 2969 
z
M 947 1747 
Q 947 1113 1208 752 
Q 1469 391 1925 391 
Q 2381 391 2643 752 
Q 2906 1113 2906 1747 
Q 2906 2381 2643 2742 
Q 2381 3103 1925 3103 
Q 1469 3103 1208 2742 
Q 947 2381 947 1747 
z
" transform="scale(0.015625)"/>
      <path id="DejaVuSans-29" d="M 513 4856 
L 1013 4856 
Q 1481 4119 1714 3412 
Q 1947 2706 1947 2009 
Q 1947 1309 1714 600 
Q 1481 -109 1013 -844 
L 513 -844 
Q 928 -128 1133 580 
Q 1338 1288 1338 2009 
Q 1338 2731 1133 3434 
Q 928 4138 513 4856 
z
" transform="scale(0.015625)"/>
     </defs>
     <use xlink:href="#DejaVuSans-32"/>
     <use xlink:href="#DejaVuSans-30" transform="translate(63.623047 0)"/>
     <use xlink:href="#DejaVuSans-32" transform="translate(127.246094 0)"/>
     <use xlink:href="#DejaVuSans-35" transform="translate(190.869141 0)"/>
     <use xlink:href="#DejaVuSans-2d" transform="translate(254.492188 0)"/>
     <use xlink:href="#DejaVuSans-30" transform="translate(290.576172 0)"/>
     <use xlink:href="#DejaVuSans-37" transform="translate(354.199219 0)"/>
     <use xlink:href="#DejaVuSans-2d" transform="translate(417.822266 0)"/>
     <use xlink:href="#DejaVuSans-31" transform="translate(453.90625 0)"/>
     <use xlink:href="#DejaVuSans-37" transform="translate(517.529297 0)"/>
     <use xlink:href="#DejaVuSans-20" transform="translate(581.152344 0)"/>
     <use xlink:href="#DejaVuSans-2d" transform="translate(612.939453 0)"/>
     <use xlink:href="#DejaVuSans-20" transform="translate(649.023438 0)"/>
     <use xlink:href="#DejaVuSans-53" transform="translate(680.810547 0)"/>
     <use xlink:href="#DejaVuSans-74" transform="translate(744.287109 0)"/>
     <use xlink:href="#DejaVuSans-72" transform="translate(783.496094 0)"/>
     <use xlink:href="#DejaVuSans-65" transform="translate(822.359375 0)"/>
     <use xlink:href="#DejaVuSans-73" transform="translate(883.882812 0)"/>
     <use xlink:href="#DejaVuSans-73" transform="translate(935.982422 0)"/>
     <use xlink:href="#DejaVuSans-20" transform="translate(988.082031 0)"/>
     <use xlink:href="#DejaVuSans-76" transform="translate(1019.869141 0)"/>
     <use xlink:href="#DejaVuSans-73" transform="translate(1079.048828 0)"/>
     <use xlink:href="#DejaVuSans-20" transform="translate(1131.148438 0)"/>
     <use xlink:href="#DejaVuSans-53" transform="translate(1162.935547 0)"/>
     <use xlink:href="#DejaVuSans-74" transform="translate(1226.412109 0)"/>
     <use xlink:href="#DejaVuSans-72" transform="translate(1265.621094 0)"/>
     <use xlink:href="#DejaVuSans-61" transform="translate(1306.734375 0)"/>
     <use xlink:href="#DejaVuSans-69" transform="translate(1368.013672 0)"/>
     <use xlink:href="#DejaVuSans-6e" transform="translate(1395.796875 0)"/>
     <use xlink:href="#DejaVuSans-20" transform="translate(1459.175781 0)"/>
     <use xlink:href="#DejaVuSans-62" transform="translate(1490.962891 0)"/>
     <use xlink:href="#DejaVuSans-79" transform="translate(1554.439453 0)"/>
     <use xlink:href="#DejaVuSans-20" transform="translate(1613.619141 0)"/>
     <use xlink:href="#DejaVuSans-49" transform="translate(1645.40625 0)"/>
     <use xlink:href="#DejaVuSans-6d" transform="translate(1674.898438 0)"/>
     <use xlink:href="#DejaVuSans-70" transform="translate(1772.310547 0)"/>
     <use xlink:href="#DejaVuSans-61" transform="translate(1835.787109 0)"/>
     <use xlink:href="#DejaVuSans-63" transform="translate(1897.066406 0)"/>
     <use xlink:href="#DejaVuSans-74" transform="translate(1952.046875 0)"/>
     <use xlink:href="#DejaVuSans-20" transform="translate(1991.255859 0)"/>
     <use xlink:href="#DejaVuSans-56" transform="translate(2023.042969 0)"/>
     <use xlink:href="#DejaVuSans-65" transform="translate(2083.701172 0)"/>
     <use xlink:href="#DejaVuSans-6c" transform="translate(2145.224609 0)"/>
     <use xlink:href="#DejaVuSans-6f" transform="translate(2173.007812 0)"/>
     <use xlink:href="#DejaVuSans-63" transform="translate(2234.189453 0)"/>
     <use xlink:href="#DejaVuSans-69" transform="translate(2289.169922 0)"/>
     <use xlink:href="#DejaVuSans-74" transform="translate(2316.953125 0)"/>
     <use xlink:href="#DejaVuSans-79" transform="translate(2356.162109 0)"/>
     <use xlink:href="#DejaVuSans-20" transform="translate(2415.341797 0)"/>
     <use xlink:href="#DejaVuSans-28" transform="translate(2447.128906 0)"/>
     <use xlink:href="#DejaVuSans-77" transform="translate(2486.142578 0)"/>
     <use xlink:href="#DejaVuSans-69" transform="translate(2567.929688 0)"/>
     <use xlink:href="#DejaVuSans-74" transform="translate(2595.712891 0)"/>
     <use xlink:href="#DejaVuSans-68" transform="translate(2634.921875 0)"/>
     <use xlink:href="#DejaVuSans-20" transform="translate(2698.300781 0)"/>
     <use xlink:href="#DejaVuSans-45" transform="translate(2730.087891 0)"/>
     <use xlink:href="#DejaVuSans-72" transform="translate(2793.271484 0)"/>
     <use xlink:href="#DejaVuSans-72" transform="translate(2832.634766 0)"/>
     <use xlink:href="#DejaVuSans-6f" transform="translate(2871.498047 0)"/>
     <use xlink:href="#DejaVuSans-72" transform="translate(2932.679688 0)"/>
     <use xlink:href="#DejaVuSans-20" transform="translate(2973.792969 0)"/>
     <use xlink:href="#DejaVuSans-42" transform="translate(3005.580078 0)"/>
     <use xlink:href="#DejaVuSans-61" transform="translate(3074.183594 0)"/>
     <use xlink:href="#DejaVuSans-6e" transform="translate(3135.462891 0)"/>
     <use xlink:href="#DejaVuSans-64" transform="translate(3198.841797 0)"/>
     <use xlink:href="#DejaVuSans-73" transform="translate(3262.318359 0)"/>
     <use xlink:href="#DejaVuSans-29" transform="translate(3314.417969 0)"/>
    </g>
   </g>
   <g id="legend_1">
    <g id="patch_7">
     <path d="M 70.47 108.270625 
L 178.493437 108.270625 
Q 180.493437 108.270625 180.493437 106.270625 
L 180.493437 33.88 
Q 180.493437 31.88 178.493437 31.88 
L 70.47 31.88 
Q 68.47 31.88 68.47 33.88 
L 68.47 106.270625 
Q 68.47 108.270625 70.47 108.270625 
z
" style="fill: #ffffff; opacity: 0.8; stroke: #cccccc; stroke-linejoin: miter"/>
    </g>
    <g id="text_15">
     <!-- Impact Velocity -->
     <g transform="translate(85.984062 43.478437) scale(0.1 -0.1)">
      <use xlink:href="#DejaVuSans-49"/>
      <use xlink:href="#DejaVuSans-6d" transform="translate(29.492188 0)"/>
      <use xlink:href="#DejaVuSans-70" transform="translate(126.904297 0)"/>
      <use xlink:href="#DejaVuSans-61" transform="translate(190.380859 0)"/>
      <use xlink:href="#DejaVuSans-63" transform="translate(251.660156 0)"/>
      <use xlink:href="#DejaVuSans-74" transform="translate(306.640625 0)"/>
      <use xlink:href="#DejaVuSans-20" transform="translate(345.849609 0)"/>
      <use xlink:href="#DejaVuSans-56" transform="translate(377.636719 0)"/>
      <use xlink:href="#DejaVuSans-65" transform="translate(438.294922 0)"/>
      <use xlink:href="#DejaVuSans-6c" transform="translate(499.818359 0)"/>
      <use xlink:href="#DejaVuSans-6f" transform="translate(527.601562 0)"/>
      <use xlink:href="#DejaVuSans-63" transform="translate(588.783203 0)"/>
      <use xlink:href="#DejaVuSans-69" transform="translate(643.763672 0)"/>
      <use xlink:href="#DejaVuSans-74" transform="translate(671.546875 0)"/>
      <use xlink:href="#DejaVuSans-79" transform="translate(710.755859 0)"/>
     </g>
    </g>
    <g id="line2d_27">
     <path d="M 72.47 54.656563 
L 82.47 54.656563 
L 92.47 54.656563 
" style="fill: none; stroke: #000000; stroke-width: 2; stroke-linecap: square"/>
    </g>
    <g id="text_16">
     <!-- 1 mm/s (n=10) -->
     <g transform="translate(100.47 58.156563) scale(0.1 -0.1)">
      <defs>
       <path id="DejaVuSans-2f" d="M 1625 4666 
L 2156 4666 
L 531 -594 
L 0 -594 
L 1625 4666 
z
" transform="scale(0.015625)"/>
       <path id="DejaVuSans-3d" d="M 678 2906 
L 4684 2906 
L 4684 2381 
L 678 2381 
L 678 2906 
z
M 678 1631 
L 4684 1631 
L 4684 1100 
L 678 1100 
L 678 1631 
z
" transform="scale(0.015625)"/>
      </defs>
      <use xlink:href="#DejaVuSans-31"/>
      <use xlink:href="#DejaVuSans-20" transform="translate(63.623047 0)"/>
      <use xlink:href="#DejaVuSans-6d" transform="translate(95.410156 0)"/>
      <use xlink:href="#DejaVuSans-6d" transform="translate(192.822266 0)"/>
      <use xlink:href="#DejaVuSans-2f" transform="translate(290.234375 0)"/>
      <use xlink:href="#DejaVuSans-73" transform="translate(323.925781 0)"/>
      <use xlink:href="#DejaVuSans-20" transform="translate(376.025391 0)"/>
      <use xlink:href="#DejaVuSans-28" transform="translate(407.8125 0)"/>
      <use xlink:href="#DejaVuSans-6e" transform="translate(446.826172 0)"/>
      <use xlink:href="#DejaVuSans-3d" transform="translate(510.205078 0)"/>
      <use xlink:href="#DejaVuSans-31" transform="translate(593.994141 0)"/>
      <use xlink:href="#DejaVuSans-30" transform="translate(657.617188 0)"/>
      <use xlink:href="#DejaVuSans-29" transform="translate(721.240234 0)"/>
     </g>
    </g>
    <g id="line2d_28">
     <path d="M 72.47 69.334688 
L 82.47 69.334688 
L 92.47 69.334688 
" style="fill: none; stroke: #ff0000; stroke-width: 2; stroke-linecap: square"/>
    </g>
    <g id="text_17">
     <!-- 3 mm/s (n=6) -->
     <g transform="translate(100.47 72.834688) scale(0.1 -0.1)">
      <defs>
       <path id="DejaVuSans-36" d="M 2113 2584 
Q 1688 2584 1439 2293 
Q 1191 2003 1191 1497 
Q 1191 994 1439 701 
Q 1688 409 2113 409 
Q 2538 409 2786 701 
Q 3034 994 3034 1497 
Q 3034 2003 2786 2293 
Q 2538 2584 2113 2584 
z
M 3366 4563 
L 3366 3988 
Q 3128 4100 2886 4159 
Q 2644 4219 2406 4219 
Q 1781 4219 1451 3797 
Q 1122 3375 1075 2522 
Q 1259 2794 1537 2939 
Q 1816 3084 2150 3084 
Q 2853 3084 3261 2657 
Q 3669 2231 3669 1497 
Q 3669 778 3244 343 
Q 2819 -91 2113 -91 
Q 1303 -91 875 529 
Q 447 1150 447 2328 
Q 447 3434 972 4092 
Q 1497 4750 2381 4750 
Q 2619 4750 2861 4703 
Q 3103 4656 3366 4563 
z
" transform="scale(0.015625)"/>
      </defs>
      <use xlink:href="#DejaVuSans-33"/>
      <use xlink:href="#DejaVuSans-20" transform="translate(63.623047 0)"/>
      <use xlink:href="#DejaVuSans-6d" transform="translate(95.410156 0)"/>
      <use xlink:href="#DejaVuSans-6d" transform="translate(192.822266 0)"/>
      <use xlink:href="#DejaVuSans-2f" transform="translate(290.234375 0)"/>
      <use xlink:href="#DejaVuSans-73" transform="translate(323.925781 0)"/>
      <use xlink:href="#DejaVuSans-20" transform="translate(376.025391 0)"/>
      <use xlink:href="#DejaVuSans-28" transform="translate(407.8125 0)"/>
      <use xlink:href="#DejaVuSans-6e" transform="translate(446.826172 0)"/>
      <use xlink:href="#DejaVuSans-3d" transform="translate(510.205078 0)"/>
      <use xlink:href="#DejaVuSans-36" transform="translate(593.994141 0)"/>
      <use xlink:href="#DejaVuSans-29" transform="translate(657.617188 0)"/>
     </g>
    </g>
    <g id="line2d_29">
     <path d="M 72.47 84.012812 
L 82.47 84.012812 
L 92.47 84.012812 
" style="fill: none; stroke: #0000ff; stroke-width: 2; stroke-linecap: square"/>
    </g>
    <g id="text_18">
     <!-- 5 mm/s (n=2) -->
     <g transform="translate(100.47 87.512812) scale(0.1 -0.1)">
      <use xlink:href="#DejaVuSans-35"/>
      <use xlink:href="#DejaVuSans-20" transform="translate(63.623047 0)"/>
      <use xlink:href="#DejaVuSans-6d" transform="translate(95.410156 0)"/>
      <use xlink:href="#DejaVuSans-6d" transform="translate(192.822266 0)"/>
      <use xlink:href="#DejaVuSans-2f" transform="translate(290.234375 0)"/>
      <use xlink:href="#DejaVuSans-73" transform="translate(323.925781 0)"/>
      <use xlink:href="#DejaVuSans-20" transform="translate(376.025391 0)"/>
      <use xlink:href="#DejaVuSans-28" transform="translate(407.8125 0)"/>
      <use xlink:href="#DejaVuSans-6e" transform="translate(446.826172 0)"/>
      <use xlink:href="#DejaVuSans-3d" transform="translate(510.205078 0)"/>
      <use xlink:href="#DejaVuSans-32" transform="translate(593.994141 0)"/>
      <use xlink:href="#DejaVuSans-29" transform="translate(657.617188 0)"/>
     </g>
    </g>
    <g id="line2d_30">
     <path d="M 72.47 98.690938 
L 82.47 98.690938 
L 92.47 98.690938 
" style="fill: none; stroke: #008000; stroke-width: 2; stroke-linecap: square"/>
    </g>
    <g id="text_19">
     <!-- 10 mm/s (n=2) -->
     <g transform="translate(100.47 102.190938) scale(0.1 -0.1)">
      <use xlink:href="#DejaVuSans-31"/>
      <use xlink:href="#DejaVuSans-30" transform="translate(63.623047 0)"/>
      <use xlink:href="#DejaVuSans-20" transform="translate(127.246094 0)"/>
      <use xlink:href="#DejaVuSans-6d" transform="translate(159.033203 0)"/>
      <use xlink:href="#DejaVuSans-6d" transform="translate(256.445312 0)"/>
      <use xlink:href="#DejaVuSans-2f" transform="translate(353.857422 0)"/>
      <use xlink:href="#DejaVuSans-73" transform="translate(387.548828 0)"/>
      <use xlink:href="#DejaVuSans-20" transform="translate(439.648438 0)"/>
      <use xlink:href="#DejaVuSans-28" transform="translate(471.435547 0)"/>
      <use xlink:href="#DejaVuSans-6e" transform="translate(510.449219 0)"/>
      <use xlink:href="#DejaVuSans-3d" transform="translate(573.828125 0)"/>
      <use xlink:href="#DejaVuSans-32" transform="translate(657.617188 0)"/>
      <use xlink:href="#DejaVuSans-29" transform="translate(721.240234 0)"/>
     </g>
    </g>
   </g>
  </g>
 </g>
 <defs>
  <clipPath id="pa66ded3439">
   <rect x="63.47" y="26.88" width="386.53" height="276.76"/>
  </clipPath>
 </defs>
</svg>
