<?xml version="1.0" encoding="utf-8" standalone="no"?>
<!DOCTYPE svg PUBLIC "-//W3C//DTD SVG 1.1//EN"
  "http://www.w3.org/Graphics/SVG/1.1/DTD/svg11.dtd">
<svg xmlns:xlink="http://www.w3.org/1999/xlink" width="460.8pt" height="345.6pt" viewBox="0 0 460.8 345.6" xmlns="http://www.w3.org/2000/svg" version="1.1">
 <metadata>
  <rdf:RDF xmlns:dc="http://purl.org/dc/elements/1.1/" xmlns:cc="http://creativecommons.org/ns#" xmlns:rdf="http://www.w3.org/1999/02/22-rdf-syntax-ns#">
   <cc:Work>
    <dc:type rdf:resource="http://purl.org/dc/dcmitype/StillImage"/>
    <dc:date>2025-07-28T21:22:20.102615</dc:date>
    <dc:format>image/svg+xml</dc:format>
    <dc:creator>
     <cc:Agent>
      <dc:title>Matplotlib v3.10.3, https://matplotlib.org/</dc:title>
     </cc:Agent>
    </dc:creator>
   </cc:Work>
  </rdf:RDF>
 </metadata>
 <defs>
  <style type="text/css">*{stroke-linejoin: round; stroke-linecap: butt}</style>
 </defs>
 <g id="figure_1">
  <g id="patch_1">
   <path d="M 0 345.6 
L 460.8 345.6 
L 460.8 0 
L 0 0 
z
" style="fill: #ffffff"/>
  </g>
  <g id="axes_1">
   <g id="patch_2">
    <path d="M 63.47 303.64 
L 450 303.64 
L 450 41.856 
L 63.47 41.856 
z
" style="fill: #ffffff"/>
   </g>
   <g id="FillBetweenPolyCollection_1">
    <defs>
     <path id="m7254165883" d="M 81.040639 -54.057364 
L 81.040639 -54.014892 
L 81.752618 -53.991563 
L 82.464598 -54.044034 
L 83.176577 -54.11483 
L 83.888556 -53.960633 
L 84.600536 -53.885569 
L 85.312515 -53.883829 
L 86.024494 -53.897925 
L 86.736474 -53.916199 
L 87.448453 -53.939064 
L 88.160432 -53.937296 
L 88.872412 -53.945703 
L 89.584391 -54.022287 
L 90.29637 -54.089487 
L 91.00835 -54.139122 
L 91.720329 -54.162654 
L 92.432308 -54.183468 
L 93.144288 -54.196285 
L 93.856267 -54.197546 
L 94.568246 -54.202924 
L 95.280226 -54.212036 
L 95.992205 -54.254441 
L 96.704184 -54.3083 
L 97.416164 -54.370419 
L 98.128143 -54.433262 
L 98.840122 -54.474911 
L 99.552102 -54.505335 
L 100.264081 -54.539278 
L 100.97606 -54.572841 
L 101.68804 -54.612604 
L 102.400019 -54.663435 
L 103.111998 -54.716713 
L 103.823978 -54.76936 
L 104.535957 -54.819465 
L 105.247937 -54.872039 
L 105.959916 -54.925741 
L 106.671895 -54.976392 
L 107.383875 -55.021158 
L 108.095854 -55.064456 
L 108.807833 -55.110954 
L 109.519813 -55.154986 
L 110.231792 -55.205246 
L 110.943771 -55.263574 
L 111.655751 -55.326812 
L 112.36773 -55.387231 
L 113.079709 -55.444424 
L 113.791689 -55.501454 
L 114.503668 -55.562121 
L 115.215647 -55.62253 
L 115.927627 -55.685315 
L 116.639606 -55.750038 
L 117.351585 -55.816742 
L 118.063565 -55.885493 
L 118.775544 -55.958929 
L 119.487523 -56.031553 
L 120.199503 -56.106973 
L 120.911482 -56.186221 
L 121.623461 -56.268288 
L 122.335441 -56.351432 
L 123.04742 -56.43859 
L 123.759399 -56.528879 
L 124.471379 -56.620889 
L 125.183358 -56.715624 
L 125.895337 -56.812334 
L 126.607317 -56.908635 
L 127.319296 -57.006621 
L 128.031275 -57.109327 
L 128.743255 -57.215185 
L 129.455234 -57.32419 
L 130.167213 -57.436305 
L 130.879193 -57.54994 
L 131.591172 -57.662377 
L 132.303151 -57.780551 
L 133.015131 -57.901269 
L 133.72711 -58.021385 
L 134.439089 -58.145219 
L 135.151069 -58.272092 
L 135.863048 -58.39789 
L 136.575027 -58.524315 
L 137.287007 -58.656754 
L 137.998986 -58.789816 
L 138.710966 -58.926684 
L 139.422945 -59.062042 
L 140.134924 -59.198112 
L 140.846904 -59.334748 
L 141.558883 -59.475086 
L 142.270862 -59.617706 
L 142.982842 -59.765627 
L 143.694821 -59.917223 
L 144.4068 -60.066327 
L 145.11878 -60.215317 
L 145.830759 -60.366403 
L 146.542738 -60.519075 
L 147.254718 -60.673027 
L 147.966697 -60.834082 
L 148.678676 -60.99512 
L 149.390656 -61.154848 
L 150.102635 -61.316346 
L 150.814614 -61.477389 
L 151.526594 -61.517941 
L 151.526594 -63.313406 
L 151.526594 -63.313406 
L 150.814614 -63.889402 
L 150.102635 -63.690701 
L 149.390656 -63.497204 
L 148.678676 -63.304805 
L 147.966697 -63.108609 
L 147.254718 -62.914966 
L 146.542738 -62.718502 
L 145.830759 -62.522488 
L 145.11878 -62.329323 
L 144.4068 -62.137693 
L 143.694821 -61.944429 
L 142.982842 -61.754759 
L 142.270862 -61.570297 
L 141.558883 -61.387025 
L 140.846904 -61.203666 
L 140.134924 -61.020895 
L 139.422945 -60.840511 
L 138.710966 -60.659344 
L 137.998986 -60.479544 
L 137.287007 -60.305025 
L 136.575027 -60.133954 
L 135.863048 -59.963609 
L 135.151069 -59.795209 
L 134.439089 -59.629999 
L 133.72711 -59.466716 
L 133.015131 -59.306854 
L 132.303151 -59.149897 
L 131.591172 -58.995883 
L 130.879193 -58.841309 
L 130.167213 -58.686565 
L 129.455234 -58.535194 
L 128.743255 -58.384905 
L 128.031275 -58.235521 
L 127.319296 -58.09506 
L 126.607317 -57.959463 
L 125.895337 -57.824767 
L 125.183358 -57.692632 
L 124.471379 -57.565151 
L 123.759399 -57.439045 
L 123.04742 -57.315129 
L 122.335441 -57.195103 
L 121.623461 -57.080057 
L 120.911482 -56.965667 
L 120.199503 -56.850668 
L 119.487523 -56.739202 
L 118.775544 -56.629678 
L 118.063565 -56.52809 
L 117.351585 -56.43257 
L 116.639606 -56.340609 
L 115.927627 -56.250024 
L 115.215647 -56.160652 
L 114.503668 -56.071904 
L 113.791689 -55.988764 
L 113.079709 -55.911229 
L 112.36773 -55.837626 
L 111.655751 -55.766448 
L 110.943771 -55.693815 
L 110.231792 -55.625833 
L 109.519813 -55.559073 
L 108.807833 -55.49389 
L 108.095854 -55.430992 
L 107.383875 -55.377848 
L 106.671895 -55.32719 
L 105.959916 -55.279635 
L 105.247937 -55.234891 
L 104.535957 -55.193081 
L 103.823978 -55.151559 
L 103.111998 -55.11086 
L 102.400019 -55.074248 
L 101.68804 -55.042684 
L 100.97606 -55.014448 
L 100.264081 -54.98634 
L 99.552102 -54.957253 
L 98.840122 -54.932566 
L 98.128143 -54.901853 
L 97.416164 -54.864257 
L 96.704184 -54.814147 
L 95.992205 -54.77076 
L 95.280226 -54.743115 
L 94.568246 -54.72402 
L 93.856267 -54.707872 
L 93.144288 -54.696488 
L 92.432308 -54.682898 
L 91.720329 -54.66534 
L 91.00835 -54.64441 
L 90.29637 -54.611892 
L 89.584391 -54.56958 
L 88.872412 -54.52175 
L 88.160432 -54.498558 
L 87.448453 -54.475904 
L 86.736474 -54.436221 
L 86.024494 -54.392459 
L 85.312515 -54.333484 
L 84.600536 -54.292443 
L 83.888556 -54.359466 
L 83.176577 -54.385919 
L 82.464598 -54.323361 
L 81.752618 -54.201079 
L 81.040639 -54.057364 
z
" style="stroke: #000000; stroke-opacity: 0.3"/>
    </defs>
    <g clip-path="url(#pdd3d27a4fc)">
     <use xlink:href="#m7254165883" x="0" y="345.6" style="fill-opacity: 0.3; stroke: #000000; stroke-opacity: 0.3"/>
    </g>
   </g>
   <g id="FillBetweenPolyCollection_2">
    <defs>
     <path id="m272ddb6398" d="M 81.039566 -54.053541 
L 81.039566 -53.990071 
L 83.170031 -54.280027 
L 85.300495 -54.318539 
L 87.430959 -53.859273 
L 89.561424 -53.948911 
L 91.691888 -53.962809 
L 93.822353 -54.033709 
L 95.952817 -54.264775 
L 98.083281 -54.379193 
L 100.213746 -54.364908 
L 102.34421 -54.51667 
L 104.474674 -54.730959 
L 106.605139 -54.863698 
L 108.735603 -54.986947 
L 110.866068 -55.111307 
L 112.996532 -55.245401 
L 115.126996 -55.382635 
L 117.257461 -55.573037 
L 119.387925 -55.76728 
L 121.518389 -55.973439 
L 123.648854 -56.186107 
L 125.779318 -56.415053 
L 127.909783 -56.662968 
L 130.040247 -56.931984 
L 132.170711 -57.216692 
L 134.301176 -57.526922 
L 136.43164 -57.859344 
L 138.562104 -58.217579 
L 140.692569 -58.600586 
L 142.823033 -58.997743 
L 144.953498 -59.416446 
L 147.083962 -59.839613 
L 149.214426 -60.280952 
L 151.344891 -60.731532 
L 153.475355 -61.193165 
L 155.605819 -61.656094 
L 157.736284 -62.135059 
L 159.866748 -62.619513 
L 161.997213 -63.100525 
L 164.127677 -63.597705 
L 166.258141 -64.103872 
L 168.388606 -64.614196 
L 170.51907 -65.125091 
L 172.649534 -65.653387 
L 174.779999 -66.183475 
L 176.910463 -66.71688 
L 179.040928 -67.258105 
L 181.171392 -67.808572 
L 183.301856 -68.359368 
L 185.432321 -68.917185 
L 187.562785 -69.485498 
L 189.693249 -70.063939 
L 191.823714 -70.648136 
L 193.954178 -71.245725 
L 196.084643 -71.851891 
L 198.215107 -72.469857 
L 200.345571 -73.091698 
L 202.476036 -73.72664 
L 204.6065 -74.365799 
L 206.736964 -75.015802 
L 208.867429 -75.673345 
L 210.997893 -76.34514 
L 213.128358 -77.017885 
L 215.258822 -77.703402 
L 217.389286 -78.398944 
L 219.519751 -79.093321 
L 221.650215 -79.803625 
L 223.780679 -80.525392 
L 225.911144 -81.247771 
L 228.041608 -81.982279 
L 230.172073 -82.72909 
L 232.302537 -83.477283 
L 234.433001 -84.243737 
L 236.563466 -85.020839 
L 238.69393 -85.801309 
L 240.824394 -86.594017 
L 242.954859 -87.393133 
L 245.085323 -88.201963 
L 247.215788 -89.024312 
L 249.346252 -89.85157 
L 251.476716 -90.695871 
L 253.607181 -91.555502 
L 255.737645 -92.425908 
L 257.868109 -93.302646 
L 259.998574 -94.197924 
L 262.129038 -95.099303 
L 264.259503 -96.012808 
L 266.389967 -96.934038 
L 268.520431 -97.871468 
L 270.650896 -98.819644 
L 272.78136 -99.783504 
L 274.911824 -100.754132 
L 277.042289 -101.74636 
L 279.172753 -102.754848 
L 281.303218 -103.778241 
L 283.433682 -104.818448 
L 285.564146 -105.879443 
L 287.694611 -106.944992 
L 289.825075 -108.025623 
L 291.955539 -106.655475 
L 291.955539 -110.392593 
L 291.955539 -110.392593 
L 289.825075 -116.36083 
L 287.694611 -115.275324 
L 285.564146 -114.121091 
L 283.433682 -112.950103 
L 281.303218 -111.772417 
L 279.172753 -110.595356 
L 277.042289 -109.440023 
L 274.911824 -108.32682 
L 272.78136 -107.233276 
L 270.650896 -106.171856 
L 268.520431 -105.115402 
L 266.389967 -104.08221 
L 264.259503 -103.057397 
L 262.129038 -102.044503 
L 259.998574 -101.039664 
L 257.868109 -100.050763 
L 255.737645 -99.074333 
L 253.607181 -98.115873 
L 251.476716 -97.173527 
L 249.346252 -96.250065 
L 247.215788 -95.332617 
L 245.085323 -94.427492 
L 242.954859 -93.52607 
L 240.824394 -92.638 
L 238.69393 -91.751086 
L 236.563466 -90.889199 
L 234.433001 -90.034812 
L 232.302537 -89.191912 
L 230.172073 -88.36087 
L 228.041608 -87.543012 
L 225.911144 -86.730508 
L 223.780679 -85.933203 
L 221.650215 -85.147006 
L 219.519751 -84.364523 
L 217.389286 -83.593449 
L 215.258822 -82.830046 
L 213.128358 -82.064263 
L 210.997893 -81.31117 
L 208.867429 -80.570663 
L 206.736964 -79.839116 
L 204.6065 -79.107477 
L 202.476036 -78.3953 
L 200.345571 -77.686406 
L 198.215107 -76.983247 
L 196.084643 -76.27893 
L 193.954178 -75.599775 
L 191.823714 -74.925956 
L 189.693249 -74.258107 
L 187.562785 -73.595 
L 185.432321 -72.945167 
L 183.301856 -72.288887 
L 181.171392 -71.638724 
L 179.040928 -71.00412 
L 176.910463 -70.375329 
L 174.779999 -69.755877 
L 172.649534 -69.158634 
L 170.51907 -68.564746 
L 168.388606 -67.969591 
L 166.258141 -67.393592 
L 164.127677 -66.821181 
L 161.997213 -66.243245 
L 159.866748 -65.675251 
L 157.736284 -65.116414 
L 155.605819 -64.553407 
L 153.475355 -63.996831 
L 151.344891 -63.446451 
L 149.214426 -62.905325 
L 147.083962 -62.37221 
L 144.953498 -61.848168 
L 142.823033 -61.331066 
L 140.692569 -60.829469 
L 138.562104 -60.33656 
L 136.43164 -59.85402 
L 134.301176 -59.393186 
L 132.170711 -58.955308 
L 130.040247 -58.531008 
L 127.909783 -58.120532 
L 125.779318 -57.737488 
L 123.648854 -57.359935 
L 121.518389 -57.003968 
L 119.387925 -56.663897 
L 117.257461 -56.373973 
L 115.126996 -56.112049 
L 112.996532 -55.886825 
L 110.866068 -55.671125 
L 108.735603 -55.465574 
L 106.605139 -55.218553 
L 104.474674 -55.013022 
L 102.34421 -54.80299 
L 100.213746 -54.642735 
L 98.083281 -54.554725 
L 95.952817 -54.382576 
L 93.822353 -54.244105 
L 91.691888 -54.182917 
L 89.561424 -54.07128 
L 87.430959 -53.999419 
L 85.300495 -54.518412 
L 83.170031 -54.372633 
L 81.039566 -54.053541 
z
" style="stroke: #ff0000; stroke-opacity: 0.3"/>
    </defs>
    <g clip-path="url(#pdd3d27a4fc)">
     <use xlink:href="#m272ddb6398" x="0" y="345.6" style="fill: #ff0000; fill-opacity: 0.3; stroke: #ff0000; stroke-opacity: 0.3"/>
    </g>
   </g>
   <g id="FillBetweenPolyCollection_3">
    <defs>
     <path id="m049a48411d" d="M 81.039647 -54.026254 
L 81.039647 -54.003025 
L 84.589049 -54.41023 
L 88.138451 -54.092283 
L 91.687853 -54.222884 
L 95.237256 -54.245871 
L 98.786658 -54.276591 
L 102.33606 -54.379352 
L 105.885462 -54.540315 
L 109.434864 -54.545713 
L 112.984266 -54.813444 
L 116.533668 -55.203055 
L 120.08307 -55.509884 
L 123.632472 -55.758768 
L 127.181874 -56.095545 
L 130.731276 -56.482824 
L 134.280679 -56.924977 
L 137.830081 -57.419198 
L 141.379483 -57.987407 
L 144.928885 -58.620354 
L 148.478287 -59.298275 
L 152.027689 -60.003362 
L 155.577091 -60.738876 
L 159.126493 -61.511579 
L 162.675895 -62.322201 
L 166.225297 -63.168088 
L 169.7747 -64.03361 
L 173.324102 -64.929634 
L 176.873504 -65.823259 
L 180.422906 -66.739139 
L 183.972308 -67.664229 
L 187.52171 -68.611881 
L 191.071112 -69.578375 
L 194.620514 -70.593451 
L 198.169916 -71.612275 
L 201.719318 -72.658477 
L 205.26872 -73.734475 
L 208.818123 -74.850013 
L 212.367525 -75.986518 
L 215.916927 -77.146197 
L 219.466329 -78.334096 
L 223.015731 -79.547671 
L 226.565133 -80.765969 
L 230.114535 -82.012172 
L 233.663937 -83.306691 
L 237.213339 -84.630402 
L 240.762741 -85.995111 
L 244.312144 -87.377595 
L 247.861546 -88.78543 
L 251.410948 -90.214884 
L 254.96035 -91.703008 
L 258.509752 -93.22274 
L 262.059154 -94.800089 
L 265.608556 -96.426529 
L 269.157958 -98.070764 
L 272.70736 -99.748288 
L 276.256762 -101.46373 
L 279.806164 -103.250881 
L 283.355567 -105.079702 
L 286.904969 -106.960829 
L 290.454371 -108.897465 
L 294.003773 -110.890647 
L 297.553175 -112.921047 
L 301.102577 -115.012975 
L 304.651979 -117.190738 
L 308.201381 -119.414356 
L 311.750783 -121.701917 
L 315.300185 -124.061059 
L 318.849588 -126.491984 
L 322.39899 -128.994839 
L 325.948392 -131.571966 
L 329.497794 -134.25124 
L 333.047196 -136.993947 
L 336.596598 -139.814262 
L 340.146 -142.723264 
L 343.695402 -145.735018 
L 347.244804 -148.831265 
L 350.794206 -152.045794 
L 354.343608 -155.370587 
L 357.893011 -158.817299 
L 361.442413 -162.375416 
L 364.991815 -166.048742 
L 368.541217 -169.859397 
L 372.090619 -173.782638 
L 375.640021 -177.834016 
L 379.189423 -182.021357 
L 382.738825 -186.354559 
L 386.288227 -190.83694 
L 389.837629 -195.492146 
L 393.387032 -200.302887 
L 396.936434 -205.296352 
L 400.485836 -210.467873 
L 404.035238 -215.828369 
L 407.58464 -221.389861 
L 411.134042 -227.163529 
L 414.683444 -233.142344 
L 418.232846 -239.326794 
L 421.782248 -245.689136 
L 425.33165 -252.122498 
L 428.881052 -258.384687 
L 432.430455 -212.706628 
L 432.430455 -216.415294 
L 432.430455 -216.415294 
L 428.881052 -265.140445 
L 425.33165 -258.774841 
L 421.782248 -252.171256 
L 418.232846 -245.652605 
L 414.683444 -239.326444 
L 411.134042 -233.190599 
L 407.58464 -227.267216 
L 404.035238 -221.561302 
L 400.485836 -216.048995 
L 396.936434 -210.730028 
L 393.387032 -205.612191 
L 389.837629 -200.664623 
L 386.288227 -195.896701 
L 382.738825 -191.287717 
L 379.189423 -186.843784 
L 375.640021 -182.547034 
L 372.090619 -178.39876 
L 368.541217 -174.369878 
L 364.991815 -170.47575 
L 361.442413 -166.696701 
L 357.893011 -163.03667 
L 354.343608 -159.490679 
L 350.794206 -156.062471 
L 347.244804 -152.747641 
L 343.695402 -149.558064 
L 340.146 -146.4578 
L 336.596598 -143.467437 
L 333.047196 -140.560996 
L 329.497794 -137.738705 
L 325.948392 -134.993048 
L 322.39899 -132.342025 
L 318.849588 -129.772896 
L 315.300185 -127.28131 
L 311.750783 -124.862806 
L 308.201381 -122.508296 
L 304.651979 -120.216962 
L 301.102577 -117.971406 
L 297.553175 -115.808181 
L 294.003773 -113.715224 
L 290.454371 -111.667 
L 286.904969 -109.670371 
L 283.355567 -107.729769 
L 279.806164 -105.85213 
L 276.256762 -104.023506 
L 272.70736 -102.261594 
L 269.157958 -100.542086 
L 265.608556 -98.861983 
L 262.059154 -97.20264 
L 258.509752 -95.577335 
L 254.96035 -93.999298 
L 251.410948 -92.471524 
L 247.861546 -90.987383 
L 244.312144 -89.530809 
L 240.762741 -88.116569 
L 237.213339 -86.728907 
L 233.663937 -85.366327 
L 230.114535 -84.046686 
L 226.565133 -82.769527 
L 223.015731 -81.504748 
L 219.466329 -80.256128 
L 215.916927 -79.042422 
L 212.367525 -77.844664 
L 208.818123 -76.673694 
L 205.26872 -75.538087 
L 201.719318 -74.42989 
L 198.169916 -73.333031 
L 194.620514 -72.273538 
L 191.071112 -71.222043 
L 187.52171 -70.194495 
L 183.972308 -69.207946 
L 180.422906 -68.253481 
L 176.873504 -67.320822 
L 173.324102 -66.401504 
L 169.7747 -65.507983 
L 166.225297 -64.607124 
L 162.675895 -63.746932 
L 159.126493 -62.888612 
L 155.577091 -62.071928 
L 152.027689 -61.284084 
L 148.478287 -60.526468 
L 144.928885 -59.768459 
L 141.379483 -59.05152 
L 137.830081 -58.377334 
L 134.280679 -57.764353 
L 130.731276 -57.228696 
L 127.181874 -56.761648 
L 123.632472 -56.354125 
L 120.08307 -55.995786 
L 116.533668 -55.665725 
L 112.984266 -55.354269 
L 109.434864 -54.998819 
L 105.885462 -54.700789 
L 102.33606 -54.682779 
L 98.786658 -54.52085 
L 95.237256 -54.457563 
L 91.687853 -54.270605 
L 88.138451 -54.151323 
L 84.589049 -54.555535 
L 81.039647 -54.026254 
z
" style="stroke: #0000ff; stroke-opacity: 0.3"/>
    </defs>
    <g clip-path="url(#pdd3d27a4fc)">
     <use xlink:href="#m049a48411d" x="0" y="345.6" style="fill: #0000ff; fill-opacity: 0.3; stroke: #0000ff; stroke-opacity: 0.3"/>
    </g>
   </g>
   <g id="FillBetweenPolyCollection_4">
    <defs>
     <path id="mfbbdefbb52" d="M 81.039545 -54.056184 
L 81.039545 -53.999678 
L 84.588759 -54.733585 
L 88.137972 -54.10137 
L 91.687185 -54.139473 
L 95.236399 -54.181198 
L 98.785612 -54.272607 
L 102.334825 -54.425071 
L 105.884039 -54.585867 
L 109.433252 -54.701714 
L 112.982465 -54.789814 
L 116.531679 -54.916845 
L 120.080892 -54.954217 
L 123.630105 -55.080351 
L 127.179319 -55.405655 
L 130.728532 -55.841722 
L 134.277745 -56.27235 
L 137.826959 -56.714228 
L 141.376172 -57.205831 
L 144.925385 -57.727779 
L 148.474599 -58.271602 
L 152.023812 -58.884409 
L 155.573025 -59.563587 
L 159.122239 -60.291489 
L 162.671452 -61.042611 
L 166.220665 -61.817122 
L 169.769879 -62.632965 
L 173.319092 -63.465156 
L 176.868305 -64.324377 
L 180.417519 -65.245115 
L 183.966732 -66.187554 
L 187.515945 -67.133039 
L 191.065159 -68.090816 
L 194.614372 -69.067905 
L 198.163585 -70.06422 
L 201.712799 -71.088893 
L 205.262012 -72.153808 
L 208.811225 -73.248177 
L 212.360439 -74.353577 
L 215.909652 -75.470896 
L 219.458865 -76.631009 
L 223.008079 -77.815231 
L 226.557292 -79.039514 
L 230.106505 -80.300076 
L 233.655719 -81.599295 
L 237.204932 -82.903813 
L 240.754145 -84.215668 
L 244.303359 -85.564326 
L 247.852572 -86.961869 
L 251.401785 -88.401018 
L 254.950999 -89.880395 
L 258.500212 -91.399151 
L 262.049425 -92.934671 
L 265.598638 -94.491385 
L 269.147852 -96.093048 
L 272.697065 -97.77055 
L 276.246278 -99.50565 
L 279.795492 -101.277933 
L 283.344705 -103.082266 
L 286.893918 -104.92681 
L 290.443132 -106.819048 
L 293.992345 -108.771698 
L 297.541558 -110.813673 
L 301.090772 -112.912565 
L 304.639985 -115.063608 
L 308.189198 -117.26049 
L 311.738412 -119.523667 
L 315.287625 -121.872431 
L 318.836838 -124.2917 
L 322.386052 -126.797804 
L 325.935265 -129.369825 
L 329.484478 -132.007846 
L 333.033692 -134.722665 
L 336.582905 -137.543567 
L 340.132118 -140.460754 
L 343.681332 -143.47523 
L 347.230545 -146.590396 
L 350.779758 -149.807782 
L 354.328972 -153.133794 
L 357.878185 -156.570676 
L 361.427398 -160.135006 
L 364.976612 -163.831391 
L 368.525825 -167.649101 
L 372.075038 -171.592003 
L 375.624252 -175.680448 
L 379.173465 -179.912012 
L 382.722678 -184.294664 
L 386.271892 -188.827752 
L 389.821105 -193.543055 
L 393.370318 -198.439113 
L 396.919532 -203.503967 
L 400.468745 -208.745503 
L 404.017958 -214.15118 
L 407.567172 -219.735713 
L 411.116385 -225.485583 
L 414.665598 -231.412365 
L 418.214812 -237.527576 
L 421.764025 -243.761206 
L 425.313238 -250.00478 
L 428.862452 -256.098352 
L 432.411665 -209.419133 
L 432.411665 -229.891622 
L 432.411665 -229.891622 
L 428.862452 -291.844727 
L 425.313238 -284.855915 
L 421.764025 -277.567407 
L 418.214812 -270.279124 
L 414.665598 -263.135262 
L 411.116385 -256.168575 
L 407.567172 -249.38899 
L 404.017958 -242.771819 
L 400.468745 -236.341483 
L 396.919532 -230.115412 
L 393.370318 -224.114604 
L 389.821105 -218.318673 
L 386.271892 -212.732224 
L 382.722678 -207.340567 
L 379.173465 -202.132884 
L 375.624252 -197.1171 
L 372.075038 -192.278823 
L 368.525825 -187.634438 
L 364.976612 -183.157172 
L 361.427398 -178.826646 
L 357.878185 -174.647803 
L 354.328972 -170.608788 
L 350.779758 -166.710923 
L 347.230545 -162.931944 
L 343.681332 -159.285209 
L 340.132118 -155.770273 
L 336.582905 -152.371607 
L 333.033692 -149.080568 
L 329.484478 -145.902325 
L 325.935265 -142.824878 
L 322.386052 -139.83238 
L 318.836838 -136.935313 
L 315.287625 -134.150227 
L 311.738412 -131.451985 
L 308.189198 -128.831025 
L 304.639985 -126.269825 
L 301.090772 -123.790584 
L 297.541558 -121.387639 
L 293.992345 -119.057892 
L 290.443132 -116.81354 
L 286.893918 -114.631068 
L 283.344705 -112.499272 
L 279.795492 -110.4117 
L 276.246278 -108.403368 
L 272.697065 -106.474594 
L 269.147852 -104.603011 
L 265.598638 -102.772662 
L 262.049425 -100.975676 
L 258.500212 -99.209891 
L 254.950999 -97.489804 
L 251.401785 -95.839189 
L 247.852572 -94.242957 
L 244.303359 -92.692366 
L 240.754145 -91.159399 
L 237.204932 -89.636077 
L 233.655719 -88.162276 
L 230.106505 -86.725084 
L 226.557292 -85.340672 
L 223.008079 -84.004221 
L 219.458865 -82.686553 
L 215.909652 -81.375037 
L 212.360439 -80.082514 
L 208.811225 -78.822406 
L 205.262012 -77.608408 
L 201.712799 -76.431247 
L 198.163585 -75.276904 
L 194.614372 -74.151242 
L 191.065159 -73.053772 
L 187.515945 -71.96372 
L 183.966732 -70.90125 
L 180.417519 -69.869443 
L 176.868305 -68.871526 
L 173.319092 -67.892745 
L 169.769879 -66.926938 
L 166.220665 -65.976179 
L 162.671452 -65.043599 
L 159.122239 -64.154941 
L 155.573025 -63.292953 
L 152.023812 -62.470375 
L 148.474599 -61.669738 
L 144.925385 -60.894403 
L 141.376172 -60.134038 
L 137.826959 -59.384582 
L 134.277745 -58.695863 
L 130.728532 -58.047054 
L 127.179319 -57.444155 
L 123.630105 -56.866785 
L 120.080892 -56.389943 
L 116.531679 -56.099791 
L 112.982465 -55.906421 
L 109.433252 -55.581944 
L 105.884039 -55.217979 
L 102.334825 -54.936841 
L 98.785612 -54.771469 
L 95.236399 -54.616622 
L 91.687185 -54.410415 
L 88.137972 -54.237416 
L 84.588759 -54.988376 
L 81.039545 -54.056184 
z
" style="stroke: #008000; stroke-opacity: 0.3"/>
    </defs>
    <g clip-path="url(#pdd3d27a4fc)">
     <use xlink:href="#mfbbdefbb52" x="0" y="345.6" style="fill: #008000; fill-opacity: 0.3; stroke: #008000; stroke-opacity: 0.3"/>
    </g>
   </g>
   <g id="matplotlib.axis_1">
    <g id="xtick_1">
     <g id="line2d_1">
      <path d="M 81.039336 303.64 
L 81.039336 41.856 
" clip-path="url(#pdd3d27a4fc)" style="fill: none; stroke: #b0b0b0; stroke-opacity: 0.3; stroke-width: 0.8; stroke-linecap: square"/>
     </g>
     <g id="line2d_2">
      <defs>
       <path id="m620102d17f" d="M 0 0 
L 0 3.5 
" style="stroke: #000000; stroke-width: 0.8"/>
      </defs>
      <g>
       <use xlink:href="#m620102d17f" x="81.039336" y="303.64" style="stroke: #000000; stroke-width: 0.8"/>
      </g>
     </g>
     <g id="text_1">
      <!-- 0.0 -->
      <g transform="translate(73.087773 318.238437) scale(0.1 -0.1)">
       <defs>
        <path id="DejaVuSans-30" d="M 2034 4250 
Q 1547 4250 1301 3770 
Q 1056 3291 1056 2328 
Q 1056 1369 1301 889 
Q 1547 409 2034 409 
Q 2525 409 2770 889 
Q 3016 1369 3016 2328 
Q 3016 3291 2770 3770 
Q 2525 4250 2034 4250 
z
M 2034 4750 
Q 2819 4750 3233 4129 
Q 3647 3509 3647 2328 
Q 3647 1150 3233 529 
Q 2819 -91 2034 -91 
Q 1250 -91 836 529 
Q 422 1150 422 2328 
Q 422 3509 836 4129 
Q 1250 4750 2034 4750 
z
" transform="scale(0.015625)"/>
        <path id="DejaVuSans-2e" d="M 684 794 
L 1344 794 
L 1344 0 
L 684 0 
L 684 794 
z
" transform="scale(0.015625)"/>
       </defs>
       <use xlink:href="#DejaVuSans-30"/>
       <use xlink:href="#DejaVuSans-2e" transform="translate(63.623047 0)"/>
       <use xlink:href="#DejaVuSans-30" transform="translate(95.410156 0)"/>
      </g>
     </g>
    </g>
    <g id="xtick_2">
     <g id="line2d_3">
      <path d="M 158.303588 303.64 
L 158.303588 41.856 
" clip-path="url(#pdd3d27a4fc)" style="fill: none; stroke: #b0b0b0; stroke-opacity: 0.3; stroke-width: 0.8; stroke-linecap: square"/>
     </g>
     <g id="line2d_4">
      <g>
       <use xlink:href="#m620102d17f" x="158.303588" y="303.64" style="stroke: #000000; stroke-width: 0.8"/>
      </g>
     </g>
     <g id="text_2">
      <!-- 0.1 -->
      <g transform="translate(150.352025 318.238437) scale(0.1 -0.1)">
       <defs>
        <path id="DejaVuSans-31" d="M 794 531 
L 1825 531 
L 1825 4091 
L 703 3866 
L 703 4441 
L 1819 4666 
L 2450 4666 
L 2450 531 
L 3481 531 
L 3481 0 
L 794 0 
L 794 531 
z
" transform="scale(0.015625)"/>
       </defs>
       <use xlink:href="#DejaVuSans-30"/>
       <use xlink:href="#DejaVuSans-2e" transform="translate(63.623047 0)"/>
       <use xlink:href="#DejaVuSans-31" transform="translate(95.410156 0)"/>
      </g>
     </g>
    </g>
    <g id="xtick_3">
     <g id="line2d_5">
      <path d="M 235.56784 303.64 
L 235.56784 41.856 
" clip-path="url(#pdd3d27a4fc)" style="fill: none; stroke: #b0b0b0; stroke-opacity: 0.3; stroke-width: 0.8; stroke-linecap: square"/>
     </g>
     <g id="line2d_6">
      <g>
       <use xlink:href="#m620102d17f" x="235.56784" y="303.64" style="stroke: #000000; stroke-width: 0.8"/>
      </g>
     </g>
     <g id="text_3">
      <!-- 0.2 -->
      <g transform="translate(227.616277 318.238437) scale(0.1 -0.1)">
       <defs>
        <path id="DejaVuSans-32" d="M 1228 531 
L 3431 531 
L 3431 0 
L 469 0 
L 469 531 
Q 828 903 1448 1529 
Q 2069 2156 2228 2338 
Q 2531 2678 2651 2914 
Q 2772 3150 2772 3378 
Q 2772 3750 2511 3984 
Q 2250 4219 1831 4219 
Q 1534 4219 1204 4116 
Q 875 4013 500 3803 
L 500 4441 
Q 881 4594 1212 4672 
Q 1544 4750 1819 4750 
Q 2544 4750 2975 4387 
Q 3406 4025 3406 3419 
Q 3406 3131 3298 2873 
Q 3191 2616 2906 2266 
Q 2828 2175 2409 1742 
Q 1991 1309 1228 531 
z
" transform="scale(0.015625)"/>
       </defs>
       <use xlink:href="#DejaVuSans-30"/>
       <use xlink:href="#DejaVuSans-2e" transform="translate(63.623047 0)"/>
       <use xlink:href="#DejaVuSans-32" transform="translate(95.410156 0)"/>
      </g>
     </g>
    </g>
    <g id="xtick_4">
     <g id="line2d_7">
      <path d="M 312.832092 303.64 
L 312.832092 41.856 
" clip-path="url(#pdd3d27a4fc)" style="fill: none; stroke: #b0b0b0; stroke-opacity: 0.3; stroke-width: 0.8; stroke-linecap: square"/>
     </g>
     <g id="line2d_8">
      <g>
       <use xlink:href="#m620102d17f" x="312.832092" y="303.64" style="stroke: #000000; stroke-width: 0.8"/>
      </g>
     </g>
     <g id="text_4">
      <!-- 0.3 -->
      <g transform="translate(304.880529 318.238437) scale(0.1 -0.1)">
       <defs>
        <path id="DejaVuSans-33" d="M 2597 2516 
Q 3050 2419 3304 2112 
Q 3559 1806 3559 1356 
Q 3559 666 3084 287 
Q 2609 -91 1734 -91 
Q 1441 -91 1130 -33 
Q 819 25 488 141 
L 488 750 
Q 750 597 1062 519 
Q 1375 441 1716 441 
Q 2309 441 2620 675 
Q 2931 909 2931 1356 
Q 2931 1769 2642 2001 
Q 2353 2234 1838 2234 
L 1294 2234 
L 1294 2753 
L 1863 2753 
Q 2328 2753 2575 2939 
Q 2822 3125 2822 3475 
Q 2822 3834 2567 4026 
Q 2313 4219 1838 4219 
Q 1578 4219 1281 4162 
Q 984 4106 628 3988 
L 628 4550 
Q 988 4650 1302 4700 
Q 1616 4750 1894 4750 
Q 2613 4750 3031 4423 
Q 3450 4097 3450 3541 
Q 3450 3153 3228 2886 
Q 3006 2619 2597 2516 
z
" transform="scale(0.015625)"/>
       </defs>
       <use xlink:href="#DejaVuSans-30"/>
       <use xlink:href="#DejaVuSans-2e" transform="translate(63.623047 0)"/>
       <use xlink:href="#DejaVuSans-33" transform="translate(95.410156 0)"/>
      </g>
     </g>
    </g>
    <g id="xtick_5">
     <g id="line2d_9">
      <path d="M 390.096344 303.64 
L 390.096344 41.856 
" clip-path="url(#pdd3d27a4fc)" style="fill: none; stroke: #b0b0b0; stroke-opacity: 0.3; stroke-width: 0.8; stroke-linecap: square"/>
     </g>
     <g id="line2d_10">
      <g>
       <use xlink:href="#m620102d17f" x="390.096344" y="303.64" style="stroke: #000000; stroke-width: 0.8"/>
      </g>
     </g>
     <g id="text_5">
      <!-- 0.4 -->
      <g transform="translate(382.144781 318.238437) scale(0.1 -0.1)">
       <defs>
        <path id="DejaVuSans-34" d="M 2419 4116 
L 825 1625 
L 2419 1625 
L 2419 4116 
z
M 2253 4666 
L 3047 4666 
L 3047 1625 
L 3713 1625 
L 3713 1100 
L 3047 1100 
L 3047 0 
L 2419 0 
L 2419 1100 
L 313 1100 
L 313 1709 
L 2253 4666 
z
" transform="scale(0.015625)"/>
       </defs>
       <use xlink:href="#DejaVuSans-30"/>
       <use xlink:href="#DejaVuSans-2e" transform="translate(63.623047 0)"/>
       <use xlink:href="#DejaVuSans-34" transform="translate(95.410156 0)"/>
      </g>
     </g>
    </g>
    <g id="text_6">
     <!-- Strain [-] -->
     <g transform="translate(234.62875 331.916562) scale(0.1 -0.1)">
      <defs>
       <path id="DejaVuSans-53" d="M 3425 4513 
L 3425 3897 
Q 3066 4069 2747 4153 
Q 2428 4238 2131 4238 
Q 1616 4238 1336 4038 
Q 1056 3838 1056 3469 
Q 1056 3159 1242 3001 
Q 1428 2844 1947 2747 
L 2328 2669 
Q 3034 2534 3370 2195 
Q 3706 1856 3706 1288 
Q 3706 609 3251 259 
Q 2797 -91 1919 -91 
Q 1588 -91 1214 -16 
Q 841 59 441 206 
L 441 856 
Q 825 641 1194 531 
Q 1563 422 1919 422 
Q 2459 422 2753 634 
Q 3047 847 3047 1241 
Q 3047 1584 2836 1778 
Q 2625 1972 2144 2069 
L 1759 2144 
Q 1053 2284 737 2584 
Q 422 2884 422 3419 
Q 422 4038 858 4394 
Q 1294 4750 2059 4750 
Q 2388 4750 2728 4690 
Q 3069 4631 3425 4513 
z
" transform="scale(0.015625)"/>
       <path id="DejaVuSans-74" d="M 1172 4494 
L 1172 3500 
L 2356 3500 
L 2356 3053 
L 1172 3053 
L 1172 1153 
Q 1172 725 1289 603 
Q 1406 481 1766 481 
L 2356 481 
L 2356 0 
L 1766 0 
Q 1100 0 847 248 
Q 594 497 594 1153 
L 594 3053 
L 172 3053 
L 172 3500 
L 594 3500 
L 594 4494 
L 1172 4494 
z
" transform="scale(0.015625)"/>
       <path id="DejaVuSans-72" d="M 2631 2963 
Q 2534 3019 2420 3045 
Q 2306 3072 2169 3072 
Q 1681 3072 1420 2755 
Q 1159 2438 1159 1844 
L 1159 0 
L 581 0 
L 581 3500 
L 1159 3500 
L 1159 2956 
Q 1341 3275 1631 3429 
Q 1922 3584 2338 3584 
Q 2397 3584 2469 3576 
Q 2541 3569 2628 3553 
L 2631 2963 
z
" transform="scale(0.015625)"/>
       <path id="DejaVuSans-61" d="M 2194 1759 
Q 1497 1759 1228 1600 
Q 959 1441 959 1056 
Q 959 750 1161 570 
Q 1363 391 1709 391 
Q 2188 391 2477 730 
Q 2766 1069 2766 1631 
L 2766 1759 
L 2194 1759 
z
M 3341 1997 
L 3341 0 
L 2766 0 
L 2766 531 
Q 2569 213 2275 61 
Q 1981 -91 1556 -91 
Q 1019 -91 701 211 
Q 384 513 384 1019 
Q 384 1609 779 1909 
Q 1175 2209 1959 2209 
L 2766 2209 
L 2766 2266 
Q 2766 2663 2505 2880 
Q 2244 3097 1772 3097 
Q 1472 3097 1187 3025 
Q 903 2953 641 2809 
L 641 3341 
Q 956 3463 1253 3523 
Q 1550 3584 1831 3584 
Q 2591 3584 2966 3190 
Q 3341 2797 3341 1997 
z
" transform="scale(0.015625)"/>
       <path id="DejaVuSans-69" d="M 603 3500 
L 1178 3500 
L 1178 0 
L 603 0 
L 603 3500 
z
M 603 4863 
L 1178 4863 
L 1178 4134 
L 603 4134 
L 603 4863 
z
" transform="scale(0.015625)"/>
       <path id="DejaVuSans-6e" d="M 3513 2113 
L 3513 0 
L 2938 0 
L 2938 2094 
Q 2938 2591 2744 2837 
Q 2550 3084 2163 3084 
Q 1697 3084 1428 2787 
Q 1159 2491 1159 1978 
L 1159 0 
L 581 0 
L 581 3500 
L 1159 3500 
L 1159 2956 
Q 1366 3272 1645 3428 
Q 1925 3584 2291 3584 
Q 2894 3584 3203 3211 
Q 3513 2838 3513 2113 
z
" transform="scale(0.015625)"/>
       <path id="DejaVuSans-20" transform="scale(0.015625)"/>
       <path id="DejaVuSans-5b" d="M 550 4863 
L 1875 4863 
L 1875 4416 
L 1125 4416 
L 1125 -397 
L 1875 -397 
L 1875 -844 
L 550 -844 
L 550 4863 
z
" transform="scale(0.015625)"/>
       <path id="DejaVuSans-2d" d="M 313 2009 
L 1997 2009 
L 1997 1497 
L 313 1497 
L 313 2009 
z
" transform="scale(0.015625)"/>
       <path id="DejaVuSans-5d" d="M 1947 4863 
L 1947 -844 
L 622 -844 
L 622 -397 
L 1369 -397 
L 1369 4416 
L 622 4416 
L 622 4863 
L 1947 4863 
z
" transform="scale(0.015625)"/>
      </defs>
      <use xlink:href="#DejaVuSans-53"/>
      <use xlink:href="#DejaVuSans-74" transform="translate(63.476562 0)"/>
      <use xlink:href="#DejaVuSans-72" transform="translate(102.685547 0)"/>
      <use xlink:href="#DejaVuSans-61" transform="translate(143.798828 0)"/>
      <use xlink:href="#DejaVuSans-69" transform="translate(205.078125 0)"/>
      <use xlink:href="#DejaVuSans-6e" transform="translate(232.861328 0)"/>
      <use xlink:href="#DejaVuSans-20" transform="translate(296.240234 0)"/>
      <use xlink:href="#DejaVuSans-5b" transform="translate(328.027344 0)"/>
      <use xlink:href="#DejaVuSans-2d" transform="translate(367.041016 0)"/>
      <use xlink:href="#DejaVuSans-5d" transform="translate(403.125 0)"/>
     </g>
    </g>
   </g>
   <g id="matplotlib.axis_2">
    <g id="ytick_1">
     <g id="line2d_11">
      <path d="M 63.47 291.50869 
L 450 291.50869 
" clip-path="url(#pdd3d27a4fc)" style="fill: none; stroke: #b0b0b0; stroke-opacity: 0.3; stroke-width: 0.8; stroke-linecap: square"/>
     </g>
     <g id="line2d_12">
      <defs>
       <path id="m4fa9c53648" d="M 0 0 
L -3.5 0 
" style="stroke: #000000; stroke-width: 0.8"/>
      </defs>
      <g>
       <use xlink:href="#m4fa9c53648" x="63.47" y="291.50869" style="stroke: #000000; stroke-width: 0.8"/>
      </g>
     </g>
     <g id="text_7">
      <!-- 0 -->
      <g transform="translate(50.1075 295.307909) scale(0.1 -0.1)">
       <use xlink:href="#DejaVuSans-30"/>
      </g>
     </g>
    </g>
    <g id="ytick_2">
     <g id="line2d_13">
      <path d="M 63.47 247.505148 
L 450 247.505148 
" clip-path="url(#pdd3d27a4fc)" style="fill: none; stroke: #b0b0b0; stroke-opacity: 0.3; stroke-width: 0.8; stroke-linecap: square"/>
     </g>
     <g id="line2d_14">
      <g>
       <use xlink:href="#m4fa9c53648" x="63.47" y="247.505148" style="stroke: #000000; stroke-width: 0.8"/>
      </g>
     </g>
     <g id="text_8">
      <!-- 5000 -->
      <g transform="translate(31.02 251.304367) scale(0.1 -0.1)">
       <defs>
        <path id="DejaVuSans-35" d="M 691 4666 
L 3169 4666 
L 3169 4134 
L 1269 4134 
L 1269 2991 
Q 1406 3038 1543 3061 
Q 1681 3084 1819 3084 
Q 2600 3084 3056 2656 
Q 3513 2228 3513 1497 
Q 3513 744 3044 326 
Q 2575 -91 1722 -91 
Q 1428 -91 1123 -41 
Q 819 9 494 109 
L 494 744 
Q 775 591 1075 516 
Q 1375 441 1709 441 
Q 2250 441 2565 725 
Q 2881 1009 2881 1497 
Q 2881 1984 2565 2268 
Q 2250 2553 1709 2553 
Q 1456 2553 1204 2497 
Q 953 2441 691 2322 
L 691 4666 
z
" transform="scale(0.015625)"/>
       </defs>
       <use xlink:href="#DejaVuSans-35"/>
       <use xlink:href="#DejaVuSans-30" transform="translate(63.623047 0)"/>
       <use xlink:href="#DejaVuSans-30" transform="translate(127.246094 0)"/>
       <use xlink:href="#DejaVuSans-30" transform="translate(190.869141 0)"/>
      </g>
     </g>
    </g>
    <g id="ytick_3">
     <g id="line2d_15">
      <path d="M 63.47 203.501606 
L 450 203.501606 
" clip-path="url(#pdd3d27a4fc)" style="fill: none; stroke: #b0b0b0; stroke-opacity: 0.3; stroke-width: 0.8; stroke-linecap: square"/>
     </g>
     <g id="line2d_16">
      <g>
       <use xlink:href="#m4fa9c53648" x="63.47" y="203.501606" style="stroke: #000000; stroke-width: 0.8"/>
      </g>
     </g>
     <g id="text_9">
      <!-- 10000 -->
      <g transform="translate(24.6575 207.300825) scale(0.1 -0.1)">
       <use xlink:href="#DejaVuSans-31"/>
       <use xlink:href="#DejaVuSans-30" transform="translate(63.623047 0)"/>
       <use xlink:href="#DejaVuSans-30" transform="translate(127.246094 0)"/>
       <use xlink:href="#DejaVuSans-30" transform="translate(190.869141 0)"/>
       <use xlink:href="#DejaVuSans-30" transform="translate(254.492188 0)"/>
      </g>
     </g>
    </g>
    <g id="ytick_4">
     <g id="line2d_17">
      <path d="M 63.47 159.498064 
L 450 159.498064 
" clip-path="url(#pdd3d27a4fc)" style="fill: none; stroke: #b0b0b0; stroke-opacity: 0.3; stroke-width: 0.8; stroke-linecap: square"/>
     </g>
     <g id="line2d_18">
      <g>
       <use xlink:href="#m4fa9c53648" x="63.47" y="159.498064" style="stroke: #000000; stroke-width: 0.8"/>
      </g>
     </g>
     <g id="text_10">
      <!-- 15000 -->
      <g transform="translate(24.6575 163.297283) scale(0.1 -0.1)">
       <use xlink:href="#DejaVuSans-31"/>
       <use xlink:href="#DejaVuSans-35" transform="translate(63.623047 0)"/>
       <use xlink:href="#DejaVuSans-30" transform="translate(127.246094 0)"/>
       <use xlink:href="#DejaVuSans-30" transform="translate(190.869141 0)"/>
       <use xlink:href="#DejaVuSans-30" transform="translate(254.492188 0)"/>
      </g>
     </g>
    </g>
    <g id="ytick_5">
     <g id="line2d_19">
      <path d="M 63.47 115.494522 
L 450 115.494522 
" clip-path="url(#pdd3d27a4fc)" style="fill: none; stroke: #b0b0b0; stroke-opacity: 0.3; stroke-width: 0.8; stroke-linecap: square"/>
     </g>
     <g id="line2d_20">
      <g>
       <use xlink:href="#m4fa9c53648" x="63.47" y="115.494522" style="stroke: #000000; stroke-width: 0.8"/>
      </g>
     </g>
     <g id="text_11">
      <!-- 20000 -->
      <g transform="translate(24.6575 119.293741) scale(0.1 -0.1)">
       <use xlink:href="#DejaVuSans-32"/>
       <use xlink:href="#DejaVuSans-30" transform="translate(63.623047 0)"/>
       <use xlink:href="#DejaVuSans-30" transform="translate(127.246094 0)"/>
       <use xlink:href="#DejaVuSans-30" transform="translate(190.869141 0)"/>
       <use xlink:href="#DejaVuSans-30" transform="translate(254.492188 0)"/>
      </g>
     </g>
    </g>
    <g id="ytick_6">
     <g id="line2d_21">
      <path d="M 63.47 71.49098 
L 450 71.49098 
" clip-path="url(#pdd3d27a4fc)" style="fill: none; stroke: #b0b0b0; stroke-opacity: 0.3; stroke-width: 0.8; stroke-linecap: square"/>
     </g>
     <g id="line2d_22">
      <g>
       <use xlink:href="#m4fa9c53648" x="63.47" y="71.49098" style="stroke: #000000; stroke-width: 0.8"/>
      </g>
     </g>
     <g id="text_12">
      <!-- 25000 -->
      <g transform="translate(24.6575 75.290198) scale(0.1 -0.1)">
       <use xlink:href="#DejaVuSans-32"/>
       <use xlink:href="#DejaVuSans-35" transform="translate(63.623047 0)"/>
       <use xlink:href="#DejaVuSans-30" transform="translate(127.246094 0)"/>
       <use xlink:href="#DejaVuSans-30" transform="translate(190.869141 0)"/>
       <use xlink:href="#DejaVuSans-30" transform="translate(254.492188 0)"/>
      </g>
     </g>
    </g>
    <g id="text_13">
     <!-- Stress [Pa] -->
     <g transform="translate(18.577813 199.455812) rotate(-90) scale(0.1 -0.1)">
      <defs>
       <path id="DejaVuSans-65" d="M 3597 1894 
L 3597 1613 
L 953 1613 
Q 991 1019 1311 708 
Q 1631 397 2203 397 
Q 2534 397 2845 478 
Q 3156 559 3463 722 
L 3463 178 
Q 3153 47 2828 -22 
Q 2503 -91 2169 -91 
Q 1331 -91 842 396 
Q 353 884 353 1716 
Q 353 2575 817 3079 
Q 1281 3584 2069 3584 
Q 2775 3584 3186 3129 
Q 3597 2675 3597 1894 
z
M 3022 2063 
Q 3016 2534 2758 2815 
Q 2500 3097 2075 3097 
Q 1594 3097 1305 2825 
Q 1016 2553 972 2059 
L 3022 2063 
z
" transform="scale(0.015625)"/>
       <path id="DejaVuSans-73" d="M 2834 3397 
L 2834 2853 
Q 2591 2978 2328 3040 
Q 2066 3103 1784 3103 
Q 1356 3103 1142 2972 
Q 928 2841 928 2578 
Q 928 2378 1081 2264 
Q 1234 2150 1697 2047 
L 1894 2003 
Q 2506 1872 2764 1633 
Q 3022 1394 3022 966 
Q 3022 478 2636 193 
Q 2250 -91 1575 -91 
Q 1294 -91 989 -36 
Q 684 19 347 128 
L 347 722 
Q 666 556 975 473 
Q 1284 391 1588 391 
Q 1994 391 2212 530 
Q 2431 669 2431 922 
Q 2431 1156 2273 1281 
Q 2116 1406 1581 1522 
L 1381 1569 
Q 847 1681 609 1914 
Q 372 2147 372 2553 
Q 372 3047 722 3315 
Q 1072 3584 1716 3584 
Q 2034 3584 2315 3537 
Q 2597 3491 2834 3397 
z
" transform="scale(0.015625)"/>
       <path id="DejaVuSans-50" d="M 1259 4147 
L 1259 2394 
L 2053 2394 
Q 2494 2394 2734 2622 
Q 2975 2850 2975 3272 
Q 2975 3691 2734 3919 
Q 2494 4147 2053 4147 
L 1259 4147 
z
M 628 4666 
L 2053 4666 
Q 2838 4666 3239 4311 
Q 3641 3956 3641 3272 
Q 3641 2581 3239 2228 
Q 2838 1875 2053 1875 
L 1259 1875 
L 1259 0 
L 628 0 
L 628 4666 
z
" transform="scale(0.015625)"/>
      </defs>
      <use xlink:href="#DejaVuSans-53"/>
      <use xlink:href="#DejaVuSans-74" transform="translate(63.476562 0)"/>
      <use xlink:href="#DejaVuSans-72" transform="translate(102.685547 0)"/>
      <use xlink:href="#DejaVuSans-65" transform="translate(141.548828 0)"/>
      <use xlink:href="#DejaVuSans-73" transform="translate(203.072266 0)"/>
      <use xlink:href="#DejaVuSans-73" transform="translate(255.171875 0)"/>
      <use xlink:href="#DejaVuSans-20" transform="translate(307.271484 0)"/>
      <use xlink:href="#DejaVuSans-5b" transform="translate(339.058594 0)"/>
      <use xlink:href="#DejaVuSans-50" transform="translate(378.072266 0)"/>
      <use xlink:href="#DejaVuSans-61" transform="translate(433.875 0)"/>
      <use xlink:href="#DejaVuSans-5d" transform="translate(495.154297 0)"/>
     </g>
    </g>
   </g>
   <g id="line2d_23">
    <path d="M 81.040639 291.563872 
L 81.752618 291.503679 
L 82.464598 291.416302 
L 83.176577 291.349625 
L 83.888556 291.439951 
L 84.600536 291.510994 
L 85.312515 291.491343 
L 86.024494 291.454808 
L 86.736474 291.42379 
L 87.448453 291.392516 
L 88.160432 291.382073 
L 88.872412 291.366274 
L 89.584391 291.304067 
L 90.29637 291.249311 
L 91.00835 291.208234 
L 91.720329 291.186003 
L 92.432308 291.166817 
L 93.144288 291.153614 
L 93.856267 291.147291 
L 94.568246 291.136528 
L 95.280226 291.122425 
L 95.992205 291.087399 
L 96.704184 291.038776 
L 97.416164 290.982662 
L 98.128143 290.932443 
L 98.840122 290.896261 
L 99.552102 290.868706 
L 100.264081 290.837191 
L 100.97606 290.806355 
L 101.68804 290.772356 
L 102.400019 290.731159 
L 103.111998 290.686214 
L 103.823978 290.639541 
L 104.535957 290.593727 
L 105.247937 290.546535 
L 105.959916 290.497312 
L 106.671895 290.448209 
L 107.383875 290.400497 
L 108.095854 290.352276 
L 108.807833 290.297578 
L 109.519813 290.242971 
L 110.231792 290.18446 
L 110.943771 290.121306 
L 111.655751 290.05337 
L 112.36773 289.987571 
L 113.079709 289.922174 
L 113.791689 289.854891 
L 114.503668 289.782988 
L 115.215647 289.708409 
L 115.927627 289.632331 
L 116.639606 289.554676 
L 117.351585 289.475344 
L 118.063565 289.393208 
L 118.775544 289.305697 
L 119.487523 289.214623 
L 120.199503 289.121179 
L 120.911482 289.024056 
L 121.623461 288.925828 
L 122.335441 288.826733 
L 123.04742 288.72314 
L 123.759399 288.616038 
L 124.471379 288.50698 
L 125.183358 288.395872 
L 125.895337 288.28145 
L 126.607317 288.165951 
L 127.319296 288.049159 
L 128.031275 287.927576 
L 128.743255 287.799955 
L 129.455234 287.670308 
L 130.167213 287.538565 
L 130.879193 287.404375 
L 131.591172 287.27087 
L 132.303151 287.134776 
L 133.015131 286.995939 
L 133.72711 286.855949 
L 134.439089 286.712391 
L 135.151069 286.56635 
L 135.863048 286.419251 
L 136.575027 286.270866 
L 137.287007 286.11911 
L 137.998986 285.96532 
L 138.710966 285.806986 
L 139.422945 285.648723 
L 140.134924 285.490496 
L 140.846904 285.330793 
L 141.558883 285.168945 
L 142.270862 285.005999 
L 142.982842 284.839807 
L 143.694821 284.669174 
L 144.4068 284.49799 
L 145.11878 284.32768 
L 145.830759 284.155554 
L 146.542738 283.981211 
L 147.254718 283.806004 
L 147.966697 283.628654 
L 148.678676 283.450038 
L 149.390656 283.273974 
L 150.102635 283.096477 
L 150.814614 282.916604 
L 151.526594 283.184326 
" clip-path="url(#pdd3d27a4fc)" style="fill: none; stroke: #000000; stroke-width: 2; stroke-linecap: square"/>
   </g>
   <g id="line2d_24">
    <path d="M 81.039566 291.578194 
L 83.170031 291.27367 
L 85.300495 291.181525 
L 87.430959 291.670654 
L 89.561424 291.589905 
L 91.691888 291.527137 
L 93.822353 291.461093 
L 95.952817 291.276324 
L 98.083281 291.133041 
L 100.213746 291.096178 
L 102.34421 290.94017 
L 104.474674 290.728009 
L 106.605139 290.558874 
L 108.735603 290.37374 
L 110.866068 290.208784 
L 112.996532 290.033887 
L 115.126996 289.852658 
L 117.257461 289.626495 
L 119.387925 289.384411 
L 121.518389 289.111296 
L 123.648854 288.826979 
L 125.779318 288.523729 
L 127.909783 288.20825 
L 130.040247 287.868504 
L 132.170711 287.514 
L 134.301176 287.139946 
L 136.43164 286.743318 
L 138.562104 286.32293 
L 140.692569 285.884972 
L 142.823033 285.435596 
L 144.953498 284.967693 
L 147.083962 284.494089 
L 149.214426 284.006861 
L 151.344891 283.511008 
L 153.475355 283.005002 
L 155.605819 282.495249 
L 157.736284 281.974263 
L 159.866748 281.452618 
L 161.997213 280.928115 
L 164.127677 280.390557 
L 166.258141 279.851268 
L 168.388606 279.308106 
L 170.51907 278.755082 
L 172.649534 278.193989 
L 174.779999 277.630324 
L 176.910463 277.053895 
L 179.040928 276.468887 
L 181.171392 275.876352 
L 183.301856 275.275872 
L 185.432321 274.668824 
L 187.562785 274.059751 
L 189.693249 273.438977 
L 191.823714 272.812954 
L 193.954178 272.17725 
L 196.084643 271.534589 
L 198.215107 270.873448 
L 200.345571 270.210948 
L 202.476036 269.53903 
L 204.6065 268.863362 
L 206.736964 268.172541 
L 208.867429 267.477996 
L 210.997893 266.771845 
L 213.128358 266.058926 
L 215.258822 265.333276 
L 217.389286 264.603803 
L 219.519751 263.871078 
L 221.650215 263.124685 
L 223.780679 262.370702 
L 225.911144 261.610861 
L 228.041608 260.837354 
L 230.172073 260.05502 
L 232.302537 259.265403 
L 234.433001 258.460726 
L 236.563466 257.644981 
L 238.69393 256.823803 
L 240.824394 255.983991 
L 242.954859 255.140398 
L 245.085323 254.285273 
L 247.215788 253.421535 
L 249.346252 252.549183 
L 251.476716 251.665301 
L 253.607181 250.764312 
L 255.737645 249.84988 
L 257.868109 248.923296 
L 259.998574 247.981206 
L 262.129038 247.028097 
L 264.259503 246.064898 
L 266.389967 245.091876 
L 268.520431 244.106565 
L 270.650896 243.10425 
L 272.78136 242.09161 
L 274.911824 241.059524 
L 277.042289 240.006809 
L 279.172753 238.924898 
L 281.303218 237.824671 
L 283.433682 236.715724 
L 285.564146 235.599733 
L 287.694611 234.489842 
L 289.825075 233.406774 
L 291.955539 237.075966 
" clip-path="url(#pdd3d27a4fc)" style="fill: none; stroke: #ff0000; stroke-width: 2; stroke-linecap: square"/>
   </g>
   <g id="line2d_25">
    <path d="M 81.039647 291.585361 
L 84.589049 291.117118 
L 88.138451 291.478197 
L 91.687853 291.353256 
L 95.237256 291.248283 
L 98.786658 291.201279 
L 102.33606 291.068934 
L 105.885462 290.979448 
L 109.434864 290.827734 
L 112.984266 290.516143 
L 116.533668 290.16561 
L 120.08307 289.847165 
L 123.632472 289.543553 
L 127.181874 289.171404 
L 130.731276 288.74424 
L 134.280679 288.255335 
L 137.830081 287.701734 
L 141.379483 287.080537 
L 144.928885 286.405593 
L 148.478287 285.687629 
L 152.027689 284.956277 
L 155.577091 284.194598 
L 159.126493 283.399904 
L 162.675895 282.565434 
L 166.225297 281.712394 
L 169.7747 280.829204 
L 173.324102 279.934431 
L 176.873504 279.027959 
L 180.422906 278.10369 
L 183.972308 277.163912 
L 187.52171 276.196812 
L 191.071112 275.199791 
L 194.620514 274.166506 
L 198.169916 273.127347 
L 201.719318 272.055816 
L 205.26872 270.963719 
L 208.818123 269.838147 
L 212.367525 268.684409 
L 215.916927 267.505691 
L 219.466329 266.304888 
L 223.015731 265.073791 
L 226.565133 263.832252 
L 230.114535 262.570571 
L 233.663937 261.263491 
L 237.213339 259.920345 
L 240.762741 258.54416 
L 244.312144 257.145798 
L 247.861546 255.713594 
L 251.410948 254.256796 
L 254.96035 252.748847 
L 258.509752 251.199962 
L 262.059154 249.598636 
L 265.608556 247.955744 
L 269.157958 246.293575 
L 272.70736 244.595059 
L 276.256762 242.856382 
L 279.806164 241.048495 
L 283.355567 239.195265 
L 286.904969 237.2844 
L 290.454371 235.317768 
L 294.003773 233.297064 
L 297.553175 231.235386 
L 301.102577 229.10781 
L 304.651979 226.89615 
L 308.201381 224.638674 
L 311.750783 222.317639 
L 315.300185 219.928816 
L 318.849588 217.46756 
L 322.39899 214.931568 
L 325.948392 212.317493 
L 329.497794 209.605027 
L 333.047196 206.822528 
L 336.596598 203.95915 
L 340.146 201.009468 
L 343.695402 197.953459 
L 347.244804 194.810547 
L 350.794206 191.545867 
L 354.343608 188.169367 
L 357.893011 184.673015 
L 361.442413 181.063941 
L 364.991815 177.337754 
L 368.541217 173.485363 
L 372.090619 169.509301 
L 375.640021 165.409475 
L 379.189423 161.16743 
L 382.738825 156.778862 
L 386.288227 152.233179 
L 389.837629 147.521616 
L 393.387032 142.642461 
L 396.936434 137.58681 
L 400.485836 132.341566 
L 404.035238 126.905165 
L 407.58464 121.271461 
L 411.134042 115.422936 
L 414.683444 109.365606 
L 418.232846 103.110301 
L 421.782248 96.669804 
L 425.33165 90.151331 
L 428.881052 83.837434 
L 432.430455 131.039039 
" clip-path="url(#pdd3d27a4fc)" style="fill: none; stroke: #0000ff; stroke-width: 2; stroke-linecap: square"/>
   </g>
   <g id="line2d_26">
    <path d="M 81.039545 291.572069 
L 84.588759 290.73902 
L 88.137972 291.430607 
L 91.687185 291.325056 
L 95.236399 291.20109 
L 98.785612 291.077962 
L 102.334825 290.919044 
L 105.884039 290.698077 
L 109.433252 290.458171 
L 112.982465 290.251883 
L 116.531679 290.091682 
L 120.080892 289.92792 
L 123.630105 289.626432 
L 127.179319 289.175095 
L 130.728532 288.655612 
L 134.277745 288.115893 
L 137.826959 287.550595 
L 141.376172 286.930066 
L 144.925385 286.288909 
L 148.474599 285.62933 
L 152.023812 284.922608 
L 155.573025 284.17173 
L 159.122239 283.376785 
L 162.671452 282.556895 
L 166.220665 281.70335 
L 169.769879 280.820048 
L 173.319092 279.92105 
L 176.868305 279.002048 
L 180.417519 278.042721 
L 183.966732 277.055598 
L 187.515945 276.051621 
L 191.065159 275.027706 
L 194.614372 273.990427 
L 198.163585 272.929438 
L 201.712799 271.83993 
L 205.262012 270.718892 
L 208.811225 269.564708 
L 212.360439 268.381954 
L 215.909652 267.177033 
L 219.458865 265.941219 
L 223.008079 264.690274 
L 226.557292 263.409907 
L 230.106505 262.08742 
L 233.655719 260.719215 
L 237.204932 259.330055 
L 240.754145 257.912466 
L 244.303359 256.471654 
L 247.852572 254.997587 
L 251.401785 253.479896 
L 254.950999 251.914901 
L 258.500212 250.295479 
L 262.049425 248.644827 
L 265.598638 246.967976 
L 269.147852 245.25197 
L 272.697065 243.477428 
L 276.246278 241.645491 
L 279.795492 239.755183 
L 283.344705 237.809231 
L 286.893918 235.821061 
L 290.443132 233.783706 
L 293.992345 231.685205 
L 297.541558 229.499344 
L 301.090772 227.248425 
L 304.639985 224.933284 
L 308.189198 222.554243 
L 311.738412 220.112174 
L 315.287625 217.588671 
L 318.836838 214.986494 
L 322.386052 212.284908 
L 325.935265 209.502649 
L 329.484478 206.644914 
L 333.033692 203.698383 
L 336.582905 200.642413 
L 340.132118 197.484486 
L 343.681332 194.219781 
L 347.230545 190.83883 
L 350.779758 187.340647 
L 354.328972 183.728709 
L 357.878185 179.990761 
L 361.427398 176.119174 
L 364.976612 172.105718 
L 368.525825 167.95823 
L 372.075038 163.664587 
L 375.624252 159.201226 
L 379.173465 154.577552 
L 382.722678 149.782385 
L 386.271892 144.820012 
L 389.821105 139.669136 
L 393.370318 134.323141 
L 396.919532 128.79031 
L 400.468745 123.056507 
L 404.017958 117.1385 
L 407.567172 111.037649 
L 411.116385 104.772921 
L 414.665598 98.326187 
L 418.214812 91.69665 
L 421.764025 84.935694 
L 425.313238 78.169652 
L 428.862452 71.62846 
L 432.411665 125.944623 
" clip-path="url(#pdd3d27a4fc)" style="fill: none; stroke: #008000; stroke-width: 2; stroke-linecap: square"/>
   </g>
   <g id="patch_3">
    <path d="M 63.47 303.64 
L 63.47 41.856 
" style="fill: none; stroke: #000000; stroke-width: 0.8; stroke-linejoin: miter; stroke-linecap: square"/>
   </g>
   <g id="patch_4">
    <path d="M 450 303.64 
L 450 41.856 
" style="fill: none; stroke: #000000; stroke-width: 0.8; stroke-linejoin: miter; stroke-linecap: square"/>
   </g>
   <g id="patch_5">
    <path d="M 63.47 303.64 
L 450 303.64 
" style="fill: none; stroke: #000000; stroke-width: 0.8; stroke-linejoin: miter; stroke-linecap: square"/>
   </g>
   <g id="patch_6">
    <path d="M 63.47 41.856 
L 450 41.856 
" style="fill: none; stroke: #000000; stroke-width: 0.8; stroke-linejoin: miter; stroke-linecap: square"/>
   </g>
   <g id="text_14">
    <!-- Bilayer: L1-Porcine 20% GB 10% | L2-Porcine 20.0% GB 0.0% -->
    <g transform="translate(73.915 22.084875) scale(0.12 -0.12)">
     <defs>
      <path id="DejaVuSans-42" d="M 1259 2228 
L 1259 519 
L 2272 519 
Q 2781 519 3026 730 
Q 3272 941 3272 1375 
Q 3272 1813 3026 2020 
Q 2781 2228 2272 2228 
L 1259 2228 
z
M 1259 4147 
L 1259 2741 
L 2194 2741 
Q 2656 2741 2882 2914 
Q 3109 3088 3109 3444 
Q 3109 3797 2882 3972 
Q 2656 4147 2194 4147 
L 1259 4147 
z
M 628 4666 
L 2241 4666 
Q 2963 4666 3353 4366 
Q 3744 4066 3744 3513 
Q 3744 3084 3544 2831 
Q 3344 2578 2956 2516 
Q 3422 2416 3680 2098 
Q 3938 1781 3938 1306 
Q 3938 681 3513 340 
Q 3088 0 2303 0 
L 628 0 
L 628 4666 
z
" transform="scale(0.015625)"/>
      <path id="DejaVuSans-6c" d="M 603 4863 
L 1178 4863 
L 1178 0 
L 603 0 
L 603 4863 
z
" transform="scale(0.015625)"/>
      <path id="DejaVuSans-79" d="M 2059 -325 
Q 1816 -950 1584 -1140 
Q 1353 -1331 966 -1331 
L 506 -1331 
L 506 -850 
L 844 -850 
Q 1081 -850 1212 -737 
Q 1344 -625 1503 -206 
L 1606 56 
L 191 3500 
L 800 3500 
L 1894 763 
L 2988 3500 
L 3597 3500 
L 2059 -325 
z
" transform="scale(0.015625)"/>
      <path id="DejaVuSans-3a" d="M 750 794 
L 1409 794 
L 1409 0 
L 750 0 
L 750 794 
z
M 750 3309 
L 1409 3309 
L 1409 2516 
L 750 2516 
L 750 3309 
z
" transform="scale(0.015625)"/>
      <path id="DejaVuSans-4c" d="M 628 4666 
L 1259 4666 
L 1259 531 
L 3531 531 
L 3531 0 
L 628 0 
L 628 4666 
z
" transform="scale(0.015625)"/>
      <path id="DejaVuSans-6f" d="M 1959 3097 
Q 1497 3097 1228 2736 
Q 959 2375 959 1747 
Q 959 1119 1226 758 
Q 1494 397 1959 397 
Q 2419 397 2687 759 
Q 2956 1122 2956 1747 
Q 2956 2369 2687 2733 
Q 2419 3097 1959 3097 
z
M 1959 3584 
Q 2709 3584 3137 3096 
Q 3566 2609 3566 1747 
Q 3566 888 3137 398 
Q 2709 -91 1959 -91 
Q 1206 -91 779 398 
Q 353 888 353 1747 
Q 353 2609 779 3096 
Q 1206 3584 1959 3584 
z
" transform="scale(0.015625)"/>
      <path id="DejaVuSans-63" d="M 3122 3366 
L 3122 2828 
Q 2878 2963 2633 3030 
Q 2388 3097 2138 3097 
Q 1578 3097 1268 2742 
Q 959 2388 959 1747 
Q 959 1106 1268 751 
Q 1578 397 2138 397 
Q 2388 397 2633 464 
Q 2878 531 3122 666 
L 3122 134 
Q 2881 22 2623 -34 
Q 2366 -91 2075 -91 
Q 1284 -91 818 406 
Q 353 903 353 1747 
Q 353 2603 823 3093 
Q 1294 3584 2113 3584 
Q 2378 3584 2631 3529 
Q 2884 3475 3122 3366 
z
" transform="scale(0.015625)"/>
      <path id="DejaVuSans-25" d="M 4653 2053 
Q 4381 2053 4226 1822 
Q 4072 1591 4072 1178 
Q 4072 772 4226 539 
Q 4381 306 4653 306 
Q 4919 306 5073 539 
Q 5228 772 5228 1178 
Q 5228 1588 5073 1820 
Q 4919 2053 4653 2053 
z
M 4653 2450 
Q 5147 2450 5437 2106 
Q 5728 1763 5728 1178 
Q 5728 594 5436 251 
Q 5144 -91 4653 -91 
Q 4153 -91 3862 251 
Q 3572 594 3572 1178 
Q 3572 1766 3864 2108 
Q 4156 2450 4653 2450 
z
M 1428 4353 
Q 1159 4353 1004 4120 
Q 850 3888 850 3481 
Q 850 3069 1003 2837 
Q 1156 2606 1428 2606 
Q 1700 2606 1854 2837 
Q 2009 3069 2009 3481 
Q 2009 3884 1853 4118 
Q 1697 4353 1428 4353 
z
M 4250 4750 
L 4750 4750 
L 1831 -91 
L 1331 -91 
L 4250 4750 
z
M 1428 4750 
Q 1922 4750 2215 4408 
Q 2509 4066 2509 3481 
Q 2509 2891 2217 2550 
Q 1925 2209 1428 2209 
Q 931 2209 642 2551 
Q 353 2894 353 3481 
Q 353 4063 643 4406 
Q 934 4750 1428 4750 
z
" transform="scale(0.015625)"/>
      <path id="DejaVuSans-47" d="M 3809 666 
L 3809 1919 
L 2778 1919 
L 2778 2438 
L 4434 2438 
L 4434 434 
Q 4069 175 3628 42 
Q 3188 -91 2688 -91 
Q 1594 -91 976 548 
Q 359 1188 359 2328 
Q 359 3472 976 4111 
Q 1594 4750 2688 4750 
Q 3144 4750 3555 4637 
Q 3966 4525 4313 4306 
L 4313 3634 
Q 3963 3931 3569 4081 
Q 3175 4231 2741 4231 
Q 1884 4231 1454 3753 
Q 1025 3275 1025 2328 
Q 1025 1384 1454 906 
Q 1884 428 2741 428 
Q 3075 428 3337 486 
Q 3600 544 3809 666 
z
" transform="scale(0.015625)"/>
      <path id="DejaVuSans-7c" d="M 1344 4891 
L 1344 -1509 
L 813 -1509 
L 813 4891 
L 1344 4891 
z
" transform="scale(0.015625)"/>
     </defs>
     <use xlink:href="#DejaVuSans-42"/>
     <use xlink:href="#DejaVuSans-69" transform="translate(68.603516 0)"/>
     <use xlink:href="#DejaVuSans-6c" transform="translate(96.386719 0)"/>
     <use xlink:href="#DejaVuSans-61" transform="translate(124.169922 0)"/>
     <use xlink:href="#DejaVuSans-79" transform="translate(185.449219 0)"/>
     <use xlink:href="#DejaVuSans-65" transform="translate(244.628906 0)"/>
     <use xlink:href="#DejaVuSans-72" transform="translate(306.152344 0)"/>
     <use xlink:href="#DejaVuSans-3a" transform="translate(345.515625 0)"/>
     <use xlink:href="#DejaVuSans-20" transform="translate(379.207031 0)"/>
     <use xlink:href="#DejaVuSans-4c" transform="translate(410.994141 0)"/>
     <use xlink:href="#DejaVuSans-31" transform="translate(466.707031 0)"/>
     <use xlink:href="#DejaVuSans-2d" transform="translate(530.330078 0)"/>
     <use xlink:href="#DejaVuSans-50" transform="translate(566.414062 0)"/>
     <use xlink:href="#DejaVuSans-6f" transform="translate(623.091797 0)"/>
     <use xlink:href="#DejaVuSans-72" transform="translate(684.273438 0)"/>
     <use xlink:href="#DejaVuSans-63" transform="translate(723.136719 0)"/>
     <use xlink:href="#DejaVuSans-69" transform="translate(778.117188 0)"/>
     <use xlink:href="#DejaVuSans-6e" transform="translate(805.900391 0)"/>
     <use xlink:href="#DejaVuSans-65" transform="translate(869.279297 0)"/>
     <use xlink:href="#DejaVuSans-20" transform="translate(930.802734 0)"/>
     <use xlink:href="#DejaVuSans-32" transform="translate(962.589844 0)"/>
     <use xlink:href="#DejaVuSans-30" transform="translate(1026.212891 0)"/>
     <use xlink:href="#DejaVuSans-25" transform="translate(1089.835938 0)"/>
     <use xlink:href="#DejaVuSans-20" transform="translate(1184.855469 0)"/>
     <use xlink:href="#DejaVuSans-47" transform="translate(1216.642578 0)"/>
     <use xlink:href="#DejaVuSans-42" transform="translate(1294.132812 0)"/>
     <use xlink:href="#DejaVuSans-20" transform="translate(1362.736328 0)"/>
     <use xlink:href="#DejaVuSans-31" transform="translate(1394.523438 0)"/>
     <use xlink:href="#DejaVuSans-30" transform="translate(1458.146484 0)"/>
     <use xlink:href="#DejaVuSans-25" transform="translate(1521.769531 0)"/>
     <use xlink:href="#DejaVuSans-20" transform="translate(1616.789062 0)"/>
     <use xlink:href="#DejaVuSans-7c" transform="translate(1648.576172 0)"/>
     <use xlink:href="#DejaVuSans-20" transform="translate(1682.267578 0)"/>
     <use xlink:href="#DejaVuSans-4c" transform="translate(1714.054688 0)"/>
     <use xlink:href="#DejaVuSans-32" transform="translate(1769.767578 0)"/>
     <use xlink:href="#DejaVuSans-2d" transform="translate(1833.390625 0)"/>
     <use xlink:href="#DejaVuSans-50" transform="translate(1869.474609 0)"/>
     <use xlink:href="#DejaVuSans-6f" transform="translate(1926.152344 0)"/>
     <use xlink:href="#DejaVuSans-72" transform="translate(1987.333984 0)"/>
     <use xlink:href="#DejaVuSans-63" transform="translate(2026.197266 0)"/>
     <use xlink:href="#DejaVuSans-69" transform="translate(2081.177734 0)"/>
     <use xlink:href="#DejaVuSans-6e" transform="translate(2108.960938 0)"/>
     <use xlink:href="#DejaVuSans-65" transform="translate(2172.339844 0)"/>
     <use xlink:href="#DejaVuSans-20" transform="translate(2233.863281 0)"/>
     <use xlink:href="#DejaVuSans-32" transform="translate(2265.650391 0)"/>
     <use xlink:href="#DejaVuSans-30" transform="translate(2329.273438 0)"/>
     <use xlink:href="#DejaVuSans-2e" transform="translate(2392.896484 0)"/>
     <use xlink:href="#DejaVuSans-30" transform="translate(2424.683594 0)"/>
     <use xlink:href="#DejaVuSans-25" transform="translate(2488.306641 0)"/>
     <use xlink:href="#DejaVuSans-20" transform="translate(2583.326172 0)"/>
     <use xlink:href="#DejaVuSans-47" transform="translate(2615.113281 0)"/>
     <use xlink:href="#DejaVuSans-42" transform="translate(2692.603516 0)"/>
     <use xlink:href="#DejaVuSans-20" transform="translate(2761.207031 0)"/>
     <use xlink:href="#DejaVuSans-30" transform="translate(2792.994141 0)"/>
     <use xlink:href="#DejaVuSans-2e" transform="translate(2856.617188 0)"/>
     <use xlink:href="#DejaVuSans-30" transform="translate(2888.404297 0)"/>
     <use xlink:href="#DejaVuSans-25" transform="translate(2952.027344 0)"/>
    </g>
    <!-- All Trials Across All Dates -->
    <g transform="translate(181.829688 35.856) scale(0.12 -0.12)">
     <defs>
      <path id="DejaVuSans-41" d="M 2188 4044 
L 1331 1722 
L 3047 1722 
L 2188 4044 
z
M 1831 4666 
L 2547 4666 
L 4325 0 
L 3669 0 
L 3244 1197 
L 1141 1197 
L 716 0 
L 50 0 
L 1831 4666 
z
" transform="scale(0.015625)"/>
      <path id="DejaVuSans-54" d="M -19 4666 
L 3928 4666 
L 3928 4134 
L 2272 4134 
L 2272 0 
L 1638 0 
L 1638 4134 
L -19 4134 
L -19 4666 
z
" transform="scale(0.015625)"/>
      <path id="DejaVuSans-44" d="M 1259 4147 
L 1259 519 
L 2022 519 
Q 2988 519 3436 956 
Q 3884 1394 3884 2338 
Q 3884 3275 3436 3711 
Q 2988 4147 2022 4147 
L 1259 4147 
z
M 628 4666 
L 1925 4666 
Q 3281 4666 3915 4102 
Q 4550 3538 4550 2338 
Q 4550 1131 3912 565 
Q 3275 0 1925 0 
L 628 0 
L 628 4666 
z
" transform="scale(0.015625)"/>
     </defs>
     <use xlink:href="#DejaVuSans-41"/>
     <use xlink:href="#DejaVuSans-6c" transform="translate(68.408203 0)"/>
     <use xlink:href="#DejaVuSans-6c" transform="translate(96.191406 0)"/>
     <use xlink:href="#DejaVuSans-20" transform="translate(123.974609 0)"/>
     <use xlink:href="#DejaVuSans-54" transform="translate(155.761719 0)"/>
     <use xlink:href="#DejaVuSans-72" transform="translate(202.095703 0)"/>
     <use xlink:href="#DejaVuSans-69" transform="translate(243.208984 0)"/>
     <use xlink:href="#DejaVuSans-61" transform="translate(270.992188 0)"/>
     <use xlink:href="#DejaVuSans-6c" transform="translate(332.271484 0)"/>
     <use xlink:href="#DejaVuSans-73" transform="translate(360.054688 0)"/>
     <use xlink:href="#DejaVuSans-20" transform="translate(412.154297 0)"/>
     <use xlink:href="#DejaVuSans-41" transform="translate(443.941406 0)"/>
     <use xlink:href="#DejaVuSans-63" transform="translate(510.599609 0)"/>
     <use xlink:href="#DejaVuSans-72" transform="translate(565.580078 0)"/>
     <use xlink:href="#DejaVuSans-6f" transform="translate(604.443359 0)"/>
     <use xlink:href="#DejaVuSans-73" transform="translate(665.625 0)"/>
     <use xlink:href="#DejaVuSans-73" transform="translate(717.724609 0)"/>
     <use xlink:href="#DejaVuSans-20" transform="translate(769.824219 0)"/>
     <use xlink:href="#DejaVuSans-41" transform="translate(801.611328 0)"/>
     <use xlink:href="#DejaVuSans-6c" transform="translate(870.019531 0)"/>
     <use xlink:href="#DejaVuSans-6c" transform="translate(897.802734 0)"/>
     <use xlink:href="#DejaVuSans-20" transform="translate(925.585938 0)"/>
     <use xlink:href="#DejaVuSans-44" transform="translate(957.373047 0)"/>
     <use xlink:href="#DejaVuSans-61" transform="translate(1034.375 0)"/>
     <use xlink:href="#DejaVuSans-74" transform="translate(1095.654297 0)"/>
     <use xlink:href="#DejaVuSans-65" transform="translate(1134.863281 0)"/>
     <use xlink:href="#DejaVuSans-73" transform="translate(1196.386719 0)"/>
    </g>
   </g>
   <g id="legend_1">
    <g id="patch_7">
     <path d="M 70.47 123.246625 
L 178.493437 123.246625 
Q 180.493437 123.246625 180.493437 121.246625 
L 180.493437 48.856 
Q 180.493437 46.856 178.493437 46.856 
L 70.47 46.856 
Q 68.47 46.856 68.47 48.856 
L 68.47 121.246625 
Q 68.47 123.246625 70.47 123.246625 
z
" style="fill: #ffffff; opacity: 0.8; stroke: #cccccc; stroke-linejoin: miter"/>
    </g>
    <g id="text_15">
     <!-- Impact Velocity -->
     <g transform="translate(85.984062 58.454437) scale(0.1 -0.1)">
      <defs>
       <path id="DejaVuSans-49" d="M 628 4666 
L 1259 4666 
L 1259 0 
L 628 0 
L 628 4666 
z
" transform="scale(0.015625)"/>
       <path id="DejaVuSans-6d" d="M 3328 2828 
Q 3544 3216 3844 3400 
Q 4144 3584 4550 3584 
Q 5097 3584 5394 3201 
Q 5691 2819 5691 2113 
L 5691 0 
L 5113 0 
L 5113 2094 
Q 5113 2597 4934 2840 
Q 4756 3084 4391 3084 
Q 3944 3084 3684 2787 
Q 3425 2491 3425 1978 
L 3425 0 
L 2847 0 
L 2847 2094 
Q 2847 2600 2669 2842 
Q 2491 3084 2119 3084 
Q 1678 3084 1418 2786 
Q 1159 2488 1159 1978 
L 1159 0 
L 581 0 
L 581 3500 
L 1159 3500 
L 1159 2956 
Q 1356 3278 1631 3431 
Q 1906 3584 2284 3584 
Q 2666 3584 2933 3390 
Q 3200 3197 3328 2828 
z
" transform="scale(0.015625)"/>
       <path id="DejaVuSans-70" d="M 1159 525 
L 1159 -1331 
L 581 -1331 
L 581 3500 
L 1159 3500 
L 1159 2969 
Q 1341 3281 1617 3432 
Q 1894 3584 2278 3584 
Q 2916 3584 3314 3078 
Q 3713 2572 3713 1747 
Q 3713 922 3314 415 
Q 2916 -91 2278 -91 
Q 1894 -91 1617 61 
Q 1341 213 1159 525 
z
M 3116 1747 
Q 3116 2381 2855 2742 
Q 2594 3103 2138 3103 
Q 1681 3103 1420 2742 
Q 1159 2381 1159 1747 
Q 1159 1113 1420 752 
Q 1681 391 2138 391 
Q 2594 391 2855 752 
Q 3116 1113 3116 1747 
z
" transform="scale(0.015625)"/>
       <path id="DejaVuSans-56" d="M 1831 0 
L 50 4666 
L 709 4666 
L 2188 738 
L 3669 4666 
L 4325 4666 
L 2547 0 
L 1831 0 
z
" transform="scale(0.015625)"/>
      </defs>
      <use xlink:href="#DejaVuSans-49"/>
      <use xlink:href="#DejaVuSans-6d" transform="translate(29.492188 0)"/>
      <use xlink:href="#DejaVuSans-70" transform="translate(126.904297 0)"/>
      <use xlink:href="#DejaVuSans-61" transform="translate(190.380859 0)"/>
      <use xlink:href="#DejaVuSans-63" transform="translate(251.660156 0)"/>
      <use xlink:href="#DejaVuSans-74" transform="translate(306.640625 0)"/>
      <use xlink:href="#DejaVuSans-20" transform="translate(345.849609 0)"/>
      <use xlink:href="#DejaVuSans-56" transform="translate(377.636719 0)"/>
      <use xlink:href="#DejaVuSans-65" transform="translate(438.294922 0)"/>
      <use xlink:href="#DejaVuSans-6c" transform="translate(499.818359 0)"/>
      <use xlink:href="#DejaVuSans-6f" transform="translate(527.601562 0)"/>
      <use xlink:href="#DejaVuSans-63" transform="translate(588.783203 0)"/>
      <use xlink:href="#DejaVuSans-69" transform="translate(643.763672 0)"/>
      <use xlink:href="#DejaVuSans-74" transform="translate(671.546875 0)"/>
      <use xlink:href="#DejaVuSans-79" transform="translate(710.755859 0)"/>
     </g>
    </g>
    <g id="line2d_27">
     <path d="M 72.47 69.632563 
L 82.47 69.632563 
L 92.47 69.632563 
" style="fill: none; stroke: #000000; stroke-width: 2; stroke-linecap: square"/>
    </g>
    <g id="text_16">
     <!-- 1 mm/s (n=10) -->
     <g transform="translate(100.47 73.132563) scale(0.1 -0.1)">
      <defs>
       <path id="DejaVuSans-2f" d="M 1625 4666 
L 2156 4666 
L 531 -594 
L 0 -594 
L 1625 4666 
z
" transform="scale(0.015625)"/>
       <path id="DejaVuSans-28" d="M 1984 4856 
Q 1566 4138 1362 3434 
Q 1159 2731 1159 2009 
Q 1159 1288 1364 580 
Q 1569 -128 1984 -844 
L 1484 -844 
Q 1016 -109 783 600 
Q 550 1309 550 2009 
Q 550 2706 781 3412 
Q 1013 4119 1484 4856 
L 1984 4856 
z
" transform="scale(0.015625)"/>
       <path id="DejaVuSans-3d" d="M 678 2906 
L 4684 2906 
L 4684 2381 
L 678 2381 
L 678 2906 
z
M 678 1631 
L 4684 1631 
L 4684 1100 
L 678 1100 
L 678 1631 
z
" transform="scale(0.015625)"/>
       <path id="DejaVuSans-29" d="M 513 4856 
L 1013 4856 
Q 1481 4119 1714 3412 
Q 1947 2706 1947 2009 
Q 1947 1309 1714 600 
Q 1481 -109 1013 -844 
L 513 -844 
Q 928 -128 1133 580 
Q 1338 1288 1338 2009 
Q 1338 2731 1133 3434 
Q 928 4138 513 4856 
z
" transform="scale(0.015625)"/>
      </defs>
      <use xlink:href="#DejaVuSans-31"/>
      <use xlink:href="#DejaVuSans-20" transform="translate(63.623047 0)"/>
      <use xlink:href="#DejaVuSans-6d" transform="translate(95.410156 0)"/>
      <use xlink:href="#DejaVuSans-6d" transform="translate(192.822266 0)"/>
      <use xlink:href="#DejaVuSans-2f" transform="translate(290.234375 0)"/>
      <use xlink:href="#DejaVuSans-73" transform="translate(323.925781 0)"/>
      <use xlink:href="#DejaVuSans-20" transform="translate(376.025391 0)"/>
      <use xlink:href="#DejaVuSans-28" transform="translate(407.8125 0)"/>
      <use xlink:href="#DejaVuSans-6e" transform="translate(446.826172 0)"/>
      <use xlink:href="#DejaVuSans-3d" transform="translate(510.205078 0)"/>
      <use xlink:href="#DejaVuSans-31" transform="translate(593.994141 0)"/>
      <use xlink:href="#DejaVuSans-30" transform="translate(657.617188 0)"/>
      <use xlink:href="#DejaVuSans-29" transform="translate(721.240234 0)"/>
     </g>
    </g>
    <g id="line2d_28">
     <path d="M 72.47 84.310688 
L 82.47 84.310688 
L 92.47 84.310688 
" style="fill: none; stroke: #ff0000; stroke-width: 2; stroke-linecap: square"/>
    </g>
    <g id="text_17">
     <!-- 3 mm/s (n=6) -->
     <g transform="translate(100.47 87.810688) scale(0.1 -0.1)">
      <defs>
       <path id="DejaVuSans-36" d="M 2113 2584 
Q 1688 2584 1439 2293 
Q 1191 2003 1191 1497 
Q 1191 994 1439 701 
Q 1688 409 2113 409 
Q 2538 409 2786 701 
Q 3034 994 3034 1497 
Q 3034 2003 2786 2293 
Q 2538 2584 2113 2584 
z
M 3366 4563 
L 3366 3988 
Q 3128 4100 2886 4159 
Q 2644 4219 2406 4219 
Q 1781 4219 1451 3797 
Q 1122 3375 1075 2522 
Q 1259 2794 1537 2939 
Q 1816 3084 2150 3084 
Q 2853 3084 3261 2657 
Q 3669 2231 3669 1497 
Q 3669 778 3244 343 
Q 2819 -91 2113 -91 
Q 1303 -91 875 529 
Q 447 1150 447 2328 
Q 447 3434 972 4092 
Q 1497 4750 2381 4750 
Q 2619 4750 2861 4703 
Q 3103 4656 3366 4563 
z
" transform="scale(0.015625)"/>
      </defs>
      <use xlink:href="#DejaVuSans-33"/>
      <use xlink:href="#DejaVuSans-20" transform="translate(63.623047 0)"/>
      <use xlink:href="#DejaVuSans-6d" transform="translate(95.410156 0)"/>
      <use xlink:href="#DejaVuSans-6d" transform="translate(192.822266 0)"/>
      <use xlink:href="#DejaVuSans-2f" transform="translate(290.234375 0)"/>
      <use xlink:href="#DejaVuSans-73" transform="translate(323.925781 0)"/>
      <use xlink:href="#DejaVuSans-20" transform="translate(376.025391 0)"/>
      <use xlink:href="#DejaVuSans-28" transform="translate(407.8125 0)"/>
      <use xlink:href="#DejaVuSans-6e" transform="translate(446.826172 0)"/>
      <use xlink:href="#DejaVuSans-3d" transform="translate(510.205078 0)"/>
      <use xlink:href="#DejaVuSans-36" transform="translate(593.994141 0)"/>
      <use xlink:href="#DejaVuSans-29" transform="translate(657.617188 0)"/>
     </g>
    </g>
    <g id="line2d_29">
     <path d="M 72.47 98.988812 
L 82.47 98.988812 
L 92.47 98.988812 
" style="fill: none; stroke: #0000ff; stroke-width: 2; stroke-linecap: square"/>
    </g>
    <g id="text_18">
     <!-- 5 mm/s (n=2) -->
     <g transform="translate(100.47 102.488812) scale(0.1 -0.1)">
      <use xlink:href="#DejaVuSans-35"/>
      <use xlink:href="#DejaVuSans-20" transform="translate(63.623047 0)"/>
      <use xlink:href="#DejaVuSans-6d" transform="translate(95.410156 0)"/>
      <use xlink:href="#DejaVuSans-6d" transform="translate(192.822266 0)"/>
      <use xlink:href="#DejaVuSans-2f" transform="translate(290.234375 0)"/>
      <use xlink:href="#DejaVuSans-73" transform="translate(323.925781 0)"/>
      <use xlink:href="#DejaVuSans-20" transform="translate(376.025391 0)"/>
      <use xlink:href="#DejaVuSans-28" transform="translate(407.8125 0)"/>
      <use xlink:href="#DejaVuSans-6e" transform="translate(446.826172 0)"/>
      <use xlink:href="#DejaVuSans-3d" transform="translate(510.205078 0)"/>
      <use xlink:href="#DejaVuSans-32" transform="translate(593.994141 0)"/>
      <use xlink:href="#DejaVuSans-29" transform="translate(657.617188 0)"/>
     </g>
    </g>
    <g id="line2d_30">
     <path d="M 72.47 113.666938 
L 82.47 113.666938 
L 92.47 113.666938 
" style="fill: none; stroke: #008000; stroke-width: 2; stroke-linecap: square"/>
    </g>
    <g id="text_19">
     <!-- 10 mm/s (n=2) -->
     <g transform="translate(100.47 117.166938) scale(0.1 -0.1)">
      <use xlink:href="#DejaVuSans-31"/>
      <use xlink:href="#DejaVuSans-30" transform="translate(63.623047 0)"/>
      <use xlink:href="#DejaVuSans-20" transform="translate(127.246094 0)"/>
      <use xlink:href="#DejaVuSans-6d" transform="translate(159.033203 0)"/>
      <use xlink:href="#DejaVuSans-6d" transform="translate(256.445312 0)"/>
      <use xlink:href="#DejaVuSans-2f" transform="translate(353.857422 0)"/>
      <use xlink:href="#DejaVuSans-73" transform="translate(387.548828 0)"/>
      <use xlink:href="#DejaVuSans-20" transform="translate(439.648438 0)"/>
      <use xlink:href="#DejaVuSans-28" transform="translate(471.435547 0)"/>
      <use xlink:href="#DejaVuSans-6e" transform="translate(510.449219 0)"/>
      <use xlink:href="#DejaVuSans-3d" transform="translate(573.828125 0)"/>
      <use xlink:href="#DejaVuSans-32" transform="translate(657.617188 0)"/>
      <use xlink:href="#DejaVuSans-29" transform="translate(721.240234 0)"/>
     </g>
    </g>
   </g>
  </g>
 </g>
 <defs>
  <clipPath id="pdd3d27a4fc">
   <rect x="63.47" y="41.856" width="386.53" height="261.784"/>
  </clipPath>
 </defs>
</svg>
