<?xml version="1.0" encoding="utf-8" standalone="no"?>
<!DOCTYPE svg PUBLIC "-//W3C//DTD SVG 1.1//EN"
  "http://www.w3.org/Graphics/SVG/1.1/DTD/svg11.dtd">
<svg xmlns:xlink="http://www.w3.org/1999/xlink" width="460.8pt" height="345.6pt" viewBox="0 0 460.8 345.6" xmlns="http://www.w3.org/2000/svg" version="1.1">
 <metadata>
  <rdf:RDF xmlns:dc="http://purl.org/dc/elements/1.1/" xmlns:cc="http://creativecommons.org/ns#" xmlns:rdf="http://www.w3.org/1999/02/22-rdf-syntax-ns#">
   <cc:Work>
    <dc:type rdf:resource="http://purl.org/dc/dcmitype/StillImage"/>
    <dc:date>2025-07-28T15:48:28.211984</dc:date>
    <dc:format>image/svg+xml</dc:format>
    <dc:creator>
     <cc:Agent>
      <dc:title>Matplotlib v3.10.3, https://matplotlib.org/</dc:title>
     </cc:Agent>
    </dc:creator>
   </cc:Work>
  </rdf:RDF>
 </metadata>
 <defs>
  <style type="text/css">*{stroke-linejoin: round; stroke-linecap: butt}</style>
 </defs>
 <g id="figure_1">
  <g id="patch_1">
   <path d="M 0 345.6 
L 460.8 345.6 
L 460.8 0 
L 0 0 
z
" style="fill: #ffffff"/>
  </g>
  <g id="axes_1">
   <g id="patch_2">
    <path d="M 63.47 303.64 
L 450 303.64 
L 450 41.856 
L 63.47 41.856 
z
" style="fill: #ffffff"/>
   </g>
   <g id="FillBetweenPolyCollection_1">
    <defs>
     <path id="ma286e60428" d="M 81.054481 -54.088564 
L 81.054481 -53.912908 
L 81.766329 -53.981355 
L 82.478176 -54.081006 
L 83.190024 -54.159054 
L 83.901871 -54.071222 
L 84.613719 -53.859273 
L 85.325567 -53.890185 
L 86.037414 -54.002075 
L 86.749262 -54.030015 
L 87.461109 -54.000802 
L 88.172957 -54.006257 
L 88.884804 -54.024825 
L 89.596652 -54.102672 
L 90.3085 -54.169454 
L 91.020347 -54.233122 
L 91.732195 -54.294608 
L 92.444042 -54.344134 
L 93.15589 -54.389499 
L 93.867737 -54.463351 
L 94.579585 -54.530934 
L 95.291433 -54.595679 
L 96.00328 -54.646186 
L 96.715128 -54.707755 
L 97.426975 -54.778737 
L 98.138823 -54.866064 
L 98.850671 -54.97638 
L 99.562518 -55.102153 
L 100.274366 -55.219788 
L 100.986213 -55.322617 
L 101.698061 -55.426216 
L 102.409908 -55.525817 
L 103.121756 -55.621039 
L 103.833604 -55.703915 
L 104.545451 -55.784964 
L 105.257299 -55.870511 
L 105.969146 -55.952278 
L 106.680994 -56.03295 
L 107.392841 -56.113917 
L 108.104689 -56.189094 
L 108.816537 -56.257806 
L 109.528384 -56.327989 
L 110.240232 -56.404224 
L 110.952079 -56.484896 
L 111.663927 -56.566879 
L 112.375775 -56.64874 
L 113.087622 -56.748551 
L 113.79947 -56.856842 
L 114.511317 -56.964247 
L 115.223165 -57.082276 
L 115.935012 -57.205948 
L 116.64686 -57.323994 
L 117.358708 -57.436643 
L 118.070555 -57.553604 
L 118.782403 -57.666944 
L 119.49425 -57.765904 
L 120.206098 -57.857885 
L 120.917945 -57.947451 
L 121.629793 -58.046976 
L 122.341641 -58.147313 
L 123.053488 -58.244619 
L 123.765336 -58.344196 
L 124.477183 -58.440703 
L 125.189031 -58.536879 
L 125.900879 -58.636764 
L 126.612726 -58.742263 
L 127.324574 -58.854361 
L 128.036421 -58.967243 
L 128.748269 -59.077749 
L 129.460116 -59.190615 
L 130.171964 -59.301286 
L 130.883812 -59.415147 
L 131.595659 -59.528307 
L 132.307507 -59.642345 
L 133.019354 -59.754968 
L 133.731202 -59.869888 
L 134.443049 -59.985597 
L 135.154897 -60.102112 
L 135.866745 -60.221656 
L 136.578592 -60.342056 
L 137.29044 -60.457856 
L 138.002287 -60.572184 
L 138.714135 -60.684394 
L 139.425982 -60.797823 
L 140.13783 -60.915936 
L 140.849678 -61.038912 
L 141.561525 -61.164214 
L 142.273373 -61.289085 
L 142.98522 -61.411829 
L 143.697068 -61.533859 
L 144.408916 -61.659413 
L 145.120763 -61.790337 
L 145.832611 -61.920887 
L 146.544458 -62.056082 
L 147.256306 -62.193925 
L 147.968153 -62.328974 
L 148.680001 -62.457924 
L 149.391849 -62.585528 
L 150.103696 -62.714934 
L 150.815544 -62.847183 
L 151.527391 -62.654031 
L 151.527391 -83.078893 
L 151.527391 -83.078893 
L 150.815544 -83.055845 
L 150.103696 -82.669304 
L 149.391849 -82.289284 
L 148.680001 -81.911946 
L 147.968153 -81.532443 
L 147.256306 -81.144965 
L 146.544458 -80.753672 
L 145.832611 -80.362312 
L 145.120763 -79.97385 
L 144.408916 -79.592185 
L 143.697068 -79.212413 
L 142.98522 -78.829542 
L 142.273373 -78.444347 
L 141.561525 -78.058439 
L 140.849678 -77.675542 
L 140.13783 -77.292271 
L 139.425982 -76.91153 
L 138.714135 -76.536436 
L 138.002287 -76.159419 
L 137.29044 -75.782802 
L 136.578592 -75.405916 
L 135.866745 -75.02835 
L 135.154897 -74.651287 
L 134.443049 -74.277684 
L 133.731202 -73.908608 
L 133.019354 -73.537191 
L 132.307507 -73.164415 
L 131.595659 -72.794922 
L 130.883812 -72.424061 
L 130.171964 -72.054944 
L 129.460116 -71.694096 
L 128.748269 -71.3341 
L 128.036421 -70.971145 
L 127.324574 -70.604808 
L 126.612726 -70.240591 
L 125.900879 -69.876564 
L 125.189031 -69.513261 
L 124.477183 -69.160139 
L 123.765336 -68.810844 
L 123.053488 -68.456905 
L 122.341641 -68.100039 
L 121.629793 -67.747785 
L 120.917945 -67.395722 
L 120.206098 -67.044905 
L 119.49425 -66.7013 
L 118.782403 -66.361487 
L 118.070555 -66.025951 
L 117.358708 -65.691246 
L 116.64686 -65.356789 
L 115.935012 -65.023192 
L 115.223165 -64.696064 
L 114.511317 -64.369608 
L 113.79947 -64.048889 
L 113.087622 -63.73054 
L 112.375775 -63.410927 
L 111.663927 -63.089243 
L 110.952079 -62.76988 
L 110.240232 -62.456707 
L 109.528384 -62.144117 
L 108.816537 -61.838634 
L 108.104689 -61.532543 
L 107.392841 -61.226689 
L 106.680994 -60.934531 
L 105.969146 -60.646484 
L 105.257299 -60.3633 
L 104.545451 -60.083968 
L 103.833604 -59.800647 
L 103.121756 -59.513819 
L 102.409908 -59.235431 
L 101.698061 -58.982293 
L 100.986213 -58.738867 
L 100.274366 -58.510111 
L 99.562518 -58.290162 
L 98.850671 -58.056465 
L 98.138823 -57.791761 
L 97.426975 -57.51363 
L 96.715128 -57.250216 
L 96.00328 -57.007018 
L 95.291433 -56.793282 
L 94.579585 -56.60333 
L 93.867737 -56.44032 
L 93.15589 -56.260567 
L 92.444042 -56.057158 
L 91.732195 -55.88457 
L 91.020347 -55.712304 
L 90.3085 -55.526927 
L 89.596652 -55.312596 
L 88.884804 -55.075146 
L 88.172957 -54.91541 
L 87.461109 -54.840061 
L 86.749262 -54.741652 
L 86.037414 -54.689132 
L 85.325567 -54.597196 
L 84.613719 -54.531781 
L 83.901871 -54.626753 
L 83.190024 -54.689935 
L 82.478176 -54.515369 
L 81.766329 -54.242281 
L 81.054481 -54.088564 
z
" style="stroke: #800080; stroke-opacity: 0.3"/>
    </defs>
    <g clip-path="url(#pf74d055955)">
     <use xlink:href="#ma286e60428" x="0" y="345.6" style="fill: #800080; fill-opacity: 0.3; stroke: #800080; stroke-opacity: 0.3"/>
    </g>
   </g>
   <g id="FillBetweenPolyCollection_2">
    <defs>
     <path id="m58e748780d" d="M 81.039993 -54.10324 
L 81.039993 -53.91085 
L 83.170317 -54.596556 
L 85.300641 -54.449517 
L 87.430965 -54.058895 
L 89.561289 -54.475694 
L 91.691613 -54.299205 
L 93.821937 -54.037762 
L 95.952261 -54.336457 
L 98.082584 -54.677907 
L 100.212908 -54.942538 
L 102.343232 -55.19183 
L 104.473556 -55.487092 
L 106.60388 -55.851811 
L 108.734204 -56.152698 
L 110.864528 -56.46191 
L 112.994852 -56.864076 
L 115.125175 -57.315367 
L 117.255499 -57.671757 
L 119.385823 -57.948275 
L 121.516147 -58.224907 
L 123.646471 -58.553368 
L 125.776795 -58.933831 
L 127.907119 -59.352784 
L 130.037443 -59.797464 
L 132.167767 -60.23802 
L 134.29809 -60.648676 
L 136.428414 -61.050858 
L 138.558738 -61.473797 
L 140.689062 -61.901993 
L 142.819386 -62.318828 
L 144.94971 -62.730008 
L 147.080034 -63.154353 
L 149.210358 -63.583918 
L 151.340681 -64.009175 
L 153.471005 -64.438147 
L 155.601329 -64.885884 
L 157.731653 -65.356047 
L 159.861977 -65.848088 
L 161.992301 -66.340714 
L 164.122625 -66.837512 
L 166.252949 -67.355056 
L 168.383273 -67.885827 
L 170.513596 -68.408291 
L 172.64392 -68.948129 
L 174.774244 -69.498659 
L 176.904568 -70.056538 
L 179.034892 -70.623228 
L 181.165216 -71.191098 
L 183.29554 -71.771554 
L 185.425864 -72.364596 
L 187.556187 -72.961073 
L 189.686511 -73.570637 
L 191.816835 -74.18625 
L 193.947159 -74.816503 
L 196.077483 -75.450171 
L 198.207807 -76.104272 
L 200.338131 -76.761659 
L 202.468455 -77.430833 
L 204.598779 -78.110617 
L 206.729102 -78.803651 
L 208.859426 -79.491962 
L 210.98975 -80.197142 
L 213.120074 -80.902264 
L 215.250398 -81.621209 
L 217.380722 -82.344187 
L 219.511046 -83.082112 
L 221.64137 -83.81517 
L 223.771694 -84.555977 
L 225.902017 -85.301574 
L 228.032341 -86.061912 
L 230.162665 -86.819168 
L 232.292989 -87.586492 
L 234.423313 -88.364547 
L 236.553637 -89.150532 
L 238.683961 -89.936046 
L 240.814285 -90.724311 
L 242.944608 -91.516417 
L 245.074932 -92.316764 
L 247.205256 -93.123046 
L 249.33558 -93.932528 
L 251.465904 -94.742962 
L 253.596228 -95.560457 
L 255.726552 -96.37394 
L 257.856876 -97.199627 
L 259.9872 -98.027354 
L 262.117523 -98.864277 
L 264.247847 -99.705363 
L 266.378171 -100.545481 
L 268.508495 -101.380598 
L 270.638819 -102.232015 
L 272.769143 -103.087701 
L 274.899467 -103.949357 
L 277.029791 -104.824688 
L 279.160114 -105.716322 
L 281.290438 -106.61062 
L 283.420762 -107.503361 
L 285.551086 -108.390364 
L 287.68141 -109.271206 
L 289.811734 -110.128083 
L 291.942058 -108.4165 
L 291.942058 -171.816932 
L 291.942058 -171.816932 
L 289.811734 -172.012194 
L 287.68141 -170.515227 
L 285.551086 -169.001861 
L 283.420762 -167.451073 
L 281.290438 -165.911034 
L 279.160114 -164.373678 
L 277.029791 -162.846495 
L 274.899467 -161.319069 
L 272.769143 -159.821227 
L 270.638819 -158.327689 
L 268.508495 -156.837017 
L 266.378171 -155.36306 
L 264.247847 -153.889048 
L 262.117523 -152.418691 
L 259.9872 -150.957594 
L 257.856876 -149.511067 
L 255.726552 -148.070339 
L 253.596228 -146.644321 
L 251.465904 -145.21565 
L 249.33558 -143.793167 
L 247.205256 -142.37531 
L 245.074932 -140.973135 
L 242.944608 -139.569332 
L 240.814285 -138.169048 
L 238.683961 -136.78563 
L 236.553637 -135.408764 
L 234.423313 -134.03519 
L 232.292989 -132.669124 
L 230.162665 -131.320334 
L 228.032341 -129.973306 
L 225.902017 -128.632452 
L 223.771694 -127.29798 
L 221.64137 -125.965966 
L 219.511046 -124.630418 
L 217.380722 -123.292998 
L 215.250398 -121.972778 
L 213.120074 -120.655444 
L 210.98975 -119.343707 
L 208.859426 -118.041182 
L 206.729102 -116.757169 
L 204.598779 -115.464191 
L 202.468455 -114.183404 
L 200.338131 -112.903249 
L 198.207807 -111.626878 
L 196.077483 -110.35053 
L 193.947159 -109.081366 
L 191.816835 -107.821941 
L 189.686511 -106.565588 
L 187.556187 -105.319035 
L 185.425864 -104.083915 
L 183.29554 -102.852676 
L 181.165216 -101.623509 
L 179.034892 -100.399729 
L 176.904568 -99.182169 
L 174.774244 -97.969293 
L 172.64392 -96.767052 
L 170.513596 -95.571913 
L 168.383273 -94.378823 
L 166.252949 -93.196626 
L 164.122625 -92.011994 
L 161.992301 -90.824603 
L 159.861977 -89.636433 
L 157.731653 -88.448838 
L 155.601329 -87.265223 
L 153.471005 -86.090978 
L 151.340681 -84.920517 
L 149.210358 -83.760753 
L 147.080034 -82.604388 
L 144.94971 -81.466351 
L 142.819386 -80.32835 
L 140.689062 -79.200243 
L 138.558738 -78.075346 
L 136.428414 -76.970097 
L 134.29809 -75.855854 
L 132.167767 -74.753062 
L 130.037443 -73.663563 
L 127.907119 -72.588556 
L 125.776795 -71.508582 
L 123.646471 -70.440262 
L 121.516147 -69.368565 
L 119.385823 -68.285423 
L 117.255499 -67.201955 
L 115.125175 -66.151742 
L 112.994852 -65.138172 
L 110.864528 -64.188053 
L 108.734204 -63.276925 
L 106.60388 -62.278741 
L 104.473556 -61.126295 
L 102.343232 -60.017072 
L 100.212908 -59.217115 
L 98.082584 -58.40197 
L 95.952261 -57.261702 
L 93.821937 -56.3556 
L 91.691613 -55.775529 
L 89.561289 -55.327222 
L 87.430965 -54.963133 
L 85.300641 -55.786884 
L 83.170317 -55.217208 
L 81.039993 -54.10324 
z
" style="stroke: #00bfbf; stroke-opacity: 0.3"/>
    </defs>
    <g clip-path="url(#pf74d055955)">
     <use xlink:href="#m58e748780d" x="0" y="345.6" style="fill: #00bfbf; fill-opacity: 0.3; stroke: #00bfbf; stroke-opacity: 0.3"/>
    </g>
   </g>
   <g id="FillBetweenPolyCollection_3">
    <defs>
     <path id="m29afa2ccf8" d="M 81.041063 -54.07719 
L 81.041063 -53.942125 
L 84.590392 -55.04003 
L 88.139722 -54.655368 
L 91.689052 -55.018775 
L 95.238381 -55.229121 
L 98.787711 -55.790792 
L 102.33704 -56.357317 
L 105.88637 -56.950916 
L 109.4357 -57.519741 
L 112.985029 -58.372836 
L 116.534359 -59.237058 
L 120.083688 -59.971644 
L 123.633018 -60.732088 
L 127.182348 -61.587062 
L 130.731677 -62.428903 
L 134.281007 -63.23767 
L 137.830336 -64.055885 
L 141.379666 -64.935494 
L 144.928996 -65.87665 
L 148.478325 -66.864278 
L 152.027655 -67.872654 
L 155.576984 -68.893663 
L 159.126314 -69.920105 
L 162.675644 -70.950692 
L 166.224973 -71.974118 
L 169.774303 -72.990407 
L 173.323632 -74.033749 
L 176.872962 -75.105364 
L 180.422292 -76.203624 
L 183.971621 -77.322389 
L 187.520951 -78.4769 
L 191.07028 -79.649005 
L 194.61961 -80.850344 
L 198.16894 -82.065024 
L 201.718269 -83.298101 
L 205.267599 -84.560731 
L 208.816928 -85.860152 
L 212.366258 -87.175641 
L 215.915588 -88.521934 
L 219.464917 -89.883117 
L 223.014247 -91.270261 
L 226.563576 -92.681981 
L 230.112906 -94.104513 
L 233.662236 -95.546503 
L 237.211565 -97.000804 
L 240.760895 -98.473134 
L 244.310224 -99.95866 
L 247.859554 -101.46137 
L 251.408884 -102.988388 
L 254.958213 -104.541399 
L 258.507543 -106.111152 
L 262.056873 -107.699445 
L 265.606202 -109.303225 
L 269.155532 -110.925359 
L 272.704861 -112.567885 
L 276.254191 -114.215719 
L 279.803521 -115.882604 
L 283.35285 -117.573326 
L 286.90218 -119.279173 
L 290.451509 -120.994033 
L 294.000839 -122.722755 
L 297.550169 -124.467107 
L 301.099498 -126.214622 
L 304.648828 -127.985869 
L 308.198157 -129.780879 
L 311.747487 -131.599596 
L 315.296817 -133.436042 
L 318.846146 -135.286409 
L 322.395476 -137.164247 
L 325.944805 -139.073028 
L 329.494135 -141.001988 
L 333.043465 -142.948391 
L 336.592794 -144.916305 
L 340.142124 -146.904697 
L 343.691453 -148.906083 
L 347.240783 -150.932174 
L 350.790113 -152.977687 
L 354.339442 -155.045618 
L 357.888772 -157.144035 
L 361.438101 -159.268141 
L 364.987431 -161.409741 
L 368.536761 -163.570023 
L 372.08609 -165.767915 
L 375.63542 -167.989183 
L 379.184749 -170.224684 
L 382.734079 -172.476677 
L 386.283409 -174.760859 
L 389.832738 -177.067238 
L 393.382068 -179.389723 
L 396.931397 -181.737148 
L 400.480727 -184.11061 
L 404.030057 -186.502235 
L 407.579386 -188.937537 
L 411.128716 -191.408495 
L 414.678045 -193.908128 
L 418.227375 -196.433638 
L 421.776705 -199.016328 
L 425.326034 -201.604473 
L 428.875364 -204.11956 
L 432.424693 -190.872971 
L 432.424693 -290.144045 
L 432.424693 -290.144045 
L 428.875364 -291.844727 
L 425.326034 -288.030971 
L 421.776705 -284.198913 
L 418.227375 -280.392151 
L 414.678045 -276.632947 
L 411.128716 -272.906336 
L 407.579386 -269.244738 
L 404.030057 -265.616892 
L 400.480727 -262.052638 
L 396.931397 -258.519056 
L 393.382068 -255.033314 
L 389.832738 -251.586135 
L 386.283409 -248.188018 
L 382.734079 -244.817035 
L 379.184749 -241.484272 
L 375.63542 -238.20249 
L 372.08609 -234.938899 
L 368.536761 -231.70277 
L 364.987431 -228.507375 
L 361.438101 -225.349705 
L 357.888772 -222.216422 
L 354.339442 -219.116927 
L 350.790113 -216.058129 
L 347.240783 -213.036349 
L 343.691453 -210.042482 
L 340.142124 -207.083952 
L 336.592794 -204.148436 
L 333.043465 -201.221399 
L 329.494135 -198.331075 
L 325.944805 -195.481076 
L 322.395476 -192.664398 
L 318.846146 -189.873248 
L 315.296817 -187.110748 
L 311.747487 -184.370578 
L 308.198157 -181.651096 
L 304.648828 -178.954448 
L 301.099498 -176.300378 
L 297.550169 -173.678179 
L 294.000839 -171.083088 
L 290.451509 -168.481714 
L 286.90218 -165.905554 
L 283.35285 -163.352291 
L 279.803521 -160.826901 
L 276.254191 -158.325582 
L 272.704861 -155.859695 
L 269.155532 -153.407891 
L 265.606202 -150.982184 
L 262.056873 -148.563714 
L 258.507543 -146.16977 
L 254.958213 -143.805539 
L 251.408884 -141.474243 
L 247.859554 -139.170848 
L 244.310224 -136.883325 
L 240.760895 -134.614122 
L 237.211565 -132.348956 
L 233.662236 -130.0903 
L 230.112906 -127.85161 
L 226.563576 -125.643169 
L 223.014247 -123.450863 
L 219.464917 -121.287718 
L 215.915588 -119.151916 
L 212.366258 -117.005982 
L 208.816928 -114.895265 
L 205.267599 -112.805756 
L 201.718269 -110.737681 
L 198.16894 -108.690088 
L 194.61961 -106.650887 
L 191.07028 -104.613765 
L 187.520951 -102.582219 
L 183.971621 -100.576012 
L 180.422292 -98.584652 
L 176.872962 -96.619466 
L 173.323632 -94.666225 
L 169.774303 -92.724642 
L 166.224973 -90.806775 
L 162.675644 -88.897655 
L 159.126314 -87.018277 
L 155.576984 -85.176862 
L 152.027655 -83.354265 
L 148.478325 -81.552697 
L 144.928996 -79.764654 
L 141.379666 -77.999918 
L 137.830336 -76.230411 
L 134.281007 -74.478489 
L 130.731677 -72.744953 
L 127.182348 -71.049326 
L 123.633018 -69.393825 
L 120.083688 -67.7582 
L 116.534359 -66.169894 
L 112.985029 -64.513774 
L 109.4357 -62.668802 
L 105.88637 -61.282405 
L 102.33704 -60.088709 
L 98.787711 -58.887638 
L 95.238381 -57.638216 
L 91.689052 -56.497536 
L 88.139722 -55.523516 
L 84.590392 -55.999148 
L 81.041063 -54.07719 
z
" style="stroke: #bf00bf; stroke-opacity: 0.3"/>
    </defs>
    <g clip-path="url(#pf74d055955)">
     <use xlink:href="#m29afa2ccf8" x="0" y="345.6" style="fill: #bf00bf; fill-opacity: 0.3; stroke: #bf00bf; stroke-opacity: 0.3"/>
    </g>
   </g>
   <g id="FillBetweenPolyCollection_4">
    <defs>
     <path id="m72e4e3a84d" d="M 81.039545 -54.185198 
L 81.039545 -53.868143 
L 84.58894 -55.797921 
L 88.138334 -54.886484 
L 91.687728 -55.549885 
L 95.237123 -56.400438 
L 98.786517 -56.991817 
L 102.335911 -57.139669 
L 105.885306 -57.602476 
L 109.4347 -58.230599 
L 112.984094 -58.853031 
L 116.533489 -59.761307 
L 120.082883 -60.939966 
L 123.632277 -62.254782 
L 127.181672 -63.519539 
L 130.731066 -64.758594 
L 134.28046 -66.012785 
L 137.829855 -67.285979 
L 141.379249 -68.588875 
L 144.928643 -69.935198 
L 148.478038 -71.291376 
L 152.027432 -72.698046 
L 155.576826 -74.110774 
L 159.126221 -75.537629 
L 162.675615 -76.997238 
L 166.225009 -78.464136 
L 169.774404 -79.936587 
L 173.323798 -81.457209 
L 176.873192 -82.976924 
L 180.422587 -84.520095 
L 183.971981 -86.074316 
L 187.521375 -87.658172 
L 191.07077 -89.265155 
L 194.620164 -90.900204 
L 198.169558 -92.528844 
L 201.718953 -94.170611 
L 205.268347 -95.833365 
L 208.817741 -97.523971 
L 212.367135 -99.226433 
L 215.91653 -100.940888 
L 219.465924 -102.675013 
L 223.015318 -104.427271 
L 226.564713 -106.224274 
L 230.114107 -108.005455 
L 233.663501 -109.820828 
L 237.212896 -111.632771 
L 240.76229 -113.453152 
L 244.311684 -115.306565 
L 247.861079 -117.183151 
L 251.410473 -119.091434 
L 254.959867 -120.996974 
L 258.509262 -122.923628 
L 262.058656 -124.859442 
L 265.60805 -126.822488 
L 269.157445 -128.822885 
L 272.706839 -130.833455 
L 276.256233 -132.819082 
L 279.805628 -134.835423 
L 283.355022 -136.875973 
L 286.904416 -138.957358 
L 290.453811 -141.064366 
L 294.003205 -143.1815 
L 297.552599 -145.302587 
L 301.101994 -147.441205 
L 304.651388 -149.604523 
L 308.200782 -151.800791 
L 311.750177 -154.013146 
L 315.299571 -156.24233 
L 318.848965 -158.47873 
L 322.39836 -160.744104 
L 325.947754 -163.075637 
L 329.497148 -165.433175 
L 333.046543 -167.798868 
L 336.595937 -170.186416 
L 340.145331 -172.596065 
L 343.694726 -175.05369 
L 347.24412 -177.538297 
L 350.793514 -180.015753 
L 354.342909 -182.549734 
L 357.892303 -185.086503 
L 361.441697 -187.667109 
L 364.991091 -190.289468 
L 368.540486 -192.920118 
L 372.08988 -195.583095 
L 375.639274 -198.289121 
L 379.188669 -200.99877 
L 382.738063 -203.733716 
L 386.287457 -206.503942 
L 389.836852 -209.302652 
L 393.386246 -212.152675 
L 396.93564 -215.01689 
L 400.485035 -217.921178 
L 404.034429 -220.865371 
L 407.583823 -223.811852 
L 411.133218 -226.739496 
L 414.682612 -229.668672 
L 418.232006 -232.630131 
L 421.781401 -235.686545 
L 425.330795 -238.752708 
L 428.880189 -241.759076 
L 432.429584 -210.160579 
L 432.429584 -275.859458 
L 432.429584 -275.859458 
L 428.880189 -269.122797 
L 425.330795 -265.312606 
L 421.781401 -261.58057 
L 418.232006 -257.885355 
L 414.682612 -254.24926 
L 411.133218 -250.66496 
L 407.583823 -247.119628 
L 404.034429 -243.634445 
L 400.485035 -240.182861 
L 396.93564 -236.774077 
L 393.386246 -233.405647 
L 389.836852 -230.076206 
L 386.287457 -226.786669 
L 382.738063 -223.556534 
L 379.188669 -220.377454 
L 375.639274 -217.233747 
L 372.08988 -214.113612 
L 368.540486 -211.037668 
L 364.991091 -208.004162 
L 361.441697 -205.000951 
L 357.892303 -202.046105 
L 354.342909 -199.119507 
L 350.793514 -196.223521 
L 347.24412 -193.362888 
L 343.694726 -190.526597 
L 340.145331 -187.731386 
L 336.595937 -184.976708 
L 333.046543 -182.229488 
L 329.497148 -179.517199 
L 325.947754 -176.817908 
L 322.39836 -174.168531 
L 318.848965 -171.555817 
L 315.299571 -168.964804 
L 311.750177 -166.404433 
L 308.200782 -163.881527 
L 304.651388 -161.377866 
L 301.101994 -158.922777 
L 297.552599 -156.478924 
L 294.003205 -154.049309 
L 290.453811 -151.662365 
L 286.904416 -149.305554 
L 283.355022 -146.960243 
L 279.805628 -144.65846 
L 276.256233 -142.383936 
L 272.706839 -140.121157 
L 269.157445 -137.914017 
L 265.60805 -135.739369 
L 262.058656 -133.552177 
L 258.509262 -131.383169 
L 254.959867 -129.240902 
L 251.410473 -127.130913 
L 247.861079 -125.068048 
L 244.311684 -123.037266 
L 240.76229 -121.008428 
L 237.212896 -119.023443 
L 233.663501 -117.067275 
L 230.114107 -115.140045 
L 226.564713 -113.238199 
L 223.015318 -111.34908 
L 219.465924 -109.483736 
L 215.91653 -107.653717 
L 212.367135 -105.834718 
L 208.817741 -104.061197 
L 205.268347 -102.303019 
L 201.718953 -100.570209 
L 198.169558 -98.858064 
L 194.620164 -97.154339 
L 191.07077 -95.471043 
L 187.521375 -93.795394 
L 183.971981 -92.132891 
L 180.422587 -90.504694 
L 176.873192 -88.903453 
L 173.323798 -87.342038 
L 169.774404 -85.796129 
L 166.225009 -84.276163 
L 162.675615 -82.751676 
L 159.126221 -81.254129 
L 155.576826 -79.780441 
L 152.027432 -78.319436 
L 148.478038 -76.87144 
L 144.928643 -75.450283 
L 141.379249 -74.008199 
L 137.829855 -72.618392 
L 134.28046 -71.245674 
L 130.731066 -69.857028 
L 127.181672 -68.484269 
L 123.632277 -67.079459 
L 120.082883 -65.702869 
L 116.533489 -64.22684 
L 112.984094 -62.688887 
L 109.4347 -61.61335 
L 105.885306 -60.654573 
L 102.335911 -59.573986 
L 98.786517 -59.018149 
L 95.237123 -58.161009 
L 91.687728 -56.839964 
L 88.138334 -55.683438 
L 84.58894 -56.427784 
L 81.039545 -54.185198 
z
" style="stroke: #800080; stroke-opacity: 0.3"/>
    </defs>
    <g clip-path="url(#pf74d055955)">
     <use xlink:href="#m72e4e3a84d" x="0" y="345.6" style="fill: #800080; fill-opacity: 0.3; stroke: #800080; stroke-opacity: 0.3"/>
    </g>
   </g>
   <g id="FillBetweenPolyCollection_5">
    <defs>
     <path id="me247f0090c" d="M 81.04022 -54.160613 
L 81.04022 -53.970212 
L 84.589616 -56.063192 
L 88.139013 -54.865483 
L 91.688409 -54.862775 
L 95.237805 -55.016082 
L 98.787202 -55.344644 
L 102.336598 -55.691411 
L 105.885994 -56.12542 
L 109.43539 -56.631424 
L 112.984787 -57.089767 
L 116.534183 -57.432891 
L 120.083579 -57.76067 
L 123.632976 -58.260169 
L 127.182372 -58.920342 
L 130.731768 -59.566765 
L 134.281165 -60.208393 
L 137.830561 -60.85287 
L 141.379957 -61.506988 
L 144.929354 -62.134579 
L 148.47875 -62.745174 
L 152.028146 -63.365213 
L 155.577542 -63.972548 
L 159.126939 -64.551709 
L 162.676335 -65.136419 
L 166.225731 -65.766405 
L 169.775128 -66.457351 
L 173.324524 -67.220659 
L 176.87392 -68.069355 
L 180.423317 -68.978214 
L 183.972713 -69.920604 
L 187.522109 -70.885708 
L 191.071506 -71.867705 
L 194.620902 -72.862689 
L 198.170298 -73.863762 
L 201.719694 -74.886376 
L 205.269091 -75.935323 
L 208.818487 -77.015202 
L 212.367883 -78.11133 
L 215.91728 -79.220897 
L 219.466676 -80.348196 
L 223.016072 -81.482161 
L 226.565469 -82.631335 
L 230.114865 -83.812203 
L 233.664261 -85.025341 
L 237.213658 -86.260508 
L 240.763054 -87.520377 
L 244.31245 -88.802625 
L 247.861846 -90.111795 
L 251.411243 -91.448483 
L 254.960639 -92.79969 
L 258.510035 -94.163241 
L 262.059432 -95.542789 
L 265.608828 -96.94713 
L 269.158224 -98.373494 
L 272.707621 -99.821761 
L 276.257017 -101.285397 
L 279.806413 -102.766776 
L 283.35581 -104.253728 
L 286.905206 -105.752476 
L 290.454602 -107.276234 
L 294.003999 -108.827019 
L 297.553395 -110.405196 
L 301.102791 -112.002795 
L 304.652187 -113.60923 
L 308.201584 -115.229978 
L 311.75098 -116.865224 
L 315.300376 -118.523463 
L 318.849773 -120.19973 
L 322.399169 -121.893762 
L 325.948565 -123.599468 
L 329.497962 -125.318471 
L 333.047358 -127.056546 
L 336.596754 -128.813352 
L 340.146151 -130.594372 
L 343.695547 -132.396964 
L 347.244943 -134.219564 
L 350.794339 -136.060096 
L 354.343736 -137.925932 
L 357.893132 -139.815778 
L 361.442528 -141.731582 
L 364.991925 -143.667476 
L 368.541321 -145.620378 
L 372.090717 -147.58943 
L 375.640114 -149.585662 
L 379.18951 -151.603425 
L 382.738906 -153.652116 
L 386.288303 -155.715742 
L 389.837699 -157.793304 
L 393.387095 -159.894932 
L 396.936491 -162.013931 
L 400.485888 -164.150851 
L 404.035284 -166.301701 
L 407.58468 -168.478863 
L 411.134077 -170.6769 
L 414.683473 -172.896528 
L 418.232869 -175.149434 
L 421.782266 -177.442181 
L 425.331662 -179.759487 
L 428.881058 -182.135803 
L 432.430455 -169.128202 
L 432.430455 -261.441808 
L 432.430455 -261.441808 
L 428.881058 -276.730905 
L 425.331662 -272.787922 
L 421.782266 -268.972985 
L 418.232869 -265.202487 
L 414.683473 -261.520664 
L 411.134077 -257.945675 
L 407.58468 -254.421017 
L 404.035284 -250.917961 
L 400.485888 -247.447009 
L 396.936491 -243.967906 
L 393.387095 -240.515712 
L 389.837699 -237.074293 
L 386.288303 -233.675549 
L 382.738906 -230.323648 
L 379.18951 -227.016286 
L 375.640114 -223.774192 
L 372.090717 -220.56233 
L 368.541321 -217.398855 
L 364.991925 -214.25917 
L 361.442528 -211.171352 
L 357.893132 -208.118505 
L 354.343736 -205.110654 
L 350.794339 -202.151676 
L 347.244943 -199.227444 
L 343.695547 -196.309272 
L 340.146151 -193.416881 
L 336.596754 -190.569739 
L 333.047358 -187.762528 
L 329.497962 -184.991802 
L 325.948565 -182.242265 
L 322.399169 -179.516813 
L 318.849773 -176.821098 
L 315.300376 -174.166243 
L 311.75098 -171.561871 
L 308.201584 -169.003572 
L 304.652187 -166.462629 
L 301.102791 -163.962535 
L 297.553395 -161.473551 
L 294.003999 -159.004785 
L 290.454602 -156.592254 
L 286.905206 -154.20925 
L 283.35581 -151.838137 
L 279.806413 -149.482246 
L 276.257017 -147.129457 
L 272.707621 -144.828168 
L 269.158224 -142.552121 
L 265.608828 -140.314453 
L 262.059432 -138.110841 
L 258.510035 -135.925849 
L 254.960639 -133.744168 
L 251.411243 -131.594283 
L 247.861846 -129.465443 
L 244.31245 -127.370903 
L 240.763054 -125.306179 
L 237.213658 -123.25519 
L 233.664261 -121.217262 
L 230.114865 -119.188144 
L 226.565469 -117.181917 
L 223.016072 -115.212298 
L 219.466676 -113.263829 
L 215.91728 -111.32359 
L 212.367883 -109.418156 
L 208.818487 -107.526399 
L 205.269091 -105.648436 
L 201.719694 -103.771475 
L 198.170298 -101.912454 
L 194.620902 -100.09416 
L 191.071506 -98.287653 
L 187.522109 -96.508593 
L 183.972713 -94.749397 
L 180.423317 -93.012751 
L 176.87392 -91.267261 
L 173.324524 -89.521983 
L 169.775128 -87.829235 
L 166.225731 -86.131747 
L 162.676335 -84.433952 
L 159.126939 -82.754693 
L 155.577542 -81.096136 
L 152.028146 -79.431635 
L 148.47875 -77.799514 
L 144.929354 -76.22658 
L 141.379957 -74.650279 
L 137.830561 -73.042611 
L 134.281165 -71.48108 
L 130.731768 -69.928115 
L 127.182372 -68.306283 
L 123.632976 -66.526978 
L 120.083579 -65.050164 
L 116.534183 -64.111931 
L 112.984787 -63.286326 
L 109.43539 -62.051766 
L 105.885994 -60.548014 
L 102.336598 -59.299253 
L 98.787202 -58.290314 
L 95.237805 -57.363997 
L 91.688409 -56.640943 
L 88.139013 -55.914958 
L 84.589616 -57.271729 
L 81.04022 -54.160613 
z
" style="stroke: #0000ff; stroke-opacity: 0.3"/>
    </defs>
    <g clip-path="url(#pf74d055955)">
     <use xlink:href="#me247f0090c" x="0" y="345.6" style="fill: #0000ff; fill-opacity: 0.3; stroke: #0000ff; stroke-opacity: 0.3"/>
    </g>
   </g>
   <g id="matplotlib.axis_1">
    <g id="xtick_1">
     <g id="line2d_1">
      <path d="M 81.039117 303.64 
L 81.039117 41.856 
" clip-path="url(#pf74d055955)" style="fill: none; stroke: #b0b0b0; stroke-opacity: 0.3; stroke-width: 0.8; stroke-linecap: square"/>
     </g>
     <g id="line2d_2">
      <defs>
       <path id="m40dacd445e" d="M 0 0 
L 0 3.5 
" style="stroke: #000000; stroke-width: 0.8"/>
      </defs>
      <g>
       <use xlink:href="#m40dacd445e" x="81.039117" y="303.64" style="stroke: #000000; stroke-width: 0.8"/>
      </g>
     </g>
     <g id="text_1">
      <!-- 0.00 -->
      <g transform="translate(69.906304 318.238437) scale(0.1 -0.1)">
       <defs>
        <path id="DejaVuSans-30" d="M 2034 4250 
Q 1547 4250 1301 3770 
Q 1056 3291 1056 2328 
Q 1056 1369 1301 889 
Q 1547 409 2034 409 
Q 2525 409 2770 889 
Q 3016 1369 3016 2328 
Q 3016 3291 2770 3770 
Q 2525 4250 2034 4250 
z
M 2034 4750 
Q 2819 4750 3233 4129 
Q 3647 3509 3647 2328 
Q 3647 1150 3233 529 
Q 2819 -91 2034 -91 
Q 1250 -91 836 529 
Q 422 1150 422 2328 
Q 422 3509 836 4129 
Q 1250 4750 2034 4750 
z
" transform="scale(0.015625)"/>
        <path id="DejaVuSans-2e" d="M 684 794 
L 1344 794 
L 1344 0 
L 684 0 
L 684 794 
z
" transform="scale(0.015625)"/>
       </defs>
       <use xlink:href="#DejaVuSans-30"/>
       <use xlink:href="#DejaVuSans-2e" transform="translate(63.623047 0)"/>
       <use xlink:href="#DejaVuSans-30" transform="translate(95.410156 0)"/>
       <use xlink:href="#DejaVuSans-30" transform="translate(159.033203 0)"/>
      </g>
     </g>
    </g>
    <g id="xtick_2">
     <g id="line2d_3">
      <path d="M 165.331421 303.64 
L 165.331421 41.856 
" clip-path="url(#pf74d055955)" style="fill: none; stroke: #b0b0b0; stroke-opacity: 0.3; stroke-width: 0.8; stroke-linecap: square"/>
     </g>
     <g id="line2d_4">
      <g>
       <use xlink:href="#m40dacd445e" x="165.331421" y="303.64" style="stroke: #000000; stroke-width: 0.8"/>
      </g>
     </g>
     <g id="text_2">
      <!-- 0.05 -->
      <g transform="translate(154.198609 318.238437) scale(0.1 -0.1)">
       <defs>
        <path id="DejaVuSans-35" d="M 691 4666 
L 3169 4666 
L 3169 4134 
L 1269 4134 
L 1269 2991 
Q 1406 3038 1543 3061 
Q 1681 3084 1819 3084 
Q 2600 3084 3056 2656 
Q 3513 2228 3513 1497 
Q 3513 744 3044 326 
Q 2575 -91 1722 -91 
Q 1428 -91 1123 -41 
Q 819 9 494 109 
L 494 744 
Q 775 591 1075 516 
Q 1375 441 1709 441 
Q 2250 441 2565 725 
Q 2881 1009 2881 1497 
Q 2881 1984 2565 2268 
Q 2250 2553 1709 2553 
Q 1456 2553 1204 2497 
Q 953 2441 691 2322 
L 691 4666 
z
" transform="scale(0.015625)"/>
       </defs>
       <use xlink:href="#DejaVuSans-30"/>
       <use xlink:href="#DejaVuSans-2e" transform="translate(63.623047 0)"/>
       <use xlink:href="#DejaVuSans-30" transform="translate(95.410156 0)"/>
       <use xlink:href="#DejaVuSans-35" transform="translate(159.033203 0)"/>
      </g>
     </g>
    </g>
    <g id="xtick_3">
     <g id="line2d_5">
      <path d="M 249.623726 303.64 
L 249.623726 41.856 
" clip-path="url(#pf74d055955)" style="fill: none; stroke: #b0b0b0; stroke-opacity: 0.3; stroke-width: 0.8; stroke-linecap: square"/>
     </g>
     <g id="line2d_6">
      <g>
       <use xlink:href="#m40dacd445e" x="249.623726" y="303.64" style="stroke: #000000; stroke-width: 0.8"/>
      </g>
     </g>
     <g id="text_3">
      <!-- 0.10 -->
      <g transform="translate(238.490913 318.238437) scale(0.1 -0.1)">
       <defs>
        <path id="DejaVuSans-31" d="M 794 531 
L 1825 531 
L 1825 4091 
L 703 3866 
L 703 4441 
L 1819 4666 
L 2450 4666 
L 2450 531 
L 3481 531 
L 3481 0 
L 794 0 
L 794 531 
z
" transform="scale(0.015625)"/>
       </defs>
       <use xlink:href="#DejaVuSans-30"/>
       <use xlink:href="#DejaVuSans-2e" transform="translate(63.623047 0)"/>
       <use xlink:href="#DejaVuSans-31" transform="translate(95.410156 0)"/>
       <use xlink:href="#DejaVuSans-30" transform="translate(159.033203 0)"/>
      </g>
     </g>
    </g>
    <g id="xtick_4">
     <g id="line2d_7">
      <path d="M 333.91603 303.64 
L 333.91603 41.856 
" clip-path="url(#pf74d055955)" style="fill: none; stroke: #b0b0b0; stroke-opacity: 0.3; stroke-width: 0.8; stroke-linecap: square"/>
     </g>
     <g id="line2d_8">
      <g>
       <use xlink:href="#m40dacd445e" x="333.91603" y="303.64" style="stroke: #000000; stroke-width: 0.8"/>
      </g>
     </g>
     <g id="text_4">
      <!-- 0.15 -->
      <g transform="translate(322.783218 318.238437) scale(0.1 -0.1)">
       <use xlink:href="#DejaVuSans-30"/>
       <use xlink:href="#DejaVuSans-2e" transform="translate(63.623047 0)"/>
       <use xlink:href="#DejaVuSans-31" transform="translate(95.410156 0)"/>
       <use xlink:href="#DejaVuSans-35" transform="translate(159.033203 0)"/>
      </g>
     </g>
    </g>
    <g id="xtick_5">
     <g id="line2d_9">
      <path d="M 418.208335 303.64 
L 418.208335 41.856 
" clip-path="url(#pf74d055955)" style="fill: none; stroke: #b0b0b0; stroke-opacity: 0.3; stroke-width: 0.8; stroke-linecap: square"/>
     </g>
     <g id="line2d_10">
      <g>
       <use xlink:href="#m40dacd445e" x="418.208335" y="303.64" style="stroke: #000000; stroke-width: 0.8"/>
      </g>
     </g>
     <g id="text_5">
      <!-- 0.20 -->
      <g transform="translate(407.075522 318.238437) scale(0.1 -0.1)">
       <defs>
        <path id="DejaVuSans-32" d="M 1228 531 
L 3431 531 
L 3431 0 
L 469 0 
L 469 531 
Q 828 903 1448 1529 
Q 2069 2156 2228 2338 
Q 2531 2678 2651 2914 
Q 2772 3150 2772 3378 
Q 2772 3750 2511 3984 
Q 2250 4219 1831 4219 
Q 1534 4219 1204 4116 
Q 875 4013 500 3803 
L 500 4441 
Q 881 4594 1212 4672 
Q 1544 4750 1819 4750 
Q 2544 4750 2975 4387 
Q 3406 4025 3406 3419 
Q 3406 3131 3298 2873 
Q 3191 2616 2906 2266 
Q 2828 2175 2409 1742 
Q 1991 1309 1228 531 
z
" transform="scale(0.015625)"/>
       </defs>
       <use xlink:href="#DejaVuSans-30"/>
       <use xlink:href="#DejaVuSans-2e" transform="translate(63.623047 0)"/>
       <use xlink:href="#DejaVuSans-32" transform="translate(95.410156 0)"/>
       <use xlink:href="#DejaVuSans-30" transform="translate(159.033203 0)"/>
      </g>
     </g>
    </g>
    <g id="text_6">
     <!-- Strain [-] -->
     <g transform="translate(234.62875 331.916562) scale(0.1 -0.1)">
      <defs>
       <path id="DejaVuSans-53" d="M 3425 4513 
L 3425 3897 
Q 3066 4069 2747 4153 
Q 2428 4238 2131 4238 
Q 1616 4238 1336 4038 
Q 1056 3838 1056 3469 
Q 1056 3159 1242 3001 
Q 1428 2844 1947 2747 
L 2328 2669 
Q 3034 2534 3370 2195 
Q 3706 1856 3706 1288 
Q 3706 609 3251 259 
Q 2797 -91 1919 -91 
Q 1588 -91 1214 -16 
Q 841 59 441 206 
L 441 856 
Q 825 641 1194 531 
Q 1563 422 1919 422 
Q 2459 422 2753 634 
Q 3047 847 3047 1241 
Q 3047 1584 2836 1778 
Q 2625 1972 2144 2069 
L 1759 2144 
Q 1053 2284 737 2584 
Q 422 2884 422 3419 
Q 422 4038 858 4394 
Q 1294 4750 2059 4750 
Q 2388 4750 2728 4690 
Q 3069 4631 3425 4513 
z
" transform="scale(0.015625)"/>
       <path id="DejaVuSans-74" d="M 1172 4494 
L 1172 3500 
L 2356 3500 
L 2356 3053 
L 1172 3053 
L 1172 1153 
Q 1172 725 1289 603 
Q 1406 481 1766 481 
L 2356 481 
L 2356 0 
L 1766 0 
Q 1100 0 847 248 
Q 594 497 594 1153 
L 594 3053 
L 172 3053 
L 172 3500 
L 594 3500 
L 594 4494 
L 1172 4494 
z
" transform="scale(0.015625)"/>
       <path id="DejaVuSans-72" d="M 2631 2963 
Q 2534 3019 2420 3045 
Q 2306 3072 2169 3072 
Q 1681 3072 1420 2755 
Q 1159 2438 1159 1844 
L 1159 0 
L 581 0 
L 581 3500 
L 1159 3500 
L 1159 2956 
Q 1341 3275 1631 3429 
Q 1922 3584 2338 3584 
Q 2397 3584 2469 3576 
Q 2541 3569 2628 3553 
L 2631 2963 
z
" transform="scale(0.015625)"/>
       <path id="DejaVuSans-61" d="M 2194 1759 
Q 1497 1759 1228 1600 
Q 959 1441 959 1056 
Q 959 750 1161 570 
Q 1363 391 1709 391 
Q 2188 391 2477 730 
Q 2766 1069 2766 1631 
L 2766 1759 
L 2194 1759 
z
M 3341 1997 
L 3341 0 
L 2766 0 
L 2766 531 
Q 2569 213 2275 61 
Q 1981 -91 1556 -91 
Q 1019 -91 701 211 
Q 384 513 384 1019 
Q 384 1609 779 1909 
Q 1175 2209 1959 2209 
L 2766 2209 
L 2766 2266 
Q 2766 2663 2505 2880 
Q 2244 3097 1772 3097 
Q 1472 3097 1187 3025 
Q 903 2953 641 2809 
L 641 3341 
Q 956 3463 1253 3523 
Q 1550 3584 1831 3584 
Q 2591 3584 2966 3190 
Q 3341 2797 3341 1997 
z
" transform="scale(0.015625)"/>
       <path id="DejaVuSans-69" d="M 603 3500 
L 1178 3500 
L 1178 0 
L 603 0 
L 603 3500 
z
M 603 4863 
L 1178 4863 
L 1178 4134 
L 603 4134 
L 603 4863 
z
" transform="scale(0.015625)"/>
       <path id="DejaVuSans-6e" d="M 3513 2113 
L 3513 0 
L 2938 0 
L 2938 2094 
Q 2938 2591 2744 2837 
Q 2550 3084 2163 3084 
Q 1697 3084 1428 2787 
Q 1159 2491 1159 1978 
L 1159 0 
L 581 0 
L 581 3500 
L 1159 3500 
L 1159 2956 
Q 1366 3272 1645 3428 
Q 1925 3584 2291 3584 
Q 2894 3584 3203 3211 
Q 3513 2838 3513 2113 
z
" transform="scale(0.015625)"/>
       <path id="DejaVuSans-20" transform="scale(0.015625)"/>
       <path id="DejaVuSans-5b" d="M 550 4863 
L 1875 4863 
L 1875 4416 
L 1125 4416 
L 1125 -397 
L 1875 -397 
L 1875 -844 
L 550 -844 
L 550 4863 
z
" transform="scale(0.015625)"/>
       <path id="DejaVuSans-2d" d="M 313 2009 
L 1997 2009 
L 1997 1497 
L 313 1497 
L 313 2009 
z
" transform="scale(0.015625)"/>
       <path id="DejaVuSans-5d" d="M 1947 4863 
L 1947 -844 
L 622 -844 
L 622 -397 
L 1369 -397 
L 1369 4416 
L 622 4416 
L 622 4863 
L 1947 4863 
z
" transform="scale(0.015625)"/>
      </defs>
      <use xlink:href="#DejaVuSans-53"/>
      <use xlink:href="#DejaVuSans-74" transform="translate(63.476562 0)"/>
      <use xlink:href="#DejaVuSans-72" transform="translate(102.685547 0)"/>
      <use xlink:href="#DejaVuSans-61" transform="translate(143.798828 0)"/>
      <use xlink:href="#DejaVuSans-69" transform="translate(205.078125 0)"/>
      <use xlink:href="#DejaVuSans-6e" transform="translate(232.861328 0)"/>
      <use xlink:href="#DejaVuSans-20" transform="translate(296.240234 0)"/>
      <use xlink:href="#DejaVuSans-5b" transform="translate(328.027344 0)"/>
      <use xlink:href="#DejaVuSans-2d" transform="translate(367.041016 0)"/>
      <use xlink:href="#DejaVuSans-5d" transform="translate(403.125 0)"/>
     </g>
    </g>
   </g>
   <g id="matplotlib.axis_2">
    <g id="ytick_1">
     <g id="line2d_11">
      <path d="M 63.47 291.460225 
L 450 291.460225 
" clip-path="url(#pf74d055955)" style="fill: none; stroke: #b0b0b0; stroke-opacity: 0.3; stroke-width: 0.8; stroke-linecap: square"/>
     </g>
     <g id="line2d_12">
      <defs>
       <path id="mf615925aa4" d="M 0 0 
L -3.5 0 
" style="stroke: #000000; stroke-width: 0.8"/>
      </defs>
      <g>
       <use xlink:href="#mf615925aa4" x="63.47" y="291.460225" style="stroke: #000000; stroke-width: 0.8"/>
      </g>
     </g>
     <g id="text_7">
      <!-- 0 -->
      <g transform="translate(50.1075 295.259443) scale(0.1 -0.1)">
       <use xlink:href="#DejaVuSans-30"/>
      </g>
     </g>
    </g>
    <g id="ytick_2">
     <g id="line2d_13">
      <path d="M 63.47 241.692464 
L 450 241.692464 
" clip-path="url(#pf74d055955)" style="fill: none; stroke: #b0b0b0; stroke-opacity: 0.3; stroke-width: 0.8; stroke-linecap: square"/>
     </g>
     <g id="line2d_14">
      <g>
       <use xlink:href="#mf615925aa4" x="63.47" y="241.692464" style="stroke: #000000; stroke-width: 0.8"/>
      </g>
     </g>
     <g id="text_8">
      <!-- 2000 -->
      <g transform="translate(31.02 245.491683) scale(0.1 -0.1)">
       <use xlink:href="#DejaVuSans-32"/>
       <use xlink:href="#DejaVuSans-30" transform="translate(63.623047 0)"/>
       <use xlink:href="#DejaVuSans-30" transform="translate(127.246094 0)"/>
       <use xlink:href="#DejaVuSans-30" transform="translate(190.869141 0)"/>
      </g>
     </g>
    </g>
    <g id="ytick_3">
     <g id="line2d_15">
      <path d="M 63.47 191.924704 
L 450 191.924704 
" clip-path="url(#pf74d055955)" style="fill: none; stroke: #b0b0b0; stroke-opacity: 0.3; stroke-width: 0.8; stroke-linecap: square"/>
     </g>
     <g id="line2d_16">
      <g>
       <use xlink:href="#mf615925aa4" x="63.47" y="191.924704" style="stroke: #000000; stroke-width: 0.8"/>
      </g>
     </g>
     <g id="text_9">
      <!-- 4000 -->
      <g transform="translate(31.02 195.723923) scale(0.1 -0.1)">
       <defs>
        <path id="DejaVuSans-34" d="M 2419 4116 
L 825 1625 
L 2419 1625 
L 2419 4116 
z
M 2253 4666 
L 3047 4666 
L 3047 1625 
L 3713 1625 
L 3713 1100 
L 3047 1100 
L 3047 0 
L 2419 0 
L 2419 1100 
L 313 1100 
L 313 1709 
L 2253 4666 
z
" transform="scale(0.015625)"/>
       </defs>
       <use xlink:href="#DejaVuSans-34"/>
       <use xlink:href="#DejaVuSans-30" transform="translate(63.623047 0)"/>
       <use xlink:href="#DejaVuSans-30" transform="translate(127.246094 0)"/>
       <use xlink:href="#DejaVuSans-30" transform="translate(190.869141 0)"/>
      </g>
     </g>
    </g>
    <g id="ytick_4">
     <g id="line2d_17">
      <path d="M 63.47 142.156944 
L 450 142.156944 
" clip-path="url(#pf74d055955)" style="fill: none; stroke: #b0b0b0; stroke-opacity: 0.3; stroke-width: 0.8; stroke-linecap: square"/>
     </g>
     <g id="line2d_18">
      <g>
       <use xlink:href="#mf615925aa4" x="63.47" y="142.156944" style="stroke: #000000; stroke-width: 0.8"/>
      </g>
     </g>
     <g id="text_10">
      <!-- 6000 -->
      <g transform="translate(31.02 145.956162) scale(0.1 -0.1)">
       <defs>
        <path id="DejaVuSans-36" d="M 2113 2584 
Q 1688 2584 1439 2293 
Q 1191 2003 1191 1497 
Q 1191 994 1439 701 
Q 1688 409 2113 409 
Q 2538 409 2786 701 
Q 3034 994 3034 1497 
Q 3034 2003 2786 2293 
Q 2538 2584 2113 2584 
z
M 3366 4563 
L 3366 3988 
Q 3128 4100 2886 4159 
Q 2644 4219 2406 4219 
Q 1781 4219 1451 3797 
Q 1122 3375 1075 2522 
Q 1259 2794 1537 2939 
Q 1816 3084 2150 3084 
Q 2853 3084 3261 2657 
Q 3669 2231 3669 1497 
Q 3669 778 3244 343 
Q 2819 -91 2113 -91 
Q 1303 -91 875 529 
Q 447 1150 447 2328 
Q 447 3434 972 4092 
Q 1497 4750 2381 4750 
Q 2619 4750 2861 4703 
Q 3103 4656 3366 4563 
z
" transform="scale(0.015625)"/>
       </defs>
       <use xlink:href="#DejaVuSans-36"/>
       <use xlink:href="#DejaVuSans-30" transform="translate(63.623047 0)"/>
       <use xlink:href="#DejaVuSans-30" transform="translate(127.246094 0)"/>
       <use xlink:href="#DejaVuSans-30" transform="translate(190.869141 0)"/>
      </g>
     </g>
    </g>
    <g id="ytick_5">
     <g id="line2d_19">
      <path d="M 63.47 92.389183 
L 450 92.389183 
" clip-path="url(#pf74d055955)" style="fill: none; stroke: #b0b0b0; stroke-opacity: 0.3; stroke-width: 0.8; stroke-linecap: square"/>
     </g>
     <g id="line2d_20">
      <g>
       <use xlink:href="#mf615925aa4" x="63.47" y="92.389183" style="stroke: #000000; stroke-width: 0.8"/>
      </g>
     </g>
     <g id="text_11">
      <!-- 8000 -->
      <g transform="translate(31.02 96.188402) scale(0.1 -0.1)">
       <defs>
        <path id="DejaVuSans-38" d="M 2034 2216 
Q 1584 2216 1326 1975 
Q 1069 1734 1069 1313 
Q 1069 891 1326 650 
Q 1584 409 2034 409 
Q 2484 409 2743 651 
Q 3003 894 3003 1313 
Q 3003 1734 2745 1975 
Q 2488 2216 2034 2216 
z
M 1403 2484 
Q 997 2584 770 2862 
Q 544 3141 544 3541 
Q 544 4100 942 4425 
Q 1341 4750 2034 4750 
Q 2731 4750 3128 4425 
Q 3525 4100 3525 3541 
Q 3525 3141 3298 2862 
Q 3072 2584 2669 2484 
Q 3125 2378 3379 2068 
Q 3634 1759 3634 1313 
Q 3634 634 3220 271 
Q 2806 -91 2034 -91 
Q 1263 -91 848 271 
Q 434 634 434 1313 
Q 434 1759 690 2068 
Q 947 2378 1403 2484 
z
M 1172 3481 
Q 1172 3119 1398 2916 
Q 1625 2713 2034 2713 
Q 2441 2713 2670 2916 
Q 2900 3119 2900 3481 
Q 2900 3844 2670 4047 
Q 2441 4250 2034 4250 
Q 1625 4250 1398 4047 
Q 1172 3844 1172 3481 
z
" transform="scale(0.015625)"/>
       </defs>
       <use xlink:href="#DejaVuSans-38"/>
       <use xlink:href="#DejaVuSans-30" transform="translate(63.623047 0)"/>
       <use xlink:href="#DejaVuSans-30" transform="translate(127.246094 0)"/>
       <use xlink:href="#DejaVuSans-30" transform="translate(190.869141 0)"/>
      </g>
     </g>
    </g>
    <g id="ytick_6">
     <g id="line2d_21">
      <path d="M 63.47 42.621423 
L 450 42.621423 
" clip-path="url(#pf74d055955)" style="fill: none; stroke: #b0b0b0; stroke-opacity: 0.3; stroke-width: 0.8; stroke-linecap: square"/>
     </g>
     <g id="line2d_22">
      <g>
       <use xlink:href="#mf615925aa4" x="63.47" y="42.621423" style="stroke: #000000; stroke-width: 0.8"/>
      </g>
     </g>
     <g id="text_12">
      <!-- 10000 -->
      <g transform="translate(24.6575 46.420642) scale(0.1 -0.1)">
       <use xlink:href="#DejaVuSans-31"/>
       <use xlink:href="#DejaVuSans-30" transform="translate(63.623047 0)"/>
       <use xlink:href="#DejaVuSans-30" transform="translate(127.246094 0)"/>
       <use xlink:href="#DejaVuSans-30" transform="translate(190.869141 0)"/>
       <use xlink:href="#DejaVuSans-30" transform="translate(254.492188 0)"/>
      </g>
     </g>
    </g>
    <g id="text_13">
     <!-- Stress [Pa] -->
     <g transform="translate(18.577813 199.455812) rotate(-90) scale(0.1 -0.1)">
      <defs>
       <path id="DejaVuSans-65" d="M 3597 1894 
L 3597 1613 
L 953 1613 
Q 991 1019 1311 708 
Q 1631 397 2203 397 
Q 2534 397 2845 478 
Q 3156 559 3463 722 
L 3463 178 
Q 3153 47 2828 -22 
Q 2503 -91 2169 -91 
Q 1331 -91 842 396 
Q 353 884 353 1716 
Q 353 2575 817 3079 
Q 1281 3584 2069 3584 
Q 2775 3584 3186 3129 
Q 3597 2675 3597 1894 
z
M 3022 2063 
Q 3016 2534 2758 2815 
Q 2500 3097 2075 3097 
Q 1594 3097 1305 2825 
Q 1016 2553 972 2059 
L 3022 2063 
z
" transform="scale(0.015625)"/>
       <path id="DejaVuSans-73" d="M 2834 3397 
L 2834 2853 
Q 2591 2978 2328 3040 
Q 2066 3103 1784 3103 
Q 1356 3103 1142 2972 
Q 928 2841 928 2578 
Q 928 2378 1081 2264 
Q 1234 2150 1697 2047 
L 1894 2003 
Q 2506 1872 2764 1633 
Q 3022 1394 3022 966 
Q 3022 478 2636 193 
Q 2250 -91 1575 -91 
Q 1294 -91 989 -36 
Q 684 19 347 128 
L 347 722 
Q 666 556 975 473 
Q 1284 391 1588 391 
Q 1994 391 2212 530 
Q 2431 669 2431 922 
Q 2431 1156 2273 1281 
Q 2116 1406 1581 1522 
L 1381 1569 
Q 847 1681 609 1914 
Q 372 2147 372 2553 
Q 372 3047 722 3315 
Q 1072 3584 1716 3584 
Q 2034 3584 2315 3537 
Q 2597 3491 2834 3397 
z
" transform="scale(0.015625)"/>
       <path id="DejaVuSans-50" d="M 1259 4147 
L 1259 2394 
L 2053 2394 
Q 2494 2394 2734 2622 
Q 2975 2850 2975 3272 
Q 2975 3691 2734 3919 
Q 2494 4147 2053 4147 
L 1259 4147 
z
M 628 4666 
L 2053 4666 
Q 2838 4666 3239 4311 
Q 3641 3956 3641 3272 
Q 3641 2581 3239 2228 
Q 2838 1875 2053 1875 
L 1259 1875 
L 1259 0 
L 628 0 
L 628 4666 
z
" transform="scale(0.015625)"/>
      </defs>
      <use xlink:href="#DejaVuSans-53"/>
      <use xlink:href="#DejaVuSans-74" transform="translate(63.476562 0)"/>
      <use xlink:href="#DejaVuSans-72" transform="translate(102.685547 0)"/>
      <use xlink:href="#DejaVuSans-65" transform="translate(141.548828 0)"/>
      <use xlink:href="#DejaVuSans-73" transform="translate(203.072266 0)"/>
      <use xlink:href="#DejaVuSans-73" transform="translate(255.171875 0)"/>
      <use xlink:href="#DejaVuSans-20" transform="translate(307.271484 0)"/>
      <use xlink:href="#DejaVuSans-5b" transform="translate(339.058594 0)"/>
      <use xlink:href="#DejaVuSans-50" transform="translate(378.072266 0)"/>
      <use xlink:href="#DejaVuSans-61" transform="translate(433.875 0)"/>
      <use xlink:href="#DejaVuSans-5d" transform="translate(495.154297 0)"/>
     </g>
    </g>
   </g>
   <g id="line2d_23">
    <path d="M 81.054481 291.599264 
L 81.766329 291.488182 
L 82.478176 291.301813 
L 83.190024 291.175505 
L 83.901871 291.251012 
L 84.613719 291.404473 
L 85.325567 291.356309 
L 86.037414 291.254396 
L 86.749262 291.214167 
L 87.461109 291.179568 
L 88.172957 291.139166 
L 88.884804 291.050014 
L 89.596652 290.892366 
L 90.3085 290.75181 
L 91.020347 290.627287 
L 91.732195 290.510411 
L 92.444042 290.399354 
L 93.15589 290.274967 
L 93.867737 290.148164 
L 94.579585 290.032868 
L 95.291433 289.905519 
L 96.00328 289.773398 
L 96.715128 289.621014 
L 97.426975 289.453816 
L 98.138823 289.271088 
L 98.850671 289.083578 
L 99.562518 288.903843 
L 100.274366 288.73505 
L 100.986213 288.569258 
L 101.698061 288.395746 
L 102.409908 288.219376 
L 103.121756 288.032571 
L 103.833604 287.847719 
L 104.545451 287.665534 
L 105.257299 287.483095 
L 105.969146 287.300619 
L 106.680994 287.116259 
L 107.392841 286.929697 
L 108.104689 286.739181 
L 108.816537 286.55178 
L 109.528384 286.363947 
L 110.240232 286.169534 
L 110.952079 285.972612 
L 111.663927 285.771939 
L 112.375775 285.570166 
L 113.087622 285.360454 
L 113.79947 285.147134 
L 114.511317 284.933073 
L 115.223165 284.71083 
L 115.935012 284.48543 
L 116.64686 284.259609 
L 117.358708 284.036055 
L 118.070555 283.810222 
L 118.782403 283.585785 
L 119.49425 283.366398 
L 120.206098 283.148605 
L 120.917945 282.928413 
L 121.629793 282.70262 
L 122.341641 282.476324 
L 123.053488 282.249238 
L 123.765336 282.02248 
L 124.477183 281.799579 
L 125.189031 281.57493 
L 125.900879 281.343336 
L 126.612726 281.108573 
L 127.324574 280.870415 
L 128.036421 280.630806 
L 128.748269 280.394076 
L 129.460116 280.157645 
L 130.171964 279.921885 
L 130.883812 279.680396 
L 131.595659 279.438385 
L 132.307507 279.19662 
L 133.019354 278.95392 
L 133.731202 278.710752 
L 134.443049 278.46836 
L 135.154897 278.2233 
L 135.866745 277.974997 
L 136.578592 277.726014 
L 137.29044 277.479671 
L 138.002287 277.234199 
L 138.714135 276.989585 
L 139.425982 276.745324 
L 140.13783 276.495897 
L 140.849678 276.242773 
L 141.561525 275.988674 
L 142.273373 275.733284 
L 142.98522 275.479314 
L 143.697068 275.226864 
L 144.408916 274.974201 
L 145.120763 274.717906 
L 145.832611 274.4584 
L 146.544458 274.195123 
L 147.256306 273.930555 
L 147.968153 273.669291 
L 148.680001 273.415065 
L 149.391849 273.162594 
L 150.103696 272.907881 
L 150.815544 272.648486 
L 151.527391 272.733538 
" clip-path="url(#pf74d055955)" style="fill: none; stroke: #800080; stroke-width: 2; stroke-linecap: square"/>
   </g>
   <g id="line2d_24">
    <path d="M 81.039993 291.592955 
L 83.170317 290.693118 
L 85.300641 290.481799 
L 87.430965 291.088986 
L 89.561289 290.698542 
L 91.691613 290.562633 
L 93.821937 290.403319 
L 95.952261 289.80092 
L 98.082584 289.060062 
L 100.212908 288.520174 
L 102.343232 287.995549 
L 104.473556 287.293306 
L 106.60388 286.534724 
L 108.734204 285.885189 
L 110.864528 285.275018 
L 112.994852 284.598876 
L 115.125175 283.866446 
L 117.255499 283.163144 
L 119.385823 282.483151 
L 121.516147 281.803264 
L 123.646471 281.103185 
L 125.776795 280.378794 
L 127.907119 279.62933 
L 130.037443 278.869487 
L 132.167767 278.104459 
L 134.29809 277.347735 
L 136.428414 276.589523 
L 138.558738 275.825428 
L 140.689062 275.048882 
L 142.819386 274.276411 
L 144.94971 273.501821 
L 147.080034 272.72063 
L 149.210358 271.927664 
L 151.340681 271.135154 
L 153.471005 270.335437 
L 155.601329 269.524446 
L 157.731653 268.697557 
L 159.861977 267.85774 
L 161.992301 267.017341 
L 164.122625 266.175247 
L 166.252949 265.324159 
L 168.383273 264.467675 
L 170.513596 263.609898 
L 172.64392 262.74241 
L 174.774244 261.866024 
L 176.904568 260.980647 
L 179.034892 260.088522 
L 181.165216 259.192697 
L 183.29554 258.287885 
L 185.425864 257.375744 
L 187.556187 256.459946 
L 189.686511 255.531887 
L 191.816835 254.595904 
L 193.947159 253.651065 
L 196.077483 252.699649 
L 198.207807 251.734425 
L 200.338131 250.767546 
L 202.468455 249.792881 
L 204.598779 248.812596 
L 206.729102 247.81959 
L 208.859426 246.833428 
L 210.98975 245.829576 
L 213.120074 244.821146 
L 215.250398 243.803006 
L 217.380722 242.781408 
L 219.511046 241.743735 
L 221.64137 240.709432 
L 223.771694 239.673022 
L 225.902017 238.632987 
L 228.032341 237.582391 
L 230.162665 236.530249 
L 232.292989 235.472192 
L 234.423313 234.400131 
L 236.553637 233.320352 
L 238.683961 232.239162 
L 240.814285 231.153321 
L 242.944608 230.057126 
L 245.074932 228.95505 
L 247.205256 227.850822 
L 249.33558 226.737153 
L 251.465904 225.620694 
L 253.596228 224.497611 
L 255.726552 223.377861 
L 257.856876 222.244653 
L 259.9872 221.107526 
L 262.117523 219.958516 
L 264.247847 218.802794 
L 266.378171 217.645729 
L 268.508495 216.491192 
L 270.638819 215.320148 
L 272.769143 214.145536 
L 274.899467 212.965787 
L 277.029791 211.764408 
L 279.160114 210.555 
L 281.290438 209.339173 
L 283.420762 208.122783 
L 285.551086 206.903887 
L 287.68141 205.706784 
L 289.811734 204.529862 
L 291.942058 205.483284 
" clip-path="url(#pf74d055955)" style="fill: none; stroke: #00bfbf; stroke-width: 2; stroke-linecap: square"/>
   </g>
   <g id="line2d_25">
    <path d="M 81.041063 291.590342 
L 84.590392 290.080411 
L 88.139722 290.510558 
L 91.689052 289.841845 
L 95.238381 289.166332 
L 98.787711 288.260785 
L 102.33704 287.376987 
L 105.88637 286.483339 
L 109.4357 285.505728 
L 112.985029 284.156695 
L 116.534359 282.896524 
L 120.083688 281.735078 
L 123.633018 280.537043 
L 127.182348 279.281806 
L 130.731677 278.013072 
L 134.281007 276.741921 
L 137.830336 275.456852 
L 141.379666 274.132294 
L 144.928996 272.779348 
L 148.478325 271.391512 
L 152.027655 269.986541 
L 155.576984 268.564737 
L 159.126314 267.130809 
L 162.675644 265.675826 
L 166.224973 264.209554 
L 169.774303 262.742475 
L 173.323632 261.250013 
L 176.872962 259.737585 
L 180.422292 258.205862 
L 183.971621 256.650799 
L 187.520951 255.07044 
L 191.07028 253.468615 
L 194.61961 251.849385 
L 198.16894 250.222444 
L 201.718269 248.582109 
L 205.267599 246.916756 
L 208.816928 245.222291 
L 212.366258 243.509188 
L 215.915588 241.763075 
L 219.464917 240.014583 
L 223.014247 238.239438 
L 226.563576 236.437425 
L 230.112906 234.621938 
L 233.662236 232.781599 
L 237.211565 230.92512 
L 240.760895 229.056372 
L 244.310224 227.179007 
L 247.859554 225.283891 
L 251.408884 223.368684 
L 254.958213 221.426531 
L 258.507543 219.459539 
L 262.056873 217.468421 
L 265.606202 215.457296 
L 269.155532 213.433375 
L 272.704861 211.38621 
L 276.254191 209.32935 
L 279.803521 207.245248 
L 283.35285 205.137191 
L 286.90218 203.007636 
L 290.451509 200.862127 
L 294.000839 198.697079 
L 297.550169 196.527357 
L 301.099498 194.3425 
L 304.648828 192.129842 
L 308.198157 189.884013 
L 311.747487 187.614913 
L 315.296817 185.326605 
L 318.846146 183.020171 
L 322.395476 180.685678 
L 325.944805 178.322948 
L 329.494135 175.933468 
L 333.043465 173.515105 
L 336.592794 171.067629 
L 340.142124 168.605675 
L 343.691453 166.125718 
L 347.240783 163.615738 
L 350.790113 161.082092 
L 354.339442 158.518728 
L 357.888772 155.919772 
L 361.438101 153.291077 
L 364.987431 150.641442 
L 368.536761 147.963604 
L 372.08609 145.246593 
L 375.63542 142.504163 
L 379.184749 139.745522 
L 382.734079 136.953144 
L 386.283409 134.125561 
L 389.832738 131.273314 
L 393.382068 128.388482 
L 396.931397 125.471898 
L 400.480727 122.518376 
L 404.030057 119.540436 
L 407.579386 116.508862 
L 411.128716 113.442584 
L 414.678045 110.329462 
L 418.227375 107.187105 
L 421.776705 103.992379 
L 425.326034 100.782278 
L 428.875364 97.617856 
L 432.424693 105.091492 
" clip-path="url(#pf74d055955)" style="fill: none; stroke: #bf00bf; stroke-width: 2; stroke-linecap: square"/>
   </g>
   <g id="line2d_26">
    <path d="M 81.039545 291.573329 
L 84.58894 289.487147 
L 88.138334 290.315039 
L 91.687728 289.405076 
L 95.237123 288.319276 
L 98.786517 287.595017 
L 102.335911 287.243173 
L 105.885306 286.471476 
L 109.4347 285.678026 
L 112.984094 284.829041 
L 116.533489 283.605927 
L 120.082883 282.278583 
L 123.632277 280.93288 
L 127.181672 279.598096 
L 130.731066 278.292189 
L 134.28046 276.97077 
L 137.829855 275.647814 
L 141.379249 274.301463 
L 144.928643 272.907259 
L 148.478038 271.518592 
L 152.027432 270.091259 
L 155.576826 268.654392 
L 159.126221 267.204121 
L 162.675615 265.725543 
L 166.225009 264.22985 
L 169.774404 262.733642 
L 173.323798 261.200377 
L 176.873192 259.659812 
L 180.422587 258.087605 
L 183.971981 256.496397 
L 187.521375 254.873217 
L 191.07077 253.231901 
L 194.620164 251.572729 
L 198.169558 249.906546 
L 201.718953 248.22959 
L 205.268347 246.531808 
L 208.817741 244.807416 
L 212.367135 243.069424 
L 215.91653 241.302698 
L 219.465924 239.520626 
L 223.015318 237.711824 
L 226.564713 235.868764 
L 230.114107 234.02725 
L 233.663501 232.155948 
L 237.212896 230.271893 
L 240.76229 228.36921 
L 244.311684 226.428084 
L 247.861079 224.474401 
L 251.410473 222.488826 
L 254.959867 220.481062 
L 258.509262 218.446601 
L 262.058656 216.394191 
L 265.60805 214.319071 
L 269.157445 212.231549 
L 272.706839 210.122694 
L 276.256233 207.998491 
L 279.805628 205.853059 
L 283.355022 203.681892 
L 286.904416 201.468544 
L 290.453811 199.236634 
L 294.003205 196.984596 
L 297.552599 194.709245 
L 301.101994 192.418009 
L 304.651388 190.108805 
L 308.200782 187.758841 
L 311.750177 185.39121 
L 315.299571 182.996433 
L 318.848965 180.582727 
L 322.39836 178.143682 
L 325.947754 175.653227 
L 329.497148 173.124813 
L 333.046543 170.585822 
L 336.595937 168.018438 
L 340.145331 165.436275 
L 343.694726 162.809857 
L 347.24412 160.149407 
L 350.793514 157.480363 
L 354.342909 154.765379 
L 357.892303 152.033696 
L 361.441697 149.26597 
L 364.991091 146.453185 
L 368.540486 143.621107 
L 372.08988 140.751646 
L 375.639274 137.838566 
L 379.188669 134.911888 
L 382.738063 131.954875 
L 386.287457 128.954694 
L 389.836852 125.910571 
L 393.386246 122.820839 
L 396.93564 119.704517 
L 400.485035 116.547981 
L 404.034429 113.350092 
L 407.583823 110.13426 
L 411.133218 106.897772 
L 414.682612 103.641034 
L 418.232006 100.342257 
L 421.781401 96.966443 
L 425.330795 93.567343 
L 428.880189 90.159064 
L 432.429584 102.589981 
" clip-path="url(#pf74d055955)" style="fill: none; stroke: #800080; stroke-width: 2; stroke-linecap: square"/>
   </g>
   <g id="line2d_27">
    <path d="M 81.04022 291.534587 
L 84.589616 288.93254 
L 88.139013 290.209779 
L 91.688409 289.848141 
L 95.237805 289.40996 
L 98.787202 288.782521 
L 102.336598 288.104668 
L 105.885994 287.263283 
L 109.43539 286.258405 
L 112.984787 285.411953 
L 116.534183 284.827589 
L 120.083579 284.194583 
L 123.632976 283.206427 
L 127.182372 281.986688 
L 130.731768 280.85256 
L 134.281165 279.755263 
L 137.830561 278.65226 
L 141.379957 277.521367 
L 144.929354 276.419421 
L 148.47875 275.327656 
L 152.028146 274.201576 
L 155.577542 273.065658 
L 159.126939 271.946799 
L 162.676335 270.814814 
L 166.225731 269.650924 
L 169.775128 268.456707 
L 173.324524 267.228679 
L 176.87392 265.931692 
L 180.423317 264.604517 
L 183.972713 263.264999 
L 187.522109 261.90285 
L 191.071506 260.522321 
L 194.620902 259.121576 
L 198.170298 257.711892 
L 201.719694 256.271074 
L 205.269091 254.808121 
L 208.818487 253.3292 
L 212.367883 251.835257 
L 215.91728 250.327756 
L 219.466676 248.793987 
L 223.016072 247.25277 
L 226.565469 245.693374 
L 230.114865 244.099826 
L 233.664261 242.478698 
L 237.213658 240.842151 
L 240.763054 239.186722 
L 244.31245 237.513236 
L 247.861846 235.811381 
L 251.411243 234.078617 
L 254.960639 232.328071 
L 258.510035 230.555455 
L 262.059432 228.773185 
L 265.608828 226.969209 
L 269.158224 225.137192 
L 272.707621 223.275036 
L 276.257017 221.392573 
L 279.806413 219.475489 
L 283.35581 217.554067 
L 286.905206 215.619137 
L 290.454602 213.665756 
L 294.003999 211.684098 
L 297.553395 209.660626 
L 301.102791 207.617335 
L 304.652187 205.56407 
L 308.201584 203.483225 
L 311.75098 201.386453 
L 315.300376 199.255147 
L 318.849773 197.089586 
L 322.399169 194.894712 
L 325.948565 192.679134 
L 329.497962 190.444863 
L 333.047358 188.190463 
L 336.596754 185.908454 
L 340.146151 183.594373 
L 343.695547 181.246882 
L 347.244943 178.876496 
L 350.794339 176.494114 
L 354.343736 174.081707 
L 357.893132 171.632858 
L 361.442528 169.148533 
L 364.991925 166.636677 
L 368.541321 164.090383 
L 372.090717 161.52412 
L 375.640114 158.920073 
L 379.18951 156.290144 
L 382.738906 153.612118 
L 386.288303 150.904355 
L 389.837699 148.166202 
L 393.387095 145.394678 
L 396.936491 142.609082 
L 400.485888 139.80107 
L 404.035284 136.990169 
L 407.58468 134.15006 
L 411.134077 131.288712 
L 414.683473 128.391404 
L 418.232869 125.424039 
L 421.782266 122.392417 
L 425.331662 119.326295 
L 428.881058 116.166646 
L 432.430455 130.314995 
" clip-path="url(#pf74d055955)" style="fill: none; stroke: #0000ff; stroke-width: 2; stroke-linecap: square"/>
   </g>
   <g id="patch_3">
    <path d="M 63.47 303.64 
L 63.47 41.856 
" style="fill: none; stroke: #000000; stroke-width: 0.8; stroke-linejoin: miter; stroke-linecap: square"/>
   </g>
   <g id="patch_4">
    <path d="M 450 303.64 
L 450 41.856 
" style="fill: none; stroke: #000000; stroke-width: 0.8; stroke-linejoin: miter; stroke-linecap: square"/>
   </g>
   <g id="patch_5">
    <path d="M 63.47 303.64 
L 450 303.64 
" style="fill: none; stroke: #000000; stroke-width: 0.8; stroke-linejoin: miter; stroke-linecap: square"/>
   </g>
   <g id="patch_6">
    <path d="M 63.47 41.856 
L 450 41.856 
" style="fill: none; stroke: #000000; stroke-width: 0.8; stroke-linejoin: miter; stroke-linecap: square"/>
   </g>
   <g id="text_14">
    <!-- Composition: porcine 20%, gb 10% -->
    <g transform="translate(151.14625 22.418625) scale(0.12 -0.12)">
     <defs>
      <path id="DejaVuSans-43" d="M 4122 4306 
L 4122 3641 
Q 3803 3938 3442 4084 
Q 3081 4231 2675 4231 
Q 1875 4231 1450 3742 
Q 1025 3253 1025 2328 
Q 1025 1406 1450 917 
Q 1875 428 2675 428 
Q 3081 428 3442 575 
Q 3803 722 4122 1019 
L 4122 359 
Q 3791 134 3420 21 
Q 3050 -91 2638 -91 
Q 1578 -91 968 557 
Q 359 1206 359 2328 
Q 359 3453 968 4101 
Q 1578 4750 2638 4750 
Q 3056 4750 3426 4639 
Q 3797 4528 4122 4306 
z
" transform="scale(0.015625)"/>
      <path id="DejaVuSans-6f" d="M 1959 3097 
Q 1497 3097 1228 2736 
Q 959 2375 959 1747 
Q 959 1119 1226 758 
Q 1494 397 1959 397 
Q 2419 397 2687 759 
Q 2956 1122 2956 1747 
Q 2956 2369 2687 2733 
Q 2419 3097 1959 3097 
z
M 1959 3584 
Q 2709 3584 3137 3096 
Q 3566 2609 3566 1747 
Q 3566 888 3137 398 
Q 2709 -91 1959 -91 
Q 1206 -91 779 398 
Q 353 888 353 1747 
Q 353 2609 779 3096 
Q 1206 3584 1959 3584 
z
" transform="scale(0.015625)"/>
      <path id="DejaVuSans-6d" d="M 3328 2828 
Q 3544 3216 3844 3400 
Q 4144 3584 4550 3584 
Q 5097 3584 5394 3201 
Q 5691 2819 5691 2113 
L 5691 0 
L 5113 0 
L 5113 2094 
Q 5113 2597 4934 2840 
Q 4756 3084 4391 3084 
Q 3944 3084 3684 2787 
Q 3425 2491 3425 1978 
L 3425 0 
L 2847 0 
L 2847 2094 
Q 2847 2600 2669 2842 
Q 2491 3084 2119 3084 
Q 1678 3084 1418 2786 
Q 1159 2488 1159 1978 
L 1159 0 
L 581 0 
L 581 3500 
L 1159 3500 
L 1159 2956 
Q 1356 3278 1631 3431 
Q 1906 3584 2284 3584 
Q 2666 3584 2933 3390 
Q 3200 3197 3328 2828 
z
" transform="scale(0.015625)"/>
      <path id="DejaVuSans-70" d="M 1159 525 
L 1159 -1331 
L 581 -1331 
L 581 3500 
L 1159 3500 
L 1159 2969 
Q 1341 3281 1617 3432 
Q 1894 3584 2278 3584 
Q 2916 3584 3314 3078 
Q 3713 2572 3713 1747 
Q 3713 922 3314 415 
Q 2916 -91 2278 -91 
Q 1894 -91 1617 61 
Q 1341 213 1159 525 
z
M 3116 1747 
Q 3116 2381 2855 2742 
Q 2594 3103 2138 3103 
Q 1681 3103 1420 2742 
Q 1159 2381 1159 1747 
Q 1159 1113 1420 752 
Q 1681 391 2138 391 
Q 2594 391 2855 752 
Q 3116 1113 3116 1747 
z
" transform="scale(0.015625)"/>
      <path id="DejaVuSans-3a" d="M 750 794 
L 1409 794 
L 1409 0 
L 750 0 
L 750 794 
z
M 750 3309 
L 1409 3309 
L 1409 2516 
L 750 2516 
L 750 3309 
z
" transform="scale(0.015625)"/>
      <path id="DejaVuSans-63" d="M 3122 3366 
L 3122 2828 
Q 2878 2963 2633 3030 
Q 2388 3097 2138 3097 
Q 1578 3097 1268 2742 
Q 959 2388 959 1747 
Q 959 1106 1268 751 
Q 1578 397 2138 397 
Q 2388 397 2633 464 
Q 2878 531 3122 666 
L 3122 134 
Q 2881 22 2623 -34 
Q 2366 -91 2075 -91 
Q 1284 -91 818 406 
Q 353 903 353 1747 
Q 353 2603 823 3093 
Q 1294 3584 2113 3584 
Q 2378 3584 2631 3529 
Q 2884 3475 3122 3366 
z
" transform="scale(0.015625)"/>
      <path id="DejaVuSans-25" d="M 4653 2053 
Q 4381 2053 4226 1822 
Q 4072 1591 4072 1178 
Q 4072 772 4226 539 
Q 4381 306 4653 306 
Q 4919 306 5073 539 
Q 5228 772 5228 1178 
Q 5228 1588 5073 1820 
Q 4919 2053 4653 2053 
z
M 4653 2450 
Q 5147 2450 5437 2106 
Q 5728 1763 5728 1178 
Q 5728 594 5436 251 
Q 5144 -91 4653 -91 
Q 4153 -91 3862 251 
Q 3572 594 3572 1178 
Q 3572 1766 3864 2108 
Q 4156 2450 4653 2450 
z
M 1428 4353 
Q 1159 4353 1004 4120 
Q 850 3888 850 3481 
Q 850 3069 1003 2837 
Q 1156 2606 1428 2606 
Q 1700 2606 1854 2837 
Q 2009 3069 2009 3481 
Q 2009 3884 1853 4118 
Q 1697 4353 1428 4353 
z
M 4250 4750 
L 4750 4750 
L 1831 -91 
L 1331 -91 
L 4250 4750 
z
M 1428 4750 
Q 1922 4750 2215 4408 
Q 2509 4066 2509 3481 
Q 2509 2891 2217 2550 
Q 1925 2209 1428 2209 
Q 931 2209 642 2551 
Q 353 2894 353 3481 
Q 353 4063 643 4406 
Q 934 4750 1428 4750 
z
" transform="scale(0.015625)"/>
      <path id="DejaVuSans-2c" d="M 750 794 
L 1409 794 
L 1409 256 
L 897 -744 
L 494 -744 
L 750 256 
L 750 794 
z
" transform="scale(0.015625)"/>
      <path id="DejaVuSans-67" d="M 2906 1791 
Q 2906 2416 2648 2759 
Q 2391 3103 1925 3103 
Q 1463 3103 1205 2759 
Q 947 2416 947 1791 
Q 947 1169 1205 825 
Q 1463 481 1925 481 
Q 2391 481 2648 825 
Q 2906 1169 2906 1791 
z
M 3481 434 
Q 3481 -459 3084 -895 
Q 2688 -1331 1869 -1331 
Q 1566 -1331 1297 -1286 
Q 1028 -1241 775 -1147 
L 775 -588 
Q 1028 -725 1275 -790 
Q 1522 -856 1778 -856 
Q 2344 -856 2625 -561 
Q 2906 -266 2906 331 
L 2906 616 
Q 2728 306 2450 153 
Q 2172 0 1784 0 
Q 1141 0 747 490 
Q 353 981 353 1791 
Q 353 2603 747 3093 
Q 1141 3584 1784 3584 
Q 2172 3584 2450 3431 
Q 2728 3278 2906 2969 
L 2906 3500 
L 3481 3500 
L 3481 434 
z
" transform="scale(0.015625)"/>
      <path id="DejaVuSans-62" d="M 3116 1747 
Q 3116 2381 2855 2742 
Q 2594 3103 2138 3103 
Q 1681 3103 1420 2742 
Q 1159 2381 1159 1747 
Q 1159 1113 1420 752 
Q 1681 391 2138 391 
Q 2594 391 2855 752 
Q 3116 1113 3116 1747 
z
M 1159 2969 
Q 1341 3281 1617 3432 
Q 1894 3584 2278 3584 
Q 2916 3584 3314 3078 
Q 3713 2572 3713 1747 
Q 3713 922 3314 415 
Q 2916 -91 2278 -91 
Q 1894 -91 1617 61 
Q 1341 213 1159 525 
L 1159 0 
L 581 0 
L 581 4863 
L 1159 4863 
L 1159 2969 
z
" transform="scale(0.015625)"/>
     </defs>
     <use xlink:href="#DejaVuSans-43"/>
     <use xlink:href="#DejaVuSans-6f" transform="translate(69.824219 0)"/>
     <use xlink:href="#DejaVuSans-6d" transform="translate(131.005859 0)"/>
     <use xlink:href="#DejaVuSans-70" transform="translate(228.417969 0)"/>
     <use xlink:href="#DejaVuSans-6f" transform="translate(291.894531 0)"/>
     <use xlink:href="#DejaVuSans-73" transform="translate(353.076172 0)"/>
     <use xlink:href="#DejaVuSans-69" transform="translate(405.175781 0)"/>
     <use xlink:href="#DejaVuSans-74" transform="translate(432.958984 0)"/>
     <use xlink:href="#DejaVuSans-69" transform="translate(472.167969 0)"/>
     <use xlink:href="#DejaVuSans-6f" transform="translate(499.951172 0)"/>
     <use xlink:href="#DejaVuSans-6e" transform="translate(561.132812 0)"/>
     <use xlink:href="#DejaVuSans-3a" transform="translate(624.511719 0)"/>
     <use xlink:href="#DejaVuSans-20" transform="translate(658.203125 0)"/>
     <use xlink:href="#DejaVuSans-70" transform="translate(689.990234 0)"/>
     <use xlink:href="#DejaVuSans-6f" transform="translate(753.466797 0)"/>
     <use xlink:href="#DejaVuSans-72" transform="translate(814.648438 0)"/>
     <use xlink:href="#DejaVuSans-63" transform="translate(853.511719 0)"/>
     <use xlink:href="#DejaVuSans-69" transform="translate(908.492188 0)"/>
     <use xlink:href="#DejaVuSans-6e" transform="translate(936.275391 0)"/>
     <use xlink:href="#DejaVuSans-65" transform="translate(999.654297 0)"/>
     <use xlink:href="#DejaVuSans-20" transform="translate(1061.177734 0)"/>
     <use xlink:href="#DejaVuSans-32" transform="translate(1092.964844 0)"/>
     <use xlink:href="#DejaVuSans-30" transform="translate(1156.587891 0)"/>
     <use xlink:href="#DejaVuSans-25" transform="translate(1220.210938 0)"/>
     <use xlink:href="#DejaVuSans-2c" transform="translate(1315.230469 0)"/>
     <use xlink:href="#DejaVuSans-20" transform="translate(1347.017578 0)"/>
     <use xlink:href="#DejaVuSans-67" transform="translate(1378.804688 0)"/>
     <use xlink:href="#DejaVuSans-62" transform="translate(1442.28125 0)"/>
     <use xlink:href="#DejaVuSans-20" transform="translate(1505.757812 0)"/>
     <use xlink:href="#DejaVuSans-31" transform="translate(1537.544922 0)"/>
     <use xlink:href="#DejaVuSans-30" transform="translate(1601.167969 0)"/>
     <use xlink:href="#DejaVuSans-25" transform="translate(1664.791016 0)"/>
    </g>
    <!-- All Dates Combined -->
    <g transform="translate(197.531875 35.856) scale(0.12 -0.12)">
     <defs>
      <path id="DejaVuSans-41" d="M 2188 4044 
L 1331 1722 
L 3047 1722 
L 2188 4044 
z
M 1831 4666 
L 2547 4666 
L 4325 0 
L 3669 0 
L 3244 1197 
L 1141 1197 
L 716 0 
L 50 0 
L 1831 4666 
z
" transform="scale(0.015625)"/>
      <path id="DejaVuSans-6c" d="M 603 4863 
L 1178 4863 
L 1178 0 
L 603 0 
L 603 4863 
z
" transform="scale(0.015625)"/>
      <path id="DejaVuSans-44" d="M 1259 4147 
L 1259 519 
L 2022 519 
Q 2988 519 3436 956 
Q 3884 1394 3884 2338 
Q 3884 3275 3436 3711 
Q 2988 4147 2022 4147 
L 1259 4147 
z
M 628 4666 
L 1925 4666 
Q 3281 4666 3915 4102 
Q 4550 3538 4550 2338 
Q 4550 1131 3912 565 
Q 3275 0 1925 0 
L 628 0 
L 628 4666 
z
" transform="scale(0.015625)"/>
      <path id="DejaVuSans-64" d="M 2906 2969 
L 2906 4863 
L 3481 4863 
L 3481 0 
L 2906 0 
L 2906 525 
Q 2725 213 2448 61 
Q 2172 -91 1784 -91 
Q 1150 -91 751 415 
Q 353 922 353 1747 
Q 353 2572 751 3078 
Q 1150 3584 1784 3584 
Q 2172 3584 2448 3432 
Q 2725 3281 2906 2969 
z
M 947 1747 
Q 947 1113 1208 752 
Q 1469 391 1925 391 
Q 2381 391 2643 752 
Q 2906 1113 2906 1747 
Q 2906 2381 2643 2742 
Q 2381 3103 1925 3103 
Q 1469 3103 1208 2742 
Q 947 2381 947 1747 
z
" transform="scale(0.015625)"/>
     </defs>
     <use xlink:href="#DejaVuSans-41"/>
     <use xlink:href="#DejaVuSans-6c" transform="translate(68.408203 0)"/>
     <use xlink:href="#DejaVuSans-6c" transform="translate(96.191406 0)"/>
     <use xlink:href="#DejaVuSans-20" transform="translate(123.974609 0)"/>
     <use xlink:href="#DejaVuSans-44" transform="translate(155.761719 0)"/>
     <use xlink:href="#DejaVuSans-61" transform="translate(232.763672 0)"/>
     <use xlink:href="#DejaVuSans-74" transform="translate(294.042969 0)"/>
     <use xlink:href="#DejaVuSans-65" transform="translate(333.251953 0)"/>
     <use xlink:href="#DejaVuSans-73" transform="translate(394.775391 0)"/>
     <use xlink:href="#DejaVuSans-20" transform="translate(446.875 0)"/>
     <use xlink:href="#DejaVuSans-43" transform="translate(478.662109 0)"/>
     <use xlink:href="#DejaVuSans-6f" transform="translate(548.486328 0)"/>
     <use xlink:href="#DejaVuSans-6d" transform="translate(609.667969 0)"/>
     <use xlink:href="#DejaVuSans-62" transform="translate(707.080078 0)"/>
     <use xlink:href="#DejaVuSans-69" transform="translate(770.556641 0)"/>
     <use xlink:href="#DejaVuSans-6e" transform="translate(798.339844 0)"/>
     <use xlink:href="#DejaVuSans-65" transform="translate(861.71875 0)"/>
     <use xlink:href="#DejaVuSans-64" transform="translate(923.242188 0)"/>
    </g>
   </g>
   <g id="legend_1">
    <g id="patch_7">
     <path d="M 70.47 137.92475 
L 178.493437 137.92475 
Q 180.493437 137.92475 180.493437 135.92475 
L 180.493437 48.856 
Q 180.493437 46.856 178.493437 46.856 
L 70.47 46.856 
Q 68.47 46.856 68.47 48.856 
L 68.47 135.92475 
Q 68.47 137.92475 70.47 137.92475 
z
" style="fill: #ffffff; opacity: 0.8; stroke: #cccccc; stroke-linejoin: miter"/>
    </g>
    <g id="text_15">
     <!-- Impact Velocity -->
     <g transform="translate(85.984062 58.454437) scale(0.1 -0.1)">
      <defs>
       <path id="DejaVuSans-49" d="M 628 4666 
L 1259 4666 
L 1259 0 
L 628 0 
L 628 4666 
z
" transform="scale(0.015625)"/>
       <path id="DejaVuSans-56" d="M 1831 0 
L 50 4666 
L 709 4666 
L 2188 738 
L 3669 4666 
L 4325 4666 
L 2547 0 
L 1831 0 
z
" transform="scale(0.015625)"/>
       <path id="DejaVuSans-79" d="M 2059 -325 
Q 1816 -950 1584 -1140 
Q 1353 -1331 966 -1331 
L 506 -1331 
L 506 -850 
L 844 -850 
Q 1081 -850 1212 -737 
Q 1344 -625 1503 -206 
L 1606 56 
L 191 3500 
L 800 3500 
L 1894 763 
L 2988 3500 
L 3597 3500 
L 2059 -325 
z
" transform="scale(0.015625)"/>
      </defs>
      <use xlink:href="#DejaVuSans-49"/>
      <use xlink:href="#DejaVuSans-6d" transform="translate(29.492188 0)"/>
      <use xlink:href="#DejaVuSans-70" transform="translate(126.904297 0)"/>
      <use xlink:href="#DejaVuSans-61" transform="translate(190.380859 0)"/>
      <use xlink:href="#DejaVuSans-63" transform="translate(251.660156 0)"/>
      <use xlink:href="#DejaVuSans-74" transform="translate(306.640625 0)"/>
      <use xlink:href="#DejaVuSans-20" transform="translate(345.849609 0)"/>
      <use xlink:href="#DejaVuSans-56" transform="translate(377.636719 0)"/>
      <use xlink:href="#DejaVuSans-65" transform="translate(438.294922 0)"/>
      <use xlink:href="#DejaVuSans-6c" transform="translate(499.818359 0)"/>
      <use xlink:href="#DejaVuSans-6f" transform="translate(527.601562 0)"/>
      <use xlink:href="#DejaVuSans-63" transform="translate(588.783203 0)"/>
      <use xlink:href="#DejaVuSans-69" transform="translate(643.763672 0)"/>
      <use xlink:href="#DejaVuSans-74" transform="translate(671.546875 0)"/>
      <use xlink:href="#DejaVuSans-79" transform="translate(710.755859 0)"/>
     </g>
    </g>
    <g id="line2d_28">
     <path d="M 72.47 69.632563 
L 82.47 69.632563 
L 92.47 69.632563 
" style="fill: none; stroke: #800080; stroke-width: 2; stroke-linecap: square"/>
    </g>
    <g id="text_16">
     <!-- 1 mm/s (n=34) -->
     <g transform="translate(100.47 73.132563) scale(0.1 -0.1)">
      <defs>
       <path id="DejaVuSans-2f" d="M 1625 4666 
L 2156 4666 
L 531 -594 
L 0 -594 
L 1625 4666 
z
" transform="scale(0.015625)"/>
       <path id="DejaVuSans-28" d="M 1984 4856 
Q 1566 4138 1362 3434 
Q 1159 2731 1159 2009 
Q 1159 1288 1364 580 
Q 1569 -128 1984 -844 
L 1484 -844 
Q 1016 -109 783 600 
Q 550 1309 550 2009 
Q 550 2706 781 3412 
Q 1013 4119 1484 4856 
L 1984 4856 
z
" transform="scale(0.015625)"/>
       <path id="DejaVuSans-3d" d="M 678 2906 
L 4684 2906 
L 4684 2381 
L 678 2381 
L 678 2906 
z
M 678 1631 
L 4684 1631 
L 4684 1100 
L 678 1100 
L 678 1631 
z
" transform="scale(0.015625)"/>
       <path id="DejaVuSans-33" d="M 2597 2516 
Q 3050 2419 3304 2112 
Q 3559 1806 3559 1356 
Q 3559 666 3084 287 
Q 2609 -91 1734 -91 
Q 1441 -91 1130 -33 
Q 819 25 488 141 
L 488 750 
Q 750 597 1062 519 
Q 1375 441 1716 441 
Q 2309 441 2620 675 
Q 2931 909 2931 1356 
Q 2931 1769 2642 2001 
Q 2353 2234 1838 2234 
L 1294 2234 
L 1294 2753 
L 1863 2753 
Q 2328 2753 2575 2939 
Q 2822 3125 2822 3475 
Q 2822 3834 2567 4026 
Q 2313 4219 1838 4219 
Q 1578 4219 1281 4162 
Q 984 4106 628 3988 
L 628 4550 
Q 988 4650 1302 4700 
Q 1616 4750 1894 4750 
Q 2613 4750 3031 4423 
Q 3450 4097 3450 3541 
Q 3450 3153 3228 2886 
Q 3006 2619 2597 2516 
z
" transform="scale(0.015625)"/>
       <path id="DejaVuSans-29" d="M 513 4856 
L 1013 4856 
Q 1481 4119 1714 3412 
Q 1947 2706 1947 2009 
Q 1947 1309 1714 600 
Q 1481 -109 1013 -844 
L 513 -844 
Q 928 -128 1133 580 
Q 1338 1288 1338 2009 
Q 1338 2731 1133 3434 
Q 928 4138 513 4856 
z
" transform="scale(0.015625)"/>
      </defs>
      <use xlink:href="#DejaVuSans-31"/>
      <use xlink:href="#DejaVuSans-20" transform="translate(63.623047 0)"/>
      <use xlink:href="#DejaVuSans-6d" transform="translate(95.410156 0)"/>
      <use xlink:href="#DejaVuSans-6d" transform="translate(192.822266 0)"/>
      <use xlink:href="#DejaVuSans-2f" transform="translate(290.234375 0)"/>
      <use xlink:href="#DejaVuSans-73" transform="translate(323.925781 0)"/>
      <use xlink:href="#DejaVuSans-20" transform="translate(376.025391 0)"/>
      <use xlink:href="#DejaVuSans-28" transform="translate(407.8125 0)"/>
      <use xlink:href="#DejaVuSans-6e" transform="translate(446.826172 0)"/>
      <use xlink:href="#DejaVuSans-3d" transform="translate(510.205078 0)"/>
      <use xlink:href="#DejaVuSans-33" transform="translate(593.994141 0)"/>
      <use xlink:href="#DejaVuSans-34" transform="translate(657.617188 0)"/>
      <use xlink:href="#DejaVuSans-29" transform="translate(721.240234 0)"/>
     </g>
    </g>
    <g id="line2d_29">
     <path d="M 72.47 84.310688 
L 82.47 84.310688 
L 92.47 84.310688 
" style="fill: none; stroke: #00bfbf; stroke-width: 2; stroke-linecap: square"/>
    </g>
    <g id="text_17">
     <!-- 3 mm/s (n=23) -->
     <g transform="translate(100.47 87.810688) scale(0.1 -0.1)">
      <use xlink:href="#DejaVuSans-33"/>
      <use xlink:href="#DejaVuSans-20" transform="translate(63.623047 0)"/>
      <use xlink:href="#DejaVuSans-6d" transform="translate(95.410156 0)"/>
      <use xlink:href="#DejaVuSans-6d" transform="translate(192.822266 0)"/>
      <use xlink:href="#DejaVuSans-2f" transform="translate(290.234375 0)"/>
      <use xlink:href="#DejaVuSans-73" transform="translate(323.925781 0)"/>
      <use xlink:href="#DejaVuSans-20" transform="translate(376.025391 0)"/>
      <use xlink:href="#DejaVuSans-28" transform="translate(407.8125 0)"/>
      <use xlink:href="#DejaVuSans-6e" transform="translate(446.826172 0)"/>
      <use xlink:href="#DejaVuSans-3d" transform="translate(510.205078 0)"/>
      <use xlink:href="#DejaVuSans-32" transform="translate(593.994141 0)"/>
      <use xlink:href="#DejaVuSans-33" transform="translate(657.617188 0)"/>
      <use xlink:href="#DejaVuSans-29" transform="translate(721.240234 0)"/>
     </g>
    </g>
    <g id="line2d_30">
     <path d="M 72.47 98.988812 
L 82.47 98.988812 
L 92.47 98.988812 
" style="fill: none; stroke: #bf00bf; stroke-width: 2; stroke-linecap: square"/>
    </g>
    <g id="text_18">
     <!-- 5 mm/s (n=15) -->
     <g transform="translate(100.47 102.488812) scale(0.1 -0.1)">
      <use xlink:href="#DejaVuSans-35"/>
      <use xlink:href="#DejaVuSans-20" transform="translate(63.623047 0)"/>
      <use xlink:href="#DejaVuSans-6d" transform="translate(95.410156 0)"/>
      <use xlink:href="#DejaVuSans-6d" transform="translate(192.822266 0)"/>
      <use xlink:href="#DejaVuSans-2f" transform="translate(290.234375 0)"/>
      <use xlink:href="#DejaVuSans-73" transform="translate(323.925781 0)"/>
      <use xlink:href="#DejaVuSans-20" transform="translate(376.025391 0)"/>
      <use xlink:href="#DejaVuSans-28" transform="translate(407.8125 0)"/>
      <use xlink:href="#DejaVuSans-6e" transform="translate(446.826172 0)"/>
      <use xlink:href="#DejaVuSans-3d" transform="translate(510.205078 0)"/>
      <use xlink:href="#DejaVuSans-31" transform="translate(593.994141 0)"/>
      <use xlink:href="#DejaVuSans-35" transform="translate(657.617188 0)"/>
      <use xlink:href="#DejaVuSans-29" transform="translate(721.240234 0)"/>
     </g>
    </g>
    <g id="line2d_31">
     <path d="M 72.47 113.666938 
L 82.47 113.666938 
L 92.47 113.666938 
" style="fill: none; stroke: #800080; stroke-width: 2; stroke-linecap: square"/>
    </g>
    <g id="text_19">
     <!-- 7 mm/s (n=8) -->
     <g transform="translate(100.47 117.166938) scale(0.1 -0.1)">
      <defs>
       <path id="DejaVuSans-37" d="M 525 4666 
L 3525 4666 
L 3525 4397 
L 1831 0 
L 1172 0 
L 2766 4134 
L 525 4134 
L 525 4666 
z
" transform="scale(0.015625)"/>
      </defs>
      <use xlink:href="#DejaVuSans-37"/>
      <use xlink:href="#DejaVuSans-20" transform="translate(63.623047 0)"/>
      <use xlink:href="#DejaVuSans-6d" transform="translate(95.410156 0)"/>
      <use xlink:href="#DejaVuSans-6d" transform="translate(192.822266 0)"/>
      <use xlink:href="#DejaVuSans-2f" transform="translate(290.234375 0)"/>
      <use xlink:href="#DejaVuSans-73" transform="translate(323.925781 0)"/>
      <use xlink:href="#DejaVuSans-20" transform="translate(376.025391 0)"/>
      <use xlink:href="#DejaVuSans-28" transform="translate(407.8125 0)"/>
      <use xlink:href="#DejaVuSans-6e" transform="translate(446.826172 0)"/>
      <use xlink:href="#DejaVuSans-3d" transform="translate(510.205078 0)"/>
      <use xlink:href="#DejaVuSans-38" transform="translate(593.994141 0)"/>
      <use xlink:href="#DejaVuSans-29" transform="translate(657.617188 0)"/>
     </g>
    </g>
    <g id="line2d_32">
     <path d="M 72.47 128.345063 
L 82.47 128.345063 
L 92.47 128.345063 
" style="fill: none; stroke: #0000ff; stroke-width: 2; stroke-linecap: square"/>
    </g>
    <g id="text_20">
     <!-- 10 mm/s (n=8) -->
     <g transform="translate(100.47 131.845063) scale(0.1 -0.1)">
      <use xlink:href="#DejaVuSans-31"/>
      <use xlink:href="#DejaVuSans-30" transform="translate(63.623047 0)"/>
      <use xlink:href="#DejaVuSans-20" transform="translate(127.246094 0)"/>
      <use xlink:href="#DejaVuSans-6d" transform="translate(159.033203 0)"/>
      <use xlink:href="#DejaVuSans-6d" transform="translate(256.445312 0)"/>
      <use xlink:href="#DejaVuSans-2f" transform="translate(353.857422 0)"/>
      <use xlink:href="#DejaVuSans-73" transform="translate(387.548828 0)"/>
      <use xlink:href="#DejaVuSans-20" transform="translate(439.648438 0)"/>
      <use xlink:href="#DejaVuSans-28" transform="translate(471.435547 0)"/>
      <use xlink:href="#DejaVuSans-6e" transform="translate(510.449219 0)"/>
      <use xlink:href="#DejaVuSans-3d" transform="translate(573.828125 0)"/>
      <use xlink:href="#DejaVuSans-38" transform="translate(657.617188 0)"/>
      <use xlink:href="#DejaVuSans-29" transform="translate(721.240234 0)"/>
     </g>
    </g>
   </g>
  </g>
 </g>
 <defs>
  <clipPath id="pf74d055955">
   <rect x="63.47" y="41.856" width="386.53" height="261.784"/>
  </clipPath>
 </defs>
</svg>
