<?xml version="1.0" encoding="utf-8" standalone="no"?>
<!DOCTYPE svg PUBLIC "-//W3C//DTD SVG 1.1//EN"
  "http://www.w3.org/Graphics/SVG/1.1/DTD/svg11.dtd">
<svg xmlns:xlink="http://www.w3.org/1999/xlink" width="460.8pt" height="345.6pt" viewBox="0 0 460.8 345.6" xmlns="http://www.w3.org/2000/svg" version="1.1">
 <metadata>
  <rdf:RDF xmlns:dc="http://purl.org/dc/elements/1.1/" xmlns:cc="http://creativecommons.org/ns#" xmlns:rdf="http://www.w3.org/1999/02/22-rdf-syntax-ns#">
   <cc:Work>
    <dc:type rdf:resource="http://purl.org/dc/dcmitype/StillImage"/>
    <dc:date>2025-07-28T21:14:30.840917</dc:date>
    <dc:format>image/svg+xml</dc:format>
    <dc:creator>
     <cc:Agent>
      <dc:title>Matplotlib v3.10.3, https://matplotlib.org/</dc:title>
     </cc:Agent>
    </dc:creator>
   </cc:Work>
  </rdf:RDF>
 </metadata>
 <defs>
  <style type="text/css">*{stroke-linejoin: round; stroke-linecap: butt}</style>
 </defs>
 <g id="figure_1">
  <g id="patch_1">
   <path d="M 0 345.6 
L 460.8 345.6 
L 460.8 0 
L 0 0 
z
" style="fill: #ffffff"/>
  </g>
  <g id="axes_1">
   <g id="patch_2">
    <path d="M 59.15 303.64 
L 450 303.64 
L 450 26.88 
L 59.15 26.88 
z
" style="fill: #ffffff"/>
   </g>
   <g id="matplotlib.axis_1">
    <g id="xtick_1">
     <g id="line2d_1">
      <path d="M 77.07323 303.64 
L 77.07323 26.88 
" clip-path="url(#p4daa86e823)" style="fill: none; stroke: #b0b0b0; stroke-opacity: 0.3; stroke-width: 0.8; stroke-linecap: square"/>
     </g>
     <g id="line2d_2">
      <defs>
       <path id="mdc58ffd27a" d="M 0 0 
L 0 3.5 
" style="stroke: #000000; stroke-width: 0.8"/>
      </defs>
      <g>
       <use xlink:href="#mdc58ffd27a" x="77.07323" y="303.64" style="stroke: #000000; stroke-width: 0.8"/>
      </g>
     </g>
     <g id="text_1">
      <!-- 0.000 -->
      <g transform="translate(62.759167 318.238437) scale(0.1 -0.1)">
       <defs>
        <path id="DejaVuSans-30" d="M 2034 4250 
Q 1547 4250 1301 3770 
Q 1056 3291 1056 2328 
Q 1056 1369 1301 889 
Q 1547 409 2034 409 
Q 2525 409 2770 889 
Q 3016 1369 3016 2328 
Q 3016 3291 2770 3770 
Q 2525 4250 2034 4250 
z
M 2034 4750 
Q 2819 4750 3233 4129 
Q 3647 3509 3647 2328 
Q 3647 1150 3233 529 
Q 2819 -91 2034 -91 
Q 1250 -91 836 529 
Q 422 1150 422 2328 
Q 422 3509 836 4129 
Q 1250 4750 2034 4750 
z
" transform="scale(0.015625)"/>
        <path id="DejaVuSans-2e" d="M 684 794 
L 1344 794 
L 1344 0 
L 684 0 
L 684 794 
z
" transform="scale(0.015625)"/>
       </defs>
       <use xlink:href="#DejaVuSans-30"/>
       <use xlink:href="#DejaVuSans-2e" transform="translate(63.623047 0)"/>
       <use xlink:href="#DejaVuSans-30" transform="translate(95.410156 0)"/>
       <use xlink:href="#DejaVuSans-30" transform="translate(159.033203 0)"/>
       <use xlink:href="#DejaVuSans-30" transform="translate(222.65625 0)"/>
      </g>
     </g>
    </g>
    <g id="xtick_2">
     <g id="line2d_3">
      <path d="M 126.772711 303.64 
L 126.772711 26.88 
" clip-path="url(#p4daa86e823)" style="fill: none; stroke: #b0b0b0; stroke-opacity: 0.3; stroke-width: 0.8; stroke-linecap: square"/>
     </g>
     <g id="line2d_4">
      <g>
       <use xlink:href="#mdc58ffd27a" x="126.772711" y="303.64" style="stroke: #000000; stroke-width: 0.8"/>
      </g>
     </g>
     <g id="text_2">
      <!-- 0.025 -->
      <g transform="translate(112.458648 318.238437) scale(0.1 -0.1)">
       <defs>
        <path id="DejaVuSans-32" d="M 1228 531 
L 3431 531 
L 3431 0 
L 469 0 
L 469 531 
Q 828 903 1448 1529 
Q 2069 2156 2228 2338 
Q 2531 2678 2651 2914 
Q 2772 3150 2772 3378 
Q 2772 3750 2511 3984 
Q 2250 4219 1831 4219 
Q 1534 4219 1204 4116 
Q 875 4013 500 3803 
L 500 4441 
Q 881 4594 1212 4672 
Q 1544 4750 1819 4750 
Q 2544 4750 2975 4387 
Q 3406 4025 3406 3419 
Q 3406 3131 3298 2873 
Q 3191 2616 2906 2266 
Q 2828 2175 2409 1742 
Q 1991 1309 1228 531 
z
" transform="scale(0.015625)"/>
        <path id="DejaVuSans-35" d="M 691 4666 
L 3169 4666 
L 3169 4134 
L 1269 4134 
L 1269 2991 
Q 1406 3038 1543 3061 
Q 1681 3084 1819 3084 
Q 2600 3084 3056 2656 
Q 3513 2228 3513 1497 
Q 3513 744 3044 326 
Q 2575 -91 1722 -91 
Q 1428 -91 1123 -41 
Q 819 9 494 109 
L 494 744 
Q 775 591 1075 516 
Q 1375 441 1709 441 
Q 2250 441 2565 725 
Q 2881 1009 2881 1497 
Q 2881 1984 2565 2268 
Q 2250 2553 1709 2553 
Q 1456 2553 1204 2497 
Q 953 2441 691 2322 
L 691 4666 
z
" transform="scale(0.015625)"/>
       </defs>
       <use xlink:href="#DejaVuSans-30"/>
       <use xlink:href="#DejaVuSans-2e" transform="translate(63.623047 0)"/>
       <use xlink:href="#DejaVuSans-30" transform="translate(95.410156 0)"/>
       <use xlink:href="#DejaVuSans-32" transform="translate(159.033203 0)"/>
       <use xlink:href="#DejaVuSans-35" transform="translate(222.65625 0)"/>
      </g>
     </g>
    </g>
    <g id="xtick_3">
     <g id="line2d_5">
      <path d="M 176.472191 303.64 
L 176.472191 26.88 
" clip-path="url(#p4daa86e823)" style="fill: none; stroke: #b0b0b0; stroke-opacity: 0.3; stroke-width: 0.8; stroke-linecap: square"/>
     </g>
     <g id="line2d_6">
      <g>
       <use xlink:href="#mdc58ffd27a" x="176.472191" y="303.64" style="stroke: #000000; stroke-width: 0.8"/>
      </g>
     </g>
     <g id="text_3">
      <!-- 0.050 -->
      <g transform="translate(162.158129 318.238437) scale(0.1 -0.1)">
       <use xlink:href="#DejaVuSans-30"/>
       <use xlink:href="#DejaVuSans-2e" transform="translate(63.623047 0)"/>
       <use xlink:href="#DejaVuSans-30" transform="translate(95.410156 0)"/>
       <use xlink:href="#DejaVuSans-35" transform="translate(159.033203 0)"/>
       <use xlink:href="#DejaVuSans-30" transform="translate(222.65625 0)"/>
      </g>
     </g>
    </g>
    <g id="xtick_4">
     <g id="line2d_7">
      <path d="M 226.171672 303.64 
L 226.171672 26.88 
" clip-path="url(#p4daa86e823)" style="fill: none; stroke: #b0b0b0; stroke-opacity: 0.3; stroke-width: 0.8; stroke-linecap: square"/>
     </g>
     <g id="line2d_8">
      <g>
       <use xlink:href="#mdc58ffd27a" x="226.171672" y="303.64" style="stroke: #000000; stroke-width: 0.8"/>
      </g>
     </g>
     <g id="text_4">
      <!-- 0.075 -->
      <g transform="translate(211.85761 318.238437) scale(0.1 -0.1)">
       <defs>
        <path id="DejaVuSans-37" d="M 525 4666 
L 3525 4666 
L 3525 4397 
L 1831 0 
L 1172 0 
L 2766 4134 
L 525 4134 
L 525 4666 
z
" transform="scale(0.015625)"/>
       </defs>
       <use xlink:href="#DejaVuSans-30"/>
       <use xlink:href="#DejaVuSans-2e" transform="translate(63.623047 0)"/>
       <use xlink:href="#DejaVuSans-30" transform="translate(95.410156 0)"/>
       <use xlink:href="#DejaVuSans-37" transform="translate(159.033203 0)"/>
       <use xlink:href="#DejaVuSans-35" transform="translate(222.65625 0)"/>
      </g>
     </g>
    </g>
    <g id="xtick_5">
     <g id="line2d_9">
      <path d="M 275.871153 303.64 
L 275.871153 26.88 
" clip-path="url(#p4daa86e823)" style="fill: none; stroke: #b0b0b0; stroke-opacity: 0.3; stroke-width: 0.8; stroke-linecap: square"/>
     </g>
     <g id="line2d_10">
      <g>
       <use xlink:href="#mdc58ffd27a" x="275.871153" y="303.64" style="stroke: #000000; stroke-width: 0.8"/>
      </g>
     </g>
     <g id="text_5">
      <!-- 0.100 -->
      <g transform="translate(261.557091 318.238437) scale(0.1 -0.1)">
       <defs>
        <path id="DejaVuSans-31" d="M 794 531 
L 1825 531 
L 1825 4091 
L 703 3866 
L 703 4441 
L 1819 4666 
L 2450 4666 
L 2450 531 
L 3481 531 
L 3481 0 
L 794 0 
L 794 531 
z
" transform="scale(0.015625)"/>
       </defs>
       <use xlink:href="#DejaVuSans-30"/>
       <use xlink:href="#DejaVuSans-2e" transform="translate(63.623047 0)"/>
       <use xlink:href="#DejaVuSans-31" transform="translate(95.410156 0)"/>
       <use xlink:href="#DejaVuSans-30" transform="translate(159.033203 0)"/>
       <use xlink:href="#DejaVuSans-30" transform="translate(222.65625 0)"/>
      </g>
     </g>
    </g>
    <g id="xtick_6">
     <g id="line2d_11">
      <path d="M 325.570634 303.64 
L 325.570634 26.88 
" clip-path="url(#p4daa86e823)" style="fill: none; stroke: #b0b0b0; stroke-opacity: 0.3; stroke-width: 0.8; stroke-linecap: square"/>
     </g>
     <g id="line2d_12">
      <g>
       <use xlink:href="#mdc58ffd27a" x="325.570634" y="303.64" style="stroke: #000000; stroke-width: 0.8"/>
      </g>
     </g>
     <g id="text_6">
      <!-- 0.125 -->
      <g transform="translate(311.256571 318.238437) scale(0.1 -0.1)">
       <use xlink:href="#DejaVuSans-30"/>
       <use xlink:href="#DejaVuSans-2e" transform="translate(63.623047 0)"/>
       <use xlink:href="#DejaVuSans-31" transform="translate(95.410156 0)"/>
       <use xlink:href="#DejaVuSans-32" transform="translate(159.033203 0)"/>
       <use xlink:href="#DejaVuSans-35" transform="translate(222.65625 0)"/>
      </g>
     </g>
    </g>
    <g id="xtick_7">
     <g id="line2d_13">
      <path d="M 375.270115 303.64 
L 375.270115 26.88 
" clip-path="url(#p4daa86e823)" style="fill: none; stroke: #b0b0b0; stroke-opacity: 0.3; stroke-width: 0.8; stroke-linecap: square"/>
     </g>
     <g id="line2d_14">
      <g>
       <use xlink:href="#mdc58ffd27a" x="375.270115" y="303.64" style="stroke: #000000; stroke-width: 0.8"/>
      </g>
     </g>
     <g id="text_7">
      <!-- 0.150 -->
      <g transform="translate(360.956052 318.238437) scale(0.1 -0.1)">
       <use xlink:href="#DejaVuSans-30"/>
       <use xlink:href="#DejaVuSans-2e" transform="translate(63.623047 0)"/>
       <use xlink:href="#DejaVuSans-31" transform="translate(95.410156 0)"/>
       <use xlink:href="#DejaVuSans-35" transform="translate(159.033203 0)"/>
       <use xlink:href="#DejaVuSans-30" transform="translate(222.65625 0)"/>
      </g>
     </g>
    </g>
    <g id="xtick_8">
     <g id="line2d_15">
      <path d="M 424.969596 303.64 
L 424.969596 26.88 
" clip-path="url(#p4daa86e823)" style="fill: none; stroke: #b0b0b0; stroke-opacity: 0.3; stroke-width: 0.8; stroke-linecap: square"/>
     </g>
     <g id="line2d_16">
      <g>
       <use xlink:href="#mdc58ffd27a" x="424.969596" y="303.64" style="stroke: #000000; stroke-width: 0.8"/>
      </g>
     </g>
     <g id="text_8">
      <!-- 0.175 -->
      <g transform="translate(410.655533 318.238437) scale(0.1 -0.1)">
       <use xlink:href="#DejaVuSans-30"/>
       <use xlink:href="#DejaVuSans-2e" transform="translate(63.623047 0)"/>
       <use xlink:href="#DejaVuSans-31" transform="translate(95.410156 0)"/>
       <use xlink:href="#DejaVuSans-37" transform="translate(159.033203 0)"/>
       <use xlink:href="#DejaVuSans-35" transform="translate(222.65625 0)"/>
      </g>
     </g>
    </g>
    <g id="text_9">
     <!-- Strain [-] -->
     <g transform="translate(232.46875 331.916562) scale(0.1 -0.1)">
      <defs>
       <path id="DejaVuSans-53" d="M 3425 4513 
L 3425 3897 
Q 3066 4069 2747 4153 
Q 2428 4238 2131 4238 
Q 1616 4238 1336 4038 
Q 1056 3838 1056 3469 
Q 1056 3159 1242 3001 
Q 1428 2844 1947 2747 
L 2328 2669 
Q 3034 2534 3370 2195 
Q 3706 1856 3706 1288 
Q 3706 609 3251 259 
Q 2797 -91 1919 -91 
Q 1588 -91 1214 -16 
Q 841 59 441 206 
L 441 856 
Q 825 641 1194 531 
Q 1563 422 1919 422 
Q 2459 422 2753 634 
Q 3047 847 3047 1241 
Q 3047 1584 2836 1778 
Q 2625 1972 2144 2069 
L 1759 2144 
Q 1053 2284 737 2584 
Q 422 2884 422 3419 
Q 422 4038 858 4394 
Q 1294 4750 2059 4750 
Q 2388 4750 2728 4690 
Q 3069 4631 3425 4513 
z
" transform="scale(0.015625)"/>
       <path id="DejaVuSans-74" d="M 1172 4494 
L 1172 3500 
L 2356 3500 
L 2356 3053 
L 1172 3053 
L 1172 1153 
Q 1172 725 1289 603 
Q 1406 481 1766 481 
L 2356 481 
L 2356 0 
L 1766 0 
Q 1100 0 847 248 
Q 594 497 594 1153 
L 594 3053 
L 172 3053 
L 172 3500 
L 594 3500 
L 594 4494 
L 1172 4494 
z
" transform="scale(0.015625)"/>
       <path id="DejaVuSans-72" d="M 2631 2963 
Q 2534 3019 2420 3045 
Q 2306 3072 2169 3072 
Q 1681 3072 1420 2755 
Q 1159 2438 1159 1844 
L 1159 0 
L 581 0 
L 581 3500 
L 1159 3500 
L 1159 2956 
Q 1341 3275 1631 3429 
Q 1922 3584 2338 3584 
Q 2397 3584 2469 3576 
Q 2541 3569 2628 3553 
L 2631 2963 
z
" transform="scale(0.015625)"/>
       <path id="DejaVuSans-61" d="M 2194 1759 
Q 1497 1759 1228 1600 
Q 959 1441 959 1056 
Q 959 750 1161 570 
Q 1363 391 1709 391 
Q 2188 391 2477 730 
Q 2766 1069 2766 1631 
L 2766 1759 
L 2194 1759 
z
M 3341 1997 
L 3341 0 
L 2766 0 
L 2766 531 
Q 2569 213 2275 61 
Q 1981 -91 1556 -91 
Q 1019 -91 701 211 
Q 384 513 384 1019 
Q 384 1609 779 1909 
Q 1175 2209 1959 2209 
L 2766 2209 
L 2766 2266 
Q 2766 2663 2505 2880 
Q 2244 3097 1772 3097 
Q 1472 3097 1187 3025 
Q 903 2953 641 2809 
L 641 3341 
Q 956 3463 1253 3523 
Q 1550 3584 1831 3584 
Q 2591 3584 2966 3190 
Q 3341 2797 3341 1997 
z
" transform="scale(0.015625)"/>
       <path id="DejaVuSans-69" d="M 603 3500 
L 1178 3500 
L 1178 0 
L 603 0 
L 603 3500 
z
M 603 4863 
L 1178 4863 
L 1178 4134 
L 603 4134 
L 603 4863 
z
" transform="scale(0.015625)"/>
       <path id="DejaVuSans-6e" d="M 3513 2113 
L 3513 0 
L 2938 0 
L 2938 2094 
Q 2938 2591 2744 2837 
Q 2550 3084 2163 3084 
Q 1697 3084 1428 2787 
Q 1159 2491 1159 1978 
L 1159 0 
L 581 0 
L 581 3500 
L 1159 3500 
L 1159 2956 
Q 1366 3272 1645 3428 
Q 1925 3584 2291 3584 
Q 2894 3584 3203 3211 
Q 3513 2838 3513 2113 
z
" transform="scale(0.015625)"/>
       <path id="DejaVuSans-20" transform="scale(0.015625)"/>
       <path id="DejaVuSans-5b" d="M 550 4863 
L 1875 4863 
L 1875 4416 
L 1125 4416 
L 1125 -397 
L 1875 -397 
L 1875 -844 
L 550 -844 
L 550 4863 
z
" transform="scale(0.015625)"/>
       <path id="DejaVuSans-2d" d="M 313 2009 
L 1997 2009 
L 1997 1497 
L 313 1497 
L 313 2009 
z
" transform="scale(0.015625)"/>
       <path id="DejaVuSans-5d" d="M 1947 4863 
L 1947 -844 
L 622 -844 
L 622 -397 
L 1369 -397 
L 1369 4416 
L 622 4416 
L 622 4863 
L 1947 4863 
z
" transform="scale(0.015625)"/>
      </defs>
      <use xlink:href="#DejaVuSans-53"/>
      <use xlink:href="#DejaVuSans-74" transform="translate(63.476562 0)"/>
      <use xlink:href="#DejaVuSans-72" transform="translate(102.685547 0)"/>
      <use xlink:href="#DejaVuSans-61" transform="translate(143.798828 0)"/>
      <use xlink:href="#DejaVuSans-69" transform="translate(205.078125 0)"/>
      <use xlink:href="#DejaVuSans-6e" transform="translate(232.861328 0)"/>
      <use xlink:href="#DejaVuSans-20" transform="translate(296.240234 0)"/>
      <use xlink:href="#DejaVuSans-5b" transform="translate(328.027344 0)"/>
      <use xlink:href="#DejaVuSans-2d" transform="translate(367.041016 0)"/>
      <use xlink:href="#DejaVuSans-5d" transform="translate(403.125 0)"/>
     </g>
    </g>
   </g>
   <g id="matplotlib.axis_2">
    <g id="ytick_1">
     <g id="line2d_17">
      <path d="M 59.15 293.747655 
L 450 293.747655 
" clip-path="url(#p4daa86e823)" style="fill: none; stroke: #b0b0b0; stroke-opacity: 0.3; stroke-width: 0.8; stroke-linecap: square"/>
     </g>
     <g id="line2d_18">
      <defs>
       <path id="ma522c18f70" d="M 0 0 
L -3.5 0 
" style="stroke: #000000; stroke-width: 0.8"/>
      </defs>
      <g>
       <use xlink:href="#ma522c18f70" x="59.15" y="293.747655" style="stroke: #000000; stroke-width: 0.8"/>
      </g>
     </g>
     <g id="text_10">
      <!-- −250 -->
      <g transform="translate(24.682813 297.546874) scale(0.1 -0.1)">
       <defs>
        <path id="DejaVuSans-2212" d="M 678 2272 
L 4684 2272 
L 4684 1741 
L 678 1741 
L 678 2272 
z
" transform="scale(0.015625)"/>
       </defs>
       <use xlink:href="#DejaVuSans-2212"/>
       <use xlink:href="#DejaVuSans-32" transform="translate(83.789062 0)"/>
       <use xlink:href="#DejaVuSans-35" transform="translate(147.412109 0)"/>
       <use xlink:href="#DejaVuSans-30" transform="translate(211.035156 0)"/>
      </g>
     </g>
    </g>
    <g id="ytick_2">
     <g id="line2d_19">
      <path d="M 59.15 257.354676 
L 450 257.354676 
" clip-path="url(#p4daa86e823)" style="fill: none; stroke: #b0b0b0; stroke-opacity: 0.3; stroke-width: 0.8; stroke-linecap: square"/>
     </g>
     <g id="line2d_20">
      <g>
       <use xlink:href="#ma522c18f70" x="59.15" y="257.354676" style="stroke: #000000; stroke-width: 0.8"/>
      </g>
     </g>
     <g id="text_11">
      <!-- 0 -->
      <g transform="translate(45.7875 261.153895) scale(0.1 -0.1)">
       <use xlink:href="#DejaVuSans-30"/>
      </g>
     </g>
    </g>
    <g id="ytick_3">
     <g id="line2d_21">
      <path d="M 59.15 220.961698 
L 450 220.961698 
" clip-path="url(#p4daa86e823)" style="fill: none; stroke: #b0b0b0; stroke-opacity: 0.3; stroke-width: 0.8; stroke-linecap: square"/>
     </g>
     <g id="line2d_22">
      <g>
       <use xlink:href="#ma522c18f70" x="59.15" y="220.961698" style="stroke: #000000; stroke-width: 0.8"/>
      </g>
     </g>
     <g id="text_12">
      <!-- 250 -->
      <g transform="translate(33.0625 224.760917) scale(0.1 -0.1)">
       <use xlink:href="#DejaVuSans-32"/>
       <use xlink:href="#DejaVuSans-35" transform="translate(63.623047 0)"/>
       <use xlink:href="#DejaVuSans-30" transform="translate(127.246094 0)"/>
      </g>
     </g>
    </g>
    <g id="ytick_4">
     <g id="line2d_23">
      <path d="M 59.15 184.56872 
L 450 184.56872 
" clip-path="url(#p4daa86e823)" style="fill: none; stroke: #b0b0b0; stroke-opacity: 0.3; stroke-width: 0.8; stroke-linecap: square"/>
     </g>
     <g id="line2d_24">
      <g>
       <use xlink:href="#ma522c18f70" x="59.15" y="184.56872" style="stroke: #000000; stroke-width: 0.8"/>
      </g>
     </g>
     <g id="text_13">
      <!-- 500 -->
      <g transform="translate(33.0625 188.367938) scale(0.1 -0.1)">
       <use xlink:href="#DejaVuSans-35"/>
       <use xlink:href="#DejaVuSans-30" transform="translate(63.623047 0)"/>
       <use xlink:href="#DejaVuSans-30" transform="translate(127.246094 0)"/>
      </g>
     </g>
    </g>
    <g id="ytick_5">
     <g id="line2d_25">
      <path d="M 59.15 148.175741 
L 450 148.175741 
" clip-path="url(#p4daa86e823)" style="fill: none; stroke: #b0b0b0; stroke-opacity: 0.3; stroke-width: 0.8; stroke-linecap: square"/>
     </g>
     <g id="line2d_26">
      <g>
       <use xlink:href="#ma522c18f70" x="59.15" y="148.175741" style="stroke: #000000; stroke-width: 0.8"/>
      </g>
     </g>
     <g id="text_14">
      <!-- 750 -->
      <g transform="translate(33.0625 151.97496) scale(0.1 -0.1)">
       <use xlink:href="#DejaVuSans-37"/>
       <use xlink:href="#DejaVuSans-35" transform="translate(63.623047 0)"/>
       <use xlink:href="#DejaVuSans-30" transform="translate(127.246094 0)"/>
      </g>
     </g>
    </g>
    <g id="ytick_6">
     <g id="line2d_27">
      <path d="M 59.15 111.782763 
L 450 111.782763 
" clip-path="url(#p4daa86e823)" style="fill: none; stroke: #b0b0b0; stroke-opacity: 0.3; stroke-width: 0.8; stroke-linecap: square"/>
     </g>
     <g id="line2d_28">
      <g>
       <use xlink:href="#ma522c18f70" x="59.15" y="111.782763" style="stroke: #000000; stroke-width: 0.8"/>
      </g>
     </g>
     <g id="text_15">
      <!-- 1000 -->
      <g transform="translate(26.7 115.581981) scale(0.1 -0.1)">
       <use xlink:href="#DejaVuSans-31"/>
       <use xlink:href="#DejaVuSans-30" transform="translate(63.623047 0)"/>
       <use xlink:href="#DejaVuSans-30" transform="translate(127.246094 0)"/>
       <use xlink:href="#DejaVuSans-30" transform="translate(190.869141 0)"/>
      </g>
     </g>
    </g>
    <g id="ytick_7">
     <g id="line2d_29">
      <path d="M 59.15 75.389784 
L 450 75.389784 
" clip-path="url(#p4daa86e823)" style="fill: none; stroke: #b0b0b0; stroke-opacity: 0.3; stroke-width: 0.8; stroke-linecap: square"/>
     </g>
     <g id="line2d_30">
      <g>
       <use xlink:href="#ma522c18f70" x="59.15" y="75.389784" style="stroke: #000000; stroke-width: 0.8"/>
      </g>
     </g>
     <g id="text_16">
      <!-- 1250 -->
      <g transform="translate(26.7 79.189003) scale(0.1 -0.1)">
       <use xlink:href="#DejaVuSans-31"/>
       <use xlink:href="#DejaVuSans-32" transform="translate(63.623047 0)"/>
       <use xlink:href="#DejaVuSans-35" transform="translate(127.246094 0)"/>
       <use xlink:href="#DejaVuSans-30" transform="translate(190.869141 0)"/>
      </g>
     </g>
    </g>
    <g id="ytick_8">
     <g id="line2d_31">
      <path d="M 59.15 38.996806 
L 450 38.996806 
" clip-path="url(#p4daa86e823)" style="fill: none; stroke: #b0b0b0; stroke-opacity: 0.3; stroke-width: 0.8; stroke-linecap: square"/>
     </g>
     <g id="line2d_32">
      <g>
       <use xlink:href="#ma522c18f70" x="59.15" y="38.996806" style="stroke: #000000; stroke-width: 0.8"/>
      </g>
     </g>
     <g id="text_17">
      <!-- 1500 -->
      <g transform="translate(26.7 42.796024) scale(0.1 -0.1)">
       <use xlink:href="#DejaVuSans-31"/>
       <use xlink:href="#DejaVuSans-35" transform="translate(63.623047 0)"/>
       <use xlink:href="#DejaVuSans-30" transform="translate(127.246094 0)"/>
       <use xlink:href="#DejaVuSans-30" transform="translate(190.869141 0)"/>
      </g>
     </g>
    </g>
    <g id="text_18">
     <!-- Stress [Pa] -->
     <g transform="translate(18.603125 191.967812) rotate(-90) scale(0.1 -0.1)">
      <defs>
       <path id="DejaVuSans-65" d="M 3597 1894 
L 3597 1613 
L 953 1613 
Q 991 1019 1311 708 
Q 1631 397 2203 397 
Q 2534 397 2845 478 
Q 3156 559 3463 722 
L 3463 178 
Q 3153 47 2828 -22 
Q 2503 -91 2169 -91 
Q 1331 -91 842 396 
Q 353 884 353 1716 
Q 353 2575 817 3079 
Q 1281 3584 2069 3584 
Q 2775 3584 3186 3129 
Q 3597 2675 3597 1894 
z
M 3022 2063 
Q 3016 2534 2758 2815 
Q 2500 3097 2075 3097 
Q 1594 3097 1305 2825 
Q 1016 2553 972 2059 
L 3022 2063 
z
" transform="scale(0.015625)"/>
       <path id="DejaVuSans-73" d="M 2834 3397 
L 2834 2853 
Q 2591 2978 2328 3040 
Q 2066 3103 1784 3103 
Q 1356 3103 1142 2972 
Q 928 2841 928 2578 
Q 928 2378 1081 2264 
Q 1234 2150 1697 2047 
L 1894 2003 
Q 2506 1872 2764 1633 
Q 3022 1394 3022 966 
Q 3022 478 2636 193 
Q 2250 -91 1575 -91 
Q 1294 -91 989 -36 
Q 684 19 347 128 
L 347 722 
Q 666 556 975 473 
Q 1284 391 1588 391 
Q 1994 391 2212 530 
Q 2431 669 2431 922 
Q 2431 1156 2273 1281 
Q 2116 1406 1581 1522 
L 1381 1569 
Q 847 1681 609 1914 
Q 372 2147 372 2553 
Q 372 3047 722 3315 
Q 1072 3584 1716 3584 
Q 2034 3584 2315 3537 
Q 2597 3491 2834 3397 
z
" transform="scale(0.015625)"/>
       <path id="DejaVuSans-50" d="M 1259 4147 
L 1259 2394 
L 2053 2394 
Q 2494 2394 2734 2622 
Q 2975 2850 2975 3272 
Q 2975 3691 2734 3919 
Q 2494 4147 2053 4147 
L 1259 4147 
z
M 628 4666 
L 2053 4666 
Q 2838 4666 3239 4311 
Q 3641 3956 3641 3272 
Q 3641 2581 3239 2228 
Q 2838 1875 2053 1875 
L 1259 1875 
L 1259 0 
L 628 0 
L 628 4666 
z
" transform="scale(0.015625)"/>
      </defs>
      <use xlink:href="#DejaVuSans-53"/>
      <use xlink:href="#DejaVuSans-74" transform="translate(63.476562 0)"/>
      <use xlink:href="#DejaVuSans-72" transform="translate(102.685547 0)"/>
      <use xlink:href="#DejaVuSans-65" transform="translate(141.548828 0)"/>
      <use xlink:href="#DejaVuSans-73" transform="translate(203.072266 0)"/>
      <use xlink:href="#DejaVuSans-73" transform="translate(255.171875 0)"/>
      <use xlink:href="#DejaVuSans-20" transform="translate(307.271484 0)"/>
      <use xlink:href="#DejaVuSans-5b" transform="translate(339.058594 0)"/>
      <use xlink:href="#DejaVuSans-50" transform="translate(378.072266 0)"/>
      <use xlink:href="#DejaVuSans-61" transform="translate(433.875 0)"/>
      <use xlink:href="#DejaVuSans-5d" transform="translate(495.154297 0)"/>
     </g>
    </g>
   </g>
   <g id="line2d_33">
    <path d="M 77.07323 258.035324 
L 77.071592 258.337771 
L 77.072515 258.011959 
L 77.800488 255.966696 
L 78.512935 252.185963 
L 79.234183 251.481889 
L 79.982787 251.949417 
L 80.752516 251.881684 
L 81.495703 251.249823 
L 82.32285 250.071412 
L 83.086621 249.375414 
L 83.921894 249.252902 
L 84.63908 249.476923 
L 86.192623 250.474889 
L 87.881585 251.690739 
L 88.768859 252.461615 
L 92.975556 256.926072 
L 94.634185 258.15481 
L 95.573459 258.745243 
L 96.502984 259.072988 
L 97.422759 258.996269 
L 99.239559 258.125964 
L 100.139833 257.873097 
L 101.037941 257.888814 
L 101.930632 258.11529 
L 102.816822 258.641892 
L 103.693263 259.359986 
L 104.554536 259.90807 
L 105.396309 260.079576 
L 106.219664 259.928899 
L 107.022436 259.54745 
L 108.580312 258.270225 
L 110.088353 256.797212 
L 112.305996 254.472307 
L 113.045933 253.911948 
L 114.529056 253.331642 
L 116.758617 252.894956 
L 118.23524 252.694104 
L 119.698863 252.210158 
L 127.742565 247.692884 
L 129.877873 246.485014 
L 134.872175 244.063135 
L 136.298963 243.195899 
L 139.871894 241.301849 
L 146.322235 237.562852 
L 151.376118 234.818751 
L 157.152608 231.786186 
L 160.737455 229.826465 
L 162.873846 228.726002 
L 165.522668 227.14865 
L 173.417132 222.011518 
L 176.939144 220.097829 
L 189.214727 212.867788 
L 191.828881 211.164003 
L 194.452786 209.582355 
L 205.939681 203.036654 
L 208.588502 201.456848 
L 212.98219 198.232297 
L 215.625595 196.522375 
L 220.590655 193.544434 
L 222.015277 192.760668 
L 227.003079 189.688822 
L 229.138386 188.66201 
L 230.909684 187.497716 
L 235.314637 184.443669 
L 241.485471 180.310026 
L 245.024817 178.031766 
L 247.682306 176.221193 
L 251.7655 173.71523 
L 253.538965 172.479126 
L 256.199704 170.572188 
L 260.476819 167.710861 
L 264.78102 164.933618 
L 266.941245 163.606065 
L 270.546676 161.173139 
L 275.60598 158.064468 
L 293.609301 145.541403 
L 297.203899 143.088836 
L 302.926542 139.136674 
L 310.35516 133.814187 
L 315.608386 129.807592 
L 319.107647 127.402285 
L 323.483349 124.15736 
L 325.238397 122.923098 
L 329.629266 119.954977 
L 331.382147 118.652588 
L 336.64729 114.430565 
L 340.179052 111.827014 
L 347.283745 106.686813 
L 352.235796 103.177974 
L 363.58187 94.039166 
L 376.781561 83.683885 
L 379.4358 81.511191 
L 381.568941 79.786538 
L 384.426852 77.541421 
L 390.179237 73.039602 
L 398.079118 66.693985 
L 402.524155 62.790501 
L 409.641848 56.884333 
L 413.211528 53.724107 
L 414.643734 52.694225 
L 417.663066 50.800176 
L 422.681202 48.390879 
L 425.820245 47.001337 
L 426.565057 46.755375 
L 428.08339 45.860826 
L 428.808701 45.32287 
L 429.573014 44.521305 
L 430.292637 43.59208 
L 431.022282 42.115998 
L 431.734085 39.650696 
L 431.941583 39.664927 
L 432.234091 40.801909 
L 432.06705 64.248995 
L 432.070605 64.118936 
L 432.068946 71.361461 
L 432.069792 64.039762 
L 432.06942 71.198394 
L 431.351794 71.561967 
L 429.900629 74.742677 
L 429.173151 74.450875 
L 428.451902 74.400643 
L 427.685423 74.538086 
L 426.221259 75.234161 
L 425.501364 75.342738 
L 424.763052 75.69818 
L 424.050741 75.767841 
L 423.338972 77.537298 
L 422.599306 78.676428 
L 421.872099 80.111388 
L 421.158163 80.895326 
L 420.436914 80.456491 
L 419.714955 80.420202 
L 417.514916 81.889072 
L 416.791365 81.500469 
L 416.073637 84.308324 
L 415.344399 85.518496 
L 414.602431 86.032669 
L 413.88389 86.33176 
L 412.424059 86.678321 
L 410.980207 88.286206 
L 410.240271 89.311178 
L 409.508188 90.06533 
L 408.781658 90.646863 
L 408.042534 91.027698 
L 405.832203 92.82838 
L 402.937187 95.027389 
L 402.205105 95.672906 
L 400.755125 97.218639 
L 399.328608 98.265552 
L 397.122339 99.850499 
L 394.906321 101.940183 
L 392.712241 103.413809 
L 391.258097 104.841097 
L 390.546599 105.606143 
L 389.088934 106.720033 
L 386.898375 108.258487 
L 385.43746 109.639437 
L 383.25963 111.229984 
L 381.779486 112.281577 
L 379.638761 114.360673 
L 378.179201 115.278851 
L 377.44265 115.749372 
L 374.522581 118.360134 
L 372.354772 119.723476 
L 371.617815 120.357869 
L 370.133879 121.859115 
L 367.218685 123.668542 
L 365.747546 125.1129 
L 365.010589 125.672032 
L 363.565383 126.561593 
L 362.096885 127.698268 
L 361.364938 128.496304 
L 360.625813 129.123562 
L 356.256612 132.004721 
L 354.054948 133.93713 
L 353.32422 134.198513 
L 352.589971 134.588861 
L 350.39589 136.466339 
L 349.666923 137.155356 
L 348.224425 137.73033 
L 347.499385 138.147147 
L 346.043887 139.534694 
L 345.33293 140.185735 
L 343.877974 141.069006 
L 343.155371 141.410944 
L 342.417872 142.030607 
L 340.963457 143.597831 
L 340.246542 144.071574 
L 339.516897 144.375747 
L 338.789961 144.557208 
L 337.322682 145.679843 
L 336.593172 146.540328 
L 335.870569 147.049592 
L 333.670801 148.145222 
L 332.938042 148.812681 
L 332.21422 149.960403 
L 331.477263 150.552984 
L 330.021545 151.143177 
L 329.292171 151.412999 
L 328.569703 151.884632 
L 327.841277 152.838254 
L 327.113258 153.504179 
L 324.194137 154.695286 
L 322.727941 156.304399 
L 321.993421 156.817345 
L 320.537652 157.44748 
L 319.795143 157.758616 
L 318.339239 159.27674 
L 317.605802 159.684657 
L 316.889158 159.912667 
L 315.430545 160.68926 
L 314.692369 161.332859 
L 313.967599 162.279116 
L 313.223735 162.900083 
L 311.782592 163.417891 
L 311.041572 163.747631 
L 310.310979 164.216771 
L 308.868617 165.846905 
L 307.384817 166.569832 
L 305.916589 167.182974 
L 305.191007 167.631552 
L 304.449987 168.465032 
L 303.71479 169.074338 
L 300.070358 171.180593 
L 299.349515 171.925538 
L 296.446645 173.427781 
L 295.731355 173.868458 
L 294.290584 175.45514 
L 291.340587 176.860314 
L 290.628818 177.41009 
L 289.917726 178.121432 
L 289.179956 178.595098 
L 287.741792 179.217292 
L 286.296315 180.523901 
L 285.562472 181.169572 
L 284.828494 181.605798 
L 283.353767 182.196231 
L 282.617486 182.574995 
L 281.151426 184.194235 
L 280.425302 184.482853 
L 278.987409 184.916975 
L 278.263722 185.197921 
L 277.521754 185.795489 
L 276.792702 186.991876 
L 276.066172 187.304085 
L 274.603903 187.673393 
L 273.14827 188.301932 
L 272.432438 189.593426 
L 271.701845 190.303004 
L 270.244181 190.531556 
L 268.792204 191.015541 
L 267.349977 192.981706 
L 265.916824 193.472672 
L 265.170658 193.64251 
L 264.458347 193.922421 
L 263.728837 194.506946 
L 263.015443 195.406251 
L 262.284444 195.799515 
L 260.099031 196.564331 
L 259.36903 197.128851 
L 258.625031 197.983199 
L 257.887532 198.466915 
L 256.410638 198.95251 
L 255.690743 199.215159 
L 254.972338 199.704629 
L 254.238631 200.572172 
L 253.49734 201.056656 
L 251.293238 201.882502 
L 250.559125 202.306607 
L 249.83598 203.291838 
L 249.092116 203.914953 
L 247.63391 204.40565 
L 246.16311 205.118067 
L 244.706258 206.521418 
L 242.513803 207.338327 
L 241.769143 207.798154 
L 240.319468 209.261194 
L 236.661359 210.891673 
L 235.933474 211.487936 
L 234.48556 212.331543 
L 233.026271 212.980436 
L 228.664381 215.630018 
L 225.035387 217.646588 
L 222.820164 218.956189 
L 221.362229 219.939732 
L 219.175191 221.004137 
L 217.708317 222.038238 
L 216.25282 222.864506 
L 214.796238 223.384779 
L 210.440579 226.033488 
L 208.294437 227.203421 
L 203.92857 229.744591 
L 202.493927 230.459539 
L 193.724106 235.213842 
L 189.371696 237.809568 
L 187.917587 238.548717 
L 183.548385 240.856514 
L 178.502894 243.505482 
L 177.783541 243.77377 
L 176.30448 244.834569 
L 175.560752 245.269108 
L 174.841128 245.475215 
L 172.650027 246.409772 
L 170.469353 248.03713 
L 169.003834 248.509529 
L 167.530732 249.194097 
L 166.071578 250.331155 
L 163.167895 251.184851 
L 160.981262 252.610604 
L 158.097622 253.886947 
L 156.635624 254.973371 
L 154.46619 255.901024 
L 153.002025 256.738032 
L 151.537793 257.708697 
L 150.797314 257.988147 
L 150.085004 258.093368 
L 149.353463 258.342821 
L 147.905815 259.227933 
L 147.170077 259.831562 
L 146.445036 260.233188 
L 143.53404 261.190301 
L 141.373274 262.597028 
L 139.20384 263.335549 
L 135.531782 265.477785 
L 134.795192 265.717469 
L 132.61655 266.905374 
L 131.883384 267.118059 
L 129.706502 268.201759 
L 128.984306 268.71248 
L 128.242609 269.10022 
L 126.081842 269.883602 
L 123.876115 271.007196 
L 122.396783 271.799708 
L 120.917181 272.365475 
L 120.182119 272.772702 
L 118.722559 273.330337 
L 114.412121 275.443563 
L 112.987499 275.960805 
L 110.809667 277.138333 
L 107.174579 278.768391 
L 106.441413 279.186818 
L 104.241239 280.052597 
L 102.03944 281.151066 
L 100.556587 281.838817 
L 99.812317 282.005797 
L 96.872777 283.494954 
L 93.230241 284.890922 
L 91.745221 285.60564 
L 91.012733 285.891458 
L 90.283088 286.394661 
L 89.564819 286.657808 
L 88.854403 286.675727 
L 86.662354 287.652404 
L 85.942189 288.299916 
L 85.232045 288.656038 
L 82.314007 289.264193 
L 81.591429 290.294141 
L 80.847294 290.415245 
L 77.96081 290.118037 
L 77.114365 291.043735 
L 76.916404 289.820382 
L 76.916404 289.820382 
" clip-path="url(#p4daa86e823)" style="fill: none; stroke: #ff0000; stroke-width: 2; stroke-linecap: square"/>
   </g>
   <g id="line2d_34">
    <path d="M 77.07323 258.035324 
L 77.071592 258.337771 
L 77.072515 258.011959 
L 77.800488 255.966696 
L 78.512935 252.185963 
L 79.234183 251.481889 
L 79.982787 251.949417 
L 80.752516 251.881684 
L 81.495703 251.249823 
L 82.32285 250.071412 
L 83.086621 258.196296 
L 84.63908 257.609785 
L 86.192623 257.336664 
L 87.881585 257.253193 
L 91.550934 258.171985 
L 92.975556 258.116747 
L 93.687326 257.973128 
L 94.634185 258.15481 
L 95.573459 258.745243 
L 96.502984 259.072988 
L 97.422759 258.996269 
L 99.239559 258.125964 
L 100.139833 257.873097 
L 101.037941 257.888814 
L 101.930632 258.11529 
L 102.816822 258.641892 
L 103.693263 259.359986 
L 104.554536 259.90807 
L 105.396309 260.079576 
L 106.219664 259.928899 
L 107.022436 259.54745 
L 108.580312 258.270225 
L 110.088353 256.797212 
L 112.305996 254.472307 
L 113.045933 253.911948 
L 114.529056 253.331642 
L 116.758617 252.894956 
L 118.23524 252.694104 
L 119.698863 252.210158 
L 127.742565 247.692884 
L 129.877873 246.485014 
L 134.872175 244.063135 
L 136.298963 243.195899 
L 139.871894 241.301849 
L 146.322235 237.562852 
L 151.376118 234.818751 
L 157.152608 231.786186 
L 160.737455 229.826465 
L 162.873846 228.726002 
L 165.522668 227.14865 
L 173.417132 222.011518 
L 176.939144 220.097829 
L 189.214727 212.867788 
L 191.828881 211.164003 
L 194.452786 209.582355 
L 205.939681 203.036654 
L 208.588502 201.456848 
L 212.98219 198.232297 
L 215.625595 196.522375 
L 220.590655 193.544434 
L 222.015277 192.760668 
L 227.003079 189.688822 
L 229.138386 188.66201 
L 230.909684 187.497716 
L 235.314637 184.443669 
L 241.485471 180.310026 
L 245.024817 178.031766 
L 247.682306 176.221193 
L 251.7655 173.71523 
L 253.538965 172.479126 
L 256.199704 170.572188 
L 260.476819 167.710861 
L 264.78102 164.933618 
L 266.941245 163.606065 
L 270.546676 161.173139 
L 275.60598 158.064468 
L 293.609301 145.541403 
L 297.203899 143.088836 
L 302.926542 139.136674 
L 310.35516 133.814187 
L 315.608386 129.807592 
L 319.107647 127.402285 
L 323.483349 124.15736 
L 325.238397 122.923098 
L 329.629266 119.954977 
L 331.382147 118.652588 
L 336.64729 114.430565 
L 340.179052 111.827014 
L 347.283745 106.686813 
L 352.235796 103.177974 
L 363.58187 94.039166 
L 376.781561 83.683885 
L 379.4358 81.511191 
L 381.568941 79.786538 
L 384.426852 77.541421 
L 390.179237 73.039602 
L 398.079118 66.693985 
L 402.524155 62.790501 
L 408.930079 57.466814 
L 414.643734 52.310492 
L 416.781208 50.601567 
L 421.89143 46.423581 
L 424.180576 44.484114 
L 426.565057 42.672001 
L 429.573014 40.627439 
L 430.292637 40.32317 
L 431.022282 40.224356 
L 431.734085 39.46 
L 431.941583 39.483946 
L 432.234091 40.7149 
L 432.067964 64.164661 
L 432.0703 65.867525 
L 432.06986 64.021771 
L 432.069217 65.60012 
L 432.068946 71.361461 
L 432.06942 71.198394 
L 431.351794 71.561967 
L 429.900629 74.742677 
L 429.173151 74.450875 
L 428.451902 74.400643 
L 427.685423 74.538086 
L 426.221259 75.234161 
L 425.501364 75.342738 
L 424.763052 75.69818 
L 424.050741 75.767841 
L 423.338972 77.537298 
L 422.599306 78.676428 
L 421.872099 80.111388 
L 421.158163 80.895326 
L 420.436914 80.456491 
L 419.714955 80.420202 
L 417.514916 81.889072 
L 416.791365 81.500469 
L 416.073637 84.308324 
L 415.344399 85.518496 
L 414.602431 86.032669 
L 413.88389 86.33176 
L 412.424059 86.678321 
L 410.980207 88.286206 
L 410.240271 89.311178 
L 409.508188 90.06533 
L 408.781658 90.646863 
L 408.042534 91.027698 
L 405.832203 92.82838 
L 402.937187 95.027389 
L 402.205105 95.672906 
L 400.755125 97.218639 
L 399.328608 98.265552 
L 397.122339 99.850499 
L 394.906321 101.940183 
L 392.712241 103.413809 
L 391.258097 104.841097 
L 390.546599 105.606143 
L 389.088934 106.720033 
L 386.898375 108.258487 
L 385.43746 109.639437 
L 383.25963 111.229984 
L 381.779486 112.281577 
L 379.638761 114.360673 
L 378.179201 115.278851 
L 377.44265 115.749372 
L 374.522581 118.360134 
L 372.354772 119.723476 
L 371.617815 120.357869 
L 370.133879 121.859115 
L 367.218685 123.668542 
L 365.747546 125.1129 
L 365.010589 125.672032 
L 363.565383 126.561593 
L 362.096885 127.698268 
L 361.364938 128.496304 
L 360.625813 129.123562 
L 356.256612 132.004721 
L 354.054948 133.93713 
L 353.32422 134.198513 
L 352.589971 134.588861 
L 350.39589 136.466339 
L 349.666923 137.155356 
L 348.224425 137.73033 
L 347.499385 138.147147 
L 346.043887 139.534694 
L 345.33293 140.185735 
L 343.877974 141.069006 
L 343.155371 141.410944 
L 342.417872 142.030607 
L 340.963457 143.597831 
L 340.246542 144.071574 
L 339.516897 144.375747 
L 338.789961 144.557208 
L 337.322682 145.679843 
L 336.593172 146.540328 
L 335.870569 147.049592 
L 333.670801 148.145222 
L 332.938042 148.812681 
L 332.21422 149.960403 
L 331.477263 150.552984 
L 330.021545 151.143177 
L 329.292171 151.412999 
L 328.569703 151.884632 
L 327.841277 152.838254 
L 327.113258 153.504179 
L 324.194137 154.695286 
L 322.727941 156.304399 
L 321.993421 156.817345 
L 320.537652 157.44748 
L 319.795143 157.758616 
L 318.339239 159.27674 
L 317.605802 159.684657 
L 316.889158 159.912667 
L 315.430545 160.68926 
L 314.692369 161.332859 
L 313.967599 162.279116 
L 313.223735 162.900083 
L 311.782592 163.417891 
L 311.041572 163.747631 
L 310.310979 164.216771 
L 308.868617 165.846905 
L 307.384817 166.569832 
L 305.916589 167.182974 
L 305.191007 167.631552 
L 304.449987 168.465032 
L 303.71479 169.074338 
L 300.070358 171.180593 
L 299.349515 171.925538 
L 296.446645 173.427781 
L 295.731355 173.868458 
L 294.290584 175.45514 
L 291.340587 176.860314 
L 290.628818 177.41009 
L 289.917726 178.121432 
L 289.179956 178.595098 
L 287.741792 179.217292 
L 286.296315 180.523901 
L 285.562472 181.169572 
L 284.828494 181.605798 
L 283.353767 182.196231 
L 282.617486 182.574995 
L 281.151426 184.194235 
L 280.425302 184.482853 
L 278.987409 184.916975 
L 278.263722 185.197921 
L 277.521754 185.795489 
L 276.792702 186.991876 
L 276.066172 187.304085 
L 274.603903 187.673393 
L 273.14827 188.301932 
L 272.432438 189.593426 
L 271.701845 190.303004 
L 270.244181 190.531556 
L 268.792204 191.015541 
L 267.349977 192.981706 
L 265.916824 193.472672 
L 265.170658 193.64251 
L 264.458347 193.922421 
L 263.728837 194.506946 
L 263.015443 195.406251 
L 262.284444 195.799515 
L 260.099031 196.564331 
L 259.36903 197.128851 
L 258.625031 197.983199 
L 257.887532 198.466915 
L 256.410638 198.95251 
L 255.690743 199.215159 
L 254.972338 199.704629 
L 254.238631 200.572172 
L 253.49734 201.056656 
L 251.293238 201.882502 
L 250.559125 202.306607 
L 249.83598 203.291838 
L 249.092116 203.914953 
L 247.63391 204.40565 
L 246.16311 205.118067 
L 244.706258 206.521418 
L 242.513803 207.338327 
L 241.769143 207.798154 
L 240.319468 209.261194 
L 236.661359 210.891673 
L 235.933474 211.487936 
L 234.48556 212.331543 
L 233.026271 212.980436 
L 228.664381 215.630018 
L 225.035387 217.646588 
L 222.820164 218.956189 
L 221.362229 219.939732 
L 219.175191 221.004137 
L 217.708317 222.038238 
L 216.25282 222.864506 
L 214.796238 223.384779 
L 210.440579 226.033488 
L 208.294437 227.203421 
L 203.92857 229.744591 
L 202.493927 230.459539 
L 193.724106 235.213842 
L 189.371696 237.809568 
L 187.917587 238.548717 
L 183.548385 240.856514 
L 178.502894 243.505482 
L 177.783541 243.77377 
L 176.30448 244.834569 
L 175.560752 245.269108 
L 174.841128 245.475215 
L 172.650027 246.409772 
L 170.469353 248.03713 
L 169.003834 248.509529 
L 167.530732 249.194097 
L 166.071578 250.331155 
L 163.167895 251.184851 
L 160.981262 252.610604 
L 158.097622 253.886947 
L 156.635624 254.973371 
L 154.46619 255.901024 
L 153.002025 256.738032 
L 151.537793 257.708697 
L 150.797314 257.988147 
L 150.085004 258.093368 
L 149.353463 258.342821 
L 147.905815 259.227933 
L 147.170077 259.831562 
L 146.445036 260.233188 
L 143.53404 261.190301 
L 141.373274 262.597028 
L 139.20384 263.335549 
L 135.531782 265.477785 
L 134.795192 265.717469 
L 132.61655 266.905374 
L 131.883384 267.118059 
L 129.706502 268.201759 
L 128.984306 268.71248 
L 128.242609 269.10022 
L 126.081842 269.883602 
L 123.876115 271.007196 
L 122.396783 271.799708 
L 120.917181 272.365475 
L 120.182119 272.772702 
L 118.722559 273.330337 
L 114.412121 275.443563 
L 112.987499 275.960805 
L 110.809667 277.138333 
L 107.174579 278.768391 
L 106.441413 279.186818 
L 104.241239 280.052597 
L 102.03944 281.151066 
L 100.556587 281.838817 
L 99.812317 282.005797 
L 96.872777 283.494954 
L 93.230241 284.890922 
L 91.745221 285.60564 
L 91.012733 285.891458 
L 90.283088 286.394661 
L 89.564819 286.657808 
L 88.854403 286.675727 
L 86.662354 287.652404 
L 85.942189 288.299916 
L 85.232045 288.656038 
L 82.314007 289.264193 
L 81.591429 290.294141 
L 80.847294 290.415245 
L 77.96081 290.118037 
L 77.114365 291.043735 
L 76.916404 289.820382 
L 76.916404 289.820382 
" clip-path="url(#p4daa86e823)" style="fill: none; stroke: #000000; stroke-width: 2; stroke-linecap: square"/>
   </g>
   <g id="patch_3">
    <path d="M 59.15 303.64 
L 59.15 26.88 
" style="fill: none; stroke: #000000; stroke-width: 0.8; stroke-linejoin: miter; stroke-linecap: square"/>
   </g>
   <g id="patch_4">
    <path d="M 450 303.64 
L 450 26.88 
" style="fill: none; stroke: #000000; stroke-width: 0.8; stroke-linejoin: miter; stroke-linecap: square"/>
   </g>
   <g id="patch_5">
    <path d="M 59.15 303.64 
L 450 303.64 
" style="fill: none; stroke: #000000; stroke-width: 0.8; stroke-linejoin: miter; stroke-linecap: square"/>
   </g>
   <g id="patch_6">
    <path d="M 59.15 26.88 
L 450 26.88 
" style="fill: none; stroke: #000000; stroke-width: 0.8; stroke-linejoin: miter; stroke-linecap: square"/>
   </g>
   <g id="text_19">
    <!-- 2025-06-19 Trial 15 - Stress vs Strain -->
    <g transform="translate(143.320938 20.88) scale(0.12 -0.12)">
     <defs>
      <path id="DejaVuSans-36" d="M 2113 2584 
Q 1688 2584 1439 2293 
Q 1191 2003 1191 1497 
Q 1191 994 1439 701 
Q 1688 409 2113 409 
Q 2538 409 2786 701 
Q 3034 994 3034 1497 
Q 3034 2003 2786 2293 
Q 2538 2584 2113 2584 
z
M 3366 4563 
L 3366 3988 
Q 3128 4100 2886 4159 
Q 2644 4219 2406 4219 
Q 1781 4219 1451 3797 
Q 1122 3375 1075 2522 
Q 1259 2794 1537 2939 
Q 1816 3084 2150 3084 
Q 2853 3084 3261 2657 
Q 3669 2231 3669 1497 
Q 3669 778 3244 343 
Q 2819 -91 2113 -91 
Q 1303 -91 875 529 
Q 447 1150 447 2328 
Q 447 3434 972 4092 
Q 1497 4750 2381 4750 
Q 2619 4750 2861 4703 
Q 3103 4656 3366 4563 
z
" transform="scale(0.015625)"/>
      <path id="DejaVuSans-39" d="M 703 97 
L 703 672 
Q 941 559 1184 500 
Q 1428 441 1663 441 
Q 2288 441 2617 861 
Q 2947 1281 2994 2138 
Q 2813 1869 2534 1725 
Q 2256 1581 1919 1581 
Q 1219 1581 811 2004 
Q 403 2428 403 3163 
Q 403 3881 828 4315 
Q 1253 4750 1959 4750 
Q 2769 4750 3195 4129 
Q 3622 3509 3622 2328 
Q 3622 1225 3098 567 
Q 2575 -91 1691 -91 
Q 1453 -91 1209 -44 
Q 966 3 703 97 
z
M 1959 2075 
Q 2384 2075 2632 2365 
Q 2881 2656 2881 3163 
Q 2881 3666 2632 3958 
Q 2384 4250 1959 4250 
Q 1534 4250 1286 3958 
Q 1038 3666 1038 3163 
Q 1038 2656 1286 2365 
Q 1534 2075 1959 2075 
z
" transform="scale(0.015625)"/>
      <path id="DejaVuSans-54" d="M -19 4666 
L 3928 4666 
L 3928 4134 
L 2272 4134 
L 2272 0 
L 1638 0 
L 1638 4134 
L -19 4134 
L -19 4666 
z
" transform="scale(0.015625)"/>
      <path id="DejaVuSans-6c" d="M 603 4863 
L 1178 4863 
L 1178 0 
L 603 0 
L 603 4863 
z
" transform="scale(0.015625)"/>
      <path id="DejaVuSans-76" d="M 191 3500 
L 800 3500 
L 1894 563 
L 2988 3500 
L 3597 3500 
L 2284 0 
L 1503 0 
L 191 3500 
z
" transform="scale(0.015625)"/>
     </defs>
     <use xlink:href="#DejaVuSans-32"/>
     <use xlink:href="#DejaVuSans-30" transform="translate(63.623047 0)"/>
     <use xlink:href="#DejaVuSans-32" transform="translate(127.246094 0)"/>
     <use xlink:href="#DejaVuSans-35" transform="translate(190.869141 0)"/>
     <use xlink:href="#DejaVuSans-2d" transform="translate(254.492188 0)"/>
     <use xlink:href="#DejaVuSans-30" transform="translate(290.576172 0)"/>
     <use xlink:href="#DejaVuSans-36" transform="translate(354.199219 0)"/>
     <use xlink:href="#DejaVuSans-2d" transform="translate(417.822266 0)"/>
     <use xlink:href="#DejaVuSans-31" transform="translate(453.90625 0)"/>
     <use xlink:href="#DejaVuSans-39" transform="translate(517.529297 0)"/>
     <use xlink:href="#DejaVuSans-20" transform="translate(581.152344 0)"/>
     <use xlink:href="#DejaVuSans-54" transform="translate(612.939453 0)"/>
     <use xlink:href="#DejaVuSans-72" transform="translate(659.273438 0)"/>
     <use xlink:href="#DejaVuSans-69" transform="translate(700.386719 0)"/>
     <use xlink:href="#DejaVuSans-61" transform="translate(728.169922 0)"/>
     <use xlink:href="#DejaVuSans-6c" transform="translate(789.449219 0)"/>
     <use xlink:href="#DejaVuSans-20" transform="translate(817.232422 0)"/>
     <use xlink:href="#DejaVuSans-31" transform="translate(849.019531 0)"/>
     <use xlink:href="#DejaVuSans-35" transform="translate(912.642578 0)"/>
     <use xlink:href="#DejaVuSans-20" transform="translate(976.265625 0)"/>
     <use xlink:href="#DejaVuSans-2d" transform="translate(1008.052734 0)"/>
     <use xlink:href="#DejaVuSans-20" transform="translate(1044.136719 0)"/>
     <use xlink:href="#DejaVuSans-53" transform="translate(1075.923828 0)"/>
     <use xlink:href="#DejaVuSans-74" transform="translate(1139.400391 0)"/>
     <use xlink:href="#DejaVuSans-72" transform="translate(1178.609375 0)"/>
     <use xlink:href="#DejaVuSans-65" transform="translate(1217.472656 0)"/>
     <use xlink:href="#DejaVuSans-73" transform="translate(1278.996094 0)"/>
     <use xlink:href="#DejaVuSans-73" transform="translate(1331.095703 0)"/>
     <use xlink:href="#DejaVuSans-20" transform="translate(1383.195312 0)"/>
     <use xlink:href="#DejaVuSans-76" transform="translate(1414.982422 0)"/>
     <use xlink:href="#DejaVuSans-73" transform="translate(1474.162109 0)"/>
     <use xlink:href="#DejaVuSans-20" transform="translate(1526.261719 0)"/>
     <use xlink:href="#DejaVuSans-53" transform="translate(1558.048828 0)"/>
     <use xlink:href="#DejaVuSans-74" transform="translate(1621.525391 0)"/>
     <use xlink:href="#DejaVuSans-72" transform="translate(1660.734375 0)"/>
     <use xlink:href="#DejaVuSans-61" transform="translate(1701.847656 0)"/>
     <use xlink:href="#DejaVuSans-69" transform="translate(1763.126953 0)"/>
     <use xlink:href="#DejaVuSans-6e" transform="translate(1790.910156 0)"/>
    </g>
   </g>
   <g id="legend_1">
    <g id="patch_7">
     <path d="M 66.15 64.23625 
L 172.134375 64.23625 
Q 174.134375 64.23625 174.134375 62.23625 
L 174.134375 33.88 
Q 174.134375 31.88 172.134375 31.88 
L 66.15 31.88 
Q 64.15 31.88 64.15 33.88 
L 64.15 62.23625 
Q 64.15 64.23625 66.15 64.23625 
z
" style="fill: #ffffff; opacity: 0.8; stroke: #cccccc; stroke-linejoin: miter"/>
    </g>
    <g id="line2d_35">
     <path d="M 68.15 39.978437 
L 78.15 39.978437 
L 88.15 39.978437 
" style="fill: none; stroke: #ff0000; stroke-width: 2; stroke-linecap: square"/>
    </g>
    <g id="text_20">
     <!-- Raw Force -->
     <g transform="translate(96.15 43.478437) scale(0.1 -0.1)">
      <defs>
       <path id="DejaVuSans-52" d="M 2841 2188 
Q 3044 2119 3236 1894 
Q 3428 1669 3622 1275 
L 4263 0 
L 3584 0 
L 2988 1197 
Q 2756 1666 2539 1819 
Q 2322 1972 1947 1972 
L 1259 1972 
L 1259 0 
L 628 0 
L 628 4666 
L 2053 4666 
Q 2853 4666 3247 4331 
Q 3641 3997 3641 3322 
Q 3641 2881 3436 2590 
Q 3231 2300 2841 2188 
z
M 1259 4147 
L 1259 2491 
L 2053 2491 
Q 2509 2491 2742 2702 
Q 2975 2913 2975 3322 
Q 2975 3731 2742 3939 
Q 2509 4147 2053 4147 
L 1259 4147 
z
" transform="scale(0.015625)"/>
       <path id="DejaVuSans-77" d="M 269 3500 
L 844 3500 
L 1563 769 
L 2278 3500 
L 2956 3500 
L 3675 769 
L 4391 3500 
L 4966 3500 
L 4050 0 
L 3372 0 
L 2619 2869 
L 1863 0 
L 1184 0 
L 269 3500 
z
" transform="scale(0.015625)"/>
       <path id="DejaVuSans-46" d="M 628 4666 
L 3309 4666 
L 3309 4134 
L 1259 4134 
L 1259 2759 
L 3109 2759 
L 3109 2228 
L 1259 2228 
L 1259 0 
L 628 0 
L 628 4666 
z
" transform="scale(0.015625)"/>
       <path id="DejaVuSans-6f" d="M 1959 3097 
Q 1497 3097 1228 2736 
Q 959 2375 959 1747 
Q 959 1119 1226 758 
Q 1494 397 1959 397 
Q 2419 397 2687 759 
Q 2956 1122 2956 1747 
Q 2956 2369 2687 2733 
Q 2419 3097 1959 3097 
z
M 1959 3584 
Q 2709 3584 3137 3096 
Q 3566 2609 3566 1747 
Q 3566 888 3137 398 
Q 2709 -91 1959 -91 
Q 1206 -91 779 398 
Q 353 888 353 1747 
Q 353 2609 779 3096 
Q 1206 3584 1959 3584 
z
" transform="scale(0.015625)"/>
       <path id="DejaVuSans-63" d="M 3122 3366 
L 3122 2828 
Q 2878 2963 2633 3030 
Q 2388 3097 2138 3097 
Q 1578 3097 1268 2742 
Q 959 2388 959 1747 
Q 959 1106 1268 751 
Q 1578 397 2138 397 
Q 2388 397 2633 464 
Q 2878 531 3122 666 
L 3122 134 
Q 2881 22 2623 -34 
Q 2366 -91 2075 -91 
Q 1284 -91 818 406 
Q 353 903 353 1747 
Q 353 2603 823 3093 
Q 1294 3584 2113 3584 
Q 2378 3584 2631 3529 
Q 2884 3475 3122 3366 
z
" transform="scale(0.015625)"/>
      </defs>
      <use xlink:href="#DejaVuSans-52"/>
      <use xlink:href="#DejaVuSans-61" transform="translate(67.232422 0)"/>
      <use xlink:href="#DejaVuSans-77" transform="translate(128.511719 0)"/>
      <use xlink:href="#DejaVuSans-20" transform="translate(210.298828 0)"/>
      <use xlink:href="#DejaVuSans-46" transform="translate(242.085938 0)"/>
      <use xlink:href="#DejaVuSans-6f" transform="translate(295.980469 0)"/>
      <use xlink:href="#DejaVuSans-72" transform="translate(357.162109 0)"/>
      <use xlink:href="#DejaVuSans-63" transform="translate(396.025391 0)"/>
      <use xlink:href="#DejaVuSans-65" transform="translate(451.005859 0)"/>
     </g>
    </g>
    <g id="line2d_36">
     <path d="M 68.15 54.656563 
L 78.15 54.656563 
L 88.15 54.656563 
" style="fill: none; stroke: #000000; stroke-width: 2; stroke-linecap: square"/>
    </g>
    <g id="text_21">
     <!-- Adjusted Force -->
     <g transform="translate(96.15 58.156563) scale(0.1 -0.1)">
      <defs>
       <path id="DejaVuSans-41" d="M 2188 4044 
L 1331 1722 
L 3047 1722 
L 2188 4044 
z
M 1831 4666 
L 2547 4666 
L 4325 0 
L 3669 0 
L 3244 1197 
L 1141 1197 
L 716 0 
L 50 0 
L 1831 4666 
z
" transform="scale(0.015625)"/>
       <path id="DejaVuSans-64" d="M 2906 2969 
L 2906 4863 
L 3481 4863 
L 3481 0 
L 2906 0 
L 2906 525 
Q 2725 213 2448 61 
Q 2172 -91 1784 -91 
Q 1150 -91 751 415 
Q 353 922 353 1747 
Q 353 2572 751 3078 
Q 1150 3584 1784 3584 
Q 2172 3584 2448 3432 
Q 2725 3281 2906 2969 
z
M 947 1747 
Q 947 1113 1208 752 
Q 1469 391 1925 391 
Q 2381 391 2643 752 
Q 2906 1113 2906 1747 
Q 2906 2381 2643 2742 
Q 2381 3103 1925 3103 
Q 1469 3103 1208 2742 
Q 947 2381 947 1747 
z
" transform="scale(0.015625)"/>
       <path id="DejaVuSans-6a" d="M 603 3500 
L 1178 3500 
L 1178 -63 
Q 1178 -731 923 -1031 
Q 669 -1331 103 -1331 
L -116 -1331 
L -116 -844 
L 38 -844 
Q 366 -844 484 -692 
Q 603 -541 603 -63 
L 603 3500 
z
M 603 4863 
L 1178 4863 
L 1178 4134 
L 603 4134 
L 603 4863 
z
" transform="scale(0.015625)"/>
       <path id="DejaVuSans-75" d="M 544 1381 
L 544 3500 
L 1119 3500 
L 1119 1403 
Q 1119 906 1312 657 
Q 1506 409 1894 409 
Q 2359 409 2629 706 
Q 2900 1003 2900 1516 
L 2900 3500 
L 3475 3500 
L 3475 0 
L 2900 0 
L 2900 538 
Q 2691 219 2414 64 
Q 2138 -91 1772 -91 
Q 1169 -91 856 284 
Q 544 659 544 1381 
z
M 1991 3584 
L 1991 3584 
z
" transform="scale(0.015625)"/>
      </defs>
      <use xlink:href="#DejaVuSans-41"/>
      <use xlink:href="#DejaVuSans-64" transform="translate(66.658203 0)"/>
      <use xlink:href="#DejaVuSans-6a" transform="translate(130.134766 0)"/>
      <use xlink:href="#DejaVuSans-75" transform="translate(157.917969 0)"/>
      <use xlink:href="#DejaVuSans-73" transform="translate(221.296875 0)"/>
      <use xlink:href="#DejaVuSans-74" transform="translate(273.396484 0)"/>
      <use xlink:href="#DejaVuSans-65" transform="translate(312.605469 0)"/>
      <use xlink:href="#DejaVuSans-64" transform="translate(374.128906 0)"/>
      <use xlink:href="#DejaVuSans-20" transform="translate(437.605469 0)"/>
      <use xlink:href="#DejaVuSans-46" transform="translate(469.392578 0)"/>
      <use xlink:href="#DejaVuSans-6f" transform="translate(523.287109 0)"/>
      <use xlink:href="#DejaVuSans-72" transform="translate(584.46875 0)"/>
      <use xlink:href="#DejaVuSans-63" transform="translate(623.332031 0)"/>
      <use xlink:href="#DejaVuSans-65" transform="translate(678.3125 0)"/>
     </g>
    </g>
   </g>
  </g>
 </g>
 <defs>
  <clipPath id="p4daa86e823">
   <rect x="59.15" y="26.88" width="390.85" height="276.76"/>
  </clipPath>
 </defs>
</svg>
