<?xml version="1.0" encoding="utf-8" standalone="no"?>
<!DOCTYPE svg PUBLIC "-//W3C//DTD SVG 1.1//EN"
  "http://www.w3.org/Graphics/SVG/1.1/DTD/svg11.dtd">
<svg xmlns:xlink="http://www.w3.org/1999/xlink" width="460.8pt" height="345.6pt" viewBox="0 0 460.8 345.6" xmlns="http://www.w3.org/2000/svg" version="1.1">
 <metadata>
  <rdf:RDF xmlns:dc="http://purl.org/dc/elements/1.1/" xmlns:cc="http://creativecommons.org/ns#" xmlns:rdf="http://www.w3.org/1999/02/22-rdf-syntax-ns#">
   <cc:Work>
    <dc:type rdf:resource="http://purl.org/dc/dcmitype/StillImage"/>
    <dc:date>2025-07-28T21:14:35.492382</dc:date>
    <dc:format>image/svg+xml</dc:format>
    <dc:creator>
     <cc:Agent>
      <dc:title>Matplotlib v3.10.3, https://matplotlib.org/</dc:title>
     </cc:Agent>
    </dc:creator>
   </cc:Work>
  </rdf:RDF>
 </metadata>
 <defs>
  <style type="text/css">*{stroke-linejoin: round; stroke-linecap: butt}</style>
 </defs>
 <g id="figure_1">
  <g id="patch_1">
   <path d="M 0 345.6 
L 460.8 345.6 
L 460.8 0 
L 0 0 
z
" style="fill: #ffffff"/>
  </g>
  <g id="axes_1">
   <g id="patch_2">
    <path d="M 59.15 303.64 
L 450 303.64 
L 450 26.88 
L 59.15 26.88 
z
" style="fill: #ffffff"/>
   </g>
   <g id="matplotlib.axis_1">
    <g id="xtick_1">
     <g id="line2d_1">
      <path d="M 77.071562 303.64 
L 77.071562 26.88 
" clip-path="url(#p966ecd4ee4)" style="fill: none; stroke: #b0b0b0; stroke-opacity: 0.3; stroke-width: 0.8; stroke-linecap: square"/>
     </g>
     <g id="line2d_2">
      <defs>
       <path id="md07dc2abe9" d="M 0 0 
L 0 3.5 
" style="stroke: #000000; stroke-width: 0.8"/>
      </defs>
      <g>
       <use xlink:href="#md07dc2abe9" x="77.071562" y="303.64" style="stroke: #000000; stroke-width: 0.8"/>
      </g>
     </g>
     <g id="text_1">
      <!-- 0.000 -->
      <g transform="translate(62.757499 318.238437) scale(0.1 -0.1)">
       <defs>
        <path id="DejaVuSans-30" d="M 2034 4250 
Q 1547 4250 1301 3770 
Q 1056 3291 1056 2328 
Q 1056 1369 1301 889 
Q 1547 409 2034 409 
Q 2525 409 2770 889 
Q 3016 1369 3016 2328 
Q 3016 3291 2770 3770 
Q 2525 4250 2034 4250 
z
M 2034 4750 
Q 2819 4750 3233 4129 
Q 3647 3509 3647 2328 
Q 3647 1150 3233 529 
Q 2819 -91 2034 -91 
Q 1250 -91 836 529 
Q 422 1150 422 2328 
Q 422 3509 836 4129 
Q 1250 4750 2034 4750 
z
" transform="scale(0.015625)"/>
        <path id="DejaVuSans-2e" d="M 684 794 
L 1344 794 
L 1344 0 
L 684 0 
L 684 794 
z
" transform="scale(0.015625)"/>
       </defs>
       <use xlink:href="#DejaVuSans-30"/>
       <use xlink:href="#DejaVuSans-2e" transform="translate(63.623047 0)"/>
       <use xlink:href="#DejaVuSans-30" transform="translate(95.410156 0)"/>
       <use xlink:href="#DejaVuSans-30" transform="translate(159.033203 0)"/>
       <use xlink:href="#DejaVuSans-30" transform="translate(222.65625 0)"/>
      </g>
     </g>
    </g>
    <g id="xtick_2">
     <g id="line2d_3">
      <path d="M 126.770508 303.64 
L 126.770508 26.88 
" clip-path="url(#p966ecd4ee4)" style="fill: none; stroke: #b0b0b0; stroke-opacity: 0.3; stroke-width: 0.8; stroke-linecap: square"/>
     </g>
     <g id="line2d_4">
      <g>
       <use xlink:href="#md07dc2abe9" x="126.770508" y="303.64" style="stroke: #000000; stroke-width: 0.8"/>
      </g>
     </g>
     <g id="text_2">
      <!-- 0.025 -->
      <g transform="translate(112.456446 318.238437) scale(0.1 -0.1)">
       <defs>
        <path id="DejaVuSans-32" d="M 1228 531 
L 3431 531 
L 3431 0 
L 469 0 
L 469 531 
Q 828 903 1448 1529 
Q 2069 2156 2228 2338 
Q 2531 2678 2651 2914 
Q 2772 3150 2772 3378 
Q 2772 3750 2511 3984 
Q 2250 4219 1831 4219 
Q 1534 4219 1204 4116 
Q 875 4013 500 3803 
L 500 4441 
Q 881 4594 1212 4672 
Q 1544 4750 1819 4750 
Q 2544 4750 2975 4387 
Q 3406 4025 3406 3419 
Q 3406 3131 3298 2873 
Q 3191 2616 2906 2266 
Q 2828 2175 2409 1742 
Q 1991 1309 1228 531 
z
" transform="scale(0.015625)"/>
        <path id="DejaVuSans-35" d="M 691 4666 
L 3169 4666 
L 3169 4134 
L 1269 4134 
L 1269 2991 
Q 1406 3038 1543 3061 
Q 1681 3084 1819 3084 
Q 2600 3084 3056 2656 
Q 3513 2228 3513 1497 
Q 3513 744 3044 326 
Q 2575 -91 1722 -91 
Q 1428 -91 1123 -41 
Q 819 9 494 109 
L 494 744 
Q 775 591 1075 516 
Q 1375 441 1709 441 
Q 2250 441 2565 725 
Q 2881 1009 2881 1497 
Q 2881 1984 2565 2268 
Q 2250 2553 1709 2553 
Q 1456 2553 1204 2497 
Q 953 2441 691 2322 
L 691 4666 
z
" transform="scale(0.015625)"/>
       </defs>
       <use xlink:href="#DejaVuSans-30"/>
       <use xlink:href="#DejaVuSans-2e" transform="translate(63.623047 0)"/>
       <use xlink:href="#DejaVuSans-30" transform="translate(95.410156 0)"/>
       <use xlink:href="#DejaVuSans-32" transform="translate(159.033203 0)"/>
       <use xlink:href="#DejaVuSans-35" transform="translate(222.65625 0)"/>
      </g>
     </g>
    </g>
    <g id="xtick_3">
     <g id="line2d_5">
      <path d="M 176.469455 303.64 
L 176.469455 26.88 
" clip-path="url(#p966ecd4ee4)" style="fill: none; stroke: #b0b0b0; stroke-opacity: 0.3; stroke-width: 0.8; stroke-linecap: square"/>
     </g>
     <g id="line2d_6">
      <g>
       <use xlink:href="#md07dc2abe9" x="176.469455" y="303.64" style="stroke: #000000; stroke-width: 0.8"/>
      </g>
     </g>
     <g id="text_3">
      <!-- 0.050 -->
      <g transform="translate(162.155393 318.238437) scale(0.1 -0.1)">
       <use xlink:href="#DejaVuSans-30"/>
       <use xlink:href="#DejaVuSans-2e" transform="translate(63.623047 0)"/>
       <use xlink:href="#DejaVuSans-30" transform="translate(95.410156 0)"/>
       <use xlink:href="#DejaVuSans-35" transform="translate(159.033203 0)"/>
       <use xlink:href="#DejaVuSans-30" transform="translate(222.65625 0)"/>
      </g>
     </g>
    </g>
    <g id="xtick_4">
     <g id="line2d_7">
      <path d="M 226.168402 303.64 
L 226.168402 26.88 
" clip-path="url(#p966ecd4ee4)" style="fill: none; stroke: #b0b0b0; stroke-opacity: 0.3; stroke-width: 0.8; stroke-linecap: square"/>
     </g>
     <g id="line2d_8">
      <g>
       <use xlink:href="#md07dc2abe9" x="226.168402" y="303.64" style="stroke: #000000; stroke-width: 0.8"/>
      </g>
     </g>
     <g id="text_4">
      <!-- 0.075 -->
      <g transform="translate(211.854339 318.238437) scale(0.1 -0.1)">
       <defs>
        <path id="DejaVuSans-37" d="M 525 4666 
L 3525 4666 
L 3525 4397 
L 1831 0 
L 1172 0 
L 2766 4134 
L 525 4134 
L 525 4666 
z
" transform="scale(0.015625)"/>
       </defs>
       <use xlink:href="#DejaVuSans-30"/>
       <use xlink:href="#DejaVuSans-2e" transform="translate(63.623047 0)"/>
       <use xlink:href="#DejaVuSans-30" transform="translate(95.410156 0)"/>
       <use xlink:href="#DejaVuSans-37" transform="translate(159.033203 0)"/>
       <use xlink:href="#DejaVuSans-35" transform="translate(222.65625 0)"/>
      </g>
     </g>
    </g>
    <g id="xtick_5">
     <g id="line2d_9">
      <path d="M 275.867349 303.64 
L 275.867349 26.88 
" clip-path="url(#p966ecd4ee4)" style="fill: none; stroke: #b0b0b0; stroke-opacity: 0.3; stroke-width: 0.8; stroke-linecap: square"/>
     </g>
     <g id="line2d_10">
      <g>
       <use xlink:href="#md07dc2abe9" x="275.867349" y="303.64" style="stroke: #000000; stroke-width: 0.8"/>
      </g>
     </g>
     <g id="text_5">
      <!-- 0.100 -->
      <g transform="translate(261.553286 318.238437) scale(0.1 -0.1)">
       <defs>
        <path id="DejaVuSans-31" d="M 794 531 
L 1825 531 
L 1825 4091 
L 703 3866 
L 703 4441 
L 1819 4666 
L 2450 4666 
L 2450 531 
L 3481 531 
L 3481 0 
L 794 0 
L 794 531 
z
" transform="scale(0.015625)"/>
       </defs>
       <use xlink:href="#DejaVuSans-30"/>
       <use xlink:href="#DejaVuSans-2e" transform="translate(63.623047 0)"/>
       <use xlink:href="#DejaVuSans-31" transform="translate(95.410156 0)"/>
       <use xlink:href="#DejaVuSans-30" transform="translate(159.033203 0)"/>
       <use xlink:href="#DejaVuSans-30" transform="translate(222.65625 0)"/>
      </g>
     </g>
    </g>
    <g id="xtick_6">
     <g id="line2d_11">
      <path d="M 325.566296 303.64 
L 325.566296 26.88 
" clip-path="url(#p966ecd4ee4)" style="fill: none; stroke: #b0b0b0; stroke-opacity: 0.3; stroke-width: 0.8; stroke-linecap: square"/>
     </g>
     <g id="line2d_12">
      <g>
       <use xlink:href="#md07dc2abe9" x="325.566296" y="303.64" style="stroke: #000000; stroke-width: 0.8"/>
      </g>
     </g>
     <g id="text_6">
      <!-- 0.125 -->
      <g transform="translate(311.252233 318.238437) scale(0.1 -0.1)">
       <use xlink:href="#DejaVuSans-30"/>
       <use xlink:href="#DejaVuSans-2e" transform="translate(63.623047 0)"/>
       <use xlink:href="#DejaVuSans-31" transform="translate(95.410156 0)"/>
       <use xlink:href="#DejaVuSans-32" transform="translate(159.033203 0)"/>
       <use xlink:href="#DejaVuSans-35" transform="translate(222.65625 0)"/>
      </g>
     </g>
    </g>
    <g id="xtick_7">
     <g id="line2d_13">
      <path d="M 375.265242 303.64 
L 375.265242 26.88 
" clip-path="url(#p966ecd4ee4)" style="fill: none; stroke: #b0b0b0; stroke-opacity: 0.3; stroke-width: 0.8; stroke-linecap: square"/>
     </g>
     <g id="line2d_14">
      <g>
       <use xlink:href="#md07dc2abe9" x="375.265242" y="303.64" style="stroke: #000000; stroke-width: 0.8"/>
      </g>
     </g>
     <g id="text_7">
      <!-- 0.150 -->
      <g transform="translate(360.95118 318.238437) scale(0.1 -0.1)">
       <use xlink:href="#DejaVuSans-30"/>
       <use xlink:href="#DejaVuSans-2e" transform="translate(63.623047 0)"/>
       <use xlink:href="#DejaVuSans-31" transform="translate(95.410156 0)"/>
       <use xlink:href="#DejaVuSans-35" transform="translate(159.033203 0)"/>
       <use xlink:href="#DejaVuSans-30" transform="translate(222.65625 0)"/>
      </g>
     </g>
    </g>
    <g id="xtick_8">
     <g id="line2d_15">
      <path d="M 424.964189 303.64 
L 424.964189 26.88 
" clip-path="url(#p966ecd4ee4)" style="fill: none; stroke: #b0b0b0; stroke-opacity: 0.3; stroke-width: 0.8; stroke-linecap: square"/>
     </g>
     <g id="line2d_16">
      <g>
       <use xlink:href="#md07dc2abe9" x="424.964189" y="303.64" style="stroke: #000000; stroke-width: 0.8"/>
      </g>
     </g>
     <g id="text_8">
      <!-- 0.175 -->
      <g transform="translate(410.650127 318.238437) scale(0.1 -0.1)">
       <use xlink:href="#DejaVuSans-30"/>
       <use xlink:href="#DejaVuSans-2e" transform="translate(63.623047 0)"/>
       <use xlink:href="#DejaVuSans-31" transform="translate(95.410156 0)"/>
       <use xlink:href="#DejaVuSans-37" transform="translate(159.033203 0)"/>
       <use xlink:href="#DejaVuSans-35" transform="translate(222.65625 0)"/>
      </g>
     </g>
    </g>
    <g id="text_9">
     <!-- Strain [-] -->
     <g transform="translate(232.46875 331.916562) scale(0.1 -0.1)">
      <defs>
       <path id="DejaVuSans-53" d="M 3425 4513 
L 3425 3897 
Q 3066 4069 2747 4153 
Q 2428 4238 2131 4238 
Q 1616 4238 1336 4038 
Q 1056 3838 1056 3469 
Q 1056 3159 1242 3001 
Q 1428 2844 1947 2747 
L 2328 2669 
Q 3034 2534 3370 2195 
Q 3706 1856 3706 1288 
Q 3706 609 3251 259 
Q 2797 -91 1919 -91 
Q 1588 -91 1214 -16 
Q 841 59 441 206 
L 441 856 
Q 825 641 1194 531 
Q 1563 422 1919 422 
Q 2459 422 2753 634 
Q 3047 847 3047 1241 
Q 3047 1584 2836 1778 
Q 2625 1972 2144 2069 
L 1759 2144 
Q 1053 2284 737 2584 
Q 422 2884 422 3419 
Q 422 4038 858 4394 
Q 1294 4750 2059 4750 
Q 2388 4750 2728 4690 
Q 3069 4631 3425 4513 
z
" transform="scale(0.015625)"/>
       <path id="DejaVuSans-74" d="M 1172 4494 
L 1172 3500 
L 2356 3500 
L 2356 3053 
L 1172 3053 
L 1172 1153 
Q 1172 725 1289 603 
Q 1406 481 1766 481 
L 2356 481 
L 2356 0 
L 1766 0 
Q 1100 0 847 248 
Q 594 497 594 1153 
L 594 3053 
L 172 3053 
L 172 3500 
L 594 3500 
L 594 4494 
L 1172 4494 
z
" transform="scale(0.015625)"/>
       <path id="DejaVuSans-72" d="M 2631 2963 
Q 2534 3019 2420 3045 
Q 2306 3072 2169 3072 
Q 1681 3072 1420 2755 
Q 1159 2438 1159 1844 
L 1159 0 
L 581 0 
L 581 3500 
L 1159 3500 
L 1159 2956 
Q 1341 3275 1631 3429 
Q 1922 3584 2338 3584 
Q 2397 3584 2469 3576 
Q 2541 3569 2628 3553 
L 2631 2963 
z
" transform="scale(0.015625)"/>
       <path id="DejaVuSans-61" d="M 2194 1759 
Q 1497 1759 1228 1600 
Q 959 1441 959 1056 
Q 959 750 1161 570 
Q 1363 391 1709 391 
Q 2188 391 2477 730 
Q 2766 1069 2766 1631 
L 2766 1759 
L 2194 1759 
z
M 3341 1997 
L 3341 0 
L 2766 0 
L 2766 531 
Q 2569 213 2275 61 
Q 1981 -91 1556 -91 
Q 1019 -91 701 211 
Q 384 513 384 1019 
Q 384 1609 779 1909 
Q 1175 2209 1959 2209 
L 2766 2209 
L 2766 2266 
Q 2766 2663 2505 2880 
Q 2244 3097 1772 3097 
Q 1472 3097 1187 3025 
Q 903 2953 641 2809 
L 641 3341 
Q 956 3463 1253 3523 
Q 1550 3584 1831 3584 
Q 2591 3584 2966 3190 
Q 3341 2797 3341 1997 
z
" transform="scale(0.015625)"/>
       <path id="DejaVuSans-69" d="M 603 3500 
L 1178 3500 
L 1178 0 
L 603 0 
L 603 3500 
z
M 603 4863 
L 1178 4863 
L 1178 4134 
L 603 4134 
L 603 4863 
z
" transform="scale(0.015625)"/>
       <path id="DejaVuSans-6e" d="M 3513 2113 
L 3513 0 
L 2938 0 
L 2938 2094 
Q 2938 2591 2744 2837 
Q 2550 3084 2163 3084 
Q 1697 3084 1428 2787 
Q 1159 2491 1159 1978 
L 1159 0 
L 581 0 
L 581 3500 
L 1159 3500 
L 1159 2956 
Q 1366 3272 1645 3428 
Q 1925 3584 2291 3584 
Q 2894 3584 3203 3211 
Q 3513 2838 3513 2113 
z
" transform="scale(0.015625)"/>
       <path id="DejaVuSans-20" transform="scale(0.015625)"/>
       <path id="DejaVuSans-5b" d="M 550 4863 
L 1875 4863 
L 1875 4416 
L 1125 4416 
L 1125 -397 
L 1875 -397 
L 1875 -844 
L 550 -844 
L 550 4863 
z
" transform="scale(0.015625)"/>
       <path id="DejaVuSans-2d" d="M 313 2009 
L 1997 2009 
L 1997 1497 
L 313 1497 
L 313 2009 
z
" transform="scale(0.015625)"/>
       <path id="DejaVuSans-5d" d="M 1947 4863 
L 1947 -844 
L 622 -844 
L 622 -397 
L 1369 -397 
L 1369 4416 
L 622 4416 
L 622 4863 
L 1947 4863 
z
" transform="scale(0.015625)"/>
      </defs>
      <use xlink:href="#DejaVuSans-53"/>
      <use xlink:href="#DejaVuSans-74" transform="translate(63.476562 0)"/>
      <use xlink:href="#DejaVuSans-72" transform="translate(102.685547 0)"/>
      <use xlink:href="#DejaVuSans-61" transform="translate(143.798828 0)"/>
      <use xlink:href="#DejaVuSans-69" transform="translate(205.078125 0)"/>
      <use xlink:href="#DejaVuSans-6e" transform="translate(232.861328 0)"/>
      <use xlink:href="#DejaVuSans-20" transform="translate(296.240234 0)"/>
      <use xlink:href="#DejaVuSans-5b" transform="translate(328.027344 0)"/>
      <use xlink:href="#DejaVuSans-2d" transform="translate(367.041016 0)"/>
      <use xlink:href="#DejaVuSans-5d" transform="translate(403.125 0)"/>
     </g>
    </g>
   </g>
   <g id="matplotlib.axis_2">
    <g id="ytick_1">
     <g id="line2d_17">
      <path d="M 59.15 302.062956 
L 450 302.062956 
" clip-path="url(#p966ecd4ee4)" style="fill: none; stroke: #b0b0b0; stroke-opacity: 0.3; stroke-width: 0.8; stroke-linecap: square"/>
     </g>
     <g id="line2d_18">
      <defs>
       <path id="m75addb87d5" d="M 0 0 
L -3.5 0 
" style="stroke: #000000; stroke-width: 0.8"/>
      </defs>
      <g>
       <use xlink:href="#m75addb87d5" x="59.15" y="302.062956" style="stroke: #000000; stroke-width: 0.8"/>
      </g>
     </g>
     <g id="text_10">
      <!-- −250 -->
      <g transform="translate(24.682813 305.862175) scale(0.1 -0.1)">
       <defs>
        <path id="DejaVuSans-2212" d="M 678 2272 
L 4684 2272 
L 4684 1741 
L 678 1741 
L 678 2272 
z
" transform="scale(0.015625)"/>
       </defs>
       <use xlink:href="#DejaVuSans-2212"/>
       <use xlink:href="#DejaVuSans-32" transform="translate(83.789062 0)"/>
       <use xlink:href="#DejaVuSans-35" transform="translate(147.412109 0)"/>
       <use xlink:href="#DejaVuSans-30" transform="translate(211.035156 0)"/>
      </g>
     </g>
    </g>
    <g id="ytick_2">
     <g id="line2d_19">
      <path d="M 59.15 267.854978 
L 450 267.854978 
" clip-path="url(#p966ecd4ee4)" style="fill: none; stroke: #b0b0b0; stroke-opacity: 0.3; stroke-width: 0.8; stroke-linecap: square"/>
     </g>
     <g id="line2d_20">
      <g>
       <use xlink:href="#m75addb87d5" x="59.15" y="267.854978" style="stroke: #000000; stroke-width: 0.8"/>
      </g>
     </g>
     <g id="text_11">
      <!-- 0 -->
      <g transform="translate(45.7875 271.654197) scale(0.1 -0.1)">
       <use xlink:href="#DejaVuSans-30"/>
      </g>
     </g>
    </g>
    <g id="ytick_3">
     <g id="line2d_21">
      <path d="M 59.15 233.647 
L 450 233.647 
" clip-path="url(#p966ecd4ee4)" style="fill: none; stroke: #b0b0b0; stroke-opacity: 0.3; stroke-width: 0.8; stroke-linecap: square"/>
     </g>
     <g id="line2d_22">
      <g>
       <use xlink:href="#m75addb87d5" x="59.15" y="233.647" style="stroke: #000000; stroke-width: 0.8"/>
      </g>
     </g>
     <g id="text_12">
      <!-- 250 -->
      <g transform="translate(33.0625 237.446219) scale(0.1 -0.1)">
       <use xlink:href="#DejaVuSans-32"/>
       <use xlink:href="#DejaVuSans-35" transform="translate(63.623047 0)"/>
       <use xlink:href="#DejaVuSans-30" transform="translate(127.246094 0)"/>
      </g>
     </g>
    </g>
    <g id="ytick_4">
     <g id="line2d_23">
      <path d="M 59.15 199.439022 
L 450 199.439022 
" clip-path="url(#p966ecd4ee4)" style="fill: none; stroke: #b0b0b0; stroke-opacity: 0.3; stroke-width: 0.8; stroke-linecap: square"/>
     </g>
     <g id="line2d_24">
      <g>
       <use xlink:href="#m75addb87d5" x="59.15" y="199.439022" style="stroke: #000000; stroke-width: 0.8"/>
      </g>
     </g>
     <g id="text_13">
      <!-- 500 -->
      <g transform="translate(33.0625 203.238241) scale(0.1 -0.1)">
       <use xlink:href="#DejaVuSans-35"/>
       <use xlink:href="#DejaVuSans-30" transform="translate(63.623047 0)"/>
       <use xlink:href="#DejaVuSans-30" transform="translate(127.246094 0)"/>
      </g>
     </g>
    </g>
    <g id="ytick_5">
     <g id="line2d_25">
      <path d="M 59.15 165.231044 
L 450 165.231044 
" clip-path="url(#p966ecd4ee4)" style="fill: none; stroke: #b0b0b0; stroke-opacity: 0.3; stroke-width: 0.8; stroke-linecap: square"/>
     </g>
     <g id="line2d_26">
      <g>
       <use xlink:href="#m75addb87d5" x="59.15" y="165.231044" style="stroke: #000000; stroke-width: 0.8"/>
      </g>
     </g>
     <g id="text_14">
      <!-- 750 -->
      <g transform="translate(33.0625 169.030263) scale(0.1 -0.1)">
       <use xlink:href="#DejaVuSans-37"/>
       <use xlink:href="#DejaVuSans-35" transform="translate(63.623047 0)"/>
       <use xlink:href="#DejaVuSans-30" transform="translate(127.246094 0)"/>
      </g>
     </g>
    </g>
    <g id="ytick_6">
     <g id="line2d_27">
      <path d="M 59.15 131.023066 
L 450 131.023066 
" clip-path="url(#p966ecd4ee4)" style="fill: none; stroke: #b0b0b0; stroke-opacity: 0.3; stroke-width: 0.8; stroke-linecap: square"/>
     </g>
     <g id="line2d_28">
      <g>
       <use xlink:href="#m75addb87d5" x="59.15" y="131.023066" style="stroke: #000000; stroke-width: 0.8"/>
      </g>
     </g>
     <g id="text_15">
      <!-- 1000 -->
      <g transform="translate(26.7 134.822285) scale(0.1 -0.1)">
       <use xlink:href="#DejaVuSans-31"/>
       <use xlink:href="#DejaVuSans-30" transform="translate(63.623047 0)"/>
       <use xlink:href="#DejaVuSans-30" transform="translate(127.246094 0)"/>
       <use xlink:href="#DejaVuSans-30" transform="translate(190.869141 0)"/>
      </g>
     </g>
    </g>
    <g id="ytick_7">
     <g id="line2d_29">
      <path d="M 59.15 96.815088 
L 450 96.815088 
" clip-path="url(#p966ecd4ee4)" style="fill: none; stroke: #b0b0b0; stroke-opacity: 0.3; stroke-width: 0.8; stroke-linecap: square"/>
     </g>
     <g id="line2d_30">
      <g>
       <use xlink:href="#m75addb87d5" x="59.15" y="96.815088" style="stroke: #000000; stroke-width: 0.8"/>
      </g>
     </g>
     <g id="text_16">
      <!-- 1250 -->
      <g transform="translate(26.7 100.614307) scale(0.1 -0.1)">
       <use xlink:href="#DejaVuSans-31"/>
       <use xlink:href="#DejaVuSans-32" transform="translate(63.623047 0)"/>
       <use xlink:href="#DejaVuSans-35" transform="translate(127.246094 0)"/>
       <use xlink:href="#DejaVuSans-30" transform="translate(190.869141 0)"/>
      </g>
     </g>
    </g>
    <g id="ytick_8">
     <g id="line2d_31">
      <path d="M 59.15 62.60711 
L 450 62.60711 
" clip-path="url(#p966ecd4ee4)" style="fill: none; stroke: #b0b0b0; stroke-opacity: 0.3; stroke-width: 0.8; stroke-linecap: square"/>
     </g>
     <g id="line2d_32">
      <g>
       <use xlink:href="#m75addb87d5" x="59.15" y="62.60711" style="stroke: #000000; stroke-width: 0.8"/>
      </g>
     </g>
     <g id="text_17">
      <!-- 1500 -->
      <g transform="translate(26.7 66.406329) scale(0.1 -0.1)">
       <use xlink:href="#DejaVuSans-31"/>
       <use xlink:href="#DejaVuSans-35" transform="translate(63.623047 0)"/>
       <use xlink:href="#DejaVuSans-30" transform="translate(127.246094 0)"/>
       <use xlink:href="#DejaVuSans-30" transform="translate(190.869141 0)"/>
      </g>
     </g>
    </g>
    <g id="ytick_9">
     <g id="line2d_33">
      <path d="M 59.15 28.399132 
L 450 28.399132 
" clip-path="url(#p966ecd4ee4)" style="fill: none; stroke: #b0b0b0; stroke-opacity: 0.3; stroke-width: 0.8; stroke-linecap: square"/>
     </g>
     <g id="line2d_34">
      <g>
       <use xlink:href="#m75addb87d5" x="59.15" y="28.399132" style="stroke: #000000; stroke-width: 0.8"/>
      </g>
     </g>
     <g id="text_18">
      <!-- 1750 -->
      <g transform="translate(26.7 32.198351) scale(0.1 -0.1)">
       <use xlink:href="#DejaVuSans-31"/>
       <use xlink:href="#DejaVuSans-37" transform="translate(63.623047 0)"/>
       <use xlink:href="#DejaVuSans-35" transform="translate(127.246094 0)"/>
       <use xlink:href="#DejaVuSans-30" transform="translate(190.869141 0)"/>
      </g>
     </g>
    </g>
    <g id="text_19">
     <!-- Stress [Pa] -->
     <g transform="translate(18.603125 191.967812) rotate(-90) scale(0.1 -0.1)">
      <defs>
       <path id="DejaVuSans-65" d="M 3597 1894 
L 3597 1613 
L 953 1613 
Q 991 1019 1311 708 
Q 1631 397 2203 397 
Q 2534 397 2845 478 
Q 3156 559 3463 722 
L 3463 178 
Q 3153 47 2828 -22 
Q 2503 -91 2169 -91 
Q 1331 -91 842 396 
Q 353 884 353 1716 
Q 353 2575 817 3079 
Q 1281 3584 2069 3584 
Q 2775 3584 3186 3129 
Q 3597 2675 3597 1894 
z
M 3022 2063 
Q 3016 2534 2758 2815 
Q 2500 3097 2075 3097 
Q 1594 3097 1305 2825 
Q 1016 2553 972 2059 
L 3022 2063 
z
" transform="scale(0.015625)"/>
       <path id="DejaVuSans-73" d="M 2834 3397 
L 2834 2853 
Q 2591 2978 2328 3040 
Q 2066 3103 1784 3103 
Q 1356 3103 1142 2972 
Q 928 2841 928 2578 
Q 928 2378 1081 2264 
Q 1234 2150 1697 2047 
L 1894 2003 
Q 2506 1872 2764 1633 
Q 3022 1394 3022 966 
Q 3022 478 2636 193 
Q 2250 -91 1575 -91 
Q 1294 -91 989 -36 
Q 684 19 347 128 
L 347 722 
Q 666 556 975 473 
Q 1284 391 1588 391 
Q 1994 391 2212 530 
Q 2431 669 2431 922 
Q 2431 1156 2273 1281 
Q 2116 1406 1581 1522 
L 1381 1569 
Q 847 1681 609 1914 
Q 372 2147 372 2553 
Q 372 3047 722 3315 
Q 1072 3584 1716 3584 
Q 2034 3584 2315 3537 
Q 2597 3491 2834 3397 
z
" transform="scale(0.015625)"/>
       <path id="DejaVuSans-50" d="M 1259 4147 
L 1259 2394 
L 2053 2394 
Q 2494 2394 2734 2622 
Q 2975 2850 2975 3272 
Q 2975 3691 2734 3919 
Q 2494 4147 2053 4147 
L 1259 4147 
z
M 628 4666 
L 2053 4666 
Q 2838 4666 3239 4311 
Q 3641 3956 3641 3272 
Q 3641 2581 3239 2228 
Q 2838 1875 2053 1875 
L 1259 1875 
L 1259 0 
L 628 0 
L 628 4666 
z
" transform="scale(0.015625)"/>
      </defs>
      <use xlink:href="#DejaVuSans-53"/>
      <use xlink:href="#DejaVuSans-74" transform="translate(63.476562 0)"/>
      <use xlink:href="#DejaVuSans-72" transform="translate(102.685547 0)"/>
      <use xlink:href="#DejaVuSans-65" transform="translate(141.548828 0)"/>
      <use xlink:href="#DejaVuSans-73" transform="translate(203.072266 0)"/>
      <use xlink:href="#DejaVuSans-73" transform="translate(255.171875 0)"/>
      <use xlink:href="#DejaVuSans-20" transform="translate(307.271484 0)"/>
      <use xlink:href="#DejaVuSans-5b" transform="translate(339.058594 0)"/>
      <use xlink:href="#DejaVuSans-50" transform="translate(378.072266 0)"/>
      <use xlink:href="#DejaVuSans-61" transform="translate(433.875 0)"/>
      <use xlink:href="#DejaVuSans-5d" transform="translate(495.154297 0)"/>
     </g>
    </g>
   </g>
   <g id="line2d_35">
    <path d="M 77.071562 268.189029 
L 77.071562 268.189606 
L 77.069185 268.014433 
L 77.781278 263.177928 
L 78.562645 258.800365 
L 81.75203 254.472993 
L 82.536376 253.704554 
L 83.399807 253.117264 
L 85.099585 252.526512 
L 86.741945 252.331049 
L 90.501173 252.276743 
L 93.326552 252.004011 
L 95.593721 251.815195 
L 97.166746 251.992377 
L 98.78744 252.473516 
L 100.444967 253.241955 
L 104.691703 255.484966 
L 106.407731 256.189369 
L 107.265745 256.357248 
L 108.975273 256.325032 
L 112.372662 255.825287 
L 115.72455 255.759546 
L 118.994104 255.432152 
L 120.590963 254.951589 
L 122.161822 254.199304 
L 124.46936 252.752424 
L 125.979551 251.574381 
L 130.406124 247.870643 
L 135.428539 244.144984 
L 139.31777 241.650442 
L 144.559022 238.330924 
L 151.858646 233.507989 
L 155.002531 231.79804 
L 161.318467 228.868513 
L 164.479686 227.405479 
L 173.946007 222.041407 
L 178.16241 219.41533 
L 181.334462 217.881914 
L 184.510847 216.363497 
L 186.625548 215.15084 
L 194.035669 210.431749 
L 203.642827 204.565768 
L 207.952397 202.08161 
L 215.169682 198.08019 
L 221.693614 194.049924 
L 231.157769 188.736619 
L 238.420554 184.424823 
L 242.03028 182.237195 
L 249.208564 177.728097 
L 264.776319 167.92877 
L 270.017571 164.346184 
L 276.303174 160.003235 
L 290.989352 150.388013 
L 297.270621 146.196214 
L 303.554058 142.207485 
L 308.78231 138.829123 
L 312.959712 135.838442 
L 323.463884 128.009826 
L 333.387379 120.965803 
L 343.378043 113.513331 
L 361.400671 100.449869 
L 364.295385 98.208012 
L 368.64829 94.769652 
L 378.836123 87.268719 
L 383.186861 83.972278 
L 388.230944 79.92932 
L 395.385394 74.029879 
L 397.517429 72.554153 
L 400.693814 70.633056 
L 407.861265 66.749324 
L 410.768979 65.163986 
L 413.544525 63.499035 
L 415.312554 62.63483 
L 423.450687 59.172816 
L 424.939211 58.19323 
L 426.517654 56.565201 
L 428.135097 54.407572 
L 428.912401 53.211069 
L 430.397134 50.219811 
L 431.123555 47.624491 
L 431.837212 46.854429 
L 431.927773 46.995988 
L 432.234091 48.928695 
L 432.064174 67.28417 
L 432.064953 84.360716 
L 432.062041 84.287341 
L 431.349027 84.707346 
L 429.890329 87.649892 
L 429.165025 87.365423 
L 428.403429 87.396414 
L 425.424485 88.515233 
L 424.663972 88.403908 
L 423.949773 89.524458 
L 423.238824 91.090181 
L 422.50377 92.412738 
L 421.743799 93.100555 
L 420.978412 93.156857 
L 420.259338 93.04638 
L 418.793834 93.86948 
L 418.054447 94.427781 
L 417.325488 94.63307 
L 416.598288 96.704162 
L 415.859714 98.045325 
L 414.3892 98.776409 
L 413.654688 99.064069 
L 412.935072 99.473888 
L 412.214643 100.01243 
L 410.760922 101.505031 
L 409.311127 102.784176 
L 408.57411 103.606681 
L 407.105357 104.556701 
L 405.632812 105.900893 
L 404.914279 106.213828 
L 402.00169 108.45345 
L 400.551083 110.075709 
L 399.086663 111.098564 
L 398.366234 111.526196 
L 397.628608 112.094015 
L 395.464343 114.088812 
L 393.287891 115.388726 
L 392.551212 116.016832 
L 391.103212 117.543867 
L 390.387388 118.160868 
L 388.925947 119.032789 
L 387.466944 120.23261 
L 385.287242 122.118516 
L 383.112956 123.530133 
L 381.655849 124.748414 
L 380.172471 125.892996 
L 378.003331 127.632945 
L 376.566537 128.74796 
L 375.113492 129.676706 
L 373.662885 130.77766 
L 370.779275 133.295782 
L 368.597406 134.755427 
L 366.40687 136.563811 
L 364.244772 137.862787 
L 362.065747 139.484615 
L 360.604831 140.698209 
L 359.875194 141.094687 
L 354.762844 144.817597 
L 353.322528 145.657645 
L 351.866234 146.67473 
L 350.394501 147.827533 
L 348.913019 148.957548 
L 348.170923 149.383521 
L 345.247365 151.528313 
L 340.150198 154.857638 
L 337.282399 156.935068 
L 333.657235 159.265841 
L 332.17819 160.356337 
L 329.980342 161.72959 
L 329.240955 162.096502 
L 327.051231 163.70982 
L 325.59277 164.651547 
L 322.633596 166.821435 
L 320.436425 168.097768 
L 318.983871 169.120018 
L 317.530014 169.967638 
L 316.072636 170.862058 
L 313.882371 172.440329 
L 307.993004 176.221588 
L 307.247388 176.813061 
L 305.796781 177.467128 
L 303.625745 178.934633 
L 302.888795 179.616392 
L 302.176441 180.054858 
L 301.457367 180.341581 
L 297.846016 182.552681 
L 296.385117 183.267396 
L 294.19404 184.873863 
L 293.476049 185.394376 
L 289.813781 187.328382 
L 288.366694 188.474262 
L 286.908504 189.443248 
L 284.71851 190.45716 
L 284.006477 190.974672 
L 282.583225 191.718664 
L 280.411648 192.963844 
L 278.21231 194.620213 
L 275.271011 196.264468 
L 273.818238 197.018051 
L 271.654244 198.189531 
L 269.471291 199.821166 
L 267.288068 200.918225 
L 264.372686 202.608853 
L 260.757002 204.814004 
L 253.508841 208.953738 
L 251.292847 210.027432 
L 249.100415 211.348042 
L 246.939604 212.496834 
L 243.979618 214.418796 
L 241.075424 215.695021 
L 238.146585 217.468718 
L 235.231287 218.95865 
L 234.498671 219.51897 
L 230.85504 221.202207 
L 228.671139 222.729637 
L 227.239762 223.406925 
L 225.777779 223.983326 
L 223.595098 225.366891 
L 222.151262 225.978304 
L 221.434625 226.223705 
L 219.251673 227.690922 
L 216.332846 228.844842 
L 215.60524 229.267209 
L 214.888874 229.853346 
L 214.157883 230.286891 
L 212.720014 230.752051 
L 211.268052 231.450251 
L 209.079683 232.921434 
L 207.653722 233.466105 
L 206.193771 234.323604 
L 205.466978 234.899789 
L 204.001475 235.562582 
L 202.569285 236.09777 
L 201.833148 236.435693 
L 200.362363 237.324994 
L 198.935319 238.009637 
L 197.502046 238.586687 
L 193.870399 240.681571 
L 190.896871 241.895598 
L 189.424326 242.936913 
L 188.707419 243.146132 
L 186.510924 244.186221 
L 185.053546 245.163067 
L 181.436779 246.719127 
L 180.694954 247.23243 
L 178.506856 248.115529 
L 174.825587 250.068424 
L 172.646697 251.082481 
L 170.469703 252.272999 
L 166.097433 254.076696 
L 164.664431 254.716196 
L 163.207595 255.237395 
L 159.594796 257.345097 
L 157.42349 258.241681 
L 156.691145 258.794646 
L 155.228621 259.50013 
L 152.368303 260.633029 
L 143.664932 264.818591 
L 142.920399 265.013838 
L 139.285222 266.802649 
L 137.114458 267.570083 
L 135.658434 268.32071 
L 134.196723 268.762188 
L 132.745709 269.3661 
L 131.302144 270.360181 
L 130.588486 270.640522 
L 129.136796 271.014325 
L 127.669262 271.776815 
L 126.937322 272.288458 
L 124.75762 273.003065 
L 123.290962 273.455966 
L 122.562544 274.013545 
L 121.851053 274.379304 
L 121.123041 274.518591 
L 118.954172 275.502684 
L 116.764449 276.599707 
L 114.576892 277.215627 
L 111.671209 278.795484 
L 109.505049 279.458782 
L 108.794912 279.885043 
L 108.075296 280.045549 
L 105.186466 281.09202 
L 104.461434 281.557799 
L 103.022202 282.005586 
L 101.564824 282.582853 
L 100.118821 283.641368 
L 97.935598 283.828403 
L 97.192554 283.969694 
L 95.735718 285.301463 
L 92.818254 285.623011 
L 92.101347 286.156705 
L 91.379971 286.843727 
L 88.459418 287.324653 
L 87.030478 288.787849 
L 85.5731 288.677107 
L 84.108545 289.031143 
L 83.395294 289.415031 
L 82.674865 290.489194 
L 80.488392 290.150848 
L 79.020993 290.110834 
L 78.293252 290.907325 
L 77.032468 291.055986 
L 76.916475 288.416625 
L 76.916475 288.416625 
" clip-path="url(#p966ecd4ee4)" style="fill: none; stroke: #ff0000; stroke-width: 2; stroke-linecap: square"/>
   </g>
   <g id="line2d_36">
    <path d="M 77.071562 268.189029 
L 77.071562 268.189606 
L 77.069185 268.014433 
L 77.781278 263.177928 
L 78.562645 258.800365 
L 81.75203 254.472993 
L 82.536376 253.704554 
L 83.399807 266.401257 
L 85.899098 264.973126 
L 89.50449 263.451496 
L 91.532523 262.76029 
L 94.823744 261.839837 
L 97.166746 261.409946 
L 98.78744 260.822656 
L 103.835855 258.521357 
L 107.265745 256.814869 
L 108.121592 256.469393 
L 112.372662 255.825287 
L 115.72455 255.759546 
L 118.994104 255.432152 
L 120.590963 254.951589 
L 122.161822 254.199304 
L 124.46936 252.752424 
L 125.979551 251.574381 
L 130.406124 247.870643 
L 135.428539 244.144984 
L 139.31777 241.650442 
L 144.559022 238.330924 
L 151.858646 233.507989 
L 155.002531 231.79804 
L 161.318467 228.868513 
L 164.479686 227.405479 
L 173.946007 222.041407 
L 178.16241 219.41533 
L 181.334462 217.881914 
L 184.510847 216.363497 
L 186.625548 215.15084 
L 194.035669 210.431749 
L 203.642827 204.565768 
L 207.952397 202.08161 
L 215.169682 198.08019 
L 221.693614 194.049924 
L 231.157769 188.736619 
L 238.420554 184.424823 
L 242.03028 182.237195 
L 249.208564 177.728097 
L 264.776319 167.92877 
L 270.017571 164.346184 
L 276.303174 160.003235 
L 290.989352 150.388013 
L 297.270621 146.196214 
L 303.554058 142.207485 
L 308.78231 138.829123 
L 312.959712 135.838442 
L 323.463884 128.009826 
L 333.387379 120.965803 
L 343.378043 113.513331 
L 361.400671 100.449869 
L 364.295385 98.208012 
L 368.64829 94.769652 
L 378.836123 87.268719 
L 383.186861 83.972278 
L 388.230944 79.92932 
L 395.385394 74.029879 
L 398.579113 71.789745 
L 401.740331 69.839153 
L 410.768979 64.607264 
L 418.608107 59.179587 
L 421.759576 56.651008 
L 424.219866 54.417805 
L 425.765808 52.523822 
L 427.322583 50.055818 
L 428.912401 47.077828 
L 430.397134 43.453704 
L 431.123555 40.56647 
L 431.927773 39.46 
L 432.234091 41.146369 
L 432.064242 56.97091 
L 432.065596 67.477055 
L 432.065393 69.584024 
L 432.065427 69.539512 
L 432.064953 84.360716 
L 432.062041 84.287341 
L 431.349027 84.707346 
L 429.890329 87.649892 
L 429.165025 87.365423 
L 428.403429 87.396414 
L 425.424485 88.515233 
L 424.663972 88.403908 
L 423.949773 89.524458 
L 423.238824 91.090181 
L 422.50377 92.412738 
L 421.743799 93.100555 
L 420.978412 93.156857 
L 420.259338 93.04638 
L 418.793834 93.86948 
L 418.054447 94.427781 
L 417.325488 94.63307 
L 416.598288 96.704162 
L 415.859714 98.045325 
L 414.3892 98.776409 
L 413.654688 99.064069 
L 412.935072 99.473888 
L 412.214643 100.01243 
L 410.760922 101.505031 
L 409.311127 102.784176 
L 408.57411 103.606681 
L 407.105357 104.556701 
L 405.632812 105.900893 
L 404.914279 106.213828 
L 402.00169 108.45345 
L 400.551083 110.075709 
L 399.086663 111.098564 
L 398.366234 111.526196 
L 397.628608 112.094015 
L 395.464343 114.088812 
L 393.287891 115.388726 
L 392.551212 116.016832 
L 391.103212 117.543867 
L 390.387388 118.160868 
L 388.925947 119.032789 
L 387.466944 120.23261 
L 385.287242 122.118516 
L 383.112956 123.530133 
L 381.655849 124.748414 
L 380.172471 125.892996 
L 378.003331 127.632945 
L 376.566537 128.74796 
L 375.113492 129.676706 
L 373.662885 130.77766 
L 370.779275 133.295782 
L 368.597406 134.755427 
L 366.40687 136.563811 
L 364.244772 137.862787 
L 362.065747 139.484615 
L 360.604831 140.698209 
L 359.875194 141.094687 
L 354.762844 144.817597 
L 353.322528 145.657645 
L 351.866234 146.67473 
L 350.394501 147.827533 
L 348.913019 148.957548 
L 348.170923 149.383521 
L 345.247365 151.528313 
L 340.150198 154.857638 
L 337.282399 156.935068 
L 333.657235 159.265841 
L 332.17819 160.356337 
L 329.980342 161.72959 
L 329.240955 162.096502 
L 327.051231 163.70982 
L 325.59277 164.651547 
L 322.633596 166.821435 
L 320.436425 168.097768 
L 318.983871 169.120018 
L 317.530014 169.967638 
L 316.072636 170.862058 
L 313.882371 172.440329 
L 307.993004 176.221588 
L 307.247388 176.813061 
L 305.796781 177.467128 
L 303.625745 178.934633 
L 302.888795 179.616392 
L 302.176441 180.054858 
L 301.457367 180.341581 
L 297.846016 182.552681 
L 296.385117 183.267396 
L 294.19404 184.873863 
L 293.476049 185.394376 
L 289.813781 187.328382 
L 288.366694 188.474262 
L 286.908504 189.443248 
L 284.71851 190.45716 
L 284.006477 190.974672 
L 282.583225 191.718664 
L 280.411648 192.963844 
L 278.21231 194.620213 
L 275.271011 196.264468 
L 273.818238 197.018051 
L 271.654244 198.189531 
L 269.471291 199.821166 
L 267.288068 200.918225 
L 264.372686 202.608853 
L 260.757002 204.814004 
L 253.508841 208.953738 
L 251.292847 210.027432 
L 249.100415 211.348042 
L 246.939604 212.496834 
L 243.979618 214.418796 
L 241.075424 215.695021 
L 238.146585 217.468718 
L 235.231287 218.95865 
L 234.498671 219.51897 
L 230.85504 221.202207 
L 228.671139 222.729637 
L 227.239762 223.406925 
L 225.777779 223.983326 
L 223.595098 225.366891 
L 222.151262 225.978304 
L 221.434625 226.223705 
L 219.251673 227.690922 
L 216.332846 228.844842 
L 215.60524 229.267209 
L 214.888874 229.853346 
L 214.157883 230.286891 
L 212.720014 230.752051 
L 211.268052 231.450251 
L 209.079683 232.921434 
L 207.653722 233.466105 
L 206.193771 234.323604 
L 205.466978 234.899789 
L 204.001475 235.562582 
L 202.569285 236.09777 
L 201.833148 236.435693 
L 200.362363 237.324994 
L 198.935319 238.009637 
L 197.502046 238.586687 
L 193.870399 240.681571 
L 190.896871 241.895598 
L 189.424326 242.936913 
L 188.707419 243.146132 
L 186.510924 244.186221 
L 185.053546 245.163067 
L 181.436779 246.719127 
L 180.694954 247.23243 
L 178.506856 248.115529 
L 174.825587 250.068424 
L 172.646697 251.082481 
L 170.469703 252.272999 
L 166.097433 254.076696 
L 164.664431 254.716196 
L 163.207595 255.237395 
L 159.594796 257.345097 
L 157.42349 258.241681 
L 156.691145 258.794646 
L 155.228621 259.50013 
L 152.368303 260.633029 
L 143.664932 264.818591 
L 142.920399 265.013838 
L 139.285222 266.802649 
L 137.114458 267.570083 
L 135.658434 268.32071 
L 134.196723 268.762188 
L 132.745709 269.3661 
L 131.302144 270.360181 
L 130.588486 270.640522 
L 129.136796 271.014325 
L 127.669262 271.776815 
L 126.937322 272.288458 
L 124.75762 273.003065 
L 123.290962 273.455966 
L 122.562544 274.013545 
L 121.851053 274.379304 
L 121.123041 274.518591 
L 118.954172 275.502684 
L 116.764449 276.599707 
L 114.576892 277.215627 
L 111.671209 278.795484 
L 109.505049 279.458782 
L 108.794912 279.885043 
L 108.075296 280.045549 
L 105.186466 281.09202 
L 104.461434 281.557799 
L 103.022202 282.005586 
L 101.564824 282.582853 
L 100.118821 283.641368 
L 97.935598 283.828403 
L 97.192554 283.969694 
L 95.735718 285.301463 
L 92.818254 285.623011 
L 92.101347 286.156705 
L 91.379971 286.843727 
L 88.459418 287.324653 
L 87.030478 288.787849 
L 85.5731 288.677107 
L 84.108545 289.031143 
L 83.395294 289.415031 
L 82.674865 290.489194 
L 80.488392 290.150848 
L 79.020993 290.110834 
L 78.293252 290.907325 
L 77.032468 291.055986 
L 76.916475 288.416625 
L 76.916475 288.416625 
" clip-path="url(#p966ecd4ee4)" style="fill: none; stroke: #000000; stroke-width: 2; stroke-linecap: square"/>
   </g>
   <g id="patch_3">
    <path d="M 59.15 303.64 
L 59.15 26.88 
" style="fill: none; stroke: #000000; stroke-width: 0.8; stroke-linejoin: miter; stroke-linecap: square"/>
   </g>
   <g id="patch_4">
    <path d="M 450 303.64 
L 450 26.88 
" style="fill: none; stroke: #000000; stroke-width: 0.8; stroke-linejoin: miter; stroke-linecap: square"/>
   </g>
   <g id="patch_5">
    <path d="M 59.15 303.64 
L 450 303.64 
" style="fill: none; stroke: #000000; stroke-width: 0.8; stroke-linejoin: miter; stroke-linecap: square"/>
   </g>
   <g id="patch_6">
    <path d="M 59.15 26.88 
L 450 26.88 
" style="fill: none; stroke: #000000; stroke-width: 0.8; stroke-linejoin: miter; stroke-linecap: square"/>
   </g>
   <g id="text_20">
    <!-- 2025-06-19 Trial 22 - Stress vs Strain -->
    <g transform="translate(143.320938 20.88) scale(0.12 -0.12)">
     <defs>
      <path id="DejaVuSans-36" d="M 2113 2584 
Q 1688 2584 1439 2293 
Q 1191 2003 1191 1497 
Q 1191 994 1439 701 
Q 1688 409 2113 409 
Q 2538 409 2786 701 
Q 3034 994 3034 1497 
Q 3034 2003 2786 2293 
Q 2538 2584 2113 2584 
z
M 3366 4563 
L 3366 3988 
Q 3128 4100 2886 4159 
Q 2644 4219 2406 4219 
Q 1781 4219 1451 3797 
Q 1122 3375 1075 2522 
Q 1259 2794 1537 2939 
Q 1816 3084 2150 3084 
Q 2853 3084 3261 2657 
Q 3669 2231 3669 1497 
Q 3669 778 3244 343 
Q 2819 -91 2113 -91 
Q 1303 -91 875 529 
Q 447 1150 447 2328 
Q 447 3434 972 4092 
Q 1497 4750 2381 4750 
Q 2619 4750 2861 4703 
Q 3103 4656 3366 4563 
z
" transform="scale(0.015625)"/>
      <path id="DejaVuSans-39" d="M 703 97 
L 703 672 
Q 941 559 1184 500 
Q 1428 441 1663 441 
Q 2288 441 2617 861 
Q 2947 1281 2994 2138 
Q 2813 1869 2534 1725 
Q 2256 1581 1919 1581 
Q 1219 1581 811 2004 
Q 403 2428 403 3163 
Q 403 3881 828 4315 
Q 1253 4750 1959 4750 
Q 2769 4750 3195 4129 
Q 3622 3509 3622 2328 
Q 3622 1225 3098 567 
Q 2575 -91 1691 -91 
Q 1453 -91 1209 -44 
Q 966 3 703 97 
z
M 1959 2075 
Q 2384 2075 2632 2365 
Q 2881 2656 2881 3163 
Q 2881 3666 2632 3958 
Q 2384 4250 1959 4250 
Q 1534 4250 1286 3958 
Q 1038 3666 1038 3163 
Q 1038 2656 1286 2365 
Q 1534 2075 1959 2075 
z
" transform="scale(0.015625)"/>
      <path id="DejaVuSans-54" d="M -19 4666 
L 3928 4666 
L 3928 4134 
L 2272 4134 
L 2272 0 
L 1638 0 
L 1638 4134 
L -19 4134 
L -19 4666 
z
" transform="scale(0.015625)"/>
      <path id="DejaVuSans-6c" d="M 603 4863 
L 1178 4863 
L 1178 0 
L 603 0 
L 603 4863 
z
" transform="scale(0.015625)"/>
      <path id="DejaVuSans-76" d="M 191 3500 
L 800 3500 
L 1894 563 
L 2988 3500 
L 3597 3500 
L 2284 0 
L 1503 0 
L 191 3500 
z
" transform="scale(0.015625)"/>
     </defs>
     <use xlink:href="#DejaVuSans-32"/>
     <use xlink:href="#DejaVuSans-30" transform="translate(63.623047 0)"/>
     <use xlink:href="#DejaVuSans-32" transform="translate(127.246094 0)"/>
     <use xlink:href="#DejaVuSans-35" transform="translate(190.869141 0)"/>
     <use xlink:href="#DejaVuSans-2d" transform="translate(254.492188 0)"/>
     <use xlink:href="#DejaVuSans-30" transform="translate(290.576172 0)"/>
     <use xlink:href="#DejaVuSans-36" transform="translate(354.199219 0)"/>
     <use xlink:href="#DejaVuSans-2d" transform="translate(417.822266 0)"/>
     <use xlink:href="#DejaVuSans-31" transform="translate(453.90625 0)"/>
     <use xlink:href="#DejaVuSans-39" transform="translate(517.529297 0)"/>
     <use xlink:href="#DejaVuSans-20" transform="translate(581.152344 0)"/>
     <use xlink:href="#DejaVuSans-54" transform="translate(612.939453 0)"/>
     <use xlink:href="#DejaVuSans-72" transform="translate(659.273438 0)"/>
     <use xlink:href="#DejaVuSans-69" transform="translate(700.386719 0)"/>
     <use xlink:href="#DejaVuSans-61" transform="translate(728.169922 0)"/>
     <use xlink:href="#DejaVuSans-6c" transform="translate(789.449219 0)"/>
     <use xlink:href="#DejaVuSans-20" transform="translate(817.232422 0)"/>
     <use xlink:href="#DejaVuSans-32" transform="translate(849.019531 0)"/>
     <use xlink:href="#DejaVuSans-32" transform="translate(912.642578 0)"/>
     <use xlink:href="#DejaVuSans-20" transform="translate(976.265625 0)"/>
     <use xlink:href="#DejaVuSans-2d" transform="translate(1008.052734 0)"/>
     <use xlink:href="#DejaVuSans-20" transform="translate(1044.136719 0)"/>
     <use xlink:href="#DejaVuSans-53" transform="translate(1075.923828 0)"/>
     <use xlink:href="#DejaVuSans-74" transform="translate(1139.400391 0)"/>
     <use xlink:href="#DejaVuSans-72" transform="translate(1178.609375 0)"/>
     <use xlink:href="#DejaVuSans-65" transform="translate(1217.472656 0)"/>
     <use xlink:href="#DejaVuSans-73" transform="translate(1278.996094 0)"/>
     <use xlink:href="#DejaVuSans-73" transform="translate(1331.095703 0)"/>
     <use xlink:href="#DejaVuSans-20" transform="translate(1383.195312 0)"/>
     <use xlink:href="#DejaVuSans-76" transform="translate(1414.982422 0)"/>
     <use xlink:href="#DejaVuSans-73" transform="translate(1474.162109 0)"/>
     <use xlink:href="#DejaVuSans-20" transform="translate(1526.261719 0)"/>
     <use xlink:href="#DejaVuSans-53" transform="translate(1558.048828 0)"/>
     <use xlink:href="#DejaVuSans-74" transform="translate(1621.525391 0)"/>
     <use xlink:href="#DejaVuSans-72" transform="translate(1660.734375 0)"/>
     <use xlink:href="#DejaVuSans-61" transform="translate(1701.847656 0)"/>
     <use xlink:href="#DejaVuSans-69" transform="translate(1763.126953 0)"/>
     <use xlink:href="#DejaVuSans-6e" transform="translate(1790.910156 0)"/>
    </g>
   </g>
   <g id="legend_1">
    <g id="patch_7">
     <path d="M 66.15 64.23625 
L 172.134375 64.23625 
Q 174.134375 64.23625 174.134375 62.23625 
L 174.134375 33.88 
Q 174.134375 31.88 172.134375 31.88 
L 66.15 31.88 
Q 64.15 31.88 64.15 33.88 
L 64.15 62.23625 
Q 64.15 64.23625 66.15 64.23625 
z
" style="fill: #ffffff; opacity: 0.8; stroke: #cccccc; stroke-linejoin: miter"/>
    </g>
    <g id="line2d_37">
     <path d="M 68.15 39.978437 
L 78.15 39.978437 
L 88.15 39.978437 
" style="fill: none; stroke: #ff0000; stroke-width: 2; stroke-linecap: square"/>
    </g>
    <g id="text_21">
     <!-- Raw Force -->
     <g transform="translate(96.15 43.478437) scale(0.1 -0.1)">
      <defs>
       <path id="DejaVuSans-52" d="M 2841 2188 
Q 3044 2119 3236 1894 
Q 3428 1669 3622 1275 
L 4263 0 
L 3584 0 
L 2988 1197 
Q 2756 1666 2539 1819 
Q 2322 1972 1947 1972 
L 1259 1972 
L 1259 0 
L 628 0 
L 628 4666 
L 2053 4666 
Q 2853 4666 3247 4331 
Q 3641 3997 3641 3322 
Q 3641 2881 3436 2590 
Q 3231 2300 2841 2188 
z
M 1259 4147 
L 1259 2491 
L 2053 2491 
Q 2509 2491 2742 2702 
Q 2975 2913 2975 3322 
Q 2975 3731 2742 3939 
Q 2509 4147 2053 4147 
L 1259 4147 
z
" transform="scale(0.015625)"/>
       <path id="DejaVuSans-77" d="M 269 3500 
L 844 3500 
L 1563 769 
L 2278 3500 
L 2956 3500 
L 3675 769 
L 4391 3500 
L 4966 3500 
L 4050 0 
L 3372 0 
L 2619 2869 
L 1863 0 
L 1184 0 
L 269 3500 
z
" transform="scale(0.015625)"/>
       <path id="DejaVuSans-46" d="M 628 4666 
L 3309 4666 
L 3309 4134 
L 1259 4134 
L 1259 2759 
L 3109 2759 
L 3109 2228 
L 1259 2228 
L 1259 0 
L 628 0 
L 628 4666 
z
" transform="scale(0.015625)"/>
       <path id="DejaVuSans-6f" d="M 1959 3097 
Q 1497 3097 1228 2736 
Q 959 2375 959 1747 
Q 959 1119 1226 758 
Q 1494 397 1959 397 
Q 2419 397 2687 759 
Q 2956 1122 2956 1747 
Q 2956 2369 2687 2733 
Q 2419 3097 1959 3097 
z
M 1959 3584 
Q 2709 3584 3137 3096 
Q 3566 2609 3566 1747 
Q 3566 888 3137 398 
Q 2709 -91 1959 -91 
Q 1206 -91 779 398 
Q 353 888 353 1747 
Q 353 2609 779 3096 
Q 1206 3584 1959 3584 
z
" transform="scale(0.015625)"/>
       <path id="DejaVuSans-63" d="M 3122 3366 
L 3122 2828 
Q 2878 2963 2633 3030 
Q 2388 3097 2138 3097 
Q 1578 3097 1268 2742 
Q 959 2388 959 1747 
Q 959 1106 1268 751 
Q 1578 397 2138 397 
Q 2388 397 2633 464 
Q 2878 531 3122 666 
L 3122 134 
Q 2881 22 2623 -34 
Q 2366 -91 2075 -91 
Q 1284 -91 818 406 
Q 353 903 353 1747 
Q 353 2603 823 3093 
Q 1294 3584 2113 3584 
Q 2378 3584 2631 3529 
Q 2884 3475 3122 3366 
z
" transform="scale(0.015625)"/>
      </defs>
      <use xlink:href="#DejaVuSans-52"/>
      <use xlink:href="#DejaVuSans-61" transform="translate(67.232422 0)"/>
      <use xlink:href="#DejaVuSans-77" transform="translate(128.511719 0)"/>
      <use xlink:href="#DejaVuSans-20" transform="translate(210.298828 0)"/>
      <use xlink:href="#DejaVuSans-46" transform="translate(242.085938 0)"/>
      <use xlink:href="#DejaVuSans-6f" transform="translate(295.980469 0)"/>
      <use xlink:href="#DejaVuSans-72" transform="translate(357.162109 0)"/>
      <use xlink:href="#DejaVuSans-63" transform="translate(396.025391 0)"/>
      <use xlink:href="#DejaVuSans-65" transform="translate(451.005859 0)"/>
     </g>
    </g>
    <g id="line2d_38">
     <path d="M 68.15 54.656563 
L 78.15 54.656563 
L 88.15 54.656563 
" style="fill: none; stroke: #000000; stroke-width: 2; stroke-linecap: square"/>
    </g>
    <g id="text_22">
     <!-- Adjusted Force -->
     <g transform="translate(96.15 58.156563) scale(0.1 -0.1)">
      <defs>
       <path id="DejaVuSans-41" d="M 2188 4044 
L 1331 1722 
L 3047 1722 
L 2188 4044 
z
M 1831 4666 
L 2547 4666 
L 4325 0 
L 3669 0 
L 3244 1197 
L 1141 1197 
L 716 0 
L 50 0 
L 1831 4666 
z
" transform="scale(0.015625)"/>
       <path id="DejaVuSans-64" d="M 2906 2969 
L 2906 4863 
L 3481 4863 
L 3481 0 
L 2906 0 
L 2906 525 
Q 2725 213 2448 61 
Q 2172 -91 1784 -91 
Q 1150 -91 751 415 
Q 353 922 353 1747 
Q 353 2572 751 3078 
Q 1150 3584 1784 3584 
Q 2172 3584 2448 3432 
Q 2725 3281 2906 2969 
z
M 947 1747 
Q 947 1113 1208 752 
Q 1469 391 1925 391 
Q 2381 391 2643 752 
Q 2906 1113 2906 1747 
Q 2906 2381 2643 2742 
Q 2381 3103 1925 3103 
Q 1469 3103 1208 2742 
Q 947 2381 947 1747 
z
" transform="scale(0.015625)"/>
       <path id="DejaVuSans-6a" d="M 603 3500 
L 1178 3500 
L 1178 -63 
Q 1178 -731 923 -1031 
Q 669 -1331 103 -1331 
L -116 -1331 
L -116 -844 
L 38 -844 
Q 366 -844 484 -692 
Q 603 -541 603 -63 
L 603 3500 
z
M 603 4863 
L 1178 4863 
L 1178 4134 
L 603 4134 
L 603 4863 
z
" transform="scale(0.015625)"/>
       <path id="DejaVuSans-75" d="M 544 1381 
L 544 3500 
L 1119 3500 
L 1119 1403 
Q 1119 906 1312 657 
Q 1506 409 1894 409 
Q 2359 409 2629 706 
Q 2900 1003 2900 1516 
L 2900 3500 
L 3475 3500 
L 3475 0 
L 2900 0 
L 2900 538 
Q 2691 219 2414 64 
Q 2138 -91 1772 -91 
Q 1169 -91 856 284 
Q 544 659 544 1381 
z
M 1991 3584 
L 1991 3584 
z
" transform="scale(0.015625)"/>
      </defs>
      <use xlink:href="#DejaVuSans-41"/>
      <use xlink:href="#DejaVuSans-64" transform="translate(66.658203 0)"/>
      <use xlink:href="#DejaVuSans-6a" transform="translate(130.134766 0)"/>
      <use xlink:href="#DejaVuSans-75" transform="translate(157.917969 0)"/>
      <use xlink:href="#DejaVuSans-73" transform="translate(221.296875 0)"/>
      <use xlink:href="#DejaVuSans-74" transform="translate(273.396484 0)"/>
      <use xlink:href="#DejaVuSans-65" transform="translate(312.605469 0)"/>
      <use xlink:href="#DejaVuSans-64" transform="translate(374.128906 0)"/>
      <use xlink:href="#DejaVuSans-20" transform="translate(437.605469 0)"/>
      <use xlink:href="#DejaVuSans-46" transform="translate(469.392578 0)"/>
      <use xlink:href="#DejaVuSans-6f" transform="translate(523.287109 0)"/>
      <use xlink:href="#DejaVuSans-72" transform="translate(584.46875 0)"/>
      <use xlink:href="#DejaVuSans-63" transform="translate(623.332031 0)"/>
      <use xlink:href="#DejaVuSans-65" transform="translate(678.3125 0)"/>
     </g>
    </g>
   </g>
  </g>
 </g>
 <defs>
  <clipPath id="p966ecd4ee4">
   <rect x="59.15" y="26.88" width="390.85" height="276.76"/>
  </clipPath>
 </defs>
</svg>
