<?xml version="1.0" encoding="utf-8" standalone="no"?>
<!DOCTYPE svg PUBLIC "-//W3C//DTD SVG 1.1//EN"
  "http://www.w3.org/Graphics/SVG/1.1/DTD/svg11.dtd">
<svg xmlns:xlink="http://www.w3.org/1999/xlink" width="460.8pt" height="345.6pt" viewBox="0 0 460.8 345.6" xmlns="http://www.w3.org/2000/svg" version="1.1">
 <metadata>
  <rdf:RDF xmlns:dc="http://purl.org/dc/elements/1.1/" xmlns:cc="http://creativecommons.org/ns#" xmlns:rdf="http://www.w3.org/1999/02/22-rdf-syntax-ns#">
   <cc:Work>
    <dc:type rdf:resource="http://purl.org/dc/dcmitype/StillImage"/>
    <dc:date>2025-07-28T21:14:34.792654</dc:date>
    <dc:format>image/svg+xml</dc:format>
    <dc:creator>
     <cc:Agent>
      <dc:title>Matplotlib v3.10.3, https://matplotlib.org/</dc:title>
     </cc:Agent>
    </dc:creator>
   </cc:Work>
  </rdf:RDF>
 </metadata>
 <defs>
  <style type="text/css">*{stroke-linejoin: round; stroke-linecap: butt}</style>
 </defs>
 <g id="figure_1">
  <g id="patch_1">
   <path d="M 0 345.6 
L 460.8 345.6 
L 460.8 0 
L 0 0 
z
" style="fill: #ffffff"/>
  </g>
  <g id="axes_1">
   <g id="patch_2">
    <path d="M 59.15 303.64 
L 450 303.64 
L 450 26.88 
L 59.15 26.88 
z
" style="fill: #ffffff"/>
   </g>
   <g id="matplotlib.axis_1">
    <g id="xtick_1">
     <g id="line2d_1">
      <path d="M 77.072705 303.64 
L 77.072705 26.88 
" clip-path="url(#p25dc17f747)" style="fill: none; stroke: #b0b0b0; stroke-opacity: 0.3; stroke-width: 0.8; stroke-linecap: square"/>
     </g>
     <g id="line2d_2">
      <defs>
       <path id="m3d1fa8d643" d="M 0 0 
L 0 3.5 
" style="stroke: #000000; stroke-width: 0.8"/>
      </defs>
      <g>
       <use xlink:href="#m3d1fa8d643" x="77.072705" y="303.64" style="stroke: #000000; stroke-width: 0.8"/>
      </g>
     </g>
     <g id="text_1">
      <!-- 0.000 -->
      <g transform="translate(62.758643 318.238437) scale(0.1 -0.1)">
       <defs>
        <path id="DejaVuSans-30" d="M 2034 4250 
Q 1547 4250 1301 3770 
Q 1056 3291 1056 2328 
Q 1056 1369 1301 889 
Q 1547 409 2034 409 
Q 2525 409 2770 889 
Q 3016 1369 3016 2328 
Q 3016 3291 2770 3770 
Q 2525 4250 2034 4250 
z
M 2034 4750 
Q 2819 4750 3233 4129 
Q 3647 3509 3647 2328 
Q 3647 1150 3233 529 
Q 2819 -91 2034 -91 
Q 1250 -91 836 529 
Q 422 1150 422 2328 
Q 422 3509 836 4129 
Q 1250 4750 2034 4750 
z
" transform="scale(0.015625)"/>
        <path id="DejaVuSans-2e" d="M 684 794 
L 1344 794 
L 1344 0 
L 684 0 
L 684 794 
z
" transform="scale(0.015625)"/>
       </defs>
       <use xlink:href="#DejaVuSans-30"/>
       <use xlink:href="#DejaVuSans-2e" transform="translate(63.623047 0)"/>
       <use xlink:href="#DejaVuSans-30" transform="translate(95.410156 0)"/>
       <use xlink:href="#DejaVuSans-30" transform="translate(159.033203 0)"/>
       <use xlink:href="#DejaVuSans-30" transform="translate(222.65625 0)"/>
      </g>
     </g>
    </g>
    <g id="xtick_2">
     <g id="line2d_3">
      <path d="M 126.770819 303.64 
L 126.770819 26.88 
" clip-path="url(#p25dc17f747)" style="fill: none; stroke: #b0b0b0; stroke-opacity: 0.3; stroke-width: 0.8; stroke-linecap: square"/>
     </g>
     <g id="line2d_4">
      <g>
       <use xlink:href="#m3d1fa8d643" x="126.770819" y="303.64" style="stroke: #000000; stroke-width: 0.8"/>
      </g>
     </g>
     <g id="text_2">
      <!-- 0.025 -->
      <g transform="translate(112.456757 318.238437) scale(0.1 -0.1)">
       <defs>
        <path id="DejaVuSans-32" d="M 1228 531 
L 3431 531 
L 3431 0 
L 469 0 
L 469 531 
Q 828 903 1448 1529 
Q 2069 2156 2228 2338 
Q 2531 2678 2651 2914 
Q 2772 3150 2772 3378 
Q 2772 3750 2511 3984 
Q 2250 4219 1831 4219 
Q 1534 4219 1204 4116 
Q 875 4013 500 3803 
L 500 4441 
Q 881 4594 1212 4672 
Q 1544 4750 1819 4750 
Q 2544 4750 2975 4387 
Q 3406 4025 3406 3419 
Q 3406 3131 3298 2873 
Q 3191 2616 2906 2266 
Q 2828 2175 2409 1742 
Q 1991 1309 1228 531 
z
" transform="scale(0.015625)"/>
        <path id="DejaVuSans-35" d="M 691 4666 
L 3169 4666 
L 3169 4134 
L 1269 4134 
L 1269 2991 
Q 1406 3038 1543 3061 
Q 1681 3084 1819 3084 
Q 2600 3084 3056 2656 
Q 3513 2228 3513 1497 
Q 3513 744 3044 326 
Q 2575 -91 1722 -91 
Q 1428 -91 1123 -41 
Q 819 9 494 109 
L 494 744 
Q 775 591 1075 516 
Q 1375 441 1709 441 
Q 2250 441 2565 725 
Q 2881 1009 2881 1497 
Q 2881 1984 2565 2268 
Q 2250 2553 1709 2553 
Q 1456 2553 1204 2497 
Q 953 2441 691 2322 
L 691 4666 
z
" transform="scale(0.015625)"/>
       </defs>
       <use xlink:href="#DejaVuSans-30"/>
       <use xlink:href="#DejaVuSans-2e" transform="translate(63.623047 0)"/>
       <use xlink:href="#DejaVuSans-30" transform="translate(95.410156 0)"/>
       <use xlink:href="#DejaVuSans-32" transform="translate(159.033203 0)"/>
       <use xlink:href="#DejaVuSans-35" transform="translate(222.65625 0)"/>
      </g>
     </g>
    </g>
    <g id="xtick_3">
     <g id="line2d_5">
      <path d="M 176.468933 303.64 
L 176.468933 26.88 
" clip-path="url(#p25dc17f747)" style="fill: none; stroke: #b0b0b0; stroke-opacity: 0.3; stroke-width: 0.8; stroke-linecap: square"/>
     </g>
     <g id="line2d_6">
      <g>
       <use xlink:href="#m3d1fa8d643" x="176.468933" y="303.64" style="stroke: #000000; stroke-width: 0.8"/>
      </g>
     </g>
     <g id="text_3">
      <!-- 0.050 -->
      <g transform="translate(162.154871 318.238437) scale(0.1 -0.1)">
       <use xlink:href="#DejaVuSans-30"/>
       <use xlink:href="#DejaVuSans-2e" transform="translate(63.623047 0)"/>
       <use xlink:href="#DejaVuSans-30" transform="translate(95.410156 0)"/>
       <use xlink:href="#DejaVuSans-35" transform="translate(159.033203 0)"/>
       <use xlink:href="#DejaVuSans-30" transform="translate(222.65625 0)"/>
      </g>
     </g>
    </g>
    <g id="xtick_4">
     <g id="line2d_7">
      <path d="M 226.167047 303.64 
L 226.167047 26.88 
" clip-path="url(#p25dc17f747)" style="fill: none; stroke: #b0b0b0; stroke-opacity: 0.3; stroke-width: 0.8; stroke-linecap: square"/>
     </g>
     <g id="line2d_8">
      <g>
       <use xlink:href="#m3d1fa8d643" x="226.167047" y="303.64" style="stroke: #000000; stroke-width: 0.8"/>
      </g>
     </g>
     <g id="text_4">
      <!-- 0.075 -->
      <g transform="translate(211.852985 318.238437) scale(0.1 -0.1)">
       <defs>
        <path id="DejaVuSans-37" d="M 525 4666 
L 3525 4666 
L 3525 4397 
L 1831 0 
L 1172 0 
L 2766 4134 
L 525 4134 
L 525 4666 
z
" transform="scale(0.015625)"/>
       </defs>
       <use xlink:href="#DejaVuSans-30"/>
       <use xlink:href="#DejaVuSans-2e" transform="translate(63.623047 0)"/>
       <use xlink:href="#DejaVuSans-30" transform="translate(95.410156 0)"/>
       <use xlink:href="#DejaVuSans-37" transform="translate(159.033203 0)"/>
       <use xlink:href="#DejaVuSans-35" transform="translate(222.65625 0)"/>
      </g>
     </g>
    </g>
    <g id="xtick_5">
     <g id="line2d_9">
      <path d="M 275.865161 303.64 
L 275.865161 26.88 
" clip-path="url(#p25dc17f747)" style="fill: none; stroke: #b0b0b0; stroke-opacity: 0.3; stroke-width: 0.8; stroke-linecap: square"/>
     </g>
     <g id="line2d_10">
      <g>
       <use xlink:href="#m3d1fa8d643" x="275.865161" y="303.64" style="stroke: #000000; stroke-width: 0.8"/>
      </g>
     </g>
     <g id="text_5">
      <!-- 0.100 -->
      <g transform="translate(261.551099 318.238437) scale(0.1 -0.1)">
       <defs>
        <path id="DejaVuSans-31" d="M 794 531 
L 1825 531 
L 1825 4091 
L 703 3866 
L 703 4441 
L 1819 4666 
L 2450 4666 
L 2450 531 
L 3481 531 
L 3481 0 
L 794 0 
L 794 531 
z
" transform="scale(0.015625)"/>
       </defs>
       <use xlink:href="#DejaVuSans-30"/>
       <use xlink:href="#DejaVuSans-2e" transform="translate(63.623047 0)"/>
       <use xlink:href="#DejaVuSans-31" transform="translate(95.410156 0)"/>
       <use xlink:href="#DejaVuSans-30" transform="translate(159.033203 0)"/>
       <use xlink:href="#DejaVuSans-30" transform="translate(222.65625 0)"/>
      </g>
     </g>
    </g>
    <g id="xtick_6">
     <g id="line2d_11">
      <path d="M 325.563275 303.64 
L 325.563275 26.88 
" clip-path="url(#p25dc17f747)" style="fill: none; stroke: #b0b0b0; stroke-opacity: 0.3; stroke-width: 0.8; stroke-linecap: square"/>
     </g>
     <g id="line2d_12">
      <g>
       <use xlink:href="#m3d1fa8d643" x="325.563275" y="303.64" style="stroke: #000000; stroke-width: 0.8"/>
      </g>
     </g>
     <g id="text_6">
      <!-- 0.125 -->
      <g transform="translate(311.249213 318.238437) scale(0.1 -0.1)">
       <use xlink:href="#DejaVuSans-30"/>
       <use xlink:href="#DejaVuSans-2e" transform="translate(63.623047 0)"/>
       <use xlink:href="#DejaVuSans-31" transform="translate(95.410156 0)"/>
       <use xlink:href="#DejaVuSans-32" transform="translate(159.033203 0)"/>
       <use xlink:href="#DejaVuSans-35" transform="translate(222.65625 0)"/>
      </g>
     </g>
    </g>
    <g id="xtick_7">
     <g id="line2d_13">
      <path d="M 375.26139 303.64 
L 375.26139 26.88 
" clip-path="url(#p25dc17f747)" style="fill: none; stroke: #b0b0b0; stroke-opacity: 0.3; stroke-width: 0.8; stroke-linecap: square"/>
     </g>
     <g id="line2d_14">
      <g>
       <use xlink:href="#m3d1fa8d643" x="375.26139" y="303.64" style="stroke: #000000; stroke-width: 0.8"/>
      </g>
     </g>
     <g id="text_7">
      <!-- 0.150 -->
      <g transform="translate(360.947327 318.238437) scale(0.1 -0.1)">
       <use xlink:href="#DejaVuSans-30"/>
       <use xlink:href="#DejaVuSans-2e" transform="translate(63.623047 0)"/>
       <use xlink:href="#DejaVuSans-31" transform="translate(95.410156 0)"/>
       <use xlink:href="#DejaVuSans-35" transform="translate(159.033203 0)"/>
       <use xlink:href="#DejaVuSans-30" transform="translate(222.65625 0)"/>
      </g>
     </g>
    </g>
    <g id="xtick_8">
     <g id="line2d_15">
      <path d="M 424.959504 303.64 
L 424.959504 26.88 
" clip-path="url(#p25dc17f747)" style="fill: none; stroke: #b0b0b0; stroke-opacity: 0.3; stroke-width: 0.8; stroke-linecap: square"/>
     </g>
     <g id="line2d_16">
      <g>
       <use xlink:href="#m3d1fa8d643" x="424.959504" y="303.64" style="stroke: #000000; stroke-width: 0.8"/>
      </g>
     </g>
     <g id="text_8">
      <!-- 0.175 -->
      <g transform="translate(410.645441 318.238437) scale(0.1 -0.1)">
       <use xlink:href="#DejaVuSans-30"/>
       <use xlink:href="#DejaVuSans-2e" transform="translate(63.623047 0)"/>
       <use xlink:href="#DejaVuSans-31" transform="translate(95.410156 0)"/>
       <use xlink:href="#DejaVuSans-37" transform="translate(159.033203 0)"/>
       <use xlink:href="#DejaVuSans-35" transform="translate(222.65625 0)"/>
      </g>
     </g>
    </g>
    <g id="text_9">
     <!-- Strain [-] -->
     <g transform="translate(232.46875 331.916562) scale(0.1 -0.1)">
      <defs>
       <path id="DejaVuSans-53" d="M 3425 4513 
L 3425 3897 
Q 3066 4069 2747 4153 
Q 2428 4238 2131 4238 
Q 1616 4238 1336 4038 
Q 1056 3838 1056 3469 
Q 1056 3159 1242 3001 
Q 1428 2844 1947 2747 
L 2328 2669 
Q 3034 2534 3370 2195 
Q 3706 1856 3706 1288 
Q 3706 609 3251 259 
Q 2797 -91 1919 -91 
Q 1588 -91 1214 -16 
Q 841 59 441 206 
L 441 856 
Q 825 641 1194 531 
Q 1563 422 1919 422 
Q 2459 422 2753 634 
Q 3047 847 3047 1241 
Q 3047 1584 2836 1778 
Q 2625 1972 2144 2069 
L 1759 2144 
Q 1053 2284 737 2584 
Q 422 2884 422 3419 
Q 422 4038 858 4394 
Q 1294 4750 2059 4750 
Q 2388 4750 2728 4690 
Q 3069 4631 3425 4513 
z
" transform="scale(0.015625)"/>
       <path id="DejaVuSans-74" d="M 1172 4494 
L 1172 3500 
L 2356 3500 
L 2356 3053 
L 1172 3053 
L 1172 1153 
Q 1172 725 1289 603 
Q 1406 481 1766 481 
L 2356 481 
L 2356 0 
L 1766 0 
Q 1100 0 847 248 
Q 594 497 594 1153 
L 594 3053 
L 172 3053 
L 172 3500 
L 594 3500 
L 594 4494 
L 1172 4494 
z
" transform="scale(0.015625)"/>
       <path id="DejaVuSans-72" d="M 2631 2963 
Q 2534 3019 2420 3045 
Q 2306 3072 2169 3072 
Q 1681 3072 1420 2755 
Q 1159 2438 1159 1844 
L 1159 0 
L 581 0 
L 581 3500 
L 1159 3500 
L 1159 2956 
Q 1341 3275 1631 3429 
Q 1922 3584 2338 3584 
Q 2397 3584 2469 3576 
Q 2541 3569 2628 3553 
L 2631 2963 
z
" transform="scale(0.015625)"/>
       <path id="DejaVuSans-61" d="M 2194 1759 
Q 1497 1759 1228 1600 
Q 959 1441 959 1056 
Q 959 750 1161 570 
Q 1363 391 1709 391 
Q 2188 391 2477 730 
Q 2766 1069 2766 1631 
L 2766 1759 
L 2194 1759 
z
M 3341 1997 
L 3341 0 
L 2766 0 
L 2766 531 
Q 2569 213 2275 61 
Q 1981 -91 1556 -91 
Q 1019 -91 701 211 
Q 384 513 384 1019 
Q 384 1609 779 1909 
Q 1175 2209 1959 2209 
L 2766 2209 
L 2766 2266 
Q 2766 2663 2505 2880 
Q 2244 3097 1772 3097 
Q 1472 3097 1187 3025 
Q 903 2953 641 2809 
L 641 3341 
Q 956 3463 1253 3523 
Q 1550 3584 1831 3584 
Q 2591 3584 2966 3190 
Q 3341 2797 3341 1997 
z
" transform="scale(0.015625)"/>
       <path id="DejaVuSans-69" d="M 603 3500 
L 1178 3500 
L 1178 0 
L 603 0 
L 603 3500 
z
M 603 4863 
L 1178 4863 
L 1178 4134 
L 603 4134 
L 603 4863 
z
" transform="scale(0.015625)"/>
       <path id="DejaVuSans-6e" d="M 3513 2113 
L 3513 0 
L 2938 0 
L 2938 2094 
Q 2938 2591 2744 2837 
Q 2550 3084 2163 3084 
Q 1697 3084 1428 2787 
Q 1159 2491 1159 1978 
L 1159 0 
L 581 0 
L 581 3500 
L 1159 3500 
L 1159 2956 
Q 1366 3272 1645 3428 
Q 1925 3584 2291 3584 
Q 2894 3584 3203 3211 
Q 3513 2838 3513 2113 
z
" transform="scale(0.015625)"/>
       <path id="DejaVuSans-20" transform="scale(0.015625)"/>
       <path id="DejaVuSans-5b" d="M 550 4863 
L 1875 4863 
L 1875 4416 
L 1125 4416 
L 1125 -397 
L 1875 -397 
L 1875 -844 
L 550 -844 
L 550 4863 
z
" transform="scale(0.015625)"/>
       <path id="DejaVuSans-2d" d="M 313 2009 
L 1997 2009 
L 1997 1497 
L 313 1497 
L 313 2009 
z
" transform="scale(0.015625)"/>
       <path id="DejaVuSans-5d" d="M 1947 4863 
L 1947 -844 
L 622 -844 
L 622 -397 
L 1369 -397 
L 1369 4416 
L 622 4416 
L 622 4863 
L 1947 4863 
z
" transform="scale(0.015625)"/>
      </defs>
      <use xlink:href="#DejaVuSans-53"/>
      <use xlink:href="#DejaVuSans-74" transform="translate(63.476562 0)"/>
      <use xlink:href="#DejaVuSans-72" transform="translate(102.685547 0)"/>
      <use xlink:href="#DejaVuSans-61" transform="translate(143.798828 0)"/>
      <use xlink:href="#DejaVuSans-69" transform="translate(205.078125 0)"/>
      <use xlink:href="#DejaVuSans-6e" transform="translate(232.861328 0)"/>
      <use xlink:href="#DejaVuSans-20" transform="translate(296.240234 0)"/>
      <use xlink:href="#DejaVuSans-5b" transform="translate(328.027344 0)"/>
      <use xlink:href="#DejaVuSans-2d" transform="translate(367.041016 0)"/>
      <use xlink:href="#DejaVuSans-5d" transform="translate(403.125 0)"/>
     </g>
    </g>
   </g>
   <g id="matplotlib.axis_2">
    <g id="ytick_1">
     <g id="line2d_17">
      <path d="M 59.15 299.98533 
L 450 299.98533 
" clip-path="url(#p25dc17f747)" style="fill: none; stroke: #b0b0b0; stroke-opacity: 0.3; stroke-width: 0.8; stroke-linecap: square"/>
     </g>
     <g id="line2d_18">
      <defs>
       <path id="md7d8af037c" d="M 0 0 
L -3.5 0 
" style="stroke: #000000; stroke-width: 0.8"/>
      </defs>
      <g>
       <use xlink:href="#md7d8af037c" x="59.15" y="299.98533" style="stroke: #000000; stroke-width: 0.8"/>
      </g>
     </g>
     <g id="text_10">
      <!-- −250 -->
      <g transform="translate(24.682813 303.784548) scale(0.1 -0.1)">
       <defs>
        <path id="DejaVuSans-2212" d="M 678 2272 
L 4684 2272 
L 4684 1741 
L 678 1741 
L 678 2272 
z
" transform="scale(0.015625)"/>
       </defs>
       <use xlink:href="#DejaVuSans-2212"/>
       <use xlink:href="#DejaVuSans-32" transform="translate(83.789062 0)"/>
       <use xlink:href="#DejaVuSans-35" transform="translate(147.412109 0)"/>
       <use xlink:href="#DejaVuSans-30" transform="translate(211.035156 0)"/>
      </g>
     </g>
    </g>
    <g id="ytick_2">
     <g id="line2d_19">
      <path d="M 59.15 265.677053 
L 450 265.677053 
" clip-path="url(#p25dc17f747)" style="fill: none; stroke: #b0b0b0; stroke-opacity: 0.3; stroke-width: 0.8; stroke-linecap: square"/>
     </g>
     <g id="line2d_20">
      <g>
       <use xlink:href="#md7d8af037c" x="59.15" y="265.677053" style="stroke: #000000; stroke-width: 0.8"/>
      </g>
     </g>
     <g id="text_11">
      <!-- 0 -->
      <g transform="translate(45.7875 269.476272) scale(0.1 -0.1)">
       <use xlink:href="#DejaVuSans-30"/>
      </g>
     </g>
    </g>
    <g id="ytick_3">
     <g id="line2d_21">
      <path d="M 59.15 231.368776 
L 450 231.368776 
" clip-path="url(#p25dc17f747)" style="fill: none; stroke: #b0b0b0; stroke-opacity: 0.3; stroke-width: 0.8; stroke-linecap: square"/>
     </g>
     <g id="line2d_22">
      <g>
       <use xlink:href="#md7d8af037c" x="59.15" y="231.368776" style="stroke: #000000; stroke-width: 0.8"/>
      </g>
     </g>
     <g id="text_12">
      <!-- 250 -->
      <g transform="translate(33.0625 235.167995) scale(0.1 -0.1)">
       <use xlink:href="#DejaVuSans-32"/>
       <use xlink:href="#DejaVuSans-35" transform="translate(63.623047 0)"/>
       <use xlink:href="#DejaVuSans-30" transform="translate(127.246094 0)"/>
      </g>
     </g>
    </g>
    <g id="ytick_4">
     <g id="line2d_23">
      <path d="M 59.15 197.060499 
L 450 197.060499 
" clip-path="url(#p25dc17f747)" style="fill: none; stroke: #b0b0b0; stroke-opacity: 0.3; stroke-width: 0.8; stroke-linecap: square"/>
     </g>
     <g id="line2d_24">
      <g>
       <use xlink:href="#md7d8af037c" x="59.15" y="197.060499" style="stroke: #000000; stroke-width: 0.8"/>
      </g>
     </g>
     <g id="text_13">
      <!-- 500 -->
      <g transform="translate(33.0625 200.859718) scale(0.1 -0.1)">
       <use xlink:href="#DejaVuSans-35"/>
       <use xlink:href="#DejaVuSans-30" transform="translate(63.623047 0)"/>
       <use xlink:href="#DejaVuSans-30" transform="translate(127.246094 0)"/>
      </g>
     </g>
    </g>
    <g id="ytick_5">
     <g id="line2d_25">
      <path d="M 59.15 162.752222 
L 450 162.752222 
" clip-path="url(#p25dc17f747)" style="fill: none; stroke: #b0b0b0; stroke-opacity: 0.3; stroke-width: 0.8; stroke-linecap: square"/>
     </g>
     <g id="line2d_26">
      <g>
       <use xlink:href="#md7d8af037c" x="59.15" y="162.752222" style="stroke: #000000; stroke-width: 0.8"/>
      </g>
     </g>
     <g id="text_14">
      <!-- 750 -->
      <g transform="translate(33.0625 166.551441) scale(0.1 -0.1)">
       <use xlink:href="#DejaVuSans-37"/>
       <use xlink:href="#DejaVuSans-35" transform="translate(63.623047 0)"/>
       <use xlink:href="#DejaVuSans-30" transform="translate(127.246094 0)"/>
      </g>
     </g>
    </g>
    <g id="ytick_6">
     <g id="line2d_27">
      <path d="M 59.15 128.443946 
L 450 128.443946 
" clip-path="url(#p25dc17f747)" style="fill: none; stroke: #b0b0b0; stroke-opacity: 0.3; stroke-width: 0.8; stroke-linecap: square"/>
     </g>
     <g id="line2d_28">
      <g>
       <use xlink:href="#md7d8af037c" x="59.15" y="128.443946" style="stroke: #000000; stroke-width: 0.8"/>
      </g>
     </g>
     <g id="text_15">
      <!-- 1000 -->
      <g transform="translate(26.7 132.243164) scale(0.1 -0.1)">
       <use xlink:href="#DejaVuSans-31"/>
       <use xlink:href="#DejaVuSans-30" transform="translate(63.623047 0)"/>
       <use xlink:href="#DejaVuSans-30" transform="translate(127.246094 0)"/>
       <use xlink:href="#DejaVuSans-30" transform="translate(190.869141 0)"/>
      </g>
     </g>
    </g>
    <g id="ytick_7">
     <g id="line2d_29">
      <path d="M 59.15 94.135669 
L 450 94.135669 
" clip-path="url(#p25dc17f747)" style="fill: none; stroke: #b0b0b0; stroke-opacity: 0.3; stroke-width: 0.8; stroke-linecap: square"/>
     </g>
     <g id="line2d_30">
      <g>
       <use xlink:href="#md7d8af037c" x="59.15" y="94.135669" style="stroke: #000000; stroke-width: 0.8"/>
      </g>
     </g>
     <g id="text_16">
      <!-- 1250 -->
      <g transform="translate(26.7 97.934888) scale(0.1 -0.1)">
       <use xlink:href="#DejaVuSans-31"/>
       <use xlink:href="#DejaVuSans-32" transform="translate(63.623047 0)"/>
       <use xlink:href="#DejaVuSans-35" transform="translate(127.246094 0)"/>
       <use xlink:href="#DejaVuSans-30" transform="translate(190.869141 0)"/>
      </g>
     </g>
    </g>
    <g id="ytick_8">
     <g id="line2d_31">
      <path d="M 59.15 59.827392 
L 450 59.827392 
" clip-path="url(#p25dc17f747)" style="fill: none; stroke: #b0b0b0; stroke-opacity: 0.3; stroke-width: 0.8; stroke-linecap: square"/>
     </g>
     <g id="line2d_32">
      <g>
       <use xlink:href="#md7d8af037c" x="59.15" y="59.827392" style="stroke: #000000; stroke-width: 0.8"/>
      </g>
     </g>
     <g id="text_17">
      <!-- 1500 -->
      <g transform="translate(26.7 63.626611) scale(0.1 -0.1)">
       <use xlink:href="#DejaVuSans-31"/>
       <use xlink:href="#DejaVuSans-35" transform="translate(63.623047 0)"/>
       <use xlink:href="#DejaVuSans-30" transform="translate(127.246094 0)"/>
       <use xlink:href="#DejaVuSans-30" transform="translate(190.869141 0)"/>
      </g>
     </g>
    </g>
    <g id="text_18">
     <!-- Stress [Pa] -->
     <g transform="translate(18.603125 191.967812) rotate(-90) scale(0.1 -0.1)">
      <defs>
       <path id="DejaVuSans-65" d="M 3597 1894 
L 3597 1613 
L 953 1613 
Q 991 1019 1311 708 
Q 1631 397 2203 397 
Q 2534 397 2845 478 
Q 3156 559 3463 722 
L 3463 178 
Q 3153 47 2828 -22 
Q 2503 -91 2169 -91 
Q 1331 -91 842 396 
Q 353 884 353 1716 
Q 353 2575 817 3079 
Q 1281 3584 2069 3584 
Q 2775 3584 3186 3129 
Q 3597 2675 3597 1894 
z
M 3022 2063 
Q 3016 2534 2758 2815 
Q 2500 3097 2075 3097 
Q 1594 3097 1305 2825 
Q 1016 2553 972 2059 
L 3022 2063 
z
" transform="scale(0.015625)"/>
       <path id="DejaVuSans-73" d="M 2834 3397 
L 2834 2853 
Q 2591 2978 2328 3040 
Q 2066 3103 1784 3103 
Q 1356 3103 1142 2972 
Q 928 2841 928 2578 
Q 928 2378 1081 2264 
Q 1234 2150 1697 2047 
L 1894 2003 
Q 2506 1872 2764 1633 
Q 3022 1394 3022 966 
Q 3022 478 2636 193 
Q 2250 -91 1575 -91 
Q 1294 -91 989 -36 
Q 684 19 347 128 
L 347 722 
Q 666 556 975 473 
Q 1284 391 1588 391 
Q 1994 391 2212 530 
Q 2431 669 2431 922 
Q 2431 1156 2273 1281 
Q 2116 1406 1581 1522 
L 1381 1569 
Q 847 1681 609 1914 
Q 372 2147 372 2553 
Q 372 3047 722 3315 
Q 1072 3584 1716 3584 
Q 2034 3584 2315 3537 
Q 2597 3491 2834 3397 
z
" transform="scale(0.015625)"/>
       <path id="DejaVuSans-50" d="M 1259 4147 
L 1259 2394 
L 2053 2394 
Q 2494 2394 2734 2622 
Q 2975 2850 2975 3272 
Q 2975 3691 2734 3919 
Q 2494 4147 2053 4147 
L 1259 4147 
z
M 628 4666 
L 2053 4666 
Q 2838 4666 3239 4311 
Q 3641 3956 3641 3272 
Q 3641 2581 3239 2228 
Q 2838 1875 2053 1875 
L 1259 1875 
L 1259 0 
L 628 0 
L 628 4666 
z
" transform="scale(0.015625)"/>
      </defs>
      <use xlink:href="#DejaVuSans-53"/>
      <use xlink:href="#DejaVuSans-74" transform="translate(63.476562 0)"/>
      <use xlink:href="#DejaVuSans-72" transform="translate(102.685547 0)"/>
      <use xlink:href="#DejaVuSans-65" transform="translate(141.548828 0)"/>
      <use xlink:href="#DejaVuSans-73" transform="translate(203.072266 0)"/>
      <use xlink:href="#DejaVuSans-73" transform="translate(255.171875 0)"/>
      <use xlink:href="#DejaVuSans-20" transform="translate(307.271484 0)"/>
      <use xlink:href="#DejaVuSans-5b" transform="translate(339.058594 0)"/>
      <use xlink:href="#DejaVuSans-50" transform="translate(378.072266 0)"/>
      <use xlink:href="#DejaVuSans-61" transform="translate(433.875 0)"/>
      <use xlink:href="#DejaVuSans-5d" transform="translate(495.154297 0)"/>
     </g>
    </g>
   </g>
   <g id="line2d_33">
    <path d="M 77.072705 266.513138 
L 77.072705 266.571448 
L 77.072625 266.288935 
L 77.099938 266.461289 
L 77.820041 261.655137 
L 78.608707 257.188364 
L 79.407665 255.943222 
L 80.935706 252.666045 
L 81.824039 251.493807 
L 82.628956 251.326954 
L 84.223622 251.890508 
L 84.973288 251.940412 
L 86.586371 251.640843 
L 95.231366 249.219991 
L 96.000533 249.120327 
L 96.780533 249.153108 
L 98.381699 249.611068 
L 100.026198 250.432677 
L 103.406197 252.44041 
L 105.124363 253.319879 
L 105.984529 253.658937 
L 106.846862 253.867811 
L 108.565028 253.913285 
L 111.98836 253.419524 
L 112.83986 253.49749 
L 116.211192 254.280043 
L 117.038858 254.269412 
L 117.860024 254.085996 
L 118.676857 253.706436 
L 119.482857 253.137096 
L 123.447855 249.762715 
L 125.779188 248.37871 
L 129.590353 246.263357 
L 133.312685 244.071629 
L 136.233351 242.286077 
L 138.395683 240.738907 
L 142.313015 237.844762 
L 144.432014 236.488529 
L 154.933848 230.756942 
L 157.01818 229.61479 
L 162.218178 226.229992 
L 166.391176 223.571915 
L 171.645341 220.911523 
L 175.861673 218.888746 
L 180.073671 216.619486 
L 186.385169 212.693123 
L 189.550667 210.752507 
L 192.7205 209.046801 
L 199.073164 205.793925 
L 201.18783 204.605486 
L 211.442659 198.15528 
L 215.719657 195.599036 
L 222.891414 191.615053 
L 228.656912 188.172397 
L 235.904409 183.660493 
L 241.002574 180.765191 
L 246.826572 177.395438 
L 255.514902 172.176488 
L 259.828733 169.571642 
L 266.261564 165.654536 
L 276.514227 159.178872 
L 292.239887 148.023511 
L 303.775216 140.796827 
L 307.956881 137.867966 
L 312.140713 135.000436 
L 321.559209 128.914747 
L 326.783041 125.122618 
L 332.019872 120.955559 
L 336.236204 117.661024 
L 340.480702 114.646531 
L 347.947032 109.468091 
L 352.939031 105.766224 
L 357.233362 102.589723 
L 365.869692 96.352441 
L 369.479357 93.859843 
L 373.812689 90.571094 
L 378.150354 87.035863 
L 385.406518 81.232529 
L 389.776683 77.999326 
L 397.026008 73.045229 
L 401.669173 69.985605 
L 404.817339 68.167651 
L 409.874337 65.60215 
L 412.749502 64.394616 
L 418.790166 61.869038 
L 421.021832 60.835663 
L 423.613165 59.208068 
L 425.088664 58.03525 
L 426.655163 56.610743 
L 427.452496 55.750369 
L 429.015746 53.469537 
L 429.758912 52.038087 
L 430.480141 50.139129 
L 431.205974 47.531969 
L 431.915794 47.018083 
L 432.234091 49.093893 
L 432.058117 69.770457 
L 432.059133 86.346356 
L 432.058896 86.308946 
L 431.342068 86.742134 
L 429.868397 89.587858 
L 429.12848 89.291399 
L 428.405897 89.294997 
L 426.192648 90.149785 
L 425.424836 90.450873 
L 424.693315 90.229234 
L 423.94744 91.230352 
L 423.211045 93.015904 
L 422.489274 94.131151 
L 421.758295 94.779759 
L 420.323421 94.788112 
L 417.421985 96.306859 
L 416.696287 98.254418 
L 415.971266 99.363011 
L 414.490418 100.193244 
L 413.778127 100.522069 
L 413.052294 100.992252 
L 412.326325 101.658073 
L 411.594263 102.515988 
L 410.140566 103.738131 
L 406.475921 106.314337 
L 405.736276 107.081268 
L 404.990943 107.591157 
L 402.798277 109.433556 
L 402.085715 109.823459 
L 399.192809 112.400243 
L 398.468737 113.061291 
L 397.032237 114.046615 
L 392.69376 117.540911 
L 385.452627 123.185709 
L 383.293545 124.69715 
L 382.56866 125.399279 
L 379.667122 127.544709 
L 378.946434 127.88478 
L 377.498018 129.069025 
L 374.557582 131.418059 
L 371.681875 133.326418 
L 370.937083 134.034766 
L 364.367211 138.684159 
L 362.912024 139.928216 
L 358.582772 142.877708 
L 357.118377 143.931985 
L 352.763378 146.902216 
L 352.041337 147.493398 
L 348.379942 149.841275 
L 341.094224 154.941829 
L 338.13835 156.803178 
L 333.786873 160.142698 
L 328.74301 163.467826 
L 327.283219 164.387796 
L 325.820195 165.562774 
L 324.345237 166.458516 
L 322.206467 167.796812 
L 320.773217 168.761551 
L 318.574322 170.062528 
L 317.093136 171.073989 
L 315.661511 171.830143 
L 314.206324 172.703175 
L 312.75845 173.893784 
L 309.851868 175.53541 
L 306.929289 177.611536 
L 304.747998 178.648997 
L 301.849812 180.570303 
L 301.122896 181.034989 
L 299.673396 181.741963 
L 296.10571 184.092009 
L 293.91169 185.310536 
L 292.450951 186.317223 
L 290.970255 187.356014 
L 288.059881 189.170532 
L 286.607673 190.020203 
L 283.679425 191.723124 
L 282.938696 192.250515 
L 280.043759 193.58346 
L 278.58451 194.696537 
L 275.661813 196.290935 
L 274.208793 197.40083 
L 271.283117 198.857133 
L 269.849461 200.10401 
L 269.112118 200.500422 
L 266.926494 201.266413 
L 266.189556 201.646985 
L 264.756036 202.732724 
L 261.09234 204.510465 
L 257.47956 206.848216 
L 256.757518 207.224015 
L 255.304786 207.772779 
L 251.659641 210.136133 
L 250.229371 210.781993 
L 247.304101 212.430996 
L 245.852435 213.134643 
L 242.176145 215.407953 
L 240.704708 216.129102 
L 239.224605 216.954906 
L 238.506896 217.172747 
L 234.154877 219.735921 
L 232.71269 220.516449 
L 231.999316 220.988368 
L 229.118463 222.196624 
L 228.380442 222.581898 
L 227.657859 223.187545 
L 225.483204 224.367306 
L 224.053746 224.877773 
L 221.871101 226.364697 
L 221.126039 226.586697 
L 218.933381 227.586717 
L 217.475351 228.622335 
L 213.838331 230.388974 
L 212.40779 231.172829 
L 208.813833 232.782596 
L 197.905475 238.596155 
L 194.98833 239.837536 
L 190.61979 242.061159 
L 189.158645 242.789902 
L 186.238115 244.278345 
L 185.494677 244.798359 
L 184.025213 245.30943 
L 183.300192 245.531973 
L 180.363141 247.154722 
L 178.218413 248.289351 
L 174.512331 250.058992 
L 170.827103 251.822919 
L 169.398999 252.530327 
L 168.688333 252.946122 
L 167.971979 253.137312 
L 165.805838 253.975069 
L 165.086505 254.158901 
L 157.046956 258.279818 
L 155.562248 258.870602 
L 154.822332 259.318509 
L 154.081332 259.627733 
L 153.337083 260.097048 
L 149.701417 261.634653 
L 148.229151 262.503197 
L 146.76801 263.181602 
L 142.409355 264.884316 
L 140.934398 265.614831 
L 136.601066 267.584522 
L 135.856275 267.860079 
L 135.115816 268.278622 
L 133.663067 268.910053 
L 132.941026 269.313263 
L 131.49288 269.654595 
L 127.848891 271.757758 
L 126.383683 271.999481 
L 125.6676 272.28775 
L 124.949215 272.769649 
L 122.767383 273.266926 
L 120.588936 274.478329 
L 119.851457 274.981854 
L 117.684791 275.51589 
L 116.960854 275.884167 
L 116.243417 276.529159 
L 114.041001 277.336086 
L 112.589538 277.728835 
L 111.871288 278.389087 
L 109.70056 278.898949 
L 108.235352 279.672462 
L 107.512092 280.296551 
L 105.326738 280.748609 
L 104.588312 280.957447 
L 103.147073 282.390199 
L 101.675094 282.408272 
L 100.206772 282.665766 
L 99.481751 283.219918 
L 98.745356 284.107595 
L 97.288815 284.061294 
L 95.81318 284.316818 
L 95.079658 284.859292 
L 94.348542 286.254724 
L 93.600772 285.91146 
L 92.854897 285.758331 
L 90.644762 285.843816 
L 89.914325 287.698221 
L 89.2042 287.785865 
L 88.465909 287.522604 
L 86.982285 287.571213 
L 86.25767 287.376853 
L 85.536036 288.662335 
L 84.814536 289.682402 
L 84.082745 289.404024 
L 83.362057 289.332025 
L 81.144881 289.589372 
L 80.429339 290.925643 
L 79.692538 291.06 
L 78.982413 290.671182 
L 78.26484 290.527112 
L 77.545326 290.243689 
L 77.284378 290.001356 
L 77.080644 290.651772 
L 76.915909 289.713529 
L 76.916166 289.716964 
" clip-path="url(#p25dc17f747)" style="fill: none; stroke: #ff0000; stroke-width: 2; stroke-linecap: square"/>
   </g>
   <g id="line2d_34">
    <path d="M 77.072705 266.513138 
L 77.072705 266.571448 
L 77.072625 266.288935 
L 77.099938 266.461289 
L 77.820041 261.655137 
L 78.608707 257.188364 
L 79.407665 255.943222 
L 80.935706 252.666045 
L 81.824039 264.816749 
L 82.628956 264.482682 
L 84.223622 264.51624 
L 84.973288 264.242708 
L 86.586371 263.182284 
L 88.350037 262.014095 
L 90.254536 261.052755 
L 93.736368 259.557948 
L 95.231366 258.665172 
L 97.575699 256.992373 
L 99.198532 256.077031 
L 103.406197 254.193117 
L 104.264196 253.913076 
L 105.984529 253.732554 
L 107.704862 253.945198 
L 109.423028 253.794962 
L 111.134694 253.477312 
L 111.98836 253.419524 
L 112.83986 253.49749 
L 116.211192 254.280043 
L 117.038858 254.269412 
L 117.860024 254.085996 
L 118.676857 253.706436 
L 119.482857 253.137096 
L 123.447855 249.762715 
L 125.779188 248.37871 
L 129.590353 246.263357 
L 133.312685 244.071629 
L 136.233351 242.286077 
L 138.395683 240.738907 
L 142.313015 237.844762 
L 144.432014 236.488529 
L 154.933848 230.756942 
L 157.01818 229.61479 
L 162.218178 226.229992 
L 166.391176 223.571915 
L 171.645341 220.911523 
L 175.861673 218.888746 
L 180.073671 216.619486 
L 186.385169 212.693123 
L 189.550667 210.752507 
L 192.7205 209.046801 
L 199.073164 205.793925 
L 201.18783 204.605486 
L 211.442659 198.15528 
L 215.719657 195.599036 
L 222.891414 191.615053 
L 228.656912 188.172397 
L 235.904409 183.660493 
L 241.002574 180.765191 
L 246.826572 177.395438 
L 255.514902 172.176488 
L 259.828733 169.571642 
L 266.261564 165.654536 
L 276.514227 159.178872 
L 292.239887 148.023511 
L 303.775216 140.796827 
L 307.956881 137.867966 
L 312.140713 135.000436 
L 321.559209 128.914747 
L 326.783041 125.122618 
L 332.019872 120.955559 
L 336.236204 117.661024 
L 340.480702 114.646531 
L 347.947032 109.468091 
L 352.939031 105.766224 
L 357.233362 102.589723 
L 365.869692 96.352441 
L 369.479357 93.859843 
L 373.812689 90.571094 
L 378.150354 87.035863 
L 385.406518 81.232529 
L 389.776683 77.999326 
L 401.669173 69.744756 
L 404.817339 67.822221 
L 409.874337 65.043795 
L 414.580335 62.575353 
L 417.173834 60.791537 
L 419.560416 58.843399 
L 421.021832 57.481959 
L 423.613165 54.885792 
L 425.088664 53.133798 
L 426.655163 51.087877 
L 427.452496 49.916795 
L 429.015746 46.996035 
L 429.758912 45.252142 
L 430.480141 43.060414 
L 431.205974 40.191727 
L 431.915794 39.46 
L 432.234091 41.288748 
L 432.057237 59.063798 
L 432.060487 76.706631 
L 432.058659 76.637054 
L 432.059065 78.411052 
L 432.059133 86.346356 
L 432.058896 86.308946 
L 431.342068 86.742134 
L 429.868397 89.587858 
L 429.12848 89.291399 
L 428.405897 89.294997 
L 426.192648 90.149785 
L 425.424836 90.450873 
L 424.693315 90.229234 
L 423.94744 91.230352 
L 423.211045 93.015904 
L 422.489274 94.131151 
L 421.758295 94.779759 
L 420.323421 94.788112 
L 417.421985 96.306859 
L 416.696287 98.254418 
L 415.971266 99.363011 
L 414.490418 100.193244 
L 413.778127 100.522069 
L 413.052294 100.992252 
L 412.326325 101.658073 
L 411.594263 102.515988 
L 410.140566 103.738131 
L 406.475921 106.314337 
L 405.736276 107.081268 
L 404.990943 107.591157 
L 402.798277 109.433556 
L 402.085715 109.823459 
L 399.192809 112.400243 
L 398.468737 113.061291 
L 397.032237 114.046615 
L 392.69376 117.540911 
L 385.452627 123.185709 
L 383.293545 124.69715 
L 382.56866 125.399279 
L 379.667122 127.544709 
L 378.946434 127.88478 
L 377.498018 129.069025 
L 374.557582 131.418059 
L 371.681875 133.326418 
L 370.937083 134.034766 
L 364.367211 138.684159 
L 362.912024 139.928216 
L 358.582772 142.877708 
L 357.118377 143.931985 
L 352.763378 146.902216 
L 352.041337 147.493398 
L 348.379942 149.841275 
L 341.094224 154.941829 
L 338.13835 156.803178 
L 333.786873 160.142698 
L 328.74301 163.467826 
L 327.283219 164.387796 
L 325.820195 165.562774 
L 324.345237 166.458516 
L 322.206467 167.796812 
L 320.773217 168.761551 
L 318.574322 170.062528 
L 317.093136 171.073989 
L 315.661511 171.830143 
L 314.206324 172.703175 
L 312.75845 173.893784 
L 309.851868 175.53541 
L 306.929289 177.611536 
L 304.747998 178.648997 
L 301.849812 180.570303 
L 301.122896 181.034989 
L 299.673396 181.741963 
L 296.10571 184.092009 
L 293.91169 185.310536 
L 292.450951 186.317223 
L 290.970255 187.356014 
L 288.059881 189.170532 
L 286.607673 190.020203 
L 283.679425 191.723124 
L 282.938696 192.250515 
L 280.043759 193.58346 
L 278.58451 194.696537 
L 275.661813 196.290935 
L 274.208793 197.40083 
L 271.283117 198.857133 
L 269.849461 200.10401 
L 269.112118 200.500422 
L 266.926494 201.266413 
L 266.189556 201.646985 
L 264.756036 202.732724 
L 261.09234 204.510465 
L 257.47956 206.848216 
L 256.757518 207.224015 
L 255.304786 207.772779 
L 251.659641 210.136133 
L 250.229371 210.781993 
L 247.304101 212.430996 
L 245.852435 213.134643 
L 242.176145 215.407953 
L 240.704708 216.129102 
L 239.224605 216.954906 
L 238.506896 217.172747 
L 234.154877 219.735921 
L 232.71269 220.516449 
L 231.999316 220.988368 
L 229.118463 222.196624 
L 228.380442 222.581898 
L 227.657859 223.187545 
L 225.483204 224.367306 
L 224.053746 224.877773 
L 221.871101 226.364697 
L 221.126039 226.586697 
L 218.933381 227.586717 
L 217.475351 228.622335 
L 213.838331 230.388974 
L 212.40779 231.172829 
L 208.813833 232.782596 
L 197.905475 238.596155 
L 194.98833 239.837536 
L 190.61979 242.061159 
L 189.158645 242.789902 
L 186.238115 244.278345 
L 185.494677 244.798359 
L 184.025213 245.30943 
L 183.300192 245.531973 
L 180.363141 247.154722 
L 178.218413 248.289351 
L 174.512331 250.058992 
L 170.827103 251.822919 
L 169.398999 252.530327 
L 168.688333 252.946122 
L 167.971979 253.137312 
L 165.805838 253.975069 
L 165.086505 254.158901 
L 157.046956 258.279818 
L 155.562248 258.870602 
L 154.822332 259.318509 
L 154.081332 259.627733 
L 153.337083 260.097048 
L 149.701417 261.634653 
L 148.229151 262.503197 
L 146.76801 263.181602 
L 142.409355 264.884316 
L 140.934398 265.614831 
L 136.601066 267.584522 
L 135.856275 267.860079 
L 135.115816 268.278622 
L 133.663067 268.910053 
L 132.941026 269.313263 
L 131.49288 269.654595 
L 127.848891 271.757758 
L 126.383683 271.999481 
L 125.6676 272.28775 
L 124.949215 272.769649 
L 122.767383 273.266926 
L 120.588936 274.478329 
L 119.851457 274.981854 
L 117.684791 275.51589 
L 116.960854 275.884167 
L 116.243417 276.529159 
L 114.041001 277.336086 
L 112.589538 277.728835 
L 111.871288 278.389087 
L 109.70056 278.898949 
L 108.235352 279.672462 
L 107.512092 280.296551 
L 105.326738 280.748609 
L 104.588312 280.957447 
L 103.147073 282.390199 
L 101.675094 282.408272 
L 100.206772 282.665766 
L 99.481751 283.219918 
L 98.745356 284.107595 
L 97.288815 284.061294 
L 95.81318 284.316818 
L 95.079658 284.859292 
L 94.348542 286.254724 
L 93.600772 285.91146 
L 92.854897 285.758331 
L 90.644762 285.843816 
L 89.914325 287.698221 
L 89.2042 287.785865 
L 88.465909 287.522604 
L 86.982285 287.571213 
L 86.25767 287.376853 
L 85.536036 288.662335 
L 84.814536 289.682402 
L 84.082745 289.404024 
L 83.362057 289.332025 
L 81.144881 289.589372 
L 80.429339 290.925643 
L 79.692538 291.06 
L 78.982413 290.671182 
L 78.26484 290.527112 
L 77.545326 290.243689 
L 77.284378 290.001356 
L 77.080644 290.651772 
L 76.915909 289.713529 
L 76.916166 289.716964 
" clip-path="url(#p25dc17f747)" style="fill: none; stroke: #000000; stroke-width: 2; stroke-linecap: square"/>
   </g>
   <g id="patch_3">
    <path d="M 59.15 303.64 
L 59.15 26.88 
" style="fill: none; stroke: #000000; stroke-width: 0.8; stroke-linejoin: miter; stroke-linecap: square"/>
   </g>
   <g id="patch_4">
    <path d="M 450 303.64 
L 450 26.88 
" style="fill: none; stroke: #000000; stroke-width: 0.8; stroke-linejoin: miter; stroke-linecap: square"/>
   </g>
   <g id="patch_5">
    <path d="M 59.15 303.64 
L 450 303.64 
" style="fill: none; stroke: #000000; stroke-width: 0.8; stroke-linejoin: miter; stroke-linecap: square"/>
   </g>
   <g id="patch_6">
    <path d="M 59.15 26.88 
L 450 26.88 
" style="fill: none; stroke: #000000; stroke-width: 0.8; stroke-linejoin: miter; stroke-linecap: square"/>
   </g>
   <g id="text_19">
    <!-- 2025-06-19 Trial 21 - Stress vs Strain -->
    <g transform="translate(143.320937 20.88) scale(0.12 -0.12)">
     <defs>
      <path id="DejaVuSans-36" d="M 2113 2584 
Q 1688 2584 1439 2293 
Q 1191 2003 1191 1497 
Q 1191 994 1439 701 
Q 1688 409 2113 409 
Q 2538 409 2786 701 
Q 3034 994 3034 1497 
Q 3034 2003 2786 2293 
Q 2538 2584 2113 2584 
z
M 3366 4563 
L 3366 3988 
Q 3128 4100 2886 4159 
Q 2644 4219 2406 4219 
Q 1781 4219 1451 3797 
Q 1122 3375 1075 2522 
Q 1259 2794 1537 2939 
Q 1816 3084 2150 3084 
Q 2853 3084 3261 2657 
Q 3669 2231 3669 1497 
Q 3669 778 3244 343 
Q 2819 -91 2113 -91 
Q 1303 -91 875 529 
Q 447 1150 447 2328 
Q 447 3434 972 4092 
Q 1497 4750 2381 4750 
Q 2619 4750 2861 4703 
Q 3103 4656 3366 4563 
z
" transform="scale(0.015625)"/>
      <path id="DejaVuSans-39" d="M 703 97 
L 703 672 
Q 941 559 1184 500 
Q 1428 441 1663 441 
Q 2288 441 2617 861 
Q 2947 1281 2994 2138 
Q 2813 1869 2534 1725 
Q 2256 1581 1919 1581 
Q 1219 1581 811 2004 
Q 403 2428 403 3163 
Q 403 3881 828 4315 
Q 1253 4750 1959 4750 
Q 2769 4750 3195 4129 
Q 3622 3509 3622 2328 
Q 3622 1225 3098 567 
Q 2575 -91 1691 -91 
Q 1453 -91 1209 -44 
Q 966 3 703 97 
z
M 1959 2075 
Q 2384 2075 2632 2365 
Q 2881 2656 2881 3163 
Q 2881 3666 2632 3958 
Q 2384 4250 1959 4250 
Q 1534 4250 1286 3958 
Q 1038 3666 1038 3163 
Q 1038 2656 1286 2365 
Q 1534 2075 1959 2075 
z
" transform="scale(0.015625)"/>
      <path id="DejaVuSans-54" d="M -19 4666 
L 3928 4666 
L 3928 4134 
L 2272 4134 
L 2272 0 
L 1638 0 
L 1638 4134 
L -19 4134 
L -19 4666 
z
" transform="scale(0.015625)"/>
      <path id="DejaVuSans-6c" d="M 603 4863 
L 1178 4863 
L 1178 0 
L 603 0 
L 603 4863 
z
" transform="scale(0.015625)"/>
      <path id="DejaVuSans-76" d="M 191 3500 
L 800 3500 
L 1894 563 
L 2988 3500 
L 3597 3500 
L 2284 0 
L 1503 0 
L 191 3500 
z
" transform="scale(0.015625)"/>
     </defs>
     <use xlink:href="#DejaVuSans-32"/>
     <use xlink:href="#DejaVuSans-30" transform="translate(63.623047 0)"/>
     <use xlink:href="#DejaVuSans-32" transform="translate(127.246094 0)"/>
     <use xlink:href="#DejaVuSans-35" transform="translate(190.869141 0)"/>
     <use xlink:href="#DejaVuSans-2d" transform="translate(254.492188 0)"/>
     <use xlink:href="#DejaVuSans-30" transform="translate(290.576172 0)"/>
     <use xlink:href="#DejaVuSans-36" transform="translate(354.199219 0)"/>
     <use xlink:href="#DejaVuSans-2d" transform="translate(417.822266 0)"/>
     <use xlink:href="#DejaVuSans-31" transform="translate(453.90625 0)"/>
     <use xlink:href="#DejaVuSans-39" transform="translate(517.529297 0)"/>
     <use xlink:href="#DejaVuSans-20" transform="translate(581.152344 0)"/>
     <use xlink:href="#DejaVuSans-54" transform="translate(612.939453 0)"/>
     <use xlink:href="#DejaVuSans-72" transform="translate(659.273438 0)"/>
     <use xlink:href="#DejaVuSans-69" transform="translate(700.386719 0)"/>
     <use xlink:href="#DejaVuSans-61" transform="translate(728.169922 0)"/>
     <use xlink:href="#DejaVuSans-6c" transform="translate(789.449219 0)"/>
     <use xlink:href="#DejaVuSans-20" transform="translate(817.232422 0)"/>
     <use xlink:href="#DejaVuSans-32" transform="translate(849.019531 0)"/>
     <use xlink:href="#DejaVuSans-31" transform="translate(912.642578 0)"/>
     <use xlink:href="#DejaVuSans-20" transform="translate(976.265625 0)"/>
     <use xlink:href="#DejaVuSans-2d" transform="translate(1008.052734 0)"/>
     <use xlink:href="#DejaVuSans-20" transform="translate(1044.136719 0)"/>
     <use xlink:href="#DejaVuSans-53" transform="translate(1075.923828 0)"/>
     <use xlink:href="#DejaVuSans-74" transform="translate(1139.400391 0)"/>
     <use xlink:href="#DejaVuSans-72" transform="translate(1178.609375 0)"/>
     <use xlink:href="#DejaVuSans-65" transform="translate(1217.472656 0)"/>
     <use xlink:href="#DejaVuSans-73" transform="translate(1278.996094 0)"/>
     <use xlink:href="#DejaVuSans-73" transform="translate(1331.095703 0)"/>
     <use xlink:href="#DejaVuSans-20" transform="translate(1383.195312 0)"/>
     <use xlink:href="#DejaVuSans-76" transform="translate(1414.982422 0)"/>
     <use xlink:href="#DejaVuSans-73" transform="translate(1474.162109 0)"/>
     <use xlink:href="#DejaVuSans-20" transform="translate(1526.261719 0)"/>
     <use xlink:href="#DejaVuSans-53" transform="translate(1558.048828 0)"/>
     <use xlink:href="#DejaVuSans-74" transform="translate(1621.525391 0)"/>
     <use xlink:href="#DejaVuSans-72" transform="translate(1660.734375 0)"/>
     <use xlink:href="#DejaVuSans-61" transform="translate(1701.847656 0)"/>
     <use xlink:href="#DejaVuSans-69" transform="translate(1763.126953 0)"/>
     <use xlink:href="#DejaVuSans-6e" transform="translate(1790.910156 0)"/>
    </g>
   </g>
   <g id="legend_1">
    <g id="patch_7">
     <path d="M 66.15 64.23625 
L 172.134375 64.23625 
Q 174.134375 64.23625 174.134375 62.23625 
L 174.134375 33.88 
Q 174.134375 31.88 172.134375 31.88 
L 66.15 31.88 
Q 64.15 31.88 64.15 33.88 
L 64.15 62.23625 
Q 64.15 64.23625 66.15 64.23625 
z
" style="fill: #ffffff; opacity: 0.8; stroke: #cccccc; stroke-linejoin: miter"/>
    </g>
    <g id="line2d_35">
     <path d="M 68.15 39.978437 
L 78.15 39.978437 
L 88.15 39.978437 
" style="fill: none; stroke: #ff0000; stroke-width: 2; stroke-linecap: square"/>
    </g>
    <g id="text_20">
     <!-- Raw Force -->
     <g transform="translate(96.15 43.478437) scale(0.1 -0.1)">
      <defs>
       <path id="DejaVuSans-52" d="M 2841 2188 
Q 3044 2119 3236 1894 
Q 3428 1669 3622 1275 
L 4263 0 
L 3584 0 
L 2988 1197 
Q 2756 1666 2539 1819 
Q 2322 1972 1947 1972 
L 1259 1972 
L 1259 0 
L 628 0 
L 628 4666 
L 2053 4666 
Q 2853 4666 3247 4331 
Q 3641 3997 3641 3322 
Q 3641 2881 3436 2590 
Q 3231 2300 2841 2188 
z
M 1259 4147 
L 1259 2491 
L 2053 2491 
Q 2509 2491 2742 2702 
Q 2975 2913 2975 3322 
Q 2975 3731 2742 3939 
Q 2509 4147 2053 4147 
L 1259 4147 
z
" transform="scale(0.015625)"/>
       <path id="DejaVuSans-77" d="M 269 3500 
L 844 3500 
L 1563 769 
L 2278 3500 
L 2956 3500 
L 3675 769 
L 4391 3500 
L 4966 3500 
L 4050 0 
L 3372 0 
L 2619 2869 
L 1863 0 
L 1184 0 
L 269 3500 
z
" transform="scale(0.015625)"/>
       <path id="DejaVuSans-46" d="M 628 4666 
L 3309 4666 
L 3309 4134 
L 1259 4134 
L 1259 2759 
L 3109 2759 
L 3109 2228 
L 1259 2228 
L 1259 0 
L 628 0 
L 628 4666 
z
" transform="scale(0.015625)"/>
       <path id="DejaVuSans-6f" d="M 1959 3097 
Q 1497 3097 1228 2736 
Q 959 2375 959 1747 
Q 959 1119 1226 758 
Q 1494 397 1959 397 
Q 2419 397 2687 759 
Q 2956 1122 2956 1747 
Q 2956 2369 2687 2733 
Q 2419 3097 1959 3097 
z
M 1959 3584 
Q 2709 3584 3137 3096 
Q 3566 2609 3566 1747 
Q 3566 888 3137 398 
Q 2709 -91 1959 -91 
Q 1206 -91 779 398 
Q 353 888 353 1747 
Q 353 2609 779 3096 
Q 1206 3584 1959 3584 
z
" transform="scale(0.015625)"/>
       <path id="DejaVuSans-63" d="M 3122 3366 
L 3122 2828 
Q 2878 2963 2633 3030 
Q 2388 3097 2138 3097 
Q 1578 3097 1268 2742 
Q 959 2388 959 1747 
Q 959 1106 1268 751 
Q 1578 397 2138 397 
Q 2388 397 2633 464 
Q 2878 531 3122 666 
L 3122 134 
Q 2881 22 2623 -34 
Q 2366 -91 2075 -91 
Q 1284 -91 818 406 
Q 353 903 353 1747 
Q 353 2603 823 3093 
Q 1294 3584 2113 3584 
Q 2378 3584 2631 3529 
Q 2884 3475 3122 3366 
z
" transform="scale(0.015625)"/>
      </defs>
      <use xlink:href="#DejaVuSans-52"/>
      <use xlink:href="#DejaVuSans-61" transform="translate(67.232422 0)"/>
      <use xlink:href="#DejaVuSans-77" transform="translate(128.511719 0)"/>
      <use xlink:href="#DejaVuSans-20" transform="translate(210.298828 0)"/>
      <use xlink:href="#DejaVuSans-46" transform="translate(242.085938 0)"/>
      <use xlink:href="#DejaVuSans-6f" transform="translate(295.980469 0)"/>
      <use xlink:href="#DejaVuSans-72" transform="translate(357.162109 0)"/>
      <use xlink:href="#DejaVuSans-63" transform="translate(396.025391 0)"/>
      <use xlink:href="#DejaVuSans-65" transform="translate(451.005859 0)"/>
     </g>
    </g>
    <g id="line2d_36">
     <path d="M 68.15 54.656563 
L 78.15 54.656563 
L 88.15 54.656563 
" style="fill: none; stroke: #000000; stroke-width: 2; stroke-linecap: square"/>
    </g>
    <g id="text_21">
     <!-- Adjusted Force -->
     <g transform="translate(96.15 58.156563) scale(0.1 -0.1)">
      <defs>
       <path id="DejaVuSans-41" d="M 2188 4044 
L 1331 1722 
L 3047 1722 
L 2188 4044 
z
M 1831 4666 
L 2547 4666 
L 4325 0 
L 3669 0 
L 3244 1197 
L 1141 1197 
L 716 0 
L 50 0 
L 1831 4666 
z
" transform="scale(0.015625)"/>
       <path id="DejaVuSans-64" d="M 2906 2969 
L 2906 4863 
L 3481 4863 
L 3481 0 
L 2906 0 
L 2906 525 
Q 2725 213 2448 61 
Q 2172 -91 1784 -91 
Q 1150 -91 751 415 
Q 353 922 353 1747 
Q 353 2572 751 3078 
Q 1150 3584 1784 3584 
Q 2172 3584 2448 3432 
Q 2725 3281 2906 2969 
z
M 947 1747 
Q 947 1113 1208 752 
Q 1469 391 1925 391 
Q 2381 391 2643 752 
Q 2906 1113 2906 1747 
Q 2906 2381 2643 2742 
Q 2381 3103 1925 3103 
Q 1469 3103 1208 2742 
Q 947 2381 947 1747 
z
" transform="scale(0.015625)"/>
       <path id="DejaVuSans-6a" d="M 603 3500 
L 1178 3500 
L 1178 -63 
Q 1178 -731 923 -1031 
Q 669 -1331 103 -1331 
L -116 -1331 
L -116 -844 
L 38 -844 
Q 366 -844 484 -692 
Q 603 -541 603 -63 
L 603 3500 
z
M 603 4863 
L 1178 4863 
L 1178 4134 
L 603 4134 
L 603 4863 
z
" transform="scale(0.015625)"/>
       <path id="DejaVuSans-75" d="M 544 1381 
L 544 3500 
L 1119 3500 
L 1119 1403 
Q 1119 906 1312 657 
Q 1506 409 1894 409 
Q 2359 409 2629 706 
Q 2900 1003 2900 1516 
L 2900 3500 
L 3475 3500 
L 3475 0 
L 2900 0 
L 2900 538 
Q 2691 219 2414 64 
Q 2138 -91 1772 -91 
Q 1169 -91 856 284 
Q 544 659 544 1381 
z
M 1991 3584 
L 1991 3584 
z
" transform="scale(0.015625)"/>
      </defs>
      <use xlink:href="#DejaVuSans-41"/>
      <use xlink:href="#DejaVuSans-64" transform="translate(66.658203 0)"/>
      <use xlink:href="#DejaVuSans-6a" transform="translate(130.134766 0)"/>
      <use xlink:href="#DejaVuSans-75" transform="translate(157.917969 0)"/>
      <use xlink:href="#DejaVuSans-73" transform="translate(221.296875 0)"/>
      <use xlink:href="#DejaVuSans-74" transform="translate(273.396484 0)"/>
      <use xlink:href="#DejaVuSans-65" transform="translate(312.605469 0)"/>
      <use xlink:href="#DejaVuSans-64" transform="translate(374.128906 0)"/>
      <use xlink:href="#DejaVuSans-20" transform="translate(437.605469 0)"/>
      <use xlink:href="#DejaVuSans-46" transform="translate(469.392578 0)"/>
      <use xlink:href="#DejaVuSans-6f" transform="translate(523.287109 0)"/>
      <use xlink:href="#DejaVuSans-72" transform="translate(584.46875 0)"/>
      <use xlink:href="#DejaVuSans-63" transform="translate(623.332031 0)"/>
      <use xlink:href="#DejaVuSans-65" transform="translate(678.3125 0)"/>
     </g>
    </g>
   </g>
  </g>
 </g>
 <defs>
  <clipPath id="p25dc17f747">
   <rect x="59.15" y="26.88" width="390.85" height="276.76"/>
  </clipPath>
 </defs>
</svg>
