<?xml version="1.0" encoding="utf-8" standalone="no"?>
<!DOCTYPE svg PUBLIC "-//W3C//DTD SVG 1.1//EN"
  "http://www.w3.org/Graphics/SVG/1.1/DTD/svg11.dtd">
<svg xmlns:xlink="http://www.w3.org/1999/xlink" width="460.8pt" height="345.6pt" viewBox="0 0 460.8 345.6" xmlns="http://www.w3.org/2000/svg" version="1.1">
 <metadata>
  <rdf:RDF xmlns:dc="http://purl.org/dc/elements/1.1/" xmlns:cc="http://creativecommons.org/ns#" xmlns:rdf="http://www.w3.org/1999/02/22-rdf-syntax-ns#">
   <cc:Work>
    <dc:type rdf:resource="http://purl.org/dc/dcmitype/StillImage"/>
    <dc:date>2025-07-28T21:14:31.795781</dc:date>
    <dc:format>image/svg+xml</dc:format>
    <dc:creator>
     <cc:Agent>
      <dc:title>Matplotlib v3.10.3, https://matplotlib.org/</dc:title>
     </cc:Agent>
    </dc:creator>
   </cc:Work>
  </rdf:RDF>
 </metadata>
 <defs>
  <style type="text/css">*{stroke-linejoin: round; stroke-linecap: butt}</style>
 </defs>
 <g id="figure_1">
  <g id="patch_1">
   <path d="M 0 345.6 
L 460.8 345.6 
L 460.8 0 
L 0 0 
z
" style="fill: #ffffff"/>
  </g>
  <g id="axes_1">
   <g id="patch_2">
    <path d="M 59.15 303.64 
L 450 303.64 
L 450 26.88 
L 59.15 26.88 
z
" style="fill: #ffffff"/>
   </g>
   <g id="matplotlib.axis_1">
    <g id="xtick_1">
     <g id="line2d_1">
      <path d="M 77.078528 303.64 
L 77.078528 26.88 
" clip-path="url(#pe507cc02f6)" style="fill: none; stroke: #b0b0b0; stroke-opacity: 0.3; stroke-width: 0.8; stroke-linecap: square"/>
     </g>
     <g id="line2d_2">
      <defs>
       <path id="m7738ee5e36" d="M 0 0 
L 0 3.5 
" style="stroke: #000000; stroke-width: 0.8"/>
      </defs>
      <g>
       <use xlink:href="#m7738ee5e36" x="77.078528" y="303.64" style="stroke: #000000; stroke-width: 0.8"/>
      </g>
     </g>
     <g id="text_1">
      <!-- 0.000 -->
      <g transform="translate(62.764466 318.238437) scale(0.1 -0.1)">
       <defs>
        <path id="DejaVuSans-30" d="M 2034 4250 
Q 1547 4250 1301 3770 
Q 1056 3291 1056 2328 
Q 1056 1369 1301 889 
Q 1547 409 2034 409 
Q 2525 409 2770 889 
Q 3016 1369 3016 2328 
Q 3016 3291 2770 3770 
Q 2525 4250 2034 4250 
z
M 2034 4750 
Q 2819 4750 3233 4129 
Q 3647 3509 3647 2328 
Q 3647 1150 3233 529 
Q 2819 -91 2034 -91 
Q 1250 -91 836 529 
Q 422 1150 422 2328 
Q 422 3509 836 4129 
Q 1250 4750 2034 4750 
z
" transform="scale(0.015625)"/>
        <path id="DejaVuSans-2e" d="M 684 794 
L 1344 794 
L 1344 0 
L 684 0 
L 684 794 
z
" transform="scale(0.015625)"/>
       </defs>
       <use xlink:href="#DejaVuSans-30"/>
       <use xlink:href="#DejaVuSans-2e" transform="translate(63.623047 0)"/>
       <use xlink:href="#DejaVuSans-30" transform="translate(95.410156 0)"/>
       <use xlink:href="#DejaVuSans-30" transform="translate(159.033203 0)"/>
       <use xlink:href="#DejaVuSans-30" transform="translate(222.65625 0)"/>
      </g>
     </g>
    </g>
    <g id="xtick_2">
     <g id="line2d_3">
      <path d="M 126.776467 303.64 
L 126.776467 26.88 
" clip-path="url(#pe507cc02f6)" style="fill: none; stroke: #b0b0b0; stroke-opacity: 0.3; stroke-width: 0.8; stroke-linecap: square"/>
     </g>
     <g id="line2d_4">
      <g>
       <use xlink:href="#m7738ee5e36" x="126.776467" y="303.64" style="stroke: #000000; stroke-width: 0.8"/>
      </g>
     </g>
     <g id="text_2">
      <!-- 0.025 -->
      <g transform="translate(112.462404 318.238437) scale(0.1 -0.1)">
       <defs>
        <path id="DejaVuSans-32" d="M 1228 531 
L 3431 531 
L 3431 0 
L 469 0 
L 469 531 
Q 828 903 1448 1529 
Q 2069 2156 2228 2338 
Q 2531 2678 2651 2914 
Q 2772 3150 2772 3378 
Q 2772 3750 2511 3984 
Q 2250 4219 1831 4219 
Q 1534 4219 1204 4116 
Q 875 4013 500 3803 
L 500 4441 
Q 881 4594 1212 4672 
Q 1544 4750 1819 4750 
Q 2544 4750 2975 4387 
Q 3406 4025 3406 3419 
Q 3406 3131 3298 2873 
Q 3191 2616 2906 2266 
Q 2828 2175 2409 1742 
Q 1991 1309 1228 531 
z
" transform="scale(0.015625)"/>
        <path id="DejaVuSans-35" d="M 691 4666 
L 3169 4666 
L 3169 4134 
L 1269 4134 
L 1269 2991 
Q 1406 3038 1543 3061 
Q 1681 3084 1819 3084 
Q 2600 3084 3056 2656 
Q 3513 2228 3513 1497 
Q 3513 744 3044 326 
Q 2575 -91 1722 -91 
Q 1428 -91 1123 -41 
Q 819 9 494 109 
L 494 744 
Q 775 591 1075 516 
Q 1375 441 1709 441 
Q 2250 441 2565 725 
Q 2881 1009 2881 1497 
Q 2881 1984 2565 2268 
Q 2250 2553 1709 2553 
Q 1456 2553 1204 2497 
Q 953 2441 691 2322 
L 691 4666 
z
" transform="scale(0.015625)"/>
       </defs>
       <use xlink:href="#DejaVuSans-30"/>
       <use xlink:href="#DejaVuSans-2e" transform="translate(63.623047 0)"/>
       <use xlink:href="#DejaVuSans-30" transform="translate(95.410156 0)"/>
       <use xlink:href="#DejaVuSans-32" transform="translate(159.033203 0)"/>
       <use xlink:href="#DejaVuSans-35" transform="translate(222.65625 0)"/>
      </g>
     </g>
    </g>
    <g id="xtick_3">
     <g id="line2d_5">
      <path d="M 176.474406 303.64 
L 176.474406 26.88 
" clip-path="url(#pe507cc02f6)" style="fill: none; stroke: #b0b0b0; stroke-opacity: 0.3; stroke-width: 0.8; stroke-linecap: square"/>
     </g>
     <g id="line2d_6">
      <g>
       <use xlink:href="#m7738ee5e36" x="176.474406" y="303.64" style="stroke: #000000; stroke-width: 0.8"/>
      </g>
     </g>
     <g id="text_3">
      <!-- 0.050 -->
      <g transform="translate(162.160343 318.238437) scale(0.1 -0.1)">
       <use xlink:href="#DejaVuSans-30"/>
       <use xlink:href="#DejaVuSans-2e" transform="translate(63.623047 0)"/>
       <use xlink:href="#DejaVuSans-30" transform="translate(95.410156 0)"/>
       <use xlink:href="#DejaVuSans-35" transform="translate(159.033203 0)"/>
       <use xlink:href="#DejaVuSans-30" transform="translate(222.65625 0)"/>
      </g>
     </g>
    </g>
    <g id="xtick_4">
     <g id="line2d_7">
      <path d="M 226.172345 303.64 
L 226.172345 26.88 
" clip-path="url(#pe507cc02f6)" style="fill: none; stroke: #b0b0b0; stroke-opacity: 0.3; stroke-width: 0.8; stroke-linecap: square"/>
     </g>
     <g id="line2d_8">
      <g>
       <use xlink:href="#m7738ee5e36" x="226.172345" y="303.64" style="stroke: #000000; stroke-width: 0.8"/>
      </g>
     </g>
     <g id="text_4">
      <!-- 0.075 -->
      <g transform="translate(211.858282 318.238437) scale(0.1 -0.1)">
       <defs>
        <path id="DejaVuSans-37" d="M 525 4666 
L 3525 4666 
L 3525 4397 
L 1831 0 
L 1172 0 
L 2766 4134 
L 525 4134 
L 525 4666 
z
" transform="scale(0.015625)"/>
       </defs>
       <use xlink:href="#DejaVuSans-30"/>
       <use xlink:href="#DejaVuSans-2e" transform="translate(63.623047 0)"/>
       <use xlink:href="#DejaVuSans-30" transform="translate(95.410156 0)"/>
       <use xlink:href="#DejaVuSans-37" transform="translate(159.033203 0)"/>
       <use xlink:href="#DejaVuSans-35" transform="translate(222.65625 0)"/>
      </g>
     </g>
    </g>
    <g id="xtick_5">
     <g id="line2d_9">
      <path d="M 275.870283 303.64 
L 275.870283 26.88 
" clip-path="url(#pe507cc02f6)" style="fill: none; stroke: #b0b0b0; stroke-opacity: 0.3; stroke-width: 0.8; stroke-linecap: square"/>
     </g>
     <g id="line2d_10">
      <g>
       <use xlink:href="#m7738ee5e36" x="275.870283" y="303.64" style="stroke: #000000; stroke-width: 0.8"/>
      </g>
     </g>
     <g id="text_5">
      <!-- 0.100 -->
      <g transform="translate(261.556221 318.238437) scale(0.1 -0.1)">
       <defs>
        <path id="DejaVuSans-31" d="M 794 531 
L 1825 531 
L 1825 4091 
L 703 3866 
L 703 4441 
L 1819 4666 
L 2450 4666 
L 2450 531 
L 3481 531 
L 3481 0 
L 794 0 
L 794 531 
z
" transform="scale(0.015625)"/>
       </defs>
       <use xlink:href="#DejaVuSans-30"/>
       <use xlink:href="#DejaVuSans-2e" transform="translate(63.623047 0)"/>
       <use xlink:href="#DejaVuSans-31" transform="translate(95.410156 0)"/>
       <use xlink:href="#DejaVuSans-30" transform="translate(159.033203 0)"/>
       <use xlink:href="#DejaVuSans-30" transform="translate(222.65625 0)"/>
      </g>
     </g>
    </g>
    <g id="xtick_6">
     <g id="line2d_11">
      <path d="M 325.568222 303.64 
L 325.568222 26.88 
" clip-path="url(#pe507cc02f6)" style="fill: none; stroke: #b0b0b0; stroke-opacity: 0.3; stroke-width: 0.8; stroke-linecap: square"/>
     </g>
     <g id="line2d_12">
      <g>
       <use xlink:href="#m7738ee5e36" x="325.568222" y="303.64" style="stroke: #000000; stroke-width: 0.8"/>
      </g>
     </g>
     <g id="text_6">
      <!-- 0.125 -->
      <g transform="translate(311.25416 318.238437) scale(0.1 -0.1)">
       <use xlink:href="#DejaVuSans-30"/>
       <use xlink:href="#DejaVuSans-2e" transform="translate(63.623047 0)"/>
       <use xlink:href="#DejaVuSans-31" transform="translate(95.410156 0)"/>
       <use xlink:href="#DejaVuSans-32" transform="translate(159.033203 0)"/>
       <use xlink:href="#DejaVuSans-35" transform="translate(222.65625 0)"/>
      </g>
     </g>
    </g>
    <g id="xtick_7">
     <g id="line2d_13">
      <path d="M 375.266161 303.64 
L 375.266161 26.88 
" clip-path="url(#pe507cc02f6)" style="fill: none; stroke: #b0b0b0; stroke-opacity: 0.3; stroke-width: 0.8; stroke-linecap: square"/>
     </g>
     <g id="line2d_14">
      <g>
       <use xlink:href="#m7738ee5e36" x="375.266161" y="303.64" style="stroke: #000000; stroke-width: 0.8"/>
      </g>
     </g>
     <g id="text_7">
      <!-- 0.150 -->
      <g transform="translate(360.952098 318.238437) scale(0.1 -0.1)">
       <use xlink:href="#DejaVuSans-30"/>
       <use xlink:href="#DejaVuSans-2e" transform="translate(63.623047 0)"/>
       <use xlink:href="#DejaVuSans-31" transform="translate(95.410156 0)"/>
       <use xlink:href="#DejaVuSans-35" transform="translate(159.033203 0)"/>
       <use xlink:href="#DejaVuSans-30" transform="translate(222.65625 0)"/>
      </g>
     </g>
    </g>
    <g id="xtick_8">
     <g id="line2d_15">
      <path d="M 424.9641 303.64 
L 424.9641 26.88 
" clip-path="url(#pe507cc02f6)" style="fill: none; stroke: #b0b0b0; stroke-opacity: 0.3; stroke-width: 0.8; stroke-linecap: square"/>
     </g>
     <g id="line2d_16">
      <g>
       <use xlink:href="#m7738ee5e36" x="424.9641" y="303.64" style="stroke: #000000; stroke-width: 0.8"/>
      </g>
     </g>
     <g id="text_8">
      <!-- 0.175 -->
      <g transform="translate(410.650037 318.238437) scale(0.1 -0.1)">
       <use xlink:href="#DejaVuSans-30"/>
       <use xlink:href="#DejaVuSans-2e" transform="translate(63.623047 0)"/>
       <use xlink:href="#DejaVuSans-31" transform="translate(95.410156 0)"/>
       <use xlink:href="#DejaVuSans-37" transform="translate(159.033203 0)"/>
       <use xlink:href="#DejaVuSans-35" transform="translate(222.65625 0)"/>
      </g>
     </g>
    </g>
    <g id="text_9">
     <!-- Strain [-] -->
     <g transform="translate(232.46875 331.916562) scale(0.1 -0.1)">
      <defs>
       <path id="DejaVuSans-53" d="M 3425 4513 
L 3425 3897 
Q 3066 4069 2747 4153 
Q 2428 4238 2131 4238 
Q 1616 4238 1336 4038 
Q 1056 3838 1056 3469 
Q 1056 3159 1242 3001 
Q 1428 2844 1947 2747 
L 2328 2669 
Q 3034 2534 3370 2195 
Q 3706 1856 3706 1288 
Q 3706 609 3251 259 
Q 2797 -91 1919 -91 
Q 1588 -91 1214 -16 
Q 841 59 441 206 
L 441 856 
Q 825 641 1194 531 
Q 1563 422 1919 422 
Q 2459 422 2753 634 
Q 3047 847 3047 1241 
Q 3047 1584 2836 1778 
Q 2625 1972 2144 2069 
L 1759 2144 
Q 1053 2284 737 2584 
Q 422 2884 422 3419 
Q 422 4038 858 4394 
Q 1294 4750 2059 4750 
Q 2388 4750 2728 4690 
Q 3069 4631 3425 4513 
z
" transform="scale(0.015625)"/>
       <path id="DejaVuSans-74" d="M 1172 4494 
L 1172 3500 
L 2356 3500 
L 2356 3053 
L 1172 3053 
L 1172 1153 
Q 1172 725 1289 603 
Q 1406 481 1766 481 
L 2356 481 
L 2356 0 
L 1766 0 
Q 1100 0 847 248 
Q 594 497 594 1153 
L 594 3053 
L 172 3053 
L 172 3500 
L 594 3500 
L 594 4494 
L 1172 4494 
z
" transform="scale(0.015625)"/>
       <path id="DejaVuSans-72" d="M 2631 2963 
Q 2534 3019 2420 3045 
Q 2306 3072 2169 3072 
Q 1681 3072 1420 2755 
Q 1159 2438 1159 1844 
L 1159 0 
L 581 0 
L 581 3500 
L 1159 3500 
L 1159 2956 
Q 1341 3275 1631 3429 
Q 1922 3584 2338 3584 
Q 2397 3584 2469 3576 
Q 2541 3569 2628 3553 
L 2631 2963 
z
" transform="scale(0.015625)"/>
       <path id="DejaVuSans-61" d="M 2194 1759 
Q 1497 1759 1228 1600 
Q 959 1441 959 1056 
Q 959 750 1161 570 
Q 1363 391 1709 391 
Q 2188 391 2477 730 
Q 2766 1069 2766 1631 
L 2766 1759 
L 2194 1759 
z
M 3341 1997 
L 3341 0 
L 2766 0 
L 2766 531 
Q 2569 213 2275 61 
Q 1981 -91 1556 -91 
Q 1019 -91 701 211 
Q 384 513 384 1019 
Q 384 1609 779 1909 
Q 1175 2209 1959 2209 
L 2766 2209 
L 2766 2266 
Q 2766 2663 2505 2880 
Q 2244 3097 1772 3097 
Q 1472 3097 1187 3025 
Q 903 2953 641 2809 
L 641 3341 
Q 956 3463 1253 3523 
Q 1550 3584 1831 3584 
Q 2591 3584 2966 3190 
Q 3341 2797 3341 1997 
z
" transform="scale(0.015625)"/>
       <path id="DejaVuSans-69" d="M 603 3500 
L 1178 3500 
L 1178 0 
L 603 0 
L 603 3500 
z
M 603 4863 
L 1178 4863 
L 1178 4134 
L 603 4134 
L 603 4863 
z
" transform="scale(0.015625)"/>
       <path id="DejaVuSans-6e" d="M 3513 2113 
L 3513 0 
L 2938 0 
L 2938 2094 
Q 2938 2591 2744 2837 
Q 2550 3084 2163 3084 
Q 1697 3084 1428 2787 
Q 1159 2491 1159 1978 
L 1159 0 
L 581 0 
L 581 3500 
L 1159 3500 
L 1159 2956 
Q 1366 3272 1645 3428 
Q 1925 3584 2291 3584 
Q 2894 3584 3203 3211 
Q 3513 2838 3513 2113 
z
" transform="scale(0.015625)"/>
       <path id="DejaVuSans-20" transform="scale(0.015625)"/>
       <path id="DejaVuSans-5b" d="M 550 4863 
L 1875 4863 
L 1875 4416 
L 1125 4416 
L 1125 -397 
L 1875 -397 
L 1875 -844 
L 550 -844 
L 550 4863 
z
" transform="scale(0.015625)"/>
       <path id="DejaVuSans-2d" d="M 313 2009 
L 1997 2009 
L 1997 1497 
L 313 1497 
L 313 2009 
z
" transform="scale(0.015625)"/>
       <path id="DejaVuSans-5d" d="M 1947 4863 
L 1947 -844 
L 622 -844 
L 622 -397 
L 1369 -397 
L 1369 4416 
L 622 4416 
L 622 4863 
L 1947 4863 
z
" transform="scale(0.015625)"/>
      </defs>
      <use xlink:href="#DejaVuSans-53"/>
      <use xlink:href="#DejaVuSans-74" transform="translate(63.476562 0)"/>
      <use xlink:href="#DejaVuSans-72" transform="translate(102.685547 0)"/>
      <use xlink:href="#DejaVuSans-61" transform="translate(143.798828 0)"/>
      <use xlink:href="#DejaVuSans-69" transform="translate(205.078125 0)"/>
      <use xlink:href="#DejaVuSans-6e" transform="translate(232.861328 0)"/>
      <use xlink:href="#DejaVuSans-20" transform="translate(296.240234 0)"/>
      <use xlink:href="#DejaVuSans-5b" transform="translate(328.027344 0)"/>
      <use xlink:href="#DejaVuSans-2d" transform="translate(367.041016 0)"/>
      <use xlink:href="#DejaVuSans-5d" transform="translate(403.125 0)"/>
     </g>
    </g>
   </g>
   <g id="matplotlib.axis_2">
    <g id="ytick_1">
     <g id="line2d_17">
      <path d="M 59.15 290.928918 
L 450 290.928918 
" clip-path="url(#pe507cc02f6)" style="fill: none; stroke: #b0b0b0; stroke-opacity: 0.3; stroke-width: 0.8; stroke-linecap: square"/>
     </g>
     <g id="line2d_18">
      <defs>
       <path id="m025583ffb3" d="M 0 0 
L -3.5 0 
" style="stroke: #000000; stroke-width: 0.8"/>
      </defs>
      <g>
       <use xlink:href="#m025583ffb3" x="59.15" y="290.928918" style="stroke: #000000; stroke-width: 0.8"/>
      </g>
     </g>
     <g id="text_10">
      <!-- −250 -->
      <g transform="translate(24.682813 294.728137) scale(0.1 -0.1)">
       <defs>
        <path id="DejaVuSans-2212" d="M 678 2272 
L 4684 2272 
L 4684 1741 
L 678 1741 
L 678 2272 
z
" transform="scale(0.015625)"/>
       </defs>
       <use xlink:href="#DejaVuSans-2212"/>
       <use xlink:href="#DejaVuSans-32" transform="translate(83.789062 0)"/>
       <use xlink:href="#DejaVuSans-35" transform="translate(147.412109 0)"/>
       <use xlink:href="#DejaVuSans-30" transform="translate(211.035156 0)"/>
      </g>
     </g>
    </g>
    <g id="ytick_2">
     <g id="line2d_19">
      <path d="M 59.15 253.639533 
L 450 253.639533 
" clip-path="url(#pe507cc02f6)" style="fill: none; stroke: #b0b0b0; stroke-opacity: 0.3; stroke-width: 0.8; stroke-linecap: square"/>
     </g>
     <g id="line2d_20">
      <g>
       <use xlink:href="#m025583ffb3" x="59.15" y="253.639533" style="stroke: #000000; stroke-width: 0.8"/>
      </g>
     </g>
     <g id="text_11">
      <!-- 0 -->
      <g transform="translate(45.7875 257.438752) scale(0.1 -0.1)">
       <use xlink:href="#DejaVuSans-30"/>
      </g>
     </g>
    </g>
    <g id="ytick_3">
     <g id="line2d_21">
      <path d="M 59.15 216.350148 
L 450 216.350148 
" clip-path="url(#pe507cc02f6)" style="fill: none; stroke: #b0b0b0; stroke-opacity: 0.3; stroke-width: 0.8; stroke-linecap: square"/>
     </g>
     <g id="line2d_22">
      <g>
       <use xlink:href="#m025583ffb3" x="59.15" y="216.350148" style="stroke: #000000; stroke-width: 0.8"/>
      </g>
     </g>
     <g id="text_12">
      <!-- 250 -->
      <g transform="translate(33.0625 220.149367) scale(0.1 -0.1)">
       <use xlink:href="#DejaVuSans-32"/>
       <use xlink:href="#DejaVuSans-35" transform="translate(63.623047 0)"/>
       <use xlink:href="#DejaVuSans-30" transform="translate(127.246094 0)"/>
      </g>
     </g>
    </g>
    <g id="ytick_4">
     <g id="line2d_23">
      <path d="M 59.15 179.060763 
L 450 179.060763 
" clip-path="url(#pe507cc02f6)" style="fill: none; stroke: #b0b0b0; stroke-opacity: 0.3; stroke-width: 0.8; stroke-linecap: square"/>
     </g>
     <g id="line2d_24">
      <g>
       <use xlink:href="#m025583ffb3" x="59.15" y="179.060763" style="stroke: #000000; stroke-width: 0.8"/>
      </g>
     </g>
     <g id="text_13">
      <!-- 500 -->
      <g transform="translate(33.0625 182.859982) scale(0.1 -0.1)">
       <use xlink:href="#DejaVuSans-35"/>
       <use xlink:href="#DejaVuSans-30" transform="translate(63.623047 0)"/>
       <use xlink:href="#DejaVuSans-30" transform="translate(127.246094 0)"/>
      </g>
     </g>
    </g>
    <g id="ytick_5">
     <g id="line2d_25">
      <path d="M 59.15 141.771378 
L 450 141.771378 
" clip-path="url(#pe507cc02f6)" style="fill: none; stroke: #b0b0b0; stroke-opacity: 0.3; stroke-width: 0.8; stroke-linecap: square"/>
     </g>
     <g id="line2d_26">
      <g>
       <use xlink:href="#m025583ffb3" x="59.15" y="141.771378" style="stroke: #000000; stroke-width: 0.8"/>
      </g>
     </g>
     <g id="text_14">
      <!-- 750 -->
      <g transform="translate(33.0625 145.570597) scale(0.1 -0.1)">
       <use xlink:href="#DejaVuSans-37"/>
       <use xlink:href="#DejaVuSans-35" transform="translate(63.623047 0)"/>
       <use xlink:href="#DejaVuSans-30" transform="translate(127.246094 0)"/>
      </g>
     </g>
    </g>
    <g id="ytick_6">
     <g id="line2d_27">
      <path d="M 59.15 104.481993 
L 450 104.481993 
" clip-path="url(#pe507cc02f6)" style="fill: none; stroke: #b0b0b0; stroke-opacity: 0.3; stroke-width: 0.8; stroke-linecap: square"/>
     </g>
     <g id="line2d_28">
      <g>
       <use xlink:href="#m025583ffb3" x="59.15" y="104.481993" style="stroke: #000000; stroke-width: 0.8"/>
      </g>
     </g>
     <g id="text_15">
      <!-- 1000 -->
      <g transform="translate(26.7 108.281212) scale(0.1 -0.1)">
       <use xlink:href="#DejaVuSans-31"/>
       <use xlink:href="#DejaVuSans-30" transform="translate(63.623047 0)"/>
       <use xlink:href="#DejaVuSans-30" transform="translate(127.246094 0)"/>
       <use xlink:href="#DejaVuSans-30" transform="translate(190.869141 0)"/>
      </g>
     </g>
    </g>
    <g id="ytick_7">
     <g id="line2d_29">
      <path d="M 59.15 67.192608 
L 450 67.192608 
" clip-path="url(#pe507cc02f6)" style="fill: none; stroke: #b0b0b0; stroke-opacity: 0.3; stroke-width: 0.8; stroke-linecap: square"/>
     </g>
     <g id="line2d_30">
      <g>
       <use xlink:href="#m025583ffb3" x="59.15" y="67.192608" style="stroke: #000000; stroke-width: 0.8"/>
      </g>
     </g>
     <g id="text_16">
      <!-- 1250 -->
      <g transform="translate(26.7 70.991827) scale(0.1 -0.1)">
       <use xlink:href="#DejaVuSans-31"/>
       <use xlink:href="#DejaVuSans-32" transform="translate(63.623047 0)"/>
       <use xlink:href="#DejaVuSans-35" transform="translate(127.246094 0)"/>
       <use xlink:href="#DejaVuSans-30" transform="translate(190.869141 0)"/>
      </g>
     </g>
    </g>
    <g id="ytick_8">
     <g id="line2d_31">
      <path d="M 59.15 29.903223 
L 450 29.903223 
" clip-path="url(#pe507cc02f6)" style="fill: none; stroke: #b0b0b0; stroke-opacity: 0.3; stroke-width: 0.8; stroke-linecap: square"/>
     </g>
     <g id="line2d_32">
      <g>
       <use xlink:href="#m025583ffb3" x="59.15" y="29.903223" style="stroke: #000000; stroke-width: 0.8"/>
      </g>
     </g>
     <g id="text_17">
      <!-- 1500 -->
      <g transform="translate(26.7 33.702442) scale(0.1 -0.1)">
       <use xlink:href="#DejaVuSans-31"/>
       <use xlink:href="#DejaVuSans-35" transform="translate(63.623047 0)"/>
       <use xlink:href="#DejaVuSans-30" transform="translate(127.246094 0)"/>
       <use xlink:href="#DejaVuSans-30" transform="translate(190.869141 0)"/>
      </g>
     </g>
    </g>
    <g id="text_18">
     <!-- Stress [Pa] -->
     <g transform="translate(18.603125 191.967812) rotate(-90) scale(0.1 -0.1)">
      <defs>
       <path id="DejaVuSans-65" d="M 3597 1894 
L 3597 1613 
L 953 1613 
Q 991 1019 1311 708 
Q 1631 397 2203 397 
Q 2534 397 2845 478 
Q 3156 559 3463 722 
L 3463 178 
Q 3153 47 2828 -22 
Q 2503 -91 2169 -91 
Q 1331 -91 842 396 
Q 353 884 353 1716 
Q 353 2575 817 3079 
Q 1281 3584 2069 3584 
Q 2775 3584 3186 3129 
Q 3597 2675 3597 1894 
z
M 3022 2063 
Q 3016 2534 2758 2815 
Q 2500 3097 2075 3097 
Q 1594 3097 1305 2825 
Q 1016 2553 972 2059 
L 3022 2063 
z
" transform="scale(0.015625)"/>
       <path id="DejaVuSans-73" d="M 2834 3397 
L 2834 2853 
Q 2591 2978 2328 3040 
Q 2066 3103 1784 3103 
Q 1356 3103 1142 2972 
Q 928 2841 928 2578 
Q 928 2378 1081 2264 
Q 1234 2150 1697 2047 
L 1894 2003 
Q 2506 1872 2764 1633 
Q 3022 1394 3022 966 
Q 3022 478 2636 193 
Q 2250 -91 1575 -91 
Q 1294 -91 989 -36 
Q 684 19 347 128 
L 347 722 
Q 666 556 975 473 
Q 1284 391 1588 391 
Q 1994 391 2212 530 
Q 2431 669 2431 922 
Q 2431 1156 2273 1281 
Q 2116 1406 1581 1522 
L 1381 1569 
Q 847 1681 609 1914 
Q 372 2147 372 2553 
Q 372 3047 722 3315 
Q 1072 3584 1716 3584 
Q 2034 3584 2315 3537 
Q 2597 3491 2834 3397 
z
" transform="scale(0.015625)"/>
       <path id="DejaVuSans-50" d="M 1259 4147 
L 1259 2394 
L 2053 2394 
Q 2494 2394 2734 2622 
Q 2975 2850 2975 3272 
Q 2975 3691 2734 3919 
Q 2494 4147 2053 4147 
L 1259 4147 
z
M 628 4666 
L 2053 4666 
Q 2838 4666 3239 4311 
Q 3641 3956 3641 3272 
Q 3641 2581 3239 2228 
Q 2838 1875 2053 1875 
L 1259 1875 
L 1259 0 
L 628 0 
L 628 4666 
z
" transform="scale(0.015625)"/>
      </defs>
      <use xlink:href="#DejaVuSans-53"/>
      <use xlink:href="#DejaVuSans-74" transform="translate(63.476562 0)"/>
      <use xlink:href="#DejaVuSans-72" transform="translate(102.685547 0)"/>
      <use xlink:href="#DejaVuSans-65" transform="translate(141.548828 0)"/>
      <use xlink:href="#DejaVuSans-73" transform="translate(203.072266 0)"/>
      <use xlink:href="#DejaVuSans-73" transform="translate(255.171875 0)"/>
      <use xlink:href="#DejaVuSans-20" transform="translate(307.271484 0)"/>
      <use xlink:href="#DejaVuSans-5b" transform="translate(339.058594 0)"/>
      <use xlink:href="#DejaVuSans-50" transform="translate(378.072266 0)"/>
      <use xlink:href="#DejaVuSans-61" transform="translate(433.875 0)"/>
      <use xlink:href="#DejaVuSans-5d" transform="translate(495.154297 0)"/>
     </g>
    </g>
   </g>
   <g id="line2d_33">
    <path d="M 77.078528 254.52344 
L 77.078528 254.649904 
L 77.078528 254.467127 
L 77.077329 254.618881 
L 77.7909 252.597825 
L 78.543001 248.286272 
L 79.279394 247.59799 
L 80.043682 248.262709 
L 80.823679 248.409059 
L 81.574426 248.076857 
L 82.401007 247.097702 
L 83.156087 245.972019 
L 83.9805 245.322708 
L 84.693331 245.259487 
L 85.449495 245.532575 
L 86.246825 246.079694 
L 87.948735 247.64433 
L 88.844648 248.702095 
L 92.126052 253.05138 
L 93.55388 254.677645 
L 95.433456 256.206436 
L 96.355369 256.557347 
L 97.264282 256.474395 
L 99.941188 254.865737 
L 100.827351 254.667642 
L 101.712431 254.729567 
L 102.595344 255.015389 
L 103.473924 255.658727 
L 105.202917 257.383096 
L 106.041414 257.843117 
L 106.860553 257.93048 
L 107.658966 257.683175 
L 108.438963 257.16184 
L 109.956707 255.697823 
L 111.439785 253.885412 
L 112.179698 253.142084 
L 112.921779 252.575469 
L 113.669276 252.188083 
L 114.421106 251.973638 
L 115.176187 251.881508 
L 116.697181 252.076655 
L 118.216008 252.415932 
L 118.971089 252.479212 
L 119.720752 252.407128 
L 121.205996 251.959842 
L 124.119068 250.777875 
L 126.979057 249.161671 
L 130.349294 247.254929 
L 132.835534 246.016364 
L 134.256862 245.339067 
L 152.697294 235.386838 
L 157.732608 232.788336 
L 161.29351 230.655199 
L 163.949833 229.160996 
L 166.592073 227.79194 
L 171.840802 224.48847 
L 176.228285 221.882421 
L 179.752355 219.961214 
L 184.145254 217.33504 
L 195.51696 210.116207 
L 211.40316 200.643174 
L 214.926146 198.243395 
L 218.464299 195.932287 
L 222.027368 193.873986 
L 223.455196 193.151411 
L 234.624319 185.91434 
L 241.661625 181.164463 
L 245.196528 179.19106 
L 249.624094 176.332832 
L 251.397503 175.29582 
L 264.773368 165.814936 
L 268.37977 163.363589 
L 269.824931 162.444177 
L 273.447584 160.186523 
L 275.619658 158.790425 
L 278.505647 156.822053 
L 285.702609 151.720173 
L 290.743339 148.421735 
L 304.520035 138.845257 
L 308.054938 136.178836 
L 312.451087 133.057739 
L 314.20283 131.718869 
L 316.830987 129.912745 
L 319.456976 127.982105 
L 325.608119 123.592572 
L 328.247109 121.676396 
L 331.757095 119.066573 
L 336.141328 115.471935 
L 355.564335 100.845608 
L 364.292701 93.789024 
L 370.431927 89.062415 
L 372.192336 87.626069 
L 374.837995 85.617567 
L 391.802929 71.726392 
L 394.684584 69.495779 
L 397.547823 67.14631 
L 404.825628 60.861353 
L 407.134202 59.000518 
L 413.186762 53.707923 
L 415.332837 52.050214 
L 416.758498 51.169792 
L 422.677808 48.331688 
L 428.081995 45.736644 
L 428.806742 45.229772 
L 429.569406 44.523548 
L 430.285757 43.480248 
L 431.014296 42.135403 
L 431.729361 39.872875 
L 431.930014 39.645439 
L 432.234091 41.005967 
L 432.064178 52.780336 
L 432.058998 70.554644 
L 431.341969 71.117643 
L 429.889022 74.176756 
L 429.160483 73.822681 
L 428.438986 73.670199 
L 427.672801 73.932321 
L 426.211932 74.573594 
L 425.491248 74.517349 
L 424.750792 74.844599 
L 424.036607 75.011526 
L 423.31836 76.871732 
L 421.848553 79.850703 
L 421.094827 80.045654 
L 420.360939 79.710543 
L 419.646484 79.909798 
L 418.179927 80.780629 
L 417.444888 81.001384 
L 416.73436 81.54078 
L 416.013269 84.285339 
L 415.296782 85.100044 
L 413.837538 85.648028 
L 413.125791 85.722038 
L 412.381002 86.252139 
L 411.657744 86.911355 
L 410.17724 88.774391 
L 407.271887 90.987788 
L 406.533598 91.703446 
L 405.811017 92.624902 
L 405.075166 93.068257 
L 404.352044 93.225475 
L 403.607255 93.591479 
L 402.132539 94.932748 
L 400.687378 96.974069 
L 399.970485 97.418525 
L 399.233009 97.685796 
L 397.769296 98.601671 
L 396.337677 100.280133 
L 395.627284 100.957115 
L 393.42623 102.338434 
L 391.950194 103.926181 
L 389.799244 105.65684 
L 389.056893 106.069616 
L 387.620398 107.362107 
L 386.902016 108.053082 
L 383.305025 110.665646 
L 381.095575 112.658387 
L 379.617914 113.836109 
L 377.448006 115.335342 
L 375.962491 116.748734 
L 373.796645 118.484266 
L 372.315734 119.544546 
L 368.664915 122.303569 
L 367.92446 122.829464 
L 364.98549 125.379318 
L 362.093813 127.331576 
L 360.630236 128.67249 
L 358.465473 130.029166 
L 356.286763 131.743788 
L 355.55186 132.457716 
L 354.841467 132.879061 
L 353.391972 134.077378 
L 344.657293 140.42701 
L 343.174757 141.562755 
L 341.022995 142.945411 
L 340.279289 143.381062 
L 337.36053 145.627004 
L 335.916723 146.601088 
L 335.178028 147.069677 
L 333.740857 148.554604 
L 332.308696 149.401538 
L 330.120642 150.818743 
L 329.382895 151.47623 
L 327.209195 152.699859 
L 323.561219 155.513987 
L 322.824556 155.848469 
L 321.378041 156.900102 
L 319.952109 157.98365 
L 318.499364 158.973182 
L 317.035516 159.832301 
L 313.407481 162.320083 
L 312.693838 162.784663 
L 310.497252 164.657525 
L 308.318948 165.932093 
L 306.85659 166.962659 
L 303.190604 169.357329 
L 301.724589 170.240188 
L 298.805423 172.57056 
L 298.089613 172.766513 
L 297.3497 173.086373 
L 295.873528 174.155693 
L 295.147292 174.913328 
L 294.41767 175.444883 
L 292.226095 176.258291 
L 291.498233 176.758874 
L 290.039666 178.038787 
L 287.117927 179.718743 
L 284.958311 181.47377 
L 283.501233 182.22323 
L 282.052551 183.236658 
L 279.867747 184.821418 
L 279.134063 185.06436 
L 278.408232 185.453239 
L 275.456702 187.655375 
L 272.549047 189.140341 
L 271.103886 190.278758 
L 270.393493 190.814558 
L 268.945353 191.295798 
L 267.476358 192.275425 
L 266.733465 192.961683 
L 265.270159 193.835187 
L 263.098084 194.893541 
L 262.383899 195.761857 
L 260.91328 196.592127 
L 259.466477 197.100384 
L 258.737667 197.529944 
L 258.01617 198.242614 
L 255.832991 199.379852 
L 255.120973 199.658718 
L 254.405299 200.234687 
L 253.663083 201.106462 
L 252.918565 201.680623 
L 252.17161 201.820567 
L 250.014431 202.772366 
L 248.572249 204.262481 
L 247.851564 204.621253 
L 246.377695 205.147561 
L 245.636833 205.49517 
L 243.468279 207.257194 
L 239.81851 209.357899 
L 237.619487 210.696377 
L 235.421412 211.746516 
L 233.944022 212.800195 
L 233.219817 213.34307 
L 231.752718 214.061243 
L 231.01145 214.403664 
L 229.572383 215.453803 
L 228.859552 215.903212 
L 226.683144 216.860985 
L 225.969772 217.436404 
L 225.233108 218.281924 
L 224.487439 218.785022 
L 223.055549 219.081285 
L 222.32051 219.303985 
L 221.594544 219.664447 
L 220.880631 220.359587 
L 220.158186 221.292049 
L 218.70165 221.637192 
L 217.223989 222.225778 
L 216.483804 222.693895 
L 215.757838 223.408452 
L 214.296969 224.157597 
L 212.862641 224.739422 
L 211.415043 225.826665 
L 209.950382 226.320782 
L 208.494929 227.267708 
L 207.04557 228.32728 
L 205.581036 228.969888 
L 204.864685 229.187949 
L 204.130323 229.697572 
L 203.405305 230.393578 
L 202.663902 230.882055 
L 200.501306 231.605376 
L 199.764101 231.98325 
L 198.298086 233.09557 
L 196.86132 233.735015 
L 196.116802 234.08176 
L 193.920894 235.700165 
L 191.74232 236.653733 
L 189.565505 238.06681 
L 178.643948 243.836259 
L 176.476478 244.738141 
L 174.282465 246.212534 
L 170.642454 247.986906 
L 169.172918 248.903724 
L 165.559474 250.398044 
L 162.626361 252.178934 
L 159.729809 253.554515 
L 158.992604 254.129933 
L 157.537422 254.602433 
L 155.363722 255.752956 
L 153.906103 256.857572 
L 151.707842 257.629173 
L 148.801947 259.432073 
L 147.348124 259.949242 
L 143.689586 261.881847 
L 140.782473 263.472464 
L 136.439 265.405698 
L 134.988325 266.357662 
L 134.276578 266.766587 
L 130.605311 268.173474 
L 129.14214 269.02033 
L 126.992815 269.791053 
L 126.257099 270.028531 
L 124.095586 271.248781 
L 122.621853 272.094222 
L 119.732343 273.127401 
L 117.540387 274.389243 
L 115.387 275.132925 
L 113.176332 276.396331 
L 110.963903 277.019848 
L 110.238614 277.253278 
L 108.778828 278.386743 
L 108.038643 278.780024 
L 105.1578 279.71449 
L 102.997371 280.984775 
L 102.282103 281.194661 
L 101.541377 281.531147 
L 100.808776 281.739619 
L 99.36401 282.502419 
L 98.619493 282.911816 
L 97.180832 283.289071 
L 96.44647 283.504587 
L 94.989528 284.600399 
L 93.521346 284.839302 
L 92.072664 285.378582 
L 90.601503 286.582147 
L 89.148488 286.673869 
L 88.43322 286.870176 
L 87.712806 286.927619 
L 86.999028 287.587887 
L 86.276718 288.686832 
L 84.821807 288.488634 
L 84.107893 288.639662 
L 83.383146 288.656853 
L 82.660701 288.935434 
L 81.922496 290.395242 
L 80.457835 290.209589 
L 79.014164 290.258762 
L 78.291583 290.142666 
L 77.577466 291.028905 
L 77.1007 291.01227 
L 76.916094 289.352094 
L 76.916094 289.352094 
" clip-path="url(#pe507cc02f6)" style="fill: none; stroke: #ff0000; stroke-width: 2; stroke-linecap: square"/>
   </g>
   <g id="line2d_34">
    <path d="M 77.078528 254.52344 
L 77.078528 254.649904 
L 77.078528 254.467127 
L 77.077329 254.618881 
L 77.7909 252.597825 
L 78.543001 248.286272 
L 79.279394 247.59799 
L 80.043682 248.262709 
L 80.823679 248.409059 
L 81.574426 248.076857 
L 82.401007 256.135854 
L 83.156087 254.757364 
L 83.9805 253.655893 
L 84.693331 252.983294 
L 85.449495 252.563364 
L 86.246825 252.41495 
L 87.080988 252.502363 
L 88.844648 253.232485 
L 91.413221 254.15567 
L 92.841049 254.42357 
L 93.55388 254.677645 
L 95.433456 256.206436 
L 96.355369 256.557347 
L 97.264282 256.474395 
L 99.941188 254.865737 
L 100.827351 254.667642 
L 101.712431 254.729567 
L 102.595344 255.015389 
L 103.473924 255.658727 
L 105.202917 257.383096 
L 106.041414 257.843117 
L 106.860553 257.93048 
L 107.658966 257.683175 
L 108.438963 257.16184 
L 109.956707 255.697823 
L 111.439785 253.885412 
L 112.179698 253.142084 
L 112.921779 252.575469 
L 113.669276 252.188083 
L 114.421106 251.973638 
L 115.176187 251.881508 
L 116.697181 252.076655 
L 118.216008 252.415932 
L 118.971089 252.479212 
L 119.720752 252.407128 
L 121.205996 251.959842 
L 124.119068 250.777875 
L 126.979057 249.161671 
L 130.349294 247.254929 
L 132.835534 246.016364 
L 134.256862 245.339067 
L 152.697294 235.386838 
L 157.732608 232.788336 
L 161.29351 230.655199 
L 163.949833 229.160996 
L 166.592073 227.79194 
L 171.840802 224.48847 
L 176.228285 221.882421 
L 179.752355 219.961214 
L 184.145254 217.33504 
L 195.51696 210.116207 
L 211.40316 200.643174 
L 214.926146 198.243395 
L 218.464299 195.932287 
L 222.027368 193.873986 
L 223.455196 193.151411 
L 234.624319 185.91434 
L 241.661625 181.164463 
L 245.196528 179.19106 
L 249.624094 176.332832 
L 251.397503 175.29582 
L 264.773368 165.814936 
L 268.37977 163.363589 
L 269.824931 162.444177 
L 273.447584 160.186523 
L 275.619658 158.790425 
L 278.505647 156.822053 
L 285.702609 151.720173 
L 290.743339 148.421735 
L 304.520035 138.845257 
L 308.054938 136.178836 
L 312.451087 133.057739 
L 314.20283 131.718869 
L 316.830987 129.912745 
L 319.456976 127.982105 
L 325.608119 123.592572 
L 328.247109 121.676396 
L 331.757095 119.066573 
L 336.141328 115.471935 
L 355.564335 100.845608 
L 364.292701 93.789024 
L 370.431927 89.062415 
L 372.192336 87.626069 
L 374.837995 85.617567 
L 391.802929 71.726392 
L 394.684584 69.495779 
L 397.547823 67.14631 
L 404.825628 60.861353 
L 407.134202 59.000518 
L 416.046751 50.929109 
L 418.518908 49.119448 
L 426.565334 42.409531 
L 429.569406 40.533771 
L 430.285757 40.130821 
L 431.014296 40.197167 
L 431.930014 39.46 
L 432.234091 40.916814 
L 432.065227 52.675196 
L 432.063704 63.920388 
L 432.063297 63.854946 
L 432.058998 70.554644 
L 431.341969 71.117643 
L 429.889022 74.176756 
L 429.160483 73.822681 
L 428.438986 73.670199 
L 427.672801 73.932321 
L 426.211932 74.573594 
L 425.491248 74.517349 
L 424.750792 74.844599 
L 424.036607 75.011526 
L 423.31836 76.871732 
L 421.848553 79.850703 
L 421.094827 80.045654 
L 420.360939 79.710543 
L 419.646484 79.909798 
L 418.179927 80.780629 
L 417.444888 81.001384 
L 416.73436 81.54078 
L 416.013269 84.285339 
L 415.296782 85.100044 
L 413.837538 85.648028 
L 413.125791 85.722038 
L 412.381002 86.252139 
L 411.657744 86.911355 
L 410.17724 88.774391 
L 407.271887 90.987788 
L 406.533598 91.703446 
L 405.811017 92.624902 
L 405.075166 93.068257 
L 404.352044 93.225475 
L 403.607255 93.591479 
L 402.132539 94.932748 
L 400.687378 96.974069 
L 399.970485 97.418525 
L 399.233009 97.685796 
L 397.769296 98.601671 
L 396.337677 100.280133 
L 395.627284 100.957115 
L 393.42623 102.338434 
L 391.950194 103.926181 
L 389.799244 105.65684 
L 389.056893 106.069616 
L 387.620398 107.362107 
L 386.902016 108.053082 
L 383.305025 110.665646 
L 381.095575 112.658387 
L 379.617914 113.836109 
L 377.448006 115.335342 
L 375.962491 116.748734 
L 373.796645 118.484266 
L 372.315734 119.544546 
L 368.664915 122.303569 
L 367.92446 122.829464 
L 364.98549 125.379318 
L 362.093813 127.331576 
L 360.630236 128.67249 
L 358.465473 130.029166 
L 356.286763 131.743788 
L 355.55186 132.457716 
L 354.841467 132.879061 
L 353.391972 134.077378 
L 344.657293 140.42701 
L 343.174757 141.562755 
L 341.022995 142.945411 
L 340.279289 143.381062 
L 337.36053 145.627004 
L 335.916723 146.601088 
L 335.178028 147.069677 
L 333.740857 148.554604 
L 332.308696 149.401538 
L 330.120642 150.818743 
L 329.382895 151.47623 
L 327.209195 152.699859 
L 323.561219 155.513987 
L 322.824556 155.848469 
L 321.378041 156.900102 
L 319.952109 157.98365 
L 318.499364 158.973182 
L 317.035516 159.832301 
L 313.407481 162.320083 
L 312.693838 162.784663 
L 310.497252 164.657525 
L 308.318948 165.932093 
L 306.85659 166.962659 
L 303.190604 169.357329 
L 301.724589 170.240188 
L 298.805423 172.57056 
L 298.089613 172.766513 
L 297.3497 173.086373 
L 295.873528 174.155693 
L 295.147292 174.913328 
L 294.41767 175.444883 
L 292.226095 176.258291 
L 291.498233 176.758874 
L 290.039666 178.038787 
L 287.117927 179.718743 
L 284.958311 181.47377 
L 283.501233 182.22323 
L 282.052551 183.236658 
L 279.867747 184.821418 
L 279.134063 185.06436 
L 278.408232 185.453239 
L 275.456702 187.655375 
L 272.549047 189.140341 
L 271.103886 190.278758 
L 270.393493 190.814558 
L 268.945353 191.295798 
L 267.476358 192.275425 
L 266.733465 192.961683 
L 265.270159 193.835187 
L 263.098084 194.893541 
L 262.383899 195.761857 
L 260.91328 196.592127 
L 259.466477 197.100384 
L 258.737667 197.529944 
L 258.01617 198.242614 
L 255.832991 199.379852 
L 255.120973 199.658718 
L 254.405299 200.234687 
L 253.663083 201.106462 
L 252.918565 201.680623 
L 252.17161 201.820567 
L 250.014431 202.772366 
L 248.572249 204.262481 
L 247.851564 204.621253 
L 246.377695 205.147561 
L 245.636833 205.49517 
L 243.468279 207.257194 
L 239.81851 209.357899 
L 237.619487 210.696377 
L 235.421412 211.746516 
L 233.944022 212.800195 
L 233.219817 213.34307 
L 231.752718 214.061243 
L 231.01145 214.403664 
L 229.572383 215.453803 
L 228.859552 215.903212 
L 226.683144 216.860985 
L 225.969772 217.436404 
L 225.233108 218.281924 
L 224.487439 218.785022 
L 223.055549 219.081285 
L 222.32051 219.303985 
L 221.594544 219.664447 
L 220.880631 220.359587 
L 220.158186 221.292049 
L 218.70165 221.637192 
L 217.223989 222.225778 
L 216.483804 222.693895 
L 215.757838 223.408452 
L 214.296969 224.157597 
L 212.862641 224.739422 
L 211.415043 225.826665 
L 209.950382 226.320782 
L 208.494929 227.267708 
L 207.04557 228.32728 
L 205.581036 228.969888 
L 204.864685 229.187949 
L 204.130323 229.697572 
L 203.405305 230.393578 
L 202.663902 230.882055 
L 200.501306 231.605376 
L 199.764101 231.98325 
L 198.298086 233.09557 
L 196.86132 233.735015 
L 196.116802 234.08176 
L 193.920894 235.700165 
L 191.74232 236.653733 
L 189.565505 238.06681 
L 178.643948 243.836259 
L 176.476478 244.738141 
L 174.282465 246.212534 
L 170.642454 247.986906 
L 169.172918 248.903724 
L 165.559474 250.398044 
L 162.626361 252.178934 
L 159.729809 253.554515 
L 158.992604 254.129933 
L 157.537422 254.602433 
L 155.363722 255.752956 
L 153.906103 256.857572 
L 151.707842 257.629173 
L 148.801947 259.432073 
L 147.348124 259.949242 
L 143.689586 261.881847 
L 140.782473 263.472464 
L 136.439 265.405698 
L 134.988325 266.357662 
L 134.276578 266.766587 
L 130.605311 268.173474 
L 129.14214 269.02033 
L 126.992815 269.791053 
L 126.257099 270.028531 
L 124.095586 271.248781 
L 122.621853 272.094222 
L 119.732343 273.127401 
L 117.540387 274.389243 
L 115.387 275.132925 
L 113.176332 276.396331 
L 110.963903 277.019848 
L 110.238614 277.253278 
L 108.778828 278.386743 
L 108.038643 278.780024 
L 105.1578 279.71449 
L 102.997371 280.984775 
L 102.282103 281.194661 
L 101.541377 281.531147 
L 100.808776 281.739619 
L 99.36401 282.502419 
L 98.619493 282.911816 
L 97.180832 283.289071 
L 96.44647 283.504587 
L 94.989528 284.600399 
L 93.521346 284.839302 
L 92.072664 285.378582 
L 90.601503 286.582147 
L 89.148488 286.673869 
L 88.43322 286.870176 
L 87.712806 286.927619 
L 86.999028 287.587887 
L 86.276718 288.686832 
L 84.821807 288.488634 
L 84.107893 288.639662 
L 83.383146 288.656853 
L 82.660701 288.935434 
L 81.922496 290.395242 
L 80.457835 290.209589 
L 79.014164 290.258762 
L 78.291583 290.142666 
L 77.577466 291.028905 
L 77.1007 291.01227 
L 76.916094 289.352094 
L 76.916094 289.352094 
" clip-path="url(#pe507cc02f6)" style="fill: none; stroke: #000000; stroke-width: 2; stroke-linecap: square"/>
   </g>
   <g id="patch_3">
    <path d="M 59.15 303.64 
L 59.15 26.88 
" style="fill: none; stroke: #000000; stroke-width: 0.8; stroke-linejoin: miter; stroke-linecap: square"/>
   </g>
   <g id="patch_4">
    <path d="M 450 303.64 
L 450 26.88 
" style="fill: none; stroke: #000000; stroke-width: 0.8; stroke-linejoin: miter; stroke-linecap: square"/>
   </g>
   <g id="patch_5">
    <path d="M 59.15 303.64 
L 450 303.64 
" style="fill: none; stroke: #000000; stroke-width: 0.8; stroke-linejoin: miter; stroke-linecap: square"/>
   </g>
   <g id="patch_6">
    <path d="M 59.15 26.88 
L 450 26.88 
" style="fill: none; stroke: #000000; stroke-width: 0.8; stroke-linejoin: miter; stroke-linecap: square"/>
   </g>
   <g id="text_19">
    <!-- 2025-06-19 Trial 16 - Stress vs Strain -->
    <g transform="translate(143.320938 20.88) scale(0.12 -0.12)">
     <defs>
      <path id="DejaVuSans-36" d="M 2113 2584 
Q 1688 2584 1439 2293 
Q 1191 2003 1191 1497 
Q 1191 994 1439 701 
Q 1688 409 2113 409 
Q 2538 409 2786 701 
Q 3034 994 3034 1497 
Q 3034 2003 2786 2293 
Q 2538 2584 2113 2584 
z
M 3366 4563 
L 3366 3988 
Q 3128 4100 2886 4159 
Q 2644 4219 2406 4219 
Q 1781 4219 1451 3797 
Q 1122 3375 1075 2522 
Q 1259 2794 1537 2939 
Q 1816 3084 2150 3084 
Q 2853 3084 3261 2657 
Q 3669 2231 3669 1497 
Q 3669 778 3244 343 
Q 2819 -91 2113 -91 
Q 1303 -91 875 529 
Q 447 1150 447 2328 
Q 447 3434 972 4092 
Q 1497 4750 2381 4750 
Q 2619 4750 2861 4703 
Q 3103 4656 3366 4563 
z
" transform="scale(0.015625)"/>
      <path id="DejaVuSans-39" d="M 703 97 
L 703 672 
Q 941 559 1184 500 
Q 1428 441 1663 441 
Q 2288 441 2617 861 
Q 2947 1281 2994 2138 
Q 2813 1869 2534 1725 
Q 2256 1581 1919 1581 
Q 1219 1581 811 2004 
Q 403 2428 403 3163 
Q 403 3881 828 4315 
Q 1253 4750 1959 4750 
Q 2769 4750 3195 4129 
Q 3622 3509 3622 2328 
Q 3622 1225 3098 567 
Q 2575 -91 1691 -91 
Q 1453 -91 1209 -44 
Q 966 3 703 97 
z
M 1959 2075 
Q 2384 2075 2632 2365 
Q 2881 2656 2881 3163 
Q 2881 3666 2632 3958 
Q 2384 4250 1959 4250 
Q 1534 4250 1286 3958 
Q 1038 3666 1038 3163 
Q 1038 2656 1286 2365 
Q 1534 2075 1959 2075 
z
" transform="scale(0.015625)"/>
      <path id="DejaVuSans-54" d="M -19 4666 
L 3928 4666 
L 3928 4134 
L 2272 4134 
L 2272 0 
L 1638 0 
L 1638 4134 
L -19 4134 
L -19 4666 
z
" transform="scale(0.015625)"/>
      <path id="DejaVuSans-6c" d="M 603 4863 
L 1178 4863 
L 1178 0 
L 603 0 
L 603 4863 
z
" transform="scale(0.015625)"/>
      <path id="DejaVuSans-76" d="M 191 3500 
L 800 3500 
L 1894 563 
L 2988 3500 
L 3597 3500 
L 2284 0 
L 1503 0 
L 191 3500 
z
" transform="scale(0.015625)"/>
     </defs>
     <use xlink:href="#DejaVuSans-32"/>
     <use xlink:href="#DejaVuSans-30" transform="translate(63.623047 0)"/>
     <use xlink:href="#DejaVuSans-32" transform="translate(127.246094 0)"/>
     <use xlink:href="#DejaVuSans-35" transform="translate(190.869141 0)"/>
     <use xlink:href="#DejaVuSans-2d" transform="translate(254.492188 0)"/>
     <use xlink:href="#DejaVuSans-30" transform="translate(290.576172 0)"/>
     <use xlink:href="#DejaVuSans-36" transform="translate(354.199219 0)"/>
     <use xlink:href="#DejaVuSans-2d" transform="translate(417.822266 0)"/>
     <use xlink:href="#DejaVuSans-31" transform="translate(453.90625 0)"/>
     <use xlink:href="#DejaVuSans-39" transform="translate(517.529297 0)"/>
     <use xlink:href="#DejaVuSans-20" transform="translate(581.152344 0)"/>
     <use xlink:href="#DejaVuSans-54" transform="translate(612.939453 0)"/>
     <use xlink:href="#DejaVuSans-72" transform="translate(659.273438 0)"/>
     <use xlink:href="#DejaVuSans-69" transform="translate(700.386719 0)"/>
     <use xlink:href="#DejaVuSans-61" transform="translate(728.169922 0)"/>
     <use xlink:href="#DejaVuSans-6c" transform="translate(789.449219 0)"/>
     <use xlink:href="#DejaVuSans-20" transform="translate(817.232422 0)"/>
     <use xlink:href="#DejaVuSans-31" transform="translate(849.019531 0)"/>
     <use xlink:href="#DejaVuSans-36" transform="translate(912.642578 0)"/>
     <use xlink:href="#DejaVuSans-20" transform="translate(976.265625 0)"/>
     <use xlink:href="#DejaVuSans-2d" transform="translate(1008.052734 0)"/>
     <use xlink:href="#DejaVuSans-20" transform="translate(1044.136719 0)"/>
     <use xlink:href="#DejaVuSans-53" transform="translate(1075.923828 0)"/>
     <use xlink:href="#DejaVuSans-74" transform="translate(1139.400391 0)"/>
     <use xlink:href="#DejaVuSans-72" transform="translate(1178.609375 0)"/>
     <use xlink:href="#DejaVuSans-65" transform="translate(1217.472656 0)"/>
     <use xlink:href="#DejaVuSans-73" transform="translate(1278.996094 0)"/>
     <use xlink:href="#DejaVuSans-73" transform="translate(1331.095703 0)"/>
     <use xlink:href="#DejaVuSans-20" transform="translate(1383.195312 0)"/>
     <use xlink:href="#DejaVuSans-76" transform="translate(1414.982422 0)"/>
     <use xlink:href="#DejaVuSans-73" transform="translate(1474.162109 0)"/>
     <use xlink:href="#DejaVuSans-20" transform="translate(1526.261719 0)"/>
     <use xlink:href="#DejaVuSans-53" transform="translate(1558.048828 0)"/>
     <use xlink:href="#DejaVuSans-74" transform="translate(1621.525391 0)"/>
     <use xlink:href="#DejaVuSans-72" transform="translate(1660.734375 0)"/>
     <use xlink:href="#DejaVuSans-61" transform="translate(1701.847656 0)"/>
     <use xlink:href="#DejaVuSans-69" transform="translate(1763.126953 0)"/>
     <use xlink:href="#DejaVuSans-6e" transform="translate(1790.910156 0)"/>
    </g>
   </g>
   <g id="legend_1">
    <g id="patch_7">
     <path d="M 66.15 64.23625 
L 172.134375 64.23625 
Q 174.134375 64.23625 174.134375 62.23625 
L 174.134375 33.88 
Q 174.134375 31.88 172.134375 31.88 
L 66.15 31.88 
Q 64.15 31.88 64.15 33.88 
L 64.15 62.23625 
Q 64.15 64.23625 66.15 64.23625 
z
" style="fill: #ffffff; opacity: 0.8; stroke: #cccccc; stroke-linejoin: miter"/>
    </g>
    <g id="line2d_35">
     <path d="M 68.15 39.978437 
L 78.15 39.978437 
L 88.15 39.978437 
" style="fill: none; stroke: #ff0000; stroke-width: 2; stroke-linecap: square"/>
    </g>
    <g id="text_20">
     <!-- Raw Force -->
     <g transform="translate(96.15 43.478437) scale(0.1 -0.1)">
      <defs>
       <path id="DejaVuSans-52" d="M 2841 2188 
Q 3044 2119 3236 1894 
Q 3428 1669 3622 1275 
L 4263 0 
L 3584 0 
L 2988 1197 
Q 2756 1666 2539 1819 
Q 2322 1972 1947 1972 
L 1259 1972 
L 1259 0 
L 628 0 
L 628 4666 
L 2053 4666 
Q 2853 4666 3247 4331 
Q 3641 3997 3641 3322 
Q 3641 2881 3436 2590 
Q 3231 2300 2841 2188 
z
M 1259 4147 
L 1259 2491 
L 2053 2491 
Q 2509 2491 2742 2702 
Q 2975 2913 2975 3322 
Q 2975 3731 2742 3939 
Q 2509 4147 2053 4147 
L 1259 4147 
z
" transform="scale(0.015625)"/>
       <path id="DejaVuSans-77" d="M 269 3500 
L 844 3500 
L 1563 769 
L 2278 3500 
L 2956 3500 
L 3675 769 
L 4391 3500 
L 4966 3500 
L 4050 0 
L 3372 0 
L 2619 2869 
L 1863 0 
L 1184 0 
L 269 3500 
z
" transform="scale(0.015625)"/>
       <path id="DejaVuSans-46" d="M 628 4666 
L 3309 4666 
L 3309 4134 
L 1259 4134 
L 1259 2759 
L 3109 2759 
L 3109 2228 
L 1259 2228 
L 1259 0 
L 628 0 
L 628 4666 
z
" transform="scale(0.015625)"/>
       <path id="DejaVuSans-6f" d="M 1959 3097 
Q 1497 3097 1228 2736 
Q 959 2375 959 1747 
Q 959 1119 1226 758 
Q 1494 397 1959 397 
Q 2419 397 2687 759 
Q 2956 1122 2956 1747 
Q 2956 2369 2687 2733 
Q 2419 3097 1959 3097 
z
M 1959 3584 
Q 2709 3584 3137 3096 
Q 3566 2609 3566 1747 
Q 3566 888 3137 398 
Q 2709 -91 1959 -91 
Q 1206 -91 779 398 
Q 353 888 353 1747 
Q 353 2609 779 3096 
Q 1206 3584 1959 3584 
z
" transform="scale(0.015625)"/>
       <path id="DejaVuSans-63" d="M 3122 3366 
L 3122 2828 
Q 2878 2963 2633 3030 
Q 2388 3097 2138 3097 
Q 1578 3097 1268 2742 
Q 959 2388 959 1747 
Q 959 1106 1268 751 
Q 1578 397 2138 397 
Q 2388 397 2633 464 
Q 2878 531 3122 666 
L 3122 134 
Q 2881 22 2623 -34 
Q 2366 -91 2075 -91 
Q 1284 -91 818 406 
Q 353 903 353 1747 
Q 353 2603 823 3093 
Q 1294 3584 2113 3584 
Q 2378 3584 2631 3529 
Q 2884 3475 3122 3366 
z
" transform="scale(0.015625)"/>
      </defs>
      <use xlink:href="#DejaVuSans-52"/>
      <use xlink:href="#DejaVuSans-61" transform="translate(67.232422 0)"/>
      <use xlink:href="#DejaVuSans-77" transform="translate(128.511719 0)"/>
      <use xlink:href="#DejaVuSans-20" transform="translate(210.298828 0)"/>
      <use xlink:href="#DejaVuSans-46" transform="translate(242.085938 0)"/>
      <use xlink:href="#DejaVuSans-6f" transform="translate(295.980469 0)"/>
      <use xlink:href="#DejaVuSans-72" transform="translate(357.162109 0)"/>
      <use xlink:href="#DejaVuSans-63" transform="translate(396.025391 0)"/>
      <use xlink:href="#DejaVuSans-65" transform="translate(451.005859 0)"/>
     </g>
    </g>
    <g id="line2d_36">
     <path d="M 68.15 54.656563 
L 78.15 54.656563 
L 88.15 54.656563 
" style="fill: none; stroke: #000000; stroke-width: 2; stroke-linecap: square"/>
    </g>
    <g id="text_21">
     <!-- Adjusted Force -->
     <g transform="translate(96.15 58.156563) scale(0.1 -0.1)">
      <defs>
       <path id="DejaVuSans-41" d="M 2188 4044 
L 1331 1722 
L 3047 1722 
L 2188 4044 
z
M 1831 4666 
L 2547 4666 
L 4325 0 
L 3669 0 
L 3244 1197 
L 1141 1197 
L 716 0 
L 50 0 
L 1831 4666 
z
" transform="scale(0.015625)"/>
       <path id="DejaVuSans-64" d="M 2906 2969 
L 2906 4863 
L 3481 4863 
L 3481 0 
L 2906 0 
L 2906 525 
Q 2725 213 2448 61 
Q 2172 -91 1784 -91 
Q 1150 -91 751 415 
Q 353 922 353 1747 
Q 353 2572 751 3078 
Q 1150 3584 1784 3584 
Q 2172 3584 2448 3432 
Q 2725 3281 2906 2969 
z
M 947 1747 
Q 947 1113 1208 752 
Q 1469 391 1925 391 
Q 2381 391 2643 752 
Q 2906 1113 2906 1747 
Q 2906 2381 2643 2742 
Q 2381 3103 1925 3103 
Q 1469 3103 1208 2742 
Q 947 2381 947 1747 
z
" transform="scale(0.015625)"/>
       <path id="DejaVuSans-6a" d="M 603 3500 
L 1178 3500 
L 1178 -63 
Q 1178 -731 923 -1031 
Q 669 -1331 103 -1331 
L -116 -1331 
L -116 -844 
L 38 -844 
Q 366 -844 484 -692 
Q 603 -541 603 -63 
L 603 3500 
z
M 603 4863 
L 1178 4863 
L 1178 4134 
L 603 4134 
L 603 4863 
z
" transform="scale(0.015625)"/>
       <path id="DejaVuSans-75" d="M 544 1381 
L 544 3500 
L 1119 3500 
L 1119 1403 
Q 1119 906 1312 657 
Q 1506 409 1894 409 
Q 2359 409 2629 706 
Q 2900 1003 2900 1516 
L 2900 3500 
L 3475 3500 
L 3475 0 
L 2900 0 
L 2900 538 
Q 2691 219 2414 64 
Q 2138 -91 1772 -91 
Q 1169 -91 856 284 
Q 544 659 544 1381 
z
M 1991 3584 
L 1991 3584 
z
" transform="scale(0.015625)"/>
      </defs>
      <use xlink:href="#DejaVuSans-41"/>
      <use xlink:href="#DejaVuSans-64" transform="translate(66.658203 0)"/>
      <use xlink:href="#DejaVuSans-6a" transform="translate(130.134766 0)"/>
      <use xlink:href="#DejaVuSans-75" transform="translate(157.917969 0)"/>
      <use xlink:href="#DejaVuSans-73" transform="translate(221.296875 0)"/>
      <use xlink:href="#DejaVuSans-74" transform="translate(273.396484 0)"/>
      <use xlink:href="#DejaVuSans-65" transform="translate(312.605469 0)"/>
      <use xlink:href="#DejaVuSans-64" transform="translate(374.128906 0)"/>
      <use xlink:href="#DejaVuSans-20" transform="translate(437.605469 0)"/>
      <use xlink:href="#DejaVuSans-46" transform="translate(469.392578 0)"/>
      <use xlink:href="#DejaVuSans-6f" transform="translate(523.287109 0)"/>
      <use xlink:href="#DejaVuSans-72" transform="translate(584.46875 0)"/>
      <use xlink:href="#DejaVuSans-63" transform="translate(623.332031 0)"/>
      <use xlink:href="#DejaVuSans-65" transform="translate(678.3125 0)"/>
     </g>
    </g>
   </g>
  </g>
 </g>
 <defs>
  <clipPath id="pe507cc02f6">
   <rect x="59.15" y="26.88" width="390.85" height="276.76"/>
  </clipPath>
 </defs>
</svg>
