<?xml version="1.0" encoding="utf-8" standalone="no"?>
<!DOCTYPE svg PUBLIC "-//W3C//DTD SVG 1.1//EN"
  "http://www.w3.org/Graphics/SVG/1.1/DTD/svg11.dtd">
<svg xmlns:xlink="http://www.w3.org/1999/xlink" width="460.8pt" height="345.6pt" viewBox="0 0 460.8 345.6" xmlns="http://www.w3.org/2000/svg" version="1.1">
 <metadata>
  <rdf:RDF xmlns:dc="http://purl.org/dc/elements/1.1/" xmlns:cc="http://creativecommons.org/ns#" xmlns:rdf="http://www.w3.org/1999/02/22-rdf-syntax-ns#">
   <cc:Work>
    <dc:type rdf:resource="http://purl.org/dc/dcmitype/StillImage"/>
    <dc:date>2025-07-28T21:14:38.788478</dc:date>
    <dc:format>image/svg+xml</dc:format>
    <dc:creator>
     <cc:Agent>
      <dc:title>Matplotlib v3.10.3, https://matplotlib.org/</dc:title>
     </cc:Agent>
    </dc:creator>
   </cc:Work>
  </rdf:RDF>
 </metadata>
 <defs>
  <style type="text/css">*{stroke-linejoin: round; stroke-linecap: butt}</style>
 </defs>
 <g id="figure_1">
  <g id="patch_1">
   <path d="M 0 345.6 
L 460.8 345.6 
L 460.8 0 
L 0 0 
z
" style="fill: #ffffff"/>
  </g>
  <g id="axes_1">
   <g id="patch_2">
    <path d="M 57.17 303.64 
L 450 303.64 
L 450 26.88 
L 57.17 26.88 
z
" style="fill: #ffffff"/>
   </g>
   <g id="matplotlib.axis_1">
    <g id="xtick_1">
     <g id="line2d_1">
      <path d="M 75.138236 303.64 
L 75.138236 26.88 
" clip-path="url(#pddf97fa541)" style="fill: none; stroke: #b0b0b0; stroke-opacity: 0.3; stroke-width: 0.8; stroke-linecap: square"/>
     </g>
     <g id="line2d_2">
      <defs>
       <path id="m3648401845" d="M 0 0 
L 0 3.5 
" style="stroke: #000000; stroke-width: 0.8"/>
      </defs>
      <g>
       <use xlink:href="#m3648401845" x="75.138236" y="303.64" style="stroke: #000000; stroke-width: 0.8"/>
      </g>
     </g>
     <g id="text_1">
      <!-- 0.00 -->
      <g transform="translate(64.005423 318.238437) scale(0.1 -0.1)">
       <defs>
        <path id="DejaVuSans-30" d="M 2034 4250 
Q 1547 4250 1301 3770 
Q 1056 3291 1056 2328 
Q 1056 1369 1301 889 
Q 1547 409 2034 409 
Q 2525 409 2770 889 
Q 3016 1369 3016 2328 
Q 3016 3291 2770 3770 
Q 2525 4250 2034 4250 
z
M 2034 4750 
Q 2819 4750 3233 4129 
Q 3647 3509 3647 2328 
Q 3647 1150 3233 529 
Q 2819 -91 2034 -91 
Q 1250 -91 836 529 
Q 422 1150 422 2328 
Q 422 3509 836 4129 
Q 1250 4750 2034 4750 
z
" transform="scale(0.015625)"/>
        <path id="DejaVuSans-2e" d="M 684 794 
L 1344 794 
L 1344 0 
L 684 0 
L 684 794 
z
" transform="scale(0.015625)"/>
       </defs>
       <use xlink:href="#DejaVuSans-30"/>
       <use xlink:href="#DejaVuSans-2e" transform="translate(63.623047 0)"/>
       <use xlink:href="#DejaVuSans-30" transform="translate(95.410156 0)"/>
       <use xlink:href="#DejaVuSans-30" transform="translate(159.033203 0)"/>
      </g>
     </g>
    </g>
    <g id="xtick_2">
     <g id="line2d_3">
      <path d="M 146.504453 303.64 
L 146.504453 26.88 
" clip-path="url(#pddf97fa541)" style="fill: none; stroke: #b0b0b0; stroke-opacity: 0.3; stroke-width: 0.8; stroke-linecap: square"/>
     </g>
     <g id="line2d_4">
      <g>
       <use xlink:href="#m3648401845" x="146.504453" y="303.64" style="stroke: #000000; stroke-width: 0.8"/>
      </g>
     </g>
     <g id="text_2">
      <!-- 0.05 -->
      <g transform="translate(135.371641 318.238437) scale(0.1 -0.1)">
       <defs>
        <path id="DejaVuSans-35" d="M 691 4666 
L 3169 4666 
L 3169 4134 
L 1269 4134 
L 1269 2991 
Q 1406 3038 1543 3061 
Q 1681 3084 1819 3084 
Q 2600 3084 3056 2656 
Q 3513 2228 3513 1497 
Q 3513 744 3044 326 
Q 2575 -91 1722 -91 
Q 1428 -91 1123 -41 
Q 819 9 494 109 
L 494 744 
Q 775 591 1075 516 
Q 1375 441 1709 441 
Q 2250 441 2565 725 
Q 2881 1009 2881 1497 
Q 2881 1984 2565 2268 
Q 2250 2553 1709 2553 
Q 1456 2553 1204 2497 
Q 953 2441 691 2322 
L 691 4666 
z
" transform="scale(0.015625)"/>
       </defs>
       <use xlink:href="#DejaVuSans-30"/>
       <use xlink:href="#DejaVuSans-2e" transform="translate(63.623047 0)"/>
       <use xlink:href="#DejaVuSans-30" transform="translate(95.410156 0)"/>
       <use xlink:href="#DejaVuSans-35" transform="translate(159.033203 0)"/>
      </g>
     </g>
    </g>
    <g id="xtick_3">
     <g id="line2d_5">
      <path d="M 217.87067 303.64 
L 217.87067 26.88 
" clip-path="url(#pddf97fa541)" style="fill: none; stroke: #b0b0b0; stroke-opacity: 0.3; stroke-width: 0.8; stroke-linecap: square"/>
     </g>
     <g id="line2d_6">
      <g>
       <use xlink:href="#m3648401845" x="217.87067" y="303.64" style="stroke: #000000; stroke-width: 0.8"/>
      </g>
     </g>
     <g id="text_3">
      <!-- 0.10 -->
      <g transform="translate(206.737858 318.238437) scale(0.1 -0.1)">
       <defs>
        <path id="DejaVuSans-31" d="M 794 531 
L 1825 531 
L 1825 4091 
L 703 3866 
L 703 4441 
L 1819 4666 
L 2450 4666 
L 2450 531 
L 3481 531 
L 3481 0 
L 794 0 
L 794 531 
z
" transform="scale(0.015625)"/>
       </defs>
       <use xlink:href="#DejaVuSans-30"/>
       <use xlink:href="#DejaVuSans-2e" transform="translate(63.623047 0)"/>
       <use xlink:href="#DejaVuSans-31" transform="translate(95.410156 0)"/>
       <use xlink:href="#DejaVuSans-30" transform="translate(159.033203 0)"/>
      </g>
     </g>
    </g>
    <g id="xtick_4">
     <g id="line2d_7">
      <path d="M 289.236888 303.64 
L 289.236888 26.88 
" clip-path="url(#pddf97fa541)" style="fill: none; stroke: #b0b0b0; stroke-opacity: 0.3; stroke-width: 0.8; stroke-linecap: square"/>
     </g>
     <g id="line2d_8">
      <g>
       <use xlink:href="#m3648401845" x="289.236888" y="303.64" style="stroke: #000000; stroke-width: 0.8"/>
      </g>
     </g>
     <g id="text_4">
      <!-- 0.15 -->
      <g transform="translate(278.104075 318.238437) scale(0.1 -0.1)">
       <use xlink:href="#DejaVuSans-30"/>
       <use xlink:href="#DejaVuSans-2e" transform="translate(63.623047 0)"/>
       <use xlink:href="#DejaVuSans-31" transform="translate(95.410156 0)"/>
       <use xlink:href="#DejaVuSans-35" transform="translate(159.033203 0)"/>
      </g>
     </g>
    </g>
    <g id="xtick_5">
     <g id="line2d_9">
      <path d="M 360.603105 303.64 
L 360.603105 26.88 
" clip-path="url(#pddf97fa541)" style="fill: none; stroke: #b0b0b0; stroke-opacity: 0.3; stroke-width: 0.8; stroke-linecap: square"/>
     </g>
     <g id="line2d_10">
      <g>
       <use xlink:href="#m3648401845" x="360.603105" y="303.64" style="stroke: #000000; stroke-width: 0.8"/>
      </g>
     </g>
     <g id="text_5">
      <!-- 0.20 -->
      <g transform="translate(349.470292 318.238437) scale(0.1 -0.1)">
       <defs>
        <path id="DejaVuSans-32" d="M 1228 531 
L 3431 531 
L 3431 0 
L 469 0 
L 469 531 
Q 828 903 1448 1529 
Q 2069 2156 2228 2338 
Q 2531 2678 2651 2914 
Q 2772 3150 2772 3378 
Q 2772 3750 2511 3984 
Q 2250 4219 1831 4219 
Q 1534 4219 1204 4116 
Q 875 4013 500 3803 
L 500 4441 
Q 881 4594 1212 4672 
Q 1544 4750 1819 4750 
Q 2544 4750 2975 4387 
Q 3406 4025 3406 3419 
Q 3406 3131 3298 2873 
Q 3191 2616 2906 2266 
Q 2828 2175 2409 1742 
Q 1991 1309 1228 531 
z
" transform="scale(0.015625)"/>
       </defs>
       <use xlink:href="#DejaVuSans-30"/>
       <use xlink:href="#DejaVuSans-2e" transform="translate(63.623047 0)"/>
       <use xlink:href="#DejaVuSans-32" transform="translate(95.410156 0)"/>
       <use xlink:href="#DejaVuSans-30" transform="translate(159.033203 0)"/>
      </g>
     </g>
    </g>
    <g id="xtick_6">
     <g id="line2d_11">
      <path d="M 431.969322 303.64 
L 431.969322 26.88 
" clip-path="url(#pddf97fa541)" style="fill: none; stroke: #b0b0b0; stroke-opacity: 0.3; stroke-width: 0.8; stroke-linecap: square"/>
     </g>
     <g id="line2d_12">
      <g>
       <use xlink:href="#m3648401845" x="431.969322" y="303.64" style="stroke: #000000; stroke-width: 0.8"/>
      </g>
     </g>
     <g id="text_6">
      <!-- 0.25 -->
      <g transform="translate(420.83651 318.238437) scale(0.1 -0.1)">
       <use xlink:href="#DejaVuSans-30"/>
       <use xlink:href="#DejaVuSans-2e" transform="translate(63.623047 0)"/>
       <use xlink:href="#DejaVuSans-32" transform="translate(95.410156 0)"/>
       <use xlink:href="#DejaVuSans-35" transform="translate(159.033203 0)"/>
      </g>
     </g>
    </g>
    <g id="text_7">
     <!-- Strain [-] -->
     <g transform="translate(231.47875 331.916562) scale(0.1 -0.1)">
      <defs>
       <path id="DejaVuSans-53" d="M 3425 4513 
L 3425 3897 
Q 3066 4069 2747 4153 
Q 2428 4238 2131 4238 
Q 1616 4238 1336 4038 
Q 1056 3838 1056 3469 
Q 1056 3159 1242 3001 
Q 1428 2844 1947 2747 
L 2328 2669 
Q 3034 2534 3370 2195 
Q 3706 1856 3706 1288 
Q 3706 609 3251 259 
Q 2797 -91 1919 -91 
Q 1588 -91 1214 -16 
Q 841 59 441 206 
L 441 856 
Q 825 641 1194 531 
Q 1563 422 1919 422 
Q 2459 422 2753 634 
Q 3047 847 3047 1241 
Q 3047 1584 2836 1778 
Q 2625 1972 2144 2069 
L 1759 2144 
Q 1053 2284 737 2584 
Q 422 2884 422 3419 
Q 422 4038 858 4394 
Q 1294 4750 2059 4750 
Q 2388 4750 2728 4690 
Q 3069 4631 3425 4513 
z
" transform="scale(0.015625)"/>
       <path id="DejaVuSans-74" d="M 1172 4494 
L 1172 3500 
L 2356 3500 
L 2356 3053 
L 1172 3053 
L 1172 1153 
Q 1172 725 1289 603 
Q 1406 481 1766 481 
L 2356 481 
L 2356 0 
L 1766 0 
Q 1100 0 847 248 
Q 594 497 594 1153 
L 594 3053 
L 172 3053 
L 172 3500 
L 594 3500 
L 594 4494 
L 1172 4494 
z
" transform="scale(0.015625)"/>
       <path id="DejaVuSans-72" d="M 2631 2963 
Q 2534 3019 2420 3045 
Q 2306 3072 2169 3072 
Q 1681 3072 1420 2755 
Q 1159 2438 1159 1844 
L 1159 0 
L 581 0 
L 581 3500 
L 1159 3500 
L 1159 2956 
Q 1341 3275 1631 3429 
Q 1922 3584 2338 3584 
Q 2397 3584 2469 3576 
Q 2541 3569 2628 3553 
L 2631 2963 
z
" transform="scale(0.015625)"/>
       <path id="DejaVuSans-61" d="M 2194 1759 
Q 1497 1759 1228 1600 
Q 959 1441 959 1056 
Q 959 750 1161 570 
Q 1363 391 1709 391 
Q 2188 391 2477 730 
Q 2766 1069 2766 1631 
L 2766 1759 
L 2194 1759 
z
M 3341 1997 
L 3341 0 
L 2766 0 
L 2766 531 
Q 2569 213 2275 61 
Q 1981 -91 1556 -91 
Q 1019 -91 701 211 
Q 384 513 384 1019 
Q 384 1609 779 1909 
Q 1175 2209 1959 2209 
L 2766 2209 
L 2766 2266 
Q 2766 2663 2505 2880 
Q 2244 3097 1772 3097 
Q 1472 3097 1187 3025 
Q 903 2953 641 2809 
L 641 3341 
Q 956 3463 1253 3523 
Q 1550 3584 1831 3584 
Q 2591 3584 2966 3190 
Q 3341 2797 3341 1997 
z
" transform="scale(0.015625)"/>
       <path id="DejaVuSans-69" d="M 603 3500 
L 1178 3500 
L 1178 0 
L 603 0 
L 603 3500 
z
M 603 4863 
L 1178 4863 
L 1178 4134 
L 603 4134 
L 603 4863 
z
" transform="scale(0.015625)"/>
       <path id="DejaVuSans-6e" d="M 3513 2113 
L 3513 0 
L 2938 0 
L 2938 2094 
Q 2938 2591 2744 2837 
Q 2550 3084 2163 3084 
Q 1697 3084 1428 2787 
Q 1159 2491 1159 1978 
L 1159 0 
L 581 0 
L 581 3500 
L 1159 3500 
L 1159 2956 
Q 1366 3272 1645 3428 
Q 1925 3584 2291 3584 
Q 2894 3584 3203 3211 
Q 3513 2838 3513 2113 
z
" transform="scale(0.015625)"/>
       <path id="DejaVuSans-20" transform="scale(0.015625)"/>
       <path id="DejaVuSans-5b" d="M 550 4863 
L 1875 4863 
L 1875 4416 
L 1125 4416 
L 1125 -397 
L 1875 -397 
L 1875 -844 
L 550 -844 
L 550 4863 
z
" transform="scale(0.015625)"/>
       <path id="DejaVuSans-2d" d="M 313 2009 
L 1997 2009 
L 1997 1497 
L 313 1497 
L 313 2009 
z
" transform="scale(0.015625)"/>
       <path id="DejaVuSans-5d" d="M 1947 4863 
L 1947 -844 
L 622 -844 
L 622 -397 
L 1369 -397 
L 1369 4416 
L 622 4416 
L 622 4863 
L 1947 4863 
z
" transform="scale(0.015625)"/>
      </defs>
      <use xlink:href="#DejaVuSans-53"/>
      <use xlink:href="#DejaVuSans-74" transform="translate(63.476562 0)"/>
      <use xlink:href="#DejaVuSans-72" transform="translate(102.685547 0)"/>
      <use xlink:href="#DejaVuSans-61" transform="translate(143.798828 0)"/>
      <use xlink:href="#DejaVuSans-69" transform="translate(205.078125 0)"/>
      <use xlink:href="#DejaVuSans-6e" transform="translate(232.861328 0)"/>
      <use xlink:href="#DejaVuSans-20" transform="translate(296.240234 0)"/>
      <use xlink:href="#DejaVuSans-5b" transform="translate(328.027344 0)"/>
      <use xlink:href="#DejaVuSans-2d" transform="translate(367.041016 0)"/>
      <use xlink:href="#DejaVuSans-5d" transform="translate(403.125 0)"/>
     </g>
    </g>
   </g>
   <g id="matplotlib.axis_2">
    <g id="ytick_1">
     <g id="line2d_13">
      <path d="M 57.17 273.482213 
L 450 273.482213 
" clip-path="url(#pddf97fa541)" style="fill: none; stroke: #b0b0b0; stroke-opacity: 0.3; stroke-width: 0.8; stroke-linecap: square"/>
     </g>
     <g id="line2d_14">
      <defs>
       <path id="m2bffc6d66d" d="M 0 0 
L -3.5 0 
" style="stroke: #000000; stroke-width: 0.8"/>
      </defs>
      <g>
       <use xlink:href="#m2bffc6d66d" x="57.17" y="273.482213" style="stroke: #000000; stroke-width: 0.8"/>
      </g>
     </g>
     <g id="text_8">
      <!-- 0 -->
      <g transform="translate(43.8075 277.281432) scale(0.1 -0.1)">
       <use xlink:href="#DejaVuSans-30"/>
      </g>
     </g>
    </g>
    <g id="ytick_2">
     <g id="line2d_15">
      <path d="M 57.17 228.877383 
L 450 228.877383 
" clip-path="url(#pddf97fa541)" style="fill: none; stroke: #b0b0b0; stroke-opacity: 0.3; stroke-width: 0.8; stroke-linecap: square"/>
     </g>
     <g id="line2d_16">
      <g>
       <use xlink:href="#m2bffc6d66d" x="57.17" y="228.877383" style="stroke: #000000; stroke-width: 0.8"/>
      </g>
     </g>
     <g id="text_9">
      <!-- 500 -->
      <g transform="translate(31.0825 232.676602) scale(0.1 -0.1)">
       <use xlink:href="#DejaVuSans-35"/>
       <use xlink:href="#DejaVuSans-30" transform="translate(63.623047 0)"/>
       <use xlink:href="#DejaVuSans-30" transform="translate(127.246094 0)"/>
      </g>
     </g>
    </g>
    <g id="ytick_3">
     <g id="line2d_17">
      <path d="M 57.17 184.272552 
L 450 184.272552 
" clip-path="url(#pddf97fa541)" style="fill: none; stroke: #b0b0b0; stroke-opacity: 0.3; stroke-width: 0.8; stroke-linecap: square"/>
     </g>
     <g id="line2d_18">
      <g>
       <use xlink:href="#m2bffc6d66d" x="57.17" y="184.272552" style="stroke: #000000; stroke-width: 0.8"/>
      </g>
     </g>
     <g id="text_10">
      <!-- 1000 -->
      <g transform="translate(24.72 188.071771) scale(0.1 -0.1)">
       <use xlink:href="#DejaVuSans-31"/>
       <use xlink:href="#DejaVuSans-30" transform="translate(63.623047 0)"/>
       <use xlink:href="#DejaVuSans-30" transform="translate(127.246094 0)"/>
       <use xlink:href="#DejaVuSans-30" transform="translate(190.869141 0)"/>
      </g>
     </g>
    </g>
    <g id="ytick_4">
     <g id="line2d_19">
      <path d="M 57.17 139.667722 
L 450 139.667722 
" clip-path="url(#pddf97fa541)" style="fill: none; stroke: #b0b0b0; stroke-opacity: 0.3; stroke-width: 0.8; stroke-linecap: square"/>
     </g>
     <g id="line2d_20">
      <g>
       <use xlink:href="#m2bffc6d66d" x="57.17" y="139.667722" style="stroke: #000000; stroke-width: 0.8"/>
      </g>
     </g>
     <g id="text_11">
      <!-- 1500 -->
      <g transform="translate(24.72 143.466941) scale(0.1 -0.1)">
       <use xlink:href="#DejaVuSans-31"/>
       <use xlink:href="#DejaVuSans-35" transform="translate(63.623047 0)"/>
       <use xlink:href="#DejaVuSans-30" transform="translate(127.246094 0)"/>
       <use xlink:href="#DejaVuSans-30" transform="translate(190.869141 0)"/>
      </g>
     </g>
    </g>
    <g id="ytick_5">
     <g id="line2d_21">
      <path d="M 57.17 95.062892 
L 450 95.062892 
" clip-path="url(#pddf97fa541)" style="fill: none; stroke: #b0b0b0; stroke-opacity: 0.3; stroke-width: 0.8; stroke-linecap: square"/>
     </g>
     <g id="line2d_22">
      <g>
       <use xlink:href="#m2bffc6d66d" x="57.17" y="95.062892" style="stroke: #000000; stroke-width: 0.8"/>
      </g>
     </g>
     <g id="text_12">
      <!-- 2000 -->
      <g transform="translate(24.72 98.86211) scale(0.1 -0.1)">
       <use xlink:href="#DejaVuSans-32"/>
       <use xlink:href="#DejaVuSans-30" transform="translate(63.623047 0)"/>
       <use xlink:href="#DejaVuSans-30" transform="translate(127.246094 0)"/>
       <use xlink:href="#DejaVuSans-30" transform="translate(190.869141 0)"/>
      </g>
     </g>
    </g>
    <g id="ytick_6">
     <g id="line2d_23">
      <path d="M 57.17 50.458061 
L 450 50.458061 
" clip-path="url(#pddf97fa541)" style="fill: none; stroke: #b0b0b0; stroke-opacity: 0.3; stroke-width: 0.8; stroke-linecap: square"/>
     </g>
     <g id="line2d_24">
      <g>
       <use xlink:href="#m2bffc6d66d" x="57.17" y="50.458061" style="stroke: #000000; stroke-width: 0.8"/>
      </g>
     </g>
     <g id="text_13">
      <!-- 2500 -->
      <g transform="translate(24.72 54.25728) scale(0.1 -0.1)">
       <use xlink:href="#DejaVuSans-32"/>
       <use xlink:href="#DejaVuSans-35" transform="translate(63.623047 0)"/>
       <use xlink:href="#DejaVuSans-30" transform="translate(127.246094 0)"/>
       <use xlink:href="#DejaVuSans-30" transform="translate(190.869141 0)"/>
      </g>
     </g>
    </g>
    <g id="text_14">
     <!-- Stress [Pa] -->
     <g transform="translate(18.640312 191.967812) rotate(-90) scale(0.1 -0.1)">
      <defs>
       <path id="DejaVuSans-65" d="M 3597 1894 
L 3597 1613 
L 953 1613 
Q 991 1019 1311 708 
Q 1631 397 2203 397 
Q 2534 397 2845 478 
Q 3156 559 3463 722 
L 3463 178 
Q 3153 47 2828 -22 
Q 2503 -91 2169 -91 
Q 1331 -91 842 396 
Q 353 884 353 1716 
Q 353 2575 817 3079 
Q 1281 3584 2069 3584 
Q 2775 3584 3186 3129 
Q 3597 2675 3597 1894 
z
M 3022 2063 
Q 3016 2534 2758 2815 
Q 2500 3097 2075 3097 
Q 1594 3097 1305 2825 
Q 1016 2553 972 2059 
L 3022 2063 
z
" transform="scale(0.015625)"/>
       <path id="DejaVuSans-73" d="M 2834 3397 
L 2834 2853 
Q 2591 2978 2328 3040 
Q 2066 3103 1784 3103 
Q 1356 3103 1142 2972 
Q 928 2841 928 2578 
Q 928 2378 1081 2264 
Q 1234 2150 1697 2047 
L 1894 2003 
Q 2506 1872 2764 1633 
Q 3022 1394 3022 966 
Q 3022 478 2636 193 
Q 2250 -91 1575 -91 
Q 1294 -91 989 -36 
Q 684 19 347 128 
L 347 722 
Q 666 556 975 473 
Q 1284 391 1588 391 
Q 1994 391 2212 530 
Q 2431 669 2431 922 
Q 2431 1156 2273 1281 
Q 2116 1406 1581 1522 
L 1381 1569 
Q 847 1681 609 1914 
Q 372 2147 372 2553 
Q 372 3047 722 3315 
Q 1072 3584 1716 3584 
Q 2034 3584 2315 3537 
Q 2597 3491 2834 3397 
z
" transform="scale(0.015625)"/>
       <path id="DejaVuSans-50" d="M 1259 4147 
L 1259 2394 
L 2053 2394 
Q 2494 2394 2734 2622 
Q 2975 2850 2975 3272 
Q 2975 3691 2734 3919 
Q 2494 4147 2053 4147 
L 1259 4147 
z
M 628 4666 
L 2053 4666 
Q 2838 4666 3239 4311 
Q 3641 3956 3641 3272 
Q 3641 2581 3239 2228 
Q 2838 1875 2053 1875 
L 1259 1875 
L 1259 0 
L 628 0 
L 628 4666 
z
" transform="scale(0.015625)"/>
      </defs>
      <use xlink:href="#DejaVuSans-53"/>
      <use xlink:href="#DejaVuSans-74" transform="translate(63.476562 0)"/>
      <use xlink:href="#DejaVuSans-72" transform="translate(102.685547 0)"/>
      <use xlink:href="#DejaVuSans-65" transform="translate(141.548828 0)"/>
      <use xlink:href="#DejaVuSans-73" transform="translate(203.072266 0)"/>
      <use xlink:href="#DejaVuSans-73" transform="translate(255.171875 0)"/>
      <use xlink:href="#DejaVuSans-20" transform="translate(307.271484 0)"/>
      <use xlink:href="#DejaVuSans-5b" transform="translate(339.058594 0)"/>
      <use xlink:href="#DejaVuSans-50" transform="translate(378.072266 0)"/>
      <use xlink:href="#DejaVuSans-61" transform="translate(433.875 0)"/>
      <use xlink:href="#DejaVuSans-5d" transform="translate(495.154297 0)"/>
     </g>
    </g>
   </g>
   <g id="line2d_25">
    <path d="M 75.138236 273.862719 
L 75.137693 273.753612 
L 75.138751 273.923045 
L 75.137266 273.845227 
L 75.347166 273.81521 
L 76.903701 272.035903 
L 77.96847 272.549868 
L 79.541436 272.939399 
L 80.073472 272.799752 
L 80.614647 273.14225 
L 81.130349 272.756442 
L 81.642161 272.024131 
L 82.687176 271.191959 
L 83.204238 271.190346 
L 84.249059 271.541128 
L 85.829901 271.551323 
L 86.355714 271.003876 
L 86.867721 270.184963 
L 87.381672 270.059812 
L 88.415504 270.021114 
L 88.931692 269.931932 
L 89.464019 269.601979 
L 89.992555 268.975076 
L 90.513506 268.666557 
L 91.034653 268.838093 
L 92.091529 268.834484 
L 93.141475 268.68808 
L 94.185712 267.559618 
L 95.240158 267.334684 
L 96.298201 267.186216 
L 98.367715 265.979967 
L 99.938543 265.456886 
L 102.039172 264.434443 
L 106.223372 262.751089 
L 107.283748 262.274824 
L 108.314373 261.813368 
L 110.393124 260.845956 
L 112.479556 260.098224 
L 114.593115 258.907514 
L 116.669726 258.114812 
L 118.263214 257.400822 
L 124.543803 254.629808 
L 126.659692 253.524477 
L 129.239171 252.435696 
L 135.982192 249.315866 
L 137.014372 248.847265 
L 138.590839 248.041235 
L 140.143972 247.278552 
L 141.683492 246.601461 
L 142.215527 246.177288 
L 143.768423 245.52644 
L 145.343723 244.836255 
L 146.902689 244.124725 
L 150.565879 242.274741 
L 152.115706 241.527338 
L 153.690714 240.492813 
L 154.749146 240.023129 
L 156.338059 239.4315 
L 158.414804 238.330554 
L 159.47207 237.939644 
L 162.595543 236.273585 
L 163.626557 235.887965 
L 176.142061 229.349065 
L 177.706174 228.427236 
L 180.307821 227.242778 
L 181.352252 226.680663 
L 183.48234 225.382249 
L 186.101683 224.053266 
L 189.763415 222.106925 
L 191.313436 221.282934 
L 192.355145 220.710287 
L 194.438951 219.580555 
L 202.839637 215.162776 
L 204.421549 214.177946 
L 205.981098 213.425324 
L 208.070277 212.087967 
L 209.122097 211.665369 
L 210.151264 211.132262 
L 210.661909 210.681009 
L 219.533061 205.734854 
L 224.258014 202.973137 
L 225.825341 202.254108 
L 226.872301 201.578874 
L 227.90137 200.756857 
L 228.942106 200.231649 
L 231.015218 199.194443 
L 234.166608 197.216978 
L 235.212206 196.603992 
L 237.313028 195.25752 
L 238.368543 194.759486 
L 239.412391 194.044994 
L 240.987303 192.938676 
L 243.079277 191.762446 
L 246.73526 189.540213 
L 248.286642 188.680913 
L 249.335157 188.088473 
L 250.376088 187.334535 
L 251.414491 186.730905 
L 252.969568 185.804232 
L 254.019638 185.017008 
L 258.702455 182.108609 
L 261.349216 180.359262 
L 262.401231 179.755303 
L 263.454413 178.964458 
L 265.518579 177.632043 
L 268.660527 175.706624 
L 269.712153 175.049913 
L 270.767863 174.241861 
L 273.877895 172.300209 
L 275.445805 171.141469 
L 277.000104 170.238915 
L 283.772865 165.505646 
L 284.798798 164.852849 
L 292.634853 159.539551 
L 293.684437 158.802539 
L 298.375238 155.377824 
L 300.955106 153.65142 
L 305.681785 150.151128 
L 306.731855 149.424365 
L 309.361699 147.534912 
L 310.937947 146.394637 
L 312.513247 145.240222 
L 313.552623 144.560709 
L 316.160784 142.465048 
L 317.204049 141.773264 
L 323.466285 136.991298 
L 324.492243 136.280144 
L 326.56691 134.600191 
L 328.138127 133.437408 
L 329.701954 132.185201 
L 334.402284 128.421717 
L 336.497345 126.770985 
L 338.054366 125.53608 
L 340.67332 123.41738 
L 345.345356 119.706647 
L 346.40515 118.752988 
L 347.984388 117.500194 
L 349.029111 116.600602 
L 350.591771 115.276227 
L 352.154043 114.187916 
L 353.194002 113.183668 
L 354.771052 111.843731 
L 355.816067 111.103615 
L 357.399145 109.585678 
L 360.008765 107.480707 
L 370.038932 98.855613 
L 371.062362 97.847604 
L 376.793098 93.023665 
L 383.601833 86.884495 
L 384.646653 85.972962 
L 386.214272 84.41452 
L 387.782378 83.098749 
L 389.356219 81.374508 
L 391.439248 79.638514 
L 392.498458 78.431818 
L 394.630685 76.647398 
L 406.646458 64.870877 
L 416.072542 55.494183 
L 417.121835 54.290591 
L 419.203114 52.372083 
L 421.298005 50.011066 
L 422.876027 48.535348 
L 427.036567 44.141694 
L 428.636952 42.322388 
L 432.144091 39.46 
L 431.965579 43.539756 
L 431.966892 67.473881 
L 431.45384 67.54605 
L 430.40513 69.41759 
L 429.885734 69.882971 
L 429.337948 69.937509 
L 428.79055 70.173902 
L 427.739507 71.065689 
L 427.213694 71.23297 
L 426.670185 71.712996 
L 426.132704 71.678487 
L 425.076995 73.816181 
L 424.547876 74.525548 
L 423.491582 76.704991 
L 422.981715 76.783178 
L 422.446957 76.747305 
L 421.925033 77.065693 
L 420.871268 78.076147 
L 420.345454 78.257979 
L 419.828465 78.759915 
L 419.311597 80.774616 
L 418.781214 81.529682 
L 416.165177 83.61486 
L 415.120454 84.858886 
L 413.548557 86.437473 
L 413.015354 86.967242 
L 411.966645 88.661299 
L 411.429942 88.940523 
L 410.904518 89.071837 
L 409.879532 90.039977 
L 409.350025 90.244999 
L 408.839671 91.052159 
L 408.329609 92.368776 
L 407.818575 92.837331 
L 406.253289 93.8119 
L 405.214886 95.454993 
L 404.684795 95.946209 
L 404.153537 96.256792 
L 403.625196 96.754497 
L 403.092285 97.064234 
L 402.043575 98.784807 
L 399.980284 100.400161 
L 398.931186 101.837514 
L 397.361719 103.021642 
L 396.829781 103.439515 
L 395.778154 104.838315 
L 393.685427 106.443254 
L 393.160392 107.30025 
L 392.636815 107.890011 
L 390.554856 109.508091 
L 389.489423 111.030447 
L 388.434491 111.748748 
L 387.380531 112.546316 
L 386.854718 113.44619 
L 386.319474 113.986772 
L 385.294294 114.689087 
L 384.247626 115.53085 
L 383.716077 116.485826 
L 383.198431 117.039761 
L 382.160805 117.553309 
L 381.113384 118.29058 
L 380.061564 119.952949 
L 379.542265 120.328978 
L 378.495889 120.849296 
L 377.970659 121.211879 
L 377.441638 121.864076 
L 376.925061 122.725961 
L 376.393998 123.20091 
L 374.840282 123.974688 
L 374.327206 124.414329 
L 373.81695 125.323606 
L 373.29347 125.825071 
L 371.233776 127.065947 
L 370.712436 127.963282 
L 369.674713 129.001569 
L 368.126442 129.746504 
L 366.584103 131.700743 
L 364.503893 132.779111 
L 363.971274 133.861968 
L 363.443808 134.396439 
L 361.872397 135.433973 
L 361.355918 135.54185 
L 360.830202 136.495227 
L 360.302639 137.082966 
L 358.736478 138.024777 
L 358.21611 138.108089 
L 357.183929 139.747408 
L 356.128414 140.254304 
L 354.558461 141.247691 
L 354.038385 142.428716 
L 353.528225 142.794872 
L 352.501101 143.122016 
L 351.975482 143.484505 
L 351.452294 143.573646 
L 350.928912 144.837794 
L 350.398626 145.538511 
L 348.801352 146.23321 
L 348.280206 146.258974 
L 347.241414 147.976915 
L 346.719782 148.349088 
L 346.187357 148.54218 
L 345.655127 148.889859 
L 345.143704 149.024875 
L 344.620419 149.500894 
L 344.109287 150.477496 
L 343.581845 150.884544 
L 343.055643 150.967385 
L 341.474412 151.672403 
L 340.964156 152.714827 
L 340.441454 153.292082 
L 338.866931 154.0416 
L 338.348605 154.130918 
L 337.307771 155.591732 
L 336.771749 155.999261 
L 336.257603 156.172794 
L 335.225423 156.743937 
L 333.655178 158.326097 
L 332.082017 159.16424 
L 330.495633 160.721446 
L 328.410854 161.9737 
L 327.379354 163.151905 
L 325.285435 164.254038 
L 323.738137 165.728299 
L 322.697206 166.243023 
L 321.630509 167.140357 
L 321.09614 167.786724 
L 320.050931 168.426086 
L 319.009611 168.915422 
L 317.438346 170.409487 
L 315.837183 171.043559 
L 315.321287 171.589643 
L 314.799849 172.341136 
L 313.760474 172.821492 
L 312.185465 173.763491 
L 311.655277 174.564068 
L 311.126547 174.981042 
L 310.08756 175.267483 
L 309.037392 175.863543 
L 308.519455 176.645879 
L 307.47969 177.299721 
L 305.898945 177.955479 
L 305.369 178.79904 
L 304.856118 179.20356 
L 302.76395 180.146124 
L 302.234734 180.840352 
L 301.71106 181.300821 
L 300.681796 181.736089 
L 299.615975 182.28062 
L 298.571154 183.610873 
L 295.946464 184.724601 
L 295.432416 185.514647 
L 294.374178 186.158076 
L 293.857115 186.292175 
L 292.809378 186.885979 
L 292.292073 187.623944 
L 291.76976 188.022258 
L 290.189793 188.670787 
L 289.660382 188.946532 
L 288.619257 190.186421 
L 287.050957 190.766526 
L 286.521352 191.03677 
L 284.945954 192.472854 
L 283.377849 193.178742 
L 282.855342 193.506157 
L 281.79827 194.526108 
L 279.688966 195.57586 
L 278.664162 196.364308 
L 276.564605 197.655208 
L 275.005833 198.699889 
L 273.438506 199.506014 
L 271.885276 200.569125 
L 270.326408 201.379576 
L 268.787471 202.505969 
L 267.199531 203.274153 
L 265.118386 204.693957 
L 263.545419 205.484732 
L 261.975758 206.763267 
L 259.876006 207.718972 
L 258.841006 208.642823 
L 257.259677 209.300051 
L 256.746309 209.492579 
L 255.168773 210.64657 
L 253.617731 211.510941 
L 251.520118 212.80706 
L 250.473353 213.190188 
L 248.398978 214.664119 
L 246.819594 215.29925 
L 245.778566 216.025919 
L 244.72937 216.664105 
L 243.170599 217.455609 
L 241.607258 218.488065 
L 240.574153 218.920771 
L 232.197313 223.569202 
L 230.641264 224.465452 
L 229.612195 224.991366 
L 228.569295 225.565218 
L 227.529919 226.246658 
L 225.979899 226.820057 
L 225.448641 227.103842 
L 224.396139 227.802772 
L 223.347236 228.335291 
L 222.301443 228.801072 
L 220.718948 229.757505 
L 219.148315 230.597011 
L 218.629891 230.873274 
L 217.597321 231.259986 
L 216.545015 231.828308 
L 216.021328 232.051005 
L 214.981564 232.619703 
L 213.942189 233.155254 
L 213.415987 233.58441 
L 209.250998 235.603672 
L 208.222318 236.037177 
L 205.588975 237.604152 
L 203.530447 238.601535 
L 200.924547 239.958721 
L 199.878171 240.415946 
L 198.822169 240.967342 
L 197.263787 241.560299 
L 195.209343 242.643885 
L 194.148383 243.092741 
L 192.041825 244.240714 
L 190.99856 244.603203 
L 189.432351 245.550782 
L 187.344947 246.409564 
L 185.785009 247.348743 
L 182.664841 248.776599 
L 181.113848 249.5595 
L 179.539228 250.254058 
L 178.50345 250.742453 
L 176.947559 251.33302 
L 174.854418 252.470697 
L 173.82146 252.739126 
L 169.126867 254.999553 
L 168.097214 255.482636 
L 163.952905 257.28125 
L 162.404246 257.993486 
L 158.21952 259.722075 
L 157.183742 260.200033 
L 156.146603 260.863514 
L 155.103339 261.195325 
L 154.061241 261.49412 
L 153.022741 262.054025 
L 152.501108 262.392912 
L 150.958453 262.904538 
L 148.879799 264.062338 
L 147.840424 264.331402 
L 146.78413 264.802567 
L 146.265804 265.195333 
L 145.22847 265.569293 
L 144.199012 265.957475 
L 141.610588 266.916776 
L 134.220802 270.068153 
L 129.961016 271.658518 
L 127.870986 272.653597 
L 126.313868 273.069593 
L 125.263411 273.698188 
L 120.590597 275.300365 
L 117.937905 276.429368 
L 116.36348 277.004883 
L 115.321771 277.548192 
L 112.226722 278.573649 
L 111.160122 279.088844 
L 110.105774 279.577121 
L 109.053564 279.80283 
L 108.013411 280.223876 
L 106.961493 280.737108 
L 104.88352 281.317756 
L 104.359262 281.684476 
L 101.774047 282.49978 
L 101.262818 282.876185 
L 100.21738 283.065627 
L 99.18306 283.319713 
L 98.130365 283.916043 
L 96.56362 284.193663 
L 96.036446 284.355231 
L 95.519675 284.76041 
L 94.48205 285.077916 
L 92.923376 285.535599 
L 92.394451 286.088781 
L 90.826152 286.291864 
L 90.310256 286.417417 
L 89.791638 286.680621 
L 89.275547 287.121366 
L 87.713743 287.33415 
L 87.18686 287.421516 
L 86.15361 288.294403 
L 85.095761 288.358891 
L 84.053858 288.591311 
L 83.00758 289.302677 
L 80.915216 289.48282 
L 80.401751 290.085557 
L 79.881383 290.320898 
L 79.353236 290.255017 
L 77.778714 290.41194 
L 77.265832 290.913688 
L 76.743422 291.06 
L 75.282185 290.765384 
L 75.127761 290.970465 
L 75.026249 290.429618 
L 75.026249 290.429618 
" clip-path="url(#pddf97fa541)" style="fill: none; stroke: #ff0000; stroke-width: 2; stroke-linecap: square"/>
   </g>
   <g id="line2d_26">
    <path d="M 75.138236 273.862719 
L 75.137693 273.753612 
L 75.138751 273.923045 
L 75.137266 273.845227 
L 75.347166 273.81521 
L 76.903701 272.035903 
L 77.44546 274.047137 
L 79.541436 273.155317 
L 80.073472 272.801327 
L 80.614647 273.14225 
L 81.130349 272.756442 
L 81.642161 272.024131 
L 82.687176 271.191959 
L 83.204238 271.190346 
L 84.249059 271.541128 
L 85.829901 271.551323 
L 86.355714 271.003876 
L 86.867721 270.184963 
L 87.381672 270.059812 
L 88.415504 270.021114 
L 88.931692 269.931932 
L 89.464019 269.601979 
L 89.992555 268.975076 
L 90.513506 268.666557 
L 91.034653 268.838093 
L 92.091529 268.834484 
L 93.141475 268.68808 
L 94.185712 267.559618 
L 95.240158 267.334684 
L 96.298201 267.186216 
L 98.367715 265.979967 
L 99.938543 265.456886 
L 102.039172 264.434443 
L 106.223372 262.751089 
L 107.283748 262.274824 
L 108.314373 261.813368 
L 110.393124 260.845956 
L 112.479556 260.098224 
L 114.593115 258.907514 
L 116.669726 258.114812 
L 118.263214 257.400822 
L 124.543803 254.629808 
L 126.659692 253.524477 
L 129.239171 252.435696 
L 135.982192 249.315866 
L 137.014372 248.847265 
L 138.590839 248.041235 
L 140.143972 247.278552 
L 141.683492 246.601461 
L 142.215527 246.177288 
L 143.768423 245.52644 
L 145.343723 244.836255 
L 146.902689 244.124725 
L 150.565879 242.274741 
L 152.115706 241.527338 
L 153.690714 240.492813 
L 154.749146 240.023129 
L 156.338059 239.4315 
L 158.414804 238.330554 
L 159.47207 237.939644 
L 162.595543 236.273585 
L 163.626557 235.887965 
L 176.142061 229.349065 
L 177.706174 228.427236 
L 180.307821 227.242778 
L 181.352252 226.680663 
L 183.48234 225.382249 
L 186.101683 224.053266 
L 189.763415 222.106925 
L 191.313436 221.282934 
L 192.355145 220.710287 
L 194.438951 219.580555 
L 202.839637 215.162776 
L 204.421549 214.177946 
L 205.981098 213.425324 
L 208.070277 212.087967 
L 209.122097 211.665369 
L 210.151264 211.132262 
L 210.661909 210.681009 
L 219.533061 205.734854 
L 224.258014 202.973137 
L 225.825341 202.254108 
L 226.872301 201.578874 
L 227.90137 200.756857 
L 228.942106 200.231649 
L 231.015218 199.194443 
L 234.166608 197.216978 
L 235.212206 196.603992 
L 237.313028 195.25752 
L 238.368543 194.759486 
L 239.412391 194.044994 
L 240.987303 192.938676 
L 243.079277 191.762446 
L 246.73526 189.540213 
L 248.286642 188.680913 
L 249.335157 188.088473 
L 250.376088 187.334535 
L 251.414491 186.730905 
L 252.969568 185.804232 
L 254.019638 185.017008 
L 258.702455 182.108609 
L 261.349216 180.359262 
L 262.401231 179.755303 
L 263.454413 178.964458 
L 265.518579 177.632043 
L 268.660527 175.706624 
L 269.712153 175.049913 
L 270.767863 174.241861 
L 273.877895 172.300209 
L 275.445805 171.141469 
L 277.000104 170.238915 
L 283.772865 165.505646 
L 284.798798 164.852849 
L 292.634853 159.539551 
L 293.684437 158.802539 
L 298.375238 155.377824 
L 300.955106 153.65142 
L 305.681785 150.151128 
L 306.731855 149.424365 
L 309.361699 147.534912 
L 310.937947 146.394637 
L 312.513247 145.240222 
L 313.552623 144.560709 
L 316.160784 142.465048 
L 317.204049 141.773264 
L 323.466285 136.991298 
L 324.492243 136.280144 
L 326.56691 134.600191 
L 328.138127 133.437408 
L 329.701954 132.185201 
L 334.402284 128.421717 
L 336.497345 126.770985 
L 338.054366 125.53608 
L 340.67332 123.41738 
L 345.345356 119.706647 
L 346.40515 118.752988 
L 347.984388 117.500194 
L 349.029111 116.600602 
L 350.591771 115.276227 
L 352.154043 114.187916 
L 353.194002 113.183668 
L 354.771052 111.843731 
L 355.816067 111.103615 
L 357.399145 109.585678 
L 360.008765 107.480707 
L 370.038932 98.855613 
L 371.062362 97.847604 
L 376.793098 93.023665 
L 383.601833 86.884495 
L 384.646653 85.972962 
L 386.214272 84.41452 
L 387.782378 83.098749 
L 389.356219 81.374508 
L 391.439248 79.638514 
L 392.498458 78.431818 
L 394.630685 76.647398 
L 406.646458 64.870877 
L 416.072542 55.494183 
L 417.121835 54.290591 
L 419.203114 52.372083 
L 421.298005 50.011066 
L 422.876027 48.535348 
L 427.036567 44.141694 
L 428.636952 42.322388 
L 432.144091 39.46 
L 431.965579 43.539756 
L 431.966892 67.473881 
L 431.45384 67.54605 
L 430.40513 69.41759 
L 429.885734 69.882971 
L 429.337948 69.937509 
L 428.79055 70.173902 
L 427.739507 71.065689 
L 427.213694 71.23297 
L 426.670185 71.712996 
L 426.132704 71.678487 
L 425.076995 73.816181 
L 424.547876 74.525548 
L 423.491582 76.704991 
L 422.981715 76.783178 
L 422.446957 76.747305 
L 421.925033 77.065693 
L 420.871268 78.076147 
L 420.345454 78.257979 
L 419.828465 78.759915 
L 419.311597 80.774616 
L 418.781214 81.529682 
L 416.165177 83.61486 
L 415.120454 84.858886 
L 413.548557 86.437473 
L 413.015354 86.967242 
L 411.966645 88.661299 
L 411.429942 88.940523 
L 410.904518 89.071837 
L 409.879532 90.039977 
L 409.350025 90.244999 
L 408.839671 91.052159 
L 408.329609 92.368776 
L 407.818575 92.837331 
L 406.253289 93.8119 
L 405.214886 95.454993 
L 404.684795 95.946209 
L 404.153537 96.256792 
L 403.625196 96.754497 
L 403.092285 97.064234 
L 402.043575 98.784807 
L 399.980284 100.400161 
L 398.931186 101.837514 
L 397.361719 103.021642 
L 396.829781 103.439515 
L 395.778154 104.838315 
L 393.685427 106.443254 
L 393.160392 107.30025 
L 392.636815 107.890011 
L 390.554856 109.508091 
L 389.489423 111.030447 
L 388.434491 111.748748 
L 387.380531 112.546316 
L 386.854718 113.44619 
L 386.319474 113.986772 
L 385.294294 114.689087 
L 384.247626 115.53085 
L 383.716077 116.485826 
L 383.198431 117.039761 
L 382.160805 117.553309 
L 381.113384 118.29058 
L 380.061564 119.952949 
L 379.542265 120.328978 
L 378.495889 120.849296 
L 377.970659 121.211879 
L 377.441638 121.864076 
L 376.925061 122.725961 
L 376.393998 123.20091 
L 374.840282 123.974688 
L 374.327206 124.414329 
L 373.81695 125.323606 
L 373.29347 125.825071 
L 371.233776 127.065947 
L 370.712436 127.963282 
L 369.674713 129.001569 
L 368.126442 129.746504 
L 366.584103 131.700743 
L 364.503893 132.779111 
L 363.971274 133.861968 
L 363.443808 134.396439 
L 361.872397 135.433973 
L 361.355918 135.54185 
L 360.830202 136.495227 
L 360.302639 137.082966 
L 358.736478 138.024777 
L 358.21611 138.108089 
L 357.183929 139.747408 
L 356.128414 140.254304 
L 354.558461 141.247691 
L 354.038385 142.428716 
L 353.528225 142.794872 
L 352.501101 143.122016 
L 351.975482 143.484505 
L 351.452294 143.573646 
L 350.928912 144.837794 
L 350.398626 145.538511 
L 348.801352 146.23321 
L 348.280206 146.258974 
L 347.241414 147.976915 
L 346.719782 148.349088 
L 346.187357 148.54218 
L 345.655127 148.889859 
L 345.143704 149.024875 
L 344.620419 149.500894 
L 344.109287 150.477496 
L 343.581845 150.884544 
L 343.055643 150.967385 
L 341.474412 151.672403 
L 340.964156 152.714827 
L 340.441454 153.292082 
L 338.866931 154.0416 
L 338.348605 154.130918 
L 337.307771 155.591732 
L 336.771749 155.999261 
L 336.257603 156.172794 
L 335.225423 156.743937 
L 333.655178 158.326097 
L 332.082017 159.16424 
L 330.495633 160.721446 
L 328.410854 161.9737 
L 327.379354 163.151905 
L 325.285435 164.254038 
L 323.738137 165.728299 
L 322.697206 166.243023 
L 321.630509 167.140357 
L 321.09614 167.786724 
L 320.050931 168.426086 
L 319.009611 168.915422 
L 317.438346 170.409487 
L 315.837183 171.043559 
L 315.321287 171.589643 
L 314.799849 172.341136 
L 313.760474 172.821492 
L 312.185465 173.763491 
L 311.655277 174.564068 
L 311.126547 174.981042 
L 310.08756 175.267483 
L 309.037392 175.863543 
L 308.519455 176.645879 
L 307.47969 177.299721 
L 305.898945 177.955479 
L 305.369 178.79904 
L 304.856118 179.20356 
L 302.76395 180.146124 
L 302.234734 180.840352 
L 301.71106 181.300821 
L 300.681796 181.736089 
L 299.615975 182.28062 
L 298.571154 183.610873 
L 295.946464 184.724601 
L 295.432416 185.514647 
L 294.374178 186.158076 
L 293.857115 186.292175 
L 292.809378 186.885979 
L 292.292073 187.623944 
L 291.76976 188.022258 
L 290.189793 188.670787 
L 289.660382 188.946532 
L 288.619257 190.186421 
L 287.050957 190.766526 
L 286.521352 191.03677 
L 284.945954 192.472854 
L 283.377849 193.178742 
L 282.855342 193.506157 
L 281.79827 194.526108 
L 279.688966 195.57586 
L 278.664162 196.364308 
L 276.564605 197.655208 
L 275.005833 198.699889 
L 273.438506 199.506014 
L 271.885276 200.569125 
L 270.326408 201.379576 
L 268.787471 202.505969 
L 267.199531 203.274153 
L 265.118386 204.693957 
L 263.545419 205.484732 
L 261.975758 206.763267 
L 259.876006 207.718972 
L 258.841006 208.642823 
L 257.259677 209.300051 
L 256.746309 209.492579 
L 255.168773 210.64657 
L 253.617731 211.510941 
L 251.520118 212.80706 
L 250.473353 213.190188 
L 248.398978 214.664119 
L 246.819594 215.29925 
L 245.778566 216.025919 
L 244.72937 216.664105 
L 243.170599 217.455609 
L 241.607258 218.488065 
L 240.574153 218.920771 
L 232.197313 223.569202 
L 230.641264 224.465452 
L 229.612195 224.991366 
L 228.569295 225.565218 
L 227.529919 226.246658 
L 225.979899 226.820057 
L 225.448641 227.103842 
L 224.396139 227.802772 
L 223.347236 228.335291 
L 222.301443 228.801072 
L 220.718948 229.757505 
L 219.148315 230.597011 
L 218.629891 230.873274 
L 217.597321 231.259986 
L 216.545015 231.828308 
L 216.021328 232.051005 
L 214.981564 232.619703 
L 213.942189 233.155254 
L 213.415987 233.58441 
L 209.250998 235.603672 
L 208.222318 236.037177 
L 205.588975 237.604152 
L 203.530447 238.601535 
L 200.924547 239.958721 
L 199.878171 240.415946 
L 198.822169 240.967342 
L 197.263787 241.560299 
L 195.209343 242.643885 
L 194.148383 243.092741 
L 192.041825 244.240714 
L 190.99856 244.603203 
L 189.432351 245.550782 
L 187.344947 246.409564 
L 185.785009 247.348743 
L 182.664841 248.776599 
L 181.113848 249.5595 
L 179.539228 250.254058 
L 178.50345 250.742453 
L 176.947559 251.33302 
L 174.854418 252.470697 
L 173.82146 252.739126 
L 169.126867 254.999553 
L 168.097214 255.482636 
L 163.952905 257.28125 
L 162.404246 257.993486 
L 158.21952 259.722075 
L 157.183742 260.200033 
L 156.146603 260.863514 
L 155.103339 261.195325 
L 154.061241 261.49412 
L 153.022741 262.054025 
L 152.501108 262.392912 
L 150.958453 262.904538 
L 148.879799 264.062338 
L 147.840424 264.331402 
L 146.78413 264.802567 
L 146.265804 265.195333 
L 145.22847 265.569293 
L 144.199012 265.957475 
L 141.610588 266.916776 
L 134.220802 270.068153 
L 129.961016 271.658518 
L 127.870986 272.653597 
L 126.313868 273.069593 
L 125.263411 273.698188 
L 120.590597 275.300365 
L 117.937905 276.429368 
L 116.36348 277.004883 
L 115.321771 277.548192 
L 112.226722 278.573649 
L 111.160122 279.088844 
L 110.105774 279.577121 
L 109.053564 279.80283 
L 108.013411 280.223876 
L 106.961493 280.737108 
L 104.88352 281.317756 
L 104.359262 281.684476 
L 101.774047 282.49978 
L 101.262818 282.876185 
L 100.21738 283.065627 
L 99.18306 283.319713 
L 98.130365 283.916043 
L 96.56362 284.193663 
L 96.036446 284.355231 
L 95.519675 284.76041 
L 94.48205 285.077916 
L 92.923376 285.535599 
L 92.394451 286.088781 
L 90.826152 286.291864 
L 90.310256 286.417417 
L 89.791638 286.680621 
L 89.275547 287.121366 
L 87.713743 287.33415 
L 87.18686 287.421516 
L 86.15361 288.294403 
L 85.095761 288.358891 
L 84.053858 288.591311 
L 83.00758 289.302677 
L 80.915216 289.48282 
L 80.401751 290.085557 
L 79.881383 290.320898 
L 79.353236 290.255017 
L 77.778714 290.41194 
L 77.265832 290.913688 
L 76.743422 291.06 
L 75.282185 290.765384 
L 75.127761 290.970465 
L 75.026249 290.429618 
L 75.026249 290.429618 
" clip-path="url(#pddf97fa541)" style="fill: none; stroke: #000000; stroke-width: 2; stroke-linecap: square"/>
   </g>
   <g id="patch_3">
    <path d="M 57.17 303.64 
L 57.17 26.88 
" style="fill: none; stroke: #000000; stroke-width: 0.8; stroke-linejoin: miter; stroke-linecap: square"/>
   </g>
   <g id="patch_4">
    <path d="M 450 303.64 
L 450 26.88 
" style="fill: none; stroke: #000000; stroke-width: 0.8; stroke-linejoin: miter; stroke-linecap: square"/>
   </g>
   <g id="patch_5">
    <path d="M 57.17 303.64 
L 450 303.64 
" style="fill: none; stroke: #000000; stroke-width: 0.8; stroke-linejoin: miter; stroke-linecap: square"/>
   </g>
   <g id="patch_6">
    <path d="M 57.17 26.88 
L 450 26.88 
" style="fill: none; stroke: #000000; stroke-width: 0.8; stroke-linejoin: miter; stroke-linecap: square"/>
   </g>
   <g id="text_15">
    <!-- 2025-06-19 Trial 26 - Stress vs Strain -->
    <g transform="translate(142.330938 20.88) scale(0.12 -0.12)">
     <defs>
      <path id="DejaVuSans-36" d="M 2113 2584 
Q 1688 2584 1439 2293 
Q 1191 2003 1191 1497 
Q 1191 994 1439 701 
Q 1688 409 2113 409 
Q 2538 409 2786 701 
Q 3034 994 3034 1497 
Q 3034 2003 2786 2293 
Q 2538 2584 2113 2584 
z
M 3366 4563 
L 3366 3988 
Q 3128 4100 2886 4159 
Q 2644 4219 2406 4219 
Q 1781 4219 1451 3797 
Q 1122 3375 1075 2522 
Q 1259 2794 1537 2939 
Q 1816 3084 2150 3084 
Q 2853 3084 3261 2657 
Q 3669 2231 3669 1497 
Q 3669 778 3244 343 
Q 2819 -91 2113 -91 
Q 1303 -91 875 529 
Q 447 1150 447 2328 
Q 447 3434 972 4092 
Q 1497 4750 2381 4750 
Q 2619 4750 2861 4703 
Q 3103 4656 3366 4563 
z
" transform="scale(0.015625)"/>
      <path id="DejaVuSans-39" d="M 703 97 
L 703 672 
Q 941 559 1184 500 
Q 1428 441 1663 441 
Q 2288 441 2617 861 
Q 2947 1281 2994 2138 
Q 2813 1869 2534 1725 
Q 2256 1581 1919 1581 
Q 1219 1581 811 2004 
Q 403 2428 403 3163 
Q 403 3881 828 4315 
Q 1253 4750 1959 4750 
Q 2769 4750 3195 4129 
Q 3622 3509 3622 2328 
Q 3622 1225 3098 567 
Q 2575 -91 1691 -91 
Q 1453 -91 1209 -44 
Q 966 3 703 97 
z
M 1959 2075 
Q 2384 2075 2632 2365 
Q 2881 2656 2881 3163 
Q 2881 3666 2632 3958 
Q 2384 4250 1959 4250 
Q 1534 4250 1286 3958 
Q 1038 3666 1038 3163 
Q 1038 2656 1286 2365 
Q 1534 2075 1959 2075 
z
" transform="scale(0.015625)"/>
      <path id="DejaVuSans-54" d="M -19 4666 
L 3928 4666 
L 3928 4134 
L 2272 4134 
L 2272 0 
L 1638 0 
L 1638 4134 
L -19 4134 
L -19 4666 
z
" transform="scale(0.015625)"/>
      <path id="DejaVuSans-6c" d="M 603 4863 
L 1178 4863 
L 1178 0 
L 603 0 
L 603 4863 
z
" transform="scale(0.015625)"/>
      <path id="DejaVuSans-76" d="M 191 3500 
L 800 3500 
L 1894 563 
L 2988 3500 
L 3597 3500 
L 2284 0 
L 1503 0 
L 191 3500 
z
" transform="scale(0.015625)"/>
     </defs>
     <use xlink:href="#DejaVuSans-32"/>
     <use xlink:href="#DejaVuSans-30" transform="translate(63.623047 0)"/>
     <use xlink:href="#DejaVuSans-32" transform="translate(127.246094 0)"/>
     <use xlink:href="#DejaVuSans-35" transform="translate(190.869141 0)"/>
     <use xlink:href="#DejaVuSans-2d" transform="translate(254.492188 0)"/>
     <use xlink:href="#DejaVuSans-30" transform="translate(290.576172 0)"/>
     <use xlink:href="#DejaVuSans-36" transform="translate(354.199219 0)"/>
     <use xlink:href="#DejaVuSans-2d" transform="translate(417.822266 0)"/>
     <use xlink:href="#DejaVuSans-31" transform="translate(453.90625 0)"/>
     <use xlink:href="#DejaVuSans-39" transform="translate(517.529297 0)"/>
     <use xlink:href="#DejaVuSans-20" transform="translate(581.152344 0)"/>
     <use xlink:href="#DejaVuSans-54" transform="translate(612.939453 0)"/>
     <use xlink:href="#DejaVuSans-72" transform="translate(659.273438 0)"/>
     <use xlink:href="#DejaVuSans-69" transform="translate(700.386719 0)"/>
     <use xlink:href="#DejaVuSans-61" transform="translate(728.169922 0)"/>
     <use xlink:href="#DejaVuSans-6c" transform="translate(789.449219 0)"/>
     <use xlink:href="#DejaVuSans-20" transform="translate(817.232422 0)"/>
     <use xlink:href="#DejaVuSans-32" transform="translate(849.019531 0)"/>
     <use xlink:href="#DejaVuSans-36" transform="translate(912.642578 0)"/>
     <use xlink:href="#DejaVuSans-20" transform="translate(976.265625 0)"/>
     <use xlink:href="#DejaVuSans-2d" transform="translate(1008.052734 0)"/>
     <use xlink:href="#DejaVuSans-20" transform="translate(1044.136719 0)"/>
     <use xlink:href="#DejaVuSans-53" transform="translate(1075.923828 0)"/>
     <use xlink:href="#DejaVuSans-74" transform="translate(1139.400391 0)"/>
     <use xlink:href="#DejaVuSans-72" transform="translate(1178.609375 0)"/>
     <use xlink:href="#DejaVuSans-65" transform="translate(1217.472656 0)"/>
     <use xlink:href="#DejaVuSans-73" transform="translate(1278.996094 0)"/>
     <use xlink:href="#DejaVuSans-73" transform="translate(1331.095703 0)"/>
     <use xlink:href="#DejaVuSans-20" transform="translate(1383.195312 0)"/>
     <use xlink:href="#DejaVuSans-76" transform="translate(1414.982422 0)"/>
     <use xlink:href="#DejaVuSans-73" transform="translate(1474.162109 0)"/>
     <use xlink:href="#DejaVuSans-20" transform="translate(1526.261719 0)"/>
     <use xlink:href="#DejaVuSans-53" transform="translate(1558.048828 0)"/>
     <use xlink:href="#DejaVuSans-74" transform="translate(1621.525391 0)"/>
     <use xlink:href="#DejaVuSans-72" transform="translate(1660.734375 0)"/>
     <use xlink:href="#DejaVuSans-61" transform="translate(1701.847656 0)"/>
     <use xlink:href="#DejaVuSans-69" transform="translate(1763.126953 0)"/>
     <use xlink:href="#DejaVuSans-6e" transform="translate(1790.910156 0)"/>
    </g>
   </g>
   <g id="legend_1">
    <g id="patch_7">
     <path d="M 64.17 64.23625 
L 170.154375 64.23625 
Q 172.154375 64.23625 172.154375 62.23625 
L 172.154375 33.88 
Q 172.154375 31.88 170.154375 31.88 
L 64.17 31.88 
Q 62.17 31.88 62.17 33.88 
L 62.17 62.23625 
Q 62.17 64.23625 64.17 64.23625 
z
" style="fill: #ffffff; opacity: 0.8; stroke: #cccccc; stroke-linejoin: miter"/>
    </g>
    <g id="line2d_27">
     <path d="M 66.17 39.978437 
L 76.17 39.978437 
L 86.17 39.978437 
" style="fill: none; stroke: #ff0000; stroke-width: 2; stroke-linecap: square"/>
    </g>
    <g id="text_16">
     <!-- Raw Force -->
     <g transform="translate(94.17 43.478437) scale(0.1 -0.1)">
      <defs>
       <path id="DejaVuSans-52" d="M 2841 2188 
Q 3044 2119 3236 1894 
Q 3428 1669 3622 1275 
L 4263 0 
L 3584 0 
L 2988 1197 
Q 2756 1666 2539 1819 
Q 2322 1972 1947 1972 
L 1259 1972 
L 1259 0 
L 628 0 
L 628 4666 
L 2053 4666 
Q 2853 4666 3247 4331 
Q 3641 3997 3641 3322 
Q 3641 2881 3436 2590 
Q 3231 2300 2841 2188 
z
M 1259 4147 
L 1259 2491 
L 2053 2491 
Q 2509 2491 2742 2702 
Q 2975 2913 2975 3322 
Q 2975 3731 2742 3939 
Q 2509 4147 2053 4147 
L 1259 4147 
z
" transform="scale(0.015625)"/>
       <path id="DejaVuSans-77" d="M 269 3500 
L 844 3500 
L 1563 769 
L 2278 3500 
L 2956 3500 
L 3675 769 
L 4391 3500 
L 4966 3500 
L 4050 0 
L 3372 0 
L 2619 2869 
L 1863 0 
L 1184 0 
L 269 3500 
z
" transform="scale(0.015625)"/>
       <path id="DejaVuSans-46" d="M 628 4666 
L 3309 4666 
L 3309 4134 
L 1259 4134 
L 1259 2759 
L 3109 2759 
L 3109 2228 
L 1259 2228 
L 1259 0 
L 628 0 
L 628 4666 
z
" transform="scale(0.015625)"/>
       <path id="DejaVuSans-6f" d="M 1959 3097 
Q 1497 3097 1228 2736 
Q 959 2375 959 1747 
Q 959 1119 1226 758 
Q 1494 397 1959 397 
Q 2419 397 2687 759 
Q 2956 1122 2956 1747 
Q 2956 2369 2687 2733 
Q 2419 3097 1959 3097 
z
M 1959 3584 
Q 2709 3584 3137 3096 
Q 3566 2609 3566 1747 
Q 3566 888 3137 398 
Q 2709 -91 1959 -91 
Q 1206 -91 779 398 
Q 353 888 353 1747 
Q 353 2609 779 3096 
Q 1206 3584 1959 3584 
z
" transform="scale(0.015625)"/>
       <path id="DejaVuSans-63" d="M 3122 3366 
L 3122 2828 
Q 2878 2963 2633 3030 
Q 2388 3097 2138 3097 
Q 1578 3097 1268 2742 
Q 959 2388 959 1747 
Q 959 1106 1268 751 
Q 1578 397 2138 397 
Q 2388 397 2633 464 
Q 2878 531 3122 666 
L 3122 134 
Q 2881 22 2623 -34 
Q 2366 -91 2075 -91 
Q 1284 -91 818 406 
Q 353 903 353 1747 
Q 353 2603 823 3093 
Q 1294 3584 2113 3584 
Q 2378 3584 2631 3529 
Q 2884 3475 3122 3366 
z
" transform="scale(0.015625)"/>
      </defs>
      <use xlink:href="#DejaVuSans-52"/>
      <use xlink:href="#DejaVuSans-61" transform="translate(67.232422 0)"/>
      <use xlink:href="#DejaVuSans-77" transform="translate(128.511719 0)"/>
      <use xlink:href="#DejaVuSans-20" transform="translate(210.298828 0)"/>
      <use xlink:href="#DejaVuSans-46" transform="translate(242.085938 0)"/>
      <use xlink:href="#DejaVuSans-6f" transform="translate(295.980469 0)"/>
      <use xlink:href="#DejaVuSans-72" transform="translate(357.162109 0)"/>
      <use xlink:href="#DejaVuSans-63" transform="translate(396.025391 0)"/>
      <use xlink:href="#DejaVuSans-65" transform="translate(451.005859 0)"/>
     </g>
    </g>
    <g id="line2d_28">
     <path d="M 66.17 54.656563 
L 76.17 54.656563 
L 86.17 54.656563 
" style="fill: none; stroke: #000000; stroke-width: 2; stroke-linecap: square"/>
    </g>
    <g id="text_17">
     <!-- Adjusted Force -->
     <g transform="translate(94.17 58.156563) scale(0.1 -0.1)">
      <defs>
       <path id="DejaVuSans-41" d="M 2188 4044 
L 1331 1722 
L 3047 1722 
L 2188 4044 
z
M 1831 4666 
L 2547 4666 
L 4325 0 
L 3669 0 
L 3244 1197 
L 1141 1197 
L 716 0 
L 50 0 
L 1831 4666 
z
" transform="scale(0.015625)"/>
       <path id="DejaVuSans-64" d="M 2906 2969 
L 2906 4863 
L 3481 4863 
L 3481 0 
L 2906 0 
L 2906 525 
Q 2725 213 2448 61 
Q 2172 -91 1784 -91 
Q 1150 -91 751 415 
Q 353 922 353 1747 
Q 353 2572 751 3078 
Q 1150 3584 1784 3584 
Q 2172 3584 2448 3432 
Q 2725 3281 2906 2969 
z
M 947 1747 
Q 947 1113 1208 752 
Q 1469 391 1925 391 
Q 2381 391 2643 752 
Q 2906 1113 2906 1747 
Q 2906 2381 2643 2742 
Q 2381 3103 1925 3103 
Q 1469 3103 1208 2742 
Q 947 2381 947 1747 
z
" transform="scale(0.015625)"/>
       <path id="DejaVuSans-6a" d="M 603 3500 
L 1178 3500 
L 1178 -63 
Q 1178 -731 923 -1031 
Q 669 -1331 103 -1331 
L -116 -1331 
L -116 -844 
L 38 -844 
Q 366 -844 484 -692 
Q 603 -541 603 -63 
L 603 3500 
z
M 603 4863 
L 1178 4863 
L 1178 4134 
L 603 4134 
L 603 4863 
z
" transform="scale(0.015625)"/>
       <path id="DejaVuSans-75" d="M 544 1381 
L 544 3500 
L 1119 3500 
L 1119 1403 
Q 1119 906 1312 657 
Q 1506 409 1894 409 
Q 2359 409 2629 706 
Q 2900 1003 2900 1516 
L 2900 3500 
L 3475 3500 
L 3475 0 
L 2900 0 
L 2900 538 
Q 2691 219 2414 64 
Q 2138 -91 1772 -91 
Q 1169 -91 856 284 
Q 544 659 544 1381 
z
M 1991 3584 
L 1991 3584 
z
" transform="scale(0.015625)"/>
      </defs>
      <use xlink:href="#DejaVuSans-41"/>
      <use xlink:href="#DejaVuSans-64" transform="translate(66.658203 0)"/>
      <use xlink:href="#DejaVuSans-6a" transform="translate(130.134766 0)"/>
      <use xlink:href="#DejaVuSans-75" transform="translate(157.917969 0)"/>
      <use xlink:href="#DejaVuSans-73" transform="translate(221.296875 0)"/>
      <use xlink:href="#DejaVuSans-74" transform="translate(273.396484 0)"/>
      <use xlink:href="#DejaVuSans-65" transform="translate(312.605469 0)"/>
      <use xlink:href="#DejaVuSans-64" transform="translate(374.128906 0)"/>
      <use xlink:href="#DejaVuSans-20" transform="translate(437.605469 0)"/>
      <use xlink:href="#DejaVuSans-46" transform="translate(469.392578 0)"/>
      <use xlink:href="#DejaVuSans-6f" transform="translate(523.287109 0)"/>
      <use xlink:href="#DejaVuSans-72" transform="translate(584.46875 0)"/>
      <use xlink:href="#DejaVuSans-63" transform="translate(623.332031 0)"/>
      <use xlink:href="#DejaVuSans-65" transform="translate(678.3125 0)"/>
     </g>
    </g>
   </g>
  </g>
 </g>
 <defs>
  <clipPath id="pddf97fa541">
   <rect x="57.17" y="26.88" width="392.83" height="276.76"/>
  </clipPath>
 </defs>
</svg>
