<?xml version="1.0" encoding="utf-8" standalone="no"?>
<!DOCTYPE svg PUBLIC "-//W3C//DTD SVG 1.1//EN"
  "http://www.w3.org/Graphics/SVG/1.1/DTD/svg11.dtd">
<svg xmlns:xlink="http://www.w3.org/1999/xlink" width="460.8pt" height="345.6pt" viewBox="0 0 460.8 345.6" xmlns="http://www.w3.org/2000/svg" version="1.1">
 <metadata>
  <rdf:RDF xmlns:dc="http://purl.org/dc/elements/1.1/" xmlns:cc="http://creativecommons.org/ns#" xmlns:rdf="http://www.w3.org/1999/02/22-rdf-syntax-ns#">
   <cc:Work>
    <dc:type rdf:resource="http://purl.org/dc/dcmitype/StillImage"/>
    <dc:date>2025-07-28T21:14:28.356895</dc:date>
    <dc:format>image/svg+xml</dc:format>
    <dc:creator>
     <cc:Agent>
      <dc:title>Matplotlib v3.10.3, https://matplotlib.org/</dc:title>
     </cc:Agent>
    </dc:creator>
   </cc:Work>
  </rdf:RDF>
 </metadata>
 <defs>
  <style type="text/css">*{stroke-linejoin: round; stroke-linecap: butt}</style>
 </defs>
 <g id="figure_1">
  <g id="patch_1">
   <path d="M 0 345.6 
L 460.8 345.6 
L 460.8 0 
L 0 0 
z
" style="fill: #ffffff"/>
  </g>
  <g id="axes_1">
   <g id="patch_2">
    <path d="M 50.87 303.64 
L 450 303.64 
L 450 26.88 
L 50.87 26.88 
z
" style="fill: #ffffff"/>
   </g>
   <g id="matplotlib.axis_1">
    <g id="xtick_1">
     <g id="line2d_1">
      <path d="M 69.268588 303.64 
L 69.268588 26.88 
" clip-path="url(#p302aeef3ad)" style="fill: none; stroke: #b0b0b0; stroke-opacity: 0.3; stroke-width: 0.8; stroke-linecap: square"/>
     </g>
     <g id="line2d_2">
      <defs>
       <path id="m369d699b23" d="M 0 0 
L 0 3.5 
" style="stroke: #000000; stroke-width: 0.8"/>
      </defs>
      <g>
       <use xlink:href="#m369d699b23" x="69.268588" y="303.64" style="stroke: #000000; stroke-width: 0.8"/>
      </g>
     </g>
     <g id="text_1">
      <!-- 0.00 -->
      <g transform="translate(58.135776 318.238437) scale(0.1 -0.1)">
       <defs>
        <path id="DejaVuSans-30" d="M 2034 4250 
Q 1547 4250 1301 3770 
Q 1056 3291 1056 2328 
Q 1056 1369 1301 889 
Q 1547 409 2034 409 
Q 2525 409 2770 889 
Q 3016 1369 3016 2328 
Q 3016 3291 2770 3770 
Q 2525 4250 2034 4250 
z
M 2034 4750 
Q 2819 4750 3233 4129 
Q 3647 3509 3647 2328 
Q 3647 1150 3233 529 
Q 2819 -91 2034 -91 
Q 1250 -91 836 529 
Q 422 1150 422 2328 
Q 422 3509 836 4129 
Q 1250 4750 2034 4750 
z
" transform="scale(0.015625)"/>
        <path id="DejaVuSans-2e" d="M 684 794 
L 1344 794 
L 1344 0 
L 684 0 
L 684 794 
z
" transform="scale(0.015625)"/>
       </defs>
       <use xlink:href="#DejaVuSans-30"/>
       <use xlink:href="#DejaVuSans-2e" transform="translate(63.623047 0)"/>
       <use xlink:href="#DejaVuSans-30" transform="translate(95.410156 0)"/>
       <use xlink:href="#DejaVuSans-30" transform="translate(159.033203 0)"/>
      </g>
     </g>
    </g>
    <g id="xtick_2">
     <g id="line2d_3">
      <path d="M 136.899517 303.64 
L 136.899517 26.88 
" clip-path="url(#p302aeef3ad)" style="fill: none; stroke: #b0b0b0; stroke-opacity: 0.3; stroke-width: 0.8; stroke-linecap: square"/>
     </g>
     <g id="line2d_4">
      <g>
       <use xlink:href="#m369d699b23" x="136.899517" y="303.64" style="stroke: #000000; stroke-width: 0.8"/>
      </g>
     </g>
     <g id="text_2">
      <!-- 0.02 -->
      <g transform="translate(125.766704 318.238437) scale(0.1 -0.1)">
       <defs>
        <path id="DejaVuSans-32" d="M 1228 531 
L 3431 531 
L 3431 0 
L 469 0 
L 469 531 
Q 828 903 1448 1529 
Q 2069 2156 2228 2338 
Q 2531 2678 2651 2914 
Q 2772 3150 2772 3378 
Q 2772 3750 2511 3984 
Q 2250 4219 1831 4219 
Q 1534 4219 1204 4116 
Q 875 4013 500 3803 
L 500 4441 
Q 881 4594 1212 4672 
Q 1544 4750 1819 4750 
Q 2544 4750 2975 4387 
Q 3406 4025 3406 3419 
Q 3406 3131 3298 2873 
Q 3191 2616 2906 2266 
Q 2828 2175 2409 1742 
Q 1991 1309 1228 531 
z
" transform="scale(0.015625)"/>
       </defs>
       <use xlink:href="#DejaVuSans-30"/>
       <use xlink:href="#DejaVuSans-2e" transform="translate(63.623047 0)"/>
       <use xlink:href="#DejaVuSans-30" transform="translate(95.410156 0)"/>
       <use xlink:href="#DejaVuSans-32" transform="translate(159.033203 0)"/>
      </g>
     </g>
    </g>
    <g id="xtick_3">
     <g id="line2d_5">
      <path d="M 204.530445 303.64 
L 204.530445 26.88 
" clip-path="url(#p302aeef3ad)" style="fill: none; stroke: #b0b0b0; stroke-opacity: 0.3; stroke-width: 0.8; stroke-linecap: square"/>
     </g>
     <g id="line2d_6">
      <g>
       <use xlink:href="#m369d699b23" x="204.530445" y="303.64" style="stroke: #000000; stroke-width: 0.8"/>
      </g>
     </g>
     <g id="text_3">
      <!-- 0.04 -->
      <g transform="translate(193.397632 318.238437) scale(0.1 -0.1)">
       <defs>
        <path id="DejaVuSans-34" d="M 2419 4116 
L 825 1625 
L 2419 1625 
L 2419 4116 
z
M 2253 4666 
L 3047 4666 
L 3047 1625 
L 3713 1625 
L 3713 1100 
L 3047 1100 
L 3047 0 
L 2419 0 
L 2419 1100 
L 313 1100 
L 313 1709 
L 2253 4666 
z
" transform="scale(0.015625)"/>
       </defs>
       <use xlink:href="#DejaVuSans-30"/>
       <use xlink:href="#DejaVuSans-2e" transform="translate(63.623047 0)"/>
       <use xlink:href="#DejaVuSans-30" transform="translate(95.410156 0)"/>
       <use xlink:href="#DejaVuSans-34" transform="translate(159.033203 0)"/>
      </g>
     </g>
    </g>
    <g id="xtick_4">
     <g id="line2d_7">
      <path d="M 272.161373 303.64 
L 272.161373 26.88 
" clip-path="url(#p302aeef3ad)" style="fill: none; stroke: #b0b0b0; stroke-opacity: 0.3; stroke-width: 0.8; stroke-linecap: square"/>
     </g>
     <g id="line2d_8">
      <g>
       <use xlink:href="#m369d699b23" x="272.161373" y="303.64" style="stroke: #000000; stroke-width: 0.8"/>
      </g>
     </g>
     <g id="text_4">
      <!-- 0.06 -->
      <g transform="translate(261.028561 318.238437) scale(0.1 -0.1)">
       <defs>
        <path id="DejaVuSans-36" d="M 2113 2584 
Q 1688 2584 1439 2293 
Q 1191 2003 1191 1497 
Q 1191 994 1439 701 
Q 1688 409 2113 409 
Q 2538 409 2786 701 
Q 3034 994 3034 1497 
Q 3034 2003 2786 2293 
Q 2538 2584 2113 2584 
z
M 3366 4563 
L 3366 3988 
Q 3128 4100 2886 4159 
Q 2644 4219 2406 4219 
Q 1781 4219 1451 3797 
Q 1122 3375 1075 2522 
Q 1259 2794 1537 2939 
Q 1816 3084 2150 3084 
Q 2853 3084 3261 2657 
Q 3669 2231 3669 1497 
Q 3669 778 3244 343 
Q 2819 -91 2113 -91 
Q 1303 -91 875 529 
Q 447 1150 447 2328 
Q 447 3434 972 4092 
Q 1497 4750 2381 4750 
Q 2619 4750 2861 4703 
Q 3103 4656 3366 4563 
z
" transform="scale(0.015625)"/>
       </defs>
       <use xlink:href="#DejaVuSans-30"/>
       <use xlink:href="#DejaVuSans-2e" transform="translate(63.623047 0)"/>
       <use xlink:href="#DejaVuSans-30" transform="translate(95.410156 0)"/>
       <use xlink:href="#DejaVuSans-36" transform="translate(159.033203 0)"/>
      </g>
     </g>
    </g>
    <g id="xtick_5">
     <g id="line2d_9">
      <path d="M 339.792301 303.64 
L 339.792301 26.88 
" clip-path="url(#p302aeef3ad)" style="fill: none; stroke: #b0b0b0; stroke-opacity: 0.3; stroke-width: 0.8; stroke-linecap: square"/>
     </g>
     <g id="line2d_10">
      <g>
       <use xlink:href="#m369d699b23" x="339.792301" y="303.64" style="stroke: #000000; stroke-width: 0.8"/>
      </g>
     </g>
     <g id="text_5">
      <!-- 0.08 -->
      <g transform="translate(328.659489 318.238437) scale(0.1 -0.1)">
       <defs>
        <path id="DejaVuSans-38" d="M 2034 2216 
Q 1584 2216 1326 1975 
Q 1069 1734 1069 1313 
Q 1069 891 1326 650 
Q 1584 409 2034 409 
Q 2484 409 2743 651 
Q 3003 894 3003 1313 
Q 3003 1734 2745 1975 
Q 2488 2216 2034 2216 
z
M 1403 2484 
Q 997 2584 770 2862 
Q 544 3141 544 3541 
Q 544 4100 942 4425 
Q 1341 4750 2034 4750 
Q 2731 4750 3128 4425 
Q 3525 4100 3525 3541 
Q 3525 3141 3298 2862 
Q 3072 2584 2669 2484 
Q 3125 2378 3379 2068 
Q 3634 1759 3634 1313 
Q 3634 634 3220 271 
Q 2806 -91 2034 -91 
Q 1263 -91 848 271 
Q 434 634 434 1313 
Q 434 1759 690 2068 
Q 947 2378 1403 2484 
z
M 1172 3481 
Q 1172 3119 1398 2916 
Q 1625 2713 2034 2713 
Q 2441 2713 2670 2916 
Q 2900 3119 2900 3481 
Q 2900 3844 2670 4047 
Q 2441 4250 2034 4250 
Q 1625 4250 1398 4047 
Q 1172 3844 1172 3481 
z
" transform="scale(0.015625)"/>
       </defs>
       <use xlink:href="#DejaVuSans-30"/>
       <use xlink:href="#DejaVuSans-2e" transform="translate(63.623047 0)"/>
       <use xlink:href="#DejaVuSans-30" transform="translate(95.410156 0)"/>
       <use xlink:href="#DejaVuSans-38" transform="translate(159.033203 0)"/>
      </g>
     </g>
    </g>
    <g id="xtick_6">
     <g id="line2d_11">
      <path d="M 407.42323 303.64 
L 407.42323 26.88 
" clip-path="url(#p302aeef3ad)" style="fill: none; stroke: #b0b0b0; stroke-opacity: 0.3; stroke-width: 0.8; stroke-linecap: square"/>
     </g>
     <g id="line2d_12">
      <g>
       <use xlink:href="#m369d699b23" x="407.42323" y="303.64" style="stroke: #000000; stroke-width: 0.8"/>
      </g>
     </g>
     <g id="text_6">
      <!-- 0.10 -->
      <g transform="translate(396.290417 318.238437) scale(0.1 -0.1)">
       <defs>
        <path id="DejaVuSans-31" d="M 794 531 
L 1825 531 
L 1825 4091 
L 703 3866 
L 703 4441 
L 1819 4666 
L 2450 4666 
L 2450 531 
L 3481 531 
L 3481 0 
L 794 0 
L 794 531 
z
" transform="scale(0.015625)"/>
       </defs>
       <use xlink:href="#DejaVuSans-30"/>
       <use xlink:href="#DejaVuSans-2e" transform="translate(63.623047 0)"/>
       <use xlink:href="#DejaVuSans-31" transform="translate(95.410156 0)"/>
       <use xlink:href="#DejaVuSans-30" transform="translate(159.033203 0)"/>
      </g>
     </g>
    </g>
    <g id="text_7">
     <!-- Strain [-] -->
     <g transform="translate(228.32875 331.916562) scale(0.1 -0.1)">
      <defs>
       <path id="DejaVuSans-53" d="M 3425 4513 
L 3425 3897 
Q 3066 4069 2747 4153 
Q 2428 4238 2131 4238 
Q 1616 4238 1336 4038 
Q 1056 3838 1056 3469 
Q 1056 3159 1242 3001 
Q 1428 2844 1947 2747 
L 2328 2669 
Q 3034 2534 3370 2195 
Q 3706 1856 3706 1288 
Q 3706 609 3251 259 
Q 2797 -91 1919 -91 
Q 1588 -91 1214 -16 
Q 841 59 441 206 
L 441 856 
Q 825 641 1194 531 
Q 1563 422 1919 422 
Q 2459 422 2753 634 
Q 3047 847 3047 1241 
Q 3047 1584 2836 1778 
Q 2625 1972 2144 2069 
L 1759 2144 
Q 1053 2284 737 2584 
Q 422 2884 422 3419 
Q 422 4038 858 4394 
Q 1294 4750 2059 4750 
Q 2388 4750 2728 4690 
Q 3069 4631 3425 4513 
z
" transform="scale(0.015625)"/>
       <path id="DejaVuSans-74" d="M 1172 4494 
L 1172 3500 
L 2356 3500 
L 2356 3053 
L 1172 3053 
L 1172 1153 
Q 1172 725 1289 603 
Q 1406 481 1766 481 
L 2356 481 
L 2356 0 
L 1766 0 
Q 1100 0 847 248 
Q 594 497 594 1153 
L 594 3053 
L 172 3053 
L 172 3500 
L 594 3500 
L 594 4494 
L 1172 4494 
z
" transform="scale(0.015625)"/>
       <path id="DejaVuSans-72" d="M 2631 2963 
Q 2534 3019 2420 3045 
Q 2306 3072 2169 3072 
Q 1681 3072 1420 2755 
Q 1159 2438 1159 1844 
L 1159 0 
L 581 0 
L 581 3500 
L 1159 3500 
L 1159 2956 
Q 1341 3275 1631 3429 
Q 1922 3584 2338 3584 
Q 2397 3584 2469 3576 
Q 2541 3569 2628 3553 
L 2631 2963 
z
" transform="scale(0.015625)"/>
       <path id="DejaVuSans-61" d="M 2194 1759 
Q 1497 1759 1228 1600 
Q 959 1441 959 1056 
Q 959 750 1161 570 
Q 1363 391 1709 391 
Q 2188 391 2477 730 
Q 2766 1069 2766 1631 
L 2766 1759 
L 2194 1759 
z
M 3341 1997 
L 3341 0 
L 2766 0 
L 2766 531 
Q 2569 213 2275 61 
Q 1981 -91 1556 -91 
Q 1019 -91 701 211 
Q 384 513 384 1019 
Q 384 1609 779 1909 
Q 1175 2209 1959 2209 
L 2766 2209 
L 2766 2266 
Q 2766 2663 2505 2880 
Q 2244 3097 1772 3097 
Q 1472 3097 1187 3025 
Q 903 2953 641 2809 
L 641 3341 
Q 956 3463 1253 3523 
Q 1550 3584 1831 3584 
Q 2591 3584 2966 3190 
Q 3341 2797 3341 1997 
z
" transform="scale(0.015625)"/>
       <path id="DejaVuSans-69" d="M 603 3500 
L 1178 3500 
L 1178 0 
L 603 0 
L 603 3500 
z
M 603 4863 
L 1178 4863 
L 1178 4134 
L 603 4134 
L 603 4863 
z
" transform="scale(0.015625)"/>
       <path id="DejaVuSans-6e" d="M 3513 2113 
L 3513 0 
L 2938 0 
L 2938 2094 
Q 2938 2591 2744 2837 
Q 2550 3084 2163 3084 
Q 1697 3084 1428 2787 
Q 1159 2491 1159 1978 
L 1159 0 
L 581 0 
L 581 3500 
L 1159 3500 
L 1159 2956 
Q 1366 3272 1645 3428 
Q 1925 3584 2291 3584 
Q 2894 3584 3203 3211 
Q 3513 2838 3513 2113 
z
" transform="scale(0.015625)"/>
       <path id="DejaVuSans-20" transform="scale(0.015625)"/>
       <path id="DejaVuSans-5b" d="M 550 4863 
L 1875 4863 
L 1875 4416 
L 1125 4416 
L 1125 -397 
L 1875 -397 
L 1875 -844 
L 550 -844 
L 550 4863 
z
" transform="scale(0.015625)"/>
       <path id="DejaVuSans-2d" d="M 313 2009 
L 1997 2009 
L 1997 1497 
L 313 1497 
L 313 2009 
z
" transform="scale(0.015625)"/>
       <path id="DejaVuSans-5d" d="M 1947 4863 
L 1947 -844 
L 622 -844 
L 622 -397 
L 1369 -397 
L 1369 4416 
L 622 4416 
L 622 4863 
L 1947 4863 
z
" transform="scale(0.015625)"/>
      </defs>
      <use xlink:href="#DejaVuSans-53"/>
      <use xlink:href="#DejaVuSans-74" transform="translate(63.476562 0)"/>
      <use xlink:href="#DejaVuSans-72" transform="translate(102.685547 0)"/>
      <use xlink:href="#DejaVuSans-61" transform="translate(143.798828 0)"/>
      <use xlink:href="#DejaVuSans-69" transform="translate(205.078125 0)"/>
      <use xlink:href="#DejaVuSans-6e" transform="translate(232.861328 0)"/>
      <use xlink:href="#DejaVuSans-20" transform="translate(296.240234 0)"/>
      <use xlink:href="#DejaVuSans-5b" transform="translate(328.027344 0)"/>
      <use xlink:href="#DejaVuSans-2d" transform="translate(367.041016 0)"/>
      <use xlink:href="#DejaVuSans-5d" transform="translate(403.125 0)"/>
     </g>
    </g>
   </g>
   <g id="matplotlib.axis_2">
    <g id="ytick_1">
     <g id="line2d_13">
      <path d="M 50.87 266.781052 
L 450 266.781052 
" clip-path="url(#p302aeef3ad)" style="fill: none; stroke: #b0b0b0; stroke-opacity: 0.3; stroke-width: 0.8; stroke-linecap: square"/>
     </g>
     <g id="line2d_14">
      <defs>
       <path id="mbca6bbef75" d="M 0 0 
L -3.5 0 
" style="stroke: #000000; stroke-width: 0.8"/>
      </defs>
      <g>
       <use xlink:href="#mbca6bbef75" x="50.87" y="266.781052" style="stroke: #000000; stroke-width: 0.8"/>
      </g>
     </g>
     <g id="text_8">
      <!-- 0 -->
      <g transform="translate(37.5075 270.580271) scale(0.1 -0.1)">
       <use xlink:href="#DejaVuSans-30"/>
      </g>
     </g>
    </g>
    <g id="ytick_2">
     <g id="line2d_15">
      <path d="M 50.87 217.833345 
L 450 217.833345 
" clip-path="url(#p302aeef3ad)" style="fill: none; stroke: #b0b0b0; stroke-opacity: 0.3; stroke-width: 0.8; stroke-linecap: square"/>
     </g>
     <g id="line2d_16">
      <g>
       <use xlink:href="#mbca6bbef75" x="50.87" y="217.833345" style="stroke: #000000; stroke-width: 0.8"/>
      </g>
     </g>
     <g id="text_9">
      <!-- 200 -->
      <g transform="translate(24.7825 221.632564) scale(0.1 -0.1)">
       <use xlink:href="#DejaVuSans-32"/>
       <use xlink:href="#DejaVuSans-30" transform="translate(63.623047 0)"/>
       <use xlink:href="#DejaVuSans-30" transform="translate(127.246094 0)"/>
      </g>
     </g>
    </g>
    <g id="ytick_3">
     <g id="line2d_17">
      <path d="M 50.87 168.885638 
L 450 168.885638 
" clip-path="url(#p302aeef3ad)" style="fill: none; stroke: #b0b0b0; stroke-opacity: 0.3; stroke-width: 0.8; stroke-linecap: square"/>
     </g>
     <g id="line2d_18">
      <g>
       <use xlink:href="#mbca6bbef75" x="50.87" y="168.885638" style="stroke: #000000; stroke-width: 0.8"/>
      </g>
     </g>
     <g id="text_10">
      <!-- 400 -->
      <g transform="translate(24.7825 172.684856) scale(0.1 -0.1)">
       <use xlink:href="#DejaVuSans-34"/>
       <use xlink:href="#DejaVuSans-30" transform="translate(63.623047 0)"/>
       <use xlink:href="#DejaVuSans-30" transform="translate(127.246094 0)"/>
      </g>
     </g>
    </g>
    <g id="ytick_4">
     <g id="line2d_19">
      <path d="M 50.87 119.93793 
L 450 119.93793 
" clip-path="url(#p302aeef3ad)" style="fill: none; stroke: #b0b0b0; stroke-opacity: 0.3; stroke-width: 0.8; stroke-linecap: square"/>
     </g>
     <g id="line2d_20">
      <g>
       <use xlink:href="#mbca6bbef75" x="50.87" y="119.93793" style="stroke: #000000; stroke-width: 0.8"/>
      </g>
     </g>
     <g id="text_11">
      <!-- 600 -->
      <g transform="translate(24.7825 123.737149) scale(0.1 -0.1)">
       <use xlink:href="#DejaVuSans-36"/>
       <use xlink:href="#DejaVuSans-30" transform="translate(63.623047 0)"/>
       <use xlink:href="#DejaVuSans-30" transform="translate(127.246094 0)"/>
      </g>
     </g>
    </g>
    <g id="ytick_5">
     <g id="line2d_21">
      <path d="M 50.87 70.990223 
L 450 70.990223 
" clip-path="url(#p302aeef3ad)" style="fill: none; stroke: #b0b0b0; stroke-opacity: 0.3; stroke-width: 0.8; stroke-linecap: square"/>
     </g>
     <g id="line2d_22">
      <g>
       <use xlink:href="#mbca6bbef75" x="50.87" y="70.990223" style="stroke: #000000; stroke-width: 0.8"/>
      </g>
     </g>
     <g id="text_12">
      <!-- 800 -->
      <g transform="translate(24.7825 74.789441) scale(0.1 -0.1)">
       <use xlink:href="#DejaVuSans-38"/>
       <use xlink:href="#DejaVuSans-30" transform="translate(63.623047 0)"/>
       <use xlink:href="#DejaVuSans-30" transform="translate(127.246094 0)"/>
      </g>
     </g>
    </g>
    <g id="text_13">
     <!-- Stress [Pa] -->
     <g transform="translate(18.702813 191.967812) rotate(-90) scale(0.1 -0.1)">
      <defs>
       <path id="DejaVuSans-65" d="M 3597 1894 
L 3597 1613 
L 953 1613 
Q 991 1019 1311 708 
Q 1631 397 2203 397 
Q 2534 397 2845 478 
Q 3156 559 3463 722 
L 3463 178 
Q 3153 47 2828 -22 
Q 2503 -91 2169 -91 
Q 1331 -91 842 396 
Q 353 884 353 1716 
Q 353 2575 817 3079 
Q 1281 3584 2069 3584 
Q 2775 3584 3186 3129 
Q 3597 2675 3597 1894 
z
M 3022 2063 
Q 3016 2534 2758 2815 
Q 2500 3097 2075 3097 
Q 1594 3097 1305 2825 
Q 1016 2553 972 2059 
L 3022 2063 
z
" transform="scale(0.015625)"/>
       <path id="DejaVuSans-73" d="M 2834 3397 
L 2834 2853 
Q 2591 2978 2328 3040 
Q 2066 3103 1784 3103 
Q 1356 3103 1142 2972 
Q 928 2841 928 2578 
Q 928 2378 1081 2264 
Q 1234 2150 1697 2047 
L 1894 2003 
Q 2506 1872 2764 1633 
Q 3022 1394 3022 966 
Q 3022 478 2636 193 
Q 2250 -91 1575 -91 
Q 1294 -91 989 -36 
Q 684 19 347 128 
L 347 722 
Q 666 556 975 473 
Q 1284 391 1588 391 
Q 1994 391 2212 530 
Q 2431 669 2431 922 
Q 2431 1156 2273 1281 
Q 2116 1406 1581 1522 
L 1381 1569 
Q 847 1681 609 1914 
Q 372 2147 372 2553 
Q 372 3047 722 3315 
Q 1072 3584 1716 3584 
Q 2034 3584 2315 3537 
Q 2597 3491 2834 3397 
z
" transform="scale(0.015625)"/>
       <path id="DejaVuSans-50" d="M 1259 4147 
L 1259 2394 
L 2053 2394 
Q 2494 2394 2734 2622 
Q 2975 2850 2975 3272 
Q 2975 3691 2734 3919 
Q 2494 4147 2053 4147 
L 1259 4147 
z
M 628 4666 
L 2053 4666 
Q 2838 4666 3239 4311 
Q 3641 3956 3641 3272 
Q 3641 2581 3239 2228 
Q 2838 1875 2053 1875 
L 1259 1875 
L 1259 0 
L 628 0 
L 628 4666 
z
" transform="scale(0.015625)"/>
      </defs>
      <use xlink:href="#DejaVuSans-53"/>
      <use xlink:href="#DejaVuSans-74" transform="translate(63.476562 0)"/>
      <use xlink:href="#DejaVuSans-72" transform="translate(102.685547 0)"/>
      <use xlink:href="#DejaVuSans-65" transform="translate(141.548828 0)"/>
      <use xlink:href="#DejaVuSans-73" transform="translate(203.072266 0)"/>
      <use xlink:href="#DejaVuSans-73" transform="translate(255.171875 0)"/>
      <use xlink:href="#DejaVuSans-20" transform="translate(307.271484 0)"/>
      <use xlink:href="#DejaVuSans-5b" transform="translate(339.058594 0)"/>
      <use xlink:href="#DejaVuSans-50" transform="translate(378.072266 0)"/>
      <use xlink:href="#DejaVuSans-61" transform="translate(433.875 0)"/>
      <use xlink:href="#DejaVuSans-5d" transform="translate(495.154297 0)"/>
     </g>
    </g>
   </g>
   <g id="line2d_23">
    <path d="M 69.268588 265.950433 
L 69.269283 265.605292 
L 69.272116 265.892387 
L 70.535418 257.579481 
L 71.784834 252.660548 
L 73.048909 253.704007 
L 74.427321 253.794087 
L 75.817711 252.940225 
L 77.146367 251.4884 
L 79.944654 246.490078 
L 81.402306 245.154854 
L 82.655408 244.790092 
L 83.978536 244.767487 
L 88.32385 245.526677 
L 89.873642 246.13599 
L 91.46029 247.450577 
L 93.883567 250.162301 
L 96.308687 252.950382 
L 97.900863 254.345455 
L 99.459869 254.790895 
L 100.983862 253.958701 
L 102.476527 252.268517 
L 105.395517 248.238079 
L 106.838427 246.632507 
L 108.273965 245.371576 
L 109.703975 244.366546 
L 111.1303 243.665914 
L 112.551096 243.475343 
L 113.962678 243.987403 
L 115.359518 244.753041 
L 116.726873 245.056924 
L 118.064743 244.624833 
L 119.371286 243.508362 
L 120.648344 242.032805 
L 129.256047 230.436781 
L 130.49441 229.268717 
L 131.743826 228.547448 
L 133.006141 228.190941 
L 135.547358 227.820117 
L 138.094103 227.159728 
L 140.629791 226.271814 
L 143.145208 225.077954 
L 171.378694 207.332054 
L 179.853715 202.529785 
L 182.573683 201.020176 
L 191.596015 195.212874 
L 199.092511 190.835731 
L 203.590778 188.010503 
L 214.113146 181.369462 
L 219.846086 177.737321 
L 223.774928 175.048298 
L 226.203734 173.453045 
L 229.853781 171.310351 
L 234.727978 168.699749 
L 237.164155 167.154026 
L 240.823949 164.739477 
L 244.504014 162.35898 
L 248.198821 160.177631 
L 253.13383 157.078961 
L 255.60502 155.600308 
L 265.462139 148.987128 
L 267.92043 147.515698 
L 271.594966 145.464363 
L 275.247389 143.229358 
L 277.674352 141.71459 
L 281.896199 139.114307 
L 293.848577 131.087473 
L 298.333944 127.856725 
L 302.841424 124.904578 
L 311.863742 119.388263 
L 317.852831 115.846925 
L 320.832633 113.907032 
L 325.286672 110.810425 
L 328.253574 108.777664 
L 331.22232 106.607666 
L 346.178457 96.075488 
L 351.915082 92.421677 
L 357.931813 88.632694 
L 372.895321 77.704282 
L 378.923108 73.726468 
L 383.761803 70.642372 
L 386.183237 68.891309 
L 388.608358 67.449803 
L 391.027949 66.116642 
L 393.744232 64.303667 
L 396.751676 62.125414 
L 399.74622 60.080271 
L 401.240728 59.013329 
L 404.213159 57.361324 
L 408.589801 55.084012 
L 411.416651 53.646634 
L 412.79322 53.145667 
L 415.448689 52.525778 
L 420.661039 50.986761 
L 423.227134 50.181653 
L 424.589882 49.592978 
L 425.919459 48.815989 
L 427.146301 47.566924 
L 428.386043 46.107361 
L 429.633846 43.776909 
L 430.846809 39.859829 
L 431.329017 39.76427 
L 431.857727 41.328486 
L 431.580617 55.724587 
L 431.575031 55.679814 
L 431.5803 76.991752 
L 431.57863 76.749491 
L 431.563456 76.642032 
L 430.350089 77.144483 
L 429.119101 79.865364 
L 427.897788 82.178017 
L 426.608291 81.474999 
L 425.400338 81.193059 
L 424.114066 81.333263 
L 421.660843 82.137 
L 420.357064 81.948573 
L 419.132065 82.370361 
L 417.871132 83.069736 
L 415.430808 88.205811 
L 414.159279 89.877163 
L 411.704213 89.042003 
L 409.146412 89.528863 
L 407.935694 90.40878 
L 406.71415 90.57694 
L 405.483623 93.570539 
L 404.244573 96.086725 
L 403.010158 96.857524 
L 401.745539 97.154924 
L 400.494741 97.322327 
L 399.278495 97.740359 
L 398.014106 98.779182 
L 395.496155 101.107571 
L 394.261021 101.918418 
L 393.006998 102.531535 
L 391.765183 103.407067 
L 388.068073 106.522505 
L 386.823264 107.981553 
L 385.613007 107.992258 
L 384.383862 108.269603 
L 383.136288 108.940569 
L 381.889176 109.811328 
L 380.651047 110.233938 
L 379.442633 112.039046 
L 378.207729 113.336608 
L 374.43944 115.214977 
L 373.205688 115.854342 
L 371.948699 116.718491 
L 370.717251 117.833414 
L 369.474284 118.689598 
L 368.208283 119.423121 
L 362.041364 123.755765 
L 360.832951 124.498832 
L 354.654975 128.846309 
L 349.737933 131.89803 
L 348.492663 132.928083 
L 347.236337 133.599822 
L 346.025159 134.457039 
L 343.58806 135.799873 
L 342.325514 136.673946 
L 341.077711 137.743725 
L 334.921388 141.398567 
L 332.443748 143.127188 
L 326.230299 147.722956 
L 324.993322 148.378831 
L 323.761873 148.74211 
L 322.498636 149.417074 
L 318.803829 151.957896 
L 317.570077 152.814726 
L 313.819064 154.342714 
L 312.579784 155.392372 
L 311.361263 156.641275 
L 310.122198 157.539379 
L 308.906413 158.592907 
L 307.651008 159.340875 
L 305.186729 160.249942 
L 300.202425 164.04473 
L 292.745548 168.600772 
L 291.532067 169.578457 
L 290.312596 170.390401 
L 289.097733 171.040988 
L 286.66432 172.675322 
L 285.427343 173.101996 
L 282.975041 174.497455 
L 281.713719 175.262941 
L 280.467528 176.239595 
L 279.222488 177.066113 
L 274.257534 179.487304 
L 273.014337 180.467828 
L 270.524719 182.018582 
L 266.823923 183.860449 
L 264.336838 185.870509 
L 259.385705 188.597969 
L 256.926723 190.595646 
L 255.672239 191.293763 
L 253.219477 192.153946 
L 252.003692 192.716696 
L 250.746156 193.476474 
L 248.258151 195.60365 
L 247.037298 196.33872 
L 245.800321 196.847039 
L 243.331895 198.22715 
L 242.093996 199.211289 
L 235.904503 202.357941 
L 234.67006 203.357295 
L 233.416037 204.223282 
L 232.196105 204.844332 
L 230.967421 205.601071 
L 228.480106 206.886896 
L 227.235988 207.789514 
L 225.975515 208.519876 
L 224.755584 208.980536 
L 216.113473 213.942731 
L 214.849775 214.626724 
L 212.359236 216.443182 
L 207.36065 219.029212 
L 204.840626 220.655292 
L 203.631751 221.225394 
L 201.196956 222.719653 
L 199.970575 223.228843 
L 197.493856 224.959657 
L 193.755283 226.63088 
L 191.276722 227.965976 
L 190.047677 228.76825 
L 187.582937 230.009704 
L 185.110595 231.296561 
L 181.402427 233.920059 
L 177.711306 235.895938 
L 176.449912 236.364071 
L 171.433819 238.912246 
L 168.942589 240.570635 
L 166.517008 241.791453 
L 162.742039 244.348011 
L 160.296389 245.51781 
L 157.853762 246.491626 
L 156.591907 247.238562 
L 155.336963 248.129443 
L 151.670719 249.855291 
L 150.419 250.693806 
L 149.176955 251.784738 
L 147.917403 252.42191 
L 146.698393 252.85671 
L 145.479383 253.505749 
L 144.211539 253.999686 
L 142.967652 254.712829 
L 141.725837 255.843746 
L 136.794974 257.838522 
L 135.560992 259.012647 
L 134.347049 259.834168 
L 133.095791 259.967345 
L 131.851903 260.407497 
L 129.411263 261.505477 
L 128.16392 263.161223 
L 126.953894 263.728277 
L 125.692499 263.824398 
L 123.210713 264.516018 
L 121.980186 264.92902 
L 120.73077 266.779142 
L 116.988741 267.670877 
L 114.552334 268.887567 
L 113.31144 270.582136 
L 108.381499 271.969277 
L 107.168708 272.627634 
L 105.931962 274.376634 
L 104.670107 274.845025 
L 102.144093 275.324082 
L 99.679702 276.193774 
L 98.437196 277.96986 
L 97.179257 278.77949 
L 95.916942 278.947707 
L 92.181593 279.913321 
L 90.966039 281.648907 
L 89.739888 282.689762 
L 88.477572 282.699477 
L 87.266394 283.047987 
L 86.019282 283.624538 
L 84.756045 283.809142 
L 83.50847 285.322265 
L 82.26274 286.386309 
L 80.994435 286.410952 
L 79.777729 286.545821 
L 78.528773 287.127016 
L 77.270834 287.291952 
L 76.036621 289.338457 
L 74.818994 289.785607 
L 73.599523 289.521709 
L 72.368996 289.418047 
L 71.133631 289.442534 
L 69.922181 289.285333 
L 69.341355 291.06 
L 69.012273 289.626279 
L 69.013353 289.643946 
" clip-path="url(#p302aeef3ad)" style="fill: none; stroke: #ff0000; stroke-width: 2; stroke-linecap: square"/>
   </g>
   <g id="line2d_24">
    <path d="M 69.268588 265.950433 
L 69.269283 265.605292 
L 69.272116 265.892387 
L 70.535418 257.579481 
L 71.784834 252.660548 
L 73.048909 253.704007 
L 74.427321 253.794087 
L 75.817711 252.940225 
L 77.146367 251.4884 
L 78.606784 248.764294 
L 79.944654 261.319929 
L 81.402306 259.569897 
L 83.978536 257.440754 
L 86.820128 255.635518 
L 88.32385 254.878392 
L 89.873642 254.611657 
L 91.46029 254.884067 
L 93.883567 254.624039 
L 95.099813 254.855175 
L 97.900863 255.16886 
L 99.459869 254.790895 
L 100.983862 253.958701 
L 102.476527 252.268517 
L 105.395517 248.238079 
L 106.838427 246.632507 
L 108.273965 245.371576 
L 109.703975 244.366546 
L 111.1303 243.665914 
L 112.551096 243.475343 
L 113.962678 243.987403 
L 115.359518 244.753041 
L 116.726873 245.056924 
L 118.064743 244.624833 
L 119.371286 243.508362 
L 120.648344 242.032805 
L 129.256047 230.436781 
L 130.49441 229.268717 
L 131.743826 228.547448 
L 133.006141 228.190941 
L 135.547358 227.820117 
L 138.094103 227.159728 
L 140.629791 226.271814 
L 143.145208 225.077954 
L 171.378694 207.332054 
L 179.853715 202.529785 
L 182.573683 201.020176 
L 191.596015 195.212874 
L 199.092511 190.835731 
L 203.590778 188.010503 
L 214.113146 181.369462 
L 219.846086 177.737321 
L 223.774928 175.048298 
L 226.203734 173.453045 
L 229.853781 171.310351 
L 234.727978 168.699749 
L 237.164155 167.154026 
L 240.823949 164.739477 
L 244.504014 162.35898 
L 248.198821 160.177631 
L 253.13383 157.078961 
L 255.60502 155.600308 
L 265.462139 148.987128 
L 267.92043 147.515698 
L 271.594966 145.464363 
L 275.247389 143.229358 
L 277.674352 141.71459 
L 281.896199 139.114307 
L 293.848577 131.087473 
L 298.333944 127.856725 
L 302.841424 124.904578 
L 311.863742 119.388263 
L 317.852831 115.846925 
L 320.832633 113.907032 
L 325.286672 110.810425 
L 328.253574 108.777664 
L 331.22232 106.607666 
L 346.178457 96.075488 
L 351.915082 92.421677 
L 357.931813 88.632694 
L 372.895321 77.704282 
L 378.923108 73.726468 
L 383.761803 70.642372 
L 386.183237 68.891309 
L 393.744232 64.158632 
L 399.74622 59.682777 
L 401.240728 58.368189 
L 404.213159 56.286415 
L 405.685553 55.393987 
L 407.145048 54.369093 
L 412.79322 49.781967 
L 415.448689 48.024454 
L 421.898477 43.768555 
L 424.589882 42.430833 
L 425.919459 41.856539 
L 427.146301 41.020476 
L 428.386043 40.611602 
L 429.633846 40.59664 
L 430.846809 39.539227 
L 431.329017 39.46 
L 431.857727 41.182204 
L 431.578169 55.456932 
L 431.579292 55.426767 
L 431.580847 58.242547 
L 431.577248 58.078675 
L 431.5803 76.991752 
L 431.563456 76.642032 
L 430.350089 77.144483 
L 429.119101 79.865364 
L 427.897788 82.178017 
L 426.608291 81.474999 
L 425.400338 81.193059 
L 424.114066 81.333263 
L 421.660843 82.137 
L 420.357064 81.948573 
L 419.132065 82.370361 
L 417.871132 83.069736 
L 415.430808 88.205811 
L 414.159279 89.877163 
L 411.704213 89.042003 
L 409.146412 89.528863 
L 407.935694 90.40878 
L 406.71415 90.57694 
L 405.483623 93.570539 
L 404.244573 96.086725 
L 403.010158 96.857524 
L 401.745539 97.154924 
L 400.494741 97.322327 
L 399.278495 97.740359 
L 398.014106 98.779182 
L 395.496155 101.107571 
L 394.261021 101.918418 
L 393.006998 102.531535 
L 391.765183 103.407067 
L 388.068073 106.522505 
L 386.823264 107.981553 
L 385.613007 107.992258 
L 384.383862 108.269603 
L 383.136288 108.940569 
L 381.889176 109.811328 
L 380.651047 110.233938 
L 379.442633 112.039046 
L 378.207729 113.336608 
L 374.43944 115.214977 
L 373.205688 115.854342 
L 371.948699 116.718491 
L 370.717251 117.833414 
L 369.474284 118.689598 
L 368.208283 119.423121 
L 362.041364 123.755765 
L 360.832951 124.498832 
L 354.654975 128.846309 
L 349.737933 131.89803 
L 348.492663 132.928083 
L 347.236337 133.599822 
L 346.025159 134.457039 
L 343.58806 135.799873 
L 342.325514 136.673946 
L 341.077711 137.743725 
L 334.921388 141.398567 
L 332.443748 143.127188 
L 326.230299 147.722956 
L 324.993322 148.378831 
L 323.761873 148.74211 
L 322.498636 149.417074 
L 318.803829 151.957896 
L 317.570077 152.814726 
L 313.819064 154.342714 
L 312.579784 155.392372 
L 311.361263 156.641275 
L 310.122198 157.539379 
L 308.906413 158.592907 
L 307.651008 159.340875 
L 305.186729 160.249942 
L 300.202425 164.04473 
L 292.745548 168.600772 
L 291.532067 169.578457 
L 290.312596 170.390401 
L 289.097733 171.040988 
L 286.66432 172.675322 
L 285.427343 173.101996 
L 282.975041 174.497455 
L 281.713719 175.262941 
L 280.467528 176.239595 
L 279.222488 177.066113 
L 274.257534 179.487304 
L 273.014337 180.467828 
L 270.524719 182.018582 
L 266.823923 183.860449 
L 264.336838 185.870509 
L 259.385705 188.597969 
L 256.926723 190.595646 
L 255.672239 191.293763 
L 253.219477 192.153946 
L 252.003692 192.716696 
L 250.746156 193.476474 
L 248.258151 195.60365 
L 247.037298 196.33872 
L 245.800321 196.847039 
L 243.331895 198.22715 
L 242.093996 199.211289 
L 235.904503 202.357941 
L 234.67006 203.357295 
L 233.416037 204.223282 
L 232.196105 204.844332 
L 230.967421 205.601071 
L 228.480106 206.886896 
L 227.235988 207.789514 
L 225.975515 208.519876 
L 224.755584 208.980536 
L 216.113473 213.942731 
L 214.849775 214.626724 
L 212.359236 216.443182 
L 207.36065 219.029212 
L 204.840626 220.655292 
L 203.631751 221.225394 
L 201.196956 222.719653 
L 199.970575 223.228843 
L 197.493856 224.959657 
L 193.755283 226.63088 
L 191.276722 227.965976 
L 190.047677 228.76825 
L 187.582937 230.009704 
L 185.110595 231.296561 
L 181.402427 233.920059 
L 177.711306 235.895938 
L 176.449912 236.364071 
L 171.433819 238.912246 
L 168.942589 240.570635 
L 166.517008 241.791453 
L 162.742039 244.348011 
L 160.296389 245.51781 
L 157.853762 246.491626 
L 156.591907 247.238562 
L 155.336963 248.129443 
L 151.670719 249.855291 
L 150.419 250.693806 
L 149.176955 251.784738 
L 147.917403 252.42191 
L 146.698393 252.85671 
L 145.479383 253.505749 
L 144.211539 253.999686 
L 142.967652 254.712829 
L 141.725837 255.843746 
L 136.794974 257.838522 
L 135.560992 259.012647 
L 134.347049 259.834168 
L 133.095791 259.967345 
L 131.851903 260.407497 
L 129.411263 261.505477 
L 128.16392 263.161223 
L 126.953894 263.728277 
L 125.692499 263.824398 
L 123.210713 264.516018 
L 121.980186 264.92902 
L 120.73077 266.779142 
L 116.988741 267.670877 
L 114.552334 268.887567 
L 113.31144 270.582136 
L 108.381499 271.969277 
L 107.168708 272.627634 
L 105.931962 274.376634 
L 104.670107 274.845025 
L 102.144093 275.324082 
L 99.679702 276.193774 
L 98.437196 277.96986 
L 97.179257 278.77949 
L 95.916942 278.947707 
L 92.181593 279.913321 
L 90.966039 281.648907 
L 89.739888 282.689762 
L 88.477572 282.699477 
L 87.266394 283.047987 
L 86.019282 283.624538 
L 84.756045 283.809142 
L 83.50847 285.322265 
L 82.26274 286.386309 
L 80.994435 286.410952 
L 79.777729 286.545821 
L 78.528773 287.127016 
L 77.270834 287.291952 
L 76.036621 289.338457 
L 74.818994 289.785607 
L 73.599523 289.521709 
L 72.368996 289.418047 
L 71.133631 289.442534 
L 69.922181 289.285333 
L 69.341355 291.06 
L 69.012273 289.626279 
L 69.013353 289.643946 
" clip-path="url(#p302aeef3ad)" style="fill: none; stroke: #000000; stroke-width: 2; stroke-linecap: square"/>
   </g>
   <g id="patch_3">
    <path d="M 50.87 303.64 
L 50.87 26.88 
" style="fill: none; stroke: #000000; stroke-width: 0.8; stroke-linejoin: miter; stroke-linecap: square"/>
   </g>
   <g id="patch_4">
    <path d="M 450 303.64 
L 450 26.88 
" style="fill: none; stroke: #000000; stroke-width: 0.8; stroke-linejoin: miter; stroke-linecap: square"/>
   </g>
   <g id="patch_5">
    <path d="M 50.87 303.64 
L 450 303.64 
" style="fill: none; stroke: #000000; stroke-width: 0.8; stroke-linejoin: miter; stroke-linecap: square"/>
   </g>
   <g id="patch_6">
    <path d="M 50.87 26.88 
L 450 26.88 
" style="fill: none; stroke: #000000; stroke-width: 0.8; stroke-linejoin: miter; stroke-linecap: square"/>
   </g>
   <g id="text_14">
    <!-- 2025-06-19 Trial 11 - Stress vs Strain -->
    <g transform="translate(139.180938 20.88) scale(0.12 -0.12)">
     <defs>
      <path id="DejaVuSans-35" d="M 691 4666 
L 3169 4666 
L 3169 4134 
L 1269 4134 
L 1269 2991 
Q 1406 3038 1543 3061 
Q 1681 3084 1819 3084 
Q 2600 3084 3056 2656 
Q 3513 2228 3513 1497 
Q 3513 744 3044 326 
Q 2575 -91 1722 -91 
Q 1428 -91 1123 -41 
Q 819 9 494 109 
L 494 744 
Q 775 591 1075 516 
Q 1375 441 1709 441 
Q 2250 441 2565 725 
Q 2881 1009 2881 1497 
Q 2881 1984 2565 2268 
Q 2250 2553 1709 2553 
Q 1456 2553 1204 2497 
Q 953 2441 691 2322 
L 691 4666 
z
" transform="scale(0.015625)"/>
      <path id="DejaVuSans-39" d="M 703 97 
L 703 672 
Q 941 559 1184 500 
Q 1428 441 1663 441 
Q 2288 441 2617 861 
Q 2947 1281 2994 2138 
Q 2813 1869 2534 1725 
Q 2256 1581 1919 1581 
Q 1219 1581 811 2004 
Q 403 2428 403 3163 
Q 403 3881 828 4315 
Q 1253 4750 1959 4750 
Q 2769 4750 3195 4129 
Q 3622 3509 3622 2328 
Q 3622 1225 3098 567 
Q 2575 -91 1691 -91 
Q 1453 -91 1209 -44 
Q 966 3 703 97 
z
M 1959 2075 
Q 2384 2075 2632 2365 
Q 2881 2656 2881 3163 
Q 2881 3666 2632 3958 
Q 2384 4250 1959 4250 
Q 1534 4250 1286 3958 
Q 1038 3666 1038 3163 
Q 1038 2656 1286 2365 
Q 1534 2075 1959 2075 
z
" transform="scale(0.015625)"/>
      <path id="DejaVuSans-54" d="M -19 4666 
L 3928 4666 
L 3928 4134 
L 2272 4134 
L 2272 0 
L 1638 0 
L 1638 4134 
L -19 4134 
L -19 4666 
z
" transform="scale(0.015625)"/>
      <path id="DejaVuSans-6c" d="M 603 4863 
L 1178 4863 
L 1178 0 
L 603 0 
L 603 4863 
z
" transform="scale(0.015625)"/>
      <path id="DejaVuSans-76" d="M 191 3500 
L 800 3500 
L 1894 563 
L 2988 3500 
L 3597 3500 
L 2284 0 
L 1503 0 
L 191 3500 
z
" transform="scale(0.015625)"/>
     </defs>
     <use xlink:href="#DejaVuSans-32"/>
     <use xlink:href="#DejaVuSans-30" transform="translate(63.623047 0)"/>
     <use xlink:href="#DejaVuSans-32" transform="translate(127.246094 0)"/>
     <use xlink:href="#DejaVuSans-35" transform="translate(190.869141 0)"/>
     <use xlink:href="#DejaVuSans-2d" transform="translate(254.492188 0)"/>
     <use xlink:href="#DejaVuSans-30" transform="translate(290.576172 0)"/>
     <use xlink:href="#DejaVuSans-36" transform="translate(354.199219 0)"/>
     <use xlink:href="#DejaVuSans-2d" transform="translate(417.822266 0)"/>
     <use xlink:href="#DejaVuSans-31" transform="translate(453.90625 0)"/>
     <use xlink:href="#DejaVuSans-39" transform="translate(517.529297 0)"/>
     <use xlink:href="#DejaVuSans-20" transform="translate(581.152344 0)"/>
     <use xlink:href="#DejaVuSans-54" transform="translate(612.939453 0)"/>
     <use xlink:href="#DejaVuSans-72" transform="translate(659.273438 0)"/>
     <use xlink:href="#DejaVuSans-69" transform="translate(700.386719 0)"/>
     <use xlink:href="#DejaVuSans-61" transform="translate(728.169922 0)"/>
     <use xlink:href="#DejaVuSans-6c" transform="translate(789.449219 0)"/>
     <use xlink:href="#DejaVuSans-20" transform="translate(817.232422 0)"/>
     <use xlink:href="#DejaVuSans-31" transform="translate(849.019531 0)"/>
     <use xlink:href="#DejaVuSans-31" transform="translate(912.642578 0)"/>
     <use xlink:href="#DejaVuSans-20" transform="translate(976.265625 0)"/>
     <use xlink:href="#DejaVuSans-2d" transform="translate(1008.052734 0)"/>
     <use xlink:href="#DejaVuSans-20" transform="translate(1044.136719 0)"/>
     <use xlink:href="#DejaVuSans-53" transform="translate(1075.923828 0)"/>
     <use xlink:href="#DejaVuSans-74" transform="translate(1139.400391 0)"/>
     <use xlink:href="#DejaVuSans-72" transform="translate(1178.609375 0)"/>
     <use xlink:href="#DejaVuSans-65" transform="translate(1217.472656 0)"/>
     <use xlink:href="#DejaVuSans-73" transform="translate(1278.996094 0)"/>
     <use xlink:href="#DejaVuSans-73" transform="translate(1331.095703 0)"/>
     <use xlink:href="#DejaVuSans-20" transform="translate(1383.195312 0)"/>
     <use xlink:href="#DejaVuSans-76" transform="translate(1414.982422 0)"/>
     <use xlink:href="#DejaVuSans-73" transform="translate(1474.162109 0)"/>
     <use xlink:href="#DejaVuSans-20" transform="translate(1526.261719 0)"/>
     <use xlink:href="#DejaVuSans-53" transform="translate(1558.048828 0)"/>
     <use xlink:href="#DejaVuSans-74" transform="translate(1621.525391 0)"/>
     <use xlink:href="#DejaVuSans-72" transform="translate(1660.734375 0)"/>
     <use xlink:href="#DejaVuSans-61" transform="translate(1701.847656 0)"/>
     <use xlink:href="#DejaVuSans-69" transform="translate(1763.126953 0)"/>
     <use xlink:href="#DejaVuSans-6e" transform="translate(1790.910156 0)"/>
    </g>
   </g>
   <g id="legend_1">
    <g id="patch_7">
     <path d="M 57.87 64.23625 
L 163.854375 64.23625 
Q 165.854375 64.23625 165.854375 62.23625 
L 165.854375 33.88 
Q 165.854375 31.88 163.854375 31.88 
L 57.87 31.88 
Q 55.87 31.88 55.87 33.88 
L 55.87 62.23625 
Q 55.87 64.23625 57.87 64.23625 
z
" style="fill: #ffffff; opacity: 0.8; stroke: #cccccc; stroke-linejoin: miter"/>
    </g>
    <g id="line2d_25">
     <path d="M 59.87 39.978437 
L 69.87 39.978437 
L 79.87 39.978437 
" style="fill: none; stroke: #ff0000; stroke-width: 2; stroke-linecap: square"/>
    </g>
    <g id="text_15">
     <!-- Raw Force -->
     <g transform="translate(87.87 43.478437) scale(0.1 -0.1)">
      <defs>
       <path id="DejaVuSans-52" d="M 2841 2188 
Q 3044 2119 3236 1894 
Q 3428 1669 3622 1275 
L 4263 0 
L 3584 0 
L 2988 1197 
Q 2756 1666 2539 1819 
Q 2322 1972 1947 1972 
L 1259 1972 
L 1259 0 
L 628 0 
L 628 4666 
L 2053 4666 
Q 2853 4666 3247 4331 
Q 3641 3997 3641 3322 
Q 3641 2881 3436 2590 
Q 3231 2300 2841 2188 
z
M 1259 4147 
L 1259 2491 
L 2053 2491 
Q 2509 2491 2742 2702 
Q 2975 2913 2975 3322 
Q 2975 3731 2742 3939 
Q 2509 4147 2053 4147 
L 1259 4147 
z
" transform="scale(0.015625)"/>
       <path id="DejaVuSans-77" d="M 269 3500 
L 844 3500 
L 1563 769 
L 2278 3500 
L 2956 3500 
L 3675 769 
L 4391 3500 
L 4966 3500 
L 4050 0 
L 3372 0 
L 2619 2869 
L 1863 0 
L 1184 0 
L 269 3500 
z
" transform="scale(0.015625)"/>
       <path id="DejaVuSans-46" d="M 628 4666 
L 3309 4666 
L 3309 4134 
L 1259 4134 
L 1259 2759 
L 3109 2759 
L 3109 2228 
L 1259 2228 
L 1259 0 
L 628 0 
L 628 4666 
z
" transform="scale(0.015625)"/>
       <path id="DejaVuSans-6f" d="M 1959 3097 
Q 1497 3097 1228 2736 
Q 959 2375 959 1747 
Q 959 1119 1226 758 
Q 1494 397 1959 397 
Q 2419 397 2687 759 
Q 2956 1122 2956 1747 
Q 2956 2369 2687 2733 
Q 2419 3097 1959 3097 
z
M 1959 3584 
Q 2709 3584 3137 3096 
Q 3566 2609 3566 1747 
Q 3566 888 3137 398 
Q 2709 -91 1959 -91 
Q 1206 -91 779 398 
Q 353 888 353 1747 
Q 353 2609 779 3096 
Q 1206 3584 1959 3584 
z
" transform="scale(0.015625)"/>
       <path id="DejaVuSans-63" d="M 3122 3366 
L 3122 2828 
Q 2878 2963 2633 3030 
Q 2388 3097 2138 3097 
Q 1578 3097 1268 2742 
Q 959 2388 959 1747 
Q 959 1106 1268 751 
Q 1578 397 2138 397 
Q 2388 397 2633 464 
Q 2878 531 3122 666 
L 3122 134 
Q 2881 22 2623 -34 
Q 2366 -91 2075 -91 
Q 1284 -91 818 406 
Q 353 903 353 1747 
Q 353 2603 823 3093 
Q 1294 3584 2113 3584 
Q 2378 3584 2631 3529 
Q 2884 3475 3122 3366 
z
" transform="scale(0.015625)"/>
      </defs>
      <use xlink:href="#DejaVuSans-52"/>
      <use xlink:href="#DejaVuSans-61" transform="translate(67.232422 0)"/>
      <use xlink:href="#DejaVuSans-77" transform="translate(128.511719 0)"/>
      <use xlink:href="#DejaVuSans-20" transform="translate(210.298828 0)"/>
      <use xlink:href="#DejaVuSans-46" transform="translate(242.085938 0)"/>
      <use xlink:href="#DejaVuSans-6f" transform="translate(295.980469 0)"/>
      <use xlink:href="#DejaVuSans-72" transform="translate(357.162109 0)"/>
      <use xlink:href="#DejaVuSans-63" transform="translate(396.025391 0)"/>
      <use xlink:href="#DejaVuSans-65" transform="translate(451.005859 0)"/>
     </g>
    </g>
    <g id="line2d_26">
     <path d="M 59.87 54.656563 
L 69.87 54.656563 
L 79.87 54.656563 
" style="fill: none; stroke: #000000; stroke-width: 2; stroke-linecap: square"/>
    </g>
    <g id="text_16">
     <!-- Adjusted Force -->
     <g transform="translate(87.87 58.156563) scale(0.1 -0.1)">
      <defs>
       <path id="DejaVuSans-41" d="M 2188 4044 
L 1331 1722 
L 3047 1722 
L 2188 4044 
z
M 1831 4666 
L 2547 4666 
L 4325 0 
L 3669 0 
L 3244 1197 
L 1141 1197 
L 716 0 
L 50 0 
L 1831 4666 
z
" transform="scale(0.015625)"/>
       <path id="DejaVuSans-64" d="M 2906 2969 
L 2906 4863 
L 3481 4863 
L 3481 0 
L 2906 0 
L 2906 525 
Q 2725 213 2448 61 
Q 2172 -91 1784 -91 
Q 1150 -91 751 415 
Q 353 922 353 1747 
Q 353 2572 751 3078 
Q 1150 3584 1784 3584 
Q 2172 3584 2448 3432 
Q 2725 3281 2906 2969 
z
M 947 1747 
Q 947 1113 1208 752 
Q 1469 391 1925 391 
Q 2381 391 2643 752 
Q 2906 1113 2906 1747 
Q 2906 2381 2643 2742 
Q 2381 3103 1925 3103 
Q 1469 3103 1208 2742 
Q 947 2381 947 1747 
z
" transform="scale(0.015625)"/>
       <path id="DejaVuSans-6a" d="M 603 3500 
L 1178 3500 
L 1178 -63 
Q 1178 -731 923 -1031 
Q 669 -1331 103 -1331 
L -116 -1331 
L -116 -844 
L 38 -844 
Q 366 -844 484 -692 
Q 603 -541 603 -63 
L 603 3500 
z
M 603 4863 
L 1178 4863 
L 1178 4134 
L 603 4134 
L 603 4863 
z
" transform="scale(0.015625)"/>
       <path id="DejaVuSans-75" d="M 544 1381 
L 544 3500 
L 1119 3500 
L 1119 1403 
Q 1119 906 1312 657 
Q 1506 409 1894 409 
Q 2359 409 2629 706 
Q 2900 1003 2900 1516 
L 2900 3500 
L 3475 3500 
L 3475 0 
L 2900 0 
L 2900 538 
Q 2691 219 2414 64 
Q 2138 -91 1772 -91 
Q 1169 -91 856 284 
Q 544 659 544 1381 
z
M 1991 3584 
L 1991 3584 
z
" transform="scale(0.015625)"/>
      </defs>
      <use xlink:href="#DejaVuSans-41"/>
      <use xlink:href="#DejaVuSans-64" transform="translate(66.658203 0)"/>
      <use xlink:href="#DejaVuSans-6a" transform="translate(130.134766 0)"/>
      <use xlink:href="#DejaVuSans-75" transform="translate(157.917969 0)"/>
      <use xlink:href="#DejaVuSans-73" transform="translate(221.296875 0)"/>
      <use xlink:href="#DejaVuSans-74" transform="translate(273.396484 0)"/>
      <use xlink:href="#DejaVuSans-65" transform="translate(312.605469 0)"/>
      <use xlink:href="#DejaVuSans-64" transform="translate(374.128906 0)"/>
      <use xlink:href="#DejaVuSans-20" transform="translate(437.605469 0)"/>
      <use xlink:href="#DejaVuSans-46" transform="translate(469.392578 0)"/>
      <use xlink:href="#DejaVuSans-6f" transform="translate(523.287109 0)"/>
      <use xlink:href="#DejaVuSans-72" transform="translate(584.46875 0)"/>
      <use xlink:href="#DejaVuSans-63" transform="translate(623.332031 0)"/>
      <use xlink:href="#DejaVuSans-65" transform="translate(678.3125 0)"/>
     </g>
    </g>
   </g>
  </g>
 </g>
 <defs>
  <clipPath id="p302aeef3ad">
   <rect x="50.87" y="26.88" width="399.13" height="276.76"/>
  </clipPath>
 </defs>
</svg>
