<?xml version="1.0" encoding="utf-8" standalone="no"?>
<!DOCTYPE svg PUBLIC "-//W3C//DTD SVG 1.1//EN"
  "http://www.w3.org/Graphics/SVG/1.1/DTD/svg11.dtd">
<svg xmlns:xlink="http://www.w3.org/1999/xlink" width="460.8pt" height="345.6pt" viewBox="0 0 460.8 345.6" xmlns="http://www.w3.org/2000/svg" version="1.1">
 <metadata>
  <rdf:RDF xmlns:dc="http://purl.org/dc/elements/1.1/" xmlns:cc="http://creativecommons.org/ns#" xmlns:rdf="http://www.w3.org/1999/02/22-rdf-syntax-ns#">
   <cc:Work>
    <dc:type rdf:resource="http://purl.org/dc/dcmitype/StillImage"/>
    <dc:date>2025-07-28T21:14:32.453256</dc:date>
    <dc:format>image/svg+xml</dc:format>
    <dc:creator>
     <cc:Agent>
      <dc:title>Matplotlib v3.10.3, https://matplotlib.org/</dc:title>
     </cc:Agent>
    </dc:creator>
   </cc:Work>
  </rdf:RDF>
 </metadata>
 <defs>
  <style type="text/css">*{stroke-linejoin: round; stroke-linecap: butt}</style>
 </defs>
 <g id="figure_1">
  <g id="patch_1">
   <path d="M 0 345.6 
L 460.8 345.6 
L 460.8 0 
L 0 0 
z
" style="fill: #ffffff"/>
  </g>
  <g id="axes_1">
   <g id="patch_2">
    <path d="M 59.15 303.64 
L 450 303.64 
L 450 26.88 
L 59.15 26.88 
z
" style="fill: #ffffff"/>
   </g>
   <g id="matplotlib.axis_1">
    <g id="xtick_1">
     <g id="line2d_1">
      <path d="M 77.070538 303.64 
L 77.070538 26.88 
" clip-path="url(#p2232a3e6aa)" style="fill: none; stroke: #b0b0b0; stroke-opacity: 0.3; stroke-width: 0.8; stroke-linecap: square"/>
     </g>
     <g id="line2d_2">
      <defs>
       <path id="ma4103db145" d="M 0 0 
L 0 3.5 
" style="stroke: #000000; stroke-width: 0.8"/>
      </defs>
      <g>
       <use xlink:href="#ma4103db145" x="77.070538" y="303.64" style="stroke: #000000; stroke-width: 0.8"/>
      </g>
     </g>
     <g id="text_1">
      <!-- 0.000 -->
      <g transform="translate(62.756475 318.238437) scale(0.1 -0.1)">
       <defs>
        <path id="DejaVuSans-30" d="M 2034 4250 
Q 1547 4250 1301 3770 
Q 1056 3291 1056 2328 
Q 1056 1369 1301 889 
Q 1547 409 2034 409 
Q 2525 409 2770 889 
Q 3016 1369 3016 2328 
Q 3016 3291 2770 3770 
Q 2525 4250 2034 4250 
z
M 2034 4750 
Q 2819 4750 3233 4129 
Q 3647 3509 3647 2328 
Q 3647 1150 3233 529 
Q 2819 -91 2034 -91 
Q 1250 -91 836 529 
Q 422 1150 422 2328 
Q 422 3509 836 4129 
Q 1250 4750 2034 4750 
z
" transform="scale(0.015625)"/>
        <path id="DejaVuSans-2e" d="M 684 794 
L 1344 794 
L 1344 0 
L 684 0 
L 684 794 
z
" transform="scale(0.015625)"/>
       </defs>
       <use xlink:href="#DejaVuSans-30"/>
       <use xlink:href="#DejaVuSans-2e" transform="translate(63.623047 0)"/>
       <use xlink:href="#DejaVuSans-30" transform="translate(95.410156 0)"/>
       <use xlink:href="#DejaVuSans-30" transform="translate(159.033203 0)"/>
       <use xlink:href="#DejaVuSans-30" transform="translate(222.65625 0)"/>
      </g>
     </g>
    </g>
    <g id="xtick_2">
     <g id="line2d_3">
      <path d="M 126.761102 303.64 
L 126.761102 26.88 
" clip-path="url(#p2232a3e6aa)" style="fill: none; stroke: #b0b0b0; stroke-opacity: 0.3; stroke-width: 0.8; stroke-linecap: square"/>
     </g>
     <g id="line2d_4">
      <g>
       <use xlink:href="#ma4103db145" x="126.761102" y="303.64" style="stroke: #000000; stroke-width: 0.8"/>
      </g>
     </g>
     <g id="text_2">
      <!-- 0.025 -->
      <g transform="translate(112.447039 318.238437) scale(0.1 -0.1)">
       <defs>
        <path id="DejaVuSans-32" d="M 1228 531 
L 3431 531 
L 3431 0 
L 469 0 
L 469 531 
Q 828 903 1448 1529 
Q 2069 2156 2228 2338 
Q 2531 2678 2651 2914 
Q 2772 3150 2772 3378 
Q 2772 3750 2511 3984 
Q 2250 4219 1831 4219 
Q 1534 4219 1204 4116 
Q 875 4013 500 3803 
L 500 4441 
Q 881 4594 1212 4672 
Q 1544 4750 1819 4750 
Q 2544 4750 2975 4387 
Q 3406 4025 3406 3419 
Q 3406 3131 3298 2873 
Q 3191 2616 2906 2266 
Q 2828 2175 2409 1742 
Q 1991 1309 1228 531 
z
" transform="scale(0.015625)"/>
        <path id="DejaVuSans-35" d="M 691 4666 
L 3169 4666 
L 3169 4134 
L 1269 4134 
L 1269 2991 
Q 1406 3038 1543 3061 
Q 1681 3084 1819 3084 
Q 2600 3084 3056 2656 
Q 3513 2228 3513 1497 
Q 3513 744 3044 326 
Q 2575 -91 1722 -91 
Q 1428 -91 1123 -41 
Q 819 9 494 109 
L 494 744 
Q 775 591 1075 516 
Q 1375 441 1709 441 
Q 2250 441 2565 725 
Q 2881 1009 2881 1497 
Q 2881 1984 2565 2268 
Q 2250 2553 1709 2553 
Q 1456 2553 1204 2497 
Q 953 2441 691 2322 
L 691 4666 
z
" transform="scale(0.015625)"/>
       </defs>
       <use xlink:href="#DejaVuSans-30"/>
       <use xlink:href="#DejaVuSans-2e" transform="translate(63.623047 0)"/>
       <use xlink:href="#DejaVuSans-30" transform="translate(95.410156 0)"/>
       <use xlink:href="#DejaVuSans-32" transform="translate(159.033203 0)"/>
       <use xlink:href="#DejaVuSans-35" transform="translate(222.65625 0)"/>
      </g>
     </g>
    </g>
    <g id="xtick_3">
     <g id="line2d_5">
      <path d="M 176.451666 303.64 
L 176.451666 26.88 
" clip-path="url(#p2232a3e6aa)" style="fill: none; stroke: #b0b0b0; stroke-opacity: 0.3; stroke-width: 0.8; stroke-linecap: square"/>
     </g>
     <g id="line2d_6">
      <g>
       <use xlink:href="#ma4103db145" x="176.451666" y="303.64" style="stroke: #000000; stroke-width: 0.8"/>
      </g>
     </g>
     <g id="text_3">
      <!-- 0.050 -->
      <g transform="translate(162.137604 318.238437) scale(0.1 -0.1)">
       <use xlink:href="#DejaVuSans-30"/>
       <use xlink:href="#DejaVuSans-2e" transform="translate(63.623047 0)"/>
       <use xlink:href="#DejaVuSans-30" transform="translate(95.410156 0)"/>
       <use xlink:href="#DejaVuSans-35" transform="translate(159.033203 0)"/>
       <use xlink:href="#DejaVuSans-30" transform="translate(222.65625 0)"/>
      </g>
     </g>
    </g>
    <g id="xtick_4">
     <g id="line2d_7">
      <path d="M 226.14223 303.64 
L 226.14223 26.88 
" clip-path="url(#p2232a3e6aa)" style="fill: none; stroke: #b0b0b0; stroke-opacity: 0.3; stroke-width: 0.8; stroke-linecap: square"/>
     </g>
     <g id="line2d_8">
      <g>
       <use xlink:href="#ma4103db145" x="226.14223" y="303.64" style="stroke: #000000; stroke-width: 0.8"/>
      </g>
     </g>
     <g id="text_4">
      <!-- 0.075 -->
      <g transform="translate(211.828168 318.238437) scale(0.1 -0.1)">
       <defs>
        <path id="DejaVuSans-37" d="M 525 4666 
L 3525 4666 
L 3525 4397 
L 1831 0 
L 1172 0 
L 2766 4134 
L 525 4134 
L 525 4666 
z
" transform="scale(0.015625)"/>
       </defs>
       <use xlink:href="#DejaVuSans-30"/>
       <use xlink:href="#DejaVuSans-2e" transform="translate(63.623047 0)"/>
       <use xlink:href="#DejaVuSans-30" transform="translate(95.410156 0)"/>
       <use xlink:href="#DejaVuSans-37" transform="translate(159.033203 0)"/>
       <use xlink:href="#DejaVuSans-35" transform="translate(222.65625 0)"/>
      </g>
     </g>
    </g>
    <g id="xtick_5">
     <g id="line2d_9">
      <path d="M 275.832794 303.64 
L 275.832794 26.88 
" clip-path="url(#p2232a3e6aa)" style="fill: none; stroke: #b0b0b0; stroke-opacity: 0.3; stroke-width: 0.8; stroke-linecap: square"/>
     </g>
     <g id="line2d_10">
      <g>
       <use xlink:href="#ma4103db145" x="275.832794" y="303.64" style="stroke: #000000; stroke-width: 0.8"/>
      </g>
     </g>
     <g id="text_5">
      <!-- 0.100 -->
      <g transform="translate(261.518732 318.238437) scale(0.1 -0.1)">
       <defs>
        <path id="DejaVuSans-31" d="M 794 531 
L 1825 531 
L 1825 4091 
L 703 3866 
L 703 4441 
L 1819 4666 
L 2450 4666 
L 2450 531 
L 3481 531 
L 3481 0 
L 794 0 
L 794 531 
z
" transform="scale(0.015625)"/>
       </defs>
       <use xlink:href="#DejaVuSans-30"/>
       <use xlink:href="#DejaVuSans-2e" transform="translate(63.623047 0)"/>
       <use xlink:href="#DejaVuSans-31" transform="translate(95.410156 0)"/>
       <use xlink:href="#DejaVuSans-30" transform="translate(159.033203 0)"/>
       <use xlink:href="#DejaVuSans-30" transform="translate(222.65625 0)"/>
      </g>
     </g>
    </g>
    <g id="xtick_6">
     <g id="line2d_11">
      <path d="M 325.523359 303.64 
L 325.523359 26.88 
" clip-path="url(#p2232a3e6aa)" style="fill: none; stroke: #b0b0b0; stroke-opacity: 0.3; stroke-width: 0.8; stroke-linecap: square"/>
     </g>
     <g id="line2d_12">
      <g>
       <use xlink:href="#ma4103db145" x="325.523359" y="303.64" style="stroke: #000000; stroke-width: 0.8"/>
      </g>
     </g>
     <g id="text_6">
      <!-- 0.125 -->
      <g transform="translate(311.209296 318.238437) scale(0.1 -0.1)">
       <use xlink:href="#DejaVuSans-30"/>
       <use xlink:href="#DejaVuSans-2e" transform="translate(63.623047 0)"/>
       <use xlink:href="#DejaVuSans-31" transform="translate(95.410156 0)"/>
       <use xlink:href="#DejaVuSans-32" transform="translate(159.033203 0)"/>
       <use xlink:href="#DejaVuSans-35" transform="translate(222.65625 0)"/>
      </g>
     </g>
    </g>
    <g id="xtick_7">
     <g id="line2d_13">
      <path d="M 375.213923 303.64 
L 375.213923 26.88 
" clip-path="url(#p2232a3e6aa)" style="fill: none; stroke: #b0b0b0; stroke-opacity: 0.3; stroke-width: 0.8; stroke-linecap: square"/>
     </g>
     <g id="line2d_14">
      <g>
       <use xlink:href="#ma4103db145" x="375.213923" y="303.64" style="stroke: #000000; stroke-width: 0.8"/>
      </g>
     </g>
     <g id="text_7">
      <!-- 0.150 -->
      <g transform="translate(360.89986 318.238437) scale(0.1 -0.1)">
       <use xlink:href="#DejaVuSans-30"/>
       <use xlink:href="#DejaVuSans-2e" transform="translate(63.623047 0)"/>
       <use xlink:href="#DejaVuSans-31" transform="translate(95.410156 0)"/>
       <use xlink:href="#DejaVuSans-35" transform="translate(159.033203 0)"/>
       <use xlink:href="#DejaVuSans-30" transform="translate(222.65625 0)"/>
      </g>
     </g>
    </g>
    <g id="xtick_8">
     <g id="line2d_15">
      <path d="M 424.904487 303.64 
L 424.904487 26.88 
" clip-path="url(#p2232a3e6aa)" style="fill: none; stroke: #b0b0b0; stroke-opacity: 0.3; stroke-width: 0.8; stroke-linecap: square"/>
     </g>
     <g id="line2d_16">
      <g>
       <use xlink:href="#ma4103db145" x="424.904487" y="303.64" style="stroke: #000000; stroke-width: 0.8"/>
      </g>
     </g>
     <g id="text_8">
      <!-- 0.175 -->
      <g transform="translate(410.590425 318.238437) scale(0.1 -0.1)">
       <use xlink:href="#DejaVuSans-30"/>
       <use xlink:href="#DejaVuSans-2e" transform="translate(63.623047 0)"/>
       <use xlink:href="#DejaVuSans-31" transform="translate(95.410156 0)"/>
       <use xlink:href="#DejaVuSans-37" transform="translate(159.033203 0)"/>
       <use xlink:href="#DejaVuSans-35" transform="translate(222.65625 0)"/>
      </g>
     </g>
    </g>
    <g id="text_9">
     <!-- Strain [-] -->
     <g transform="translate(232.46875 331.916562) scale(0.1 -0.1)">
      <defs>
       <path id="DejaVuSans-53" d="M 3425 4513 
L 3425 3897 
Q 3066 4069 2747 4153 
Q 2428 4238 2131 4238 
Q 1616 4238 1336 4038 
Q 1056 3838 1056 3469 
Q 1056 3159 1242 3001 
Q 1428 2844 1947 2747 
L 2328 2669 
Q 3034 2534 3370 2195 
Q 3706 1856 3706 1288 
Q 3706 609 3251 259 
Q 2797 -91 1919 -91 
Q 1588 -91 1214 -16 
Q 841 59 441 206 
L 441 856 
Q 825 641 1194 531 
Q 1563 422 1919 422 
Q 2459 422 2753 634 
Q 3047 847 3047 1241 
Q 3047 1584 2836 1778 
Q 2625 1972 2144 2069 
L 1759 2144 
Q 1053 2284 737 2584 
Q 422 2884 422 3419 
Q 422 4038 858 4394 
Q 1294 4750 2059 4750 
Q 2388 4750 2728 4690 
Q 3069 4631 3425 4513 
z
" transform="scale(0.015625)"/>
       <path id="DejaVuSans-74" d="M 1172 4494 
L 1172 3500 
L 2356 3500 
L 2356 3053 
L 1172 3053 
L 1172 1153 
Q 1172 725 1289 603 
Q 1406 481 1766 481 
L 2356 481 
L 2356 0 
L 1766 0 
Q 1100 0 847 248 
Q 594 497 594 1153 
L 594 3053 
L 172 3053 
L 172 3500 
L 594 3500 
L 594 4494 
L 1172 4494 
z
" transform="scale(0.015625)"/>
       <path id="DejaVuSans-72" d="M 2631 2963 
Q 2534 3019 2420 3045 
Q 2306 3072 2169 3072 
Q 1681 3072 1420 2755 
Q 1159 2438 1159 1844 
L 1159 0 
L 581 0 
L 581 3500 
L 1159 3500 
L 1159 2956 
Q 1341 3275 1631 3429 
Q 1922 3584 2338 3584 
Q 2397 3584 2469 3576 
Q 2541 3569 2628 3553 
L 2631 2963 
z
" transform="scale(0.015625)"/>
       <path id="DejaVuSans-61" d="M 2194 1759 
Q 1497 1759 1228 1600 
Q 959 1441 959 1056 
Q 959 750 1161 570 
Q 1363 391 1709 391 
Q 2188 391 2477 730 
Q 2766 1069 2766 1631 
L 2766 1759 
L 2194 1759 
z
M 3341 1997 
L 3341 0 
L 2766 0 
L 2766 531 
Q 2569 213 2275 61 
Q 1981 -91 1556 -91 
Q 1019 -91 701 211 
Q 384 513 384 1019 
Q 384 1609 779 1909 
Q 1175 2209 1959 2209 
L 2766 2209 
L 2766 2266 
Q 2766 2663 2505 2880 
Q 2244 3097 1772 3097 
Q 1472 3097 1187 3025 
Q 903 2953 641 2809 
L 641 3341 
Q 956 3463 1253 3523 
Q 1550 3584 1831 3584 
Q 2591 3584 2966 3190 
Q 3341 2797 3341 1997 
z
" transform="scale(0.015625)"/>
       <path id="DejaVuSans-69" d="M 603 3500 
L 1178 3500 
L 1178 0 
L 603 0 
L 603 3500 
z
M 603 4863 
L 1178 4863 
L 1178 4134 
L 603 4134 
L 603 4863 
z
" transform="scale(0.015625)"/>
       <path id="DejaVuSans-6e" d="M 3513 2113 
L 3513 0 
L 2938 0 
L 2938 2094 
Q 2938 2591 2744 2837 
Q 2550 3084 2163 3084 
Q 1697 3084 1428 2787 
Q 1159 2491 1159 1978 
L 1159 0 
L 581 0 
L 581 3500 
L 1159 3500 
L 1159 2956 
Q 1366 3272 1645 3428 
Q 1925 3584 2291 3584 
Q 2894 3584 3203 3211 
Q 3513 2838 3513 2113 
z
" transform="scale(0.015625)"/>
       <path id="DejaVuSans-20" transform="scale(0.015625)"/>
       <path id="DejaVuSans-5b" d="M 550 4863 
L 1875 4863 
L 1875 4416 
L 1125 4416 
L 1125 -397 
L 1875 -397 
L 1875 -844 
L 550 -844 
L 550 4863 
z
" transform="scale(0.015625)"/>
       <path id="DejaVuSans-2d" d="M 313 2009 
L 1997 2009 
L 1997 1497 
L 313 1497 
L 313 2009 
z
" transform="scale(0.015625)"/>
       <path id="DejaVuSans-5d" d="M 1947 4863 
L 1947 -844 
L 622 -844 
L 622 -397 
L 1369 -397 
L 1369 4416 
L 622 4416 
L 622 4863 
L 1947 4863 
z
" transform="scale(0.015625)"/>
      </defs>
      <use xlink:href="#DejaVuSans-53"/>
      <use xlink:href="#DejaVuSans-74" transform="translate(63.476562 0)"/>
      <use xlink:href="#DejaVuSans-72" transform="translate(102.685547 0)"/>
      <use xlink:href="#DejaVuSans-61" transform="translate(143.798828 0)"/>
      <use xlink:href="#DejaVuSans-69" transform="translate(205.078125 0)"/>
      <use xlink:href="#DejaVuSans-6e" transform="translate(232.861328 0)"/>
      <use xlink:href="#DejaVuSans-20" transform="translate(296.240234 0)"/>
      <use xlink:href="#DejaVuSans-5b" transform="translate(328.027344 0)"/>
      <use xlink:href="#DejaVuSans-2d" transform="translate(367.041016 0)"/>
      <use xlink:href="#DejaVuSans-5d" transform="translate(403.125 0)"/>
     </g>
    </g>
   </g>
   <g id="matplotlib.axis_2">
    <g id="ytick_1">
     <g id="line2d_17">
      <path d="M 59.15 303.052021 
L 450 303.052021 
" clip-path="url(#p2232a3e6aa)" style="fill: none; stroke: #b0b0b0; stroke-opacity: 0.3; stroke-width: 0.8; stroke-linecap: square"/>
     </g>
     <g id="line2d_18">
      <defs>
       <path id="mc6b6fea737" d="M 0 0 
L -3.5 0 
" style="stroke: #000000; stroke-width: 0.8"/>
      </defs>
      <g>
       <use xlink:href="#mc6b6fea737" x="59.15" y="303.052021" style="stroke: #000000; stroke-width: 0.8"/>
      </g>
     </g>
     <g id="text_10">
      <!-- −250 -->
      <g transform="translate(24.682813 306.85124) scale(0.1 -0.1)">
       <defs>
        <path id="DejaVuSans-2212" d="M 678 2272 
L 4684 2272 
L 4684 1741 
L 678 1741 
L 678 2272 
z
" transform="scale(0.015625)"/>
       </defs>
       <use xlink:href="#DejaVuSans-2212"/>
       <use xlink:href="#DejaVuSans-32" transform="translate(83.789062 0)"/>
       <use xlink:href="#DejaVuSans-35" transform="translate(147.412109 0)"/>
       <use xlink:href="#DejaVuSans-30" transform="translate(211.035156 0)"/>
      </g>
     </g>
    </g>
    <g id="ytick_2">
     <g id="line2d_19">
      <path d="M 59.15 266.570661 
L 450 266.570661 
" clip-path="url(#p2232a3e6aa)" style="fill: none; stroke: #b0b0b0; stroke-opacity: 0.3; stroke-width: 0.8; stroke-linecap: square"/>
     </g>
     <g id="line2d_20">
      <g>
       <use xlink:href="#mc6b6fea737" x="59.15" y="266.570661" style="stroke: #000000; stroke-width: 0.8"/>
      </g>
     </g>
     <g id="text_11">
      <!-- 0 -->
      <g transform="translate(45.7875 270.36988) scale(0.1 -0.1)">
       <use xlink:href="#DejaVuSans-30"/>
      </g>
     </g>
    </g>
    <g id="ytick_3">
     <g id="line2d_21">
      <path d="M 59.15 230.089301 
L 450 230.089301 
" clip-path="url(#p2232a3e6aa)" style="fill: none; stroke: #b0b0b0; stroke-opacity: 0.3; stroke-width: 0.8; stroke-linecap: square"/>
     </g>
     <g id="line2d_22">
      <g>
       <use xlink:href="#mc6b6fea737" x="59.15" y="230.089301" style="stroke: #000000; stroke-width: 0.8"/>
      </g>
     </g>
     <g id="text_12">
      <!-- 250 -->
      <g transform="translate(33.0625 233.88852) scale(0.1 -0.1)">
       <use xlink:href="#DejaVuSans-32"/>
       <use xlink:href="#DejaVuSans-35" transform="translate(63.623047 0)"/>
       <use xlink:href="#DejaVuSans-30" transform="translate(127.246094 0)"/>
      </g>
     </g>
    </g>
    <g id="ytick_4">
     <g id="line2d_23">
      <path d="M 59.15 193.607941 
L 450 193.607941 
" clip-path="url(#p2232a3e6aa)" style="fill: none; stroke: #b0b0b0; stroke-opacity: 0.3; stroke-width: 0.8; stroke-linecap: square"/>
     </g>
     <g id="line2d_24">
      <g>
       <use xlink:href="#mc6b6fea737" x="59.15" y="193.607941" style="stroke: #000000; stroke-width: 0.8"/>
      </g>
     </g>
     <g id="text_13">
      <!-- 500 -->
      <g transform="translate(33.0625 197.40716) scale(0.1 -0.1)">
       <use xlink:href="#DejaVuSans-35"/>
       <use xlink:href="#DejaVuSans-30" transform="translate(63.623047 0)"/>
       <use xlink:href="#DejaVuSans-30" transform="translate(127.246094 0)"/>
      </g>
     </g>
    </g>
    <g id="ytick_5">
     <g id="line2d_25">
      <path d="M 59.15 157.126581 
L 450 157.126581 
" clip-path="url(#p2232a3e6aa)" style="fill: none; stroke: #b0b0b0; stroke-opacity: 0.3; stroke-width: 0.8; stroke-linecap: square"/>
     </g>
     <g id="line2d_26">
      <g>
       <use xlink:href="#mc6b6fea737" x="59.15" y="157.126581" style="stroke: #000000; stroke-width: 0.8"/>
      </g>
     </g>
     <g id="text_14">
      <!-- 750 -->
      <g transform="translate(33.0625 160.9258) scale(0.1 -0.1)">
       <use xlink:href="#DejaVuSans-37"/>
       <use xlink:href="#DejaVuSans-35" transform="translate(63.623047 0)"/>
       <use xlink:href="#DejaVuSans-30" transform="translate(127.246094 0)"/>
      </g>
     </g>
    </g>
    <g id="ytick_6">
     <g id="line2d_27">
      <path d="M 59.15 120.645221 
L 450 120.645221 
" clip-path="url(#p2232a3e6aa)" style="fill: none; stroke: #b0b0b0; stroke-opacity: 0.3; stroke-width: 0.8; stroke-linecap: square"/>
     </g>
     <g id="line2d_28">
      <g>
       <use xlink:href="#mc6b6fea737" x="59.15" y="120.645221" style="stroke: #000000; stroke-width: 0.8"/>
      </g>
     </g>
     <g id="text_15">
      <!-- 1000 -->
      <g transform="translate(26.7 124.444439) scale(0.1 -0.1)">
       <use xlink:href="#DejaVuSans-31"/>
       <use xlink:href="#DejaVuSans-30" transform="translate(63.623047 0)"/>
       <use xlink:href="#DejaVuSans-30" transform="translate(127.246094 0)"/>
       <use xlink:href="#DejaVuSans-30" transform="translate(190.869141 0)"/>
      </g>
     </g>
    </g>
    <g id="ytick_7">
     <g id="line2d_29">
      <path d="M 59.15 84.163861 
L 450 84.163861 
" clip-path="url(#p2232a3e6aa)" style="fill: none; stroke: #b0b0b0; stroke-opacity: 0.3; stroke-width: 0.8; stroke-linecap: square"/>
     </g>
     <g id="line2d_30">
      <g>
       <use xlink:href="#mc6b6fea737" x="59.15" y="84.163861" style="stroke: #000000; stroke-width: 0.8"/>
      </g>
     </g>
     <g id="text_16">
      <!-- 1250 -->
      <g transform="translate(26.7 87.963079) scale(0.1 -0.1)">
       <use xlink:href="#DejaVuSans-31"/>
       <use xlink:href="#DejaVuSans-32" transform="translate(63.623047 0)"/>
       <use xlink:href="#DejaVuSans-35" transform="translate(127.246094 0)"/>
       <use xlink:href="#DejaVuSans-30" transform="translate(190.869141 0)"/>
      </g>
     </g>
    </g>
    <g id="ytick_8">
     <g id="line2d_31">
      <path d="M 59.15 47.682501 
L 450 47.682501 
" clip-path="url(#p2232a3e6aa)" style="fill: none; stroke: #b0b0b0; stroke-opacity: 0.3; stroke-width: 0.8; stroke-linecap: square"/>
     </g>
     <g id="line2d_32">
      <g>
       <use xlink:href="#mc6b6fea737" x="59.15" y="47.682501" style="stroke: #000000; stroke-width: 0.8"/>
      </g>
     </g>
     <g id="text_17">
      <!-- 1500 -->
      <g transform="translate(26.7 51.481719) scale(0.1 -0.1)">
       <use xlink:href="#DejaVuSans-31"/>
       <use xlink:href="#DejaVuSans-35" transform="translate(63.623047 0)"/>
       <use xlink:href="#DejaVuSans-30" transform="translate(127.246094 0)"/>
       <use xlink:href="#DejaVuSans-30" transform="translate(190.869141 0)"/>
      </g>
     </g>
    </g>
    <g id="text_18">
     <!-- Stress [Pa] -->
     <g transform="translate(18.603125 191.967812) rotate(-90) scale(0.1 -0.1)">
      <defs>
       <path id="DejaVuSans-65" d="M 3597 1894 
L 3597 1613 
L 953 1613 
Q 991 1019 1311 708 
Q 1631 397 2203 397 
Q 2534 397 2845 478 
Q 3156 559 3463 722 
L 3463 178 
Q 3153 47 2828 -22 
Q 2503 -91 2169 -91 
Q 1331 -91 842 396 
Q 353 884 353 1716 
Q 353 2575 817 3079 
Q 1281 3584 2069 3584 
Q 2775 3584 3186 3129 
Q 3597 2675 3597 1894 
z
M 3022 2063 
Q 3016 2534 2758 2815 
Q 2500 3097 2075 3097 
Q 1594 3097 1305 2825 
Q 1016 2553 972 2059 
L 3022 2063 
z
" transform="scale(0.015625)"/>
       <path id="DejaVuSans-73" d="M 2834 3397 
L 2834 2853 
Q 2591 2978 2328 3040 
Q 2066 3103 1784 3103 
Q 1356 3103 1142 2972 
Q 928 2841 928 2578 
Q 928 2378 1081 2264 
Q 1234 2150 1697 2047 
L 1894 2003 
Q 2506 1872 2764 1633 
Q 3022 1394 3022 966 
Q 3022 478 2636 193 
Q 2250 -91 1575 -91 
Q 1294 -91 989 -36 
Q 684 19 347 128 
L 347 722 
Q 666 556 975 473 
Q 1284 391 1588 391 
Q 1994 391 2212 530 
Q 2431 669 2431 922 
Q 2431 1156 2273 1281 
Q 2116 1406 1581 1522 
L 1381 1569 
Q 847 1681 609 1914 
Q 372 2147 372 2553 
Q 372 3047 722 3315 
Q 1072 3584 1716 3584 
Q 2034 3584 2315 3537 
Q 2597 3491 2834 3397 
z
" transform="scale(0.015625)"/>
       <path id="DejaVuSans-50" d="M 1259 4147 
L 1259 2394 
L 2053 2394 
Q 2494 2394 2734 2622 
Q 2975 2850 2975 3272 
Q 2975 3691 2734 3919 
Q 2494 4147 2053 4147 
L 1259 4147 
z
M 628 4666 
L 2053 4666 
Q 2838 4666 3239 4311 
Q 3641 3956 3641 3272 
Q 3641 2581 3239 2228 
Q 2838 1875 2053 1875 
L 1259 1875 
L 1259 0 
L 628 0 
L 628 4666 
z
" transform="scale(0.015625)"/>
      </defs>
      <use xlink:href="#DejaVuSans-53"/>
      <use xlink:href="#DejaVuSans-74" transform="translate(63.476562 0)"/>
      <use xlink:href="#DejaVuSans-72" transform="translate(102.685547 0)"/>
      <use xlink:href="#DejaVuSans-65" transform="translate(141.548828 0)"/>
      <use xlink:href="#DejaVuSans-73" transform="translate(203.072266 0)"/>
      <use xlink:href="#DejaVuSans-73" transform="translate(255.171875 0)"/>
      <use xlink:href="#DejaVuSans-20" transform="translate(307.271484 0)"/>
      <use xlink:href="#DejaVuSans-5b" transform="translate(339.058594 0)"/>
      <use xlink:href="#DejaVuSans-50" transform="translate(378.072266 0)"/>
      <use xlink:href="#DejaVuSans-61" transform="translate(433.875 0)"/>
      <use xlink:href="#DejaVuSans-5d" transform="translate(495.154297 0)"/>
     </g>
    </g>
   </g>
   <g id="line2d_33">
    <path d="M 77.070538 266.885156 
L 77.068767 267.020083 
L 77.068177 266.747576 
L 77.471199 266.69731 
L 79.646505 264.357708 
L 80.400391 264.990181 
L 81.863751 265.597505 
L 82.617095 265.711037 
L 83.355274 266.065227 
L 84.10943 265.817696 
L 84.862503 265.913732 
L 85.614222 263.826203 
L 86.329358 263.093121 
L 87.802467 264.113814 
L 89.250122 264.239435 
L 89.966637 264.233503 
L 90.676925 264.78411 
L 91.411449 263.500649 
L 92.151929 261.022977 
L 92.869935 261.163868 
L 93.592408 261.587158 
L 94.323005 261.765214 
L 95.068224 261.803106 
L 95.778782 262.142289 
L 96.504776 260.420831 
L 97.22928 259.554642 
L 98.689933 259.681518 
L 99.423779 259.672039 
L 100.150585 259.941452 
L 101.618684 257.767366 
L 103.824827 257.675889 
L 104.565715 257.854049 
L 105.292846 257.072291 
L 106.028859 255.868869 
L 106.740501 255.334221 
L 108.933917 255.239655 
L 109.662889 254.969995 
L 110.40012 254.154487 
L 111.1383 253.57454 
L 113.313575 253.07027 
L 114.034965 252.952609 
L 114.771384 252.319136 
L 115.493992 251.519778 
L 116.95302 250.762102 
L 119.170401 250.097673 
L 120.597882 249.174343 
L 122.751897 247.974921 
L 124.230122 247.294301 
L 124.957605 246.921309 
L 127.133284 245.437027 
L 129.322096 244.603291 
L 130.788164 243.707032 
L 131.512262 243.089787 
L 132.254233 242.726753 
L 134.4379 242.079226 
L 135.149 241.675548 
L 136.608976 240.362305 
L 138.070441 239.677229 
L 139.530822 239.172631 
L 140.261825 238.817865 
L 140.984087 238.172414 
L 142.443386 237.291075 
L 144.615951 236.473259 
L 146.094475 235.628603 
L 146.81898 234.956293 
L 147.544973 234.479862 
L 150.456124 233.163698 
L 151.191053 232.82935 
L 152.649269 231.879256 
L 157.025404 229.483873 
L 157.768458 229.228892 
L 159.204933 228.118804 
L 162.852367 226.166939 
L 164.321279 225.18739 
L 166.500885 224.329391 
L 168.671554 222.894023 
L 170.85143 221.780351 
L 173.775849 219.88324 
L 175.937583 218.777028 
L 178.140992 217.539619 
L 183.239466 214.67588 
L 183.974125 214.34557 
L 185.419884 213.207442 
L 186.85454 212.449998 
L 191.248683 209.777216 
L 194.179297 208.154822 
L 199.293205 205.127735 
L 204.391814 202.045584 
L 209.469978 199.098556 
L 210.929006 198.395176 
L 213.116295 196.788149 
L 216.725141 194.768796 
L 217.441928 194.264833 
L 218.155465 193.912143 
L 218.867106 193.31474 
L 221.039401 192.101398 
L 222.520633 191.221827 
L 224.679117 190.136149 
L 226.14004 189.198437 
L 228.325197 187.532274 
L 231.243845 185.781731 
L 232.695832 184.789955 
L 233.441052 184.325598 
L 234.894664 183.735154 
L 236.332028 182.796674 
L 238.543858 181.258559 
L 239.288536 180.902716 
L 241.422107 179.559711 
L 242.855951 178.661375 
L 243.573008 178.353675 
L 245.804877 176.829327 
L 247.228972 175.936451 
L 249.401723 174.688156 
L 252.971034 172.218482 
L 254.42275 171.404857 
L 255.906691 170.468222 
L 261.010309 167.040534 
L 263.176104 165.794815 
L 275.629392 157.546232 
L 277.061341 156.547919 
L 279.217929 155.202453 
L 287.229888 149.805045 
L 294.508103 144.904996 
L 296.67471 143.356422 
L 297.403953 143.001425 
L 305.40085 137.443534 
L 306.860419 136.435684 
L 308.30672 135.332163 
L 310.48294 133.700839 
L 311.946842 132.74144 
L 314.88101 130.539782 
L 318.53518 128.038231 
L 320.679582 126.516266 
L 322.109364 125.492959 
L 324.305759 123.935079 
L 325.020379 123.580544 
L 327.246561 121.964523 
L 330.922293 119.034569 
L 333.837099 117.125153 
L 335.31454 115.865745 
L 336.765343 114.748439 
L 339.668505 112.852636 
L 341.148925 111.543546 
L 342.604433 110.541157 
L 344.056691 109.642206 
L 344.794599 109.128168 
L 346.252408 107.774934 
L 349.859359 105.327409 
L 351.315949 103.949883 
L 354.224121 102.070288 
L 355.684096 100.793652 
L 356.414287 100.057665 
L 359.330989 98.061268 
L 360.787986 96.898992 
L 361.525336 96.189152 
L 363.675966 94.797312 
L 367.968021 91.381159 
L 368.691577 90.996861 
L 377.385053 84.041141 
L 378.840831 82.974843 
L 381.031539 81.170404 
L 383.891103 79.107561 
L 386.786412 76.672418 
L 391.864305 72.663091 
L 393.342018 71.49397 
L 394.766926 70.533725 
L 396.196979 69.234633 
L 397.622157 68.045209 
L 399.047336 66.970836 
L 401.956997 64.367884 
L 403.416296 63.394642 
L 404.888863 62.206756 
L 406.363326 60.75816 
L 407.817683 59.619609 
L 412.947026 55.247133 
L 415.145046 53.417392 
L 418.106428 50.589875 
L 420.986031 48.260862 
L 422.431248 47.158264 
L 423.147493 46.709366 
L 424.615186 45.443343 
L 426.798041 43.252433 
L 428.237572 42.336486 
L 428.974668 41.916119 
L 430.408918 40.859358 
L 431.134235 40.45045 
L 431.814532 39.925953 
L 432.234091 39.46 
L 431.99945 43.445255 
L 432.005881 67.418466 
L 432.001751 67.232488 
L 431.291328 67.512521 
L 429.829254 70.789552 
L 428.378892 70.544338 
L 427.662647 70.631953 
L 426.172207 71.253043 
L 425.43132 71.245141 
L 424.670123 71.808476 
L 423.926257 71.480492 
L 423.203513 73.121353 
L 422.452065 74.424444 
L 420.957022 75.926567 
L 420.219655 77.531436 
L 419.467124 78.76335 
L 418.731382 78.411891 
L 417.979392 78.244083 
L 417.257732 78.643839 
L 415.816847 79.726902 
L 415.074606 79.314687 
L 414.347597 80.953491 
L 413.614698 83.192832 
L 412.900078 84.021568 
L 410.029682 85.251945 
L 409.319394 85.672696 
L 408.603284 86.45452 
L 407.889747 87.415688 
L 404.957746 90.076549 
L 404.215505 91.127389 
L 403.493031 91.683572 
L 402.739688 91.753075 
L 400.541127 93.197365 
L 399.095368 95.334114 
L 396.902764 96.798092 
L 396.191258 96.982473 
L 394.733314 99.155829 
L 393.300824 99.917427 
L 391.868333 100.655568 
L 391.15764 101.420473 
L 390.420408 102.395945 
L 389.68778 103.136701 
L 387.510612 104.568532 
L 386.057948 106.132189 
L 385.333579 106.866331 
L 383.882404 107.772358 
L 382.418502 108.825736 
L 380.954194 110.228804 
L 378.069378 112.374301 
L 377.329845 113.111058 
L 376.613329 113.665395 
L 375.162967 114.500514 
L 373.70421 115.781302 
L 372.25317 117.329261 
L 365.678609 122.312676 
L 364.237454 123.537938 
L 363.513085 123.937002 
L 361.33067 125.622699 
L 360.610245 126.355764 
L 359.144447 127.438905 
L 355.499044 130.000558 
L 354.067095 131.142839 
L 351.927838 132.88906 
L 349.730631 134.368342 
L 347.522863 136.244535 
L 346.081708 137.000941 
L 344.628366 138.069931 
L 343.155122 139.402948 
L 341.724528 140.394109 
L 340.251554 141.548771 
L 338.057461 143.13626 
L 336.596809 144.149647 
L 333.671713 146.529879 
L 332.229474 147.382918 
L 330.764353 148.430374 
L 329.316157 149.672094 
L 326.44984 151.49426 
L 325.711661 152.052442 
L 324.265902 153.348611 
L 322.066258 154.508503 
L 321.333224 155.009314 
L 319.894099 156.383311 
L 319.183811 156.903656 
L 317.001498 157.810932 
L 314.080735 160.261764 
L 309.731543 163.066824 
L 308.295719 164.180755 
L 305.413408 166.19484 
L 304.671979 166.695342 
L 303.21945 167.888919 
L 302.485062 168.294443 
L 301.022243 168.879619 
L 298.099313 171.089352 
L 296.650034 171.836568 
L 295.187622 173.081825 
L 293.734687 174.303242 
L 291.564559 175.298364 
L 287.9286 177.819065 
L 286.503692 178.718862 
L 285.051705 179.808616 
L 282.167769 181.58114 
L 280.720114 182.586759 
L 278.53753 183.874315 
L 275.599571 185.946925 
L 273.39397 187.22356 
L 271.957486 188.504372 
L 269.032119 189.865335 
L 265.389424 192.300478 
L 263.919023 193.265337 
L 262.479627 194.241502 
L 261.009497 194.893932 
L 260.283503 195.324758 
L 258.107824 197.161497 
L 256.631195 197.624931 
L 255.908993 197.976391 
L 255.182813 198.496764 
L 253.730013 199.862994 
L 253.019997 200.293512 
L 251.55447 200.82147 
L 250.838766 201.138553 
L 248.644809 202.983829 
L 246.459246 203.814853 
L 243.530223 205.913457 
L 241.345744 206.95403 
L 240.625843 207.54928 
L 239.914472 208.286806 
L 238.462214 208.966653 
L 237.000394 209.568589 
L 236.284149 210.002184 
L 234.799937 211.242827 
L 232.61275 212.322622 
L 231.166449 212.879958 
L 229.015954 214.623565 
L 228.282243 215.118146 
L 225.397359 216.351599 
L 224.676646 217.000375 
L 223.224253 217.723905 
L 222.508278 217.9144 
L 221.038284 218.738753 
L 220.318383 219.470434 
L 219.581422 220.000218 
L 216.669324 221.397528 
L 215.215983 222.353197 
L 213.750185 222.867505 
L 212.309165 223.837171 
L 210.866385 224.812258 
L 209.410607 225.350214 
L 208.695445 225.699904 
L 206.497019 227.163884 
L 205.013079 227.975471 
L 202.806936 229.305171 
L 200.609102 230.372281 
L 199.873631 231.042284 
L 199.128141 231.529405 
L 196.968303 232.555866 
L 196.233915 232.927244 
L 194.762566 234.15289 
L 192.577274 235.043228 
L 191.83395 235.406146 
L 190.360299 236.380388 
L 187.444681 237.657408 
L 186.000682 238.877979 
L 184.557631 239.53014 
L 183.114182 240.051685 
L 181.654342 240.991166 
L 180.921849 241.575188 
L 178.763907 242.352821 
L 177.294319 243.143411 
L 175.840165 244.112962 
L 173.656227 244.992072 
L 170.0333 246.960128 
L 168.553962 247.992511 
L 164.933092 249.673482 
L 164.203036 250.246892 
L 162.033179 251.117984 
L 159.103209 252.809449 
L 157.672343 253.366169 
L 156.937955 253.676753 
L 155.481906 254.584394 
L 152.610427 255.944819 
L 150.469545 257.24045 
L 148.292402 258.30701 
L 141.820606 261.531436 
L 139.66483 262.729089 
L 138.225841 263.47719 
L 136.764647 264.16888 
L 133.826418 265.535784 
L 133.097175 265.7367 
L 126.518945 269.057476 
L 125.801075 269.23857 
L 125.085643 269.601258 
L 124.375355 269.751212 
L 121.464069 271.284943 
L 120.016144 272.115909 
L 118.552513 272.909115 
L 115.651247 274.024902 
L 114.906568 274.548553 
L 111.298776 275.945203 
L 109.835551 276.898527 
L 107.654862 277.792018 
L 106.201521 278.765414 
L 104.733286 279.182629 
L 103.277102 279.583346 
L 101.123628 280.906971 
L 98.932649 281.482879 
L 98.219518 281.977152 
L 97.494337 282.972159 
L 96.758189 283.261709 
L 96.024613 283.337298 
L 94.564218 283.822683 
L 93.831726 283.985119 
L 93.091922 284.811087 
L 92.351712 285.036099 
L 90.874812 285.317571 
L 90.145839 285.514565 
L 89.407795 285.88725 
L 88.682614 286.674304 
L 86.492719 287.22312 
L 85.773766 287.613032 
L 85.056167 288.210436 
L 83.61447 288.706708 
L 82.174668 289.028746 
L 81.433375 289.420966 
L 80.69682 290.345757 
L 79.241719 290.249082 
L 77.774979 289.825773 
L 77.109169 291.06 
L 76.916286 289.914311 
L 76.916286 289.914311 
" clip-path="url(#p2232a3e6aa)" style="fill: none; stroke: #ff0000; stroke-width: 2; stroke-linecap: square"/>
   </g>
   <g id="line2d_34">
    <path d="M 77.070538 266.885156 
L 77.068767 267.020083 
L 77.068177 266.747576 
L 77.471199 266.69731 
L 79.646505 264.357708 
L 80.400391 267.860168 
L 81.863751 266.979386 
L 83.355274 266.418416 
L 84.10943 265.820272 
L 84.862503 265.913732 
L 85.614222 263.826203 
L 86.329358 263.093121 
L 87.802467 264.113814 
L 89.250122 264.239435 
L 89.966637 264.233503 
L 90.676925 264.78411 
L 91.411449 263.500649 
L 92.151929 261.022977 
L 92.869935 261.163868 
L 93.592408 261.587158 
L 94.323005 261.765214 
L 95.068224 261.803106 
L 95.778782 262.142289 
L 96.504776 260.420831 
L 97.22928 259.554642 
L 98.689933 259.681518 
L 99.423779 259.672039 
L 100.150585 259.941452 
L 101.618684 257.767366 
L 103.824827 257.675889 
L 104.565715 257.854049 
L 105.292846 257.072291 
L 106.028859 255.868869 
L 106.740501 255.334221 
L 108.933917 255.239655 
L 109.662889 254.969995 
L 110.40012 254.154487 
L 111.1383 253.57454 
L 113.313575 253.07027 
L 114.034965 252.952609 
L 114.771384 252.319136 
L 115.493992 251.519778 
L 116.95302 250.762102 
L 119.170401 250.097673 
L 120.597882 249.174343 
L 122.751897 247.974921 
L 124.230122 247.294301 
L 124.957605 246.921309 
L 127.133284 245.437027 
L 129.322096 244.603291 
L 130.788164 243.707032 
L 131.512262 243.089787 
L 132.254233 242.726753 
L 134.4379 242.079226 
L 135.149 241.675548 
L 136.608976 240.362305 
L 138.070441 239.677229 
L 139.530822 239.172631 
L 140.261825 238.817865 
L 140.984087 238.172414 
L 142.443386 237.291075 
L 144.615951 236.473259 
L 146.094475 235.628603 
L 146.81898 234.956293 
L 147.544973 234.479862 
L 150.456124 233.163698 
L 151.191053 232.82935 
L 152.649269 231.879256 
L 157.025404 229.483873 
L 157.768458 229.228892 
L 159.204933 228.118804 
L 162.852367 226.166939 
L 164.321279 225.18739 
L 166.500885 224.329391 
L 168.671554 222.894023 
L 170.85143 221.780351 
L 173.775849 219.88324 
L 175.937583 218.777028 
L 178.140992 217.539619 
L 183.239466 214.67588 
L 183.974125 214.34557 
L 185.419884 213.207442 
L 186.85454 212.449998 
L 191.248683 209.777216 
L 194.179297 208.154822 
L 199.293205 205.127735 
L 204.391814 202.045584 
L 209.469978 199.098556 
L 210.929006 198.395176 
L 213.116295 196.788149 
L 216.725141 194.768796 
L 217.441928 194.264833 
L 218.155465 193.912143 
L 218.867106 193.31474 
L 221.039401 192.101398 
L 222.520633 191.221827 
L 224.679117 190.136149 
L 226.14004 189.198437 
L 228.325197 187.532274 
L 231.243845 185.781731 
L 232.695832 184.789955 
L 233.441052 184.325598 
L 234.894664 183.735154 
L 236.332028 182.796674 
L 238.543858 181.258559 
L 239.288536 180.902716 
L 241.422107 179.559711 
L 242.855951 178.661375 
L 243.573008 178.353675 
L 245.804877 176.829327 
L 247.228972 175.936451 
L 249.401723 174.688156 
L 252.971034 172.218482 
L 254.42275 171.404857 
L 255.906691 170.468222 
L 261.010309 167.040534 
L 263.176104 165.794815 
L 275.629392 157.546232 
L 277.061341 156.547919 
L 279.217929 155.202453 
L 287.229888 149.805045 
L 294.508103 144.904996 
L 296.67471 143.356422 
L 297.403953 143.001425 
L 305.40085 137.443534 
L 306.860419 136.435684 
L 308.30672 135.332163 
L 310.48294 133.700839 
L 311.946842 132.74144 
L 314.88101 130.539782 
L 318.53518 128.038231 
L 320.679582 126.516266 
L 322.109364 125.492959 
L 324.305759 123.935079 
L 325.020379 123.580544 
L 327.246561 121.964523 
L 330.922293 119.034569 
L 333.837099 117.125153 
L 335.31454 115.865745 
L 336.765343 114.748439 
L 339.668505 112.852636 
L 341.148925 111.543546 
L 342.604433 110.541157 
L 344.056691 109.642206 
L 344.794599 109.128168 
L 346.252408 107.774934 
L 349.859359 105.327409 
L 351.315949 103.949883 
L 354.224121 102.070288 
L 355.684096 100.793652 
L 356.414287 100.057665 
L 359.330989 98.061268 
L 360.787986 96.898992 
L 361.525336 96.189152 
L 363.675966 94.797312 
L 367.968021 91.381159 
L 368.691577 90.996861 
L 377.385053 84.041141 
L 378.840831 82.974843 
L 381.031539 81.170404 
L 383.891103 79.107561 
L 386.786412 76.672418 
L 391.864305 72.663091 
L 393.342018 71.49397 
L 394.766926 70.533725 
L 396.196979 69.234633 
L 397.622157 68.045209 
L 399.047336 66.970836 
L 401.956997 64.367884 
L 403.416296 63.394642 
L 404.888863 62.206756 
L 406.363326 60.75816 
L 407.817683 59.619609 
L 412.947026 55.247133 
L 415.145046 53.417392 
L 418.106428 50.589875 
L 420.986031 48.260862 
L 422.431248 47.158264 
L 423.147493 46.709366 
L 424.615186 45.443343 
L 426.798041 43.252433 
L 428.237572 42.336486 
L 428.974668 41.916119 
L 430.408918 40.859358 
L 431.134235 40.45045 
L 431.814532 39.925953 
L 432.234091 39.46 
L 432.089217 40.097092 
L 432.058821 39.650337 
L 432.002394 54.697468 
L 432.004832 54.489265 
L 432.005881 67.418466 
L 432.001751 67.232488 
L 431.291328 67.512521 
L 429.829254 70.789552 
L 428.378892 70.544338 
L 427.662647 70.631953 
L 426.172207 71.253043 
L 425.43132 71.245141 
L 424.670123 71.808476 
L 423.926257 71.480492 
L 423.203513 73.121353 
L 422.452065 74.424444 
L 420.957022 75.926567 
L 420.219655 77.531436 
L 419.467124 78.76335 
L 418.731382 78.411891 
L 417.979392 78.244083 
L 417.257732 78.643839 
L 415.816847 79.726902 
L 415.074606 79.314687 
L 414.347597 80.953491 
L 413.614698 83.192832 
L 412.900078 84.021568 
L 410.029682 85.251945 
L 409.319394 85.672696 
L 408.603284 86.45452 
L 407.889747 87.415688 
L 404.957746 90.076549 
L 404.215505 91.127389 
L 403.493031 91.683572 
L 402.739688 91.753075 
L 400.541127 93.197365 
L 399.095368 95.334114 
L 396.902764 96.798092 
L 396.191258 96.982473 
L 394.733314 99.155829 
L 393.300824 99.917427 
L 391.868333 100.655568 
L 391.15764 101.420473 
L 390.420408 102.395945 
L 389.68778 103.136701 
L 387.510612 104.568532 
L 386.057948 106.132189 
L 385.333579 106.866331 
L 383.882404 107.772358 
L 382.418502 108.825736 
L 380.954194 110.228804 
L 378.069378 112.374301 
L 377.329845 113.111058 
L 376.613329 113.665395 
L 375.162967 114.500514 
L 373.70421 115.781302 
L 372.25317 117.329261 
L 365.678609 122.312676 
L 364.237454 123.537938 
L 363.513085 123.937002 
L 361.33067 125.622699 
L 360.610245 126.355764 
L 359.144447 127.438905 
L 355.499044 130.000558 
L 354.067095 131.142839 
L 351.927838 132.88906 
L 349.730631 134.368342 
L 347.522863 136.244535 
L 346.081708 137.000941 
L 344.628366 138.069931 
L 343.155122 139.402948 
L 341.724528 140.394109 
L 340.251554 141.548771 
L 338.057461 143.13626 
L 336.596809 144.149647 
L 333.671713 146.529879 
L 332.229474 147.382918 
L 330.764353 148.430374 
L 329.316157 149.672094 
L 326.44984 151.49426 
L 325.711661 152.052442 
L 324.265902 153.348611 
L 322.066258 154.508503 
L 321.333224 155.009314 
L 319.894099 156.383311 
L 319.183811 156.903656 
L 317.001498 157.810932 
L 314.080735 160.261764 
L 309.731543 163.066824 
L 308.295719 164.180755 
L 305.413408 166.19484 
L 304.671979 166.695342 
L 303.21945 167.888919 
L 302.485062 168.294443 
L 301.022243 168.879619 
L 298.099313 171.089352 
L 296.650034 171.836568 
L 295.187622 173.081825 
L 293.734687 174.303242 
L 291.564559 175.298364 
L 287.9286 177.819065 
L 286.503692 178.718862 
L 285.051705 179.808616 
L 282.167769 181.58114 
L 280.720114 182.586759 
L 278.53753 183.874315 
L 275.599571 185.946925 
L 273.39397 187.22356 
L 271.957486 188.504372 
L 269.032119 189.865335 
L 265.389424 192.300478 
L 263.919023 193.265337 
L 262.479627 194.241502 
L 261.009497 194.893932 
L 260.283503 195.324758 
L 258.107824 197.161497 
L 256.631195 197.624931 
L 255.908993 197.976391 
L 255.182813 198.496764 
L 253.730013 199.862994 
L 253.019997 200.293512 
L 251.55447 200.82147 
L 250.838766 201.138553 
L 248.644809 202.983829 
L 246.459246 203.814853 
L 243.530223 205.913457 
L 241.345744 206.95403 
L 240.625843 207.54928 
L 239.914472 208.286806 
L 238.462214 208.966653 
L 237.000394 209.568589 
L 236.284149 210.002184 
L 234.799937 211.242827 
L 232.61275 212.322622 
L 231.166449 212.879958 
L 229.015954 214.623565 
L 228.282243 215.118146 
L 225.397359 216.351599 
L 224.676646 217.000375 
L 223.224253 217.723905 
L 222.508278 217.9144 
L 221.038284 218.738753 
L 220.318383 219.470434 
L 219.581422 220.000218 
L 216.669324 221.397528 
L 215.215983 222.353197 
L 213.750185 222.867505 
L 212.309165 223.837171 
L 210.866385 224.812258 
L 209.410607 225.350214 
L 208.695445 225.699904 
L 206.497019 227.163884 
L 205.013079 227.975471 
L 202.806936 229.305171 
L 200.609102 230.372281 
L 199.873631 231.042284 
L 199.128141 231.529405 
L 196.968303 232.555866 
L 196.233915 232.927244 
L 194.762566 234.15289 
L 192.577274 235.043228 
L 191.83395 235.406146 
L 190.360299 236.380388 
L 187.444681 237.657408 
L 186.000682 238.877979 
L 184.557631 239.53014 
L 183.114182 240.051685 
L 181.654342 240.991166 
L 180.921849 241.575188 
L 178.763907 242.352821 
L 177.294319 243.143411 
L 175.840165 244.112962 
L 173.656227 244.992072 
L 170.0333 246.960128 
L 168.553962 247.992511 
L 164.933092 249.673482 
L 164.203036 250.246892 
L 162.033179 251.117984 
L 159.103209 252.809449 
L 157.672343 253.366169 
L 156.937955 253.676753 
L 155.481906 254.584394 
L 152.610427 255.944819 
L 150.469545 257.24045 
L 148.292402 258.30701 
L 141.820606 261.531436 
L 139.66483 262.729089 
L 138.225841 263.47719 
L 136.764647 264.16888 
L 133.826418 265.535784 
L 133.097175 265.7367 
L 126.518945 269.057476 
L 125.801075 269.23857 
L 125.085643 269.601258 
L 124.375355 269.751212 
L 121.464069 271.284943 
L 120.016144 272.115909 
L 118.552513 272.909115 
L 115.651247 274.024902 
L 114.906568 274.548553 
L 111.298776 275.945203 
L 109.835551 276.898527 
L 107.654862 277.792018 
L 106.201521 278.765414 
L 104.733286 279.182629 
L 103.277102 279.583346 
L 101.123628 280.906971 
L 98.932649 281.482879 
L 98.219518 281.977152 
L 97.494337 282.972159 
L 96.758189 283.261709 
L 96.024613 283.337298 
L 94.564218 283.822683 
L 93.831726 283.985119 
L 93.091922 284.811087 
L 92.351712 285.036099 
L 90.874812 285.317571 
L 90.145839 285.514565 
L 89.407795 285.88725 
L 88.682614 286.674304 
L 86.492719 287.22312 
L 85.773766 287.613032 
L 85.056167 288.210436 
L 83.61447 288.706708 
L 82.174668 289.028746 
L 81.433375 289.420966 
L 80.69682 290.345757 
L 79.241719 290.249082 
L 77.774979 289.825773 
L 77.109169 291.06 
L 76.916286 289.914311 
L 76.916286 289.914311 
" clip-path="url(#p2232a3e6aa)" style="fill: none; stroke: #000000; stroke-width: 2; stroke-linecap: square"/>
   </g>
   <g id="patch_3">
    <path d="M 59.15 303.64 
L 59.15 26.88 
" style="fill: none; stroke: #000000; stroke-width: 0.8; stroke-linejoin: miter; stroke-linecap: square"/>
   </g>
   <g id="patch_4">
    <path d="M 450 303.64 
L 450 26.88 
" style="fill: none; stroke: #000000; stroke-width: 0.8; stroke-linejoin: miter; stroke-linecap: square"/>
   </g>
   <g id="patch_5">
    <path d="M 59.15 303.64 
L 450 303.64 
" style="fill: none; stroke: #000000; stroke-width: 0.8; stroke-linejoin: miter; stroke-linecap: square"/>
   </g>
   <g id="patch_6">
    <path d="M 59.15 26.88 
L 450 26.88 
" style="fill: none; stroke: #000000; stroke-width: 0.8; stroke-linejoin: miter; stroke-linecap: square"/>
   </g>
   <g id="text_19">
    <!-- 2025-06-19 Trial 18 - Stress vs Strain -->
    <g transform="translate(143.320938 20.88) scale(0.12 -0.12)">
     <defs>
      <path id="DejaVuSans-36" d="M 2113 2584 
Q 1688 2584 1439 2293 
Q 1191 2003 1191 1497 
Q 1191 994 1439 701 
Q 1688 409 2113 409 
Q 2538 409 2786 701 
Q 3034 994 3034 1497 
Q 3034 2003 2786 2293 
Q 2538 2584 2113 2584 
z
M 3366 4563 
L 3366 3988 
Q 3128 4100 2886 4159 
Q 2644 4219 2406 4219 
Q 1781 4219 1451 3797 
Q 1122 3375 1075 2522 
Q 1259 2794 1537 2939 
Q 1816 3084 2150 3084 
Q 2853 3084 3261 2657 
Q 3669 2231 3669 1497 
Q 3669 778 3244 343 
Q 2819 -91 2113 -91 
Q 1303 -91 875 529 
Q 447 1150 447 2328 
Q 447 3434 972 4092 
Q 1497 4750 2381 4750 
Q 2619 4750 2861 4703 
Q 3103 4656 3366 4563 
z
" transform="scale(0.015625)"/>
      <path id="DejaVuSans-39" d="M 703 97 
L 703 672 
Q 941 559 1184 500 
Q 1428 441 1663 441 
Q 2288 441 2617 861 
Q 2947 1281 2994 2138 
Q 2813 1869 2534 1725 
Q 2256 1581 1919 1581 
Q 1219 1581 811 2004 
Q 403 2428 403 3163 
Q 403 3881 828 4315 
Q 1253 4750 1959 4750 
Q 2769 4750 3195 4129 
Q 3622 3509 3622 2328 
Q 3622 1225 3098 567 
Q 2575 -91 1691 -91 
Q 1453 -91 1209 -44 
Q 966 3 703 97 
z
M 1959 2075 
Q 2384 2075 2632 2365 
Q 2881 2656 2881 3163 
Q 2881 3666 2632 3958 
Q 2384 4250 1959 4250 
Q 1534 4250 1286 3958 
Q 1038 3666 1038 3163 
Q 1038 2656 1286 2365 
Q 1534 2075 1959 2075 
z
" transform="scale(0.015625)"/>
      <path id="DejaVuSans-54" d="M -19 4666 
L 3928 4666 
L 3928 4134 
L 2272 4134 
L 2272 0 
L 1638 0 
L 1638 4134 
L -19 4134 
L -19 4666 
z
" transform="scale(0.015625)"/>
      <path id="DejaVuSans-6c" d="M 603 4863 
L 1178 4863 
L 1178 0 
L 603 0 
L 603 4863 
z
" transform="scale(0.015625)"/>
      <path id="DejaVuSans-38" d="M 2034 2216 
Q 1584 2216 1326 1975 
Q 1069 1734 1069 1313 
Q 1069 891 1326 650 
Q 1584 409 2034 409 
Q 2484 409 2743 651 
Q 3003 894 3003 1313 
Q 3003 1734 2745 1975 
Q 2488 2216 2034 2216 
z
M 1403 2484 
Q 997 2584 770 2862 
Q 544 3141 544 3541 
Q 544 4100 942 4425 
Q 1341 4750 2034 4750 
Q 2731 4750 3128 4425 
Q 3525 4100 3525 3541 
Q 3525 3141 3298 2862 
Q 3072 2584 2669 2484 
Q 3125 2378 3379 2068 
Q 3634 1759 3634 1313 
Q 3634 634 3220 271 
Q 2806 -91 2034 -91 
Q 1263 -91 848 271 
Q 434 634 434 1313 
Q 434 1759 690 2068 
Q 947 2378 1403 2484 
z
M 1172 3481 
Q 1172 3119 1398 2916 
Q 1625 2713 2034 2713 
Q 2441 2713 2670 2916 
Q 2900 3119 2900 3481 
Q 2900 3844 2670 4047 
Q 2441 4250 2034 4250 
Q 1625 4250 1398 4047 
Q 1172 3844 1172 3481 
z
" transform="scale(0.015625)"/>
      <path id="DejaVuSans-76" d="M 191 3500 
L 800 3500 
L 1894 563 
L 2988 3500 
L 3597 3500 
L 2284 0 
L 1503 0 
L 191 3500 
z
" transform="scale(0.015625)"/>
     </defs>
     <use xlink:href="#DejaVuSans-32"/>
     <use xlink:href="#DejaVuSans-30" transform="translate(63.623047 0)"/>
     <use xlink:href="#DejaVuSans-32" transform="translate(127.246094 0)"/>
     <use xlink:href="#DejaVuSans-35" transform="translate(190.869141 0)"/>
     <use xlink:href="#DejaVuSans-2d" transform="translate(254.492188 0)"/>
     <use xlink:href="#DejaVuSans-30" transform="translate(290.576172 0)"/>
     <use xlink:href="#DejaVuSans-36" transform="translate(354.199219 0)"/>
     <use xlink:href="#DejaVuSans-2d" transform="translate(417.822266 0)"/>
     <use xlink:href="#DejaVuSans-31" transform="translate(453.90625 0)"/>
     <use xlink:href="#DejaVuSans-39" transform="translate(517.529297 0)"/>
     <use xlink:href="#DejaVuSans-20" transform="translate(581.152344 0)"/>
     <use xlink:href="#DejaVuSans-54" transform="translate(612.939453 0)"/>
     <use xlink:href="#DejaVuSans-72" transform="translate(659.273438 0)"/>
     <use xlink:href="#DejaVuSans-69" transform="translate(700.386719 0)"/>
     <use xlink:href="#DejaVuSans-61" transform="translate(728.169922 0)"/>
     <use xlink:href="#DejaVuSans-6c" transform="translate(789.449219 0)"/>
     <use xlink:href="#DejaVuSans-20" transform="translate(817.232422 0)"/>
     <use xlink:href="#DejaVuSans-31" transform="translate(849.019531 0)"/>
     <use xlink:href="#DejaVuSans-38" transform="translate(912.642578 0)"/>
     <use xlink:href="#DejaVuSans-20" transform="translate(976.265625 0)"/>
     <use xlink:href="#DejaVuSans-2d" transform="translate(1008.052734 0)"/>
     <use xlink:href="#DejaVuSans-20" transform="translate(1044.136719 0)"/>
     <use xlink:href="#DejaVuSans-53" transform="translate(1075.923828 0)"/>
     <use xlink:href="#DejaVuSans-74" transform="translate(1139.400391 0)"/>
     <use xlink:href="#DejaVuSans-72" transform="translate(1178.609375 0)"/>
     <use xlink:href="#DejaVuSans-65" transform="translate(1217.472656 0)"/>
     <use xlink:href="#DejaVuSans-73" transform="translate(1278.996094 0)"/>
     <use xlink:href="#DejaVuSans-73" transform="translate(1331.095703 0)"/>
     <use xlink:href="#DejaVuSans-20" transform="translate(1383.195312 0)"/>
     <use xlink:href="#DejaVuSans-76" transform="translate(1414.982422 0)"/>
     <use xlink:href="#DejaVuSans-73" transform="translate(1474.162109 0)"/>
     <use xlink:href="#DejaVuSans-20" transform="translate(1526.261719 0)"/>
     <use xlink:href="#DejaVuSans-53" transform="translate(1558.048828 0)"/>
     <use xlink:href="#DejaVuSans-74" transform="translate(1621.525391 0)"/>
     <use xlink:href="#DejaVuSans-72" transform="translate(1660.734375 0)"/>
     <use xlink:href="#DejaVuSans-61" transform="translate(1701.847656 0)"/>
     <use xlink:href="#DejaVuSans-69" transform="translate(1763.126953 0)"/>
     <use xlink:href="#DejaVuSans-6e" transform="translate(1790.910156 0)"/>
    </g>
   </g>
   <g id="legend_1">
    <g id="patch_7">
     <path d="M 66.15 64.23625 
L 172.134375 64.23625 
Q 174.134375 64.23625 174.134375 62.23625 
L 174.134375 33.88 
Q 174.134375 31.88 172.134375 31.88 
L 66.15 31.88 
Q 64.15 31.88 64.15 33.88 
L 64.15 62.23625 
Q 64.15 64.23625 66.15 64.23625 
z
" style="fill: #ffffff; opacity: 0.8; stroke: #cccccc; stroke-linejoin: miter"/>
    </g>
    <g id="line2d_35">
     <path d="M 68.15 39.978437 
L 78.15 39.978437 
L 88.15 39.978437 
" style="fill: none; stroke: #ff0000; stroke-width: 2; stroke-linecap: square"/>
    </g>
    <g id="text_20">
     <!-- Raw Force -->
     <g transform="translate(96.15 43.478437) scale(0.1 -0.1)">
      <defs>
       <path id="DejaVuSans-52" d="M 2841 2188 
Q 3044 2119 3236 1894 
Q 3428 1669 3622 1275 
L 4263 0 
L 3584 0 
L 2988 1197 
Q 2756 1666 2539 1819 
Q 2322 1972 1947 1972 
L 1259 1972 
L 1259 0 
L 628 0 
L 628 4666 
L 2053 4666 
Q 2853 4666 3247 4331 
Q 3641 3997 3641 3322 
Q 3641 2881 3436 2590 
Q 3231 2300 2841 2188 
z
M 1259 4147 
L 1259 2491 
L 2053 2491 
Q 2509 2491 2742 2702 
Q 2975 2913 2975 3322 
Q 2975 3731 2742 3939 
Q 2509 4147 2053 4147 
L 1259 4147 
z
" transform="scale(0.015625)"/>
       <path id="DejaVuSans-77" d="M 269 3500 
L 844 3500 
L 1563 769 
L 2278 3500 
L 2956 3500 
L 3675 769 
L 4391 3500 
L 4966 3500 
L 4050 0 
L 3372 0 
L 2619 2869 
L 1863 0 
L 1184 0 
L 269 3500 
z
" transform="scale(0.015625)"/>
       <path id="DejaVuSans-46" d="M 628 4666 
L 3309 4666 
L 3309 4134 
L 1259 4134 
L 1259 2759 
L 3109 2759 
L 3109 2228 
L 1259 2228 
L 1259 0 
L 628 0 
L 628 4666 
z
" transform="scale(0.015625)"/>
       <path id="DejaVuSans-6f" d="M 1959 3097 
Q 1497 3097 1228 2736 
Q 959 2375 959 1747 
Q 959 1119 1226 758 
Q 1494 397 1959 397 
Q 2419 397 2687 759 
Q 2956 1122 2956 1747 
Q 2956 2369 2687 2733 
Q 2419 3097 1959 3097 
z
M 1959 3584 
Q 2709 3584 3137 3096 
Q 3566 2609 3566 1747 
Q 3566 888 3137 398 
Q 2709 -91 1959 -91 
Q 1206 -91 779 398 
Q 353 888 353 1747 
Q 353 2609 779 3096 
Q 1206 3584 1959 3584 
z
" transform="scale(0.015625)"/>
       <path id="DejaVuSans-63" d="M 3122 3366 
L 3122 2828 
Q 2878 2963 2633 3030 
Q 2388 3097 2138 3097 
Q 1578 3097 1268 2742 
Q 959 2388 959 1747 
Q 959 1106 1268 751 
Q 1578 397 2138 397 
Q 2388 397 2633 464 
Q 2878 531 3122 666 
L 3122 134 
Q 2881 22 2623 -34 
Q 2366 -91 2075 -91 
Q 1284 -91 818 406 
Q 353 903 353 1747 
Q 353 2603 823 3093 
Q 1294 3584 2113 3584 
Q 2378 3584 2631 3529 
Q 2884 3475 3122 3366 
z
" transform="scale(0.015625)"/>
      </defs>
      <use xlink:href="#DejaVuSans-52"/>
      <use xlink:href="#DejaVuSans-61" transform="translate(67.232422 0)"/>
      <use xlink:href="#DejaVuSans-77" transform="translate(128.511719 0)"/>
      <use xlink:href="#DejaVuSans-20" transform="translate(210.298828 0)"/>
      <use xlink:href="#DejaVuSans-46" transform="translate(242.085938 0)"/>
      <use xlink:href="#DejaVuSans-6f" transform="translate(295.980469 0)"/>
      <use xlink:href="#DejaVuSans-72" transform="translate(357.162109 0)"/>
      <use xlink:href="#DejaVuSans-63" transform="translate(396.025391 0)"/>
      <use xlink:href="#DejaVuSans-65" transform="translate(451.005859 0)"/>
     </g>
    </g>
    <g id="line2d_36">
     <path d="M 68.15 54.656563 
L 78.15 54.656563 
L 88.15 54.656563 
" style="fill: none; stroke: #000000; stroke-width: 2; stroke-linecap: square"/>
    </g>
    <g id="text_21">
     <!-- Adjusted Force -->
     <g transform="translate(96.15 58.156563) scale(0.1 -0.1)">
      <defs>
       <path id="DejaVuSans-41" d="M 2188 4044 
L 1331 1722 
L 3047 1722 
L 2188 4044 
z
M 1831 4666 
L 2547 4666 
L 4325 0 
L 3669 0 
L 3244 1197 
L 1141 1197 
L 716 0 
L 50 0 
L 1831 4666 
z
" transform="scale(0.015625)"/>
       <path id="DejaVuSans-64" d="M 2906 2969 
L 2906 4863 
L 3481 4863 
L 3481 0 
L 2906 0 
L 2906 525 
Q 2725 213 2448 61 
Q 2172 -91 1784 -91 
Q 1150 -91 751 415 
Q 353 922 353 1747 
Q 353 2572 751 3078 
Q 1150 3584 1784 3584 
Q 2172 3584 2448 3432 
Q 2725 3281 2906 2969 
z
M 947 1747 
Q 947 1113 1208 752 
Q 1469 391 1925 391 
Q 2381 391 2643 752 
Q 2906 1113 2906 1747 
Q 2906 2381 2643 2742 
Q 2381 3103 1925 3103 
Q 1469 3103 1208 2742 
Q 947 2381 947 1747 
z
" transform="scale(0.015625)"/>
       <path id="DejaVuSans-6a" d="M 603 3500 
L 1178 3500 
L 1178 -63 
Q 1178 -731 923 -1031 
Q 669 -1331 103 -1331 
L -116 -1331 
L -116 -844 
L 38 -844 
Q 366 -844 484 -692 
Q 603 -541 603 -63 
L 603 3500 
z
M 603 4863 
L 1178 4863 
L 1178 4134 
L 603 4134 
L 603 4863 
z
" transform="scale(0.015625)"/>
       <path id="DejaVuSans-75" d="M 544 1381 
L 544 3500 
L 1119 3500 
L 1119 1403 
Q 1119 906 1312 657 
Q 1506 409 1894 409 
Q 2359 409 2629 706 
Q 2900 1003 2900 1516 
L 2900 3500 
L 3475 3500 
L 3475 0 
L 2900 0 
L 2900 538 
Q 2691 219 2414 64 
Q 2138 -91 1772 -91 
Q 1169 -91 856 284 
Q 544 659 544 1381 
z
M 1991 3584 
L 1991 3584 
z
" transform="scale(0.015625)"/>
      </defs>
      <use xlink:href="#DejaVuSans-41"/>
      <use xlink:href="#DejaVuSans-64" transform="translate(66.658203 0)"/>
      <use xlink:href="#DejaVuSans-6a" transform="translate(130.134766 0)"/>
      <use xlink:href="#DejaVuSans-75" transform="translate(157.917969 0)"/>
      <use xlink:href="#DejaVuSans-73" transform="translate(221.296875 0)"/>
      <use xlink:href="#DejaVuSans-74" transform="translate(273.396484 0)"/>
      <use xlink:href="#DejaVuSans-65" transform="translate(312.605469 0)"/>
      <use xlink:href="#DejaVuSans-64" transform="translate(374.128906 0)"/>
      <use xlink:href="#DejaVuSans-20" transform="translate(437.605469 0)"/>
      <use xlink:href="#DejaVuSans-46" transform="translate(469.392578 0)"/>
      <use xlink:href="#DejaVuSans-6f" transform="translate(523.287109 0)"/>
      <use xlink:href="#DejaVuSans-72" transform="translate(584.46875 0)"/>
      <use xlink:href="#DejaVuSans-63" transform="translate(623.332031 0)"/>
      <use xlink:href="#DejaVuSans-65" transform="translate(678.3125 0)"/>
     </g>
    </g>
   </g>
  </g>
 </g>
 <defs>
  <clipPath id="p2232a3e6aa">
   <rect x="59.15" y="26.88" width="390.85" height="276.76"/>
  </clipPath>
 </defs>
</svg>
