<?xml version="1.0" encoding="utf-8" standalone="no"?>
<!DOCTYPE svg PUBLIC "-//W3C//DTD SVG 1.1//EN"
  "http://www.w3.org/Graphics/SVG/1.1/DTD/svg11.dtd">
<svg xmlns:xlink="http://www.w3.org/1999/xlink" width="460.8pt" height="345.6pt" viewBox="0 0 460.8 345.6" xmlns="http://www.w3.org/2000/svg" version="1.1">
 <metadata>
  <rdf:RDF xmlns:dc="http://purl.org/dc/elements/1.1/" xmlns:cc="http://creativecommons.org/ns#" xmlns:rdf="http://www.w3.org/1999/02/22-rdf-syntax-ns#">
   <cc:Work>
    <dc:type rdf:resource="http://purl.org/dc/dcmitype/StillImage"/>
    <dc:date>2025-07-28T21:14:30.171340</dc:date>
    <dc:format>image/svg+xml</dc:format>
    <dc:creator>
     <cc:Agent>
      <dc:title>Matplotlib v3.10.3, https://matplotlib.org/</dc:title>
     </cc:Agent>
    </dc:creator>
   </cc:Work>
  </rdf:RDF>
 </metadata>
 <defs>
  <style type="text/css">*{stroke-linejoin: round; stroke-linecap: butt}</style>
 </defs>
 <g id="figure_1">
  <g id="patch_1">
   <path d="M 0 345.6 
L 460.8 345.6 
L 460.8 0 
L 0 0 
z
" style="fill: #ffffff"/>
  </g>
  <g id="axes_1">
   <g id="patch_2">
    <path d="M 59.15 303.64 
L 450 303.64 
L 450 26.88 
L 59.15 26.88 
z
" style="fill: #ffffff"/>
   </g>
   <g id="matplotlib.axis_1">
    <g id="xtick_1">
     <g id="line2d_1">
      <path d="M 77.075809 303.64 
L 77.075809 26.88 
" clip-path="url(#pf62c85a8ca)" style="fill: none; stroke: #b0b0b0; stroke-opacity: 0.3; stroke-width: 0.8; stroke-linecap: square"/>
     </g>
     <g id="line2d_2">
      <defs>
       <path id="m59b1d00cc1" d="M 0 0 
L 0 3.5 
" style="stroke: #000000; stroke-width: 0.8"/>
      </defs>
      <g>
       <use xlink:href="#m59b1d00cc1" x="77.075809" y="303.64" style="stroke: #000000; stroke-width: 0.8"/>
      </g>
     </g>
     <g id="text_1">
      <!-- 0.000 -->
      <g transform="translate(62.761746 318.238437) scale(0.1 -0.1)">
       <defs>
        <path id="DejaVuSans-30" d="M 2034 4250 
Q 1547 4250 1301 3770 
Q 1056 3291 1056 2328 
Q 1056 1369 1301 889 
Q 1547 409 2034 409 
Q 2525 409 2770 889 
Q 3016 1369 3016 2328 
Q 3016 3291 2770 3770 
Q 2525 4250 2034 4250 
z
M 2034 4750 
Q 2819 4750 3233 4129 
Q 3647 3509 3647 2328 
Q 3647 1150 3233 529 
Q 2819 -91 2034 -91 
Q 1250 -91 836 529 
Q 422 1150 422 2328 
Q 422 3509 836 4129 
Q 1250 4750 2034 4750 
z
" transform="scale(0.015625)"/>
        <path id="DejaVuSans-2e" d="M 684 794 
L 1344 794 
L 1344 0 
L 684 0 
L 684 794 
z
" transform="scale(0.015625)"/>
       </defs>
       <use xlink:href="#DejaVuSans-30"/>
       <use xlink:href="#DejaVuSans-2e" transform="translate(63.623047 0)"/>
       <use xlink:href="#DejaVuSans-30" transform="translate(95.410156 0)"/>
       <use xlink:href="#DejaVuSans-30" transform="translate(159.033203 0)"/>
       <use xlink:href="#DejaVuSans-30" transform="translate(222.65625 0)"/>
      </g>
     </g>
    </g>
    <g id="xtick_2">
     <g id="line2d_3">
      <path d="M 126.775531 303.64 
L 126.775531 26.88 
" clip-path="url(#pf62c85a8ca)" style="fill: none; stroke: #b0b0b0; stroke-opacity: 0.3; stroke-width: 0.8; stroke-linecap: square"/>
     </g>
     <g id="line2d_4">
      <g>
       <use xlink:href="#m59b1d00cc1" x="126.775531" y="303.64" style="stroke: #000000; stroke-width: 0.8"/>
      </g>
     </g>
     <g id="text_2">
      <!-- 0.025 -->
      <g transform="translate(112.461468 318.238437) scale(0.1 -0.1)">
       <defs>
        <path id="DejaVuSans-32" d="M 1228 531 
L 3431 531 
L 3431 0 
L 469 0 
L 469 531 
Q 828 903 1448 1529 
Q 2069 2156 2228 2338 
Q 2531 2678 2651 2914 
Q 2772 3150 2772 3378 
Q 2772 3750 2511 3984 
Q 2250 4219 1831 4219 
Q 1534 4219 1204 4116 
Q 875 4013 500 3803 
L 500 4441 
Q 881 4594 1212 4672 
Q 1544 4750 1819 4750 
Q 2544 4750 2975 4387 
Q 3406 4025 3406 3419 
Q 3406 3131 3298 2873 
Q 3191 2616 2906 2266 
Q 2828 2175 2409 1742 
Q 1991 1309 1228 531 
z
" transform="scale(0.015625)"/>
        <path id="DejaVuSans-35" d="M 691 4666 
L 3169 4666 
L 3169 4134 
L 1269 4134 
L 1269 2991 
Q 1406 3038 1543 3061 
Q 1681 3084 1819 3084 
Q 2600 3084 3056 2656 
Q 3513 2228 3513 1497 
Q 3513 744 3044 326 
Q 2575 -91 1722 -91 
Q 1428 -91 1123 -41 
Q 819 9 494 109 
L 494 744 
Q 775 591 1075 516 
Q 1375 441 1709 441 
Q 2250 441 2565 725 
Q 2881 1009 2881 1497 
Q 2881 1984 2565 2268 
Q 2250 2553 1709 2553 
Q 1456 2553 1204 2497 
Q 953 2441 691 2322 
L 691 4666 
z
" transform="scale(0.015625)"/>
       </defs>
       <use xlink:href="#DejaVuSans-30"/>
       <use xlink:href="#DejaVuSans-2e" transform="translate(63.623047 0)"/>
       <use xlink:href="#DejaVuSans-30" transform="translate(95.410156 0)"/>
       <use xlink:href="#DejaVuSans-32" transform="translate(159.033203 0)"/>
       <use xlink:href="#DejaVuSans-35" transform="translate(222.65625 0)"/>
      </g>
     </g>
    </g>
    <g id="xtick_3">
     <g id="line2d_5">
      <path d="M 176.475252 303.64 
L 176.475252 26.88 
" clip-path="url(#pf62c85a8ca)" style="fill: none; stroke: #b0b0b0; stroke-opacity: 0.3; stroke-width: 0.8; stroke-linecap: square"/>
     </g>
     <g id="line2d_6">
      <g>
       <use xlink:href="#m59b1d00cc1" x="176.475252" y="303.64" style="stroke: #000000; stroke-width: 0.8"/>
      </g>
     </g>
     <g id="text_3">
      <!-- 0.050 -->
      <g transform="translate(162.16119 318.238437) scale(0.1 -0.1)">
       <use xlink:href="#DejaVuSans-30"/>
       <use xlink:href="#DejaVuSans-2e" transform="translate(63.623047 0)"/>
       <use xlink:href="#DejaVuSans-30" transform="translate(95.410156 0)"/>
       <use xlink:href="#DejaVuSans-35" transform="translate(159.033203 0)"/>
       <use xlink:href="#DejaVuSans-30" transform="translate(222.65625 0)"/>
      </g>
     </g>
    </g>
    <g id="xtick_4">
     <g id="line2d_7">
      <path d="M 226.174974 303.64 
L 226.174974 26.88 
" clip-path="url(#pf62c85a8ca)" style="fill: none; stroke: #b0b0b0; stroke-opacity: 0.3; stroke-width: 0.8; stroke-linecap: square"/>
     </g>
     <g id="line2d_8">
      <g>
       <use xlink:href="#m59b1d00cc1" x="226.174974" y="303.64" style="stroke: #000000; stroke-width: 0.8"/>
      </g>
     </g>
     <g id="text_4">
      <!-- 0.075 -->
      <g transform="translate(211.860911 318.238437) scale(0.1 -0.1)">
       <defs>
        <path id="DejaVuSans-37" d="M 525 4666 
L 3525 4666 
L 3525 4397 
L 1831 0 
L 1172 0 
L 2766 4134 
L 525 4134 
L 525 4666 
z
" transform="scale(0.015625)"/>
       </defs>
       <use xlink:href="#DejaVuSans-30"/>
       <use xlink:href="#DejaVuSans-2e" transform="translate(63.623047 0)"/>
       <use xlink:href="#DejaVuSans-30" transform="translate(95.410156 0)"/>
       <use xlink:href="#DejaVuSans-37" transform="translate(159.033203 0)"/>
       <use xlink:href="#DejaVuSans-35" transform="translate(222.65625 0)"/>
      </g>
     </g>
    </g>
    <g id="xtick_5">
     <g id="line2d_9">
      <path d="M 275.874695 303.64 
L 275.874695 26.88 
" clip-path="url(#pf62c85a8ca)" style="fill: none; stroke: #b0b0b0; stroke-opacity: 0.3; stroke-width: 0.8; stroke-linecap: square"/>
     </g>
     <g id="line2d_10">
      <g>
       <use xlink:href="#m59b1d00cc1" x="275.874695" y="303.64" style="stroke: #000000; stroke-width: 0.8"/>
      </g>
     </g>
     <g id="text_5">
      <!-- 0.100 -->
      <g transform="translate(261.560633 318.238437) scale(0.1 -0.1)">
       <defs>
        <path id="DejaVuSans-31" d="M 794 531 
L 1825 531 
L 1825 4091 
L 703 3866 
L 703 4441 
L 1819 4666 
L 2450 4666 
L 2450 531 
L 3481 531 
L 3481 0 
L 794 0 
L 794 531 
z
" transform="scale(0.015625)"/>
       </defs>
       <use xlink:href="#DejaVuSans-30"/>
       <use xlink:href="#DejaVuSans-2e" transform="translate(63.623047 0)"/>
       <use xlink:href="#DejaVuSans-31" transform="translate(95.410156 0)"/>
       <use xlink:href="#DejaVuSans-30" transform="translate(159.033203 0)"/>
       <use xlink:href="#DejaVuSans-30" transform="translate(222.65625 0)"/>
      </g>
     </g>
    </g>
    <g id="xtick_6">
     <g id="line2d_11">
      <path d="M 325.574417 303.64 
L 325.574417 26.88 
" clip-path="url(#pf62c85a8ca)" style="fill: none; stroke: #b0b0b0; stroke-opacity: 0.3; stroke-width: 0.8; stroke-linecap: square"/>
     </g>
     <g id="line2d_12">
      <g>
       <use xlink:href="#m59b1d00cc1" x="325.574417" y="303.64" style="stroke: #000000; stroke-width: 0.8"/>
      </g>
     </g>
     <g id="text_6">
      <!-- 0.125 -->
      <g transform="translate(311.260354 318.238437) scale(0.1 -0.1)">
       <use xlink:href="#DejaVuSans-30"/>
       <use xlink:href="#DejaVuSans-2e" transform="translate(63.623047 0)"/>
       <use xlink:href="#DejaVuSans-31" transform="translate(95.410156 0)"/>
       <use xlink:href="#DejaVuSans-32" transform="translate(159.033203 0)"/>
       <use xlink:href="#DejaVuSans-35" transform="translate(222.65625 0)"/>
      </g>
     </g>
    </g>
    <g id="xtick_7">
     <g id="line2d_13">
      <path d="M 375.274138 303.64 
L 375.274138 26.88 
" clip-path="url(#pf62c85a8ca)" style="fill: none; stroke: #b0b0b0; stroke-opacity: 0.3; stroke-width: 0.8; stroke-linecap: square"/>
     </g>
     <g id="line2d_14">
      <g>
       <use xlink:href="#m59b1d00cc1" x="375.274138" y="303.64" style="stroke: #000000; stroke-width: 0.8"/>
      </g>
     </g>
     <g id="text_7">
      <!-- 0.150 -->
      <g transform="translate(360.960076 318.238437) scale(0.1 -0.1)">
       <use xlink:href="#DejaVuSans-30"/>
       <use xlink:href="#DejaVuSans-2e" transform="translate(63.623047 0)"/>
       <use xlink:href="#DejaVuSans-31" transform="translate(95.410156 0)"/>
       <use xlink:href="#DejaVuSans-35" transform="translate(159.033203 0)"/>
       <use xlink:href="#DejaVuSans-30" transform="translate(222.65625 0)"/>
      </g>
     </g>
    </g>
    <g id="xtick_8">
     <g id="line2d_15">
      <path d="M 424.97386 303.64 
L 424.97386 26.88 
" clip-path="url(#pf62c85a8ca)" style="fill: none; stroke: #b0b0b0; stroke-opacity: 0.3; stroke-width: 0.8; stroke-linecap: square"/>
     </g>
     <g id="line2d_16">
      <g>
       <use xlink:href="#m59b1d00cc1" x="424.97386" y="303.64" style="stroke: #000000; stroke-width: 0.8"/>
      </g>
     </g>
     <g id="text_8">
      <!-- 0.175 -->
      <g transform="translate(410.659797 318.238437) scale(0.1 -0.1)">
       <use xlink:href="#DejaVuSans-30"/>
       <use xlink:href="#DejaVuSans-2e" transform="translate(63.623047 0)"/>
       <use xlink:href="#DejaVuSans-31" transform="translate(95.410156 0)"/>
       <use xlink:href="#DejaVuSans-37" transform="translate(159.033203 0)"/>
       <use xlink:href="#DejaVuSans-35" transform="translate(222.65625 0)"/>
      </g>
     </g>
    </g>
    <g id="text_9">
     <!-- Strain [-] -->
     <g transform="translate(232.46875 331.916562) scale(0.1 -0.1)">
      <defs>
       <path id="DejaVuSans-53" d="M 3425 4513 
L 3425 3897 
Q 3066 4069 2747 4153 
Q 2428 4238 2131 4238 
Q 1616 4238 1336 4038 
Q 1056 3838 1056 3469 
Q 1056 3159 1242 3001 
Q 1428 2844 1947 2747 
L 2328 2669 
Q 3034 2534 3370 2195 
Q 3706 1856 3706 1288 
Q 3706 609 3251 259 
Q 2797 -91 1919 -91 
Q 1588 -91 1214 -16 
Q 841 59 441 206 
L 441 856 
Q 825 641 1194 531 
Q 1563 422 1919 422 
Q 2459 422 2753 634 
Q 3047 847 3047 1241 
Q 3047 1584 2836 1778 
Q 2625 1972 2144 2069 
L 1759 2144 
Q 1053 2284 737 2584 
Q 422 2884 422 3419 
Q 422 4038 858 4394 
Q 1294 4750 2059 4750 
Q 2388 4750 2728 4690 
Q 3069 4631 3425 4513 
z
" transform="scale(0.015625)"/>
       <path id="DejaVuSans-74" d="M 1172 4494 
L 1172 3500 
L 2356 3500 
L 2356 3053 
L 1172 3053 
L 1172 1153 
Q 1172 725 1289 603 
Q 1406 481 1766 481 
L 2356 481 
L 2356 0 
L 1766 0 
Q 1100 0 847 248 
Q 594 497 594 1153 
L 594 3053 
L 172 3053 
L 172 3500 
L 594 3500 
L 594 4494 
L 1172 4494 
z
" transform="scale(0.015625)"/>
       <path id="DejaVuSans-72" d="M 2631 2963 
Q 2534 3019 2420 3045 
Q 2306 3072 2169 3072 
Q 1681 3072 1420 2755 
Q 1159 2438 1159 1844 
L 1159 0 
L 581 0 
L 581 3500 
L 1159 3500 
L 1159 2956 
Q 1341 3275 1631 3429 
Q 1922 3584 2338 3584 
Q 2397 3584 2469 3576 
Q 2541 3569 2628 3553 
L 2631 2963 
z
" transform="scale(0.015625)"/>
       <path id="DejaVuSans-61" d="M 2194 1759 
Q 1497 1759 1228 1600 
Q 959 1441 959 1056 
Q 959 750 1161 570 
Q 1363 391 1709 391 
Q 2188 391 2477 730 
Q 2766 1069 2766 1631 
L 2766 1759 
L 2194 1759 
z
M 3341 1997 
L 3341 0 
L 2766 0 
L 2766 531 
Q 2569 213 2275 61 
Q 1981 -91 1556 -91 
Q 1019 -91 701 211 
Q 384 513 384 1019 
Q 384 1609 779 1909 
Q 1175 2209 1959 2209 
L 2766 2209 
L 2766 2266 
Q 2766 2663 2505 2880 
Q 2244 3097 1772 3097 
Q 1472 3097 1187 3025 
Q 903 2953 641 2809 
L 641 3341 
Q 956 3463 1253 3523 
Q 1550 3584 1831 3584 
Q 2591 3584 2966 3190 
Q 3341 2797 3341 1997 
z
" transform="scale(0.015625)"/>
       <path id="DejaVuSans-69" d="M 603 3500 
L 1178 3500 
L 1178 0 
L 603 0 
L 603 3500 
z
M 603 4863 
L 1178 4863 
L 1178 4134 
L 603 4134 
L 603 4863 
z
" transform="scale(0.015625)"/>
       <path id="DejaVuSans-6e" d="M 3513 2113 
L 3513 0 
L 2938 0 
L 2938 2094 
Q 2938 2591 2744 2837 
Q 2550 3084 2163 3084 
Q 1697 3084 1428 2787 
Q 1159 2491 1159 1978 
L 1159 0 
L 581 0 
L 581 3500 
L 1159 3500 
L 1159 2956 
Q 1366 3272 1645 3428 
Q 1925 3584 2291 3584 
Q 2894 3584 3203 3211 
Q 3513 2838 3513 2113 
z
" transform="scale(0.015625)"/>
       <path id="DejaVuSans-20" transform="scale(0.015625)"/>
       <path id="DejaVuSans-5b" d="M 550 4863 
L 1875 4863 
L 1875 4416 
L 1125 4416 
L 1125 -397 
L 1875 -397 
L 1875 -844 
L 550 -844 
L 550 4863 
z
" transform="scale(0.015625)"/>
       <path id="DejaVuSans-2d" d="M 313 2009 
L 1997 2009 
L 1997 1497 
L 313 1497 
L 313 2009 
z
" transform="scale(0.015625)"/>
       <path id="DejaVuSans-5d" d="M 1947 4863 
L 1947 -844 
L 622 -844 
L 622 -397 
L 1369 -397 
L 1369 4416 
L 622 4416 
L 622 4863 
L 1947 4863 
z
" transform="scale(0.015625)"/>
      </defs>
      <use xlink:href="#DejaVuSans-53"/>
      <use xlink:href="#DejaVuSans-74" transform="translate(63.476562 0)"/>
      <use xlink:href="#DejaVuSans-72" transform="translate(102.685547 0)"/>
      <use xlink:href="#DejaVuSans-61" transform="translate(143.798828 0)"/>
      <use xlink:href="#DejaVuSans-69" transform="translate(205.078125 0)"/>
      <use xlink:href="#DejaVuSans-6e" transform="translate(232.861328 0)"/>
      <use xlink:href="#DejaVuSans-20" transform="translate(296.240234 0)"/>
      <use xlink:href="#DejaVuSans-5b" transform="translate(328.027344 0)"/>
      <use xlink:href="#DejaVuSans-2d" transform="translate(367.041016 0)"/>
      <use xlink:href="#DejaVuSans-5d" transform="translate(403.125 0)"/>
     </g>
    </g>
   </g>
   <g id="matplotlib.axis_2">
    <g id="ytick_1">
     <g id="line2d_17">
      <path d="M 59.15 298.206141 
L 450 298.206141 
" clip-path="url(#pf62c85a8ca)" style="fill: none; stroke: #b0b0b0; stroke-opacity: 0.3; stroke-width: 0.8; stroke-linecap: square"/>
     </g>
     <g id="line2d_18">
      <defs>
       <path id="mc0ec103fcd" d="M 0 0 
L -3.5 0 
" style="stroke: #000000; stroke-width: 0.8"/>
      </defs>
      <g>
       <use xlink:href="#mc0ec103fcd" x="59.15" y="298.206141" style="stroke: #000000; stroke-width: 0.8"/>
      </g>
     </g>
     <g id="text_10">
      <!-- −250 -->
      <g transform="translate(24.682813 302.00536) scale(0.1 -0.1)">
       <defs>
        <path id="DejaVuSans-2212" d="M 678 2272 
L 4684 2272 
L 4684 1741 
L 678 1741 
L 678 2272 
z
" transform="scale(0.015625)"/>
       </defs>
       <use xlink:href="#DejaVuSans-2212"/>
       <use xlink:href="#DejaVuSans-32" transform="translate(83.789062 0)"/>
       <use xlink:href="#DejaVuSans-35" transform="translate(147.412109 0)"/>
       <use xlink:href="#DejaVuSans-30" transform="translate(211.035156 0)"/>
      </g>
     </g>
    </g>
    <g id="ytick_2">
     <g id="line2d_19">
      <path d="M 59.15 263.647738 
L 450 263.647738 
" clip-path="url(#pf62c85a8ca)" style="fill: none; stroke: #b0b0b0; stroke-opacity: 0.3; stroke-width: 0.8; stroke-linecap: square"/>
     </g>
     <g id="line2d_20">
      <g>
       <use xlink:href="#mc0ec103fcd" x="59.15" y="263.647738" style="stroke: #000000; stroke-width: 0.8"/>
      </g>
     </g>
     <g id="text_11">
      <!-- 0 -->
      <g transform="translate(45.7875 267.446957) scale(0.1 -0.1)">
       <use xlink:href="#DejaVuSans-30"/>
      </g>
     </g>
    </g>
    <g id="ytick_3">
     <g id="line2d_21">
      <path d="M 59.15 229.089335 
L 450 229.089335 
" clip-path="url(#pf62c85a8ca)" style="fill: none; stroke: #b0b0b0; stroke-opacity: 0.3; stroke-width: 0.8; stroke-linecap: square"/>
     </g>
     <g id="line2d_22">
      <g>
       <use xlink:href="#mc0ec103fcd" x="59.15" y="229.089335" style="stroke: #000000; stroke-width: 0.8"/>
      </g>
     </g>
     <g id="text_12">
      <!-- 250 -->
      <g transform="translate(33.0625 232.888554) scale(0.1 -0.1)">
       <use xlink:href="#DejaVuSans-32"/>
       <use xlink:href="#DejaVuSans-35" transform="translate(63.623047 0)"/>
       <use xlink:href="#DejaVuSans-30" transform="translate(127.246094 0)"/>
      </g>
     </g>
    </g>
    <g id="ytick_4">
     <g id="line2d_23">
      <path d="M 59.15 194.530933 
L 450 194.530933 
" clip-path="url(#pf62c85a8ca)" style="fill: none; stroke: #b0b0b0; stroke-opacity: 0.3; stroke-width: 0.8; stroke-linecap: square"/>
     </g>
     <g id="line2d_24">
      <g>
       <use xlink:href="#mc0ec103fcd" x="59.15" y="194.530933" style="stroke: #000000; stroke-width: 0.8"/>
      </g>
     </g>
     <g id="text_13">
      <!-- 500 -->
      <g transform="translate(33.0625 198.330151) scale(0.1 -0.1)">
       <use xlink:href="#DejaVuSans-35"/>
       <use xlink:href="#DejaVuSans-30" transform="translate(63.623047 0)"/>
       <use xlink:href="#DejaVuSans-30" transform="translate(127.246094 0)"/>
      </g>
     </g>
    </g>
    <g id="ytick_5">
     <g id="line2d_25">
      <path d="M 59.15 159.97253 
L 450 159.97253 
" clip-path="url(#pf62c85a8ca)" style="fill: none; stroke: #b0b0b0; stroke-opacity: 0.3; stroke-width: 0.8; stroke-linecap: square"/>
     </g>
     <g id="line2d_26">
      <g>
       <use xlink:href="#mc0ec103fcd" x="59.15" y="159.97253" style="stroke: #000000; stroke-width: 0.8"/>
      </g>
     </g>
     <g id="text_14">
      <!-- 750 -->
      <g transform="translate(33.0625 163.771749) scale(0.1 -0.1)">
       <use xlink:href="#DejaVuSans-37"/>
       <use xlink:href="#DejaVuSans-35" transform="translate(63.623047 0)"/>
       <use xlink:href="#DejaVuSans-30" transform="translate(127.246094 0)"/>
      </g>
     </g>
    </g>
    <g id="ytick_6">
     <g id="line2d_27">
      <path d="M 59.15 125.414127 
L 450 125.414127 
" clip-path="url(#pf62c85a8ca)" style="fill: none; stroke: #b0b0b0; stroke-opacity: 0.3; stroke-width: 0.8; stroke-linecap: square"/>
     </g>
     <g id="line2d_28">
      <g>
       <use xlink:href="#mc0ec103fcd" x="59.15" y="125.414127" style="stroke: #000000; stroke-width: 0.8"/>
      </g>
     </g>
     <g id="text_15">
      <!-- 1000 -->
      <g transform="translate(26.7 129.213346) scale(0.1 -0.1)">
       <use xlink:href="#DejaVuSans-31"/>
       <use xlink:href="#DejaVuSans-30" transform="translate(63.623047 0)"/>
       <use xlink:href="#DejaVuSans-30" transform="translate(127.246094 0)"/>
       <use xlink:href="#DejaVuSans-30" transform="translate(190.869141 0)"/>
      </g>
     </g>
    </g>
    <g id="ytick_7">
     <g id="line2d_29">
      <path d="M 59.15 90.855725 
L 450 90.855725 
" clip-path="url(#pf62c85a8ca)" style="fill: none; stroke: #b0b0b0; stroke-opacity: 0.3; stroke-width: 0.8; stroke-linecap: square"/>
     </g>
     <g id="line2d_30">
      <g>
       <use xlink:href="#mc0ec103fcd" x="59.15" y="90.855725" style="stroke: #000000; stroke-width: 0.8"/>
      </g>
     </g>
     <g id="text_16">
      <!-- 1250 -->
      <g transform="translate(26.7 94.654943) scale(0.1 -0.1)">
       <use xlink:href="#DejaVuSans-31"/>
       <use xlink:href="#DejaVuSans-32" transform="translate(63.623047 0)"/>
       <use xlink:href="#DejaVuSans-35" transform="translate(127.246094 0)"/>
       <use xlink:href="#DejaVuSans-30" transform="translate(190.869141 0)"/>
      </g>
     </g>
    </g>
    <g id="ytick_8">
     <g id="line2d_31">
      <path d="M 59.15 56.297322 
L 450 56.297322 
" clip-path="url(#pf62c85a8ca)" style="fill: none; stroke: #b0b0b0; stroke-opacity: 0.3; stroke-width: 0.8; stroke-linecap: square"/>
     </g>
     <g id="line2d_32">
      <g>
       <use xlink:href="#mc0ec103fcd" x="59.15" y="56.297322" style="stroke: #000000; stroke-width: 0.8"/>
      </g>
     </g>
     <g id="text_17">
      <!-- 1500 -->
      <g transform="translate(26.7 60.096541) scale(0.1 -0.1)">
       <use xlink:href="#DejaVuSans-31"/>
       <use xlink:href="#DejaVuSans-35" transform="translate(63.623047 0)"/>
       <use xlink:href="#DejaVuSans-30" transform="translate(127.246094 0)"/>
       <use xlink:href="#DejaVuSans-30" transform="translate(190.869141 0)"/>
      </g>
     </g>
    </g>
    <g id="text_18">
     <!-- Stress [Pa] -->
     <g transform="translate(18.603125 191.967812) rotate(-90) scale(0.1 -0.1)">
      <defs>
       <path id="DejaVuSans-65" d="M 3597 1894 
L 3597 1613 
L 953 1613 
Q 991 1019 1311 708 
Q 1631 397 2203 397 
Q 2534 397 2845 478 
Q 3156 559 3463 722 
L 3463 178 
Q 3153 47 2828 -22 
Q 2503 -91 2169 -91 
Q 1331 -91 842 396 
Q 353 884 353 1716 
Q 353 2575 817 3079 
Q 1281 3584 2069 3584 
Q 2775 3584 3186 3129 
Q 3597 2675 3597 1894 
z
M 3022 2063 
Q 3016 2534 2758 2815 
Q 2500 3097 2075 3097 
Q 1594 3097 1305 2825 
Q 1016 2553 972 2059 
L 3022 2063 
z
" transform="scale(0.015625)"/>
       <path id="DejaVuSans-73" d="M 2834 3397 
L 2834 2853 
Q 2591 2978 2328 3040 
Q 2066 3103 1784 3103 
Q 1356 3103 1142 2972 
Q 928 2841 928 2578 
Q 928 2378 1081 2264 
Q 1234 2150 1697 2047 
L 1894 2003 
Q 2506 1872 2764 1633 
Q 3022 1394 3022 966 
Q 3022 478 2636 193 
Q 2250 -91 1575 -91 
Q 1294 -91 989 -36 
Q 684 19 347 128 
L 347 722 
Q 666 556 975 473 
Q 1284 391 1588 391 
Q 1994 391 2212 530 
Q 2431 669 2431 922 
Q 2431 1156 2273 1281 
Q 2116 1406 1581 1522 
L 1381 1569 
Q 847 1681 609 1914 
Q 372 2147 372 2553 
Q 372 3047 722 3315 
Q 1072 3584 1716 3584 
Q 2034 3584 2315 3537 
Q 2597 3491 2834 3397 
z
" transform="scale(0.015625)"/>
       <path id="DejaVuSans-50" d="M 1259 4147 
L 1259 2394 
L 2053 2394 
Q 2494 2394 2734 2622 
Q 2975 2850 2975 3272 
Q 2975 3691 2734 3919 
Q 2494 4147 2053 4147 
L 1259 4147 
z
M 628 4666 
L 2053 4666 
Q 2838 4666 3239 4311 
Q 3641 3956 3641 3272 
Q 3641 2581 3239 2228 
Q 2838 1875 2053 1875 
L 1259 1875 
L 1259 0 
L 628 0 
L 628 4666 
z
" transform="scale(0.015625)"/>
      </defs>
      <use xlink:href="#DejaVuSans-53"/>
      <use xlink:href="#DejaVuSans-74" transform="translate(63.476562 0)"/>
      <use xlink:href="#DejaVuSans-72" transform="translate(102.685547 0)"/>
      <use xlink:href="#DejaVuSans-65" transform="translate(141.548828 0)"/>
      <use xlink:href="#DejaVuSans-73" transform="translate(203.072266 0)"/>
      <use xlink:href="#DejaVuSans-73" transform="translate(255.171875 0)"/>
      <use xlink:href="#DejaVuSans-20" transform="translate(307.271484 0)"/>
      <use xlink:href="#DejaVuSans-5b" transform="translate(339.058594 0)"/>
      <use xlink:href="#DejaVuSans-50" transform="translate(378.072266 0)"/>
      <use xlink:href="#DejaVuSans-61" transform="translate(433.875 0)"/>
      <use xlink:href="#DejaVuSans-5d" transform="translate(495.154297 0)"/>
     </g>
    </g>
   </g>
   <g id="line2d_33">
    <path d="M 77.075809 264.119675 
L 77.075809 264.121218 
L 77.077054 263.887596 
L 77.585943 263.04325 
L 78.309498 258.645322 
L 79.032917 257.746328 
L 80.604342 254.564737 
L 81.3887 254.099067 
L 82.126474 254.146767 
L 83.807861 254.853722 
L 85.323493 255.355527 
L 86.962628 255.554995 
L 88.710101 255.626245 
L 89.619046 255.835621 
L 91.493273 256.61776 
L 93.650258 257.928513 
L 95.091139 258.418661 
L 95.806162 258.545278 
L 96.751942 258.419408 
L 97.689055 258.042909 
L 98.620752 257.889118 
L 99.543781 258.282228 
L 100.45381 258.869706 
L 101.343255 259.210362 
L 102.20995 259.151971 
L 103.054977 258.748954 
L 103.87617 258.104942 
L 105.46547 256.44858 
L 107.747043 253.94014 
L 109.230174 252.560032 
L 110.698138 251.490564 
L 113.605897 249.664602 
L 117.917702 247.466804 
L 119.343414 246.566353 
L 125.905374 243.102097 
L 128.557458 241.534322 
L 133.176939 238.77702 
L 136.039197 237.362526 
L 153.354706 227.951477 
L 154.803169 227.318831 
L 160.551519 224.028835 
L 162.691171 222.803173 
L 166.058278 220.890954 
L 168.696279 219.237506 
L 171.326697 217.663903 
L 175.714337 215.107672 
L 180.129061 212.725704 
L 183.659757 210.918975 
L 187.170953 208.919916 
L 189.786203 207.244321 
L 191.529342 206.114824 
L 209.993182 195.305338 
L 219.689334 189.102428 
L 224.671743 186.212827 
L 228.23819 184.242327 
L 229.837241 183.351784 
L 234.246854 180.439708 
L 237.763466 177.971483 
L 240.409051 176.226532 
L 242.178191 175.262555 
L 243.948414 174.240879 
L 252.81578 168.786888 
L 260.456775 163.55495 
L 262.60401 162.09383 
L 278.469934 152.216267 
L 280.625836 150.756313 
L 289.259195 144.757389 
L 303.637655 135.188135 
L 306.485829 133.232205 
L 308.256052 132.103874 
L 327.529828 118.497555 
L 330.151579 116.616225 
L 333.646524 113.877573 
L 338.925776 110.152214 
L 340.694916 109.054189 
L 348.854843 103.166 
L 351.510178 101.423964 
L 355.888068 98.043049 
L 362.866041 92.728351 
L 367.242847 89.526943 
L 372.522099 85.479287 
L 376.060379 82.826892 
L 383.886629 76.46604 
L 396.12327 67.396259 
L 412.887611 53.696316 
L 415.756369 51.601676 
L 418.934971 49.902768 
L 427.628998 45.81956 
L 429.177131 44.731734 
L 429.934405 43.904427 
L 430.648345 42.780758 
L 431.929529 39.631858 
L 432.234091 41.017193 
L 432.0725 61.273214 
L 432.074294 63.769123 
L 432.073245 63.629684 
L 432.073312 77.514598 
L 432.069622 77.483072 
L 431.358763 77.690499 
L 430.641642 79.403541 
L 429.92066 80.776364 
L 429.196158 80.483881 
L 428.480323 80.434287 
L 426.996379 80.861965 
L 426.268898 81.114106 
L 425.557125 81.127838 
L 424.083745 81.734987 
L 423.350575 83.442054 
L 422.598176 84.706182 
L 421.858507 85.281713 
L 421.1359 86.068223 
L 420.414106 87.323608 
L 419.671458 87.338725 
L 418.908225 87.105726 
L 418.175327 87.346229 
L 417.454616 87.71078 
L 416.730114 88.360911 
L 416.005611 88.491316 
L 415.28138 90.481778 
L 414.554982 91.807684 
L 413.841855 92.313787 
L 411.653621 92.902813 
L 410.189449 94.292392 
L 409.471041 95.217321 
L 403.624781 99.735892 
L 402.913008 100.093668 
L 402.202048 100.637727 
L 400.009717 102.708617 
L 397.840138 104.172068 
L 397.105479 104.791893 
L 396.380299 105.634353 
L 394.928045 106.687647 
L 392.721359 108.230616 
L 391.987242 109.250835 
L 391.263011 109.921292 
L 389.798568 110.587669 
L 388.334261 111.521413 
L 386.88959 113.47574 
L 386.163192 113.890851 
L 385.41973 114.149767 
L 383.952038 114.875518 
L 383.232275 115.67383 
L 382.50195 116.922222 
L 381.769051 117.328736 
L 380.336568 117.917398 
L 378.896907 118.803934 
L 378.167124 120.30993 
L 376.727057 120.963886 
L 374.553414 121.751416 
L 373.838798 123.140849 
L 373.112399 124.201938 
L 370.191639 125.281313 
L 369.472148 125.947471 
L 368.747104 127.441811 
L 368.005945 128.016613 
L 365.808062 128.751362 
L 365.078955 129.047961 
L 363.625211 131.046436 
L 360.669512 132.345424 
L 359.951781 133.156121 
L 359.21653 134.186503 
L 358.476318 134.575678 
L 357.015668 135.19787 
L 356.292249 135.527562 
L 355.568423 136.085645 
L 354.845411 137.311889 
L 354.109669 137.932333 
L 353.383541 138.031102 
L 351.933724 138.707824 
L 351.197034 139.080972 
L 349.767665 140.986416 
L 348.324077 141.353663 
L 347.608513 141.762508 
L 346.891052 142.017089 
L 345.440152 144.029334 
L 342.523996 145.195803 
L 341.797192 145.900209 
L 341.065072 147.185582 
L 340.323642 147.523998 
L 339.606723 147.670813 
L 337.439852 148.909151 
L 336.719277 150.228355 
L 335.978253 150.667871 
L 335.264585 150.745367 
L 334.548207 150.992481 
L 333.101911 151.757718 
L 332.365356 152.939669 
L 331.651688 153.623822 
L 330.171807 154.010374 
L 329.441888 154.334675 
L 328.716979 154.78592 
L 327.992883 155.842565 
L 327.26635 156.481914 
L 325.082822 157.392273 
L 324.363195 157.722729 
L 322.919624 159.306577 
L 321.475494 159.907533 
L 320.046803 160.589282 
L 319.331374 161.323193 
L 318.587506 162.280614 
L 317.870316 162.769742 
L 316.443521 163.302472 
L 315.714956 163.582879 
L 314.996683 164.047456 
L 314.271639 164.96 
L 313.543751 165.617708 
L 310.626918 166.879541 
L 309.902687 167.551236 
L 309.182247 168.501517 
L 308.437025 168.909561 
L 306.977458 169.242786 
L 305.533972 170.079045 
L 304.103926 171.671298 
L 302.670089 172.482213 
L 300.519874 173.518897 
L 299.066671 174.639798 
L 296.152141 176.40165 
L 293.26659 178.228487 
L 290.333642 180.219386 
L 288.845636 180.906015 
L 287.394177 181.960338 
L 285.950319 183.080073 
L 283.790354 184.265958 
L 281.618336 185.872199 
L 278.700014 187.438521 
L 277.245186 188.761804 
L 275.794556 189.372595 
L 275.048387 189.619236 
L 274.331468 190.00608 
L 273.61482 190.566603 
L 272.881786 191.424799 
L 272.159315 192.009801 
L 271.433459 192.306527 
L 270.691893 192.447582 
L 269.963904 192.742778 
L 269.231412 193.211289 
L 267.776178 194.553951 
L 266.31634 195.180078 
L 264.864356 195.724501 
L 263.418737 196.939963 
L 260.493914 198.370339 
L 259.008346 199.686774 
L 258.267051 200.167525 
L 256.066731 200.851764 
L 255.328957 201.381179 
L 254.601476 202.086532 
L 253.121866 203.096115 
L 251.654833 203.739758 
L 250.925456 204.099064 
L 249.478347 205.374119 
L 248.765491 205.751347 
L 248.022571 205.901167 
L 246.567337 206.532502 
L 245.844866 206.940692 
L 244.391257 208.216913 
L 241.500019 209.381343 
L 240.065098 210.527013 
L 238.607833 211.538563 
L 237.119285 212.11708 
L 236.393429 212.473326 
L 234.194852 214.25311 
L 231.286009 215.451233 
L 229.806399 216.45171 
L 229.087043 216.895232 
L 226.911911 217.850978 
L 224.709018 219.370451 
L 222.553386 220.47649 
L 221.090975 221.217031 
L 218.179957 222.959213 
L 216.731832 223.665317 
L 215.258994 224.659455 
L 213.088737 225.543478 
L 212.378589 225.736827 
L 210.932428 226.780942 
L 210.206166 227.330683 
L 208.751202 228.035635 
L 208.011262 228.239748 
L 206.544924 229.07791 
L 205.084408 230.127999 
L 202.856733 231.100718 
L 201.377123 231.994466 
L 200.633662 232.478276 
L 197.747832 233.724048 
L 196.283931 234.751843 
L 193.414631 236.205532 
L 191.956147 236.983955 
L 190.50308 237.904732 
L 189.787515 238.131538 
L 186.82667 239.623328 
L 184.66183 241.019536 
L 181.796864 242.398916 
L 174.55818 246.202769 
L 173.83124 246.753458 
L 169.465674 248.996679 
L 168.721129 249.473496 
L 167.245582 249.974134 
L 166.515933 250.182309 
L 165.773826 250.573233 
L 164.328614 251.62558 
L 162.88853 252.136756 
L 161.422191 252.715273 
L 158.52188 254.56178 
L 157.066917 255.020383 
L 155.608974 255.690039 
L 154.866055 256.047159 
L 153.405945 256.948484 
L 152.686047 257.192975 
L 150.516874 258.25472 
L 149.787497 258.558585 
L 148.344315 259.545293 
L 146.881222 260.214657 
L 145.441536 260.76036 
L 144.712159 261.103784 
L 143.993209 261.652141 
L 142.548267 262.197766 
L 141.822952 262.350646 
L 140.366093 263.007771 
L 139.642809 263.607634 
L 138.202743 264.392177 
L 136.020298 265.122445 
L 134.55247 266.100775 
L 131.635231 267.333066 
L 129.438431 268.518077 
L 126.560016 269.807586 
L 124.375675 271.117391 
L 122.182938 271.762842 
L 120.74233 272.464844 
L 120.022432 273.008756 
L 118.581281 273.583704 
L 117.126589 274.006172 
L 116.388816 274.402924 
L 114.922071 275.461755 
L 111.299559 276.8211 
L 109.096459 278.009164 
L 105.433321 279.389035 
L 104.695005 279.797006 
L 103.950732 280.033738 
L 102.520144 280.701791 
L 101.076827 281.279908 
L 100.354763 281.700264 
L 95.994071 283.55085 
L 93.794292 284.636126 
L 92.35607 285.077589 
L 89.420955 286.588721 
L 87.242302 287.21077 
L 84.329126 288.676807 
L 82.15616 289.414342 
L 81.422314 289.920372 
L 79.995518 290.267475 
L 79.279141 290.353891 
L 78.552608 290.246669 
L 77.842189 290.419274 
L 77.099869 291.06 
L 76.916375 290.149983 
L 76.916375 290.149983 
" clip-path="url(#pf62c85a8ca)" style="fill: none; stroke: #ff0000; stroke-width: 2; stroke-linecap: square"/>
   </g>
   <g id="line2d_34">
    <path d="M 77.075809 264.119675 
L 77.075809 264.121218 
L 77.077054 263.887596 
L 77.585943 263.04325 
L 78.309498 258.645322 
L 79.032917 257.746328 
L 80.604342 254.564737 
L 81.3887 254.099067 
L 82.126474 262.522987 
L 83.807861 262.576606 
L 84.549968 262.311716 
L 88.710101 259.824841 
L 90.548576 258.698403 
L 93.650258 257.928513 
L 95.091139 258.418661 
L 95.806162 258.545278 
L 96.751942 258.419408 
L 97.689055 258.042909 
L 98.620752 257.889118 
L 99.543781 258.282228 
L 100.45381 258.869706 
L 101.343255 259.210362 
L 102.20995 259.151971 
L 103.054977 258.748954 
L 103.87617 258.104942 
L 105.46547 256.44858 
L 107.747043 253.94014 
L 109.230174 252.560032 
L 110.698138 251.490564 
L 113.605897 249.664602 
L 117.917702 247.466804 
L 119.343414 246.566353 
L 125.905374 243.102097 
L 128.557458 241.534322 
L 133.176939 238.77702 
L 136.039197 237.362526 
L 153.354706 227.951477 
L 154.803169 227.318831 
L 160.551519 224.028835 
L 162.691171 222.803173 
L 166.058278 220.890954 
L 168.696279 219.237506 
L 171.326697 217.663903 
L 175.714337 215.107672 
L 180.129061 212.725704 
L 183.659757 210.918975 
L 187.170953 208.919916 
L 189.786203 207.244321 
L 191.529342 206.114824 
L 209.993182 195.305338 
L 219.689334 189.102428 
L 224.671743 186.212827 
L 228.23819 184.242327 
L 229.837241 183.351784 
L 234.246854 180.439708 
L 237.763466 177.971483 
L 240.409051 176.226532 
L 242.178191 175.262555 
L 243.948414 174.240879 
L 252.81578 168.786888 
L 260.456775 163.55495 
L 262.60401 162.09383 
L 278.469934 152.216267 
L 280.625836 150.756313 
L 289.259195 144.757389 
L 303.637655 135.188135 
L 306.485829 133.232205 
L 308.256052 132.103874 
L 327.529828 118.497555 
L 330.151579 116.616225 
L 333.646524 113.877573 
L 338.925776 110.152214 
L 340.694916 109.054189 
L 348.854843 103.166 
L 351.510178 101.423964 
L 355.888068 98.043049 
L 362.866041 92.728351 
L 367.242847 89.526943 
L 372.522099 85.479287 
L 376.060379 82.826892 
L 383.886629 76.46604 
L 396.12327 67.396259 
L 413.605884 52.931533 
L 415.756369 50.994544 
L 418.062859 49.277787 
L 423.802543 44.544157 
L 425.354467 43.268081 
L 427.628998 41.774225 
L 429.177131 41.034158 
L 429.934405 40.800303 
L 430.648345 40.984473 
L 431.361066 40.937775 
L 431.929529 39.46 
L 432.234091 40.93457 
L 432.075682 60.7821 
L 432.073312 77.514598 
L 432.069622 77.483072 
L 431.358763 77.690499 
L 430.641642 79.403541 
L 429.92066 80.776364 
L 429.196158 80.483881 
L 428.480323 80.434287 
L 426.996379 80.861965 
L 426.268898 81.114106 
L 425.557125 81.127838 
L 424.083745 81.734987 
L 423.350575 83.442054 
L 422.598176 84.706182 
L 421.858507 85.281713 
L 421.1359 86.068223 
L 420.414106 87.323608 
L 419.671458 87.338725 
L 418.908225 87.105726 
L 418.175327 87.346229 
L 417.454616 87.71078 
L 416.730114 88.360911 
L 416.005611 88.491316 
L 415.28138 90.481778 
L 414.554982 91.807684 
L 413.841855 92.313787 
L 411.653621 92.902813 
L 410.189449 94.292392 
L 409.471041 95.217321 
L 403.624781 99.735892 
L 402.913008 100.093668 
L 402.202048 100.637727 
L 400.009717 102.708617 
L 397.840138 104.172068 
L 397.105479 104.791893 
L 396.380299 105.634353 
L 394.928045 106.687647 
L 392.721359 108.230616 
L 391.987242 109.250835 
L 391.263011 109.921292 
L 389.798568 110.587669 
L 388.334261 111.521413 
L 386.88959 113.47574 
L 386.163192 113.890851 
L 385.41973 114.149767 
L 383.952038 114.875518 
L 383.232275 115.67383 
L 382.50195 116.922222 
L 381.769051 117.328736 
L 380.336568 117.917398 
L 378.896907 118.803934 
L 378.167124 120.30993 
L 376.727057 120.963886 
L 374.553414 121.751416 
L 373.838798 123.140849 
L 373.112399 124.201938 
L 370.191639 125.281313 
L 369.472148 125.947471 
L 368.747104 127.441811 
L 368.005945 128.016613 
L 365.808062 128.751362 
L 365.078955 129.047961 
L 363.625211 131.046436 
L 360.669512 132.345424 
L 359.951781 133.156121 
L 359.21653 134.186503 
L 358.476318 134.575678 
L 357.015668 135.19787 
L 356.292249 135.527562 
L 355.568423 136.085645 
L 354.845411 137.311889 
L 354.109669 137.932333 
L 353.383541 138.031102 
L 351.933724 138.707824 
L 351.197034 139.080972 
L 349.767665 140.986416 
L 348.324077 141.353663 
L 347.608513 141.762508 
L 346.891052 142.017089 
L 345.440152 144.029334 
L 342.523996 145.195803 
L 341.797192 145.900209 
L 341.065072 147.185582 
L 340.323642 147.523998 
L 339.606723 147.670813 
L 337.439852 148.909151 
L 336.719277 150.228355 
L 335.978253 150.667871 
L 335.264585 150.745367 
L 334.548207 150.992481 
L 333.101911 151.757718 
L 332.365356 152.939669 
L 331.651688 153.623822 
L 330.171807 154.010374 
L 329.441888 154.334675 
L 328.716979 154.78592 
L 327.992883 155.842565 
L 327.26635 156.481914 
L 325.082822 157.392273 
L 324.363195 157.722729 
L 322.919624 159.306577 
L 321.475494 159.907533 
L 320.046803 160.589282 
L 319.331374 161.323193 
L 318.587506 162.280614 
L 317.870316 162.769742 
L 316.443521 163.302472 
L 315.714956 163.582879 
L 314.996683 164.047456 
L 314.271639 164.96 
L 313.543751 165.617708 
L 310.626918 166.879541 
L 309.902687 167.551236 
L 309.182247 168.501517 
L 308.437025 168.909561 
L 306.977458 169.242786 
L 305.533972 170.079045 
L 304.103926 171.671298 
L 302.670089 172.482213 
L 300.519874 173.518897 
L 299.066671 174.639798 
L 296.152141 176.40165 
L 293.26659 178.228487 
L 290.333642 180.219386 
L 288.845636 180.906015 
L 287.394177 181.960338 
L 285.950319 183.080073 
L 283.790354 184.265958 
L 281.618336 185.872199 
L 278.700014 187.438521 
L 277.245186 188.761804 
L 275.794556 189.372595 
L 275.048387 189.619236 
L 274.331468 190.00608 
L 273.61482 190.566603 
L 272.881786 191.424799 
L 272.159315 192.009801 
L 271.433459 192.306527 
L 270.691893 192.447582 
L 269.963904 192.742778 
L 269.231412 193.211289 
L 267.776178 194.553951 
L 266.31634 195.180078 
L 264.864356 195.724501 
L 263.418737 196.939963 
L 260.493914 198.370339 
L 259.008346 199.686774 
L 258.267051 200.167525 
L 256.066731 200.851764 
L 255.328957 201.381179 
L 254.601476 202.086532 
L 253.121866 203.096115 
L 251.654833 203.739758 
L 250.925456 204.099064 
L 249.478347 205.374119 
L 248.765491 205.751347 
L 248.022571 205.901167 
L 246.567337 206.532502 
L 245.844866 206.940692 
L 244.391257 208.216913 
L 241.500019 209.381343 
L 240.065098 210.527013 
L 238.607833 211.538563 
L 237.119285 212.11708 
L 236.393429 212.473326 
L 234.194852 214.25311 
L 231.286009 215.451233 
L 229.806399 216.45171 
L 229.087043 216.895232 
L 226.911911 217.850978 
L 224.709018 219.370451 
L 222.553386 220.47649 
L 221.090975 221.217031 
L 218.179957 222.959213 
L 216.731832 223.665317 
L 215.258994 224.659455 
L 213.088737 225.543478 
L 212.378589 225.736827 
L 210.932428 226.780942 
L 210.206166 227.330683 
L 208.751202 228.035635 
L 208.011262 228.239748 
L 206.544924 229.07791 
L 205.084408 230.127999 
L 202.856733 231.100718 
L 201.377123 231.994466 
L 200.633662 232.478276 
L 197.747832 233.724048 
L 196.283931 234.751843 
L 193.414631 236.205532 
L 191.956147 236.983955 
L 190.50308 237.904732 
L 189.787515 238.131538 
L 186.82667 239.623328 
L 184.66183 241.019536 
L 181.796864 242.398916 
L 174.55818 246.202769 
L 173.83124 246.753458 
L 169.465674 248.996679 
L 168.721129 249.473496 
L 167.245582 249.974134 
L 166.515933 250.182309 
L 165.773826 250.573233 
L 164.328614 251.62558 
L 162.88853 252.136756 
L 161.422191 252.715273 
L 158.52188 254.56178 
L 157.066917 255.020383 
L 155.608974 255.690039 
L 154.866055 256.047159 
L 153.405945 256.948484 
L 152.686047 257.192975 
L 150.516874 258.25472 
L 149.787497 258.558585 
L 148.344315 259.545293 
L 146.881222 260.214657 
L 145.441536 260.76036 
L 144.712159 261.103784 
L 143.993209 261.652141 
L 142.548267 262.197766 
L 141.822952 262.350646 
L 140.366093 263.007771 
L 139.642809 263.607634 
L 138.202743 264.392177 
L 136.020298 265.122445 
L 134.55247 266.100775 
L 131.635231 267.333066 
L 129.438431 268.518077 
L 126.560016 269.807586 
L 124.375675 271.117391 
L 122.182938 271.762842 
L 120.74233 272.464844 
L 120.022432 273.008756 
L 118.581281 273.583704 
L 117.126589 274.006172 
L 116.388816 274.402924 
L 114.922071 275.461755 
L 111.299559 276.8211 
L 109.096459 278.009164 
L 105.433321 279.389035 
L 104.695005 279.797006 
L 103.950732 280.033738 
L 102.520144 280.701791 
L 101.076827 281.279908 
L 100.354763 281.700264 
L 95.994071 283.55085 
L 93.794292 284.636126 
L 92.35607 285.077589 
L 89.420955 286.588721 
L 87.242302 287.21077 
L 84.329126 288.676807 
L 82.15616 289.414342 
L 81.422314 289.920372 
L 79.995518 290.267475 
L 79.279141 290.353891 
L 78.552608 290.246669 
L 77.842189 290.419274 
L 77.099869 291.06 
L 76.916375 290.149983 
L 76.916375 290.149983 
" clip-path="url(#pf62c85a8ca)" style="fill: none; stroke: #000000; stroke-width: 2; stroke-linecap: square"/>
   </g>
   <g id="patch_3">
    <path d="M 59.15 303.64 
L 59.15 26.88 
" style="fill: none; stroke: #000000; stroke-width: 0.8; stroke-linejoin: miter; stroke-linecap: square"/>
   </g>
   <g id="patch_4">
    <path d="M 450 303.64 
L 450 26.88 
" style="fill: none; stroke: #000000; stroke-width: 0.8; stroke-linejoin: miter; stroke-linecap: square"/>
   </g>
   <g id="patch_5">
    <path d="M 59.15 303.64 
L 450 303.64 
" style="fill: none; stroke: #000000; stroke-width: 0.8; stroke-linejoin: miter; stroke-linecap: square"/>
   </g>
   <g id="patch_6">
    <path d="M 59.15 26.88 
L 450 26.88 
" style="fill: none; stroke: #000000; stroke-width: 0.8; stroke-linejoin: miter; stroke-linecap: square"/>
   </g>
   <g id="text_19">
    <!-- 2025-06-19 Trial 14 - Stress vs Strain -->
    <g transform="translate(143.320938 20.88) scale(0.12 -0.12)">
     <defs>
      <path id="DejaVuSans-36" d="M 2113 2584 
Q 1688 2584 1439 2293 
Q 1191 2003 1191 1497 
Q 1191 994 1439 701 
Q 1688 409 2113 409 
Q 2538 409 2786 701 
Q 3034 994 3034 1497 
Q 3034 2003 2786 2293 
Q 2538 2584 2113 2584 
z
M 3366 4563 
L 3366 3988 
Q 3128 4100 2886 4159 
Q 2644 4219 2406 4219 
Q 1781 4219 1451 3797 
Q 1122 3375 1075 2522 
Q 1259 2794 1537 2939 
Q 1816 3084 2150 3084 
Q 2853 3084 3261 2657 
Q 3669 2231 3669 1497 
Q 3669 778 3244 343 
Q 2819 -91 2113 -91 
Q 1303 -91 875 529 
Q 447 1150 447 2328 
Q 447 3434 972 4092 
Q 1497 4750 2381 4750 
Q 2619 4750 2861 4703 
Q 3103 4656 3366 4563 
z
" transform="scale(0.015625)"/>
      <path id="DejaVuSans-39" d="M 703 97 
L 703 672 
Q 941 559 1184 500 
Q 1428 441 1663 441 
Q 2288 441 2617 861 
Q 2947 1281 2994 2138 
Q 2813 1869 2534 1725 
Q 2256 1581 1919 1581 
Q 1219 1581 811 2004 
Q 403 2428 403 3163 
Q 403 3881 828 4315 
Q 1253 4750 1959 4750 
Q 2769 4750 3195 4129 
Q 3622 3509 3622 2328 
Q 3622 1225 3098 567 
Q 2575 -91 1691 -91 
Q 1453 -91 1209 -44 
Q 966 3 703 97 
z
M 1959 2075 
Q 2384 2075 2632 2365 
Q 2881 2656 2881 3163 
Q 2881 3666 2632 3958 
Q 2384 4250 1959 4250 
Q 1534 4250 1286 3958 
Q 1038 3666 1038 3163 
Q 1038 2656 1286 2365 
Q 1534 2075 1959 2075 
z
" transform="scale(0.015625)"/>
      <path id="DejaVuSans-54" d="M -19 4666 
L 3928 4666 
L 3928 4134 
L 2272 4134 
L 2272 0 
L 1638 0 
L 1638 4134 
L -19 4134 
L -19 4666 
z
" transform="scale(0.015625)"/>
      <path id="DejaVuSans-6c" d="M 603 4863 
L 1178 4863 
L 1178 0 
L 603 0 
L 603 4863 
z
" transform="scale(0.015625)"/>
      <path id="DejaVuSans-34" d="M 2419 4116 
L 825 1625 
L 2419 1625 
L 2419 4116 
z
M 2253 4666 
L 3047 4666 
L 3047 1625 
L 3713 1625 
L 3713 1100 
L 3047 1100 
L 3047 0 
L 2419 0 
L 2419 1100 
L 313 1100 
L 313 1709 
L 2253 4666 
z
" transform="scale(0.015625)"/>
      <path id="DejaVuSans-76" d="M 191 3500 
L 800 3500 
L 1894 563 
L 2988 3500 
L 3597 3500 
L 2284 0 
L 1503 0 
L 191 3500 
z
" transform="scale(0.015625)"/>
     </defs>
     <use xlink:href="#DejaVuSans-32"/>
     <use xlink:href="#DejaVuSans-30" transform="translate(63.623047 0)"/>
     <use xlink:href="#DejaVuSans-32" transform="translate(127.246094 0)"/>
     <use xlink:href="#DejaVuSans-35" transform="translate(190.869141 0)"/>
     <use xlink:href="#DejaVuSans-2d" transform="translate(254.492188 0)"/>
     <use xlink:href="#DejaVuSans-30" transform="translate(290.576172 0)"/>
     <use xlink:href="#DejaVuSans-36" transform="translate(354.199219 0)"/>
     <use xlink:href="#DejaVuSans-2d" transform="translate(417.822266 0)"/>
     <use xlink:href="#DejaVuSans-31" transform="translate(453.90625 0)"/>
     <use xlink:href="#DejaVuSans-39" transform="translate(517.529297 0)"/>
     <use xlink:href="#DejaVuSans-20" transform="translate(581.152344 0)"/>
     <use xlink:href="#DejaVuSans-54" transform="translate(612.939453 0)"/>
     <use xlink:href="#DejaVuSans-72" transform="translate(659.273438 0)"/>
     <use xlink:href="#DejaVuSans-69" transform="translate(700.386719 0)"/>
     <use xlink:href="#DejaVuSans-61" transform="translate(728.169922 0)"/>
     <use xlink:href="#DejaVuSans-6c" transform="translate(789.449219 0)"/>
     <use xlink:href="#DejaVuSans-20" transform="translate(817.232422 0)"/>
     <use xlink:href="#DejaVuSans-31" transform="translate(849.019531 0)"/>
     <use xlink:href="#DejaVuSans-34" transform="translate(912.642578 0)"/>
     <use xlink:href="#DejaVuSans-20" transform="translate(976.265625 0)"/>
     <use xlink:href="#DejaVuSans-2d" transform="translate(1008.052734 0)"/>
     <use xlink:href="#DejaVuSans-20" transform="translate(1044.136719 0)"/>
     <use xlink:href="#DejaVuSans-53" transform="translate(1075.923828 0)"/>
     <use xlink:href="#DejaVuSans-74" transform="translate(1139.400391 0)"/>
     <use xlink:href="#DejaVuSans-72" transform="translate(1178.609375 0)"/>
     <use xlink:href="#DejaVuSans-65" transform="translate(1217.472656 0)"/>
     <use xlink:href="#DejaVuSans-73" transform="translate(1278.996094 0)"/>
     <use xlink:href="#DejaVuSans-73" transform="translate(1331.095703 0)"/>
     <use xlink:href="#DejaVuSans-20" transform="translate(1383.195312 0)"/>
     <use xlink:href="#DejaVuSans-76" transform="translate(1414.982422 0)"/>
     <use xlink:href="#DejaVuSans-73" transform="translate(1474.162109 0)"/>
     <use xlink:href="#DejaVuSans-20" transform="translate(1526.261719 0)"/>
     <use xlink:href="#DejaVuSans-53" transform="translate(1558.048828 0)"/>
     <use xlink:href="#DejaVuSans-74" transform="translate(1621.525391 0)"/>
     <use xlink:href="#DejaVuSans-72" transform="translate(1660.734375 0)"/>
     <use xlink:href="#DejaVuSans-61" transform="translate(1701.847656 0)"/>
     <use xlink:href="#DejaVuSans-69" transform="translate(1763.126953 0)"/>
     <use xlink:href="#DejaVuSans-6e" transform="translate(1790.910156 0)"/>
    </g>
   </g>
   <g id="legend_1">
    <g id="patch_7">
     <path d="M 66.15 64.23625 
L 172.134375 64.23625 
Q 174.134375 64.23625 174.134375 62.23625 
L 174.134375 33.88 
Q 174.134375 31.88 172.134375 31.88 
L 66.15 31.88 
Q 64.15 31.88 64.15 33.88 
L 64.15 62.23625 
Q 64.15 64.23625 66.15 64.23625 
z
" style="fill: #ffffff; opacity: 0.8; stroke: #cccccc; stroke-linejoin: miter"/>
    </g>
    <g id="line2d_35">
     <path d="M 68.15 39.978437 
L 78.15 39.978437 
L 88.15 39.978437 
" style="fill: none; stroke: #ff0000; stroke-width: 2; stroke-linecap: square"/>
    </g>
    <g id="text_20">
     <!-- Raw Force -->
     <g transform="translate(96.15 43.478437) scale(0.1 -0.1)">
      <defs>
       <path id="DejaVuSans-52" d="M 2841 2188 
Q 3044 2119 3236 1894 
Q 3428 1669 3622 1275 
L 4263 0 
L 3584 0 
L 2988 1197 
Q 2756 1666 2539 1819 
Q 2322 1972 1947 1972 
L 1259 1972 
L 1259 0 
L 628 0 
L 628 4666 
L 2053 4666 
Q 2853 4666 3247 4331 
Q 3641 3997 3641 3322 
Q 3641 2881 3436 2590 
Q 3231 2300 2841 2188 
z
M 1259 4147 
L 1259 2491 
L 2053 2491 
Q 2509 2491 2742 2702 
Q 2975 2913 2975 3322 
Q 2975 3731 2742 3939 
Q 2509 4147 2053 4147 
L 1259 4147 
z
" transform="scale(0.015625)"/>
       <path id="DejaVuSans-77" d="M 269 3500 
L 844 3500 
L 1563 769 
L 2278 3500 
L 2956 3500 
L 3675 769 
L 4391 3500 
L 4966 3500 
L 4050 0 
L 3372 0 
L 2619 2869 
L 1863 0 
L 1184 0 
L 269 3500 
z
" transform="scale(0.015625)"/>
       <path id="DejaVuSans-46" d="M 628 4666 
L 3309 4666 
L 3309 4134 
L 1259 4134 
L 1259 2759 
L 3109 2759 
L 3109 2228 
L 1259 2228 
L 1259 0 
L 628 0 
L 628 4666 
z
" transform="scale(0.015625)"/>
       <path id="DejaVuSans-6f" d="M 1959 3097 
Q 1497 3097 1228 2736 
Q 959 2375 959 1747 
Q 959 1119 1226 758 
Q 1494 397 1959 397 
Q 2419 397 2687 759 
Q 2956 1122 2956 1747 
Q 2956 2369 2687 2733 
Q 2419 3097 1959 3097 
z
M 1959 3584 
Q 2709 3584 3137 3096 
Q 3566 2609 3566 1747 
Q 3566 888 3137 398 
Q 2709 -91 1959 -91 
Q 1206 -91 779 398 
Q 353 888 353 1747 
Q 353 2609 779 3096 
Q 1206 3584 1959 3584 
z
" transform="scale(0.015625)"/>
       <path id="DejaVuSans-63" d="M 3122 3366 
L 3122 2828 
Q 2878 2963 2633 3030 
Q 2388 3097 2138 3097 
Q 1578 3097 1268 2742 
Q 959 2388 959 1747 
Q 959 1106 1268 751 
Q 1578 397 2138 397 
Q 2388 397 2633 464 
Q 2878 531 3122 666 
L 3122 134 
Q 2881 22 2623 -34 
Q 2366 -91 2075 -91 
Q 1284 -91 818 406 
Q 353 903 353 1747 
Q 353 2603 823 3093 
Q 1294 3584 2113 3584 
Q 2378 3584 2631 3529 
Q 2884 3475 3122 3366 
z
" transform="scale(0.015625)"/>
      </defs>
      <use xlink:href="#DejaVuSans-52"/>
      <use xlink:href="#DejaVuSans-61" transform="translate(67.232422 0)"/>
      <use xlink:href="#DejaVuSans-77" transform="translate(128.511719 0)"/>
      <use xlink:href="#DejaVuSans-20" transform="translate(210.298828 0)"/>
      <use xlink:href="#DejaVuSans-46" transform="translate(242.085938 0)"/>
      <use xlink:href="#DejaVuSans-6f" transform="translate(295.980469 0)"/>
      <use xlink:href="#DejaVuSans-72" transform="translate(357.162109 0)"/>
      <use xlink:href="#DejaVuSans-63" transform="translate(396.025391 0)"/>
      <use xlink:href="#DejaVuSans-65" transform="translate(451.005859 0)"/>
     </g>
    </g>
    <g id="line2d_36">
     <path d="M 68.15 54.656563 
L 78.15 54.656563 
L 88.15 54.656563 
" style="fill: none; stroke: #000000; stroke-width: 2; stroke-linecap: square"/>
    </g>
    <g id="text_21">
     <!-- Adjusted Force -->
     <g transform="translate(96.15 58.156563) scale(0.1 -0.1)">
      <defs>
       <path id="DejaVuSans-41" d="M 2188 4044 
L 1331 1722 
L 3047 1722 
L 2188 4044 
z
M 1831 4666 
L 2547 4666 
L 4325 0 
L 3669 0 
L 3244 1197 
L 1141 1197 
L 716 0 
L 50 0 
L 1831 4666 
z
" transform="scale(0.015625)"/>
       <path id="DejaVuSans-64" d="M 2906 2969 
L 2906 4863 
L 3481 4863 
L 3481 0 
L 2906 0 
L 2906 525 
Q 2725 213 2448 61 
Q 2172 -91 1784 -91 
Q 1150 -91 751 415 
Q 353 922 353 1747 
Q 353 2572 751 3078 
Q 1150 3584 1784 3584 
Q 2172 3584 2448 3432 
Q 2725 3281 2906 2969 
z
M 947 1747 
Q 947 1113 1208 752 
Q 1469 391 1925 391 
Q 2381 391 2643 752 
Q 2906 1113 2906 1747 
Q 2906 2381 2643 2742 
Q 2381 3103 1925 3103 
Q 1469 3103 1208 2742 
Q 947 2381 947 1747 
z
" transform="scale(0.015625)"/>
       <path id="DejaVuSans-6a" d="M 603 3500 
L 1178 3500 
L 1178 -63 
Q 1178 -731 923 -1031 
Q 669 -1331 103 -1331 
L -116 -1331 
L -116 -844 
L 38 -844 
Q 366 -844 484 -692 
Q 603 -541 603 -63 
L 603 3500 
z
M 603 4863 
L 1178 4863 
L 1178 4134 
L 603 4134 
L 603 4863 
z
" transform="scale(0.015625)"/>
       <path id="DejaVuSans-75" d="M 544 1381 
L 544 3500 
L 1119 3500 
L 1119 1403 
Q 1119 906 1312 657 
Q 1506 409 1894 409 
Q 2359 409 2629 706 
Q 2900 1003 2900 1516 
L 2900 3500 
L 3475 3500 
L 3475 0 
L 2900 0 
L 2900 538 
Q 2691 219 2414 64 
Q 2138 -91 1772 -91 
Q 1169 -91 856 284 
Q 544 659 544 1381 
z
M 1991 3584 
L 1991 3584 
z
" transform="scale(0.015625)"/>
      </defs>
      <use xlink:href="#DejaVuSans-41"/>
      <use xlink:href="#DejaVuSans-64" transform="translate(66.658203 0)"/>
      <use xlink:href="#DejaVuSans-6a" transform="translate(130.134766 0)"/>
      <use xlink:href="#DejaVuSans-75" transform="translate(157.917969 0)"/>
      <use xlink:href="#DejaVuSans-73" transform="translate(221.296875 0)"/>
      <use xlink:href="#DejaVuSans-74" transform="translate(273.396484 0)"/>
      <use xlink:href="#DejaVuSans-65" transform="translate(312.605469 0)"/>
      <use xlink:href="#DejaVuSans-64" transform="translate(374.128906 0)"/>
      <use xlink:href="#DejaVuSans-20" transform="translate(437.605469 0)"/>
      <use xlink:href="#DejaVuSans-46" transform="translate(469.392578 0)"/>
      <use xlink:href="#DejaVuSans-6f" transform="translate(523.287109 0)"/>
      <use xlink:href="#DejaVuSans-72" transform="translate(584.46875 0)"/>
      <use xlink:href="#DejaVuSans-63" transform="translate(623.332031 0)"/>
      <use xlink:href="#DejaVuSans-65" transform="translate(678.3125 0)"/>
     </g>
    </g>
   </g>
  </g>
 </g>
 <defs>
  <clipPath id="pf62c85a8ca">
   <rect x="59.15" y="26.88" width="390.85" height="276.76"/>
  </clipPath>
 </defs>
</svg>
