<?xml version="1.0" encoding="utf-8" standalone="no"?>
<!DOCTYPE svg PUBLIC "-//W3C//DTD SVG 1.1//EN"
  "http://www.w3.org/Graphics/SVG/1.1/DTD/svg11.dtd">
<svg xmlns:xlink="http://www.w3.org/1999/xlink" width="460.8pt" height="345.6pt" viewBox="0 0 460.8 345.6" xmlns="http://www.w3.org/2000/svg" version="1.1">
 <metadata>
  <rdf:RDF xmlns:dc="http://purl.org/dc/elements/1.1/" xmlns:cc="http://creativecommons.org/ns#" xmlns:rdf="http://www.w3.org/1999/02/22-rdf-syntax-ns#">
   <cc:Work>
    <dc:type rdf:resource="http://purl.org/dc/dcmitype/StillImage"/>
    <dc:date>2025-07-28T21:14:43.313681</dc:date>
    <dc:format>image/svg+xml</dc:format>
    <dc:creator>
     <cc:Agent>
      <dc:title>Matplotlib v3.10.3, https://matplotlib.org/</dc:title>
     </cc:Agent>
    </dc:creator>
   </cc:Work>
  </rdf:RDF>
 </metadata>
 <defs>
  <style type="text/css">*{stroke-linejoin: round; stroke-linecap: butt}</style>
 </defs>
 <g id="figure_1">
  <g id="patch_1">
   <path d="M 0 345.6 
L 460.8 345.6 
L 460.8 0 
L 0 0 
z
" style="fill: #ffffff"/>
  </g>
  <g id="axes_1">
   <g id="patch_2">
    <path d="M 57.17 303.64 
L 450 303.64 
L 450 26.88 
L 57.17 26.88 
z
" style="fill: #ffffff"/>
   </g>
   <g id="matplotlib.axis_1">
    <g id="xtick_1">
     <g id="line2d_1">
      <path d="M 75.13397 303.64 
L 75.13397 26.88 
" clip-path="url(#pc2571fb66e)" style="fill: none; stroke: #b0b0b0; stroke-opacity: 0.3; stroke-width: 0.8; stroke-linecap: square"/>
     </g>
     <g id="line2d_2">
      <defs>
       <path id="m565e44536b" d="M 0 0 
L 0 3.5 
" style="stroke: #000000; stroke-width: 0.8"/>
      </defs>
      <g>
       <use xlink:href="#m565e44536b" x="75.13397" y="303.64" style="stroke: #000000; stroke-width: 0.8"/>
      </g>
     </g>
     <g id="text_1">
      <!-- 0.00 -->
      <g transform="translate(64.001157 318.238437) scale(0.1 -0.1)">
       <defs>
        <path id="DejaVuSans-30" d="M 2034 4250 
Q 1547 4250 1301 3770 
Q 1056 3291 1056 2328 
Q 1056 1369 1301 889 
Q 1547 409 2034 409 
Q 2525 409 2770 889 
Q 3016 1369 3016 2328 
Q 3016 3291 2770 3770 
Q 2525 4250 2034 4250 
z
M 2034 4750 
Q 2819 4750 3233 4129 
Q 3647 3509 3647 2328 
Q 3647 1150 3233 529 
Q 2819 -91 2034 -91 
Q 1250 -91 836 529 
Q 422 1150 422 2328 
Q 422 3509 836 4129 
Q 1250 4750 2034 4750 
z
" transform="scale(0.015625)"/>
        <path id="DejaVuSans-2e" d="M 684 794 
L 1344 794 
L 1344 0 
L 684 0 
L 684 794 
z
" transform="scale(0.015625)"/>
       </defs>
       <use xlink:href="#DejaVuSans-30"/>
       <use xlink:href="#DejaVuSans-2e" transform="translate(63.623047 0)"/>
       <use xlink:href="#DejaVuSans-30" transform="translate(95.410156 0)"/>
       <use xlink:href="#DejaVuSans-30" transform="translate(159.033203 0)"/>
      </g>
     </g>
    </g>
    <g id="xtick_2">
     <g id="line2d_3">
      <path d="M 146.514249 303.64 
L 146.514249 26.88 
" clip-path="url(#pc2571fb66e)" style="fill: none; stroke: #b0b0b0; stroke-opacity: 0.3; stroke-width: 0.8; stroke-linecap: square"/>
     </g>
     <g id="line2d_4">
      <g>
       <use xlink:href="#m565e44536b" x="146.514249" y="303.64" style="stroke: #000000; stroke-width: 0.8"/>
      </g>
     </g>
     <g id="text_2">
      <!-- 0.05 -->
      <g transform="translate(135.381437 318.238437) scale(0.1 -0.1)">
       <defs>
        <path id="DejaVuSans-35" d="M 691 4666 
L 3169 4666 
L 3169 4134 
L 1269 4134 
L 1269 2991 
Q 1406 3038 1543 3061 
Q 1681 3084 1819 3084 
Q 2600 3084 3056 2656 
Q 3513 2228 3513 1497 
Q 3513 744 3044 326 
Q 2575 -91 1722 -91 
Q 1428 -91 1123 -41 
Q 819 9 494 109 
L 494 744 
Q 775 591 1075 516 
Q 1375 441 1709 441 
Q 2250 441 2565 725 
Q 2881 1009 2881 1497 
Q 2881 1984 2565 2268 
Q 2250 2553 1709 2553 
Q 1456 2553 1204 2497 
Q 953 2441 691 2322 
L 691 4666 
z
" transform="scale(0.015625)"/>
       </defs>
       <use xlink:href="#DejaVuSans-30"/>
       <use xlink:href="#DejaVuSans-2e" transform="translate(63.623047 0)"/>
       <use xlink:href="#DejaVuSans-30" transform="translate(95.410156 0)"/>
       <use xlink:href="#DejaVuSans-35" transform="translate(159.033203 0)"/>
      </g>
     </g>
    </g>
    <g id="xtick_3">
     <g id="line2d_5">
      <path d="M 217.894529 303.64 
L 217.894529 26.88 
" clip-path="url(#pc2571fb66e)" style="fill: none; stroke: #b0b0b0; stroke-opacity: 0.3; stroke-width: 0.8; stroke-linecap: square"/>
     </g>
     <g id="line2d_6">
      <g>
       <use xlink:href="#m565e44536b" x="217.894529" y="303.64" style="stroke: #000000; stroke-width: 0.8"/>
      </g>
     </g>
     <g id="text_3">
      <!-- 0.10 -->
      <g transform="translate(206.761716 318.238437) scale(0.1 -0.1)">
       <defs>
        <path id="DejaVuSans-31" d="M 794 531 
L 1825 531 
L 1825 4091 
L 703 3866 
L 703 4441 
L 1819 4666 
L 2450 4666 
L 2450 531 
L 3481 531 
L 3481 0 
L 794 0 
L 794 531 
z
" transform="scale(0.015625)"/>
       </defs>
       <use xlink:href="#DejaVuSans-30"/>
       <use xlink:href="#DejaVuSans-2e" transform="translate(63.623047 0)"/>
       <use xlink:href="#DejaVuSans-31" transform="translate(95.410156 0)"/>
       <use xlink:href="#DejaVuSans-30" transform="translate(159.033203 0)"/>
      </g>
     </g>
    </g>
    <g id="xtick_4">
     <g id="line2d_7">
      <path d="M 289.274808 303.64 
L 289.274808 26.88 
" clip-path="url(#pc2571fb66e)" style="fill: none; stroke: #b0b0b0; stroke-opacity: 0.3; stroke-width: 0.8; stroke-linecap: square"/>
     </g>
     <g id="line2d_8">
      <g>
       <use xlink:href="#m565e44536b" x="289.274808" y="303.64" style="stroke: #000000; stroke-width: 0.8"/>
      </g>
     </g>
     <g id="text_4">
      <!-- 0.15 -->
      <g transform="translate(278.141996 318.238437) scale(0.1 -0.1)">
       <use xlink:href="#DejaVuSans-30"/>
       <use xlink:href="#DejaVuSans-2e" transform="translate(63.623047 0)"/>
       <use xlink:href="#DejaVuSans-31" transform="translate(95.410156 0)"/>
       <use xlink:href="#DejaVuSans-35" transform="translate(159.033203 0)"/>
      </g>
     </g>
    </g>
    <g id="xtick_5">
     <g id="line2d_9">
      <path d="M 360.655088 303.64 
L 360.655088 26.88 
" clip-path="url(#pc2571fb66e)" style="fill: none; stroke: #b0b0b0; stroke-opacity: 0.3; stroke-width: 0.8; stroke-linecap: square"/>
     </g>
     <g id="line2d_10">
      <g>
       <use xlink:href="#m565e44536b" x="360.655088" y="303.64" style="stroke: #000000; stroke-width: 0.8"/>
      </g>
     </g>
     <g id="text_5">
      <!-- 0.20 -->
      <g transform="translate(349.522276 318.238437) scale(0.1 -0.1)">
       <defs>
        <path id="DejaVuSans-32" d="M 1228 531 
L 3431 531 
L 3431 0 
L 469 0 
L 469 531 
Q 828 903 1448 1529 
Q 2069 2156 2228 2338 
Q 2531 2678 2651 2914 
Q 2772 3150 2772 3378 
Q 2772 3750 2511 3984 
Q 2250 4219 1831 4219 
Q 1534 4219 1204 4116 
Q 875 4013 500 3803 
L 500 4441 
Q 881 4594 1212 4672 
Q 1544 4750 1819 4750 
Q 2544 4750 2975 4387 
Q 3406 4025 3406 3419 
Q 3406 3131 3298 2873 
Q 3191 2616 2906 2266 
Q 2828 2175 2409 1742 
Q 1991 1309 1228 531 
z
" transform="scale(0.015625)"/>
       </defs>
       <use xlink:href="#DejaVuSans-30"/>
       <use xlink:href="#DejaVuSans-2e" transform="translate(63.623047 0)"/>
       <use xlink:href="#DejaVuSans-32" transform="translate(95.410156 0)"/>
       <use xlink:href="#DejaVuSans-30" transform="translate(159.033203 0)"/>
      </g>
     </g>
    </g>
    <g id="xtick_6">
     <g id="line2d_11">
      <path d="M 432.035368 303.64 
L 432.035368 26.88 
" clip-path="url(#pc2571fb66e)" style="fill: none; stroke: #b0b0b0; stroke-opacity: 0.3; stroke-width: 0.8; stroke-linecap: square"/>
     </g>
     <g id="line2d_12">
      <g>
       <use xlink:href="#m565e44536b" x="432.035368" y="303.64" style="stroke: #000000; stroke-width: 0.8"/>
      </g>
     </g>
     <g id="text_6">
      <!-- 0.25 -->
      <g transform="translate(420.902555 318.238437) scale(0.1 -0.1)">
       <use xlink:href="#DejaVuSans-30"/>
       <use xlink:href="#DejaVuSans-2e" transform="translate(63.623047 0)"/>
       <use xlink:href="#DejaVuSans-32" transform="translate(95.410156 0)"/>
       <use xlink:href="#DejaVuSans-35" transform="translate(159.033203 0)"/>
      </g>
     </g>
    </g>
    <g id="text_7">
     <!-- Strain [-] -->
     <g transform="translate(231.47875 331.916562) scale(0.1 -0.1)">
      <defs>
       <path id="DejaVuSans-53" d="M 3425 4513 
L 3425 3897 
Q 3066 4069 2747 4153 
Q 2428 4238 2131 4238 
Q 1616 4238 1336 4038 
Q 1056 3838 1056 3469 
Q 1056 3159 1242 3001 
Q 1428 2844 1947 2747 
L 2328 2669 
Q 3034 2534 3370 2195 
Q 3706 1856 3706 1288 
Q 3706 609 3251 259 
Q 2797 -91 1919 -91 
Q 1588 -91 1214 -16 
Q 841 59 441 206 
L 441 856 
Q 825 641 1194 531 
Q 1563 422 1919 422 
Q 2459 422 2753 634 
Q 3047 847 3047 1241 
Q 3047 1584 2836 1778 
Q 2625 1972 2144 2069 
L 1759 2144 
Q 1053 2284 737 2584 
Q 422 2884 422 3419 
Q 422 4038 858 4394 
Q 1294 4750 2059 4750 
Q 2388 4750 2728 4690 
Q 3069 4631 3425 4513 
z
" transform="scale(0.015625)"/>
       <path id="DejaVuSans-74" d="M 1172 4494 
L 1172 3500 
L 2356 3500 
L 2356 3053 
L 1172 3053 
L 1172 1153 
Q 1172 725 1289 603 
Q 1406 481 1766 481 
L 2356 481 
L 2356 0 
L 1766 0 
Q 1100 0 847 248 
Q 594 497 594 1153 
L 594 3053 
L 172 3053 
L 172 3500 
L 594 3500 
L 594 4494 
L 1172 4494 
z
" transform="scale(0.015625)"/>
       <path id="DejaVuSans-72" d="M 2631 2963 
Q 2534 3019 2420 3045 
Q 2306 3072 2169 3072 
Q 1681 3072 1420 2755 
Q 1159 2438 1159 1844 
L 1159 0 
L 581 0 
L 581 3500 
L 1159 3500 
L 1159 2956 
Q 1341 3275 1631 3429 
Q 1922 3584 2338 3584 
Q 2397 3584 2469 3576 
Q 2541 3569 2628 3553 
L 2631 2963 
z
" transform="scale(0.015625)"/>
       <path id="DejaVuSans-61" d="M 2194 1759 
Q 1497 1759 1228 1600 
Q 959 1441 959 1056 
Q 959 750 1161 570 
Q 1363 391 1709 391 
Q 2188 391 2477 730 
Q 2766 1069 2766 1631 
L 2766 1759 
L 2194 1759 
z
M 3341 1997 
L 3341 0 
L 2766 0 
L 2766 531 
Q 2569 213 2275 61 
Q 1981 -91 1556 -91 
Q 1019 -91 701 211 
Q 384 513 384 1019 
Q 384 1609 779 1909 
Q 1175 2209 1959 2209 
L 2766 2209 
L 2766 2266 
Q 2766 2663 2505 2880 
Q 2244 3097 1772 3097 
Q 1472 3097 1187 3025 
Q 903 2953 641 2809 
L 641 3341 
Q 956 3463 1253 3523 
Q 1550 3584 1831 3584 
Q 2591 3584 2966 3190 
Q 3341 2797 3341 1997 
z
" transform="scale(0.015625)"/>
       <path id="DejaVuSans-69" d="M 603 3500 
L 1178 3500 
L 1178 0 
L 603 0 
L 603 3500 
z
M 603 4863 
L 1178 4863 
L 1178 4134 
L 603 4134 
L 603 4863 
z
" transform="scale(0.015625)"/>
       <path id="DejaVuSans-6e" d="M 3513 2113 
L 3513 0 
L 2938 0 
L 2938 2094 
Q 2938 2591 2744 2837 
Q 2550 3084 2163 3084 
Q 1697 3084 1428 2787 
Q 1159 2491 1159 1978 
L 1159 0 
L 581 0 
L 581 3500 
L 1159 3500 
L 1159 2956 
Q 1366 3272 1645 3428 
Q 1925 3584 2291 3584 
Q 2894 3584 3203 3211 
Q 3513 2838 3513 2113 
z
" transform="scale(0.015625)"/>
       <path id="DejaVuSans-20" transform="scale(0.015625)"/>
       <path id="DejaVuSans-5b" d="M 550 4863 
L 1875 4863 
L 1875 4416 
L 1125 4416 
L 1125 -397 
L 1875 -397 
L 1875 -844 
L 550 -844 
L 550 4863 
z
" transform="scale(0.015625)"/>
       <path id="DejaVuSans-2d" d="M 313 2009 
L 1997 2009 
L 1997 1497 
L 313 1497 
L 313 2009 
z
" transform="scale(0.015625)"/>
       <path id="DejaVuSans-5d" d="M 1947 4863 
L 1947 -844 
L 622 -844 
L 622 -397 
L 1369 -397 
L 1369 4416 
L 622 4416 
L 622 4863 
L 1947 4863 
z
" transform="scale(0.015625)"/>
      </defs>
      <use xlink:href="#DejaVuSans-53"/>
      <use xlink:href="#DejaVuSans-74" transform="translate(63.476562 0)"/>
      <use xlink:href="#DejaVuSans-72" transform="translate(102.685547 0)"/>
      <use xlink:href="#DejaVuSans-61" transform="translate(143.798828 0)"/>
      <use xlink:href="#DejaVuSans-69" transform="translate(205.078125 0)"/>
      <use xlink:href="#DejaVuSans-6e" transform="translate(232.861328 0)"/>
      <use xlink:href="#DejaVuSans-20" transform="translate(296.240234 0)"/>
      <use xlink:href="#DejaVuSans-5b" transform="translate(328.027344 0)"/>
      <use xlink:href="#DejaVuSans-2d" transform="translate(367.041016 0)"/>
      <use xlink:href="#DejaVuSans-5d" transform="translate(403.125 0)"/>
     </g>
    </g>
   </g>
   <g id="matplotlib.axis_2">
    <g id="ytick_1">
     <g id="line2d_13">
      <path d="M 57.17 276.432948 
L 450 276.432948 
" clip-path="url(#pc2571fb66e)" style="fill: none; stroke: #b0b0b0; stroke-opacity: 0.3; stroke-width: 0.8; stroke-linecap: square"/>
     </g>
     <g id="line2d_14">
      <defs>
       <path id="m7fdec2e800" d="M 0 0 
L -3.5 0 
" style="stroke: #000000; stroke-width: 0.8"/>
      </defs>
      <g>
       <use xlink:href="#m7fdec2e800" x="57.17" y="276.432948" style="stroke: #000000; stroke-width: 0.8"/>
      </g>
     </g>
     <g id="text_8">
      <!-- 0 -->
      <g transform="translate(43.8075 280.232167) scale(0.1 -0.1)">
       <use xlink:href="#DejaVuSans-30"/>
      </g>
     </g>
    </g>
    <g id="ytick_2">
     <g id="line2d_15">
      <path d="M 57.17 234.036775 
L 450 234.036775 
" clip-path="url(#pc2571fb66e)" style="fill: none; stroke: #b0b0b0; stroke-opacity: 0.3; stroke-width: 0.8; stroke-linecap: square"/>
     </g>
     <g id="line2d_16">
      <g>
       <use xlink:href="#m7fdec2e800" x="57.17" y="234.036775" style="stroke: #000000; stroke-width: 0.8"/>
      </g>
     </g>
     <g id="text_9">
      <!-- 500 -->
      <g transform="translate(31.0825 237.835994) scale(0.1 -0.1)">
       <use xlink:href="#DejaVuSans-35"/>
       <use xlink:href="#DejaVuSans-30" transform="translate(63.623047 0)"/>
       <use xlink:href="#DejaVuSans-30" transform="translate(127.246094 0)"/>
      </g>
     </g>
    </g>
    <g id="ytick_3">
     <g id="line2d_17">
      <path d="M 57.17 191.640602 
L 450 191.640602 
" clip-path="url(#pc2571fb66e)" style="fill: none; stroke: #b0b0b0; stroke-opacity: 0.3; stroke-width: 0.8; stroke-linecap: square"/>
     </g>
     <g id="line2d_18">
      <g>
       <use xlink:href="#m7fdec2e800" x="57.17" y="191.640602" style="stroke: #000000; stroke-width: 0.8"/>
      </g>
     </g>
     <g id="text_10">
      <!-- 1000 -->
      <g transform="translate(24.72 195.439821) scale(0.1 -0.1)">
       <use xlink:href="#DejaVuSans-31"/>
       <use xlink:href="#DejaVuSans-30" transform="translate(63.623047 0)"/>
       <use xlink:href="#DejaVuSans-30" transform="translate(127.246094 0)"/>
       <use xlink:href="#DejaVuSans-30" transform="translate(190.869141 0)"/>
      </g>
     </g>
    </g>
    <g id="ytick_4">
     <g id="line2d_19">
      <path d="M 57.17 149.244429 
L 450 149.244429 
" clip-path="url(#pc2571fb66e)" style="fill: none; stroke: #b0b0b0; stroke-opacity: 0.3; stroke-width: 0.8; stroke-linecap: square"/>
     </g>
     <g id="line2d_20">
      <g>
       <use xlink:href="#m7fdec2e800" x="57.17" y="149.244429" style="stroke: #000000; stroke-width: 0.8"/>
      </g>
     </g>
     <g id="text_11">
      <!-- 1500 -->
      <g transform="translate(24.72 153.043647) scale(0.1 -0.1)">
       <use xlink:href="#DejaVuSans-31"/>
       <use xlink:href="#DejaVuSans-35" transform="translate(63.623047 0)"/>
       <use xlink:href="#DejaVuSans-30" transform="translate(127.246094 0)"/>
       <use xlink:href="#DejaVuSans-30" transform="translate(190.869141 0)"/>
      </g>
     </g>
    </g>
    <g id="ytick_5">
     <g id="line2d_21">
      <path d="M 57.17 106.848256 
L 450 106.848256 
" clip-path="url(#pc2571fb66e)" style="fill: none; stroke: #b0b0b0; stroke-opacity: 0.3; stroke-width: 0.8; stroke-linecap: square"/>
     </g>
     <g id="line2d_22">
      <g>
       <use xlink:href="#m7fdec2e800" x="57.17" y="106.848256" style="stroke: #000000; stroke-width: 0.8"/>
      </g>
     </g>
     <g id="text_12">
      <!-- 2000 -->
      <g transform="translate(24.72 110.647474) scale(0.1 -0.1)">
       <use xlink:href="#DejaVuSans-32"/>
       <use xlink:href="#DejaVuSans-30" transform="translate(63.623047 0)"/>
       <use xlink:href="#DejaVuSans-30" transform="translate(127.246094 0)"/>
       <use xlink:href="#DejaVuSans-30" transform="translate(190.869141 0)"/>
      </g>
     </g>
    </g>
    <g id="ytick_6">
     <g id="line2d_23">
      <path d="M 57.17 64.452082 
L 450 64.452082 
" clip-path="url(#pc2571fb66e)" style="fill: none; stroke: #b0b0b0; stroke-opacity: 0.3; stroke-width: 0.8; stroke-linecap: square"/>
     </g>
     <g id="line2d_24">
      <g>
       <use xlink:href="#m7fdec2e800" x="57.17" y="64.452082" style="stroke: #000000; stroke-width: 0.8"/>
      </g>
     </g>
     <g id="text_13">
      <!-- 2500 -->
      <g transform="translate(24.72 68.251301) scale(0.1 -0.1)">
       <use xlink:href="#DejaVuSans-32"/>
       <use xlink:href="#DejaVuSans-35" transform="translate(63.623047 0)"/>
       <use xlink:href="#DejaVuSans-30" transform="translate(127.246094 0)"/>
       <use xlink:href="#DejaVuSans-30" transform="translate(190.869141 0)"/>
      </g>
     </g>
    </g>
    <g id="text_14">
     <!-- Stress [Pa] -->
     <g transform="translate(18.640312 191.967812) rotate(-90) scale(0.1 -0.1)">
      <defs>
       <path id="DejaVuSans-65" d="M 3597 1894 
L 3597 1613 
L 953 1613 
Q 991 1019 1311 708 
Q 1631 397 2203 397 
Q 2534 397 2845 478 
Q 3156 559 3463 722 
L 3463 178 
Q 3153 47 2828 -22 
Q 2503 -91 2169 -91 
Q 1331 -91 842 396 
Q 353 884 353 1716 
Q 353 2575 817 3079 
Q 1281 3584 2069 3584 
Q 2775 3584 3186 3129 
Q 3597 2675 3597 1894 
z
M 3022 2063 
Q 3016 2534 2758 2815 
Q 2500 3097 2075 3097 
Q 1594 3097 1305 2825 
Q 1016 2553 972 2059 
L 3022 2063 
z
" transform="scale(0.015625)"/>
       <path id="DejaVuSans-73" d="M 2834 3397 
L 2834 2853 
Q 2591 2978 2328 3040 
Q 2066 3103 1784 3103 
Q 1356 3103 1142 2972 
Q 928 2841 928 2578 
Q 928 2378 1081 2264 
Q 1234 2150 1697 2047 
L 1894 2003 
Q 2506 1872 2764 1633 
Q 3022 1394 3022 966 
Q 3022 478 2636 193 
Q 2250 -91 1575 -91 
Q 1294 -91 989 -36 
Q 684 19 347 128 
L 347 722 
Q 666 556 975 473 
Q 1284 391 1588 391 
Q 1994 391 2212 530 
Q 2431 669 2431 922 
Q 2431 1156 2273 1281 
Q 2116 1406 1581 1522 
L 1381 1569 
Q 847 1681 609 1914 
Q 372 2147 372 2553 
Q 372 3047 722 3315 
Q 1072 3584 1716 3584 
Q 2034 3584 2315 3537 
Q 2597 3491 2834 3397 
z
" transform="scale(0.015625)"/>
       <path id="DejaVuSans-50" d="M 1259 4147 
L 1259 2394 
L 2053 2394 
Q 2494 2394 2734 2622 
Q 2975 2850 2975 3272 
Q 2975 3691 2734 3919 
Q 2494 4147 2053 4147 
L 1259 4147 
z
M 628 4666 
L 2053 4666 
Q 2838 4666 3239 4311 
Q 3641 3956 3641 3272 
Q 3641 2581 3239 2228 
Q 2838 1875 2053 1875 
L 1259 1875 
L 1259 0 
L 628 0 
L 628 4666 
z
" transform="scale(0.015625)"/>
      </defs>
      <use xlink:href="#DejaVuSans-53"/>
      <use xlink:href="#DejaVuSans-74" transform="translate(63.476562 0)"/>
      <use xlink:href="#DejaVuSans-72" transform="translate(102.685547 0)"/>
      <use xlink:href="#DejaVuSans-65" transform="translate(141.548828 0)"/>
      <use xlink:href="#DejaVuSans-73" transform="translate(203.072266 0)"/>
      <use xlink:href="#DejaVuSans-73" transform="translate(255.171875 0)"/>
      <use xlink:href="#DejaVuSans-20" transform="translate(307.271484 0)"/>
      <use xlink:href="#DejaVuSans-5b" transform="translate(339.058594 0)"/>
      <use xlink:href="#DejaVuSans-50" transform="translate(378.072266 0)"/>
      <use xlink:href="#DejaVuSans-61" transform="translate(433.875 0)"/>
      <use xlink:href="#DejaVuSans-5d" transform="translate(495.154297 0)"/>
     </g>
    </g>
   </g>
   <g id="line2d_25">
    <path d="M 75.13397 276.242291 
L 75.13397 276.241999 
L 75.135193 276.380182 
L 75.135106 276.31188 
L 76.216975 269.473932 
L 76.742503 267.892358 
L 77.33766 267.307848 
L 77.935151 267.252122 
L 81.368391 268.007428 
L 83.232439 268.018365 
L 85.300319 267.675524 
L 88.35157 266.97429 
L 89.440747 266.973441 
L 90.562599 267.18794 
L 92.297502 267.798548 
L 94.072859 268.720894 
L 98.244406 271.2098 
L 99.411381 271.476136 
L 100.559684 271.365803 
L 101.689314 270.945742 
L 103.349531 269.981211 
L 106.578162 267.59598 
L 110.267358 265.06918 
L 112.361689 263.946634 
L 115.49385 262.537375 
L 119.130144 260.847836 
L 125.837916 257.621769 
L 136.315799 253.040066 
L 146.127724 248.138759 
L 152.141535 245.32453 
L 156.638279 243.017949 
L 160.38349 241.086026 
L 174.651704 233.782329 
L 178.431141 231.617318 
L 181.473056 230.020729 
L 187.857187 226.796806 
L 195.041388 222.856149 
L 201.238803 219.548572 
L 206.421728 216.842307 
L 215.26273 211.669302 
L 219.971085 209.214717 
L 225.693931 205.812045 
L 230.861296 202.703237 
L 235.992874 199.873993 
L 239.546701 197.92062 
L 242.565277 195.926493 
L 246.32138 193.375383 
L 254.555555 188.256718 
L 266.533386 180.165809 
L 273.339184 175.961625 
L 277.132631 173.326145 
L 280.943205 170.74 
L 290.15764 164.695414 
L 293.737919 161.924084 
L 300.427019 156.981308 
L 306.639994 152.68632 
L 310.785089 149.520312 
L 318.079509 144.06266 
L 322.268171 141.315641 
L 325.38944 139.012635 
L 337.418618 129.548931 
L 341.191837 126.547373 
L 344.183961 123.969093 
L 348.658921 120.008008 
L 352.402577 116.90635 
L 359.164808 111.270742 
L 380.338401 92.656503 
L 388.735953 84.940242 
L 393.336946 80.678858 
L 396.405313 77.64584 
L 402.055027 71.990212 
L 405.154513 69.138803 
L 410.788668 64.326872 
L 414.51054 61.421123 
L 419.376048 57.757477 
L 421.881154 56.135148 
L 424.114744 54.710874 
L 425.8831 53.366679 
L 427.608667 51.631381 
L 429.295335 49.434194 
L 430.362339 47.597366 
L 430.894285 46.497343 
L 431.410963 45.008875 
L 431.920931 44.12992 
L 432.144091 46.267806 
L 432.034809 80.394513 
L 432.035489 81.673799 
L 432.035368 80.387318 
L 432.034249 81.59363 
L 431.519103 81.866491 
L 430.474077 83.984738 
L 429.446118 84.173206 
L 427.855142 85.206467 
L 427.332337 85.590242 
L 426.821008 86.173232 
L 426.291784 86.223774 
L 425.228087 88.140324 
L 424.718119 88.763087 
L 424.20076 89.174579 
L 423.121113 89.755961 
L 422.07317 91.147882 
L 420.507673 93.446061 
L 418.419663 95.312472 
L 416.836273 97.13357 
L 415.282445 98.660894 
L 413.703577 100.29283 
L 412.120381 101.712279 
L 410.03558 103.921441 
L 407.938137 105.852202 
L 404.813951 108.944386 
L 403.779622 109.927061 
L 402.737319 111.014125 
L 400.677584 112.804377 
L 398.055585 115.399192 
L 396.512844 116.808719 
L 394.972632 118.28644 
L 392.882385 120.275115 
L 390.784942 122.269153 
L 378.718494 132.992447 
L 375.61101 135.567722 
L 371.438977 139.174168 
L 370.384129 140.057994 
L 369.360692 140.829476 
L 367.229601 142.643335 
L 365.146746 144.264323 
L 364.106971 145.164683 
L 363.06316 145.905465 
L 361.482493 147.097991 
L 360.953659 147.646573 
L 359.918357 148.371133 
L 358.342163 149.625149 
L 354.689045 152.540505 
L 353.644019 153.334688 
L 352.583142 154.213867 
L 352.070062 154.495486 
L 348.914999 157.015539 
L 347.857234 157.782329 
L 346.300781 159.131171 
L 343.660111 161.003123 
L 342.070691 162.31702 
L 333.218505 168.50245 
L 331.672069 169.666019 
L 329.092471 171.386123 
L 326.500425 173.284441 
L 320.237708 177.549601 
L 319.215438 178.189255 
L 318.162437 179.008463 
L 317.106519 179.753401 
L 315.555804 180.606035 
L 314.51953 181.377517 
L 312.939446 182.576031 
L 311.897775 183.220087 
L 310.859946 183.803838 
L 308.759391 185.321151 
L 306.661559 186.538255 
L 305.102966 187.601009 
L 303.526967 188.490108 
L 298.827024 191.611138 
L 293.604908 194.849316 
L 293.07549 195.250519 
L 290.992246 196.36368 
L 289.429666 197.486807 
L 287.863975 198.271114 
L 285.781046 199.722844 
L 284.215744 200.557424 
L 283.184429 201.312014 
L 280.593648 202.781647 
L 279.019398 203.872419 
L 275.888988 205.575141 
L 274.863023 206.2219 
L 273.817389 206.693436 
L 271.737353 208.013633 
L 266.467683 210.85244 
L 263.820887 212.466457 
L 261.76915 213.431391 
L 258.622062 215.217806 
L 254.466075 217.584402 
L 253.440304 218.195099 
L 252.407531 218.613037 
L 249.797495 220.158772 
L 248.243449 220.872272 
L 246.639247 221.900349 
L 241.938477 224.269537 
L 240.360533 225.2481 
L 235.692256 227.466736 
L 233.578281 228.570781 
L 232.538117 229.22411 
L 229.926136 230.405286 
L 228.376685 231.39873 
L 226.78707 231.956612 
L 226.275741 232.146399 
L 224.200178 233.456944 
L 222.108789 234.355774 
L 221.054719 234.972191 
L 216.407727 237.168573 
L 215.342863 237.614821 
L 213.771336 238.428264 
L 213.260396 238.785048 
L 210.653666 239.990041 
L 206.993388 241.786419 
L 205.925606 242.131472 
L 202.263833 243.862615 
L 200.687055 244.574841 
L 199.645336 245.107782 
L 198.608673 245.568285 
L 196.013892 246.873616 
L 188.18524 250.224272 
L 181.373814 253.380031 
L 179.298252 254.108769 
L 178.269369 254.771348 
L 173.056777 256.952649 
L 171.469783 257.739415 
L 169.922957 258.237746 
L 167.801397 259.22442 
L 165.709205 260.06491 
L 165.17687 260.343938 
L 163.095765 260.959226 
L 161.521127 261.741947 
L 160.473767 262.064567 
L 159.42524 262.561133 
L 158.375777 263.047409 
L 156.828368 263.493361 
L 155.23992 264.341303 
L 153.684148 264.858537 
L 152.638344 265.241441 
L 150.013818 266.504997 
L 148.977738 266.730433 
L 143.763311 268.915359 
L 142.194508 269.388497 
L 141.145106 269.925773 
L 140.093272 270.3315 
L 138.001081 271.031374 
L 136.94137 271.48352 
L 135.8979 271.775064 
L 135.37918 271.916639 
L 133.783341 272.643501 
L 123.327936 276.386112 
L 121.754853 276.88022 
L 120.701032 277.384765 
L 118.589391 278.215447 
L 117.559925 278.425405 
L 114.941136 279.515261 
L 113.892025 279.694325 
L 111.821034 280.602398 
L 109.717561 281.319406 
L 108.135189 281.970582 
L 105.554035 282.824031 
L 104.000597 283.1688 
L 102.949347 283.491085 
L 101.90471 284.019311 
L 99.814074 284.574238 
L 98.262581 285.208262 
L 90.968401 287.038882 
L 90.450361 287.414881 
L 88.366727 287.840596 
L 87.847325 288.011447 
L 87.330064 288.36546 
L 85.759121 288.471481 
L 85.227175 288.510162 
L 84.698049 288.73442 
L 84.166589 289.186432 
L 83.112616 289.195955 
L 82.052321 289.268897 
L 81.533795 289.48517 
L 81.002237 290.146989 
L 80.486726 290.178684 
L 79.445979 290.092448 
L 78.391131 290.086981 
L 77.864145 290.751035 
L 77.351745 290.993449 
L 76.323835 290.63099 
L 75.805406 290.516636 
L 75.236214 290.902745 
L 75.155535 291.06 
L 75.026236 290.078784 
L 75.026236 290.078784 
" clip-path="url(#pc2571fb66e)" style="fill: none; stroke: #ff0000; stroke-width: 2; stroke-linecap: square"/>
   </g>
   <g id="line2d_26">
    <path d="M 75.13397 276.242291 
L 75.13397 276.241999 
L 75.135193 276.380182 
L 75.135106 276.31188 
L 76.216975 269.473932 
L 76.742503 267.892358 
L 77.33766 267.307848 
L 77.935151 267.252122 
L 78.478961 267.379481 
L 79.07723 275.794558 
L 80.248873 275.819404 
L 81.368391 275.608659 
L 83.232439 274.919971 
L 86.031623 273.829601 
L 89.440747 272.52406 
L 93.47848 270.538858 
L 94.670351 270.166345 
L 95.269398 270.090555 
L 96.46438 270.282889 
L 98.244406 271.2098 
L 99.411381 271.476136 
L 100.559684 271.365803 
L 101.689314 270.945742 
L 103.349531 269.981211 
L 106.578162 267.59598 
L 110.267358 265.06918 
L 112.361689 263.946634 
L 115.49385 262.537375 
L 119.130144 260.847836 
L 125.837916 257.621769 
L 136.315799 253.040066 
L 146.127724 248.138759 
L 152.141535 245.32453 
L 156.638279 243.017949 
L 160.38349 241.086026 
L 174.651704 233.782329 
L 178.431141 231.617318 
L 181.473056 230.020729 
L 187.857187 226.796806 
L 195.041388 222.856149 
L 201.238803 219.548572 
L 206.421728 216.842307 
L 215.26273 211.669302 
L 219.971085 209.214717 
L 225.693931 205.812045 
L 230.861296 202.703237 
L 235.992874 199.873993 
L 239.546701 197.92062 
L 242.565277 195.926493 
L 246.32138 193.375383 
L 254.555555 188.256718 
L 266.533386 180.165809 
L 273.339184 175.961625 
L 277.132631 173.326145 
L 280.943205 170.74 
L 290.15764 164.695414 
L 293.737919 161.924084 
L 300.427019 156.981308 
L 306.639994 152.68632 
L 310.785089 149.520312 
L 318.079509 144.06266 
L 322.268171 141.315641 
L 325.38944 139.012635 
L 337.418618 129.548931 
L 341.191837 126.547373 
L 344.183961 123.969093 
L 348.658921 120.008008 
L 352.402577 116.90635 
L 359.164808 111.270742 
L 380.338401 92.656503 
L 388.735953 84.940242 
L 393.336946 80.678858 
L 396.405313 77.64584 
L 402.055027 71.990212 
L 405.154513 69.138803 
L 413.779236 61.716859 
L 419.376048 57.092435 
L 423.585715 53.213575 
L 426.456474 49.991798 
L 428.169593 47.53614 
L 429.295335 45.633532 
L 430.362339 43.404528 
L 430.894285 42.123611 
L 431.410963 40.473553 
L 431.920931 39.46 
L 432.144091 41.445235 
L 432.034906 72.908693 
L 432.035295 72.878641 
L 432.035416 72.820301 
L 432.034614 76.444064 
L 432.036389 79.582924 
L 432.035489 81.673799 
L 432.034249 81.59363 
L 431.519103 81.866491 
L 430.474077 83.984738 
L 429.446118 84.173206 
L 427.855142 85.206467 
L 427.332337 85.590242 
L 426.821008 86.173232 
L 426.291784 86.223774 
L 425.228087 88.140324 
L 424.718119 88.763087 
L 424.20076 89.174579 
L 423.121113 89.755961 
L 422.07317 91.147882 
L 420.507673 93.446061 
L 418.419663 95.312472 
L 416.836273 97.13357 
L 415.282445 98.660894 
L 413.703577 100.29283 
L 412.120381 101.712279 
L 410.03558 103.921441 
L 407.938137 105.852202 
L 404.813951 108.944386 
L 403.779622 109.927061 
L 402.737319 111.014125 
L 400.677584 112.804377 
L 398.055585 115.399192 
L 396.512844 116.808719 
L 394.972632 118.28644 
L 392.882385 120.275115 
L 390.784942 122.269153 
L 378.718494 132.992447 
L 375.61101 135.567722 
L 371.438977 139.174168 
L 370.384129 140.057994 
L 369.360692 140.829476 
L 367.229601 142.643335 
L 365.146746 144.264323 
L 364.106971 145.164683 
L 363.06316 145.905465 
L 361.482493 147.097991 
L 360.953659 147.646573 
L 359.918357 148.371133 
L 358.342163 149.625149 
L 354.689045 152.540505 
L 353.644019 153.334688 
L 352.583142 154.213867 
L 352.070062 154.495486 
L 348.914999 157.015539 
L 347.857234 157.782329 
L 346.300781 159.131171 
L 343.660111 161.003123 
L 342.070691 162.31702 
L 333.218505 168.50245 
L 331.672069 169.666019 
L 329.092471 171.386123 
L 326.500425 173.284441 
L 320.237708 177.549601 
L 319.215438 178.189255 
L 318.162437 179.008463 
L 317.106519 179.753401 
L 315.555804 180.606035 
L 314.51953 181.377517 
L 312.939446 182.576031 
L 311.897775 183.220087 
L 310.859946 183.803838 
L 308.759391 185.321151 
L 306.661559 186.538255 
L 305.102966 187.601009 
L 303.526967 188.490108 
L 298.827024 191.611138 
L 293.604908 194.849316 
L 293.07549 195.250519 
L 290.992246 196.36368 
L 289.429666 197.486807 
L 287.863975 198.271114 
L 285.781046 199.722844 
L 284.215744 200.557424 
L 283.184429 201.312014 
L 280.593648 202.781647 
L 279.019398 203.872419 
L 275.888988 205.575141 
L 274.863023 206.2219 
L 273.817389 206.693436 
L 271.737353 208.013633 
L 266.467683 210.85244 
L 263.820887 212.466457 
L 261.76915 213.431391 
L 258.622062 215.217806 
L 254.466075 217.584402 
L 253.440304 218.195099 
L 252.407531 218.613037 
L 249.797495 220.158772 
L 248.243449 220.872272 
L 246.639247 221.900349 
L 241.938477 224.269537 
L 240.360533 225.2481 
L 235.692256 227.466736 
L 233.578281 228.570781 
L 232.538117 229.22411 
L 229.926136 230.405286 
L 228.376685 231.39873 
L 226.78707 231.956612 
L 226.275741 232.146399 
L 224.200178 233.456944 
L 222.108789 234.355774 
L 221.054719 234.972191 
L 216.407727 237.168573 
L 215.342863 237.614821 
L 213.771336 238.428264 
L 213.260396 238.785048 
L 210.653666 239.990041 
L 206.993388 241.786419 
L 205.925606 242.131472 
L 202.263833 243.862615 
L 200.687055 244.574841 
L 199.645336 245.107782 
L 198.608673 245.568285 
L 196.013892 246.873616 
L 188.18524 250.224272 
L 181.373814 253.380031 
L 179.298252 254.108769 
L 178.269369 254.771348 
L 173.056777 256.952649 
L 171.469783 257.739415 
L 169.922957 258.237746 
L 167.801397 259.22442 
L 165.709205 260.06491 
L 165.17687 260.343938 
L 163.095765 260.959226 
L 161.521127 261.741947 
L 160.473767 262.064567 
L 159.42524 262.561133 
L 158.375777 263.047409 
L 156.828368 263.493361 
L 155.23992 264.341303 
L 153.684148 264.858537 
L 152.638344 265.241441 
L 150.013818 266.504997 
L 148.977738 266.730433 
L 143.763311 268.915359 
L 142.194508 269.388497 
L 141.145106 269.925773 
L 140.093272 270.3315 
L 138.001081 271.031374 
L 136.94137 271.48352 
L 135.8979 271.775064 
L 135.37918 271.916639 
L 133.783341 272.643501 
L 123.327936 276.386112 
L 121.754853 276.88022 
L 120.701032 277.384765 
L 118.589391 278.215447 
L 117.559925 278.425405 
L 114.941136 279.515261 
L 113.892025 279.694325 
L 111.821034 280.602398 
L 109.717561 281.319406 
L 108.135189 281.970582 
L 105.554035 282.824031 
L 104.000597 283.1688 
L 102.949347 283.491085 
L 101.90471 284.019311 
L 99.814074 284.574238 
L 98.262581 285.208262 
L 90.968401 287.038882 
L 90.450361 287.414881 
L 88.366727 287.840596 
L 87.847325 288.011447 
L 87.330064 288.36546 
L 85.759121 288.471481 
L 85.227175 288.510162 
L 84.698049 288.73442 
L 84.166589 289.186432 
L 83.112616 289.195955 
L 82.052321 289.268897 
L 81.533795 289.48517 
L 81.002237 290.146989 
L 80.486726 290.178684 
L 79.445979 290.092448 
L 78.391131 290.086981 
L 77.864145 290.751035 
L 77.351745 290.993449 
L 76.323835 290.63099 
L 75.805406 290.516636 
L 75.236214 290.902745 
L 75.155535 291.06 
L 75.026236 290.078784 
L 75.026236 290.078784 
" clip-path="url(#pc2571fb66e)" style="fill: none; stroke: #000000; stroke-width: 2; stroke-linecap: square"/>
   </g>
   <g id="patch_3">
    <path d="M 57.17 303.64 
L 57.17 26.88 
" style="fill: none; stroke: #000000; stroke-width: 0.8; stroke-linejoin: miter; stroke-linecap: square"/>
   </g>
   <g id="patch_4">
    <path d="M 450 303.64 
L 450 26.88 
" style="fill: none; stroke: #000000; stroke-width: 0.8; stroke-linejoin: miter; stroke-linecap: square"/>
   </g>
   <g id="patch_5">
    <path d="M 57.17 303.64 
L 450 303.64 
" style="fill: none; stroke: #000000; stroke-width: 0.8; stroke-linejoin: miter; stroke-linecap: square"/>
   </g>
   <g id="patch_6">
    <path d="M 57.17 26.88 
L 450 26.88 
" style="fill: none; stroke: #000000; stroke-width: 0.8; stroke-linejoin: miter; stroke-linecap: square"/>
   </g>
   <g id="text_15">
    <!-- 2025-06-19 Trial 32 - Stress vs Strain -->
    <g transform="translate(142.330938 20.88) scale(0.12 -0.12)">
     <defs>
      <path id="DejaVuSans-36" d="M 2113 2584 
Q 1688 2584 1439 2293 
Q 1191 2003 1191 1497 
Q 1191 994 1439 701 
Q 1688 409 2113 409 
Q 2538 409 2786 701 
Q 3034 994 3034 1497 
Q 3034 2003 2786 2293 
Q 2538 2584 2113 2584 
z
M 3366 4563 
L 3366 3988 
Q 3128 4100 2886 4159 
Q 2644 4219 2406 4219 
Q 1781 4219 1451 3797 
Q 1122 3375 1075 2522 
Q 1259 2794 1537 2939 
Q 1816 3084 2150 3084 
Q 2853 3084 3261 2657 
Q 3669 2231 3669 1497 
Q 3669 778 3244 343 
Q 2819 -91 2113 -91 
Q 1303 -91 875 529 
Q 447 1150 447 2328 
Q 447 3434 972 4092 
Q 1497 4750 2381 4750 
Q 2619 4750 2861 4703 
Q 3103 4656 3366 4563 
z
" transform="scale(0.015625)"/>
      <path id="DejaVuSans-39" d="M 703 97 
L 703 672 
Q 941 559 1184 500 
Q 1428 441 1663 441 
Q 2288 441 2617 861 
Q 2947 1281 2994 2138 
Q 2813 1869 2534 1725 
Q 2256 1581 1919 1581 
Q 1219 1581 811 2004 
Q 403 2428 403 3163 
Q 403 3881 828 4315 
Q 1253 4750 1959 4750 
Q 2769 4750 3195 4129 
Q 3622 3509 3622 2328 
Q 3622 1225 3098 567 
Q 2575 -91 1691 -91 
Q 1453 -91 1209 -44 
Q 966 3 703 97 
z
M 1959 2075 
Q 2384 2075 2632 2365 
Q 2881 2656 2881 3163 
Q 2881 3666 2632 3958 
Q 2384 4250 1959 4250 
Q 1534 4250 1286 3958 
Q 1038 3666 1038 3163 
Q 1038 2656 1286 2365 
Q 1534 2075 1959 2075 
z
" transform="scale(0.015625)"/>
      <path id="DejaVuSans-54" d="M -19 4666 
L 3928 4666 
L 3928 4134 
L 2272 4134 
L 2272 0 
L 1638 0 
L 1638 4134 
L -19 4134 
L -19 4666 
z
" transform="scale(0.015625)"/>
      <path id="DejaVuSans-6c" d="M 603 4863 
L 1178 4863 
L 1178 0 
L 603 0 
L 603 4863 
z
" transform="scale(0.015625)"/>
      <path id="DejaVuSans-33" d="M 2597 2516 
Q 3050 2419 3304 2112 
Q 3559 1806 3559 1356 
Q 3559 666 3084 287 
Q 2609 -91 1734 -91 
Q 1441 -91 1130 -33 
Q 819 25 488 141 
L 488 750 
Q 750 597 1062 519 
Q 1375 441 1716 441 
Q 2309 441 2620 675 
Q 2931 909 2931 1356 
Q 2931 1769 2642 2001 
Q 2353 2234 1838 2234 
L 1294 2234 
L 1294 2753 
L 1863 2753 
Q 2328 2753 2575 2939 
Q 2822 3125 2822 3475 
Q 2822 3834 2567 4026 
Q 2313 4219 1838 4219 
Q 1578 4219 1281 4162 
Q 984 4106 628 3988 
L 628 4550 
Q 988 4650 1302 4700 
Q 1616 4750 1894 4750 
Q 2613 4750 3031 4423 
Q 3450 4097 3450 3541 
Q 3450 3153 3228 2886 
Q 3006 2619 2597 2516 
z
" transform="scale(0.015625)"/>
      <path id="DejaVuSans-76" d="M 191 3500 
L 800 3500 
L 1894 563 
L 2988 3500 
L 3597 3500 
L 2284 0 
L 1503 0 
L 191 3500 
z
" transform="scale(0.015625)"/>
     </defs>
     <use xlink:href="#DejaVuSans-32"/>
     <use xlink:href="#DejaVuSans-30" transform="translate(63.623047 0)"/>
     <use xlink:href="#DejaVuSans-32" transform="translate(127.246094 0)"/>
     <use xlink:href="#DejaVuSans-35" transform="translate(190.869141 0)"/>
     <use xlink:href="#DejaVuSans-2d" transform="translate(254.492188 0)"/>
     <use xlink:href="#DejaVuSans-30" transform="translate(290.576172 0)"/>
     <use xlink:href="#DejaVuSans-36" transform="translate(354.199219 0)"/>
     <use xlink:href="#DejaVuSans-2d" transform="translate(417.822266 0)"/>
     <use xlink:href="#DejaVuSans-31" transform="translate(453.90625 0)"/>
     <use xlink:href="#DejaVuSans-39" transform="translate(517.529297 0)"/>
     <use xlink:href="#DejaVuSans-20" transform="translate(581.152344 0)"/>
     <use xlink:href="#DejaVuSans-54" transform="translate(612.939453 0)"/>
     <use xlink:href="#DejaVuSans-72" transform="translate(659.273438 0)"/>
     <use xlink:href="#DejaVuSans-69" transform="translate(700.386719 0)"/>
     <use xlink:href="#DejaVuSans-61" transform="translate(728.169922 0)"/>
     <use xlink:href="#DejaVuSans-6c" transform="translate(789.449219 0)"/>
     <use xlink:href="#DejaVuSans-20" transform="translate(817.232422 0)"/>
     <use xlink:href="#DejaVuSans-33" transform="translate(849.019531 0)"/>
     <use xlink:href="#DejaVuSans-32" transform="translate(912.642578 0)"/>
     <use xlink:href="#DejaVuSans-20" transform="translate(976.265625 0)"/>
     <use xlink:href="#DejaVuSans-2d" transform="translate(1008.052734 0)"/>
     <use xlink:href="#DejaVuSans-20" transform="translate(1044.136719 0)"/>
     <use xlink:href="#DejaVuSans-53" transform="translate(1075.923828 0)"/>
     <use xlink:href="#DejaVuSans-74" transform="translate(1139.400391 0)"/>
     <use xlink:href="#DejaVuSans-72" transform="translate(1178.609375 0)"/>
     <use xlink:href="#DejaVuSans-65" transform="translate(1217.472656 0)"/>
     <use xlink:href="#DejaVuSans-73" transform="translate(1278.996094 0)"/>
     <use xlink:href="#DejaVuSans-73" transform="translate(1331.095703 0)"/>
     <use xlink:href="#DejaVuSans-20" transform="translate(1383.195312 0)"/>
     <use xlink:href="#DejaVuSans-76" transform="translate(1414.982422 0)"/>
     <use xlink:href="#DejaVuSans-73" transform="translate(1474.162109 0)"/>
     <use xlink:href="#DejaVuSans-20" transform="translate(1526.261719 0)"/>
     <use xlink:href="#DejaVuSans-53" transform="translate(1558.048828 0)"/>
     <use xlink:href="#DejaVuSans-74" transform="translate(1621.525391 0)"/>
     <use xlink:href="#DejaVuSans-72" transform="translate(1660.734375 0)"/>
     <use xlink:href="#DejaVuSans-61" transform="translate(1701.847656 0)"/>
     <use xlink:href="#DejaVuSans-69" transform="translate(1763.126953 0)"/>
     <use xlink:href="#DejaVuSans-6e" transform="translate(1790.910156 0)"/>
    </g>
   </g>
   <g id="legend_1">
    <g id="patch_7">
     <path d="M 64.17 64.23625 
L 170.154375 64.23625 
Q 172.154375 64.23625 172.154375 62.23625 
L 172.154375 33.88 
Q 172.154375 31.88 170.154375 31.88 
L 64.17 31.88 
Q 62.17 31.88 62.17 33.88 
L 62.17 62.23625 
Q 62.17 64.23625 64.17 64.23625 
z
" style="fill: #ffffff; opacity: 0.8; stroke: #cccccc; stroke-linejoin: miter"/>
    </g>
    <g id="line2d_27">
     <path d="M 66.17 39.978437 
L 76.17 39.978437 
L 86.17 39.978437 
" style="fill: none; stroke: #ff0000; stroke-width: 2; stroke-linecap: square"/>
    </g>
    <g id="text_16">
     <!-- Raw Force -->
     <g transform="translate(94.17 43.478437) scale(0.1 -0.1)">
      <defs>
       <path id="DejaVuSans-52" d="M 2841 2188 
Q 3044 2119 3236 1894 
Q 3428 1669 3622 1275 
L 4263 0 
L 3584 0 
L 2988 1197 
Q 2756 1666 2539 1819 
Q 2322 1972 1947 1972 
L 1259 1972 
L 1259 0 
L 628 0 
L 628 4666 
L 2053 4666 
Q 2853 4666 3247 4331 
Q 3641 3997 3641 3322 
Q 3641 2881 3436 2590 
Q 3231 2300 2841 2188 
z
M 1259 4147 
L 1259 2491 
L 2053 2491 
Q 2509 2491 2742 2702 
Q 2975 2913 2975 3322 
Q 2975 3731 2742 3939 
Q 2509 4147 2053 4147 
L 1259 4147 
z
" transform="scale(0.015625)"/>
       <path id="DejaVuSans-77" d="M 269 3500 
L 844 3500 
L 1563 769 
L 2278 3500 
L 2956 3500 
L 3675 769 
L 4391 3500 
L 4966 3500 
L 4050 0 
L 3372 0 
L 2619 2869 
L 1863 0 
L 1184 0 
L 269 3500 
z
" transform="scale(0.015625)"/>
       <path id="DejaVuSans-46" d="M 628 4666 
L 3309 4666 
L 3309 4134 
L 1259 4134 
L 1259 2759 
L 3109 2759 
L 3109 2228 
L 1259 2228 
L 1259 0 
L 628 0 
L 628 4666 
z
" transform="scale(0.015625)"/>
       <path id="DejaVuSans-6f" d="M 1959 3097 
Q 1497 3097 1228 2736 
Q 959 2375 959 1747 
Q 959 1119 1226 758 
Q 1494 397 1959 397 
Q 2419 397 2687 759 
Q 2956 1122 2956 1747 
Q 2956 2369 2687 2733 
Q 2419 3097 1959 3097 
z
M 1959 3584 
Q 2709 3584 3137 3096 
Q 3566 2609 3566 1747 
Q 3566 888 3137 398 
Q 2709 -91 1959 -91 
Q 1206 -91 779 398 
Q 353 888 353 1747 
Q 353 2609 779 3096 
Q 1206 3584 1959 3584 
z
" transform="scale(0.015625)"/>
       <path id="DejaVuSans-63" d="M 3122 3366 
L 3122 2828 
Q 2878 2963 2633 3030 
Q 2388 3097 2138 3097 
Q 1578 3097 1268 2742 
Q 959 2388 959 1747 
Q 959 1106 1268 751 
Q 1578 397 2138 397 
Q 2388 397 2633 464 
Q 2878 531 3122 666 
L 3122 134 
Q 2881 22 2623 -34 
Q 2366 -91 2075 -91 
Q 1284 -91 818 406 
Q 353 903 353 1747 
Q 353 2603 823 3093 
Q 1294 3584 2113 3584 
Q 2378 3584 2631 3529 
Q 2884 3475 3122 3366 
z
" transform="scale(0.015625)"/>
      </defs>
      <use xlink:href="#DejaVuSans-52"/>
      <use xlink:href="#DejaVuSans-61" transform="translate(67.232422 0)"/>
      <use xlink:href="#DejaVuSans-77" transform="translate(128.511719 0)"/>
      <use xlink:href="#DejaVuSans-20" transform="translate(210.298828 0)"/>
      <use xlink:href="#DejaVuSans-46" transform="translate(242.085938 0)"/>
      <use xlink:href="#DejaVuSans-6f" transform="translate(295.980469 0)"/>
      <use xlink:href="#DejaVuSans-72" transform="translate(357.162109 0)"/>
      <use xlink:href="#DejaVuSans-63" transform="translate(396.025391 0)"/>
      <use xlink:href="#DejaVuSans-65" transform="translate(451.005859 0)"/>
     </g>
    </g>
    <g id="line2d_28">
     <path d="M 66.17 54.656563 
L 76.17 54.656563 
L 86.17 54.656563 
" style="fill: none; stroke: #000000; stroke-width: 2; stroke-linecap: square"/>
    </g>
    <g id="text_17">
     <!-- Adjusted Force -->
     <g transform="translate(94.17 58.156563) scale(0.1 -0.1)">
      <defs>
       <path id="DejaVuSans-41" d="M 2188 4044 
L 1331 1722 
L 3047 1722 
L 2188 4044 
z
M 1831 4666 
L 2547 4666 
L 4325 0 
L 3669 0 
L 3244 1197 
L 1141 1197 
L 716 0 
L 50 0 
L 1831 4666 
z
" transform="scale(0.015625)"/>
       <path id="DejaVuSans-64" d="M 2906 2969 
L 2906 4863 
L 3481 4863 
L 3481 0 
L 2906 0 
L 2906 525 
Q 2725 213 2448 61 
Q 2172 -91 1784 -91 
Q 1150 -91 751 415 
Q 353 922 353 1747 
Q 353 2572 751 3078 
Q 1150 3584 1784 3584 
Q 2172 3584 2448 3432 
Q 2725 3281 2906 2969 
z
M 947 1747 
Q 947 1113 1208 752 
Q 1469 391 1925 391 
Q 2381 391 2643 752 
Q 2906 1113 2906 1747 
Q 2906 2381 2643 2742 
Q 2381 3103 1925 3103 
Q 1469 3103 1208 2742 
Q 947 2381 947 1747 
z
" transform="scale(0.015625)"/>
       <path id="DejaVuSans-6a" d="M 603 3500 
L 1178 3500 
L 1178 -63 
Q 1178 -731 923 -1031 
Q 669 -1331 103 -1331 
L -116 -1331 
L -116 -844 
L 38 -844 
Q 366 -844 484 -692 
Q 603 -541 603 -63 
L 603 3500 
z
M 603 4863 
L 1178 4863 
L 1178 4134 
L 603 4134 
L 603 4863 
z
" transform="scale(0.015625)"/>
       <path id="DejaVuSans-75" d="M 544 1381 
L 544 3500 
L 1119 3500 
L 1119 1403 
Q 1119 906 1312 657 
Q 1506 409 1894 409 
Q 2359 409 2629 706 
Q 2900 1003 2900 1516 
L 2900 3500 
L 3475 3500 
L 3475 0 
L 2900 0 
L 2900 538 
Q 2691 219 2414 64 
Q 2138 -91 1772 -91 
Q 1169 -91 856 284 
Q 544 659 544 1381 
z
M 1991 3584 
L 1991 3584 
z
" transform="scale(0.015625)"/>
      </defs>
      <use xlink:href="#DejaVuSans-41"/>
      <use xlink:href="#DejaVuSans-64" transform="translate(66.658203 0)"/>
      <use xlink:href="#DejaVuSans-6a" transform="translate(130.134766 0)"/>
      <use xlink:href="#DejaVuSans-75" transform="translate(157.917969 0)"/>
      <use xlink:href="#DejaVuSans-73" transform="translate(221.296875 0)"/>
      <use xlink:href="#DejaVuSans-74" transform="translate(273.396484 0)"/>
      <use xlink:href="#DejaVuSans-65" transform="translate(312.605469 0)"/>
      <use xlink:href="#DejaVuSans-64" transform="translate(374.128906 0)"/>
      <use xlink:href="#DejaVuSans-20" transform="translate(437.605469 0)"/>
      <use xlink:href="#DejaVuSans-46" transform="translate(469.392578 0)"/>
      <use xlink:href="#DejaVuSans-6f" transform="translate(523.287109 0)"/>
      <use xlink:href="#DejaVuSans-72" transform="translate(584.46875 0)"/>
      <use xlink:href="#DejaVuSans-63" transform="translate(623.332031 0)"/>
      <use xlink:href="#DejaVuSans-65" transform="translate(678.3125 0)"/>
     </g>
    </g>
   </g>
  </g>
 </g>
 <defs>
  <clipPath id="pc2571fb66e">
   <rect x="57.17" y="26.88" width="392.83" height="276.76"/>
  </clipPath>
 </defs>
</svg>
