<?xml version="1.0" encoding="utf-8" standalone="no"?>
<!DOCTYPE svg PUBLIC "-//W3C//DTD SVG 1.1//EN"
  "http://www.w3.org/Graphics/SVG/1.1/DTD/svg11.dtd">
<svg xmlns:xlink="http://www.w3.org/1999/xlink" width="460.8pt" height="345.6pt" viewBox="0 0 460.8 345.6" xmlns="http://www.w3.org/2000/svg" version="1.1">
 <metadata>
  <rdf:RDF xmlns:dc="http://purl.org/dc/elements/1.1/" xmlns:cc="http://creativecommons.org/ns#" xmlns:rdf="http://www.w3.org/1999/02/22-rdf-syntax-ns#">
   <cc:Work>
    <dc:type rdf:resource="http://purl.org/dc/dcmitype/StillImage"/>
    <dc:date>2025-07-28T21:14:29.551907</dc:date>
    <dc:format>image/svg+xml</dc:format>
    <dc:creator>
     <cc:Agent>
      <dc:title>Matplotlib v3.10.3, https://matplotlib.org/</dc:title>
     </cc:Agent>
    </dc:creator>
   </cc:Work>
  </rdf:RDF>
 </metadata>
 <defs>
  <style type="text/css">*{stroke-linejoin: round; stroke-linecap: butt}</style>
 </defs>
 <g id="figure_1">
  <g id="patch_1">
   <path d="M 0 345.6 
L 460.8 345.6 
L 460.8 0 
L 0 0 
z
" style="fill: #ffffff"/>
  </g>
  <g id="axes_1">
   <g id="patch_2">
    <path d="M 59.15 303.64 
L 450 303.64 
L 450 26.88 
L 59.15 26.88 
z
" style="fill: #ffffff"/>
   </g>
   <g id="matplotlib.axis_1">
    <g id="xtick_1">
     <g id="line2d_1">
      <path d="M 77.184684 303.64 
L 77.184684 26.88 
" clip-path="url(#pd8fd493137)" style="fill: none; stroke: #b0b0b0; stroke-opacity: 0.3; stroke-width: 0.8; stroke-linecap: square"/>
     </g>
     <g id="line2d_2">
      <defs>
       <path id="mbc73746f27" d="M 0 0 
L 0 3.5 
" style="stroke: #000000; stroke-width: 0.8"/>
      </defs>
      <g>
       <use xlink:href="#mbc73746f27" x="77.184684" y="303.64" style="stroke: #000000; stroke-width: 0.8"/>
      </g>
     </g>
     <g id="text_1">
      <!-- 0.00 -->
      <g transform="translate(66.051872 318.238437) scale(0.1 -0.1)">
       <defs>
        <path id="DejaVuSans-30" d="M 2034 4250 
Q 1547 4250 1301 3770 
Q 1056 3291 1056 2328 
Q 1056 1369 1301 889 
Q 1547 409 2034 409 
Q 2525 409 2770 889 
Q 3016 1369 3016 2328 
Q 3016 3291 2770 3770 
Q 2525 4250 2034 4250 
z
M 2034 4750 
Q 2819 4750 3233 4129 
Q 3647 3509 3647 2328 
Q 3647 1150 3233 529 
Q 2819 -91 2034 -91 
Q 1250 -91 836 529 
Q 422 1150 422 2328 
Q 422 3509 836 4129 
Q 1250 4750 2034 4750 
z
" transform="scale(0.015625)"/>
        <path id="DejaVuSans-2e" d="M 684 794 
L 1344 794 
L 1344 0 
L 684 0 
L 684 794 
z
" transform="scale(0.015625)"/>
       </defs>
       <use xlink:href="#DejaVuSans-30"/>
       <use xlink:href="#DejaVuSans-2e" transform="translate(63.623047 0)"/>
       <use xlink:href="#DejaVuSans-30" transform="translate(95.410156 0)"/>
       <use xlink:href="#DejaVuSans-30" transform="translate(159.033203 0)"/>
      </g>
     </g>
    </g>
    <g id="xtick_2">
     <g id="line2d_3">
      <path d="M 143.412966 303.64 
L 143.412966 26.88 
" clip-path="url(#pd8fd493137)" style="fill: none; stroke: #b0b0b0; stroke-opacity: 0.3; stroke-width: 0.8; stroke-linecap: square"/>
     </g>
     <g id="line2d_4">
      <g>
       <use xlink:href="#mbc73746f27" x="143.412966" y="303.64" style="stroke: #000000; stroke-width: 0.8"/>
      </g>
     </g>
     <g id="text_2">
      <!-- 0.02 -->
      <g transform="translate(132.280154 318.238437) scale(0.1 -0.1)">
       <defs>
        <path id="DejaVuSans-32" d="M 1228 531 
L 3431 531 
L 3431 0 
L 469 0 
L 469 531 
Q 828 903 1448 1529 
Q 2069 2156 2228 2338 
Q 2531 2678 2651 2914 
Q 2772 3150 2772 3378 
Q 2772 3750 2511 3984 
Q 2250 4219 1831 4219 
Q 1534 4219 1204 4116 
Q 875 4013 500 3803 
L 500 4441 
Q 881 4594 1212 4672 
Q 1544 4750 1819 4750 
Q 2544 4750 2975 4387 
Q 3406 4025 3406 3419 
Q 3406 3131 3298 2873 
Q 3191 2616 2906 2266 
Q 2828 2175 2409 1742 
Q 1991 1309 1228 531 
z
" transform="scale(0.015625)"/>
       </defs>
       <use xlink:href="#DejaVuSans-30"/>
       <use xlink:href="#DejaVuSans-2e" transform="translate(63.623047 0)"/>
       <use xlink:href="#DejaVuSans-30" transform="translate(95.410156 0)"/>
       <use xlink:href="#DejaVuSans-32" transform="translate(159.033203 0)"/>
      </g>
     </g>
    </g>
    <g id="xtick_3">
     <g id="line2d_5">
      <path d="M 209.641249 303.64 
L 209.641249 26.88 
" clip-path="url(#pd8fd493137)" style="fill: none; stroke: #b0b0b0; stroke-opacity: 0.3; stroke-width: 0.8; stroke-linecap: square"/>
     </g>
     <g id="line2d_6">
      <g>
       <use xlink:href="#mbc73746f27" x="209.641249" y="303.64" style="stroke: #000000; stroke-width: 0.8"/>
      </g>
     </g>
     <g id="text_3">
      <!-- 0.04 -->
      <g transform="translate(198.508436 318.238437) scale(0.1 -0.1)">
       <defs>
        <path id="DejaVuSans-34" d="M 2419 4116 
L 825 1625 
L 2419 1625 
L 2419 4116 
z
M 2253 4666 
L 3047 4666 
L 3047 1625 
L 3713 1625 
L 3713 1100 
L 3047 1100 
L 3047 0 
L 2419 0 
L 2419 1100 
L 313 1100 
L 313 1709 
L 2253 4666 
z
" transform="scale(0.015625)"/>
       </defs>
       <use xlink:href="#DejaVuSans-30"/>
       <use xlink:href="#DejaVuSans-2e" transform="translate(63.623047 0)"/>
       <use xlink:href="#DejaVuSans-30" transform="translate(95.410156 0)"/>
       <use xlink:href="#DejaVuSans-34" transform="translate(159.033203 0)"/>
      </g>
     </g>
    </g>
    <g id="xtick_4">
     <g id="line2d_7">
      <path d="M 275.869531 303.64 
L 275.869531 26.88 
" clip-path="url(#pd8fd493137)" style="fill: none; stroke: #b0b0b0; stroke-opacity: 0.3; stroke-width: 0.8; stroke-linecap: square"/>
     </g>
     <g id="line2d_8">
      <g>
       <use xlink:href="#mbc73746f27" x="275.869531" y="303.64" style="stroke: #000000; stroke-width: 0.8"/>
      </g>
     </g>
     <g id="text_4">
      <!-- 0.06 -->
      <g transform="translate(264.736718 318.238437) scale(0.1 -0.1)">
       <defs>
        <path id="DejaVuSans-36" d="M 2113 2584 
Q 1688 2584 1439 2293 
Q 1191 2003 1191 1497 
Q 1191 994 1439 701 
Q 1688 409 2113 409 
Q 2538 409 2786 701 
Q 3034 994 3034 1497 
Q 3034 2003 2786 2293 
Q 2538 2584 2113 2584 
z
M 3366 4563 
L 3366 3988 
Q 3128 4100 2886 4159 
Q 2644 4219 2406 4219 
Q 1781 4219 1451 3797 
Q 1122 3375 1075 2522 
Q 1259 2794 1537 2939 
Q 1816 3084 2150 3084 
Q 2853 3084 3261 2657 
Q 3669 2231 3669 1497 
Q 3669 778 3244 343 
Q 2819 -91 2113 -91 
Q 1303 -91 875 529 
Q 447 1150 447 2328 
Q 447 3434 972 4092 
Q 1497 4750 2381 4750 
Q 2619 4750 2861 4703 
Q 3103 4656 3366 4563 
z
" transform="scale(0.015625)"/>
       </defs>
       <use xlink:href="#DejaVuSans-30"/>
       <use xlink:href="#DejaVuSans-2e" transform="translate(63.623047 0)"/>
       <use xlink:href="#DejaVuSans-30" transform="translate(95.410156 0)"/>
       <use xlink:href="#DejaVuSans-36" transform="translate(159.033203 0)"/>
      </g>
     </g>
    </g>
    <g id="xtick_5">
     <g id="line2d_9">
      <path d="M 342.097813 303.64 
L 342.097813 26.88 
" clip-path="url(#pd8fd493137)" style="fill: none; stroke: #b0b0b0; stroke-opacity: 0.3; stroke-width: 0.8; stroke-linecap: square"/>
     </g>
     <g id="line2d_10">
      <g>
       <use xlink:href="#mbc73746f27" x="342.097813" y="303.64" style="stroke: #000000; stroke-width: 0.8"/>
      </g>
     </g>
     <g id="text_5">
      <!-- 0.08 -->
      <g transform="translate(330.965001 318.238437) scale(0.1 -0.1)">
       <defs>
        <path id="DejaVuSans-38" d="M 2034 2216 
Q 1584 2216 1326 1975 
Q 1069 1734 1069 1313 
Q 1069 891 1326 650 
Q 1584 409 2034 409 
Q 2484 409 2743 651 
Q 3003 894 3003 1313 
Q 3003 1734 2745 1975 
Q 2488 2216 2034 2216 
z
M 1403 2484 
Q 997 2584 770 2862 
Q 544 3141 544 3541 
Q 544 4100 942 4425 
Q 1341 4750 2034 4750 
Q 2731 4750 3128 4425 
Q 3525 4100 3525 3541 
Q 3525 3141 3298 2862 
Q 3072 2584 2669 2484 
Q 3125 2378 3379 2068 
Q 3634 1759 3634 1313 
Q 3634 634 3220 271 
Q 2806 -91 2034 -91 
Q 1263 -91 848 271 
Q 434 634 434 1313 
Q 434 1759 690 2068 
Q 947 2378 1403 2484 
z
M 1172 3481 
Q 1172 3119 1398 2916 
Q 1625 2713 2034 2713 
Q 2441 2713 2670 2916 
Q 2900 3119 2900 3481 
Q 2900 3844 2670 4047 
Q 2441 4250 2034 4250 
Q 1625 4250 1398 4047 
Q 1172 3844 1172 3481 
z
" transform="scale(0.015625)"/>
       </defs>
       <use xlink:href="#DejaVuSans-30"/>
       <use xlink:href="#DejaVuSans-2e" transform="translate(63.623047 0)"/>
       <use xlink:href="#DejaVuSans-30" transform="translate(95.410156 0)"/>
       <use xlink:href="#DejaVuSans-38" transform="translate(159.033203 0)"/>
      </g>
     </g>
    </g>
    <g id="xtick_6">
     <g id="line2d_11">
      <path d="M 408.326095 303.64 
L 408.326095 26.88 
" clip-path="url(#pd8fd493137)" style="fill: none; stroke: #b0b0b0; stroke-opacity: 0.3; stroke-width: 0.8; stroke-linecap: square"/>
     </g>
     <g id="line2d_12">
      <g>
       <use xlink:href="#mbc73746f27" x="408.326095" y="303.64" style="stroke: #000000; stroke-width: 0.8"/>
      </g>
     </g>
     <g id="text_6">
      <!-- 0.10 -->
      <g transform="translate(397.193283 318.238437) scale(0.1 -0.1)">
       <defs>
        <path id="DejaVuSans-31" d="M 794 531 
L 1825 531 
L 1825 4091 
L 703 3866 
L 703 4441 
L 1819 4666 
L 2450 4666 
L 2450 531 
L 3481 531 
L 3481 0 
L 794 0 
L 794 531 
z
" transform="scale(0.015625)"/>
       </defs>
       <use xlink:href="#DejaVuSans-30"/>
       <use xlink:href="#DejaVuSans-2e" transform="translate(63.623047 0)"/>
       <use xlink:href="#DejaVuSans-31" transform="translate(95.410156 0)"/>
       <use xlink:href="#DejaVuSans-30" transform="translate(159.033203 0)"/>
      </g>
     </g>
    </g>
    <g id="text_7">
     <!-- Strain [-] -->
     <g transform="translate(232.46875 331.916562) scale(0.1 -0.1)">
      <defs>
       <path id="DejaVuSans-53" d="M 3425 4513 
L 3425 3897 
Q 3066 4069 2747 4153 
Q 2428 4238 2131 4238 
Q 1616 4238 1336 4038 
Q 1056 3838 1056 3469 
Q 1056 3159 1242 3001 
Q 1428 2844 1947 2747 
L 2328 2669 
Q 3034 2534 3370 2195 
Q 3706 1856 3706 1288 
Q 3706 609 3251 259 
Q 2797 -91 1919 -91 
Q 1588 -91 1214 -16 
Q 841 59 441 206 
L 441 856 
Q 825 641 1194 531 
Q 1563 422 1919 422 
Q 2459 422 2753 634 
Q 3047 847 3047 1241 
Q 3047 1584 2836 1778 
Q 2625 1972 2144 2069 
L 1759 2144 
Q 1053 2284 737 2584 
Q 422 2884 422 3419 
Q 422 4038 858 4394 
Q 1294 4750 2059 4750 
Q 2388 4750 2728 4690 
Q 3069 4631 3425 4513 
z
" transform="scale(0.015625)"/>
       <path id="DejaVuSans-74" d="M 1172 4494 
L 1172 3500 
L 2356 3500 
L 2356 3053 
L 1172 3053 
L 1172 1153 
Q 1172 725 1289 603 
Q 1406 481 1766 481 
L 2356 481 
L 2356 0 
L 1766 0 
Q 1100 0 847 248 
Q 594 497 594 1153 
L 594 3053 
L 172 3053 
L 172 3500 
L 594 3500 
L 594 4494 
L 1172 4494 
z
" transform="scale(0.015625)"/>
       <path id="DejaVuSans-72" d="M 2631 2963 
Q 2534 3019 2420 3045 
Q 2306 3072 2169 3072 
Q 1681 3072 1420 2755 
Q 1159 2438 1159 1844 
L 1159 0 
L 581 0 
L 581 3500 
L 1159 3500 
L 1159 2956 
Q 1341 3275 1631 3429 
Q 1922 3584 2338 3584 
Q 2397 3584 2469 3576 
Q 2541 3569 2628 3553 
L 2631 2963 
z
" transform="scale(0.015625)"/>
       <path id="DejaVuSans-61" d="M 2194 1759 
Q 1497 1759 1228 1600 
Q 959 1441 959 1056 
Q 959 750 1161 570 
Q 1363 391 1709 391 
Q 2188 391 2477 730 
Q 2766 1069 2766 1631 
L 2766 1759 
L 2194 1759 
z
M 3341 1997 
L 3341 0 
L 2766 0 
L 2766 531 
Q 2569 213 2275 61 
Q 1981 -91 1556 -91 
Q 1019 -91 701 211 
Q 384 513 384 1019 
Q 384 1609 779 1909 
Q 1175 2209 1959 2209 
L 2766 2209 
L 2766 2266 
Q 2766 2663 2505 2880 
Q 2244 3097 1772 3097 
Q 1472 3097 1187 3025 
Q 903 2953 641 2809 
L 641 3341 
Q 956 3463 1253 3523 
Q 1550 3584 1831 3584 
Q 2591 3584 2966 3190 
Q 3341 2797 3341 1997 
z
" transform="scale(0.015625)"/>
       <path id="DejaVuSans-69" d="M 603 3500 
L 1178 3500 
L 1178 0 
L 603 0 
L 603 3500 
z
M 603 4863 
L 1178 4863 
L 1178 4134 
L 603 4134 
L 603 4863 
z
" transform="scale(0.015625)"/>
       <path id="DejaVuSans-6e" d="M 3513 2113 
L 3513 0 
L 2938 0 
L 2938 2094 
Q 2938 2591 2744 2837 
Q 2550 3084 2163 3084 
Q 1697 3084 1428 2787 
Q 1159 2491 1159 1978 
L 1159 0 
L 581 0 
L 581 3500 
L 1159 3500 
L 1159 2956 
Q 1366 3272 1645 3428 
Q 1925 3584 2291 3584 
Q 2894 3584 3203 3211 
Q 3513 2838 3513 2113 
z
" transform="scale(0.015625)"/>
       <path id="DejaVuSans-20" transform="scale(0.015625)"/>
       <path id="DejaVuSans-5b" d="M 550 4863 
L 1875 4863 
L 1875 4416 
L 1125 4416 
L 1125 -397 
L 1875 -397 
L 1875 -844 
L 550 -844 
L 550 4863 
z
" transform="scale(0.015625)"/>
       <path id="DejaVuSans-2d" d="M 313 2009 
L 1997 2009 
L 1997 1497 
L 313 1497 
L 313 2009 
z
" transform="scale(0.015625)"/>
       <path id="DejaVuSans-5d" d="M 1947 4863 
L 1947 -844 
L 622 -844 
L 622 -397 
L 1369 -397 
L 1369 4416 
L 622 4416 
L 622 4863 
L 1947 4863 
z
" transform="scale(0.015625)"/>
      </defs>
      <use xlink:href="#DejaVuSans-53"/>
      <use xlink:href="#DejaVuSans-74" transform="translate(63.476562 0)"/>
      <use xlink:href="#DejaVuSans-72" transform="translate(102.685547 0)"/>
      <use xlink:href="#DejaVuSans-61" transform="translate(143.798828 0)"/>
      <use xlink:href="#DejaVuSans-69" transform="translate(205.078125 0)"/>
      <use xlink:href="#DejaVuSans-6e" transform="translate(232.861328 0)"/>
      <use xlink:href="#DejaVuSans-20" transform="translate(296.240234 0)"/>
      <use xlink:href="#DejaVuSans-5b" transform="translate(328.027344 0)"/>
      <use xlink:href="#DejaVuSans-2d" transform="translate(367.041016 0)"/>
      <use xlink:href="#DejaVuSans-5d" transform="translate(403.125 0)"/>
     </g>
    </g>
   </g>
   <g id="matplotlib.axis_2">
    <g id="ytick_1">
     <g id="line2d_13">
      <path d="M 59.15 303.113277 
L 450 303.113277 
" clip-path="url(#pd8fd493137)" style="fill: none; stroke: #b0b0b0; stroke-opacity: 0.3; stroke-width: 0.8; stroke-linecap: square"/>
     </g>
     <g id="line2d_14">
      <defs>
       <path id="mec632ce175" d="M 0 0 
L -3.5 0 
" style="stroke: #000000; stroke-width: 0.8"/>
      </defs>
      <g>
       <use xlink:href="#mec632ce175" x="59.15" y="303.113277" style="stroke: #000000; stroke-width: 0.8"/>
      </g>
     </g>
     <g id="text_8">
      <!-- −200 -->
      <g transform="translate(24.682813 306.912496) scale(0.1 -0.1)">
       <defs>
        <path id="DejaVuSans-2212" d="M 678 2272 
L 4684 2272 
L 4684 1741 
L 678 1741 
L 678 2272 
z
" transform="scale(0.015625)"/>
       </defs>
       <use xlink:href="#DejaVuSans-2212"/>
       <use xlink:href="#DejaVuSans-32" transform="translate(83.789062 0)"/>
       <use xlink:href="#DejaVuSans-30" transform="translate(147.412109 0)"/>
       <use xlink:href="#DejaVuSans-30" transform="translate(211.035156 0)"/>
      </g>
     </g>
    </g>
    <g id="ytick_2">
     <g id="line2d_15">
      <path d="M 59.15 253.482193 
L 450 253.482193 
" clip-path="url(#pd8fd493137)" style="fill: none; stroke: #b0b0b0; stroke-opacity: 0.3; stroke-width: 0.8; stroke-linecap: square"/>
     </g>
     <g id="line2d_16">
      <g>
       <use xlink:href="#mec632ce175" x="59.15" y="253.482193" style="stroke: #000000; stroke-width: 0.8"/>
      </g>
     </g>
     <g id="text_9">
      <!-- 0 -->
      <g transform="translate(45.7875 257.281412) scale(0.1 -0.1)">
       <use xlink:href="#DejaVuSans-30"/>
      </g>
     </g>
    </g>
    <g id="ytick_3">
     <g id="line2d_17">
      <path d="M 59.15 203.85111 
L 450 203.85111 
" clip-path="url(#pd8fd493137)" style="fill: none; stroke: #b0b0b0; stroke-opacity: 0.3; stroke-width: 0.8; stroke-linecap: square"/>
     </g>
     <g id="line2d_18">
      <g>
       <use xlink:href="#mec632ce175" x="59.15" y="203.85111" style="stroke: #000000; stroke-width: 0.8"/>
      </g>
     </g>
     <g id="text_10">
      <!-- 200 -->
      <g transform="translate(33.0625 207.650329) scale(0.1 -0.1)">
       <use xlink:href="#DejaVuSans-32"/>
       <use xlink:href="#DejaVuSans-30" transform="translate(63.623047 0)"/>
       <use xlink:href="#DejaVuSans-30" transform="translate(127.246094 0)"/>
      </g>
     </g>
    </g>
    <g id="ytick_4">
     <g id="line2d_19">
      <path d="M 59.15 154.220026 
L 450 154.220026 
" clip-path="url(#pd8fd493137)" style="fill: none; stroke: #b0b0b0; stroke-opacity: 0.3; stroke-width: 0.8; stroke-linecap: square"/>
     </g>
     <g id="line2d_20">
      <g>
       <use xlink:href="#mec632ce175" x="59.15" y="154.220026" style="stroke: #000000; stroke-width: 0.8"/>
      </g>
     </g>
     <g id="text_11">
      <!-- 400 -->
      <g transform="translate(33.0625 158.019245) scale(0.1 -0.1)">
       <use xlink:href="#DejaVuSans-34"/>
       <use xlink:href="#DejaVuSans-30" transform="translate(63.623047 0)"/>
       <use xlink:href="#DejaVuSans-30" transform="translate(127.246094 0)"/>
      </g>
     </g>
    </g>
    <g id="ytick_5">
     <g id="line2d_21">
      <path d="M 59.15 104.588943 
L 450 104.588943 
" clip-path="url(#pd8fd493137)" style="fill: none; stroke: #b0b0b0; stroke-opacity: 0.3; stroke-width: 0.8; stroke-linecap: square"/>
     </g>
     <g id="line2d_22">
      <g>
       <use xlink:href="#mec632ce175" x="59.15" y="104.588943" style="stroke: #000000; stroke-width: 0.8"/>
      </g>
     </g>
     <g id="text_12">
      <!-- 600 -->
      <g transform="translate(33.0625 108.388161) scale(0.1 -0.1)">
       <use xlink:href="#DejaVuSans-36"/>
       <use xlink:href="#DejaVuSans-30" transform="translate(63.623047 0)"/>
       <use xlink:href="#DejaVuSans-30" transform="translate(127.246094 0)"/>
      </g>
     </g>
    </g>
    <g id="ytick_6">
     <g id="line2d_23">
      <path d="M 59.15 54.957859 
L 450 54.957859 
" clip-path="url(#pd8fd493137)" style="fill: none; stroke: #b0b0b0; stroke-opacity: 0.3; stroke-width: 0.8; stroke-linecap: square"/>
     </g>
     <g id="line2d_24">
      <g>
       <use xlink:href="#mec632ce175" x="59.15" y="54.957859" style="stroke: #000000; stroke-width: 0.8"/>
      </g>
     </g>
     <g id="text_13">
      <!-- 800 -->
      <g transform="translate(33.0625 58.757078) scale(0.1 -0.1)">
       <use xlink:href="#DejaVuSans-38"/>
       <use xlink:href="#DejaVuSans-30" transform="translate(63.623047 0)"/>
       <use xlink:href="#DejaVuSans-30" transform="translate(127.246094 0)"/>
      </g>
     </g>
    </g>
    <g id="text_14">
     <!-- Stress [Pa] -->
     <g transform="translate(18.603125 191.967812) rotate(-90) scale(0.1 -0.1)">
      <defs>
       <path id="DejaVuSans-65" d="M 3597 1894 
L 3597 1613 
L 953 1613 
Q 991 1019 1311 708 
Q 1631 397 2203 397 
Q 2534 397 2845 478 
Q 3156 559 3463 722 
L 3463 178 
Q 3153 47 2828 -22 
Q 2503 -91 2169 -91 
Q 1331 -91 842 396 
Q 353 884 353 1716 
Q 353 2575 817 3079 
Q 1281 3584 2069 3584 
Q 2775 3584 3186 3129 
Q 3597 2675 3597 1894 
z
M 3022 2063 
Q 3016 2534 2758 2815 
Q 2500 3097 2075 3097 
Q 1594 3097 1305 2825 
Q 1016 2553 972 2059 
L 3022 2063 
z
" transform="scale(0.015625)"/>
       <path id="DejaVuSans-73" d="M 2834 3397 
L 2834 2853 
Q 2591 2978 2328 3040 
Q 2066 3103 1784 3103 
Q 1356 3103 1142 2972 
Q 928 2841 928 2578 
Q 928 2378 1081 2264 
Q 1234 2150 1697 2047 
L 1894 2003 
Q 2506 1872 2764 1633 
Q 3022 1394 3022 966 
Q 3022 478 2636 193 
Q 2250 -91 1575 -91 
Q 1294 -91 989 -36 
Q 684 19 347 128 
L 347 722 
Q 666 556 975 473 
Q 1284 391 1588 391 
Q 1994 391 2212 530 
Q 2431 669 2431 922 
Q 2431 1156 2273 1281 
Q 2116 1406 1581 1522 
L 1381 1569 
Q 847 1681 609 1914 
Q 372 2147 372 2553 
Q 372 3047 722 3315 
Q 1072 3584 1716 3584 
Q 2034 3584 2315 3537 
Q 2597 3491 2834 3397 
z
" transform="scale(0.015625)"/>
       <path id="DejaVuSans-50" d="M 1259 4147 
L 1259 2394 
L 2053 2394 
Q 2494 2394 2734 2622 
Q 2975 2850 2975 3272 
Q 2975 3691 2734 3919 
Q 2494 4147 2053 4147 
L 1259 4147 
z
M 628 4666 
L 2053 4666 
Q 2838 4666 3239 4311 
Q 3641 3956 3641 3272 
Q 3641 2581 3239 2228 
Q 2838 1875 2053 1875 
L 1259 1875 
L 1259 0 
L 628 0 
L 628 4666 
z
" transform="scale(0.015625)"/>
      </defs>
      <use xlink:href="#DejaVuSans-53"/>
      <use xlink:href="#DejaVuSans-74" transform="translate(63.476562 0)"/>
      <use xlink:href="#DejaVuSans-72" transform="translate(102.685547 0)"/>
      <use xlink:href="#DejaVuSans-65" transform="translate(141.548828 0)"/>
      <use xlink:href="#DejaVuSans-73" transform="translate(203.072266 0)"/>
      <use xlink:href="#DejaVuSans-73" transform="translate(255.171875 0)"/>
      <use xlink:href="#DejaVuSans-20" transform="translate(307.271484 0)"/>
      <use xlink:href="#DejaVuSans-5b" transform="translate(339.058594 0)"/>
      <use xlink:href="#DejaVuSans-50" transform="translate(378.072266 0)"/>
      <use xlink:href="#DejaVuSans-61" transform="translate(433.875 0)"/>
      <use xlink:href="#DejaVuSans-5d" transform="translate(495.154297 0)"/>
     </g>
    </g>
   </g>
   <g id="line2d_25">
    <path d="M 77.184684 254.091933 
L 77.209903 255.130161 
L 78.446941 242.606171 
L 79.634804 239.84606 
L 80.867331 240.768081 
L 82.171138 242.176353 
L 83.426222 243.193322 
L 84.791385 243.885426 
L 86.004061 244.219969 
L 87.281701 244.340011 
L 88.615284 244.248692 
L 91.453885 243.836987 
L 92.648514 243.762506 
L 95.135222 244.063111 
L 96.418276 244.27001 
L 97.72479 244.782156 
L 99.043937 245.897474 
L 100.364887 247.272265 
L 102.985134 250.431984 
L 104.264579 251.621587 
L 105.509738 252.002983 
L 106.722414 251.48142 
L 108.193144 250.014557 
L 113.796357 242.778592 
L 115.175055 241.322192 
L 116.559166 240.054119 
L 119.356261 237.952174 
L 120.771049 237.1047 
L 123.636718 235.762342 
L 129.465504 233.409293 
L 132.406965 231.971202 
L 138.297109 229.292242 
L 139.76784 228.353743 
L 142.714715 226.842937 
L 145.656176 225.347825 
L 150.053932 222.747858 
L 152.977347 220.786112 
L 172.017444 209.09934 
L 174.964319 207.061217 
L 178.813483 204.75525 
L 182.386546 202.730728 
L 184.774002 201.25131 
L 189.557937 198.523698 
L 195.556353 194.949659 
L 197.963405 193.702679 
L 201.57256 191.296271 
L 206.398001 188.205606 
L 210.027006 186.199917 
L 216.074145 182.837223 
L 218.483256 181.421627 
L 228.051126 175.464197 
L 230.422341 174.040231 
L 234.554823 171.480022 
L 236.021945 170.585466 
L 244.779559 164.327758 
L 246.239462 163.217671 
L 249.162878 161.419143 
L 252.091707 159.76186 
L 259.438142 155.176083 
L 262.381408 153.715497 
L 266.777358 151.142733 
L 269.693556 149.254226 
L 274.057024 146.228429 
L 278.416883 143.146134 
L 284.245668 138.935965 
L 287.169084 137.113373 
L 291.570448 134.070836 
L 295.991663 131.303466 
L 306.322869 125.048897 
L 316.585487 117.726092 
L 320.981438 114.387462 
L 323.926509 112.352478 
L 337.255118 103.901799 
L 339.624528 102.643143 
L 342.284475 100.942964 
L 351.099131 94.684389 
L 354.027961 92.326109 
L 356.958594 90.041068 
L 359.898251 88.092923 
L 362.841517 86.157334 
L 367.257318 82.892989 
L 368.729853 81.707571 
L 371.683947 79.761519 
L 379.373251 74.825243 
L 386.172899 69.975807 
L 396.874044 61.927941 
L 402.867046 58.163482 
L 407.916253 55.483475 
L 410.821623 54.427271 
L 416.309343 53.006182 
L 420.223472 51.91676 
L 422.782363 51.332682 
L 424.105118 50.824721 
L 425.296139 50.097567 
L 426.493476 49.193072 
L 427.757583 47.994052 
L 428.953566 46.586304 
L 430.174138 44.205006 
L 431.361098 40.091094 
L 431.735548 39.608324 
L 432.234091 41.170692 
L 431.982663 58.171786 
L 431.980971 57.847984 
L 431.982324 77.442637 
L 431.968141 77.253051 
L 430.784028 77.196618 
L 429.597293 80.621042 
L 428.395896 83.089441 
L 427.203972 82.403059 
L 426.009793 81.987578 
L 424.73125 82.152103 
L 423.514062 82.508879 
L 422.280183 82.639956 
L 421.067506 82.282134 
L 419.824153 82.713734 
L 418.620951 82.696013 
L 417.424065 85.794002 
L 416.191538 87.633335 
L 412.622084 91.231177 
L 411.368805 90.726011 
L 410.12906 90.648342 
L 408.8808 90.942572 
L 407.680756 91.669333 
L 406.451388 92.556696 
L 405.230816 93.229575 
L 404.032126 96.931259 
L 402.800276 97.976346 
L 401.576773 98.31236 
L 400.384398 98.818622 
L 399.17894 98.89719 
L 397.976641 99.5736 
L 396.791033 100.524262 
L 395.599335 101.774286 
L 393.186164 103.529264 
L 391.990631 104.802306 
L 390.79961 105.369774 
L 389.586483 106.219733 
L 388.397267 107.499576 
L 387.209855 107.830915 
L 386.012969 107.768515 
L 384.817436 108.595064 
L 382.414641 110.773648 
L 381.231966 112.171458 
L 380.013115 113.213406 
L 377.580093 114.536669 
L 376.374636 115.046919 
L 375.157674 115.95233 
L 373.966878 117.351178 
L 372.742021 118.292816 
L 371.542428 119.03344 
L 369.140536 120.34611 
L 367.922446 121.194238 
L 366.726462 122.275945 
L 363.086629 124.704063 
L 360.631502 126.220623 
L 358.189232 128.062049 
L 354.5697 130.207937 
L 350.881595 133.168343 
L 349.642161 134.191483 
L 347.245231 135.865375 
L 346.047893 136.712588 
L 344.837924 137.357479 
L 343.62615 137.842161 
L 337.536378 142.359931 
L 333.926321 144.12171 
L 330.293706 146.915498 
L 327.859783 148.305068 
L 325.425408 149.699346 
L 324.214311 150.600833 
L 323.016522 151.692872 
L 320.602477 153.155983 
L 319.396568 153.785965 
L 313.330467 157.897261 
L 310.931732 158.987338 
L 307.231446 161.786095 
L 303.6259 163.733324 
L 301.20145 165.78191 
L 299.978172 166.944049 
L 298.776324 167.726262 
L 296.327061 168.745193 
L 295.086865 169.392307 
L 293.889528 170.239782 
L 292.65249 171.382041 
L 291.443423 172.21526 
L 289.050553 173.311222 
L 286.658135 174.871725 
L 282.953788 177.649034 
L 281.757354 178.232915 
L 280.560468 178.643312 
L 274.559345 182.724136 
L 273.361557 183.331624 
L 272.174145 183.792111 
L 270.94613 184.450865 
L 267.297049 187.259427 
L 263.679773 189.035657 
L 262.470706 189.54715 
L 261.285846 190.273102 
L 260.056929 191.408561 
L 258.869517 192.326919 
L 256.446871 193.631349 
L 254.016557 194.607351 
L 252.778165 195.372693 
L 251.56188 196.392278 
L 249.113971 198.016604 
L 247.920243 198.707661 
L 246.712529 199.227001 
L 243.101344 201.446128 
L 239.436473 203.822194 
L 234.59434 206.490692 
L 233.359558 207.388125 
L 228.52439 210.14869 
L 227.331113 210.59211 
L 224.894032 211.991619 
L 223.691957 212.812545 
L 218.780123 215.42134 
L 217.572861 216.008163 
L 216.355673 216.783184 
L 215.166908 217.86816 
L 212.732984 219.545453 
L 209.119318 220.951305 
L 203.059095 224.787042 
L 201.844248 225.308594 
L 199.455439 226.762117 
L 195.782221 228.938151 
L 194.555553 229.6211 
L 193.325733 230.573986 
L 190.845792 231.777713 
L 189.612815 232.283516 
L 187.152273 233.641306 
L 185.917491 234.479495 
L 182.346232 236.519579 
L 179.954265 237.528962 
L 178.718129 238.273903 
L 177.486956 239.231627 
L 175.021904 240.508331 
L 172.573254 241.911372 
L 171.350653 242.616554 
L 168.93703 244.182027 
L 166.533333 245.479264 
L 164.092642 246.484855 
L 161.676087 248.199944 
L 158.043022 249.98461 
L 156.838917 250.450721 
L 155.600977 251.066186 
L 154.393715 252.06563 
L 150.754784 254.273379 
L 147.146983 255.856181 
L 144.672005 257.237381 
L 143.482337 257.886588 
L 142.286262 258.69545 
L 139.890234 259.734391 
L 138.702822 260.181538 
L 135.019683 262.392949 
L 131.447522 264.434211 
L 130.261915 264.934718 
L 127.832953 266.481358 
L 126.625465 267.20982 
L 125.400157 267.692736 
L 124.215001 268.308725 
L 121.832508 269.355251 
L 120.599079 269.967185 
L 116.921801 272.267919 
L 114.521262 273.28188 
L 112.098825 274.52981 
L 110.87081 275.370745 
L 109.630614 276.020606 
L 104.809685 278.079001 
L 103.580317 278.975649 
L 101.200981 280.039897 
L 100.006351 280.488613 
L 97.540396 281.75904 
L 96.319148 282.645487 
L 92.70503 284.439504 
L 90.333815 285.504144 
L 86.647965 287.62466 
L 85.456042 288.509538 
L 83.037047 289.2459 
L 81.852793 289.36143 
L 79.426989 289.405701 
L 78.241946 290.039018 
L 77.205385 291.06 
L 76.915909 289.770961 
L 76.917213 289.785707 
" clip-path="url(#pd8fd493137)" style="fill: none; stroke: #ff0000; stroke-width: 2; stroke-linecap: square"/>
   </g>
   <g id="line2d_26">
    <path d="M 77.184684 254.091933 
L 77.209903 255.130161 
L 78.446941 242.606171 
L 79.634804 239.84606 
L 80.867331 240.768081 
L 82.171138 242.176353 
L 83.426222 243.193322 
L 84.791385 243.885426 
L 86.004061 259.256864 
L 87.281701 258.956308 
L 88.615284 258.112725 
L 91.453885 255.534206 
L 92.648514 254.302557 
L 93.875627 253.363077 
L 95.135222 252.65711 
L 97.72479 250.825362 
L 99.043937 250.421504 
L 100.364887 250.567981 
L 101.680424 250.84001 
L 105.509738 252.002983 
L 106.722414 251.48142 
L 108.193144 250.014557 
L 113.796357 242.778592 
L 115.175055 241.322192 
L 116.559166 240.054119 
L 119.356261 237.952174 
L 120.771049 237.1047 
L 123.636718 235.762342 
L 129.465504 233.409293 
L 132.406965 231.971202 
L 138.297109 229.292242 
L 139.76784 228.353743 
L 142.714715 226.842937 
L 145.656176 225.347825 
L 150.053932 222.747858 
L 152.977347 220.786112 
L 172.017444 209.09934 
L 174.964319 207.061217 
L 178.813483 204.75525 
L 182.386546 202.730728 
L 184.774002 201.25131 
L 189.557937 198.523698 
L 195.556353 194.949659 
L 197.963405 193.702679 
L 201.57256 191.296271 
L 206.398001 188.205606 
L 210.027006 186.199917 
L 216.074145 182.837223 
L 218.483256 181.421627 
L 228.051126 175.464197 
L 230.422341 174.040231 
L 234.554823 171.480022 
L 236.021945 170.585466 
L 244.779559 164.327758 
L 246.239462 163.217671 
L 249.162878 161.419143 
L 252.091707 159.76186 
L 259.438142 155.176083 
L 262.381408 153.715497 
L 266.777358 151.142733 
L 269.693556 149.254226 
L 274.057024 146.228429 
L 278.416883 143.146134 
L 284.245668 138.935965 
L 287.169084 137.113373 
L 291.570448 134.070836 
L 295.991663 131.303466 
L 306.322869 125.048897 
L 316.585487 117.726092 
L 320.981438 114.387462 
L 323.926509 112.352478 
L 337.255118 103.901799 
L 339.624528 102.643143 
L 342.284475 100.942964 
L 351.099131 94.684389 
L 354.027961 92.326109 
L 356.958594 90.041068 
L 359.898251 88.092923 
L 362.841517 86.157334 
L 367.257318 82.892989 
L 368.729853 81.707571 
L 371.683947 79.761519 
L 379.373251 74.825243 
L 386.172899 69.975807 
L 393.291957 64.447916 
L 395.679413 62.569765 
L 398.072283 60.946575 
L 400.470567 59.166618 
L 402.867046 57.250384 
L 405.256306 55.576492 
L 407.916253 53.557986 
L 412.240021 50.667942 
L 417.586984 47.168711 
L 420.223472 45.40497 
L 422.782363 44.119634 
L 426.493476 42.555226 
L 427.757583 42.421566 
L 428.953566 43.361634 
L 430.174138 43.879928 
L 431.361098 39.782576 
L 431.735548 39.46 
L 432.234091 41.010234 
L 431.977785 57.005708 
L 431.979335 56.512607 
L 431.982324 77.442637 
L 431.968141 77.253051 
L 430.784028 77.196618 
L 429.597293 80.621042 
L 428.395896 83.089441 
L 427.203972 82.403059 
L 426.009793 81.987578 
L 424.73125 82.152103 
L 423.514062 82.508879 
L 422.280183 82.639956 
L 421.067506 82.282134 
L 419.824153 82.713734 
L 418.620951 82.696013 
L 417.424065 85.794002 
L 416.191538 87.633335 
L 412.622084 91.231177 
L 411.368805 90.726011 
L 410.12906 90.648342 
L 408.8808 90.942572 
L 407.680756 91.669333 
L 406.451388 92.556696 
L 405.230816 93.229575 
L 404.032126 96.931259 
L 402.800276 97.976346 
L 401.576773 98.31236 
L 400.384398 98.818622 
L 399.17894 98.89719 
L 397.976641 99.5736 
L 396.791033 100.524262 
L 395.599335 101.774286 
L 393.186164 103.529264 
L 391.990631 104.802306 
L 390.79961 105.369774 
L 389.586483 106.219733 
L 388.397267 107.499576 
L 387.209855 107.830915 
L 386.012969 107.768515 
L 384.817436 108.595064 
L 382.414641 110.773648 
L 381.231966 112.171458 
L 380.013115 113.213406 
L 377.580093 114.536669 
L 376.374636 115.046919 
L 375.157674 115.95233 
L 373.966878 117.351178 
L 372.742021 118.292816 
L 371.542428 119.03344 
L 369.140536 120.34611 
L 367.922446 121.194238 
L 366.726462 122.275945 
L 363.086629 124.704063 
L 360.631502 126.220623 
L 358.189232 128.062049 
L 354.5697 130.207937 
L 350.881595 133.168343 
L 349.642161 134.191483 
L 347.245231 135.865375 
L 346.047893 136.712588 
L 344.837924 137.357479 
L 343.62615 137.842161 
L 337.536378 142.359931 
L 333.926321 144.12171 
L 330.293706 146.915498 
L 327.859783 148.305068 
L 325.425408 149.699346 
L 324.214311 150.600833 
L 323.016522 151.692872 
L 320.602477 153.155983 
L 319.396568 153.785965 
L 313.330467 157.897261 
L 310.931732 158.987338 
L 307.231446 161.786095 
L 303.6259 163.733324 
L 301.20145 165.78191 
L 299.978172 166.944049 
L 298.776324 167.726262 
L 296.327061 168.745193 
L 295.086865 169.392307 
L 293.889528 170.239782 
L 292.65249 171.382041 
L 291.443423 172.21526 
L 289.050553 173.311222 
L 286.658135 174.871725 
L 282.953788 177.649034 
L 281.757354 178.232915 
L 280.560468 178.643312 
L 274.559345 182.724136 
L 273.361557 183.331624 
L 272.174145 183.792111 
L 270.94613 184.450865 
L 267.297049 187.259427 
L 263.679773 189.035657 
L 262.470706 189.54715 
L 261.285846 190.273102 
L 260.056929 191.408561 
L 258.869517 192.326919 
L 256.446871 193.631349 
L 254.016557 194.607351 
L 252.778165 195.372693 
L 251.56188 196.392278 
L 249.113971 198.016604 
L 247.920243 198.707661 
L 246.712529 199.227001 
L 243.101344 201.446128 
L 239.436473 203.822194 
L 234.59434 206.490692 
L 233.359558 207.388125 
L 228.52439 210.14869 
L 227.331113 210.59211 
L 224.894032 211.991619 
L 223.691957 212.812545 
L 218.780123 215.42134 
L 217.572861 216.008163 
L 216.355673 216.783184 
L 215.166908 217.86816 
L 212.732984 219.545453 
L 209.119318 220.951305 
L 203.059095 224.787042 
L 201.844248 225.308594 
L 199.455439 226.762117 
L 195.782221 228.938151 
L 194.555553 229.6211 
L 193.325733 230.573986 
L 190.845792 231.777713 
L 189.612815 232.283516 
L 187.152273 233.641306 
L 185.917491 234.479495 
L 182.346232 236.519579 
L 179.954265 237.528962 
L 178.718129 238.273903 
L 177.486956 239.231627 
L 175.021904 240.508331 
L 172.573254 241.911372 
L 171.350653 242.616554 
L 168.93703 244.182027 
L 166.533333 245.479264 
L 164.092642 246.484855 
L 161.676087 248.199944 
L 158.043022 249.98461 
L 156.838917 250.450721 
L 155.600977 251.066186 
L 154.393715 252.06563 
L 150.754784 254.273379 
L 147.146983 255.856181 
L 144.672005 257.237381 
L 143.482337 257.886588 
L 142.286262 258.69545 
L 139.890234 259.734391 
L 138.702822 260.181538 
L 135.019683 262.392949 
L 131.447522 264.434211 
L 130.261915 264.934718 
L 127.832953 266.481358 
L 126.625465 267.20982 
L 125.400157 267.692736 
L 124.215001 268.308725 
L 121.832508 269.355251 
L 120.599079 269.967185 
L 116.921801 272.267919 
L 114.521262 273.28188 
L 112.098825 274.52981 
L 110.87081 275.370745 
L 109.630614 276.020606 
L 104.809685 278.079001 
L 103.580317 278.975649 
L 101.200981 280.039897 
L 100.006351 280.488613 
L 97.540396 281.75904 
L 96.319148 282.645487 
L 92.70503 284.439504 
L 90.333815 285.504144 
L 86.647965 287.62466 
L 85.456042 288.509538 
L 83.037047 289.2459 
L 81.852793 289.36143 
L 79.426989 289.405701 
L 78.241946 290.039018 
L 77.205385 291.06 
L 76.915909 289.770961 
L 76.917213 289.785707 
" clip-path="url(#pd8fd493137)" style="fill: none; stroke: #000000; stroke-width: 2; stroke-linecap: square"/>
   </g>
   <g id="patch_3">
    <path d="M 59.15 303.64 
L 59.15 26.88 
" style="fill: none; stroke: #000000; stroke-width: 0.8; stroke-linejoin: miter; stroke-linecap: square"/>
   </g>
   <g id="patch_4">
    <path d="M 450 303.64 
L 450 26.88 
" style="fill: none; stroke: #000000; stroke-width: 0.8; stroke-linejoin: miter; stroke-linecap: square"/>
   </g>
   <g id="patch_5">
    <path d="M 59.15 303.64 
L 450 303.64 
" style="fill: none; stroke: #000000; stroke-width: 0.8; stroke-linejoin: miter; stroke-linecap: square"/>
   </g>
   <g id="patch_6">
    <path d="M 59.15 26.88 
L 450 26.88 
" style="fill: none; stroke: #000000; stroke-width: 0.8; stroke-linejoin: miter; stroke-linecap: square"/>
   </g>
   <g id="text_15">
    <!-- 2025-06-19 Trial 13 - Stress vs Strain -->
    <g transform="translate(143.320938 20.88) scale(0.12 -0.12)">
     <defs>
      <path id="DejaVuSans-35" d="M 691 4666 
L 3169 4666 
L 3169 4134 
L 1269 4134 
L 1269 2991 
Q 1406 3038 1543 3061 
Q 1681 3084 1819 3084 
Q 2600 3084 3056 2656 
Q 3513 2228 3513 1497 
Q 3513 744 3044 326 
Q 2575 -91 1722 -91 
Q 1428 -91 1123 -41 
Q 819 9 494 109 
L 494 744 
Q 775 591 1075 516 
Q 1375 441 1709 441 
Q 2250 441 2565 725 
Q 2881 1009 2881 1497 
Q 2881 1984 2565 2268 
Q 2250 2553 1709 2553 
Q 1456 2553 1204 2497 
Q 953 2441 691 2322 
L 691 4666 
z
" transform="scale(0.015625)"/>
      <path id="DejaVuSans-39" d="M 703 97 
L 703 672 
Q 941 559 1184 500 
Q 1428 441 1663 441 
Q 2288 441 2617 861 
Q 2947 1281 2994 2138 
Q 2813 1869 2534 1725 
Q 2256 1581 1919 1581 
Q 1219 1581 811 2004 
Q 403 2428 403 3163 
Q 403 3881 828 4315 
Q 1253 4750 1959 4750 
Q 2769 4750 3195 4129 
Q 3622 3509 3622 2328 
Q 3622 1225 3098 567 
Q 2575 -91 1691 -91 
Q 1453 -91 1209 -44 
Q 966 3 703 97 
z
M 1959 2075 
Q 2384 2075 2632 2365 
Q 2881 2656 2881 3163 
Q 2881 3666 2632 3958 
Q 2384 4250 1959 4250 
Q 1534 4250 1286 3958 
Q 1038 3666 1038 3163 
Q 1038 2656 1286 2365 
Q 1534 2075 1959 2075 
z
" transform="scale(0.015625)"/>
      <path id="DejaVuSans-54" d="M -19 4666 
L 3928 4666 
L 3928 4134 
L 2272 4134 
L 2272 0 
L 1638 0 
L 1638 4134 
L -19 4134 
L -19 4666 
z
" transform="scale(0.015625)"/>
      <path id="DejaVuSans-6c" d="M 603 4863 
L 1178 4863 
L 1178 0 
L 603 0 
L 603 4863 
z
" transform="scale(0.015625)"/>
      <path id="DejaVuSans-33" d="M 2597 2516 
Q 3050 2419 3304 2112 
Q 3559 1806 3559 1356 
Q 3559 666 3084 287 
Q 2609 -91 1734 -91 
Q 1441 -91 1130 -33 
Q 819 25 488 141 
L 488 750 
Q 750 597 1062 519 
Q 1375 441 1716 441 
Q 2309 441 2620 675 
Q 2931 909 2931 1356 
Q 2931 1769 2642 2001 
Q 2353 2234 1838 2234 
L 1294 2234 
L 1294 2753 
L 1863 2753 
Q 2328 2753 2575 2939 
Q 2822 3125 2822 3475 
Q 2822 3834 2567 4026 
Q 2313 4219 1838 4219 
Q 1578 4219 1281 4162 
Q 984 4106 628 3988 
L 628 4550 
Q 988 4650 1302 4700 
Q 1616 4750 1894 4750 
Q 2613 4750 3031 4423 
Q 3450 4097 3450 3541 
Q 3450 3153 3228 2886 
Q 3006 2619 2597 2516 
z
" transform="scale(0.015625)"/>
      <path id="DejaVuSans-76" d="M 191 3500 
L 800 3500 
L 1894 563 
L 2988 3500 
L 3597 3500 
L 2284 0 
L 1503 0 
L 191 3500 
z
" transform="scale(0.015625)"/>
     </defs>
     <use xlink:href="#DejaVuSans-32"/>
     <use xlink:href="#DejaVuSans-30" transform="translate(63.623047 0)"/>
     <use xlink:href="#DejaVuSans-32" transform="translate(127.246094 0)"/>
     <use xlink:href="#DejaVuSans-35" transform="translate(190.869141 0)"/>
     <use xlink:href="#DejaVuSans-2d" transform="translate(254.492188 0)"/>
     <use xlink:href="#DejaVuSans-30" transform="translate(290.576172 0)"/>
     <use xlink:href="#DejaVuSans-36" transform="translate(354.199219 0)"/>
     <use xlink:href="#DejaVuSans-2d" transform="translate(417.822266 0)"/>
     <use xlink:href="#DejaVuSans-31" transform="translate(453.90625 0)"/>
     <use xlink:href="#DejaVuSans-39" transform="translate(517.529297 0)"/>
     <use xlink:href="#DejaVuSans-20" transform="translate(581.152344 0)"/>
     <use xlink:href="#DejaVuSans-54" transform="translate(612.939453 0)"/>
     <use xlink:href="#DejaVuSans-72" transform="translate(659.273438 0)"/>
     <use xlink:href="#DejaVuSans-69" transform="translate(700.386719 0)"/>
     <use xlink:href="#DejaVuSans-61" transform="translate(728.169922 0)"/>
     <use xlink:href="#DejaVuSans-6c" transform="translate(789.449219 0)"/>
     <use xlink:href="#DejaVuSans-20" transform="translate(817.232422 0)"/>
     <use xlink:href="#DejaVuSans-31" transform="translate(849.019531 0)"/>
     <use xlink:href="#DejaVuSans-33" transform="translate(912.642578 0)"/>
     <use xlink:href="#DejaVuSans-20" transform="translate(976.265625 0)"/>
     <use xlink:href="#DejaVuSans-2d" transform="translate(1008.052734 0)"/>
     <use xlink:href="#DejaVuSans-20" transform="translate(1044.136719 0)"/>
     <use xlink:href="#DejaVuSans-53" transform="translate(1075.923828 0)"/>
     <use xlink:href="#DejaVuSans-74" transform="translate(1139.400391 0)"/>
     <use xlink:href="#DejaVuSans-72" transform="translate(1178.609375 0)"/>
     <use xlink:href="#DejaVuSans-65" transform="translate(1217.472656 0)"/>
     <use xlink:href="#DejaVuSans-73" transform="translate(1278.996094 0)"/>
     <use xlink:href="#DejaVuSans-73" transform="translate(1331.095703 0)"/>
     <use xlink:href="#DejaVuSans-20" transform="translate(1383.195312 0)"/>
     <use xlink:href="#DejaVuSans-76" transform="translate(1414.982422 0)"/>
     <use xlink:href="#DejaVuSans-73" transform="translate(1474.162109 0)"/>
     <use xlink:href="#DejaVuSans-20" transform="translate(1526.261719 0)"/>
     <use xlink:href="#DejaVuSans-53" transform="translate(1558.048828 0)"/>
     <use xlink:href="#DejaVuSans-74" transform="translate(1621.525391 0)"/>
     <use xlink:href="#DejaVuSans-72" transform="translate(1660.734375 0)"/>
     <use xlink:href="#DejaVuSans-61" transform="translate(1701.847656 0)"/>
     <use xlink:href="#DejaVuSans-69" transform="translate(1763.126953 0)"/>
     <use xlink:href="#DejaVuSans-6e" transform="translate(1790.910156 0)"/>
    </g>
   </g>
   <g id="legend_1">
    <g id="patch_7">
     <path d="M 66.15 64.23625 
L 172.134375 64.23625 
Q 174.134375 64.23625 174.134375 62.23625 
L 174.134375 33.88 
Q 174.134375 31.88 172.134375 31.88 
L 66.15 31.88 
Q 64.15 31.88 64.15 33.88 
L 64.15 62.23625 
Q 64.15 64.23625 66.15 64.23625 
z
" style="fill: #ffffff; opacity: 0.8; stroke: #cccccc; stroke-linejoin: miter"/>
    </g>
    <g id="line2d_27">
     <path d="M 68.15 39.978437 
L 78.15 39.978437 
L 88.15 39.978437 
" style="fill: none; stroke: #ff0000; stroke-width: 2; stroke-linecap: square"/>
    </g>
    <g id="text_16">
     <!-- Raw Force -->
     <g transform="translate(96.15 43.478437) scale(0.1 -0.1)">
      <defs>
       <path id="DejaVuSans-52" d="M 2841 2188 
Q 3044 2119 3236 1894 
Q 3428 1669 3622 1275 
L 4263 0 
L 3584 0 
L 2988 1197 
Q 2756 1666 2539 1819 
Q 2322 1972 1947 1972 
L 1259 1972 
L 1259 0 
L 628 0 
L 628 4666 
L 2053 4666 
Q 2853 4666 3247 4331 
Q 3641 3997 3641 3322 
Q 3641 2881 3436 2590 
Q 3231 2300 2841 2188 
z
M 1259 4147 
L 1259 2491 
L 2053 2491 
Q 2509 2491 2742 2702 
Q 2975 2913 2975 3322 
Q 2975 3731 2742 3939 
Q 2509 4147 2053 4147 
L 1259 4147 
z
" transform="scale(0.015625)"/>
       <path id="DejaVuSans-77" d="M 269 3500 
L 844 3500 
L 1563 769 
L 2278 3500 
L 2956 3500 
L 3675 769 
L 4391 3500 
L 4966 3500 
L 4050 0 
L 3372 0 
L 2619 2869 
L 1863 0 
L 1184 0 
L 269 3500 
z
" transform="scale(0.015625)"/>
       <path id="DejaVuSans-46" d="M 628 4666 
L 3309 4666 
L 3309 4134 
L 1259 4134 
L 1259 2759 
L 3109 2759 
L 3109 2228 
L 1259 2228 
L 1259 0 
L 628 0 
L 628 4666 
z
" transform="scale(0.015625)"/>
       <path id="DejaVuSans-6f" d="M 1959 3097 
Q 1497 3097 1228 2736 
Q 959 2375 959 1747 
Q 959 1119 1226 758 
Q 1494 397 1959 397 
Q 2419 397 2687 759 
Q 2956 1122 2956 1747 
Q 2956 2369 2687 2733 
Q 2419 3097 1959 3097 
z
M 1959 3584 
Q 2709 3584 3137 3096 
Q 3566 2609 3566 1747 
Q 3566 888 3137 398 
Q 2709 -91 1959 -91 
Q 1206 -91 779 398 
Q 353 888 353 1747 
Q 353 2609 779 3096 
Q 1206 3584 1959 3584 
z
" transform="scale(0.015625)"/>
       <path id="DejaVuSans-63" d="M 3122 3366 
L 3122 2828 
Q 2878 2963 2633 3030 
Q 2388 3097 2138 3097 
Q 1578 3097 1268 2742 
Q 959 2388 959 1747 
Q 959 1106 1268 751 
Q 1578 397 2138 397 
Q 2388 397 2633 464 
Q 2878 531 3122 666 
L 3122 134 
Q 2881 22 2623 -34 
Q 2366 -91 2075 -91 
Q 1284 -91 818 406 
Q 353 903 353 1747 
Q 353 2603 823 3093 
Q 1294 3584 2113 3584 
Q 2378 3584 2631 3529 
Q 2884 3475 3122 3366 
z
" transform="scale(0.015625)"/>
      </defs>
      <use xlink:href="#DejaVuSans-52"/>
      <use xlink:href="#DejaVuSans-61" transform="translate(67.232422 0)"/>
      <use xlink:href="#DejaVuSans-77" transform="translate(128.511719 0)"/>
      <use xlink:href="#DejaVuSans-20" transform="translate(210.298828 0)"/>
      <use xlink:href="#DejaVuSans-46" transform="translate(242.085938 0)"/>
      <use xlink:href="#DejaVuSans-6f" transform="translate(295.980469 0)"/>
      <use xlink:href="#DejaVuSans-72" transform="translate(357.162109 0)"/>
      <use xlink:href="#DejaVuSans-63" transform="translate(396.025391 0)"/>
      <use xlink:href="#DejaVuSans-65" transform="translate(451.005859 0)"/>
     </g>
    </g>
    <g id="line2d_28">
     <path d="M 68.15 54.656563 
L 78.15 54.656563 
L 88.15 54.656563 
" style="fill: none; stroke: #000000; stroke-width: 2; stroke-linecap: square"/>
    </g>
    <g id="text_17">
     <!-- Adjusted Force -->
     <g transform="translate(96.15 58.156563) scale(0.1 -0.1)">
      <defs>
       <path id="DejaVuSans-41" d="M 2188 4044 
L 1331 1722 
L 3047 1722 
L 2188 4044 
z
M 1831 4666 
L 2547 4666 
L 4325 0 
L 3669 0 
L 3244 1197 
L 1141 1197 
L 716 0 
L 50 0 
L 1831 4666 
z
" transform="scale(0.015625)"/>
       <path id="DejaVuSans-64" d="M 2906 2969 
L 2906 4863 
L 3481 4863 
L 3481 0 
L 2906 0 
L 2906 525 
Q 2725 213 2448 61 
Q 2172 -91 1784 -91 
Q 1150 -91 751 415 
Q 353 922 353 1747 
Q 353 2572 751 3078 
Q 1150 3584 1784 3584 
Q 2172 3584 2448 3432 
Q 2725 3281 2906 2969 
z
M 947 1747 
Q 947 1113 1208 752 
Q 1469 391 1925 391 
Q 2381 391 2643 752 
Q 2906 1113 2906 1747 
Q 2906 2381 2643 2742 
Q 2381 3103 1925 3103 
Q 1469 3103 1208 2742 
Q 947 2381 947 1747 
z
" transform="scale(0.015625)"/>
       <path id="DejaVuSans-6a" d="M 603 3500 
L 1178 3500 
L 1178 -63 
Q 1178 -731 923 -1031 
Q 669 -1331 103 -1331 
L -116 -1331 
L -116 -844 
L 38 -844 
Q 366 -844 484 -692 
Q 603 -541 603 -63 
L 603 3500 
z
M 603 4863 
L 1178 4863 
L 1178 4134 
L 603 4134 
L 603 4863 
z
" transform="scale(0.015625)"/>
       <path id="DejaVuSans-75" d="M 544 1381 
L 544 3500 
L 1119 3500 
L 1119 1403 
Q 1119 906 1312 657 
Q 1506 409 1894 409 
Q 2359 409 2629 706 
Q 2900 1003 2900 1516 
L 2900 3500 
L 3475 3500 
L 3475 0 
L 2900 0 
L 2900 538 
Q 2691 219 2414 64 
Q 2138 -91 1772 -91 
Q 1169 -91 856 284 
Q 544 659 544 1381 
z
M 1991 3584 
L 1991 3584 
z
" transform="scale(0.015625)"/>
      </defs>
      <use xlink:href="#DejaVuSans-41"/>
      <use xlink:href="#DejaVuSans-64" transform="translate(66.658203 0)"/>
      <use xlink:href="#DejaVuSans-6a" transform="translate(130.134766 0)"/>
      <use xlink:href="#DejaVuSans-75" transform="translate(157.917969 0)"/>
      <use xlink:href="#DejaVuSans-73" transform="translate(221.296875 0)"/>
      <use xlink:href="#DejaVuSans-74" transform="translate(273.396484 0)"/>
      <use xlink:href="#DejaVuSans-65" transform="translate(312.605469 0)"/>
      <use xlink:href="#DejaVuSans-64" transform="translate(374.128906 0)"/>
      <use xlink:href="#DejaVuSans-20" transform="translate(437.605469 0)"/>
      <use xlink:href="#DejaVuSans-46" transform="translate(469.392578 0)"/>
      <use xlink:href="#DejaVuSans-6f" transform="translate(523.287109 0)"/>
      <use xlink:href="#DejaVuSans-72" transform="translate(584.46875 0)"/>
      <use xlink:href="#DejaVuSans-63" transform="translate(623.332031 0)"/>
      <use xlink:href="#DejaVuSans-65" transform="translate(678.3125 0)"/>
     </g>
    </g>
   </g>
  </g>
 </g>
 <defs>
  <clipPath id="pd8fd493137">
   <rect x="59.15" y="26.88" width="390.85" height="276.76"/>
  </clipPath>
 </defs>
</svg>
