<?xml version="1.0" encoding="utf-8" standalone="no"?>
<!DOCTYPE svg PUBLIC "-//W3C//DTD SVG 1.1//EN"
  "http://www.w3.org/Graphics/SVG/1.1/DTD/svg11.dtd">
<svg xmlns:xlink="http://www.w3.org/1999/xlink" width="460.8pt" height="345.6pt" viewBox="0 0 460.8 345.6" xmlns="http://www.w3.org/2000/svg" version="1.1">
 <metadata>
  <rdf:RDF xmlns:dc="http://purl.org/dc/elements/1.1/" xmlns:cc="http://creativecommons.org/ns#" xmlns:rdf="http://www.w3.org/1999/02/22-rdf-syntax-ns#">
   <cc:Work>
    <dc:type rdf:resource="http://purl.org/dc/dcmitype/StillImage"/>
    <dc:date>2025-07-28T21:14:41.625154</dc:date>
    <dc:format>image/svg+xml</dc:format>
    <dc:creator>
     <cc:Agent>
      <dc:title>Matplotlib v3.10.3, https://matplotlib.org/</dc:title>
     </cc:Agent>
    </dc:creator>
   </cc:Work>
  </rdf:RDF>
 </metadata>
 <defs>
  <style type="text/css">*{stroke-linejoin: round; stroke-linecap: butt}</style>
 </defs>
 <g id="figure_1">
  <g id="patch_1">
   <path d="M 0 345.6 
L 460.8 345.6 
L 460.8 0 
L 0 0 
z
" style="fill: #ffffff"/>
  </g>
  <g id="axes_1">
   <g id="patch_2">
    <path d="M 57.17 303.64 
L 450 303.64 
L 450 26.88 
L 57.17 26.88 
z
" style="fill: #ffffff"/>
   </g>
   <g id="matplotlib.axis_1">
    <g id="xtick_1">
     <g id="line2d_1">
      <path d="M 75.133157 303.64 
L 75.133157 26.88 
" clip-path="url(#p6fbc7f3de8)" style="fill: none; stroke: #b0b0b0; stroke-opacity: 0.3; stroke-width: 0.8; stroke-linecap: square"/>
     </g>
     <g id="line2d_2">
      <defs>
       <path id="m80dc0b3157" d="M 0 0 
L 0 3.5 
" style="stroke: #000000; stroke-width: 0.8"/>
      </defs>
      <g>
       <use xlink:href="#m80dc0b3157" x="75.133157" y="303.64" style="stroke: #000000; stroke-width: 0.8"/>
      </g>
     </g>
     <g id="text_1">
      <!-- 0.00 -->
      <g transform="translate(64.000344 318.238437) scale(0.1 -0.1)">
       <defs>
        <path id="DejaVuSans-30" d="M 2034 4250 
Q 1547 4250 1301 3770 
Q 1056 3291 1056 2328 
Q 1056 1369 1301 889 
Q 1547 409 2034 409 
Q 2525 409 2770 889 
Q 3016 1369 3016 2328 
Q 3016 3291 2770 3770 
Q 2525 4250 2034 4250 
z
M 2034 4750 
Q 2819 4750 3233 4129 
Q 3647 3509 3647 2328 
Q 3647 1150 3233 529 
Q 2819 -91 2034 -91 
Q 1250 -91 836 529 
Q 422 1150 422 2328 
Q 422 3509 836 4129 
Q 1250 4750 2034 4750 
z
" transform="scale(0.015625)"/>
        <path id="DejaVuSans-2e" d="M 684 794 
L 1344 794 
L 1344 0 
L 684 0 
L 684 794 
z
" transform="scale(0.015625)"/>
       </defs>
       <use xlink:href="#DejaVuSans-30"/>
       <use xlink:href="#DejaVuSans-2e" transform="translate(63.623047 0)"/>
       <use xlink:href="#DejaVuSans-30" transform="translate(95.410156 0)"/>
       <use xlink:href="#DejaVuSans-30" transform="translate(159.033203 0)"/>
      </g>
     </g>
    </g>
    <g id="xtick_2">
     <g id="line2d_3">
      <path d="M 146.512214 303.64 
L 146.512214 26.88 
" clip-path="url(#p6fbc7f3de8)" style="fill: none; stroke: #b0b0b0; stroke-opacity: 0.3; stroke-width: 0.8; stroke-linecap: square"/>
     </g>
     <g id="line2d_4">
      <g>
       <use xlink:href="#m80dc0b3157" x="146.512214" y="303.64" style="stroke: #000000; stroke-width: 0.8"/>
      </g>
     </g>
     <g id="text_2">
      <!-- 0.05 -->
      <g transform="translate(135.379401 318.238437) scale(0.1 -0.1)">
       <defs>
        <path id="DejaVuSans-35" d="M 691 4666 
L 3169 4666 
L 3169 4134 
L 1269 4134 
L 1269 2991 
Q 1406 3038 1543 3061 
Q 1681 3084 1819 3084 
Q 2600 3084 3056 2656 
Q 3513 2228 3513 1497 
Q 3513 744 3044 326 
Q 2575 -91 1722 -91 
Q 1428 -91 1123 -41 
Q 819 9 494 109 
L 494 744 
Q 775 591 1075 516 
Q 1375 441 1709 441 
Q 2250 441 2565 725 
Q 2881 1009 2881 1497 
Q 2881 1984 2565 2268 
Q 2250 2553 1709 2553 
Q 1456 2553 1204 2497 
Q 953 2441 691 2322 
L 691 4666 
z
" transform="scale(0.015625)"/>
       </defs>
       <use xlink:href="#DejaVuSans-30"/>
       <use xlink:href="#DejaVuSans-2e" transform="translate(63.623047 0)"/>
       <use xlink:href="#DejaVuSans-30" transform="translate(95.410156 0)"/>
       <use xlink:href="#DejaVuSans-35" transform="translate(159.033203 0)"/>
      </g>
     </g>
    </g>
    <g id="xtick_3">
     <g id="line2d_5">
      <path d="M 217.89127 303.64 
L 217.89127 26.88 
" clip-path="url(#p6fbc7f3de8)" style="fill: none; stroke: #b0b0b0; stroke-opacity: 0.3; stroke-width: 0.8; stroke-linecap: square"/>
     </g>
     <g id="line2d_6">
      <g>
       <use xlink:href="#m80dc0b3157" x="217.89127" y="303.64" style="stroke: #000000; stroke-width: 0.8"/>
      </g>
     </g>
     <g id="text_3">
      <!-- 0.10 -->
      <g transform="translate(206.758458 318.238437) scale(0.1 -0.1)">
       <defs>
        <path id="DejaVuSans-31" d="M 794 531 
L 1825 531 
L 1825 4091 
L 703 3866 
L 703 4441 
L 1819 4666 
L 2450 4666 
L 2450 531 
L 3481 531 
L 3481 0 
L 794 0 
L 794 531 
z
" transform="scale(0.015625)"/>
       </defs>
       <use xlink:href="#DejaVuSans-30"/>
       <use xlink:href="#DejaVuSans-2e" transform="translate(63.623047 0)"/>
       <use xlink:href="#DejaVuSans-31" transform="translate(95.410156 0)"/>
       <use xlink:href="#DejaVuSans-30" transform="translate(159.033203 0)"/>
      </g>
     </g>
    </g>
    <g id="xtick_4">
     <g id="line2d_7">
      <path d="M 289.270327 303.64 
L 289.270327 26.88 
" clip-path="url(#p6fbc7f3de8)" style="fill: none; stroke: #b0b0b0; stroke-opacity: 0.3; stroke-width: 0.8; stroke-linecap: square"/>
     </g>
     <g id="line2d_8">
      <g>
       <use xlink:href="#m80dc0b3157" x="289.270327" y="303.64" style="stroke: #000000; stroke-width: 0.8"/>
      </g>
     </g>
     <g id="text_4">
      <!-- 0.15 -->
      <g transform="translate(278.137515 318.238437) scale(0.1 -0.1)">
       <use xlink:href="#DejaVuSans-30"/>
       <use xlink:href="#DejaVuSans-2e" transform="translate(63.623047 0)"/>
       <use xlink:href="#DejaVuSans-31" transform="translate(95.410156 0)"/>
       <use xlink:href="#DejaVuSans-35" transform="translate(159.033203 0)"/>
      </g>
     </g>
    </g>
    <g id="xtick_5">
     <g id="line2d_9">
      <path d="M 360.649384 303.64 
L 360.649384 26.88 
" clip-path="url(#p6fbc7f3de8)" style="fill: none; stroke: #b0b0b0; stroke-opacity: 0.3; stroke-width: 0.8; stroke-linecap: square"/>
     </g>
     <g id="line2d_10">
      <g>
       <use xlink:href="#m80dc0b3157" x="360.649384" y="303.64" style="stroke: #000000; stroke-width: 0.8"/>
      </g>
     </g>
     <g id="text_5">
      <!-- 0.20 -->
      <g transform="translate(349.516572 318.238437) scale(0.1 -0.1)">
       <defs>
        <path id="DejaVuSans-32" d="M 1228 531 
L 3431 531 
L 3431 0 
L 469 0 
L 469 531 
Q 828 903 1448 1529 
Q 2069 2156 2228 2338 
Q 2531 2678 2651 2914 
Q 2772 3150 2772 3378 
Q 2772 3750 2511 3984 
Q 2250 4219 1831 4219 
Q 1534 4219 1204 4116 
Q 875 4013 500 3803 
L 500 4441 
Q 881 4594 1212 4672 
Q 1544 4750 1819 4750 
Q 2544 4750 2975 4387 
Q 3406 4025 3406 3419 
Q 3406 3131 3298 2873 
Q 3191 2616 2906 2266 
Q 2828 2175 2409 1742 
Q 1991 1309 1228 531 
z
" transform="scale(0.015625)"/>
       </defs>
       <use xlink:href="#DejaVuSans-30"/>
       <use xlink:href="#DejaVuSans-2e" transform="translate(63.623047 0)"/>
       <use xlink:href="#DejaVuSans-32" transform="translate(95.410156 0)"/>
       <use xlink:href="#DejaVuSans-30" transform="translate(159.033203 0)"/>
      </g>
     </g>
    </g>
    <g id="xtick_6">
     <g id="line2d_11">
      <path d="M 432.028441 303.64 
L 432.028441 26.88 
" clip-path="url(#p6fbc7f3de8)" style="fill: none; stroke: #b0b0b0; stroke-opacity: 0.3; stroke-width: 0.8; stroke-linecap: square"/>
     </g>
     <g id="line2d_12">
      <g>
       <use xlink:href="#m80dc0b3157" x="432.028441" y="303.64" style="stroke: #000000; stroke-width: 0.8"/>
      </g>
     </g>
     <g id="text_6">
      <!-- 0.25 -->
      <g transform="translate(420.895628 318.238437) scale(0.1 -0.1)">
       <use xlink:href="#DejaVuSans-30"/>
       <use xlink:href="#DejaVuSans-2e" transform="translate(63.623047 0)"/>
       <use xlink:href="#DejaVuSans-32" transform="translate(95.410156 0)"/>
       <use xlink:href="#DejaVuSans-35" transform="translate(159.033203 0)"/>
      </g>
     </g>
    </g>
    <g id="text_7">
     <!-- Strain [-] -->
     <g transform="translate(231.47875 331.916562) scale(0.1 -0.1)">
      <defs>
       <path id="DejaVuSans-53" d="M 3425 4513 
L 3425 3897 
Q 3066 4069 2747 4153 
Q 2428 4238 2131 4238 
Q 1616 4238 1336 4038 
Q 1056 3838 1056 3469 
Q 1056 3159 1242 3001 
Q 1428 2844 1947 2747 
L 2328 2669 
Q 3034 2534 3370 2195 
Q 3706 1856 3706 1288 
Q 3706 609 3251 259 
Q 2797 -91 1919 -91 
Q 1588 -91 1214 -16 
Q 841 59 441 206 
L 441 856 
Q 825 641 1194 531 
Q 1563 422 1919 422 
Q 2459 422 2753 634 
Q 3047 847 3047 1241 
Q 3047 1584 2836 1778 
Q 2625 1972 2144 2069 
L 1759 2144 
Q 1053 2284 737 2584 
Q 422 2884 422 3419 
Q 422 4038 858 4394 
Q 1294 4750 2059 4750 
Q 2388 4750 2728 4690 
Q 3069 4631 3425 4513 
z
" transform="scale(0.015625)"/>
       <path id="DejaVuSans-74" d="M 1172 4494 
L 1172 3500 
L 2356 3500 
L 2356 3053 
L 1172 3053 
L 1172 1153 
Q 1172 725 1289 603 
Q 1406 481 1766 481 
L 2356 481 
L 2356 0 
L 1766 0 
Q 1100 0 847 248 
Q 594 497 594 1153 
L 594 3053 
L 172 3053 
L 172 3500 
L 594 3500 
L 594 4494 
L 1172 4494 
z
" transform="scale(0.015625)"/>
       <path id="DejaVuSans-72" d="M 2631 2963 
Q 2534 3019 2420 3045 
Q 2306 3072 2169 3072 
Q 1681 3072 1420 2755 
Q 1159 2438 1159 1844 
L 1159 0 
L 581 0 
L 581 3500 
L 1159 3500 
L 1159 2956 
Q 1341 3275 1631 3429 
Q 1922 3584 2338 3584 
Q 2397 3584 2469 3576 
Q 2541 3569 2628 3553 
L 2631 2963 
z
" transform="scale(0.015625)"/>
       <path id="DejaVuSans-61" d="M 2194 1759 
Q 1497 1759 1228 1600 
Q 959 1441 959 1056 
Q 959 750 1161 570 
Q 1363 391 1709 391 
Q 2188 391 2477 730 
Q 2766 1069 2766 1631 
L 2766 1759 
L 2194 1759 
z
M 3341 1997 
L 3341 0 
L 2766 0 
L 2766 531 
Q 2569 213 2275 61 
Q 1981 -91 1556 -91 
Q 1019 -91 701 211 
Q 384 513 384 1019 
Q 384 1609 779 1909 
Q 1175 2209 1959 2209 
L 2766 2209 
L 2766 2266 
Q 2766 2663 2505 2880 
Q 2244 3097 1772 3097 
Q 1472 3097 1187 3025 
Q 903 2953 641 2809 
L 641 3341 
Q 956 3463 1253 3523 
Q 1550 3584 1831 3584 
Q 2591 3584 2966 3190 
Q 3341 2797 3341 1997 
z
" transform="scale(0.015625)"/>
       <path id="DejaVuSans-69" d="M 603 3500 
L 1178 3500 
L 1178 0 
L 603 0 
L 603 3500 
z
M 603 4863 
L 1178 4863 
L 1178 4134 
L 603 4134 
L 603 4863 
z
" transform="scale(0.015625)"/>
       <path id="DejaVuSans-6e" d="M 3513 2113 
L 3513 0 
L 2938 0 
L 2938 2094 
Q 2938 2591 2744 2837 
Q 2550 3084 2163 3084 
Q 1697 3084 1428 2787 
Q 1159 2491 1159 1978 
L 1159 0 
L 581 0 
L 581 3500 
L 1159 3500 
L 1159 2956 
Q 1366 3272 1645 3428 
Q 1925 3584 2291 3584 
Q 2894 3584 3203 3211 
Q 3513 2838 3513 2113 
z
" transform="scale(0.015625)"/>
       <path id="DejaVuSans-20" transform="scale(0.015625)"/>
       <path id="DejaVuSans-5b" d="M 550 4863 
L 1875 4863 
L 1875 4416 
L 1125 4416 
L 1125 -397 
L 1875 -397 
L 1875 -844 
L 550 -844 
L 550 4863 
z
" transform="scale(0.015625)"/>
       <path id="DejaVuSans-2d" d="M 313 2009 
L 1997 2009 
L 1997 1497 
L 313 1497 
L 313 2009 
z
" transform="scale(0.015625)"/>
       <path id="DejaVuSans-5d" d="M 1947 4863 
L 1947 -844 
L 622 -844 
L 622 -397 
L 1369 -397 
L 1369 4416 
L 622 4416 
L 622 4863 
L 1947 4863 
z
" transform="scale(0.015625)"/>
      </defs>
      <use xlink:href="#DejaVuSans-53"/>
      <use xlink:href="#DejaVuSans-74" transform="translate(63.476562 0)"/>
      <use xlink:href="#DejaVuSans-72" transform="translate(102.685547 0)"/>
      <use xlink:href="#DejaVuSans-61" transform="translate(143.798828 0)"/>
      <use xlink:href="#DejaVuSans-69" transform="translate(205.078125 0)"/>
      <use xlink:href="#DejaVuSans-6e" transform="translate(232.861328 0)"/>
      <use xlink:href="#DejaVuSans-20" transform="translate(296.240234 0)"/>
      <use xlink:href="#DejaVuSans-5b" transform="translate(328.027344 0)"/>
      <use xlink:href="#DejaVuSans-2d" transform="translate(367.041016 0)"/>
      <use xlink:href="#DejaVuSans-5d" transform="translate(403.125 0)"/>
     </g>
    </g>
   </g>
   <g id="matplotlib.axis_2">
    <g id="ytick_1">
     <g id="line2d_13">
      <path d="M 57.17 274.725385 
L 450 274.725385 
" clip-path="url(#p6fbc7f3de8)" style="fill: none; stroke: #b0b0b0; stroke-opacity: 0.3; stroke-width: 0.8; stroke-linecap: square"/>
     </g>
     <g id="line2d_14">
      <defs>
       <path id="me74b6bee4c" d="M 0 0 
L -3.5 0 
" style="stroke: #000000; stroke-width: 0.8"/>
      </defs>
      <g>
       <use xlink:href="#me74b6bee4c" x="57.17" y="274.725385" style="stroke: #000000; stroke-width: 0.8"/>
      </g>
     </g>
     <g id="text_8">
      <!-- 0 -->
      <g transform="translate(43.8075 278.524604) scale(0.1 -0.1)">
       <use xlink:href="#DejaVuSans-30"/>
      </g>
     </g>
    </g>
    <g id="ytick_2">
     <g id="line2d_15">
      <path d="M 57.17 232.190466 
L 450 232.190466 
" clip-path="url(#p6fbc7f3de8)" style="fill: none; stroke: #b0b0b0; stroke-opacity: 0.3; stroke-width: 0.8; stroke-linecap: square"/>
     </g>
     <g id="line2d_16">
      <g>
       <use xlink:href="#me74b6bee4c" x="57.17" y="232.190466" style="stroke: #000000; stroke-width: 0.8"/>
      </g>
     </g>
     <g id="text_9">
      <!-- 500 -->
      <g transform="translate(31.0825 235.989684) scale(0.1 -0.1)">
       <use xlink:href="#DejaVuSans-35"/>
       <use xlink:href="#DejaVuSans-30" transform="translate(63.623047 0)"/>
       <use xlink:href="#DejaVuSans-30" transform="translate(127.246094 0)"/>
      </g>
     </g>
    </g>
    <g id="ytick_3">
     <g id="line2d_17">
      <path d="M 57.17 189.655546 
L 450 189.655546 
" clip-path="url(#p6fbc7f3de8)" style="fill: none; stroke: #b0b0b0; stroke-opacity: 0.3; stroke-width: 0.8; stroke-linecap: square"/>
     </g>
     <g id="line2d_18">
      <g>
       <use xlink:href="#me74b6bee4c" x="57.17" y="189.655546" style="stroke: #000000; stroke-width: 0.8"/>
      </g>
     </g>
     <g id="text_10">
      <!-- 1000 -->
      <g transform="translate(24.72 193.454765) scale(0.1 -0.1)">
       <use xlink:href="#DejaVuSans-31"/>
       <use xlink:href="#DejaVuSans-30" transform="translate(63.623047 0)"/>
       <use xlink:href="#DejaVuSans-30" transform="translate(127.246094 0)"/>
       <use xlink:href="#DejaVuSans-30" transform="translate(190.869141 0)"/>
      </g>
     </g>
    </g>
    <g id="ytick_4">
     <g id="line2d_19">
      <path d="M 57.17 147.120626 
L 450 147.120626 
" clip-path="url(#p6fbc7f3de8)" style="fill: none; stroke: #b0b0b0; stroke-opacity: 0.3; stroke-width: 0.8; stroke-linecap: square"/>
     </g>
     <g id="line2d_20">
      <g>
       <use xlink:href="#me74b6bee4c" x="57.17" y="147.120626" style="stroke: #000000; stroke-width: 0.8"/>
      </g>
     </g>
     <g id="text_11">
      <!-- 1500 -->
      <g transform="translate(24.72 150.919845) scale(0.1 -0.1)">
       <use xlink:href="#DejaVuSans-31"/>
       <use xlink:href="#DejaVuSans-35" transform="translate(63.623047 0)"/>
       <use xlink:href="#DejaVuSans-30" transform="translate(127.246094 0)"/>
       <use xlink:href="#DejaVuSans-30" transform="translate(190.869141 0)"/>
      </g>
     </g>
    </g>
    <g id="ytick_5">
     <g id="line2d_21">
      <path d="M 57.17 104.585707 
L 450 104.585707 
" clip-path="url(#p6fbc7f3de8)" style="fill: none; stroke: #b0b0b0; stroke-opacity: 0.3; stroke-width: 0.8; stroke-linecap: square"/>
     </g>
     <g id="line2d_22">
      <g>
       <use xlink:href="#me74b6bee4c" x="57.17" y="104.585707" style="stroke: #000000; stroke-width: 0.8"/>
      </g>
     </g>
     <g id="text_12">
      <!-- 2000 -->
      <g transform="translate(24.72 108.384925) scale(0.1 -0.1)">
       <use xlink:href="#DejaVuSans-32"/>
       <use xlink:href="#DejaVuSans-30" transform="translate(63.623047 0)"/>
       <use xlink:href="#DejaVuSans-30" transform="translate(127.246094 0)"/>
       <use xlink:href="#DejaVuSans-30" transform="translate(190.869141 0)"/>
      </g>
     </g>
    </g>
    <g id="ytick_6">
     <g id="line2d_23">
      <path d="M 57.17 62.050787 
L 450 62.050787 
" clip-path="url(#p6fbc7f3de8)" style="fill: none; stroke: #b0b0b0; stroke-opacity: 0.3; stroke-width: 0.8; stroke-linecap: square"/>
     </g>
     <g id="line2d_24">
      <g>
       <use xlink:href="#me74b6bee4c" x="57.17" y="62.050787" style="stroke: #000000; stroke-width: 0.8"/>
      </g>
     </g>
     <g id="text_13">
      <!-- 2500 -->
      <g transform="translate(24.72 65.850006) scale(0.1 -0.1)">
       <use xlink:href="#DejaVuSans-32"/>
       <use xlink:href="#DejaVuSans-35" transform="translate(63.623047 0)"/>
       <use xlink:href="#DejaVuSans-30" transform="translate(127.246094 0)"/>
       <use xlink:href="#DejaVuSans-30" transform="translate(190.869141 0)"/>
      </g>
     </g>
    </g>
    <g id="text_14">
     <!-- Stress [Pa] -->
     <g transform="translate(18.640312 191.967812) rotate(-90) scale(0.1 -0.1)">
      <defs>
       <path id="DejaVuSans-65" d="M 3597 1894 
L 3597 1613 
L 953 1613 
Q 991 1019 1311 708 
Q 1631 397 2203 397 
Q 2534 397 2845 478 
Q 3156 559 3463 722 
L 3463 178 
Q 3153 47 2828 -22 
Q 2503 -91 2169 -91 
Q 1331 -91 842 396 
Q 353 884 353 1716 
Q 353 2575 817 3079 
Q 1281 3584 2069 3584 
Q 2775 3584 3186 3129 
Q 3597 2675 3597 1894 
z
M 3022 2063 
Q 3016 2534 2758 2815 
Q 2500 3097 2075 3097 
Q 1594 3097 1305 2825 
Q 1016 2553 972 2059 
L 3022 2063 
z
" transform="scale(0.015625)"/>
       <path id="DejaVuSans-73" d="M 2834 3397 
L 2834 2853 
Q 2591 2978 2328 3040 
Q 2066 3103 1784 3103 
Q 1356 3103 1142 2972 
Q 928 2841 928 2578 
Q 928 2378 1081 2264 
Q 1234 2150 1697 2047 
L 1894 2003 
Q 2506 1872 2764 1633 
Q 3022 1394 3022 966 
Q 3022 478 2636 193 
Q 2250 -91 1575 -91 
Q 1294 -91 989 -36 
Q 684 19 347 128 
L 347 722 
Q 666 556 975 473 
Q 1284 391 1588 391 
Q 1994 391 2212 530 
Q 2431 669 2431 922 
Q 2431 1156 2273 1281 
Q 2116 1406 1581 1522 
L 1381 1569 
Q 847 1681 609 1914 
Q 372 2147 372 2553 
Q 372 3047 722 3315 
Q 1072 3584 1716 3584 
Q 2034 3584 2315 3537 
Q 2597 3491 2834 3397 
z
" transform="scale(0.015625)"/>
       <path id="DejaVuSans-50" d="M 1259 4147 
L 1259 2394 
L 2053 2394 
Q 2494 2394 2734 2622 
Q 2975 2850 2975 3272 
Q 2975 3691 2734 3919 
Q 2494 4147 2053 4147 
L 1259 4147 
z
M 628 4666 
L 2053 4666 
Q 2838 4666 3239 4311 
Q 3641 3956 3641 3272 
Q 3641 2581 3239 2228 
Q 2838 1875 2053 1875 
L 1259 1875 
L 1259 0 
L 628 0 
L 628 4666 
z
" transform="scale(0.015625)"/>
      </defs>
      <use xlink:href="#DejaVuSans-53"/>
      <use xlink:href="#DejaVuSans-74" transform="translate(63.476562 0)"/>
      <use xlink:href="#DejaVuSans-72" transform="translate(102.685547 0)"/>
      <use xlink:href="#DejaVuSans-65" transform="translate(141.548828 0)"/>
      <use xlink:href="#DejaVuSans-73" transform="translate(203.072266 0)"/>
      <use xlink:href="#DejaVuSans-73" transform="translate(255.171875 0)"/>
      <use xlink:href="#DejaVuSans-20" transform="translate(307.271484 0)"/>
      <use xlink:href="#DejaVuSans-5b" transform="translate(339.058594 0)"/>
      <use xlink:href="#DejaVuSans-50" transform="translate(378.072266 0)"/>
      <use xlink:href="#DejaVuSans-61" transform="translate(433.875 0)"/>
      <use xlink:href="#DejaVuSans-5d" transform="translate(495.154297 0)"/>
     </g>
    </g>
   </g>
   <g id="line2d_25">
    <path d="M 75.133157 275.203269 
L 75.135186 275.054249 
L 75.133157 275.208625 
L 75.147386 275.108644 
L 75.675908 270.318415 
L 76.195008 269.646271 
L 77.254214 267.956224 
L 77.794125 267.500715 
L 78.414945 267.315373 
L 78.968082 267.337269 
L 81.26076 267.846802 
L 82.998745 267.817924 
L 84.929666 267.566945 
L 86.319121 267.401084 
L 87.78326 267.686674 
L 89.054463 268.207102 
L 90.624407 269.258001 
L 91.684002 269.921537 
L 92.214577 270.118088 
L 93.280396 270.163392 
L 95.418258 269.86628 
L 97.025544 270.00298 
L 98.62505 270.226969 
L 99.679977 270.196701 
L 100.725567 269.970919 
L 101.761729 269.55592 
L 102.785538 268.950487 
L 107.093935 265.94054 
L 110.132686 264.306446 
L 117.04106 261.321607 
L 120.647728 259.888368 
L 130.490608 255.494677 
L 137.763071 252.395064 
L 149.079422 246.986341 
L 153.149761 244.987123 
L 159.194588 241.883922 
L 163.70837 239.445693 
L 171.234451 235.803773 
L 177.990343 232.276626 
L 187.003903 227.553675 
L 190.008423 226.001358 
L 196.025243 222.496448 
L 199.817068 220.370261 
L 207.733691 216.351738 
L 221.138114 208.675513 
L 225.805933 205.981912 
L 230.482117 203.044181 
L 234.133908 200.95673 
L 238.840626 198.453941 
L 244.555593 195.152038 
L 249.707311 191.852287 
L 253.804101 189.510181 
L 257.865104 187.051149 
L 261.636702 184.437173 
L 266.145816 181.408575 
L 269.900299 179.002626 
L 274.396966 176.136865 
L 280.384223 171.773303 
L 284.904228 168.662211 
L 288.685163 166.253393 
L 293.980026 162.4264 
L 297.017221 160.09075 
L 301.85775 156.716396 
L 307.485585 152.788975 
L 311.065803 150.044443 
L 314.658468 147.193745 
L 320.343873 142.993736 
L 323.454197 140.778599 
L 327.596109 137.461632 
L 332.786725 133.30538 
L 338.525031 129.031486 
L 343.202187 125.520838 
L 346.8073 122.529542 
L 351.663388 118.456501 
L 356.22696 114.730652 
L 362.247718 109.442375 
L 370.495756 101.937594 
L 376.520356 96.617822 
L 393.137794 81.189323 
L 406.822286 67.710558 
L 413.57351 62.144021 
L 420.400974 57.025104 
L 425.010447 53.916164 
L 426.203075 52.918348 
L 427.939504 51.034621 
L 429.007656 49.709699 
L 430.084756 48.066997 
L 430.63692 47.013946 
L 431.161855 45.686872 
L 431.678816 44.046547 
L 431.930951 44.145203 
L 432.144091 46.353211 
L 432.028076 72.874982 
L 432.027493 72.868817 
L 432.030094 82.326594 
L 432.026496 82.274273 
L 431.515272 82.731912 
L 430.481934 84.630479 
L 429.439065 84.742204 
L 428.928717 84.996186 
L 428.405337 85.449185 
L 427.874567 85.753874 
L 426.833838 86.746803 
L 426.300345 86.866027 
L 425.247363 88.943076 
L 424.169291 89.570926 
L 423.102645 90.245256 
L 422.045481 91.573675 
L 421.516462 92.847128 
L 421.000279 93.513893 
L 419.415748 94.711039 
L 418.366364 95.911413 
L 417.840943 96.527247 
L 415.733033 98.444151 
L 411.534815 102.831026 
L 410.495569 103.857424 
L 407.860196 106.507805 
L 405.267319 108.962802 
L 403.195585 111.142341 
L 402.151744 112.122851 
L 398.452302 115.648205 
L 391.140794 122.552261 
L 390.116597 123.3364 
L 388.012674 125.328535 
L 384.36064 128.515462 
L 383.308436 129.452125 
L 380.146085 132.267315 
L 378.577114 133.543637 
L 375.955355 135.7438 
L 363.934528 145.781532 
L 362.377226 146.833507 
L 360.817202 148.19591 
L 356.681319 151.598565 
L 355.631837 152.302721 
L 353.029528 154.341483 
L 352.512567 154.596272 
L 349.873304 156.707575 
L 345.141131 160.155411 
L 343.567103 161.643617 
L 342.528319 162.25963 
L 341.489535 162.902633 
L 339.41041 164.575732 
L 337.849316 165.609146 
L 337.329632 166.107247 
L 335.235142 167.586217 
L 332.622816 169.551194 
L 326.330012 173.799758 
L 325.798852 174.101443 
L 324.762888 174.979284 
L 318.966307 178.946136 
L 317.39403 180.159422 
L 316.350188 180.756286 
L 314.782482 181.921511 
L 312.680601 183.318076 
L 311.635204 183.858388 
L 309.562497 185.163673 
L 307.985917 186.212762 
L 306.95783 186.824829 
L 305.367465 188.031391 
L 301.188793 190.620798 
L 299.099749 191.938323 
L 297.015762 193.402632 
L 290.21098 197.491941 
L 289.155761 198.239765 
L 287.056215 199.324962 
L 286.000704 200.030642 
L 284.415493 200.909111 
L 281.815931 202.436266 
L 281.282243 202.692714 
L 279.193199 204.09605 
L 275.539852 206.092802 
L 275.01589 206.506168 
L 273.962518 207.054303 
L 273.436027 207.516896 
L 271.858304 208.359005 
L 269.771278 209.596115 
L 268.218255 210.495297 
L 266.656092 211.328349 
L 264.549738 212.79629 
L 262.485395 213.790968 
L 260.909422 214.867287 
L 259.338117 215.513787 
L 255.678242 217.476405 
L 254.629831 218.176795 
L 253.05133 218.72567 
L 251.452407 219.831356 
L 249.883241 220.399218 
L 247.781944 221.743216 
L 246.210639 222.409959 
L 245.172925 223.211224 
L 241.52568 225.142856 
L 240.488451 225.71834 
L 238.380736 226.688987 
L 237.342438 227.392246 
L 235.27401 228.310687 
L 233.703192 229.326212 
L 230.025801 231.048685 
L 227.394123 232.460853 
L 225.81426 233.201772 
L 224.756804 233.728342 
L 223.199309 234.398627 
L 221.623919 235.379451 
L 219.538765 236.23288 
L 218.504442 236.94537 
L 216.425317 237.821552 
L 215.378072 238.519925 
L 212.275528 239.911985 
L 211.237133 240.452902 
L 209.68022 241.155623 
L 207.56667 242.129498 
L 206.502796 242.664004 
L 197.606588 246.703475 
L 194.996985 247.999928 
L 193.955478 248.532461 
L 192.931134 248.925553 
L 191.905576 249.427913 
L 190.329214 250.011871 
L 188.249311 251.00341 
L 186.167852 251.937966 
L 179.915223 254.672627 
L 178.888886 255.155754 
L 173.160596 257.598421 
L 171.592986 258.263438 
L 170.001648 258.963828 
L 165.260475 260.990812 
L 163.669137 261.689364 
L 162.1272 262.266059 
L 161.100475 262.689691 
L 156.400174 264.626479 
L 154.830614 265.150585 
L 153.255322 265.870343 
L 152.206618 266.20776 
L 149.599155 267.379082 
L 148.559301 267.70556 
L 147.000638 268.347824 
L 145.956408 268.627664 
L 139.171403 271.386763 
L 137.600876 271.822792 
L 135.518056 272.690793 
L 134.994677 272.766382 
L 133.94714 273.261838 
L 133.435722 273.591051 
L 132.39227 273.886362 
L 130.835552 274.324275 
L 129.798147 274.9927 
L 128.215951 275.28265 
L 127.686251 275.506728 
L 126.650578 276.150852 
L 125.599933 276.312592 
L 124.56251 276.48784 
L 123.511181 277.119545 
L 120.887671 278.111631 
L 120.373239 278.43367 
L 119.32259 278.665796 
L 118.272914 278.79466 
L 117.236755 279.348893 
L 116.715206 279.621727 
L 115.148763 279.956947 
L 114.627815 280.118841 
L 113.59506 280.788094 
L 111.498431 281.12161 
L 110.986915 281.398771 
L 110.454298 281.848003 
L 109.402677 282.036651 
L 107.850529 282.423317 
L 107.33882 282.875329 
L 105.264557 283.131918 
L 104.752069 283.23928 
L 104.222861 283.890641 
L 103.701233 284.056559 
L 102.637164 284.080242 
L 102.112618 284.245902 
L 101.58564 284.241363 
L 101.067512 284.749103 
L 100.551234 284.914731 
L 98.986347 285.032147 
L 98.461509 285.145863 
L 97.931031 285.58595 
L 97.401719 285.717622 
L 96.353988 285.775129 
L 95.322595 286.090489 
L 94.810399 286.561062 
L 94.289742 286.718938 
L 92.736136 286.728309 
L 92.219078 286.871821 
L 91.686363 287.470529 
L 91.164365 287.708032 
L 90.127136 287.581967 
L 89.082031 287.559766 
L 88.569349 287.90689 
L 88.051513 288.471434 
L 87.013894 288.321619 
L 85.980556 288.383755 
L 85.468749 288.420929 
L 84.937687 289.116926 
L 84.408473 289.232979 
L 83.341681 289.241077 
L 82.300952 289.312354 
L 81.789729 289.894383 
L 81.263237 290.209024 
L 80.224453 290.146338 
L 79.163302 290.21804 
L 78.631089 290.552742 
L 78.106056 291.06 
L 76.526388 290.699359 
L 76.00262 290.467188 
L 75.490959 290.64511 
L 75.16939 291.033777 
L 75.026042 289.707112 
L 75.026042 289.707112 
" clip-path="url(#p6fbc7f3de8)" style="fill: none; stroke: #ff0000; stroke-width: 2; stroke-linecap: square"/>
   </g>
   <g id="line2d_26">
    <path d="M 75.133157 275.203269 
L 75.135186 275.054249 
L 75.133157 275.208625 
L 75.147386 275.108644 
L 75.675908 270.318415 
L 76.195008 269.646271 
L 77.254214 267.956224 
L 77.794125 267.500715 
L 78.414945 267.315373 
L 78.968082 275.596067 
L 80.21439 275.690935 
L 81.26076 275.47291 
L 85.61428 273.798908 
L 86.319121 273.672141 
L 87.78326 273.83399 
L 89.054463 274.062103 
L 90.096943 274.067125 
L 91.153426 273.901766 
L 91.684002 273.699477 
L 92.214577 273.372372 
L 93.280396 272.328758 
L 94.883014 270.529318 
L 95.418258 270.150788 
L 95.955057 269.923171 
L 97.025544 270.00298 
L 98.62505 270.226969 
L 99.679977 270.196701 
L 100.725567 269.970919 
L 101.761729 269.55592 
L 102.785538 268.950487 
L 107.093935 265.94054 
L 110.132686 264.306446 
L 117.04106 261.321607 
L 120.647728 259.888368 
L 130.490608 255.494677 
L 137.763071 252.395064 
L 149.079422 246.986341 
L 153.149761 244.987123 
L 159.194588 241.883922 
L 163.70837 239.445693 
L 171.234451 235.803773 
L 177.990343 232.276626 
L 187.003903 227.553675 
L 190.008423 226.001358 
L 196.025243 222.496448 
L 199.817068 220.370261 
L 207.733691 216.351738 
L 221.138114 208.675513 
L 225.805933 205.981912 
L 230.482117 203.044181 
L 234.133908 200.95673 
L 238.840626 198.453941 
L 244.555593 195.152038 
L 249.707311 191.852287 
L 253.804101 189.510181 
L 257.865104 187.051149 
L 261.636702 184.437173 
L 266.145816 181.408575 
L 269.900299 179.002626 
L 274.396966 176.136865 
L 280.384223 171.773303 
L 284.904228 168.662211 
L 288.685163 166.253393 
L 293.980026 162.4264 
L 297.017221 160.09075 
L 301.85775 156.716396 
L 307.485585 152.788975 
L 311.065803 150.044443 
L 314.658468 147.193745 
L 320.343873 142.993736 
L 323.454197 140.778599 
L 327.596109 137.461632 
L 332.786725 133.30538 
L 338.525031 129.031486 
L 343.202187 125.520838 
L 346.8073 122.529542 
L 351.663388 118.456501 
L 356.22696 114.730652 
L 362.247718 109.442375 
L 370.495756 101.937594 
L 376.520356 96.617822 
L 393.137794 81.189323 
L 406.822286 67.685805 
L 412.840662 62.493719 
L 419.769263 56.782549 
L 422.769115 54.036224 
L 425.010447 51.62346 
L 426.743764 49.523097 
L 428.456465 46.997712 
L 429.561182 45.108246 
L 430.63692 42.807387 
L 431.678816 39.496382 
L 431.930951 39.46 
L 432.144091 41.514857 
L 432.029705 65.519541 
L 432.030094 82.326594 
L 432.026496 82.274273 
L 431.515272 82.731912 
L 430.481934 84.630479 
L 429.439065 84.742204 
L 428.928717 84.996186 
L 428.405337 85.449185 
L 427.874567 85.753874 
L 426.833838 86.746803 
L 426.300345 86.866027 
L 425.247363 88.943076 
L 424.169291 89.570926 
L 423.102645 90.245256 
L 422.045481 91.573675 
L 421.516462 92.847128 
L 421.000279 93.513893 
L 419.415748 94.711039 
L 418.366364 95.911413 
L 417.840943 96.527247 
L 415.733033 98.444151 
L 411.534815 102.831026 
L 410.495569 103.857424 
L 407.860196 106.507805 
L 405.267319 108.962802 
L 403.195585 111.142341 
L 402.151744 112.122851 
L 398.452302 115.648205 
L 391.140794 122.552261 
L 390.116597 123.3364 
L 388.012674 125.328535 
L 384.36064 128.515462 
L 383.308436 129.452125 
L 380.146085 132.267315 
L 378.577114 133.543637 
L 375.955355 135.7438 
L 363.934528 145.781532 
L 362.377226 146.833507 
L 360.817202 148.19591 
L 356.681319 151.598565 
L 355.631837 152.302721 
L 353.029528 154.341483 
L 352.512567 154.596272 
L 349.873304 156.707575 
L 345.141131 160.155411 
L 343.567103 161.643617 
L 342.528319 162.25963 
L 341.489535 162.902633 
L 339.41041 164.575732 
L 337.849316 165.609146 
L 337.329632 166.107247 
L 335.235142 167.586217 
L 332.622816 169.551194 
L 326.330012 173.799758 
L 325.798852 174.101443 
L 324.762888 174.979284 
L 318.966307 178.946136 
L 317.39403 180.159422 
L 316.350188 180.756286 
L 314.782482 181.921511 
L 312.680601 183.318076 
L 311.635204 183.858388 
L 309.562497 185.163673 
L 307.985917 186.212762 
L 306.95783 186.824829 
L 305.367465 188.031391 
L 301.188793 190.620798 
L 299.099749 191.938323 
L 297.015762 193.402632 
L 290.21098 197.491941 
L 289.155761 198.239765 
L 287.056215 199.324962 
L 286.000704 200.030642 
L 284.415493 200.909111 
L 281.815931 202.436266 
L 281.282243 202.692714 
L 279.193199 204.09605 
L 275.539852 206.092802 
L 275.01589 206.506168 
L 273.962518 207.054303 
L 273.436027 207.516896 
L 271.858304 208.359005 
L 269.771278 209.596115 
L 268.218255 210.495297 
L 266.656092 211.328349 
L 264.549738 212.79629 
L 262.485395 213.790968 
L 260.909422 214.867287 
L 259.338117 215.513787 
L 255.678242 217.476405 
L 254.629831 218.176795 
L 253.05133 218.72567 
L 251.452407 219.831356 
L 249.883241 220.399218 
L 247.781944 221.743216 
L 246.210639 222.409959 
L 245.172925 223.211224 
L 241.52568 225.142856 
L 240.488451 225.71834 
L 238.380736 226.688987 
L 237.342438 227.392246 
L 235.27401 228.310687 
L 233.703192 229.326212 
L 230.025801 231.048685 
L 227.394123 232.460853 
L 225.81426 233.201772 
L 224.756804 233.728342 
L 223.199309 234.398627 
L 221.623919 235.379451 
L 219.538765 236.23288 
L 218.504442 236.94537 
L 216.425317 237.821552 
L 215.378072 238.519925 
L 212.275528 239.911985 
L 211.237133 240.452902 
L 209.68022 241.155623 
L 207.56667 242.129498 
L 206.502796 242.664004 
L 197.606588 246.703475 
L 194.996985 247.999928 
L 193.955478 248.532461 
L 192.931134 248.925553 
L 191.905576 249.427913 
L 190.329214 250.011871 
L 188.249311 251.00341 
L 186.167852 251.937966 
L 179.915223 254.672627 
L 178.888886 255.155754 
L 173.160596 257.598421 
L 171.592986 258.263438 
L 170.001648 258.963828 
L 165.260475 260.990812 
L 163.669137 261.689364 
L 162.1272 262.266059 
L 161.100475 262.689691 
L 156.400174 264.626479 
L 154.830614 265.150585 
L 153.255322 265.870343 
L 152.206618 266.20776 
L 149.599155 267.379082 
L 148.559301 267.70556 
L 147.000638 268.347824 
L 145.956408 268.627664 
L 139.171403 271.386763 
L 137.600876 271.822792 
L 135.518056 272.690793 
L 134.994677 272.766382 
L 133.94714 273.261838 
L 133.435722 273.591051 
L 132.39227 273.886362 
L 130.835552 274.324275 
L 129.798147 274.9927 
L 128.215951 275.28265 
L 127.686251 275.506728 
L 126.650578 276.150852 
L 125.599933 276.312592 
L 124.56251 276.48784 
L 123.511181 277.119545 
L 120.887671 278.111631 
L 120.373239 278.43367 
L 119.32259 278.665796 
L 118.272914 278.79466 
L 117.236755 279.348893 
L 116.715206 279.621727 
L 115.148763 279.956947 
L 114.627815 280.118841 
L 113.59506 280.788094 
L 111.498431 281.12161 
L 110.986915 281.398771 
L 110.454298 281.848003 
L 109.402677 282.036651 
L 107.850529 282.423317 
L 107.33882 282.875329 
L 105.264557 283.131918 
L 104.752069 283.23928 
L 104.222861 283.890641 
L 103.701233 284.056559 
L 102.637164 284.080242 
L 102.112618 284.245902 
L 101.58564 284.241363 
L 101.067512 284.749103 
L 100.551234 284.914731 
L 98.986347 285.032147 
L 98.461509 285.145863 
L 97.931031 285.58595 
L 97.401719 285.717622 
L 96.353988 285.775129 
L 95.322595 286.090489 
L 94.810399 286.561062 
L 94.289742 286.718938 
L 92.736136 286.728309 
L 92.219078 286.871821 
L 91.686363 287.470529 
L 91.164365 287.708032 
L 90.127136 287.581967 
L 89.082031 287.559766 
L 88.569349 287.90689 
L 88.051513 288.471434 
L 87.013894 288.321619 
L 85.980556 288.383755 
L 85.468749 288.420929 
L 84.937687 289.116926 
L 84.408473 289.232979 
L 83.341681 289.241077 
L 82.300952 289.312354 
L 81.789729 289.894383 
L 81.263237 290.209024 
L 80.224453 290.146338 
L 79.163302 290.21804 
L 78.631089 290.552742 
L 78.106056 291.06 
L 76.526388 290.699359 
L 76.00262 290.467188 
L 75.490959 290.64511 
L 75.16939 291.033777 
L 75.026042 289.707112 
L 75.026042 289.707112 
" clip-path="url(#p6fbc7f3de8)" style="fill: none; stroke: #000000; stroke-width: 2; stroke-linecap: square"/>
   </g>
   <g id="patch_3">
    <path d="M 57.17 303.64 
L 57.17 26.88 
" style="fill: none; stroke: #000000; stroke-width: 0.8; stroke-linejoin: miter; stroke-linecap: square"/>
   </g>
   <g id="patch_4">
    <path d="M 450 303.64 
L 450 26.88 
" style="fill: none; stroke: #000000; stroke-width: 0.8; stroke-linejoin: miter; stroke-linecap: square"/>
   </g>
   <g id="patch_5">
    <path d="M 57.17 303.64 
L 450 303.64 
" style="fill: none; stroke: #000000; stroke-width: 0.8; stroke-linejoin: miter; stroke-linecap: square"/>
   </g>
   <g id="patch_6">
    <path d="M 57.17 26.88 
L 450 26.88 
" style="fill: none; stroke: #000000; stroke-width: 0.8; stroke-linejoin: miter; stroke-linecap: square"/>
   </g>
   <g id="text_15">
    <!-- 2025-06-19 Trial 30 - Stress vs Strain -->
    <g transform="translate(142.330938 20.88) scale(0.12 -0.12)">
     <defs>
      <path id="DejaVuSans-36" d="M 2113 2584 
Q 1688 2584 1439 2293 
Q 1191 2003 1191 1497 
Q 1191 994 1439 701 
Q 1688 409 2113 409 
Q 2538 409 2786 701 
Q 3034 994 3034 1497 
Q 3034 2003 2786 2293 
Q 2538 2584 2113 2584 
z
M 3366 4563 
L 3366 3988 
Q 3128 4100 2886 4159 
Q 2644 4219 2406 4219 
Q 1781 4219 1451 3797 
Q 1122 3375 1075 2522 
Q 1259 2794 1537 2939 
Q 1816 3084 2150 3084 
Q 2853 3084 3261 2657 
Q 3669 2231 3669 1497 
Q 3669 778 3244 343 
Q 2819 -91 2113 -91 
Q 1303 -91 875 529 
Q 447 1150 447 2328 
Q 447 3434 972 4092 
Q 1497 4750 2381 4750 
Q 2619 4750 2861 4703 
Q 3103 4656 3366 4563 
z
" transform="scale(0.015625)"/>
      <path id="DejaVuSans-39" d="M 703 97 
L 703 672 
Q 941 559 1184 500 
Q 1428 441 1663 441 
Q 2288 441 2617 861 
Q 2947 1281 2994 2138 
Q 2813 1869 2534 1725 
Q 2256 1581 1919 1581 
Q 1219 1581 811 2004 
Q 403 2428 403 3163 
Q 403 3881 828 4315 
Q 1253 4750 1959 4750 
Q 2769 4750 3195 4129 
Q 3622 3509 3622 2328 
Q 3622 1225 3098 567 
Q 2575 -91 1691 -91 
Q 1453 -91 1209 -44 
Q 966 3 703 97 
z
M 1959 2075 
Q 2384 2075 2632 2365 
Q 2881 2656 2881 3163 
Q 2881 3666 2632 3958 
Q 2384 4250 1959 4250 
Q 1534 4250 1286 3958 
Q 1038 3666 1038 3163 
Q 1038 2656 1286 2365 
Q 1534 2075 1959 2075 
z
" transform="scale(0.015625)"/>
      <path id="DejaVuSans-54" d="M -19 4666 
L 3928 4666 
L 3928 4134 
L 2272 4134 
L 2272 0 
L 1638 0 
L 1638 4134 
L -19 4134 
L -19 4666 
z
" transform="scale(0.015625)"/>
      <path id="DejaVuSans-6c" d="M 603 4863 
L 1178 4863 
L 1178 0 
L 603 0 
L 603 4863 
z
" transform="scale(0.015625)"/>
      <path id="DejaVuSans-33" d="M 2597 2516 
Q 3050 2419 3304 2112 
Q 3559 1806 3559 1356 
Q 3559 666 3084 287 
Q 2609 -91 1734 -91 
Q 1441 -91 1130 -33 
Q 819 25 488 141 
L 488 750 
Q 750 597 1062 519 
Q 1375 441 1716 441 
Q 2309 441 2620 675 
Q 2931 909 2931 1356 
Q 2931 1769 2642 2001 
Q 2353 2234 1838 2234 
L 1294 2234 
L 1294 2753 
L 1863 2753 
Q 2328 2753 2575 2939 
Q 2822 3125 2822 3475 
Q 2822 3834 2567 4026 
Q 2313 4219 1838 4219 
Q 1578 4219 1281 4162 
Q 984 4106 628 3988 
L 628 4550 
Q 988 4650 1302 4700 
Q 1616 4750 1894 4750 
Q 2613 4750 3031 4423 
Q 3450 4097 3450 3541 
Q 3450 3153 3228 2886 
Q 3006 2619 2597 2516 
z
" transform="scale(0.015625)"/>
      <path id="DejaVuSans-76" d="M 191 3500 
L 800 3500 
L 1894 563 
L 2988 3500 
L 3597 3500 
L 2284 0 
L 1503 0 
L 191 3500 
z
" transform="scale(0.015625)"/>
     </defs>
     <use xlink:href="#DejaVuSans-32"/>
     <use xlink:href="#DejaVuSans-30" transform="translate(63.623047 0)"/>
     <use xlink:href="#DejaVuSans-32" transform="translate(127.246094 0)"/>
     <use xlink:href="#DejaVuSans-35" transform="translate(190.869141 0)"/>
     <use xlink:href="#DejaVuSans-2d" transform="translate(254.492188 0)"/>
     <use xlink:href="#DejaVuSans-30" transform="translate(290.576172 0)"/>
     <use xlink:href="#DejaVuSans-36" transform="translate(354.199219 0)"/>
     <use xlink:href="#DejaVuSans-2d" transform="translate(417.822266 0)"/>
     <use xlink:href="#DejaVuSans-31" transform="translate(453.90625 0)"/>
     <use xlink:href="#DejaVuSans-39" transform="translate(517.529297 0)"/>
     <use xlink:href="#DejaVuSans-20" transform="translate(581.152344 0)"/>
     <use xlink:href="#DejaVuSans-54" transform="translate(612.939453 0)"/>
     <use xlink:href="#DejaVuSans-72" transform="translate(659.273438 0)"/>
     <use xlink:href="#DejaVuSans-69" transform="translate(700.386719 0)"/>
     <use xlink:href="#DejaVuSans-61" transform="translate(728.169922 0)"/>
     <use xlink:href="#DejaVuSans-6c" transform="translate(789.449219 0)"/>
     <use xlink:href="#DejaVuSans-20" transform="translate(817.232422 0)"/>
     <use xlink:href="#DejaVuSans-33" transform="translate(849.019531 0)"/>
     <use xlink:href="#DejaVuSans-30" transform="translate(912.642578 0)"/>
     <use xlink:href="#DejaVuSans-20" transform="translate(976.265625 0)"/>
     <use xlink:href="#DejaVuSans-2d" transform="translate(1008.052734 0)"/>
     <use xlink:href="#DejaVuSans-20" transform="translate(1044.136719 0)"/>
     <use xlink:href="#DejaVuSans-53" transform="translate(1075.923828 0)"/>
     <use xlink:href="#DejaVuSans-74" transform="translate(1139.400391 0)"/>
     <use xlink:href="#DejaVuSans-72" transform="translate(1178.609375 0)"/>
     <use xlink:href="#DejaVuSans-65" transform="translate(1217.472656 0)"/>
     <use xlink:href="#DejaVuSans-73" transform="translate(1278.996094 0)"/>
     <use xlink:href="#DejaVuSans-73" transform="translate(1331.095703 0)"/>
     <use xlink:href="#DejaVuSans-20" transform="translate(1383.195312 0)"/>
     <use xlink:href="#DejaVuSans-76" transform="translate(1414.982422 0)"/>
     <use xlink:href="#DejaVuSans-73" transform="translate(1474.162109 0)"/>
     <use xlink:href="#DejaVuSans-20" transform="translate(1526.261719 0)"/>
     <use xlink:href="#DejaVuSans-53" transform="translate(1558.048828 0)"/>
     <use xlink:href="#DejaVuSans-74" transform="translate(1621.525391 0)"/>
     <use xlink:href="#DejaVuSans-72" transform="translate(1660.734375 0)"/>
     <use xlink:href="#DejaVuSans-61" transform="translate(1701.847656 0)"/>
     <use xlink:href="#DejaVuSans-69" transform="translate(1763.126953 0)"/>
     <use xlink:href="#DejaVuSans-6e" transform="translate(1790.910156 0)"/>
    </g>
   </g>
   <g id="legend_1">
    <g id="patch_7">
     <path d="M 64.17 64.23625 
L 170.154375 64.23625 
Q 172.154375 64.23625 172.154375 62.23625 
L 172.154375 33.88 
Q 172.154375 31.88 170.154375 31.88 
L 64.17 31.88 
Q 62.17 31.88 62.17 33.88 
L 62.17 62.23625 
Q 62.17 64.23625 64.17 64.23625 
z
" style="fill: #ffffff; opacity: 0.8; stroke: #cccccc; stroke-linejoin: miter"/>
    </g>
    <g id="line2d_27">
     <path d="M 66.17 39.978437 
L 76.17 39.978437 
L 86.17 39.978437 
" style="fill: none; stroke: #ff0000; stroke-width: 2; stroke-linecap: square"/>
    </g>
    <g id="text_16">
     <!-- Raw Force -->
     <g transform="translate(94.17 43.478437) scale(0.1 -0.1)">
      <defs>
       <path id="DejaVuSans-52" d="M 2841 2188 
Q 3044 2119 3236 1894 
Q 3428 1669 3622 1275 
L 4263 0 
L 3584 0 
L 2988 1197 
Q 2756 1666 2539 1819 
Q 2322 1972 1947 1972 
L 1259 1972 
L 1259 0 
L 628 0 
L 628 4666 
L 2053 4666 
Q 2853 4666 3247 4331 
Q 3641 3997 3641 3322 
Q 3641 2881 3436 2590 
Q 3231 2300 2841 2188 
z
M 1259 4147 
L 1259 2491 
L 2053 2491 
Q 2509 2491 2742 2702 
Q 2975 2913 2975 3322 
Q 2975 3731 2742 3939 
Q 2509 4147 2053 4147 
L 1259 4147 
z
" transform="scale(0.015625)"/>
       <path id="DejaVuSans-77" d="M 269 3500 
L 844 3500 
L 1563 769 
L 2278 3500 
L 2956 3500 
L 3675 769 
L 4391 3500 
L 4966 3500 
L 4050 0 
L 3372 0 
L 2619 2869 
L 1863 0 
L 1184 0 
L 269 3500 
z
" transform="scale(0.015625)"/>
       <path id="DejaVuSans-46" d="M 628 4666 
L 3309 4666 
L 3309 4134 
L 1259 4134 
L 1259 2759 
L 3109 2759 
L 3109 2228 
L 1259 2228 
L 1259 0 
L 628 0 
L 628 4666 
z
" transform="scale(0.015625)"/>
       <path id="DejaVuSans-6f" d="M 1959 3097 
Q 1497 3097 1228 2736 
Q 959 2375 959 1747 
Q 959 1119 1226 758 
Q 1494 397 1959 397 
Q 2419 397 2687 759 
Q 2956 1122 2956 1747 
Q 2956 2369 2687 2733 
Q 2419 3097 1959 3097 
z
M 1959 3584 
Q 2709 3584 3137 3096 
Q 3566 2609 3566 1747 
Q 3566 888 3137 398 
Q 2709 -91 1959 -91 
Q 1206 -91 779 398 
Q 353 888 353 1747 
Q 353 2609 779 3096 
Q 1206 3584 1959 3584 
z
" transform="scale(0.015625)"/>
       <path id="DejaVuSans-63" d="M 3122 3366 
L 3122 2828 
Q 2878 2963 2633 3030 
Q 2388 3097 2138 3097 
Q 1578 3097 1268 2742 
Q 959 2388 959 1747 
Q 959 1106 1268 751 
Q 1578 397 2138 397 
Q 2388 397 2633 464 
Q 2878 531 3122 666 
L 3122 134 
Q 2881 22 2623 -34 
Q 2366 -91 2075 -91 
Q 1284 -91 818 406 
Q 353 903 353 1747 
Q 353 2603 823 3093 
Q 1294 3584 2113 3584 
Q 2378 3584 2631 3529 
Q 2884 3475 3122 3366 
z
" transform="scale(0.015625)"/>
      </defs>
      <use xlink:href="#DejaVuSans-52"/>
      <use xlink:href="#DejaVuSans-61" transform="translate(67.232422 0)"/>
      <use xlink:href="#DejaVuSans-77" transform="translate(128.511719 0)"/>
      <use xlink:href="#DejaVuSans-20" transform="translate(210.298828 0)"/>
      <use xlink:href="#DejaVuSans-46" transform="translate(242.085938 0)"/>
      <use xlink:href="#DejaVuSans-6f" transform="translate(295.980469 0)"/>
      <use xlink:href="#DejaVuSans-72" transform="translate(357.162109 0)"/>
      <use xlink:href="#DejaVuSans-63" transform="translate(396.025391 0)"/>
      <use xlink:href="#DejaVuSans-65" transform="translate(451.005859 0)"/>
     </g>
    </g>
    <g id="line2d_28">
     <path d="M 66.17 54.656563 
L 76.17 54.656563 
L 86.17 54.656563 
" style="fill: none; stroke: #000000; stroke-width: 2; stroke-linecap: square"/>
    </g>
    <g id="text_17">
     <!-- Adjusted Force -->
     <g transform="translate(94.17 58.156563) scale(0.1 -0.1)">
      <defs>
       <path id="DejaVuSans-41" d="M 2188 4044 
L 1331 1722 
L 3047 1722 
L 2188 4044 
z
M 1831 4666 
L 2547 4666 
L 4325 0 
L 3669 0 
L 3244 1197 
L 1141 1197 
L 716 0 
L 50 0 
L 1831 4666 
z
" transform="scale(0.015625)"/>
       <path id="DejaVuSans-64" d="M 2906 2969 
L 2906 4863 
L 3481 4863 
L 3481 0 
L 2906 0 
L 2906 525 
Q 2725 213 2448 61 
Q 2172 -91 1784 -91 
Q 1150 -91 751 415 
Q 353 922 353 1747 
Q 353 2572 751 3078 
Q 1150 3584 1784 3584 
Q 2172 3584 2448 3432 
Q 2725 3281 2906 2969 
z
M 947 1747 
Q 947 1113 1208 752 
Q 1469 391 1925 391 
Q 2381 391 2643 752 
Q 2906 1113 2906 1747 
Q 2906 2381 2643 2742 
Q 2381 3103 1925 3103 
Q 1469 3103 1208 2742 
Q 947 2381 947 1747 
z
" transform="scale(0.015625)"/>
       <path id="DejaVuSans-6a" d="M 603 3500 
L 1178 3500 
L 1178 -63 
Q 1178 -731 923 -1031 
Q 669 -1331 103 -1331 
L -116 -1331 
L -116 -844 
L 38 -844 
Q 366 -844 484 -692 
Q 603 -541 603 -63 
L 603 3500 
z
M 603 4863 
L 1178 4863 
L 1178 4134 
L 603 4134 
L 603 4863 
z
" transform="scale(0.015625)"/>
       <path id="DejaVuSans-75" d="M 544 1381 
L 544 3500 
L 1119 3500 
L 1119 1403 
Q 1119 906 1312 657 
Q 1506 409 1894 409 
Q 2359 409 2629 706 
Q 2900 1003 2900 1516 
L 2900 3500 
L 3475 3500 
L 3475 0 
L 2900 0 
L 2900 538 
Q 2691 219 2414 64 
Q 2138 -91 1772 -91 
Q 1169 -91 856 284 
Q 544 659 544 1381 
z
M 1991 3584 
L 1991 3584 
z
" transform="scale(0.015625)"/>
      </defs>
      <use xlink:href="#DejaVuSans-41"/>
      <use xlink:href="#DejaVuSans-64" transform="translate(66.658203 0)"/>
      <use xlink:href="#DejaVuSans-6a" transform="translate(130.134766 0)"/>
      <use xlink:href="#DejaVuSans-75" transform="translate(157.917969 0)"/>
      <use xlink:href="#DejaVuSans-73" transform="translate(221.296875 0)"/>
      <use xlink:href="#DejaVuSans-74" transform="translate(273.396484 0)"/>
      <use xlink:href="#DejaVuSans-65" transform="translate(312.605469 0)"/>
      <use xlink:href="#DejaVuSans-64" transform="translate(374.128906 0)"/>
      <use xlink:href="#DejaVuSans-20" transform="translate(437.605469 0)"/>
      <use xlink:href="#DejaVuSans-46" transform="translate(469.392578 0)"/>
      <use xlink:href="#DejaVuSans-6f" transform="translate(523.287109 0)"/>
      <use xlink:href="#DejaVuSans-72" transform="translate(584.46875 0)"/>
      <use xlink:href="#DejaVuSans-63" transform="translate(623.332031 0)"/>
      <use xlink:href="#DejaVuSans-65" transform="translate(678.3125 0)"/>
     </g>
    </g>
   </g>
  </g>
 </g>
 <defs>
  <clipPath id="p6fbc7f3de8">
   <rect x="57.17" y="26.88" width="392.83" height="276.76"/>
  </clipPath>
 </defs>
</svg>
