<?xml version="1.0" encoding="utf-8" standalone="no"?>
<!DOCTYPE svg PUBLIC "-//W3C//DTD SVG 1.1//EN"
  "http://www.w3.org/Graphics/SVG/1.1/DTD/svg11.dtd">
<svg xmlns:xlink="http://www.w3.org/1999/xlink" width="460.8pt" height="345.6pt" viewBox="0 0 460.8 345.6" xmlns="http://www.w3.org/2000/svg" version="1.1">
 <metadata>
  <rdf:RDF xmlns:dc="http://purl.org/dc/elements/1.1/" xmlns:cc="http://creativecommons.org/ns#" xmlns:rdf="http://www.w3.org/1999/02/22-rdf-syntax-ns#">
   <cc:Work>
    <dc:type rdf:resource="http://purl.org/dc/dcmitype/StillImage"/>
    <dc:date>2025-07-28T21:14:40.950863</dc:date>
    <dc:format>image/svg+xml</dc:format>
    <dc:creator>
     <cc:Agent>
      <dc:title>Matplotlib v3.10.3, https://matplotlib.org/</dc:title>
     </cc:Agent>
    </dc:creator>
   </cc:Work>
  </rdf:RDF>
 </metadata>
 <defs>
  <style type="text/css">*{stroke-linejoin: round; stroke-linecap: butt}</style>
 </defs>
 <g id="figure_1">
  <g id="patch_1">
   <path d="M 0 345.6 
L 460.8 345.6 
L 460.8 0 
L 0 0 
z
" style="fill: #ffffff"/>
  </g>
  <g id="axes_1">
   <g id="patch_2">
    <path d="M 57.17 303.64 
L 450 303.64 
L 450 26.88 
L 57.17 26.88 
z
" style="fill: #ffffff"/>
   </g>
   <g id="matplotlib.axis_1">
    <g id="xtick_1">
     <g id="line2d_1">
      <path d="M 75.134706 303.64 
L 75.134706 26.88 
" clip-path="url(#pe9fa815ce5)" style="fill: none; stroke: #b0b0b0; stroke-opacity: 0.3; stroke-width: 0.8; stroke-linecap: square"/>
     </g>
     <g id="line2d_2">
      <defs>
       <path id="m0d876cd1e8" d="M 0 0 
L 0 3.5 
" style="stroke: #000000; stroke-width: 0.8"/>
      </defs>
      <g>
       <use xlink:href="#m0d876cd1e8" x="75.134706" y="303.64" style="stroke: #000000; stroke-width: 0.8"/>
      </g>
     </g>
     <g id="text_1">
      <!-- 0.00 -->
      <g transform="translate(64.001893 318.238437) scale(0.1 -0.1)">
       <defs>
        <path id="DejaVuSans-30" d="M 2034 4250 
Q 1547 4250 1301 3770 
Q 1056 3291 1056 2328 
Q 1056 1369 1301 889 
Q 1547 409 2034 409 
Q 2525 409 2770 889 
Q 3016 1369 3016 2328 
Q 3016 3291 2770 3770 
Q 2525 4250 2034 4250 
z
M 2034 4750 
Q 2819 4750 3233 4129 
Q 3647 3509 3647 2328 
Q 3647 1150 3233 529 
Q 2819 -91 2034 -91 
Q 1250 -91 836 529 
Q 422 1150 422 2328 
Q 422 3509 836 4129 
Q 1250 4750 2034 4750 
z
" transform="scale(0.015625)"/>
        <path id="DejaVuSans-2e" d="M 684 794 
L 1344 794 
L 1344 0 
L 684 0 
L 684 794 
z
" transform="scale(0.015625)"/>
       </defs>
       <use xlink:href="#DejaVuSans-30"/>
       <use xlink:href="#DejaVuSans-2e" transform="translate(63.623047 0)"/>
       <use xlink:href="#DejaVuSans-30" transform="translate(95.410156 0)"/>
       <use xlink:href="#DejaVuSans-30" transform="translate(159.033203 0)"/>
      </g>
     </g>
    </g>
    <g id="xtick_2">
     <g id="line2d_3">
      <path d="M 146.511164 303.64 
L 146.511164 26.88 
" clip-path="url(#pe9fa815ce5)" style="fill: none; stroke: #b0b0b0; stroke-opacity: 0.3; stroke-width: 0.8; stroke-linecap: square"/>
     </g>
     <g id="line2d_4">
      <g>
       <use xlink:href="#m0d876cd1e8" x="146.511164" y="303.64" style="stroke: #000000; stroke-width: 0.8"/>
      </g>
     </g>
     <g id="text_2">
      <!-- 0.05 -->
      <g transform="translate(135.378351 318.238437) scale(0.1 -0.1)">
       <defs>
        <path id="DejaVuSans-35" d="M 691 4666 
L 3169 4666 
L 3169 4134 
L 1269 4134 
L 1269 2991 
Q 1406 3038 1543 3061 
Q 1681 3084 1819 3084 
Q 2600 3084 3056 2656 
Q 3513 2228 3513 1497 
Q 3513 744 3044 326 
Q 2575 -91 1722 -91 
Q 1428 -91 1123 -41 
Q 819 9 494 109 
L 494 744 
Q 775 591 1075 516 
Q 1375 441 1709 441 
Q 2250 441 2565 725 
Q 2881 1009 2881 1497 
Q 2881 1984 2565 2268 
Q 2250 2553 1709 2553 
Q 1456 2553 1204 2497 
Q 953 2441 691 2322 
L 691 4666 
z
" transform="scale(0.015625)"/>
       </defs>
       <use xlink:href="#DejaVuSans-30"/>
       <use xlink:href="#DejaVuSans-2e" transform="translate(63.623047 0)"/>
       <use xlink:href="#DejaVuSans-30" transform="translate(95.410156 0)"/>
       <use xlink:href="#DejaVuSans-35" transform="translate(159.033203 0)"/>
      </g>
     </g>
    </g>
    <g id="xtick_3">
     <g id="line2d_5">
      <path d="M 217.887621 303.64 
L 217.887621 26.88 
" clip-path="url(#pe9fa815ce5)" style="fill: none; stroke: #b0b0b0; stroke-opacity: 0.3; stroke-width: 0.8; stroke-linecap: square"/>
     </g>
     <g id="line2d_6">
      <g>
       <use xlink:href="#m0d876cd1e8" x="217.887621" y="303.64" style="stroke: #000000; stroke-width: 0.8"/>
      </g>
     </g>
     <g id="text_3">
      <!-- 0.10 -->
      <g transform="translate(206.754809 318.238437) scale(0.1 -0.1)">
       <defs>
        <path id="DejaVuSans-31" d="M 794 531 
L 1825 531 
L 1825 4091 
L 703 3866 
L 703 4441 
L 1819 4666 
L 2450 4666 
L 2450 531 
L 3481 531 
L 3481 0 
L 794 0 
L 794 531 
z
" transform="scale(0.015625)"/>
       </defs>
       <use xlink:href="#DejaVuSans-30"/>
       <use xlink:href="#DejaVuSans-2e" transform="translate(63.623047 0)"/>
       <use xlink:href="#DejaVuSans-31" transform="translate(95.410156 0)"/>
       <use xlink:href="#DejaVuSans-30" transform="translate(159.033203 0)"/>
      </g>
     </g>
    </g>
    <g id="xtick_4">
     <g id="line2d_7">
      <path d="M 289.264079 303.64 
L 289.264079 26.88 
" clip-path="url(#pe9fa815ce5)" style="fill: none; stroke: #b0b0b0; stroke-opacity: 0.3; stroke-width: 0.8; stroke-linecap: square"/>
     </g>
     <g id="line2d_8">
      <g>
       <use xlink:href="#m0d876cd1e8" x="289.264079" y="303.64" style="stroke: #000000; stroke-width: 0.8"/>
      </g>
     </g>
     <g id="text_4">
      <!-- 0.15 -->
      <g transform="translate(278.131267 318.238437) scale(0.1 -0.1)">
       <use xlink:href="#DejaVuSans-30"/>
       <use xlink:href="#DejaVuSans-2e" transform="translate(63.623047 0)"/>
       <use xlink:href="#DejaVuSans-31" transform="translate(95.410156 0)"/>
       <use xlink:href="#DejaVuSans-35" transform="translate(159.033203 0)"/>
      </g>
     </g>
    </g>
    <g id="xtick_5">
     <g id="line2d_9">
      <path d="M 360.640537 303.64 
L 360.640537 26.88 
" clip-path="url(#pe9fa815ce5)" style="fill: none; stroke: #b0b0b0; stroke-opacity: 0.3; stroke-width: 0.8; stroke-linecap: square"/>
     </g>
     <g id="line2d_10">
      <g>
       <use xlink:href="#m0d876cd1e8" x="360.640537" y="303.64" style="stroke: #000000; stroke-width: 0.8"/>
      </g>
     </g>
     <g id="text_5">
      <!-- 0.20 -->
      <g transform="translate(349.507724 318.238437) scale(0.1 -0.1)">
       <defs>
        <path id="DejaVuSans-32" d="M 1228 531 
L 3431 531 
L 3431 0 
L 469 0 
L 469 531 
Q 828 903 1448 1529 
Q 2069 2156 2228 2338 
Q 2531 2678 2651 2914 
Q 2772 3150 2772 3378 
Q 2772 3750 2511 3984 
Q 2250 4219 1831 4219 
Q 1534 4219 1204 4116 
Q 875 4013 500 3803 
L 500 4441 
Q 881 4594 1212 4672 
Q 1544 4750 1819 4750 
Q 2544 4750 2975 4387 
Q 3406 4025 3406 3419 
Q 3406 3131 3298 2873 
Q 3191 2616 2906 2266 
Q 2828 2175 2409 1742 
Q 1991 1309 1228 531 
z
" transform="scale(0.015625)"/>
       </defs>
       <use xlink:href="#DejaVuSans-30"/>
       <use xlink:href="#DejaVuSans-2e" transform="translate(63.623047 0)"/>
       <use xlink:href="#DejaVuSans-32" transform="translate(95.410156 0)"/>
       <use xlink:href="#DejaVuSans-30" transform="translate(159.033203 0)"/>
      </g>
     </g>
    </g>
    <g id="xtick_6">
     <g id="line2d_11">
      <path d="M 432.016995 303.64 
L 432.016995 26.88 
" clip-path="url(#pe9fa815ce5)" style="fill: none; stroke: #b0b0b0; stroke-opacity: 0.3; stroke-width: 0.8; stroke-linecap: square"/>
     </g>
     <g id="line2d_12">
      <g>
       <use xlink:href="#m0d876cd1e8" x="432.016995" y="303.64" style="stroke: #000000; stroke-width: 0.8"/>
      </g>
     </g>
     <g id="text_6">
      <!-- 0.25 -->
      <g transform="translate(420.884182 318.238437) scale(0.1 -0.1)">
       <use xlink:href="#DejaVuSans-30"/>
       <use xlink:href="#DejaVuSans-2e" transform="translate(63.623047 0)"/>
       <use xlink:href="#DejaVuSans-32" transform="translate(95.410156 0)"/>
       <use xlink:href="#DejaVuSans-35" transform="translate(159.033203 0)"/>
      </g>
     </g>
    </g>
    <g id="text_7">
     <!-- Strain [-] -->
     <g transform="translate(231.47875 331.916562) scale(0.1 -0.1)">
      <defs>
       <path id="DejaVuSans-53" d="M 3425 4513 
L 3425 3897 
Q 3066 4069 2747 4153 
Q 2428 4238 2131 4238 
Q 1616 4238 1336 4038 
Q 1056 3838 1056 3469 
Q 1056 3159 1242 3001 
Q 1428 2844 1947 2747 
L 2328 2669 
Q 3034 2534 3370 2195 
Q 3706 1856 3706 1288 
Q 3706 609 3251 259 
Q 2797 -91 1919 -91 
Q 1588 -91 1214 -16 
Q 841 59 441 206 
L 441 856 
Q 825 641 1194 531 
Q 1563 422 1919 422 
Q 2459 422 2753 634 
Q 3047 847 3047 1241 
Q 3047 1584 2836 1778 
Q 2625 1972 2144 2069 
L 1759 2144 
Q 1053 2284 737 2584 
Q 422 2884 422 3419 
Q 422 4038 858 4394 
Q 1294 4750 2059 4750 
Q 2388 4750 2728 4690 
Q 3069 4631 3425 4513 
z
" transform="scale(0.015625)"/>
       <path id="DejaVuSans-74" d="M 1172 4494 
L 1172 3500 
L 2356 3500 
L 2356 3053 
L 1172 3053 
L 1172 1153 
Q 1172 725 1289 603 
Q 1406 481 1766 481 
L 2356 481 
L 2356 0 
L 1766 0 
Q 1100 0 847 248 
Q 594 497 594 1153 
L 594 3053 
L 172 3053 
L 172 3500 
L 594 3500 
L 594 4494 
L 1172 4494 
z
" transform="scale(0.015625)"/>
       <path id="DejaVuSans-72" d="M 2631 2963 
Q 2534 3019 2420 3045 
Q 2306 3072 2169 3072 
Q 1681 3072 1420 2755 
Q 1159 2438 1159 1844 
L 1159 0 
L 581 0 
L 581 3500 
L 1159 3500 
L 1159 2956 
Q 1341 3275 1631 3429 
Q 1922 3584 2338 3584 
Q 2397 3584 2469 3576 
Q 2541 3569 2628 3553 
L 2631 2963 
z
" transform="scale(0.015625)"/>
       <path id="DejaVuSans-61" d="M 2194 1759 
Q 1497 1759 1228 1600 
Q 959 1441 959 1056 
Q 959 750 1161 570 
Q 1363 391 1709 391 
Q 2188 391 2477 730 
Q 2766 1069 2766 1631 
L 2766 1759 
L 2194 1759 
z
M 3341 1997 
L 3341 0 
L 2766 0 
L 2766 531 
Q 2569 213 2275 61 
Q 1981 -91 1556 -91 
Q 1019 -91 701 211 
Q 384 513 384 1019 
Q 384 1609 779 1909 
Q 1175 2209 1959 2209 
L 2766 2209 
L 2766 2266 
Q 2766 2663 2505 2880 
Q 2244 3097 1772 3097 
Q 1472 3097 1187 3025 
Q 903 2953 641 2809 
L 641 3341 
Q 956 3463 1253 3523 
Q 1550 3584 1831 3584 
Q 2591 3584 2966 3190 
Q 3341 2797 3341 1997 
z
" transform="scale(0.015625)"/>
       <path id="DejaVuSans-69" d="M 603 3500 
L 1178 3500 
L 1178 0 
L 603 0 
L 603 3500 
z
M 603 4863 
L 1178 4863 
L 1178 4134 
L 603 4134 
L 603 4863 
z
" transform="scale(0.015625)"/>
       <path id="DejaVuSans-6e" d="M 3513 2113 
L 3513 0 
L 2938 0 
L 2938 2094 
Q 2938 2591 2744 2837 
Q 2550 3084 2163 3084 
Q 1697 3084 1428 2787 
Q 1159 2491 1159 1978 
L 1159 0 
L 581 0 
L 581 3500 
L 1159 3500 
L 1159 2956 
Q 1366 3272 1645 3428 
Q 1925 3584 2291 3584 
Q 2894 3584 3203 3211 
Q 3513 2838 3513 2113 
z
" transform="scale(0.015625)"/>
       <path id="DejaVuSans-20" transform="scale(0.015625)"/>
       <path id="DejaVuSans-5b" d="M 550 4863 
L 1875 4863 
L 1875 4416 
L 1125 4416 
L 1125 -397 
L 1875 -397 
L 1875 -844 
L 550 -844 
L 550 4863 
z
" transform="scale(0.015625)"/>
       <path id="DejaVuSans-2d" d="M 313 2009 
L 1997 2009 
L 1997 1497 
L 313 1497 
L 313 2009 
z
" transform="scale(0.015625)"/>
       <path id="DejaVuSans-5d" d="M 1947 4863 
L 1947 -844 
L 622 -844 
L 622 -397 
L 1369 -397 
L 1369 4416 
L 622 4416 
L 622 4863 
L 1947 4863 
z
" transform="scale(0.015625)"/>
      </defs>
      <use xlink:href="#DejaVuSans-53"/>
      <use xlink:href="#DejaVuSans-74" transform="translate(63.476562 0)"/>
      <use xlink:href="#DejaVuSans-72" transform="translate(102.685547 0)"/>
      <use xlink:href="#DejaVuSans-61" transform="translate(143.798828 0)"/>
      <use xlink:href="#DejaVuSans-69" transform="translate(205.078125 0)"/>
      <use xlink:href="#DejaVuSans-6e" transform="translate(232.861328 0)"/>
      <use xlink:href="#DejaVuSans-20" transform="translate(296.240234 0)"/>
      <use xlink:href="#DejaVuSans-5b" transform="translate(328.027344 0)"/>
      <use xlink:href="#DejaVuSans-2d" transform="translate(367.041016 0)"/>
      <use xlink:href="#DejaVuSans-5d" transform="translate(403.125 0)"/>
     </g>
    </g>
   </g>
   <g id="matplotlib.axis_2">
    <g id="ytick_1">
     <g id="line2d_13">
      <path d="M 57.17 274.745195 
L 450 274.745195 
" clip-path="url(#pe9fa815ce5)" style="fill: none; stroke: #b0b0b0; stroke-opacity: 0.3; stroke-width: 0.8; stroke-linecap: square"/>
     </g>
     <g id="line2d_14">
      <defs>
       <path id="m18bd1bb4a6" d="M 0 0 
L -3.5 0 
" style="stroke: #000000; stroke-width: 0.8"/>
      </defs>
      <g>
       <use xlink:href="#m18bd1bb4a6" x="57.17" y="274.745195" style="stroke: #000000; stroke-width: 0.8"/>
      </g>
     </g>
     <g id="text_8">
      <!-- 0 -->
      <g transform="translate(43.8075 278.544414) scale(0.1 -0.1)">
       <use xlink:href="#DejaVuSans-30"/>
      </g>
     </g>
    </g>
    <g id="ytick_2">
     <g id="line2d_15">
      <path d="M 57.17 231.421424 
L 450 231.421424 
" clip-path="url(#pe9fa815ce5)" style="fill: none; stroke: #b0b0b0; stroke-opacity: 0.3; stroke-width: 0.8; stroke-linecap: square"/>
     </g>
     <g id="line2d_16">
      <g>
       <use xlink:href="#m18bd1bb4a6" x="57.17" y="231.421424" style="stroke: #000000; stroke-width: 0.8"/>
      </g>
     </g>
     <g id="text_9">
      <!-- 500 -->
      <g transform="translate(31.0825 235.220643) scale(0.1 -0.1)">
       <use xlink:href="#DejaVuSans-35"/>
       <use xlink:href="#DejaVuSans-30" transform="translate(63.623047 0)"/>
       <use xlink:href="#DejaVuSans-30" transform="translate(127.246094 0)"/>
      </g>
     </g>
    </g>
    <g id="ytick_3">
     <g id="line2d_17">
      <path d="M 57.17 188.097653 
L 450 188.097653 
" clip-path="url(#pe9fa815ce5)" style="fill: none; stroke: #b0b0b0; stroke-opacity: 0.3; stroke-width: 0.8; stroke-linecap: square"/>
     </g>
     <g id="line2d_18">
      <g>
       <use xlink:href="#m18bd1bb4a6" x="57.17" y="188.097653" style="stroke: #000000; stroke-width: 0.8"/>
      </g>
     </g>
     <g id="text_10">
      <!-- 1000 -->
      <g transform="translate(24.72 191.896872) scale(0.1 -0.1)">
       <use xlink:href="#DejaVuSans-31"/>
       <use xlink:href="#DejaVuSans-30" transform="translate(63.623047 0)"/>
       <use xlink:href="#DejaVuSans-30" transform="translate(127.246094 0)"/>
       <use xlink:href="#DejaVuSans-30" transform="translate(190.869141 0)"/>
      </g>
     </g>
    </g>
    <g id="ytick_4">
     <g id="line2d_19">
      <path d="M 57.17 144.773883 
L 450 144.773883 
" clip-path="url(#pe9fa815ce5)" style="fill: none; stroke: #b0b0b0; stroke-opacity: 0.3; stroke-width: 0.8; stroke-linecap: square"/>
     </g>
     <g id="line2d_20">
      <g>
       <use xlink:href="#m18bd1bb4a6" x="57.17" y="144.773883" style="stroke: #000000; stroke-width: 0.8"/>
      </g>
     </g>
     <g id="text_11">
      <!-- 1500 -->
      <g transform="translate(24.72 148.573101) scale(0.1 -0.1)">
       <use xlink:href="#DejaVuSans-31"/>
       <use xlink:href="#DejaVuSans-35" transform="translate(63.623047 0)"/>
       <use xlink:href="#DejaVuSans-30" transform="translate(127.246094 0)"/>
       <use xlink:href="#DejaVuSans-30" transform="translate(190.869141 0)"/>
      </g>
     </g>
    </g>
    <g id="ytick_5">
     <g id="line2d_21">
      <path d="M 57.17 101.450112 
L 450 101.450112 
" clip-path="url(#pe9fa815ce5)" style="fill: none; stroke: #b0b0b0; stroke-opacity: 0.3; stroke-width: 0.8; stroke-linecap: square"/>
     </g>
     <g id="line2d_22">
      <g>
       <use xlink:href="#m18bd1bb4a6" x="57.17" y="101.450112" style="stroke: #000000; stroke-width: 0.8"/>
      </g>
     </g>
     <g id="text_12">
      <!-- 2000 -->
      <g transform="translate(24.72 105.249331) scale(0.1 -0.1)">
       <use xlink:href="#DejaVuSans-32"/>
       <use xlink:href="#DejaVuSans-30" transform="translate(63.623047 0)"/>
       <use xlink:href="#DejaVuSans-30" transform="translate(127.246094 0)"/>
       <use xlink:href="#DejaVuSans-30" transform="translate(190.869141 0)"/>
      </g>
     </g>
    </g>
    <g id="ytick_6">
     <g id="line2d_23">
      <path d="M 57.17 58.126341 
L 450 58.126341 
" clip-path="url(#pe9fa815ce5)" style="fill: none; stroke: #b0b0b0; stroke-opacity: 0.3; stroke-width: 0.8; stroke-linecap: square"/>
     </g>
     <g id="line2d_24">
      <g>
       <use xlink:href="#m18bd1bb4a6" x="57.17" y="58.126341" style="stroke: #000000; stroke-width: 0.8"/>
      </g>
     </g>
     <g id="text_13">
      <!-- 2500 -->
      <g transform="translate(24.72 61.92556) scale(0.1 -0.1)">
       <use xlink:href="#DejaVuSans-32"/>
       <use xlink:href="#DejaVuSans-35" transform="translate(63.623047 0)"/>
       <use xlink:href="#DejaVuSans-30" transform="translate(127.246094 0)"/>
       <use xlink:href="#DejaVuSans-30" transform="translate(190.869141 0)"/>
      </g>
     </g>
    </g>
    <g id="text_14">
     <!-- Stress [Pa] -->
     <g transform="translate(18.640312 191.967812) rotate(-90) scale(0.1 -0.1)">
      <defs>
       <path id="DejaVuSans-65" d="M 3597 1894 
L 3597 1613 
L 953 1613 
Q 991 1019 1311 708 
Q 1631 397 2203 397 
Q 2534 397 2845 478 
Q 3156 559 3463 722 
L 3463 178 
Q 3153 47 2828 -22 
Q 2503 -91 2169 -91 
Q 1331 -91 842 396 
Q 353 884 353 1716 
Q 353 2575 817 3079 
Q 1281 3584 2069 3584 
Q 2775 3584 3186 3129 
Q 3597 2675 3597 1894 
z
M 3022 2063 
Q 3016 2534 2758 2815 
Q 2500 3097 2075 3097 
Q 1594 3097 1305 2825 
Q 1016 2553 972 2059 
L 3022 2063 
z
" transform="scale(0.015625)"/>
       <path id="DejaVuSans-73" d="M 2834 3397 
L 2834 2853 
Q 2591 2978 2328 3040 
Q 2066 3103 1784 3103 
Q 1356 3103 1142 2972 
Q 928 2841 928 2578 
Q 928 2378 1081 2264 
Q 1234 2150 1697 2047 
L 1894 2003 
Q 2506 1872 2764 1633 
Q 3022 1394 3022 966 
Q 3022 478 2636 193 
Q 2250 -91 1575 -91 
Q 1294 -91 989 -36 
Q 684 19 347 128 
L 347 722 
Q 666 556 975 473 
Q 1284 391 1588 391 
Q 1994 391 2212 530 
Q 2431 669 2431 922 
Q 2431 1156 2273 1281 
Q 2116 1406 1581 1522 
L 1381 1569 
Q 847 1681 609 1914 
Q 372 2147 372 2553 
Q 372 3047 722 3315 
Q 1072 3584 1716 3584 
Q 2034 3584 2315 3537 
Q 2597 3491 2834 3397 
z
" transform="scale(0.015625)"/>
       <path id="DejaVuSans-50" d="M 1259 4147 
L 1259 2394 
L 2053 2394 
Q 2494 2394 2734 2622 
Q 2975 2850 2975 3272 
Q 2975 3691 2734 3919 
Q 2494 4147 2053 4147 
L 1259 4147 
z
M 628 4666 
L 2053 4666 
Q 2838 4666 3239 4311 
Q 3641 3956 3641 3272 
Q 3641 2581 3239 2228 
Q 2838 1875 2053 1875 
L 1259 1875 
L 1259 0 
L 628 0 
L 628 4666 
z
" transform="scale(0.015625)"/>
      </defs>
      <use xlink:href="#DejaVuSans-53"/>
      <use xlink:href="#DejaVuSans-74" transform="translate(63.476562 0)"/>
      <use xlink:href="#DejaVuSans-72" transform="translate(102.685547 0)"/>
      <use xlink:href="#DejaVuSans-65" transform="translate(141.548828 0)"/>
      <use xlink:href="#DejaVuSans-73" transform="translate(203.072266 0)"/>
      <use xlink:href="#DejaVuSans-73" transform="translate(255.171875 0)"/>
      <use xlink:href="#DejaVuSans-20" transform="translate(307.271484 0)"/>
      <use xlink:href="#DejaVuSans-5b" transform="translate(339.058594 0)"/>
      <use xlink:href="#DejaVuSans-50" transform="translate(378.072266 0)"/>
      <use xlink:href="#DejaVuSans-61" transform="translate(433.875 0)"/>
      <use xlink:href="#DejaVuSans-5d" transform="translate(495.154297 0)"/>
     </g>
    </g>
   </g>
   <g id="line2d_25">
    <path d="M 75.134706 274.957061 
L 75.134053 274.849887 
L 75.134706 274.957571 
L 75.13379 274.906224 
L 75.652285 273.488918 
L 76.201706 271.194706 
L 76.732652 270.746047 
L 77.281409 270.778234 
L 77.844639 270.198288 
L 78.396589 269.319327 
L 78.911975 268.804591 
L 79.479872 268.685679 
L 80.098336 268.906881 
L 81.74835 269.834977 
L 82.338808 269.881647 
L 83.572623 269.754709 
L 84.874898 269.983765 
L 85.545483 270.198756 
L 88.790277 271.722508 
L 89.465531 271.837264 
L 90.133783 271.671409 
L 91.449282 271.150096 
L 92.098085 271.088106 
L 92.739887 271.237705 
L 93.992373 271.73655 
L 94.596056 271.698551 
L 95.18418 271.401911 
L 95.757523 270.868543 
L 97.967655 268.305455 
L 99.054439 267.808254 
L 100.666335 267.172596 
L 104.335885 265.262335 
L 107.429759 263.71082 
L 111.033185 262.125329 
L 112.577399 261.502092 
L 114.117724 260.891277 
L 121.824792 257.320269 
L 124.409892 256.337009 
L 126.987993 255.019299 
L 131.626859 252.866831 
L 139.368157 249.178921 
L 141.435148 248.213014 
L 144.014286 247.11427 
L 146.702074 245.884236 
L 148.607253 244.831017 
L 156.196852 240.97579 
L 158.093474 240.016824 
L 161.877382 238.414164 
L 166.88577 235.757553 
L 171.287364 233.243418 
L 176.126161 230.929113 
L 182.222106 227.959058 
L 185.989677 225.904861 
L 188.495427 224.378553 
L 191.008957 222.987778 
L 192.904801 222.083244 
L 194.169734 221.51444 
L 199.234134 218.66896 
L 201.653533 217.311794 
L 203.189189 216.49165 
L 204.729514 215.632416 
L 207.8256 213.82956 
L 210.931921 212.236032 
L 217.342938 208.553967 
L 226.931069 202.834145 
L 230.561723 200.755838 
L 248.65509 190.029664 
L 251.707733 188.100772 
L 253.603577 186.911654 
L 258.014506 183.860498 
L 267.473498 177.86523 
L 268.729096 177.071754 
L 272.491027 174.416023 
L 288.902472 163.304072 
L 292.214948 161.07854 
L 297.322913 157.466982 
L 304.192916 152.315233 
L 307.89903 149.439431 
L 312.537896 146.16689 
L 321.261733 139.687567 
L 338.774829 125.57283 
L 340.842598 123.930349 
L 343.435477 121.851676 
L 350.272806 116.450413 
L 353.421914 113.866867 
L 357.783833 109.965245 
L 376.44043 93.616425 
L 377.971419 92.280814 
L 394.903319 76.083967 
L 396.806164 74.197452 
L 399.228456 71.830153 
L 403.830759 67.307486 
L 406.89896 64.297976 
L 417.899055 53.000807 
L 420.438257 50.491056 
L 424.677261 47.087366 
L 429.077688 43.828707 
L 430.151248 42.711192 
L 431.192231 41.055377 
L 431.708833 39.742598 
L 431.901495 39.567724 
L 432.144091 40.931374 
L 432.017359 61.156038 
L 432.018453 63.737872 
L 432.017554 70.365378 
L 432.017384 75.274097 
L 432.015706 75.259485 
L 431.497087 75.546695 
L 430.46821 77.393801 
L 428.886071 77.929269 
L 427.828071 78.704205 
L 427.305683 78.930064 
L 426.766375 79.544625 
L 426.231345 79.828707 
L 425.201545 81.875734 
L 424.670211 82.793054 
L 424.136543 83.248426 
L 423.62563 83.390764 
L 423.092545 83.667677 
L 422.032794 84.591755 
L 421.504864 85.225768 
L 419.93877 87.839979 
L 418.376566 88.886256 
L 416.80454 90.617875 
L 415.762196 91.88371 
L 414.728506 92.850805 
L 413.675562 94.137646 
L 410.56078 97.11188 
L 409.52359 98.469045 
L 407.454557 100.367889 
L 406.412407 101.522484 
L 405.360046 102.5041 
L 404.316243 103.492384 
L 402.741494 105.178977 
L 390.756744 116.716915 
L 378.245352 128.205443 
L 376.677702 129.512834 
L 369.921449 135.400246 
L 368.357592 136.77449 
L 366.248397 138.616162 
L 364.691736 139.875056 
L 362.598879 141.655263 
L 361.021602 142.806935 
L 359.438491 144.206078 
L 357.889025 145.361039 
L 356.299107 146.606051 
L 353.178783 149.172792 
L 343.28531 156.866189 
L 342.252982 157.578747 
L 341.20276 158.557623 
L 339.632582 159.684637 
L 339.107277 159.924104 
L 338.062696 160.743244 
L 336.497575 162.253844 
L 334.936197 163.160067 
L 334.407002 163.514428 
L 333.369326 164.498418 
L 330.238694 166.717283 
L 329.210255 167.419612 
L 328.161979 168.12742 
L 326.579451 169.387776 
L 321.888195 172.642507 
L 320.825721 173.373422 
L 317.699174 175.658501 
L 316.654301 176.46385 
L 315.609525 177.228009 
L 314.046835 178.086694 
L 310.90434 180.276739 
L 305.648372 183.845006 
L 304.074985 185.048463 
L 302.533299 185.898792 
L 300.943575 187.024162 
L 295.161499 190.886227 
L 294.117696 191.479187 
L 293.073698 192.072422 
L 290.995427 193.462558 
L 288.370749 195.019279 
L 287.32257 195.719964 
L 284.68564 197.428065 
L 277.848067 201.606178 
L 276.267873 202.512675 
L 275.214929 203.200893 
L 273.63668 204.222877 
L 271.554933 205.43344 
L 265.786495 208.773565 
L 264.740358 209.5306 
L 263.171056 210.33604 
L 261.594362 211.393689 
L 260.032644 212.198398 
L 258.443577 213.233819 
L 256.884776 213.852307 
L 254.281297 215.459032 
L 252.723858 216.316713 
L 251.690946 216.87748 
L 250.650449 217.456923 
L 249.611217 218.017371 
L 246.997235 219.449838 
L 246.47757 219.844932 
L 243.872377 221.100978 
L 242.840438 221.765313 
L 241.277359 222.423575 
L 239.709903 223.479214 
L 238.659488 223.753649 
L 237.635036 224.333687 
L 237.102826 224.824677 
L 235.541984 225.571758 
L 234.499931 226.051834 
L 233.45992 226.844854 
L 231.358736 227.664364 
L 229.784377 228.746352 
L 228.732794 229.203596 
L 227.676447 229.75797 
L 226.623405 230.259875 
L 225.070634 230.964806 
L 223.509013 231.928613 
L 221.428797 232.862463 
L 219.874968 233.732736 
L 218.310916 234.430179 
L 215.175812 236.180338 
L 213.100652 237.069048 
L 212.05364 237.712058 
L 209.989177 238.508251 
L 207.91606 239.62636 
L 207.384459 239.740956 
L 205.828964 240.644667 
L 204.269288 241.405424 
L 202.69843 242.102684 
L 200.607906 243.2065 
L 199.547766 243.518535 
L 193.847459 246.265114 
L 193.328961 246.390419 
L 191.760631 247.205859 
L 190.707784 247.730003 
L 189.655813 248.104593 
L 189.134592 248.282459 
L 187.034538 249.354994 
L 185.478849 250.0465 
L 183.891751 250.989984 
L 182.329061 251.373856 
L 180.74426 252.301626 
L 179.702791 252.73396 
L 178.667545 253.08638 
L 177.624908 253.876659 
L 176.589079 254.296207 
L 175.537691 254.592893 
L 174.49593 255.023468 
L 173.446389 255.702919 
L 170.851759 256.823767 
L 169.808151 257.256489 
L 168.246415 257.731988 
L 167.215156 258.451122 
L 165.630683 258.95491 
L 165.109268 259.059312 
L 163.012131 260.203792 
L 160.927053 260.977541 
L 157.785141 262.383625 
L 154.644105 263.639502 
L 153.607109 264.191182 
L 151.020161 265.185264 
L 150.497579 265.458798 
L 147.889724 266.228768 
L 146.313614 267.152389 
L 140.566685 269.285231 
L 139.528911 269.846408 
L 137.949106 270.303055 
L 135.880754 271.168704 
L 134.305714 271.668417 
L 132.729409 272.417552 
L 126.974033 274.595867 
L 126.45466 274.899266 
L 123.867809 275.630215 
L 123.338517 276.057457 
L 122.29345 276.388575 
L 121.765227 276.459036 
L 119.158928 277.462919 
L 117.599514 277.841839 
L 116.557072 278.375914 
L 114.990687 278.864919 
L 114.466548 279.068037 
L 113.43597 279.615652 
L 111.850525 279.927995 
L 110.800207 280.428804 
L 110.278402 280.755584 
L 107.684356 281.585397 
L 106.087631 282.202789 
L 104.536403 282.672987 
L 101.404799 283.815296 
L 100.353411 284.052993 
L 99.835982 284.214236 
L 98.789262 284.720159 
L 96.687458 285.232316 
L 96.163222 285.585215 
L 95.628874 285.775262 
L 94.586821 285.951691 
L 93.549241 286.215909 
L 93.024908 286.509992 
L 90.94934 286.912382 
L 89.912052 287.536041 
L 87.810249 287.788694 
L 86.778115 288.555068 
L 85.201227 288.621196 
L 84.162091 288.85019 
L 83.631049 289.512607 
L 83.117024 289.551825 
L 82.085279 289.451067 
L 81.036808 289.581958 
L 80.522491 290.161995 
L 79.992575 290.373228 
L 78.954801 290.332561 
L 77.892132 290.350496 
L 76.836563 291.06 
L 75.799275 290.681505 
L 75.116655 290.563013 
L 75.02673 290.002307 
L 75.02673 290.002307 
" clip-path="url(#pe9fa815ce5)" style="fill: none; stroke: #ff0000; stroke-width: 2; stroke-linecap: square"/>
   </g>
   <g id="line2d_26">
    <path d="M 75.134706 274.957061 
L 75.134053 274.849887 
L 75.134706 274.957571 
L 75.13379 274.906224 
L 75.652285 273.488918 
L 76.201706 271.194706 
L 76.732652 270.746047 
L 77.281409 270.778234 
L 77.844639 270.198288 
L 78.396589 269.319327 
L 78.911975 274.05497 
L 79.479872 273.789199 
L 81.175785 273.667365 
L 81.74835 273.515209 
L 82.94638 272.805391 
L 84.874898 271.563405 
L 86.736512 271.067848 
L 87.250732 270.994059 
L 88.790277 271.722508 
L 89.465531 271.837264 
L 90.133783 271.671409 
L 91.449282 271.150096 
L 92.098085 271.088106 
L 92.739887 271.237705 
L 93.992373 271.73655 
L 94.596056 271.698551 
L 95.18418 271.401911 
L 95.757523 270.868543 
L 97.967655 268.305455 
L 99.054439 267.808254 
L 100.666335 267.172596 
L 104.335885 265.262335 
L 107.429759 263.71082 
L 111.033185 262.125329 
L 112.577399 261.502092 
L 114.117724 260.891277 
L 121.824792 257.320269 
L 124.409892 256.337009 
L 126.987993 255.019299 
L 131.626859 252.866831 
L 139.368157 249.178921 
L 141.435148 248.213014 
L 144.014286 247.11427 
L 146.702074 245.884236 
L 148.607253 244.831017 
L 156.196852 240.97579 
L 158.093474 240.016824 
L 161.877382 238.414164 
L 166.88577 235.757553 
L 171.287364 233.243418 
L 176.126161 230.929113 
L 182.222106 227.959058 
L 185.989677 225.904861 
L 188.495427 224.378553 
L 191.008957 222.987778 
L 192.904801 222.083244 
L 194.169734 221.51444 
L 199.234134 218.66896 
L 201.653533 217.311794 
L 203.189189 216.49165 
L 204.729514 215.632416 
L 207.8256 213.82956 
L 210.931921 212.236032 
L 217.342938 208.553967 
L 226.931069 202.834145 
L 230.561723 200.755838 
L 248.65509 190.029664 
L 251.707733 188.100772 
L 253.603577 186.911654 
L 258.014506 183.860498 
L 267.473498 177.86523 
L 268.729096 177.071754 
L 272.491027 174.416023 
L 288.902472 163.304072 
L 292.214948 161.07854 
L 297.322913 157.466982 
L 304.192916 152.315233 
L 307.89903 149.439431 
L 312.537896 146.16689 
L 321.261733 139.687567 
L 338.774829 125.57283 
L 340.842598 123.930349 
L 343.435477 121.851676 
L 350.272806 116.450413 
L 353.421914 113.866867 
L 357.783833 109.965245 
L 376.44043 93.616425 
L 377.971419 92.280814 
L 394.903319 76.083967 
L 396.806164 74.197452 
L 399.228456 71.830153 
L 403.830759 67.307486 
L 406.89896 64.297976 
L 416.624787 54.35892 
L 419.80579 50.740672 
L 424.10314 46.309289 
L 428.561913 41.704334 
L 430.674413 40.018021 
L 431.192231 39.929431 
L 431.901495 39.46 
L 432.144091 40.879584 
L 432.016436 61.023564 
L 432.017238 63.119156 
L 432.017384 75.274097 
L 432.015706 75.259485 
L 431.497087 75.546695 
L 430.46821 77.393801 
L 428.886071 77.929269 
L 427.828071 78.704205 
L 427.305683 78.930064 
L 426.766375 79.544625 
L 426.231345 79.828707 
L 425.201545 81.875734 
L 424.670211 82.793054 
L 424.136543 83.248426 
L 423.62563 83.390764 
L 423.092545 83.667677 
L 422.032794 84.591755 
L 421.504864 85.225768 
L 419.93877 87.839979 
L 418.376566 88.886256 
L 416.80454 90.617875 
L 415.762196 91.88371 
L 414.728506 92.850805 
L 413.675562 94.137646 
L 410.56078 97.11188 
L 409.52359 98.469045 
L 407.454557 100.367889 
L 406.412407 101.522484 
L 405.360046 102.5041 
L 404.316243 103.492384 
L 402.741494 105.178977 
L 390.756744 116.716915 
L 378.245352 128.205443 
L 376.677702 129.512834 
L 369.921449 135.400246 
L 368.357592 136.77449 
L 366.248397 138.616162 
L 364.691736 139.875056 
L 362.598879 141.655263 
L 361.021602 142.806935 
L 359.438491 144.206078 
L 357.889025 145.361039 
L 356.299107 146.606051 
L 353.178783 149.172792 
L 343.28531 156.866189 
L 342.252982 157.578747 
L 341.20276 158.557623 
L 339.632582 159.684637 
L 339.107277 159.924104 
L 338.062696 160.743244 
L 336.497575 162.253844 
L 334.936197 163.160067 
L 334.407002 163.514428 
L 333.369326 164.498418 
L 330.238694 166.717283 
L 329.210255 167.419612 
L 328.161979 168.12742 
L 326.579451 169.387776 
L 321.888195 172.642507 
L 320.825721 173.373422 
L 317.699174 175.658501 
L 316.654301 176.46385 
L 315.609525 177.228009 
L 314.046835 178.086694 
L 310.90434 180.276739 
L 305.648372 183.845006 
L 304.074985 185.048463 
L 302.533299 185.898792 
L 300.943575 187.024162 
L 295.161499 190.886227 
L 294.117696 191.479187 
L 293.073698 192.072422 
L 290.995427 193.462558 
L 288.370749 195.019279 
L 287.32257 195.719964 
L 284.68564 197.428065 
L 277.848067 201.606178 
L 276.267873 202.512675 
L 275.214929 203.200893 
L 273.63668 204.222877 
L 271.554933 205.43344 
L 265.786495 208.773565 
L 264.740358 209.5306 
L 263.171056 210.33604 
L 261.594362 211.393689 
L 260.032644 212.198398 
L 258.443577 213.233819 
L 256.884776 213.852307 
L 254.281297 215.459032 
L 252.723858 216.316713 
L 251.690946 216.87748 
L 250.650449 217.456923 
L 249.611217 218.017371 
L 246.997235 219.449838 
L 246.47757 219.844932 
L 243.872377 221.100978 
L 242.840438 221.765313 
L 241.277359 222.423575 
L 239.709903 223.479214 
L 238.659488 223.753649 
L 237.635036 224.333687 
L 237.102826 224.824677 
L 235.541984 225.571758 
L 234.499931 226.051834 
L 233.45992 226.844854 
L 231.358736 227.664364 
L 229.784377 228.746352 
L 228.732794 229.203596 
L 227.676447 229.75797 
L 226.623405 230.259875 
L 225.070634 230.964806 
L 223.509013 231.928613 
L 221.428797 232.862463 
L 219.874968 233.732736 
L 218.310916 234.430179 
L 215.175812 236.180338 
L 213.100652 237.069048 
L 212.05364 237.712058 
L 209.989177 238.508251 
L 207.91606 239.62636 
L 207.384459 239.740956 
L 205.828964 240.644667 
L 204.269288 241.405424 
L 202.69843 242.102684 
L 200.607906 243.2065 
L 199.547766 243.518535 
L 193.847459 246.265114 
L 193.328961 246.390419 
L 191.760631 247.205859 
L 190.707784 247.730003 
L 189.655813 248.104593 
L 189.134592 248.282459 
L 187.034538 249.354994 
L 185.478849 250.0465 
L 183.891751 250.989984 
L 182.329061 251.373856 
L 180.74426 252.301626 
L 179.702791 252.73396 
L 178.667545 253.08638 
L 177.624908 253.876659 
L 176.589079 254.296207 
L 175.537691 254.592893 
L 174.49593 255.023468 
L 173.446389 255.702919 
L 170.851759 256.823767 
L 169.808151 257.256489 
L 168.246415 257.731988 
L 167.215156 258.451122 
L 165.630683 258.95491 
L 165.109268 259.059312 
L 163.012131 260.203792 
L 160.927053 260.977541 
L 157.785141 262.383625 
L 154.644105 263.639502 
L 153.607109 264.191182 
L 151.020161 265.185264 
L 150.497579 265.458798 
L 147.889724 266.228768 
L 146.313614 267.152389 
L 140.566685 269.285231 
L 139.528911 269.846408 
L 137.949106 270.303055 
L 135.880754 271.168704 
L 134.305714 271.668417 
L 132.729409 272.417552 
L 126.974033 274.595867 
L 126.45466 274.899266 
L 123.867809 275.630215 
L 123.338517 276.057457 
L 122.29345 276.388575 
L 121.765227 276.459036 
L 119.158928 277.462919 
L 117.599514 277.841839 
L 116.557072 278.375914 
L 114.990687 278.864919 
L 114.466548 279.068037 
L 113.43597 279.615652 
L 111.850525 279.927995 
L 110.800207 280.428804 
L 110.278402 280.755584 
L 107.684356 281.585397 
L 106.087631 282.202789 
L 104.536403 282.672987 
L 101.404799 283.815296 
L 100.353411 284.052993 
L 99.835982 284.214236 
L 98.789262 284.720159 
L 96.687458 285.232316 
L 96.163222 285.585215 
L 95.628874 285.775262 
L 94.586821 285.951691 
L 93.549241 286.215909 
L 93.024908 286.509992 
L 90.94934 286.912382 
L 89.912052 287.536041 
L 87.810249 287.788694 
L 86.778115 288.555068 
L 85.201227 288.621196 
L 84.162091 288.85019 
L 83.631049 289.512607 
L 83.117024 289.551825 
L 82.085279 289.451067 
L 81.036808 289.581958 
L 80.522491 290.161995 
L 79.992575 290.373228 
L 78.954801 290.332561 
L 77.892132 290.350496 
L 76.836563 291.06 
L 75.799275 290.681505 
L 75.116655 290.563013 
L 75.02673 290.002307 
L 75.02673 290.002307 
" clip-path="url(#pe9fa815ce5)" style="fill: none; stroke: #000000; stroke-width: 2; stroke-linecap: square"/>
   </g>
   <g id="patch_3">
    <path d="M 57.17 303.64 
L 57.17 26.88 
" style="fill: none; stroke: #000000; stroke-width: 0.8; stroke-linejoin: miter; stroke-linecap: square"/>
   </g>
   <g id="patch_4">
    <path d="M 450 303.64 
L 450 26.88 
" style="fill: none; stroke: #000000; stroke-width: 0.8; stroke-linejoin: miter; stroke-linecap: square"/>
   </g>
   <g id="patch_5">
    <path d="M 57.17 303.64 
L 450 303.64 
" style="fill: none; stroke: #000000; stroke-width: 0.8; stroke-linejoin: miter; stroke-linecap: square"/>
   </g>
   <g id="patch_6">
    <path d="M 57.17 26.88 
L 450 26.88 
" style="fill: none; stroke: #000000; stroke-width: 0.8; stroke-linejoin: miter; stroke-linecap: square"/>
   </g>
   <g id="text_15">
    <!-- 2025-06-19 Trial 29 - Stress vs Strain -->
    <g transform="translate(142.330938 20.88) scale(0.12 -0.12)">
     <defs>
      <path id="DejaVuSans-36" d="M 2113 2584 
Q 1688 2584 1439 2293 
Q 1191 2003 1191 1497 
Q 1191 994 1439 701 
Q 1688 409 2113 409 
Q 2538 409 2786 701 
Q 3034 994 3034 1497 
Q 3034 2003 2786 2293 
Q 2538 2584 2113 2584 
z
M 3366 4563 
L 3366 3988 
Q 3128 4100 2886 4159 
Q 2644 4219 2406 4219 
Q 1781 4219 1451 3797 
Q 1122 3375 1075 2522 
Q 1259 2794 1537 2939 
Q 1816 3084 2150 3084 
Q 2853 3084 3261 2657 
Q 3669 2231 3669 1497 
Q 3669 778 3244 343 
Q 2819 -91 2113 -91 
Q 1303 -91 875 529 
Q 447 1150 447 2328 
Q 447 3434 972 4092 
Q 1497 4750 2381 4750 
Q 2619 4750 2861 4703 
Q 3103 4656 3366 4563 
z
" transform="scale(0.015625)"/>
      <path id="DejaVuSans-39" d="M 703 97 
L 703 672 
Q 941 559 1184 500 
Q 1428 441 1663 441 
Q 2288 441 2617 861 
Q 2947 1281 2994 2138 
Q 2813 1869 2534 1725 
Q 2256 1581 1919 1581 
Q 1219 1581 811 2004 
Q 403 2428 403 3163 
Q 403 3881 828 4315 
Q 1253 4750 1959 4750 
Q 2769 4750 3195 4129 
Q 3622 3509 3622 2328 
Q 3622 1225 3098 567 
Q 2575 -91 1691 -91 
Q 1453 -91 1209 -44 
Q 966 3 703 97 
z
M 1959 2075 
Q 2384 2075 2632 2365 
Q 2881 2656 2881 3163 
Q 2881 3666 2632 3958 
Q 2384 4250 1959 4250 
Q 1534 4250 1286 3958 
Q 1038 3666 1038 3163 
Q 1038 2656 1286 2365 
Q 1534 2075 1959 2075 
z
" transform="scale(0.015625)"/>
      <path id="DejaVuSans-54" d="M -19 4666 
L 3928 4666 
L 3928 4134 
L 2272 4134 
L 2272 0 
L 1638 0 
L 1638 4134 
L -19 4134 
L -19 4666 
z
" transform="scale(0.015625)"/>
      <path id="DejaVuSans-6c" d="M 603 4863 
L 1178 4863 
L 1178 0 
L 603 0 
L 603 4863 
z
" transform="scale(0.015625)"/>
      <path id="DejaVuSans-76" d="M 191 3500 
L 800 3500 
L 1894 563 
L 2988 3500 
L 3597 3500 
L 2284 0 
L 1503 0 
L 191 3500 
z
" transform="scale(0.015625)"/>
     </defs>
     <use xlink:href="#DejaVuSans-32"/>
     <use xlink:href="#DejaVuSans-30" transform="translate(63.623047 0)"/>
     <use xlink:href="#DejaVuSans-32" transform="translate(127.246094 0)"/>
     <use xlink:href="#DejaVuSans-35" transform="translate(190.869141 0)"/>
     <use xlink:href="#DejaVuSans-2d" transform="translate(254.492188 0)"/>
     <use xlink:href="#DejaVuSans-30" transform="translate(290.576172 0)"/>
     <use xlink:href="#DejaVuSans-36" transform="translate(354.199219 0)"/>
     <use xlink:href="#DejaVuSans-2d" transform="translate(417.822266 0)"/>
     <use xlink:href="#DejaVuSans-31" transform="translate(453.90625 0)"/>
     <use xlink:href="#DejaVuSans-39" transform="translate(517.529297 0)"/>
     <use xlink:href="#DejaVuSans-20" transform="translate(581.152344 0)"/>
     <use xlink:href="#DejaVuSans-54" transform="translate(612.939453 0)"/>
     <use xlink:href="#DejaVuSans-72" transform="translate(659.273438 0)"/>
     <use xlink:href="#DejaVuSans-69" transform="translate(700.386719 0)"/>
     <use xlink:href="#DejaVuSans-61" transform="translate(728.169922 0)"/>
     <use xlink:href="#DejaVuSans-6c" transform="translate(789.449219 0)"/>
     <use xlink:href="#DejaVuSans-20" transform="translate(817.232422 0)"/>
     <use xlink:href="#DejaVuSans-32" transform="translate(849.019531 0)"/>
     <use xlink:href="#DejaVuSans-39" transform="translate(912.642578 0)"/>
     <use xlink:href="#DejaVuSans-20" transform="translate(976.265625 0)"/>
     <use xlink:href="#DejaVuSans-2d" transform="translate(1008.052734 0)"/>
     <use xlink:href="#DejaVuSans-20" transform="translate(1044.136719 0)"/>
     <use xlink:href="#DejaVuSans-53" transform="translate(1075.923828 0)"/>
     <use xlink:href="#DejaVuSans-74" transform="translate(1139.400391 0)"/>
     <use xlink:href="#DejaVuSans-72" transform="translate(1178.609375 0)"/>
     <use xlink:href="#DejaVuSans-65" transform="translate(1217.472656 0)"/>
     <use xlink:href="#DejaVuSans-73" transform="translate(1278.996094 0)"/>
     <use xlink:href="#DejaVuSans-73" transform="translate(1331.095703 0)"/>
     <use xlink:href="#DejaVuSans-20" transform="translate(1383.195312 0)"/>
     <use xlink:href="#DejaVuSans-76" transform="translate(1414.982422 0)"/>
     <use xlink:href="#DejaVuSans-73" transform="translate(1474.162109 0)"/>
     <use xlink:href="#DejaVuSans-20" transform="translate(1526.261719 0)"/>
     <use xlink:href="#DejaVuSans-53" transform="translate(1558.048828 0)"/>
     <use xlink:href="#DejaVuSans-74" transform="translate(1621.525391 0)"/>
     <use xlink:href="#DejaVuSans-72" transform="translate(1660.734375 0)"/>
     <use xlink:href="#DejaVuSans-61" transform="translate(1701.847656 0)"/>
     <use xlink:href="#DejaVuSans-69" transform="translate(1763.126953 0)"/>
     <use xlink:href="#DejaVuSans-6e" transform="translate(1790.910156 0)"/>
    </g>
   </g>
   <g id="legend_1">
    <g id="patch_7">
     <path d="M 64.17 64.23625 
L 170.154375 64.23625 
Q 172.154375 64.23625 172.154375 62.23625 
L 172.154375 33.88 
Q 172.154375 31.88 170.154375 31.88 
L 64.17 31.88 
Q 62.17 31.88 62.17 33.88 
L 62.17 62.23625 
Q 62.17 64.23625 64.17 64.23625 
z
" style="fill: #ffffff; opacity: 0.8; stroke: #cccccc; stroke-linejoin: miter"/>
    </g>
    <g id="line2d_27">
     <path d="M 66.17 39.978437 
L 76.17 39.978437 
L 86.17 39.978437 
" style="fill: none; stroke: #ff0000; stroke-width: 2; stroke-linecap: square"/>
    </g>
    <g id="text_16">
     <!-- Raw Force -->
     <g transform="translate(94.17 43.478437) scale(0.1 -0.1)">
      <defs>
       <path id="DejaVuSans-52" d="M 2841 2188 
Q 3044 2119 3236 1894 
Q 3428 1669 3622 1275 
L 4263 0 
L 3584 0 
L 2988 1197 
Q 2756 1666 2539 1819 
Q 2322 1972 1947 1972 
L 1259 1972 
L 1259 0 
L 628 0 
L 628 4666 
L 2053 4666 
Q 2853 4666 3247 4331 
Q 3641 3997 3641 3322 
Q 3641 2881 3436 2590 
Q 3231 2300 2841 2188 
z
M 1259 4147 
L 1259 2491 
L 2053 2491 
Q 2509 2491 2742 2702 
Q 2975 2913 2975 3322 
Q 2975 3731 2742 3939 
Q 2509 4147 2053 4147 
L 1259 4147 
z
" transform="scale(0.015625)"/>
       <path id="DejaVuSans-77" d="M 269 3500 
L 844 3500 
L 1563 769 
L 2278 3500 
L 2956 3500 
L 3675 769 
L 4391 3500 
L 4966 3500 
L 4050 0 
L 3372 0 
L 2619 2869 
L 1863 0 
L 1184 0 
L 269 3500 
z
" transform="scale(0.015625)"/>
       <path id="DejaVuSans-46" d="M 628 4666 
L 3309 4666 
L 3309 4134 
L 1259 4134 
L 1259 2759 
L 3109 2759 
L 3109 2228 
L 1259 2228 
L 1259 0 
L 628 0 
L 628 4666 
z
" transform="scale(0.015625)"/>
       <path id="DejaVuSans-6f" d="M 1959 3097 
Q 1497 3097 1228 2736 
Q 959 2375 959 1747 
Q 959 1119 1226 758 
Q 1494 397 1959 397 
Q 2419 397 2687 759 
Q 2956 1122 2956 1747 
Q 2956 2369 2687 2733 
Q 2419 3097 1959 3097 
z
M 1959 3584 
Q 2709 3584 3137 3096 
Q 3566 2609 3566 1747 
Q 3566 888 3137 398 
Q 2709 -91 1959 -91 
Q 1206 -91 779 398 
Q 353 888 353 1747 
Q 353 2609 779 3096 
Q 1206 3584 1959 3584 
z
" transform="scale(0.015625)"/>
       <path id="DejaVuSans-63" d="M 3122 3366 
L 3122 2828 
Q 2878 2963 2633 3030 
Q 2388 3097 2138 3097 
Q 1578 3097 1268 2742 
Q 959 2388 959 1747 
Q 959 1106 1268 751 
Q 1578 397 2138 397 
Q 2388 397 2633 464 
Q 2878 531 3122 666 
L 3122 134 
Q 2881 22 2623 -34 
Q 2366 -91 2075 -91 
Q 1284 -91 818 406 
Q 353 903 353 1747 
Q 353 2603 823 3093 
Q 1294 3584 2113 3584 
Q 2378 3584 2631 3529 
Q 2884 3475 3122 3366 
z
" transform="scale(0.015625)"/>
      </defs>
      <use xlink:href="#DejaVuSans-52"/>
      <use xlink:href="#DejaVuSans-61" transform="translate(67.232422 0)"/>
      <use xlink:href="#DejaVuSans-77" transform="translate(128.511719 0)"/>
      <use xlink:href="#DejaVuSans-20" transform="translate(210.298828 0)"/>
      <use xlink:href="#DejaVuSans-46" transform="translate(242.085938 0)"/>
      <use xlink:href="#DejaVuSans-6f" transform="translate(295.980469 0)"/>
      <use xlink:href="#DejaVuSans-72" transform="translate(357.162109 0)"/>
      <use xlink:href="#DejaVuSans-63" transform="translate(396.025391 0)"/>
      <use xlink:href="#DejaVuSans-65" transform="translate(451.005859 0)"/>
     </g>
    </g>
    <g id="line2d_28">
     <path d="M 66.17 54.656563 
L 76.17 54.656563 
L 86.17 54.656563 
" style="fill: none; stroke: #000000; stroke-width: 2; stroke-linecap: square"/>
    </g>
    <g id="text_17">
     <!-- Adjusted Force -->
     <g transform="translate(94.17 58.156563) scale(0.1 -0.1)">
      <defs>
       <path id="DejaVuSans-41" d="M 2188 4044 
L 1331 1722 
L 3047 1722 
L 2188 4044 
z
M 1831 4666 
L 2547 4666 
L 4325 0 
L 3669 0 
L 3244 1197 
L 1141 1197 
L 716 0 
L 50 0 
L 1831 4666 
z
" transform="scale(0.015625)"/>
       <path id="DejaVuSans-64" d="M 2906 2969 
L 2906 4863 
L 3481 4863 
L 3481 0 
L 2906 0 
L 2906 525 
Q 2725 213 2448 61 
Q 2172 -91 1784 -91 
Q 1150 -91 751 415 
Q 353 922 353 1747 
Q 353 2572 751 3078 
Q 1150 3584 1784 3584 
Q 2172 3584 2448 3432 
Q 2725 3281 2906 2969 
z
M 947 1747 
Q 947 1113 1208 752 
Q 1469 391 1925 391 
Q 2381 391 2643 752 
Q 2906 1113 2906 1747 
Q 2906 2381 2643 2742 
Q 2381 3103 1925 3103 
Q 1469 3103 1208 2742 
Q 947 2381 947 1747 
z
" transform="scale(0.015625)"/>
       <path id="DejaVuSans-6a" d="M 603 3500 
L 1178 3500 
L 1178 -63 
Q 1178 -731 923 -1031 
Q 669 -1331 103 -1331 
L -116 -1331 
L -116 -844 
L 38 -844 
Q 366 -844 484 -692 
Q 603 -541 603 -63 
L 603 3500 
z
M 603 4863 
L 1178 4863 
L 1178 4134 
L 603 4134 
L 603 4863 
z
" transform="scale(0.015625)"/>
       <path id="DejaVuSans-75" d="M 544 1381 
L 544 3500 
L 1119 3500 
L 1119 1403 
Q 1119 906 1312 657 
Q 1506 409 1894 409 
Q 2359 409 2629 706 
Q 2900 1003 2900 1516 
L 2900 3500 
L 3475 3500 
L 3475 0 
L 2900 0 
L 2900 538 
Q 2691 219 2414 64 
Q 2138 -91 1772 -91 
Q 1169 -91 856 284 
Q 544 659 544 1381 
z
M 1991 3584 
L 1991 3584 
z
" transform="scale(0.015625)"/>
      </defs>
      <use xlink:href="#DejaVuSans-41"/>
      <use xlink:href="#DejaVuSans-64" transform="translate(66.658203 0)"/>
      <use xlink:href="#DejaVuSans-6a" transform="translate(130.134766 0)"/>
      <use xlink:href="#DejaVuSans-75" transform="translate(157.917969 0)"/>
      <use xlink:href="#DejaVuSans-73" transform="translate(221.296875 0)"/>
      <use xlink:href="#DejaVuSans-74" transform="translate(273.396484 0)"/>
      <use xlink:href="#DejaVuSans-65" transform="translate(312.605469 0)"/>
      <use xlink:href="#DejaVuSans-64" transform="translate(374.128906 0)"/>
      <use xlink:href="#DejaVuSans-20" transform="translate(437.605469 0)"/>
      <use xlink:href="#DejaVuSans-46" transform="translate(469.392578 0)"/>
      <use xlink:href="#DejaVuSans-6f" transform="translate(523.287109 0)"/>
      <use xlink:href="#DejaVuSans-72" transform="translate(584.46875 0)"/>
      <use xlink:href="#DejaVuSans-63" transform="translate(623.332031 0)"/>
      <use xlink:href="#DejaVuSans-65" transform="translate(678.3125 0)"/>
     </g>
    </g>
   </g>
  </g>
 </g>
 <defs>
  <clipPath id="pe9fa815ce5">
   <rect x="57.17" y="26.88" width="392.83" height="276.76"/>
  </clipPath>
 </defs>
</svg>
